<svg xmlns="http://www.w3.org/2000/svg" viewBox="16.084 -90.1642 109.78 109.78">
  <path d="M32.0058 19.6158L109.947 19.6158C120.302 19.6158 125.868 13.8795 125.868 3.6805L125.868-74.2289C125.868-84.4278 120.302-90.1642 109.947-90.1642L32.0058-90.1642C21.646-90.1642 16.084-84.5977 16.084-74.2289L16.084 3.6805C16.084 14.0493 21.646 19.6158 32.0058 19.6158ZM57.6202-9.27654C56.7675-9.27654 55.9682-10.0758 55.9682-10.9285L55.9682-56.8595L47.702-50.1393C47.4028-49.9205 47.1885-49.7686 46.7419-49.7686C45.8443-49.7686 45.4202-50.443 45.4202-51.1663C45.4202-51.7378 45.5361-52.0815 45.9692-52.3673L55.1914-60.0615C55.8568-60.6689 56.5711-61.169 57.5847-61.169C58.4729-61.169 59.1918-60.3562 59.1918-59.468L59.1918-10.9285C59.1918-10.0758 58.4774-9.27654 57.6202-9.27654ZM74.4927-9.20062C73.6669-9.20062 72.9746-9.83005 72.9746-10.8171C72.9746-11.3172 73.1309-11.8621 73.3542-12.4516L90.3237-57.409L90.3237-57.7127L70.2443-57.7127C69.3647-57.7127 68.7842-58.3781 68.7842-59.1683C68.7842-60.048 69.3647-60.7134 70.2443-60.7134L91.2339-60.7134C92.6676-60.7134 93.5473-59.8157 93.5473-58.5564C93.5473-57.8331 93.3195-56.9934 93.1097-56.4399L76.2565-10.6967C75.8859-9.7366 75.4438-9.20062 74.4927-9.20062Z"/>
</svg>