<svg xmlns="http://www.w3.org/2000/svg" viewBox="11.2588 -96.0928 121.64 121.65">
  <path d="M72.0819 25.5534C105.657 25.5534 132.9-1.69505 132.9-35.2697C132.9-68.8443 105.657-96.0928 72.0819-96.0928C38.5027-96.0928 11.2588-68.8443 11.2588-35.2697C11.2588-1.69505 38.5027 25.5534 72.0819 25.5534ZM72.0819 23.0096C39.8281 23.0096 13.7132-3.01593 13.7132-35.2697C13.7132-67.5235 39.8281-93.549 72.0819-93.549C104.336-93.549 130.361-67.5235 130.361-35.2697C130.361-3.01593 104.336 23.0096 72.0819 23.0096ZM53.5902-8.99485C61.2207-8.99485 66.6753-14.7941 66.6753-23.7697C66.6753-30.3681 63.5574-35.7747 56.9625-36.3376L56.9625-36.494C62.6723-37.937 65.3172-43.2627 65.3172-48.6553C65.3172-56.1384 60.6892-61.5535 53.349-61.5535C47.1746-61.5535 43.5207-57.8497 41.8408-52.3052C41.4342-50.9246 41.3583-49.7988 41.3583-49.1868C41.3583-48.2088 41.8628-47.6328 42.729-47.6328C43.868-47.6328 44.0418-48.3476 44.2606-49.4061C45.0513-54.3032 47.9199-58.6108 53.349-58.6108C59.0727-58.6108 62.205-54.0219 62.205-48.2937C62.205-42.4226 58.4248-37.7533 52.4778-37.7533L49.4929-37.7533C48.4344-37.7533 48.1801-36.985 48.1801-36.2662C48.1801-35.5473 48.6891-34.855 49.4929-34.855L52.5582-34.855C59.4079-34.855 63.5007-31.0214 63.5007-23.5774C63.5007-17.523 60.3954-12.018 53.6751-12.018C47.5448-12.018 43.9924-16.7902 43.4429-21.4015C43.3091-22.5539 42.9743-23.0809 41.822-23.0809C41.0452-23.0809 40.4692-22.496 40.4692-21.5493C40.4692-20.7631 40.7149-19.2976 41.0366-18.337C42.7165-12.8909 47.0897-8.99485 53.5902-8.99485ZM88.1335-8.99485C96.3-8.99485 101.795-15.2676 101.795-23.6133C101.795-29.6758 98.2255-35.5199 92.9893-36.7307L92.9893-36.8022C97.8504-38.5179 100.432-43.2182 100.432-48.2263C100.432-55.4057 95.9473-61.4641 88.1335-61.4641C80.6769-61.4641 76-55.6065 76-48.2218C76-43.0754 78.3048-38.5224 83.4386-36.8022L83.4386-36.7307C78.1354-35.5244 74.5524-29.7607 74.5524-23.6133C74.5524-15.6567 79.569-8.99485 88.1335-8.99485ZM88.2184-38.1509C83.5941-38.1509 79.0986-41.582 79.0986-48.0255C79.0986-54.1068 82.9013-58.4854 88.2184-58.4854C94.2059-58.4854 97.3382-53.3336 97.3382-48.0255C97.3382-42.2123 93.2718-38.1509 88.2184-38.1509ZM88.2184-11.969C81.7439-11.969 77.7805-17.2727 77.7805-23.7382C77.7805-30.2127 81.8289-35.0918 88.2184-35.0918C93.8393-35.0918 98.567-30.9724 98.567-23.7382C98.567-17.3576 94.6884-11.969 88.2184-11.969Z" />
</svg>