<svg xmlns="http://www.w3.org/2000/svg" viewBox="11.2588 -96.0928 121.64 121.65">
  <path d="M72.0819 25.5534C105.487 25.5534 132.9-1.86039 132.9-35.2697C132.9-68.679 105.487-96.0928 72.0819-96.0928C38.6726-96.0928 11.2588-68.679 11.2588-35.2697C11.2588-1.86039 38.6726 25.5534 72.0819 25.5534ZM59.6262-9.28553C58.6526-9.28553 58.0457-10.0583 58.0457-10.942L58.0457-22.3589L41.0807-22.3589C39.4952-22.3589 38.611-23.328 38.611-24.5739C38.611-25.3821 38.8433-26.043 39.2854-26.9896L55.6748-58.941C56.4116-60.4726 57.2064-61.5176 58.787-61.5176C59.7866-61.5176 61.2202-60.9955 61.2202-58.8965L61.2202-25.2792L65.6128-25.2792C66.3806-25.2792 67.1668-24.7032 67.1668-23.8146C67.1668-22.9304 66.5594-22.3589 65.6128-22.3589L61.2202-22.3589L61.2202-10.942C61.2202-10.2146 60.4969-9.28553 59.6262-9.28553ZM58.0322-25.2927L58.0322-57.2612L57.7909-57.2612L41.7636-25.3506L41.7636-25.2927ZM87.8743-9.04876C81.3917-9.04876 77.032-13.0298 75.3566-18.373C75.0349-19.329 74.7892-20.7991 74.7892-21.5763C74.7892-22.5229 75.2758-23.1883 76.133-23.1883C77.2764-23.1883 77.5307-22.5764 77.6556-21.433C78.2899-16.8216 81.8378-12.0585 87.9592-12.0585C94.6749-12.0585 97.7758-17.5499 97.7758-23.5998C97.7758-31.1198 93.6025-34.864 86.8513-34.864L83.7814-34.864C82.9821-34.864 82.3927-35.5518 82.3927-36.2662C82.3927-36.9805 82.7274-37.7443 83.7814-37.7443L86.7709-37.7443C92.6195-37.7443 96.4756-42.4046 96.4756-48.2667C96.4756-53.986 93.2674-58.5704 87.633-58.5704C82.1326-58.5704 79.2595-54.1868 78.4732-49.3836C78.2589-48.3296 78.1745-47.6148 77.0356-47.6148C76.1828-47.6148 75.6783-48.1818 75.6783-49.1554C75.6783-49.7673 75.7497-50.8932 76.1563-52.2693C77.8317-57.8048 81.4766-61.4996 87.633-61.4996C94.9598-61.4996 99.4849-56.089 99.4849-48.6284C99.4849-43.2448 96.849-37.9325 91.1481-36.494L91.1481-36.3376C97.734-35.7747 100.928-30.3771 100.928-23.7966C100.928-14.8345 95.4019-9.04876 87.8743-9.04876Z"/>
</svg>