<svg xmlns="http://www.w3.org/2000/svg" viewBox="11.2588 -96.0928 121.64 121.65">
  <path d="M72.0819 25.5534C105.487 25.5534 132.9-1.86039 132.9-35.2697C132.9-68.679 105.487-96.0928 72.0819-96.0928C38.6726-96.0928 11.2588-68.679 11.2588-35.2697C11.2588-1.86039 38.6726 25.5534 72.0819 25.5534ZM55.5477-8.8075C49.2525-8.8075 44.8343-13.3829 43.4407-19.4683C43.3917-19.9818 43.1594-20.9154 43.1594-21.3261C43.1594-22.2817 43.6595-22.9515 44.6151-22.9515C45.3564-22.9515 45.8609-22.5944 46.0618-21.1872C46.9284-16.2722 50.5657-11.8172 55.5567-11.8172C62.1026-11.8172 65.3243-18.9126 65.3243-25.9275C65.3243-32.3036 62.183-39.8145 55.8069-39.8145C52.1251-39.8145 49.3145-37.5089 47.6122-34.1353C47.1881-33.2242 46.7415-32.4155 45.5711-32.4155C44.4906-32.4155 43.8832-33.0404 43.8832-34.1613C43.8832-34.6124 43.9681-35.9216 44.0485-36.9671L45.6125-58.0025C45.7688-59.4986 46.4387-60.633 48.0956-60.633L64.8315-60.633C65.6307-60.633 66.3006-59.9721 66.3006-59.0879C66.3006-58.2127 65.7112-57.5474 64.8315-57.5474L48.4389-57.5474L46.8749-36.7213L47.0268-36.7213C48.9748-41.1848 52.9469-42.7842 56.2931-42.7842C64.3975-42.7842 68.4854-34.4116 68.4854-25.9989C68.4854-17.3365 64.0493-8.8075 55.5477-8.8075ZM89.6974-8.8075C78.4615-8.8075 76.0629-24.6552 76.0629-35.1893C76.0629-45.7234 78.4615-61.5711 89.6974-61.5711C101.009-61.5711 103.323-45.7234 103.323-35.1893C103.323-24.6552 101.009-8.8075 89.6974-8.8075ZM89.6974-11.8082C98.6968-11.8082 100.104-26.5942 100.104-35.1893C100.104-43.7843 98.6968-58.5704 89.6974-58.5704C80.6936-58.5704 79.2864-43.7843 79.2864-35.1893C79.2864-26.5942 80.6936-11.8082 89.6974-11.8082Z"/>
</svg>