<svg xmlns="http://www.w3.org/2000/svg" viewBox="11.2588 -89.882 116.4 109.67">
  <path d="M11.2588-50.1074C11.2588-34.8146 17.5585-20.9828 27.7539-10.8458C28.2759-10.3373 29.2401-10.3373 29.7042-10.8683C30.1728-11.3994 29.954-12.2296 29.4229-12.7427C19.6917-22.4111 13.8295-35.3991 13.8295-50.1074C13.8295-64.9051 19.6917-77.8932 29.4229-87.5615C29.954-87.9852 30.1728-88.9049 29.7042-89.351C29.2401-89.882 28.2759-89.882 27.7539-89.3734C17.5585-79.3214 11.2588-65.4896 11.2588-50.1074ZM35.0532-50.1074C35.0532-41.4625 38.3594-33.6307 44.1721-27.9124C44.7926-27.4173 45.6538-27.4128 46.1134-27.9394C46.582-28.4749 46.4661-29.3141 45.9126-29.7333C40.2423-34.5675 37.624-42.1409 37.624-50.1074C37.624-58.1633 40.9216-64.977 45.9126-70.486C46.3812-70.9901 46.582-71.8293 46.1134-72.2799C45.6538-72.8914 44.7926-72.8869 44.1721-72.3069C38.3594-66.6735 35.0532-58.7568 35.0532-50.1074ZM62.3641-50.1074C62.3641-46.6408 64.8526-43.7237 68.1094-43.0718L68.1094 18.3484C68.1094 19.2501 68.6629 19.7856 69.4172 19.7856C70.243 19.7856 70.7206 19.2456 70.7206 18.3484L70.7206-43.0718C74.0713-43.7237 76.5508-46.6363 76.5508-50.1074C76.5508-54.0606 73.4508-57.241 69.4172-57.241C65.4641-57.241 62.3641-54.0606 62.3641-50.1074ZM92.7166-27.9394C93.2611-27.4128 94.1223-27.4173 94.6624-27.9124C100.471-33.6307 103.862-41.4625 103.862-50.1074C103.862-58.7568 100.471-66.6735 94.6624-72.3069C94.1223-72.8869 93.2611-72.8914 92.7166-72.2799C92.3374-71.8293 92.5337-70.9901 93.0023-70.486C97.9084-64.977 101.291-58.1633 101.291-50.1074C101.291-42.1409 98.6726-34.5675 93.0023-29.7333C92.3639-29.3141 92.3374-28.4749 92.7166-27.9394ZM109.126-10.8683C109.675-10.3373 110.554-10.3373 111.161-10.8458C121.361-20.9828 127.656-34.8146 127.656-50.1074C127.656-65.4896 121.361-79.3214 111.161-89.3734C110.554-89.882 109.675-89.882 109.126-89.351C108.747-88.9049 108.961-87.9852 109.407-87.5615C119.223-77.8932 125.085-64.9051 125.085-50.1074C125.085-35.3991 119.223-22.4111 109.407-12.7427C108.961-12.2296 108.747-11.3994 109.126-10.8683Z" />
</svg>