<svg xmlns="http://www.w3.org/2000/svg" viewBox="16.084 -90.1642 109.78 109.78">
  <path d="M32.0058 19.6158L109.947 19.6158C120.302 19.6158 125.868 13.8795 125.868 3.6805L125.868-74.2289C125.868-84.4278 120.302-90.1642 109.947-90.1642L32.0058-90.1642C21.646-90.1642 16.084-84.5977 16.084-74.2289L16.084 3.6805C16.084 14.0493 21.646 19.6158 32.0058 19.6158ZM32.1666 17.0405C23.2346 17.0405 18.6637 12.4606 18.6637 3.54212L18.6637-74.0905C18.6637-83.0045 23.2346-87.5889 32.1666-87.5889L109.786-87.5889C118.378-87.5889 123.289-83.0045 123.289-74.0905L123.289 3.54212C123.289 12.4606 118.378 17.0405 109.786 17.0405ZM97.3827-40.1591C98.0746-40.1591 98.713-40.7976 98.713-41.5788L98.713-61.8173C98.713-62.5087 98.0701-63.0981 97.4321-63.0981L77.0149-63.0981C76.323-63.0981 75.6846-62.4597 75.6846-61.7678C75.6846-60.9866 76.323-60.433 77.0149-60.433L83.5033-60.518L94.3559-60.4775L75.4824-41.9032C75.0048-41.3362 75.0093-40.515 75.4869-39.9525C76.0494-39.39 76.8797-39.3945 77.5271-39.948L96.0924-58.808L96.0524-46.865L96.0524-41.5788C96.0524-40.7976 96.6059-40.1591 97.3827-40.1591ZM64.933-7.70947C65.6294-7.70947 66.2678-8.34789 66.2678-9.03978C66.2678-9.81657 65.6294-10.3746 64.933-10.3746L58.534-10.2897L47.5965-10.415L66.4655-28.8999C66.9431-29.4669 66.9386-30.2927 66.461-30.8551C65.8985-31.4176 65.0727-31.4131 64.4253-30.8596L45.9449-11.9951L45.9-23.9426L45.9-29.3137C45.9-30.0056 45.3465-30.644 44.5697-30.644C43.8733-30.644 43.2349-30.0056 43.2349-29.3137L43.2349-8.99036C43.2349-8.29443 43.8778-7.70947 44.5158-7.70947Z" />
</svg>