<svg xmlns="http://www.w3.org/2000/svg" viewBox="11.2588 -96.0124 121.64 121.65">
  <path d="M72.0819 25.6338C105.487 25.6338 132.9-1.77997 132.9-35.1893C132.9-68.5986 105.487-96.0124 72.0819-96.0124C38.6726-96.0124 11.2588-68.5986 11.2588-35.1893C11.2588-1.77997 38.6726 25.6338 72.0819 25.6338ZM41.7186-22.3091C37.3494-22.3091 35.0577-24.5159 35.0577-28.7287L35.0577-41.2253C35.0577-45.4381 37.3494-47.6404 41.7186-47.6404L74.7636-47.6404L74.7636-64.8022C74.7636-66.1914 75.5049-67.2544 76.8806-67.2544C77.8811-67.2544 78.6673-66.7049 79.3147-66.1379L108.593-38.9645C110.559-37.0789 110.786-36.1364 110.786-35.1893C110.786-34.2377 110.559-33.2996 108.593-31.4095L79.3147-4.25861C78.6538-3.67366 77.8856-3.1242 76.8895-3.1242C75.5049-3.1242 74.7636-4.20964 74.7636-5.58981L74.7636-22.3091Z"/>
</svg>