<svg xmlns="http://www.w3.org/2000/svg" viewBox="16.084 -89.5963 115.76 108.81">
  <path d="M16.084-49.101C16.084-48.7753 16.2134-48.53 16.4722-48.2667L55.2665-9.00294C55.5342-8.81559 55.6856-8.69069 56.1053-8.69069C56.8237-8.69069 57.3637-9.22174 57.3637-9.7748C57.3637-10.1809 57.2253-10.6096 57.038-10.8014L33.1959-34.5855L18.7707-49.101L33.1959-63.6121L57.038-87.4856C57.2253-87.6729 57.3637-88.0211 57.3637-88.4273C57.3637-88.9803 56.8237-89.5963 56.1053-89.5963C55.6856-89.5963 55.5342-89.4714 55.2665-89.1991L16.4722-49.9353C16.2134-49.6721 16.084-49.5117 16.084-49.101ZM70.4209 18.0532C70.4209 18.7047 70.8715 19.2177 71.496 19.2177L95.1516 19.2177C116.943 19.2177 131.843 5.28351 131.843-15.5843C131.843-36.4477 116.97-50.2656 95.3039-50.2656L32.9178-50.2656L18.0154-50.1586C17.5024-50.1676 16.9578-49.699 16.9578-49.101C16.9578-48.588 17.5024-48.0345 18.0154-48.0434L32.9178-48.0214L94.9818-48.0214C115.596-48.0214 129.594-34.9974 129.594-15.4545C129.594 4.00351 115.596 16.8887 94.9818 16.8887L71.4111 16.8887C70.7866 16.8887 70.4209 17.4017 70.4209 18.0532Z" />
</svg>