<svg xmlns="http://www.w3.org/2000/svg" viewBox="16.084 -89.0432 90.39 107.63">
  <path d="M106.474 17.4197C106.474 16.7817 105.939 16.1703 105.296 16.1703L17.3379 16.1703C16.615 16.1703 16.084 16.7817 16.084 17.4197C16.084 18.0577 16.615 18.5842 17.3379 18.5842L105.296 18.5842C105.939 18.5842 106.474 18.0577 106.474 17.4197ZM17.262-29.7648C16.615-29.7648 16.084-29.2427 16.084-28.5064C16.084-28.0912 16.2179-27.9219 16.4811-27.6631L60.4448 16.0368C60.7081 16.2107 60.9534 16.3356 61.2791 16.3356C61.6897 16.3356 61.8501 16.2107 62.1134 16.0368L106.162-27.6631C106.425-27.9219 106.474-28.0912 106.474-28.5064C106.474-29.2427 105.943-29.7648 105.381-29.7648C104.966-29.7648 104.466-29.546 104.444-29.4391L74.9424 0.0804077L61.2791 13.7608L47.6158 0.0804077L18.1992-29.4391C18.0922-29.546 17.5922-29.7648 17.262-29.7648ZM62.3232 13.5326L62.4436-0.664021L62.4436-87.9591C62.4436-88.5122 61.9171-89.0432 61.2791-89.0432C60.6411-89.0432 60.1995-88.5122 60.1995-87.9591L60.1995-0.664021L60.235 13.5326C60.226 14.0367 60.7705 14.4873 61.2791 14.4873C61.8726 14.4873 62.3322 14.0367 62.3232 13.5326Z" />
</svg>