<svg xmlns="http://www.w3.org/2000/svg" viewBox="-1.22832 -96.0928 134.13 121.65">
  <path d="M1.30829-45.5226C-0.446579-45.5226-1.22832-44.2722 0.0624496-42.5349L13.0186-23.9718C13.9967-22.4488 15.3364-22.4488 16.319-23.9718L29.2751-42.4455C30.5704-44.2722 29.7886-45.5226 28.0293-45.5226ZM132.9-35.2697C132.9-68.8443 105.657-96.0928 72.0819-96.0928C38.5027-96.0928 11.2543-68.8399 11.2588-35.1893C11.2543-34.3545 11.8658-33.9129 12.5307-33.9129C13.1062-33.9129 13.7132-34.35 13.7132-35.1848C13.7132-67.5235 39.8281-93.549 72.0819-93.549C104.336-93.549 130.361-67.5235 130.361-35.2697C130.361-3.01593 104.336 23.0096 72.0819 23.0096C50.2867 23.0096 31.1769 11.16 21.1779-6.82441C20.7942-7.42239 20.0533-7.62771 19.3704-7.39139C18.8529-7.06567 18.6475-6.28033 19.0177-5.5215C29.387 13.0429 49.412 25.5534 72.0819 25.5534C105.657 25.5534 132.9-1.69505 132.9-35.2697ZM38.899-7.64884C39.8101-7.64884 40.2522-8.09991 40.4755-8.82773L44.5908-24.6902L62.7087-24.6902L66.9893-8.82773C67.2081-8.09991 67.5698-7.64884 68.472-7.64884C69.2982-7.64884 69.8831-8.18033 69.8831-9.0645C69.8831-9.45312 69.8027-9.75234 69.7358-10.0426L56.0055-60.1877C55.6304-61.4605 55.0454-62.2243 53.7726-62.2243C52.33-62.2243 51.7495-61.4695 51.4593-60.1028L37.6397-10.0426C37.5682-9.74335 37.4923-9.44863 37.4923-9.0645C37.4923-8.18033 38.1622-7.64884 38.899-7.64884ZM45.2652-27.2403L53.4554-57.8875L53.8531-57.8875L62.0298-27.2403ZM91.1014-9.09639C99.6529-9.09639 104.563-14.6458 104.563-21.6464C104.563-29.3177 99.5226-32.9101 93.8487-35.7113L90.1094-37.5475C84.5955-40.2643 80.7933-43.553 80.7933-49.1203C80.7933-55.2776 85.4671-58.2222 90.8512-58.2222C97.6743-58.2222 100.552-53.7672 100.909-47.1049C100.967-46.1803 101.588-45.6398 102.338-45.6398C103.24-45.6398 103.843-46.2517 103.843-47.2388C103.843-47.538 103.852-47.9132 103.781-48.6279C103.031-56.6259 97.6913-60.9466 90.8512-60.9466C83.8281-60.9466 77.8815-56.7782 77.8815-49.0579C77.8815-42.1148 82.1797-38.2277 88.6133-35.0824L92.2632-33.2462C97.7502-30.6233 101.646-27.491 101.646-21.4276C101.646-15.1989 97.1333-11.7314 91.1014-11.7314C83.4741-11.7314 80.5296-16.7583 79.8997-23.7112C79.8462-24.6938 79.0645-25.069 78.5644-25.069C77.7382-25.069 76.9744-24.5465 76.9744-23.6488C76.9744-23.3496 76.97-22.961 77.0459-22.2372C77.8231-14.6503 82.5005-9.09639 91.1014-9.09639ZM90.9361-1.71079C91.5615-1.71079 92.1109-2.25576 92.1109-2.79624L92.1109-66.6478C92.1109-67.2732 91.5615-67.8227 90.9361-67.8227C90.3152-67.8227 89.7657-67.2732 89.7657-66.6478L89.7657-2.79624C89.7657-2.25576 90.3152-1.71079 90.9361-1.71079Z" />
</svg>