<svg xmlns="http://www.w3.org/2000/svg" viewBox="15.3067 -97.7493 97.71 123.42">
  <path d="M19.7289-63.7437L26.7039-61.2013C30.0631-59.946 32.5912-61.1699 33.8375-64.6899L41.7406-86.6571C43.0718-90.2621 41.9284-92.7008 38.6496-93.9515L31.6747-96.4985C28.3155-97.7493 25.8723-96.4405 24.626-92.9205L16.6379-71.0382C15.3067-67.4332 16.4546-64.9945 19.7289-63.7437ZM89.6763-63.7437L96.6513-61.2013C100.011-59.946 102.539-61.1699 103.785-64.6899L111.688-86.6571C113.019-90.2621 111.876-92.7008 108.597-93.9515L101.622-96.4985C98.3478-97.7493 95.9046-96.4405 94.6583-92.9205L86.6702-70.8683C85.424-67.4332 86.4824-64.9096 89.6763-63.7437ZM25.4963 25.6684L32.8823 25.6684C36.4783 25.6684 38.3051 23.6004 38.3051 19.9285L38.3051-3.39241C38.3051-7.15373 36.4783-9.13683 32.8823-9.13683L25.4963-9.13683C21.9003-9.13683 20.0735-7.15373 20.0735-3.39241L20.0735 19.9285C20.0735 23.6004 21.9003 25.6684 25.4963 25.6684ZM95.4437 25.6684L102.83 25.6684C106.426 25.6684 108.252 23.6004 108.252 19.9285L108.252-3.39241C108.252-7.15373 106.426-9.13683 102.83-9.13683L95.4437-9.13683C91.9326-9.13683 90.1058-7.15373 90.1058-3.39241L90.1058 19.9285C90.1058 23.6004 91.9326 25.6684 95.4437 25.6684ZM37.3503-77.6025L91.4002-77.6025L91.4002-80.0928L37.3503-80.0928ZM62.8731-80.0928L62.8731-1.74584C63.007-1.60297 63.0515-1.54052 63.1854-1.40664L64.1854-0.321637L65.1496-1.36171C65.279-1.49559 65.328-1.54906 65.4529-1.69642L65.4529-80.0928ZM37.3503 9.55341L54.2879 9.55341C54.3504 9.50893 54.4083 9.54936 54.4573 9.4959L55.5868 8.27702L54.4124 7.19651C54.3634 7.15203 54.31 7.01815 54.252 7.06307L37.3503 7.06307ZM91.4002 9.55341L91.4002 7.06307L73.9711 7.06307C73.9086 7.02264 73.8507 7.15203 73.8017 7.20549L72.6722 8.25455L73.8466 9.41997C73.8956 9.46894 74.034 9.51342 74.0919 9.55341ZM54.6258 17.8142C55.2957 18.3992 56.0859 18.2963 56.4921 17.8007L64.1585 10.2192L72.0307 18.1808C72.6201 18.7747 73.4104 18.7792 74.0892 18.1808C74.6787 17.6718 74.6787 16.7162 74.0892 16.2116L66.0428 8.25455L73.6198 0.842889C74.1153 0.347338 74.2227-0.523357 73.6332-1.19772C72.9634-1.86759 72.1731-1.7647 71.682-1.18424L64.1854 6.31234L56.1435-1.73415C55.6389-2.15826 54.7637-2.24767 54.1698-1.73415C53.4954-1.0508 53.5803-0.26502 54.1698 0.235024L62.2163 8.27702L54.6393 15.8585C54.1437 16.439 54.0364 17.1398 54.6258 17.8142Z"/>
</svg>