<svg xmlns="http://www.w3.org/2000/svg" viewBox="11.2588 -96.0928 121.64 121.65">
  <path d="M72.0819 25.5534C105.487 25.5534 132.9-1.86039 132.9-35.2697C132.9-68.679 105.487-96.0928 72.0819-96.0928C38.6726-96.0928 11.2588-68.679 11.2588-35.2697C11.2588-1.86039 38.6726 25.5534 72.0819 25.5534ZM55.1843-7.10071C54.314-7.10071 53.9438-7.72566 53.9438-8.6004L53.9438-61.6928C53.9438-62.5586 54.314-63.1031 55.1843-63.1031L73.2963-63.1031C82.5886-63.1031 89.223-57.3084 89.223-49.4097C89.223-43.1504 85.5417-37.8247 80.3103-36.6454L80.3103-36.4131C87.7979-35.3721 92.5067-29.993 92.5067-22.456C92.5067-12.846 85.4482-7.10071 73.6494-7.10071ZM56.6979-37.3328L72.6053-37.3328C80.3476-37.3328 86.3795-42.3507 86.3795-48.8337C86.3795-56.1124 81.4959-60.3571 72.9216-60.3571L56.6979-60.3571ZM56.6979-9.93159L72.2966-9.93159C83.6718-9.93159 89.6008-14.1094 89.6008-22.2592C89.6008-29.8191 84.0739-34.4704 75.2542-34.4704L56.6979-34.4704Z"/>
</svg>