<svg xmlns="http://www.w3.org/2000/svg" viewBox="11.2273 -96.1107 121.67 121.66">
  <path d="M11.4286-30.3264C16.3742-38.4847 24.6579-47.0231 32.7314-53.2379C32.7358-53.9083 32.7358-54.4892 32.6509-55.155C32.3248-59.8238 28.8308-70.3773 21.9856-69.6441C15.2394-59.7479 11.2273-47.8368 11.2588-35.041C11.2588-33.5306 11.3437-31.9262 11.4286-30.3264ZM35.5447-55.2431C38.1541-57.1287 41.0227-58.9338 43.8823-60.5692C42.171-72.9408 42.4837-82.6986 45.3523-89.825C36.9837-85.7011 29.5891-79.6871 23.9283-72.3595C32.0067-70.9299 35.0267-61.5158 35.5447-55.2431ZM46.4364-61.9804C50.9494-64.286 55.7126-66.3459 60.5562-67.9009C60.3104-69.4468 60.1451-70.9079 60.1451-72.5342C60.1451-83.4448 67.1646-91.8934 77.5796-95.9274C75.8903-96.0124 74.1117-96.0973 72.3375-96.0973C63.8885-96.1107 55.9354-94.4085 48.7241-91.397C45.1448-82.934 44.9754-73.7482 46.4364-61.9804ZM63.3381-68.7046C71.5634-71.1442 80.2802-72.5293 89.2293-72.5293C101.502-72.5293 113.52-69.9559 125.11-65.0323C116.371-80.3929 101.292-91.5403 83.541-94.9849C71.0449-91.6432 63.0254-83.9628 63.003-72.5342C63.003-71.283 63.0834-70.0408 63.3381-68.7046ZM32.8253-49.7507C24.7293-43.402 16.9416-34.4794 11.8842-26.5448C14.2074-10.6927 22.6384 3.20696 34.8003 12.692C25.6989-5.42043 32.7987-29.413 32.8253-49.7507ZM35.6696-51.9341C36.0003-28.8064 26.7443-1.76063 40.0667 16.4731C49.4008 22.2198 60.4062 25.5534 72.0819 25.5534C75.8751 25.5534 79.5924 25.2272 83.1443 24.5794C59.4429-4.43427 48.1531-34.9175 44.3244-57.5685C41.2995-55.8527 38.4443-53.9716 35.6696-51.9341ZM61.3689-65.1904C56.2931-63.5551 51.4674-61.5131 46.8071-58.9617C50.408-36.6144 61.6978-5.52376 86.3059 23.847C101.944 20.0898 115.392 10.1172 123.765-3.27334C117.736-31.6562 69.4365-40.5603 61.3689-65.1904ZM125.698-6.50139C130.309-15.1153 132.9-24.8641 132.9-35.2697C132.9-44.8221 130.702-53.968 126.623-62.0459C114.739-66.9017 102.109-69.667 89.2293-69.667C80.49-69.667 72.0769-68.4427 63.981-66.0791C71.5441-43.6145 117.058-34.7998 125.698-6.50139Z"/>
</svg>