<svg xmlns="http://www.w3.org/2000/svg" viewBox="16.084 -72.0553 168.55 73.91">
  <path d="M44.5481-5.29375L72.0864-5.29375C80.809-5.29375 86.0462-6.71031 89.0177-9.6818C91.9892-12.7382 93.4012-17.9754 93.4012-26.6131L93.4012-43.5867C93.4012-52.3942 91.9892-57.4616 89.1026-60.518C86.0462-63.4045 80.6392-64.9105 72.0864-64.9105L45.3973-64.9105C35.9104-64.9105 30.423-63.4894 27.5319-60.6029C24.6454-57.5465 23.2333-52.1395 23.2333-42.742L23.2333-26.6131C23.2333-17.8055 24.6454-12.7382 27.5319-9.6818C30.5883-6.79522 35.9953-5.29375 44.5481-5.29375ZM45.838 1.85556L140.969 1.85556C153.806 1.85556 159.894 0.0369035 164.437-4.42573C168.9-8.96879 170.638-14.8875 170.638-27.8985L170.638-42.3013C170.638-55.3122 168.9-61.3159 164.437-65.7785C159.809-70.2367 153.806-72.0553 140.969-72.0553L44.9889-72.0553C33.0818-72.0553 26.9128-70.1517 22.4547-65.6936C17.9071-61.1461 16.084-55.1424 16.084-43.2353L16.084-27.8985C16.084-14.8875 17.8222-8.88388 22.3698-4.42573C26.9128 0.0369035 32.9165 1.85556 45.838 1.85556ZM44.2386-0.639271C34.7167-0.639271 28.3101-2.55183 24.3605-6.50139C20.4109-10.4509 18.6637-16.6923 18.6637-26.2991L18.6637-43.0561C18.6637-53.3377 20.4109-59.8382 24.2756-63.7833C28.2252-67.8178 34.8865-69.565 45.0832-69.565L142.568-69.565C152.09-69.565 158.412-67.6479 162.362-63.6984C166.311-59.7533 168.143-53.5075 168.143-43.9052L168.143-26.2991C168.143-16.6923 166.226-10.4509 162.362-6.50139C158.412-2.46691 152.09-0.639271 142.568-0.639271ZM175.122-21.8629C179.165-22.0997 184.638-27.3355 184.638-35.0999C184.638-42.8642 179.165-48.1001 175.122-48.3368Z"/>
</svg>