<svg xmlns="http://www.w3.org/2000/svg" viewBox="16.084 -81.2987 149.33 92.15">
  <path d="M19.671 10.8487L22.1636 10.8487C24.6072 10.8487 25.84 9.62035 25.84 7.09184L25.84-3.60895C26.2196-3.53751 26.5943-3.5465 27.0943-3.5465L154.405-3.5465C154.905-3.5465 155.195-3.53751 155.66-3.60895L155.66 7.09184C155.66 9.62035 156.893 10.8487 159.336 10.8487L161.744 10.8487C164.268 10.8487 165.416 9.62035 165.416 7.09184L165.416-35.3205C165.416-42.4091 161.65-46.608 155.25-46.608L26.1603-46.608C19.8493-46.608 16.084-42.4091 16.084-35.3205L16.084 7.09184C16.084 9.62035 17.2319 10.8487 19.671 10.8487ZM20.2137-6.18914C19.2711-6.18914 18.6413-6.89944 18.6413-8.08328L18.6413-35.3959C18.6413-40.7396 21.2592-43.9654 25.9995-43.9654L155.415-43.9654C160.151-43.9654 162.858-40.7396 162.858-35.3959L162.858-8.08328C162.858-6.89944 162.229-6.18914 161.197-6.18914ZM31.2025-46.7828L46.2226-46.7828L46.2226-59.4712C46.2226-64.3139 49.35-67.6156 54.0988-67.6156L76.9875-67.6156C81.7408-67.6156 84.9531-64.3139 84.9531-59.4712L84.9531-46.7828L96.5466-46.7828L96.5466-59.4712C96.5466-64.3139 99.7589-67.6156 104.512-67.6156L127.401-67.6156C132.15-67.6156 135.277-64.3139 135.277-59.4712L135.277-46.7828L150.297-46.7828L150.297-67.213C150.297-76.9834 145.397-81.2987 137.919-81.2987L43.5809-81.2987C36.1032-81.2987 31.2025-76.9834 31.2025-67.213Z"/>
</svg>