<svg xmlns="http://www.w3.org/2000/svg" viewBox="16.084 -81.5781 146.42 109.5">
  <path d="M21.4613 10.2794L49.0773 10.2794C68.7222 10.2794 80.6109 0.660479 80.6109-15.1153C80.6109-27.4196 71.7647-36.0914 59.0628-37.5035L59.0628-37.8966C68.7442-39.6034 75.9061-48.1728 75.9061-58.1449C75.9061-71.6999 65.0404-80.649 48.8809-80.649L21.4613-80.649C18.1385-80.649 16.084-78.5096 16.084-75.1153L16.084 4.74571C16.084 8.13998 18.1385 10.2794 21.4613 10.2794ZM27.2143 0.617339L27.2143-32.0313L46.1076-32.0313C61.0715-32.0313 69.1544-26.2272 69.1544-15.7003C69.1544-5.26724 61.4022 0.617339 47.1935 0.617339ZM27.2143-41.1085L27.2143-71.0004L46.3848-71.0004C57.8947-71.0004 64.7533-65.6967 64.7533-56.6308C64.7533-46.8232 57.0725-41.1085 43.7439-41.1085ZM131.078 11.8029C150.361 11.8029 162.499-0.456415 162.499-20.1238L162.499-80.2572C162.499-81.0471 161.972-81.5781 161.268-81.5781C160.558-81.5781 160.023-81.0471 160.023-80.2572L160.023-20.1458C160.023-1.80829 149.018 9.60325 131.078 9.60325C113.309 9.60325 102.129-1.80829 102.129-20.1458L102.129-80.2572C102.129-81.0471 101.683-81.5781 100.978-81.5781C100.273-81.5781 99.7378-81.0471 99.7378-80.2572L99.7378-20.1238C99.7378-0.456415 111.881 11.8029 131.078 11.8029ZM101.372 27.9215L160.949 27.9215C162.012 27.9215 162.499 27.341 162.499 26.6267C162.499 25.8274 162.012 25.3319 160.949 25.3319L101.372 25.3319C100.309 25.3319 99.7378 25.8274 99.7378 26.6267C99.7378 27.341 100.309 27.9215 101.372 27.9215Z" />
</svg>