<svg xmlns="http://www.w3.org/2000/svg" viewBox="9.17236 -101.131 100.34 130.76">
  <path d="M41.6063 27.8361L74.0838-13.0769L38.0004-49.1648L21.96-29.054C21.433-28.3752 21.0399-27.9421 21.0399-27.2677C21.0399-26.9155 21.0884-26.4379 22.111-26.4379L58.8368-26.4693L39.0037 26.4344C38.0391 28.7428 40.1731 29.6265 41.6063 27.8361ZM81.4618-22.3441L97.4932-42.4504C98.0202-43.1293 98.4088-43.5624 98.4088-44.2367C98.4088-44.589 98.2799-45.0711 97.3423-45.0666L60.6164-45.0351L80.4496-97.9388C81.3248-100.243 79.2756-101.131 77.762-99.3406L45.289-58.432ZM107.102 13.9468C107.66 14.4199 108.481 14.4199 109.044 13.9468C109.432 13.4693 109.517 12.5631 109.044 12.0051L11.5872-85.4513C11.2795-85.7545 10.2124-85.9244 9.73486-85.4513C9.17236-84.8888 9.17236-84.072 9.73486-83.5095Z"/>
</svg>