<svg xmlns="http://www.w3.org/2000/svg" viewBox="16.084 -98.3248 155.45 126.26">
  <path d="M74.7573 1.83622L74.1059-0.743521L72.5433-0.743521C71.1456-0.743521 70.4088-0.435319 69.0241 0.770534L46.9482 19.5973L46.9482 0.568814C46.9482-0.314912 46.5196-0.743521 45.6358-0.743521L38.3446-0.743521C26.5008-0.743521 18.6637-8.54919 18.6637-20.4244L18.6637-76.0642C18.6637-87.9394 26.5008-95.8299 38.3446-95.8299L125.929-95.8299C137.433-95.8299 145.609-87.9394 145.609-76.0642L145.609-64.1346L148.189-64.1346L148.189-76.234C148.189-89.497 139.428-98.3248 126.098-98.3248L38.1748-98.3248C24.8448-98.3248 16.084-89.6623 16.084-76.234L16.084-20.2546C16.084-6.91113 24.8448 1.83622 38.1748 1.83622L44.4978 1.83622L44.4978 20.2128C44.4978 21.5207 45.3595 22.4269 46.4351 22.4269C47.3413 22.4269 48.0556 21.8509 48.6622 21.3917L71.7431 1.83622ZM88.758 11.1137L127.554 11.1137L146.224 27.2417C146.651 27.6205 147.455 27.9372 148.022 27.9372C148.932 27.9372 149.624 27.2009 149.624 26.1478L149.624 11.1137L155.46 11.1137C165.742 11.1137 171.536 5.41873 171.536-4.88132L171.536-49.022C171.536-59.4069 165.742-65.1868 155.46-65.1868L88.758-65.1868C78.391-65.1868 72.5932-59.4069 72.5932-49.022L72.5932-4.7115C72.5932 5.58856 78.391 11.1137 88.758 11.1137ZM89.4328 8.53399C79.9622 8.53399 75.1729 4.03092 75.1729-5.47122L75.2578-48.3427C75.2578-57.8493 79.9622-62.6071 89.4328-62.6071L154.696-62.6071C164.252-62.6071 168.96-57.8493 168.96-48.3427L168.96-5.72596C168.96 3.86558 164.167 8.53399 154.696 8.53399L148.387 8.53399C147.713 8.53399 147.173 8.94013 147.173 9.72996L147.173 24.4998L130.407 9.81577C129.179 8.74829 128.438 8.53399 127.236 8.53399Z"/>
</svg>