<svg xmlns="http://www.w3.org/2000/svg" viewBox="16.084 -90.1642 145.27 109.78">
  <path d="M32.0058 19.6158L86.5588 19.6158L86.5588 17.0405L32.1666 17.0405C23.2346 17.0405 18.6637 12.4606 18.6637 3.54212L18.6637-33.0723L16.084-33.0723L16.084 3.6805C16.084 14.0493 21.646 19.6158 32.0058 19.6158ZM91.043 19.6158L145.435 19.6158C155.79 19.6158 161.357 13.8795 161.357 3.6805L161.357-33.0723L158.777-33.0723L158.777 3.54212C158.777 12.4606 153.867 17.0405 145.274 17.0405L91.043 17.0405ZM158.777-37.4761L161.357-37.4761L161.357-74.2289C161.357-84.4278 155.79-90.1642 145.435-90.1642L91.043-90.1642L91.043-87.5889L145.274-87.5889C153.867-87.5889 158.777-83.0045 158.777-74.0905ZM16.084-37.4761L18.6637-37.4761L18.6637-74.0905C18.6637-83.0045 23.2346-87.5889 32.1666-87.5889L86.5588-87.5889L86.5588-90.1642L32.0058-90.1642C21.646-90.1642 16.084-84.5977 16.084-74.2289ZM87.8091-22.845C88.541-22.845 89.0141-23.4835 89.0141-24.3452C89.0141-25.1853 89.0141-26.0255 89.0141-26.8656C89.0141-31.0074 90.6759-33.4335 95.9616-37.0124C102.672-41.6368 104.785-45.3361 104.785-50.8352C104.785-57.9423 98.3747-63.5717 88.8811-63.5717C79.4814-63.5717 73.4369-57.6516 72.7805-50.8289C72.718-50.1276 72.8164-49.6811 72.8164-48.8099C72.8164-47.7963 73.267-47.2114 74.1557-47.2114C74.955-47.2114 75.6338-47.7474 75.5574-48.672L75.3962-49.3463C75.2479-54.9317 80.7753-60.969 88.7382-60.969C96.933-60.969 102.089-56.5545 102.089-50.6119C102.089-46.2648 100.034-43.3157 93.6272-38.8522C88.1807-35.032 86.4298-31.8242 86.4298-27.0889C86.4298-26.0744 86.4298-25.2388 86.4298-24.3092C86.4298-23.5014 86.9968-22.845 87.8091-22.845ZM87.7332-6.68603C89.8057-6.68603 91.4806-8.54872 91.4806-10.4514C91.4806-12.5194 89.8012-14.2168 87.7332-14.2168C85.5803-14.2168 83.9858-12.5239 83.9858-10.4514C83.9858-8.54423 85.5758-6.68603 87.7332-6.68603Z"/>
</svg>