<svg xmlns="http://www.w3.org/2000/svg" viewBox="16.084 -113.1 115.16 138.77">
  <path d="M72.5639-80.1773C57.7707-80.1773 44.7782-86.0439 35.1098-95.8601C34.6862-96.3062 33.7665-96.5205 33.3204-96.0564C32.7044-95.5923 32.7044-94.7131 33.2979-94.1016C43.3499-83.9062 57.1817-77.611 72.5639-77.611C87.8568-77.611 101.689-83.9062 111.741-94.1016C112.334-94.7131 112.334-95.5923 111.723-96.0564C111.272-96.5205 110.442-96.3062 109.929-95.8601C100.26-86.0439 87.2722-80.1773 72.5639-80.1773ZM73.0689-104.057C65.013-104.057 58.2038-107.44 52.6948-112.346C52.1058-112.904 51.347-113.1 50.9009-112.636C50.2894-112.176 50.2939-111.226 50.7845-110.69C56.5074-104.877 64.424-101.576 73.0689-101.576C81.6334-101.576 89.5456-104.877 95.2684-110.69C95.7635-111.226 95.768-112.176 95.2415-112.636C94.7059-113.1 93.8667-112.984 93.4475-112.346C88.6133-106.765 81.0399-104.057 73.0689-104.057ZM73.6633 12.9984C85.8422 12.9984 101.917 12.4265 113.073 11.7027L113.073 19.3422C113.073 22.8627 115.879 25.6684 119.395 25.6684L124.921 25.6684C128.441 25.6684 131.243 22.8627 131.243 19.3422L131.243-7.13261C131.243-16.5018 128.87-20.7236 125.162-25.4589L120.475-31.5219C118.715-40.7657 115.253-50.5814 113.483-54.3611C110.754-59.977 105.62-62.4876 100.241-63.2024C96.694-63.6894 84.7828-63.9261 73.6633-63.9261C62.4589-63.9261 50.5433-63.6894 47.0003-63.2024C41.7065-62.4876 36.5731-59.977 33.8433-54.3611C32.0741-50.5814 28.6115-40.7657 26.8513-31.5219L22.1645-25.4589C18.3717-20.7236 16.084-16.5018 16.084-7.13261L16.084 19.3422C16.084 22.8627 18.8852 25.6684 22.4012 25.6684L27.8469 25.6684C31.3629 25.6684 34.1686 22.8627 34.1686 19.3422L34.1686 11.7027C45.4094 12.4265 61.4799 12.9984 73.6633 12.9984ZM34.0208-35.0064C35.6561-42.7811 37.9748-48.8971 39.5787-51.6134C41.29-54.5354 43.761-56.7027 48.2115-57.1897C52.4068-57.7527 61.776-57.9045 73.6633-57.9045C85.5506-57.9045 94.9198-57.7482 99.1151-57.1897C103.481-56.7027 106.041-54.5354 107.748-51.6134C109.347-48.8926 111.595-42.7811 113.306-35.0064C113.529-33.9345 113.243-32.6967 111.403-32.7726C102.02-33.4205 92.6649-33.8136 73.6633-33.8136C54.6617-33.8136 45.3065-33.4205 35.9239-32.7726C34.0832-32.6967 33.793-33.9345 34.0208-35.0064ZM36.5093-1.34776C32.8774-1.34776 30.2864-3.93872 30.2864-7.57065C30.2864-11.1981 32.8774-13.7086 36.5093-13.7086C40.0563-13.7086 42.6518-11.1981 42.6518-7.57065C42.6518-3.93872 40.0563-1.34776 36.5093-1.34776ZM61.2746-1.80737C58.5942-1.80737 56.9593-3.53617 56.9593-6.12714C56.9593-8.72259 58.5942-10.4514 61.2746-10.4514L85.9671-10.4514C88.6475-10.4514 90.3673-8.72259 90.3673-6.12714C90.3673-3.53617 88.6475-1.80737 85.9671-1.80737ZM110.817-1.34776C107.185-1.34776 104.59-3.93872 104.59-7.57065C104.59-11.1981 107.185-13.7086 110.817-13.7086C114.364-13.7086 116.955-11.1981 116.955-7.57065C116.955-3.93872 114.364-1.34776 110.817-1.34776Z" />
</svg>