<svg xmlns="http://www.w3.org/2000/svg" viewBox="16.084 -97.3373 131.74 124.23">
  <path d="M16.6056-64.0776L18.0123-64.0776C18.3825-64.0776 18.5339-64.229 18.5339-64.5992L18.5339-96.7065C18.5339-97.0767 18.3825-97.2281 18.0123-97.2281L16.6056-97.2281C16.3203-97.2281 16.084-97.0767 16.084-96.7065L16.084-64.5992C16.084-64.229 16.3203-64.0776 16.6056-64.0776ZM16.6056-19.2396L18.0123-19.2396C18.3825-19.2396 18.5339-19.4759 18.5339-19.7657L18.5339-51.9624C18.5339-52.2477 18.3825-52.4841 18.0123-52.4841L16.6056-52.4841C16.3203-52.4841 16.084-52.2477 16.084-51.9624L16.084-19.7657C16.084-19.4759 16.3203-19.2396 16.6056-19.2396ZM16.6056 25.5044L18.0123 25.5044C18.3825 25.5044 18.5339 25.353 18.5339 24.9828L18.5339-7.20943C18.5339-7.49472 18.3825-7.73104 18.0123-7.73104L16.6056-7.73104C16.3203-7.73104 16.084-7.49472 16.084-7.20943L16.084 24.9828C16.084 25.353 16.3203 25.5044 16.6056 25.5044ZM133.573-79.1439L136.023-77.2377L136.023-96.7914C136.023-97.1616 135.871-97.313 135.501-97.313L134.095-97.313C133.809-97.313 133.573-97.1616 133.573-96.7914ZM134.095 25.4195L135.501 25.4195C135.871 25.4195 136.023 25.2681 136.023 24.8979L136.023-7.29434C136.023-7.57963 135.871-7.81595 135.501-7.81595L134.095-7.81595C133.809-7.81595 133.573-7.57963 133.573-7.29434L133.573 24.8979C133.573 25.2681 133.809 25.4195 134.095 25.4195ZM64.3679 15.9268C81.6977 25.9923 94.6772 26.8949 100.422 16.8249L141.661-54.6572C147.827-65.3036 141.407-77.1384 123.871-87.2803C106.41-97.3373 93.0477-96.9486 86.8823-86.2218L45.6435-14.7352C39.8133-4.75012 47.038 5.94618 64.3679 15.9268ZM65.6982 13.6099C49.6717 4.38809 42.929-4.85255 47.9424-13.3914L89.1902-84.896C94.5968-94.1496 106.424-94.3374 122.63-85.0573C138.826-75.6117 144.849-65.1518 139.443-55.9026L98.195 15.602C93.2665 24.1408 81.7246 22.9256 65.6982 13.6099ZM98.9624-43.902C102.595-41.7217 110.284-36.7307 112.478-35.5199C115.883-33.5719 118.313-33.8891 120.744-37.4635L125.069-43.7048C129.103-49.5175 128.496-54.1149 110.753-64.3336C93.0859-74.5568 88.7122-72.7557 85.7277-66.3846L82.5243-59.4999C80.7371-55.5993 81.5593-53.3341 84.9549-51.395C87.1442-50.0993 94.1412-46.6812 98.9624-43.902ZM71.5243 3.75372C86.7021 12.435 92.5238 12.922 95.5308 6.31862L97.3225 2.36007C99.7576-3.03705 96.5228-7.25483 82.5154-15.4046C68.4185-23.4651 63.2357-24.1084 59.7776-19.3367L57.1952-15.7668C52.942-9.87364 56.3421-5.09741 71.5243 3.75372ZM77.0392-65.327L81.2695-72.5324L77.3209-74.7703C75.5161-75.8737 73.9127-75.4985 73.0595-74.0245L71.594-71.5804C70.7408-70.1063 71.2813-68.6817 73.1799-67.5693ZM128.612-35.5842L132.391-33.4313C134.285-32.3278 135.795-32.5287 136.652-34.0027L138.122-36.5317C138.98-38.0013 138.426-39.5198 136.536-40.6232L132.758-42.8701Z"/>
</svg>