<svg xmlns="http://www.w3.org/2000/svg" viewBox="15.8027 -91.853 165.85 122.43">
  <path d="M49.2844-62.5033L16.2938 6.27146C15.8027 7.42789 16.1554 8.46347 17.4588 8.46347L23.3375 8.46347C24.5429 8.46347 25.1903 8.0708 25.7218 6.7086L53.7044-62.3114C53.9007-62.7666 53.539-62.9894 53.1733-62.9894L50.2705-62.9894C49.726-62.9894 49.3913-62.9764 49.2844-62.5033ZM148.168-62.5033C147.976-62.9764 147.726-62.9894 147.182-62.9894L144.279-62.9894C143.913-62.9894 143.551-62.7666 143.748-62.3114L171.73 6.7086C172.177 8.0708 172.909 8.46347 174.115 8.46347L179.993 8.46347C181.297 8.46347 181.649 7.42789 181.158 6.27146ZM105.865-24.6713L103.412-14.0344L90.0636-27.6109C89.0361-28.8038 87.611-28.013 88.165-26.4271L92.8468-12.3635L86.7399-15.1423C85.3952-15.7766 84.3632-14.8341 85.3952-13.4L88.8038-8.86995L72.7567-11.0948C71.2736-11.3315 70.4515-9.75906 71.966-8.79852L87.057 0.33746L77.9211 3.75958C76.2412 4.39844 76.478 5.97539 78.2338 6.13623L88.4017 6.85103L74.6598 16.0629C73.2167 17.0235 73.9495 18.8327 75.6918 18.4396L93.0077 14.5484L93.164 29.0811C93.164 30.4168 94.683 30.5776 95.228 29.635L106.263 11.4525L124.928 28.2054C126.362 29.5681 127.863 27.9552 127.072 26.6285L116.033 5.89497L127.224 2.56226C128.18 2.24058 128.18 1.13717 127.304 0.739559L117.387-3.39286L124.535-23.6439C125.013-25.0869 123.829-26.025 122.631-24.9126L110.949-13.9539L108.17-24.6713C107.773-26.2708 106.267-26.5255 105.865-24.6713ZM64.9501-42.8422C64.9501-40.8452 66.554-39.1564 68.6359-39.1564L71.9197-39.1564C74.0016-39.1564 75.6055-40.7603 75.6055-42.8422L75.6055-45.9871L121.766-45.9871L121.766-42.8422C121.766-40.7603 123.37-39.1564 125.452-39.1564L128.736-39.1564C130.733-39.1564 132.337-40.7603 132.337-42.8422L132.337-59.9663C132.337-65.4663 130.92-67.9278 128.812-70.7915L126.176-74.263L122.695-84.0523C120.921-88.9579 118.223-90.9684 114.296-91.4509C112.196-91.6921 105.168-91.853 98.6411-91.853C92.1186-91.853 85.1755-91.6921 83.0756-91.4509C79.0636-90.9684 76.3652-88.9579 74.6764-84.0523L71.1959-74.263L68.4751-70.7915C66.3667-67.9278 64.9501-65.4663 64.9501-59.9663ZM77.173-76.3369C76.0651-76.3369 75.5826-77.2974 75.9847-78.4098L77.8344-83.6147C78.9872-86.9123 80.6315-88.4138 83.7729-88.8249C86.2079-89.1466 90.3713-89.218 98.6411-89.218C106.915-89.218 111.079-89.1466 113.603-88.8249C116.655-88.4138 118.3-86.9123 119.457-83.6147L121.302-78.4098C121.704-77.2974 121.222-76.3369 120.118-76.3369ZM74.0147-57.0671C72.679-57.0671 71.656-58.0946 71.656-59.4303L71.656-64.5282C71.656-65.8639 72.679-66.8064 74.0147-66.8064C75.3548-66.8064 76.3778-65.8639 76.3778-64.5282L76.3778-59.4303C76.3778-58.0946 75.3548-57.0671 74.0147-57.0671ZM91.4568-58.175C90.3534-58.175 89.8174-58.7959 89.8174-59.8903L89.8174-64.0636C89.8174-65.1626 90.3534-65.7879 91.4568-65.7879L105.49-65.7879C106.509-65.7879 107.13-65.1626 107.13-64.0636L107.13-59.8903C107.13-58.7959 106.509-58.175 105.49-58.175ZM123.25-57.0671C121.994-57.0671 120.971-58.0946 120.971-59.4303L120.971-64.5282C120.971-65.779 121.994-66.8064 123.25-66.8064C124.67-66.8064 125.613-65.8639 125.613-64.5282L125.613-59.4303C125.613-58.0946 124.67-57.0671 123.25-57.0671Z"/>
</svg>