<svg xmlns="http://www.w3.org/2000/svg" viewBox="16.084 -81.1922 104.56 91.97">
  <path d="M77.8061 10.7781C88.1623 10.7781 96.2712 2.66919 96.2712-7.68701C96.2712-18.0477 88.1623-26.1566 77.8061-26.1566C67.4454-26.1566 59.3364-18.0477 59.3364-7.68701C59.3364 2.66919 67.4454 10.7781 77.8061 10.7781ZM16.084-80.2271L16.084-2.42422L55.3253-2.42422C55.0081-4.09507 54.7669-5.85083 54.7669-7.68701C54.7669-20.6027 64.8903-30.7262 77.8061-30.7262C90.6324-30.7262 100.841-20.6027 100.841-7.68701C100.841-5.85083 100.599-4.09507 100.287-2.42422L104.737-2.42422C115.306-2.42422 120.641-7.98623 120.641-19.0204L120.641-36.4715C120.641-46.3268 116.388-51.3254 105.688-55.0961L95.3762-58.6526C78.7235-71.3998 65.8221-81.1922 42.6971-81.1922L35.5272-81.1922C27.9367-81.1922 21.5256-80.9509 16.084-80.2271ZM47.4293-45.6511L36.8229-58.9967C35.7644-60.301 36.3673-62.1322 37.9438-62.1322L60.3635-62.1322C62.0384-62.1322 62.6233-60.2026 61.5738-58.9967L50.9674-45.6511C50.0383-44.6416 48.3674-44.4717 47.4293-45.6511ZM37.6801-37.0744C36.8719-37.0744 36.2959-37.6504 36.2959-38.4587C36.2959-39.2669 36.8719-39.8474 37.6801-39.8474L79.1633-39.8474C79.9716-39.8474 80.5475-39.2669 80.5475-38.4587C80.5475-37.6504 79.9716-37.0744 79.1633-37.0744Z"/>
</svg>