<svg xmlns="http://www.w3.org/2000/svg" viewBox="16.084 -81.1922 129.16 91.97">
  <path d="M77.8061 10.7781C88.1623 10.7781 96.2712 2.66919 96.2712-7.68701C96.2712-18.0477 88.1623-26.1566 77.8061-26.1566C67.4454-26.1566 59.3364-18.0477 59.3364-7.68701C59.3364 2.66919 67.4454 10.7781 77.8061 10.7781ZM16.084-80.2271L16.084-2.42422L55.3253-2.42422C55.0081-4.09507 54.7669-5.85083 54.7669-7.68701C54.7669-20.6027 64.8903-30.7262 77.8061-30.7262C90.6324-30.7262 100.841-20.6027 100.841-7.68701C100.841-5.85083 100.599-4.09507 100.287-2.42422L104.737-2.42422C115.306-2.42422 120.641-7.98623 120.641-19.0204L120.641-36.4715C120.641-46.3268 116.388-51.3254 105.688-55.0961L95.3762-58.6526C78.7235-71.3998 65.8221-81.1922 42.6971-81.1922L35.5272-81.1922C27.9367-81.1922 21.5256-80.9509 16.084-80.2271ZM116.947-9.72717L113.475-5.18456L142.602-5.18456C143.92-5.18456 144.84-6.09569 144.84-7.40892C144.84-8.72664 143.92-9.72717 142.602-9.72717ZM130.853-15.928L139.583-15.928C140.23-15.928 140.789-16.004 141.177-16.4061C143.648-18.3137 145.243-21.1774 145.243-24.3537C145.243-29.8443 140.704-34.2894 135.303-34.2894C129.821-34.2894 125.287-29.8443 125.287-24.3537C125.287-21.1774 126.873-18.3137 129.258-16.4061C129.741-16.004 130.295-15.928 130.853-15.928ZM135.303 1.00688C137.041 1.00688 138.206-0.333301 138.206-2.0666L138.206-16.3301L132.153-16.3301L132.153-2.0666C132.153-0.333301 133.485 1.00688 135.303 1.00688Z"/>
</svg>