<svg xmlns="http://www.w3.org/2000/svg" viewBox="14.1319 -96.959 132.24 123.38">
  <path d="M121.73-43.8081C122.476-43.8081 123.047-44.3661 123.047-45.089L123.047-92.9937C123.047-93.9668 122.136-94.4444 121.315-94.4444C120.694-94.4444 120.19-94.2256 119.328-93.7435L106.062-85.1337C105.549-84.763 105.321-84.3968 105.321-83.8878C105.321-83.0706 105.995-82.4901 106.652-82.4901C106.933-82.4901 107.232-82.566 107.911-83.0081L120.101-90.8277L120.319-90.8277L120.319-45.089C120.319-44.3616 120.976-43.8081 121.73-43.8081ZM142.852 3.41633C146.368-11.7103 135.704-18.0226 108.534-18.0226C92.2084-18.0226 76.6119-16.6734 63.1503-14.1134L63.9406-12.948C66.5405-40.4112 56.9077-66.7543 41.0169-75.1845L41.4095-73.2117C44.0036-89.6695 35.2752-96.959 26.5552-96.959C19.8678-96.959 14.1319-92.1971 16.7049-81.8337L40.0846 13.9194C41.9877 21.7822 47.751 26.4196 55.3635 26.4196L120.966 26.4196C131.509 26.4196 138.591 21.1748 142.852 3.41633Z"/>
</svg>