<svg xmlns="http://www.w3.org/2000/svg" viewBox="11.2588 -96.0124 121.64 121.65">
  <path d="M72.0819 25.6338C105.487 25.6338 132.9-1.77997 132.9-35.1893C132.9-68.5986 105.487-96.0124 72.0819-96.0124C38.6726-96.0124 11.2588-68.5986 11.2588-35.1893C11.2588-1.77997 38.6726 25.6338 72.0819 25.6338ZM48.349 1.03518C46.0258 1.03518 43.9929-0.331962 43.0948-3.58021L39.3195-17.2961C38.1222-21.5359 42.5408-24.865 42.5408-33.7911C42.5408-35.1763 42.6257-37.5668 43.1352-40.0288C43.3854-41.369 43.0058-42.0614 42.0053-42.1863C35.9423-43.7587 31.8809-48.7268 31.8809-54.9681C31.8809-63.6265 38.283-69.5506 47.9959-69.5506C51.2931-69.5506 54.7467-68.8223 58.2627-67.4687C59.7812-66.7763 59.1113-64.1589 57.2711-64.9271C53.889-66.2094 50.8151-66.9466 47.9959-66.9466C40.0698-66.9466 34.4045-62.0095 34.4045-54.9681C34.4045-49.8837 37.5768-45.8447 42.4694-44.6519C43.9659-44.2722 44.5109-44.5939 45.2926-45.7867C47.0394-48.5435 50.408-50.992 56.5649-50.992C67.3721-50.992 73.3282-49.3032 83.648-49.3032C84.5816-49.3032 85.0326-49.6514 85.7339-50.6205L88.4821-54.7762C90.609-57.9306 92.9592-61.6748 95.3628-63.569C97.6864-67.2548 99.0801-68.9656 100.787-68.9656C102.753-68.9656 103.91-65.8917 104.87-62.608C108.918-59.6684 112.76-55.9111 112.76-52.4935C112.76-49.7637 108.569-45.8007 102.77-45.917C102.797-23.0504 89.9742-27.4465 89.9742-11.1797L89.9742-8.66014C92.6235-8.17313 94.1695-6.21609 94.1695-3.88841C94.1695-0.908379 91.9802 1.03518 88.7724 1.03518L86.53 1.03518C83.1524 1.03518 81.4681-0.917364 81.4681-4.73753C81.4681-8.48627 81.8657-10.38 81.8657-15.2011C81.8657-16.1967 80.8872-19.5164 80.3377-22.5189C75.9007-21.5449 71.3841-21.0848 67.1848-21.0848C62.5874-21.0848 57.0734-21.9025 54.1033-23.39C52.5174-20.8525 51.4449-19.0923 51.4449-15.6073L51.4449-8.56624C54.0629-8.17313 55.4925-6.23856 55.4925-3.88841C55.4925-0.917364 53.3031 1.03518 50.0953 1.03518ZM101.067-56.5284C100.933-55.4245 101.737-54.5395 102.836-54.4856C103.851-54.4362 104.825-55.1509 104.964-56.2503C105.023-57.2648 104.129-58.2437 103.115-58.2976C102.011-58.3516 101.126-57.5429 101.067-56.5284Z"/>
</svg>