<svg xmlns="http://www.w3.org/2000/svg" viewBox="11.2588 -96.0124 121.64 121.65">
  <path d="M72.0819 25.6338C105.487 25.6338 132.9-1.77997 132.9-35.1893C132.9-68.5986 105.487-96.0124 72.0819-96.0124C38.6726-96.0124 11.2588-68.5986 11.2588-35.1893C11.2588-1.77997 38.6726 25.6338 72.0819 25.6338ZM40.706-8.77067L40.706-63.2738C40.706-64.0865 41.3668-64.658 42.0947-64.658C42.9029-64.658 43.5638-64.0865 43.5638-63.2738L43.5638-48.4379L55.926-36.5093C56.7572-35.7675 57.5169-35.7675 58.2631-36.5093L72.1767-49.8909C73.2756-50.9853 74.4504-51.5392 75.6163-51.5392C76.9475-51.5392 78.1223-50.9898 79.1364-49.8909L94.453-34.4224L100.664-40.4543C101.503-41.2895 102.624-41.0083 102.839-39.9678L105.867-23.0311C106.091-21.8832 105.273-21.0659 104.215-21.2847L87.2736-24.4027C86.1437-24.617 85.8624-25.8273 86.6127-26.4972L92.4793-32.4532L76.8675-48.4851C76.1123-49.2358 75.2811-49.2313 74.4455-48.4851L60.5364-34.9381C59.4375-33.8437 58.428-33.3747 57.0968-33.3747C55.7656-33.3747 54.6712-33.8392 53.5723-34.9381L43.5638-44.589L43.5638-9.53399C43.5638-8.87715 43.7246-8.71631 44.386-8.71631L105.975-8.71631C106.703-8.71631 107.279-8.05543 107.279-7.24269C107.279-6.51936 106.618-5.94339 105.975-5.94339L43.4528-5.94339C41.8583-5.94339 40.706-7.09128 40.706-8.77067Z"/>
</svg>