<svg xmlns="http://www.w3.org/2000/svg" viewBox="16.084 -61.8793 95.2 54.13">
  <path d="M63.6409-7.74586C64.3063-7.74586 64.7169-8.21939 65.2439-8.73741L110.801-59.7955C111.073-60.1527 111.287-60.2327 111.287-60.6388C111.287-61.2768 110.68-61.8793 110.042-61.8793C109.717-61.8793 109.391-61.8393 109.119-61.5625L62.2387-9.08741L65.1325-9.08741L18.1677-61.5625C17.9804-61.8393 17.5608-61.8793 17.3244-61.8793C16.6016-61.8793 16.084-61.2768 16.084-60.6388C16.084-60.2327 16.3832-60.0678 16.6555-59.7106L62.1228-8.65249C62.5604-8.13448 62.98-7.74586 63.6409-7.74586Z"/>
</svg>