<svg xmlns="http://www.w3.org/2000/svg" viewBox="16.084 -91.2662 112.32 112.32">
  <path d="M16.084-12.5594C16.084-11.9079 16.7179-11.3544 17.3739-11.3544L25.5237-11.3544L25.5237 8.95138C25.5237 10.6353 26.5017 11.5329 28.1856 11.5329L48.2412 11.5329L48.2412 19.7676C48.2412 20.4191 48.8751 21.053 49.5311 21.053C50.2719 21.053 50.8209 20.4191 50.8209 19.7676L50.8209 11.5329L70.956 11.5329L70.956 19.7676C70.956 20.4191 71.5899 21.053 72.2459 21.053C72.8973 21.053 73.5312 20.4191 73.5312 19.7676L73.5312 11.5329L93.5814 11.5329L93.5814 19.7676C93.5814 20.4191 94.2153 21.053 94.8713 21.053C95.6121 21.053 96.1611 20.4191 96.1611 19.7676L96.1611 11.5329L116.302 11.5329C117.985 11.5329 118.879 10.6353 118.879 8.95138L118.879-11.3499L127.113-11.3499C127.769-11.3499 128.403-11.9034 128.403-12.5549C128.403-13.2958 127.769-13.8448 127.113-13.8448L118.879-13.8448L118.879-33.9798L127.113-33.9798C127.769-33.9798 128.403-34.6138 128.403-35.2697C128.403-35.9256 127.769-36.5596 127.113-36.5596L118.879-36.5596L118.879-56.6946L127.113-56.6946C127.769-56.6946 128.403-57.2437 128.403-57.9845C128.403-58.636 127.769-59.1895 127.113-59.1895L118.879-59.1895L118.879-79.1601C118.879-80.844 117.985-81.7416 116.302-81.7416L96.1611-81.7416L96.1611-89.9764C96.1611-90.6278 95.6121-91.2662 94.8713-91.2662C94.2153-91.2662 93.5814-90.6278 93.5814-89.9764L93.5814-81.7416L73.5312-81.7416L73.5312-89.9764C73.5312-90.6278 72.8973-91.2662 72.2459-91.2662C71.5899-91.2662 70.956-90.6278 70.956-89.9764L70.956-81.7416L50.8209-81.7416L50.8209-89.9764C50.8209-90.6278 50.2719-91.2662 49.5311-91.2662C48.8751-91.2662 48.2412-90.6278 48.2412-89.9764L48.2412-81.7416L28.1856-81.7416C26.5017-81.7416 25.5237-80.844 25.5237-79.1601L25.5237-59.1895L17.3739-59.1895C16.7179-59.1895 16.084-58.6405 16.084-57.989C16.084-57.2481 16.7179-56.6991 17.3739-56.6991L25.5237-56.6991L25.5237-36.5641L17.3739-36.5641C16.7179-36.5641 16.084-35.9301 16.084-35.2742C16.084-34.6183 16.7179-33.9843 17.3739-33.9843L25.5237-33.9843L25.5237-13.8493L17.3739-13.8493C16.7179-13.8493 16.084-13.3002 16.084-12.5594ZM43.5701-3.84708C41.9936-3.84708 40.9841-4.85211 40.9841-6.51352L40.9841-63.6997C40.9841-65.3566 41.9936-66.3617 43.5701-66.3617L100.832-66.3617C102.494-66.3617 103.418-65.3566 103.418-63.6997L103.418-6.51352C103.418-4.85211 102.494-3.84708 100.832-3.84708ZM43.6716-7.7095C43.6716-7.00369 44.1452-6.61507 44.851-6.61507L99.5513-6.61507C100.257-6.61507 100.731-7.00369 100.731-7.7095L100.731-62.4992C100.731-63.1201 100.257-63.5937 99.5513-63.5937L44.851-63.5937C44.1452-63.5937 43.6716-63.1201 43.6716-62.4992Z"/>
</svg>