<svg xmlns="http://www.w3.org/2000/svg" viewBox="16.084 -104.348 79.33 138.25">
  <path d="M26.0646-88.8056C26.0646-84.2985 28.8788-81.3189 33.1402-81.3189L78.2791-81.3189C82.6254-81.3189 85.4352-84.2985 85.4352-88.8056L85.4352-96.8615C85.4352-101.284 82.6254-104.348 78.2791-104.348L33.1402-104.348C28.8788-104.348 26.0646-101.284 26.0646-96.8615ZM28.7297-88.7966L28.7297-96.8705C28.7297-99.7705 30.4679-101.679 33.1088-101.679L78.391-101.679C81.0318-101.679 82.7746-99.7705 82.7746-96.8705L82.7746-88.7966C82.7746-85.892 81.0318-83.9885 78.391-83.9885L33.1088-83.9885C30.4679-83.9885 28.7297-85.892 28.7297-88.7966ZM39.0953-70.6769L39.0953-83.0607L36.4302-83.0607L36.4302-70.6769ZM75.0695-70.6769L75.0695-83.0607L72.4089-83.0607L72.4089-70.6769ZM16.084 16.7521C16.084 27.5814 22.2354 33.9027 32.9129 33.9027L78.5914 33.9027C89.1794 33.9027 95.4158 27.5814 95.4158 16.7521L95.4158-54.7412C95.4158-65.4856 89.1794-71.8918 78.5914-71.8918L32.9129-71.8918C22.2354-71.8918 16.084-65.4856 16.084-54.7412ZM18.6952 16.7611L18.6952-54.7502C18.6952-63.91 23.896-69.2806 32.8769-69.2806L78.6228-69.2806C87.6083-69.2806 92.8046-63.91 92.8046-54.7502L92.8046 16.7611C92.8046 25.9164 87.6083 31.287 78.6228 31.287L32.8769 31.287C23.896 31.287 18.6952 25.9164 18.6952 16.7611ZM33.1276-15.0497C33.1276-12.4763 34.8119-10.707 37.3854-10.707L47.5048-10.707L47.5048-0.66352C47.5048 1.90543 49.1936 3.67466 51.7626 3.67466L59.7417 3.67466C62.3106 3.67466 64.0844 1.90543 64.0844-0.66352L64.0844-10.707L74.1189-10.707C76.6923-10.707 78.4571-12.4763 78.4571-15.0497L78.4571-22.9394C78.4571-25.5932 76.6923-27.2821 74.1189-27.2821L64.0844-27.2821L64.0844-37.406C64.0844-39.9794 62.3106-41.6638 59.7417-41.6638L51.7626-41.6638C49.1936-41.6638 47.5048-39.9794 47.5048-37.406L47.5048-27.2821L37.3854-27.2821C34.8119-27.2821 33.1276-25.5932 33.1276-22.9394Z"/>
</svg>