<svg xmlns="http://www.w3.org/2000/svg" viewBox="16.084 -95.435 98.02 120.33">
  <path d="M65.0534 24.8956C94.4503 24.8956 114.108 14.0529 114.108 3.29232L114.108-75.5201L111.528-75.5201L111.528 3.29232C111.528 12.4593 92.9731 22.271 65.0534 22.271C37.2187 22.271 18.6637 12.4593 18.6637 3.29232L18.6637-75.5201L16.084-75.5201L16.084 3.29232C16.084 14.0529 35.6566 24.8956 65.0534 24.8956ZM65.0534-55.6096C94.4503-55.6096 114.108-64.6607 114.108-75.5201C114.108-86.4689 94.4503-95.435 65.0534-95.435C35.6566-95.435 16.084-86.4689 16.084-75.5201C16.084-64.6607 35.6566-55.6096 65.0534-55.6096ZM65.0534-58.2298C37.2187-58.2298 18.6637-66.1649 18.6637-75.5201C18.6637-84.8529 37.2187-92.7699 65.0534-92.7699C92.9731-92.7699 111.528-84.8529 111.528-75.5201C111.528-66.1649 92.9731-58.2298 65.0534-58.2298Z"/>
</svg>