<svg xmlns="http://www.w3.org/2000/svg" viewBox="16.084 -104.225 77.28 137.91">
  <path d="M55.0023 17.7171C74.7717 17.7171 93.3621 7.36544 93.3621-10.402C93.3621-27.6693 77.6263-33.8257 62.4099-37.3997L50.2665-40.2099C35.9284-43.5386 21.6388-49.2978 21.6388-63.4171C21.6388-79.1583 38.8725-87.6657 54.7475-87.6657C69.751-87.6657 86.7982-79.7482 88.2764-65.2268C88.2984-64.3965 88.5926-63.6732 89.6642-63.6732C90.5569-63.6732 90.994-64.1193 90.994-64.8422C90.994-69.6494 88.3047-75.2025 84.3911-79.2904C76.8361-86.8409 65.5683-90.2855 54.7475-90.2855C37.2793-90.2855 18.9346-80.1795 18.9346-63.4755C18.9346-47.7451 33.9776-41.321 49.3688-37.711L61.4273-34.8963C76.4043-31.3084 90.6535-25.8574 90.6535-10.4649C90.6535 6.19642 73.1426 15.1778 55.0782 15.1778C37.3935 15.1778 20.4676 6.28134 18.7212-10.6396C18.6992-11.376 18.3066-11.943 17.4898-11.943C16.6105-11.943 16.084-11.336 16.084-10.5147C16.084-5.50219 19.3408 1.24859 22.9997 5.43492C30.5856 13.7361 42.8229 17.7171 55.0023 17.7171ZM54.7655 33.6852C55.386 33.6852 56.0334 33.1227 56.0334 32.4129L56.0334-102.952C56.0334-103.662 55.386-104.225 54.7655-104.225C54.0602-104.225 53.4128-103.662 53.4128-102.952L53.4128 32.4129C53.4128 33.1227 54.0602 33.6852 54.7655 33.6852Z"/>
</svg>