<svg xmlns="http://www.w3.org/2000/svg" viewBox="16.084 -94.5172 124.27 118.54">
  <path d="M22.4134-19.064L134.018-19.064C137.234-19.064 139.601-20.9267 139.592-23.7629C139.588-25.3219 138.9-26.6976 137.484-28.3594L83.0774-92.2393C81.9475-93.6999 79.9954-94.5172 78.1731-94.5172C76.4403-94.5172 74.4792-93.691 73.3582-92.2393L18.8578-28.3594C17.4462-26.6127 16.8388-25.3219 16.8388-23.7629C16.8388-20.9267 19.1125-19.064 22.4134-19.064ZM22.4781-21.5188C20.4137-21.5188 19.4217-22.5063 19.4217-23.6502C19.4217-24.6511 19.7523-25.3974 20.7623-26.5727L75.1392-90.4858C75.9523-91.3794 77.0293-91.8619 78.1731-91.8619C79.4019-91.8619 80.5637-91.3794 81.292-90.4858L135.673-26.5727C136.594-25.4019 137.009-24.6511 137.009-23.6502C137.009-22.5063 135.937-21.5188 133.953-21.5188ZM24.0123 24.0222L132.428 24.0222C137.247 24.0222 140.356 20.5467 140.356 15.7093L140.356 7.44809C140.356 2.52585 137.247-0.86482 132.428-0.86482L24.0123-0.86482C19.1036-0.86482 16.084 2.53034 16.084 7.44809L16.084 15.7093C16.084 20.5422 19.1036 24.0222 24.0123 24.0222ZM23.9584 21.3841C20.6253 21.3841 18.6637 19.0874 18.6637 15.7543L18.6637 7.40317C18.6637 4.07001 20.6253 1.77333 23.9584 1.77333L132.482 1.77333C135.81 1.77333 137.776 4.07001 137.776 7.40317L137.776 15.7543C137.776 19.0874 135.81 21.3841 132.482 21.3841Z"/>
</svg>