<svg xmlns="http://www.w3.org/2000/svg" viewBox="11.2588 -93.5369 117.81 116.45">
  <path d="M11.2588-34.1703C11.2588-16.9416 17.9296-5.44156 25.6059 3.39565C28.3981 6.66996 29.7338 9.18005 29.7338 13.4827L29.7338 21.6182C29.7338 22.2117 30.2738 22.917 31.0372 22.917C31.6351 22.917 32.2556 22.2117 32.2556 21.6182L32.2556 17.3869L45.7145 17.3869L45.7145 21.6182C45.7145 22.2117 46.4198 22.917 47.0133 22.917C47.6962 22.917 48.3167 22.2117 48.3167 21.6182L48.3167 17.3869L61.0562 17.3869L61.0562 21.6182C61.0562 22.2117 61.6722 22.917 62.3551 22.917C63.0335 22.917 63.569 22.2117 63.569 21.6182L63.569 17.3869L76.416 17.3869L76.416 21.6182C76.416 22.2117 77.1169 22.917 77.7149 22.917C78.3978 22.917 79.0137 22.2117 79.0137 21.6182L79.0137 17.3869L91.7533 17.3869L91.7533 21.6182C91.7533 22.2117 92.2888 22.917 93.0566 22.917C93.6501 22.917 94.3555 22.2117 94.3555 21.6182L94.3555 17.3869L107.729 17.3869L107.729 21.6182C107.729 22.2117 108.435 22.917 109.033 22.917C109.796 22.917 110.332 22.2117 110.332 21.6182L110.332 13.5677C110.332 9.32741 111.828 6.66546 114.853 3.1144C122.382-5.73628 129.066-17.0845 129.066-34.1703C129.066-48.109 124.161-62.3973 115.632-74.3758C113.206-77.8469 112.531-78.3649 112.531-81.3404L112.531-92.238C112.531-92.8315 112-93.5369 111.322-93.5369C110.639-93.5369 110.018-92.8315 110.018-92.238L110.018-81.3854C110.018-77.2314 111.918-75.158 113.53-72.9431C121.634-61.5405 126.486-47.627 126.486-34.1703C126.486-14.48 117.211-2.01495 104.786 6.58144L35.3686 6.58144C23.1093-2.01495 13.8385-14.48 13.8385-34.1703C13.8385-47.627 18.6008-61.5405 26.7951-72.9431C28.4071-75.158 30.3062-77.2314 30.3062-81.3854L30.3062-92.238C30.3062-92.8315 29.6857-93.5369 29.0029-93.5369C28.3244-93.5369 27.704-92.8315 27.704-92.238L27.704-81.3404C27.704-78.3649 27.1186-77.8469 24.693-74.3758C16.164-62.3973 11.2588-48.109 11.2588-34.1703ZM70.1154-28.673C71.1155-28.673 71.7719-29.5887 71.7629-30.8255L72.1335-61.1151C72.1246-62.4233 71.4417-63.2046 70.1199-63.2046C68.8875-63.2046 68.1956-62.4188 68.1867-61.1106L68.4724-30.8255C68.4679-29.5842 69.2092-28.673 70.1154-28.673ZM70.1199-12.948C72.2773-12.948 73.8673-14.8107 73.8673-16.7983C73.8673-18.7814 72.2728-20.5637 70.1199-20.5637C68.0519-20.5637 66.3725-18.7859 66.3725-16.7983C66.3725-14.8062 68.0474-12.948 70.1199-12.948Z"/>
</svg>