<svg xmlns="http://www.w3.org/2000/svg" viewBox="16.0256 -105.8 126.19 140.87">
  <path d="M79.1184 35.0681C93.9282 35.0681 96.4033 22.2813 109.035 22.2813C121.907 22.2813 123.685 35.0681 140.559 35.0681L140.881 35.0681C141.662 35.0681 142.216 34.4297 142.216 33.6529C142.216 32.961 141.662 32.3181 140.881 32.3181L140.559 32.3181C132.776 32.3181 128.228 28.9045 123.483 25.6118C119.381 22.6362 115.088 19.5313 109.035 19.5313C102.829 19.5313 98.5405 22.7926 94.4391 25.8485C90.0964 29.1458 85.7802 32.3181 79.1184 32.3181C72.4611 32.3181 68.1449 29.1458 63.8022 25.8485C59.7008 22.7926 55.412 19.5313 49.2022 19.5313C43.1532 19.5313 38.9448 22.6362 34.8434 25.6118C30.0986 28.9045 25.4653 32.3181 17.6776 32.3181L17.3559 32.3181C16.664 32.3181 16.0256 32.961 16.0256 33.6529C16.0256 34.4297 16.664 35.0681 17.3559 35.0681L17.6776 35.0681C34.5559 35.0681 36.3296 22.2813 49.2022 22.2813C61.8335 22.2813 64.313 35.0681 79.1184 35.0681ZM21.0884-16.0102L40.7365 23.3012L42.9685 21.8415L23.6421-16.8625C19.7905-24.5213 21.4393-28.1496 27.8963-31.2195L68.8462-50.1442C72.2463-51.6812 75.1953-52.9055 79.1184-52.9055C83.0459-52.9055 85.995-51.6812 89.3951-50.1442L130.34-31.2195C136.802-28.1496 138.451-24.5213 134.599-16.8625L115.273 21.8415L117.478 23.3416L137.153-16.0102C141.598-24.9009 139.176-30.0159 131.39-33.5944L90.4441-52.5191C87.0171-54.1545 83.577-55.5706 79.1184-55.5706C74.6643-55.5706 71.2242-54.1545 67.7971-52.5191L26.8517-33.5944C19.0649-30.0159 16.6433-24.9009 21.0884-16.0102ZM33.4596-36.0119L36.4195-36.4841L42.4909-80.1687C43.4115-86.0093 46.6602-89.2625 52.5142-89.2625L105.892-89.2625C111.737-89.2625 114.986-85.9913 115.907-80.1193L121.983-36.5066L124.947-36.0119L118.567-80.5973C117.517-88.0854 113.126-91.9231 105.892-91.9231L52.5142-91.9231C45.2674-91.9231 40.8713-88.1213 39.8348-80.6827ZM52.459-62.9059L73.1138-62.9059C74.1903-62.9059 74.8781-63.6921 74.8781-64.7106L74.8781-76.2201C74.8781-77.319 74.1903-78.1052 73.1138-78.1052L52.459-78.1052C51.36-78.1052 50.6497-77.319 50.6497-76.2201L50.6497-64.7106C50.6497-63.6921 51.36-62.9059 52.459-62.9059ZM85.3377-62.9059L106.077-62.9059C107.069-62.9059 107.757-63.6921 107.757-64.7106L107.757-76.2201C107.757-77.319 107.069-78.1052 106.077-78.1052L85.3377-78.1052C84.2388-78.1052 83.5329-77.319 83.5329-76.2201L83.5329-64.7106C83.5329-63.6921 84.2388-62.9059 85.3377-62.9059ZM55.731-91.1031L58.3961-91.1031L58.3961-98.1253C58.3961-101.213 60.3176-103.135 63.3206-103.135L95.0905-103.135C98.0934-103.135 100.015-101.213 100.015-98.1253L100.015-91.1031L102.676-91.1031L102.676-97.9999C102.676-102.901 99.8613-105.8 95.0456-105.8L63.361-105.8C58.5453-105.8 55.731-102.901 55.731-97.9999Z"/>
</svg>