<svg xmlns="http://www.w3.org/2000/svg" viewBox="16.084 -93.8851 112.39 117.23">
  <path d="M31.8503-62.5446C40.4818-62.5446 47.3485-68.7231 47.3485-78.1367C47.3485-86.853 40.4818-93.8851 31.8503-93.8851C23.2144-93.8851 16.084-86.853 16.084-78.1367C16.084-69.7375 23.2144-62.5446 31.8503-62.5446ZM125.443 20.0574C128.159 17.3411 128.476 12.6992 124.88 8.93745L98.8783-18.0248C93.4412-23.6227 87.7674-24.4224 80.7978-21.858L67.0464-16.8185L50.7261-46.5775C45.767-55.7004 37.2025-59.1405 29.134-54.579C20.565-50.1025 18.8762-40.8991 23.8443-31.937L34.9413-11.8023C41.2366-0.342287 52.3071 5.45289 64.6064 0.735067L85.8418-7.30693C87.0391-7.78495 87.6824-7.54369 88.5671-6.66357L113.604 19.0924C117.196 22.9346 122.4 23.3456 125.443 20.0574ZM77.5091-37.6419C78.2994-37.6419 78.6206-37.9096 78.8974-38.8293L85.5417-56.2103L110.634-56.2103L117.188-38.8293C117.555-37.9945 117.876-37.6419 118.751-37.6419C119.51-37.6419 120.068-38.1194 120.068-38.8068C120.068-39.1685 119.996-39.195 119.858-39.6191L99.8461-92.2915C99.4979-93.1887 98.9758-93.5903 98.0921-93.5903C97.2039-93.5903 96.6773-93.1887 96.3291-92.2915L76.2323-39.6191C76.0894-39.195 76.0179-39.1685 76.0179-38.8918C76.0179-38.039 76.5804-37.6419 77.5091-37.6419ZM86.6581-59.0457L97.9402-88.8208L98.1501-88.8208L109.517-59.0457Z"/>
</svg>