<svg xmlns="http://www.w3.org/2000/svg" viewBox="11.2588 -96.0928 121.64 121.65">
  <path d="M72.0819 25.5534C105.487 25.5534 132.9-1.86039 132.9-35.2697C132.9-68.679 105.487-96.0928 72.0819-96.0928C38.6726-96.0928 11.2588-68.679 11.2588-35.2697C11.2588-1.86039 38.6726 25.5534 72.0819 25.5534ZM69.9101-53.7259C65.8266-53.7259 62.5429-57.099 62.5429-61.1869C62.5429-65.3598 65.8266-68.6435 69.9101-68.6435C74.0874-68.6435 77.3712-65.3598 77.3712-61.1869C77.3712-57.099 74.0874-53.7259 69.9101-53.7259ZM38.0912-48.025L48.5193-66.2898C46.826-67.4781 45.7805-69.4886 45.7805-71.8208C45.7805-75.7299 48.6307-78.6695 52.5398-78.6695C56.373-78.6695 59.2232-75.7299 59.2232-71.8208C59.2232-67.9876 56.373-65.1374 52.5398-65.1374C51.892-65.1374 51.2441-65.2178 50.5918-65.3831L41.6737-49.8212C42.4155-49.7588 43.1572-49.3522 43.8185-48.7802L52.9374-39.6613L105.206-65.8383C107.052-66.7184 109.133-65.9991 110.103-64.2344C110.983-62.4696 110.255-60.2223 108.414-59.3422L83.1034-46.6399C82.1339-46.1574 81.8122-45.523 82.1339-44.2363L91.7618-5.72459C92.2444-3.79451 91.5251-2.11019 89.9212-1.06473L74.0295 9.52824C72.3496 10.6496 70.1024 10.1626 69.0614 8.47829C67.9355 6.79396 68.418 4.55119 70.0219 3.51022L83.9791-5.80052L80.1324-16.0673C79.8911-16.6258 79.2433-16.7107 78.9216-16.1477L71.6259-2.66863C70.9066-1.38641 69.6198-0.743047 68.2572-0.743047L52.1332-0.743047C50.1272-0.743047 48.5188-2.43636 48.5188-4.35745C48.5188-6.43938 50.1272-8.04778 52.1332-8.04778L66.0144-8.04778L71.8626-22.8136L68.1768-37.6553C68.0159-38.3791 67.2117-38.7767 66.4165-38.3836L54.1437-32.2048C52.2941-31.2352 50.5293-31.8027 49.5643-32.7632L38.7346-43.5929C37.7026-44.6249 37.2021-46.4076 38.0912-48.025ZM48.0808-71.8208C48.0808-69.3053 49.9439-67.3528 52.5398-67.3528C55.0553-67.3528 57.0078-69.3053 57.0078-71.8208C57.0078-74.4167 55.0553-76.3692 52.5398-76.3692C49.9439-76.3692 48.0808-74.4167 48.0808-71.8208Z"/>
</svg>