<svg xmlns="http://www.w3.org/2000/svg" viewBox="11.2588 -96.0928 121.64 121.65">
  <path d="M72.0819 25.5534C105.487 25.5534 132.9-1.86039 132.9-35.2697C132.9-68.679 105.487-96.0928 72.0819-96.0928C38.6726-96.0928 11.2588-68.679 11.2588-35.2697C11.2588-1.86039 38.6726 25.5534 72.0819 25.5534ZM72.0864-57.1574C67.8286-57.1574 64.451-60.6155 64.451-64.7928C64.451-68.8807 67.8286-72.3388 72.0864-72.3388C76.1788-72.3388 79.6368-68.8807 79.6368-64.7928C79.6368-60.6155 76.1788-57.1574 72.0864-57.1574ZM48.8185-22.6797L48.8185-47.6903C48.8185-69.2244 57.1687-81.0277 72.0864-81.0277C86.9995-81.0277 95.3497-69.2244 95.3497-47.6903L95.3497-22.6797C95.3497-21.3975 94.5545-20.0348 93.1874-19.5478C91.4181-18.9894 89.5775-19.9544 88.9386-21.7192C87.8931-24.7706 85.4046-31.6688 81.2363-39.532C80.995-39.9386 80.517-39.8581 80.517-39.456L80.517 8.97878C80.517 10.739 78.9086 12.267 77.1393 12.267C75.3791 12.267 73.7707 10.739 73.7707 8.97878L73.7707-9.20062L72.0864-22.6797L70.402-9.20062L70.402 8.97878C70.402 10.739 68.7936 12.267 67.0289 12.267C65.2597 12.267 63.6513 10.739 63.6513 8.97878L63.6513-39.456C63.6513-39.8581 63.1732-39.9386 62.932-39.532C58.7636-31.6688 56.2751-24.7706 55.2296-21.7192C54.5908-19.9544 52.7501-18.9894 50.9808-19.5478C49.6137-20.0348 48.8185-21.3975 48.8185-22.6797ZM51.0918-29.5895C53.424-35.5721 57.4899-44.7453 62.1323-49.9596C63.6557-51.7288 65.903-52.7698 68.3111-52.7698L75.8616-52.7698C78.2652-52.7698 80.5125-51.7288 82.036-49.9596C86.6783-44.7453 90.7487-35.5721 93.0809-29.5895L93.0809-47.6903C93.0809-67.6075 85.4765-78.8348 72.0864-78.8348C58.6917-78.8348 51.0918-67.6075 51.0918-47.6903Z"/>
</svg>