<svg xmlns="http://www.w3.org/2000/svg" viewBox="-2.76123 -93.8851 168.07 117.23">
  <path d="M-2.01544-80.4037L14.0012-59.4725C14.7204-58.5924 15.672-58.436 16.6281-58.9096C20.1306-60.7368 25.8314-62.1843 30.4154-62.1843C35.0797-62.1843 40.7761-60.7368 44.2831-58.9096C45.2346-58.436 46.2711-58.5924 46.91-59.4725L62.9176-80.4037C63.6634-81.4577 63.5115-82.5966 62.5335-83.3424C55.2777-88.4758 42.2632-92.2376 30.4154-92.2376C18.639-92.2376 5.62895-88.4758-1.71622-83.3424C-2.60489-82.5966-2.76123-81.3728-2.01544-80.4037ZM15.9317-45.9125C14.2608-47.972 13.631-50.0405 13.631-52.6988C13.631-57.3627 18.112-60.008 18.112-62.9521C18.112-65.8872 13.631-68.3672 13.631-73.2769C13.631-75.8548 14.2608-77.9278 16.0166-80.0721C17.3253-81.6981 19.8089-80.0856 18.4912-78.2989C17.1286-76.4582 16.5521-75.2429 16.5521-73.2769C16.5521-69.1889 21.1226-67.6385 21.1226-62.9521C21.1226-58.0869 16.5521-56.541 16.5521-52.6988C16.5521-50.4915 17.1286-49.4416 18.4063-47.7752C19.5542-45.984 17.16-44.4609 15.9317-45.9125ZM29.1826-45.9125C27.5072-47.8871 26.8773-50.0405 26.8773-52.6988C26.8773-57.3627 31.3629-60.008 31.3629-62.9521C31.3629-65.8872 26.8773-68.3672 26.8773-73.2769C26.8773-75.8548 27.5072-77.9278 29.2675-80.0721C30.6656-81.6981 33.0553-80.0856 31.8225-78.2989C30.4598-76.4582 29.8834-75.2429 29.8834-73.2769C29.8834-69.1889 34.4539-67.6385 34.4539-62.9521C34.4539-58.0869 29.8834-56.541 29.8834-52.6988C29.8834-50.4915 30.4598-49.4416 31.7376-47.7752C32.8006-45.984 30.4109-44.376 29.1826-45.9125ZM42.5049-45.9125C40.8385-47.8871 40.2086-50.0405 40.2086-52.6988C40.2086-57.3627 44.6897-60.008 44.6897-62.9521C44.6897-65.8872 40.2086-68.3672 40.2086-73.2769C40.2086-75.8548 40.8385-77.9278 42.5898-80.0721C43.9075-81.6981 46.3866-80.0856 45.0689-78.2989C43.7017-76.4582 43.2147-75.2429 43.2147-73.2769C43.2147-69.1889 47.7048-67.6385 47.7048-62.9521C47.7048-58.0869 43.2147-56.541 43.2147-52.6988C43.2147-50.4915 43.7017-49.4416 44.984-47.7752C46.1318-45.984 43.7377-44.376 42.5049-45.9125ZM82.7697-72.572L107.019-72.572C107.729-72.572 108.381-73.2284 108.466-73.9247C108.466-74.724 107.814-75.3759 107.019-75.3759L82.7697-75.3759C81.9704-75.3759 81.4079-74.724 81.4079-73.9247C81.4883-73.2284 82.0553-72.572 82.7697-72.572ZM100.239-86.2914L100.154-61.6609C100.154-59.946 102.289-59.2002 103.638-60.3167L118.292-71.9012C119.784-73.0671 119.619-74.9702 118.292-75.9707L103.722-87.6357C102.28-88.837 100.239-87.9928 100.239-86.2914ZM72.3362-62.2814L72.3362-36.1593C72.3362-35.4584 72.9076-34.802 73.7873-34.802C74.4123-34.8824 75.1446-35.5388 75.1446-36.1593L75.1446-62.2814C75.1446-62.9018 74.4123-63.5582 73.7873-63.6386C72.9076-63.6386 72.3362-62.9822 72.3362-62.2814ZM86.0556-44.7184L61.4251-44.7184C59.7327-44.7184 58.884-42.6818 60.0899-41.2347L71.7458-26.6697C72.7374-25.4234 74.6495-25.2626 75.8153-26.6742L87.4043-41.3151C88.5208-42.6638 87.766-44.7184 86.0556-44.7184ZM149.629-62.5446C158.265-62.5446 165.31-69.7375 165.31-78.1367C165.31-86.853 158.265-93.8851 149.629-93.8851C140.912-93.8851 134.046-86.853 134.046-78.1367C134.046-68.7231 140.912-62.5446 149.629-62.5446ZM55.9512 20.0574C58.9936 23.3456 64.1985 22.9346 67.8753 19.0924L92.8271-6.66357C93.7117-7.54369 94.3551-7.78495 95.5524-7.30693L116.788 0.735067C129.172 5.45289 140.158-0.342287 146.453-11.8023L157.635-31.937C162.603-40.8991 160.914-50.1025 152.345-54.579C144.192-59.1405 135.627-55.7004 130.668-46.5775L114.433-16.8185L100.596-21.858C93.6268-24.4224 87.9529-23.6227 82.6007-18.0248L56.5141 8.93745C52.9177 12.6992 53.2349 17.3411 55.9512 20.0574Z"/>
</svg>