<svg xmlns="http://www.w3.org/2000/svg" viewBox="11.2588 -96.0928 121.64 121.65">
  <path d="M72.0819 25.5534C105.487 25.5534 132.9-1.86039 132.9-35.2697C132.9-68.679 105.487-96.0928 72.0819-96.0928C38.6726-96.0928 11.2588-68.679 11.2588-35.2697C11.2588-1.86039 38.6726 25.5534 72.0819 25.5534ZM36.6832-69.1269C35.9864-69.1269 35.6157-69.7523 35.6157-70.2748C35.6157-70.8867 36.0713-71.4227 36.6832-71.4227L43.8374-71.4227C43.3639-70.5651 43.2969-70.0695 43.1226-69.1269ZM55.904-69.1269L55.0198-70.4532C54.859-70.69 54.8635-70.6765 54.3675-71.4227L94.1219-71.4227C93.8761-71.0966 93.7957-70.9402 93.465-70.4532L92.6748-69.1269ZM105.367-69.1269C105.183-70.0605 105.121-70.5561 104.647-71.4227L108.767-71.4227C109.384-71.4227 109.92-70.8867 109.92-70.2748C109.92-69.7523 109.469-69.1269 108.767-69.1269ZM74.4814-49.482C70.3086-49.482 66.855-52.8507 66.855-57.1084C66.855-61.1964 70.3086-64.6499 74.4814-64.6499C78.5694-64.6499 82.0229-61.1964 82.0229-57.1084C82.0229-52.8507 78.5694-49.482 74.4814-49.482ZM56.0653-17.9125L45.231-30.8286L33.5073-19.1853C32.225-17.8986 30.0537-17.7422 28.4498-19.1853C27.0916-20.6328 27.0916-22.7997 28.4498-24.2382L42.6621-38.531C44.1811-40.1349 46.5133-39.974 47.9518-38.7722L58.3885-29.7028L63.1647-36.9095C63.9195-38.1244 63.9689-39.7198 63.1647-40.9261L46.0442-66.5665C44.9228-68.2509 45.4099-70.4981 47.0942-71.5346C48.7785-72.6605 50.9409-72.2629 52.0622-70.5785L66.0553-49.5934C68.1462-46.4571 71.3495-45.014 74.4814-45.014C77.4525-45.014 80.2627-46.3007 81.8621-48.7847L96.4226-70.5785C97.544-72.2629 99.7868-72.6605 101.391-71.5346C102.99-70.4981 103.558-68.2509 102.436-66.5665L70.4245-18.6318C67.0603-13.5788 60.2381-12.8595 56.0653-17.9125ZM64.6572 8.95227C63.6117 10.5562 61.4449 11.0342 59.765 9.90832L43.4663-0.818974C41.782-1.94036 41.3799-4.26805 42.4163-5.87644L51.5932-19.5613L54.256-16.4159C55.6187-14.812 57.2271-13.6102 58.6612-13.0563L50.9274-4.50931L63.6117 4.05564C65.2915 5.18152 65.7786 7.26794 64.6572 8.95227Z"/>
</svg>