<svg xmlns="http://www.w3.org/2000/svg" viewBox="11.2588 -96.0928 121.64 121.65">
  <path d="M72.0819 25.5534C105.657 25.5534 132.9-1.69505 132.9-35.2697C132.9-68.8443 105.657-96.0928 72.0819-96.0928C38.5027-96.0928 11.2588-68.8443 11.2588-35.2697C11.2588-1.69505 38.5027 25.5534 72.0819 25.5534ZM72.0819 23.0096C39.8281 23.0096 13.7132-3.01593 13.7132-35.2697C13.7132-67.5235 39.8281-93.549 72.0819-93.549C104.336-93.549 130.361-67.5235 130.361-35.2697C130.361-3.01593 104.336 23.0096 72.0819 23.0096ZM32.7067-25.5879C36.8036-25.5879 40.2661-29.0459 40.2661-33.2278C40.2661-37.3247 36.8036-40.7827 32.7067-40.7827C28.5293-40.7827 25.0668-37.3247 25.0668-33.2278C25.0668-29.0459 28.5293-25.5879 32.7067-25.5879ZM41.5933-22.4915C40.2261-19.0334 41.4235-15.41 44.3186-13.404C49.1528-10.1872 53.406-8.98093 60.4026-8.98093L71.4156-8.98093C79.9401-8.98093 82.2723-15.6558 79.3772-21.2852L70.4551-38.4905L70.4551-64.632C70.4551-66.638 68.8467-68.1659 66.7557-68.1659C64.7407-68.1659 63.2173-66.638 63.2173-64.632L63.2173-37.6059C63.2173-37.1234 63.2977-36.7213 63.3781-36.3996L68.4446-22.009L61.8501-22.009C57.6683-22.009 55.2557-23.1303 51.9585-25.1408C51.0738-25.7083 50.922-26.5125 51.3241-27.4775L59.2767-48.2214C60.0005-49.9861 59.0309-52.1619 57.2662-52.8857C55.2557-53.6095 53.2452-52.64 52.5214-50.7948ZM82.6739-14.1008L96.9891-18.7922L117.918-22.5364C119.843-22.8581 121.13-24.7077 120.813-26.7137C120.406-28.7242 118.561-29.926 116.635-29.6089L93.0212-25.3641L81.0745-23.1973L81.4856-22.2902C82.8483-19.48 83.2414-17.1838 82.6739-14.1008Z" />
</svg>