<svg xmlns="http://www.w3.org/2000/svg" viewBox="-5.95063 -96.4953 108.15 124.34">
  <path d="M26.7848-43.9025C32.6599-43.9025 37.3333-48.5713 37.3333-54.3661C37.3333-60.3261 32.6599-64.9905 26.7848-64.9905C21.075-64.9905 16.2408-60.3261 16.2408-54.3661C16.2408-48.5713 21.075-43.9025 26.7848-43.9025ZM26.7893-8.28589C28.2413-8.28589 29.6264-7.39678 30.1134-5.52915L37.4451 21.9924C38.9686 27.8496 46.5636 25.8481 45.7639 20.9964C45.3618 18.1458 39.1605-5.2789 38.2758-10.4258C37.7174-13.8614 37.8692-22.4793 37.8692-29.5707C37.8692-30.6026 38.7404-31.1521 39.6875-30.8439L53.0376-25.3394C55.8209-24.1376 57.8983-25.4063 58.716-27.2335C59.5292-29.1501 58.8189-31.7281 55.5886-33.0193L42.5561-38.4119C39.156-39.788 35.4742-40.6012 31.645-41.0033C30.0681-40.4673 28.5091-40.3379 26.7893-40.3379C25.1544-40.3379 23.5954-40.4673 22.0184-41.0033C18.1893-40.6012 14.512-39.788 11.0225-38.4119L-2.01005-33.0193C-5.15541-31.7281-5.95063-29.1501-5.13744-27.2335C-4.23485-25.4063-2.24233-24.1376 0.625836-25.3394L13.976-30.8439C14.9231-31.1521 15.7942-30.6026 15.7942-29.5707C15.7942-22.4793 15.8611-13.8614 15.3876-10.4258C14.503-5.2789 8.21676 18.1458 7.81466 20.9964C7.01495 25.8481 14.6903 27.8496 16.2138 21.9924L23.55-5.52915C24.037-7.39678 25.3372-8.28589 26.7893-8.28589ZM50.4269 22.7391L90.5353 22.7391C97.2942 22.7391 102.2 17.5833 102.2 10.5297L102.2-37.9653C102.2-45.1892 97.1374-50.3496 90.3242-50.2777L90.3242-64.1005C90.3242-82.9304 78.3205-96.4953 59.9483-96.4953C43.1846-96.4953 31.7704-85.2806 29.7958-69.162C30.6571-68.9522 31.6347-68.7428 32.4964-68.5024C34.2751-83.594 44.6672-93.8707 59.9483-93.8707C76.5791-93.8707 87.5611-81.3908 87.5611-63.7514L87.5611-50.2642L41.2321-50.2642C40.9908-49.2592 40.6781-48.5044 40.2895-47.83L39.8519-47.6395L90.9868-47.6395C95.8664-47.6395 99.4502-43.6311 99.4502-38.0902L99.4502 10.6546C99.4502 16.1954 95.8664 20.1145 90.9868 20.1145L50.1996 20.1145L50.2036 20.5462C50.351 21.3859 50.5073 22.1407 50.4269 22.7391Z"/>
</svg>