<svg xmlns="http://www.w3.org/2000/svg" viewBox="11.2588 -96.0928 121.64 121.65">
  <path d="M72.0819 25.5534C105.487 25.5534 132.9-1.86039 132.9-35.2697C132.9-68.679 105.487-96.0928 72.0819-96.0928C38.6726-96.0928 11.2588-68.679 11.2588-35.2697C11.2588-1.86039 38.6726 25.5534 72.0819 25.5534ZM59.3-1.83388C56.6417-1.83388 56.7446-5.11762 58.7326-5.7475L63.5668-7.36039L60.7611-19.1907C60.359-20.8705 60.5957-22.0723 61.3999-23.4349L66.3635-31.7582C59.5638-34.3941 53.0053-39.1164 51.245-45.7553C50.9993-46.4791 50.4453-47.0375 49.0782-46.8008L33.8793-43.995C31.6455-43.5929 30.2024-45.0315 29.7958-46.8008C29.5635-48.4806 30.3587-50.2363 32.606-50.6384L84.4441-60.0741C86.6779-60.4762 88.2058-59.1135 88.5275-57.4337C88.9251-55.8388 88.0405-53.9222 85.8067-53.5201L67.0873-50.1559C66.2876-49.9996 65.6442-49.115 66.0418-48.2393C67.409-44.8797 73.3286-42.3152 76.9295-41.6718L89.2423-41.0375L109.409-44.558C110.437-44.7143 111.487-44.4061 111.728-42.9631L113.497-32.9685C113.984-30.4755 110.709-29.9216 109.753-31.6773L106.831-37.1059L77.8052-31.8296L67.8021-19.5883L71.3316-4.6351C71.7292-2.87035 70.925-1.83388 69.406-1.83388ZM54.5822-58.3898C50.3289-58.3898 47.0407-61.7629 47.0407-65.9358C47.0407-70.1041 50.3289-73.5622 54.5822-73.5622C58.7506-73.5622 62.1192-70.1041 62.1192-65.9358C62.1192-61.7629 58.7506-58.3898 54.5822-58.3898ZM57.2001 2.93741C56.5658 2.93741 56.0118 2.37896 56.0118 1.75357C56.0118 1.12369 56.5658 0.569734 57.2001 0.569734L71.0189 0.569734C71.6443 0.569734 72.1982 1.12369 72.1982 1.75357C72.1982 2.37896 71.6443 2.93741 71.0189 2.93741ZM118.586-31.7088C118.662-31.0879 118.184-30.458 117.554-30.3776C117.098-30.2167 116.383-30.6903 116.307-31.3156L113.899-44.8976C113.819-45.523 114.217-46.1619 114.842-46.3227C115.382-46.3987 116.102-45.9206 116.178-45.2907Z"/>
</svg>