<svg xmlns="http://www.w3.org/2000/svg" viewBox="16.084 -90.1642 109.78 109.78">
  <path d="M32.0058 19.6158L109.947 19.6158C120.302 19.6158 125.868 13.8795 125.868 3.6805L125.868-74.2289C125.868-84.4278 120.302-90.1642 109.947-90.1642L32.0058-90.1642C21.646-90.1642 16.084-84.5977 16.084-74.2289L16.084 3.6805C16.084 14.0493 21.646 19.6158 32.0058 19.6158ZM32.1666 17.0405C23.2346 17.0405 18.6637 12.4606 18.6637 3.54212L18.6637-74.0905C18.6637-83.0045 23.2346-87.5889 32.1666-87.5889L109.786-87.5889C118.378-87.5889 123.289-83.0045 123.289-74.0905L123.289 3.54212C123.289 12.4606 118.378 17.0405 109.786 17.0405ZM71.6443-6.70311C84.2558-6.70311 92.5701-15.4509 92.5701-29.0868L92.5701-33.4115C92.5701-34.2952 92.1909-34.8487 91.3831-34.8487L71.527-34.8487C70.7367-34.8487 70.1473-34.1789 70.1473-33.46C70.1473-32.6473 70.7367-31.9909 71.527-31.9909L89.807-31.9909L89.807-29.2616C89.807-16.7992 83.0154-9.48906 71.6353-9.48906C59.1873-9.48906 50.5415-19.98 50.5415-35.1488C50.5415-50.2327 59.1918-60.7997 71.6488-60.7997C81.5548-60.7997 89.0078-55.0175 89.9499-46.595C90.0523-45.4516 90.4005-45.0005 91.3027-45.0005C92.2403-45.0005 92.642-45.5765 92.642-46.599C92.642-47.0456 92.566-47.5906 92.593-48.207C91.6778-54.1976 85.0304-63.5007 71.6577-63.5007C57.5627-63.5007 47.7964-51.9337 47.7964-35.1488C47.7964-18.2791 57.5627-6.70311 71.6443-6.70311Z" />
</svg>