<svg xmlns="http://www.w3.org/2000/svg" viewBox="11.2588 -96.0928 121.64 121.65">
  <path d="M72.0819-27.8005C76.1649-27.8005 79.551-31.1018 79.551-35.2697C79.551-37.9591 78.2019-39.9871 76.1514-41.4926L44.3675-64.9667C42.6032-66.1905 40.9328-64.605 42.3355-62.7603L65.8145-31.1418C67.3065-29.2032 69.415-27.8005 72.0819-27.8005ZM72.0819 25.5534C105.657 25.5534 132.9-1.69505 132.9-35.2697C132.9-68.8443 105.657-96.0928 72.0819-96.0928C38.5027-96.0928 11.2588-68.8443 11.2588-35.2697C11.2588-1.69505 38.5027 25.5534 72.0819 25.5534ZM72.0819 23.0096C39.8281 23.0096 13.7132-3.01593 13.7132-35.2697C13.7132-67.5235 39.8281-93.549 72.0819-93.549C104.336-93.549 130.361-67.5235 130.361-35.2697C130.361-3.01593 104.336 23.0096 72.0819 23.0096Z"/>
</svg>