<svg xmlns="http://www.w3.org/2000/svg" viewBox="15.6194 -90.0613 120.84 108.68">
  <path d="M71.3271 11.333C74.5969 13.2002 77.8222 13.2046 80.8373 11.4179L129.363-16.5956C133.07-18.7576 132.15-21.5574 129.448-23.2233L80.8373-51.3218C77.8222-53.1086 74.5969-53.1041 71.3271-51.2369L22.797-23.2233C20.1041-21.5664 19.179-18.7531 22.882-16.5956ZM20.5996 17.7706C22.0602 16.9264 22.5962 15.0952 21.752 13.6346C20.9078 12.1785 19.0721 11.8078 17.616 12.5671C16.1599 13.4158 15.6194 15.247 16.4681 16.6227C17.3078 18.0788 19.1435 18.6193 20.5996 17.7706ZM35.5398 9.17467C36.9959 8.33497 37.5363 6.49924 36.6922 5.04314C35.848 3.58255 33.9273 3.13148 32.5561 3.88626C31.1 4.73494 30.6445 6.65559 31.4887 8.02677C32.3329 9.47838 34.0837 10.0233 35.5398 9.17467ZM72.0945 8.73437L23.6345-19.1817C23.09-19.6193 23.09-20.6243 23.6345-20.977L72.0945-48.6383C75.03-50.2691 77.1299-50.2691 79.985-48.6383L128.606-20.977C129.244-20.6198 129.244-19.5388 128.606-19.1817L79.985 8.73437C77.1299 10.3652 75.03 10.3652 72.0945 8.73437ZM48.2349-3.39241L105.29-36.9549L102.468-38.039L45.5379-4.66431ZM104.939-4.42035L107.917-5.38854L50.103-37.3692L47.2092-36.2001ZM116.54 9.17467C117.996 10.0233 119.832 9.47838 120.591 8.02677C121.435 6.65559 120.979 4.73494 119.608 3.88626C118.152 3.13148 116.232 3.58255 115.472 5.04314C114.628 6.49924 115.164 8.33497 116.54 9.17467ZM131.48 17.7706C132.931 18.6193 134.772 18.0788 135.611 16.6227C136.46 15.247 135.92 13.4158 134.544 12.5671C133.088 11.8078 131.167 12.1785 130.412 13.6346C129.564 15.0952 130.104 16.9264 131.48 17.7706ZM76.08-66.8262C77.6834-66.8262 79.0636-68.1215 79.0636-69.8098C79.0636-71.4133 77.6834-72.789 76.08-72.789C74.3916-72.789 73.0159-71.4133 73.0159-69.8098C73.0159-68.1215 74.3916-66.8262 76.08-66.8262ZM76.08-84.0091C77.6834-84.0091 79.0636-85.3893 79.0636-87.0777C79.0636-88.6811 77.6834-90.0613 76.08-90.0613C74.3916-90.0613 73.0159-88.6811 73.0159-87.0777C73.0159-85.3893 74.3916-84.0091 76.08-84.0091Z"/>
</svg>