<svg xmlns="http://www.w3.org/2000/svg" viewBox="16.084 -97.468 135.07 125.32">
  <path d="M32.9174-63.8951C42.1158-63.8951 49.6568-71.4362 49.6568-80.724C49.6568-90.0119 42.1158-97.468 32.9174-97.468C23.625-97.468 16.084-90.0119 16.084-80.724C16.084-71.4362 23.625-63.8951 32.9174-63.8951ZM32.828-3.69701C33.4974-3.69701 34.1178-4.22806 34.1178-4.98689L34.1178-64.632C34.1178-65.3014 33.4974-65.9218 32.828-65.9218C32.154-65.9218 31.5381-65.3014 31.5381-64.632L31.5381-4.98689C31.5381-4.22806 32.154-3.69701 32.828-3.69701ZM32.828 27.8537C42.1158 27.8537 49.6568 20.3975 49.6568 11.1052C49.6568 1.82185 42.1158-5.63429 32.828-5.63429C23.625-5.63429 16.084 1.82185 16.084 11.1052C16.084 20.3975 23.625 27.8537 32.828 27.8537ZM71.9785-14.6206C72.8402-14.6206 73.4162-15.1966 73.4162-16.0628L73.4162-55.407C73.4162-56.1748 72.8492-56.7463 72.0859-56.7463C71.5769-56.7463 71.1303-56.599 70.894-56.4116L59.8625-49.7857C59.3625-49.509 59.0633-49.0714 59.0633-48.4864C59.0633-47.5933 59.8181-47.0887 60.6218-47.0887C60.9925-47.0887 61.2023-47.0708 61.488-47.294L70.3845-52.5442L70.5319-52.5442L70.5319-16.0628C70.5319-15.2815 71.1928-14.6206 71.9785-14.6206ZM83.9292-14.4953L108.596-14.4953C109.395-14.4953 110.056-14.9909 110.056-15.875C110.056-16.6653 109.395-17.2458 108.596-17.2458L86.9519-17.2458L86.9519-17.3931L98.9269-30.2351C106.178-37.9245 107.92-40.9355 107.92-44.9026C107.92-51.6129 102.43-56.7283 95.197-56.7283C89.644-56.7283 85.0515-53.8067 83.2018-49.3796C82.7103-48.0659 82.2992-46.6718 82.2992-45.4565C82.2992-44.5768 82.7948-43.9115 83.7639-43.9115C84.5766-43.9115 85.1885-44.6173 85.1481-45.3316C85.224-46.413 85.3894-47.2397 85.72-47.9859C87.266-51.6677 90.8673-53.8885 95.197-53.8885C100.613-53.8885 105.036-49.9475 105.036-44.925C105.036-41.6813 103.405-39.1523 96.7254-32.1239L82.8617-17.2278C82.4466-16.7233 82.3082-16.3706 82.3082-15.951C82.3082-14.9909 82.9736-14.4953 83.9292-14.4953ZM127.109-14.3659C135.307-14.3659 141.276-19.4723 141.276-26.415C141.276-32.5359 136.75-36.8606 130.785-37.1643L130.785-35.6008C136.191-36.9545 139.507-40.8101 139.507-45.8721C139.507-52.0954 134.087-56.7283 126.685-56.7283C120.51-56.7283 115.381-53.4042 114.068-48.1454C113.934-47.3682 113.957-46.6848 113.957-46.1668C113.957-45.2871 114.372-44.6173 115.341-44.6173C116.319-44.6173 116.676-45.3276 116.806-46.404C117.512-50.8276 121.627-53.8885 126.698-53.8885C132.333-53.8885 136.622-50.5059 136.622-46.0064C136.622-41.1718 132.431-37.7982 126.283-37.7982L122.118-37.7982C121.234-37.7982 120.654-37.2133 120.654-36.3246C120.654-35.5208 121.234-34.9359 122.118-34.9359L126.283-34.9359C133.977-34.9359 138.409-31.817 138.409-26.415C138.409-21.1603 133.646-17.1209 127.105-17.1209C121.216-17.1209 116.444-20.5124 115.823-25.0254C115.693-26.0169 115.265-26.6423 114.358-26.6423C113.398-26.6423 112.992-25.9814 112.992-25.1017C112.992-24.4094 113.139-23.811 113.184-23.284C114.72-17.8644 120.198-14.3659 127.109-14.3659ZM62.6319-76.8913C64.8297-76.8913 66.545-78.6111 66.545-80.724C66.545-82.9174 64.8297-84.6372 62.6319-84.6372C60.5189-84.6372 58.8036-82.9174 58.8036-80.724C58.8036-78.6111 60.5189-76.8913 62.6319-76.8913ZM79.605-77.2309C81.8028-77.2309 83.5181-78.9508 83.5181-81.0637C83.5181-83.257 81.8028-84.9769 79.605-84.9769C77.492-84.9769 75.7767-83.257 75.7767-81.0637C75.7767-78.9508 77.492-77.2309 79.605-77.2309ZM96.4931-77.2309C98.691-77.2309 100.406-78.9508 100.406-81.0637C100.406-83.257 98.691-84.9769 96.4931-84.9769C94.3802-84.9769 92.6649-83.257 92.6649-81.0637C92.6649-78.9508 94.3802-77.2309 96.4931-77.2309ZM113.381-77.2309C115.579-77.2309 117.294-78.9508 117.294-81.0637C117.294-83.257 115.579-84.9769 113.381-84.9769C111.268-84.9769 109.553-83.257 109.553-81.0637C109.553-78.9508 111.268-77.2309 113.381-77.2309ZM130.354-77.5706C132.552-77.5706 134.268-79.2904 134.268-81.3988C134.268-83.5967 132.552-85.3165 130.354-85.3165C128.241-85.3165 126.526-83.5967 126.526-81.3988C126.526-79.2904 128.241-77.5706 130.354-77.5706ZM147.243-77.5706C149.44-77.5706 151.156-79.2904 151.156-81.3988C151.156-83.5967 149.44-85.3165 147.243-85.3165C145.13-85.3165 143.414-83.5967 143.414-81.3988C143.414-79.2904 145.13-77.5706 147.243-77.5706ZM62.6319 15.0229C64.8297 15.0229 66.545 13.303 66.545 11.1052C66.545 8.99675 64.8297 7.27693 62.6319 7.27693C60.5189 7.27693 58.8036 8.99675 58.8036 11.1052C58.8036 13.303 60.5189 15.0229 62.6319 15.0229ZM79.605 14.6832C81.8028 14.6832 83.5181 12.9634 83.5181 10.7655C83.5181 8.6571 81.8028 6.93728 79.605 6.93728C77.492 6.93728 75.7767 8.6571 75.7767 10.7655C75.7767 12.9634 77.492 14.6832 79.605 14.6832ZM96.4931 14.6832C98.691 14.6832 100.406 12.9634 100.406 10.7655C100.406 8.6571 98.691 6.93728 96.4931 6.93728C94.3802 6.93728 92.6649 8.6571 92.6649 10.7655C92.6649 12.9634 94.3802 14.6832 96.4931 14.6832ZM113.381 14.6832C115.579 14.6832 117.294 12.9634 117.294 10.7655C117.294 8.6571 115.579 6.93728 113.381 6.93728C111.268 6.93728 109.553 8.6571 109.553 10.7655C109.553 12.9634 111.268 14.6832 113.381 14.6832ZM130.354 14.3436C132.552 14.3436 134.268 12.6237 134.268 10.4304C134.268 8.31745 132.552 6.59763 130.354 6.59763C128.241 6.59763 126.526 8.31745 126.526 10.4304C126.526 12.6237 128.241 14.3436 130.354 14.3436ZM147.243 14.3436C149.44 14.3436 151.156 12.6237 151.156 10.4304C151.156 8.31745 149.44 6.59763 147.243 6.59763C145.13 6.59763 143.414 8.31745 143.414 10.4304C143.414 12.6237 145.13 14.3436 147.243 14.3436Z"/>
</svg>