<svg xmlns="http://www.w3.org/2000/svg" viewBox="11.2588 -96.1979 116.33 124.79">
  <path d="M86.1958-48.9914L105.424-48.9914C109.879-48.9914 113.373-45.417 113.373-40.8775C113.373-38.2416 112.663-36.2177 111.363-35.1771C109.634-33.7875 109.383-31.8975 111.041-30.5168C111.939-29.8519 112.654-27.743 112.654-25.3304C112.654-22.3459 111.286-19.6741 109.41-18.7005C107.797-17.7489 107.149-16.2254 108.378-14.2909C111.403-10.3458 110.223-4.38935 105.415-1.86083L107.366 0.094414C110.618-2.02751 112.575-5.29327 112.575-9.05504C112.575-11.8967 111.834-14.4791 110.52-16.1455C113.42-17.6685 115.287-21.3319 115.287-25.3304C115.287-28.3149 114.304-31.286 112.754-32.7645C114.787-34.4039 116.006-37.4329 116.006-40.8775C116.006-46.8767 111.334-51.6295 105.424-51.6295L86.3706-51.6295C82.0001-51.6295 79.3992-53.645 79.3992-56.8267C79.3992-63.7698 88.5756-77.1501 88.5756-87.1347C88.5756-92.486 84.9352-96.1979 79.8206-96.1979C75.9344-96.1979 73.5402-94.0895 70.8019-88.8496C64.7345-77.0229 60.5935-71.73 49.7764-57.4948L51.6557-55.6155C58.7906-64.7429 66.904-75.242 73.2482-87.6756C75.4955-92.1747 77.0279-93.5643 79.7088-93.5643C83.5738-93.5643 85.942-91.0308 85.942-87.1347C85.942-77.9269 76.7656-64.5956 76.7656-56.8267C76.7656-52.1408 80.5893-48.9914 86.1958-48.9914ZM35.5483 12.196L52.8197 12.196C59.0606 15.341 66.7355 17.2351 75.362 17.2351L82.6039 17.2351C89.8475 17.2351 98.3271 17.387 103.983 13.2671L102.282 11.5671C97.9573 14.6864 87.8986 14.597 82.6039 14.597L75.3126 14.597C51.9113 14.597 35.8233 0.912538 35.8233-18.3923C35.8233-29.607 38.1289-37.0416 44.5545-46.1655L40.7603-49.8657L33.6501-49.8657C21.655-49.9376 11.2588-36.5443 11.2588-18.674C11.2588-1.24622 22.6375 12.196 35.5483 12.196ZM35.5483 9.56239C24.0748 9.56239 13.8924-2.70591 13.8924-18.674C13.8924-35.1291 23.1946-47.2275 33.5558-47.2275L41.9383-47.2275C35.6337-37.9298 33.1896-29.8524 33.1896-18.3788C33.1896-6.60606 38.5827 3.28559 47.9658 9.56239ZM125.08 28.1196C125.553 28.5927 126.459 28.5927 126.936 28.1196C127.584 27.4767 127.494 26.7359 126.936 26.1779L20.8836-79.8794C20.4954-80.3525 19.5892-80.5223 19.0312-79.8794C18.4687-79.4018 18.4687-78.5001 19.0312-78.0225Z"/>
</svg>