<svg xmlns="http://www.w3.org/2000/svg" viewBox="16.084 -90.1642 145.27 109.78">
  <path d="M31.7048 12.6367L145.736 12.6367C151.308 12.6367 154.378 9.57585 154.378 4.00845L154.378-5.02375C154.378-10.5911 151.308-13.6565 145.736-13.6565L31.7048-13.6565C26.1329-13.6565 23.063-10.5911 23.063-5.02375L23.063 4.00845C23.063 9.57585 26.1329 12.6367 31.7048 12.6367ZM32.0058 19.6158L145.435 19.6158C155.79 19.6158 161.357 13.8795 161.357 3.6805L161.357-74.2289C161.357-84.4278 155.79-90.1642 145.435-90.1642L32.0058-90.1642C21.646-90.1642 16.084-84.5977 16.084-74.2289L16.084 3.6805C16.084 14.0493 21.646 19.6158 32.0058 19.6158ZM32.1666 17.0405C23.2346 17.0405 18.6637 12.4606 18.6637 3.54212L18.6637-74.0905C18.6637-83.0045 23.2346-87.5889 32.1666-87.5889L145.274-87.5889C153.867-87.5889 158.777-83.0045 158.777-74.0905L158.777 3.54212C158.777 12.4606 153.867 17.0405 145.274 17.0405Z" />
</svg>