<svg xmlns="http://www.w3.org/2000/svg" viewBox="15.9187 -115.709 99.67 156.02">
  <path d="M103.992 39.9993C104.608 40.312 105.251 40.1557 105.626 39.4054L115.294 18.7339C115.589 18.0685 115.37 17.3047 114.615 16.9251L100.806 10.5944L109.638-7.7499C109.933-8.42427 109.545-9.25947 108.714-9.5497L89.7572-18.5433C102.973-29.5424 107.543-43.4321 102.839-56.3478C100.176-63.7824 95.06-69.4967 88.6484-73.0931C86.2583-67.3262 82.1128-62.4975 76.9713-59.2007C78.6116-54.9649 76.6056-50.4565 72.4638-49.0804C68.5726-47.4809 64.2928-49.5494 62.7738-53.6014C61.2593-57.497 63.3323-61.7768 67.3888-63.3762C70.2884-64.4217 73.5097-63.5995 75.4977-61.3923C80.2465-64.4033 84.0662-68.9688 86.2735-74.2311C79.264-77.3585 70.9632-77.8455 62.9706-74.9729C46.7447-69.0892 38.4618-51.4247 44.3545-35.1897C48.9784-22.6806 60.6254-14.3978 73.9387-14.4872L91.1836 32.9408C91.4918 33.7895 92.1262 34.5043 93.1537 34.9733ZM23.218 38.0603L43.894 28.4907C44.6488 28.1111 44.8676 27.3563 44.5729 26.597L38.0678 12.9661L56.5819 4.47752C57.2563 4.17831 57.3857 3.34311 57.0106 2.5124L48.0161-16.9375C49.6429-16.8971 51.1044-16.9371 52.6463-16.9816C47.0892-21.1275 42.716-26.8633 40.201-33.6847C33.7454-51.5415 42.3862-72.6066 61.0212-78.1493C44.2444-81.5682 29.6031-73.0976 24.2149-58.4567C19.6759-45.8537 23.3528-31.9864 33.5612-23.6367L16.2313 23.7913C15.9187 24.6445 16.0081 25.5916 16.4816 26.6191L21.4941 37.5467C21.8068 38.2526 22.3828 38.4354 23.218 38.0603ZM32.8909-71.0557L34.9975-72.9718C33.3487-76.5552 32.3567-80.6346 32.3567-84.9598C32.3567-100.66 44.6744-113.053 60.2849-113.053C75.8149-113.053 88.3739-100.66 88.3739-84.9598C88.3739-81.0677 87.6142-77.5378 86.2735-74.2311C87.1083-73.7936 87.8716-73.4768 88.6484-73.0931C90.2078-76.7255 91.021-80.6616 91.021-84.9598C91.021-102.146 77.2971-115.709 60.2804-115.709C43.1788-115.709 29.7051-102.231 29.7051-84.9598C29.7051-79.8574 30.8489-75.2555 32.8909-71.0557Z"/>
</svg>