<svg xmlns="http://www.w3.org/2000/svg" viewBox="16.084 -109.357 74.58 147.66">
  <path d="M52.5093 37.7013C53.0223 38.2368 53.7228 38.2993 54.3252 37.6968L73.702 18.3201C74.3938 17.7131 74.4028 16.8563 73.7064 16.3298L60.5432 3.25144L78.21-14.3304C78.8214-14.7721 78.741-15.7137 78.0446-16.3207L59.9618-34.4839C79.737-41.5649 90.6656-55.3747 90.6656-72.102C90.6656-92.6796 74.082-109.357 53.4195-109.357C32.5916-109.357 16.084-92.7601 16.084-72.102C16.084-56.0675 25.9042-42.0614 41.0946-36.7631L41.0946 24.6382C41.0946 25.442 41.3938 26.4825 42.3004 27.4071ZM53.4195 34.9337L43.7592 25.2735L43.7592-38.6779C28.8771-43.0835 18.6682-56.3842 18.6682-72.102C18.6682-91.171 34.1003-106.692 53.4195-106.692C72.5689-106.692 88.0055-91.2559 88.0055-72.102C88.0055-56.545 77.8011-43.0835 57.3192-36.8143L57.3192-33.2969L75.371-15.2451L58.1598 1.80522L58.1598 4.53682L70.9479 17.2445ZM53.4195-76.0925C58.4455-76.0925 62.5155-80.0775 62.5155-85.1885C62.5155-90.3039 58.4455-94.3739 53.4195-94.3739C48.3086-94.3739 44.2341-90.3039 44.2341-85.1885C44.2341-80.0775 48.3041-76.0925 53.4195-76.0925Z"/>
</svg>