<svg xmlns="http://www.w3.org/2000/svg" viewBox="16.084 -101.365 76.03 132.53">
  <path d="M16.084 15.199C16.084 25.8593 21.6729 31.1657 31.8086 31.1657L76.3899 31.1657C86.53 31.1657 92.1145 25.8593 92.1145 15.199L92.1145-85.4032C92.1145-96.0591 86.53-101.365 76.3899-101.365L31.8086-101.365C21.6729-101.365 16.084-96.0591 16.084-85.4032ZM28.4444-82.4686C27.5598-82.4686 26.8405-83.1878 26.8405-84.0725L26.8405-85.8997C26.8405-88.3927 28.9224-90.4791 31.411-90.4791L76.7875-90.4791C79.2761-90.4791 81.358-88.3927 81.358-85.8997L81.358-84.0725C81.358-83.1878 80.6387-82.4686 79.7541-82.4686ZM54.0948-63.4041C64.6388-63.4041 73.1678-54.8751 73.1678-44.416C73.1678-35.7706 67.6633-28.8366 57.6907-25.1327L66.7252-16.0983C67.1048-15.7232 67.1048-15.2856 66.8101-14.9014L57.9545-6.13972L64.5449 0.544565C64.8441 0.830304 64.8351 1.27239 64.5449 1.64753L54.8675 11.3339C54.318 11.7135 53.8 11.7225 53.4159 11.3339L48.4164 6.25393C47.9429 5.69998 47.7016 5.30686 47.7016 4.7619L47.7016-26.375C40.0392-29.0154 35.0263-36.1907 35.0263-44.416C35.0263-54.9555 43.4748-63.4041 54.0948-63.4041ZM54.0993-42.9006C57.343-42.9006 59.9299-45.5769 59.9299-48.7313C59.9299-51.966 57.343-54.6424 54.0993-54.6424C50.7796-54.6424 48.1882-51.966 48.1882-48.7313C48.1882-45.5769 50.86-42.9006 54.0993-42.9006Z"/>
</svg>