<svg xmlns="http://www.w3.org/2000/svg" viewBox="11.2588 -98.0251 125.52 140.82">
  <path d="M136.779-35.2697C136.779-69.8305 108.749-98.0251 74.0187-98.0251C39.373-98.0251 11.2588-69.9154 11.2588-35.2697C11.2588-6.31044 30.9392 18.2392 57.5533 25.3732C57.9333 24.503 58.3754 23.7087 58.8305 23.0302C32.7916 16.2444 13.8385-7.37253 13.8385-35.2697C13.8385-68.6525 40.7208-95.4499 74.0187-95.4499C107.402-95.4499 134.199-68.5676 134.199-35.2697C134.199-7.29211 115.25 16.2444 89.2113 23.0258C89.8408 23.7087 90.1175 24.5834 90.4886 25.3732C117.103 18.1453 136.779-6.31493 136.779-35.2697ZM85.5668 28.953C86.7637 27.3006 86.0089 25.1032 84.0707 25.1032L63.9711 25.1032C62.042 25.1032 61.2782 27.2961 62.484 28.9575L71.7584 41.2384C72.9288 42.7125 75.1131 42.7929 76.279 41.2384ZM26.5898-35.2697C26.5898-8.9908 47.8202 12.1592 74.0187 12.1592C100.302 12.1592 121.448-8.9908 121.448-35.2697C121.448-61.5531 100.302-82.6941 74.0187-82.6941C47.8202-82.6941 26.5898-61.5531 26.5898-35.2697ZM29.1695-35.2697C29.1695-60.1204 49.168-80.1144 74.0187-80.1144C98.8693-80.1144 118.868-60.1204 118.868-35.2697C118.868-10.4191 98.8693 9.57944 74.0187 9.57944C49.168 9.57944 29.1695-10.4191 29.1695-35.2697ZM62.7145-11.318L88.727-11.318C89.5173-11.318 90.1602-11.9834 90.1602-12.6798C90.1602-13.3762 89.4324-14.0371 88.727-14.0371L64.1028-14.0371L64.1028-58.0654C64.1028-58.7928 63.4554-59.4222 62.7145-59.4222C61.9692-59.4222 61.3083-58.7972 61.3083-58.0654L61.3083-12.6838C61.3083-12.0324 62.0541-11.318 62.7145-11.318Z"/>
</svg>