<svg xmlns="http://www.w3.org/2000/svg" viewBox="10.9371 -103.671 63.98 136.81">
  <path d="M31.3188 23.4863C27.624 23.8124 23.4512 25.5772 20.8912 27.9808C20.2703 28.6062 20.3507 29.3075 20.9671 29.772C23.8533 32.0193 28.178 33.1407 31.9532 32.6582C35.4827 32.4214 39.5662 30.5762 42.2914 28.0028C42.9883 27.3015 42.8274 26.5242 41.9743 25.9703C39.0926 24.21 34.7634 23.2495 31.3188 23.4863ZM17.616 2.08557C17.071 1.13851 16.2893 1.05809 15.579 1.92473C13.2603 4.81985 11.5805 8.9927 11.3392 12.4373C10.9371 16.208 12.1344 20.5327 14.3727 23.3385C14.9222 24.1292 15.5386 24.1292 16.1685 23.334C18.4916 20.5997 20.176 16.4358 20.2474 12.9153C20.5781 9.72547 19.4567 5.39627 17.616 2.08557ZM49.0916 6.43724C45.8079 7.55862 42.2829 10.3688 40.2724 13.4158C39.8034 14.1126 40.0401 14.8184 40.8219 15.1311C44.0966 16.4893 48.6671 16.4044 52.2056 15.0417C55.4893 13.9248 58.9294 11.1191 60.9354 7.90232C61.4044 7.04465 61.1677 6.34783 60.4039 6.11556C57.2096 5.0701 52.6346 5.23543 49.0916 6.43724ZM30.4832-10.862C29.7015-11.6483 29.0046-11.4919 28.616-10.4644C27.0121-7.17619 26.3687-2.77107 27.0925 0.67351C27.7359 4.44426 30.0591 8.37585 32.8603 10.4578C33.4767 11.0117 34.178 10.8509 34.5711 10.0737C36.0901 7.11609 36.5682 2.62605 35.764-1.15368C35.1251-4.51784 33.0476-8.44943 30.4832-10.862ZM74.5978-18.6987C74.7541-19.7172 74.1198-20.2667 73.2756-20.1058C69.7461-19.5339 65.8235-17.6128 63.3395-15.2047C60.775-12.8815 58.6082-8.95442 58.0497-5.26409C57.8889-4.40642 58.3579-3.86145 59.2201-3.94187C62.8165-4.10721 66.7301-5.86746 69.2991-8.42742C71.8635-10.9964 73.9499-15.0843 74.5978-18.6987ZM39.2669-23.488C38.2484-23.8811 37.623-23.4075 37.623-22.3086C37.4667-18.7791 38.7489-14.4499 40.7504-11.318C42.676-8.27556 46.3619-5.71111 49.9673-4.82649C50.9143-4.58523 51.285-4.88445 51.3654-5.91643C51.5263-9.60227 50.244-13.936 48.1621-16.7417C45.7315-19.8021 42.2914-22.447 39.2669-23.488ZM49.4578-38.3701C46.7235-40.6174 42.6401-42.3062 39.1196-42.6279C38.1815-42.6279 37.632-41.998 37.7884-41.1493C38.6775-37.5349 41.0856-33.5184 43.726-31.2802C46.2859-28.7916 50.5302-27.1877 54.2161-27.3486C54.9084-27.3486 55.3774-27.889 55.2211-28.6663C54.4124-32.2807 52.0892-36.1274 49.4578-38.3701ZM74.4325-47.0869C74.3565-48.0965 73.825-48.4047 72.887-48.016C69.8535-46.8142 66.3999-44.013 64.3894-40.8766C62.3789-37.6643 61.4228-33.2547 61.9099-29.895C61.9858-29.0374 62.6112-28.6443 63.3884-28.8765C66.7481-29.8416 70.1033-32.6473 71.9484-35.9355C73.874-39.4071 74.9195-43.8167 74.4325-47.0869ZM46.1696-59.5206C42.8813-60.7224 38.4762-60.8877 35.1121-59.9272C34.2589-59.6145 33.9417-58.9132 34.4062-58.1359C36.0816-55.1739 39.6111-52.2832 43.2255-50.8312C46.5896-49.3881 51.1601-49.3881 54.5243-50.7508C55.2211-51.059 55.4534-51.7603 54.9843-52.4616C53.0587-55.4192 49.6186-58.3143 46.1696-59.5206ZM66.806-76.3463C66.5068-77.2085 65.7296-77.3648 64.9434-76.7349C62.3744-74.3268 60.2121-70.3952 59.4928-66.8657C58.6037-63.5106 59.0817-59.1054 60.7705-55.8082C61.1636-55.022 61.8649-54.8701 62.4858-55.4196C65.4524-57.5865 67.6907-61.4376 68.2446-64.9536C68.9684-68.3133 68.41-72.8883 66.806-76.3463ZM34.9243-77.7804C31.3948-78.4193 26.9002-77.9412 23.6924-76.5831C22.8348-76.1945 22.7678-75.3278 23.3038-74.631C25.5421-71.9012 29.4782-69.5735 33.1775-68.7693C36.8723-67.8088 41.2729-68.3672 44.226-70.2928C44.8424-70.7663 44.9183-71.4677 44.4538-72.0036C42.4658-74.5546 38.6191-76.8868 34.9243-77.7804ZM53.0677-97.3359C52.5227-98.1176 51.8304-98.1981 51.1201-97.4118C48.8773-94.691 47.193-90.5182 46.9518-86.9842C46.6301-83.7139 47.747-79.3847 49.6681-76.083C50.222-75.2923 51.0082-75.3013 51.6291-75.9267C54.1042-78.6565 55.8644-82.8293 55.9449-86.4347C56.1861-89.8793 54.9843-94.2889 53.0677-97.3359ZM21.1814-103.515C20.078-103.671 19.618-103.041 19.7788-102.112C20.3417-98.5022 22.2628-94.4992 24.6665-91.9258C26.9807-89.205 31.0686-87.1945 34.8438-86.8638C35.7015-86.8683 36.0856-87.4222 36.0097-88.195C35.5227-91.8094 33.5167-95.8973 31.1221-98.3814C28.7229-100.78 24.7109-102.867 21.1814-103.515Z"/>
</svg>