<svg xmlns="http://www.w3.org/2000/svg" viewBox="11.2588 -96.0928 121.64 121.65">
  <path d="M72.0819 25.5534C105.487 25.5534 132.9-1.86039 132.9-35.2697C132.9-68.679 105.487-96.0928 72.0819-96.0928C38.6726-96.0928 11.2588-68.679 11.2588-35.2697C11.2588-1.86039 38.6726 25.5534 72.0819 25.5534ZM53.6617-9.95629C52.755-9.95629 52.2595-10.4788 52.2595-11.3585C52.2595-12.2516 52.7775-12.7876 53.5992-12.9974C59.9398-14.5434 63.9788-19.7087 63.9249-26.1202C63.9114-27.0049 63.8175-27.8805 63.7326-28.7741L54.4978-28.7741C53.8189-28.7741 53.207-29.3905 53.207-30.0694C53.207-30.7437 53.8189-31.2797 54.4978-31.2797L63.259-31.2797C62.6112-34.0275 61.6372-36.7038 60.9089-39.6124L54.4978-39.6124C53.8189-39.6124 53.207-40.2288 53.207-40.9076C53.207-41.4971 53.8189-42.0331 54.4978-42.0331L60.3594-42.0331C60.1896-43.2708 60.1047-44.6025 60.1047-45.9296C60.1047-55.9592 66.9979-61.691 77.7557-61.691C81.053-61.691 84.56-61.1905 87.5086-59.8279C88.2633-59.4393 88.7859-59.0776 88.7859-58.3363C88.7859-57.6664 88.3213-57.2378 87.7813-57.2378C87.1379-57.2378 85.9092-57.6579 84.9396-57.9841C83.6933-58.3862 81.1424-58.9536 77.9566-58.9536C69.2977-58.9536 63.1054-54.584 63.1054-46.1754C63.1054-44.7678 63.2752-43.2708 63.4405-42.0331L83.519-42.0331C84.113-42.0331 84.7204-41.4971 84.7204-40.9076C84.7204-40.2288 84.113-39.6124 83.519-39.6124L63.9855-39.6124C64.7183-36.8601 65.6923-34.2732 66.2597-31.2797L83.519-31.2797C84.113-31.2797 84.7204-30.7437 84.7204-30.0694C84.7204-29.3905 84.113-28.7741 83.519-28.7741L66.6618-28.7741C66.8317-27.9654 66.9166-27.1477 66.9211-26.2451C66.9615-20.3296 63.4405-13.94 58.2443-13.1138L58.2443-12.6178L90.1939-12.6178C90.9262-12.6178 91.5201-12.0194 91.5201-11.2825C91.5201-10.5457 90.9262-9.95629 90.1939-9.95629Z"/>
</svg>