<svg xmlns="http://www.w3.org/2000/svg" viewBox="16.084 -101.365 100.16 132.53">
  <path d="M35.6507-70.557C38.6932-70.557 41.1773-73.041 41.1773-76.088C41.1773-79.1305 38.6932-81.5296 35.6507-81.5296C32.5993-81.5296 30.1197-79.1349 30.1197-76.088C30.1197-73.0365 32.5993-70.557 35.6507-70.557ZM35.6507-49.6249C38.6932-49.6249 41.1773-52.1089 41.1773-55.1514C41.1773-58.1939 38.6932-60.6824 35.6507-60.6824C32.6038-60.6824 30.1197-58.1984 30.1197-55.1514C30.1197-52.1089 32.6038-49.6249 35.6507-49.6249ZM35.6507-28.8361C38.6932-28.8361 41.1773-31.3201 41.1773-34.3626C41.1773-37.4051 38.6932-39.8936 35.6507-39.8936C32.5993-39.8936 30.1197-37.4096 30.1197-34.3626C30.1197-31.3156 32.5993-28.8361 35.6507-28.8361ZM53.0794-74.6368L100.838-74.6368C101.638-74.6368 102.205-75.2038 102.205-76.088C102.205-76.8872 101.638-77.4497 100.838-77.4497L53.0794-77.4497C52.1952-77.4497 51.7132-76.8872 51.7132-76.088C51.7132-75.2038 52.1952-74.6368 53.0794-74.6368ZM53.0794-53.7851L100.838-53.7851C101.633-53.7851 102.205-54.3566 102.205-55.1514C102.205-56.0356 101.633-56.5221 100.838-56.5221L53.0794-56.5221C52.1997-56.5221 51.7132-56.0356 51.7132-55.1514C51.7132-54.3566 52.1997-53.7851 53.0794-53.7851ZM53.0794-32.9964L100.838-32.9964C101.638-32.9964 102.205-33.4784 102.205-34.3626C102.205-35.1619 101.633-35.7334 100.838-35.7334L53.0794-35.7334C52.1997-35.7334 51.7132-35.1619 51.7132-34.3626C51.7132-33.4784 52.1952-32.9964 53.0794-32.9964ZM16.084 15.2439C16.084 25.5992 21.655 31.1657 32.0238 31.1657L100.305 31.1657C110.759 31.1657 116.24 25.5992 116.24 15.2439L116.24-85.4436C116.24-95.8034 110.759-101.365 100.305-101.365L32.0238-101.365C21.655-101.365 16.084-95.8034 16.084-85.4436ZM18.6637 15.083L18.6637-85.2828C18.6637-94.2148 23.2436-98.7857 32.1576-98.7857L100.167-98.7857C109.085-98.7857 113.75-94.2148 113.75-85.2828L113.75 15.083C113.75 24.015 109.085 28.5859 100.167 28.5859L32.1576 28.5859C23.2436 28.5859 18.6637 24.015 18.6637 15.083Z" />
</svg>