<svg xmlns="http://www.w3.org/2000/svg" viewBox="15.7893 -81.7816 123.8 91.73">
  <path d="M20.4837-64.1364L25.0987-67.5585L29.6377-64.1364C30.5443-63.6274 31.1782-64.047 30.879-64.9357L29.0473-70.5112L33.6713-73.9333C34.3321-74.3664 34.1178-75.2416 33.3141-75.2416L27.6672-75.2416L25.7506-81.2146C25.5318-81.6967 24.6701-81.7816 24.5362-81.2146L22.6196-75.2416L16.8073-75.2416C16.0036-75.2416 15.7893-74.3664 16.4501-73.9333L21.0696-70.5112L19.3183-64.9357C18.9387-64.047 19.7469-63.6229 20.4837-64.1364ZM20.4837-27.5548L25.0987-30.9769L29.6377-27.5548C30.5443-26.8759 31.1782-27.4654 30.879-28.2691L29.0473-33.8446L33.6713-37.2667C34.3321-37.7847 34.1178-38.575 33.3141-38.575L27.6672-38.575L25.7506-44.5481C25.5318-45.1151 24.6701-45.1955 24.5362-44.5481L22.6196-38.575L16.8073-38.575C16.0036-38.575 15.7893-37.7847 16.4501-37.2667L21.0696-33.8446L19.3183-28.2691C19.0236-27.4654 19.7469-26.9563 20.4837-27.5548ZM20.4837 9.27261L25.0987 5.85049L29.6377 9.27261C30.5443 9.95146 31.1782 9.36201 30.879 8.47335L29.0473 2.89787L33.6713-0.439337C34.3321-0.957351 34.1178-1.83254 33.3141-1.83254L27.6672-1.83254L25.7506-7.72072C25.5318-8.28321 24.6701-8.36812 24.5362-7.72072L22.6196-1.83254L16.8073-1.83254C16.0036-1.83254 15.7893-0.957351 16.4501-0.439337L21.0696 2.89787L19.3183 8.47335C19.0236 9.36201 19.7469 9.87104 20.4837 9.27261ZM49.8437-70.6464L138.304-70.6464C139.059-70.6464 139.59-71.097 139.59-71.9362C139.59-72.6906 139.059-73.1412 138.304-73.1412L49.8437-73.1412C49.0894-73.1412 48.5539-72.6906 48.5539-71.9362C48.5539-71.097 49.0894-70.6464 49.8437-70.6464ZM49.8437-33.8994L138.304-33.8994C139.059-33.8994 139.59-34.4349 139.59-35.1893C139.59-35.9436 139.059-36.4792 138.304-36.4792L49.8437-36.4792C49.0894-36.4792 48.5539-35.9436 48.5539-35.1893C48.5539-34.4349 49.0894-33.8994 49.8437-33.8994ZM49.8437 2.76264L138.304 2.76264C139.059 2.76264 139.59 2.31202 139.59 1.55768C139.59 0.718436 139.059 0.267811 138.304 0.267811L49.8437 0.267811C49.0894 0.267811 48.5539 0.718436 48.5539 1.55768C48.5539 2.31202 49.0894 2.76264 49.8437 2.76264Z" />
</svg>