<svg xmlns="http://www.w3.org/2000/svg" viewBox="14.4756 -94.6052 117.63 118.67">
  <path d="M14.4756-48.8077C14.4756-23.5522 35.1026-2.92066 60.3581-2.92066C71.6393-2.92066 81.9511-6.9776 89.9796-13.7868L126.774 23.0878C127.189 23.5923 128.006 24.0613 128.904 24.0613C131.021 24.0613 132.106 22.4758 132.106 20.7834C132.106 20.0601 131.815 19.3233 131.213 18.6444L94.4094-18.1542C101.697-26.2541 106.16-37.0484 106.16-48.8077C106.16-73.9782 85.5286-94.6052 60.3581-94.6052C35.1026-94.6052 14.4756-73.9782 14.4756-48.8077ZM16.9255-48.8077C16.9255-72.5724 36.5084-92.1553 60.3581-92.1553C84.1273-92.1553 103.706-72.5724 103.706-48.8077C103.706-24.9535 84.1273-5.37506 60.3581-5.37506C36.5084-5.37506 16.9255-24.9535 16.9255-48.8077ZM31.9011-45.439L56.0828-45.3541C56.2836-45.3541 56.3326-45.3051 56.3326-45.1088L56.4175-20.9985C56.4175-19.3686 58.4631-19.2257 58.9766-20.494L81.7098-68.4535C82.6344-70.2892 81.1963-71.2983 79.6198-70.548L31.486-47.9981C29.954-47.3147 30.5259-45.439 31.9011-45.439Z"/>
</svg>