<svg xmlns="http://www.w3.org/2000/svg" viewBox="17.6924 -96.5802 84.51 119.23">
  <path d="M29.272 22.6542L90.5353 22.6542C97.2942 22.6542 102.2 17.4984 102.2 10.4448L102.2-38.0502C102.2-45.1932 97.2942-50.3491 90.5353-50.3491L29.272-50.3491C22.598-50.3491 17.6924-45.1932 17.6924-38.0502L17.6924 10.4448C17.6924 17.4984 22.598 22.6542 29.272 22.6542ZM29.4786-49.2156L32.2417-49.2156L32.2417-63.8363C32.2417-81.4757 43.1433-93.9556 59.9483-93.9556C76.5791-93.9556 87.5611-81.4757 87.5611-63.8363L87.5611-49.2156L90.3242-49.2156L90.3242-64.1809C90.3242-83.0153 78.3205-96.5802 59.9483-96.5802C41.4868-96.5802 29.4786-83.0153 29.4786-64.1809Z"/>
</svg>