<svg xmlns="http://www.w3.org/2000/svg" viewBox="11.2588 -96.0928 121.64 121.65">
  <path d="M72.0819 25.5534C105.657 25.5534 132.9-1.69505 132.9-35.2697C132.9-68.8443 105.657-96.0928 72.0819-96.0928C38.5027-96.0928 11.2588-68.8443 11.2588-35.2697C11.2588-1.69505 38.5027 25.5534 72.0819 25.5534ZM72.0819 23.0096C39.8281 23.0096 13.7132-3.01593 13.7132-35.2697C13.7132-67.5235 39.8281-93.549 72.0819-93.549C104.336-93.549 130.361-67.5235 130.361-35.2697C130.361-3.01593 104.336 23.0096 72.0819 23.0096ZM48.9834-9.73615C48.9834-4.47292 51.3335-2.21667 56.1008-2.21667L88.0675-2.21667C92.8392-2.21667 95.1848-4.47292 95.1848-9.73615L95.1848-36.3691C95.1848-41.7397 92.8212-43.9959 88.0091-43.8931L88.0091-53.5174C88.0091-63.6364 81.6069-70.2393 72.0864-70.2393C62.5613-70.2393 56.1637-63.6364 56.1637-53.5174L56.1637-43.8931C51.347-43.9959 48.9834-41.7397 48.9834-36.3691ZM59.0664-43.8886L59.0664-53.4725C59.0664-61.8141 64.3611-67.3231 72.0864-67.3231C79.8116-67.3231 85.1018-61.8141 85.1018-53.4725L85.1018-43.8886Z" />
</svg>