<svg xmlns="http://www.w3.org/2000/svg" viewBox="16.084 -96.4998 134.1 119.24">
  <path d="M27.6636 22.7391L88.9269 22.7391C95.6858 22.7391 100.591 17.5833 100.591 10.5297L100.591-37.9653C100.591-45.1083 95.6858-50.2642 88.9269-50.2642L27.6636-50.2642C20.9896-50.2642 16.084-45.1083 16.084-37.9653L16.084 10.5297C16.084 17.5833 20.9896 22.7391 27.6636 22.7391ZM27.297 20.1145C22.328 20.1145 18.8336 16.1954 18.8336 10.6546L18.8336-38.0902C18.8336-43.6311 22.328-47.6395 27.297-47.6395L89.3784-47.6395C94.258-47.6395 97.8418-43.6311 97.8418-38.0902L97.8418 10.6546C97.8418 16.1954 94.258 20.1145 89.3784 20.1145ZM89.3402-49.1352L92.1033-49.1352L92.1033-63.7559C92.1033-81.3952 103.09-93.8751 119.805-93.8751C136.526-93.8751 147.508-81.3952 147.508-63.7559L147.508-50.2768C147.508-49.5853 148.217-48.9379 148.802-48.9379C149.476-48.9379 150.186-49.5988 150.186-50.2768L150.186-64.1005C150.186-82.9349 138.182-96.4998 119.805-96.4998C101.348-96.4998 89.3402-82.9349 89.3402-64.1005Z"/>
</svg>