<svg xmlns="http://www.w3.org/2000/svg" viewBox="11.2588 -96.0928 121.64 121.65">
  <path d="M72.0819 25.5534C105.657 25.5534 132.9-1.69505 132.9-35.2697C132.9-68.8443 105.657-96.0928 72.0819-96.0928C38.5027-96.0928 11.2588-68.8443 11.2588-35.2697C11.2588-1.69505 38.5027 25.5534 72.0819 25.5534ZM72.0819 23.0096C39.8281 23.0096 13.7132-3.01593 13.7132-35.2697C13.7132-67.5235 39.8281-93.549 72.0819-93.549C104.336-93.549 130.361-67.5235 130.361-35.2697C130.361-3.01593 104.336 23.0096 72.0819 23.0096ZM54.9484-9.65213C55.9934-9.65213 56.5828-10.1522 56.5828-11.1972L56.5828-31.6288C56.5828-43.7502 61.5558-51.9616 72.1668-51.9616C83.0145-51.9616 87.7417-43.3256 87.7417-31.6288L87.7417-11.1972C87.7417-10.1522 88.3357-9.65213 89.2958-9.65213C90.2604-9.65213 90.8498-10.1522 90.8498-11.1972L90.8498-32.1203C90.8498-44.9821 84.631-54.7749 72.1668-54.7749C59.5283-54.7749 53.4748-44.8213 53.4748-32.1203L53.4748-11.1972C53.4748-10.1522 54.0687-9.65213 54.9484-9.65213ZM72.0864-9.65213C72.8366-9.65213 73.3726-10.0987 73.3726-10.9339L73.3726-62.9827C73.3726-63.8224 72.8366-64.3539 72.0864-64.3539C71.2512-64.3539 70.7197-63.8224 70.7197-62.9827L70.7197-10.9339C70.7197-10.0987 71.2512-9.65213 72.0864-9.65213Z" />
</svg>