<svg xmlns="http://www.w3.org/2000/svg" viewBox="13.9351 -99.8721 128.96 129.05">
  <path d="M101.281-89.0325L132.059-58.2599L133.328-59.5246C142.737-68.9338 142.894-81.2326 133.578-90.5523C124.254-99.8721 112.045-99.7153 102.631-90.3017ZM24.4692 11.8883L31.2227 18.5568L38.5899 11.2746C55.6349-5.51567 73.1794 0.619153 89.0577-15.2636L130.08-56.2863L99.3123-87.0543L58.3745-46.0361C42.4608-30.2073 48.5372-12.6043 31.7515 4.52108ZM76.9956-33.8177C73.3232-37.49 73.3142-43.499 76.9956-47.1759L94.7679-64.8588C98.4493-68.5357 104.369-68.701 108.055-64.8588C111.727-61.3428 111.727-55.4991 108.055-51.7419L90.2824-33.8936C86.601-30.2167 80.6814-30.1318 76.9956-33.8177ZM62.8951-29.5159C62.3281-30.0024 62.3012-30.9625 62.8951-31.552C63.4846-31.9671 64.2793-31.9581 64.8508-31.552L74.6585-21.8248C75.145-21.2488 75.2479-20.463 74.6585-19.8736C74.069-19.2841 73.2742-19.3825 72.7073-19.8691ZM79.0946-35.8228C81.5611-33.3563 85.6095-33.4681 88.1564-35.9346L105.924-53.7829C109.075-56.8438 108.168-60.7224 105.866-62.9342C103.579-65.061 99.9638-65.8207 96.9029-62.8448L79.0946-45.0409C76.4582-42.4046 76.5432-38.3697 79.0946-35.8228ZM16.0925 27.1034C18.0801 29.1759 20.9343 29.1759 23.0069 27.1034L28.2795 21.8307L21.2758 14.9164L16.0925 20.0996C13.9351 22.2571 13.9351 25.0264 16.0925 27.1034Z"/>
</svg>