<svg xmlns="http://www.w3.org/2000/svg" viewBox="16.084 -98.0359 126.49 125.53">
  <path d="M20.8409 26.4443L137.814 26.4443L137.814 21.2803C137.814 20.8477 137.399 20.4325 136.886 20.4325L132.865 20.4325L132.865-62.408L139.102-62.408C140.07-62.408 140.45-62.9256 140.45-63.6979C140.45-64.0012 140.267-64.5772 139.646-64.9119L85.1616-96.383C83.2674-97.4864 81.3019-98.0359 79.3273-98.0359C77.3572-98.0359 75.3068-97.4864 73.4126-96.383L18.9279-64.9119C18.3969-64.5772 18.2095-64.0012 18.2095-63.6979C18.2095-62.9256 18.5038-62.408 19.5573-62.408L25.7901-62.408L25.7901 20.4325L21.7691 20.4325C21.256 20.4325 20.8409 20.8477 20.8409 21.2803ZM17.3739 27.4965L141.285 27.4965C141.959 27.4965 142.575 26.8805 142.575 26.2111C142.575 25.4523 141.959 24.9212 141.285 24.9212L17.3739 24.9212C16.615 24.9212 16.084 25.4523 16.084 26.2111C16.084 26.8805 16.615 27.4965 17.3739 27.4965ZM64.3162-0.523803C63.5169-0.523803 62.8471-1.19367 62.8471-2.07335L62.8471-25.7838L59.2102-25.7838C58.6073-25.7838 58.0758-26.3197 58.0758-26.9227C58.0758-27.5211 58.6073-28.0616 59.2102-28.0616L62.8471-28.0616L62.8471-51.75C62.8471-53.0987 63.5704-53.822 64.9146-53.822C66.1964-53.822 66.7634-53.2326 67.3753-52.192L80.5646-28.0616L92.8653-28.0616L92.8653-52.2725C92.8653-53.1521 93.5441-53.822 94.4238-53.822C95.3035-53.822 95.9733-53.1521 95.9733-52.2725L95.9733-28.0616L99.5253-28.0616C100.128-28.0616 100.66-27.5211 100.66-26.9227C100.66-26.3197 100.128-25.7838 99.5253-25.7838L95.9733-25.7838L95.9733-2.59586C95.9733-1.2112 95.0442-0.523803 93.8254-0.523803C92.5436-0.523803 91.9721-1.11325 91.3647-2.16276L78.515-25.7838L65.8702-25.7838L65.8702-2.07335C65.8702-1.19367 65.2004-0.523803 64.3162-0.523803ZM65.8702-28.0616L77.2018-28.0616L66.3617-47.9406L65.8702-47.9406ZM81.7929-25.7838L92.3782-6.33382L92.8653-6.33382L92.8653-25.7838Z"/>
</svg>