<svg xmlns="http://www.w3.org/2000/svg" viewBox="11.2543 -102.459 134.47 134.54">
  <path d="M83.5774-81.4797C88.4071-80.9972 92.9151-79.7105 97.1819-77.7759C98.558-77.2085 100.099-77.6955 100.828-78.9912L108.449-92.0003C109.343-93.5418 108.775-95.32 107.153-96.0483C100.103-99.417 92.3207-101.575 84.1449-102.299C82.3621-102.379 80.986-101.083 80.986-99.3006L80.986-84.3214C80.986-82.8648 82.0405-81.645 83.5774-81.4797ZM106.001-72.7274C109.785-69.9082 113.167-66.5216 115.982-62.7419C116.871-61.5266 118.328-61.1245 119.713-61.9332L132.722-69.3893C134.259-70.2784 134.751-72.0567 133.777-73.5132C129.295-80.0897 123.519-85.7815 116.942-90.4369C115.486-91.4913 113.623-91.0892 112.729-89.4629L105.192-76.4537C104.464-75.158 104.79-73.6165 106.001-72.7274ZM121.035-53.9226C122.889-49.6559 124.176-45.0675 124.654-40.3182C124.904-38.7767 125.95-37.7223 127.491-37.7223L142.645-37.7223C144.427-37.7223 145.728-39.018 145.562-40.8007C144.923-49.066 142.757-56.8398 139.303-63.9792C138.575-65.601 136.801-66.0836 135.26-65.1945L122.17-57.5775C120.785-56.7643 120.468-55.3882 121.035-53.9226ZM124.739-30.1363C124.261-25.3066 122.97-20.7182 121.035-16.4469C120.468-15.0708 120.87-13.6098 122.25-12.7966L135.26-5.26004C136.797-4.37093 138.575-4.85794 139.303-6.47532C142.672-13.5253 144.839-21.3081 145.562-29.5689C145.643-31.3516 144.343-32.7322 142.56-32.7322L127.491-32.7322C125.95-32.7322 124.904-31.6778 124.739-30.1363ZM115.982-7.71712C113.163-3.93289 109.785-0.546266 105.916 2.35334C104.701 3.24246 104.379 4.78391 105.107 6.08411L112.729 19.0933C113.623 20.7196 115.401 21.1172 116.857 20.0628C123.514 15.4968 129.211 9.72008 133.781 3.13913C134.751 1.68258 134.348-0.0956413 132.807-0.984753L119.713-8.52581C118.328-9.3345 116.871-8.9324 115.982-7.71712ZM97.1819 7.31242C92.9955 9.16657 88.4071 10.4578 83.5774 11.0207C82.0405 11.1861 80.986 12.4058 80.986 13.8624L80.986 29.0114C80.986 30.7897 82.2817 32.0854 84.0599 31.9245C92.3252 31.2857 100.095 29.1278 107.234 25.6742C108.856 24.946 109.343 23.1677 108.449 21.6263L100.828 8.5322C100.099 7.2365 98.558 6.74948 97.1819 7.31242ZM73.3106 11.0207C68.5614 10.5427 64.0578 9.25149 59.7866 7.39734C58.4105 6.74948 56.869 7.2365 56.1452 8.5322L48.6042 21.6263C47.7106 23.1677 48.1976 24.946 49.8195 25.6742C56.789 29.0429 64.5673 31.2007 72.7432 31.9245C74.5259 32.0049 75.9065 30.7092 75.9065 28.9265L75.9065 13.8624C75.9065 12.4058 74.8521 11.1861 73.3106 11.0207ZM50.9719 2.35334C47.1876-0.465846 43.8055-3.85247 40.9863-7.6322C40.0972-8.84749 38.6407-9.25408 37.26-8.44539L24.2509-0.984753C22.7139-0.0956413 22.2224 1.68258 23.1964 3.13913C27.7624 9.71559 33.5436 15.4119 40.1156 20.0628C41.5722 21.1172 43.3504 20.7151 44.244 19.0888L51.785 6.08411C52.5133 4.7884 52.1871 3.24246 50.9719 2.35334ZM35.8574-16.4469C34.0033-20.7182 32.797-25.3066 32.234-30.1363C32.0687-31.6778 30.8489-32.7322 29.3924-32.7322L14.3327-32.7322C12.55-32.7322 11.2543-31.4365 11.4151-29.6538C12.054-21.3975 14.2164-13.6192 17.5805-6.48431C18.3088-4.86243 20.1809-4.295 21.7179-5.18411L34.7225-12.8011C36.1032-13.6143 36.5053-15.0708 35.8574-16.4469ZM32.1491-40.3182C32.6271-45.1524 33.9183-49.6559 35.8574-53.9271C36.4203-55.3032 36.0182-56.7598 34.6376-57.573L21.633-65.1095C20.096-65.9987 18.3133-65.4312 17.585-63.8093C14.3013-56.7593 12.1389-49.0615 11.4151-40.8856C11.3347-39.1029 12.6349-37.7223 14.4131-37.7223L29.3924-37.7223C30.9338-37.7223 31.9838-38.7767 32.1491-40.3182ZM40.9014-62.7419C43.7206-66.5261 47.1072-69.9082 50.8869-72.8123C52.1871-73.7014 52.5133-75.2429 51.785-76.5386L44.2485-89.5478C43.3549-91.0892 41.5767-91.4913 40.1201-90.5218C33.4587-85.9558 27.7624-80.0897 23.1919-73.5132C22.2224-72.0567 22.629-70.2784 24.166-69.3893L37.1706-61.8483C38.4663-61.0351 40.0123-61.4462 40.9014-62.7419ZM59.7062-77.7759C63.9729-79.6256 68.5659-80.9168 73.3106-81.4797C74.8521-81.645 75.9065-82.8648 75.9065-84.3214L75.9065-99.3855C75.9065-101.168 74.6108-102.459 72.8281-102.299C64.5673-101.66 56.789-99.5019 49.7391-96.0483C48.1172-95.32 47.6302-93.5418 48.5238-92.0003L56.0648-78.9063C56.7886-77.6106 58.2451-77.2085 59.7062-77.7759ZM63.4059-8.21356C64.2901-8.21356 64.9645-8.79852 64.9645-9.7676L64.9645-55.7247L65.456-55.7247L90.5039-9.85701C91.2007-8.63318 92.1163-8.21356 92.978-8.21356C94.2059-8.21356 95.1395-8.90994 95.1395-10.2991L95.1395-60.079C95.1395-60.9587 94.5455-61.6376 93.5764-61.6376C92.6923-61.6376 92.0983-60.9587 92.0983-60.079L92.0983-13.9656L91.6113-13.9656L66.4785-59.9986C65.7772-61.1285 64.951-61.6376 64.0044-61.6376C62.8255-61.6376 61.9278-60.9097 61.9278-59.552L61.9278-9.7676C61.9278-8.79852 62.6022-8.21356 63.4059-8.21356ZM57.1386-34.6708C57.1386-34.0679 57.6791-33.5319 58.282-33.5319L98.7808-33.5319C99.2988-33.5319 99.8348-34.0679 99.8348-34.6708C99.8348-35.2782 99.2988-35.8142 98.7808-35.8142L58.282-35.8142C57.6791-35.8142 57.1386-35.2782 57.1386-34.6708Z"/>
</svg>