<svg xmlns="http://www.w3.org/2000/svg" viewBox="11.2588 -96.0928 121.64 121.65">
  <path d="M72.0819 25.5534C105.487 25.5534 132.9-1.86039 132.9-35.2697C132.9-68.679 105.487-96.0928 72.0819-96.0928C38.6726-96.0928 11.2588-68.679 11.2588-35.2697C11.2588-1.86039 38.6726 25.5534 72.0819 25.5534ZM73.954 6.00818C72.3775 6.00818 71.5913 4.98563 70.7246 2.39916L62.5299-24.2135C62.2306-25.1601 62.5658-26.2815 63.2447-26.9514L101.78-66.5849C102.008-66.8082 102.262-67.2863 102.034-67.4336C101.717-67.5855 101.409-67.4916 101.101-67.2638L61.4583-28.8271C60.7885-28.1528 59.5867-27.8086 58.716-28.1033L32.1437-36.1997C29.5483-37.0753 28.5077-37.8571 28.5077-39.4381C28.5077-40.9746 29.4678-41.8812 31.5853-42.7524L100.083-68.9477C100.739-69.1665 101.248-69.3138 101.766-69.3138C103.066-69.3138 103.83-68.5501 103.83-67.2458C103.83-66.6474 103.682-66.2233 103.464-65.5624L77.2548 2.95312C76.4016 5.0391 75.495 6.00818 73.954 6.00818Z"/>
</svg>