<svg xmlns="http://www.w3.org/2000/svg" viewBox="16.084 -90.1642 109.78 109.78">
  <path d="M32.0058 19.6158L109.947 19.6158C120.302 19.6158 125.868 13.8795 125.868 3.6805L125.868-74.2289C125.868-84.4278 120.302-90.1642 109.947-90.1642L32.0058-90.1642C21.646-90.1642 16.084-84.5977 16.084-74.2289L16.084 3.6805C16.084 14.0493 21.646 19.6158 32.0058 19.6158ZM32.1666 17.0405C23.2346 17.0405 18.6637 12.4606 18.6637 3.54212L18.6637-74.0905C18.6637-83.0045 23.2346-87.5889 32.1666-87.5889L109.786-87.5889C118.378-87.5889 123.289-83.0045 123.289-74.0905L123.289 3.54212C123.289 12.4606 118.378 17.0405 109.786 17.0405ZM57.3785-7.08274C58.1863-7.08274 58.7533-7.71218 58.7533-8.42159L58.7533-29.6372L74.8251-29.6372C84.3003-29.6372 91.3009-36.6737 91.3009-46.1893C91.3009-55.7139 84.2199-62.7369 74.8251-62.7369L57.2132-62.7369C56.4858-62.7369 55.9992-62.2059 55.9992-61.4026L55.9992-8.42159C55.9992-7.70319 56.6556-7.08274 57.3785-7.08274ZM58.7533-32.468L58.7533-59.9955L75.1787-59.9955C82.8366-59.9955 88.5333-54.1154 88.5333-46.1893C88.5333-38.3481 82.7472-32.468 75.1787-32.468Z" />
</svg>