<svg xmlns="http://www.w3.org/2000/svg" viewBox="11.2588 -96.0928 121.64 121.65">
  <path d="M72.0819 25.5534C105.657 25.5534 132.9-1.69505 132.9-35.2697C132.9-68.8443 105.657-96.0928 72.0819-96.0928C38.5027-96.0928 11.2588-68.8443 11.2588-35.2697C11.2588-1.69505 38.5027 25.5534 72.0819 25.5534ZM72.0819 23.0096C39.8281 23.0096 13.7132-3.01593 13.7132-35.2697C13.7132-67.5235 39.8281-93.549 72.0819-93.549C104.336-93.549 130.361-67.5235 130.361-35.2697C130.361-3.01593 104.336 23.0096 72.0819 23.0096ZM43.6977-7.83752L100.806-7.83752C105.948-7.83752 108.637-10.4554 108.637-15.5929L108.637-39.9655C108.637-52.0909 102.427-57.5591 91.6113-57.5591L87.7233-57.5591L87.7233-60.5171C87.7233-64.4033 84.6004-67.3029 80.2717-67.3029L64.2272-67.3029C59.885-67.3029 56.7801-64.4033 56.7801-60.5171L56.7801-57.5591L52.8921-57.5591C42.0762-57.5591 35.8619-52.0909 35.8619-39.9655L35.8619-15.5929C35.8619-10.4554 38.5557-7.83752 43.6977-7.83752ZM59.8576-57.5591L59.8576-60.6644C59.8576-62.657 61.6448-64.2833 63.8921-64.2833L81.4515-64.2833C83.1937-64.2833 84.6413-62.657 84.6413-60.6644L84.6413-57.5591ZM57.0034-34.443C57.0034-37.508 58.357-39.5809 60.4569-39.5809C62.5523-39.5809 63.9864-37.508 63.9864-34.443C63.9864-31.2977 62.5523-29.2202 60.4569-29.2202C58.357-29.2202 57.0034-31.2977 57.0034-34.443ZM64.0668-42.7887C64.0668-46.0235 65.416-48.016 67.6008-48.016C69.6962-48.016 71.0499-46.0235 71.0499-42.7887C71.0499-39.6389 69.6962-37.5614 67.6008-37.5614C65.416-37.5614 64.0668-39.6389 64.0668-42.7887ZM73.4535-42.7887C73.4535-46.0235 74.8027-48.016 76.9875-48.016C79.0829-48.016 80.5215-46.0235 80.5215-42.7887C80.5215-39.6389 79.0829-37.5614 76.9875-37.5614C74.8027-37.5614 73.4535-39.6389 73.4535-42.7887ZM80.6019-34.443C80.6019-37.508 81.9466-39.5809 84.1314-39.5809C86.1374-39.5809 87.4955-37.508 87.4955-34.443C87.4955-31.2977 86.1374-29.2202 84.1314-29.2202C81.9466-29.2202 80.6019-31.2977 80.6019-34.443ZM60.9929-22.1833C60.9929-25.0159 62.6907-26.4725 64.3081-27.8441C65.1078-28.5769 65.8316-29.1353 66.3051-29.9305C66.5374-30.4041 66.8546-30.958 67.1763-31.6818C68.0474-33.7592 69.1957-36.6144 72.2517-36.6144C75.2227-36.6144 76.3666-33.8442 77.4076-31.6818C77.6398-30.8731 77.966-30.2387 78.2787-29.7607C78.6673-29.0504 79.3911-28.5769 80.1908-27.8441C81.8082-26.4725 83.506-25.0159 83.506-22.1833C83.506-19.467 81.3346-17.4655 78.5244-17.4655C76.9965-17.4655 75.951-17.872 74.9055-18.3635C74.0209-18.6852 73.2971-19.1008 72.2517-19.1008C71.2062-19.1008 70.4825-18.6852 69.5978-18.3635C68.5524-17.872 67.5069-17.4655 66.0594-17.4655C63.0838-17.4655 60.9929-19.467 60.9929-22.1833Z" />
</svg>