<svg xmlns="http://www.w3.org/2000/svg" viewBox="16.084 -91.924 132.1 120.72">
  <path d="M46.6099 28.7962C47.4716 28.7962 48.2978 28.2827 48.9582 27.6937L71.8869 8.32194L126.098 8.32194C139.428 8.32194 148.189-0.595238 148.189-13.7733L148.189-69.8332C148.189-83.0113 139.428-91.924 126.098-91.924L38.1748-91.924C24.8448-91.924 16.084-83.1811 16.084-69.8332L16.084-13.7733C16.084-0.425413 24.8448 8.32194 38.1748 8.32194L44.5023 8.32194L44.5023 26.4834C44.5023 27.939 45.4759 28.7962 46.6099 28.7962ZM67.1003-26.8786C56.5653-37.4136 48.6842-49.7983 48.6842-60.0116C48.6842-64.5152 50.2926-68.5361 53.2681-71.5207C55.359-73.3613 58.2541-75.3808 60.5818-75.3808C62.5968-75.3808 63.8835-73.9333 65.5723-71.5207L71.6038-62.9023C72.9665-61.0571 73.4535-59.5246 73.4535-58.162C73.4535-57.0451 73.1273-56.0711 72.2517-54.6325L68.9545-48.9272C68.6283-48.4446 68.3915-48.0425 68.3915-47.5555C68.3915-46.9971 68.5434-46.4341 68.7936-46.032C70.2412-43.034 72.8101-39.8397 76.1923-36.4621C79.6503-32.8252 83.4301-30.024 86.1598-28.7373C86.8881-28.3262 87.3706-28.2548 88.014-28.2548C88.4965-28.2548 88.8182-28.4156 89.4616-28.7373L95.1669-31.8736C96.9271-32.7448 97.9816-32.9905 99.1119-32.9905C100.394-32.9905 101.274-32.7493 103.531-31.1409L112.301-24.8681C114.624-23.1793 115.594-21.7273 115.594-20.2797C115.594-18.2692 114.704-16.1828 112.055-13.2072C109.321-10.3211 105.219-8.21671 100.39-8.21671C90.3462-8.21671 77.6353-16.3436 67.1003-26.8786Z"/>
</svg>