<svg xmlns="http://www.w3.org/2000/svg" viewBox="11.2588 -103.035 108.99 135.53">
  <path d="M11.2588-35.2697C11.2588-14.3565 15.9411 12.0028 29.0716 24.8206C33.9547 29.6189 39.8564 32.496 47.277 32.496C51.9544 32.496 57.3057 31.1603 60.4385 28.6956C62.8965 26.3275 62.6507 22.9269 61.8151 17.9265L58.9334 0.895907C57.9774-4.93431 55.6497-8.33891 49.8015-9.85341L39.1281-12.5607C37.3054-13.0388 36.242-13.8519 35.7105-15.5583C34.0307-20.7991 33.0701-27.7057 33.155-35.2697C33.0701-42.8337 34.0307-49.7403 35.7105-54.9811C36.242-56.6875 37.3054-57.5006 39.1281-57.9787L49.8015-60.686C55.6497-62.2005 57.9774-65.6051 58.9334-71.4353L61.8151-88.4659C62.6507-93.4663 62.8965-96.8669 60.4385-99.235C57.3057-101.7 51.9544-103.035 47.277-103.035C39.8564-103.035 33.9547-100.158 29.0716-95.36C15.9411-82.5422 11.2588-56.1829 11.2588-35.2697ZM90.9981-5.9973C91.2569-5.9973 91.6095-6.13567 91.8908-6.42141L119.936-34.4664C120.119-34.7387 120.253-34.9125 120.253-35.2697C120.253-35.542 120.119-35.8007 119.936-36.073L91.8908-64.118C91.6095-64.4037 91.2569-64.5421 90.9981-64.5421C90.2213-64.5421 89.6588-63.9751 89.6588-63.2028C89.6588-62.8636 89.7122-62.5109 89.998-62.2297L102-50.3168L117.172-35.2697L102-20.2226L89.998-8.30972C89.7122-8.02847 89.6588-7.67579 89.6588-7.33659C89.6588-6.56428 90.2213-5.9973 90.9981-5.9973ZM61.3784-35.2697C61.3784-34.4839 62.0348-33.9439 62.6997-33.9439L111.095-33.9439L116.614-33.8945C117.333-33.8855 117.99-34.4659 117.99-35.2697C117.99-36.0735 117.333-36.6539 116.614-36.6449L111.095-36.5955L62.6997-36.5955C62.0348-36.5955 61.3784-36.0555 61.3784-35.2697Z" />
</svg>