<svg xmlns="http://www.w3.org/2000/svg" viewBox="14.4756 -95.0177 116.47 115.09">
  <path d="M97.6671 20.0704C105.516 20.0704 113.093 17.5195 119.277 11.4794C119.33 11.3411 119.384 11.2921 119.522 11.1582C123.302 7.49034 125.156 3.73307 125.156 0.221546C125.156-2.65515 123.789-5.53185 120.475-7.67579L105.83-17.6789C102.207-20.1135 98.2799-20.6185 93.9646-18.5815L83.7243-13.7518C81.1864-12.6124 79.1534-12.5275 76.4412-14.0779C73.4522-15.7623 68.516-19.1615 61.1969-26.7353C53.708-34.479 49.3877-40.1888 47.9806-42.9496C46.8323-45.1703 46.8278-46.6359 47.9537-48.4096L54.097-58.1094C56.5051-61.9696 56.1965-65.3867 54.2668-68.1695L42.2308-86.0183C40.0869-89.3326 37.1118-90.6188 34.3245-90.6143C30.8979-90.6099 27.0557-88.7602 23.3878-85.0654C23.2539-84.9225 23.1156-84.7841 23.0666-84.6457C17.107-78.7216 14.4756-71.0548 14.4756-63.4607C14.4756-46.3942 26.6864-26.3301 43.8639-9.32236C60.8806 7.60941 80.6005 20.0704 97.6671 20.0704ZM97.6626 17.4503C81.6635 17.4323 62.7073 5.73143 45.7832-11.1972C28.6893-28.2956 17.1137-47.3722 17.0913-63.4562C17.0823-70.8014 19.4949-77.4407 24.9145-82.9008C25.0573-83.0481 25.2047-83.2 25.3521-83.3473C28.5738-86.587 31.7821-88.1555 34.32-88.1555C36.5987-88.1555 38.4663-86.8328 40.0972-84.4692L52.2096-66.6469C53.5947-64.605 53.6841-62.3842 51.9728-59.5246L45.4409-49.3023C44.1681-47.2882 44.2215-44.7687 45.4049-42.2761C47.0529-38.8275 51.5739-32.8589 59.2282-24.9409C66.8869-17.1123 72.0998-13.5348 75.7587-11.5112C78.2513-10.0641 81.5395-9.93023 83.723-10.9483L94.9373-16.2695C98.5522-17.9138 101.26-17.5921 104.213-15.6171L119.015-5.55566C121.379-4.00522 122.701-2.05267 122.701 0.226038C122.701 2.93381 121.218 5.97224 117.808 9.27889C117.661 9.42176 117.594 9.48421 117.442 9.63157C111.897 15.1316 105.178 17.4593 97.6626 17.4503ZM76.5755-40.6444C79.6135-37.6109 84.653-37.6109 87.7714-40.7293C90.8049-43.7628 90.8049-48.7218 87.7714-51.7598C84.653-54.8737 79.6135-54.8737 76.5755-51.8403C73.4571-48.7218 73.4571-43.7628 76.5755-40.6444ZM82.7678-70.0538C82.2992-69.5852 82.2992-68.7729 82.7678-68.3043L104.151-46.8367C104.709-46.2832 105.516-46.2832 105.989-46.8367C106.458-47.3053 106.458-48.1176 105.989-48.5862L84.6022-70.0538C84.0487-70.6073 83.2409-70.6073 82.7678-70.0538ZM101.071-65.1396C104.1-62.0972 109.144-62.1017 112.267-65.2201C115.305-68.2581 115.305-73.1277 112.267-76.1657C109.144-79.2886 104.104-79.2886 101.071-76.2461C97.9524-73.1277 97.9524-68.1686 101.071-65.1396ZM107.259-94.5491C106.705-93.9956 106.705-93.2682 107.259-92.7996L128.646-71.332C129.199-70.774 130.007-70.774 130.391-71.332C130.944-71.8006 130.944-72.528 130.391-73.0815L109.008-94.5491C108.54-95.0177 107.732-95.0177 107.259-94.5491Z"/>
</svg>