<svg xmlns="http://www.w3.org/2000/svg" viewBox="16.084 -94.5257 110.86 118.51">
  <path d="M16.084-63.2648C16.084-62.5729 16.7224-61.9345 17.4143-61.9345L32.6056-61.9345L32.6056-46.7432C32.6056-46.0558 33.1546-45.4129 33.9359-45.4129C34.6233-45.4129 35.2662-46.0514 35.2662-46.7432L35.2662-61.9345L50.453-61.9345C51.1448-61.9345 51.7833-62.5729 51.7833-63.2648C51.7833-64.0416 51.1448-64.5951 50.453-64.5951L35.2662-64.5951L35.2662-79.7819C35.2662-80.4738 34.6278-81.1122 33.9359-81.1122C33.1591-81.1122 32.6056-80.4738 32.6056-79.7819L32.6056-64.5951L17.4143-64.5951C16.7224-64.5951 16.084-64.0416 16.084-63.2648ZM72.2054-34.5019L107.599-91.8871C107.969-92.4096 108.117-92.7668 108.117-93.1954C108.117-93.8828 107.581-94.5257 106.724-94.5257C106.014-94.5257 105.751-94.231 105.184-93.3738L69.1647-34.8442L34.7189 21.2673C34.3483 21.7898 34.2054 22.2319 34.2054 22.7409C34.2054 23.4148 34.8259 23.9818 35.5802 23.9818C36.2141 23.9818 36.5623 23.6961 37.1383 22.9103ZM91.3256 0.665865C91.3256 1.44715 91.8791 2.00066 92.6604 2.00066L125.61 2.00066C126.386 2.00066 126.94 1.44715 126.94 0.665865C126.94-0.02602 126.386-0.66444 125.61-0.66444L92.6604-0.66444C91.8791-0.66444 91.3256-0.02602 91.3256 0.665865Z"/>
</svg>