<svg xmlns="http://www.w3.org/2000/svg" viewBox="11.2588 -96.0928 121.64 121.65">
  <path d="M72.0819 25.5534C105.657 25.5534 132.9-1.69505 132.9-35.2697C132.9-68.8443 105.657-96.0928 72.0819-96.0928C38.5027-96.0928 11.2588-68.8443 11.2588-35.2697C11.2588-1.69505 38.5027 25.5534 72.0819 25.5534ZM72.0819 23.0096C39.8281 23.0096 13.7132-3.01593 13.7132-35.2697C13.7132-67.5235 39.8281-93.549 72.0819-93.549C104.336-93.549 130.361-67.5235 130.361-35.2697C130.361-3.01593 104.336 23.0096 72.0819 23.0096ZM51.8565-8.16325L73.2531-8.16325C73.914-8.16325 74.6018-8.77067 74.6018-9.52096C74.6018-10.2757 73.914-10.9681 73.2531-10.9681L54.0489-10.9681L54.0489-11.2628L73.7621-44.2421C74.2267-45.0194 74.5349-45.5599 74.5349-46.3326C74.5349-46.9041 74.0883-48.0879 72.7126-48.0879L51.5348-48.0879C50.7845-48.0879 50.1816-47.3911 50.1816-46.7257C50.1816-45.9754 50.7845-45.2831 51.5348-45.2831L70.7165-45.2831L70.7165-44.9839L50.7086-11.7098C50.4943-11.1783 50.1816-10.459 50.1816-9.92755C50.1816-8.85109 50.78-8.16325 51.8565-8.16325ZM86.5485-7.52438C87.607-7.52438 88.116-8.11832 88.116-9.24825L88.116-62.904C88.116-64.034 87.607-64.6279 86.5485-64.6279C85.4945-64.6279 84.896-64.034 84.896-62.8996L84.896-9.24825C84.896-8.11832 85.4945-7.52438 86.5485-7.52438ZM80.0744-34.2121L94.3622-42.6162C94.7863-42.9109 95.0096-43.3575 95.0096-43.8935C95.0096-44.885 94.112-45.7962 92.8882-45.1888L78.7033-36.7981C78.1003-36.414 77.8815-35.9674 77.8815-35.5208C77.8815-34.4444 78.9535-33.5288 80.0744-34.2121Z" />
</svg>