<svg xmlns="http://www.w3.org/2000/svg" viewBox="16.084 -89.9943 114.67 109.78">
  <path d="M32.0058 19.7856L114.915 19.7856C125.27 19.7856 130.752 14.0493 130.752 3.85032L130.752-74.0591C130.752-84.258 125.27-89.9943 114.915-89.9943L32.0058-89.9943C21.646-89.9943 16.084-84.4278 16.084-74.0591L16.084 3.85032C16.084 14.2191 21.646 19.7856 32.0058 19.7856ZM32.1666 17.2104C23.2346 17.2104 18.6637 12.626 18.6637 3.71194L18.6637-73.9207C18.6637-82.8392 23.2346-87.4191 32.1666-87.4191L114.754-87.4191C123.262-87.4191 128.257-82.8392 128.257-73.9207L128.257 3.71194C128.257 12.626 123.262 17.2104 114.754 17.2104ZM71.7027-41.2918L75.1378-41.2918C76.8801-41.2918 78.1578-42.5695 78.1578-44.3118L78.1578-66.1649C78.1578-67.9072 76.8801-69.1849 75.1378-69.1849L71.7027-69.1849C70.0408-69.1849 68.7631-67.9072 68.7631-66.1649L68.7631-44.3118C68.7631-42.5695 70.0408-41.2918 71.7027-41.2918ZM38.2907-4.57131L59.7601-4.57131C61.5024-4.57131 62.7801-5.84904 62.7801-7.59132L62.7801-10.8566C62.7801-12.6883 61.5024-13.9661 59.7601-13.9661L38.2907-13.9661C36.5439-13.9661 35.1813-12.6034 35.1813-10.8566L35.1813-7.59132C35.1813-5.84904 36.459-4.57131 38.2907-4.57131ZM87.0759-4.57131L108.63-4.57131C110.462-4.57131 111.74-5.84904 111.74-7.59132L111.74-10.8566C111.74-12.6034 110.377-13.9661 108.63-13.9661L87.0759-13.9661C85.3336-13.9661 84.0559-12.6883 84.0559-10.8566L84.0559-7.59132C84.0559-5.84904 85.3336-4.57131 87.0759-4.57131Z"/>
</svg>