<svg xmlns="http://www.w3.org/2000/svg" viewBox="16.084 -90.1642 109.78 109.78">
  <path d="M48.8684-7.19955C46.2774-7.19955 44.5621-8.82996 44.5621-11.4254L44.5621-59.123C44.5621-61.7184 46.2774-63.3488 48.8684-63.3488L94.8582-63.3488C97.3688-63.3488 99.0841-61.7184 99.0841-59.123L99.0841-11.4254C99.0841-8.82996 97.3688-7.19955 94.8582-7.19955ZM55.3298-39.3491L56.5491-38.2147C57.2504-37.6073 57.8444-37.6073 58.4563-38.2147L66.6722-46.2652C67.1947-46.7967 67.3645-47.7258 66.7571-48.2528L65.2785-49.3827C64.6666-49.8293 64.0727-50.0036 63.4608-49.3872L55.3298-41.2608C54.8028-40.7293 54.7179-39.8761 55.3298-39.3491ZM87.097-38.2147L88.4862-39.3491C89.0981-39.8761 89.0132-40.6444 88.4013-41.2608L80.2703-49.4721C79.7388-50.0036 78.9796-50.169 78.4481-49.5526L76.974-48.2528C76.447-47.7258 76.3621-46.8816 76.974-46.2652L85.2748-38.2147C85.8018-37.6922 86.4806-37.6073 87.097-38.2147ZM70.903-18.9238L72.7432-18.9238C73.5874-18.9238 74.1144-19.4643 74.1144-20.304L74.1144-32.318C74.1144-32.9833 73.5025-33.6892 72.7432-33.6892L70.903-33.6892C70.2286-33.6892 69.6122-32.9833 69.6122-32.318L69.6122-20.304C69.6122-19.4598 70.1437-18.9238 70.903-18.9238ZM32.0058 19.6158L109.947 19.6158C120.302 19.6158 125.868 13.8795 125.868 3.6805L125.868-74.2289C125.868-84.4278 120.302-90.1642 109.947-90.1642L32.0058-90.1642C21.646-90.1642 16.084-84.5977 16.084-74.2289L16.084 3.6805C16.084 14.0493 21.646 19.6158 32.0058 19.6158Z"/>
</svg>