<svg xmlns="http://www.w3.org/2000/svg" viewBox="16.084 -91.924 132.1 120.72">
  <path d="M46.6099 28.7962C47.4716 28.7962 48.2978 28.2827 48.9582 27.6937L71.8869 8.32194L126.098 8.32194C139.428 8.32194 148.189-0.595238 148.189-13.7733L148.189-69.8332C148.189-83.0113 139.428-91.924 126.098-91.924L38.1748-91.924C24.8448-91.924 16.084-83.1811 16.084-69.8332L16.084-13.7733C16.084-0.425413 24.8448 8.32194 38.1748 8.32194L44.5023 8.32194L44.5023 26.4834C44.5023 27.939 45.4759 28.7962 46.6099 28.7962ZM51.6377-47.7384C51.6377-54.6006 57.0748-60.0691 64.2766-60.0691C71.1788-60.0691 77.6573-54.5161 77.6573-45.4107C77.6573-29.8676 64.1288-23.3541 59.416-23.3541C58.0848-23.3541 57.1422-24.2922 57.1422-25.5564C57.1422-26.6508 57.6961-27.2673 59.4204-27.7453C62.4-28.6119 69.2766-32.584 71.5194-39.4336L70.9519-39.4336C69.0933-36.9985 66.2696-35.9171 63.1867-35.9171C56.3914-35.9171 51.6377-40.8537 51.6377-47.7384ZM86.5265-47.7384C86.5265-54.6006 91.968-60.0691 99.1699-60.0691C106.072-60.0691 112.546-54.5161 112.546-45.4107C112.546-29.8676 99.0176-23.3541 94.3047-23.3541C92.9735-23.3541 92.0354-24.2922 92.0354-25.5564C92.0354-26.6508 92.6743-27.2673 94.3137-27.7453C97.3737-28.6119 104.25-32.584 106.408-39.4336L105.841-39.4336C103.982-36.9985 101.158-35.9171 98.08-35.9171C91.2802-35.9171 86.5265-40.8537 86.5265-47.7384Z"/>
</svg>