<svg xmlns="http://www.w3.org/2000/svg" viewBox="11.2588 -96.0928 121.64 121.65">
  <path d="M72.0819 25.5534C105.657 25.5534 132.9-1.69505 132.9-35.2697C132.9-68.8443 105.657-96.0928 72.0819-96.0928C38.5027-96.0928 11.2588-68.8443 11.2588-35.2697C11.2588-1.69505 38.5027 25.5534 72.0819 25.5534ZM72.0819 23.0096C39.8281 23.0096 13.7132-3.01593 13.7132-35.2697C13.7132-67.5235 39.8281-93.549 72.0819-93.549C104.336-93.549 130.361-67.5235 130.361-35.2697C130.361-3.01593 104.336 23.0096 72.0819 23.0096ZM78.5119-64.5866L78.5119-42.6818C78.5119-41.7931 79.0209-41.3645 79.7397-41.3645C80.1998-41.3645 80.6464-41.5164 81.1958-41.905L94.657-52.0105C95.7379-52.8547 95.7379-54.5925 94.657-55.2624L81.1958-65.4528C80.6464-65.8369 80.1998-65.9888 79.7397-65.9888C79.0209-65.9888 78.5119-65.4753 78.5119-64.5866ZM82.4655-51.6803C83.2557-51.6803 83.9881-52.4126 83.9881-53.2878C83.9881-53.9932 83.2557-54.7255 82.4655-54.7255L53.1836-54.7255C43.5831-54.7255 37.1455-48.4128 37.1455-39.0041L37.1455-36.6903C37.1455-35.7302 37.8778-35.0828 38.8379-35.0828C39.7086-35.0828 40.4409-35.7302 40.4409-36.6903L40.4409-39.1204C40.4409-46.6224 45.5702-51.6803 53.309-51.6803ZM66.2552-5.62665L66.2552-27.5314C66.2552-28.4201 65.7417-28.8487 65.0229-28.8487C64.5673-28.8487 64.1207-28.6968 63.5668-28.3082L50.1101-18.2027C49.0247-17.3585 49.0247-15.6207 50.1101-14.9509L63.5668-4.76044C64.1207-4.37631 64.5673-4.22446 65.0229-4.22446C65.7417-4.22446 66.2552-4.73798 66.2552-5.62665ZM62.3016-18.5329C61.5114-18.5329 60.864-17.8006 60.864-16.9254C60.864-16.2201 61.5114-15.4877 62.3016-15.4877L91.5835-15.4877C101.184-15.4877 107.622-21.8005 107.622-31.2092L107.622-33.5229C107.622-34.483 106.889-35.1304 106.014-35.1304C105.059-35.1304 104.326-34.483 104.326-33.5229L104.326-31.0928C104.326-23.5908 99.1924-18.5329 91.543-18.5329Z" />
</svg>