<svg xmlns="http://www.w3.org/2000/svg" viewBox="11.2588 -96.0124 121.64 121.65">
  <path d="M72.0819 25.6338C105.487 25.6338 132.9-1.77997 132.9-35.1893C132.9-68.5986 105.487-96.0124 72.0819-96.0124C38.6726-96.0124 11.2588-68.5986 11.2588-35.1893C11.2588-1.77997 38.6726 25.6338 72.0819 25.6338ZM59.367-24.7068C44.4713-26.3512 35.5627-30.6229 35.5627-35.3591C35.6476-53.7218 49.6231-69.0865 67.3694-71.4182C62.4768-65.9951 58.9514-52.462 58.9514-35.1893C58.9514-31.4985 59.1167-27.9776 59.367-24.7068ZM61.4476-24.555C61.1973-27.8212 61.0275-31.4226 61.0275-35.1893C61.0275-57.2913 66.2957-71.5386 72.1713-71.7085C92.1554-71.7085 108.601-55.2583 108.601-35.2742C108.431-29.3986 94.1839-24.1349 72.0819-24.1349C68.3107-24.1349 64.7138-24.3003 61.4476-24.555ZM59.5993-22.7022C60.8235-11.4474 63.6876-2.98537 67.3694 1.03967C51.0033-1.15368 38.0463-14.1107 35.8529-30.4768C39.878-26.7906 48.3445-23.9264 59.5993-22.7022ZM61.5994-22.4699C64.8701-22.2197 68.3911-22.0543 72.0819-22.0543C89.3546-22.0543 102.888-25.5843 108.306-30.4768C105.979-12.7306 90.6099 1.24499 72.2517 1.3299C67.5155 1.3299 63.2438-7.57425 61.5994-22.4699Z"/>
</svg>