<svg xmlns="http://www.w3.org/2000/svg" viewBox="16.084 -85.8166 134.33 101.09">
  <path d="M60.6784-85.8166C28.2885-85.8166 16.084-70.296 16.084-41.0249L16.084 0.0836154C16.084 9.87598 21.4807 15.2771 31.2595 15.2771L135.237 15.2771C145.021 15.2771 150.413 9.70616 150.413 0.0836154L150.413-41.0249C150.413-70.296 138.208-85.8166 105.733-85.8166ZM60.9332-83.2413L105.564-83.2413C136.521-83.2413 147.837-68.573 147.837-40.7252L147.837-0.0502689C147.837 8.36327 143.258 12.7019 135.081 12.7019L31.4159 12.7019C22.904 12.7019 18.6637 8.36327 18.6637-0.0502689L18.6637-40.7252C18.6637-68.573 29.8906-83.2413 60.9332-83.2413ZM55.944-9.49534C56.8726-9.49534 57.529-10.2232 57.529-11.1428L57.529-32.1612L67.6812-32.1612L77.1092-10.4415C77.4799-9.74065 77.8995-9.49534 78.6763-9.49534C79.7348-9.49534 80.2748-10.2681 80.2748-10.9955C80.2748-11.2902 80.2124-11.6339 80.083-11.7943L70.7889-33.0633C75.9402-34.5998 79.8233-39.1254 79.8233-46.8106C79.8233-55.2183 74.9986-61.031 66.1348-61.031L55.8636-61.031C54.7786-61.031 54.2875-60.3791 54.2875-59.3746L54.2875-11.1428C54.2875-10.2187 54.9484-9.49534 55.944-9.49534ZM57.529-35.2248L57.529-57.9989L65.7597-57.9989C72.2162-57.9989 76.5908-54.2102 76.5908-46.7347C76.5908-40.0369 73.1368-35.2248 65.8446-35.2248ZM100.607-9.14671C101.469-9.14671 102.188-9.86555 102.188-10.7228L102.188-57.6727L111.973-57.6727C112.862-57.6727 113.522-58.3336 113.522-59.2178C113.522-60.0215 112.862-60.6824 111.973-60.6824L87.713-60.6824C86.8288-60.6824 86.1679-60.0215 86.1679-59.2178C86.1679-58.3336 86.8288-57.6727 87.713-57.6727L99.0311-57.6727L99.0311-10.7228C99.0311-9.86555 99.665-9.14671 100.607-9.14671Z"/>
</svg>