<svg xmlns="http://www.w3.org/2000/svg" viewBox="4.09826 -94.0378 114.54 121.18">
  <path d="M16.084-71.6662L16.084-20.2658C16.084-1.44436 26.5067 3.92491 60.3585 25.6747C61.368 26.2152 62.9809 27.1402 64.4555 27.1402C65.9345 27.1402 67.5473 26.2196 68.5524 25.6747C80.0978 18.4629 88.9265 13.0923 95.5434 8.21323ZM105.977-0.70172C110.959-6.31764 112.831-12.0629 112.831-20.2658L112.831-67.5347C112.831-74.5627 111.219-76.9129 104.36-79.5132C91.9829-84.2005 81.296-88.7741 68.914-93.0683C67.3101-93.6312 65.97-94.0378 64.4555-94.0378C62.9454-94.0378 61.6053-93.6357 60.0014-93.0683C48.544-88.6488 37.8225-84.6147 26.7691-80.4194ZM116.045 20.7003C116.518 21.2583 117.339 21.1734 117.901 20.7003C118.634 20.2272 118.459 19.3166 117.901 18.8435L6.59803-92.5494C6.20986-92.9375 5.38858-92.9375 4.74567-92.5494C4.09826-92.0718 4.18318-91.1701 4.74567-90.6076Z"/>
</svg>