<svg xmlns="http://www.w3.org/2000/svg" viewBox="16.084 -95.6943 115.99 120.85">
  <path d="M25.6571-30.546L103.207-30.6264C107.29-30.6264 109.689-31.8013 112.048-33.8248L127.309-47.6786C131.915-51.7926 132.071-57.5424 127.229-61.8932L112.048-75.5817C109.689-77.6856 107.29-78.8605 103.203-78.8605L25.6571-78.8605C19.7114-78.8605 16.084-75.3134 16.084-69.5286L16.084-39.9628C16.084-34.093 19.7114-30.546 25.6571-30.546ZM25.6391-33.2107C21.2241-33.2107 18.6458-35.6997 18.6458-39.9403L18.6458-69.5511C18.6458-73.7917 21.2241-76.2807 25.6391-76.2807L103.14-76.2807C106.326-76.2807 107.809-75.8027 109.963-73.9036L126.391-59.2097C129.027-56.9085 129.027-52.9181 126.221-50.2727L109.963-35.5878C107.899-33.6887 106.326-33.2107 103.23-33.2107ZM68.5578-77.9381L71.0481-77.9381L71.0481-94.4089C71.0481-95.1632 70.5171-95.6943 69.8431-95.6943C69.0888-95.6943 68.5578-95.1632 68.5578-94.4089ZM68.5578-32.0241L68.5578 23.4656L71.0481 23.4656L71.0481-32.0241ZM47.0955 23.8695C47.0955 24.6238 47.6311 25.1549 48.3005 25.1549L91.3858 25.1549C92.0552 25.1549 92.6712 24.6238 92.6712 23.8695C92.6712 23.1956 92.0552 22.6645 91.3858 22.6645L48.3005 22.6645C47.6311 22.6645 47.0955 23.1956 47.0955 23.8695Z"/>
</svg>