<svg xmlns="http://www.w3.org/2000/svg" viewBox="11.2588 -96.0928 121.64 121.65">
  <path d="M72.0819 25.5534C105.657 25.5534 132.9-1.69505 132.9-35.2697C132.9-68.8443 105.657-96.0928 72.0819-96.0928C38.5027-96.0928 11.2588-68.8443 11.2588-35.2697C11.2588-1.69505 38.5027 25.5534 72.0819 25.5534ZM72.0819 23.0096C39.8281 23.0096 13.7132-3.01593 13.7132-35.2697C13.7132-67.5235 39.8281-93.549 72.0819-93.549C104.336-93.549 130.361-67.5235 130.361-35.2697C130.361-3.01593 104.336 23.0096 72.0819 23.0096ZM60.8765-44.8491L70.6038-44.8491L70.6038-37.8966L50.4615-37.8966C48.6967-37.8966 47.5799-37.3292 46.5434-36.458L39.8281-30.2477C37.7596-28.4295 37.6747-25.914 39.9175-23.8366L46.5434-17.8765C47.5799-16.8401 48.6923-16.3575 50.4615-16.3575L70.6038-16.3575L70.6038 2.17766L57.48 2.17766C56.6628 2.17766 55.9929 2.75812 55.9929 3.57086C55.9929 4.38809 56.6628 4.96855 57.48 4.96855L86.6078 4.96855C87.3356 4.96855 88.001 4.38809 88.001 3.57086C88.001 2.75812 87.3356 2.17766 86.6078 2.17766L73.4796 2.17766L73.4796-16.3575L83.1219-16.3575C85.7622-16.3575 87.4511-17.9659 87.4511-20.6018L87.4511-33.6523C87.4511-36.2882 85.7622-37.8966 83.1219-37.8966L73.4796-37.8966L73.4796-44.8491L93.452-44.8491C95.2212-44.8491 96.3336-45.4165 97.3701-46.3681L104.076-52.498C106.154-54.3207 106.239-56.8362 103.996-58.9091L97.3701-64.9496C96.3336-65.9056 95.2167-66.3882 93.452-66.3882L73.4796-66.3882L73.4796-75.2177C73.4796-76.035 72.8097-76.7003 72.0819-76.7003C71.1842-76.7003 70.6038-75.95 70.6038-75.2177L70.6038-66.3882L60.8765-66.3882C58.2317-66.3882 56.5429-64.7753 56.5429-62.1439L56.5429-49.0934C56.5429-46.5424 58.2317-44.8491 60.8765-44.8491Z" />
</svg>