<svg xmlns="http://www.w3.org/2000/svg" viewBox="15.7879 -87.1527 105.08 103.67">
  <path d="M22.9925-13.7365L43.0669-13.7365C44.2287-13.7365 44.966-13.4058 45.7122-12.7445L76.6703 14.6392C77.5855 15.6617 78.9701 16.5194 80.5736 16.5194C82.8739 16.5194 84.0438 14.7461 84.0438 12.6201L84.0438-83.191C84.0438-85.3214 82.8739-87.1527 80.5826-87.1527C78.9791-87.1527 77.6524-86.1297 76.6703-85.2994L45.7122-56.9548C44.966-56.2935 44.2287-56.1326 43.0669-56.1326L22.9925-56.1326C17.9943-56.1326 15.7879-53.5956 15.7879-48.7182L15.7879-20.9006C15.7879-16.0188 18.0747-13.7365 22.9925-13.7365ZM22.9655-16.2942C19.516-16.2942 18.3901-17.5095 18.3901-21.0394L18.3901-48.6598C18.3901-52.2792 19.516-53.49 22.9655-53.49L42.7219-53.49C44.7593-53.49 46.0505-53.7312 47.583-55.1833L78.4746-83.4969C79.1404-83.9929 79.547-84.4934 80.2932-84.4934C80.9501-84.4934 81.4416-84.0868 81.4416-83.2647L81.4416 12.5509C81.4416 13.4535 80.9501 13.8601 80.3781 13.8601C79.8866 13.8601 79.4801 13.6993 78.5595 12.953L47.583-14.6009C46.1354-15.8876 44.7593-16.2942 42.7219-16.2942ZM110.683-9.61619C111.397-9.19657 112.057-9.33944 112.544-9.8615C117.369-16.0404 120.863-24.6808 120.863-35.2742C120.863-45.8676 117.369-54.5125 112.544-60.6869C112.057-61.2089 111.397-61.3518 110.683-60.9367C110.165-60.4546 110.022-59.7183 110.491-58.9504C115.821-51.7342 118.261-44.8226 118.261-35.2742C118.261-25.7258 115.826-18.8097 110.491-11.598C110.018-10.8346 110.165-10.0938 110.683-9.61619Z" />
</svg>