<svg xmlns="http://www.w3.org/2000/svg" viewBox="15.7879 -87.1527 129.58 103.67">
  <path d="M22.9925-13.7365L43.0669-13.7365C44.2287-13.7365 44.966-13.4058 45.7122-12.7445L76.6703 14.6392C77.5855 15.6617 78.9701 16.5194 80.5691 16.5194C82.8739 16.5194 84.0393 14.7461 84.0393 12.6201L84.0393-83.191C84.0393-85.3214 82.8739-87.1527 80.5781-87.1527C78.9791-87.1527 77.6524-86.1297 76.6703-85.2994L45.7122-56.9548C44.966-56.2935 44.2287-56.1326 43.0669-56.1326L22.9925-56.1326C17.9943-56.1326 15.7879-53.5956 15.7879-48.7182L15.7879-20.9006C15.7879-16.0188 18.0747-13.7365 22.9925-13.7365ZM22.9655-16.2942C19.516-16.2942 18.3901-17.5095 18.3901-21.0394L18.3901-48.6598C18.3901-52.2792 19.516-53.49 22.9655-53.49L42.7219-53.49C44.7593-53.49 46.0505-53.7312 47.583-55.1833L78.4746-83.4969C79.1404-83.9929 79.547-84.4934 80.2932-84.4934C80.9501-84.4934 81.4416-84.0868 81.4416-83.2647L81.4416 12.5509C81.4416 13.4535 80.9501 13.8601 80.3781 13.8601C79.8866 13.8601 79.4801 13.6993 78.5595 12.953L47.583-14.6009C46.1354-15.8876 44.7593-16.2942 42.7219-16.2942ZM110.678-9.6117C111.392-9.19208 112.053-9.33495 112.539-9.85701C117.365-16.0359 120.859-24.6763 120.859-35.2697C120.859-45.8631 117.365-54.508 112.539-60.6824C112.053-61.2045 111.392-61.3473 110.678-60.9322C110.16-60.4501 110.018-59.7138 110.486-58.9459C115.817-51.7297 118.256-44.8181 118.256-35.2697C118.256-25.7213 115.821-18.8052 110.486-11.5935C110.013-10.8301 110.16-10.0893 110.678-9.6117ZM130.049 7.13811C130.75 7.54874 131.415 7.49528 131.901 6.88831C140.028-3.44094 145.372-19.2347 145.372-35.2697C145.372-51.3047 140.024-67.0895 131.901-77.4277C131.415-78.0347 130.75-78.0881 130.049-77.6775C129.433-77.182 129.375-76.5215 129.937-75.7537C138.226-64.8206 142.77-50.6753 142.77-35.2697C142.77-19.8641 138.235-5.71426 129.937 5.21431C129.371 5.98212 129.433 6.64255 130.049 7.13811Z" />
</svg>