<svg xmlns="http://www.w3.org/2000/svg" viewBox="16.084 -96.1943 110.33 121.85">
  <path d="M19.3309-67.3775L44.8918-92.9429C46.0932-94.3141 45.4633-96.1943 43.4982-96.1943L18.5671-96.1943C17.1829-96.1943 16.084-95.1089 16.084-93.7112L16.084-68.7756C16.084-66.8105 17.9687-66.1851 19.3309-67.3775ZM123.164-67.3775C124.526-66.1851 126.411-66.8105 126.411-68.7756L126.411-93.7067C126.411-95.1089 125.308-96.1943 123.924-96.1943L98.9925-96.1943C97.0319-96.1943 96.402-94.3141 97.6033-92.9429ZM19.3309-3.16192C17.9687-4.3543 16.084-3.72891 16.084-1.76378L16.084 23.1673C16.084 24.5695 17.1829 25.6549 18.5716 25.6549L43.4982 25.6549C45.4633 25.6549 46.0932 23.7747 44.8918 22.4035ZM123.164-3.16192L97.6033 22.4035C96.402 23.7747 97.0319 25.6549 98.9925 25.6549L123.924 25.6549C125.308 25.6549 126.411 24.5695 126.411 23.1673L126.411-1.76378C126.411-3.72891 124.526-4.3543 123.164-3.16192ZM51.1125 0.787192L91.3782 0.787192C101.738 0.787192 107.3-4.7838 107.3-15.1526L107.3-55.3868C107.3-65.7556 101.738-71.3266 91.3782-71.3266L51.1125-71.3266C40.7572-71.3266 35.1907-65.5858 35.1907-55.3868L35.1907-15.1526C35.1907-4.95362 40.7572 0.787192 51.1125 0.787192ZM51.2733-1.79255C42.3413-1.79255 37.7704-6.37244 37.7704-15.291L37.7704-55.2484C37.7704-64.167 42.3413-68.7469 51.2733-68.7469L91.2173-68.7469C99.8142-68.7469 104.725-64.167 104.725-55.2484L104.725-15.291C104.725-6.37244 99.8142-1.79255 91.2173-1.79255Z"/>
</svg>