<svg xmlns="http://www.w3.org/2000/svg" viewBox="11.2588 -96.0928 121.64 121.65">
  <path d="M72.0819 25.5534C105.487 25.5534 132.9-1.86039 132.9-35.2697C132.9-68.679 105.487-96.0928 72.0819-96.0928C38.6726-96.0928 11.2588-68.679 11.2588-35.2697C11.2588-1.86039 38.6726 25.5534 72.0819 25.5534ZM34.5343-44.8914L45.4004-66.8163C46.2491-68.5227 47.9599-69.5367 49.9835-69.5367L92.7547-69.5367C94.8632-69.5367 96.574-68.5227 97.4227-66.8163L108.289-44.8914ZM43.5364-33.142C38.0189-33.142 33.7121-36.9037 33.7121-42.3637L33.7121-42.3633L109.111-42.3633L109.111-42.3188C109.111-36.8588 104.804-33.142 99.2018-33.142C94.8097-33.142 91.3247-35.5235 89.998-39.3797C88.5774-35.5235 85.1818-33.142 80.7048-33.142C76.2278-33.142 72.7383-35.6085 71.4116-39.3797C70.0804-35.6085 66.5953-33.142 62.1183-33.142C57.5564-33.142 54.1563-35.5235 52.8251-39.3797C51.4984-35.5235 47.9285-33.142 43.5364-33.142ZM46.6602-1.00272C42.6841-1.00272 40.5577-3.05321 40.5577-7.02928L40.5577-30.9486C41.7905-30.7523 43.0903-30.538 44.4659-30.538C48.2816-30.538 51.5119-31.9231 53.8396-34.2867C56.0064-31.9231 59.3216-30.538 63.0479-30.538C66.8636-30.538 70.0938-31.9231 72.3411-34.3716C74.5884-31.9231 77.8186-30.538 81.6388-30.538C85.3606-30.538 88.5954-31.9231 90.9275-34.2867C93.0854-31.9231 96.49-30.538 100.221-30.538C101.512-30.538 102.807-30.6584 104.044-30.9351L104.044-7.02928C104.044-3.13812 102.003-1.00272 97.9416-1.00272ZM61.1722-3.90549L83.4251-3.90549L83.4251-22.6438C83.4251-23.8276 82.7148-24.6183 81.531-24.6183L63.0618-24.6183C61.9629-24.6183 61.1722-23.8276 61.1722-22.6438Z"/>
</svg>