<svg xmlns="http://www.w3.org/2000/svg" viewBox="16.084 -95.4755 161.48 120.33">
  <path d="M75.2434 23.9333L79.1081 23.9333C71.7009 18.5088 66.8761 9.72951 66.8761-0.162137C66.8761-16.6851 80.2982-30.1071 96.8256-30.1071C113.353-30.1071 126.775-16.6851 126.775-0.162137C126.775 9.72951 121.95 18.5088 114.543 23.9333L118.408 23.9333C125.012 17.9822 129.185 9.40379 129.185-0.162137C129.185-18.0284 114.701-32.5974 96.8256-32.5974C78.9503-32.5974 64.4662-18.0284 64.4662-0.162137C64.4662 9.40379 68.6395 17.9822 75.2434 23.9333ZM25.2056-0.570069L49.8262-0.570069C50.5491-0.570069 50.9013-1.18603 50.9058-1.77054C50.9103-2.35055 50.4687-2.971 49.8262-2.971L25.2056-2.971C24.6525-2.971 24.126-2.35055 24.126-1.77054C24.126-1.18603 24.6525-0.570069 25.2056-0.570069ZM64.3359-32.6518C64.8045-33.1159 64.8045-33.9237 64.4478-34.1955L46.99-51.6533C46.5438-52.1844 45.9014-52.0191 45.4373-51.5505C44.8882-51.0774 44.8033-50.4394 45.3299-49.9978L62.7877-32.5399C63.064-32.2636 63.8673-32.2681 64.3359-32.6518ZM129.315-32.6518C129.779-32.2636 130.587-32.2636 130.863-32.5399L148.321-49.9978C148.848-50.4394 148.767-51.0819 148.214-51.5505C147.745-52.0146 147.107-52.1844 146.661-51.6533L129.203-34.1955C128.847-33.9237 128.851-33.1204 129.315-32.6518ZM143.825-0.570069L168.446-0.570069C169.084-0.570069 169.525-1.18603 169.525-1.77054C169.525-2.35055 169.084-2.971 168.446-2.971L143.825-2.971C143.267-2.971 142.75-2.35055 142.745-1.77054C142.741-1.18603 143.267-0.570069 143.825-0.570069ZM17.5167 24.8512L176.134 24.8512C176.965 24.8512 177.567 24.405 177.567 23.6462C177.567 22.9768 176.965 22.5262 176.134 22.5262L17.5167 22.5262C16.6865 22.5262 16.084 22.9768 16.084 23.6462C16.084 24.405 16.6865 24.8512 17.5167 24.8512ZM96.8256-92.278L105.31-83.7319L116.453-72.3379C116.82-71.9717 117.083-71.8334 117.431-71.8334C118.203-71.8334 118.77-72.4898 118.77-73.3515C118.77-73.865 118.458-74.3116 117.931-74.8475L97.7942-95.0693C97.6248-95.2477 97.1738-95.4755 96.8211-95.4755C96.4684-95.4755 96.0173-95.2477 95.848-95.0693L75.716-74.8475C75.1845-74.3116 74.8718-73.865 74.8718-73.3515C74.8718-72.4898 75.4388-71.8334 76.2111-71.8334C76.5593-71.8334 76.8226-71.9717 77.1888-72.3379L88.2876-83.6915ZM97.9101-91.6665C97.9236-92.278 97.3521-92.7511 96.8256-92.7511C96.299-92.7511 95.7276-92.278 95.741-91.6665L95.5402-79.4607L95.5402-52.2105C95.5402-51.559 96.1517-50.9565 96.8256-50.9565C97.4995-50.9565 98.111-51.559 98.111-52.2105L98.111-79.4607Z"/>
</svg>