<svg xmlns="http://www.w3.org/2000/svg" viewBox="16.084 -104.193 134.52 137.76">
  <path d="M16.084-59.7915L66.6133-59.7915L66.6133-91.2595C66.6133-99.1937 61.5338-104.193 53.4388-104.193L29.2136-104.193C21.1455-104.193 16.084-99.1937 16.084-91.2595ZM16.084-15.2321L66.6133-15.2321L66.6133-55.3922L16.084-55.3922ZM29.2136 33.5684L53.4388 33.5684C61.5338 33.5684 66.6133 28.5693 66.6133 20.6352L66.6133-10.8328L16.084-10.8328L16.084 20.6352C16.084 28.5693 21.1455 33.5684 29.2136 33.5684ZM71.0975-56.4866L102.886-38.0031L118.623-65.2533C122.594-72.16 120.687-78.9773 113.623-83.0248L92.633-95.1821C85.4666-99.3729 78.4611-97.3485 74.5834-90.1098C73.3857-88.2332 72.1969-86.3611 71.0975-84.4845ZM71.0975 17.0275L100.689-34.1263L71.0975-51.2387ZM114.704-0.649149L141.869-16.3809C148.776-20.3525 150.603-27.2547 146.475-34.3132L134.398-55.2188C131.373-60.4465 126.936-62.8501 122.016-62.1704C121.525-61.2858 121.038-60.4771 120.551-59.5835L100.621-25.0887ZM72.3744 23.7949L110.827 1.55274L97.9542-20.6045Z"/>
</svg>