<svg xmlns="http://www.w3.org/2000/svg" viewBox="11.2588 -92.5543 134.19 115.06">
  <path d="M73.2176-19.5932C76.0853-16.6406 80.8786-16.6406 83.7508-19.5932C86.708-22.3805 86.708-27.2632 83.7508-30.046C83.4651-30.5016 82.8132-31.1 82.2907-31.4751L47.5578-57.8897C46.9819-58.2379 46.321-58.3498 45.6197-57.8138C44.9094-57.108 45.1061-56.3622 45.5437-55.7907L71.8689-21.0578C72.3335-20.5308 72.8425-19.8789 73.2176-19.5932ZM78.0374-92.5543C41.1611-92.5543 11.2588-62.6475 11.2588-25.7757C11.2588-7.2346 18.8138 9.52824 31.0061 21.6312C31.6401 22.3456 32.6981 22.5064 33.1398 21.9709C33.6128 21.4129 33.4655 20.5291 32.7736 19.8552C21.0139 8.20287 13.6997-7.96647 13.6997-25.7757C13.6997-61.3087 42.4954-90.0105 78.0374-90.0105C113.889-90.0105 142.819-60.8019 142.438-24.856C142.384-24.2809 142.816-23.6021 143.486-23.5302C144.191-23.3869 144.852-23.9984 144.901-24.6139C145.444-62.0554 115.362-92.5543 78.0374-92.5543ZM141.43-7.69825C143.177-7.69825 144.7-9.22129 144.7-10.9631C144.7-12.7854 143.177-14.228 141.43-14.228C139.604-14.228 138.165-12.7854 138.165-10.9631C138.165-9.22129 139.604-7.69825 141.43-7.69825ZM135.497 8.23254C137.239 8.23254 138.762 6.7095 138.762 4.96766C138.762 3.14091 137.239 1.61338 135.497 1.61338C133.67 1.61338 132.232 3.14091 132.232 4.96766C132.232 6.7095 133.67 8.23254 135.497 8.23254ZM126.286 22.0863C128.108 22.0863 129.551 20.5633 129.551 18.817C129.551 16.9947 128.108 15.5521 126.286 15.5521C124.455 15.5521 123.016 16.9947 123.016 18.817C123.016 20.5633 124.455 22.0863 126.286 22.0863Z" />
</svg>