<svg xmlns="http://www.w3.org/2000/svg" viewBox="16.084 -86.4235 141.41 102.19">
  <path d="M47.7349 1.69472L122.452 14.455C130.211 15.7682 135.325 11.1447 135.325 2.94324L135.325-73.5986C135.325-81.8 130.211-86.4235 122.452-85.0254L47.7349-72.3545C42.1077-71.381 38.2484-66.3239 38.2484-59.9721L38.2484-10.6877C38.2484-4.33139 42.1077 0.806055 47.7349 1.69472ZM17.4633-34.0198C16.642-34.0198 16.084-34.5823 16.084-35.2427C16.084-36.073 16.642-36.64 17.4633-36.64L156.115-36.64C156.932-36.64 157.49-36.073 157.49-35.2427C157.49-34.5823 156.932-34.0198 156.115-34.0198Z"/>
</svg>