<svg xmlns="http://www.w3.org/2000/svg" viewBox="12.8672 -93.815 127.43 116.34">
  <path d="M12.8672 8.41673C12.8672 15.743 18.6839 22.5203 26.8054 22.5203L126.281 22.5203C134.403 22.5203 140.3 15.743 140.3 8.41673C140.3 6.116 139.751 3.73935 138.571 1.60844L88.6255-86.7699C86.0969-91.4428 81.1693-93.815 76.5009-93.815C71.8325-93.815 67.0702-91.4428 64.4568-86.7699L14.6809 1.43862C13.3272 3.74384 12.8672 6.116 12.8672 8.41673ZM15.6168 8.41673C15.6168 6.60257 16.1128 4.54714 17.1807 2.65256L66.7912-85.547C69.0165-89.4166 72.6313-91.1413 76.5009-91.1413L76.5009 19.9271L26.8814 19.9271C20.2191 19.9271 15.6168 14.5026 15.6168 8.41673Z"/>
</svg>