<svg xmlns="http://www.w3.org/2000/svg" viewBox="16.084 -98.0359 126.49 125.53">
  <path d="M20.8409 26.4443L137.814 26.4443L137.814 21.2803C137.814 20.8477 137.399 20.4325 136.886 20.4325L132.865 20.4325L132.865-62.408L139.102-62.408C140.07-62.408 140.45-62.9256 140.45-63.6979C140.45-64.0012 140.267-64.5772 139.646-64.9119L85.1616-96.383C83.2674-97.4864 81.3019-98.0359 79.3273-98.0359C77.3572-98.0359 75.3068-97.4864 73.4126-96.383L18.9279-64.9119C18.3969-64.5772 18.2095-64.0012 18.2095-63.6979C18.2095-62.9256 18.5038-62.408 19.5573-62.408L25.7901-62.408L25.7901 20.4325L21.7691 20.4325C21.256 20.4325 20.8409 20.8477 20.8409 21.2803ZM17.3739 27.4965L141.285 27.4965C141.959 27.4965 142.575 26.8805 142.575 26.2111C142.575 25.4523 141.959 24.9212 141.285 24.9212L17.3739 24.9212C16.615 24.9212 16.084 25.4523 16.084 26.2111C16.084 26.8805 16.615 27.4965 17.3739 27.4965ZM71.6025-1.96238C70.5175-1.96238 69.7987-2.77961 69.7987-3.87359L69.7987-25.0914L62.7617-22.004C62.3596-21.8432 62.0514-21.7628 61.8146-21.7628C61.2117-21.7628 60.7516-22.2138 60.7516-22.8212C60.7516-23.3527 60.9839-23.7369 61.5958-23.9646L69.7987-27.5211L69.7987-36.591L62.5919-33.4232C62.2792-33.2624 62.0514-33.1819 61.8146-33.1819C61.2117-33.1819 60.7516-33.633 60.7516-34.3253C60.7516-34.687 60.9839-35.0666 61.5958-35.2989L69.7987-38.9358L69.7987-52.3798C69.7987-53.255 70.464-53.9204 71.2543-53.9204C72.2189-53.9204 72.8039-53.255 72.8039-52.3798L72.8039-40.28L86.3508-46.227C86.7484-46.3879 86.8913-46.4593 87.2085-46.4593C87.7889-46.4593 88.2714-46.0307 88.2714-45.3159C88.2714-44.8693 88.0526-44.5791 87.3558-44.2619L72.8039-37.8458L72.8039-28.8608L86.3508-34.8079C86.6635-34.9687 86.8958-35.0446 87.128-35.0446C87.731-35.0446 88.1016-34.5846 88.1016-33.9057C88.1016-33.3652 87.9677-33.0705 87.3558-32.8427L72.8039-26.5116L72.8039-4.99004C78.3528-4.99004 83.9063-6.74131 87.8604-10.588C91.7255-14.0955 94.183-18.7513 94.3169-23.8002C94.2989-24.7693 94.8214-25.3632 95.7056-25.3632C96.5718-25.3632 97.1837-24.7828 97.1837-23.8047C97.1837-17.9161 94.3959-12.9884 90.3035-8.89601C85.6706-4.77258 79.9572-1.96238 72.2414-1.96238Z"/>
</svg>