<svg xmlns="http://www.w3.org/2000/svg" viewBox="16.084 -90.1642 109.78 109.78">
  <path d="M32.0058 19.6158L109.947 19.6158C120.302 19.6158 125.868 13.8795 125.868 3.6805L125.868-74.2289C125.868-84.4278 120.302-90.1642 109.947-90.1642L32.0058-90.1642C21.646-90.1642 16.084-84.5977 16.084-74.2289L16.084 3.6805C16.084 14.0493 21.646 19.6158 32.0058 19.6158ZM70.974-6.85091C59.3009-6.85091 50.4597-14.1597 50.4597-26.1149L50.4597-61.7328C50.4597-62.5986 51.0177-63.0537 51.7451-63.0537C52.6333-63.0537 53.1064-62.5986 53.1064-61.7328L53.1064-25.9626C53.1064-16.1868 60.9435-9.53399 70.974-9.53399C81.0089-9.53399 88.846-16.1868 88.846-25.9626L88.846-61.7328C88.846-62.5986 89.404-63.0537 90.2163-63.0537C91.0196-63.0537 91.5776-62.5986 91.5776-61.7328L91.5776-26.1149C91.5776-14.1597 82.6515-6.85091 70.974-6.85091Z"/>
</svg>