<svg xmlns="http://www.w3.org/2000/svg" viewBox="16.084 -97.2941 111.04 119.07">
  <path d="M103.181-97.2941L26.6042-97.2941C20.2384-97.2941 16.084-92.6347 16.084-85.6881L16.084-68.0177L113.616-68.0177L113.616-85.6881C113.616-92.6347 109.461-97.2941 103.181-97.2941ZM34.9768-75.5996C31.9299-75.5996 29.4413-78.0881 29.4413-81.1396C29.4413-84.1866 31.9299-86.6751 34.9768-86.6751C38.0283-86.6751 40.5168-84.1866 40.5168-81.1396C40.5168-78.0881 38.0283-75.5996 34.9768-75.5996ZM50.94-75.5996C47.893-75.5996 45.4894-78.0881 45.4894-81.1396C45.4894-84.1866 47.893-86.6751 50.94-86.6751C53.9959-86.6751 56.4844-84.1866 56.4844-81.1396C56.4844-78.0881 53.9959-75.5996 50.94-75.5996ZM80.0722-79.7284C79.2595-79.7284 78.5761-80.4118 78.5761-81.1396C78.5761-81.9479 79.2595-82.6312 80.0722-82.6312L97.8279-82.6312C98.6362-82.6312 99.324-81.9479 99.324-81.1396C99.324-80.4118 98.6362-79.7284 97.8279-79.7284ZM26.6042 21.4367L74.8606 21.4367C73.7792 20.0291 72.9481 18.5411 72.3672 17.0531L68.3731 6.08952C67.2248 6.16994 65.996 6.25485 64.8477 6.25485C48.4339 6.25485 35.1251-7.04948 35.1251-23.5526C35.1251-39.9709 48.4339-53.2752 64.8477-53.2752C81.2659-53.2752 94.6597-39.9709 94.6597-23.5526C94.6597-21.6086 94.4898-19.754 94.1502-17.6402C94.7356-17.5598 95.321-17.4749 95.9868-17.4749C102.614-17.4749 104.328-23.1762 112.777-23.1762C113.054-23.1762 113.701-23.1182 113.616-23.1496L113.616-65.3301L16.084-65.3301L16.084 9.83061C16.084 16.8622 20.2384 21.4367 26.6042 21.4367ZM37.9115-23.5526C37.9115-3.41038 57.6166 5.52432 67.3461 3.29863L60.8676-14.3587C59.6572-17.5297 61.1578-20.7811 64.0295-22.0139C66.2449-23.0279 68.9428-22.5723 70.6222-20.7946C73.75-22.4524 76.5827-23.1762 79.1112-23.1762C83.5082-23.1762 87.5656-21.3305 91.4577-18.5599C91.7124-20.1238 91.8912-21.6922 91.9002-23.0863C92.1199-38.6127 80.4231-50.4888 64.8477-50.4888C49.5499-50.4888 37.9115-38.8549 37.9115-23.5526ZM95.9868-9.97111C104.002-9.97111 106.205-15.574 112.697-15.574C115.712-15.574 118.764-14.5429 122.798-10.8157L124.996-12.9188C120.337-17.066 116.404-18.5217 112.697-18.5217C103.649-18.5217 101.916-12.9188 95.9868-12.9188C90.0578-12.9188 88.3245-18.5217 79.281-18.5217C75.5691-18.5217 71.6371-17.066 66.9772-12.9188L69.1805-10.8157C73.2945-14.5429 76.2615-15.574 79.281-15.574C85.8535-15.574 87.9758-9.97111 95.9868-9.97111ZM84.9792 21.7719L106.994 21.7719C110.301 21.7719 113.719 19.8373 115.35 15.4227L126.849-16.074C127.126-16.8284 126.787-17.5427 126.229-17.8419C125.501-18.1367 124.639-18.0118 124.278-16.9937L112.653 14.6289C111.482 17.9849 109.641 19.0663 107.223 19.0663L84.755 19.0663C82.333 19.0663 80.4963 17.9849 79.321 14.6289L67.6961-16.9937C67.4193-18.0118 66.4727-18.1367 65.7449-17.8419C65.1869-17.5427 64.8477-16.8284 65.1244-16.074L76.7089 15.4227C78.3443 19.8373 81.673 21.7719 84.9792 21.7719Z"/>
</svg>