<svg xmlns="http://www.w3.org/2000/svg" viewBox="16.084 -80.6602 206.66 90.7">
  <path d="M127.477-19.8246C139.571-19.8246 151.009-23.372 160.963-30.4225C161.535-30.9405 161.763-31.6593 161.325-32.3247C160.887-33.0705 159.918-33.3073 159.262-32.7044C151.014-26.2838 140.005-22.7094 127.477-22.7094C115.024-22.7094 104.015-26.2838 95.6871-32.7044C94.9458-33.3073 94.1421-33.1554 93.6241-32.3247C93.182-31.8247 93.3249-30.8556 94.0707-30.4225C104.03-23.372 115.378-19.8246 127.477-19.8246ZM127.477-36.5299C136.855-36.5299 145.058-39.1123 151.429-44.2147C152.09-44.7327 152.148-45.4516 151.795-46.117C151.438-46.7019 150.643-47.104 149.902-46.4966C143.888-41.9302 136.27-39.4057 127.477-39.4057C118.76-39.4057 111.066-41.9302 105.047-46.4966C104.31-47.104 103.681-46.7019 103.15-46.117C102.716-45.4516 102.949-44.7327 103.525-44.2147C109.882-39.1123 118.085-36.5299 127.477-36.5299ZM127.477-53.2397C132.963-53.2397 138.276-54.933 142.23-57.9266C142.899-58.3686 143.038-59.4271 142.426-60.088C141.819-60.655 141.024-60.637 140.291-60.128C136.757-57.5006 132.2-56.0306 127.477-56.0306C122.83-56.0306 118.268-57.5006 114.743-60.128C114.091-60.637 113.122-60.7444 112.523-60.088C111.907-59.4271 111.969-58.3686 112.715-57.9266C116.683-54.933 122.08-53.2397 127.477-53.2397ZM27.8774-3.67095L43.7233-3.67095L43.7233-6.16578L27.8415-6.16578C21.6752-6.16578 18.6637-9.23971 18.6637-15.6962L18.6637-26.1288C18.6637-39.4434 26.1383-46.3106 43.961-48.4954L67.8987-51.453L93.266-67.4741C107.094-76.1594 115.377-78.1699 139.583-78.1699L186.745-78.1699C198.196-78.1699 205.84-74.5955 211.072-66.7633L213.798-62.6619C218.091-56.1699 220.169-50.1878 220.169-43.2088L220.169-14.9365C220.169-9.18175 217.3-6.16578 211.076-6.16578L199.242-6.16578L199.242-3.67095L211.04-3.67095C218.705-3.67095 222.748-7.75395 222.748-14.8067L222.748-43.2088C222.748-50.5805 220.452-57.4378 215.895-64.1661L213.17-68.1781C207.563-76.4829 198.632-80.6602 186.745-80.6602L139.583-80.6602C115.154-80.6602 106.152-78.5114 91.9137-69.6387L67.015-53.9703L43.7022-51.0751C25.2379-48.7654 16.084-40.4157 16.084-26.1288L16.084-15.7816C16.084-7.6331 19.8853-3.67095 27.8774-3.67095ZM77.0989-3.67095L165.83-3.67095L165.83-6.16578L77.0989-6.16578ZM60.4336 10.0359C70.7803 10.0359 78.8129 2.00337 78.8129-8.33891C78.8129-18.5963 70.7803-26.7137 60.4336-26.7137C50.1762-26.7137 42.0587-18.5963 42.0587-8.33891C42.0587 2.00337 50.1762 10.0359 60.4336 10.0359ZM60.4336 7.54559C51.5106 7.54559 44.6385 0.584105 44.6385-8.33891C44.6385-17.2619 51.5106-24.1385 60.4336-24.1385C69.3566-24.1385 76.3181-17.2619 76.3181-8.33891C76.3181 0.584105 69.3566 7.54559 60.4336 7.54559ZM182.25 10.0359C192.507 10.0359 200.625 2.00337 200.625-8.33891C200.625-18.5963 192.507-26.7137 182.25-26.7137C171.903-26.7137 163.871-18.5963 163.871-8.33891C163.871 2.00337 171.903 10.0359 182.25 10.0359ZM182.25 7.54559C173.322 7.54559 166.365 0.584105 166.365-8.33891C166.365-17.2619 173.322-24.1385 182.25-24.1385C191.088-24.1385 198.045-17.2619 198.045-8.33891C198.045 0.584105 191.088 7.54559 182.25 7.54559Z"/>
</svg>