<svg xmlns="http://www.w3.org/2000/svg" viewBox="10.4146 -99.8658 177.02 129.19">
  <path d="M98.961 29.3264C104.71 29.3264 109.508 24.5196 109.508 18.7792C109.508 13.0389 104.706 8.23658 98.961 8.23658C93.1357 8.23658 88.4138 13.0389 88.4138 18.7792C88.4138 24.6045 93.0553 29.3264 98.961 29.3264ZM98.961 26.7997C94.5464 26.7997 90.9451 23.1134 90.9451 18.7792C90.9451 14.4496 94.5464 10.7678 98.961 10.7678C103.21 10.7678 106.892 14.5345 106.892 18.7792C106.892 23.1134 103.295 26.7997 98.961 26.7997ZM93.4089 12.1399L95.7208 10.9214L38.1802-84.5631C37.8409-85.0896 37.176-85.6301 36.2519-85.1256C35.569-84.697 35.52-83.8892 35.8547-83.4475ZM98.9655-3.03208C113.786-3.03208 127.623 0.327582 139.369 5.71572C141.916 6.89955 144.703 6.51093 146.455 4.28164L185.395-46.3465C187.431-49.0799 186.797-52.0366 184.149-53.9927C165.214-67.6062 130.422-77.7436 98.9655-77.7436C67.4238-77.7436 32.7174-67.6062 13.6974-53.9927C11.049-52.0366 10.4146-49.0799 12.4512-46.3465L51.4809 4.28164C53.2322 6.51093 55.9305 6.89955 58.477 5.71572C70.3081 0.327582 84.1449-3.03208 98.9655-3.03208ZM98.9655-5.49996C84.8641-5.49996 70.3701-2.00596 57.2123 3.48505C55.7557 4.05249 54.7592 4.31172 53.3696 2.60044L14.8431-47.3731C13.5429-49.0754 13.8736-51.0684 15.5759-52.2837C36.1989-66.1339 68.7752-75.1728 98.9655-75.1728C129.071-75.1728 161.732-66.1339 182.27-52.2837C183.972-51.0684 184.303-49.0754 183.003-47.3731L144.561 2.60044C143.176 4.31172 142.09 4.05249 140.634 3.48505C127.48-2.00596 113.067-5.49996 98.9655-5.49996ZM24.7172-98.5759C24.7172-97.902 25.3377-97.286 26.0071-97.286L62.657-97.286C63.3264-97.286 63.862-97.902 63.862-98.5759C63.862-99.2453 63.3264-99.8658 62.657-99.8658L26.0071-99.8658C25.3377-99.8658 24.7172-99.2453 24.7172-98.5759ZM79.3529-98.5759C79.3529-97.902 79.8839-97.286 80.5579-97.286L117.203-97.286C117.877-97.286 118.493-97.902 118.493-98.5759C118.493-99.2453 117.877-99.8658 117.203-99.8658L80.5579-99.8658C79.8839-99.8658 79.3529-99.2453 79.3529-98.5759ZM133.904-98.5759C133.904-97.902 134.435-97.286 135.194-97.286L171.754-97.286C172.513-97.286 173.044-97.902 173.044-98.5759C173.044-99.2453 172.513-99.8658 171.754-99.8658L135.194-99.8658C134.435-99.8658 133.904-99.2453 133.904-98.5759Z"/>
</svg>