<svg xmlns="http://www.w3.org/2000/svg" viewBox="9.76562 -69.2891 68.08 68.1">
  <path d="M20.3184-1.19139L67.2969-1.19139C74.2403-1.19139 77.8496-4.87108 77.8496-11.7031L77.8496-58.7773C77.8496-65.6094 74.2403-69.2891 67.2969-69.2891L20.3184-69.2891C13.3887-69.2891 9.76562-65.6797 9.76562-58.7773L9.76562-11.7031C9.76562-4.80077 13.3887-1.19139 20.3184-1.19139ZM32.1543-18.957C24.8926-18.957 23.1269-28.2676 23.1269-35.2539C23.1269-42.2402 24.8926-51.5508 32.1543-51.5508C39.3535-51.5508 41.1543-42.2402 41.1543-35.2539C41.1543-28.2676 39.3535-18.957 32.1543-18.957ZM32.1543-21.8613C36.7519-21.8613 37.7539-29.4121 37.7539-35.2539C37.7539-41.0957 36.7519-48.6465 32.1543-48.6465C27.543-48.6465 26.541-41.0957 26.541-35.2539C26.541-29.4121 27.543-21.8613 32.1543-21.8613ZM59.2383-19.2148C58.3633-19.2148 57.6035-19.7988 57.6035-20.9121L57.6035-26.6933L47.8281-26.6933C46.5508-26.6933 45.7051-27.5605 45.7051-28.7598C45.7051-29.5293 45.8926-30.1602 46.2949-31.0957L55.1094-48.9375C55.8379-50.4414 56.6348-51.3711 58.2969-51.3711C59.6446-51.3711 60.8379-50.6113 60.8379-48.7793L60.8379-29.5488L63.0508-29.5488C63.9082-29.5488 64.4649-28.9531 64.4649-28.1348C64.4649-27.3027 63.9512-26.6933 63.0508-26.6933L60.8379-26.6933L60.8379-20.9121C60.8379-19.9102 60.1387-19.2148 59.2383-19.2148ZM57.6445-29.5078L57.6445-47.8848L57.4981-47.8848L48.7481-29.625L48.7481-29.5078Z"/>
</svg>