<svg xmlns="http://www.w3.org/2000/svg" viewBox="9.76562 -69.2891 68.08 68.1">
  <path d="M20.3184-1.19139L67.2969-1.19139C74.2403-1.19139 77.8496-4.87108 77.8496-11.7031L77.8496-58.7773C77.8496-65.6094 74.2403-69.2891 67.2969-69.2891L20.3184-69.2891C13.3887-69.2891 9.76562-65.6797 9.76562-58.7773L9.76562-11.7031C9.76562-4.80077 13.3887-1.19139 20.3184-1.19139ZM35.4277-19.2422C34.5-19.2422 33.7031-20.0391 33.7031-20.9668L33.7031-47.3457L29.209-43.7246C28.9453-43.5098 28.7168-43.3848 28.3145-43.3848C27.5234-43.3848 27.0527-43.9746 27.0527-44.709C27.0527-45.3184 27.2871-45.7402 27.7305-46.0449L32.8379-50.2246C33.4551-50.7246 34.2168-51.2578 35.2422-51.2578C36.3555-51.2578 37.1035-50.502 37.1035-49.3887L37.1035-20.9668C37.1035-20.0391 36.3418-19.2422 35.4277-19.2422ZM47.1973-19.1797C46.1875-19.1797 45.6524-19.9063 45.6524-20.7188C45.6524-21.252 45.7637-21.6484 45.9649-22.2031L55.6777-47.7285L55.6777-47.9785L44.2735-47.9785C43.4278-47.9785 42.8457-48.5957 42.8457-49.4199C42.8457-50.2656 43.4278-50.8828 44.2735-50.8828L57.0176-50.8828C58.2325-50.8828 59.0782-50.0918 59.0782-48.9336C59.0782-48.1992 58.8907-47.5254 58.6485-46.8613L48.875-20.498C48.5352-19.6035 48.1192-19.1797 47.1973-19.1797Z"/>
</svg>