<svg xmlns="http://www.w3.org/2000/svg" viewBox="9.76562 -69.2891 68.08 68.1">
  <path d="M20.3184-1.19139L67.2969-1.19139C74.2403-1.19139 77.8496-4.87108 77.8496-11.7031L77.8496-58.7773C77.8496-65.6094 74.2403-69.2891 67.2969-69.2891L20.3184-69.2891C13.3887-69.2891 9.76562-65.6797 9.76562-58.7773L9.76562-11.7031C9.76562-4.80077 13.3887-1.19139 20.3184-1.19139ZM20.416-4.50978C15.5996-4.50978 13.0703-7.01173 13.0703-11.8691L13.0703-58.6113C13.0703-63.4824 15.5996-65.9707 20.416-65.9707L67.1992-65.9707C71.875-65.9707 74.5449-63.4824 74.5449-58.6113L74.5449-11.8691C74.5449-7.01173 71.875-4.50978 67.1992-4.50978ZM29.2344-19.7754L42.375-19.7754C43.2207-19.7754 43.7969-20.3652 43.7969-21.1758C43.7969-22.0488 43.207-22.625 42.375-22.625L31.8828-22.625L31.8828-22.8125L38.8027-32.3809C42.0117-36.6797 43.1192-39.4766 43.1192-42.7051C43.1192-47.5703 40.3086-51.3867 35.3945-51.3867C30.8359-51.3867 27.7031-47.2988 27.7031-43.2383C27.7031-42.4707 28.1738-41.7695 29.1523-41.7695C29.9004-41.7695 30.4141-42.1582 30.586-42.9062C31.1563-46.2695 32.5137-48.5644 35.416-48.5644C38.5918-48.5644 40.0234-45.5059 40.0234-42.5527C40.0234-39.6523 38.6992-37.0273 36.3594-33.7773L28.3867-22.9199C27.957-22.3516 27.6543-21.8047 27.6543-21.1406C27.6543-20.3223 28.252-19.7754 29.2344-19.7754ZM55.836-19.4062C56.7364-19.4062 57.4844-20.1895 57.4844-21.1035L57.4844-49.2519C57.4844-50.3516 56.75-51.0938 55.6289-51.0938C54.666-51.0938 53.8691-50.5605 53.3145-50.0742L48.2344-45.957C47.8184-45.6309 47.5352-45.209 47.5352-44.6133C47.5352-43.8926 48.041-43.3164 48.8184-43.3164C49.207-43.3164 49.4004-43.4414 49.6641-43.6426L54.1524-47.2851L54.1524-21.1035C54.1524-20.1895 54.9356-19.4062 55.836-19.4062Z" />
</svg>