<svg xmlns="http://www.w3.org/2000/svg" viewBox="9.76562 -69.2891 68.08 68.1">
  <path d="M20.3184-1.19139L67.2969-1.19139C74.2403-1.19139 77.8496-4.87108 77.8496-11.7031L77.8496-58.7773C77.8496-65.6094 74.2403-69.2891 67.2969-69.2891L20.3184-69.2891C13.3887-69.2891 9.76562-65.6797 9.76562-58.7773L9.76562-11.7031C9.76562-4.80077 13.3887-1.19139 20.3184-1.19139ZM20.416-4.50978C15.5996-4.50978 13.0703-7.01173 13.0703-11.8691L13.0703-58.6113C13.0703-63.4824 15.5996-65.9707 20.416-65.9707L67.1992-65.9707C71.875-65.9707 74.5449-63.4824 74.5449-58.6113L74.5449-11.8691C74.5449-7.01173 71.875-4.50978 67.1992-4.50978ZM26.2988-19.7754L39.418-19.7754C40.2637-19.7754 40.8262-20.3652 40.8262-21.1758C40.8262-22.0488 40.25-22.625 39.418-22.625L28.9121-22.625L28.9121-22.8125L35.832-32.3809C39.041-36.6797 40.1485-39.4766 40.1485-42.7051C40.1485-47.5703 37.3379-51.3867 32.4238-51.3867C27.8652-51.3867 24.7324-47.2988 24.7324-43.2383C24.7324-42.4707 25.2031-41.7695 26.1816-41.7695C26.9297-41.7695 27.457-42.1582 27.6152-42.9062C28.1856-46.2695 29.543-48.5644 32.4453-48.5644C35.6211-48.5644 37.0527-45.5059 37.0527-42.5527C37.0527-39.6523 35.7285-37.0273 33.3887-33.7773L25.416-22.9199C24.9863-22.3516 24.6836-21.8047 24.6836-21.1406C24.6836-20.3223 25.2812-19.7754 26.2988-19.7754ZM54.2891-19.1211C59.7188-19.1211 62.6582-24.0742 62.6582-29.8262C62.6582-35.0234 60.168-40.0117 55.0899-40.0117C51.5489-40.0117 49.2051-37.4043 48.4668-33.8789L48.3203-33.8789C48.3203-34.082 48.3203-34.2637 48.3203-34.502C48.3203-39.5254 49.0762-48.4883 54.2969-48.4883C56.7246-48.4883 58.1856-46.7109 58.9258-44.3945C59.2442-43.6035 59.6172-43.0664 60.4785-43.0664C61.3926-43.0664 61.8789-43.6055 61.8789-44.459C61.8789-44.793 61.7813-45.3027 61.6133-45.8965C60.7266-49.1816 57.8926-51.3242 54.3731-51.3242C47.0684-51.3242 45.168-41.7246 45.168-34.6445C45.168-27.5098 47.2656-19.1211 54.2891-19.1211ZM54.2617-21.957C50.6621-21.957 48.9121-26.2402 48.9121-29.9473C48.9121-33.4629 50.8438-37.3066 54.2266-37.3066C57.7988-37.3066 59.457-33.3516 59.4297-29.709C59.4297-26.1152 57.7578-21.957 54.2617-21.957Z" />
</svg>