<svg xmlns="http://www.w3.org/2000/svg" viewBox="9.76562 -69.2891 68.08 68.1">
  <path d="M20.3184-1.19139L67.2969-1.19139C74.2403-1.19139 77.8496-4.87108 77.8496-11.7031L77.8496-58.7773C77.8496-65.6094 74.2403-69.2891 67.2969-69.2891L20.3184-69.2891C13.3887-69.2891 9.76562-65.6797 9.76562-58.7773L9.76562-11.7031C9.76562-4.80077 13.3887-1.19139 20.3184-1.19139ZM35.2773-19.0547C31.2266-19.0547 28.0195-21.3242 26.9883-24.7324C26.793-25.3457 26.6601-26.1562 26.6601-26.7266C26.6601-27.6621 27.2344-28.2793 28.1621-28.2793C29.0371-28.2793 29.4863-27.793 29.6797-26.8691C30.0977-24.4629 31.8887-21.9317 35.3125-21.9317C38.9258-21.9317 40.6309-24.8887 40.6309-28.2012C40.6309-32.3242 38.3945-34.4336 34.5742-34.4336L33.0195-34.4336C32.2578-34.4336 31.7031-34.9824 31.7031-35.7441C31.7031-36.5059 32.1523-37.1172 33.0195-37.1172L34.5254-37.1172C37.8633-37.1172 39.8906-39.668 39.8906-42.9648C39.8906-46.1094 38.2402-48.5976 35.1309-48.5976C32.2149-48.5976 30.6699-46.3789 30.127-43.6758C29.9121-42.7734 29.5332-42.3066 28.6309-42.3066C27.6816-42.3066 27.1973-42.9297 27.1973-43.7832C27.1973-44.2695 27.2598-44.9531 27.4902-45.7559C28.5215-49.166 31.2754-51.4258 35.1309-51.4258C39.8066-51.4258 43.1113-48.2227 43.1113-43.332C43.1113-40.0469 41.4453-36.8379 37.9375-35.9316L37.9375-35.8203C41.6875-35.4785 43.9903-32.5293 43.9903-28.1895C43.9903-22.584 40.2715-19.0547 35.2773-19.0547ZM56.1719-19.2422C55.2227-19.2422 54.461-20.0391 54.461-20.9668L54.461-47.3457L49.9317-43.7246C49.668-43.5098 49.4258-43.3848 49.0371-43.3848C48.2813-43.3848 47.7617-43.9746 47.7617-44.709C47.7617-45.3184 48.0449-45.7402 48.4746-46.0449L53.5606-50.2246C54.1641-50.7246 54.9395-51.2578 55.9649-51.2578C57.0782-51.2578 57.8614-50.502 57.8614-49.3887L57.8614-20.9668C57.8614-20.0391 57.0645-19.2422 56.1719-19.2422Z"/>
</svg>