<svg xmlns="http://www.w3.org/2000/svg" viewBox="9.76562 -69.2891 68.08 68.1">
  <path d="M20.3184-1.19139L67.2969-1.19139C74.2403-1.19139 77.8496-4.87108 77.8496-11.7031L77.8496-58.7773C77.8496-65.6094 74.2403-69.2891 67.2969-69.2891L20.3184-69.2891C13.3887-69.2891 9.76562-65.6797 9.76562-58.7773L9.76562-11.7031C9.76562-4.80077 13.3887-1.19139 20.3184-1.19139ZM32.7754-19.0547C28.7246-19.0547 25.5527-21.3242 24.5-24.7324C24.291-25.3457 24.1582-26.1562 24.1582-26.7266C24.1582-27.6621 24.7324-28.2793 25.6602-28.2793C26.5703-28.2793 26.9844-27.793 27.1777-26.8828C27.582-24.4629 29.3867-21.9317 32.8105-21.9317C36.4102-21.9317 38.1641-24.8887 38.1641-28.2012C38.1641-32.3242 35.8926-34.4336 32.0859-34.4336L30.5176-34.4336C29.7559-34.4336 29.1875-34.9824 29.1875-35.7441C29.1875-36.5059 29.6504-37.1172 30.5176-37.1172L32.0371-37.1172C35.3613-37.1172 37.4101-39.668 37.4101-42.9648C37.4101-46.1094 35.7383-48.5976 32.6289-48.5976C29.7129-48.5976 28.168-46.3789 27.625-43.6758C27.3965-42.7734 27.0664-42.3066 26.1289-42.3066C25.166-42.3066 24.6953-42.9297 24.6953-43.7832C24.6953-44.2695 24.7578-44.9531 24.9883-45.7559C26.0547-49.166 28.7598-51.4258 32.6289-51.4258C37.3047-51.4258 40.5957-48.2227 40.5957-43.332C40.5957-40.0469 38.9297-36.8379 35.4356-35.9453L35.4356-35.8203C39.1719-35.4785 41.502-32.5293 41.502-28.1895C41.502-22.584 37.7559-19.0547 32.7754-19.0547ZM54.5157-18.957C50.7891-18.957 47.7949-21.4726 46.7735-24.9707C46.6074-25.4629 46.4199-26.1445 46.4199-26.6562C46.4199-27.5645 46.9531-28.168 47.875-28.168C48.5547-28.168 49.0743-27.8008 49.3301-26.7852C49.9219-24.1289 51.7696-21.834 54.4883-21.834C58.1016-21.834 59.711-25.7813 59.711-29.6797C59.711-33.1738 58.1504-37.3242 54.6074-37.3242C52.6153-37.3242 51.1875-36.1211 50.1895-34.3516C49.7325-33.6016 49.3301-33.1269 48.4746-33.1269C47.4082-33.1269 46.8594-33.8672 46.8594-34.8594C46.8594-35.2481 46.8945-35.9609 46.9434-36.5957L47.7617-48.6133C47.8731-49.9453 48.4903-50.8828 49.8926-50.8828L60.3164-50.8828C61.1133-50.8828 61.7168-50.252 61.7168-49.4199C61.7168-48.5605 61.1621-47.9433 60.3164-47.9433L50.6368-47.9433L49.791-36.4766L49.9161-36.4766C51.0332-39.0254 53.3575-40.0293 55.4903-40.0293C60.4766-40.0293 63.0078-34.9785 63.0078-29.7559C63.0078-24.1191 60.0899-18.957 54.5157-18.957Z"/>
</svg>