<svg xmlns="http://www.w3.org/2000/svg" viewBox="9.76562 -69.2891 68.08 68.1">
  <path d="M20.3184-1.19139L67.2969-1.19139C74.2403-1.19139 77.8496-4.87108 77.8496-11.7031L77.8496-58.7773C77.8496-65.6094 74.2403-69.2891 67.2969-69.2891L20.3184-69.2891C13.3887-69.2891 9.76562-65.6797 9.76562-58.7773L9.76562-11.7031C9.76562-4.80077 13.3887-1.19139 20.3184-1.19139ZM36.1484-19.2148C35.2734-19.2148 34.4648-19.7988 34.4648-20.9258L34.4648-26.6933L24.7383-26.6933C23.4121-26.6933 22.6152-27.5605 22.6152-28.7598C22.6152-29.5293 22.7754-30.1602 23.1562-31.0957L32.0058-48.9375C32.7344-50.4414 33.5098-51.3711 35.1445-51.3711C36.5195-51.3711 37.7344-50.6113 37.7344-48.7793L37.7344-29.5488L39.9121-29.5488C40.8047-29.5488 41.3613-28.9531 41.3613-28.1348C41.3613-27.3027 40.8477-26.6933 39.9121-26.6933L37.7344-26.6933L37.7344-20.9258C37.7344-19.9102 37-19.2148 36.1484-19.2148ZM34.5059-29.5078L34.5059-47.8848L34.3594-47.8848L25.6094-29.625L25.6094-29.5078ZM53.1016-30.4141C48.0039-30.4141 45.4863-35.4219 45.4863-40.6387C45.4863-46.4805 48.5371-51.5234 53.9297-51.5234C61.0215-51.5234 63.1602-43.0176 63.1602-35.8145C63.1602-28.4629 61.2325-19.0059 53.8457-19.0059C50.2852-19.0059 47.4102-21.1133 46.4746-24.5801C46.3067-25.0898 46.209-25.6484 46.209-25.9961C46.209-26.8496 46.6387-27.5215 47.6504-27.5215C48.3711-27.5215 48.8282-27.1602 49.2168-26.1094C50.0059-23.625 51.4805-21.918 53.8516-21.918C59.2188-21.918 59.9395-30.8926 59.9395-35.9434C59.9395-36.1816 59.9395-36.3633 59.9395-36.5801L59.793-36.5801C59.041-33.0137 56.6836-30.4141 53.1016-30.4141ZM53.9571-33.1875C57.4024-33.1875 59.334-37.0098 59.334-40.7344C59.334-44.3477 57.6055-48.6465 53.9571-48.6465C50.4336-48.6465 48.7344-44.418 48.7344-40.7344C48.7344-37.1348 50.3926-33.1875 53.9571-33.1875Z"/>
</svg>