<svg xmlns="http://www.w3.org/2000/svg" viewBox="6.83594 -72.9707 75.45 75.43">
  <path d="M44.5527 2.4629C65.3106 2.4629 82.2832-14.5098 82.2832-35.2539C82.2832-55.9981 65.3106-72.9707 44.5527-72.9707C23.8086-72.9707 6.83594-55.9981 6.83594-35.2539C6.83594-14.5098 23.8086 2.4629 44.5527 2.4629ZM44.6504-17.4629C37.2578-17.4629 32.0859-22.3496 32.0859-29.2129C32.0859-33.1504 33.7383-37.0313 37.5938-42.0918C38.6719-43.586 42.8125-48.6855 45.0762-51.5684C45.6055-52.2578 46.0625-52.8692 46.8672-52.8692C47.918-52.8692 48.3399-52.2051 48.3399-51.541C48.3399-51.0488 48.0899-50.6465 47.8067-50.2598C45.4942-47.3398 41.3555-42.334 40.1992-40.7188C38.9785-39.1426 38.5117-38.4805 37.9453-37.5781L38.2793-37.5156C39.9219-38.9961 42.6914-39.9512 45.4903-39.9512C52.2832-39.9512 57.1094-35.3848 57.1094-29.0039C57.1094-22.2227 51.959-17.4629 44.6504-17.4629ZM44.6504-20.3359C50.0566-20.3359 54.0098-23.9609 54.0098-28.873C54.0098-33.834 50.0566-37.3476 44.5449-37.3476C39.1309-37.3476 35.1992-33.8691 35.1992-29.0273C35.1992-24.0664 39.2715-20.3359 44.6504-20.3359Z"/>
</svg>