<svg xmlns="http://www.w3.org/2000/svg" viewBox="9.76562 -74.5918 83.24 78.79">
  <path d="M25.3789-6.5117L40.8027-6.5117C44.6211-6.5117 46.9434-8.8828 46.9434-12.707L46.9434-68.4102C46.9434-72.2696 44.6211-74.5918 40.8027-74.5918L25.3789-74.5918C21.582-74.5918 19.2383-72.2696 19.2383-68.4102L19.2383-12.707C19.2383-8.8828 21.582-6.5117 25.3789-6.5117ZM62.0782-6.5117L77.502-6.5117C81.334-6.5117 83.6426-8.8828 83.6426-12.707L83.6426-43.1504C83.6426-46.9883 81.334-49.3106 77.502-49.3106L62.0782-49.3106C58.2949-49.3106 55.9375-46.9883 55.9375-43.1504L55.9375-12.707C55.9375-8.8828 58.2949-6.5117 62.0782-6.5117ZM11.2813 4.19535L91.4942 4.19535C92.3243 4.19535 93.0098 3.46878 93.0098 2.6387C93.0098 1.80861 92.3243 1.06837 91.4942 1.06837L11.2813 1.06837C10.4512 1.06837 9.76562 1.80861 9.76562 2.6387C9.76562 3.46878 10.4512 4.19535 11.2813 4.19535Z" />
</svg>