<svg xmlns="http://www.w3.org/2000/svg" viewBox="8.2168 -73.1309 75.87 75.82">
  <path d="M15.9805 0.236343C23.4844 2.53322 31.7969 2.69337 40.0176 0.806657L10.1172-29.1074C8.2168-20.8867 8.35547-12.5391 10.6738-5.07031C11.7246-1.66796 12.5566-0.800769 15.9805 0.236343ZM66.9824-14.4141C73.5352-20.9531 78.168-28.6855 80.8242-36.7109L47.5859-69.9141C39.5742-67.3281 31.877-62.625 25.2539-56.0586C18.7012-49.5059 14.0684-41.7871 11.4121-33.7617L44.6504-0.558586C52.6621-3.14453 60.3946-7.84765 66.9824-14.4141ZM40.1231-19.0723C39.6367-18.5859 38.8731-18.5859 38.4356-19.0859L29.9121-27.5469C29.4395-28.0332 29.4395-28.7832 29.9121-29.2481C30.377-29.7344 31.1758-29.7344 31.6621-29.2617L35.0528-25.8438L38.8926-29.7188L35.4531-33.123C35.0371-33.5605 35.0371-34.3594 35.4531-34.8106C35.9395-35.3106 36.7168-35.3106 37.1895-34.8242L40.5938-31.3848L44.4688-35.2598L41.0508-38.6855C40.5781-39.1367 40.5645-39.8867 41.0508-40.3867C41.4805-40.8379 42.2793-40.8379 42.7168-40.4004L46.1563-36.9473L49.9961-40.8223L46.5918-44.2266C46.1406-44.6992 46.127-45.4629 46.5918-45.9141C47.0918-46.4141 47.8067-46.4141 48.293-45.9277L51.7324-42.5234L55.5723-46.3633L52.168-49.7891C51.6816-50.2754 51.668-51.0254 52.168-51.4902C52.6192-51.9277 53.4043-51.9277 53.8203-51.5039L62.3301-42.9941C62.8164-42.5293 62.8164-41.7441 62.3301-41.2793C61.8789-40.8281 61.0801-40.8281 60.6641-41.293L57.2598-44.6484L53.3848-40.8223L56.8027-37.4531C57.2891-36.9531 57.2891-36.2031 56.8027-35.7168C56.3027-35.2519 55.5527-35.2656 55.0664-35.7168L51.7324-39.1211L47.8574-35.2598L51.2266-31.877C51.6914-31.4395 51.6914-30.6758 51.2266-30.1758C50.7754-29.6758 50.0117-29.6895 49.5391-30.1895L46.1563-33.5449L42.3164-29.7188L45.6641-26.3145C46.1504-25.8633 46.1504-25.0996 45.6641-24.5996C45.1992-24.1621 44.4492-24.1621 43.9629-24.6133L40.5938-27.9824L36.7324-24.1211L40.1231-20.7735C40.5879-20.3008 40.5879-19.5234 40.1231-19.0723ZM81.5977-65.3672C80.5469-68.791 79.7149-69.6231 76.291-70.709C68.7871-72.9922 60.4746-73.1309 52.2891-71.2442L82.1192-41.3652C84.0899-49.5508 83.916-57.8984 81.5977-65.3672Z"/>
</svg>