<svg xmlns="http://www.w3.org/2000/svg" viewBox="9.21484 -83.3672 60.46 93.08">
  <path d="M39.4512 9.7168C49.8262 9.7168 59.4473-1.72071 59.4473-14.1855C59.4473-17.5625 58.584-20.1816 56.9063-22.1621C58.5938-21.7285 60.3086-21.3222 61.9961-20.9023C64.9571-20.1347 66.0274-18.4609 65.4883-15.3906L62.3672 4.35742C62.1875 5.54688 62.9981 6.27345 64.0293 6.27345C65.1446 6.27345 65.5586 5.65821 65.7598 4.49414L68.9766-15.9219C69.6739-20.4141 67.8672-22.8906 63.0059-24.0488L47.9121-27.6367L47.8985-28.0273C50.1367-29.0762 51.3731-31.541 51.5508-34.039L60.9786-35.3047C65.8907-35.9883 67.9122-38.1738 67.9122-42.7129L67.9122-55.4023C67.9122-56.5391 67.2891-57.127 66.209-57.127C65.1426-57.127 64.4844-56.4688 64.4844-55.4023L64.4844-43.2852C64.4844-40.2266 63.1953-38.9883 60.0567-38.5547L51.4649-37.3125C51.0606-38.7383 50.293-40.0098 49.0703-40.8203L49.0703-41.2109C55.6133-42.3828 59.0078-46.3379 59.0078-52.1484C59.0078-57.9121 56.4473-63.1094 52.5313-66.7031L53.1973-67.2715C56.711-70.0488 56.8379-73.2637 54.2833-76.9687L50.3106-82.3437C49.8458-83.084 49.3399-83.3672 48.711-83.3672C47.8184-83.3672 47.168-82.8008 47.168-81.9004C47.168-81.5058 47.2657-81.2207 47.6348-80.6718L51.6387-75.375C53.2188-73.2109 53.3809-71.3184 51.1699-69.4863C50.8477-69.2344 50.5117-68.9473 50.1758-68.6953C47.0586-70.7871 43.377-72.0215 39.4512-72.0215C35.5606-72.0215 31.8574-70.7871 28.7539-68.709C28.4317-68.9473 28.0957-69.248 27.7735-69.5C25.5625-71.3184 25.7246-73.2109 27.3047-75.375L31.3438-80.6718C31.6777-81.2207 31.7754-81.5058 31.7754-81.9004C31.7754-82.8008 31.125-83.3672 30.2461-83.3672C29.6172-83.3672 29.1113-83.084 28.6328-82.3437L24.6738-76.9687C22.1055-73.2637 22.2324-70.0488 25.7598-67.2715L26.4336-66.7168C22.4688-63.1367 19.8809-57.9258 19.8809-52.1484C19.8809-46.3379 23.2891-42.3828 29.8321-41.2109L29.8321-40.8203C28.5957-40.0098 27.8281-38.7383 27.4239-37.3125L18.8457-38.5547C15.7422-38.9883 14.418-40.2266 14.418-43.2852L14.418-55.4023C14.418-56.4688 13.7598-57.127 12.7149-57.127C11.6133-57.127 11.0254-56.5391 11.0254-55.4023L11.0254-42.7129C11.0254-38.1738 13.0332-35.9883 17.959-35.3047L27.3516-34.039C27.5157-31.541 28.8008-29.0762 31.0039-28.0273L31.0039-27.6367L15.8828-24.0488C11.0215-22.8906 9.21484-20.4141 9.91211-15.9219L13.1289 4.49414C13.3301 5.65821 13.7793 6.27345 14.8731 6.27345C15.8906 6.27345 16.7012 5.54688 16.5215 4.35742L13.4141-15.3906C12.9102-18.4609 13.9453-20.1347 16.9063-20.9023C18.6289-21.3222 20.2949-21.7285 22.0176-22.1621C20.3047-20.1816 19.4414-17.5625 19.4414-14.1855C19.4414-1.72071 29.0762 9.7168 39.4512 9.7168Z"/>
</svg>