<svg xmlns="http://www.w3.org/2000/svg" viewBox="9.76562 -70.7383 56.06 71.02">
  <path d="M37.7969 0.279304C38.3086 0.279304 38.7012 0.107426 39.0742-0.279297L65.3106-26.3887C65.6836-26.7539 65.8281-27.1543 65.8281-27.6523C65.8281-28.6406 65.0957-29.3653 64.1641-29.3653C63.666-29.3653 63.168-29.1856 62.9062-28.9238L48.4708-14.543L37.7832-3.36917L27.123-14.543L12.7227-28.9238C12.4258-29.1856 11.9278-29.3653 11.4649-29.3653C10.4981-29.3653 9.76562-28.6406 9.76562-27.6523C9.76562-27.1543 9.94531-26.7539 10.3184-26.3887L36.5195-0.279297C36.8926 0.107426 37.3203 0.279304 37.7969 0.279304ZM37.7969-2.1797C38.7227-2.1797 39.3301-2.85744 39.3301-3.78323L39.5371-13.1231L39.5371-69.0469C39.5371-70.0059 38.791-70.7383 37.7969-70.7383C36.8027-70.7383 36.0918-70.0059 36.0918-69.0469L36.0918-13.1231L36.2637-3.71292C36.2637-2.85744 36.9063-2.1797 37.7969-2.1797Z" />
</svg>