<svg xmlns="http://www.w3.org/2000/svg" viewBox="9.76562 -69.2891 68.08 68.1">
  <path d="M20.3184-1.19139L67.2969-1.19139C74.2403-1.19139 77.8496-4.87108 77.8496-11.7031L77.8496-58.7773C77.8496-65.6094 74.2403-69.2891 67.2969-69.2891L20.3184-69.2891C13.3887-69.2891 9.76562-65.6797 9.76562-58.7773L9.76562-11.7031C9.76562-4.80077 13.3887-1.19139 20.3184-1.19139ZM20.416-4.50978C15.5996-4.50978 13.0703-7.01173 13.0703-11.8691L13.0703-58.6113C13.0703-63.4824 15.5996-65.9707 20.416-65.9707L67.1992-65.9707C71.875-65.9707 74.5449-63.4824 74.5449-58.6113L74.5449-11.8691C74.5449-7.01173 71.875-4.50978 67.1992-4.50978ZM43.8281-54.0898C42.9434-54.0898 42.1758-53.3359 42.1758-52.4785L42.1758-26.5821L42.3066-20.1035C42.334-19.2402 43.0742-18.6231 43.8281-18.6231C44.6035-18.6231 45.3223-19.2402 45.336-20.1035L45.4668-26.5821L45.4668-52.4785C45.4668-53.3359 44.6992-54.0898 43.8281-54.0898ZM43.8281-16.418C44.25-16.418 44.6309-16.5703 44.9824-16.957L57.8477-29.6934C58.166-30.0254 58.3457-30.3574 58.3457-30.793C58.3457-31.6152 57.6465-32.2871 56.8594-32.2871C56.4375-32.2871 56.0156-32.086 55.7109-31.7539L48.4063-24.2774L43.8281-19.625L43.8281-19.625L39.2012-24.2774L31.8965-31.7539C31.5918-32.086 31.1563-32.2871 30.7344-32.2871C29.9121-32.2871 29.2617-31.6152 29.2617-30.793C29.2617-30.3574 29.4414-30.0254 29.7598-29.6934L42.6602-16.957C43.0469-16.5703 43.3926-16.418 43.8281-16.418Z" />
</svg>