<svg xmlns="http://www.w3.org/2000/svg" viewBox="6.83594 -72.9707 75.45 75.43">
  <path d="M44.5527 2.4629C65.3809 2.4629 82.2832-14.4258 82.2832-35.2539C82.2832-56.082 65.3809-72.9707 44.5527-72.9707C23.7383-72.9707 6.83594-56.082 6.83594-35.2539C6.83594-14.4258 23.7383 2.4629 44.5527 2.4629ZM44.5527-0.95119C25.5762-0.95119 10.2285-16.2774 10.2285-35.2539C10.2285-54.2305 25.5762-69.5566 44.5527-69.5566C63.5293-69.5566 78.8555-54.2305 78.8555-35.2539C78.8555-16.2774 63.5293-0.95119 44.5527-0.95119ZM22.3516-35.2754C22.3516-34.3965 22.9746-33.7871 23.8262-33.7871L44.3789-33.7871L51.5019-34.0078L44.1894-27.0176L39.8516-22.7344C39.4766-22.4082 39.3027-22.0059 39.3027-21.5273C39.3027-20.6055 39.8769-20.0098 40.7285-20.0098C41.2715-20.0098 41.7285-20.3516 42.0684-20.7129L55.5273-34.1816C55.8594-34.4863 56.0117-34.8809 56.0117-35.2754C56.0117-35.6699 55.8457-36.0996 55.5273-36.3691L41.9141-50.0195C41.666-50.3379 41.2148-50.5684 40.7637-50.5684C39.9043-50.5684 39.3027-49.9727 39.3027-49.0644C39.3027-48.6133 39.4766-48.1836 39.8516-47.8574L44.084-43.6953L51.5019-36.543L44.3789-36.75L23.8262-36.75C22.9746-36.75 22.3516-36.1621 22.3516-35.2754ZM61.1348-19.5859C62.0215-19.5859 62.6094-20.209 62.6094-21.0254L62.6094-49.5527C62.6094-50.3828 62.0215-50.9922 61.1348-50.9922C60.3184-50.9922 59.6953-50.3828 59.6953-49.5527L59.6953-21.0254C59.6953-20.209 60.3184-19.5859 61.1348-19.5859Z" />
</svg>