<svg xmlns="http://www.w3.org/2000/svg" viewBox="9.76562 -69.2891 68.08 68.1">
  <path d="M20.3184-1.19139L67.2969-1.19139C74.2403-1.19139 77.8496-4.87108 77.8496-11.7031L77.8496-58.7773C77.8496-65.6094 74.2403-69.2891 67.2969-69.2891L20.3184-69.2891C13.3887-69.2891 9.76562-65.6797 9.76562-58.7773L9.76562-11.7031C9.76562-4.80077 13.3887-1.19139 20.3184-1.19139ZM43.8145-16.8301C34.5703-16.8301 27.2656-24.1621 27.2656-33.4824C27.2656-42.6992 34.6113-49.8652 43.5547-49.8652C44.5098-49.8652 45.4648-49.8301 46.6445-49.6543L41.5703-54.7148C41.166-55.1191 40.9863-55.5351 40.9863-56.0488C40.9863-56.8242 41.6445-57.5313 42.5528-57.5313C42.8985-57.5313 43.377-57.2539 43.5567-57.0742L51.6387-48.7734C51.9649-48.4609 52.1387-48.0098 52.1387-47.5586C52.1387-47.0937 51.9649-46.6562 51.6387-46.3301L43.5567-38.0293C43.3633-37.8359 42.8985-37.5859 42.5528-37.5859C41.6445-37.5859 40.9863-38.293 40.9863-39.0684C40.9863-39.582 41.1524-39.9844 41.5703-40.4024L47.6211-46.4258C46.8066-46.6367 45.416-46.791 43.8145-46.791C36.2871-46.791 30.3946-40.9336 30.3946-33.4277C30.3946-25.8789 36.2871-19.9727 43.8145-19.9727C51.293-19.9727 57.1855-25.9141 57.1855-33.4277C57.1855-34.293 57.8984-34.9922 58.7988-34.9922C59.6153-34.9922 60.3145-34.293 60.3145-33.4277C60.3145-24.1621 53.0938-16.8301 43.8145-16.8301Z"/>
</svg>