<svg xmlns="http://www.w3.org/2000/svg" viewBox="9.76562 -63.0645 64.41 55.62">
  <path d="M74.1739-11.3281L74.1739-59.1797C74.1739-61.877 72.504-63.0645 70.6973-63.0645C69.9122-63.0645 69.1133-62.8281 68.4063-62.4258L28.2559-38.5156C26.545-37.4902 25.711-36.6504 25.711-35.2539C25.711-33.8574 26.545-33.0176 28.2559-31.9922L68.4063-8.08202C69.1133-7.67967 69.9122-7.44334 70.6973-7.44334C72.504-7.44334 74.1739-8.63085 74.1739-11.3281ZM21.9629-7.52538C24.6699-7.52538 25.9063-8.74804 25.9063-11.4687L25.9063-59.0527C25.9063-61.7598 24.6699-62.9961 21.9629-62.9961L13.7227-62.9961C11.002-62.9961 9.76562-61.8145 9.76562-59.0527L9.76562-11.4687C9.76562-8.74804 11.002-7.52538 13.7227-7.52538Z"/>
</svg>