<svg xmlns="http://www.w3.org/2000/svg" viewBox="6.83594 -73.459 129.81 76.41">
  <path d="M19.3965-10.541C20.0254-11.2734 19.8106-12.2559 19.0781-13.0078C13.4649-18.8262 10.168-26.5859 10.168-35.2539C10.168-43.9219 13.4649-51.6816 19.0781-57.5C19.8106-58.252 20.0254-59.2344 19.3965-59.9668C18.7539-60.7129 17.5781-60.6778 16.8184-59.8633C10.5625-53.4297 6.83594-44.8066 6.83594-35.2539C6.83594-25.7012 10.5625-17.0781 16.8184-10.6445C17.5781-9.83006 18.7539-9.7949 19.3965-10.541ZM29.709-21.1055C30.3028-21.8027 30.1035-22.793 29.4043-23.5859C26.4043-26.4883 24.9786-30.7422 24.9786-35.2539C24.9786-39.7656 26.4043-44.0195 29.4043-46.9219C30.1035-47.7148 30.3028-48.7051 29.709-49.4024C29.0176-50.1699 27.8223-50.1485 27.1035-49.2715C23.6563-45.5859 21.6816-40.6504 21.6816-35.2539C21.6816-29.8574 23.6563-24.9219 27.1035-21.2363C27.8223-20.3594 29.0176-20.3379 29.709-21.1055ZM124.047-10.541C124.725-9.7949 125.865-9.83006 126.647-10.6445C132.867-17.0781 136.643-25.7012 136.643-35.2539C136.643-44.8066 132.867-53.4297 126.647-59.8633C125.865-60.6778 124.725-60.7129 124.047-59.9668C123.439-59.2344 123.668-58.252 124.365-57.5C130.014-51.6816 133.297-43.9219 133.297-35.2539C133.297-26.5859 130.014-18.8262 124.365-13.0078C123.668-12.2559 123.439-11.2734 124.047-10.541ZM113.77-21.1055C114.426-20.3379 115.607-20.3594 116.361-21.2363C119.809-24.9219 121.797-29.8574 121.797-35.2539C121.797-40.6504 119.809-45.5859 116.361-49.2715C115.607-50.1485 114.426-50.1699 113.77-49.4024C113.127-48.7051 113.361-47.7148 114.061-46.9219C117.039-44.0195 118.451-39.7656 118.451-35.2539C118.451-30.7422 117.039-26.4883 114.061-23.5859C113.361-22.793 113.127-21.8027 113.77-21.1055ZM36.6953-12.1016C36.6953-10.418 37.92-9.30274 39.8418-9.30274L59.8809-9.30274C60.0606-2.35937 64.8848 2.95119 71.7149 2.95119C78.5586 2.95119 83.418-2.3457 83.5626-9.30274L103.623-9.30274C105.523-9.30274 106.734-10.418 106.734-12.1016C106.734-15.9805 103.201-19.25 100.1-22.6192C96.4043-26.7149 96.461-35.0527 95.4629-42.6894C94.4512-53.7949 90.629-61.9961 81.3614-64.6289C80.5079-69.8633 76.7305-73.459 71.7149-73.459C66.7481-73.459 62.9571-69.8633 62.0684-64.6289C52.8145-61.9961 48.9785-53.7949 48.0156-42.6894C47.0039-35.0527 47.0742-26.7149 43.3653-22.6192C40.2774-19.25 36.6953-15.9805 36.6953-12.1016ZM40.5645-12.4844L40.5645-12.9024C40.7969-14.836 43.6348-18.0195 46.0313-20.5195C50.2246-24.9492 50.1758-33.666 51.2579-42.2363C52.4102-53.9238 56.2071-59.6269 62.961-61.4687C64.2481-61.8047 64.9825-62.293 65.1231-63.4531C65.5586-67.3301 67.875-70.332 71.7149-70.332C75.6035-70.332 77.92-67.3301 78.3555-63.4531C78.4961-62.293 79.2168-61.8047 80.4824-61.4687C87.2578-59.6269 91.0684-53.9238 92.1856-42.2363C93.2891-33.666 93.2403-24.9492 97.4336-20.5195C99.7949-18.0195 102.668-14.836 102.865-12.9024L102.865-12.4844ZM63.1172-9.30274L80.3477-9.30274C80.0547-3.6543 76.5157-0.0234489 71.7149-0.0234489C66.9278-0.0234489 63.4102-3.6543 63.1172-9.30274Z" />
</svg>