<svg xmlns="http://www.w3.org/2000/svg" viewBox="9.95704 -73.8652 76.6 77.22">
  <path d="M10.1523-72.2129C10.1523-71.293 10.8848-70.5605 11.7695-70.5605L84.9082-70.5605C85.8067-70.5605 86.5606-71.293 86.5606-72.2129C86.5606-73.0977 85.8067-73.8652 84.9082-73.8652L11.7695-73.8652C10.8848-73.8652 10.1523-73.0977 10.1523-72.2129ZM11.7695-61.4062C12.8047-61.4062 13.6309-62.2109 13.6309-63.2324C13.6309-64.2676 12.8047-65.0449 11.7695-65.0449C10.7695-65.0449 9.95704-64.2676 9.95704-63.2324C9.95704-62.2109 10.7695-61.4062 11.7695-61.4062ZM11.7695-52.4062C12.8047-52.4062 13.6309-53.1972 13.6309-54.2187C13.6309-55.2676 12.8047-56.0449 11.7695-56.0449C10.7695-56.0449 9.95704-55.2676 9.95704-54.2187C9.95704-53.1972 10.7695-52.4062 11.7695-52.4062ZM11.7695-43.3359C12.8047-43.3359 13.6309-44.1621 13.6309-45.1836C13.6309-46.1836 12.8047-46.9961 11.7695-46.9961C10.7695-46.9961 9.95704-46.1836 9.95704-45.1836C9.95704-44.1621 10.7695-43.3359 11.7695-43.3359ZM11.7695-34.3222C12.8047-34.3222 13.6309-35.1621 13.6309-36.1836C13.6309-37.1836 12.8047-37.9961 11.7695-37.9961C10.7695-37.9961 9.95704-37.1836 9.95704-36.1836C9.95704-35.1621 10.7695-34.3222 11.7695-34.3222ZM11.7695-25.2871C12.8047-25.2871 13.6309-26.1133 13.6309-27.1348C13.6309-28.1484 12.8047-28.9609 11.7695-28.9609C10.7695-28.9609 9.95704-28.1484 9.95704-27.1348C9.95704-26.1133 10.7695-25.2871 11.7695-25.2871ZM11.7695-16.2871C12.8047-16.2871 13.6309-17.1133 13.6309-18.0996C13.6309-19.1348 12.8047-19.9473 11.7695-19.9473C10.7695-19.9473 9.95704-19.1348 9.95704-18.0996C9.95704-17.1133 10.7695-16.2871 11.7695-16.2871ZM11.7695 3.35743C12.6543 3.35743 13.4219 2.58984 13.4219 1.70507L13.4219-9.25976C13.4219-10.1445 12.7031-10.9121 11.7695-10.9121C10.8848-10.9121 10.1875-10.1445 10.1875-9.25976L10.1875 1.70507C10.1875 2.58984 10.9199 3.35743 11.7695 3.35743ZM18.3047-63.5625L18.3047-52.8848C18.3047-51.6191 19.1953-50.7773 20.5313-50.7773L82.6465-50.7773C84.045-50.7773 84.9082-51.6328 84.9082-52.8984L84.9082-63.5761C84.9082-64.8066 84.0313-65.6484 82.6465-65.6484L20.5313-65.6484C19.1817-65.6484 18.3047-64.7929 18.3047-63.5625ZM18.3047-45.5429L18.3047-34.8379C18.3047-33.5644 19.1817-32.7578 20.5313-32.7578L82.6602-32.7578C84.0313-32.7578 84.9082-33.5781 84.9082-34.8379L84.9082-45.5566C84.9082-46.7597 84.0313-47.6152 82.6602-47.6152L20.5313-47.6152C19.1953-47.6152 18.3047-46.7597 18.3047-45.5429ZM18.3047-27.4883L18.3047-16.8184C18.3047-15.5312 19.1817-14.7109 20.5313-14.7109L82.6465-14.7109C84.045-14.7109 84.9082-15.5312 84.9082-16.8184L84.9082-27.5019C84.9082-28.7265 84.045-29.582 82.6465-29.582L20.5313-29.582C19.1953-29.582 18.3047-28.7265 18.3047-27.4883ZM18.3047-9.44139L18.3047 1.20117C18.3047 2.50196 19.168 3.34375 20.5176 3.34375L82.6328 3.34375C84.0176 3.34375 84.9082 2.50196 84.9082 1.20117L84.9082-9.44139C84.9082-10.7207 84.0313-11.5488 82.6465-11.5488L20.5313-11.5488C19.168-11.5488 18.3047-10.707 18.3047-9.44139Z"/>
</svg>