<svg xmlns="http://www.w3.org/2000/svg" viewBox="6.83594 -72.9707 75.45 75.43">
  <path d="M44.5527 2.4629C65.3809 2.4629 82.2832-14.4258 82.2832-35.2539C82.2832-56.082 65.3809-72.9707 44.5527-72.9707C23.7383-72.9707 6.83594-56.082 6.83594-35.2539C6.83594-14.4258 23.7383 2.4629 44.5527 2.4629ZM44.5527-0.95119C25.5762-0.95119 10.2285-16.2774 10.2285-35.2539C10.2285-54.2305 25.5762-69.5566 44.5527-69.5566C63.5293-69.5566 78.8555-54.2305 78.8555-35.2539C78.8555-16.2774 63.5293-0.95119 44.5527-0.95119ZM30.3418-17.3652L58.75-17.3652C62.3985-17.3652 64.2793-19.2812 64.2793-22.8672L64.2793-47.6406C64.2793-51.1914 62.3985-53.1426 58.75-53.1426L30.3418-53.1426C26.6934-53.1426 24.8125-51.2266 24.8125-47.6406L24.8125-22.8672C24.8125-19.2812 26.6934-17.3652 30.3418-17.3652ZM30.4219-19.7461C28.2129-19.7461 27.2637-20.6816 27.2637-22.8828L27.2637-40.7031C27.2637-43.1504 28.5293-44.4375 30.9492-44.4375L58.1153-44.4375C60.4922-44.4375 61.8281-43.1504 61.8281-40.7031L61.8281-22.8828C61.8281-20.6816 60.8789-19.7461 58.6563-19.7461ZM40.3672-37.1309L41.7481-37.1309C42.4434-37.1309 42.5742-37.248 42.5742-37.916L42.5742-39.3105C42.5742-39.9707 42.4434-40.0664 41.7481-40.0664L40.3672-40.0664C39.7207-40.0664 39.5899-39.9707 39.5899-39.3105L39.5899-37.916C39.5899-37.248 39.7207-37.1309 40.3672-37.1309ZM47.3438-37.1309L48.7246-37.1309C49.3711-37.1309 49.502-37.248 49.502-37.916L49.502-39.3105C49.502-39.9707 49.3711-40.0664 48.7246-40.0664L47.3438-40.0664C46.6484-40.0664 46.5176-39.9707 46.5176-39.3105L46.5176-37.916C46.5176-37.248 46.6484-37.1309 47.3438-37.1309ZM54.2578-37.1309L55.6387-37.1309C56.2852-37.1309 56.4863-37.248 56.4863-37.916L56.4863-39.3105C56.4863-39.9707 56.2852-40.0664 55.6387-40.0664L54.2578-40.0664C53.5625-40.0664 53.4102-39.9707 53.4102-39.3105L53.4102-37.916C53.4102-37.248 53.5625-37.1309 54.2578-37.1309ZM33.4531-30.3145L34.834-30.3145C35.5293-30.3145 35.6817-30.4316 35.6817-31.0996L35.6817-32.4941C35.6817-33.1191 35.5293-33.2363 34.834-33.2363L33.4531-33.2363C32.8067-33.2363 32.6055-33.1191 32.6055-32.4941L32.6055-31.0996C32.6055-30.4316 32.8067-30.3145 33.4531-30.3145ZM40.3672-30.3145L41.7481-30.3145C42.4434-30.3145 42.5742-30.4316 42.5742-31.0996L42.5742-32.4941C42.5742-33.1191 42.4434-33.2363 41.7481-33.2363L40.3672-33.2363C39.7207-33.2363 39.5899-33.1191 39.5899-32.4941L39.5899-31.0996C39.5899-30.4316 39.7207-30.3145 40.3672-30.3145ZM47.3438-30.3145L48.7246-30.3145C49.3711-30.3145 49.502-30.4316 49.502-31.0996L49.502-32.4941C49.502-33.1191 49.3711-33.2363 48.7246-33.2363L47.3438-33.2363C46.6484-33.2363 46.5176-33.1191 46.5176-32.4941L46.5176-31.0996C46.5176-30.4316 46.6484-30.3145 47.3438-30.3145ZM54.2578-30.3145L55.6387-30.3145C56.2852-30.3145 56.4863-30.4316 56.4863-31.0996L56.4863-32.4941C56.4863-33.1191 56.2852-33.2363 55.6387-33.2363L54.2578-33.2363C53.5625-33.2363 53.4102-33.1191 53.4102-32.4941L53.4102-31.0996C53.4102-30.4316 53.5625-30.3145 54.2578-30.3145ZM33.4531-23.4844L34.834-23.4844C35.5293-23.4844 35.6817-23.6016 35.6817-24.2617L35.6817-25.6211C35.6817-26.2891 35.5293-26.4063 34.834-26.4063L33.4531-26.4063C32.8067-26.4063 32.6055-26.2891 32.6055-25.6211L32.6055-24.2617C32.6055-23.6016 32.8067-23.4844 33.4531-23.4844ZM40.3672-23.4844L41.7481-23.4844C42.4434-23.4844 42.5742-23.6016 42.5742-24.2617L42.5742-25.6211C42.5742-26.2891 42.4434-26.4063 41.7481-26.4063L40.3672-26.4063C39.7207-26.4063 39.5899-26.2891 39.5899-25.6211L39.5899-24.2617C39.5899-23.6016 39.7207-23.4844 40.3672-23.4844ZM47.3438-23.4844L48.7246-23.4844C49.3711-23.4844 49.502-23.6016 49.502-24.2617L49.502-25.6211C49.502-26.2891 49.3711-26.4063 48.7246-26.4063L47.3438-26.4063C46.6484-26.4063 46.5176-26.2891 46.5176-25.6211L46.5176-24.2617C46.5176-23.6016 46.6484-23.4844 47.3438-23.4844Z" />
</svg>