<svg xmlns="http://www.w3.org/2000/svg" viewBox="6.83594 -72.9707 75.45 75.43">
  <path d="M44.5527 2.4629C65.3809 2.4629 82.2832-14.4258 82.2832-35.2539C82.2832-56.082 65.3809-72.9707 44.5527-72.9707C23.7383-72.9707 6.83594-56.082 6.83594-35.2539C6.83594-14.4258 23.7383 2.4629 44.5527 2.4629ZM44.5527-0.95119C25.5762-0.95119 10.2285-16.2774 10.2285-35.2539C10.2285-54.2305 25.5762-69.5566 44.5527-69.5566C63.5293-69.5566 78.8555-54.2305 78.8555-35.2539C78.8555-16.2774 63.5293-0.95119 44.5527-0.95119ZM32.8262-53.9101C31.8145-51.6641 31.3262-49.4316 31.3262-47.1777C31.3262-39.5566 36.7559-33.8809 44.5527-33.8809C52.3496-33.8809 57.7656-39.5566 57.7656-47.1777C57.7656-49.4316 57.291-51.6641 56.2793-53.9101C56.0371-54.5976 55.2246-54.6738 54.7324-54.0898L49.6328-48.9492L45.3301-54.5371C44.8926-55.1348 44.2129-55.1348 43.7754-54.5371L39.459-48.9492L34.3594-54.0898C33.9024-54.6738 33.0547-54.5976 32.8262-53.9101ZM43.4492-12.2481C43.4492-11.6582 43.9141-11.1719 44.5527-11.1719C54.5684-11.1719 63.7383-17.5977 66.7578-26.752C67.0703-27.543 66.7227-28.1895 65.8555-28.1895C55.9102-28.1895 47.7403-21.8731 44.8809-12.8106L45.6914-12.5781L45.6914-35.6777L43.4492-35.6777ZM41.8242-17.9102C38-24.166 31.1211-28.1895 23.2363-28.1895C22.4043-28.1895 22.043-27.543 22.334-26.752C25.1465-18.3828 32.9902-12.2969 41.998-11.3652C41.8867-11.6504 41.8242-11.9492 41.8242-12.2481Z" />
</svg>