<svg xmlns="http://www.w3.org/2000/svg" viewBox="9.76562 -64.3008 81.69 58.09">
  <path d="M71.8262-19.9258L70.3574-16.4297L89.7481-16.4297C90.7286-16.4297 91.4512-17.1797 91.4512-18.1738C91.4512-19.1543 90.7286-19.9258 89.7481-19.9258ZM81.7618-23.9531L87.4883-23.9531C87.8653-23.9531 88.2207-24.0156 88.5059-24.2598C90.0879-25.5 91.1055-27.3535 91.1055-29.4297C91.1055-32.9766 88.1856-35.8887 84.6602-35.8887C81.086-35.8887 78.1524-32.9766 78.1524-29.4297C78.1524-27.3535 79.1973-25.5 80.7442-24.2598C81.0371-24.0156 81.4063-23.9531 81.7618-23.9531ZM84.6602-12.0801C85.8301-12.0801 86.6856-12.9922 86.6856-14.1758L86.6856-24.1973L82.502-24.1973L82.502-14.1758C82.502-12.9922 83.4414-12.0801 84.6602-12.0801ZM48.7129-6.20701C55.4278-6.20701 60.7149-11.4453 60.7149-18.1738C60.7149-24.8887 55.4278-30.1621 48.7129-30.1621C41.998-30.1621 36.7109-24.8887 36.7109-18.1738C36.7109-11.4453 41.998-6.20701 48.7129-6.20701ZM48.7129-9.35352C43.8106-9.35352 39.8926-13.2578 39.8926-18.1738C39.8926-23.1113 43.8106-26.9941 48.7129-26.9941C53.6504-26.9941 57.5332-23.1113 57.5332-18.1738C57.5332-13.2578 53.6504-9.35352 48.7129-9.35352ZM9.76562-17.5801L9.76562-14.2617L38.877-14.2617L38.877-17.5801ZM9.76562-63.7149L9.76562-60.4316C13.1621-60.8848 17.0664-61.0312 21.9238-61.0312L26.8535-61.0312C37.9063-61.0312 46.0488-57.2637 56.123-48.4453C57.5918-47.1504 58.209-46.9082 59.7285-46.4433L64.4512-44.9277C69.6211-43.293 71.6934-40.8496 71.6934-36L71.6934-25.4043C71.6934-20.1309 69.3164-17.5801 64.3906-17.5801L58.8945-17.5801L58.8945-14.2617L64.3906-14.2617C71.5625-14.2617 74.9981-17.8848 74.9981-25.4043L74.9981-36C74.9981-42.4102 72.0879-45.9863 65.2774-48.3086L59.1172-50.4024C49.9082-57.6992 41.0117-64.3008 26.8535-64.3008L21.9238-64.3008C17.1563-64.3008 13.2168-64.1543 9.76562-63.7149Z"/>
</svg>