<svg xmlns="http://www.w3.org/2000/svg" viewBox="4.7168 -80.8692 80.74 91.23">
  <path d="M45.0957 10.3614C61.4434 10.3614 69.752 6.21879 69.752-2.10936L69.752-65.4844C69.752-75.2989 60.836-80.8692 45.0957-80.8692C29.3692-80.8692 20.4395-75.2989 20.4395-65.4844L20.4395-2.10936C20.4395 6.21879 28.7481 10.3614 45.0957 10.3614ZM45.1309-42.9238C41.1875-42.9238 35.4961-42.6094 33.586-42.6094C30.7696-42.6094 29.4297-43.7109 29.1719-46.752L28.6426-52.9336C28.1758-58.2657 30.918-60.7227 45.1309-60.7227C59.3438-60.7227 62.0997-58.2657 61.6329-52.9336L61.0899-46.752C60.8321-43.7109 59.4922-42.6094 56.6758-42.6094C54.7793-42.6094 48.336-42.9238 45.1309-42.9238ZM45.1309-2.11718C32.1739-2.11718 28.375-3.94336 28.9864-9.35156L29.3477-12.6973C29.8204-17.0254 33.4864-18.5098 45.1309-18.5098C56.7891-18.5098 60.4414-17.0254 60.9278-12.6973L61.254-9.35156C61.8516-3.94336 58.0665-2.11718 45.1309-2.11718ZM21.8262-55.5977L5.39454-39.3906C4.7168-38.7129 4.7168-37.6347 5.39454-37.0136C6.00196-36.3496 7.06643-36.3359 7.75784-37.0136L21.8262-50.8847ZM68.3653-26.4375L68.3653-21.6758L82.3985-7.8535C83.0899-7.16208 84.1544-7.17576 84.8106-7.8535C85.4532-8.4746 85.4532-9.55273 84.8106-10.2305Z"/>
</svg>