<svg xmlns="http://www.w3.org/2000/svg" viewBox="6.06833 -77.6641 85.69 83">
  <path d="M10.8203-52.9746L12.1172-52.9746C12.6426-52.9746 13.0293-53.2578 13.1524-53.7285L13.1524-57.3125L9.76562-60.6992L9.76562-54.0293C9.76562-53.3945 10.2207-52.9746 10.8203-52.9746ZM10.8203-25.3242L12.1172-25.3242C12.752-25.3242 13.1719-25.7793 13.1719-26.3652L13.1719-44.6348C13.1719-45.2344 12.752-45.6895 12.1172-45.6895L10.8203-45.6895C10.2207-45.6895 9.76562-45.2344 9.76562-44.6348L9.76562-26.3652C9.76562-25.7793 10.2207-25.3242 10.8203-25.3242ZM10.8203 2.31837L12.1172 2.31837C12.752 2.31837 13.1719 1.89844 13.1719 1.26367L13.1719-17.0195C13.1719-17.6191 12.752-18.0742 12.1172-18.0742L10.8203-18.0742C10.2207-18.0742 9.76562-17.6191 9.76562-17.0195L9.76562 1.26367C9.76562 1.89844 10.2207 2.31837 10.8203 2.31837ZM82.1719-53.0098L83.4688-53.0098C84.1035-53.0098 84.5235-53.4297 84.5235-54.0645L84.5235-72.3125C84.5235-72.9473 84.1035-73.3672 83.4688-73.3672L82.1719-73.3672C81.5723-73.3672 81.1172-72.9473 81.1172-72.3125L81.1172-54.0645C81.1172-53.4297 81.5723-53.0098 82.1719-53.0098ZM84.5235-12.4199L84.5235-17.0547C84.5235-17.6543 84.1035-18.1094 83.4688-18.1094L82.1719-18.1094C81.8106-18.1094 81.5332-17.9277 81.4238-17.6348L81.4238-15.5195ZM74.4922-22.5L80.7676-33.375L82.0723-32.6289C83.3535-31.8769 84.6309-32.1465 85.25-33.2383L86.0606-34.6426C86.6797-35.748 86.3106-36.998 85.0157-37.75L83.711-38.5176L87.9141-45.8281C91.7559-52.4726 87.8086-59.9043 77.1778-66.0293C66.6094-72.1191 58.25-71.834 54.4082-65.1406L50.17-57.8652L48.8653-58.5976C47.6055-59.3496 46.3203-59.0234 45.6875-57.9316L44.8633-56.5625C44.2305-55.4707 44.6406-54.2285 45.9082-53.5039L47.2266-52.7715L46.1407-50.8379ZM62.3086-40.1348C59.6329-41.707 55.6524-43.6484 54.375-44.416C52.3653-45.5605 51.9317-46.9004 52.9649-49.1484L54.959-53.4844C56.752-57.3418 59.629-57.9765 69.3555-52.3867C79.0957-46.748 79.9668-43.9785 77.5391-40.4902L74.793-36.5449C73.3692-34.4785 71.959-34.2695 69.9629-35.4004C68.6992-36.1191 64.4922-38.8652 62.3086-40.1348ZM41.6075-4.34961C52.3946 1.89844 59.8379 2.46289 63.5528-3.5664L64.7754-5.71678L59.377-11.1367L59.1524-10.6445C57.3184-7.76761 54.0762-8.25785 46.4336-12.6641C37.6719-17.7188 35.6622-20.5449 38.2911-24.0684L39.5469-25.7598C40.4395-27.0176 41.5918-27.4394 43.5664-26.9121L36.459-34.041L30.1895-23.1797C26.502-16.8711 30.6426-10.6719 41.6075-4.34961ZM86.1211 4.72075C86.7579 5.32231 87.795 5.33599 88.3965 4.72075C89.0821 4.03519 89.0469 3.06058 88.3965 2.41018L9.00781-76.9786C8.42773-77.5938 7.35545-77.6641 6.70506-76.9786C6.06833-76.3418 6.06833-75.3047 6.70506-74.7031Z"/>
</svg>