<svg xmlns="http://www.w3.org/2000/svg" viewBox="9.76562 -80.8692 79.51 91.23">
  <path d="M89.2794-53.7656L89.2794-70.9121C89.2794-72.4414 88.0138-72.9883 86.8204-72.2598L73.0841-63.8399C71.8966-63.1035 71.8477-61.5742 73.0841-60.8027L86.7852-52.4668C87.9786-51.7383 89.2794-52.2715 89.2794-53.7656ZM39.6094 10.3614C55.9923 10.3614 64.3009 6.21879 64.3009-2.10936L64.3009-65.4844C64.3009-75.2989 55.3848-80.8692 39.6094-80.8692C23.9043-80.8692 14.9883-75.2989 14.9883-65.4844L14.9883-2.10936C14.9883 6.21879 23.2969 10.3614 39.6094 10.3614ZM39.6094 6.98829C25.6036 6.98829 18.3399 3.88478 18.3399-2.21874L18.3399-65.4844C18.3399-73.1348 26.0469-77.4824 39.6094-77.4824C53.2559-77.4824 60.9493-73.1348 60.9493-65.4844L60.9493-2.21874C60.9493 3.88478 53.6993 6.98829 39.6094 6.98829ZM39.6446-42.8145C42.8438-42.8145 49.2325-42.4863 51.1153-42.4863C53.8907-42.4863 55.2305-43.5742 55.4747-46.5879L56.0039-52.7363C56.4571-57.9649 53.7344-60.3946 39.6446-60.3946C25.5547-60.3946 22.8672-57.9649 23.3204-52.7363L23.8633-46.5879C24.1075-43.5742 25.4336-42.4863 28.2227-42.4863C30.0918-42.4863 35.7422-42.8145 39.6446-42.8145ZM39.6446-2.43164C52.4649-2.43164 56.2227-4.24414 55.625-9.54884L55.2989-12.8535C54.8399-17.1895 51.2149-18.6465 39.6446-18.6465C28.1094-18.6465 24.4981-17.1895 24.0254-12.8535L23.6641-9.54884C23.1153-4.24414 26.8243-2.43164 39.6446-2.43164ZM16.6172-47.25L16.6172-54.2188L12.5684-54.2188C10.9121-54.2188 9.76562-53.2129 9.76562-51.7324L9.76562-49.7363C9.76562-48.291 10.9121-47.25 12.5684-47.25ZM62.7071-47.25L66.7559-47.25C68.4122-47.25 69.5587-48.291 69.5587-49.7363L69.5587-51.7324C69.5587-53.2129 68.4122-54.2188 66.7559-54.2188L62.7071-54.2188Z"/>
</svg>