<svg xmlns="http://www.w3.org/2000/svg" viewBox="9.76562 -78.5528 71.06 86.51">
  <path d="M45.2969-75.2207C53.9649-75.2207 61.6895-71.9238 67.5078-66.3106C68.2949-65.5781 69.2774-65.3633 70.0098-65.9922C70.7559-66.6348 70.7559-67.8106 69.9414-68.5703C63.5078-74.8262 54.8145-78.5528 45.2969-78.5528C35.7442-78.5528 27.0508-74.8262 20.6523-68.5703C19.8379-67.8106 19.8379-66.6348 20.584-65.9922C21.2813-65.3633 22.2988-65.5781 23.0508-66.3106C28.8692-71.9238 36.5938-75.2207 45.2969-75.2207ZM45.2969-60.4101C49.8086-60.4101 54.0625-58.9844 56.9648-55.9844C57.7578-55.2852 58.7129-55.0859 59.4453-55.6797C60.1778-56.3711 60.1914-57.5664 59.3496-58.2852C55.6289-61.7324 50.6797-63.7071 45.2969-63.7071C39.9004-63.7071 34.9297-61.7324 31.2441-58.2852C30.3672-57.5664 30.3809-56.3711 31.1484-55.6797C31.8457-55.0859 32.8008-55.3203 33.6289-55.9844C36.8125-58.668 40.75-60.4101 45.2969-60.4101ZM9.76562 3.96682C9.76562 6.17581 11.5352 7.95901 13.793 7.95901L17.2715 7.95901C19.4941 7.95901 21.2637 6.17581 21.2637 3.96682L21.2637 0.40822L69.2949 0.40822L69.2949 3.96682C69.2949 6.17581 71.0645 7.95901 73.2871 7.95901L76.8008 7.95901C79.0586 7.95901 80.8282 6.17581 80.8282 3.96682L80.8282-14.7715C80.8282-20.2988 79.5879-23.0137 77.0078-26.1973L74.1778-29.7148L70.709-39.4648C68.9239-44.541 65.8457-46.6816 61.6485-47.1348C59.5274-47.4141 52.459-47.5742 45.2969-47.5742C38.0996-47.5742 31.0313-47.4141 28.9102-47.1348C24.6992-46.6816 21.6563-44.541 19.8848-39.4648L16.416-29.7148L13.5859-26.1973C10.9707-23.0137 9.76562-20.2988 9.76562-14.7715ZM23.5762-31.0117C22.377-31.0117 21.9434-31.9199 22.3692-33.1406L24.2656-38.6348C25.2383-41.5176 26.6953-42.6679 29.3477-43.0176C31.7148-43.3105 36.6426-43.498 45.2969-43.498C53.9512-43.498 58.8516-43.3105 61.2324-43.0176C63.8848-42.6679 65.3203-41.5176 66.293-38.6348L68.1895-33.1406C68.6152-31.9199 68.168-31.0117 66.9688-31.0117ZM19.9492-11.4082C18.3887-11.4082 17.3086-12.4883 17.3086-14.0351L17.3086-19.1152C17.3086-20.6269 18.3887-21.6934 19.9492-21.6934C21.4883-21.6934 22.5547-20.6406 22.5547-19.1152L22.5547-14.0351C22.5547-12.4746 21.4883-11.4082 19.9492-11.4082ZM38.0332-12.6543C36.8281-12.6543 36.1524-13.3652 36.1524-14.625L36.1524-18.5254C36.1524-19.7715 36.8281-20.4824 38.0332-20.4824L52.2656-20.4824C53.4844-20.4824 54.1953-19.7715 54.1953-18.5254L54.1953-14.625C54.1953-13.3652 53.4844-12.6543 52.2656-12.6543ZM70.7403-11.4082C69.2637-11.4082 68.1485-12.5234 68.1485-14.0351L68.1485-19.1152C68.1485-20.5918 69.2637-21.6934 70.7403-21.6934C72.2793-21.6934 73.3594-20.6406 73.3594-19.1152L73.3594-14.0351C73.3594-12.4746 72.2793-11.4082 70.7403-11.4082Z" />
</svg>