<svg xmlns="http://www.w3.org/2000/svg" viewBox="6.83594 -72.9707 75.45 75.43">
  <path d="M44.5527 2.4629C65.3809 2.4629 82.2832-14.4258 82.2832-35.2539C82.2832-56.082 65.3809-72.9707 44.5527-72.9707C23.7383-72.9707 6.83594-56.082 6.83594-35.2539C6.83594-14.4258 23.7383 2.4629 44.5527 2.4629ZM44.5527-0.95119C25.5762-0.95119 10.2285-16.2774 10.2285-35.2539C10.2285-54.2305 25.5762-69.5566 44.5527-69.5566C63.5293-69.5566 78.8555-54.2305 78.8555-35.2539C78.8555-16.2774 63.5293-0.95119 44.5527-0.95119ZM36.5078-22.3359L60.043-22.3359C60.7285-22.3359 61.2422-22.877 61.2422-23.6113C61.2422-24.3672 60.7285-24.8945 60.043-24.8945L36.8242-24.8945C35.2364-24.8945 34.5039-25.4512 34.3223-26.877L33.8946-29.9629L60.0762-29.9629C62.6543-29.9629 63.7598-31.3828 64.1289-33.8418L65.875-45.3769C65.9238-45.5508 65.9727-45.8926 65.9727-46.0039C65.9727-46.7344 65.4727-47.207 64.5957-47.207L31.2989-47.207L30.8301-50.8379C30.6914-51.9062 29.8809-52.5644 28.6797-52.5644L21.0723-52.5644C20.3867-52.5644 19.8594-52.0586 19.8594-51.2891C19.8594-50.5332 20.3867-50.041 21.0723-50.041L28.3965-50.041L31.9102-26.0371C32.2578-23.7285 33.6192-22.3359 36.5078-22.3359ZM38.4961-12.8691C40.2871-12.8691 41.6602-14.2559 41.6602-16.0195C41.6602-17.8106 40.2871-19.1973 38.4961-19.1973C36.7188-19.1973 35.3457-17.8106 35.3457-16.0195C35.3457-14.2559 36.7188-12.8691 38.4961-12.8691ZM56.6641-12.8691C58.3848-12.8691 59.8066-14.2559 59.8066-16.0195C59.8066-17.8106 58.3848-19.1973 56.6641-19.1973C54.8867-19.1973 53.4648-17.8106 53.4648-16.0195C53.4648-14.2559 54.8867-12.8691 56.6641-12.8691Z" />
</svg>