<svg xmlns="http://www.w3.org/2000/svg" viewBox="9.76562 -74.3965 80.06 78.29">
  <path d="M13.4902-2.35939L86.1192-2.35939L86.1192-4.03127C86.1192-4.80472 85.6211-5.26761 84.834-5.26761L82.3926-5.26761L82.3926-51.0098L86.0157-51.0098C87.1778-51.0098 87.7852-51.7832 87.7852-52.6621C87.7852-53.207 87.461-53.8027 86.7071-54.252L53.7735-73.2617C52.4922-74.0137 51.1348-74.3965 49.8047-74.3965C48.461-74.3965 47.0684-74.0137 45.7871-73.2617L12.8535-54.252C12.1211-53.8027 11.8106-53.207 11.8106-52.6621C11.8106-51.7832 12.3828-51.0098 13.5801-51.0098L17.2168-51.0098L17.2168-5.26761L14.7754-5.26761C13.9883-5.26761 13.4902-4.80472 13.4902-4.03127ZM20.3985-5.26761L20.3985-54.7363L47.6075-70.1855C48.2793-70.5703 49.0489-70.7871 49.8047-70.7871C50.5469-70.7871 51.2813-70.5703 51.9531-70.1855L79.2246-54.7363L79.2246-5.26761ZM11.418 3.88869L88.1778 3.88869C89.0625 3.88869 89.8301 3.1211 89.8301 2.22266C89.8301 1.30273 89.0625 0.5703 88.1778 0.5703L11.418 0.5703C10.4981 0.5703 9.76562 1.30273 9.76562 2.22266C9.76562 3.1211 10.4981 3.88869 11.418 3.88869ZM50.1328-18.543C55.5-18.543 60.5274-21.0469 62.1153-25.9766C62.3243-26.5625 62.4571-27.043 62.4571-27.6426C62.4571-28.461 61.9297-29.0098 61.1465-29.0098C60.3906-29.0098 59.9317-28.5586 59.7383-27.7949C58.7774-23.6094 54.8613-21.0742 50.1328-21.0742C42.5743-21.0742 38.9922-27.3946 38.9922-34.9414C38.9922-42.4102 42.6426-48.584 50.1192-48.584C54.8418-48.584 58.7442-45.5293 59.5508-41.6738C59.7578-40.9317 60.0977-40.5078 60.9375-40.5078C61.7637-40.5078 62.2696-41.043 62.2696-41.8965C62.2696-42.3946 62.1172-42.9512 61.8946-43.5782C60.211-48.3223 55.5117-51.1504 50.1192-51.1504C40.9922-51.1504 36.0664-44.2481 36.0664-34.9414C36.0664-25.7246 40.8262-18.543 50.1328-18.543ZM49.8047-14.0078C50.3399-14.0078 50.7149-14.3477 50.7149-14.8965L50.7149-54.5371C50.7149-55.0508 50.3399-55.4395 49.8047-55.4395C49.2559-55.4395 48.8672-55.0508 48.8672-54.5371L48.8672-14.8965C48.8672-14.3477 49.2559-14.0078 49.8047-14.0078Z"/>
</svg>