<svg xmlns="http://www.w3.org/2000/svg" viewBox="6.83594 -72.3438 88.9 74.09">
  <path d="M6.83594-27.8984C6.83594-16.9648 10.832-6.90233 17.4082 0.851576C18.1543 1.74415 19.3887 1.709 20.2676 0.865248L28.3906-7.22265C29.1172-7.93554 29.1309-8.89257 28.4883-9.70312C24.4297-14.7363 22.0859-21.0488 22.0859-27.8984C22.0859-42.9082 33.3926-55.2812 47.9141-56.9609C48.9746-57.0586 49.707-57.875 49.707-58.9004L49.707-70.209C49.707-71.4297 48.7793-72.3438 47.5586-72.211C24.7988-70.3359 6.83594-51.209 6.83594-27.8984ZM95.7325-27.8984C95.7325-51.209 77.8184-70.3359 55.0098-72.211C53.7891-72.3438 52.8613-71.4297 52.8613-70.209L52.8613-58.9004C52.8613-57.875 53.5938-57.0586 54.6895-56.9609C69.1758-55.2812 80.4961-42.9082 80.4961-27.8984C80.4961-21.0488 78.1524-14.7363 74.0801-9.70312C73.4512-8.89257 73.4649-7.93554 74.1778-7.22265L82.336 0.865248C83.2149 1.709 84.4844 1.709 85.2657 0.781264C91.7852-6.97265 95.7325-17 95.7325-27.8984ZM51.3301-14.8047C54.3477-14.8047 57.3086-15.7793 59.3731-17.8301C60.3614-18.8047 61.4864-20.7598 61.4864-21.8945C61.4864-22.7559 60.791-23.1641 60.2383-23.1641C59.4668-23.1641 59.1973-22.6992 58.8984-22.0586C57.5254-18.9727 55.1016-17.1836 51.3438-17.1836C45.5156-17.1836 42.5332-21.6016 42.5332-27.4785C42.5332-33.3828 45.5215-37.8437 51.2949-37.8437C54.7715-37.8437 57.6152-36.1387 58.8848-32.8496C59.1484-32.168 59.6133-31.793 60.2031-31.793C60.9453-31.793 61.4375-32.3066 61.4375-33.0762C61.4375-34.3652 60.377-36.0605 59.3106-37.1621C57.3164-39.1563 54.5371-40.2227 51.2813-40.2227C43.8281-40.2227 39.7246-34.7481 39.7246-27.4785C39.7246-20.0039 43.9785-14.8047 51.3301-14.8047ZM51.1485-10.4961C51.6485-10.4961 52.0371-10.9199 52.0371-11.4336L52.0371-43.5938C52.0371-44.1074 51.6485-44.4961 51.1485-44.4961C50.6348-44.4961 50.2246-44.1074 50.2246-43.5938L50.2246-11.4336C50.2246-10.9199 50.6348-10.4961 51.1485-10.4961Z"/>
</svg>