<svg xmlns="http://www.w3.org/2000/svg" viewBox="9.76562 -65.2598 67.21 60.03">
  <path d="M19.6914-46.7324L23.0567-46.7324L23.0567-57.3321C23.0567-60.082 24.7071-61.8945 27.1407-61.8945L59.5977-61.8945C62.0313-61.8945 63.6465-60.082 63.6465-57.3321L63.6465-46.7324L67.047-46.7324L67.047-57.2891C67.047-62.0996 64.0762-65.2598 59.6016-65.2598L27.1016-65.2598C22.6621-65.2598 19.6914-62.0996 19.6914-57.2891ZM9.76562-19.0684C9.76562-15.1152 12.5117-12.4258 16.6133-12.4258L70.1387-12.4258C74.2266-12.4258 76.9727-15.1152 76.9727-19.0684L76.9727-42.1621C76.9727-46.1367 74.2266-48.791 70.1387-48.791L64.963-48.791C60.8751-48.791 58.129-46.1367 58.129-42.1621L58.129-30.7637L28.6094-30.7637L28.6094-42.1621C28.6094-46.1367 25.8633-48.791 21.7754-48.791L16.6133-48.791C12.5117-48.791 9.76562-46.1367 9.76562-42.1621ZM13.25-19.0957L13.25-42.1348C13.25-44.084 14.6407-45.4043 16.709-45.4043L21.666-45.4043C23.7344-45.4043 25.1387-44.084 25.1387-42.1348L25.1387-27.3984L61.5782-27.3984L61.5782-42.1348C61.5782-44.084 63.004-45.4043 65.0723-45.4043L70.0294-45.4043C72.0977-45.4043 73.4883-44.084 73.4883-42.1348L73.4883-19.0957C73.4883-17.1328 72.0977-15.8613 70.0294-15.8613L16.709-15.8613C14.6407-15.8613 13.25-17.1328 13.25-19.0957ZM21.1016-5.22653L22.9024-5.22653C24.5938-5.22653 25.5664-6.18551 25.5664-7.8906L25.5664-14.2129L18.459-14.2129L18.459-7.8906C18.459-6.18551 19.3614-5.22653 21.1016-5.22653ZM63.8008-5.22653L65.6368-5.22653C67.377-5.22653 68.2794-6.18551 68.2794-7.8906L68.2794-14.2129L61.1719-14.2129L61.1719-7.8906C61.1719-6.18551 62.1446-5.22653 63.8008-5.22653Z"/>
</svg>