<svg xmlns="http://www.w3.org/2000/svg" viewBox="9.76562 -70.4316 80.96 70.55">
  <path d="M9.76562-2.00196C9.76562-0.703126 10.5918 0.123049 11.8906 0.123049L89.0781 0.123049C89.9414 0.123049 90.7305-0.525395 90.7305-1.49415C90.7305-2.44924 89.9414-3.11136 89.0781-3.11136L13.7989-3.11136C13.2578-3.11136 13.0703-3.28518 13.0703-3.86136L13.0703-68.7441C13.0703-69.6289 12.4219-70.4316 11.4531-70.4316C10.4277-70.4316 9.76562-69.6289 9.76562-68.7441ZM68.4004-49.8184L68.4004-25.1797C68.4004-24.0937 69.375-23.748 70.3222-24.3223L88.6387-36.3848C89.6016-36.9668 89.5742-38.0801 88.625-38.6484L70.2734-50.6758C69.3613-51.25 68.4004-50.8906 68.4004-49.8184ZM11.8867-35.7851L73.1855-35.7851C74.1113-35.7851 74.8926-36.5801 74.8926-37.5059C74.8926-38.4317 74.1113-39.2266 73.1855-39.2266L11.8867-39.2266C10.9609-39.2266 10.2012-38.4317 10.2012-37.5059C10.2012-36.5801 10.9609-35.7851 11.8867-35.7851Z" />
</svg>