<svg xmlns="http://www.w3.org/2000/svg" viewBox="6.83594 -72.9707 75.45 75.43">
  <path d="M44.5527 2.4629C65.3809 2.4629 82.2832-14.4258 82.2832-35.2539C82.2832-56.082 65.3809-72.9707 44.5527-72.9707C23.7383-72.9707 6.83594-56.082 6.83594-35.2539C6.83594-14.4258 23.7383 2.4629 44.5527 2.4629ZM44.5527-0.95119C25.5762-0.95119 10.2285-16.2774 10.2285-35.2539C10.2285-54.2305 25.5762-69.5566 44.5527-69.5566C63.5293-69.5566 78.8555-54.2305 78.8555-35.2539C78.8555-16.2774 63.5293-0.95119 44.5527-0.95119ZM24.8145-19.8067C24.8145-18.4863 25.6758-17.6035 26.9961-17.6035L64.4297-17.6035C65.1152-17.6035 65.7324-18.1504 65.7324-18.8926C65.7324-19.6348 65.1504-20.252 64.4297-20.252L27.8633-20.252C27.5332-20.252 27.4766-20.3086 27.4766-20.6035L27.4766-52.0762C27.4766-52.8184 26.8945-53.4356 26.1524-53.4356C25.3965-53.4356 24.8145-52.8184 24.8145-52.0762ZM27.0195-45.3672L25.1758-43.4531L33.1211-35.5879C33.8594-34.8711 34.6387-34.5234 35.5781-34.5234C36.4551-34.5234 37.2344-34.8711 37.9864-35.5879L45.8027-43.3457C46.1953-43.7031 46.5742-43.7031 46.9316-43.332L55.4238-34.6856L52.168-31.3594C51.5293-30.7696 51.8691-29.7559 52.7852-29.541L63.3555-27.3281C64.2656-27.127 64.959-27.8418 64.7441-28.7383L62.5391-39.3438C62.3242-40.2383 61.373-40.543 60.6855-39.8692L57.3164-36.5645L48.793-45.1992C48.0899-45.9649 47.2617-46.334 46.3359-46.334C45.459-46.334 44.6934-45.9649 43.9141-45.1992L36.125-37.5176C35.7676-37.1465 35.4102-37.1465 34.9824-37.5176Z" />
</svg>