<svg xmlns="http://www.w3.org/2000/svg" viewBox="9.76562 -71.2598 71.94 71.96">
  <path d="M22.4297 0.697266C29.4063 0.697266 35.0938-5.02539 35.0938-12.0156L35.0938-58.5469C35.0938-65.5371 29.4063-71.2598 22.4297-71.2598C15.4883-71.2598 9.76562-65.5371 9.76562-58.5469C9.76562-51.5215 15.4883-45.8535 22.4297-45.8535L33.4824-45.8535C34.375-45.8535 35.0664-46.5801 35.0664-47.4512C35.0664-48.3438 34.375-49.0352 33.4824-49.0352L22.4297-49.0352C17.2578-49.0352 13.002-53.3262 13.002-58.5469C13.002-63.7324 17.2578-68.0097 22.4297-68.0097C27.6016-68.0097 31.8926-63.7324 31.8926-58.5469L31.8926-12.0156C31.8926-6.79494 27.6016-2.55276 22.4297-2.55276C17.2578-2.55276 13.002-6.79494 13.002-12.0156C13.002-17.2363 17.2578-21.5273 22.4297-21.5273L69.043-21.5273C74.1797-21.5273 78.4707-17.2363 78.4707-12.0156C78.4707-6.79494 74.1797-2.55276 69.043-2.55276C63.8711-2.55276 59.5938-6.79494 59.5938-12.0156L59.5938-58.5469C59.5938-63.7324 63.8711-68.0097 69.043-68.0097C74.1797-68.0097 78.4707-63.7324 78.4707-58.5469C78.4707-53.3262 74.1797-49.0352 69.043-49.0352L33.4824-49.0352C32.6113-49.0352 31.9199-48.3438 31.9199-47.4512C31.9199-46.5801 32.6113-45.8535 33.4824-45.8535L69.043-45.8535C75.9844-45.8535 81.707-51.5215 81.707-58.5469C81.707-65.5371 75.9844-71.2598 69.043-71.2598C62.0664-71.2598 56.3437-65.5371 56.3437-58.5469L56.3437-12.0156C56.3437-5.02539 62.0664 0.697266 69.043 0.697266C75.9844 0.697266 81.707-5.02539 81.707-12.0156C81.707-19.041 75.9844-24.6953 69.043-24.6953L22.4297-24.6953C15.4883-24.6953 9.76562-19.041 9.76562-12.0156C9.76562-5.02539 15.4883 0.697266 22.4297 0.697266Z" />
</svg>