<svg xmlns="http://www.w3.org/2000/svg" viewBox="9.76562 -71.0879 84.92 71.67">
  <path d="M19.7071 0.580091L84.7266 0.580091C91.3887 0.580091 94.6817-2.65038 94.6817-9.30665L94.6817-47.5566C94.6817-54.2129 91.3887-57.4434 84.7266-57.4434L19.7071-57.4434C13.0723-57.4434 9.76562-54.2129 9.76562-47.5566L9.76562-9.30665C9.76562-2.65038 13.0723 0.580091 19.7071 0.580091ZM33.9844-55.5117L37.2071-55.5117L37.2071-63.1094C37.2071-66.1875 39.1485-67.9746 42.4727-67.9746L61.9258-67.9746C65.2988-67.9746 67.2266-66.1875 67.2266-63.1094L67.2266-55.5391L70.4629-55.5391L70.4629-62.959C70.4629-68.2402 67.3028-71.0879 61.8281-71.0879L42.5703-71.0879C37.2676-71.0879 33.9844-68.2402 33.9844-62.959ZM35.3164-25.4648L35.3164-31.5879C35.3164-33.4844 36.6133-34.7949 38.5234-34.7949L45.9551-34.7949L45.9551-42.1992C45.9551-44.1231 47.252-45.4199 49.1621-45.4199L55.2715-45.4199C57.1817-45.4199 58.4785-44.1231 58.4785-42.1992L58.4785-34.7949L65.9102-34.7949C67.8203-34.7949 69.1172-33.4844 69.1172-31.5879L69.1172-25.4648C69.1172-23.5684 67.8203-22.2578 65.9102-22.2578L58.4785-22.2578L58.4785-14.8398C58.4785-12.916 57.1817-11.6191 55.2715-11.6191L49.1621-11.6191C47.252-11.6191 45.9551-12.916 45.9551-14.8398L45.9551-22.2578L38.5234-22.2578C36.627-22.2578 35.3164-23.5684 35.3164-25.4648Z"/>
</svg>