<svg xmlns="http://www.w3.org/2000/svg" viewBox="6.83594 -71.4532 83.92 72.41">
  <path d="M48.7793-3.35545C63.2579-3.35545 74.9336-15.0312 74.9336-29.4746C74.9336-43.9531 63.2579-55.6152 48.7793-55.6152C34.336-55.6152 22.6738-43.9531 22.6738-29.4746C22.6738-15.0312 34.336-3.35545 48.7793-3.35545ZM48.7793-6.63868C36.1817-6.63868 25.9571-16.8633 25.9571-29.4746C25.9571-42.1074 36.1817-52.2969 48.7793-52.2969C61.4258-52.2969 71.6153-42.1074 71.6153-29.4746C71.6153-16.8633 61.4258-6.63868 48.7793-6.63868ZM64.2754-12.4434L66.4825-14.7402L49.584-31.6953C48.9961-32.3184 47.9375-32.2832 47.377-31.6953C46.7266-31.0527 46.7266-30.0625 47.377-29.4121ZM76.4122 0.959016C78.0313 0.959016 79.338-0.34763 79.338-2.00193C79.338-3.62108 78.0313-4.92772 76.4122-4.92772C74.7579-4.92772 73.4864-3.62108 73.4864-2.00193C73.4864-0.34763 74.7579 0.959016 76.4122 0.959016ZM87.8106-26.584C89.4512-26.584 90.7579-27.8906 90.7579-29.5098C90.7579-31.1641 89.4512-32.4356 87.8106-32.4356C86.1915-32.4356 84.8848-31.1641 84.8848-29.5098C84.8848-27.8906 86.1915-26.584 87.8106-26.584ZM76.4122-54.0645C78.0313-54.0645 79.338-55.3359 79.338-56.9766C79.338-58.6309 78.0313-59.9024 76.4122-59.9024C74.7579-59.9024 73.4864-58.6309 73.4864-56.9766C73.4864-55.3359 74.7579-54.0645 76.4122-54.0645ZM48.7793-65.5664C50.4336-65.5664 51.7051-66.8731 51.7051-68.4922C51.7051-70.1465 50.4336-71.4532 48.7793-71.4532C47.1602-71.4532 45.8535-70.1465 45.8535-68.4922C45.8535-66.8731 47.1602-65.5664 48.7793-65.5664ZM21.1953-54.0645C22.8145-54.0645 24.1211-55.3359 24.1211-56.9766C24.1211-58.6309 22.8145-59.9024 21.1953-59.9024C19.541-59.9024 18.2695-58.6309 18.2695-56.9766C18.2695-55.3359 19.541-54.0645 21.1953-54.0645ZM9.76173-26.584C11.416-26.584 12.6875-27.8906 12.6875-29.5098C12.6875-31.1641 11.416-32.4356 9.76173-32.4356C8.14258-32.4356 6.83594-31.1641 6.83594-29.5098C6.83594-27.8906 8.14258-26.584 9.76173-26.584ZM21.1953 0.959016C22.8145 0.959016 24.1211-0.34763 24.1211-2.00193C24.1211-3.62108 22.8145-4.92772 21.1953-4.92772C19.541-4.92772 18.2695-3.62108 18.2695-2.00193C18.2695-0.34763 19.541 0.959016 21.1953 0.959016Z"/>
</svg>