<svg xmlns="http://www.w3.org/2000/svg" viewBox="9.76562 -74.3496 87.23 78.19">
  <path d="M11.418 3.84181C12.3867 3.84181 13.1055 3.10938 13.1055 2.18945L13.1055-69.0293C13.1055-70.25 13.8867-71.0449 15.0235-71.0449L91.7403-71.0449C92.877-71.0449 93.6582-70.25 93.6582-69.0293L93.6582 2.18945C93.6582 3.10938 94.3907 3.84181 95.3458 3.84181C96.2794 3.84181 96.9981 3.10938 96.9981 2.18945L96.9981-69.3848C96.9981-72.3457 94.959-74.3496 91.8379-74.3496L14.9258-74.3496C11.8184-74.3496 9.76562-72.3457 9.76562-69.3848L9.76562 2.18945C9.76562 3.10938 10.4629 3.84181 11.418 3.84181ZM17.2461 2.72853L50.9199 2.72853C51.3496 2.72853 51.6817 2.41017 51.6817 1.98048L51.6817-66.8691C51.6817-67.2988 51.3496-67.6308 50.9199-67.6308L17.2461-67.6308C16.8516-67.6308 16.5196-67.2988 16.5196-66.8691L16.5196 1.98048C16.5196 2.41017 16.8516 2.72853 17.2461 2.72853ZM24.8868-27.2949C23.961-27.2949 23.2852-27.9707 23.2852-28.8965L23.2852-35.5644C23.2852-36.4765 23.961-37.1523 24.8868-37.1523C25.7637-37.1523 26.4395-36.4765 26.4395-35.5644L26.4395-28.8965C26.4395-27.9707 25.7637-27.2949 24.8868-27.2949ZM55.8438 2.72853L89.4824 2.72853C89.9258 2.72853 90.2442 2.41017 90.2442 1.98048L90.2442-66.8691C90.2442-67.2988 89.9258-67.6308 89.4824-67.6308L55.8438-67.6308C55.4141-67.6308 55.0957-67.2988 55.0957-66.8691L55.0957 1.98048C55.0957 2.41017 55.4141 2.72853 55.8438 2.72853Z"/>
</svg>