<svg xmlns="http://www.w3.org/2000/svg" viewBox="6.83594 -72.9707 75.45 75.43">
  <path d="M44.5527 2.4629C65.3809 2.4629 82.2832-14.4258 82.2832-35.2539C82.2832-56.082 65.3809-72.9707 44.5527-72.9707C23.7383-72.9707 6.83594-56.082 6.83594-35.2539C6.83594-14.4258 23.7383 2.4629 44.5527 2.4629ZM44.5527-0.95119C25.5762-0.95119 10.2285-16.2774 10.2285-35.2539C10.2285-54.2305 25.5762-69.5566 44.5527-69.5566C63.5293-69.5566 78.8555-54.2305 78.8555-35.2539C78.8555-16.2774 63.5293-0.95119 44.5527-0.95119ZM44.6445-32.7305C45.2656-32.7305 45.8516-32.9043 46.5293-33.5332L65.377-50.4238C64.5-51.002 63.3984-51.2949 62.0117-51.2949L27.2422-51.2949C25.8418-51.2949 24.7754-51.0371 23.9121-50.459L42.7461-33.5332C43.4375-32.9043 44.0371-32.7305 44.6445-32.7305ZM22.5625-21.5977L36.9863-35.9297L22.5137-48.8691C22.1563-48.2598 21.8906-47.1914 21.8906-45.9922L21.8906-24.5156C21.8906-23.3086 22.1426-22.3867 22.5625-21.5977ZM27.0508-19.2129L62.1895-19.2129C63.6133-19.2129 64.582-19.5547 65.2793-20.0078L50.7402-34.5332L47.8926-31.9785C46.8047-31.0371 45.7461-30.584 44.6445-30.584C43.5293-30.584 42.4707-31.0371 41.3965-31.9785L38.5352-34.5332L23.9961-20.0078C24.6934-19.5195 25.627-19.2129 27.0508-19.2129ZM66.7266-21.6328C67.1328-22.3867 67.3633-23.3438 67.3633-24.5156L67.3633-45.9922C67.3633-47.1914 67.1328-48.1543 66.7402-48.834L52.2891-35.9297Z" />
</svg>