<svg xmlns="http://www.w3.org/2000/svg" viewBox="6.83594 -72.9707 75.45 75.43">
  <path d="M10.2422-35.2539C10.2422-39.2422 10.9414-43.0976 12.2207-46.6387L9.04883-47.9727C7.63867-43.9824 6.83594-39.6914 6.83594-35.2539C6.83594-30.8164 7.63867-26.5254 9.0625-22.5352L12.2207-23.834C10.9766-27.375 10.2422-31.2656 10.2422-35.2539ZM29.6953-66.2246L28.4238-69.2715C20.5879-65.5332 14.2246-59.1699 10.4863-51.3477L13.5821-50.0488C16.961-57.0898 22.668-62.7969 29.6953-66.2246ZM44.5391-69.5566C48.5274-69.5566 52.3828-68.8437 55.9727-67.5996L57.2578-70.7442C53.2813-72.168 48.9902-72.9707 44.5391-72.9707C40.1016-72.9707 35.7969-72.168 31.8203-70.7442L33.1543-67.5996C36.6953-68.8789 40.5508-69.5566 44.5391-69.5566ZM75.5098-50.0625L78.6192-51.3477C74.8672-59.2051 68.4688-65.5684 60.6328-69.3203L59.3477-66.2246C66.4102-62.8105 72.1094-57.1387 75.5098-50.0625ZM78.8555-35.2539C78.8555-31.2656 78.1562-27.375 76.9121-23.8203L80.043-22.5352C81.4805-26.5117 82.2832-30.8164 82.2832-35.2539C82.2832-39.6914 81.4805-43.9609 80.043-47.9375L76.9336-46.6523C78.1914-43.0976 78.8555-39.2422 78.8555-35.2539ZM59.3477-4.28322L60.6328-1.18749C68.4688-4.93945 74.8809-11.3027 78.584-19.125L75.5234-20.4102C72.123-13.3692 66.4238-7.69728 59.3477-4.28322ZM44.5527-0.95119C40.5508-0.95119 36.6953-1.62892 33.1543-2.90822L31.834 0.236343C35.8106 1.66017 40.1152 2.4629 44.5527 2.4629C49.0039 2.4629 53.2598 1.69533 57.2363 0.250015L55.9023-2.85939C52.3477-1.62892 48.5059-0.95119 44.5527-0.95119ZM13.5957-20.4102L10.5215-19.125C14.2734-11.3027 20.6231-4.93945 28.459-1.20116L29.7305-4.2969C22.668-7.71096 16.9961-13.3828 13.5957-20.4102ZM44.5391-4.74613C61.3711-4.74613 74.9765-18.3653 74.9765-35.1836C74.9765-52.0019 61.3711-65.6074 44.5391-65.6074C27.7207-65.6074 14.1153-52.0019 14.1153-35.1836C14.1153-18.3653 27.7207-4.74613 44.5391-4.74613ZM44.5391-17.7559C37.4844-17.7559 32.5567-22.6914 32.5567-24.8399C32.5567-25.4024 33.084-25.5332 33.4512-25.2754C35.7168-23.4004 39.3731-21.668 44.5391-21.668C49.7188-21.668 53.4102-23.3653 55.6406-25.2754C56.0215-25.5332 56.5352-25.4024 56.5352-24.8399C56.5352-22.6914 51.6211-17.7559 44.5391-17.7559ZM33.5606-38.9238C31.6016-38.9238 29.8653-40.8711 29.8653-43.3672C29.8653-45.8906 31.5664-47.8379 33.5606-47.8379C35.5547-47.8379 37.3047-45.8906 37.3047-43.3672C37.3047-40.8711 35.5196-38.9238 33.5606-38.9238ZM55.5449-38.9238C53.5859-38.9238 51.8145-40.8711 51.8145-43.3672C51.8145-45.8906 53.5508-47.8379 55.5449-47.8379C57.5391-47.8379 59.2539-45.8906 59.2539-43.3672C59.2539-40.8711 57.5039-38.9238 55.5449-38.9238Z"/>
</svg>