<svg xmlns="http://www.w3.org/2000/svg" viewBox="6.83594 -72.9707 75.45 75.43">
  <path d="M44.5527 2.4629C65.3106 2.4629 82.2832-14.5098 82.2832-35.2539C82.2832-55.9981 65.3106-72.9707 44.5527-72.9707C23.8086-72.9707 6.83594-55.9981 6.83594-35.2539C6.83594-14.5098 23.8086 2.4629 44.5527 2.4629ZM43.0977-48.9902C40.5664-48.9902 38.4883-51.0332 38.4883-53.5996C38.4883-56.1309 40.5664-58.1738 43.0977-58.1738C45.6778-58.1738 47.7207-56.1309 47.7207-53.5996C47.7207-51.0332 45.6778-48.9902 43.0977-48.9902ZM25.5781-12.9922L28.041-22.1934C28.3828-23.6094 28.9688-24.5156 29.875-25.3945L36.4863-31.9082L36.4863-40.9395C36.4863-41.5391 35.9981-42.041 35.3633-42.041L28.4942-42.041C24.2891-42.041 24.1777-47.2715 28.2363-48.2129L34.5195-49.6426C36.0957-49.9844 37.0235-49.2031 37.2676-48.2129C37.4278-47.6133 37.3164-46.9434 36.877-46.4766L59.5977-46.4766C60.7969-46.4766 61.7871-45.4863 61.7871-44.2168C61.7871-43.0664 60.7969-42.041 59.5977-42.041L46.4238-42.041C45.8106-42.041 45.2871-41.5391 45.2871-40.9395L45.2871-32.7383C45.2871-31.5527 45.5664-30.332 46.0195-29.2441L48.8438-22.7793L53.7617-13.4316C54.4102-12.2324 54.0547-11.0605 53.1621-10.4746C52.1719-9.86132 50.6445-9.97265 49.8985-11.3535L44.9805-20.5898L41.8633-26.043C41.1309-27.3125 39.3594-27.4727 38.3555-26.6152L33.1875-22.1934C32.5391-21.6777 32.3926-21.3008 32.1485-20.4922L29.8184-11.8555C29.4766-10.5234 28.2774-10.0215 27.2031-10.2031C26.1016-10.3984 25.1602-11.3535 25.5781-12.9922ZM61.1485-29.6719C63.2852-34.8047 64.207-39.7656 64.207-44.2168C64.207-48.6895 63.2852-53.6504 61.1485-58.7832C60.6895-60.1738 62.4805-60.5332 62.8828-59.4648C65.0547-54.1738 66.0606-49.0117 66.0606-44.2168C66.0606-38.9375 65.0547-33.7891 62.918-28.9551C62.3965-27.8516 60.7246-28.4356 61.1485-29.6719Z"/>
</svg>