<svg xmlns="http://www.w3.org/2000/svg" viewBox="6.83594 -72.9707 75.45 75.43">
  <path d="M44.5527 2.4629C65.3809 2.4629 82.2832-14.4258 82.2832-35.2539C82.2832-56.082 65.3809-72.9707 44.5527-72.9707C23.7383-72.9707 6.83594-56.082 6.83594-35.2539C6.83594-14.4258 23.7383 2.4629 44.5527 2.4629ZM44.5527-0.95119C25.5762-0.95119 10.2285-16.2774 10.2285-35.2539C10.2285-54.2305 25.5762-69.5566 44.5527-69.5566C63.5293-69.5566 78.8555-54.2305 78.8555-35.2539C78.8555-16.2774 63.5293-0.95119 44.5527-0.95119ZM33.6406-44.9648C36.1582-44.9648 38.209-47.0156 38.209-49.5195C38.209-52.0723 36.1582-54.0879 33.6406-54.0879C31.1367-54.0879 29.086-52.0723 29.086-49.5195C29.086-47.0156 31.1367-44.9648 33.6406-44.9648ZM25.459-36.0566L26.6934-28.4531C27.1328-25.7617 30.8145-26.2773 30.375-28.9688L29.3145-35.6035L33.668-37.2988C34.3945-37.5645 34.9805-37.4102 35.2735-36.7891L39.1797-28.9766C40.3652-26.6328 41.377-25.9355 42.3184-25.2168L55.1192-15.8418C57.2735-14.252 59.8535-17.3613 57.4199-19.1816L47.4727-26.4922C46.9629-26.8691 46.9981-27.5742 47.6055-27.9023L54.3789-31.8301L63.2735-27.5957C65.707-26.4453 67.6524-29.834 64.7793-31.1934L55.3203-35.7207C54.2539-36.2227 53.2149-36.0977 52.252-35.5254L47.7735-32.9375C47.1875-32.5957 46.6914-32.7207 46.461-33.252L42.8965-40.5273C42.5195-41.2676 42.6387-41.9727 43.3711-42.3145L46.6426-43.8281C47.752-44.3164 48.1074-44.6582 48.4141-45.6621L50.4649-52.8262C51.211-55.4688 47.711-56.4102 46.9649-53.7812L44.9277-46.7285L26.8535-38.7832C25.668-38.2812 25.25-37.3887 25.459-36.0566Z" />
</svg>