<svg xmlns="http://www.w3.org/2000/svg" viewBox="9.5918 -71.1289 70.53 71.81">
  <path d="M30.4531-55.2442C34.7813-55.2442 38.3438-58.8965 38.3438-63.0918C38.3438-67.5254 34.7813-71.1289 30.4531-71.1289C26.0059-71.1289 22.584-67.5254 22.584-63.0918C22.584-58.5449 26.0059-55.2442 30.4531-55.2442ZM15.2441-25.5137L38.0664-50.9375C35.6387-51.8867 33.1992-52.1856 30.4531-52.1856C20.2559-52.1856 14.1563-47.2578 14.1563-39.0469C14.1563-37.0605 14.2539-34.377 14.5606-31.6934ZM45.7188-25.5137L46.3106-31.6934C46.5821-34.377 46.75-37.0605 46.75-39.0469C46.75-43.2871 45.2227-46.6758 42.0254-48.9766L23.2949-28.0273C25.6973-28.4961 28.0645-28.6992 30.4531-28.6992C35.4785-28.6992 40.5606-28.002 45.7188-25.5137ZM21.7266 0.474637C23.7969 0.203152 25.1973-1.33786 24.9258-3.90232L23.5254-17.1113L37.3887-17.1113L36.0508-3.90232C35.793-1.33786 37.0821 0.203152 39.2012 0.474637C41.3692 0.683621 43-0.619115 43.2578-3.21287L45.1192-20.9492C40.4766-23.5976 35.3672-24.6504 30.4531-24.6504C25.5606-24.6504 20.416-23.5976 15.8574-20.9492L17.6348-3.21287C17.8926-0.619115 19.5234 0.683621 21.7266 0.474637ZM42.0254-48.9902L48.836-56.5606C49.8594-57.709 49.7618-58.961 48.7735-59.8106C47.8692-60.5821 46.75-60.5957 45.6992-59.4551L38.0664-50.9375C39.5-50.3809 40.836-49.7344 42.0254-48.9902ZM10.7188-22.7168C9.5918-21.8887 9.5918-20.6719 10.0996-19.7598C10.6992-18.8828 11.9531-18.3808 13.0586-19.2246C13.9727-19.8672 14.8594-20.4258 15.8574-20.9492L15.2441-25.5137C13.5703-24.7324 12.0781-23.8184 10.7188-22.7168ZM50.293-22.7168C48.9199-23.8184 47.3711-24.7324 45.7188-25.5137L45.1055-20.9492C46.1035-20.4258 46.9903-19.8672 47.9043-19.2246C49.0664-18.3808 50.3067-18.8691 50.8848-19.7812C51.3711-20.6797 51.3711-21.875 50.293-22.7168ZM63.291-48.5274L63.291-39.6445C63.291-37.0859 65.1524-35.2031 67.7325-35.2031L74.7676-35.2031C77.3125-35.2031 79.2442-37.0859 79.2442-39.6445L79.2442-48.5274C79.2442-51.0859 77.3125-52.9824 74.7676-52.9824L67.7325-52.9824C65.1524-52.9824 63.291-51.0859 63.291-48.5274ZM63.291-22.4297L63.291-13.5332C63.291-10.9883 65.1524-9.09179 67.7325-9.09179L74.7676-9.09179C77.3125-9.09179 79.2442-10.9883 79.2442-13.5332L79.2442-22.4297C79.2442-24.9746 77.3125-26.8711 74.7676-26.8711L67.7325-26.8711C65.1524-26.8711 63.291-24.9746 63.291-22.4297ZM71.2539-40.2227C69.127-40.2227 67.3067-41.9238 67.3067-44.1348C67.3067-46.1777 69.127-47.9492 71.2539-47.9492C73.3672-47.9492 75.1387-46.1777 75.1387-44.1348C75.1387-41.9238 73.3672-40.2227 71.2539-40.2227ZM71.2539-14.1113C69.127-14.1113 67.3067-15.8125 67.3067-17.9883C67.3067-20.1016 69.127-21.8379 71.2539-21.8379C73.3672-21.8379 75.1387-20.1016 75.1387-17.9883C75.1387-15.8125 73.3672-14.1113 71.2539-14.1113ZM63.4668-58.4629L79.0196-58.4629C79.8536-58.4629 80.1192-59.416 79.3809-59.9102L72.2071-64.8164C71.5528-65.2481 70.9336-65.2481 70.2793-64.8164L63.1055-59.9102C62.3672-59.416 62.6328-58.4629 63.4668-58.4629Z"/>
</svg>