<svg xmlns="http://www.w3.org/2000/svg" viewBox="6.83594 -72.9707 75.45 75.43">
  <path d="M44.5527 2.4629C65.3106 2.4629 82.2832-14.5098 82.2832-35.2539C82.2832-55.9981 65.3106-72.9707 44.5527-72.9707C23.8086-72.9707 6.83594-55.9981 6.83594-35.2539C6.83594-14.5098 23.8086 2.4629 44.5527 2.4629ZM22.6758-36.8496C21.7344-37.791 21.7207-39.2695 22.6758-40.2109C23.6035-41.1387 25.1309-41.1387 26.0723-40.2109L31.2676-34.9316L36.6582-41.4805C37.5508-42.6035 38.8828-43.252 40.3262-43.252L48.8067-43.252C50.2363-43.252 51.5684-42.6035 52.4473-41.4805L57.8379-34.9316L63.082-40.2109C64.0235-41.1387 65.5508-41.1387 66.4785-40.2109C67.4336-39.2695 67.4199-37.791 66.4785-36.8496L59.3301-29.6738C58.375-28.6973 56.75-28.6973 55.8086-29.8828L51.3106-35.4063C51.0176-35.748 50.5293-35.5664 50.5293-35.1621L50.5293-25.6777L58.5703-26.6191C61.3594-26.9121 62.2735-22.8535 59.6094-21.9746L50.4317-18.9687C50.8711-17.0508 49.2598-15.4258 47.377-16.0117L44.5664-16.9531L41.7422-16.0117C39.8731-15.4258 38.2344-17.0508 38.6738-18.9687L29.5313-21.9746C26.916-22.8535 27.8086-26.9121 30.5352-26.6191L38.5899-25.6777L38.5899-35.1621C38.5899-35.5664 38.1016-35.748 37.8086-35.4063L33.3106-29.8828C32.3555-28.6973 30.7793-28.6973 29.7891-29.6738ZM44.5664-45.793C41.9863-45.793 39.8731-47.9063 39.8731-50.4863C39.8731-53.0039 41.9863-55.1172 44.5664-55.1172C47.0977-55.1172 49.211-53.0039 49.211-50.4863C49.211-47.9063 47.0977-45.793 44.5664-45.793Z"/>
</svg>