<svg xmlns="http://www.w3.org/2000/svg" viewBox="6.83594 -72.9707 75.45 75.43">
  <path d="M44.5527 2.4629C65.3809 2.4629 82.2832-14.4258 82.2832-35.2539C82.2832-56.082 65.3809-72.9707 44.5527-72.9707C23.7383-72.9707 6.83594-56.082 6.83594-35.2539C6.83594-14.4258 23.7383 2.4629 44.5527 2.4629ZM44.5527-0.95119C25.5762-0.95119 10.2285-16.2774 10.2285-35.2539C10.2285-54.2305 25.5762-69.5566 44.5527-69.5566C63.5293-69.5566 78.8555-54.2305 78.8555-35.2539C78.8555-16.2774 63.5293-0.95119 44.5527-0.95119ZM44.9942-50.2734C47.5332-50.2734 49.584-52.3242 49.584-54.877C49.584-57.416 47.5332-59.4668 44.9942-59.4668C42.4414-59.4668 40.3906-57.416 40.3906-54.877C40.3906-52.3242 42.4414-50.2734 44.9942-50.2734ZM62.9824-43.4902C64.168-43.4902 65.1445-44.418 65.1445-45.6387C65.1445-46.8594 64.168-47.7871 62.9824-47.7871L40.5508-47.7871C38.4863-47.7871 36.6934-46.7129 35.752-44.8086L26.1817-25.7031L20.7969-31.0742C19.918-31.9395 18.5996-31.9043 17.7695-31.0742C16.9395-30.2441 16.9258-28.8906 17.7695-28.0469L25.3516-20.4297C26.2442-19.502 27.6953-19.6484 28.4278-20.7227L34.6778-29.8535C35.0195-30.3555 35.752-30.4395 36.2403-30.0977L43.9199-24.2246L43.9199-13.5176C43.9199-12.3105 44.8477-11.3828 46.0547-11.3828C47.2403-11.3828 48.2168-12.3105 48.2168-13.5176L48.2168-25.3125C48.2168-25.8496 47.9727-26.3867 47.582-26.7773L40.0977-34.2969L44.1153-42.3184C44.5059-43.0996 45.1895-43.4902 46.0195-43.4902ZM49.2774-33.8574L57.625-33.8574C58.832-33.8574 59.7598-34.834 59.7598-35.9707C59.7598-37.1777 58.832-38.1543 57.625-38.1543L50.1699-38.1543L46.4219-41.8887L46.0195-41.8887C45.6973-41.8887 45.6973-41.8887 45.543-41.5801L43.9043-38.3516L47.7422-34.4922C48.168-34.0664 48.7051-33.8574 49.2774-33.8574ZM61.336-38.4121C61.336-36.3477 63.7637-34.6523 66.707-34.6523C69.6856-34.6523 72.0781-36.3477 72.0781-38.4121C72.0781-40.498 69.6856-42.1582 66.707-42.1582C63.7637-42.1582 61.336-40.498 61.336-38.4121Z" />
</svg>