<svg xmlns="http://www.w3.org/2000/svg" viewBox="6.83594 -72.9707 75.45 75.43">
  <path d="M44.5527 2.4629C65.3106 2.4629 82.2832-14.5098 82.2832-35.2539C82.2832-55.9981 65.3106-72.9707 44.5527-72.9707C23.8086-72.9707 6.83594-55.9981 6.83594-35.2539C6.83594-14.5098 23.8086 2.4629 44.5527 2.4629ZM42.5254-44.8203C39.959-44.8203 37.8457-46.9336 37.8457-49.4648C37.8457-52.0313 39.959-54.1582 42.5254-54.1582C45.0567-54.1582 47.1699-52.0313 47.1699-49.4648C47.1699-46.9336 45.0567-44.8203 42.5254-44.8203ZM22.2422-54.0957C22.2422-57.0293 24.5488-59.3848 27.4688-59.3848C30.3672-59.3848 32.6602-57.0293 32.6602-54.0957C32.6602-51.6484 30.9668-48.8437 28.4141-47.5332L28.4141-42.8301C28.918-42.9434 29.5625-42.8457 30.0938-42.4121L35.0176-38.4648L47.2149-43.5625C48.2539-43.9805 48.9863-44.6367 49.4746-45.5918L56.1875-59.0879C56.7246-60.127 58.0215-60.5664 59.0957-60.0293C60.1485-59.4785 60.5879-58.1953 60.0371-57.1074L53.2266-43.4512C52.7871-42.5586 52.6758-41.6797 52.836-40.7383L54.4746-31.7559L62.8223-24.8867C63.4082-24.4121 63.7637-23.7988 63.7637-23.0313L63.7637-12.3867C63.7637-11.2012 62.8223-10.2109 61.6719-10.2109C60.4375-10.2109 59.4961-11.2012 59.4961-12.3867L59.4961-21.8809L52.9961-26.2324C52.2988-26.7344 51.3086-26.2188 51.3574-25.2422L51.9434-16.8457C51.9922-15.9043 51.5176-14.9629 50.5762-14.5723L39.7813-10.2695C38.7207-9.84375 37.4727-10.207 36.9707-11.4414C36.5313-12.5781 37.082-13.8262 38.1699-14.2656L47.3613-17.9199L44.0488-36.1426C43.9512-36.791 43.4492-37.2793 42.5215-36.8887L35.834-34.127C34.9063-33.7363 34.125-33.6738 33.3789-34.2734L27.3535-39.0293C26.8164-39.4688 26.6074-40.0898 26.6074-40.8359L26.6074-47.5332C24.0059-48.7734 22.2422-51.6133 22.2422-54.0957ZM24.0488-54.082C24.0488-52.1211 25.3457-49.9355 27.4688-49.0762C29.6055-49.9355 30.9024-52.1211 30.9024-54.082C30.9024-56.0781 29.416-57.5781 27.4688-57.5781C25.5215-57.5781 24.0488-56.0781 24.0488-54.082Z"/>
</svg>