<svg xmlns="http://www.w3.org/2000/svg" viewBox="6.83594 -70.8223 82.65 71.4">
  <path d="M48.1524-70.8223C25.3359-70.8223 6.83594-52.3359 6.83594-29.5059C6.83594-18.1172 11.4395-7.77539 18.957-0.27929C19.7188 0.517591 20.8535 0.580091 21.5645-0.138666C22.1934-0.802734 22.0762-1.88087 21.211-2.8008C14.4317-9.61329 10.2696-19.1191 10.2696-29.5059C10.2696-50.5391 27.1465-67.4082 48.1524-67.4082C69.1719-67.4082 86.0488-50.5391 86.0488-29.5059C86.0488-19.1191 81.873-9.61329 75.1074-2.8008C74.2422-1.88087 74.125-0.802734 74.7539-0.138666C75.4649 0.580091 76.5996 0.517591 77.3614-0.27929C84.8438-7.74023 89.4824-18.1172 89.4824-29.5059C89.4824-52.3359 70.9824-70.8223 48.1524-70.8223ZM48.5098-6.27539C59.4395-6.27539 66.75-13.7461 66.75-25.041C66.75-43.8906 50.7891-51.873 39.0625-51.873C37.5957-51.873 36.8047-51.373 36.8047-50.4004C36.8047-50.039 36.9434-49.6992 37.3477-49.2324C39.9727-46.0488 42.5899-42.1523 42.6035-38.2344C42.6035-36.9336 42.2871-35.7578 41.4063-34.6348L42.2481-34.8301C41.2149-37.8008 38.2383-39.7168 36.4219-39.7168C35.8809-39.7168 35.5625-39.3848 35.5625-38.8027C35.5625-38.2441 35.7442-36.9043 35.7442-35.9414C35.7442-30.2598 32.0039-27.9199 32.0039-20.4141C32.0039-11.918 38.4629-6.27539 48.5098-6.27539ZM48.8008-12.4238C45.084-12.4238 42.6094-14.6406 42.6094-18.0293C42.6094-21.5293 45.084-22.8125 45.4258-25.0371C45.4609-25.2461 45.5723-25.2949 45.7188-25.1836C46.6602-24.3887 47.3027-23.3145 47.8887-22.1777C48.9414-23.6074 49.4649-26.5273 48.9473-29.918C48.9336-30.1406 49.0449-30.2246 49.2051-30.1406C53.5762-28.0273 55.8711-23.7539 55.8711-19.8633C55.8711-15.8887 53.584-12.4238 48.8008-12.4238Z" />
</svg>