<svg xmlns="http://www.w3.org/2000/svg" viewBox="6.83594 -72.9707 75.45 75.43">
  <path d="M44.5527 2.4629C65.3809 2.4629 82.2832-14.4258 82.2832-35.2539C82.2832-56.082 65.3809-72.9707 44.5527-72.9707C23.7383-72.9707 6.83594-56.082 6.83594-35.2539C6.83594-14.4258 23.7383 2.4629 44.5527 2.4629ZM44.5527-0.95119C25.5762-0.95119 10.2285-16.2774 10.2285-35.2539C10.2285-54.2305 25.5762-69.5566 44.5527-69.5566C63.5293-69.5566 78.8555-54.2305 78.8555-35.2539C78.8555-16.2774 63.5293-0.95119 44.5527-0.95119ZM44.8613-17.6797C53.1582-17.6797 58.3867-23.0566 58.3867-31.1719L58.3867-33.8633C58.3867-34.9902 57.7442-35.6543 56.7149-35.6543L45.4981-35.6543C44.6738-35.6543 44.1328-35.0508 44.1328-34.3027C44.1328-33.5469 44.6738-32.9023 45.4981-32.9023L55.0527-32.9023L55.0527-30.9336C55.0527-24.5313 51.3555-20.6504 44.8887-20.6504C37.8555-20.6504 33.0352-26.5938 33.0352-35.3281C33.0352-44.0273 37.8418-50.0332 44.8477-50.0332C50.2227-50.0332 54.2559-47.0801 55.1914-42.4746C55.4805-41.5508 55.8887-41.1621 56.666-41.1621C57.6289-41.1621 58.168-41.7578 58.168-42.7559C58.168-43.1582 58.1055-43.5547 57.9883-44.0274C56.9922-48.1074 52.5625-52.9688 44.8203-52.9688C35.7539-52.9688 29.6602-45.8965 29.6602-35.3281C29.6602-24.7246 35.7539-17.6797 44.8613-17.6797Z" />
</svg>