<svg xmlns="http://www.w3.org/2000/svg" viewBox="9.41797 -69.3086 75.83 67.63">
  <path d="M43.9141-6.51562C46.293-5.15233 48.5137-5.166 50.7871-6.48046L79.5449-23.0957C82.3535-24.7363 81.9258-27.3711 79.5801-28.7598L50.7871-45.4102C48.5137-46.7246 46.293-46.7383 43.9141-45.375L15.1699-28.7598C12.7969-27.3438 12.3828-24.75 15.2051-23.0957ZM13.3438-2.32811C14.4766-2.98827 14.9004-4.46093 14.2403-5.59375C13.5801-6.74024 12.1211-7.08009 10.9746-6.45508C9.82813-5.8086 9.41797-4.33593 10.0645-3.23827C10.7383-2.09178 12.1973-1.68163 13.3438-2.32811ZM22.4805-7.58007C23.627-8.2539 24.0371-9.71289 23.377-10.8594C22.7168-11.9922 21.2227-12.3809 20.1113-11.7422C18.9648-11.0957 18.5898-9.60156 19.25-8.49023C19.9102-7.33007 21.334-6.93358 22.4805-7.58007ZM45.1016-9.17579L17.3184-25.207C16.627-25.6367 16.627-26.3945 17.3184-26.7891L45.1016-42.7148C46.7363-43.623 47.9785-43.623 49.5645-42.7148L77.4453-26.7891C78.1445-26.4082 78.1445-25.5879 77.4453-25.207L49.5645-9.17579C47.9785-8.26759 46.7363-8.26759 45.1016-9.17579ZM31.6973-15.7187L65.3223-35.7031L62.7559-37.3945L29.043-17.4258ZM63.748-16.1133L66.7207-17.5703L32.4707-36.791L29.8281-35.0644ZM72.1856-7.58007C73.3321-6.93358 74.791-7.33007 75.4161-8.49023C76.0762-9.60156 75.7012-11.0957 74.5899-11.7422C73.4434-12.3809 71.9492-11.9922 71.3242-10.8594C70.6641-9.71289 71.0879-8.2539 72.1856-7.58007ZM81.3223-2.32811C82.4825-1.68163 83.9278-2.09178 84.6016-3.23827C85.2481-4.33593 84.8379-5.8086 83.7403-6.45508C82.5938-7.08009 81.0996-6.74024 80.461-5.59375C79.8145-4.46093 80.2246-2.98827 81.3223-2.32811ZM47.3574-54.0039C48.6426-54.0039 49.7266-55.0527 49.7266-56.373C49.7266-57.6582 48.6426-58.7559 47.3574-58.7559C46.0371-58.7559 44.9395-57.6582 44.9395-56.373C44.9395-55.0527 46.0371-54.0039 47.3574-54.0039ZM47.3574-64.5352C48.6426-64.5352 49.7266-65.6191 49.7266-66.9395C49.7266-68.2246 48.6426-69.3086 47.3574-69.3086C46.0371-69.3086 44.9395-68.2246 44.9395-66.9395C44.9395-65.6191 46.0371-64.5352 47.3574-64.5352Z"/>
</svg>