<svg xmlns="http://www.w3.org/2000/svg" viewBox="9.76562 -79.8965 98.66 89.31">
  <path d="M70.3047-60.0723C70.3047-69.2461 64.7442-76.9766 57.0977-76.9766L50.7618-76.9766C56.754-73.082 59.4629-66.9551 59.3575-59.7656C59.252-51.5703 56.2266-46.4102 53.8321-43.043L58.2129-43.043C65.1348-43.043 70.3047-50.5156 70.3047-60.0723ZM55.8008-59.8145C55.8008-71.1699 46.8282-79.8965 32.4199-79.8965L28.168-79.8965C24.1387-79.8965 21.1836-79.625 19.4961-79.1719C17.1406-78.5938 14.7422-77.1231 14.7422-74.1738C14.7422-72.9961 15.0352-72.125 15.4395-71.4414C15.7188-71.0371 15.6699-70.7656 15.3008-70.5703C13.3555-69.7402 11.7383-67.9981 11.7383-65.5586C11.7383-64.1231 12.1563-62.8887 12.8535-61.9961C13.209-61.4941 13.1113-61.125 12.5605-60.8184C11.2012-60.0098 10.2188-58.2461 10.2188-56.2598C10.2188-54.8242 10.6719-53.2832 11.5156-52.5371C12.0313-52.1191 11.8984-51.7773 11.3613-51.3242C10.4277-50.502 9.76562-49.1289 9.76562-47.3516C9.76562-44.3535 12.1074-41.8789 15.2168-41.8789L26.1113-41.8789C28.8789-41.8789 30.7754-40.4922 30.7754-38.2129C30.7754-34.0371 25.5469-26.4043 25.5469-20.9394C25.5469-18.0605 27.4082-16.3945 29.834-16.3945C32.0645-16.3945 33.1309-17.9004 34.3438-20.2285C38.9024-29.2207 45.0996-36.498 49.791-42.6875C53.8203-47.9297 55.8008-52.5371 55.8008-59.8145ZM47.8711-10.4082C47.8711-1.23436 53.4669 6.49611 61.0919 6.49611L67.4278 6.49611C61.4356 2.60158 58.7481-3.52538 58.8184-10.7148C58.9376-18.959 61.9844-24.0703 64.3438-27.4375L59.963-27.4375C53.0762-27.4375 47.8711-19.9648 47.8711-10.4082ZM62.4239-10.666C62.4239 0.689468 71.3614 9.41604 85.7696 9.41604L90.0079 9.41604C94.0509 9.41604 96.9923 9.14455 98.6935 8.69143C101.084 8.1133 103.469 6.6426 103.469 3.69338C103.469 2.51564 103.176 1.64455 102.772 0.960953C102.506 0.556656 102.541 0.285171 102.875 0.0898584C104.834-0.74022 106.451-2.49608 106.451-4.92186C106.451-6.35741 106.033-7.59179 105.336-8.48437C104.981-8.98632 105.065-9.35546 105.629-9.67577C106.988-10.4707 107.971-12.2695 107.971-14.2207C107.971-15.6562 107.518-17.2109 106.674-17.9434C106.158-18.3613 106.291-18.7031 106.828-19.1699C107.762-19.9785 108.424-21.3516 108.424-23.1289C108.424-26.127 106.082-28.6016 102.994-28.6016L92.0782-28.6016C89.297-28.6016 87.4005-30.0234 87.4005-32.2676C87.4005-36.4434 92.6427-44.0762 92.6427-49.541C92.6427-52.4199 90.7813-54.0996 88.3419-54.0996C86.1251-54.0996 85.0587-52.5801 83.8946-50.252C79.2872-41.2598 73.0762-33.9824 68.3985-27.793C64.3907-22.5508 62.4239-17.9434 62.4239-10.666Z"/>
</svg>