<svg xmlns="http://www.w3.org/2000/svg" viewBox="9.76562 -64.1582 142.22 57.77">
  <path d="M17.9102-14.8711L27.8399-14.8711L27.8399-18.1406L18.0196-18.1406C14.7676-18.1406 13.0703-19.9414 13.0703-23.4844L13.0703-30.2266C13.0703-37.373 17.2559-41.1484 27.125-42.4258L42.0313-44.4238L58.6797-54.8516C66.1074-59.5039 71.6211-60.875 83.4883-60.875L98.8438-60.875C103.164-60.875 105.818-58.4434 106.293-54.0449L107.436-43.1992L143.732-43.1992C146.998-43.1992 148.682-41.3633 148.682-37.8691L148.682-23.4844C148.682-19.9414 146.998-18.1406 143.732-18.1406L126.969-18.1406L126.969-14.8711L143.842-14.8711C149.135-14.8711 151.986-17.7851 151.986-23.2246L151.986-38.1289C151.986-43.5547 149.135-46.4824 143.842-46.4824L110.479-46.4824L109.563-54.5859C108.846-60.836 105.119-64.1582 98.9531-64.1582L83.4883-64.1582C71.043-64.1582 64.877-62.6914 56.9238-57.6934L40.9043-47.625L26.7031-45.7168C15.2578-44.1914 9.76562-39.1055 9.76562-30.2266L9.76562-23.2246C9.76562-17.7851 12.582-14.8711 17.9102-14.8711ZM47.2539-14.8711L107.547-14.8711L107.547-18.1406L47.2539-18.1406ZM37.4961-6.38474C44.1856-6.38474 49.377-11.5898 49.377-18.2793C49.377-24.9336 44.1856-30.1738 37.4961-30.1738C30.8418-30.1738 25.6016-24.9336 25.6016-18.2793C25.6016-11.5898 30.8418-6.38474 37.4961-6.38474ZM37.4961-9.66798C32.6524-9.66798 28.9199-13.4355 28.9199-18.2793C28.9199-23.123 32.6524-26.8554 37.4961-26.8554C42.3398-26.8554 46.1074-23.123 46.1074-18.2793C46.1074-13.4355 42.3398-9.66798 37.4961-9.66798ZM117.123-6.38474C123.799-6.38474 129.004-11.5898 129.004-18.2793C129.004-24.9336 123.799-30.1738 117.123-30.1738C110.469-30.1738 105.229-24.9336 105.229-18.2793C105.229-11.5898 110.469-6.38474 117.123-6.38474ZM117.123-9.66798C112.279-9.66798 108.533-13.4355 108.533-18.2793C108.533-23.123 112.279-26.8554 117.123-26.8554C121.967-26.8554 125.734-23.123 125.734-18.2793C125.734-13.4355 121.967-9.66798 117.123-9.66798ZM98.4297-37.7207C98.4297-43.8145 93.6055-48.625 87.5742-48.625C82.916-48.625 78.8438-45.8281 77.2754-41.5117L59.8457-41.5117C59.5332-41.5117 59.1914-41.4004 58.8711-41.0801L56.0332-38.2285C55.7266-37.9219 55.748-37.582 56.0332-37.2617L61.4727-31.7246C61.7715-31.4609 62.125-31.4609 62.3965-31.7246L66.0039-35.3672L70.8594-30.4629C71.0957-30.2129 71.4356-30.2617 71.7344-30.5254L76.7168-35.4238C78.8223-29.9062 82.7832-26.8301 87.5742-26.8301C93.5703-26.8301 98.4297-31.6895 98.4297-37.7207ZM93.0879-37.7344C93.0879-35.9004 91.6172-34.4297 89.7695-34.4297C87.9434-34.4297 86.4512-35.9004 86.4512-37.7344C86.4512-39.582 87.9434-41.0879 89.7695-41.0879C91.6172-41.0879 93.0879-39.6309 93.0879-37.7344Z"/>
</svg>