<svg xmlns="http://www.w3.org/2000/svg" viewBox="9.76562 -69.2891 68.08 68.1">
  <path d="M20.3184-1.19139L67.2969-1.19139C74.2403-1.19139 77.8496-4.87108 77.8496-11.7031L77.8496-58.7773C77.8496-65.6094 74.2403-69.2891 67.2969-69.2891L20.3184-69.2891C13.3887-69.2891 9.76562-65.6797 9.76562-58.7773L9.76562-11.7031C9.76562-4.80077 13.3887-1.19139 20.3184-1.19139ZM20.416-4.50978C15.5996-4.50978 13.0703-7.01173 13.0703-11.8691L13.0703-58.6113C13.0703-63.4824 15.5996-65.9707 20.416-65.9707L67.1992-65.9707C71.875-65.9707 74.5449-63.4824 74.5449-58.6113L74.5449-11.8691C74.5449-7.01173 71.875-4.50978 67.1992-4.50978ZM30.1426-19.1289L55.6797-19.1289C56.4082-19.1289 56.9492-19.5723 56.9492-20.2871C56.9492-21.0156 56.4082-21.4941 55.6797-21.4941L46.9942-21.4941C37.7774-21.4941 31.4063-28.1348 31.4063-36.1387C31.4063-44.0371 37.0039-48.8828 44.0449-48.8828C50.9824-48.8828 56.4121-44.2285 56.6074-37.5313C56.6211-36.6426 57.1133-36.0527 57.9317-36.0527C58.7715-36.0527 59.2774-36.6562 59.2774-37.5313C59.1231-46.1855 51.836-51.4004 44.0449-51.4004C35.1406-51.4004 28.6113-45.1582 28.6113-36.5684C28.6113-29.6543 32.6191-23.8535 38.1621-21.6484L38.1621-21.4805L30.1426-21.4805C29.3652-21.4805 28.8516-21.0156 28.8516-20.2871C28.8516-19.5723 29.3652-19.1289 30.1426-19.1289ZM40.293-36.4707C40.8203-36.4707 41.2305-36.8672 41.2305-37.3945L41.2305-55.166C41.2305-55.6797 40.8203-56.0547 40.293-56.0547C39.793-56.0547 39.3828-55.6797 39.3828-55.166L39.3828-37.3945C39.3828-36.8672 39.793-36.4707 40.293-36.4707ZM47.9512-36.4707C48.4785-36.4707 48.875-36.8672 48.875-37.3945L48.875-55.166C48.875-55.6797 48.4785-56.0547 47.9512-56.0547C47.4512-56.0547 47.041-55.6797 47.041-55.166L47.041-37.3945C47.041-36.8672 47.4512-36.4707 47.9512-36.4707Z" />
</svg>