<svg xmlns="http://www.w3.org/2000/svg" viewBox="9.76562 -74.9766 72.02 79.53">
  <path d="M59.1329-74.9766C46.4883-74.9766 36.4922-65.3242 36.4922-54.0508C36.4922-41.7344 44.3633-37.7949 46.4395-13.2695C46.5508-12.1348 47.1075-11.5234 48.4317-11.5234L69.8692-11.5234C71.1934-11.5234 71.7501-12.1348 71.8614-13.2695C73.9024-37.7949 81.7872-41.7344 81.7872-54.0508C81.7872-65.3242 71.8126-74.9766 59.1329-74.9766ZM48.6934-5.04296L69.6778-5.04296C70.6231-5.04296 71.3672-5.77343 71.3672-6.7539C71.3672-7.68554 70.6231-8.42968 69.6778-8.42968L48.6934-8.42968C47.7129-8.42968 47.0176-7.68554 47.0176-6.7539C47.0176-5.77343 47.7129-5.04296 48.6934-5.04296ZM59.168 4.55276C64.5997 4.55276 68.7227 1.90432 68.9454-1.93553L49.4258-1.93553C49.6348 1.90432 53.7579 4.55276 59.168 4.55276ZM29.3594-69.5098C18.4648-69.5098 9.76562-61.1133 9.76562-51.3594C9.76562-40.6875 16.5352-37.2793 18.3047-16.3887C18.4023-15.4004 19.0781-14.7051 20.0723-14.7051L38.6817-14.7051C39.6543-14.7051 40.3301-15.4004 40.4278-16.3887C40.7207-19.1856 40.9922-21.627 41.375-24.0137C38.336-37.4961 33.043-42.3496 33.043-54.0508C33.043-59.1172 34.7656-63.8848 37.6738-67.7949C35.1367-68.9102 32.3633-69.5098 29.3594-69.5098ZM20.4043-8.79686L38.3985-8.79686C39.2813-8.79686 40.0528-9.52733 40.0528-10.459C40.0528-11.3906 39.2813-12.0996 38.3985-12.0996L20.4043-12.0996C19.5078-12.0996 18.7773-11.3769 18.7773-10.459C18.7773-9.52733 19.5078-8.79686 20.4043-8.79686ZM29.4082-0.23435C34.2188-0.23435 37.8809-2.68748 37.9649-6.19139L20.8516-6.19139C20.9356-2.68748 24.5488-0.23435 29.4082-0.23435Z"/>
</svg>