<svg xmlns="http://www.w3.org/2000/svg" viewBox="6.83594 -72.3574 88.9 74.14">
  <path d="M51.3086-57.1211C58.1719-57.1211 64.4492-54.7637 69.457-50.7734C70.2383-50.1523 71.25-50.2363 71.9824-50.9688L80.002-58.9395C80.8809-59.8184 80.8672-61.0879 79.9395-61.8692C72.1856-68.4102 62.1582-72.3574 51.3086-72.3574C40.4238-72.3574 30.3828-68.4102 22.6426-61.8692C21.7149-61.0879 21.7363-59.8184 22.6152-58.9395L30.6211-50.9688C31.3535-50.2363 32.4141-50.1875 33.2442-50.8574C38.2168-54.7637 44.4942-57.1211 51.3086-57.1211ZM6.83594-27.8984C6.83594-17 10.7969-6.93749 17.373 0.81642C18.1543 1.74415 19.459 1.77931 20.3027 0.900404L28.3555-7.22265C29.0469-7.93554 29.0957-8.89257 28.4531-9.70312C24.4649-14.7363 22.0859-21.0488 22.0859-27.8984C22.0859-34.748 24.4297-41.0254 28.3848-45.9844C29.0195-46.8145 28.9844-47.875 28.252-48.6074L20.2676-56.5918C19.4238-57.4356 18.1191-57.4707 17.3379-56.543C10.7617-48.8106 6.83594-38.8184 6.83594-27.8984ZM95.7325-27.8984C95.7325-38.8184 91.8203-48.8106 85.2657-56.543C84.4844-57.4707 83.1797-57.4356 82.336-56.5918L74.3301-48.6074C73.5977-47.875 73.5625-46.8145 74.1973-45.9844C78.1524-41.0254 80.4961-34.748 80.4961-27.8984C80.4961-21.0488 78.1172-14.7363 74.1153-9.70312C73.4863-8.89257 73.5352-7.93554 74.2129-7.22265L82.3008 0.900404C83.1446 1.77931 84.4492 1.74415 85.2305 0.81642C91.7852-6.93749 95.7325-17 95.7325-27.8984ZM39.9414-11.5625L62.3848-11.5625C63.0781-11.5625 63.6192-12.1035 63.6192-12.7832C63.6192-13.4629 63.0781-13.9902 62.3848-13.9902L43.5547-13.9902L43.5547-14.2559C46.5156-14.9434 48.3613-18.3828 48.4707-21.791C48.4844-22.2734 48.4629-22.7344 48.4278-23.1953L58.3867-23.1953C58.9141-23.1953 59.4004-23.6543 59.4004-24.1953C59.4004-24.7578 58.9141-25.1953 58.3867-25.1953L48.1836-25.1953C47.8692-26.9199 47.3106-28.4277 46.8848-30.0195L58.3867-30.0195C58.9141-30.0195 59.4004-30.4922 59.4004-31.0547C59.4004-31.6172 58.9141-32.0547 58.3867-32.0547L46.5156-32.0547C46.4317-32.6777 46.3477-33.3711 46.3477-34.0781C46.3477-39 50.0801-41.541 55.0723-41.541C56.8262-41.541 58.4434-41.2266 59.3203-40.9824C59.8926-40.8008 60.5567-40.5976 60.9473-40.5976C61.625-40.5976 61.9727-41.0195 61.9727-41.5957C61.9727-42.3105 61.5215-42.6641 60.8828-42.9629C59.0215-43.793 56.8047-44.0176 54.8301-44.0176C48.0059-44.0176 43.4629-40.3789 43.4629-33.9453C43.4629-33.2871 43.4981-32.6777 43.6035-32.0547L40.0176-32.0547C39.4766-32.0547 39.0039-31.6172 39.0039-31.0547C39.0039-30.4922 39.4766-30.0195 40.0176-30.0195L43.9512-30.0195C44.3633-28.3301 44.957-26.7871 45.334-25.1953L40.0176-25.1953C39.4766-25.1953 39.0039-24.7578 39.0039-24.1953C39.0039-23.6543 39.4766-23.1953 40.0176-23.1953L45.6406-23.1953C45.6758-22.6992 45.6836-22.1348 45.6563-21.6113C45.4922-17.9102 43.1328-15.1621 39.8379-14.2891C39.0879-14.0742 38.6582-13.6367 38.6582-12.8457C38.6582-12.0273 39.1563-11.5625 39.9414-11.5625Z"/>
</svg>