<svg xmlns="http://www.w3.org/2000/svg" viewBox="9.76562 -69.2891 96.71 79.86">
  <path d="M23.3438-1.12108L79.5898-1.12108C79.5273-1.97459 79.5273-2.1328 79.5273-2.63475L79.5547-4.43947L23.6934-4.43947C17.0918-4.43947 13.0703-8.44728 13.0703-15.0625L13.0703-55.3476C13.0703-61.9629 17.0918-65.9707 23.6934-65.9707L84.7969-65.9707C91.4121-65.9707 95.4199-61.9629 95.4199-55.3476L95.4199-26.2168L98.7246-22.7227L98.7246-55.418C98.7246-64.0781 93.4922-69.2891 84.8672-69.2891L23.3438-69.2891C14.9023-69.2891 9.76562-64.0781 9.76562-55.418L9.76562-14.9922C9.76562-6.33203 14.9023-1.12108 23.3438-1.12108ZM23.9532-53.1406C25.4063-53.1406 26.6309-54.4277 26.6309-55.8398C26.6309-57.2656 25.4063-58.5176 23.9532-58.5176C22.4785-58.5176 21.2539-57.2656 21.2539-55.8398C21.2539-54.4277 22.4785-53.1406 23.9532-53.1406ZM33.0997-53.1406C34.5743-53.1406 35.7989-54.3926 35.7989-55.8398C35.7989-57.2656 34.5743-58.5176 33.0997-58.5176C31.6602-58.5176 30.4219-57.2656 30.4219-55.8398C30.4219-54.3926 31.6602-53.1406 33.0997-53.1406ZM42.2676-53.1758C43.7071-53.1758 44.9454-54.3926 44.9454-55.8398C44.9454-57.2656 43.7071-58.5176 42.2676-58.5176C40.793-58.5176 39.5684-57.2656 39.5684-55.8398C39.5684-54.3926 40.793-53.1758 42.2676-53.1758ZM100.797 10.0508C102.076 9.49414 102.674 8.04101 102.139 6.76171L95.8086-7.92969L104.906-7.75001C105.941-7.74219 106.477-8.85548 105.775-9.64064L84.8418-32.457C84.1191-33.2148 82.8867-32.7344 82.873-31.6641L83.2363-0.949218C83.2226 0.13477 84.459 0.55274 85.1816-0.191403L91.2812-6.43163L97.4804 8.6875C98.0019 9.95313 99.4473 10.5723 100.797 10.0508Z"/>
</svg>