<svg xmlns="http://www.w3.org/2000/svg" viewBox="9.76562 -74.7422 80.34 78.98">
  <path d="M23.4199-21.1719L34.252-21.1719L34.252-54.6153L23.4199-54.6153C14.4649-54.6153 9.76562-50.0059 9.76562-41.2793L9.76562-34.5078C9.76562-25.7812 14.4649-21.1719 23.4199-21.1719ZM37.9258-21.1582C49.4141-20.0078 63.5664-16.7637 73.1621-10.9395C73.1621-11.2949 73.1621-11.6289 73.1621-11.9844L73.1621-63.7481C73.1621-64.1309 73.1621-64.4649 73.1621-64.8477C63.5254-58.9961 49.1211-55.7246 37.9258-54.6153ZM83.4786-1.0918C87.4336-1.0918 90.1075-3.74415 90.1075-7.73439L90.1075-68.0996C90.1075-72.0547 87.4336-74.7422 83.4786-74.7422C79.5235-74.7422 76.836-72.0547 76.836-68.0996L76.836-7.73439C76.836-3.74415 79.5235-1.0918 83.4786-1.0918ZM39.6485 4.23439C44.0391 4.23439 47.2871 1.0547 46.1934-4.6914L43.8262-16.6367C41.6367-16.9765 38.9609-17.1914 32.8808-17.3437C31.3164-17.3789 28.0019-17.498 24.6035-17.498L31.8027-1.86327C33.707 2.30079 35.8672 4.23439 39.6485 4.23439Z"/>
</svg>