<svg xmlns="http://www.w3.org/2000/svg" viewBox="9.76562 -69.2891 88.96 68.1">
  <path d="M11.8301-58.2031L11.8301-55.123L96.6738-55.123L96.6738-58.2031ZM23.6231-1.19139L85.1602-1.19139C93.5879-1.19139 98.7246-6.40234 98.7246-15.0625L98.7246-55.418C98.7246-64.0781 93.5879-69.2891 85.1602-69.2891L23.6231-69.2891C14.9766-69.2891 9.76562-64.0781 9.76562-55.418L9.76562-15.0625C9.76562-6.40234 14.9766-1.19139 23.6231-1.19139ZM23.6934-4.50978C17.0918-4.50978 13.0703-8.51759 13.0703-15.1328L13.0703-55.3476C13.0703-61.9629 17.0918-65.9707 23.6934-65.9707L84.7969-65.9707C91.4121-65.9707 95.4199-61.9629 95.4199-55.3476L95.4199-15.1328C95.4199-8.51759 91.4121-4.50978 84.7969-4.50978ZM54.2344-41.6953L62.4316-33.3184L66.834-28.916C67.1523-28.584 67.5391-28.418 67.9824-28.418C68.9238-28.418 69.5742-29.0547 69.5742-29.9336C69.5742-30.5938 69.1973-31.0098 68.7246-31.4688L55.4727-44.3984C55.0723-44.75 54.6914-44.9375 54.2344-44.9375C53.7988-44.9375 53.4668-44.7852 53.0312-44.3984L39.7793-31.4688C39.293-31.0098 38.916-30.5938 38.916-29.9336C38.916-29.0547 39.5664-28.418 40.5078-28.418C40.9512-28.418 41.3379-28.584 41.6699-28.916L46.0586-33.3184ZM55.7071-41.1465C55.6934-41.9551 55.0645-42.6328 54.2344-42.6328C53.4258-42.6328 52.7969-41.9551 52.7832-41.1465L52.6309-32.3769L52.6309-17.3691C52.6309-16.5117 53.3496-15.7578 54.2344-15.7578C55.1406-15.7578 55.8731-16.5117 55.8731-17.3691L55.8731-32.3769Z" />
</svg>