<svg xmlns="http://www.w3.org/2000/svg" viewBox="6.83594 -72.9707 75.45 75.43">
  <path d="M44.5527 2.4629C65.3809 2.4629 82.2832-14.4258 82.2832-35.2539C82.2832-56.082 65.3809-72.9707 44.5527-72.9707C23.7383-72.9707 6.83594-56.082 6.83594-35.2539C6.83594-14.4258 23.7383 2.4629 44.5527 2.4629ZM44.5527-0.95119C25.5762-0.95119 10.2285-16.2774 10.2285-35.2539C10.2285-54.2305 25.5762-69.5566 44.5527-69.5566C63.5293-69.5566 78.8555-54.2305 78.8555-35.2539C78.8555-16.2774 63.5293-0.95119 44.5527-0.95119ZM32.2403-20.4355L59.3926-47.5879C59.7461-47.9765 59.9258-48.3848 59.9258-48.8906C59.9258-49.8242 59.1719-50.5293 58.1816-50.5293C57.6973-50.5293 57.3027-50.3984 56.8789-49.9609L29.7129-22.836C29.3242-22.4336 29.1797-22.0391 29.1797-21.5195C29.1797-20.5859 29.9336-19.8672 30.8887-19.8672C31.4571-19.8672 31.8301-20.0117 32.2403-20.4355ZM56.8516-20.4355C57.2754-20.0117 57.6484-19.8672 58.1816-19.8672C59.1719-19.8672 59.9258-20.5859 59.9258-21.5195C59.9258-22.0391 59.7461-22.4336 59.3926-22.836L32.2266-49.9609C31.8028-50.3984 31.4082-50.5293 30.8887-50.5293C29.9336-50.5293 29.1797-49.8242 29.1797-48.8906C29.1797-48.3848 29.3242-47.9765 29.7129-47.5879Z" />
</svg>