<svg xmlns="http://www.w3.org/2000/svg" viewBox="6.83594 -72.9707 75.45 75.43">
  <path d="M44.5527 2.4629C65.3809 2.4629 82.2832-14.4258 82.2832-35.2539C82.2832-56.082 65.3809-72.9707 44.5527-72.9707C23.7383-72.9707 6.83594-56.082 6.83594-35.2539C6.83594-14.4258 23.7383 2.4629 44.5527 2.4629ZM44.5527-0.95119C25.5762-0.95119 10.2285-16.2774 10.2285-35.2539C10.2285-54.2305 25.5762-69.5566 44.5527-69.5566C63.5293-69.5566 78.8555-54.2305 78.8555-35.2539C78.8555-16.2774 63.5293-0.95119 44.5527-0.95119ZM45.541-44.2461L25.8692-23.0098C25.0117-22.0899 25.1035-21.0313 26.1387-19.9629L23.252-16.4981C23.0098-16.2149 23.0235-15.8203 23.3282-15.5645L23.9141-14.9219C24.2403-14.6797 24.586-14.6524 24.8907-14.8809L28.4043-17.8164C29.3672-16.8379 30.461-16.7246 31.3672-17.5469L42.6367-27.957L42.6367-15.2793C42.6367-14.3262 43.3457-13.5684 44.3613-13.5684C45.3496-13.5684 46.0723-14.3613 46.0723-15.2793L46.0723-31.1699L52.4277-36.9941C55.0313-36.5527 57.8399-37.7617 60.3906-40.3262L48.6973-52.0332C46.0977-49.4688 45.0645-46.8926 45.541-44.2461ZM27.3965-21.5781L46.4277-41.8535C46.7988-41.0332 47.3027-40.3184 47.8906-39.625C48.5703-38.875 49.2852-38.2656 49.9785-37.8809L29.9278-19.0606ZM62.4043-54.0684C58.7754-57.7109 54.1934-57.4941 50.1856-53.5566L61.9492-41.8496C65.8652-45.8223 66.0684-50.4746 62.4043-54.0684Z" />
</svg>