<svg xmlns="http://www.w3.org/2000/svg" viewBox="6.83594 -70.9688 74.11 70.66">
  <path d="M6.83594-15.0879C6.83594-6.1953 12.8906-0.306627 22.3067-0.306627C25.4531-0.306627 28.5899-1.34569 31.0488-2.95702C29.2969-4.23436 27.6621-5.7578 25.8008-7.97264C25.0703-7.38475 23.9688-6.96483 22.959-6.96483C20.6875-6.96483 19.1172-8.29882 19.1172-10.252C19.1172-12.0801 20.5215-13.4434 22.5508-13.4434C24.3867-13.4434 25.5254-12.3731 27.0781-10.709C32.0137-5.43166 36.0488-1.85352 43.8887-1.85352C51.7071-1.85352 55.7637-5.43166 60.6641-10.709C62.252-12.3731 63.3906-13.4434 65.2051-13.4434C67.2559-13.4434 68.625-12.0801 68.625-10.252C68.625-8.29882 67.1035-6.96483 64.8184-6.96483C63.8223-6.96483 62.707-7.38475 61.9766-7.97264C60.1152-5.7578 58.4805-4.23436 56.7285-2.95702C59.1875-1.34569 62.3242-0.306627 65.4707-0.306627C74.8653-0.306627 80.9414-6.1953 80.9414-15.0879C80.9414-23.7598 74.625-30.1367 64.8633-30.9219C61.3516-37.8184 57.5742-51.5781 55.377-60.6191C53.7246-67.4102 49.918-70.9688 43.8887-70.9688C37.8594-70.9688 34.0664-67.4102 32.4004-60.6191C30.2031-51.5781 26.4258-37.8184 22.8926-30.9219C13.1523-30.1367 6.83594-23.7598 6.83594-15.0879Z"/>
</svg>