<svg xmlns="http://www.w3.org/2000/svg" viewBox="9.76562 -69.2891 68.08 68.1">
  <path d="M20.3184-1.19139L67.2969-1.19139C74.2403-1.19139 77.8496-4.87108 77.8496-11.7031L77.8496-58.7773C77.8496-65.6094 74.2403-69.2891 67.2969-69.2891L20.3184-69.2891C13.3887-69.2891 9.76562-65.6797 9.76562-58.7773L9.76562-11.7031C9.76562-4.80077 13.3887-1.19139 20.3184-1.19139ZM20.416-4.50978C15.5996-4.50978 13.0703-7.01173 13.0703-11.8691L13.0703-58.6113C13.0703-63.4824 15.5996-65.9707 20.416-65.9707L67.1992-65.9707C71.875-65.9707 74.5449-63.4824 74.5449-58.6113L74.5449-11.8691C74.5449-7.01173 71.875-4.50978 67.1992-4.50978ZM35.5762-17.9922C36.6406-17.9922 37.2637-18.7188 37.2637-19.7891L37.2637-30.9648L46.1856-30.9648C52.5781-30.9648 57.1075-35.3848 57.1075-41.6543C57.1075-47.8965 52.5293-52.3574 46.1856-52.3574L35.4922-52.3574C34.4766-52.3574 33.9023-51.625 33.9023-50.5469L33.9023-19.7891C33.9023-18.7461 34.5469-17.9922 35.5762-17.9922ZM37.2637-33.7988L37.2637-49.5449L45.9902-49.5449C50.5742-49.5449 53.7871-46.3027 53.7871-41.6543C53.7871-37.041 50.5527-33.7988 45.9902-33.7988Z" />
</svg>