<svg xmlns="http://www.w3.org/2000/svg" viewBox="9.76562 -69.2891 88.96 68.1">
  <path d="M20.3184-1.19139L88.1719-1.19139C95.1152-1.19139 98.7246-4.87108 98.7246-11.7031L98.7246-58.7773C98.7246-65.6094 95.1152-69.2891 88.1719-69.2891L20.3184-69.2891C13.3887-69.2891 9.76562-65.6797 9.76562-58.7773L9.76562-11.7031C9.76562-4.80077 13.3887-1.19139 20.3184-1.19139ZM20.416-4.50978C15.5996-4.50978 13.0703-7.01173 13.0703-11.8691L13.0703-58.6113C13.0703-63.4824 15.5996-65.9707 20.416-65.9707L88.0742-65.9707C92.75-65.9707 95.4199-63.4824 95.4199-58.6113L95.4199-11.8691C95.4199-7.01173 92.75-4.50978 88.0742-4.50978ZM27.6484-3.70899L80.8418-3.70899C79.4414-14.127 67.9453-23.3281 54.2344-23.3281C40.5586-23.3281 29.0488-14.127 27.6484-3.70899ZM54.2344-29.5976C61.3828-29.5703 67.0527-35.6094 67.0527-43.5801C67.0527-51.1328 61.3828-57.3398 54.2344-57.3398C47.1074-57.3398 41.4238-51.1328 41.4375-43.5801C41.4512-35.6094 47.1074-29.6113 54.2344-29.5976Z"/>
</svg>