<svg xmlns="http://www.w3.org/2000/svg" viewBox="9.76562 -72.7559 95.79 75.17">
  <path d="M20.3184-13.2012L46.8555-13.2012L46.8555-16.5059L20.416-16.5059C15.5996-16.5059 13.0703-19.0078 13.0703-23.8789L13.0703-62.0781C13.0703-66.9492 15.5996-69.4512 20.416-69.4512L76.1231-69.4512C80.7988-69.4512 83.4687-66.9492 83.4687-62.0781L83.4687-42.5957L86.7735-42.5957L86.7735-62.2578C86.7735-69.0899 83.1504-72.7559 76.2207-72.7559L20.3184-72.7559C13.375-72.7559 9.76562-69.1602 9.76562-62.2578L9.76562-23.6992C9.76562-16.7969 13.375-13.2012 20.3184-13.2012ZM56.2461 2.41604L95 2.41604C101.965 2.41604 105.553-1.24998 105.553-8.08202L105.553-33.5351C105.553-40.3887 101.965-44.0332 95-44.0332L56.2461-44.0332C49.2813-44.0332 45.6934-40.4726 45.6934-33.5351L45.6934-8.08202C45.6934-1.17967 49.2813 2.41604 56.2461 2.41604ZM37.0313-58.3008C36.8711-59.2402 35.7793-60.2559 34.625-59.1016L30.1446-54.6836L22.7032-62.1602C22.17-62.7422 21.2344-62.707 20.666-62.1602C20.1543-61.5918 20.1192-60.6562 20.666-60.123L28.1426-52.6816L23.7246-48.2012C22.5703-47.0469 23.5859-45.9902 24.5254-45.8301L37.5117-43.541C38.0196-43.4434 38.5274-43.6172 38.9102-43.916C39.2442-44.2988 39.418-44.8066 39.3203-45.3145ZM58.3281-19.0879L56.0528-32.0605C55.9551-32.582 56.1153-33.0898 56.4492-33.4727C56.8321-33.793 57.3399-33.9668 57.8614-33.8691L70.834-31.5938C71.7735-31.4473 72.8028-30.3281 71.6485-29.1738L67.2168-24.707L74.7071-17.2656C75.2403-16.6836 75.2403-15.7969 74.7071-15.2148C74.125-14.6816 73.2383-14.6816 72.6563-15.2148L65.2149-22.7051L60.7344-18.2734C59.5938-17.1191 58.4746-18.1348 58.3281-19.0879Z"/>
</svg>