<svg xmlns="http://www.w3.org/2000/svg" viewBox="14.6484 -73.4766 44.03 76.47">
  <path d="M26.3106-54.3223L47.0039-54.3223C49.1465-54.3223 50.4785-55.6543 50.4785-57.8242L50.4785-61.7871C50.4785-63.957 49.1465-65.2891 47.0039-65.2891L26.3106-65.2891C24.168-65.2891 22.836-63.957 22.836-61.7871L22.836-57.8242C22.836-55.6543 24.168-54.3223 26.3106-54.3223ZM14.6484-6.34373C14.6484-0.351546 18.0234 2.99026 24.1113 2.99026L49.2032 2.99026C55.2559 2.99026 58.6797-0.351546 58.6797-6.34373L58.6797-64.1426C58.6797-70.1348 55.2559-73.4766 49.2032-73.4766L24.1113-73.4766C18.0234-73.4766 14.6484-70.1348 14.6484-64.1426ZM17.9532-6.68554L17.9532-63.8008C17.9532-68.1738 20.0274-70.1719 24.4414-70.1719L48.8731-70.1719C53.3008-70.1719 55.3614-68.1738 55.3614-63.8008L55.3614-6.68554C55.3614-2.3125 53.3008-0.279304 48.8731-0.279304L24.4414-0.279304C20.0274-0.279304 17.9532-2.3125 17.9532-6.68554Z"/>
</svg>