<svg xmlns="http://www.w3.org/2000/svg" viewBox="9.76562 -69.2891 68.08 68.1">
  <path d="M37.4141-14.2285L50.2012-14.2285C51.9766-14.2285 53.166-15.4531 53.166-17.1797L53.166-53.1524C53.166-54.9141 51.9766-56.125 50.2012-56.125L37.4141-56.125C35.6738-56.125 34.4492-54.9141 34.4492-53.1524L34.4492-17.1797C34.4492-15.4531 35.6738-14.2285 37.4141-14.2285ZM43.8145-43.6641C41.8281-43.6641 40.2324-45.2324 40.2324-47.2324C40.2324-49.1836 41.8281-50.752 43.8145-50.752C45.7871-50.752 47.3828-49.1836 47.3828-47.2324C47.3828-45.2324 45.7871-43.6641 43.8145-43.6641ZM43.8145-31.6855C41.8281-31.6855 40.2324-33.2676 40.2324-35.2539C40.2324-37.2402 41.8281-38.8223 43.8145-38.8223C45.7871-38.8223 47.3828-37.2402 47.3828-35.2539C47.3828-33.2676 45.7871-31.6855 43.8145-31.6855ZM43.8145-19.7559C41.8281-19.7559 40.2324-21.3242 40.2324-23.2754C40.2324-25.2754 41.8281-26.8437 43.8145-26.8437C45.7871-26.8437 47.3828-25.2754 47.3828-23.2754C47.3828-21.3242 45.7871-19.7559 43.8145-19.7559ZM20.3184-1.19139L67.2969-1.19139C74.2403-1.19139 77.8496-4.87108 77.8496-11.7031L77.8496-58.7773C77.8496-65.6094 74.2403-69.2891 67.2969-69.2891L20.3184-69.2891C13.3887-69.2891 9.76562-65.6797 9.76562-58.7773L9.76562-11.7031C9.76562-4.80077 13.3887-1.19139 20.3184-1.19139ZM20.416-4.50978C15.5996-4.50978 13.0703-7.01173 13.0703-11.8691L13.0703-58.6113C13.0703-63.4824 15.5996-65.9707 20.416-65.9707L67.1992-65.9707C71.875-65.9707 74.5449-63.4824 74.5449-58.6113L74.5449-11.8691C74.5449-7.01173 71.875-4.50978 67.1992-4.50978Z" />
</svg>