<svg xmlns="http://www.w3.org/2000/svg" viewBox="9.76562 -66.961 84.1 63.41">
  <path d="M38.7442-66.961C18.127-66.961 9.76562-57.2422 9.76562-38.2891L9.76562-13.6738C9.76562-7.07225 13.3047-3.54686 19.9473-3.54686L83.6856-3.54686C90.3145-3.54686 93.8672-7.14256 93.8672-13.6738L93.8672-38.2891C93.8672-57.2422 85.5059-66.961 64.8535-66.961ZM35.418-19.5117C34.3652-19.5117 33.7344-20.2324 33.7344-21.2363L33.7344-49.0449C33.7344-50.1191 34.2949-50.7422 35.3692-50.7422L41.6524-50.7422C47.2715-50.7422 50.4824-47.3086 50.4824-41.791C50.4824-37.5977 48.5157-34.6504 45.4043-33.4687L50.2793-22.1758C50.459-21.7832 50.5899-21.375 50.5899-21.0977C50.5899-20.082 49.8711-19.5117 48.9961-19.5117C48.1309-19.5117 47.6602-19.9258 47.3066-20.7285L42.252-32.6914L37.0664-32.6914L37.0664-21.2363C37.0664-20.2188 36.4219-19.5117 35.418-19.5117ZM37.0664-35.3906L41.3828-35.3906C45.3047-35.3906 47.123-38.0527 47.123-41.7285C47.123-45.707 44.877-47.9824 41.3477-47.9824L37.0664-47.9824ZM56.834-19.7813C55.8438-19.7813 55.2324-20.3281 55.2324-21.1465C55.2324-21.8106 55.5352-22.3086 55.9649-22.9121L63.9102-33.7422C66.25-36.9785 67.6094-39.6035 67.6094-42.5039C67.6094-45.4434 66.1426-48.4883 62.9668-48.4883C60.0782-48.4883 58.7207-46.1934 58.1641-42.8437C57.9922-42.0957 57.4649-41.707 56.7305-41.707C55.752-41.707 55.2813-42.4082 55.2813-43.1758C55.2813-47.2227 58.4004-51.2969 62.9453-51.2969C67.8457-51.2969 70.6426-47.4805 70.6426-42.6426C70.6426-39.4141 69.5489-36.6309 66.3535-32.3594L59.4336-22.7832L59.4336-22.6172L69.9121-22.6172C70.7442-22.6172 71.3204-22.0547 71.3204-21.1817C71.3204-20.3711 70.7578-19.7813 69.9121-19.7813Z"/>
</svg>