<svg xmlns="http://www.w3.org/2000/svg" viewBox="9.76562 -71.0274 96.34 71.7">
  <path d="M15.2715-50.3418L32.1465-50.3418C35.6836-50.3418 37.6387-52.1133 37.6387-55.9024L37.6387-65.4668C37.6387-69.2559 35.6836-71.0274 32.1465-71.0274L15.2715-71.0274C11.7559-71.0274 9.76562-69.2559 9.76562-65.4668L9.76562-55.9024C9.76562-52.1133 11.7559-50.3418 15.2715-50.3418ZM15.5742-53.3457C13.5938-53.3457 12.7696-54.1836 12.7696-56.2051L12.7696-65.2051C12.7696-67.1992 13.5938-68.0234 15.5742-68.0234L31.8652-68.0234C33.8105-68.0234 34.6484-67.1992 34.6484-65.2051L34.6484-56.2051C34.6484-54.1836 33.8105-53.3457 31.8652-53.3457ZM49.5-50.3418L66.3887-50.3418C69.9043-50.3418 71.8809-52.1133 71.8809-55.9024L71.8809-65.4668C71.8809-69.2559 69.9043-71.0274 66.3887-71.0274L49.5-71.0274C45.9492-71.0274 44.0078-69.2559 44.0078-65.4668L44.0078-55.9024C44.0078-52.1133 45.9492-50.3418 49.5-50.3418ZM49.7676-53.3457C47.8223-53.3457 47.0117-54.1836 47.0117-56.2051L47.0117-65.2051C47.0117-67.1992 47.8223-68.0234 49.7676-68.0234L66.0723-68.0234C68.0527-68.0234 68.8769-67.1992 68.8769-65.2051L68.8769-56.2051C68.8769-54.1836 68.0527-53.3457 66.0723-53.3457ZM83.7207-50.3418L100.596-50.3418C104.146-50.3418 106.102-52.1133 106.102-55.9024L106.102-65.4668C106.102-69.2559 104.146-71.0274 100.596-71.0274L83.7207-71.0274C80.2187-71.0274 78.2285-69.2559 78.2285-65.4668L78.2285-55.9024C78.2285-52.1133 80.2187-50.3418 83.7207-50.3418ZM84.0234-53.3457C82.043-53.3457 81.2188-54.1836 81.2188-56.2051L81.2188-65.2051C81.2188-67.1992 82.043-68.0234 84.0234-68.0234L100.314-68.0234C102.26-68.0234 103.098-67.1992 103.098-65.2051L103.098-56.2051C103.098-54.1836 102.26-53.3457 100.314-53.3457ZM15.2715-24.8223L32.1465-24.8223C35.6836-24.8223 37.6387-26.6016 37.6387-30.3555L37.6387-39.9473C37.6387-43.7363 35.6836-45.4941 32.1465-45.4941L15.2715-45.4941C11.7559-45.4941 9.76562-43.7363 9.76562-39.9473L9.76562-30.3555C9.76562-26.6016 11.7559-24.8223 15.2715-24.8223ZM15.5742-27.8125C13.5938-27.8125 12.7696-28.6719 12.7696-30.6582L12.7696-39.707C12.7696-41.666 13.5938-42.4902 15.5742-42.4902L31.8652-42.4902C33.8105-42.4902 34.6484-41.666 34.6484-39.707L34.6484-30.6582C34.6484-28.6719 33.8105-27.8125 31.8652-27.8125ZM49.5-24.8223L66.3887-24.8223C69.9043-24.8223 71.8809-26.6016 71.8809-30.3555L71.8809-39.9473C71.8809-43.7363 69.9043-45.4941 66.3887-45.4941L49.5-45.4941C45.9492-45.4941 44.0078-43.7363 44.0078-39.9473L44.0078-30.3555C44.0078-26.6016 45.9492-24.8223 49.5-24.8223ZM49.7676-27.8125C47.8223-27.8125 47.0117-28.6719 47.0117-30.6582L47.0117-39.707C47.0117-41.666 47.8223-42.4902 49.7676-42.4902L66.0723-42.4902C68.0527-42.4902 68.8769-41.666 68.8769-39.707L68.8769-30.6582C68.8769-28.6719 68.0527-27.8125 66.0723-27.8125ZM83.7207-24.8223L100.596-24.8223C104.146-24.8223 106.102-26.6016 106.102-30.3555L106.102-39.9473C106.102-43.7363 104.146-45.4941 100.596-45.4941L83.7207-45.4941C80.2187-45.4941 78.2285-43.7363 78.2285-39.9473L78.2285-30.3555C78.2285-26.6016 80.2187-24.8223 83.7207-24.8223ZM84.0234-27.8125C82.043-27.8125 81.2188-28.6719 81.2188-30.6582L81.2188-39.707C81.2188-41.666 82.043-42.4902 84.0234-42.4902L100.314-42.4902C102.26-42.4902 103.098-41.666 103.098-39.707L103.098-30.6582C103.098-28.6719 102.26-27.8125 100.314-27.8125ZM15.2715 0.675789L32.1465 0.675789C35.6836 0.675789 37.6387-1.08203 37.6387-4.8711L37.6387-14.4492C37.6387-18.2031 35.6836-19.9961 32.1465-19.9961L15.2715-19.9961C11.7559-19.9961 9.76562-18.2031 9.76562-14.4492L9.76562-4.8711C9.76562-1.08203 11.7559 0.675789 15.2715 0.675789ZM15.5742-2.32814C13.5938-2.32814 12.7696-3.15236 12.7696-5.12501L12.7696-14.1738C12.7696-16.1816 13.5938-17.0058 15.5742-17.0058L31.8652-17.0058C33.8105-17.0058 34.6484-16.1816 34.6484-14.1738L34.6484-5.12501C34.6484-3.15236 33.8105-2.32814 31.8652-2.32814ZM49.5 0.675789L66.3887 0.675789C69.9043 0.675789 71.8809-1.08203 71.8809-4.8711L71.8809-14.4492C71.8809-18.2031 69.9043-19.9961 66.3887-19.9961L49.5-19.9961C45.9492-19.9961 44.0078-18.2031 44.0078-14.4492L44.0078-4.8711C44.0078-1.08203 45.9492 0.675789 49.5 0.675789ZM49.7676-2.32814C47.8223-2.32814 47.0117-3.15236 47.0117-5.12501L47.0117-14.1738C47.0117-16.1816 47.8223-17.0058 49.7676-17.0058L66.0723-17.0058C68.0527-17.0058 68.8769-16.1816 68.8769-14.1738L68.8769-5.12501C68.8769-3.15236 68.0527-2.32814 66.0723-2.32814ZM83.7207 0.675789L100.596 0.675789C104.146 0.675789 106.102-1.08203 106.102-4.8711L106.102-14.4492C106.102-18.2031 104.146-19.9961 100.596-19.9961L83.7207-19.9961C80.2187-19.9961 78.2285-18.2031 78.2285-14.4492L78.2285-4.8711C78.2285-1.08203 80.2187 0.675789 83.7207 0.675789ZM84.0234-2.32814C82.043-2.32814 81.2188-3.15236 81.2188-5.12501L81.2188-14.1738C81.2188-16.1816 82.043-17.0058 84.0234-17.0058L100.314-17.0058C102.26-17.0058 103.098-16.1816 103.098-14.1738L103.098-5.12501C103.098-3.15236 102.26-2.32814 100.314-2.32814Z"/>
</svg>