<svg xmlns="http://www.w3.org/2000/svg" viewBox="9.76562 -76.0977 51.67 81.53">
  <path d="M17.0879 5.42776L54.1524 5.42776C58.5235 5.42776 61.4395 2.28713 61.4395-2.41991L61.4395-68.2637C61.4395-72.9571 58.5235-76.0977 54.1524-76.0977L17.0879-76.0977C12.6816-76.0977 9.76562-72.9571 9.76562-68.2637L9.76562-2.41991C9.76562 2.28713 12.6816 5.42776 17.0879 5.42776ZM17.1133 2.12304C14.6719 2.12304 13.0703 0.345706 13.0703-2.36327L13.0703-68.3067C13.0703-71.0293 14.6719-72.793 17.1133-72.793L54.127-72.793C56.5332-72.793 58.1699-71.0293 58.1699-68.3067L58.1699-2.36327C58.1699 0.345706 56.5332 2.12304 54.127 2.12304ZM20.8125-55.1152C21.5547-55.1152 22.1035-55.6426 22.1035-56.3848L22.1035-65.5508C22.1035-66.2578 21.5547-66.8203 20.8125-66.8203C20.0918-66.8203 19.543-66.2578 19.543-65.5508L19.543-56.3848C19.543-55.6426 20.0918-55.1152 20.8125-55.1152ZM11.9102-45.6719L59.3086-45.6719L59.3086-48.5938L11.9102-48.5938ZM20.8125-29.2051C21.5547-29.2051 22.1035-29.7676 22.1035-30.5098L22.1035-39.6406C22.1035-40.3828 21.5547-40.9453 20.8125-40.9453C20.0918-40.9453 19.543-40.3828 19.543-39.6406L19.543-30.5098C19.543-29.7676 20.0918-29.2051 20.8125-29.2051ZM11.9102-4.68358L59.3086-4.68358L59.3086-7.60548L11.9102-7.60548Z"/>
</svg>