<svg xmlns="http://www.w3.org/2000/svg" viewBox="9.7793 -62.7598 36.57 55.88">
  <path d="M11.5274-6.87695C12.5703-6.87695 13.2266-7.58204 13.2266-8.68752L13.2266-30.7148L27.4492-30.7148C28.0449-30.7148 28.9434-30.75 29.5391-30.8203L43.0176-7.89845C43.3828-7.19532 43.8945-6.87695 44.6055-6.87695C45.6074-6.87695 46.3457-7.54688 46.3457-8.5215C46.3457-8.91604 46.1934-9.24026 45.9375-9.68948L33.0899-31.3516C41.0938-33.0625 45.7656-38.8437 45.7656-46.7988C45.7656-56.6387 38.8828-62.7598 27.8242-62.7598L11.5274-62.7598C10.5117-62.7598 9.7793-62.0273 9.7793-60.9629L9.7793-8.68752C9.7793-7.58204 10.4492-6.87695 11.5274-6.87695ZM13.2266-33.9219L13.2266-59.539L27.6133-59.539C36.8184-59.539 42.25-54.8711 42.25-46.7441C42.25-38.7383 36.8301-33.9219 27.6953-33.9219Z"/>
</svg>