<svg xmlns="http://www.w3.org/2000/svg" viewBox="9.76562 -68.9277 51.32 67.35">
  <path d="M21.8379-1.58007C23.0118-1.58007 23.8067-2.35351 23.8067-3.56251L23.8067-15.3711L43.7754-15.3711C44.6407-15.3711 45.209-15.9531 45.209-16.8183C45.209-17.7324 44.6407-18.293 43.7754-18.293L23.8067-18.293L23.8067-29.4453L39.6367-29.4453C52.2735-29.4453 61.0879-36.6406 61.0879-49.1797C61.0879-61.8457 52.1035-68.9277 39.6641-68.9277L21.8379-68.9277C20.6289-68.9277 19.9043-68.1543 19.9043-66.8965L19.9043-32.3106L11.2129-32.3106C10.3477-32.3106 9.76562-31.7852 9.76562-30.9062C9.76562-30.0273 10.3477-29.4453 11.2129-29.4453L19.9043-29.4453L19.9043-18.293L11.2129-18.293C10.3477-18.293 9.7793-17.7324 9.7793-16.8183C9.7793-15.9531 10.3477-15.3711 11.2129-15.3711L19.9043-15.3711L19.9043-3.56251C19.9043-2.35351 20.6641-1.58007 21.8379-1.58007ZM23.8067-32.8867L23.8067-65.4804L38.916-65.4804C49.8145-65.4804 57.0742-59.914 57.0742-49.1797C57.0742-38.4317 49.8145-32.8867 38.916-32.8867Z"/>
</svg>