<svg xmlns="http://www.w3.org/2000/svg" viewBox="6.83594 -72.9707 75.45 75.43">
  <path d="M44.5527 2.4629C65.3106 2.4629 82.2832-14.5098 82.2832-35.2539C82.2832-55.9981 65.3106-72.9707 44.5527-72.9707C23.8086-72.9707 6.83594-55.9981 6.83594-35.2539C6.83594-14.5098 23.8086 2.4629 44.5527 2.4629ZM19.5938-27.748C17.7852-27.748 16.7481-27.8359 15.7246-28.5547C15.6895-28.6738 15.7598-28.9961 15.7598-29.0938L15.7246-38.9512C15.7246-41.752 18.3828-43.0664 20.8496-41.7598C22.4766-40.8594 23.9922-40.2656 26.3457-40.2305C28.9512-40.2656 31.4727-41.5859 33.9961-44.8555C36.4473-47.9766 39.3067-48.2324 42.6289-46.3906L43.9785-45.6602L40.3906-40.6543C40.084-40.2148 40.1817-39.5606 40.6211-39.2402C41.0742-38.9199 41.75-38.9902 42.084-39.457L45.7481-44.5938L48.2207-43.1484L44.8906-38.5059C44.543-38.0254 44.6895-37.4121 45.1426-37.0566C45.6231-36.709 46.2363-36.793 46.5918-37.2734L50.0039-42.1172L52.4551-40.6855L49.377-36.3574C49.0567-35.877 49.1406-35.3125 49.5938-34.9434C50.0606-34.5957 50.7227-34.6934 51.0567-35.1602L54.2871-39.6543C55.582-38.9609 56.2109-38.8906 57.7774-38.9258C59.6484-38.9258 64.4219-39.6934 66.459-39.6934C70.2519-39.6445 72.1855-37.3653 72.6113-36.0528C73.0762-34.9551 72.1055-33.4395 69.5508-32.2441L63.1094-29.2285C60.9238-28.1504 58.9082-27.7617 54.707-27.7617ZM22.2168-22.0723C18.9981-22.0723 16.711-23.4062 15.9395-26.5039C17.1016-25.8379 18.0606-25.6855 19.6778-25.6855L54.7773-25.6855C58.9981-25.6855 61.1992-26.123 63.8809-27.3965L70.3789-30.4961C71.9922-31.2813 72.8926-32.3496 73.375-33.4277C73.3887-33.2617 73.4375-33.1172 73.3887-32.9102C73.4375-30.0371 71.8555-27.7305 68.1094-25.6445C63.3301-22.9512 60.0039-22.0723 54.6816-22.0723Z"/>
</svg>