<svg xmlns="http://www.w3.org/2000/svg" viewBox="9.68359 -77.0391 74.44 82.98">
  <path d="M46.8848-31.7949C47.9258-31.7949 48.8477-32.1914 50.0547-32.8711L81.1778-50.8672C83.0977-51.9687 84.0157-52.9199 84.0157-54.4062C84.0157-55.914 83.0977-56.8789 81.1778-57.9668L50.0547-75.9629C48.8477-76.6562 47.9258-77.0391 46.8848-77.0391C45.8789-77.0391 44.957-76.6562 43.7637-75.9629L12.627-57.9668C10.7207-56.8789 9.78906-55.914 9.78906-54.4062C9.78906-52.9199 10.7207-51.9687 12.627-50.8672L43.7637-32.8711C44.957-32.1914 45.8789-31.7949 46.8848-31.7949ZM46.8848-35.3125C46.4746-35.3125 46.1133-35.4727 45.6055-35.7441L14.5235-53.5996C14.1797-53.789 13.9063-54.0137 13.9063-54.4062C13.9063-54.8203 14.1797-55.0449 14.5235-55.248L45.6055-73.0898C46.1133-73.375 46.4746-73.5351 46.8848-73.5351C47.3301-73.5351 47.7051-73.375 48.1992-73.0898L79.2813-55.248C79.6387-55.0449 79.8984-54.8203 79.8984-54.4062C79.8984-54.0137 79.6387-53.789 79.2813-53.5996L48.1992-35.7441C47.7051-35.4727 47.3301-35.3125 46.8848-35.3125ZM46.8848-12.4961C47.8711-12.4961 48.6973-12.9472 49.8223-13.6211L82.6485-32.6816C83.6836-33.3066 84.1211-34.0898 84.1211-34.8457C84.1211-35.7031 83.6114-36.3809 83.1856-36.6641L48.1309-16.4805C47.6504-16.2227 47.2891-16.0488 46.8848-16.0488C46.4805-16.0488 46.1543-16.2227 45.6875-16.4805L10.6192-36.6641C10.1719-36.3809 9.68359-35.7031 9.68359-34.8457C9.68359-34.0898 10.1484-33.2929 11.1348-32.6816L43.9609-13.6211C45.1211-12.9472 45.9336-12.4961 46.8848-12.4961ZM46.8848 5.94143C47.8711 5.94143 48.6973 5.49025 49.8223 4.85158L82.6485-14.2226C83.67-14.8203 84.1211-15.6172 84.1211-16.373C84.1211-17.2656 83.6114-17.9219 83.1856-18.1914L48.1309 1.9785C47.6504 2.24999 47.2891 2.42382 46.8848 2.42382C46.4805 2.42382 46.1543 2.24999 45.6875 1.9785L10.6192-18.1914C10.1719-17.9219 9.68359-17.2656 9.68359-16.373C9.68359-15.6172 10.1484-14.8203 11.1348-14.2226L43.9609 4.85158C45.1211 5.49025 45.9336 5.94143 46.8848 5.94143Z"/>
</svg>