<svg xmlns="http://www.w3.org/2000/svg" viewBox="-0.958988 -72.9707 83.24 75.43">
  <path d="M1.30274-41.9219C-0.402346-41.9219-0.958988-40.7363 0.103517-39.2715L8.23243-27.6562C9.07228-26.4199 10.2793-26.4199 11.1055-27.6562L19.2344-39.25C20.2832-40.7363 19.7266-41.9219 18.0352-41.9219ZM82.2832-35.2539C82.2832-56.082 65.3809-72.9707 44.5527-72.9707C23.7383-72.9707 6.84961-56.0957 6.83594-35.2051C6.84961-34.2226 7.63087-33.5117 8.54298-33.5117C9.43362-33.5117 10.2285-34.2363 10.2285-35.2188C10.2285-54.2305 25.5762-69.5566 44.5527-69.5566C63.5293-69.5566 78.8555-54.2305 78.8555-35.2539C78.8555-16.2774 63.5293-0.95119 44.5527-0.95119C32.2051-0.95119 21.3731-7.45704 15.4004-17.3105C14.8067-18.1328 13.8321-18.3887 12.9746-17.9336C12.2012-17.457 11.9453-16.3242 12.5801-15.4043C19.1875-4.67381 31.0508 2.4629 44.5527 2.4629C65.3809 2.4629 82.2832-14.4258 82.2832-35.2539ZM32.5859-19.3535L55.1777-19.3535C55.9199-19.3535 56.5235-19.8105 56.5235-20.5742C56.5235-21.2891 55.9199-21.7949 55.1777-21.7949L36.3672-21.7949L36.3672-22.0469C39.6133-22.7891 41.332-26.7207 41.332-29.9707C41.332-31.7051 41.0938-33.0742 40.6875-34.375L51.207-34.375C51.8809-34.375 52.3594-34.8047 52.3594-35.416C52.3594-36.041 51.8457-36.457 51.207-36.457L40.1465-36.457C39.6094-38.2734 39.1953-39.8398 39.1953-41.8691C39.1953-46.123 42.1348-49.332 47.8711-49.332C49.7207-49.332 51.0899-49.1016 52.4961-48.5547C53.0039-48.373 53.4551-48.2617 53.8164-48.2617C54.5313-48.2617 54.9121-48.6855 54.9121-49.3652C54.9121-50.0313 54.4903-50.3418 53.5977-50.7188C51.8008-51.5 49.7793-51.8223 47.6289-51.8223C40.8125-51.8223 36.2969-48.1289 36.2969-41.7227C36.2969-39.9121 36.6543-38.2285 37.1914-36.457L32.8711-36.457C32.2324-36.457 31.7324-36.0059 31.7324-35.416C31.7324-34.8047 32.2324-34.375 32.8711-34.375L37.8027-34.375C38.2012-32.8164 38.5234-31.3633 38.5234-29.8594C38.5234-26 36.2383-23.0254 32.4961-22.0449C31.8379-21.8164 31.3516-21.2734 31.3516-20.6016C31.3516-19.8809 31.8789-19.3535 32.5859-19.3535Z" />
</svg>