<svg xmlns="http://www.w3.org/2000/svg" viewBox="6.83594 -72.9707 75.45 75.43">
  <path d="M44.5527 2.4629C65.3809 2.4629 82.2832-14.4258 82.2832-35.2539C82.2832-56.082 65.3809-72.9707 44.5527-72.9707C23.7383-72.9707 6.83594-56.082 6.83594-35.2539C6.83594-14.4258 23.7383 2.4629 44.5527 2.4629ZM44.5527-0.95119C25.5762-0.95119 10.2285-16.2774 10.2285-35.2539C10.2285-54.2305 25.5762-69.5566 44.5527-69.5566C63.5293-69.5566 78.8555-54.2305 78.8555-35.2539C78.8555-16.2774 63.5293-0.95119 44.5527-0.95119ZM22.4961-28.0488L29.2422-28.0488C30.0469-28.0488 30.5938-28.5684 30.5938-29.332C30.5938-30.0606 30.0117-30.6152 29.2422-30.6152L22.4961-30.6152C21.7617-30.6152 21.1719-30.0469 21.1719-29.332C21.1719-28.6172 21.7617-28.0488 22.4961-28.0488ZM32.8184-38.6621C33.3027-38.2266 34.1914-38.1992 34.6699-38.6562C35.2461-39.2539 35.0781-40.1074 34.6289-40.5781L29.8633-45.3574C29.3301-45.9121 28.4903-45.7578 28.0117-45.293C27.5196-44.7519 27.5196-43.9961 28.0879-43.4765ZM44.5391-44.2285C45.3164-44.2285 45.8574-44.8457 45.8574-45.5664L45.8574-53.7187L45.7598-55.875L46.9668-54.6816L50.0723-51.5C50.3086-51.2637 50.6758-51.125 50.9746-51.125C51.7109-51.125 52.2461-51.6601 52.2461-52.3477C52.2461-52.709 52.1348-53.0078 51.6817-53.4473L45.4551-59.5996C45.1992-59.8281 44.8652-59.9316 44.5391-59.9316C44.2266-59.9316 43.8926-59.8281 43.6367-59.5996L37.3965-53.4473C36.9922-53.043 36.8457-52.709 36.8457-52.3477C36.8457-51.6601 37.3809-51.125 38.1172-51.125C38.4863-51.125 38.791-51.334 39.0547-51.5703L42.2559-54.7363L43.2969-55.8476L43.1992-53.7187L43.1992-45.5664C43.1992-44.8457 43.7754-44.2285 44.5391-44.2285ZM54.4356-38.6562C54.9141-38.2129 55.7891-38.2129 56.2735-38.6621L61.0039-43.4765C61.5234-43.9961 61.5371-44.7519 61.0801-45.293C60.6016-45.7852 59.748-45.8984 59.2285-45.3574L54.4492-40.5781C54-40.0938 53.8594-39.2539 54.4356-38.6562ZM59.836-28.0488L66.5957-28.0488C67.3652-28.0488 67.9199-28.582 67.9199-29.332C67.9199-30.082 67.3652-30.6152 66.5957-30.6152L59.836-30.6152C59.0801-30.6152 58.4981-30.0606 58.4981-29.332C58.4981-28.5684 59.1504-28.0488 59.836-28.0488ZM55.3457-28.8574C55.3457-34.7949 50.4902-39.6641 44.5391-39.6641C38.6152-39.6641 33.7461-34.7949 33.7461-28.8574C33.7461-27.1777 34.1387-25.5684 34.8535-24.1348L54.2383-24.1348C54.9395-25.5684 55.3457-27.1777 55.3457-28.8574ZM22.4825-19.5059L66.6094-19.5059C67.3242-19.5059 67.9199-20.0469 67.9199-20.7754C67.9199-21.5039 67.3379-22.0586 66.6094-22.0586L22.4825-22.0586C21.7891-22.0586 21.1719-21.4688 21.1719-20.7754C21.1719-20.0469 21.8028-19.5059 22.4825-19.5059Z" />
</svg>