<svg xmlns="http://www.w3.org/2000/svg" viewBox="6.18554 -73.6348 75.19 75.39">
  <path d="M78.4317 1.10549C79.0821 1.75589 80.0703 1.75589 80.7422 1.10549C81.379 0.490253 81.3575-0.554677 80.7422-1.16992L9.12502-72.9141C8.54494-73.4942 7.52149-73.6348 6.83594-72.9141C6.19921-72.2774 6.18554-71.2539 6.83594-70.6035ZM32.3399-19.1621C33.2676-19.1621 33.8633-19.8828 33.8633-20.8242L33.8633-38.3808L30.7598-41.4707L30.7598-20.8242C30.7598-19.8477 31.3281-19.1621 32.3399-19.1621ZM55.3438-48.9121C59.0938-48.9121 61.6855-46.1016 62.4902-41.9883C62.6074-41.1289 63.1269-40.6504 63.959-40.6504C64.8106-40.6504 65.3379-41.2871 65.3379-42.0918C65.3379-42.375 65.2539-42.877 65.1426-43.3574C64.1719-48.2441 60.0762-51.6914 55.3301-51.6914C49.4512-51.6914 46.1895-47.5137 44.9082-42.2481L47.418-39.7031C48.1856-44.7441 50.5157-48.9121 55.3438-48.9121ZM73.4864-13.5645C77.4043-18.8574 80.7774-25.6016 80.7774-34.7832C80.7774-43.7383 77.5039-52.2168 72.3418-59.2109C70.5879-61.5645 70.3145-62.043 70.3145-63.8496L70.3145-70.0234C70.3145-70.8594 69.5957-71.6485 68.6895-71.6485C67.8672-71.6485 67.0781-70.8594 67.0781-70.0234L67.0781-63.7129C67.0781-60.5019 68.0859-59.4727 69.6387-57.4062C74.3164-51.0078 77.4727-43.1504 77.4727-34.7832C77.4727-26.9551 74.836-20.9551 70.7461-16.3535ZM19.1563 1.09181C20.0137 1.09181 20.7676 0.302745 20.7676-0.5332L20.7676-2.92187L27.6602-2.92187L27.6602-0.5332C27.6602 0.302745 28.4141 1.09181 29.2852 1.09181C30.1426 1.09181 30.8965 0.302745 30.8965-0.5332L30.8965-2.92187L37.3008-2.92187L37.3008-0.5332C37.3008 0.302745 38.1035 1.09181 38.9258 1.09181C39.8321 1.09181 40.5508 0.302745 40.5508-0.5332L40.5508-2.92187L46.957-2.92187L46.957-0.5332C46.957 0.302745 47.7598 1.09181 48.5684 1.09181C49.4043 1.09181 50.2071 0.302745 50.2071-0.5332L50.2071-2.92187L56.6465-2.92187L56.6465-0.5332C56.6465 0.302745 57.3653 1.09181 58.2227 1.09181C59.0938 1.09181 59.834 0.302745 59.834-0.5332L59.834-2.92187L67.2266-2.92187L59.3047-10.8438L23.295-10.8438C15.709-15.8008 10.1407-23.3692 10.1407-34.7832C10.1407-42.293 12.6582-49.5156 16.7305-55.5703L14.3594-57.8926C9.67773-51.209 6.87109-43.1074 6.87109-34.7832C6.87109-24.9785 10.6426-17.9961 14.8769-12.5977C16.6543-10.2324 17.5449-8.18359 17.5449-5.71875L17.5449-0.5332C17.5449 0.302745 18.2852 1.09181 19.1563 1.09181Z"/>
</svg>