<svg xmlns="http://www.w3.org/2000/svg" viewBox="7.8125 -71.4961 80.89 70.83">
  <path d="M11.9649-0.662096L84.5625-0.662096C87.3711-0.662096 88.7012-2.10741 88.7012-3.98632C88.7012-4.82226 88.4082-5.75586 87.8711-6.69726L51.5-69.709C50.8047-70.9121 49.5957-71.4961 48.2813-71.4961C46.918-71.4961 45.709-70.9121 45.0625-69.709L8.64258-6.69726C8.10547-5.75586 7.8125-4.82226 7.8125-3.98632C7.8125-2.10741 9.19141-0.662096 11.9649-0.662096ZM13.086-3.91212C12.211-3.91212 11.6934-4.33204 11.6934-4.98243C11.6934-5.26954 11.7774-5.59181 11.9942-5.92774L47.2461-67.0644C47.5469-67.498 47.8965-67.7148 48.2813-67.7148C48.666-67.7148 49.002-67.498 49.2676-67.0644L84.5332-5.92774C84.7363-5.59181 84.8203-5.26954 84.8203-4.98243C84.8203-4.33204 84.3164-3.91212 83.4277-3.91212Z"/>
</svg>