<svg xmlns="http://www.w3.org/2000/svg" viewBox="9.76562 -75.7129 62.16 81.06">
  <path d="M20.2637 5.34571L61.4102 5.34571C68.2422 5.34571 71.9219 1.72266 71.9219-5.20704L71.9219-65.1601C71.9219-72.1035 68.3477-75.7129 61.4102-75.7129L50.5938-75.7129C49.9238-75.7129 49.4746-75.2148 49.4746-74.4824C49.4746-74.4277 49.4746-74.3242 49.4746-74.248C49.4746-69.4648 45.9082-66.0215 40.8438-66.0215C35.7793-66.0215 32.1992-69.4648 32.1992-74.248C32.1992-74.3242 32.1992-74.4277 32.1992-74.4824C32.1992-75.2148 31.75-75.7129 31.0801-75.7129L20.2637-75.7129C13.3613-75.7129 9.76562-72.1035 9.76562-65.1601L9.76562-5.20704C9.76562 1.72266 13.4316 5.34571 20.2637 5.34571ZM25.3125-49.7344C24.4883-49.7344 23.8574-50.3086 23.8574-51.1543C23.8574-51.9863 24.4883-52.582 25.3125-52.582L56.4238-52.582C57.2344-52.582 57.8301-51.9863 57.8301-51.1543C57.8301-50.3086 57.2344-49.7344 56.4238-49.7344ZM25.3125-35.4062C24.4883-35.4062 23.8574-36.0508 23.8574-36.8125C23.8574-37.623 24.4883-38.2324 25.3125-38.2324L40.5274-38.2324C41.3731-38.2324 42.0039-37.623 42.0039-36.8125C42.0039-36.0508 41.3731-35.4062 40.5274-35.4062Z" />
</svg>