<svg xmlns="http://www.w3.org/2000/svg" viewBox="9.76562 -80.3613 62.16 85.71">
  <path d="M9.76562-5.20704C9.76562 1.73633 13.3613 5.34571 20.2637 5.34571L61.4102 5.34571C68.3477 5.34571 71.9219 1.73633 71.9219-5.20704L71.9219-65.1601C71.9219-72.0898 68.3477-75.7129 61.4102-75.7129L20.2637-75.7129C13.3613-75.7129 9.76562-72.0898 9.76562-65.1601ZM13.0703-5.3047L13.0703-65.0625C13.0703-69.8789 15.5723-72.4082 20.4434-72.4082L61.2441-72.4082C66.1016-72.4082 68.6387-69.8789 68.6387-65.0625L68.6387-5.3047C68.6387-0.488302 66.1016 2.04099 61.2441 2.04099L20.4434 2.04099C15.5723 2.04099 13.0703-0.488302 13.0703-5.3047ZM40.8438-54.9551C44.6836-54.9551 47.5625-57.7832 47.291-61.666L46.4551-75.0156C46.2324-78.3028 43.7383-80.3613 40.8438-80.3613C37.9844-80.3613 35.4902-78.3028 35.2676-75.0156L34.4668-61.666C34.1953-57.7832 37.0391-54.9551 40.8438-54.9551ZM40.8438-57.3926C38.6719-57.3926 36.9258-59.166 36.9258-61.3594C36.9258-63.5313 38.6719-65.2773 40.8438-65.2773C43.002-65.2773 44.7617-63.5313 44.7617-61.3594C44.7617-59.166 43.002-57.3926 40.8438-57.3926ZM40.8438-45.9102L49.1406-45.9102C50.5977-45.9102 51.6992-47.0605 51.6992-48.5176C51.6992-49.9609 50.5977-51.0488 49.1406-51.0488L40.8438-51.0488ZM40.8438-40.793L40.8438-45.9102L32.5117-45.9102C31.0547-45.9102 29.9883-44.8086 29.9883-43.4004C29.9883-41.9434 31.0547-40.793 32.5117-40.793ZM40.8438-35.6543L49.1406-35.6543C50.5977-35.6543 51.6992-36.8047 51.6992-38.2969C51.6992-39.7051 50.5977-40.793 49.1406-40.793L40.8438-40.793ZM40.8438-30.5019L40.8438-35.6543L32.5117-35.6543C31.0547-35.6543 29.9883-34.5527 29.9883-33.1445C29.9883-31.6523 31.0547-30.5019 32.5117-30.5019ZM40.8438-25.3633L49.1406-25.3633C50.5977-25.3633 51.6992-26.5137 51.6992-28.0058C51.6992-29.4004 50.5977-30.5019 49.1406-30.5019L40.8438-30.5019ZM40.8438-20.2461L40.8438-25.3633L32.5117-25.3633C31.0547-25.3633 29.9883-24.2617 29.9883-22.8535C29.9883-21.3965 31.0547-20.2461 32.5117-20.2461Z"/>
</svg>