<svg xmlns="http://www.w3.org/2000/svg" viewBox="9.76562 -70.8008 71.14 71.19">
  <path d="M22.2168 0.390625L68.457 0.390625C76.8066 0.390625 80.9082-3.71094 80.9082-11.9141L80.9082-58.4961C80.9082-66.6992 76.8066-70.8008 68.457-70.8008L22.2168-70.8008C13.916-70.8008 9.76562-66.6992 9.76562-58.4961L9.76562-11.9141C9.76562-3.71094 13.916 0.390625 22.2168 0.390625ZM34.5703-18.75C32.7637-18.75 31.2988-20.2148 31.2988-22.0215L31.2988-45.166L27.9297-42.5293C27.5391-42.1387 27.0508-41.9434 26.3672-41.9434C25.0488-41.9434 24.1211-42.9199 24.1211-44.2871C24.1211-45.459 24.707-46.3379 25.5371-46.9238L29.5898-50.0488C30.6641-50.8301 32.1777-51.8555 34.0332-51.8555C36.377-51.8555 37.793-50.5371 37.793-48.1934L37.793-22.0215C37.793-20.2148 36.3281-18.75 34.5703-18.75ZM54.1016-18.457C49.7559-18.457 45.5078-20.4102 44.3359-24.1699C44.1406-24.8535 44.043-25.4883 44.043-26.2695C44.043-27.9785 45.2148-29.0527 46.9727-29.0527C48.3398-29.0527 49.3164-28.3203 49.7559-26.9043C50.293-25.3418 51.416-23.584 54.1016-23.584C56.8359-23.584 58.1543-25.7324 58.1543-28.2715C58.1543-31.4453 56.4453-33.2031 53.2227-33.2031L52.4414-33.2031C50.9277-33.2031 50-34.0332 50-35.498C50-36.9629 50.9277-37.8906 52.4414-37.8906L53.1738-37.8906C56.0059-37.8906 57.4707-39.8438 57.4707-42.5781C57.4707-45.0195 56.3965-46.875 53.9551-46.875C51.9531-46.875 50.7812-45.6055 50.1465-43.3594C49.707-41.8945 48.7793-41.3574 47.2656-41.3574C45.5566-41.3574 44.5312-42.5781 44.5312-43.9941C44.5312-44.7266 44.6289-45.4102 44.8242-46.1426C45.9961-49.6582 49.8047-51.9531 53.9551-51.9531C59.2285-51.9531 63.5742-48.9258 63.5742-43.2617C63.5742-39.9414 61.8164-36.7676 58.2031-35.791L58.2031-35.6445C61.4258-35.3027 64.502-33.0566 64.502-27.9785C64.502-22.0215 59.9609-18.457 54.1016-18.457Z"/>
</svg>