<svg xmlns="http://www.w3.org/2000/svg" viewBox="9.76562 -70.8008 71.14 71.19">
  <path d="M22.2168 0.390625L68.457 0.390625C76.8066 0.390625 80.9082-3.71094 80.9082-11.9141L80.9082-58.4961C80.9082-66.6992 76.8066-70.8008 68.457-70.8008L22.2168-70.8008C13.916-70.8008 9.76562-66.6992 9.76562-58.4961L9.76562-11.9141C9.76562-3.71094 13.916 0.390625 22.2168 0.390625ZM33.4473-18.75C31.6406-18.75 30.1758-20.2148 30.1758-22.0215L30.1758-45.166L26.8555-42.5293C26.3672-42.1387 25.9277-41.9434 25.2441-41.9434C23.9258-41.9434 22.9492-42.9199 22.9492-44.2871C22.9492-45.459 23.6328-46.3379 24.4141-46.9238L28.5156-50.0488C29.541-50.8301 31.0547-51.8555 32.9102-51.8555C35.2539-51.8555 36.6699-50.5371 36.6699-48.1934L36.6699-22.0215C36.6699-20.2148 35.2051-18.75 33.4473-18.75ZM57.8613-18.6523C56.4941-18.6523 54.7852-19.4824 54.7852-21.8262L54.7852-25.1465L46.2402-25.1465C44.0918-25.1465 42.627-26.6113 42.627-28.7598C42.627-30.127 42.8711-31.25 43.6523-32.959L50.0977-47.4609C51.3672-50.1953 52.7832-51.7578 55.957-51.7578C58.9355-51.7578 60.8887-50.0488 60.8887-47.0215L60.8887-30.3223L62.0605-30.3223C63.8672-30.3223 64.5508-29.1992 64.5508-27.7832C64.5508-26.3184 63.7695-25.1465 62.0605-25.1465L60.8887-25.1465L60.8887-21.8262C60.8887-19.6289 59.5215-18.6523 57.8613-18.6523ZM54.9316-30.1758L54.9316-46.3379L54.7852-46.3379L48.1445-30.4688L48.1445-30.1758Z"/>
</svg>