<svg xmlns="http://www.w3.org/2000/svg" viewBox="6.83594 -74.6582 78.86 78.81">
  <path d="M46.2402 4.15039C68.0176 4.15039 85.6934-13.5254 85.6934-35.2539C85.6934-56.9824 68.0176-74.6582 46.2402-74.6582C24.5117-74.6582 6.83594-56.9824 6.83594-35.2539C6.83594-13.5254 24.5117 4.15039 46.2402 4.15039ZM37.2559-18.75C35.498-18.75 34.0332-20.2148 34.0332-22.0215L34.0332-45.166L30.6641-42.5293C30.2246-42.1387 29.7852-41.9434 29.1016-41.9434C27.7832-41.9434 26.8066-42.9199 26.8066-44.2871C26.8066-45.459 27.4414-46.3379 28.2227-46.9238L32.3242-50.0488C33.3496-50.8301 34.8633-51.8555 36.7676-51.8555C39.1113-51.8555 40.5273-50.5371 40.5273-48.1934L40.5273-22.0215C40.5273-20.2148 39.0625-18.75 37.2559-18.75ZM52.3438-18.6523C50.2441-18.6523 49.4141-20.1172 49.4141-21.3867C49.4141-22.4121 49.5605-22.9492 49.9512-23.9258L58.3984-45.6543L58.3984-46.0449L48.6328-46.0449C47.1191-46.0449 46.0938-47.1191 46.0938-48.6816C46.0938-50.1953 47.1191-51.2695 48.6328-51.2695L61.377-51.2695C63.3301-51.2695 64.8926-49.9512 64.8926-47.9492C64.8926-46.582 64.5508-45.5566 64.1113-44.1895L55.3223-20.8496C54.7363-19.2871 54.0039-18.6523 52.3438-18.6523Z"/>
</svg>