<svg xmlns="http://www.w3.org/2000/svg" viewBox="6.83594 -74.6582 78.86 78.81">
  <path d="M46.2402 4.15039C68.0176 4.15039 85.6934-13.5254 85.6934-35.2539C85.6934-56.9824 68.0176-74.6582 46.2402-74.6582C24.5117-74.6582 6.83594-56.9824 6.83594-35.2539C6.83594-13.5254 24.5117 4.15039 46.2402 4.15039ZM45.9961-16.1621C39.5508-16.1621 34.8145-18.6035 33.1055-22.6074C32.8125-23.291 32.6172-24.0234 32.6172-24.8047C32.6172-26.5625 33.8379-27.7832 35.6445-27.7832C36.9629-27.7832 38.0371-27.0508 38.8184-25.6836C40.2344-23.1934 42.8223-21.7773 45.8008-21.7773C49.9512-21.7773 53.0762-24.8535 53.0762-28.9551C53.0762-33.1055 50.4883-35.8398 46.5332-35.8398C44.7754-35.8398 43.457-35.3516 41.748-34.0332C39.8926-32.7148 38.8672-32.3242 37.2559-32.3242C34.7656-32.3242 33.252-34.0332 33.4473-36.6699L34.4727-49.1699C34.668-51.7578 36.5723-53.418 39.5508-53.418L55.8105-53.418C57.373-53.418 58.4473-52.2461 58.4473-50.6348C58.4473-49.0234 57.3242-47.9004 55.8105-47.9004L40.1367-47.9004L39.2578-37.9395L39.5508-37.9395C40.8691-39.7461 44.1895-41.1621 47.4121-41.1621C54.7852-41.1621 59.9609-36.2305 59.9609-29.1016C59.9609-21.2402 54.248-16.1621 45.9961-16.1621Z"/>
</svg>