<svg xmlns="http://www.w3.org/2000/svg" viewBox="6.83594 -82.959 78.86 87.11">
  <path d="M53.8574-79.1016C53.8574-82.1777 51.7578-82.959 49.4629-81.2988L37.1094-72.5586C35.1562-71.1914 35.2051-69.1895 37.1094-67.8223L49.5117-59.1309C51.7578-57.5195 53.8574-58.3008 53.8574-61.3281ZM46.2402 4.15039C68.0176 4.15039 85.6934-13.4766 85.6934-35.2539C85.6934-57.0312 68.0664-74.6094 46.1914-74.6582C44.1895-74.6094 42.5293-72.998 42.5293-70.9473C42.5293-68.8965 44.2383-67.2363 46.2402-67.2363C63.916-67.2363 78.2227-52.9297 78.2227-35.2539C78.2227-17.5781 63.916-3.27148 46.2402-3.27148C28.5645-3.27148 14.3066-17.5781 14.3066-35.2539C14.3066-45.7031 19.2871-54.8828 26.9043-60.6934C28.6621-62.0605 29.248-64.1113 28.125-65.918C27.0508-67.7246 24.5117-68.2129 22.5586-66.748C12.9883-59.4727 6.83594-48.2422 6.83594-35.2539C6.83594-13.4766 24.5117 4.15039 46.2402 4.15039ZM33.5938-19.1895C41.6992-19.1895 44.2871-26.8555 44.2871-34.668C44.2871-42.3828 41.3086-49.707 33.7402-49.707C27.9785-49.707 24.0234-45.3613 24.0234-39.4043C24.0234-34.2773 27.0508-29.9316 31.9824-29.9316C35.498-29.9316 37.6953-32.0312 38.5254-34.7168L38.623-34.7168C38.623-34.6191 38.623-34.5215 38.623-34.4238C38.623-29.9805 37.8906-23.9746 33.8379-23.9746C32.1289-23.9746 31.0547-24.8047 30.1758-26.2207C29.4922-27.3438 28.7598-27.9297 27.4414-27.9297C25.8789-27.9297 25-26.7578 25-25.4395C25-24.1211 25.8789-22.6562 26.9043-21.6309C28.6133-19.9707 31.1035-19.1895 33.5938-19.1895ZM33.7891-34.4238C31.1523-34.4238 29.7852-37.0117 29.7852-39.6484C29.7852-42.2852 31.25-44.9219 33.8867-44.9219C36.4258-44.9219 37.8906-42.1875 37.8906-39.502C37.8906-36.8164 36.377-34.4238 33.7891-34.4238ZM59.1309-19.1895C66.6992-19.1895 69.4336-26.8066 69.4336-34.4727C69.4336-42.0898 66.6992-49.707 59.1309-49.707C51.5137-49.707 48.7793-42.0898 48.7793-34.4727C48.7793-26.7578 51.5137-19.1895 59.1309-19.1895ZM59.1309-24.0234C56.4453-24.0234 54.834-28.125 54.834-34.4727C54.834-40.7227 56.4453-44.8242 59.1309-44.8242C61.7676-44.8242 63.3789-40.7227 63.3789-34.4727C63.3789-28.125 61.7676-24.0234 59.1309-24.0234Z" />
</svg>