<svg xmlns="http://www.w3.org/2000/svg" viewBox="12.6953 -83.3008 98.68 96.09">
  <path d="M54.7852-72.7539C57.7637-72.7539 60.1074-75.0488 60.1074-78.0273C60.1074-80.957 57.7148-83.3008 54.7852-83.3008C51.9043-83.3008 49.5117-80.9082 49.5117-78.0273C49.5117-75.0977 51.8555-72.7539 54.7852-72.7539ZM36.377-62.1094C39.3555-62.1094 41.6992-64.4043 41.6992-67.3828C41.6992-70.3125 39.3066-72.7051 36.377-72.7051C33.4961-72.7051 31.1035-70.2637 31.1035-67.3828C31.1035-64.4531 33.4473-62.1094 36.377-62.1094ZM73.1934-62.1094C76.1719-62.1094 78.5156-64.4043 78.5156-67.3828C78.5156-70.3125 76.123-72.7051 73.1934-72.7051C70.3125-72.7051 67.9199-70.2637 67.9199-67.3828C67.9199-64.4531 70.2637-62.1094 73.1934-62.1094ZM17.9688-51.3672C20.9473-51.3672 23.291-53.6621 23.291-56.6406C23.291-59.5703 20.8984-61.9141 17.9688-61.9141C15.0879-61.9141 12.6953-59.5215 12.6953-56.6406C12.6953-53.7109 15.0391-51.3672 17.9688-51.3672ZM54.7852-49.9023C58.5449-49.9023 61.5234-52.8809 61.5234-56.6406C61.5234-60.3516 58.4961-63.3789 54.7852-63.3789C51.123-63.3789 48.0469-60.3027 48.0469-56.6406C48.0469-52.9297 51.0742-49.9023 54.7852-49.9023ZM91.4551-51.3672C94.4824-51.3672 96.7773-53.6621 96.7773-56.6406C96.7773-59.5703 94.4336-61.9141 91.4551-61.9141C88.5742-61.9141 86.1816-59.5215 86.1816-56.6406C86.1816-53.7109 88.5254-51.3672 91.4551-51.3672ZM36.377-39.209C40.1367-39.209 43.1152-42.2363 43.1152-45.9473C43.1152-49.6582 40.0879-52.6855 36.377-52.6855C32.7148-52.6855 29.6387-49.6094 29.6387-45.9473C29.6387-42.2852 32.666-39.209 36.377-39.209ZM73.1934-39.209C76.9531-39.209 79.9316-42.2363 79.9316-45.9473C79.9316-49.6582 76.9043-52.6855 73.1934-52.6855C69.5801-52.6855 66.4551-49.6094 66.4551-45.9473C66.4551-42.2852 69.4824-39.209 73.1934-39.209ZM17.9688-29.9805C20.9473-29.9805 23.291-32.2754 23.291-35.2539C23.291-38.1836 20.8984-40.5273 17.9688-40.5273C15.0879-40.5273 12.6953-38.1348 12.6953-35.2539C12.6953-32.3242 15.0391-29.9805 17.9688-29.9805ZM54.7852-27.5391C59.082-27.5391 62.5-30.957 62.5-35.2539C62.5-39.502 59.0332-42.9688 54.7852-42.9688C50.6348-42.9688 47.1191-39.4531 47.1191-35.2539C47.1191-31.0059 50.5859-27.5391 54.7852-27.5391ZM95.5078-31.6895C96.4355-32.666 96.9238-33.9355 96.9238-35.2539C96.9238-38.1836 94.5312-40.5273 91.6016-40.5273C88.7207-40.5273 86.3281-38.1348 86.3281-35.2539C86.3281-34.668 86.4258-33.6914 86.8652-32.8613C88.0371-33.1543 88.9648-33.3008 89.8926-33.3008C91.9922-33.3008 94.043-32.6172 95.5078-31.6895ZM36.377-17.8223C40.1367-17.8223 43.1152-20.8008 43.1152-24.5605C43.1152-28.2227 40.0879-31.2988 36.377-31.2988C32.7148-31.2988 29.6387-28.1738 29.6387-24.5605C29.6387-20.8496 32.666-17.8223 36.377-17.8223ZM73.1934-17.8223C74.2188-17.8223 74.6582-17.9199 74.9512-18.0664L79.6387-26.416L79.6387-26.4648C79.0039-28.7598 76.6113-31.2988 73.1934-31.2988C69.5312-31.2988 66.4551-28.1738 66.4551-24.5605C66.4551-20.8496 69.5312-17.8223 73.1934-17.8223ZM17.9688-8.59375C20.9473-8.59375 23.291-10.8887 23.291-13.8672C23.291-16.7969 20.8984-19.1406 17.9688-19.1406C15.0879-19.1406 12.6953-16.748 12.6953-13.8672C12.6953-10.9375 15.0391-8.59375 17.9688-8.59375ZM54.7852-7.12891C58.5449-7.12891 61.5234-10.1074 61.5234-13.8672C61.5234-17.5781 58.4961-20.6055 54.7852-20.6055C51.123-20.6055 48.0469-17.5293 48.0469-13.8672C48.0469-10.1562 51.0742-7.12891 54.7852-7.12891ZM36.377 2.19727C39.3555 2.19727 41.6992-0.146484 41.6992-3.125C41.6992-6.05469 39.3066-8.39844 36.377-8.39844C33.4961-8.39844 31.1035-6.00586 31.1035-3.125C31.1035-0.195312 33.4473 2.19727 36.377 2.19727ZM54.7852 12.793C57.7637 12.793 60.1074 10.498 60.1074 7.51953C60.1074 4.58984 57.7148 2.24609 54.7852 2.24609C51.9043 2.24609 49.5117 4.63867 49.5117 7.51953C49.5117 10.4492 51.8555 12.793 54.7852 12.793ZM73.584 11.8652L106.201 11.8652C109.375 11.8652 111.377 9.66797 111.377 6.73828C111.377 5.85938 111.133 5.0293 110.645 4.19922L94.3359-25C93.3594-26.7578 91.6016-27.6367 89.9414-27.6367C88.1836-27.6367 86.377-26.7578 85.4492-25L69.1895 4.19922C68.7012 5.0293 68.457 5.85938 68.457 6.73828C68.457 9.66797 70.4102 11.8652 73.584 11.8652ZM89.9414 6.15234C88.1348 6.15234 86.6211 4.6875 86.6211 2.88086C86.6211 1.02539 88.1348-0.439453 89.9414-0.439453C91.748-0.439453 93.2617 1.02539 93.2617 2.88086C93.2617 4.6875 91.748 6.15234 89.9414 6.15234ZM89.9414-3.02734C88.5254-3.02734 87.5488-4.00391 87.5-5.32227L87.1582-15.8203C87.1094-17.4316 88.2324-18.5547 89.9414-18.5547C91.6016-18.5547 92.7246-17.4316 92.6758-15.8203L92.334-5.32227C92.2852-4.00391 91.3086-3.02734 89.9414-3.02734Z"/>
</svg>