<svg xmlns="http://www.w3.org/2000/svg" viewBox="8.25195 -75.6348 105.91 80.86">
  <path d="M61.1816 5.22461C62.8906 5.22461 64.4043 3.90625 64.4043 2.19727L64.4043-72.6074C64.4043-74.3164 62.8906-75.6348 61.1816-75.6348C59.5215-75.6348 58.0078-74.3164 58.0078-72.6074L58.0078 2.19727C58.0078 3.90625 59.5215 5.22461 61.1816 5.22461ZM14.0625-13.1348L46.6309-31.8359C48.9746-33.2031 48.9258-36.9629 46.6309-38.2812L14.0625-57.1777C11.5234-58.6914 8.25195-57.0801 8.25195-54.1992L8.25195-15.9668C8.25195-13.1836 11.4746-11.6211 14.0625-13.1348ZM108.35-13.1348C110.938-11.6211 114.16-13.1836 114.16-15.9668L114.16-54.1992C114.16-57.0801 110.889-58.6914 108.35-57.1777L75.7812-38.2812C73.4863-36.9629 73.4375-33.2031 75.7812-31.8359Z" />
</svg>