<svg xmlns="http://www.w3.org/2000/svg" viewBox="9.76562 -70.8008 90.58 71.19">
  <path d="M23.6328-18.0664C23.0469-17.4805 22.6074-16.6016 22.6074-15.7715C22.6074-13.8184 23.877-12.5488 25.8301-12.5488C26.8555-12.5488 27.6367-12.8906 28.2715-13.5254L38.3789-23.6328L45.752-31.4941C48.6328-34.5215 44.9219-38.5742 41.6992-35.6445L33.7891-28.2227ZM46.3867-39.8438L29.0039-39.8438C26.9531-39.7949 25.6836-38.5742 25.6836-36.6211C25.6836-34.7168 27.002-33.4473 29.1504-33.3984L34.5215-33.3984L45.0195-34.8145L43.5547-24.2676L43.5547-18.9453C43.6035-16.8457 44.873-15.5273 46.8262-15.5273C48.7305-15.5273 49.9512-16.7969 50-18.7988L50-36.2305C50-38.6719 48.8281-39.8438 46.3867-39.8438ZM22.2168 0.390625L87.8906 0.390625C96.2402 0.390625 100.342-3.71094 100.342-11.9141L100.342-58.4961C100.342-66.6992 96.2402-70.8008 87.8906-70.8008L22.2168-70.8008C13.916-70.8008 9.76562-66.6992 9.76562-58.4961L9.76562-11.9141C9.76562-3.71094 13.916 0.390625 22.2168 0.390625ZM22.3145-6.68945C18.7988-6.68945 16.7969-8.59375 16.7969-12.2559L16.7969-58.1543C16.7969-61.8652 18.7988-63.7207 22.3145-63.7207L87.793-63.7207C91.3086-63.7207 93.3105-61.8652 93.3105-58.1543L93.3105-12.2559C93.3105-8.59375 91.3086-6.68945 87.793-6.68945Z" />
</svg>