<svg xmlns="http://www.w3.org/2000/svg" viewBox="6.83594 -74.6582 78.86 78.81">
  <path d="M46.2402 4.15039C68.0176 4.15039 85.6934-13.4766 85.6934-35.2539C85.6934-57.0312 68.0176-74.6582 46.2402-74.6582C24.5117-74.6582 6.83594-57.0312 6.83594-35.2539C6.83594-13.4766 24.5117 4.15039 46.2402 4.15039ZM46.2402-3.27148C28.5645-3.27148 14.3066-17.5781 14.3066-35.2539C14.3066-52.9297 28.5645-67.2363 46.2402-67.2363C63.916-67.2363 78.2227-52.9297 78.2227-35.2539C78.2227-17.5781 63.916-3.27148 46.2402-3.27148ZM46.1426-12.207C47.8027-12.207 49.0234-13.4277 49.0234-15.0879L49.0234-31.7383L48.584-38.6719L55.3711-30.8594L57.1777-28.9551C57.7637-28.418 58.4961-28.1738 59.2773-28.1738C60.8398-28.1738 62.0117-29.4434 62.0117-31.0059C62.0117-31.7383 61.7676-32.4707 61.1328-33.1055L48.3398-46.1914C47.7051-46.7773 46.9727-47.168 46.1426-47.168C45.3613-47.168 44.6289-46.8262 43.9941-46.1914L31.2988-33.1055C30.7617-32.5684 30.4199-31.6406 30.4199-31.0059C30.4199-29.3457 31.543-28.1738 33.2031-28.1738C34.082-28.1738 34.7168-28.418 35.2539-28.9551L36.8652-30.8105L43.75-38.7207L43.2617-31.7383L43.2617-15.0879C43.2617-13.4277 44.4336-12.207 46.1426-12.207ZM31.8359-49.9023L60.5957-49.9023C62.3047-49.9023 63.4766-51.123 63.4766-52.7344C63.4766-54.4434 62.3047-55.6641 60.5957-55.6641L31.8359-55.6641C30.127-55.6641 28.9551-54.4434 28.9551-52.7344C28.9551-51.123 30.127-49.9023 31.8359-49.9023Z" />
</svg>