<svg xmlns="http://www.w3.org/2000/svg" viewBox="9.76562 -80.6152 44.78 90.77">
  <path d="M20.166 10.1562L44.1406 10.1562C50.3906 10.1562 54.541 6.25 54.541 0.292969L54.541-70.752C54.541-76.709 50.3906-80.6152 44.1406-80.6152L20.166-80.6152C13.8672-80.6152 9.76562-76.709 9.76562-70.752L9.76562 0.292969C9.76562 6.25 13.8672 10.1562 20.166 10.1562ZM20.9473 3.80859C18.0664 3.80859 16.2109 2.05078 16.2109-0.683594L16.2109-69.7754C16.2109-72.5098 18.0664-74.2676 20.9473-74.2676L43.3594-74.2676C46.2402-74.2676 48.0957-72.5098 48.0957-69.7754L48.0957-0.683594C48.0957 2.05078 46.2402 3.80859 43.3594 3.80859ZM34.5703-65.2832L42.7246-65.2832C44.0918-65.2832 45.166-66.3086 45.166-67.6758C45.166-69.043 44.0918-70.1172 42.7246-70.1172L34.5703-70.1172C33.2031-70.1172 32.1289-69.043 32.1289-67.6758C32.1289-66.3086 33.2031-65.2832 34.5703-65.2832ZM22.9004-51.2695C25-51.2695 26.6602-52.9297 26.6602-55.0293C26.6602-57.0801 25-58.7402 22.9004-58.7402C20.8008-58.7402 19.1406-57.0801 19.1406-55.0293C19.1406-52.9297 20.8008-51.2695 22.9004-51.2695ZM32.1289-51.2695C34.2285-51.2695 35.8887-52.9297 35.8887-55.0293C35.8887-57.0801 34.2285-58.7402 32.1289-58.7402C30.0781-58.7402 28.418-57.0801 28.418-55.0293C28.418-52.9297 30.0781-51.2695 32.1289-51.2695ZM41.4551-51.2695C43.5547-51.2695 45.2148-52.9297 45.2148-55.0293C45.2148-57.0801 43.5547-58.7402 41.4551-58.7402C39.3555-58.7402 37.6953-57.0801 37.6953-55.0293C37.6953-52.9297 39.3555-51.2695 41.4551-51.2695ZM22.9004-40.5762C25-40.5762 26.6602-42.2363 26.6602-44.3359C26.6602-46.3867 25-48.0469 22.9004-48.0469C20.8008-48.0469 19.1406-46.3867 19.1406-44.3359C19.1406-42.2363 20.8008-40.5762 22.9004-40.5762ZM32.1289-40.5762C34.2285-40.5762 35.8887-42.2363 35.8887-44.3359C35.8887-46.3867 34.2285-48.0469 32.1289-48.0469C30.0781-48.0469 28.418-46.3867 28.418-44.3359C28.418-42.2363 30.0781-40.5762 32.1289-40.5762ZM41.4551-40.5762C43.5547-40.5762 45.2148-42.2363 45.2148-44.3359C45.2148-46.3867 43.5547-48.0469 41.4551-48.0469C39.3555-48.0469 37.6953-46.3867 37.6953-44.3359C37.6953-42.2363 39.3555-40.5762 41.4551-40.5762ZM22.9004-29.8828C25-29.8828 26.6602-31.543 26.6602-33.6426C26.6602-35.6934 25-37.3535 22.9004-37.3535C20.8008-37.3535 19.1406-35.6934 19.1406-33.6426C19.1406-31.543 20.8008-29.8828 22.9004-29.8828ZM32.1289-29.8828C34.2285-29.8828 35.8887-31.5918 35.8887-33.6426C35.8887-35.7422 34.2285-37.3535 32.1289-37.3535C30.0781-37.3535 28.418-35.7422 28.418-33.6426C28.418-31.5918 30.0781-29.8828 32.1289-29.8828ZM41.4551-29.8828C43.5547-29.8828 45.2148-31.5918 45.2148-33.6426C45.2148-35.7422 43.5547-37.3535 41.4551-37.3535C39.3555-37.3535 37.6953-35.7422 37.6953-33.6426C37.6953-31.5918 39.3555-29.8828 41.4551-29.8828ZM22.0703-4.49219C23.6816-4.49219 25-5.81055 25-7.42188L25-20.8496C25-22.4609 23.6816-23.7793 22.0703-23.7793C20.459-23.7793 19.1406-22.4609 19.1406-20.8496L19.1406-7.42188C19.1406-5.81055 20.459-4.49219 22.0703-4.49219ZM30.2734-15.5273L33.9844-15.5273C35.3027-15.5273 36.0352-16.2598 36.0352-17.5293L36.0352-20.0195C36.0352-21.2891 35.3027-22.0703 33.9844-22.0703L30.2734-22.0703C29.0527-22.0703 28.2715-21.2891 28.2715-20.0195L28.2715-17.5293C28.2715-16.2598 29.0527-15.5273 30.2734-15.5273ZM30.2734-6.20117L33.9844-6.20117C35.3027-6.20117 36.0352-6.98242 36.0352-8.25195L36.0352-10.7422C36.0352-12.0117 35.3027-12.7441 33.9844-12.7441L30.2734-12.7441C29.0527-12.7441 28.2715-12.0117 28.2715-10.7422L28.2715-8.25195C28.2715-6.98242 29.0527-6.20117 30.2734-6.20117ZM42.2852-4.49219C43.8965-4.49219 45.2148-5.81055 45.2148-7.42188L45.2148-20.8496C45.2148-22.4609 43.8965-23.7793 42.2852-23.7793C40.6738-23.7793 39.3555-22.4609 39.3555-20.8496L39.3555-7.42188C39.3555-5.81055 40.6738-4.49219 42.2852-4.49219Z"/>
</svg>