<svg xmlns="http://www.w3.org/2000/svg" viewBox="9.76562 -70.8008 71.14 71.19">
  <path d="M22.2168 0.390625L68.457 0.390625C76.8066 0.390625 80.9082-3.71094 80.9082-11.9141L80.9082-58.4961C80.9082-66.6992 76.8066-70.8008 68.457-70.8008L22.2168-70.8008C13.916-70.8008 9.76562-66.6992 9.76562-58.4961L9.76562-11.9141C9.76562-3.71094 13.916 0.390625 22.2168 0.390625ZM37.3535-17.4316C35.3516-17.4316 34.1309-18.7988 34.1309-20.6055L34.1309-50C34.1309-51.8555 35.3027-53.2227 37.3535-53.2227L43.8477-53.2227L43.8477-56.6895C43.8477-57.5195 44.3848-58.1543 45.3125-58.1543C46.1426-58.1543 46.7285-57.5195 46.7285-56.6895L46.7285-53.2227L47.168-53.2227C52.5879-53.2227 57.7148-50.4395 57.7148-44.2871C57.7148-40.625 55.0293-37.0605 51.3184-36.5234L51.3184-36.2793C56.2012-35.6934 59.4727-32.3242 59.4727-27.4902C59.4727-20.6055 54.1016-17.4316 47.2168-17.4316L46.7285-17.4316L46.7285-14.4531C46.7285-13.623 46.1914-12.9883 45.3125-12.9883C44.3848-12.9883 43.8477-13.623 43.8477-14.4531L43.8477-17.4316ZM39.3066-21.7285L43.8477-21.7285L43.8477-33.7891L39.3066-33.7891ZM39.3066-37.9883L43.8477-37.9883L43.8477-48.877L39.3066-48.877ZM46.7285-21.7285L46.9727-21.7285C51.0742-21.7285 54.248-23.5352 54.248-27.7832C54.248-32.0312 51.0254-33.7402 46.875-33.7402L46.7285-33.7402ZM46.7285-38.0859C50.0488-38.4766 52.5879-40.0879 52.5879-43.6035C52.5879-47.1191 50.0977-48.6816 46.7285-48.877Z"/>
</svg>