<svg xmlns="http://www.w3.org/2000/svg" viewBox="9.76562 -79.541 91.65 84.03">
  <path d="M9.76562-40.2344C9.76562-36.3281 12.207-33.9355 16.1133-33.9355L95.0195-33.9355C98.9258-33.9355 101.416-36.3281 101.416-40.2344L101.416-46.1914C101.416-50.0488 98.9258-52.5879 95.0195-52.5879L16.1133-52.5879C12.207-52.5879 9.76562-50.0488 9.76562-46.1914ZM17.9199-45.6055L93.2129-45.6055C93.9941-45.6055 94.4824-45.1172 94.4824-44.3359L94.4824-42.0898C94.4824-41.3086 93.9941-40.8203 93.2129-40.8203L17.9199-40.8203C17.1387-40.8203 16.6504-41.3086 16.6504-42.0898L16.6504-44.3359C16.6504-45.1172 17.1387-45.6055 17.9199-45.6055ZM35.3516 4.49219L75.8301 4.49219C85.5469 4.49219 88.3301-1.2207 89.502-7.03125L95.5078-35.5469L88.7207-36.9141L83.1055-9.76562C81.9824-4.54102 80.4199-2.49023 74.5117-2.49023L36.6211-2.49023C30.7129-2.49023 29.1992-4.54102 28.0762-9.76562L22.4609-36.9141L15.6738-35.5469L21.6309-7.03125C22.8516-1.2207 25.6348 4.49219 35.3516 4.49219ZM39.1113-6.39648C40.7227-6.68945 41.6016-7.8125 41.3574-9.17969L38.3301-28.418C38.0859-29.834 36.8652-30.6152 35.3027-30.4199C33.6914-30.127 32.8125-29.0039 33.0566-27.6367L36.1328-8.39844C36.3281-6.98242 37.5488-6.15234 39.1113-6.39648ZM50.1465-6.68945C51.709-6.78711 52.7344-7.86133 52.6367-9.27734L51.5625-28.1738C51.4648-29.6387 50.3906-30.6641 48.7793-30.5176C47.2168-30.4199 46.1914-29.3457 46.2891-27.8809L47.3633-9.0332C47.4609-7.56836 48.584-6.5918 50.1465-6.68945ZM61.084-6.68945C62.5977-6.5918 63.7695-7.56836 63.8672-9.0332L64.9414-27.8809C64.9902-29.3457 63.9648-30.4199 62.4023-30.5176C60.8398-30.6641 59.7168-29.6387 59.6191-28.1738L58.5449-9.27734C58.4473-7.86133 59.5215-6.78711 61.084-6.68945ZM72.0215-6.39648C73.584-6.15234 74.8047-6.98242 75.0488-8.39844L78.125-27.6367C78.3691-29.0039 77.4414-30.127 75.8789-30.4199C74.3164-30.6152 73.0957-29.834 72.8516-28.418L69.8242-9.17969C69.5801-7.8125 70.4102-6.68945 72.0215-6.39648ZM22.3145-50.6836L31.1523-50.6836L44.4824-73.877C45.7031-75.9766 44.6777-77.8809 43.0664-78.7109C41.5039-79.541 39.3555-79.4434 38.1836-77.4414ZM79.9805-50.6836L88.8672-50.6836L72.998-77.4414C71.875-79.3945 69.6777-79.541 68.1152-78.7109C66.5039-77.8809 65.4785-75.9766 66.6992-73.877Z"/>
</svg>