<svg xmlns="http://www.w3.org/2000/svg" viewBox="9.76562 -68.3594 90.58 66.31">
  <path d="M22.2168-2.05078L87.8906-2.05078C96.2402-2.05078 100.342-6.15234 100.342-14.3555L100.342-46.2891C100.342-54.4922 96.2402-58.5938 87.8906-58.5938L84.2773-58.5938L84.2773-63.4277C84.2773-66.5039 82.5195-68.3594 79.4922-68.3594L72.0703-68.3594C69.043-68.3594 67.2363-66.5039 67.2363-63.4277L67.2363-58.5938L42.8711-58.5938L42.8711-63.4277C42.8711-66.5039 41.1133-68.3594 38.0859-68.3594L30.6641-68.3594C27.6367-68.3594 25.8301-66.5039 25.8301-63.4277L25.8301-58.5938L22.2168-58.5938C13.916-58.5938 9.76562-54.4922 9.76562-46.2891L9.76562-14.3555C9.76562-6.15234 13.916-2.05078 22.2168-2.05078Z"/>
</svg>