<svg xmlns="http://www.w3.org/2000/svg" viewBox="9.76562 -70.8008 71.14 71.19">
  <path d="M22.2168 0.390625L68.457 0.390625C76.8066 0.390625 80.9082-3.71094 80.9082-11.9141L80.9082-58.4961C80.9082-66.6992 76.8066-70.8008 68.457-70.8008L22.2168-70.8008C13.916-70.8008 9.76562-66.6992 9.76562-58.4961L9.76562-11.9141C9.76562-3.71094 13.916 0.390625 22.2168 0.390625ZM22.3145-6.68945C18.7988-6.68945 16.7969-8.59375 16.7969-12.2559L16.7969-58.1543C16.7969-61.8652 18.7988-63.7207 22.3145-63.7207L68.3594-63.7207C71.875-63.7207 73.877-61.8652 73.877-58.1543L73.877-12.2559C73.877-8.59375 71.875-6.68945 68.3594-6.68945ZM28.7109-32.7637C28.7109-31.7383 29.541-30.957 30.6152-30.957L43.3105-30.957L36.5723-12.793C35.5957-10.1562 38.3789-8.74023 40.1367-10.8398L60.7422-36.7188C61.1816-37.207 61.4258-37.793 61.4258-38.3301C61.4258-39.3555 60.5469-40.1367 59.5215-40.1367L46.7773-40.1367L53.5156-58.252C54.541-60.8887 51.709-62.3535 50-60.2051L29.3945-34.375C28.9551-33.8867 28.7109-33.3008 28.7109-32.7637Z" />
</svg>