<svg xmlns="http://www.w3.org/2000/svg" viewBox="9.76562 -79.6875 70.65 88.77">
  <path d="M24.707-51.9531C35.5957-52.7832 44.0918-54.4434 52.6855-56.3965C54.6387-56.8359 55.0781-57.8125 55.0781-59.0332C55.0781-60.3516 54.0527-61.4746 52.1484-61.0352C44.0918-59.1797 35.5957-57.5684 24.707-56.7383C23.0469-56.5918 22.2656-55.5664 22.2656-54.2969C22.2656-52.9297 23.291-51.8555 24.707-51.9531ZM24.707-39.9414C35.5957-40.7715 44.0918-42.3828 52.6855-44.3359C54.6387-44.7754 55.0781-45.8008 55.0781-46.9727C55.0781-48.291 54.0527-49.4141 52.1484-49.0234C44.0918-47.168 35.5957-45.5078 24.707-44.6777C23.0469-44.5312 22.2656-43.5059 22.2656-42.2363C22.2656-40.8691 23.291-39.8438 24.707-39.9414ZM24.707-27.8809C35.5957-28.7109 44.0918-30.3223 52.6855-32.2754C54.6387-32.7637 55.0781-33.7402 55.0781-34.9121C55.0781-36.2305 54.0527-37.4023 52.1484-36.9629C44.0918-35.1074 35.5957-33.4961 24.707-32.666C23.0469-32.5195 22.2656-31.4453 22.2656-30.1758C22.2656-28.8086 23.291-27.7832 24.707-27.8809ZM24.707-15.8691C31.2012-16.3086 35.3516-16.8945 39.2578-17.5781C40.6738-17.8711 41.4062-18.9941 41.4062-20.0684C41.4062-21.3867 40.3809-22.6074 38.4277-22.2168C35.0586-21.6309 31.0547-21.0449 24.707-20.6543C23.0469-20.5078 22.2656-19.4824 22.2656-18.1641C22.2656-16.7969 23.291-15.7715 24.707-15.8691ZM9.76562-4.83398C9.76562 2.34375 14.1113 5.95703 21.7773 5.46875C34.5703 4.6875 45.1172 3.41797 60.0098-1.02539C65.625-2.73438 67.5781-5.71289 67.5781-12.793L67.5781-67.5293C67.5781-75.6836 63.3301-79.6875 55.4199-77.7344C45.1172-75.2441 34.5703-73.2422 20.5566-72.3145C14.1113-71.8262 9.76562-68.1152 9.76562-60.7422ZM16.7969-6.10352L16.7969-60.9375C16.7969-64.0625 18.75-65.1855 21.3867-65.3809C34.7168-66.2109 44.9707-68.2129 55.0293-70.6543C58.5449-71.5332 60.5469-69.6289 60.5469-66.2109L60.5469-13.0859C60.5469-9.57031 59.5703-8.05664 56.7383-7.27539C44.9707-3.61328 34.7168-2.34375 22.0703-1.61133C18.75-1.41602 16.7969-3.02734 16.7969-6.10352ZM41.8457 9.08203L68.1641 9.08203C76.3672 9.08203 80.4199 4.98047 80.4199-3.36914L80.4199-59.4238C80.4199-65.8203 77.9785-69.7754 73.0469-71.1426C73.1934-70.0195 73.291-68.7988 73.291-67.5293L73.291-12.793C73.291-3.32031 69.8242 1.95312 61.6699 4.44336C54.248 6.64062 47.7539 8.05664 41.8457 9.08203Z"/>
</svg>