<svg xmlns="http://www.w3.org/2000/svg" viewBox="9.76562 -71.3379 91.5 71.73">
  <path d="M9.76562-4.6875C9.76562-1.80664 12.0117 0.390625 14.8926 0.390625L19.4824 0.390625C22.4121 0.390625 24.6582-1.80664 24.6582-4.6875L24.6582-10.5469L86.377-10.5469L86.377-4.6875C86.377-1.80664 88.623 0.390625 91.5527 0.390625L96.0938 0.390625C99.0234 0.390625 101.27-1.80664 101.27-4.6875L101.27-30.957C101.27-37.3047 100.537-41.3574 96.3379-45.8008L92.4316-49.9023L88.4766-61.2793C86.2793-67.5293 81.8848-70.166 76.5625-70.8008C73.9746-71.0938 65.7227-71.3379 55.5176-71.3379C45.3125-71.3379 37.0117-71.0938 34.4727-70.8008C29.1016-70.166 24.7559-67.5293 22.5586-61.2793L18.6035-49.9023L14.6973-45.8008C10.4492-41.3574 9.76562-37.3047 9.76562-30.957ZM29.6387-49.1699C27.7344-49.1699 27.0996-50.5371 27.6855-52.2949L30.0781-59.5215C30.8594-61.8652 32.0801-62.5 34.082-62.793C36.6699-63.1348 44.4824-63.4766 55.5176-63.4766C66.5039-63.4766 74.3164-63.1348 76.8555-62.793C78.8574-62.5 80.127-61.8652 80.9082-59.5215L83.3496-52.2949C83.9355-50.5371 83.252-49.1699 81.2988-49.1699ZM24.0723-25.3418C21.582-25.3418 19.7266-27.1973 19.7266-29.6387L19.7266-35.5469C19.7266-37.9883 21.582-39.7461 24.0723-39.7461C26.5137-39.7461 28.3691-38.0371 28.3691-35.5469L28.3691-29.6387C28.3691-27.1484 26.5137-25.3418 24.0723-25.3418ZM46.875-27.2949C44.9219-27.2949 43.6035-28.6133 43.6035-30.7617L43.6035-34.375C43.6035-36.4746 44.9219-37.793 46.875-37.793L64.0625-37.793C66.0645-37.793 67.4316-36.4746 67.4316-34.375L67.4316-30.7617C67.4316-28.6133 66.0645-27.2949 64.0625-27.2949ZM87.4023-25.3418C85.0098-25.3418 83.1543-27.1973 83.1543-29.6387L83.1543-35.5469C83.1543-37.9883 85.0098-39.7461 87.4023-39.7461C89.8926-39.7461 91.748-38.0371 91.748-35.5469L91.748-29.6387C91.748-27.1484 89.8926-25.3418 87.4023-25.3418Z"/>
</svg>