<svg xmlns="http://www.w3.org/2000/svg" viewBox="7.12891 -76.3184 91.99 82.13">
  <path d="M14.9902-50.6348C14.9902-44.9219 20.2148-39.1602 24.9023-39.1602C29.3457-39.1602 31.4941-43.2617 34.4238-50.2441L35.2539-50.4395L35.2539-43.0176C35.2539-39.7461 37.0117-38.0371 40.1855-38.0371C45.8496-38.0371 51.6113-43.2129 51.6113-47.9492C51.6113-52.3926 47.5098-54.541 40.5762-57.4707L40.3809-58.3008L47.7539-58.3008C51.0742-58.3008 52.7344-60.0098 52.7344-63.2324C52.7344-68.8965 47.5586-74.6582 42.8223-74.6582C38.3789-74.6582 36.2305-70.5566 33.3008-63.5254L32.4707-63.4277L32.4707-70.8008C32.4707-74.0723 30.7617-75.7812 27.5879-75.7812C21.875-75.7812 16.1133-70.5566 16.1133-65.918C16.1133-61.4258 20.2637-59.2773 27.2461-56.3477L27.3438-55.5176L19.9707-55.5176C16.6992-55.5176 14.9902-53.7598 14.9902-50.6348ZM33.8379-53.125C31.7383-53.125 30.0293-54.834 30.0293-56.9336C30.0293-59.0332 31.7383-60.7422 33.8379-60.7422C35.9863-60.7422 37.6953-59.0332 37.6953-56.9336C37.6953-54.834 35.9863-53.125 33.8379-53.125ZM10.4492-10.8887C13.9648 1.9043 17.2852 5.81055 25.4395 5.81055L71.0449 5.81055C76.9043 5.81055 80.7129 2.68555 82.1777-3.22266L96.6309-61.6699C99.1211-71.7773 94.1406-76.3184 88.3301-76.3184C80.6641-76.3184 72.168-67.8711 77.2461-54.7852L78.4668-60.1074C66.6016-53.9062 61.4746-40.2832 63.6719-23.1445L65.2344-25.2441C57.4219-26.9531 46.9727-27.9785 37.0605-27.9785C15.8203-27.9785 7.12891-22.7539 10.4492-10.8887Z"/>
</svg>