<svg xmlns="http://www.w3.org/2000/svg" viewBox="7.12891 -76.3672 92.63 82.18">
  <path d="M28.125-40.7715C35.3516-40.7715 40.1367-44.4824 40.1367-50.0977C40.1367-54.1016 37.207-57.2266 33.1543-57.7148L33.1543-57.7637C36.4258-58.252 39.0625-61.3281 39.0625-64.8926C39.0625-69.6777 34.668-73.1934 28.4668-73.1934C22.7539-73.1934 18.5547-70.5566 17.4805-66.4062C17.3828-65.8691 17.334-65.5762 17.334-64.9414C17.334-63.4766 18.457-62.4512 20.0195-62.4512C21.3867-62.4512 22.2168-63.0859 22.7539-64.4043C23.5352-66.8945 25.5859-68.1641 28.3691-68.1641C31.3965-68.1641 33.3008-66.6992 33.3008-64.2578C33.3008-61.6699 31.1035-59.8145 28.125-59.8145L26.1719-59.8145C24.8047-59.8145 23.7793-58.8867 23.7793-57.4707C23.7793-56.0547 24.8047-55.0293 26.1719-55.0293L28.3691-55.0293C31.9336-55.0293 34.375-53.2227 34.375-50.3418C34.375-47.6074 31.8848-45.8008 28.2227-45.8008C25.1465-45.8008 23.0957-47.0703 22.1191-49.5605C21.582-50.8789 20.752-51.5137 19.4336-51.5137C17.8711-51.5137 16.748-50.4395 16.748-48.9258C16.748-48.3398 16.7969-48.0957 16.8945-47.5586C17.8711-43.5547 22.4121-40.7715 28.125-40.7715ZM10.4492-10.8887C13.9648 1.9043 17.2852 5.81055 25.4395 5.81055L71.9727 5.81055C77.832 5.81055 81.6406 2.68555 83.1055-3.22266L97.5586-61.6699C99.7559-70.5078 95.7031-76.3672 87.5488-76.3672C77.832-76.3672 70.166-67.041 73.9746-54.7852L74.8047-58.9844C66.0645-52.3926 61.6211-39.3066 62.7441-23.1445L64.7949-25.6836C56.3965-27.1973 46.6309-27.9785 37.0605-27.9785C15.8203-27.9785 7.12891-22.7539 10.4492-10.8887ZM17.1875-12.7441C15.5762-18.6035 20.0195-20.8984 37.0605-20.8984C51.4648-20.8984 61.2793-18.8965 65.0391-18.7988C67.5293-18.7988 69.1406-20.459 69.1406-22.998C69.0918-37.207 72.5586-48.0957 78.7598-53.0762C80.3711-54.4434 80.7617-55.2734 80.2734-58.252C79.1504-65.2832 83.1055-69.3359 87.5488-69.3359C90.332-69.3359 91.6504-67.041 90.7715-63.5254L76.2695-4.93164C75.6348-2.49023 74.2676-1.2207 71.9727-1.2207L25.4395-1.2207C21.4355-1.2207 20.0684-2.39258 17.1875-12.7441Z"/>
</svg>