<svg xmlns="http://www.w3.org/2000/svg" viewBox="6.83594 -74.6582 78.86 78.81">
  <path d="M46.2402 4.15039C68.0176 4.15039 85.6934-13.4766 85.6934-35.2539C85.6934-57.0312 68.0176-74.6582 46.2402-74.6582C24.5117-74.6582 6.83594-57.0312 6.83594-35.2539C6.83594-13.4766 24.5117 4.15039 46.2402 4.15039ZM46.2402-3.27148C28.5645-3.27148 14.3066-17.5781 14.3066-35.2539C14.3066-52.9297 28.5645-67.2363 46.2402-67.2363C63.916-67.2363 78.2227-52.9297 78.2227-35.2539C78.2227-17.5781 63.916-3.27148 46.2402-3.27148ZM46.4844-18.2129C52.3926-18.2129 57.6172-20.752 59.5703-25.9277C59.8145-26.5137 59.9121-27.0996 59.9121-27.7832C59.9121-29.1504 58.9844-29.9805 57.6172-29.9805C56.2988-29.9805 55.6641-29.2969 55.2246-28.0762C54.0527-24.7559 50.4883-22.6562 46.4844-22.6562C39.502-22.6562 36.377-28.9062 36.377-35.5957C36.377-42.4316 39.6973-48.5352 46.4844-48.5352C50.293-48.5352 53.8086-46.3379 54.9316-43.1152C55.4199-41.8457 56.0059-41.1621 57.3242-41.1621C58.6914-41.1621 59.6191-41.9434 59.6191-43.4082C59.6191-44.3848 59.3262-45.166 58.9844-45.8496C56.7871-50.5371 51.8066-52.9297 46.4844-52.9297C36.8652-52.9297 31.1523-45.6543 31.1523-35.5957C31.1523-25.7812 36.5234-18.2129 46.4844-18.2129ZM46.1914-13.8184C47.0215-13.8184 47.6074-14.4043 47.6074-15.2344L47.6074-55.9082C47.6074-56.6895 47.0215-57.3242 46.1914-57.3242C45.4102-57.3242 44.7754-56.6895 44.7754-55.9082L44.7754-15.2344C44.7754-14.4531 45.4102-13.8184 46.1914-13.8184Z" />
</svg>