<svg xmlns="http://www.w3.org/2000/svg" viewBox="9.76562 -72.9004 85.11 80.27">
  <path d="M34.2773 7.37305C36.4258 7.37305 37.8906 6.25 40.5273 3.85742L53.6133-7.86133L76.5625-7.86133C88.5742-7.86133 94.873-14.3555 94.873-26.1719L94.873-54.5898C94.873-66.4062 88.5742-72.9004 76.5625-72.9004L28.0762-72.9004C16.0645-72.9004 9.76562-66.4062 9.76562-54.5898L9.76562-26.1719C9.76562-14.3555 16.0645-7.86133 28.0762-7.86133L29.4922-7.86133L29.4922 1.85547C29.4922 5.22461 31.2012 7.37305 34.2773 7.37305ZM36.084-0.634766L36.084-11.6211C36.084-14.0137 35.2051-14.8926 32.8125-14.8926L28.0762-14.8926C20.2148-14.8926 16.7969-18.6523 16.7969-26.1719L16.7969-54.5898C16.7969-62.0605 20.2148-65.8203 28.0762-65.8203L76.5625-65.8203C84.4238-65.8203 87.8418-62.0605 87.8418-54.5898L87.8418-26.1719C87.8418-18.6523 84.4238-14.8926 76.5625-14.8926L53.2227-14.8926C50.8789-14.8926 49.6582-14.5508 48.0957-12.8906ZM39.6973-22.2656C41.2598-22.2656 42.3828-23.0469 43.0664-25.0488L45.6055-32.7148L58.9844-32.7148L61.5723-25.0488C62.207-23.0469 63.3301-22.2656 64.8926-22.2656C66.8457-22.2656 68.1152-23.4863 68.1152-25.293C68.1152-25.9277 67.9688-26.6113 67.627-27.5391L57.1777-55.8594C56.3477-58.1055 54.6387-59.2773 52.2461-59.2773C49.9023-59.2773 48.291-58.1055 47.4121-55.8594L36.9629-27.5391C36.6699-26.6113 36.5234-25.9277 36.5234-25.293C36.5234-23.4863 37.793-22.2656 39.6973-22.2656ZM47.3145-37.8906L52.0508-52.0508L52.5391-52.0508L57.2754-37.8906Z"/>
</svg>