<svg xmlns="http://www.w3.org/2000/svg" viewBox="9.76562 -70.8008 93.95 71.19">
  <path d="M23.877 0.390625L89.5996 0.390625C97.9492 0.390625 102.051-3.71094 102.051-11.9141L102.051-22.6562C102.051-24.9512 100.781-26.2207 98.5352-26.2207C96.2402-26.2207 95.0195-24.9512 95.0195-22.6562L95.0195-12.2559C95.0195-8.54492 93.0176-6.68945 89.502-6.68945L23.9746-6.68945C20.459-6.68945 18.5059-8.54492 18.5059-12.2559L18.5059-22.6562C18.5059-24.9512 17.2363-26.2207 14.9902-26.2207C12.6953-26.2207 11.4258-24.9512 11.4258-22.6562L11.4258-11.9141C11.4258-3.71094 15.625 0.390625 23.877 0.390625ZM23.877-70.8008C15.625-70.8008 11.4258-66.6992 11.4258-58.4961L11.4258-50C11.4258-47.7051 12.6953-46.4355 14.9902-46.4355C17.2363-46.4355 18.5059-47.7051 18.5059-50L18.5059-58.1543C18.5059-61.8164 20.459-63.7207 23.9746-63.7207L89.502-63.7207C93.0176-63.7207 95.0195-61.8164 95.0195-58.1543L95.0195-50C95.0195-47.7051 96.2891-46.4355 98.5352-46.4355C100.83-46.4355 102.051-47.7051 102.051-50L102.051-58.4961C102.051-66.6992 97.9492-70.8008 89.5996-70.8008ZM14.9902-31.1035C17.8711-31.1035 20.166-33.4961 20.166-36.377C20.166-39.209 17.8711-41.5527 14.9902-41.5527C12.1094-41.5527 9.76562-39.209 9.76562-36.377C9.76562-33.4961 12.1094-31.1035 14.9902-31.1035ZM98.5352-31.1035C101.367-31.1035 103.711-33.4961 103.711-36.377C103.711-39.209 101.367-41.5527 98.5352-41.5527C95.6543-41.5527 93.3105-39.2578 93.3105-36.377C93.3105-33.4961 95.6543-31.1035 98.5352-31.1035ZM44.1406-17.1875C45.7031-17.1875 46.8262-17.9199 47.4609-19.9219L50.0488-27.5879L63.4277-27.5879L65.9668-19.9219C66.6504-17.9199 67.7734-17.1875 69.3359-17.1875C71.2402-17.1875 72.5098-18.4082 72.5098-20.166C72.5098-20.8496 72.3633-21.4844 72.0703-22.4121L61.6211-50.7324C60.791-52.9785 59.082-54.1504 56.6895-54.1504C54.3457-54.1504 52.6855-52.9785 51.8555-50.7324L41.4062-22.4121C41.0645-21.4844 40.918-20.8496 40.918-20.166C40.918-18.4082 42.1875-17.1875 44.1406-17.1875ZM51.7578-32.7637L56.4941-46.9238L56.9824-46.9238L61.7188-32.7637Z"/>
</svg>