<svg xmlns="http://www.w3.org/2000/svg" viewBox="6.83594 -74.6094 78.86 78.81">
  <path d="M46.2402 4.19922C68.0176 4.19922 85.6934-13.4766 85.6934-35.2051C85.6934-56.9336 68.0176-74.6094 46.2402-74.6094C24.5117-74.6094 6.83594-56.9336 6.83594-35.2051C6.83594-13.4766 24.5117 4.19922 46.2402 4.19922ZM24.5117-20.5566L24.5117-52.0508C24.5117-53.3691 25.6348-54.541 26.9531-54.541C28.3203-54.541 29.4434-53.3691 29.4434-52.0508L29.4434-37.1582L34.1797-42.041C35.1562-42.9688 36.1328-43.5059 37.4023-43.5059C38.623-43.5059 39.6484-43.0176 40.625-42.041L47.3145-35.0586C47.4609-34.8633 47.5586-34.8633 47.7051-35.1074L54.2969-41.748L51.6113-44.3848C50.5371-45.459 51.1719-47.0703 52.7344-47.5098L64.2578-50.4883C65.6738-50.8789 66.9434-49.6582 66.5527-48.291L63.5254-36.7188C63.0859-35.0586 61.4258-34.4727 60.4004-35.5469L57.7637-38.2812L50.7324-31.0547C49.7559-30.0781 48.6816-29.541 47.4609-29.541C46.2891-29.541 45.2148-30.0293 44.1895-31.0547L37.6465-37.8906C37.4512-38.0859 37.3535-38.0859 37.1582-37.8906L29.4434-30.0781L29.4434-22.4121C29.4434-22.168 29.541-22.0703 29.7363-22.0703L65.4297-22.0703C66.748-22.0703 67.8711-20.9473 67.8711-19.6289C67.8711-18.2617 66.748-17.1387 65.4297-17.1387L27.8809-17.1387C25.8301-17.1387 24.5117-18.5059 24.5117-20.5566Z"/>
</svg>