<svg xmlns="http://www.w3.org/2000/svg" viewBox="6.83594 -74.4141 78.71 78.32">
  <path d="M46.1914-67.2852C48.1445-67.2852 49.7559-68.8965 49.7559-70.8496C49.7559-72.8027 48.1445-74.4141 46.1914-74.4141C44.2383-74.4141 42.627-72.8027 42.627-70.8496C42.627-68.8965 44.2383-67.2852 46.1914-67.2852ZM57.1777-65.4785C59.1309-65.4785 60.7422-67.0898 60.7422-69.043C60.7422-70.9961 59.1309-72.6074 57.1777-72.6074C55.2246-72.6074 53.6133-70.9961 53.6133-69.043C53.6133-67.0898 55.2246-65.4785 57.1777-65.4785ZM67.1875-60.4492C69.1406-60.4492 70.752-62.0605 70.752-64.0137C70.752-65.9668 69.1406-67.5781 67.1875-67.5781C65.2344-67.5781 63.5742-65.9668 63.5742-64.0137C63.5742-62.0605 65.2344-60.4492 67.1875-60.4492ZM75.0488-52.5391C77.002-52.5391 78.6621-54.1504 78.6621-56.1035C78.6621-58.0566 77.002-59.7168 75.0488-59.7168C73.0957-59.7168 71.4844-58.0566 71.4844-56.1035C71.4844-54.1504 73.0957-52.5391 75.0488-52.5391ZM80.0781-42.7246C82.0312-42.7246 83.6426-44.3359 83.6426-46.2891C83.6426-48.2422 82.0312-49.8535 80.0781-49.8535C78.125-49.8535 76.5137-48.2422 76.5137-46.2891C76.5137-44.3359 78.125-42.7246 80.0781-42.7246ZM81.9824-31.6895C83.9355-31.6895 85.5469-33.3008 85.5469-35.2539C85.5469-37.207 83.9355-38.8184 81.9824-38.8184C80.0293-38.8184 78.418-37.207 78.418-35.2539C78.418-33.3008 80.0293-31.6895 81.9824-31.6895ZM80.0781-20.6543C82.0312-20.6543 83.6426-22.2656 83.6426-24.2188C83.6426-26.1719 82.0312-27.7832 80.0781-27.7832C78.125-27.7832 76.5137-26.1719 76.5137-24.2188C76.5137-22.2656 78.125-20.6543 80.0781-20.6543ZM75.0488-10.791C77.002-10.791 78.6621-12.4023 78.6621-14.3555C78.6621-16.3086 77.002-17.9688 75.0488-17.9688C73.0957-17.9688 71.4844-16.3086 71.4844-14.3555C71.4844-12.4023 73.0957-10.791 75.0488-10.791ZM67.1875-2.92969C69.1406-2.92969 70.752-4.54102 70.752-6.49414C70.752-8.44727 69.1406-10.0586 67.1875-10.0586C65.2344-10.0586 63.5742-8.44727 63.5742-6.49414C63.5742-4.54102 65.2344-2.92969 67.1875-2.92969ZM57.1777 2.09961C59.1309 2.09961 60.7422 0.488281 60.7422-1.46484C60.7422-3.41797 59.1309-5.0293 57.1777-5.0293C55.2246-5.0293 53.6133-3.41797 53.6133-1.46484C53.6133 0.488281 55.2246 2.09961 57.1777 2.09961ZM46.1914 3.90625C48.1445 3.90625 49.7559 2.29492 49.7559 0.341797C49.7559-1.61133 48.1445-3.22266 46.1914-3.22266C44.2383-3.22266 42.627-1.61133 42.627 0.341797C42.627 2.29492 44.2383 3.90625 46.1914 3.90625ZM35.2051 2.09961C37.1582 2.09961 38.8184 0.488281 38.8184-1.46484C38.8184-3.41797 37.1582-5.0293 35.2051-5.0293C33.252-5.0293 31.6406-3.41797 31.6406-1.46484C31.6406 0.488281 33.252 2.09961 35.2051 2.09961ZM25.2441-2.92969C27.1973-2.92969 28.8086-4.54102 28.8086-6.49414C28.8086-8.44727 27.1973-10.0586 25.2441-10.0586C23.291-10.0586 21.6797-8.44727 21.6797-6.49414C21.6797-4.54102 23.291-2.92969 25.2441-2.92969ZM17.334-10.791C19.2871-10.791 20.8984-12.4023 20.8984-14.3555C20.8984-16.3086 19.2871-17.9688 17.334-17.9688C15.3809-17.9688 13.7695-16.3086 13.7695-14.3555C13.7695-12.4023 15.3809-10.791 17.334-10.791ZM12.3047-20.6543C14.2578-20.6543 15.8691-22.2656 15.8691-24.2188C15.8691-26.1719 14.2578-27.7832 12.3047-27.7832C10.3516-27.7832 8.74023-26.1719 8.74023-24.2188C8.74023-22.2656 10.3516-20.6543 12.3047-20.6543ZM10.4004-31.6895C12.3535-31.6895 13.9648-33.3008 13.9648-35.2539C13.9648-37.207 12.3535-38.8184 10.4004-38.8184C8.44727-38.8184 6.83594-37.207 6.83594-35.2539C6.83594-33.3008 8.44727-31.6895 10.4004-31.6895ZM12.3047-42.7246C14.2578-42.7246 15.8691-44.3359 15.8691-46.2891C15.8691-48.2422 14.2578-49.8535 12.3047-49.8535C10.3516-49.8535 8.74023-48.2422 8.74023-46.2891C8.74023-44.3359 10.3516-42.7246 12.3047-42.7246ZM17.334-52.5391C19.2871-52.5391 20.8984-54.1504 20.8984-56.1035C20.8984-58.0566 19.2871-59.7168 17.334-59.7168C15.3809-59.7168 13.7695-58.0566 13.7695-56.1035C13.7695-54.1504 15.3809-52.5391 17.334-52.5391ZM25.2441-60.4492C27.1973-60.4492 28.8086-62.0605 28.8086-64.0137C28.8086-65.9668 27.1973-67.5781 25.2441-67.5781C23.291-67.5781 21.6797-65.9668 21.6797-64.0137C21.6797-62.0605 23.291-60.4492 25.2441-60.4492ZM35.2051-65.4785C37.1582-65.4785 38.8184-67.0898 38.8184-69.043C38.8184-70.9961 37.1582-72.6074 35.2051-72.6074C33.252-72.6074 31.6406-70.9961 31.6406-69.043C31.6406-67.0898 33.252-65.4785 35.2051-65.4785ZM41.9922-17.0898C43.457-17.0898 44.6777-17.7734 45.5078-19.1406L62.3535-45.7031C62.8418-46.582 63.4277-47.5586 63.4277-48.5352C63.4277-50.4883 61.6699-51.709 59.8633-51.709C58.7402-51.709 57.666-51.0742 56.8359-49.7559L41.7969-25.4395L35.0586-34.5215C34.0332-35.9375 33.0566-36.2793 31.8848-36.2793C29.9316-36.2793 28.5156-34.7656 28.5156-32.8125C28.5156-31.8848 28.8574-30.957 29.4922-30.127L38.2324-19.1406C39.4043-17.6758 40.5273-17.0898 41.9922-17.0898Z" />
</svg>