<svg xmlns="http://www.w3.org/2000/svg" viewBox="6.83594 -74.6582 78.86 78.81">
  <path d="M46.1914-72.5586L46.1914-69.1895L54.7852-69.1895C51.9531-70.3613 49.0723-71.4844 46.1914-72.5586ZM46.1914-66.3086L46.1914-62.793L64.6484-62.793C64.5508-64.0137 64.4043-65.1855 64.2578-66.3086ZM46.1914-58.0566L46.1914-54.541L73.7305-54.541C73.6816-55.7617 73.6328-56.9336 73.5352-58.0566ZM46.1914-49.8535L46.1914-46.3379L80.3711-46.3379C80.3711-47.5098 80.3223-48.6816 80.2734-49.8535ZM46.1914-41.6016L46.1914-38.0859L80.4688-38.0859C80.4688-39.2578 80.4199-40.4297 80.4199-41.6016ZM46.1914-33.3496L46.1914-29.834L80.4199-29.834C80.4199-31.0059 80.4688-32.1777 80.4688-33.3496ZM46.1914-25.0977L46.1914-21.582L80.2734-21.582C80.3223-22.7539 80.3711-23.9258 80.3711-25.0977ZM46.1914-16.8457L46.1914-13.3789L73.5352-13.3789C73.6328-14.502 73.6816-15.6738 73.7305-16.8457ZM46.1914-7.71484L46.1914-4.19922L64.2578-4.19922C64.4043-5.32227 64.5508-6.49414 64.6484-7.71484ZM46.1914-1.31836L46.1914 2.05078C49.0723 0.976562 51.9531-0.146484 54.7852-1.31836ZM46.2402 4.15039C68.0176 4.15039 85.6934-13.4766 85.6934-35.2539C85.6934-57.0312 68.0176-74.6582 46.2402-74.6582C24.5117-74.6582 6.83594-57.0312 6.83594-35.2539C6.83594-13.4766 24.5117 4.15039 46.2402 4.15039ZM46.2402-3.27148C28.5645-3.27148 14.3066-17.5781 14.3066-35.2539C14.3066-52.9297 28.5645-67.2363 46.2402-67.2363C63.916-67.2363 78.2227-52.9297 78.2227-35.2539C78.2227-17.5781 63.916-3.27148 46.2402-3.27148Z"/>
</svg>