<svg xmlns="http://www.w3.org/2000/svg" viewBox="9.76562 -70.8008 71.14 71.19">
  <path d="M22.2168 0.390625L68.457 0.390625C76.8066 0.390625 80.9082-3.71094 80.9082-11.9141L80.9082-58.4961C80.9082-66.6992 76.8066-70.8008 68.457-70.8008L22.2168-70.8008C13.916-70.8008 9.76562-66.6992 9.76562-58.4961L9.76562-11.9141C9.76562-3.71094 13.916 0.390625 22.2168 0.390625ZM22.3145-6.68945C18.7988-6.68945 16.7969-8.59375 16.7969-12.2559L16.7969-58.1543C16.7969-61.8652 18.7988-63.7207 22.3145-63.7207L68.3594-63.7207C71.875-63.7207 73.877-61.8652 73.877-58.1543L73.877-12.2559C73.877-8.59375 71.875-6.68945 68.3594-6.68945ZM45.8008-18.2129C51.6602-18.2129 57.0312-21.0938 58.8379-26.123C59.082-26.7578 59.1797-27.2949 59.1797-27.9785C59.1797-29.5898 58.0566-30.2246 56.8848-30.2246C55.5176-30.2246 54.9805-29.4434 54.4922-28.2715C53.0762-24.5605 49.707-22.6074 45.8008-22.6074C38.8184-22.6074 35.6445-28.9062 35.6445-35.5957C35.6445-42.4316 38.9648-48.5352 45.752-48.5352C49.6582-48.5352 53.125-46.1914 54.1992-42.9199C54.6387-41.6992 55.1758-40.9668 56.5918-40.9668C58.0078-40.9668 58.8867-41.8457 58.8867-43.2129C58.8867-43.7988 58.7402-44.5312 58.4961-45.1172C56.2988-50.3418 51.123-52.9297 45.752-52.9297C36.1328-52.9297 30.4199-45.6543 30.4199-35.5957C30.4199-25.7812 35.791-18.2129 45.8008-18.2129ZM36.7188-12.8906C37.4023-12.8906 37.8906-13.2324 38.0859-13.9648L48.3398-55.5664C48.4375-55.9082 48.4863-56.1035 48.4863-56.25C48.4863-57.0312 47.9492-57.6172 47.1191-57.6172C46.2891-57.6172 45.8496-57.2266 45.6543-56.4941L35.3516-14.9902C35.3027-14.7949 35.2539-14.502 35.2539-14.2578C35.2539-13.4766 35.8887-12.8906 36.7188-12.8906ZM44.0918-12.8906C44.8242-12.8906 45.3125-13.2324 45.5078-13.9648L55.7617-55.5664C55.8594-55.9082 55.9082-56.1035 55.9082-56.25C55.9082-57.0312 55.3223-57.6172 54.541-57.6172C53.7109-57.6172 53.2227-57.2266 53.0273-56.4941L42.7734-14.9902C42.7246-14.7949 42.6758-14.502 42.6758-14.2578C42.6758-13.4766 43.3105-12.8906 44.0918-12.8906Z" />
</svg>