<svg xmlns="http://www.w3.org/2000/svg" viewBox="9.76562 -86.2305 144.78 83.59">
  <path d="M139.844-77.9785L133.643-61.4258C132.617-58.5938 134.326-57.1289 137.061-57.8613L151.562-61.7188C153.906-62.3535 154.541-64.2578 153.223-66.1621L144.629-78.5645C143.066-80.8105 140.918-80.8105 139.844-77.9785ZM109.131-64.8438L108.691-82.4707C108.594-85.498 106.543-86.2305 104.346-84.6191L92.1875-75.7324C90.2344-74.3652 90.2832-72.3633 92.2363-71.0449L104.688-62.5C107.08-60.8887 109.18-61.8164 109.131-64.8438ZM136.23-65.9668C140.576-63.916 143.848-70.752 138.867-73.0469C128.564-77.7344 116.553-78.2227 108.203-77.6367C102.393-77.2461 102.93-69.7266 108.35-70.166C116.357-70.752 127.295-70.2637 136.23-65.9668ZM18.6523-10.3027L28.2227-9.27734L28.9062-16.3086L20.3613-17.2363C17.9199-17.5293 16.7969-18.6035 16.7969-20.7031L16.7969-25.3418C16.7969-31.3965 21.1426-35.2539 29.7852-36.8652L53.9062-41.4062C56.1035-41.8457 58.0566-42.0898 59.4727-43.2617C66.5039-49.3652 74.6094-54.7363 83.5449-59.4727C87.793-61.6699 84.3262-67.627 79.834-65.2832C70.6055-60.4004 61.8652-54.7852 54.541-48.5352L28.8574-43.7988C16.1621-41.4062 9.76562-35.4492 9.76562-25.3418L9.76562-20.2148C9.76562-14.0137 12.4512-10.9863 18.6523-10.3027ZM38.4766-2.63672C46.3867-2.63672 52.5879-8.83789 52.5879-16.748C52.5879-24.6582 46.3867-30.8594 38.4766-30.8594C30.5664-30.8594 24.3652-24.6582 24.3652-16.748C24.3652-8.83789 30.5664-2.63672 38.4766-2.63672ZM38.4766-9.22852C34.2773-9.22852 30.957-12.5488 30.957-16.748C30.957-20.9473 34.2773-24.2676 38.4766-24.2676C42.6758-24.2676 45.9961-20.9473 45.9961-16.748C45.9961-12.5488 42.6758-9.22852 38.4766-9.22852ZM47.9004-10.9863L114.062-10.9863L114.062-18.0176L47.9004-18.0176ZM122.949-2.63672C130.859-2.63672 137.061-8.83789 137.061-16.748C137.061-24.6582 130.859-30.8594 122.949-30.8594C115.039-30.8594 108.838-24.6582 108.838-16.748C108.838-8.83789 115.039-2.63672 122.949-2.63672ZM122.949-9.22852C118.75-9.22852 115.43-12.5488 115.43-16.748C115.43-20.9473 118.75-24.2676 122.949-24.2676C127.148-24.2676 130.469-20.9473 130.469-16.748C130.469-12.5488 127.148-9.22852 122.949-9.22852ZM133.496-11.9629L140.43-12.6465C147.949-13.3789 151.66-17.627 151.66-25.4883L151.66-32.1289C151.66-41.6016 148.291-45.5078 139.6-47.168L121.826-50.5371C116.797-51.5137 112.012-52.0996 105.518-51.709L54.5898-48.5352L53.0273-41.4062L105.127-44.6289C110.01-44.9219 114.746-44.5801 121.436-43.2129L138.33-39.8926C142.92-39.0137 144.629-37.0117 144.629-32.1289L144.629-25.4883C144.629-21.875 142.92-19.873 139.502-19.5312L133.496-18.9941Z" />
</svg>