<svg xmlns="http://www.w3.org/2000/svg" viewBox="6.83594 -74.6582 78.86 78.81">
  <path d="M46.2402 4.15039C68.0176 4.15039 85.6934-13.5254 85.6934-35.2539C85.6934-56.9824 68.0176-74.6582 46.2402-74.6582C24.5117-74.6582 6.83594-56.9824 6.83594-35.2539C6.83594-13.5254 24.5117 4.15039 46.2402 4.15039ZM29.7852-18.6523C25.6348-18.6523 23.584-20.6055 23.584-24.7559L23.584-39.4043L68.9453-39.4043L68.9453-24.7559C68.9453-20.6543 66.8457-18.6523 62.6953-18.6523ZM31.543-24.707L36.2305-24.707C37.3535-24.707 38.1348-25.4395 38.1348-26.5137L38.1348-30.0781C38.1348-31.1523 37.3535-31.8848 36.2305-31.8848L31.543-31.8848C30.4688-31.8848 29.6875-31.1523 29.6875-30.0781L29.6875-26.5137C29.6875-25.4395 30.4688-24.707 31.543-24.707ZM23.584-43.7988L23.584-45.6543C23.584-49.8047 25.6348-51.7578 29.7852-51.7578L62.6953-51.7578C66.8457-51.7578 68.9453-49.8047 68.9453-45.6543L68.9453-43.7988Z"/>
</svg>