<svg xmlns="http://www.w3.org/2000/svg" viewBox="9.76562 -77.9785 84.28 83.69">
  <path d="M45.2148-20.8008C66.4062-20.8008 80.6641-27.2949 80.6641-37.0605C80.6641-46.875 66.4551-53.3691 45.2148-53.3691C23.9746-53.3691 9.76562-46.875 9.76562-37.0605C9.76562-27.2949 24.0234-20.8008 45.2148-20.8008ZM45.2148-27.832C28.9062-27.832 16.7969-31.8359 16.7969-37.0605C16.7969-42.2852 28.9062-46.3379 45.2148-46.3379C61.5234-46.3379 73.584-42.2852 73.584-37.0605C73.584-31.8359 61.5234-27.832 45.2148-27.832ZM73.584-37.0605L73.584-28.8574C73.584-12.4512 62.9395-1.31836 47.168-1.31836L43.2617-1.31836C27.3926-1.31836 16.7969-12.4023 16.7969-28.8574L16.7969-37.0605L9.76562-37.0605L9.76562-28.8574C9.76562-8.54492 23.584 5.71289 43.2617 5.71289L47.168 5.71289C66.8457 5.71289 80.6641-8.59375 80.6641-28.8574L80.6641-37.0605ZM76.123-11.7188L79.248-11.7188C88.5254-11.7188 94.043-16.5039 94.043-24.5605C94.043-32.5684 88.4766-37.3535 79.248-37.3535L76.2695-37.3535L76.2695-30.3223L79.248-30.3223C84.1797-30.3223 87.0117-28.1738 87.0117-24.5605C87.0117-20.9473 84.1797-18.7988 79.248-18.7988L76.123-18.7988ZM37.4512-56.7383C37.4512-61.9141 32.9102-64.6973 32.9102-67.9199C32.9102-69.8242 33.3984-70.8496 34.668-72.5586C36.7188-75.2441 32.8613-77.9785 30.8594-75.3906C29.0039-73.0469 28.1738-70.8984 28.1738-68.2617C28.1738-62.8906 32.6172-60.5469 32.6172-56.7383C32.6172-52.9297 28.1738-50.5859 28.1738-45.2148C28.1738-42.5781 29.0039-40.4297 30.8105-38.0859C32.8613-35.498 36.6699-38.2324 34.668-40.918C33.3984-42.627 32.9102-43.6523 32.9102-45.5566C32.9102-48.7793 37.4512-51.5625 37.4512-56.7383ZM49.8535-56.7383C49.8535-61.9141 45.3125-64.6973 45.3125-67.9199C45.3125-69.8242 45.8008-70.8496 47.0703-72.5586C49.1211-75.2441 45.3125-77.9785 43.2617-75.3906C41.4062-73.0469 40.5762-70.8984 40.5762-68.2617C40.5762-62.8906 45.0195-60.5469 45.0195-56.7383C45.0195-52.9297 40.5762-50.5859 40.5762-45.2148C40.5762-42.5781 41.4062-40.4297 43.2617-38.0859C45.3125-35.498 49.1211-38.2324 47.0703-40.918C45.8008-42.627 45.3125-43.6523 45.3125-45.5566C45.3125-48.7793 49.8535-51.5625 49.8535-56.7383ZM62.3047-56.7383C62.3047-61.9141 57.7637-64.6973 57.7637-67.9199C57.7637-69.8242 58.252-70.8496 59.5215-72.5586C61.5723-75.2441 57.7148-77.9785 55.7129-75.3906C53.8574-73.0469 53.0273-70.8984 53.0273-68.2617C53.0273-62.8906 57.4707-60.5469 57.4707-56.7383C57.4707-52.9297 53.0273-50.5859 53.0273-45.2148C53.0273-42.5781 53.8574-40.4297 55.6641-38.0859C57.7148-35.498 61.5234-38.2324 59.5215-40.918C58.252-42.627 57.7637-43.6523 57.7637-45.5566C57.7637-48.7793 62.3047-51.5625 62.3047-56.7383Z"/>
</svg>