<svg xmlns="http://www.w3.org/2000/svg" viewBox="6.83594 -73.9258 93.12 77.39">
  <path d="M6.83594-27.4414C6.83594-16.0156 10.9375-5.56641 17.7246 2.53906C18.5059 3.4668 19.7754 3.4668 20.6543 2.58789L30.0781-6.83594C30.6641-7.37305 30.7129-8.1543 30.1758-8.78906C25.9766-14.209 23.6328-20.5566 23.6328-27.4414C23.6328-42.627 35.0098-55.1758 49.707-57.0312C50.7324-57.1289 51.4648-57.9102 51.4648-58.9355L51.4648-71.8262C51.4648-73.0469 50.5371-73.9258 49.3164-73.8281C25.5371-71.7773 6.83594-51.8066 6.83594-27.4414ZM99.9512-27.4414C99.9512-51.8066 81.2988-71.7773 57.4707-73.8281C56.25-73.9258 55.3223-73.0469 55.3223-71.8262L55.3223-58.9355C55.3223-57.9102 56.0547-57.1289 57.0801-57.0312C71.7773-55.1758 83.2031-42.627 83.2031-27.4414C83.2031-20.5566 80.8594-14.209 76.6113-8.78906C76.123-8.1543 76.1719-7.37305 76.709-6.83594L86.1328 2.58789C87.0117 3.4668 88.2812 3.4668 89.0625 2.53906C95.8984-5.56641 99.9512-16.0156 99.9512-27.4414ZM38.6719-11.4258C40.0391-11.4258 41.0156-12.4512 41.0156-13.916L41.0156-19.873L43.1152-21.9238L49.8047-12.6953C50.293-11.9141 50.9766-11.4258 51.9043-11.4258C53.125-11.4258 54.1504-12.3535 54.1504-13.5254C54.1504-14.1602 53.8574-14.6484 53.4668-15.1855L46.4844-24.8047L52.9297-31.543C53.5156-32.1777 53.8086-32.4707 53.8086-33.252C53.8086-34.3262 52.8809-35.3027 51.709-35.3027C51.0742-35.3027 50.293-34.8633 49.8535-34.375L41.1133-24.8047L41.0156-24.8047L41.0156-41.6992C41.0156-43.1641 40.0391-44.1895 38.6719-44.1895C37.3047-44.1895 36.3281-43.2129 36.3281-41.748L36.3281-13.916C36.3281-12.4512 37.3047-11.4258 38.6719-11.4258ZM60.498-11.4258C61.5234-11.4258 62.7441-12.0605 62.7441-13.916L62.7441-25.4395C62.7441-28.0762 63.7207-30.7617 66.8945-30.7617C67.7734-30.7617 68.5547-30.9082 69.1406-31.3477C69.6289-31.6406 69.9219-32.1777 69.9219-32.959C69.9219-34.4238 68.8965-35.3027 67.4316-35.3027C64.9902-35.3027 63.2812-33.1543 62.7441-30.7617L62.5488-30.7617L62.5488-32.9102C62.5488-34.2285 61.6211-35.3027 60.4492-35.3027C59.1797-35.3027 58.252-34.2285 58.252-32.9102L58.252-13.916C58.252-12.4512 59.0332-11.4258 60.498-11.4258ZM70.7031-12.0117C72.4609-12.0117 73.6328-13.1836 73.6328-14.8926C73.6328-16.6016 72.4609-17.7734 70.7031-17.7734C68.9941-17.7734 67.8223-16.6016 67.8223-14.8926C67.8223-13.1836 68.9941-12.0117 70.7031-12.0117Z"/>
</svg>