<svg xmlns="http://www.w3.org/2000/svg" viewBox="6.83594 -73.6816 63.57 77.15">
  <path d="M6.83594-35.1562C6.83594-31.3965 10.1562-28.1738 14.0137-28.1738C17.8711-28.1738 21.0938-31.3965 21.0938-35.2539C21.0938-39.1602 17.9199-42.3828 14.0137-42.3828C10.1074-42.3828 6.83594-39.0625 6.83594-35.1562ZM28.6133-19.4824C30.0781-17.8711 32.7148-17.8223 34.2285-19.8242C37.5488-24.0723 39.4531-29.3945 39.4531-35.1074C39.4531-40.8203 37.5488-46.1426 34.2285-50.3906C32.7148-52.3926 30.0781-52.3438 28.6133-50.7324C27.1973-49.1211 27.832-47.2168 29.1992-45.2637C31.25-42.4316 32.3242-38.916 32.3242-35.1074C32.3242-31.2988 31.25-27.7832 29.1992-24.9512C27.832-22.998 27.1973-21.0938 28.6133-19.4824ZM39.4531-8.49609C40.8691-6.83594 43.3105-6.83594 45.0195-8.74023C51.3672-15.7715 54.9316-25.0977 54.9316-35.1074C54.9316-45.1172 51.416-54.4434 45.0195-61.4746C43.3105-63.3789 40.8691-63.3789 39.4531-61.7188C38.0371-60.1074 38.4766-58.1055 40.0879-56.2988C45.0684-50.6348 47.8027-43.2129 47.8027-35.1074C47.8027-27.002 45.0684-19.6289 40.0879-13.916C38.4766-12.1094 38.0371-10.1074 39.4531-8.49609ZM50.6348 1.75781C52.002 3.27148 54.3457 3.4668 56.0547 1.70898C65.2344-7.95898 70.4102-20.9961 70.4102-35.1074C70.4102-49.2188 65.2344-62.2559 56.0547-71.9238C54.3457-73.6816 52.002-73.4863 50.6348-71.9727C49.3164-70.5078 49.5605-68.3105 51.1719-66.6504C58.9844-58.3984 63.2812-47.3145 63.2812-35.1074C63.2812-22.9004 58.9844-11.8164 51.1719-3.56445C49.5605-1.9043 49.3164 0.292969 50.6348 1.75781Z" />
</svg>