<svg xmlns="http://www.w3.org/2000/svg" viewBox="9.76562 -66.7969 85.06 63.18">
  <path d="M22.2168-3.61328L82.373-3.61328C90.7227-3.61328 94.8242-7.66602 94.8242-15.8691L94.8242-54.541C94.8242-62.7441 90.7227-66.7969 82.373-66.7969L22.2168-66.7969C13.916-66.7969 9.76562-62.7441 9.76562-54.541L9.76562-15.8691C9.76562-7.66602 13.916-3.61328 22.2168-3.61328ZM22.3145-10.6445C18.7988-10.6445 16.7969-12.5488 16.7969-16.2598L16.7969-54.1504C16.7969-57.8613 18.7988-59.7656 22.3145-59.7656L82.2754-59.7656C85.791-59.7656 87.793-57.8613 87.793-54.1504L87.793-16.2598C87.793-12.5488 85.791-10.6445 82.2754-10.6445ZM61.9629-42.4316C64.502-42.4316 66.6016-44.5312 66.6016-47.0703C66.6016-49.6094 64.502-51.709 61.9629-51.709C59.4238-51.709 57.3242-49.6094 57.3242-47.0703C57.3242-44.5312 59.4238-42.4316 61.9629-42.4316ZM75.1465-42.4316C77.6855-42.4316 79.7852-44.5312 79.7852-47.0703C79.7852-49.6094 77.6855-51.709 75.1465-51.709C72.6074-51.709 70.5078-49.6094 70.5078-47.0703C70.5078-44.5312 72.6074-42.4316 75.1465-42.4316ZM61.9629-30.6152C64.502-30.6152 66.6016-32.7148 66.6016-35.2539C66.6016-37.793 64.502-39.8926 61.9629-39.8926C59.4238-39.8926 57.3242-37.793 57.3242-35.2539C57.3242-32.7148 59.4238-30.6152 61.9629-30.6152ZM75.1465-30.6152C77.6855-30.6152 79.7852-32.7148 79.7852-35.2539C79.7852-37.793 77.6855-39.8926 75.1465-39.8926C72.6074-39.8926 70.5078-37.793 70.5078-35.2539C70.5078-32.7148 72.6074-30.6152 75.1465-30.6152ZM61.9629-18.7988C64.502-18.7988 66.6016-20.8984 66.6016-23.4375C66.6016-25.9766 64.502-28.0762 61.9629-28.0762C59.4238-28.0762 57.3242-25.9766 57.3242-23.4375C57.3242-20.8984 59.4238-18.7988 61.9629-18.7988ZM75.1465-18.7988C77.6855-18.7988 79.7852-20.8984 79.7852-23.4375C79.7852-25.9766 77.6855-28.0762 75.1465-28.0762C72.6074-28.0762 70.5078-25.9766 70.5078-23.4375C70.5078-20.8984 72.6074-18.7988 75.1465-18.7988ZM38.1348-19.5801C44.6289-19.5801 48.9258-23.7793 48.9258-30.0781C48.9258-33.3008 47.6074-35.9375 46.7773-37.7441C45.0684-41.4551 42.1875-46.1426 39.7949-49.8535C39.3066-50.5859 38.7695-50.9277 38.1348-50.9277C37.5-50.9277 36.9629-50.5859 36.4746-49.8535C34.082-46.1426 31.2012-41.4551 29.4922-37.7441C28.6621-35.9375 27.2949-33.3008 27.2949-30.0781C27.2949-23.7793 31.6406-19.5801 38.1348-19.5801Z"/>
</svg>