<svg xmlns="http://www.w3.org/2000/svg" viewBox="6.83594 -74.6582 78.86 78.81">
  <path d="M46.2402 4.15039C68.0176 4.15039 85.6934-13.5254 85.6934-35.2539C85.6934-56.9824 68.0176-74.6582 46.2402-74.6582C24.5117-74.6582 6.83594-56.9824 6.83594-35.2539C6.83594-13.5254 24.5117 4.15039 46.2402 4.15039ZM31.6895-24.3164C29.3457-24.3164 27.7344-25.4395 27.7344-27.7344C27.7344-30.0781 29.2969-31.25 31.6895-31.25L60.7422-31.25C63.1836-31.25 64.7461-30.0781 64.7461-27.7344C64.7461-25.4395 63.0859-24.3164 60.7422-24.3164ZM31.6895-39.1602C29.3457-39.1602 27.7344-40.2832 27.7344-42.5781C27.7344-44.9219 29.2969-46.0938 31.6895-46.0938L60.7422-46.0938C63.1836-46.0938 64.7461-44.9219 64.7461-42.5781C64.7461-40.2832 63.0859-39.1602 60.7422-39.1602Z"/>
</svg>