<svg xmlns="http://www.w3.org/2000/svg" viewBox="1.36719 -78.3203 101.37 91.75">
  <path d="M68.9941-21.0449L68.9941-41.3086C72.3145-39.2578 73.6816-36.3281 73.6816-32.9102C73.6816-28.0762 73.1445-22.5098 72.9004-17.1387L77.9297-12.1094C77.9297-12.2559 77.9297-12.4512 77.9297-12.6465C77.9297-18.457 78.8574-25.9766 78.8574-32.9102C78.8574-39.2578 76.0742-44.1895 68.9941-47.1191L68.9941-68.5547C68.9941-74.9023 65.5273-78.3203 59.2285-78.3203L25.8789-78.3203C21.2891-78.3203 18.2129-76.4648 16.9434-73.0469L23.2422-66.748L23.2422-68.457C23.2422-70.3125 24.1211-71.2891 25.9766-71.2891L59.1309-71.2891C60.9375-71.2891 61.8652-70.3613 61.8652-68.457L61.9141-28.125ZM87.6953-2.34375C92.2363-3.90625 94.7266-8.30078 94.7266-14.9414L94.7266-40.0391C94.7266-43.4082 97.4121-44.2871 98.9258-45.459C101.514-47.3633 102.734-50.1465 102.734-53.125L102.734-58.252C102.734-59.0332 102.246-59.5215 101.562-59.5215L99.1699-59.5215L99.1699-66.5039C99.1699-67.6758 98.1934-68.6035 97.0215-68.6035C95.8984-68.6035 94.9219-67.6758 94.9219-66.5039L94.9219-59.5215L89.8438-59.5215L89.8438-66.5039C89.8438-67.6758 88.916-68.6035 87.793-68.6035C86.6211-68.6035 85.6934-67.6758 85.6934-66.5039L85.6934-59.5215L82.7148-59.5215C81.9824-59.5215 81.4941-59.0332 81.4941-58.252L81.4941-53.125C81.4941-50.1465 82.8125-47.3633 85.3516-45.459C86.9141-44.2871 89.5508-43.4082 89.5508-40.0391L89.5508-14.9414C89.5508-9.81445 87.4023-6.88477 83.5449-6.88477C83.3984-6.88477 83.3008-6.88477 83.1543-6.88477ZM58.0566-45.5566L58.0566-65.3809C58.0566-66.5527 57.1289-67.4316 55.957-67.4316L29.1504-67.4316C27.9785-67.4316 27.0996-66.5527 27.0996-65.3809L27.0996-62.8906L46.5332-43.457L55.957-43.457C57.1289-43.457 58.0566-44.3848 58.0566-45.5566ZM13.2324 7.86133L71.875 7.86133C72.5586 7.86133 73.1934 7.61719 73.7793 7.27539L61.9141-4.54102L61.9141 0.830078L23.2422 0.830078L23.2422-43.7012L16.2109-50.7324L16.2109 0.830078L13.2324 0.830078C11.377 0.830078 9.76562 2.39258 9.76562 4.29688C9.76562 6.25 11.3281 7.86133 13.2324 7.86133ZM85.8887 12.1094C87.2559 13.4277 89.3555 13.4277 90.625 12.1094C91.8945 10.791 91.9922 8.64258 90.625 7.32422L7.42188-75.7812C6.10352-77.0996 3.95508-77.0996 2.63672-75.7812C1.36719-74.5117 1.36719-72.3145 2.63672-71.0449Z"/>
</svg>