<svg xmlns="http://www.w3.org/2000/svg" viewBox="9.76562 -71.3379 12.16 73">
  <path d="M15.918-19.7754C18.2129-19.7754 19.7754-21.2402 19.8242-23.6328L20.2637-67.0898C20.2637-67.0898 20.2637-67.0898 20.2637-67.0898C20.2637-69.6289 18.2129-71.3379 15.8691-71.3379C13.5254-71.3379 11.4746-69.6289 11.4746-67.0898C11.4746-67.0898 11.4746-67.0898 11.4746-67.0898L11.9629-23.6328C12.0117-21.2402 13.623-19.7754 15.918-19.7754ZM15.8691 1.66016C19.2383 1.66016 21.9238-1.12305 21.9238-4.44336C21.9238-7.86133 19.2383-10.5469 15.8691-10.5469C12.5-10.5469 9.76562-7.86133 9.76562-4.44336C9.76562-1.12305 12.5 1.66016 15.8691 1.66016Z"/>
</svg>