<svg xmlns="http://www.w3.org/2000/svg" viewBox="6.83594 -74.6582 78.86 78.81">
  <path d="M46.2402 4.15039C68.0176 4.15039 85.6934-13.4766 85.6934-35.2539C85.6934-57.0312 68.0176-74.6582 46.2402-74.6582C24.5117-74.6582 6.83594-57.0312 6.83594-35.2539C6.83594-13.4766 24.5117 4.15039 46.2402 4.15039ZM46.2402-3.27148C28.5645-3.27148 14.3066-17.5781 14.3066-35.2539C14.3066-52.9297 28.5645-67.2363 46.2402-67.2363C63.916-67.2363 78.2227-52.9297 78.2227-35.2539C78.2227-17.5781 63.916-3.27148 46.2402-3.27148ZM46.1914-51.709C48.7305-51.709 50.7812-53.7598 50.7812-56.3477C50.7812-58.8867 48.7305-60.9375 46.1914-60.9375C43.6035-60.9375 41.5527-58.8867 41.5527-56.3477C41.5527-53.7598 43.6035-51.709 46.1914-51.709ZM41.5527-36.084L50.8301-36.084L50.8301-40.9668C50.8301-41.3086 51.3672-41.5039 51.6113-41.0156L57.5195-29.0527C58.0078-28.0273 59.3262-27.5391 60.3516-28.125C61.377-28.6133 61.8164-29.8828 61.2793-30.957L53.5645-46.6797C52.6367-48.5352 50.8789-49.6094 48.7305-49.6094L43.6523-49.6094C41.5039-49.6094 39.7461-48.5352 38.8184-46.6797L31.0547-30.957C30.5176-29.8828 31.0059-28.6133 31.9824-28.125C33.0566-27.5391 34.3262-28.0273 34.8145-29.0527L40.7715-41.0156C41.0156-41.5039 41.5527-41.3574 41.5527-40.9668ZM37.5977-9.86328C38.623-9.61914 39.7461-10.1562 40.0879-11.6211L42.0898-20.7031L46.1914-28.125L50.293-20.7031L52.2461-11.6211C52.5879-10.1074 53.8086-9.61914 54.8828-9.86328C55.8594-10.1562 56.6406-11.084 56.3477-12.5488L54.3457-21.9238C54.2969-22.0703 54.2969-22.2168 54.248-22.4121L51.8066-29.3457L40.625-29.3457L38.1348-22.4121C38.0371-22.2168 38.0371-22.0703 37.9883-21.9238L35.9863-12.5488C35.6445-11.0352 36.5723-10.0586 37.5977-9.86328ZM25.3906-25.5859L26.4648-25.5859C27.3438-25.5859 27.9297-26.2207 27.9297-27.0996L27.9297-38.3301C27.9297-39.209 27.3438-39.7949 26.4648-39.7949L25.3906-39.7949C24.4629-39.7949 23.877-39.209 23.877-38.3301L23.877-27.0996C23.877-26.2207 24.4629-25.5859 25.3906-25.5859ZM65.918-25.5859L66.9922-25.5859C67.9199-25.5859 68.457-26.2207 68.457-27.0996L68.457-38.3301C68.457-39.209 67.9199-39.7949 66.9922-39.7949L65.918-39.7949C65.0391-39.7949 64.4043-39.209 64.4043-38.3301L64.4043-27.0996C64.4043-26.2207 65.0391-25.5859 65.918-25.5859ZM22.1191-31.2988L70.2148-31.2988C71.0449-31.2988 71.6797-31.9336 71.6797-32.7148C71.6797-33.5449 71.0449-34.1309 70.2148-34.1309L22.1191-34.1309C21.3379-34.1309 20.7031-33.5449 20.7031-32.7148C20.7031-31.9336 21.3379-31.2988 22.1191-31.2988Z" />
</svg>