<svg xmlns="http://www.w3.org/2000/svg" viewBox="9.42383 -82.8613 68.41 95.26">
  <path d="M40.4297-57.8613C45.1172-57.8613 48.877-61.6211 48.877-66.3574C48.877-71.0449 45.1172-74.8047 40.4297-74.8047C35.6934-74.8047 31.8848-71.0449 31.8848-66.3574C31.8848-61.6211 35.6934-57.8613 40.4297-57.8613ZM18.9453 11.6211C21.1426 12.0117 23.1445 10.5957 23.584 8.30078L27.2461-11.5723L42.7246-19.9707C43.2129-20.2637 43.6035-20.1172 43.7988-19.6777L51.6113-0.830078C52.0508 0.195312 52.7832 0.878906 53.6621 1.36719L71.2402 11.1328C73.4375 12.4023 75.7812 11.377 76.709 9.61914C77.832 7.66602 77.0996 5.17578 75.1465 4.10156L58.7891-4.98047L47.7051-49.3652C47.0215-52.002 44.7754-53.9062 41.8945-53.9062L18.1152-53.9062L29.248-77.5391C30.7617-80.7617 28.4668-82.8613 26.1719-82.8613C24.8535-82.8613 23.5352-82.1777 22.9004-80.5664L10.0098-47.1191C9.42383-45.459 9.96094-43.9941 10.8887-43.0664L20.8008-33.1055C22.3145-31.5918 24.9512-31.5918 26.4648-33.1055L30.8594-37.5488C31.4453-38.1348 32.3242-38.1348 32.5684-37.2559L34.9609-27.7344L21.1914-17.4316C20.2148-16.6992 19.7754-15.5273 19.5801-14.4043L15.7227 6.88477C15.332 9.0332 16.7969 11.1816 18.9453 11.6211ZM27.7344-45.8984L23.6328-41.748L19.4824-45.8984Z"/>
</svg>