<svg xmlns="http://www.w3.org/2000/svg" viewBox="6.83594 -74.6582 78.86 78.81">
  <path d="M46.2402 4.15039C68.0176 4.15039 85.6934-13.4766 85.6934-35.2539C85.6934-57.0312 68.0176-74.6582 46.2402-74.6582C24.5117-74.6582 6.83594-57.0312 6.83594-35.2539C6.83594-13.4766 24.5117 4.15039 46.2402 4.15039ZM46.2402-3.27148C28.5645-3.27148 14.3066-17.5781 14.3066-35.2539C14.3066-52.9297 28.5645-67.2363 46.2402-67.2363C63.916-67.2363 78.2227-52.9297 78.2227-35.2539C78.2227-17.5781 63.916-3.27148 46.2402-3.27148ZM33.9355-56.6406L34.3262-49.2676C34.375-47.9004 34.9121-47.0703 35.8887-46.3867L40.4785-43.0664C41.0156-42.6758 41.3086-42.3828 41.3086-41.3574L41.3086-13.916C41.3086-12.7441 42.2363-11.8652 43.4082-11.8652C44.5801-11.8652 45.5078-12.7441 45.5078-13.916L45.5078-28.6133C45.5078-29.0039 45.8496-29.3457 46.1914-29.3457C46.582-29.3457 46.9238-29.0039 46.9238-28.6133L46.9238-13.916C46.9238-12.7441 47.8516-11.8652 49.0234-11.8652C50.1953-11.8652 51.123-12.7441 51.123-13.916L51.123-38.2812C51.123-38.6719 51.416-38.9648 51.8066-38.9648C52.1973-38.9648 52.5391-38.6719 52.5391-38.2812L52.5391-30.127C52.5391-29.1016 53.3691-28.2715 54.4434-28.2715C55.4688-28.2715 56.25-29.1016 56.25-30.127L56.25-39.209C56.25-43.8965 52.8809-47.0215 47.7539-47.0215L43.3594-47.0215C42.0898-47.0215 41.3086-47.2656 40.2832-47.9492L38.1348-49.5117L37.6953-56.8359C37.6465-57.9102 36.7676-58.6914 35.6934-58.6426C34.668-58.5449 33.8867-57.7148 33.9355-56.6406ZM46.1914-49.3652C48.7305-49.3652 50.8301-51.416 50.8301-53.9551C50.8301-56.543 48.7305-58.5938 46.1914-58.5938C43.6523-58.5938 41.6016-56.543 41.6016-53.9551C41.6016-51.416 43.6523-49.3652 46.1914-49.3652Z" />
</svg>