<svg xmlns="http://www.w3.org/2000/svg" viewBox="9.76562 -79.9316 88.67 84.08">
  <path d="M92.7734-61.5234L80.0293-74.3164C77.8809-76.416 74.8535-75.2441 74.707-72.2168L73.9746-58.5449C73.877-56.6406 75.0488-55.4199 77.002-55.5176L90.7227-56.2012C93.5547-56.3477 94.9707-59.2773 92.7734-61.5234ZM92.6758-78.6621L80.0293-66.0156C78.7598-64.7461 78.8086-62.6953 79.9805-61.5234C81.25-60.2539 83.252-60.2539 84.5215-61.5234L97.168-74.1699C98.4375-75.4395 98.3887-77.4902 97.2168-78.6621C95.9473-79.9316 93.9453-79.9316 92.6758-78.6621ZM92.7734-37.2559C94.9707-39.502 93.5547-42.4316 90.7227-42.5781L77.002-43.2617C75.0488-43.3594 73.877-42.1387 73.9746-40.1855L74.707-26.5625C74.8535-23.5352 77.8809-22.3145 80.0293-24.4629ZM92.6758-20.0684C93.9453-18.7988 95.9473-18.7988 97.2168-20.0684C98.3887-21.2402 98.4375-23.3398 97.168-24.6094L84.5215-37.2559C83.252-38.5254 81.25-38.5254 79.9805-37.2559C78.8086-36.084 78.7598-33.9844 80.0293-32.7148ZM20.2148-53.5156C14.4043-53.5156 9.76562-58.3984 9.76562-64.0137C9.76562-69.873 14.4043-74.6582 20.2148-74.6582C26.0742-74.6582 30.8105-69.873 30.8105-64.0137C30.8105-58.3496 26.0742-53.5156 20.2148-53.5156ZM82.7637 2.05078C80.7617 4.15039 77.3438 4.00391 74.8535 1.46484L58.1055-15.7715C57.5684-16.3574 57.1777-16.5039 56.3477-16.1621L43.5059-11.2793C35.0586-8.10547 27.0996-10.6445 23.5352-17.1387L14.9414-32.7148C11.7188-38.6719 12.7441-44.7754 18.3594-47.8027C23.877-50.8301 29.541-48.5352 32.8613-42.4805L43.75-22.6074L53.0273-25.9766C57.5684-27.6367 61.4258-27.0996 65.0879-23.3398L82.4219-5.37109C84.8633-2.88086 84.6191 0.195312 82.7637 2.05078Z"/>
</svg>