<svg xmlns="http://www.w3.org/2000/svg" viewBox="1.70898 -94.0918 82.47 98.24">
  <path d="M41.1621-89.209L41.1621-68.1152C41.1621-64.6484 44.6777-63.0859 47.2656-65.4297L59.1309-76.123C60.8398-77.6367 60.8398-79.6387 59.1309-81.2012L47.2656-91.8945C44.8242-94.0918 41.1621-92.8711 41.1621-89.209ZM46.7285-74.9512C48.7793-74.9512 50.4883-76.6113 50.4883-78.7109C50.4883-80.7617 48.7793-82.4219 46.7285-82.4219L38.8672-82.4219C33.1543-82.4219 29.1504-80.4688 25.6348-75.8301L15.625-62.5977C13.5254-59.8145 12.0605-59.1309 7.8125-59.1309L5.46875-59.1309C3.41797-59.1309 1.70898-57.4707 1.70898-55.4199C1.70898-53.3203 3.41797-51.6602 5.46875-51.6602L7.8125-51.6602C13.9648-51.6602 18.0176-53.3691 21.5332-58.0078L31.6406-71.1914C33.9844-74.2676 35.2539-74.9512 38.8672-74.9512ZM73.7305-53.5156C79.541-53.5156 84.1797-58.3984 84.1797-64.0137C84.1797-69.873 79.541-74.6582 73.7305-74.6582C67.8223-74.6582 63.1348-69.873 63.1348-64.0137C63.1348-58.3496 67.8223-53.5156 73.7305-53.5156ZM11.1816 2.05078C13.1836 4.15039 16.6016 4.00391 19.0918 1.46484L35.791-15.7715C36.3281-16.3574 36.7188-16.5039 37.5977-16.1621L50.4395-11.2793C58.8379-8.10547 66.8457-10.6445 70.4102-17.1387L78.9551-32.7148C82.2266-38.6719 81.2012-44.7754 75.5859-47.8027C70.0684-50.8301 64.4043-48.5352 61.084-42.4805L50.1953-22.6074L40.918-25.9766C36.3281-27.6367 32.5195-27.0996 28.8574-23.3398L11.5234-5.37109C9.08203-2.88086 9.32617 0.195312 11.1816 2.05078Z"/>
</svg>