<svg xmlns="http://www.w3.org/2000/svg" viewBox="8.93555 -55.957 117.72 41.36">
  <path d="M25.4395-38.9648C30.1758-38.9648 33.9355-42.7246 33.9355-47.4609C33.9355-52.1484 30.1758-55.957 25.4395-55.957C20.752-55.957 16.9922-52.1484 16.9922-47.4609C16.9922-42.7246 20.752-38.9648 25.4395-38.9648ZM50.7812-15.5762L61.9141-15.5762C71.1426-15.5762 73.7793-20.8008 72.998-26.9043L70.4102-47.3145L90.3809-47.3145C92.627-47.3145 94.3848-49.0723 94.3848-51.3184C94.3848-53.5645 92.627-55.3223 90.3809-55.3223L65.4785-55.3223C63.1836-55.3223 61.4258-53.7109 61.4258-50.9766L61.4258-30.3711L54.7852-30.3711C51.2207-30.3711 48.2422-31.6406 46.5332-34.375C46.1426-35.0098 46.1426-35.9375 46.875-36.8164L56.8848-48.6328C59.1797-51.3672 57.373-55.3223 53.9551-55.3223L39.8926-55.3223C37.6953-55.3223 35.8887-53.5645 35.8887-51.3184C35.8887-49.0234 37.6465-47.3145 39.8926-47.3145L45.6055-47.3145L39.7461-40.3809C35.5957-35.498 31.8848-32.0312 25.6836-29.248L19.6289-26.5625L21.4844-33.3008C22.1191-35.498 20.7031-37.6953 18.6523-38.1836C16.4551-38.6719 14.2578-37.4023 13.7207-35.3027L9.96094-20.5566C8.93555-16.6016 12.4023-14.5996 15.8691-16.1133L28.4668-21.6309C29.7363-22.168 30.4199-22.1191 31.3965-21.3379C35.498-17.9199 41.9434-15.5762 50.7812-15.5762ZM93.75-24.6094L122.607-24.6094C124.854-24.6094 126.66-26.416 126.66-28.6621C126.66-30.8594 124.854-32.666 122.607-32.666L93.3594-32.666C93.0664-32.666 92.6758-32.666 92.2363-32.6172L76.3184-31.2988L76.8555-27.4414C77.1484-25.1465 77.0996-23.0469 76.6602-21.1914Z"/>
</svg>