<svg xmlns="http://www.w3.org/2000/svg" viewBox="6.83594 -74.6582 78.86 78.81">
  <path d="M46.2402 4.15039C68.0176 4.15039 85.6934-13.5254 85.6934-35.2539C85.6934-56.9824 68.0176-74.6582 46.2402-74.6582C24.5117-74.6582 6.83594-56.9824 6.83594-35.2539C6.83594-13.5254 24.5117 4.15039 46.2402 4.15039ZM40.0391-16.9922L29.5898-14.1602C28.3691-13.8184 27.1973-14.4531 26.8555-15.6738C26.5137-16.8945 27.2461-18.1152 28.418-18.4082L38.1348-21.0449L42.041-31.9824L42.041-32.5195L33.1055-38.5742C31.8359-39.4531 31.6406-41.2598 32.9102-42.1875L40.2832-47.7051C42.041-49.0234 43.4082-49.3164 45.2148-49.3164L46.2402-49.3164C49.2676-49.3164 50.9766-47.3145 50.9766-44.8242L50.9766-32.4219L60.8887-31.4941C62.4023-31.3477 63.1836-30.5176 63.1836-29.0039L63.1836-15.918C63.1836-14.6484 62.2559-13.7207 60.9863-13.7207C59.7656-13.7207 58.7891-14.6484 58.7891-15.918L58.7891-27.0508L46.9727-27.0508C46.7285-27.0508 46.6797-27.002 46.582-26.8066L41.748-18.1641C41.4062-17.4805 40.918-17.2363 40.0391-16.9922ZM38.1348-40.5273L42.041-37.8906L42.041-42.6758C42.041-43.0176 41.6992-43.2129 41.4551-42.9688ZM46.2402-51.5625C43.5547-51.5625 41.4062-53.7109 41.4062-56.3477C41.4062-58.9844 43.5547-61.1328 46.2402-61.1328C48.877-61.1328 51.0254-58.9844 51.0254-56.3477C51.0254-53.7109 48.877-51.5625 46.2402-51.5625Z"/>
</svg>