<svg xmlns="http://www.w3.org/2000/svg" viewBox="9.375 -79.3945 102.15 88.09">
  <path d="M61.1328-62.4023C65.8691-62.4023 69.6289-66.2109 69.6289-70.8984C69.6289-75.6348 65.8691-79.3945 61.1328-79.3945C56.4453-79.3945 52.6367-75.6348 52.6367-70.8984C52.6367-66.2109 56.4453-62.4023 61.1328-62.4023ZM94.6777-50.5371C96.875-50.5371 98.6816-52.2949 98.6816-54.541C98.6816-56.7383 96.875-58.4473 94.6777-58.4473L52.9297-58.4473C49.1211-58.4473 45.8496-56.4941 44.0918-52.9785L26.4648-17.7246L16.5039-27.6855C14.9414-29.248 12.4023-29.1992 10.8887-27.6855C9.375-26.123 9.42383-23.6328 10.8887-22.0703L24.9512-8.00781C26.6113-6.34766 29.248-6.5918 30.5664-8.59375L42.0898-25.3906C42.7246-26.3672 44.0918-26.5137 44.9707-25.8301L59.1309-14.9902L59.1309 4.78516C59.1309 6.93359 60.8887 8.69141 63.0859 8.69141C65.332 8.69141 67.041 6.93359 67.041 4.78516L67.041-16.9922C67.041-18.0176 66.6016-19.043 65.918-19.7754L52.0996-33.5449L59.5215-48.3887C60.2539-49.8047 61.5234-50.5371 63.0371-50.5371ZM68.9941-32.7637L84.8145-32.7637C87.0117-32.7637 88.7695-34.5703 88.7695-36.7188C88.7695-38.916 87.0117-40.6738 84.8145-40.6738L70.6543-40.6738L64.5996-46.6797L63.5742-46.6797C63.1836-46.6797 62.9395-46.5332 62.7441-46.1914L59.8145-40.332L66.2109-33.9355C66.9922-33.2031 67.9688-32.7637 68.9941-32.7637ZM91.6992-41.1621C91.6992-37.4023 96.1426-34.2773 101.611-34.2773C107.08-34.2773 111.523-37.4023 111.523-41.1621C111.523-45.0195 107.08-48.0957 101.611-48.0957C96.1426-48.0957 91.6992-45.0195 91.6992-41.1621Z"/>
</svg>