<svg xmlns="http://www.w3.org/2000/svg" viewBox="9.76562 -70.8008 90.58 71.19">
  <path d="M29.8828-50.9277L61.7676-50.9277C63.2812-50.9277 64.4043-52.0996 64.4043-53.6133C64.4043-55.0781 63.2812-56.2012 61.7676-56.2012L29.8828-56.2012C28.3203-56.2012 27.1973-55.0781 27.1973-53.6133C27.1973-52.0996 28.3203-50.9277 29.8828-50.9277ZM29.8828-14.2578L61.7676-14.2578C63.2812-14.2578 64.4043-15.3809 64.4043-16.8457C64.4043-18.3594 63.2812-19.5312 61.7676-19.5312L29.8828-19.5312C28.3203-19.5312 27.1973-18.3594 27.1973-16.8457C27.1973-15.3809 28.3203-14.2578 29.8828-14.2578ZM22.2168 0.390625L87.8906 0.390625C96.2402 0.390625 100.342-3.71094 100.342-11.9141L100.342-58.4961C100.342-66.6992 96.2402-70.8008 87.8906-70.8008L22.2168-70.8008C13.916-70.8008 9.76562-66.6992 9.76562-58.4961L9.76562-11.9141C9.76562-3.71094 13.916 0.390625 22.2168 0.390625ZM22.3145-6.68945C18.7988-6.68945 16.7969-8.59375 16.7969-12.2559L16.7969-58.1543C16.7969-61.8652 18.7988-63.7207 22.3145-63.7207L87.793-63.7207C91.3086-63.7207 93.3105-61.8652 93.3105-58.1543L93.3105-12.2559C93.3105-8.59375 91.3086-6.68945 87.793-6.68945ZM27.002-26.0254L83.1543-26.0254C86.5234-26.0254 88.4277-28.125 88.4277-31.4453L88.4277-39.0625C88.4277-42.3828 86.5234-44.4336 83.1543-44.4336L27.002-44.4336C23.6328-44.4336 21.6797-42.3828 21.6797-39.0625L21.6797-31.4453C21.6797-28.125 23.6328-26.0254 27.002-26.0254ZM29.8828-32.5684C28.3203-32.5684 27.1973-33.7402 27.1973-35.2539C27.1973-36.7188 28.3203-37.8418 29.8828-37.8418L47.6562-37.8418C49.1699-37.8418 50.293-36.7188 50.293-35.2539C50.293-33.7402 49.1699-32.5684 47.6562-32.5684Z"/>
</svg>