<svg xmlns="http://www.w3.org/2000/svg" viewBox="6.83594 -74.6094 78.86 78.81">
  <path d="M46.2402 4.19922C68.0176 4.19922 85.6934-13.4766 85.6934-35.2051C85.6934-56.9336 68.0176-74.6094 46.2402-74.6094C24.5117-74.6094 6.83594-56.9336 6.83594-35.2051C6.83594-13.4766 24.5117 4.19922 46.2402 4.19922ZM22.8027-25.1953C22.5098-28.9062 24.1211-32.8613 26.7578-35.2051C24.1211-37.5977 22.4121-41.6016 22.8027-45.2637C22.8516-45.9961 23.4375-46.4355 24.2188-46.4355C28.4668-46.4355 32.0312-44.3848 35.1074-40.8203C37.5977-43.2617 40.332-44.9219 43.3105-46.0449C43.0176-47.8516 42.4805-49.0723 40.8691-51.1719C40.1855-52.0996 40.2832-52.7832 41.0645-53.125C48.1445-57.0312 58.0566-53.5156 60.1562-45.9473C66.3574-43.7988 71.875-39.8926 71.875-35.2051C71.875-30.3711 66.1133-26.416 59.7656-24.3652C57.1777-20.5078 52.1484-17.1875 47.7051-16.4551C46.0449-16.2109 45.2148-17.041 45.4102-18.5059L46.0449-23.5352C42.1387-24.4629 38.3789-26.416 35.1074-29.5898C32.0312-25.9766 28.4668-24.0723 24.2188-23.9746C23.4375-23.9746 22.8516-24.3652 22.8027-25.1953ZM62.4023-33.8379C63.623-33.8379 64.5508-34.7656 64.5508-36.0352C64.5508-37.2559 63.623-38.1836 62.4023-38.1836C61.1328-38.1836 60.2051-37.2559 60.2051-36.0352C60.2051-34.7656 61.1328-33.8379 62.4023-33.8379Z"/>
</svg>