<svg xmlns="http://www.w3.org/2000/svg" viewBox="6.83594 -74.6094 78.86 78.81">
  <path d="M46.2402 4.19922C68.0176 4.19922 85.6934-13.4766 85.6934-35.2051C85.6934-56.9336 68.0176-74.6094 46.2402-74.6094C24.5117-74.6094 6.83594-56.9336 6.83594-35.2051C6.83594-13.4766 24.5117 4.19922 46.2402 4.19922ZM31.25-13.7695C30.2246-13.7695 29.248-14.7461 29.248-15.8203L29.248-48.9258C29.248-50.7812 30.0781-52.0996 31.7871-52.8809C33.252-53.5645 34.4238-53.9062 37.5488-53.9062C44.6289-53.9062 49.2188-50.3906 55.8105-50.3906C59.0332-50.3906 60.7422-51.2207 61.9141-51.2207C63.6719-51.2207 64.3555-50.3418 64.3555-49.0723L64.3555-29.5898C64.3555-27.6367 63.5254-26.3672 61.8164-25.5371C60.3516-24.9023 59.1309-24.5605 56.0059-24.5605C49.2676-24.5605 44.7754-28.0273 37.7441-28.0273C35.4492-28.0273 33.8867-27.5391 33.2031-27.2461L33.2031-15.8203C33.2031-14.6973 32.4219-13.7695 31.25-13.7695ZM32.5195-36.5723C32.8125-37.207 34.2773-38.0859 37.2559-38.0859C38.2324-38.0859 38.8184-38.0371 39.502-37.9395L39.502-31.3965C42.2363-31.2012 44.5801-30.5176 46.875-29.8828L46.875-36.2793C49.2188-35.4492 51.5625-34.9609 54.1992-34.668L54.1992-28.125C54.7852-27.9785 55.5176-27.9297 56.3477-27.9297C59.3262-27.9297 60.791-28.8574 61.084-29.541L61.084-35.1562C59.9609-34.8145 58.2031-34.5703 56.0547-34.5703C55.3223-34.5703 54.7363-34.6191 54.1992-34.668L54.1992-41.2598C54.7363-41.2109 55.3711-41.1621 56.0547-41.1621C58.252-41.1621 60.0586-41.5039 61.084-41.748L61.084-47.5586C59.9609-47.2656 58.2031-46.9727 56.0547-46.9727C55.3711-46.9727 54.7363-46.9727 54.1992-47.0215L54.1992-41.2598C51.416-41.5039 49.2188-42.1387 46.875-42.8223L46.875-48.6328C44.4824-49.3652 42.1387-50.0977 39.502-50.3906L39.502-44.5312C38.8672-44.6777 37.9395-44.7266 37.2559-44.7266C34.2773-44.7266 32.8125-43.7988 32.5195-43.1641ZM39.502-37.9395L39.502-44.5312C42.2363-44.2871 44.3848-43.5547 46.875-42.8223L46.875-36.2793C44.2383-37.0117 42.1875-37.6465 39.502-37.9395Z"/>
</svg>