<svg xmlns="http://www.w3.org/2000/svg" viewBox="6.83594 -74.6582 78.86 78.81">
  <path d="M46.2402 4.15039C68.0176 4.15039 85.6934-13.4766 85.6934-35.2539C85.6934-57.0312 68.0176-74.6582 46.2402-74.6582C24.5117-74.6582 6.83594-57.0312 6.83594-35.2539C6.83594-13.4766 24.5117 4.15039 46.2402 4.15039ZM46.2402-3.27148C28.5645-3.27148 14.3066-17.5781 14.3066-35.2539C14.3066-52.9297 28.5645-67.2363 46.2402-67.2363C63.916-67.2363 78.2227-52.9297 78.2227-35.2539C78.2227-17.5781 63.916-3.27148 46.2402-3.27148ZM54.2969-19.5801C55.2246-20.0684 55.4688-21.1914 54.9805-22.0215L38.9648-49.6582C38.1348-51.123 36.9141-51.4648 35.6934-51.4648C34.668-51.4648 33.3984-50.8789 32.2266-50.2441C28.3203-47.9004 27.002-44.6289 23.4863-42.6758C21.875-41.748 20.5566-41.3574 19.873-40.9668C18.7988-40.3809 18.2617-39.2578 18.8965-38.0859L24.9023-27.832C25.5859-26.5625 26.4648-25.9766 27.8809-25.9766C29.2969-25.9766 30.5664-26.6113 31.6406-27.2949C35.5957-29.541 37.0117-32.8613 40.4785-34.8145C41.3086-35.3516 42.1387-35.6934 42.8223-35.9863L51.9043-20.2637C52.4414-19.3359 53.4668-19.043 54.2969-19.5801ZM64.4531-25.9766C65.8691-25.9766 66.748-26.5625 67.4316-27.832L73.4375-38.0859C74.0723-39.2578 73.5352-40.3809 72.4609-40.9668C71.7773-41.3574 70.459-41.748 68.8477-42.6758C65.332-44.6289 64.0137-47.9004 60.1074-50.1953C58.9355-50.8301 57.666-51.4648 56.6406-51.4648C55.4199-51.4648 54.1992-51.123 53.3691-49.6582L47.8516-40.1367L50.4883-35.5957C54.6387-33.7891 56.9336-29.3945 60.6934-27.2949C61.7676-26.6113 63.0859-25.9766 64.4531-25.9766ZM38.0371-19.5801C38.8672-19.043 39.8926-19.3359 40.4297-20.2637L44.5312-27.3438L42.4805-30.8594L37.3535-22.0215C36.9141-21.1914 37.1094-20.0684 38.0371-19.5801Z" />
</svg>