<svg xmlns="http://www.w3.org/2000/svg" viewBox="9.76562 -63.5254 62.7 56.93">
  <path d="M19.7266-6.5918C21.9238-6.5918 23.3887-8.1543 23.3887-10.4492L23.3887-41.1621L29.1016-41.1621C31.0547-41.1621 32.3242-42.3828 32.3242-44.2383C32.3242-46.0938 31.0059-47.3633 29.1016-47.3633L23.3887-47.3633L23.3887-51.4648C23.3887-55.5176 24.8047-57.1777 28.1738-57.1777C29.2969-57.1777 30.0781-57.2754 30.6641-57.5195C31.8848-58.0078 32.5195-58.7891 32.5195-60.0586C32.5195-62.2559 30.4199-63.5254 26.709-63.5254C19.7266-63.5254 16.0156-59.4238 16.0156-51.709L16.0156-47.3633L12.9395-47.3633C11.084-47.3633 9.76562-46.0938 9.76562-44.2383C9.76562-42.3828 11.0352-41.1621 12.9395-41.1621L16.0156-41.1621L16.0156-10.4492C16.0156-8.1543 17.5293-6.5918 19.7266-6.5918ZM41.8457-6.5918C44.043-6.5918 45.5566-8.25195 45.5566-10.498L45.5566-31.0059C45.5566-37.793 49.6094-42.1875 55.9082-42.1875C61.9141-42.1875 65.0879-38.7695 65.0879-32.2754L65.0879-10.498C65.0879-8.20312 66.5527-6.5918 68.75-6.5918C70.8984-6.5918 72.4609-8.25195 72.4609-10.498L72.4609-33.3984C72.4609-42.9688 66.9434-48.8281 57.9102-48.8281C51.9531-48.8281 46.9238-45.5078 45.2637-40.5273L45.2148-40.5273L45.2148-45.0684C45.2148-47.2168 43.7012-48.8281 41.6992-48.8281C39.6484-48.8281 38.1836-47.2168 38.1836-45.0684L38.1836-10.498C38.1836-8.25195 39.6973-6.5918 41.8457-6.5918Z"/>
</svg>