<svg xmlns="http://www.w3.org/2000/svg" viewBox="9.76562 -70.5078 51.32 70.46">
  <path d="M24.2676-0.0488281C26.8555-0.0488281 28.6133-1.9043 28.6133-4.49219L28.6133-12.6953L44.5801-12.6953C46.1914-12.6953 47.3145-13.916 47.3145-15.5762C47.3145-17.2363 46.1914-18.4082 44.5801-18.4082L28.6133-18.4082L28.6133-32.4219L54.2969-32.4219C56.6406-32.4219 58.3008-33.9844 58.3008-36.2305C58.3008-38.4766 56.6406-40.0879 54.2969-40.0879L28.6133-40.0879L28.6133-62.6953L57.0801-62.6953C59.4238-62.6953 61.084-64.2578 61.084-66.6016C61.084-68.8965 59.4238-70.5078 57.0801-70.5078L24.2676-70.5078C21.582-70.5078 19.873-68.75 19.873-66.0156L19.873-18.4082L12.5488-18.4082C10.8887-18.4082 9.76562-17.2363 9.76562-15.5762C9.76562-13.916 10.8887-12.6953 12.5488-12.6953L19.873-12.6953L19.873-4.49219C19.873-1.95312 21.582-0.0488281 24.2676-0.0488281Z"/>
</svg>