<svg xmlns="http://www.w3.org/2000/svg" viewBox="9.76562 -70.8008 71.14 71.19">
  <path d="M22.2168 0.390625L68.457 0.390625C76.8066 0.390625 80.9082-3.71094 80.9082-11.9141L80.9082-58.4961C80.9082-66.6992 76.8066-70.8008 68.457-70.8008L22.2168-70.8008C13.916-70.8008 9.76562-66.6992 9.76562-58.4961L9.76562-11.9141C9.76562-3.71094 13.916 0.390625 22.2168 0.390625ZM45.5078-16.4551C34.7656-16.4551 28.0762-23.8281 28.0762-35.6445C28.0762-47.4609 34.7656-54.9316 45.3125-54.9316C52.5391-54.9316 58.0078-51.6602 60.2051-46.4355C60.4492-45.7031 60.5957-45.166 60.5957-44.4336C60.5957-42.5293 59.375-41.3574 57.5195-41.3574C56.1523-41.3574 55.2734-42.041 54.541-43.5059C52.6855-47.168 49.6094-49.0234 45.459-49.0234C39.4043-49.0234 35.4004-43.6523 35.4004-35.6445C35.4004-27.6367 39.4531-22.3633 45.6055-22.3633C51.3184-22.3633 54.1992-25.1953 54.1992-29.248L54.1992-31.9824L47.7539-31.9824C46.1426-31.9824 45.1172-33.2031 45.1172-34.5703C45.1172-36.0352 46.1426-37.1094 47.7539-37.1094L57.5684-37.1094C59.9609-37.1094 61.377-35.6934 61.377-33.2031L61.377-30.2734C61.377-22.168 55.5664-16.4551 45.5078-16.4551Z"/>
</svg>