<svg xmlns="http://www.w3.org/2000/svg" viewBox="6.83594 -74.6582 78.86 78.81">
  <path d="M46.2402 4.15039C68.0176 4.15039 85.6934-13.5254 85.6934-35.2539C85.6934-56.9824 68.0176-74.6582 46.2402-74.6582C24.5117-74.6582 6.83594-56.9824 6.83594-35.2539C6.83594-13.5254 24.5117 4.15039 46.2402 4.15039ZM46.3379-12.8906C45.4102-12.8906 44.7754-13.5254 44.7754-14.3066L44.7754-17.4805C35.791-18.2617 30.5664-25.4883 30.5664-35.4492C30.5664-44.9707 35.5469-52.6367 44.7754-53.3691L44.7754-56.543C44.7754-57.373 45.4102-58.0078 46.3379-58.0078C47.1191-58.0078 47.7539-57.373 47.7539-56.543L47.7539-53.3691C52.7344-52.9785 57.8125-50.2441 59.6191-45.5566C59.9121-44.7754 59.9609-44.0918 59.9609-43.5547C59.9609-42.1875 59.082-41.3574 57.7148-41.3574C56.25-41.3574 55.6641-41.9434 55.127-43.2617C54.0527-46.4355 51.0742-48.3887 47.7539-48.8281L47.7539-36.4258L58.2031-36.4258C59.7168-36.4258 60.7422-35.3516 60.7422-33.6914L60.7422-32.0801C60.7422-23.3887 56.1035-17.9688 47.7539-17.4316L47.7539-14.3066C47.7539-13.5254 47.1191-12.8906 46.3379-12.8906ZM35.9863-35.498C35.9863-28.8574 38.916-23.0469 44.7754-22.1191L44.7754-48.7793C38.6719-47.8516 35.9863-41.7969 35.9863-35.498ZM47.7539-22.0703C52.7832-22.5098 55.6641-25.9766 55.6641-30.957L55.6641-32.1777L47.7539-32.1777Z"/>
</svg>