<svg xmlns="http://www.w3.org/2000/svg" viewBox="7.95898 -76.3672 80.66 83.11">
  <path d="M32.5684 4.93164C37.2559 3.61328 39.4531-0.488281 38.1348-5.12695L32.7637-23.8281C31.3965-28.4668 27.4414-30.6641 22.7539-29.3457C18.0664-28.0273 15.8203-23.9258 17.1875-19.2871L22.5586-0.585938C23.877 4.05273 27.8809 6.25 32.5684 4.93164ZM23.877 1.66016C25.7812 0.634766 26.2695-1.41602 25.1465-3.4668C20.0684-12.7441 17.2363-23.7793 17.2363-33.9844C17.2363-39.9902 18.2617-45.459 20.2637-50.0977L14.502-55.8594C11.4258-49.6582 9.76562-42.2852 9.76562-33.9844C9.76562-22.4121 13.1348-9.61914 18.7988 0.292969C19.873 2.19727 21.9238 2.73438 23.877 1.66016ZM65.8691 4.93164C68.9453 5.81055 71.6797 5.12695 73.584 3.27148L61.4258-8.93555L60.3027-5.12695C58.9355-0.439453 61.1328 3.61328 65.8691 4.93164ZM84.082-9.375C86.9629-17.2363 88.623-25.8789 88.623-33.9844C88.623-59.4727 72.8516-76.3672 49.1699-76.3672C39.5996-76.3672 31.2988-73.584 24.8047-68.6523L30.3223-63.1348C35.4004-66.8945 41.7969-68.8965 49.1699-68.8965C68.3594-68.8965 81.1523-54.9805 81.1523-33.9844C81.1523-31.2988 80.957-28.6133 80.5664-25.8789C79.5898-27.4902 77.9297-28.7109 75.6836-29.3457C72.1191-30.3223 68.9453-29.2969 67.0898-26.709L66.9922-26.4648ZM82.5684 5.41992C83.8867 6.73828 86.0352 6.73828 87.3047 5.41992C88.5742 4.10156 88.623 2.00195 87.3047 0.683594L14.0625-72.6074C12.7441-73.9746 10.5957-73.9258 9.27734-72.6074C8.00781-71.3379 7.95898-69.1895 9.27734-67.8711Z"/>
</svg>