<svg xmlns="http://www.w3.org/2000/svg" viewBox="6.83594 -74.6582 78.86 78.81">
  <path d="M46.2402 4.15039C68.0176 4.15039 85.6934-13.4766 85.6934-35.2539C85.6934-57.0312 68.0176-74.6582 46.2402-74.6582C24.5117-74.6582 6.83594-57.0312 6.83594-35.2539C6.83594-13.4766 24.5117 4.15039 46.2402 4.15039ZM46.2402-3.27148C28.5645-3.27148 14.3066-17.5781 14.3066-35.2539C14.3066-52.9297 28.5645-67.2363 46.2402-67.2363C63.916-67.2363 78.2227-52.9297 78.2227-35.2539C78.2227-17.5781 63.916-3.27148 46.2402-3.27148ZM46.2402-32.3242C57.7148-32.3242 66.6504-36.5234 66.6504-41.7969C66.6504-46.9727 57.7148-51.0742 46.2402-51.0742C34.8145-51.0742 25.8789-46.9727 25.8789-41.7969C25.8789-36.5234 34.8145-32.3242 46.2402-32.3242ZM46.2402-19.4336C57.7148-19.4336 66.6504-24.6582 66.6504-31.0547L66.6504-35.5957C62.6465-31.6895 54.834-29.4434 46.2402-29.4434C37.7441-29.4434 29.9316-31.6895 25.8789-35.5957L25.8789-31.0547C25.8789-24.6582 34.7656-19.4336 46.2402-19.4336Z" />
</svg>