<svg xmlns="http://www.w3.org/2000/svg" viewBox="8.64258 -69.1406 162.65 67.87">
  <path d="M47.0215-28.3691L88.3789-60.8887C88.8184-61.2305 89.4531-61.5234 89.9414-61.5234C90.5273-61.5234 91.1133-61.2305 91.5527-60.8887L132.861-28.3691C137.109-25.0488 141.357-30.5664 137.891-33.3008L94.9707-67.1387C93.3105-68.457 91.6992-69.1406 89.9414-69.1406C88.2324-69.1406 86.5723-68.457 84.9121-67.1387L41.9922-33.3008C38.5254-30.5664 42.7734-25.0488 47.0215-28.3691ZM56.1035-1.26953L123.779-1.26953C129.199-1.26953 132.422-4.3457 132.422-9.7168L132.422-35.1562L125.586-35.2539L125.586-11.377C125.586-9.27734 124.414-8.10547 122.412-8.10547L57.4707-8.10547C55.4688-8.10547 54.2969-9.27734 54.2969-11.377L54.2969-35.2539L47.5098-35.1562L47.5098-9.7168C47.5098-4.3457 50.7324-1.26953 56.1035-1.26953ZM80.0293-6.10352L99.9023-6.10352L99.9023-24.6094C99.9023-26.3184 98.7793-27.4414 97.0703-27.4414L82.9102-27.4414C81.2012-27.4414 80.0293-26.3184 80.0293-24.6094ZM13.3789-27.3438L49.5117-27.3438L49.5117-33.252L21.1914-33.252L39.5996-46.3867C39.8438-46.582 39.8926-46.582 40.1855-46.582L67.5781-46.582L74.8047-52.4902L40.1855-52.4902C38.7207-52.4902 37.3047-52.0508 36.1328-51.2207L11.084-33.252C8.64258-31.5918 9.7168-27.3438 13.3789-27.3438ZM26.2695-1.26953L57.7637-1.26953L57.7637-8.10547L27.6367-8.10547C25.6348-8.10547 24.4629-9.27734 24.4629-11.377L24.4629-30.5176L17.627-30.5176L17.627-9.7168C17.627-4.3457 20.8496-1.26953 26.2695-1.26953ZM130.371-27.3438L166.504-27.3438C170.215-27.3438 171.289-31.5918 168.848-33.252L143.75-51.2207C142.627-52.0508 141.162-52.4902 139.697-52.4902L105.078-52.4902L112.402-46.582L139.697-46.582C139.99-46.582 140.039-46.582 140.332-46.3867L158.691-33.252L130.371-33.252ZM122.119-1.26953L153.711-1.26953C159.082-1.26953 162.305-4.3457 162.305-9.7168L162.305-30.5176L155.42-30.5176L155.42-11.377C155.42-9.27734 154.297-8.10547 152.295-8.10547L122.119-8.10547Z"/>
</svg>