<svg xmlns="http://www.w3.org/2000/svg" viewBox="9.76562 -76.416 65.04 82.32">
  <path d="M45.3613-6.83594L58.9355-6.83594C61.1816-6.83594 62.0605-7.61719 62.0605-9.81445L62.0605-32.2754C62.0605-34.4727 61.1816-35.2539 58.9355-35.2539L45.3613-35.2539C43.1152-35.2539 42.2852-34.4727 42.2852-32.2754L42.2852-9.81445C42.2852-7.61719 43.1152-6.83594 45.3613-6.83594ZM9.76562-6.54297C9.76562 1.80664 13.8184 5.9082 22.0215 5.9082L62.5 5.9082C70.7031 5.9082 74.8047 1.80664 74.8047-6.54297L74.8047-63.9648C74.8047-72.2656 70.7031-76.416 62.5-76.416L22.0215-76.416C13.8184-76.416 9.76562-72.2656 9.76562-63.9648ZM16.7969-6.64062L16.7969-63.8672C16.7969-67.3828 18.7012-69.3848 22.4121-69.3848L62.1582-69.3848C65.8203-69.3848 67.7246-67.3828 67.7246-63.8672L67.7246-6.64062C67.7246-3.125 65.8203-1.12305 62.1582-1.12305L22.4121-1.12305C18.7012-1.12305 16.7969-3.125 16.7969-6.64062Z"/>
</svg>