<svg xmlns="http://www.w3.org/2000/svg" viewBox="9.76562 -66.9922 100.29 67.92">
  <path d="M110.059-30.9082L110.059-55.0293C110.059-62.1094 105.127-66.9922 98.0469-66.9922L21.6797-66.9434C14.6484-66.9434 9.76562-62.0117 9.76562-54.8828L9.76562-30.9082C9.76562-20.752 14.209-14.4043 24.6094-11.377L57.8613-1.70898C66.8945 0.927734 72.8027-0.146484 80.8594-4.29688L102.344-15.3809C108.594-18.5547 110.059-22.5586 110.059-30.9082ZM42.7246-20.459C40.7227-20.459 39.5508-21.7285 39.5508-23.8281L39.5508-49.8535C39.5508-51.6113 41.0156-53.0762 42.7734-53.0762C44.5801-53.0762 46.0449-51.6113 46.0449-49.8535L46.0449-25.8789L54.0039-25.8789C55.4688-25.8789 56.6895-24.6582 56.6895-23.1934C56.6895-21.6797 55.4688-20.459 54.0039-20.459ZM69.9707-19.7754C65.6738-19.7754 61.377-21.7773 60.2051-25.4883C60.0098-26.1719 59.9121-26.8066 59.9121-27.5879C59.9121-29.3457 61.084-30.3711 62.8418-30.3711C64.209-30.3711 65.1855-29.6387 65.6738-28.2227C66.1621-26.6602 67.2852-24.9512 69.9707-24.9512C72.6562-24.9512 74.0234-27.0508 74.0234-29.5898C74.0234-32.7637 72.3145-34.5215 69.0918-34.5215L68.3105-34.5215C66.7969-34.5215 65.8691-35.4004 65.8691-36.8652C65.8691-38.2812 66.7969-39.209 68.3105-39.209L69.043-39.209C71.875-39.209 73.3887-41.1621 73.3887-43.8965C73.3887-46.3379 72.2656-48.1934 69.8242-48.1934C67.7734-48.1934 66.6504-46.9238 66.0156-44.7266C65.5762-43.2129 64.6484-42.7246 63.1836-42.7246C61.377-42.7246 60.4004-43.8965 60.4004-45.3125C60.4004-46.0449 60.498-46.7285 60.7422-47.5098C61.8652-50.9766 65.6738-53.2715 69.8242-53.2715C75.0977-53.2715 79.3945-50.2441 79.3945-44.5801C79.3945-41.2598 77.6367-38.0859 74.0723-37.1094L74.0723-36.9629C77.2461-36.6211 80.3711-34.375 80.3711-29.2969C80.3711-23.3398 75.8301-19.7754 69.9707-19.7754Z"/>
</svg>