<svg xmlns="http://www.w3.org/2000/svg" viewBox="9.76562 -71.7285 95.21 72.95">
  <path d="M22.2168 1.2207L92.5293 1.2207C100.879 1.2207 104.98-2.88086 104.98-11.084L104.98-59.4238C104.98-67.627 100.879-71.7285 92.5293-71.7285L22.2168-71.7285C13.916-71.7285 9.76562-67.627 9.76562-59.4238L9.76562-11.084C9.76562-2.88086 13.916 1.2207 22.2168 1.2207ZM22.3145-5.85938C18.7988-5.85938 16.7969-7.76367 16.7969-11.4258L16.7969-59.082C16.7969-62.7441 18.7988-64.6484 22.3145-64.6484L92.4316-64.6484C95.9473-64.6484 97.9492-62.7441 97.9492-59.082L97.9492-11.4258C97.9492-7.76367 95.9473-5.85938 92.4316-5.85938ZM25.4883-11.5723L89.2578-11.5723C91.1133-11.5723 92.2363-12.6953 92.2363-14.6484L92.2363-55.8594C92.2363-57.8125 91.1133-58.9355 89.2578-58.9355L25.4883-58.9355C23.6328-58.9355 22.5098-57.8125 22.5098-55.8594L22.5098-14.6484C22.5098-12.6953 23.6328-11.5723 25.4883-11.5723Z"/>
</svg>