<svg xmlns="http://www.w3.org/2000/svg" viewBox="9.76562 -76.5137 68.95 82.52">
  <path d="M55.5176 6.00586C69.5801 6.00586 78.7109-3.125 78.7109-17.1875L78.7109-35.5469C78.7109-40.8691 77.002-45.2148 73.6816-48.291L49.5117-70.5078C44.7266-74.9023 39.5508-76.5137 33.4961-76.5137L21.6797-76.5137C14.5996-76.5137 9.76562-71.582 9.76562-64.502L9.76562-5.9082C9.76562 1.51367 14.3555 6.00586 21.8262 6.00586ZM28.0273-31.7383C26.3672-31.7383 25.2441-32.7637 25.2441-34.3262C25.2441-35.8887 26.3672-36.9141 28.0273-36.9141L59.5703-36.9141C61.2305-36.9141 62.3535-35.8887 62.3535-34.3262C62.3535-32.7637 61.2305-31.7383 59.5703-31.7383ZM28.0273-20.9473C26.3672-20.9473 25.2441-21.9727 25.2441-23.5352C25.2441-25.0977 26.3672-26.123 28.0273-26.123L59.5703-26.123C61.2305-26.123 62.3535-25.0977 62.3535-23.5352C62.3535-21.9727 61.2305-20.9473 59.5703-20.9473ZM28.0273-10.1562C26.3672-10.1562 25.2441-11.1816 25.2441-12.7441C25.2441-14.3066 26.3672-15.332 28.0273-15.332L59.5703-15.332C61.2305-15.332 62.3535-14.3066 62.3535-12.7441C62.3535-11.1816 61.2305-10.1562 59.5703-10.1562Z"/>
</svg>