<svg xmlns="http://www.w3.org/2000/svg" viewBox="6.83594 -74.6582 78.86 78.81">
  <path d="M46.2402 4.15039C68.0176 4.15039 85.6934-13.5254 85.6934-35.2539C85.6934-56.9824 68.0176-74.6582 46.2402-74.6582C24.5117-74.6582 6.83594-56.9824 6.83594-35.2539C6.83594-13.5254 24.5117 4.15039 46.2402 4.15039ZM24.9023-37.2559C22.9004-37.2559 21.4844-38.5254 21.4844-40.3809C21.4844-42.334 22.9004-43.6035 24.9023-43.6035L67.7734-43.6035C69.7266-43.6035 71.1914-42.334 71.1914-40.3809C71.1914-38.5254 69.7266-37.2559 67.7734-37.2559ZM30.8105-24.0723C28.8086-24.0723 27.3926-25.3418 27.3926-27.2461C27.3926-29.1504 28.8086-30.4199 30.8105-30.4199L61.8164-30.4199C63.8672-30.4199 65.2832-29.1504 65.2832-27.2461C65.2832-25.3418 63.8672-24.0723 61.8164-24.0723Z" />
</svg>