<svg xmlns="http://www.w3.org/2000/svg" viewBox="9.76562 -70.8008 90.58 71.19">
  <path d="M28.6133-49.2676C30.6152-49.2676 32.2266-50.8789 32.2266-52.8809C32.2266-54.834 30.6152-56.4453 28.6133-56.4453C26.6602-56.4453 25.0488-54.7852 25.0488-52.8809C25.0488-50.9277 26.6602-49.2676 28.6133-49.2676ZM28.6133-37.7441C30.6152-37.7441 32.2266-39.3066 32.2266-41.3086C32.2266-43.3105 30.6152-44.9219 28.6133-44.9219C26.6602-44.9219 25.0488-43.2617 25.0488-41.3086C25.0488-39.3555 26.6602-37.7441 28.6133-37.7441ZM28.6133-26.2207C30.6152-26.2207 32.2266-27.832 32.2266-29.834C32.2266-31.8359 30.6152-33.3984 28.6133-33.3984C26.6113-33.3984 25.0488-31.7871 25.0488-29.834C25.0488-27.832 26.6113-26.2207 28.6133-26.2207ZM28.6133-14.0625C30.6152-14.0625 32.2266-15.6738 32.2266-17.6758C32.2266-19.6289 30.6152-21.2402 28.6133-21.2402C26.6602-21.2402 25.0488-19.5801 25.0488-17.6758C25.0488-15.7227 26.6602-14.0625 28.6133-14.0625ZM39.6484-50.1953L82.4707-50.1953C83.9844-50.1953 85.1562-51.416 85.1562-52.8809C85.1562-54.3457 83.9355-55.5664 82.4707-55.5664L39.6484-55.5664C38.1836-55.5664 36.9629-54.3457 36.9629-52.8809C36.9629-51.416 38.1348-50.1953 39.6484-50.1953ZM39.6484-38.623L62.9395-38.623C64.4043-38.623 65.625-39.8438 65.625-41.3086C65.625-42.7734 64.4043-43.9941 62.9395-43.9941L39.6484-43.9941C38.1836-43.9941 36.9629-42.7734 36.9629-41.3086C36.9629-39.8438 38.1836-38.623 39.6484-38.623ZM39.6484-27.1484L82.4707-27.1484C83.9844-27.1484 85.1562-28.3203 85.1562-29.834C85.1562-31.2988 83.9844-32.4707 82.4707-32.4707L39.6484-32.4707C38.1348-32.4707 36.9629-31.2988 36.9629-29.834C36.9629-28.3203 38.1348-27.1484 39.6484-27.1484ZM39.6484-14.9902L62.9395-14.9902C64.4043-14.9902 65.625-16.2109 65.625-17.6758C65.625-19.1406 64.4531-20.3125 62.9395-20.3125L39.6484-20.3125C38.1348-20.3125 36.9629-19.1406 36.9629-17.6758C36.9629-16.2109 38.1836-14.9902 39.6484-14.9902ZM22.2168 0.390625L87.8906 0.390625C96.2402 0.390625 100.342-3.71094 100.342-11.9141L100.342-58.4961C100.342-66.6992 96.2402-70.8008 87.8906-70.8008L22.2168-70.8008C13.916-70.8008 9.76562-66.6992 9.76562-58.4961L9.76562-11.9141C9.76562-3.71094 13.916 0.390625 22.2168 0.390625ZM22.3145-6.68945C18.7988-6.68945 16.7969-8.59375 16.7969-12.2559L16.7969-58.1543C16.7969-61.8652 18.7988-63.7207 22.3145-63.7207L87.793-63.7207C91.3086-63.7207 93.3105-61.8652 93.3105-58.1543L93.3105-12.2559C93.3105-8.59375 91.3086-6.68945 87.793-6.68945Z" />
</svg>