<svg xmlns="http://www.w3.org/2000/svg" viewBox="14.6484 -76.4648 50.78 82.37">
  <path d="M14.6484-4.19922C14.6484 1.75781 19.043 5.9082 25.3418 5.9082L54.6875 5.9082C60.9863 5.9082 65.4297 1.75781 65.4297-4.19922L65.4297-66.3574C65.4297-72.3145 60.9863-76.4648 54.6875-76.4648L25.3418-76.4648C19.043-76.4648 14.6484-72.3145 14.6484-66.3574ZM21.6797-5.41992L21.6797-65.1367C21.6797-67.8223 23.4375-69.4336 26.2695-69.4336L53.7598-69.4336C56.6406-69.4336 58.3496-67.8223 58.3496-65.1367L58.3496-5.41992C58.3496-2.73438 56.6406-1.12305 53.7598-1.12305L26.2695-1.12305C23.4375-1.12305 21.6797-2.73438 21.6797-5.41992ZM33.5449-22.168L46.5332-22.168C48.6328-22.168 49.707-23.291 49.707-25.5371L49.707-35.498C49.707-37.207 49.0234-38.2324 47.8027-38.6719L47.8027-41.1133C47.8027-46.3379 44.6777-49.9023 40.0391-49.9023C35.4004-49.9023 32.2266-46.3379 32.2266-41.1133L32.2266-38.623C31.0059-38.2324 30.3711-37.207 30.3711-35.498L30.3711-25.5371C30.3711-23.291 31.4453-22.168 33.5449-22.168ZM36.377-38.8184L36.377-41.5039C36.377-44.1895 37.793-45.9473 40.0391-45.9473C42.2363-45.9473 43.7012-44.1895 43.7012-41.5039L43.7012-38.8184Z"/>
</svg>