<svg xmlns="http://www.w3.org/2000/svg" viewBox="9.76562 -72.998 92.38 78.32">
  <path d="M19.5312-8.54492L92.3828-8.54492C98.4863-8.54492 102.148-12.207 102.148-18.3105L102.148-63.2324C102.148-69.3359 98.4863-72.998 92.3828-72.998L19.5312-72.998C13.4277-72.998 9.76562-69.3359 9.76562-63.2324L9.76562-18.3105C9.76562-12.207 13.4277-8.54492 19.5312-8.54492ZM18.3594-25.9766C17.2852-25.9766 16.7969-26.3672 16.7969-27.4902L16.7969-63.1348C16.7969-64.8926 17.8711-65.9668 19.6289-65.9668L92.2852-65.9668C94.043-65.9668 95.1172-64.8926 95.1172-63.1348L95.1172-27.4902C95.1172-26.3672 94.6777-25.9766 93.5547-25.9766ZM43.6523 0.244141L68.3105 0.244141L68.3105-9.0332L43.6523-9.0332ZM43.6035 5.32227L68.3594 5.32227C70.2637 5.32227 71.875 3.75977 71.875 1.80664C71.875-0.146484 70.2637-1.75781 68.3594-1.75781L43.6035-1.75781C41.6504-1.75781 40.0391-0.146484 40.0391 1.80664C40.0391 3.75977 41.6504 5.32227 43.6035 5.32227ZM42.0898-35.7422C42.0898-33.5449 43.1641-32.4219 45.2637-32.4219L58.252-32.4219C60.3027-32.4219 61.377-33.5449 61.377-35.7422L61.377-45.7031C61.377-47.9004 60.3027-49.0234 58.252-49.0234L45.2637-49.0234C43.1641-49.0234 42.0898-47.9004 42.0898-45.7031ZM55.127-46.4355L59.2285-46.4355L59.2285-52.2461C59.2285-54.9316 60.6934-56.6895 63.1836-56.6895C65.6738-56.6895 67.0898-54.9316 67.0898-52.2461L67.0898-49.3164C67.0898-48.1934 68.0664-47.2656 69.1895-47.2656C70.3125-47.2656 71.2402-48.1934 71.2402-49.3164L71.2402-52.2461C71.2402-57.0801 68.0664-60.6934 63.1836-60.6934C58.252-60.6934 55.127-57.0801 55.127-51.8066Z"/>
</svg>