<svg xmlns="http://www.w3.org/2000/svg" viewBox="9.76562 -70.8008 71.14 71.19">
  <path d="M22.2168 0.390625L68.457 0.390625C76.8066 0.390625 80.9082-3.71094 80.9082-11.9141L80.9082-58.4961C80.9082-66.6992 76.8066-70.8008 68.457-70.8008L22.2168-70.8008C13.916-70.8008 9.76562-66.6992 9.76562-58.4961L9.76562-11.9141C9.76562-3.71094 13.916 0.390625 22.2168 0.390625ZM29.834-16.6992C27.7832-16.6992 26.5625-18.0664 26.5625-20.4102L26.5625-50.3418C26.5625-52.7832 28.2715-54.4434 30.7129-54.4434C32.8613-54.4434 34.2773-53.4668 35.0586-51.6602L45.2637-26.2207L45.459-26.2207L55.6152-51.6602C56.3965-53.4668 57.8125-54.4434 59.9609-54.4434C62.4023-54.4434 64.1113-52.7832 64.1113-50.3418L64.1113-20.4102C64.1113-18.0664 62.8906-16.6992 60.7422-16.6992C58.7891-16.6992 57.5684-18.0664 57.5684-20.4102L57.5684-41.5527L57.1777-41.5527L48.6816-20.4102C47.998-18.8477 46.9238-18.0664 45.3125-18.0664C43.7012-18.0664 42.627-18.8477 41.9922-20.4102L33.4961-41.5527L33.1055-41.5527L33.1055-20.4102C33.1055-18.0664 31.8848-16.6992 29.834-16.6992Z"/>
</svg>