<svg xmlns="http://www.w3.org/2000/svg" viewBox="9.76562 -70.8008 90.58 71.19">
  <path d="M28.7109-46.582C26.9531-46.582 25.6836-47.9492 25.6836-49.6582C25.6836-51.3672 26.9531-52.6855 28.7109-52.6855L52.7344-52.6855C54.4434-52.6855 55.7617-51.3672 55.7617-49.6582C55.7617-47.9492 54.4434-46.582 52.7344-46.582ZM28.7109-36.084C26.9531-36.084 25.6836-37.4023 25.6836-39.1113C25.6836-40.8203 26.9531-42.1875 28.7109-42.1875L46.2402-42.1875C47.9492-42.1875 49.3164-40.8203 49.3164-39.1113C49.3164-37.4023 47.9492-36.084 46.2402-36.084ZM75.2441-35.498C70.166-35.498 66.0645-39.5996 66.0645-44.6777C66.0645-49.7559 70.166-53.8574 75.2441-53.8574C80.2734-53.8574 84.375-49.7559 84.375-44.6777C84.375-39.5996 80.2734-35.498 75.2441-35.498ZM22.2168 0.390625L87.8906 0.390625C96.2402 0.390625 100.342-3.71094 100.342-11.9141L100.342-58.4961C100.342-66.6992 96.2402-70.8008 87.8906-70.8008L22.2168-70.8008C13.916-70.8008 9.76562-66.6992 9.76562-58.4961L9.76562-11.9141C9.76562-3.71094 13.916 0.390625 22.2168 0.390625Z" />
</svg>