<svg xmlns="http://www.w3.org/2000/svg" viewBox="6.83594 -78.418 86.28 86.33">
  <path d="M50 7.91016C73.6328 7.91016 93.1152-11.5723 93.1152-35.2539C93.1152-58.9355 73.6328-78.418 50-78.418C26.3184-78.418 6.83594-58.9355 6.83594-35.2539C6.83594-11.5723 26.3184 7.91016 50 7.91016ZM50-6.64062C34.1797-6.64062 21.3867-19.4336 21.3867-35.2539C21.3867-51.0742 34.1797-63.8672 50-63.8672C65.7715-63.8672 78.5645-51.0742 78.5645-35.2539C78.5645-19.4336 65.7715-6.64062 50-6.64062ZM38.7207-18.3594C40.2832-18.3594 41.2598-19.3848 41.2598-20.9473L41.2598-32.373C41.2598-39.0625 43.5059-44.873 50.0488-44.873C56.6895-44.873 58.8379-39.0625 58.8379-32.373L58.8379-20.9473C58.8379-19.3848 59.8145-18.3594 61.377-18.3594C62.8906-18.3594 63.8184-19.3848 63.8184-20.9473L63.8184-32.5684C63.8184-42.2852 59.4238-49.3652 50.0488-49.3652C40.625-49.3652 36.2793-42.1875 36.2793-32.5684L36.2793-20.9473C36.2793-19.3848 37.207-18.3594 38.7207-18.3594ZM50-18.3594C51.0254-18.3594 51.709-19.043 51.709-20.1172L51.709-53.3691C51.709-54.3945 51.0254-55.0781 50-55.0781C48.877-55.0781 48.2422-54.3945 48.2422-53.3691L48.2422-20.1172C48.2422-19.043 48.877-18.3594 50-18.3594Z" />
</svg>