<svg xmlns="http://www.w3.org/2000/svg" viewBox="9.76562 -76.3184 95.07 82.13">
  <path d="M13.2812 5.81055C15.2344 5.81055 16.7969 4.19922 16.7969 2.29492L16.7969-72.8027C16.7969-74.707 15.2344-76.3184 13.2812-76.3184C11.377-76.3184 9.76562-74.707 9.76562-72.8027L9.76562 2.29492C9.76562 4.19922 11.377 5.81055 13.2812 5.81055ZM101.318 5.81055C103.223 5.81055 104.834 4.19922 104.834 2.29492L104.834-72.8027C104.834-74.707 103.223-76.3184 101.318-76.3184C99.3652-76.3184 97.8027-74.707 97.8027-72.8027L97.8027 2.29492C97.8027 4.19922 99.3652 5.81055 101.318 5.81055ZM24.5117-55.2246L90.0879-55.2246C91.8457-55.2246 93.0176-56.3965 93.0176-58.1055L93.0176-67.334C93.0176-69.043 91.8457-70.2148 90.0879-70.2148L24.5117-70.2148C22.7539-70.2148 21.582-69.043 21.582-67.334L21.582-58.1055C21.582-56.3965 22.7539-55.2246 24.5117-55.2246ZM24.5117-36.8652L90.0879-36.8652C91.8457-36.8652 93.0176-37.9883 93.0176-39.7461L93.0176-48.9746C93.0176-50.6836 91.8457-51.8555 90.0879-51.8555L24.5117-51.8555C22.7539-51.8555 21.582-50.6836 21.582-48.9746L21.582-39.7461C21.582-37.9883 22.7539-36.8652 24.5117-36.8652ZM24.5117-18.5059L90.0879-18.5059C91.8457-18.5059 93.0176-19.6289 93.0176-21.3379L93.0176-30.6152C93.0176-32.3242 91.8457-33.4473 90.0879-33.4473L24.5117-33.4473C22.7539-33.4473 21.582-32.3242 21.582-30.6152L21.582-21.3379C21.582-19.6289 22.7539-18.5059 24.5117-18.5059ZM24.5117-0.0976562L90.0879-0.0976562C91.8457-0.0976562 93.0176-1.26953 93.0176-2.97852L93.0176-12.207C93.0176-13.9648 91.8457-15.0879 90.0879-15.0879L24.5117-15.0879C22.7539-15.0879 21.582-13.9648 21.582-12.207L21.582-2.97852C21.582-1.26953 22.7539-0.0976562 24.5117-0.0976562ZM90.0879-59.9121L101.318-59.9121L101.318-65.5273L90.0879-65.5273ZM90.0879-41.5039L101.318-41.5039L101.318-47.168L90.0879-47.168ZM90.0879-23.1445L101.318-23.1445L101.318-28.8086L90.0879-28.8086ZM90.0879-4.78516L101.318-4.78516L101.318-10.4492L90.0879-10.4492Z"/>
</svg>