<svg xmlns="http://www.w3.org/2000/svg" viewBox="9.76562 -78.7109 68.7 86.43">
  <path d="M9.76562-68.2617L20.2148-68.2617L20.2148-74.1211C20.2148-77.0508 18.7012-78.7109 16.1133-78.7109L13.8672-78.7109C11.2305-78.7109 9.76562-77.002 9.76562-74.1211ZM9.76562-2.14844L13.5254 6.64062C13.9648 7.61719 15.5273 7.71484 16.0156 6.68945L20.2148-2.09961L20.2148-63.4766L9.76562-63.4766ZM49.3652 7.56836L68.8477 7.56836C74.5117 7.56836 78.4668 3.61328 78.4668-2.05078L78.4668-68.3594C78.4668-74.0723 74.5117-78.0762 68.8477-78.0762L49.3652-78.0762C43.75-78.0762 39.7949-74.1211 39.7949-68.4082L39.7949-2.09961C39.7949 3.61328 43.75 7.56836 49.3652 7.56836ZM50.5859 1.2207C47.9492 1.2207 46.1914-0.537109 46.1914-3.07617L46.1914-67.3828C46.1914-69.9219 47.9492-71.6797 50.5859-71.6797L67.627-71.6797C70.2637-71.6797 72.0703-69.9219 72.0703-67.3828L72.0703-3.125C72.0703-0.585938 70.2637 1.2207 67.627 1.2207ZM74.2188-64.1602L74.2188-67.2363L55.7129-67.2363C54.8828-67.2363 54.248-66.6016 54.248-65.6738C54.248-64.8926 54.834-64.1602 55.6641-64.1602ZM74.2188-58.1055L74.2188-61.084L61.8164-61.084C60.9375-61.084 60.3516-60.498 60.3516-59.5703C60.3516-58.7402 60.8887-58.1055 61.7676-58.1055ZM74.2188-51.9531L74.2188-54.9805L61.8164-54.9805C60.9375-54.9805 60.3516-54.3457 60.3516-53.4668C60.3516-52.6367 60.8887-51.9531 61.7676-51.9531ZM74.2188-45.8984L74.2188-48.9258L61.8164-48.9258C60.9375-48.9258 60.3516-48.3398 60.3516-47.4609C60.3516-46.582 60.8887-45.8984 61.7676-45.8984ZM74.2188-39.7949L74.2188-42.8711L61.8164-42.8711C60.9375-42.8711 60.3516-42.2363 60.3516-41.2598C60.3516-40.5273 60.8887-39.7949 61.7676-39.7949ZM74.2188-33.7891L74.2188-36.7188L55.7129-36.7188C54.8828-36.7188 54.248-36.1816 54.248-35.2539C54.248-34.375 54.834-33.7891 55.6641-33.7891ZM74.2188-27.5879L74.2188-30.6641L61.8164-30.6641C60.9375-30.6641 60.3516-30.0293 60.3516-29.1992C60.3516-28.3203 60.8887-27.5879 61.7676-27.5879ZM74.2188-21.5332L74.2188-24.5605L61.8164-24.5605C60.9375-24.5605 60.3516-23.9746 60.3516-23.0469C60.3516-22.2168 60.8887-21.5332 61.7676-21.5332ZM74.2188-15.4785L74.2188-18.5059L61.8164-18.5059C60.9375-18.5059 60.3516-17.8711 60.3516-16.9922C60.3516-16.2109 60.8887-15.4785 61.7676-15.4785ZM74.2188-9.42383L74.2188-12.4023L61.8164-12.4023C60.9375-12.4023 60.3516-11.8652 60.3516-10.9375C60.3516-10.0586 60.8887-9.42383 61.7676-9.42383ZM74.2188-3.27148L74.2188-6.34766L55.7129-6.34766C54.8828-6.34766 54.248-5.71289 54.248-4.83398C54.248-4.00391 54.834-3.27148 55.6641-3.27148Z"/>
</svg>