<svg xmlns="http://www.w3.org/2000/svg" viewBox="6.83594 -74.6582 78.86 78.81">
  <path d="M46.2402-47.998C48.9258-47.998 51.123-50.1953 51.123-52.8809C51.123-55.5664 48.9258-57.7637 46.2402-57.7637C43.5547-57.7637 41.3574-55.5664 41.3574-52.8809C41.3574-50.1953 43.5547-47.998 46.2402-47.998ZM29.6387-27.9785C33.6426-27.9785 36.9141-31.2012 36.9141-35.2539C36.9141-39.3066 33.6426-42.5293 29.6387-42.5293C25.5859-42.5293 22.3145-39.3066 22.3145-35.2539C22.3145-31.2012 25.5859-27.9785 29.6387-27.9785ZM62.8906-27.9785C66.9434-27.9785 70.2148-31.2012 70.2148-35.2539C70.2148-39.3066 66.9434-42.5293 62.8906-42.5293C58.8379-42.5293 55.6152-39.3066 55.6152-35.2539C55.6152-31.2012 58.8379-27.9785 62.8906-27.9785ZM46.2402 4.15039C68.0176 4.15039 85.6934-13.4766 85.6934-35.2539C85.6934-57.0312 68.0176-74.6582 46.2402-74.6582C24.5117-74.6582 6.83594-57.0312 6.83594-35.2539C6.83594-13.4766 24.5117 4.15039 46.2402 4.15039ZM46.2402-3.27148C28.5645-3.27148 14.3066-17.5781 14.3066-35.2539C14.3066-52.9297 28.5645-67.2363 46.2402-67.2363C63.916-67.2363 78.2227-52.9297 78.2227-35.2539C78.2227-17.5781 63.916-3.27148 46.2402-3.27148Z"/>
</svg>