<svg xmlns="http://www.w3.org/2000/svg" viewBox="9.76562 -70.8008 73.44 71.19">
  <path d="M22.2168 0.390625L70.752 0.390625C79.1016 0.390625 83.2031-3.71094 83.2031-11.9141L83.2031-58.4961C83.2031-66.6992 79.1016-70.8008 70.752-70.8008L22.2168-70.8008C13.916-70.8008 9.76562-66.6992 9.76562-58.4961L9.76562-11.9141C9.76562-3.71094 13.916 0.390625 22.2168 0.390625ZM22.3145-6.68945C18.7988-6.68945 16.7969-8.54492 16.7969-12.2559L16.7969-58.1543C16.7969-61.8164 18.7988-63.7207 22.3145-63.7207L70.6543-63.7207C74.1699-63.7207 76.1719-61.8164 76.1719-58.1543L76.1719-12.2559C76.1719-8.54492 74.1699-6.68945 70.6543-6.68945ZM44.8242-15.7715L48.0957-15.7715C49.4629-15.7715 50.3418-16.6504 50.3418-17.9688L50.3418-28.7598C50.3418-30.127 49.4629-31.0059 48.0957-31.0059L44.8242-31.0059C43.5059-31.0059 42.627-30.127 42.627-28.7598L42.627-17.9688C42.627-16.6504 43.5059-15.7715 44.8242-15.7715ZM26.5625-38.3301L28.9062-35.9863C29.8828-35.0098 31.1035-35.0098 32.0801-35.9863L41.0156-44.9219C41.9922-45.8984 41.9922-47.1191 41.0156-48.0957L38.6719-50.4395C37.7441-51.3672 36.5234-51.3672 35.5469-50.3906L26.6113-41.4551C25.6348-40.4785 25.6348-39.2578 26.5625-38.3301ZM64.0625-35.9863L66.4062-38.3301C67.334-39.2578 67.334-40.4785 66.3574-41.4551L57.4219-50.3906C56.4453-51.3672 55.2246-51.3672 54.2969-50.4395L51.9531-48.0957C50.9766-47.1191 50.9766-45.8984 51.9531-44.9219L60.8887-35.9863C61.8652-35.0098 63.0859-35.0098 64.0625-35.9863Z"/>
</svg>