<svg xmlns="http://www.w3.org/2000/svg" viewBox="9.76562 -70.9473 71.48 71.44">
  <path d="M30.7129 0.488281L60.3027 0.488281C66.9922 0.488281 72.2656-1.51367 75.7324-4.98047C79.3457-8.49609 81.25-13.7695 81.25-20.459L81.25-50C81.25-56.6895 79.3457-61.9629 75.7324-65.4785C72.2168-68.9941 66.9922-70.9473 60.3027-70.9473L30.7129-70.9473C24.0234-70.9473 18.7012-68.9453 15.2344-65.4785C11.6699-61.9629 9.76562-56.6895 9.76562-50L9.76562-20.459C9.76562-13.7695 11.6699-8.49609 15.2344-4.98047C18.7012-1.51367 24.0234 0.488281 30.7129 0.488281ZM44.5801-26.9531C42.2363-26.9531 40.9668-28.125 40.9668-30.5176C40.9668-30.6152 40.9668-30.7129 40.9668-30.7617C40.9668-34.8633 43.3105-36.9629 45.9961-38.8672C49.4141-41.2598 51.123-42.4316 51.123-45.1172C51.123-47.998 48.9258-49.9023 45.6543-49.9023C43.457-49.9023 41.6504-49.0723 39.9414-46.9727L39.1113-45.8984C38.2324-44.9219 37.3047-44.1895 35.791-44.1895C34.3262-44.1895 32.666-45.2637 32.666-47.2656C32.666-47.998 32.8613-48.6816 33.1055-49.3652C34.3262-52.9297 38.916-56.0059 45.9473-56.0059C52.832-56.0059 59.082-52.4902 59.082-45.459C59.082-40.4785 56.0547-38.1348 52.2461-35.6934C49.6094-33.9355 48.2422-32.5684 48.2422-30.4199C48.2422-30.3223 48.2422-30.2246 48.2422-30.127C48.2422-28.3691 46.875-26.9531 44.5801-26.9531ZM44.4824-14.7949C42.041-14.7949 39.8438-16.748 39.8438-19.2383C39.8438-21.7285 41.9922-23.7305 44.4824-23.7305C47.0215-23.7305 49.1699-21.7773 49.1699-19.2383C49.1699-16.6992 46.9727-14.7949 44.4824-14.7949Z"/>
</svg>