<svg xmlns="http://www.w3.org/2000/svg" viewBox="9.76562 -76.0254 81.84 81.64">
  <path d="M40.7715 5.61523L79.1504 5.61523C87.5 5.61523 91.6016 1.5625 91.6016-6.64062L91.6016-45.4102C91.6016-53.6133 87.5-57.666 79.1504-57.666L69.3359-57.666L69.3359-50.6348L79.0527-50.6348C82.5684-50.6348 84.5703-48.7305 84.5703-45.0195L84.5703-7.03125C84.5703-3.32031 82.5684-1.41602 79.0527-1.41602L40.8691-1.41602C37.3535-1.41602 35.3516-3.32031 35.3516-7.03125L35.3516-16.0156L28.3203-16.0156L28.3203-6.64062C28.3203 1.5625 32.4707 5.61523 40.7715 5.61523ZM22.2168-12.7441L60.5957-12.7441C68.9453-12.7441 73.0469-16.7969 73.0469-25L73.0469-63.7695C73.0469-71.9727 68.9453-76.0254 60.5957-76.0254L22.2168-76.0254C13.916-76.0254 9.76562-71.9727 9.76562-63.7695L9.76562-25C9.76562-16.7969 13.916-12.7441 22.2168-12.7441ZM22.3145-19.7754C18.7988-19.7754 16.7969-21.6797 16.7969-25.3906L16.7969-63.3789C16.7969-67.0898 18.7988-68.9941 22.3145-68.9941L60.498-68.9941C64.0137-68.9941 66.0156-67.0898 66.0156-63.3789L66.0156-25.3906C66.0156-21.6797 64.0137-19.7754 60.498-19.7754ZM31.543-26.7578C33.8867-26.7578 35.1074-28.2227 35.1074-30.6641L35.1074-39.4043L41.6992-39.4043L48.0957-29.0527C49.1211-27.3926 50-26.7578 51.5137-26.7578C53.418-26.7578 54.6875-27.9785 54.6875-29.7363C54.6875-30.6641 54.4922-31.3965 53.9551-32.1777L48.584-40.4297C52.9785-42.041 55.8594-46.0938 55.8594-50.8301C55.8594-57.9102 50.7812-62.4023 42.6758-62.4023L31.543-62.4023C29.2969-62.4023 28.125-60.791 28.125-58.4473L28.125-30.6641C28.125-28.3203 29.2969-26.7578 31.543-26.7578ZM35.1074-44.3848L35.1074-57.1289L41.748-57.1289C46.0449-57.1289 48.9746-54.834 48.9746-50.6348C48.9746-46.5332 46.1426-44.3848 41.5527-44.3848Z"/>
</svg>