<svg xmlns="http://www.w3.org/2000/svg" viewBox="9.76562 -79.541 104.49 88.57">
  <path d="M22.2168-40.2832L49.5605-40.2832C57.8613-40.2832 62.0117-44.3848 62.0117-52.5391L62.0117-67.2363C62.0117-75.4395 57.8613-79.541 49.5605-79.541L22.2168-79.541C13.916-79.541 9.76562-75.4395 9.76562-67.2363L9.76562-52.5391C9.76562-44.3359 13.916-40.2832 22.2168-40.2832ZM22.3145-47.3145C18.7988-47.3145 16.7969-49.2188 16.7969-52.9297L16.7969-66.8945C16.7969-70.6055 18.7988-72.5098 22.3145-72.5098L49.4629-72.5098C52.9785-72.5098 54.9805-70.6055 54.9805-66.8945L54.9805-52.9297C54.9805-49.2188 52.9785-47.3145 49.4629-47.3145ZM74.4629 9.0332L101.807 9.0332C110.107 9.0332 114.258 4.93164 114.258-3.27148L114.258-17.9688C114.258-26.123 110.107-30.2246 101.807-30.2246L74.4629-30.2246C66.1621-30.2246 62.0117-26.1719 62.0117-17.9688L62.0117-3.27148C62.0117 4.93164 66.1621 9.0332 74.4629 9.0332ZM74.5605 2.00195C71.0449 2.00195 69.043 0.0976562 69.043-3.61328L69.043-17.5781C69.043-21.2891 71.0449-23.1934 74.5605-23.1934L101.709-23.1934C105.225-23.1934 107.227-21.2891 107.227-17.5781L107.227-3.61328C107.227 0.0976562 105.225 2.00195 101.709 2.00195ZM92.5781-36.8164C93.7988-35.1562 95.2148-35.2051 96.4844-36.8164L103.711-46.5332C105.469-48.877 104.785-51.1719 101.66-51.1719L96.7773-51.1719L96.7773-52.002C96.7773-62.7441 89.4043-69.9219 78.4668-69.9219L72.998-69.9219C71.5332-69.9219 70.3125-68.7012 70.3125-67.2363C70.3125-65.7715 71.5332-64.5508 72.998-64.5508L78.418-64.5508C86.4258-64.5508 91.7969-59.5215 91.7969-51.9531L91.7969-51.1719L87.3535-51.1719C84.3262-51.1719 83.6914-48.877 85.4004-46.5332ZM45.5566-0.585938L51.0254-0.585938C52.4902-0.585938 53.7109-1.80664 53.7109-3.27148C53.7109-4.73633 52.4902-5.95703 51.0254-5.95703L45.5566-5.95703C37.5977-5.95703 32.2266-10.9863 32.2266-18.5547L32.2266-19.3359L36.6211-19.3359C39.6484-19.3359 40.332-21.6309 38.623-23.9746L31.4453-33.6914C30.1758-35.3516 28.8086-35.3027 27.5391-33.6914L20.3125-23.9746C18.5547-21.6309 19.2383-19.3359 22.3633-19.3359L27.2461-19.3359L27.2461-18.5059C27.2461-7.76367 34.5703-0.585938 45.5566-0.585938Z"/>
</svg>