<svg xmlns="http://www.w3.org/2000/svg" viewBox="9.76562 -70.8008 83.45 71.19">
  <path d="M17.5781-38.2812L25.6348-38.2812C30.8594-38.2812 33.4473-40.918 33.4473-46.2891L33.4473-62.793C33.4473-68.1641 30.8594-70.8008 25.6348-70.8008L17.5781-70.8008C12.3535-70.8008 9.76562-68.1641 9.76562-62.793L9.76562-46.2891C9.76562-40.918 12.3535-38.2812 17.5781-38.2812ZM47.4609-38.2812L55.5176-38.2812C60.7422-38.2812 63.3301-40.918 63.3301-46.2891L63.3301-62.793C63.3301-68.1641 60.7422-70.8008 55.5176-70.8008L47.4609-70.8008C42.2363-70.8008 39.6484-68.1641 39.6484-62.793L39.6484-46.2891C39.6484-40.918 42.2363-38.2812 47.4609-38.2812ZM77.3438-38.2812L85.4492-38.2812C90.625-38.2812 93.2129-40.918 93.2129-46.2891L93.2129-62.793C93.2129-68.1641 90.625-70.8008 85.4492-70.8008L77.3438-70.8008C72.1191-70.8008 69.5312-68.1641 69.5312-62.793L69.5312-46.2891C69.5312-40.918 72.1191-38.2812 77.3438-38.2812ZM17.5781 0.390625L25.6348 0.390625C30.8594 0.390625 33.4473-2.24609 33.4473-7.61719L33.4473-24.1211C33.4473-29.4922 30.8594-32.0801 25.6348-32.0801L17.5781-32.0801C12.3535-32.0801 9.76562-29.4922 9.76562-24.1211L9.76562-7.61719C9.76562-2.24609 12.3535 0.390625 17.5781 0.390625ZM47.4609 0.390625L55.5176 0.390625C60.7422 0.390625 63.3301-2.24609 63.3301-7.61719L63.3301-24.1211C63.3301-29.4922 60.7422-32.0801 55.5176-32.0801L47.4609-32.0801C42.2363-32.0801 39.6484-29.4922 39.6484-24.1211L39.6484-7.61719C39.6484-2.24609 42.2363 0.390625 47.4609 0.390625ZM77.3438 0.390625L85.4492 0.390625C90.625 0.390625 93.2129-2.24609 93.2129-7.61719L93.2129-24.1211C93.2129-29.4922 90.625-32.0801 85.4492-32.0801L77.3438-32.0801C72.1191-32.0801 69.5312-29.4922 69.5312-24.1211L69.5312-7.61719C69.5312-2.24609 72.1191 0.390625 77.3438 0.390625Z"/>
</svg>