<svg xmlns="http://www.w3.org/2000/svg" viewBox="9.76562 -72.3633 87.6 74.02">
  <path d="M16.748-50.3418L90.4297-50.3418C94.7754-50.3418 97.3633-53.0273 97.3633-57.5195L97.3633-65.1855C97.3633-69.6777 94.7754-72.3633 90.4297-72.3633L16.748-72.3633C12.3535-72.3633 9.76562-69.6777 9.76562-65.1855L9.76562-57.5195C9.76562-53.0273 12.3535-50.3418 16.748-50.3418ZM16.748 1.66016L90.4297 1.66016C94.7754 1.66016 97.3633-0.976562 97.3633-5.46875L97.3633-13.1836C97.3633-17.6758 94.7754-20.3125 90.4297-20.3125L16.748-20.3125C12.3535-20.3125 9.76562-17.6758 9.76562-13.1836L9.76562-5.46875C9.76562-0.976562 12.3535 1.66016 16.748 1.66016ZM17.5781-4.29688C16.4062-4.29688 15.7227-4.98047 15.7227-6.25L15.7227-12.4512C15.7227-13.7207 16.4062-14.4043 17.5781-14.4043L89.5508-14.4043C90.7227-14.4043 91.4062-13.7207 91.4062-12.4512L91.4062-6.25C91.4062-4.98047 90.7227-4.29688 89.5508-4.29688ZM16.748-24.3652L90.4297-24.3652C94.7754-24.3652 97.3633-26.9531 97.3633-31.4453L97.3633-39.209C97.3633-43.7012 94.7754-46.3379 90.4297-46.3379L16.748-46.3379C12.3535-46.3379 9.76562-43.7012 9.76562-39.209L9.76562-31.4453C9.76562-26.9531 12.3535-24.3652 16.748-24.3652ZM17.5781-30.2734C16.4062-30.2734 15.7227-30.957 15.7227-32.2754L15.7227-38.4766C15.7227-39.6973 16.4062-40.3809 17.5781-40.3809L89.5508-40.3809C90.7227-40.3809 91.4062-39.6973 91.4062-38.4766L91.4062-32.2754C91.4062-30.957 90.7227-30.2734 89.5508-30.2734ZM17.5781-56.2988C16.4062-56.2988 15.7227-57.0312 15.7227-58.3496L15.7227-64.502C15.7227-65.7227 16.4062-66.4062 17.5781-66.4062L89.5508-66.4062C90.7227-66.4062 91.4062-65.7227 91.4062-64.502L91.4062-58.3496C91.4062-57.0312 90.7227-56.2988 89.5508-56.2988Z"/>
</svg>