<svg xmlns="http://www.w3.org/2000/svg" viewBox="9.76562 -76.6113 87.06 82.71">
  <path d="M15.2832-3.90625L91.3574-3.90625L91.3574-6.73828C91.3574-8.49609 90.332-9.52148 88.5254-9.52148L86.084-9.52148L86.084-49.4629L89.3555-49.4629C91.748-49.4629 93.1641-51.2207 93.1641-52.9785C93.1641-54.2969 92.3828-55.4199 90.8203-56.3965L58.2031-75.1953C56.6406-76.123 54.9316-76.6113 53.3203-76.6113C51.6602-76.6113 49.9512-76.123 48.3887-75.1953L15.7715-56.3965C14.1602-55.4199 13.4277-54.2969 13.4277-52.9785C13.4277-51.2207 14.8438-49.4629 17.2363-49.4629L20.5566-49.4629L20.5566-9.52148L18.1152-9.52148C16.3086-9.52148 15.2832-8.49609 15.2832-6.73828ZM27.1484-9.52148L27.1484-54.7363L52.002-68.6035C52.3926-68.8477 52.8809-68.9941 53.3203-68.9941C53.7109-68.9941 54.1992-68.8477 54.5898-68.6035L79.541-54.7363L79.541-9.52148ZM13.2812 6.10352L93.3105 6.10352C95.2148 6.10352 96.8262 4.49219 96.8262 2.53906C96.8262 0.634766 95.2148-0.976562 93.3105-0.976562L13.2812-0.976562C11.377-0.976562 9.76562 0.634766 9.76562 2.53906C9.76562 4.49219 11.377 6.10352 13.2812 6.10352ZM46.7773-18.2617C48.3398-18.2617 49.2676-19.2383 49.2676-20.8008L49.2676-24.2188L58.3496-24.2188C59.1797-24.2188 59.7168-24.7559 59.7168-25.6348C59.7168-26.4648 59.1797-27.002 58.3496-27.002L49.2676-27.002L49.2676-31.8359L56.0059-31.8359C63.3789-31.8359 67.334-36.9141 67.334-42.627C67.334-48.5352 63.2812-53.4668 56.1035-53.4668L46.8262-53.4668C45.3125-53.4668 44.2871-52.3926 44.2871-50.8789L44.2871-34.668L40.3809-34.668C39.502-34.668 39.0137-34.082 39.0137-33.252C39.0137-32.373 39.502-31.8359 40.3809-31.8359L44.2871-31.8359L44.2871-27.002L40.3809-27.002C39.502-27.002 39.0137-26.4648 39.0137-25.6348C39.0137-24.7559 39.502-24.2188 40.3809-24.2188L44.2871-24.2188L44.2871-20.8008C44.2871-19.2383 45.2637-18.2617 46.7773-18.2617ZM49.2676-35.9863L49.2676-49.2188L54.7852-49.2188C60.2051-49.2188 62.207-46.1426 62.207-42.627C62.207-38.2324 59.2773-35.9863 54.7852-35.9863Z"/>
</svg>