<svg xmlns="http://www.w3.org/2000/svg" viewBox="9.76562 -88.7695 84.96 107.03">
  <path d="M44.7266-3.51562L51.3184-3.51562L58.0078-81.4941C58.0566-81.8848 58.5938-81.9336 58.7402-81.5918C62.1582-73.4375 64.209-63.5742 64.209-53.8574C64.209-41.3086 60.791-28.9551 52.3438-20.8496L51.3672-13.5254C62.5488-12.4023 73.7305-12.6953 80.957-13.8672C86.8164-14.7461 89.6484-17.0898 91.6504-22.3145C93.6035-27.4902 94.4824-33.4473 94.4824-39.7949C94.4824-56.2988 87.1094-75.1465 64.502-87.0117C62.3047-88.2324 60.2051-88.7695 58.3496-88.7695C54.6387-88.7695 52.002-86.5723 51.6602-82.5195ZM66.4062-79.1992C82.373-71.0449 87.793-54.248 87.793-39.9902C87.793-34.1309 86.9141-28.7598 85.4492-24.5117C84.5703-22.0703 83.3008-20.9961 80.8105-20.5566C75.5859-19.6777 67.9199-19.2383 60.0586-19.5312C67.627-29.0527 70.8008-41.3086 70.8008-53.6621C70.8008-62.4023 69.1895-71.2402 66.4062-79.1992ZM20.4102-13.4766C29.3457-12.5 38.5254-12.5 47.4609-13.4766L48.0469-20.0684C40.332-19.0918 32.5684-19.0918 24.9512-20.0195C24.8047-20.0684 24.7559-20.166 24.8535-20.3613L51.3184-57.2754L52.3438-69.5312L17.4805-20.8984C14.8926-17.334 16.2598-13.916 20.4102-13.4766ZM19.1406 10.5957L24.4141 8.54492L21.2891 0C21.2402-0.195312 21.3379-0.439453 21.582-0.439453C41.0156-0.439453 62.4023-0.439453 81.7871-3.22266C82.0801-3.27148 82.2754-3.02734 82.1289-2.7832C80.7129 0.390625 77.2949 4.63867 71.5332 6.05469L78.3691 9.52148C83.8379 6.54297 89.0625-0.78125 89.0625-4.98047C89.0625-7.42188 87.4023-9.375 83.9355-8.88672C63.8184-6.05469 40.8691-6.05469 19.8242-6.05469C16.0645-6.05469 14.1113-3.22266 15.332 0.195312ZM50.3418 18.2617C61.0352 18.2617 62.7441 10.498 68.5059 10.498C74.4141 10.498 75.3906 18.2617 87.6465 18.2617L91.6992 18.2617C93.3594 18.2617 94.7266 16.8945 94.7266 15.1855C94.7266 13.5254 93.3594 12.1582 91.6992 12.1582L87.6465 12.1582C83.6426 12.1582 81.3965 10.498 78.5156 8.44727C76.0254 6.64062 72.8516 4.39453 68.5059 4.39453C63.9648 4.39453 60.7422 6.78711 58.252 8.64258C55.6152 10.6445 53.6133 12.1582 50.3418 12.1582C47.0215 12.1582 45.0195 10.6445 42.3828 8.64258C39.8926 6.78711 36.6699 4.39453 32.1777 4.39453C27.7832 4.39453 24.6094 6.64062 22.1191 8.44727C19.2383 10.498 16.9922 12.1582 13.0371 12.1582L12.8418 12.1582C11.1328 12.1582 9.76562 13.5254 9.76562 15.1855C9.76562 16.8945 11.1328 18.2617 12.8418 18.2617L13.0371 18.2617C25.293 18.2617 26.2695 10.498 32.1777 10.498C37.9395 10.498 39.5996 18.2617 50.3418 18.2617Z"/>
</svg>