<svg xmlns="http://www.w3.org/2000/svg" viewBox="6.83594 -74.6582 78.86 78.81">
  <path d="M46.2402 4.15039C68.0176 4.15039 85.6934-13.4766 85.6934-35.2539C85.6934-57.0312 68.0176-74.6582 46.2402-74.6582C24.5117-74.6582 6.83594-57.0312 6.83594-35.2539C6.83594-13.4766 24.5117 4.15039 46.2402 4.15039ZM46.2402-3.27148C28.5645-3.27148 14.3066-17.5781 14.3066-35.2539C14.3066-52.9297 28.5645-67.2363 46.2402-67.2363C63.916-67.2363 78.2227-52.9297 78.2227-35.2539C78.2227-17.5781 63.916-3.27148 46.2402-3.27148ZM31.5918-18.0176C35.5957-18.0176 38.8184-21.1914 38.8184-25.293C38.8184-26.6602 39.0137-27.2461 40.0391-27.7832L69.9219-43.5547C69.3359-46.4844 66.3574-47.168 61.5234-45.4102L46.4844-40.0879C44.2871-39.3066 43.2617-38.1836 42.7246-36.1816L42.3828-34.8633C42.1387-33.9355 41.6016-33.5449 40.0879-32.7148L37.8418-31.543C37.4023-31.2988 37.1582-31.25 36.8164-31.25C35.3027-31.25 34.9121-32.4707 31.5918-32.4707C27.5879-32.4707 24.4141-29.2969 24.4141-25.293C24.4141-21.2402 27.5879-18.0176 31.5918-18.0176ZM31.5918-21.2402C29.3945-21.2402 27.6367-23.0469 27.6367-25.293C27.6367-27.4902 29.3945-29.2969 31.5918-29.2969C33.7891-29.2969 35.5957-27.4902 35.5957-25.293C35.5957-23.0469 33.7891-21.2402 31.5918-21.2402ZM46.9238-34.7168C46.0938-34.7168 45.3613-35.4004 45.3613-36.2793C45.3613-37.1094 46.0938-37.793 46.9238-37.793C47.8027-37.793 48.4863-37.1094 48.4863-36.2793C48.4863-35.4004 47.7539-34.7168 46.9238-34.7168ZM43.1641-41.0645L40.332-42.5781C39.0625-43.2617 38.8184-43.75 38.8184-45.2148C38.8184-49.3164 35.5957-52.4902 31.5918-52.4902C27.5879-52.4902 24.4141-49.2676 24.4141-45.2148C24.4141-41.2109 27.5879-38.0371 31.5918-38.0371C34.9121-38.0371 35.3027-39.2578 36.8164-39.2578C37.1582-39.2578 37.4023-39.1602 37.8418-38.916L40.625-37.5C41.1621-39.0137 41.9922-40.1855 43.1641-41.0645ZM31.5918-41.2109C29.3945-41.2109 27.6367-43.0176 27.6367-45.2148C27.6367-47.4609 29.3945-49.2676 31.5918-49.2676C33.7891-49.2676 35.5957-47.4609 35.5957-45.2148C35.5957-43.0176 33.7891-41.2109 31.5918-41.2109ZM48.877-29.7363L61.5234-25.0488C66.3574-23.2422 69.3359-23.9746 69.9219-26.9531L56.8359-33.8867Z" />
</svg>