<svg xmlns="http://www.w3.org/2000/svg" viewBox="9.76562 -80.6641 109.08 90.82">
  <path d="M47.9004-32.8125L63.0859-32.8125C68.6523-32.8125 72.1191-35.2051 72.1191-40.7715L72.1191-54.9805L66.748-55.4688L66.748-41.2598C66.748-39.0625 65.3809-38.1348 63.0859-38.1348L47.9004-38.1348C45.6055-38.1348 44.1895-39.0625 44.1895-41.2598L44.1895-55.3711L38.8672-54.9316L38.8672-40.7715C38.8672-35.2051 42.334-32.8125 47.9004-32.8125ZM18.3105 10.0098L26.4648 10.0098C31.6895 10.0098 35.0586 6.25 35.0586 2.44141C35.0586 0.0976562 34.1309-2.05078 32.1777-3.22266C39.1113-6.25 43.6523-11.1328 45.2148-17.9199C50.8789-14.8438 59.082-14.3555 67.8223-15.1855C67.7734-9.76562 66.8945-2.68555 66.8945 0.634766C66.8945 6.93359 70.0684 10.1562 76.1719 10.1562L82.8125 10.1562C89.0625 10.1562 92.2363 6.25 92.2363 1.61133C92.2363-1.75781 90.8691-5.07812 86.377-7.03125C86.6699-11.1816 88.0371-18.8965 89.1602-22.3145C91.0156-27.8809 95.0195-32.2754 95.0195-40.4297C95.0195-43.6035 95.5078-45.459 96.0938-46.9238C98.584-45.5078 100.879-44.6777 103.711-44.6777C111.084-44.6777 118.848-52.2949 118.848-60.4492C118.848-64.9902 112.939-67.4805 109.766-69.5312C105.762-72.4121 103.174-76.1719 98.5352-78.0273L97.4121-71.875C100.635-70.4102 102.588-67.334 106.055-65.0391C109.717-62.4512 112.061-62.6465 112.061-59.7168C112.061-55.6641 107.715-51.5137 103.711-51.5137C101.416-51.5137 99.707-52.2949 96.5332-54.4434C94.9219-55.5176 93.2129-55.3223 92.2363-53.8086C89.209-49.3164 88.2324-45.752 88.2324-40.4297C88.2324-34.8145 85.0586-31.6406 82.6172-24.2676C81.3477-20.1172 79.4922-10.3516 79.4922-5.51758C79.4922-4.29688 79.8828-3.27148 81.4453-2.63672C85.0586-1.46484 85.4492 0.0976562 85.4492 1.17188C85.4492 2.58789 84.5703 3.17383 82.8125 3.17383L76.3672 3.17383C74.5605 3.17383 73.7793 2.29492 73.7793 0.292969C73.7793-7.12891 75.1465-17.1387 75.1465-20.7031C75.1465-22.7051 73.3887-23.7305 71.2891-23.0469C60.3516-19.2871 49.5117-21.9238 43.6035-26.709C41.6504-28.2715 39.5508-27.0996 39.5508-25.0488C39.5508-14.9414 34.8633-10.1074 24.0234-7.22656C21.5332-6.5918 21.5332-2.83203 24.0234-2.39258C26.8555-1.95312 28.2227-0.585938 28.2227 1.17188C28.2227 2.49023 27.1973 3.17383 25.6348 3.17383L19.1895 3.17383C17.5781 3.17383 16.5527 2.00195 16.5527 0.292969L16.5527-6.88477C16.5527-9.57031 17.6758-11.1328 23.3398-15.625C27.2949-18.7988 28.418-23.4375 28.418-32.7148C28.418-37.4023 29.0039-43.1641 31.1035-45.6543L25.3418-52.1484C23.6328-54.0527 26.1719-56.1523 27.7832-54.2969L33.3496-47.8516C34.0332-48.3887 35.0586-48.7305 36.4746-48.8281L68.7012-51.4648C84.082-56.4941 83.3496-62.793 87.9883-67.4805L83.9355-72.9004C75.3418-65.2832 77.2949-61.5723 67.334-58.1543L37.9883-55.7617C36.9629-55.6641 35.9375-55.6152 34.9121-55.4688L32.1777-58.7402C25.7812-66.2598 13.5254-56.9824 20.5566-48.6328L23.3887-45.2148C22.3145-41.8457 21.6309-37.5977 21.6309-32.7148C21.6309-24.5605 21.0449-22.5098 19.1406-20.9473C12.5-15.7227 9.76562-11.9629 9.76562-6.88477L9.76562 1.12305C9.76562 6.29883 13.3301 10.0098 18.3105 10.0098ZM90.3809-62.207C96.9727-62.207 100.293-73.0957 100.293-76.3672C100.293-79.1992 98.8281-80.6641 95.8008-80.6641L85.0098-80.6641C82.0312-80.6641 80.4688-79.1992 80.4688-76.3672C80.4688-73.0957 83.8867-62.207 90.3809-62.207ZM90.3809-68.0664C88.7207-68.0664 87.207-71.6797 86.7188-74.1699C86.6211-74.5117 86.8652-74.8047 87.207-74.8047L93.6035-74.8047C93.9941-74.8047 94.2383-74.5117 94.1406-74.1699C93.6035-71.6797 92.1387-68.0664 90.3809-68.0664ZM100.439-59.7168C102.1-59.7168 103.418-61.1328 103.418-62.793C103.418-64.502 102.1-65.8203 100.439-65.8203C98.6816-65.8203 97.3633-64.502 97.3633-62.793C97.3633-61.1328 98.6816-59.7168 100.439-59.7168Z"/>
</svg>