<svg xmlns="http://www.w3.org/2000/svg" viewBox="8.98438 -78.7598 137.35 87.5">
  <path d="M12.4512-34.5703L29.8828-31.9824C32.8613-31.543 33.9355-33.4473 32.7148-35.9863L25.9277-49.4629C24.9023-51.5625 22.9004-51.8066 21.2891-50.1465L10.9375-39.1602C8.98438-37.207 9.47266-35.0098 12.4512-34.5703ZM30.7129-11.7676L13.5254-7.71484C10.498-6.98242 10.3027-4.83398 12.3047-3.02734L23.4863 7.08008C25.2441 8.74023 27.0996 8.25195 28.0762 6.05469L33.7891-7.91016C34.9609-10.5469 33.5938-12.4023 30.7129-11.7676ZM24.9023-33.5449C26.0254-38.1836 18.75-39.9902 17.4805-34.6191C14.9414-23.6328 16.9922-11.7188 19.2871-3.71094C20.8984 1.9043 28.0762-0.195312 26.6113-5.41992C24.3652-13.1348 22.5098-23.877 24.9023-33.5449ZM122.705-7.61719L65.0879-40.8691C56.3965-45.8984 53.125-49.2676 49.6582-54.8828L43.2129-65.332C39.209-71.875 39.9902-76.6602 44.7266-77.9297C48.2422-78.7598 52.3438-78.2715 56.2988-75.9766C59.9609-73.877 67.3828-67.8223 70.459-66.0645C72.4121-64.9414 73.3398-64.4531 75-64.2578L76.2695-53.3203C76.4648-51.9531 77.6367-51.0254 79.1504-51.3184C80.4199-51.5625 81.2012-52.6367 81.0547-54.1504L79.9805-64.1113L85.2051-64.1602L86.3281-52.6855C86.4746-51.1719 87.6953-50.3418 89.2578-50.6836C90.5762-50.8301 91.4062-51.9531 91.2109-53.5156L90.0879-64.1602L95.2637-64.209L96.5332-52.002C96.6797-50.6836 98.0469-49.8047 99.3652-50C100.684-50.1953 101.562-51.5625 101.416-52.832L100.195-64.2578L102.246-64.209C110.986-64.209 116.748-60.2539 118.018-50.8301C118.994-43.7988 121.631-39.5508 125.635-37.2559C129.15-35.2539 131.787-34.3262 135.107-33.9355C141.943-33.1055 146.338-27.3926 142.627-20.9473L134.277-6.44531C134.18-6.25 134.033-6.10352 133.936-5.9082C130.078-4.44336 127.246-4.98047 122.705-7.61719ZM39.0625-62.6953L45.459-52.2949C49.4629-45.8008 53.418-41.8945 62.5977-36.5723L120.215-3.32031C123.389-1.46484 126.27-0.537109 130.225-1.07422C124.023 4.98047 116.992 3.56445 111.816 0.585938L59.375-29.6875C48.1445-36.1816 42.7734-41.4551 37.0605-51.0254C32.5195-58.6426 32.0801-65.2344 35.2051-70.6055C35.6445-71.4355 36.1816-72.168 36.6699-72.8516C35.6934-69.7754 36.1816-67.2852 39.0625-62.6953Z" />
</svg>