<svg xmlns="http://www.w3.org/2000/svg" viewBox="6.64062 -76.2207 81.2 81.93">
  <path d="M55.5176-58.7891L55.5176-72.6562C55.5176-74.6094 53.9062-76.2207 52.002-76.2207C50.0488-76.2207 48.4863-74.6094 48.4863-72.6562L48.4863-58.7891ZM79.2969-25.6836C84.8145-25.6836 87.8418-28.6621 87.8418-34.082L87.8418-56.0547C87.8418-61.4746 84.8145-64.4531 79.2969-64.4531L28.8086-64.4531C25.1953-64.4531 23.584-63.3789 21.5332-61.3281L11.1816-51.3672C6.64062-46.9727 6.78711-43.0176 11.1328-38.8184L21.5332-28.8086C23.584-26.8066 25.1953-25.6836 28.8574-25.6836ZM55.5176-28.0762L48.4863-28.0762L48.4863 5.61523L55.5176 5.61523ZM70.5566 2.14844C70.5566 0.244141 68.9453-1.36719 67.041-1.36719L36.9141-1.36719C34.9609-1.36719 33.3984 0.244141 33.3984 2.14844C33.3984 4.10156 34.9609 5.71289 36.9141 5.71289L67.041 5.71289C68.9453 5.71289 70.5566 4.10156 70.5566 2.14844Z"/>
</svg>