<svg xmlns="http://www.w3.org/2000/svg" viewBox="8.30078 -79.4922 88.57 88.48">
  <path d="M87.2559-69.8242C77.6367-79.4922 60.7422-78.2227 49.6094-67.0898C43.1641-60.5957 40.5273-52.6367 40.332-44.6289C40.0391-32.7148 39.0625-25.8789 28.1738-15.0391L32.4707-10.791C43.3105-21.6309 50.0977-22.4121 62.0117-22.9004C70.1172-23.2422 77.9785-25.7324 84.4727-32.2266C95.6055-43.4082 96.875-60.2051 87.2559-69.8242ZM82.6172-65.1855C90.1367-57.6172 89.3066-46.2891 79.834-36.8652C70.3125-27.3926 58.9844-26.4648 51.4648-34.0332C43.8965-41.5039 44.7754-52.9297 54.248-62.4023C63.6719-71.8262 75.0977-72.7051 82.6172-65.1855ZM46.7773-29.3945C47.7539-28.2715 48.9746-27.4414 50.1953-26.6113C46.875-26.0254 43.7012-24.9023 40.4297-22.998C42.334-26.2695 43.4082-29.4434 43.9941-32.7148C44.7754-31.4941 45.752-30.4199 46.7773-29.3945ZM10.2539 4.39453L12.8418 7.03125C14.8438 8.98438 17.7246 8.98438 19.7266 7.03125L34.8145-8.10547C36.7676-10.1074 36.7676-12.9883 34.8145-14.9414L32.2266-17.5293C30.2246-19.5312 27.3438-19.5312 25.3906-17.5293L10.2539-2.39258C8.30078-0.439453 8.30078 2.44141 10.2539 4.39453ZM43.8477-44.9707L45.8496-42.9688L73.6816-70.8008L71.6797-72.8516ZM45.8984-36.084L47.9492-34.082L82.5684-68.6523L80.6152-70.7031ZM51.416-30.5176L53.5156-28.5156L88.1348-63.1348L86.1328-65.2344ZM60.3516-28.4668L62.4023-26.416L90.2344-54.248L88.1836-56.25ZM68.1641-72.0703L89.1602-51.0742L91.1621-53.0762L70.166-74.0723ZM59.7656-70.0195L87.4023-42.334L89.502-44.3848L61.8164-72.0703ZM54.4922-64.9902L82.3242-37.0605L84.4238-39.1113L56.543-67.041ZM49.6582-60.1074L77.4902-32.2266L79.5898-34.2773L51.6602-62.207ZM44.5801-54.834L72.2656-27.1973L74.2676-29.1992L46.582-56.8848ZM42.5293-46.4844L63.5742-25.4395L65.625-27.5391L44.5801-48.5352Z"/>
</svg>