<svg xmlns="http://www.w3.org/2000/svg" viewBox="6.83594 -74.6094 78.86 78.81">
  <path d="M46.2402 4.19922C68.0176 4.19922 85.6934-13.4766 85.6934-35.2051C85.6934-56.9336 68.0176-74.6094 46.2402-74.6094C24.5117-74.6094 6.83594-56.9336 6.83594-35.2051C6.83594-13.4766 24.5117 4.19922 46.2402 4.19922ZM27.3438-16.748C24.5117-16.748 23.7305-19.3848 24.7559-21.4844L42.6758-57.373C44.2383-60.5469 48.291-60.6445 49.9512-57.2754L67.8223-21.4844C68.8965-19.3848 68.1152-16.748 65.1855-16.748ZM35.2539-20.459L42.7734-20.459L46.2891-35.4004L49.7559-20.459L57.2754-20.459L47.7539-40.1367C47.4121-40.8203 46.8262-41.1133 46.2891-41.1133C45.752-41.1133 45.1172-40.8203 44.8242-40.1367Z"/>
</svg>