<svg xmlns="http://www.w3.org/2000/svg" viewBox="2.88086 -76.416 78.86 82.32">
  <path d="M29.834-59.375L57.0801-59.375C58.6426-59.375 59.8145-58.2031 59.8145-56.6895C59.8145-55.127 58.6426-53.9062 57.0801-53.9062L35.3027-53.9062L43.6523-45.5566L57.0801-45.5566C58.6426-45.5566 59.8145-44.3848 59.8145-42.8711C59.8145-41.3086 58.6426-40.0879 57.0801-40.0879L49.1211-40.0879L74.8047-14.4043L74.8047-63.9648C74.8047-72.2656 70.752-76.416 62.5488-76.416L22.0703-76.416C18.9941-76.416 16.5039-75.7812 14.5996-74.6094ZM39.6484-26.2695L27.5879-26.2695C25.9766-26.2695 24.8047-27.4902 24.8047-28.9551C24.8047-30.5176 25.9766-31.7383 27.5879-31.7383L34.1797-31.7383L9.81445-56.0547L9.81445-6.54297C9.81445 1.80664 13.8672 5.9082 22.0703 5.9082L62.5488 5.9082C65.6738 5.9082 68.1641 5.32227 70.0684 4.15039ZM75.6836 2.7832C77.0508 4.10156 79.1504 4.10156 80.4199 2.7832C81.6895 1.46484 81.7383-0.683594 80.4199-2.00195L8.93555-73.4863C7.61719-74.8047 5.46875-74.8047 4.15039-73.4863C2.88086-72.2168 2.88086-70.0195 4.15039-68.75Z"/>
</svg>