<svg xmlns="http://www.w3.org/2000/svg" viewBox="8.44727 -84.9121 95.51 98.49">
  <path d="M16.748-36.5234C20.4102-22.8027 28.8574-14.8926 40.2832-13.8672C41.0156-16.5039 42.2852-19.4336 44.6777-21.7773C46.7773-24.0234 49.3652-25.5859 52.1484-26.4648C52.2461-29.248 52.832-31.9824 53.8574-34.4727C52.0996-32.9102 49.8535-31.7871 47.2656-31.0547C40.6738-29.2969 34.3262-31.4941 30.8594-36.8652C29.8828-38.2812 30.9082-39.5996 32.7148-39.3555C37.7441-38.8672 42.3828-40.0879 44.7754-40.7715C47.0215-41.3574 51.709-42.627 55.7129-45.459C57.2754-46.6309 58.7402-46.0449 58.6914-44.2383C58.6426-43.1641 58.4961-42.1387 58.2031-41.1621C61.5723-45.4102 66.1621-51.123 70.8496-56.4453L65.7715-75.3418C63.916-82.3242 59.1797-84.9121 52.0996-83.0566L18.2617-74.0234C11.1328-72.168 8.44727-67.5781 10.3516-60.498ZM30.1758-52.0996C27.5879-51.3672 27.1973-49.707 26.0742-49.3652C25.293-49.1211 24.5605-49.9023 24.2188-51.2695C23.291-54.3945 25.1953-57.7148 28.5156-58.5449C31.6406-59.4727 35.0586-57.5684 35.8887-54.3457C36.2305-53.0273 35.9863-52.0508 35.0586-51.8066C34.0332-51.5625 32.7637-52.7344 30.1758-52.0996ZM51.2207-57.7637C48.6328-57.1289 48.2422-55.3711 47.1191-55.0781C46.2891-54.8828 45.5566-55.5664 45.166-56.9336C44.2383-60.1074 46.2891-63.3789 49.5605-64.209C52.7344-65.0879 56.1035-63.2324 56.8848-60.0586C57.2754-58.7891 56.9824-57.7637 56.1035-57.5195C55.0293-57.2754 53.8086-58.5449 51.2207-57.7637ZM36.4746 4.83398C44.4824 12.9395 59.1797 13.5742 67.1387 5.66406C73.9258-1.07422 74.1699-9.81445 67.7246-16.2598C61.9141-22.1191 53.1738-22.5098 48.3887-17.5781C42.8223-12.0117 46.5332-6.20117 43.0664-2.7832C40.2344 0.146484 37.7441-0.927734 36.084 0.634766C34.9609 1.66016 34.8633 3.22266 36.4746 4.83398ZM68.3594-22.5098C71.582-20.2637 74.3652-16.8457 75.3906-14.0137C78.5156-15.0391 80.8594-16.8945 82.9102-19.873C83.3008-20.4102 83.6914-20.9961 84.0332-21.582C80.6641-30.4199 71.5332-36.8164 62.1094-36.9141C61.6699-36.377 61.2793-35.791 60.8887-35.2539C58.8379-32.2754 57.9102-29.4434 57.959-26.2207C60.9863-26.2207 65.1367-24.7559 68.3594-22.5098ZM89.3555-67.334C87.3047-65.5762 75.5371-54.6875 65.332-41.1133C74.4629-39.7461 82.373-34.1797 86.8164-26.0254C95.9961-41.0156 99.9512-55.8105 100.928-58.5449C103.955-67.1875 95.6543-72.6074 89.3555-67.334Z"/>
</svg>