<svg xmlns="http://www.w3.org/2000/svg" viewBox="6.83594 -77.832 86.57 85.6">
  <path d="M50.1465 2.00195C51.0254 2.00195 51.9043 1.95312 52.832 1.9043L55.1758 6.39648C55.7129 7.32422 56.6406 7.76367 57.6172 7.61719C58.6914 7.42188 59.375 6.68945 59.5703 5.61523L60.2051 0.634766C61.9629 0.0976562 63.6719-0.488281 65.332-1.2207L69.043 2.19727C69.873 2.88086 70.8496 2.97852 71.7773 2.44141C72.7051 1.95312 73.0469 0.976562 72.8516-0.0488281L71.7773-4.93164C73.291-6.00586 74.707-7.17773 76.0254-8.44727L80.6152-6.54297C81.5918-6.15234 82.6172-6.34766 83.3008-7.17773C83.9355-8.00781 83.9844-8.98438 83.4473-9.91211L80.8105-14.1113C81.8848-15.625 82.7637-17.1875 83.5938-18.8965L88.5254-18.7012C89.5996-18.6523 90.4297-19.2383 90.7715-20.2148C91.1621-21.2402 90.8691-22.168 90.0391-22.8516L86.1816-25.8301C86.6699-27.6367 87.0117-29.4922 87.207-31.3477L91.7969-32.8125C92.8223-33.1543 93.4082-33.9355 93.4082-35.0098C93.4082-36.084 92.8223-36.9141 91.7969-37.207L87.2559-38.6719C87.0605-40.5762 86.7676-42.4805 86.2793-44.2871L90.0391-47.2168C90.8691-47.9004 91.1621-48.8281 90.7715-49.8535C90.4297-50.8301 89.5996-51.3672 88.5254-51.3184L83.8379-51.1719C83.0078-52.9297 82.0312-54.5898 80.957-56.1523L83.4473-60.1074C83.9844-61.0352 83.9355-62.0117 83.252-62.8418C82.6172-63.6719 81.5918-63.8672 80.6152-63.4766L76.3184-61.7188C74.9512-63.0859 73.4375-64.3555 71.875-65.5273L72.8516-70.0195C73.0469-71.0449 72.7051-71.9727 71.7773-72.5098C70.8496-73.0469 69.873-72.9004 69.043-72.2168L65.625-69.1406C63.916-69.9219 62.0605-70.6055 60.1562-71.1426L59.5703-75.6836C59.375-76.709 58.6914-77.4902 57.6172-77.6855C56.6406-77.832 55.7129-77.3438 55.1758-76.416L53.0273-72.4121C52.0508-72.4609 51.123-72.5098 50.1465-72.5098C49.1211-72.5098 48.1934-72.4609 47.2168-72.4121L45.0684-76.416C44.5312-77.3438 43.6523-77.832 42.627-77.6855C41.5527-77.4902 40.8691-76.709 40.6738-75.6836L40.1367-71.1426C38.1836-70.6055 36.3281-69.9219 34.6191-69.1406L31.2012-72.2168C30.3711-72.9004 29.3945-73.0469 28.4668-72.5098C27.5391-71.9727 27.1973-71.0449 27.3926-70.0195L28.3691-65.5273C26.8066-64.3555 25.293-63.0859 23.9258-61.6699L19.6289-63.4766C18.6523-63.8672 17.6758-63.6719 16.9922-62.8418C16.3086-62.0605 16.2598-61.0352 16.7969-60.1074L19.2871-56.1523C18.2129-54.5898 17.2363-52.9297 16.4062-51.1719L11.7188-51.3184C10.6445-51.3672 9.81445-50.8301 9.47266-49.8535C9.08203-48.8281 9.375-47.9004 10.2539-47.2168L13.9648-44.2871C13.5254-42.4805 13.1836-40.5762 12.9883-38.6719L8.44727-37.207C7.4707-36.9141 6.83594-36.084 6.83594-35.0098C6.83594-33.9355 7.4707-33.1543 8.44727-32.8125L13.0371-31.3477C13.2324-29.4922 13.5742-27.6367 14.0625-25.8301L10.2539-22.8516C9.375-22.168 9.08203-21.2402 9.47266-20.2148C9.81445-19.2383 10.6445-18.6523 11.7188-18.7012L16.6504-18.8965C17.4805-17.1875 18.3594-15.625 19.4336-14.1113L16.7969-9.91211C16.2598-8.98438 16.3086-8.00781 16.9922-7.17773C17.6758-6.34766 18.6523-6.15234 19.6289-6.54297L24.2188-8.44727C25.5371-7.17773 27.002-6.00586 28.4668-4.93164L27.3926-0.0488281C27.1973 0.976562 27.5391 1.95312 28.4668 2.44141C29.3945 2.97852 30.3711 2.88086 31.2012 2.19727L34.9121-1.2207C36.5723-0.488281 38.2812 0.0976562 40.0391 0.634766L40.7227 5.61523C40.8691 6.68945 41.5527 7.42188 42.627 7.61719C43.6523 7.76367 44.5312 7.32422 45.0684 6.39648L47.4121 1.9043C48.3398 1.95312 49.2188 2.00195 50.1465 2.00195ZM50.1465-5.0293C33.4473-5.0293 19.873-18.5547 19.873-35.2539C19.873-51.9531 33.4473-65.4785 50.1465-65.4785C66.8457-65.4785 80.3711-51.9531 80.3711-35.2539C80.3711-18.5547 66.8457-5.0293 50.1465-5.0293Z"/>
</svg>