<svg xmlns="http://www.w3.org/2000/svg" viewBox="9.76562 -70.8008 71.14 71.19">
  <path d="M22.2168 0.390625L68.457 0.390625C76.8066 0.390625 80.9082-3.71094 80.9082-11.9141L80.9082-58.4961C80.9082-66.6992 76.8066-70.8008 68.457-70.8008L22.2168-70.8008C13.916-70.8008 9.76562-66.6992 9.76562-58.4961L9.76562-11.9141C9.76562-3.71094 13.916 0.390625 22.2168 0.390625ZM22.3145-6.68945C18.7988-6.68945 16.7969-8.59375 16.7969-12.2559L16.7969-58.1543C16.7969-61.8652 18.7988-63.7207 22.3145-63.7207L68.3594-63.7207C71.875-63.7207 73.877-61.8652 73.877-58.1543L73.877-12.2559C73.877-8.59375 71.875-6.68945 68.3594-6.68945ZM35.3516-12.7441L55.2734-12.7441C57.9102-12.7441 59.4238-14.1113 59.5215-16.7969L60.7422-46.4355L63.623-46.4355C64.5996-46.4355 65.3809-47.2656 65.4297-48.2422C65.4785-49.2188 64.5996-50.0488 63.623-50.0488L54.7363-50.0488L54.7363-52.9785C54.7363-56.2988 52.5391-58.3496 49.0723-58.3496L41.4551-58.3496C37.9883-58.3496 35.8887-56.2988 35.8887-52.9785L35.8887-50.0488L27.002-50.0488C26.0254-50.0488 25.1953-49.2188 25.1953-48.2422C25.1953-47.2656 26.0254-46.4355 27.002-46.4355L29.9316-46.4355L31.1523-16.7969C31.25-14.1113 32.7148-12.7441 35.3516-12.7441ZM38.7207-18.6523C37.8906-18.6523 37.2559-19.2383 37.2559-20.0195L36.6211-42.041C36.6211-42.8711 37.1582-43.457 38.1348-43.457C38.9648-43.457 39.5508-42.8711 39.5508-42.041L40.1367-20.0195C40.1367-19.2383 39.6484-18.6523 38.7207-18.6523ZM45.3125-18.6523C44.3848-18.6523 43.7988-19.2383 43.7988-20.0195L43.7988-42.041C43.7988-42.8711 44.3848-43.457 45.3125-43.457C46.1914-43.457 46.8262-42.8711 46.8262-42.041L46.8262-20.0195C46.8262-19.2383 46.1914-18.6523 45.3125-18.6523ZM51.8555-18.6523C50.9766-18.6523 50.4395-19.2383 50.4395-20.0195L51.0254-42.041C51.0254-42.8711 51.6602-43.457 52.4902-43.457C53.418-43.457 53.9551-42.8711 53.9551-42.041L53.3691-20.0195C53.3691-19.2383 52.6855-18.6523 51.8555-18.6523ZM40.1855-50.0488L40.1855-52.7344C40.1855-53.6621 40.8203-54.248 41.748-54.248L48.8281-54.248C49.7559-54.248 50.4395-53.6621 50.4395-52.7344L50.4395-50.0488Z" />
</svg>