<svg xmlns="http://www.w3.org/2000/svg" viewBox="5.56641 -81.6406 75.24 85.69">
  <path d="M71.5332-23.1934L73.1934-60.1562L77.2461-60.1562C79.0527-60.1562 80.4688-61.6211 80.4688-63.4277C80.4688-65.2344 79.0039-66.6992 77.2461-66.6992L60.1562-66.6992L60.1562-72.3145C60.1562-78.0762 56.3965-81.6406 50.2441-81.6406L35.9863-81.6406C29.8828-81.6406 26.123-78.0762 26.123-72.3145L26.123-68.9941L25.7812-68.9941L41.3086-53.418L41.3086-53.9062C41.7969-54.2969 42.4316-54.4922 43.1641-54.4922C44.873-54.4922 46.0449-53.4668 46.0449-51.8555L46.0449-48.6816L52.9785-41.748L53.2715-51.8555C53.2715-53.5156 54.4434-54.4922 56.0059-54.4922C57.7637-54.4922 58.8379-53.4668 58.7891-51.8555L58.3984-36.3281ZM33.0566-66.6992L33.0566-71.8262C33.0566-73.8281 34.4727-75.1465 36.5234-75.1465L49.7559-75.1465C51.7578-75.1465 53.1738-73.8281 53.1738-71.8262L53.1738-66.6992ZM25.5371 4.05273L60.8398 4.05273C64.502 4.05273 67.2852 2.58789 68.9453 0.0976562L68.9453-0.0976562L57.7148-11.3281L57.7148-10.3516C57.7148-8.69141 56.543-7.71484 54.8828-7.71484C53.1738-7.71484 52.0508-8.74023 52.0996-10.3516L52.2461-16.7969L46.0449-22.998L46.0449-10.3516C46.0449-8.74023 44.873-7.71484 43.1641-7.71484C41.5039-7.71484 40.2832-8.74023 40.2832-10.3516L40.2832-28.7598L33.5449-35.498L34.2285-10.3516C34.2773-8.74023 33.1543-7.71484 31.4453-7.71484C29.834-7.71484 28.6621-8.69141 28.6133-10.3516L27.832-41.2109L13.3301-55.7129L15.6738-5.37109C15.9668 0.488281 19.6289 4.05273 25.5371 4.05273ZM74.7559-2.39258C76.0742-1.07422 78.2227-1.07422 79.4922-2.39258C80.7617-3.71094 80.8105-5.81055 79.4922-7.12891L11.6211-75.0488C10.3027-76.3672 8.1543-76.3672 6.83594-75.0488C5.56641-73.7793 5.56641-71.582 6.83594-70.3125Z"/>
</svg>