<svg xmlns="http://www.w3.org/2000/svg" viewBox="-1.41602 -74.6582 87.11 78.81">
  <path d="M2.39258-42.8711C-0.683594-42.8711-1.41602-40.7715 0.244141-38.4277L8.93555-26.0742C10.3027-24.1699 12.3535-24.1699 13.6719-26.0742L22.3633-38.4766C23.9746-40.7715 23.2422-42.8711 20.2148-42.8711ZM85.6934-35.2539C85.6934-57.0312 68.0176-74.6582 46.2402-74.6582C24.5117-74.6582 6.88477-57.0801 6.83594-35.2051C6.88477-33.2031 8.54492-31.543 10.5469-31.543C12.5977-31.543 14.3066-33.252 14.3066-35.2539C14.3066-52.9297 28.5645-67.2363 46.2402-67.2363C63.916-67.2363 78.2227-52.9297 78.2227-35.2539C78.2227-17.5781 63.916-3.27148 46.2402-3.27148C35.791-3.27148 26.6113-8.30078 20.8496-15.8691C19.4824-17.6758 17.3828-18.2129 15.5762-17.0898C13.8184-16.0156 13.2812-13.4766 14.7949-11.5723C22.0703-2.00195 33.3008 4.15039 46.2402 4.15039C68.0176 4.15039 85.6934-13.4766 85.6934-35.2539ZM46.2402-16.6992C47.8027-16.6992 48.7305-17.627 48.7305-19.1406L48.7305-47.4609L57.7637-47.4609C59.1797-47.4609 60.1074-48.4375 60.1074-49.6582C60.1074-50.9766 59.1309-51.8555 57.7637-51.8555L34.7168-51.8555C33.3008-51.8555 32.373-50.9766 32.373-49.6582C32.373-48.3398 33.3496-47.4609 34.7168-47.4609L43.75-47.4609L43.75-19.1406C43.75-17.627 44.6777-16.6992 46.2402-16.6992ZM37.9395-31.0059C38.1836-31.0059 38.4277-31.0547 38.7207-31.1035L54.8828-37.5977C55.5664-37.8906 55.9082-38.3301 55.9082-39.0137C55.9082-39.9414 55.2734-40.3809 54.5898-40.3809C54.3457-40.3809 54.1016-40.332 53.8086-40.2344L37.5488-33.7402C36.9141-33.4473 36.5723-32.959 36.5723-32.373C36.5723-31.543 37.1094-31.0059 37.9395-31.0059ZM37.9395-23.3398C38.1836-23.3398 38.4277-23.3887 38.7207-23.4863L54.8828-29.9805C55.5664-30.2734 55.9082-30.7129 55.9082-31.3477C55.9082-32.3242 55.2734-32.7637 54.5898-32.7637C54.3457-32.7637 54.1016-32.7148 53.8086-32.6172L37.5488-26.123C36.9141-25.8301 36.5723-25.3418 36.5723-24.707C36.5723-23.9258 37.1094-23.3398 37.9395-23.3398Z" />
</svg>