<svg xmlns="http://www.w3.org/2000/svg" viewBox="6.83594 -73.9746 93.12 77.44">
  <path d="M53.418-57.2266C60.3516-57.2266 66.6992-54.834 71.7773-50.8789C72.5586-50.293 73.5352-50.3418 74.2676-51.0742L83.4473-60.2051C84.3262-61.084 84.2773-62.3535 83.3496-63.1348C75.2441-69.9219 64.7949-73.9746 53.418-73.9746C42.041-73.9746 31.543-69.9219 23.4863-63.1348C22.5586-62.3535 22.5098-61.084 23.3887-60.2051L32.5195-51.0742C33.252-50.3418 34.2773-50.293 35.1074-50.9277C40.1855-54.834 46.5332-57.2266 53.418-57.2266ZM6.83594-27.4414C6.83594-16.0156 10.9375-5.56641 17.7246 2.53906C18.5059 3.4668 19.7754 3.4668 20.6543 2.58789L30.0781-6.83594C30.6641-7.37305 30.7129-8.1543 30.1758-8.78906C25.9766-14.209 23.6328-20.5566 23.6328-27.4414C23.6328-34.3262 25.9766-40.6738 29.9316-45.7031C30.5664-46.5332 30.5664-47.5586 29.834-48.291L20.6543-57.4707C19.7754-58.3496 18.5059-58.3496 17.7246-57.4219C10.9375-49.2676 6.83594-38.8184 6.83594-27.4414ZM99.9512-27.4414C99.9512-38.8184 95.8984-49.2676 89.0625-57.4219C88.2812-58.3496 87.0117-58.3496 86.1328-57.4707L77.002-48.291C76.2695-47.5586 76.2695-46.5332 76.9043-45.7031C80.8594-40.6738 83.2031-34.3262 83.2031-27.4414C83.2031-20.5566 80.8594-14.209 76.6113-8.78906C76.123-8.1543 76.1719-7.37305 76.709-6.83594L86.1328 2.58789C87.0117 3.4668 88.2812 3.4668 89.0625 2.53906C95.8984-5.56641 99.9512-16.0156 99.9512-27.4414ZM53.3691-8.39844C54.9316-8.39844 55.8105-9.27734 55.8105-10.8398L55.8105-39.1602L64.8926-39.1602C66.3086-39.1602 67.1875-40.1367 67.1875-41.3574C67.1875-42.6758 66.2598-43.5059 64.8926-43.5059L41.7969-43.5059C40.4297-43.5059 39.4531-42.6758 39.4531-41.3574C39.4531-40.0391 40.4785-39.1602 41.7969-39.1602L50.8301-39.1602L50.8301-10.8398C50.8301-9.27734 51.8066-8.39844 53.3691-8.39844ZM45.0684-22.6562C45.2637-22.6562 45.5078-22.7051 45.8008-22.8027L62.0117-29.2969C62.6953-29.5898 62.9883-30.0293 62.9883-30.6641C62.9883-31.6406 62.4023-32.0801 61.6699-32.0801C61.4258-32.0801 61.1816-32.0312 60.8887-31.9336L44.6777-25.4395C43.9941-25.1465 43.6523-24.6582 43.6523-24.0234C43.6523-23.2422 44.2383-22.6562 45.0684-22.6562ZM45.0684-15.0391C45.2637-15.0391 45.5078-15.0879 45.8008-15.1855L62.0117-21.6797C62.6953-21.9727 62.9883-22.3633 62.9883-23.0469C62.9883-24.0234 62.4023-24.4141 61.6699-24.4141C61.4258-24.4141 61.1816-24.3652 60.8887-24.2676L44.6777-17.7734C43.9941-17.5293 43.6523-17.041 43.6523-16.4062C43.6523-15.625 44.2383-15.0391 45.0684-15.0391Z"/>
</svg>