<svg xmlns="http://www.w3.org/2000/svg" viewBox="8.78906 -76.123 82.18 81.93">
  <path d="M29.541-35.8887L29.541-21.3379L14.5996-6.34766L20.8984-0.0488281L35.5469-14.6973L50.7324-14.6973C53.125-14.6973 55.7129-15.625 57.373-17.2363L89.209-48.5352C90.9668-50.293 90.8691-53.0762 89.209-54.834C87.5-56.543 84.668-56.543 82.9102-54.834L52.4902-24.4141C51.5137-23.4375 50.293-22.9492 48.9258-22.9492L39.0137-22.9492L38.3789-23.7305L38.3789-34.6191C38.3789-35.9863 38.8672-37.207 39.8438-38.1836L69.6777-68.0664C71.4355-69.7754 71.3867-72.6074 69.6777-74.3164C68.0176-76.0742 65.1367-76.123 63.4277-74.3164L32.0801-42.4805C30.3223-40.7227 29.541-38.2324 29.541-35.8887ZM16.5039 5.81055C20.8008 5.81055 24.2676 2.29492 24.2676-1.95312C24.2676-6.25 20.8008-9.76562 16.5039-9.76562C12.2559-9.76562 8.78906-6.25 8.78906-1.95312C8.78906 2.29492 12.2559 5.81055 16.5039 5.81055Z"/>
</svg>