<svg xmlns="http://www.w3.org/2000/svg" viewBox="9.76562 -66.2598 72.56 62.06">
  <path d="M13.2324-26.7578C15.2832-26.7578 16.7969-28.3691 16.7969-30.3223L16.7969-40.1367C16.7969-42.0898 15.2832-43.75 13.2324-43.75C11.2793-43.75 9.76562-42.0898 9.76562-40.1367L9.76562-30.3223C9.76562-28.3691 11.2793-26.7578 13.2324-26.7578ZM26.3672-18.2129C28.3691-18.2129 29.9316-19.8242 29.9316-21.7285L29.9316-48.7305C29.9316-50.6348 28.3691-52.2949 26.3672-52.2949C24.3652-52.2949 22.8516-50.6348 22.8516-48.7305L22.8516-21.7285C22.8516-19.8242 24.3652-18.2129 26.3672-18.2129ZM39.4531-4.19922C41.4551-4.19922 43.0176-5.81055 43.0176-7.71484L43.0176-62.7441C43.0176-64.6484 41.4551-66.2598 39.4531-66.2598C37.5-66.2598 35.9863-64.6484 35.9863-62.7441L35.9863-7.71484C35.9863-5.81055 37.5-4.19922 39.4531-4.19922ZM52.5879-23.291C54.5898-23.291 56.1035-24.8047 56.1035-26.7578L56.1035-43.7012C56.1035-45.6543 54.5898-47.2168 52.5879-47.2168C50.5859-47.2168 49.0723-45.6543 49.0723-43.7012L49.0723-26.7578C49.0723-24.8047 50.5859-23.291 52.5879-23.291ZM65.7227-12.1582C67.6758-12.1582 69.2383-13.7695 69.2383-15.6738L69.2383-54.7852C69.2383-56.6895 67.6758-58.3496 65.7227-58.3496C63.6719-58.3496 62.207-56.6895 62.207-54.7852L62.207-15.6738C62.207-13.7695 63.6719-12.1582 65.7227-12.1582ZM78.8086-27.5391C80.8105-27.5391 82.3242-29.1504 82.3242-31.0547L82.3242-38.4766C82.3242-40.3809 80.8105-42.041 78.8086-42.041C76.8066-42.041 75.293-40.3809 75.293-38.4766L75.293-31.0547C75.293-29.1504 76.8066-27.5391 78.8086-27.5391Z" />
</svg>