<svg xmlns="http://www.w3.org/2000/svg" viewBox="6.83594 -74.6582 78.86 78.81">
  <path d="M27.1484-26.5137L65.3809-26.5137C67.5293-26.5137 69.043-28.0762 69.043-30.2246L69.043-40.3809C69.043-42.4805 67.5293-44.043 65.3809-44.043L27.1484-44.043C25.0488-44.043 23.4863-42.4805 23.4863-40.3809L23.4863-30.1758C23.4863-28.0762 25.0488-26.5137 27.1484-26.5137ZM46.2402 4.15039C68.0176 4.15039 85.6934-13.4766 85.6934-35.2539C85.6934-57.0312 68.0176-74.6582 46.2402-74.6582C24.5117-74.6582 6.83594-57.0312 6.83594-35.2539C6.83594-13.4766 24.5117 4.15039 46.2402 4.15039ZM46.2402-3.27148C28.5645-3.27148 14.3066-17.5781 14.3066-35.2539C14.3066-52.9297 28.5645-67.2363 46.2402-67.2363C63.916-67.2363 78.2227-52.9297 78.2227-35.2539C78.2227-17.5781 63.916-3.27148 46.2402-3.27148Z"/>
</svg>