<svg xmlns="http://www.w3.org/2000/svg" viewBox="9.76562 -73.4375 79.74 76.42">
  <path d="M37.5488 2.97852L61.6699 2.97852C66.1133 2.97852 68.5547 1.5625 70.9473-1.02539L86.1816-17.9688C88.8184-20.8984 89.502-22.8027 89.502-26.6602L89.502-43.7988C89.502-47.6562 88.8184-49.5605 86.1816-52.4902L70.9473-69.4336C68.5547-72.0215 66.1133-73.4375 61.6699-73.4375L37.5488-73.4375C33.1543-73.4375 30.6641-72.0215 28.3203-69.4336L13.0371-52.4902C10.4492-49.5605 9.76562-47.6562 9.76562-43.7988L9.76562-26.6602C9.76562-22.8027 10.4492-20.8984 13.0371-17.9688L28.3203-1.02539C30.6641 1.5625 33.1543 2.97852 37.5488 2.97852ZM36.7676-18.75C34.8145-18.75 33.2031-20.3613 33.2031-22.4121C33.2031-23.3398 33.5938-24.2188 34.2285-24.9023L44.5312-35.2051L34.2285-45.5078C33.5938-46.1914 33.2031-47.0703 33.2031-47.998C33.2031-50.0488 34.8145-51.5625 36.7676-51.5625C37.793-51.5625 38.5742-51.2207 39.209-50.5859L49.6094-40.2344L60.1074-50.6348C60.8398-51.3184 61.6211-51.6602 62.5488-51.6602C64.5508-51.6602 66.1621-50.0977 66.1621-48.0957C66.1621-47.1191 65.8691-46.2891 65.0879-45.5566L54.7363-35.2051L65.0391-24.9512C65.7715-24.2676 66.1133-23.3887 66.1133-22.4121C66.1133-20.3613 64.502-18.75 62.4512-18.75C61.4746-18.75 60.5469-19.0918 59.9121-19.7754L49.6094-30.127L39.3555-19.7754C38.7207-19.0918 37.793-18.75 36.7676-18.75Z"/>
</svg>