<svg xmlns="http://www.w3.org/2000/svg" viewBox="6.83594 -74.6582 78.86 78.81">
  <path d="M46.2402 4.15039C68.0176 4.15039 85.6934-13.4766 85.6934-35.2539C85.6934-57.0312 68.0176-74.6582 46.2402-74.6582C24.5117-74.6582 6.83594-57.0312 6.83594-35.2539C6.83594-13.4766 24.5117 4.15039 46.2402 4.15039ZM46.2402-3.27148C28.5645-3.27148 14.3066-17.5781 14.3066-35.2539C14.3066-52.9297 28.5645-67.2363 46.2402-67.2363C63.916-67.2363 78.2227-52.9297 78.2227-35.2539C78.2227-17.5781 63.916-3.27148 46.2402-3.27148ZM46.1914-16.9922C47.6562-16.9922 48.6816-18.0176 48.6816-19.5312L48.6816-31.8848L59.5703-49.6094C59.9609-50.2441 60.1074-50.5371 60.1074-51.2207C60.1074-52.5879 58.9844-53.4668 57.6172-53.4668C56.7383-53.4668 55.9082-52.9785 55.4199-52.0996L46.2891-36.4258L46.1426-36.4258L37.0605-52.0996C36.5723-52.9785 35.9375-53.5156 34.8145-53.5156C33.4473-53.5156 32.3242-52.6367 32.3242-51.2207C32.3242-50.7812 32.4707-50.1953 32.8613-49.5605L43.75-31.8848L43.75-19.5312C43.75-18.0176 44.7266-16.9922 46.1914-16.9922ZM34.8633-32.8613C34.8633-32.0312 35.498-31.4453 36.2793-31.4453L56.1523-31.4453C56.9824-31.4453 57.6172-32.0312 57.6172-32.8613C57.6172-33.6426 56.9824-34.2773 56.1523-34.2773L36.2793-34.2773C35.498-34.2773 34.8633-33.6426 34.8633-32.8613ZM34.8633-26.0742C34.8633-25.2441 35.498-24.6582 36.2793-24.6582L56.1523-24.6582C56.9824-24.6582 57.6172-25.2441 57.6172-26.0742C57.6172-26.9043 56.9824-27.4902 56.1523-27.4902L36.2793-27.4902C35.498-27.4902 34.8633-26.9043 34.8633-26.0742Z" />
</svg>