<svg xmlns="http://www.w3.org/2000/svg" viewBox="6.83594 -76.6353 82.77 82.76">
  <path d="M48.2173 6.12748C71.0765 6.12748 89.6102-12.4063 89.6102-35.2539C89.6102-58.1015 71.0765-76.6353 48.2173-76.6353C25.3697-76.6353 6.83594-58.1015 6.83594-35.2539C6.83594-12.4063 25.3697 6.12748 48.2173 6.12748ZM35.9724-18.9562C27.9788-18.9562 25.5144-27.4496 25.5144-35.2539C25.5144-43.0582 27.9788-51.5516 35.9724-51.5516C43.9802-51.5516 46.4074-43.0582 46.4074-35.2539C46.4074-27.4496 43.9802-18.9562 35.9724-18.9562ZM35.9724-25.0388C37.8976-25.0388 38.6822-28.7476 38.6822-35.2539C38.6822-41.7602 37.8976-45.469 35.9724-45.469C34.0845-45.469 33.2884-41.7602 33.2884-35.2539C33.2884-28.7476 34.0845-25.0388 35.9724-25.0388ZM60.488-18.9793C54.4795-18.9793 50.0904-22.423 50.0904-28.1305C50.0904-32.0889 52.5406-35.2912 55.8839-35.9605L55.8839-36.107C53.3306-36.9025 50.8947-39.2348 50.8947-43.0236C50.8947-48.5988 55.4072-51.4424 60.488-51.4424C66.0632-51.4424 70.1418-48.1736 70.1418-43.0121C70.1418-39.6769 68.0992-37.026 65.164-36.107L65.164-35.9605C68.6248-35.2281 70.9203-32.0258 70.9203-28.0932C70.9203-22.2256 66.2849-18.9793 60.488-18.9793ZM60.488-38.3328C61.9107-38.3328 62.7238-39.9102 62.7238-42.2281C62.7238-44.5088 61.9107-46.1092 60.488-46.1092C59.1257-46.1092 58.3384-44.4973 58.3384-42.2281C58.3384-39.9908 59.0911-38.3328 60.488-38.3328ZM60.488-24.3613C62.0545-24.3613 62.951-26.1197 62.951-28.7049C62.951-31.2527 62.0545-32.9881 60.488-32.9881C58.9331-32.9881 58.0855-31.2297 58.0855-28.7049C58.0855-26.1197 58.9331-24.3613 60.488-24.3613Z"/>
</svg>