<svg xmlns="http://www.w3.org/2000/svg" viewBox="6.83594 -73.7699 125.9 77.03">
  <path d="M69.8061 3.26209C91.1033 3.26209 108.322-13.9567 108.322-35.2539C108.322-56.5512 91.1033-73.7699 69.8061-73.7699C48.5203-73.7699 31.2901-56.5512 31.2901-35.2539C31.2901-13.9567 48.5203 3.26209 69.8061 3.26209ZM69.8061-9.30769C55.4943-9.30769 43.8598-20.9421 43.8598-35.2539C43.8598-49.5657 55.4943-61.2001 69.8061-61.2001C84.1178-61.2001 95.7523-49.5657 95.7523-35.2539C95.7523-20.9421 84.1178-9.30769 69.8061-9.30769ZM6.83594-35.2166C6.83594-22.4385 11.0406-10.3012 18.4761-0.464312C20.7013 2.47296 24.5745 2.63097 27.4026 0.282364C30.1704-2.04319 30.2164-5.64647 28.0259-8.66109C22.5253-16.247 19.4288-25.5019 19.4288-35.2166C19.4288-44.9801 22.5253-54.2235 28.0632-61.8209C30.2911-64.8613 30.2565-68.4273 27.4026-70.8017C24.6118-73.1503 20.7386-72.9435 18.5134-70.0435C11.0406-60.1808 6.83594-47.9947 6.83594-35.2166ZM132.739-35.2166C132.739-47.9947 128.534-60.1808 121.061-70.0435C118.836-72.9435 114.963-73.1503 112.172-70.8017C109.318-68.4273 109.284-64.8613 111.512-61.8209C117.05-54.2235 120.146-44.9801 120.146-35.2166C120.146-25.5019 117.05-16.247 111.549-8.66109C109.358-5.64647 109.404-2.04319 112.172 0.282364C115 2.63097 118.873 2.47296 121.099-0.464312C128.534-10.3012 132.739-22.4385 132.739-35.2166ZM72.491-17.6291C76.0169-17.6291 78.4056-19.5043 78.4056-23.7478L78.4056-46.76C78.4056-50.3809 75.6209-52.8787 71.6357-52.8787C69.1407-52.8787 67.1108-52.2155 64.5208-50.5356L58.8616-46.8153C57.1878-45.7328 56.3868-44.527 56.3868-42.7067C56.3868-40.4558 57.9717-38.7128 60.1969-38.7128C61.1789-38.7128 61.7676-38.8478 63.0914-39.7179L66.2434-41.8154L66.611-41.8154L66.611-23.7478C66.611-19.5043 68.9623-17.6291 72.491-17.6291Z"/>
</svg>