<svg xmlns="http://www.w3.org/2000/svg" viewBox="9.76562 -68.1401 75.06 66.62">
  <path d="M9.76562-7.76275C9.76562-4.329 12.5707-1.52396 16.0044-1.52396C19.4497-1.52396 22.2432-4.329 22.2432-7.76275L22.2432-61.8898C22.2432-65.3351 19.4497-68.1401 16.0044-68.1401C12.5707-68.1401 9.76562-65.3351 9.76562-61.8898ZM72.3475-7.76275C72.3475-4.329 75.1525-1.52396 78.5863-1.52396C82.0316-1.52396 84.8251-4.329 84.8251-7.76275L84.8251-61.8898C84.8251-65.3351 82.0316-68.1401 78.5863-68.1401C75.1525-68.1401 72.3475-65.3351 72.3475-61.8898ZM37.3823-20.3941C39.7458-20.3941 41.1788-22.0597 41.1788-24.4232L41.1788-45.2764C41.1788-48.0447 39.4386-49.5869 36.6587-49.5869C34.5163-49.5869 32.9742-48.6449 31.2224-47.3842L28.3892-45.2779C27.3984-44.5686 26.7866-43.6869 26.7866-42.452C26.7866-40.9586 27.8263-39.7955 29.3196-39.7955C30.0663-39.7955 30.5058-40.0281 31.1175-40.4934L33.4021-42.209L33.5744-42.209L33.5744-24.4232C33.5744-22.0224 35.0189-20.3941 37.3823-20.3941ZM56.8429-20.1011C64.5523-20.1011 67.5451-27.2136 67.5451-35.058C67.5451-42.842 64.5523-49.8799 56.8429-49.8799C49.0589-49.8799 46.115-42.7674 46.115-35.058C46.115-27.251 49.1451-20.1011 56.8429-20.1011ZM56.8429-26.0372C54.8804-26.0372 53.8544-29.2007 53.8544-35.058C53.8544-40.8291 54.8804-43.9438 56.8429-43.9438C58.7797-43.9438 59.843-40.8291 59.843-35.058C59.843-29.2007 58.7797-26.0372 56.8429-26.0372Z"/>
</svg>