<svg xmlns="http://www.w3.org/2000/svg" viewBox="9.76562 -72.7779 75.06 75.07">
  <path d="M24.3431 2.29311L70.2476 2.29311C79.5298 2.29311 84.8251-3.00217 84.8251-12.2498L84.8251-58.235C84.8251-67.4826 79.5298-72.7779 70.2476-72.7779L24.3431-72.7779C15.0724-72.7779 9.76562-67.4826 9.76562-58.235L9.76562-12.2498C9.76562-3.00217 15.0724 2.29311 24.3431 2.29311ZM26.0821-10.196C23.5364-10.196 22.2432-11.3169 22.2432-14.0464L22.2432-56.4383C22.2432-59.1794 23.5364-60.2888 26.0821-60.2888L68.5086-60.2888C71.0543-60.2888 72.3475-59.1794 72.3475-56.4383L72.3475-14.0464C72.3475-11.3169 71.0543-10.196 68.5086-10.196ZM41.6452-20.2828C43.5177-20.2828 45.0226-21.2966 45.0226-23.732L45.0226-25.7609L45.4369-25.7609C47.4958-25.7609 48.1279-27.0963 48.1279-28.5496C48.1279-30.2898 47.2951-31.3383 45.4742-31.3383L45.0226-31.3383L45.0226-44.9407C45.0226-48.2434 42.8572-50.0901 39.566-50.0901C35.1699-50.0901 33.8285-46.8977 32.5705-43.4403L29.0063-34.0638C28.4347-32.5156 28.1159-31.031 28.1159-29.6381C28.1159-27.1023 29.5319-25.7609 32.1796-25.7609L38.2564-25.7609L38.2564-23.732C38.2564-21.3252 39.8419-20.2828 41.6452-20.2828ZM38.4775-31.1172L33.9001-31.1172L33.9001-31.4101L38.331-44.567L38.4775-44.567ZM59.5175-20.3431C61.5134-20.3431 63.116-21.9457 63.116-23.9646L63.116-46.101C63.116-48.7317 61.525-50.1504 58.9058-50.1504C56.95-50.1504 55.597-49.3489 54.2847-48.3553L51.225-45.9994C50.1941-45.2385 49.6713-44.3596 49.6713-43.1992C49.6713-41.4332 50.8974-40.6547 52.055-40.6547C52.7271-40.6547 53.2039-40.85 53.7925-41.3037L55.8961-42.959L55.8961-23.9646C55.8961-21.9457 57.4986-20.3431 59.5175-20.3431Z" />
</svg>