<svg xmlns="http://www.w3.org/2000/svg" viewBox="9.76562 -64.9802 106.38 59.54">
  <path d="M43.0464-5.43872C46.9481-5.43872 50.0774-8.5795 50.0774-12.5158L50.0774-16.096L51.7976-16.096C55.0794-16.096 57.6403-18.6223 57.6403-21.9156C57.6403-25.1629 55.1167-27.7238 51.8349-27.7238L50.0774-27.7238L50.0774-53.6427C50.0774-60.3149 45.0532-64.9802 37.9592-64.9802C31.2952-64.9802 27.1466-60.9572 24.5105-55.7086L11.1531-30.1488C10.277-28.414 9.76562-26.4697 9.76562-24.6088C9.76562-20.1727 12.4045-16.096 18.6806-16.096L36.0154-16.096L36.0154-12.5158C36.0154-8.47578 39.2369-5.43872 43.0464-5.43872ZM36.4-27.1785L22.0282-27.1785L22.0282-27.5691L36.0094-53.6212L36.4-53.6212ZM74.4902-5.43872C78.5038-5.43872 81.7911-8.71446 81.7911-12.7281L81.7911-29.4979L101.544-29.4979L101.544-12.7281C101.544-8.71446 104.831-5.43872 108.845-5.43872C112.858-5.43872 116.145-8.71446 116.145-12.7281L116.145-57.6794C116.145-61.693 112.858-64.9802 108.845-64.9802C104.831-64.9802 101.544-61.693 101.544-57.6794L101.544-41.2349L81.7911-41.2349L81.7911-57.6794C81.7911-61.693 78.5038-64.9802 74.4902-64.9802C70.4766-64.9802 67.1893-61.693 67.1893-57.6794L67.1893-12.7281C67.1893-8.71446 70.4766-5.43872 74.4902-5.43872Z"/>
</svg>