<svg xmlns="http://www.w3.org/2000/svg" viewBox="9.76562 -72.7779 75.06 75.07">
  <path d="M24.3431 2.29311L70.2476 2.29311C79.5298 2.29311 84.8251-3.00217 84.8251-12.2498L84.8251-58.235C84.8251-67.4826 79.5298-72.7779 70.2476-72.7779L24.3431-72.7779C15.0724-72.7779 9.76562-67.4826 9.76562-58.235L9.76562-12.2498C9.76562-3.00217 15.0724 2.29311 24.3431 2.29311ZM26.0821-10.196C23.5364-10.196 22.2432-11.3169 22.2432-14.0464L22.2432-56.4383C22.2432-59.1794 23.5364-60.2888 26.0821-60.2888L68.5086-60.2888C71.0543-60.2888 72.3475-59.1794 72.3475-56.4383L72.3475-14.0464C72.3475-11.3169 71.0543-10.196 68.5086-10.196ZM47.2781-17.6291C57.0194-17.6291 63.0938-21.5672 63.0938-27.9291C63.0938-32.2748 60.0434-35.3801 55.2556-36.0094L55.2556-36.4773C59.5606-37.6377 61.6548-40.0051 61.6548-43.6414C61.6548-49.2824 56.1175-52.8787 47.3011-52.8787C38.4732-52.8787 32.9359-49.2824 32.9359-43.6414C32.9359-40.0051 35.007-37.6607 39.3467-36.4773L39.3467-36.0094C34.5357-35.3801 31.4969-32.2633 31.4969-27.9291C31.4969-21.5556 37.5367-17.6291 47.2781-17.6291ZM47.3126-25.1144C45.0302-25.1144 43.3973-26.6577 43.3973-28.8047C43.3973-30.9285 45.0417-32.558 47.3126-32.558C49.5951-32.558 51.2049-30.94 51.2049-28.8047C51.2049-26.6577 49.5721-25.1144 47.3126-25.1144ZM47.3011-39.2884C45.4784-39.2884 44.0958-40.602 44.0958-42.3467C44.0958-44.08 45.5157-45.4192 47.3011-45.4192C49.075-45.4192 50.4949-44.08 50.4949-42.3467C50.4949-40.602 49.1496-39.2884 47.3011-39.2884Z" />
</svg>