<svg xmlns="http://www.w3.org/2000/svg" viewBox="6.83594 -76.6353 82.77 82.76">
  <path d="M48.2173 6.12748C71.0765 6.12748 89.6102-12.3948 89.6102-35.2539C89.6102-58.1131 71.0765-76.6353 48.2173-76.6353C25.3697-76.6353 6.83594-58.1131 6.83594-35.2539C6.83594-12.3948 25.3697 6.12748 48.2173 6.12748ZM48.2173-6.4423C32.2948-6.4423 19.4172-19.3314 19.4172-35.2539C19.4172-51.1764 32.2948-64.0655 48.2173-64.0655C64.1398-64.0655 77.0289-51.1764 77.0289-35.2539C77.0289-19.3314 64.1398-6.4423 48.2173-6.4423ZM25.5022-36.0555C25.5022-30.5807 27.2431-25.7203 30.3802-22.4279C31.8275-20.9949 33.723-20.9345 34.886-22.3675C35.8253-23.4675 35.6788-24.9209 34.53-26.2765C32.3321-28.6554 31.1284-32.1228 31.1284-36.0555C31.1284-39.9393 32.3321-43.444 34.53-45.8602C35.6788-47.104 35.8253-48.6319 34.8976-49.6946C33.723-51.1276 31.8275-51.1276 30.3802-49.66C27.3292-46.4422 25.5022-41.3322 25.5022-36.0555ZM33.9331-36.0555C33.9331-32.8586 34.8954-29.9459 36.5244-28.1902C37.8367-26.7599 39.9275-26.7369 40.9529-28.1326C41.8318-29.2211 41.5849-30.6398 40.6226-32.142C39.9845-33.1334 39.5593-34.7019 39.5593-36.0555C39.5593-37.5094 40.0706-39.253 40.7718-40.2186C41.6968-41.5715 41.7572-42.9041 40.9529-44.0041C39.9159-45.4114 37.8367-45.3883 36.5244-43.9465C34.8581-42.1162 33.9331-39.2524 33.9331-36.0555ZM43.306-36.0555C43.306-34.335 44.1591-32.8328 45.489-31.9397L45.489-16.5524C45.489-14.7403 46.5775-13.5169 48.2058-13.5169C49.8456-13.5169 50.9341-14.6915 50.9341-16.5524L50.9341-31.9397C52.264-32.8328 53.1171-34.3465 53.1171-36.0555C53.1171-38.7926 50.9544-40.9926 48.2058-40.9926C45.4687-40.9926 43.306-38.7926 43.306-36.0555ZM56.8638-36.0555C56.8638-34.59 56.3267-32.7976 55.6513-31.9181C54.6144-30.5652 54.666-29.1838 55.4703-28.1326C56.4957-26.7369 58.5865-26.7599 59.8988-28.1902C61.5162-29.9459 62.49-32.8586 62.49-36.0555C62.49-39.2524 61.5535-42.1162 59.8988-43.9465C58.5865-45.3883 56.5072-45.4114 55.4703-44.0041C54.666-42.9041 54.7263-41.5715 55.6513-40.2186C56.3525-39.253 56.8638-37.5094 56.8638-36.0555ZM65.2947-36.0555C65.2947-32.1228 64.091-28.6554 61.8931-26.2765C60.7443-24.9209 60.5978-23.4675 61.5371-22.3675C62.7002-20.9345 64.5957-20.9949 66.0429-22.4279C69.1685-25.7203 70.9209-30.5807 70.9209-36.0555C70.9209-41.3322 69.0824-46.4422 66.0429-49.66C64.5957-51.1276 62.7002-51.1276 61.5256-49.6946C60.5978-48.6319 60.7443-47.104 61.8931-45.8602C64.091-43.444 65.2947-39.9393 65.2947-36.0555Z" />
</svg>