<svg xmlns="http://www.w3.org/2000/svg" viewBox="9.76562 -81.1948 75.38 92.01">
  <path d="M19.4879-51.0851C19.4879-40.9368 25.1656-34.3259 36.0816-31.8126L55.5634-27.271C60.9554-25.9981 63.7189-23.2834 63.7189-19.325L63.7189-14.585C63.7189-11.289 66.3747-8.64468 69.6593-8.64468C72.9065-8.64468 75.5623-11.289 75.5623-14.585L75.5623-19.325C75.5623-29.4734 69.8846-36.0843 58.9686-38.5861L39.4495-43.1392C34.1063-44.389 31.3313-47.1267 31.3313-51.0851L31.3313-55.8251C31.3313-59.0723 28.6755-61.7282 25.4282-61.7282C22.1322-61.7282 19.4879-59.0723 19.4879-55.8251ZM19.1795-49.8696L31.677-49.8696C34.5288-49.8696 36.9296-50.777 38.5321-52.3795C40.1834-54.0194 41.0909-56.3686 41.0909-59.2346L41.0909-71.7579C41.0909-74.6212 40.1461-77.0335 38.5321-78.6733C36.8923-80.2874 34.5288-81.1948 31.677-81.1948L19.1795-81.1948C16.2904-81.1948 13.9039-80.2386 12.2756-78.6733C10.7219-77.045 9.76562-74.6327 9.76562-71.7579L9.76562-59.2346C9.76562-56.3571 10.7219-53.9705 12.2756-52.3795C13.9039-50.7885 16.2904-49.8696 19.1795-49.8696ZM63.2382 10.8104L75.7358 10.8104C78.5875 10.8104 80.9883 9.90303 82.5908 8.28897C84.2422 6.66066 85.1496 4.31145 85.1496 1.44545L85.1496-11.0779C85.1496-13.9412 84.2049-16.3535 82.5908-17.9933C80.951-19.6074 78.5875-20.5148 75.7358-20.5148L63.2382-20.5148C60.3491-20.5148 57.9626-19.5586 56.3343-17.9933C54.7806-16.365 53.8244-13.9527 53.8244-11.0779L53.8244 1.44545C53.8244 4.32297 54.7806 6.70948 56.3343 8.28897C57.9626 9.8915 60.3491 10.8104 63.2382 10.8104Z" />
</svg>