<svg xmlns="http://www.w3.org/2000/svg" viewBox="6.83594 -76.6353 82.77 82.76">
  <path d="M48.2173 6.12748C71.0765 6.12748 89.6102-12.3948 89.6102-35.2539C89.6102-58.1131 71.0765-76.6353 48.2173-76.6353C25.3697-76.6353 6.83594-58.1131 6.83594-35.2539C6.83594-12.3948 25.3697 6.12748 48.2173 6.12748ZM48.2173-6.4423C32.2948-6.4423 19.4172-19.3314 19.4172-35.2539C19.4172-51.1764 32.2948-64.0655 48.2173-64.0655C64.1398-64.0655 77.0289-51.1764 77.0289-35.2539C77.0289-19.3314 64.1398-6.4423 48.2173-6.4423ZM44.416-21.125C46.1386-18.1965 50.2357-18.1362 52.0071-21.125L63.371-40.4288C65.2028-43.5268 63.5894-47.1301 59.8715-47.1301L36.5144-47.1301C32.8453-47.1301 31.206-43.5553 33.0521-40.4288Z" />
</svg>