<svg xmlns="http://www.w3.org/2000/svg" viewBox="9.76562 -78.8972 63.78 87.38">
  <path d="M73.5446 1.78026C73.5446-1.9322 70.6018-4.93529 66.8636-4.93529L16.4696-4.93529C12.7199-4.93529 9.76562-1.9322 9.76562 1.78026C9.76562 5.49272 12.7199 8.48428 16.4696 8.48428L66.8636 8.48428C70.6018 8.48428 73.5446 5.49272 73.5446 1.78026ZM16.4093-43.3351C12.6453-43.3351 9.76562-40.5932 9.76562-36.5796C9.76562-34.722 10.5293-32.9736 11.9562-31.5351L36.5058-6.97394C37.7463-5.71048 39.7789-4.93529 41.6738-4.93529C43.5687-4.93529 45.6012-5.71048 46.8417-6.97394L71.354-31.5351C72.7809-32.9736 73.5446-34.722 73.5446-36.5796C73.5446-40.5932 70.6649-43.3351 66.9009-43.3351C64.7191-43.3351 63.1342-42.3592 61.8537-41.0299L53.603-32.7134L41.6738-18.3406L29.7445-32.7134L21.4565-41.0299C20.176-42.3592 18.5911-43.3351 16.4093-43.3351ZM47.9268-17.3701L48.725-34.6022L48.725-71.4959C48.725-75.9544 45.9085-78.8972 41.6738-78.8972C37.439-78.8972 34.6225-75.9544 34.6225-71.4959L34.6225-34.6022L35.4207-17.3701C35.593-13.9106 38.2142-11.1171 41.6738-11.1171C45.1333-11.1171 47.7545-13.9106 47.9268-17.3701Z" />
</svg>