<svg xmlns="http://www.w3.org/2000/svg" viewBox="10.5608 -73.0387 78.02 75.78">
  <path d="M16.9494-36.2729L37.8846-36.2729C44.0181-36.2729 47.5759-39.8307 47.5759-45.9643L47.5759-65.7688C47.5759-69.5185 44.7105-72.1458 40.9492-72.1458C37.1994-72.1458 34.334-69.53 34.334-65.7688L34.334-65.033L35.2503-57.7516L30.547-62.7912L22.2778-71.1207C21.0116-72.3985 19.3263-73.0387 17.5433-73.0387C13.4863-73.0387 10.7355-70.1217 10.7355-66.0647C10.7355-64.3333 11.5107-62.8114 12.7396-61.571L21.095-53.2645L26.1345-48.5986L18.6666-49.5032L16.9494-49.5032C13.1881-49.5032 10.5608-46.6609 10.5608-42.8996C10.5608-39.101 13.1881-36.2729 16.9494-36.2729ZM58.1813 1.85912C61.9311 1.85912 64.785-0.756678 64.785-4.51797L64.785-5.2883L63.8687-12.5582L68.572-7.53014L76.8643 0.822491C78.1189 2.08869 79.8158 2.74044 81.5988 2.74044C85.6442 2.74044 88.4065-0.176517 88.4065-4.23351C88.4065-5.96494 87.6313-7.4868 86.4024-8.72722L78.0356-17.0568L72.996-21.7227L80.4639-20.8065L82.2041-20.8065C85.9654-20.8065 88.5812-23.6604 88.5812-27.4217C88.5812-31.2203 85.9654-34.0369 82.2041-34.0369L61.2344-34.0369C55.1009-34.0369 51.5431-30.4791 51.5431-24.3455L51.5431-4.51797C51.5431-0.768202 54.42 1.85912 58.1813 1.85912Z"/>
</svg>