<svg xmlns="http://www.w3.org/2000/svg" viewBox="9.76562 -72.5513 74.39 74.49">
  <path d="M9.76562-51.8427L22.2805-51.8427C22.4528-54.5986 23.1254-56.576 24.439-57.8895C25.7552-59.2058 27.8187-59.89 30.6635-60.0364L30.6635-72.5513C24.1924-72.4421 19.0023-70.4402 15.4582-66.8588C11.9168-63.3662 9.90058-58.2507 9.76562-51.8427ZM56.3179-60.0737L56.3179-72.5513L37.5958-72.5513L37.5958-60.0737ZM71.6448-51.8427L84.1597-51.8427C84.0247-58.2507 82.0085-63.3662 78.4556-66.8588C74.9372-70.4144 69.7329-72.4421 63.2619-72.5513L63.2619-60.0364C66.1066-59.89 68.1586-59.2173 69.4864-57.8895C70.7999-56.576 71.4725-54.5986 71.6448-51.8427ZM71.6821-25.5113L84.1597-25.5113L84.1597-44.8988L71.6821-44.8988ZM63.2619 1.94312C69.7329 1.83394 74.9372-0.193789 78.4556-3.74945C82.0085-7.24202 83.9759-12.2713 84.1597-18.5674L71.6075-18.5674C71.4725-15.9234 70.7999-14.0322 69.4864-12.7187C68.1586-11.3909 66.1066-10.7182 63.2619-10.5718ZM56.3179 1.94312L56.3179-10.5345L37.5958-10.5345L37.5958 1.94312ZM30.6635 1.94312L30.6635-10.5718C27.8187-10.7182 25.7667-11.3909 24.439-12.7187C23.1139-14.0322 22.4528-15.9234 22.3178-18.5674L9.76562-18.5674C9.94941-12.2713 11.9168-7.24202 15.4582-3.74945C19.0139-0.16801 24.1924 1.83394 30.6635 1.94312ZM9.76562-25.5113L22.2432-25.5113L22.2432-44.8988L9.76562-44.8988ZM46.9742-55.6947C43.8762-55.6947 41.4184-53.1623 41.4184-50.2366L41.4184-33.6517L42.0471-24.6822C42.2193-21.9084 44.2926-19.7523 46.9742-19.7523C49.6558-19.7523 51.729-21.9084 51.8898-24.6822L52.53-33.6517L52.53-50.2366C52.53-53.1623 50.098-55.6947 46.9742-55.6947ZM46.9742-14.8131C48.4872-14.8131 50.0146-15.3299 51.4903-16.7311L64.2142-28.9178C65.1216-29.8625 65.6499-30.8072 65.6499-32.2199C65.6499-34.8845 63.3128-36.7136 60.9466-36.7136C59.557-36.7136 58.3308-36.1107 57.4091-35.166L53.5675-31.0599L51.003-26.538L42.9454-26.538L40.3809-31.0599L36.5392-35.166C35.606-36.1107 34.3799-36.7136 32.9902-36.7136C30.6125-36.7136 28.2869-34.8845 28.2869-32.2199C28.2869-30.8072 28.8268-29.8625 29.7227-28.9178L42.458-16.7311C43.9338-15.3299 45.4611-14.8131 46.9742-14.8131Z" />
</svg>