<svg xmlns="http://www.w3.org/2000/svg" viewBox="6.83594 -76.6353 82.77 82.76">
  <path d="M48.2173 6.12748C71.0765 6.12748 89.6102-12.4063 89.6102-35.2539C89.6102-58.1015 71.0765-76.6353 48.2173-76.6353C25.3697-76.6353 6.83594-58.1015 6.83594-35.2539C6.83594-12.4063 25.3697 6.12748 48.2173 6.12748ZM31.3046-33.9592C29.0876-33.9592 27.287-35.7225 27.287-37.9395L27.287-50.5247C27.287-54.0166 29.188-55.9861 32.7974-55.9861L45.348-55.9861C47.5392-55.9861 49.3398-54.1971 49.3398-51.9686C49.3398-49.7401 47.5392-47.9883 45.348-47.9883L44.1097-47.9883L40.5801-48.6889L46.8353-43.097C48.7993-41.3683 48.6616-38.3273 46.8468-36.4752C45.0062-34.6604 41.9279-34.5369 40.225-36.4867L34.5843-42.7765L35.2964-39.2869L35.2964-37.9395C35.2964-35.7225 33.4958-33.9592 31.3046-33.9592ZM50.8628-14.4125C48.6832-14.4125 46.8826-16.2131 46.8826-18.43C46.8826-20.6586 48.6832-22.4218 50.8628-22.4218L52.1127-22.4218L55.6422-21.7097L49.3756-27.3016C47.4115-29.0303 47.5492-32.0713 49.364-33.9234C51.2162-35.7383 54.2829-35.8617 55.9859-33.9119L61.6266-27.6337L60.926-31.1232L60.926-32.4592C60.926-34.6877 62.7266-36.451 64.9062-36.451C67.1347-36.451 68.9353-34.6877 68.9353-32.4592L68.9353-19.8855C68.9353-16.382 67.0343-14.4125 63.425-14.4125Z"/>
</svg>