<svg xmlns="http://www.w3.org/2000/svg" viewBox="6.83594 -76.5865 82.77 82.76">
  <path d="M48.2173 6.17631C71.0765 6.17631 89.6102-12.3575 89.6102-35.2051C89.6102-58.0527 71.0765-76.5865 48.2173-76.5865C25.3697-76.5865 6.83594-58.0527 6.83594-35.2051C6.83594-12.3575 25.3697 6.17631 48.2173 6.17631ZM48.2173-15.4955C38.4171-15.4955 30.4208-23.5264 30.4208-33.3523C30.4208-35.6209 32.2357-37.4357 34.4554-37.4357C36.7612-37.4357 38.5876-35.6209 38.5876-33.3523C38.5876-27.9773 42.8796-23.7111 48.2173-23.7111C53.6039-23.7111 57.8586-28.0519 57.8586-33.3523C57.8586-38.1163 55.0587-41.513 50.7913-42.2964C50.6333-42.3337 50.4753-42.3221 50.3288-42.3594L51.2671-41.3695C51.7927-40.7205 52.0972-40.0858 52.0972-39.1065C52.0972-37.3948 50.7646-35.6518 48.3326-35.6518C47.1525-35.6518 46.1101-36.2662 45.4469-37.0041L39.0091-43.9038C38.2855-44.6647 37.9295-45.6094 37.9295-46.5772C37.9295-47.5592 38.2855-48.4897 39.0091-49.2764L45.4469-56.1387C46.0986-56.8651 47.1525-57.491 48.3326-57.491C50.7646-57.491 52.0972-55.7481 52.0972-54.0737C52.0972-52.8821 51.5947-52.2127 50.9314-51.3745L50.3354-50.7527C50.7173-50.7154 51.0876-50.6781 51.4579-50.6035C60.445-49.3725 66.0253-41.4969 66.0253-33.3984C66.0253-23.5264 58.0175-15.4955 48.2173-15.4955Z"/>
</svg>