<svg xmlns="http://www.w3.org/2000/svg" viewBox="9.26582 -72.666 84.45 74.9">
  <path d="M53.1438 2.23276C55.9033 2.23276 58.0111 1.17886 60.6215-1.24769L91.268-29.5368C92.859-31.0301 93.7203-33.3387 93.7203-35.2166C93.7203-37.218 92.8963-39.3658 91.3053-40.8707L60.6215-69.1164C57.767-71.7125 55.7772-72.666 53.1668-72.666C48.8942-72.666 45.6382-69.3523 45.6382-65.1143L45.6382-54.1337L45.2585-54.1337C22.1634-54.1337 9.26582-39.0625 9.26582-13.0556C9.26582-3.31304 11.8877 1.48669 16.6589 1.48669C19.8973 1.48669 22.3096 0.100387 24.334-3.84196C28.2202-10.7695 34.0569-16.0011 45.2585-16.0011L45.6382-16.0011L45.6382-5.24979C45.6382-1.01174 48.8942 2.23276 53.1438 2.23276ZM56.3658-13.1454C55.9983-13.1454 55.691-13.4526 55.691-13.8948L55.691-25.8513C55.691-26.7044 55.3262-27.0693 54.4731-27.0693L50.2639-27.0693C34.6941-27.0693 24.9382-23.809 20.0587-14.6239C19.961-14.4171 19.8749-14.3309 19.7284-14.3309C19.5934-14.3309 19.4958-14.4286 19.4958-14.6354C19.7148-32.9436 30.3984-43.3754 50.2639-43.3754L54.4731-43.3754C55.3262-43.3754 55.691-43.7403 55.691-44.5819L55.691-56.5933C55.691-57.0355 55.9983-57.3054 56.3658-57.3054C56.5727-57.3054 56.768-57.245 56.9518-57.0986L79.4339-35.831C79.6923-35.5727 79.7785-35.4377 79.7785-35.2166C79.7785-35.0328 79.6923-34.8606 79.4339-34.6022L56.9518-13.4268C56.7565-13.2431 56.5612-13.1454 56.3658-13.1454Z"/>
</svg>