<svg xmlns="http://www.w3.org/2000/svg" viewBox="6.83594 -76.5865 82.77 82.76">
  <path d="M48.2173 6.17631C71.0765 6.17631 89.6102-12.3575 89.6102-35.2051C89.6102-58.0527 71.0765-76.5865 48.2173-76.5865C25.3697-76.5865 6.83594-58.0527 6.83594-35.2051C6.83594-12.3575 25.3697 6.17631 48.2173 6.17631ZM44.3429-17.6303C42.9214-17.6303 41.8187-18.1817 40.4345-19.4797L24.2691-34.3701C23.4248-35.1772 22.9453-36.3688 22.9453-37.3738C22.9453-38.4535 23.4248-39.582 24.2691-40.3402L40.4345-55.2449C41.9279-56.6033 42.9845-57.1289 44.3314-57.1289C46.6257-57.1289 48.3198-55.3629 48.3198-53.1778L48.3198-47.3396L48.5097-47.3396C60.7401-47.3396 67.5639-39.3355 67.5639-25.6305C67.5639-20.5209 66.1309-18.0406 63.6418-18.0406C61.9307-18.0406 60.7589-18.7955 59.6161-20.8457C57.5608-24.5338 54.434-27.2588 48.5097-27.2588L48.3198-27.2588L48.3198-21.5353C48.3198-19.3502 46.6257-17.6303 44.3429-17.6303Z"/>
</svg>