<svg xmlns="http://www.w3.org/2000/svg" viewBox="6.83594 -76.6353 82.77 82.76">
  <path d="M48.2173 6.12748C71.0765 6.12748 89.6102-12.4063 89.6102-35.2539C89.6102-58.1015 71.0765-76.6353 48.2173-76.6353C25.3697-76.6353 6.83594-58.1015 6.83594-35.2539C6.83594-12.4063 25.3697 6.12748 48.2173 6.12748ZM33.205-17.5578C30.8761-17.5578 29.0097-19.4127 29.0097-21.73L29.0097-48.7778C29.0097-51.0951 30.8761-52.95 33.205-52.95C35.5108-52.95 37.3772-51.0951 37.3772-48.7778L37.3772-21.73C37.3772-19.4127 35.5108-17.5578 33.205-17.5578ZM72.1125-35.2424C72.1125-32.6151 70.2461-30.8606 67.4926-30.8606L56.9221-30.8606L51.7845-31.3719L55.6977-28.0365L58.1616-25.5929C58.9829-24.7574 59.6001-23.8127 59.6001-22.4C59.6001-20.1057 57.8571-18.3369 55.2786-18.3369C54.2593-18.3369 53.0704-18.7533 52.2607-19.6635L40.5516-32.0264C39.7934-32.8104 39.2651-33.9647 39.2651-35.2424C39.2651-36.5201 39.8165-37.6744 40.5516-38.4584L52.2607-50.807C53.1308-51.7633 54.2362-52.1824 55.2786-52.1824C57.8341-52.1824 59.6001-50.4021 59.6001-48.0447C59.6001-46.6924 59.0202-45.762 58.1616-44.9149L55.6977-42.4253L51.7961-39.1129L56.9221-39.6011L67.4926-39.6011C70.2461-39.6011 72.1125-37.8467 72.1125-35.2424Z"/>
</svg>