<svg xmlns="http://www.w3.org/2000/svg" viewBox="9.76562 -78.0574 70.26 85.68">
  <path d="M24.297 7.62417L65.4843 7.62417C74.7319 7.62417 80.0272 2.31737 80.0272-6.95331L80.0272-41.4715C80.0272-48.2228 78.919-51.7603 74.58-56.1223L58.1959-72.6102C53.9029-76.9261 50.2963-78.0574 43.7063-78.0574L24.297-78.0574C15.0494-78.0574 9.76562-72.7506 9.76562-63.4799L9.76562-6.95331C9.76562 2.32889 15.0494 7.62417 24.297 7.62417ZM26.0936-4.85341C23.3641-4.85341 22.2432-6.1466 22.2432-8.69233L22.2432-61.7409C22.2432-64.2866 23.3641-65.5798 26.1052-65.5798L39.7252-65.5798L39.7252-49.223C39.7252-41.3098 43.3949-37.6401 51.3081-37.6401L67.5381-37.6401L67.5381-8.69233C67.5381-6.1466 66.4172-4.85341 63.6877-4.85341ZM52.1008-47.4027C50.3606-47.4027 49.4763-48.2871 49.4763-50.0273L49.4763-65.0448L67.0031-47.4027ZM35.5257-23.8773C33.3087-23.8773 31.6661-22.3208 31.6661-20.2273C31.6661-19.05 32.0079-18.1941 33.0272-17.3097L41.2959-9.92881C42.3355-8.94951 43.4552-8.32081 44.931-8.32081C46.4325-8.32081 47.5638-8.94951 48.6034-9.92881L56.8605-17.3097C57.8798-18.1941 58.2216-19.05 58.2216-20.2273C58.2216-22.3208 56.5675-23.8773 54.3621-23.8773C53.3455-23.8773 52.1797-23.237 51.5822-22.4531L50.5286-21.3133L45.0205-15.0503L44.7554-15.0503L39.3591-21.3133L38.3055-22.4531C37.6823-23.237 36.568-23.8773 35.5257-23.8773ZM44.931-35.0334C42.4902-35.0334 40.4427-33.4194 40.4427-30.9155L40.4427-24.0714L41.5652-13.5861C41.9843-9.35287 47.915-9.35287 48.3226-13.5861L49.4077-24.0714L49.4077-30.9155C49.4077-33.4194 47.3976-35.0334 44.931-35.0334Z" />
</svg>