<svg xmlns="http://www.w3.org/2000/svg" viewBox="9.76562 -67.3486 76.79 63.78">
  <path d="M55.0602-3.5696C56.7198-3.5696 58.4797-4.33326 59.9182-5.7602L84.4794-30.2725C85.7313-31.5129 86.5553-33.5455 86.5553-35.4404C86.5553-37.3353 85.7313-39.3679 84.4794-40.6083L59.9182-65.158C58.4797-66.5849 56.7198-67.3486 55.0602-67.3486C50.8601-67.3486 48.1181-64.4689 48.1181-60.7049C48.1181-58.5231 49.0941-56.9381 50.4234-55.6577L58.7284-47.3696L71.5459-35.4404L58.7284-23.5112L50.4234-15.2605C49.0941-13.98 48.1181-12.3951 48.1181-10.2133C48.1181-6.44925 50.8601-3.5696 55.0602-3.5696ZM17.1784-28.3891L56.6321-28.3891L73.3135-29.2423C77.2464-29.4261 79.8473-31.7313 79.8473-35.4404C79.8473-39.1496 77.2464-41.4548 73.3135-41.6386L56.6321-42.4917L17.1784-42.4917C12.7199-42.4917 9.76562-39.6751 9.76562-35.4404C9.76562-31.2057 12.7199-28.3891 17.1784-28.3891Z" />
</svg>