<svg xmlns="http://www.w3.org/2000/svg" viewBox="6.83594 -76.6353 82.77 82.76">
  <path d="M48.2173 6.12748C71.0765 6.12748 89.6102-12.4063 89.6102-35.2539C89.6102-58.1015 71.0765-76.6353 48.2173-76.6353C25.3697-76.6353 6.83594-58.1015 6.83594-35.2539C6.83594-12.4063 25.3697 6.12748 48.2173 6.12748ZM49.2251-12.7545C35.2915-12.7545 26.0054-21.6818 26.0054-35.2193C26.0054-48.7684 35.1165-57.7764 48.7802-57.7764C61.9699-57.7764 70.7996-49.5211 70.7996-37.1988C70.7996-29.0467 66.207-23.4681 59.3283-23.4681C56.0025-23.4681 53.4865-24.798 52.5012-26.8345C51.1998-24.5511 49.0453-23.3935 46.2132-23.4308C40.3851-23.4308 36.4871-28.1705 36.4871-35.1936C36.4871-41.9209 40.2359-46.5371 45.7683-46.5371C48.422-46.5371 50.605-45.3768 51.8203-43.3897L51.8203-43.4731C51.8203-45.2073 53.2418-46.5371 55.3496-46.5371C57.7158-46.5371 59.298-44.9692 59.298-42.5915L59.298-32.1183C59.298-30.6765 59.8181-29.9814 60.821-29.9814C62.5137-29.9814 64.1941-32.5474 64.1941-37.1527C64.1941-45.7043 57.8804-51.4436 48.7687-51.4436C39.1286-51.4436 32.6915-44.8655 32.6915-35.1102C32.6915-25.2429 39.3267-19.1246 49.9433-19.1246C50.7725-19.1246 51.3569-19.2168 52.536-19.3896C53.3973-19.4242 54.5829-19.5103 55.2862-19.5103C57.1987-19.5103 58.4709-18.3127 58.4709-16.5867C58.4709-15.0357 57.6205-14.0877 56.1754-13.5275C54.4916-12.8955 51.9343-12.7545 49.2251-12.7545ZM48.0451-30.332C50.0252-30.332 51.218-31.9988 51.218-35.0531C51.218-38.0356 49.9879-39.7655 48.0566-39.7655C46.1741-39.7655 45.0274-38.0586 45.0274-35.0416C45.0274-31.9758 46.1368-30.332 48.0451-30.332Z"/>
</svg>