<svg xmlns="http://www.w3.org/2000/svg" viewBox="6.83594 -76.6353 82.77 82.76">
  <path d="M48.2173 6.12748C71.0765 6.12748 89.6102-12.4063 89.6102-35.2539C89.6102-58.1015 71.0765-76.6353 48.2173-76.6353C25.3697-76.6353 6.83594-58.1015 6.83594-35.2539C6.83594-12.4063 25.3697 6.12748 48.2173 6.12748ZM20.7007-35.7273C20.7007-37.298 21.697-38.2 23.1503-39.0301L39.481-48.6131C40.2738-49.0641 41.0463-49.2967 41.9883-49.2967C43.8004-49.2967 45.331-47.9125 45.331-45.5403L45.331-37.3068C45.7474-38.0162 46.471-38.5533 47.3757-39.0301L63.6949-48.6131C64.525-49.0641 65.309-49.2967 66.2137-49.2967C68.0631-49.2967 69.5937-47.9125 69.5937-45.5403L69.5937-25.8398C69.5937-23.4675 68.0258-22.0834 66.1764-22.0834C65.2717-22.0834 64.525-22.316 63.6949-22.767L47.3757-32.3385C46.471-32.8268 45.7847-33.4012 45.331-34.1478L45.331-25.8398C45.331-23.4675 43.763-22.0834 41.9509-22.0834C41.0463-22.0834 40.2738-22.316 39.481-22.767L23.1503-32.3385C21.697-33.1801 20.7007-34.1566 20.7007-35.7273Z"/>
</svg>