<svg xmlns="http://www.w3.org/2000/svg" viewBox="6.83594 -76.6353 82.77 82.76">
  <path d="M48.2173 6.12748C71.0765 6.12748 89.6102-12.3948 89.6102-35.2539C89.6102-58.1131 71.0765-76.6353 48.2173-76.6353C25.3697-76.6353 6.83594-58.1131 6.83594-35.2539C6.83594-12.3948 25.3697 6.12748 48.2173 6.12748ZM48.2173-6.4423C32.2948-6.4423 19.4172-19.3314 19.4172-35.2539C19.4172-51.1764 32.2948-64.0655 48.2173-64.0655C64.1398-64.0655 77.0289-51.1764 77.0289-35.2539C77.0289-19.3314 64.1398-6.4423 48.2173-6.4423ZM40.4497-51.393L67.0629-24.8171C67.4304-25.4058 67.6515-26.1552 67.6515-26.965C67.6515-29.3257 66.1257-31.0808 64.233-32.5747C62.665-33.7581 62.4236-36.4837 61.8898-39.9059C61.1695-45.9603 58.7857-50.5887 54.2666-52.2379C53.2642-54.8115 51.0554-56.4981 48.2173-56.4981C45.3677-56.4981 43.1704-54.8115 42.1566-52.2379C41.5273-51.9965 40.9583-51.7436 40.4497-51.393ZM51.8764-23.1257L34.4878-40.477C34.3441-39.5914 34.2722-38.7086 34.1976-37.7796C33.8876-35.4765 33.4482-33.5343 32.2017-32.5747C30.3089-31.0693 28.7716-29.3257 28.7716-26.965C28.7716-24.6964 30.3884-23.1257 32.8956-23.1257ZM48.2173-13.9949C52.0287-13.9949 54.8376-16.58 55.0445-19.7193L41.3902-19.7193C41.5855-16.58 44.3945-13.9949 48.2173-13.9949ZM62.7596-17.0562C63.7531-16.0999 65.3842-16.0626 66.3777-17.0562C67.3713-18.0613 67.3713-19.6693 66.3777-20.6743L33.7008-53.3397C32.7073-54.3448 31.0389-54.3448 30.0454-53.3397C29.0518-52.3462 29.0518-50.7151 30.0454-49.7216Z" />
</svg>