<svg xmlns="http://www.w3.org/2000/svg" viewBox="6.83594 -74.4553 154.64 78.55">
  <path d="M84.167 4.09674C105.873 4.09674 123.443-13.4735 123.443-35.1793C123.443-56.8851 105.873-74.4553 84.167-74.4553C62.4727-74.4553 44.9025-56.8851 44.9025-35.1793C44.9025-13.4735 62.4727 4.09674 84.167 4.09674ZM36.2878-20.3004C37.7296-22.2474 37.2929-24.5621 35.8511-26.5898C34.4345-28.5638 33.2856-32.2287 33.2856-35.2539C33.2856-38.2791 34.4345-41.944 35.8511-43.9553C37.2556-45.983 37.7296-48.2604 36.2878-50.2074C34.6364-52.3783 31.2537-52.5391 28.9078-50.0522C25.7855-46.6248 24.1796-41.116 24.1796-35.2539C24.1796-29.3918 25.7855-23.883 28.9078-20.493C31.2537-18.0061 34.6364-18.1295 36.2878-20.3004ZM23.5082-9.12753C25.0992-11.1119 24.5966-13.5242 22.8361-15.48C18.4152-20.4096 15.9419-27.5215 15.9419-35.2539C15.9419-42.949 18.3406-50.061 22.8361-54.9905C24.6339-56.9463 25.1365-59.3586 23.5082-61.343C21.7191-63.4881 18.6062-63.8984 16.0393-61.1734C10.277-55.0748 6.83594-45.2637 6.83594-35.2539C6.83594-25.1695 9.82931-15.6568 16.0393-9.29706C18.6809-6.60939 21.7564-6.94512 23.5082-9.12753ZM132.02-20.2258C133.672-18.0549 137.055-17.9314 139.4-20.4183C142.523-23.8084 144.129-29.3172 144.129-35.1793C144.129-41.0414 142.523-46.5502 139.4-49.9776C137.055-52.4645 133.672-52.3037 132.02-50.1328C130.567-48.1858 131.053-45.9084 132.457-43.8807C133.874-41.8694 135.023-38.2045 135.023-35.1793C135.023-32.1541 133.874-28.4892 132.457-26.5152C131.015-24.4875 130.567-22.1728 132.02-20.2258ZM144.8-9.05292C146.552-6.87051 149.627-6.53478 152.269-9.22245C158.479-15.5822 161.472-25.0949 161.472-35.1793C161.472-45.1891 158.031-55.0002 152.269-61.0988C149.702-63.8238 146.589-63.4135 144.8-61.2684C143.172-59.284 143.674-56.8717 145.472-54.9159C149.968-49.9863 152.366-42.8744 152.366-35.1793C152.366-27.4469 149.893-20.3349 145.472-15.4054C143.712-13.4496 143.209-11.0373 144.8-9.05292ZM61.1386-31.2154C61.1386-36.2766 65.249-40.3754 70.3101-40.3754C71.916-40.3754 73.45-39.9502 74.7398-39.1975L76.8943-41.5818L74.5879-45.7065L73.0051-45.7065C72.0746-45.7065 71.3164-46.4647 71.3164-47.3951C71.3164-48.3744 72.0746-49.1211 73.0051-49.1211L79.0143-49.1211C79.9562-49.1211 80.7517-48.3744 80.7517-47.3951C80.7517-46.5393 79.9074-45.7065 79.0143-45.7065L78.5051-45.7065L80.197-42.7131L91.053-44.1236L89.5102-47.8873L86.3961-47.8873C85.3938-47.8873 84.6586-48.6571 84.6586-49.6621C84.6586-50.6041 85.4426-51.3996 86.3961-51.3996L90.2108-51.3996C91.3108-51.3996 91.9225-50.9948 92.2643-50.067L96.3719-40.1943C96.9063-40.315 97.4752-40.3754 98.07-40.3754C103.131-40.3754 107.241-36.2766 107.241-31.2154C107.241-26.1658 103.131-22.0928 98.07-22.0928C93.0203-22.0928 88.91-26.1658 88.91-31.2154C88.91-34.4957 90.642-37.3738 93.1899-38.9594L92.6209-40.4106L85.1836-31.7437C84.3766-30.8391 83.7187-30.4973 82.3889-30.4973L79.3955-30.4973C79.0306-25.7894 75.1041-22.0928 70.3101-22.0928C65.249-22.0928 61.1386-26.1658 61.1386-31.2154ZM64.6136-31.2643C64.6136-28.1129 67.1445-25.6424 70.3216-25.6424C73.4127-25.6424 75.932-28.1129 75.932-31.2643C75.932-32.3818 75.616-33.3902 75.0213-34.3153L72.7169-31.7926C72.7543-31.6807 72.7658-31.448 72.7658-31.3016C72.7658-29.9344 71.6658-28.8459 70.3216-28.8459C68.9287-28.8459 67.8172-29.9344 67.8172-31.3016C67.8172-32.5223 68.6818-33.5334 69.9086-33.7457L72.3275-36.5037C71.7355-36.7682 71.0343-36.9235 70.3216-36.9235C67.1445-36.9235 64.6136-34.3926 64.6136-31.2643ZM92.4481-31.2643C92.4481-28.1129 94.9789-25.6424 98.0815-25.6424C101.21-25.6424 103.741-28.1129 103.741-31.2643C103.741-34.3926 101.21-36.9235 98.0815-36.9235C97.9405-36.9235 97.8483-36.9119 97.7188-36.8889L99.092-33.5592C99.9682-33.2031 100.563-32.35 100.563-31.3016C100.563-29.9344 99.4629-28.8459 98.0815-28.8459C96.6885-28.8459 95.5885-29.9344 95.5885-31.3016C95.5885-31.718 95.6746-32.0482 95.8211-32.3785L94.511-35.6539C93.2611-34.6197 92.4481-33.0512 92.4481-31.2643ZM81.9718-39.5311L84.1555-35.6609L88.5973-40.8067ZM77.5197-36.8482C78.1863-35.9863 78.758-34.906 79.051-33.8142L81.1918-33.8142L78.7668-38.216Z" />
</svg>