<svg xmlns="http://www.w3.org/2000/svg" viewBox="6.83594 -76.6353 82.77 82.76">
  <path d="M48.2173 6.12748C71.0765 6.12748 89.6102-12.4063 89.6102-35.2539C89.6102-58.1015 71.0765-76.6353 48.2173-76.6353C25.3697-76.6353 6.83594-58.1015 6.83594-35.2539C6.83594-12.4063 25.3697 6.12748 48.2173 6.12748ZM37.8273-14.0971C35.5906-14.0971 34.0287-15.7078 34.0287-18.1371L34.0287-49.8223C34.0287-53.9639 36.4525-56.3992 40.5941-56.3992L55.8521-56.3992C59.9937-56.3992 62.406-53.9639 62.406-49.8223L62.406-18.1371C62.406-15.7078 60.8556-14.0971 58.6189-14.0971C57.2978-14.0971 56.4135-14.6572 55.0484-15.9735L48.338-22.6635C48.2777-22.7612 48.157-22.7612 48.0966-22.6635L41.4236-15.9735C40.07-14.6572 39.1368-14.0971 37.8273-14.0971Z"/>
</svg>