<svg xmlns="http://www.w3.org/2000/svg" viewBox="9.76562 -84.3338 101.6 98.21">
  <path d="M15.1668-40.6923C11.8734-40.6923 9.76562-38.2861 9.76562-35.2539C9.76562-32.2332 11.8734-29.827 15.1668-29.827L38.8866-29.827C42.1799-29.827 44.2762-32.2332 44.2762-35.2539C44.2762-38.2861 42.1799-40.6923 38.8866-40.6923ZM93.2915-58.5106C93.2915-74.2188 83.9929-84.3338 69.591-84.3338C55.1891-84.3338 45.9021-74.2188 45.9021-58.5106L45.9021-54.1267L58.3424-43.188L58.3424-58.5106C58.3424-66.553 62.8176-71.8935 69.591-71.8935C76.376-71.8935 80.8397-66.553 80.8397-58.5106L80.8397-11.9456C80.8397-3.90323 76.376 1.43722 69.591 1.43722C62.8176 1.43722 58.3424-3.90323 58.3424-11.9456L58.3424-27.3056L45.9021-16.2922L45.9021-11.9456C45.9021 3.7625 55.1891 13.8775 69.591 13.8775C83.9929 13.8775 93.2915 3.7625 93.2915-11.9456ZM111.366-58.5106C111.366-74.3801 101.18-84.3338 84.9079-84.3338L69.5537-84.3338L69.5537-71.8935L84.9079-71.8935C93.4765-71.8935 98.8882-66.7259 98.8882-58.5106L98.8882-11.9456C98.8882-3.73037 93.4765 1.43722 84.9079 1.43722L69.5537 1.43722L69.5537 13.8775L84.9079 13.8775C101.18 13.8775 111.366 3.92384 111.366-11.9456ZM33.7985-23.2752C33.7985-19.0909 37.8336-17.4741 40.8346-20.142L54.7027-32.3533C56.6097-34.0162 56.6097-36.5635 54.7027-38.2264L40.8346-50.4003C37.8736-52.9937 33.7985-51.305 33.7985-47.3791Z"/>
</svg>