<svg xmlns="http://www.w3.org/2000/svg" viewBox="6.83594 -76.6353 82.77 82.76">
  <path d="M48.2173 6.12748C71.0765 6.12748 89.6102-12.4063 89.6102-35.2539C89.6102-58.1015 71.0765-76.6353 48.2173-76.6353C25.3697-76.6353 6.83594-58.1015 6.83594-35.2539C6.83594-12.4063 25.3697 6.12748 48.2173 6.12748ZM48.0423-16.392C36.9875-16.392 29.7615-23.877 29.7615-35.2715C29.7615-46.6776 36.999-54.174 48.0423-54.174C55.3089-54.174 61.3976-50.851 63.5833-45.6406C64.0255-44.7332 64.1978-43.7858 64.1978-42.7176C64.1978-39.7315 62.1564-37.9628 58.6596-37.9628C56.136-37.9628 54.8209-38.7468 53.4801-41.0438C52.3707-43.0903 50.6117-44.1624 48.2519-44.1624C44.3981-44.1624 42.0844-40.8173 42.0844-35.2715C42.0844-29.7372 44.3981-26.4036 48.2146-26.4036C50.6117-26.4036 52.3707-27.4384 53.4428-29.4103C54.6717-31.5954 56.2479-32.4913 58.6596-32.4913C62.1564-32.4913 64.1978-30.7226 64.1978-27.7365C64.1978-26.6914 64.0255-25.6836 63.5833-24.802C61.3976-19.6289 55.3835-16.392 48.0423-16.392Z"/>
</svg>