<svg xmlns="http://www.w3.org/2000/svg" viewBox="9.76562 -84.9458 70.79 95.7">
  <path d="M21.4792 1.04206L41.8745 1.04206L41.8745-84.9458L21.4792-84.9458C14.5699-84.9458 9.76562-80.0181 9.76562-72.9996L9.76562-10.9042C9.76562-3.88564 14.5699 1.04206 21.4792 1.04206ZM30.4763-34.0123C27.4238-34.0123 25.1092-36.4761 25.1092-39.2933C25.1092-42.1966 27.4238-44.6605 30.4763-44.6605C33.3681-44.6605 35.8062-42.2712 35.8062-39.2933C35.8062-36.4015 33.3681-34.0123 30.4763-34.0123ZM68.8034 1.04206C75.7127 1.04206 80.5543-3.88564 80.5543-10.9042L80.5543-72.9996C80.5543-80.0181 75.7127-84.9458 68.8034-84.9458L48.4454-84.9458L48.4454 1.04206ZM59.8809-34.0123C56.8399-34.0123 54.5137-36.4761 54.5137-39.2933C54.5137-42.1966 56.8399-44.6605 59.8809-44.6605C62.7842-44.6605 65.2108-42.2712 65.2108-39.2933C65.2108-36.4015 62.7842-34.0123 59.8809-34.0123ZM24.9421 10.7564C28.1235 10.7564 30.6329 8.2471 30.6329 5.06568L30.6329-5.34109L19.2513-5.34109L19.2513 5.06568C19.2513 8.2471 21.7492 10.7564 24.9421 10.7564ZM65.2286 10.7564C68.4216 10.7564 70.9194 8.2471 70.9194 5.06568L70.9194-5.34109L59.5494-5.34109L59.5494 5.06568C59.5494 8.2471 62.0472 10.7564 65.2286 10.7564Z"/>
</svg>