<svg xmlns="http://www.w3.org/2000/svg" viewBox="9.76562 -79.7558 107.05 89.1">
  <path d="M24.3431-10.6551L36.0901-10.6551L36.0901-23.1327L26.0821-23.1327C23.5364-23.1327 22.2432-24.2536 22.2432-26.9947L22.2432-63.4162C22.2432-66.1573 23.5364-67.2782 26.0821-67.2782L79.4849-67.2782C82.0306-67.2782 83.3238-66.1573 83.3238-63.4162L83.3238-54.9759L95.8014-54.9759L95.8014-65.2244C95.8014-74.472 90.4946-79.7558 81.2239-79.7558L24.3431-79.7558C15.0609-79.7558 9.76562-74.472 9.76562-65.2244L9.76562-25.1865C9.76562-15.9389 15.0609-10.6551 24.3431-10.6551ZM45.355 9.3456L102.236 9.3456C111.518 9.3456 116.813 4.06185 116.813-5.18578L116.813-41.2488C116.813-50.4965 111.518-55.7918 102.236-55.7918L98.3459-55.7918C95.4393-55.7918 94.3623-56.0617 92.5129-57.4838L89.1214-60.0119C86.7694-61.7873 84.1937-62.6262 80.779-62.6262L66.8118-62.6262C63.3971-62.6262 60.8214-61.7873 58.4694-60.0119L55.0894-57.4838C53.2284-56.0617 52.1515-55.7918 49.2564-55.7918L45.355-55.7918C36.0728-55.7918 30.7775-50.4965 30.7775-41.2488L30.7775-5.18578C30.7775 4.06185 36.0728 9.3456 45.355 9.3456ZM47.094-3.13198C44.5483-3.13198 43.2551-4.2529 43.2551-6.99395L43.2551-39.4522C43.2551-42.1932 44.5483-43.3026 47.094-43.3026L53.152-43.3026C56.0762-43.3026 58.1128-43.8255 59.7444-45.1044L64.3792-48.5257C66.4117-49.9845 67.4229-50.1486 69.8609-50.1486L77.7414-50.1486C80.1794-50.1486 81.179-49.9845 83.2116-48.5257L87.8464-45.1044C89.478-43.8255 91.5145-43.3026 94.4503-43.3026L100.497-43.3026C103.043-43.3026 104.336-42.1932 104.336-39.4522L104.336-6.99395C104.336-4.2529 103.043-3.13198 100.497-3.13198ZM73.8069-7.15954C83.0306-7.15954 90.5249-14.6539 90.5249-23.8891C90.5249-33.1012 83.0306-40.6071 73.8069-40.6071C64.5833-40.6071 57.0774-33.1012 57.0774-23.8891C57.0774-14.6539 64.5833-7.15954 73.8069-7.15954ZM73.8069-16.311C69.5998-16.311 66.1916-19.7078 66.1916-23.9264C66.1916-28.122 69.5998-31.5302 73.8069-31.5302C78.014-31.5302 81.4107-28.122 81.4107-23.9264C81.4107-19.7078 78.014-16.311 73.8069-16.311ZM95.7019-30.994C98.1834-30.994 100.188-33.0102 100.188-35.4659C100.188-37.9473 98.1834-39.9635 95.7019-39.9635C93.209-39.9635 91.1927-37.9473 91.1927-35.4659C91.1927-33.0102 93.209-30.994 95.7019-30.994Z"/>
</svg>