<svg xmlns="http://www.w3.org/2000/svg" viewBox="9.12813 -66.9322 162.53 63.45">
  <path d="M26.3484-30.883C28.9845-29.3266 31.8987-30.7135 31.8987-33.8922L31.8987-51.7424C31.8987-54.8722 29.0218-56.3195 26.3484-54.7257L11.6666-45.9773C9.17696-44.507 9.12813-41.116 11.6666-39.6199ZM154.446-30.883L169.128-39.6199C171.655-41.1275 171.618-44.4955 169.128-45.9773L154.446-54.7257C151.761-56.3079 148.896-54.8722 148.896-51.7424L148.896-33.8922C148.896-30.7135 151.799-29.3381 154.446-30.883ZM55.4436-52.8984L59.6762-52.8984C62.1258-52.8984 63.2801-53.7916 64.2133-56.1232L66.5828-61.9853C67.5906-64.5062 66.1982-66.8948 63.5655-66.8948L60.6961-66.8948C58.7836-66.8948 57.1471-65.9271 56.1163-63.9373L52.8163-57.5068C51.487-54.9201 53.1778-52.8984 55.4436-52.8984ZM44.4545-29.8528L50.6484-29.8528C52.55-29.8528 54.0576-30.7975 54.7643-32.5899L58.7418-42.4805C59.675-44.8263 58.4631-47.1607 55.5346-47.1607L50.1274-47.1607C48.5018-47.1607 47.0458-46.2675 46.3249-44.8257L41.3966-35.1617C40.0442-32.4571 41.6665-29.8528 44.4545-29.8528ZM33.2756-3.478L38.6237-3.478C41.9949-3.478 43.7867-5.25826 44.6941-7.54985L49.1891-18.7282C50.2803-21.3785 48.6865-24.0289 45.4563-24.0289L39.6727-24.0289C36.901-24.0289 35.1981-23.0924 33.9347-20.6258L28.8192-10.6133C27.1366-7.3227 28.6266-3.478 33.2756-3.478ZM121.107-52.9358L125.339-52.9358C127.617-52.9358 129.296-54.9574 127.978-57.5441L124.667-63.9746C123.647-65.9644 122.011-66.9322 120.087-66.9322L117.229-66.9322C114.585-66.9322 113.204-64.5435 114.2-62.0226L116.57-56.1605C117.503-53.8289 118.669-52.9358 121.107-52.9358ZM130.135-29.8901L136.329-29.8901C139.117-29.8901 140.75-32.4944 139.386-35.199L134.458-44.863C133.737-46.3048 132.281-47.198 130.656-47.198L125.26-47.198C122.32-47.198 121.12-44.8636 122.041-42.5178L126.03-32.6272C126.725-30.8348 128.233-29.8901 130.135-29.8901ZM142.171-3.51531L147.519-3.51531C152.156-3.51531 153.658-7.36 151.964-10.6506L146.86-20.6631C145.596-23.1297 143.894-24.0662 141.122-24.0662L135.327-24.0662C132.108-24.0662 130.514-21.4158 131.594-18.7655L136.089-7.58715C137.008-5.29557 138.8-3.51531 142.171-3.51531ZM64.115-18.2826C64.115-16.6571 65.4103-15.3733 67.0359-15.3733L69.7011-15.3733C71.3382-15.3733 72.622-16.6571 72.622-18.2826L72.622-20.9227L107.934-20.9227L107.934-18.2826C107.934-16.6571 109.218-15.3733 110.892-15.3733L113.508-15.3733C115.183-15.3733 116.467-16.6571 116.467-18.2826L116.467-32.9563C116.467-37.0342 116.088-39.4064 113.916-41.8248L111.779-44.2459L109.53-50.3263C107.96-54.6654 105.28-56.2191 102.075-56.6355C100.26-56.8939 96.2388-57.0404 90.2966-57.0404C84.3544-57.0404 80.2956-56.8939 78.4808-56.6355C75.2757-56.2191 72.5962-54.6654 71.014-50.3263L68.8025-44.2459L66.6398-41.8248C64.4683-39.4064 64.115-37.0342 64.115-32.9563ZM76.8743-43.4822C75.4759-43.4822 74.6865-44.3523 75.1659-45.6158L76.3609-49.1002C76.9495-50.6681 78.0319-51.1218 79.7403-51.3802C80.8464-51.5009 84.5118-51.5728 90.2966-51.5728C96.0441-51.5728 99.698-51.5009 100.804-51.3802C102.512-51.1218 103.644-50.6681 104.184-49.1002L105.378-45.6158C105.869-44.3523 105.068-43.4822 103.67-43.4822ZM74.1942-29.7166C72.6148-29.7166 71.4517-30.8797 71.4517-32.4104L71.4517-35.5354C71.4517-37.1148 72.6148-38.2664 74.1942-38.2664C75.7364-38.2664 76.9253-37.1148 76.9253-35.5354L76.9253-32.4104C76.9253-30.8682 75.7364-29.7166 74.1942-29.7166ZM85.6695-30.742C84.3829-30.742 83.464-31.6867 83.464-33.0451L83.464-34.9121C83.464-36.2963 84.3829-37.2037 85.6695-37.2037L94.8003-37.2037C96.1357-37.2037 97.0058-36.2963 97.0058-34.9121L97.0058-33.0451C97.0058-31.6494 96.0984-30.742 94.8003-30.742ZM106.568-29.7166C105.038-29.7166 103.826-30.8797 103.826-32.4104L103.826-35.5354C103.826-37.0775 105.038-38.2664 106.568-38.2664C108.111-38.2664 109.311-37.1148 109.311-35.5354L109.311-32.4104C109.311-30.8309 108.111-29.7166 106.568-29.7166Z"/>
</svg>