<svg xmlns="http://www.w3.org/2000/svg" viewBox="9.76562 -71.5317 77.17 70.92">
  <path d="M51.5783-0.614734C60.8314-0.614734 68.077-7.84888 68.077-17.0762C68.077-26.3293 60.8314-33.5634 51.5783-33.5634C42.3625-33.5634 35.1168-26.3293 35.1168-17.0762C35.1168-7.84888 42.3625-0.614734 51.5783-0.614734ZM51.5783-11.0861C48.237-11.0861 45.5882-13.7234 45.5882-17.0762C45.5882-20.4547 48.237-23.1036 51.5783-23.1036C54.9568-23.1036 57.6057-20.4547 57.6057-17.0762C57.6057-13.7234 54.9568-11.0861 51.5783-11.0861ZM57.5496-58.2004L65.6493-51.611L73.6859-59.6965C74.8259-60.8365 75.7625-61.3648 77.7035-61.3648L81.7262-61.3648C84.8587-61.3648 86.9374-63.5296 86.9374-66.4784C86.9374-69.4157 84.8214-71.5317 81.7262-71.5317L77.5148-71.5317C72.0594-71.5317 69.7435-70.3313 66.9033-67.5284ZM9.76562-20.2482L9.76562-9.25125L40.6026-9.25125L40.6026-20.2482ZM9.76562-69.046L9.76562-57.8998C13.6055-58.6492 18.2408-58.8703 24.929-58.8703L31.3195-58.8703C40.9243-58.8703 48.4872-55.3201 58.5744-46.5283C60.6909-44.6559 62.1382-44.0184 64.9384-43.1252L68.8589-41.8557C72.1886-40.7985 73.9667-38.5266 73.9667-35.2891L73.9667-25.0291C73.9667-21.9029 72.6308-20.2482 69.9929-20.2482L62.4867-20.2482L62.4867-9.25125L69.9929-9.25125C79.7518-9.25125 84.9522-14.7446 84.9522-25.0291L84.9522-36.0352C84.9522-44.4412 80.4809-49.6252 72.138-52.6146L66.3071-54.6796C58.7333-61.2884 46.6937-69.8558 31.3195-69.8558L24.929-69.8558C18.7718-69.8558 13.9127-69.6347 9.76562-69.046Z"/>
</svg>