<svg xmlns="http://www.w3.org/2000/svg" viewBox="8.93009 -93.0055 100.48 111.92">
  <path d="M85.869-86.4449C85.8947-85.1123 85.6648-83.6562 85.1162-82.2605C84.4787-80.5867 83.5313-79.2201 82.3627-78.1262C89.4977-74.2485 95.5469-68.6387 100.011-61.8225C101.659-59.2412 104.074-58.6784 106.319-59.9045C108.576-61.1307 109.412-63.8184 107.617-66.6207C102.456-74.7349 94.8588-81.7574 85.869-86.4449ZM79.8943-71.6178C79.9201-70.2133 79.6645-68.8204 79.1301-67.3901C78.5529-65.7508 77.617-64.3585 76.3969-63.2876C80.3905-60.929 83.8755-57.7227 86.622-53.9102C88.3188-51.4639 90.7739-50.8522 93.0194-52.1157C95.4371-53.4537 95.8623-56.2391 94.3174-58.5076C90.7008-63.8535 85.7055-68.4237 79.8943-71.6178ZM59.1709-93.0055C53.1414-93.0055 47.333-92.0459 42.1105-90.4197C39.1271-89.5007 38.0474-87.0281 39.0125-84.4754C39.9545-82.0176 42.2746-81.0701 45.005-81.8799C49.4808-83.262 54.2468-84.0004 59.1709-84.0004C64.0949-84.0004 68.861-83.262 73.3368-81.8799C76.0672-81.0701 78.3873-82.0176 79.3293-84.4754C80.2944-87.0281 79.2147-89.5007 76.2313-90.4197C71.0088-92.0459 65.2004-93.0055 59.1709-93.0055ZM59.1709-77.0147C55.2756-77.0147 51.5009-76.4688 47.8843-75.5092C45.1017-74.7741 44.0105-72.1549 44.9871-69.6165C45.8687-67.2306 48.0281-66.2716 51.1573-67.021C53.5538-67.6476 56.3207-68.0097 59.1709-68.0097C62.0211-68.0097 64.7879-67.6476 67.1845-67.021C70.3137-66.2716 72.4731-67.2306 73.3547-69.6165C74.3313-72.1549 73.2401-74.7741 70.4575-75.5092C66.8408-76.4688 63.0662-77.0147 59.1709-77.0147ZM32.4728-86.4449C23.483-81.7574 15.8861-74.7349 10.7246-66.6207C8.93009-63.8184 9.76562-61.1307 12.0226-59.9045C14.2681-58.6784 16.6832-59.2412 18.3312-61.8225C22.7949-68.6387 28.8441-74.2485 35.9791-78.1262C34.8105-79.2201 33.8631-80.5867 33.2256-82.2605C32.6769-83.6562 32.4471-85.1123 32.4728-86.4449ZM38.4474-71.6178C32.6363-68.4237 27.641-63.8535 24.0244-58.5076C22.4794-56.2391 22.9046-53.4537 25.3224-52.1157C27.5679-50.8522 30.0229-51.4639 31.7198-53.9102C34.4663-57.7227 37.9513-60.929 41.9449-63.2876C40.7248-64.3585 39.7889-65.7508 39.2117-67.3901C38.6773-68.8204 38.4217-70.2133 38.4474-71.6178ZM59.1709 18.9095C74.1068 18.9095 80.9367 14.8316 80.9367 5.64374L80.9367-24.3194L82.5596-24.3194C84.8973-24.3194 86.4713-26.1173 86.4713-28.7046L86.4713-29.1018C86.4713-31.738 84.8973-33.5243 82.5596-33.5243L80.9367-33.5243L80.9367-41.1306C80.9367-50.9729 73.2443-56.1833 59.1709-56.1833C45.1463-56.1833 37.4166-50.9356 37.4166-41.1306L37.4166-33.7854L35.7937-33.7854C33.4561-33.7854 31.882-31.9991 31.882-29.363L31.882-28.9657C31.882-26.3784 33.4561-24.5805 35.7937-24.5805L37.4166-24.5805L37.4166 5.64374C37.4166 14.8316 44.2838 18.9095 59.1709 18.9095ZM59.1709-23.7477C56.2615-23.7477 52.3865-23.429 51.4697-23.429C49.0513-23.429 47.9398-24.4802 47.7445-26.9704L47.2074-32.5972C46.7795-37.2358 50.2633-38.9333 59.1709-38.9333C68.0901-38.9333 71.5738-37.2358 71.1459-32.5972L70.6203-26.9704C70.4135-24.4802 69.3135-23.429 66.8836-23.429C65.9668-23.429 62.1033-23.7477 59.1709-23.7477ZM59.1709 6.90267C49.8211 6.90267 46.6357 5.31439 47.2935 0.578063L47.7072-2.07018C48.2301-5.91608 51.4093-7.08795 59.1709-7.08795C66.944-7.08795 70.1233-5.91608 70.6576-2.07018L71.0598 0.578063C71.7291 5.31439 68.5438 6.90267 59.1709 6.90267Z"/>
</svg>