<svg xmlns="http://www.w3.org/2000/svg" viewBox="6.83594 -76.6353 82.77 82.76">
  <path d="M48.2173 6.12748C71.0765 6.12748 89.6102-12.3948 89.6102-35.2539C89.6102-58.1131 71.0765-76.6353 48.2173-76.6353C25.3697-76.6353 6.83594-58.1131 6.83594-35.2539C6.83594-12.3948 25.3697 6.12748 48.2173 6.12748ZM48.2173-6.4423C32.2948-6.4423 19.4172-19.3314 19.4172-35.2539C19.4172-51.1764 32.2948-64.0655 48.2173-64.0655C64.1398-64.0655 77.0289-51.1764 77.0289-35.2539C77.0289-19.3314 64.1398-6.4423 48.2173-6.4423ZM48.5734-19.1828C54.0712-19.1828 59.7435-21.6099 61.7339-26.6365C61.9781-27.3717 62.1876-28.2187 62.1876-28.9769C62.1876-31.2394 60.5884-32.629 58.326-32.629C56.4853-32.629 55.4775-31.7589 54.7397-30.0533C53.4932-27.3671 51.4582-25.8271 48.3869-25.8271C43.195-25.8271 41.4503-30.6968 41.4503-35.4838C41.4503-40.4545 43.4276-45.1032 48.3869-45.1032C51.4121-45.1032 53.4729-43.3909 54.5959-40.9889C55.4199-39.2344 56.4535-38.4016 58.3687-38.4016C60.5193-38.4016 61.9693-39.7797 61.9693-41.9534C61.9693-43.0045 61.6017-44.1961 61.0734-45.0662C58.615-49.8283 53.4853-51.736 48.3123-51.736C38.5812-51.736 32.9429-45.3559 32.9429-35.4465C32.9429-25.7066 38.2394-19.1828 48.5734-19.1828ZM48.1685-15.2359C48.7748-15.2359 49.2115-15.6726 49.2115-16.2789L49.2115-54.6772C49.2115-55.2719 48.7748-55.7202 48.1685-55.7202C47.5738-55.7202 47.1628-55.2719 47.1628-54.6772L47.1628-16.2789C47.1628-15.6841 47.5738-15.2359 48.1685-15.2359Z" />
</svg>