<svg xmlns="http://www.w3.org/2000/svg" viewBox="6.83594 -76.2128 98.08 82.1">
  <path d="M55.88-57.2639C62.6644-57.2639 68.9374-55.0205 73.9783-51.2146C75.0579-50.4049 76.4448-50.491 77.4384-51.4846L87.0284-61.1004C88.2431-62.315 88.1942-64.1068 86.8562-65.1865C78.415-72.0855 67.63-76.2128 55.88-76.2128C44.13-76.2128 33.3335-72.0855 24.9039-65.1865C23.5658-64.1068 23.517-62.315 24.7316-61.1004L34.3101-51.4846C35.3037-50.491 36.7394-50.4049 37.8679-51.2635C42.9087-55.0205 49.1445-57.2639 55.88-57.2639ZM6.83594-27.1803C6.83594-15.0084 11.2732-3.88774 18.5826 4.66537C19.625 5.89153 21.3421 5.81693 22.5195 4.63959L32.1671-5.00806C33.1634-5.99281 33.1749-7.37092 32.3021-8.49063C28.1775-13.6867 25.7964-20.1836 25.7964-27.1803C25.7964-33.9158 28.0283-40.1516 31.7968-45.1809C32.6181-46.3094 32.6181-47.7078 31.5873-48.7387L21.9599-58.3287C20.7453-59.5433 18.9535-59.506 17.8738-58.1679C10.9748-49.7152 6.83594-38.9303 6.83594-27.1803ZM104.913-27.1803C104.913-38.9676 100.748-49.8271 93.7628-58.3172C92.7577-59.5433 91.0032-59.5433 89.7886-58.3287L80.1728-48.7387C79.1419-47.7078 79.1419-46.3094 79.9632-45.1809C83.7318-40.1516 85.9636-33.9158 85.9636-27.1803C85.9636-20.1836 83.5825-13.6867 79.4464-8.49063C78.5851-7.37092 78.5966-5.99281 79.5814-5.00806L89.229 4.63959C90.4064 5.81693 92.1608 5.81693 93.2778 4.55346C100.524-3.99965 104.913-15.0457 104.913-27.1803ZM56.2361-11.5162C61.7224-11.5162 67.4062-13.9433 69.3851-18.9699C69.6292-19.705 69.8388-20.5521 69.8388-21.2988C69.8388-23.5728 68.2511-24.9624 65.9886-24.9624C64.148-24.9624 63.1287-24.0923 62.3908-22.3751C61.1559-19.7005 59.1093-18.1489 56.0495-18.1489C50.8462-18.1489 49.1014-23.0187 49.1014-27.8172C49.1014-32.7879 51.0903-37.4366 56.038-37.4366C59.0632-37.4366 61.124-35.7128 62.2471-33.3108C63.0711-31.5563 64.1162-30.735 66.0314-30.735C68.1704-30.735 69.6204-32.1131 69.6204-34.2752C69.6204-35.3379 69.2644-36.518 68.7361-37.3996C66.2777-42.1502 61.1365-44.0694 55.9634-44.0694C46.2439-44.0694 40.6056-37.6777 40.6056-27.7799C40.6056-18.04 45.8906-11.5162 56.2361-11.5162ZM55.8312-7.56928C56.4259-7.56928 56.8626-8.006 56.8626-8.61226L56.8626-47.0106C56.8626-47.6053 56.4259-48.0535 55.8312-48.0535C55.2249-48.0535 54.8255-47.6053 54.8255-47.0106L54.8255-8.61226C54.8255-8.01753 55.2249-7.56928 55.8312-7.56928Z"/>
</svg>