<svg xmlns="http://www.w3.org/2000/svg" viewBox="6.83594 -76.6353 82.77 82.76">
  <path d="M48.2173 6.12748C71.0765 6.12748 89.6102-12.4063 89.6102-35.2539C89.6102-58.1015 71.0765-76.6353 48.2173-76.6353C25.3697-76.6353 6.83594-58.1015 6.83594-35.2539C6.83594-12.4063 25.3697 6.12748 48.2173 6.12748ZM27.8466-21.1386C25.8914-21.1386 24.6367-22.3418 24.6367-24.1593L24.6367-30.2301C24.6367-32.0103 25.8914-33.265 27.8466-33.265L30.7232-33.265C32.6296-33.265 33.9331-32.0103 33.9331-30.2301L33.9331-24.1593C33.9331-22.3418 32.6296-21.1386 30.7232-21.1386ZM40.1513-21.1386C38.2333-21.1386 36.9414-22.3418 36.9414-24.1593L36.9414-35.0531C36.9414-36.8592 38.2333-38.0623 40.1513-38.0623L43.0394-38.0623C44.9831-38.0623 46.2378-36.8592 46.2378-35.0531L46.2378-24.1593C46.2378-22.3418 44.9831-21.1386 43.0394-21.1386ZM52.5048-21.1386C50.5123-21.1386 49.2576-22.3418 49.2576-24.1593L49.2576-41.1654C49.2576-42.9945 50.5123-44.2234 52.5048-44.2234L55.3672-44.2234C57.2994-44.2234 58.554-42.9945 58.554-41.1654L58.554-24.1593C58.554-22.3418 57.2994-21.1386 55.3672-21.1386ZM64.7837-21.1386C62.8773-21.1386 61.5623-22.3418 61.5623-24.1593L61.5623-47.8637C61.5623-49.6928 62.8773-50.9217 64.7837-50.9217L67.6718-50.9217C69.6156-50.9217 70.8702-49.6928 70.8702-47.8637L70.8702-24.1593C70.8702-22.3418 69.6156-21.1386 67.6718-21.1386Z" />
</svg>