<svg xmlns="http://www.w3.org/2000/svg" viewBox="9.76562 -72.7779 75.06 75.07">
  <path d="M24.3431 2.29311L70.2476 2.29311C79.5298 2.29311 84.8251-3.00217 84.8251-12.2498L84.8251-58.235C84.8251-67.4826 79.5298-72.7779 70.2476-72.7779L24.3431-72.7779C15.0724-72.7779 9.76562-67.4826 9.76562-58.235L9.76562-12.2498C9.76562-3.00217 15.0724 2.29311 24.3431 2.29311ZM26.0821-10.196C23.5364-10.196 22.2432-11.3169 22.2432-14.0464L22.2432-56.4383C22.2432-59.1794 23.5364-60.2888 26.0821-60.2888L68.5086-60.2888C71.0543-60.2888 72.3475-59.1794 72.3475-56.4383L72.3475-14.0464C72.3475-11.3169 71.0543-10.196 68.5086-10.196ZM47.497-55.4366C46.3427-55.4366 45.3119-54.9456 44.3299-54.0124L34.3483-44.3814C33.5243-43.6062 32.861-42.6127 32.861-41.5242C32.861-39.2557 34.8251-37.7135 36.7206-37.7135C37.6423-37.7135 38.7077-38.058 39.4917-38.7789L47.497-46.6405L55.5282-38.7789C56.2864-38.0696 57.3288-37.7135 58.3108-37.7135C60.1948-37.7135 62.1215-39.2557 62.1215-41.5242C62.1215-42.5754 61.5071-43.6062 60.683-44.3814L50.6527-54.0124C49.6822-54.9456 48.6398-55.4366 47.497-55.4366ZM47.497-15.0712C48.6398-15.0712 49.6937-15.5622 50.6527-16.4954L60.683-26.1264C61.5071-26.9016 62.1215-27.9439 62.1215-28.9836C62.1215-31.2521 60.1948-32.7943 58.3108-32.7943C57.3288-32.7943 56.2864-32.4383 55.5282-31.7289L47.497-23.8673L39.4917-31.7289C38.7077-32.4498 37.6423-32.7943 36.7206-32.7943C34.8251-32.7943 32.861-31.2521 32.861-28.9836C32.861-27.9066 33.5243-26.9016 34.3483-26.1264L44.3299-16.4954C45.3004-15.5622 46.3427-15.0712 47.497-15.0712Z" />
</svg>