<svg xmlns="http://www.w3.org/2000/svg" viewBox="6.83594 -79.0148 87.51 87.52">
  <path d="M50.5969 8.50701C74.7146 8.50701 94.3463-11.1246 94.3463-35.2539C94.3463-59.3832 74.7146-79.0148 50.5969-79.0148C26.4676-79.0148 6.83594-59.3832 6.83594-35.2539C6.83594-11.1246 26.4676 8.50701 50.5969 8.50701ZM50.5969-7.23748C35.1123-7.23748 22.5804-19.7693 22.5804-35.2539C22.5804-50.7385 35.1123-63.2703 50.5969-63.2703C66.0699-63.2703 78.6018-50.7385 78.6018-35.2539C78.6018-19.7693 66.0699-7.23748 50.5969-7.23748ZM50.5969-17.8875C53.1435-17.8875 54.7542-19.547 54.7542-22.1425L54.7542-29.6838L64.4492-45.6179C65.0263-46.5884 65.3593-47.4782 65.3593-48.5721C65.3593-51.0211 63.4902-52.6088 61.1158-52.6088C59.3416-52.6088 57.9893-51.6729 57.128-49.8614L50.7691-37.3211L50.5853-37.3211L44.2522-49.8241C43.3536-51.6729 42.0474-52.6203 40.2156-52.6203C37.692-52.6203 35.8344-51.0327 35.8344-48.4975C35.8344-47.4612 36.1559-46.4649 36.6957-45.5691L46.428-29.6838L46.428-22.1425C46.428-19.547 48.0502-17.8875 50.5969-17.8875ZM38.1008-31.1081C38.1008-30.5391 38.5863-30.0651 39.1438-30.0651L62.0384-30.0651C62.6074-30.0651 63.0929-30.5391 63.0929-31.1081C63.0929-31.6655 62.6074-32.151 62.0384-32.151L39.1438-32.151C38.5863-32.151 38.1008-31.6655 38.1008-31.1081ZM38.1008-25.4028C38.1008-24.8338 38.5863-24.3598 39.1438-24.3598L62.0384-24.3598C62.6074-24.3598 63.0929-24.8338 63.0929-25.4028C63.0929-25.9717 62.6074-26.4457 62.0384-26.4457L39.1438-26.4457C38.5863-26.4457 38.1008-25.9717 38.1008-25.4028Z" />
</svg>