<svg xmlns="http://www.w3.org/2000/svg" viewBox="8.77208 -85.7716 114.92 101.14">
  <path d="M43.4831 15.3642L88.926 15.3642C96.2239 15.3642 101.801 9.23064 101.31 2.23124L100.06-14.478L98.4563-23.6292L96.7373-34.2549C96.2436-37.745 95.0608-38.6063 93.5565-38.6063C91.7077-38.6063 90.4992-36.8552 90.5853-34.1627L91.473-0.759121C91.5706 2.08443 90.0536 4.82094 85.3937 4.82094L47.0155 4.82094C42.3555 4.82094 40.8758 2.08443 40.9735-0.759121L41.8239-34.1627C41.91-36.8552 40.7014-38.6063 38.8526-38.6063C37.3484-38.6063 36.1656-37.745 35.6718-34.2549L33.9644-23.6522L32.3603-14.4895L31.0996 2.23124C30.6086 9.23064 36.1853 15.3642 43.4831 15.3642ZM27.0578-2.51084C31.3085-1.32744 35.6591-1.75264 36.538-6.01767L38.4017-14.7731L35.0128-28.0561L31.5339-13.1436C31.3128-12.0985 30.3911-11.6651 29.1941-11.9865L22.2038-13.8541C20.2661-14.3852 19.4109-16.1906 20.1284-18.7767L32.1495-62.8112C33.0827-66.1906 34.3347-67.7416 37.1343-68.5744L46.6482-71.4477L50.3734-82.0464L33.2292-76.6802C27.8654-75.0404 25.3642-71.5517 24.0004-66.5357L10.2566-16.9901C8.77208-11.4309 10.673-7.00576 16.5537-5.38624ZM105.414-2.51084L115.867-5.38624C121.748-7.00576 123.697-11.4309 122.164-16.9901L108.42-66.5357C107.056-71.5517 104.555-75.0404 99.18-76.6802L82.0473-82.0464L85.761-71.4477L95.2749-68.5744C98.0745-67.7416 99.338-66.1906 100.26-62.8112L112.292-18.7767C113.01-16.1906 112.166-14.3852 110.217-13.8541L103.278-11.9865C102.07-11.6651 101.159-12.0985 100.938-13.1436L97.3964-28.0561L94.0075-14.7731L95.9342-6.01767C96.8389-1.75264 101.164-1.32744 105.414-2.51084ZM74.4932-13.7753C77.1842-13.7753 79.3497-15.8776 79.3497-18.6059C79.3497-21.2854 77.2331-23.3878 74.4932-23.3878C71.7649-23.3878 69.6856-21.3342 69.6856-18.6059C69.6368-15.8776 71.7534-13.7753 74.4932-13.7753ZM74.4932 0.829475C77.1842 0.829475 79.3497-1.29864 79.3497-3.95235C79.3497-6.71796 77.2331-8.783 74.4932-8.783C71.7649-8.783 69.6856-6.72949 69.6856-3.95235C69.6368-1.29864 71.7534 0.829475 74.4932 0.829475ZM56.1056 11.4043L65.4064 11.4043L65.4064-24.529L63.0529-18.9683L89.8677-52.9248C92.9406-56.8459 93.5605-60.3312 91.7511-65.8476L87.5328-79.0264C85.956-83.8191 82.9232-85.7716 77.7223-85.7716L54.7357-85.7716C49.4975-85.7716 46.4647-83.8191 44.8879-79.0264L40.6696-65.8476C38.8717-60.3427 39.5289-56.8229 42.5529-52.9248L57.8249-33.3599L56.1056-38.0647ZM65.2714-35.3494L73.3384-74.119C73.9155-76.9186 75.2508-77.8978 76.9395-77.8978C78.5536-77.8978 79.5817-77.0935 80.2422-75.0834L82.7895-67.1553C84.4117-62.1943 83.8813-59.5384 81.0389-56.0119ZM59.5718-44.9822L51.3818-56.0119C48.4906-59.5873 48.0463-62.2316 49.6312-67.1553L52.1785-75.0834C52.839-77.0678 54.0164-77.8978 55.6677-77.8978C57.3564-77.8978 58.4794-77.0047 59.0823-74.119L62.09-59.7104Z"/>
</svg>