<svg xmlns="http://www.w3.org/2000/svg" viewBox="6.83594 -76.6353 82.77 82.76">
  <path d="M48.2173 6.12748C71.0765 6.12748 89.6102-12.3948 89.6102-35.2539C89.6102-58.1131 71.0765-76.6353 48.2173-76.6353C25.3697-76.6353 6.83594-58.1131 6.83594-35.2539C6.83594-12.3948 25.3697 6.12748 48.2173 6.12748ZM48.2173-6.4423C32.2948-6.4423 19.4172-19.3314 19.4172-35.2539C19.4172-51.1764 32.2948-64.0655 48.2173-64.0655C64.1398-64.0655 77.0289-51.1764 77.0289-35.2539C77.0289-19.3314 64.1398-6.4423 48.2173-6.4423ZM45.8248-39.8598L46.922-48.8706L46.2757-53.3288C46.1062-54.4233 45.4714-54.9977 44.7648-54.9977C44.0697-54.9977 43.6187-54.6186 43.2911-53.7682L41.5706-48.57C41.1285-46.9966 41.4384-45.8423 42.3255-44.7253ZM47.8552-35.9578L54.1953-44.7253C55.0939-45.8423 55.4039-46.9966 54.9386-48.57L53.2296-53.7682C52.9136-54.6071 52.4511-54.9977 51.756-54.9977C51.0263-54.9977 50.4031-54.3888 50.2566-53.3288ZM39.2581-16.1345L44.4378-16.1345L44.4378-36.4418L39.0574-43.6572C38.1615-44.829 37.705-46.1671 38.331-48.0851L39.9193-53.1362L36.1562-51.8864C34.123-51.2659 33.221-49.9909 32.6927-48.0899L27.1915-28.8765C26.6286-26.8088 27.3638-25.1574 29.5923-24.5342L33.3608-23.523C33.7345-23.4023 34.197-23.3277 34.5503-23.3392L34.671-23.4199L34.5245-21.138C34.3034-18.4837 36.6038-16.1345 39.2581-16.1345ZM47.8552-16.1345L57.2742-16.1345C59.94-16.1345 62.2662-18.4837 62.0566-21.138L61.9101-23.4199L62.0193-23.3392C62.3842-23.3277 62.8324-23.4138 63.1715-23.523L66.9658-24.5457C69.1455-25.1574 69.9037-26.8088 69.3408-28.8765L63.8165-48.1015C63.2882-49.9909 62.349-51.2774 60.3761-51.8864L56.6015-53.1362L58.1783-48.0966C58.8158-46.1786 58.3593-44.829 57.4519-43.6572L47.8925-30.9488ZM52.0238-26.0918C50.8892-26.0918 50.0361-26.9449 50.0476-28.0537C50.0476-29.2256 50.9007-30.0414 52.0238-30.0414C53.1326-30.0414 53.9857-29.1768 53.9857-28.0537C53.9857-26.9449 53.1211-26.0918 52.0238-26.0918ZM52.0238-19.6535C50.8892-19.6535 50.0361-20.5554 50.0476-21.5781C50.0476-22.75 50.9007-23.5658 52.0238-23.5658C53.1326-23.5658 53.9857-22.7384 53.9857-21.5781C53.9857-20.5554 53.1211-19.6535 52.0238-19.6535Z" />
</svg>