<svg xmlns="http://www.w3.org/2000/svg" viewBox="7.12618 -83.4952 97.23 97.23">
  <path d="M13.6828-27.7298C7.14922-21.1963 7.12618-13.2806 13.6482-6.74708L31.8375 11.4306C34.1372 13.7304 37.887 13.7304 40.1495 11.4306C42.412 9.13086 42.412 5.42992 40.1495 3.16745L22.7673-14.1659C20.8014-16.1318 20.678-18.1356 22.7442-20.2018L70.4311-67.8772C72.4974-69.9434 74.5126-69.8315 76.467-67.8772L93.8004-50.4949C96.0628-48.2325 99.8011-48.1836 102.052-50.4834C104.314-52.7832 104.352-56.4841 102.052-58.7839L83.8743-76.9732C77.3407-83.4952 69.4366-83.4837 62.8915-76.9386ZM18.3281-6.82381L26.6286 1.47668L92.0207-63.9527L83.7202-72.2532ZM82.5757-57.4604L77.355-52.2655L87.4318-42.1772C88.8275-40.7815 91.2052-40.7442 92.5778-42.1657C94.0108-43.6244 94.0481-45.9391 92.5894-47.3979ZM75.2081-50.1301L69.9874-44.8979L80.0757-34.8211C81.4226-33.4627 83.8491-33.4627 85.2591-34.8096C86.7552-36.1938 86.7294-38.6088 85.3079-40.0303ZM67.852-42.7252L62.6313-37.5045L72.6708-27.4535C74.055-26.0694 76.4815-26.0321 77.8915-27.442C79.2757-28.8262 79.3618-31.29 77.903-32.7115ZM60.4959-35.3692L55.2753-30.1485L65.3263-20.1233C66.7851-18.7018 69.1255-18.6645 70.5097-20.0859C71.8938-21.5189 71.9427-23.8594 70.5212-25.3181ZM53.1284-28.0016L47.9192-22.7809L57.9214-12.7299C59.3429-11.3084 61.7694-11.3084 63.1421-12.7299C64.5262-14.1514 64.6497-16.5033 63.1909-17.9621ZM45.735-20.6455L40.5143-15.4248L50.6026-5.325C51.9868-3.94082 54.4018-3.94082 55.7745-5.325C57.2075-6.758 57.2563-9.13572 55.8233-10.5572ZM38.3674-13.2779L33.184-8.05724L43.235 1.95646C44.6565 3.37793 47.0085 3.41524 48.4184 2.03107C49.8772 0.60959 49.8887-1.76813 48.4672-3.20113Z"/>
</svg>