<svg xmlns="http://www.w3.org/2000/svg" viewBox="9.76562 -85.8665 84.54 101.28">
  <path d="M30.0363-71.2132L37.0603-71.2132C45.1463-71.2132 49.8311-69.2492 54.0106-65.0582L75.6239-43.4564C79.393-39.6757 80.9692-33.9377 80.9692-26.5692L80.9692-6.18692L81.1075-6.18692C86.774-6.18692 94.3075-10.2627 94.3075-20.7644L94.3075-71.2891C94.3075-80.5597 89.0122-85.8665 79.7646-85.8665L44.3438-85.8665C35.4319-85.8665 30.0363-80.4594 30.0363-71.6248ZM50.9778-73.0693L50.9778-74.0974C50.9778-75.2435 51.9944-77.1615 54.0879-77.1615L70.2931-77.1615C72.3866-77.1615 73.4032-75.2435 73.4032-74.0974L73.4032-73.0693C73.4032-71.4756 72.0509-70.0053 70.2931-70.0053L54.0879-70.0053C52.2928-70.0053 50.9778-71.4756 50.9778-73.0693ZM9.76562 0.832808C9.76562 10.115 15.0494 15.4103 24.297 15.4103L59.4939 15.4103C68.7415 15.4103 74.0368 10.1035 74.0368 0.832808L74.0368-26.8458L44.9947-26.8458C40.1919-26.8458 37.5009-29.5483 37.5009-34.351L37.5009-64.2693L24.297-64.2693C15.0494-64.2693 9.76562-58.9625 9.76562-49.6919ZM46.8368-33.7897L73.2528-33.827C72.7015-35.9348 71.3261-38.0941 69.373-40.0588L50.3667-59.1803C48.3763-61.1707 46.6157-62.5522 44.4333-63.2527L44.4333-36.3051C44.4333-34.7229 45.3292-33.7897 46.8368-33.7897Z"/>
</svg>