<svg xmlns="http://www.w3.org/2000/svg" viewBox="9.76562 -78.0343 103.26 85.64">
  <path d="M16.0044 7.60112C19.4497 7.60112 22.2432 4.79608 22.2432 1.36233L22.2432-63.2821C22.2432-64.6894 23.0991-65.5567 24.4948-65.5567L98.2919-65.5567C99.6876-65.5567 100.543-64.6894 100.543-63.2821L100.543 1.36233C100.543 4.79608 103.349 7.60112 106.782 7.60112C110.228 7.60112 113.021 4.79608 113.021 1.36233L113.021-65.0903C113.021-73.1758 108.163-78.0343 100.031-78.0343L22.7557-78.0343C14.6357-78.0343 9.76562-73.1758 9.76562-65.0903L9.76562 1.36233C9.76562 4.79608 12.5707 7.60112 16.0044 7.60112ZM62.5024 4.90526L94.5919 4.90526C95.1982 4.90526 95.6837 4.41971 95.6837 3.82498L95.6837-59.6052C95.6837-60.1999 95.1982-60.697 94.5919-60.697L62.5024-60.697C61.9077-60.697 61.4106-60.1999 61.4106-59.6052L61.4106 3.82498C61.4106 4.41971 61.9077 4.90526 62.5024 4.90526ZM70.2743-23.7047C68.9159-23.7047 67.8362-24.7844 67.8362-26.1428L67.8362-32.8064C67.8362-34.1533 68.9159-35.233 70.2743-35.233C71.6212-35.233 72.7009-34.1533 72.7009-32.8064L72.7009-26.1428C72.7009-24.7844 71.6212-23.7047 70.2743-23.7047Z"/>
</svg>