<svg xmlns="http://www.w3.org/2000/svg" viewBox="6.83594 -75.5835 92.57 80.66">
  <path d="M25.8586-38.576C34.8703-38.576 42.156-45.899 42.156-54.8734C42.156-63.8851 34.8703-71.1708 25.8586-71.1708C16.8842-71.1708 9.5612-63.8851 9.5612-54.8734C9.5612-45.899 16.8842-38.576 25.8586-38.576ZM25.8586-46.5014C21.226-46.5014 17.4865-50.2408 17.4865-54.8734C17.4865-59.506 21.226-63.2828 25.8586-63.2828C30.4912-63.2828 34.2679-59.506 34.2679-54.8734C34.2679-50.2408 30.4912-46.5014 25.8586-46.5014ZM25.8586-50.7094C28.1732-50.7094 30.0226-52.5961 30.0226-54.8734C30.0226-57.1881 28.1732-59.0375 25.8586-59.0375C23.5813-59.0375 21.6945-57.1881 21.6945-54.8734C21.6945-52.5961 23.5813-50.7094 25.8586-50.7094ZM80.3751-38.576C89.3494-38.576 96.6724-45.899 96.6724-54.8734C96.6724-63.8851 89.3494-71.1708 80.3751-71.1708C71.3749-71.1708 64.0892-63.8851 64.0892-54.8734C64.0892-45.899 71.3749-38.576 80.3751-38.576ZM80.3751-46.5014C75.7425-46.5014 71.9657-50.2408 71.9657-54.8734C71.9657-59.506 75.7425-63.2828 80.3751-63.2828C85.0192-63.2828 88.7471-59.506 88.7471-54.8734C88.7471-50.2408 85.0192-46.5014 80.3751-46.5014ZM80.3751-50.7094C82.6524-50.7094 84.5506-52.5961 84.5506-54.8734C84.5506-57.1881 82.6524-59.0375 80.3751-59.0375C78.0604-59.0375 76.211-57.1881 76.211-54.8734C76.211-52.5961 78.0604-50.7094 80.3751-50.7094ZM53.1226-28.8335C67.9745-28.8335 81.4708-22.5325 90.7515-12.4548C96.2333-19.7208 99.4092-28.925 99.4092-39.3555C99.4092-42.1981 99.2079-44.8421 98.8051-47.2474C95.9491-39.9247 88.7741-34.7044 80.3751-34.7044C69.238-34.7044 60.206-43.7737 60.206-54.8734C60.206-63.5357 65.6578-70.9054 73.3238-73.7566C67.6482-74.9861 60.9384-75.5835 53.1226-75.5835C45.3068-75.5835 38.597-74.9861 32.9214-73.7566C40.5874-70.9054 46.0392-63.5357 46.0392-54.8734C46.0392-43.7737 37.0072-34.7044 25.8586-34.7044C17.4711-34.7044 10.2845-39.9247 7.42854-47.2474C7.03731-44.8421 6.83594-42.1981 6.83594-39.3555C6.83594-28.925 10.0119-19.7208 15.4937-12.4548C24.7744-22.5325 38.2706-28.8335 53.1226-28.8335ZM53.1226 5.07571C67.0107 5.07571 79.0027 0.0743205 87.2628-8.42298C78.4562-17.9093 66.7572-23.4581 53.1226-23.4581C39.4507-23.4581 27.7028-17.872 18.9708-8.4345C27.2194 0.0743205 39.223 5.07571 53.1226 5.07571ZM37.2895-6.71552C35.5345-6.71552 34.1327-8.11728 34.1327-9.87236C34.1327-11.6274 35.5345-13.0292 37.2895-13.0292C39.0446-13.0292 40.4464-11.6274 40.4464-9.87236C40.4464-8.11728 39.0446-6.71552 37.2895-6.71552ZM53.1226-4.46063C50.1611-4.46063 47.7109-6.91083 47.7109-9.87236C47.7109-12.8339 50.1611-15.2841 53.1226-15.2841C56.0841-15.2841 58.5343-12.8339 58.5343-9.87236C58.5343-6.91083 56.0841-4.46063 53.1226-4.46063ZM68.9556-6.71552C67.2005-6.71552 65.7988-8.11728 65.7988-9.87236C65.7988-11.6274 67.2005-13.0292 68.9556-13.0292C70.7107-13.0292 72.1125-11.6274 72.1125-9.87236C72.1125-8.11728 70.7107-6.71552 68.9556-6.71552Z"/>
</svg>