<svg xmlns="http://www.w3.org/2000/svg" viewBox="6.83594 -68.5517 128.78 66.65">
  <path d="M71.2673-1.90458C97.2123-1.90458 115.108-12.2176 115.108-27.2637L115.108-46.4449C115.108-59.9515 98.3772-68.5517 71.2673-68.5517C44.1458-68.5517 27.415-59.9515 27.415-46.4449L27.415-27.2637C27.415-12.2176 45.3222-1.90458 71.2673-1.90458ZM48.2907-44.6107C48.2907-47.0976 50.3612-49.1681 52.8481-49.1681L89.7237-49.1681C92.2106-49.1681 94.2811-47.0976 94.2811-44.6107C94.2811-42.0865 92.2479-40.0533 89.7237-40.0533L52.8481-40.0533C50.3239-40.0533 48.2907-42.0865 48.2907-44.6107ZM48.2907-27.3219C48.2907-29.8461 50.3239-31.8793 52.8481-31.8793L89.7237-31.8793C92.2479-31.8793 94.2811-29.8461 94.2811-27.3219C94.2811-24.8235 92.2106-22.7645 89.7237-22.7645L52.8481-22.7645C50.3612-22.7645 48.2907-24.8235 48.2907-27.3219ZM6.83594-39.5277C6.83594-25.986 17.0228-16.4278 32.2845-15.7563L36.9302-15.5325L36.9302-26.033L31.6986-26.2568C23.0784-26.5925 17.3364-31.9873 17.3364-39.5277C17.3364-42.6479 19.1003-44.6789 21.9621-44.6789L34.9255-44.6789L34.9255-55.1794L21.9621-55.1794C12.7545-55.1794 6.83594-48.9937 6.83594-39.5277ZM135.612-39.5277C135.612-48.9937 129.694-55.1794 120.498-55.1794L107.523-55.1794L107.523-44.6789L120.498-44.6789C123.36-44.6789 125.112-42.6479 125.112-39.5277C125.112-31.9873 119.37-26.5925 110.75-26.2568L105.518-26.033L105.518-15.5325L110.164-15.7563C125.426-16.4278 135.612-25.986 135.612-39.5277Z"/>
</svg>