<svg xmlns="http://www.w3.org/2000/svg" viewBox="9.76562 -78.9818 87.46 87.46">
  <path d="M72.7378-75.9923C61.7351-75.9923 55.0754-66.8839 51.8245-49.7519L64.4231-37.2022L83.965-37.2022C92.371-37.2022 97.2214-41.9176 97.2214-50.0679C97.2098-63.3283 85.2706-75.9923 72.7378-75.9923ZM72.7378-65.4606C79.4076-65.4606 86.7012-57.6145 86.7012-50.3664C86.7012-48.4636 85.9484-47.7339 83.965-47.7339L62.1461-47.7712C64.4237-59.6219 67.4802-65.4606 72.7378-65.4606ZM34.2492 5.473C45.2519 5.473 51.9116-3.63541 55.1624-20.7444L42.5408-33.3172L23.022-33.3172C14.616-33.3172 9.76562-28.6018 9.76562-20.4514C9.77715-7.19107 21.7279 5.473 34.2492 5.473ZM34.2492-5.05873C27.5794-5.05873 20.2974-12.9049 20.2974-20.153C20.2974-22.0557 21.0501-22.7854 23.022-22.7854L44.8409-22.7481C42.5633-10.8859 39.5068-5.05873 34.2492-5.05873ZM38.691-78.9818C34.2707-78.9818 29.9508-77.6404 26.1191-75.4201L33.9604-67.5787C35.4062-68.1395 36.9353-68.45 38.3926-68.45C40.2953-68.45 41.025-67.6973 41.025-65.7254L41.025-60.5141L51.5568-49.9824L51.5568-65.7254C51.5568-74.1314 46.8413-78.9818 38.691-78.9818ZM12.7666-54.4983C12.7666-42.6594 23.3608-35.8389 43.067-32.8025L32.3467-43.4855C27.3917-47.2535 23.3729-50.9496 20.3886-55.1324C20.2394-55.3738 20.139-55.5779 20.0129-55.8193L14.131-61.7012C13.2779-59.3777 12.7666-56.9566 12.7666-54.4983ZM94.2319-16.0096C94.2319-27.8484 83.6147-34.6689 63.8969-37.7168L74.58-27.0338C79.5695-23.2543 83.6256-19.5582 86.6099-15.3754C86.7591-15.1225 86.871-14.9068 86.9857-14.6654L92.8675-8.7836C93.7321-11.1186 94.2319-13.5512 94.2319-16.0096ZM68.3075 8.47396C72.7278 8.46244 77.0478 7.14408 80.8679 4.92377L73.0266-2.91756C71.5808-2.36832 70.0747-2.04624 68.606-2.04624C66.7032-2.04624 65.9735-2.79898 65.9735-4.78243L65.9735-9.97062L55.4418-20.5024L55.4418-4.78243C55.4418 3.6236 60.1572 8.47396 68.3075 8.47396ZM87.8985 4.04819C89.2542 5.36655 91.4772 5.39233 92.7841 4.03667C94.0909 2.68101 94.1397 0.50679 92.7841-0.848873L19.0885-74.5072C17.7328-75.8628 15.5098-75.8628 14.1541-74.5072C12.8473-73.2003 12.8473-70.9285 14.1541-69.6216Z"/>
</svg>