<svg xmlns="http://www.w3.org/2000/svg" viewBox="6.83594 -76.6353 82.77 82.76">
  <path d="M48.2173 6.12748C71.0765 6.12748 89.6102-12.4063 89.6102-35.2539C89.6102-58.1015 71.0765-76.6353 48.2173-76.6353C25.3697-76.6353 6.83594-58.1015 6.83594-35.2539C6.83594-12.4063 25.3697 6.12748 48.2173 6.12748ZM38.9306-48.1918C36.3685-48.1918 34.2458-50.3287 34.2458-52.9024C34.2458-55.4645 36.3685-57.5756 38.9306-57.5756C41.53-57.5756 43.6411-55.4645 43.6411-52.9024C43.6411-50.3287 41.53-48.1918 38.9306-48.1918ZM67.0465-21.374C68.158-20.7623 68.6232-19.309 68.0115-18.1228C67.5348-17.1463 66.1533-16.4111 64.7603-17.1693L53.3679-23.2619L46.448-27.2346L35.2591-28.0619L35.2591-19.2716C35.2591-17.9763 34.1591-16.8763 32.8149-16.8763C31.5312-16.8763 30.4685-17.9763 30.4685-19.2716L30.4685-29.9689L26.7284-36.5586C26.1655-37.5121 26.3005-38.661 27.1075-39.4307L32.4935-44.8282C33.5304-45.8793 34.6046-46.2815 36.1413-46.2815L40.881-46.2815C43.2363-46.2815 45.3474-44.6817 45.9075-42.401L47.3697-36.3457C47.6138-35.4553 47.3466-34.5533 46.6915-33.9416C47.0679-33.5422 47.4673-33.1916 47.9156-32.8898L55.5191-27.6131ZM31.7516-37.3168L34.2194-33.0363L35.3228-33.0363L37.1185-34.0189L34.7138-40.2905Z"/>
</svg>