<svg xmlns="http://www.w3.org/2000/svg" viewBox="9.76562 -80.3851 112.4 90.2">
  <path d="M53.1966-66.5197C57.0276-66.5197 60.1235-69.5667 60.1235-73.4466C60.1235-77.2892 57.0276-80.3851 53.1966-80.3851C49.354-80.3851 46.2581-77.2892 46.2581-73.4466C46.2581-69.5667 49.354-66.5197 53.1966-66.5197ZM14.5787-9.47507L36.6023-9.47507C37.8861-9.47507 38.449-9.53542 39.3652-9.76804L59.9543-14.7573C60.6806-14.9296 61.2836-14.4386 61.1974-13.6749L60.0798-4.50432L53.647-9.06686C51.4673-10.5975 48.4175-10.0835 46.8868-7.9526C45.2701-5.77293 45.7726-2.71161 47.9896-1.14365L60.1314 7.43918C63.4857 9.81417 67.7962 8.99288 68.6778 5.3802L79.6065-38.5815C79.753-39.1817 80.0548-39.3627 80.6665-39.2278L116.397-32.1334C120.058-31.3983 122.166-34.1666 122.166-36.8977C122.166-38.9051 120.977-41.1363 118.332-41.6504L82.5192-48.8566C71.9038-50.9705 65.1974-51.9471 57.5863-51.9471L48.231-51.9471L48.231-61.4977C48.231-64.2287 46.0513-66.3969 43.3806-66.3969C40.6496-66.3969 38.5187-64.2287 38.5187-61.4977L38.5187-47.1455C38.5187-44.4633 40.6496-42.2836 43.3806-42.2836L59.7869-42.2836C60.4074-42.2836 60.758-41.7981 60.5627-41.103L57.4519-29.0709C56.9521-27.2182 55.783-25.9283 53.979-25.282L36.3927-19.1385L14.5787-19.1385C11.8476-19.1385 9.76562-16.9588 9.76562-14.2766C9.76562-11.5456 11.8476-9.47507 14.5787-9.47507ZM74.98-54.2447C80.1897-54.2447 84.446-58.501 84.446-63.7222C84.446-68.932 80.1897-73.1767 74.98-73.1767C69.7587-73.1767 65.5025-68.932 65.5025-63.7222C65.5025-58.501 69.7587-54.2447 74.98-54.2447Z"/>
</svg>