<svg xmlns="http://www.w3.org/2000/svg" viewBox="6.83594 -76.6353 82.77 82.76">
  <path d="M48.2173 6.12748C71.0765 6.12748 89.6102-12.3948 89.6102-35.2539C89.6102-58.1131 71.0765-76.6353 48.2173-76.6353C25.3697-76.6353 6.83594-58.1131 6.83594-35.2539C6.83594-12.3948 25.3697 6.12748 48.2173 6.12748ZM48.2173-6.4423C32.2948-6.4423 19.4172-19.3314 19.4172-35.2539C19.4172-51.1764 32.2948-64.0655 48.2173-64.0655C64.1398-64.0655 77.0289-51.1764 77.0289-35.2539C77.0289-19.3314 64.1398-6.4423 48.2173-6.4423ZM48.0796-47.8406C50.8859-47.8406 53.155-50.0983 53.155-52.9045C53.155-55.7108 50.8859-57.9799 48.0796-57.9799C45.2734-57.9799 43.0042-55.7108 43.0042-52.9045C43.0042-50.0983 45.2734-47.8406 48.0796-47.8406ZM48.0681-29.8367C48.8005-29.8367 49.2888-29.4461 49.4957-28.7021L52.8994-15.564C53.6433-12.5625 57.7795-13.5994 57.34-16.5033C57.182-17.5029 54.2293-28.616 53.7898-31.1666C53.4853-33.0451 53.6318-37.8275 53.6318-39.5826C53.6318-40.2662 54.1804-40.608 54.864-40.3266L60.5599-38.0344C62.0593-37.4369 63.1566-38.1178 63.5242-39.1289C63.9521-40.1285 63.5384-41.51 61.9875-42.1332L55.7171-44.7442C54.39-45.2555 53.2439-45.5973 51.9283-45.7553C50.7679-45.1436 49.4726-44.8018 48.0681-44.8018C46.6751-44.8018 45.3683-45.1436 44.2195-45.7553C42.9039-45.5973 41.7578-45.2555 40.4306-44.7442L34.1603-42.1332C32.6093-41.51 32.1956-40.1285 32.612-39.1289C32.9911-38.1178 34.0769-37.4369 35.5878-38.0344L41.2837-40.3266C41.9673-40.608 42.516-40.2662 42.516-39.5826C42.516-37.8275 42.6624-33.0451 42.358-31.1666C41.9185-28.616 38.9658-17.5029 38.8078-16.5033C38.3683-13.5994 42.5044-12.5625 43.2484-15.564L46.6521-28.7021C46.8589-29.4461 47.3472-29.8367 48.0681-29.8367Z" />
</svg>