<svg xmlns="http://www.w3.org/2000/svg" viewBox="8.85821 -83.6945 65.91 96.83">
  <path d="M64.7464-64.7625C69.9562-64.7625 74.2009-69.0187 74.2009-74.24C74.2009-79.4497 69.9562-83.6945 64.7464-83.6945C59.5251-83.6945 55.2689-79.4497 55.2689-74.24C55.2689-69.0187 59.5251-64.7625 64.7464-64.7625ZM44.0302-1.67955C46.7613-1.67955 48.9898-3.89654 48.9898-6.57875L48.9898-27.6604C48.9898-28.8235 48.5361-29.8889 47.8382-30.759L38.4232-42.2994C38.0984-42.6961 38.1818-43.1416 38.5785-43.3457L49.872-49.2309C50.3291-49.4838 50.7488-49.3401 50.8207-48.86L51.8345-41.8891C52.1045-40.077 53.1699-38.7905 55.005-37.86L66.4621-32.1071C70.0117-30.3323 72.7657-31.728 73.7708-33.968C74.7644-36.1477 74.1411-39.1371 71.0913-40.7051L61.1792-45.7344L59.6167-57.5392C58.7005-64.498 50.9089-68.8031 43.6457-65.0006L28.5238-57.0849C21.0768-53.1963 20.0744-44.6723 25.626-39.1696L39.2172-25.6157L39.2172-6.57875C39.2172-3.89654 41.3969-1.67955 44.0302-1.67955ZM11.7588-26.3153C13.4963-23.2079 16.776-22.2286 19.9437-22.938L28.6406-24.8308C30.1855-25.1495 31.2163-26.4014 31.2163-27.9952C31.2163-29.6147 30.0505-30.8293 28.5056-31.0993L13.6652-33.6641C10.5266-34.2155 8.85821-31.5163 10.317-28.9175ZM17.7795-27.153L28.6506 5.25617L35.5275 2.82416L24.8402-29.2778ZM43.9326 13.1378C53.5681 13.1378 61.2478 5.36049 61.2478-4.12855C61.2478-10.7801 57.4452-16.5643 51.931-19.4506L51.931-9.40986C52.9631-7.95321 53.5008-6.17447 53.5008-4.12855C53.5008 1.27439 49.3843 5.39081 43.9326 5.39081C38.59 5.39081 34.3874 1.17673 34.3874-4.12855C34.3874-6.24908 35.0716-8.16277 36.2644-9.70556L36.2644-19.5482C30.6152-16.8084 26.6662-10.8289 26.6662-4.12855C26.6662 5.36049 34.5412 13.1378 43.9326 13.1378ZM52.2631 3.38705L59.2376 5.70714L68.9687-24.0862C69.5946-25.9411 68.6499-28.2008 66.7205-28.778C64.7076-29.3924 62.7293-28.2496 62.1521-26.4579ZM21.3033 7.87165C18.9344 9.40503 19.7096 13.1378 22.5695 13.1378L65.2956 13.1378C68.1556 13.1378 68.905 9.39351 66.5734 7.87165L56.6476 1.41814L47.8246 7.46677L40.0894 7.46677L31.2176 1.41814Z"/>
</svg>