<svg xmlns="http://www.w3.org/2000/svg" viewBox="6.83594 -76.6353 82.77 82.76">
  <path d="M48.2173 6.12748C71.0765 6.12748 89.6102-12.3948 89.6102-35.2539C89.6102-58.1131 71.0765-76.6353 48.2173-76.6353C25.3697-76.6353 6.83594-58.1131 6.83594-35.2539C6.83594-12.3948 25.3697 6.12748 48.2173 6.12748ZM48.2173-6.4423C32.2948-6.4423 19.4172-19.3314 19.4172-35.2539C19.4172-51.1764 32.2948-64.0655 48.2173-64.0655C64.1398-64.0655 77.0289-51.1764 77.0289-35.2539C77.0289-19.3314 64.1398-6.4423 48.2173-6.4423ZM62.4824-43.9059C64.8723-43.9059 66.86-45.8563 66.86-48.2834C66.86-50.6618 64.8723-52.6495 62.4824-52.6495C60.0553-52.6495 58.1049-50.6618 58.1049-48.2834C58.1049-45.8563 60.0553-43.9059 62.4824-43.9059ZM28.8104-38.0811L37.9655-38.0811L42.9187-33.6135C43.1744-33.3693 43.0164-33.0045 42.7119-33.0045L37.0663-33.0045C36.4689-33.0045 35.7968-32.858 35.32-32.3812L28.4401-25.4525C27.5612-24.5363 27.5239-23.1806 28.4401-22.2644C29.3075-21.397 30.712-21.397 31.5794-22.2644L37.6896-28.3631L45.1269-27.1336C47.6375-26.7314 50.1968-27.5357 52.0496-29.3885L56.1863-33.5137C56.4019-33.7178 56.6406-33.5971 56.6406-33.3469L56.6406-30.7353L51.5646-25.6593C50.6857-24.7804 50.7345-23.3875 51.5646-22.5201C52.0299-22.0806 52.5785-21.848 53.2017-21.848C53.7761-21.848 54.3133-22.0806 54.7527-22.5201L60.5008-28.2682C60.8914-28.6588 61.1728-29.2447 61.1728-29.8191L61.1728-38.368C61.1728-39.6606 60.7334-40.7578 59.9406-41.5391L49.1105-52.3204L49.1105-45.9442L52.9521-42.1514C53.2051-41.91 53.2308-41.6571 52.9894-41.4156L48.123-36.5865L40.1025-42.2342C39.7491-42.4783 39.3816-42.576 38.7468-42.576L28.8104-42.576C27.5524-42.576 26.5386-41.5994 26.5386-40.353C26.5386-39.1438 27.5524-38.0811 28.8104-38.0811ZM49.3295-18.6078C52.4375-18.6078 54.8388-21.1183 54.7927-24.1517L51.5131-24.1517C51.5476-22.8185 50.6885-21.9247 49.3295-21.9247C48.005-21.9247 47.1574-22.6144 47.1574-24.0711L47.1574-58.3335C47.1574-59.2755 46.4365-59.9734 45.5175-59.9734C44.5986-59.9734 43.8777-59.264 43.8777-58.3335L43.8777-24.0711C43.8777-20.7304 46.3048-18.6078 49.3295-18.6078ZM53.1529-10.6382C54.0834-10.6382 54.7927-11.3591 54.7927-12.278L54.7927-33.3836L51.5131-33.3836L51.5131-12.278C51.5131-11.3591 52.2713-10.6382 53.1529-10.6382Z" />
</svg>