<svg xmlns="http://www.w3.org/2000/svg" viewBox="9.76562 -85.4201 94.08 94.64">
  <path d="M96.5038-78.5332C98.9995-81.1639 97.3224-84.5412 94.1173-84.6877L80.322-85.3225C78.1077-85.4201 76.7493-84.0617 76.847-81.8475L77.5421-68.101C77.6886-64.7122 81.2755-63.2676 83.6851-65.6772ZM97.2268-59.7532C98.6829-58.3718 101.058-58.3718 102.514-59.7532C103.835-61.1489 103.847-63.5354 102.465-64.9915L88.6995-78.7571C87.2434-80.1385 84.8685-80.1385 83.4124-78.7571C82.0913-77.3614 82.0798-74.9749 83.4612-73.5188ZM68.3812-62.1986C68.3812-65.7739 64.8317-67.0292 62.399-64.8665L52.2055-55.6237C50.491-54.1073 50.5914-52.1115 52.2055-50.6066L62.399-41.3523C64.8832-39.0634 68.3812-40.6341 68.3812-44.0202ZM82.852-49.4577C84.9686-49.4577 86.5711-51.0603 86.5711-53.1538C86.5711-55.1843 84.9686-56.7868 82.852-56.7868L61.9338-56.7868C59.8287-56.7868 58.2262-55.1843 58.2262-53.1538C58.2262-51.0603 59.8287-49.4577 61.9338-49.4577ZM21.707-55.8658C15.0758-55.8658 9.76562-61.3081 9.76562-67.6694C9.76562-74.3122 15.0758-79.6569 21.707-79.6569C28.3124-79.6569 33.5337-74.3122 33.5337-67.6694C33.5337-61.2966 28.3124-55.8658 21.707-55.8658ZM91.3435 6.63913C88.782 9.22369 84.6553 9.0399 81.5682 5.82937L63.328-13.0483C62.6044-13.7835 62.0645-13.8553 61.0479-13.4762L47.7212-8.51883C38.5651-5.12118 28.3306-9.00317 23.8709-17.1014L15.5383-32.2299C11.8307-39.0076 13.0799-45.5961 19.3666-49.1084C25.5183-52.546 31.8911-50.0646 35.6591-43.2638L47.4431-21.8613L57.168-25.4916C62.7909-27.5994 67.5809-26.9131 72.1383-22.1834L90.9271-2.53602C93.9654 0.625685 93.6839 4.33602 91.3435 6.63913Z"/>
</svg>