<svg xmlns="http://www.w3.org/2000/svg" viewBox="9.76562 -72.7406 92.11 75.07">
  <path d="M20.6749 2.33042L90.9619 2.33042C97.5064 2.33042 101.871-2.0344 101.871-8.54432L101.871-61.8285C101.871-68.3758 97.5064-72.7406 90.9619-72.7406L20.6749-72.7406C14.142-72.7406 9.76562-68.3758 9.76562-61.8285L9.76562-8.54432C9.76562-2.0344 14.142 2.33042 20.6749 2.33042ZM20.8357-8.02086C19.8876-8.02086 19.1925-8.70172 19.1925-9.65251L19.1925-12.2674C19.1925-13.2039 19.8876-13.8617 20.8241-13.8617L24.0019-13.8617C24.9269-13.8617 25.622-13.2039 25.622-12.2674L25.622-9.65251C25.622-8.6902 24.9269-8.02086 24.0019-8.02086ZM20.8241-20.0101C19.8876-20.0101 19.1925-20.7283 19.1925-21.6303L19.1925-24.2451C19.1925-25.1817 19.8876-25.8768 20.8241-25.8768L24.0019-25.8768C24.9269-25.8768 25.622-25.1817 25.622-24.2451L25.622-21.6303C25.622-20.7283 24.9269-20.0101 24.0019-20.0101ZM20.8241-32.3148C19.8876-32.3148 19.1925-33.0215 19.1925-33.9234L19.1925-36.5383C19.1925-37.4748 19.8876-38.1699 20.8241-38.1699L24.0019-38.1699C24.9269-38.1699 25.622-37.4748 25.622-36.5383L25.622-33.9234C25.622-33.0215 24.9269-32.3148 24.0019-32.3148ZM20.8241-44.5849C19.8876-44.5849 19.1925-45.3031 19.1925-46.1935L19.1925-48.8199C19.1925-49.7449 19.8876-50.4516 20.8241-50.4516L24.0019-50.4516C24.9269-50.4516 25.622-49.7449 25.622-48.8199L25.622-46.1935C25.622-45.3031 24.9269-44.5849 24.0019-44.5849ZM20.8241-56.623C19.8876-56.623 19.1925-57.2924 19.1925-58.1943L19.1925-60.8207C19.1925-61.783 19.8876-62.4524 20.8357-62.4524L24.0019-62.4524C24.9269-62.4524 25.622-61.783 25.622-60.8207L25.622-58.1943C25.622-57.2924 24.9269-56.623 24.0019-56.623ZM87.2619-8.02086C86.3369-8.02086 85.6418-8.6902 85.6418-9.65251L85.6418-12.2674C85.6418-13.2039 86.3369-13.8617 87.2619-13.8617L90.4512-13.8617C91.3877-13.8617 92.0829-13.2039 92.0829-12.2674L92.0829-9.65251C92.0829-8.70172 91.3762-8.02086 90.4397-8.02086ZM87.2619-20.0101C86.3369-20.0101 85.6418-20.7283 85.6418-21.6303L85.6418-24.2451C85.6418-25.1817 86.3369-25.8768 87.2619-25.8768L90.4512-25.8768C91.3877-25.8768 92.0829-25.1817 92.0829-24.2451L92.0829-21.6303C92.0829-20.7283 91.3877-20.0101 90.4512-20.0101ZM87.2619-32.3148C86.3369-32.3148 85.6418-33.0215 85.6418-33.9234L85.6418-36.5383C85.6418-37.4748 86.3369-38.1699 87.2619-38.1699L90.4512-38.1699C91.3877-38.1699 92.0829-37.4748 92.0829-36.5383L92.0829-33.9234C92.0829-33.0215 91.3877-32.3148 90.4512-32.3148ZM87.2619-44.5849C86.3369-44.5849 85.6418-45.3031 85.6418-46.1935L85.6418-48.8199C85.6418-49.7449 86.3369-50.4516 87.2619-50.4516L90.4512-50.4516C91.3877-50.4516 92.0829-49.7449 92.0829-48.8199L92.0829-46.1935C92.0829-45.3031 91.3877-44.5849 90.4512-44.5849ZM30.7314-35.2424C30.7314-37.7205 32.7558-39.7449 35.2339-39.7449L76.403-39.7449C78.8926-39.7449 80.9055-37.7205 80.9055-35.2424C80.9055-32.7528 78.8926-30.7399 76.403-30.7399L35.2339-30.7399C32.7558-30.7399 30.7314-32.7528 30.7314-35.2424ZM87.2619-56.623C86.3369-56.623 85.6418-57.2924 85.6418-58.1943L85.6418-60.8207C85.6418-61.783 86.3369-62.4524 87.2619-62.4524L90.4397-62.4524C91.3762-62.4524 92.0829-61.783 92.0829-60.8207L92.0829-58.1943C92.0829-57.2924 91.3877-56.623 90.4512-56.623Z"/>
</svg>