<svg xmlns="http://www.w3.org/2000/svg" viewBox="6.83594 -76.6353 82.77 82.76">
  <path d="M48.2173 6.12748C71.0765 6.12748 89.6102-12.4063 89.6102-35.2539C89.6102-58.1015 71.0765-76.6353 48.2173-76.6353C25.3697-76.6353 6.83594-58.1015 6.83594-35.2539C6.83594-12.4063 25.3697 6.12748 48.2173 6.12748ZM38.5982-17.5721C36.7318-17.5721 34.9082-17.9193 33.5871-18.8179C32.6133-19.4554 32.0158-20.314 32.0158-21.4486C32.0158-22.9101 32.7625-23.829 34.1466-24.1275C35.0377-24.2394 35.8759-24.2306 37.2892-24.2306C40.4006-24.2306 41.9746-25.8853 42.4975-28.9478L43.2963-33.557L37.4757-33.557C36.1289-33.557 35.2099-34.4387 35.2099-35.6879C35.2099-36.9371 36.1289-37.7814 37.4757-37.7814L43.9826-37.7814L44.7842-42.5651C46.0334-49.9227 50.2205-52.8238 57.5896-52.8238C59.2091-52.8238 61.0931-52.4651 62.4169-51.7157C63.4308-51.1127 64.1605-50.145 64.1605-48.9588C64.1605-47.8616 63.7868-47.1379 62.9765-46.7045C62.063-46.2196 60.7507-46.1653 58.887-46.1653C55.7357-46.1653 54.1671-44.6055 53.6442-41.5403L53.0407-37.7814L59.5103-37.7814C60.8571-37.7814 61.8249-36.9371 61.8249-35.6879C61.8249-34.4387 60.8571-33.557 59.5103-33.557L52.3544-33.557L51.3575-27.8654C50.1083-20.5336 46.0507-17.5721 38.5982-17.5721Z"/>
</svg>