<svg xmlns="http://www.w3.org/2000/svg" viewBox="-0.595335 -76.6353 90.21 82.76">
  <path d="M3.51169-44.1021C0.211694-44.1021-0.595335-40.9953 1.17673-38.7262L11.2484-25.7012C12.429-24.1326 14.629-24.1326 15.8355-25.7012L25.8698-38.7377C27.5931-40.9953 26.8233-44.1021 23.5722-44.1021ZM89.6102-35.2539C89.6102-58.1131 71.0392-76.6353 48.2173-76.6353C25.3697-76.6353 6.84746-58.1246 6.83594-35.1678C6.84746-31.711 9.66403-28.8944 13.1208-28.8944C16.5891-28.8944 19.4172-31.7225 19.4172-35.1793C19.4172-51.1764 32.2948-64.0655 48.2173-64.0655C64.1398-64.0655 77.0289-51.1764 77.0289-35.2539C77.0289-19.3314 64.1398-6.4423 48.2173-6.4423C40.2302-6.4423 33.4752-9.5318 27.9373-14.9365C25.0407-17.5639 21.2997-18.4367 18.4486-15.7469C15.9074-13.3671 15.706-9.41046 18.8983-6.23784C26.696 1.84032 37.5161 6.12748 48.2173 6.12748C71.0392 6.12748 89.6102-12.3948 89.6102-35.2539ZM42.8708-18.2693C45.4921-18.2693 47.1889-20.0035 47.1889-22.7482L47.1889-23.8594L54.9987-23.8594C55.5676-23.8594 56.0417-24.3334 56.0417-24.8908C56.0417-25.4598 55.5676-25.9223 54.9987-25.9223L47.1889-25.9223L47.1889-31.2288L56.5439-31.2288C58.7202-31.2288 60.1329-32.5295 60.1329-34.5078C60.1329-36.5119 58.7202-37.8127 56.5439-37.8127L47.1889-37.8127L47.1889-44.3396L57.3773-44.3396C59.7144-44.3396 61.2017-45.6661 61.2017-47.7936C61.2017-49.8954 59.7144-51.2334 57.3773-51.2334L42.8708-51.2334C40.0773-51.2334 38.5296-49.5481 38.5296-46.7431L38.5296-25.9223L34.9794-25.9223C34.4105-25.9223 33.9365-25.4598 33.9365-24.8908C33.9365-24.3334 34.4105-23.8594 34.9794-23.8594L38.5296-23.8594L38.5296-22.7482C38.5296-20.0035 40.238-18.2693 42.8708-18.2693Z" />
</svg>