<svg xmlns="http://www.w3.org/2000/svg" viewBox="6.83594 -81.8281 63.08 93.11">
  <path d="M43.4328 11.2829C60.1193 11.2829 69.9155 0.736676 69.9155-16.7941L69.9155-24.2873C69.9155-30.9103 66.6155-35.6746 62.3281-35.6746C61.0273-35.6746 60.229-34.8648 60.229-33.5871L60.229-30.6058C60.229-29.5629 59.8296-29.0631 59.2722-29.0631C58.6286-29.0631 58.2292-29.5256 58.2292-30.6058L58.2292-32.5617C58.2292-36.7203 55.4894-39.707 51.621-39.707C49.6855-39.707 48.6058-38.7134 48.6058-36.9359L48.6058-32.8058C48.6058-31.7371 48.2064-31.263 47.649-31.263C47.0054-31.263 46.6433-31.6998 46.6433-32.8058L46.6433-36.6314C46.6433-41.1406 44.0296-43.814 40.0466-43.814C38.1342-43.814 36.9941-42.7832 36.9941-41.0429L36.9941-32.8058C36.9941-31.7744 36.632-31.263 36.0746-31.263C35.4568-31.263 35.0689-31.7371 35.0689-32.8058L35.0689-59.1933C35.0689-62.3754 32.9035-64.6412 30.0117-64.6412C26.9877-64.6412 24.8799-62.4127 24.8799-59.1933L24.8799-21.7431C24.8799-20.7001 23.8023-20.6771 23.5121-21.3925L18.7494-32.831C17.8562-34.9849 16.2768-36.6845 13.6352-36.6845C10.4735-36.6845 8.20494-34.5048 8.20494-31.4353C8.20494-30.4818 8.35142-29.5629 8.58404-28.8765L15.1949-10.3067C20.5342 4.7236 30.2395 11.2829 43.4328 11.2829ZM30.1609-71.6312C32.9529-71.6312 35.2709-73.9491 35.2709-76.7554C35.2709-79.5474 32.9529-81.8281 30.1609-81.8281C27.3431-81.8281 25.0625-79.5474 25.0625-76.7554C25.0625-73.9491 27.3431-71.6312 30.1609-71.6312ZM11.9717-55.0132C14.7522-55.0132 17.0817-57.3197 17.0817-60.1002C17.0817-62.9179 14.7522-65.1728 11.9717-65.1728C9.15391-65.1728 6.83594-62.9179 6.83594-60.1002C6.83594-57.3197 9.15391-55.0132 11.9717-55.0132ZM48.5455-55.1251C51.3748-55.1251 53.6927-57.4316 53.6927-60.2494C53.6927-63.0298 51.3748-65.322 48.5455-65.322C45.7765-65.322 43.4586-63.0298 43.4586-60.2494C43.4586-57.4316 45.7765-55.1251 48.5455-55.1251ZM64.4173-55.1251C67.2466-55.1251 69.5273-57.4316 69.5273-60.2494C69.5273-63.0298 67.2466-65.322 64.4173-65.322C61.6369-65.322 59.3189-63.0298 59.3189-60.2494C59.3189-57.4316 61.6369-55.1251 64.4173-55.1251ZM64.4173-71.6312C67.2466-71.6312 69.5273-73.9491 69.5273-76.7554C69.5273-79.5474 67.2466-81.8281 64.4173-81.8281C61.6369-81.8281 59.3189-79.5474 59.3189-76.7554C59.3189-73.9491 61.6369-71.6312 64.4173-71.6312Z"/>
</svg>