<svg xmlns="http://www.w3.org/2000/svg" viewBox="9.76562 -92.6339 104.26 110.46">
  <path d="M79.8923-66.2343C80.8485-66.2343 81.5233-66.8718 81.6094-67.8769C82.5602-76.0806 82.8735-76.4224 91.4102-77.6892C92.4641-77.8126 93.0643-78.4386 93.0643-79.4064C93.0643-80.2277 92.4641-80.9025 91.6056-81.0374C82.8593-82.8583 82.5602-82.6833 81.6094-90.9243C81.5233-91.8433 80.8485-92.4808 79.8923-92.4808C79.0337-92.4808 78.3474-91.8433 78.2612-90.9732C77.1755-82.4249 76.9714-82.1835 68.3024-81.0374C67.4438-80.9513 66.8063-80.2277 66.8063-79.4064C66.8063-78.4874 67.3692-77.8499 68.2651-77.6892C77.046-75.8453 77.164-75.9945 78.2612-67.7419C78.3474-66.8718 79.071-66.2343 79.8923-66.2343ZM50.0191-76.2101C50.582-76.2101 51.01-76.615 51.1191-77.2382C51.8949-82.4201 51.9092-82.4085 57.1656-83.3335C57.8635-83.4685 58.2684-83.8476 58.2684-84.422C58.2684-85.0337 57.8635-85.4128 57.2775-85.522C51.8346-86.6335 51.8318-86.5847 51.1191-91.6058C51.01-92.2291 50.5936-92.6339 50.0191-92.6339C49.4074-92.6339 48.991-92.2175 48.9307-91.6431C48.1318-86.3609 48.1664-86.3351 42.798-85.522C42.1748-85.4501 41.7584-85.0222 41.7584-84.422C41.7584-83.8591 42.1375-83.4685 42.7607-83.3335C48.1664-82.2478 48.1061-82.3082 48.9307-77.2009C48.991-76.6265 49.4074-76.2101 50.0191-76.2101ZM21.593 17.8262C22.4258 17.8262 23.0172 17.2491 23.1148 16.402C24.2555 8.90827 24.2582 8.88523 31.9703 7.55807C32.9408 7.37428 33.4806 6.84597 33.4806 5.98738C33.4806 5.1661 32.9408 4.63778 32.1195 4.46552C24.1836 2.89149 24.1924 2.91727 23.1148-4.35266C23.0172-5.23702 22.4258-5.81417 21.593-5.81417C20.7832-5.81417 20.2176-5.23702 20.0711-4.38996C18.9678 3.2157 19.0139 3.30183 11.1525 4.46552C10.3428 4.60048 9.76562 5.1661 9.76562 5.98738C9.76562 6.84597 10.3055 7.37428 11.1152 7.55807C19.0139 9.12057 18.9047 9.09479 20.0711 16.4766C20.2176 17.2491 20.7832 17.8262 21.593 17.8262ZM43.7361 3.33761C56.5597 16.1612 73.8342 14.6773 85.7158 2.79565C92.9036-4.35478 95.7201-12.1909 94.8652-21.3285C94.2869-30.5139 88.1918-41.8921 86.0416-46.0516C83.6496-50.7006 80.5943-56.7195 79.0807-59.005C77.392-61.6005 74.4975-62.3981 72.1143-60.8729C69.3032-59.1551 68.7524-56.2376 69.9073-53.209L74.8323-40.5177C75.1483-39.6557 75.0995-39.259 74.7835-38.943C74.4932-38.6413 74.0938-38.5667 73.4387-39.2102L43.9987-68.6502C41.7044-70.9073 38.4966-70.9073 36.2654-68.6876C34.0456-66.4678 34.0456-63.1739 36.2654-60.9542L58.894-38.3628C58.1528-37.9492 57.4001-37.5613 56.61-37.1015L30.9052-62.7948C28.6855-65.0518 25.4288-65.0518 23.2091-62.7948C20.9521-60.5751 20.9521-57.3185 23.2091-55.0988L48.621-29.6496C48.1239-29.006 47.5895-28.3509 47.0667-27.6843L23.5734-51.215C21.3537-53.4347 18.0224-53.472 15.84-51.2523C13.6203-49.021 13.6203-45.7386 15.84-43.5074L41.2749-18.084C40.9101-17.199 40.6056-16.3514 40.3615-15.4664L22.5892-33.2386C20.3322-35.4956 17.0756-35.4956 14.8559-33.3132C12.6362-31.0562 12.6362-27.7623 14.8559-25.5426ZM66.2258-64.7558L62.3314-68.6502C60.0256-70.9446 56.8063-70.9073 54.5865-68.6876C54.4631-68.5641 54.3139-68.4149 54.2278-68.2542L63.1378-59.3326C63.7028-61.3806 64.7331-63.2103 66.2258-64.7558ZM104.025 2.79565C111.187-4.39209 114.03-12.1909 113.186-21.34C112.571-30.5139 106.513-41.8806 104.363-46.0516C101.997-50.7121 98.904-56.7195 97.4019-59.005C95.7017-61.6005 92.8187-62.3608 90.424-60.8729C89.0289-60.0374 88.1906-58.9177 87.8346-57.6487C89.3218-54.8206 90.7861-51.9437 92.2734-49.1156C94.4121-45.0308 101.087-32.4555 101.763-21.8234C102.805-10.4968 99.0778-0.756361 90.615 7.69484C88.9148 9.39503 87.1916 10.8741 85.3822 12.1952C92.0705 11.4771 98.638 8.22043 104.025 2.79565Z"/>
</svg>