<svg xmlns="http://www.w3.org/2000/svg" viewBox="9.76562 -82.2824 64.99 94.17">
  <path d="M21.8865-40.2289L62.6371-40.2289C60.6576-43.1076 58.0209-46.7094 55.275-50.3457C52.8566-53.4965 51.0676-55.6416 46.1711-55.6416L38.3525-55.6416C33.4561-55.6416 31.6785-53.4965 29.2487-50.3457C26.5028-46.7094 23.866-43.1076 21.8865-40.2289ZM10.4059-17.1693L33.0797-17.1693C34.708-20.6103 38.1775-22.9771 42.3164-22.9771C46.3949-22.9771 49.8644-20.6103 51.4927-17.1693L74.1293-17.1693C73.1527-21.4586 71.1759-26.0239 68.0503-31.479L16.4733-31.479C13.3477-26.0239 11.3709-21.4586 10.4059-17.1693ZM42.3164-9.48964C44.2064-9.48964 45.6455-10.8914 45.6455-12.8303C45.6455-14.7203 44.2064-16.1479 42.3164-16.1479C40.366-16.1479 38.9758-14.7203 38.9758-12.8303C38.9758-10.8914 40.366-9.48964 42.3164-9.48964ZM34.173 11.8865L50.3506 11.8865C65.3002 11.8865 73.6465 4.45641 74.758-8.38206L51.4439-8.38206C49.8156-4.95256 46.3461-2.62307 42.3164-2.62307C38.1775-2.62307 34.7195-4.95256 33.0912-8.38206L9.76562-8.38206C10.8771 4.45641 19.2234 11.8865 34.173 11.8865ZM21.5978-70.6801C23.7199-70.6801 25.4486-72.4088 25.4486-74.5308C25.4486-76.6644 23.7199-78.3816 21.5978-78.3816C19.4642-78.3816 17.7471-76.6644 17.7471-74.5308C17.7471-72.4088 19.4642-70.6801 21.5978-70.6801ZM28.9824-60.5508C31.116-60.5508 32.8331-62.2795 32.8331-64.4016C32.8331-66.5351 31.116-68.2523 28.9824-68.2523C26.8603-68.2523 25.1316-66.5351 25.1316-64.4016C25.1316-62.2795 26.8603-60.5508 28.9824-60.5508ZM42.4141-74.5809C44.5476-74.5809 46.2648-76.298 46.2648-78.4316C46.2648-80.5537 44.5476-82.2824 42.4141-82.2824C40.292-82.2824 38.5633-80.5537 38.5633-78.4316C38.5633-76.298 40.292-74.5809 42.4141-74.5809ZM42.4141-62.1276C44.5476-62.1276 46.2648-63.8563 46.2648-65.9783C46.2648-68.1119 44.5476-69.8291 42.4141-69.8291C40.292-69.8291 38.5633-68.1119 38.5633-65.9783C38.5633-63.8563 40.292-62.1276 42.4141-62.1276ZM63.2418-70.6801C65.3639-70.6801 67.0926-72.4088 67.0926-74.5308C67.0926-76.6644 65.3639-78.3816 63.2418-78.3816C61.1198-78.3816 59.3911-76.6644 59.3911-74.5308C59.3911-72.4088 61.1198-70.6801 63.2418-70.6801ZM55.8572-60.5508C57.9793-60.5508 59.708-62.2795 59.708-64.4016C59.708-66.5351 57.9793-68.2523 55.8572-68.2523C53.7237-68.2523 52.0065-66.5351 52.0065-64.4016C52.0065-62.2795 53.7237-60.5508 55.8572-60.5508Z"/>
</svg>