<svg xmlns="http://www.w3.org/2000/svg" viewBox="-5.6953 -84.9597 80.49 99.58">
  <path d="M37.157-75.4664C47.0812-75.4664 55.0551-67.4926 55.0551-57.6172C55.0551-49.8699 50.0625-43.1453 42.4474-40.7154L49.6349-33.5279C59.22-39.0395 64.5599-47.6705 64.5599-57.6172C64.5599-72.7418 52.3562-84.9597 37.157-84.9597C26.5267-84.9597 17.3843-78.9994 12.8582-70.2558L20.0802-63.0338C22.3894-70.2555 29.1283-75.4664 37.157-75.4664ZM37.157-58.1346C40.5607-58.1346 43.3181-60.9293 43.3181-64.2957C43.3181-67.6879 40.5607-70.4453 37.157-70.4453C33.7533-70.4453 31.0074-67.7252 31.0074-64.2957C31.0074-60.9293 33.7648-58.1346 37.157-58.1346ZM41.0912 12.4187L52.9076 0.602319C53.8875-0.366053 53.8298-1.67349 52.9794-2.54967L39.266-16.3119L39.266-7.40549L43.3885-3.36914L37.157 2.9227L33.3254-0.871635L33.3254-22.3448L24.9512-30.719L24.9512 2.13691C24.9512 3.85136 25.5398 5.87303 26.9844 7.08494L33.2344 12.3699C35.6379 14.4173 38.8857 14.6242 41.0912 12.4187ZM-4.38847-68.8777L68.5292 3.94235C69.9222 5.33531 72.1452 5.2234 73.4148 3.94235C74.7962 2.54938 74.7331 0.449771 73.4148-0.868589L0.545904-73.6886C-0.847063-75.0816-3.07011-75.0816-4.38847-73.7632C-5.6953-72.4564-5.658-70.1472-4.38847-68.8777Z"/>
</svg>