<svg xmlns="http://www.w3.org/2000/svg" viewBox="6.83594 -76.6353 82.77 82.76">
  <path d="M48.2173 6.12748C71.0765 6.12748 89.6102-12.3948 89.6102-35.2539C89.6102-58.1131 71.0765-76.6353 48.2173-76.6353C25.3697-76.6353 6.83594-58.1131 6.83594-35.2539C6.83594-12.3948 25.3697 6.12748 48.2173 6.12748ZM48.2173-6.4423C32.2948-6.4423 19.4172-19.3314 19.4172-35.2539C19.4172-51.1764 32.2948-64.0655 48.2173-64.0655C64.1398-64.0655 77.0289-51.1764 77.0289-35.2539C77.0289-19.3314 64.1398-6.4423 48.2173-6.4423ZM34.7077-20.7711L43.4959-20.7711C45.0984-20.7711 46.4195-22.0922 46.4195-23.6947C46.4195-25.2972 45.0984-26.6298 43.4959-26.6298L38.3292-26.6298L38.3292-46.5547C38.3292-48.5248 36.7267-50.1274 34.7565-50.1274C32.7491-50.1274 31.1466-48.5248 31.1466-46.5547L31.1466-24.5275C31.1466-22.2156 32.4189-20.7711 34.7077-20.7711ZM51.9173-20.8199L63.7811-20.8199C65.7051-20.8199 66.4836-22.1322 66.4836-23.5713C66.4836-25.0707 65.6935-26.3714 63.7811-26.3714L56.9779-26.3714L56.9779-26.6644L61.0603-31.5457C64.0686-35.1344 66.0211-37.8918 66.0211-41.8578C66.0211-47.292 62.2613-50.4434 57.0767-50.4434C52.4205-50.4434 48.6004-47.0248 48.6004-42.9951C48.6004-41.1973 49.64-39.8877 51.5125-39.8877C52.9658-39.8877 54.0943-40.5971 54.6199-42.3115C55.0654-43.7973 55.6228-44.9895 57.0652-44.9895C58.7057-44.9895 59.2922-43.4555 59.2922-41.6395C59.2922-38.9736 57.4707-36.3478 55.2938-33.608L50.4613-27.523C49.1205-25.8261 48.6261-24.8265 48.6261-23.6086C48.6261-21.8568 49.7662-20.8199 51.9173-20.8199Z" />
</svg>