<svg xmlns="http://www.w3.org/2000/svg" viewBox="9.76562 -85.1614 93.97 98.97">
  <path d="M56.7556 13.8126C78.7067 13.8126 93.4116-1.18521 93.4116-23.6361C93.4116-35.7537 88.2215-48.1181 79.6481-56.0623C79.1401-67.8347 70.3374-74.7304 56.7556-74.7304C43.1507-74.7304 34.3595-67.8232 33.8515-56.0623C25.3012-48.1297 20.0881-35.7883 20.0881-23.6361C20.0881-1.18521 34.8045 13.8126 56.7556 13.8126ZM56.7556-44.1188C63.1982-44.1188 69.9277-45.1157 75.2175-46.7704C80.3696-40.7542 83.9013-32.5796 83.9013-23.6361C83.9013-6.82775 73.0757 4.29081 56.7556 4.29081C40.4239 4.29081 29.6099-6.82775 29.6099-23.6361C29.6099-32.5796 33.13-40.7427 38.2937-46.7704C43.572-45.1157 50.3015-44.1188 56.7556-44.1188ZM53.0568 6.57967L60.3622 6.57967L60.3622-36.195C60.3622-38.2424 58.7569-39.8477 56.7095-39.8477C54.662-39.8477 53.0568-38.2424 53.0568-36.195ZM44.187-31.3082C47.3202-31.3082 49.879-33.8785 49.879-37.0002C49.879-40.1219 47.3202-42.6922 44.187-42.6922C41.1027-42.6922 38.5439-40.1219 38.5439-37.0002C38.5439-33.8785 41.1027-31.3082 44.187-31.3082ZM39.4595-15.7727C42.9833-15.7727 45.8954-18.6848 45.8954-22.2574C45.8954-25.7439 42.9833-28.656 39.4595-28.656C35.8869-28.656 32.9748-25.7812 32.9748-22.2574C32.9748-18.6848 35.8869-15.7727 39.4595-15.7727ZM44.187-2.38832C46.9872-2.38832 49.2876-4.6514 49.2876-7.44007C49.2876-10.2403 46.9872-12.5522 44.187-12.5522C41.3984-12.5522 39.098-10.2403 39.098-7.44007C39.098-4.6514 41.3984-2.38832 44.187-2.38832ZM69.3126-31.3082C72.397-31.3082 74.9557-33.8785 74.9557-37.0002C74.9557-40.1219 72.397-42.6922 69.3126-42.6922C66.1794-42.6922 63.6206-40.1219 63.6206-37.0002C63.6206-33.8785 66.1794-31.3082 69.3126-31.3082ZM74.0401-15.7727C77.6128-15.7727 80.5249-18.6848 80.5249-22.2574C80.5249-25.7812 77.6128-28.656 74.0401-28.656C70.5163-28.656 67.6042-25.7439 67.6042-22.2574C67.6042-18.6848 70.5163-15.7727 74.0401-15.7727ZM69.3126-2.38832C72.1013-2.38832 74.4132-4.6514 74.4132-7.44007C74.4132-10.2403 72.1013-12.5522 69.3126-12.5522C66.5239-12.5522 64.212-10.2403 64.212-7.44007C64.212-4.6514 66.5239-2.38832 69.3126-2.38832ZM39.296-74.4453L41.3583-73.8851C42.657-73.5461 42.8556-73.1148 42.7004-72.4564L41.9252-69.2926L51.194-69.3414L51.5013-72.1925C52.0153-76.9798 49.6261-80.5552 44.8646-82.1835L42.179-83.1112C36.2035-85.1614 33.2947-76.0275 39.296-74.4453ZM74.2036-74.4453C80.2049-76.0275 77.2962-85.1614 71.3206-83.1112L68.6351-82.1835C63.8736-80.5552 61.4843-76.9798 61.9984-72.1925L62.3171-69.3414L71.5745-69.2926L70.7993-72.4564C70.6555-73.1148 70.8427-73.5461 72.1413-73.8851ZM34.6204-47.6705L23.6234-56.2245C21.266-58.0767 18.5065-58.1112 16.7778-56.015C15.0491-54.0164 15.4254-51.0099 17.734-49.2066L28.7798-40.6526ZM25.7239-30.5713L14.7103-30.5224C11.7785-30.5224 9.76562-28.6072 9.76562-25.8592C9.76562-23.1227 11.7785-21.2448 14.7103-21.2448L25.7239-21.2936ZM27.5746-6.25667L19.3265 0.730612C17.0926 2.64583 16.6416 5.56612 18.3703 7.65087C20.099 9.74715 23.0078 9.77566 25.2533 7.84891L33.4897 0.873159ZM78.8793-47.6705L84.7198-40.6526L95.7656-49.2066C98.0742-51.0099 98.4621-54.0164 96.7334-56.015C95.0047-58.1112 92.2336-58.0767 89.8762-56.2245ZM87.7757-30.5713L87.7757-21.2936L98.7893-21.2448C101.721-21.2448 103.734-23.1227 103.734-25.8592C103.734-28.6072 101.721-30.5224 98.7893-30.5224ZM85.9251-6.25667L80.0099 0.861634L88.2464 7.84891C90.4919 9.77566 93.4006 9.74715 95.1293 7.65087C96.858 5.56612 96.4071 2.64583 94.1731 0.730612Z"/>
</svg>