<svg xmlns="http://www.w3.org/2000/svg" viewBox="9.76562 -70.9624 104.49 71.42">
  <path d="M15.2583-59.604L89.7895-59.604C92.8617-59.604 95.2937-62.2856 95.2937-65.2832C95.2937-68.3927 92.899-70.9624 89.7895-70.9624L15.2583-70.9624C12.1861-70.9624 9.76562-68.3181 9.76562-65.2832C9.76562-62.3602 12.2234-59.604 15.2583-59.604ZM15.2583-39.5844L40.296-39.5844C43.3682-39.5844 45.8002-42.266 45.8002-45.2637C45.8002-48.3732 43.4055-50.9429 40.296-50.9429L15.2583-50.9429C12.1861-50.9429 9.76562-48.2986 9.76562-45.2637C9.76562-42.3407 12.2234-39.5844 15.2583-39.5844ZM15.2583-19.5649L40.296-19.5649C43.3682-19.5649 45.8002-22.2465 45.8002-25.2441C45.8002-28.3537 43.4055-30.9234 40.296-30.9234L15.2583-30.9234C12.1861-30.9234 9.76562-28.2791 9.76562-25.2441C9.76562-22.3211 12.2234-19.5649 15.2583-19.5649ZM15.2583 0.454628L40.296 0.454628C43.3682 0.454628 45.8002-2.22698 45.8002-5.22461C45.8002-8.33415 43.4055-10.9038 40.296-10.9038L15.2583-10.9038C12.1861-10.9038 9.76562-8.25954 9.76562-5.22461C9.76562-2.30159 12.2234 0.454628 15.2583 0.454628ZM60.7113-0.507076L106.745-0.507076C111.27-0.507076 114.251-3.52502 114.251-8.00175L114.251-44.4209C114.251-48.9234 111.27-51.904 106.745-51.904L60.7113-51.904C56.1973-51.904 53.2051-48.9234 53.2051-44.4209L53.2051-8.00175C53.2051-3.52502 56.1973-0.507076 60.7113-0.507076ZM60.0947-38.1769C59.4742-38.1769 58.9859-38.6279 58.9859-39.2742L58.9859-43.7318C58.9859-44.3781 59.4742-44.8406 60.0947-44.8406L64.0553-44.8406C64.6758-44.8406 65.1641-44.3781 65.1641-43.7318L65.1641-39.2742C65.1641-38.6279 64.6758-38.1769 64.0553-38.1769ZM60.0947-27.9949C59.4742-27.9949 58.9859-28.4574 58.9859-29.0806L58.9859-33.5383C58.9859-34.1588 59.4742-34.647 60.0947-34.647L64.0553-34.647C64.6758-34.647 65.1641-34.1588 65.1641-33.5383L65.1641-29.0806C65.1641-28.4574 64.6758-27.9949 64.0553-27.9949ZM60.0947-17.8502C59.4742-17.8502 58.9859-18.3385 58.9859-18.9359L58.9859-23.3935C58.9859-24.0513 59.4742-24.5023 60.0947-24.5023L64.0553-24.5023C64.6758-24.5023 65.1641-24.0513 65.1641-23.3935L65.1641-18.9359C65.1641-18.3385 64.6758-17.8502 64.0553-17.8502ZM60.0947-7.65662C59.4742-7.65662 58.9859-8.1076 58.9859-8.75389L58.9859-13.2115C58.9859-13.8693 59.4742-14.3203 60.0947-14.3203L64.0553-14.3203C64.6758-14.3203 65.1641-13.8693 65.1641-13.2115L65.1641-8.75389C65.1641-8.1076 64.6758-7.65662 64.0553-7.65662ZM103.412-38.1769C102.78-38.1769 102.292-38.6279 102.292-39.2742L102.292-43.7318C102.292-44.3781 102.78-44.8406 103.412-44.8406L107.361-44.8406C107.993-44.8406 108.482-44.3781 108.482-43.7318L108.482-39.2742C108.482-38.6279 107.993-38.1769 107.361-38.1769ZM103.412-27.9949C102.78-27.9949 102.292-28.4574 102.292-29.0806L102.292-33.5383C102.292-34.1588 102.78-34.647 103.412-34.647L107.361-34.647C107.993-34.647 108.482-34.1588 108.482-33.5383L108.482-29.0806C108.482-28.4574 107.993-27.9949 107.361-27.9949ZM103.412-17.8502C102.78-17.8502 102.292-18.3385 102.292-18.9359L102.292-23.3935C102.292-24.0513 102.78-24.5023 103.412-24.5023L107.361-24.5023C107.993-24.5023 108.482-24.0513 108.482-23.3935L108.482-18.9359C108.482-18.3385 107.993-17.8502 107.361-17.8502ZM103.412-7.65662C102.78-7.65662 102.292-8.1076 102.292-8.75389L102.292-13.2115C102.292-13.8693 102.78-14.3203 103.412-14.3203L107.361-14.3203C107.993-14.3203 108.482-13.8693 108.482-13.2115L108.482-8.75389C108.482-8.1076 107.993-7.65662 107.361-7.65662ZM71.5972-8.09455C70.641-8.09455 69.9404-8.83243 69.9404-9.75137L69.9404-20.775C69.9404-21.7428 70.641-22.4433 71.5972-22.4433L95.8961-22.4433C96.8523-22.4433 97.5529-21.7428 97.5529-20.775L97.5529-9.75137C97.5529-8.83243 96.8523-8.09455 95.8961-8.09455ZM71.5972-29.9935C70.641-29.9935 69.9404-30.7314 69.9404-31.6876L69.9404-42.7085C69.9404-43.6648 70.641-44.4027 71.5972-44.4027L95.8961-44.4027C96.8523-44.4027 97.5529-43.6648 97.5529-42.7085L97.5529-31.6876C97.5529-30.7314 96.8523-29.9935 95.8961-29.9935Z" />
</svg>