<svg xmlns="http://www.w3.org/2000/svg" viewBox="6.83594 -76.6353 82.77 82.76">
  <path d="M48.2173 6.12748C71.0765 6.12748 89.6102-12.3948 89.6102-35.2539C89.6102-58.1131 71.0765-76.6353 48.2173-76.6353C25.3697-76.6353 6.83594-58.1131 6.83594-35.2539C6.83594-12.3948 25.3697 6.12748 48.2173 6.12748ZM48.2173-6.4423C32.2948-6.4423 19.4172-19.3314 19.4172-35.2539C19.4172-51.1764 32.2948-64.0655 48.2173-64.0655C64.1398-64.0655 77.0289-51.1764 77.0289-35.2539C77.0289-19.3314 64.1398-6.4423 48.2173-6.4423ZM56.7255-57.1668C55.3814-57.1668 54.2672-55.9807 54.2672-54.6365L54.2672-48.3101L54.3648-47.5086L54.5629-47.1986L53.1775-48.759C52.7007-49.3361 52.089-49.8414 51.1904-49.8414C49.9181-49.8414 48.8757-48.7875 48.8757-47.5641C48.8757-46.74 49.358-46.1025 49.9209-45.5512L54.8761-40.8488C55.4879-40.2859 56.0392-40.0418 56.7255-40.0418C57.4003-40.0418 57.9517-40.2859 58.5634-40.8488L63.5187-45.5512C64.0816-46.1025 64.5638-46.74 64.5638-47.5641C64.5638-48.7875 63.5215-49.8414 62.2492-49.8414C61.3621-49.8414 60.7158-49.3361 60.2621-48.759L58.9574-47.2332L59.0748-47.474L59.1724-48.3101L59.1724-54.6365C59.1724-55.9807 58.0582-57.1668 56.7255-57.1668ZM31.1339-18.4707L65.2893-18.4707C66.9461-18.4707 68.2184-19.8461 68.2184-21.4398C68.2184-23.0335 66.9576-24.4204 65.2893-24.4204L31.1339-24.4204C29.4655-24.4204 28.2048-22.9962 28.2048-21.4398C28.2048-19.8834 29.5143-18.4707 31.1339-18.4707ZM34.1642-27.3013L61.6517-27.3013C61.8646-27.6091 61.9941-27.8797 62.1352-28.1847C62.6377-29.3621 62.54-30.4791 61.9283-31.0535C61.3139-31.6191 60.3318-31.6795 59.2895-31.2373C58.1719-30.6886 56.6379-30.4445 55.0578-30.4445C48.2953-30.4445 44.0406-34.5039 44.0406-41.0223C44.0406-42.6858 44.345-44.4815 44.9683-45.8915C45.4823-47.0573 45.422-47.9504 44.8937-48.5621C44.305-49.1996 43.3142-49.3088 42.088-48.8063C36.3548-46.5487 32.4886-40.7951 32.4886-34.4238C32.4886-31.8666 33.1037-29.4273 34.1642-27.3013Z" />
</svg>