<svg xmlns="http://www.w3.org/2000/svg" viewBox="6.83594 -76.6353 82.77 82.76">
  <path d="M48.2173 6.12748C71.0765 6.12748 89.6102-12.3948 89.6102-35.2539C89.6102-58.1131 71.0765-76.6353 48.2173-76.6353C25.3697-76.6353 6.83594-58.1131 6.83594-35.2539C6.83594-12.3948 25.3697 6.12748 48.2173 6.12748ZM48.2173-6.4423C32.2948-6.4423 19.4172-19.3314 19.4172-35.2539C19.4172-51.1764 32.2948-64.0655 48.2173-64.0655C64.1398-64.0655 77.0289-51.1764 77.0289-35.2539C77.0289-19.3314 64.1398-6.4423 48.2173-6.4423ZM37.8015-17.7504C40.9456-17.7504 42.7631-19.766 42.7631-23.157L42.7631-35.4437L43.1192-35.4437L54.2596-20.5988C55.9306-18.4137 57.108-17.7504 59.1839-17.7504C61.8804-17.7504 63.5488-19.5049 63.5488-22.3363L63.5488-47.4091C63.5488-50.8 61.7312-52.8156 58.5871-52.8156C55.466-52.8156 53.66-50.8143 53.66-47.4091L53.66-35.5293L53.2924-35.5293L42.462-49.7319C40.5671-52.1897 39.5159-52.8156 37.4027-52.8156C34.6431-52.8156 32.8744-50.8889 32.8744-47.9571L32.8744-23.157C32.8744-19.7402 34.6804-17.7504 37.8015-17.7504Z" />
</svg>