<svg xmlns="http://www.w3.org/2000/svg" viewBox="9.76562 -91.1509 64.88 111.79">
  <path d="M9.76562-26.9158C9.76562-12.2477 12.8072-0.483424 19.8555 11.0713C24.347 18.4146 32.3306 20.6431 40.1134 16.8982L47.8655 13.1384C55.5079 9.44507 59.5227 4.10915 59.5227-2.81778C59.5227-5.87909 58.7815-7.12618 58.7815-8.42209C58.7815-9.66098 59.4487-10.2591 60.7798-10.2591L67.8456-10.2591C71.5411-10.2591 74.6506-13.4004 74.6506-17.6385L74.6506-26.2668C74.6506-30.8209 71.1993-34.1833 67.0759-34.1833L57.6521-34.1833C55.2868-34.1833 54.1401-35.3992 54.1401-37.6465C54.1401-45.3076 55.5792-55.5182 61.5219-68.9662C65.1088-77.1682 62.3751-83.48 53.7825-86.8458L50.0228-88.3107C42.7255-91.1509 36.3961-87.7335 32.6912-83.8564C16.3975-66.7814 9.76562-43.6002 9.76562-26.9158Z"/>
</svg>