<svg xmlns="http://www.w3.org/2000/svg" viewBox="6.83594 -79.1143 104.23 87.36">
  <path d="M61.9838 8.24713C81.7847 8.24713 94.9977 1.04482 94.9977-9.74712C94.9977-18.5092 88.8136-19.9774 88.8136-24.7361C88.8136-31.149 111.068-31.65 111.068-49.3756C111.068-67.2476 92.5697-79.1143 64.8905-79.1143C30.1136-79.1143 6.83594-60.6828 6.83594-34.9236C6.83594-9.0247 28.9648 8.24713 61.9838 8.24713ZM61.9838-5.27829C36.9717-5.27829 20.3614-17.1238 20.3614-34.9236C20.3614-53.3297 38.1205-65.5889 64.8905-65.5889C84.5282-65.5889 97.5422-59.0908 97.5422-49.3756C97.5422-37.8191 75.2909-37.8236 75.2909-26.2168C75.2909-19.2519 81.1739-18.2369 81.1739-12.884C81.1739-8.30564 73.4876-5.27829 61.9838-5.27829ZM58.2132-13.0859C65.0079-13.0859 69.7211-17.8107 69.7211-24.5681C69.7211-30.8664 64.5975-36.0388 58.2132-36.0388C51.9149-36.0388 46.7798-30.8664 46.7798-24.5681C46.7798-18.2211 51.9149-13.0859 58.2132-13.0859ZM58.2132-20.1927C55.7942-20.1927 53.8493-22.1376 53.8493-24.6054C53.8493-27.4265 55.9522-28.8717 58.1155-28.9205C60.3765-28.9693 62.6259-27.5357 62.6259-24.6054C62.6259-22.1376 60.7182-20.1927 58.2132-20.1927ZM33.2629-30.0775C36.7012-30.0775 39.4817-32.9557 39.4817-36.3939C39.4817-39.8322 36.7012-42.6127 33.2629-42.6127C29.8246-42.6127 26.9953-39.8322 26.9953-36.3939C26.9953-32.9557 29.8246-30.0775 33.2629-30.0775ZM46.2579-41.708C50.4028-41.708 53.8295-45.0371 53.8295-49.2912C53.8295-53.485 50.4028-56.7768 46.2579-56.7768C42.0526-56.7768 38.6516-53.485 38.6516-49.2912C38.6516-45.0371 42.0526-41.708 46.2579-41.708ZM64.3743-47.3524C67.8126-47.3524 70.6046-50.1444 70.6046-53.5826C70.6046-57.0582 67.8126-59.8129 64.3743-59.8129C60.936-59.8129 58.0952-57.0582 58.0952-53.5826C58.0952-50.1444 60.936-47.3524 64.3743-47.3524ZM80.6237-45.0486C83.453-45.0486 85.7337-47.3035 85.7337-50.1817C85.7337-53.011 83.453-55.3147 80.6237-55.3147C77.7829-55.3147 75.4792-53.011 75.4792-50.1817C75.4792-47.3035 77.7829-45.0486 80.6237-45.0486Z"/>
</svg>