<svg xmlns="http://www.w3.org/2000/svg" viewBox="5.98887 -81.6892 84.6 94.17">
  <path d="M73.6765-33.992L45.1099-5.47421C38.3683 1.32776 29.323 0.830682 23.4948-5.04628C17.6179-10.8859 17.1581-19.8709 23.9485-26.6729L63.4839-66.1967C67.0374-69.7502 72.639-71.0483 76.4509-67.2479C80.2886-63.3498 78.9533-57.8343 75.4113-54.2808L36.0949-14.8783C35.0832-13.8551 33.9161-14.1541 33.2292-14.7922C32.6284-15.4418 32.3524-16.5858 33.3642-17.609L60.6003-44.8451C62.6159-46.8723 62.6505-49.8584 60.7095-51.7994C58.7685-53.6915 55.7335-53.6685 53.7552-51.6902L26.3726-24.3076C21.5596-19.4715 21.7949-11.9532 26.117-7.63113C30.8181-2.9415 37.9201-3.0622 42.7562-7.88679L82.3424-47.4846C90.5877-55.7299 90.5131-66.6777 83.0749-74.1533C75.7343-81.4192 64.6027-81.6892 56.3574-73.4812L16.4918-33.5179C5.98887-22.9893 6.47716-7.56957 16.2476 2.20092C26.0554 11.9599 41.4751 12.4855 52.0038 1.99408L80.8145-26.8166C82.7182-28.6715 82.6809-32.2348 80.6911-34.0896C78.862-36.0537 75.6548-35.9214 73.6765-33.992Z" />
</svg>