<svg xmlns="http://www.w3.org/2000/svg" viewBox="6.83594 -75.5723 141.93 80.18">
  <path d="M77.1649-31.9742C78.8162-29.8033 82.199-29.6799 84.5334-32.1668C87.6672-35.5569 89.273-41.0772 89.273-46.9278C89.273-52.7899 87.6672-58.2987 84.5334-61.726C82.199-64.2129 78.8162-64.0522 77.1649-61.8813C75.7116-59.9342 76.1971-57.6569 77.6016-55.6292C79.0182-53.6178 80.167-49.953 80.167-46.9278C80.167-43.9025 79.0182-40.2377 77.6016-38.2637C76.1598-36.2475 75.7116-33.9213 77.1649-31.9742ZM89.9445-20.8014C91.6963-18.619 94.7718-18.2832 97.4134-20.9709C103.612-27.3307 106.617-36.8434 106.617-46.9278C106.617-56.9375 103.164-66.7487 97.4134-72.8473C94.8464-75.5723 91.7336-75.1619 89.9445-73.0168C88.3047-71.044 88.8187-68.6202 90.6166-66.6643C95.1121-61.7463 97.5107-54.6229 97.5107-46.9278C97.5107-39.1953 95.0375-32.0834 90.6166-27.1539C88.856-25.198 88.342-22.7857 89.9445-20.8014ZM107.051-0.289922L145.052-0.289922L135.852-44.7299C135.057-48.5955 132.843-50.9271 128.662-50.9271L123.492-50.9271C119.3-50.9271 117.011-48.5955 116.216-44.7299ZM107.67 4.60381L144.447 4.60381C146.813 4.60381 148.763 2.65402 148.763 0.2763C148.763-2.1272 146.813-4.03969 144.447-4.03969L107.67-4.03969C105.292-4.03969 103.343-2.1272 103.343 0.2763C103.343 2.65402 105.292 4.60381 107.67 4.60381ZM17.0911 4.60381C23.6195 4.60381 27.3835 0.667529 27.3835-6.13355L27.3835-19.2031L39.593-19.2031C57.1417-19.2031 69.1455-30.2112 69.1455-46.9278C69.1455-63.8165 57.7128-74.7901 40.8355-74.7901L17.0911-74.7901C10.6-74.7901 6.83594-70.8654 6.83594-64.0155L6.83594-6.13355C6.83594 0.679053 10.6 4.60381 17.0911 4.60381ZM27.3835-34.8314L27.3835-58.8634L35.5536-58.8634C43.5999-58.8634 48.3653-54.7124 48.3653-46.8905C48.3653-39.0055 43.5999-34.8314 35.4417-34.8314Z" />
</svg>