<svg xmlns="http://www.w3.org/2000/svg" viewBox="6.47716 -78.5138 91.41 86.51">
  <path d="M8.73144-35.9217L19.8758-2.49023C22.1301 4.20681 27.1642 7.99175 34.3007 7.99175L70.0659 7.99175C77.2024 7.99175 82.2366 4.20681 84.4909-2.49023L95.6352-35.9217C97.8895-42.7279 95.8909-48.7183 90.2593-52.8681L61.1462-74.2548C55.3566-78.5138 49.0101-78.5138 43.2205-74.2548L14.1074-52.8681C8.47578-48.7183 6.47716-42.7279 8.73144-35.9217ZM52.1833-64.922C53.0222-64.922 53.8611-64.5944 54.6714-64.014L82.3182-43.6602C84.065-42.35 84.6137-40.8161 83.9586-38.8908L73.3107-7.07493C72.6814-5.18702 71.142-4.12432 69.2453-4.12432L52.1833-4.12432Z"/>
</svg>