<svg xmlns="http://www.w3.org/2000/svg" viewBox="6.83594 -76.2128 98.08 82.1">
  <path d="M55.88-57.2639C62.6644-57.2639 68.9374-55.0205 73.9783-51.2146C75.0579-50.4049 76.4448-50.491 77.4384-51.4846L87.0284-61.1004C88.2431-62.315 88.1942-64.1068 86.8562-65.1865C78.415-72.0855 67.63-76.2128 55.88-76.2128C44.13-76.2128 33.3335-72.0855 24.9039-65.1865C23.5658-64.1068 23.517-62.315 24.7316-61.1004L34.3101-51.4846C35.3037-50.491 36.7394-50.4049 37.8679-51.2635C42.9087-55.0205 49.1445-57.2639 55.88-57.2639ZM6.83594-27.1803C6.83594-15.0084 11.2732-3.88774 18.5826 4.66537C19.625 5.89153 21.3421 5.81693 22.5195 4.63959L32.1671-5.00806C33.1634-5.99281 33.1749-7.37092 32.3021-8.49063C28.1775-13.6867 25.7964-20.1836 25.7964-27.1803C25.7964-33.9158 28.0283-40.1516 31.7968-45.1809C32.6181-46.3094 32.6181-47.7078 31.5873-48.7387L21.9599-58.3287C20.7453-59.5433 18.9535-59.506 17.8738-58.1679C10.9748-49.7152 6.83594-38.9303 6.83594-27.1803ZM104.913-27.1803C104.913-38.9676 100.748-49.8271 93.7628-58.3172C92.7577-59.5433 91.0032-59.5433 89.7886-58.3287L80.1728-48.7387C79.1419-47.7078 79.1419-46.3094 79.9632-45.1809C83.7318-40.1516 85.9636-33.9158 85.9636-27.1803C85.9636-20.1836 83.5825-13.6867 79.4464-8.49063C78.5851-7.37092 78.5966-5.99281 79.5814-5.00806L89.229 4.63959C90.4064 5.81693 92.1608 5.81693 93.2778 4.55346C100.524-3.99965 104.913-15.0457 104.913-27.1803ZM48.7505-10.8584C51.2829-10.8584 52.9051-12.4691 52.9051-15.0761L52.9051-19.3371L57.9878-19.3371C65.4782-19.3371 69.9331-24.734 69.9331-31.8338C69.9331-38.5402 65.7339-43.9344 58.5331-43.9344L49.0232-43.9344C46.3042-43.9344 44.5931-42.2002 44.5931-39.4813L44.5931-15.0761C44.5931-12.4691 46.1923-10.8584 48.7505-10.8584ZM52.9051-25.2408L52.9051-37.8815L56.3052-37.8815C59.6986-37.8815 61.5723-35.546 61.5723-31.7965C61.5723-27.9324 59.7217-25.2408 56.2306-25.2408ZM41.2837-34.1897C41.2837-33.5834 41.7205-33.1582 42.3267-33.1582L71.8171-33.1582C72.4118-33.1582 72.8601-33.595 72.8601-34.1897C72.8601-34.7356 72.4118-35.1838 71.8171-35.1838L42.3267-35.1838C41.7205-35.1838 41.2837-34.7356 41.2837-34.1897ZM41.2837-29.1938C41.2837-28.599 41.7205-28.1623 42.3267-28.1623L71.8171-28.1623C72.4118-28.1623 72.8601-28.6106 72.8601-29.1938C72.8601-29.7885 72.4118-30.2252 71.8171-30.2252L42.3267-30.2252C41.7205-30.2252 41.2837-29.7885 41.2837-29.1938Z"/>
</svg>