<svg xmlns="http://www.w3.org/2000/svg" viewBox="9.76562 -78.0419 108.68 79.88">
  <path d="M24.3431 1.84213L86.1674 1.84213C95.1154 1.84213 100.411-3.45315 100.411-12.7008L100.411-29.3278L87.9331-29.3278L87.9331-14.4859C87.9331-11.7564 86.6399-10.647 84.0942-10.647L26.0821-10.647C23.5364-10.647 22.2432-11.7564 22.2432-14.4974L22.2432-57.5405C22.2432-60.0346 23.8606-61.5544 26.4436-61.5544L31.2142-61.5544C34.3902-61.5544 36.2884-60.8708 39.0765-58.7975L40.7718-57.5159C44.0454-55.0548 48.3948-54.2735 53.1875-54.2735L63.0538-54.2735L63.0538-66.7511L54.3715-66.7511C53.4338-66.7511 49.2227-67.472 46.472-69.5079L44.7766-70.7896C41.5288-73.2249 39.4292-74.0319 34.6364-74.0319L24.072-74.0319C15.3593-74.0319 9.76562-68.6105 9.76562-59.2998L9.76562-12.7008C9.76562-3.45315 15.0724 1.84213 24.3431 1.84213ZM26.8337-41.3116L62.7927-41.3116L62.7927-48.695L29.9532-48.695C27.8563-48.695 26.8337-47.8188 26.8337-45.5497ZM69.9146-24.4978L103.872-24.4978C113.143-24.4978 118.449-29.7815 118.449-39.0291L118.449-63.5105C118.449-72.7582 113.143-78.0419 103.872-78.0419L69.9146-78.0419C60.6324-78.0419 55.3371-72.7582 55.3371-63.5105L55.3371-39.0291C55.3371-29.7815 60.6324-24.4978 69.9146-24.4978ZM71.5614-36.8601C69.0157-36.8601 67.711-37.981 67.711-40.7451L67.711-61.7946C67.711-64.5587 69.0157-65.6796 71.5614-65.6796L102.214-65.6796C104.771-65.6796 106.076-64.5587 106.076-61.7946L106.076-40.7451C106.076-37.981 104.771-36.8601 102.237-36.8601ZM86.9062-38.7356C88.9163-38.7356 90.1913-40.0221 90.1913-41.9834L90.1913-47.9674L96.1753-47.9674C98.0994-47.9674 99.4232-49.2797 99.4232-51.2525C99.4232-53.2139 98.0994-54.5262 96.1753-54.5262L90.1913-54.5262L90.1913-60.3983C90.1913-62.3969 88.9163-63.7207 86.9062-63.6834C84.9449-63.6461 83.6326-62.3596 83.6326-60.3983L83.6326-54.5262L77.7232-54.5262C75.713-54.5262 74.4007-53.2139 74.438-51.2525C74.4753-49.2797 75.7876-47.9674 77.7232-47.9674L83.6326-47.9674L83.6326-41.9834C83.6326-40.0221 84.9449-38.7356 86.9062-38.7356Z"/>
</svg>