<svg xmlns="http://www.w3.org/2000/svg" viewBox="9.76562 -72.7406 77.84 75.07">
  <path d="M24.3431 2.33042L73.0275 2.33042C82.3097 2.33042 87.605-2.96486 87.605-12.2125L87.605-58.1977C87.605-67.4453 82.3097-72.7406 73.0275-72.7406L24.3431-72.7406C15.0724-72.7406 9.76562-67.4453 9.76562-58.1977L9.76562-12.2125C9.76562-2.96486 15.0724 2.33042 24.3431 2.33042ZM34.4566-34.2412C31.7255-34.2412 29.5804-36.3864 29.5804-39.1662L29.5804-50.8192C29.5804-53.5387 31.7255-55.7557 34.4566-55.7557C37.2134-55.7557 39.4189-53.5387 39.4189-50.8192L39.4189-39.1662C39.4189-36.4237 37.2134-34.2412 34.4566-34.2412ZM43.6851-13.3186C42.2318-13.3186 41.3732-14.1514 41.3732-15.5443L41.3732-19.3305C41.3732-23.4633 44.5152-26.6914 48.6853-26.6914C52.8181-26.6914 55.9974-23.4518 55.9974-19.3305L55.9974-15.5443C55.9974-14.1514 55.1388-13.3186 53.697-13.3186ZM62.8279-34.2412C60.1083-34.2412 57.9517-36.3864 57.9517-39.1662L57.9517-50.8192C57.9517-53.5387 60.1083-55.7557 62.8279-55.7557C65.5847-55.7557 67.7901-53.5387 67.7901-50.8192L67.7901-39.1662C67.7901-36.4237 65.5847-34.2412 62.8279-34.2412Z"/>
</svg>