<svg xmlns="http://www.w3.org/2000/svg" viewBox="9.76562 -76.2204 90.82 85.94">
  <path d="M37.4415 9.71772C39.3743 9.71772 40.9938 8.95072 43.343 6.89721L58.0194-5.97037L80.8897-5.97037C92.9014-5.97037 100.581-13.684 100.581-25.6496L100.581-56.5296C100.581-68.4953 92.9014-76.2204 80.8897-76.2204L29.4564-76.2204C17.4447-76.2204 9.76562-68.4953 9.76562-56.5296L9.76562-25.6496C9.76562-13.684 18.1908-5.97037 28.3373-5.97037L32.8753-5.97037L32.8753 4.72633C32.8753 7.81069 34.627 9.71772 37.4415 9.71772ZM34.813-41.9455C31.1657-41.9455 29.4913-43.6457 29.4913-47.2814L29.4913-53.1135C29.4913-56.7492 31.1657-58.4494 34.813-58.4494L49.1363-58.4494C52.772-58.4494 54.4952-56.7492 54.4952-53.1135L54.4952-47.2814C54.4952-43.6457 52.772-41.9455 49.1363-41.9455ZM38.2064-23.8275C34.5591-23.8275 32.8589-25.5277 32.8589-29.1634L32.8589-32.841C32.8589-36.4652 34.5591-38.1769 38.2064-38.1769L50.9835-38.1769C54.6308-38.1769 56.2937-36.4652 56.2937-32.841L56.2937-29.1634C56.2937-25.5277 54.6308-23.8275 50.9835-23.8275ZM65.4097-26.5213C61.774-26.5213 60.0622-28.1841 60.0622-31.8314L60.0622-50.4768C60.0622-54.101 61.774-55.8127 65.4097-55.8127L75.6593-55.8127C79.3066-55.8127 80.9695-54.101 80.9695-50.4768L80.9695-31.8314C80.9695-28.1841 79.3066-26.5213 75.6593-26.5213Z"/>
</svg>