<svg xmlns="http://www.w3.org/2000/svg" viewBox="9.76562 -77.7771 92.11 85.12">
  <path d="M87.2938-72.7406L31.1523-72.7406L99.9351-3.99511C101.213-6.18358 101.871-8.94374 101.871-12.2125L101.871-58.1977C101.871-67.4453 96.576-72.7406 87.2938-72.7406ZM24.3431 2.33042L80.6398 2.33042L11.7363-66.4496C10.435-64.2611 9.76562-61.4895 9.76562-58.1977L9.76562-12.2125C9.76562-2.96486 15.0724 2.33042 24.3431 2.33042ZM92.2127 5.98554C93.5683 7.3039 95.7914 7.3412 97.0982 5.98554C98.4051 4.62988 98.4539 2.45566 97.0982 1.1L19.5164-76.4215C18.1723-77.7771 15.9377-77.7771 14.582-76.4215C13.2752-75.1146 13.2752-72.8428 14.582-71.5359Z"/>
</svg>