<svg xmlns="http://www.w3.org/2000/svg" viewBox="9.76562 -82.0204 96.24 93.53">
  <path d="M17.6706 5.06844L99.1166 5.06844L99.1166-2.02954C99.1166-4.235 97.7555-5.55882 95.5758-5.55882L94.1789-5.55882L94.1789-50.5447L97.1892-50.5447C100.477-50.5447 102.415-53.0113 102.415-55.4406C102.415-57.2439 101.41-58.8892 99.3255-60.1269L64.2463-80.3432C62.46-81.3829 60.3407-82.0204 58.3936-82.0204C56.435-82.0204 54.3157-81.3829 52.5294-80.3432L17.4501-60.1269C15.3539-58.8892 14.3603-57.2439 14.3603-55.4406C14.3603-53.0113 16.2986-50.5447 19.5865-50.5447L22.6083-50.5447L22.6083-5.55882L21.2114-5.55882C19.0318-5.55882 17.6706-4.235 17.6706-2.02954ZM14.6988 11.5125L101.032 11.5125C103.683 11.5125 106.003 9.34166 106.003 6.56786C106.003 3.88018 103.683 1.63469 101.032 1.63469L14.6988 1.63469C12.0484 1.63469 9.76562 3.88018 9.76562 6.56786C9.76562 9.30436 12.0484 11.5125 14.6988 11.5125ZM43.1247-16.1139C40.7673-16.1139 39.4177-17.5123 39.4177-19.8697L39.4177-40.7335C39.4177-43.0794 40.7788-44.4779 43.1131-44.4779L49.4356-44.4779C55.8239-44.4779 59.4366-41.2886 59.4366-35.2806C59.4366-32.4134 58.2471-29.1073 55.6987-27.6825L58.1446-22.4021C58.5753-21.4201 58.9802-20.5961 58.9802-19.614C58.9802-17.34 57.3464-16.1139 55.4081-16.1139C53.7282-16.1139 52.574-17.159 51.6869-19.3611L48.8388-26.3587L46.7082-26.3587L46.7082-19.8697C46.7082-17.5123 45.4705-16.1139 43.1247-16.1139ZM46.7082-31.2579L48.7723-31.2579C51.0712-31.2579 52.0083-33.1079 52.0083-35.1456C52.0083-37.3956 50.8989-39.0476 48.7981-39.0476L46.7082-39.0476ZM70.9485-16.0651C67.4729-16.0651 63.4805-17.0192 62.1452-19.7915C61.861-20.3313 61.6887-20.9715 61.6887-21.4137C61.6887-22.884 62.8057-23.9637 64.276-23.9637C65.2696-23.9637 66.2489-23.5242 67.2221-22.5707C68.3655-21.2803 69.3623-20.7344 70.9458-20.7344C71.9608-20.7344 73.1157-21.3067 73.1157-22.6256C73.1157-23.8096 72.1677-24.2667 70.9837-24.5196L67.6003-25.2866C64.1104-26.1024 61.8813-28.1044 61.8813-31.6288C61.8813-36.3333 65.7585-38.6458 70.7247-38.6458C74.0307-38.6458 77.7756-37.4102 78.8526-34.3544C78.9618-33.9753 79.0594-33.5989 79.0594-33.2944C79.0594-31.8071 78.112-31.0516 76.4348-31.0516C75.7886-31.0516 74.8065-31.2557 74.1032-31.9651C73.3362-32.8907 72.1183-33.9392 70.6901-33.9392C69.4227-33.9392 68.6063-33.1661 68.6063-32.0221C68.6063-30.9473 69.6004-30.2807 70.7268-30.0393L74.1963-29.3096C77.7065-28.5569 80.076-27.0574 80.076-23.4008C80.076-18.4922 75.8253-16.0651 70.9485-16.0651Z"/>
</svg>