<svg xmlns="http://www.w3.org/2000/svg" viewBox="9.76562 -78.0459 70.26 85.68">
  <path d="M24.297 7.6357L65.4843 7.6357C74.7319 7.6357 80.0272 2.34042 80.0272-6.94178L80.0272-63.4684C80.0272-72.739 74.7319-78.0459 65.4843-78.0459L42.7735-78.0459C36.9247-78.0459 32.3027-76.2832 28.8541-72.7227L14.6582-58.5525C11.4937-55.3881 9.76562-50.9098 9.76562-45.738L9.76562-6.94178C9.76562 2.32889 15.0494 7.6357 24.297 7.6357ZM35.4013-59.4156C35.4013-61.2766 36.9693-62.8072 38.8302-62.8072C40.7284-62.8072 42.173-61.3254 42.173-59.4156L42.173-48.2219C42.173-46.3725 40.6911-44.8418 38.8302-44.8418C36.9693-44.8418 35.4013-46.3725 35.4013-48.2219ZM44.0493-59.4156C44.0493-61.2766 45.6173-62.8072 47.5271-62.8072C49.388-62.8072 50.8325-61.2766 50.8325-59.4156L50.8325-48.2219C50.8325-46.3725 49.3392-44.8418 47.5271-44.8418C45.6288-44.8418 44.0493-46.3725 44.0493-48.2219ZM52.795-59.4156C52.795-61.2766 54.2396-62.8072 56.1005-62.8072C58.0103-62.8072 59.4921-61.3254 59.4921-59.4156L59.5036-48.2219C59.5036-46.384 57.9614-44.8418 56.1005-44.8418C54.3257-44.8418 52.795-46.3725 52.795-48.2219ZM61.4546-59.4156C61.4546-61.2766 62.9364-62.8072 64.7974-62.8072C66.6956-62.8072 68.1774-61.3254 68.1774-59.4156L68.1774-48.2707C68.1774-46.3725 66.6583-44.8418 64.7974-44.8418C62.948-44.8418 61.4546-46.4098 61.4546-48.2707Z"/>
</svg>