<svg xmlns="http://www.w3.org/2000/svg" viewBox="-0.595335 -76.6353 90.21 82.76">
  <path d="M3.51169-44.1021C0.211694-44.1021-0.595335-40.9953 1.17673-38.7262L11.2484-25.7012C12.429-24.1326 14.629-24.1326 15.8355-25.7012L25.8698-38.7377C27.5931-40.9953 26.8233-44.1021 23.5722-44.1021ZM89.6102-35.2539C89.6102-58.1131 71.0392-76.6353 48.2173-76.6353C25.3697-76.6353 6.84746-58.1246 6.83594-35.1678C6.84746-31.711 9.66403-28.8944 13.1208-28.8944C16.5891-28.8944 19.4172-31.7225 19.4172-35.1793C19.4172-51.1764 32.2948-64.0655 48.2173-64.0655C64.1398-64.0655 77.0289-51.1764 77.0289-35.2539C77.0289-19.3314 64.1398-6.4423 48.2173-6.4423C40.2302-6.4423 33.4752-9.5318 27.9373-14.9365C25.0407-17.5639 21.2997-18.4367 18.4486-15.7469C15.9074-13.3671 15.706-9.41046 18.8983-6.23784C26.696 1.84032 37.5161 6.12748 48.2173 6.12748C71.0392 6.12748 89.6102-12.3948 89.6102-35.2539ZM33.9968-18.9041C36.1243-18.9041 37.2528-20.2191 37.2528-22.407L37.2528-45.0335L44.598-45.0335C48.5476-45.0335 49.8095-44.1315 49.8095-40.0206L49.8095-31.8863C49.8095-29.8849 51.0127-28.5842 52.8906-28.5842C54.7685-28.5842 55.9716-29.8849 55.9716-31.8863L55.9716-41.634C55.9716-48.9604 52.8323-51.3996 45.9767-51.3996L36.4628-51.3996C32.6214-51.3996 30.7666-49.8432 30.7666-46.0134L30.7666-22.407C30.7666-20.1445 31.8951-18.9041 33.9968-18.9041ZM45.0917-19.1082L55.6134-19.1082C62.389-19.1082 65.6796-22.4461 65.6796-29.2217L65.6796-48.0778C65.6796-50.2399 64.4019-51.6037 62.4121-51.6037C60.4222-51.6037 59.1818-50.2399 59.1818-48.0778L59.1818-30.7972C59.1818-26.6978 58.4664-25.5001 54.3669-25.5001L46.5878-25.5001L46.5878-38.3604C46.5878-40.4364 45.62-41.8002 43.5671-41.8002C41.5027-41.8002 40.4373-40.4364 40.4373-38.3604L40.4373-23.4038C40.4373-20.3316 42.3525-19.1082 45.0917-19.1082Z" />
</svg>