<svg xmlns="http://www.w3.org/2000/svg" viewBox="9.76562 -72.7779 75.06 75.07">
  <path d="M24.3431 2.29311L70.2476 2.29311C79.5298 2.29311 84.8251-3.00217 84.8251-12.2498L84.8251-58.235C84.8251-67.4826 79.5298-72.7779 70.2476-72.7779L24.3431-72.7779C15.0724-72.7779 9.76562-67.4826 9.76562-58.235L9.76562-12.2498C9.76562-3.00217 15.0724 2.29311 24.3431 2.29311ZM36.5529-20.5297C32.6487-20.5297 29.1189-22.0066 27.6025-25.0264C27.2322-25.79 26.9365-26.6975 26.9365-27.4469C26.9365-29.1498 28.1368-30.4621 30.0405-30.4621C31.6601-30.4621 32.7024-29.8131 33.4173-28.2939C34.012-26.8652 35.0726-26.1464 36.6132-26.1464C38.3092-26.1464 39.5189-27.1039 39.5189-28.6961C39.5189-30.6817 38.1396-31.4262 35.6779-32.2909L33.5207-33.0463C29.1777-34.5715 26.931-37.0448 26.931-41.3335C26.931-46.8762 31.0001-49.9448 36.5298-49.9448C40.3621-49.9448 44.0126-48.4618 45.5115-44.6729C45.6837-44.2707 45.8818-43.619 45.8818-42.8411C45.8818-41.3362 44.914-39.9723 42.7865-39.9723C41.1554-39.9723 40.2135-40.5725 39.5732-42.0544C39.0646-43.3569 38.2279-44.3653 36.5556-44.3653C35.0177-44.3653 34.0378-43.2587 34.0378-41.8991C34.0378-39.8389 35.7067-39.0028 37.6462-38.3131L40.3257-37.3711C44.3126-35.9836 46.6257-33.9443 46.6257-29.3967C46.6257-23.6355 42.6916-20.5297 36.5529-20.5297ZM58.6665-18.2199C58.2068-18.2199 57.8935-18.5332 57.8935-18.9929L57.8935-21.7246C53.9988-21.8799 50.6411-23.3738 49.4292-26.715C49.2197-27.2176 49.0962-27.7805 49.0962-28.2342C49.0962-30.0375 50.4085-31.0771 52.2118-31.0771C53.7167-31.0771 54.5984-30.3359 55.1667-29.0467C55.655-27.7474 56.5054-27.0029 57.8935-26.8476L57.8935-32.1823L55.4818-33.0897C51.4664-34.6325 48.9789-36.6602 48.9789-40.9028C48.9789-45.9491 53.166-48.5458 57.8935-48.7872L57.8935-51.5188C57.8935-51.9786 58.2068-52.2919 58.6665-52.2919C59.0775-52.2919 59.4281-51.9786 59.4281-51.5188L59.4281-48.7872C63.0271-48.5573 66.3902-47.0002 67.4271-43.8198C67.6251-43.2799 67.7486-42.7889 67.7486-42.2145C67.7486-41.008 66.8324-39.5438 64.6933-39.5438C63.1654-39.5438 62.2695-40.2504 61.7154-41.5627C61.2875-42.721 60.5347-43.437 59.4281-43.6526L59.4281-38.3125L61.8228-37.4193C65.7406-35.9111 68.521-34.0299 68.521-29.7039C68.521-24.7838 64.532-22.0406 59.4281-21.7246L59.4281-18.9929C59.4281-18.5332 59.0775-18.2199 58.6665-18.2199ZM55.5688-41.4827C55.5688-40.2125 56.5487-39.5399 57.8935-38.9506L57.8935-43.6642C56.6118-43.5089 55.5688-42.8104 55.5688-41.4827ZM59.4281-26.8476C60.8135-27.0287 61.908-27.6755 61.908-28.9545C61.908-30.4029 60.9193-30.9664 59.4281-31.57Z"/>
</svg>