<svg xmlns="http://www.w3.org/2000/svg" viewBox="9.76562 -82.0204 96.24 93.53">
  <path d="M17.6706-1.29499L99.1166-1.29499L99.1166-5.32074C99.1166-7.5262 97.7555-8.85002 95.5758-8.85002L94.1789-8.85002L94.1789-50.5447L97.1892-50.5447C100.477-50.5447 102.415-53.0113 102.415-55.4406C102.415-57.2439 101.41-58.8892 99.3255-60.1269L64.2463-80.3432C62.46-81.3829 60.3407-82.0204 58.3936-82.0204C56.435-82.0204 54.3157-81.3829 52.5294-80.3432L17.4501-60.1269C15.3539-58.8892 14.3603-57.2439 14.3603-55.4406C14.3603-53.0113 16.2986-50.5447 19.5865-50.5447L22.6083-50.5447L22.6083-8.85002L21.2114-8.85002C19.0318-8.85002 17.6706-7.5262 17.6706-5.32074ZM31.2145-8.85002L31.2145-56.5269L57.6721-71.2894C57.9135-71.4216 58.178-71.4935 58.3936-71.4935C58.635-71.4935 58.8622-71.4216 59.1036-71.2894L85.5842-56.5269L85.5842-8.85002ZM14.6988 11.5125L101.032 11.5125C103.683 11.5125 106.003 9.34166 106.003 6.56786C106.003 3.88018 103.683 1.63469 101.032 1.63469L14.6988 1.63469C12.0484 1.63469 9.76562 3.88018 9.76562 6.56786C9.76562 9.30436 12.0484 11.5125 14.6988 11.5125ZM47.9987-22.491C53.744-22.491 57.4313-25.4246 57.4313-30.7666C57.4313-35.0328 55.2531-36.9486 51.5246-38.2385L49.0289-39.1059C47.2244-39.7352 45.6301-40.534 45.6301-42.4592C45.6301-43.77 46.5611-44.7675 48.0014-44.7675C49.5876-44.7675 50.364-43.8452 50.8353-42.6145C51.4382-41.2561 52.3313-40.6932 53.8274-40.6932C55.8057-40.6932 56.7362-41.9336 56.7362-43.3524C56.7362-44.0557 56.5381-44.6817 56.3659-45.0608C54.979-48.5913 51.5868-49.9882 47.9756-49.9882C42.8135-49.9882 39.0286-47.1034 39.0286-41.9309C39.0286-37.9379 41.1288-35.6112 45.176-34.1979L47.1983-33.4912C49.4993-32.6869 50.8183-31.9797 50.8183-30.1291C50.8183-28.6345 49.6573-27.7489 48.059-27.7489C46.616-27.7489 45.6043-28.3958 45.0584-29.7269C44.3924-31.1715 43.4246-31.7716 41.9285-31.7716C40.1483-31.7716 39.034-30.5455 39.034-28.966C39.034-28.2539 39.2809-27.3953 39.6512-26.7063C41.0557-23.8703 44.3645-22.491 47.9987-22.491ZM68.4731-23.5882C73.6808-23.5882 77.8624-26.1707 77.8624-31.0623C77.8624-35.081 75.2542-36.8389 71.5948-38.2609L68.5274-39.4416C66.9786-40.0682 65.7457-40.7151 65.7457-42.0801C65.7457-43.5632 67.0905-44.1755 68.5735-44.1755C70.0511-44.1755 71.0249-43.4995 71.5247-42.1602C72.03-40.934 72.8886-40.2762 74.2931-40.2762C76.3087-40.2762 77.1388-41.617 77.1388-42.7746C77.1388-43.3118 77.0153-43.7539 76.8431-44.2565C75.8061-47.4573 72.2647-48.9167 68.5735-48.9167C63.903-48.9167 59.6007-46.4922 59.6007-41.5376C59.6007-37.5649 61.9532-35.6864 65.6729-34.2412L69.1507-32.9114C70.6622-32.3221 71.7058-31.8074 71.7058-30.3617C71.7058-28.9017 70.1948-28.3409 68.522-28.3409C66.826-28.3409 65.8807-29.0624 65.3809-30.4424C64.8614-31.657 64.017-32.3379 62.6356-32.3379C60.9557-32.3379 59.7296-31.3959 59.7296-29.7045C59.7296-29.2623 59.853-28.7482 60.0253-28.283C61.2114-24.973 64.6096-23.5882 68.4731-23.5882ZM68.6481-20.3162C69.0591-20.3162 69.3724-20.6294 69.3724-21.0404L69.3724-51.4761C69.3724-51.8755 69.0591-52.1888 68.6481-52.1888C68.2487-52.1888 67.9354-51.8755 67.9354-51.4761L67.9354-21.0404C67.9354-20.6294 68.2487-20.3162 68.6481-20.3162Z"/>
</svg>