<svg xmlns="http://www.w3.org/2000/svg" viewBox="9.76562 -76.9547 112.22 89.75">
  <path d="M21.3097-24.4504L50.1656-24.4504C57.1584-24.4504 61.7327-28.976 61.7327-35.8969L61.7327-64.9969C61.7327-71.8805 57.1584-76.406 50.1656-76.406L21.3097-76.406C14.34-76.406 9.76562-71.892 9.76562-64.9969L9.76562-35.8969C9.76562-28.9645 14.34-24.4504 21.3097-24.4504ZM80.7096-23.9018L110.175-23.9018C117.314-23.9018 121.986-28.5135 121.986-35.5924L121.986-65.3014C121.986-72.3315 117.314-76.9547 110.175-76.9547L80.7096-76.9547C73.5704-76.9547 68.9099-72.3315 68.9099-65.3014L68.9099-35.5924C68.9099-28.5135 73.5704-23.9018 80.7096-23.9018ZM83.4185-36.4194C82.1945-36.4194 81.4275-37.198 81.4275-38.4593L81.4275-62.3857C81.4275-63.6585 82.1945-64.4371 83.4185-64.4371L107.428-64.4371C108.701-64.4371 109.457-63.6585 109.457-62.3857L109.457-38.4593C109.457-37.198 108.701-36.4194 107.428-36.4194ZM15.2122-5.51424C12.1488-5.51424 9.76562-2.94455 9.76562 0.164993C9.76562 3.17414 12.1861 5.85575 15.2122 5.85575L28.9542 5.85575L28.9542-5.51424ZM36.935 12.7942C43.8756 12.7942 49.5527 7.11709 49.5527 0.164993C49.5527-6.77558 43.8756-12.4527 36.935-12.4527C29.9456-12.4527 24.3058-6.77558 24.3058 0.164993C24.3058 7.11709 29.9829 12.7942 36.935 12.7942ZM36.935 5.5925C33.8479 5.5925 31.5075 3.16595 31.5075 0.164993C31.5075-2.91058 33.8479-5.26252 36.935-5.26252C39.9245-5.26252 42.351-2.91058 42.351 0.164993C42.351 3.16595 39.9245 5.5925 36.935 5.5925ZM44.9553-5.51424L44.9553 5.85575L116.482 5.85575C119.528 5.85575 121.986 3.09954 121.986 0.164993C121.986-2.86994 119.565-5.51424 116.482-5.51424Z"/>
</svg>