<svg xmlns="http://www.w3.org/2000/svg" viewBox="8.7463 -66.9322 126.54 63.45">
  <path d="M14.8968-3.478L20.2449-3.478C23.6161-3.478 25.4079-5.25826 26.3269-7.54985L48.2155-61.9853C49.2118-64.5062 47.8194-66.8948 45.1867-66.8948L42.3288-66.8948C40.4048-66.8948 38.7568-65.9271 37.7375-63.9373L10.4404-10.6133C8.7463-7.3227 10.2594-3.478 14.8968-3.478ZM123.792-3.51531L129.14-3.51531C133.778-3.51531 135.291-7.36 133.597-10.6506L106.299-63.9746C105.28-65.9644 103.632-66.9322 101.708-66.9322L98.8503-66.9322C96.206-66.9322 94.8252-64.5435 95.8214-62.0226L117.71-7.58715C118.629-5.29557 120.421-3.51531 123.792-3.51531ZM72.0385-8.95314C73.6926-8.95314 74.8672-10.1393 74.8672-11.8795L74.8672-22.682L74.0229-32.9277L74.8672-43.1735L74.8672-53.976C74.8672-55.7535 73.6926-56.9397 72.0385-56.9397C70.4102-56.9397 69.2356-55.7535 69.2356-53.976L69.2356-43.1735L70.0799-32.9277L69.2356-22.682L69.2356-11.8795C69.2356-10.1393 70.4102-8.95314 72.0385-8.95314ZM92.8162-44.9768C92.0323-46.3236 90.3924-46.7889 88.836-45.8699L79.4868-40.4873L71.0965-34.6795L61.7758-30.2904L52.4266-24.859C50.8817-23.9889 50.4537-22.349 51.2865-20.9649C52.0705-19.5319 53.6731-19.0666 55.2668-19.9856L64.616-25.3682L73.0551-31.2133L82.2897-35.6024L91.6762-41.0338C93.2211-41.9039 93.649-43.5438 92.8162-44.9768ZM92.8278-20.9649C93.649-22.349 93.2211-23.9889 91.6762-24.859L82.2897-30.2904L73.0436-34.6422L64.616-40.4873L55.2668-45.8699C53.6731-46.7889 52.0705-46.3236 51.2865-44.9768C50.4537-43.5438 50.8817-41.9039 52.4266-41.0338L61.7758-35.6024L71.0965-31.2018L79.4868-25.3682L88.836-19.9856C90.3924-19.0666 92.0323-19.5319 92.8278-20.9649ZM80.3908-51.4654C79.7303-52.6516 78.3746-52.9561 77.0908-52.2236L72.0385-49.3313L67.0119-52.2236C65.7281-52.9561 64.384-52.6516 63.7119-51.4654C63.0283-50.2563 63.3817-48.9237 64.7028-48.1655L69.4221-45.3965C71.5129-44.2334 72.5641-44.2219 74.6434-45.3965L79.4-48.1655C80.7211-48.9237 81.0744-50.2563 80.3908-51.4654ZM83.8867-49.4317C82.5311-49.4805 81.5518-48.4666 81.5403-46.9387L81.5518-41.4496C81.5748-39.0889 82.0889-38.1496 84.1567-36.9865L88.9018-34.2549C90.1971-33.4479 91.5785-33.827 92.2506-34.9873C92.9227-36.1734 92.5809-37.5176 91.2483-38.227L86.2332-41.1797L86.2217-46.9502C86.2332-48.4666 85.2682-49.4805 83.8867-49.4317ZM83.8867-16.4984C85.2682-16.4496 86.2332-17.4262 86.2217-18.9426L86.2332-24.7504L91.2483-27.6658C92.5809-28.4125 92.9227-29.7193 92.2506-30.9428C91.5785-32.1031 90.1971-32.4822 88.9018-31.6752L84.1567-28.9436C82.0889-27.7805 81.5748-26.8412 81.5518-24.4432L81.5403-18.9541C81.5518-17.4262 82.5311-16.4496 83.8867-16.4984ZM63.7119-14.4646C64.384-13.2785 65.7281-12.9367 67.0119-13.7064L72.0385-16.5988L77.0908-13.7064C78.3746-12.9367 79.7303-13.2785 80.3908-14.4646C81.0744-15.6365 80.7211-17.0064 79.4-17.7273L74.6434-20.4963C72.5641-21.7082 71.5129-21.6967 69.4221-20.4963L64.7028-17.7273C63.3817-17.0064 63.0283-15.6365 63.7119-14.4646ZM60.216-16.4869C61.5717-16.4496 62.551-17.4147 62.5625-18.9426L62.551-24.4317C62.5279-26.8297 62.0139-27.7689 59.9461-28.932L55.201-31.6637C53.9057-32.4707 52.5242-32.0916 51.8522-30.9313C51.1801-29.7078 51.5219-28.401 52.8545-27.6543L57.8695-24.7389L57.8811-18.9311C57.8695-17.4147 58.8346-16.4496 60.216-16.4869ZM60.216-49.4317C58.8346-49.4805 57.8695-48.4666 57.8811-46.9502L57.8695-41.1797L52.8545-38.227C51.5219-37.5176 51.1801-36.1734 51.8522-34.9873C52.5242-33.827 53.9057-33.4479 55.201-34.2549L59.9461-36.9865C62.0139-38.1496 62.5279-39.0889 62.551-41.4496L62.5625-46.9387C62.551-48.4666 61.5717-49.4805 60.216-49.4317Z" />
</svg>