<svg xmlns="http://www.w3.org/2000/svg" viewBox="6.44744 -76.0818 81.72 81.68">
  <path d="M70.2591-72.7406L24.3546-72.7406C23.789-72.7406 23.2091-72.6917 22.6923-72.6544L35.0953-60.2515C35.2533-60.2515 35.4486-60.2515 35.6067-60.2515L68.5201-60.2515C71.0658-60.2515 72.359-59.1305 72.359-56.401L72.359-23.5594C72.359-23.4014 72.359-23.1946 72.3475-23.0481L84.7505-10.6451C84.7993-11.1389 84.8366-11.6699 84.8366-12.2125L84.8366-58.1977C84.8366-67.4453 79.5413-72.7406 70.2591-72.7406ZM24.3546 2.33042L70.2591 2.33042C70.8621 2.33042 71.4535 2.28159 72.0191 2.24428L59.5788-10.1587C59.4323-10.1587 59.2255-10.1587 59.0675-10.1587L26.0936-10.1587C23.5479-10.1587 22.2547-11.2681 22.2547-14.0091L22.2547-46.9111C22.2547-47.0691 22.2547-47.2644 22.2547-47.4224L9.85176-59.8254C9.81445-59.2828 9.77715-58.7518 9.77715-58.1977L9.77715-12.2125C9.77715-2.96486 15.084 2.33042 24.3546 2.33042ZM81.9251 4.24411C83.2808 5.56247 85.5038 5.59977 86.8107 4.24411C88.1175 2.88845 88.1663 0.71423 86.8107-0.641433L12.6886-74.7261C11.333-76.0818 9.10994-76.0818 7.75427-74.7261C6.44744-73.4193 6.44744-71.1474 7.75427-69.8406Z"/>
</svg>