<svg xmlns="http://www.w3.org/2000/svg" viewBox="9.76562 -74.9087 79.26 79.26">
  <path d="M15.6314 4.35208C18.8528 4.35208 21.4971 1.70778 21.4971-1.51367L21.4971-11.6147L32.0003-11.6147C35.7962-11.6147 38.6846-14.5032 38.6846-18.299L38.6846-28.8022L49.1878-28.8022C52.9837-28.8022 55.8721-31.6907 55.8721-35.4865L55.8721-45.9897L66.3753-45.9897C70.1712-45.9897 73.0596-48.8782 73.0596-52.674L73.0596-63.1772L83.1607-63.1772C86.3821-63.1772 89.0264-65.8215 89.0264-69.043C89.0264-72.2529 86.3821-74.9087 83.1607-74.9087L68.024-74.9087C64.2281-74.9087 61.3281-72.0088 61.3281-68.2129L61.3281-57.7212L50.8365-57.7212C47.0406-57.7212 44.1406-54.8213 44.1406-51.0254L44.1406-40.5337L33.649-40.5337C29.8531-40.5337 26.9531-37.6338 26.9531-33.8379L26.9531-23.3462L16.4615-23.3462C12.6656-23.3462 9.76562-20.4463 9.76562-16.6504L9.76562-1.51367C9.76562 1.70778 12.4215 4.35208 15.6314 4.35208Z" />
</svg>