<svg xmlns="http://www.w3.org/2000/svg" viewBox="6.83594 -76.6353 82.77 82.76">
  <path d="M48.2173 6.12748C71.0765 6.12748 89.6102-12.3948 89.6102-35.2539C89.6102-58.1131 71.0765-76.6353 48.2173-76.6353C25.3697-76.6353 6.83594-58.1131 6.83594-35.2539C6.83594-12.3948 25.3697 6.12748 48.2173 6.12748ZM48.2173-6.4423C32.2948-6.4423 19.4172-19.3314 19.4172-35.2539C19.4172-51.1764 32.2948-64.0655 48.2173-64.0655C64.1398-64.0655 77.0289-51.1764 77.0289-35.2539C77.0289-19.3314 64.1398-6.4423 48.2173-6.4423ZM48.2058-14.2784C59.765-14.2784 69.144-23.6574 69.144-35.2166C69.144-46.7758 59.765-56.1548 48.2058-56.1548C36.6581-56.1548 27.2792-46.7758 27.2792-35.2166C27.2792-23.6574 36.6581-14.2784 48.2058-14.2784ZM36.9723-43.7348C39.6096-47.1968 43.6663-49.2942 48.157-49.2942C52.6592-49.2942 56.7531-47.1968 59.3905-43.7348C60.0686-42.8268 59.7784-41.8985 58.7639-41.8985L37.6104-41.8985C36.5959-41.8985 36.2942-42.8268 36.9723-43.7348ZM48.2431-31.0447C46.2779-31.0447 44.689-32.6336 44.689-34.6103C44.689-36.5498 46.2779-38.1387 48.2431-38.1387C50.1826-38.1387 51.783-36.5498 51.783-34.6103C51.783-32.6336 50.1826-31.0447 48.2431-31.0447ZM34.8864-31.1918C34.6449-32.1086 35.0389-32.4707 35.8262-32.3242C40.3427-31.6434 43.7042-27.7216 43.6927-23.1218C43.6927-22.3487 43.138-21.9521 42.428-22.3142C38.6874-24.1126 35.9551-27.2931 34.8864-31.1918ZM61.5252-31.1918C60.4077-27.2931 57.7242-24.1126 53.9348-22.3142C53.2363-21.9521 52.6816-22.3487 52.6816-23.1218C52.6701-27.7101 56.0201-31.6434 60.5366-32.3242C61.3354-32.4707 61.7294-32.1086 61.5252-31.1918Z" />
</svg>