<svg xmlns="http://www.w3.org/2000/svg" viewBox="9.76562 -82.0204 96.24 93.53">
  <path d="M17.6706-1.29499L99.1166-1.29499L99.1166-5.32074C99.1166-7.5262 97.7555-8.85002 95.5758-8.85002L94.1789-8.85002L94.1789-50.5447L97.1892-50.5447C100.477-50.5447 102.415-53.0113 102.415-55.4406C102.415-57.2439 101.41-58.8892 99.3255-60.1269L64.2463-80.3432C62.46-81.3829 60.3407-82.0204 58.3936-82.0204C56.435-82.0204 54.3157-81.3829 52.5294-80.3432L17.4501-60.1269C15.3539-58.8892 14.3603-57.2439 14.3603-55.4406C14.3603-53.0113 16.2986-50.5447 19.5865-50.5447L22.6083-50.5447L22.6083-8.85002L21.2114-8.85002C19.0318-8.85002 17.6706-7.5262 17.6706-5.32074ZM31.2145-8.85002L31.2145-56.5269L57.6721-71.2894C57.9135-71.4216 58.178-71.4935 58.3936-71.4935C58.635-71.4935 58.8622-71.4216 59.1036-71.2894L85.5842-56.5269L85.5842-8.85002ZM14.6988 11.5125L101.032 11.5125C103.683 11.5125 106.003 9.34166 106.003 6.56786C106.003 3.88018 103.683 1.63469 101.032 1.63469L14.6988 1.63469C12.0484 1.63469 9.76562 3.88018 9.76562 6.56786C9.76562 9.30436 12.0484 11.5125 14.6988 11.5125ZM47.383-19.8779L67.5257-19.8779C69.6159-19.8779 71.0516-21.1672 71.0516-23.2343C71.0516-25.4995 69.3921-26.6138 67.5257-26.6138L54.6681-26.6138L54.6681-26.8233C56.889-28.2048 57.7713-30.7159 57.7713-33.4136C57.7713-33.7648 57.7598-34.093 57.7021-34.3865L65.6311-34.3865C66.9176-34.3865 67.8223-35.2051 67.8223-36.3566C67.8223-37.5082 66.9176-38.3267 65.6311-38.3267L56.849-38.3267C56.5357-39.5514 56.375-40.4018 56.375-41.3498C56.375-44.5995 59.133-46.1368 62.8534-46.1368C63.842-46.1368 65.4127-45.9788 66.217-45.8696C66.7256-45.7977 67.3346-45.7259 67.9836-45.7259C69.6778-45.7259 70.8205-46.7594 70.8205-48.3159C70.8205-50.5953 69.009-51.6147 66.7384-52.0684C65.2241-52.4393 63.6073-52.5973 61.3837-52.5973C54.5729-52.5973 48.0399-49.5918 48.0399-42.6324C48.0399-41.2279 48.3356-39.835 48.7235-38.3267L45.5891-38.3267C44.2538-38.3267 43.3979-37.5455 43.3979-36.3566C43.3979-35.1678 44.2538-34.3865 45.5891-34.3865L49.5393-34.3865C49.6458-33.9119 49.6804-33.4976 49.6804-33.0691C49.6804-30.6237 48.6686-28.3228 46.6166-27.0044C45.3328-26.1546 43.9547-24.9745 43.9547-23.2201C43.9547-21.1298 45.4678-19.8779 47.383-19.8779Z"/>
</svg>