<svg xmlns="http://www.w3.org/2000/svg" viewBox="9.76562 -84.4451 89.73 98.48">
  <path d="M9.76562-17.1329L27.0256-17.1329L27.0256-21.6958C27.0256-31.57 33.5103-37.957 43.3472-37.957L45.018-37.957L45.0899-38.3334C46.1878-44.4451 51.3717-48.8418 59.7717-48.8418L71.5975-48.8418L71.5975-53.9533C71.5975-60.2724 67.2946-64.6269 61.027-64.6269L58.2741-64.6269L58.2741-74.7525C58.2741-81.0359 54.4288-84.4451 47.3621-84.4451L34.0675-84.4451C26.9431-84.4451 23.1263-81.0359 23.1263-74.7525L23.1263-64.6269L20.3362-64.6269C14.0686-64.6269 9.76562-60.2724 9.76562-53.9533ZM32.8774-64.6269L32.8774-73.2719C32.8774-74.926 33.7679-75.7819 35.4796-75.7819L46.0131-75.7819C47.6556-75.7819 48.523-74.8887 48.523-73.2719L48.523-64.6269ZM24.5724 14.0322L26.9677 14.0322C27.9482 14.0322 28.7789 13.5976 29.1519 12.8782C27.7717 10.3886 27.0256 7.36517 27.0256 3.98025L27.0256-8.13337L9.76562-8.13337L9.76562-2.48871C9.76562 3.5769 13.7344 7.86225 19.5871 8.10426L21.0568 8.12731L21.0568 10.5654C21.0568 12.665 22.4728 14.0322 24.5724 14.0322ZM43.3472 14.0322L44.1703 14.0322L44.1703-31.7707L43.3472-31.7707C36.8965-31.7707 33.2119-28.135 33.2119-21.6958L33.2119 3.98025C33.2119 10.4195 36.8965 14.0322 43.3472 14.0322ZM51.3896 14.0322L81.4684 14.0322L81.4684-31.3977L81.4223-31.3977L81.4223-34.6931C81.4223-39.9814 78.2342-42.6555 72.4785-42.6555L60.3164-42.6555C54.6299-42.6555 51.4357-39.9814 51.4357-34.6931L51.4357-31.3977L51.3896-31.3977ZM59.0566-31.3977L59.0566-33.692C59.0566-35.1229 59.8324-35.8498 61.2748-35.8498L71.5948-35.8498C73.0256-35.8498 73.8014-35.0856 73.8014-33.692L73.8014-31.3977ZM88.6992 14.0322L89.3615 14.0322C95.8238 14.0322 99.4969 10.4195 99.4969 3.98025L99.4969-21.6958C99.4969-28.135 95.8238-31.7707 89.3615-31.7707L88.6992-31.7707Z"/>
</svg>