<svg xmlns="http://www.w3.org/2000/svg" viewBox="6.83594 -76.6353 82.77 82.76">
  <path d="M48.2173 6.12748C71.0765 6.12748 89.6102-12.4063 89.6102-35.2539C89.6102-58.1015 71.0765-76.6353 48.2173-76.6353C25.3697-76.6353 6.83594-58.1015 6.83594-35.2539C6.83594-12.4063 25.3697 6.12748 48.2173 6.12748ZM33.588-19.0912L33.1425-19.0912C29.1298-19.0912 26.8925-21.34 26.8925-25.367L26.8925-42.1514C26.8925-46.1784 29.1298-48.453 33.1425-48.453L33.588-48.453ZM37.2874-19.0912L37.2874-48.453L38.3534-48.453L38.3534-50.7812C38.3534-54.0506 40.2869-55.7338 43.8283-55.7338L52.5806-55.7338C56.1912-55.7338 58.0812-54.0506 58.0812-50.7812L58.0812-48.453L59.1818-48.453L59.1818-19.0912ZM43.0919-48.453L53.3543-48.453L53.3543-49.768C53.3543-50.7479 52.8972-51.268 51.8916-51.268L44.5546-51.268C43.5489-51.268 43.0919-50.7479 43.0919-49.768ZM62.8582-19.0912L62.8582-48.453L63.3037-48.453C67.3279-48.453 69.5537-46.1784 69.5537-42.1514L69.5537-25.367C69.5537-21.34 67.3279-19.0912 63.3037-19.0912Z"/>
</svg>