<svg xmlns="http://www.w3.org/2000/svg" viewBox="6.83594 -76.5865 82.77 82.76">
  <path d="M48.2173 6.17631C71.0765 6.17631 89.6102-12.3575 89.6102-35.2051C89.6102-58.0527 71.0765-76.5865 48.2173-76.5865C25.3697-76.5865 6.83594-58.0527 6.83594-35.2051C6.83594-12.3575 25.3697 6.17631 48.2173 6.17631ZM34.8202-39.1687C34.8202-37.678 33.5622-36.4173 31.9251-36.4173L28.6009-36.4173C27.0499-36.4173 25.7403-37.6896 25.7403-39.1687C25.7403-40.6735 27.0499-41.9458 28.6009-41.9458L31.9251-41.9458C33.5622-41.9458 34.8202-40.6851 34.8202-39.1687ZM38.7583-47.0461C37.6325-45.9949 35.9208-46.0668 34.772-47.1295L32.3816-49.5314C31.2212-50.6172 31.247-52.4293 32.3239-53.5178C33.4009-54.5947 35.1499-54.6062 36.2729-53.4459L38.6864-51.0324C39.798-49.8835 39.8095-48.1718 38.7583-47.0461ZM48.2173-51.4703C46.7009-51.4703 45.4402-52.8029 45.4402-54.3166L45.4402-57.6781C45.4402-59.2664 46.7125-60.5387 48.2173-60.5387C49.6964-60.5387 50.9687-59.2664 50.9687-57.6781L50.9687-54.3166C50.9687-52.8029 49.6964-51.4703 48.2173-51.4703ZM57.6994-47.0461C56.6367-48.1718 56.6367-49.872 57.7597-51.0324L60.1617-53.4459C61.2732-54.5947 63.0223-54.6062 64.1222-53.5178C65.1877-52.4178 65.2135-50.6172 64.0646-49.5314L61.6857-47.1295C60.5253-46.0552 58.8252-46.0179 57.6994-47.0461ZM61.626-39.1687C61.626-40.6851 62.9586-41.9458 64.5211-41.9458L67.8453-41.9458C69.4336-41.9458 70.7059-40.6735 70.7059-39.1687C70.7059-37.6896 69.4336-36.4173 67.8453-36.4173L64.5211-36.4173C62.9586-36.4173 61.626-37.6896 61.626-39.1687ZM37.5234-35.4089C37.3423-36.1101 37.2962-36.9232 37.2962-37.6617C37.2962-43.6966 42.2312-48.6431 48.2173-48.6431C54.2265-48.6431 59.15-43.6966 59.15-37.6617C59.15-36.9232 59.0923-36.1101 58.9228-35.4089ZM29.0743-25.559C27.2337-25.559 25.7403-27.2042 25.7403-28.9445C25.7403-30.6962 27.1475-32.2696 29.0743-32.2696L67.3719-32.2696C69.2986-32.2696 70.7059-30.7335 70.7059-28.9445C70.7059-27.1669 69.2871-25.559 67.3719-25.559ZM29.8025-17.9308C28.4556-17.9308 27.3529-19.0451 27.3529-20.3689C27.3529-21.7158 28.4556-22.8185 29.8025-22.8185C31.1493-22.8185 32.2405-21.7158 32.2405-20.3689C32.2405-19.0451 31.1493-17.9308 29.8025-17.9308ZM39.0716-17.9308C37.7247-17.9308 36.622-19.0451 36.622-20.3689C36.622-21.7158 37.7247-22.8185 39.0716-22.8185C40.407-22.8185 41.5212-21.7158 41.5212-20.3689C41.5212-19.0451 40.407-17.9308 39.0716-17.9308ZM48.2662-17.9308C46.9308-17.9308 45.8166-19.0451 45.8166-20.3689C45.8166-21.7158 46.9308-22.8185 48.2662-22.8185C49.613-22.8185 50.7273-21.7158 50.7273-20.3689C50.7273-19.0451 49.613-17.9308 48.2662-17.9308ZM57.5468-17.9308C56.2-17.9308 55.0972-19.0451 55.0972-20.3689C55.0972-21.7158 56.2-22.8185 57.5468-22.8185C58.8937-22.8185 59.9849-21.7158 59.9849-20.3689C59.9849-19.0451 58.8937-17.9308 57.5468-17.9308ZM66.7414-17.9308C65.406-17.9308 64.2918-19.0451 64.2918-20.3689C64.2918-21.7158 65.406-22.8185 66.7414-22.8185C68.0767-22.8185 69.191-21.7158 69.191-20.3689C69.191-19.0451 68.0767-17.9308 66.7414-17.9308ZM34.4384-12.0979C33.1031-12.0979 32.0003-13.1633 32.0003-14.5474C32.0003-15.8828 33.1031-16.997 34.4384-16.997C35.7853-16.997 36.888-15.8828 36.888-14.5474C36.888-13.1633 35.7853-12.0979 34.4384-12.0979ZM43.7191-12.0979C42.3722-12.0979 41.2695-13.1633 41.2695-14.5474C41.2695-15.8828 42.3722-16.997 43.7191-16.997C45.0544-16.997 46.1687-15.8828 46.1687-14.5474C46.1687-13.1633 45.0544-12.0979 43.7191-12.0979ZM52.9136-12.0979C51.5783-12.0979 50.464-13.1633 50.464-14.5474C50.464-15.8828 51.5783-16.997 52.9136-16.997C54.2605-16.997 55.3632-15.8828 55.3632-14.5474C55.3632-13.1633 54.2605-12.0979 52.9136-12.0979ZM62.1197-12.0979C60.7728-12.0979 59.6701-13.1633 59.6701-14.5474C59.6701-15.8828 60.7728-16.997 62.1197-16.997C63.455-16.997 64.5578-15.8828 64.5578-14.5474C64.5578-13.1633 63.455-12.0979 62.1197-12.0979Z"/>
</svg>