<svg xmlns="http://www.w3.org/2000/svg" viewBox="9.76562 -76.3542 77.13 82.2">
  <path d="M30.3117-36.4801L66.342-36.4801C78.4726-36.4801 86.8995-44.467 86.8995-56.4171C86.8995-68.3673 78.4726-76.3542 66.342-76.3542L30.3117-76.3542C18.1926-76.3542 9.76562-68.3673 9.76562-56.4171C9.76562-44.467 18.1926-36.4801 30.3117-36.4801ZM30.3117-47.4364C24.8735-47.4364 21.0407-51.0218 21.0407-56.4171C21.0407-61.8125 24.8735-65.3978 30.3117-65.3978L66.342-65.3978C71.7916-65.3978 75.6129-61.8125 75.6129-56.4171C75.6129-51.0218 71.7916-47.4364 66.342-47.4364ZM30.3117-49.5509L40.5662-49.5509C44.5279-49.5509 47.6623-52.4839 47.6623-56.4171C47.6623-60.3619 44.5279-63.2949 40.5662-63.2949L30.3117-63.2949C26.3499-63.2949 23.2155-60.3619 23.2155-56.4286C23.2155-52.4839 26.3499-49.5509 30.3117-49.5509ZM28.7146 5.84636L67.939 5.84636C78.6597 5.84636 86.8995-1.86728 86.8995-12.4678C86.8995-23.0684 78.6597-30.782 67.939-30.782L28.7146-30.782C17.9939-30.782 9.76562-23.0684 9.76562-12.4678C9.76562-1.86728 17.9939 5.84636 28.7146 5.84636ZM57.7591-4.81154C53.3234-4.81154 49.8241-8.09788 49.8241-12.5167C49.8241-16.9239 53.3234-20.2103 57.7591-20.2103L68.7718-20.2103C73.2191-20.2103 76.7069-16.9239 76.7069-12.5051C76.7069-8.09788 73.2191-4.81154 68.7718-4.81154Z"/>
</svg>