<svg xmlns="http://www.w3.org/2000/svg" viewBox="6.83594 -76.5865 82.77 82.76">
  <path d="M48.2173 6.17631C71.0765 6.17631 89.6102-12.3575 89.6102-35.2051C89.6102-58.0527 71.0765-76.5865 48.2173-76.5865C25.3697-76.5865 6.83594-58.0527 6.83594-35.2051C6.83594-12.3575 25.3697 6.17631 48.2173 6.17631ZM36.0673-52.9776C34.6689-52.9776 33.5289-54.1176 33.5289-55.5045C33.5289-56.903 34.6689-58.0688 36.0673-58.0688L60.4134-58.0688C61.8119-58.0688 62.9519-56.903 62.9519-55.5045C62.9519-54.1176 61.8119-52.9776 60.4134-52.9776ZM48.2404-43.7242C43.3203-43.7242 39.1326-42.7795 36.2517-41.2231L35.657-50.7112L60.8238-50.7112L60.229-41.2231C57.3482-42.7795 53.1605-43.7242 48.2404-43.7242ZM48.2404-29.6575C40.3988-29.6575 34.3929-32.2047 34.3929-35.5447C34.3929-38.8359 40.3988-41.3832 48.2404-41.3832C56.082-41.3832 62.0878-38.8359 62.0878-35.5447C62.0878-32.2047 56.082-29.6575 48.2404-29.6575ZM48.2404-33.319C53.2445-33.319 56.7316-34.261 56.7316-35.5447C56.7316-36.817 53.2445-37.6986 48.2404-37.6986C43.2363-37.6986 39.7491-36.817 39.7491-35.5447C39.7491-34.261 43.2363-33.319 48.2404-33.319ZM47.8579-21.0795C41.332-21.0795 36.6669-24.5238 35.1593-30.628C37.9167-28.6002 42.6361-27.4399 48.2404-27.4399C53.8447-27.4399 58.564-28.6002 61.3215-30.628C59.8396-24.5238 55.1861-21.0795 48.6113-21.0795ZM48.2404-10.0777C44.507-10.0777 40.0291-10.9566 37.9295-13.082C37.3408-13.7683 37.18-14.7246 37.45-15.632L39.1162-21.0097C41.5746-19.574 44.5613-18.7385 47.8091-18.7385L48.6486-18.7385C51.8964-18.7385 54.9062-19.574 57.3646-21.0213L59.0308-15.632C59.3007-14.7246 59.14-13.7683 58.5513-13.082C56.4517-10.9566 51.9738-10.0777 48.2404-10.0777Z"/>
</svg>