<svg xmlns="http://www.w3.org/2000/svg" viewBox="5.85938 -84.5503 80.43 90.51">
  <path d="M35.0183-9.3283C37.238-9.3283 38.6106-10.764 38.5618-12.8746L37.4388-49.8547C37.3899-51.9395 35.9427-53.3264 33.7833-53.3264C31.6497-53.3264 30.3029-51.9279 30.3517-49.8174L31.4747-12.8C31.5236-10.7152 32.9708-9.3283 35.0183-9.3283ZM46.0737-9.3283C48.1815-9.3283 49.603-10.6894 49.603-12.7626L49.603-49.892C49.603-51.9653 48.1815-53.3264 46.0737-53.3264C43.9659-53.3264 42.5445-51.9653 42.5445-49.892L42.5445-12.7626C42.5445-10.6894 43.9659-9.3283 46.0737-9.3283ZM57.1407-9.3283C59.1767-9.3283 60.6355-10.7152 60.6843-12.8L61.7958-49.8174C61.8446-51.9279 60.5093-53.3264 58.3642-53.3264C56.2048-53.3264 54.7576-51.9279 54.7087-49.8547L53.5972-12.8746C53.5484-10.764 54.921-9.3283 57.1407-9.3283ZM26.5334-66.4581L37.272-66.4581L37.272-73.5048C37.272-74.7607 38.1284-75.4822 39.6196-75.4822L52.5163-75.4822C53.996-75.4822 54.8525-74.7607 54.8525-73.5048L54.8525-66.4581L65.6026-66.4581L65.6026-73.7693C65.6026-80.762 61.3206-84.5503 53.3403-84.5503L38.7841-84.5503C30.8154-84.5503 26.5334-80.762 26.5334-73.7693ZM11.171-58.2165L80.9765-58.2165C84.0514-58.2165 86.2881-60.3155 86.2881-63.3904C86.2881-66.3908 84.0399-68.4898 80.9765-68.4898L11.171-68.4898C8.11912-68.4898 5.85938-66.3908 5.85938-63.3904C5.85938-60.3155 8.11912-58.2165 11.171-58.2165ZM28.3349 5.95522L63.8241 5.95522C71.1268 5.95522 75.4088 2.26733 75.7391-5.08419L78.1663-58.9862L67.5281-58.9862L65.2359-8.01753C65.1382-5.74565 64.121-4.54194 62.2337-4.54194L29.9022-4.54194C28.038-4.54194 27.0093-5.75718 26.9116-8.01753L24.5848-58.9862L13.9812-58.9862L16.4199-5.07266C16.7502 2.27886 21.0091 5.95522 28.3349 5.95522Z"/>
</svg>