<svg xmlns="http://www.w3.org/2000/svg" viewBox="6.83594 -76.6353 82.77 82.76">
  <path d="M48.2173 6.12748C71.0765 6.12748 89.6102-12.4063 89.6102-35.2539C89.6102-58.1015 71.0765-76.6353 48.2173-76.6353C25.3697-76.6353 6.83594-58.1015 6.83594-35.2539C6.83594-12.4063 25.3697 6.12748 48.2173 6.12748ZM54.5541-45.8815C50.1359-49.5781 41.4351-52.3471 34.2886-50.1207C37.8964-53.542 42.8314-55.6707 48.2173-55.6707C50.8371-55.6707 53.3591-55.1479 55.6371-54.2344C56.6625-51.7957 56.2-48.9549 54.5541-45.8815ZM46.606-36.2156C40.571-38.5797 32.8298-40.4582 27.9612-37.6316C28.1681-39.5711 28.714-41.5133 29.4755-43.286C35.5912-49.9233 47.0949-47.2547 52.5697-42.7367C51.0845-40.5707 49.0277-38.3932 46.606-36.2156ZM34.1861-35.4811C34.2607-28.1447 37.4751-20.8457 40.9853-16.2701C33.9935-18.9299 28.8544-25.3615 27.9728-32.9996C29.2023-34.8551 31.4314-35.5272 34.1861-35.4811ZM45.3683-32.7379C45.7359-26.7029 49.3322-18.8871 53.9769-15.7994C52.2877-15.3023 50.6242-14.9863 48.6616-14.949C45.0056-15.9656 38.3013-24.9221 37.8964-35.0274C40.3181-34.5391 42.9093-33.6744 45.3683-32.7379ZM58.7011-17.8929C56.8599-17.6806 54.8349-19.3035 53.0513-21.8195C61.6341-28.1107 66.0375-35.4444 67.7607-40.8358C68.3066-39.0834 68.548-37.2619 68.548-35.2912C68.548-27.9637 64.6011-21.4547 58.7011-17.8929ZM51.2162-25.0273C50.0152-27.6213 49.2021-30.6492 49.0298-33.3984C55.2343-39.0197 60.0886-45.994 59.6777-52.0805C61.683-50.6557 63.5215-48.8803 64.9578-46.8492C65.8164-44.8263 63.3771-34.2076 51.2162-25.0273Z"/>
</svg>