<svg xmlns="http://www.w3.org/2000/svg" viewBox="6.83594 -76.6353 82.77 82.76">
  <path d="M48.2173 6.12748C71.0765 6.12748 89.6102-12.3948 89.6102-35.2539C89.6102-58.1131 71.0765-76.6353 48.2173-76.6353C25.3697-76.6353 6.83594-58.1131 6.83594-35.2539C6.83594-12.3948 25.3697 6.12748 48.2173 6.12748ZM48.2173-6.4423C32.2948-6.4423 19.4172-19.3314 19.4172-35.2539C19.4172-51.1764 32.2948-64.0655 48.2173-64.0655C64.1398-64.0655 77.0289-51.1764 77.0289-35.2539C77.0289-19.3314 64.1398-6.4423 48.2173-6.4423ZM48.2058-18.2541C55.6289-18.2541 62.9197-20.3082 69.15-24.1147C71.1371-25.3266 71.7516-27.7559 70.5397-29.7573C69.3766-31.7959 66.8239-32.3012 64.5499-30.9773C59.6692-28.0037 54.0724-26.4406 48.2058-26.4406C42.3737-26.4406 36.754-28.0152 31.8733-30.9773C29.5877-32.3012 27.0466-31.7959 25.872-29.7573C24.6831-27.7674 25.2975-25.3381 27.2731-24.1147C33.4803-20.3082 40.7827-18.2541 48.2058-18.2541ZM48.2058-29.5856C53.7443-29.5856 59.1248-31.1426 63.5654-34.0526C65.4664-35.2387 66.032-37.5819 64.9062-39.5459C63.6801-41.6477 61.1274-42.1271 58.7184-40.7287C55.6647-38.8238 52.0156-37.7951 48.2058-37.7951C44.4075-37.7951 40.7585-38.8238 37.7047-40.7287C35.2958-42.1271 32.7315-41.6477 31.5169-39.5459C30.3911-37.5819 30.9567-35.2387 32.8462-34.0526C37.3329-31.1426 42.7134-29.5856 48.2058-29.5856ZM48.2058-40.9659C51.7763-40.9659 55.3584-42.1004 58.1416-44.0536C59.833-45.2167 60.2609-47.5713 59.1582-49.4608C57.8716-51.5713 55.3705-51.9273 52.8754-50.4686C51.5252-49.6094 49.933-49.1754 48.2058-49.1754C46.5017-49.1754 44.9095-49.6094 43.5362-50.4686C41.0526-51.9158 38.563-51.5598 37.2765-49.4608C36.1622-47.5713 36.5902-45.2051 38.2931-44.0536C41.0302-42.1004 44.6122-40.9659 48.2058-40.9659Z" />
</svg>