<svg xmlns="http://www.w3.org/2000/svg" viewBox="9.76562 -54.3879 80.54 38.29">
  <path d="M14.2769-29.2026C16.85-29.2026 18.8859-31.2242 18.8859-33.7627L18.8859-36.7221C18.8859-39.2721 16.85-41.3195 14.2769-41.3195C11.7642-41.3195 9.76562-39.2721 9.76562-36.7221L9.76562-33.7627C9.76562-31.2242 11.7642-29.2026 14.2769-29.2026ZM28.5681-24.6643C31.1296-24.6643 33.1771-26.6859 33.1771-29.2359L33.1771-41.2488C33.1771-43.7988 31.1296-45.8578 28.5681-45.8578C26.0439-45.8578 24.0453-43.7988 24.0453-41.2488L24.0453-29.2359C24.0453-26.6859 26.0439-24.6643 28.5681-24.6643ZM42.8478-16.0969C45.4093-16.0969 47.4567-18.107 47.4567-20.657L47.4567-49.7904C47.4567-52.3404 45.4093-54.3879 42.8478-54.3879C40.3351-54.3879 38.3365-52.3404 38.3365-49.7904L38.3365-20.657C38.3365-18.107 40.3351-16.0969 42.8478-16.0969ZM57.1389-28.4492C59.7004-28.4492 61.7364-30.4594 61.7364-32.9978L61.7364-37.487C61.7364-40.0254 59.7004-42.0729 57.1389-42.0729C54.6147-42.0729 52.6161-40.0254 52.6161-37.487L52.6161-32.9978C52.6161-30.4594 54.6147-28.4492 57.1389-28.4492ZM71.4301-21.1174C73.9801-21.1174 76.0275-23.1275 76.0275-25.6775L76.0275-44.7699C76.0275-47.3199 73.9801-49.3674 71.4301-49.3674C68.8944-49.3674 66.9073-47.3199 66.9073-44.7699L66.9073-25.6775C66.9073-23.1275 68.8944-21.1174 71.4301-21.1174ZM85.7098-27.5248C88.2713-27.5248 90.3072-29.5465 90.3072-32.0849L90.3072-38.3998C90.3072-40.9383 88.2713-42.9973 85.7098-42.9973C83.1856-42.9973 81.1869-40.9383 81.1869-38.3998L81.1869-32.0849C81.1869-29.5465 83.1856-27.5248 85.7098-27.5248Z" />
</svg>