<svg xmlns="http://www.w3.org/2000/svg" viewBox="9.76562 -72.2296 111.27 74.03">
  <path d="M9.76562-4.45396C9.76562-1.00869 12.5707 1.79635 16.0159 1.79635L114.796 1.79635C118.23 1.79635 121.035-1.00869 121.035-4.45396C121.035-7.88771 118.23-10.6928 114.796-10.6928L113.764-10.6928L113.764-61.7039C113.764-68.0118 109.535-72.2296 103.193-72.2296L27.634-72.2296C21.303-72.2296 17.0738-68.0118 17.0738-61.7039L17.0738-10.6928L16.0159-10.6928C12.5707-10.6928 9.76562-7.88771 9.76562-4.45396ZM29.5514-41.4669L29.5514-58.827C29.5514-59.3871 29.9047-59.752 30.4533-59.752L60.455-59.752L60.455-41.4669ZM70.3717-41.4669L70.3717-59.752L100.385-59.752C100.934-59.752 101.287-59.3871 101.287-58.827L101.287-41.4669ZM29.5514-10.6928L29.5514-28.9663L101.287-28.9663L101.287-10.6928Z"/>
</svg>