<svg xmlns="http://www.w3.org/2000/svg" viewBox="11.2588 -103.207 135.9 135.87">
  <path d="M79.1958 32.6673C116.725 32.6673 147.154 2.25907 147.154-35.2697C147.154-72.7985 116.725-103.207 79.1958-103.207C41.6878-103.207 11.2588-72.7985 11.2588-35.2697C11.2588 2.25907 41.6878 32.6673 79.1958 32.6673ZM79.1958 12.5197C52.7846 12.5197 31.426-8.85853 31.426-35.2697C31.426-61.6809 52.7846-83.0592 79.1958-83.0592C105.607-83.0592 126.985-61.6809 126.985-35.2697C126.985-8.85853 105.607 12.5197 79.1958 12.5197ZM60.3064-10.1092C72.6043-10.1092 76.369-23.2693 76.369-35.2697C76.369-47.2701 72.6043-60.4302 60.3064-60.4302C48.0072-60.4302 44.2425-47.2701 44.2425-35.2697C44.2425-23.2693 48.0072-10.1092 60.3064-10.1092ZM60.3064-19.332C57.2204-19.332 55.9776-25.2537 55.9776-35.2697C55.9776-45.2857 57.2204-51.2074 60.3064-51.2074C63.3923-51.2074 64.656-45.2857 64.656-35.2697C64.656-25.2537 63.3923-19.332 60.3064-19.332ZM98.0812-10.1532C107.061-10.1532 114.106-15.1995 114.106-24.2305C114.106-30.2793 110.589-35.2357 105.249-36.3628L105.249-36.6016C109.731-37.9903 112.893-42.0793 112.893-47.2412C112.893-55.1584 106.683-60.2473 98.0812-60.2473C90.2644-60.2473 83.3505-55.8791 83.3505-47.262C83.3505-41.4264 87.0816-37.7943 90.9961-36.6016L90.9961-36.3628C85.9012-35.3317 82.0782-30.3973 82.0782-24.2889C82.0782-15.5009 88.8604-10.1532 98.0812-10.1532ZM98.0824-39.9673C95.826-39.9673 94.5858-42.6158 94.5858-46.0533C94.5858-49.5901 95.8997-52.1892 98.0824-52.1892C100.412-52.1892 101.675-49.6209 101.675-46.0533C101.675-42.4576 100.421-39.9673 98.0824-39.9673ZM98.0824-18.2906C95.5424-18.2906 94.1665-21.1198 94.1665-25.1419C94.1665-29.064 95.5436-31.8872 98.0824-31.8872C100.613-31.8872 102.055-29.0956 102.055-25.1419C102.055-21.121 100.624-18.2906 98.0824-18.2906Z" />
</svg>