<svg xmlns="http://www.w3.org/2000/svg" viewBox="11.2588 -103.207 135.9 135.87">
  <path d="M79.1958 32.6673C116.725 32.6673 147.154 2.25907 147.154-35.2697C147.154-72.7985 116.725-103.207 79.1958-103.207C41.6878-103.207 11.2588-72.7985 11.2588-35.2697C11.2588 2.25907 41.6878 32.6673 79.1958 32.6673ZM79.1958 12.5197C52.7846 12.5197 31.426-8.85853 31.426-35.2697C31.426-61.6809 52.7846-83.0592 79.1958-83.0592C105.607-83.0592 126.985-61.6809 126.985-35.2697C126.985-8.85853 105.607 12.5197 79.1958 12.5197ZM67.215-10.6322C70.4682-10.6322 73.0709-13.2349 73.0709-16.5101L73.0709-53.3179C73.0709-57.5827 70.489-59.8893 66.2243-59.8893C63.0635-59.8893 60.85-58.5676 58.7083-56.9609L53.5786-52.9891C51.895-51.7612 51.0587-50.3292 51.0587-48.439C51.0587-45.5872 53.0176-44.3048 54.9166-44.3048C56.0329-44.3048 56.7871-44.6241 57.7385-45.3574L61.3359-48.1954L61.3359-16.5101C61.3359-13.2349 63.9385-10.6322 67.215-10.6322ZM95.5609-10.6322C98.8142-10.6322 101.417-13.2349 101.417-16.5101L101.417-53.3179C101.417-57.5827 98.835-59.8893 94.5911-59.8893C91.4095-59.8893 89.196-58.5676 87.0751-56.9609L81.9246-52.9891C80.263-51.7612 79.4047-50.3292 79.4047-48.439C79.4047-45.5872 81.3856-44.3048 83.2833-44.3048C84.3788-44.3048 85.1538-44.6241 86.1052-45.3574L89.7038-48.1954L89.7038-16.5101C89.7038-13.2349 92.3053-10.6322 95.5609-10.6322Z" />
</svg>