<svg xmlns="http://www.w3.org/2000/svg" viewBox="11.2588 -103.207 135.9 135.87">
  <path d="M79.1958 32.6673C116.725 32.6673 147.154 2.25907 147.154-35.2697C147.154-72.7985 116.725-103.207 79.1958-103.207C41.6878-103.207 11.2588-72.7985 11.2588-35.2697C11.2588 2.25907 41.6878 32.6673 79.1958 32.6673ZM79.1958 12.5197C52.7846 12.5197 31.426-8.85853 31.426-35.2697C31.426-61.6809 52.7846-83.0592 79.1958-83.0592C105.607-83.0592 126.985-61.6809 126.985-35.2697C126.985-8.85853 105.607 12.5197 79.1958 12.5197ZM62.7902-10.6322C66.0435-10.6322 68.6462-13.2349 68.6462-16.5101L68.6462-53.3179C68.6462-57.5827 66.0643-59.8893 61.8204-59.8893C58.6387-59.8893 56.4253-58.5676 54.3044-56.9609L49.1539-52.9891C47.4715-51.7612 46.634-50.3292 46.634-48.439C46.634-45.5872 48.5929-44.3048 50.4918-44.3048C51.6081-44.3048 52.3831-44.6241 53.3137-45.3574L56.9123-48.1954L56.9123-16.5101C56.9123-13.2349 59.5138-10.6322 62.7902-10.6322ZM92.2777-10.1092C101.959-10.1092 106.908-17.9664 106.908-27.6909C106.908-35.0878 104.07-43.2305 96.3567-43.2305C92.1157-43.2305 89.6266-40.7044 88.6767-38.1457L88.3574-38.1457L89.018-50.0202L101.03-50.0202C103.947-50.0202 105.324-52.066 105.324-54.5166C105.324-57.2361 103.75-59.0482 101.03-59.0482L85.1074-59.0482C81.5148-59.0482 79.8624-56.6744 79.6807-53.027L79.0578-38.3453C79.0357-37.8463 78.9761-36.5469 78.9761-35.9979C78.9761-32.5478 80.7998-30.3356 84.0659-30.3356C86.1188-30.3356 87.2339-30.8645 88.3762-32.7218C89.2225-34.0674 90.318-35.3685 91.91-35.3685C94.9768-35.3685 95.9423-30.9265 95.9423-27.3937C95.9423-24.0143 95.1884-19.1152 92.0024-19.1152C89.8118-19.1152 88.6211-20.8504 87.8869-22.9242C87.0118-25.3559 85.2646-26.5867 83.08-26.5867C80.2373-26.5867 78.5068-24.7966 78.5068-21.9538C78.5068-20.8283 78.7301-19.7771 79.0742-18.714C80.7508-13.8488 86.113-10.1092 92.2777-10.1092Z" />
</svg>