<svg xmlns="http://www.w3.org/2000/svg" viewBox="11.2588 -103.207 135.9 135.87">
  <path d="M79.1958 32.6673C116.722 32.6673 147.154 2.23586 147.154-35.2697C147.154-72.7753 116.722-103.207 79.1958-103.207C41.6902-103.207 11.2588-72.7753 11.2588-35.2697C11.2588 2.23586 41.6902 32.6673 79.1958 32.6673ZM79.6147-4.22022C68.1265-4.22022 58.5682-9.08631 56.054-16.1462C55.6596-17.3401 55.4039-18.4859 55.4039-19.8162C55.4039-24.3984 58.7011-27.2855 63.9233-27.2855C67.1529-27.2855 69.5426-25.9731 71.451-23.364C73.2495-20.56 75.9073-18.907 80.0067-18.907C83.8457-18.907 86.4134-20.7769 86.4134-23.5314C86.4134-26.5504 83.9029-28.3671 79.4971-28.3671L78.1717-28.3671C73.1483-28.3671 69.894-31.2113 69.894-35.6299C69.894-40.1484 73.0315-42.855 78.1717-42.855L79.4066-42.855C83.0394-42.855 85.4542-44.8625 85.4542-47.8698C85.4542-50.5227 83.1899-52.158 79.6591-52.158C76.3428-52.158 73.7061-50.5519 71.9565-47.701C70.0129-44.9971 67.6804-43.7796 64.4872-43.7796C59.2273-43.7796 55.9898-46.6262 55.9898-51.2072C55.9898-52.4791 56.187-53.725 56.5803-54.9189C59.0985-61.9816 67.7334-66.3192 79.78-66.3192C94.6094-66.3192 104.222-59.8535 104.222-49.8819C104.222-43.8895 99.1616-38.2508 92.9785-37.4198L92.9785-36.4724C100.348-35.903 105.786-29.8895 105.786-22.376C105.786-11.2576 95.8082-4.22022 79.6147-4.22022Z"/>
</svg>