<svg xmlns="http://www.w3.org/2000/svg" viewBox="11.2588 -103.207 135.9 135.87">
  <path d="M79.1958 32.6673C116.722 32.6673 147.154 2.23586 147.154-35.2697C147.154-72.7753 116.722-103.207 79.1958-103.207C41.6902-103.207 11.2588-72.7753 11.2588-35.2697C11.2588 2.23586 41.6902 32.6673 79.1958 32.6673ZM63.1839-8.88058C60.0728-8.88058 57.3488-10.7066 57.3488-14.8961L57.3488-18.5586L46.4667-18.5586C41.846-18.5586 39.3393-20.9509 39.3393-25.3331C39.3393-27.7398 39.9142-30.332 40.9137-33.0619L47.4249-49.9931C49.6522-55.9733 52.0033-61.4456 59.6114-61.4456C65.3381-61.4456 69.0554-58.2543 69.0554-52.4913L69.0554-28.2891L69.9701-28.2891C73.1469-28.2891 74.5601-26.4574 74.5601-23.4447C74.5601-20.9368 73.4581-18.5586 69.9117-18.5586L69.0554-18.5586L69.0554-14.8961C69.0554-10.5962 66.4748-8.88058 63.1839-8.88058ZM57.6825-27.9346L57.6825-51.8255L57.4413-51.8255L49.4099-28.4112L49.4099-27.9346ZM85.2385-8.87938C81.5711-8.87938 79.4826-11.2784 79.4826-14.8873C79.4826-15.8792 79.8383-18.0537 80.0187-18.9287L88.1169-53.8804C89.3489-59.505 93.0653-61.4432 97.5389-61.4432C102.341-61.4432 106.241-59.5882 107.453-53.8804L115.686-18.9323C115.888-17.9948 116.223-15.7144 116.223-14.8873C116.223-11.4368 113.882-8.87938 110.489-8.87938C106.849-8.87938 104.741-10.6561 104.141-14.5096L103.137-19.3725L92.3523-19.3725L91.5073-14.7056C90.8699-10.877 88.9625-8.87938 85.2385-8.87938ZM94.0112-28.5096L101.362-28.5096L97.7194-47.4609L97.3365-47.4609Z"/>
</svg>