<svg xmlns="http://www.w3.org/2000/svg" viewBox="16.084 -96.8595 123.2 123.22">
  <path d="M39.8556 26.3617L115.513 26.3617C130.677 26.3617 139.284 17.7518 139.284 2.65254L139.284-73.1503C139.284-88.2496 130.677-96.8595 115.513-96.8595L39.8556-96.8595C24.7123-96.8595 16.084-88.252 16.084-73.1503L16.084 2.65254C16.084 17.7542 24.7123 26.3617 39.8556 26.3617ZM42.5864 6.35991C38.2704 6.35991 36.065 4.42973 36.065-0.182275L36.065-70.3155C36.065-74.9483 38.2704-76.8577 42.5864-76.8577L112.782-76.8577C117.093-76.8577 119.303-74.9483 119.303-70.3155L119.303-0.182275C119.303 4.42973 117.093 6.35991 112.782 6.35991ZM77.653-6.20425C93.5484-6.20425 103.502-12.7103 103.502-23.1649C103.502-30.3139 98.4727-35.4629 90.6112-36.5212L90.6112-37.2726C97.6557-39.177 101.13-43.1338 101.13-49.1217C101.13-58.3956 92.0616-64.3352 77.6946-64.3352C63.3068-64.3352 54.2382-58.3956 54.2382-49.1217C54.2382-43.1338 57.6711-39.2199 64.778-37.2726L64.778-36.5212C56.8749-35.4629 51.8668-30.2931 51.8668-23.1649C51.8668-12.6883 61.7564-6.20425 77.653-6.20425ZM77.7154-18.2357C73.7565-18.2357 70.922-20.8805 70.922-24.5568C70.922-28.1867 73.7774-30.9668 77.7154-30.9668C81.6743-30.9668 84.4672-28.2075 84.4672-24.5568C84.4672-20.8805 81.6327-18.2357 77.7154-18.2357ZM77.6946-41.8016C74.5159-41.8016 72.1208-44.0563 72.1208-47.0625C72.1208-50.0502 74.572-52.3413 77.6946-52.3413C80.7964-52.3413 83.2476-50.0502 83.2476-47.0625C83.2476-44.0563 80.9109-41.8016 77.6946-41.8016Z" />
</svg>