<svg xmlns="http://www.w3.org/2000/svg" viewBox="11.2588 -103.207 135.9 135.87">
  <path d="M79.1958 32.6673C116.722 32.6673 147.154 2.23586 147.154-35.2697C147.154-72.7753 116.722-103.207 79.1958-103.207C41.6902-103.207 11.2588-72.7753 11.2588-35.2697C11.2588 2.23586 41.6902 32.6673 79.1958 32.6673ZM52.1494-43.9681C52.1494-57.0481 62.6687-66.3192 78.9949-66.3192C95.7312-66.3192 106.077-57.1625 106.077-42.7674C106.077-33.7346 102.677-27.3441 96.4711-18.7949C94.9371-16.7019 92.0723-12.8704 89.9784-10.262C87.185-6.77796 84.6281-4.2262 79.5631-4.2262C74.0267-4.2262 70.6008-7.81535 70.6008-11.7358C70.6008-14.6303 71.9194-16.7812 73.5411-18.4456C75.0882-20.2661 76.9522-22.3758 78.5874-24.4092C79.8997-25.7912 81.1168-27.2935 81.8998-28.4041L80.9419-28.4053C78.7222-26.2644 74.8392-25.2037 70.9994-25.2037C60.075-25.2037 52.1494-33.1961 52.1494-43.9681ZM70.3204-44.9702C70.3204-40.9146 74.0195-38.0757 78.9985-38.0757C84.0128-38.0757 87.6523-40.9122 87.6523-44.9667C87.6523-49.0403 83.9872-51.9048 78.9937-51.9048C74.0195-51.9048 70.3204-49.0427 70.3204-44.9702Z"/>
</svg>