<svg xmlns="http://www.w3.org/2000/svg" viewBox="11.2588 -103.207 135.9 135.87">
  <path d="M79.1958 32.6673C116.725 32.6673 147.154 2.25907 147.154-35.2697C147.154-72.7985 116.725-103.207 79.1958-103.207C41.6878-103.207 11.2588-72.7985 11.2588-35.2697C11.2588 2.25907 41.6878 32.6673 79.1958 32.6673ZM79.1958 12.5197C52.7846 12.5197 31.426-8.85853 31.426-35.2697C31.426-61.6809 52.7846-83.0592 79.1958-83.0592C105.607-83.0592 126.985-61.6809 126.985-35.2697C126.985-8.85853 105.607 12.5197 79.1958 12.5197ZM111.807-47.5704C111.807-49.1656 111.147-50.6208 110.031-51.7955L93.0698-68.9405C91.9767-70.1129 90.5708-70.6502 89.1156-70.6502C86.0936-70.6502 83.2829-67.8955 83.2829-64.7759C83.2829-63.3415 83.8422-61.8719 85.0325-60.8412L90.7811-55.6611L102.687-47.2951L91.1963-39.3662L85.0117-34.3371C83.763-33.3428 83.1661-31.8536 83.1661-30.4608C83.1661-27.2816 85.9768-24.5865 88.978-24.5865C90.4916-24.5865 91.9559-25.1238 93.049-26.2169L110.031-43.3452C111.206-44.5395 111.807-46.0711 111.807-47.5704ZM88.3414-9.52216C88.3414-13.3103 85.4307-15.7041 81.3181-15.7041L72.142-15.7041C64.5545-15.7041 59.4191-20.797 59.4191-28.5772C59.4191-36.4493 64.6545-41.3884 72.238-41.3884L90.1432-41.3884L101.283-41.9621C104.258-42.0998 106.678-44.3808 106.678-47.3576C106.678-50.3123 104.258-52.5945 101.283-52.7321L90.1432-53.2642L72.238-53.2642C57.0082-53.2642 46.4838-43.4618 46.4838-28.4107C46.4838-13.1259 56.9707-3.08577 72.142-3.08577L81.3349-3.08577C85.4891-3.08577 88.3414-5.61836 88.3414-9.52216Z" />
</svg>