<svg xmlns="http://www.w3.org/2000/svg" viewBox="14.1264 -103.51 136.44 136.5">
  <path d="M43.638-73.94C26.3338-56.6346 14.9228-29.6477 14.5316-8.04206C14.1264 16.9944 30.0012 32.9913 54.9337 32.5081C77.0366 32.1741 102.095 22.3425 121.037 3.39935C139.979-15.5414 149.773-40.5997 150.165-62.6443C150.569-87.5767 134.652-103.51 109.594-103.048C87.9886-102.713 61.0017-91.2453 43.638-73.94ZM55.2219-62.4144C71.4544-78.7065 91.1989-86.9569 110.249-86.7809C124.427-86.5835 133.586-77.4074 133.858-63.2379C134.073-44.0996 125.744-24.3575 109.476-8.125C93.2205 8.10746 73.5367 16.4163 54.34 16.2803C40.1706 16.0077 30.9944 6.78992 30.8763-7.3876C30.6794-26.379 38.9299-46.1235 55.2219-62.4144ZM53.905-21.8671L68.9056-6.86647C70.5928-5.17928 73.3107-5.17928 74.9966-6.86647C76.741-8.63288 76.7399-11.3483 74.9966-13.0343L60.0728-28.0165C58.388-29.6429 55.6898-29.7025 53.9038-28.0177C52.2386-26.2721 52.297-23.5543 53.905-21.8671ZM62.8792-30.8437L77.8799-15.8407C79.5879-14.2351 82.2861-14.1559 83.9501-15.8407C85.7153-17.4683 85.6945-20.3249 83.9721-21.9889L69.0483-36.9711C67.3635-38.5987 64.564-38.6196 62.878-36.9503C61.1932-35.2488 61.2724-32.5285 62.8792-30.8437ZM71.8546-39.7971L86.7784-24.7953C88.462-23.1093 91.2395-23.1093 92.9255-24.7369C94.5531-26.4229 94.5907-29.2796 92.9463-30.9447L77.9809-45.9454C76.3169-47.5521 73.459-47.573 71.8534-45.8882C70.1466-44.2022 70.1478-41.4247 71.8546-39.7971ZM80.9249-48.8477L95.8487-33.8863C97.5711-32.2004 100.31-32.2212 101.937-33.8279C103.704-35.5735 103.704-38.211 101.937-39.9565L86.9367-54.8988C85.3287-56.586 82.5536-56.6444 80.8653-54.9C79.2013-53.2724 79.2389-50.4753 80.9249-48.8477ZM89.8795-57.822L104.802-42.841C106.467-41.155 109.285-41.1538 110.913-42.7825C112.657-44.4298 112.677-47.2072 110.912-48.9308L95.9109-63.8754C94.3041-65.5602 91.5267-65.5602 89.8199-63.8754C88.1351-62.2258 88.1935-59.4287 89.8795-57.822ZM65.5565-12.4293L105.151-52.0215L99.1196-58.1101L59.5262-18.5156Z"/>
</svg>