<svg xmlns="http://www.w3.org/2000/svg" viewBox="11.2588 -103.207 135.9 135.87">
  <path d="M79.1958 32.6673C116.725 32.6673 147.154 2.25907 147.154-35.2697C147.154-72.7985 116.725-103.207 79.1958-103.207C41.6878-103.207 11.2588-72.7985 11.2588-35.2697C11.2588 2.25907 41.6878 32.6673 79.1958 32.6673ZM79.1958 12.5197C52.7846 12.5197 31.426-8.85853 31.426-35.2697C31.426-61.6809 52.7846-83.0592 79.1958-83.0592C105.607-83.0592 126.985-61.6809 126.985-35.2697C126.985-8.85853 105.607 12.5197 79.1958 12.5197ZM65.0561-8.77079L83.107-8.77079C93.6382-8.77079 101.843-14.0989 101.843-24.1372C101.843-31.3902 96.1558-36.5704 88.8366-36.9841L88.8366-37.2718C94.8789-38.0372 99.3784-42.9586 99.3784-48.8692C99.3784-58.3413 91.1571-62.2023 82.461-62.2023L65.0561-62.2023C60.5038-62.2023 58.1053-59.4088 58.1053-54.9959L58.1053-15.9552C58.1053-11.5643 60.5246-8.77079 65.0561-8.77079ZM71.1205-40.399L71.1205-52.7373L79.3015-52.7373C83.5951-52.7373 86.7708-50.8408 86.7708-46.6872C86.7708-42.2598 83.1249-40.399 78.6903-40.399ZM71.1205-18.2149L71.1205-32.2022L79.5691-32.2022C84.6226-32.2022 88.259-30.3681 88.259-25.3158C88.259-20.1919 84.9127-18.2149 79.6672-18.2149ZM78.0068-2.20993C79.0932-2.20993 79.7382-2.87576 79.7382-3.94249L79.7382-67.3312C79.7382-68.3979 79.0724-69.0638 78.0068-69.0638C76.9413-69.0638 76.2755-68.3979 76.2755-67.3312L76.2755-3.94249C76.2755-2.87576 76.9413-2.20993 78.0068-2.20993Z" />
</svg>