<svg xmlns="http://www.w3.org/2000/svg" viewBox="11.2588 -103.207 135.9 135.87">
  <path d="M79.1958 32.6673C116.722 32.6673 147.154 2.23586 147.154-35.2697C147.154-72.7753 116.722-103.207 79.1958-103.207C41.6902-103.207 11.2588-72.7753 11.2588-35.2697C11.2588 2.23586 41.6902 32.6673 79.1958 32.6673ZM45.9148-33.7196C45.3963-39.5087 47.6706-47.7951 51.1839-53.2661C54.8783-52.1471 56.7119-49.2165 56.7352-45.2361C52.4913-41.9328 48.9052-38.0547 45.9148-33.7196ZM61.6399-48.6253C60.7445-52.535 58.2775-56.7485 54.3962-57.4942C57.3169-60.6938 60.889-63.3769 64.7063-65.3254C62.8592-59.8487 62.8343-55.0331 63.6141-49.7788C62.8387-49.3911 62.2205-48.979 61.6399-48.6253ZM68.4009-52.0754C67.8523-58.3663 68.7298-62.7182 70.8953-67.4187C73.572-68.1637 77.793-68.5251 80.1709-68.5727C74.4689-65.7188 71.6165-60.6419 71.6165-55.3914C71.6165-54.5884 71.6165-54.0595 71.697-53.4357C70.5439-53.0444 69.51-52.6687 68.4009-52.0754ZM76.9794-54.9305C76.9686-59.8318 80.464-65.3487 88.4465-67.278C96.7342-64.8402 103.723-59.3264 107.982-52.0334C102.064-54.6252 95.117-56.1944 88.0884-56.1944C84.2762-56.1944 80.5844-55.8263 76.9794-54.9305ZM47.243-25.7685C49.7829-30.3953 52.707-34.2447 56.1315-37.6568C55.2777-28.2803 53.7419-17.7894 58.145-9.39715C53.0853-13.6095 49.1835-19.3491 47.243-25.7685ZM61.9228-42.5462C62.7006-43.0388 63.5161-43.6481 64.4911-44.2927C66.8417-31.9235 73.1393-16.4778 84.9473-2.2836C83.05-1.9083 81.1735-1.82788 79.2166-1.82788C75.5875-1.82788 72.1072-2.40874 68.8481-3.55326C55.8462-16.8106 61.4776-28.6647 61.9228-42.5462ZM69.1742-46.7501C70.5662-47.4435 71.8766-47.9384 73.3061-48.3713C79.727-36.2591 103.917-31.9424 105.747-15.024C101.943-9.9323 96.617-6.02412 90.6098-3.77356C77.4876-18.7863 71.3444-34.9338 69.1742-46.7501ZM78.821-49.9257C81.7938-50.5647 84.9691-50.9132 88.0884-50.9132C96.4674-50.9132 103.965-48.6822 111.283-44.2411C112.209-41.4335 112.601-38.3346 112.601-35.2113C112.601-30.328 111.554-25.6483 109.647-21.5644C104.997-36.1124 84.8461-40.9488 78.821-49.9257Z"/>
</svg>