<svg xmlns="http://www.w3.org/2000/svg" viewBox="11.2588 -103.126 135.9 135.87">
  <path d="M79.1958 32.7477C116.722 32.7477 147.154 2.31628 147.154-35.1893C147.154-72.6948 116.722-103.126 79.1958-103.126C41.6902-103.126 11.2588-72.6948 11.2588-35.1893C11.2588 2.31628 41.6902 32.7477 79.1958 32.7477ZM79.1958 12.6586C65.0856 12.6586 52.4699 6.57092 43.7629-3.07048L43.7629-54.2837C43.7629-59.5748 46.666-62.7571 51.8142-62.7571L87.9869-62.7571C93.0391-62.7571 95.9797-59.5748 95.9797-54.2837L95.9797 9.62432C90.7773 11.5623 85.1364 12.6586 79.1958 12.6586ZM58.2349 2.88557L64.9437 2.88557C65.7847 2.88557 66.4233 2.2446 66.4233 1.38274L66.4233-5.20284C66.4233-6.02427 65.7847-6.56804 64.9437-6.56804L58.2349-6.56804C57.4146-6.56804 56.8333-6.02427 56.8333-5.20284L56.8333 1.38274C56.8333 2.2446 57.4146 2.88557 58.2349 2.88557ZM75.6655 2.88557L82.4703 2.88557C83.1945 2.88557 83.8539 2.2446 83.8539 1.38274L83.8539-5.20284C83.8539-6.02427 83.1945-6.56804 82.4703-6.56804L75.6655-6.56804C74.9412-6.56804 74.2431-6.02427 74.2431-5.20284L74.2431 1.38274C74.2431 2.2446 74.9412 2.88557 75.6655 2.88557ZM58.2349-12.3018L64.9437-12.3018C65.7847-12.3018 66.4233-13.0208 66.4233-13.7826L66.4233-20.4862C66.4233-21.2688 65.7847-21.9086 64.9437-21.9086L58.2349-21.9086C57.4146-21.9086 56.8333-21.2688 56.8333-20.4862L56.8333-13.7826C56.8333-13.0208 57.4146-12.3018 58.2349-12.3018ZM75.6655-12.3018L82.4703-12.3018C83.1945-12.3018 83.8539-13.0208 83.8539-13.7826L83.8539-20.4862C83.8539-21.2688 83.1945-21.9086 82.4703-21.9086L75.6655-21.9086C74.9412-21.9086 74.2431-21.2688 74.2431-20.4862L74.2431-13.7826C74.2431-13.0208 74.9412-12.3018 75.6655-12.3018ZM58.2349-27.7007L64.9437-27.7007C65.7847-27.7007 66.4233-28.3613 66.4233-29.1439L66.4233-35.8267C66.4233-36.6093 65.7847-37.3283 64.9437-37.3283L58.2349-37.3283C57.4146-37.3283 56.8333-36.6093 56.8333-35.8267L56.8333-29.1439C56.8333-28.3613 57.4146-27.7007 58.2349-27.7007ZM75.6655-27.7007L82.4703-27.7007C83.1945-27.7007 83.8539-28.3613 83.8539-29.1439L83.8539-35.8267C83.8539-36.6093 83.1945-37.3283 82.4703-37.3283L75.6655-37.3283C74.9412-37.3283 74.2431-36.6093 74.2431-35.8267L74.2431-29.1439C74.2431-28.3613 74.9412-27.7007 75.6655-27.7007ZM58.2349-43.0204L64.9437-43.0204C65.7847-43.0204 66.4233-43.5642 66.4233-44.3844L66.4233-51.0296C66.4233-51.8331 65.7847-52.452 64.9437-52.452L58.2349-52.452C57.4146-52.452 56.8333-51.8331 56.8333-51.0296L56.8333-44.3844C56.8333-43.5642 57.4146-43.0204 58.2349-43.0204ZM75.6655-43.0204L82.4703-43.0204C83.1945-43.0204 83.8539-43.5642 83.8539-44.3844L83.8539-51.0296C83.8539-51.8331 83.1945-52.452 82.4703-52.452L75.6655-52.452C74.9412-52.452 74.2431-51.8331 74.2431-51.0296L74.2431-44.3844C74.2431-43.5642 74.9412-43.0204 75.6655-43.0204ZM100.906 7.47497L100.906-47.8722L112.006-47.8722C117.155-47.8722 120.058-44.8286 120.058-39.4791L120.058-10.3166C115.641-2.47748 107.188 4.4644 100.906 7.47497ZM108.56-7.32516L112.886-7.32516C113.605-7.32516 114.165-7.88571 114.165-8.5463L114.165-12.8671C114.165-13.5068 113.605-14.0882 112.886-14.0882L108.56-14.0882C107.9-14.0882 107.339-13.4484 107.339-12.8671L107.339-8.5463C107.339-7.88571 107.958-7.32516 108.56-7.32516ZM108.56-19.2479L112.886-19.2479C113.664-19.2479 114.165-19.75 114.165-20.4886L114.165-24.7314C114.165-25.4712 113.664-25.9525 112.886-25.9525L108.56-25.9525C107.9-25.9525 107.339-25.4128 107.339-24.7314L107.339-20.4886C107.339-19.8084 107.9-19.2479 108.56-19.2479ZM108.56-31.1306L112.886-31.1306C113.605-31.1306 114.165-31.5744 114.165-32.235L114.165-36.5557C114.165-37.2747 113.664-37.7769 112.886-37.7769L108.56-37.7769C107.9-37.7769 107.339-37.2163 107.339-36.5557L107.339-32.235C107.339-31.6328 107.9-31.1306 108.56-31.1306Z"/>
</svg>