<svg xmlns="http://www.w3.org/2000/svg" viewBox="16.084 -120.449 161.05 164.6">
  <path d="M40.6217 44.147L48.7348 44.147C56.5316 44.147 60.5182 40.1605 60.5182 32.443L60.5182 24.1185C71.2664 24.9448 83.1319 25.3093 96.596 25.3093C110.059 25.3093 121.927 24.9656 132.697 24.1197L132.697 32.443C132.697 40.1605 136.663 44.147 144.46 44.147L152.594 44.147C160.37 44.147 164.356 40.1593 164.356 32.443L164.356-97.4612C164.356-108.53 158.43-115.827 147.024-117.628C134.491-119.566 116.734-120.449 96.596-120.449C76.2644-120.449 58.7068-119.703 46.1927-117.628C34.7857-115.652 28.8384-108.413 28.8384-97.4612L28.8384 32.443C28.8384 40.1593 32.8249 44.147 40.6217 44.147ZM52.0994-21.9158C47.811-22.8088 45.7809-25.5087 45.7809-30.5627L45.7809-92.3578C45.7809-97.5992 47.9139-100.404 52.3908-101.254C71.3086-104.692 120.69-104.399 140.866-101.196C145.322-100.463 147.436-97.716 147.436-92.3578L147.436-30.5627C147.436-25.3919 145.405-22.692 141.137-21.9742C120.238-18.5172 71.6395-17.9927 52.0994-21.9158ZM56.6022 8.46825C51.7194 8.46825 47.9224 4.67126 47.9224-0.211623C47.9224-5.09331 51.7194-8.8915 56.6022-8.8915C61.4839-8.8915 65.2809-5.09331 65.2809-0.211623C65.2809 4.67126 61.4839 8.46825 56.6022 8.46825ZM83.0984 6.44756C79.1291 6.44756 76.2808 3.57847 76.2808-0.311664C76.2808-4.27983 79.1291-7.04887 83.0984-7.04887L110.089-7.04887C114.057-7.04887 116.905-4.27983 116.905-0.311664C116.905 3.57847 114.057 6.44756 110.089 6.44756ZM136.613 8.46825C131.731 8.46825 127.934 4.67126 127.934-0.211623C127.934-5.09331 131.731-8.8915 136.613-8.8915C141.496-8.8915 145.294-5.09331 145.294-0.211623C145.294 4.67126 141.496 8.46825 136.613 8.46825ZM28.8384-43.6347L28.8384-92.7579L25.8657-92.7579C20.3141-92.7579 16.084-88.9215 16.084-83.5343L16.084-52.8583C16.084-47.4699 20.3141-43.6347 25.8657-43.6347ZM164.356-43.6347L167.329-43.6347C172.902-43.6347 177.131-47.4699 177.131-52.8583L177.131-83.5343C177.131-88.9215 172.902-92.7579 167.329-92.7579L164.356-92.7579Z"/>
</svg>