<svg xmlns="http://www.w3.org/2000/svg" viewBox="16.084 -116.226 115.76 161.99">
  <path d="M35.114 29.9809L112.759 29.9809C123.989 29.9809 131.848 21.9799 131.848 10.56L131.848-96.8052C131.848-108.225 123.989-116.226 112.759-116.226L35.114-116.226C23.883-116.226 16.084-108.225 16.084-96.8052L16.084 10.56C16.084 21.9799 23.883 29.9809 35.114 29.9809ZM37.4768 11.7533C35.6327 11.7533 34.3712 10.5054 34.3712 8.65178L34.3712-94.897C34.3712-96.7506 35.6327-97.9973 37.4768-97.9973L110.981-97.9973C112.533-97.9973 113.561-96.9842 113.561-95.481L113.561 9.23585C113.561 10.739 112.533 11.7533 110.981 11.7533ZM67.489 23.5796L80.3844 23.5796L80.3844-109.853L67.489-109.853ZM53.9675-33.1801C58.6686-33.1801 62.6303-37.0638 62.6303-41.7649C62.6303-46.6036 58.6686-50.4873 53.9675-50.4873C49.012-50.4873 45.2451-46.4868 45.2451-41.7649C45.2451-37.1806 49.012-33.1801 53.9675-33.1801ZM94.0203-33.1801C98.7422-33.1801 102.683-37.0638 102.683-41.7649C102.683-46.6036 98.7422-50.4873 94.0203-50.4873C89.0856-50.4873 85.3187-46.4868 85.3187-41.7649C85.3187-37.1806 89.0856-33.1801 94.0203-33.1801ZM40.7276 45.7599C45.8471 45.7599 49.8748 41.7531 49.8748 36.6128L49.8748 19.7153L31.5804 19.7153L31.5804 36.6128C31.5804 41.7531 35.586 45.7599 40.7276 45.7599ZM106.971 45.7599C112.111 45.7599 116.118 41.7531 116.118 36.6128L116.118 19.7153L97.8442 19.7153L97.8442 36.6128C97.8442 41.7531 101.851 45.7599 106.971 45.7599Z"/>
</svg>