<svg xmlns="http://www.w3.org/2000/svg" viewBox="9.77886 -109.209 162.99 148.21">
  <path d="M50.1205-102.039C46.288-94.482 45.1909-86.5321 45.1909-78.9175C45.1909-52.459 64.2565-32.4248 91.384-32.4248C118.532-32.4248 137.598-52.459 137.598-78.9175C137.598-86.6489 136.559-94.5404 132.727-102.039C130.164-107.034 123.988-108.175 119.939-104.045L107.878-91.6832L97.5998-104.964C94.3415-109.209 88.4253-109.209 85.1682-104.964L74.9112-91.6832L62.8286-104.045C58.8005-108.175 52.7403-107.093 50.1205-102.039ZM82.9121 31.0064C82.9121 35.5718 86.6237 39.0054 91.384 39.0054C126.906 39.0054 159.752 17.383 170.56-13.2732C172.772-19.381 169.778-23.8584 163.277-23.8584C130.254-23.8584 104.012-5.52777 92.9464 22.2363L99.8559 22.922L99.8559-44.5037L82.9121-44.5037ZM71.6449-3.77333C58.3322-16.4096 40.2186-23.8584 19.2738-23.8584C12.7735-23.8584 9.77886-19.381 11.9898-13.2732C20.7019 11.7185 44.2518 31.0163 72.6107 36.9737C72.0006 35.1161 71.6449 33.0613 71.6449 31.0064Z"/>
</svg>