<svg xmlns="http://www.w3.org/2000/svg" viewBox="12.7159 -109.698 157.75 149.22">
  <path d="M114.954-39.168L130.181-39.168L130.181-34.5397C130.181-31.1185 132.881-28.4395 136.304-28.4395L141.376-28.4395C144.878-28.4395 147.637-31.1185 147.637-34.5397L147.637-62.8454C147.637-70.7592 147.032-75.572 142.629-80.362L138.495-84.9043L134.17-96.5161C130.963-105.016 125.747-108.239 119.401-108.96C116.003-109.458 107.949-109.698 96.6165-109.698C85.2844-109.698 77.2095-109.458 73.8328-108.96C67.4865-108.239 62.3288-104.958 59.0633-96.5161L58.668-95.4349L67.636-86.4669C67.6544-86.7701 67.7724-87.0121 67.8553-87.3166L70.1094-93.9031C71.1192-96.7353 72.8863-97.3978 76.1341-97.8971C78.3707-98.2187 85.4296-98.3252 96.6165-98.3252C107.805-98.3252 114.841-98.2187 117.02-97.8971C120.326-97.3978 122.151-96.7132 123.103-93.9031L125.404-87.1096C126.104-85.0103 125.09-83.7195 122.598-83.7195L70.3625-83.7195L84.8267-69.2554L84.8267-69.2906C85.4605-70.0291 86.4427-70.4801 87.6943-70.4801L105.336-70.4801C107.67-70.4801 109.109-69.0629 109.109-66.6855L109.109-62.9766C109.109-60.5992 107.67-59.1588 105.336-59.1588L94.9221-59.1588ZM128.281-57.1955C125.467-57.1955 123.544-59.0588 123.544-61.8371L123.544-67.9042C123.544-70.6385 125.467-72.581 128.281-72.581C131.04-72.581 133.04-70.7189 133.04-67.9042L133.04-61.8371C133.04-58.9419 131.04-57.1955 128.281-57.1955ZM51.8582-28.4395L56.9098-28.4395C60.3518-28.4395 63.0517-31.1185 63.0517-34.5397L63.0517-39.168L70.3914-39.168L45.7325-63.7877C45.6674-63.108 45.5959-62.5195 45.5959-61.7468L45.5959-34.5397C45.5959-31.1185 48.3553-28.4395 51.8582-28.4395ZM78.1085-14.7106L73.1576-18.4003C71.3139-19.7639 69.229-20.4048 67.004-20.4048L51.2838-20.4048C48.6383-20.4048 47.6757-17.2768 49.7606-15.7537L59.7636-8.39857C62.8707-6.17361 62.4698-3.12603 58.8813-1.52242L26.3294 12.5492C13.8394 17.923 12.7159 26.0602 23.121 33.8162L28.0915 37.5048C29.9155 38.8683 32.0005 39.5105 34.2462 39.5105L49.9653 39.5105C52.5911 39.5105 53.5538 36.3825 51.4897 34.8593L41.4855 27.503C38.3599 25.278 38.7596 22.2317 42.3677 20.628L74.9221 6.55645C87.3889 1.20349 88.5111-6.95221 78.1085-14.7106ZM150.37-14.7034L145.398-18.3932C143.574-19.7567 141.49-20.3769 139.244-20.3769L133.892-20.3769L155.278 1.00934C159.276-3.64784 157.625-9.29565 150.37-14.7034ZM115.007 5.44914L98.5684 12.5576C86.1016 17.9301 84.9781 26.087 95.382 33.8454L100.333 37.5119C102.177 38.8755 104.241 39.5177 106.486 39.5177L122.205 39.5177C124.851 39.5177 125.814 36.3897 123.729 34.8873L113.727 27.531C110.621 25.2852 111.021 22.1804 114.609 20.6352L125.498 15.9597ZM160.302 36.4437C162.509 38.6507 166.125 38.5339 168.254 36.3853C170.461 34.1795 170.46 30.6197 168.254 28.4347L32.9722-106.852C30.7872-109.058 27.1506-109.062 24.9412-106.852C22.8146-104.724 22.7938-101.028 24.9412-98.9015Z"/>
</svg>