<svg xmlns="http://www.w3.org/2000/svg" viewBox="16.084 -91.9254 240.98 113.37">
  <path d="M70.588 21.4444C81.0393 21.4444 89.9043 15.7798 94.3581 7.2557L178.79 7.2557C183.242 15.7798 192.107 21.4444 202.558 21.4444C213.009 21.4444 221.911 15.7798 226.365 7.2557L232.682 7.2557C248.621 7.2557 257.062-1.66468 257.062-18.4616L257.062-36.5552C257.062-50.2809 249.792-58.743 236.15-63.6157L226.525-67.0125C214.009-77.9083 194.327-91.9254 169.092-91.9254L158.634-91.9254C130.943-91.9254 119.279-89.1779 102.51-78.6217L92.3002-72.1809L103.155-58.0257L111.966-63.5812C125.994-72.3833 133.949-74.2818 158.634-74.2818L169.092-74.2818C184.966-74.2818 197.456-68.422 214.059-53.948C217.51-50.8961 219.849-49.8666 224.404-48.4155L230.884-46.3162C236.469-44.5429 239.418-40.7988 239.418-35.3871L239.418-18.4616C239.418-13.1798 237.164-10.4099 232.682-10.4099L228.976-10.4099C226.737-23.011 215.904-32.2904 202.558-32.2904C189.19-32.2904 178.437-23.011 176.199-10.4099L96.9479-10.4099C94.7094-23.011 83.956-32.2904 70.588-32.2904C57.242-32.2904 46.4093-23.011 44.1708-10.4099L40.4646-10.4099C35.9821-10.4099 33.7287-13.1798 33.7287-18.4616L33.7287-25.9814C33.7287-34.4091 39.2742-40.0487 50.8175-41.439L75.594-44.4645L63.3184-60.6866L48.5678-58.9449C28.4293-56.5251 16.084-43.5548 16.084-25.9814L16.084-17.9863C16.084-1.50624 24.5671 7.2557 40.4646 7.2557L46.7815 7.2557C51.2353 15.7798 60.1378 21.4444 70.588 21.4444ZM70.588 4.63064C64.9329 4.63064 60.4965 0.213884 60.4965-5.40362C60.4965-11.0599 64.9329-15.4963 70.588-15.4963C76.1859-15.4963 80.6222-11.0599 80.6222-5.40362C80.6222 0.213884 76.1859 4.63064 70.588 4.63064ZM202.558 4.63064C196.961 4.63064 192.524 0.213884 192.524-5.40362C192.524-11.0599 196.961-15.4963 202.558-15.4963C208.214-15.4963 212.65-11.0599 212.65-5.40362C212.65 0.213884 208.214 4.63064 202.558 4.63064ZM121.408-52.1283L121.408-31.0911C121.408-25.9616 125.826-24.47 129.604-26.9171L145.598-37.1828C149.061-39.3911 149.14-43.8063 145.597-46.0949L129.683-56.3023C125.826-58.8286 121.408-57.3369 121.408-52.1283ZM128.835-35.7752C132.075-35.7752 134.757-38.4588 134.757-41.6773C134.757-44.9166 132.075-47.5793 128.835-47.5793L107.097-47.5793C100.998-47.5793 98.7879-48.7368 94.8729-53.8765L78.2301-75.5966C72.5662-82.9993 65.8908-85.9396 55.7646-85.9396L40.7278-85.9396C37.5093-85.9396 34.8257-83.2769 34.8257-80.0376C34.8257-76.8191 37.5093-74.1355 40.7278-74.1355L55.7646-74.1355C62.888-74.1355 65.3405-73.0805 68.9535-68.3429L85.4146-46.6205C91.1601-39.0557 97.6931-35.7752 107.097-35.7752Z"/>
</svg>