<svg xmlns="http://www.w3.org/2000/svg" viewBox="12.8756 -117.593 164.91 164.61">
  <path d="M122.986-65.7122C135.757-69.4708 151.39-106.77 135.136-111.078C118.642-115.404 113.878-75.1674 122.986-65.7122ZM123.581-63.3286C139.15-59.9628 177.786-89.2776 163.658-103.486C149.55-117.593 120.294-79.0151 123.581-63.3286ZM125.986-62.8134C135.398-53.6043 175.716-58.4484 171.353-74.7816C167.044-91.1952 129.724-75.3663 125.986-62.8134ZM129.15-74.669C111.165-92.507 86.2871-88.3507 71.3322-64.6269L16.8102 22.0469C12.8756 28.2994 14.0459 36.2538 18.9019 41.0502C23.5501 45.6996 31.4253 47.0173 37.6835 43.0394L124.577-11.4826C148.079-26.2171 152.698-51.326 134.713-69.142ZM118.147-62.5547L122.542-58.1959C133.143-47.7259 130.216-34.3675 115.951-25.4233L36.6356 24.4638C35.4858 25.2055 34.6209 24.325 35.3846 23.1544L85.2938-56.103C94.3571-70.467 107.544-73.0843 118.147-62.5547ZM103.02-44.4326C105.548-47.0236 105.606-50.6261 103.014-53.2379L86.0737-70.1385L77.3536-61.3249L94.2114-44.4291C96.7475-41.8172 100.432-41.8428 103.02-44.4326ZM87.0833-34.3248C89.6159-36.855 89.6755-40.5987 87.081-43.1337L73.0338-57.0104L64.2929-48.1967L78.2781-34.3248C80.8714-31.7326 84.4167-31.6778 87.0833-34.3248ZM71.3419-13.2017C68.7545-10.6119 68.7533-6.92904 71.3091-4.39525L83.1748 7.31844L93.9597 0.608443L80.112-13.1457C77.4978-15.6991 74.0097-15.7331 71.3419-13.2017ZM58.1132-0.362479C55.583 2.22852 55.5609 5.83339 58.1167 8.44521L66.8989 17.2774L77.8215 10.5674L66.9196-0.363675C64.3638-2.97549 60.7018-2.91349 58.1132-0.362479Z"/>
</svg>