<svg xmlns="http://www.w3.org/2000/svg" viewBox="16.084 -96.8595 123.2 123.22">
  <path d="M39.8556 26.3617L115.513 26.3617C130.677 26.3617 139.284 17.7518 139.284 2.65254L139.284-73.1503C139.284-88.2496 130.677-96.8595 115.513-96.8595L39.8556-96.8595C24.7123-96.8595 16.084-88.252 16.084-73.1503L16.084 2.65254C16.084 17.7542 24.7123 26.3617 39.8556 26.3617ZM42.5864 6.35991C38.2704 6.35991 36.065 4.42973 36.065-0.182275L36.065-70.3155C36.065-74.9483 38.2704-76.8577 42.5864-76.8577L112.782-76.8577C117.093-76.8577 119.303-74.9483 119.303-70.3155L119.303-0.182275C119.303 4.42973 117.093 6.35991 112.782 6.35991ZM77.6946-3.75755C95.0635-3.75755 109.186-17.88 109.186-35.2697C109.186-52.6594 95.0635-66.7819 77.6946-66.7819C60.3049-66.7819 46.1825-52.6594 46.1825-35.2697C46.1825-17.88 60.3049-3.75755 77.6946-3.75755ZM77.6946-19.2552C68.8261-19.2552 61.6801-26.4012 61.6801-35.2697C61.6801-44.1382 68.8261-51.2842 77.6946-51.2842C86.5423-51.2842 93.7091-44.1382 93.7091-35.2697C93.7091-26.4012 86.5423-19.2552 77.6946-19.2552Z" />
</svg>