<svg xmlns="http://www.w3.org/2000/svg" viewBox="11.2588 -103.207 148.19 135.87">
  <path d="M152.736-49.7103L119.936-49.7103C114.645-49.7103 113.366-44.7064 116.196-41.0126L132.593-19.6205C134.574-17.0325 138.156-17.0325 140.098-19.6205L156.555-40.993C159.444-44.7064 158.106-49.7103 152.736-49.7103ZM79.1958 32.6673C84.7546 32.6673 89.2696 28.1535 89.2696 22.5935C89.2696 17.0347 84.7546 12.5197 79.1958 12.5197C52.7846 12.5197 31.426-8.85853 31.426-35.2697C31.426-61.6809 52.7846-83.0592 79.1958-83.0592C105.607-83.0592 126.985-61.6809 126.985-35.1517C126.985-29.6113 131.522-25.0779 137.08-25.0779C142.617-25.0779 147.133-29.5905 147.154-35.1309C147.133-72.8193 116.725-103.207 79.1958-103.207C41.7462-103.207 11.2588-72.7985 11.2588-35.2697C11.2588 2.25907 41.7462 32.6673 79.1958 32.6673ZM101.171 26.2389C105.283 26.2389 108.603 22.9189 108.603 18.8071C108.603 14.6148 105.283 11.296 101.171 11.296C96.979 11.296 93.659 14.6148 93.659 18.8071C93.659 22.9189 96.979 26.2389 101.171 26.2389ZM118.264 16.289C122.376 16.289 125.696 12.969 125.696 8.85718C125.696 4.66496 122.376 1.34494 118.264 1.34494C114.093 1.34494 110.774 4.66496 110.774 8.85718C110.774 12.969 114.093 16.289 118.264 16.289ZM131.166 1.82929C135.279 1.82929 138.598-1.49073 138.598-5.60252C138.598-9.79474 135.279-13.1148 131.166-13.1148C126.975-13.1148 123.655-9.79474 123.655-5.60252C123.655-1.49073 126.975 1.82929 131.166 1.82929ZM51.1637-23.9406L79.175-23.9406C83.1875-23.9406 86.3302-27.0821 86.3302-31.075L86.3302-68.2017C86.3302-72.2142 83.1875-75.3545 79.175-75.3545C75.1857-75.3545 72.0429-72.2142 72.0429-68.2017L72.0429-38.2278L51.1637-38.2278C47.15-38.2278 44.0305-35.0851 44.0305-31.075C44.0305-27.0821 47.15-23.9406 51.1637-23.9406Z"/>
</svg>