<svg xmlns="http://www.w3.org/2000/svg" viewBox="-0.271198 -103.148 158.96 135.87">
  <path d="M79.1958-70.9417C75.8897-70.9417 73.165-68.2158 73.165-64.9109L73.165-31.7243C73.165-30.1964 73.7035-28.7232 74.843-27.1863L89.0715-8.48312C91.5233-5.25385 94.9927-4.70048 98.1123-6.81105C100.914-8.70236 101.156-12.441 98.9433-15.451L76.5913-45.7271L85.2266-19.2665L85.2266-64.9109C85.2266-68.2158 82.5007-70.9417 79.1958-70.9417ZM39.2147-48.8926L6.41617-48.8926C1.04474-48.8926-0.271198-43.8887 2.61676-40.1753L19.0734-18.8028C21.0164-16.2148 24.5977-16.2148 26.5783-18.8028L42.9754-40.1949C45.7853-43.8887 44.5057-48.8926 39.2147-48.8926ZM79.1958-103.148C41.8111-103.148 11.2588-72.5752 11.2588-35.0725C11.2588-29.5137 15.7738-24.9779 21.3534-24.9779C26.9122-24.9779 31.4272-29.5137 31.4272-35.0725C31.4272-61.4368 52.9495-82.9799 79.1958-82.9799C92.6154-82.9799 104.067-77.6828 113.162-68.5491C117.665-64.3221 123.75-62.9798 128.35-67.2014C132.438-70.9946 132.242-76.8963 127.443-82.2771C116.859-94.6728 98.0871-103.148 79.1958-103.148ZM119.178-21.53L151.977-21.53C157.347-21.53 158.685-26.5339 155.796-30.2473L139.34-51.6198C137.376-54.2077 133.816-54.2077 131.814-51.6198L115.416-30.2277C112.607-26.5339 113.886-21.53 119.178-21.53ZM79.1958 32.7257C116.582 32.7257 147.154 2.15259 147.154-35.3501C147.154-40.9089 142.619-45.4447 137.059-45.4447C131.479-45.4447 126.966-40.9089 126.966-35.3501C126.966-5.01418 101.12 12.5573 79.1958 12.5573C65.7762 12.5573 54.3242 7.26024 45.2303-1.87347C40.7478-6.10046 34.6413-7.44276 30.0639-3.22116C25.9538 0.571969 26.1705 6.47372 30.9502 11.8545C41.5339 24.2502 60.3057 32.7257 79.1958 32.7257Z" />
</svg>