<svg xmlns="http://www.w3.org/2000/svg" viewBox="11.2588 -103.207 135.9 135.87">
  <path d="M79.1958 32.6673C116.725 32.6673 147.154 2.25907 147.154-35.2697C147.154-72.7985 116.725-103.207 79.1958-103.207C41.6878-103.207 11.2588-72.7985 11.2588-35.2697C11.2588 2.25907 41.6878 32.6673 79.1958 32.6673ZM79.1958 12.5197C52.7846 12.5197 31.426-8.85853 31.426-35.2697C31.426-61.6809 52.7846-83.0592 79.1958-83.0592C105.607-83.0592 126.985-61.6809 126.985-35.2697C126.985-8.85853 105.607 12.5197 79.1958 12.5197ZM51.6084-17.5908L81.8065-17.5908C89.5557-17.5908 95.2759-23.4839 95.2759-31.3023C95.2759-39.3699 89.3024-45.331 81.0396-45.3774C78.3568-50.2772 73.3367-54.5969 65.3245-54.5969C56.1382-54.5969 48.6159-47.8496 47.6276-38.9922C43.0914-37.5006 40.0926-33.494 40.0926-28.4872C40.0926-21.9936 44.7466-17.5908 51.6084-17.5908ZM75.1452-57.7087C76.4015-56.3744 78.6497-56.4744 79.9061-57.6699C81.1768-58.9043 81.0432-61.0964 79.9061-62.3308L76.7581-65.632C75.3057-66.8883 73.216-66.8287 72.0389-65.6331C70.6097-64.3624 70.8433-62.2287 72.0973-60.9151ZM91.5606-62.5588C93.4347-62.5588 94.8679-64.0528 94.8679-65.9024L94.8679-70.3263C94.8679-72.2356 93.4347-73.7296 91.5606-73.7296C89.7681-73.7296 88.273-72.2356 88.273-70.3263L88.273-65.9024C88.273-64.0528 89.7681-62.5588 91.5606-62.5588ZM103.414-57.6711C104.59-56.4744 106.881-56.3744 108.058-57.6503L111.182-60.8567C112.496-62.1506 112.534-64.3612 111.241-65.5735C110.045-66.8871 107.818-66.9091 106.562-65.5735L103.414-62.3892C102.079-61.0976 102.061-58.9055 103.414-57.6711ZM111.549-42.7069L115.988-42.7069C117.861-42.7069 119.297-44.1801 119.297-45.9934C119.297-47.8079 117.861-49.3383 115.988-49.3383L111.549-49.3383C109.776-49.3383 108.203-47.8079 108.203-45.9934C108.203-44.1801 109.776-42.7069 111.549-42.7069ZM106.562-26.312C107.817-25.0372 109.987-25.0801 111.241-26.3912C112.475-27.7059 112.497-29.7789 111.182-31.0728L108.116-34.1208C106.803-35.4343 104.552-35.4707 103.297-34.1792C102.003-32.9825 102.021-30.7915 103.355-29.4767ZM105.138-45.9934C105.138-53.4817 99.1646-59.4552 91.619-59.4552C86.9695-59.4552 82.7877-57.1051 80.5647-53.6411C81.777-52.4276 82.9065-51.2129 83.7983-49.9322C91.9512-48.7879 98.1676-42.9379 99.6387-35.1103C102.951-37.5185 105.138-41.5215 105.138-45.9934ZM58.4498-5.16205C58.1257-4.49189 58.3741-3.98377 59.1259-3.98377L64.5322-3.98377L61.2265 3.8337C60.9804 4.39422 61.6637 4.99594 62.3667 4.42343L77.5384-8.37322C78.1829-8.92776 77.9381-9.87198 77.0475-9.87198L70.5009-9.87198L72.4163-13.1862C72.7415-13.7187 72.4383-14.3425 71.7693-14.3425L63.3914-14.3425C62.6385-14.3425 62.3532-14.0404 62.0887-13.4519Z" />
</svg>