<svg xmlns="http://www.w3.org/2000/svg" viewBox="11.2588 -103.207 135.9 135.87">
  <path d="M79.1958 32.6673C116.725 32.6673 147.154 2.25907 147.154-35.2697C147.154-72.7985 116.725-103.207 79.1958-103.207C41.6878-103.207 11.2588-72.7985 11.2588-35.2697C11.2588 2.25907 41.6878 32.6673 79.1958 32.6673ZM79.1958 12.5197C52.7846 12.5197 31.426-8.85853 31.426-35.2697C31.426-61.6809 52.7846-83.0592 79.1958-83.0592C105.607-83.0592 126.985-61.6809 126.985-35.2697C126.985-8.85853 105.607 12.5197 79.1958 12.5197ZM61.4436-27.5383L94.5678-27.5383C103.754-27.5383 110.806-34.5297 110.806-43.5056C110.806-52.7424 103.742-59.6989 94.288-59.6989C90.7979-66.445 84.7199-70.0897 76.6643-70.0897C66.2984-70.0897 57.847-62.8717 56.3927-52.5598C50.9973-50.6022 47.6081-46.1727 47.6081-40.4388C47.6081-33.0549 53.1238-27.5383 61.4436-27.5383ZM59.9406-4.75807C61.2757-4.75807 62.1699-5.95315 61.9155-7.28825L61.443-10.3982L63.9656-8.39853C65.0594-7.54595 66.4182-7.74723 67.0175-8.83987C67.7753-9.99331 67.2188-11.4897 65.8641-11.9918L63.083-13.0413L65.9225-14.2129C67.2188-14.715 67.7337-16.1257 67.0384-17.2428C66.4402-18.321 64.9438-18.5575 63.9656-17.7049L61.443-15.8232L61.9155-18.7944C62.1699-20.1699 61.2757-21.4026 59.9406-21.4026C58.565-21.4026 57.65-20.1699 57.8461-18.814L58.2601-15.8232L55.8335-17.7633C54.7969-18.5587 53.3629-18.3419 52.7648-17.2428C52.0474-16.1674 52.6023-14.7734 53.9182-14.192L56.7173-13.0997L53.8598-11.9334C52.6011-11.4301 52.0474-10.0349 52.7428-8.80348C53.3797-7.72521 54.7957-7.54475 55.8335-8.39853L58.2601-10.3398L57.8669-7.28825C57.6708-5.95315 58.565-4.75807 59.9406-4.75807ZM78.7763-4.75807C80.1114-4.75807 81.0265-5.95315 80.772-7.28825L80.2995-10.3982L82.8222-8.39853C83.916-7.54595 85.254-7.74723 85.8533-8.83987C86.6111-9.99331 86.0754-11.4897 84.6998-11.9918L81.9395-13.0413L84.7583-14.2129C86.0546-14.715 86.5694-16.1257 85.8741-17.2428C85.276-18.321 83.8004-18.5575 82.8222-17.7049L80.2995-15.8232L80.772-18.7944C81.0265-20.1699 80.1114-21.4026 78.7763-21.4026C77.4216-21.4026 76.5066-20.1699 76.7026-18.814L77.1167-15.8232L74.6901-17.7633C73.6534-18.5587 72.1987-18.3419 71.6005-17.2428C70.8832-16.1674 71.4589-14.7734 72.754-14.192L75.5739-13.0997L72.6956-11.9334C71.4577-11.4301 70.8832-10.0349 71.5785-8.80348C72.2363-7.72521 73.6522-7.54475 74.6901-8.39853L77.1167-10.3398L76.7234-7.28825C76.5274-5.95315 77.4216-4.75807 78.7763-4.75807ZM97.6329-4.75807C98.968-4.75807 99.883-5.95315 99.6286-7.28825L99.1561-10.3982L101.658-8.39853C102.752-7.60436 104.111-7.74723 104.71-8.83987C105.468-9.99331 104.931-11.4897 103.556-11.9918L100.796-13.0413L103.615-14.2129C104.91-14.715 105.427-16.1257 104.731-17.2428C104.133-18.321 102.636-18.5587 101.658-17.7049L99.1561-15.8232L99.6286-18.7944C99.883-20.1699 98.968-21.4026 97.6329-21.4026C96.2574-21.4026 95.2839-20.1699 95.5384-18.814L95.9525-15.8232L93.5466-17.7633C92.51-18.5587 91.0553-18.3419 90.4571-17.2428C89.7398-16.1674 90.2946-14.7734 91.6106-14.192L94.4305-13.0997L91.5522-11.9334C90.2922-11.4301 89.741-10.0349 90.4351-8.80348C91.072-7.72521 92.5088-7.54475 93.5466-8.39853L95.9525-10.3398L95.5592-7.28825C95.3048-5.95315 96.2574-4.75807 97.6329-4.75807Z" />
</svg>