<svg xmlns="http://www.w3.org/2000/svg" viewBox="16.084 -101.908 133.46 133.46">
  <path d="M16.084-13.8346C16.084-9.92795 19.1515-6.88243 23.0373-6.88243L28.6523-6.88243L28.6523 12.2494C28.6523 16.2832 31.3534 18.9622 35.3872 18.9622L54.4362 18.9622L54.4362 24.5784C54.4362 28.485 57.5037 31.5526 61.3895 31.5526C65.2766 31.5526 68.3429 28.485 68.3429 24.5784L68.3429 18.9622L75.8505 18.9622L75.8505 24.5784C75.8505 28.485 78.918 31.5526 82.8038 31.5526C86.7105 31.5526 89.778 28.485 89.778 24.5784L89.778 18.9622L97.2844 18.9622L97.2844 24.5784C97.2844 28.485 100.352 31.5526 104.238 31.5526C108.125 31.5526 111.191 28.485 111.191 24.5784L111.191 18.9622L130.241 18.9622C134.275 18.9622 136.975 16.2832 136.975 12.2494L136.975-6.90325L142.591-6.90325C146.477-6.90325 149.544-9.94877 149.544-13.8554C149.544-17.7424 146.477-20.8088 142.591-20.8088L136.975-20.8088L136.975-28.3163L142.591-28.3163C146.477-28.3163 149.544-31.3839 149.544-35.2697C149.544-39.1555 146.477-42.2231 142.591-42.2231L136.975-42.2231L136.975-49.7306L142.591-49.7306C146.477-49.7306 149.544-52.797 149.544-56.684C149.544-60.5906 146.477-63.6362 142.591-63.6362L136.975-63.6362L136.975-82.6256C136.975-86.6593 134.275-89.3384 130.241-89.3384L111.191-89.3384L111.191-94.9546C111.191-98.8612 108.125-101.908 104.238-101.908C100.352-101.908 97.2844-98.8612 97.2844-94.9546L97.2844-89.3384L89.778-89.3384L89.778-94.9546C89.778-98.8612 86.7105-101.908 82.8038-101.908C78.918-101.908 75.8505-98.8612 75.8505-94.9546L75.8505-89.3384L68.3429-89.3384L68.3429-94.9546C68.3429-98.8612 65.2766-101.908 61.3895-101.908C57.5037-101.908 54.4362-98.8612 54.4362-94.9546L54.4362-89.3384L35.3872-89.3384C31.3534-89.3384 28.6523-86.6593 28.6523-82.6256L28.6523-63.6362L23.0373-63.6362C19.1515-63.6362 16.084-60.5698 16.084-56.6632C16.084-52.7761 19.1515-49.7098 23.0373-49.7098L28.6523-49.7098L28.6523-42.2023L23.0373-42.2023C19.1515-42.2023 16.084-39.1347 16.084-35.2489C16.084-31.3631 19.1515-28.2955 23.0373-28.2955L28.6523-28.2955L28.6523-20.788L23.0373-20.788C19.1515-20.788 16.084-17.7216 16.084-13.8346ZM61.1797-8.83695C58.1528-8.83695 56.3567-10.6538 56.3567-13.682L56.3567-56.7902C56.3567-59.8392 58.1528-61.656 61.1797-61.656L104.448-61.656C107.476-61.656 109.271-59.8392 109.271-56.7902L109.271-13.682C109.271-10.6538 107.476-8.83695 104.448-8.83695ZM69.8806-23.6545C69.8806-22.9059 70.4048-22.3829 71.1534-22.3829L94.4738-22.3829C95.2225-22.3829 95.7466-22.9059 95.7466-23.6545L95.7466-46.8385C95.7466-47.5859 95.2225-48.1101 94.4738-48.1101L71.1534-48.1101C70.4048-48.1101 69.8806-47.5859 69.8806-46.8385Z"/>
</svg>