<svg xmlns="http://www.w3.org/2000/svg" viewBox="16.084 -96.8595 123.2 123.22">
  <path d="M39.8556 26.3617L115.513 26.3617C130.677 26.3617 139.284 17.7518 139.284 2.65254L139.284-73.1503C139.284-88.2496 130.677-96.8595 115.513-96.8595L39.8556-96.8595C24.7123-96.8595 16.084-88.252 16.084-73.1503L16.084 2.65254C16.084 17.7542 24.7123 26.3617 39.8556 26.3617ZM42.5864 6.35991C38.2704 6.35991 36.065 4.42973 36.065-0.182275L36.065-70.3155C36.065-74.9483 38.2704-76.8577 42.5864-76.8577L112.782-76.8577C117.093-76.8577 119.303-74.9483 119.303-70.3155L119.303-0.182275C119.303 4.42973 117.093 6.35991 112.782 6.35991ZM78.299-8.30983C87.1097-8.30983 96.0583-11.9468 99.252-19.4136C99.6129-20.335 99.9853-21.6249 99.9853-22.718C99.9853-26.058 97.3828-27.9204 94.0196-27.9204C91.1678-27.9204 89.4274-26.4316 88.1279-23.9318C86.1426-19.3737 82.731-17.5256 78.495-17.5256C69.4873-17.5256 66.7792-26.6356 66.7792-35.1912C66.7792-43.5524 70.1351-51.3503 79.0791-51.3503C83.2779-51.3503 86.5062-49.4208 88.1955-45.7158C89.5742-43.0015 91.0577-41.8828 94.0652-41.8828C97.1335-41.8828 99.6232-43.8053 99.6232-47.0488C99.6232-48.4871 99.1131-50.1499 98.3446-51.4974C94.3876-58.9613 86.1103-62.029 77.8902-62.029C62.9015-62.029 53.0514-51.8678 53.0514-35.1328C53.0514-19.1156 61.8721-8.30983 78.299-8.30983ZM75.7894-15.6356L79.7777-15.6356L79.7777-23.8863C79.7777-27.5323 81.5994-30.1678 84.4044-31.3359C85.8518-32.4457 87.5153-32.9589 89.2864-32.9589C90.6648-32.9589 91.249-32.9562 92.0083-33.4041C92.8259-33.6391 93.4776-34.2233 93.2242-35.4823C93.0225-36.6109 91.7405-37.1442 90.4383-37.3778C85.3667-37.8451 81.3165-35.4773 79.9154-30.9146L79.6377-30.9146L79.6377-35.2508C79.6377-36.4928 78.9147-37.2962 77.7532-37.2962C76.5512-37.2962 75.7894-36.4928 75.7894-35.2508Z" />
</svg>