<svg xmlns="http://www.w3.org/2000/svg" viewBox="16.084 -105.004 170.7 143">
  <path d="M74.4835 36.1313L103.027 36.1313C101.01 32.3139 101.3 27.4244 103.853 23.4342L110.085 13.5387C112.311 9.85043 115.919 7.29087 120.108 6.43635L132.721-6.89797L38.6767-6.89797C36.3133-6.89797 34.8969-8.31437 34.8969-10.6558L34.8969-82.4126C34.8969-84.7749 36.3133-86.1913 38.6767-86.1913L155.869-86.1913C158.232-86.1913 159.648-84.7749 159.648-82.4126L159.648-43.2836C165.527-47.016 172.366-47.3936 178.461-44.3767L178.461-85.0266C178.461-97.5604 171.019-105.004 158.484-105.004L36.0616-105.004C23.5266-105.004 16.084-97.5604 16.084-85.0266L16.084-8.04192C16.084 4.49312 23.5266 11.9357 36.0616 11.9357L74.5283 11.9357L74.5283 20.4527L74.4835 20.4527C70.0737 20.4527 66.5736 24.1852 66.5736 28.3018C66.5736 32.4196 70.0737 36.1313 74.4835 36.1313ZM139.495-8.80684C137.495-6.86643 137.496-4.20748 139.496-2.24625L152.28 10.6776C154.337 12.618 156.958 12.5764 158.937 10.6556L163.412 6.02177C162.441 4.44498 162.604 2.58364 163.864 1.38289C165.043 0.202961 166.904 0.0021385 168.484 1.09043L182.227-12.7699C186.788-17.3318 186.785-22.7983 182.206-27.5142L177.607-32.1136C172.848-36.7335 167.52-36.6954 162.862-32.1531L149.077-18.3524C150.069-16.8704 149.907-14.9507 148.668-13.7123C147.487-12.474 145.569-12.3703 144.028-13.3406ZM157.176-16.0121L166.741-25.5187C167.534-26.3117 168.843-26.2521 169.656-25.5175C170.507-24.6869 170.428-23.3774 169.695-22.5845L160.147-13.0791C159.333-12.2069 158.027-12.2861 157.314-13.0583C156.441-13.9293 156.362-15.1971 157.176-16.0121ZM163.173-10.0959L172.718-19.5209C173.529-20.3722 174.856-20.3722 175.589-19.5209C176.362-18.6683 176.362-17.4028 175.59-16.6879L166.085-7.10446C165.27-6.28947 163.925-6.34788 163.21-7.14205C162.338-7.95465 162.338-9.14329 163.173-10.0959ZM119.336 19.22L113.186 29.0074C112.353 30.3961 112.31 31.8612 113.343 32.8938L117.254 36.8818C118.365 37.9936 119.888 37.7535 121.161 36.9814L131.027 30.8888C132.264 30.1507 133.101 28.8359 133.277 27.4448L133.599 24.9165L147.089 11.4269L138.799 3.19657L125.33 16.6266L122.802 16.949C121.448 17.1266 120.074 17.9624 119.336 19.22Z"/>
</svg>