<svg xmlns="http://www.w3.org/2000/svg" viewBox="16.084 -118.408 138.7 166.35">
  <path d="M39.7724 47.9438L97.8247 47.9438C112.926 47.9438 121.534 39.3166 121.534 24.1721L121.534-21.6712L73.9024-21.6712C66.0015-21.6712 61.608-26.0867 61.608-33.9877L61.608-83.0623L39.7724-83.0623C24.6731-83.0623 16.084-74.434 16.084-59.2907L16.084 24.1721C16.084 39.3362 24.6707 47.9438 39.7724 47.9438ZM76.7919-32.9384L120.245-32.9968C119.356-36.4068 117.133-39.892 113.948-43.0961L82.4864-74.7663C79.2447-78.008 76.38-80.2586 72.8543-81.384L72.8543-37.0511C72.8543-34.4583 74.3158-32.9384 76.7919-32.9384ZM132.779 12.5981L133.172 12.5981C142.646 12.5981 154.779 5.89719 154.779-11.1735L154.779-69.446L117.982-69.446C112.121-69.446 107.472-74.1167 107.472-79.9583L107.472-118.408L72.6682-118.408C58.157-118.408 49.3291-109.604 49.3291-95.3077L49.3291-94.3295L60.7851-94.3295C73.8557-94.3295 81.5094-91.1612 88.3774-84.2724L124.017-48.6559C130.244-42.4084 132.779-33.0968 132.779-21.1596ZM121.221-79.9209L152.932-79.9209C152.825-82.5416 150.625-84.9818 147.572-88.1517L125.923-110.846C123.182-113.725 120.661-115.806 117.926-115.952L117.947-83.2169C117.947-80.9504 118.956-79.9209 121.221-79.9209Z"/>
</svg>