<svg xmlns="http://www.w3.org/2000/svg" viewBox="16.084 -96.8595 123.2 123.22">
  <path d="M39.8556 26.3617L115.513 26.3617C130.677 26.3617 139.284 17.7518 139.284 2.65254L139.284-73.1503C139.284-88.2496 130.677-96.8595 115.513-96.8595L39.8556-96.8595C24.7123-96.8595 16.084-88.252 16.084-73.1503L16.084 2.65254C16.084 17.7542 24.7123 26.3617 39.8556 26.3617ZM42.5864 6.35991C38.2704 6.35991 36.065 4.42973 36.065-0.182275L36.065-70.3155C36.065-74.9483 38.2704-76.8577 42.5864-76.8577L112.782-76.8577C117.093-76.8577 119.303-74.9483 119.303-70.3155L119.303-0.182275C119.303 4.42973 117.093 6.35991 112.782 6.35991ZM77.2494-8.56323C88.5142-8.56323 99.6927-13.3865 99.6927-25.1626C99.6927-34.7127 92.8832-38.1748 83.2866-40.3021L77.5507-41.5732C71.4809-42.8963 68.7001-44.4108 68.7001-47.531C68.7001-50.9272 72.3441-52.6318 77.4246-52.6318C81.2098-52.6318 84.6022-51.3349 86.3435-48.1767C87.839-45.8689 89.7586-44.4802 92.4884-44.4802C95.4514-44.4802 98.1436-46.0661 98.1436-49.2153C98.1436-57.1795 88.3253-62.4472 77.2494-62.4472C66.2966-62.4472 56.003-57.0813 56.003-46.3107C56.003-36.8434 63.2118-32.7013 72.0602-30.8528L77.8753-29.6401C82.9494-28.5834 87.0541-27.4823 87.0541-23.7075C87.0541-19.997 83.0776-18.3971 77.4674-18.3971C72.6477-18.3971 69.6929-19.6318 68.0391-22.8897C66.5616-25.3739 64.9368-26.7186 62.1474-26.7186C58.6923-26.7186 56.2025-24.8365 56.2025-21.3178C56.2025-20.094 56.5374-18.9065 57.1267-17.7006C59.7257-12.1053 67.4452-8.56323 77.2494-8.56323ZM77.6946-1.84226C78.6005-1.84226 79.4052-2.64572 79.4052-3.57243L79.4052-67.6232C79.4052-68.5291 78.6005-69.3338 77.6946-69.3338C76.7679-69.3338 75.9632-68.5291 75.9632-67.6232L75.9632-3.57243C75.9632-2.64572 76.7679-1.84226 77.6946-1.84226Z" />
</svg>