<svg xmlns="http://www.w3.org/2000/svg" viewBox="16.084 -105.523 112.83 140.62">
  <path d="M16.084 25.1095C16.084 30.607 20.5757 35.1 26.0745 35.1C31.5941 35.1 36.0662 30.607 36.0662 25.1095L36.0662-81.8147C36.0662-84.1172 37.4697-85.5415 39.749-85.5415L105.247-85.5415C107.526-85.5415 108.93-84.1172 108.93-81.8147L108.93 25.1095C108.93 30.607 113.402 35.1 118.922 35.1C124.42 35.1 128.912 30.607 128.912 25.1095L128.912-84.6763C128.912-97.6811 121.049-105.523 107.978-105.523L37.0183-105.523C23.9474-105.523 16.084-97.6811 16.084-84.6763ZM44.0175 28.5735C44.0175 30.4359 45.427 31.3289 47.4635 30.4775L66.1603 22.7525C67.8604 22.0907 68.633 21.1785 68.633 19.6584L68.633-66.6532C68.633-68.1732 67.842-69.0842 66.1859-69.7448L47.4635-77.4722C45.427-78.3236 44.0175-77.4306 44.0175-75.5474Z"/>
</svg>