<svg xmlns="http://www.w3.org/2000/svg" viewBox="12.8672 -96.8256 137.02 125.06">
  <path d="M33.2041 28.2344L129.608 28.2344C141.621 28.2344 149.887 18.7102 149.887 7.84506C149.887 4.46427 149.063 0.981042 147.221-2.2425L98.9414-86.613C94.9733-93.4747 88.3076-96.8256 81.4068-96.8256C74.5047-96.8256 67.643-93.3579 63.8125-86.613L15.533-2.18409C13.7286 1.00186 12.8672 4.46427 12.8672 7.84506C12.8672 18.7102 21.1331 28.2344 33.2041 28.2344ZM81.4068 0.0175616C70.6712 0.0175616 63.6314-6.91982 63.6314-17.3725C63.6314-21.885 65.4659-26.6149 67.7479-31.1485C70.2914-36.504 74.033-42.361 77.4311-47.5997C78.5833-49.3477 79.99-50.3767 81.4068-50.3767C82.8223-50.3767 84.229-49.3477 85.3604-47.5997C88.7585-42.361 92.5209-36.504 95.0436-31.2069C97.3256-26.7317 99.1809-21.885 99.1809-17.3725C99.1809-6.91982 92.1203 0.0175616 81.4068 0.0175616Z"/>
</svg>