<svg xmlns="http://www.w3.org/2000/svg" viewBox="16.084 -97.4085 195.3 126.56">
  <path d="M16.084-66.14C16.084-44.1663 38.3054-34.8923 53.51-34.8923C67.6653-34.8923 75.5207-46.0493 75.5207-66.14C75.5207-86.2318 67.6653-97.4085 53.51-97.4085C38.3054-97.4085 16.084-88.1357 16.084-66.14ZM32.5555-53.4662C28.4341-53.4662 25.2506-59.1752 25.2506-66.14C25.2506-73.0464 28.4341-78.7761 32.5555-78.7761C36.7365-78.7761 39.9201-73.0464 39.9201-66.14C39.9201-59.1752 36.7365-53.4662 32.5555-53.4662ZM71.0788 29.1493L77.7532 29.1493C83.8391 29.1493 87.6792 25.504 87.6792 19.7482L87.6792-17.019C87.6792-22.6316 88.4341-26.4261 91.0464-30.085C92.4368-32.1363 94.2932-34.0315 96.6765-36.1799C103.943-42.7316 108.639-51.7761 108.639-62.2877C108.639-81.056 94.8155-95.7587 75.3957-96.4283C81.2023-89.5444 84.2459-79.0695 84.2459-66.14C84.2459-44.298 75.5027-29.5743 59.5294-26.6849C60.8239-23.9949 61.1527-20.9465 61.1527-17.019L61.1527 19.7482C61.1527 25.504 64.9928 29.1493 71.0788 29.1493ZM211.384-66.14C211.384-88.1357 189.163-97.4085 173.938-97.4085C159.803-97.4085 151.948-86.2318 151.948-66.14C151.948-46.0493 159.803-34.8923 173.938-34.8923C189.163-34.8923 211.384-44.1663 211.384-66.14ZM194.913-53.4662C190.732-53.4662 187.548-59.1752 187.548-66.14C187.548-73.0464 190.732-78.7761 194.913-78.7761C199.034-78.7761 202.218-73.0464 202.218-66.14C202.218-59.1752 199.034-53.4662 194.913-53.4662ZM156.39 29.1493C162.476 29.1493 166.316 25.504 166.316 19.7482L166.316-17.019C166.316-20.9465 166.644-23.9949 167.939-26.6849C151.966-29.5743 143.222-44.298 143.222-66.14C143.222-79.0695 146.266-89.5444 152.073-96.4283C132.652-95.7587 118.829-81.056 118.829-62.2877C118.829-51.7761 123.525-42.7316 130.792-36.1799C133.174-34.0315 135.032-32.1363 136.422-30.085C139.034-26.4261 139.789-22.6316 139.789-17.019L139.789 19.7482C139.789 25.504 143.629 29.1493 149.715 29.1493Z"/>
</svg>