<svg xmlns="http://www.w3.org/2000/svg" viewBox="16.084 -85.6723 155.6 100.83">
  <path d="M16.084-3.78449C16.084 8.19277 23.0698 15.1537 35.2211 15.1537L152.545 15.1537C164.718 15.1537 171.682 8.19277 171.682-3.78449L171.682-66.7549C171.682-78.7906 164.718-85.6723 152.545-85.6723L35.2211-85.6723C23.0698-85.6723 16.084-78.7906 16.084-66.7549ZM36.6491-9.65585L36.6491-60.8848C36.6491-64.943 38.8929-67.07 42.8915-67.07L144.874-67.07C148.894-67.07 151.117-64.943 151.117-60.8848L151.117-9.65585C151.117-5.88965 148.894-3.47064 144.874-3.47064L42.8915-3.47064C38.8929-3.47064 36.6491-5.88965 36.6491-9.65585ZM63.8313-24.6491C69.6831-24.6491 74.4555-29.4203 74.4555-35.2721C74.4555-41.1239 69.6623-45.9159 63.8313-45.9159C57.9598-45.9159 53.1875-41.1239 53.1875-35.2721C53.1875-29.4203 57.9598-24.6491 63.8313-24.6491ZM93.9335-24.6491C99.7854-24.6491 104.557-29.4203 104.557-35.2721C104.557-41.1239 99.7854-45.9159 93.9335-45.9159C88.0817-45.9159 83.2897-41.1239 83.2897-35.2721C83.2897-29.4203 88.0817-24.6491 93.9335-24.6491ZM124.036-24.6491C129.886-24.6491 134.659-29.4203 134.659-35.2721C134.659-41.1239 129.886-45.9159 124.036-45.9159C118.184-45.9159 113.391-41.1239 113.391-35.2721C113.391-29.4203 118.184-24.6491 124.036-24.6491Z"/>
</svg>