<svg xmlns="http://www.w3.org/2000/svg" viewBox="16.084 -93.7979 197.86 126.83">
  <path d="M97.0472-31.9326C98.7133-31.9326 100.141-32.564 102.117-34.3196L119.761-50.0974L119.761-51.7334C119.761-60.9988 126.911-68.1398 136.087-68.3047L136.146-68.8526C137.139-76.8275 144.064-82.9348 152.545-82.9348C153.667-82.9348 154.828-82.8252 155.863-82.5292C159.125-85.6023 162.509-88.5963 165.916-91.5132C162.546-93.0629 158.784-93.7979 154.26-93.7979L39.8556-93.7979C35.3312-93.7979 31.5682-93.0629 28.1777-91.512L91.9983-34.3196C93.9744-32.564 95.402-31.9326 97.0472-31.9326ZM17.4751 9.22795L64.7554-37.9904L17.6647-80.1813C16.6957-77.5957 16.084-74.1786 16.084-70.1095L16.084-0.27146C16.084 3.38426 16.5945 6.50296 17.4751 9.22795ZM119.761-2.45974L119.761-25.6041L117.724-27.6404L111.114-21.7064C106.408-17.4806 102.306-15.7394 97.0472-15.7394C91.8093-15.7394 87.7074-17.4806 83.0015-21.7064L76.37-27.6404L27.662 21.0479C30.7731 22.5431 34.6977 23.4169 39.2728 23.4169L127.385 23.4169C122.623 16.4409 119.761 7.71183 119.761-2.45974ZM166.077 33.0291C178.58 33.0291 187.735 28.5894 194.815 19.7852C201.959 11.4197 206.4-3.16519 208.196-8.82017C210.093-14.7949 212.603-22.322 213.246-25.53C213.947-29.1684 212.117-32.235 208.847-32.9359C204.953-33.812 202.057-31.779 200.465-28.161L193.765-13.089C193.294-12.0008 192.933-11.7299 192.376-11.7299C191.853-11.7299 191.336-12.0247 191.336-13.2178L191.336-63.6741C191.336-67.5137 188.641-70.2868 184.84-70.2868C181.082-70.2868 178.307-67.4553 178.307-63.6741L178.307-25.0668C177.331-25.4153 176.309-25.7029 175.208-25.9466L175.208-69.9111C175.208-73.712 172.493-76.4655 168.711-76.4655C164.952-76.4655 162.178-73.712 162.178-69.9111L162.178-26.4303C161.151-26.3499 160.044-26.2463 159.04-26.1194L159.04-66.2827C159.04-70.0239 156.266-72.8358 152.545-72.8358C148.764-72.8358 146.011-70.0239 146.011-66.2827L146.011-22.7925C144.885-22.3584 143.885-21.8414 142.869-21.3245L142.869-51.6501C142.869-55.4314 140.193-58.2433 136.392-58.2433C132.633-58.2433 129.859-55.4314 129.859-51.6501L129.859-2.45974C129.859 19.562 145.805 33.0291 166.077 33.0291Z"/>
</svg>