<svg xmlns="http://www.w3.org/2000/svg" viewBox="11.2588 -103.207 135.9 135.87">
  <path d="M79.1958 32.6673C116.725 32.6673 147.154 2.25907 147.154-35.2697C147.154-72.7985 116.725-103.207 79.1958-103.207C41.6878-103.207 11.2588-72.7985 11.2588-35.2697C11.2588 2.25907 41.6878 32.6673 79.1958 32.6673ZM79.1958 12.5197C52.7846 12.5197 31.426-8.85853 31.426-35.2697C31.426-61.6809 52.7846-83.0592 79.1958-83.0592C105.607-83.0592 126.985-61.6809 126.985-35.2697C126.985-8.85853 105.607 12.5197 79.1958 12.5197ZM59.6594-15.9254L98.6309-15.9254C103.807-15.9254 107.229-18.7292 107.229-23.3211C107.229-27.9131 103.907-30.7377 98.6893-30.7377L59.6594-30.7377C54.3834-30.7377 51.0614-27.9715 51.0614-23.3211C51.0614-18.7292 54.4834-15.9254 59.6594-15.9254ZM59.6594-39.5241L98.6309-39.5241C103.807-39.5241 107.229-42.3279 107.229-46.9198C107.229-51.5118 103.907-54.3364 98.6893-54.3364L59.6594-54.3364C54.3834-54.3364 51.0614-51.5702 51.0614-46.9198C51.0614-42.3279 54.4834-39.5241 59.6594-39.5241Z" />
</svg>