<svg xmlns="http://www.w3.org/2000/svg" viewBox="11.2588 -103.207 135.9 135.87">
  <path d="M79.1958 32.6673C116.722 32.6673 147.154 2.23586 147.154-35.2697C147.154-72.7753 116.722-103.207 79.1958-103.207C41.6902-103.207 11.2588-72.7753 11.2588-35.2697C11.2588 2.23586 41.6902 32.6673 79.1958 32.6673ZM79.2542-27.1747C74.0758-27.1747 71.0319-30.0082 70.7191-35.133L69.5872-58.2398C69.2743-63.8539 73.2284-67.6119 79.175-67.6119C85.1215-67.6119 89.0964-63.833 88.7836-58.219L87.6517-35.2498C87.3388-29.9874 84.3534-27.1747 79.2542-27.1747ZM79.2542-3.34052C73.5073-3.34052 69.1579-6.65499 69.1579-12.1271C69.1579-17.5431 73.4865-20.876 79.2542-20.876C85.0415-20.876 89.2545-17.5055 89.2545-12.1271C89.2545-6.63418 85.0207-3.34052 79.2542-3.34052Z"/>
</svg>