<svg xmlns="http://www.w3.org/2000/svg" viewBox="16.084 -109.422 149.83 153.05">
  <path d="M16.084-31.0472C16.084-12.2064 29.2857 0.691164 48.492 0.691164L133.507 0.691164C152.713 0.691164 165.915-12.2064 165.915-31.0472C165.915-36.4477 164.594-41.7029 162.194-46.9064L141.601-92.4258C136.587-103.426 127.379-109.422 115.019-109.422L67.0961-109.422C54.757-109.422 45.5079-103.543 40.4939-92.4258L20.3881-47.7825C18.2176-43.0171 16.084-37.4346 16.084-31.0472ZM47.8707-64.3838L58.2682-88.172C59.5046-91.0398 62.4204-92.6996 66.2237-92.6996L115.895-92.6996C119.718-92.6996 122.615-91.0398 123.85-88.172L134.189-64.3838C133.968-63.6225 132.882-62.7857 130.996-62.7857L51.0631-62.7857C49.1762-62.7857 48.0914-63.6225 47.8707-64.3838ZM35.2653-31.0472C35.2653-38.5594 40.5352-43.5263 48.492-43.5263L133.507-43.5263C141.465-43.5263 146.735-38.5594 146.735-31.0472C146.735-23.3466 141.673-18.5097 133.507-18.5097L48.492-18.5097C40.534-18.5097 35.2653-23.5339 35.2653-31.0472ZM123.856-31.0472C123.856-26.2725 127.732-22.5135 132.393-22.5904C137.107-22.61 140.965-26.2725 140.965-31.0472C140.965-35.6028 137.028-39.5613 132.393-39.5613C127.815-39.5613 123.856-35.6028 123.856-31.0472ZM82.594 28.472L98.7774 28.472L98.7774-12.6691L82.594-12.6691ZM30.4708 34.1492L150.901 34.1492C155.366 34.1492 158.964 30.5532 158.964 26.0861C158.964 21.6411 155.366 17.9658 150.901 17.9658L30.4708 17.9658C26.005 17.9658 22.4078 21.6411 22.4078 26.0861C22.4078 30.5532 26.005 34.1492 30.4708 34.1492ZM90.6571 43.6256C100.348 43.6256 108.248 35.7465 108.248 26.0349C108.248 16.343 100.348 8.46384 90.6571 8.46384C80.9651 8.46384 73.0652 16.343 73.0652 26.0349C73.0652 35.7465 80.9651 43.6256 90.6571 43.6256Z"/>
</svg>