<svg xmlns="http://www.w3.org/2000/svg" viewBox="14.7477 -108.737 137.76 147.19">
  <path d="M53.2251-34.7337C73.8071-34.7337 89.9665-51.6961 89.9665-71.4935C89.9665-92.2144 73.7487-108.737 53.2251-108.737C32.7027-108.737 16.084-92.2144 16.084-71.4935C16.084-51.6961 32.7027-34.7337 53.2251-34.7337ZM132.979-68.0139C143.82-68.0139 152.504-76.92 152.504-87.3245C152.504-98.1883 143.82-106.934 132.979-106.934C122.174-106.934 113.627-98.1883 113.627-87.3245C113.627-76.8849 122.174-68.0139 132.979-68.0139ZM121.221 4.88392C124.193 2.51894 127.47-1.02477 129.965-5.6123L143.055-29.3688C149.197-40.453 147.254-51.5448 136.789-56.9909C126.722-62.6719 116.317-58.5256 110.132-47.4182L97.3757-24.3699ZM18.9966 34.2396C23.1664 38.4545 29.8995 38.1525 34.9294 32.9241L64.8115 2.00426C65.9881 0.806792 66.8443 0.682345 68.5219 1.3025L90.9728 9.64865C96.7033 11.7927 102.81 11.9151 107.395 10.9737L87.4129-13.6183L74.8605-18.2852C65.6949-21.7179 57.9119-20.6009 50.4662-12.8984L19.6764 19.2862C14.7477 24.4341 15.1862 30.4863 18.9966 34.2396ZM135.766 34.5729C139.285 31.7115 139.679 27.5937 136.379 23.5556L121.221 4.88392C117.257 7.5742 112.677 9.64506 107.395 10.9737L125.026 32.7653C128.422 36.9543 132.478 37.1072 135.766 34.5729Z"/>
</svg>