<svg xmlns="http://www.w3.org/2000/svg" viewBox="11.2588 -103.207 135.9 135.87">
  <path d="M79.1958 32.6673C116.725 32.6673 147.154 2.25907 147.154-35.2697C147.154-72.7985 116.725-103.207 79.1958-103.207C41.6878-103.207 11.2588-72.7985 11.2588-35.2697C11.2588 2.25907 41.6878 32.6673 79.1958 32.6673ZM79.1958 12.5197C52.7846 12.5197 31.426-8.85853 31.426-35.2697C31.426-61.6809 52.7846-83.0592 79.1958-83.0592C105.607-83.0592 126.985-61.6809 126.985-35.2697C126.985-8.85853 105.607 12.5197 79.1958 12.5197ZM84.368-60.7709C88.3162-60.7709 91.5782-64.0317 91.5782-68.0019C91.5782-71.9281 88.3162-75.1889 84.368-75.1889C80.3405-75.1889 77.1381-71.9281 77.1381-68.0019C77.1381-64.0317 80.3405-60.7709 84.368-60.7709ZM54.2504-22.4957L74.6586-22.4957C77.9118-22.4957 79.3593-26.1498 77.4733-28.4379L71.7541-35.5319L89.0112-36.6654L106.129-36.6654C108.138-36.6654 109.806-38.2518 109.806-40.2987C109.806-42.2288 108.138-43.954 106.129-43.954L75.6439-43.954L82.2773-50.6083C82.4822-50.8144 82.7311-50.9376 83.0592-50.9156L105.506-47.9908C107.656-47.6912 109.623-49.336 109.623-51.6241C109.623-53.4309 108.219-54.9577 106.449-55.199L59.3773-61.173C58.2515-61.3338 57.1684-60.9317 56.3654-60.1495L48.5121-52.2974C47.0062-50.7915 47.145-48.6421 48.5121-47.1362C49.7768-45.7911 52.1882-45.6302 53.6734-47.1362L60.2399-53.7236L66.945-52.8533C67.3988-52.7729 67.5244-52.436 67.1951-52.0482L60.6417-45.5557C57.7026-42.6761 57.6598-38.1638 60.6417-35.0638L65.7836-29.7831L54.2504-29.7831C52.2411-29.7831 50.5963-28.1967 50.5963-26.1498C50.5963-24.1613 52.2411-22.4957 54.2504-22.4957ZM82.7958 2.13132C82.7958 3.6045 84.0093 4.818 85.4604 4.818C86.9336 4.818 88.1471 3.6045 88.1471 2.13132L88.1471-28.295C88.1471-29.7474 86.9336-30.9609 85.4604-30.9609C84.0093-30.9609 82.7958-29.7474 82.7958-28.295Z" />
</svg>