<svg xmlns="http://www.w3.org/2000/svg" viewBox="16.084 -107.907 137.78 145.39">
  <path d="M105.738-74.1528L140.566-74.1528C146.715-74.1528 148.767-80.2277 145.064-84.3516L127.395-103.895C124.781-106.751 121.441-106.748 118.908-103.895L101.239-84.3516C97.2984-79.99 99.9051-74.1528 105.738-74.1528ZM130.589-46.1139L130.589-84.7803C130.589-88.9206 127.263-92.2466 123.143-92.2466C119.024-92.2466 115.698-88.9206 115.698-84.7803L115.698-46.1139C115.698-41.9944 119.024-38.6488 123.143-38.6488C127.263-38.6488 130.589-41.9944 130.589-46.1139ZM35.6098-68.9869C24.768-68.9869 16.084-77.893 16.084-88.2975C16.084-99.1612 24.768-107.907 35.6098-107.907C46.4139-107.907 54.9608-99.1612 54.9608-88.2975C54.9608-77.8578 46.4139-68.9869 35.6098-68.9869ZM149.592 33.269C145.422 37.4839 138.689 37.1819 133.661 31.9535L103.776 1.03248C102.599-0.164993 101.722-0.28944 100.066 0.33071L78.1548 8.48952C63.1552 14.0601 46.5126 7.75287 39.2342-5.46523L25.5322-30.3405C19.47-41.4248 21.5093-52.2246 31.7993-57.9627C41.8653-63.5852 52.293-59.5183 58.4552-48.39L77.7679-13.3063L93.727-19.257C102.893-22.6897 110.696-21.5727 118.121-13.8701L148.912 18.3156C153.862 23.4636 153.403 29.5169 149.592 33.269Z"/>
</svg>