<svg xmlns="http://www.w3.org/2000/svg" viewBox="10.8904 -114.973 102.62 160.03">
  <path d="M65.7328-83.9568C74.2636-83.9568 81.23-90.9245 81.23-99.4553C81.23-108.006 74.2636-114.973 65.7328-114.973C57.1811-114.973 50.2135-108.006 50.2135-99.4553C50.2135-90.9245 57.1811-83.9568 65.7328-83.9568ZM32.9041-30.4447L42.6153-30.4447C48.4571-30.4447 53.0734-35.0902 53.0734-40.78L53.0734-76.4044C53.0734-82.2122 48.4571-86.7981 42.6153-86.7981L36.0929-86.7981C27.53-86.7981 22.5116-81.8577 22.5116-73.1352L22.5116-40.78C22.5116-34.7733 26.8587-30.4447 32.9041-30.4447ZM29.584 37.4734L49.7374 13.3571C51.5003 11.2916 52.4017 9.69489 53.6085 7.10092L65.2553-18.0055C68.3578-24.6752 69.8361-31.633 70.4175-39.7699L71.0828-48.9308L79.882-39.5389C82.2082-37.0195 84.5579-36.2981 88.9806-36.2981L105.48-36.2981C110.333-36.2981 113.507-39.1511 113.507-43.565C113.507-47.8984 110.253-50.8295 105.48-50.8295L88.344-50.8295L68.8062-72.096C65.6054-75.6173 61.4992-78.1446 56.0076-78.1446C51.6821-78.1446 48.1364-76.8823 44.6515-74.6365L41.0215-34.1489C40.5402-28.5966 41.3288-24.9497 44.0052-20.5362L38.5905 3.17246L18.4621 27.0873C10.8904 36.0567 23.3329 44.9011 29.584 37.4734ZM92.8945 28.202L78.9224-0.200395C77.8805-2.36575 76.4354-4.63474 74.8566-6.89204L71.0219-12.3463L63.2333 4.42677C63.6755 5.06066 63.9112 5.44761 64.2017 6.02986L78.5748 35.212C83.4491 45.0619 98.1698 38.8901 92.8945 28.202ZM104.88-68.4072C101.836-68.4072 99.5987-66.1695 99.5987-63.1245L99.5987-58.3864L105.48-58.3864C106.985-58.3864 108.535-58.1684 110.105-57.7543L110.105-63.1245C110.105-66.1695 107.925-68.4072 104.88-68.4072ZM104.859 40.3068C107.925 40.3068 110.105 38.1079 110.105 35.0628L110.105-29.3148C108.59-28.958 107.038-28.7411 105.48-28.7411L99.5987-28.7411L99.5987 35.0628C99.5987 38.1079 101.816 40.3068 104.859 40.3068Z"/>
</svg>