<svg xmlns="http://www.w3.org/2000/svg" viewBox="11.2588 -103.207 135.9 135.87">
  <path d="M79.1958 32.6673C116.725 32.6673 147.154 2.25907 147.154-35.2697C147.154-72.7985 116.725-103.207 79.1958-103.207C41.6878-103.207 11.2588-72.7985 11.2588-35.2697C11.2588 2.25907 41.6878 32.6673 79.1958 32.6673ZM79.1958 12.5197C52.7846 12.5197 31.426-8.85853 31.426-35.2697C31.426-61.6809 52.7846-83.0592 79.1958-83.0592C105.607-83.0592 126.985-61.6809 126.985-35.2697C126.985-8.85853 105.607 12.5197 79.1958 12.5197ZM90.9882-55.9753C94.9364-55.9753 98.2181-59.1986 98.2181-63.2052C98.2181-67.1534 94.9364-70.4142 90.9882-70.4142C86.9816-70.4142 83.7584-67.1534 83.7584-63.2052C83.7584-59.1986 86.9816-55.9753 90.9882-55.9753ZM68.6161-15.5031C70.1452-14.3784 72.5334-14.7221 73.6593-16.3085L80.8108-26.2888L86.6049-25.2732L80.25-15.781C79.1449-14.1142 79.547-11.7236 81.3526-10.7002C83.3631-9.4939 85.3516-10.1373 86.3762-11.7236L95.5811-25.5717C97.0066-27.721 96.2245-30.9754 93.2489-31.6992L80.5332-34.7472C79.7293-34.9521 79.422-35.6327 79.8757-36.3718L85.2051-44.3859C85.432-44.6776 85.8274-44.7592 86.1787-44.5324L93.9307-39.2029C94.3537-38.9397 94.8726-38.7192 95.3771-38.6388L112.758-35.4508C114.526-35.1291 116.655-36.255 117.056-38.4627C117.319-40.3916 116.032-42.3008 114.045-42.6809L97.446-45.7289L72.3289-62.8255L79.1519-67.7253C80.8396-68.9316 81.2209-71.2197 80.0366-72.8281C78.8511-74.4949 76.5409-74.897 74.8961-73.7128L63.834-65.8375C61.6847-64.3303 61.6847-61.2392 63.8936-59.7332L73.2813-53.3131C73.6314-53.0654 73.6755-52.6909 73.4278-52.3991L65.5745-40.9337C62.1088-35.9168 64.2657-28.8734 71.1531-27.862L72.6972-27.6339L67.7534-20.6655C66.568-18.9975 66.8688-16.6886 68.6161-15.5031ZM97.9308 1.70021C100.034 1.97786 101.208 0.525497 101.208-0.886433C101.208-1.9987 100.472-3.05375 98.8013-3.2718C78.2274-5.92879 58.4998-15.0637 46.6994-25.571C45.4275-26.7041 43.978-26.3692 43.1421-25.4178C42.2623-24.4431 42.0246-22.8287 43.399-21.6712C55.6147-10.8083 75.7098-1.29973 97.9308 1.70021ZM45.2115-9.52183C47.8981-9.52183 52.0407-10.6257 55.8269-13.0735L49.6474-19.5103C47.8581-16.8397 46.7959-16.0039 43.9084-14.2894C42.5765-13.5168 42.178-12.1501 42.6117-11.135C42.9674-10.22 43.88-9.52183 45.2115-9.52183Z" />
</svg>