<svg xmlns="http://www.w3.org/2000/svg" viewBox="11.2588 -103.207 135.9 135.87">
  <path d="M79.1958 32.6673C116.722 32.6673 147.154 2.23586 147.154-35.2697C147.154-72.7753 116.722-103.207 79.1958-103.207C41.6902-103.207 11.2588-72.7753 11.2588-35.2697C11.2588 2.23586 41.6902 32.6673 79.1958 32.6673ZM66.8451-36.6747C62.5424-36.6747 59.122-40.1536 59.122-44.3967C59.122-48.6785 62.5424-52.0978 66.8451-52.0978C71.0674-52.0978 74.6047-48.6785 74.6047-44.3967C74.6047-40.1536 71.0674-36.6747 66.8451-36.6747ZM36.2569-21.7087C36.2569-23.2795 37.4924-24.5902 39.0604-24.5902C49.4239-24.5902 62.0321-20.5772 69.6192-4.37253C77.0824-10.605 86.2176-12.7487 97.5258-10.2369C101.183-16.3681 107.886-19.795 114.96-19.795C116.528-19.795 117.82-18.4839 117.82-16.9135C117.82-15.3455 116.528-14.11 114.96-14.11C108.903-14.11 104.146-11.302 101.761-5.80698C101.142-4.43025 99.7955-3.73566 98.2604-4.05495C86.2408-7.54265 78.2399-5.12122 71.074 2.02266C69.422 3.63706 66.5173 3.18134 65.5802 0.806762C59.4454-15.2931 48.8646-18.9052 39.0604-18.9052C37.4924-18.9052 36.2569-20.1007 36.2569-21.7087ZM60.1701-22.0532L60.1701-28.3991C60.1701-31.6355 62.5375-33.9445 65.7907-33.9445L77.0957-33.9445L77.0957-46.1746C77.0957-47.4161 77.4942-48.4156 78.3336-49.255L101.321-72.3217C102.396-73.434 104.263-73.4328 105.295-72.3217C106.449-71.2678 106.428-69.4598 105.295-68.3267L95.3305-58.34L95.3305-38.1671C95.3305-35.9813 93.5857-34.3753 91.4-34.3753C89.2739-34.3753 87.5279-35.9813 87.5279-38.1671L87.5279-50.5165L84.9192-47.9066L84.9192-30.0139C84.9192-27.8878 83.1732-26.1626 81.0471-26.1626L77.108-26.1626C76.8007-26.1626 76.5738-25.8565 76.5738-25.5492L76.5738-12.9629C74.6426-12.1951 72.7709-11.2497 71.0368-10.1798C67.8832-15.4291 64.1279-19.3321 60.1701-22.0532Z"/>
</svg>