<svg xmlns="http://www.w3.org/2000/svg" viewBox="15.2874 -106.297 162.58 142.13">
  <path d="M54.0752-75.3137C62.6221-75.3137 69.5665-82.279 69.5665-90.827C69.5665-99.353 62.6221-106.297 54.0752-106.297C45.57-106.297 38.5839-99.353 38.5839-90.827C38.5839-82.279 45.57-75.3137 54.0752-75.3137ZM38.3879 13.8563C42.884 11.8743 47.7954 8.78519 54.1084 6.84312L55.0966-1.03002C55.177-1.67337 56.0825-1.83421 56.3833-1.27128L59.7317 5.54114C61.5955 5.23862 63.6605 5.05816 65.81 5.05816C70.7445 5.05816 74.6448 6.10632 78.0107 7.59298L69.5237-14.6856L69.5237-54.2227C69.5237-62.1662 63.9232-68.8681 54.1557-68.8681L50.9877-68.8681C45.556-68.8681 38.972-68.0871 33.2626-62.3998L18.2597-47.4797C15.2874-44.545 15.4042-39.5943 18.2597-36.74L38.3879-16.8531ZM38.972-36.5713L33.4956-42.0696L37.84-46.5152C38.2925-46.9678 38.972-46.6617 38.972-46.1211ZM28.2624-6.51706L168.151-92.3175C170.943-94.0191 171.653-97.5015 169.873-100.233C168.288-102.944 164.809-103.736 162.156-102.072L22.267-16.2336C19.4996-14.5136 18.7078-10.9729 20.429-8.31987C22.071-5.64725 25.5522-4.85547 28.2624-6.51706ZM24.7606 35.8304L32.1512 35.8304C50.7901 35.8304 54.3285 25.1642 65.4145 25.1642C74.769 25.1642 80.0013 35.8304 98.6778 35.8304C117.375 35.8304 122.607 25.1642 131.941 25.1642C143.048 25.1642 146.586 35.8304 165.204 35.8304L172.616 35.8304C175.547 35.8304 177.864 33.5135 177.864 30.6032C177.864 27.6917 175.547 25.3748 172.616 25.3748L165.204 25.3748C153.714 25.3748 149.86 14.7086 131.941 14.7086C115.797 14.7086 110.189 25.3748 98.6778 25.3748C87.1874 25.3748 81.581 14.7086 65.4145 14.7086C47.5178 14.7086 43.6624 25.3748 32.1512 25.3748L24.7606 25.3748C21.8295 25.3748 19.5125 27.6917 19.5125 30.6032C19.5125 33.5135 21.8295 35.8304 24.7606 35.8304Z"/>
</svg>