<svg xmlns="http://www.w3.org/2000/svg" viewBox="11.2588 -103.207 135.9 135.87">
  <path d="M79.1958 32.6673C116.722 32.6673 147.154 2.23586 147.154-35.2697C147.154-72.7753 116.722-103.207 79.1958-103.207C41.6902-103.207 11.2588-72.7753 11.2588-35.2697C11.2588 2.23586 41.6902 32.6673 79.1958 32.6673ZM78.8997-61.2244C74.6971-61.2244 71.2206-64.68 71.2206-68.9411C71.2206-73.1258 74.6971-76.6618 78.8997-76.6618C83.122-76.6618 86.6193-73.1258 86.6193-68.9411C86.6193-64.68 83.122-61.2244 78.8997-61.2244ZM59.3667-44.2672L66.8418-54.5646C68.3686-56.6764 70.7644-58.0411 73.2562-58.0411L104.714-58.0411C106.841-58.0411 108.506-56.2379 108.506-54.1118C108.506-51.9857 106.819-50.2825 104.714-50.2825L79.9076-50.2825C79.141-50.2825 79.0297-50.2396 78.5408-49.5886L72.9352-42.0818L83.795-42.0818C86.8849-42.0818 88.5506-39.4743 87.6087-36.7865L81.4935-18.1072C79.7707-12.9936 72.2885-15.2793 74.1138-20.5758L78.3441-33.5201L67.2066-31.8028C58.9426-30.5757 55.1652-38.5545 59.3667-44.2672ZM61.6466-0.448536L61.6466-8.92326C61.6466-11.2086 63.2557-12.7373 65.4838-12.7373L89.959-12.7373C92.2623-12.7373 93.7755-11.2086 93.7755-8.92326L93.7755-0.448536C93.7755 1.75757 92.2623 3.34472 89.959 3.34472L65.4838 3.34472C63.2557 3.34472 61.6466 1.75757 61.6466-0.448536Z"/>
</svg>