<svg xmlns="http://www.w3.org/2000/svg" viewBox="16.084 -92.2193 152.63 114">
  <path d="M16.084-39.1958L61.6533-39.1958C56.1693-43.0292 52.834-48.9447 52.834-55.7797C52.834-64.9494 59.9671-72.2774 69.6505-72.2774C76.7788-72.2774 82.6627-68.5146 86.5166-62.2777L86.5166-92.1609L98.3207-92.1609L98.3207-62.2777C102.154-68.5146 108.06-72.2774 115.187-72.2774C124.87-72.2774 132.004-64.9494 132.004-55.7797C132.004-48.9447 128.648-43.0292 123.184-39.1958L168.713-39.1958L168.713-28.0683L105.774-28.1267C109.092-22.2464 117.617-15.2152 124.768-13.5265C129.571-12.212 132.206-9.57123 132.206-5.42213C132.206-1.14588 128.975 3.22472 123.1 2.25652C113.706 0.588975 103.086-8.15747 98.74-19.8611L98.3207-19.8611L98.3207 21.7847L86.5166 21.7847L86.5166-19.8611L86.0764-19.8611C81.7514-8.15747 71.1323 0.588975 61.7169 2.25652C55.8415 3.22472 52.6323-1.14588 52.6323-5.42213C52.6323-9.57123 55.2665-12.1911 60.0701-13.5265C67.2203-15.2568 75.7451-22.2464 79.0641-28.1267L16.084-28.0683ZM84.1462-39.508L85.3354-39.508L85.3354-40.9065C85.3354-50.3502 78.9793-59.1797 71.6861-59.1797C68.0998-59.1797 65.7941-57.0063 65.7941-53.4081C65.7941-46.9108 74.1682-39.508 84.1462-39.508ZM100.691-39.508C110.67-39.508 119.044-46.9108 119.044-53.4081C119.044-57.0063 116.717-59.1797 113.151-59.1797C105.837-59.1797 99.481-50.3502 99.481-40.9065L99.481-39.508ZM39.8556 21.7263L144.942 21.7263C160.106 21.7263 168.713 13.1372 168.713-1.96209L168.713-68.5309C168.713-83.6302 160.106-92.2193 144.942-92.2193L39.8556-92.2193C24.7123-92.2193 16.084-83.6326 16.084-68.5309L16.084-1.96209C16.084 13.1396 24.7123 21.7263 39.8556 21.7263Z"/>
</svg>