<svg xmlns="http://www.w3.org/2000/svg" viewBox="22.1571 -114.657 122.96 155.5">
  <path d="M76.5384 40.8412C103.394 40.8412 122.093 26.7515 131.975-0.8492L143.63-33.3888C144.664-36.2347 145.121-38.9597 145.121-41.5459C145.121-50.344 138.727-57.3146 129.503-57.3146C124.585-57.3146 119.717-54.7824 117.493-50.1307L116.443-47.6355C116.361-47.4503 116.257-47.3479 116.074-47.3479C115.811-47.3479 115.709-47.5307 115.709-47.7356L115.709-89.4899C115.709-99.3653 108.7-106.101 98.5694-106.101C96.7553-106.101 95.0059-105.683 93.4131-105.022C90.9439-111.119 85.4474-114.657 78.2861-114.657C71.4001-114.657 65.8381-111.036 63.2688-105.122C61.8928-105.762 60.3019-106.101 58.7463-106.101C49.3074-106.101 42.5952-99.6198 42.5952-90.6286L42.5952-88.3179C41.3736-88.903 39.9695-89.2828 38.485-89.2828C29.0473-89.2828 22.1571-82.2508 22.1571-72.7507L22.1571-14.3863C22.1571 19.184 43.6647 40.8412 76.5384 40.8412ZM76.0255 23.7528C52.5825 23.7528 38.2468 9.12548 38.2468-15.7498L38.2468-70.6487C38.2468-72.0375 39.2199-73.0226 40.604-73.0226C41.966-73.0226 42.9671-72.0375 42.9671-70.6487L42.9671-37.3701C42.9671-33.4885 46.1486-30.4522 49.9766-30.4522C53.8254-30.4522 56.9681-33.4885 56.9681-37.3701L56.9681-87.684C56.9681-89.074 57.9412-90.0786 59.324-90.0786C60.6872-90.0786 61.6883-89.074 61.6883-87.684L61.6883-40.8789C61.6883-36.9973 64.8698-33.9611 68.6967-33.9611C72.5467-33.9611 75.6882-36.9973 75.6882-40.8789L75.6882-96.2349C75.6882-97.6028 76.6905-98.6135 78.0525-98.6135C79.4109-98.6135 80.4096-97.6028 80.4096-96.2349L80.4096-44.0317C80.4096-40.1792 83.5839-37.115 87.4179-37.115C91.2716-37.115 94.4095-40.1792 94.4095-44.0317L94.4095-87.684C94.4095-89.074 95.3522-90.0786 96.7154-90.0786C98.0774-90.0786 99.1297-89.074 99.1297-87.684L99.1297-27.7395C81.9792-25.5558 73.578-14.1807 73.578-2.81166C73.578 1.10202 76.5154 4.27588 80.189 4.21748C84.1599 4.27588 87.2778 1.37608 87.3362-2.43756C87.2778-12.4238 95.7662-14.5436 106.814-14.5436C110.384-14.5436 113.786-16.2863 115.497-20.1877L124.629-40.758C125.353-42.3792 126.837-42.7293 127.934-42.2696C129.152-41.7514 129.743-40.5163 129.159-38.9466L116.777-6.27111C108.726 15.0197 96.4446 23.7528 76.0255 23.7528Z"/>
</svg>