<svg xmlns="http://www.w3.org/2000/svg" viewBox="11.2588 -103.207 135.9 135.87">
  <path d="M79.1958 32.6673C116.725 32.6673 147.154 2.25907 147.154-35.2697C147.154-72.7985 116.725-103.207 79.1958-103.207C41.6878-103.207 11.2588-72.7985 11.2588-35.2697C11.2588 2.25907 41.6878 32.6673 79.1958 32.6673ZM79.1958 12.5197C52.7846 12.5197 31.426-8.85853 31.426-35.2697C31.426-61.6809 52.7846-83.0592 79.1958-83.0592C105.607-83.0592 126.985-61.6809 126.985-35.2697C126.985-8.85853 105.607 12.5197 79.1958 12.5197ZM55.9242-24.4679C55.9242-10.2471 66.1383-1.44148 79.3126-1.44148C87.4117-1.44148 93.4208-4.27661 98.1129-10.3034C102.59-15.6655 105.359-24.865 106.649-28.7113C107.82-32.5023 109.406-37.3353 109.815-39.3618C110.223-41.6828 109.047-43.6512 106.862-44.1185C104.425-44.5857 102.512-43.2837 101.498-40.9344L97.1715-31.1668C96.879-30.4979 96.6205-30.2698 96.2673-30.2698C95.9052-30.2698 95.6507-30.5051 95.6507-31.2348L95.6507-63.9881C95.6507-66.4091 93.8435-68.1956 91.4213-68.1956C88.9795-68.1956 87.2138-66.3507 87.2138-63.9881L87.2138-39.1068C86.5932-39.2956 85.9339-39.5029 85.1941-39.6089L85.1941-68.0399C85.1941-70.4609 83.4076-72.2485 81.0242-72.2485C78.5824-72.2485 76.8155-70.4609 76.8155-68.0399L76.8155-39.9538C76.1306-39.8525 75.4444-39.8281 74.8399-39.7233L74.8399-65.6637C74.8399-68.0263 72.973-69.8712 70.5324-69.8712C68.1906-69.8712 66.3821-68.0263 66.3821-65.6637L66.3821-37.6011C65.6179-37.3098 65.0366-36.9549 64.3808-36.6404L64.3808-56.1231C64.3808-58.6234 62.5735-60.4098 60.2097-60.4098C57.7899-60.4098 55.9242-58.6234 55.9242-56.1231Z" />
</svg>