<svg xmlns="http://www.w3.org/2000/svg" viewBox="16.084 -112.706 118.59 154.8">
  <path d="M53.9426-65.3296C59.1094-65.3296 63.5196-69.7398 63.5196-75.1443C63.5196-80.3124 59.1094-84.7422 53.9426-84.7422C48.5357-84.7422 44.107-80.3124 44.107-75.1443C44.107-69.7398 48.5357-65.3296 53.9426-65.3296ZM16.084 19.2985C16.084 33.4438 24.8372 42.093 39.1282 42.093L111.632 42.093C125.944 42.093 134.675 33.4438 134.675 19.2985L134.675-89.8916C134.675-104.058 125.944-112.706 111.632-112.706L39.1282-112.706C24.8372-112.706 16.084-104.058 16.084-89.8916ZM36.065 16.089L36.065-86.7029C36.065-90.6649 37.9327-92.7258 42.2117-92.7258L108.547-92.7258C112.826-92.7258 114.695-90.6649 114.695-86.7029L114.695 16.089C114.695 20.0511 112.826 22.112 108.547 22.112L42.2117 22.112C37.9327 22.112 36.065 20.0511 36.065 16.089Z"/>
</svg>