<svg xmlns="http://www.w3.org/2000/svg" viewBox="16.084 -96.8595 123.2 123.22">
  <path d="M39.8556 26.3617L115.513 26.3617C130.677 26.3617 139.284 17.7518 139.284 2.65254L139.284-73.1503C139.284-88.2496 130.677-96.8595 115.513-96.8595L39.8556-96.8595C24.7123-96.8595 16.084-88.252 16.084-73.1503L16.084 2.65254C16.084 17.7542 24.7123 26.3617 39.8556 26.3617ZM42.5864 6.35991C38.2704 6.35991 36.065 4.42973 36.065-0.182275L36.065-70.3155C36.065-74.9483 38.2704-76.8577 42.5864-76.8577L112.782-76.8577C117.093-76.8577 119.303-74.9483 119.303-70.3155L119.303-0.182275C119.303 4.42973 117.093 6.35991 112.782 6.35991ZM75.233-6.23794C89.8014-6.23794 98.5466-14.2514 98.5466-28.2492L98.5466-53.5481C98.5466-60.2103 94.9795-64.2308 88.9053-64.2308C82.7948-64.2308 79.3057-60.2271 79.3057-53.5481L79.3057-28.8737C79.3057-24.2176 77.8272-22.2358 74.6999-22.2358C72.2511-22.2358 70.7063-23.4609 69.9091-25.7335C68.6779-29.8224 65.9378-31.8732 61.0948-31.8732C55.9674-31.8148 52.4766-28.3825 52.4766-23.2902C52.4766-21.883 52.6946-20.4943 53.0711-19.2224C55.4646-11.3078 64.0273-6.23794 75.233-6.23794Z" />
</svg>