<svg xmlns="http://www.w3.org/2000/svg" viewBox="11.2588 -99.3349 253.04 128.36">
  <path d="M137.798 29.0291C173.268 29.0291 201.98 0.317094 201.98-35.1529C201.98-70.6229 173.268-99.3349 137.798-99.3349C102.349-99.3349 73.6366-70.6229 73.6366-35.1529C73.6366 0.317094 102.349 29.0291 137.798 29.0291ZM59.394-10.6369C61.7363-13.7853 61.018-17.533 58.6722-20.8272C56.2552-24.1506 54.3572-30.1996 54.3572-35.2697C54.3572-40.3398 56.2552-46.3888 58.6722-49.7706C60.9596-53.0648 61.7363-56.7541 59.394-59.9025C56.7157-63.4038 51.254-63.657 47.4827-59.6388C42.3222-53.9463 39.6507-44.9017 39.6507-35.2697C39.6507-25.6377 42.3222-16.5931 47.4827-10.959C51.254-6.94081 56.7157-7.13565 59.394-10.6369ZM38.5216 7.73527C41.0987 4.52725 40.2861 0.622257 37.4285-2.55101C30.0802-10.7372 25.9664-22.4849 25.9664-35.2697C25.9664-47.9961 29.9634-59.7438 37.4285-67.93C40.3445-71.1033 41.1571-75.0082 38.5216-78.2163C35.6317-81.6787 30.6024-82.32 26.4767-77.9358C16.9394-67.8358 11.2588-51.7402 11.2588-35.2697C11.2588-18.6824 16.2385-3.05405 26.4767 7.45476C30.7193 11.7806 35.6901 11.2561 38.5216 7.73527ZM216.164-10.5201C218.841-7.01884 224.303-6.824 228.075-10.8422C233.236-16.4763 235.907-25.5209 235.907-35.1529C235.907-44.7849 233.236-53.8295 228.075-59.522C224.303-63.5402 218.841-63.2869 216.164-59.7857C213.8-56.6373 214.598-52.9479 216.886-49.6538C219.302-46.272 221.2-40.223 221.2-35.1529C221.2-30.0827 219.302-24.0338 216.886-20.7104C214.54-17.4162 213.8-13.6685 216.164-10.5201ZM237.035 7.85208C239.868 11.3729 244.837 11.8974 249.081 7.57158C259.318-2.93723 264.299-18.5655 264.299-35.1529C264.299-51.6234 258.617-67.719 249.081-77.8189C244.954-82.2032 239.926-81.5619 237.035-78.0995C234.401-74.8914 235.213-70.9864 238.128-67.8132C245.594-59.627 249.591-47.8793 249.591-35.1529C249.591-22.3681 245.478-10.6204 238.128-2.4342C235.272 0.739071 234.459 4.64407 237.035 7.85208ZM129.173-53.2873L123.729-59.7623C122.738-60.8753 122.971-62.0276 123.89-62.8438L126.787-65.1656C127.844-66.0038 128.804-65.9621 129.917-64.9071L135.474-58.9914C136.361-57.8128 136.07-56.6289 135.303-55.8992L132.183-53.1085C131.101-52.1434 130.059-52.1798 129.173-53.2873ZM146.451-53.2873C145.486-52.1798 144.48-52.1642 143.42-53.1085L140.3-55.8992C139.554-56.6289 139.184-57.8128 140.186-58.9914L145.744-64.9071C146.742-65.9621 147.7-66.0038 148.835-65.1656L151.734-62.8438C152.593-62.0276 152.828-60.8753 151.873-59.7623ZM123.005-9.30751C120.278-9.30751 118.389-10.1097 117.273-11.5842L117.043-12.1779L116.651-11.3966C115.486-10.1393 113.724-9.93082 111.593-10.4954L104.505-12.4966C100.832-13.414 99.5776-16.0919 100.555-19.6415L109.597-51.7087C110.514-55.1168 112.086-57.1633 115.578-58.344L118.239-59.3325L126.768-48.7573C128.703-46.3288 131.379-45.9528 133.704-48.4553L135.276-50.031L135.276-9.30751ZM125.523-23.4526L129.906-26.6505C130.959-27.3683 131.139-28.6598 130.363-29.8477C129.688-30.764 128.237-31.0028 127.244-30.2486L122.921-27.0663C121.89-26.333 121.789-25.0206 122.403-23.9692C123.121-22.9749 124.531-22.7372 125.523-23.4526ZM140.264-9.30751L140.264-50.031L141.896-48.4553C144.161-45.954 146.859-46.33 148.83-48.7573L157.304-59.3325L160.021-58.344C163.511-57.1633 165.026-55.1168 166-51.7087L174.984-19.6415C175.961-16.0919 174.708-13.414 171.034-12.4966L163.946-10.4954C161.815-9.93082 160.054-10.1393 158.889-11.3966L158.496-12.1815L158.325-11.5842C157.15-10.1097 155.32-9.30751 152.535-9.30751ZM150.058-23.4526C151.072-22.7372 152.502-22.9749 153.235-23.9692C153.851-25.0206 153.692-26.333 152.66-27.0663L148.316-30.2486C147.402-31.0028 145.973-30.764 145.218-29.8477C144.522-28.6598 144.681-27.3683 145.733-26.6505Z" />
</svg>