<svg xmlns="http://www.w3.org/2000/svg" viewBox="11.2588 -102.588 160.99 134.59">
  <path d="M11.2588-22.1844C11.2588-2.33161 18.4193 15.7996 30.2914 29.8382C32.0442 31.8907 34.9516 31.9479 36.8664 29.9759L52.6936 14.0914C54.3059 12.4999 54.3267 10.2727 52.9129 8.46201C46.1767-0.0425956 42.2582-10.6712 42.2582-22.1844C42.2582-47.1306 60.7016-67.7342 84.6684-71.193C86.9425-71.5291 88.5576-73.2258 88.5576-75.4987L88.5576-97.7855C88.5576-100.555 86.4456-102.588 83.6758-102.309C43.0858-98.2367 11.2588-63.9135 11.2588-22.1844ZM172.244-22.1844C172.244-63.9135 140.497-98.2367 99.8271-102.309C97.0573-102.588 94.9453-100.555 94.9453-97.7855L94.9453-75.4987C94.9453-73.2258 96.5604-71.5291 98.8357-71.193C122.801-67.7342 141.266-47.1306 141.266-22.1844C141.266-10.6712 137.347-0.0425956 130.532 8.52042C129.139 10.3311 129.159 12.5583 130.751 14.1498L146.579 30.0343C148.494 32.0063 151.403 31.9479 153.157 29.8942C165.106 15.7972 172.244-2.33281 172.244-22.1844ZM78.8097 4.90239C82.9154 4.90239 85.4827 2.23502 85.4827-1.94988L85.4243-22.4789L87.1378-22.4789L101.265 0.903196C102.749 3.5225 104.428 4.90239 107.423 4.90239C112.406 4.90239 113.971 1.31563 113.971-1.01927C113.971-3.04807 113.516-4.50958 112.232-6.32392L100.6-22.4789L114.174-22.4789C115.18-22.4789 115.906-23.2252 115.906-24.2103C115.906-25.2162 115.18-25.9208 114.174-25.9208L100.816-25.9208L112.233-40.9152C113.106-42.143 113.621-43.5461 113.621-44.948C113.621-48.3459 110.293-50.4048 107.481-50.4048C104.897-50.4048 103.391-49.1377 101.949-46.9521L87.4507-25.9208L85.4243-25.9208L85.4243-43.5734C85.4243-47.7595 82.857-50.4048 78.7513-50.4048C74.6248-50.4048 72.0575-47.7595 72.0575-43.5734L72.0575-25.9208L67.3756-25.9208C66.3685-25.9208 65.6651-25.2174 65.6651-24.1895C65.6651-23.2031 66.3685-22.4789 67.3756-22.4789L72.0575-22.4789L72.1159-1.94988C72.1159 2.23502 74.6833 4.90239 78.8097 4.90239Z"/>
</svg>