<svg xmlns="http://www.w3.org/2000/svg" viewBox="11.2588 -113.174 155.65 169.11">
  <path d="M166.909-35.2697C166.909-78.2372 132.054-113.174 89.0837-113.174C46.1734-113.174 11.2588-78.2384 11.2588-35.2697C11.2588-2.6464 31.4746 25.433 60.0881 36.9922C58.679 31.6889 59.9913 26.3116 63.2149 22.4131C41.1982 12.4402 25.8664-9.64649 25.8664-35.2697C25.8664-70.1672 54.1874-98.5454 89.0837-98.5454C123.981-98.5454 152.301-70.166 152.301-35.2697C152.301-9.62448 136.948 12.4402 114.873 22.4339C118.078 26.3116 119.368 31.7109 118.058 36.9338C146.672 25.4734 166.909-2.56717 166.909-35.2697ZM105.867 36.2792C108.855 32.3333 107.063 27.4492 102.103 27.4492L76.1606 27.4492C70.984 27.4492 69.2332 32.2957 72.2379 36.2583L85.4255 53.3734C87.324 55.852 90.881 55.9324 92.8003 53.3734ZM37.0212-35.2697C37.0212-6.56498 60.401 16.7928 89.0837 16.7928C117.768 16.7928 141.146-6.56498 141.146-35.2697C141.146-63.9536 117.768-87.4114 89.0837-87.4114C60.401-87.4114 37.0212-63.9536 37.0212-35.2697ZM80.488-11.2468C76.2881-11.2468 74.1423-13.7731 74.1423-18.0134L74.1423-52.9922C74.1423-56.6497 76.871-59.5657 80.5464-59.5657C84.2402-59.5657 86.9949-56.6705 86.9949-52.9922L86.9949-21.6139L100.183-21.6139C103.043-21.6139 105.389-19.3293 105.389-16.4485C105.389-13.4885 103.044-11.2468 100.183-11.2468Z"/>
</svg>