<svg xmlns="http://www.w3.org/2000/svg" viewBox="16.084 -94.5698 152.09 118.72">
  <path d="M70.0975-94.5698C31.9175-94.5698 16.084-78.36 16.084-39.9074L16.084 0.552815C16.084 15.5628 24.6891 24.1472 39.7616 24.1472L144.5 24.1472C159.552 24.1472 168.178 15.5604 168.178 0.552815L168.178-39.9074C168.178-78.36 152.345-94.5698 114.163-94.5698ZM68.1769-9.67999C64.1915-9.67999 61.9874-12.1606 61.9874-16.168L61.9874-55.3108C61.9874-58.7017 64.7849-61.5004 68.2574-61.5004C71.7066-61.5004 74.5262-58.7017 74.5262-55.3108L74.5262-19.8466L83.8456-19.8466C86.6443-19.8466 88.9277-17.562 88.9277-14.7645C88.9277-11.9646 86.6443-9.67999 83.8456-9.67999ZM98.5902-9.75921C94.8385-9.75921 92.8332-11.5897 92.8332-14.6245C92.8332-16.7551 93.7359-18.4688 96.1036-21.3686L104.729-32.3413C108.564-37.1324 111.73-41.8397 111.73-46.533C111.73-49.7807 110.684-52.5449 107.715-52.5449C105.125-52.5449 104.09-50.3944 103.315-47.7065C102.405-44.7337 100.444-43.4994 97.8801-43.4994C94.6221-43.4994 92.7968-45.7656 92.7968-48.858C92.7968-55.9845 99.5794-62.0221 107.733-62.0221C116.882-62.0221 123.433-56.4283 123.433-46.9147C123.433-39.9439 120.043-35.1223 114.736-28.7112L107.433-19.9531L107.433-19.3741L119.578-19.3741C122.924-19.3741 124.286-17.1572 124.286-14.5673C124.286-12.0177 122.945-9.75921 119.578-9.75921Z"/>
</svg>