<svg xmlns="http://www.w3.org/2000/svg" viewBox="16.084 -96.4702 154.14 122.52">
  <path d="M66.8807 26.0476L119.429 26.0476C157.61 26.0476 170.227 13.0546 170.227-25.191L170.227-45.2316C170.227-83.4772 157.61-96.4702 119.429-96.4702L66.8807-96.4702C28.7007-96.4702 16.084-83.4772 16.084-45.2316L16.084-25.191C16.084 13.0546 28.7007 26.0476 66.8807 26.0476ZM66.8807 6.04576C43.1309 6.04576 36.065-1.035 36.065-25.191L36.065-45.2316C36.065-69.3876 43.1309-76.4684 66.8807-76.4684L119.429-76.4684C143.179-76.4684 150.225-69.3876 150.225-45.2316L150.225-25.191C150.225-1.035 143.179 6.04576 119.429 6.04576ZM68.9498-11.3327L83.6134-11.3327C86.2161-11.3327 88.3839-13.4797 88.3839-16.0824C88.3839-18.6851 86.2161-20.8528 83.6134-20.8528L74.8278-20.8528L74.8278-54.0525C74.8278-57.2473 72.2251-59.85 69.0303-59.85C65.7954-59.85 63.194-57.2473 63.194-54.0525L63.194-17.4287C63.194-13.6757 65.2409-11.3327 68.9498-11.3327ZM114.525-10.5321C117.561-10.5321 120.004-12.1894 120.004-16.1348L120.004-19.6596L120.78-19.6596C124.111-19.6596 125.154-21.8198 125.154-24.1912C125.154-27.0079 123.8-28.7216 120.839-28.7216L120.004-28.7216L120.004-51.4278C120.004-56.8 116.483-59.794 111.148-59.794C104.049-59.794 101.855-54.693 99.8252-49.1049L93.6506-33.162C92.7095-30.628 92.193-28.2319 92.193-25.9629C92.193-21.8547 94.5048-19.6596 98.7918-19.6596L109.022-19.6596L109.022-16.1348C109.022-12.2205 111.61-10.5321 114.525-10.5321ZM109.377-28.3671L101.597-28.3671L101.597-28.8449L109.135-50.7828L109.377-50.7828Z"/>
</svg>