<svg xmlns="http://www.w3.org/2000/svg" viewBox="13.0361 -98.7477 126.62 126.74">
  <path d="M77.7061-70.6023L111.436-36.7934C116.497-31.7319 124.128-34.6245 125.979-41.58L137.944-86.264C139.66-92.8633 133.616-98.7477 127.096-96.9745L82.572-85.0088C75.5581-83.1564 72.6643-75.665 77.7061-70.6023ZM46.1397 8.87763L120.627-65.448C124.548-69.3684 124.547-75.715 120.627-79.5758C116.764-83.4974 110.42-83.4974 106.558-79.6342L32.0703-5.30857C28.1487-1.38814 28.1499 4.9584 32.0703 8.81922C35.9324 12.7408 42.2765 12.7408 46.1397 8.87763ZM74.9916-0.154226L41.2606-33.9632C36.1992-39.0246 28.5701-36.132 26.7177-29.1766L14.752 15.5074C13.0361 22.1067 19.0813 27.9911 25.6002 26.2179L70.1453 14.2523C77.1604 12.3999 80.053 4.90842 74.9916-0.154226Z" />
</svg>