<svg xmlns="http://www.w3.org/2000/svg" viewBox="16.084 -75.6682 134.81 80.91">
  <path d="M24.8023 5.23842L142.159 5.23842C147.05 5.23842 150.898 0.983132 150.898-3.79272C150.898-8.7426 147.109-12.8239 142.159-12.8239L24.8023-12.8239C19.9316-12.8239 16.084-8.62578 16.084-3.79272C16.084 0.866319 19.99 5.23842 24.8023 5.23842ZM24.8023-26.213L142.159-26.213C147.05-26.213 150.898-30.4694 150.898-35.2441C150.898-40.194 147.109-44.2752 142.159-44.2752L24.8023-44.2752C19.9316-44.2752 16.084-40.0772 16.084-35.2441C16.084-30.5863 19.99-26.213 24.8023-26.213ZM24.8023-57.6267L142.159-57.6267C147.05-57.6267 150.898-61.8832 150.898-66.6371C150.898-71.5869 147.109-75.6682 142.159-75.6682L24.8023-75.6682C19.9316-75.6682 16.084-71.4701 16.084-66.6371C16.084-62 19.99-57.6267 24.8023-57.6267Z" />
</svg>