<svg xmlns="http://www.w3.org/2000/svg" viewBox="16.084 -96.4702 154.14 122.52">
  <path d="M66.8807 26.0476L119.429 26.0476C157.61 26.0476 170.227 13.0546 170.227-25.191L170.227-45.2316C170.227-83.4772 157.61-96.4702 119.429-96.4702L66.8807-96.4702C28.7007-96.4702 16.084-83.4772 16.084-45.2316L16.084-25.191C16.084 13.0546 28.7007 26.0476 66.8807 26.0476ZM66.8807 6.04576C43.1309 6.04576 36.065-1.035 36.065-25.191L36.065-45.2316C36.065-69.3876 43.1309-76.4684 66.8807-76.4684L119.429-76.4684C143.179-76.4684 150.225-69.3876 150.225-45.2316L150.225-25.191C150.225-1.035 143.179 6.04576 119.429 6.04576ZM61.8969-11.3327L76.5605-11.3327C79.1631-11.3327 81.3101-13.4797 81.3101-16.0824C81.3101-18.6851 79.1631-20.8528 76.5605-20.8528L67.7748-20.8528L67.7748-54.0525C67.7748-57.2473 65.1721-59.85 61.9773-59.85C58.7217-59.85 56.1202-57.2473 56.1202-54.0525L56.1202-17.4287C56.1202-13.6757 58.1867-11.3327 61.8969-11.3327ZM91.6552-10.5089C94.9693-10.5089 96.7218-12.5767 96.7218-15.9531L96.7218-42.5291L97.0631-42.5291L102.653-16.4857C103.293-13.4445 104.908-11.5484 108.033-11.5484C110.944-11.5484 112.634-13.2669 113.353-16.5649L118.884-42.5291L119.166-42.5291L119.166-15.9531C119.166-12.5755 120.879-10.5089 124.213-10.5089C127.569-10.5089 129.339-12.5779 129.339-15.9531L129.339-51.9384C129.339-57.0073 126.26-59.7904 121.234-59.7904C116.703-59.7904 114.062-57.9343 113.242-53.56L107.94-27.5396L107.872-27.5396L102.546-53.56C101.648-58.1875 98.8675-59.7904 94.6368-59.7904C89.5511-59.7904 86.5887-57.0229 86.5887-51.9384L86.5887-15.9531C86.5887-12.5779 88.3424-10.5089 91.6552-10.5089Z"/>
</svg>