<svg xmlns="http://www.w3.org/2000/svg" viewBox="-1.03168 -103.207 148.19 135.87">
  <path d="M5.65569-49.7103C0.28545-49.7103-1.03168-44.7064 1.85748-40.993L18.3141-19.6205C20.2559-17.0325 23.8385-17.0325 25.8178-19.6205L42.2161-41.0126C45.026-44.7064 43.7673-49.7103 38.4763-49.7103ZM147.154-35.2697C147.154-72.7985 116.666-103.207 79.1958-103.207C41.6878-103.207 11.2796-72.8193 11.2588-35.1309C11.2796-29.5905 15.7946-25.0779 21.3326-25.0779C26.8902-25.0779 31.426-29.6113 31.426-35.1517C31.426-61.6809 52.7846-83.0592 79.1958-83.0592C105.607-83.0592 126.985-61.6809 126.985-35.2697C126.985-8.85853 105.607 12.5197 79.1958 12.5197C65.7762 12.5197 54.3974 7.22339 45.2511-1.93188C40.631-6.15886 34.6413-7.55957 30.0627-3.27957C25.9746 0.513563 25.6252 6.86699 30.7166 11.9557C43.4941 25.4212 61.3698 32.6673 79.1958 32.6673C116.666 32.6673 147.154 2.25907 147.154-35.2697ZM61.3024-8.11799C65.0809-8.11799 67.9014-10.1405 67.9014-14.7366L67.9014-29.7228C67.9014-38.3028 70.7218-45.0501 79.2178-45.0501C87.7799-45.0501 90.5174-38.2968 90.5174-29.7228L90.5174-14.7366C90.5174-10.6077 93.0251-8.11799 97.1528-8.11799C101.026-8.11799 103.788-10.3741 103.788-14.7366L103.788-29.346C103.788-45.3053 95.0254-56.3558 79.2178-56.3558C63.4078-56.3558 54.689-45.2613 54.689-29.346L54.689-14.7366C54.689-10.6077 57.1967-8.11799 61.3024-8.11799ZM79.1958-8.35161C81.0091-8.35161 82.1642-9.58473 82.1642-11.5744L82.1642-62.3305C82.1642-64.2994 81.0091-65.5921 79.1958-65.5921C77.3813-65.5921 76.2054-64.2994 76.2054-62.3305L76.2054-11.5744C76.2054-9.58473 77.3813-8.35161 79.1958-8.35161Z" />
</svg>