<svg xmlns="http://www.w3.org/2000/svg" viewBox="11.2588 -103.207 135.9 135.87">
  <path d="M79.1958 32.6673C116.725 32.6673 147.154 2.25907 147.154-35.2697C147.154-72.7985 116.725-103.207 79.1958-103.207C41.6878-103.207 11.2588-72.7985 11.2588-35.2697C11.2588 2.25907 41.6878 32.6673 79.1958 32.6673ZM79.1958 12.5197C52.7846 12.5197 31.426-8.85853 31.426-35.2697C31.426-61.6809 52.7846-83.0592 79.1958-83.0592C105.607-83.0592 126.985-61.6809 126.985-35.2697C126.985-8.85853 105.607 12.5197 79.1958 12.5197ZM62.4613-54.74C62.4613-47.8291 66.6443-41.8845 72.627-39.3674L72.627-12.0161C72.627-5.74705 75.742 2.62589 79.175 2.62589C82.5703 2.62589 85.6645-5.64581 85.6645-12.0161L85.6645-39.309C91.7264-41.8052 95.9095-47.8083 95.9095-54.74C95.9095-64.0435 88.3616-71.5329 79.175-71.4745C69.9507-71.4161 62.4613-63.9267 62.4613-54.74ZM70.2667-59.4047C70.2655-62.3226 72.7253-64.78 75.5628-64.78C78.5003-64.78 80.9369-62.3226 80.9357-59.4047C80.9345-56.5088 78.5003-54.0306 75.5628-54.0306C72.7253-54.0306 70.2679-56.5088 70.2667-59.4047Z" />
</svg>