<svg xmlns="http://www.w3.org/2000/svg" viewBox="16.084 -96.8011 151.52 123.22">
  <path d="M25.1371-67.0937L25.1371-53.3477L158.57-53.3477L158.57-67.0937ZM45.3041 26.4201L138.881 26.4201C156.715 26.4201 167.603 15.3671 167.603-2.82083L167.603-67.5601C167.603-85.748 156.715-96.8011 138.881-96.8011L45.3041-96.8011C27.1371-96.8011 16.084-85.748 16.084-67.5601L16.084-2.82083C16.084 15.3671 27.1371 26.4201 45.3041 26.4201ZM47.9932 6.41832C40.5494 6.41832 36.065 1.95468 36.065-5.50993L36.065-64.871C36.065-72.3356 40.5494-76.7993 47.9932-76.7993L135.693-76.7993C143.158-76.7993 147.622-72.3356 147.622-64.871L147.622-5.50993C147.622 1.95468 143.158 6.41832 135.693 6.41832Z"/>
</svg>