<svg xmlns="http://www.w3.org/2000/svg" viewBox="16.084 -95.0689 124.97 119.62">
  <path d="M23.5509-55.6132L58.2308-55.6132C62.3589-55.6132 65.6977-58.952 65.6977-63.0801C65.6977-67.2095 62.3589-70.547 58.2308-70.547L23.5509-70.547C19.4227-70.547 16.084-67.2095 16.084-63.0801C16.084-58.952 19.4227-55.6132 23.5509-55.6132ZM43.4404 24.5503C46.8584 24.5503 48.912 23.2444 51.3862 19.5655L86.7401-33.1828L119.762-82.0631C121.01-83.9231 121.759-85.7015 121.759-87.6604C121.759-91.9846 118.28-95.0689 113.895-95.0689C109.85-95.0689 107.856-93.6294 105.34-89.8869L71.2867-38.8982L37.1025 11.5017C35.9122 13.2449 35.1425 14.8493 35.1425 17.2974C35.1425 21.8009 39.1486 24.5503 43.4404 24.5503ZM91.4443-3.70322C91.4443 0.424919 94.7819 3.76367 98.8904 3.76367L108.765 3.76367L108.765 13.6763C108.765 17.8045 112.103 21.1432 116.232 21.1432C120.34 21.1432 123.678 17.8045 123.678 13.6763L123.678 3.76367L133.59 3.76367C137.719 3.76367 141.057 0.424919 141.057-3.70322C141.057-7.83256 137.719-11.1701 133.59-11.1701L123.678-11.1701L123.678-21.0244C123.678-25.1525 120.319-28.5289 116.232-28.4704C112.082-28.4704 108.765-25.1317 108.765-21.0244L108.765-11.1701L98.8904-11.1701C94.7819-11.1701 91.4443-7.83256 91.4443-3.70322Z"/>
</svg>