<svg xmlns="http://www.w3.org/2000/svg" viewBox="12.3124 -119.511 141.83 158.91">
  <path d="M76.1203 39.3945C101.76 39.3945 124.259 24.1772 134.341 1.69642C138.219-6.95569 132.036-11.6138 125.288-8.50809C119.607-5.93523 111.806-4.24898 105.339-4.24898C73.8264-4.24898 56.074-22.0002 56.074-53.534C56.074-59.8913 57.8303-67.718 60.4692-73.5323C63.9715-81.0835 58.2623-86.6106 50.1519-83.0071C27.7288-73.0954 12.3124-50.526 12.3124-24.4135C12.3124 10.8382 40.9062 39.3945 76.1203 39.3945ZM76.1203 21.4987C50.7811 21.4987 30.1873 0.924573 30.1873-24.4135C30.1873-33.8451 33.3568-42.6137 38.4982-49.5213C38.4702-48.501 38.4327-47.8913 38.4911-46.8756C40.8857-11.7361 63.1534 10.7264 98.1553 13.2963C99.1802 13.3547 100.233 13.3768 101.263 13.3964C94.2921 18.4306 85.6662 21.4987 76.1203 21.4987ZM116.787-90.057L103.723-90.057L103.723-90.3787L119.011-108.924C120.661-110.955 121.28-112.247 121.28-114.324C121.28-117.395 119.039-119.511 115.811-119.511L94.2-119.511C90.7825-119.511 88.6836-117.607 88.6836-114.579C88.6836-111.57 90.8993-109.649 94.2-109.649L106.79-109.649L106.79-109.328L91.6959-90.9204C90.0242-88.8878 89.4261-87.4043 89.4261-85.4395C89.4261-82.3908 91.6466-80.3127 94.8173-80.3127L116.787-80.3127C120.086-80.3127 122.323-82.196 122.323-85.2051C122.323-88.2322 120.203-90.057 116.787-90.057ZM148.902-64.0635L141.346-64.0635L141.346-64.3643L150.894-75.4192C152.503-77.1557 153.122-78.6224 153.122-80.6416C153.122-83.5526 150.96-85.5307 147.927-85.5307L132.769-85.5307C129.568-85.5307 127.528-83.8811 127.528-81.1304C127.528-78.3745 129.627-76.6874 132.769-76.6874L139.928-76.6874L139.928-76.3865L130.753-65.7613C129.065-63.8716 128.291-62.1713 128.291-60.1688C128.291-57.2982 130.374-55.337 133.386-55.337L148.902-55.337C152.065-55.337 154.143-56.9658 154.143-59.7008C154.143-62.4139 152.124-64.0635 148.902-64.0635ZM118.695-41.4886L112.113-41.4886L112.113-41.7895L120.491-51.3276C121.944-52.9473 122.485-54.2556 122.485-56.0787C122.485-58.6781 120.557-60.4601 117.799-60.4601L103.31-60.4601C100.402-60.4601 98.6366-58.8897 98.6366-56.2755C98.6366-53.7377 100.519-52.1297 103.31-52.1297L109.591-52.1297L109.591-51.8289L101.586-42.6608C99.8604-40.7687 99.3415-39.4628 99.2831-37.5396C99.2247-35.0194 101.091-33.2166 103.849-33.2166L118.695-33.2166C121.545-33.2166 123.407-34.8454 123.407-37.3624C123.407-39.9766 121.662-41.4886 118.695-41.4886Z"/>
</svg>