<svg xmlns="http://www.w3.org/2000/svg" viewBox="11.8417 -118.969 142.26 158.9">
  <path d="M75.6705 39.9345C101.31 39.9345 123.81 24.6965 133.893 2.23646C137.769-6.41564 131.586-11.0738 124.839-7.96805C119.158-5.39519 111.357-3.70774 104.891-3.70774C73.3777-3.70774 55.6253-21.459 55.6253-52.9927C55.6253-59.3721 57.3816-67.1976 60.0193-72.9911C63.5228-80.5423 57.8125-86.0705 49.702-82.4866C27.2581-72.5541 11.8417-49.9848 11.8417-23.8943C11.8417 11.3795 40.4563 39.9345 75.6705 39.9345ZM116.745-89.5366L103.702-89.5366L103.702-89.8583L118.969-108.403C120.64-110.415 121.239-111.727 121.239-113.784C121.239-116.874 118.997-118.969 115.769-118.969L94.1584-118.969C90.7408-118.969 88.642-117.086 88.642-114.06C88.642-111.05 90.8577-109.108 94.1584-109.108L106.748-109.108L106.748-108.787L91.6542-90.3791C89.9826-88.3686 89.3845-86.8643 89.3845-84.8994C89.3845-81.8704 91.605-79.7715 94.7757-79.7715L116.745-79.7715C120.065-79.7715 122.281-81.6547 122.281-84.665C122.281-87.6909 120.182-89.5366 116.745-89.5366ZM148.86-63.5234L141.304-63.5234L141.304-63.8243L150.852-74.8792C152.461-76.6352 153.08-78.0812 153.08-80.1004C153.08-83.0334 150.918-84.9906 147.885-84.9906L132.727-84.9906C129.527-84.9906 127.486-83.3618 127.486-80.5892C127.486-77.8345 129.585-76.1681 132.727-76.1681L139.887-76.1681L139.887-75.8673L130.711-65.2212C129.023-63.3304 128.25-61.63 128.25-59.6484C128.25-56.7582 130.333-54.8177 133.345-54.8177L148.86-54.8177C152.024-54.8177 154.102-56.4257 154.102-59.1596C154.102-61.8738 152.082-63.5234 148.86-63.5234ZM118.653-40.9486L112.072-40.9486L112.072-41.2494L120.449-50.7876C121.903-52.4281 122.443-53.7155 122.443-55.5387C122.443-58.1577 120.515-59.9189 117.778-59.9189L103.269-59.9189C100.36-59.9189 98.595-58.3693 98.595-55.7355C98.595-53.1965 100.477-51.6093 103.269-51.6093L109.57-51.6093L109.57-51.3084L101.545-42.1207C99.8396-40.2495 99.2999-38.9216 99.2415-37.0192C99.1831-34.499 101.049-32.6766 103.807-32.6766L118.653-32.6766C121.504-32.6766 123.365-34.3042 123.365-36.8224C123.365-39.4366 121.621-40.9486 118.653-40.9486Z"/>
</svg>