<svg xmlns="http://www.w3.org/2000/svg" viewBox="16.6681 -117.76 140.43 150.14">
  <path d="M80.476 32.3784C106.116 32.3784 128.614 17.1623 138.718-5.31966C142.595-13.9718 136.391-18.6287 129.664-15.5242C123.962-12.9501 116.182-11.2639 109.716-11.2639C78.2029-11.2639 60.4505-29.0151 60.4505-60.5489C60.4505-66.9282 62.2068-74.7537 64.8457-80.5472C68.348-88.0984 62.618-93.6267 54.5076-90.0427C32.0845-80.1103 16.6681-57.5409 16.6681-31.4504C16.6681 3.82337 45.2827 32.3784 80.476 32.3784ZM131.307-39.5013C133.048-39.5013 134.353-40.7476 134.572-42.5677C136.494-58.8522 137.053-59.4764 153.871-61.967C155.927-62.2642 157.096-63.4481 157.096-65.2317C157.096-66.9153 155.927-68.1396 154.246-68.4745C137.037-72.0661 136.494-71.7049 134.572-87.8738C134.353-89.7159 133.048-90.9413 131.307-90.9413C129.546-90.9413 128.261-89.7159 128.043-87.953C125.94-71.1776 125.507-70.7454 108.406-68.4745C106.745-68.2773 105.497-66.9153 105.497-65.2317C105.497-63.5273 106.686-62.3226 108.348-61.967C125.624-58.3753 125.921-58.6341 128.043-42.4092C128.261-40.7476 129.605-39.5013 131.307-39.5013ZM100.625-85.7366C101.713-85.7366 102.482-86.5052 102.642-87.5943C104.198-97.8016 104.201-97.8564 114.718-99.7297C115.963-99.9478 116.695-100.638 116.695-101.748C116.695-102.858 115.963-103.549 114.893-103.767C104.085-105.94 104.099-105.936 102.642-115.844C102.482-116.991 101.713-117.76 100.625-117.76C99.5162-117.76 98.7476-116.991 98.588-115.902C97.0131-105.527 97.0899-105.415 86.4149-103.767C85.3247-103.607 84.5353-102.858 84.5353-101.748C84.5353-100.638 85.2663-99.9478 86.3565-99.7297C97.0899-97.556 96.9923-97.568 98.588-87.5359C98.7476-86.5052 99.5162-85.7366 100.625-85.7366Z"/>
</svg>