<svg xmlns="http://www.w3.org/2000/svg" viewBox="11.2588 -64.792 186.74 65.64">
  <path d="M11.2588-37.6555C11.2588-15.9939 33.1604 0.846996 61.0345 0.846996C79.6983 0.846996 94.9853-5.45062 104.62-17.1112C114.276-5.45062 129.543 0.846996 148.227 0.846996C176.1 0.846996 198.003-15.9939 198.003-37.6555C198.003-45.7031 195.358-51.4171 189.584-51.4171C187.283-51.4171 185.08-50.048 183.745-48.0379C180.964-43.8545 175.957-41.5695 169.67-41.5695C151.626-41.5695 146.229-64.792 121.694-64.792C107.333-64.792 97.6308-55.6033 97.2187-41.068L112.022-41.068C111.61-55.6033 101.908-64.792 87.5458-64.792C63.012-64.792 57.6354-41.5695 39.592-41.5695C33.7793-41.5695 28.8512-43.8337 25.3588-48.234C23.8652-50.1064 21.8396-51.4171 19.6775-51.4171C13.883-51.4171 11.2588-45.7031 11.2588-37.6555Z"/>
</svg>