<svg xmlns="http://www.w3.org/2000/svg" viewBox="11.2588 -103.207 135.9 135.87">
  <path d="M79.1958 32.6673C116.725 32.6673 147.154 2.25907 147.154-35.2697C147.154-72.7985 116.725-103.207 79.1958-103.207C41.6878-103.207 11.2588-72.7985 11.2588-35.2697C11.2588 2.25907 41.6878 32.6673 79.1958 32.6673ZM79.1958 12.5197C52.7846 12.5197 31.426-8.85853 31.426-35.2697C31.426-61.6809 52.7846-83.0592 79.1958-83.0592C105.607-83.0592 126.985-61.6809 126.985-35.2697C126.985-8.85853 105.607 12.5197 79.1958 12.5197ZM103.153-60.4814L97.6619-65.9145C96.4913-67.1268 94.5872-67.1059 93.4541-65.9145C92.2835-64.8022 92.2627-62.8773 93.4541-61.7651L98.9248-56.2736C100.116-55.0237 101.982-55.1029 103.153-56.2736C104.345-57.4663 104.365-59.2523 103.153-60.4814ZM61.7566-28.8047L65.9852-24.5761L101.601-60.135L97.3155-64.3648ZM48.7599-11.5794C51.6527-8.68669 55.3556-7.89012 57.6325-10.1682L69.382-21.9774C71.4366-24.0307 72.5184-26.0376 72.8609-28.2077L73.826-34.3797L71.5591-36.6674L65.3871-35.6804C63.2765-35.3599 61.2684-34.1976 59.1579-32.1443L47.4072-20.3948C45.1082-18.1763 45.8076-14.4137 48.7599-11.5794ZM55.1954-60.4814C54.0039-59.2523 54.0831-57.4663 55.1954-56.2736C56.4464-55.1029 58.2533-55.0237 59.4824-56.2736L64.953-61.7651C66.1653-62.8773 66.0861-64.8022 64.953-65.9145C63.7823-67.1059 61.9367-67.1852 60.7452-65.9145ZM96.6702-28.8047L61.054-64.3648L56.8254-60.135L92.4428-24.5761ZM109.647-11.5794C112.541-14.4137 113.299-18.1763 111-20.3948L99.1908-32.1443C97.1595-34.256 95.093-35.3015 92.9825-35.6804L86.8105-36.6674L84.5812-34.3797L85.4878-28.2077C85.8887-26.0376 86.933-23.9723 89.0459-21.9774L100.795-10.1682C103.014-7.89012 106.775-8.68669 109.647-11.5794Z" />
</svg>