<svg xmlns="http://www.w3.org/2000/svg" viewBox="11.2588 -103.207 135.9 135.87">
  <path d="M79.1958 32.6673C116.722 32.6673 147.154 2.23586 147.154-35.2697C147.154-72.7753 116.722-103.207 79.1958-103.207C41.6902-103.207 11.2588-72.7753 11.2588-35.2697C11.2588 2.23586 41.6902 32.6673 79.1958 32.6673ZM79.2166-1.49747C60.6935-1.49747 45.5028-16.709 45.5028-35.2113C45.5028-43.7431 48.8461-52.151 54.5613-57.9529C60.8404-64.7697 70.3131-56.3783 64.1067-49.3839C60.4609-45.4669 58.4924-40.5136 58.4924-35.2113C58.4924-23.6919 67.718-14.4454 79.2166-14.4454C90.7348-14.4454 99.9825-23.6919 99.9825-35.2113C99.9617-40.5136 97.9515-45.4669 94.3265-49.3631C88.1202-56.3575 97.5928-64.7489 103.893-57.9529C109.608-52.129 112.951-43.7211 112.951-35.2113C112.951-16.709 97.7385-1.49747 79.2166-1.49747ZM79.2166-32.1238C75.1445-32.1238 72.2794-35.0693 72.2794-39.3583L72.2794-63.6399C72.2794-67.9289 75.1445-70.9316 79.2166-70.9316C83.3084-70.9316 86.1746-67.9289 86.1746-63.6399L86.1746-39.3583C86.1746-35.0693 83.3084-32.1238 79.2166-32.1238Z" />
</svg>