<svg xmlns="http://www.w3.org/2000/svg" viewBox="16.084 -94.5698 152.09 118.72">
  <path d="M70.0975 24.1472L114.163 24.1472C152.345 24.1472 168.178 7.93737 168.178-30.5152L168.178-70.9754C168.178-85.983 159.552-94.5698 144.5-94.5698L39.7616-94.5698C24.6891-94.5698 16.084-85.9854 16.084-70.9754L16.084-30.5152C16.084 7.93737 31.9175 24.1472 70.0975 24.1472ZM63.2763-9.1756C59.1728-9.1756 57.0479-11.6186 57.0479-15.7376L57.0479-53.8083C57.0479-57.9505 59.1704-60.3495 63.2542-60.3495L73.0472-60.3495C83.4501-60.3495 89.6442-54.8969 89.6442-43.887C89.6442-38.8962 88.0578-33.3616 83.8663-30.5065L88.2581-18.7682C88.7191-17.5097 88.962-16.6034 89.0204-15.3599C89.1956-11.6441 86.5341-9.1756 83.2478-9.1756C79.9957-9.1756 77.9564-10.9401 76.8037-14.5009L72.439-27.9066L69.4618-27.9066L69.4618-15.7376C69.4618-11.7146 67.2576-9.1756 63.2763-9.1756ZM69.4618-36.4332L71.9165-36.4332C75.5678-36.4332 76.9758-40.0064 76.9758-43.669C76.9758-47.163 75.4534-50.9775 71.9737-50.9775L69.4618-50.9775ZM102.595-10.0703C98.3576-10.0703 96.4103-12.7857 96.4103-16.4751L96.4103-53.8815C96.4103-57.6084 98.3368-60.3851 102.595-60.3851L115.508-60.3851C123.257-60.3851 128.145-55.7725 128.145-47.82C128.145-42.5568 124.736-37.6567 119.74-36.8709L119.74-36.6088C125.186-36.2175 129.191-30.6674 129.191-24.4935C129.191-16.4826 124.653-10.0703 116.082-10.0703ZM108.701-39.7888L111.258-39.7888C114.867-39.7888 116.461-42.1526 116.461-45.7623C116.461-49.1423 115.297-51.5041 111.71-51.5041L108.701-51.5041ZM108.701-18.9305L111.641-18.9305C115.4-18.9305 116.856-21.8216 116.856-25.6397C116.856-29.5088 115.092-32.1725 111.534-32.1725L108.701-32.1725Z"/>
</svg>