<svg xmlns="http://www.w3.org/2000/svg" viewBox="16.084 -102.373 181.77 134.33">
  <path d="M84.408 31.9548L129.507 31.9548C144.606 31.9548 153.195 23.3472 153.195 8.18313L153.195-78.5801C153.195-93.7442 144.608-102.373 129.507-102.373L84.408-102.373C69.3064-102.373 60.7196-93.7442 60.7196-78.5801L60.7196 8.18313C60.7196 23.3472 69.3296 31.9548 84.408 31.9548ZM87.2636 11.9738C82.6308 11.9738 80.7006 9.74273 80.7006 5.4524L80.7006-75.8494C80.7006-80.1653 82.6308-82.3708 87.2636-82.3708L126.651-82.3708C131.284-82.3708 133.214-80.1653 133.214-75.8494L133.214 5.4524C133.214 9.74273 131.284 11.9738 126.651 11.9738ZM16.084-20.571C16.084-15.4354 20.7545-13.2221 25.0368-15.7195L49.1297-30.0722C53.2166-32.5147 53.157-37.9395 49.1297-40.3421L25.0356-54.7191C20.6949-57.2749 16.084-54.9616 16.084-49.9052ZM197.851-20.571L197.851-49.9052C197.851-54.9616 193.199-57.2957 188.9-54.7191L164.784-40.3421C160.758-37.9603 160.677-32.4939 164.784-30.0722L188.878-15.7195C193.139-13.2013 197.851-15.4354 197.851-20.571Z"/>
</svg>