<svg xmlns="http://www.w3.org/2000/svg" viewBox="16.084 -113.721 165.47 156.84">
  <path d="M38.7922-1.45282L70.9213-1.45282L59.2428-19.2861L41.5229-19.2861C36.4772-19.2861 33.9173-21.8668 33.9173-26.9126L33.9173-88.24C33.9173-93.3054 36.4772-95.8861 41.5229-95.8861L121.084-95.8861C126.124-95.8861 128.669-93.3054 128.669-88.24L128.669-58.1259L146.523-58.1259L146.523-91.0945C146.523-105.603 138.387-113.721 123.815-113.721L38.7922-113.721C24.1994-113.721 16.084-105.626 16.084-91.0945L16.084-24.0777C16.084-9.5266 24.1994-1.45282 38.7922-1.45282ZM141.802 34.7547C170.89 24.1466 181.553 0.247208 170.593-30.0572L164.42-47.0255C159.281-61.2578 148.469-67.6029 136.103-63.7863C132.471-67.4289 126.996-68.4259 121.626-66.4619C120.382-65.9937 119.159-65.4559 118.138-64.7353C114.132-68.678 109.093-69.8919 103.838-68.0447C103.42-67.853 103.041-67.6489 102.667-67.4216L98.5767-78.5629C95.0707-88.0871 86.5611-92.2609 77.4301-88.9789C67.8867-85.4997 63.8178-76.6821 67.2862-67.159L80.5191-30.766C80.6787-30.3276 80.5983-30.0863 80.3946-29.9839C80.2118-29.9618 80.1069-29.9839 79.9449-30.1095L77.8798-32.1298C73.9309-34.3741 69.633-35.3212 65.2254-33.7408C57.1324-30.7578 53.2098-23.1581 56.2201-14.8874C57.0947-12.4228 58.6067-9.92854 60.3223-7.8352L81.0237 16.8472C97.8481 36.9448 118.977 43.1228 141.802 34.7547ZM136.617 19.3522C120.418 25.2681 106.372 21.1134 93.1323 6.38346L71.7688-17.2864C71.4151-17.6633 71.1858-18.0183 71.0161-18.4832C70.6588-19.4724 71.0649-20.5871 72.3161-21.0468C73.1425-21.3046 73.9071-21.0445 74.6085-20.3758L89.8802-6.20548C92.5346-3.78118 95.4752-3.4595 98.0679-4.37693C101.505-5.63041 103.662-9.28364 102.036-13.6854L80.5579-72.9047C80.0738-74.1119 80.5971-75.3095 81.8567-75.7704C83.0775-76.2325 84.3067-75.662 84.792-74.4352L99.2559-34.7092C100.405-31.5201 103.984-29.915 107.095-31.0833C110.244-32.2319 111.94-35.7351 110.771-38.845L105.863-52.2983C106.423-52.6413 107.091-52.9818 107.735-53.1903C109.089-53.6976 110.385-53.145 110.895-51.7242L115.927-37.8913C117.04-34.8314 120.542-33.2931 123.59-34.3821C126.675-35.5284 128.241-38.8892 127.149-41.9687L123.943-50.874C124.502-51.1973 125.172-51.5962 125.836-51.8255C127.132-52.272 128.444-51.7219 128.976-50.3362L132.266-41.3058C133.438-38.1083 136.979-36.5324 140.144-37.6798C143.308-38.8261 145.051-42.3817 143.862-45.5792L142.668-48.7296C145.645-49.7926 147.94-48.0943 149.616-43.5039L156.007-25.9961C163.78-4.63452 156.67 12.0503 136.617 19.3522Z"/>
</svg>