<svg xmlns="http://www.w3.org/2000/svg" viewBox="11.2588 -103.207 135.9 135.87">
  <path d="M79.1958 32.6673C116.725 32.6673 147.154 2.25907 147.154-35.2697C147.154-72.7985 116.725-103.207 79.1958-103.207C41.6878-103.207 11.2588-72.7985 11.2588-35.2697C11.2588 2.25907 41.6878 32.6673 79.1958 32.6673ZM79.1958 12.5197C52.7846 12.5197 31.426-8.85853 31.426-35.2697C31.426-61.6809 52.7846-83.0592 79.1958-83.0592C105.607-83.0592 126.985-61.6809 126.985-35.2697C126.985-8.85853 105.607 12.5197 79.1958 12.5197ZM70.9598-61.1232L70.9598-39.4859C70.9598-37.1417 72.507-35.5946 74.9292-35.5946C76.0027-35.5946 77.1345-35.9711 77.8911-36.6264L90.6625-47.4081C92.6546-49.0785 92.6546-51.5515 90.6625-53.2023L77.8911-63.9828C77.1929-64.6589 76.0611-65.0342 74.9292-65.0342C72.507-65.0342 70.9598-63.4674 70.9598-61.1232ZM73.3224-5.03492L73.3224-26.6514C73.3224-28.9956 71.7336-30.5636 69.331-30.5636C68.2563-30.5636 67.1452-30.1859 66.3886-29.5097L53.5769-18.7316C51.6252-17.1017 51.7044-14.5299 53.6561-12.8779L66.3886-2.1778C67.1452-1.56124 68.1979-1.12514 69.331-1.12514C71.7544-1.12514 73.3224-2.66991 73.3224-5.03492ZM107.286-39.8001C110.21-39.8001 112.157-41.7874 112.157-44.7886L112.157-58.7781C112.157-62.1826 109.868-64.5452 106.543-64.5452C104.356-64.5452 102.86-63.9495 100.788-62.3358L96.3888-58.9297C95.2349-58.0951 94.7196-56.9257 94.7196-55.6949C94.7196-53.6908 96.424-52.0633 98.5293-52.0633C99.3639-52.0633 100.257-52.3397 101.014-52.9563L102.442-54.12L102.238-54.12L102.238-44.7886C102.238-41.7886 104.226-39.8001 107.286-39.8001ZM75.8177-45.7008C78.3983-45.7008 80.5233-47.8258 80.5233-50.4868C80.5233-53.0687 78.3983-55.2133 75.8177-55.2133L57.8303-55.2133C46.8351-55.2133 39.5724-48.672 39.5724-38.6602L39.5724-34.8968C39.5724-32.2953 41.6777-30.1107 44.2804-30.1107C46.9427-30.1107 49.0896-32.2369 49.0896-34.8968L49.0896-38.0961C49.0896-42.6648 52.2609-45.7008 57.1625-45.7008ZM69.0134-20.5169C66.3523-20.5169 64.2273-18.3932 64.2273-15.8113C64.2273-13.1491 66.3523-11.0253 69.0134-11.0253L93.6614-11.0253C104.736-11.0253 112-17.5666 112-27.5784L112-31.3418C112-33.9445 109.874-36.0498 107.211-36.0498C104.55-36.0498 102.424-33.9445 102.424-31.3418L102.424-28.1425C102.424-23.5529 99.232-20.5169 94.3291-20.5169Z" />
</svg>