<svg xmlns="http://www.w3.org/2000/svg" viewBox="16.084 -111.779 157.52 153.02">
  <path d="M28.8484 30.8345L162.436 30.8345L162.436 19.3704C162.436 15.8091 160.239 13.671 156.715 13.671L154.329 13.671L154.329-60.4183L159.32-60.4183C164.621-60.4183 167.743-64.3897 167.743-68.3062C167.743-71.2105 166.121-73.8599 162.758-75.8592L105.172-109.048C102.257-110.745 98.8122-111.779 95.6422-111.779C92.4514-111.779 89.005-110.745 86.0907-109.048L28.5046-75.8592C25.1214-73.8599 23.5206-71.2105 23.5206-68.3062C23.5206-64.3897 26.6418-60.4183 31.9434-60.4183L36.9555-60.4183L36.9555 13.671L34.5699 13.671C31.045 13.671 28.8484 15.8091 28.8484 19.3704ZM24.0303 41.2396L165.598 41.2396C169.868 41.2396 173.603 37.7383 173.603 33.2725C173.603 28.943 169.868 25.3262 165.598 25.3262L24.0303 25.3262C19.7593 25.3262 16.084 28.943 16.084 33.2725C16.084 37.6799 19.7593 41.2396 24.0303 41.2396ZM70.4852-3.73064C66.6883-3.73064 64.5114-5.98678 64.5114-9.78604L64.5114-44.7188C64.5114-48.4949 66.7079-50.7534 70.4643-50.7534L80.9219-50.7534C91.4392-50.7534 97.3508-45.4294 97.3508-35.5883C97.3508-30.7958 95.3567-25.344 91.0783-22.9894L95.2864-13.8553C95.9781-12.2718 96.6311-10.9479 96.6311-9.36551C96.6311-5.70913 94.0013-3.73064 90.873-3.73064C88.1599-3.73064 86.3011-5.40781 84.8824-8.93736L80.0125-20.8453L76.2641-20.8453L76.2641-9.78604C76.2641-5.98678 74.2612-3.73064 70.4852-3.73064ZM76.2641-28.7864L79.8537-28.7864C83.7584-28.7864 85.3829-31.8804 85.3829-35.3703C85.3829-39.1934 83.4796-41.9685 79.8913-41.9685L76.2641-41.9685ZM116.325-3.65142C110.591-3.65142 104.044-5.27432 101.868-9.8864C101.414-10.7634 101.136-11.7948 101.136-12.5109C101.136-14.8927 102.938-16.6335 105.32-16.6335C106.924-16.6335 108.512-15.9157 110.068-14.3573C111.958-12.1442 113.638-11.2084 116.331-11.2084C118.126-11.2084 120.071-12.2236 120.071-14.4774C120.071-16.4928 118.478-17.2974 116.456-17.7364L110.905-19.0063C105.156-20.3591 101.471-23.6479 101.471-29.463C101.471-37.1649 107.797-41.0135 115.974-41.0135C121.444-41.0135 127.547-38.9134 129.297-33.901C129.478-33.2808 129.636-32.6638 129.636-32.1629C129.636-29.7719 128.118-28.5324 125.398-28.5324C124.335-28.5324 122.754-28.8825 121.633-30.0412C120.365-31.6437 118.34-33.3981 115.909-33.3981C113.74-33.3981 112.316-32.0693 112.316-30.0951C112.316-28.253 113.997-27.1255 115.909-26.7086L121.598-25.4959C127.399-24.2355 131.288-21.7497 131.288-15.7209C131.288-7.66282 124.326-3.65142 116.325-3.65142Z"/>
</svg>