<svg xmlns="http://www.w3.org/2000/svg" viewBox="12.8672 -106.451 188.4 139.9">
  <path d="M12.8672-25.7549C12.8672-28.1214 13.6954-30.4839 15.9439-32.8104L35.6147-53.3538C37.079-54.817 38.6018-55.6076 40.7543-55.6076C44.9825-55.6076 47.8695-52 47.8695-48.2391C47.8695-46.0686 46.9609-44.0693 45.4394-42.6466L38.5851-36.2157L22.8788-25.7561L38.5851-15.2757L45.4394-8.86438C46.9609-7.42084 47.8695-5.46318 47.8695-3.2927C47.8695 0.486648 44.9825 4.11743 40.7543 4.11743C38.6018 4.11743 37.079 3.30603 35.6147 1.86249L15.9439-18.6994C13.6954-21.0063 12.8672-23.3884 12.8672-25.7549ZM102.618-25.7549C102.618-20.8426 98.6121-17.0701 94.0126-17.0701L42.6966-17.0713L27.299-17.9555C22.976-18.21 19.4996-21.4319 19.4996-25.7549C19.4996-30.0582 22.9748-33.2778 27.2978-33.5334L42.6966-34.4384L94.0126-34.4396C98.6121-34.4396 102.618-30.6476 102.618-25.7549ZM140.764 33.4471C141.928 33.2886 143.151 32.7737 144.372 32.1236L191.248 7.03342C198.266 3.25965 201.267-1.08217 201.267-9.72838L201.267-63.8664C201.267-64.7368 201.224-65.4964 201.116-66.2507L140.764-33.4515ZM129.38 33.4471L129.38-33.4515L69.0484-66.2507C68.9407-65.4964 68.8979-64.7368 68.8979-63.8664L68.8979-9.72838C68.8979-1.08217 71.8784 3.25965 78.9169 7.03342L125.793 32.1236C127.014 32.7737 128.216 33.2886 129.38 33.4471ZM135.083-43.8152L161.377-57.968L99.8657-91.3673L78.552-79.9019C76.6992-78.9249 75.1312-77.893 73.8629-76.6795ZM173.956-64.6016L196.361-76.6795C195.071-77.893 193.525-78.9249 191.671-79.9031L148.58-103.014C144.37-105.292 139.735-106.451 135.141-106.451C130.467-106.451 125.853-105.292 121.622-103.014L112.074-97.8472Z" />
</svg>