<svg xmlns="http://www.w3.org/2000/svg" viewBox="10.8124 -107.687 144.79 144.86">
  <path d="M89.5485-81.0144C93.4768-80.4735 97.1418-79.4788 100.624-78.0952C102.358-77.3778 104.174-77.9564 105.111-79.5519L114.691-96.1433C115.826-98.0761 115.167-100.388 113.095-101.324C106.069-104.568 98.4768-106.685 90.4411-107.468C88.1502-107.665 86.4159-106.011 86.4159-103.72L86.4159-84.5219C86.4159-82.6487 87.7117-81.2712 89.5485-81.0144ZM111.698-71.6605C114.639-69.3339 117.353-66.6988 119.701-63.6783C120.857-62.1632 122.73-61.7027 124.306-62.6613L140.897-72.2181C142.851-73.374 143.408-75.6857 142.135-77.5588C137.527-83.9445 131.966-89.5624 125.639-94.0931C123.766-95.4474 121.395-94.8117 120.26-92.8777L110.681-76.2863C109.744-74.6907 110.162-72.8164 111.698-71.6605ZM126.056-52.6046C127.476-49.1224 128.471-45.4938 128.974-41.646C129.232-39.7716 130.628-38.4757 132.502-38.4757L151.682-38.4757C153.915-38.4757 155.606-40.1881 155.408-42.4789C154.685-50.3782 152.551-58.0118 149.365-65.0188C148.428-67.1488 146.037-67.8066 144.104-66.6507L127.491-57.0499C125.915-56.1121 125.339-54.3193 126.056-52.6046ZM128.975-28.8922C128.472-25.0224 127.498-21.3938 126.056-17.9324C125.339-16.1981 125.916-14.4041 127.513-13.4663L144.104-3.88748C146.058-2.73165 148.428-3.36857 149.365-5.5194C152.55-12.4876 154.626-20.0796 155.408-28.0581C155.605-30.3489 153.913-32.0625 151.681-32.0625L132.502-32.0625C130.628-32.0625 129.232-30.7666 128.975-28.8922ZM119.701-6.83907C117.374-3.83944 114.697-1.20431 111.696 1.14433C110.181 2.30016 109.743 4.17454 110.679 5.74924L120.26 22.3407C121.395 24.3331 123.765 24.9312 125.638 23.5769C131.987 18.9681 137.526 13.4075 142.114 7.04263C143.408 5.16946 142.831 2.85779 140.898 1.70195L124.306-7.85608C122.73-8.81468 120.857-8.35418 119.701-6.83907ZM100.624 7.59862C97.1638 8.9602 93.4768 9.93407 89.6069 10.497C87.7117 10.7538 86.4159 12.1313 86.4159 14.0045L86.4159 33.205C86.4159 35.5167 88.1282 37.1706 90.4399 36.9514C98.3976 36.1704 106.052 34.0534 113.117 30.8082C115.189 29.8716 115.826 27.5015 114.691 25.5687L105.111 9.0345C104.174 7.43897 102.358 6.86046 100.624 7.59862ZM76.9104 10.497C73.0626 9.93527 69.3767 8.9614 65.9154 7.59981C64.1811 6.86046 62.3651 7.43897 61.4077 9.0345L51.8496 25.6271C50.7146 27.5599 51.3516 29.8716 53.4232 30.8082C60.4278 34.0522 68.0406 36.1692 76.0179 36.9514C78.3087 37.1486 80.0222 35.4947 80.0222 33.2038L80.0222 14.0045C80.0222 12.1313 78.7264 10.7538 76.9104 10.497ZM54.8209 1.14433C51.8796-1.1823 49.1653-3.81742 46.8387-6.83787C45.6828-8.35298 43.8096-8.79267 42.2129-7.83407L25.6215 1.70195C23.6095 2.85779 23.0518 5.16946 24.384 7.10104C28.9928 13.4283 34.5327 19.0253 40.8807 23.5769C42.7539 24.9312 45.124 24.2955 46.259 22.3615L55.817 5.74924C56.7536 4.15372 56.336 2.30016 54.8209 1.14433ZM40.382-17.9908C39.0204-21.3938 38.0477-25.0224 37.5432-28.8922C37.2863-30.7666 35.9089-32.0625 34.0357-32.0625L14.7571-32.0625C12.4663-32.0625 10.8124-30.3501 11.0316-28.0593C11.8126-20.06 13.9087-12.4472 17.1736-5.41936C18.1102-3.34776 20.3814-2.68882 22.335-3.84465L38.9473-13.4455C40.6024-14.3833 41.1213-16.1981 40.382-17.9908ZM37.542-41.646C38.0453-45.4366 39.0192-49.1224 40.4404-52.5254C41.1785-54.3181 40.6012-56.1329 38.9461-57.0707L22.3338-66.6495C20.3802-67.8054 18.0894-67.1464 17.1528-65.0748C13.9099-58.0482 11.8138-50.4574 11.0316-42.4801C10.8344-40.1893 12.4675-38.4757 14.7792-38.4757L34.0357-38.4757C35.9101-38.4757 37.2851-39.7716 37.542-41.646ZM46.8375-63.6783C49.1641-66.678 51.7992-69.3339 54.8197-71.6617C56.336-72.8176 56.7536-74.6919 55.817-76.2875L46.2382-92.8789C45.1032-94.8701 42.7331-95.4474 40.8599-94.0943C34.5315-89.4855 28.9928-83.9445 24.4048-77.6172C23.0518-75.6857 23.6083-73.374 25.6203-72.2181L42.2325-62.6601C43.8281-61.7223 45.6816-62.1412 46.8375-63.6783ZM65.8934-78.0952C69.3755-79.4776 73.0417-80.4515 76.9104-81.0144C78.7264-81.2712 80.0222-82.6487 80.0222-84.5219L80.0222-103.721C80.0222-106.012 78.3099-107.687 76.0191-107.468C68.0406-106.687 60.4278-104.57 53.4011-101.324C51.3295-100.388 50.6926-98.0761 51.8276-96.1433L61.3857-79.5507C62.3431-77.9552 64.1578-77.3778 65.8934-78.0952ZM66.0831-12.4362C75.5849-12.4362 81.6027-17.3457 81.6027-26.1178C81.6027-33.2202 77.9375-36.381 71.7675-38.5283L67.6861-39.9539C64.6301-41.0474 61.977-42.3869 61.977-45.6502C61.977-47.9293 63.5702-49.6771 66.0707-49.6771C68.779-49.6771 70.1383-48.0796 70.9309-45.9176C71.8968-43.7098 73.3467-42.7936 75.7649-42.7936C78.9488-42.7936 80.4572-44.8132 80.4572-47.1002C80.4572-48.2264 80.1431-49.2398 79.8667-49.8796C77.623-55.7112 72.0443-58.1075 66.0343-58.1075C57.5039-58.1075 51.3241-53.2832 51.3241-44.8221C51.3241-38.1959 54.8299-34.3301 61.5189-32.0063L64.863-30.8352C68.7015-29.4705 70.929-28.258 70.929-25.0871C70.929-22.5424 68.9672-20.9459 66.1843-20.9459C63.6784-20.9459 61.9334-22.1006 61.0275-24.451C59.9669-26.7719 58.4001-27.7686 55.9796-27.7686C53.1085-27.7686 51.3041-25.7657 51.3041-23.2059C51.3041-22.0536 51.6973-20.6845 52.2878-19.5727C54.5849-14.7841 60.0254-12.4362 66.0831-12.4362ZM99.8746-14.2447C108.457-14.2447 115.303-18.5246 115.303-26.5855C115.303-33.2629 110.991-36.1515 104.955-38.5222L99.9314-40.4759C97.2982-41.5759 95.2024-42.6894 95.2024-45.0545C95.2024-47.5856 97.4782-48.676 100.025-48.676C102.597-48.676 104.224-47.4531 105.047-45.1345C105.853-43.1244 107.243-42.0469 109.532-42.0469C112.775-42.0469 114.128-44.199 114.128-46.1003C114.128-46.9778 113.933-47.6951 113.657-48.5113C111.956-53.904 106.135-56.3366 100.025-56.3366C92.3322-56.3366 85.2753-52.3492 85.2753-44.1679C85.2753-37.6018 89.1639-34.5119 95.3066-32.096L100.972-29.9086C103.549-28.8659 105.357-27.956 105.357-25.46C105.357-22.9705 102.833-21.947 99.9538-21.947C97.0173-21.947 95.4121-23.2209 94.593-25.6381C93.7701-27.6053 92.3946-28.7245 90.1488-28.7245C87.4345-28.7245 85.4501-27.1953 85.4501-24.4774C85.4501-23.7441 85.6461-22.9082 85.9225-22.1469C87.8562-16.5861 93.4817-14.2447 99.8746-14.2447ZM100.143-8.81049C100.832-8.81049 101.362-9.31906 101.362-10.0081L101.362-60.5857C101.362-61.2747 100.832-61.8041 100.143-61.8041C99.4752-61.8041 98.9458-61.2747 98.9458-60.5857L98.9458-10.0081C98.9458-9.31906 99.4752-8.81049 100.143-8.81049Z"/>
</svg>