<svg xmlns="http://www.w3.org/2000/svg" viewBox="16.084 -108.15 147.27 145.92">
  <path d="M82.5096-27.2089L108.632-27.2089L108.632-38.3729L82.5096-38.3729C79.3564-38.3729 76.799-35.8935 76.799-32.8207C76.799-29.6884 79.3564-27.2089 82.5096-27.2089ZM115.166-19.6723C122.355-19.6723 128.258-25.5758 128.258-32.8231C128.258-40.0121 122.355-45.9144 115.166-45.9144C107.977-45.9144 102.074-40.0121 102.074-32.8231C102.074-25.5758 107.977-19.6723 115.166-19.6723ZM115.166-28.6276C112.84-28.6276 111.029-30.4597 111.029-32.8452C111.029-35.171 112.84-36.9603 115.166-36.9603C117.471-36.9603 119.303-35.171 119.303-32.8452C119.303-30.4597 117.471-28.6276 115.166-28.6276ZM121.141-27.2089L131.256-27.2089C134.17-27.2089 136.708-29.6884 136.708-32.8207C136.708-35.8935 134.17-38.3729 131.256-38.3729L121.141-38.3729ZM82.2511 0.901989L92.3664 0.901989L92.3664-10.2828L82.2511-10.2828C79.3564-10.2828 76.799-7.80341 76.799-4.73063C76.799-1.59825 79.3564 0.901989 82.2511 0.901989ZM98.3412 8.41782C105.609 8.41782 111.513 2.51436 111.513-4.73303C111.513-11.9208 105.609-17.8243 98.3412-17.8243C91.173-17.8243 85.2695-11.9208 85.2695-4.73303C85.2695 2.51436 91.173 8.41782 98.3412 8.41782ZM98.3412-0.537499C96.035-0.537499 94.2041-2.34878 94.2041-4.73422C94.2041-7.06006 96.035-8.87015 98.3412-8.87015C100.725-8.87015 102.556-7.06006 102.556-4.73422C102.556-2.34878 100.725-0.537499 98.3412-0.537499ZM104.874 0.901989L130.998 0.901989C134.17 0.901989 136.708-1.59825 136.708-4.73063C136.708-7.80341 134.17-10.2828 130.998-10.2828L104.874-10.2828ZM39.8556 5.0591L59.6245 5.0591L59.6245-14.9219L42.5864-14.9219C38.2704-14.9219 36.065-16.8521 36.065-21.4849L36.065-81.6057C36.065-86.2385 38.2704-88.1687 42.5864-88.1687L102.79-88.1687C107.102-88.1687 109.312-86.2385 109.312-81.6057L109.312-68.1807L129.293-68.1807L129.293-84.4613C129.293-99.5606 120.664-108.15 105.521-108.15L39.8556-108.15C24.6915-108.15 16.084-99.563 16.084-84.4613L16.084-18.6293C16.084-3.52762 24.6915 5.0591 39.8556 5.0591ZM73.9196 37.7736L139.585 37.7736C154.728 37.7736 163.357 29.1845 163.357 14.0852L163.357-51.7469C163.357-66.8462 154.728-75.4353 139.585-75.4353L73.9196-75.4353C58.7555-75.4353 50.1479-66.8486 50.1479-51.7469L50.1479 14.0852C50.1479 29.1868 58.7555 37.7736 73.9196 37.7736ZM76.6503 17.7925C72.3344 17.7925 70.129 15.8624 70.129 11.2295L70.129-48.8913C70.129-53.5241 72.3344-55.4543 76.6503-55.4543L136.854-55.4543C141.166-55.4543 143.376-53.5241 143.376-48.8913L143.376 11.2295C143.376 15.8624 141.166 17.7925 136.854 17.7925Z"/>
</svg>