<svg xmlns="http://www.w3.org/2000/svg" viewBox="21.1496 -94.2841 164.05 118.19">
  <path d="M38.9978-4.32522L56.2356-4.32522C56.5525-4.32522 56.8634-4.2788 57.1911-3.95234L82.2987 18.4843C86.4594 22.1916 89.6585 23.902 93.9831 23.902C100.517 23.902 105.578 18.8949 105.578 12.3223L105.578-82.5991C105.578-89.151 100.517-94.2841 93.9415-94.2841C89.8505-94.2841 86.6607-92.6673 82.2987-88.7415L57.1911-66.4751C56.805-66.1486 56.5525-66.0462 56.2356-66.0462L38.9978-66.0462C27.3939-66.0462 21.1496-59.4635 21.1496-47.4022L21.1496-22.9448C21.1496-10.9043 27.4159-4.32522 38.9978-4.32522ZM42.1599-22.0278C40.9259-22.0278 40.1505-22.842 40.1505-24.0396L40.1505-46.3294C40.1505-47.5074 40.9259-48.3424 42.1599-48.3424L60.3159-48.3424C62.2599-48.3424 63.6426-48.7589 65.0914-50.1272L84.7533-68.171C85.0005-68.4159 85.3234-68.5231 85.6511-68.5231C86.1736-68.5231 86.5561-68.1418 86.5561-67.5377L86.5561-2.80805C86.5561-2.18192 86.1736-1.74223 85.6523-1.74223C85.3282-1.74223 85.0053-1.90307 84.7545-2.17232L65.0914-20.243C63.6438-21.5881 62.2599-22.0278 60.3159-22.0278ZM127.314-3.516C131.747-0.814626 137.131-1.87643 139.858-5.71014C145.676-13.8339 149.085-24.246 149.085-35.2697C149.085-46.2934 145.676-56.6847 139.858-64.8877C137.131-68.663 131.747-69.7248 127.314-67.0026C122.584-64.1375 121.405-58.4775 125.384-51.7366C128.263-47.1156 129.85-41.2884 129.85-35.2697C129.85-29.251 128.242-23.4446 125.384-18.8028C121.426-12.0411 122.584-6.40188 127.314-3.516ZM158.732 14.6842C163.286 17.252 168.824 16.1706 171.668 11.6932C180.354-1.63423 185.203-18.0101 185.203-35.2697C185.203-52.5293 180.375-68.9468 171.668-82.2326C168.824-86.71 163.286-87.7914 158.732-85.2236C153.537-82.3042 152.944-76.1029 156.357-70.4718C162.529-60.4363 166.027-48.156 166.027-35.2697C166.027-22.3834 162.487-10.124 156.357-0.0675977C152.965 5.56354 153.537 11.7648 158.732 14.6842Z" />
</svg>