<svg xmlns="http://www.w3.org/2000/svg" viewBox="7.66468 -99.9565 130.52 130.44">
  <path d="M38.9978-4.90929L56.1188-4.90929C56.4941-4.90929 56.805-4.86287 57.1535-4.59481L81.924 18.4843C86.0078 22.2696 89.2838 23.902 93.584 23.902C98.2806 23.902 102.157 21.4448 104.064 17.3658L25.8882-60.7508C22.8132-57.6177 21.1496-52.9146 21.1496-46.8181L21.1496-23.5289C21.1496-11.4884 27.4159-4.90929 38.9978-4.90929ZM105.182-23.4296L105.182-82.5991C105.182-89.151 100.163-94.2841 93.546-94.2841C89.4758-94.2841 86.2287-92.7257 81.924-88.7415L60.5983-68.9217C60.4863-68.8121 60.313-68.6888 60.1378-68.6304L59.8813-68.6304ZM128.027 28.2782C130.233 30.4256 133.851 30.484 135.977 28.2782C138.106 26.07 138.184 22.5334 135.977 20.3264L17.8431-97.7495C15.6385-99.9333 11.9995-99.9565 9.79247-97.7495C7.66468-95.6217 7.66468-91.9047 9.79247-89.7769Z"/>
</svg>