<svg xmlns="http://www.w3.org/2000/svg" viewBox="7.72308 -99.9565 130.52 130.44">
  <path d="M38.9978-4.32522L56.3149-4.32522C56.7277-4.32522 56.9802-4.2204 57.2703-3.95234L82.4156 18.4843C86.5982 22.1904 89.7754 23.902 94.1 23.902C98.7538 23.902 102.638 21.4043 104.346 17.7558L84.0379-2.52575L65.0457-20.3262C63.6606-21.6297 62.4224-22.0278 60.4576-22.0278L42.1807-22.0278C40.9259-22.0278 40.1713-22.842 40.1713-24.0396L40.1713-46.4203L25.5966-60.9354C22.744-58.0455 21.1496-53.4444 21.1496-47.4022L21.1496-22.9448C21.1496-10.9043 27.4159-4.32522 38.9978-4.32522ZM105.518-23.1535L105.577-82.5991C105.577-89.151 100.654-94.2841 94.0583-94.2841C89.9673-94.2841 86.6815-92.6673 82.2987-88.7415L59.9386-68.8705L72.1685-56.6783L84.7533-68.171C84.9993-68.4159 85.3222-68.5231 85.6511-68.5231C86.1944-68.5231 86.5769-68.1418 86.5769-67.5377L86.5769-42.2127ZM128.085 28.2782C130.291 30.4256 133.909 30.484 136.036 28.2782C138.165 26.07 138.243 22.5334 136.036 20.3264L17.9015-97.7495C15.6969-99.9333 12.0579-99.9565 9.85087-97.7495C7.72308-95.6217 7.72308-91.9047 9.85087-89.7769Z"/>
</svg>