<svg xmlns="http://www.w3.org/2000/svg" viewBox="16.084 -107.371 136.08 144.87">
  <path d="M94.6447-25.7834L126.891-7.71194C127.139-7.54751 127.227-7.4027 127.227-7.17389C127.227-6.92306 127.139-6.77825 126.891-6.63464L85.971 16.3066C85.2016 16.7128 84.7318 16.8956 84.122 16.8956C83.5121 16.8956 83.0435 16.7128 82.2741 16.3066L41.3542-6.63464C41.1058-6.77825 41.0182-6.92306 41.0182-7.17389C41.0182-7.4027 41.1058-7.54751 41.3542-7.71194L74.4117-26.2709L54.9679-37.2757L25.8059-20.4041C19.5647-16.7876 16.084-13.0079 16.084-7.17389C16.084-1.31783 19.5647 2.44099 25.8059 6.07835L73.6377 33.7116C77.8627 36.1518 80.9223 37.4989 84.122 37.4989C87.3228 37.4989 90.3824 36.1518 94.6074 33.7116L142.439 6.07835C148.68 2.44099 152.161-1.31783 152.161-7.17389C152.161-13.0079 148.68-16.7876 142.439-20.4041L113.87-36.8907ZM84.122-18.027C87.3228-18.027 90.3824-19.3729 94.6074-21.8131L142.439-49.4683C148.68-53.0849 152.161-56.8437 152.161-62.6986C152.161-68.5546 148.68-72.3122 142.439-75.9508L94.6074-103.584C90.3824-106.024 87.3228-107.371 84.122-107.371C80.9223-107.371 77.8627-106.024 73.6377-103.584L25.8059-75.9508C19.5647-72.3122 16.084-68.5546 16.084-62.6986C16.084-56.8437 19.5647-53.0849 25.8059-49.4683L73.6377-21.8131C77.8627-19.3729 80.9223-18.027 84.122-18.027ZM84.122-38.6303C83.5121-38.6303 83.0435-38.8339 82.2741-39.2401L41.3542-62.1605C41.1058-62.3041 41.0182-62.4697 41.0182-62.6986C41.0182-62.9482 41.1058-63.0942 41.3542-63.2378L82.2741-86.1582C83.0435-86.5644 83.5121-86.7681 84.122-86.7681C84.7318-86.7681 85.2016-86.5644 85.971-86.1582L126.891-63.2378C127.139-63.0942 127.227-62.9482 127.227-62.6986C127.227-62.4697 127.139-62.3041 126.891-62.1605L85.971-39.2401C85.2016-38.8339 84.7318-38.6303 84.122-38.6303Z"/>
</svg>