<svg xmlns="http://www.w3.org/2000/svg" viewBox="9.09343 -110.82 142.4 151.79">
  <path d="M57.4513-33.8478L17.6274-73.5925C15.6001-71.375 14.6741-69.0291 14.6741-66.1379C14.6741-60.3158 18.1441-56.563 24.3478-52.956ZM104.735-31.953L141.033-52.9172C147.274-56.5546 150.755-60.3134 150.755-66.1683C150.755-72.0035 147.274-75.7831 141.033-79.3997L93.2011-107.034C88.9761-109.494 85.9165-110.82 82.7157-110.82C79.5161-110.82 76.4565-109.494 72.2523-107.034L45.1905-91.4186ZM82.7157 10.3174C85.8332 10.3174 88.7471 8.94543 92.8472 6.50929L96.1171 4.56385L78.8873-13.3304L78.036-12.8619C77.717-12.731 77.4808-12.6233 77.1671-12.6233C76.7365-12.6233 76.1511-12.7894 75.2105-13.3292L20.6908-45.2078C17.0712-42.5973 14.6741-39.1221 14.6741-34.5435C14.6741-29.1205 17.9359-25.3873 23.3313-22.2347L72.605 6.50929C76.7063 8.88703 79.5994 10.3174 82.7157 10.3174ZM124.646-12.001L142.121-22.2347C147.538-25.4081 150.758-29.1205 150.758-34.5435C150.758-39.1221 148.381-42.5973 144.742-45.2078L111.138-25.5292ZM82.7157 40.9686C85.8332 40.9686 88.7471 39.5382 92.8472 37.1617L115.52 23.9244L101.97 10.4546L90.2429 17.3024C87.1788 19.0895 85.0153 20.1317 82.7157 20.1317C80.4161 20.1317 78.2538 19.0895 75.2105 17.3024L20.6908-14.5554C17.0712-11.9657 14.6741-8.47091 14.6741-3.8911C14.6741 1.53187 17.9359 5.26508 23.3313 8.39686L72.605 37.1617C76.7063 39.5382 79.5994 40.9686 82.7157 40.9686ZM143.833 7.18665L146.093 5.65175C148.802 3.22085 150.758 0.188516 150.758-3.8911C150.758-8.47091 148.381-11.9657 144.742-14.5554L130.425-6.16223ZM141.332 35.1616C143.458 37.2894 147.156 37.3686 149.282 35.1616C151.411 32.9534 151.489 29.396 149.282 27.211L19.2511-102.742C17.0673-104.947 13.4282-104.949 11.2212-102.742C9.09343-100.615 9.09343-96.9183 11.2212-94.7905Z"/>
</svg>