<svg xmlns="http://www.w3.org/2000/svg" viewBox="11.2588 -103.148 150.45 141.57">
  <path d="M79.1958 32.7257C93.8175 32.7257 107.314 28.0967 118.41 20.1738L118.41 6.81385C116.717 4.86652 115.198 2.70234 113.913 0.404569C109.828 4.55987 104.955 8.04381 99.4612 10.6364C96.9575 11.9228 95.0821 10.5467 95.0797 7.86828C95.0349-1.92941 99.2925-10.7721 106.195-16.7983C105.954-18.3032 105.782-19.8713 105.782-21.4238C105.782-39.8222 120.703-54.921 139.361-54.921C141.085-54.921 142.767-54.7241 144.362-54.3171C136.09-82.4518 109.915-103.148 79.175-103.148C41.8307-103.148 11.2588-72.5752 11.2588-35.2113C11.2588 2.15259 41.8515 32.7257 79.1958 32.7257ZM39.3509-65.0637C48.5705-77.5141 63.0811-84.9282 79.0373-84.9282C95.0144-84.9282 109.583-77.5141 118.882-65.143C121.238-61.882 120.233-58.672 116.687-58.672L41.4877-58.672C38.0209-58.672 36.9942-61.882 39.3509-65.0637ZM79.1154-21.1908C72.7063-21.1908 67.4713-26.3662 67.4713-32.8945C67.4713-39.2463 72.7063-44.4009 79.1154-44.4009C85.5268-44.4009 90.7619-39.2463 90.7619-32.8945C90.7619-26.3662 85.5268-21.1908 79.1154-21.1908ZM31.9459-20.8424C31.1616-23.9775 32.5138-25.314 35.3287-24.8762C51.2969-22.4203 63.259-8.51255 63.1743 7.86828C63.1719 10.5467 61.2964 11.9228 58.7928 10.6364C45.4504 4.3132 35.8769-7.00914 31.9459-20.8424ZM139.361-43.6551C126.922-43.6551 117.049-33.6623 117.049-21.4238C117.049-12.6108 121.938-4.82893 129.678-1.17288L129.678 27.981C129.678 29.3257 130.251 30.7076 131.28 31.6418L137.285 37.1175C138.628 38.2853 140.751 38.423 142.251 36.9423L152.183 27.0138C153.837 25.3811 153.603 22.9447 152.125 21.3484L147.911 16.9815L154.418 10.4248C155.933 8.85174 155.991 6.35329 154.375 4.61937L148.572-1.16197C156.941-5.64543 161.709-12.8952 161.709-21.4238C161.709-33.6611 151.775-43.6551 139.361-43.6551ZM139.34-35.0458C142.615-35.0458 145.307-32.3539 145.307-29.0382C145.307-25.8378 142.615-23.1059 139.34-23.1059C136.142-23.1059 133.428-25.8378 133.428-29.0382C133.428-32.3539 136.12-35.0458 139.34-35.0458Z"/>
</svg>