<svg xmlns="http://www.w3.org/2000/svg" viewBox="11.2588 -103.207 135.9 135.87">
  <path d="M79.1958 32.6673C116.722 32.6673 147.154 2.23586 147.154-35.2697C147.154-72.7753 116.722-103.207 79.1958-103.207C41.6902-103.207 11.2588-72.7753 11.2588-35.2697C11.2588 2.23586 41.6902 32.6673 79.1958 32.6673ZM45.1487-47.9752L54.691-64.5171C56.5598-67.7459 59.7678-69.5795 63.5143-69.5795L94.7736-69.5795C98.5214-69.5795 101.729-67.7459 103.598-64.5171L113.14-47.9752ZM55.099-33.0874C49.229-33.0874 44.4862-37.6513 44.4862-42.8816L44.4862-43.3951L113.803-43.3951L113.803-43.0898C113.803-37.8595 109.06-33.0874 103.189-33.0874C99.9514-33.0874 97.0855-34.4898 95.1806-36.6891C93.2577-34.4898 90.3722-33.0874 87.1334-33.0874C83.8946-33.0874 81.1663-34.4909 79.1446-36.7475C77.2021-34.4909 74.3946-33.0874 71.2142-33.0874C67.9742-33.0874 65.0511-34.4898 63.1086-36.7475C61.2036-34.4898 58.3365-33.0874 55.099-33.0874ZM57.3291-0.95989C52.107-0.95989 48.9683-4.05585 48.9683-8.92749L48.9683-29.8058C50.8552-28.9475 52.9435-28.4061 55.1329-28.4061C58.1621-28.4061 60.8492-29.3395 63.1437-30.8835C65.5111-29.3395 68.1994-28.4061 71.2482-28.4061C74.1021-28.4061 76.906-29.3395 79.1786-30.8847C81.4511-29.3395 84.255-28.4061 87.1465-28.4061C90.1577-28.4061 92.9408-29.3395 95.2146-30.8835C97.5068-29.3395 100.175-28.4061 103.203-28.4061C105.392-28.4061 107.501-28.9879 109.367-29.8682L109.367-8.92749C109.367-4.05705 106.229-0.95989 101.006-0.95989ZM68.1459-8.21589L90.0932-8.21589L90.0932-20.1907C90.0932-21.5595 89.1902-22.4845 87.8214-22.4845L70.5554-22.4845C69.071-22.4845 68.1459-21.5595 68.1459-20.1907Z"/>
</svg>