<svg xmlns="http://www.w3.org/2000/svg" viewBox="16.084 -103.991 161.48 137.44">
  <path d="M131.233-1.85473C131.233-20.9483 115.804-36.4202 96.8256-36.4202C77.8477-36.4202 62.4185-20.9483 62.4185-1.85473C62.4185 0.473171 62.693 2.7927 63.2932 4.93537L130.358 4.93537C130.958 2.7927 131.233 0.473171 131.233-1.85473ZM31.6731 0.49473L43.0666 0.553137C47.2705 0.553137 50.6346-2.77289 50.6138-6.77029C50.593-10.7885 47.2485-14.0353 43.0666-14.0353L31.6731-14.0353C27.53-14.0353 24.126-10.7885 24.126-6.77029C24.126-2.77289 27.5884 0.49473 31.6731 0.49473ZM53.686-34.5629C56.5984-31.6297 61.35-31.492 64.1607-34.3224C66.9714-37.1539 66.913-41.8847 63.9786-44.8179L55.8911-52.8469C52.9179-55.8201 48.2664-55.8565 45.4373-53.0458C42.6045-50.2363 42.6033-45.5055 45.5986-42.5336ZM129.49-34.3224C132.322-31.5129 137.053-31.6297 139.965-34.5629L148.053-42.5336C151.048-45.5055 151.026-50.2155 148.214-53.0458C145.404-55.8773 140.733-55.8201 137.76-52.8469L129.673-44.8179C126.738-41.8847 126.659-37.1331 129.49-34.3224ZM150.585 0.49473L161.978 0.49473C166.181 0.49473 169.525-2.77289 169.525-6.77029C169.525-10.7885 166.181-14.0353 161.978-14.0353L150.585-14.0353C146.462-14.0353 143.017-10.7885 143.037-6.77029C143.058-2.77289 146.521 0.49473 150.585 0.49473ZM25.0337 33.4506L168.618 33.4506C173.595 33.4506 177.567 29.134 177.567 24.3374C177.567 19.3458 173.653 15.2253 168.618 15.2253L25.0337 15.2253C20.0565 15.2253 16.084 19.4627 16.084 24.3374C16.084 29.0172 20.1149 33.4506 25.0337 33.4506ZM96.8256-95.7045L106.53-80.358L111.545-74.5593C113.048-72.7057 114.809-71.3311 117.388-71.3311C121.246-71.3311 124.113-74.2945 124.113-77.8994C124.113-80.2099 122.756-82.2023 120.917-83.9415L102.36-101.519C100.5-103.279 98.9377-103.991 96.8464-103.991C94.7552-103.991 93.1924-103.279 91.3331-101.519L72.7548-83.9415C70.9364-82.2023 69.5802-80.2099 69.5802-77.8994C69.5802-74.2945 72.4465-71.3311 76.3046-71.3311C78.8839-71.3311 80.6443-72.7057 82.1475-74.5593L87.3706-80.5453ZM102.495-92.2993C102.199-95.4125 99.9376-97.9687 96.8256-97.9687C93.7136-97.9687 91.4522-95.4125 91.1561-92.2993L89.6178-75.1444L89.5594-57.0115C89.5594-52.9296 92.8478-49.4827 96.8256-49.4827C100.803-49.4827 104.092-52.9296 104.092-57.0115L104.092-75.1444Z"/>
</svg>