<svg xmlns="http://www.w3.org/2000/svg" viewBox="16.084 -96.8595 123.2 123.22">
  <path d="M39.8556 26.3617L115.513 26.3617C130.677 26.3617 139.284 17.7518 139.284 2.65254L139.284-73.1503C139.284-88.2496 130.677-96.8595 115.513-96.8595L39.8556-96.8595C24.7123-96.8595 16.084-88.252 16.084-73.1503L16.084 2.65254C16.084 17.7542 24.7123 26.3617 39.8556 26.3617ZM42.5864 6.35991C38.2704 6.35991 36.065 4.42973 36.065-0.182275L36.065-70.3155C36.065-74.9483 38.2704-76.8577 42.5864-76.8577L112.782-76.8577C117.093-76.8577 119.303-74.9483 119.303-70.3155L119.303-0.182275C119.303 4.42973 117.093 6.35991 112.782 6.35991ZM64.5753-1.17246L90.9403-1.17246C93.2801-1.17246 95.1726-1.69776 96.5345-2.83123L96.8694-3.13925L88.7873-11.2213L88.6413-10.9167C88.5192-10.6121 88.1246-10.4372 87.7616-10.4372C86.2616-10.4372 85.2674-11.4559 85.2686-12.913L85.299-14.6888L80.2889-19.7197L80.2889-12.8546C80.2889-11.3987 79.3066-10.4384 77.809-10.4384C76.2334-10.4384 75.272-11.3987 75.272-12.8546L75.272-24.717L69.7854-30.2036L70.2714-12.913C70.3311-11.4559 69.298-10.4372 67.7784-10.4372C66.36-10.4372 65.3814-11.3963 65.3218-12.8522L64.6665-35.3434L54.2438-45.7285L55.9082-9.24429C56.1274-3.84144 59.1908-1.17246 64.5753-1.17246ZM101.682-6.15995C103.288-4.61159 105.906-4.57281 107.492-6.17958C109.12-7.78754 109.12-10.4041 107.492-12.0317L54.1741-65.3509C52.5673-66.9785 49.8703-66.9785 48.2843-65.3509C46.6567-63.743 46.6579-61.1264 48.2843-59.5208ZM100.469-26.9462L101.653-51.6598L104.9-51.6598C107.315-51.6598 109.061-53.3082 109.081-55.6651C109.102-58.0208 107.315-59.612 104.9-59.612L93.1441-59.612L93.1441-62.529C93.1441-68.2656 89.2999-71.7529 82.4411-71.7529L73.0316-71.7529C67.8666-71.7529 64.4157-69.6674 63.1892-66.0333C63.014-65.6073 62.8972-65.1997 62.7804-64.7737L62.605-64.7737L77.3225-50.055L77.3225-50.2012C77.4642-50.2572 77.6518-50.2655 77.809-50.2655C79.309-50.2655 80.2889-49.3661 80.2889-47.8881L80.2889-47.0886L86.0591-41.3767L86.1956-45.261C86.2552-46.7974 87.2946-47.7541 88.7142-47.7541C90.2934-47.7541 91.1756-46.7366 91.1744-45.1418L90.9308-36.5051ZM70.4364-59.612L70.4948-62.5965C70.5532-63.9612 71.6094-64.9346 73.0945-64.9346L82.4479-64.9346C83.9926-64.9346 85.0112-63.9612 85.0697-62.5965L85.1281-59.612Z"/>
</svg>