<svg xmlns="http://www.w3.org/2000/svg" viewBox="16.084 -94.2956 153.85 118.21">
  <path d="M39.8556 23.9194L146.167 23.9194C161.331 23.9194 169.939 15.3095 169.939 0.210196L169.939-36.8293C169.939-47.7267 168.906-52.393 163.713-58.3062L143.003-82.2302C135.325-91.0871 129.189-94.2956 120.209-94.2956L65.8141-94.2956C56.8546-94.2956 50.6394-91.0287 42.9033-82.1134L22.3309-58.3062C17.1378-52.393 16.084-47.7267 16.084-36.8293L16.084 0.210196C16.084 15.3119 24.7123 23.9194 39.8556 23.9194ZM38.8531-46.4806C36.8368-46.4806 36.4163-48.2371 37.4938-49.5767L58.7722-74.9469C60.7392-77.3678 62.9296-78.7801 66.1417-78.7801L119.881-78.7801C123.093-78.7801 125.304-77.3678 127.271-74.9469L148.551-49.5767C149.608-48.2371 149.187-46.4806 147.192-46.4806L108.929-46.4806C105.419-46.4806 104.075-44.6279 104.075-42.4748L104.075-42.3092C104.075-37.0955 100.151-31.1274 93.0212-31.1274C85.8925-31.1274 81.9483-37.0955 81.9483-42.3092L81.9483-42.4748C81.9483-44.6279 80.6242-46.4806 77.0937-46.4806ZM41.8855 3.91757C37.5696 3.91757 35.3641 1.98739 35.3641-2.62462L35.3641-29.6929L67.4088-29.6929C70.9259-20.0815 80.482-12.9171 93.0212-12.9171C105.562-12.9171 115.097-20.1047 118.614-29.6929L150.659-29.6929L150.659-2.62462C150.659 1.98739 148.448 3.91757 144.137 3.91757Z"/>
</svg>