<svg xmlns="http://www.w3.org/2000/svg" viewBox="11.2588 -103.207 135.9 135.87">
  <path d="M79.1958 32.6673C116.725 32.6673 147.154 2.25907 147.154-35.2697C147.154-72.7985 116.725-103.207 79.1958-103.207C41.6878-103.207 11.2588-72.7985 11.2588-35.2697C11.2588 2.25907 41.6878 32.6673 79.1958 32.6673ZM79.1958 12.5197C52.7846 12.5197 31.426-8.85853 31.426-35.2697C31.426-61.6809 52.7846-83.0592 79.1958-83.0592C105.607-83.0592 126.985-61.6809 126.985-35.2697C126.985-8.85853 105.607 12.5197 79.1958 12.5197ZM46.0413-28.7006C46.0413-22.2743 50.5644-17.6135 56.886-17.6135C58.6653-17.6135 60.5702-17.9816 62.5567-18.8786C64.2802-17.6812 67.5946-15.8235 71.9494-15.593C71.1596-19.2395 68.5972-24.5819 66.6652-28.2391C70.8164-28.4715 73.273-30.5689 74.3762-33.3964C75.7725-32.5958 77.3457-32.1045 79.175-32.1045C81.0251-32.1045 82.5983-32.5958 83.9946-33.3964C85.0977-30.5689 87.5544-28.4715 91.7055-28.2391C89.7735-24.5819 87.2112-19.2395 86.4201-15.593C90.7761-15.8235 94.0697-17.6812 95.7932-18.8786C97.8006-17.9816 99.7043-17.6135 101.485-17.6135C107.806-17.6135 112.329-22.2743 112.329-28.7006C112.329-31.6742 111.173-34.8074 108.691-37.619C110.587-40.0416 111.4-42.7495 111.4-45.271C111.4-51.3469 107.023-57.0892 101.249-58.2183C100.292-64.0958 93.7007-68.0052 87.5771-68.0052C84.4635-68.0052 81.494-67.0902 79.175-64.9988C76.8768-67.0902 73.9073-68.0052 70.7937-68.0052C64.6689-68.0052 58.0575-64.0958 57.1214-58.2183C51.3267-57.0892 46.9712-51.3469 46.9712-45.271C46.9712-42.7495 47.7842-40.0416 49.6587-37.619C47.198-34.8074 46.0413-31.6742 46.0413-28.7006ZM79.175-1.60533C81.7429-1.60533 83.5293-2.66158 83.5293-4.06078C83.5293-5.76802 83.104-10.5999 83.104-13.7017C83.104-18.846 88.4739-28.9133 90.4302-32.532L86.6488-34.766C84.7175-31.3513 83.4533-29.0912 81.4808-24.8774L81.4184-34.0616L76.8107-34.124L76.8315-24.8566C74.8799-29.0912 73.5324-31.4345 71.804-34.4758L68.2528-31.7213C69.8384-28.9133 75.2667-18.846 75.2667-13.7017C75.2667-10.5999 74.783-5.76802 74.783-4.06078C74.783-2.66158 76.5695-1.60533 79.175-1.60533Z" />
</svg>