<svg xmlns="http://www.w3.org/2000/svg" viewBox="11.2588 -103.207 135.9 135.87">
  <path d="M79.1958 32.6673C116.722 32.6673 147.154 2.23586 147.154-35.2697C147.154-72.7753 116.722-103.207 79.1958-103.207C41.6902-103.207 11.2588-72.7753 11.2588-35.2697C11.2588 2.23586 41.6902 32.6673 79.1958 32.6673ZM64.5152-1.05034C58.3841-1.05034 54.8925-4.42111 54.7537-10.5122L54.4684-35.6721L50.3486-34.8158C46.0429-33.9996 42.9919-35.7464 42.2317-39.6641L39.9575-50.2632C39.0973-54.2614 40.8841-57.5132 44.7029-59.0872L63.8435-67.068C65.6523-67.8634 67.1643-67.8622 68.7526-67.0668C72.8641-65.1976 75.3867-64.5198 79.1542-64.5198C82.9216-64.5198 85.4246-65.1976 89.5361-67.0668C91.1452-67.8622 92.6364-67.8634 94.4452-67.068L113.607-59.0872C117.405-57.5132 119.191-54.2614 118.352-50.2632L116.097-39.6641C115.316-35.7464 112.246-33.9996 107.94-34.8158L103.82-35.6721L103.477-10.5122C103.396-4.42111 99.9242-1.05034 93.7735-1.05034ZM79.1542-53.4367C82.8677-53.4367 86.1876-55.4781 87.3996-58.0961C84.8037-57.3207 82.1026-56.9914 79.1542-56.9914C76.1861-56.9914 73.4849-57.3207 70.8891-58.0961C72.1011-55.4573 75.4626-53.4367 79.1542-53.4367Z"/>
</svg>