<svg xmlns="http://www.w3.org/2000/svg" viewBox="16.084 -96.8595 123.2 123.22">
  <path d="M39.8556 26.3617L115.513 26.3617C130.677 26.3617 139.284 17.7518 139.284 2.65254L139.284-73.1503C139.284-88.2496 130.677-96.8595 115.513-96.8595L39.8556-96.8595C24.7123-96.8595 16.084-88.252 16.084-73.1503L16.084 2.65254C16.084 17.7542 24.7123 26.3617 39.8556 26.3617ZM78.2787-4.24793C61.8689-4.24793 50.5609-13.231 50.5609-26.5529L50.5609-55.5865C50.5609-62.4292 54.1113-66.2368 60.397-66.2368C66.6684-66.2368 70.2175-62.3708 70.2175-55.5865L70.2175-28.4409C70.2175-23.5908 73.4834-20.1873 78.2787-20.1873C83.0532-20.1873 86.319-23.5908 86.319-28.4409L86.319-55.5865C86.319-62.3708 89.8694-66.2368 96.0979-66.2368C102.426-66.2368 105.977-62.4292 105.977-55.5865L105.977-26.5529C105.977-13.231 94.6677-4.24793 78.2787-4.24793Z"/>
</svg>