<svg xmlns="http://www.w3.org/2000/svg" viewBox="16.084 -96.8011 151.52 123.22">
  <path d="M16.084-27.6251L16.084-40.0896L41.3705-40.0896L51.0573-63.7176C53.2366-69.0861 60.9989-69.0425 62.7409-63.7592L73.6204-30.7424L75.3489-35.3081C76.556-38.3244 78.5793-40.0896 81.8957-40.0896L96.9719-40.0896L106.66-63.7176C108.839-69.0861 116.601-69.0425 118.323-63.7592L129.201-30.7424L130.931-35.3081C132.157-38.3244 134.181-40.0896 137.498-40.0896L167.603-40.0896L167.603-27.6251L141.4-27.6251L135.048-7.29665C133.305-1.81379 124.891-1.79178 123.227-7.1758L112.171-43.32L107.444-32.2326C106.132-29.1519 104.134-27.6251 100.876-27.6251L85.7986-27.6251L79.4458-7.29665C77.7234-1.81379 69.2886-1.79178 67.6455-7.1758L56.5698-43.1447L52.2371-32.2326C50.9836-29.0935 48.8703-27.6251 45.274-27.6251ZM39.8556 26.4201L143.831 26.4201C158.995 26.4201 167.603 17.8102 167.603 2.71095L167.603-73.0919C167.603-88.1912 158.995-96.8011 143.831-96.8011L39.8556-96.8011C24.7123-96.8011 16.084-88.1936 16.084-73.0919L16.084 2.71095C16.084 17.8126 24.7123 26.4201 39.8556 26.4201Z"/>
</svg>