<svg xmlns="http://www.w3.org/2000/svg" viewBox="16.084 -105.359 113.59 140.18">
  <path d="M72.9324 8.37258C104.316 8.37258 129.678-17.1055 129.678-48.455C129.678-79.9189 104.316-105.359 72.9324-105.359C41.4673-105.359 16.084-79.9189 16.084-48.455C16.084-17.1055 41.4673 8.37258 72.9324 8.37258ZM72.9324-16.8923C55.2471-16.8923 41.3124-30.8478 41.3124-48.5134C41.3124-66.1975 55.2471-80.0738 72.9324-80.0738C90.5956-80.0738 104.471-66.1975 104.471-48.5134C104.471-30.8478 90.5956-16.8923 72.9324-16.8923ZM72.9324-36.6948C79.4963-36.6948 84.6473-41.9471 84.6473-48.5134C84.6473-55.0785 79.4963-60.2712 72.9324-60.2712C66.3453-60.2712 61.115-55.0785 61.115-48.5134C61.115-41.9471 66.3453-36.6948 72.9324-36.6948ZM64.3436 26.2897L81.4615 26.2897L81.4615-1.95789L64.3436-1.95789ZM48.0148 34.82L97.7099 34.82C102.409 34.82 106.299 30.9695 106.299 26.2897C106.299 21.5902 102.409 17.7605 97.7099 17.7605L48.016 17.7605C43.3374 17.7605 39.4857 21.5902 39.4857 26.2897C39.4857 30.9695 43.3362 34.82 48.0148 34.82Z"/>
</svg>