<svg xmlns="http://www.w3.org/2000/svg" viewBox="6.83594 -73.9316 77.39 77.36">
  <path d="M45.5137 3.42383C66.8521 3.42383 84.2251-13.9492 84.2251-35.2539C84.2251-56.5586 66.8521-73.9316 45.5137-73.9316C24.209-73.9316 6.83594-56.5586 6.83594-35.2539C6.83594-13.9492 24.209 3.42383 45.5137 3.42383ZM37.9263-18.9619C36.4829-18.9619 35.3208-20.1392 35.3208-21.5674L35.3208-46.1045L31.4858-43.0439C31.1221-42.729 30.7397-42.564 30.2109-42.564C29.1348-42.564 28.355-43.374 28.355-44.4687C28.355-45.3984 28.8384-46.0806 29.4531-46.5454L33.9936-50.1245C34.8374-50.7847 36.0332-51.5981 37.5591-51.5981C39.3731-51.5981 40.5166-50.522 40.5166-48.708L40.5166-21.5674C40.5166-20.1392 39.3394-18.9619 37.9263-18.9619ZM55.4824-18.9619C54.0391-18.9619 52.877-20.1392 52.877-21.5674L52.877-46.1045L49.0083-43.0439C48.6782-42.729 48.2959-42.564 47.7671-42.564C46.6572-42.564 45.9111-43.374 45.9111-44.4687C45.9111-45.3984 46.3945-46.0806 47.0093-46.5454L51.5498-50.1245C52.3936-50.7847 53.5894-51.5981 55.0816-51.5981C56.8955-51.5981 58.0391-50.522 58.0391-48.708L58.0391-21.5674C58.0391-20.1392 56.8955-18.9619 55.4824-18.9619Z"/>
</svg>