<svg xmlns="http://www.w3.org/2000/svg" viewBox="9.76562 -70.1499 69.83 69.86">
  <path d="M21.3994-0.290522L67.9575-0.290522C75.7017-0.290522 79.5913-4.21045 79.5913-11.8232L79.5913-58.6172C79.5913-66.23 75.7017-70.1499 67.9575-70.1499L21.3994-70.1499C13.689-70.1499 9.76562-66.2603 9.76562-58.6172L9.76562-11.8232C9.76562-4.18017 13.689-0.290522 21.3994-0.290522ZM34.6094-18.9619C33.1323-18.9619 31.9702-20.1392 31.9702-21.5337L31.9702-46.1045L28.1353-43.0102C27.7715-42.729 27.4229-42.564 26.8604-42.564C25.7505-42.564 25.0044-43.374 25.0044-44.4687C25.0044-45.3984 25.5215-46.0806 26.1362-46.5454L30.6768-50.0908C31.5205-50.7847 32.7163-51.5981 34.1748-51.5981C36.0225-51.5981 37.166-50.522 37.166-48.708L37.166-21.5337C37.166-20.1392 35.9888-18.9619 34.6094-18.9619ZM45.5635-19.3711C43.9517-19.3711 43.1416-20.252 43.1416-21.4595C43.1416-22.5425 43.7632-23.4233 44.4605-24.252L51.5869-33.5835C53.7402-36.4067 55.7124-39.4731 55.7124-42.5747C55.7124-45.415 54.3672-47.7666 51.7984-47.7666C49.3692-47.7666 48.2783-45.8896 47.5879-43.0884C47.2359-41.9263 46.5083-41.3486 45.3462-41.3486C43.9736-41.3486 43.1904-42.3389 43.1904-43.6206C43.1904-47.7222 46.8496-51.8911 51.8169-51.8911C57.126-51.8911 60.5781-48.0337 60.5781-42.8071C60.5781-39.3638 59.3169-36.5132 55.5264-31.7529L49.4927-23.8779L49.4927-23.563L59.1397-23.563C60.3657-23.563 61.2095-22.8203 61.2095-21.4746C61.2095-20.2148 60.3994-19.3711 59.1397-19.3711Z"/>
</svg>