<svg xmlns="http://www.w3.org/2000/svg" viewBox="9.76562 -70.1499 69.83 69.86">
  <path d="M21.3994-0.290522L67.9575-0.290522C75.7017-0.290522 79.5913-4.21045 79.5913-11.8232L79.5913-58.6172C79.5913-66.23 75.7017-70.1499 67.9575-70.1499L21.3994-70.1499C13.689-70.1499 9.76562-66.2603 9.76562-58.6172L9.76562-11.8232C9.76562-4.18017 13.689-0.290522 21.3994-0.290522ZM27.1807-19.3711C25.5688-19.3711 24.7588-20.252 24.7588-21.4595C24.7588-22.5425 25.3804-23.4233 26.0439-24.252L33.1704-33.5835C35.3574-36.4067 37.3296-39.4731 37.3296-42.541C37.3296-45.415 35.9844-47.7666 33.3818-47.7666C30.9863-47.7666 29.8955-45.8896 29.2051-43.0884C28.853-41.9263 28.0918-41.3486 26.9634-41.3486C25.5908-41.3486 24.8076-42.3389 24.8076-43.5869C24.8076-47.7222 28.4668-51.8911 33.4004-51.8911C38.7432-51.8911 42.1953-48.0337 42.1953-42.8071C42.1953-39.3638 40.9341-36.5132 37.1436-31.7192L31.0762-23.8779L31.0762-23.563L40.7231-23.563C41.9829-23.563 42.793-22.7866 42.793-21.4746C42.793-20.2148 42.0166-19.3711 40.7231-19.3711ZM49.2993-19.3711C47.7026-19.3711 46.9111-20.252 46.9111-21.4595C46.9111-22.5425 47.5479-23.4233 48.1963-24.252L55.3228-33.5835C57.4912-36.4067 59.4634-39.4731 59.4634-42.541C59.4634-45.415 58.1182-47.7666 55.5342-47.7666C53.1201-47.7666 52.0479-45.8896 51.3574-43.0884C51.0205-41.9263 50.293-41.3486 49.1157-41.3486C47.7246-41.3486 46.96-42.3389 46.96-43.5869C46.96-47.7222 50.6191-51.8911 55.5527-51.8911C60.877-51.8911 64.314-48.0337 64.314-42.8071C64.314-39.3638 63.0527-36.5132 59.311-31.7192L53.2437-23.8779L53.2437-23.563L62.9243-23.563C64.1016-23.563 64.9453-22.7866 64.9453-21.4746C64.9453-20.2148 64.1353-19.3711 62.9243-19.3711Z"/>
</svg>