<svg xmlns="http://www.w3.org/2000/svg" viewBox="9.76562 -70.1499 69.83 69.86">
  <path d="M21.3994-0.290522L67.9575-0.290522C75.7017-0.290522 79.5913-4.21045 79.5913-11.8232L79.5913-58.6172C79.5913-66.23 75.7017-70.1499 67.9575-70.1499L21.3994-70.1499C13.689-70.1499 9.76562-66.2603 9.76562-58.6172L9.76562-11.8232C9.76562-4.18017 13.689-0.290522 21.3994-0.290522ZM21.4971-5.75098C17.4214-5.75098 15.1924-7.9126 15.1924-12.0894L15.1924-58.3511C15.1924-62.5615 17.4214-64.6894 21.4971-64.6894L67.8599-64.6894C71.875-64.6894 74.1645-62.5615 74.1645-58.3511L74.1645-12.0894C74.1645-7.9126 71.875-5.75098 67.8599-5.75098ZM36.1719-19.2988C37.4502-19.2988 38.5112-20.1543 38.5112-21.7695L38.5112-26.082L40.0547-26.082C41.397-26.082 42.0571-26.9292 42.0571-28.103C42.0571-29.228 41.4341-30.1089 40.0547-30.1089L38.5112-30.1089L38.5112-47.4751C38.5112-49.9355 36.9097-51.187 34.6948-51.187C32.2729-51.187 31.1294-49.9307 30.1694-47.7935L22.8296-32.2241C22.2671-30.8818 22.0532-30.0044 22.0532-28.9282C22.0532-27.2407 23.2119-26.082 24.9297-26.082L33.7686-26.082L33.7686-21.7695C33.7686-19.9893 35.0503-19.2988 36.1719-19.2988ZM33.8696-30.0078L26.3091-30.0078L26.3091-30.2402L33.7231-46.7344L33.8696-46.7344ZM55.7227-19.021C63.229-19.021 65.3677-27.7827 65.3677-35.2539C65.3677-42.7251 63.229-51.4868 55.7227-51.4868C48.2315-51.4868 46.0776-42.7251 46.0776-35.2539C46.0776-27.7827 48.2315-19.021 55.7227-19.021ZM55.7227-23.1455C52.2197-23.1455 51.0713-28.8535 51.0713-35.2539C51.0713-41.6543 52.2197-47.3623 55.7227-47.3623C59.2256-47.3623 60.3403-41.6543 60.3403-35.2539C60.3403-28.8535 59.2256-23.1455 55.7227-23.1455Z" />
</svg>