<svg xmlns="http://www.w3.org/2000/svg" viewBox="6.83594 -73.9316 77.39 77.36">
  <path d="M45.5137 3.42383C66.8823 3.42383 84.2251-13.8853 84.2251-35.2539C84.2251-56.6226 66.8823-73.9316 45.5137-73.9316C24.1787-73.9316 6.83594-56.6226 6.83594-35.2539C6.83594-13.8853 24.1787 3.42383 45.5137 3.42383ZM45.5137-2.27247C27.2778-2.27247 12.5508-17.0181 12.5508-35.2539C12.5508-53.4897 27.2778-68.2353 45.5137-68.2353C63.7495-68.2353 78.4951-53.4897 78.4951-35.2539C78.4951-17.0181 63.7495-2.27247 45.5137-2.27247ZM38.7686-19.2988C40.062-19.2988 41.1079-20.1543 41.1079-21.7695L41.1079-26.082L42.6665-26.082C43.9937-26.082 44.6538-26.9292 44.6538-28.103C44.6538-29.228 44.0308-30.1089 42.6665-30.1089L41.1079-30.1089L41.1079-47.4751C41.1079-49.9355 39.5215-51.187 37.3066-51.187C34.8848-51.187 33.7412-49.9307 32.7661-47.7935L25.4414-32.2241C24.8789-30.8818 24.665-30.0044 24.665-28.9282C24.665-27.2407 25.8086-26.082 27.5415-26.082L36.3804-26.082L36.3804-21.7695C36.3804-19.9893 37.6133-19.2988 38.7686-19.2988ZM36.4814-30.0078L28.9058-30.0078L28.9058-30.2402L36.335-46.7344L36.4814-46.7344ZM52.9551-19.2837C54.2149-19.2837 54.8111-19.8276 55.2573-21.0689L64.2495-45.104C64.6318-46.1348 64.898-47.0088 64.898-48.0361C64.898-49.6411 63.687-50.6987 62.104-50.6987L49.6631-50.6987C48.4707-50.6987 47.6758-49.855 47.6758-48.6777C47.6758-47.4853 48.4707-46.6079 49.6631-46.6079L59.8706-46.6079L59.8706-46.3115L51.1143-23.4873C50.7993-22.6924 50.668-22.2495 50.668-21.4209C50.668-20.397 51.3433-19.2837 52.9551-19.2837Z" />
</svg>