<svg xmlns="http://www.w3.org/2000/svg" viewBox="6.83594 -73.9316 77.39 77.36">
  <path d="M45.5137 3.42383C66.8521 3.42383 84.2251-13.9492 84.2251-35.2539C84.2251-56.5586 66.8521-73.9316 45.5137-73.9316C24.209-73.9316 6.83594-56.5586 6.83594-35.2539C6.83594-13.9492 24.209 3.42383 45.5137 3.42383ZM38.1436-18.8945C36.9883-18.8945 35.6392-19.6187 35.6392-21.4663L35.6392-25.8125L26.6133-25.8125C24.813-25.8125 23.6357-27.02 23.6357-28.7598C23.6357-29.8696 23.8496-30.7808 24.4307-32.1567L31.9053-48.0967C32.9326-50.3013 34.1435-51.5913 36.5991-51.5913C38.915-51.5913 40.5503-50.291 40.5503-47.7783L40.5503-29.9893L42.1274-29.9893C43.5742-29.9893 44.1973-29.0933 44.1973-27.9346C44.1973-26.7422 43.5034-25.8125 42.1274-25.8125L40.5503-25.8125L40.5503-21.4663C40.5503-19.75 39.4556-18.8945 38.1436-18.8945ZM35.7402-29.8882L35.7402-47.0039L35.5937-47.0039L28.0449-30.1055L28.0449-29.8882ZM51.6162-19.3711C50.0381-19.3711 49.1084-20.3984 49.1084-22.0439L49.1084-48.8545C49.1084-50.5186 50.0347-51.5796 51.665-51.5796C53.4639-51.5796 54.2891-50.3838 54.2891-48.8545L54.2891-23.7466L62.9458-23.7466C64.2241-23.7466 65.2178-22.9214 65.2178-21.5908C65.2178-20.1626 64.2241-19.3711 62.9458-19.3711Z"/>
</svg>