<svg xmlns="http://www.w3.org/2000/svg" viewBox="6.83594 -82.0205 77.39 85.44">
  <path d="M52.7222-78.8442C52.7222-81.3301 51.0161-82.0205 49.0693-80.6177L37.0488-72.1348C35.3984-70.9946 35.4321-69.3408 37.0488-68.2007L49.103-59.7515C51.0161-58.3823 52.7222-59.0727 52.7222-61.5249ZM45.5137 3.42383C66.8823 3.42383 84.2251-13.8853 84.2251-35.2539C84.2251-56.6226 66.916-73.898 45.4648-73.9316C43.9019-73.898 42.6504-72.6348 42.6504-71.0835C42.6504-69.5322 43.9355-68.2353 45.4985-68.2353C63.7495-68.2353 78.4951-53.4897 78.4951-35.2539C78.4951-17.0181 63.7495-2.27247 45.5137-2.27247C27.2778-2.27247 12.5508-17.0181 12.5508-35.2539C12.5508-46.5205 18.1973-56.4116 26.7832-62.2978C28.1323-63.332 28.582-64.9136 27.7314-66.3115C26.9297-67.6792 24.9961-68.0615 23.4819-66.96C13.4121-59.9722 6.83594-48.4692 6.83594-35.2539C6.83594-13.8853 24.1787 3.42383 45.5137 3.42383ZM33.9683-19.3374C39.6323-19.3374 43.5186-23.6543 43.5186-29.5796C43.5186-34.9658 40.3584-39.1094 35.3394-39.1094C31.8037-39.1094 29.2398-36.9746 28.312-33.8701L28.1773-33.8701C28.1773-36.7236 28.3843-38.7725 28.8506-40.5015C29.5542-43.3398 31.0625-45.9477 34.0137-45.9477C36.0825-45.9477 37.5049-44.8301 38.3804-42.9565C38.894-42.0674 39.5088-41.4141 40.5967-41.4141C41.9761-41.4141 42.5689-42.396 42.5689-43.3862C42.5689-44.0615 42.4375-44.7183 42.126-45.2739C40.9053-48.0366 37.728-49.8247 34.0811-49.8247C27.2793-49.8247 24.582-43.6489 24.0791-37.1738C23.5576-33.8506 23.7817-29.9521 24.6421-27.124C26.0532-22.6455 29.1597-19.3374 33.9683-19.3374ZM33.9346-23.2598C30.7681-23.2598 28.9131-26.3877 28.9131-29.5879C28.9131-32.7798 30.9263-35.4717 33.9194-35.4717C37.1045-35.4717 38.8921-32.6787 38.8921-29.4111C38.8921-26.1841 37.0068-23.2598 33.9346-23.2598ZM58.0156-19.3862C65.5269-19.3862 68.061-27.2305 68.061-34.6543C68.061-42.1201 65.4815-49.8735 58.0156-49.8735C50.523-49.8735 47.9399-42.0444 47.9399-34.6543C47.9399-27.1211 50.5835-19.3862 58.0156-19.3862ZM58.0156-23.3272C54.4102-23.3272 52.7686-28.4883 52.7686-34.6543C52.7686-40.7983 54.4102-45.9292 58.0156-45.9292C61.6396-45.9292 63.2661-40.7681 63.2661-34.6543C63.2661-28.4883 61.6548-23.3272 58.0156-23.3272Z" />
</svg>