<svg xmlns="http://www.w3.org/2000/svg" viewBox="9.76562 -70.3242 78.24 70.19">
  <path d="M12.917-0.134766L31.4966-0.134766C34.6455-0.134766 37.2842-1.88428 38.5303-4.7251L64.1704-62.375C64.7563-63.6597 65.8052-64.2724 67.3643-64.2724L84.8652-64.2724C86.6001-64.2724 88.0015-65.6401 88.0015-67.3076C88.0015-68.9902 86.6001-70.3242 84.8652-70.3242L65.9307-70.3242C62.5527-70.3242 60.293-68.8862 58.9761-65.855L33.2534-8.17482C32.6675-6.87501 31.5581-6.18654 30.1641-6.18654L12.917-6.18654C11.1333-6.18654 9.76562-4.85255 9.76562-3.15138C9.76562-1.43506 11.1333-0.134766 12.917-0.134766ZM59.1704-0.134766L84.8652-0.134766C86.6338-0.134766 87.9678-1.40137 87.9678-3.11768C87.9678-4.81886 86.6338-6.11916 84.8652-6.11916L59.1704-6.11916C57.4019-6.11916 56.0527-4.81886 56.0527-3.11768C56.0527-1.40137 57.4019-0.134766 59.1704-0.134766Z" />
</svg>