<svg xmlns="http://www.w3.org/2000/svg" viewBox="6.83594 -73.9316 77.39 77.36">
  <path d="M45.5137 3.42383C66.8823 3.42383 84.2251-13.8853 84.2251-35.2539C84.2251-56.6226 66.8823-73.9316 45.5137-73.9316C24.1787-73.9316 6.83594-56.6226 6.83594-35.2539C6.83594-13.8853 24.1787 3.42383 45.5137 3.42383ZM45.5137-2.27247C27.2778-2.27247 12.5508-17.0181 12.5508-35.2539C12.5508-53.4897 27.2778-68.2353 45.5137-68.2353C63.7495-68.2353 78.4951-53.4897 78.4951-35.2539C78.4951-17.0181 63.7495-2.27247 45.5137-2.27247ZM38.4678-46.0654C33.8003-46.0654 30.0488-42.2803 30.0488-37.6313C30.0488-32.9487 33.8003-29.1973 38.4678-29.1973L44.8018-29.1973C53.2412-29.1973 58.4502-27.0425 61.9492-20.2437C62.5757-19.0278 63.4229-18.7871 64.2749-18.7871C65.2954-18.7871 66.252-19.6763 66.252-21.2964C66.252-37.0229 59.2959-46.0654 44.8018-46.0654ZM44.1318-21.0269L44.1318-54.229C44.1318-55.4819 43.2358-56.5361 41.8853-56.5361C40.9473-56.5361 40.3091-56.0933 39.3608-55.2124L22.8877-39.874C22.0527-39.103 21.8052-38.3486 21.8052-37.6616C21.8052-36.9746 22.0679-36.2202 22.8877-35.4492L39.3608-20.0249C40.208-19.23 40.981-18.7871 41.919-18.7871C43.2358-18.7871 44.1318-19.7402 44.1318-21.0269Z" />
</svg>