<svg xmlns="http://www.w3.org/2000/svg" viewBox="9.76562 -64.979 71.69 59.37">
  <path d="M75.2627-36.1968L60.4311-22.5141L50.4805-12.4287C49.9785-11.9116 49.6636-11.1133 49.6636-10.3149C49.6636-8.64746 50.9639-7.41455 52.6128-7.41455C53.4111-7.41455 54.1606-7.71435 54.8125-8.33252L80.3862-33.8994C81.0835-34.5967 81.4507-35.3647 81.4507-36.1968C81.4507-37.0288 81.0835-37.7969 80.3862-38.4941L54.9639-63.9248C54.1758-64.6641 53.4111-64.979 52.6128-64.979C50.9639-64.979 49.6636-63.7798 49.6636-62.0786C49.6636-61.2803 49.9634-60.4971 50.4805-59.9648L60.4311-49.9131ZM75.229-33.7344C76.6269-33.8018 77.7251-34.8477 77.7251-36.1968C77.7251-37.5796 76.5933-38.6592 75.1953-38.6929L63.4785-39.1982L34.9434-39.2134C17.1841-39.2134 9.76562-31.4761 9.76562-13.375C9.76562-11.144 9.83301-9.22802 10.0654-8.13671C10.3315-6.77587 11.1333-5.61034 12.9473-5.61034C14.6973-5.61034 15.9151-6.84325 15.9151-8.60839C15.8814-9.70654 15.8511-11.1982 15.8174-13.0601C15.8174-27.3613 21.085-33.1802 35.2129-33.1802L63.4785-33.1953Z" />
</svg>