<svg xmlns="http://www.w3.org/2000/svg" viewBox="9.76221 -77.8789 84.67 85.27">
  <path d="M90.8452-31.1235L83.0151-39.875L46.2105-76.6797C45.0078-77.8486 43.209-77.8789 41.9609-76.6797C40.7432-75.4131 40.7583-73.6143 41.9609-72.4453L78.7808-35.5918L87.5659-27.814C88.7012-26.8472 90.0469-27.0156 90.8452-27.814C91.6587-28.6426 91.8609-29.9883 90.8452-31.1235ZM63.4932-30.4448C62.6494-30.4448 61.9522-30.1636 61.3525-29.5791C60.1348-28.3125 60.1348-26.6147 61.3525-25.3296C61.915-24.8008 62.7993-24.4487 63.6279-24.4487L91.231-24.2246C93.0332-24.1909 94.4312-25.5249 94.3975-27.3911L94.1582-54.9941C94.1582-55.8564 93.855-56.7407 93.2774-57.2695C92.0073-58.521 90.3096-58.521 89.0767-57.2695C88.4585-56.6699 88.2109-55.9727 88.2109-55.1626L88.3457-43.1841L89.2891-29.3179L75.4229-30.2764ZM16.6611-42.709C15.5933-43.7095 14.2139-43.541 13.4155-42.709C12.6357-41.9141 12.4336-40.5684 13.4155-39.4331L21.1782-30.6479L58.0166 6.19044C59.1856 7.35939 60.9844 7.38966 62.2661 6.19044C63.4839 4.92383 63.4688 3.125 62.2661 1.92236L25.4463-34.9126ZM16.0161-15.3267L15.8477-27.3052L14.938-41.1714L28.7705-40.2129L40.7002-40.0444C41.5776-40.0444 42.2412-40.3257 42.8408-40.9101C44.0923-42.1768 44.0923-43.8745 42.8408-45.1748C42.312-45.6885 41.4429-46.0405 40.5654-46.0405L12.9624-46.2647C11.0962-46.2983 9.76221-44.9307 9.7959-43.0981L10.0352-15.4951C10.0352-14.6328 10.3721-13.7822 10.9497-13.2197C12.186-11.9683 13.8838-11.9683 15.1504-13.2197C15.7349-13.8193 16.0161-14.5166 16.0161-15.3267Z" />
</svg>