<svg xmlns="http://www.w3.org/2000/svg" viewBox="9.76562 -72.9868 74.67 76.11">
  <path d="M78.0864-39.1982C79.8852-39.1982 81.2344-40.4834 81.2344-42.2822C81.2192-44.0962 79.855-45.314 78.0864-45.314L73.2598-45.314L60.106-44.6201L71.3735-55.4346L83.5225-67.5498C84.1069-68.168 84.4404-68.9849 84.4404-69.8691C84.4404-71.769 83.0205-72.9868 81.1543-72.9868C80.3374-72.9868 79.5693-72.7207 79.0034-72.1025L66.915-59.9502L56.0552-48.6675L56.7861-61.8062L56.7861-66.5991C56.7861-68.3979 55.501-69.7471 53.7207-69.7471C51.9219-69.7471 50.6518-68.3491 50.6518-66.5991L50.6518-44.5982C50.6518-41.1958 52.6494-39.1982 56.0518-39.1982ZM40.8823 0.157711C42.6963 0.157711 43.9663-1.24024 43.9663-2.99025L43.9663-25.6641C43.9663-29.0815 42.0024-31.0791 38.5513-31.0791L15.8438-31.0791C14.0449-31.0791 12.6621-29.8125 12.6621-28.0137C12.7109-26.2148 14.0752-24.9634 15.8438-24.9634L21.3584-24.9634L34.5122-25.6758L23.2446-14.8765L10.6987-2.31544C10.0991-1.69728 9.76562-0.880381 9.76562-0.0112385C9.76562 1.90381 11.1519 3.12158 13.0518 3.12158C13.8687 3.12158 14.6182 2.82178 15.2178 2.22217L27.7031-10.3608L38.5478-21.6098L37.832-8.50486L37.832-2.99025C37.832-1.19141 39.1172 0.157711 40.8823 0.157711Z"/>
</svg>