<svg xmlns="http://www.w3.org/2000/svg" viewBox="9.07519 -76.5034 69.09 81.67">
  <path d="M13.0713-51.1948L16.1772-50.0518C19.0181-49.0347 21.5728-50.2876 22.6572-53.2261L27.9292-67.7656C29.0288-70.7192 27.8247-73.2925 25.0327-74.3433L21.9268-75.4526C19.0859-76.5034 16.5464-75.2354 15.4619-72.2969L10.1748-57.7725C9.07519-54.8188 10.2456-52.2456 13.0713-51.1948ZM62.2056-51.1948L65.3115-50.0518C68.1524-49.0347 70.7071-50.2876 71.7915-53.2261L77.0635-67.7656C78.1631-70.7192 76.959-73.2925 74.167-74.3433L71.0611-75.4526C68.2354-76.5034 65.6958-75.2354 64.6114-72.2969L59.3242-57.7422C58.2398-54.8188 59.4287-52.2305 62.2056-51.1948ZM17.4107 5.16896L20.6934 5.16896C23.7144 5.16896 25.6611 3.07569 25.6611-0.0278264L25.6611-15.4985C25.6611-18.5835 23.7144-20.6616 20.6934-20.6616L17.4107-20.6616C14.3897-20.6616 12.4429-18.5835 12.4429-15.4985L12.4429-0.0278264C12.4429 3.07569 14.3897 5.16896 17.4107 5.16896ZM66.545 5.16896L69.8277 5.16896C72.8487 5.16896 74.7954 3.07569 74.7954-0.0278264L74.7954-15.4985C74.7954-18.5835 72.8487-20.6616 69.8277-20.6616L66.545-20.6616C63.5391-20.6616 61.5923-18.5835 61.5923-15.4985L61.5923-0.0278264C61.5923 3.07569 63.5391 5.16896 66.545 5.16896ZM23.042-60.0464L32.9253-60.0464C33.1426-60.3496 33.375-60.6831 33.626-60.9341L35.5713-62.8457L33.9326-64.5518C33.648-64.8027 33.4121-65.1397 33.2285-65.4917L23.042-65.4917ZM64.272-60.0464L64.272-65.4917L54.1968-65.4917C53.9795-65.1733 53.7622-64.855 53.4776-64.604L51.5171-62.6772L53.1407-61.0015C53.459-60.6831 53.7251-60.3833 53.9087-60.0464ZM40.9058-5.0161L46.3325-5.0161L46.3325-52.3725C45.9654-52.605 45.647-52.8223 45.2798-53.1558L43.6528-54.7978L41.7564-52.8188C41.4902-52.5527 41.2056-52.3354 40.9058-52.1367ZM23.042-5.0161L64.272-5.0161L64.272-10.4614L23.042-10.4614ZM35.5313-54.7393C36.3262-53.9443 37.6348-53.791 38.4668-54.6719L43.6528-59.8091L48.4448-55.0508C49.2246-54.2895 50.4693-54.3081 51.2456-55.0508C52.0406-55.8271 52.0406-57.1206 51.2456-57.9004L46.4722-62.6772L51.6582-67.8145C52.5205-68.6616 52.3521-69.9551 51.5572-70.75C50.7471-71.5786 49.4688-71.7134 48.6065-70.8511L43.4507-65.7139L38.6284-70.4873C37.8638-71.2334 36.6192-71.2149 35.8428-70.4873C35.0327-69.7109 35.0967-68.4478 35.8428-67.6528L40.6162-62.8457L35.4302-57.6934C34.583-56.8462 34.7363-55.5679 35.5313-54.7393Z"/>
</svg>