<svg xmlns="http://www.w3.org/2000/svg" viewBox="6.83594 -73.9316 77.39 77.36">
  <path d="M45.5137 3.42383C66.8823 3.42383 84.2251-13.8853 84.2251-35.2539C84.2251-56.6226 66.8823-73.9316 45.5137-73.9316C24.1787-73.9316 6.83594-56.6226 6.83594-35.2539C6.83594-13.8853 24.1787 3.42383 45.5137 3.42383ZM45.5137-2.27247C27.2778-2.27247 12.5508-17.0181 12.5508-35.2539C12.5508-53.4897 27.2778-68.2353 45.5137-68.2353C63.7495-68.2353 78.4951-53.4897 78.4951-35.2539C78.4951-17.0181 63.7495-2.27247 45.5137-2.27247ZM37.9082-18.5542L47.3355-18.5542C53.7827-18.5542 58.834-21.4756 58.834-27.8286C58.834-32.5161 55.5274-35.6025 50.9727-36.0942L50.9727-36.3687C54.4917-36.8755 57.125-40.2026 57.125-43.7637C57.125-49.354 52.4204-52.0884 47.29-52.0884L37.9082-52.0884C36.2847-52.0884 35.377-51.0273 35.377-49.5083L35.377-21.0855C35.377-19.6152 36.3184-18.5542 37.9082-18.5542ZM39.4004-37.4971L39.4004-48.6645L46.3115-48.6645C50.1553-48.6645 53.0864-47.0786 53.0864-43.2988C53.0864-39.0913 49.6382-37.4971 45.3398-37.4971ZM39.4004-21.9443L39.4004-34.1406L46.2324-34.1406C50.8423-34.1406 54.728-32.6558 54.728-28.061C54.728-23.5791 51.147-21.9443 46.6045-21.9443ZM45.48-14.1362C46.2227-14.1362 46.6841-14.6313 46.6841-15.3555L46.6841-55.5449C46.6841-56.269 46.189-56.7642 45.48-56.7642C44.771-56.7642 44.2759-56.269 44.2759-55.5449L44.2759-15.3555C44.2759-14.6313 44.771-14.1362 45.48-14.1362Z" />
</svg>