<svg xmlns="http://www.w3.org/2000/svg" viewBox="8.39941 -74.4199 71.64 78.33">
  <path d="M8.39941-13.6631C8.39941-11.1587 10.311-9.48291 13.5078-9.48291L30.644-9.48291C30.9101-2.23926 36.4351 3.91212 44.2197 3.91212C51.9707 3.91212 57.4956-2.20557 57.7954-9.48291L74.9316-9.48291C78.1284-9.48291 80.04-11.1587 80.04-13.6631C80.04-17.502 76.2329-20.9116 72.9849-24.2808C70.1367-27.2954 69.6514-33.4712 69.1753-38.7055C68.7178-52.7739 64.8418-62.1162 54.9072-65.5298C53.7183-70.564 49.7158-74.4199 44.2197-74.4199C38.7388-74.4199 34.7212-70.564 33.5322-65.5298C23.5976-62.1162 19.7217-52.7739 19.2305-38.7055C18.7881-33.4712 18.2842-27.2954 15.4697-24.2808C12.188-20.9116 8.39941-17.502 8.39941-13.6631ZM14.9312-14.6065L14.9312-15.0645C15.5039-16.3975 17.9214-18.8804 20.0225-21.1802C23.1499-24.5889 24.1021-30.4829 24.6235-38.2324C25.1416-53.6636 29.813-59.0664 36.4131-60.8882C37.4585-61.144 38.0342-61.6323 38.0947-62.6323C38.3101-66.6094 40.5864-69.4311 44.2197-69.4311C47.8193-69.4311 50.1294-66.6094 50.3262-62.6323C50.3867-61.6323 50.981-61.144 51.9927-60.8882C58.6265-59.0664 63.2978-53.6636 63.8159-38.2324C64.3525-30.4829 65.3047-24.5889 68.417-21.1802C70.5181-18.8804 72.9507-16.3975 73.5083-15.0645L73.5083-14.6065ZM35.9023-9.48291L52.5371-9.48291C52.2441-4.21485 48.8667-0.844243 44.2197-0.844243C39.5391-0.844243 36.1953-4.21485 35.9023-9.48291Z"/>
</svg>