<svg xmlns="http://www.w3.org/2000/svg" viewBox="6.83594 -73.9316 77.39 77.36">
  <path d="M45.5137 3.42383C66.8823 3.42383 84.2251-13.8853 84.2251-35.2539C84.2251-56.6226 66.8823-73.9316 45.5137-73.9316C24.1787-73.9316 6.83594-56.6226 6.83594-35.2539C6.83594-13.8853 24.1787 3.42383 45.5137 3.42383ZM45.5137-2.27247C27.2778-2.27247 12.5508-17.0181 12.5508-35.2539C12.5508-53.4897 27.2778-68.2353 45.5137-68.2353C63.7495-68.2353 78.4951-53.4897 78.4951-35.2539C78.4951-17.0181 63.7495-2.27247 45.5137-2.27247ZM56.7163-47.8716C53.9868-47.8716 51.8687-46.4502 50.1719-42.4839C44.9116-48.02 36.0894-53.1499 27.2065-53.7964C25.5713-53.8975 25.3003-52.7656 25.2515-51.7334C24.605-42.0859 32.2808-33.8726 42.4517-33.1621C39.7476-26.7436 35.3516-21.3179 30.8413-17.1157C30.2485-16.5718 30.353-15.7837 30.7925-15.1455C32.9746-11.7798 39.792-9.79297 44.4424-11.3857C45.3687-11.7344 45.5757-12.1655 45.5757-12.9805L45.5757-20.3193C50.8789-20.5063 58.9268-23.7105 57.6694-34.2505L57.417-35.8833C59.811-36.4355 61.6748-37.5366 62.7979-38.8364L68.2163-38.0854C69.3833-37.9204 69.9307-39.6836 68.73-40.1602L63.9277-42.1572C63.5791-45.0044 60.5181-47.8716 56.7163-47.8716ZM40.4331-52.4199C43.8931-50.6841 46.9995-48.5762 49.5942-46.3335C50.9512-48.2476 52.4985-49.3823 54.248-49.8857C51.7949-54.3994 48.6465-57.6572 44.5386-60.021C43.2183-60.7637 41.8945-60.2012 41.5005-58.7949C40.8911-56.7461 40.519-54.5645 40.4331-52.4199ZM57.3257-42.5728C57.3257-43.2783 57.9487-43.8525 58.6357-43.8525C59.375-43.8525 59.9795-43.2783 59.9795-42.5728C59.9795-41.8184 59.375-41.2778 58.6357-41.2778C57.9487-41.2778 57.3257-41.8184 57.3257-42.5728Z" />
</svg>