<svg xmlns="http://www.w3.org/2000/svg" viewBox="-1.21924 -73.9316 85.44 77.36">
  <path d="M1.92334-42.4624C-0.562501-42.4624-1.21924-40.7563 0.183594-38.791L8.63281-26.7554C9.77295-25.1387 11.4605-25.1387 12.5669-26.7554L21.0161-38.8096C22.3853-40.7563 21.7285-42.4624 19.2764-42.4624ZM84.2251-35.2539C84.2251-56.6226 66.8823-73.9316 45.5137-73.9316C24.1787-73.9316 6.86963-56.6563 6.83594-35.2051C6.86963-33.6421 8.15137-32.3906 9.68409-32.3906C11.2354-32.3906 12.5508-33.6758 12.5508-35.2388C12.5508-53.4897 27.2778-68.2353 45.5137-68.2353C63.7495-68.2353 78.4951-53.4897 78.4951-35.2539C78.4951-17.0181 63.7495-2.27247 45.5137-2.27247C34.2471-2.27247 24.356-7.9375 18.5034-16.4897C17.4693-17.8726 15.854-18.2886 14.4561-17.4531C13.1221-16.6362 12.7061-14.7026 13.8413-13.2222C20.8291-3.15233 32.332 3.42383 45.5137 3.42383C66.8823 3.42383 84.2251-13.8853 84.2251-35.2539ZM37.6001-18.603L47.061-18.603C53.6699-18.603 58.5444-21.6406 58.5444-27.7949C58.5444-32.2988 55.3506-35.4863 50.6343-36.0117L50.6343-36.2524C54.3638-36.8569 56.8355-40.1387 56.8355-43.5649C56.8355-48.8857 52.4946-51.7734 46.9668-51.7734L37.6001-51.7734C36.0928-51.7734 35.0688-50.7647 35.0688-49.227L35.0688-21.1494C35.0688-19.6118 36.0928-18.603 37.6001-18.603ZM39.1108-37.3809L39.1108-48.3984L45.9883-48.3984C49.7344-48.3984 52.7446-46.8799 52.7446-43.1001C52.7446-38.9263 49.2173-37.3809 44.998-37.3809ZM39.1108-22.0269L39.1108-34.0244L45.9243-34.0244C50.5005-34.0244 54.4048-32.5395 54.4048-28.0273C54.4048-23.5791 50.7783-22.0269 46.3301-22.0269ZM39.9063-49.7979L42.2993-49.7979L42.2993-55.4961C42.2993-56.1899 41.7891-56.7002 41.1289-56.7002C40.4165-56.7002 39.9063-56.1899 39.9063-55.4961ZM45.9546-49.7979L48.3628-49.7979L48.3628-55.4961C48.3628-56.1899 47.8525-56.7002 47.125-56.7002C46.4648-56.7002 45.9546-56.1899 45.9546-55.4961ZM39.9063-20.6392L39.9063-14.7441C39.9063-14.0654 40.4165-13.5889 41.1289-13.5889C41.7891-13.5889 42.2993-14.0654 42.2993-14.7441L42.2993-20.6392ZM45.9546-20.6392L45.9546-14.7441C45.9546-14.0654 46.4648-13.5889 47.125-13.5889C47.8525-13.5889 48.3628-14.0654 48.3628-14.7441L48.3628-20.6392Z" />
</svg>