<svg xmlns="http://www.w3.org/2000/svg" viewBox="9.93213 -74.2056 79.97 78.4">
  <path d="M9.93213-71.4922C9.93213-70.0117 11.165-68.7788 12.6304-68.7788L87.1904-68.7788C88.6895-68.7788 89.9038-70.0117 89.9038-71.4922C89.9038-72.9575 88.6895-74.2056 87.1904-74.2056L12.6304-74.2056C11.165-74.2056 9.93213-72.9575 9.93213-71.4922ZM22.002-3.93848C22.002-2.23584 22.396-1.16308 23.3457-0.258785L26.8389 3.18408C27.792 4.18946 29.7456 3.84766 29.7456 2.11133L29.7456-57.3061C29.7456-58.9936 29.3516-60.0664 28.4019-61.0195L24.9238-64.4473C23.9707-65.4189 22.002-65.0771 22.002-63.3408ZM41.1665-3.93848C41.1665-2.23584 41.5606-1.16308 42.5103-0.258785L46.0034 3.18408C46.9414 4.18946 48.9102 3.84766 48.9102 2.11133L48.9102-57.3061C48.9102-58.9936 48.5161-60.0664 47.5664-61.0195L44.0733-64.4473C43.1201-65.4189 41.1665-65.0771 41.1665-63.3408ZM60.3311-3.93848C60.3311-2.23584 60.71-1.16308 61.6597-0.258785L65.1191 3.18408C66.106 4.18946 68.0259 3.84766 68.0259 2.11133L68.0259-57.3061C68.0259-58.9936 67.6655-60.0664 66.7158-61.0195L63.2378-64.4473C62.251-65.4189 60.3311-65.0771 60.3311-63.3408ZM79.4805-3.93848C79.4805-2.23584 79.8745-1.16308 80.7905-0.258785L84.2837 3.18408C85.2554 4.18946 87.1904 3.84766 87.1904 2.11133L87.1904-57.3061C87.1904-58.9936 86.7964-60.0664 85.8804-61.0195L82.3872-64.4473C81.4004-65.4189 79.4805-65.0771 79.4805-63.3408ZM12.6304-59.8047C13.9658-59.8047 15.0723-60.9297 15.0723-62.2314C15.0723-63.5669 13.9658-64.6245 12.6304-64.6245C11.3101-64.6245 10.2373-63.5669 10.2373-62.2314C10.2373-60.9297 11.3101-59.8047 12.6304-59.8047ZM12.6304-50.9248C13.9658-50.9248 15.0723-52.0161 15.0723-53.3179C15.0723-54.687 13.9658-55.7446 12.6304-55.7446C11.3101-55.7446 10.2373-54.687 10.2373-53.3179C10.2373-52.0161 11.3101-50.9248 12.6304-50.9248ZM12.6304-42.0146C13.9658-42.0146 15.0723-43.1211 15.0723-44.4228C15.0723-45.7432 13.9658-46.8159 12.6304-46.8159C11.3101-46.8159 10.2373-45.7432 10.2373-44.4228C10.2373-43.1211 11.3101-42.0146 12.6304-42.0146ZM12.6304-33.1011C13.9658-33.1011 15.0723-34.2412 15.0723-35.543C15.0723-36.8633 13.9658-37.936 12.6304-37.936C11.3101-37.936 10.2373-36.8633 10.2373-35.543C10.2373-34.2412 11.3101-33.1011 12.6304-33.1011ZM12.6304-24.206C13.9658-24.206 15.0723-25.3125 15.0723-26.6143C15.0723-27.9683 13.9658-29.041 12.6304-29.041C11.3101-29.041 10.2373-27.9683 10.2373-26.6143C10.2373-25.3125 11.3101-24.206 12.6304-24.206ZM12.6304-15.3262C13.9658-15.3262 15.0723-16.4326 15.0723-17.7192C15.0723-19.0547 13.9658-20.1274 12.6304-20.1274C11.3101-20.1274 10.2373-19.0547 10.2373-17.7192C10.2373-16.4326 11.3101-15.3262 12.6304-15.3262ZM12.6304 3.69776C14.0957 3.69776 15.3438 2.44971 15.3438 0.984371L15.3438-8.51904C15.3438-9.98437 14.1445-11.2324 12.6304-11.2324C11.165-11.2324 9.94726-9.98437 9.94726-8.51904L9.94726 0.984371C9.94726 2.44971 11.1802 3.69776 12.6304 3.69776Z"/>
</svg>