<svg xmlns="http://www.w3.org/2000/svg" viewBox="9.76562 -62.6245 44.75 54.77">
  <path d="M15.7256-7.85303L35.4409-7.85303C47.1528-7.85303 54.5142-13.9482 54.5142-23.4175C54.5142-30.8882 49.1431-36.2627 41.3609-36.7559L41.3609-37.0674C47.6582-37.958 51.9854-42.7969 51.9854-48.8516C51.9854-57.373 45.4458-62.6245 34.9575-62.6245L15.7256-62.6245C11.96-62.6245 9.76562-60.415 9.76562-56.5332L9.76562-13.9443C9.76562-10.0625 11.96-7.85303 15.7256-7.85303ZM21.4766-16.2324L21.4766-32.1587L31.6348-32.1587C38.7173-32.1587 42.6416-29.3994 42.6416-24.2461C42.6416-19.0405 38.8452-16.2324 31.9663-16.2324ZM21.4766-39.7095L21.4766-54.144L31.5117-54.144C37.1162-54.144 40.4277-51.543 40.4277-47.1675C40.4277-42.4873 36.729-39.7095 30.4546-39.7095Z"/>
</svg>