<svg xmlns="http://www.w3.org/2000/svg" viewBox="9.76562 -63.48 93.05 68.05">
  <path d="M15.7256-7.85303L31.5825-7.85303C43.3281-7.85303 50.6558-13.9482 50.6558-23.4175C50.6558-30.8882 45.2847-36.2627 37.5361-36.7559L37.5361-37.0674C43.8149-37.958 48.127-42.7969 48.127-48.8516C48.127-57.373 41.6025-62.6245 31.0991-62.6245L15.7256-62.6245C11.96-62.6245 9.76562-60.415 9.76562-56.5332L9.76562-13.9443C9.76562-10.0625 11.96-7.85303 15.7256-7.85303ZM21.4766-16.2324L21.4766-32.1587L27.7764-32.1587C34.8589-32.1587 38.7832-29.3994 38.7832-24.2461C38.7832-19.0405 34.9868-16.2324 28.1079-16.2324ZM21.4766-39.7095L21.4766-54.144L27.6533-54.144C33.2578-54.144 36.5845-51.543 36.5845-47.1675C36.5845-42.4873 32.9043-39.7095 26.5962-39.7095ZM82.2446-6.8916C94.7534-6.8916 102.815-14.6992 102.815-26.2764L102.815-60.3472C102.815-62.2471 101.549-63.48 99.6641-63.48C97.813-63.48 96.6138-62.2471 96.6138-60.3472L96.6138-26.7632C96.6138-18.2515 90.4785-12.5611 82.2446-12.5611C73.3858-12.5611 67.9092-18.2515 67.9092-26.7632L67.9092-60.3472C67.9092-62.2471 66.6914-63.48 64.8067-63.48C62.9219-63.48 61.7227-62.2471 61.7227-60.3472L61.7227-26.2764C61.7227-14.6992 69.751-6.8916 82.2446-6.8916ZM63.8076 4.57032L100.746 4.57032C101.901 4.57032 102.815 3.70801 102.815 2.5459C102.815 1.36865 101.901 0.521481 100.746 0.521481L63.8076 0.521481C62.6523 0.521481 61.7227 1.36865 61.7227 2.5459C61.7227 3.70801 62.6523 4.57032 63.8076 4.57032Z" />
</svg>