<svg xmlns="http://www.w3.org/2000/svg" viewBox="9.76562 -74.6177 98.27 78.86">
  <path d="M21.3994-12.9409L30.0264-12.9409L30.0264-18.3677L21.4971-18.3677C17.4214-18.3677 15.1924-20.5293 15.1924-24.7398L15.1924-62.8189C15.1924-67.0293 17.4214-69.1909 21.4971-69.1909L77.124-69.1909C81.1392-69.1909 83.4287-67.0293 83.4287-62.8189L83.4287-53.2529L88.8555-53.2529L88.8555-63.1187C88.8555-70.7315 84.9321-74.6177 77.2217-74.6177L21.3994-74.6177C13.6553-74.6177 9.76562-70.7617 9.76562-63.1187L9.76562-24.4399C9.76562-16.7969 13.6553-12.9409 21.3994-12.9409ZM40.5791 4.2378L96.4014 4.2378C104.161 4.2378 108.035 0.381845 108.035-7.26123L108.035-42.2544C108.035-49.8975 104.161-53.772 96.4014-53.772L91.4346-53.772C88.4966-53.772 87.6294-54.1943 85.919-56.043L83.208-58.9258C81.2129-61.0591 79.3692-61.9785 76.3032-61.9785L60.6924-61.9785C57.6265-61.9785 55.7827-61.0591 53.7876-58.9258L51.1104-56.043C49.3662-54.1943 48.499-53.772 45.5947-53.772L40.5791-53.772C32.835-53.772 28.9605-49.8975 28.9605-42.2544L28.9605-7.26123C28.9605 0.381845 32.835 4.2378 40.5791 4.2378ZM40.6768-1.18897C36.6162-1.18897 34.3721-3.35059 34.3721-7.56103L34.3721-41.9883C34.3721-46.1836 36.6162-48.3267 40.6768-48.3267L46.8262-48.3267C50.1397-48.3267 52.0459-49.0674 54.0225-51.1821L57.19-54.5889C58.5484-55.9844 59.7471-56.5669 61.9424-56.5669L75.0869-56.5669C77.2822-56.5669 78.4473-55.9844 79.8057-54.5889L82.9731-51.1821C84.9497-49.0674 86.856-48.3267 90.2031-48.3267L96.3037-48.3267C100.379-48.3267 102.624-46.1836 102.624-41.9883L102.624-7.56103C102.624-3.35059 100.379-1.18897 96.3037-1.18897ZM68.5239-6.68212C78.8316-6.68212 87.1406-15.0063 87.1406-25.3477C87.1406-35.6216 78.8316-43.9946 68.5239-43.9946C58.2315-43.9946 49.8887-35.6216 49.8887-25.3477C49.8887-15.0063 58.2315-6.68212 68.5239-6.68212ZM68.5239-11.8882C61.125-11.8882 55.0947-17.8999 55.0947-25.3477C55.0947-32.7431 61.125-38.7886 68.5239-38.7886C75.938-38.7886 81.9346-32.7431 81.9346-25.3477C81.9346-17.8999 75.938-11.8882 68.5239-11.8882ZM93.4951-34.7475C95.7598-34.7475 97.6001-36.6216 97.6001-38.9048C97.6001-41.1694 95.7598-43.0586 93.4951-43.0586C91.1968-43.0586 89.3076-41.1694 89.3076-38.9048C89.3076-36.6216 91.1968-34.7475 93.4951-34.7475Z"/>
</svg>