<svg xmlns="http://www.w3.org/2000/svg" viewBox="9.76562 -64.2554 118.98 57.26">
  <path d="M23.5049-7.02783C29.6616-7.02783 35.3623-10.4033 37.6523-15.5518L37.7685-15.5518L37.7685-9.80518C37.7685-8.12598 38.9004-6.99414 40.5005-6.99414C42.1309-6.99414 43.2627-8.12598 43.2627-9.93995L43.2627-35.8315C43.2627-44.2197 37.27-49.6025 27.6675-49.6025C20.3149-49.6025 14.4688-46.3784 12.3101-41.2065C11.8975-40.3057 11.6196-39.3779 11.6196-38.6387C11.6196-37.1245 12.7329-36.1426 14.2134-36.1426C15.2744-36.1426 16.0879-36.5854 16.5899-37.5757C18.5332-42.3398 22.0869-44.7266 27.5176-44.7266C33.8223-44.7266 37.5664-41.0972 37.5664-35.3633L37.5664-31.9624L24.7544-31.2251C15.0527-30.6611 9.76562-26.2261 9.76562-19.1392C9.76562-11.8989 15.396-7.02783 23.5049-7.02783ZM24.8003-11.7505C19.3608-11.7505 15.5967-14.8076 15.5967-19.2856C15.5967-23.5752 19.0025-26.4775 25.4854-26.8916L37.5664-27.7266L37.5664-23.1851C37.5664-16.8296 31.8745-11.7505 24.8003-11.7505ZM53.9629-7.02783C55.5967-7.02783 56.7471-8.14453 56.7471-9.90626L56.7471-16.6064L56.8633-16.6064C59.3032-10.6909 64.5845-6.99756 71.2178-6.99756C81.7075-6.99756 88.6797-15.48 88.6797-28.2983C88.6797-41.1689 81.6738-49.6025 71.2852-49.6025C64.7261-49.6025 59.374-45.8789 57.0806-40.0728L56.9155-40.0728L56.9155-61.2422C56.9155-63.0898 55.7651-64.2554 54.0674-64.2554C52.3696-64.2554 51.2344-63.0898 51.2344-61.2422L51.2344-9.90626C51.2344-8.11084 52.3174-7.02783 53.9629-7.02783ZM69.9932-11.9409C62.3399-11.9409 56.9575-18.4629 56.9575-28.2681C56.9575-38.0732 62.355-44.6592 69.9932-44.6592C77.8335-44.6592 82.8335-38.25 82.8335-28.2983C82.8335-18.2979 77.8184-11.9409 69.9932-11.9409ZM112.215-6.99756C119.798-6.99756 126.247-11.1782 128.417-17.2695C128.65-17.832 128.748-18.4551 128.748-18.9805C128.748-20.397 127.729-21.4277 126.3-21.4277C125.003-21.4277 124.37-20.8838 123.632-19.4185C121.627-14.604 117.737-11.9409 112.215-11.9409C104.218-11.9409 99.0581-18.1953 99.0581-28.2832C99.0581-38.3188 104.26-44.6929 112.173-44.6929C117.493-44.6929 121.499-42.0972 123.504-37.1479C124.208-35.7163 124.909-35.1875 126.139-35.1875C127.634-35.1875 128.62-36.1357 128.62-37.6196C128.62-38.0776 128.522-38.6182 128.372-39.083C126.419-45.1592 119.857-49.6025 112.053-49.6025C100.636-49.6025 93.2456-41.1553 93.2456-28.2192C93.2456-15.231 100.715-6.99756 112.215-6.99756Z"/>
</svg>