<svg xmlns="http://www.w3.org/2000/svg" viewBox="6.83594 -73.9316 77.39 77.36">
  <path d="M45.5137 3.42383C66.8823 3.42383 84.2251-13.8853 84.2251-35.2539C84.2251-56.6226 66.8823-73.9316 45.5137-73.9316C24.1787-73.9316 6.83594-56.6226 6.83594-35.2539C6.83594-13.8853 24.1787 3.42383 45.5137 3.42383ZM45.5137-2.27247C27.2778-2.27247 12.5508-17.0181 12.5508-35.2539C12.5508-53.4897 27.2778-68.2353 45.5137-68.2353C63.7495-68.2353 78.4951-53.4897 78.4951-35.2539C78.4951-17.0181 63.7495-2.27247 45.5137-2.27247ZM33.0562-30.4873L56.0772-30.4873C62.0225-30.4873 66.5601-35.0503 66.5601-40.6841C66.5601-46.4829 61.7749-50.7344 55.5737-50.7344C53.2485-55.3291 49.0273-58.3311 43.6431-58.3311C36.7398-58.3311 31.0908-52.8691 30.4561-45.9609C27.0938-44.9995 24.5161-42.1489 24.5161-38.2612C24.5161-34.0063 27.6445-30.4873 33.0562-30.4873ZM35.0938-20.0928L37.5952-24.3584C38.023-25.1162 37.794-26.1401 36.9688-26.6016C36.2261-27.0327 35.2358-26.7329 34.8232-25.9751L32.3218-21.6943C31.894-20.9854 32.1231-19.9277 32.9482-19.5C33.6758-19.0537 34.666-19.3687 35.0938-20.0928ZM45.6187-20.0928L48.1201-24.3584C48.5479-25.1162 48.3189-26.1401 47.5273-26.6016C46.751-27.0327 45.7759-26.7329 45.3481-25.9751L42.8467-21.6943C42.419-20.9854 42.648-19.9277 43.4732-19.5C44.2158-19.0537 45.2246-19.3687 45.6187-20.0928ZM56.1436-20.0928L58.645-24.3584C59.0391-25.1162 58.8101-26.1401 58.0186-26.6016C57.2422-27.0327 56.2671-26.7329 55.8394-25.9751L53.3716-21.6943C52.9439-20.9854 53.1729-19.9277 53.9644-19.5C54.7407-19.0537 55.7158-19.3687 56.1436-20.0928ZM30.7847-12.7227C32.0947-12.7227 33.2246-13.8189 33.2246-15.1777C33.2246-16.5366 32.0947-17.6328 30.7847-17.6328C29.4258-17.6328 28.2959-16.5366 28.2959-15.1777C28.2959-13.8189 29.4258-12.7227 30.7847-12.7227ZM41.3096-12.7227C42.6348-12.7227 43.7495-13.8189 43.7495-15.1777C43.7495-16.5366 42.6348-17.6328 41.3096-17.6328C39.9507-17.6328 38.8545-16.5366 38.8545-15.1777C38.8545-13.8189 39.9507-12.7227 41.3096-12.7227ZM51.8008-12.7227C53.1597-12.7227 54.2559-13.8189 54.2559-15.1777C54.2559-16.5366 53.1597-17.6328 51.8008-17.6328C50.4756-17.6328 49.3457-16.5366 49.3457-15.1777C49.3457-13.8189 50.4756-12.7227 51.8008-12.7227Z" />
</svg>