<svg xmlns="http://www.w3.org/2000/svg" viewBox="6.83594 -73.9316 77.39 77.36">
  <path d="M45.5137 3.42383C66.8823 3.42383 84.2251-13.8853 84.2251-35.2539C84.2251-56.6226 66.8823-73.9316 45.5137-73.9316C24.1787-73.9316 6.83594-56.6226 6.83594-35.2539C6.83594-13.8853 24.1787 3.42383 45.5137 3.42383ZM45.5137-2.27247C27.2778-2.27247 12.5508-17.0181 12.5508-35.2539C12.5508-53.4897 27.2778-68.2353 45.5137-68.2353C63.7495-68.2353 78.4951-53.4897 78.4951-35.2539C78.4951-17.0181 63.7495-2.27247 45.5137-2.27247ZM33.0562-30.1504L56.0772-30.1504C62.0225-30.1504 66.5601-34.7134 66.5601-40.3472C66.5601-46.1797 61.7749-50.4312 55.5737-50.4312C53.2485-54.9922 49.0273-58.0278 43.6431-58.0278C36.7398-58.0278 31.0908-52.5322 30.4561-45.6577C27.0938-44.6963 24.5161-41.8457 24.5161-37.958C24.5161-33.6694 27.6445-30.1504 33.0562-30.1504ZM32.6553-19.1309L35.5122-24.0552C35.9736-24.813 35.7109-25.8369 34.8857-26.2646C34.1431-26.7109 33.168-26.4297 32.7402-25.6719L29.8345-20.7324C29.4067-19.9409 29.6694-18.9658 30.4609-18.5044C31.2373-18.0918 32.1939-18.3394 32.6553-19.1309ZM37.9458-13.2378L44.2358-24.0552C44.6973-24.8467 44.4346-25.8369 43.6094-26.2646C42.8667-26.7109 41.9102-26.4634 41.4639-25.6719L35.1738-14.8394C34.7124-14.0479 34.9751-13.0728 35.7666-12.6113C36.543-12.1987 37.4844-12.4463 37.9458-13.2378ZM50.0537-19.1309L52.9258-24.0552C53.3721-24.813 53.1094-25.8369 52.333-26.2646C51.5566-26.7109 50.6001-26.4297 50.1387-25.6719L47.2817-20.7324C46.8203-19.9409 47.083-18.9658 47.9082-18.5044C48.6358-18.0918 49.5923-18.3394 50.0537-19.1309ZM55.3594-13.2378L61.6343-24.0552C62.0957-24.8467 61.833-25.8369 61.0415-26.2646C60.2803-26.7109 59.3237-26.4634 58.8623-25.6719L52.5723-14.8394C52.126-14.0479 52.3887-13.0728 53.1987-12.6113C53.9414-12.1987 54.9317-12.4463 55.3594-13.2378Z" />
</svg>