<svg xmlns="http://www.w3.org/2000/svg" viewBox="9.76562 -85.2241 66.21 99.94">
  <path d="M21.3994-2.27734L40.0986-2.27734L40.0986-68.2305L21.3994-68.2305C13.689-68.2305 9.76562-64.3408 9.76562-56.6978L9.76562-13.8101C9.76562-6.16699 13.689-2.27734 21.3994-2.27734ZM64.3403-2.27734C72.0508-2.27734 75.9741-6.19726 75.9741-13.8101L75.9741-56.6978C75.9741-64.3106 72.0508-68.2305 64.3403-68.2305L45.5586-68.2305L45.5586-2.27734ZM42.8286-85.2241C41.3062-85.2241 40.0986-84.0318 40.0986-82.4942L40.0986-68.2305L45.5586-68.2305L45.5586-82.4942C45.5586-84.0318 44.3662-85.2241 42.8286-85.2241ZM42.8286 14.7163C44.3662 14.7163 45.5586 13.5239 45.5586 11.9863L45.5586-2.27734L40.0986-2.27734L40.0986 11.9863C40.0986 13.5239 41.3062 14.7163 42.8286 14.7163Z"/>
</svg>