<svg xmlns="http://www.w3.org/2000/svg" viewBox="9.76562 -66.522 140.29 62.48">
  <path d="M71.6538-22.5547C69.8115-22.5547 69.0317-24.0483 70.0068-25.6348L78.0195-38.7978C78.9912-40.3623 80.8486-40.3135 81.7227-38.7978L89.8482-25.6196C90.7744-24.0332 90.0098-22.5547 88.1675-22.5547ZM40.7222-4.04442C47.1558-4.04442 52.1885-9.07714 52.1885-15.5107C52.1885-21.9106 47.1558-26.9097 40.7222-26.9097C34.3037-26.9097 29.3047-21.9106 29.3047-15.5107C29.3047-9.07714 34.3037-4.04442 40.7222-4.04442ZM119.957-4.04442C126.357-4.04442 131.39-9.07714 131.39-15.5107C131.39-21.9106 126.357-26.9097 119.957-26.9097C113.523-26.9097 108.491-21.9106 108.491-15.5107C108.491-9.07714 113.523-4.04442 119.957-4.04442ZM120.059-50.2949C114.427-51.3355 110.325-51.77 104.413-51.3911L64.1734-48.8521C69.418-52.6973 74.9585-56.4785 81.9556-60.2295C85.2046-61.9272 82.5401-66.522 78.9644-64.644C69.9092-59.7798 61.5474-54.2671 54.4805-48.3838L28.0552-43.4204C15.8897-41.1187 9.76562-35.5703 9.76562-25.4932L9.76562-20.457C9.76562-15.0732 12.209-12.3975 17.6836-11.7407L25.6216-10.7895C25.3018-12.0522 25.0947-14.0864 25.0947-15.5107C25.0947-24.1807 32.0186-31.1045 40.7222-31.1045C49.4746-31.1045 56.3833-24.1807 56.3833-15.5107C56.3833-14.418 56.2857-13.187 56.1055-12.394L104.656-12.394C104.427-13.2544 104.296-14.3843 104.296-15.5107C104.296-24.1807 111.22-31.1045 119.957-31.1045C128.676-31.1045 135.584-23.5557 135.584-14.8706C135.584-14.352 135.584-14.0845 135.536-13.6147L139.34-14.0239C146.587-14.8017 150.056-18.7622 150.056-26.2148L150.056-32.8706C150.056-41.5864 146.69-45.3716 138.041-46.9712Z"/>
</svg>