<svg xmlns="http://www.w3.org/2000/svg" viewBox="9.76562 -75.6577 84.05 80.81">
  <path d="M14.5112-3.24024L89.1021-3.24024L89.1021-5.57276C89.1021-6.90675 88.3037-7.68996 86.936-7.68996L84.4946-7.68996L84.4946-50.1289L87.9175-50.1289C89.7803-50.1289 90.8482-51.4629 90.8482-52.8423C90.8482-53.8276 90.2637-54.7236 89.0493-55.4732L56.2959-74.3628C54.8545-75.2149 53.2969-75.6577 51.8067-75.6577C50.2827-75.6577 48.71-75.2149 47.2686-74.3628L14.5151-55.4732C13.2822-54.7236 12.7315-53.8276 12.7315-52.8423C12.7315-51.4629 13.7842-50.1289 15.6621-50.1289L19.1187-50.1289L19.1187-7.68996L16.6773-7.68996C15.3096-7.68996 14.5112-6.90675 14.5112-5.57276ZM24.2422-7.68996L24.2422-54.7363L50.1099-69.2847C50.6216-69.5893 51.231-69.7661 51.8067-69.7661C52.3486-69.7661 52.9429-69.5893 53.4546-69.2847L79.4048-54.7363L79.4048-7.68996ZM12.479 5.14991L91.1006 5.14991C92.5659 5.14991 93.814 3.90186 93.814 2.40283C93.814 0.922361 92.5659-0.310552 91.1006-0.310552L12.479-0.310552C10.9985-0.310552 9.76562 0.922361 9.76562 2.40283C9.76562 3.90186 10.9985 5.14991 12.479 5.14991ZM52.064-18.5313C57.8745-18.5313 63.064-21.3867 64.6738-26.4312C64.9063-26.9751 64.9551-27.4668 64.9551-27.9653C64.9551-29.0601 64.2427-29.7354 63.084-29.7354C62.023-29.7354 61.4639-29.124 61.1304-28.1489C59.9482-24.0796 56.1802-22.0376 52.064-22.0376C44.8731-22.0376 41.5664-28.3701 41.5664-35.4565C41.5664-42.5801 44.9556-48.7139 52.064-48.7139C56.2695-48.7139 59.8018-46.2661 60.9165-42.5791C61.2837-41.5518 61.7788-40.959 62.8213-40.959C63.8941-40.959 64.7075-41.6714 64.7075-42.7778C64.7075-43.1416 64.625-43.7564 64.4077-44.2549C62.6968-49.2471 57.7432-52.3213 52.064-52.3213C42.6602-52.3213 37.2954-45.2007 37.2954-35.4565C37.2954-26.0762 42.293-18.5313 52.064-18.5313ZM50.0566-20.335L52.4985-20.335L52.4985-27.8042C52.4985-31.5317 55.0142-34.1294 58.6777-34.1294C59.3897-34.1294 59.9453-33.9561 60.2988-33.9561C61.0264-33.9561 61.4727-34.3164 61.4727-35.1113C61.4727-35.5913 61.2588-36.0225 60.794-36.27C60.3091-36.6084 59.3242-36.7549 58.6255-36.7549C55.585-36.7549 53.2832-34.8223 52.5322-32.4077L52.4346-32.4077L52.4346-35.438C52.4346-36.1958 51.9546-36.6909 51.2793-36.6909C50.5366-36.6909 50.0566-36.1958 50.0566-35.438Z"/>
</svg>