<svg xmlns="http://www.w3.org/2000/svg" viewBox="7.8125 -70.1196 81.97 69.86">
  <path d="M78.1533-0.260249C85.8301-0.260249 89.7871-4.1499 89.7871-11.793L89.7871-58.5869C89.7871-66.23 85.8301-70.1196 78.1533-70.1196L45.165-70.1196C40.7417-70.1196 37.0977-69.0132 34.0229-65.8374L11.3032-42.3042C8.89697-39.8457 7.8125-37.6348 7.8125-35.269C7.8125-32.9033 8.84815-30.6772 11.3032-28.2187L34.0566-4.92773C37.1465-1.75195 40.7754-0.29394 45.1987-0.29394ZM42.8623-19.4917C41.2993-19.4917 40.0698-20.7397 40.0698-22.3213C40.0698-23.0674 40.3359-23.7344 40.8984-24.2969L51.7764-35.1748L40.8984-46.0527C40.3359-46.6152 40.0698-47.2822 40.0698-48.0283C40.0698-49.5762 41.2993-50.7905 42.8623-50.7905C43.6572-50.7905 44.2568-50.5244 44.8345-49.9805L55.7344-39.0991L66.7168-50.0142C67.2944-50.5918 67.9429-50.8579 68.6738-50.8579C70.2183-50.8579 71.4663-49.6099 71.4663-48.0957C71.4663-47.3159 71.2339-46.6826 70.6528-46.0864L59.7412-35.1748L70.6192-24.3306C71.1665-23.7681 71.4326-23.1011 71.4326-22.3213C71.4326-20.7397 70.1846-19.4917 68.6065-19.4917C67.8418-19.4917 67.126-19.7578 66.582-20.3354L55.7344-31.2168L44.9356-20.3354C44.3579-19.7578 43.6572-19.4917 42.8623-19.4917Z"/>
</svg>