<svg xmlns="http://www.w3.org/2000/svg" viewBox="6.83594 -73.9316 77.39 77.36">
  <path d="M45.5137 3.42383C66.8823 3.42383 84.2251-13.8853 84.2251-35.2539C84.2251-56.6226 66.8823-73.9316 45.5137-73.9316C24.1787-73.9316 6.83594-56.6226 6.83594-35.2539C6.83594-13.8853 24.1787 3.42383 45.5137 3.42383ZM45.5137-2.27247C27.2778-2.27247 12.5508-17.0181 12.5508-35.2539C12.5508-53.4897 27.2778-68.2353 45.5137-68.2353C63.7495-68.2353 78.4951-53.4897 78.4951-35.2539C78.4951-17.0181 63.7495-2.27247 45.5137-2.27247ZM58.2876-56.3677L32.5039-56.3677C29.8384-56.3677 28.04-54.4902 28.04-51.6816L28.04-46.124L62.7515-46.124L62.7515-51.6816C62.7515-54.4902 60.9531-56.3677 58.2876-56.3677ZM34.0488-49.7041C33.6484-50.3779 33.8511-51.1895 34.4575-51.5864C35.0825-51.9531 35.9429-51.7842 36.3247-51.1103C36.7066-50.519 36.5225-49.6587 35.8975-49.2768C35.2573-48.8613 34.4458-49.1128 34.0488-49.7041ZM40.5181-48.5737C39.4961-48.5737 38.6997-49.4189 38.6997-50.4072C38.6997-51.4478 39.4961-52.2744 40.5181-52.2744C41.5249-52.2744 42.3701-51.4478 42.3701-50.4072C42.3701-49.4189 41.5249-48.5737 40.5181-48.5737ZM28.04-21.9448L62.7515-21.9448L62.7515-43.5308L28.04-43.5308ZM40.6089-37.7568C39.9707-37.7568 39.5313-38.23 39.5313-38.8682C39.5313-39.5063 39.9707-39.9458 40.6089-39.9458L50.3223-39.9458C50.9605-39.9458 51.3848-39.5063 51.3848-38.8682C51.3848-38.23 50.9605-37.7568 50.3223-37.7568ZM62.7515-19.3516L28.04-19.3516L28.04-18.9609C28.04-16.1523 29.8384-14.2749 32.5039-14.2749L58.2876-14.2749C60.9531-14.2749 62.7515-16.1523 62.7515-18.9609Z" />
</svg>