<svg xmlns="http://www.w3.org/2000/svg" viewBox="9.76562 -78.876 70.24 87.31">
  <path d="M75.0127-76.5332L75.0127 6.05567C75.0127 7.38624 76.1782 8.43214 77.5239 8.43214C78.8208 8.43214 80.0015 7.38624 80.0015 6.05567L80.0015-76.5332C80.0015-77.8301 78.8208-78.876 77.5239-78.876C76.1782-78.876 75.0127-77.8301 75.0127-76.5332ZM31.0674-63.1904L31.0674-7.28711C31.0674-2.08153 33.9302 0.83009 39.0498 0.83009L50.7173 0.83009C55.8369 0.83009 58.6997-2.08153 58.6997-7.28711L58.6997-63.1904C58.6997-68.396 55.8369-71.2739 50.7173-71.2739L39.0498-71.2739C33.9302-71.2739 31.0674-68.396 31.0674-63.1904ZM14.7544-76.5332C14.7544-77.8301 13.5737-78.876 12.2432-78.876C10.9463-78.876 9.76562-77.8301 9.76562-76.5332L9.76562 6.05567C9.76562 7.38624 10.9463 8.43214 12.2432 8.43214C13.5737 8.43214 14.7544 7.38624 14.7544 6.05567Z" />
</svg>