<svg xmlns="http://www.w3.org/2000/svg" viewBox="-1.21924 -73.9316 85.44 77.36">
  <path d="M1.92334-42.4624C-0.562501-42.4624-1.21924-40.7563 0.183594-38.791L8.63281-26.7554C9.77295-25.1387 11.4605-25.1387 12.5669-26.7554L21.0161-38.8096C22.3853-40.7563 21.7285-42.4624 19.2764-42.4624ZM84.2251-35.2539C84.2251-56.6226 66.8823-73.9316 45.5137-73.9316C24.1787-73.9316 6.86963-56.6563 6.83594-35.2051C6.86963-33.6421 8.15137-32.3906 9.68409-32.3906C11.2354-32.3906 12.5508-33.6758 12.5508-35.2388C12.5508-53.4897 27.2778-68.2353 45.5137-68.2353C63.7495-68.2353 78.4951-53.4897 78.4951-35.2539C78.4951-17.0181 63.7495-2.27247 45.5137-2.27247C34.2471-2.27247 24.356-7.9375 18.5034-16.4897C17.4693-17.8726 15.854-18.2886 14.4561-17.4531C13.1221-16.6362 12.7061-14.7026 13.8413-13.2222C20.8291-3.15233 32.332 3.42383 45.5137 3.42383C66.8823 3.42383 84.2251-13.8853 84.2251-35.2539ZM42.9439-22.6963C46.2456-22.6963 49.3218-24.0566 50.8691-27.2251L50.9971-27.2251L50.9971-24.2188C50.9971-23.1426 51.792-22.3477 52.8682-22.3477C53.978-22.3477 54.7393-23.1426 54.7393-24.2188L54.7393-48.5522L57.689-48.5522C58.3003-48.5522 58.8442-49.0962 58.8442-49.7075C58.8442-50.3677 58.3003-50.8779 57.689-50.8779L54.7393-50.8779L54.7393-52.605C54.7393-53.7974 54.0269-54.5923 52.8345-54.5923C51.627-54.5923 50.8809-53.7974 50.8809-52.605L50.8809-50.8779L43.5181-50.8779C42.873-50.8779 42.3291-50.3677 42.3291-49.7075C42.3291-49.0625 42.873-48.5522 43.5181-48.5522L50.8809-48.5522L50.8809-40.4912L50.7041-40.4912C49.3521-43.5234 46.2876-44.9409 42.9439-44.9409C37.3149-44.9409 32.7905-40.5767 32.7905-33.8599C32.7905-27.5005 36.9458-22.6963 42.9439-22.6963ZM43.9072-26.0713C39.4556-26.0713 36.7803-29.4756 36.7803-33.8599C36.7803-38.4277 39.7065-41.6333 43.9072-41.6333C48.2461-41.6333 50.8843-38.042 50.8843-33.8599C50.8843-29.3931 47.9951-26.0713 43.9072-26.0713ZM34.7085-18.625C34.7085-17.9497 35.2524-17.4209 35.9463-17.4209L54.6397-17.4209C55.2998-17.4209 55.8623-17.9648 55.8623-18.625C55.8623-19.3037 55.2998-19.814 54.6397-19.814L35.9463-19.814C35.2524-19.814 34.7085-19.3037 34.7085-18.625Z" />
</svg>