<svg xmlns="http://www.w3.org/2000/svg" viewBox="9.76562 -68.8809 43.9 67.78">
  <path d="M39.9307-38.7026C47.9658-38.7026 53.6655-44.9141 53.6655-53.7993C53.6655-62.6846 47.9658-68.8809 39.9307-68.8809C32.7544-68.8809 27.7148-62.6846 27.7148-53.7993C27.7148-44.9141 32.7544-38.7026 39.9307-38.7026ZM46.2022-47.6436C44.3447-47.6436 42.8662-50.3291 42.8662-53.7993C42.8662-57.2358 44.3447-59.9399 46.2022-59.9399C48.0259-59.9399 49.4707-57.2358 49.4707-53.7993C49.4707-50.3291 48.0259-47.6436 46.2022-47.6436ZM27.9102-67.7695C17.4004-67.7695 9.76562-59.4468 9.76562-49.689C9.76562-44.2485 12.1045-39.2344 16.2817-35.606C16.5596-35.377 17.6309-34.3242 18.1108-33.8071C20.1514-31.5576 21.1982-28.8086 21.1982-25.5957L21.1982-5.77441C21.1982-2.93359 23.0303-1.10155 25.9116-1.10155L29.9087-1.10155C32.7715-1.10155 34.6221-2.93359 34.6221-5.77441L34.6221-25.5957C34.6221-28.8086 35.6353-31.5576 37.7095-33.8071C38.0093-34.1592 38.6611-34.7622 39.0469-35.1968C30.291-35.6294 24.1602-43.3564 24.1602-53.7993C24.1602-59.5342 25.9854-64.4424 29.0498-67.7393C28.6475-67.7393 28.2788-67.7695 27.9102-67.7695Z"/>
</svg>