<svg xmlns="http://www.w3.org/2000/svg" viewBox="9.76562 -70.1499 69.83 69.86">
  <path d="M21.3994-0.290522L67.9575-0.290522C75.7017-0.290522 79.5913-4.21045 79.5913-11.8232L79.5913-58.6172C79.5913-66.23 75.7017-70.1499 67.9575-70.1499L21.3994-70.1499C13.689-70.1499 9.76562-66.2603 9.76562-58.6172L9.76562-11.8232C9.76562-4.18017 13.689-0.290522 21.3994-0.290522ZM21.4971-5.75098C17.4214-5.75098 15.1924-7.9126 15.1924-12.0894L15.1924-58.3511C15.1924-62.5615 17.4214-64.6894 21.4971-64.6894L67.8599-64.6894C71.875-64.6894 74.1645-62.5615 74.1645-58.3511L74.1645-12.0894C74.1645-7.9126 71.875-5.75098 67.8599-5.75098ZM44.6953-18.9507C59.8774-18.9507 70.5537-31.3813 70.5537-35.2354C70.5537-39.0894 59.8472-51.5352 44.6953-51.5352C29.4595-51.5352 18.8032-39.0894 18.8032-35.2354C18.8032-31.3813 29.5806-18.9507 44.6953-18.9507ZM44.6953-24.5591C38.73-24.5591 33.9854-29.4502 33.9702-35.2354C33.9551-41.2007 38.73-45.9116 44.6953-45.9116C50.563-45.9116 55.3867-41.2007 55.3867-35.2354C55.3867-29.4502 50.563-24.5591 44.6953-24.5591ZM44.7441-30.6924C47.1436-30.6924 49.2534-32.8022 49.2534-35.2354C49.2534-37.6836 47.1436-39.7783 44.7441-39.7783C42.2285-39.7783 40.1035-37.6836 40.1035-35.2354C40.1035-32.8022 42.2285-30.6924 44.7441-30.6924Z" />
</svg>