<svg xmlns="http://www.w3.org/2000/svg" viewBox="6.83594 -73.9316 77.39 77.36">
  <path d="M45.5137 3.42383C66.8823 3.42383 84.2251-13.8853 84.2251-35.2539C84.2251-56.6226 66.8823-73.9316 45.5137-73.9316C24.1787-73.9316 6.83594-56.6226 6.83594-35.2539C6.83594-13.8853 24.1787 3.42383 45.5137 3.42383ZM45.5137-2.27247C27.2778-2.27247 12.5508-17.0181 12.5508-35.2539C12.5508-53.4897 27.2778-68.2353 45.5137-68.2353C63.7495-68.2353 78.4951-53.4897 78.4951-35.2539C78.4951-17.0181 63.7495-2.27247 45.5137-2.27247ZM37.0513-17.812C38.8164-17.812 39.7798-18.959 39.7798-20.8101L39.7798-33.248L53.9458-33.248C55.2881-33.248 56.2212-34.0059 56.2212-35.355C56.2212-36.7192 55.2881-37.5293 53.9458-37.5293L39.7798-37.5293L39.7798-48.3945L55.4141-48.3945C56.7564-48.3945 57.6895-49.2871 57.6895-50.6362C57.6895-52.0156 56.7564-52.8779 55.4141-52.8779L37.021-52.8779C35.3047-52.8779 34.3901-51.645 34.3901-49.8311L34.3901-20.8101C34.3901-19.0264 35.335-17.812 37.0513-17.812Z" />
</svg>