<svg xmlns="http://www.w3.org/2000/svg" viewBox="6.83594 -71.7832 84.55 73.28">
  <path d="M49.0933-71.7832C25.7564-71.7832 6.83594-52.8965 6.83594-29.5259C6.83594-17.977 11.4595-7.43506 19.1172 0.241214C20.2793 1.41846 22.0747 1.50098 23.3262 0.30176C24.3755-0.762695 24.1582-2.56153 22.8125-4.042C16.4736-10.5342 12.6519-19.6597 12.6519-29.5259C12.6519-49.8984 28.7881-66.0869 49.0933-66.0869C69.4321-66.0869 85.5684-49.8984 85.5684-29.5259C85.5684-19.6597 81.7129-10.5342 75.4077-4.042C74.062-2.56153 73.8447-0.762695 74.894 0.30176C76.1455 1.50098 77.9409 1.41846 79.103 0.241214C86.7456-7.41992 91.3843-17.977 91.3843-29.5259C91.3843-52.8965 72.4639-71.7832 49.0933-71.7832ZM49.127-20.9316C49.6489-20.9316 50.2046-20.9805 50.644-21.0781L50.644-13.7046C50.644-10.1401 52.4541-8.24756 55.9209-8.24756C62.3374-8.24756 68.7607-13.9907 68.7607-19.5903C68.7607-24.249 64.937-26.7407 57.7061-29.1826C57.7212-29.292 57.7212-29.4014 57.7212-29.5259C57.7212-30.0479 57.6724-30.6035 57.6084-31.043L64.9819-31.043C68.5464-31.043 70.4053-32.853 70.4053-36.3198C70.4053-42.7026 64.6621-49.1597 59.0962-49.1597C54.4038-49.1597 51.9121-45.3022 49.4702-38.0713C49.3608-38.0864 49.2852-38.0864 49.127-38.0864C48.605-38.0864 48.083-38.0376 47.6436-37.9736L47.6436-45.3472C47.6436-48.9116 45.8335-50.8042 42.3667-50.8042C35.9502-50.8042 29.5269-45.061 29.5269-39.4614C29.5269-34.8027 33.3506-32.311 40.5815-29.8691C40.5664-29.7261 40.5664-29.6504 40.5664-29.5259C40.5664-29.0039 40.6152-28.4482 40.6792-28.0088L33.3057-28.0088C29.7412-28.0088 27.8486-26.1987 27.8486-22.7319C27.8486-16.3491 33.5918-9.89209 39.1914-9.89209C43.8838-9.89209 46.3418-13.7158 48.8174-20.9805C48.9268-20.9316 49.0024-20.9316 49.127-20.9316ZM49.127-24.9482C46.6201-24.9482 44.5493-26.9854 44.5493-29.5259C44.5493-32.0664 46.6201-34.1035 49.127-34.1035C51.6675-34.1035 53.7231-32.0664 53.7231-29.5259C53.7231-26.9854 51.6675-24.9482 49.127-24.9482Z" />
</svg>