<svg xmlns="http://www.w3.org/2000/svg" viewBox="9.55176 -73.1109 93.51 75.8">
  <path d="M31.5894-56.3452C36.1777-56.3452 39.8989-60.1978 39.8989-64.6733C39.8989-69.3071 36.1777-73.1109 31.5894-73.1109C26.9067-73.1109 23.2647-69.3071 23.2647-64.6733C23.2647-60.0464 26.9067-56.3452 31.5894-56.3452ZM15.5444-25.1934L39.4341-51.7383C37.0752-52.6475 34.4468-53.0264 31.5894-53.0264C20.7827-53.0264 14.4365-47.8184 14.4365-39.167C14.4365-37.0605 14.5156-34.2368 14.8574-31.4131ZM47.6343-25.1934L48.2539-31.4131C48.5991-34.2368 48.7119-37.0605 48.7119-39.167C48.7119-43.4673 47.146-46.9561 44.1289-49.3369L24.9829-28.0273C27.2339-28.396 29.3721-28.5391 31.5894-28.5391C36.8799-28.5391 42.1821-27.8218 47.6343-25.1934ZM22.3672 2.45655C24.5713 2.14503 26.0396 0.563976 25.7129-2.18065L24.2598-16.0703L38.9038-16.0703L37.3984-2.18065C37.1206 0.563976 38.5435 2.14503 40.7627 2.45655C43.0308 2.68556 44.7769 1.26271 45.0547-1.41112L47.0298-19.8081C42.1182-22.6167 36.7485-23.7095 31.5894-23.7095C26.3814-23.7095 20.9629-22.6167 16.1978-19.8081L18.124-1.41112C18.3682 1.26271 20.084 2.68556 22.3672 2.45655ZM44.1289-49.3706L51.2935-57.3013C52.4907-58.6299 52.3931-60.1421 51.211-61.0918C50.1113-62.0635 48.7119-62.0972 47.4473-60.7163L39.4341-51.7383C41.1416-51.0815 42.7515-50.2749 44.1289-49.3706ZM10.8652-22.3765C9.58545-21.4082 9.55176-19.9111 10.1597-18.8789C10.7793-17.8618 12.1533-17.3398 13.519-18.2036C14.4131-18.7861 15.2734-19.3047 16.1978-19.8081L15.5444-25.1934C13.8472-24.4121 12.3184-23.5181 10.8652-22.3765ZM52.2612-22.3765C50.8418-23.5181 49.2944-24.4121 47.6343-25.1934L46.9961-19.8081C47.9204-19.3047 48.7319-18.7861 49.5923-18.2036C50.9883-17.3398 52.2949-17.8281 52.9668-18.8603C53.627-19.8589 53.627-21.3745 52.2612-22.3765ZM76.1236-49.0879L76.1236-39.9248C76.1236-37.2661 78.0801-35.3433 80.7051-35.3433L87.9605-35.3433C90.5366-35.3433 92.5083-37.2661 92.5083-39.9248L92.5083-49.0879C92.5083-51.7466 90.5366-53.7031 87.9605-53.7031L80.7051-53.7031C78.0801-53.7031 76.1236-51.7466 76.1236-49.0879ZM65.5259-22.1694L65.5259-12.9727C65.5259-10.3477 67.4487-8.39111 70.1074-8.39111L77.3628-8.39111C79.9878-8.39111 81.9595-10.3477 81.9595-12.9727L81.9595-22.1694C81.9595-24.7944 79.9878-26.751 77.3628-26.751L70.1074-26.751C67.4487-26.751 65.5259-24.7944 65.5259-22.1694ZM86.6724-22.1694L86.6724-12.9727C86.6724-10.3477 88.5952-8.39111 91.2202-8.39111L98.4756-8.39111C101.134-8.39111 103.057-10.3477 103.057-12.9727L103.057-22.1694C103.057-24.7944 101.134-26.751 98.4756-26.751L91.2202-26.751C88.5952-26.751 86.6724-24.7944 86.6724-22.1694ZM76.6997-59.3438L91.8985-59.3438C92.9863-59.3438 93.2119-60.4771 92.3599-61.0513L85.44-65.7773C84.6856-66.269 83.9126-66.269 83.1582-65.7773L76.2383-61.0513C75.3862-60.4771 75.6118-59.3438 76.6997-59.3438Z"/>
</svg>