<svg xmlns="http://www.w3.org/2000/svg" viewBox="9.76562 -83.2822 63.69 95.98">
  <path d="M31.5942-52.4976C36.1118-52.4976 39.8482-56.1851 39.8482-60.8003C39.8482-65.3364 36.1118-68.9902 31.5942-68.9902C27.0093-68.9902 23.3555-65.3364 23.3555-60.8003C23.3555-56.1851 27.0093-52.4976 31.5942-52.4976ZM9.76562-34.1274C9.76562-31.1421 12.8486-29.8052 15.1807-30.9956L28.4136-37.6348C29.0332-37.9614 29.7505-37.5859 29.9307-36.9175L33.731-21.5327L27.7114-6.42577L13.502-6.42577C11.4629-6.42577 9.76562-4.7622 9.76562-2.72314C9.76562-0.69921 11.4629 0.949228 13.502 0.949228L30.0283 0.949228C31.7256 0.949228 32.7695 0.295907 33.5845-1.22118L41.6431-16.084L46.1304-4.24023L31.8721 5.32032C30.1748 6.46192 29.7017 8.82765 30.8281 10.4761C31.9697 12.1397 34.1065 12.6953 35.9502 11.4712L52.8184 0.247079C54.0913-0.601554 54.7109-1.84081 54.1401-4.09374L44.1401-43.8833C43.9448-44.7471 44.1401-45.498 45.0864-45.9712L70.8467-58.8101C72.6904-59.7075 73.4566-61.9756 72.5103-63.8193C71.564-65.6631 69.3447-66.3955 67.5195-65.4829L17.2046-40.2935L17.2046-52.8731C17.2046-54.9121 15.5562-56.5606 13.502-56.5606C11.4629-56.5606 9.76562-54.9121 9.76562-52.8731ZM61.7744-68.6636C65.8223-68.6636 69.0518-71.9116 69.0518-75.9409C69.0518-79.9702 65.8223-83.2822 61.7744-83.2822C57.73-83.2822 54.4668-79.9702 54.4668-75.9409C54.4668-71.9116 57.73-68.6636 61.7744-68.6636Z"/>
</svg>