<svg xmlns="http://www.w3.org/2000/svg" viewBox="9.22852 -80.1973 64.65 90.1">
  <path d="M39.1309-63.7197C43.667-63.7197 47.3696-67.4224 47.3696-71.9585C47.3696-76.4761 43.667-80.1973 39.1309-80.1973C34.6133-80.1973 30.877-76.4761 30.877-71.9585C30.877-67.4224 34.6133-63.7197 39.1309-63.7197ZM13.6973-52.5044L25.9653-52.5044C26.5361-52.5044 27.0093-52.0313 26.9605-51.4605L25.77-35.5537C25.3457-29.8271 28.6577-26.3198 33.4868-25.3247L49.2622-22.0127L52.6567-5.11083C53.1299-2.79394 55.4131-1.70116 57.1592-2.02782C59.2959-2.45214 60.6665-4.54003 60.2422-6.66161L56.3594-26.0757C56.0664-27.5928 54.7935-28.6519 53.374-29.125L41.2036-32.959L42.2476-47.6265C42.3452-48.7681 43.438-49.1924 44.2866-48.4902L50.0772-43.71C50.7642-43.1392 51.6128-42.8125 52.5591-42.8125L70.0469-42.8125C72.2324-42.8125 73.8809-44.5435 73.8809-46.6465C73.8809-48.8169 72.2324-50.5142 70.0469-50.5142L53.9297-50.5142L45.5596-57.5288C43.438-59.29 41.4966-60.2852 38.4624-60.2852L18.9507-60.2852L23.2578-74.6748C23.8774-76.7627 22.7022-78.9331 20.6631-79.5527C18.6089-80.1572 16.3897-78.9819 15.77-76.8941L9.99463-57.4951C9.22852-54.9678 10.4341-52.5044 13.6973-52.5044ZM30.0772 9.34278C31.9209 9.89845 34.2529 9.04981 34.9551 6.76661L40.7305-12.501C40.877-13.0229 40.9258-13.5937 40.9258-14.1982L40.9258-20.1216L32.7661-21.8525C32.6045-21.9014 32.4277-21.9165 32.2661-21.9653L33.1113-14.1982L27.5161 4.54737C26.9116 6.5713 28.0532 8.72315 30.0772 9.34278Z"/>
</svg>