<svg xmlns="http://www.w3.org/2000/svg" viewBox="6.83594 -73.9316 77.39 77.36">
  <path d="M45.5137 3.42383C66.8823 3.42383 84.2251-13.8853 84.2251-35.2539C84.2251-56.6226 66.8823-73.9316 45.5137-73.9316C24.1787-73.9316 6.83594-56.6226 6.83594-35.2539C6.83594-13.8853 24.1787 3.42383 45.5137 3.42383ZM45.5137-2.27247C27.2778-2.27247 12.5508-17.0181 12.5508-35.2539C12.5508-53.4897 27.2778-68.2353 45.5137-68.2353C63.7495-68.2353 78.4951-53.4897 78.4951-35.2539C78.4951-17.0181 63.7495-2.27247 45.5137-2.27247ZM33.6231-47.8867C36.0308-47.8867 37.9839-49.8398 37.9839-52.2324C37.9839-54.6401 36.0308-56.5933 33.6231-56.5933C31.2153-56.5933 29.2622-54.6401 29.2622-52.2324C29.2622-49.8398 31.2153-47.8867 33.6231-47.8867ZM59.0459-48.7202C61.4536-48.7202 63.4067-50.6733 63.4067-53.0659C63.4067-55.5073 61.4536-57.4604 59.0459-57.4604C56.6533-57.4604 54.6851-55.5073 54.6851-53.0659C54.6851-50.6733 56.6533-48.7202 59.0459-48.7202ZM21.438-42.4282L25.8545-42.0864C26.1743-42.0713 26.4033-41.8423 26.4033-41.4888L26.4033-33.395C26.4033-31.7837 26.9067-30.1875 27.8833-28.918L33.1079-22.2285L30.4561-13.3906C30.1143-12.2187 30.7642-10.998 31.9058-10.6714C32.9951-10.3784 34.2158-10.8667 34.6065-12.1362L37.585-22.082C37.6338-22.2773 37.6826-22.4238 37.6826-22.6191L45.7393-12.4292C46.4717-11.4863 47.8726-11.3062 48.7515-12.0386C49.728-12.8198 49.9233-14.1533 49.1421-15.1147L34.7529-33.2974L35.3877-39.7915C35.4365-40.231 35.876-40.4751 36.2666-40.2798L41.2959-37.7896C41.6377-37.6094 42.2236-37.4629 42.7456-37.4629L50.4116-37.4629C50.9487-37.4629 51.437-37.6094 51.8276-37.9512L55.4746-41.1099C55.8315-41.4028 56.3047-41.2563 56.4512-40.8169L58.5171-35.1191L49.8594-32.7754C48.9956-32.5312 48.3457-31.7837 48.2632-30.8711L47.2866-20.9102C47.1401-19.4941 48.376-18.5664 49.4351-18.5664C50.5581-18.5664 51.4858-19.3477 51.5835-20.5195L52.4136-28.7715L58.4683-29.6992L55.5874-23.8887C55.2456-23.2539 55.0654-22.5703 55.3433-21.9019L59.332-11.9746C59.8203-10.7539 61.1538-10.3296 62.1792-10.7539C63.2871-11.1934 63.8242-12.478 63.3848-13.5522L59.8355-22.4238L64.7183-29.3911C65.939-31.1489 66.4121-33.3613 66.0366-35.4458L65.2891-39.645C65.1914-40.1821 65.6309-40.5391 66.1343-40.3774L68.6582-39.5474C70.3672-38.9951 71.6856-40.002 71.4902-41.7446L70.6148-50.8262C70.502-52.1226 69.3789-52.9258 68.2373-52.7944C67.0806-52.6968 66.1226-51.6494 66.269-50.3867L66.8516-44.708L60.8608-46.7251C58.4043-47.54 55.7827-47.0669 53.7808-45.3579L49.6304-41.7935L42.9561-41.7935L36.5596-45.001C35.583-45.5044 34.6065-45.7485 33.5322-45.8462L24.5142-46.5298L26.3106-51.8853C26.686-53.0908 26.1001-54.2778 24.9434-54.6685C23.8203-55.0254 22.5996-54.4243 22.209-53.3013L19.5186-45.2939C19.0454-43.9082 20.022-42.5259 21.438-42.4282Z" />
</svg>