<svg xmlns="http://www.w3.org/2000/svg" viewBox="9.76562 -76.1411 78.97 79.17">
  <path d="M73.0904-60.1519C73.6377-61.2466 73.124-62.5923 71.9956-63.106C70.8823-63.6382 69.5703-63.1397 69.0381-62.0112L59.8882-42.4014C59.3711-41.3066 59.8545-39.9609 60.9829-39.4473C62.0962-38.915 63.4234-39.4136 63.9556-40.542L65.1729-43.123L76.8247-42.4849L82.065-39.9624C84.8487-38.6455 87.0176-39.71 87.8545-41.6431C88.7403-43.4971 88.0718-45.8076 85.6367-46.9746L79.3491-50.0376L72.0381-57.8521ZM60.6494-61.1318C62.1328-60.4785 63.3081-61.376 63.064-63.0396L61.5352-73.9522C61.3247-75.5029 59.8716-76.1411 58.6323-75.2437L49.5112-68.9497C48.1221-67.9546 48.415-66.4712 49.7705-65.8667ZM55.9483-50.9365L45.0845-55.6563C43.6011-56.3096 42.377-55.4946 42.6211-53.7485L44.1987-42.8174C44.4092-41.334 45.8135-40.647 47.0527-41.5444L56.1587-47.8535C57.563-48.8486 57.3677-50.332 55.9483-50.9365ZM19.9575-53.0161C14.3135-53.0161 9.76562-57.7476 9.76562-63.2114C9.76562-68.9043 14.3135-73.5381 19.9575-73.5381C25.6353-73.5381 30.2051-68.9043 30.2051-63.2114C30.2051-57.5322 25.6353-53.0161 19.9575-53.0161ZM80.8262 0.960946C78.8696 3.03028 75.5274 2.85352 73.1279 0.375009L56.834-16.3921C56.2969-16.9629 55.9063-17.1094 55.1065-16.7827L42.2495-11.8999C34.0899-8.81689 26.4941-11.6435 22.854-18.2739L14.8052-32.8662C11.6431-38.6719 12.6685-44.624 18.1626-47.5605C23.4985-50.5122 29.0264-48.2778 32.2559-42.3745L42.8569-23.0312L51.8618-26.3096C56.312-27.9395 60.0484-27.4175 63.6045-23.7637L80.4844-6.26415C82.8501-3.83447 82.6211-0.833976 80.8262 0.960946Z"/>
</svg>