<svg xmlns="http://www.w3.org/2000/svg" viewBox="9.20654 -79.1753 79.79 88.68">
  <path d="M21.0552-19.7598L10.606-4.81836C9.20654-2.81103 9.58203-0.768548 11.5591 0.630867L19.7622 6.34376C21.7207 7.72804 23.7632 7.36769 25.1475 5.42432L35.6455-9.51708C37.0112-11.5244 36.6358-13.5669 34.6436-14.9512L26.4893-20.6641C24.4971-22.0786 22.4546-21.7183 21.0552-19.7598ZM38.2783-31.3594L25.1699-12.686L28.3496-10.4663L41.458-29.1885ZM42.2339 5.76466L54.1567-8.42626C55.2983-9.77831 55.4448-10.1235 55.918-11.5581L56.9551-14.6475L50.6021-22.6001L48.585-13.2925L36.8086 0.684577C33.0352 5.06251 39.1289 9.40675 42.2339 5.76466ZM71.2891 4.58936C73.7222 9.5044 81.0064 6.5005 78.3443 1.17628L70.2554-15.249C69.6509-16.458 68.7686-17.7646 68.021-18.8389L62.8687-26.1768L63.2442-27.2661C64.6182-31.3257 65.1182-33.8228 65.396-37.8706L66.2109-49.3203C66.6016-54.8145 63.3604-58.8994 57.8374-58.8994C53.6919-58.8994 50.8682-56.7627 47.019-53.0112L40.9507-47.0254C39.0059-45.1143 38.3408-43.5264 38.1455-40.9688L37.4434-31.5732C37.2632-29.2227 38.5547-27.5894 40.6948-27.5068C42.8989-27.3603 44.2241-28.6519 44.4531-31.1338L45.3169-41.4385L48.2349-44.0635C49.294-45.0249 50.752-44.4019 50.6543-43.2856L50.0195-34.5923C49.6777-30.1875 50.688-28.1299 53.7222-24.3296L61.7471-14.2808C62.562-13.2554 62.6597-12.8462 62.9863-12.2114ZM85.0777-43.3901L75.896-43.3901L69.7959-50.1553L69.1763-40.5659L71.7622-38.0288C73.0689-36.7222 74.1802-36.3315 76.5308-36.3315L85.0777-36.3315C87.4282-36.3315 88.9976-37.687 88.9976-39.876C88.9976-42.0161 87.3945-43.3901 85.0777-43.3901ZM62.249-62.4976C66.8609-62.4976 70.5786-66.2305 70.5786-70.8272C70.5786-75.4424 66.8609-79.1753 62.249-79.1753C57.6338-79.1753 53.9009-75.4424 53.9009-70.8272C53.9009-66.2305 57.6338-62.4976 62.249-62.4976Z"/>
</svg>