<svg xmlns="http://www.w3.org/2000/svg" viewBox="6.83594 -73.8828 77.39 77.36">
  <path d="M45.5137 3.47266C66.8521 3.47266 84.2251-13.9004 84.2251-35.2051C84.2251-56.5098 66.8521-73.8828 45.5137-73.8828C24.209-73.8828 6.83594-56.5098 6.83594-35.2051C6.83594-13.9004 24.209 3.47266 45.5137 3.47266ZM30.5083-14.1934C29.604-14.1934 28.8242-14.9883 28.8242-15.8657L28.8242-48.9409C28.8242-50.5088 29.5938-51.6455 31.1665-52.3511C32.5557-52.9893 33.8184-53.3462 36.8071-53.3462C43.9023-53.3462 48.356-49.8154 55.0689-49.8154C58.3369-49.8154 60.1065-50.6758 61.2026-50.6758C62.6729-50.6758 63.2656-49.918 63.2656-48.7998L63.2656-29.4082C63.2656-27.7729 62.5264-26.7002 60.9536-25.9458C59.4888-25.2808 58.1621-24.9692 55.2642-24.9692C48.4048-24.9692 44.0186-28.4663 37.0024-28.4663C34.5259-28.4663 32.918-27.9478 32.1436-27.6396L32.1436-15.8657C32.1436-14.9546 31.5137-14.1934 30.5083-14.1934ZM31.6567-36.3452C31.98-37.0103 33.687-37.874 36.7261-37.874C37.6724-37.874 38.1826-37.8252 38.8057-37.7427L38.8057-31.2603C41.54-31.0498 43.8687-30.3662 46.1787-29.686L46.1787-36.0674C48.7192-35.207 50.8814-34.7188 53.5029-34.4561L53.5029-27.9736C54.0586-27.8726 54.7153-27.8237 55.4395-27.8237C58.4785-27.8237 60.1856-28.7061 60.5088-29.4199L60.5088-35.0654C58.9468-34.6025 57.2041-34.3735 55.1768-34.3735C54.52-34.3735 53.9341-34.4224 53.5029-34.4561L53.5029-41.0781C53.9492-41.0444 54.5689-40.9956 55.1768-40.9956C57.5254-40.9956 59.4834-41.4282 60.5088-41.6724L60.5088-47.71C58.9468-47.2656 57.2041-47.0181 55.1768-47.0181C54.584-47.0181 54.0098-47.0181 53.5029-47.0669L53.5029-41.0781C50.9165-41.2769 48.5981-41.8965 46.1787-42.6406L46.1787-48.6631C43.8013-49.3955 41.4727-50.1582 38.8057-50.4058L38.8057-44.3496C38.1406-44.4658 37.3794-44.4995 36.7261-44.4995C33.7022-44.4995 31.98-43.6172 31.6567-42.937ZM38.8057-37.7427L38.8057-44.3496C41.54-44.0903 43.6885-43.4033 46.1787-42.6406L46.1787-36.0674C43.542-36.8301 41.4912-37.48 38.8057-37.7427Z"/>
</svg>