<svg xmlns="http://www.w3.org/2000/svg" viewBox="6.83594 -77.5142 85.79 84.81">
  <path d="M49.7715-1.71046C65.2729-1.71046 78.5049-12.6392 81.8232-26.748C79.5854-23.812 75.8682-22.0781 71.7974-22.0781C67.9536-22.0781 64.418-23.5664 62.0894-26.1963C61.2256-27.1543 60.3433-27.188 59.4946-26.1963C57.3008-23.6675 53.6826-22.0781 49.7378-22.0781C45.7744-22.0781 42.2051-23.6675 39.9624-26.1963C39.1475-27.188 38.2315-27.1543 37.3677-26.1963C35.0391-23.5664 31.5371-22.0781 27.6934-22.0781C23.5889-22.0781 19.8716-23.812 17.6338-26.748C21.0869-12.6055 34.2852-1.71046 49.7715-1.71046ZM49.7378 2.0625C50.7681 2.0625 51.7681 2.01367 52.8018 1.93457L54.9639 6.06348C55.4707 6.9458 56.2168 7.2793 57.1631 7.13282C58.1616 6.96778 58.7393 6.38672 58.9194 5.34278L59.5088 0.770995C61.5088 0.203612 63.4448-0.473145 65.3018-1.32666L68.7251 1.80371C69.4946 2.47217 70.3047 2.52442 71.187 2.01758C72.0542 1.55957 72.3506 0.779787 72.1553-0.230467L71.1719-4.71973C72.8823-5.91504 74.48-7.23828 75.9346-8.67431L80.1763-6.93652C81.1226-6.56103 81.9512-6.74121 82.6045-7.51074C83.209-8.28027 83.273-9.09033 82.7358-9.98779L80.2959-13.8691C81.5064-15.5493 82.5215-17.3237 83.4121-19.2295L87.9805-19.0645C89.0093-19.0156 89.688-19.4956 90.0147-20.4268C90.375-21.3765 90.1426-22.1528 89.3428-22.8062L85.7578-25.5879C86.3066-27.5762 86.6939-29.6436 86.874-31.7412L91.1611-33.1001C92.1411-33.4268 92.6211-34.0718 92.6211-35.0854C92.6211-36.0991 92.1411-36.7778 91.1611-37.0708L86.8926-38.4448C86.6973-40.561 86.3589-42.647 85.8101-44.6504L89.3428-47.4136C90.1577-48.082 90.375-48.813 89.9995-49.7778C89.688-50.7241 89.0244-51.1855 87.9653-51.1367L83.5503-50.9902C82.6445-52.9146 81.5772-54.7261 80.3818-56.4399L82.7358-60.1982C83.273-61.0957 83.209-61.8755 82.5557-62.6602C81.9512-63.46 81.1226-63.6401 80.1611-63.2495L76.0913-61.5825C74.5879-63.0859 72.9531-64.4614 71.2241-65.6938L72.1553-69.9893C72.3506-70.9995 72.0542-71.7305 71.1719-72.2373C70.3047-72.7593 69.4946-72.6582 68.71-71.9746L65.4585-69.0498C63.583-69.9219 61.561-70.6509 59.4902-71.2183L58.9043-75.5625C58.7241-76.5728 58.1616-77.1724 57.148-77.3525C56.2168-77.5142 55.4707-77.1318 54.9487-76.2192L52.8911-72.3818C51.8389-72.4609 50.8203-72.5098 49.7378-72.5098C48.6367-72.5098 47.6182-72.4609 46.5508-72.3818L44.4932-76.2344C43.9863-77.1318 43.2588-77.499 42.2939-77.3525C41.2954-77.1875 40.7178-76.5576 40.5376-75.5474L40.0005-71.2183C37.896-70.6509 35.8589-69.9067 33.9985-69.0347L30.7319-71.9897C29.9473-72.6582 29.1523-72.7441 28.27-72.2373C27.4028-71.7456 27.1064-70.9844 27.3018-69.9741L28.2329-65.709C26.5039-64.4614 24.8389-63.0708 23.3506-61.5337L19.2656-63.2495C18.3345-63.625 17.5396-63.4448 16.8862-62.6602C16.248-61.9243 16.1841-61.0806 16.7212-60.1831L19.0752-56.4399C17.8799-54.7261 16.7974-52.8994 15.8916-50.9751L11.4766-51.1216C10.4478-51.1704 9.76904-50.709 9.44238-49.7778C9.08203-48.8281 9.31445-48.0518 10.148-47.3984L13.647-44.6655C13.1167-42.647 12.7446-40.561 12.5493-38.4448L8.2959-37.0708C7.34961-36.7778 6.83594-36.0991 6.83594-35.0854C6.83594-34.0718 7.34961-33.4268 8.2959-33.1001L12.583-31.7412C12.7632-29.6436 13.1353-27.5762 13.6841-25.5879L10.148-22.791C9.29932-22.1226 9.08203-21.3916 9.45752-20.4268C9.76904-19.4805 10.4326-18.9853 11.4917-19.0342L16.0449-19.2144C16.9356-17.3086 17.9356-15.5493 19.1611-13.8691L16.7212-9.97266C16.1841-9.07519 16.248-8.29541 16.9014-7.51074C17.5396-6.72607 18.3345-6.5459 19.2959-6.93652L23.5225-8.67431C24.9771-7.22314 26.6084-5.91504 28.2852-4.71973L27.3018-0.215331C27.1064 0.794923 27.4028 1.54444 28.2852 2.01758C29.1523 2.53955 29.9473 2.47217 30.7471 1.78858L34.1553-1.32666C36.0122-0.473145 37.9482 0.203612 39.9482 0.770995L40.5864 5.35791C40.7329 6.40186 41.2954 6.95264 42.3091 7.13282C43.2588 7.29444 43.9863 6.9458 44.5083 6.03321L46.6704 1.93457C47.7041 2.01367 48.7041 2.0625 49.7378 2.0625ZM49.7378-3.54591C32.2212-3.54591 17.9961-17.7373 17.9961-35.2539C17.9961-52.7705 32.2212-66.9619 49.7378-66.9619C67.2695-66.9619 81.4609-52.7705 81.4609-35.2539C81.4609-17.7373 67.2695-3.54591 49.7378-3.54591Z"/>
</svg>