<svg xmlns="http://www.w3.org/2000/svg" viewBox="9.76562 -69.7358 49.4 68.92">
  <path d="M22.6631-0.820795C24.6153-0.820795 25.9644-2.26758 25.9644-4.23487L25.9644-13.9517L43.5811-13.9517C44.8291-13.9517 45.7402-14.915 45.7402-16.227C45.7402-17.5088 44.8291-18.4536 43.5811-18.4536L25.9644-18.4536L25.9644-33.4058L53.2979-33.4058C55.0816-33.4058 56.3482-34.6201 56.3482-36.3364C56.3482-38.0527 55.0816-39.3008 53.2979-39.3008L25.9644-39.3008L25.9644-63.7549L56.1113-63.7549C57.895-63.7549 59.1616-64.9541 59.1616-66.7378C59.1616-68.4878 57.895-69.7358 56.1113-69.7358L22.6631-69.7358C20.6284-69.7358 19.2979-68.3564 19.2979-66.2881L19.2979-18.4536L11.9736-18.4536C10.6768-18.4536 9.76562-17.5088 9.76562-16.227C9.76562-14.915 10.6768-13.9517 11.9736-13.9517L19.2979-13.9517L19.2979-4.23487C19.2979-2.28613 20.6284-0.820795 22.6631-0.820795Z"/>
</svg>