<svg xmlns="http://www.w3.org/2000/svg" viewBox="6.83594 -73.9316 77.39 77.36">
  <path d="M45.5137 3.42383C66.8521 3.42383 84.2251-13.9492 84.2251-35.2539C84.2251-56.5586 66.8521-73.9316 45.5137-73.9316C24.209-73.9316 6.83594-56.5586 6.83594-35.2539C6.83594-13.9492 24.209 3.42383 45.5137 3.42383ZM39.0527-17.1362C37.7593-17.1362 36.8818-18.0625 36.8818-19.3408L36.8818-23.7129L33.1152-23.7129C32.4702-23.7129 31.9263-24.2231 31.9263-24.9507C31.9263-25.5957 32.4702-26.1396 33.1152-26.1396L36.8818-26.1396L36.8818-50.231C36.8818-51.6069 37.7104-52.4356 39.0679-52.4356L55.7168-52.4356C56.8452-52.4356 57.689-51.6592 57.689-50.5645C57.689-49.5186 56.8452-48.7085 55.7168-48.7085L41.1563-48.7085L41.1563-37.0762L54.3496-37.0762C55.4443-37.0762 56.2881-36.2813 56.2881-35.2539C56.2881-34.1929 55.4443-33.4316 54.3496-33.4316L41.1563-33.4316L41.1563-26.1396L49.7109-26.1396C50.4385-26.1396 50.915-25.5957 50.915-24.9507C50.915-24.2231 50.4385-23.7129 49.7109-23.7129L41.1563-23.7129L41.1563-19.3408C41.1563-18.0625 40.2637-17.1362 39.0527-17.1362Z"/>
</svg>