<svg xmlns="http://www.w3.org/2000/svg" viewBox="9.76562 -73.312 119.04 76.15">
  <path d="M104.413-4.92137C111.273-4.92137 116.811-10.4258 116.811-17.3345C116.811-22.1216 114.082-25.9893 110.382-27.9946C109.019-28.7422 108.396-29.7998 108.396-31.8286L108.396-61.2285C108.396-63.4243 106.639-65.211 104.447-65.211C102.236-65.211 100.48-63.4243 100.48-61.2285L100.48-31.8286C100.48-29.8672 99.8228-28.8433 98.3916-28.062C94.7261-26.0229 92.064-22.1216 92.064-17.3345C92.064-10.4258 97.5684-4.92137 104.413-4.92137ZM118.547-57.4409L126.737-57.4409C127.948-57.4409 128.807-58.3706 128.807-59.4805C128.807-60.5415 127.948-61.4712 126.737-61.4712L118.547-61.4712C117.321-61.4712 116.511-60.5415 116.511-59.4805C116.511-58.3706 117.321-57.4409 118.547-57.4409ZM118.547-47.7383L126.737-47.7383C127.948-47.7383 128.807-48.6865 128.807-49.7627C128.807-50.8389 127.948-51.7534 126.737-51.7534L118.547-51.7534C117.321-51.7534 116.511-50.8389 116.511-49.7627C116.511-48.6865 117.321-47.7383 118.547-47.7383ZM118.547-38.0542L126.737-38.0542C127.948-38.0542 128.807-38.9687 128.807-40.0449C128.807-41.1211 127.948-42.0356 126.737-42.0356L118.547-42.0356C117.321-42.0356 116.511-41.1211 116.511-40.0449C116.511-38.9687 117.321-38.0542 118.547-38.0542ZM14.937 0.535646L19.8013 0.535646L19.8164-64.501C19.8164-67.0542 21.082-68.4175 23.6992-68.4175L51.9136-68.4175C54.4365-68.4175 55.7964-67.0879 55.7964-64.501L55.8115 0.535646L60.6758 0.535646L60.6758-64.5986C60.6758-70.2358 57.6299-73.312 52.0112-73.312L23.6016-73.312C17.9341-73.312 14.937-70.2324 14.937-64.5986ZM25.1992-42.2334L50.4136-42.2334C51.666-42.2334 52.6021-43.1846 52.6021-44.4219L52.6021-63.0044C52.6021-64.272 51.6509-65.208 50.4136-65.208L25.1992-65.208C23.9468-65.208 23.0259-64.272 23.0259-63.0044L23.0259-44.4219C23.0259-43.1846 23.9317-42.2334 25.1992-42.2334ZM9.76562 0.356933C9.76562 1.73975 10.8638 2.8379 12.1792 2.8379L63.4185 2.8379C64.7339 2.8379 65.8657 1.73975 65.8657 0.356933C65.8657-0.924808 64.7339-2.05665 63.4185-2.05665L12.1792-2.05665C10.8638-2.05665 9.76562-0.958499 9.76562 0.356933ZM73.6138-5.83495C79.6958-5.83495 83.146-9.91992 83.146-17.1772C83.146-25.7173 81.4824-35.5942 78.2901-51.1421L77.4585-55.145C76.7984-58.2842 75.8955-60.7163 73.9741-63.1294L69.9571-68.1011C68.3672-70.1221 65.3306-67.8198 67.0215-65.6978L71.9614-59.5068C72.2695-59.1011 72.2881-58.5454 72.0254-58.0689L69.0757-52.5752C68.3633-51.3003 68.5249-50.3623 69.5742-49.2119L76.1001-42.25C78.2637-32.3164 79.4307-24.0063 79.4307-17.1772C79.4307-12.293 77.3413-9.56543 73.6138-9.56543C70.3711-9.56543 68.2212-11.7002 68.2212-15.3467C68.2212-20.2383 69.0362-26.9346 69.0362-33.0146C69.0362-38.856 66.1148-43.335 59.2407-45.6738L57.7183-42.3037C63.0444-40.5645 65.3023-37.1953 65.3023-33.0146C65.3023-27.5425 64.4722-20.8613 64.4722-15.3467C64.4722-9.44335 68.0806-5.83495 73.6138-5.83495Z"/>
</svg>