<svg xmlns="http://www.w3.org/2000/svg" viewBox="9.76562 -69.5103 109.78 68.62">
  <path d="M33.0601-42.9014C33.0601-44.6362 34.1397-45.7495 35.957-45.7495L43.5342-45.7495L43.5342-53.2573C43.5342-55.041 44.5801-56.1543 46.3149-56.1543C48.0161-56.1543 49.062-55.041 49.062-53.2573L49.062-45.7495L56.3174-45.7495C58.2695-45.7495 59.4165-44.6362 59.4165-42.9014C59.4165-41.0991 58.2695-39.9858 56.3174-39.9858L49.062-39.9858L49.062-32.4443C49.062-30.6606 48.0161-29.5625 46.3149-29.5625C44.5801-29.5625 43.5342-30.6606 43.5342-32.4443L43.5342-39.9858L35.957-39.9858C34.1397-39.9858 33.0601-41.0991 33.0601-42.9014ZM89.0049-43.4902C85.9756-43.4902 83.4346-45.9336 83.4346-49.0117C83.4346-52.105 85.9756-54.5483 89.0049-54.5483C92.083-54.5483 94.5567-52.105 94.5567-49.0117C94.5567-45.9336 92.083-43.4902 89.0049-43.4902ZM77.2764-31.7715C74.2319-31.7715 71.7061-34.2485 71.7061-37.3267C71.7061-40.3862 74.2319-42.8633 77.2764-42.8633C80.3545-42.8633 82.813-40.3862 82.813-37.3267C82.813-34.2485 80.3545-31.7715 77.2764-31.7715ZM23.9839-0.888178C28.9751-0.888178 32.5816-2.76562 35.7808-6.66699L42.7983-15.1797C43.8018-16.3935 44.9434-16.9643 46.1387-16.9643L83.1397-16.9643C84.3535-16.9643 85.4951-16.3935 86.5137-15.1797L93.5313-6.66699C96.6968-2.76562 100.303-0.888178 105.294-0.888178C113.843-0.888178 119.546-6.58789 119.546-15.332C119.546-19.0532 118.652-23.4092 117.172-28.3862C114.829-36.2139 110.742-46.8618 106.775-55.2012C103.561-61.9751 101.909-64.9775 94.0171-66.7573C86.7066-68.4141 76.7002-69.5103 64.6392-69.5103C52.6118-69.5103 42.5903-68.4141 35.2949-66.7573C27.4028-64.9775 25.751-61.9751 22.5029-55.2012C18.5698-46.8618 14.4834-36.2139 12.1396-28.3862C10.6597-23.4092 9.76562-19.0532 9.76562-15.332C9.76562-6.58789 15.4688-0.888178 23.9839-0.888178Z"/>
</svg>