<svg xmlns="http://www.w3.org/2000/svg" viewBox="9.76562 -66.814 46.34 63.32">
  <path d="M56.1035-6.46436C56.1035-8.11329 54.7358-9.48097 53.0869-9.48097L12.7822-9.48097C11.1333-9.48097 9.76562-8.11329 9.76562-6.46436C9.76562-4.83057 11.1333-3.49658 12.7822-3.49658L53.0869-3.49658C54.7358-3.49658 56.1035-4.83057 56.1035-6.46436ZM14.604-22.4985C15.5523-22.4985 16.1821-22.7612 16.8794-23.1099L52.7397-40.166C54.6616-41.084 56.1035-42.4365 56.1035-44.5571C56.1035-46.6441 54.665-48.0791 52.7129-48.9634L16.8794-66.27C16.2495-66.5513 15.6196-66.814 14.7051-66.814C12.9399-66.814 11.7407-65.6147 11.7407-63.8159C11.7407-62.2798 12.5459-61.3652 13.9102-60.7842L48.1133-44.958L48.1133-44.6128L13.9102-28.562C12.5796-27.9136 11.7407-27.0664 11.7407-25.5303C11.7407-23.6978 12.9063-22.4985 14.604-22.4985Z"/>
</svg>