<svg xmlns="http://www.w3.org/2000/svg" viewBox="9.06396 -75.3076 77.94 80.45">
  <path d="M30.1011 3.93263C34.2891 2.72022 36.2139-0.912106 34.9864-5.09668L29.4185-23.7373C28.1573-27.8916 24.6714-29.8013 20.438-28.5737C16.25-27.3613 14.2915-23.7441 15.5527-19.5444L21.1206-0.903806C22.3482 3.25049 25.8677 5.14503 30.1011 3.93263ZM22.5903 1.06983C24.0254 0.30176 24.3926-1.27979 23.5269-2.87647C18.3882-12.2598 15.4805-23.4766 15.4805-33.8179C15.4805-40.9287 16.9902-47.2905 19.7793-52.4438L15.3647-56.8584C11.7436-50.521 9.76562-42.7241 9.76562-33.8179C9.76562-22.3667 13.0894-9.75537 18.6929 0.0507832C19.4946 1.50098 21.0913 1.90186 22.5903 1.06983ZM66.5654 3.93263C69.7021 4.85694 72.3154 3.97657 74.0078 1.80323L62.9546-9.25342L61.6802-5.09668C60.4038-0.878415 62.3589 2.72022 66.5654 3.93263ZM82.2808-9.22363C85.1919-17.0547 86.8672-25.7124 86.8672-33.8179C86.8672-58.8066 71.5044-75.3076 48.3071-75.3076C38.7217-75.3076 30.4663-72.4639 24.0781-67.4263L28.3242-63.1802C33.6294-67.3335 40.4346-69.5928 48.3071-69.5928C67.981-69.5928 81.1523-55.2681 81.1523-33.8179C81.1523-31.0718 80.957-28.2954 80.5513-25.4854C79.6807-26.915 78.2173-27.9844 76.2436-28.5737C72.77-29.5654 69.793-28.4644 68.2251-25.71L67.6279-23.8765ZM82.2959 4.10304C83.3115 5.1338 84.9756 5.1338 85.9727 4.10304C86.9849 3.07227 87.0034 1.4419 85.9727 0.426272L13.8052-71.79C12.7896-72.8242 11.1255-72.8208 10.0796-71.79C9.09765-70.793 9.06396-69.1289 10.0796-68.0981Z"/>
</svg>