<svg xmlns="http://www.w3.org/2000/svg" viewBox="9.76562 -78.2261 62.68 86.5">
  <path d="M21.813-62.9341L59.2686-62.9341C56.8238-66.6836 54.1231-70.5088 51.2642-74.3525C49.4502-76.7778 48.0947-78.2261 44.7315-78.2261L36.3501-78.2261C32.9868-78.2261 31.665-76.7778 29.8174-74.3525C26.9585-70.5088 24.2915-66.6836 21.813-62.9341ZM11.0107-39.4619L32.5591-39.4619C33.6387-42.8076 36.7319-45.2188 40.5762-45.2188C44.3379-45.2188 47.4463-42.8076 48.541-39.4619L70.1197-39.4619C69.2945-44.5874 66.5938-50.8589 62.7012-57.5596L18.4141-57.5596C14.4878-50.8589 11.8022-44.5874 11.0107-39.4619ZM40.5762-32.9487C42.7598-32.9487 44.3945-34.5835 44.3945-36.8008C44.3945-38.9844 42.7598-40.6191 40.5762-40.6191C38.3403-40.6191 36.7241-38.9844 36.7241-36.8008C36.7241-34.5835 38.3403-32.9487 40.5762-32.9487ZM32.5322-15.4814L48.5493-15.4814C62.1885-15.4814 69.5049-22.479 70.3369-34.0874L48.5225-34.0874C47.4277-30.7602 44.3193-28.3491 40.5762-28.3491C36.7319-28.3491 33.6572-30.7602 32.5776-34.0874L10.7598-34.0874C11.5767-22.479 18.8931-15.4814 32.5322-15.4814ZM16.0381 8.27443C19.5591 8.27443 22.3594 5.47414 22.3594 1.96827C22.3594-1.5039 19.5591-4.33788 16.0381-4.33788C12.5811-4.33788 9.76562-1.5039 9.76562 1.96827C9.76562 5.47414 12.5811 8.27443 16.0381 8.27443ZM41.1118 8.27443C44.584 8.27443 47.3843 5.47414 47.3843 1.96827C47.3843-1.5039 44.584-4.33788 41.1118-4.33788C37.6397-4.33788 34.8242-1.5039 34.8242 1.96827C34.8242 5.47414 37.6397 8.27443 41.1118 8.27443ZM66.1704 8.27443C69.5938 8.27443 72.4429 5.47414 72.4429 1.96827C72.4429-1.5039 69.5938-4.33788 66.1704-4.33788C62.6831-4.33788 59.8643-1.5039 59.8643 1.96827C59.8643 5.47414 62.6831 8.27443 66.1704 8.27443Z"/>
</svg>