<svg xmlns="http://www.w3.org/2000/svg" viewBox="9.76562 -70.9663 78.36 71.31">
  <path d="M12.479 0.33887C14.0269 0.33887 15.1924-0.878906 15.1924-2.39307L15.1924-68.2529C15.1924-69.8159 14.0269-70.9663 12.479-70.9663C10.9497-70.9663 9.76562-69.8159 9.76562-68.2529L9.76562-2.39307C9.76562-0.878906 10.9497 0.33887 12.479 0.33887ZM31.7539 0.33887C33.2832 0.33887 34.4673-0.878906 34.4673-2.39307L34.4673-68.2529C34.4673-69.8159 33.2832-70.9663 31.7539-70.9663C30.2061-70.9663 29.022-69.8159 29.022-68.2529L29.022-2.39307C29.022-0.878906 30.2061 0.33887 31.7539 0.33887ZM51.0103 0.33887C52.5244 0.33887 53.7236-0.878906 53.7236-2.39307L53.7236-68.2529C53.7236-69.8159 52.5244-70.9663 51.0103-70.9663C49.4961-70.9663 48.2969-69.8159 48.2969-68.2529L48.2969-2.39307C48.2969-0.878906 49.4961 0.33887 51.0103 0.33887ZM73.7149-24.0225L85.9483-32.1943C88.1255-33.6509 88.043-36.7627 85.9483-38.2529L73.7149-46.5899C70.896-48.4741 67.9155-47.4233 67.9492-44.0186L67.9492-26.5112C67.9155-23.2192 71.0274-22.2544 73.7149-24.0225Z" />
</svg>