<svg xmlns="http://www.w3.org/2000/svg" viewBox="9.76562 -69.8906 46.81 69.24">
  <path d="M43.5693-0.650874C45.3193-0.650874 46.5674-1.86523 46.5674-3.59668C46.5674-4.67969 46.084-5.47803 45.2031-6.31007L19.2315-30.2163L24.8955-30.2163C36.8482-30.2163 46.7778-35.6255 48.127-47.7832L54.3525-47.7832C55.6157-47.7832 56.5791-48.7466 56.5791-50.0098C56.5791-51.2881 55.6157-52.2515 54.3525-52.2515L48.2095-52.2515C47.7817-57.8896 45.3374-62.5732 41.1172-65.4375L54.3525-65.4038C55.6157-65.4038 56.5791-66.352 56.5791-67.6304C56.5791-68.9272 55.6157-69.8569 54.3525-69.8569L12.2061-69.8906C10.7256-69.8906 9.81103-68.8564 9.81103-67.1587L9.81103-66.6753C9.81103-65.0601 10.7256-64.0596 12.2061-64.0596L25.5806-64.0596C33.9883-64.0596 40.4263-60.3979 41.3223-52.2515L12.0259-52.2515C10.729-52.2515 9.76562-51.2881 9.76562-50.0098C9.76562-48.7466 10.729-47.7832 12.0259-47.7832L41.3408-47.7832C40.3994-39.3657 33.3862-36.1484 24.9165-36.1484L13.648-36.1484C11.6841-36.1484 9.98291-34.9189 9.98291-32.731L9.98291-32.5508C9.98291-30.917 10.7324-29.8677 12.0259-28.6567L40.4365-2.2207C41.4033-1.30273 42.2353-0.650874 43.5693-0.650874Z"/>
</svg>