<svg xmlns="http://www.w3.org/2000/svg" viewBox="9.76562 -70.1499 89.88 69.86">
  <path d="M75.8266-10.5371L85.7544-10.5371C88.2998-10.5371 89.3989-11.7036 89.3989-14.2827L89.3989-56.1577C89.3989-58.7705 88.2998-59.9033 85.7544-59.9033L75.8266-59.9033C73.2812-59.9033 72.1821-58.7705 72.1821-56.1577L72.1821-14.2827C72.1821-11.7036 73.2812-10.5371 75.8266-10.5371ZM21.3994-0.290522L88.0117-0.290522C95.7559-0.290522 99.6455-4.21045 99.6455-11.8232L99.6455-58.6172C99.6455-66.23 95.7559-70.1499 88.0117-70.1499L21.3994-70.1499C13.689-70.1499 9.76562-66.2603 9.76562-58.6172L9.76562-11.8232C9.76562-4.18017 13.689-0.290522 21.3994-0.290522ZM21.4971-5.75098C17.4214-5.75098 15.1924-7.9126 15.1924-12.0894L15.1924-58.3511C15.1924-62.5615 17.4214-64.6894 21.4971-64.6894L87.9141-64.6894C91.9292-64.6894 94.2187-62.5615 94.2187-58.3511L94.2187-12.0894C94.2187-7.9126 91.9292-5.75098 87.9141-5.75098Z" />
</svg>