<svg xmlns="http://www.w3.org/2000/svg" viewBox="6.83594 -73.9316 77.39 77.36">
  <path d="M45.5137 3.42383C66.8823 3.42383 84.2251-13.8853 84.2251-35.2539C84.2251-56.6226 66.8823-73.9316 45.5137-73.9316C24.1787-73.9316 6.83594-56.6226 6.83594-35.2539C6.83594-13.8853 24.1787 3.42383 45.5137 3.42383ZM45.5137-2.27247C27.2778-2.27247 12.5508-17.0181 12.5508-35.2539C12.5508-53.4897 27.2778-68.2353 45.5137-68.2353C63.7495-68.2353 78.4951-53.4897 78.4951-35.2539C78.4951-17.0181 63.7495-2.27247 45.5137-2.27247ZM55.2358-20C56.8662-20 58.0318-21.1655 58.0318-22.6948C58.0318-23.9917 57.4995-24.7564 56.0527-25.4536L36.5303-35.2422L36.5303-35.4712L56.0527-45.3945C57.4658-46.1103 58.0318-46.9238 58.0318-48.1719C58.0318-49.6826 56.8999-50.833 55.2881-50.833C54.5723-50.833 54.1226-50.7017 53.5938-50.4356L31.0698-38.23C29.7207-37.499 29.0723-36.5356 29.0723-35.2388C29.0723-33.8408 29.687-32.9785 31.0698-32.2476L53.5938-20.4126C54.0889-20.1313 54.5723-20 55.2358-20Z" />
</svg>