<svg xmlns="http://www.w3.org/2000/svg" viewBox="9.76562 -71.2647 95.85 72.02">
  <path d="M9.76562-1.95312C9.76562-0.48779 10.9985 0.76026 12.479 0.76026L102.9 0.76026C104.399 0.76026 105.614-0.48779 105.614-1.95312C105.614-3.41846 104.399-4.66651 102.9-4.66651L12.479-4.66651C10.9985-4.66651 9.76562-3.41846 9.76562-1.95312ZM9.76562-68.5513C9.76562-67.0859 10.9985-65.8379 12.479-65.8379L102.9-65.8379C104.399-65.8379 105.614-67.0859 105.614-68.5513C105.614-70.0503 104.399-71.2647 102.9-71.2647L12.479-71.2647C10.9985-71.2647 9.76562-70.0503 9.76562-68.5513ZM47.6182-17.7632L57.7402-25.1948L67.7949-17.7632C69.5649-16.4731 71.5859-17.6504 70.8398-19.9829L66.8799-31.8374L77.1855-39.2539C79.0264-40.5811 78.2432-42.7754 76.1128-42.7754L63.3877-42.7754L59.5776-54.5659C58.9326-56.6021 56.4839-56.5869 55.854-54.5659L52.0254-42.7754L39.2852-42.7754C37.1362-42.7754 36.3379-40.5811 38.1938-39.2539L48.5518-31.8374L44.5732-19.9829C43.812-17.6504 45.8481-16.4731 47.6182-17.7632Z"/>
</svg>