<svg xmlns="http://www.w3.org/2000/svg" viewBox="9.76562 -70.1196 69.83 69.86">
  <path d="M9.76562-49.9922L15.1924-49.9922L15.1924-58.3208C15.1924-62.4976 17.4214-64.6592 21.4971-64.6592L29.7583-64.6592L29.7583-70.1196L21.3994-70.1196C13.689-70.1196 9.76562-66.23 9.76562-58.5869ZM34.5933-64.6592L54.7974-64.6592L54.7974-70.1196L34.5933-70.1196ZM74.1645-49.9922L79.5913-49.9922L79.5913-58.5869C79.5913-66.1997 75.668-70.1196 67.9575-70.1196L59.6323-70.1196L59.6323-64.6592L67.8599-64.6592C71.875-64.6592 74.1645-62.4976 74.1645-58.3208ZM74.1645-25.2075L79.5913-25.2075L79.5913-45.1572L74.1645-45.1572ZM59.6323-0.260249L67.9575-0.260249C75.668-0.260249 79.5913-4.18017 79.5913-11.793L79.5913-20.3877L74.1645-20.3877L74.1645-12.0591C74.1645-7.84864 71.875-5.72071 67.8599-5.72071L59.6323-5.72071ZM34.5933-0.260249L54.7974-0.260249L54.7974-5.72071L34.5933-5.72071ZM21.3994-0.260249L29.7583-0.260249L29.7583-5.72071L21.4971-5.72071C17.4214-5.72071 15.1924-7.84864 15.1924-12.0591L15.1924-20.3877L9.76562-20.3877L9.76562-11.793C9.76562-4.1499 13.689-0.260249 21.3994-0.260249ZM9.76562-25.2075L15.1924-25.2075L15.1924-45.1572L9.76562-45.1572ZM30.8164-20.0786C30.8164-17.1743 32.1314-15.8408 34.8101-15.8408L54.5469-15.8408C57.2593-15.8408 58.5405-17.1743 58.5405-20.0786L58.5405-35.4844C58.5405-38.2353 57.3604-39.5688 55.0186-39.6885L55.0186-44.4394C55.0186-51.3481 50.8428-55.9399 44.6953-55.9399C38.5142-55.9399 34.3721-51.3481 34.3721-44.4394L34.3721-39.6885C31.9966-39.5688 30.8164-38.2353 30.8164-35.4844ZM37.9946-39.7222L37.9946-44.7764C37.9946-49.3677 40.6968-52.3848 44.6953-52.3848C48.6939-52.3848 51.3623-49.3677 51.3623-44.7764L51.3623-39.7222Z"/>
</svg>