<svg xmlns="http://www.w3.org/2000/svg" viewBox="9.76562 -70.1499 69.83 69.86">
  <path d="M21.3994-0.290522L67.9575-0.290522C75.7017-0.290522 79.5913-4.21045 79.5913-11.8232L79.5913-58.6172C79.5913-66.23 75.7017-70.1499 67.9575-70.1499L21.3994-70.1499C13.689-70.1499 9.76562-66.2603 9.76562-58.6172L9.76562-11.8232C9.76562-4.18017 13.689-0.290522 21.3994-0.290522ZM29.5161-17.1533C27.9194-17.1533 26.9712-18.2026 26.9712-19.9863L26.9712-50.4478C26.9712-52.4199 28.3472-53.7622 30.3042-53.7622C32.0591-53.7622 33.1875-52.9673 33.8628-51.4028L44.5825-24.5254L44.7778-24.5254L55.479-51.4028C56.1543-52.9673 57.2827-53.7622 59.0376-53.7622C60.9946-53.7622 62.3706-52.4199 62.3706-50.4478L62.3706-19.9863C62.3706-18.2026 61.4224-17.1533 59.7734-17.1533C58.2441-17.1533 57.2959-18.2026 57.2959-19.9863L57.2959-43.9595L56.9658-43.9595L47.4404-20.0923C46.8779-18.8022 46.0005-18.1572 44.6465-18.1572C43.3076-18.1572 42.4302-18.8022 41.9014-20.0923L32.376-43.9595L32.0459-43.9595L32.0459-19.9863C32.0459-18.2026 31.0977-17.1533 29.5161-17.1533Z"/>
</svg>