<svg xmlns="http://www.w3.org/2000/svg" viewBox="6.83594 -73.2783 91.3 76.02">
  <path d="M52.5098-57.1812C59.4131-57.1812 65.7305-54.8037 70.7783-50.8335C71.5596-50.2324 72.5513-50.2964 73.2837-51.0288L81.9639-59.6602C82.8428-60.5391 82.8091-61.8086 81.8814-62.5898C73.9273-69.271 63.6597-73.2783 52.5098-73.2783C41.3447-73.2783 31.0435-69.271 23.123-62.5898C22.1953-61.8086 22.1768-60.5391 23.0557-59.6602L31.7022-51.0288C32.4346-50.2964 33.4751-50.2476 34.3052-50.8975C39.3379-54.8037 45.6553-57.1812 52.5098-57.1812ZM6.83594-27.6382C6.83594-16.4394 10.877-6.15673 17.5732 1.79737C18.3545 2.7251 19.6392 2.74024 20.5029 1.86133L29.3364-7.00244C29.9678-7.61523 30.0166-8.47217 29.4341-9.18261C25.3257-14.436 22.9668-20.7686 22.9668-27.6382C22.9668-34.5078 25.3106-40.8252 29.2656-45.8242C29.9004-46.6543 29.8853-47.6948 29.1528-48.4272L20.4878-57.0923C19.624-57.9561 18.3394-57.9712 17.5581-57.0435C10.8618-49.0708 6.83594-38.8184 6.83594-27.6382ZM98.1348-27.6382C98.1348-38.8184 94.1426-49.0708 87.4277-57.0435C86.6465-57.9712 85.3618-57.9561 84.4981-57.0923L75.8516-48.4272C75.1191-47.6948 75.104-46.6543 75.7388-45.8242C79.6939-40.8252 82.0376-34.5078 82.0376-27.6382C82.0376-20.7686 79.6787-14.436 75.5366-9.18261C74.9878-8.47217 75.0366-7.61523 75.6343-7.00244L84.4829 1.86133C85.3467 2.74024 86.6314 2.7251 87.4126 1.79737C94.1275-6.15673 98.1348-16.4394 98.1348-27.6382ZM32.8355-12.8452C33.9302-12.8452 34.624-13.6064 34.624-14.7163L34.624-24.5044L39.1021-24.5044L43.5449-14.1387C43.8936-13.3101 44.4898-12.8452 45.3184-12.8452C46.4131-12.8452 47.0884-13.5762 47.0884-14.4839C47.0884-14.8999 46.957-15.2266 46.6758-15.8413L42.563-25.2622C45.2349-26.3584 47.0986-28.9463 47.0986-32.8237C47.0986-37.9053 44.0191-41.0454 38.7993-41.0454L32.7866-41.0454C31.7256-41.0454 31.0317-40.3364 31.0317-39.2266L31.0317-14.7163C31.0317-13.6064 31.7256-12.8452 32.8355-12.8452ZM34.624-27.3472L34.624-38.0713L38.4844-38.0713C41.7134-38.0713 43.5215-35.9888 43.5215-32.7749C43.5215-29.5391 41.8413-27.3472 38.4995-27.3472ZM52.9087-12.8452C53.8687-12.8452 54.5288-13.5054 54.5288-14.499L54.5288-35.5957L54.7544-35.5957L60.5508-15.0513C60.8135-14.0679 61.4282-13.273 62.5986-13.273C63.7656-13.273 64.3281-14.0156 64.6733-15.1338L70.4883-35.5957L70.7139-35.5957L70.7139-14.499C70.7139-13.5054 71.3403-12.8452 72.3189-12.8452C73.2637-12.8452 73.9238-13.5054 73.9238-14.499L73.9238-38.8779C73.9238-40.4492 72.9639-41.4058 71.3774-41.4058C70.0117-41.4058 69.1123-40.5957 68.7183-39.2637L62.8242-17.9868L62.5161-17.9868L56.4756-39.2788C56.0967-40.5654 55.167-41.4058 53.8652-41.4058C52.2788-41.4058 51.3037-40.4341 51.3037-38.8779L51.3037-14.499C51.3037-13.5054 51.9302-12.8452 52.9087-12.8452Z"/>
</svg>