<svg xmlns="http://www.w3.org/2000/svg" viewBox="6.83594 -73.9316 77.39 77.36">
  <path d="M45.5137 3.42383C66.8521 3.42383 84.2251-13.9492 84.2251-35.2539C84.2251-56.5586 66.8521-73.9316 45.5137-73.9316C24.209-73.9316 6.83594-56.5586 6.83594-35.2539C6.83594-13.9492 24.209 3.42383 45.5137 3.42383ZM24.3115-18.1709L24.3115-45.9487C24.3115-47.2285 24.8369-48.1245 25.9922-48.7998L35.8232-54.4922C36.229-54.7026 36.6499-54.8979 37.0068-55.0967L37.0068-21.2749L28.0703-16.4263C27.4927-16.1113 26.9824-15.8975 26.4722-15.8975C25.1333-15.8975 24.3115-16.7378 24.3115-18.1709ZM39.6138-21.585L39.6138-55.3359C40.0532-55.272 40.4404-55.1104 40.8125-54.8848L50.957-48.6953L50.957-15.2729C50.6641-15.3218 50.3223-15.4683 49.9805-15.645ZM53.5303-15.3369L53.5303-49.002L62.8257-54.0967C63.4033-54.4605 63.9287-54.5918 64.4238-54.5918C65.7627-54.5918 66.5508-53.8677 66.5508-52.3857L66.5508-24.5591C66.5508-23.2944 66.0591-22.3984 64.9038-21.7231L54.2524-15.6079C54.0117-15.48 53.771-15.4009 53.5303-15.3369Z"/>
</svg>