<svg xmlns="http://www.w3.org/2000/svg" viewBox="9.76562 -64.1265 89.49 57.83">
  <path d="M18.3638-6.29882L90.6592-6.29882C95.812-6.29882 99.2573-9.78612 99.2573-14.9927L99.2573-55.4326C99.2573-60.6392 95.812-64.1265 90.6592-64.1265L18.3638-64.1265C13.1958-64.1265 9.76562-60.6392 9.76562-55.4326L9.76562-14.9927C9.76562-9.78612 13.1958-6.29882 18.3638-6.29882ZM18.3672-11.7593C16.46-11.7593 15.1924-13.1362 15.1924-15.1982L15.1924-55.2271C15.1924-57.2891 16.46-58.666 18.3672-58.666L90.6221-58.666C92.563-58.666 93.7969-57.2891 93.7969-55.2271L93.7969-15.1982C93.7969-13.1362 92.563-11.7593 90.6221-11.7593ZM23.6069-16.4883L60.7798-16.4883C62.9854-16.4883 64.398-17.9497 64.398-20.1553L64.398-50.27C64.398-52.4756 62.9854-53.937 60.7798-53.937L23.6069-53.937C21.3525-53.937 19.94-52.4756 19.94-50.27L19.94-20.1553C19.94-17.9497 21.3525-16.4883 23.6069-16.4883ZM24.9732-20.3315C24.2764-20.3315 23.7984-20.8584 23.7984-21.5552L23.7984-48.8701C23.7984-49.582 24.2764-50.0937 24.9732-50.0937L59.3799-50.0937C60.0615-50.0937 60.5547-49.582 60.5547-48.8701L60.5547-21.5552C60.5547-20.8584 60.0615-20.3315 59.3799-20.3315ZM69.5313-9.24121L73.356-9.24121L73.356-61.2178L69.5313-61.2178ZM71.6079-21.73L96.5928-21.73L96.5928-25.5884L71.6079-25.5884ZM78.0127-46.169L89.189-46.169C89.5796-46.169 89.9063-46.4956 89.9063-46.8862L89.9063-53.2197C89.9063-53.6104 89.5796-53.937 89.189-53.937L78.0127-53.937C77.6372-53.937 77.2954-53.6104 77.2954-53.2197L77.2954-46.8862C77.2954-46.4956 77.6372-46.169 78.0127-46.169ZM79.0806-40.0396L88.1211-40.0396C89.1636-40.0396 89.9063-40.7822 89.9063-41.8247C89.9063-42.8672 89.1636-43.5947 88.1211-43.5947L79.0806-43.5947C78.0381-43.5947 77.2954-42.8672 77.2954-41.8247C77.2954-40.7822 78.0381-40.0396 79.0806-40.0396ZM79.0806-33.8916L88.1211-33.8916C89.1636-33.8916 89.9063-34.6006 89.9063-35.6431C89.9063-36.6704 89.1636-37.4131 88.1211-37.4131L79.0806-37.4131C78.0381-37.4131 77.2954-36.6704 77.2954-35.6431C77.2954-34.6006 78.0381-33.8916 79.0806-33.8916Z"/>
</svg>