<svg xmlns="http://www.w3.org/2000/svg" viewBox="9.76562 -72.565 45.78 76.26">
  <path d="M55.5484-55.2065L55.5484-69.3975C55.5484-71.3154 54.0059-72.565 52.1182-72.1709L32.894-68.0034C30.6055-67.4932 29.3711-66.2622 29.3711-64.2246L29.4468-21.9673C29.6152-20.0127 28.6489-18.7231 26.8897-18.3848L20.8164-17.1152C13.3218-15.5308 9.76562-11.7539 9.76562-6.02392C9.76562-0.290522 14.1621 3.69678 20.3838 3.69678C25.9605 3.69678 34.1909-0.354487 34.1909-11.3496L34.1909-46.0503C34.1909-48.1699 34.6387-48.6445 36.5596-49.0469L53.5933-52.8237C54.7754-53.0864 55.5484-53.9907 55.5484-55.2065Z"/>
</svg>