<svg xmlns="http://www.w3.org/2000/svg" viewBox="9.76562 -70.1499 69.83 69.86">
  <path d="M21.3994-0.290522L67.9575-0.290522C75.7017-0.290522 79.5913-4.21045 79.5913-11.8232L79.5913-58.6172C79.5913-66.23 75.7017-70.1499 67.9575-70.1499L21.3994-70.1499C13.689-70.1499 9.76562-66.2603 9.76562-58.6172L9.76562-11.8232C9.76562-4.18017 13.689-0.290522 21.3994-0.290522ZM34.791-16.3833C33.314-16.3833 32.2529-17.6128 32.5342-19.0898L34.2026-27.1055L30.3896-27.1055C29.1973-27.1055 28.3501-27.9526 28.3501-29.1821C28.3501-30.543 29.3472-31.5586 30.708-31.5586L35.1626-31.5586L36.8799-39.7998L33.1611-39.7998C31.9839-39.7998 31.1367-40.6807 31.1367-41.8765C31.1367-43.2373 32.1338-44.2529 33.4946-44.2529L37.8433-44.2529L39.5454-52.5264C39.8267-53.835 40.7075-54.5508 42.1357-54.5508C43.5942-54.5508 44.6065-53.3027 44.3252-51.8442L42.7241-44.2529L50.2852-44.2529L52.0361-52.5264C52.3174-53.835 53.1831-54.5508 54.5776-54.5508C56.0547-54.5508 57.1157-53.3364 56.8345-51.8442L55.2149-44.2529L58.9673-44.2529C60.1445-44.2529 60.9917-43.3872 60.9917-42.1763C60.9917-40.8306 59.9946-39.7998 58.6338-39.7998L54.2852-39.7998L52.5527-31.5586L56.1807-31.5586C57.3579-31.5586 58.2388-30.6592 58.2388-29.4819C58.2388-28.1362 57.2417-27.1055 55.8472-27.1055L51.6079-27.1055L49.7896-18.4565C49.542-17.1143 48.6426-16.3833 47.1655-16.3833C45.7222-16.3833 44.6948-17.6128 45.0098-19.0898L46.6597-27.0718L39.1138-27.0718L37.2651-18.4565C36.999-17.1143 36.1519-16.3833 34.791-16.3833ZM39.7739-31.1694L47.8066-31.1694L49.6924-40.1367L41.6411-40.1367Z"/>
</svg>