<svg xmlns="http://www.w3.org/2000/svg" viewBox="6.83594 -73.9316 77.39 77.36">
  <path d="M45.5137 3.42383C66.8521 3.42383 84.2251-13.9492 84.2251-35.2539C84.2251-56.5586 66.8521-73.9316 45.5137-73.9316C24.209-73.9316 6.83594-56.5586 6.83594-35.2539C6.83594-13.9492 24.209 3.42383 45.5137 3.42383ZM45.48-44.1694C41.4004-44.1694 38.1104-47.6816 38.1104-52.2832C38.1104-56.6104 41.4155-60.2017 45.48-60.2017C49.5967-60.2017 52.8682-56.6104 52.8682-52.2832C52.8682-47.6816 49.6118-44.1357 45.48-44.1694ZM32.5239-28.1729C31.1299-28.1729 30.3101-29.0029 30.3101-30.2202C30.3101-33.9727 35.5342-41.4522 45.4648-41.4522C55.4141-41.4522 60.6567-33.9727 60.6567-30.2202C60.6567-29.0029 59.8184-28.1729 58.458-28.1729ZM28.8755-13.3857C27.9829-13.3857 27.2402-14.0947 27.2402-15.021C27.2402-15.9287 27.9829-16.6714 28.8755-16.6714L29.2544-16.6714L29.2544-22.1895C29.2544-24.271 30.2529-25.3892 32.4727-25.3892L58.5395-25.3892C60.7744-25.3892 61.773-24.271 61.773-22.1895L61.773-16.6714L62.1367-16.6714C63.0444-16.6714 63.7871-15.9287 63.7871-15.021C63.7871-14.0947 63.0444-13.3857 62.1367-13.3857ZM40.8521-18.1069L50.1265-18.1069C50.8506-18.1069 51.4063-18.6475 51.4063-19.3193C51.4063-20.0249 50.8506-20.5317 50.1265-20.5317L40.8521-20.5317C40.1616-20.5317 39.6548-20.0249 39.6548-19.3193C39.6548-18.6475 40.1616-18.1069 40.8521-18.1069Z"/>
</svg>