<svg xmlns="http://www.w3.org/2000/svg" viewBox="9.76562 -75.6577 84.05 80.81">
  <path d="M14.5112-3.24024L89.1021-3.24024L89.1021-5.57276C89.1021-6.90675 88.3037-7.68996 86.936-7.68996L84.4946-7.68996L84.4946-50.1289L87.9175-50.1289C89.7803-50.1289 90.8482-51.4629 90.8482-52.8423C90.8482-53.8276 90.2637-54.7236 89.0493-55.4732L56.2959-74.3628C54.8545-75.2149 53.2969-75.6577 51.8067-75.6577C50.2827-75.6577 48.71-75.2149 47.2686-74.3628L14.5151-55.4732C13.2822-54.7236 12.7315-53.8276 12.7315-52.8423C12.7315-51.4629 13.7842-50.1289 15.6621-50.1289L19.1187-50.1289L19.1187-7.68996L16.6773-7.68996C15.3096-7.68996 14.5112-6.90675 14.5112-5.57276ZM24.2422-7.68996L24.2422-54.7363L50.1099-69.2847C50.6216-69.5893 51.231-69.7661 51.8067-69.7661C52.3486-69.7661 52.9429-69.5893 53.4546-69.2847L79.4048-54.7363L79.4048-7.68996ZM12.479 5.14991L91.1006 5.14991C92.5659 5.14991 93.814 3.90186 93.814 2.40283C93.814 0.922361 92.5659-0.310552 91.1006-0.310552L12.479-0.310552C10.9985-0.310552 9.76562 0.922361 9.76562 2.40283C9.76562 3.90186 10.9985 5.14991 12.479 5.14991ZM44.0952-18.1475C45.3399-18.1475 46.1499-18.9424 46.1499-20.2022L46.1499-30.7534L53.2012-30.7534C59.7764-30.7534 64.3765-35.1231 64.3765-41.6831C64.3765-48.3477 59.7427-52.5303 53.2686-52.5303L44.1289-52.5303C42.854-52.5303 42.0591-51.7168 42.0591-50.4268L42.0591-20.2022C42.0591-18.9424 42.8355-18.1475 44.0952-18.1475ZM46.1499-34.1436L46.1499-49.1216L52.2715-49.1216C56.9942-49.1216 60.188-46.6753 60.188-41.6831C60.188-36.7246 57.1743-34.1436 52.2378-34.1436ZM38.3867-41.897C38.3867-41.188 38.8818-40.6777 39.5908-40.6777L66.252-40.6777C66.9273-40.6777 67.4712-41.2217 67.4712-41.897C67.4712-42.5386 66.9273-43.0674 66.252-43.0674L39.5908-43.0674C38.8818-43.0674 38.3867-42.5386 38.3867-41.897Z"/>
</svg>