<svg xmlns="http://www.w3.org/2000/svg" viewBox="9.76562 -72.7759 94.38 75.04">
  <path d="M100.27-22.0835L77.2334-43.5625C75.5161-45.1519 73.5596-45.9448 71.3726-45.9448C69.2495-45.9448 67.357-45.2007 65.5723-43.6113L46.1045-26.1978L47.8135-26.1978L38.5659-34.6016C36.9883-36.0479 35.2573-36.8106 33.4087-36.8106C31.6275-36.8106 30.0244-36.063 28.4956-34.6504L13.9649-21.4248C13.9649-16.313 15.9634-13.7334 19.999-13.7334L92.6524-13.7334C97.5923-13.7334 100.254-16.6685 100.27-22.0835ZM40.1958-43.4976C45.0938-43.4976 49.1465-47.5503 49.1465-52.5645C49.1465-57.4961 45.0938-61.564 40.1958-61.564C35.2153-61.564 31.1289-57.4961 31.1289-52.5645C31.1289-47.5503 35.2153-43.4976 40.1958-43.4976ZM19.1333-9.99951L94.7808-9.99951C100.632-9.99951 104.148-13.5645 104.148-19.4009L104.148-63.4082C104.148-69.2446 100.632-72.7759 94.7808-72.7759L19.1333-72.7759C13.2817-72.7759 9.76562-69.2446 9.76562-63.4082L9.76562-19.4009C9.76562-13.5645 13.2817-9.99951 19.1333-9.99951ZM19.2461-15.46C16.7075-15.46 15.1924-16.9263 15.1924-19.4985L15.1924-63.3106C15.1924-65.8491 16.7075-67.3491 19.2461-67.3491L94.668-67.3491C97.2066-67.3491 98.7217-65.8491 98.7217-63.3106L98.7217-19.4985C98.7217-16.9263 97.2066-15.46 94.668-15.46ZM37.9439 2.26808L75.9702 2.26808C77.4995 2.26808 78.6988 1.06886 78.6988-0.445306C78.6988-1.97461 77.4995-3.19238 75.9702-3.19238L37.9439-3.19238C36.4146-3.19238 35.2153-1.97461 35.2153-0.445306C35.2153 1.06886 36.4146 2.26808 37.9439 2.26808Z"/>
</svg>