<svg xmlns="http://www.w3.org/2000/svg" viewBox="9.76562 -74.6328 80.23 78.86">
  <path d="M39.9541 4.22267L78.3633 4.22267C86.0737 4.22267 89.9971 0.336435 89.9971-7.27636L89.9971-45.9551C89.9971-53.5679 86.0737-57.4541 78.3633-57.4541L39.9541-57.4541C32.21-57.4541 28.3203-53.5981 28.3203-45.9551L28.3203-7.27636C28.3203 0.366709 32.21 4.22267 39.9541 4.22267ZM9.76562-24.4551C9.76562-16.812 13.6553-12.9561 21.3994-12.9561L23.4853-12.9561L23.4853-45.9551C23.4853-56.2725 29.5542-62.2739 39.9541-62.2739L71.4424-62.2739L71.4424-63.1338C71.4424-70.7466 67.5191-74.6328 59.8086-74.6328L21.3994-74.6328C13.6553-74.6328 9.76562-70.7769 9.76562-63.1338ZM59.1099-8.6328C57.4238-8.6328 56.228-9.88085 56.228-11.582L56.228-23.7339L44.1099-23.7339C42.375-23.7339 41.127-24.9297 41.127-26.6157C41.127-28.3657 42.3599-29.5952 44.1099-29.5952L56.228-29.5952L56.228-41.6982C56.228-43.4331 57.4238-44.6963 59.1099-44.6963C60.8599-44.6963 62.0894-43.4482 62.0894-41.6982L62.0894-29.5952L74.2261-29.5952C75.9424-29.5952 77.1904-28.3657 77.1904-26.6157C77.1904-24.9297 75.9273-23.7339 74.2261-23.7339L62.0894-23.7339L62.0894-11.582C62.0894-9.86572 60.8599-8.6328 59.1099-8.6328Z"/>
</svg>