<svg xmlns="http://www.w3.org/2000/svg" viewBox="6.83594 -73.9316 77.39 77.36">
  <path d="M45.5137 3.42383C66.8521 3.42383 84.2251-13.9492 84.2251-35.2539C84.2251-56.5586 66.8521-73.9316 45.5137-73.9316C24.209-73.9316 6.83594-56.5586 6.83594-35.2539C6.83594-13.9492 24.209 3.42383 45.5137 3.42383ZM48.2441-54.5064C48.2441-55.6987 48.9902-56.4297 50.1523-56.4297C50.6475-56.4297 51.2437-56.2647 51.6528-55.8672L60.4624-48.6401C61.5166-47.7813 61.5166-46.4189 60.4624-45.5786L51.6528-38.3667C51.2437-38.0215 50.6475-37.8564 50.1523-37.8564C48.9902-37.8564 48.2441-38.5537 48.2441-39.7798L48.2441-44.7617L32.7588-44.7617C28.7939-44.7617 26.1558-42.2397 26.1558-38.4063L26.1558-36.3687C26.1558-35.0601 25.0947-34.0142 23.7339-34.0142C22.4253-34.0142 21.3794-35.0601 21.3794-36.3687L21.3794-38.6084C21.3794-45.1787 26.0269-49.4404 33.1294-49.4404L48.2441-49.4404ZM42.8892-15.8398C42.8892-14.6475 42.1768-13.9165 40.981-13.9165C40.4858-13.9165 39.9233-14.0664 39.4805-14.4453L30.6709-21.7061C29.6167-22.5498 29.6167-23.9272 30.6709-24.7676L39.4805-31.9795C39.9233-32.3247 40.4858-32.4897 40.981-32.4897C42.1768-32.4897 42.8892-31.7925 42.8892-30.5664L42.8892-25.5845L58.3745-25.5845C62.3394-25.5845 64.9775-28.1064 64.9775-31.9248L64.9775-33.9775C64.9775-35.2861 66.0723-36.332 67.3994-36.332C68.708-36.332 69.7539-35.2861 69.7539-33.9775L69.7539-31.7378C69.7539-25.1675 65.1065-20.9058 58.0191-20.9058L42.8892-20.9058Z"/>
</svg>