<svg xmlns="http://www.w3.org/2000/svg" viewBox="6.83594 -78.586 106.93 86.98">
  <path d="M102.996 7.37551C104.023 6.31447 104.026 4.71437 102.996 3.6836L21.7905-77.5552C20.79-78.5557 19.0923-78.586 18.0464-77.5552C17.0493-76.5581 17.0493-74.8604 18.0464-73.8633L99.3189 7.37551C100.335 8.39113 102.014 8.39113 102.996 7.37551ZM21.5801-2.80566C22.8281-3.82128 22.978-5.47021 22.0147-6.80078C16.0713-14.7295 12.5845-24.6196 12.5845-35.2539C12.5845-45.6372 15.8877-55.209 21.4976-63.0181L17.3643-67.1177C10.6377-58.0571 6.83594-47.0166 6.83594-35.2539C6.83594-23.2554 10.7725-12.2334 17.4316-3.28906C18.4961-1.87255 20.2647-1.72265 21.5801-2.80566ZM103.343-3.4912C109.901-12.417 113.77-23.3564 113.77-35.2539C113.77-47.2524 109.834-58.3081 103.174-67.2188C102.11-68.6353 100.341-68.8189 99.0259-67.7358C97.7442-66.6865 97.628-65.0376 98.5913-63.7407C104.535-55.7783 108.006-45.9219 108.006-35.2539C108.006-24.9717 104.786-15.3999 99.1758-7.62452ZM60.2617-72.2227C52.8555-72.2227 45.8667-69.9331 40.1153-66.0645L44.1997-61.9463C48.8496-64.8364 54.3394-66.5264 60.2617-66.5264C77.5884-66.5264 91.583-52.6143 91.583-35.2539C91.583-29.3316 89.8779-23.8081 86.9878-19.1582L91.0723-15.0737C94.9746-20.8252 97.2642-27.7988 97.2642-35.2539C97.2642-55.481 80.5376-72.2227 60.2617-72.2227ZM60.2954 1.71485C67.7691 1.71485 74.7949-0.608391 80.5952-4.51415L76.4805-8.64746C71.8272-5.68995 66.2852-3.98145 60.2954-3.98145C42.9839-3.98145 29.0567-17.8936 29.0567-35.2539C29.0567-41.1948 30.7803-46.7705 33.7041-51.4053L29.5557-55.5386C25.6651-49.7197 23.3267-42.7275 23.3267-35.2539C23.3267-15.0269 40.0684 1.71485 60.2954 1.71485ZM85.1875-35.2539C85.1875-42.0918 80.7593-46.7524 74.2666-46.7524C71.0659-46.7524 68.3955-45.5083 64.2969-41.8154L67.1685-38.9439C70.5327-41.9092 72.2583-42.6768 74.2666-42.6919C78.356-42.6919 81.0933-39.6733 81.0933-35.2539C81.0933-32.2495 79.5166-29.8862 77.001-29.1787L80.0879-26.0918C83.1831-27.606 85.1875-30.9443 85.1875-35.2539ZM35.4976-35.2539C35.4976-28.416 39.8955-23.8008 46.3882-23.8008C49.646-23.8008 52.4292-25.1846 56.395-28.7143L53.4746-31.6348C50.2617-28.7871 48.4873-27.8462 46.3882-27.8462C42.2837-27.8462 39.5581-30.8008 39.5581-35.2539C39.5581-38.3408 41.1197-40.7529 43.6152-41.4941L40.5283-44.581C37.4111-43.0063 35.4976-39.5669 35.4976-35.2539Z"/>
</svg>