<svg xmlns="http://www.w3.org/2000/svg" viewBox="6.83594 -73.9316 77.39 77.36">
  <path d="M45.5137 3.42383C66.8823 3.42383 84.2251-13.8853 84.2251-35.2539C84.2251-56.6226 66.8823-73.9316 45.5137-73.9316C24.1787-73.9316 6.83594-56.6226 6.83594-35.2539C6.83594-13.8853 24.1787 3.42383 45.5137 3.42383ZM45.5137-2.27247C27.2778-2.27247 12.5508-17.0181 12.5508-35.2539C12.5508-53.4897 27.2778-68.2353 45.5137-68.2353C63.7495-68.2353 78.4951-53.4897 78.4951-35.2539C78.4951-17.0181 63.7495-2.27247 45.5137-2.27247ZM38.937-17.894C40.2119-17.894 40.9917-18.7041 40.9917-19.9639L40.9917-24.0361L50.21-24.0361C50.919-24.0361 51.3804-24.4639 51.3804-25.2217C51.3804-25.9155 50.919-26.3618 50.21-26.3618L40.9917-26.3618L40.9917-31.4111L47.9722-31.4111C54.9214-31.4111 58.9185-35.9712 58.9185-41.7598C58.9185-47.7437 54.7783-52.2095 48.0547-52.2095L38.9707-52.2095C37.7632-52.2095 36.9497-51.3135 36.9497-50.0571L36.9497-33.7705L32.9678-33.7705C32.21-33.7705 31.7485-33.2754 31.7485-32.5664C31.7485-31.8389 32.21-31.4111 32.9678-31.4111L36.9497-31.4111L36.9497-26.3618L32.9678-26.3618C32.21-26.3618 31.7485-25.9155 31.7485-25.2217C31.7485-24.4639 32.21-24.0361 32.9678-24.0361L36.9497-24.0361L36.9497-19.9639C36.9497-18.7041 37.6958-17.894 38.937-17.894ZM40.9917-34.7861L40.9917-48.6997L46.96-48.6997C52.3833-48.6997 54.7637-45.748 54.7637-41.7598C54.7637-37.293 51.8189-34.7861 46.96-34.7861Z" />
</svg>