<svg xmlns="http://www.w3.org/2000/svg" viewBox="9.76562 -70.1499 89.88 69.86">
  <path d="M80.6196-51.707C83.2026-51.7559 85.3276-53.8809 85.3276-56.4639C85.3276-59.062 83.2026-61.2695 80.6196-61.2695C78.0703-61.2695 75.8476-59.062 75.8476-56.4639C75.8476-53.8809 78.0703-51.6582 80.6196-51.707ZM80.6196-30.5156C83.2026-30.5645 85.3276-32.6895 85.3276-35.2725C85.3276-37.8706 83.2026-40.0781 80.6196-40.0781C78.0703-40.0781 75.8476-37.8706 75.8476-35.2725C75.8476-32.6895 78.0703-30.4668 80.6196-30.5156ZM80.6196-9.32422C83.2026-9.37304 85.3276-11.498 85.3276-14.0811C85.3276-16.6792 83.2026-18.8867 80.6196-18.8867C78.0703-18.8867 75.8476-16.6792 75.8476-14.0811C75.8476-11.498 78.0703-9.27539 80.6196-9.32422ZM96.7603-43.3164L96.7603-48.4399L12.8359-48.4399L12.8359-43.3164ZM96.7603-21.9399L96.7603-27.0635L12.8359-27.0635L12.8359-21.9399ZM21.3994-0.290522L88.0117-0.290522C95.7559-0.290522 99.6455-4.21045 99.6455-11.8232L99.6455-58.6172C99.6455-66.23 95.7559-70.1499 88.0117-70.1499L21.3994-70.1499C13.689-70.1499 9.76562-66.2603 9.76562-58.6172L9.76562-11.8232C9.76562-4.18017 13.689-0.290522 21.3994-0.290522ZM21.4971-5.75098C17.4214-5.75098 15.1924-7.9126 15.1924-12.0894L15.1924-58.3511C15.1924-62.5615 17.4214-64.6894 21.4971-64.6894L87.9141-64.6894C91.9292-64.6894 94.2187-62.5615 94.2187-58.3511L94.2187-12.0894C94.2187-7.9126 91.9292-5.75098 87.9141-5.75098Z"/>
</svg>