<svg xmlns="http://www.w3.org/2000/svg" viewBox="9.76562 -68.8716 132.79 67.2">
  <path d="M24.2305-15.5957L29.7866-15.5957L29.7866-21.0225L24.1968-21.0225C18.4859-21.0225 15.1924-23.0811 15.1924-31.1587L15.1924-48.7124C15.1924-50.7944 17.0034-51.4878 18.6563-50.6514C22.332-48.9795 26.2705-47.7134 31.5459-47.7134C37.9141-47.7134 44.311-51.1484 49.6133-57.9712C53.457-62.9009 56.2178-63.1753 61.646-60.0234L82.1138-48.1631C86.6533-45.501 88.6236-45.1069 92.8145-45.1069C96.6939-45.1069 106.049-46.6055 109.726-46.6055C115.833-46.6055 118.876-43.6592 118.876-37.8154C118.876-36.6733 118.573-35.6323 117.967-34.6772L123.865-34.6772C124.153-35.666 124.322-36.7407 124.322-37.8154C124.322-46.3608 118.485-52.0659 109.76-52.0659C105.633-52.0659 96.3452-50.5674 92.8145-50.5674C89.2534-50.5674 88.4336-50.7442 84.7935-52.8403L64.3931-64.7344C57.2637-68.8716 50.7774-68.3496 45.2998-61.2656C40.8784-55.6084 36.3174-53.1738 31.5459-53.1738C27.3872-53.1738 24.5132-53.8892 21.4219-55.3623C15.9253-57.8662 9.76562-55.3135 9.76562-48.6787L9.76562-31.1587C9.76562-19.1987 16.8306-15.5957 24.2305-15.5957ZM21.4732-24.9351L29.7866-24.9351L29.7866-28.7935L21.4732-28.7935C18.0967-28.7935 16.2192-29.2095 15.103-30.2217L15.103-26.2671C16.9536-25.2803 18.6914-24.9351 21.4732-24.9351ZM82.6221-50.7935C75.4776-54.9458 68.9912-54.3901 63.5288-47.3398C59.1074-41.6489 54.5313-39.2144 49.7749-39.2144C45.6162-39.2144 42.7422-39.9634 39.6509-41.4028C34.1543-43.9067 27.9946-41.354 27.9946-34.7192L27.9946-17.1992C27.9946-5.23924 35.0259-1.66991 42.4595-1.66991L103.551-1.66991C115.295-1.66991 122.21-3.46483 131.7-8.73339C139.176-12.894 142.551-17.9575 142.551-23.8896C142.551-32.3862 136.714-38.1064 127.974-38.1064C123.862-38.1064 114.574-36.6079 111.043-36.6079C107.482-36.6079 106.663-36.7847 103.007-38.8809ZM33.482-16.0938C33.4214-16.437 33.4063-16.8105 33.4063-17.1992L33.4063-34.7529C33.4063-36.8349 35.2173-37.5283 36.8853-36.6919C40.561-35.02 44.4844-33.7876 49.7749-33.7876C56.1431-33.7876 62.5401-37.189 67.8423-44.0117C71.6861-48.9751 74.4468-49.2158 79.875-46.0825L100.309-34.2036C104.867-31.5752 106.853-31.1811 111.043-31.1811C114.923-31.1811 124.263-32.6797 127.94-32.6797C131.547-32.6797 134.971-31.2832 134.971-28.1523C134.971-26.6621 133.509-24.5557 129.451-22.439L121.587-18.4951C116.544-15.8276 112.478-14.8677 103.551-14.8677L39.7022-14.8677C36.4942-14.8677 34.6655-15.2012 33.482-16.0938ZM34.1084-11.9438C35.6963-11.2383 37.333-10.9756 39.7022-10.9756L103.551-10.9756C112.769-10.9756 117.652-12.1528 123.459-15.1621L131.307-19.0268C134.901-20.9268 136.297-22.3481 136.861-24.6641C136.947-24.0679 137-23.4531 136.936-22.771C136.629-19.1558 134.255-16.3472 129.103-13.478C120.375-8.62549 114.564-7.08154 103.551-7.08154L42.4258-7.08154C38.2437-7.08154 35.3477-8.1958 34.1084-11.9438ZM83.2324-47.001L76.5327-37.7202C75.8692-36.8916 75.9668-35.6655 76.8106-35.0019C77.6206-34.3721 78.8989-34.4512 79.544-35.2798L86.2739-44.6094ZM91.7793-42.5493L85.2461-33.5259C84.5488-32.581 84.6802-31.456 85.5239-30.8413C86.4688-30.0952 87.5786-30.1743 88.2573-31.1191L94.8208-40.1728ZM100.281-38.0605L93.8838-29.271C93.2202-28.3599 93.3179-27.2349 94.1279-26.5864C95.0054-25.8403 96.1489-25.9531 96.8614-26.8642L103.289-35.7515Z"/>
</svg>