<svg xmlns="http://www.w3.org/2000/svg" viewBox="9.76562 -61.3906 89.42 52.21">
  <path d="M16.4712-19.7637C22.082-19.7637 25.2158-23.3135 25.2158-29.6064L25.2158-40.8711C25.2158-47.1792 22.082-50.729 16.4712-50.729L13.0547-50.729C10.9697-50.729 9.76562-49.54 9.76562-47.4551L9.76562-23.0225C9.76562-20.9526 10.9697-19.7637 13.0547-19.7637ZM51.771-12.4814C54.9673-12.4814 57.02-14.5493 57.02-17.7236L57.02-52.7539C57.02-55.9282 54.9673-57.9961 51.771-57.9961L46.022-57.9961C36.3887-57.9961 30.3369-51.978 30.3369-42.3447L30.3369-28.1328C30.3369-18.4995 36.3887-12.4814 46.022-12.4814ZM33.3047-27.9795L33.3047-42.8013L23.4067-42.8013L23.4067-27.9795ZM60.2383-18.9053C64.312-19.0752 66.855-22.0205 66.855-26.8047L66.855-43.6426C66.855-48.4756 64.312-51.436 60.2383-51.606ZM74.2994-46.4253C75.7105-46.4253 76.8438-47.5737 76.8438-48.9849C76.8438-50.4297 75.7105-51.563 74.2994-51.563C72.8545-51.563 71.7061-50.4297 71.7061-48.9849C71.7061-47.5737 72.8545-46.4253 74.2994-46.4253ZM83.5044-51.3315C84.9004-51.3315 86.0826-52.48 86.0826-53.9248C86.0826-55.3359 84.9004-56.5181 83.5044-56.5181C82.0933-56.5181 80.9112-55.3359 80.9112-53.9248C80.9112-52.48 82.0933-51.3315 83.5044-51.3315ZM92.7095-56.2192C94.1206-56.2192 95.3028-57.3862 95.3028-58.7974C95.3028-60.2422 94.1206-61.3906 92.7095-61.3906C91.2798-61.3906 90.1314-60.2422 90.1314-58.7974C90.1314-57.3862 91.2798-56.2192 92.7095-56.2192ZM74.1646-32.6943C75.5757-32.6943 76.7427-33.8765 76.7427-35.2876C76.7427-36.6987 75.5757-37.8809 74.1646-37.8809C72.7198-37.8809 71.5713-36.6987 71.5713-35.2876C71.5713-33.8765 72.7198-32.6943 74.1646-32.6943ZM85.3619-32.6943C86.8067-32.6943 87.9551-33.8765 87.9551-35.2876C87.9551-36.6987 86.8067-37.8809 85.3619-37.8809C83.9659-37.8809 82.7837-36.6987 82.7837-35.2876C82.7837-33.8765 83.9659-32.6943 85.3619-32.6943ZM96.608-32.6943C98.0039-32.6943 99.1861-33.8765 99.1861-35.2876C99.1861-36.6987 98.0039-37.8809 96.608-37.8809C95.1631-37.8809 94.0147-36.6987 94.0147-35.2876C94.0147-33.8765 95.1631-32.6943 96.608-32.6943ZM74.2994-18.9785C75.7442-18.9785 76.8775-20.1455 76.8775-21.5566C76.8775-23.0015 75.7442-24.1499 74.2994-24.1499C72.8882-24.1499 71.7398-23.0015 71.7398-21.5566C71.7398-20.1455 72.8882-18.9785 74.2994-18.9785ZM83.5381-14.0571C84.9341-14.0571 86.1162-15.2393 86.1162-16.6504C86.1162-18.0615 84.9341-19.2437 83.5381-19.2437C82.127-19.2437 80.9449-18.0615 80.9449-16.6504C80.9449-15.2393 82.127-14.0571 83.5381-14.0571ZM92.7432-9.18457C94.1543-9.18457 95.3365-10.333 95.3365-11.7778C95.3365-13.189 94.1543-14.3223 92.7432-14.3223C91.3135-14.3223 90.1651-13.189 90.1651-11.7778C90.1651-10.333 91.3135-9.18457 92.7432-9.18457Z"/>
</svg>