<svg xmlns="http://www.w3.org/2000/svg" viewBox="6.83594 -73.9316 77.39 77.36">
  <path d="M45.5137 3.42383C66.8823 3.42383 84.2251-13.8853 84.2251-35.2539C84.2251-56.6226 66.8823-73.9316 45.5137-73.9316C24.1787-73.9316 6.83594-56.6226 6.83594-35.2539C6.83594-13.8853 24.1787 3.42383 45.5137 3.42383ZM45.5137-2.27247C27.2778-2.27247 12.5508-17.0181 12.5508-35.2539C12.5508-53.4897 27.2778-68.2353 45.5137-68.2353C63.7495-68.2353 78.4951-53.4897 78.4951-35.2539C78.4951-17.0181 63.7495-2.27247 45.5137-2.27247ZM38.9287-40.3418L43.5601-40.3418L43.5601-37.0674L33.5884-37.0674C32.4805-37.0674 31.7295-36.7593 31.0274-36.1211L27.2778-32.4961C25.8399-31.1372 25.8247-29.792 27.2593-28.4214L31.0274-24.8755C31.7295-24.1733 32.5142-23.8804 33.5884-23.8804L43.5601-23.8804L43.5601-16.8511L38.3233-16.8511C37.2808-16.8511 36.437-15.9888 36.437-14.9126C36.437-13.8701 37.2808-13.0078 38.3233-13.0078L52.6216-13.0078C53.6826-13.0078 54.5601-13.8701 54.5601-14.9126C54.5601-15.9888 53.6826-16.8511 52.6216-16.8511L47.4185-16.8511L47.4185-23.8804L52.0347-23.8804C53.7471-23.8804 54.7725-24.8569 54.7725-26.603L54.7725-34.3447C54.7725-36.0908 53.7471-37.0674 52.0347-37.0674L47.4185-37.0674L47.4185-40.3418L57.3599-40.3418C58.4341-40.3418 59.2188-40.6499 59.9209-41.3369L63.7378-44.9131C65.1084-46.2383 65.1235-47.5835 63.689-48.9878L59.9209-52.5825C59.2188-53.2358 58.4678-53.5288 57.3599-53.5288L47.4185-53.5288L47.4185-57.0688C47.4185-58.1113 46.5747-58.9888 45.5137-58.9888C44.4224-58.9888 43.5601-58.0962 43.5601-57.0688L43.5601-53.5288L38.9287-53.5288C37.25-53.5288 36.2246-52.5859 36.2246-50.8061L36.2246-43.0645C36.2246-41.3335 37.25-40.3418 38.9287-40.3418Z" />
</svg>