<svg xmlns="http://www.w3.org/2000/svg" viewBox="6.83594 -73.9316 77.39 77.36">
  <path d="M45.5137 3.42383C66.8823 3.42383 84.2251-13.8853 84.2251-35.2539C84.2251-56.6226 66.8823-73.9316 45.5137-73.9316C24.1787-73.9316 6.83594-56.6226 6.83594-35.2539C6.83594-13.8853 24.1787 3.42383 45.5137 3.42383ZM45.5137-2.27247C27.2778-2.27247 12.5508-17.0181 12.5508-35.2539C12.5508-53.4897 27.2778-68.2353 45.5137-68.2353C63.7495-68.2353 78.4951-53.4897 78.4951-35.2539C78.4951-17.0181 63.7495-2.27247 45.5137-2.27247ZM31.7637-18.6221C32.7002-18.6221 33.3975-18.9893 34.1319-19.7422L60.8384-46.7519C61.5239-47.4526 61.9585-48.2847 61.9585-49.0527C61.9585-50.6645 60.6768-51.8486 59.1289-51.8486C58.3457-51.8486 57.5625-51.4814 56.8281-50.7622L30.1553-23.7525C29.4024-23.0181 29.0352-22.2012 29.0352-21.418C29.0352-19.9307 30.1216-18.6221 31.7637-18.6221Z" />
</svg>