<svg xmlns="http://www.w3.org/2000/svg" viewBox="6.4873 -73.6773 67.98 76.85">
  <path d="M40.4253 3.13575C41.9395 3.16944 42.9028 2.20606 42.9028 0.643066L42.9028-18.7705L41.9395-35.2539L42.9028-51.7373L42.9028-71.1509C42.9028-72.7139 41.9395-73.6773 40.4253-73.6436C38.9785-73.6436 38.0151-72.6802 38.0151-71.1509L38.0151-51.771L38.9785-35.2539L38.0151-18.7368L38.0151 0.643066C38.0151 2.17237 38.9785 3.13575 40.4253 3.13575ZM53.1631-65.6743C52.5147-66.8027 51.1875-67.084 50.1079-66.4541L40.459-60.9419L30.8101-66.4541C29.7305-67.084 28.4033-66.8027 27.7397-65.6743C27.0576-64.5122 27.4888-63.2002 28.5684-62.5518L38.4463-56.8931C39.061-56.5781 39.7617-56.3945 40.459-56.3945C41.1411-56.3945 41.8906-56.5781 42.4717-56.8931L52.3496-62.5518C53.4292-63.2002 53.8604-64.5122 53.1631-65.6743ZM7.21826-16.0928C7.90039-14.7622 9.26124-14.4287 10.543-15.1934L27.416-24.8926L41.1899-33.9722L55.9458-41.376L72.7852-51.0903C74.1006-51.8887 74.4644-53.1855 73.666-54.4976C72.9502-55.7793 71.6231-56.0454 70.375-55.3145L53.5357-45.6152L39.728-36.5693L24.9385-29.0981L8.13282-19.4175C6.85107-18.6191 6.4873-17.3896 7.21826-16.0928ZM73.7334-16.1265C74.4644-17.3896 74.0669-18.6528 72.7852-19.4175L55.9795-29.0981L41.2236-36.5693L27.3823-45.6489L10.5767-55.3145C9.29493-56.0454 8.00147-55.7793 7.25195-54.4976C6.4873-53.2192 6.81738-51.8887 8.13282-51.124L24.9722-41.4097L39.728-34.0059L53.502-24.8926L70.375-15.1934C71.6567-14.4624 73.0176-14.7622 73.7334-16.1265ZM73.166-39.4648C73.7959-40.5933 73.4136-41.8716 72.3003-42.5015L62.7036-48.0811L62.6514-59.1729C62.6851-60.4663 61.7402-61.4971 60.4619-61.4634C59.1011-61.4971 58.1528-60.4663 58.1528-59.1729L58.1714-47.8032C58.2051-47.1211 58.4038-46.439 58.7861-45.8242C59.0859-45.2246 59.6519-44.6924 60.1992-44.3437L70.0283-38.6177C71.1231-38.0029 72.5361-38.269 73.166-39.4648ZM73.166-31.0767C72.5361-32.2725 71.1231-32.5386 70.0283-31.9238L60.1992-26.1978C59.6519-25.8491 59.0859-25.3169 58.7861-24.7173C58.4038-24.1025 58.2051-23.4204 58.1714-22.7383L58.1528-11.3687C58.1528-10.0752 59.1011-9.04443 60.4619-9.07812C61.7402-9.04443 62.6851-10.0752 62.6514-11.3687L62.7036-22.4604L72.3003-28.04C73.4136-28.6699 73.7959-29.9482 73.166-31.0767ZM27.7397-4.83349C28.4033-3.70507 29.7305-3.42382 30.8101-4.05371L40.459-9.56591L50.1079-4.05371C51.1875-3.42382 52.5147-3.70507 53.1631-4.83349C53.8604-5.9956 53.4292-7.30762 52.3496-7.95606L42.4717-13.6147C41.8569-13.9297 41.1563-14.1133 40.459-14.1133C39.7769-14.1133 39.0273-13.9297 38.4463-13.6147L28.5684-7.95606C27.4888-7.30762 27.0576-5.9956 27.7397-4.83349ZM7.75195-31.043C7.12207-29.9145 7.50439-28.6362 8.61768-28.0063L18.2144-22.4268L18.2666-11.335C18.2329-10.0415 19.1777-9.01074 20.4561-9.04443C21.8169-9.01074 22.7651-10.0415 22.7651-11.335L22.7315-22.7046C22.6978-23.3867 22.499-24.0688 22.1318-24.6836C21.832-25.2832 21.2661-25.8154 20.7188-26.1641L10.8897-31.8901C9.79493-32.5049 8.3667-32.2388 7.75195-31.043ZM7.75195-39.4312C8.3667-38.2353 9.79493-37.9692 10.8897-38.584L20.7188-44.3101C21.2661-44.6587 21.832-45.1909 22.1318-45.7905C22.499-46.4053 22.6978-47.0874 22.7315-47.7695L22.7651-59.1392C22.7651-60.4326 21.8169-61.4634 20.4561-61.4297C19.1777-61.4634 18.2329-60.4326 18.2666-59.1392L18.2144-48.0474L8.61768-42.4678C7.50439-41.8379 7.12207-40.5596 7.75195-39.4312Z" />
</svg>