<svg xmlns="http://www.w3.org/2000/svg" viewBox="2.52197 -73.6773 75.83 76.85">
  <path d="M42.4229-43.6914L42.8355-51.771L42.8355-57.1929L52.1475-62.4844C53.4443-63.2339 53.8267-64.5459 53.2119-65.6406C52.481-66.9038 51.1538-67.0503 49.9058-66.353L42.8355-62.3213L42.8355-71.1509C42.8355-72.6465 41.9546-73.6773 40.459-73.6773C39.0122-73.6773 38.0488-72.6465 38.0488-71.1509L38.0488-62.3213L30.9448-66.353C29.6968-67.0503 28.4033-66.9038 27.6875-65.6406C27.0239-64.5459 27.4551-63.2339 28.7368-62.4844L38.0488-57.1929L38.0488-51.771L38.1768-48.0015ZM48.565-37.5981L55.9121-41.4097L60.6304-44.145L69.8936-38.7187C71.1231-38.0029 72.5513-38.269 73.1997-39.3638C73.897-40.627 73.3311-41.8379 72.1504-42.5689L65.0801-46.7017L72.7852-51.124C74.0332-51.8887 74.4307-53.1519 73.6997-54.4976C72.9839-55.7119 71.6904-56.0117 70.375-55.2808L62.6699-50.9072L62.6362-59.0381C62.6362-60.4663 61.8413-61.5308 60.4282-61.5308C59.1348-61.5308 58.2202-60.5 58.2202-59.0381L58.2876-48.3355L53.5357-45.6152L45.668-40.4951ZM60.3618-26.1831L69.3477-17.643L72.9727-15.5303C73.2251-15.5591 73.5078-15.7393 73.6997-16.0254C74.4981-17.2549 73.9995-18.6528 72.7852-19.3838L65.0801-23.8062L72.1504-27.939C73.3311-28.6699 73.897-29.8809 73.1997-31.1104C72.5176-32.2236 71.1079-32.4897 69.9087-31.7891ZM38.4463-26.665L38.0488-18.7368L38.0488-13.3149L28.7368-8.02344C27.4551-7.27393 27.0239-5.96191 27.6875-4.86718C28.4033-3.604 29.6968-3.45751 30.9448-4.15478L38.0488-8.20165L38.0488 0.643066C38.0488 2.13867 39.0122 3.16944 40.459 3.16944C41.9546 3.16944 42.8355 2.13867 42.8355 0.643066L42.8355-8.17138L49.9058-4.15478C51.1538-3.45751 52.481-3.604 53.2119-4.86718C53.8267-5.96191 53.4443-7.27393 52.1475-8.02344L42.8355-13.3149L42.8355-18.7217L42.7075-22.4189ZM32.2773-32.8306L24.9722-29.0981L20.2354-26.3628L10.9907-31.7891C9.76124-32.5049 8.34815-32.2388 7.75195-31.144C7.021-29.8135 7.55322-28.6699 8.73389-27.939L15.8042-23.8062L8.09912-19.3838C6.88477-18.6528 6.45361-17.2886 7.18457-16.0254C7.94922-14.7285 9.26124-14.5298 10.5244-15.227L18.2144-19.6006L18.248-11.4697C18.248-10.0415 19.043-8.97705 20.4897-8.97705C21.7495-8.97705 22.6792-10.0078 22.6792-11.4697L22.6455-22.2061L27.3486-24.8926L35.1406-29.9673ZM10.9907-38.7187L20.7261-44.4004L12.7495-52.3618L7.94531-54.9775C7.69287-54.9824 7.37647-54.8174 7.18457-54.4976C6.41992-53.1519 6.88477-51.855 8.09912-51.124L15.8042-46.7017L8.73389-42.5689C7.55322-41.8379 6.9873-40.6943 7.71826-39.3638C8.31445-38.2842 9.72754-38.0029 10.9907-38.7187ZM73.6465 1.71973C74.6621 2.7505 76.3413 2.7168 77.3233 1.68604C78.3506 0.655276 78.354-0.975099 77.3233-1.99073L7.2295-72.1333C6.22901-73.1489 4.58008-73.1792 3.51904-72.1333C2.52197-71.1514 2.52197-69.4385 3.51904-68.4565Z"/>
</svg>