<svg xmlns="http://www.w3.org/2000/svg" viewBox="6.83594 -73.9316 77.39 77.36">
  <path d="M45.5137 3.42383C66.8521 3.42383 84.2251-13.9492 84.2251-35.2539C84.2251-56.5586 66.8521-73.9316 45.5137-73.9316C24.209-73.9316 6.83594-56.5586 6.83594-35.2539C6.83594-13.9492 24.209 3.42383 45.5137 3.42383ZM27.1865-22.2759C22.0107-22.2759 19.3032-24.9312 19.2275-29.5024C19.2124-29.979 19.5239-30.3579 20.0679-30.3579L23.708-30.3579C24.1509-30.3579 24.4321-30.0952 24.5147-29.6187C24.7285-27.7515 25.5972-26.8677 27.2505-26.8677C28.855-26.8677 29.5772-27.5562 29.5772-29.127C29.5772-30.6338 28.7876-31.3442 26.3496-32.5801L24.8731-33.3579C21.0342-35.311 19.5357-37.4258 19.5357-41.0391C19.5357-45.3999 22.3677-48.3633 27.1865-48.3633C32.1856-48.3633 34.563-45.3779 34.6724-41.1855C34.6724-40.6602 34.3272-40.3452 33.7983-40.3452L30.4024-40.3452C29.8921-40.3452 29.6631-40.5928 29.5469-41.103C29.2354-42.9028 28.5249-43.7715 27.1865-43.7715C25.8599-43.7715 25.0029-42.8843 25.0029-41.5913C25.0029-40.1553 25.6983-39.2461 27.9863-38.0288L29.5151-37.2476C33.5796-35.0991 35.0293-33.375 35.0293-29.6978C35.0293-25.2056 32.0996-22.2759 27.1865-22.2759ZM45.544-22.2759C39.5718-22.2759 36.4805-26.667 36.4805-35.2539C36.4805-43.7734 39.5381-48.3481 45.544-48.3481C51.4522-48.3481 54.5249-43.7734 54.5249-35.2539C54.5249-26.667 51.4185-22.2759 45.544-22.2759ZM45.544-27.0596C47.7461-27.0596 48.8438-29.4385 48.8438-35.2539C48.8438-41.0693 47.7461-43.4971 45.544-43.4971C43.2105-43.4971 42.1279-41.0693 42.1279-35.2539C42.1279-29.4385 43.2105-27.0596 45.544-27.0596ZM63.9502-22.2759C58.7593-22.2759 56.1006-24.9312 55.9609-29.5024C55.9609-29.979 56.3062-30.3579 56.8013-30.3579L60.4565-30.3579C60.9331-30.3579 61.2144-30.0952 61.2969-29.6187C61.5259-27.7515 62.3794-26.8677 63.999-26.8677C65.6675-26.8677 66.3594-27.5562 66.3594-29.127C66.3594-30.6338 65.585-31.3291 63.147-32.5801L61.6519-33.3579C57.7979-35.3413 56.2842-37.4258 56.2842-41.0391C56.2842-45.3999 59.1162-48.3633 63.9502-48.3633C68.9341-48.3633 71.3452-45.3779 71.4512-41.1855C71.4512-40.6602 71.1397-40.3452 70.5957-40.3452L67.1509-40.3452C66.6895-40.3452 66.4605-40.5928 66.3594-41.103C66.0142-42.9028 65.3223-43.7715 63.9502-43.7715C62.6572-43.7715 61.7515-42.8843 61.7515-41.5913C61.7515-40.1553 62.4805-39.231 64.7686-38.0288L66.2788-37.2476C70.3921-35.0991 71.793-33.375 71.793-29.6978C71.793-25.2056 68.8784-22.2759 63.9502-22.2759Z"/>
</svg>