<svg xmlns="http://www.w3.org/2000/svg" viewBox="8.78906 -72.7007 74.23 74.93">
  <path d="M8.78906-42.5996C8.78906-25.9907 22.2964-12.5171 38.9053-12.5171C45.5728-12.5171 51.688-14.689 56.6719-18.3862L76.062 1.05274C76.8604 1.83252 77.9028 2.22657 78.9941 2.22657C81.3721 2.22657 83.0142 0.426272 83.0142-1.87598C83.0142-2.97071 82.583-3.96436 81.8892-4.74073L62.5664-24.0972C66.5903-29.1973 68.9727-35.6055 68.9727-42.5996C68.9727-59.1934 55.499-72.7007 38.9053-72.7007C22.2964-72.7007 8.78906-59.1934 8.78906-42.5996ZM14.5376-42.5996C14.5376-56.0454 25.4443-66.9521 38.9053-66.9521C52.3174-66.9521 63.2578-56.0454 63.2578-42.5996C63.2578-29.1724 52.3174-18.2319 38.9053-18.2319C25.4443-18.2319 14.5376-29.1724 14.5376-42.5996ZM38.9541-26.2295C39.5132-26.2295 39.9292-26.6758 40.0791-27.2349C41.9868-38.334 42.9483-39.9863 54.2329-41.4746C54.8931-41.5571 55.2905-42.022 55.2905-42.6147C55.2905-43.2109 54.8931-43.6421 54.2329-43.7583C42.9819-45.2954 41.7222-46.9883 40.0791-57.9458C39.9629-58.5571 39.5132-58.9883 38.9541-58.9883C38.3125-58.9883 37.8662-58.5908 37.7163-57.9458C35.7515-46.8232 34.8809-45.2954 23.5777-43.7583C22.9512-43.6421 22.52-43.2109 22.52-42.6147C22.52-42.022 22.9512-41.5757 23.5777-41.4746C34.9263-40.5986 36.1943-38.334 37.7163-27.2686C37.8325-26.6758 38.2788-26.2295 38.9541-26.2295Z"/>
</svg>