<svg xmlns="http://www.w3.org/2000/svg" viewBox="9.76562 -70.3955 70.33 70.28">
  <path d="M20.9648-64.2959C22.6455-64.2959 24.0147-65.665 24.0147-67.3457C24.0147-69.0264 22.6455-70.3955 20.9648-70.3955C19.2842-70.3955 17.8813-69.0264 17.8813-67.3457C17.8813-65.665 19.2842-64.2959 20.9648-64.2959ZM32.936-64.2959C34.6167-64.2959 35.9858-65.665 35.9858-67.3457C35.9858-69.0264 34.6167-70.3955 32.936-70.3955C31.2705-70.3955 29.8862-69.0264 29.8862-67.3457C29.8862-65.665 31.2705-64.2959 32.936-64.2959ZM44.9072-64.2959C46.5879-64.2959 48.0059-65.665 48.0059-67.3457C48.0059-69.0264 46.5879-70.3955 44.9072-70.3955C43.2417-70.3955 41.8574-69.0264 41.8574-67.3457C41.8574-65.665 43.2417-64.2959 44.9072-64.2959ZM56.9121-64.2959C58.5928-64.2959 59.9771-65.665 59.9771-67.3457C59.9771-69.0264 58.5928-70.3955 56.9121-70.3955C55.2466-70.3955 53.8623-69.0264 53.8623-67.3457C53.8623-65.665 55.2466-64.2959 56.9121-64.2959ZM68.8984-64.2959C70.564-64.2959 71.9482-65.665 71.9482-67.3457C71.9482-69.0264 70.564-70.3955 68.8984-70.3955C67.2178-70.3955 65.8335-69.0264 65.8335-67.3457C65.8335-65.665 67.2178-64.2959 68.8984-64.2959ZM77.0327-56.1802C78.7134-56.1802 80.0977-57.5644 80.0977-59.23C80.0977-60.9106 78.7134-62.2949 77.0327-62.2949C75.3672-62.2949 73.9492-60.9106 73.9492-59.23C73.9492-57.5644 75.3672-56.1802 77.0327-56.1802ZM77.0327-44.1753C78.7134-44.1753 80.0977-45.5596 80.0977-47.2251C80.0977-48.9058 78.7134-50.3086 77.0327-50.3086C75.3672-50.3086 73.9492-48.9058 73.9492-47.2251C73.9492-45.5596 75.3672-44.1753 77.0327-44.1753ZM77.0327-32.2041C78.7134-32.2041 80.0977-33.5732 80.0977-35.2539C80.0977-36.9346 78.7134-38.3037 77.0327-38.3037C75.3672-38.3037 73.9492-36.9346 73.9492-35.2539C73.9492-33.5732 75.3672-32.2041 77.0327-32.2041ZM77.0327-20.1992C78.7134-20.1992 80.0977-21.602 80.0977-23.2827C80.0977-24.9482 78.7134-26.3325 77.0327-26.3325C75.3672-26.3325 73.9492-24.9482 73.9492-23.2827C73.9492-21.602 75.3672-20.1992 77.0327-20.1992ZM77.0327-8.21289C78.7134-8.21289 80.0977-9.59717 80.0977-11.2778C80.0977-12.9434 78.7134-14.3276 77.0327-14.3276C75.3672-14.3276 73.9492-12.9434 73.9492-11.2778C73.9492-9.59717 75.3672-8.21289 77.0327-8.21289ZM68.8984-0.112301C70.564-0.112301 71.9482-1.48144 71.9482-3.16211C71.9482-4.84278 70.564-6.21192 68.8984-6.21192C67.2178-6.21192 65.8335-4.84278 65.8335-3.16211C65.8335-1.48144 67.2178-0.112301 68.8984-0.112301ZM56.9121-0.112301C58.5928-0.112301 59.9771-1.48144 59.9771-3.16211C59.9771-4.84278 58.5928-6.21192 56.9121-6.21192C55.2466-6.21192 53.8623-4.84278 53.8623-3.16211C53.8623-1.48144 55.2466-0.112301 56.9121-0.112301ZM44.9072-0.112301C46.5879-0.112301 48.0059-1.48144 48.0059-3.16211C48.0059-4.84278 46.5879-6.21192 44.9072-6.21192C43.2417-6.21192 41.8574-4.84278 41.8574-3.16211C41.8574-1.48144 43.2417-0.112301 44.9072-0.112301ZM32.936-0.112301C34.6167-0.112301 35.9858-1.48144 35.9858-3.16211C35.9858-4.84278 34.6167-6.21192 32.936-6.21192C31.2705-6.21192 29.8862-4.84278 29.8862-3.16211C29.8862-1.48144 31.2705-0.112301 32.936-0.112301ZM20.9648-0.112301C22.6455-0.112301 24.0147-1.48144 24.0147-3.16211C24.0147-4.84278 22.6455-6.21192 20.9648-6.21192C19.2842-6.21192 17.8813-4.84278 17.8813-3.16211C17.8813-1.48144 19.2842-0.112301 20.9648-0.112301ZM12.8154-8.21289C14.4961-8.21289 15.8804-9.59717 15.8804-11.2778C15.8804-12.9434 14.4961-14.3276 12.8154-14.3276C11.1499-14.3276 9.76562-12.9434 9.76562-11.2778C9.76562-9.59717 11.1499-8.21289 12.8154-8.21289ZM12.8154-20.1992C14.4961-20.1992 15.8804-21.602 15.8804-23.2827C15.8804-24.9482 14.4961-26.3325 12.8154-26.3325C11.1499-26.3325 9.76562-24.9482 9.76562-23.2827C9.76562-21.602 11.1499-20.1992 12.8154-20.1992ZM12.8154-32.2041C14.4961-32.2041 15.8804-33.5732 15.8804-35.2539C15.8804-36.9346 14.4961-38.3037 12.8154-38.3037C11.1499-38.3037 9.76562-36.9346 9.76562-35.2539C9.76562-33.5732 11.1499-32.2041 12.8154-32.2041ZM12.8154-44.1753C14.4961-44.1753 15.8804-45.5596 15.8804-47.2251C15.8804-48.9058 14.4961-50.3086 12.8154-50.3086C11.1499-50.3086 9.76562-48.9058 9.76562-47.2251C9.76562-45.5596 11.1499-44.1753 12.8154-44.1753ZM12.8154-56.1802C14.4961-56.1802 15.8804-57.5644 15.8804-59.23C15.8804-60.9106 14.4961-62.2949 12.8154-62.2949C11.1499-62.2949 9.76562-60.9106 9.76562-59.23C9.76562-57.5644 11.1499-56.1802 12.8154-56.1802Z"/>
</svg>