<svg xmlns="http://www.w3.org/2000/svg" viewBox="9.76562 -70.1499 69.83 69.86">
  <path d="M16.6851-38.4663L34.5298-38.4663C39.1187-38.4663 41.4492-40.7061 41.4492-45.4868L41.4492-63.0957C41.4492-67.8916 39.1187-70.1499 34.5298-70.1499L16.6851-70.1499C12.0962-70.1499 9.76562-67.8916 9.76562-63.0957L9.76562-45.4868C9.76562-40.7061 12.0962-38.4663 16.6851-38.4663ZM16.749-43.2529C15.2627-43.2529 14.5523-43.9634 14.5523-45.5171L14.5523-63.0991C14.5523-64.6191 15.2627-65.3296 16.749-65.3296L34.4321-65.3296C35.9521-65.3296 36.6626-64.6191 36.6626-63.0991L36.6626-45.5171C36.6626-43.9634 35.9521-43.2529 34.4321-43.2529ZM54.8272-38.4663L72.6719-38.4663C77.2608-38.4663 79.5913-40.7061 79.5913-45.4868L79.5913-63.0957C79.5913-67.8916 77.2608-70.1499 72.6719-70.1499L54.8272-70.1499C50.2383-70.1499 47.9077-67.8916 47.9077-63.0957L47.9077-45.4868C47.9077-40.7061 50.2383-38.4663 54.8272-38.4663ZM54.9248-43.2529C53.4048-43.2529 52.6944-43.9634 52.6944-45.5171L52.6944-63.0991C52.6944-64.6191 53.4048-65.3296 54.9248-65.3296L72.6079-65.3296C74.1279-65.3296 74.8047-64.6191 74.8047-63.0991L74.8047-45.5171C74.8047-43.9634 74.1279-43.2529 72.6079-43.2529ZM16.6851-0.290522L34.5298-0.290522C39.1187-0.290522 41.4492-2.54883 41.4492-7.34473L41.4492-24.9536C41.4492-29.7344 39.1187-32.0078 34.5298-32.0078L16.6851-32.0078C12.0962-32.0078 9.76562-29.7344 9.76562-24.9536L9.76562-7.34473C9.76562-2.54883 12.0962-0.290522 16.6851-0.290522ZM16.749-5.11084C15.2627-5.11084 14.5523-5.82129 14.5523-7.34131L14.5523-24.9233C14.5523-26.477 15.2627-27.1875 16.749-27.1875L34.4321-27.1875C35.9521-27.1875 36.6626-26.477 36.6626-24.9233L36.6626-7.34131C36.6626-5.82129 35.9521-5.11084 34.4321-5.11084ZM54.8272-0.290522L72.6719-0.290522C77.2608-0.290522 79.5913-2.54883 79.5913-7.34473L79.5913-24.9536C79.5913-29.7344 77.2608-32.0078 72.6719-32.0078L54.8272-32.0078C50.2383-32.0078 47.9077-29.7344 47.9077-24.9536L47.9077-7.34473C47.9077-2.54883 50.2383-0.290522 54.8272-0.290522ZM54.9248-5.11084C53.4048-5.11084 52.6944-5.82129 52.6944-7.34131L52.6944-24.9233C52.6944-26.477 53.4048-27.1875 54.9248-27.1875L72.6079-27.1875C74.1279-27.1875 74.8047-26.477 74.8047-24.9233L74.8047-7.34131C74.8047-5.82129 74.1279-5.11084 72.6079-5.11084Z"/>
</svg>