<svg xmlns="http://www.w3.org/2000/svg" viewBox="6.83594 -73.9316 77.39 77.36">
  <path d="M45.5137 3.42383C66.8823 3.42383 84.2251-13.8853 84.2251-35.2539C84.2251-56.6226 66.8823-73.9316 45.5137-73.9316C24.1787-73.9316 6.83594-56.6226 6.83594-35.2539C6.83594-13.8853 24.1787 3.42383 45.5137 3.42383ZM17.6504-52.4014C23.1817-61.8706 33.5825-68.2353 45.4463-68.2353C57.3437-68.2353 67.7446-61.8706 73.3096-52.4351C74.6621-50.5117 73.9834-48.3457 71.7197-48.3457L19.2403-48.3457C17.0103-48.3457 16.2827-50.5117 17.6504-52.4014ZM45.4648-24.6133C40.8311-24.6133 37.0796-28.3496 37.0796-33.0137C37.0796-37.6626 40.8311-41.3652 45.4648-41.3652C50.1289-41.3652 53.8804-37.6626 53.8804-33.0137C53.8804-28.3496 50.1289-24.6133 45.4648-24.6133ZM13.6167-26.8467C13.0508-28.9839 14.1709-30.0347 16.0318-29.7988C27.4883-28.7544 36.4614-18.6919 35.8491-7.0381C35.8189-5.19581 34.4497-4.05225 32.5518-4.9297C23.1406-8.9673 16.1675-17.0366 13.6167-26.8467ZM77.3769-26.8467C74.8262-17.0366 67.853-8.9673 58.4419-4.9297C56.544-4.05225 55.1748-5.19581 55.1445-7.0381C54.5474-18.6465 63.4263-28.7544 74.9282-29.7988C76.7891-30.0347 77.9429-28.9839 77.3769-26.8467Z"/>
</svg>