<svg xmlns="http://www.w3.org/2000/svg" viewBox="6.83594 -73.2446 91.3 75.97">
  <path d="M6.83594-27.6382C6.83594-16.4243 10.8921-6.1416 17.5884 1.81251C18.3545 2.7251 19.6089 2.70997 20.4878 1.8462L29.3516-7.00244C29.9981-7.61523 30.0317-8.47217 29.4492-9.18261C25.3106-14.436 22.9668-20.7686 22.9668-27.6382C22.9668-42.748 34.3135-55.2212 48.9351-57.001C49.9756-57.0986 50.708-57.895 50.708-58.9204L50.708-71.1299C50.708-72.3506 49.7803-73.2446 48.5596-73.1318C25.2192-71.1567 6.83594-51.5493 6.83594-27.6382ZM98.1348-27.6382C98.1348-51.5493 79.8003-71.1567 56.4111-73.1318C55.1904-73.2446 54.2627-72.3506 54.2627-71.1299L54.2627-58.9204C54.2627-57.895 54.9951-57.0986 56.0508-57.001C70.6572-55.2212 82.0376-42.748 82.0376-27.6382C82.0376-20.7686 79.6939-14.436 75.5215-9.18261C74.9727-8.47217 75.0064-7.61523 75.6191-7.00244L84.4981 1.8462C85.377 2.70997 86.6465 2.70997 87.4277 1.78223C94.1275-6.17187 98.1348-16.4394 98.1348-27.6382ZM40.2891-10.4888L62.9673-10.4888C64.0435-10.4888 64.8384-11.186 64.8384-12.1914C64.8384-13.1851 64.0435-13.9312 62.9673-13.9312L44.9976-13.9312L44.9976-14.0894C48.0972-15.147 49.5669-18.7432 49.5669-22.0669C49.5669-23.481 49.4424-24.6914 49.1714-25.7705L59.1167-25.7705C60.0244-25.7705 60.6543-26.4155 60.6543-27.1919C60.6543-28.0171 59.9756-28.6133 59.1167-28.6133L48.3613-28.6133C47.8242-30.7451 47.6392-32.0161 47.6392-33.5664C47.6392-37.9189 50.8789-40.5737 55.9346-40.5737C57.6704-40.5737 58.8994-40.3633 60.0054-40.0654C60.647-39.9038 61.2246-39.7725 61.686-39.7725C62.6611-39.7725 63.2271-40.3164 63.2271-41.2612C63.2271-42.1875 62.5938-42.7197 61.6812-43.0767C59.6504-43.8579 58.0142-44.0986 55.5186-44.0986C48.3018-44.0986 43.4658-40.1113 43.4658-33.4385C43.4658-31.8745 43.7031-30.4048 44.2402-28.6133L40.1187-28.6133C39.2749-28.6133 38.5811-27.9683 38.5811-27.1919C38.5811-26.4155 39.2749-25.7705 40.1187-25.7705L45.0317-25.7705C45.3701-24.4473 45.5923-23.1392 45.5923-21.9019C45.5923-18.2163 43.626-15.4434 40.1055-14.2612C39.1455-13.9126 38.5005-13.2559 38.5005-12.2588C38.5005-11.2163 39.2466-10.4888 40.2891-10.4888Z"/>
</svg>