<svg xmlns="http://www.w3.org/2000/svg" viewBox="6.83594 -73.9165 77.39 77.36">
  <path d="M45.5137 3.43897C66.8521 3.43897 84.2251-13.9004 84.2251-35.2388C84.2251-56.5435 66.8521-73.9165 45.5137-73.9165C24.209-73.9165 6.83594-56.5435 6.83594-35.2388C6.83594-13.9004 24.209 3.43897 45.5137 3.43897ZM33.0571-18.1396C31.9961-18.1396 31.2012-18.9009 31.2012-19.9619C31.2012-21.0078 31.895-21.6646 32.8887-22.0469C36.4429-23.2627 38.4951-26.0693 38.4951-29.8896C38.4951-31.127 38.273-32.4536 37.9009-33.8257L32.8682-33.8257C31.9756-33.8257 31.2817-34.4556 31.2817-35.2808C31.2817-36.1245 31.9756-36.7358 32.8682-36.7358L37.1094-36.7358C36.5386-38.5947 36.3013-40.0981 36.3013-41.6958C36.3013-48.5708 41.2871-52.6104 48.6909-52.6104C51.2691-52.6104 52.9238-52.4033 55.022-51.5884C55.9346-51.2314 56.6016-50.6992 56.6016-49.7207C56.6016-48.7271 56.0357-48.1831 54.9932-48.1831C54.5654-48.1831 53.9204-48.2808 53.2788-48.4761C52.1729-48.7739 50.8765-49.0181 49.1069-49.0181C43.9165-49.0181 40.5908-46.311 40.5908-41.8086C40.5908-40.2397 40.8096-38.9199 41.3804-36.7358L52.3565-36.7358C53.2827-36.7358 53.9614-36.1396 53.9614-35.2808C53.9614-34.4556 53.2979-33.8257 52.3565-33.8257L42.1753-33.8257C42.4951-32.7314 42.6196-31.4687 42.6196-30.0547C42.6196-26.6299 41.0674-22.9663 37.9004-21.8413L37.9004-21.6831L56.3418-21.6831C57.418-21.6831 58.2466-20.937 58.2466-19.9097C58.2466-18.8706 57.418-18.1396 56.3418-18.1396Z"/>
</svg>