<svg xmlns="http://www.w3.org/2000/svg" viewBox="6.83594 -73.9316 77.39 77.36">
  <path d="M45.5137 3.42383C66.8521 3.42383 84.2251-13.9492 84.2251-35.2539C84.2251-56.5586 66.8521-73.9316 45.5137-73.9316C24.209-73.9316 6.83594-56.5586 6.83594-35.2539C6.83594-13.9492 24.209 3.42383 45.5137 3.42383ZM30.2031-18.3662L28.9072-18.3662C25.041-18.3662 23.1265-20.269 23.1265-24.083L23.1265-43.3208C23.1265-47.1196 25.041-49.0039 28.9072-49.0039L30.2031-49.0039ZM33.3355-18.3662L33.3355-49.0039L35.2578-49.0039L35.2578-50.9175C35.2578-54.5161 37.4048-56.168 40.6445-56.168L50.4165-56.168C53.8584-56.168 55.7695-54.5161 55.7695-50.9175L55.7695-49.0039L57.793-49.0039L57.793-18.3662ZM38.5772-49.0039L52.4688-49.0039L52.4688-50.6665C52.4688-52.0859 51.6235-52.8823 50.1772-52.8823L40.8687-52.8823C39.4224-52.8823 38.5772-52.0859 38.5772-50.6665ZM60.8428-18.3662L60.8428-49.0039L62.1538-49.0039C66.0537-49.0039 67.9194-47.1196 67.9194-43.3208L67.9194-24.083C67.9194-20.269 66.0537-18.3662 62.1538-18.3662Z"/>
</svg>