<svg xmlns="http://www.w3.org/2000/svg" viewBox="9.3833 -82.1885 125.87 93.88">
  <path d="M22.2442-64.9697L29.9717-78.2744C31.1641-80.3628 29.5186-82.1885 27.3662-81.8027L15.4126-79.832C13.7842-79.5811 13.0635-78.3198 13.6343-76.7891L17.9175-65.4531C18.6753-63.3799 21.0484-62.8965 22.2442-64.9697ZM10.148-49.4771C9.3833-48.1279 9.83301-46.4639 11.0962-45.748L109.215 10.9463C110.448 11.6958 112.13 11.2612 112.846 9.99464C113.611 8.6338 113.146 6.98487 111.913 6.23536L13.7793-50.459C12.5464-51.1597 10.8638-50.7251 10.148-49.4771ZM45.3462-39.6797C49.4072-37.3579 54.4448-38.7065 56.8003-42.7676C59.1558-46.7949 57.7735-51.8662 53.7461-54.2217C49.7188-56.5434 44.5987-55.1948 42.292-51.1338C39.9702-47.1064 41.3189-42.02 45.3462-39.6797ZM99.0664-8.67333C103.127-6.35155 108.214-7.70019 110.521-11.7275C112.876-15.7886 111.494-20.8599 107.466-23.1816C103.439-25.5034 98.334-24.1548 96.0122-20.1274C93.6905-16.0664 95.0391-10.98 99.0664-8.67333ZM134.908-33.5561L134.712-36.001C134.221-42.041 131.486-46.0112 125.435-49.5137L104.61-61.5391C93.6553-67.8633 88.7554-69.3164 79.8819-68.9746L65.2115-68.4375L54.4995-72.9785C44.8916-77.0483 38.1109-75.5278 33.9737-68.3647L31.3335-63.8018C28.9121-59.5635 29.8989-55.6836 34.0244-53.3262L38.4004-50.772C38.6446-51.4741 38.9561-52.1426 39.3316-52.8447C42.625-58.4853 49.7676-60.3931 55.4571-57.1333C61.1128-53.8887 63.0205-46.7124 59.7608-41.0566C59.3365-40.3545 58.9121-39.75 58.439-39.2129L92.1206-19.7319C92.3648-20.4341 92.6763-21.1362 93.0518-21.8047C96.3116-27.4453 103.522-29.3867 109.177-26.1269C114.833-22.8823 116.741-15.706 113.481-10.0503C113.105-9.34813 112.632-8.74364 112.159-8.18798L114.991-6.56151C119.472-3.98338 122.847-5.10155 125.713-10.061L132.377-21.6011C134.285-24.9097 135.253-29.3164 134.908-33.5561Z" />
</svg>