<svg xmlns="http://www.w3.org/2000/svg" viewBox="6.94189 -73.332 111.01 77.25">
  <path d="M44.1504 3.91407L112.224 3.91407C116.649 3.91407 117.956 0.0371099 116.185-3.43848L82.958-70.0918C81.9341-72.1211 80.1338-73.332 78.187-73.332C76.2554-73.332 74.4399-72.1885 73.4834-70.1929L40.2231-3.43848C38.4668 0.0371099 39.7734 3.91407 44.1504 3.91407ZM59.4072-1.28858L75.9741-36.5596C76.4541-37.6021 77.2979-38.0635 78.187-38.0635C79.0762-38.0635 79.9351-37.6021 80.4151-36.5596L96.982-1.28858L84.2588-1.28858L78.187-28.457L72.1304-1.28858ZM41.1885-13.937L36.7315-33.6753L32.2407-13.937L23.0654-13.937L35.1148-39.604C35.4448-40.3164 36.0562-40.6802 36.7315-40.6802C37.3731-40.6802 38.0181-40.3164 38.333-39.604L49.0469-16.7139L56.728-31.7964L40.7632-63.7983C39.9043-65.4336 38.3853-66.5098 36.7315-66.5098C35.0288-66.5098 33.5249-65.4336 32.666-63.7983L8.42041-15.1372C6.94189-12.229 8.1543-8.77978 11.9082-8.77978L45.02-8.77978L47.666-13.937Z"/>
</svg>