<svg xmlns="http://www.w3.org/2000/svg" viewBox="9.76562 -76.1133 63.8 81.78">
  <path d="M26.1582-57.5776C24.8799-57.5776 23.9351-58.5561 23.9351-59.7856C23.9351-60.9966 24.8799-61.96 26.1582-61.96L58.3687-61.96C59.6284-61.96 60.5733-60.9966 60.5733-59.7856C60.5733-58.5561 59.6284-57.5776 58.3687-57.5776ZM26.1582-46.3281C24.8799-46.3281 23.9351-47.2915 23.9351-48.5361C23.9351-49.7319 24.8799-50.6768 26.1582-50.6768L45.4521-50.6768C46.7456-50.6768 47.6753-49.7319 47.6753-48.5361C47.6753-47.2915 46.7456-46.3281 45.4521-46.3281ZM26.8081-6.25636C23.439-6.25636 21.5767-8.03614 21.5767-11.4727L21.5767-34.2446C21.5767-37.7148 23.439-39.4609 26.8081-39.4609L56.521-39.4609C59.9912-39.4609 61.7524-37.7148 61.7524-34.2446L61.7524-11.4727C61.7524-8.03614 59.9912-6.25636 56.521-6.25636ZM9.76562-5.96778C9.76562 1.77637 13.6216 5.66602 21.2647 5.66602L62.0308 5.66602C69.689 5.66602 73.5635 1.77637 73.5635-5.96778L73.5635-64.4795C73.5635-72.1899 69.689-76.1133 62.0308-76.1133L21.2647-76.1133C13.6216-76.1133 9.76562-72.1899 9.76562-64.4795Z"/>
</svg>