<svg xmlns="http://www.w3.org/2000/svg" viewBox="7.8125 -71.4561 79.59 72.2">
  <path d="M7.8125-9.53028C7.8125-3.84375 11.7964 0.744632 18.0386 0.744632L77.1621 0.744632C83.4043 0.744632 87.4067-3.84375 87.4067-9.53028C87.4067-11.1821 86.9453-12.9502 86.0142-14.5684L56.396-66.2681C54.4966-69.688 51.0615-71.4561 47.5928-71.4561C44.1543-71.4561 40.7227-69.688 38.8081-66.2681L9.18994-14.5381C8.25537-12.9165 7.8125-11.1821 7.8125-9.53028ZM13.2847-9.53028C13.2847-10.2524 13.4126-11.1396 13.8638-11.9712L25.1533-31.7754L69.9834-31.7754L81.2915-11.9375C81.7241-11.1514 81.916-10.2676 81.916-9.53028C81.916-6.92774 79.9414-4.58106 77.0796-4.58106L18.0874-4.58106C15.229-4.58106 13.2847-6.92774 13.2847-9.53028Z"/>
</svg>