<svg xmlns="http://www.w3.org/2000/svg" viewBox="9.75049 -92.061 152.3 108.21">
  <path d="M35.9043-76.6992C36.7666-75.8369 38.1763-75.8369 39.0908-76.6841C39.9531-77.5801 39.938-78.9746 39.0757-79.8369L34.2959-84.583L31.1733-81.4116ZM48.9863-80.9424C50.167-80.9424 51.228-81.9731 51.228-83.1841L51.228-89.8393L46.7783-89.8393L46.7783-83.1841C46.7783-81.9731 47.7754-80.9424 48.9863-80.9424ZM58.8818-76.6841C59.7627-75.8369 61.2061-75.8369 62.0532-76.6992L66.7656-81.4116L63.6431-84.583L58.897-79.8369C58.0347-78.9746 58.0195-77.5801 58.8818-76.6841ZM48.9141-62.3628C51.2246-62.4453 52.7857-64.1748 52.7671-66.3843C52.5986-68.6577 50.854-70.271 48.6968-70.2036C48.2168-70.1514 47.4102-70.02 46.9639-69.8701L33.9575-66.9214C33.2603-66.7378 32.9116-66.2358 32.9453-65.6919C32.979-65.1294 33.3765-64.6948 34.1074-64.5635L47.4067-62.479C47.8867-62.3965 48.4341-62.3628 48.9141-62.3628ZM11.5708-60.7368L18.981-65.5659C19.855-66.1924 19.8887-67.1269 18.9473-67.7383L11.6382-72.5337C10.8501-73.0625 9.79932-72.6919 9.76562-71.5469L9.76562-61.6748C9.75049-60.5752 10.7979-60.1929 11.5708-60.7368ZM48.9863-92.061C35.1841-92.061 23.7476-80.5908 23.7476-66.7549C23.7476-60.3682 26.1992-54.4394 30.0147-50.1846C30.5469-49.6372 31.2256-49.2212 31.9717-49.2212C33.2349-49.2212 34.2656-50.2671 34.2656-51.5337C34.2656-52.1299 34.0669-52.6924 33.4673-53.2583C30.4839-56.4975 28.4331-61.4175 28.4331-66.7549C28.4331-78.2969 37.478-87.3755 48.9863-87.3755C59.6021-87.3755 68.5674-79.5229 69.356-68.3945C70.6646-69.373 72.0742-70.333 73.585-71.2627C71.5669-82.9609 61.2085-92.061 48.9863-92.061ZM50.2827 14.3863C51.0811 15.7168 52.73 16.1514 54.0117 15.4507L160.321-45.8852C161.603-46.6011 162.052-48.2197 161.352-49.5015C160.538-50.8808 158.874-51.2969 157.592-50.581L51.2984 10.7549C50.0166 11.4556 49.5669 13.1197 50.2827 14.3863ZM54.0459-5.4492L61.2002-9.58787L58.9854-13.3843L52.0332-9.3955C50.1529-8.28612 48.4204-8.90575 47.1612-11.0185L44.1504-16.2554C41.77-20.4219 43.0479-24.0952 48.4956-28.373L58.3877-36.2246L65.9292-50.3579C69.2681-56.6753 73.0703-60.3647 80.938-64.9072L91.5757-71.0224C94.4986-72.728 97.0205-72.1792 99.0156-69.4888L104.517-61.9975L130.162-76.7656C132.027-77.8598 133.774-77.2554 135.034-75.1089L140.811-65.0874C142.036-62.9409 141.683-61.126 139.802-60.0317L128.812-53.7114L131.042-49.8813L142.186-56.355C146.326-58.7275 147.313-62.6074 144.892-66.8457L138.561-77.7617C136.139-81.9849 132.274-83.0693 128.134-80.7119L105.78-67.8066L102.497-72.2173C99.003-76.9575 94.6182-77.8735 89.563-74.9536L78.7417-68.7036C70.0689-63.6929 65.7378-59.5049 62.0166-52.438L54.9771-39.1553L45.8159-31.8848C38.4092-26 36.7222-20.3765 40.354-14.0742L43.6343-8.3994C46.0405-4.17625 49.9204-3.09178 54.0459-5.4492ZM74.0313-16.9858L117.523-42.1059L115.342-45.9023L71.8164-20.7974ZM71.0093-7.14109C76.0254-10.0322 77.6924-16.2422 74.7827-21.292C71.8916-26.3081 65.6817-27.9751 60.6655-25.0654C55.6157-22.1743 53.9487-15.9643 56.8736-10.9145C59.7495-5.89842 65.9595-4.23142 71.0093-7.14109ZM68.7945-10.9526C65.8921-9.27587 62.3467-10.227 60.6699-13.1294C58.9932-16.0317 59.9444-19.5771 62.8467-21.2539C65.7642-22.9306 69.2944-21.9795 70.9712-19.0771C72.648-16.1748 71.6968-12.6294 68.7945-10.9526ZM127.455-39.7114C132.471-42.6362 134.138-48.8462 131.213-53.8623C128.337-58.9121 122.127-60.5791 117.078-57.6543C112.062-54.7446 110.395-48.5532 113.304-43.5185C116.195-38.5024 122.405-36.8354 127.455-39.7114ZM125.24-43.5229C122.323-41.8799 118.793-42.831 117.116-45.6997C115.439-48.602 116.39-52.1811 119.293-53.8579C122.195-55.5346 125.74-54.5835 127.417-51.6811C129.094-48.7637 128.143-45.1997 125.24-43.5229Z"/>
</svg>