<svg xmlns="http://www.w3.org/2000/svg" viewBox="9.76562 -65.7998 144.34 59.95">
  <path d="M58.0571-40.6353C58.0571-47.1333 62.8477-51.5972 69.9165-51.5972L92.6475-51.5972C94.1128-51.5972 95.1587-50.5513 95.1587-49.1533C95.1587-47.7739 94.1279-46.8257 92.6963-46.8105L69.9165-46.8105C65.7866-46.8105 62.9902-44.1606 62.9902-40.3423C62.9902-36.8657 65.7378-34.5576 69.8677-34.5576L85.5366-34.5576L85.5366-38.3804C85.5366-40.4502 86.9766-41.1289 88.7803-39.9551L97.9229-33.8501C99.3594-32.875 99.292-31.2329 97.938-30.374L88.7314-24.2539C86.9614-23.0801 85.5366-23.7925 85.5366-25.8286L85.5366-29.7861L69.8677-29.7861C62.8477-29.7861 58.0571-34.1675 58.0571-40.6353ZM19.1113-12.7695L24.1787-12.7695C23.8975-13.9028 23.7324-15.0024 23.7324-16.2031C23.7324-24.2549 30.1914-30.729 38.2769-30.729C46.3286-30.729 52.8364-24.2549 52.8364-16.2031C52.8364-15.0024 52.6714-13.8691 52.4238-12.7695L104.646-12.7695C104.365-13.9028 104.2-15.0024 104.2-16.2031C104.2-24.2212 110.693-30.729 118.745-30.729C126.796-30.729 133.271-24.2549 133.271-16.2031C133.271-15.0024 133.139-13.9028 132.858-12.7695L144.763-12.7695C150.656-12.7695 154.108-16.3042 154.108-22.3594L154.108-37.269C154.108-43.2905 150.656-46.8589 144.763-46.8589L113.049-46.8589L112.125-54.8662C111.288-62.1172 107.181-65.7998 99.9941-65.7998L84.5493-65.7998C72.1841-65.7998 64.9971-63.9727 56.6235-58.7344L40.8843-48.8662L26.623-46.7378C15.0776-45.0523 9.76562-40.0264 9.76562-31.0874L9.76562-22.3594C9.76562-16.3042 13.2026-12.7695 19.1113-12.7695ZM38.2769-5.85351C44.0435-5.85351 48.6416-10.4028 48.6416-16.2031C48.6416-21.9512 44.0098-26.5342 38.2769-26.5342C32.5103-26.5342 27.9273-21.9512 27.9273-16.2031C27.9273-10.4365 32.5103-5.85351 38.2769-5.85351ZM118.745-5.85351C124.478-5.85351 129.109-10.4365 129.109-16.2031C129.109-21.9512 124.478-26.5342 118.745-26.5342C113.012-26.5342 108.395-21.9175 108.395-16.2031C108.395-10.4365 112.978-5.85351 118.745-5.85351Z"/>
</svg>