<svg xmlns="http://www.w3.org/2000/svg" viewBox="9.76562 -76.249 105.66 79.72">
  <path d="M97.4609 2.43945C98.4917 3.47022 100.189 3.47022 101.187 2.43945C102.184 1.40869 102.236-0.187996 101.187-1.23731L27.209-75.2148C26.1597-76.249 24.5293-76.2456 23.4834-75.2148C22.5015-74.2178 22.5015-72.52 23.4834-71.5229ZM26.2847-5.67872C28.4019-5.67872 29.3652-7.21144 29.3652-9.17189L29.3652-58.4848L29.3652-58.4848L23.8779-63.957L12.7905-63.957C10.9985-63.957 9.76562-62.9751 9.76562-61.2285C9.76562-59.4331 10.9985-58.4848 12.7905-58.4848L23.1553-58.4848L23.1553-9.17189C23.1553-7.11036 24.2534-5.67872 26.2847-5.67872ZM60.9082-5.31837C68.0884-5.31837 72.2641-9.51953 73.9048-15.2109L69.1133-20.0024C68.6753-14.211 65.9077-10.8242 61.0244-10.8242C55.7119-10.8242 52.8584-15.2124 52.2051-20.4966C51.853-22.292 50.5376-22.9858 49.3267-22.9858C47.6289-22.9858 46.6504-21.603 46.6504-19.8784C46.6504-14.4502 50.6968-5.31837 60.9082-5.31837ZM71.5474-48.0234C73.1894-48.0234 74.2085-49.2715 74.2085-50.8799C74.2085-56.1894 69.9893-64.9253 60.5615-64.9253C55.4878-64.9253 51.8496-62.3452 49.9668-58.415L54.1924-54.2046C54.9048-57.1865 57.0088-59.438 60.5464-59.438C65.3994-59.438 67.9482-55.4385 68.6689-50.4302C68.9536-48.7358 70.1528-48.0234 71.5474-48.0234ZM112.467-5.53907C114.097-5.53907 115.428-6.75343 115.428-8.3838C115.428-8.69533 115.364-9.08595 115.281-9.38234L103.266-60.4873C102.651-62.98 101.167-64.6743 98.5581-64.6743C95.8667-64.6743 94.5176-63.0776 93.9516-60.4873L85.1504-23.2129L90.0566-18.3066L90.856-21.8608L106.264-21.8608L109.356-8.09914C109.738-6.41993 110.803-5.53907 112.467-5.53907ZM91.9356-27.1123L98.4604-56.6626L98.5395-56.6626L105.135-27.1123Z"/>
</svg>