<svg xmlns="http://www.w3.org/2000/svg" viewBox="8.78906 -72.7007 74.23 74.93">
  <path d="M23.7637-39.5078L30.2847-39.5078C31.2564-39.5078 31.9653-40.0366 32.2466-40.9932L34.2969-48.876L38.5479-27.2964C38.8965-25.3799 41.6079-25.481 42.0391-27.2812L46.0425-42.8574L46.5488-41.1953C46.8975-39.8496 47.5391-39.5078 48.5781-39.5078L54.0654-39.5078C55.0405-39.5078 55.8169-40.2505 55.8169-41.293C55.8169-42.3203 55.1079-43.0967 54.0654-43.0967L49.5381-43.0967L47.6626-50.2051C47.1826-52.0391 44.7188-52.0391 44.1714-50.1377L40.3818-35.9409L36.1309-57.854C35.7822-59.6509 33.1719-59.7856 32.7593-57.8843L29.1226-43.0967L23.7637-43.0967C22.7212-43.0967 21.9448-42.3203 21.9448-41.293C21.9448-40.2505 22.7549-39.5078 23.7637-39.5078ZM8.78906-42.5996C8.78906-25.9907 22.2964-12.5171 38.9053-12.5171C45.5728-12.5171 51.688-14.689 56.6719-18.3862L76.062 1.05274C76.8604 1.83252 77.9028 2.22657 78.9941 2.22657C81.3721 2.22657 83.0142 0.426272 83.0142-1.87598C83.0142-2.97071 82.583-3.96436 81.8892-4.74073L62.5664-24.0972C66.5903-29.1973 68.9727-35.6055 68.9727-42.5996C68.9727-59.1934 55.499-72.7007 38.9053-72.7007C22.2964-72.7007 8.78906-59.1934 8.78906-42.5996ZM14.5376-42.5996C14.5376-56.0454 25.4443-66.9521 38.9053-66.9521C52.3174-66.9521 63.2578-56.0454 63.2578-42.5996C63.2578-29.1724 52.3174-18.2319 38.9053-18.2319C25.4443-18.2319 14.5376-29.1724 14.5376-42.5996Z"/>
</svg>