<svg xmlns="http://www.w3.org/2000/svg" viewBox="5.9956 -77.7124 111.85 81.24">
  <path d="M56.6104-8.43603L61.4375-10.9995L25.6157-72.2754C24.8814-73.5083 23.3335-74.0523 21.8379-73.2725C20.4399-72.5415 20.1216-70.8101 20.8896-69.5435ZM61.9116 3.52589C66.4194 3.52589 70.2066-0.227529 70.2066-4.73534C70.2066-9.32568 66.4531-13.0303 61.9116-13.0303C57.3887-13.0303 53.6504-9.32568 53.6504-4.73534C53.6504-0.212392 57.3398 3.52589 61.9116 3.52589ZM61.9116-1.00976C59.8477-1.00976 58.1709-2.68652 58.1709-4.73534C58.1709-6.833 59.8477-8.57714 61.9116-8.57714C63.9453-8.57714 65.7046-6.81786 65.7046-4.73534C65.7046-2.68652 63.9605-1.00976 61.9116-1.00976ZM61.9116-18.5894C69.6714-18.5894 78.4404-16.3701 85.0488-12.9639C86.7798-12.063 88.6909-12.4082 89.8325-13.8765L115.483-46.6411C117.846-49.6792 117.422-52.8975 114.433-55.23C110.405-58.2876 104.996-61.1196 98.7188-63.4483C99.4834-61.5889 100.836-59.0068 101.264-55.7139C104.265-54.3706 107.096-52.9028 109.647-51.2314C110.673-50.5327 110.801-49.6118 110.053-48.6201L87.3501-19.5562C86.5537-18.5982 86.1025-18.5425 85.1562-18.918C77.332-22.1372 69.1309-24.0161 61.9116-24.0161C54.6773-24.0161 46.5249-22.1372 38.6519-18.918C37.7056-18.5425 37.2544-18.5982 36.4917-19.5562L13.7549-48.6201C13.0073-49.6118 13.1353-50.5327 14.1607-51.2314C27.2486-59.5625 44.5376-64.3911 61.9116-64.3911C64.3052-64.3911 66.729-64.2817 69.0889-64.0293C69.9546-65.877 70.8691-67.5933 71.8208-69.3247C68.5615-69.6597 65.2383-69.8027 61.9116-69.8027C40.8018-69.8027 20.2437-63.4819 9.40918-55.23C6.41992-52.8975 5.9956-49.6792 8.3584-46.6411L34.0093-13.8765C35.1509-12.4082 37.062-12.063 38.7593-12.9639C45.4014-16.3701 54.1704-18.5894 61.9116-18.5894ZM83.7476-39.0225C91.6631-39.0225 96.9688-44.1328 96.9688-51.8193C96.9688-55.5762 95.4263-58.9873 94.1284-61.8306C92.0254-66.3633 88.6963-71.8999 85.7446-76.4512C85.1216-77.3184 84.5137-77.7124 83.7476-77.7124C82.9814-77.7124 82.3735-77.3184 81.7842-76.4512C78.814-71.8999 75.4697-66.3633 73.3667-61.8306C72.084-58.9873 70.5415-55.5762 70.5415-51.8193C70.5415-44.1328 75.8472-39.0225 83.7476-39.0225Z"/>
</svg>