<svg xmlns="http://www.w3.org/2000/svg" viewBox="-1.21924 -73.9316 85.44 77.36">
  <path d="M1.92334-42.4624C-0.562501-42.4624-1.21924-40.7563 0.183594-38.791L8.63281-26.7554C9.77295-25.1387 11.4605-25.1387 12.5669-26.7554L21.0161-38.8096C22.3853-40.7563 21.7285-42.4624 19.2764-42.4624ZM84.2251-35.2539C84.2251-56.6226 66.8823-73.9316 45.5137-73.9316C24.1787-73.9316 6.86963-56.6563 6.83594-35.2051C6.86963-33.6421 8.15137-32.3906 9.68409-32.3906C11.2354-32.3906 12.5508-33.6758 12.5508-35.2388C12.5508-53.4897 27.2778-68.2353 45.5137-68.2353C63.7495-68.2353 78.4951-53.4897 78.4951-35.2539C78.4951-17.0181 63.7495-2.27247 45.5137-2.27247C34.2471-2.27247 24.356-7.9375 18.5034-16.4897C17.4693-17.8726 15.854-18.2886 14.4561-17.4531C13.1221-16.6362 12.7061-14.7026 13.8413-13.2222C20.8291-3.15233 32.332 3.42383 45.5137 3.42383C66.8823 3.42383 84.2251-13.8853 84.2251-35.2539ZM35.7598-17.7778C37.0498-17.7778 38.0283-18.5879 38.3921-19.8965L45.4009-45.9194L45.645-45.9194L52.6538-19.8965C53.0327-18.5239 53.9287-17.7778 55.335-17.7778C56.7598-17.7778 57.7534-18.5391 58.0347-19.9639L64.1514-49.6226C64.2002-49.9155 64.2339-50.2979 64.2339-50.5977C64.2339-51.8506 63.2739-52.4653 62.2129-52.4653C61.3506-52.4653 60.4766-51.8994 60.2778-50.8115L55.2002-23.1416L54.9746-23.1416L47.666-50.6348C47.3696-51.7749 46.7363-52.3897 45.5474-52.3897C44.4595-52.3897 43.7588-51.7261 43.4287-50.5674L36.0562-23.1416L35.8457-23.1416L30.8018-50.8115C30.6216-51.8018 29.8418-52.4653 28.7993-52.4653C27.6523-52.4653 26.812-51.7681 26.812-50.6279C26.812-50.3804 26.8457-50.0166 26.9434-49.5771L33.0449-19.9639C33.3262-18.6216 34.3047-17.7778 35.7598-17.7778ZM24.1362-35.3379C24.1362-34.6289 24.6802-34.1001 25.3555-34.1001L65.6904-34.1001C66.3994-34.1001 66.9434-34.6289 66.9434-35.3379C66.9434-36.0132 66.3994-36.5083 65.6904-36.5083L25.3555-36.5083C24.6802-36.5083 24.1362-36.0132 24.1362-35.3379Z" />
</svg>