<svg xmlns="http://www.w3.org/2000/svg" viewBox="7.0918 -82.4785 90.9 94.73">
  <path d="M13.4077 5.81201C19.6108 12.0303 28.8096 12.2476 34.9048 4.9668C39.8691-0.861323 50.9038-18.9761 60.9736-29.0459C67.6611-35.7334 74.7837-32.1138 82.2456-35.0889L75.7129-58.7808C74.9014-61.7407 75.9741-64.2324 79.5181-65.2207L93.6065-68.957C93.1216-70.2402 91.9175-71.894 90.4658-73.3945C81.7539-82.2935 67.3408-82.4785 58.6812-74.2769C46.0664-62.2666 55.8369-49.5576 47.1445-40.8804C36.7808-30.5166 22.02-22.6592 14.2378-15.7339C7.0918-9.38428 7.14062-0.439945 13.4077 5.81201ZM24.0527-0.210941C21.4731-0.210941 19.3818-2.25342 19.3818-4.83301C19.3818-7.36378 21.4731-9.45508 24.0527-9.45508C26.5835-9.45508 28.6597-7.36378 28.6597-4.83301C28.6597-2.25342 26.5835-0.210941 24.0527-0.210941ZM60.3145-51.4028C59.5078-51.189 58.8511-51.583 58.5698-52.4082C58.356-53.0649 58.8174-53.8716 59.5566-54.0855L68.3394-56.436C69.0298-56.6162 69.7876-56.1885 70.0015-55.4492C70.249-54.624 69.7876-53.9185 69.0147-53.7197ZM61.4258-46.8701C60.6191-46.6899 59.9624-47.0503 59.6812-47.9243C59.4673-48.5659 59.9287-49.3389 60.668-49.5527L69.4507-51.937C70.1411-52.1172 70.8989-51.6895 71.1128-50.9165C71.3604-50.125 70.8652-49.4009 70.126-49.187ZM62.5371-42.3711C61.7642-42.1572 60.9727-42.585 60.8262-43.3916C60.646-44.1494 61.04-44.8398 61.813-45.02L70.5469-47.3706C71.3198-47.6182 72.0776-47.1567 72.2578-46.4512C72.438-45.7085 71.9766-44.9019 71.271-44.7217ZM86.0737-36.7798C87.6377-37.6704 89.2319-38.8809 90.9541-40.4717C95.5933-44.7251 97.9927-51.0195 97.2412-55.6533L85.3984-52.4072C84.0869-52.0503 82.9673-51.9946 81.7886-52.2354Z"/>
</svg>