<svg xmlns="http://www.w3.org/2000/svg" viewBox="9.76562 -71.6237 72.77 72.81">
  <path d="M23.1019 1.18252L69.2023 1.18252C77.9401 1.18252 82.5386-3.41592 82.5386-12.0538L82.5386-58.3874C82.5386-67.0253 77.9401-71.6237 69.2023-71.6237L23.1019-71.6237C14.3974-71.6237 9.76562-67.0253 9.76562-58.3874L9.76562-12.0538C9.76562-3.41592 14.3974 1.18252 23.1019 1.18252ZM35.4196-18.6078C27.394-18.6078 24.886-27.1883 24.886-35.2539C24.886-43.3195 27.394-51.9 35.4196-51.9C43.4785-51.9 45.9865-43.3195 45.9865-35.2539C45.9865-27.1883 43.4785-18.6078 35.4196-18.6078ZM35.4196-24.1896C37.8457-24.1896 38.9134-28.3557 38.9134-35.2539C38.9134-42.1521 37.8457-46.3183 35.4196-46.3183C33.0091-46.3183 31.9414-42.1521 31.9414-35.2539C31.9414-28.3557 33.0091-24.1896 35.4196-24.1896ZM55.3149-18.9163C52.9957-18.9163 52.1679-20.4743 52.1679-21.837C52.1679-22.8624 52.3299-23.5082 52.705-24.4537L60.469-45.0798L60.469-45.4859L51.6195-45.4859C49.9816-45.4859 48.9097-46.6378 48.9097-48.2779C48.9097-49.8227 49.9506-51.0211 51.6195-51.0211L63.8202-51.0211C65.8665-51.0211 67.4911-49.6562 67.4911-47.561C67.4911-46.1162 67.1804-45.0287 66.6766-43.6305L58.4953-21.1912C57.8761-19.6132 57.1304-18.9163 55.3149-18.9163Z"/>
</svg>