<svg xmlns="http://www.w3.org/2000/svg" viewBox="6.83594 -75.4812 80.49 80.45">
  <path d="M47.0632 4.97334C69.2908 4.97334 87.3237-13.0263 87.3237-35.2539C87.3237-57.4815 69.2908-75.4812 47.0632-75.4812C24.8688-75.4812 6.83594-57.4815 6.83594-35.2539C6.83594-13.0263 24.8688 4.97334 47.0632 4.97334ZM47.0632-4.59131C30.1172-4.59131 16.4339-18.3079 16.4339-35.2539C16.4339-52.1999 30.1172-65.9165 47.0632-65.9165C64.0092-65.9165 77.7258-52.1999 77.7258-35.2539C77.7258-18.3079 64.0092-4.59131 47.0632-4.59131ZM49.3779-17.1718C52.152-17.1718 53.8873-18.8074 53.8873-22.0274L53.8873-48.4804C53.8873-51.4697 51.9634-53.336 48.9364-53.336C46.9524-53.336 45.4567-52.8034 43.2907-51.3631L37.0871-47.1637C35.8488-46.3426 35.2874-45.4416 35.2874-44.0568C35.2874-42.3503 36.579-40.9122 38.3033-40.9122C39.0778-40.9122 39.6127-41.0254 40.7623-41.7866L44.6111-44.3414L44.9352-44.3414L44.9352-22.0274C44.9352-18.8074 46.655-17.1718 49.3779-17.1718Z" />
</svg>