<svg xmlns="http://www.w3.org/2000/svg" viewBox="6.83594 -75.4812 80.49 80.45">
  <path d="M47.0632 4.97334C69.2908 4.97334 87.3237-13.0596 87.3237-35.2539C87.3237-57.4482 69.2908-75.4812 47.0632-75.4812C24.8688-75.4812 6.83594-57.4482 6.83594-35.2539C6.83594-13.0596 24.8688 4.97334 47.0632 4.97334ZM30.8304-28.2225C30.8304-29.5717 31.2453-30.8277 31.9487-32.2944C35.6445-39.0576 38.7697-44.8062 42.5409-51.6183C43.4797-53.3648 44.6115-54.2192 46.4468-54.2192C48.8702-54.2192 50.4436-52.5037 50.4436-50.3865C50.4436-49.47 50.1994-48.7243 49.6535-47.5727C46.7988-42.01 43.9312-36.568 40.9035-30.8855L49.2343-30.8855L49.2343-36.9725C49.2343-39.5669 50.7655-41.2313 53.2355-41.2313C55.7722-41.2313 57.3345-39.6157 57.3345-36.9725L57.3345-30.8855L58.9905-30.8855C61.5026-30.8855 63.0184-29.4985 63.0184-27.3237C63.0184-25.049 61.4871-23.5954 58.975-23.5954L57.3345-23.5954L57.3345-21.3332C57.3345-18.426 55.7877-16.888 53.2511-16.888C50.7811-16.888 49.2343-18.4593 49.2343-21.3332L49.2343-23.5954L35.6395-23.5954C32.7167-23.5954 30.8304-25.2776 30.8304-28.2225Z"/>
</svg>