<svg xmlns="http://www.w3.org/2000/svg" viewBox="9.76562 -83.5793 79.25 96.62">
  <path d="M23.0686 5.13516L60.3122 5.13516C69.0167 5.13516 73.6151 0.57002 73.6151-8.03457L73.6151-70.4096C73.6151-79.0475 68.9501-83.5793 60.3122-83.5793L23.0686-83.5793C14.4307-83.5793 9.76562-79.0475 9.76562-70.4096L9.76562-8.03457C9.76562 0.57002 14.3641 5.13516 23.0686 5.13516ZM28.0084-59.6723C24.6638-59.6723 21.9672-62.3999 21.9672-65.7623C21.9672-69.0426 24.6638-71.8035 28.0084-71.8035C31.3708-71.8035 34.0829-69.0426 34.0829-65.7623C34.0829-62.3999 31.3708-59.6723 28.0084-59.6723ZM24.9145-26.7423C23.23-26.7423 21.9339-28.1027 21.9339-29.7717C21.9339-31.4562 23.23-32.8166 24.9145-32.8166L35.6681-32.8166C37.3858-32.8166 38.6975-31.4562 38.6975-29.7717C38.6975-28.1027 37.3858-26.7423 35.6681-26.7423ZM24.9145-16.6992C23.23-16.6992 21.9339-18.0108 21.9339-19.7286C21.9339-21.4131 23.23-22.7247 24.9145-22.7247L35.6681-22.7247C37.3858-22.7247 38.6975-21.4131 38.6975-19.7286C38.6975-18.0108 37.3858-16.6992 35.6681-16.6992ZM24.9145-6.60732C23.23-6.60732 21.9339-7.96777 21.9339-9.63672C21.9339-11.3212 23.23-12.6816 24.9145-12.6816L35.6681-12.6816C37.3858-12.6816 38.6975-11.3212 38.6975-9.63672C38.6975-7.96777 37.3858-6.60732 35.6681-6.60732ZM47.6794-26.7423C45.9949-26.7423 44.6833-28.1027 44.6833-29.7717C44.6833-31.4562 45.9949-32.8166 47.6794-32.8166L58.433-32.8166C60.1508-32.8166 61.4469-31.4562 61.4469-29.7717C61.4469-28.1027 60.1508-26.7423 58.433-26.7423ZM47.6794-16.6992C45.9949-16.6992 44.6833-18.0108 44.6833-19.7286C44.6833-21.4131 45.9949-22.7247 47.6794-22.7247L58.433-22.7247C60.1508-22.7247 61.4469-21.4131 61.4469-19.7286C61.4469-18.0108 60.1508-16.6992 58.433-16.6992ZM47.6794-6.60732C45.9949-6.60732 44.6833-7.96777 44.6833-9.63672C44.6833-11.3212 45.9949-12.6816 47.6794-12.6816L58.433-12.6816C60.1508-12.6816 61.4469-11.3212 61.4469-9.63672C61.4469-7.96777 60.1508-6.60732 58.433-6.60732ZM54.4598-60.6844C51.5611-60.6844 48.7091-61.4168 46.1855-62.9327C44.3611-63.9736 44.1415-65.9578 45.047-67.285C45.7927-68.4679 47.2863-68.9629 48.7978-68.1616C50.9374-67.0629 52.5532-66.5769 54.4598-66.5769C63.1203-66.5769 68.2407-75.0885 78.6501-75.0885C81.582-75.0885 84.3675-74.3561 86.9243-72.8734C88.7976-71.7992 89.0172-69.7995 88.0784-68.4391C87.3017-67.3383 85.8413-66.8433 84.3276-67.6112C82.2058-68.7255 80.5899-69.1316 78.6501-69.1316C69.9718-69.1316 64.8691-60.6844 54.4598-60.6844ZM54.4931-50.0396C51.5944-50.0396 48.7424-50.7388 46.2344-52.2547C44.3611-53.3134 44.1415-55.2798 45.047-56.6069C45.7927-57.8231 47.3196-58.2849 48.8311-57.5169C50.9374-56.4182 52.5532-55.9166 54.4931-55.9166C63.1536-55.9166 68.274-64.4437 78.6501-64.4437C81.582-64.4437 84.4008-63.678 86.9909-62.1954C88.8309-61.1212 89.0172-59.1215 88.1117-57.761C87.335-56.6603 85.8413-56.1652 84.3609-56.9665C82.2391-58.0808 80.6232-58.4869 78.6501-58.4869C70.0051-58.4869 64.8691-50.0396 54.4931-50.0396ZM54.4598-39.3616C51.5611-39.3616 48.7091-40.094 46.2011-41.61C44.3611-42.6354 44.1415-44.6018 45.047-45.9622C45.7927-47.1451 47.3019-47.6068 48.7978-46.8389C50.9374-45.7401 52.5532-45.2386 54.4598-45.2386C63.1203-45.2386 68.2407-53.7657 78.6501-53.7657C81.582-53.7657 84.3675-53 86.9243-51.5174C88.7976-50.4432 89.0172-48.4768 88.0784-47.1163C87.3017-45.9822 85.8413-45.5205 84.3276-46.2885C82.2058-47.4027 80.5899-47.7934 78.6501-47.7934C69.9718-47.7934 64.8691-39.3616 54.4598-39.3616ZM21.715 13.0382C24.1873 13.0382 25.8983 11.3271 25.8983 8.85488L25.8983 0.179395L17.5317 0.179395L17.5317 8.85488C17.5317 11.3271 19.2428 13.0382 21.715 13.0382ZM61.6657 13.0382C64.138 13.0382 65.849 11.3271 65.849 8.85488L65.849 0.179395L57.4824 0.179395L57.4824 8.85488C57.4824 11.3271 59.1935 13.0382 61.6657 13.0382Z"/>
</svg>