<svg xmlns="http://www.w3.org/2000/svg" viewBox="9.76562 -72.1743 74.82 74.43">
  <path d="M36.2989 2.25654C37.7147 2.25654 39.1594 1.67734 40.1603 0.643164L61.159-20.7374C62.2042-21.7826 62.7834-23.2185 62.7834-24.5188C62.7834-27.5769 60.6441-29.6207 57.7614-29.6207C56.1548-29.6207 55.0297-28.9816 54.0977-28.0341L46.0421-19.6988L36.2834-7.74082L26.5225-19.6988L18.4514-28.0341C17.5193-28.9816 16.3942-29.6207 14.8209-29.6207C11.9049-29.6207 9.76562-27.5769 9.76562-24.5188C9.76562-23.2185 10.3781-21.7826 11.39-20.7374L32.4043 0.643164C33.4052 1.67734 34.8498 2.25654 36.2989 2.25654ZM79.3739-30.0217C82.2521-30.0217 84.5845-32.2541 84.5845-35.3299L84.5845-44.1339C84.5845-61.7122 74.1089-72.1743 57.9984-72.1743C42.0766-72.1743 31.0551-61.4791 31.0551-43.6344L31.0551-22.4351L31.7675-7.39473C31.8962-4.90488 33.7758-2.89658 36.2989-2.89658C38.7888-2.89658 40.6684-4.90488 40.7971-7.39473L41.5095-22.4351L41.5095-43.6525C41.5095-55.3921 48.2324-61.8752 57.6987-61.8752C67.165-61.8752 74.1301-55.3921 74.1301-43.6525L74.1301-35.3299C74.1301-32.2541 76.4957-30.0217 79.3739-30.0217Z" />
</svg>