<svg xmlns="http://www.w3.org/2000/svg" viewBox="6.83594 -75.4812 80.49 80.45">
  <path d="M47.0632 4.97334C69.2908 4.97334 87.3237-13.0596 87.3237-35.2539C87.3237-57.4482 69.2908-75.4812 47.0632-75.4812C24.8688-75.4812 6.83594-57.4482 6.83594-35.2539C6.83594-13.0596 24.8688 4.97334 47.0632 4.97334ZM47.8532-12.0358C33.7019-12.0358 24.3068-21.2245 24.3068-35.154C24.3068-49.1168 33.6575-58.5386 47.5825-58.5386C60.9682-58.5386 70.0592-50.0002 70.0592-37.4602C70.0592-28.8507 65.5537-22.8802 58.871-22.8802C55.7194-22.8802 53.247-24.2318 52.1527-26.3337C50.6989-24.0721 48.3484-22.8491 45.5164-22.8646C39.4705-22.8646 35.3111-27.8874 35.3111-35.1718C35.3111-42.2476 39.4084-47.1904 45.2457-47.1904C47.747-47.1904 49.9953-46.0519 51.3848-44.3696L51.3848-44.5184C51.3848-45.8388 52.632-47.1904 54.4785-47.1904C56.5181-47.1904 57.8607-45.7967 57.8607-43.7238L57.8607-30.8988C57.8607-29.5006 58.5333-28.7837 59.8629-28.7837C62.0781-28.7837 63.8893-32.0466 63.8893-37.327C63.8893-46.4447 57.2707-52.5106 47.5492-52.5106C37.4083-52.5106 30.7099-45.497 30.7099-35.023C30.7099-24.5025 37.5192-18.0793 48.6367-18.0793C50.6636-18.0793 52.0755-18.3457 54.191-18.8452C54.8346-18.9451 55.5846-19.0095 56.0483-19.0095C57.6995-19.0095 58.8847-17.8554 58.8847-16.2818C58.8847-14.7526 57.9036-13.6739 56.2189-13.0702C54.1214-12.3511 50.9762-12.0358 47.8532-12.0358ZM46.9345-29.2432C49.6114-29.2432 51.3051-31.4762 51.3051-35.2273C51.3051-38.8631 49.5959-41.0938 46.9678-41.0938C44.3885-41.0938 42.828-38.9297 42.828-35.194C42.828-31.4096 44.3729-29.2432 46.9345-29.2432Z"/>
</svg>