<svg xmlns="http://www.w3.org/2000/svg" viewBox="8.64238 -75.6456 80.8 80.78">
  <path d="M26.2095-58.063C14.9165-46.77 8.64238-30.5991 8.85566-18.206C9.10225-3.65107 17.3491 4.71123 31.7375 4.90898C44.4569 5.13779 60.1154-0.71709 71.8432-12.4448C83.5709-24.1726 89.4436-39.8311 89.2303-52.535C88.9837-66.9233 80.6702-75.1857 66.082-75.4168C53.6889-75.6456 37.518-69.356 26.2095-58.063ZM32.2237-52.0643C42.5111-62.3672 55.1513-67.4143 66.2018-66.9946C75.1818-66.5595 80.3419-61.4505 80.7415-52.6392C81.2277-41.3711 76.1318-28.731 65.8622-18.4436C55.5415-8.15615 42.9169-3.09355 31.6333-3.53096C22.822-3.93057 17.713-9.10615 17.3267-18.0862C16.8737-29.1212 21.9208-41.7613 32.2237-52.0643ZM32.2729-27.0485L40.8132-18.5083C41.7031-17.6184 43.1435-17.6184 44.0334-18.5083C44.9389-19.4471 44.9389-20.8874 44.0334-21.7773L35.542-30.2843C34.6521-31.1587 33.245-31.1742 32.2729-30.2843C31.4163-29.3788 31.4318-27.9385 32.2729-27.0485ZM37.7595-32.5351L46.2997-23.9948C47.2229-23.1537 48.63-23.1049 49.4866-23.9948C50.4254-24.8692 50.3921-26.3739 49.5199-27.2306L41.0285-35.7375C40.1386-36.6119 38.6494-36.6452 37.7595-35.7042C36.8695-34.8653 36.9184-33.425 37.7595-32.5351ZM43.246-37.9883L51.7374-29.448C52.6273-28.5581 54.0832-28.5581 54.9731-29.4325C55.8476-30.3225 55.8298-31.8271 55.0064-32.6838L46.4484-41.224C45.5918-42.0651 44.0871-42.0984 43.246-41.2085C42.3228-40.3186 42.3228-38.8627 43.246-37.9883ZM48.7303-43.4393L57.2217-34.9656C58.0938-34.0757 59.5675-34.109 60.4419-34.9501C61.3807-35.8556 61.3807-37.2471 60.4419-38.1525L51.9017-46.6772C51.0605-47.5672 49.6047-47.5827 48.7147-46.6772C47.8581-45.8028 47.8403-44.3137 48.7303-43.4393ZM54.1835-48.9258L62.6749-40.4188C63.5315-39.5289 65.054-39.5289 65.9284-40.4033C66.8339-41.311 66.8672-42.7669 65.9284-43.6391L57.3882-52.1638C56.5471-53.0537 55.0912-53.0537 54.168-52.1638C53.278-51.2561 53.2936-49.7669 54.1835-48.9258ZM38.829-21.8441L62.4283-45.4435L59.2236-48.6637L35.6243-25.0644Z"/>
</svg>