<svg xmlns="http://www.w3.org/2000/svg" viewBox="6.83594 -78.6664 86.79 86.82">
  <path d="M50.2484 8.15859C74.0831 8.15859 93.6276-11.3859 93.6276-35.2539C93.6276-59.1219 74.0831-78.6664 50.2484-78.6664C26.3805-78.6664 6.83594-59.1219 6.83594-35.2539C6.83594-11.3859 26.3805 8.15859 50.2484 8.15859ZM50.2484-6.88906C34.5679-6.88906 21.8836-19.5733 21.8836-35.2539C21.8836-50.9345 34.5679-63.6187 50.2484-63.6187C65.8957-63.6187 78.58-50.9345 78.58-35.2539C78.58-19.5733 65.8957-6.88906 50.2484-6.88906ZM42.1787-18.5655L52.3368-18.5655C58.8687-18.5655 63.9336-21.686 63.9336-28.0938C63.9336-32.657 60.6688-35.8486 56.0567-36.2615L56.0567-36.4746C59.6678-36.9807 62.3178-40.2123 62.3178-43.759C62.3178-49.6051 57.3551-52.1687 52.1327-52.1687L42.1787-52.1687C39.8352-52.1687 38.5901-50.6795 38.5901-48.4847L38.5901-22.2162C38.5901-20.0547 39.8685-18.5655 42.1787-18.5655ZM44.8416-38.108L44.8416-47.304L50.6015-47.304C53.7978-47.304 56.2083-45.9789 56.2083-42.847C56.2083-39.3665 53.3183-38.108 49.8045-38.108ZM44.8416-23.3969L44.8416-33.636L50.6458-33.636C54.4836-33.636 57.4758-32.4108 57.4758-28.573C57.4758-24.7708 54.6967-23.3969 50.8634-23.3969ZM49.9379-14.4084C50.6903-14.4084 51.1653-14.9167 51.1653-15.6691L51.1653-55.3958C51.1653-56.1482 50.657-56.6565 49.9379-56.6565C49.1521-56.6565 48.6438-56.1482 48.6438-55.3958L48.6438-15.6691C48.6438-14.9167 49.1521-14.4084 49.9379-14.4084Z" />
</svg>