<svg xmlns="http://www.w3.org/2000/svg" viewBox="8.06113 -82.1109 82.9 93.83">
  <path d="M51.6471-59.8304L60.1998-56.7213L66.9158-75.227C67.8679-77.7591 66.7272-80.2712 64.2595-81.2077C61.8095-82.1109 59.3151-80.917 58.4119-78.336ZM51.9603-74.4807C29.9829-77.8259 13.8384-62.749 9.2085-49.8314C8.06113-46.8932 9.45488-44.3766 11.6319-43.5532C13.4339-42.9252 15.0295-43.4646 17.1463-44.5608C19.9409-46.4788 22.6023-47.3091 25.7189-46.1548C27.5192-45.5266 28.6247-44.4677 29.446-43.2733C30.0808-42.412 31.0175-42.4408 31.3415-43.7126C34.6859-56.3701 42.4008-67.3097 51.9603-74.4807ZM61.7363-74.6148C50.5435-68.0774 41.0175-53.6649 37.7529-39.4453C37.4134-37.9982 38.5187-37.0683 40.1322-37.672C43.286-38.795 45.9671-38.9815 48.4596-38.0693C50.8411-37.1882 52.7409-35.3903 54.3833-32.7003C55.3576-31.1711 56.9089-31.1245 57.6413-32.5338C64.182-45.5104 66.0992-62.4912 61.7363-74.6148ZM69.2947-68.1536C72.0338-56.5568 70.8531-43.2713 65.3376-31.3264C64.7827-30.1545 65.442-29.4997 66.5097-29.8039C67.9304-30.1747 69.4177-30.2769 71.2335-29.5998C74.3501-28.4943 75.8728-26.0726 76.7539-22.8916C77.6502-20.6682 78.5489-19.1945 80.3354-18.5688C82.5124-17.7787 85.18-18.8239 86.294-21.811C90.9595-34.6775 88.3315-56.5993 69.2947-68.1536ZM28.0316 5.05215C27.1462 7.43555 28.4022 10.0453 30.7368 10.9152C33.0714 11.7186 35.7633 10.4936 36.5999 8.17676L53.4772-38.2426L44.9245-41.3184Z"/>
</svg>