<svg xmlns="http://www.w3.org/2000/svg" viewBox="6.83594 -75.4812 80.49 80.45">
  <path d="M47.0632 4.97334C69.2908 4.97334 87.3237-13.0263 87.3237-35.2539C87.3237-57.4815 69.2908-75.4812 47.0632-75.4812C24.8688-75.4812 6.83594-57.4815 6.83594-35.2539C6.83594-13.0263 24.8688 4.97334 47.0632 4.97334ZM47.0632-4.59131C30.1172-4.59131 16.4339-18.3079 16.4339-35.2539C16.4339-52.1999 30.1172-65.9165 47.0632-65.9165C64.0092-65.9165 77.7258-52.1999 77.7258-35.2539C77.7258-18.3079 64.0092-4.59131 47.0632-4.59131ZM23.0639-27.4943C23.0639-22.1498 27.7403-18.1437 33.5864-18.1437C39.3992-18.1437 44.1756-22.1498 44.1756-27.4943L44.1756-31.4631C44.9901-31.725 46.0022-31.8893 47.0299-31.8893C48.1907-31.8893 49.1362-31.7916 49.9508-31.563L49.9508-27.4788C49.9508-22.1343 54.6605-18.1281 60.4733-18.1281C66.3194-18.1281 71.0292-22.1343 71.0292-27.4788C71.0292-28.8505 70.8361-30.1821 70.1636-31.9046L62.8968-49.3323C61.7449-52.1198 59.319-53.6956 56.2784-53.6956C52.4232-53.6956 49.9508-51.2409 49.9508-47.4724L49.9508-46.3158C49.0696-46.56 48.1086-46.6421 47.0299-46.6421C46.0511-46.6421 45.0723-46.5111 44.1756-46.2647L44.1756-47.4879C44.1756-51.2409 41.6698-53.7111 37.8146-53.7111C34.774-53.7111 32.3814-52.1354 31.2296-49.3479L23.9295-31.9201C23.2569-30.1977 23.0639-28.866 23.0639-27.4943ZM27.811-27.4943C27.811-30.2777 30.1683-32.211 33.5864-32.211C37.089-32.211 39.4617-30.2777 39.4617-27.4943C39.4617-24.7598 37.089-22.8265 33.5864-22.8265C30.1683-22.8265 27.811-24.7598 27.811-27.4943ZM54.598-27.4788C54.598-30.2622 57.0041-32.1955 60.4733-32.1955C63.9248-32.1955 66.282-30.2622 66.282-27.4788C66.282-24.7442 63.9248-22.8265 60.4733-22.8265C57.0041-22.8265 54.598-24.7442 54.598-27.4788ZM44.1601-37.1717L44.1601-40.5406C45.0234-40.7359 46.0511-40.9002 47.0299-40.9002C48.1086-40.9002 49.0696-40.7692 49.9508-40.5739L49.9508-37.3227C49.1362-37.4847 48.1907-37.6156 47.0299-37.6156C45.9867-37.6156 44.9901-37.4514 44.1601-37.1717Z" />
</svg>