<svg xmlns="http://www.w3.org/2000/svg" viewBox="6.83594 -75.4812 80.49 80.45">
  <path d="M47.0632 4.97334C69.2908 4.97334 87.3237-13.0263 87.3237-35.2539C87.3237-57.4815 69.2908-75.4812 47.0632-75.4812C24.8688-75.4812 6.83594-57.4815 6.83594-35.2539C6.83594-13.0263 24.8688 4.97334 47.0632 4.97334ZM47.0632-4.59131C30.1172-4.59131 16.4339-18.3079 16.4339-35.2539C16.4339-52.1999 30.1172-65.9165 47.0632-65.9165C64.0092-65.9165 77.7258-52.1999 77.7258-35.2539C77.7258-18.3079 64.0092-4.59131 47.0632-4.59131ZM36.4538-15.1921C37.5901-15.1921 38.3336-15.7803 40.025-17.4384L46.8656-24.1769C46.9478-24.2745 47.112-24.2745 47.1941-24.1769L54.0836-17.4384C55.775-15.7803 56.5029-15.1921 57.6393-15.1921C59.3015-15.1921 60.4133-16.386 60.4133-18.2946L60.4133-49.3321C60.4133-53.1718 58.3359-55.2824 54.5118-55.2824L39.5812-55.2824C35.7571-55.2824 33.6798-53.1718 33.6798-49.3321L33.6798-18.2946C33.6798-16.386 34.7583-15.1921 36.4538-15.1921Z" />
</svg>