<svg xmlns="http://www.w3.org/2000/svg" viewBox="9.76562 -77.6161 71.21 84.72">
  <path d="M56.6511 7.1083C71.3502 7.1083 80.9779-2.53496 80.9779-17.2341L80.9779-35.5158C80.9779-41.1331 79.1758-45.7894 75.5915-49.0984L51.4216-71.3152C46.388-75.9427 40.9327-77.6161 34.6296-77.6161L22.7355-77.6161C14.8636-77.6161 9.76562-72.4516 9.76562-64.5796L9.76562-5.86162C9.76562 2.24346 14.6971 7.1083 22.8354 7.1083ZM56.5201-2.18994L23.6496-2.18994C20.3845-2.18994 19.0639-3.34404 19.0639-6.64248L19.0639-63.7987C19.0639-66.4978 20.8507-68.3179 23.5497-68.3179L34.4986-68.3179C38.9998-68.3179 41.9164-67.319 45.0504-64.4625L69.1715-42.3434C71.0204-40.6409 71.6952-38.9272 71.6952-35.4182L71.6952-17.3162C71.6952-7.28398 66.5679-2.18994 56.5201-2.18994Z"/>
</svg>