<svg xmlns="http://www.w3.org/2000/svg" viewBox="6.83594 -71.5809 146.14 72.72">
  <path d="M79.8988 1.13516C99.9932 1.13516 116.257-15.1285 116.257-35.2229C116.257-55.3172 99.9932-71.5809 79.8988-71.5809C59.8378-71.5809 43.5741-55.3172 43.5741-35.2229C43.5741-15.1285 59.8378 1.13516 79.8988 1.13516ZM79.8988-8.05664C64.9086-8.05664 52.7326-20.1993 52.7326-35.2229C52.7326-50.2464 64.9086-62.3891 79.8988-62.3891C94.9224-62.3891 107.098-50.2464 107.098-35.2229C107.098-20.1993 94.9224-8.05664 79.8988-8.05664ZM34.4586-19.9084C35.8568-21.6595 35.333-23.7346 33.9348-25.7188C32.1479-28.1937 31.0427-31.7714 31.0427-35.2539C31.0427-38.7364 32.1479-42.3142 33.9348-44.8046C35.3175-46.7888 35.8568-48.8483 34.4586-50.5994C32.9161-52.4437 29.9688-52.5391 28.0803-50.3353C24.8709-46.4288 23.0908-41.0289 23.0908-35.2539C23.0908-29.4789 24.8709-24.079 28.0803-20.1881C29.9688-17.9843 32.9161-18.0642 34.4586-19.9084ZM22.8113-8.84443C24.2717-10.611 23.8345-12.7838 22.161-14.6525C17.4135-20.0394 14.7878-27.3037 14.7878-35.2539C14.7878-43.1886 17.3824-50.4529 22.161-55.8397C23.85-57.7085 24.2872-59.8813 22.8113-61.6479C21.24-63.5099 18.5191-63.6807 16.453-61.4348C10.3205-54.7917 6.83594-45.2637 6.83594-35.2539C6.83594-25.2131 10.1342-15.8093 16.453-9.05752C18.5502-6.82715 21.2556-6.96689 22.8113-8.84443ZM125.357-19.8773C126.899-18.0331 129.847-17.9532 131.735-20.157C134.945-24.0479 136.725-29.4479 136.725-35.2229C136.725-40.9979 134.945-46.3978 131.735-50.3042C129.847-52.508 126.899-52.4126 125.357-50.5684C123.925-48.8173 124.498-46.7577 125.881-44.7735C127.667-42.2831 128.773-38.7054 128.773-35.2229C128.773-31.7403 127.667-28.1626 125.881-25.6877C124.482-23.7035 123.925-21.6284 125.357-19.8773ZM137.004-8.81338C138.56-6.93584 141.265-6.79609 143.362-9.02646C149.681-15.7782 152.979-25.182 152.979-35.2229C152.979-45.2326 149.495-54.7606 143.362-61.4037C141.296-63.6496 138.575-63.4788 137.004-61.6168C135.528-59.8502 135.965-57.6774 137.654-55.8087C142.433-50.4219 145.028-43.1575 145.028-35.2229C145.028-27.2727 142.402-20.0083 137.654-14.6215C135.981-12.7527 135.544-10.58 137.004-8.81338ZM65.632-20.2083L94.1812-20.2083C97.9009-20.2083 99.9116-22.1347 99.9116-25.8389L99.9116-42.9798C99.9116-46.684 97.9009-48.6437 94.1812-48.6437L90.612-48.6437C89.3425-48.6437 88.8875-48.8257 88.0619-49.6713L86.8079-50.9631C85.949-51.8265 85.0213-52.2859 83.3744-52.2859L76.4388-52.2859C74.7919-52.2859 73.8642-51.842 73.0053-50.9631L71.718-49.6713C70.8924-48.859 70.4707-48.6437 69.25-48.6437L65.632-48.6437C61.9278-48.6437 59.9349-46.684 59.9349-42.9798L59.9349-25.8389C59.9349-22.1347 61.9278-20.2083 65.632-20.2083ZM79.9321-24.951C74.652-24.951 70.3661-29.2035 70.3661-34.5325C70.3661-39.8615 74.652-44.1141 79.9321-44.1141C85.2767-44.1141 89.4981-39.8615 89.4981-34.5325C89.4981-29.1036 85.2767-24.951 79.9321-24.951ZM79.8988-28.8368C83.0663-28.8368 85.6278-31.3806 85.6278-34.5325C85.6278-37.7 83.0663-40.2437 79.8988-40.2437C76.7802-40.2437 74.2187-37.7 74.2187-34.5325C74.2187-31.3806 76.7802-28.8368 79.8988-28.8368ZM93.5907-39.2225C92.2258-39.2225 91.1205-40.3277 91.1205-41.6438C91.1205-42.9755 92.2258-44.0808 93.5907-44.0808C94.9068-44.0808 96.0121-42.9755 96.0121-41.6438C96.0121-40.3277 94.9068-39.2225 93.5907-39.2225Z" />
</svg>