<svg xmlns="http://www.w3.org/2000/svg" viewBox="9.76562 -71.6082 91.21 72.81">
  <path d="M23.1019 1.19805L52.2927 1.19805L52.2927-8.1335L23.8827-8.1335C20.7708-8.1335 19.0639-9.71172 19.0639-12.9856L19.0639-32.1091L9.76562-32.1091L9.76562-12.0383C9.76562-3.40039 14.3974 1.19805 23.1019 1.19805ZM58.518 1.19805L87.6422 1.19805C96.38 1.19805 100.978-3.40039 100.978-12.0383L100.978-32.1091L91.6802-32.1091L91.6802-12.9856C91.6802-9.71172 89.9732-8.1335 86.8613-8.1335L58.518-8.1335ZM91.6802-38.3011L100.978-38.3011L100.978-58.3719C100.978-67.0098 96.38-71.6082 87.6422-71.6082L58.518-71.6082L58.518-62.2767L86.8613-62.2767C89.9732-62.2767 91.6802-60.7317 91.6802-57.4245ZM9.76562-38.3011L19.0639-38.3011L19.0639-57.4245C19.0639-60.7317 20.7708-62.2767 23.8827-62.2767L52.2927-62.2767L52.2927-71.6082L23.1019-71.6082C14.3974-71.6082 9.76562-67.0098 9.76562-58.3719ZM55.422-45.2085C58.5447-45.2085 61.0815-47.712 61.0815-50.8681C61.0815-53.9908 58.5447-56.5276 55.422-56.5276C52.2659-56.5276 49.7624-53.9908 49.7624-50.8681C49.7624-47.712 52.2659-45.2085 55.422-45.2085ZM39.8078-29.5943C42.9306-29.5943 45.4674-32.0979 45.4674-35.2539C45.4674-38.41 42.9306-40.9135 39.8078-40.9135C36.6518-40.9135 34.1482-38.41 34.1482-35.2539C34.1482-32.0979 36.6518-29.5943 39.8078-29.5943ZM55.422-29.5943C58.5447-29.5943 61.0815-32.0979 61.0815-35.2539C61.0815-38.41 58.5447-40.9135 55.422-40.9135C52.2659-40.9135 49.7624-38.41 49.7624-35.2539C49.7624-32.0979 52.2659-29.5943 55.422-29.5943ZM71.0361-29.5943C74.1589-29.5943 76.6957-32.0979 76.6957-35.2539C76.6957-38.41 74.1589-40.9135 71.0361-40.9135C67.8801-40.9135 65.3766-38.41 65.3766-35.2539C65.3766-32.0979 67.8801-29.5943 71.0361-29.5943ZM55.422-13.9802C58.5447-13.9802 61.0815-16.517 61.0815-19.6397C61.0815-22.7958 58.5447-25.2993 55.422-25.2993C52.2659-25.2993 49.7624-22.7958 49.7624-19.6397C49.7624-16.517 52.2659-13.9802 55.422-13.9802Z"/>
</svg>