<svg xmlns="http://www.w3.org/2000/svg" viewBox="9.76562 -82.5678 107.98 90.8">
  <path d="M67.9751-79.6604L66.2639-72.6356L57.3882-81.7399C56.6092-82.5678 55.4618-81.9197 55.8347-80.7679L58.9952-71.4971L55.0444-73.2927C53.9281-73.7609 53.1824-72.9221 53.9437-71.9012L56.1166-69.0734L45.6229-70.5405C44.2579-70.7358 43.9206-69.311 44.9748-68.6785L54.8804-62.6992L49.0896-60.5308C47.94-60.0936 48.1176-58.7331 49.3648-58.6354L55.8725-58.1782L46.9079-52.1323C45.8737-51.4377 46.3087-49.9463 47.7335-50.2703L59.0929-52.8294L59.2394-43.0748C59.2394-41.8941 60.3401-41.8431 60.8262-42.6376L68.3124-54.9756L80.6927-43.8005C81.698-42.9083 83.0252-43.8959 82.3594-45.1121L75.0772-58.813L82.6168-61.0769C83.3447-61.3032 83.3758-62.2598 82.6479-62.5505L75.9717-65.2693L80.7591-78.9124C81.0831-79.8201 80.08-80.7101 79.2699-79.9L71.5483-72.5868L69.7062-79.6759C69.4465-80.7146 68.2503-80.7611 67.9751-79.6604ZM117.742-37.5694L117.742-46.6771C116.201-45.9246 114.661-45.0567 113.054-44.0401L98.9957-35.1734L83.7503-33.3335C73.308-32.0817 66.9783-25.4791 66.9783-16.4706L66.9783-12.1427C66.9783-3.56689 71.0241 0.558789 79.2736 0.558789L84.9994 0.558789L84.9994-7.26396L79.2736-7.26396C76.2394-7.26396 74.8166-8.91309 74.8166-12.4356L74.8166-16.4706C74.8166-21.3291 78.2325-24.7938 84.7334-25.5929L98.6537-27.2841C100.815-27.5437 102.533-28.1119 104.122-29.1173L116.143-36.6305C116.687-36.9768 117.198-37.2897 117.742-37.5694ZM117.726 0.558789L117.726-7.26396L103.47-7.26396L103.47 0.558789ZM94.6606 8.23584C102.286 8.23584 108.29 2.23242 108.29-5.39336C108.29-13.0524 102.286-18.9893 94.6606-18.9893C86.986-18.9893 81.0492-13.0524 81.0492-5.39336C81.0492 2.23242 86.986 8.23584 94.6606 8.23584ZM94.6606 0.819238C91.1959 0.819238 88.4325-1.91084 88.4325-5.39336C88.4325-8.87588 91.1959-11.6215 94.6606-11.6215C98.1432-11.6215 100.907-8.87588 100.907-5.39336C100.907-1.91084 98.1432 0.819238 94.6606 0.819238ZM30.9687 8.23584C38.61 8.23584 44.5801 2.23242 44.5801-5.39336C44.5801-13.0524 38.61-18.9893 30.9687-18.9893C23.3096-18.9893 17.3062-13.0524 17.3062-5.39336C17.3062 2.23242 23.3096 8.23584 30.9687 8.23584ZM30.9687 0.819238C27.4861 0.819238 24.7228-1.91084 24.7228-5.39336C24.7228-8.87588 27.4861-11.6215 30.9687-11.6215C34.4334-11.6215 37.1635-8.87588 37.1635-5.39336C37.1635-1.91084 34.4334 0.819238 30.9687 0.819238ZM9.76562-7.26396L9.76562 0.558789L22.1356 0.558789L22.1356-7.26396ZM40.5966 0.558789L46.3224 0.558789C54.6385 0.558789 58.6177-3.63125 58.6177-12.4356L58.6177-22.1124C58.6177-29.1234 55.0201-33.5756 48.0068-35.9569L42.6313-37.7613C35.8975-43.634 25.5461-51.0446 12.2851-51.0446L9.76562-51.0446L9.76562-43.173L12.2851-43.173C20.9609-43.173 27.9323-39.9326 36.8456-32.1068C38.6655-30.5488 39.7485-30.0473 42.1366-29.2838L45.6345-28.1607C49.0504-27.082 50.7794-25.0157 50.7794-21.8329L50.7794-12.4356C50.7794-8.91309 49.3566-7.26396 46.3224-7.26396L40.5966-7.26396Z"/>
</svg>