<svg xmlns="http://www.w3.org/2000/svg" viewBox="9.76562 -73.2146 95.42 75.89">
  <path d="M30.7299 2.67354L81.1489 2.67354C94.6962 2.67354 105.19-7.62451 105.19-20.8766C105.19-34.2573 94.705-44.5153 80.2676-44.5153C75.0009-54.7603 65.4639-60.5953 53.7898-60.5953C38.4603-60.5953 25.5453-49.2938 23.7589-33.6201C15.6892-31.0968 10.6311-24.2565 10.6311-15.9182C10.6311-5.46279 18.3565 2.67354 30.7299 2.67354ZM30.8341-6.03691C23.6451-6.03691 19.3082-9.69023 19.3082-15.7073C19.3082-20.8388 22.5642-24.3589 28.692-26.019C31.0357-26.5717 31.8681-27.6171 32.1565-30.2471C33.5368-43.1487 42.2552-51.9182 53.7898-51.9182C62.2018-51.9182 69.0422-47.1773 73.4478-38.5791C74.4864-36.4817 75.6583-35.7648 78.2617-35.7648C90.1049-35.7648 96.5124-29.2615 96.5124-20.6835C96.5124-12.3382 89.9893-6.03691 81.3111-6.03691ZM15.4029-36.8718C18.4901-36.8718 20.9426-39.3575 20.9426-42.5091C20.9426-45.5963 18.4901-48.082 15.4029-48.082C12.2514-48.082 9.76562-45.5963 9.76562-42.5091C9.76562-39.3575 12.2514-36.8718 15.4029-36.8718ZM73.7424-62.6547C76.6343-62.6547 79.0224-65.0428 79.0224-67.9347C79.0224-70.8266 76.6343-73.2146 73.7424-73.2146C70.8505-73.2146 68.4957-70.8266 68.4957-67.9347C68.4957-65.0428 70.8505-62.6547 73.7424-62.6547ZM90.621-48.7812C94.991-48.7812 98.4844-52.29 98.4844-56.6601C98.4844-61.0301 94.991-64.539 90.621-64.539C86.2354-64.539 82.7266-61.0301 82.7266-56.6601C82.7266-52.29 86.2354-48.7812 90.621-48.7812ZM47.4691-11.9055C52.6071-11.9055 55.8741-15.532 55.9074-19.4338C55.9074-20.9918 54.9664-22.0771 53.5394-22.0771C52.1456-22.0771 51.4154-21.267 51.0736-19.7733C50.7318-18.3062 49.7686-16.4618 47.4691-16.4618C44.1266-16.4618 43.0656-19.9687 43.0656-24.1368C43.0656-27.9632 44.1909-31.7297 47.4203-31.7297C49.7197-31.7297 50.5698-29.8853 50.9116-28.3693C51.2689-26.8757 52.0302-26.0656 53.3929-26.0656C54.8354-26.0656 55.7765-27.1842 55.7765-28.7089C55.7432-32.6595 52.4606-36.2527 47.3227-36.2527C40.9329-36.2527 37.9899-30.8218 37.9899-24.1368C37.9899-17.5162 40.6888-11.9055 47.4691-11.9055ZM66.3299-11.9055C72.0205-11.9055 75.6138-16.6551 75.6138-24.088C75.6138-31.5209 72.0205-36.2527 66.3299-36.2527C60.5904-36.2527 56.9483-31.5209 56.9483-24.088C56.9483-16.6551 60.5904-11.9055 66.3299-11.9055ZM66.3299-16.4618C63.6554-16.4618 62.0085-19.2185 62.0085-24.088C62.0085-28.9575 63.6554-31.7297 66.3299-31.7297C68.9556-31.7297 70.5869-28.9575 70.5869-24.088C70.5869-19.2185 68.9556-16.4618 66.3299-16.4618Z"/>
</svg>