<svg xmlns="http://www.w3.org/2000/svg" viewBox="6.97363 -77.687 95.69 84.82">
  <path d="M20.931-41.1348L39.4901-41.1348C41.3654-41.1348 42.6748-42.4774 42.6748-44.2884C42.6748-46.1148 41.3654-47.3932 39.4901-47.3932L28.1214-47.3932L28.1214-47.4908L35.3927-54.7846C38.5397-57.8785 40.8725-60.8525 40.8725-64.6769C40.8725-70.4141 36.2117-74.2026 29.0319-74.2026C23.7697-74.2026 19.0602-71.3461 17.7751-67.2002C17.6441-66.5654 17.531-66.0661 17.531-65.4824C17.531-63.6227 18.7893-62.3644 20.7289-62.3644C22.3934-62.3644 23.3587-63.2433 24.1089-64.5837C24.9945-66.3438 26.4661-68.0907 29.123-68.0907C31.8421-68.0907 33.6777-66.4992 33.6777-64.2196C33.6777-62.0377 31.7665-60.171 29.8312-58.2444L19.0289-47.5017C18.0348-46.5674 17.4889-45.571 17.4889-44.3793C17.4889-42.4264 18.8138-41.1348 20.931-41.1348ZM10.4958-10.3607C14.1822 3.00674 17.7976 7.13037 26.4021 7.13037L73.6496 7.13037C79.9437 7.13037 84.0939 3.74141 85.6675-2.61709L100.431-62.2755C102.659-71.2531 98.1875-77.687 89.4742-77.687C78.7016-77.687 70.989-66.5752 75.1702-53.9933L76.7301-60.1955C66.965-53.3242 62.2267-39.5085 63.8776-22.4613L66.6116-26.3202C58.1045-27.8649 48.1215-28.6617 38.2406-28.6617C16.0532-28.6617 6.97363-22.9247 10.4958-10.3607ZM18.8179-12.682C17.3618-17.9203 21.5878-19.9513 38.2406-19.9513C52.8468-19.9513 62.7854-17.8872 66.5918-17.8206C69.5479-17.8206 71.5318-19.8534 71.5318-22.8428C71.4985-37.7815 74.7635-47.5678 81.1044-52.8122C82.7468-54.2104 83.2461-55.4442 82.7889-58.3296C81.7124-65.0503 85.1551-69.0099 89.3966-69.0099C91.6519-69.0099 92.7062-67.2429 92.0292-64.5191L77.2167-4.69873C76.6751-2.5834 75.5874-1.54678 73.6496-1.54678L26.4021-1.54678C22.7709-1.54678 21.6366-2.53232 18.8179-12.682Z"/>
</svg>