<svg xmlns="http://www.w3.org/2000/svg" viewBox="9.76562 -74.4441 92.91 78.38">
  <path d="M23.0064 3.93633L89.4029 3.93633C98.1252 3.93633 102.677-0.548926 102.677-9.17129L102.677-46.6288C102.677-55.2512 98.1252-59.7364 89.4029-59.7364L23.0064-59.7364C14.3508-59.7364 9.76562-55.2512 9.76562-46.6288L9.76562-9.17129C9.76562-0.548926 14.3508 3.93633 23.0064 3.93633ZM35.3757-56.5201L43.7599-56.5201L43.7599-62.8302C43.7599-65.3827 45.2026-66.7922 47.7552-66.7922L64.6542-66.7922C67.24-66.7922 68.6495-65.3672 68.6495-62.8302L68.6495-56.5867L77.067-56.5867L77.067-63.1471C77.067-70.8198 72.9078-74.4441 65.1621-74.4441L47.2162-74.4441C39.8035-74.4441 35.3757-70.8198 35.3757-63.1471Z"/>
</svg>