<svg xmlns="http://www.w3.org/2000/svg" viewBox="6.83594 -75.4812 80.49 80.45">
  <path d="M47.0632 4.97334C69.2908 4.97334 87.3237-13.0263 87.3237-35.2539C87.3237-57.4815 69.2908-75.4812 47.0632-75.4812C24.8688-75.4812 6.83594-57.4815 6.83594-35.2539C6.83594-13.0263 24.8688 4.97334 47.0632 4.97334ZM47.0632-4.59131C30.1172-4.59131 16.4339-18.3079 16.4339-35.2539C16.4339-52.1999 30.1172-65.9165 47.0632-65.9165C64.0092-65.9165 77.7258-52.1999 77.7258-35.2539C77.7258-18.3079 64.0092-4.59131 47.0632-4.59131ZM47.3539-18.6166C53.0913-18.6166 58.5022-21.1091 60.4709-26.2228C60.715-26.8708 60.8593-27.5654 60.8593-28.2801C60.8593-30.0199 59.6521-31.0829 57.9122-31.0829C56.3765-31.0829 55.5864-30.3217 55.0228-28.8991C53.8198-25.8428 50.892-23.9761 47.2763-23.9761C41.0392-23.9761 38.4887-29.6516 38.4887-35.5491C38.4887-41.6087 41.25-47.1066 47.2763-47.1066C50.7588-47.1066 53.6688-45.1112 54.7919-42.2302C55.4199-40.7588 56.1922-40.0131 57.759-40.0131C59.4522-40.0131 60.5974-41.0428 60.5974-42.8026C60.5974-43.8103 60.2733-44.7623 59.8539-45.5235C57.5479-50.2421 52.5054-52.4328 47.2452-52.4328C37.5795-52.4328 31.8977-45.5301 31.8977-35.5336C31.8977-25.7502 37.2377-18.6166 47.3539-18.6166ZM47.0144-14.4084C47.7513-14.4084 48.2751-14.9322 48.2751-15.6691L48.2751-55.3958C48.2751-56.0994 47.7513-56.6565 47.0144-56.6565C46.3107-56.6565 45.7691-56.0994 45.7691-55.3958L45.7691-15.6691C45.7691-14.9655 46.3107-14.4084 47.0144-14.4084Z" />
</svg>