<svg xmlns="http://www.w3.org/2000/svg" viewBox="9.76562 -71.6082 94.1 72.81">
  <path d="M24.5291 1.19805L89.1027 1.19805C97.8405 1.19805 102.439-3.40039 102.439-12.0383L102.439-20.2806C102.439-23.1655 100.626-24.994 97.7898-24.994C94.9204-24.994 93.1407-23.1655 93.1407-20.2806L93.1407-12.9856C93.1407-9.67842 91.4338-8.1335 88.3219-8.1335L25.31-8.1335C22.198-8.1335 20.5244-9.67842 20.5244-12.9856L20.5244-20.2806C20.5244-23.1655 18.7114-24.994 15.8753-24.994C13.0059-24.994 11.1929-23.1655 11.1929-20.2806L11.1929-12.0383C11.1929-3.40039 15.8579 1.19805 24.5291 1.19805ZM24.5291-71.6082C15.8579-71.6082 11.1929-67.0098 11.1929-58.3719L11.1929-51.6614C11.1929-48.7765 13.0059-46.9479 15.8753-46.9479C18.7114-46.9479 20.5244-48.7765 20.5244-51.6614L20.5244-57.4245C20.5244-60.6984 22.198-62.2767 25.31-62.2767L88.3219-62.2767C91.4338-62.2767 93.1407-60.6984 93.1407-57.4245L93.1407-51.6614C93.1407-48.7765 94.9537-46.9479 97.7898-46.9479C100.659-46.9479 102.439-48.7765 102.439-51.6614L102.439-58.3719C102.439-67.0098 97.8405-71.6082 89.1027-71.6082ZM15.8753-29.8769C19.2375-29.8769 21.9517-32.6576 21.9517-36.0198C21.9517-39.3487 19.2375-42.0962 15.8753-42.0962C12.5131-42.0962 9.76562-39.3487 9.76562-36.0198C9.76562-32.6576 12.5131-29.8769 15.8753-29.8769ZM97.7898-29.8769C101.119-29.8769 103.866-32.6576 103.866-36.0198C103.866-39.3487 101.119-42.0962 97.7898-42.0962C94.4276-42.0962 91.6802-39.382 91.6802-36.0198C91.6802-32.6576 94.4276-29.8769 97.7898-29.8769ZM44.9636-17.3738C47.0851-17.3738 48.4876-18.4789 49.1534-21.0554L50.9805-26.6097L62.6514-26.6097L64.4451-21.0554C65.1442-18.4789 66.5468-17.3738 68.6683-17.3738C71.1937-17.3738 72.7582-18.8896 72.7582-21.2685C72.7582-22.0297 72.5807-22.8974 72.1945-24.1201L63.4223-48.6673C62.2972-52.0003 60.0603-53.638 56.736-53.638C53.4917-53.638 51.3502-52.0158 50.2096-48.6673L41.4373-24.1201C41.0179-22.8974 40.8403-22.0297 40.8403-21.2685C40.8403-18.8896 42.4049-17.3738 44.9636-17.3738ZM52.7516-32.9189L56.5873-45.4487L57.0445-45.4487L60.8803-32.9189Z"/>
</svg>