<svg xmlns="http://www.w3.org/2000/svg" viewBox="9.76562 -71.6082 91.21 72.81">
  <path d="M23.1019 1.19805L87.6422 1.19805C96.38 1.19805 100.978-3.40039 100.978-12.0383L100.978-58.3719C100.978-67.0098 96.38-71.6082 87.6422-71.6082L23.1019-71.6082C14.3974-71.6082 9.76562-67.0098 9.76562-58.3719L9.76562-12.0383C9.76562-3.40039 14.3974 1.19805 23.1019 1.19805ZM23.8827-8.1335C20.7708-8.1335 19.0639-9.71172 19.0639-12.9856L19.0639-57.4245C19.0639-60.7317 20.7708-62.2767 23.8827-62.2767L86.8613-62.2767C89.9732-62.2767 91.6802-60.7317 91.6802-57.4245L91.6802-12.9856C91.6802-9.71172 89.9732-8.1335 86.8613-8.1335ZM51.3137-17.0433C52.9183-17.0433 54.3253-17.8355 55.233-19.2804L71.5485-44.6783C72.1633-45.6349 72.6228-46.658 72.6228-47.6346C72.6228-49.8672 70.6653-51.3674 68.5148-51.3674C67.1434-51.3674 65.9449-50.6395 65.0239-49.1037L51.1805-26.7127L44.9701-34.7078C43.9447-36.0307 42.9061-36.4812 41.5767-36.4812C39.3773-36.4812 37.6175-34.7346 37.6175-32.502C37.6175-31.45 38.0081-30.5067 38.7648-29.5214L47.1968-19.2338C48.3819-17.7534 49.678-17.0433 51.3137-17.0433Z" />
</svg>