<svg xmlns="http://www.w3.org/2000/svg" viewBox="6.83594 -75.4656 80.49 80.45">
  <path d="M61.8566-8.39355C57.4774-5.98525 52.4257-4.57578 47.0299-4.57578C30.0506-4.57578 16.4339-18.2258 16.4339-35.2384C16.4339-40.6342 17.8101-45.7015 20.2672-50.0807L13.3301-56.9845C9.22852-50.7234 6.83594-43.2239 6.83594-35.2384C6.83594-13.1928 25.0509 4.98887 47.0632 4.98887C55.0332 4.98887 62.4994 2.64512 68.7604-1.45645ZM80.8296-13.5078C84.9312-19.8021 87.3237-27.2684 87.3237-35.2384C87.3237-57.284 69.0755-75.4656 47.0299-75.4656C39.0599-75.4656 31.5937-73.1063 25.3326-68.9715L32.2542-62.1165C36.5823-64.4915 41.6341-65.901 46.9966-65.901C64.0092-65.901 77.6925-52.251 77.6925-35.2384C77.6925-29.8426 76.3163-24.8241 73.908-20.4449ZM80.4945 3.02471C81.8284 4.34307 84.0079 4.32529 85.293 2.99141C86.578 1.65752 86.6269-0.473145 85.293-1.80703L13.6341-73.4837C12.3002-74.8176 10.1207-74.8176 8.75352-73.4837C7.50176-72.1986 7.50176-69.9703 8.75352-68.6853Z"/>
</svg>