<svg xmlns="http://www.w3.org/2000/svg" viewBox="6.83594 -75.4323 80.49 80.45">
  <path d="M47.0632 5.02217C69.2908 5.02217 87.3237-13.0107 87.3237-35.2051C87.3237-57.3994 69.2908-75.4323 47.0632-75.4323C24.8688-75.4323 6.83594-57.3994 6.83594-35.2051C6.83594-13.0107 24.8688 5.02217 47.0632 5.02217ZM35.1532-30.3977C29.6089-30.3977 26.2442-34.0154 26.2442-38.5853C26.2442-42.4028 28.597-45.3525 31.9816-46.4711C32.7406-53.2361 38.4337-58.3855 45.2986-58.3855C50.5455-58.3855 54.7249-55.6688 57.0243-51.2342C63.2345-51.2342 67.982-46.8219 67.982-40.7938C67.982-35.0608 63.4032-30.3977 57.3729-30.3977ZM37.8098-20.5897C37.3215-19.662 36.0853-19.3202 35.1087-19.824C34.1166-20.41 33.8725-21.6795 34.3607-22.6072L36.3339-25.9986C36.8222-26.8931 38.0584-27.2682 39.0505-26.7311C40.0271-26.1784 40.2712-24.8756 39.7829-24.0145ZM47.9509-20.5587C47.4626-19.631 46.1931-19.2892 45.2498-19.793C44.2577-20.3789 44.0136-21.6484 44.5019-22.5606L46.475-25.9676C46.9966-26.862 48.2328-27.2371 49.1916-26.7C50.1682-26.1474 50.4456-24.8445 49.9085-23.9834ZM58.0587-20.5897C57.5549-19.662 56.3187-19.3202 55.3909-19.824C54.3655-20.41 54.1214-21.6795 54.6097-22.6072L56.6006-25.9986C57.1044-26.8931 58.3406-27.2682 59.2994-26.7311C60.2938-26.1784 60.5534-24.8756 60.0496-24.0145ZM32.8315-12.766C31.3667-12.766 30.1282-13.9712 30.1282-15.4693C30.1282-16.9187 31.3667-18.1571 32.8315-18.1571C34.3142-18.1571 35.5193-16.9187 35.5193-15.4693C35.5193-13.9712 34.3142-12.766 32.8315-12.766ZM43.006-12.735C41.4745-12.735 40.2693-13.9401 40.2693-15.4383C40.2693-16.8876 41.4745-18.1261 43.006-18.1261C44.4886-18.1261 45.6938-16.8876 45.6938-15.4383C45.6938-13.9401 44.4886-12.735 43.006-12.735ZM53.1138-12.766C51.6156-12.766 50.4104-13.9712 50.4104-15.4693C50.4104-16.9187 51.6156-18.1571 53.1138-18.1571C54.5631-18.1571 55.8016-16.9187 55.8016-15.4693C55.8016-13.9712 54.5631-12.766 53.1138-12.766Z"/>
</svg>