<svg xmlns="http://www.w3.org/2000/svg" viewBox="6.83594 -75.4812 80.49 80.45">
  <path d="M47.0632 4.97334C69.2908 4.97334 87.3237-13.0263 87.3237-35.2539C87.3237-57.4815 69.2908-75.4812 47.0632-75.4812C24.8688-75.4812 6.83594-57.4815 6.83594-35.2539C6.83594-13.0263 24.8688 4.97334 47.0632 4.97334ZM47.0632-4.59131C30.1172-4.59131 16.4339-18.3079 16.4339-35.2539C16.4339-52.1999 30.1172-65.9165 47.0632-65.9165C64.0092-65.9165 77.7258-52.1999 77.7258-35.2539C77.7258-18.3079 64.0092-4.59131 47.0632-4.59131ZM33.8238-21.3289L58.4248-21.3289C65.0033-21.3289 70.117-26.2783 70.117-32.6926C70.117-39.3021 64.95-44.2315 57.9431-44.1649C55.4506-49.1854 50.7519-52.0132 45.0878-52.0132C37.5438-52.0132 31.267-46.4288 30.4614-38.9003C26.5552-37.653 24.0427-34.3127 24.0427-30.3065C24.0427-24.9865 28.0288-21.3289 33.8238-21.3289Z" />
</svg>