<svg xmlns="http://www.w3.org/2000/svg" viewBox="6.83594 -80.4283 90 91.95">
  <path d="M26.1092-20.0734L73.8429-20.0734C87.0062-20.0734 96.8315-30.083 96.8315-42.5871C96.8315-55.4397 86.6332-65.0785 73.2522-65.0785C68.6224-74.0809 59.9308-80.4283 47.9396-80.4283C32.923-80.4283 20.8958-69.1646 19.2847-54.8779C12.1825-52.6275 6.83594-46.3199 6.83594-37.8884C6.83594-27.9301 14.1775-20.0734 26.1092-20.0734ZM27.696-1.21309L32.4323-9.40068C33.2269-10.8122 32.8362-12.4789 31.427-13.3223C29.9844-14.1323 28.3953-13.6641 27.5364-12.206L22.7668-3.98506C22.0056-2.64014 22.3807-0.955664 23.8232-0.145605C25.2325 0.664453 26.9348 0.131836 27.696-1.21309ZM36.596 9.64453L47.6645-9.44951C48.459-10.8277 48.0684-12.4944 46.6924-13.3045C45.3164-14.1146 43.6119-13.6641 42.8019-12.2215L31.8333 6.80596C31.0388 8.21748 31.4139 9.90195 32.8231 10.712C34.1991 11.5221 35.8348 11.0228 36.596 9.64453ZM58.1314-1.24639L62.8678-9.43398C63.6623-10.8122 63.2717-12.5122 61.8624-13.3556C60.4198-14.1656 58.8308-13.6974 57.9719-12.2393L53.2355-4.01836C52.441-2.67344 52.8161-0.988965 54.2587-0.178906C55.668 0.631152 57.3702 0.0985352 58.1314-1.24639ZM67.0314 9.61123L78.0999-9.48281C78.8944-10.861 78.5038-12.4944 77.1278-13.3378C75.7519-14.1479 74.0807-13.6974 73.2373-12.2548L62.2687 6.77266C61.4742 8.18418 61.8493 9.86865 63.2586 10.6787C64.6346 11.4888 66.2702 10.9895 67.0314 9.61123Z" />
</svg>