<svg xmlns="http://www.w3.org/2000/svg" viewBox="6.83594 -75.4323 80.49 80.45">
  <path d="M47.0632 5.02217C69.2908 5.02217 87.3237-13.0107 87.3237-35.2051C87.3237-57.3994 69.2908-75.4323 47.0632-75.4323C24.8688-75.4323 6.83594-57.3994 6.83594-35.2051C6.83594-13.0107 24.8688 5.02217 47.0632 5.02217ZM28.628-19.045C23.9005-19.045 20.6711-22.0613 20.6711-26.4759C20.6711-29.7984 22.7086-32.5861 25.7382-33.5805C26.4396-39.6264 31.6065-44.2896 37.7967-44.2896C42.7326-44.2896 46.4082-41.6773 48.3858-37.9307C54.0411-37.8641 58.1494-33.8401 58.1494-28.4668C58.1494-23.1045 54.1365-19.045 48.7875-19.045ZM44.4618-46.0539L42.0713-48.5088C41.3411-49.3544 41.2635-50.7526 42.0558-51.5316C42.8703-52.3129 44.2197-52.3284 45.1119-51.5316L47.5513-49.079C48.317-48.3155 48.297-46.8685 47.5513-46.0717C46.739-45.2904 45.2919-45.2416 44.4618-46.0539ZM55.6236-49.4631C54.4695-49.4631 53.493-50.4396 53.493-51.6093L53.493-55.0142C53.493-56.2326 54.4695-57.1581 55.6236-57.1581C56.8266-57.1581 57.7876-56.2326 57.7876-55.0142L57.7876-51.6093C57.7876-50.4396 56.8266-49.4631 55.6236-49.4631ZM63.8247-46.0717C62.9813-46.9018 62.9636-48.2822 63.8247-49.0945L66.1819-51.5161C67.0608-52.3617 68.4413-52.3284 69.2226-51.5161C70.0504-50.7193 70.0349-49.3389 69.207-48.4933L66.8343-46.0384C66.053-45.2416 64.606-45.2904 63.8247-46.0717ZM69.2979-35.8531C68.1438-35.8531 67.1695-36.8119 67.1695-37.966C67.1695-39.1867 68.1438-40.0789 69.2979-40.0789L72.6518-40.0789C73.8547-40.0789 74.8157-39.1867 74.8157-37.966C74.8157-36.8119 73.8547-35.8531 72.6518-35.8531ZM66.1819-24.3516L63.8092-26.7398C62.948-27.601 62.9658-28.9659 63.7937-29.7805C64.6237-30.5928 66.0042-30.5772 66.8653-29.7649L69.207-27.4077C70.0682-26.5954 70.0349-25.2282 69.2226-24.4004C68.4258-23.5548 67.0608-23.4882 66.1819-24.3516ZM64.9988-37.966C64.9988-34.9187 63.5162-32.1465 61.1479-30.4152C60.3579-35.9463 55.9854-40.1257 50.2258-40.8914C49.6221-41.8214 48.9074-42.6692 48.0929-43.3839C49.6932-45.7632 52.5119-47.2769 55.6392-47.2769C60.8395-47.2769 64.9988-43.1686 64.9988-37.966Z"/>
</svg>