<svg xmlns="http://www.w3.org/2000/svg" viewBox="9.76562 -71.6237 72.77 72.81">
  <path d="M23.1019 1.18252L69.2023 1.18252C77.9401 1.18252 82.5386-3.41592 82.5386-12.0538L82.5386-58.3874C82.5386-67.0253 77.9401-71.6237 69.2023-71.6237L23.1019-71.6237C14.3974-71.6237 9.76562-67.0253 9.76562-58.3874L9.76562-12.0538C9.76562-3.41592 14.3974 1.18252 23.1019 1.18252ZM23.8827-8.14902C20.7708-8.14902 19.0639-9.72725 19.0639-13.0012L19.0639-57.44C19.0639-60.7473 20.7708-62.2922 23.8827-62.2922L68.4215-62.2922C71.5334-62.2922 73.2403-60.7473 73.2403-57.44L73.2403-13.0012C73.2403-9.72725 71.5334-8.14902 68.4215-8.14902ZM46.515-18.6166C52.2347-18.6166 57.73-21.3267 59.5987-26.356C59.8895-27.0839 59.9871-27.6521 59.9871-28.4133C59.9871-30.3041 58.6777-31.2494 57.0556-31.2494C55.4865-31.2494 54.7476-30.4061 54.1506-29.0323C52.8433-25.7562 49.9865-23.9428 46.4529-23.9428C40.2158-23.9428 37.6165-29.6671 37.6165-35.5491C37.6165-41.5932 40.3934-47.1066 46.4041-47.1066C49.9688-47.1066 52.8145-45.0113 53.9197-42.097C54.5145-40.6744 55.2689-39.8799 56.8868-39.8799C58.5513-39.8799 59.7252-40.883 59.7252-42.6694C59.7252-43.4262 59.5166-44.2983 59.1638-45.024C56.8112-50.1399 51.682-52.4328 46.373-52.4328C36.6297-52.4328 31.0255-45.4524 31.0255-35.5336C31.0255-25.6415 36.4897-18.6166 46.515-18.6166ZM38.1007-13.7757C38.7222-13.7757 39.1483-14.0864 39.3126-14.7257L49.0852-55.054C49.1673-55.3492 49.2006-55.4979 49.2006-55.6289C49.2006-56.3325 48.7256-56.8563 47.9887-56.8563C47.2673-56.8563 46.8744-56.5123 46.7102-55.873L36.9043-15.6113C36.8555-15.416 36.8222-15.2007 36.8222-15.0031C36.8222-14.2995 37.3638-13.7757 38.1007-13.7757ZM44.775-13.7757C45.4298-13.7757 45.856-14.0864 46.0202-14.7257L55.7928-55.054C55.8749-55.3492 55.9082-55.4979 55.9082-55.6289C55.9082-56.3325 55.3999-56.8563 54.6963-56.8563C53.9749-56.8563 53.5487-56.5123 53.3845-55.873L43.6119-15.6113C43.5631-15.416 43.5298-15.2007 43.5298-15.0031C43.5298-14.2995 44.0714-13.7757 44.775-13.7757Z" />
</svg>