<svg xmlns="http://www.w3.org/2000/svg" viewBox="9.76562 -74.7487 96.41 79.09">
  <path d="M22.1169 4.33857L93.8068 4.33857C101.622 4.33857 106.174-0.162207 106.174-7.95713L106.174-62.453C106.174-70.2479 101.622-74.7487 93.8068-74.7487L22.1169-74.7487C14.302-74.7487 9.76562-70.2479 9.76562-62.453L9.76562-7.95713C9.76562-0.162207 14.302 4.33857 22.1169 4.33857ZM34.9471-37.9284C28.2398-37.9284 22.7821-43.3861 22.7821-50.1267C22.7821-56.8339 28.2398-62.3249 34.9471-62.3249C41.7054-62.3249 47.1298-56.8339 47.1298-50.1267C47.1298-43.3861 41.7054-37.9284 34.9471-37.9284ZM65.6559-37.9284C58.9153-37.9284 53.4576-43.3861 53.4576-50.1267C53.4576-56.8339 58.9153-62.3249 65.6559-62.3249C72.3964-62.3249 77.8541-56.8339 77.8541-50.1267C77.8541-43.3861 72.3964-37.9284 65.6559-37.9284ZM34.9471-8.21396C28.2398-8.21396 22.7821-13.705 22.7821-20.4122C22.7821-27.1527 28.2398-32.6104 34.9471-32.6104C41.7054-32.6104 47.1298-27.1527 47.1298-20.4122C47.1298-13.705 41.7054-8.21396 34.9471-8.21396ZM65.6559-8.21396C58.9153-8.21396 53.4576-13.705 53.4576-20.4122C53.4576-27.1527 58.9153-32.6104 65.6559-32.6104C72.3964-32.6104 77.8541-27.1527 77.8541-20.4122C77.8541-13.705 72.3964-8.21396 65.6559-8.21396ZM90.3275-48.6929C88.1348-48.6929 86.4303-50.3974 86.4303-52.5901C86.4303-54.7341 88.1348-56.4719 90.3275-56.4719C92.4537-56.4719 94.176-54.7341 94.176-52.5901C94.176-50.3974 92.4537-48.6929 90.3275-48.6929ZM90.3275-37.1517C88.1348-37.1517 86.4303-38.8562 86.4303-41.0489C86.4303-43.1596 88.1348-44.9307 90.3275-44.9307C92.4537-44.9307 94.176-43.1596 94.176-41.0489C94.176-38.8562 92.4537-37.1517 90.3275-37.1517ZM90.3275-25.5438C88.1348-25.5438 86.4303-27.3149 86.4303-29.4744C86.4303-31.6339 88.1348-33.3384 90.3275-33.3384C92.4537-33.3384 94.176-31.6339 94.176-29.4744C94.176-27.3149 92.4537-25.5438 90.3275-25.5438ZM90.3275-14.0182C88.1348-14.0182 86.4303-15.756 86.4303-17.9332C86.4303-20.0927 88.1348-21.7972 90.3275-21.7972C92.4537-21.7972 94.176-20.0927 94.176-17.9332C94.176-15.756 92.4537-14.0182 90.3275-14.0182ZM34.9471-42.4359C39.2086-42.4359 42.6556-45.8496 42.6556-50.1267C42.6556-54.3704 39.2086-57.7841 34.9471-57.7841C30.7366-57.7841 27.2896-54.3704 27.2896-50.1267C27.2896-45.8496 30.7366-42.4359 34.9471-42.4359ZM34.9471-44.5022C31.8419-44.5022 29.3893-46.9549 29.3893-50.1267C29.3893-53.2651 31.8419-55.7178 34.9471-55.7178C38.1033-55.7178 40.556-53.2651 40.556-50.1267C40.556-46.9549 38.1033-44.5022 34.9471-44.5022ZM65.6559-42.4359C69.9174-42.4359 73.3466-45.8496 73.3466-50.1267C73.3466-54.3704 69.9174-57.7841 65.6559-57.7841C61.4276-57.7841 57.9984-54.3704 57.9984-50.1267C57.9984-45.8496 61.4276-42.4359 65.6559-42.4359ZM65.6559-44.5022C62.4996-44.5022 60.047-46.9549 60.047-50.1267C60.047-53.2651 62.4996-55.7178 65.6559-55.7178C68.7788-55.7178 71.2314-53.2651 71.2314-50.1267C71.2314-46.9549 68.7788-44.5022 65.6559-44.5022ZM34.9471-12.7548C39.2086-12.7548 42.6556-16.1685 42.6556-20.4122C42.6556-24.6893 39.2086-28.1029 34.9471-28.1029C30.7366-28.1029 27.2896-24.6893 27.2896-20.4122C27.2896-16.1685 30.7366-12.7548 34.9471-12.7548ZM34.9471-14.8211C31.8419-14.8211 29.3893-17.2737 29.3893-20.4122C29.3893-23.584 31.8419-26.0366 34.9471-26.0366C38.1033-26.0366 40.556-23.584 40.556-20.4122C40.556-17.2737 38.1033-14.8211 34.9471-14.8211ZM65.6559-12.7548C69.9174-12.7548 73.3466-16.1685 73.3466-20.4122C73.3466-24.6893 69.9174-28.1029 65.6559-28.1029C61.4276-28.1029 57.9984-24.6893 57.9984-20.4122C57.9984-16.1685 61.4276-12.7548 65.6559-12.7548ZM65.6559-14.8211C62.4996-14.8211 60.047-17.2737 60.047-20.4122C60.047-23.584 62.4996-26.0366 65.6559-26.0366C68.7788-26.0366 71.2314-23.584 71.2314-20.4122C71.2314-17.2737 68.7788-14.8211 65.6559-14.8211Z"/>
</svg>