<svg xmlns="http://www.w3.org/2000/svg" viewBox="9.76562 -83.3235 83.94 96.19">
  <path d="M22.3921-67.7504L31.0245-67.7504L31.0245-79.1649C31.0245-81.4617 29.0295-83.3235 26.6994-83.3235C24.3538-83.3235 22.3921-81.4617 22.3921-79.1649ZM19.8859 1.59912L33.4641 1.59912C39.8804 1.59912 43.5688-2.17148 43.5688-8.68545L43.5688-61.8068C43.5688-68.3208 39.8804-72.0914 33.4641-72.0914L19.8859-72.0914C13.4874-72.0914 9.76562-68.3208 9.76562-61.8068L9.76562-8.68545C9.76562-2.17148 13.4874 1.59912 19.8859 1.59912ZM26.6994 12.8646C29.0295 12.8646 31.0245 11.0027 31.0245 8.65713L31.0245-2.95459L22.3921-2.95459L22.3921 8.65713C22.3921 11.0027 24.3538 12.8646 26.6994 12.8646ZM72.497-55.8571L81.1294-55.8571L81.1294-79.1649C81.1294-81.4617 79.1344-83.3235 76.8376-83.3235C74.492-83.3235 72.497-81.4617 72.497-79.1649ZM69.9908-9.89307L83.6022-9.89307C89.9853-9.89307 93.707-13.6459 93.707-20.1599L93.707-50.3479C93.707-56.8619 89.9853-60.5992 83.6022-60.5992L69.9908-60.5992C63.5923-60.5992 59.8705-56.8619 59.8705-50.3479L59.8705-20.1599C59.8705-13.6459 63.5923-9.89307 69.9908-9.89307ZM76.8376 12.8646C79.1344 12.8646 81.1294 11.0027 81.1294 8.65713L81.1294-14.7549L72.497-14.7549L72.497 8.65713C72.497 11.0027 74.492 12.8646 76.8376 12.8646Z"/>
</svg>