<svg xmlns="http://www.w3.org/2000/svg" viewBox="9.76562 -78.16 61.39 84.18">
  <path d="M9.76562-12.7817C9.76562-1.03906 16.7789 6.0165 28.2131 6.0165C36.6422 6.0165 42.8387 2.13945 46.8291-5.09775L50.387-11.5676C57.4344-24.2349 71.1526-27.9385 71.1526-47.0924C71.1526-65.7067 58.9658-78.16 40.7022-78.16C22.17-78.16 9.76562-65.6446 9.76562-46.9216ZM17.8636-13.0814L17.8636-46.9216C17.8636-60.8556 26.9924-70.062 40.7022-70.062C54.1435-70.062 63.0547-60.8844 63.0547-47.0924C63.0547-31.6249 50.7478-28.4376 43.0215-14.8211L39.8119-9.21895C37.2218-4.57373 33.7993-2.21465 28.5682-2.21465C21.8387-2.21465 17.8636-6.26084 17.8636-13.0814ZM25.9733-27.5211C27.9663-27.5211 29.511-29.0658 29.511-31.0588L29.511-46.9859C29.511-53.5491 33.928-57.875 40.7022-57.875C47.2987-57.875 51.5913-53.5957 51.5913-47.1102C51.5913-45.1638 53.1826-43.6058 55.129-43.6058C57.0266-43.6058 58.6179-45.1638 58.6179-47.1102C58.6179-57.7326 51.4512-64.886 40.7022-64.886C29.7911-64.886 22.4845-57.7193 22.4845-46.9859L22.4845-31.0588C22.4845-29.0658 24.0137-27.5211 25.9733-27.5211ZM25.474-38.0306L36.9049-38.0306C39.1577-38.0306 40.5604-36.7255 40.5604-34.7501C40.5604-33.6293 40.0211-32.302 39.191-31.2766L35.0337-26.1049C34.4345-25.3104 34.1104-24.4515 34.1104-23.6059C34.1104-21.7394 35.6862-20.1791 37.6148-20.1791C38.7179-20.1791 39.7255-20.7473 40.4401-21.6572L44.9548-27.366C46.6615-29.5122 47.7357-32.5373 47.7357-35.0098C47.7357-40.9778 43.3457-45.0105 36.8072-45.0105L25.474-45.0105Z"/>
</svg>