<svg xmlns="http://www.w3.org/2000/svg" viewBox="9.76562 -62.2218 56.64 49.08">
  <path d="M50.51-13.137C59.2657-13.137 66.4102-20.2814 66.4102-29.086C66.4102-37.8418 59.2657-44.9862 50.51-44.9862C41.7054-44.9862 34.5609-37.8418 34.5609-29.086C34.5609-20.2814 41.7054-13.137 50.51-13.137ZM57.9008-22.3811C55.8345-22.3811 54.1255-25.3751 54.1255-29.086C54.1255-32.7481 55.8345-35.7422 57.9008-35.7422C59.9183-35.7422 61.5939-32.7481 61.5939-29.086C61.5939-25.3751 59.9183-22.3811 57.9008-22.3811ZM33.0362-62.2218C20.2146-62.2218 9.76562-52.5362 9.76562-40.6246C9.76562-28.7618 20.2146-19.0763 33.0362-19.0763L33.3735-19.0763C31.6646-22.0548 30.688-25.4728 30.688-29.086C30.688-39.9902 39.5902-48.8592 50.51-48.8592C51.9413-48.8592 53.3238-48.7172 54.6598-48.3666C51.3438-56.4627 42.8769-62.2218 33.0362-62.2218Z"/>
</svg>