<svg xmlns="http://www.w3.org/2000/svg" viewBox="9.21748 -79.1122 123.53 87.77">
  <path d="M11.2791-37.7971C9.29961-36.6387 9.21748-33.8869 11.2791-32.6797L29.9098-21.7508C32.1023-20.4614 34.5989-21.5377 34.5989-23.9477L34.5989-46.6112C34.5989-48.9724 32.0335-50.0309 29.9098-48.7926ZM44.4865 5.44834L53.1016 5.44834L53.1016-67.9446C53.1016-69.5672 53.9184-70.4816 55.5121-70.4816L88.0741-70.4816C89.6346-70.4816 90.4847-69.6005 90.4847-67.9446L90.4847 5.44834L99.1485 5.44834L99.1485-68.6013C99.1485-75.3837 95.3867-79.1122 88.6376-79.1122L54.9486-79.1122C48.1817-79.1122 44.4865-75.3504 44.4865-68.6013ZM59.6774-43.4104L83.9088-43.4104C85.3734-43.4104 86.503-44.4779 86.503-45.8982L86.503-64.0455C86.503-65.4813 85.389-66.5 83.9088-66.5L59.6774-66.5C58.164-66.5 57.0832-65.4813 57.0832-64.0455L57.0832-45.8982C57.0832-44.4779 58.1795-43.4104 59.6774-43.4104ZM37.917 4.35898C37.917 6.71582 39.8211 8.65322 42.1446 8.65322L101.424 8.65322C103.781 8.65322 105.685 6.71582 105.685 4.35898C105.685 2.06875 103.781 0.131348 101.424 0.131348L42.1446 0.131348C39.8544 0.131348 37.917 2.03545 37.917 4.35898ZM119.41-39.6509L119.41-15.7333C119.41-10.7927 117.37-7.98721 113.715-7.98721C110.375-7.98721 108.319-10.0758 108.319-13.5471C108.319-19.3576 109.247-26.5821 109.247-33.5312C109.247-40.5891 105.8-45.9224 96.9247-48.7211L94.6854-43.6276C101.239-41.8032 103.665-38.1211 103.665-33.5312C103.665-27.3944 102.737-20.1366 102.737-13.5471C102.737-6.76445 106.981-2.43877 113.715-2.43877C120.924-2.43877 124.992-7.23945 124.992-15.7333L124.992-39.6509C124.992-42.6629 127.132-43.6505 128.894-45.1174C131.466-47.1614 132.749-49.9136 132.749-52.9697L132.749-57.5998C132.749-58.4587 132.183-59.0401 131.391-59.0401L129.06-59.0401L129.06-65.6965C129.06-66.8839 128.102-67.8271 126.881-67.8271C125.776-67.8271 124.75-66.8839 124.75-65.6965L124.75-59.0401L119.952-59.0401L119.952-65.6965C119.952-66.8839 119.026-67.8271 117.839-67.8271C116.651-67.8271 115.708-66.8839 115.708-65.6965L115.708-59.0401L113.011-59.0401C112.17-59.0401 111.604-58.4587 111.604-57.5998L111.604-52.9697C111.604-49.9136 112.92-47.1614 115.459-45.1174C117.255-43.6505 119.41-42.6629 119.41-39.6509Z"/>
</svg>