<svg xmlns="http://www.w3.org/2000/svg" viewBox="6.83594 -75.4812 80.49 80.45">
  <path d="M32.7408-24.0678C38.8954-24.0678 43.8937-29.0993 43.8937-35.2539C43.8937-41.4085 38.8954-46.44 32.7408-46.44C26.5529-46.44 21.5547-41.4085 21.5547-35.2539C21.5547-29.0993 26.5529-24.0678 32.7408-24.0678ZM61.4188-24.0678C67.5734-24.0678 72.605-29.0993 72.605-35.2539C72.605-41.4085 67.5734-46.44 61.4188-46.44C55.2643-46.44 50.266-41.4085 50.266-35.2539C50.266-29.0993 55.2643-24.0678 61.4188-24.0678ZM41.2216-48.4334C42.0627-47.5923 43.4387-47.5923 44.2798-48.4334L47.0299-51.2168L49.8133-48.4334C50.6544-47.5923 52.0148-47.5768 52.8715-48.4179C53.8103-49.3078 53.7947-50.6017 52.8715-51.5249L50.1214-54.275L52.8715-57.0251C53.7947-57.9483 53.8103-59.2422 52.8715-60.1166C52.0304-61.0065 50.7032-61.0065 49.8133-60.1166L47.0299-57.3665L44.2798-60.1166C43.3898-61.0065 42.0472-61.0065 41.2216-60.1166C40.3472-59.2422 40.3472-57.8995 41.2216-57.0251L43.9717-54.275L41.2216-51.5249C40.3472-50.6505 40.3472-49.3078 41.2216-48.4334ZM41.2216-10.3912C42.0627-9.50127 43.4231-9.53457 44.2798-10.3912L47.0299-13.1746L49.8133-10.3912C50.6699-9.53457 52.0304-9.50127 52.8715-10.3912C53.8103-11.2656 53.7614-12.5928 52.8715-13.4827L50.1214-16.2328L52.8715-18.9829C53.7614-19.8729 53.8103-21.2 52.8715-22.0744C52.0148-22.9799 50.6699-22.9311 49.8133-22.0744L47.0299-19.291L44.2798-22.0744C43.4231-22.9311 42.0782-22.9799 41.2216-22.0744C40.2983-21.2 40.3316-19.8729 41.2216-18.9829L43.9717-16.2328L41.2216-13.4827C40.3316-12.5928 40.2983-11.2656 41.2216-10.3912ZM47.0632 4.97334C69.2908 4.97334 87.3237-13.0263 87.3237-35.2539C87.3237-57.4815 69.2908-75.4812 47.0632-75.4812C24.8688-75.4812 6.83594-57.4815 6.83594-35.2539C6.83594-13.0263 24.8688 4.97334 47.0632 4.97334ZM47.0632-4.59131C30.1172-4.59131 16.4339-18.3079 16.4339-35.2539C16.4339-52.1999 30.1172-65.9165 47.0632-65.9165C64.0092-65.9165 77.7258-52.1999 77.7258-35.2539C77.7258-18.3079 64.0092-4.59131 47.0632-4.59131Z"/>
</svg>