<svg xmlns="http://www.w3.org/2000/svg" viewBox="9.45937 -76.1776 95.5 81.96">
  <path d="M34.0057-58.0938C38.9771-58.0938 42.9876-62.2375 42.9876-67.0958C42.9876-72.0983 38.9771-76.1776 34.0057-76.1776C28.9521-76.1776 25.0215-72.0983 25.0215-67.0958C25.0215-62.2375 28.9521-58.0938 34.0057-58.0938ZM16.6565-24.7183L42.171-53.027C39.7807-53.8748 37.0308-54.3298 34.0057-54.3298C22.356-54.3298 15.518-48.6925 15.518-39.351C15.518-37.1071 15.5979-34.0532 15.9396-30.9838ZM51.306-24.7183L51.9896-30.9838C52.3313-34.0532 52.4601-37.1071 52.4601-39.351C52.4601-43.8364 50.8665-47.494 47.9235-50.0286L28.1018-27.9808C30.0927-28.2427 32.048-28.3248 34.0057-28.3248C39.6918-28.3248 45.4578-27.5769 51.306-24.7183ZM24.2801 5.52334C26.7613 5.18154 28.3814 3.41494 28.0907 0.270117L26.4972-14.4447L41.4498-14.4447L39.8718 0.270117C39.5478 3.41494 41.2012 5.18154 43.6802 5.52334C46.2746 5.78301 48.2365 4.1917 48.5605 1.1623L50.6269-18.0137C45.3469-21.0521 39.5298-22.2217 34.0057-22.2217C28.3994-22.2217 22.5513-21.0521 17.3534-18.0137L19.4175 1.1623C19.7415 4.1917 21.6701 5.78301 24.2801 5.52334ZM47.9235-50.0619L55.4829-58.4669C56.9898-60.1181 56.9077-61.9668 55.3853-63.1475C54.0426-64.3637 52.2737-64.397 50.7513-62.6792L42.171-53.027C44.2927-52.2635 46.2701-51.2581 47.9235-50.0619ZM11.359-21.5757C9.5082-20.2375 9.45937-18.249 10.3138-16.9862C11.0883-15.7545 12.7372-15.2174 14.5038-16.2981C15.4448-16.9284 16.3658-17.4943 17.3534-18.0137L16.6565-24.7183C14.7435-23.8438 12.9946-22.8562 11.359-21.5757ZM56.5857-21.5757C54.9346-22.8562 53.1857-23.8438 51.306-24.7183L50.6091-18.0137C51.5967-17.4943 52.4844-16.9284 53.4099-16.2981C55.1432-15.2174 56.7588-15.7212 57.6154-16.9529C58.5031-18.1824 58.4876-20.2042 56.5857-21.5757ZM70.9629-55.0467L70.9629-46.4063C70.9629-44.0648 72.734-42.3426 75.0755-42.3426L81.636-42.3426C84.0729-42.3426 85.8618-44.0648 85.8618-46.4063L85.8618-55.0467C85.8618-57.4192 84.0729-59.1748 81.636-59.1748L75.0755-59.1748C72.734-59.1748 70.9629-57.4192 70.9629-55.0467ZM90.0232-55.0467L90.0232-46.4063C90.0232-44.0648 91.7943-42.3426 94.1691-42.3426L100.763-42.3426C103.233-42.3426 104.955-44.0648 104.955-46.4063L104.955-55.0467C104.955-57.4192 103.233-59.1748 100.763-59.1748L94.1691-59.1748C91.7943-59.1748 90.0232-57.4192 90.0232-55.0467ZM70.9629-32.0069L70.9629-23.3821C70.9629-21.0406 72.734-19.3184 75.0755-19.3184L81.6693-19.3184C84.1396-19.3184 85.8618-21.0406 85.8618-23.3821L85.8618-32.0069C85.8618-34.395 84.1396-36.1506 81.6693-36.1506L75.0755-36.1506C72.734-36.1506 70.9629-34.395 70.9629-32.0069ZM90.0232-32.0069L90.0232-23.3821C90.0232-21.0406 91.7943-19.3184 94.1691-19.3184L100.763-19.3184C103.2-19.3184 104.922-21.0406 104.922-23.3821L104.922-32.0069C104.922-34.395 103.2-36.1506 100.763-36.1506L94.1691-36.1506C91.7943-36.1506 90.0232-34.395 90.0232-32.0069ZM70.9629-9.01602L70.9629-0.424512C70.9629 1.96582 72.734 3.67256 75.0755 3.67256L81.636 3.67256C84.0729 3.67256 85.8618 1.96582 85.8618-0.424512L85.8618-9.01602C85.8618-11.4041 84.0729-13.1597 81.636-13.1597L75.0755-13.1597C72.734-13.1597 70.9629-11.4041 70.9629-9.01602ZM90.0232-9.01602L90.0232-0.424512C90.0232 1.96582 91.7943 3.67256 94.1691 3.67256L100.763 3.67256C103.233 3.67256 104.955 1.96582 104.955-0.424512L104.955-9.01602C104.955-11.4041 103.233-13.1597 100.763-13.1597L94.1691-13.1597C91.7943-13.1597 90.0232-11.4041 90.0232-9.01602ZM78.4046-46.6239C76.1297-46.6239 74.2299-48.4927 74.2299-50.8319C74.2299-53.058 76.1297-54.9268 78.4046-54.9268C80.6462-54.9268 82.5793-53.058 82.5793-50.8319C82.5793-48.4927 80.6462-46.6239 78.4046-46.6239ZM97.5138-46.6239C95.2389-46.6239 93.3058-48.4927 93.3058-50.8319C93.3058-53.058 95.2389-54.9268 97.5138-54.9268C99.7554-54.9268 101.688-53.058 101.688-50.8319C101.688-48.4927 99.7554-46.6239 97.5138-46.6239ZM78.4046-23.5997C76.163-23.5997 74.2299-25.4685 74.2299-27.8077C74.2299-30.0338 76.163-31.9025 78.4046-31.9025C80.6462-31.9025 82.5793-30.0338 82.5793-27.8077C82.5793-25.4685 80.6462-23.5997 78.4046-23.5997ZM97.5138-23.5997C95.2389-23.5997 93.3058-25.4685 93.3058-27.8077C93.3058-30.0338 95.2389-31.9025 97.5138-31.9025C99.7554-31.9025 101.688-30.0338 101.688-27.8077C101.688-25.4685 99.7554-23.5997 97.5138-23.5997ZM78.4046-0.575488C76.163-0.575488 74.2299-2.44424 74.2299-4.7835C74.2299-7.00957 76.163-8.87832 78.4046-8.87832C80.6462-8.87832 82.5793-7.00957 82.5793-4.7835C82.5793-2.44424 80.6462-0.575488 78.4046-0.575488ZM97.5138-0.575488C95.2389-0.575488 93.3058-2.44424 93.3058-4.7835C93.3058-7.00957 95.2389-8.87832 97.5138-8.87832C99.7554-8.87832 101.688-7.00957 101.688-4.7835C101.688-2.44424 99.7554-0.575488 97.5138-0.575488ZM79.7185-64.1641L95.4695-64.1641C96.7679-64.1641 96.9632-65.5112 96.0377-66.1771L89.1108-70.9555C88.0944-71.599 87.1246-71.599 86.1082-70.9555L79.1503-66.1771C78.2248-65.5112 78.4201-64.1641 79.7185-64.1641Z"/>
</svg>