<svg xmlns="http://www.w3.org/2000/svg" viewBox="-0.0443359 -75.168 89.24 81.53">
  <path d="M37.7726 2.554L55.3677 2.554C61.5398 2.554 64.6271-0.582031 64.6271-7.28906L64.6271-34.6674C64.6271-40.5065 62.2612-43.6093 57.4652-44.2974L57.4652-54.2187C57.4652-62.4336 62.7924-66.8238 68.9805-66.8238C75.1197-66.8238 80.5112-62.4336 80.5112-54.2187L80.5112-45.7824C80.5112-42.8817 82.4441-41.1153 84.8786-41.1153C87.2643-41.1153 89.1972-42.7818 89.1972-45.7824L89.1972-53.5526C89.1972-67.7798 79.6622-75.168 68.9805-75.168C58.2654-75.168 48.7793-67.7798 48.7793-53.5526L48.7793-44.4461L32.3438-44.4461C32.2728-42.9659 32.0419-41.6766 31.496-40.263L40.0076-36.7496C44.7793-34.7544 46.8456-29.9872 45.4098-25.6971C43.9539-21.1693 38.9912-18.577 33.7488-20.5944L32.9941-20.8896C32.9941-19.8287 32.9941-19.0319 33.1739-18.2617L37.4773-0.608594C37.7525 0.509961 37.8524 1.59746 37.7726 2.554ZM20.137-38.594C23.7147-38.594 26.5268-41.4394 26.5268-44.9838C26.5268-48.5282 23.7147-51.4068 20.137-51.4068C16.5926-51.4068 13.714-48.5282 13.714-44.9838C13.714-41.4394 16.5926-38.594 20.137-38.594ZM20.1037-15.6272C20.9804-15.6272 21.6307-15.1234 21.8748-14.1802L26.185 2.57217C27.1771 6.36074 32.4305 5.02686 31.8778 1.38477C31.6492 0.0664062 27.9095-14.1003 27.3568-17.3029C26.9662-19.6933 27.1615-25.7923 27.1615-28.0872C27.1615-28.8995 27.8273-29.3878 28.6885-29.0305L35.9594-26.0697C37.9791-25.2552 39.3951-26.234 39.799-27.5701C40.2518-28.8885 39.6813-30.5108 37.7815-31.2898L29.796-34.5901C28.0359-35.307 26.5223-35.6977 24.78-35.9263C23.3995-35.2294 21.8082-34.7899 20.1037-34.7899C18.3659-34.7899 16.8079-35.2294 15.3941-35.9263C13.6852-35.6977 12.1382-35.307 10.4114-34.5901L2.42588-31.2898C0.526074-30.5108-0.0443359-28.8885 0.408398-27.5701C0.812305-26.234 2.22832-25.2552 4.21475-26.0697L11.4856-29.0305C12.3468-29.3878 13.0459-28.8995 13.0459-28.0872C13.0459-25.7923 13.2412-19.6933 12.8506-17.3029C12.2979-14.1003 8.5582 0.0664062 8.32959 1.38477C7.77695 5.02686 12.9971 6.36074 13.9892 2.57217L18.3326-14.1802C18.5768-15.1234 19.2271-15.6272 20.1037-15.6272Z"/>
</svg>