<svg xmlns="http://www.w3.org/2000/svg" viewBox="8.73408 -75.4812 80.49 80.45">
  <path d="M48.9613 4.97334C71.189 4.97334 89.2219-13.0596 89.2219-35.2539C89.2219-57.4482 71.189-75.4812 48.9613-75.4812C26.767-75.4812 8.73408-57.4482 8.73408-35.2539C8.73408-13.0596 26.767 4.97334 48.9613 4.97334ZM56.3632-48.5376C53.7575-48.5376 51.5913-50.6372 51.5913-53.2429C51.5913-55.9307 53.7575-58.0147 56.3632-58.0147C58.9688-58.0147 61.1018-55.9307 61.1018-53.2429C61.1018-50.6372 58.9688-48.5376 56.3632-48.5376ZM21.2131-28.4866C21.2131-29.7384 22.2207-30.7615 23.4725-30.7615L31.6092-30.7615L33.1651-35.6425C33.5047-35.203 34.0418-34.6326 34.7276-34.1266L37.5419-32.1602L35.2335-27.5278C34.8429-26.7799 34.1127-26.2272 33.2027-26.2272L23.4725-26.2272C22.2207-26.2272 21.2131-27.2349 21.2131-28.4866ZM35.8329-48.0761C34.468-49.4588 35.085-51.8624 37.3443-51.8624L45.4811-51.8624C47.028-51.8624 48.4285-51.2432 49.5516-50.1689L59.1243-40.7116C59.6281-40.2078 59.7746-39.6885 59.7746-39.0537L59.7746-29.7649C59.7746-29.6518 59.7746-29.5874 59.7413-29.4742L66.593-22.6048L72.8697-22.6048C73.6643-22.6048 74.3434-21.9257 74.3434-21.1156L74.3434-20.0569C74.3434-19.2469 73.6643-18.5345 72.8697-18.5345L67.0392-18.5345C66.6974-18.5345 66.3911-18.5833 65.9539-19.0538L57.9169-27.0908C57.7882-27.042 57.6439-27.042 57.5152-27.042C56.2635-27.042 55.2226-28.0163 55.2226-29.2681L55.2226-29.7519L45.1104-39.8795L42.3048-38.4855L48.5417-32.2153C49.2408-31.5162 49.4184-30.4931 48.9634-29.5986L43.7298-19.0981C43.064-17.7976 41.5525-17.5867 40.6736-18.0572C39.5528-18.6432 39.0646-19.9593 39.6172-21.0801L44.0718-29.9404L35.9949-35.8644C32.2662-38.5677 33.4025-43.7014 37.3799-45.3903L38.1724-45.7033ZM47.9112-41.271L55.2226-33.993L55.2226-38.1593L51.112-42.2721C50.8501-42.5495 50.5016-42.6161 50.173-42.4519Z"/>
</svg>