<svg xmlns="http://www.w3.org/2000/svg" viewBox="6.83594 -74.9062 95.18 79.38">
  <path d="M54.4428-57.2421C61.3143-57.2421 67.6309-54.9116 72.6935-51.0187C73.5989-50.3396 74.7463-50.4039 75.5874-51.245L84.9379-60.5777C85.9565-61.5964 85.9077-63.0833 84.8092-63.9888C76.564-70.8225 65.975-74.9062 54.4428-74.9062C42.9105-74.9062 32.2883-70.8225 24.0764-63.9888C22.9778-63.0833 22.929-61.5964 23.9477-60.5777L33.2648-51.245C34.106-50.4039 35.3021-50.3396 36.2564-51.0675C41.319-54.9116 47.6201-57.2421 54.4428-57.2421ZM6.83594-27.3327C6.83594-15.5964 11.0772-4.86768 18.0817 3.42412C18.9717 4.47607 20.4275 4.44502 21.4307 3.44189L30.9477-6.0751C31.7044-6.79854 31.7377-7.82822 31.0608-8.66484C26.8927-13.9916 24.5334-20.4014 24.5334-27.3327C24.5334-34.1554 26.8306-40.4564 30.708-45.4857C31.4204-46.44 31.4204-47.6207 30.5638-48.4773L21.1978-57.8278C20.1791-58.8465 18.6922-58.831 17.7867-57.7324C10.953-49.4539 6.83594-38.8649 6.83594-27.3327ZM102.016-27.3327C102.016-38.8805 97.917-49.5005 91.0189-57.7945C90.1445-58.8465 88.6731-58.8465 87.6545-57.8278L78.3218-48.4773C77.4651-47.6207 77.4651-46.44 78.1775-45.4857C82.055-40.4564 84.3521-34.1554 84.3521-27.3327C84.3521-20.4014 81.9929-13.9916 77.7914-8.66484C77.1479-7.82822 77.1812-6.79854 77.9046-6.0751L87.4216 3.44189C88.4247 4.44502 89.8961 4.44502 90.8171 3.37754C97.8238-4.91426 102.016-15.6119 102.016-27.3327ZM45.2563-10.1914C51.7681-10.1914 55.106-13.1767 56.1602-19.5574L57.2233-25.9921L64.721-25.9921C65.8396-25.9921 66.6674-26.7223 66.6674-27.7765C66.6674-28.8307 65.8396-29.5941 64.721-29.5941L57.807-29.5941L58.595-34.3065C59.1344-37.5915 60.8346-39.1585 64.1018-39.1585C65.6575-39.1585 66.7095-39.0053 67.5573-39.1916C68.625-39.3469 69.1511-40.0127 69.1511-41.0892C69.1511-42.1944 68.3831-42.9557 67.4065-43.4239C66.3368-43.9721 64.6634-44.1962 63.3695-44.1962C57.0065-44.1962 53.3867-41.2598 52.3325-34.9301L51.4491-29.5941L44.5352-29.5941C43.3833-29.5941 42.5888-28.8307 42.5888-27.7765C42.5888-26.7223 43.3833-25.9921 44.5352-25.9921L50.8654-25.9921L49.931-20.2809C49.3916-16.9448 47.8757-15.2291 44.4575-15.2291C43.0215-15.2291 42.4756-15.3468 41.2414-15.3002C40.1073-15.1915 39.4082-14.397 39.4082-13.2984C39.4082-12.1909 40.0452-11.494 41.0573-10.9925C42.1937-10.3489 43.8183-10.1914 45.2563-10.1914Z"/>
</svg>