<svg xmlns="http://www.w3.org/2000/svg" viewBox="6.83594 -75.4812 80.49 80.45">
  <path d="M47.0632 4.97334C69.2908 4.97334 87.3237-13.0263 87.3237-35.2539C87.3237-57.4815 69.2908-75.4812 47.0632-75.4812C24.8688-75.4812 6.83594-57.4815 6.83594-35.2539C6.83594-13.0263 24.8688 4.97334 47.0632 4.97334ZM47.0632-4.59131C30.1172-4.59131 16.4339-18.3079 16.4339-35.2539C16.4339-52.1999 30.1172-65.9165 47.0632-65.9165C64.0092-65.9165 77.7258-52.1999 77.7258-35.2539C77.7258-18.3079 64.0092-4.59131 47.0632-4.59131ZM31.4071-21.6129C31.4071-18.4213 33.2626-16.6347 36.5519-16.6347L45.108-16.6347L45.108-32.3514L31.4071-32.3514ZM48.9851-16.6347L57.5412-16.6347C60.7972-16.6347 62.6859-18.4213 62.6859-21.6129L62.6859-32.3514L48.9851-32.3514ZM29.0211-37.9374C29.0211-35.789 30.2063-34.8414 32.3392-34.8414L45.108-34.8414L45.108-45.4569L42.3246-45.4569C39.6301-45.4569 38.143-47.0795 38.143-48.9705C38.143-50.8527 39.4726-52.0912 41.4324-52.0912C43.4434-52.0912 45.108-50.4644 45.108-48.0428L45.108-45.4569L48.9851-45.4569L48.9851-48.0428C48.9851-50.4644 50.6497-52.0912 52.6606-52.0912C54.6205-52.0912 55.9501-50.8527 55.9501-48.9705C55.9501-47.0795 54.463-45.4569 51.7685-45.4569L48.9851-45.4569L48.9851-34.8414L61.7539-34.8414C63.8868-34.8414 65.072-35.789 65.072-37.9374L65.072-41.8175C65.072-44.3363 63.685-45.4569 61.1949-45.4569L58.329-45.4569C59.3233-46.4979 59.876-47.8828 59.876-49.4453C59.876-53.2539 56.8331-56.0061 53.1222-56.0061C50.3302-56.0061 47.9621-54.4192 47.0299-51.5852C46.1465-54.4192 43.7629-56.0061 40.9709-56.0061C37.26-56.0061 34.1838-53.2539 34.1838-49.4453C34.1838-47.8828 34.7697-46.4979 35.7641-45.4569L32.8981-45.4569C30.4747-45.4569 29.0211-44.3363 29.0211-41.8175Z" />
</svg>