<svg xmlns="http://www.w3.org/2000/svg" viewBox="7.68604 -82.8669 98.98 94.92">
  <path d="M90.1443-35.5957C91.9663-33.8381 94.2032-33.7227 95.881-35.4337L105.034-44.5846C106.663-46.2135 106.581-48.517 104.839-50.2568L102.686-52.4075C101.363-53.8123 100.347-53.9898 98.9442-53.8611L95.4971-53.4505L93.4396-55.4414L94.4251-59.4567C95.0421-61.9335 94.0833-64.5014 91.4866-67.1136L84.0202-74.4979C75.5202-82.8669 57.2765-81.7087 49.8703-73.6698C48.1726-71.8389 48.277-69.7905 49.3489-68.388C50.2366-67.2163 51.9742-66.7325 53.6362-67.5003C58.8986-69.9795 64.5208-70.9405 69.3505-69.2313L66.5095-61.7182C65.3421-58.6843 65.8814-56.5005 67.8877-54.4454L74.3532-47.9977C76.184-46.1514 78.0681-45.5256 80.5093-46.0427L84.9242-46.9616L86.9484-44.9196L86.5733-41.4902C86.3803-39.9855 86.6377-38.9869 88.0247-37.6332ZM11.5077 4.21191L15.4804 8.21787C19.3198 12.0573 24.2022 11.7954 27.9951 7.37227L71.6473-43.3708C71.1414-43.7524 70.6511-44.1807 70.1607-44.6865L64.1947-50.7014C63.782-51.1141 63.3826-51.5756 63.0631-52.0038L12.3378-8.28506C7.86807-4.44561 7.68604 0.390234 11.5077 4.21191Z"/>
</svg>