<svg xmlns="http://www.w3.org/2000/svg" viewBox="6.83594 -76.0953 96.62 83.46">
  <path d="M26.1208-64.59C14.4266-57.4235 6.83594-44.2023 6.83594-28.0846C6.83594-26.2271 8.38721-24.6758 10.1471-24.7246C11.9402-24.7734 13.2629-26.1782 13.3117-27.9869C13.7046-41.4859 19.3178-52.1395 28.4466-58.2763ZM79.6324 2.29844C96.8479-3.95791 103.46-18.9412 96.8236-37.1268L93.3971-46.6009C90.2145-55.3209 83.7938-59.0982 76.4145-56.6591C74.3416-59.0361 71.1835-59.7553 67.9388-58.6034C66.9732-58.2261 66.1054-57.7666 65.3529-57.1762C63.0049-59.7818 59.8178-60.663 56.5197-59.4445C55.9714-59.2447 55.423-58.9783 54.9568-58.6298L51.4053-68.2967C49.4479-73.7007 44.5609-76.0953 39.3678-74.2022C34.097-72.2781 31.7845-67.2958 33.7419-61.8585L43.437-35.2413C43.5347-35.0305 43.4858-34.8685 43.3061-34.7863C43.1751-34.7375 43.093-34.7863 42.9798-34.9018L40.4046-37.5791C38.0653-39.6611 35.2533-40.2561 32.5234-39.2484C28.1315-37.6661 25.6946-33.5161 27.3769-28.84C27.8451-27.4663 28.7373-25.9083 29.7582-24.6743L42.744-9.10059C53.2063 3.51016 65.8057 7.36084 79.6324 2.29844ZM77.1115-5.3709C66.8355-1.66445 57.6358-3.73936 48.7046-14.1224L35.4991-29.3522C35.2039-29.7141 35.0063-30.0115 34.8243-30.5065C34.5113-31.4122 34.8576-32.4178 35.9764-32.8284C36.8687-33.1592 37.5436-32.8284 38.2206-32.1181L47.6064-23.0228C49.2799-21.3781 50.8955-21.2161 52.3869-21.751C54.26-22.4456 55.2363-24.4651 54.4308-26.6865L40.5525-64.8722C40.1574-65.9576 40.6524-67.0275 41.7379-67.4227C42.8411-67.8178 43.8933-67.3072 44.3039-66.2373L53.9653-39.6479C54.5956-37.9368 56.533-37.149 58.2107-37.7948C59.8552-38.3918 60.8095-40.2293 60.2125-41.907L56.8033-51.1558C57.2117-51.5198 57.7711-51.8661 58.346-52.0637C59.6335-52.5587 60.7833-51.9815 61.2783-50.6785L64.4987-41.7808C65.0957-40.0853 66.9865-39.3463 68.6487-39.9433C70.3109-40.5402 71.2497-42.3312 70.6194-43.9934L68.3333-50.3302C68.7417-50.6765 69.3011-51.0405 69.8427-51.2381C71.1302-51.6998 72.28-51.1382 72.775-49.8196L74.8746-43.9603C75.5204-42.267 77.4578-41.4792 79.1511-42.0917C80.7955-42.6887 81.7498-44.5262 81.1373-46.2527L79.9985-49.3383C82.4446-50.2239 84.6889-48.3037 86.2538-43.9862L89.4228-35.2361C94.5853-21.0825 90.0643-10.1228 77.1115-5.3709Z"/>
</svg>