<svg xmlns="http://www.w3.org/2000/svg" viewBox="6.83594 -68.5649 85.08 67.38">
  <path d="M6.83594-30.0826C6.83594-11.7547 18.5234-1.18369 37.8257-1.18369L46.1308-1.18369C53.4282-1.18369 58.273-4.74141 58.273-9.01582C58.273-10.1276 57.614-10.7867 56.5354-10.7867L53.2019-10.7867C51.6614-10.7867 50.8757-11.5437 50.8757-12.4293C50.8757-13.3971 51.6459-14.154 53.2019-14.154L55.348-14.154C59.7779-14.154 62.7918-17.0081 62.7918-20.9475C62.7918-22.8072 61.9219-23.7415 60.2907-23.7415L55.6898-23.7415C54.1006-23.7415 53.3304-24.4496 53.3304-25.3686C53.3304-26.3519 54.0851-27.1088 55.6898-27.1088L59.9489-27.1088C64.7895-27.1088 67.3438-29.9363 67.3438-33.8534C67.3438-35.6644 66.4739-36.6475 64.8583-36.6475L55.6898-36.6475C54.1161-36.6475 53.3304-37.3711 53.3304-38.2745C53.3304-39.2423 54.1006-39.9659 55.6898-39.9659L86.4272-39.9659C89.6697-39.9659 91.9201-42.1542 91.9201-45.0038C91.9201-48.0332 89.6853-50.1216 86.4272-50.1216L41.5824-50.1216C40.6146-50.1216 40.073-50.6987 40.073-51.3225C40.073-51.8818 40.4349-52.3413 41.3583-52.7209L55.0504-58.4761C57.272-59.4171 58.6034-60.9218 58.6034-63.2919C58.6034-66.3989 56.515-68.5649 53.7077-68.5649C52.6846-68.5649 51.8279-68.3852 51.1155-68.11L30.9789-61.1833C13.7804-55.233 6.83594-44.0536 6.83594-30.0826Z"/>
</svg>