<svg xmlns="http://www.w3.org/2000/svg" viewBox="9.76562 -71.6082 91.21 72.81">
  <path d="M27.7397-14.3255L52.9714-14.3255C54.7982-14.3255 55.4553-15.0646 55.4553-16.8915L55.4553-53.5187C55.4553-55.3788 54.7982-56.0847 52.9714-56.0847L27.7397-56.0847C25.9462-56.0847 25.2892-55.3788 25.2892-53.5187L25.2892-16.8915C25.2892-15.0646 25.9462-14.3255 27.7397-14.3255ZM60.7646-35.2539C60.7646-34.4438 61.0398-33.7337 61.8188-32.9214L70.9434-23.1043C71.496-22.5184 72.2084-22.161 73.0052-22.161C74.6408-22.161 75.9191-23.4416 75.9191-25.1105C75.9191-25.8718 75.5796-26.6996 74.9626-27.2522L70.5726-31.3317L66.1821-35.2539L70.5726-39.1761L74.9626-43.2556C75.5796-43.7927 75.9191-44.6027 75.9191-45.364C75.9191-47.0662 74.6408-48.3623 73.0052-48.3623C72.2084-48.3623 71.5115-48.005 70.9434-47.4035L61.8188-37.5864C61.0398-36.7741 60.7646-36.064 60.7646-35.2539ZM85.601-35.2384C85.6343-37.0493 84.205-38.4786 82.4739-38.4786L73.6287-38.4786L66.2283-38.1235C64.657-38.0126 63.3121-36.8585 63.3121-35.2384C63.3121-33.6338 64.657-32.4797 66.2283-32.3687L73.6287-32.0137L82.4739-32.0137C84.205-32.0137 85.5677-33.443 85.601-35.2384ZM23.1019 1.19805L87.6422 1.19805C96.38 1.19805 100.978-3.40039 100.978-12.0383L100.978-58.3719C100.978-67.0098 96.38-71.6082 87.6422-71.6082L23.1019-71.6082C14.3974-71.6082 9.76562-67.0098 9.76562-58.3719L9.76562-12.0383C9.76562-3.40039 14.3974 1.19805 23.1019 1.19805ZM23.8827-8.1335C20.7708-8.1335 19.0639-9.71172 19.0639-12.9856L19.0639-57.4245C19.0639-60.7317 20.7708-62.2767 23.8827-62.2767L86.8613-62.2767C89.9732-62.2767 91.6802-60.7317 91.6802-57.4245L91.6802-12.9856C91.6802-9.71172 89.9732-8.1335 86.8613-8.1335Z" />
</svg>