<svg xmlns="http://www.w3.org/2000/svg" viewBox="9.76562 -71.6082 91.21 72.81">
  <path d="M27.7397-14.3255L83.0043-14.3255C84.598-14.3255 85.4549-15.2645 85.4549-16.8915L85.4549-53.5187C85.4549-55.1457 84.598-56.0847 83.0043-56.0847L27.7397-56.0847C26.1793-56.0847 25.2892-55.1457 25.2892-53.5187L25.2892-16.8915C25.2892-15.2645 26.1793-14.3255 27.7397-14.3255ZM23.1019 1.19805L87.6422 1.19805C96.38 1.19805 100.978-3.40039 100.978-12.0383L100.978-58.3719C100.978-67.0098 96.38-71.6082 87.6422-71.6082L23.1019-71.6082C14.3974-71.6082 9.76562-67.0098 9.76562-58.3719L9.76562-12.0383C9.76562-3.40039 14.3974 1.19805 23.1019 1.19805ZM23.8827-8.1335C20.7708-8.1335 19.0639-9.71172 19.0639-12.9856L19.0639-57.4245C19.0639-60.7317 20.7708-62.2767 23.8827-62.2767L86.8613-62.2767C89.9732-62.2767 91.6802-60.7317 91.6802-57.4245L91.6802-12.9856C91.6802-9.71172 89.9732-8.1335 86.8613-8.1335Z" />
</svg>