<svg xmlns="http://www.w3.org/2000/svg" viewBox="-1.2207 -81.3826 100.31 92.22">
  <path d="M52.9802-81.3826C33.3447-81.3826 16.5746-69.0779 9.94746-51.8306C12.7482-52.3742 15.5956-51.6773 17.684-49.9618C23.5011-63.8137 37.082-73.4796 52.9802-73.4796C74.1205-73.4796 91.2214-56.3942 91.2214-35.2539C91.2214-14.1136 74.1205 2.93848 52.9802 2.93848C37.1153 2.93848 23.5344-6.69414 17.7173-20.4972C15.5956-18.7816 12.7815-18.0515 9.93193-18.6439C16.6412-1.39658 33.3936 10.8415 52.9802 10.8415C78.426 10.8415 99.0911-9.82363 99.0911-35.2539C99.0911-60.6997 78.3927-81.3826 52.9802-81.3826ZM10.2515-44.9505L0.341797-37.4822C-1.2207-36.3437-1.17188-34.1797 0.341797-33.0411L10.2848-25.4907C12.6085-23.7529 15.5537-24.7428 15.5537-27.8322L15.5537-42.6733C15.5537-45.6496 12.593-46.7394 10.2515-44.9505ZM52.9802-4.05293C70.1587-4.05293 84.1967-18.0421 84.1967-35.2539C84.1967-52.499 70.1587-66.4882 52.9802-66.4882C35.7351-66.4882 21.7792-52.499 21.7792-35.2539C21.7792-18.0421 35.7351-4.05293 52.9802-4.05293ZM47.518-20.299C45.1832-20.299 43.9492-21.8282 43.9492-24.2296L43.9492-46.7066C43.9492-48.9527 45.3385-50.6417 47.5335-50.6417C49.7285-50.6417 51.2354-48.986 51.2354-46.7066L51.2354-26.2914L60.6488-26.2914C62.3223-26.2914 63.7205-24.9931 63.7205-23.2863C63.7205-21.5308 62.3223-20.299 60.6488-20.299Z"/>
</svg>