<svg xmlns="http://www.w3.org/2000/svg" viewBox="6.83594 -75.4812 80.49 80.45">
  <path d="M47.0632 4.97334C69.2908 4.97334 87.3237-13.0596 87.3237-35.2539C87.3237-57.4482 69.2908-75.4812 47.0632-75.4812C24.8688-75.4812 6.83594-57.4482 6.83594-35.2539C6.83594-13.0596 24.8688 4.97334 47.0632 4.97334ZM35.2844-20.1703C33.1427-20.1703 31.9753-21.4997 31.9753-23.6414L31.9753-47.3857C31.9753-49.2345 33.5178-50.6948 35.3487-50.6948C37.1486-50.6948 38.6578-49.2345 38.6578-47.3857L38.6578-25.6722L45.2479-25.6722C46.7238-25.6722 47.9733-24.4227 47.9733-22.9135C47.9733-21.4198 46.7238-20.1703 45.2479-20.1703ZM58.2673-19.7975C56.3853-19.7975 54.9094-21.2578 54.9094-23.1554L54.9094-44.0101L52.1703-41.8437C51.6688-41.4397 51.2315-41.2444 50.5479-41.2444C49.3095-41.2444 48.3241-42.1101 48.3241-43.597C48.3241-44.7511 48.879-45.63 49.7512-46.2758L53.3158-49.0059C54.4477-49.8625 55.8481-50.7614 57.6836-50.7614C60.116-50.7614 61.6074-49.4143 61.6074-47.0151L61.6074-23.1554C61.6074-21.2578 60.0827-19.7975 58.2673-19.7975Z"/>
</svg>