<svg xmlns="http://www.w3.org/2000/svg" viewBox="9.76562 -71.6237 72.77 72.81">
  <path d="M23.1019 1.18252L69.2023 1.18252C77.9401 1.18252 82.5386-3.41592 82.5386-12.0538L82.5386-58.3874C82.5386-67.0253 77.9401-71.6237 69.2023-71.6237L23.1019-71.6237C14.3974-71.6237 9.76562-67.0253 9.76562-58.3874L9.76562-12.0538C9.76562-3.41592 14.3974 1.18252 23.1019 1.18252ZM31.8395-17.4227C30.1352-17.4227 29.0544-18.4413 29.0544-20.0502C29.0544-21.628 30.1352-22.6289 31.8395-22.6289L37.2136-22.6289L37.2136-22.7887C31.7822-25.7273 29.3562-31.5937 29.3562-37.2003C29.3562-44.8773 34.6604-50.4838 41.736-52.2506L41.736-56.0481C41.736-56.7851 42.2909-57.3399 43.0456-57.3399C43.8158-57.3399 44.3707-56.7851 44.3707-56.0481L44.3707-52.7434C45.1387-52.8255 45.8911-52.8588 46.6591-52.8588C47.4914-52.8588 48.357-52.8255 49.1561-52.7278L49.1561-56.0481C49.1561-56.7851 49.7442-57.3399 50.4479-57.3399C51.2181-57.3399 51.7907-56.7851 51.7907-56.0481L51.7907-52.1374C58.5178-50.1775 63.5736-44.5979 63.5736-38.5185C63.5736-36.6965 62.3176-35.5136 60.5289-35.5136C58.7535-35.5136 57.7659-36.8029 57.5463-38.4408C57.2445-41.9546 54.996-44.8003 51.7907-46.2453L51.7907-37.236C51.7907-36.4325 51.2181-35.9265 50.4479-35.9265C49.7442-35.9265 49.1561-36.4325 49.1561-37.236L49.1561-47.1287C48.3881-47.2752 47.538-47.3729 46.7057-47.3729C45.9222-47.3729 45.1387-47.2752 44.3707-47.1775L44.3707-37.236C44.3707-36.4325 43.8158-35.9265 43.0456-35.9265C42.2909-35.9265 41.736-36.4325 41.736-37.236L41.736-46.3607C37.9583-44.7604 35.5966-41.1182 35.5966-36.1063C35.5966-28.8815 41.4118-22.8175 49.7598-22.8175L58.7086-22.8175C60.4439-22.8175 61.5735-21.7678 61.5735-20.1123C61.5735-18.4724 60.4439-17.4227 58.7086-17.4227Z"/>
</svg>