<svg xmlns="http://www.w3.org/2000/svg" viewBox="9.79893 -69.4536 55.47 68.37">
  <path d="M15.5885-1.0875L59.8986-1.0875C63.032-1.0875 65.2667-3.07578 65.2667-6.14707C65.2667-9.26943 62.9987-11.2422 59.8986-11.2422L27.7255-11.2422L27.7255-11.5617C33.5607-14.236 35.7006-20.9014 35.7006-26.7967C35.7006-35.6752 32.2313-38.9665 32.2313-47.2217C32.2313-55.4652 39.1163-59.4142 47.5063-59.4142C49.5571-59.4142 51.3926-59.2188 52.9972-58.9902C54.5419-58.7771 57.0856-58.1978 58.5527-58.1978C61.2602-58.1978 63.011-59.6669 63.011-62.3876C63.011-65.2015 61.0226-66.7017 58.8167-67.6204C54.7063-69.2938 49.9792-69.4536 45.7779-69.4536C31.3804-69.4536 19.8021-62.0691 19.8021-48.0021C19.8021-39.7762 23.7063-33.7617 23.7063-26.2508C23.7063-19.9138 20.4878-14.396 14.5347-11.8837C12.262-10.8119 10.3802-9.09434 10.3802-6.20039C10.3802-3.32666 12.4173-1.0875 15.5885-1.0875ZM9.79893-28.7706C9.79893-27.148 11.0108-25.9517 12.6334-25.9517L53.6832-25.9517C55.3058-25.9517 56.5177-27.148 56.5177-28.7706C56.5177-30.3599 55.3058-31.5562 53.6832-31.5562L12.6334-31.5562C11.0108-31.5562 9.79893-30.3599 9.79893-28.7706ZM9.79893-41.8502C9.79893-40.2609 11.0108-39.0646 12.6334-39.0646L53.6832-39.0646C55.3058-39.0646 56.5177-40.2609 56.5177-41.8502C56.5177-43.4728 55.3058-44.6691 53.6832-44.6691L12.6334-44.6691C11.0108-44.6691 9.79893-43.4728 9.79893-41.8502Z"/>
</svg>