<svg xmlns="http://www.w3.org/2000/svg" viewBox="6.83594 -75.4323 80.49 80.45">
  <path d="M47.0632 5.02217C69.2908 5.02217 87.3237-13.0107 87.3237-35.2051C87.3237-57.3994 69.2908-75.4323 47.0632-75.4323C24.8688-75.4323 6.83594-57.3994 6.83594-35.2051C6.83594-13.0107 24.8688 5.02217 47.0632 5.02217ZM50.7694-13.9979C42.9835-13.9979 36.7934-17.3538 33.5862-22.6961L29.7021-25.3551L28.0662-23.8169L29.207-20.6674C29.8062-19.014 27.0676-18.0264 26.6148-20.2146C26.4994-20.8895 25.7402-20.9383 25.445-20.299C24.504-18.5813 22.0583-20.461 23.2567-21.8215C23.6852-22.2654 23.3366-22.8937 22.5997-22.796C20.8819-22.6495 20.589-25.437 22.5021-25.3882L25.4873-25.3394L27.5759-28.6509C28.275-29.7384 29.6377-30.129 30.8073-29.4942L31.3579-29.2101C31.1937-30.0779 31.1271-30.9791 31.1271-31.8958C31.1271-38.3989 34.7315-43.8411 39.9984-46.722L38.6022-47.5921C37.4814-48.2579 37.2373-49.6384 37.7744-50.7104L39.5189-54.266L38.0186-56.7785C37.031-58.4652 39.541-59.5815 40.2712-58.0103C40.5664-57.3555 41.3256-57.2889 41.4898-57.8971C42.0402-59.5971 44.8277-58.4319 43.8557-56.7785C43.5271-56.1881 43.94-55.6087 44.5482-55.8396C46.6078-56.5209 47.1094-53.7156 45.4249-53.4249L42.0956-52.7724L41.6384-50.5639L45.6047-48.6706C46.5324-48.8171 47.5268-48.8659 48.4723-48.8659C49.6486-48.8659 50.2879-49.4874 50.4344-50.7459C50.7429-52.6324 52.3054-53.7865 56.3426-53.7865C61.798-53.7865 65.4424-52.3372 65.4424-49.9979C65.4424-46.418 58.7174-41.868 55.5924-41.868C53.3884-41.868 53.3285-42.8846 51.4132-42.8846C50.523-42.8846 49.542-42.7203 48.612-42.3452L48.2857-38.2124L50.4299-37.5311L52.6316-40.0436C53.7812-41.3885 55.9207-39.5575 54.3316-38.0816C53.8233-37.5733 54.1053-36.9939 54.8267-36.9939C56.7375-37.0428 56.3158-34.0444 54.598-34.4018C53.9921-34.5172 53.628-33.8557 54.0387-33.2497C55.0596-31.8227 52.8069-30.2514 51.8504-31.9381L50.3988-34.5327L46.4681-34.8367C45.2496-34.9477 44.1776-35.811 44.1776-37.1427L44.1443-38.8253C42.4419-36.4926 41.4431-33.4695 41.4431-30.462C41.4431-29.512 41.5918-28.6108 41.8049-27.6764L43.3941-29.9692C44.0933-30.9924 45.5381-31.1877 46.5945-30.5041L50.0348-28.3512L52.6782-29.6252C54.3472-30.4686 55.3192-27.8586 53.6658-27.3082C52.9289-27.0618 52.8135-26.2871 53.455-26.0407C55.0418-25.3749 53.6969-22.6695 52.1256-23.8036C51.5352-24.2298 50.9069-23.8347 51.0712-23.2087C51.5417-21.1336 48.7697-20.8606 48.5278-22.6095L48.2992-25.8899L46.1063-26.6091L44.1619-23.3907C46.2971-20.9759 49.5753-19.4089 53.2286-19.4089C59.5697-19.4089 65.2117-24.5115 66.1084-31.716C66.4324-34.053 69.4663-33.9887 69.4663-31.4719C69.4663-25.3483 63.3095-13.9979 50.7694-13.9979Z"/>
</svg>