<svg xmlns="http://www.w3.org/2000/svg" viewBox="9.76562 -71.6082 91.21 72.81">
  <path d="M9.76562-51.0806L19.0639-51.0806L19.0639-57.4245C19.0639-60.6984 20.7708-62.2767 23.8827-62.2767L30.1601-62.2767L30.1601-71.6082L23.1019-71.6082C14.3974-71.6082 9.76562-67.0098 9.76562-58.3719ZM9.76562-25.5549L19.0639-25.5549L19.0639-44.8553L9.76562-44.8553ZM23.1019 1.19805L30.1601 1.19805L30.1601-8.1335L23.8827-8.1335C20.7708-8.1335 19.0639-9.67842 19.0639-12.9856L19.0639-19.3296L9.76562-19.3296L9.76562-12.0383C9.76562-3.40039 14.3974 1.19805 23.1019 1.19805ZM36.3854 1.19805L52.2594 1.19805L52.2594-8.1335L36.3854-8.1335ZM58.4847 1.19805L74.392 1.19805L74.392-8.1335L58.4847-8.1335ZM87.6422 1.19805C96.3467 1.19805 100.978-3.40039 100.978-12.0383L100.978-19.3296L91.6802-19.3296L91.6802-12.9856C91.6802-9.67842 89.9732-8.1335 86.8613-8.1335L80.6173-8.1335L80.6173 1.19805ZM100.978-51.0806L100.978-58.3719C100.978-67.0098 96.3467-71.6082 87.6422-71.6082L80.6173-71.6082L80.6173-62.2767L86.8613-62.2767C89.9732-62.2767 91.6802-60.6984 91.6802-57.4245L91.6802-51.0806ZM100.978-25.5549L100.978-44.8553L91.6802-44.8553L91.6802-25.5549ZM36.3854-62.2767L52.2594-62.2767L52.2594-71.6082L36.3854-71.6082ZM58.4847-62.2767L74.392-62.2767L74.392-71.6082L58.4847-71.6082ZM41.7722-20.6341C41.7722-17.7422 43.1038-16.3772 45.8004-16.3772L64.9592-16.3772C67.6735-16.3772 68.9719-17.7422 68.9719-20.6341L68.9719-35.1785C68.9719-37.6399 67.9931-38.9894 66.0154-39.2778L66.0154-43.2797C66.0154-50.4286 61.703-55.2315 55.3887-55.2315C49.041-55.2315 44.7774-50.4286 44.7774-43.2797L44.7774-39.2934C42.7843-38.9894 41.7722-37.6399 41.7722-35.1785ZM49.9639-39.4043L49.9639-43.6748C49.9639-47.6035 52.1125-50.1583 55.3887-50.1583C58.6804-50.1583 60.829-47.619 60.829-43.6748L60.829-39.4043Z"/>
</svg>