<svg xmlns="http://www.w3.org/2000/svg" viewBox="7.49971 -73.6988 111.7 77.25">
  <path d="M25.889 1.31328L40.4356-1.49219C49.2488-3.19668 53.3502-8.23682 53.3502-17.5716L53.3502-59.4704C53.3502-67.9861 47.3024-73.6988 38.4427-73.6988C30.7327-73.6988 24.7291-68.7649 22.5874-60.8174L10.4625-14.9012C7.49971-3.77793 14.162 3.54814 25.889 1.31328ZM44.2538-59.1909L44.2538-17.5716C44.2538-12.8459 42.9798-11.2812 38.7779-10.4599L24.4952-7.70098C20.5689-6.93525 18.4579-9.35664 19.4612-13.1235L31.4885-58.7157C32.4585-62.2673 35.1199-64.5691 38.365-64.5691C41.9254-64.5691 44.2538-62.4538 44.2538-59.1909ZM32.6824-16.9256L53.3502-21.2891L53.3502-30.5963L49.406-29.7284L37.9489-40.1268C36.1625-41.7356 33.1666-41.6247 31.4911-39.805C29.8334-37.9209 30.0442-34.9738 31.895-33.3316L38.4898-27.4271L30.7806-25.7956C28.4327-25.2963 26.8216-22.8485 27.2721-20.4496C27.7226-17.9863 30.268-16.4107 32.6824-16.9256ZM63.351-23.4197L73.3185-21.2891L73.3185-30.5963L67.8581-31.7438L67.8581-67.3851C67.8581-69.8483 65.8298-71.9255 63.351-71.9255C60.8389-71.9255 58.8105-69.8483 58.8105-67.3851L58.8105-31.7438L53.3502-30.5963L53.3502-21.2891ZM100.78 1.31328C112.507 3.54814 119.202-3.77793 116.206-14.9012L104.081-60.8174C101.973-68.7649 95.9692-73.6988 88.226-73.6988C79.3995-73.6988 73.3185-67.9861 73.3185-59.4704L73.3185-17.5716C73.3185-8.23682 77.4198-3.19668 86.233-1.49219ZM82.4148-59.1909C82.4148-62.4538 84.7433-64.5691 88.3036-64.5691C91.5487-64.5691 94.2102-62.2673 95.2135-58.7157L107.241-13.1235C108.211-9.35664 106.133-6.93525 102.173-7.70098L87.8907-10.4599C83.6889-11.2812 82.4148-12.8459 82.4148-17.5716ZM93.9862-16.9256C96.4007-16.4107 98.9461-17.9863 99.3966-20.4496C99.8804-22.8485 98.2692-25.2963 95.8881-25.7956L88.1788-27.4271L94.7736-33.3316C96.6244-34.9738 96.8353-37.9209 95.1775-39.805C93.5021-41.6247 90.5062-41.7356 88.7197-40.1268L77.2627-29.7284L73.3185-30.5963L73.3185-21.2891Z"/>
</svg>