<svg xmlns="http://www.w3.org/2000/svg" viewBox="9.76562 -69.1668 91.21 67.92">
  <path d="M31.6417-26.7314L45.5387-26.7314C47.454-26.7314 48.9787-28.2229 48.9787-30.1382C48.9787-32.0535 47.454-33.5449 45.5387-33.5449L31.6417-33.5449C29.7264-33.5449 28.2017-32.0535 28.2017-30.1382C28.2017-28.2229 29.7264-26.7314 31.6417-26.7314ZM71.9708-18.6589C73.8861-18.6589 75.3953-20.1836 75.3953-22.0989L75.3953-26.7314L80.0278-26.7314C81.9099-26.7314 83.4346-28.2229 83.4346-30.1382C83.4346-32.0535 81.9099-33.5449 80.0278-33.5449L75.3953-33.5449L75.3953-38.193C75.3953-40.1083 73.8706-41.633 71.9553-41.633C70.0732-41.633 68.5485-40.1083 68.5485-38.193L68.5485-33.5449L63.9005-33.5449C62.0185-33.5449 60.4937-32.0535 60.4937-30.1382C60.4937-28.2229 62.0185-26.7314 63.9005-26.7314L68.5485-26.7314L68.5485-22.0989C68.5485-20.1836 70.0732-18.6589 71.9708-18.6589ZM23.1019-1.24336L87.6422-1.24336C96.38-1.24336 100.978-5.8418 100.978-14.4797L100.978-45.699C100.978-54.3369 96.38-58.9354 87.6422-58.9354L84.2463-58.9354L84.2463-63.288C84.2463-66.9697 82.1313-69.1668 78.4984-69.1668L72.1945-69.1668C68.5616-69.1668 66.4134-66.9697 66.4134-63.288L66.4134-58.9354L44.3307-58.9354L44.3307-63.288C44.3307-66.9697 42.2157-69.1668 38.5828-69.1668L32.2789-69.1668C28.646-69.1668 26.4978-66.9697 26.4978-63.288L26.4978-58.9354L23.1019-58.9354C14.3974-58.9354 9.76562-54.3369 9.76562-45.699L9.76562-14.4797C9.76562-5.8418 14.3974-1.24336 23.1019-1.24336ZM19.0639-15.4271L19.0639-44.7517C19.0639-48.0256 20.7708-49.6038 23.8827-49.6038L86.8613-49.6038C89.9732-49.6038 91.6802-48.0256 91.6802-44.7517L91.6802-15.4271C91.6802-12.1531 89.9732-10.5749 86.8613-10.5749L23.8827-10.5749C20.7708-10.5749 19.0639-12.1531 19.0639-15.4271Z"/>
</svg>