<svg xmlns="http://www.w3.org/2000/svg" viewBox="9.76562 -77.0992 67.21 83.72">
  <path d="M9.76562-6.71377C9.76562 2.02402 14.3308 6.62246 22.9687 6.62246L63.7422 6.62246C72.3801 6.62246 76.9785 2.02402 76.9785-6.71377L76.9785-63.763C76.9785-72.4675 72.3801-77.0992 63.7422-77.0992L22.9687-77.0992C14.3308-77.0992 9.76562-72.4675 9.76562-63.763ZM29.0385-30.7133C26.2487-30.7133 24.2891-32.4198 24.2891-35.1407C24.2891-37.8949 26.1821-39.6348 29.0385-39.6348L57.7057-39.6348C60.562-39.6348 62.4551-37.8949 62.4551-35.1407C62.4551-32.4198 60.4954-30.7133 57.7057-30.7133Z" />
</svg>