<svg xmlns="http://www.w3.org/2000/svg" viewBox="9.76562 -66.7095 110.57 62.88">
  <path d="M9.76562-32.959C9.76562-16.1513 20.0036-6.80117 37.1752-6.80117L96.0015-6.80117C101.938-6.80117 106.604-6.32393 110.947-5.25195C116.322-3.83164 120.337-5.74922 120.337-11.457L120.337-29.2194C120.337-32.941 117.665-35.6462 113.928-35.6462L105.281-35.6462C102.673-35.6462 101.268-36.8203 101.561-39.6235L102.637-49.7646C103.704-60.2268 97.537-66.7095 85.7898-66.7095C74.0778-66.6762 51.2953-66.1235 37.8988-64.6276C20.2833-62.5613 9.76562-50.7809 9.76562-32.959ZM18.8465-32.959C18.8465-45.6079 26.2729-54.1107 38.8286-55.4979C51.9056-56.945 74.1577-57.5953 85.7898-57.5953C92.0445-57.5953 94.1133-55.653 93.5739-50.7943L90.5333-23.4064C89.8963-17.6733 87.6811-15.8688 81.3154-15.8688L37.0753-15.8688C25.7069-15.8688 18.8465-21.8746 18.8465-32.959Z"/>
</svg>