<svg xmlns="http://www.w3.org/2000/svg" viewBox="9.76562 -75.9398 134.77 81.33">
  <path d="M82.8403-21.9399C95.9016-21.9399 103.911-28.9955 103.911-38.9847C103.911-48.566 97.9454-55.3797 86.7172-55.5106C78.6274-55.5928 71.0325-52.4633 59.6316-43.5592L28.6613-19.3893L33.3352-13.2107L62.743-36.16L56.1185-34.213C62.5926-26.758 71.8168-21.9399 82.8403-21.9399ZM31.6 5.3877C43.6291 5.3877 53.3367-4.36875 53.3367-16.3979C53.3367-28.427 43.6291-38.2322 31.6-38.2322C19.5065-38.2322 9.76562-28.427 9.76562-16.3979C9.76562-4.33545 19.5065 5.3877 31.6 5.3877ZM31.5512-2.43975C23.7742-2.43975 17.5442-8.6875 17.5442-16.4622C17.5442-24.1903 23.7897-30.4048 31.5512-30.4048C39.2793-30.4048 45.5581-24.2059 45.5581-16.4622C45.5581-8.70303 39.2793-2.43975 31.5512-2.43975ZM37.127-46.4443L55.6279-46.4443C57.8095-46.4443 59.5871-48.222 59.5871-50.4035C59.5871-52.5851 57.7762-54.396 55.6279-54.396L37.127-54.396C34.9787-54.396 33.1678-52.5851 33.1678-50.4035C33.1678-48.222 34.9454-46.4443 37.127-46.4443ZM122.796 5.3877C134.825 5.3877 144.533-4.36875 144.533-16.3979C144.533-28.427 134.825-38.2322 122.796-38.2322C110.703-38.2322 100.962-28.427 100.962-16.3979C100.962-4.33545 110.703 5.3877 122.796 5.3877ZM122.747-2.43975C114.971-2.43975 108.741-8.6875 108.741-16.4622C108.741-24.1903 114.986-30.4048 122.747-30.4048C130.476-30.4048 136.754-24.2059 136.754-16.4622C136.754-8.70303 130.476-2.43975 122.747-2.43975ZM122.73-10.3724C126.065-10.3724 128.737-13.0777 128.737-16.4467C128.737-19.8312 126.114-22.4877 122.73-22.4877C119.312-22.4877 116.822-19.88 116.773-16.4622C116.724-13.0777 119.263-10.3724 122.73-10.3724ZM119.154-15.0357L126.667-17.3883L107.232-72.7529C106.467-74.97 104.625-75.9398 101.919-75.9398L90.1144-75.9398C87.8995-75.9398 86.1552-74.1622 86.1552-71.9807C86.1552-69.7658 87.8995-67.9882 90.1144-67.9882L100.164-67.9882C100.503-67.9882 100.681-67.9083 100.812-67.5843ZM125.643-46.3869C127.261-46.2249 128.022-47.5365 127.698-49.09L125.205-61.2142C124.881-62.801 123.667-63.5622 122.194-62.7521C121.013-62.0886 119.928-61.101 119.151-59.9358C116.448-55.9699 117.646-50.3528 121.628-47.8117C122.744-47.035 124.169-46.5001 125.643-46.3869ZM31.5001-10.3724C34.869-10.3724 37.5411-13.0777 37.5411-16.4467C37.5411-19.8312 34.9179-22.4877 31.5001-22.4877C28.1156-22.4877 25.6256-19.88 25.5768-16.4622C25.5279-13.0777 28.0668-10.3724 31.5001-10.3724ZM63.6239-7.01426L74.7077-7.01426C76.7761-7.01426 77.8413-7.62676 79.1108-9.11816L95.0221-27.8206L84.0943-27.1486L74.0642-15.5186C73.7224-15.1302 73.4271-14.9659 72.7125-14.9659L63.6239-14.9659C61.4424-14.9659 59.6647-13.1883 59.6647-11.0067C59.6647-8.79189 61.4424-7.01426 63.6239-7.01426Z"/>
</svg>