<svg xmlns="http://www.w3.org/2000/svg" viewBox="9.76562 -74.4402 90.5 78.37">
  <path d="M9.76562-7.08008C9.76562-0.639453 14.7614 3.93242 21.7059 3.93242C27.6051 3.93242 36.8532-0.610645 36.8532-12.4512L36.8532-51.3184C36.8532-53.2823 35.2266-54.909 33.2293-54.909C31.232-54.909 29.5898-53.2823 29.5898-51.3184L29.5898-23.1445C29.5898-21.7904 29.1236-20.9779 28.0292-20.7293L21.9257-19.4287C13.7849-17.7087 9.76562-13.4386 9.76562-7.08008ZM44.8553-26.6113C44.8553-20.1707 49.8511-15.5988 56.7955-15.5988C62.6947-15.5988 71.9429-20.1419 71.9429-31.9824L71.9429-70.8496C71.9429-72.8136 70.2829-74.4402 68.3189-74.4402C66.3217-74.4402 64.6795-72.8136 64.6795-70.8496L64.6795-42.6758C64.6795-41.3217 64.2133-40.5092 63.1188-40.2605L57.0153-38.96C48.8745-37.2399 44.8553-32.9698 44.8553-26.6113ZM73.1756-7.08008C73.1756-0.639453 78.1714 3.93242 85.1158 3.93242C91.015 3.93242 100.263-0.610645 100.263-12.4512L100.263-51.3184C100.263-53.2823 98.6365-54.909 96.6393-54.909C94.642-54.909 92.9998-53.2823 92.9998-51.3184L92.9998-23.1445C92.9998-21.7904 92.5336-20.9779 91.4392-20.7293L85.3356-19.4287C77.1948-17.7087 73.1756-13.4386 73.1756-7.08008Z"/>
</svg>