<svg xmlns="http://www.w3.org/2000/svg" viewBox="6.83594 -78.6664 86.79 86.82">
  <path d="M50.2484 8.15859C74.0831 8.15859 93.6276-11.3859 93.6276-35.2539C93.6276-59.1219 74.0831-78.6664 50.2484-78.6664C26.3805-78.6664 6.83594-59.1219 6.83594-35.2539C6.83594-11.3859 26.3805 8.15859 50.2484 8.15859ZM50.2484-6.88906C34.5679-6.88906 21.8836-19.5733 21.8836-35.2539C21.8836-50.9345 34.5679-63.6187 50.2484-63.6187C65.8957-63.6187 78.58-50.9345 78.58-35.2539C78.58-19.5733 65.8957-6.88906 50.2484-6.88906ZM40.6113-17.8797C42.4488-17.8797 43.5496-19.0604 43.5496-20.9134L43.5496-42.6392L43.7294-42.6392L53.6915-20.8956C54.5016-19.0426 55.8575-17.8797 57.9857-17.8797C60.5779-17.8797 62.0181-19.602 62.0181-21.7367L62.0181-49.772C62.0181-51.6428 60.9506-52.7568 59.1131-52.7568C57.2601-52.7568 56.1926-51.6583 56.1926-49.772L56.1926-27.9308L55.9795-27.9308L46.0174-49.7231C45.2562-51.5807 43.8824-52.7568 41.7231-52.7568C39.4129-52.7568 37.6908-51.2832 37.6908-48.9153L37.6908-20.9134C37.6908-19.0604 38.7916-17.8797 40.6113-17.8797ZM34.355-35.3648C34.355-34.6435 34.8943-34.0708 35.6157-34.0708L64.2662-34.0708C64.9876-34.0708 65.5603-34.6435 65.5603-35.3648C65.5603-36.0529 64.9876-36.6256 64.2662-36.6256L35.6157-36.6256C34.8943-36.6256 34.355-36.0529 34.355-35.3648Z" />
</svg>