<svg xmlns="http://www.w3.org/2000/svg" viewBox="6.83594 -75.4812 80.49 80.45">
  <path d="M47.0632 4.97334C69.2908 4.97334 87.3237-13.0263 87.3237-35.2539C87.3237-57.4815 69.2908-75.4812 47.0632-75.4812C24.8688-75.4812 6.83594-57.4815 6.83594-35.2539C6.83594-13.0263 24.8688 4.97334 47.0632 4.97334ZM47.0632-4.59131C30.1172-4.59131 16.4339-18.3079 16.4339-35.2539C16.4339-52.1999 30.1172-65.9165 47.0632-65.9165C64.0092-65.9165 77.7258-52.1999 77.7258-35.2539C77.7258-18.3079 64.0092-4.59131 47.0632-4.59131ZM72.0462-9.86328L71.8687-10.7397C69.055-16.4061 59.8281-21.8086 47.0632-21.8086C34.2982-21.8086 25.1047-16.4061 22.291-10.7397L22.1135-9.86328C29.6549-3.41777 40.2716-0.165918 47.0632-0.165918C53.8881-0.165918 64.5048-3.41777 72.0462-9.86328ZM47.0632-27.8813C54.5139-27.8146 60.3244-34.1911 60.3244-42.3965C60.3244-50.1291 54.4828-56.6187 47.0632-56.6187C39.6769-56.6187 33.7864-50.1291 33.8353-42.3965C33.8686-34.1911 39.6125-27.9479 47.0632-27.8813Z"/>
</svg>