<svg xmlns="http://www.w3.org/2000/svg" viewBox="9.76562 -71.6237 72.77 72.81">
  <path d="M23.1019 1.18252L69.2023 1.18252C77.9401 1.18252 82.5386-3.41592 82.5386-12.0538L82.5386-58.3874C82.5386-67.0253 77.9401-71.6237 69.2023-71.6237L23.1019-71.6237C14.3974-71.6237 9.76562-67.0253 9.76562-58.3874L9.76562-12.0538C9.76562-3.41592 14.3974 1.18252 23.1019 1.18252ZM38.4116-16.9965C36.2856-16.9965 35.0318-18.3169 35.0318-20.4251L35.0318-39.762L32.648-39.762C31.8956-39.762 31.2896-40.3347 31.2896-41.0871C31.2896-41.7752 31.8956-42.3812 32.648-42.3812L35.0318-42.3812L35.0318-49.6167C35.0318-51.8514 36.3189-53.1718 38.5536-53.1718L48.5233-53.1718C55.2281-53.1718 59.8535-48.8485 60.4617-42.3812L62.4547-42.3812C63.2404-42.3812 63.8131-41.7752 63.8131-41.0871C63.8131-40.368 63.2404-39.762 62.4547-39.762L60.495-39.762C59.989-33.086 55.2526-28.4631 48.2238-28.4631L41.7759-28.4631L41.7759-20.4251C41.7759-18.3169 40.4888-16.9965 38.4116-16.9965ZM41.7759-33.5651L46.657-33.5651C50.75-33.5651 53.2094-35.8423 53.6022-39.762L41.7759-39.762ZM41.7759-42.3812L53.5689-42.3812C53.0429-46.039 50.5169-47.9588 46.7547-47.9588L41.7759-47.9588Z"/>
</svg>