<svg xmlns="http://www.w3.org/2000/svg" viewBox="9.76562 -77.5781 103.02 84.75">
  <path d="M23.1019-11.8746L51.3692-11.8746L51.3692-21.1729L23.8827-21.1729C20.7708-21.1729 19.0639-22.7511 19.0639-26.0583L19.0639-63.3944C19.0639-66.7017 20.7708-68.2799 23.8827-68.2799L78.5485-68.2799C81.6604-68.2799 83.3674-66.7017 83.3674-63.3944L83.3674-41.4678L92.6656-41.4678L92.6656-64.3751C92.6656-73.013 88.0339-77.5781 79.3294-77.5781L23.1019-77.5781C14.3641-77.5781 9.76562-73.013 9.76562-64.3751L9.76562-25.0776C9.76562-16.4397 14.3641-11.8746 23.1019-11.8746ZM60.3781 7.16797L99.4484 7.16797C108.153 7.16797 112.785 2.60283 112.785-6.03506L112.785-31.9487C112.785-40.5533 108.153-45.1518 99.4484-45.1518L60.3781-45.1518C51.6736-45.1518 47.0419-40.5866 47.0419-31.9487L47.0419-6.03506C47.0419 2.60283 51.6736 7.16797 60.3781 7.16797ZM42.2133-58.807C42.0335-60.4159 40.1472-61.7986 38.4582-60.1097L34.554-56.2721L29.3157-61.5104C28.1816-62.6777 26.3484-62.6622 25.2144-61.5104C24.047-60.3763 24.047-58.5431 25.2144-57.409L30.4526-52.1707L26.615-48.251C24.9261-46.5465 26.2933-44.6757 27.9177-44.4959L41.1129-42.7978C41.9518-42.7001 42.713-42.9753 43.2479-43.4613C43.7494-43.9962 44.0246-44.7574 43.927-45.5963ZM60.6159-19.2508L58.9355-32.4282C58.8534-33.3004 59.0798-34.0616 59.5813-34.5965C60.1162-35.0492 60.8774-35.3244 61.7496-35.2268L74.9115-33.5619C76.5359-33.3999 77.952-31.4625 76.2475-29.7735L72.3766-25.8871L77.6481-20.6488C78.7822-19.497 78.7822-17.6815 77.6481-16.5142C76.4808-15.3956 74.6809-15.3956 73.5135-16.5142L68.2752-21.7857L64.371-17.9148C62.7153-16.2259 60.7624-17.6086 60.6159-19.2508Z"/>
</svg>