<svg xmlns="http://www.w3.org/2000/svg" viewBox="-0.719141 -70.811 72.29 70.1">
  <path d="M58.2812-23.9264L66.3091-28.5828C69.9667-30.729 71.5733-32.4666 71.5733-35.2539C71.5733-38.0412 69.9667-39.7788 66.3091-41.925L20.5489-68.5182C19.0465-69.357 17.4797-69.7942 16.0261-69.7942C14.9986-69.7942 14.0533-69.6034 13.2012-69.1396L29.8852-52.4068C29.9828-52.3913 30.1293-52.327 30.2603-52.2448L58.3692-35.9618C58.7088-35.7843 58.853-35.5113 58.853-35.2539C58.853-34.9965 58.7088-34.7235 58.3692-34.546L51.6304-30.5772ZM36.3165-21.7418L20.3532-12.4661C19.7252-12.1288 19.0794-12.5149 19.0794-13.2073L19.0794-38.9611L9.76562-48.2105L9.76562-7.80635C9.76562-3.08594 12.5885-0.713574 16.0261-0.713574C17.4797-0.713574 19.0465-1.15078 20.5489-1.98965L43.0317-15.0754ZM60.7647-4.61084C62.0831-3.29248 64.2781-3.27695 65.5632-4.61084C66.8482-5.94473 66.8971-8.07539 65.5632-9.40928L5.41318-69.4771C4.0793-70.811 1.8998-70.811 0.565918-69.4771C-0.719141-68.1921-0.719141-65.9638 0.565918-64.6787Z"/>
</svg>