<svg xmlns="http://www.w3.org/2000/svg" viewBox="9.76562 -65.416 97.27 60.04">
  <path d="M9.76562-40.008L9.76562-30.784C9.76562-25.3577 12.6308-22.4903 18.0903-22.4903L33.6697-22.4903C38.2285-22.4903 40.5635-20.3505 43.5087-16.4708C48.9617-9.31533 57.1979-5.37598 65.9135-5.37598L75.761-5.37598C80.1647-5.37598 82.6417-7.8041 82.6417-12.1923L82.6417-16.4397L100.928-16.4397C104.339-16.4397 107.033-19.1674 107.033-22.4965C107.033-25.8434 104.339-28.571 100.928-28.571L82.6417-28.571L82.6417-42.1411L100.928-42.1411C104.339-42.1411 107.033-44.9021 107.033-48.1823C107.033-51.5447 104.339-54.2724 100.928-54.2724L82.6417-54.2724L82.6417-58.633C82.6417-63.0545 80.1647-65.416 75.761-65.416L65.9135-65.416C57.1979-65.416 48.9617-61.5433 43.5087-54.3545C40.5635-50.4415 38.2285-48.3017 33.6697-48.3017L18.0903-48.3017C12.6308-48.3017 9.76562-45.5675 9.76562-40.008Z"/>
</svg>