<svg xmlns="http://www.w3.org/2000/svg" viewBox="9.76562 -74.8787 80.42 79.12">
  <path d="M23.1019-23.5733L76.8529-23.5733C85.5907-23.5733 90.1892-28.1385 90.1892-36.7764L90.1892-61.6757C90.1892-70.3136 85.5907-74.8787 76.8529-74.8787L23.1019-74.8787C14.3974-74.8787 9.76562-70.3136 9.76562-61.6757L9.76562-36.7764C9.76562-28.1385 14.3974-23.5733 23.1019-23.5733ZM17.2139 4.2377L25.845 4.2377C30.488 4.2377 33.2933 1.38359 33.2933-3.37256L33.2933-11.6464C33.2933-16.4025 30.488-19.2566 25.845-19.2566L17.2139-19.2566C12.5709-19.2566 9.76562-16.4025 9.76562-11.6464L9.76562-3.37256C9.76562 1.38359 12.5709 4.2377 17.2139 4.2377ZM45.6374 4.2377L54.3019 4.2377C58.9448 4.2377 61.7168 1.38359 61.7168-3.37256L61.7168-11.6464C61.7168-16.4025 58.9448-19.2566 54.3019-19.2566L45.6374-19.2566C40.9944-19.2566 38.2225-16.4025 38.2225-11.6464L38.2225-3.37256C38.2225 1.38359 40.9944 4.2377 45.6374 4.2377ZM74.1098 4.2377L82.7742 4.2377C87.3839 4.2377 90.1892 1.38359 90.1892-3.37256L90.1892-11.6464C90.1892-16.4025 87.3839-19.2566 82.7742-19.2566L74.1098-19.2566C69.5001-19.2566 66.6615-16.4025 66.6615-11.6464L66.6615-3.37256C66.6615 1.38359 69.5001 4.2377 74.1098 4.2377Z"/>
</svg>