<svg xmlns="http://www.w3.org/2000/svg" viewBox="9.76562 -95.9455 84.6 121.35">
  <path d="M75.6938-78.2395L75.6938-92.248C75.6938-95.2043 73.348-95.9455 71.1397-94.2565L61.7807-87.1724C60.267-86.0671 60.2337-84.5025 61.7807-83.3307L71.1397-76.2953C73.3325-74.6396 75.6938-75.4297 75.6938-78.2395ZM70.2517-87.9622C68.7026-87.9622 67.4776-86.7039 67.4776-85.1882C67.4776-83.6725 68.7026-82.4475 70.2517-82.4475L77.1849-82.4475C83.8455-82.4475 88.4309-77.5358 88.4309-70.469L88.4309-65.8702C88.4309-64.2413 89.8201-62.8854 91.449-62.8854C93.0291-62.8854 94.3695-64.2413 94.3695-65.8702L94.3695-70.5023C94.3695-80.8758 87.2255-87.9622 77.1405-87.9622ZM28.4413 7.69834L28.4413 21.7069C28.4413 24.6632 30.7871 25.4044 32.9954 23.7154L42.3878 16.6313C43.8682 15.526 43.9015 13.9614 42.3878 12.7896L32.9954 5.7542C30.8026 4.09854 28.4413 4.88857 28.4413 7.69834ZM33.8835 17.4211C35.4325 17.4211 36.6575 16.1628 36.6575 14.6471C36.6575 13.1313 35.4325 11.9063 33.8835 11.9063L26.9503 11.9063C20.2896 11.9063 15.7043 6.99473 15.7043-0.0720703L15.7043-4.6709C15.7043-6.2998 14.315-7.65576 12.6861-7.65576C11.1061-7.65576 9.76562-6.2998 9.76562-4.6709L9.76562-0.0387695C9.76562 10.3347 16.9097 17.4211 26.9946 17.4211ZM68.1496-68.2407L35.9855-68.2407C34.5542-68.2407 33.3004-67.9988 32.1908-67.5483L39.9735-59.8145C41.0588-59.8478 42.1618-59.8811 43.2804-59.8811L67.0956-59.8811C68.7623-59.8811 69.6923-58.9866 69.6923-57.4819L69.6923-33.3537C69.6923-32.2685 69.6923-31.1987 69.6923-30.0802L78.0364-21.7693L78.0364-58.6536C78.0364-64.4235 74.0527-68.2407 68.1496-68.2407ZM35.9855-2.26709L68.1496-2.26709C69.7319-2.26709 71.2188-2.57559 72.4794-3.11045L64.8632-10.7267C63.8112-10.6934 62.7082-10.6601 61.5896-10.6601L37.0396-10.6601C35.4395-10.6601 34.5095-11.5545 34.5095-13.0259L34.5095-37.7735C34.5095-38.8921 34.5095-39.9618 34.5095-41.0471L26.1653-49.44L26.1653-11.8542C26.1653-6.08428 30.0824-2.26709 35.9855-2.26709ZM84.6556 1.76396C85.9895 3.09785 88.1689 3.0668 89.454 1.74844C90.7546 0.414551 90.7879-1.71611 89.454-3.05L19.3819-73.1376C18.048-74.4715 15.8686-74.4715 14.5347-73.1376C13.2496-71.8525 13.2496-69.6242 14.5347-68.3392Z"/>
</svg>