<svg xmlns="http://www.w3.org/2000/svg" viewBox="9.76562 -81.4535 99.41 91.57">
  <path d="M22.5692-16.4381L35.6494-16.4381L34.4645-18.0803C32.9688-20.3484 32.2631-22.8162 32.2631-25.1353C32.2631-31.305 37.3743-35.8258 43.1867-35.8258C44.1324-35.8258 45.0448-35.626 45.9572-35.2264L46.0904-35.0599L38.4771-55.9176C36.1624-62.196 39.1473-69.2953 46.4239-70.6273C51.8349-71.8928 57.0619-68.9743 59.0972-63.439L63.1258-52.4008C64.1489-52.8114 65.4229-53.1089 67.2631-53.1089C69.4759-53.1089 71.5755-52.5385 73.3977-51.3621C75.2354-52.554 77.7233-53.2065 79.9361-53.2065C81.7849-53.2065 83.6181-52.7693 85.256-51.9415L86.7621-51.9415L86.7621-68.7831C86.7621-77.1458 82.3723-81.4535 73.9585-81.4535L22.5692-81.4535C14.1222-81.4535 9.76562-77.1303 9.76562-68.7831L9.76562-29.1085C9.76562-20.728 14.1222-16.4381 22.5692-16.4381ZM87.5288 5.65039C103.675-0.22002 109.179-13.8629 103.034-30.9037L100.399-38.239C98.0732-44.6798 93.3792-47.758 89.6196-46.3798C88.6521-46.0247 88.2992-45.2702 88.621-44.3359L89.6619-41.4062C90.1702-40.0456 89.7573-39.0778 89.0026-38.7826C88.0992-38.4541 87.1958-38.8958 86.6875-40.3053L86.0039-42.2096C84.5746-46.1068 81.119-47.8246 77.6635-46.5751C76.0123-45.9759 75.4309-44.9284 75.9813-43.457L77.4616-39.4221C78.0032-38.0126 77.5726-37.127 76.8023-36.8473C75.8679-36.5187 75.011-36.9294 74.4872-38.3211L73.1378-42.0964C71.6108-46.3888 68.2795-47.6937 64.8129-46.4464C63.2438-45.8805 62.6469-44.7664 63.164-43.3927L66.0914-35.2584C66.5997-33.88 66.1713-32.9788 65.4321-32.6991C64.5287-32.3706 63.6408-32.7968 63.1325-34.2062L53.2603-61.2995C52.2216-64.1714 49.5783-65.4342 47.0838-64.5265C44.425-63.5366 43.2909-60.9289 44.3451-58.057L58.7764-18.5143C59.1049-17.5953 58.7253-16.9383 58.1992-16.774C57.6887-16.6098 57.1471-16.7407 56.47-17.4666L47.0415-27.7097C45.499-29.3809 43.7214-30.051 41.673-29.2765C38.9521-28.2556 37.7404-25.7455 38.6126-23.291C38.9211-22.4144 39.3916-21.702 39.8288-21.1516L52.3685-5.69551C63.1595 7.54365 75.22 10.1158 87.5288 5.65039Z"/>
</svg>