<svg xmlns="http://www.w3.org/2000/svg" viewBox="6.83594 -75.4812 80.49 80.45">
  <path d="M47.0632 4.97334C69.2908 4.97334 87.3237-13.0596 87.3237-35.2539C87.3237-57.4482 69.2908-75.4812 47.0632-75.4812C24.8688-75.4812 6.83594-57.4482 6.83594-35.2539C6.83594-13.0596 24.8688 4.97334 47.0632 4.97334ZM48.8279-54.6922C48.8279-56.2968 49.8488-57.3021 51.4379-57.3021C52.0704-57.3021 52.8184-57.0758 53.3044-56.572L62.2001-49.0768C63.514-47.9737 63.545-46.2893 62.2001-45.2195L53.3044-37.7243C52.8184-37.3026 52.0704-37.0918 51.4379-37.0918C49.8488-37.0918 48.8279-38.0794 48.8279-39.7018L48.8279-44.1143L33.8729-44.1143C30.4281-44.1143 28.1575-41.9746 28.1575-38.7074L28.1575-36.4591C28.1575-34.7391 26.7615-33.3275 24.9594-33.3275C23.2238-33.3275 21.7968-34.7391 21.7968-36.4591L21.7968-39.0159C21.7968-45.9185 26.7928-50.3929 34.3944-50.3929L48.8279-50.3929ZM44.9724-15.7002C44.9724-14.0956 43.9848-13.0902 42.3624-13.0902C41.7299-13.0902 41.0152-13.3166 40.4959-13.7871L31.6002-21.3156C30.2863-22.4187 30.2708-24.1031 31.6002-25.1729L40.4959-32.6681C41.0152-33.0897 41.7299-33.3006 42.3624-33.3006C43.9848-33.3006 44.9724-32.313 44.9724-30.6906L44.9724-26.2781L59.9274-26.2781C63.3722-26.2781 65.6428-28.4178 65.6428-31.685L65.6428-33.9333C65.6428-35.6533 67.0721-37.0648 68.8409-37.0648C70.5765-37.0648 72.0035-35.6533 72.0035-33.9333L72.0035-31.3765C72.0035-24.4739 67.0075-19.9995 59.4059-19.9995L44.9724-19.9995Z"/>
</svg>