<svg xmlns="http://www.w3.org/2000/svg" viewBox="6.83594 -75.4812 80.49 80.45">
  <path d="M47.0632 4.97334C69.2908 4.97334 87.3237-13.0263 87.3237-35.2539C87.3237-57.4815 69.2908-75.4812 47.0632-75.4812C24.8688-75.4812 6.83594-57.4815 6.83594-35.2539C6.83594-13.0263 24.8688 4.97334 47.0632 4.97334ZM47.0632-4.59131C30.1172-4.59131 16.4339-18.3079 16.4339-35.2539C16.4339-52.1999 30.1172-65.9165 47.0632-65.9165C64.0092-65.9165 77.7258-52.1999 77.7258-35.2539C77.7258-18.3079 64.0092-4.59131 47.0632-4.59131ZM30.2637-19.6397C32.3721-19.6397 33.575-20.9869 33.575-23.1286L33.575-31.108L36.0789-31.108L39.2441-22.445C39.8944-20.6318 40.9309-19.6397 42.7353-19.6397C44.3354-19.6397 45.8823-20.685 45.8513-22.9C45.8357-23.4814 45.6049-24.2206 45.2608-25.1218L42.331-32.504C45.1121-34.1819 46.142-37.5067 46.142-40.5741C46.142-46.9729 42.4088-50.1822 36.3852-50.1822L30.2304-50.1822C28.0731-50.1822 26.9035-48.8839 26.9035-46.7267L26.9035-23.1286C26.9035-21.0047 28.0731-19.6397 30.2637-19.6397ZM33.575-35.8043L33.575-45.0665L35.7837-45.0665C38.2253-45.0665 39.3751-42.8692 39.3751-40.4609C39.3751-37.9217 38.3074-35.8043 35.7682-35.8043ZM58.689-19.6886C60.5066-19.6886 62.0003-21.1822 62.0003-23.0487L62.0003-44.8424L65.6783-44.8424C67.1564-44.8424 68.3571-46.0431 68.3571-47.57C68.3571-49.0481 67.1564-50.2488 65.6783-50.2488L51.6175-50.2488C50.0905-50.2488 48.9054-49.0481 48.9054-47.57C48.9054-46.0431 50.0905-44.8424 51.6175-44.8424L55.3288-44.8424L55.3288-23.0487C55.3288-21.1822 56.8225-19.6886 58.689-19.6886Z" />
</svg>