<svg xmlns="http://www.w3.org/2000/svg" viewBox="9.76562 -71.1271 95.99 71.71">
  <path d="M16.1344 0.506055C20.142 0.506055 22.3744-2.03037 22.3744-6.00469L22.3744-27.4622L31.6977-27.4622C31.9596-27.4622 32.2881-27.4622 32.55-27.4622L42.9869-4.45098C44.4448-1.25117 46.087 0.506055 49.4799 0.506055C52.9373 0.506055 55.7643-1.89287 55.7021-5.40771C55.6556-6.97432 54.9477-8.62529 54.3086-9.98779L44.826-29.8589C52.2393-33.2146 56.2368-40.8961 56.2368-49.348C56.2368-63.0392 47.4682-71.1271 32.8469-71.1271L16.1166-71.1271C12.0624-71.1271 9.76562-68.686 9.76562-64.6318L9.76562-6.00469C9.76562-1.85732 12.2532 0.506055 16.1344 0.506055ZM22.3744-37.0048L22.3744-61.021L31.573-61.021C38.9557-61.021 43.4705-56.3889 43.4705-49.0396C43.4705-41.5282 39.3197-37.0048 31.7418-37.0048ZM85.1247 0.585938C96.3568 0.585938 105.754-5.16455 105.754-16.2702C105.754-25.4121 100.059-28.8854 91.3762-31.0429L83.6307-32.9161C79.9639-33.8861 76.7055-35.6286 76.7055-39.3798C76.7055-43.7304 80.4523-46.1787 84.7764-46.1787C89.3333-46.1787 92.1212-44.1655 94.5624-40.0969C95.825-38.459 97.4404-37.7288 99.2115-37.7288C102.023-37.7288 103.721-39.3888 103.721-41.9297C103.721-43.0812 103.113-44.4079 102.27-45.4396C99.6005-51.85 92.254-55.0688 84.9939-55.0688C74.1081-55.0688 64.9266-49.6866 64.9266-38.7563C64.9266-30.2759 70.5661-25.7373 79.051-23.6643L86.8476-21.7422C90.8008-20.7389 93.7239-19.2095 93.7239-15.1075C93.7239-10.6726 90.2745-8.25303 85.2892-8.25303C80.104-8.25303 76.6525-9.9998 74.0802-14.4237C72.5181-16.5231 70.7649-17.3843 68.8653-17.3843C66.0204-17.3843 64.0875-15.5247 64.0875-12.7041C64.0875-11.6656 64.4358-10.5473 65.0526-9.53984C68.4036-2.29307 76.7796 0.585938 85.1247 0.585938Z"/>
</svg>