<svg xmlns="http://www.w3.org/2000/svg" viewBox="0.904883 -74.7271 79.21 79.17">
  <path d="M9.76562-53.715L9.76562-28.2051C9.76562-14.2157 17.6002-8.35 39.4905 3.17363C40.5159 3.72852 41.5368 3.93486 42.247 3.93486C42.9238 3.93486 43.9447 3.69521 45.0034 3.17363C50.5543 0.403711 55.193-2.08877 58.9993-4.43252ZM71.6987-15.9357C73.8161-19.4536 74.695-23.3799 74.695-28.2051L74.695-56.366C74.695-61.266 72.8396-63.1544 68.7431-64.8897C65.1629-66.4102 50.3363-71.5152 46.9292-72.6317C45.469-73.0822 43.7094-73.3707 42.247-73.3707C40.7513-73.3707 38.9916-73.0489 37.5314-72.6317C35.041-71.8771 26.6622-68.996 20.8137-66.8363ZM73.9875 3.10518C75.3214 4.42354 77.5009 4.43906 78.7859 3.10518C80.071 1.77129 80.1198-0.359375 78.7859-1.69326L7.03721-73.3932C5.70332-74.7271 3.52383-74.7271 2.18994-73.3932C0.904883-72.1081 0.904883-69.8798 2.18994-68.5947Z"/>
</svg>