<svg xmlns="http://www.w3.org/2000/svg" viewBox="9.76562 -79.0497 67.54 88.61">
  <path d="M55.9381-79.0497L44.7613-79.0497C37.2665-79.0497 32.5481-74.4135 32.5481-67.0807L32.5481-59.4994L40.5685-59.4994L40.5685-67.0807C40.5685-69.6465 42.0335-71.0294 44.7613-71.0294L55.9381-71.0294C64.2611-71.0294 69.3194-65.5805 69.3194-56.5916L69.3194 4.4918C69.3194 6.7998 70.9972 8.54189 73.3207 8.54189C75.6442 8.54189 77.3064 6.78428 77.3064 4.4918L77.3064-56.5916C77.3064-70.2986 69.0259-79.0497 55.9381-79.0497ZM9.76562-29.2548C9.76562-27.3041 11.3457-25.724 13.2964-25.724L59.8047-25.724C61.7554-25.724 63.3354-27.3041 63.3354-29.2548C63.3354-31.0191 62.0526-32.4905 60.4147-32.6924L60.2683-32.7079C59.6314-41.2506 54.4467-48.4927 47.0736-52.148L47.0736-54.6385C47.0736-60.704 42.7126-65.1294 36.5339-65.1294C30.3552-65.1294 26.0274-60.704 26.0274-54.6385L26.0274-52.148C18.6544-48.4927 13.4363-41.2506 12.8328-32.7079L12.6863-32.6924C11.0484-32.4905 9.76562-31.0191 9.76562-29.2548ZM23.1662-14.403C24.9949-14.403 26.4508-15.8922 26.4508-17.6876C26.4508-19.5163 24.9949-20.9722 23.1662-20.9722C21.3708-20.9722 19.9149-19.5163 19.9149-17.6876C19.9149-15.8922 21.3708-14.403 23.1662-14.403ZM23.1662-2.44033C24.9949-2.44033 26.4508-3.89619 26.4508-5.7249C26.4508-7.52031 24.9949-9.00947 23.1662-9.00947C21.3708-9.00947 19.9149-7.52031 19.9149-5.7249C19.9149-3.89619 21.3708-2.44033 23.1662-2.44033ZM23.1662 9.55566C24.9949 9.55566 26.4508 8.0665 26.4508 6.27109C26.4508 4.44238 24.9949 2.98652 23.1662 2.98652C21.3708 2.98652 19.9149 4.44238 19.9149 6.27109C19.9149 8.0665 21.3708 9.55566 23.1662 9.55566ZM36.5006-14.403C38.3293-14.403 39.7852-15.8922 39.7852-17.6876C39.7852-19.5163 38.3293-20.9722 36.5006-20.9722C34.7052-20.9722 33.216-19.5163 33.216-17.6876C33.216-15.8922 34.7052-14.403 36.5006-14.403ZM36.5006-2.44033C38.3293-2.44033 39.7852-3.89619 39.7852-5.7249C39.7852-7.52031 38.3293-9.00947 36.5006-9.00947C34.7052-9.00947 33.216-7.52031 33.216-5.7249C33.216-3.89619 34.7052-2.44033 36.5006-2.44033ZM36.5006 9.55566C38.3293 9.55566 39.7852 8.0665 39.7852 6.27109C39.7852 4.44238 38.3293 2.98652 36.5006 2.98652C34.7052 2.98652 33.216 4.44238 33.216 6.27109C33.216 8.0665 34.7052 9.55566 36.5006 9.55566ZM49.835-14.403C51.6637-14.403 53.1195-15.8922 53.1195-17.6876C53.1195-19.5163 51.6637-20.9722 49.835-20.9722C48.0396-20.9722 46.5504-19.5163 46.5504-17.6876C46.5504-15.8922 48.0396-14.403 49.835-14.403ZM49.835-2.44033C51.6637-2.44033 53.1195-3.89619 53.1195-5.7249C53.1195-7.52031 51.6637-9.00947 49.835-9.00947C48.0396-9.00947 46.5504-7.52031 46.5504-5.7249C46.5504-3.89619 48.0396-2.44033 49.835-2.44033ZM49.835 9.55566C51.6637 9.55566 53.1195 8.0665 53.1195 6.27109C53.1195 4.44238 51.6637 2.98652 49.835 2.98652C48.0396 2.98652 46.5504 4.44238 46.5504 6.27109C46.5504 8.0665 48.0396 9.55566 49.835 9.55566Z"/>
</svg>