<svg xmlns="http://www.w3.org/2000/svg" viewBox="6.83594 -75.4812 80.49 80.45">
  <path d="M47.0632 4.97334C69.2908 4.97334 87.3237-13.0263 87.3237-35.2539C87.3237-57.4815 69.2908-75.4812 47.0632-75.4812C24.8688-75.4812 6.83594-57.4815 6.83594-35.2539C6.83594-13.0263 24.8688 4.97334 47.0632 4.97334ZM47.0632-4.59131C30.1172-4.59131 16.4339-18.3079 16.4339-35.2539C16.4339-52.1999 30.1172-65.9165 47.0632-65.9165C64.0092-65.9165 77.7258-52.1999 77.7258-35.2539C77.7258-18.3079 64.0092-4.59131 47.0632-4.59131ZM26.6792-43.7639L67.2807-43.7639L61.894-53.2743C60.9375-55.0121 59.1664-56.0197 57.2022-56.0197L36.7243-56.0197C34.7602-56.0197 33.0224-55.0121 32.0325-53.2743ZM32.6475-35.25C34.5718-35.25 36.2675-36.0646 37.4416-37.4185C38.5491-36.0646 40.2937-35.25 42.218-35.25C44.1268-35.25 45.8225-36.0646 46.9633-37.4185C48.1529-36.0646 49.7998-35.25 51.7241-35.25C53.6817-35.25 55.3774-36.0646 56.5183-37.4029C57.6591-36.0646 59.3881-35.25 61.2791-35.25C64.7837-35.25 67.6047-38.0688 67.6047-40.7098L67.6047-41.025L26.3219-41.025L26.3219-40.4101C26.3219-37.769 29.1429-35.25 32.6475-35.25ZM33.2931-14.4881L60.7001-14.4881C63.5942-14.4881 65.3343-16.1948 65.3343-18.978L65.3343-33.4611C64.1424-32.8552 62.7685-32.4445 61.3124-32.4445C59.4857-32.4445 57.8877-32.9994 56.5183-33.9472C55.1821-32.9994 53.5353-32.4445 51.7241-32.4445C49.9796-32.4445 48.3327-32.9994 46.9966-33.9472C45.6604-32.9994 43.9803-32.4445 42.2513-32.4445C40.4246-32.4445 38.7933-32.9994 37.4416-33.9472C36.0722-32.9994 34.4741-32.4445 32.6475-32.4445C31.1914-32.4445 29.8508-32.7886 28.6589-33.3612L28.6589-18.978C28.6589-16.1615 30.3656-14.4881 33.2931-14.4881ZM39.9872-18.6896L39.9872-27.3685C39.9872-28.2008 40.5754-28.789 41.5054-28.789L52.5211-28.789C53.3867-28.789 53.9749-28.2008 53.9749-27.3685L53.9749-18.6896Z" />
</svg>