<svg xmlns="http://www.w3.org/2000/svg" viewBox="9.76562 -67.895 140.74 94.92">
  <path d="M50.9915 17.6656L108.906 17.6656C110.566 17.6656 111.953 16.2786 111.953 14.5698C111.953 12.9099 110.566 11.4896 108.906 11.4896L50.9915 11.4896C49.2827 11.4896 47.8957 12.9099 47.8957 14.5698C47.8957 16.2786 49.2827 17.6656 50.9915 17.6656ZM56.6556 22.8481L56.6556 6.33584C56.6556 3.2376 53.7349 2.1168 51.2669 3.9833L40.2031 12.3282C38.6762 13.4801 38.6606 15.6551 40.2031 16.8402L51.2669 25.1696C53.6194 26.954 56.6556 25.9997 56.6556 22.8481ZM103.242 22.8481C103.242 25.9331 106.211 27.0206 108.63 25.1696L119.694 16.8402C121.237 15.6551 121.188 13.4468 119.694 12.3282L108.63 3.9833C106.196 2.1168 103.242 3.2376 103.242 6.33584ZM42.1424-3.49658C48.2855-3.49658 53.2591-8.42129 53.2591-14.6133C53.2591-20.7387 48.2522-25.6967 42.1424-25.6967C35.9837-25.6967 31.0102-20.7387 31.0102-14.6133C31.0102-8.45459 35.9837-3.49658 42.1424-3.49658ZM119.812-3.49658C125.922-3.49658 130.929-8.45459 130.929-14.6133C130.929-20.7387 125.922-25.6967 119.812-25.6967C113.687-25.6967 108.68-20.7054 108.68-14.6133C108.68-8.45459 113.654-3.49658 119.812-3.49658ZM145.417-55.6616L143.66-58.2162C138.883-65.1674 133.155-67.895 123.585-67.895L92.6374-67.895C76.4843-67.895 69.8216-66.2859 60.1138-60.1714L44.8216-50.6121L30.7812-48.8854C16.8721-47.1786 9.76562-40.607 9.76562-29.1616L9.76562-22.6009C9.76562-15.2527 14.1532-10.9849 21.1375-10.9849L26.3006-10.9849C26.0276-12.13 25.8834-13.355 25.8834-14.6133C25.8834-23.5617 33.1606-30.8234 42.1424-30.8234C51.0753-30.8234 58.3525-23.5617 58.3525-14.6133C58.3525-13.355 58.2083-12.13 57.9354-10.9849L103.971-10.9849C103.698-12.13 103.553-13.355 103.553-14.6133C103.553-23.5284 110.864-30.8234 119.812-30.8234C128.745-30.8234 136.023-23.5617 136.023-14.6133C136.023-13.355 135.878-12.13 135.639-10.9849L139.441-10.9849C146.787-10.9849 150.502-15.095 150.502-23.2072L150.502-40.0991C150.502-45.1172 148.571-51.0963 145.417-55.6616Z" />
</svg>