<svg xmlns="http://www.w3.org/2000/svg" viewBox="9.76562 -77.7003 87.86 84.75">
  <path d="M14.2063-68.8677L46.2656-68.8677C48.7046-68.8677 50.7063-70.9027 50.7063-73.3084C50.7063-75.7141 48.7201-77.7003 46.2656-77.7003L14.2063-77.7003C11.6209-77.7003 9.76562-75.7451 9.76562-73.3084C9.76562-70.8717 11.6364-68.8677 14.2063-68.8677ZM30.2704 7.046C40.3174 7.046 46.7137 0.711816 46.7137-9.24199L46.7137-73.9938L38.2717-73.9938L38.2717-9.24199C38.2717-4.4501 35.1066-1.33164 30.2704-1.33164C25.3521-1.33164 22.187-4.4501 22.187-9.24199L22.187-73.9938L13.6962-73.9938L13.6962-9.24199C13.6962 0.711816 20.1258 7.046 30.2704 7.046ZM40.3468-59.1439L20.1119-59.1439L20.1119-9.24199C20.1119-3.28271 24.2002 0.743457 30.2704 0.743457C36.2585 0.743457 40.3468-3.28271 40.3468-9.24199ZM22.187-46.1205L22.187-51.4293L29.8224-51.4293C31.2982-51.4293 32.5012-50.2597 32.5012-48.8481C32.5012-47.3057 31.3648-46.1205 29.8557-46.1205ZM22.187-33.7359L22.187-39.0603L29.8557-39.0603C31.3315-39.0603 32.5012-37.8573 32.5012-36.4303C32.5012-34.8878 31.3648-33.7359 29.8557-33.7359ZM22.187-21.3514L22.187-26.6269L29.8224-26.6269C31.2982-26.6269 32.4679-25.4417 32.4679-23.9991C32.5012-22.4877 31.3981-21.3514 29.8224-21.3514ZM61.0906-68.8677L93.1832-68.8677C95.5889-68.8677 97.6239-70.9027 97.6239-73.3084C97.6239-75.7141 95.6044-77.7003 93.1832-77.7003L61.0906-77.7003C58.5052-77.7003 56.6499-75.7451 56.6499-73.3084C56.6499-70.8717 58.5207-68.8677 61.0906-68.8677ZM77.1547 7.046C87.2017 7.046 93.5979 0.711816 93.5979-9.24199L93.5979-73.9938L85.156-73.9938L85.156-9.24199C85.156-4.4501 82.0242-1.33164 77.1547-1.33164C72.2363-1.33164 69.1046-4.4501 69.1046-9.24199L69.1046-73.9938L60.5805-73.9938L60.5805-9.24199C60.5805 0.711816 67.0434 7.046 77.1547 7.046ZM87.2311-14.2911L67.0295-14.2911L67.0295-9.24199C67.0295-3.28271 71.1178 0.743457 77.1547 0.743457C83.1428 0.743457 87.2311-3.28271 87.2311-9.24199ZM67.1848-46.1205L76.7399-46.1205C78.2491-46.1205 79.4188-47.3057 79.4188-48.8481C79.4188-50.2597 78.2158-51.4293 76.7399-51.4293L67.1848-51.4293ZM67.1848-33.7359L76.7399-33.7359C78.2491-33.7359 79.4188-34.8878 79.4188-36.4303C79.4188-37.8573 78.2491-39.0603 76.7399-39.0603L67.1848-39.0603ZM67.1848-21.3514L76.7399-21.3514C78.2824-21.3514 79.4188-22.4877 79.3854-23.9991C79.3854-25.4417 78.2158-26.6269 76.7399-26.6269L67.1848-26.6269Z"/>
</svg>