<svg xmlns="http://www.w3.org/2000/svg" viewBox="9.76562 -69.6038 91.83 68.8">
  <path d="M23.1019-0.806348L88.2633-0.806348C97.0011-0.806348 101.6-5.40479 101.6-14.0427L101.6-35.6245C101.6-40.6753 100.983-42.8989 98.6191-45.835L86.0858-62.0109C81.5804-67.835 78.5845-69.6038 72.1188-69.6038L39.2464-69.6038C32.814-69.6038 29.7692-67.8194 25.2482-61.9799L12.7793-45.835C10.4159-42.8989 9.76562-40.6753 9.76562-35.6245L9.76562-14.0427C9.76562-5.40479 14.3974-0.806348 23.1019-0.806348ZM55.6992-25.0354C49.9553-25.0354 46.1336-29.956 46.1336-34.7675L46.1336-35.209C46.1336-37.08 44.995-38.9177 42.5869-38.9177L20.7487-38.9177C19.4104-38.9177 19.1329-40.043 19.801-40.9574L33.5438-59.1063C35.0531-61.1773 36.9288-61.9919 39.2883-61.9919L71.8905-61.9919C74.25-61.9919 76.159-61.1773 77.6684-59.1063L91.1139-41.299C91.8884-40.2448 91.6287-38.9177 90.0419-38.9177L68.7782-38.9177C66.4034-38.9177 65.2648-37.08 65.2648-35.209L65.2648-34.7675C65.2648-29.956 61.4099-25.0354 55.6992-25.0354Z"/>
</svg>