<svg xmlns="http://www.w3.org/2000/svg" viewBox="9.76562 -87.4016 91.83 94.45">
  <path d="M67.5308-61.7116L67.5308-54.133L72.2787-54.133C74.6382-54.133 76.4628-53.2363 78.0565-51.2475L91.3202-34.9851C91.9883-34.1039 91.7108-32.9453 90.4058-32.9453L66.4841-32.9453C64.3356-32.9453 63.3701-31.4848 63.3701-29.9466L63.3701-29.8489C63.3701-26.1999 60.5534-21.9782 55.6992-21.9782C50.845-21.9782 47.995-26.1999 47.995-29.8489L47.995-29.9466C47.995-31.4848 47.0628-32.9453 44.8811-32.9453L20.9927-32.9453C19.6543-32.9453 19.3769-34.1039 20.0782-34.9851L33.3419-51.2475C34.9356-53.2363 36.727-54.133 39.0864-54.133L43.8677-54.133L43.8677-61.7116L39.2464-61.7116C32.814-61.7116 30.0356-59.8273 25.2482-54.121L12.7793-39.2415C10.3493-36.3721 9.76562-34.0485 9.76562-29.0311L9.76562-6.18379C9.76562 2.4541 14.3974 7.05254 23.1019 7.05254L88.2633 7.05254C97.0011 7.05254 101.6 2.4541 101.6-6.18379L101.6-29.0311C101.6-34.0485 101.049-36.3721 98.6191-39.2415L86.0858-54.1521C81.314-59.8429 78.5845-61.7116 72.1188-61.7116ZM23.6964-2.279C20.5845-2.279 18.8775-3.82393 18.8775-7.13115L18.8775-24.8563L40.3939-24.8563C41.9673-18.353 47.9133-13.4833 55.6992-13.4833C63.4852-13.4833 69.3979-18.353 70.9712-24.8563L92.4876-24.8563L92.4876-7.13115C92.4876-3.82393 90.7807-2.279 87.6688-2.279ZM42.4492-67.669C43.4967-67.669 44.5486-68.104 45.2921-68.8963L49.9955-73.9948L55.6992-81.5643L61.3696-73.9948L66.1063-68.8963C66.8165-68.104 67.8685-67.669 68.9159-67.669C70.9399-67.669 72.6798-69.156 72.6798-71.3042C72.6798-72.4027 72.2759-73.195 71.4991-73.9718L59.0146-85.9191C57.8695-87.0154 56.8266-87.4016 55.6992-87.4016C54.5386-87.4016 53.4956-87.0154 52.3838-85.9191L39.866-73.9718C39.1226-73.195 38.6854-72.4027 38.6854-71.3042C38.6854-69.156 40.3919-67.669 42.4492-67.669ZM55.6992-35.9363C58.0516-35.9363 59.9734-37.887 59.9734-40.1284L59.9734-70.7808L59.1235-82.9229C59.0126-84.7959 57.5723-86.3472 55.6992-86.3472C53.7929-86.3472 52.3858-84.7959 52.2416-82.9229L51.425-70.7808L51.425-40.1284C51.425-37.887 53.3136-35.9363 55.6992-35.9363Z"/>
</svg>