<svg xmlns="http://www.w3.org/2000/svg" viewBox="6.83594 -75.2858 80.49 80.45">
  <path d="M47.0632 5.16865C69.2908 5.16865 87.3237-12.8643 87.3237-35.0586C87.3237-57.2529 69.2908-75.2858 47.0632-75.2858C24.8688-75.2858 6.83594-57.2529 6.83594-35.0586C6.83594-12.8643 24.8688 5.16865 47.0632 5.16865ZM26.906-28.2666L41.375-53.4049C44.2291-58.3674 50.0282-58.3341 52.8823-53.4049L67.3181-28.2666C70.3187-23.0755 67.7798-17.9577 62.0383-17.9577L32.1857-17.9577C26.4775-17.9577 23.9054-23.0755 26.906-28.2666ZM34.8172-26.4796C34.5397-26.0912 34.7684-25.7006 35.2389-25.7006L59.0185-25.7006C59.489-25.7006 59.7176-26.0912 59.4401-26.4796L47.5159-47.1761C47.274-47.58 46.9012-47.58 46.6593-47.1761Z"/>
</svg>