<svg xmlns="http://www.w3.org/2000/svg" viewBox="9.76562 -74.6883 114.26 86.45">
  <path d="M21.3128-7.33154L55.3067-7.33154L55.3067-16.2882L22.0315-16.2882C19.7477-16.2882 18.7223-17.1849 18.7223-19.5975L18.7223-62.3891C18.7223-64.835 19.7477-65.7316 22.0315-65.7316L97.3073-65.7316C99.5912-65.7316 100.617-64.835 100.617-62.3891L100.617-28.3755L109.573-28.3755L109.573-63.1078C109.573-70.7957 105.547-74.6883 98.0261-74.6883L21.3128-74.6883C13.7914-74.6883 9.76562-70.7957 9.76562-63.1078L9.76562-18.8787C9.76562-11.2241 13.7914-7.33154 21.3128-7.33154ZM39.6436 6.95039L55.8328 6.95039C55.3578 4.99502 55.3067 2.25918 55.3067-1.23213L39.6436-1.23213C37.3644-1.23213 35.5534 0.640918 35.5534 2.87578C35.5534 5.04404 37.3644 6.95039 39.6436 6.95039ZM70.514 11.7638L114.729 11.7638C120.783 11.7638 124.021 8.52578 124.021 2.40469L124.021-13.1017C124.021-19.2561 120.783-22.494 114.729-22.494L70.514-22.494C64.3929-22.494 61.2215-19.2561 61.2215-13.135L61.2215 2.40469C61.2215 8.52578 64.3929 11.7638 70.514 11.7638ZM109.485-2.31387C106.573-2.31387 104.179-4.7085 104.179-7.62021C104.179-10.4831 106.573-12.8777 109.485-12.8777C112.348-12.8777 114.742-10.4831 114.742-7.62021C114.742-4.7085 112.348-2.31387 109.485-2.31387Z"/>
</svg>