<svg xmlns="http://www.w3.org/2000/svg" viewBox="9.76562 -71.6082 91.21 72.81">
  <path d="M13.8825-39.3564L50.8948-39.3564L50.8948-2.58584L59.8825-2.58584L59.8825-39.3564L97.4942-39.3564L97.4942-48.0444L13.8825-48.0444ZM27.0306 1.19805L84.5127 1.19805C94.8951 1.19805 100.978-5.15166 100.978-16.1002L100.978-54.31C100.978-65.2585 94.8951-71.6082 84.5127-71.6082L27.0306-71.6082C16.1153-71.6082 9.76562-65.2585 9.76562-54.31L9.76562-16.1002C9.76562-5.15166 16.1153 1.19805 27.0306 1.19805ZM27.7448-8.1335C22.2557-8.1335 19.0639-11.292 19.0639-16.8145L19.0639-53.5957C19.0639-59.1182 22.2557-62.2767 27.7448-62.2767L82.9992-62.2767C88.5217-62.2767 91.6802-59.1182 91.6802-53.5957L91.6802-16.8145C91.6802-11.292 88.5217-8.1335 82.9992-8.1335Z"/>
</svg>