<svg xmlns="http://www.w3.org/2000/svg" viewBox="6.83594 -71.5809 146.14 72.72">
  <path d="M79.8988 1.13516C99.9932 1.13516 116.257-15.1285 116.257-35.2229C116.257-55.3172 99.9932-71.5809 79.8988-71.5809C59.8378-71.5809 43.5741-55.3172 43.5741-35.2229C43.5741-15.1285 59.8378 1.13516 79.8988 1.13516ZM34.4586-19.9084C35.8568-21.6595 35.333-23.7346 33.9348-25.7188C32.1479-28.1937 31.0427-31.7714 31.0427-35.2539C31.0427-38.7364 32.1479-42.3142 33.9348-44.8046C35.3175-46.7888 35.8568-48.8483 34.4586-50.5994C32.9161-52.4437 29.9688-52.5391 28.0803-50.3353C24.8709-46.4288 23.0908-41.0289 23.0908-35.2539C23.0908-29.4789 24.8709-24.079 28.0803-20.1881C29.9688-17.9843 32.9161-18.0642 34.4586-19.9084ZM22.8113-8.84443C24.2717-10.611 23.8345-12.7838 22.161-14.6525C17.4135-20.0394 14.7878-27.3037 14.7878-35.2539C14.7878-43.1886 17.3824-50.4529 22.161-55.8397C23.85-57.7085 24.2872-59.8813 22.8113-61.6479C21.24-63.5099 18.5191-63.6807 16.453-61.4348C10.3205-54.7917 6.83594-45.2637 6.83594-35.2539C6.83594-25.2131 10.1342-15.8093 16.453-9.05752C18.5502-6.82715 21.2556-6.96689 22.8113-8.84443ZM125.357-19.8773C126.899-18.0331 129.847-17.9532 131.735-20.157C134.945-24.0479 136.725-29.4479 136.725-35.2229C136.725-40.9979 134.945-46.3978 131.735-50.3042C129.847-52.508 126.899-52.4126 125.357-50.5684C123.925-48.8173 124.498-46.7577 125.881-44.7735C127.667-42.2831 128.773-38.7054 128.773-35.2229C128.773-31.7403 127.667-28.1626 125.881-25.6877C124.482-23.7035 123.925-21.6284 125.357-19.8773ZM137.004-8.81338C138.56-6.93584 141.265-6.79609 143.362-9.02646C149.681-15.7782 152.979-25.182 152.979-35.2229C152.979-45.2326 149.495-54.7606 143.362-61.4037C141.296-63.6496 138.575-63.4788 137.004-61.6168C135.528-59.8502 135.965-57.6774 137.654-55.8087C142.433-50.4219 145.028-43.1575 145.028-35.2229C145.028-27.2727 142.402-20.0083 137.654-14.6215C135.981-12.7527 135.544-10.58 137.004-8.81338ZM63.9006-33.636C62.782-33.636 61.9587-34.5771 61.9587-35.7444C61.9587-42.221 66.8815-51.4963 77.5974-52.6481L77.5974-54.8722C77.5974-56.135 78.6027-57.1248 79.8678-57.1248C81.1483-57.1248 82.187-56.135 82.187-54.8722L82.187-52.6481C92.9028-51.4963 97.7924-42.221 97.7924-35.7444C97.7924-34.5771 96.969-33.636 95.8838-33.636C95.1271-33.636 94.4945-34.0089 93.7112-34.8966C92.7745-36.2529 91.7557-36.8301 90.3883-36.8301C89.0387-36.8301 88.0864-36.2063 87.1099-34.6947C86.5595-33.9623 86.0912-33.636 85.4432-33.636C84.8129-33.636 84.247-33.9934 83.8275-34.6792C83.3969-35.343 82.833-35.8735 82.187-36.2043L82.187-21.2511C82.187-17.5269 79.3705-15.072 75.7905-15.072C72.1617-15.072 69.3808-17.7753 69.3808-21.3287C69.3808-22.758 70.304-23.8455 71.6645-23.8455C72.9961-23.8455 73.9526-22.7735 73.9526-21.3753C73.9526-20.2921 74.7251-19.5063 75.7595-19.5063C76.8582-19.5063 77.5974-20.261 77.5974-21.3287L77.5974-36.2043C76.9514-35.8735 76.3542-35.343 75.9568-34.6792C75.4886-33.9623 74.9382-33.636 74.3079-33.636C73.6932-33.636 73.1761-33.9623 72.6745-34.6947C71.6646-36.2063 70.7457-36.8301 69.3961-36.8301C68.0287-36.8301 67.0099-36.2529 66.0398-34.8966C65.2898-34.0089 64.6573-33.636 63.9006-33.636Z" />
</svg>