<svg xmlns="http://www.w3.org/2000/svg" viewBox="9.76562 -77.0992 67.21 83.72">
  <path d="M22.9687 6.62246L63.7422 6.62246C72.3801 6.62246 76.9785 1.99072 76.9785-6.71377L76.9785-63.7785C76.9785-72.5163 72.3801-77.0992 63.7422-77.0992L52.2255-77.0992C50.6054-77.0992 49.611-76.167 49.611-74.6022C49.611-71.1197 47.2272-68.33 43.3721-68.33C39.4836-68.33 37.0665-71.1197 37.0665-74.6022C37.0665-76.167 36.1055-77.0992 34.4521-77.0992L22.9687-77.0992C14.3308-77.0992 9.76562-72.5163 9.76562-63.7785L9.76562-6.71377C9.76562 1.99072 14.3308 6.62246 22.9687 6.62246ZM23.9493-2.67578C20.6421-2.67578 19.0639-4.38271 19.0639-7.49463L19.0639-62.9977C19.0639-66.1096 20.6421-67.8165 23.9493-67.8165L35.5811-67.8165L29.9135-71.1297C30.7413-64.0275 36.0058-59.5687 43.3721-59.5687C50.7051-59.5687 56.0028-64.0275 56.8307-71.1297L51.1298-67.8165L62.7948-67.8165C66.0687-67.8165 67.647-66.1096 67.647-62.9977L67.647-7.49463C67.647-4.38271 66.0687-2.67578 62.7948-2.67578ZM30.0504-46.5003L56.7115-46.5003C58.2407-46.5003 59.3793-47.6877 59.3793-49.2169C59.3793-50.6973 58.2407-51.8358 56.7115-51.8358L30.0504-51.8358C28.4724-51.8358 27.3338-50.6973 27.3338-49.2169C27.3338-47.6877 28.4724-46.5003 30.0504-46.5003ZM30.0504-33.6493L43.1143-33.6493C44.6435-33.6493 45.782-34.8212 45.782-36.3016C45.782-37.8308 44.6435-39.0182 43.1143-39.0182L30.0504-39.0182C28.4724-39.0182 27.3338-37.8308 27.3338-36.3016C27.3338-34.8212 28.4724-33.6493 30.0504-33.6493Z" />
</svg>