<svg xmlns="http://www.w3.org/2000/svg" viewBox="6.83594 -75.4323 80.49 80.45">
  <path d="M47.0632 5.02217C69.2908 5.02217 87.3237-13.0107 87.3237-35.2051C87.3237-57.3994 69.2908-75.4323 47.0632-75.4323C24.8688-75.4323 6.83594-57.3994 6.83594-35.2051C6.83594-13.0107 24.8688 5.02217 47.0632 5.02217ZM27.0524-29.7028C25.5743-29.7028 24.3226-30.9213 24.3226-32.466L24.3226-37.9797C24.3226-39.4911 25.541-40.7429 27.0524-40.7429C28.6127-40.7429 29.8312-39.4911 29.8312-37.9797L29.8312-32.466C29.8312-30.9213 28.6127-29.7028 27.0524-29.7028ZM35.0803-22.4523C33.5355-22.4523 32.3171-23.6553 32.3171-25.2333L32.3171-45.2124C32.3171-46.7416 33.52-47.9601 35.0803-47.9601C36.6405-47.9601 37.859-46.7416 37.859-45.2124L37.859-25.2333C37.859-23.6708 36.6405-22.4523 35.0803-22.4523ZM43.0748-14.3063C41.5146-14.3063 40.3271-15.4914 40.3271-17.085L40.3271-53.3274C40.3271-54.8544 41.5479-56.1062 43.0748-56.1062C44.6018-56.1062 45.8535-54.8699 45.8535-53.3274L45.8535-17.085C45.8535-15.5247 44.6018-14.3063 43.0748-14.3063ZM51.036-25.5843C49.5246-25.5843 48.3062-26.8027 48.3062-28.3297L48.3062-42.0827C48.3062-43.6097 49.5246-44.8281 51.036-44.8281C52.5808-44.8281 53.7992-43.6252 53.7992-42.0827L53.7992-28.3297C53.7992-26.8027 52.5963-25.5843 51.036-25.5843ZM59.0483-19.1537C57.5036-19.1537 56.2852-20.3566 56.2852-21.8681L56.2852-48.5443C56.2852-50.0558 57.4881-51.2587 59.0483-51.2587C60.6086-51.2587 61.8115-50.0558 61.8115-48.5443L61.8115-21.8681C61.8115-20.3566 60.6086-19.1537 59.0483-19.1537ZM67.0273-28.2625C65.4671-28.2625 64.2642-29.4654 64.2642-31.0412L64.2642-39.3712C64.2642-40.9314 65.4671-42.1499 67.0273-42.1499C68.5721-42.1499 69.7905-40.9803 69.7905-39.3712L69.7905-31.0412C69.7905-29.4477 68.5876-28.2625 67.0273-28.2625Z" />
</svg>