<svg xmlns="http://www.w3.org/2000/svg" viewBox="9.76562 -73.7856 66.2 78.83">
  <path d="M42.864 5.04912C43.5408 5.04912 44.6105 4.77617 45.6692 4.22129C67.9813-7.47988 75.9623-13.4766 75.9623-27.7434L75.9623-56.4236C75.9623-61.4368 74.058-63.3252 69.8972-65.1249C66.2526-66.6941 51.1153-71.848 47.6261-73.0134C46.1504-73.4794 44.3752-73.7856 42.864-73.7856C41.3527-73.7856 39.5442-73.3973 38.1019-73.0134C34.6126-72.13 19.4753-66.6608 15.8308-65.1249C11.6699-63.3585 9.76562-61.4368 9.76562-56.4236L9.76562-27.7434C9.76562-13.4766 17.7467-7.51318 40.0587 4.22129C41.1174 4.77617 42.1871 5.04912 42.864 5.04912ZM42.864-4.71328C42.3867-4.71328 41.925-4.82871 40.7309-5.51455C23.4455-16.0304 18.5159-18.643 18.5159-29.3747L18.5159-55.0897C18.5159-56.2171 18.7889-56.7164 19.6943-57.1048C25.494-59.4064 35.7459-62.6979 40.5674-64.5671C41.5836-64.9021 42.2249-65.0286 42.864-65.0286C43.503-65.0286 44.1443-64.9021 45.1605-64.5671C49.9487-62.6979 60.1007-59.2066 66.0003-57.1048C66.9391-56.7497 67.1787-56.2171 67.1787-55.0897L67.1787-29.3747C67.1787-18.5188 61.8765-15.5335 44.9638-5.51455C43.8029-4.84424 43.3412-4.71328 42.864-4.71328ZM33.7834-21.6015L57.7768-45.6281C58.569-46.3871 58.9885-47.3725 58.9885-48.4244C58.9885-50.7347 57.2264-52.4968 54.9316-52.4968C53.771-52.4968 52.8012-52.1084 52.06-51.3006L28-27.3405C27.2077-26.5815 26.755-25.5962 26.755-24.5109C26.755-22.2007 28.5504-20.4053 30.8451-20.4053C32.0391-20.4053 33.0089-20.827 33.7834-21.6015ZM51.9934-21.6015C52.7346-20.827 53.7377-20.4053 54.9316-20.4053C57.2264-20.4053 58.9885-22.2007 58.9885-24.5109C58.9885-25.5962 58.569-26.5815 57.7768-27.3405L33.7168-51.3006C32.9423-52.1084 32.0058-52.4968 30.8451-52.4968C28.5504-52.4968 26.755-50.7347 26.755-48.4244C26.755-47.3725 27.2077-46.3871 28-45.6281Z" />
</svg>