<svg xmlns="http://www.w3.org/2000/svg" viewBox="12.4609 -82.8326 95.16 95.18">
  <path d="M30.7123 12.3442L89.37 12.3442C101.024 12.3442 107.621 5.74196 107.621-5.85796L107.621-64.6305C107.621-76.2304 101.024-82.8326 89.37-82.8326L30.7123-82.8326C19.075-82.8326 12.4609-76.235 12.4609-64.6305L12.4609-5.85796C12.4609 5.74651 19.075 12.3442 30.7123 12.3442ZM60.3111-12.5104C48.7084-12.5104 41.3147-21.3302 41.3147-35.2606C41.3147-49.1911 48.7084-58.0109 60.3111-58.0109C71.9137-58.0109 79.6564-49.1911 79.6564-35.2606C79.6564-21.3302 71.9137-12.5104 60.3111-12.5104ZM60.4855-23.301C63.8198-23.301 66.1118-26.8638 66.1118-35.2606C66.1118-43.6575 63.8198-47.2202 60.4855-47.2202C57.1349-47.2202 54.8428-43.6575 54.8428-35.2606C54.8428-26.8638 57.1349-23.301 60.4855-23.301Z"/>
</svg>