<svg xmlns="http://www.w3.org/2000/svg" viewBox="12.4609 -82.8326 95.16 95.18">
  <path d="M30.7123 12.3442L89.37 12.3442C101.024 12.3442 107.621 5.74196 107.621-5.85796L107.621-64.6305C107.621-76.2304 101.024-82.8326 89.37-82.8326L30.7123-82.8326C19.075-82.8326 12.4609-76.235 12.4609-64.6305L12.4609-5.85796C12.4609 5.74651 19.075 12.3442 30.7123 12.3442ZM32.7562-2.77186C29.3203-2.77186 27.5605-4.32434 27.5605-7.98396L27.5605-62.5045C27.5605-66.1805 29.3203-67.7166 32.7562-67.7166L87.326-67.7166C90.7528-67.7166 92.5217-66.1805 92.5217-62.5045L92.5217-7.98396C92.5217-4.32434 90.7528-2.77186 87.326-2.77186ZM45.7621-15.7273C55.2974-15.7273 58.1785-25.9748 58.1785-35.2606C58.1785-44.5465 55.2974-54.794 45.7621-54.794C36.2456-54.794 33.348-44.5465 33.348-35.2606C33.348-25.9748 36.2456-15.7273 45.7621-15.7273ZM45.7621-22.7617C43.2759-22.7617 42.2849-27.5081 42.2849-35.2606C42.2849-43.0132 43.2759-47.7596 45.7621-47.7596C48.267-47.7596 49.2558-43.0132 49.2558-35.2606C49.2558-27.5081 48.267-22.7617 45.7621-22.7617ZM74.388-15.8083C81.5263-15.8083 86.6061-19.9997 86.6061-26.8745C86.6061-31.8886 83.7529-35.1162 79.6973-35.6396L79.6973-35.8242C82.8995-36.6568 85.5119-40.0053 85.5119-44.3814C85.5119-50.866 80.8444-54.6366 74.1139-54.6366C69.3817-54.6366 64.8597-52.136 63.5621-47.7769C63.3106-46.9851 63.1883-46.1128 63.1883-45.2378C63.1883-43.571 64.2303-41.7795 66.8221-41.7795C68.6135-41.7795 70.2657-42.373 70.7964-44.3639C71.2506-46.1383 72.2333-47.8282 74.2011-47.8282C76.4294-47.8282 77.253-45.6542 77.253-43.4424C77.253-40.9094 76.1655-38.4986 73.2484-38.4986L72.7296-38.4986C70.5206-38.4986 69.4123-37.3081 69.4123-35.4572C69.4123-33.5627 70.4838-32.4073 72.7296-32.4073L73.3107-32.4073C76.5421-32.4073 78.0425-30.6355 78.0425-27.3882C78.0425-25.0308 76.9896-22.6353 74.3467-22.6353C72.2159-22.6353 71.1465-24.1103 70.5716-25.7661C69.9123-27.7263 68.5717-28.73 66.6114-28.73C64.2236-28.73 62.6938-27.2766 62.6938-24.8843C62.6938-23.9775 62.8207-23.0961 63.0699-22.3321C64.4112-18.0569 69.1613-15.8083 74.388-15.8083Z" />
</svg>