<svg xmlns="http://www.w3.org/2000/svg" viewBox="12.4609 -82.7845 105.2 95.18">
  <path d="M30.7123 12.3923L99.4094 12.3923C111.065 12.3923 117.661 5.79013 117.661-5.80979L117.661-64.5823C117.661-76.1823 111.065-82.7845 99.4094-82.7845L30.7123-82.7845C19.075-82.7845 12.4609-76.1868 12.4609-64.5823L12.4609-5.80979C12.4609 5.79468 19.075 12.3923 30.7123 12.3923ZM32.4937-2.72369C29.2219-2.72369 27.5605-4.17772 27.5605-7.67324L27.5605-49.7206C27.5605-53.2161 29.2219-54.6724 32.4937-54.6724L97.6116-54.6724C100.874-54.6724 102.563-53.2161 102.563-49.7206L102.563-7.67324C102.563-4.17772 100.874-2.72369 97.6116-2.72369ZM52.3766-9.21894C54.8375-9.21894 56.8192-11.203 56.8192-13.6967L56.8192-42.4599C56.8192-45.7036 54.8539-47.4639 51.6244-47.4639C49.1992-47.4639 47.5042-46.449 45.8928-45.2273L41.8202-42.0768C40.5572-41.1434 39.9008-40.0515 39.9008-38.6112C39.9008-36.4419 41.4063-35.4553 42.8635-35.4553C43.7176-35.4553 44.2919-35.7 45.0135-36.2579L47.8988-38.5377L47.8988-13.6967C47.8988-11.203 49.8828-9.21894 52.3766-9.21894ZM75.1419-8.81457C82.6273-8.81457 86.477-14.917 86.477-22.4398C86.477-28.2022 84.2427-34.5126 78.2553-34.5126C74.9893-34.5126 73.0274-32.5794 72.252-30.5545L72.0073-30.5545L72.5528-39.93L81.9419-39.93C84.165-39.93 85.2366-41.487 85.2366-43.3611C85.2366-45.4346 84.0155-46.8171 81.9419-46.8171L69.5929-46.8171C66.8392-46.8171 65.5581-45.0007 65.417-42.208L64.9316-30.7086C64.9129-30.3077 64.867-29.3056 64.867-28.8769C64.867-26.2511 66.257-24.5606 68.7337-24.5606C70.323-24.5606 71.1606-24.9763 72.0554-26.403C72.7311-27.4821 73.6086-28.5062 74.887-28.5062C77.3299-28.5062 78.1207-25.008 78.1207-22.2138C78.1207-19.52 77.4857-15.6853 74.951-15.6853C73.1775-15.6853 72.2117-17.0799 71.6352-18.7451C70.9845-20.6086 69.6348-21.5477 67.9696-21.5477C65.8032-21.5477 64.4972-20.1793 64.4972-18.0106C64.4972-17.1454 64.6733-16.3265 64.9236-15.5081C66.242-11.7193 70.3839-8.81457 75.1419-8.81457Z"/>
</svg>