<svg xmlns="http://www.w3.org/2000/svg" viewBox="8.72266 -87.7433 104.98 104.97">
  <path d="M61.2053 17.222C90.1969 17.222 113.704-6.26912 113.704-35.2606C113.704-64.2522 90.1969-87.7433 61.2053-87.7433C32.2302-87.7433 8.72266-64.2522 8.72266-35.2606C8.72266-6.26912 32.2302 17.222 61.2053 17.222ZM61.2053 1.99116C40.6171 1.99116 23.9677-14.6724 23.9677-35.2606C23.9677-55.8489 40.6171-72.5124 61.2053-72.5124C81.7936-72.5124 98.4571-55.8489 98.4571-35.2606C98.4571-14.6724 81.7936 1.99116 61.2053 1.99116ZM48.3336-16.1316C50.7945-16.1316 52.7786-18.1157 52.7786-20.6094L52.7786-49.3727C52.7786-52.6163 50.8109-54.3766 47.5838-54.3766C45.1563-54.3766 43.4635-53.3617 41.8498-52.1377L37.7773-48.9895C36.5142-48.0561 35.8601-46.9642 35.8601-45.5216C35.8601-43.3546 37.3633-42.3681 38.8206-42.3681C39.6746-42.3681 40.2489-42.6127 40.9728-43.1706L43.8558-45.4504L43.8558-20.6094C43.8558-18.1157 45.8399-16.1316 48.3336-16.1316ZM71.9258-15.7273C79.2453-15.7273 83.155-21.7878 83.155-28.8988C83.155-34.8783 80.6754-40.723 74.8064-40.723C71.1026-40.723 68.8099-38.0731 67.9429-34.6985L67.8432-34.6985C67.8432-35.3971 67.8432-36.1533 67.8432-36.8541C67.8432-43.0323 68.8747-47.8446 71.7372-47.8446C73.1584-47.8446 73.9021-46.7338 74.588-45.4077C75.492-43.7159 76.5793-42.987 78.3652-42.987C80.9439-42.987 81.8897-44.7467 81.8897-46.648C81.8897-47.1583 81.8252-47.9417 81.6524-48.528C80.4742-52.7188 76.53-54.7153 72.0505-54.7153C62.3555-54.7153 59.4948-44.7034 59.4948-35.0408C59.4948-26.5953 62.1783-15.7273 71.9258-15.7273ZM71.7786-22.598C69.6863-22.598 68.6978-25.2549 68.6978-28.6701C68.6978-31.9605 69.7282-34.4056 71.7763-34.4056C73.8312-34.4056 74.8338-31.8631 74.801-28.4927C74.801-25.1411 73.7656-22.598 71.7786-22.598Z" />
</svg>