<svg xmlns="http://www.w3.org/2000/svg" viewBox="8.72266 -87.7433 104.98 104.97">
  <path d="M61.2053 17.222C90.1969 17.222 113.704-6.26912 113.704-35.2606C113.704-64.2522 90.1969-87.7433 61.2053-87.7433C32.2302-87.7433 8.72266-64.2522 8.72266-35.2606C8.72266-6.26912 32.2302 17.222 61.2053 17.222ZM61.2053 1.99116C40.6171 1.99116 23.9677-14.6724 23.9677-35.2606C23.9677-55.8489 40.6171-72.5124 61.2053-72.5124C81.7936-72.5124 98.4571-55.8489 98.4571-35.2606C98.4571-14.6724 81.7936 1.99116 61.2053 1.99116ZM48.7913-16.1316C51.2663-16.1316 53.2503-18.1157 53.2503-20.6094L53.2503-49.3727C53.2503-52.6163 51.2663-54.3766 48.0391-54.3766C45.6281-54.3766 43.9353-53.3617 42.3052-52.1377L38.2327-48.9895C36.9696-48.0561 36.3319-46.9642 36.3319-45.5216C36.3319-43.3546 37.8187-42.3681 39.2759-42.3681C40.13-42.3681 40.7043-42.6127 41.4282-43.1706L44.3112-45.4504L44.3112-20.6094C44.3112-18.1157 46.2952-16.1316 48.7913-16.1316ZM71.9179-15.7646C78.8764-15.7646 84.3048-19.7084 84.3048-26.6899C84.3048-31.3874 81.5659-35.2403 77.4344-36.1148L77.4344-36.2972C80.8919-37.3762 83.36-40.5533 83.36-44.5609C83.36-50.687 78.5752-54.6507 71.9179-54.6507C65.867-54.6507 60.5403-51.2397 60.5403-44.5773C60.5403-40.0577 63.3976-37.229 66.4636-36.2972L66.4636-36.1148C62.5119-35.3111 59.5497-31.477 59.5497-26.7335C59.5497-19.9295 64.7818-15.7646 71.9179-15.7646ZM71.9202-38.8702C70.1141-38.8702 69.096-40.9498 69.096-43.6593C69.096-46.4417 70.1592-48.4971 71.9202-48.4971C73.7984-48.4971 74.8151-46.454 74.8151-43.6593C74.8151-40.8344 73.792-38.8702 71.9202-38.8702ZM71.9202-21.9783C69.8675-21.9783 68.7539-24.2224 68.7539-27.382C68.7539-30.4651 69.8698-32.6978 71.9202-32.6978C73.95-32.6978 75.1278-30.502 75.1278-27.382C75.1278-24.2247 73.9705-21.9783 71.9202-21.9783Z" />
</svg>