<svg xmlns="http://www.w3.org/2000/svg" viewBox="12.4609 -82.8326 95.16 95.18">
  <path d="M30.7123 12.3442L89.37 12.3442C101.024 12.3442 107.621 5.74196 107.621-5.85796L107.621-64.6305C107.621-76.2304 101.024-82.8326 89.37-82.8326L30.7123-82.8326C19.075-82.8326 12.4609-76.235 12.4609-64.6305L12.4609-5.85796C12.4609 5.74651 19.075 12.3442 30.7123 12.3442ZM38.2022-15.4876C35.3755-15.4876 33.8796-16.8843 33.8796-19.1946C33.8796-20.8369 34.5121-22.1735 36.2878-24.3684L43.1017-33.0195C46.0738-36.7705 48.5679-40.3697 48.5679-44.0274C48.5679-46.6163 47.6618-48.7854 45.3461-48.7854C43.2254-48.7854 42.4352-47.1047 41.8032-44.95C41.1134-42.6465 39.6221-41.7029 37.7089-41.7029C35.1834-41.7029 33.8547-43.4763 33.8547-45.8432C33.8547-51.2949 38.9963-56.0378 45.3603-56.0378C52.383-56.0378 57.4277-51.6829 57.4277-44.3485C57.4277-38.9897 54.8539-35.231 50.7099-30.2822L44.9296-23.26L44.9296-22.8766L54.4917-22.8766C57.0342-22.8766 58.0786-21.1921 58.0786-19.1532C58.0786-17.2486 57.0484-15.4876 54.4917-15.4876ZM74.6687-14.5208C69.0709-14.5208 64.0076-16.9026 62.565-21.4592C62.3158-22.2833 62.1453-23.2355 62.1453-24.2187C62.1453-26.742 63.82-28.3012 66.3738-28.3012C68.4791-28.3012 69.8928-27.2517 70.6285-25.1277C71.2034-23.3848 72.3306-21.8333 74.5837-21.8333C77.3716-21.8333 78.4846-24.3948 78.4846-26.8536C78.4846-30.3269 76.9241-32.2 73.4713-32.2L72.9043-32.2C70.4699-32.2 69.3219-33.4591 69.3219-35.4572C69.3219-37.4554 70.5503-38.7059 72.9043-38.7059L73.409-38.7059C76.5039-38.7059 77.6678-41.2804 77.6678-43.977C77.6678-46.3526 76.8114-48.6302 74.4382-48.6302C72.3316-48.6302 71.3239-46.818 70.8533-44.9257C70.2626-42.8313 68.4609-42.1941 66.5845-42.1941C63.7667-42.1941 62.6997-44.1056 62.6997-45.9197C62.6997-46.8219 62.8221-47.7542 63.1172-48.6061C64.4725-53.2597 69.2913-55.924 74.3509-55.924C81.521-55.924 86.5181-51.9189 86.5181-45.0033C86.5181-40.3327 83.6984-36.7604 80.3161-35.8678L80.3161-35.6396C84.6368-35.1162 87.656-31.6376 87.656-26.2962C87.656-19.0067 82.2629-14.5208 74.6687-14.5208Z"/>
</svg>