<svg xmlns="http://www.w3.org/2000/svg" viewBox="8.72266 -87.7433 104.98 104.97">
  <path d="M61.2053 17.222C90.1923 17.222 113.704-6.29008 113.704-35.2606C113.704-64.2312 90.1923-87.7433 61.2053-87.7433C32.2348-87.7433 8.72266-64.2312 8.72266-35.2606C8.72266-6.29008 32.2348 17.222 61.2053 17.222ZM38.7581-15.4876C35.9455-15.4876 34.4355-16.8843 34.4355-19.1946C34.4355-20.8369 35.0821-22.1899 36.8578-24.3684L43.6576-33.0195C46.6438-36.7705 49.1215-40.3697 49.1215-44.0274C49.1215-46.6163 48.2318-48.829 45.902-48.829C43.7954-48.829 43.0075-47.1047 42.3568-44.95C41.6834-42.6902 40.1921-41.7194 38.2812-41.7194C35.7534-41.7194 34.4105-43.4763 34.4105-45.8432C34.4105-51.3385 39.5663-56.0378 45.9161-56.0378C52.9366-56.0378 58-51.6829 58-44.3485C58-38.9897 55.4262-35.231 51.2636-30.2822L45.4996-23.3036L45.4996-22.8766L55.0889-22.8766C57.5879-22.8766 58.6509-21.1921 58.6509-19.1532C58.6509-17.2486 57.6043-15.4876 55.0889-15.4876ZM71.8529-29.3509C65.6152-29.3509 62.9719-35.6079 62.9719-41.9561C62.9719-49.5276 67.1535-56.005 74.9266-56.005C85.3375-56.005 88.1869-44.4255 88.1869-35.4181C88.1869-25.1058 85.1766-14.4149 74.8184-14.4149C70.0716-14.4149 65.8577-16.54 64.5736-21.0509C64.4008-21.6598 64.3199-22.5055 64.3199-23.0322C64.3199-25.0644 65.3376-26.951 68.1305-26.951C69.9921-26.951 71.2172-26.1898 72.1421-24.2912C72.9776-22.5742 73.779-21.7733 75.1707-21.7733C78.1742-21.7733 79.2766-26.854 79.2766-33.4576C79.2766-34.202 79.2766-35.0019 79.2766-35.8041L79.1769-35.8041C78.2663-32.2058 75.8263-29.3509 71.8529-29.3509ZM75.1339-36.0556C77.242-36.0556 78.3784-38.6021 78.3784-42.1582C78.3784-45.8786 77.2862-48.5616 75.1339-48.5616C73.0082-48.5616 71.915-45.9268 71.915-42.2891C71.915-38.6995 72.959-36.0556 75.1339-36.0556Z"/>
</svg>