<svg xmlns="http://www.w3.org/2000/svg" viewBox="8.72266 -97.3 104.98 114.52">
  <path d="M50.1241-92.1749L50.1241-66.9033C50.1241-62.8651 53.9055-61.8818 56.7356-64.0324L73.2525-76.6566C75.2466-78.1925 75.263-80.9128 73.2525-82.4052L56.752-95.0894C53.9055-97.3 50.1241-96.2731 50.1241-92.1749ZM61.2053 17.222C90.1969 17.222 113.704-6.31274 113.704-35.2606C113.704-49.2069 107.955-63.098 97.4132-72.9489C93.5638-76.7701 88.7573-76.512 85.8985-73.4002C82.6766-69.9349 83.7527-65.4256 86.9376-61.9426C94.2267-54.8223 98.4571-45.8376 98.4571-35.2606C98.4571-14.6724 81.7936 1.99116 61.2053 1.99116C40.6171 1.99116 23.9677-14.6724 23.9677-35.2606C23.9677-55.8489 40.6171-72.5124 61.2949-72.5124C65.5011-72.5124 68.9103-75.9285 68.9103-80.1279C68.9103-84.3273 65.5175-87.7269 61.3113-87.7433C32.2138-87.7269 8.72266-64.2522 8.72266-35.2606C8.72266-6.31274 32.2302 17.222 61.2053 17.222ZM50.8629-16.4535C53.2287-16.4535 55.2745-17.7149 55.2745-20.8883L55.2745-23.089L55.9974-23.089C58.6283-23.089 59.5305-24.7723 59.5305-26.6635C59.5305-28.6475 58.6119-30.3003 55.9974-30.3003L55.2745-30.3003L55.2745-46.7489C55.2745-51.0154 52.254-53.3376 47.9438-53.3376C43.7163-53.3376 41.6201-51.0958 39.9306-47.6903C37.6977-43.3272 34.2089-35.883 32.7327-31.4313C32.364-30.2511 32.1036-29.0897 32.1036-27.8721C32.1036-25.1501 33.8922-23.089 37.2164-23.089L46.5091-23.089L46.5091-20.8883C46.5091-17.7126 48.5549-16.4535 50.8629-16.4535ZM46.7742-29.9457L39.645-29.9457L39.645-30.354C41.5029-35.3037 44.3033-41.5309 46.6309-46.3388L46.7742-46.3388ZM76.0478-16.0797C83.7826-16.0797 88.5155-21.4854 88.5155-29.2593C88.5155-35.4909 85.2812-40.8779 79.2615-40.8779C76.272-40.8779 73.6902-39.5276 72.5109-36.905L72.3144-36.905L72.8548-45.5883L83.5742-45.5883C85.7786-45.5883 87.0292-47.0502 87.0292-49.1696C87.0292-51.3468 85.7373-52.7378 83.5742-52.7378L69.8342-52.7378C66.9542-52.7378 65.4668-51.1021 65.3258-48.1162L64.6693-35.7978C64.5306-33.2575 65.9403-31.0141 68.8204-31.0141C70.5353-31.0141 71.4756-31.4508 72.5307-32.7178C73.3532-33.7827 74.3977-34.6777 75.841-34.6777C78.7299-34.6777 79.7365-31.7413 79.7365-29.0355C79.7365-25.9305 78.513-23.2314 75.8614-23.2314C73.9203-23.2314 72.7046-24.4334 71.8987-26.0398C70.9806-27.7141 69.6801-28.5376 67.9736-28.5376C65.7341-28.5376 64.27-27.1584 64.27-24.9212C64.27-23.2145 65.1634-21.5196 66.4822-20.3363C68.5452-17.5946 72.4495-16.0797 76.0478-16.0797Z" />
</svg>