<svg xmlns="http://www.w3.org/2000/svg" viewBox="12.4609 -73.0363 134.62 75.66">
  <path d="M54.626 2.61988C59.3426 2.61988 63.1162-1.16782 63.1162-5.9359L63.1162-11.2658L65.7743-11.2658C69.7556-11.2658 72.8506-14.3138 72.8506-18.3115C72.8506-22.2458 69.7992-25.3408 65.818-25.3408L63.1162-25.3408L63.1162-59.334C63.1162-67.3919 57.0509-73.0295 48.4967-73.0295C40.4311-73.0295 35.4154-68.1303 32.1853-61.7576L14.2075-28.4169C13.1032-26.2681 12.4609-23.8661 12.4609-21.5757C12.4609-16.1841 15.6832-11.2658 23.2721-11.2658L46.1359-11.2658L46.1359-5.9359C46.1359-1.02241 50.0407 2.61988 54.626 2.61988ZM46.5862-24.6972L27.3458-24.6972L27.3458-25.182L46.0992-59.1588L46.5862-59.1588ZM94.0817 2.61988C98.9314 2.61988 102.899-1.3315 102.899-6.18123L102.899-28.3542L129.442-28.3542L129.442-6.18123C129.442-1.3315 133.413 2.61988 138.26 2.61988C143.107 2.61988 147.078-1.3315 147.078-6.18123L147.078-64.2188C147.078-69.0685 143.107-73.0363 138.26-73.0363C133.413-73.0363 129.442-69.0685 129.442-64.2188L129.442-42.5702L102.899-42.5702L102.899-64.2188C102.899-69.0685 98.9314-73.0363 94.0817-73.0363C89.2343-73.0363 85.2665-69.0685 85.2665-64.2188L85.2665-6.18123C85.2665-1.3315 89.2343 2.61988 94.0817 2.61988Z"/>
</svg>