<svg xmlns="http://www.w3.org/2000/svg" viewBox="8.72266 -87.7433 104.98 104.97">
  <path d="M61.2053 17.222C90.1923 17.222 113.704-6.29008 113.704-35.2606C113.704-64.2312 90.1923-87.7433 61.2053-87.7433C32.2348-87.7433 8.72266-64.2312 8.72266-35.2606C8.72266-6.29008 32.2348 17.222 61.2053 17.222ZM52.0123-14.8114C49.6453-14.8114 47.551-16.2036 47.551-19.3928L47.551-22.3764L38.986-22.3764C35.468-22.3764 33.5549-24.2069 33.5549-27.5412C33.5549-29.3779 33.9927-31.3462 34.7737-33.4332L40.0554-46.8755C41.7261-51.4191 43.5249-55.553 49.2762-55.553C53.6429-55.553 56.48-53.1284 56.48-48.7321L56.48-29.7903L57.2396-29.7903C59.6767-29.7903 60.7579-28.3914 60.7579-26.0997C60.7579-24.1843 59.8937-22.3764 57.196-22.3764L56.48-22.3764L56.48-19.3928C56.48-16.1265 54.5146-14.8114 52.0123-14.8114ZM47.8183-29.5229L47.8183-48.1952L47.6314-48.1952L41.2462-29.8854L41.2462-29.5229ZM70.3186-15.4004C67.3043-15.4004 65.6709-17.3329 65.6709-20.38L65.6709-50.5525C65.6709-53.6573 67.2924-55.5626 70.3809-55.5626C73.595-55.5626 75.1673-53.6353 75.1673-50.5525L75.1673-23.1626L82.3725-23.1626C84.7712-23.1626 86.4692-21.7648 86.4692-19.292C86.4692-16.5637 84.5094-15.4004 82.3725-15.4004Z"/>
</svg>