<svg xmlns="http://www.w3.org/2000/svg" viewBox="8.72266 -97.3 104.98 114.52">
  <path d="M50.1241-92.1749L50.1241-66.9033C50.1241-62.8651 53.9055-61.8818 56.7356-64.0324L73.2525-76.6566C75.2466-78.1925 75.263-80.9128 73.2525-82.4052L56.752-95.0894C53.9055-97.3 50.1241-96.2731 50.1241-92.1749ZM61.2053 17.222C90.1969 17.222 113.704-6.31274 113.704-35.2606C113.704-49.2069 107.955-63.098 97.4132-72.9489C93.5638-76.7701 88.7573-76.512 85.8985-73.4002C82.6766-69.9349 83.7527-65.4256 86.9376-61.9426C94.2267-54.8223 98.4571-45.8376 98.4571-35.2606C98.4571-14.6724 81.7936 1.99116 61.2053 1.99116C40.6171 1.99116 23.9677-14.6724 23.9677-35.2606C23.9677-55.8489 40.6171-72.5124 61.2949-72.5124C65.5011-72.5124 68.9103-75.9285 68.9103-80.1279C68.9103-84.3273 65.5175-87.7269 61.3113-87.7433C32.2138-87.7269 8.72266-64.2522 8.72266-35.2606C8.72266-6.31274 32.2302 17.222 61.2053 17.222ZM46.4754-16.0819C53.5719-16.0819 58.8491-21.0539 58.8491-28.9138C58.8491-35.2461 55.5883-40.3002 49.5118-40.3002C45.6676-40.3002 42.9283-38.0424 41.8318-34.5187L41.6789-34.5187C41.6789-37.2273 41.7441-39.22 42.0794-40.9334C42.528-43.5962 43.5618-46.6056 46.2642-46.6056C47.8768-46.6056 48.8636-45.8085 49.6679-44.4451C50.6341-42.8954 51.9114-42.1149 53.7657-42.1149C56.4753-42.1149 57.4648-44.0406 57.4648-45.814C57.4648-46.8822 57.2365-47.8054 56.8049-48.6358C55.2037-51.8979 50.8803-53.7092 46.5151-53.7092C36.5996-53.7092 33.0515-44.8282 32.9646-35.3466C32.8636-30.9821 33.5551-26.8365 35.0551-23.6423C37.2006-19.0919 40.9122-16.0819 46.4754-16.0819ZM46.3282-23.236C43.7566-23.236 42.6254-26.1298 42.6254-28.6742C42.6254-31.5454 44.0211-33.8468 46.3695-33.8468C48.9116-33.8468 50.01-31.1036 50.01-28.5264C50.01-25.7712 48.6998-23.236 46.3282-23.236ZM76.6453-16.1006C86.3489-16.1006 90.0583-25.1563 90.0583-34.989C90.0583-44.773 86.3421-53.7278 76.6453-53.7278C66.8686-53.7278 63.1841-44.6744 63.1841-34.989C63.1841-25.1721 66.9649-16.1006 76.6453-16.1006ZM76.6453-23.356C73.9641-23.356 72.6015-27.571 72.6015-34.989C72.6015-42.2938 73.9641-46.4606 76.6453-46.4606C79.297-46.4606 80.701-42.2892 80.701-34.989C80.701-27.571 79.2992-23.356 76.6453-23.356Z" />
</svg>