<svg xmlns="http://www.w3.org/2000/svg" viewBox="8.72266 -93.8099 185.97 109.71">
  <path d="M29.6804-1.99446C31.6389-4.42988 31.021-7.39827 28.8473-9.80982C23.1056-16.1902 19.8855-25.3179 19.8855-35.2606C19.8855-45.1598 23.062-54.3311 28.8473-60.6678C31.0646-63.0794 31.6825-66.0478 29.6804-68.4832C27.4874-71.1095 23.6688-71.5871 20.5462-68.268C13.135-60.4253 8.72266-48.0035 8.72266-35.2606C8.72266-22.4305 12.6115-10.3577 20.5462-2.20964C23.7561 1.06581 27.531 0.675488 29.6804-1.99446ZM45.7463-16.2038C47.528-18.5934 46.9799-21.444 45.1913-23.9484C43.2547-26.5633 41.774-31.2715 41.774-35.2606C41.774-39.2498 43.2547-43.958 45.1913-46.6165C46.9362-49.1209 47.528-51.9279 45.7463-54.3175C43.709-56.9733 39.5654-57.1619 36.7101-54.1131C32.6989-49.6886 30.6134-42.7043 30.6134-35.2606C30.6134-27.817 32.6989-20.8327 36.7101-16.4518C39.5654-13.403 43.709-13.548 45.7463-16.2038ZM173.733-1.99446C175.882 0.675488 179.657 1.06581 182.867-2.20964C190.802-10.3577 194.691-22.4305 194.691-35.2606C194.691-48.0035 190.278-60.4253 182.867-68.268C179.745-71.5871 175.926-71.1095 173.733-68.4832C171.731-66.0478 172.349-63.0794 174.566-60.6678C180.395-54.2874 183.528-45.1598 183.528-35.2606C183.528-25.3179 180.308-16.1902 174.566-9.80982C172.392-7.39827 171.775-4.42988 173.733-1.99446ZM157.667-16.2038C159.704-13.548 163.848-13.403 166.703-16.4518C170.715-20.8327 172.8-27.817 172.8-35.2606C172.8-42.7043 170.715-49.6886 166.703-54.1131C163.848-57.1619 159.704-56.9733 157.667-54.3175C155.869-51.9279 156.477-49.1209 158.222-46.6165C160.159-43.958 161.639-39.2498 161.639-35.2606C161.639-31.2715 160.159-26.5633 158.222-23.9484C156.434-21.444 155.869-18.5934 157.667-16.2038ZM101.699 12.5757C128.249 12.5757 149.756-8.91712 149.756-35.4657C149.756-62.0142 128.249-83.5071 101.699-83.5071C75.1664-83.5071 53.6571-62.0142 53.6571-35.4657C53.6571-8.91712 75.1664 12.5757 101.699 12.5757ZM101.699-1.47964C82.9176-1.47964 67.7289-16.6661 67.7289-35.4657C67.7289-54.2301 82.9176-69.4189 101.699-69.4189C120.479-69.4189 135.668-54.2301 135.668-35.4657C135.668-16.6661 120.479-1.47964 101.699-1.47964ZM58.8928-70.7544C59.6818-70.7544 60.1943-71.0535 61.0105-71.6097L80.9461-85.1664C81.7561-85.7436 82.2772-86.6175 82.2772-87.5584C82.2772-88.7439 81.6938-89.8733 80.6176-90.6669C77.8783-92.6663 74.421-93.8099 70.5812-93.8099C61.9502-93.8099 54.7846-87.2113 54.7846-78.8557C54.7846-76.4281 55.193-74.4712 55.8223-72.9594C56.3785-71.6788 57.5299-70.7544 58.8928-70.7544ZM144.564-70.7544C145.927-70.7544 147.062-71.6952 147.635-72.9594C148.278-74.4548 148.629-76.4281 148.629-78.8557C148.629-87.2113 141.507-93.8099 132.832-93.8099C128.992-93.8099 125.535-92.6663 122.796-90.6669C121.72-89.8733 121.136-88.7439 121.136-87.5584C121.136-86.6175 121.657-85.7436 122.511-85.1664L142.446-71.6097C143.219-71.0535 143.732-70.7544 144.564-70.7544ZM59.13 13.611C61.4669 15.9044 65.0035 15.7735 67.3132 13.4201L78.3624 2.45597L70.391-5.47182L59.1464 5.85774C56.9284 8.06157 56.9426 11.4672 59.13 13.611ZM144.283 13.611C146.471 11.4672 146.485 8.06157 144.267 5.85774L133.006-5.47182L125.035 2.45597L136.1 13.4201C138.454 15.7299 141.946 15.9044 144.283 13.611ZM83.4805-27.4871L101.699-27.4871C104.508-27.4871 106.715-29.6933 106.715-32.5196L106.715-57.3764C106.715-60.1569 104.508-62.3607 101.699-62.3607C98.879-62.3607 96.6706-60.1569 96.6706-57.3764L96.6706-37.4874L83.4805-37.4874C80.6565-37.4874 78.4504-35.279 78.4504-32.5196C78.4504-29.6933 80.6565-27.4871 83.4805-27.4871Z" />
</svg>