<svg xmlns="http://www.w3.org/2000/svg" viewBox="11.5649 -84.4114 98.45 98.28">
  <path d="M12.5232-54.3076L14.5633-12.5947C14.7106-9.44426 17.2181-6.73167 20.4558-6.73167C23.6476-6.73167 26.2152-9.3134 26.3624-12.5075L28.0334-54.2662C28.3863-63.0103 33.0623-67.6699 41.7757-68.0227L83.5345-69.6959C86.7286-69.8432 89.3103-72.4108 89.3103-75.5862C89.3103-78.8238 86.5977-81.3291 83.4473-81.4928L41.7344-83.5351C23.4312-84.4114 11.5649-74.0361 12.5232-54.3076ZM109.059-16.2386L107.033-57.9515C106.869-61.102 104.364-63.8146 101.126-63.8146C97.9343-63.8146 95.3667-61.2328 95.2195-58.0388L93.5627-16.28C93.2098-7.53595 88.5338-2.87637 79.8062-2.5235L38.0474-0.850284C34.8533-0.70301 32.2693 1.86458 32.2693 5.03995C32.2693 8.27762 34.9842 10.7829 38.1346 10.9466L79.8475 12.9889C98.1671 13.8652 110.017 3.48985 109.059-16.2386Z"/>
</svg>