<svg xmlns="http://www.w3.org/2000/svg" viewBox="8.72266 -87.7433 104.98 104.97">
  <path d="M61.2053 17.222C90.1923 17.222 113.704-6.29008 113.704-35.2606C113.704-64.2312 90.1923-87.7433 61.2053-87.7433C32.2348-87.7433 8.72266-64.2312 8.72266-35.2606C8.72266-6.29008 32.2348 17.222 61.2053 17.222ZM39.3897-34.947C36.6824-34.947 34.4848-37.1423 34.4848-39.8519C34.4848-42.5592 36.6824-44.7131 39.3897-44.7131L40.6134-44.7109L45.3628-43.8488L35.933-52.4511C33.5983-54.57 33.6963-58.2583 35.9166-60.4916C38.1663-62.6978 41.8655-62.7414 43.943-60.4916L52.6217-51.029L51.7738-55.7513L51.7738-57.0677C51.7738-59.8187 53.9714-61.9726 56.6187-61.9726C59.3447-61.9726 61.54-59.8187 61.54-57.0677L61.54-41.5733C61.54-37.3141 59.2302-34.947 54.8701-34.947ZM65.792-8.5555C63.0824-8.5555 60.8871-10.7095 60.8871-13.4604L60.8871-28.9713C60.8871-33.214 63.1969-35.5811 67.557-35.5811L83.021-35.5811C85.7447-35.5811 87.9423-33.4022 87.9423-30.6762C87.9423-27.9689 85.7447-25.815 83.021-25.815L81.8137-25.8173L77.062-26.6793L86.4941-18.077C88.8288-16.0018 88.7308-12.2862 86.5082-10.0365C84.2608-7.83036 80.5452-7.74312 78.4677-10.0529L69.789-19.5014L70.6533-14.7768L70.6533-13.4604C70.6533-10.7095 68.4557-8.5555 65.792-8.5555Z"/>
</svg>