<svg xmlns="http://www.w3.org/2000/svg" viewBox="12.4609 -85.8769 84.34 102.99">
  <path d="M73.9823-72.2963L38.4826-72.2963C21.7582-72.2963 12.4609-63.1158 12.4609-46.7308L12.4609 8.83046C12.4609 13.487 15.6271 17.1166 20.3109 17.1166C24.9924 17.1166 28.1586 13.487 28.1586 8.83046L28.1586-46.7636C28.1586-53.0869 31.8307-56.5964 38.4826-56.5964L73.9823-56.5964C78.3335-56.5964 81.8322-60.0974 81.8322-64.4464C81.8322-68.7789 78.3335-72.2963 73.9823-72.2963ZM66.5308-79.9666L66.5308-49.4168C66.5308-44.8987 70.503-43.4793 74.5404-46.4586L93.5851-60.3915C96.8006-62.7398 96.7298-66.6107 93.5851-68.9341L74.5568-82.9083C70.5466-85.8769 66.5308-84.5883 66.5308-79.9666Z" />
</svg>