<svg xmlns="http://www.w3.org/2000/svg" viewBox="8.72266 -87.7433 104.98 104.97">
  <path d="M61.2053 17.222C90.1923 17.222 113.704-6.29008 113.704-35.2606C113.704-64.2312 90.1923-87.7433 61.2053-87.7433C32.2348-87.7433 8.72266-64.2312 8.72266-35.2606C8.72266-6.29008 32.2348 17.222 61.2053 17.222ZM86.9534-35.2771C86.9534-33.4272 86.3293-31.5851 84.6125-29.7811L68.8884-13.3803C67.7335-12.269 66.5622-11.6098 64.8268-11.6098C61.5655-11.6098 59.3135-14.443 59.3135-17.3553C59.3135-19.0743 60.0459-20.594 61.2172-21.7137L66.8137-26.9859L70.7694-29.1038L63.4289-28.4796L41.2703-28.4796C37.6663-28.4796 34.5929-31.5008 34.5929-35.2771C34.5929-39.0969 37.6663-42.0745 41.2703-42.0745L63.4289-42.0745L70.7671-41.4503L66.8137-43.566L61.2172-48.8381C60.0459-49.9579 59.3135-51.4611 59.3135-53.1801C59.3135-56.0902 61.5655-58.9421 64.8268-58.9421C66.5622-58.9421 67.7335-58.2828 68.8884-57.1715L84.6125-40.773C86.3293-38.969 86.9534-37.127 86.9534-35.2771Z"/>
</svg>