<svg xmlns="http://www.w3.org/2000/svg" viewBox="8.72266 -87.7433 104.98 104.97">
  <path d="M61.2053 17.222C90.1969 17.222 113.704-6.26912 113.704-35.2606C113.704-64.2522 90.1969-87.7433 61.2053-87.7433C32.2302-87.7433 8.72266-64.2522 8.72266-35.2606C8.72266-6.26912 32.2302 17.222 61.2053 17.222ZM61.2053 1.99116C40.6171 1.99116 23.9677-14.6724 23.9677-35.2606C23.9677-55.8489 40.6171-72.5124 61.2053-72.5124C81.7936-72.5124 98.4571-55.8489 98.4571-35.2606C98.4571-14.6724 81.7936 1.99116 61.2053 1.99116ZM41.8245-46.9548C37.334-46.9548 34.6979-44.2938 34.6979-39.8242L34.6979-30.424C34.6979-25.9272 37.334-23.337 41.8245-23.337L70.5377-23.337C75.0095-23.337 77.6619-25.9272 77.6619-30.424L77.6619-39.8242C77.6619-44.2938 75.0095-46.9548 70.5377-46.9548ZM59.2423-54.4737L59.2423-15.9111C59.2423-13.3136 61.2129-11.3504 63.815-11.3504C65.4683-11.3504 66.8061-11.9938 68.3654-13.4885L88.0764-31.7108C89.0586-32.6308 89.6001-34.0876 89.6001-35.217C89.6001-36.4501 89.1022-37.7597 88.0764-38.7396L68.3654-56.8964C66.626-58.4839 65.3975-59.0837 63.8455-59.0837C61.2129-59.0837 59.2423-57.0548 59.2423-54.4737Z" />
</svg>