<svg xmlns="http://www.w3.org/2000/svg" viewBox="8.72266 -87.7433 104.98 104.97">
  <path d="M61.2053 17.222C90.1923 17.222 113.704-6.29008 113.704-35.2606C113.704-64.2312 90.1923-87.7433 61.2053-87.7433C32.2348-87.7433 8.72266-64.2312 8.72266-35.2606C8.72266-6.29008 32.2348 17.222 61.2053 17.222ZM68.528-62.9974C70.2005-61.2813 70.132-58.744 68.5422-57.1542L47.494-36.106L46.2132-34.9038L47.4041-34.9367L53.9964-35.0567C55.1201-35.0567 56.1096-34.6166 56.8181-33.894C58.5093-32.2028 58.5365-29.756 56.8453-28.1271C56.0756-27.3987 55.0023-26.9247 53.9574-26.9247L36.5094-26.6455C34.0944-26.6455 32.1857-28.5355 32.2021-31.0083L32.4587-48.3798C32.5023-49.3834 32.9129-50.5649 33.7132-51.3488C35.3444-52.9776 37.7158-52.994 39.4092-51.3051C40.2237-50.5048 40.6343-49.5448 40.6179-48.4376L40.4978-41.8952L40.4463-40.7449L41.6462-41.9679L62.6966-62.9997C64.2864-64.5918 66.8533-64.6309 68.528-62.9974ZM53.8062-7.4366C52.1337-9.15272 52.2187-11.6737 53.8085-13.2635L74.8403-34.3117L76.107-35.5138L74.9794-35.4646L68.3706-35.3445C67.2798-35.3281 66.2739-35.801 65.5654-36.5237C63.8765-38.2148 63.8328-40.6616 65.5217-42.2905C66.3079-43.0353 67.3811-43.4765 68.4448-43.4765L85.8764-43.7721C88.2563-43.7721 90.1813-41.8657 90.1649-39.4094L89.9412-22.0378C89.8976-21.0014 89.4377-19.8364 88.6538-19.0689C87.0063-17.4236 84.6513-17.4236 82.9578-19.0961C82.1598-19.9292 81.7492-20.8564 81.7492-21.9637L81.8857-28.506L81.9208-29.7056L80.7209-28.4661L59.654-7.41792C58.0806-5.84226 55.4832-5.80318 53.8062-7.4366Z"/>
</svg>