<svg xmlns="http://www.w3.org/2000/svg" viewBox="11.6 -82.7845 132.15 95.18">
  <path d="M107.437-11.6815C107.437-7.52904 110.834-4.13166 114.987-4.13166C119.158-4.13166 122.537-7.52904 122.537-11.6815L122.537-64.5823C122.537-76.1868 115.923-82.7845 104.285-82.7845L71.2833-82.7845C66.6995-82.7845 63.4822-79.6764 63.4986-75.2182C63.515-70.7765 66.6995-67.6684 71.2833-67.6684L102.241-67.6684C105.677-67.6684 107.437-66.116 107.437-62.4563ZM128.184-24.8693L114.987-8.82218L101.773-24.8693L100.07-26.5536C96.8846-29.7205 92.4603-29.7352 89.3597-26.591C86.271-23.4751 86.2047-19.0497 89.3948-15.8948L106.719 1.413C111.936 6.63241 118.065 6.58879 123.255 1.413L140.562-15.8948C143.75-19.0497 143.684-23.4751 140.597-26.591C137.497-29.7329 133.075-29.7273 129.887-26.5536ZM47.9131-58.7107C47.9131-62.8631 44.5322-66.2605 40.3633-66.2605C36.2109-66.2605 32.8135-62.8631 32.8135-58.7107L32.8135-5.80979C32.8135 5.79468 39.4276 12.3923 51.0649 12.3923L84.0832 12.3923C88.6507 12.3923 91.8679 9.2843 91.8515 4.84252C91.8351 0.400743 88.6507-2.72369 84.0832-2.72369L53.1088-2.72369C49.6729-2.72369 47.9131-4.25976 47.9131-7.93579ZM27.1684-45.5229L40.3633-61.5699L53.577-45.5229L55.28-43.8221C58.4678-40.6694 62.8899-40.6547 65.9927-43.7847C69.0791-46.917 69.1454-51.3424 65.9576-54.4974L48.6334-71.8051C43.414-77.0223 37.2854-76.9787 32.0955-71.8051L14.7878-54.4974C11.6-51.3424 11.6662-46.917 14.7527-43.7847C17.8532-40.6569 22.2753-40.6648 25.4653-43.8221Z"/>
</svg>