<svg xmlns="http://www.w3.org/2000/svg" viewBox="12.4609 -82.8326 95.16 95.18">
  <path d="M30.7123 12.3442L89.37 12.3442C101.024 12.3442 107.621 5.74196 107.621-5.85796L107.621-64.6305C107.621-76.2304 101.024-82.8326 89.37-82.8326L30.7123-82.8326C19.075-82.8326 12.4609-76.235 12.4609-64.6305L12.4609-5.85796C12.4609 5.74651 19.075 12.3442 30.7123 12.3442ZM32.7562-2.77186C29.3203-2.77186 27.5605-4.32434 27.5605-7.98396L27.5605-62.5045C27.5605-66.1805 29.3203-67.7166 32.7562-67.7166L87.326-67.7166C90.7528-67.7166 92.5217-66.1805 92.5217-62.5045L92.5217-7.98396C92.5217-4.32434 90.7528-2.77186 87.326-2.77186ZM66.8974-9.07863C68.4685-10.6639 68.4413-12.9939 66.9115-14.5237L47.1072-34.2845L43.1185-38.2007C41.6674-39.679 39.1946-39.6954 37.7436-38.2007C36.2925-36.7332 36.3089-34.2769 37.7436-32.8235L41.674-28.8207L61.4228-9.07636C62.9503-7.54432 65.3263-7.54887 66.8974-9.07863ZM55.9402-41.7614C55.2141-42.4462 54.2009-42.8874 53.216-42.8874L36.8459-43.123C34.6404-43.1394 32.8354-41.3803 32.8518-39.0712L33.092-22.7798C33.1356-21.8198 33.5003-20.7443 34.2429-20.0018C35.7868-18.4601 38.0109-18.4601 39.5843-20.0454C40.3551-20.8021 40.747-21.6748 40.687-22.7057L40.4984-32.6285L40.2828-35.67L43.305-35.481L53.255-35.2737C54.3187-35.23 55.2187-35.6679 55.913-36.3928C57.5005-37.9803 57.4841-40.2362 55.9402-41.7614ZM53.0966-61.1963C51.5668-59.6688 51.5645-57.2928 53.0943-55.7631L72.8822-36.0023L76.8709-32.0532C78.3384-30.575 80.8135-30.5586 82.2623-32.0532C83.7297-33.5207 83.7133-35.9771 82.2623-37.4632L78.3483-41.4497L58.5853-61.2104C57.0578-62.7402 54.6699-62.7697 53.0966-61.1963ZM85.7794-50.285C84.2377-51.8266 82.0277-51.8266 80.4402-50.2578C79.7458-49.5283 79.2916-48.5847 79.2916-47.5975L79.5589-37.6311L79.6925-34.5839L76.69-34.7786L66.74-35.0295C65.7364-35.0459 64.88-34.6189 64.1256-33.9104C62.5404-32.3229 62.5404-30.0505 64.082-28.5253C64.8245-27.8428 65.84-27.4181 66.86-27.4181L83.1491-27.1202C85.4441-27.1202 87.2009-28.9688 87.2032-31.172L86.9217-47.4797C86.9217-48.502 86.5078-49.5566 85.7794-50.285Z" />
</svg>