<svg xmlns="http://www.w3.org/2000/svg" viewBox="12.4609 -90.5769 65.02 109.63">
  <path d="M29.6881-60.307L60.2356-60.307C64.7537-60.307 66.1731-64.2793 63.1961-68.3167L49.2632-87.3614C46.9126-90.5769 43.044-90.5061 40.7206-87.3614L26.7441-68.3331C23.7942-64.3229 25.0664-60.307 29.6881-60.307ZM70.8342 19.0059C75.1333 19.0059 77.4792 16.0165 77.4792 12.4289C77.4792 10.2165 76.2512 8.01042 74.0503 6.60526L70.5128 4.33378C62.9454-0.506796 51.6743-13.2535 51.6743-23.9896L51.6743-66.7034C51.6743-70.4122 48.6553-73.4333 44.963-73.4333C41.2848-73.4333 38.2659-70.4122 38.2659-66.7034L38.2659-23.9896C38.2659-7.892 53.2641 9.30191 63.2924 15.8662L65.6364 17.4014C67.3175 18.4667 69.1152 19.0059 70.8342 19.0059ZM19.1059 19.0496C20.8249 19.0496 22.6063 18.5103 24.2873 17.445L26.6313 15.9099C36.676 9.34554 51.6743-7.84837 51.6743-23.946L51.6743-66.6598C51.6743-70.3685 48.6553-73.3897 44.963-73.3897C41.2848-73.3897 38.2659-70.3685 38.2659-66.6598L38.2659-23.946C38.2659-13.2099 26.9947-0.463175 19.4274 4.3774L15.8734 6.64888C13.6889 8.05404 12.4609 10.2601 12.4609 12.4725C12.4609 16.0601 14.8068 19.0496 19.1059 19.0496Z" />
</svg>