<svg xmlns="http://www.w3.org/2000/svg" viewBox="12.4609 -82.5515 94.36 94.47">
  <path d="M12.4609-56.1887L27.6042-56.1887C27.816-59.9439 28.7494-62.6626 30.5567-64.4722C32.3652-66.2761 35.1852-67.2259 39.0385-67.4083L39.0385-82.5515C30.7802-82.4127 24.1765-79.8719 19.6803-75.3321C15.1808-70.8926 12.6292-64.3739 12.4609-56.1887ZM71.6434-67.4519L71.6434-82.5515L47.6194-82.5515L47.6194-67.4519ZM91.675-56.1887L106.818-56.1887C106.65-64.3739 104.101-70.8904 99.5825-75.3321C95.1112-79.847 88.499-82.4127 80.2407-82.5515L80.2407-67.4083C84.094-67.2259 86.8976-66.2926 88.7203-64.4722C90.5298-62.6626 91.4632-59.9439 91.675-56.1887ZM91.7187-22.8121L106.818-22.8121L106.818-47.5914L91.7187-47.5914ZM80.2407 11.918C88.499 11.7793 95.1135 9.21122 99.5825 4.69863C104.101 0.256883 106.592-6.15823 106.818-14.2125L91.6314-14.2125C91.4655-10.5881 90.5321-7.97316 88.7203-6.1613C86.8976-4.34092 84.094-3.40757 80.2407-3.22521ZM71.6434 11.918L71.6434-3.18159L47.6194-3.18159L47.6194 11.918ZM39.0385 11.918L39.0385-3.22521C35.1852-3.40757 32.3816-4.34092 30.5567-6.1613C28.7307-7.97316 27.8137-10.5881 27.6478-14.2125L12.4609-14.2125C12.6869-6.15823 15.1763 0.254609 19.6803 4.69863C24.1975 9.24298 30.7802 11.7793 39.0385 11.918ZM12.4609-22.8121L27.5605-22.8121L27.5605-47.5914L12.4609-47.5914ZM59.656-61.197C55.8939-61.197 52.9078-58.1214 52.9078-54.5689L52.9078-32.6541L53.6629-21.392C53.8702-18.0106 56.4036-15.4045 59.656-15.4045C62.9061-15.4045 65.4419-18.0106 65.6328-21.392L66.4042-32.6541L66.4042-54.5689C66.4042-58.1214 63.4431-61.197 59.656-61.197ZM59.656-9.32425C61.4872-9.32425 63.3315-9.95071 65.1191-11.6511L81.3536-27.2275C82.4649-28.3823 83.1077-29.5372 83.1077-31.2563C83.1077-34.5012 80.2722-36.7368 77.3786-36.7368C75.6924-36.7368 74.1892-36.0044 73.0694-34.8495L67.877-29.3186L64.3671-23.4963L54.9449-23.4963L51.4305-29.3186L46.2404-34.8495C45.1019-36.0044 43.5987-36.7368 41.9148-36.7368C39.0002-36.7368 36.1856-34.5012 36.1856-31.2563C36.1856-29.5372 36.8449-28.3823 37.9375-27.2275L54.1929-11.6511C55.9782-9.95071 57.8225-9.32425 59.656-9.32425Z" />
</svg>