<svg xmlns="http://www.w3.org/2000/svg" viewBox="12.4609 -79.3651 137.61 88.19">
  <path d="M63.0748-35.2606C63.0748-26.061 63.721-16.5687 66.4646-6.87948C69.8761 4.4904 76.2959 8.82745 89.7222 8.82745L92.6323 8.82745C123.572 8.82745 150.075-11.4101 150.075-35.2606C150.075-59.1112 123.572-79.3651 92.6323-79.3651L89.7222-79.3651C76.3559-79.3651 69.9361-75.0117 66.4646-63.6418C63.721-53.9526 63.0748-44.4603 63.0748-35.2606ZM76.873-35.2606C76.873-45.2847 77.683-52.4836 79.7509-59.737C81.0474-64.1798 83.3408-65.5561 89.7222-65.5561L92.6323-65.5561C115.619-65.5561 136.295-51.25 136.295-35.2606C136.295-19.2713 115.619-4.98163 92.6323-4.98163L89.7222-4.98163C83.3062-4.98163 81.0428-6.35289 79.7509-10.7843C77.683-18.0377 76.873-25.2366 76.873-35.2606ZM12.4609-63.9896C12.4609-60.7617 15.0709-58.2328 18.2613-58.2328L55.7781-58.2328C56.8185-63.3924 57.6687-66.6419 58.938-69.7877L18.2613-69.7877C15.0709-69.7877 12.4609-67.2214 12.4609-63.9896ZM12.4609-44.8203C12.4609-41.6089 15.0873-39.0199 18.2613-39.0199L53.9061-39.0035C53.9684-42.7694 54.2108-46.6814 54.6713-50.6184L18.2613-50.6184C15.0709-50.6184 12.4609-48.0085 12.4609-44.8203ZM12.4609-25.6301C12.4609-22.4419 15.0709-19.8484 18.2613-19.8484L54.6713-19.8484C54.2108-23.829 53.9848-27.6975 53.9061-31.4469L18.2613-31.4469C15.0709-31.4469 12.4609-28.8252 12.4609-25.6301ZM12.4609-6.46088C12.4609-3.27268 15.0709-0.679174 18.2613-0.679174L58.9816-0.662765C57.5979-4.0811 56.6164-8.20462 55.8217-12.2177L18.2613-12.2341C15.0709-12.2341 12.4609-9.65591 12.4609-6.46088ZM89.8166-17.2865C92.9784-17.2865 94.9319-19.038 95.765-22.7423L96.8308-26.3355L107.97-26.3355L109.017-22.7423C109.852-19.038 111.822-17.2865 114.97-17.2865C118.683-17.2865 120.883-19.3669 120.883-22.9552C120.883-23.8909 120.614-25.1971 120.031-26.9728L112.215-50.086C110.518-55.3686 107.27-57.8348 102.244-57.8348C97.3668-57.8348 94.2803-55.4122 92.5692-50.086L84.7675-26.9728C84.1682-25.1971 83.915-23.8909 83.915-22.9575C83.915-19.3647 86.0991-17.2865 89.8166-17.2865ZM98.9004-35.0039L102.151-47.2527L102.648-47.2527L105.884-35.0039Z"/>
</svg>