<svg xmlns="http://www.w3.org/2000/svg" viewBox="8.72266 -87.7433 104.98 104.97">
  <path d="M61.2053 17.222C90.1923 17.222 113.704-6.29008 113.704-35.2606C113.704-64.2312 90.1923-87.7433 61.2053-87.7433C32.2348-87.7433 8.72266-64.2312 8.72266-35.2606C8.72266-6.29008 32.2348 17.222 61.2053 17.222ZM35.1374-35.2147C35.1374-37.597 35.4263-39.8275 36.0703-42.0229C37.8199-41.5771 39.505-41.0459 41.1691-40.2467L40.8429-39.6203C40.2476-38.5617 40.6169-37.3229 41.6178-36.8477C42.5659-36.317 43.701-36.5226 44.3376-37.6226L44.6779-38.2632C45.288-37.8747 45.8958-37.3757 46.4554-36.9616L46.1931-36.7136C45.4392-35.9432 45.4625-34.6127 46.2554-33.8492C47.0977-33.0421 48.3222-33.0257 49.1458-33.8351L49.3797-34.0713C49.9534-33.4081 50.5629-32.6202 51.157-31.8901L50.7538-31.6721C49.7552-31.0909 49.4624-29.7344 50.0871-28.8605C50.5788-27.9809 51.7302-27.5549 52.7537-28.076L53.1451-28.3586C53.5218-27.5288 53.8752-26.7177 54.1369-25.9044L53.5184-25.7447C52.4349-25.3964 51.7915-24.3095 52.1234-23.2344C52.368-22.0636 53.5552-21.5324 54.543-21.823L55.2323-21.9827C55.3756-21.1093 55.4566-20.2982 55.5143-19.4435L54.8805-19.4503C53.7432-19.4548 52.8692-18.488 52.867-17.4175C52.8647-16.2326 53.8191-15.3672 54.8646-15.3626L55.4639-15.3558C55.3138-13.5756 54.9308-11.7846 54.4023-10.0418C43.3944-13.1598 35.1374-23.3249 35.1374-35.2147ZM61.2218-9.1163C60.1501-9.1163 59.1136-9.17861 58.0443-9.3219C58.6305-11.2494 59.0735-13.2969 59.2814-15.3303L60.2521-15.3235C61.3458-15.3189 62.2611-16.267 62.2634-17.3834C62.2657-18.4398 61.3549-19.4066 60.2799-19.4111L59.3505-19.4157C59.2927-20.6233 59.154-21.8059 58.9025-22.9263L59.7764-23.1919C60.8764-23.4366 61.4784-24.5835 61.1879-25.6903C60.8973-26.8197 59.7373-27.3605 58.7082-27.1159L57.9107-26.8338C57.5454-28.0414 57.0861-29.1759 56.5412-30.2776L57.4909-30.8207C58.5496-31.3746 58.7552-32.6569 58.2449-33.5473C57.6201-34.6309 56.3565-34.8857 55.4746-34.3318L54.5203-33.83C53.7743-34.8835 52.931-35.8855 52.0995-36.8534L52.9247-37.6809C53.7941-38.5361 53.6587-39.7335 52.9156-40.4557C52.0275-41.35 50.8216-41.2792 50.0853-40.6007L49.1588-39.7296C48.3641-40.3306 47.5094-41.0142 46.5923-41.571L47.0295-42.297C47.5897-43.3369 47.2759-44.5071 46.2382-45.005C45.2147-45.6393 43.9806-45.2592 43.4725-44.3337L43.0104-43.5709C41.2076-44.455 39.2824-45.0922 37.2949-45.5566C41.3271-54.7827 50.5695-61.3155 61.2053-61.3155C62.1982-61.3155 63.1911-61.2532 64.2004-61.1699C63.6578-59.1683 63.2149-57.1785 63.0234-55.1451L62.1455-55.1497C61.0541-55.1129 60.1637-54.2061 60.1614-53.0484C60.0719-52.0192 60.9368-51.0688 62.1013-51.0643L62.9707-51.0597C63.0284-49.9558 63.1508-48.8932 63.3314-47.8306L62.141-47.5486C61.0036-47.173 60.4389-46.0839 60.7295-45.0253C61.0201-44.0125 61.9869-43.2655 63.1491-43.6161L64.2904-43.8817C64.6393-42.7013 65.1751-41.436 65.7069-40.2579L64.7866-39.7584C63.8917-39.2373 63.6175-38.015 64.0927-37.0045C64.6574-36.0564 65.8939-35.6553 66.8466-36.2365L67.7386-36.7819C68.3996-35.7012 69.1501-34.8136 69.9979-33.8185L69.4401-33.2748C68.6721-32.5339 68.654-31.3071 69.5234-30.4564C70.2087-29.7483 71.4616-29.5892 72.2959-30.4422L72.8951-31.0459C73.837-30.2813 74.7846-29.5376 75.803-28.9645L75.3681-28.1807C74.7892-27.1385 75.1302-25.927 76.0393-25.3668C77.0356-24.7738 78.3298-25.1453 78.8486-26.1417L79.3413-26.9809C81.2314-26.1218 83.1589-25.4432 85.2523-25.0553C81.2037-15.6927 71.934-9.1163 61.2218-9.1163ZM87.3202-35.2147C87.3202-32.8784 87.05-30.6785 86.4332-28.5018C84.64-28.9147 82.8949-29.4459 81.1957-30.2123L81.5219-30.8115C82.1008-31.8242 81.7479-33.0137 80.7493-33.5654C79.7881-34.1583 78.533-33.8163 78.0413-32.7763L77.7174-32.2122C76.9873-32.6608 76.3218-33.2198 75.6421-33.7103L76.1717-34.2421C77.0456-35.1597 76.8338-36.4584 76.1258-37.0769C75.3685-37.8427 74.179-38.0064 73.2332-37.0746L72.805-36.6278C72.2205-37.3052 71.6818-37.9917 71.1205-38.7654L71.5073-38.9834C72.375-39.4773 72.7988-40.5501 72.2612-41.6914C71.7424-42.6831 70.4624-43.0842 69.5074-42.4594L69.1761-42.2533C68.7394-43.1844 68.3695-44.0578 68.0206-44.8712L68.4261-45.0309C69.5556-45.3214 70.0846-46.4746 69.7776-47.4483C69.5306-48.4797 68.5202-49.2103 67.3143-48.8761L67.0453-48.8365C66.9456-49.5876 66.8646-50.2973 66.7904-51.0319L67.5607-51.0251C68.6544-51.0206 69.5097-51.8815 69.512-53.0142C69.5306-54.1119 68.693-55.0646 67.5307-55.0692L66.7536-55.076C66.9615-56.9434 67.2867-58.7049 67.8752-60.4523C79.0304-57.5252 87.3202-47.2836 87.3202-35.2147Z"/>
</svg>