<svg xmlns="http://www.w3.org/2000/svg" viewBox="12.4609 -96.4162 104.11 122.21">
  <path d="M72.6205 25.7965C92.2882 25.7529 104.443 18.4043 104.443 5.7634L104.443-17.2054C112.095-24.3692 116.574-35.5852 116.574-47.6739C116.574-76.9178 97.5122-96.4162 69.1337-96.4162C40.8243-96.4162 21.8844-77.2894 21.8844-48.7285C21.8844-47.4445 21.9008-46.2811 21.9841-45.1777L14.9077-32.5861C13.3241-29.7304 12.4609-26.8011 12.4609-24.0756C12.4609-19.2828 15.4408-15.1975 21.8453-14.1583L21.8453-8.74816C21.8453 2.05423 28.5982 8.05377 39.2757 7.78035L41.3912 7.63365L41.4184 8.00574C42.5806 19.3349 54.38 25.7965 72.6205 25.7965ZM50.6848-41.6175C43.8946-41.6175 38.8463-47.2071 38.8463-54.6194C38.8463-57.9902 39.824-61.1102 41.5647-63.6364C43.2373-61.4955 45.9231-60.3084 49.2036-60.3084C50.8852-60.3084 52.2349-61.6558 52.2349-63.3022C52.2349-64.9425 50.9016-66.3194 49.2036-66.3194C47.0721-66.3194 45.7694-67.9335 45.7694-69.9822C45.7694-73.436 49.2236-77.2859 55.5176-77.2859C56.1667-77.2859 56.6957-77.265 57.338-77.1936C57.0536-76.1933 56.796-75.0344 56.775-73.7731C56.7563-71.9256 58.0109-70.5946 59.7298-70.5946C61.4737-70.5946 62.6824-71.8032 62.6824-73.5612C62.6938-77.2673 65.8896-80.0031 70.128-80.0031C72.7812-80.0031 75.2212-78.766 77.2919-76.6912C77.7825-76.779 78.3059-76.7999 79.2674-76.7999C84.9479-76.8872 89.895-72.2099 89.895-66.6105C89.895-54.7278 70.5872-54.3384 70.5872-39.5086C70.5872-38.8487 70.6291-38.2511 70.7566-37.5957C69.4709-37.436 68.5568-37.3987 67.8823-37.3987C65.1368-37.3987 62.521-37.9221 60.2643-38.9599C62.8033-41.0266 64.3852-43.9768 64.6033-47.4888C64.6033-48.1938 64.6141-48.8115 64.5134-49.4377C69.2811-50.9914 71.6723-54.5416 71.6701-59.7965C71.6701-61.503 70.2059-62.8527 68.5408-62.8527C66.9215-62.8527 65.6341-61.5194 65.6341-59.7942C65.6341-57.3792 64.825-55.7815 62.72-55.1C62.3433-55.6994 61.9274-56.294 61.3715-56.6912C60.5536-57.3901 59.6496-57.6597 58.8907-57.6597C57.2855-57.6597 55.9687-56.4193 55.9687-54.8873C55.9687-54.087 56.317-53.1587 57.2288-52.3528C58.1402-51.4414 58.7724-50.0956 58.7724-48.7431C58.7724-44.608 55.4227-41.6175 50.6848-41.6175ZM88.484-27.9514C84.7916-27.9514 81.7546-30.9426 80.7651-35.3L80.4015-35.3C77.6724-35.3 76.1124-37.1987 76.1124-39.7737C76.1124-49.0588 93.2905-51.5987 95.6111-64.9061C98.5962-62.6882 100.386-59.6234 100.386-55.6392C100.386-51.3334 97.264-48.3364 92.4411-48.7731C90.7969-48.9368 89.3741-47.5248 89.3741-45.8205C89.3741-44.2177 90.6145-42.9421 92.2938-42.8657C94.3967-42.6856 96.3236-42.9331 97.9802-43.4009C97.9825-42.9824 97.9825-42.5264 97.9825-42.1078C97.9825-33.5632 93.99-27.9514 88.484-27.9514Z"/>
</svg>