<svg xmlns="http://www.w3.org/2000/svg" viewBox="8.72266 -87.7433 104.98 104.97">
  <path d="M39.7668 4.57164L61.7736-8.14348C66.0574-10.5873 70.2444-13.1133 74.4368-15.6627L74.4368 3.29589L84.764 3.29589L84.764-34.3446C84.764-35.3337 84.693-36.3007 84.5692-37.237L101.304-27.5787L106.475-36.6638L84.1588-49.5522C80.242-51.8249 76.2884-54.0222 72.3234-56.2035L71.5247-56.6214L87.8507-66.056L82.6625-75.1388L60.6625-62.456C56.471-60.0377 52.2031-57.4907 48.094-54.9623L48.094-73.909L37.7503-73.909L37.6608-36.2639C37.6608-35.2771 37.7318-34.3101 37.8578-33.3761L21.1071-43.0344L15.908-33.9929L38.2405-21.1067C41.638-19.1342 45.091-17.2139 48.5157-15.3492L50.946-13.9871L34.5786-4.50891ZM61.2053-22.1056C53.951-22.1056 48.0503-27.9899 48.0503-35.2606C48.0503-42.5314 53.951-48.4156 61.2053-48.4156C68.4761-48.4156 74.3768-42.5314 74.3768-35.2606C74.3768-27.9899 68.4761-22.1056 61.2053-22.1056ZM61.2053 17.222C90.1969 17.222 113.704-6.26912 113.704-35.2606C113.704-64.2522 90.1969-87.7433 61.2053-87.7433C32.2302-87.7433 8.72266-64.2522 8.72266-35.2606C8.72266-6.26912 32.2302 17.222 61.2053 17.222ZM61.2053 1.99116C40.6171 1.99116 23.9677-14.6724 23.9677-35.2606C23.9677-55.8489 40.6171-72.5124 61.2053-72.5124C81.7936-72.5124 98.4571-55.8489 98.4571-35.2606C98.4571-14.6724 81.7936 1.99116 61.2053 1.99116Z"/>
</svg>