<svg xmlns="http://www.w3.org/2000/svg" viewBox="10.5573 -99.5607 85.31 128.6">
  <path d="M27.9788-58.5427C27.9788-56.3926 29.7268-54.6742 31.9391-54.6742L34.6987-54.6742C36.8464-54.6742 38.5649-56.3926 38.5649-58.5427L38.5649-60.4025L73.4788-60.4025L73.4788-58.5427C73.4788-56.3926 75.1973-54.6742 77.366-54.6742L80.1091-54.6742C82.3192-54.6742 84.0836-56.3926 84.0836-58.5427L84.0836-73.7068C84.0836-78.0694 83.6887-80.8147 81.1729-83.577L79.0591-85.8772L76.7588-92.1106C74.9401-96.971 71.9642-98.7609 68.3222-99.1161C66.492-99.4361 62.1007-99.5607 55.9978-99.5607C49.9453-99.5607 45.4832-99.4361 43.738-99.1161C40.0818-98.7609 37.0601-96.971 35.2577-92.1106L32.9411-85.8772L30.8731-83.577C28.3386-80.7983 27.9788-78.0694 27.9788-73.7068ZM42.3956-85.5734C41.2458-85.5734 40.8539-86.2536 41.2339-87.4658L42.0648-90.0443C42.569-91.656 43.2165-92.261 45.5118-92.5068C47.5316-92.6915 50.9937-92.8161 55.9978-92.8161C61.2164-92.8161 64.6185-92.6915 66.5506-92.5068C68.778-92.2445 69.5161-91.6702 69.9931-90.0443L70.7826-87.4635C71.1145-86.2536 70.7543-85.5734 69.6068-85.5734ZM39.1253-70.6801C37.5859-70.6801 36.5545-71.6078 36.5545-73.1722L36.5545-76.484C36.5545-78.0625 37.5859-78.9466 39.1253-78.9466C40.7169-78.9466 41.6174-78.0189 41.6174-76.484L41.6174-73.1722C41.6174-71.6078 40.6733-70.6801 39.1253-70.6801ZM51.2179-71.7279C49.8427-71.7279 49.1829-72.3651 49.1829-73.819L49.1829-75.8264C49.1829-77.2016 49.8591-77.8637 51.2179-77.8637L60.7086-77.8637C62.0883-77.8637 62.7209-77.2016 62.7209-75.8264L62.7209-73.819C62.7209-72.3651 62.1047-71.7279 60.7086-71.7279ZM73.1291-70.6801C71.5834-70.6801 70.591-71.6514 70.591-73.1722L70.591-76.484C70.591-78.0166 71.5834-78.9466 73.1291-78.9466C74.6543-78.9466 75.6857-78.0625 75.6857-76.484L75.6857-73.1722C75.6857-71.5642 74.6543-70.6801 73.1291-70.6801ZM46.6297-47.727L43.9665-49.7084C42.8586-50.5387 41.6358-50.8457 40.2974-50.8457L32.0021-50.8457C29.9779-50.8457 29.1839-48.4578 30.7765-47.3296L36.1346-43.4446C37.5053-42.4618 37.4244-41.5419 35.8022-40.8565L18.3039-33.4004C11.1803-30.3571 10.5573-25.6463 16.4812-21.1774L19.1161-19.1865C20.2144-18.3539 21.4445-17.9987 22.8639-17.9987L31.1569-17.9987C33.1834-17.9987 33.8846-20.403 32.3061-21.5653L26.9916-25.4316C25.635-26.4416 25.7018-27.3812 27.3218-28.0525L44.7928-35.4922C51.9141-38.5191 52.5818-43.2796 46.6297-47.727ZM85.4188-47.7179L82.7533-49.6783C81.6387-50.5132 80.4226-50.8366 79.1233-50.8366L70.7703-50.8366C68.8038-50.8366 67.9849-48.451 69.5611-47.3041L74.9356-43.4355C76.2922-42.4527 76.1817-41.5164 74.6218-40.8474L57.153-33.3748C49.9694-30.3021 49.3713-25.584 55.2539-21.1683L57.9171-19.1774C59.0131-18.3284 60.2914-17.9732 61.6071-17.9732L69.9437-17.9732C71.9493-17.9732 72.6855-20.4211 71.1093-21.5562L65.7348-25.4225C64.3782-26.3888 64.4864-27.3512 66.0673-28.0411L83.6233-35.4831C90.7032-38.5123 91.3687-43.2773 85.4188-47.7179ZM28.4357 29.0344C38.6522 29.0344 43.5573 21.5417 43.5573 11.3201C43.5573 1.24359 38.8879-6.47521 28.4357-6.47521C18.3659-6.47521 13.2575 1.02719 13.2575 11.3201C13.2575 21.1458 17.9576 29.0344 28.4357 29.0344ZM28.4357 20.7251C24.4826 20.7251 23.599 14.8823 23.599 11.3201C23.599 7.38857 24.58 1.89861 28.4357 1.89861C32.4426 1.89861 33.3053 7.43609 33.3053 11.3201C33.3053 15.0426 32.4506 20.7251 28.4357 20.7251ZM52.6817 28.6815C56.288 28.6815 57.7901 26.3173 57.7901 23.4235L57.7901 16.3685L64.7413 16.3685C67.2901 16.3685 68.9288 14.8227 68.9288 12.3776C68.9288 9.93012 67.3065 8.43025 64.7413 8.43025L57.7901 8.43025L57.7901 2.74935L65.5099 2.74935C68.2847 2.74935 69.9942 1.18945 69.9942-1.4194C69.9942-3.98691 68.2847-5.57629 65.5099-5.57629L52.6653-5.57629C50.0581-5.57629 47.6582-4.07935 47.6582-0.287752L47.6582 23.4235C47.6582 26.5768 49.3762 28.6815 52.6817 28.6815ZM78.5533 28.6815C82.176 28.6815 83.6181 26.3173 83.6181 23.4235L83.6181 16.3685L90.5857 16.3685C93.1345 16.3685 94.7567 14.8227 94.7567 12.3776C94.7567 9.93012 93.1509 8.43025 90.5857 8.43025L83.6181 8.43025L83.6181 2.74935L91.3543 2.74935C94.1728 2.74935 95.8658 1.18945 95.8658-1.4194C95.8658-3.98691 94.1728-5.57629 91.3543-5.57629L78.5369-5.57629C75.8861-5.57629 73.4862-4.07935 73.4862-0.287752L73.4862 23.4235C73.4862 26.5768 75.2206 28.6815 78.5533 28.6815Z"/>
</svg>