<svg xmlns="http://www.w3.org/2000/svg" viewBox="12.4609 -101.266 114.29 132.01">
  <path d="M99.9676-27.1429C114.633-27.1429 121.36-31.1039 121.36-40.1023L121.36-86.5483C121.36-96.1103 113.723-101.266 99.9676-101.266C86.1683-101.266 78.5685-96.154 78.5685-86.5483L78.5685-40.1023C78.5685-31.1039 85.3162-27.1429 99.9676-27.1429ZM99.9676-35.3017C90.578-35.3017 86.725-36.817 86.725-40.3861L86.725-86.3302C86.725-90.75 91.1243-93.0955 99.9676-93.0955C108.813-93.0955 113.187-90.75 113.187-86.3302L113.187-40.3861C113.187-36.817 109.401-35.3017 99.9676-35.3017ZM99.9653-68.8485C102.653-68.8485 106.312-68.5534 107.18-68.5534C109.492-68.5534 110.512-69.5338 110.702-71.8442L111.179-77.0561C111.569-81.2866 108.396-82.9174 99.9653-82.9174C91.5347-82.9174 88.4236-81.2866 88.7975-77.0561L89.2477-71.8442C89.4369-69.5338 90.4865-68.5534 92.7527-68.5534C93.6045-68.5534 97.3095-68.8485 99.9653-68.8485ZM99.9653-40.3299C108.724-40.3299 111.67-41.8252 111.064-46.1803L110.738-48.6498C110.255-52.183 107.268-53.3091 99.9653-53.3091C92.6672-53.3091 89.8039-52.183 89.2546-48.6498L88.8711-46.1803C88.183-41.8229 91.1946-40.3299 99.9653-40.3299ZM118.641-70.2571L122.966-70.2571C125.203-70.2571 126.752-72.0197 126.752-74.4909L126.752-74.9569C126.752-77.4718 125.203-79.1976 122.966-79.1976L118.641-79.1976ZM81.2874-70.039L81.2874-78.9795L76.9481-78.9795C74.7295-78.9795 73.1782-77.256 73.1782-74.7388L73.1782-74.2292C73.1782-71.7579 74.7295-70.039 76.9481-70.039ZM69.4792-21.4194C73.121-17.794 77.7273-15.7635 82.0125-15.2836C84.9228-14.9783 87.18-17.0196 87.1754-19.9338C87.1754-22.2845 85.4745-23.7933 82.3084-24.3421C79.9618-24.7895 77.7845-25.8362 75.8609-27.741C73.9288-29.7496 72.8821-31.8997 72.4455-34.3634C71.8508-37.4429 70.4592-39.0414 67.9959-39.0391C65.0795-39.0437 62.9889-36.7973 63.374-33.7886C64.0179-29.0954 66.0508-24.8042 69.4792-21.4194ZM58.987-10.9544C64.89-5.04681 72.3774-1.64344 80.3501-1.25084C83.4178-1.11998 85.437-3.15907 85.437-5.99391C85.437-8.38011 83.5027-10.1105 80.3422-10.4379C74.7976-10.9017 69.6389-13.1118 65.3936-17.3338C61.1716-21.5745 58.8012-26.7214 58.4954-32.2824C58.2117-35.5086 56.5187-37.303 53.9881-37.303C51.2681-37.303 49.1634-35.3862 49.2999-32.2903C49.8401-24.2989 53.1276-16.8115 58.987-10.9544ZM60.6285 30.7449L60.6285 5.98034C60.6285-3.5653 53.0061-8.72116 39.2691-8.72116C25.4675-8.72116 17.8512-3.60892 17.8512 5.98034L17.8512 30.7449L26.0265 30.7449L26.0265 6.19844C26.0265 1.76224 30.407-0.566906 39.2691-0.566906C48.096-0.566906 52.4697 1.76224 52.4697 6.19844L52.4697 30.7449ZM39.2668 23.6801C41.9358 23.6801 45.6112 23.9588 46.463 23.9588C48.7587 23.9588 49.7788 22.9784 49.968 20.6844L50.4455 15.4538C50.8029 11.2397 47.681 9.59481 39.2668 9.59481C30.8198 9.59481 27.7064 11.2397 28.0802 15.4538L28.5305 20.6844C28.7197 22.9784 29.7693 23.9588 32.0355 23.9588C32.9037 23.9588 36.6109 23.6801 39.2668 23.6801ZM57.8932 22.2551L62.2184 22.2551C64.4721 22.2551 66.0024 20.4926 66.0024 18.0377L66.0024 17.5694C66.0024 15.024 64.4721 13.3311 62.2184 13.3311L57.8932 13.3311ZM20.5889 22.4732L20.5889 13.5492L16.2495 13.5492C14.0145 13.5492 12.4609 15.2399 12.4609 17.7875L12.4609 18.2994C12.4609 20.7543 14.0145 22.4732 16.2495 22.4732Z"/>
</svg>