<svg xmlns="http://www.w3.org/2000/svg" viewBox="12.4609 -103.418 69.22 136.62">
  <path d="M47.057 33.2025C66.0061 33.2025 74.7221 28.091 74.7221 16.4901L74.7221-43.5008C74.7221-55.8999 64.8942-62.5103 47.057-62.5103C29.2962-62.5103 19.4202-55.8563 19.4202-43.5008L19.4202 16.4901C19.4202 28.091 28.1679 33.2025 47.057 33.2025ZM47.057 22.7652C34.8943 22.7652 29.948 20.7497 29.948 16.1486L29.948-43.2391C29.948-48.9651 35.6676-52.0011 47.057-52.0011C58.5205-52.0011 64.192-48.9651 64.192-43.2391L64.192 16.1486C64.192 20.7497 59.2503 22.7652 47.057 22.7652ZM22.9324-22.4921L22.9324-34.0074L17.3522-34.0074C14.437-34.0074 12.4609-31.7928 12.4609-28.5399L12.4609-27.9137C12.4609-24.7208 14.437-22.4921 17.3522-22.4921ZM71.1912-22.1868L76.7736-22.1868C79.7075-22.1868 81.6791-24.4155 81.6791-27.6083L81.6791-28.2346C81.6791-31.4874 79.7075-33.702 76.7736-33.702L71.1912-33.702ZM47.0547-20.6484C50.5547-20.6484 55.2921-20.291 56.4055-20.291C59.3361-20.291 60.6491-21.5348 60.9006-24.4932L61.519-31.2287C62.0152-36.7171 57.9418-38.7982 47.0547-38.7982C36.184-38.7982 32.1293-36.7171 32.6255-31.2287L33.2417-24.4932C33.4932-21.5348 34.8084-20.291 37.739-20.291C38.8525-20.291 43.624-20.6484 47.0547-20.6484ZM47.0547 16.1862C58.3743 16.1862 62.1873 14.2735 61.3995 8.64402L60.9351 5.47046C60.2696 0.889401 56.4911-0.548154 47.0547-0.548154C37.6535-0.548154 33.8726 0.889401 33.2095 5.47046L32.7451 8.64402C31.9573 14.2735 35.7703 16.1862 47.0547 16.1862ZM47.1006-92.423C54.8757-92.423 61.8612-89.7648 67.2817-84.9644C70.3022-82.3935 73.4536-82.2888 75.483-84.3572C77.9978-86.7848 78.0131-90.3367 75.2865-92.9075C67.6501-99.8 57.8084-103.418 47.1006-103.418C36.4092-103.418 26.5698-99.7564 18.9334-92.8639C16.1609-90.3367 16.2199-86.7848 18.6933-84.3572C20.7204-82.2888 23.8741-82.4372 26.936-84.9644C32.4437-89.634 39.3006-92.423 47.1006-92.423ZM47.1006-73.2969C50.7274-73.2969 53.7622-72.2167 56.332-70.475C59.6691-68.1341 62.3679-68.0434 64.4007-70.049C66.9263-72.5559 66.7213-76.2353 63.9707-78.4788C59.6384-81.9659 53.6247-84.2924 47.1006-84.2924C40.5516-84.2924 34.5356-81.9659 30.2492-78.4788C27.4964-76.2353 27.2477-72.5559 29.8192-70.049C31.8084-68.0434 34.5485-68.1777 37.8857-70.475C40.4554-72.2167 43.4925-73.2969 47.1006-73.2969Z"/>
</svg>