<svg xmlns="http://www.w3.org/2000/svg" viewBox="8.78617 -90.7713 125.07 111.07">
  <path d="M44.0043-43.8136C47.5103-43.8136 49.7272-45.9761 49.7272-49.5205L49.7272-80.4449C49.7272-84.1871 47.1958-86.4181 43.1313-86.4181C40.3588-86.4181 38.8828-85.6693 36.1437-83.8037L29.221-79.256C27.6906-78.2189 26.8438-76.9473 26.8438-75.2673C26.8438-72.8963 28.6296-71.2085 31.0692-71.2085C31.9295-71.2085 32.697-71.3744 33.5963-72.0704L37.9285-74.8466L38.1539-74.8466L38.1539-49.5205C38.1539-45.9925 40.4144-43.8136 44.0043-43.8136ZM13.4527-2.81337C18.3317 14.9049 23.2682 20.2937 34.6427 20.2937L95.4137 20.2937C103.885 20.2937 109.473 15.7091 111.59 7.17335L130.893-70.7942C133.853-82.7378 128.002-90.7713 118.22-90.7713C104.879-90.7713 95.6205-75.8514 100.024-59.5083L102.98-68.2987C86.7165-59.2996 80.3608-41.2449 85.3596-19.0475L86.5227-24.1952C75.971-26.151 63.0277-27.2758 49.9-27.2758C20.5638-27.2758 8.78617-19.4055 13.4527-2.81337Z"/>
</svg>