<svg xmlns="http://www.w3.org/2000/svg" viewBox="10.2538 -90.7713 125.07 111.07">
  <path d="M82.9219-31.1701C82.9219-24.0787 77.1321-20.5273 77.1321-16.8955C77.1321-14.6287 77.6889-13.6285 79.2193-11.4937C82.4585-7.1636 76.2706-2.7072 73.0127-6.86678C70.5693-9.95594 69.4484-12.9573 69.4484-16.4917C69.4484-23.8459 75.1181-26.822 75.1181-31.1701C75.1181-35.5437 69.4484-38.4943 69.4484-45.874C69.4484-49.3993 70.5693-52.4006 73.0173-55.4966C76.2797-59.663 82.4676-55.2044 79.2261-50.8743C77.6889-48.7281 77.1321-47.7279 77.1321-45.4702C77.1321-41.8128 82.9219-38.2546 82.9219-31.1701ZM98.8541-31.1701C98.8541-24.0787 93.0643-20.5273 93.0643-16.8955C93.0643-14.6287 93.6047-13.6285 95.1351-11.4937C98.393-7.1636 92.1864-2.7072 88.945-6.86678C86.5038-9.95594 85.3665-12.9573 85.3665-16.4917C85.3665-23.8459 91.0362-26.822 91.0362-31.1701C91.0362-35.5437 85.3665-38.4943 85.3665-45.874C85.3665-49.3993 86.5038-52.4006 88.9518-55.4966C92.212-59.663 98.3998-55.2044 95.1442-50.8743C93.6047-48.7281 93.0643-47.7279 93.0643-45.4702C93.0643-41.8128 98.8541-38.2546 98.8541-31.1701ZM114.789-31.1701C114.789-24.0787 108.999-20.5273 108.999-16.8955C108.999-14.6287 109.539-13.6285 111.07-11.4937C114.309-7.1636 108.119-2.7072 104.863-6.86678C102.436-9.95594 101.299-12.9573 101.299-16.4917C101.299-23.8459 106.968-26.822 106.968-31.1701C106.968-35.5437 101.299-38.4943 101.299-45.874C101.299-49.3993 102.436-52.4006 104.868-55.4966C108.128-59.663 114.316-55.2044 111.076-50.8743C109.539-48.7281 108.999-47.7279 108.999-45.4702C108.999-41.8128 114.789-38.2546 114.789-31.1701ZM130.656-2.81337C135.321-19.4055 123.543-27.2758 94.2067-27.2758C81.079-27.2758 68.138-26.151 57.5863-24.1952L58.7471-19.0475C63.7482-41.2449 57.3925-59.2996 41.1288-68.2987L44.0991-59.5083C48.4884-75.8514 39.2279-90.7713 25.8865-90.7713C16.1231-90.7713 10.2538-82.7378 13.2159-70.7942L32.5192 7.17335C34.6364 15.7091 40.2241 20.2937 48.693 20.2937L109.466 20.2937C120.841 20.2937 125.775 14.9049 130.656-2.81337Z"/>
</svg>