<svg xmlns="http://www.w3.org/2000/svg" viewBox="8.72266 -87.7433 104.98 104.97">
  <path d="M61.2053 17.222C90.1969 17.222 113.704-6.26912 113.704-35.2606C113.704-64.2522 90.1969-87.7433 61.2053-87.7433C32.2302-87.7433 8.72266-64.2522 8.72266-35.2606C8.72266-6.26912 32.2302 17.222 61.2053 17.222ZM61.2053 1.99116C40.6171 1.99116 23.9677-14.6724 23.9677-35.2606C23.9677-55.8489 40.6171-72.5124 61.2053-72.5124C81.7936-72.5124 98.4571-55.8489 98.4571-35.2606C98.4571-14.6724 81.7936 1.99116 61.2053 1.99116ZM36.6904-18.2504L40.2934-18.2504C42.4425-18.2504 43.9537-19.6471 43.9537-21.7231L43.9537-29.2266C43.9537-31.2612 42.4425-32.7266 40.2934-32.7266L36.6904-32.7266C34.5-32.7266 33.0465-31.2612 33.0465-29.2266L33.0465-21.7231C33.0465-19.6471 34.5-18.2504 36.6904-18.2504ZM51.4311-18.2504L55.0364-18.2504C57.2268-18.2504 58.6803-19.6471 58.6803-21.7231L58.6803-35.1167C58.6803-37.2091 57.2268-38.573 55.0364-38.573L51.4311-38.573C49.2657-38.573 47.7708-37.2091 47.7708-35.1167L47.7708-21.7231C47.7708-19.6471 49.2657-18.2504 51.4311-18.2504ZM66.1968-18.2504L69.7748-18.2504C71.9675-18.2504 73.4187-19.6471 73.4187-21.7231L73.4187-42.5045C73.4187-44.6155 71.9675-45.9959 69.7748-45.9959L66.1968-45.9959C63.9463-45.9959 62.5093-44.6155 62.5093-42.5045L62.5093-21.7231C62.5093-19.6471 63.9463-18.2504 66.1968-18.2504ZM80.8939-18.2504L84.4991-18.2504C86.7059-18.2504 88.143-19.6471 88.143-21.7231L88.143-50.5781C88.143-52.6705 86.7059-54.0945 84.4991-54.0945L80.8939-54.0945C78.7471-54.0945 77.2358-52.6705 77.2358-50.5781L77.2358-21.7231C77.2358-19.6471 78.7471-18.2504 80.8939-18.2504Z" />
</svg>