<svg xmlns="http://www.w3.org/2000/svg" viewBox="-0.817601 -87.7433 114.52 104.97">
  <path d="M4.29109-46.3583C0.192843-46.3583-0.817601-42.5605 1.39297-39.714L14.0608-23.2135C15.5531-21.2194 18.2899-21.2194 19.8094-23.2135L32.4336-39.7281C34.5842-42.5605 33.6173-46.3583 29.5791-46.3583ZM113.704-35.2606C113.704-64.2522 90.1532-87.7433 61.2053-87.7433C32.2302-87.7433 8.73907-64.2686 8.72266-35.1547C8.73907-30.9649 12.1529-27.5557 16.3381-27.5557C20.5375-27.5557 23.9677-30.9813 23.9677-35.1711C23.9677-55.8489 40.6171-72.5124 61.2053-72.5124C81.7936-72.5124 98.4571-55.8489 98.4571-35.2606C98.4571-14.6724 81.7936 1.99116 61.2053 1.99116C50.6284 1.99116 41.6436-2.2534 34.5398-9.52837C31.0568-12.7297 26.5311-13.7894 23.0658-10.5675C19.9704-7.70869 19.6959-2.90217 23.5334 0.947177C33.3843 11.4891 47.2755 17.222 61.2053 17.222C90.1532 17.222 113.704-6.26912 113.704-35.2606ZM61.2512-18.4114C65.9365-18.4114 70.5136-19.7514 73.4522-23.0497C74.765-24.4628 75.7715-26.3246 75.7715-28.1863C75.7715-30.7715 73.8043-32.1359 71.2843-32.1359C69.1597-32.1359 68.0563-31.0287 67.1143-29.5338C65.8027-27.2706 63.9438-26.1072 61.3549-26.1072C56.2354-26.1072 54.5941-30.3167 54.5941-35.49C54.5941-40.6633 56.2659-44.7526 61.3362-44.7526C63.9233-44.7526 65.827-43.5711 67.0543-41.3402C68.0813-39.6761 69.2157-38.7676 71.222-38.7676C73.6989-38.7676 75.7092-40.1553 75.7092-42.7336C75.7092-44.3001 74.7039-46.2758 73.2862-47.8243C70.4417-50.8727 65.9043-52.4485 61.1889-52.4485C50.3399-52.4485 44.5141-45.4834 44.5141-35.49C44.5141-24.6374 51.1476-18.4114 61.2512-18.4114ZM61.2365-13.5949C61.9699-13.5949 62.5917-14.2003 62.5917-14.9314L62.5917-55.9885C62.5917-56.7054 61.9699-57.3272 61.2365-57.3272C60.5196-57.3272 59.8978-56.7054 59.8978-55.9885L59.8978-14.9314C59.8978-14.2003 60.5196-13.5949 61.2365-13.5949Z" />
</svg>