<svg xmlns="http://www.w3.org/2000/svg" viewBox="8.72266 -87.681 104.98 104.97">
  <path d="M61.2053 17.2843C90.1923 17.2843 113.704-6.22777 113.704-35.1983C113.704-64.1689 90.1923-87.681 61.2053-87.681C32.2348-87.681 8.72266-64.1689 8.72266-35.1983C8.72266-6.22777 32.2348 17.2843 61.2053 17.2843ZM39.7968-12.2901C36.5899-12.2901 34.4387-14.4413 34.4387-17.7106L34.4387-55.1322C34.4387-57.5196 36.2324-59.3275 38.574-59.3275C40.8905-59.3275 42.6407-57.476 42.6407-55.1322L42.6407-42.9139L69.5393-42.9139L69.5393-46.4602C69.5393-48.9059 72.1442-50.2517 74.4086-48.9348L86.3621-42.0129C88.4573-40.8076 88.4137-37.694 86.3457-36.5137L74.4273-29.534C72.1334-28.1877 69.5393-29.5403 69.5393-32.0437L69.5393-35.5158L42.6407-35.5158L42.6407-21.0693C42.6407-20.7345 42.8417-20.5335 43.1765-20.5335L83.3357-20.5335C85.6795-20.5335 87.471-18.7397 87.471-16.3959C87.471-14.0816 85.6772-12.2901 83.3357-12.2901Z"/>
</svg>