<svg xmlns="http://www.w3.org/2000/svg" viewBox="12.4609 -100.818 150.56 131.18">
  <path d="M19.5905 30.3611C23.4592 30.3611 26.6929 27.193 26.6929 23.2807L26.6929-93.7975C26.6929-97.6497 23.4592-100.818 19.5905-100.818C15.6946-100.818 12.4609-97.6497 12.4609-93.7975L12.4609 23.2807C12.4609 27.193 15.6946 30.3611 19.5905 30.3611ZM48.1427 17.285L67.0765 17.285C75.5161 17.285 80.88 11.8446 80.88 3.28493L80.88-73.7581C80.88-82.3177 75.5161-87.7417 67.0765-87.7417L48.1427-87.7417C39.6736-87.7417 34.2955-82.3177 34.2955-73.7581L34.2955 3.28493C34.2955 11.8446 39.6736 17.285 48.1427 17.285ZM51.3756 2.98736C49.6239 2.98736 48.5931 1.95654 48.5931 0.237677L48.5931-70.7544C48.5931-72.4297 49.6239-73.4605 51.3756-73.4605L63.8163-73.4605C65.5516-73.4605 66.5988-72.4297 66.5988-70.7544L66.5988 0.237677C66.5988 1.95654 65.5516 2.98736 63.8163 2.98736ZM101.732 30.3611C105.603 30.3611 108.818 27.193 108.818 23.2807L108.818-93.7975C108.818-97.6497 105.603-100.818 101.732-100.818C97.8194-100.818 94.5857-97.6497 94.5857-93.7975L94.5857 23.2807C94.5857 27.193 97.8194 30.3611 101.732 30.3611ZM130.267 1.19677L149.218 1.19677C157.641 1.19677 163.021-4.27079 163.021-12.8305L163.021-57.6863C163.021-66.2459 157.641-71.6699 149.218-71.6699L130.267-71.6699C121.801-71.6699 116.42-66.2459 116.42-57.6863L116.42-12.8305C116.42-4.27079 121.801 1.19677 130.267 1.19677ZM133.5-13.128C131.749-13.128 130.718-14.1753 130.718-15.8777L130.718-54.6826C130.718-56.3415 131.749-57.3887 133.5-57.3887L145.941-57.3887C147.693-57.3887 148.724-56.3415 148.724-54.6826L148.724-15.8777C148.724-14.1753 147.693-13.128 145.941-13.128Z" />
</svg>