<svg xmlns="http://www.w3.org/2000/svg" viewBox="8.72266 -87.7433 104.98 104.97">
  <path d="M61.2053 17.222C90.1969 17.222 113.704-6.26912 113.704-35.2606C113.704-64.2522 90.1969-87.7433 61.2053-87.7433C32.2302-87.7433 8.72266-64.2522 8.72266-35.2606C8.72266-6.26912 32.2302 17.222 61.2053 17.222ZM61.2053 1.99116C40.6171 1.99116 23.9677-14.6724 23.9677-35.2606C23.9677-55.8489 40.6171-72.5124 61.2053-72.5124C81.7936-72.5124 98.4571-55.8489 98.4571-35.2606C98.4571-14.6724 81.7936 1.99116 61.2053 1.99116ZM51.5585-12.9387C56.0213-12.9387 58.6308-15.8506 58.6308-20.7093L58.6308-29.8003L71.5019-29.8003C74.5758-29.8003 76.4392-31.5579 76.4392-34.4811C76.4392-37.4065 74.5758-39.1946 71.5019-39.1946L58.4999-39.1946L58.4999-46.3436L71.9871-46.3436C75.6717-46.3436 77.8404-48.2541 77.8404-51.6134C77.8404-54.9337 75.6717-56.8833 71.9871-56.8833L52.3392-56.8833C47.1535-56.8833 44.5191-54.0553 44.5191-48.8323L44.5191-20.7093C44.5191-15.8398 47.0708-12.9387 51.5585-12.9387Z" />
</svg>