<svg xmlns="http://www.w3.org/2000/svg" viewBox="12.4609 -79.8961 69.58 87.96">
  <path d="M28.0382 8.06575C41.1411 8.06575 49.8728 0.444659 52.0099-14.2605L57.9307-54.9626C58.9809-62.1649 61.2951-64.3954 65.859-64.3954C69.8973-64.3954 72.5313-63.8301 74.6007-63.8301C78.9549-63.8301 82.043-66.8407 82.043-71.2723C82.043-77.6456 75.2484-79.8961 66.4821-79.8961C53.3628-79.8961 44.6311-72.275 42.494-57.5699L36.5732-16.8677C35.5667-9.70904 33.2525-7.43498 28.6613-7.43498C24.6066-7.43498 21.9885-8.0071 19.9055-8.0071C15.5468-8.0071 12.4609-4.99419 12.4609-0.564841C12.4609 5.81522 19.2696 8.06575 28.0382 8.06575ZM25.4442-31.497L72.9827-31.497C77.4715-31.497 80.8588-34.8406 80.8588-39.2485C80.8588-43.6541 77.4115-47 72.9204-47L25.3819-47C20.9117-47 17.508-43.6564 17.508-39.2485C17.508-34.8428 20.9717-31.497 25.4442-31.497Z"/>
</svg>