<svg xmlns="http://www.w3.org/2000/svg" viewBox="8.72266 -87.7433 104.98 104.97">
  <path d="M23.9841-35.2606C23.9841-38.799 24.4899-42.2105 25.3911-45.4367L11.2472-51.3246C9.61815-46.232 8.72266-40.8398 8.72266-35.2606C8.72266-29.6815 9.61815-24.2893 11.2636-19.1967L25.3911-25.0823C24.4922-28.3085 23.9841-31.7223 23.9841-35.2606ZM43.0771-67.8328L37.2243-81.9066C27.5217-76.8769 19.5704-68.9256 14.5407-59.2394L28.6331-53.3538C31.9953-59.4517 36.9956-64.452 43.0771-67.8328ZM61.1889-72.5124C64.7273-72.5124 68.1388-71.9902 71.3837-71.0913L77.2529-85.2024C72.1767-86.8478 66.7845-87.7433 61.1889-87.7433C55.6098-87.7433 50.2011-86.8478 45.125-85.2024L51.0128-71.0913C54.2391-71.9925 57.6506-72.5124 61.1889-72.5124ZM93.7611-53.3702L107.87-59.2394C102.824-68.9279 94.8703-76.8791 85.1677-81.9253L79.2985-67.8328C85.3823-64.4684 90.4131-59.4704 93.7611-53.3702ZM98.4571-35.2606C98.4571-31.7223 97.9513-28.3085 97.0524-25.0659L111.147-19.1967C112.809-24.2728 113.704-29.6815 113.704-35.2606C113.704-40.8398 112.809-46.2462 111.147-51.3223L97.0383-45.4531C97.9536-42.2105 98.4571-38.799 98.4571-35.2606ZM79.2985-2.68844L85.1677 11.404C94.8703 6.35786 102.84-1.59342 107.868-11.2796L93.7775-17.1488C90.4295-11.0509 85.3987-6.05288 79.2985-2.68844ZM61.2053 1.99116C57.6506 1.99116 54.2391 1.4712 51.0128 0.570023L45.1414 14.6811C50.2175 16.3265 55.6262 17.222 61.2053 17.222C66.8009 17.222 72.1909 16.3288 77.267 14.6975L71.3792 0.588706C68.1365 1.4712 64.7414 1.99116 61.2053 1.99116ZM28.6495-17.1488L14.543-11.2796C19.5891-1.59342 27.524 6.35786 37.2266 11.3876L43.0794-2.70485C36.9956-6.06929 31.9976-11.0673 28.6495-17.1488ZM61.1889-12.6259C71.5483-12.6259 78.506-19.4681 78.506-22.7934C78.506-24.0745 77.2436-24.6771 75.988-24.1254C72.3025-22.4459 68.299-20.2443 61.1889-20.2443C54.0953-20.2443 50.0068-22.3609 46.4063-24.1254C45.1507-24.7207 43.8883-24.0745 43.8883-22.7934C43.8883-19.4681 50.8023-12.6259 61.1889-12.6259ZM47.001-39.8045C49.9932-39.8045 52.6161-42.4847 52.6161-46.195C52.6161-49.9631 49.9955-52.6433 47.001-52.6433C44.023-52.6433 41.506-49.9631 41.506-46.195C41.506-42.4847 44.0252-39.8045 47.001-39.8045ZM75.3496-39.8045C78.2982-39.8045 80.9483-42.4847 80.9483-46.195C80.9483-49.9631 78.3005-52.6433 75.3496-52.6433C72.3116-52.6433 69.811-49.9631 69.811-46.195C69.811-42.4847 72.3138-39.8045 75.3496-39.8045Z"/>
</svg>