<svg xmlns="http://www.w3.org/2000/svg" viewBox="12.4609 -97.5015 103.9 124.58">
  <path d="M23.5353-43.6129C23.5353-31.0547 34.8643-17.8429 46.0054-17.8429C54.7522-17.8429 60.2321-24.7227 64.7474-35.7722C64.9526-35.77 65.146-35.7813 65.3075-35.7995L65.3075-28.1359C65.3075-20.1882 69.7253-15.6668 77.4052-15.6668C89.9776-15.6668 103.192-26.9958 103.192-38.1369C103.192-46.6487 96.3812-52.2055 85.2623-56.8766C85.2623-57.0677 85.2532-57.2775 85.2186-57.439L92.834-57.439C100.779-57.439 105.368-61.8591 105.368-69.5366C105.368-82.1091 93.9718-95.3231 82.8166-95.3231C74.1814-95.3231 68.77-88.3228 64.1369-77.4538C63.9294-77.4538 63.7383-77.4447 63.5768-77.4101L63.5768-85.0278C63.5768-92.9732 59.1754-97.5015 51.4146-97.5015C38.9232-97.4392 25.7114-86.1679 25.7114-75.0126C25.7114-66.2801 32.3686-60.9169 43.502-56.3284C43.4997-56.1373 43.5111-55.9321 43.527-55.7706L36.0044-55.7706C28.0567-55.7706 23.5353-51.3069 23.5353-43.6129ZM64.4203-49.4552C60.4554-49.4552 57.2614-52.6492 57.2614-56.6141C57.2614-60.5813 60.4554-63.7754 64.4203-63.7754C68.3711-63.7754 71.5815-60.5813 71.5815-56.6141C71.5815-52.6492 68.3711-49.4552 64.4203-49.4552ZM33.2621-7.75987L37.8821 6.18683C38.6693 8.76165 41.9579 9.54619 43.9957 6.81167L50.9433-2.70277C52.7138-5.07816 52.1185-7.96955 49.0652-8.97553L37.7492-12.5028C34.4698-13.5983 32.4126-10.4015 33.2621-7.75987ZM64.4181 27.0799C93.4559 27.0799 116.361 20.794 116.361 9.07014C116.361 1.13995 105.845-4.36034 89.966-7.00711C85.8394-7.71789 83.609-5.65118 83.1157-3.2407C82.6388-0.715752 84.0876 2.16377 87.3453 2.63216C99.1252 4.28838 106.226 6.88365 106.226 9.07014C106.226 12.4371 89.7325 16.9263 64.4181 16.9263C39.0895 16.9263 22.6122 12.4371 22.6122 9.07014C22.6122 6.88365 29.7132 4.28838 41.4908 2.63216C44.7345 2.16377 46.181-0.715752 45.704-3.2407C45.2271-5.65118 42.999-7.71789 38.856-7.00711C22.9915-4.36034 12.4609 1.13995 12.4609 9.07014C12.4609 20.794 35.3661 27.0799 64.4181 27.0799ZM95.5763-7.75987C96.4071-10.4015 94.3522-13.5983 91.087-12.5028L79.771-8.97553C76.7199-7.96955 76.1246-5.07816 77.8952-2.70277L84.8404 6.81167C86.8806 9.54619 90.1504 8.76165 90.9563 6.18683Z" />
</svg>