<svg xmlns="http://www.w3.org/2000/svg" viewBox="12.4609 -90.7079 110.88 110.9">
  <path d="M65.3596-50.1674L65.3596-74.0991C65.3596-84.637 59.4429-90.7079 49.2305-90.7079C32.4291-90.6915 16.3096-75.5707 16.3096-59.7613C16.3096-45.5637 28.3395-37.1269 51.0143-33.0448L56.4982-45.3801C38.036-48.1742 29.1132-52.2893 29.1132-59.7613C29.1132-68.4725 39.3784-77.9042 48.8816-77.9042C51.5152-77.9042 52.5464-76.8357 52.5464-74.0991L52.5027-46.1816ZM82.8195-37.8256L106.751-37.8256C117.273-37.8256 123.344-43.7096 123.344-53.9219C123.344-70.7233 108.223-86.8592 92.397-86.8592C78.2158-86.8592 69.7626-74.8129 65.6969-52.1359L78.0322-46.6543C80.8263-65.1164 84.925-74.0556 92.397-74.0556C101.108-74.0556 110.556-63.774 110.556-54.2708C110.556-51.6349 109.488-50.6225 106.751-50.6225L78.8173-50.6661ZM70.4613-20.3494L70.4613 3.58231C70.4613 14.1203 76.343 20.1911 86.574 20.1911C103.359 20.1911 119.495 5.07042 119.495-10.7555C119.495-24.9366 107.449-33.3898 84.7716-37.4555L79.2877-25.1366C97.7521-22.3426 106.691-18.2275 106.691-10.7555C106.691-2.04423 96.4097 7.40389 86.9229 7.38748C84.2706 7.38748 83.2559 6.3354 83.2559 3.58231L83.2995-24.3351ZM52.985-32.7075L29.0534-32.7075C18.5154-32.7075 12.4609-26.8072 12.4609-16.5949C12.4609 0.206534 27.5794 16.3425 43.3911 16.3425C57.5887 16.3425 66.0255 4.29612 70.1053-18.3809L57.77-23.8625C54.9782-5.40032 50.8631 3.52242 43.3911 3.52242C34.6963 3.52242 25.2646-6.74272 25.2646-16.2459C25.2646-18.8818 26.3167-19.9107 29.0534-19.9107L56.9708-19.8671ZM67.894-14.5352C79.3559-14.5352 88.6194-23.7966 88.6194-35.2606C88.6194-46.7247 79.3559-55.986 67.894-55.986C56.43-55.986 47.1686-46.7247 47.1686-35.2606C47.1686-23.7966 56.43-14.5352 67.894-14.5352ZM67.894-26.6596C63.1339-26.6596 59.293-30.5005 59.293-35.2606C59.293-40.0208 63.1339-43.8616 67.894-43.8616C72.6542-43.8616 76.495-40.0208 76.495-35.2606C76.495-30.5005 72.6542-26.6596 67.894-26.6596ZM67.894-29.1136C71.2748-29.1136 74.0411-31.8799 74.0411-35.2606C74.0411-38.6414 71.2748-41.4077 67.894-41.4077C64.5133-41.4077 61.747-38.6414 61.747-35.2606C61.747-31.8799 64.5133-29.1136 67.894-29.1136Z"/>
</svg>