<svg xmlns="http://www.w3.org/2000/svg" viewBox="8.72266 -87.7433 104.98 104.97">
  <path d="M61.2053 17.222C90.1969 17.222 113.704-6.26912 113.704-35.2606C113.704-64.2522 90.1969-87.7433 61.2053-87.7433C32.2302-87.7433 8.72266-64.2522 8.72266-35.2606C8.72266-6.26912 32.2302 17.222 61.2053 17.222ZM61.2053 1.99116C40.6171 1.99116 23.9677-14.6724 23.9677-35.2606C23.9677-55.8489 40.6171-72.5124 61.2053-72.5124C81.7936-72.5124 98.4571-55.8489 98.4571-35.2606C98.4571-14.6724 81.7936 1.99116 61.2053 1.99116ZM60.631-50.3184C63.7564-50.3184 66.24-52.8457 66.24-55.911C66.24-59.0177 63.7564-61.5014 60.631-61.5014C57.5843-61.5014 55.0547-59.0177 55.0547-55.911C55.0547-52.8457 57.5843-50.3184 60.631-50.3184ZM79.3384-47.9468L50.8406-47.9468L52.6561-46.5658C54.1826-46.9747 54.7683-48.4389 54.4568-49.6477C54.1453-50.9374 52.8742-51.9342 50.8369-51.4981L43.7966-49.9094C38.7312-48.7692 38.9431-42.2085 44.1954-42.2085L51.8961-42.2085C52.4443-42.2085 52.8056-41.8472 52.8056-41.3013L52.8056-31.2954L45.4601-24.0309C44.3822-22.9966 43.7218-21.9023 43.2857-20.2428L40.5063-9.83628C39.9479-7.78023 41.1753-6.49279 42.6496-6.24357C43.9603-6.01076 45.5156-6.63381 45.9954-8.35966L48.6314-18.108C48.8993-19.0341 49.0426-19.298 49.6781-19.8502L55.5222-24.8741C56.4793-25.7316 58.2861-25.5283 58.9425-24.3174L62.4479-18.1454L67.9771-7.78023C68.9553-5.94846 70.9739-5.80744 72.2637-6.61512C73.3851-7.36278 73.8813-8.8853 73.0713-10.4406L67.4821-20.9904L64.3234-28.2799C63.7898-29.4761 63.5196-30.7556 63.5196-32.0928L63.5196-41.3013C63.5196-41.8472 63.8832-42.2085 64.4292-42.2085L79.3384-42.2085C80.8937-42.2085 82.1834-43.4569 82.1834-45.0372C82.1834-46.6407 80.8937-47.9468 79.3384-47.9468ZM84.1422-45.0372C84.1422-41.2085 83.2671-36.5541 81.6557-31.6448C80.6849-28.6202 84.7742-27.7514 85.5751-30.1693C87.3338-35.0668 88.2157-40.0446 88.2157-45.0372C88.2157-50.0002 87.3338-54.9802 85.5728-59.9073C84.7788-62.3207 80.6827-61.4842 81.6557-58.4483C83.2671-53.5389 84.1422-48.8846 84.1422-45.0372Z" />
</svg>