<svg xmlns="http://www.w3.org/2000/svg" viewBox="8.72266 -87.7433 104.98 104.97">
  <path d="M61.2053 17.222C90.1969 17.222 113.704-6.26912 113.704-35.2606C113.704-64.2522 90.1969-87.7433 61.2053-87.7433C32.2302-87.7433 8.72266-64.2522 8.72266-35.2606C8.72266-6.26912 32.2302 17.222 61.2053 17.222ZM61.2053 1.99116C40.6171 1.99116 23.9677-14.6724 23.9677-35.2606C23.9677-55.8489 40.6171-72.5124 61.2053-72.5124C81.7936-72.5124 98.4571-55.8489 98.4571-35.2606C98.4571-14.6724 81.7936 1.99116 61.2053 1.99116ZM48.5932-58.7172L73.8776-58.7172L73.8776-59.2705C73.8776-62.9295 72.0208-64.8049 68.4927-64.8049L53.9757-64.8049C50.4499-64.8049 48.5932-62.9295 48.5932-59.2705ZM58.9267-5.76001L63.5253-5.76001C67.0529-5.76001 68.9351-7.66091 68.9351-11.2531L68.9351-39.7022C68.9351-42.2907 69.4755-43.9882 70.406-45.3923L71.7937-47.578C73.0172-49.4455 73.8776-51.1991 73.8776-53.5322L73.8776-55.074L48.5932-55.074L48.5932-53.5322C48.5932-51.1991 49.4536-49.4477 50.677-47.578L52.046-45.3923C52.9743-43.9859 53.5192-42.2907 53.5192-39.7022L53.5192-11.2531C53.5192-7.66091 55.4178-5.76001 58.9267-5.76001ZM56.5761-37.6458C56.5761-40.2189 58.6299-42.275 61.249-42.275C63.8221-42.275 65.8782-40.2189 65.8782-37.6458L65.8782-29.4289C65.8782-26.8286 63.8221-24.7997 61.249-24.7997C58.6299-24.7997 56.5761-26.8286 56.5761-29.4289ZM61.249-26.3947C62.964-26.3947 64.2396-27.749 64.2396-29.4289C64.2396-31.1112 62.9312-32.436 61.249-32.436C59.5231-32.436 58.2147-31.1112 58.2147-29.4289C58.2147-27.749 59.5067-26.3947 61.249-26.3947Z" />
</svg>