<svg xmlns="http://www.w3.org/2000/svg" viewBox="8.72266 -87.2518 124.34 103.95">
  <path d="M8.72266-25.147C8.72266-9.81431 14.2548 4.19182 23.4249 15.0351C24.7685 16.6092 26.9969 16.6506 28.4673 15.1388L40.6697 2.89502C41.9063 1.67484 41.9227-0.0313467 40.838-1.41976C35.6197-8.00521 32.5855-16.2334 32.5855-25.147C32.5855-44.4687 46.8798-60.426 65.4477-63.0876C67.1946-63.3431 68.4345-64.6476 68.4345-66.3922L68.4345-83.5671C68.4345-85.6918 66.8145-87.2518 64.6898-87.0377C33.3228-83.9088 8.72266-57.3902 8.72266-25.147ZM133.067-25.147C133.067-57.3902 108.529-83.9088 77.0994-87.0377C74.9747-87.2518 73.3547-85.6918 73.3547-83.5671L73.3547-66.3922C73.3547-64.6476 74.5946-63.3431 76.3438-63.0876C94.9094-60.426 109.22-44.4687 109.22-25.147C109.22-16.2334 106.186-8.00521 100.908-1.37614C99.8392 0.0122749 99.8556 1.71846 101.076 2.93864L113.28 15.1824C114.751 16.6942 116.982 16.6506 118.327 15.0742C127.553 4.18728 133.067-9.81659 133.067-25.147ZM63.958-3.70407C67.1385-3.70407 69.2071-5.83268 69.2071-9.15816L69.2071-10.9403L79.2638-10.9403C79.9808-10.9403 80.5862-11.5294 80.5862-12.2627C80.5862-12.9797 79.9808-13.5828 79.2638-13.5828L69.2071-13.5828L69.2071-20.5602L81.5401-20.5602C84.187-20.5602 85.9316-22.1575 85.9316-24.5675C85.9316-27.0071 84.187-28.588 81.5401-28.588L69.2071-28.588L69.2071-37.4754L82.6576-37.4754C85.4953-37.4754 87.3271-39.0976 87.3271-41.6844C87.3271-44.2441 85.4953-45.8827 82.6576-45.8827L63.9603-45.8827C60.5703-45.8827 58.6971-43.8209 58.6971-40.4122L58.6971-13.5828L54.1433-13.5828C53.4099-13.5828 52.8209-12.9797 52.8209-12.2627C52.8209-11.5294 53.4099-10.9403 54.1433-10.9403L58.6971-10.9403L58.6971-9.15816C58.6971-5.83268 60.7634-3.70407 63.958-3.70407Z"/>
</svg>