<svg xmlns="http://www.w3.org/2000/svg" viewBox="8.72266 -87.681 104.98 104.97">
  <path d="M61.2053 17.2843C90.1923 17.2843 113.704-6.22777 113.704-35.1983C113.704-64.1689 90.1923-87.681 61.2053-87.681C32.2348-87.681 8.72266-64.1689 8.72266-35.1983C8.72266-6.22777 32.2348 17.2843 61.2053 17.2843ZM39.1737-18.6452C34.39-18.6452 30.7792-21.7621 30.7792-27.1316C30.7792-29.5031 31.2549-32.0599 32.0859-34.9005C33.3325-39.0851 35.5183-44.6653 37.5154-48.9502C39.2724-52.6074 40.3933-54.7847 45.2253-55.8852C49.282-56.783 54.7655-57.3624 61.1889-57.3624C67.6124-57.3624 73.1123-56.783 77.169-55.8852C81.9987-54.7847 83.1219-52.6074 84.8788-48.9502C86.876-44.6653 89.0618-39.0851 90.3084-34.9005C91.1229-32.0599 91.5987-29.5031 91.5987-27.1316C91.5987-21.7621 88.0043-18.6452 83.2205-18.6452C79.6341-18.6452 77.1718-20.1157 75.0845-22.1592L71.7546-25.6385C71.2579-26.0984 70.9379-26.3686 70.2435-26.3686L52.1508-26.3686C51.4564-26.3686 51.12-26.0984 50.6397-25.6385L47.3097-22.1592C45.2225-20.072 42.7602-18.6452 39.1737-18.6452ZM43.4423-41.5925C43.4423-40.1159 44.374-39.1701 45.8942-39.1701L48.7241-39.1701L48.7241-36.4925C48.7241-34.9723 49.6972-34.0156 51.2009-34.0156C52.6588-34.0156 53.6778-34.9723 53.6778-36.4925L53.6778-39.1701L56.3089-39.1701C57.9056-39.1701 58.9409-40.1159 58.9409-41.5925C58.9409-43.0254 57.9056-43.9571 56.3089-43.9571L53.6778-43.9571L53.6778-46.6597C53.6778-48.1963 52.6588-49.1716 51.2009-49.1716C49.6972-49.1716 48.7241-48.1963 48.7241-46.6597L48.7241-43.9571L45.8942-43.9571C44.374-43.9571 43.4423-43.0254 43.4423-41.5925ZM74.6575-41.5699C76.5798-41.5699 78.0824-42.9853 78.0824-44.9512C78.0824-46.8385 76.5798-48.3434 74.6575-48.3434C72.7974-48.3434 71.2489-46.8385 71.2489-44.9512C71.2489-42.9853 72.7974-41.5699 74.6575-41.5699ZM68.194-34.8987C70.0705-34.8987 71.6026-36.4449 71.6026-38.3214C71.6026-40.2273 70.0705-41.6699 68.194-41.6699C66.2904-41.6699 64.7691-40.2273 64.7691-38.3214C64.7691-36.4449 66.2904-34.8987 68.194-34.8987Z"/>
</svg>