<svg xmlns="http://www.w3.org/2000/svg" viewBox="8.72266 -109.621 130.6 128.25">
  <path d="M123.142 17.8772C124.976 17.8772 126.738 16.9841 127.675 15.5103C135.022 3.75692 139.325-10.1007 139.325-24.9507C139.325-65.0982 109.464-97.5751 71.3099-101.384C66.6606-101.912 63.7126-99.2644 63.4508-96.2841C63.2327-93.3934 65.4347-90.4844 70.0817-89.9564C103.26-86.894 127.769-60.2696 127.769-24.9507C127.769-12.0999 124.36-0.317529 118.352 9.49883C117.863 10.3365 117.554 11.292 117.554 12.2956C117.554 15.3631 120.07 17.8772 123.142 17.8772ZM29.6761 16.5134C32.5273 18.6323 36.0061 18.2203 38.1152 15.6387C40.1207 13.1216 39.6743 9.37966 37.3608 7.59791C27.0043-0.320955 20.6252-12.14 20.6252-25.2601C20.6252-48.025 39.1725-65.869 61.0231-65.869C64.2758-65.869 66.9152-68.4897 66.9152-71.7612C66.9152-74.9539 64.2758-77.5933 61.0231-77.5933C32.2648-77.5933 8.72266-54.0654 8.72266-25.2601C8.72266-8.31598 16.8268 6.80653 29.6761 16.5134ZM88.8532 17.8704C92.0897 17.8704 94.7223 15.2377 94.7223 12.0036C94.7223 8.76712 92.0897 6.11806 88.8532 6.11806C85.619 6.11806 82.9864 8.76712 82.9864 12.0036C82.9864 15.2377 85.619 17.8704 88.8532 17.8704ZM55.6465-17.5457C59.2459-13.9049 64.9236-13.9049 68.5666-17.5457C72.205-21.1428 72.205-26.8227 68.5666-30.447C67.9844-30.9879 66.7141-31.8912 64.8295-33.0971L46.1321-45.2722C44.2885-46.448 42.4862-46.2787 41.1205-44.9317C39.8312-43.6261 39.6642-41.8238 40.8401-39.9801L52.9715-21.2391C54.1338-19.3982 55.0808-18.0842 55.6465-17.5457ZM99.1533 7.57029C102.39 7.57029 105.022 4.93764 105.022 1.70347C105.022-1.53298 102.39-4.16563 99.1533-4.16563C95.9191-4.16563 93.2865-1.53298 93.2865 1.70347C93.2865 4.93764 95.9191 7.57029 99.1533 7.57029ZM105.697-5.26562C108.933-5.26562 111.566-7.89827 111.566-11.1324C111.566-14.3689 108.933-16.9993 105.697-16.9993C102.463-16.9993 99.8138-14.3689 99.8138-11.1324C99.8138-7.89827 102.463-5.26562 105.697-5.26562ZM108.166-19.624C111.402-19.624 114.033-22.2708 114.033-25.5073C114.033-28.7437 111.402-31.3741 108.166-31.3741C104.932-31.3741 102.283-28.7437 102.283-25.5073C102.283-22.2708 104.932-19.624 108.166-19.624ZM75.8786-63.7199C79.1127-63.7199 81.7454-66.3526 81.7454-69.589C81.7454-72.8232 79.1127-75.4559 75.8786-75.4559C72.6421-75.4559 70.0095-72.8232 70.0095-69.589C70.0095-66.3526 72.6421-63.7199 75.8786-63.7199ZM105.697-33.9989C108.933-33.9989 111.566-36.6293 111.566-39.8657C111.566-43.1022 108.933-45.7325 105.697-45.7325C102.463-45.7325 99.8138-43.1022 99.8138-39.8657C99.8138-36.6293 102.463-33.9989 105.697-33.9989ZM88.8532-57.1326C92.0897-57.1326 94.7223-59.7653 94.7223-63.0017C94.7223-66.2359 92.0897-68.8685 88.8532-68.8685C85.619-68.8685 82.9864-66.2359 82.9864-63.0017C82.9864-59.7653 85.619-57.1326 88.8532-57.1326ZM99.1533-46.8348C102.39-46.8348 105.022-49.4652 105.022-52.7016C105.022-55.9358 102.39-58.5684 99.1533-58.5684C95.9191-58.5684 93.2865-55.9358 93.2865-52.7016C93.2865-49.4652 95.9191-46.8348 99.1533-46.8348ZM68.244-83.8152C71.3359-81.2409 74.3448-82.8636 74.7849-86.3215L76.7552-103.912C77.1704-107.277 74.6079-109.621 71.0441-107.852L56.8165-100.644C53.8043-99.1181 53.4242-96.1082 56.05-93.9835Z" />
</svg>