<svg xmlns="http://www.w3.org/2000/svg" viewBox="-0.884034 -87.7433 124.2 104.97">
  <path d="M118.202-46.0534L92.9144-46.0534C88.8762-46.0534 87.9094-42.2557 90.0599-39.4233L102.684-22.9086C104.204-20.9145 106.94-20.8981 108.435-22.9086L121.101-39.4068C123.311-42.2557 122.284-46.0534 118.202-46.0534ZM61.2053-72.5124C81.7936-72.5124 98.4571-55.8489 98.4571-35.1734C98.4571-30.9882 101.887-27.558 106.089-27.558C110.274-27.558 113.688-30.9717 113.704-35.157C113.688-64.2686 90.1969-87.7433 61.2053-87.7433C49.4786-87.7433 38.7281-83.7506 30.2809-77.1697C26.0209-74.1917 26.122-69.2566 28.5138-66.1259C30.7114-63.3367 34.7789-61.942 39.4151-64.9909C45.3577-69.6763 52.9466-72.5124 61.2053-72.5124ZM4.22466-24.4679L29.494-24.4679C33.5322-24.4679 34.5154-28.2656 32.3649-31.098L19.7429-47.6127C18.2211-49.6068 15.4867-49.6232 13.9921-47.6127L1.32426-31.1144C-0.884034-28.2656 0.124137-24.4679 4.22466-24.4679ZM61.2053 1.99116C40.6171 1.99116 23.9677-14.6724 23.9677-35.3479C23.9677-39.5331 20.5398-42.9633 16.3381-42.9633C12.1506-42.9633 8.73907-39.5495 8.72266-35.3643C8.73907-6.25271 32.228 17.222 61.2053 17.222C72.9462 17.222 83.6803 13.2294 92.1439 6.64839C96.3898 3.67041 96.3051-1.2647 93.8946-4.39538C91.7157-7.18457 87.646-8.57925 83.0097-5.53044C77.0694-0.845027 69.4619 1.99116 61.2053 1.99116ZM59.1832-12.6696L62.8926-12.6696C64.4968-12.6696 65.7203-13.679 66.1213-15.2254L67.0303-19.1264C67.4923-19.3212 67.9108-19.4724 68.2941-19.6377L71.6843-17.5405C73.0415-16.6925 74.7074-16.8443 75.8023-17.9851L78.3523-20.5764C79.4931-21.6595 79.62-23.3559 78.7369-24.7295L76.7184-28.1033C76.8837-28.4453 77.0349-28.8473 77.1968-29.2471L81.1143-30.1583C82.6607-30.543 83.6701-31.7829 83.6701-33.4448L83.6701-37.0341C83.6701-38.6218 82.6607-39.889 81.1143-40.29L77.2569-41.1576C77.0785-41.6066 76.9109-42.0523 76.7184-42.3778L78.8133-45.8117C79.6636-47.2102 79.5259-48.8053 78.3851-49.9461L75.7587-52.5397C74.6202-53.5581 73.1452-53.8051 71.788-53.0421L68.2941-50.8435C67.9108-51.036 67.5088-51.2036 67.0739-51.3984L66.1213-55.3595C65.7203-56.9059 64.4968-57.9152 62.8926-57.9152L59.1832-57.9152C57.5814-57.9152 56.3578-56.9059 55.9568-55.3158L55.0456-51.4148C54.5858-51.2636 54.1674-51.0688 53.7817-50.8871L50.3043-53.0421C48.9307-53.8051 47.4143-53.6204 46.3149-52.5397L43.7072-49.9461C42.5499-48.8053 42.4145-47.2102 43.2625-45.8117L45.3597-42.3778C45.1649-42.0523 44.9974-41.6066 44.819-41.1576L40.9638-40.29C39.4174-39.889 38.408-38.6218 38.408-37.0341L38.408-33.4448C38.408-31.7829 39.4174-30.543 40.9638-30.1583L44.879-29.2471C45.041-28.8473 45.2086-28.4453 45.3761-28.1033L43.3389-24.7295C42.4581-23.3559 42.5969-21.6595 43.7236-20.5764L46.2712-17.9851C47.3707-16.8443 49.0343-16.6925 50.3915-17.5405L53.7817-19.6377C54.1674-19.4724 54.5858-19.3212 55.0456-19.1264L55.9568-15.2254C56.3578-13.679 57.5814-12.6696 59.1832-12.6696ZM61.0473-28.3621C57.2145-28.3621 54.0818-31.4783 54.0818-35.3111C54.0818-39.1438 57.2145-42.2601 61.0473-42.2601C64.8636-42.2601 67.9963-39.1438 67.9963-35.3111C67.9963-31.4783 64.8636-28.3621 61.0473-28.3621Z" />
</svg>