<svg xmlns="http://www.w3.org/2000/svg" viewBox="12.4609 -72.0749 75.76 73.71">
  <path d="M21.082 1.63233C23.7328 1.63233 26.1028 0.881259 28.4785-0.187026L78.4238-22.5593C84.7502-25.4073 88.2239-29.0895 88.2239-35.23C88.2239-41.2941 84.7621-44.9054 78.4311-47.7557L28.4785-70.4192C26.2937-71.4439 24.071-72.0749 21.6274-72.0749C16.2486-72.0749 12.4609-67.8969 12.4609-62.5181C12.4609-57.9697 14.7481-55.1359 19.7379-53.1879L62.9565-35.8077L62.9565-35.1688L19.6943-17.969C14.3119-15.9361 12.4609-12.9691 12.4609-8.15899C12.4609-2.79101 15.796 1.63233 21.082 1.63233Z"/>
</svg>