<svg xmlns="http://www.w3.org/2000/svg" viewBox="7.75291 -86.0147 100.67 104.13">
  <path d="M77.8312 11.65C100.404 3.44611 108.419-15.4683 99.7264-39.3497L96.0589-49.4322C92.8134-58.3657 86.099-63.1271 80.3395-61.0319C78.6883-60.4399 78.0551-59.0521 78.6447-57.4196L80.1163-53.3418C80.6736-51.8524 80.3072-50.8534 79.4951-50.555C78.6043-50.2566 77.7362-50.7232 77.1767-52.2562L76.2058-54.897C74.1559-60.5482 69.0218-63.1527 63.8628-61.3084C61.2957-60.3613 60.3883-58.5605 61.2272-56.2449L63.2822-50.6175C63.8253-49.0845 63.5025-48.1455 62.7023-47.8306C61.7702-47.5322 60.8856-47.9552 60.3284-49.5342L58.4144-54.7419C56.219-60.7958 51.4735-63.0389 46.1773-61.1261C43.6912-60.2413 42.6756-58.3596 43.4958-56.1063L47.5803-44.8923C48.1375-43.4006 47.7876-42.418 47.0004-42.1632C46.1097-41.8047 45.2002-42.3337 44.6407-43.8089L31.5828-79.8095C30.0314-84.0214 26.1032-86.0147 22.2775-84.6065C18.3012-83.1406 16.5498-79.1807 18.1013-74.9002L36.7202-23.8486C37.021-22.93 36.7678-22.2617 36.1783-22.0833C35.7241-21.8636 35.1804-22.0351 34.6147-22.6654L22.4694-35.8307C20.2054-38.2607 17.3766-39.6684 13.9032-38.3854C9.69517-36.869 7.75291-32.9465 9.21094-28.8879C9.66974-27.6197 10.3154-26.5067 10.9929-25.6587L29.0976-3.66386C43.6466 13.9946 60.1086 18.1111 77.8312 11.65Z"/>
</svg>