<svg xmlns="http://www.w3.org/2000/svg" viewBox="12.4609 -82.8326 95.16 95.18">
  <path d="M38.5731-11.2977L81.5092-11.2977C83.231-11.2977 83.9267-12.0534 83.9267-13.8081L83.9267-24.9975C83.9267-26.7357 83.231-27.4914 81.5092-27.4914L38.5731-27.4914C36.8512-27.4914 36.1556-26.7357 36.1556-24.9975L36.1556-13.8081C36.1556-12.0534 36.8512-11.2977 38.5731-11.2977ZM30.7123 12.3442L89.37 12.3442C101.024 12.3442 107.621 5.74196 107.621-5.85796L107.621-64.6305C107.621-76.2304 101.024-82.8326 89.37-82.8326L30.7123-82.8326C19.075-82.8326 12.4609-76.235 12.4609-64.6305L12.4609-5.85796C12.4609 5.74651 19.075 12.3442 30.7123 12.3442ZM32.7562-2.77186C29.3203-2.77186 27.5605-4.32434 27.5605-7.98396L27.5605-62.5045C27.5605-66.1805 29.3203-67.7166 32.7562-67.7166L87.326-67.7166C90.7528-67.7166 92.5217-66.1805 92.5217-62.5045L92.5217-7.98396C92.5217-4.32434 90.7528-2.77186 87.326-2.77186Z" />
</svg>