<svg xmlns="http://www.w3.org/2000/svg" viewBox="12.4609 -82.789 117.26 95.18">
  <path d="M38.5731-11.3068L103.608-11.3068C105.231-11.3068 106.025-12.1774 106.025-13.8172L106.025-32.7713C106.025-34.3969 105.231-35.2652 103.608-35.2652L38.5731-35.2652C36.9661-35.2652 36.1556-34.3969 36.1556-32.7713L36.1556-13.8172C36.1556-12.1774 36.9661-11.3068 38.5731-11.3068ZM30.7123 12.3878L111.469 12.3878C123.122 12.3878 129.72 5.78558 129.72-5.81433L129.72-64.5869C129.72-76.1868 123.122-82.789 111.469-82.789L30.7123-82.789C19.075-82.789 12.4609-76.1914 12.4609-64.5869L12.4609-5.81433C12.4609 5.79013 19.075 12.3878 30.7123 12.3878ZM32.7562-2.72824C29.3203-2.72824 27.5605-4.28072 27.5605-7.94034L27.5605-62.4609C27.5605-66.1369 29.3203-67.673 32.7562-67.673L109.425-67.673C112.852-67.673 114.62-66.1369 114.62-62.4609L114.62-7.94034C114.62-4.28072 112.852-2.72824 109.425-2.72824Z" />
</svg>