<svg xmlns="http://www.w3.org/2000/svg" viewBox="8.72266 -87.7433 104.98 104.97">
  <path d="M61.2053 17.222C90.1969 17.222 113.704-6.26912 113.704-35.2606C113.704-64.2522 90.1969-87.7433 61.2053-87.7433C32.2302-87.7433 8.72266-64.2522 8.72266-35.2606C8.72266-6.26912 32.2302 17.222 61.2053 17.222ZM61.2053 1.99116C40.6171 1.99116 23.9677-14.6724 23.9677-35.2606C23.9677-55.8489 40.6171-72.5124 61.2053-72.5124C81.7936-72.5124 98.4571-55.8489 98.4571-35.2606C98.4571-14.6724 81.7936 1.99116 61.2053 1.99116ZM59.2957-12.7746C70.4741-12.7746 77.1754-18.9401 77.1754-29.6909L77.1754-49.623C77.1754-54.6584 74.4786-57.6967 69.885-57.6967C65.2501-57.6967 62.6111-54.6692 62.6111-49.623L62.6111-30.1577C62.6111-26.4817 61.399-24.8795 58.9057-24.8795C56.9171-24.8795 55.6443-25.8878 55.0034-27.7269C54.082-30.8258 52.0117-32.3778 48.3537-32.3778C44.4584-32.3342 41.8184-29.7377 41.8184-25.8816C41.8184-24.8117 41.9843-23.7536 42.2868-22.7828C44.1195-16.6915 50.6974-12.7746 59.2957-12.7746Z" />
</svg>