<svg xmlns="http://www.w3.org/2000/svg" viewBox="12.4609 -89.6574 74.58 108.89">
  <path d="M12.4609 1.14517C12.4609 11.9971 18.9765 19.2324 31.1202 19.2324L68.3828 19.2324C80.5101 19.2324 87.0421 11.9971 87.0421 1.14517L87.0421-71.5537C87.0421-82.422 80.5101-89.6574 68.3828-89.6574L31.1202-89.6574C18.9765-89.6574 12.4609-82.422 12.4609-71.5537ZM27.5605-0.89879L27.5605-69.5098C27.5605-72.3385 28.9161-74.5578 33.2462-74.5578L66.2404-74.5578C70.5869-74.5578 71.9284-72.3385 71.9284-69.5098L71.9284-0.89879C71.9284 1.92997 70.5869 4.13281 66.2404 4.13281L33.2462 4.13281C28.9161 4.13281 27.5605 1.92997 27.5605-0.89879ZM33.8529-63.9133L65.6337-63.9133C66.7989-63.9133 67.7523-64.8667 67.7523-66.0319L67.7523-67.2665C67.7523-68.9798 66.3505-70.3817 64.6371-70.3817L34.8495-70.3817C33.1362-70.3817 31.7344-68.9798 31.7344-67.2665L31.7344-66.0319C31.7344-64.8667 32.6877-63.9133 33.8529-63.9133ZM49.5498-54.0832C41.8002-54.0832 35.6457-47.9286 35.6457-40.2577C35.6457-34.8355 38.7394-29.9724 43.5946-27.7067L43.5946-9.63283C43.5946-8.78208 43.8687-7.9579 44.5371-7.33087L48.2743-3.95115C49.0277-3.24143 50.4131-3.1814 51.2746-4.0384L57.4529-10.2026C58.4277-11.2046 58.4113-12.7294 57.4093-13.7501L54.7246-16.4042L58.8265-20.5202C59.8285-21.5245 59.8285-23.0765 58.8242-24.0535L55.1596-27.7509C60.4555-30.5241 63.3776-35.0259 63.3776-40.2577C63.3776-47.9099 57.2043-54.0832 49.5498-54.0832ZM49.5334-41.8175C47.6467-41.8175 46.1254-43.3389 46.1254-45.1797C46.1254-47.0936 47.6281-48.5736 49.5334-48.5736C51.3873-48.5736 52.8792-47.0499 52.8792-45.1797C52.8792-43.3389 51.3873-41.8175 49.5334-41.8175Z"/>
</svg>