<svg xmlns="http://www.w3.org/2000/svg" viewBox="12.4609 -121.589 118.11 138.24">
  <path d="M19.251-54.9893C22.9977-54.9893 26.041-58.0326 26.041-61.7793C26.041-65.5238 22.9977-68.5694 19.251-68.5694C15.5065-68.5694 12.4609-65.5238 12.4609-61.7793C12.4609-58.0326 15.5065-54.9893 19.251-54.9893ZM33.0048-93.3094C36.7515-93.3094 39.7948-96.3549 39.7948-100.102C39.7948-103.83 36.7515-106.875 33.0048-106.875C29.2745-106.875 26.2312-103.83 26.2312-100.102C26.2312-96.3549 29.2745-93.3094 33.0048-93.3094ZM71.5135-108.006C75.258-108.006 78.3035-111.052 78.3035-114.797C78.3035-118.543 75.258-121.589 71.5135-121.589C67.7667-121.589 64.7235-118.543 64.7235-114.797C64.7235-111.052 67.7667-108.006 71.5135-108.006ZM110.022-93.3094C113.767-93.3094 116.812-96.3549 116.812-100.102C116.812-103.83 113.767-106.875 110.022-106.875C106.275-106.875 103.232-103.83 103.232-100.102C103.232-96.3549 106.275-93.3094 110.022-93.3094ZM123.792-54.9893C127.52-54.9893 130.566-58.0326 130.566-61.7793C130.566-65.5238 127.52-68.5694 123.792-68.5694C120.046-68.5694 117-65.5238 117-61.7793C117-58.0326 120.046-54.9893 123.792-54.9893ZM71.5135-97.2145C53.711-97.2145 39.0156-84.4245 39.0156-67.0338C39.0156-50.3312 48.4787-43.758 50.6824-16.9318C50.9543-12.9893 53.5929-10.6209 57.4867-10.6209L85.538-10.6209C89.4046-10.6209 92.0455-12.9893 92.3882-16.9318C94.5482-43.758 104.069-50.3312 104.069-66.9901C104.069-84.3809 89.316-97.2145 71.5135-97.2145ZM71.5135-84.9892C82.5328-84.9455 91.8483-77.7533 91.8483-67.0338C91.8483-56.8656 84.539-53.644 81.12-22.8027L61.9234-22.8027C58.5294-53.644 51.2409-56.8656 51.2409-67.0338C51.2409-77.7533 60.4919-84.9892 71.5135-84.9892ZM56.5714 2.19405L86.4601 2.19405C88.7467 2.19405 90.5168 0.293141 90.5168-1.80256C90.5168-3.9583 88.7467-5.79691 86.4601-5.79691L56.5714-5.79691C54.3012-5.79691 52.5311-3.9583 52.5311-1.80256C52.5311 0.293141 54.3012 2.19405 56.5714 2.19405ZM71.5158 16.6549C79.3979 16.6549 85.1727 12.8039 85.4819 7.00168L57.3751 7.00168C57.728 12.8039 63.6336 16.6549 71.5158 16.6549Z"/>
</svg>