<svg xmlns="http://www.w3.org/2000/svg" viewBox="12.4609 -88.982 125.32 108.8">
  <path d="M27.6726 1.15824L122.565 1.15824C132.106 1.15824 137.776-4.51193 137.776-14.0534L137.776-73.7704C137.776-83.3095 132.106-88.982 122.565-88.982L27.6726-88.982C18.1311-88.982 12.4609-83.3095 12.4609-73.7704L12.4609-14.0534C12.4609-4.51193 18.1311 1.15824 27.6726 1.15824ZM28.5783-24.8995C27.3225-24.8995 26.6881-25.4116 26.6881-26.7732L26.6881-71.8136C26.6881-73.6504 27.7925-74.7548 29.6315-74.7548L120.606-74.7548C122.445-74.7548 123.549-73.6504 123.549-71.8136L123.549-26.7732C123.549-25.4116 122.931-24.8995 121.659-24.8995ZM57.6047 10.8478L92.649 10.8478L92.649-0.991568L57.6047-0.991568ZM57.5428 19.8133L92.7109 19.8133C96.0391 19.8133 98.6926 17.0039 98.6926 13.8775C98.6926 10.7533 96.0391 7.92754 92.7109 7.92754L57.5428 7.92754C54.1982 7.92754 51.5447 10.7533 51.5447 13.8775C51.5447 17.0039 54.1982 19.8133 57.5428 19.8133ZM58.2904-37.1138C58.2904-34.0529 59.6521-32.6267 62.4575-32.6267L79.8112-32.6267C82.6002-32.6267 83.9618-34.0529 83.9618-37.1138L83.9618-50.1752C83.9618-53.2338 82.6002-54.66 79.8112-54.66L62.4575-54.66C59.6521-54.66 58.2904-53.2338 58.2904-50.1752ZM74.1243-52.413L80.1393-52.413L80.1393-57.8974C80.1393-60.9679 81.68-62.8801 84.6231-62.8801C87.5662-62.8801 89.0927-60.9679 89.0927-57.8974L89.0927-55.6968C89.0927-53.9835 90.4469-52.6479 92.1602-52.6479C93.83-52.6479 95.1655-53.9835 95.1655-55.6968L95.1655-57.8974C95.1655-64.3618 91.0857-68.8187 84.6231-68.8187C78.1899-68.8187 74.1243-64.3618 74.1243-57.6625Z"/>
</svg>