<svg xmlns="http://www.w3.org/2000/svg" viewBox="12.4609 -95.2925 93.1 120.06">
  <path d="M83.562-72.1292L90.2776-72.1292C91.5949-72.1292 92.2083-71.5198 92.2083-70.2281L92.2083 0.520439C92.2083 3.27427 91.5546 4.87056 88.7141 6.04476C80.1466 9.73812 65.079 12.2382 52.8526 12.2569C44.9855 12.2382 38.3839 12.1997 29.685 10.9881L29.685 13.9768C48.8159 14.87 70.3991 11.1877 80.9933 3.24213C85.3659-0.101868 86.7263-3.07788 86.7263-8.33685L86.7263-84.9345C86.7263-91.208 83.2881-95.2925 77.3307-95.2925C75.495-95.2925 73.3314-94.8087 70.8722-94.017C56.3374-89.4376 42.7049-85.9923 26.0809-85.9923L22.9225-85.9923C16.0524-85.9923 12.4609-82.3572 12.4609-75.9521L12.4609 7.71359C12.4609 12.816 13.9661 15.8535 18.2078 18.0471C26.9107 22.2425 39.4695 24.7689 52.8526 24.7712C68.5231 24.7689 85.5793 22.2522 96.495 17.0556C103.468 13.7524 105.563 10.4049 105.563 2.87471L105.563-70.6852C105.563-80.5319 100.779-85.4817 91.235-85.4817L83.562-85.4817ZM25.8157 0.967238L25.8157-70.8276C25.8157-72.0495 26.4615-72.7599 27.7015-72.7599L28.9048-72.7599C43.6285-72.7599 58.5505-76.0346 71.1925-79.8805C72.5961-80.2985 73.3716-79.7361 73.3716-78.4276L73.3716-10.2087C73.3716-8.58332 72.9541-7.73266 71.3629-6.54846C62.704 0.533472 44.5253 4.10905 27.6328 2.79625C26.3918 2.69259 25.8157 2.14599 25.8157 0.967238ZM33.7045-61.2292L33.7045-44.8662C33.7045-44.1185 34.2652-43.747 34.8883-43.747C45.4799-43.7934 56.7816-45.4641 65.5666-49.0155C66.0027-49.2024 66.2519-49.6385 66.2519-50.0747L66.2519-66.8578C66.2519-67.9793 65.2551-68.2262 64.6943-67.9816C54.601-64.1182 45.1292-62.9992 34.8883-62.4753C34.2029-62.4153 33.7045-61.9146 33.7045-61.2292Z"/>
</svg>