<svg xmlns="http://www.w3.org/2000/svg" viewBox="9.96875 -82.9092 105.97 96.71">
  <path d="M67.6734-18.0529L67.6734-50.759C67.6734-53.6457 65.9081-55.5816 62.9777-55.5816C60.0887-55.5816 58.2797-53.6457 58.2797-50.759L58.2797-18.0529ZM20.8782-11.4481L105.316-11.4809L97.8716-22.6955L27.5649-22.6955ZM58.305-13.4182L65.9953-21.1386L25.1703-62.2961C22.9586-64.5537 19.8758-64.6528 17.5168-62.3975C15.0978-59.9513 15.2615-56.8379 17.5191-54.5389ZM113.883-9.61113L76.4269-75.0805C73.3847-80.3435 68.269-82.9092 62.9777-82.9092C57.6842-82.9092 52.4211-80.2562 49.4827-75.0805L39.9206-58.3812L50.2243-47.9903L60.199-65.6356C60.7591-66.6353 61.9203-67.0549 62.9777-67.0549C64.0165-67.0549 65.1176-66.5917 65.6942-65.592L99.8164-5.37258C100.098-4.83159 100.21-4.16599 100.21-3.71452C100.21-1.9428 98.9323-0.373906 96.9821-0.373906L28.9546-0.373906C27.0044-0.373906 25.7272-1.9428 25.7272-3.71452C25.7272-4.20962 25.8383-4.93525 26.1204-5.47624L36.7388-24.1949L26.3915-34.6708L12.0265-9.56751C10.6331-7.1087 9.96875-4.44032 9.96875-1.83652C9.96875 6.50641 16.2983 13.804 25.5771 13.804L100.376 13.804C109.611 13.804 115.941 6.50641 115.941-1.83652C115.941-4.44032 115.304-7.12511 113.883-9.61113Z"/>
</svg>