<svg xmlns="http://www.w3.org/2000/svg" viewBox="12.4609 -92.3556 107.71 114.19">
  <path d="M51.4343 21.8343L61.2702 21.8343C85.0088 21.8343 100.26 8.64424 100.26-11.7045L100.26-73.4698C100.26-85.8289 82.3571-92.3556 56.3499-92.3556C30.3473-92.3556 12.4609-85.8289 12.4609-73.4698L12.4609-11.7045C12.4609 8.64424 27.7121 21.8343 51.4343 21.8343ZM51.4343 9.07983C35.3206 9.07983 25.2318 1.07932 25.2318-11.7045L25.2318-63.015C31.8697-60.4168 43.3581-58.9282 56.3499-58.9282C69.3441-58.9282 80.8512-60.4168 87.4891-63.015L87.4891-11.7045C87.4891 1.07932 77.4003 9.07983 61.2702 9.07983ZM56.3499-71.2896C39.4184-71.2896 27.5979-73.1482 27.5979-75.8359C27.5979-78.5423 39.4184-80.4031 56.3499-80.4031C73.3002-80.4031 85.1229-78.5423 85.1229-75.8359C85.1229-73.1482 73.3002-71.2896 56.3499-71.2896ZM92.2053-9.44761L102.943-9.44761C113.442-9.44761 120.173-16.3501 120.173-27.0466L120.173-46.7661C120.173-57.4649 113.442-64.351 102.943-64.351L92.2053-64.351L92.2053-52.0328L102.943-52.0328C106.077-52.0328 107.838-50.1636 107.838-46.7661L107.838-27.0466C107.838-23.6515 106.077-21.7822 102.943-21.7822L92.2053-21.7822Z"/>
</svg>