<svg xmlns="http://www.w3.org/2000/svg" viewBox="8.72266 -82.756 89.9 100.71">
  <path d="M8.72266-56.4536C8.72266-40.4819 20.737-29.8526 38.8223-29.8526L41.3544-29.8526L41.3544 8.6769C41.3544 14.4703 44.6 17.9504 49.9985 17.9504C55.4407 17.9504 58.7049 14.4703 58.7049 8.6769L58.7049-65.4055L66.8058-65.4055L66.8058 8.6769C66.8058 14.4703 70.0372 17.9504 75.4794 17.9504C80.8779 17.9504 84.1563 14.4703 84.1563 8.6769L84.1563-65.4055L89.3532-65.4055C95.1466-65.4055 98.6267-68.6839 98.6267-74.1096C98.6267-79.5104 95.1466-82.756 89.3532-82.756L37.448-82.756C20.1807-82.756 8.72266-72.2553 8.72266-56.4536Z"/>
</svg>