<svg xmlns="http://www.w3.org/2000/svg" viewBox="8.72266 -84.2104 158.41 97.9">
  <path d="M87.9495 13.6891C115.016 13.6891 136.899-8.19675 136.899-35.2606C136.899-62.3245 115.016-84.2104 87.9495-84.2104C60.902-84.2104 38.9998-62.3245 38.9998-35.2606C38.9998-8.19675 60.902 13.6891 87.9495 13.6891ZM87.9495-1.54178C69.3512-1.54178 54.2306-16.6601 54.2306-35.2606C54.2306-53.8612 69.3512-68.9795 87.9495-68.9795C106.55-68.9795 121.671-53.8612 121.671-35.2606C121.671-16.6601 106.55-1.54178 87.9495-1.54178ZM8.72266-35.217C8.72266-19.0065 14.0606-3.64947 23.4642 8.79272C26.1665 12.3594 30.8592 12.5582 34.2894 9.71081C37.6432 6.89627 37.7111 2.52866 35.058-1.12192C27.9841-10.8368 23.9841-22.7171 23.9841-35.217C23.9841-47.777 27.9841-59.6408 35.1016-69.3744C37.7983-73.0499 37.7446-77.3739 34.2894-80.2485C30.9051-83.0936 26.2079-82.8348 23.5078-79.314C14.0606-66.8423 8.72266-51.4275 8.72266-35.217ZM167.135-35.217C167.135-51.4275 161.797-66.8423 152.35-79.314C149.65-82.8348 144.953-83.0936 141.568-80.2485C138.113-77.3739 138.059-73.0499 140.756-69.3744C147.874-59.6408 151.871-47.777 151.871-35.217C151.871-22.7171 147.874-10.8368 140.8-1.12192C138.147 2.52866 138.214 6.89627 141.568 9.71081C144.998 12.5582 149.691 12.3594 152.394 8.79272C161.797-3.64947 167.135-19.0065 167.135-35.217ZM78.5665-12.9387C83.0315-12.9387 85.6388-15.8506 85.6388-20.7093L85.6388-24.4773L91.7977-24.4773C102.07-24.4773 108.702-30.8057 108.702-40.6939C108.702-50.5493 102.183-56.8833 91.9886-56.8833L79.3472-56.8833C74.1616-56.8833 71.5294-54.0553 71.5294-48.8346L71.5294-20.7093C71.5294-15.8398 74.0789-12.9387 78.5665-12.9387ZM85.6388-34.6098L85.6388-46.7366L89.9168-46.7366C93.649-46.7366 95.5667-44.6727 95.5667-40.6503C95.5667-36.7174 93.6031-34.6098 89.9168-34.6098Z"/>
</svg>