<svg xmlns="http://www.w3.org/2000/svg" viewBox="12.4609 -79.4608 83.1 88.34">
  <path d="M31.2009 8.87718C37.5342 8.87718 41.562 4.77064 41.562-1.66628L41.562-15.4446L55.72-15.4446C75.2363-15.4446 87.2912-29.3775 87.2912-47.956C87.2912-65.2142 76.1958-79.4608 57.0178-79.4608L31.853-79.4608C24.8053-79.4608 20.7316-75.3542 20.7316-68.2879L20.7316-1.66628C20.7316 4.77064 24.824 8.87718 31.2009 8.87718ZM41.562-30.4171L41.562-64.2679L51.4165-64.2679C61.0094-64.2679 66.2151-57.6726 66.3023-47.8687C66.3023-37.5762 61.236-30.4171 51.2856-30.4171ZM12.4609-47.996C12.4609-46.4285 13.6768-45.2562 15.2608-45.2562L92.7656-45.2562C94.3496-45.2562 95.5655-46.4449 95.5655-47.996C95.5655-49.5659 94.3496-50.7336 92.7656-50.7336L15.2608-50.7336C13.6768-50.7336 12.4609-49.5659 12.4609-47.996Z"/>
</svg>