<svg xmlns="http://www.w3.org/2000/svg" viewBox="8.72266 -95.3237 96.06 120.13">
  <path d="M8.72266-35.2606C8.72266-14.5325 13.0995 7.0247 23.967 17.7847C28.504 22.3193 34.2111 24.8024 40.5241 24.8024C47.0199 24.8024 53.6549 22.7123 53.7718 15.9016C53.8542 14.7495 53.7273 13.5321 53.5245 12.135L51.0578-2.89279C50.1901-8.24304 48.1923-10.7614 42.995-12.2125L33.8848-14.7347C32.1789-15.1685 31.3473-16.0205 30.7091-17.7954C29.237-22.2322 28.3857-28.4607 28.3443-35.2606C28.3857-42.0606 29.237-48.2891 30.7091-52.7259C31.3473-54.5008 32.1789-55.3528 33.8848-55.7866L42.995-58.3088C48.1923-59.7599 50.1901-62.2782 51.0578-67.6285L53.5245-82.6563C53.7273-84.0534 53.8542-85.2708 53.7718-86.4229C53.6549-93.2336 47.0199-95.3237 40.5241-95.3237C34.2111-95.3237 28.504-92.8406 23.967-88.3059C13.0995-77.546 8.72266-55.9888 8.72266-35.2606ZM80.1958-10.1302C81.8525-10.1302 83.217-10.6859 84.2682-11.7207L102.108-29.5165C103.904-31.2985 104.781-33.2583 104.781-35.2606C104.781-37.2607 103.904-39.2228 102.108-41.0048L84.2682-58.8006C83.217-59.8354 81.8525-60.3911 80.1958-60.3911C76.8483-60.3911 74.3969-57.9997 74.3969-54.6794C74.3969-53.0912 75.1247-51.5086 76.1595-50.4574L80.5005-46.0151L94.1368-35.2606L80.5005-24.5062L76.1595-20.0639C75.1247-19.0126 74.3969-17.4301 74.3969-15.8419C74.3969-12.5216 76.8483-10.1302 80.1958-10.1302ZM51.4424-35.2606C51.4424-31.8587 53.9942-29.1508 57.4378-29.1508L80.3184-29.1508L92.0965-29.6802C95.1688-29.8003 97.6769-32.1861 97.6769-35.2606C97.6769-38.3352 95.1688-40.721 92.0965-40.8411L80.3184-41.3705L57.4378-41.3705C53.9942-41.3705 51.4424-38.6626 51.4424-35.2606Z" />
</svg>