<svg xmlns="http://www.w3.org/2000/svg" viewBox="10.8648 -94.7359 134.34 113.99">
  <path d="M81.2296-21.4791C75.7112-21.4791 71.2128-25.982 71.2128-31.4841C71.2128-36.9379 75.7112-41.4595 81.2296-41.4595C86.6858-41.4595 91.1864-36.9379 91.1864-31.4841C91.1864-25.982 86.6858-21.4791 81.2296-21.4791ZM61.9486 4.47852C58.726 4.47852 56.9804 2.89321 56.9804-0.503857L56.9804-3.77354L67.0114-12.9664C68.5174-14.3314 70.3502-15.0151 72.1044-15.0151C73.9583-15.0151 75.7849-14.3127 77.3345-12.9205L84.4353-6.48745L102.103-22.0994C103.851-23.6514 105.851-24.369 107.885-24.369C110.036-24.369 111.991-23.6327 113.655-22.0808L130.519-6.51486L130.519-0.487448C130.519 2.90962 128.751 4.47852 125.57 4.47852ZM60.5095 19.2499L126.957 19.2499C138.597 19.2499 145.209 12.65 145.209 1.06423L145.209-46.4101C145.209-58.0101 138.597-64.5958 126.957-64.5958L60.5095-64.5958C48.8722-64.5958 42.2582-58.0146 42.2582-46.4101L42.2582 1.06423C42.2582 12.671 48.8722 19.2499 60.5095 19.2499ZM21.1361-13.3319C22.6036-5.06424 26.9474-0.00731034 33.6609 1.35219C33.6609 1.17941 33.6609 1.04798 33.6609 0.918824L33.6609-46.4101C33.6609-62.7768 44.1123-73.1931 60.5095-73.1931L115.097-73.1931L114.246-77.9702C112.235-89.3855 104.616-94.7359 93.1449-92.7082L27.6961-81.1755C16.2271-79.1642 10.8648-71.4994 12.8925-60.0796Z"/>
</svg>