<svg xmlns="http://www.w3.org/2000/svg" viewBox="12.4609 -71.8431 90.41 74.25">
  <path d="M38.6017 2.41091C44.3209 2.41091 48.3986-0.822781 48.3986-7.46433L48.3986-54.3846L66.2642-54.3846L66.2642-15.7538C66.2642-4.10812 72.0075 1.56472 84.2147 1.56472C93.5579 1.56472 98.731-1.69846 98.731-7.5207C98.731-11.5348 96.028-13.9869 92.2979-13.9869C91.8947-13.9869 91.3658-13.945 90.9895-13.945C87.513-13.945 85.7544-16.0582 85.7544-20.082L85.7544-54.3846L94.3782-54.3846C99.0207-54.3846 102.874-57.5951 102.874-63.0991C102.874-68.7363 99.0207-71.8431 94.3782-71.8431L20.9563-71.8431C16.3161-71.8431 12.4609-68.7363 12.4609-63.0991C12.4609-57.5951 16.3161-54.3846 20.9563-54.3846L28.8671-54.3846L28.8671-7.4207C28.8671-0.822781 32.8683 2.41091 38.6017 2.41091Z"/>
</svg>