<svg xmlns="http://www.w3.org/2000/svg" viewBox="12.4609 -82.7845 120.92 95.18">
  <path d="M41.8493-23.7456L64.6501-23.7456C67.2137-23.7456 68.956-25.4878 68.956-28.1715L68.956-42.2207C68.956-44.9043 67.2137-46.6466 64.6501-46.6466L41.8493-46.6466C39.2857-46.6466 37.5434-44.9043 37.5434-42.2207L37.5434-28.1715C37.5434-25.4878 39.2857-23.7456 41.8493-23.7456ZM81.2509-23.7456L104.035-23.7456C106.599-23.7456 108.341-25.4878 108.341-28.1715L108.341-42.2207C108.341-44.9043 106.599-46.6466 104.035-46.6466L81.2509-46.6466C78.6709-46.6466 76.9451-44.9043 76.9451-42.2207L76.9451-28.1715C76.9451-25.4878 78.6709-23.7456 81.2509-23.7456ZM30.7559 12.3923L115.133 12.3923C126.787 12.3923 133.384 5.74651 133.384-5.85341L133.384-64.5823C133.384-76.1823 126.787-82.7845 115.133-82.7845L30.7123-82.7845C19.075-82.7845 12.4609-76.1868 12.4609-64.5823L12.4609-5.85341C12.4609 5.75105 19.1186 12.3923 30.7559 12.3923ZM32.7999-2.72369C29.364-2.72369 27.6042-4.25976 27.6042-7.93579L27.6042-62.4563C27.6042-66.116 29.3203-67.6684 32.7562-67.6684L113.089-67.6684C116.516-67.6684 118.285-66.116 118.285-62.4563L118.285-7.93579C118.285-4.25976 116.516-2.72369 113.089-2.72369Z"/>
</svg>