<svg xmlns="http://www.w3.org/2000/svg" viewBox="8.72266 -87.7433 104.98 104.97">
  <path d="M61.2053-50.2056C56.9606-50.2056 53.5298-53.6965 53.5298-57.8976C53.5298-62.126 56.9606-65.5732 61.2053-65.5732C65.4501-65.5732 68.8973-62.126 68.8973-57.8976C68.8973-53.6965 65.4501-50.2056 61.2053-50.2056ZM39.6752-23.9087C33.874-23.9087 29.136-28.6467 29.136-34.4478C29.136-40.2218 33.874-45.0034 39.6752-45.0034C45.5092-45.0034 50.2308-40.2218 50.2308-34.4478C50.2308-28.6467 45.5092-23.9087 39.6752-23.9087ZM82.6918-23.9087C76.8743-23.9087 72.1527-28.6467 72.1527-34.4478C72.1527-40.2218 76.8743-45.0034 82.6918-45.0034C88.5094-45.0034 93.231-40.2218 93.231-34.4478C93.231-28.6467 88.5094-23.9087 82.6918-23.9087ZM61.2053 17.222C90.1923 17.222 113.704-6.29008 113.704-35.2606C113.704-64.2312 90.1923-87.7433 61.2053-87.7433C32.2348-87.7433 8.72266-64.2312 8.72266-35.2606C8.72266-6.29008 32.2348 17.222 61.2053 17.222Z"/>
</svg>