<svg xmlns="http://www.w3.org/2000/svg" viewBox="12.4609 -82.7845 98.69 95.18">
  <path d="M30.7123 12.3923L92.8972 12.3923C104.551 12.3923 111.146 5.79013 111.146-5.80979L111.146-64.5823C111.146-76.1823 104.551-82.7845 92.8972-82.7845L30.7123-82.7845C19.075-82.7845 12.4609-76.1868 12.4609-64.5823L12.4609-5.80979C12.4609 5.79468 19.075 12.3923 30.7123 12.3923ZM32.7562-2.72369C29.3203-2.72369 27.5605-4.25976 27.5605-7.93579L27.5605-62.4563C27.5605-66.116 29.3203-67.6684 32.7562-67.6684L90.8532-67.6684C94.2778-67.6684 96.0489-66.116 96.0489-62.4563L96.0489-7.93579C96.0489-4.25976 94.2778-2.72369 90.8532-2.72369ZM46.8927-15.3573C51.2579-15.3573 54.7764-18.8921 54.7764-23.2574C54.7764-27.6039 51.2579-31.1388 46.8927-31.1388C42.5274-31.1388 39.0089-27.6039 39.0089-23.2574C39.0089-18.8921 42.5274-15.3573 46.8927-15.3573ZM76.7146-15.3573C81.0798-15.3573 84.5983-18.8921 84.5983-23.2574C84.5983-27.6039 81.0798-31.1388 76.7146-31.1388C72.3516-31.1388 68.8331-27.6039 68.8331-23.2574C68.8331-18.8921 72.3516-15.3573 76.7146-15.3573ZM61.8036-39.3683C66.1524-39.3683 69.6873-42.9032 69.6873-47.2662C69.6873-51.615 66.1524-55.1499 61.8036-55.1499C57.4384-55.1499 53.9058-51.615 53.9058-47.2662C53.9058-42.9032 57.4384-39.3683 61.8036-39.3683Z"/>
</svg>