<svg xmlns="http://www.w3.org/2000/svg" viewBox="12.4609 -81.02 117.49 91.61">
  <path d="M54.1593 10.586L88.2516 10.586C117.729 10.586 129.952-1.97097 129.952-31.5769L129.952-62.9204C129.952-74.4388 123.343-81.02 111.787-81.02L30.6262-81.02C19.054-81.02 12.4609-74.4433 12.4609-62.9204L12.4609-31.5769C12.4609-1.97097 24.6839 10.586 54.1593 10.586ZM54.8641-4.53002C35.578-4.53002 27.5605-12.6052 27.5605-31.6813L27.5605-60.778C27.5605-64.1022 29.4093-65.904 32.6865-65.904L109.727-65.904C112.978-65.904 114.836-64.1022 114.836-60.778L114.836-31.6813C114.836-12.6052 106.833-4.53002 87.5491-4.53002ZM53.552-16.0292C56.4213-16.0292 57.9698-17.8473 57.9698-20.7307L57.9698-29.9231L60.3466-29.9231L63.7145-19.8698C64.5771-17.299 66.0094-16.0292 68.3264-16.0292C70.6912-16.0292 72.589-17.7704 72.5018-20.4696C72.4582-21.3407 72.2866-22.0401 71.8998-22.9586L68.5969-31.7729C71.6956-33.8487 72.9214-37.9187 72.9214-41.6583C72.9214-49.6925 68.3893-53.7038 60.778-53.7038L53.5334-53.7038C50.604-53.7038 49.0579-51.9645 49.0579-49.0351L49.0579-20.7307C49.0579-17.8201 50.6086-16.0292 53.552-16.0292ZM57.9698-36.0354L57.9698-46.9532L60.0026-46.9532C62.6302-46.9532 63.8373-44.1449 63.8373-41.4923C63.8373-38.7237 62.7481-36.0354 59.9636-36.0354ZM88.3221-16.1294C90.7994-16.1294 92.7811-18.1134 92.7811-20.6071L92.7811-49.3704C92.7811-52.614 90.8158-54.3743 87.5699-54.3743C85.1612-54.3743 83.4661-53.3595 81.8383-52.1355L77.7822-48.9873C76.5027-48.0374 75.8627-46.9619 75.8627-45.5194C75.8627-43.3523 77.3518-42.3658 78.809-42.3658C79.6608-42.3658 80.2351-42.6104 80.959-43.1684L83.8443-45.4459L83.8443-20.6071C83.8443-18.1134 85.8283-16.1294 88.3221-16.1294Z"/>
</svg>