<svg xmlns="http://www.w3.org/2000/svg" viewBox="12.4609 -88.0191 119.35 105.65">
  <path d="M27.3498-38.2693L116.939-38.2693C126.739-38.2693 131.811-43.3278 131.811-53.1253L131.811-73.1794C131.811-82.9606 126.739-88.0191 116.939-88.0191L27.3498-88.0191C17.5331-88.0191 12.4609-82.9606 12.4609-73.1794L12.4609-53.1253C12.4609-43.3278 17.5331-38.2693 27.3498-38.2693ZM30.4847-53.2212C28.4911-53.2212 27.4129-54.2995 27.4129-56.3423L27.4129-69.946C27.4129-72.0053 28.4911-73.0671 30.4847-73.0671L113.771-73.0671C115.781-73.0671 116.876-72.0053 116.876-69.946L116.876-56.3423C116.876-54.2995 115.781-53.2212 113.771-53.2212ZM27.3498 17.6269L116.939 17.6269C126.739 17.6269 131.811 12.5848 131.811 2.77087L131.811-17.2832C131.811-27.0644 126.739-32.1064 116.939-32.1064L27.3498-32.1064C17.5331-32.1064 12.4609-27.0644 12.4609-17.2832L12.4609 2.77087C12.4609 12.5848 17.5331 17.6269 27.3498 17.6269ZM30.4847 2.675C28.4911 2.675 27.4129 1.59672 27.4129-0.429678L27.4129-14.0498C27.4129-16.1091 28.4911-17.1709 30.4847-17.1709L113.771-17.1709C115.781-17.1709 116.876-16.1091 116.876-14.0498L116.876-0.429678C116.876 1.59672 115.781 2.675 113.771 2.675Z"/>
</svg>