<svg xmlns="http://www.w3.org/2000/svg" viewBox="12.4609 -75.2894 180.6 80.18">
  <path d="M39.8643 4.89043L46.6031 4.89043C50.7395 4.89043 52.9337 2.71941 54.0518-0.107464L81.8953-69.3126C83.1165-72.3649 81.4382-75.2458 78.2526-75.2458L74.6749-75.2458C72.3324-75.2458 70.3375-74.0626 69.0976-71.6429L34.4297-3.81352C32.3601 0.207958 34.1794 4.89043 39.8643 4.89043ZM158.967 4.84681L165.706 4.84681C171.39 4.84681 173.21 0.164336 171.14-3.85714L136.489-71.6866C135.232-74.1062 133.238-75.2894 130.879-75.2894L127.317-75.2894C124.132-75.2894 122.453-72.4086 123.675-69.3562L151.502-0.151085C152.636 2.67579 154.83 4.84681 158.967 4.84681ZM19.2704-29.7954L37.8924-40.8965C41.0229-42.743 40.9606-46.9016 37.8924-48.7186L19.2681-59.8407C15.983-61.8004 12.4609-60.0299 12.4609-56.1789L12.4609-33.4844C12.4609-29.5734 16.0289-27.8793 19.2704-29.7954ZM186.256-29.7954C189.497-27.8957 193.065-29.5734 193.065-33.4844L193.065-56.1789C193.065-60.0299 189.56-61.784 186.258-59.8407L167.634-48.7186C164.566-46.8852 164.503-42.7594 167.634-40.8965Z"/>
</svg>