<svg xmlns="http://www.w3.org/2000/svg" viewBox="12.4609 -93.4694 87.42 116.42">
  <path d="M12.4609-49.6784C12.4609-35.9572 18.5475-23.8553 28.1713-15.8678L28.1877 15.6532C28.1877 20.5628 31.4475 22.9481 35.2472 22.9481C37.7587 22.9481 39.5593 21.9417 41.4885 20.0289L55.5988 6.02452C56.0515 5.58824 56.5313 5.32538 57.0043 5.32538C57.5209 5.32538 57.9549 5.58824 58.4075 6.02452L72.6028 20.0289C74.5093 21.8754 76.3099 22.9481 78.8169 22.9481C82.5916 22.9481 85.8351 20.5628 85.8351 15.6532L85.8351-17.3588C94.4805-25.3299 99.8527-36.8047 99.8691-49.6784C99.8855-74.1509 80.5778-93.4694 56.1568-93.4694C31.7336-93.4694 12.4609-74.1509 12.4609-49.6784ZM27.8115-49.6784C27.7679-65.4013 40.3054-78.2282 56.1732-78.2282C72.0388-78.2282 84.5622-65.4013 84.5786-49.6784C84.595-34.0015 72.0388-21.1701 56.1732-21.1865C40.3054-21.2029 27.7679-34.0015 27.8115-49.6784Z"/>
</svg>