<svg xmlns="http://www.w3.org/2000/svg" viewBox="12.4609 -80.9041 132.08 91.25">
  <path d="M23.3783 10.2169C30.3488 10.2169 34.0906 5.92503 34.0906-1.02682L34.0906-23.2247L41.9874-23.2247C42.3126-23.2247 42.6775-23.2293 42.9891-23.2293L53.8539 0.649412C56.425 6.42372 59.0418 10.2169 65.1248 10.2169C70.7765 10.2169 76.0365 6.39301 75.862-0.11434C75.7312-2.98622 74.5864-5.85689 73.3992-8.23252L63.9221-27.124C72.7173-31.7684 77.069-41.537 77.069-51.7165C77.069-71.1624 64.6704-80.9041 44.6782-80.9041L23.426-80.9041C16.3178-80.9041 12.4609-76.7986 12.4609-69.6904L12.4609-1.02682C12.4609 6.34313 16.695 10.2169 23.3783 10.2169ZM34.0906-38.0873L34.0906-64.6151L42.7173-64.6151C50.4146-64.6151 55.0739-58.9913 55.0739-51.3104C55.0739-43.4194 50.6637-38.0873 42.7308-38.0873ZM115.428 10.3414C131.201 10.3414 144.538 2.6762 144.538-12.7891C144.538-24.564 136.684-29.2805 125.377-31.7226L114.43-34.0494C110.32-34.9935 106.697-36.6693 106.697-40.7985C106.697-45.2413 110.429-47.6728 114.652-47.6728C119.579-47.6728 122.567-45.3497 126.165-41.0432C128.48-38.8059 131.41-37.8142 133.717-37.8142C138.403-37.8142 141.414-40.4129 141.414-44.5676C141.414-47.1989 139.779-50.1821 137.563-52.3228C132.616-59.0808 123.485-61.7822 114.723-61.7822C99.2717-61.7822 86.6276-54.7775 86.6276-39.6594C86.6276-28.3862 94.1106-22.0453 105.235-19.6201L116.167-17.2424C120.326-16.2841 123.842-14.7985 123.842-10.5188C123.842-6.04539 120.301-3.77653 115.042-3.77653C109.666-3.77653 105.668-5.96381 102.487-10.2746C99.4871-13.4227 96.6312-14.551 93.577-14.551C88.8746-14.551 85.8199-11.3098 85.8199-6.90936C85.8199-4.98797 86.5671-2.91704 87.9165-1.0738C93.2125 7.54389 104.564 10.3414 115.428 10.3414Z"/>
</svg>