<svg xmlns="http://www.w3.org/2000/svg" viewBox="12.4609 -85.1581 86.73 101.63">
  <path d="M12.4609-25.3142C12.4609-7.53187 22.9144 0.817479 51.9184 15.3384C53.225 15.9898 54.7328 16.4707 55.8267 16.4707C56.9205 16.4707 58.4284 15.9898 59.735 15.3384C88.7458 0.847531 99.1924-7.53187 99.1924-25.3142L99.1924-60.7832C99.1924-68.7389 96.8035-72.1814 89.7039-75.2272C85.375-77.0653 68.0587-82.6527 64.1638-83.887C61.5926-84.6721 58.3411-85.1581 55.8267-85.1581C53.3122-85.1581 50.0443-84.5957 47.4896-83.887C43.5969-82.8185 26.2783-77.0489 21.9472-75.2272C14.8499-72.2001 12.4609-68.7389 12.4609-60.7832ZM26.1755-27.1949L26.1755-35.2606L55.7831-35.2606L55.7831-71.6561C57.0299-71.6561 58.1782-71.3643 60.3094-70.7134C64.1365-69.333 76.9232-65.04 83.5619-62.4613C84.9924-61.8857 85.4615-61.0291 85.4615-59.1028L85.4615-35.2606L55.8267-35.2606L55.8267 1.61228C55.3798 1.61228 54.972 1.49669 53.6774 0.711177C32.1338-12.714 26.1755-15.2665 26.1755-27.1949Z"/>
</svg>