<svg xmlns="http://www.w3.org/2000/svg" viewBox="12.4609 -82.789 117.26 95.18">
  <path d="M56.454-1.06598L70.1957-1.06598L70.1957-69.8231L56.454-69.8231ZM34.9406 12.3878L107.632 12.3878C121.349 12.3878 129.72 3.88776 129.72-10.1083L129.72-60.293C129.72-74.289 121.349-82.789 107.632-82.789L34.9406-82.789C20.961-82.789 12.4609-74.289 12.4609-60.293L12.4609-10.1083C12.4609 3.88776 20.961 12.3878 34.9406 12.3878ZM36.9517-2.72824C31.0914-2.72824 27.5605-6.24271 27.5605-12.1194L27.5605-58.2818C27.5605-64.1585 31.0914-67.673 36.9517-67.673L105.229-67.673C111.106-67.673 114.62-64.1585 114.62-58.2818L114.62-12.1194C114.62-6.24271 111.106-2.72824 105.229-2.72824ZM38.429-46.774L45.6642-46.774C47.6937-46.774 48.8219-47.8422 48.8219-49.8445L48.8219-56.8406C48.8219-58.9075 47.7101-59.9734 45.6642-59.9734L38.429-59.9734C36.3021-59.9734 35.2067-58.9075 35.2067-56.8406L35.2067-49.8445C35.2067-47.8422 36.3185-46.774 38.429-46.774ZM38.429-28.6298L45.6642-28.6298C47.6937-28.6298 48.8219-29.6708 48.8219-31.7003L48.8219-38.7128C48.8219-40.7469 47.7101-41.802 45.6642-41.802L38.429-41.802C36.3021-41.802 35.2067-40.7469 35.2067-38.7128L35.2067-31.7003C35.2067-29.6708 36.3185-28.6298 38.429-28.6298ZM38.429-10.4584L45.6642-10.4584C47.6937-10.4584 48.8219-11.5266 48.8219-13.5725L48.8219-20.5686C48.8219-22.5755 47.7101-23.6578 45.6642-23.6578L38.429-23.6578C36.3021-23.6578 35.2067-22.5755 35.2067-20.5686L35.2067-13.5725C35.2067-11.5266 36.3185-10.4584 38.429-10.4584Z"/>
</svg>