<svg xmlns="http://www.w3.org/2000/svg" viewBox="8.72266 -87.7433 104.98 104.97">
  <path d="M61.2053 17.222C90.1923 17.222 113.704-6.29008 113.704-35.2606C113.704-64.2312 90.1923-87.7433 61.2053-87.7433C32.2348-87.7433 8.72266-64.2312 8.72266-35.2606C8.72266-6.29008 32.2348 17.222 61.2053 17.222ZM61.2053-9.1622C46.7843-9.1622 35.1374-20.8232 35.1374-35.2442C35.1374-49.6653 46.7843-61.3285 61.2053-61.3285C75.6428-61.3285 87.2874-49.6653 87.2874-35.2442C87.2874-20.8232 75.6428-9.1622 61.2053-9.1622ZM44.0826-24.0579L49.9902-24.1389L54.2127-29.6692L52.599-34.5895L44.9067-37.716L40.712-35.3718C40.7284-31.0926 41.9955-27.279 44.0826-24.0579ZM45.0846-48.0074L46.7062-42.7682L54.0756-39.8184L58.5898-43.2349L58.5898-51.0126L54.2511-54.5283C50.6398-53.2261 47.4997-50.917 45.0846-48.0074ZM77.3589-48.0074C74.9602-50.917 71.8014-53.2261 68.1901-54.5283L63.8702-51.1372L63.8702-43.2349L68.3843-39.8184L75.7537-42.7682ZM78.3173-23.9815C80.4481-27.1861 81.7315-31.0926 81.7479-35.3718L77.5532-37.716L69.8445-34.5895L68.2036-29.5656L72.3933-24.0188ZM61.2218-14.7922C63.1889-14.7922 65.2222-15.1038 67.0625-15.5959L68.2411-20.7349L64.1766-25.9849L58.1468-25.9849L54.1752-20.915L55.3974-15.6396C57.2213-15.1038 59.2546-14.7922 61.2218-14.7922Z"/>
</svg>