<svg xmlns="http://www.w3.org/2000/svg" viewBox="12.4609 -82.849 95.16 95.18">
  <path d="M12.4609 7.19226C12.4609 10.2684 14.5039 12.3277 17.58 12.3277L102.502 12.3277C105.578 12.3277 107.621 10.2684 107.621 7.19226L107.621-77.7135C107.621-80.7896 105.578-82.849 102.502-82.849L17.58-82.849C14.5039-82.849 12.4609-80.7896 12.4609-77.7135ZM27.5605-4.08636L27.5605-66.4349C27.5605-67.2719 28.0216-67.733 28.875-67.733L91.2236-67.733C92.0606-67.733 92.5217-67.2719 92.5217-66.4349L92.5217-4.08636C92.5217-3.24934 92.0606-2.78827 91.2236-2.78827L28.875-2.78827C28.0216-2.78827 27.5605-3.24934 27.5605-4.08636ZM39.1387-51.8725C41.5792-51.8725 43.4811-53.7744 43.4811-56.2149C43.4811-58.653 41.5792-60.5549 39.1387-60.5549C36.7006-60.5549 34.7987-58.653 34.7987-56.2149C34.7987-53.7744 36.7006-51.8725 39.1387-51.8725ZM49.594-51.8725C52.0345-51.8725 53.9364-53.7744 53.9364-56.2149C53.9364-58.653 52.0345-60.5549 49.594-60.5549C47.1559-60.5549 45.254-58.653 45.254-56.2149C45.254-53.7744 47.1559-51.8725 49.594-51.8725ZM60.0493-51.8725C62.4898-51.8725 64.3894-53.7744 64.3894-56.2149C64.3894-58.653 62.4898-60.5549 60.0493-60.5549C57.6089-60.5549 55.6929-58.653 55.6929-56.2149C55.6929-53.7744 57.6089-51.8725 60.0493-51.8725ZM70.5046-51.8725C72.9264-51.8725 74.8447-53.7744 74.8447-56.2149C74.8447-58.653 72.9264-60.5549 70.5046-60.5549C68.0642-60.5549 66.1481-58.653 66.1481-56.2149C66.1481-53.7744 68.0642-51.8725 70.5046-51.8725ZM80.9622-51.8725C83.384-51.8725 85.3023-53.7744 85.3023-56.2149C85.3023-58.653 83.384-60.5549 80.9622-60.5549C78.5217-60.5549 76.6034-58.653 76.6034-56.2149C76.6034-53.7744 78.5217-51.8725 80.9622-51.8725ZM80.9622-41.4195C83.384-41.4195 85.3023-43.3191 85.3023-45.7596C85.3023-48.1977 83.384-50.0996 80.9622-50.0996C78.5217-50.0996 76.6034-48.1977 76.6034-45.7596C76.6034-43.3191 78.5217-41.4195 80.9622-41.4195ZM80.9622-30.9642C83.384-30.9642 85.3023-32.8638 85.3023-35.3043C85.3023-37.7447 83.384-39.6443 80.9622-39.6443C78.5217-39.6443 76.6034-37.7447 76.6034-35.3043C76.6034-32.8638 78.5217-30.9642 80.9622-30.9642ZM80.9622-20.5089C83.384-20.5089 85.3023-22.4108 85.3023-24.849C85.3023-27.2894 83.384-29.189 80.9622-29.189C78.5217-29.189 76.6034-27.2894 76.6034-24.849C76.6034-22.4108 78.5217-20.5089 80.9622-20.5089ZM80.9622-10.0536C83.384-10.0536 85.3023-11.9555 85.3023-14.3937C85.3023-16.8341 83.384-18.736 80.9622-18.736C78.5217-18.736 76.6034-16.8341 76.6034-14.3937C76.6034-11.9555 78.5217-10.0536 80.9622-10.0536ZM70.5046-10.0536C72.9264-10.0536 74.8447-11.9555 74.8447-14.3937C74.8447-16.8341 72.9264-18.736 70.5046-18.736C68.0642-18.736 66.1481-16.8341 66.1481-14.3937C66.1481-11.9555 68.0642-10.0536 70.5046-10.0536ZM60.0493-10.0536C62.4898-10.0536 64.3894-11.9555 64.3894-14.3937C64.3894-16.8341 62.4898-18.736 60.0493-18.736C57.6089-18.736 55.6929-16.8341 55.6929-14.3937C55.6929-11.9555 57.6089-10.0536 60.0493-10.0536ZM49.594-10.0536C52.0345-10.0536 53.9364-11.9555 53.9364-14.3937C53.9364-16.8341 52.0345-18.736 49.594-18.736C47.1559-18.736 45.254-16.8341 45.254-14.3937C45.254-11.9555 47.1559-10.0536 49.594-10.0536ZM39.1387-10.0536C41.5792-10.0536 43.4811-11.9555 43.4811-14.3937C43.4811-16.8341 41.5792-18.736 39.1387-18.736C36.7006-18.736 34.7987-16.8341 34.7987-14.3937C34.7987-11.9555 36.7006-10.0536 39.1387-10.0536ZM39.1387-20.5089C41.5792-20.5089 43.4811-22.4108 43.4811-24.849C43.4811-27.2894 41.5792-29.189 39.1387-29.189C36.7006-29.189 34.7987-27.2894 34.7987-24.849C34.7987-22.4108 36.7006-20.5089 39.1387-20.5089ZM39.1387-30.9642C41.5792-30.9642 43.4811-32.8638 43.4811-35.3043C43.4811-37.7447 41.5792-39.6443 39.1387-39.6443C36.7006-39.6443 34.7987-37.7447 34.7987-35.3043C34.7987-32.8638 36.7006-30.9642 39.1387-30.9642ZM39.1387-41.4195C41.5792-41.4195 43.4811-43.3191 43.4811-45.7596C43.4811-48.1977 41.5792-50.0996 39.1387-50.0996C36.7006-50.0996 34.7987-48.1977 34.7987-45.7596C34.7987-43.3191 36.7006-41.4195 39.1387-41.4195Z"/>
</svg>