<svg xmlns="http://www.w3.org/2000/svg" viewBox="8.72266 -87.7433 104.98 104.97">
  <path d="M61.2053 17.222C90.1923 17.222 113.704-6.29008 113.704-35.2606C113.704-64.2312 90.1923-87.7433 61.2053-87.7433C32.2348-87.7433 8.72266-64.2312 8.72266-35.2606C8.72266-6.29008 32.2348 17.222 61.2053 17.222ZM53.3863-46.5014C48.4722-46.5014 44.8762-42.8725 44.8762-37.9913L44.8762-25.233L34.5413-25.233L34.5413-46.9791C34.5413-50.6282 37.0361-53.2216 40.6698-53.2216L42.275-53.2216L42.275-59.1783C42.275-62.7354 44.4737-64.8033 48.5326-64.8033L56.3696-64.8033C60.3628-64.8033 62.5888-62.7354 62.5888-59.1783L62.5888-53.2216L64.148-53.2216C67.809-53.2216 70.2743-50.6282 70.2743-46.9791L70.2743-46.5014ZM47.7544-53.2216L57.153-53.2216L57.153-58.4532C57.153-59.3941 56.6341-59.8943 55.6955-59.8943L49.2798-59.8943C48.2461-59.8943 47.7544-59.3941 47.7544-58.4532ZM44.8762-15.2973C44.8762-13.5788 45.3186-12.045 46.0702-10.7417L40.6698-10.7417C37.0361-10.7417 34.5413-13.3079 34.5413-16.957L34.5413-20.1819L44.8762-20.1819ZM83.3959-42.5764C86.1752-42.5764 87.9809-40.7543 87.9809-37.9913L87.9809-15.2973C87.9809-12.6074 86.1752-10.7417 83.3959-10.7417L53.4847-10.7417C50.7326-10.7417 48.8833-12.6074 48.8833-15.2973L48.8833-37.9913C48.8833-40.7543 50.7326-42.5764 53.4847-42.5764ZM53.3772-35.7993L54.8239-35.7993C55.2368-35.7993 55.4837-36.0213 55.4837-36.3283L55.4837-37.6708C55.4837-38.0128 55.2368-38.2598 54.8239-38.2598L53.3885-38.2598C53.0374-38.2598 52.7304-38.0128 52.7304-37.6617L52.7304-36.3283C52.7304-36.0377 53.0374-35.7993 53.3772-35.7993ZM53.3772-30.6275L54.8239-30.6275C55.2368-30.6275 55.4837-30.8745 55.4837-31.2687L55.4837-32.4922C55.4837-32.8451 55.2368-33.152 54.8239-33.152L53.3772-33.152C53.0351-33.152 52.7304-32.8637 52.7304-32.4922L52.7304-31.2687C52.7304-30.8745 53.0374-30.6275 53.3772-30.6275ZM53.3772-25.4263L54.8239-25.4263C55.2368-25.4263 55.4837-25.6896 55.4837-26.073L55.4837-27.2887C55.4837-27.6307 55.2368-27.8777 54.8239-27.8777L53.3772-27.8777C53.0351-27.8777 52.7304-27.633 52.7304-27.2887L52.7304-26.073C52.7304-25.706 53.0374-25.4263 53.3772-25.4263ZM53.3772-20.2097L54.8239-20.2097C55.2368-20.2097 55.4837-20.4566 55.4837-20.8236L55.4837-22.0602C55.4837-22.4459 55.2413-22.6905 54.8239-22.6905L53.3772-22.6905C53.0351-22.6905 52.7304-22.4459 52.7304-22.0602L52.7304-20.8236C52.7304-20.473 53.0374-20.2097 53.3772-20.2097ZM53.3885-15.116L54.8239-15.116C55.2413-15.116 55.4837-15.3194 55.4837-15.6886L55.4837-16.9734C55.4837-17.2968 55.2368-17.5001 54.8239-17.5001L53.3772-17.5001C53.0374-17.5001 52.7304-17.2968 52.7304-16.9734L52.7304-15.6977C52.7304-15.3216 53.0374-15.116 53.3885-15.116ZM81.7979-35.7993L83.2305-35.7993C83.6303-35.7993 83.9045-36.0213 83.9045-36.3283L83.9045-37.6617C83.9045-38.0106 83.628-38.2598 83.2191-38.2598L81.7979-38.2598C81.4309-38.2598 81.184-38.0128 81.184-37.6708L81.184-36.3283C81.184-36.0377 81.4309-35.7993 81.7979-35.7993ZM81.7979-30.6275L83.2305-30.6275C83.6303-30.6275 83.9045-30.8745 83.9045-31.2687L83.9045-32.4922C83.9045-32.8637 83.6326-33.152 83.2305-33.152L81.7979-33.152C81.4309-33.152 81.184-32.8451 81.184-32.4922L81.184-31.2687C81.184-30.8745 81.4309-30.6275 81.7979-30.6275ZM81.7979-25.4263L83.2305-25.4263C83.6303-25.4263 83.9045-25.6896 83.9045-26.073L83.9045-27.2887C83.9045-27.633 83.6326-27.8777 83.2305-27.8777L81.7979-27.8777C81.4309-27.8777 81.184-27.6307 81.184-27.2887L81.184-26.073C81.184-25.706 81.4309-25.4263 81.7979-25.4263ZM81.7979-20.2097L83.2305-20.2097C83.6303-20.2097 83.9045-20.4566 83.9045-20.8236L83.9045-22.0602C83.9045-22.4459 83.6326-22.6905 83.2305-22.6905L81.7979-22.6905C81.4286-22.6905 81.184-22.4459 81.184-22.0602L81.184-20.8236C81.184-20.473 81.4309-20.2097 81.7979-20.2097ZM81.7979-15.116L83.2191-15.116C83.6303-15.116 83.9045-15.3216 83.9045-15.6977L83.9045-16.9734C83.9045-17.2968 83.6303-17.5001 83.2305-17.5001L81.7979-17.5001C81.4309-17.5001 81.184-17.2968 81.184-16.9734L81.184-15.6886C81.184-15.3194 81.4286-15.116 81.7979-15.116ZM58.9528-29.7655C58.9528-29.1617 59.3969-28.8049 59.9322-28.8049L76.9484-28.8049C77.4837-28.8049 77.9114-29.1617 77.9114-29.7655L77.9114-37.2991C77.9114-37.8843 77.465-38.2598 76.9484-38.2598L59.9322-38.2598C59.3992-38.2598 58.9528-37.8843 58.9528-37.2991ZM58.9528-16.0353C58.9528-15.4293 59.3969-15.116 59.9322-15.116L76.9484-15.116C77.4837-15.116 77.9114-15.4293 77.9114-16.0353L77.9114-23.5384C77.9114-24.1422 77.4837-24.4991 76.9484-24.4991L59.9322-24.4991C59.3969-24.4991 58.9528-24.1422 58.9528-23.5384Z"/>
</svg>