<svg xmlns="http://www.w3.org/2000/svg" viewBox="8.08425 -89.1729 154.82 108.34">
  <path d="M61.7123 19.1672L151.73 19.1672C159.378 19.1672 162.902 11.9763 159.477 5.2036L114.948-83.7215C113.202-87.1997 110.251-89.1729 106.721-89.1729C103.193-89.1729 100.24-87.2325 98.5264-83.7707L53.9809 5.2036C50.5586 11.9763 54.0825 19.1672 61.7123 19.1672ZM81.364 6.80929L101.937-38.583C102.887-40.6922 104.822-41.7588 106.721-41.7588C108.663-41.7588 110.557-40.6922 111.507-38.583L132.08 6.80929L114.724 6.80929L106.721-27.0595L98.72 6.80929ZM55.8623-10.4316L51.0611-30.6638L46.2436-10.4316L34.2639-10.4316L47.7148-39.9751C48.3786-41.4206 49.7312-42.188 51.0611-42.188C52.3747-42.188 53.7437-41.4206 54.4052-39.9751L66.3326-13.7125L77.9925-36.7344L58.5483-75.535C57.0032-78.5465 54.2613-80.4105 51.0611-80.4105C47.8423-80.4105 45.1027-78.5465 43.5576-75.535L11.0914-10.653C8.08425-4.65742 11.3646 1.91946 18.2621 1.91946L58.4196 1.91946L64.6715-10.4316Z"/>
</svg>