<svg xmlns="http://www.w3.org/2000/svg" viewBox="12.4609 -111.76 110.27 133.94">
  <path d="M42.8882 22.1848C59.6042 22.1848 73.2118 8.98397 73.2118-7.78756C73.2118-15.8957 70.1079-22.9299 64.3067-28.5707C63.3353-29.5144 63.1875-29.9828 63.1875-31.2772L63.2039-70.9002C63.2039-83.8954 54.9398-92.6675 42.8882-92.6675C30.6893-92.6675 22.4688-83.8954 22.4688-70.9002L22.4688-31.2772C22.4688-29.9828 22.321-29.4708 21.366-28.5707C15.4339-23.1044 12.4609-15.8957 12.4609-7.78756C12.4609 8.98397 26.0685 22.1848 42.8882 22.1848ZM42.8882 9.73733C32.9685 9.73733 24.9871 1.67721 24.9871-8.22377C24.9871-14.6667 27.9454-19.7202 33.029-23.0683C34.4756-24.0165 35.0409-24.8124 35.0409-26.7552L35.0409-70.54C35.0409-76.3112 38.2135-80.139 42.8882-80.139C47.4592-80.139 50.6154-76.3112 50.6154-70.54L50.6154-26.7552C50.6154-24.8124 51.1971-24.0165 52.6437-23.0683C57.7109-19.7202 60.6856-14.6667 60.6856-8.22377C60.6856 1.67721 52.7042 9.73733 42.8882 9.73733ZM42.8282 3.1353C49.0928 3.1353 54.1413-1.93191 54.1413-8.24018C54.1413-12.6011 51.6723-16.2052 48.0823-18.1549C46.5569-18.9717 46.0539-19.5556 46.0539-21.8191L46.0539-66.6639C46.0539-69.0269 44.6118-70.4736 42.8282-70.4736C41.0609-70.4736 39.6188-69.0269 39.6188-66.6639L39.6188-21.8191C39.6188-19.5556 39.1158-18.9717 37.5904-18.1549C33.984-16.2052 31.5314-12.6011 31.5314-8.24018C31.5314-1.93191 36.5799 3.1353 42.8282 3.1353ZM70.0538-91.8241C73.119-91.8241 75.6003-94.4068 75.6003-97.4556L75.6003-106.129C75.6003-109.224 73.119-111.76 70.0538-111.76C67.005-111.76 64.5072-109.224 64.5072-106.129L64.5072-97.4556C64.5072-94.4068 67.005-91.8241 70.0538-91.8241ZM93.306-82.1543C95.4367-80.0049 99.0599-80.0758 101.223-82.2416L107.373-88.3641C109.568-90.4994 109.566-94.1016 107.417-96.2487C105.27-98.3981 101.728-98.3568 99.5322-96.1615L93.3496-90.0661C91.173-87.9354 91.1894-84.2851 93.306-82.1543ZM108.439-53.491L117.112-53.491C120.209-53.491 122.73-55.97 122.73-59.0352C122.73-62.0841 120.209-64.5795 117.112-64.5795L108.439-64.5795C105.404-64.5795 102.808-62.0404 102.808-58.9916C102.808-55.9264 105.404-53.491 108.439-53.491ZM99.4886-21.7362C101.684-19.5432 105.226-19.5183 107.373-21.6654C109.523-23.8148 109.438-27.3297 107.286-29.5522L101.191-35.762C99.0871-37.9364 95.4095-37.8928 93.2624-35.762C91.1294-33.6126 91.2166-30.0518 93.3496-27.9047ZM70.9262-32.7233C84.9957-32.7233 96.2162-44.6581 96.2162-58.9916C96.2162-73.5432 84.5595-85.1999 70.0974-85.1999C69.0271-85.1999 67.9591-85.1194 66.9228-84.9771C68.9922-80.9292 70.1807-76.1228 70.1807-70.8383L70.1643-32.7806C70.4069-32.7534 70.6955-32.7233 70.9262-32.7233Z"/>
</svg>