<svg xmlns="http://www.w3.org/2000/svg" viewBox="10.5322 -98.2847 106.12 125.23">
  <path d="M28.6709 6.52113L98.5424 6.52113C110.878 6.52113 116.654-0.396656 114.1-11.816L102.468-62.8931C100.224-72.7607 94.0494-77.9004 84.3669-77.9004L42.8299-77.9004C33.1475-77.9004 26.9452-72.7607 24.7039-62.8931L13.0529-11.816C10.5322-0.396656 16.3358 6.52113 28.6709 6.52113ZM63.6607 26.9468C59.5418 26.9468 55.929 23.9142 55.929 19.2662L55.929-90.6018C55.929-95.2498 59.5418-98.2847 63.6607-98.2847C67.6879-98.2847 71.3171-95.2498 71.3171-90.6018L71.3171 19.2662C71.3171 23.9142 67.6879 26.9468 63.6607 26.9468Z"/>
</svg>