<svg xmlns="http://www.w3.org/2000/svg" viewBox="12.4609 -103.646 119 124.7">
  <path d="M87.8883-70.0938L87.8883-58.3641L91.7266-58.3641C94.2668-58.3641 96.0179-57.3417 97.5674-55.3487L114.854-34.0672C116.038-32.6302 115.687-30.7328 113.446-30.7328L89.3832-30.7328C86.3713-30.7328 84.9242-28.3994 84.9242-26.0292L84.9242-25.0066C84.9242-18.0573 79.3509-11.9612 71.97-11.9612C64.5749-11.9612 59.018-18.0573 59.018-25.0066L59.018-26.0292C59.018-28.3994 57.5709-30.7328 54.5426-30.7328L28.8679-30.7328C27.3246-30.7328 27.0013-32.0632 27.8094-33.1075L45.8514-55.3487C47.4009-57.3417 49.1355-58.3641 51.6758-58.3641L56.0539-58.3641L56.0539-70.0938L50.8843-70.0938C43.9307-70.0938 39.0707-67.6793 33.2579-60.7487L17.2019-41.4669C13.2986-36.9418 12.4609-33.4357 12.4609-25.1749L12.4609 2.85098C12.4609 14.4554 19.075 21.0531 30.7123 21.0531L113.214 21.0531C124.867 21.0531 131.465 14.4509 131.465 2.85098L131.465-25.1749C131.465-33.4357 130.644-36.9418 126.74-41.4669L110.581-60.836C104.811-67.7229 100.011-70.0938 93.0415-70.0938ZM54.5777-76.7571C56.2203-76.7571 57.7235-77.4458 58.8184-78.6007L63.9394-84.0626L71.97-96.7175L79.9842-84.0626L85.1216-78.6007C86.2-77.4458 87.7032-76.7571 89.3458-76.7571C92.1959-76.7571 94.9441-78.949 94.9441-82.1503C94.9441-83.7821 94.3449-84.937 93.2336-86.0482L77.3045-101.319C75.5441-103.02 73.7599-103.646 71.97-103.646C70.166-103.646 68.3817-103.02 66.6377-101.319L50.6899-86.0482C49.5951-84.937 48.9794-83.7821 48.9794-82.1503C48.9794-78.949 51.709-76.7571 54.5777-76.7571ZM71.97-39.0195C75.6721-39.0195 78.5437-42.0492 78.5437-45.5145L78.5437-80.7961L77.0818-97.6141C76.8472-100.428 74.7861-102.724 71.97-102.724C69.1397-102.724 67.095-100.428 66.8441-97.6141L65.3985-80.7961L65.3985-45.5145C65.3985-42.0492 68.2538-39.0195 71.97-39.0195Z"/>
</svg>