<svg xmlns="http://www.w3.org/2000/svg" viewBox="8.72266 -87.7433 104.98 104.97">
  <path d="M61.2053 17.222C90.1969 17.222 113.704-6.26912 113.704-35.2606C113.704-64.2522 90.1969-87.7433 61.2053-87.7433C32.2302-87.7433 8.72266-64.2522 8.72266-35.2606C8.72266-6.26912 32.2302 17.222 61.2053 17.222ZM61.2053 1.99116C40.6171 1.99116 23.9677-14.6724 23.9677-35.2606C23.9677-55.8489 40.6171-72.5124 61.2053-72.5124C81.7936-72.5124 98.4571-55.8489 98.4571-35.2606C98.4571-14.6724 81.7936 1.99116 61.2053 1.99116ZM61.1889-12.7632C72.9914-12.7632 81.1425-19.2999 81.1425-28.9246L81.1425-50.1901C81.1425-55.0238 78.6474-57.6967 74.2011-57.6967C69.8335-57.6967 67.3362-54.9802 67.3362-50.1901L67.3362-30.2426C67.3362-26.554 64.8407-24.0195 61.1889-24.0195C57.5372-24.0195 55.0581-26.554 55.0581-30.2426L55.0581-50.1901C55.0581-54.9802 52.5631-57.6967 48.1604-57.6967C43.7327-57.6967 41.2354-55.0238 41.2354-50.1901L41.2354-28.9246C41.2354-19.2999 49.4029-12.7632 61.1889-12.7632Z" />
</svg>