<svg xmlns="http://www.w3.org/2000/svg" viewBox="12.4609 -99.6439 88.21 122.61">
  <path d="M41.231-44.3987L47.9699-44.3987C49.6039-44.3987 50.7321-45.3174 51.0991-46.8103L51.634-48.9749L54.1723-36.8475C54.8112-33.665 59.0986-33.5755 60.0563-36.7251L63.1071-46.8985L63.3083-46.2324C63.8062-45.0556 64.8035-44.3987 66.1758-44.3987L72.599-44.3987C74.297-44.3987 75.6676-45.7671 75.6676-47.4792C75.6676-49.1358 74.3157-50.4901 72.599-50.4901L68.1185-50.4901L66.2227-57.918C65.4309-60.9594 61.3445-60.8394 60.3432-57.7707L57.5751-49.1629L54.7094-63.0289C54.0541-66.2103 49.7231-66.2867 48.9454-63.1326L45.893-50.4901L41.231-50.4901C39.558-50.4901 38.1482-49.0758 38.1482-47.4792C38.1482-45.7671 39.5166-44.3987 41.231-44.3987ZM37.1361-21.0053L76.0855-21.0053C78.0128-21.0053 79.474-22.5101 79.474-24.4375C79.474-26.307 78.0128-27.766 76.0855-27.766L37.1361-27.766C35.1652-27.766 33.704-26.307 33.704-24.4375C33.704-22.5101 35.1652-21.0053 37.1361-21.0053ZM37.1361-2.981L60.5311-2.981C62.4443-2.981 63.9196-4.49996 63.9196-6.41314C63.9196-8.28043 62.4607-9.74163 60.5311-9.74163L37.1361-9.74163C35.1652-9.74163 33.704-8.28043 33.704-6.41314C33.704-4.49996 35.1816-2.981 37.1361-2.981ZM30.7339 22.9637L82.3841 22.9637C93.6418 22.9637 100.673 15.8885 100.673 4.45293L100.673-68.9375C100.673-80.291 93.7052-87.4506 82.5646-87.4506L81.6689-87.4506C82.2961-86.1511 82.6014-84.6148 82.6014-82.9664L82.6014-78.0171C82.6014-76.2396 82.2796-74.6049 81.622-73.207L82.1618-73.207C84.8449-73.207 86.4321-71.4688 86.4321-68.8129L86.4321 4.32832C86.4321 7.064 84.7465 8.73882 81.9157 8.73882L31.2187 8.73882C28.3715 8.73882 26.6881 7.064 26.6881 4.32832L26.6881-68.8129C26.6881-71.4688 28.273-73.207 30.9725-73.207L31.5146-73.207C30.8547-74.6049 30.5329-76.2396 30.5329-78.0171L30.5329-82.9664C30.5329-84.6148 30.8383-86.1511 31.4654-87.4506L30.5698-87.4506C19.4128-87.4506 12.4609-80.291 12.4609-68.9375L12.4609 4.45293C12.4609 15.8885 19.4784 22.9637 30.7339 22.9637ZM41.6493-72.2616L71.4686-72.2616C74.7424-72.2616 76.7151-74.3357 76.7151-77.8428L76.7151-82.9687C76.7151-86.478 74.7424-88.5498 71.4686-88.5498L68.4643-88.5498C68.0169-94.7184 62.9137-99.6439 56.5672-99.6439C50.223-99.6439 45.1175-94.7184 44.6536-88.5498L41.6493-88.5498C38.3778-88.5498 36.4193-86.478 36.4193-82.9687L36.4193-77.8428C36.4193-74.3357 38.3778-72.2616 41.6493-72.2616ZM56.5672-83.5784C54.0783-83.5784 52.0574-85.6453 52.0574-88.0882C52.0574-90.5357 54.0783-92.5403 56.5672-92.5403C59.056-92.5403 61.0606-90.5357 61.0606-88.0882C61.0606-85.6453 59.056-83.5784 56.5672-83.5784Z"/>
</svg>