<svg xmlns="http://www.w3.org/2000/svg" viewBox="12.4609 -78.9062 201.08 89.43">
  <path d="M107.494-21.5425C115.574-21.5425 123.527-23.8148 130.304-27.9915C132.42-29.2897 133.049-31.7949 131.786-33.8776C130.531-36.0226 127.874-36.5749 125.513-35.1436C120.178-31.8636 113.988-30.1259 107.494-30.1259C101.033-30.1259 94.8124-31.8636 89.4457-35.1436C87.052-36.5749 84.4114-36.0249 83.1733-33.8776C81.9397-31.8159 82.5639-29.2874 84.6216-27.9915C91.3869-23.8148 99.3539-21.5425 107.494-21.5425ZM107.494-33.8336C113.521-33.8336 119.397-35.5328 124.226-38.7597C126.194-39.9706 126.818-42.4322 125.612-44.4713C124.324-46.6662 121.653-47.1522 119.186-45.7373C115.765-43.5685 111.717-42.4334 107.494-42.4334C103.226-42.4334 99.18-43.5685 95.8189-45.7373C93.2921-47.1522 90.6396-46.6662 89.3765-44.4713C88.1843-42.4322 88.753-39.9706 90.7603-38.7597C95.5787-35.5328 101.454-33.8336 107.494-33.8336ZM107.494-46.152C111.343-46.152 115.265-47.4004 118.268-49.5528C120.046-50.7722 120.498-53.2429 119.334-55.2111C117.99-57.4281 115.36-57.799 112.775-56.2499C111.245-55.2655 109.455-54.7659 107.494-54.7659C105.566-54.7659 103.714-55.2655 102.215-56.2499C99.5848-57.7826 97.015-57.4116 95.671-55.2111C94.4906-53.2429 94.9403-50.7722 96.7199-49.5528C99.6908-47.4004 103.571-46.152 107.494-46.152ZM28.5493-0.690726L46.3981-0.690726L46.3981-15.4391L31.0797-15.4391C28.6876-15.4391 27.2116-16.9995 27.2116-19.5811L27.2116-28.8012C27.2116-35.3245 30.9216-38.4727 41.3199-39.844L62.1455-42.5971L84.2104-56.3371C94.2511-62.5778 100.505-64.1414 117.469-64.1414L137.246-64.1414C140.195-64.1414 141.894-62.7679 142.239-59.8456L144.258-41.6743L195.01-41.6743C197.419-41.6743 198.878-40.1117 198.878-37.5487L198.878-19.5811C198.878-16.9995 197.419-15.4391 195.01-15.4391L174.958-15.4391L174.958-0.690726L197.453-0.690726C207.273-0.690726 213.542-6.90701 213.542-17.0883L213.542-39.3436C213.542-49.8575 206.357-56.3519 195.141-56.3519L157.771-56.3519L157.292-60.5681C155.904-72.5045 148.857-78.9062 136.898-78.9062L117.469-78.9062C97.9638-78.9062 88.6657-76.617 76.3582-68.8996L57.0805-56.8272L39.4864-54.491C21.703-52.2039 12.4609-43.6173 12.4609-28.8012L12.4609-17.0883C12.4609-6.47079 18.7271-0.690726 28.5493-0.690726ZM62.9393-0.690726L151.868-0.690726L151.868-15.4391L62.9393-15.4391ZM54.8713 10.5201C65.9548 10.5201 74.9149 1.54354 74.9149-9.53998C74.9149-20.7085 65.9548-29.6873 54.8713-29.6873C43.7464-29.6873 34.7676-20.7085 34.7676-9.53998C34.7676 1.54354 43.7464 10.5201 54.8713 10.5201ZM54.8713-2.8052C51.1845-2.8052 48.3133-5.67866 48.3133-9.36549C48.3133-13.0523 51.1845-15.9235 54.8713-15.9235C58.5145-15.9235 61.4316-13.0523 61.4316-9.36549C61.4316-5.67866 58.5145-2.8052 54.8713-2.8052ZM160.401 10.5201C171.468 10.5201 180.445 1.54354 180.445-9.53998C180.445-20.7085 171.468-29.6873 160.401-29.6873C149.276-29.6873 140.298-20.7085 140.298-9.53998C140.298 1.54354 149.276 10.5201 160.401 10.5201ZM160.401-2.8052C156.715-2.8052 153.827-5.67866 153.827-9.36549C153.827-13.0523 156.715-15.9235 160.401-15.9235C164.045-15.9235 166.962-13.0523 166.962-9.36549C166.962-5.67866 164.045-2.8052 160.401-2.8052Z"/>
</svg>