<svg xmlns="http://www.w3.org/2000/svg" viewBox="12.4609 -82.8326 95.16 95.18">
  <path d="M30.7123 12.3442L89.37 12.3442C101.024 12.3442 107.621 5.74196 107.621-5.85796L107.621-64.6305C107.621-76.2304 101.024-82.8326 89.37-82.8326L30.7123-82.8326C19.075-82.8326 12.4609-76.235 12.4609-64.6305L12.4609-5.85796C12.4609 5.74651 19.075 12.3442 30.7123 12.3442ZM60.502-12.1054C59.602-12.1054 58.8736-12.5455 57.6966-13.6766L51.1977-19.9427C50.4092-20.6688 50.2291-21.7223 50.748-22.4717C52.9931-25.4883 56.7682-27.3574 60.502-27.3574C64.2193-27.3574 67.8363-25.6355 70.0923-22.7696C70.7748-21.9602 70.6961-20.7561 69.9099-19.9427L63.411-13.6766C62.2176-12.5291 61.4019-12.1054 60.502-12.1054ZM44.3758-27.2008L40.1776-31.1809C39.3292-31.9585 39.2527-33.0788 39.9516-33.8837C44.4777-39.1721 52.3746-42.5077 60.502-42.5077C68.6293-42.5077 76.5262-39.1744 81.0523-33.8837C81.7535-33.0953 81.6912-31.9421 80.8427-31.1809L76.6446-27.2008C75.701-26.3009 74.4005-26.2867 73.5147-27.2926C70.1497-30.7511 65.2519-32.8683 60.502-32.8496C55.7356-32.8683 50.9002-30.7511 47.6093-27.309C46.6657-26.3139 45.3466-26.3009 44.3758-27.2008ZM33.2662-37.8787L29.5524-41.6962C28.7912-42.5033 28.7289-43.6237 29.4136-44.4636C36.1317-52.8266 48.3678-58.2913 60.502-58.2913C72.6361-58.2913 84.8699-52.8243 91.5903-44.4636C92.2915-43.6237 92.215-42.5033 91.4515-41.6962L87.74-37.8787C86.7856-37.0093 85.4642-36.9952 84.537-37.881C78.2595-44.6201 69.9299-48.1743 60.502-48.1743C51.1613-48.1743 42.8985-44.6569 36.5434-37.941C35.5561-36.9351 34.1583-36.9329 33.2662-37.8787Z"/>
</svg>