<svg xmlns="http://www.w3.org/2000/svg" viewBox="12.4609 -89.5381 95.94 108.64">
  <path d="M12.4609 3.28203C12.4609 13.1456 18.4382 19.1041 28.3577 19.1041L92.5034 19.1041C102.439 19.1041 108.4 13.1456 108.4 3.28203L108.4-73.7161C108.4-83.5796 102.439-89.5381 92.5034-89.5381L28.3577-89.5381C18.4382-89.5381 12.4609-83.5796 12.4609-73.7161ZM27.5628 1.12824L27.5628-71.5623C27.5628-73.338 28.6469-74.4385 30.4017-74.4385L90.4595-74.4385C92.2142-74.4385 93.2984-73.338 93.2984-71.5623L93.2984 1.12824C93.2984 2.90397 92.2142 4.00449 90.4595 4.00449L30.4017 4.00449C28.6469 4.00449 27.5628 2.90397 27.5628 1.12824ZM35.0524-47.8681L85.8065-47.8681C86.5789-47.8681 87.1939-48.4995 87.1939-49.2555L87.1939-66.9467C87.1939-67.7027 86.5789-68.3341 85.8065-68.3341L35.0524-68.3341C34.2987-68.3341 33.6672-67.7027 33.6672-66.9467L33.6672-49.2555C33.6672-48.4995 34.2987-47.8681 35.0524-47.8681ZM53.1603-55.0821C51.4356-55.0821 50.0965-56.4047 50.0965-58.1022C50.0965-59.7997 51.4356-61.1388 53.1603-61.1388L67.7009-61.1388C69.442-61.1388 70.7646-59.7997 70.7646-58.1022C70.7646-56.4047 69.442-55.0821 67.7009-55.0821Z"/>
</svg>