<svg xmlns="http://www.w3.org/2000/svg" viewBox="11.2588 -99.6475 128.8 128.76">
  <path d="M75.6366 29.1081C111.202 29.1081 140.062 0.295961 140.062-35.2697C140.062-70.8354 111.202-99.6475 75.6366-99.6475C40.1184-99.6475 11.2588-70.8354 11.2588-35.2697C11.2588 0.295961 40.1184 29.1081 75.6366 29.1081ZM75.6366 17.9943C46.1876 17.9943 22.3976-5.82067 22.3976-35.2697C22.3976-64.7187 46.1876-88.5337 75.6366-88.5337C105.086-88.5337 128.901-64.7187 128.901-35.2697C128.901-5.82067 105.086 17.9943 75.6366 17.9943ZM56.9846-8.82665C69.3054-8.82665 72.8575-23.0718 72.8575-35.2697C72.8575-47.4676 69.3054-61.7128 56.9846-61.7128C44.6863-61.7128 41.1341-47.4676 41.1341-35.2697C41.1341-23.0718 44.6863-8.82665 56.9846-8.82665ZM56.9846-15.9434C51.6008-15.9434 49.8368-24.8806 49.8368-35.2697C49.8368-45.6588 51.6008-54.5961 56.9846-54.5961C62.3908-54.5961 64.085-45.6588 64.085-35.2697C64.085-24.8806 62.3908-15.9434 56.9846-15.9434ZM83.4985-10.071L104.931-10.071C107.113-10.071 108.304-11.5269 108.304-13.5496C108.304-15.7002 107.065-17.1087 104.931-17.1087L90.0211-17.1087L90.0211-17.5238L99.3639-29.5875C105.183-36.9271 107.351-41.548 107.351-47.1753C107.351-55.6806 101.835-61.7022 93.2632-61.7022C85.4245-61.7022 79.5286-55.1837 79.5286-48.5812C79.5286-46.4139 80.8435-44.7812 83.1442-44.7812C85.0825-44.7812 86.3316-45.6905 86.9217-47.68C87.9316-51.9498 89.5845-54.7804 93.2382-54.7804C97.2415-54.7804 99.2555-51.1173 99.2555-46.8037C99.2555-41.9652 96.1465-37.2076 92.6445-32.5858L81.6495-18.2954C80.4048-16.7094 79.4692-15.2981 79.4692-13.5377C79.4692-11.4927 80.8581-10.071 83.4985-10.071Z" />
</svg>