<svg xmlns="http://www.w3.org/2000/svg" viewBox="16.084 -93.4067 116.32 116.37">
  <path d="M35.9773 22.9622L112.512 22.9622C125.628 22.9622 132.405 16.14 132.405 3.21118L132.405-73.6557C132.405-86.5846 125.628-93.4067 112.512-93.4067L35.9773-93.4067C22.9086-93.4067 16.084-86.6295 16.084-73.6557L16.084 3.21118C16.084 16.185 22.9086 22.9622 35.9773 22.9622ZM49.2622-9.24932C46.4729-9.24932 45.0855-10.7396 45.0855-12.8859C45.0855-14.6924 46.046-16.1721 47.3448-17.7897L58.6031-32.5068C62.267-37.2286 65.4774-42.1706 65.4774-47.1935C65.4774-51.6335 63.4305-55.3651 59.3337-55.3651C55.5417-55.3651 53.9007-52.3961 52.8329-48.0803C52.2098-46.0118 50.8923-45.0222 48.9079-45.0222C46.4584-45.0222 45.1449-46.7458 45.1449-48.992C45.1449-55.8104 51.2462-62.5344 59.3587-62.5344C68.1342-62.5344 73.9834-56.3179 73.9834-47.5651C73.9834-41.685 71.6786-36.9641 65.6424-29.4296L56.0467-17.0445L56.0467-16.5345L71.4042-16.5345C73.5702-16.5345 74.9369-15.1419 74.9369-12.8979C74.9369-10.7842 73.6176-9.24932 71.4042-9.24932ZM96.0652-8.54944C93.4867-8.54944 91.4498-10.6088 91.4498-13.0805L91.4498-52.5146L85.5224-47.7373C84.8583-47.2327 84.2483-46.9454 83.2667-46.9454C81.4533-46.9454 80.0897-48.2752 80.0897-50.2698C80.0897-51.8615 80.8895-53.0275 82.0832-53.8864L89.1887-59.481C90.7605-60.7196 92.7938-62.0414 95.3038-62.0414C98.5144-62.0414 100.516-60.1769 100.516-56.9663L100.516-13.0805C100.516-10.6088 98.4669-8.54944 96.0652-8.54944Z"/>
</svg>