<svg xmlns="http://www.w3.org/2000/svg" viewBox="11.2588 -99.6475 128.8 128.76">
  <path d="M75.6366 29.1081C111.157 29.1081 140.062 0.203591 140.062-35.2697C140.062-70.743 111.157-99.6475 75.6366-99.6475C40.1633-99.6475 11.2588-70.743 11.2588-35.2697C11.2588 0.203591 40.1633 29.1081 75.6366 29.1081ZM83.9742-5.71101C80.9866-5.71101 79.1372-7.69906 79.1372-11.1119L79.1372-17.7935L56.505-17.7935C52.2327-17.7935 49.5335-20.3597 49.5335-24.2842C49.5335-26.1444 49.9921-27.8423 51.2146-30.054C56.1069-38.1393 64.397-50.6292 70.5476-59.9475C73.2534-64.1837 76.0606-65.8197 80.8089-65.8197C85.5749-65.8197 88.931-62.8639 88.931-58.7394L88.931-26.5481L93.7535-26.5481C96.5775-26.5481 98.3584-24.8092 98.3584-22.1708C98.3584-19.5548 96.5195-17.7935 93.743-17.7935L88.931-17.7935L88.931-11.1119C88.931-7.65161 87.1041-5.71101 83.9742-5.71101ZM79.1372-26.5481L79.1372-57.2576L78.6785-57.2576C72.7501-48.1371 63.8933-34.6678 59.4474-26.9382L59.4474-26.5481Z"/>
</svg>