<svg xmlns="http://www.w3.org/2000/svg" viewBox="11.2588 -99.6475 128.8 128.76">
  <path d="M75.6366 29.1081C111.157 29.1081 140.062 0.203591 140.062-35.2697C140.062-70.743 111.157-99.6475 75.6366-99.6475C40.1633-99.6475 11.2588-70.743 11.2588-35.2697C11.2588 0.203591 40.1633 29.1081 75.6366 29.1081ZM61.4754-8.70687C59.412-8.70687 57.2129-9.97984 57.2129-13.0748L57.2129-19.7583L43.0485-19.7583C39.9744-19.7583 37.9517-21.7575 37.9517-24.8051C37.9517-26.6855 38.3299-28.3258 39.2695-30.6043L50.6608-55.2142C52.3674-59.1418 54.2992-61.7735 58.8705-61.7735C62.8375-61.7735 65.6931-59.5233 65.6931-55.2169L65.6931-26.9264L68.0274-26.9264C70.4294-26.9264 71.5549-25.4348 71.5549-23.3898C71.5549-21.3816 70.4425-19.7583 68.0169-19.7583L65.6931-19.7583L65.6931-13.0748C65.6931-10.1461 63.8036-8.70687 61.4754-8.70687ZM57.4078-26.7315L57.4078-54.0403L57.1665-54.0403L45.4914-27.1018L45.4914-26.7315ZM94.2042-8.25732C81.5988-8.25732 77.9742-22.7397 77.9742-35.2697C77.9742-47.7997 81.5988-62.2821 94.2042-62.2821C106.835-62.2821 110.434-47.7997 110.434-35.2697C110.434-22.7397 106.835-8.25732 94.2042-8.25732ZM94.2042-15.5164C99.6829-15.5164 101.447-24.5959 101.447-35.2697C101.447-45.9435 99.6829-55.023 94.2042-55.023C88.7255-55.023 86.9615-45.9435 86.9615-35.2697C86.9615-24.5959 88.7255-15.5164 94.2042-15.5164Z"/>
</svg>