<svg xmlns="http://www.w3.org/2000/svg" viewBox="11.2588 -99.6475 128.8 128.76">
  <path d="M75.6366 29.1081C111.157 29.1081 140.062 0.203591 140.062-35.2697C140.062-70.743 111.157-99.6475 75.6366-99.6475C40.1633-99.6475 11.2588-70.743 11.2588-35.2697C11.2588 0.203591 40.1633 29.1081 75.6366 29.1081ZM61.2619-8.45455C59.142-8.45455 56.9588-9.74855 56.9588-12.933L56.9588-19.5901L42.6998-19.5901C39.4782-19.5901 37.4819-21.6209 37.4819-24.7105C37.4819-26.6119 37.8481-28.2838 38.8682-30.5938L50.2541-55.3404C51.9592-59.3311 53.9345-62.0258 58.648-62.0258C62.6675-62.0258 65.5177-59.744 65.5177-55.3746L65.5177-26.8634L67.8994-26.8634C70.333-26.8634 71.4321-25.3507 71.4321-23.2742C71.4321-21.2449 70.3566-19.5901 67.8889-19.5901L65.5177-19.5901L65.5177-12.933C65.5177-9.90427 63.5967-8.45455 61.2619-8.45455ZM57.1642-26.6685L57.1642-54.198L56.9124-54.198L45.1268-27.0387L45.1268-26.6685ZM101.337-8.45455C99.1475-8.45455 96.9867-9.74855 96.9867-12.933L96.9867-19.5901L82.7053-19.5901C79.5311-19.5901 77.4874-21.6209 77.4874-24.7105C77.4874-26.6119 77.9235-28.2838 78.8961-30.5938L90.2596-55.3404C91.9872-59.3311 93.94-62.0258 98.6429-62.0258C102.673-62.0258 105.523-59.744 105.523-55.3746L105.523-26.8634L107.927-26.8634C110.338-26.8634 111.438-25.3507 111.438-23.2742C111.438-21.2449 110.362-19.5901 107.917-19.5901L105.523-19.5901L105.523-12.933C105.523-9.90427 103.602-8.45455 101.337-8.45455ZM97.1921-26.6685L97.1921-54.198L96.9404-54.198L85.1323-27.0387L85.1323-26.6685Z"/>
</svg>