<svg xmlns="http://www.w3.org/2000/svg" viewBox="16.084 -98.5693 141.95 126.6">
  <path d="M158.033-35.2697C157.985-42.5107 148.053-48.182 135.98-48.182L110.402-48.182C106.94-48.182 105.709-48.779 103.617-51.0333L61.8068-96.36C60.4636-97.7981 58.8527-98.5693 57.0824-98.5693L49.3117-98.5693C47.6903-98.5693 46.8071-97.1087 47.5993-95.4293L69.1138-48.2136L37.0406-44.6675L25.7764-64.9362C24.9038-66.4548 23.6029-67.1336 21.6334-67.1336L18.8255-67.1336C17.1621-67.1336 16.084-66.078 16.084-64.4026L16.084-6.13681C16.084-4.46138 17.1621-3.40577 18.8255-3.40577L21.6334-3.40577C23.6029-3.40577 24.9038-4.08462 25.7764-5.60317L37.0406-25.8719L69.1138-22.3258L47.5993 24.8899C46.8071 26.5693 47.6903 28.0299 49.3117 28.0299L57.0824 28.0299C58.8527 28.0299 60.4636 27.2587 61.8068 25.8206L103.617-19.5061C105.709-21.7604 106.94-22.3574 110.402-22.3574L135.98-22.3574C148.053-22.3574 157.985-28.0287 158.033-35.2697Z"/>
</svg>