<svg xmlns="http://www.w3.org/2000/svg" viewBox="11.2588 -99.6475 128.8 128.76">
  <path d="M75.6366 29.1081C111.202 29.1081 140.062 0.295961 140.062-35.2697C140.062-70.8354 111.202-99.6475 75.6366-99.6475C40.1184-99.6475 11.2588-70.8354 11.2588-35.2697C11.2588 0.295961 40.1184 29.1081 75.6366 29.1081ZM75.6366 17.9943C46.1876 17.9943 22.3976-5.82067 22.3976-35.2697C22.3976-64.7187 46.1876-88.5337 75.6366-88.5337C105.086-88.5337 128.901-64.7187 128.901-35.2697C128.901-5.82067 105.086 17.9943 75.6366 17.9943ZM54.0148-15.8279L97.244-15.8279C100.665-15.8279 102.163-19.4619 100.294-22.6202L79.4236-57.8835C77.6368-60.8535 73.6419-60.7481 71.9131-57.8835L50.9531-22.6202C49.1678-19.6307 50.6289-15.8279 54.0148-15.8279Z" />
</svg>