<svg xmlns="http://www.w3.org/2000/svg" viewBox="11.2588 -99.6475 128.8 128.76">
  <path d="M75.6366 29.1081C111.202 29.1081 140.062 0.295961 140.062-35.2697C140.062-70.8354 111.202-99.6475 75.6366-99.6475C40.1184-99.6475 11.2588-70.8354 11.2588-35.2697C11.2588 0.295961 40.1184 29.1081 75.6366 29.1081ZM75.6366 17.9943C46.1876 17.9943 22.3976-5.82067 22.3976-35.2697C22.3976-64.7187 46.1876-88.5337 75.6366-88.5337C105.086-88.5337 128.901-64.7187 128.901-35.2697C128.901-5.82067 105.086 17.9943 75.6366 17.9943ZM75.6841-73.2113C74.2774-73.2113 73.1116-72.5777 71.9944-71.487L54.3206-53.6645C53.4881-52.8689 52.9781-51.7043 52.9781-50.4723C52.9781-48.0561 54.8581-46.255 57.3533-46.255C58.6734-46.255 59.8167-46.7648 60.614-47.7252L65.2404-52.4571L75.6841-65.2457L86.1752-52.4571L90.8016-47.7252C91.5515-46.7648 92.6723-46.255 94.0623-46.255C96.5101-46.255 98.3901-48.0561 98.3901-50.4723C98.3901-51.7043 97.9275-52.8215 97.095-53.6645L79.3737-71.487C78.304-72.5777 77.0908-73.2113 75.6841-73.2113ZM75.6841-1.30094C77.967-1.30094 79.7323-3.13471 79.8008-5.41766L80.3634-22.8683L80.3634-47.6711L79.8008-65.1217C79.7323-67.4047 77.967-69.2385 75.6841-69.2385C73.4261-69.2385 71.6833-67.4047 71.6148-65.1217L71.0522-47.6711L71.0522-22.8683L71.6148-5.41766C71.6833-3.13471 73.4261-1.30094 75.6841-1.30094ZM75.6841 2.67191C77.0908 2.67191 78.304 2.03834 79.3737 0.947584L97.095-16.8749C97.9275-17.7179 98.3901-18.8351 98.3901-20.0671C98.3901-22.4833 96.5101-24.2844 94.0623-24.2844C92.6723-24.2844 91.5515-23.7746 90.8016-22.8142L86.1752-18.0823L75.6841-5.29375L65.2404-18.0823L60.614-22.8142C59.8167-23.7746 58.6734-24.2844 57.3533-24.2844C54.8581-24.2844 52.9781-22.4833 52.9781-20.0671C52.9781-18.8351 53.4881-17.6705 54.3206-16.8749L71.9944 0.947584C73.1116 2.03834 74.2774 2.67191 75.6841 2.67191Z" />
</svg>