<svg xmlns="http://www.w3.org/2000/svg" viewBox="16.084 -93.4067 116.32 116.37">
  <path d="M35.9773 22.9622L112.512 22.9622C125.628 22.9622 132.405 16.14 132.405 3.21118L132.405-73.6557C132.405-86.5846 125.628-93.4067 112.512-93.4067L35.9773-93.4067C22.9086-93.4067 16.084-86.6295 16.084-73.6557L16.084 3.21118C16.084 16.185 22.9086 22.9622 35.9773 22.9622ZM102.294-36.2224L80.5845-36.2224C77.1836-36.2224 75.2339-37.8596 75.2339-41.5625L75.2339-63.3445C75.2339-65.7923 77.1995-67.7698 79.7066-67.7698C82.0859-67.7698 84.0739-65.7923 84.0739-63.3445L84.0739-60.1242L83.4563-50.3938L99.8994-67.5485C101.772-69.4402 104.796-69.4297 106.688-67.5485C108.594-65.7042 108.531-62.5953 106.64-60.7351L89.5806-44.3974L98.9675-45.04L102.294-45.0625C104.779-45.0625 106.767-43.0849 106.767-40.6477C106.767-38.188 104.779-36.2224 102.294-36.2224ZM68.993-2.83696C66.6138-2.83696 64.6257-4.8145 64.6257-7.26224L64.6257-10.4826L65.2434-20.2354L48.8002-3.10574C46.9281-1.15606 43.9035-1.17709 42.0343-3.0583C40.1056-4.95002 40.169-8.022 42.0593-9.87167L59.1415-26.2094L49.7321-25.5668L46.4055-25.5443C43.9209-25.5443 41.9328-27.5219 41.9328-29.9591C41.9328-32.4662 43.9209-34.3844 46.4055-34.3844L68.1151-34.3844C71.5161-34.3844 73.4658-32.7472 73.4658-29.0917L73.4658-7.26224C73.4658-4.8145 71.5002-2.83696 68.993-2.83696Z"/>
</svg>