<svg xmlns="http://www.w3.org/2000/svg" viewBox="16.084 -95.249 192.35 120.05">
  <path d="M112.179 24.8019C115.549 24.8019 118.078 22.3087 118.078 18.9501L118.078-89.492C118.078-92.8032 115.549-95.249 112.179-95.249C108.831-95.249 106.349-92.8032 106.349-89.492L106.349 18.9501C106.349 22.3087 108.831 24.8019 112.179 24.8019ZM16.084-35.2472C16.084-33.5536 16.8361-32.0258 18.0638-30.7771L46.5656-1.96349C47.9186-0.648821 49.3725-0.0615256 50.9466-0.0615256C54.2379-0.0615256 56.7194-2.43227 56.7194-5.74092C56.7194-7.46615 56.1031-8.97859 54.9177-10.027L28.0002-35.2472L54.9177-60.4675C56.1256-61.5753 56.7194-63.0283 56.7194-64.7536C56.7194-68.0622 54.2379-70.433 50.9466-70.433C49.3725-70.433 47.8962-69.8232 46.5656-68.531L18.0638-39.6699C16.8466-38.4686 16.084-36.9409 16.084-35.2472ZM30.2562-40.7379C27.2258-40.6379 24.7655-38.2777 24.7655-35.2472C24.7655-32.2168 27.2258-29.8565 30.2562-29.7565L46.635-29.2533L88.4737-29.2533C92.0769-29.2533 94.4778-31.7295 94.4778-35.2472C94.4778-38.765 92.0769-41.2411 88.4737-41.2411L46.635-41.2411ZM208.433-35.1574C208.433-36.8511 207.671-38.3788 206.453-39.5801L177.952-68.4187C176.621-69.6859 175.122-70.3431 173.571-70.3431C170.257-70.3431 167.798-67.9249 167.798-64.6163C167.798-62.9385 168.392-61.4854 169.599-60.3302L196.517-35.1574L169.599-9.93717C168.414-8.88874 167.798-7.32885 167.798-5.62861C167.798-2.34242 170.257 0.0757705 173.571 0.0757705C175.122 0.0757705 176.598-0.558968 177.952-1.8262L206.453-30.6873C207.681-31.936 208.433-33.4637 208.433-35.1574ZM194.261-40.6481L177.882-41.1038L136.021-41.1038C132.44-41.1038 130.039-38.6751 130.039-35.1574C130.039-31.6396 132.44-29.1635 136.021-29.1635L177.882-29.1635L194.261-29.6667C197.291-29.7667 199.752-32.0795 199.752-35.1574C199.752-38.1879 197.291-40.5481 194.261-40.6481Z" />
</svg>