<svg xmlns="http://www.w3.org/2000/svg" viewBox="16.084 -93.4067 116.32 116.37">
  <path d="M35.9773 22.9622L112.512 22.9622C125.628 22.9622 132.405 16.14 132.405 3.21118L132.405-73.6557C132.405-86.5846 125.628-93.4067 112.512-93.4067L35.9773-93.4067C22.9086-93.4067 16.084-86.6295 16.084-73.6557L16.084 3.21118C16.084 16.185 22.9086 22.9622 35.9773 22.9622ZM54.5996-3.35377C52.3203-3.35377 50.5732-5.05599 50.5732-7.34721L50.5732-50.2623L50.6655-53.4621L47.8529-50.4597L40.8987-43.4265C40.2346-42.6676 39.0961-42.23 38.0948-42.23C35.7207-42.23 34.0974-43.8862 34.0974-46.143C34.0974-47.2222 34.6535-48.3053 35.3649-49.1011L51.6404-65.7373C53.2267-67.3816 56.0554-67.3697 57.6522-65.7373L73.9871-49.1011C74.7724-48.2828 75.1267-47.1972 75.1267-46.143C75.1267-43.8862 73.5404-42.23 71.2242-42.23C70.1425-42.23 69.1543-42.6451 68.3834-43.4265L61.4767-50.4597L58.5481-53.4937L58.6405-50.3098L58.6405-7.34721C58.6405-5.07846 56.8908-3.35377 54.5996-3.35377ZM94.0262-67.1038C96.258-67.1038 98.0077-65.3791 98.0077-63.1103L98.0077-20.1478L97.9153-16.948L100.87-19.9979L107.777-27.0785C108.511-27.8124 109.58-28.2276 110.581-28.2276C112.955-28.2276 114.531-26.5713 114.531-24.2671C114.531-23.2604 114.162-22.1747 113.381-21.3564L97.0354-4.7202C95.4491-3.0984 92.6203-3.06543 91.0235-4.7202L74.781-21.3564C74.0207-22.1747 73.5016-23.2354 73.5016-24.2671C73.5016-26.5713 75.1353-28.2276 77.4515-28.2276C78.5332-28.2276 79.6163-27.8124 80.2923-27.0785L87.2465-19.9979L90.0552-17.0588L89.9629-20.1952L89.9629-63.1103C89.9629-65.4016 91.6875-67.1038 94.0262-67.1038Z"/>
</svg>