<svg xmlns="http://www.w3.org/2000/svg" viewBox="11.2588 -99.6475 128.8 128.76">
  <path d="M75.6366 29.1081C111.202 29.1081 140.062 0.295961 140.062-35.2697C140.062-70.8354 111.202-99.6475 75.6366-99.6475C40.1184-99.6475 11.2588-70.8354 11.2588-35.2697C11.2588 0.295961 40.1184 29.1081 75.6366 29.1081ZM75.6366 17.9943C46.1876 17.9943 22.3976-5.82067 22.3976-35.2697C22.3976-64.7187 46.1876-88.5337 75.6366-88.5337C105.086-88.5337 128.901-64.7187 128.901-35.2697C128.901-5.82067 105.086 17.9943 75.6366 17.9943ZM49.6031-8.04462C51.8875-8.04462 53.6633-9.82043 53.6633-12.1523L53.6633-58.4321C53.6633-60.8113 51.8875-62.5397 49.6031-62.5397C47.1789-62.5397 45.4255-60.8113 45.4255-58.4321L45.4255-12.1523C45.4255-9.82043 47.1789-8.04462 49.6031-8.04462ZM114.051-35.2447C114.051-37.7056 112.275-39.4274 109.783-39.4274L81.781-39.4274L70.8483-38.8029L82.3264-49.2231L87.036-53.8508C87.8819-54.6637 88.3232-55.7573 88.3232-56.9311C88.3232-59.3039 86.5315-60.9638 84.1985-60.9638C83.1088-60.9638 81.9981-60.5566 81.1247-59.6502L59.8569-38.3511C59.0176-37.5462 58.4775-36.4 58.4775-35.2447C58.4775-34.0895 58.9702-32.9657 59.8569-32.1383L81.0349-11.0609C81.8702-10.2045 83.1588-9.6205 84.2684-9.6205C86.6264-9.6205 88.3232-11.2804 88.3232-13.6901C88.3232-14.9588 87.8714-15.9681 87.036-16.781L82.259-21.3313L70.8008-31.6865L81.781-31.0146L109.783-31.0146C112.275-31.0146 114.051-32.7114 114.051-35.2447Z" />
</svg>