<svg xmlns="http://www.w3.org/2000/svg" viewBox="16.084 -93.4067 116.32 116.37">
  <path d="M35.9773 22.9622L112.512 22.9622C125.628 22.9622 132.405 16.14 132.405 3.21118L132.405-73.6557C132.405-86.5846 125.628-93.4067 112.512-93.4067L35.9773-93.4067C22.9086-93.4067 16.084-86.6295 16.084-73.6557L16.084 3.21118C16.084 16.185 22.9086 22.9622 35.9773 22.9622ZM55.9123-5.73095C53.6361-5.73095 51.9077-7.02208 51.9077-9.24285C51.9077-9.85548 52.0461-10.4735 52.2859-11.2285L55.304-20.3205L51.2704-20.3205C50.179-20.3205 49.3473-21.2471 49.3473-22.3015C49.3473-23.323 50.179-24.2496 51.2704-24.2496L56.5787-24.2496L59.0036-31.6384L51.2704-31.6384C50.179-31.6384 49.3473-32.5425 49.3473-33.597C49.3473-34.6514 50.179-35.52 51.2704-35.52L60.2783-35.52L68.469-60.649C69.4015-63.4238 71.3325-64.9954 74.3841-64.9954C77.4806-64.9954 79.2388-63.5267 80.1463-60.649L88.4069-35.52L97.4148-35.52C98.5062-35.52 99.4328-34.6514 99.4328-33.597C99.4328-32.5425 98.5062-31.6384 97.4148-31.6384L89.6816-31.6384L92.1065-24.2496L97.4148-24.2496C98.5062-24.2496 99.4328-23.323 99.4328-22.3015C99.4328-21.2471 98.5062-20.3205 97.4148-20.3205L93.4286-20.3205L96.4217-11.3483C96.6616-10.6883 96.7999-9.95037 96.7999-9.24285C96.7999-6.95073 94.9922-5.73095 92.8399-5.73095C90.6229-5.73095 89.5099-6.85216 88.9737-8.71863L85.3416-20.3205L63.3436-20.3205L59.7339-8.76608C59.1977-6.73481 57.978-5.73095 55.9123-5.73095ZM64.5274-24.2496L84.1828-24.2496L81.8818-31.6384L66.8034-31.6384ZM68.0096-35.52L80.723-35.52L74.4975-55.7787L74.2127-55.7787Z"/>
</svg>