<svg xmlns="http://www.w3.org/2000/svg" viewBox="16.084 -109.535 73.95 148.52">
  <path d="M32.6025 38.9878L73.5113 38.9878C83.8049 38.9878 90.0298 33.0422 90.0298 23.1173L90.0298-93.6422C90.0298-103.567 83.8049-109.535 73.5113-109.535L32.6025-109.535C22.2614-109.535 16.084-103.567 16.084-93.6422L16.084 23.1173C16.084 33.0422 22.2614 38.9878 32.6025 38.9878ZM56.9335-86.3063C54.6056-86.3063 52.7828-88.1292 52.7828-90.4466C52.7828-92.785 54.6056-94.5854 56.9335-94.5854L70.785-94.5854C73.1023-94.5854 74.9252-92.785 74.9252-90.4466C74.9252-88.1292 73.1023-86.3063 70.785-86.3063ZM36.9878-61.0958C33.4432-61.0958 30.6447-63.9417 30.6447-67.5338C30.6447-70.9981 33.4432-73.9244 36.9878-73.9244C40.568-73.9244 43.4139-70.9981 43.4139-67.5338C43.4139-63.9417 40.568-61.0958 36.9878-61.0958ZM53.0332-61.0958C49.478-61.0958 46.6901-63.9417 46.6901-67.5338C46.6901-70.9981 49.4675-73.9244 53.0332-73.9244C56.6239-73.9244 59.4013-70.9981 59.4013-67.5338C59.4013-63.9417 56.6134-61.0958 53.0332-61.0958ZM69.2064-61.0958C65.6038-61.0958 62.8158-63.9417 62.8158-67.5338C62.8158-70.9981 65.5932-73.9244 69.2064-73.9244C72.7036-73.9244 75.527-70.9981 75.527-67.5338C75.527-63.9417 72.7036-61.0958 69.2064-61.0958ZM36.9878-42.964C33.4432-42.964 30.6447-45.7399 30.6447-49.2846C30.6447-52.7489 33.4432-55.6752 36.9878-55.6752C40.568-55.6752 43.4139-52.7489 43.4139-49.2846C43.4139-45.7399 40.568-42.964 36.9878-42.964ZM53.0332-42.964C49.478-42.964 46.6901-45.7399 46.6901-49.2846C46.6901-52.7489 49.4675-55.6752 53.0332-55.6752C56.6239-55.6752 59.4013-52.7489 59.4013-49.2846C59.4013-45.7399 56.6134-42.964 53.0332-42.964ZM69.2064-42.964C65.6038-42.964 62.8158-45.7399 62.8158-49.2846C62.8158-52.7489 65.5932-55.6752 69.2064-55.6752C72.7036-55.6752 75.527-52.7489 75.527-49.2846C75.527-45.7399 72.7036-42.964 69.2064-42.964ZM36.9878-24.7147C33.4432-24.7147 30.6447-27.5132 30.6447-31.1053C30.6447-34.605 33.4432-37.4259 36.9878-37.4259C40.568-37.4259 43.4139-34.605 43.4139-31.1053C43.4139-27.5132 40.568-24.7147 36.9878-24.7147ZM53.0332-24.7147C49.478-24.7147 46.6901-27.5831 46.6901-31.1053C46.6901-34.6855 49.478-37.4259 53.0332-37.4259C56.6134-37.4259 59.4013-34.6855 59.4013-31.1053C59.4013-27.5831 56.6134-24.7147 53.0332-24.7147ZM69.2064-24.7147C65.6038-24.7147 62.8158-27.5831 62.8158-31.1053C62.8158-34.6855 65.6038-37.4259 69.2064-37.4259C72.7036-37.4259 75.527-34.6855 75.527-31.1053C75.527-27.5831 72.7036-24.7147 69.2064-24.7147ZM35.6102 18.2943C32.8592 18.2943 30.6447 16.0693 30.6447 13.2919L30.6447-9.53854C30.6447-12.2685 32.8592-14.504 35.6102-14.504C38.3177-14.504 40.5532-12.2685 40.5532-9.53854L40.5532 13.2919C40.5532 16.0693 38.3177 18.2943 35.6102 18.2943ZM49.8982-0.483345C47.7102-0.483345 46.4488-1.83422 46.4488-4.00125L46.4488-8.23961C46.4488-10.3961 47.7102-11.7365 49.8982-11.7365L56.2156-11.7365C58.4616-11.7365 59.6425-10.3961 59.6425-8.23961L59.6425-4.00125C59.6425-1.83422 58.4616-0.483345 56.2156-0.483345ZM49.8982 15.4793C47.7207 15.4793 46.4488 14.1969 46.4488 12.0299L46.4488 7.80206C46.4488 5.62452 47.7102 4.29466 49.8982 4.29466L56.2156 4.29466C58.4616 4.29466 59.6425 5.62452 59.6425 7.80206L59.6425 12.0299C59.6425 14.1969 58.4616 15.4793 56.2156 15.4793ZM70.584 18.2943C67.8541 18.2943 65.6186 16.0693 65.6186 13.2919L65.6186-9.53854C65.6186-12.2685 67.8541-14.504 70.584-14.504C73.335-14.504 75.527-12.2685 75.527-9.53854L75.527 13.2919C75.527 16.0693 73.335 18.2943 70.584 18.2943Z"/>
</svg>