<svg xmlns="http://www.w3.org/2000/svg" viewBox="14.869 -105.02 118.48 137.96">
  <path d="M21.9073-61.6749L27.6297-59.5671C32.6151-57.7696 37.1651-60.0254 39.0246-65.1506L47.8987-89.5361C49.8031-94.6838 47.7027-99.2798 42.7753-101.114L37.0529-103.175C32.0675-105.02 27.5399-102.752 25.6355-97.6266L16.7839-73.2636C14.869-68.1054 17.0023-63.5094 21.9073-61.6749ZM105.449-61.6749L111.171-59.5671C116.156-57.7696 120.706-60.0254 122.588-65.1506L131.44-89.5361C133.344-94.6838 131.244-99.2798 126.317-101.114L120.594-103.175C115.631-105.02 111.104-102.752 109.199-97.6266L100.348-73.2187C98.4552-68.1054 100.566-63.4869 105.449-61.6749ZM39.7726-76.1779L108.564-76.1779L108.564-86.7269L39.7726-86.7269ZM68.7551-18.6199C70.3976-19.1688 72.1637-19.4953 74.1222-19.4953C75.9861-19.4953 77.6786-19.2109 79.2791-18.725L79.2791-86.7269L68.7551-86.7269ZM29.3107 32.9369L35.5821 32.9369C40.8773 32.9369 44.3506 29.2118 44.3506 23.7888L44.3506-2.15878C44.3506-7.55682 40.8773-11.249 35.5821-11.249L29.3107-11.249C24.0156-11.249 20.4948-7.55682 20.4948-2.15878L20.4948 23.7888C20.4948 29.2118 24.0156 32.9369 29.3107 32.9369ZM112.642 32.9369L118.913 32.9369C124.208 32.9369 127.682 29.2118 127.682 23.7888L127.682-2.15878C127.682-7.55682 124.208-11.249 118.913-11.249L112.642-11.249C107.369-11.249 103.896-7.55682 103.896-2.15878L103.896 23.7888C103.896 29.2118 107.369 32.9369 112.642 32.9369ZM39.7936 16.1139L51.652 16.1139L51.652 10.7601C51.652 8.80806 52.0429 7.09299 52.7538 5.60697L39.7936 5.60697ZM96.5925 16.1139L108.543 16.1139L108.543 5.60697L95.5012 5.60697C96.2345 7.09299 96.5925 8.80806 96.5925 10.7601ZM63.5902 32.9373L84.6542 32.9373C88.4361 32.9373 90.4041 30.9337 90.4041 26.8077L90.4041 10.5178C90.4041 7.03615 88.9975 5.13797 86.2211 4.61349L86.2211 0.114726C86.2211-7.7844 81.4451-12.8979 74.1222-12.8979C66.8468-12.8979 62.0234-7.7844 62.0234 0.114726L62.0234 4.61349C59.2245 5.13797 57.7704 6.98871 57.7704 10.5178L57.7704 26.8077C57.7704 30.9337 59.7859 32.9373 63.5902 32.9373ZM67.0914 4.42371L67.0914-0.407154C67.0914-4.93016 69.8499-7.83902 74.1222-7.83902C78.3945-7.83902 81.178-4.93016 81.178-0.407154L81.178 4.42371Z"/>
</svg>