<svg xmlns="http://www.w3.org/2000/svg" viewBox="-1.80887 -99.6475 141.87 128.76">
  <path d="M3.55961-47.5556C-0.693858-47.5556-1.80887-44.3978 0.575077-41.1202L14.9194-21.0565C16.7816-18.4415 19.6622-18.4415 21.4875-21.0565L35.8213-41.1452C38.1473-44.3978 37.0428-47.5556 32.8473-47.5556ZM140.062-35.2697C140.062-70.8354 111.192-99.6475 75.6366-99.6475C40.1184-99.6475 11.3062-70.8828 11.2588-35.1788C11.3062-32.123 13.8048-29.6693 16.8157-29.6693C19.8516-29.6693 22.3976-32.1704 22.3976-35.2262C22.3976-64.7187 46.1876-88.5337 75.6366-88.5337C105.086-88.5337 128.901-64.7187 128.901-35.2697C128.901-5.82067 105.086 17.9943 75.6366 17.9943C57.9076 17.9943 42.4163 9.31427 32.855-4.00115C30.6664-6.57901 27.4646-7.37854 24.8012-5.51413C22.3143-3.7588 21.704-0.0759929 24.1085 2.78886C35.8115 18.8719 54.5967 29.1081 75.6366 29.1081C111.192 29.1081 140.062 0.295961 140.062-35.2697ZM62.8747-7.99862L78.8503-7.99862C89.4243-7.99862 97.6916-12.8905 97.6916-23.2431C97.6916-30.8793 92.203-35.9638 84.7334-36.697L84.7334-37.123C90.5907-37.9416 94.9399-43.3101 94.9399-49.1887C94.9399-58.4058 87.1559-62.7936 78.6673-62.7936L62.8747-62.7936C59.9077-62.7936 58.2699-60.8885 58.2699-58.077L58.2699-12.6454C58.2699-9.90373 59.9552-7.99862 62.8747-7.99862ZM65.9157-39.1755L65.9157-56.5526L76.8059-56.5526C82.7691-56.5526 87.3453-54.0549 87.3453-48.1826C87.3453-41.6906 82.0284-39.1755 75.4017-39.1755ZM65.9157-14.1922L65.9157-33.2501L76.7436-33.2501C83.8989-33.2501 89.8338-30.8948 89.8338-23.7619C89.8338-16.7704 84.3699-14.1922 77.2674-14.1922ZM75.4264-0.836583C76.6087-0.836583 77.3389-1.61428 77.3389-2.77161L77.3389-68.4013C77.3389-69.5586 76.5612-70.3363 75.4264-70.3363C74.2915-70.3363 73.5138-69.5586 73.5138-68.4013L73.5138-2.77161C73.5138-1.61428 74.2915-0.836583 75.4264-0.836583Z" />
</svg>