<svg xmlns="http://www.w3.org/2000/svg" viewBox="11.2588 -99.6475 128.8 128.76">
  <path d="M75.6366 29.1081C111.202 29.1081 140.062 0.295961 140.062-35.2697C140.062-70.8354 111.202-99.6475 75.6366-99.6475C40.1184-99.6475 11.2588-70.8354 11.2588-35.2697C11.2588 0.295961 40.1184 29.1081 75.6366 29.1081ZM75.6366 17.9943C46.1876 17.9943 22.3976-5.82067 22.3976-35.2697C22.3976-64.7187 46.1876-88.5337 75.6366-88.5337C105.086-88.5337 128.901-64.7187 128.901-35.2697C128.901-5.82067 105.086 17.9943 75.6366 17.9943ZM42.3576-35.2367C42.3576-19.9709 53.1359-6.78794 67.4013-2.99122C68.2269-5.34873 68.7887-7.78667 69.0644-10.2365L67.7929-10.3039C66.6435-10.3489 65.7712-11.3494 65.7937-12.5329C65.8161-13.6229 66.7573-14.6694 67.9752-14.6245L69.1647-14.5571C69.1293-15.996 68.9789-17.4243 68.7482-18.8631L67.568-18.5849C66.4291-18.2752 65.2706-19.0135 64.9939-20.1245C64.754-21.3069 65.396-22.4694 66.486-22.7566L67.6556-23.0348C67.1822-24.5331 66.5954-25.9139 65.9042-27.3173L65.0058-26.787C63.9632-26.2255 62.7309-26.5867 62.1549-27.6372C61.5355-28.6008 61.8677-29.9701 62.9696-30.5316L63.7901-31.0419C62.8801-32.3199 61.9147-33.586 60.82-34.7492L60.1274-34.0591C59.2892-33.2208 58.0383-33.2683 57.1751-34.0841C56.3368-34.8419 56.2694-36.2311 57.0947-37.0564L57.7174-37.749C56.7175-38.5905 55.508-39.3725 54.4158-40.0767L53.7671-38.8317C53.1701-37.7417 51.9048-37.4305 50.9756-37.9616C49.8616-38.4901 49.494-39.7659 50.058-40.8784L50.6817-42.1354C48.4046-43.2073 46.0826-43.8981 43.6802-44.3831C42.8416-41.4732 42.3576-38.3879 42.3576-35.2367ZM75.6366-1.91026C89.3032-1.91026 101.256-10.4814 106.375-22.4921C103.708-23.047 101.132-23.8538 98.6951-24.9836L98.0678-23.8118C97.4918-22.7797 96.2399-22.3776 95.1708-22.8942C94.1598-23.4582 93.7722-24.7815 94.3587-25.8835L94.8911-26.9474C93.3733-27.8704 91.8765-28.9766 90.4391-30.1279L89.5241-29.1904C88.6978-28.3416 87.3865-28.4231 86.5124-29.2154C85.6636-29.9943 85.5368-31.315 86.387-32.1547L87.302-33.0922C86.0255-34.4846 84.8518-36.0289 83.7335-37.6166L82.4864-36.8639C81.4173-36.255 80.164-36.69 79.6025-37.7141C79.0739-38.7712 79.3362-39.9996 80.3697-40.5506L81.6444-41.2808C80.7569-43.0768 80.0317-44.9308 79.4898-46.7493L77.9065-46.3327C76.6781-46.023 75.6315-46.7334 75.3323-47.8972C75.0226-48.9623 75.5841-50.1472 76.8244-50.4675L78.5132-50.884C78.19-52.5866 78.0517-54.3591 78.0162-56.0616L76.6621-56.1065C75.4587-56.1515 74.6654-57.1506 74.6984-58.325C74.7208-59.4979 75.662-60.4865 76.8694-60.4047L78.1165-60.3597C78.4027-63.027 78.9751-65.7206 79.8257-68.3324C78.4451-68.5052 77.0172-68.5857 75.5892-68.5857C62.0281-68.5857 50.0858-60.025 45.0259-48.1302C47.6128-47.5648 50.1192-46.7461 52.5346-45.6282L53.1146-46.6946C53.738-47.7531 54.9215-48.0484 56.0115-47.5438C57.0211-47.0602 57.4457-45.7249 56.8816-44.6454L56.2793-43.5591C57.7985-42.694 59.1899-41.6931 60.5009-40.6104L61.7162-41.7902C62.5584-42.6074 63.7499-42.5705 64.6685-41.7442C65.5781-40.927 65.6072-39.6286 64.8058-38.7574L63.659-37.6356C64.983-36.1956 66.2146-34.6778 67.296-33.0427L68.696-33.7954C69.744-34.3938 70.9604-33.9877 71.5799-32.8977C72.1783-31.9566 71.8671-30.5753 70.8021-30.0138L69.4944-29.2836C70.3675-27.5455 71.0347-25.8075 71.5766-24.0364L72.8702-24.395C73.9971-24.6718 75.1451-24.0115 75.4549-22.8779C75.7646-21.6731 75.0528-20.5001 73.9627-20.2234L72.6112-19.8647C72.9449-18.0568 73.0832-16.2158 73.1187-14.4448L74.5307-14.3999C75.6906-14.355 76.5749-13.3084 76.5524-12.171C76.53-10.986 75.6008-10.0094 74.3709-10.1018L72.9709-10.1467C72.6847-7.47945 72.0649-4.79774 71.2144-2.22143C72.6898-1.99068 74.1282-1.91026 75.6366-1.91026ZM108.963-35.2367C108.963-50.637 98.0899-63.8674 83.7231-67.5851C82.8975-65.1577 82.3357-62.7303 82.027-60.2594L83.3999-60.192C84.5584-60.147 85.4466-59.1255 85.4242-57.963C85.4017-56.7451 84.483-55.837 83.2532-55.8819L81.9701-55.9493C82.0056-54.6264 82.156-53.2665 82.3762-51.9211L83.1836-52.0834C84.3421-52.3931 85.4466-51.7052 85.7933-50.5083C86.0925-49.4049 85.4347-48.2439 84.2537-47.9342L83.4108-47.7139C83.8947-46.2526 84.4816-44.8138 85.2307-43.2945L86.0711-43.8024C87.1626-44.4219 88.4514-43.9868 88.9905-42.9747C89.5889-41.8267 89.2357-40.6892 88.1653-40.1013L87.3343-39.6384C88.1968-38.3498 89.1517-37.1193 90.1515-35.9417L91.018-36.878C91.9497-37.7967 93.1781-37.7282 94.0652-36.9005C94.8575-36.1637 95.0393-34.8074 94.0982-33.8558L93.2437-32.9788C94.3489-32.0319 95.5465-31.1918 96.8245-30.4297L97.4258-31.5693C98.0017-32.6014 99.2776-33.0759 100.217-32.4644C101.309-31.878 101.699-30.697 101.112-29.6175L100.489-28.371C102.811-27.3466 105.238-26.6084 107.674-26.2182C108.549-29.1057 108.963-32.1185 108.963-35.2367Z" />
</svg>