<svg xmlns="http://www.w3.org/2000/svg" viewBox="11.2588 -99.6475 128.8 128.76">
  <path d="M75.6366 29.1081C111.202 29.1081 140.062 0.295961 140.062-35.2697C140.062-70.8354 111.202-99.6475 75.6366-99.6475C40.1184-99.6475 11.2588-70.8354 11.2588-35.2697C11.2588 0.295961 40.1184 29.1081 75.6366 29.1081ZM75.6366 17.9943C46.1876 17.9943 22.3976-5.82067 22.3976-35.2697C22.3976-64.7187 46.1876-88.5337 75.6366-88.5337C105.086-88.5337 128.901-64.7187 128.901-35.2697C128.901-5.82067 105.086 17.9943 75.6366 17.9943ZM93.9461-55.6244C89.5626-55.6244 86.1847-53.3626 83.4308-47.0377C74.9039-55.9399 60.7897-64.1039 46.5751-65.1482C43.8195-65.3116 43.375-63.3511 43.2945-61.6678C42.2712-46.2013 54.5064-32.9776 70.6792-31.7252C66.3363-21.6253 59.3174-13.1117 52.0292-6.47563C51.0066-5.57547 51.225-4.21012 51.9488-3.16214C55.5347 2.38431 66.7685 5.78522 74.2812 3.20891C75.8598 2.61991 76.1909 1.87151 76.1909 0.526834L76.1909-11.0552C84.7017-11.412 97.5553-16.7053 95.5987-33.6504L95.2212-36.1543C99.006-37.0404 101.964-38.7889 103.771-40.8617L112.444-39.6409C114.422-39.3537 115.346-42.3255 113.31-43.1413L105.668-46.329C105.121-50.9633 100.13-55.6244 93.9461-55.6244ZM67.6626-63.0862C73.2517-60.3027 78.279-56.9218 82.5042-53.2881C84.7064-56.3492 87.2153-58.1662 90.0614-58.9508C86.1151-66.1364 81.0545-71.3462 74.5032-75.1281C72.2682-76.3945 70.0096-75.4589 69.3427-73.0304C68.3903-69.8216 67.8035-66.4342 67.6626-63.0862ZM94.951-46.9826C94.951-48.1255 95.966-49.06 97.0734-49.06C98.2637-49.06 99.2432-48.1255 99.2432-46.9826C99.2432-45.7698 98.2637-44.8827 97.0734-44.8827C95.966-44.8827 94.951-45.7698 94.951-46.9826Z" />
</svg>