<svg xmlns="http://www.w3.org/2000/svg" viewBox="11.2221 -105.532 140.45 140.62">
  <path d="M86.9739-81.7276C91.5939-81.2346 95.9028-80.0004 99.9809-78.2124C101.327-77.6654 102.776-78.1215 103.494-79.3764L112.51-94.9256C113.353-96.3953 112.816-98.1748 111.255-98.8932C103.925-102.334 95.9874-104.627 87.5524-105.361C85.8204-105.463 84.4746-104.197 84.4746-102.465L84.4746-84.4048C84.4746-82.9681 85.4777-81.862 86.9739-81.7276ZM109.49-72.7249C113.075-70.0417 116.29-66.8852 119.021-63.2421C119.91-62.0676 121.347-61.655 122.577-62.4433L138.126-71.3673C139.643-72.257 140.052-74.0365 139.119-75.4733C134.378-82.2049 128.498-88.073 121.777-92.8007C120.34-93.8143 118.528-93.3702 117.685-91.878L108.691-76.3288C107.973-75.0739 108.268-73.6146 109.49-72.7249ZM124.45-53.7328C126.179-49.6546 127.413-45.2863 127.943-40.7467C128.1-39.2875 129.208-38.2843 130.667-38.2843L148.725-38.2843C150.447-38.2843 151.675-39.5603 151.551-41.2923C150.85-49.6812 148.642-57.7141 145.189-65.0192C144.47-66.5904 142.633-67.1044 141.163-66.2147L125.544-57.1508C124.314-56.41 123.903-55.0536 124.45-53.7328ZM127.965-29.7702C127.435-25.1607 126.249-20.7924 124.45-16.7617C123.903-15.4159 124.337-14.037 125.614-13.2962L141.163-4.30227C142.68-3.41253 144.47-3.87915 145.189-5.49779C148.619-12.8174 150.817-20.7553 151.551-29.2022C151.653-30.9342 150.424-32.2326 148.703-32.2326L130.667-32.2326C129.208-32.2326 128.1-31.2295 127.965-29.7702ZM119.021-7.22741C116.337-3.63178 113.086-0.475193 109.468 2.27786C108.293 3.1676 107.951 4.62684 108.669 5.83431L117.685 21.3835C118.528 22.8862 120.318 23.3673 121.754 22.3537C128.545 17.5905 134.356 11.7105 139.071 5.02627C140.052 3.58949 139.618 1.81001 138.149 0.920268L122.577-8.02621C121.347-8.81451 119.91-8.4019 119.021-7.22741ZM99.9809 7.79036C95.9727 9.50847 91.5939 10.6952 86.9844 11.2581C85.4777 11.3925 84.4746 12.4986 84.4746 13.9353L84.4746 32.0405C84.4746 33.82 85.7505 35.0854 87.53 34.9141C95.9294 34.2023 104.01 31.9096 111.325 28.4462C112.886 27.7278 113.353 25.9378 112.51 24.468L103.494 8.9069C102.776 7.65199 101.327 7.19588 99.9809 7.79036ZM75.996 11.2581C71.4563 10.7176 67.1 9.53093 63.0693 7.81283C61.7234 7.19588 60.2747 7.65199 59.5089 8.9069L50.5624 24.4786C49.7201 25.9483 50.1867 27.7278 51.7474 28.4462C59.0076 31.8872 66.993 34.1798 75.4174 34.9141C77.1494 35.0155 78.4478 33.7501 78.4478 32.0181L78.4478 13.9353C78.4478 12.4986 77.4447 11.3925 75.996 11.2581ZM53.5125 2.27786C49.9274-0.405286 46.7129-3.56188 44.0297-7.20494C43.14-8.37943 41.7032-8.7446 40.4258-7.95631L24.8766 0.920268C23.3489 1.81001 22.9403 3.58949 23.884 5.03678C28.6472 11.7579 34.4798 17.5785 41.2483 22.3537C42.6851 23.3673 44.4751 22.9232 45.3174 21.4309L54.2639 5.83431C54.9823 4.5794 54.687 3.1676 53.5125 2.27786ZM38.4723-16.7722C36.7542-20.7924 35.5899-25.1607 35.0375-29.7702C34.9031-31.2295 33.7971-32.2326 32.3603-32.2326L14.2196-32.2326C12.4876-32.2326 11.2221-30.9567 11.3935-29.2246C12.1053-20.7303 14.3505-12.7449 17.8389-5.39239C18.5573-3.8317 20.2644-3.29518 21.7816-4.18492L37.3782-13.2488C38.6661-13.9896 39.0892-15.4159 38.4723-16.7722ZM35.015-40.7467C35.545-45.2983 36.7317-49.6546 38.4828-53.6748C39.0773-55.0312 38.6436-56.4574 37.3558-57.1983L21.7591-66.1922C20.2419-67.0819 18.5099-66.5454 17.7915-64.9847C14.373-57.6547 12.1278-49.7392 11.3935-41.3148C11.292-39.5827 12.51-38.2843 14.2895-38.2843L32.3603-38.2843C33.8195-38.2843 34.8806-39.2875 35.015-40.7467ZM44.0072-63.2421C46.6904-66.8377 49.847-70.0417 53.4901-72.7474C54.687-73.6371 54.9823-75.0963 54.2639-76.3513L45.27-91.9004C44.4277-93.3807 42.6377-93.8143 41.2009-92.8232C34.4573-88.06 28.6472-82.2049 23.9314-75.4838C22.9403-74.0365 23.3265-72.257 24.8542-71.3673L40.4508-62.4208C41.7057-61.68 43.1175-61.9977 44.0072-63.2421ZM62.9994-78.2124C67.0775-79.978 71.4089-81.1647 75.996-81.7276C77.4447-81.862 78.4478-82.9681 78.4478-84.4048L78.4478-102.488C78.4478-104.22 77.1719-105.532 75.4398-105.361C66.993-104.649 59.0076-102.357 51.6775-98.8932C50.1168-98.1748 49.6502-96.3953 50.4925-94.9256L59.439-79.3539C60.2048-78.099 61.6311-77.6654 62.9994-78.2124ZM53.903-10.4028C56.1809-10.4028 57.5249-11.8363 57.5249-14.1366L57.5249-30.7972L65.0413-30.7972L72.5618-13.1282C73.3642-11.3219 74.2854-10.4028 76.2177-10.4028C78.2572-10.4028 79.6972-11.7309 79.6972-13.7795C79.6972-14.7203 79.298-15.6556 78.9318-16.4342L71.9529-32.3244C77.2901-34.5772 79.8099-39.8742 79.8099-45.8166C79.8099-55.3507 73.8948-60.7 64.6349-60.7L53.8556-60.7C51.6646-60.7 50.3405-59.3296 50.3405-56.9886L50.3405-14.1366C50.3405-11.9206 51.4947-10.4028 53.903-10.4028ZM57.5249-36.3842L57.5249-54.822L63.9339-54.822C69.5936-54.822 72.5585-51.1452 72.5585-45.6678C72.5585-40.2497 69.8783-36.3842 63.9933-36.3842ZM100.022-11.8069C108.831-11.8069 114.839-16.6552 114.839-24.574C114.839-31.949 110.209-35.0571 104.097-37.8735L99.6308-39.9064C95.6019-41.8096 92.4011-44.0189 92.4011-47.959C92.4011-52.2208 95.7142-54.3577 99.9386-54.3577C104.831-54.3577 106.853-51.1707 107.508-47.1773C107.878-45.9069 108.948-44.7169 110.725-44.7169C112.712-44.7169 113.924-46.0041 113.924-47.749C113.924-48.3167 113.777-49.1205 113.586-49.723C111.977-57.08 106.427-59.9273 99.9491-59.9273C91.9551-59.9273 85.7055-55.4185 85.7055-47.5153C85.7055-40.8694 89.5301-37.3527 96.2158-34.2396L100.6-32.1962C104.619-30.306 108.073-28.3456 108.073-23.9588C108.073-19.5163 105.003-17.399 100.08-17.399C94.8708-17.399 92.5076-20.0749 91.6534-24.8974C91.2676-26.5845 89.9668-27.4053 88.5083-27.4053C86.5913-27.4053 85.2038-26.3011 85.2038-24.3167C85.2038-23.7896 85.3302-23.0872 85.4896-22.4004C87.1607-14.8589 93.0232-11.8069 100.022-11.8069ZM99.9821-5.30743C100.875-5.30743 101.489-5.92176 101.489-6.81429L101.489-64.7152C101.489-65.6327 100.875-66.2471 99.9821-66.2471C99.0421-66.2471 98.4278-65.6327 98.4278-64.7152L98.4278-6.81429C98.4278-5.92176 99.0421-5.30743 99.9821-5.30743Z"/>
</svg>