<svg xmlns="http://www.w3.org/2000/svg" viewBox="16.084 -110.196 141.77 148.69">
  <path d="M25.2522 4.12231C25.2522 8.12166 26.3676 11.3509 28.469 13.6505L28.469 29.7317C28.469 34.8305 32.1311 38.4925 37.3577 38.4925L44.7951 38.4925C50.0217 38.4925 53.6837 34.8529 53.6837 29.7317L53.6837 20.0147C63.802 20.7279 74.9744 21.0866 86.9573 21.0866C98.9177 21.0866 110.135 20.7174 120.276 20.0371L120.276 29.7317C120.276 34.8529 123.938 38.4925 129.142 38.4925L136.627 38.4925C141.806 38.4925 145.468 34.8305 145.468 29.7317L145.468 13.6715C147.569 11.3614 148.685 8.13217 148.685 4.12231L148.685-93.2563C148.685-101.73 143.77-106.654 135.045-107.732C121.973-109.403 104.708-110.196 86.9573-110.196C69.162-110.196 51.9892-109.354 38.962-107.732C30.1674-106.633 25.2522-101.709 25.2522-93.2563ZM86.9573 12.268C68.3512 12.268 52.6682 11.4968 41.3796 10.0216C36.0987 9.31373 34.0708 6.63381 34.0708 1.71113L34.0708-90.8451C34.0708-95.6729 36.5257-98.4477 41.3796-99.1556C52.4784-100.631 68.9205-101.424 86.9573-101.402C104.725-101.379 121.144-100.578 132.557-99.1451C137.908-98.4807 139.889-95.7414 139.889-90.8451L139.889 1.71113C139.889 6.65484 137.908 9.35722 132.557 10.0111C120.954 11.4232 105.294 12.268 86.9573 12.268ZM46.5215-22.9163C70.6958-19.2483 103.081-19.2309 127.521-22.9163C131.497-23.5488 133.554-25.9238 133.554-30.1442L133.554-85.0093C133.554-89.7512 131.255-92.4055 126.757-92.8536C101.876-95.3049 72.3949-95.2905 47.296-92.8536C42.8203-92.4055 40.4638-89.7512 40.4638-85.0093L40.4638-30.1442C40.4638-25.9238 42.52-23.5593 46.5215-22.9163ZM25.2522-48.0545L25.2522-86.2455L22.3861-86.2455C18.6648-86.2455 16.084-83.9095 16.084-80.4165L16.084-53.931C16.084-50.3905 18.6648-48.0545 22.3861-48.0545ZM148.685-48.0545L151.551-48.0545C155.295-48.0545 157.853-50.3905 157.853-53.931L157.853-80.4165C157.853-83.9095 155.295-86.2455 151.551-86.2455L148.685-86.2455ZM51.0702 2.2705C55.3367 2.2705 58.5553-0.948099 58.5553-5.23714C58.5553-9.47874 55.3367-12.6973 51.0702-12.6973C46.8286-12.6973 43.5875-9.47874 43.5875-5.23714C43.5875-0.948099 46.8286 2.2705 51.0702 2.2705ZM72.1011 0.177155L101.701 0.177155C104.962 0.177155 107.209-2.06994 107.209-5.34254C107.209-8.57821 104.962-10.7923 101.701-10.7923L72.1011-10.7923C68.818-10.7923 66.5709-8.57821 66.5709-5.34254C66.5709-2.06994 68.818 0.177155 72.1011 0.177155ZM122.889 2.2705C127.109 2.2705 130.397-0.948099 130.397-5.23714C130.397-9.47874 127.109-12.6973 122.889-12.6973C118.648-12.6973 115.429-9.47874 115.429-5.23714C115.429-0.948099 118.648 2.2705 122.889 2.2705Z"/>
</svg>