<svg xmlns="http://www.w3.org/2000/svg" viewBox="11.2588 -99.6475 128.8 128.76">
  <path d="M75.6366 29.1081C111.202 29.1081 140.062 0.295961 140.062-35.2697C140.062-70.8354 111.202-99.6475 75.6366-99.6475C40.1184-99.6475 11.2588-70.8354 11.2588-35.2697C11.2588 0.295961 40.1184 29.1081 75.6366 29.1081ZM75.6366 17.9943C46.1876 17.9943 22.3976-5.82067 22.3976-35.2697C22.3976-64.7187 46.1876-88.5337 75.6366-88.5337C105.086-88.5337 128.901-64.7187 128.901-35.2697C128.901-5.82067 105.086 17.9943 75.6366 17.9943ZM75.5892 8.83482C99.9874 8.83482 119.694-10.919 119.694-35.2697C119.694-59.6204 99.9874-79.3742 75.5892-79.3742C51.2385-79.3742 31.5321-59.6204 31.5321-35.2697C31.5321-10.919 51.2385 8.83482 75.5892 8.83482Z"/>
</svg>