<svg xmlns="http://www.w3.org/2000/svg" viewBox="12.8672 -99.3447 133.25 131.08">
  <path d="M58.3233-8.50452L100.657-8.50452C108.969-8.50452 113.61-13.3959 113.61-21.3403L113.61-31.6518L137.133-31.6518C142.206-31.6518 146.113-34.7089 146.113-39.313C146.113-42.0936 144.727-44.4614 142.02-46.8018L87.7879-95.2351C84.6761-98.0005 82.2871-99.3447 79.4553-99.3447C76.646-99.3447 74.3043-98.0005 71.1926-95.2351L16.9377-46.7544C14.1586-44.319 12.8672-42.0936 12.8672-39.313C12.8672-34.7089 16.774-31.6518 21.8248-31.6518L45.323-31.6518L45.323-21.3403C45.323-13.3959 49.9888-8.50452 58.3233-8.50452ZM60.0757-18.56C57.7896-18.56 56.1407-20.1166 56.1407-22.4027L56.1407-39.2352C56.1407-40.7313 55.6068-41.2652 54.1582-41.2652L28.1304-41.2652C27.5721-41.2652 27.299-41.4935 27.299-41.8445C27.299-42.1862 27.4229-42.4368 27.783-42.7865L77.8304-86.9331C78.521-87.5907 78.9669-87.8059 79.4553-87.8059C80.0135-87.8059 80.412-87.5907 81.1026-86.9331L131.187-42.7865C131.547-42.4368 131.671-42.1862 131.671-41.8445C131.671-41.4935 131.398-41.2652 130.84-41.2652L104.8-41.2652C103.304-41.2652 102.817-40.7313 102.817-39.2352L102.817-22.4027C102.817-20.164 101.143-18.56 98.9047-18.56ZM56.228 31.7314L102.375 31.7314C109.434 31.7314 113.693 27.7161 113.693 20.5207L113.693 11.6941C113.693 4.60384 109.434 0.281276 102.375 0.281276L56.228 0.281276C49.1221 0.281276 44.863 4.65128 44.863 11.6941L44.863 20.5207C44.863 27.6687 49.1221 31.7314 56.228 31.7314ZM58.2637 22.4819C56.2272 22.4819 55.0652 21.3847 55.0652 19.3257L55.0652 12.8666C55.0652 10.8077 56.2272 9.48336 58.2637 9.48336L100.292 9.48336C102.329 9.48336 103.538 10.8077 103.538 12.8666L103.538 19.3257C103.538 21.3847 102.329 22.4819 100.292 22.4819Z"/>
</svg>