<svg xmlns="http://www.w3.org/2000/svg" viewBox="16.084 -118.492 145.28 166.54">
  <path d="M49.1516-23.0547C67.4589-23.0547 76.0628-27.4971 76.0628-38.2205L76.0628-100.866C76.0628-112.095 66.0359-118.492 49.1516-118.492C32.2779-118.492 22.2853-112.085 22.2853-100.866L22.2853-38.2205C22.2853-27.4971 30.8299-23.0547 49.1516-23.0547ZM49.1741-78.268C45.3794-78.268 39.9776-77.9133 38.1841-77.9133C35.1202-77.9133 33.6607-79.2105 33.339-82.4592L32.788-89.2822C32.2475-95.0959 35.9298-97.4919 49.1741-97.4919C62.3709-97.4919 66.0887-95.0959 65.5482-89.2822L64.9867-82.4592C64.7125-79.2105 63.2779-77.9133 60.1415-77.9133C58.3481-77.9133 52.5594-78.268 49.1741-78.268ZM49.1741-37.8479C36.1925-37.8479 32.0212-39.799 32.9583-45.8106L33.4433-49.1882C34.1472-54.0938 37.9664-55.6338 49.1741-55.6338C60.3368-55.6338 64.2709-54.0938 64.9298-49.1882L65.3449-45.8106C66.1422-39.7766 62.0633-37.8479 49.1741-37.8479ZM26.121-80.462L26.121-90.5579L20.3516-90.5579C17.8474-90.5579 16.084-88.672 16.084-86.3014L16.084-84.6406C16.084-82.2805 17.8474-80.462 20.3516-80.462ZM72.2022-80.4094L77.9965-80.4094C80.4309-80.4094 82.2642-82.2174 82.2642-84.5775L82.2642-86.2488C82.2642-88.6894 80.4309-90.4948 77.9965-90.4948L72.2022-90.4948ZM86.577-17.0448C90.8733-21.2832 93.4123-26.6779 93.98-32.605C94.2433-35.2676 92.4805-37.0605 90.2319-37.0156C87.8747-37.0381 86.7774-35.6835 86.3402-33.0473C85.8871-28.9649 84.2508-25.4583 81.2651-22.3672C78.1291-19.3236 74.6345-17.6978 70.9541-17.3396C67.9883-16.9143 66.5693-15.4624 66.5693-13.4149C66.5244-11.1887 68.1894-9.52083 70.5898-9.59442C75.3059-9.71007 81.7693-12.2266 86.577-17.0448ZM98.8535-4.77884C106.278-12.2285 110.319-21.7945 110.888-32.1357C111.051-34.8193 109.194-36.3369 107.141-36.3369C104.826-36.3369 103.446-34.9577 103.251-31.9814C102.829-23.9025 99.5542-16.2073 93.4956-10.1262C87.417-4.11503 79.7193-0.856997 71.6878-0.440786C68.8539-0.235376 67.2705 1.26404 67.2705 3.32963C67.2705 5.68905 68.8999 7.33448 71.5335 7.30294C81.8048 7.20832 91.3708 2.74874 98.8535-4.77884ZM101.337 48.048L155.115 48.048L155.115 15.9144C155.115 4.68484 145.088-1.7599 128.228-1.7599C111.33-1.7599 101.337 4.69536 101.337 15.9144ZM128.251 38.5595C124.479 38.5595 119.029 38.8667 117.236 38.8667C114.125 38.8667 112.712 37.5695 112.438 34.3208L111.84 27.4504C111.347 21.6841 115.007 19.2656 128.251 19.2656C141.4 19.2656 145.093 21.6841 144.6 27.4504L143.991 34.3208C143.717 37.5695 142.282 38.8667 139.241 38.8667C137.447 38.8667 131.636 38.5595 128.251 38.5595ZM105.198 36.2706L105.198 26.2221L99.381 26.2221C96.9241 26.2221 95.1832 28.0605 95.1832 30.4562L95.1832 32.1394C95.1832 34.4521 96.9241 36.2706 99.381 36.2706ZM151.279 36.3232L157.073 36.3232C159.46 36.3232 161.363 34.5152 161.363 32.2025L161.363 30.5087C161.363 28.0907 159.46 26.2852 157.073 26.2852L151.279 26.2852Z"/>
</svg>