<svg xmlns="http://www.w3.org/2000/svg" viewBox="12.0391 -102.119 148.39 133.71">
  <path d="M50.2723-29.8309C50.2723-21.5397 42.8382-16.9557 42.8382-11.3474C42.8382-8.14072 43.6663-6.43816 45.7137-3.65644C48.6281 0.326571 43.0866 4.29619 40.1248 0.507C37.2076-3.18001 35.9093-6.6493 35.9093-10.9891C35.9093-19.4303 43.2275-23.9883 43.2275-29.8309C43.2275-35.8108 35.9093-40.2315 35.9093-48.81C35.9093-53.06 37.2076-56.5293 40.1697-60.2837C43.1765-64.1402 48.7429-60.1482 45.7811-56.1651C43.6663-53.2711 42.8382-51.5685 42.8382-48.4518C42.8382-42.7061 50.2723-38.0548 50.2723-29.8309ZM70.2164-29.8309C70.2164-21.5397 62.7822-16.9557 62.7822-11.3474C62.7822-8.14072 63.6103-6.43816 65.6578-3.65644C68.642 0.326571 63.1006 4.29619 60.1163 0.507C57.1516-3.18001 55.8533-6.6493 55.8533-10.9891C55.8533-19.4303 63.1715-23.9883 63.1715-29.8309C63.1715-35.8108 55.8533-40.2315 55.8533-48.81C55.8533-53.06 57.1516-56.5293 60.1612-60.2837C63.1904-64.1402 68.7094-60.1482 65.7252-56.1651C63.6103-53.2711 62.7822-51.5685 62.7822-48.4518C62.7822-42.7061 70.2164-38.0548 70.2164-29.8309ZM90.2079-29.8309C90.2079-21.5397 82.7962-16.9557 82.7962-11.3474C82.7962-8.14072 83.6243-6.43816 85.6717-3.65644C88.6335 0.326571 83.0446 4.29619 80.1303 0.507C77.1656-3.18001 75.8673-6.6493 75.8673-10.9891C75.8673-19.4303 83.1855-23.9883 83.1855-29.8309C83.1855-35.8108 75.8673-40.2315 75.8673-48.81C75.8673-53.06 77.1656-56.5293 80.1752-60.2837C83.1345-64.1402 88.7009-60.1482 85.7391-56.1651C83.6243-53.2711 82.7962-51.5685 82.7962-48.4518C82.7962-42.7061 90.2079-38.0548 90.2079-29.8309ZM17.1291 4.81439C22.5977 25.3658 28.6732 31.59 41.5919 31.59L114.849 31.59C124.235 31.59 130.552 26.4308 132.893 16.9418L156.795-80.0061C160.428-94.8015 153.004-102.119 143.586-102.119C131.111-102.119 118.88-88.9176 125.231-68.7654L127.184-76.2598C108.313-66.2448 99.6074-42.6377 103.47-14.5284L105.405-17.9897C92.2443-20.6844 75.5228-22.2414 59.0819-22.2414C25.5771-22.2414 12.0391-13.938 17.1291 4.81439Z"/>
</svg>