<svg xmlns="http://www.w3.org/2000/svg" viewBox="13.3516 -102.119 148.39 133.71">
  <path d="M131.362-43.2852C134.274-43.2852 136.024-45.1559 136.024-48.2952L136.024-92.4453C136.024-95.7415 134.111-97.5633 130.955-97.5633C128.698-97.5633 127.319-96.9692 124.874-95.2789L114.067-88.0763C112.761-87.1949 112.231-86.2135 112.231-84.829C112.231-82.8858 113.729-81.3469 115.553-81.3469C116.417-81.3469 117.081-81.4958 118.322-82.4473L126.262-87.5902L126.73-87.5902L126.73-48.2952C126.73-45.2033 128.513-43.2852 131.362-43.2852ZM156.673 4.81439C161.74-13.938 148.202-22.2414 114.697-22.2414C98.2563-22.2414 81.5574-20.6844 68.3963-17.9897L70.3087-14.5284C74.1942-42.6377 65.4882-66.2448 46.6177-76.2598L48.5958-68.7654C54.922-88.9176 42.6686-102.119 30.1928-102.119C20.8453-102.119 13.3516-94.8015 17.0066-80.0061L40.9089 16.9418C43.2498 26.4308 49.5665 31.59 58.93 31.59L132.21 31.59C145.128 31.59 151.181 25.3658 156.673 4.81439Z"/>
</svg>