<svg xmlns="http://www.w3.org/2000/svg" viewBox="11.2588 -98.6402 152.06 126.73">
  <path d="M87.3255-71.4018C98.6581-71.4018 109.047-67.5257 117.355-61.0313C118.726-59.9807 120.472-60.0941 121.752-61.374L136.246-75.8079C137.788-77.3501 137.73-79.5882 136.086-80.959C122.866-92.0117 105.832-98.6402 87.3255-98.6402C68.797-98.6402 51.7146-92.0117 38.5424-80.959C36.8987-79.5882 36.8633-77.3501 38.4054-75.8079L52.8513-61.374C54.1312-60.0941 55.9581-60.0032 57.4094-61.1342C65.6951-67.5257 76.0732-71.4018 87.3255-71.4018ZM11.2588-22.6209C11.2588-3.92936 18.0188 13.2226 29.2096 26.4739C30.5699 28.086 32.8095 28.0874 34.3187 26.5557L49.0267 11.8027C50.1748 10.6797 50.2447 9.11241 49.1981 7.81796C42.4378-0.798478 38.5446-11.2727 38.5446-22.6209C38.5446-33.8956 42.3732-44.2738 48.8347-52.5121C49.9327-53.9633 49.9103-55.7797 48.6199-57.0701L34.1385-71.541C32.6188-73.0607 30.3582-73.0727 28.9874-71.429C17.9123-58.1844 11.2588-41.1719 11.2588-22.6209ZM163.322-22.6209C163.322-41.1824 156.706-58.2159 145.585-71.4711C144.235-73.0832 141.985-73.0607 140.465-71.541L126.009-57.0701C124.718-55.7797 124.696-53.9633 125.794-52.5121C132.255-44.2738 136.084-33.8956 136.084-22.6209C136.084-11.2727 132.191-0.798478 125.383 7.81796C124.384 9.11241 124.454 10.6797 125.554 11.8027L140.285 26.5557C141.794 28.0874 144.044 28.0649 145.425 26.4423C156.62 13.1911 163.322-3.93988 163.322-22.6209ZM87.804 5.14011C97.0124 5.14011 105.679 1.01228 108.634-7.3354C109.013-8.3425 109.228-9.31374 109.228-10.3683C109.228-12.5379 107.806-13.8831 105.683-13.8831C103.724-13.8831 102.639-12.8618 101.988-10.9817C100.197-5.15529 94.5074-1.56039 87.7515-1.56039C76.3267-1.56039 71.2993-11.4876 71.2993-22.5555C71.2993-33.7155 76.639-43.4029 87.704-43.4029C94.3401-43.4029 99.9674-39.3116 101.615-33.8309C102.334-31.9402 103.315-30.977 105.34-30.977C107.406-30.977 108.834-32.2747 108.834-34.4577C108.834-35.8201 108.468-37.0402 107.92-38.2212C104.564-45.96 96.4517-50.1034 87.683-50.1034C72.1707-50.1034 63.2768-38.5503 63.2768-22.545C63.2768-6.80598 71.6726 5.14011 87.804 5.14011ZM87.2675 12.3416C88.3444 12.3416 89.1102 11.5534 89.1102 10.4515L89.1102-55.2456C89.1102-56.3225 88.3444-57.1357 87.2675-57.1357C86.1432-57.1357 85.3655-56.3225 85.3655-55.2456L85.3655 10.4515C85.3655 11.5059 86.1432 12.3416 87.2675 12.3416Z"/>
</svg>