<svg xmlns="http://www.w3.org/2000/svg" viewBox="16.084 -103.077 106.75 135.73">
  <path d="M40.0916-81.7412C37.4989-81.7412 35.9318-80.0567 35.9318-77.3822L35.9318-66.8792C35.9318-64.2496 37.4989-62.5426 40.0916-62.5426L78.2253-62.5426C80.7481-62.5426 82.3732-64.2496 82.3732-66.8792L82.3732-77.3822C82.3732-80.0567 80.7481-81.7412 78.2253-81.7412ZM40.0916-57.1975C37.4989-57.1975 35.9318-55.5604 35.9318-52.9083L35.9318-42.3354C35.9318-39.7428 37.4989-38.0463 40.0916-38.0463L98.9205-38.0463C101.466-38.0463 103.033-39.7428 103.033-42.3579L103.033-52.9083C103.033-55.5604 101.466-57.1975 98.9205-57.1975ZM40.0916-32.6312C37.4989-32.6312 35.9318-31.0152 35.9318-28.4225L35.9318-17.7916C35.9318-15.187 37.4989-13.5275 40.0916-13.5275L88.3793-13.5275C90.927-13.5275 92.4942-15.187 92.4942-17.7916L92.4942-28.4225C92.4942-31.0152 90.927-32.6312 88.3793-32.6312ZM40.0916-8.15734C37.4989-8.15734 35.9318-6.47283 35.9318-3.7983L35.9318 6.70469C35.9318 9.33429 37.4989 11.0413 40.0916 11.0413L68.4104 11.0413C70.9332 11.0413 72.5583 9.33429 72.5583 6.70469L72.5583-3.7983C72.5583-6.47283 70.9332-8.15734 68.4104-8.15734ZM16.084 12.7552C16.084 25.8713 22.8138 32.6485 35.7875 32.6485L103.082 32.6485C116.078 32.6485 122.833 25.8713 122.833 12.7552L122.833-83.1837C122.833-96.2524 116.078-103.077 103.082-103.077L35.7875-103.077C22.8138-103.077 16.084-96.2524 16.084-83.1837ZM26.8183 12.1317L26.8183-82.5603C26.8183-88.9083 30.1158-92.3427 36.6956-92.3427L102.222-92.3427C108.754-92.3427 112.074-88.9083 112.074-82.5603L112.074 12.1317C112.074 18.4798 108.754 21.9142 102.222 21.9142L36.6956 21.9142C30.1158 21.9142 26.8183 18.4798 26.8183 12.1317Z"/>
</svg>