<svg xmlns="http://www.w3.org/2000/svg" viewBox="16.084 -94.6447 160.63 118.23">
  <path d="M29.6683 23.5882L47.8985 23.5882C56.8167 23.5882 61.5302 18.9525 61.5302 10.3621L61.5302-44.8573C61.5302-53.4476 56.8167-58.0359 47.8985-58.0359L29.6683-58.0359C20.82-58.0359 16.084-53.4476 16.084-44.8467L16.084 10.3621C16.084 18.9525 20.82 23.5882 29.6683 23.5882ZM87.2714 23.5882L105.524 23.5882C114.42 23.5882 119.156 18.9525 119.156 10.3621L119.156-63.0908C119.156-71.7037 114.42-76.292 105.524-76.292L87.2714-76.292C78.4231-76.292 73.6397-71.7037 73.6397-63.0803L73.6397 10.3621C73.6397 18.9525 78.4231 23.5882 87.2714 23.5882ZM144.85 23.5882L163.08 23.5882C171.976 23.5882 176.712 18.9525 176.712 10.3621L176.712-81.4436C176.712-90.0564 171.976-94.6447 163.08-94.6447L144.85-94.6447C135.979-94.6447 131.265-90.0564 131.265-81.433L131.265 10.3621C131.265 18.9525 135.979 23.5882 144.85 23.5882Z" />
</svg>