<svg xmlns="http://www.w3.org/2000/svg" viewBox="16.084 -94.4297 136.81 118.7">
  <path d="M16.084 19.3357C16.084 22.3203 18.0355 24.2718 21.0201 24.2718L147.487 24.2718C150.481 24.2718 152.896 22.0091 152.896 18.9271C152.896 15.8926 150.481 13.5824 147.487 13.5824L28.4617 13.5824C27.2544 13.5824 26.8183 13.1937 26.8183 11.9639L26.8183-88.998C26.8183-91.9666 24.5555-94.4297 21.4736-94.4297C18.3942-94.4297 16.084-91.9666 16.084-88.998ZM62.7196-36.3691C69.0019-36.3691 74.0203-41.435 74.0203-47.7173C74.0203-53.9297 69.0019-59.018 62.7196-59.018C56.4597-59.018 51.4189-53.9297 51.4189-47.7173C51.4189-41.435 56.4597-36.3691 62.7196-36.3691ZM93.0931-12.381C99.3754-12.381 104.441-17.4693 104.441-23.6817C104.441-29.9416 99.3754-35.0299 93.0931-35.0299C86.8807-35.0299 81.7924-29.9416 81.7924-23.6817C81.7924-17.4693 86.8807-12.381 93.0931-12.381ZM140.473-41.5933C146.708-41.5933 151.774-46.6591 151.774-52.894C151.774-59.1538 146.708-64.2421 140.473-64.2421C134.214-64.2421 129.173-59.1538 129.173-52.894C129.173-46.6591 134.214-41.5933 140.473-41.5933ZM25.9851-22.9133L63.1747-44.4529L90.0359-21.2907C92.1067-19.5372 94.2225-19.3778 96.5555-20.765L141.67-48.3487C143.537-49.4775 144.166-51.9501 143.004-53.8745C141.923-55.7225 139.45-56.3376 137.547-55.2232L93.6968-28.4352L66.8935-51.505C64.8227-53.2809 62.7649-53.4628 60.3739-52.0861L21.986-29.8538C20.109-28.7604 19.4214-26.3103 20.5977-24.3859C21.5987-22.505 24.0488-21.8568 25.9851-22.9133Z" />
</svg>