<svg xmlns="http://www.w3.org/2000/svg" viewBox="11.2588 -99.6475 128.8 128.76">
  <path d="M75.6366 29.1081C111.202 29.1081 140.062 0.295961 140.062-35.2697C140.062-70.8354 111.202-99.6475 75.6366-99.6475C40.1184-99.6475 11.2588-70.8354 11.2588-35.2697C11.2588 0.295961 40.1184 29.1081 75.6366 29.1081ZM75.6366 17.9943C46.1876 17.9943 22.3976-5.82067 22.3976-35.2697C22.3976-64.7187 46.1876-88.5337 75.6366-88.5337C105.086-88.5337 128.901-64.7187 128.901-35.2697C128.901-5.82067 105.086 17.9943 75.6366 17.9943ZM52.9377-12.3791L94.9427-12.3791C105.77-12.3791 114.208-20.5609 114.208-31.0206C114.208-41.7569 105.57-49.7406 93.9984-49.6233C89.8032-58.1999 82.0182-63.3452 72.2627-63.3452C59.7169-63.3452 49.303-53.6066 48.1195-40.9366C41.6409-39.0477 37.1128-33.6281 37.1128-26.8051C37.1128-18.4252 43.3783-12.3791 52.9377-12.3791Z" />
</svg>