<svg xmlns="http://www.w3.org/2000/svg" viewBox="14.8385 -114.479 167.44 157.54">
  <path d="M95.5244 43.0566L133.764 43.0566C144.791 43.0566 152.198 35.3326 151.731 24.2959L149.988-14.7668L142.153-11.053L146.821 9.15765C148.126 14.971 152.695 15.852 158.442 14.2389L173.629 9.91721C179.878 8.0856 182.281 3.23567 180.372-3.54019L156.585-89.0266C155.05-94.5354 151.734-98.2592 145.908-100.37L129.815-106.288L134.993-92.6575C137.074-87.3449 136.276-83.1982 133.198-78.4909L95.4874-19.4902ZM113.491 0.445207C109.581 0.445207 106.559-2.61364 106.639-6.48683C106.639-10.4524 109.628-13.4783 113.491-13.4783C117.434-13.4783 120.446-10.372 120.446-6.48683C120.446-2.61364 117.376 0.445207 113.491 0.445207ZM113.491 28.7889C109.581 28.7889 106.559 25.6721 106.639 21.775C106.639 17.8438 109.628 14.8429 113.491 14.8429C117.434 14.8429 120.446 17.9137 120.446 21.775C120.446 25.6721 117.376 28.7889 113.491 28.7889ZM95.7715-34.7871L124.538-81.0613C127.107-84.9283 127.572-88.4121 125.81-92.8882L119.565-109.487C118.207-113.018 116.277-114.479 113.467-114.479C110.309-114.479 108.051-112.027 107.425-107.91ZM63.9214-78.4909C60.8651-83.1532 60.0673-87.3449 62.1265-92.6575L67.3043-106.288L51.2107-100.323C45.2941-98.1643 42.0215-94.5354 40.4862-88.9792L16.6995-3.49275C14.8385 3.23567 17.0987 8.13304 23.4906 9.96465L38.8192 14.2389C44.6611 15.852 49.1665 14.971 50.4883 9.15765L55.5345-12.8402L47.4448-18.3244L45.53 24.2959C45.0518 35.3326 52.5182 43.0566 63.5444 43.0566L86.5641 43.0566L86.5641-43.0007ZM90.6379-52.1448L94.555-81.7296L89.7167-107.91C89.0204-112.312 86.6901-114.479 83.675-114.479C80.8418-114.479 79.0294-113.208 77.5765-109.487L71.3086-92.8882C69.5472-88.4121 70.0592-84.9283 72.5812-81.0613Z"/>
</svg>