<svg xmlns="http://www.w3.org/2000/svg" viewBox="16.084 -118.073 111.09 165.61">
  <path d="M35.9773 19.2774L66.7775 19.2774L66.7775-89.8168L35.9773-89.8168C22.9086-89.8168 16.084-83.0396 16.084-70.0658L16.084-0.473587C16.084 12.5002 22.9086 19.2774 35.9773 19.2774ZM36.3905 8.70592C30.0424 8.70592 26.608 5.40845 26.608-1.12396L26.608-69.4154C26.608-75.9479 30.0424-79.2453 36.3905-79.2453L56.2535-79.2453L56.2535 8.70592ZM107.28 19.2774C120.348 19.2774 127.173 12.4553 127.173-0.473587L127.173-70.0658C127.173-82.9947 120.348-89.8168 107.28-89.8168L76.4251-89.8168L76.4251 19.2774ZM106.866 8.70592L86.9491 8.70592L86.9491-79.2453L106.866-79.2453C113.077-79.2453 116.601-75.9479 116.601-69.4154L116.601-1.12396C116.601 5.40845 113.077 8.70592 106.866 8.70592ZM71.6013-118.073C68.9134-118.073 66.7775-115.959 66.7775-113.249L66.7775-89.8168L76.4251-89.8168L76.4251-113.249C76.4251-115.959 74.3117-118.073 71.6013-118.073ZM71.6013 47.5331C74.3117 47.5331 76.4251 45.4198 76.4251 42.7094L76.4251 19.2774L66.7775 19.2774L66.7775 42.7094C66.7775 45.4198 68.9134 47.5331 71.6013 47.5331Z"/>
</svg>