<svg xmlns="http://www.w3.org/2000/svg" viewBox="16.084 -97.096 146.85 123.65">
  <path d="M35.5059 26.5566L143.467 26.5566C156.393 26.5566 162.937 20.1304 162.937 7.32437L162.937-54.6946C162.937-67.5007 156.393-73.9268 143.467-73.9268L35.5059-73.9268C22.6749-73.9268 16.084-67.5007 16.084-54.6946L16.084 7.32437C16.084 20.1304 22.6749 26.5566 35.5059 26.5566ZM57.2052-69.2705L67.1712-69.2705L67.1712-80.563C67.1712-85.1954 69.938-87.8249 74.7276-87.8249L104.223-87.8249C109.083-87.8249 111.802-85.1849 111.802-80.563L111.802-69.3654L121.815-69.3654L121.815-80.5037C121.815-91.6589 115.655-97.096 104.472-97.096L74.4574-97.096C63.7716-97.096 57.2052-91.6589 57.2052-80.5037ZM59.9286-18.5591L59.9286-28.9815C59.9286-32.5057 62.3352-34.9492 65.8963-34.9492L78.3209-34.9492L78.3209-47.2789C78.3209-50.898 80.7169-53.294 84.2991-53.294L94.6741-53.294C98.2457-53.294 100.652-50.898 100.652-47.2789L100.652-34.9492L113.066-34.9492C116.638-34.9492 119.045-32.5057 119.045-28.9815L119.045-18.5591C119.045-15.0349 116.638-12.5808 113.066-12.5808L100.652-12.5808L100.652-0.214231C100.652 3.41537 98.2457 5.80092 94.6741 5.80092L84.2991 5.80092C80.7169 5.80092 78.3209 3.41537 78.3209-0.214231L78.3209-12.5808L65.9068-12.5808C62.3826-12.5808 59.9286-15.0349 59.9286-18.5591Z"/>
</svg>