<svg xmlns="http://www.w3.org/2000/svg" viewBox="11.2588 -98.6402 152.06 126.73">
  <path d="M87.3255-71.4018C98.6581-71.4018 109.047-67.5257 117.355-61.0313C118.726-59.9807 120.472-60.0941 121.752-61.374L136.246-75.8079C137.788-77.3501 137.73-79.5882 136.086-80.959C122.866-92.0117 105.832-98.6402 87.3255-98.6402C68.797-98.6402 51.7146-92.0117 38.5424-80.959C36.8987-79.5882 36.8633-77.3501 38.4054-75.8079L52.8513-61.374C54.1312-60.0941 55.9581-60.0032 57.4094-61.1342C65.6951-67.5257 76.0732-71.4018 87.3255-71.4018ZM11.2588-22.6209C11.2588-3.92936 18.0188 13.2226 29.2096 26.4739C30.5699 28.086 32.8095 28.0874 34.3187 26.5557L49.0267 11.8027C50.1748 10.6797 50.2447 9.11241 49.1981 7.81796C42.4378-0.798478 38.5446-11.2727 38.5446-22.6209C38.5446-33.8956 42.3732-44.2738 48.8347-52.5121C49.9327-53.9633 49.9103-55.7797 48.6199-57.0701L34.1385-71.541C32.6188-73.0607 30.3582-73.0727 28.9874-71.429C17.9123-58.1844 11.2588-41.1719 11.2588-22.6209ZM163.322-22.6209C163.322-41.1824 156.706-58.2159 145.585-71.4711C144.235-73.0832 141.985-73.0607 140.465-71.541L126.009-57.0701C124.718-55.7797 124.696-53.9633 125.794-52.5121C132.255-44.2738 136.084-33.8956 136.084-22.6209C136.084-11.2727 132.191-0.798478 125.383 7.81796C124.384 9.11241 124.454 10.6797 125.554 11.8027L140.285 26.5557C141.794 28.0874 144.044 28.0649 145.425 26.4423C156.62 13.1911 163.322-3.93988 163.322-22.6209ZM63.573 3.35736C65.6336 3.35736 67.0881 1.83297 67.0881-0.332992L67.0881-10.714L70.6699-14.2948L81.7268 1.40938C82.4593 2.58424 83.4895 3.35736 84.8923 3.35736C86.725 3.35736 88.2689 2.00432 88.2689 0.262567C88.2689-0.738421 87.8882-1.45133 87.2927-2.28528L75.738-18.5177L86.5715-29.9742C87.4409-30.9135 87.8651-31.4548 87.8651-32.5589C87.8651-34.1819 86.4896-35.5943 84.7269-35.5943C83.7349-35.5943 82.6652-34.9963 81.9802-34.2098L67.2938-18.0186L67.0881-18.0186L67.0881-46.4884C67.0881-48.6768 65.6336-50.2012 63.573-50.2012C61.5454-50.2012 60.0909-48.7242 60.0909-46.5358L60.0909-0.332992C60.0909 1.83297 61.5454 3.35736 63.573 3.35736ZM98.7388 3.35736C100.413 3.35736 102.061 2.23498 102.061-0.332992L102.061-19.5503C102.061-24.0167 103.69-28.8356 108.936-28.8566C110.236-28.8566 111.493-29.0066 112.445-29.5913C113.313-29.9916 113.817-30.8375 113.817-32.0181C113.817-34.2887 112.049-35.5943 109.777-35.5943C105.673-35.5943 103.051-32.0544 102.174-27.9867L101.764-27.9867L101.764-32.0648C101.764-34.0885 100.442-35.5943 98.6479-35.5943C96.7257-35.5943 95.3937-34.0885 95.3937-32.0648L95.3937-0.332992C95.3937 1.85543 96.6149 3.35736 98.7388 3.35736ZM116.254 2.76557C118.874 2.76557 120.676 0.986534 120.676-1.58584C120.676-4.14769 118.874-5.97166 116.254-5.97166C113.682-5.97166 111.858-4.14769 111.858-1.58584C111.858 0.986534 113.682 2.76557 116.254 2.76557Z"/>
</svg>