<svg xmlns="http://www.w3.org/2000/svg" viewBox="11.2588 -99.6475 128.8 128.76">
  <path d="M75.6366 29.1081C111.202 29.1081 140.062 0.295961 140.062-35.2697C140.062-70.8354 111.202-99.6475 75.6366-99.6475C40.1184-99.6475 11.2588-70.8354 11.2588-35.2697C11.2588 0.295961 40.1184 29.1081 75.6366 29.1081ZM75.6366 17.9943C46.1876 17.9943 22.3976-5.82067 22.3976-35.2697C22.3976-64.7187 46.1876-88.5337 75.6366-88.5337C105.086-88.5337 128.901-64.7187 128.901-35.2697C128.901-5.82067 105.086 17.9943 75.6366 17.9943ZM71.0167-14.4279C76.3236-14.4279 81.3586-16.58 83.8254-21.657L84.0522-21.657L84.0627-17.263C84.1573-15.2724 85.6329-13.902 87.6815-13.902C89.8193-13.902 91.2263-15.388 91.2263-17.5258L91.2263-56.9568L95.9943-56.9568C96.9788-56.9568 97.837-57.8149 97.837-58.7994C97.837-59.8433 96.9788-60.654 95.9943-60.654L91.2158-60.654L91.2053-63.2111C91.1212-65.3981 89.7946-66.7474 87.5866-66.7474C85.3561-66.7474 83.982-65.3981 83.8979-63.2111L83.8874-60.654L72.1406-60.654C71.1086-60.654 70.2505-59.8433 70.2505-58.7994C70.2505-57.7779 71.1086-56.9568 72.1406-56.9568L83.8769-56.9568L83.8769-44.0288L83.5907-44.0288C81.4455-48.9456 76.4306-51.185 71.0167-51.185C61.6376-51.185 54.3457-43.8555 54.3457-32.8809C54.3457-22.3118 61.1648-14.4279 71.0167-14.4279ZM73.0028-20.6411C66.1087-20.6411 61.9034-25.9661 61.9034-32.8809C61.9034-40.066 66.4633-45.1193 73.0028-45.1193C79.7346-45.1193 83.8794-39.5216 83.8794-32.8809C83.8794-25.8487 79.3801-20.6411 73.0028-20.6411ZM57.4606-7.86474C57.4606-6.78783 58.3187-5.95217 59.4206-5.95217L91.1174-5.95217C92.1719-5.95217 93.055-6.81029 93.055-7.86474C93.055-8.94417 92.1719-9.75484 91.1174-9.75484L59.4206-9.75484C58.3187-9.75484 57.4606-8.94417 57.4606-7.86474Z" />
</svg>