<svg xmlns="http://www.w3.org/2000/svg" viewBox="16.084 -86.3367 138.52 102.34">
  <path d="M35.9773 16.003L134.71 16.003C147.826 16.003 154.603 9.25081 154.603-3.67805L154.603-66.6331C154.603-79.5844 147.826-86.3367 134.71-86.3367L35.9773-86.3367C22.9086-86.3367 16.084-79.6294 16.084-66.6331L16.084-3.67805C16.084 9.29573 22.9086 16.003 35.9773 16.003ZM101.038-47.6452C96.8885-47.6452 93.5631-51.0141 93.5631-55.1057C93.5631-59.2448 96.8885-62.5808 101.038-62.5808C105.13-62.5808 108.478-59.2448 108.478-55.1057C108.478-51.0141 105.13-47.6452 101.038-47.6452ZM123.163-47.6452C119.061-47.6452 115.688-51.0141 115.688-55.1057C115.688-59.2448 119.061-62.5808 123.163-62.5808C127.302-62.5808 130.65-59.2448 130.65-55.1057C130.65-51.0141 127.302-47.6452 123.163-47.6452ZM101.038-27.7947C96.8885-27.7947 93.5631-31.1781 93.5631-35.2697C93.5631-39.3613 96.8885-42.7447 101.038-42.7447C105.13-42.7447 108.478-39.3613 108.478-35.2697C108.478-31.1781 105.13-27.7947 101.038-27.7947ZM123.163-27.7947C119.061-27.7947 115.688-31.1781 115.688-35.2697C115.688-39.3613 119.061-42.7447 123.163-42.7447C127.302-42.7447 130.65-39.3613 130.65-35.2697C130.65-31.1781 127.302-27.7947 123.163-27.7947ZM101.038-7.95863C96.8885-7.95863 93.5631-11.2946 93.5631-15.4337C93.5631-19.5253 96.8885-22.8942 101.038-22.8942C105.13-22.8942 108.478-19.5253 108.478-15.4337C108.478-11.2946 105.13-7.95863 101.038-7.95863ZM123.163-7.95863C119.061-7.95863 115.688-11.2946 115.688-15.4337C115.688-19.5253 119.061-22.8942 123.163-22.8942C127.302-22.8942 130.65-19.5253 130.65-15.4337C130.65-11.2946 127.302-7.95863 123.163-7.95863ZM62.0216-9.06574C51.2114-9.06574 44.0081-16.0463 44.0081-26.5678C44.0081-31.4863 46.054-36.2485 47.9857-40.2636C50.7952-46.3482 55.2011-53.552 59.1314-59.6155C59.9538-60.8491 60.8656-61.4737 62.0216-61.4737C63.1301-61.4737 64.042-60.8491 64.8643-59.6155C68.7947-53.552 73.223-46.3482 76.0326-40.2742C77.9418-36.2695 80.0102-31.4863 80.0102-26.5678C80.0102-16.0463 72.7844-9.06574 62.0216-9.06574Z"/>
</svg>