<svg xmlns="http://www.w3.org/2000/svg" viewBox="11.2588 -99.6475 128.8 128.76">
  <path d="M75.6366 29.1081C111.157 29.1081 140.062 0.203591 140.062-35.2697C140.062-70.743 111.157-99.6475 75.6366-99.6475C40.1633-99.6475 11.2588-70.743 11.2588-35.2697C11.2588 0.203591 40.1633 29.1081 75.6366 29.1081ZM45.3168-25.9134C40.1528-25.9134 35.8931-30.1032 35.8931-35.3146C35.8931-40.526 40.1528-44.7159 45.3168-44.7159C50.4583-44.7159 54.718-40.526 54.718-35.3146C54.718-30.1032 50.5057-25.9134 45.3168-25.9134ZM75.6366-25.9134C70.4252-25.9134 66.2354-30.1032 66.2354-35.3146C66.2354-40.526 70.4252-44.7159 75.6366-44.7159C80.848-44.7159 85.0853-40.526 85.0853-35.3146C85.0853-30.1032 80.848-25.9134 75.6366-25.9134ZM106.004-25.9134C100.815-25.9134 96.6027-30.1032 96.6027-35.3146C96.6027-40.526 100.815-44.7159 106.004-44.7159C111.168-44.7159 115.428-40.526 115.428-35.3146C115.428-30.1032 111.168-25.9134 106.004-25.9134Z"/>
</svg>