<svg xmlns="http://www.w3.org/2000/svg" viewBox="16.084 -90.1899 176.84 115.18">
  <path d="M64.5314-51.0694L64.5314-59.2713L27.7093-59.2713C25.4988-59.2713 23.5951-57.4376 23.5951-55.1941C23.5951-52.9361 25.4988-51.0694 27.7093-51.0694ZM64.5314-32.1253L64.5314-40.3747L20.1982-40.3747C17.9877-40.3747 16.084-38.541 16.084-36.25C16.084-33.992 17.9877-32.1253 20.1982-32.1253ZM64.5314-13.1707L64.5314-21.4426L27.7093-21.4426C25.4988-21.4426 23.5951-19.5864 23.5951-17.2954C23.5951-15.0375 25.4988-13.1707 27.7093-13.1707ZM100.429-21.4426L100.429-13.1707L112.755-13.1707C140.321-13.1707 155.745-3.11726 155.745 7.69458C155.745 13.3717 152.445 16.7623 147.411 16.7623C142.523 16.7623 139.024 13.6091 138.066 8.44711C137.564 6.14025 135.677 4.49034 133.166 4.86396C130.49 5.23758 129.42 7.60607 129.965 10.1198C131.431 18.6234 138.24 24.9893 147.411 24.9893C157.076 24.9893 164.017 17.8981 164.017 7.69458C164.017-8.39985 145.126-21.4426 112.755-21.4426ZM100.429-40.3747L100.429-32.1253L117.803-32.1253C149.425-32.1253 156.678-19.4846 172.807-19.4846C184.844-19.4846 192.922-27.6975 192.922-38.6885C192.922-50.4713 184.525-58.0235 173.951-58.0235C169.163-58.0235 164.69-55.9119 161.544-52.7282C159.541-50.9655 159.468-48.2214 161.08-46.791C162.765-45.3434 164.9-45.6074 166.784-47.0514C168.523-48.8027 170.955-49.9468 173.931-49.9468C179.791-49.9468 184.65-45.8 184.65-38.9731C184.65-32.9196 180.47-27.6086 172.577-27.7235C159.439-27.8133 150.901-40.3747 118.077-40.3747ZM100.429-59.2713L100.429-51.0694L120.36-51.0694C149.928-51.0694 159.102-60.1943 159.102-72.8617C159.102-83.1432 151.453-90.1899 141.677-90.1899C134.315-90.1899 127.937-85.5247 125.405-79.2714C124.396-77.1648 124.903-74.7765 127.085-73.719C129.111-72.713 131.389-73.3811 132.819-75.9118C134.137-79.2677 137.545-81.9854 141.677-81.9854C146.974-81.9854 150.853-78.6417 150.853-72.8617C150.853-64.8934 145.026-59.2713 119.966-59.2713ZM82.5065 6.28498C87.1613 6.28498 90.8468 2.6994 90.8468-1.68149C90.8468-6.16921 87.2087-9.61497 82.5065-9.61497C77.8082-9.61497 74.1715-6.16921 74.1715-1.68149C74.1715 2.6994 77.8781 6.28498 82.5065 6.28498ZM82.5065-21.664C85.7438-21.664 87.9844-23.8296 88.1214-27.1933L89.2689-70.1754C89.3834-74.1914 86.7175-76.9048 82.4855-76.9048C78.2904-76.9048 75.5665-74.1914 75.714-70.1754L76.8601-27.1618C76.997-23.8296 79.2482-21.664 82.5065-21.664Z"/>
</svg>