<svg xmlns="http://www.w3.org/2000/svg" viewBox="11.2588 -99.6475 128.8 128.76">
  <path d="M50.6283-15.9848C39.9694-15.9848 31.3209-24.6108 31.3209-35.2697C31.3209-45.9286 39.9694-54.5546 50.6283-54.5546C61.2647-54.5546 69.9237-45.9286 69.9237-35.2697C69.9237-24.6108 61.2647-15.9848 50.6283-15.9848ZM100.667-15.9848C90.0085-15.9848 81.3496-24.6108 81.3496-35.2697C81.3496-45.9286 90.0085-54.5546 100.667-54.5546C111.304-54.5546 120-45.9286 120-35.2697C120-24.6108 111.304-15.9848 100.667-15.9848ZM65.8381-58.8648C64.6469-60.0559 64.6469-61.9585 65.8381-63.1391L71.3848-68.6159L65.8381-74.1047C64.6469-75.3208 64.6469-77.1759 65.8381-78.4145C67.0661-79.6161 68.8738-79.6161 70.0755-78.4145L75.5892-72.8678L81.1029-78.4145C82.352-79.6161 84.1492-79.6161 85.3878-78.4145C86.5999-77.1759 86.5894-75.3787 85.3878-74.1047L79.841-68.6159L85.3878-63.1391C86.5894-61.89 86.5999-60.0559 85.3878-58.8543C84.1387-57.6856 82.294-57.6961 81.1029-58.8648L75.5892-64.401L70.0755-58.8648C68.9318-57.6961 67.0766-57.6961 65.8381-58.8648ZM65.8381 7.83017C64.589 6.5916 64.6364 4.74697 65.8381 3.52035L71.3848-1.9684L65.8381-7.44521C64.6364-8.64684 64.589-10.5284 65.8381-11.7195C67.0871-12.9791 68.9213-12.9212 70.0755-11.7195L75.5892-6.18333L81.1029-11.7195C82.3046-12.9212 84.1387-12.9791 85.3878-11.7195C86.5999-10.5284 86.5419-8.64684 85.3878-7.44521L79.841-1.9684L85.3878 3.52035C86.5419 4.74697 86.5999 6.5916 85.3878 7.83017C84.1492 9.0318 82.3046 8.98435 81.1029 7.83017L75.5892 2.28345L70.0755 7.83017C68.9213 8.98435 67.0766 9.0318 65.8381 7.83017ZM75.6366 29.1081C111.157 29.1081 140.062 0.203591 140.062-35.2697C140.062-70.743 111.157-99.6475 75.6366-99.6475C40.1633-99.6475 11.2588-70.743 11.2588-35.2697C11.2588 0.203591 40.1633 29.1081 75.6366 29.1081Z"/>
</svg>