<svg xmlns="http://www.w3.org/2000/svg" viewBox="16.0365 -103.174 135.53 135.85">
  <path d="M115.151-98.1889C98.364-98.1889 88.6865-82.6705 81.9255-53.734L96.1681-39.5495L133.746-39.5495C145.348-39.5495 151.568-45.8974 151.568-57.1193C151.521-77.7285 133.548-98.1889 115.151-98.1889ZM52.6853 27.5571C69.4498 27.5571 78.8801 12.196 86.0005-16.5782L71.5533-30.97L34.2273-30.97C22.3761-30.97 16.0365-24.8018 16.0365-13.4226C16.084 6.97632 34.2662 27.5571 52.6853 27.5571ZM62.1384-103.174C54.2412-103.174 46.4179-100.368 39.7807-95.8908L79.7557-55.9633L79.7557-84.983C79.7557-96.632 73.3603-103.174 62.1384-103.174ZM21.0913-66.5249C21.0913-48.5315 39.0175-38.9892 71.3903-31.178L24.014-78.5437C22.2375-74.7305 21.0913-70.6667 21.0913-66.5249ZM146.815-3.96953C146.815-21.9854 128.864-31.5277 96.3286-39.364L143.915 8.23397C145.783 4.3509 146.815 0.194684 146.815-3.96953ZM105.835 32.6792C113.687 32.6318 121.533 29.9438 128.056 25.4887L88.2653-14.324L88.2653 14.4885C88.2653 26.1375 94.5907 32.6792 105.835 32.6792ZM139.016 26.2137C140.771 27.9583 143.612 27.9213 145.309 26.1663C147.051 24.4112 147.064 21.6285 145.309 19.8959L28.8199-96.6053C27.1572-98.3379 24.269-98.3828 22.4915-96.6053C20.7944-94.9307 20.7944-92.0096 22.4915-90.335Z"/>
</svg>