<svg xmlns="http://www.w3.org/2000/svg" viewBox="11.2588 -99.6475 128.8 128.76">
  <path d="M75.6366 29.1081C111.157 29.1081 140.062 0.203591 140.062-35.2697C140.062-70.743 111.157-99.6475 75.6366-99.6475C40.1633-99.6475 11.2588-70.743 11.2588-35.2697C11.2588 0.203591 40.1633 29.1081 75.6366 29.1081ZM78.4231-64.2436C74.0765-64.2436 70.6304-67.7017 70.6304-72.0733C70.6304-76.2906 74.0765-79.7382 78.4231-79.7382C82.6879-79.7382 86.1354-76.2906 86.1354-72.0733C86.1354-67.7017 82.6879-64.2436 78.4231-64.2436ZM86.5551-43.3932L80.6277-49.2957C79.9789-49.9075 79.1281-49.9075 79.0002-48.8288L77.343-37.4612L90.5167-37.4612C93.3075-37.4612 94.9514-35.3942 94.2831-32.9725L89.2323-14.0734C87.9575-9.43829 80.8968-11.0887 82.194-15.9915L86.0425-29.9524L73.3143-29.0663C66.9098-28.6418 63.138-32.3411 63.9422-38.851L65.6245-52.2908C65.7523-53.2507 65.2156-53.8205 64.3361-53.7401L57.8374-53.0268L56.4913-42.0627C55.8599-37.2194 48.7083-38.3663 49.2817-42.9473L51.0654-56.7337C51.2368-58.2933 52.5814-59.7064 54.2688-59.8672L66.8015-61.2938C73.8878-62.077 79.0176-61.096 83.6859-56.4277L88.4363-51.6548L94.6119-61.5404C97.0665-65.4992 103.451-62.0229 100.73-57.7056L92.1552-43.9772C90.9279-41.9351 88.0817-41.8297 86.5551-43.3932ZM67.4426-26.8678C69.5545-26.0387 71.3593-25.8343 73.5331-25.9952L75.769-26.156L73.7306-12.6363C73.6607-12.3951 73.5698-12.0958 73.4894-11.7847L66.7458 5.09606C65.997 6.92182 64.6563 7.66806 63.2207 7.66806C60.9599 7.66806 58.8019 5.5456 59.9488 2.56099L66.579-13.9546Z"/>
</svg>