<svg xmlns="http://www.w3.org/2000/svg" viewBox="16.084 -108.229 110.48 146.08">
  <path d="M35.9773 37.8508L108.047 37.8508C119.81 37.8508 126.564 31.0511 126.564 18.1222L126.564-52.926C126.564-65.8549 119.762-72.6296 106.671-72.6296L35.9773-72.6296C22.9086-72.6296 16.084-65.8998 16.084-52.926L16.084 18.1222C16.084 31.096 22.9086 37.8508 35.9773 37.8508ZM29.4205-82.9857L112.891-82.9857C112.166-88.282 109.437-91.3692 103.561-91.3692L38.773-91.3692C32.8749-91.3692 30.2163-88.282 29.4205-82.9857ZM39.9955-100.495L102.316-100.495C101.995-105.475 99.0097-108.229 93.6329-108.229L48.6789-108.229C43.3247-108.229 40.3643-105.475 39.9955-100.495ZM81.1066-41.1053C76.8418-41.1053 73.3587-44.6463 73.3587-48.8531C73.3587-53.1403 76.8418-56.6378 81.1066-56.6378C85.4307-56.6378 88.8438-53.1403 88.8438-48.8531C88.8438-44.6463 85.4307-41.1053 81.1066-41.1053ZM68.9962-10.4291C65.9243-12.1443 62.0512-13.7882 63.74-19.8367L66.6405-29.9633C67.0216-31.2014 66.0022-31.9835 64.9195-31.9031L59.9318-31.5814L58.4708-21.3121C58.0912-19.1277 56.8284-17.9229 54.9222-18.1062C52.9356-18.3355 51.8086-19.9094 52.1078-22.0938L53.8006-34.6475C54.0524-36.704 55.4655-37.9788 57.3837-38.1396L69.7765-39.0137C76.2444-39.4962 80.2574-37.76 83.4532-33.3579L89.4969-24.9187L98.3252-28.8436C100.349-29.7637 102.047-29.2127 102.876-27.4424C103.771-25.6047 103-23.8344 101.013-22.9143L89.8885-17.9334C88.358-17.29 86.6232-17.762 85.7175-19.1277L81.794-24.7889C81.0898-25.8742 79.6221-25.7239 79.2989-24.4433L76.6502-15.3488L89.899-6.71573C91.8856-5.38301 92.1848-2.30351 90.483-0.937805L78.2984 9.41812C76.3883 11.066 74.2843 10.8617 73.0715 9.46305C71.8666 8.15926 71.9286 6.03285 73.7253 4.52481L82.3732-2.91389ZM45.3983 19.9943C43.9087 18.6391 43.624 16.3203 45.4208 14.5341L57.343 2.79763L61.6375-12.3254C62.9677-10.3674 65.1789-9.10316 67.4791-7.78499L68.751-7.0746L63.7524 5.4381C63.2 6.98055 62.9706 7.16241 61.9582 8.17489L50.5553 19.4748C48.8166 21.2031 46.8194 21.1372 45.3983 19.9943Z"/>
</svg>