<svg xmlns="http://www.w3.org/2000/svg" viewBox="11.2588 -99.6475 128.8 128.76">
  <path d="M75.6366 29.1081C111.202 29.1081 140.062 0.295961 140.062-35.2697C140.062-70.8354 111.202-99.6475 75.6366-99.6475C40.1184-99.6475 11.2588-70.8354 11.2588-35.2697C11.2588 0.295961 40.1184 29.1081 75.6366 29.1081ZM75.6366 17.9943C46.1876 17.9943 22.3976-5.82067 22.3976-35.2697C22.3976-64.7187 46.1876-88.5337 75.6366-88.5337C105.086-88.5337 128.901-64.7187 128.901-35.2697C128.901-5.82067 105.086 17.9943 75.6366 17.9943ZM85.5032-62.6147C89.3847-62.6147 92.5306-65.7725 92.5306-69.6765C92.5306-73.6054 89.3847-76.7513 85.5032-76.7513C81.5742-76.7513 78.406-73.6054 78.406-69.6765C78.406-65.7725 81.5742-62.6147 85.5032-62.6147ZM53.3608-39.1879C55.3793-38.2808 57.2289-39.1654 58.0082-40.7014L63.8031-52.3531L70.7216-52.3531C71.4732-52.3531 71.8557-51.6924 71.5551-51.0687L65.3791-38.9C63.06-34.3197 65.9315-28.5081 71.9714-28.9102L88.3569-29.9571L82.2784-16.4815C81.5111-14.7387 82.2559-12.5698 84.0332-11.9304C85.9857-11.1842 87.751-11.7801 88.5882-13.6957L97.0728-32.3552C97.9904-34.4316 96.6707-37.2993 93.9983-37.2993L79.1542-37.2993L85.7271-50.4097C86.0173-50.953 86.641-51.1033 87.092-50.6524L94.8793-43.1763C96.5206-41.6153 99.3394-41.8896 100.418-44.0939L107.19-57.6587C108.074-59.3805 107.534-61.5374 105.699-62.3745C103.979-63.2012 101.917-62.5129 101.033-60.7332L96.3229-51.5375L92.5899-55.2929C89.9701-57.9127 87.2145-59.2813 82.9269-59.2813L61.6936-59.2813C60.362-59.2813 59.1821-58.4771 58.6192-57.3762L51.7788-43.7759C50.9192-42.0316 51.5481-40.0251 53.3608-39.1879ZM44.1803-6.36089C45.2692-4.11308 47.6199-4.04318 48.7208-4.54816L65.6451-11.883C66.3319-12.2047 66.9753-12.7781 67.3299-13.5349L73.5881-26.0947L72.1902-26.0143C69.332-25.843 67.0697-26.6457 65.3005-27.9984L61.4697-17.7102L45.9455-10.9938C44.1908-10.237 43.2732-8.18557 44.1803-6.36089ZM100.271-3.14661C104.211-3.14661 107.379-6.25944 107.379-10.2319C107.379-14.124 104.211-17.3292 100.271-17.3292C96.3317-17.3292 93.2438-14.124 93.2438-10.2319C93.2438-6.25944 96.3317-3.14661 100.271-3.14661ZM49.9681-74.5451C49.9681-73.5674 50.7495-72.786 51.7602-72.786C54.6202-72.786 56.4137-72.2466 58.3111-70.2463C58.965-69.4435 59.7004-69.1338 60.3304-69.1338C61.0657-69.1338 61.7537-69.4435 62.455-70.2463C64.305-72.2466 66.1459-72.786 69.0059-72.786C70.0166-72.786 70.7505-73.5674 70.7505-74.5451C70.7505-75.4385 69.9941-76.2423 68.9834-76.2423C65.4221-76.2423 63.065-75.4037 60.3304-72.8969C57.7011-75.4037 55.344-76.2423 51.7827-76.2423C50.772-76.2423 49.9681-75.4385 49.9681-74.5451ZM48.8662 5.1459C49.9022 5.1459 50.73 4.31816 50.73 3.28213C50.73 2.23559 49.9022 1.45529 48.8662 1.45529C47.8671 1.45529 47.0723 2.23559 47.0723 3.28213C47.0723 4.31816 47.8671 5.1459 48.8662 5.1459ZM54.8379 5.1459C55.8739 5.1459 56.7017 4.31816 56.7017 3.28213C56.7017 2.23559 55.8739 1.45529 54.8379 1.45529C53.7689 1.45529 53.0216 2.23559 53.0216 3.28213C53.0216 4.31816 53.7689 5.1459 54.8379 5.1459ZM60.7647 5.1459C61.8232 5.1459 62.6285 4.31816 62.6285 3.28213C62.6285 2.23559 61.8232 1.45529 60.7647 1.45529C59.7182 1.45529 58.901 2.23559 58.901 3.28213C58.901 4.31816 59.7182 5.1459 60.7647 5.1459ZM66.714 5.1459C67.7026 5.1459 68.5303 4.31816 68.5303 3.28213C68.5303 2.23559 67.7026 1.45529 66.714 1.45529C65.6675 1.45529 64.8502 2.23559 64.8502 3.28213C64.8502 4.31816 65.6675 5.1459 66.714 5.1459ZM72.6383 5.1459C73.6624 5.1459 74.4796 4.31816 74.4796 3.28213C74.4796 2.23559 73.6624 1.45529 72.6383 1.45529C71.6392 1.45529 70.822 2.23559 70.822 3.28213C70.822 4.31816 71.6392 5.1459 72.6383 5.1459ZM78.5875 5.1459C79.6341 5.1459 80.4513 4.31816 80.4513 3.28213C80.4513 2.23559 79.6341 1.45529 78.5875 1.45529C77.541 1.45529 76.7238 2.23559 76.7238 3.28213C76.7238 4.31816 77.541 5.1459 78.5875 5.1459ZM84.5368 5.1459C85.5834 5.1459 86.3531 4.31816 86.3531 3.28213C86.3531 2.23559 85.5834 1.45529 84.5368 1.45529C83.5008 1.45529 82.673 2.23559 82.673 3.28213C82.673 4.31816 83.5008 5.1459 84.5368 5.1459ZM90.4861 5.1459C91.4852 5.1459 92.3024 4.31816 92.3024 3.28213C92.3024 2.23559 91.4852 1.45529 90.4861 1.45529C89.4276 1.45529 88.6448 2.23559 88.6448 3.28213C88.6448 4.31816 89.4276 5.1459 90.4861 5.1459ZM96.3879 5.1459C97.4569 5.1459 98.2517 4.31816 98.2517 3.28213C98.2517 2.23559 97.4569 1.45529 96.3879 1.45529C95.3519 1.45529 94.5716 2.23559 94.5716 3.28213C94.5716 4.31816 95.3519 5.1459 96.3879 5.1459ZM102.337 5.1459C103.384 5.1459 104.201 4.31816 104.201 3.28213C104.201 2.23559 103.384 1.45529 102.337 1.45529C101.301 1.45529 100.473 2.23559 100.473 3.28213C100.473 4.31816 101.301 5.1459 102.337 5.1459Z" />
</svg>