<svg xmlns="http://www.w3.org/2000/svg" viewBox="11.2588 -99.6475 128.8 128.76">
  <path d="M75.6366 29.1081C111.157 29.1081 140.062 0.203591 140.062-35.2697C140.062-70.743 111.157-99.6475 75.6366-99.6475C40.1633-99.6475 11.2588-70.743 11.2588-35.2697C11.2588 0.203591 40.1633 29.1081 75.6366 29.1081ZM64.4483-60.9027C60.1227-60.9027 56.7081-64.3542 56.7081-68.6679C56.7081-72.9011 60.1227-76.3736 64.4483-76.3736C68.7145-76.3736 72.1291-72.9011 72.1291-68.6679C72.1291-64.3542 68.7145-60.9027 64.4483-60.9027ZM64.1703-13.0318C62.8011-13.2506 60.8066-13.2097 59.1606-13.0699L91.6183-49.782L66.2769-49.782C64.5009-49.782 62.9186-48.5808 62.4466-46.8272L59.6791-36.9873L73.6852-43.1313C75.2132-43.8221 76.894-43.7891 78.2941-42.9704L80.4885-41.7796L73.8556-34.357L73.6085-34.4469L56.9951-25.7289C55.5106-24.9721 54.0156-24.5331 52.5786-24.5331C47.9657-24.5331 44.2874-28.2798 45.8049-34.1215L49.2578-47.0301C50.8452-53.0695 56.6698-57.1328 63.6876-57.1328L94.9656-57.1328C97.1065-57.1328 98.6885-55.6088 98.6885-53.4929C98.6885-52.4909 98.3338-51.6696 97.5467-50.7996ZM84.6419-31.5123L89.679-37.2443L100.294-31.9064C102.787-30.6421 103.317-28.3219 102.466-26.7254C101.698-25.0735 99.5615-23.9701 96.9301-25.3148ZM59.0515-17.6675L55.2631-13.3071L44.7617-13.3071C43.5652-13.3071 42.623-14.3218 42.623-15.5183C42.623-16.6199 43.5652-17.6675 44.7617-17.6675ZM106.464-17.6675C107.661-17.6675 108.58-16.6199 108.58-15.5183C108.58-14.3218 107.661-13.3071 106.464-13.3071L68.5369-13.3071L72.4452-17.6675ZM75.5892-0.697213C68.1366-0.697213 66.1523-5.3445 61.1514-5.3445C56.1176-5.3445 54.1333-0.697213 46.6927-0.697213L45.0847-0.697213C44.0672-0.697213 43.225-1.52891 43.225-2.41713C43.225-3.4926 44.0447-4.34676 45.0847-4.34676L46.6927-4.34676C51.6356-4.34676 53.645-8.99405 61.1514-8.99405C68.2823-8.99405 70.43-4.34676 75.5892-4.34676C80.7958-4.34676 82.9435-8.99405 90.0744-8.99405C97.5809-8.99405 99.5427-4.34676 104.533-4.34676L106.141-4.34676C107.181-4.34676 108.001-3.4926 108.001-2.41713C108.001-1.52891 107.159-0.697213 106.141-0.697213L104.533-0.697213C97.0451-0.697213 95.0608-5.3445 90.0744-5.3445C85.0735-5.3445 83.0892-0.697213 75.5892-0.697213Z"/>
</svg>