<svg xmlns="http://www.w3.org/2000/svg" viewBox="16.084 -120.747 84.8 171.03">
  <path d="M58.4716-74.3212C66.0196-74.3212 72.1664-80.468 72.1664-88.0634C72.1664-95.6588 66.0196-101.806 58.4716-101.806C50.8537-101.806 44.7069-95.6588 44.7069-88.0634C44.7069-80.468 50.8537-74.3212 58.4716-74.3212ZM49.4073 50.2868C52.7619 50.2868 55.6947 47.3435 55.6947 43.9745L55.6947 11.1486L58.4716-11.5517L61.2485 11.1486L61.2485 43.9745C61.2485 47.3435 64.1813 50.2868 67.5359 50.2868C70.9498 50.2868 73.7903 47.3435 73.7903 43.9745L73.7903-42.7267C73.7903-43.4701 74.7593-43.5994 75.081-42.9665C82.3642-29.4616 86.8568-16.8328 88.73-11.3396C89.865-8.13392 93.4383-6.33602 96.6809-7.45902C99.2446-8.30527 100.882-10.6871 100.882-13.2983C100.882-13.9627 100.791-14.6626 100.561-15.315C100.128-16.7213 89.6384-48.0206 76.5535-62.8404C73.7866-66.0079 69.6555-67.9351 65.2171-67.9351L51.7736-67.9351C47.2878-67.9351 43.1341-66.0079 40.3672-62.8404C27.3048-48.0206 16.8154-16.7213 16.4042-15.315C16.1749-14.6626 16.084-13.9402 16.084-13.2759C16.084-10.6871 17.6986-8.30527 20.3098-7.45902C23.5049-6.33602 27.0783-8.13392 28.2132-11.3396C30.1089-16.8328 34.5791-29.4616 41.8293-42.935C42.172-43.5994 43.1304-43.4491 43.1304-42.7057L43.1304 43.9745C43.1304 47.3435 45.9934 50.2868 49.4073 50.2868ZM58.4716-113.61C80.8633-113.61 93.7215-93.19 93.7215-58.3374L93.7215-13.2509L100.882-13.2509L100.882-58.3374C100.882-97.9281 85.4191-120.747 58.4716-120.747C31.594-120.747 16.1314-97.9281 16.1314-58.3374L16.1314-13.2284L23.2916-13.2284L23.2916-58.3374C23.2916-93.19 36.1274-113.61 58.4716-113.61Z"/>
</svg>