<svg xmlns="http://www.w3.org/2000/svg" viewBox="16.084 -105.385 133.18 139.97">
  <path d="M30.0799-80.3097L135.177-80.3097C134.451-85.5745 131.791-88.6656 125.91-88.6656L39.3693-88.6656C33.5133-88.6656 30.8757-85.5745 30.0799-80.3097ZM42.7423-97.7142L122.584-97.7142C122.215-102.63 119.251-105.385 113.964-105.385L51.3626-105.385C46.0279-105.385 43.111-102.63 42.7423-97.7142ZM27.5466 34.5842L137.805 34.5842C144.83 34.5842 149.267 30.136 149.267 23.2164L149.267-58.427C149.267-65.3346 144.83-69.7578 137.805-69.7578L27.5466-69.7578C20.4742-69.7578 16.084-65.3346 16.084-58.427L16.084 23.2164C16.084 30.136 20.4742 34.5842 27.5466 34.5842ZM27.6006 25.4185C25.7847 25.4185 24.6493 24.2093 24.6493 22.4672L24.6493 15.9666C24.6493 14.3978 25.7173 13.3179 27.3535 13.3179L34.9583 13.3179C36.5127 13.3179 37.5926 14.3978 37.5926 15.9666L37.5926 22.7618C37.5926 24.2992 36.5127 25.4185 34.9583 25.4185ZM27.3535 6.75748C25.7173 6.75748 24.6493 5.57221 24.6493 4.19312L24.6493-2.46471C24.6493-4.11147 25.6723-5.21633 27.3535-5.21633L34.9583-5.21633C36.5127-5.21633 37.5926-4.11147 37.5926-2.46471L37.5926 4.19312C37.5926 5.57221 36.5127 6.75748 34.9583 6.75748ZM27.3535-11.5867C25.7173-11.5867 24.6493-12.772 24.6493-14.2459L24.6493-20.8089C24.6493-22.5151 25.6723-23.608 27.3535-23.608L34.9583-23.608C36.5127-23.608 37.5926-22.5151 37.5926-20.8089L37.5926-14.2459C37.5926-12.772 36.5127-11.5867 34.9583-11.5867ZM27.3535-29.9678C25.7173-29.9678 24.6493-31.1531 24.6493-32.4952L24.6493-39.248C24.6493-40.7643 25.6723-41.9047 27.3535-41.9047L34.9583-41.9047C36.5127-41.9047 37.5926-40.7643 37.5926-39.248L37.5926-32.4952C37.5926-31.1531 36.5127-29.9678 34.9583-29.9678ZM27.3535-48.5125C25.7173-48.5125 24.6493-49.6399 24.6493-51.0664L24.6493-57.592C24.6493-59.4409 25.7847-60.6131 27.6006-60.6131L34.9583-60.6131C36.5127-60.6131 37.5926-59.5308 37.5926-57.909L37.5926-51.0664C37.5926-49.6399 36.5127-48.5125 34.9583-48.5125ZM48.0981 25.4185C46.4411 25.4185 45.3684 24.3563 45.3684 22.6413L45.3684-10.1128C45.3684-11.8647 46.4411-12.8899 48.0981-12.8899L117.111-12.8899C118.746-12.8899 119.841-11.8647 119.841-10.1128L119.841 22.6413C119.841 24.3563 118.746 25.4185 117.111 25.4185ZM48.0981-22.1874C46.4411-22.1874 45.3684-23.1877 45.3684-24.9396L45.3684-57.8834C45.3684-59.5654 46.4411-60.6131 48.0981-60.6131L117.111-60.6131C118.746-60.6131 119.841-59.5654 119.841-57.8834L119.841-24.9396C119.841-23.1877 118.746-22.1874 117.111-22.1874ZM130.274 25.4185C128.744 25.4185 127.676 24.2992 127.676 22.7618L127.676 15.9666C127.676 14.3978 128.744 13.3179 130.274 13.3179L137.893 13.3179C139.517 13.3179 140.608 14.3978 140.608 15.9666L140.608 22.4672C140.608 24.2093 139.472 25.4185 137.576 25.4185ZM130.274 6.75748C128.744 6.75748 127.676 5.57221 127.676 4.19312L127.676-2.46471C127.676-4.11147 128.744-5.21633 130.274-5.21633L137.893-5.21633C139.562-5.21633 140.608-4.11147 140.608-2.46471L140.608 4.19312C140.608 5.57221 139.517 6.75748 137.893 6.75748ZM130.274-11.5867C128.744-11.5867 127.676-12.772 127.676-14.2459L127.676-20.8089C127.676-22.5151 128.744-23.608 130.274-23.608L137.893-23.608C139.562-23.608 140.608-22.5151 140.608-20.8089L140.608-14.2459C140.608-12.772 139.517-11.5867 137.893-11.5867ZM130.274-29.9678C128.744-29.9678 127.676-31.1531 127.676-32.4952L127.676-39.248C127.676-40.7643 128.744-41.9047 130.274-41.9047L137.893-41.9047C139.562-41.9047 140.608-40.7643 140.608-39.248L140.608-32.4952C140.608-31.1531 139.517-29.9678 137.893-29.9678ZM130.274-48.5125C128.744-48.5125 127.676-49.6399 127.676-51.0664L127.676-57.909C127.676-59.5308 128.744-60.6131 130.274-60.6131L137.576-60.6131C139.472-60.6131 140.608-59.4409 140.608-57.592L140.608-51.0664C140.608-49.6399 139.517-48.5125 137.893-48.5125Z"/>
</svg>