<svg xmlns="http://www.w3.org/2000/svg" viewBox="11.2588 -99.5671 128.8 128.76">
  <path d="M75.6366 29.1886C111.157 29.1886 140.062 0.284011 140.062-35.1893C140.062-70.6626 111.157-99.5671 75.6366-99.5671C40.1633-99.5671 11.2588-70.6626 11.2588-35.1893C11.2588 0.284011 40.1633 29.1886 75.6366 29.1886ZM51.1776-0.671602C49.5213-0.671602 48.0787-2.11557 48.0787-3.75049L48.0787-57.8413C48.0787-60.5861 49.4191-62.572 52.1157-63.7884C54.4791-64.8679 56.607-65.4323 61.4887-65.4323C73.1825-65.4323 80.4768-59.6617 91.3449-59.6617C96.6149-59.6617 99.4984-61.0737 101.369-61.0737C103.953-61.0737 105.091-59.7218 105.091-57.6663L105.091-25.9448C105.091-23.0946 103.827-21.1905 101.109-19.9147C98.6233-18.7928 96.403-18.2853 91.6561-18.2853C80.3784-18.2853 73.1896-23.998 61.7998-23.998C58.0239-23.998 55.4987-23.2329 54.196-22.7385L54.196-3.75049C54.196-2.05762 53.0077-0.671602 51.1776-0.671602ZM53.5303-37.6613C54.1314-38.6571 56.7562-39.9139 61.2681-39.9139C62.9156-39.9139 63.884-39.8125 64.92-39.6636L64.92-29.4923C69.2659-29.1272 73.0089-28.0433 76.727-26.9515L76.727-36.9384C80.7636-35.5999 84.249-34.7852 88.4431-34.3266L88.4431-24.1764C89.4893-23.992 90.6464-23.88 91.9194-23.88C96.4418-23.88 99.0666-25.1514 99.6571-26.2276L99.6571-35.1949C97.3032-34.4943 94.7565-34.1567 91.7026-34.1567C90.6086-34.1567 89.4333-34.2266 88.4431-34.3266L88.4431-44.7762C89.4347-44.6656 90.5628-44.5957 91.5449-44.5957C95.0625-44.5957 98.0524-45.2198 99.6571-45.6009L99.6571-55.1504C97.2611-54.4748 94.5988-54.1227 91.5449-54.1227C90.4591-54.1227 89.4089-54.1438 88.4431-54.2452L88.4431-44.7762C84.4455-45.1003 80.5628-46.1023 76.727-47.297L76.727-56.8345C72.8825-57.9988 69.1499-59.2185 64.92-59.6441L64.92-50.0802C63.7245-50.287 62.2964-50.345 61.2681-50.345C56.7787-50.345 54.1314-49.0631 53.5303-48.0344ZM64.92-39.6636L64.92-50.0802C69.2869-49.6136 72.7412-48.5272 76.727-47.297L76.727-36.9384C72.5-38.1581 69.217-39.1945 64.92-39.6636Z"/>
</svg>