<svg xmlns="http://www.w3.org/2000/svg" viewBox="16.084 -84.2096 117.83 97.88">
  <path d="M16.084 4.67223C16.084 10.7467 19.7339 13.6702 24.0054 13.6702C25.8461 13.6702 27.8027 13.1326 29.6234 12.0918L96.491-27.0564C100.917-29.6733 102.964-31.8509 102.964-35.2697C102.964-38.6885 100.917-40.8662 96.491-43.483L29.6234-82.6312C27.8027-83.672 25.8461-84.2096 24.0054-84.2096C19.7339-84.2096 16.084-81.2861 16.084-75.2116ZM110.994 13.3856L125.473 13.3856C131.088 13.3856 133.913 10.6078 133.913 4.99239L133.913-75.5792C133.913-81.2949 131.088-83.9724 125.473-83.9724L110.994-83.9724C105.426-83.9724 102.6-81.1472 102.6-75.5792L102.6 4.99239C102.6 10.6078 105.394 13.3856 110.994 13.3856Z"/>
</svg>