<svg xmlns="http://www.w3.org/2000/svg" viewBox="16.084 -93.4067 116.32 116.37">
  <path d="M35.9773 22.9622L112.512 22.9622C125.628 22.9622 132.405 16.14 132.405 3.21118L132.405-73.6557C132.405-86.5846 125.628-93.4067 112.512-93.4067L35.9773-93.4067C22.9086-93.4067 16.084-86.6295 16.084-73.6557L16.084 3.21118C16.084 16.185 22.9086 22.9622 35.9773 22.9622ZM36.6007 12.1804C30.2527 12.1804 26.8183 8.88295 26.8183 2.35054L26.8183-72.7951C26.8183-79.3749 30.2527-82.6249 36.6007-82.6249L111.889-82.6249C118.147-82.6249 121.671-79.3749 121.671-72.7951L121.671 2.35054C121.671 8.88295 118.147 12.1804 111.889 12.1804ZM74.4904-5.95497C89.5691-5.95497 98.749-15.0998 98.749-28.1322L98.749-32.181C98.749-35.5758 96.8494-37.4834 93.572-37.4834L77.4258-37.4834C75.0718-37.4834 73.6384-35.98 73.6384-33.8959C73.6384-31.8737 75.0823-30.2385 77.4258-30.2385L88.6272-30.2385L88.6272-26.8483C88.6272-19.2404 83.7221-14.3164 74.701-14.3164C64.8716-14.3164 58.343-22.8577 58.343-35.6058C58.343-48.2998 64.8137-56.8849 74.5586-56.8849C81.5455-56.8849 86.6414-53.4153 88.8201-47.4859C89.7975-45.5208 90.9792-44.4959 93.2077-44.4959C95.9595-44.4959 97.6535-46.1242 97.6535-48.7829C97.6535-49.7816 97.4941-50.6605 97.1253-51.6831C94.4622-59.1496 86.2634-65.329 74.3481-65.329C58.2856-65.329 47.8002-53.6272 47.8002-35.6058C47.8002-17.5619 58.2856-5.95497 74.4904-5.95497Z" />
</svg>