<svg xmlns="http://www.w3.org/2000/svg" viewBox="16.084 -101.428 134.67 132.43">
  <path d="M99.2533-101.428L35.9773-101.428C22.9086-101.428 16.084-94.6528 16.084-81.724L16.084-18.0684C16.084-5.13955 22.9086 1.63515 35.9773 1.63515L99.2533 1.63515C112.369 1.63515 119.147-5.09462 119.147-18.0684L119.147-81.724C119.147-94.6977 112.369-101.428 99.2533-101.428ZM150.758-52.7756C150.758-65.6758 144.043-72.4792 130.864-72.4792L127.577-72.4792L127.577-18.0684C127.577-0.419373 116.997 10.0659 99.2533 10.0659L47.2743 10.0659L47.2743 11.3215C47.2743 24.2293 54.099 31.004 67.1677 31.004L130.864 31.004C143.98 31.004 150.758 24.2743 150.758 11.3005ZM47.6592-20.1741C44.2205-20.1741 42.1486-22.4764 42.1486-26.3524L42.1486-74.207C42.1486-78.1054 44.2205-80.3852 47.6592-80.3852C51.2273-80.3852 53.2753-78.1424 53.2753-74.207L53.2753-55.426L81.8855-55.426L81.8855-74.207C81.8855-78.1054 83.9454-80.3852 87.3842-80.3852C90.9522-80.3852 92.9897-78.1424 92.9897-74.207L92.9897-26.3524C92.9897-22.4395 90.9522-20.1741 87.3842-20.1741C83.9454-20.1741 81.8855-22.4764 81.8855-26.3524L81.8855-46.7774L53.2753-46.7774L53.2753-26.3524C53.2753-22.4395 51.2273-20.1741 47.6592-20.1741Z"/>
</svg>