<svg xmlns="http://www.w3.org/2000/svg" viewBox="16.084 -103.495 141.51 136.45">
  <path d="M24.6987 18.0842L149.305 18.0842L149.305 13.8247C149.305 11.4324 147.859 10.0189 145.43 10.0189L141.703 10.0189L141.703-59.9652L147.242-59.9652C150.649-59.9652 152.612-62.4311 152.612-64.9538C152.612-66.7677 151.554-68.4276 149.35-69.7726L94.7333-101.269C92.2765-102.716 89.5708-103.495 87.002-103.495C84.3858-103.495 81.6576-102.716 79.2008-101.269L24.5843-69.7726C22.3553-68.4276 21.345-66.7677 21.345-64.9538C21.345-62.4311 23.2853-59.9652 26.7144-59.9652L32.301-59.9652L32.301 10.0189L28.5744 10.0189C26.1452 10.0189 24.6987 11.4324 24.6987 13.8247ZM41.5465 10.0189L41.5465-67.8619L84.4373-91.9643C85.2183-92.4247 86.1392-92.6899 87.002-92.6899C87.828-92.6899 88.7158-92.4247 89.4968-91.9643L132.505-67.8619L132.505 10.0189ZM21.0832 32.9552L152.579 32.9552C155.274 32.9552 157.589 30.6828 157.589 27.9086C157.589 25.1804 155.274 22.9094 152.579 22.9094L21.0832 22.9094C18.3655 22.9094 16.084 25.1804 16.084 27.9086C16.084 30.6723 18.3655 32.9552 21.0832 32.9552ZM86.7539-64.1389C81.1972-64.1389 74.5784-62.4981 70.7926-56.6276C69.9714-55.3488 69.5497-54.132 69.5497-52.6932C69.5497-50.8514 70.871-49.5918 72.8525-49.5918C74.4349-49.5918 75.3598-50.3047 76.2014-51.666C78.2934-55.9079 82.361-57.7256 86.7977-57.7256C92.2973-57.7256 97.5038-55.1816 97.5038-49.8509C97.5038-47.326 96.0231-44.1636 92.3973-43.1153L99.5351-41.8694C102.863-43.4723 105.097-46.7825 105.097-50.4291C105.097-59.6987 95.9987-64.1389 86.7539-64.1389ZM64.2602-41.8069C64.2602-40.763 65.0589-39.9418 66.1028-39.9418L107.865-39.9418C108.957-39.9418 109.778-40.763 109.778-41.8069C109.778-42.9457 108.957-43.7195 107.865-43.7195L66.1028-43.7195C65.0589-43.7195 64.2602-42.9457 64.2602-41.8069ZM64.2602-31.9571C64.2602-30.8658 65.0589-30.092 66.1028-30.092L107.865-30.092C108.957-30.092 109.778-30.8658 109.778-31.9571C109.778-33.0485 108.957-33.8697 107.865-33.8697L66.1028-33.8697C65.0589-33.8697 64.2602-33.0485 64.2602-31.9571ZM87.0967-8.31143C94.4794-8.31143 101.4-10.8906 104.512-16.8665C105.174-18.0438 105.687-19.4322 105.687-20.5815C105.687-22.4352 104.238-23.7053 102.267-23.7053C100.652-23.7053 99.6778-22.9685 98.8482-21.4938C96.8167-16.8047 92.4601-14.7352 87.0884-14.7352C81.1682-14.7352 75.7282-17.6527 75.7282-22.785C75.7282-27.0183 78.5612-30.0007 83.2165-31.0943L75.1145-32.0156C70.8903-30.4377 68.0548-26.448 68.0548-22.2085C68.0548-12.9044 77.8041-8.31143 87.0967-8.31143Z"/>
</svg>