<svg xmlns="http://www.w3.org/2000/svg" viewBox="16.084 -109.618 113.52 148.7">
  <path d="M72.8329 20.0792C47.9945 20.0792 35.1337 8.04513 35.1337-15.4294L35.1337-55.11C35.1337-78.5845 47.9945-90.6186 72.8329-90.6186C97.6938-90.6186 110.532-78.5845 110.532-55.11L110.532-15.4294C110.532 8.04513 97.6938 20.0792 72.8329 20.0792ZM72.8329 39.0789C107.393 39.0789 129.604 17.521 129.604-16.7828L129.604-53.7566C129.604-88.0604 107.393-109.618 72.8329-109.618C38.2948-109.618 16.084-88.0604 16.084-53.7566L16.084-16.7828C16.084 17.521 38.2948 39.0789 72.8329 39.0789ZM72.8329 28.2522C44.7647 28.2522 26.9132 11.656 26.9132-15.4294L26.9132-55.11C26.9132-82.1954 44.7647-98.7916 72.8329-98.7916C100.924-98.7916 118.775-82.1954 118.775-55.11L118.775-15.4294C118.775 11.656 100.924 28.2522 72.8329 28.2522Z"/>
</svg>