<svg xmlns="http://www.w3.org/2000/svg" viewBox="11.2588 -91.2478 226.13 112">
  <path d="M124.306 20.7504C155.254 20.7504 180.305-4.30107 180.305-35.2487C180.305-66.1963 155.254-91.2478 124.306-91.2478C93.406-91.2478 68.3545-66.1963 68.3545-35.2487C68.3545-4.30107 93.406 20.7504 124.306 20.7504ZM53.2868-10.668C55.0654-12.8325 54.3896-15.5004 52.5436-17.997C48.7382-22.4644 46.7233-28.7685 46.7233-35.2697C46.7233-41.7709 48.7382-48.075 52.5436-52.5529C54.379-55.0495 55.0654-57.707 53.2868-59.8714C51.3159-62.1438 47.6839-62.2109 45.4288-59.4958C39.9704-53.09 36.8732-44.5187 36.8732-35.2697C36.8732-26.0207 39.9704-17.4494 45.4288-11.0541C47.6839-8.33906 51.3159-8.39558 53.2868-10.668ZM35.2239 7.20948C37.067 5.01206 36.5044 2.25063 34.3701-0.0930634C25.9206-9.34881 21.1313-21.6657 21.1313-35.2697C21.1313-48.8632 25.8996-61.1801 34.3701-70.4358C36.5149-72.7795 37.0775-75.541 35.2239-77.7384C33.2808-80.0253 29.8792-80.1185 27.4292-77.4471C17.1628-66.5114 11.2588-51.4638 11.2588-35.2697C11.2588-19.0546 17.0366-4.0911 27.4292 6.91825C29.9002 9.57905 33.2913 9.5069 35.2239 7.20948ZM195.362-10.647C197.311-8.37455 200.943-8.31803 203.22-11.0331C208.679-17.4284 211.776-25.9997 211.776-35.2487C211.776-44.4977 208.679-53.0689 203.22-59.4748C200.943-62.1898 197.311-62.1228 195.362-59.8504C193.514-57.6859 194.27-55.0285 196.106-52.5319C199.889-48.0539 201.904-41.7499 201.904-35.2487C201.904-28.7474 199.889-22.4434 196.106-17.9759C194.26-15.4794 193.514-12.8114 195.362-10.647ZM213.403 7.2305C215.358 9.52792 218.727 9.60008 221.22 6.93928C231.59-4.07008 237.39-19.0336 237.39-35.2487C237.39-51.4427 231.464-66.4904 221.22-77.4261C218.748-80.0974 215.368-80.0042 213.403-77.7173C211.572-75.5199 212.134-72.7585 214.257-70.4148C222.75-61.1591 227.518-48.8421 227.518-35.2487C227.518-21.6447 222.729-9.32778 214.257-0.072037C212.145 2.27166 211.582 5.03309 213.403 7.2305ZM116.181-53.2295L110.892-59.5872C110.231-60.3596 110.273-61.1819 111.053-61.8119L114.434-64.804C115.305-65.5039 116.116-65.409 116.953-64.5827L122.196-59.1195C123.061-58.2018 123.031-57.1298 122.232-56.2937L119.011-53.1306C118.025-52.1655 117.089-52.1061 116.181-53.2295ZM132.677-53.2295C131.712-52.1061 130.717-52.213 129.801-53.1306L126.58-56.2937C125.828-57.1298 125.74-58.2018 126.604-59.1195L131.869-64.5827C132.708-65.409 133.496-65.5039 134.38-64.804L137.806-61.8119C138.553-61.1819 138.618-60.3596 137.897-59.5872ZM110.21-9.43477C106.707-9.43477 104.872-11.0562 104.431-13.632L104.456-17.4002L103.166-12.1149C102.495-9.9579 100.754-9.58986 98.4847-10.2397L92.2805-11.9641C89.6451-12.7219 88.6724-14.6285 89.4632-17.465L99.3569-52.9804C100.115-55.7875 101.319-57.2753 104.21-58.3443L106.721-59.2953L114.431-49.8272C115.988-48.0267 118.207-47.8264 119.834-49.5305L122.471-52.2343L122.471-9.43477ZM112.085-22.5693L117.59-26.5169C118.372-27.1283 118.557-28.106 117.935-28.911C117.441-29.6463 116.325-29.8427 115.577-29.2906L110.127-25.2362C109.416-24.7316 109.288-23.7064 109.726-22.9475C110.338-22.1766 111.359-22.0028 112.085-22.5693ZM126.241-9.43477L126.241-52.2343L128.91-49.5305C130.505-47.8488 132.793-48.0492 134.29-49.8272L142.035-59.2953L144.512-58.3443C147.38-57.2753 148.596-55.7875 149.342-52.9804L159.225-17.465C160.016-14.6285 159.066-12.7219 156.408-11.9641L150.204-10.2397C147.934-9.58986 146.216-9.9579 145.545-12.1149L144.233-17.4676L144.291-13.632C143.84-11.0562 142.015-9.43477 138.501-9.43477ZM136.699-22.5693C137.494-22.0028 138.563-22.1766 139.068-22.9475C139.529-23.7064 139.413-24.7316 138.679-25.2362L133.159-29.2906C132.469-29.8427 131.423-29.6463 130.848-28.911C130.307-28.106 130.445-27.1283 131.204-26.5169Z" />
</svg>