<svg xmlns="http://www.w3.org/2000/svg" viewBox="11.2588 -83.9482 130.88 110.86">
  <path d="M76.6986-1.5334C117.614-1.5334 142.138-19.9426 142.138-42.7111C142.138-65.5496 117.614-83.9482 76.6182-83.9482C35.8057-83.9482 11.2588-65.5496 11.2588-42.7111C11.2588-19.9426 35.8057-1.5334 76.6986-1.5334ZM76.6986 26.9111C92.594 26.9111 102.195 19.612 102.195 7.23859L102.195 4.30889C94.3323 5.98406 85.8002 6.9198 76.6986 6.9198C67.6195 6.9198 59.065 5.98406 51.2024 4.30889L51.2024 7.23859C51.2024 19.612 60.7558 26.9111 76.6986 26.9111ZM67.9169-22.2144C64.7941-22.2144 62.8512-24.3996 62.8512-27.7593L62.8512-60.0379C62.8512-63.3752 64.8415-65.5354 67.9169-65.5354C71.0173-65.5354 73.005-63.4016 73.005-60.0379L73.005-30.7556L88.1868-30.7556C90.8448-30.7556 92.6297-29.0931 92.6297-26.5377C92.6297-23.9467 90.8448-22.2144 88.1868-22.2144Z"/>
</svg>