<svg xmlns="http://www.w3.org/2000/svg" viewBox="16.084 -93.4067 116.32 116.37">
  <path d="M35.9773 22.9622L112.512 22.9622C125.628 22.9622 132.405 16.14 132.405 3.21118L132.405-73.6557C132.405-86.5846 125.628-93.4067 112.512-93.4067L35.9773-93.4067C22.9086-93.4067 16.084-86.6295 16.084-73.6557L16.084 3.21118C16.084 16.185 22.9086 22.9622 35.9773 22.9622ZM62.2316-6.32759C58.6124-6.32759 56.6368-8.86313 56.6368-12.6124L56.6368-59.4634C56.6368-63.3051 58.5899-65.7957 62.2316-65.7957C65.8877-65.7957 67.8988-63.3789 67.8988-59.4634L67.8988-15.5201L91.558-15.5201C94.3962-15.5201 96.3456-13.7761 96.3456-10.9416C96.3456-8.06108 94.4186-6.32759 91.558-6.32759Z"/>
</svg>