<svg xmlns="http://www.w3.org/2000/svg" viewBox="11.2588 -99.6475 128.8 128.76">
  <path d="M75.6366 29.1081C111.202 29.1081 140.062 0.295961 140.062-35.2697C140.062-70.8354 111.202-99.6475 75.6366-99.6475C40.1184-99.6475 11.2588-70.8354 11.2588-35.2697C11.2588 0.295961 40.1184 29.1081 75.6366 29.1081ZM75.6366 17.9943C46.1876 17.9943 22.3976-5.82067 22.3976-35.2697C22.3976-64.7187 46.1876-88.5337 75.6366-88.5337C105.086-88.5337 128.901-64.7187 128.901-35.2697C128.901-5.82067 105.086 17.9943 75.6366 17.9943ZM56.2662-10.013L73.9905-10.013C75.9484-10.013 77.6061-11.6706 77.6061-13.6511C77.6061-15.6315 75.9484-17.3366 73.9905-17.3366L60.6512-17.3366L60.6512-56.8402C60.6512-59.1894 58.6708-61.1698 56.3466-61.1698C53.9645-61.1698 51.9841-59.1894 51.9841-56.8402L51.9841-14.5719C51.9841-11.7496 53.5363-10.013 56.2662-10.013ZM93.8321-9.38159C96.2143-9.38159 98.1722-11.362 98.1722-13.7916L98.1722-56.3131C98.1722-59.4237 96.2617-61.2197 93.1761-61.2197C90.6976-61.2197 88.7434-59.9085 87.3099-58.7858L80.3294-53.2927C79.2411-52.4797 78.4519-51.3242 78.4519-49.801C78.4519-47.8854 79.7944-46.6241 81.5393-46.6241C82.438-46.6241 83.0151-46.9008 83.6686-47.4054L89.4696-52.0788L89.4696-13.7916C89.4696-11.362 91.45-9.38159 93.8321-9.38159Z" />
</svg>