<svg xmlns="http://www.w3.org/2000/svg" viewBox="16.084 -91.9907 147.88 113.46">
  <path d="M64.6532 21.4723L115.369 21.4723C151.572 21.4723 163.961 8.1916 163.961-25.6916L163.961-44.8268C163.961-78.71 151.572-91.9907 115.369-91.9907L64.6532-91.9907C28.473-91.9907 16.084-78.71 16.084-44.8268L16.084-25.6916C16.084 8.1916 28.473 21.4723 64.6532 21.4723ZM64.6532 10.6906C35.8429 10.6906 26.8183 1.21028 26.8183-25.6916L26.8183-44.8268C26.8183-71.7287 35.8429-81.2089 64.6532-81.2089L115.369-81.2089C144.18-81.2089 153.179-71.7287 153.179-44.8268L153.179-25.6916C153.179 1.21028 144.18 10.6906 115.369 10.6906ZM56.6509-10.013L74.3527-10.013C76.3331-10.013 77.9907-11.6706 77.9907-13.6511C77.9907-15.6315 76.3331-17.3366 74.3527-17.3366L61.0609-17.3366L61.0609-56.8402C61.0609-59.1894 59.0805-61.1698 56.7313-61.1698C54.3267-61.1698 52.3688-59.1894 52.3688-56.8402L52.3688-14.5719C52.3688-11.7496 53.946-10.013 56.6509-10.013ZM88.3311-9.18382C90.7462-9.18382 92.2009-10.7835 92.2009-13.341L92.2009-47.6409L92.5476-47.6409L101.196-14.0756C101.772-11.7525 103.159-10.117 105.629-10.117C108.083-10.117 109.396-11.676 110.03-14.1336L118.668-47.6409L118.981-47.6409L118.981-13.341C118.981-10.761 120.386-9.18382 122.826-9.18382C125.336-9.18382 126.729-10.806 126.729-13.341L126.729-55.0558C126.729-58.9706 124.379-61.1368 120.581-61.1368C117.114-61.1368 115.148-59.5092 114.387-56.1135L105.723-21.6721L105.469-21.6721L96.6903-56.1135C95.893-59.5763 93.8361-61.1368 90.6212-61.1368C86.7908-61.1368 84.4612-58.8637 84.4612-55.0558L84.4612-13.341C84.4612-10.806 85.9384-9.18382 88.3311-9.18382Z"/>
</svg>