<svg xmlns="http://www.w3.org/2000/svg" viewBox="16.084 -93.3962 148.58 116.37">
  <path d="M46.6381-54.8215L86.2748-54.8215C88.5594-54.8215 90.3475-56.6976 90.3475-58.9626C90.3475-61.2578 88.5699-63.0669 86.2748-63.0669L46.6381-63.0669C44.306-63.0669 42.5655-61.2473 42.5655-58.9626C42.5655-56.6871 44.3166-54.8215 46.6381-54.8215ZM46.6381-38.5712L75.4689-38.5712C77.7656-38.5712 79.5786-40.3788 79.5786-42.6649C79.5786-44.9495 77.7761-46.8165 75.4689-46.8165L46.6381-46.8165C44.306-46.8165 42.5655-44.939 42.5655-42.6649C42.5655-40.3788 44.3166-38.5712 46.6381-38.5712ZM123.116-36.4533C131.399-36.4533 138.154-43.2086 138.154-51.5723C138.154-59.9359 131.399-66.6912 123.116-66.6912C114.752-66.6912 107.997-59.9359 107.997-51.5723C107.997-43.2086 114.752-36.4533 123.116-36.4533ZM35.9773 22.9727L144.767 22.9727C157.883 22.9727 164.661 16.1505 164.661 3.22169L164.661-73.6452C164.661-86.574 157.883-93.3962 144.767-93.3962L35.9773-93.3962C22.9086-93.3962 16.084-86.619 16.084-73.6452L16.084 3.22169C16.084 16.1955 22.9086 22.9727 35.9773 22.9727ZM36.6007 12.1909C30.2527 12.1909 26.8183 8.89347 26.8183 2.36106L26.8183-72.7845C26.8183-79.3644 30.2527-82.6144 36.6007-82.6144L144.144-82.6144C150.402-82.6144 153.926-79.3644 153.926-72.7845L153.926 2.36106C153.926 8.89347 150.402 12.1909 144.144 12.1909Z" />
</svg>