<svg xmlns="http://www.w3.org/2000/svg" viewBox="16.084 -93.4067 116.32 116.37">
  <path d="M35.9773 22.9622L112.512 22.9622C125.628 22.9622 132.405 16.14 132.405 3.21118L132.405-73.6557C132.405-86.5846 125.628-93.4067 112.512-93.4067L35.9773-93.4067C22.9086-93.4067 16.084-86.6295 16.084-73.6557L16.084 3.21118C16.084 16.185 22.9086 22.9622 35.9773 22.9622ZM48.7189-29.7673C45.2859-29.7673 42.8382-31.8196 42.8382-35.1089C42.8382-38.4905 45.1686-40.5902 48.7189-40.5902L100.051-40.5902C103.601-40.5902 105.909-38.4905 105.909-35.1089C105.909-31.8196 103.484-29.7673 100.051-29.7673Z" />
</svg>