<svg xmlns="http://www.w3.org/2000/svg" viewBox="11.2588 -96.9314 127.53 122.79">
  <path d="M39.3638 24.9081C45.519 24.9081 51.7528 22.4911 56.9078 18.2152L50.2518 11.4886C46.9646 13.8306 43.3957 15.1105 39.4442 15.1105C29.379 15.1105 21.8677 8.26972 21.8677-1.59774C21.8677-15.0773 33.5809-22.3402 46.7074-20.292C54.1226-36.6196 58.4522-57.4386 62.9242-75.4421C64.7322-82.8205 68.4935-86.8504 75.025-86.8504C81.604-86.8504 85.3178-82.8205 87.1258-75.4421C91.6453-57.4386 95.9524-36.6196 103.39-20.292C116.469-22.3402 128.182-15.0773 128.182-1.59774C128.182 8.26972 120.649 15.1105 110.606 15.1105C106.654 15.1105 103.063 13.8306 99.8232 11.4886L93.1422 18.2152C98.2747 22.4911 104.578 24.9081 110.686 24.9081C127.643 24.9081 138.791 14.1222 138.791-2.00371C138.791-17.5418 127.49-28.9742 111.105-30.4889C105.288-44.6522 100.385-62.3215 96.8799-77.2979C93.868-90.1475 86.5975-96.9314 75.025-96.9314C63.4525-96.9314 56.182-90.1475 53.1701-77.2979C49.6655-62.3215 44.7397-44.6522 38.9697-30.4889C22.5603-28.9742 11.2588-17.5418 11.2588-2.00371C11.2588 14.1222 22.4322 24.9081 39.3638 24.9081ZM75.025 25.859C90.1769 25.859 98.1731 19.093 104.481 11.3414C105.69 12.1933 107.196 12.6867 108.729 12.6867C113.349 12.6867 116.314 9.42626 116.314 5.69279C116.314 1.93972 113.536-1.3168 109.073-1.3168C105.705-1.3168 103.725 0.478497 100.793 3.62072C93.1232 11.7096 85.9965 15.4916 75.025 15.4916C64.031 15.4916 56.8569 11.7465 49.2574 3.62072C46.3024 0.478497 44.323-1.3168 41.024-1.3168C36.4916-1.3168 33.7362 1.93972 33.7362 5.69279C33.7362 9.42626 36.6789 12.6867 41.3684 12.6867C42.8543 12.6867 44.3602 12.1933 45.6165 11.3414C51.8769 19.093 59.8731 25.859 75.025 25.859Z"/>
</svg>