<svg xmlns="http://www.w3.org/2000/svg" viewBox="11.2588 -99.6475 128.8 128.76">
  <path d="M75.6366 29.1081C111.202 29.1081 140.062 0.295961 140.062-35.2697C140.062-70.8354 111.202-99.6475 75.6366-99.6475C40.1184-99.6475 11.2588-70.8354 11.2588-35.2697C11.2588 0.295961 40.1184 29.1081 75.6366 29.1081ZM75.6366 17.9943C46.1876 17.9943 22.3976-5.82067 22.3976-35.2697C22.3976-64.7187 46.1876-88.5337 75.6366-88.5337C105.086-88.5337 128.901-64.7187 128.901-35.2697C128.901-5.82067 105.086 17.9943 75.6366 17.9943ZM59.8514-5.25607C62.3913-5.25607 63.8693-6.48124 64.3949-8.92621L67.0762-21.8059L78.2805-21.8059L75.843-9.93429C75.2909-7.33505 77.0486-5.25607 79.6689-5.25607C82.2786-5.25607 83.8726-6.50227 84.3877-8.95775L87.0795-21.8059L93.2432-21.8059C95.7581-21.8059 97.5219-23.6396 97.5219-26.0885C97.5219-28.2741 96.0649-29.7785 93.9359-29.7785L88.7289-29.7785L91.3206-41.98L97.5876-41.98C100.113-41.98 101.877-43.8138 101.877-46.2627C101.877-48.4008 100.42-49.9857 98.2908-49.9857L92.9279-49.9857L95.2046-61.1718C95.7197-63.7395 93.874-65.908 91.2628-65.908C88.7665-65.908 87.1975-64.6354 86.6929-62.168L84.1605-49.9857L72.9142-49.9857L75.2343-61.1718C75.7863-63.6921 73.9761-65.908 71.3294-65.908C68.7882-65.908 67.2522-64.6354 66.795-62.168L64.2271-49.9857L57.9496-49.9857C55.4348-49.9857 53.6709-48.1624 53.6709-45.703C53.6709-43.528 55.1504-41.98 57.2464-41.98L62.5829-41.98L60.0874-29.7785L53.6158-29.7785C51.1129-29.7785 49.3265-27.9777 49.3265-25.5433C49.3265-23.3907 50.806-21.8059 52.9126-21.8059L58.3667-21.8059L55.9412-9.9448C55.4155-7.34556 57.2311-5.25607 59.8514-5.25607ZM68.1636-28.9742L70.9329-42.5963L83.2009-42.5963L80.4052-28.9742Z" />
</svg>