<svg xmlns="http://www.w3.org/2000/svg" viewBox="11.2588 -99.6475 128.8 128.76">
  <path d="M75.6366 29.1081C111.157 29.1081 140.062 0.203591 140.062-35.2697C140.062-70.743 111.157-99.6475 75.6366-99.6475C40.1633-99.6475 11.2588-70.743 11.2588-35.2697C11.2588 0.203591 40.1633 29.1081 75.6366 29.1081ZM61.6351-5.54765C58.1435-5.54765 56.1981-7.99765 56.1981-11.6788L56.1981-58.7766C56.1981-62.5643 58.1196-64.9933 61.7899-64.9933L79.6604-64.9933C92.0751-64.9933 100.411-56.9404 100.411-45.1001C100.411-33.132 92.1135-25.186 79.5709-25.186L67.1671-25.186L67.1671-11.6788C67.1671-7.91327 65.1756-5.54765 61.6351-5.54765ZM67.1671-33.4835L78.1726-33.4835C85.3064-33.4835 89.8119-37.9466 89.8119-45.0896C89.8119-52.1957 85.3394-56.6708 78.1726-56.6708L67.1671-56.6708Z"/>
</svg>