<svg xmlns="http://www.w3.org/2000/svg" viewBox="16.084 -91.6393 127.41 112.71">
  <path d="M36.0124 21.0669L110.547 21.0669C131.631 21.0669 139.242 10.8373 141.866-11.5996C143.495-25.5605 143.495-39.4157 141.303-58.2228C138.62-82.1334 125.886-91.6393 100.342-88.8578L38.7674-81.8891C23.966-80.2256 16.084-71.8115 16.084-57.791L16.084 1.28084C16.084 13.8098 23.3685 21.0669 36.0124 21.0669ZM36.5409 10.38C30.5584 10.38 26.7234 6.70731 26.7234 0.752307L26.7234-57.791C26.7234-65.6567 31.318-70.3264 39.8843-71.2707L101.54-78.1815C119.88-80.2148 128.87-73.9701 130.684-57.8948C132.866-39.2867 132.866-25.6896 131.247-11.9276C129.257 5.16783 125.894 10.38 110.547 10.38ZM46.3543-47.5228L112.104-47.5228C114.322-47.5228 116.082-49.283 116.082-51.4898C116.082-53.7072 114.322-55.4673 112.104-55.4673L46.3543-55.4673C44.1474-55.4673 42.3978-53.7072 42.3978-51.4898C42.3978-49.283 44.1474-47.5228 46.3543-47.5228ZM46.3543-26.7082L112.104-26.7082C114.322-26.7082 116.082-28.4684 116.082-30.6753C116.082-32.8926 114.322-34.6528 112.104-34.6528L46.3543-34.6528C44.1474-34.6528 42.3978-32.8926 42.3978-30.6753C42.3978-28.4684 44.1474-26.7082 46.3543-26.7082ZM46.3543-5.90419L112.104-5.90419C114.322-5.90419 116.082-7.66436 116.082-9.87121C116.082-12.0886 114.322-13.8487 112.104-13.8487L46.3543-13.8487C44.1474-13.8487 42.3978-12.0886 42.3978-9.87121C42.3978-7.66436 44.1474-5.90419 46.3543-5.90419Z"/>
</svg>