<svg xmlns="http://www.w3.org/2000/svg" viewBox="16.084 -96.794 139.65 131.04">
  <path d="M53.8344 34.2455C56.1956 34.2455 57.9598 33.0766 60.7027 30.5721L83.7483 9.93027L127.318 9.93027C145.394 9.93027 155.73-0.593349 155.73-18.4348L155.73-68.3815C155.73-86.2229 145.394-96.794 127.318-96.794L44.4964-96.794C26.4203-96.794 16.084-86.2678 16.084-68.3815L16.084-18.4348C16.084-0.548423 26.6306 9.93027 44.1811 9.93027L48.4047 9.93027L48.4047 28.1424C48.4047 31.8475 50.472 34.2455 53.8344 34.2455ZM56.8777-10.4808C54.3585-10.4808 53.2032-12.1617 53.2032-14.4874C53.2032-21.3536 63.3379-39.2898 85.2527-39.2898C107.215-39.2898 117.35-21.3536 117.35-14.4874C117.35-12.1617 116.194-10.4808 113.628-10.4808ZM85.2527-44.2617C76.396-44.3091 69.2401-51.7537 69.2401-61.7943C69.2401-71.144 76.396-78.9223 85.2527-78.9223C94.1568-78.9223 101.313-71.144 101.313-61.7943C101.313-51.7537 94.1568-44.2617 85.2527-44.2617Z"/>
</svg>