<svg xmlns="http://www.w3.org/2000/svg" viewBox="11.2588 -99.6475 128.8 128.76">
  <path d="M75.6366 29.1081C111.157 29.1081 140.062 0.203591 140.062-35.2697C140.062-70.743 111.157-99.6475 75.6366-99.6475C40.1633-99.6475 11.2588-70.743 11.2588-35.2697C11.2588 0.203591 40.1633 29.1081 75.6366 29.1081ZM75.6366 19.7814C60.873 19.7814 45.9472 13.5227 36.4524 3.31738C43.5799-7.64632 58.4311-14.1495 75.6366-14.1495C92.7013-14.1495 107.635-7.71479 114.821 3.31738C105.326 13.5227 90.4003 19.7814 75.6366 19.7814ZM75.6366-25.002C63.358-25.0969 53.8373-35.3955 53.8373-48.9716C53.7568-61.7646 63.4569-72.4693 75.6366-72.4693C87.8163-72.4693 97.436-61.7646 97.436-48.9716C97.436-35.3955 87.9153-24.9071 75.6366-25.002Z"/>
</svg>