<svg xmlns="http://www.w3.org/2000/svg" viewBox="11.2588 -99.6475 128.8 128.76">
  <path d="M75.6366 29.1081C111.202 29.1081 140.062 0.295961 140.062-35.2697C140.062-70.8354 111.202-99.6475 75.6366-99.6475C40.1184-99.6475 11.2588-70.8354 11.2588-35.2697C11.2588 0.295961 40.1184 29.1081 75.6366 29.1081ZM75.6366 17.9943C46.1876 17.9943 22.3976-5.82067 22.3976-35.2697C22.3976-64.7187 46.1876-88.5337 75.6366-88.5337C105.086-88.5337 128.901-64.7187 128.901-35.2697C128.901-5.82067 105.086 17.9943 75.6366 17.9943ZM56.6849-16.1712C66.8985-5.93505 79.1677 1.92399 89.0253 1.92399C93.7135 1.92399 97.6885 0.0873661 100.365-2.87766C102.94-5.77421 103.819-7.88616 103.819-9.81767C103.819-11.2757 102.912-12.6074 100.601-14.2277L92.0878-20.3386C89.9624-21.8785 89.0199-22.1198 87.7331-22.1198C86.6757-22.1198 85.7936-21.9365 83.977-20.924L78.4146-17.8666C77.7817-17.5449 77.4601-17.442 76.967-17.442C76.3342-17.442 75.9096-17.6029 75.2333-17.8771C72.5305-19.1428 68.8667-22.0274 65.5351-25.3235C62.2839-28.5852 59.7315-31.9563 58.3419-34.5932C58.206-34.9953 57.9872-35.5477 57.9872-36.1001C57.9872-36.5352 58.218-36.9478 58.4922-37.4304L61.6999-43.0402C62.6215-44.5576 62.8957-45.3843 62.8957-46.5906C62.8957-47.9472 62.4817-49.4067 61.1145-51.2564L55.2674-59.4226C53.5891-61.7563 52.2603-63.1248 50.3657-63.1248C48.0546-63.1248 45.2754-61.3212 43.22-59.3911C40.3129-56.6224 38.773-52.7173 38.773-48.3508C38.773-38.4008 46.4237-26.3954 56.6849-16.1712ZM79.1593-34.884C79.9762-34.884 80.8155-35.1568 81.3676-35.7114L96.6547-51.0105L100.551-55.303L100.195-47.1639L100.195-41.3713C100.195-39.6332 101.433-38.3208 103.145-38.1785C104.977-38.131 106.405-39.5278 106.405-41.3608L106.405-61.7325C106.405-63.9905 105.089-65.329 102.845-65.329L82.2348-65.329C80.4613-65.329 79.067-63.8083 79.1619-62.0467C79.2093-60.3246 80.4968-59.0266 82.2454-59.0266L88.3361-59.0266L96.4224-59.4522L92.2037-55.5194L76.9496-40.3127C76.2142-39.5774 75.9389-38.8079 75.9389-37.8856C75.9389-36.0791 77.3198-34.884 79.1593-34.884Z" />
</svg>