<svg xmlns="http://www.w3.org/2000/svg" viewBox="11.2588 -107.97 120.22 145.4">
  <path d="M11.2588-35.2697C11.2588-7.67045 18.4868 14.8014 30.8496 27.2116C37.333 33.6476 45.3607 37.4309 54.7683 37.4309C62.9274 37.4309 71.0459 34.3663 72.0393 25.0547C72.7631 23.3112 72.9498 21.1757 72.5263 18.7906L68.8757-1.08333C67.8593-6.50391 65.1054-9.28249 59.5203-11.0759L49.3413-14.1778C46.9952-14.8762 45.7363-16.1138 45.1494-18.6224C44.4557-21.6044 43.8674-26.9926 43.8674-35.2697C43.8674-43.5468 44.4557-48.935 45.1494-51.917C45.7363-54.4256 46.9952-55.6632 49.3413-56.3616L59.5203-59.4635C65.1054-61.2569 67.8593-64.0355 68.8757-69.4561L72.5263-89.33C72.9498-91.7151 72.7631-93.8506 72.0393-95.5941C71.0459-104.906 62.9274-107.97 54.7683-107.97C45.3607-107.97 37.333-104.187 30.8496-97.751C18.4868-85.3408 11.2588-62.869 11.2588-35.2697ZM20.6515-35.2697C20.6515-59.1283 26.48-80.7712 37.5297-91.5482C41.9387-95.9098 47.8323-98.5456 53.6833-98.5456C58.2149-98.5456 62.376-97.0763 63.0973-93.5574C63.6639-92.7973 63.9005-91.78 63.7078-90.6196L60.1345-72.7028C59.6889-70.5118 58.4057-69.0932 55.8441-68.3274L45.7933-65.2006C40.1486-63.3676 37.8185-60.9307 36.7574-55.9518C35.8623-51.5271 35.1171-44.1284 35.1171-35.2697C35.1171-26.411 35.8623-19.0123 36.7574-14.5876C37.8185-9.60872 40.1486-7.17177 45.7933-5.33881L55.8441-2.21204C58.4057-1.44621 59.6889-0.0275869 60.1345 2.16343L63.7078 20.0802C63.9005 21.2406 63.6639 22.2579 63.0973 23.018C62.376 26.5369 58.2149 28.0062 53.6833 28.0062C47.8323 28.0062 41.9387 25.3704 37.5297 21.0088C26.48 10.2318 20.6515-11.4111 20.6515-35.2697ZM100.701-4.55781C101.994-4.55781 103.105-5.03998 104.012-5.8989L129.658-31.5349C130.875-32.7043 131.478-34.0252 131.478-35.2697C131.478-36.4917 130.875-37.8351 129.658-39.0045L104.012-64.6405C103.105-65.4994 101.994-65.9816 100.701-65.9816C98.1538-65.9816 96.2345-64.1427 96.2345-61.5358C96.2345-60.2172 96.7587-59.0304 97.6176-58.124L104.82-50.8534L122.425-35.2697L104.82-19.686L97.6176-12.4154C96.7587-11.509 96.2345-10.3222 96.2345-9.00358C96.2345-6.3967 98.1538-4.55781 100.701-4.55781ZM66.571-35.2697C66.571-32.7736 68.4269-30.5975 71.2591-30.5975L107.056-30.5975L119.736-31.2035C121.979-31.3194 123.802-33.0265 123.802-35.2697C123.802-37.5129 121.979-39.22 119.736-39.3359L107.056-39.9419L71.2591-39.9419C68.4269-39.9419 66.571-37.7658 66.571-35.2697Z" />
</svg>