<svg xmlns="http://www.w3.org/2000/svg" viewBox="16.084 -105.385 132.73 140.13">
  <path d="M64.4157-17.8942C56.728-17.8942 50.5103-24.1923 50.5103-31.8919C50.5103-39.4043 56.728-45.6894 64.4157-45.6894C72.0124-45.6894 78.2156-39.4043 78.2156-31.8919C78.2156-24.1923 72.0124-17.8942 64.4157-17.8942ZM37.1334 23.2586C30.9751 23.2586 27.6131 20.0336 27.6131 13.666L27.6131 8.47359L43.0747-5.34744C45.506-7.48616 47.8737-8.6044 50.5728-8.6044C53.4093-8.6044 55.9562-7.47565 58.3956-5.26702L68.641 4.00435L94.7562-18.8498C97.4792-21.2642 100.265-22.3416 103.472-22.3416C106.721-22.3416 109.763-21.1943 112.335-18.7799L137.264 4.56187L137.264 13.666C137.264 20.0336 133.835 23.2586 127.766 23.2586ZM35.9773 34.7404L128.922 34.7404C141.991 34.7404 148.816 27.9657 148.816 15.0368L148.816-50.0543C148.816-62.9581 141.991-69.7578 128.922-69.7578L35.9773-69.7578C22.8612-69.7578 16.084-63.0505 16.084-50.0543L16.084 15.0368C16.084 28.0106 22.8612 34.7404 35.9773 34.7404ZM29.9376-80.3097L135.034-80.3097C134.261-85.5745 131.601-88.6656 125.767-88.6656L39.227-88.6656C33.3235-88.6656 30.6859-85.5745 29.9376-80.3097ZM42.5525-97.7142L122.394-97.7142C122.026-102.63 119.109-105.385 113.774-105.385L51.1728-105.385C45.8856-105.385 42.9213-102.63 42.5525-97.7142Z"/>
</svg>