<svg xmlns="http://www.w3.org/2000/svg" viewBox="16.084 -93.3513 149.46 116.37">
  <path d="M44.9827-20.1978L79.2823-20.1978C82.6694-20.1978 84.8987-22.4271 84.8987-25.9301L84.8987-44.4035C84.8987-47.9065 82.6694-50.1358 79.2823-50.1358L44.9827-50.1358C41.5956-50.1358 39.3663-47.9065 39.3663-44.4035L39.3663-25.9301C39.3663-22.4271 41.5956-20.1978 44.9827-20.1978ZM101.598-20.1978L135.85-20.1978C139.237-20.1978 141.467-22.4271 141.467-25.9301L141.467-44.4035C141.467-47.9065 139.237-50.1358 135.85-50.1358L101.598-50.1358C98.1635-50.1358 95.9817-47.9065 95.9817-44.4035L95.9817-25.9301C95.9817-22.4271 98.1635-20.1978 101.598-20.1978ZM35.9878 23.0176L145.65 23.0176C158.767 23.0176 165.544 16.185 165.544 3.25611L165.544-73.6003C165.544-86.5291 158.767-93.3513 145.65-93.3513L35.9773-93.3513C22.9086-93.3513 16.084-86.574 16.084-73.6003L16.084 3.25611C16.084 16.2299 22.9192 23.0176 35.9878 23.0176ZM36.6112 12.2359C30.2632 12.2359 26.8288 8.98584 26.8288 2.40598L26.8288-72.7396C26.8288-79.272 30.2527-82.5695 36.6007-82.5695L145.027-82.5695C151.285-82.5695 154.809-79.272 154.809-72.7396L154.809 2.40598C154.809 8.98584 151.285 12.2359 145.027 12.2359Z"/>
</svg>