<svg xmlns="http://www.w3.org/2000/svg" viewBox="16.084 -93.4067 116.32 116.37">
  <path d="M50.393-6.27072L98.0964-6.27072C101.619-6.27072 104.189-8.80365 104.189-12.3738L104.189-58.1656C104.189-61.7358 101.619-64.2687 98.0964-64.2687L50.393-64.2687C46.8703-64.2687 44.3479-61.7358 44.3479-58.1656L44.3479-12.3738C44.3479-8.80365 46.8703-6.27072 50.393-6.27072ZM62.3576-34.7221C60.5666-34.7221 59.1209-36.156 59.1209-38.0168L59.1209-48.871C59.1209-50.7674 60.5666-52.2251 62.3576-52.2251C64.2515-52.2251 65.7672-50.7674 65.7672-48.871L65.7672-38.0168C65.7672-36.1665 64.2515-34.7221 62.3576-34.7221ZM86.0513-34.7221C84.168-34.7221 82.7697-36.156 82.7697-38.0168L82.7697-48.871C82.7697-50.7674 84.168-52.2251 86.0513-52.2251C87.8753-52.2251 89.3685-50.7674 89.3685-48.871L89.3685-38.0168C89.3685-36.1665 87.8753-34.7221 86.0513-34.7221ZM70.2159-16.0172C69.0415-16.0172 68.447-16.5906 68.447-17.7545L68.447-21.5045C68.447-24.7659 70.9371-27.3484 74.2684-27.3484C77.4823-27.3484 80.0424-24.7659 80.0424-21.5045L80.0424-17.7545C80.0424-16.5906 79.4479-16.0172 78.321-16.0172ZM35.9773 22.9622L112.512 22.9622C125.628 22.9622 132.405 16.14 132.405 3.21118L132.405-73.6557C132.405-86.5846 125.628-93.4067 112.512-93.4067L35.9773-93.4067C22.9086-93.4067 16.084-86.6295 16.084-73.6557L16.084 3.21118C16.084 16.185 22.9086 22.9622 35.9773 22.9622ZM36.6007 12.1804C30.2527 12.1804 26.8183 8.88295 26.8183 2.35054L26.8183-72.7951C26.8183-79.3749 30.2527-82.6249 36.6007-82.6249L111.889-82.6249C118.147-82.6249 121.671-79.3749 121.671-72.7951L121.671 2.35054C121.671 8.88295 118.147 12.1804 111.889 12.1804Z" />
</svg>