<svg xmlns="http://www.w3.org/2000/svg" viewBox="11.2588 -107.232 157.71 143.88">
  <path d="M83.2321-107.232C43.5572-107.232 11.2588-74.9896 11.2588-35.2697C11.2588 4.41717 43.5347 36.6457 83.2321 36.6457C114.462 36.6457 141.116 16.632 150.989-11.2422C147.473-10.7318 144.053-11.7095 141.468-13.8C132.687 9.99875 109.914 26.8311 83.2321 26.8311C48.7711 26.8311 21.0259-0.878629 21.0259-35.2697C21.0259-69.6832 48.841-97.418 83.2321-97.418C109.984-97.418 132.735-80.5382 141.468-56.6814C144.053-58.8169 147.543-59.7023 150.978-59.2497C141.188-87.1239 114.52-107.232 83.2321-107.232ZM151.616-49.845C148.367-52.3118 144.217-50.8017 144.217-46.7087L144.217-23.8043C144.217-19.5849 148.404-18.217 151.569-20.5996L166.662-31.9997C168.886-33.6802 168.966-36.8697 166.662-38.5502ZM83.2321 14.8885C110.943 14.8885 133.343-7.55923 133.343-35.2697C133.343-63.0276 110.943-85.4753 83.2321-85.4753C55.5216-85.4753 33.016-63.0276 33.016-35.2697C33.016-7.55923 55.5216 14.8885 83.2321 14.8885ZM70.3975-10.6824C67.4492-10.6824 65.7455-12.6917 65.7455-15.6875L65.7455-55.3607C65.7455-58.4526 67.4409-60.5292 70.3526-60.5292L85.039-60.5292C95.7465-60.5292 102.867-54.3393 102.867-44.5139C102.867-38.0424 99.0786-32.5055 93.1856-30.2915L100.676-18.2013C101.382-17.1312 101.817-16.0285 101.817-14.7874C101.817-12.3991 100.002-10.6824 97.4102-10.6824C95.3116-10.6824 93.9506-11.5203 92.6687-13.6888L83.9672-28.8055L75.2288-28.8055L75.2288-15.6875C75.2288-12.7179 73.4803-10.6824 70.3975-10.6824ZM75.2288-35.996L84.0697-35.996C90.0024-35.996 93.5173-38.9267 93.5173-44.3401C93.5173-49.7773 89.8391-53.0347 84.212-53.0347L75.2288-53.0347Z"/>
</svg>