<svg xmlns="http://www.w3.org/2000/svg" viewBox="16.084 -91.9907 147.88 113.46">
  <path d="M64.6532 21.4723L115.369 21.4723C151.572 21.4723 163.961 8.1916 163.961-25.6916L163.961-44.8268C163.961-78.71 151.572-91.9907 115.369-91.9907L64.6532-91.9907C28.473-91.9907 16.084-78.71 16.084-44.8268L16.084-25.6916C16.084 8.1916 28.473 21.4723 64.6532 21.4723ZM64.6532 10.6906C35.8429 10.6906 26.8183 1.21028 26.8183-25.6916L26.8183-44.8268C26.8183-71.7287 35.8429-81.2089 64.6532-81.2089L115.369-81.2089C144.18-81.2089 153.179-71.7287 153.179-44.8268L153.179-25.6916C153.179 1.21028 144.18 10.6906 115.369 10.6906ZM60.5483-9.3186C63.2638-9.3186 64.8779-11.1027 64.8779-13.8655L64.8779-29.4977L70.9296-29.4977L77.5232-12.852C78.3995-10.5781 79.7315-9.3186 82.0741-9.3186C84.1691-9.3186 86.1929-10.6493 86.1718-13.5413C86.1613-14.2738 85.8332-15.3348 85.3786-16.5576L79.1884-31.3846C84.0776-33.8414 86.3808-39.1157 86.3808-44.9472C86.3808-54.9471 80.5386-60.4055 70.8571-60.4055L60.4784-60.4055C57.6826-60.4055 56.1383-58.7243 56.1383-55.906L56.1383-13.8655C56.1383-11.1396 57.7275-9.3186 60.5483-9.3186ZM64.8779-35.9138L64.8779-53.5311L70.0388-53.5311C74.8856-53.5311 77.5518-49.8673 77.5518-44.7983C77.5518-39.7682 75.2606-35.9138 70.0507-35.9138ZM115.715-9.27619C117.948-9.27619 119.79-10.7154 119.79-13.5493L119.79-20.1379L122.114-20.1379C124.445-20.1379 125.51-21.6438 125.51-23.6271C125.51-25.6245 124.432-27.0938 122.124-27.0938L119.79-27.0938L119.79-54.7899C119.79-59.0238 117.029-61.2042 113.157-61.2042C108.728-61.2042 106.821-58.6199 105.137-54.7873L93.9833-30.6992C93.0686-28.4682 92.6904-26.8753 92.6904-25.0424C92.6904-22.0672 94.6407-20.1379 97.7149-20.1379L111.547-20.1379L111.547-13.5493C111.547-10.5017 113.699-9.27619 115.715-9.27619ZM111.742-26.8989L100.015-26.8989L100.015-27.2915L111.501-53.6608L111.742-53.6608Z"/>
</svg>