<svg xmlns="http://www.w3.org/2000/svg" viewBox="11.2588 -99.6475 128.8 128.76">
  <path d="M75.6366 29.1081C111.202 29.1081 140.062 0.295961 140.062-35.2697C140.062-70.8354 111.202-99.6475 75.6366-99.6475C40.1184-99.6475 11.2588-70.8354 11.2588-35.2697C11.2588 0.295961 40.1184 29.1081 75.6366 29.1081ZM75.6366 17.9943C46.1876 17.9943 22.3976-5.82067 22.3976-35.2697C22.3976-64.7187 46.1876-88.5337 75.6366-88.5337C105.086-88.5337 128.901-64.7187 128.901-35.2697C128.901-5.82067 105.086 17.9943 75.6366 17.9943ZM105.8-3.29998C106.9-2.1404 108.757-2.10743 109.832-3.29998C111.002-4.39765 111.002-6.23178 109.832-7.33196L48.6572-68.5769C47.4871-69.747 45.6675-69.747 44.5673-68.5769C43.3747-67.4543 43.3972-65.6676 44.5673-64.4975ZM61.7789-6.25356L96.3049-6.25356L54.4444-48.0311C53.683-46.8509 53.2911-45.2683 53.2911-43.3268L53.2911-14.7164C53.2911-9.06395 56.1264-6.25356 61.7789-6.25356ZM110.907-12.8242C111.516-13.9027 111.785-15.2851 111.785-16.9276L111.785-43.7893C111.785-49.277 108.928-52.2048 103.322-52.2048L71.5382-52.2048ZM39.6488-27.6635C39.6488-22.1034 42.5541-19.2705 48.0841-19.2705L49.6972-19.2705L49.6972-44.1596C49.6972-47.0255 50.3239-49.3122 51.5877-50.9353L41.1716-61.3408C40.203-60.0831 39.6488-58.2962 39.6488-56.0224ZM67.9193-55.8236L98.1905-55.8011L98.1905-56.6848C98.1905-62.1517 95.3077-65.032 89.7026-65.032L58.7334-65.032Z" />
</svg>