<svg xmlns="http://www.w3.org/2000/svg" viewBox="16.084 -107.678 160.63 144.81">
  <path d="M35.3926-5.50785L73.7779-5.50785L67.6485-15.0253L36.016-15.0253C29.2308-15.0253 25.6015-18.7021 25.6015-25.4873L25.6015-87.6506C25.6015-94.4608 29.2308-98.1376 36.016-98.1376L117.781-98.1376C124.454-98.1376 128.148-94.4608 128.148-87.6506L128.148-56.9497L137.713-56.9497L137.713-88.5362C137.713-101.119 131.152-107.678 118.405-107.678L35.3926-107.678C22.5978-107.678 16.084-101.211 16.084-88.5362L16.084-24.6267C16.084-11.9268 22.5978-5.50785 35.3926-5.50785ZM140.973 29.5362C165.997 20.423 176.713-1.90782 166.652-29.9775L161.852-43.2428C156.904-56.927 147.513-62.6176 136.434-58.8329C133.43-62.6086 128.753-63.8876 123.808-62.0619C122.134-61.4501 120.507-60.5611 119.113-59.4415C115.889-63.5334 110.94-64.9389 105.93-63.1341C104.666-62.6817 103.388-61.9402 102.264-61.1064L95.5231-79.6067C92.7619-87.1837 85.9388-90.3042 78.9411-87.8043C71.8024-85.2029 68.4783-78.3696 71.2764-70.815L88.8136-22.6262C88.952-22.2835 88.8716-22.0423 88.5934-21.892C88.3626-21.822 88.1674-21.892 87.9841-22.1346L80.3973-30.4213C76.6983-34.0121 72.4535-35.039 68.3224-33.6129C62.3418-31.4067 58.7381-25.7118 61.1685-19.085C61.809-17.2375 62.9805-15.1209 64.4303-13.3839L85.7272 12.3248C101.36 31.2048 120.169 37.1276 140.973 29.5362ZM138.134 20.8957C121.611 26.9286 106.352 23.2482 92.4409 6.76125L71.0034-18.7438C70.3676-19.4719 69.9522-20.1301 69.5696-21.1378C68.8665-23.1218 69.7993-25.3484 72.072-26.2019C73.9146-26.864 75.573-26.1569 77.131-24.4722L91.7483-9.49854C94.0677-7.15378 96.221-6.8321 98.3561-7.58993C100.863-8.54015 102.13-11.1506 101.047-14.0944L79.1854-74.2359C78.2172-76.7676 79.2354-79.1197 81.6653-79.9956C84.1097-80.8939 86.3125-79.7329 87.3032-77.1762L102.694-34.8733C103.448-32.7429 105.756-31.7071 107.851-32.4871C109.909-33.242 110.935-35.495 110.155-37.5675L104.635-52.7346C105.53-53.567 106.751-54.3545 107.858-54.7225C110.744-55.7831 113.179-54.5602 114.285-51.5062L119.098-38.2364C119.935-36.0172 122.23-35.1492 124.225-35.8712C126.16-36.5812 127.275-38.6758 126.485-40.92L122.566-51.7782C123.461-52.5857 124.705-53.3837 125.859-53.7991C128.735-54.8043 131.063-53.6264 132.238-50.4904L135.465-41.6191C136.312-39.3314 138.593-38.5003 140.609-39.2328C142.602-39.9428 143.77-42.094 143.007-44.3817L140.658-50.7352C145.886-52.6229 150.591-48.7109 153.863-39.7416L158.201-27.8212C166.723-4.32071 158.641 13.4286 138.134 20.8957Z"/>
</svg>