<svg xmlns="http://www.w3.org/2000/svg" viewBox="16.084 -93.38 176.8 116.01">
  <path d="M16.084-69.7948L26.3913-69.7948L26.3913-77.7262C26.3913-81.405 28.1763-83.0952 31.6654-83.0952L40.5097-83.0952L40.5097-93.38L30.4311-93.38C20.9002-93.38 16.084-88.746 16.084-79.1752ZM48.963-83.0952L70.8396-83.0952L70.8396-93.38L48.963-93.38ZM79.2928-83.0952L88.0448-83.0952C91.5813-83.0952 93.4138-81.405 93.4138-77.7262L93.4138-69.7948L103.721-69.7948L103.721-79.1752C103.721-88.746 98.835-93.38 89.374-93.38L79.2928-93.38ZM79.2928-37.639L89.374-37.639C98.835-37.639 103.721-42.273 103.721-51.8438L103.721-61.3416L93.4138-61.3416L93.4138-53.3153C93.4138-49.6839 91.5813-47.8988 88.0448-47.8988L79.2928-47.8988ZM48.963-37.639L70.8396-37.639L70.8396-47.8988L48.963-47.8988ZM30.4311-37.639L40.5097-37.639L40.5097-47.8988L31.6654-47.8988C28.1763-47.8988 26.3913-49.6839 26.3913-53.3153L26.3913-61.3416L16.084-61.3416L16.084-51.8438C16.084-42.273 20.9002-37.639 30.4311-37.639ZM31.9577-5.45682L42.265-5.45682L42.265-9.09228C42.265-12.7606 44.0606-14.4877 47.5391-14.4877L54.2043-14.4877L54.2043-24.7476L46.3049-24.7476C36.7739-24.7476 31.9577-20.0911 31.9577-10.5427ZM62.6101-14.4877L80.1953-14.4877L80.1953-24.7476L62.6101-24.7476ZM100.635-5.45682L110.943-5.45682L110.943-10.5427C110.943-20.0911 106.079-24.7476 96.5954-24.7476L88.6485-24.7476L88.6485-14.4877L95.3137-14.4877C98.7922-14.4877 100.635-12.7606 100.635-9.09228ZM88.6485 22.6316L96.5954 22.6316C106.079 22.6316 110.943 17.9752 110.943 8.42679L110.943 2.3656L100.635 2.3656L100.635 6.99737C100.635 10.6077 98.7922 12.3718 95.3137 12.3718L88.6485 12.3718ZM62.6101 22.6316L80.1953 22.6316L80.1953 12.3718L62.6101 12.3718ZM46.3049 22.6316L54.2043 22.6316L54.2043 12.3718L47.5391 12.3718C44.0711 12.3718 42.265 10.6077 42.265 6.99737L42.265 2.3656L31.9577 2.3656L31.9577 8.42679C31.9577 17.9752 36.7739 22.6316 46.3049 22.6316ZM122.66-56.0624L132.92-56.0624L132.92-68.6144C132.92-72.2932 134.752-73.9834 138.241-73.9834L153.556-73.9834L153.556-84.2907L136.959-84.2907C127.498-84.2907 122.66-79.6567 122.66-70.0858ZM182.576-56.0624L192.883-56.0624L192.883-70.0858C192.883-79.6567 188.067-84.2907 178.536-84.2907L161.962-84.2907L161.962-73.9834L177.277-73.9834C180.813-73.9834 182.576-72.2932 182.576-68.6144ZM182.576-22.174L192.883-22.174L192.883-47.6092L182.576-47.6092ZM161.962 14.8428L178.536 14.8428C188.067 14.8428 192.883 10.2088 192.883 0.637994L192.883-13.7208L182.576-13.7208L182.576-0.833483C182.576 2.7979 180.813 4.58295 177.277 4.58295L161.962 4.58295ZM136.959 14.8428L153.556 14.8428L153.556 4.58295L138.241 4.58295C134.752 4.58295 132.92 2.7979 132.92-0.833483L132.92-13.7208L122.66-13.7208L122.66 0.637994C122.66 10.2088 127.498 14.8428 136.959 14.8428ZM122.66-22.174L132.92-22.174L132.92-47.6092L122.66-47.6092Z"/>
</svg>