<svg xmlns="http://www.w3.org/2000/svg" viewBox="12.8672 -100.343 118.81 118.74">
  <path d="M22.3509 18.3973L120.019 18.3973C128.072 18.3973 131.677 14.8148 131.677 6.76179L131.677-90.8818C131.677-96.8163 127.984-100.343 122.643-100.343C119.246-100.343 116.685-98.8201 114.023-96.1577L17.0526 0.765189C14.4126 3.4276 12.8672 5.9661 12.8672 9.43226C12.8672 14.726 16.4414 18.3973 22.3509 18.3973ZM28.3145 7.63262C27.6457 7.63262 27.2356 7.35039 27.2356 6.81495C27.2356 6.52077 27.349 6.261 27.7461 5.86393L119.074-85.4866C119.494-85.9311 119.801-86.0445 120.095-86.0445C120.583-86.0445 120.843-85.587 120.843-84.9432L120.843 5.1346C120.843 7.15657 120.389 7.63262 118.367 7.63262Z"/>
</svg>