<svg xmlns="http://www.w3.org/2000/svg" viewBox="16.3311 -100.348 133.73 130.22">
  <path d="M16.3311-94.981C16.3311-92.0425 18.7598-89.6138 21.6758-89.6138L144.693-89.6138C147.657-89.6138 150.061-92.0425 150.061-94.981C150.061-97.897 147.657-100.348 144.693-100.348L21.6758-100.348C18.7598-100.348 16.3311-97.897 16.3311-94.981ZM21.6758-74.2144C24.0174-74.2144 25.9373-76.1908 25.9373-78.464C25.9373-80.8056 24.0279-82.6556 21.6758-82.6556C19.3461-82.6556 17.4841-80.8056 17.4841-78.464C17.4841-76.1908 19.3566-74.2144 21.6758-74.2144ZM21.6758-59.604C24.0174-59.604 25.9373-61.512 25.9373-63.7956C25.9373-66.1847 24.0279-68.0452 21.6758-68.0452C19.3461-68.0452 17.4841-66.1847 17.4841-63.7956C17.4841-61.512 19.3566-59.604 21.6758-59.604ZM21.6758-44.9697C24.0174-44.9697 25.9373-46.9002 25.9373-49.1838C25.9373-51.503 24.0279-53.3755 21.6758-53.3755C19.3461-53.3755 17.4841-51.503 17.4841-49.1838C17.4841-46.9002 19.3566-44.9697 21.6758-44.9697ZM21.6758-30.3224C24.0174-30.3224 25.9373-32.3108 25.9373-34.584C25.9373-36.8926 24.0279-38.7756 21.6758-38.7756C19.3461-38.7756 17.4841-36.8926 17.4841-34.584C17.4841-32.3108 19.3566-30.3224 21.6758-30.3224ZM21.6758-15.7001C24.0174-15.7001 25.9373-17.6306 25.9373-19.9142C25.9373-22.2808 24.0279-24.1533 21.6758-24.1533C19.3461-24.1533 17.4841-22.2808 17.4841-19.9142C17.4841-17.6306 19.3566-15.7001 21.6758-15.7001ZM21.6758-1.10026C24.0174-1.10026 25.9373-3.03071 25.9373-5.30242C25.9373-7.64405 24.0279-9.50602 21.6758-9.50602C19.3461-9.50602 17.4841-7.64405 17.4841-5.30242C17.4841-3.03071 19.3566-1.10026 21.6758-1.10026ZM21.6758 29.8718C24.2448 29.8718 26.3911 27.715 26.3911 25.146L26.3911 9.83162C26.3911 7.27309 24.3147 5.10578 21.6758 5.10578C19.1067 5.10578 17.0054 7.27309 17.0054 9.83162L17.0054 25.146C17.0054 27.715 19.1292 29.8718 21.6758 29.8718ZM38.5959-61.7039L140.337-61.7039C143.2-61.7039 145.177-63.6829 145.177-66.4539L145.177-77.6594C145.177-80.408 143.2-82.3396 140.337-82.3396L38.5959-82.3396C35.7549-82.3396 33.7784-80.408 33.7784-77.6699L33.7784-66.4539C33.7784-63.6829 35.7549-61.7039 38.5959-61.7039ZM44.7166-34.6978L134.169-34.6978C137.01-34.6978 139.009-36.6294 139.009-39.4004L139.009-53.6135L39.9241-53.6135L39.9241-39.3899C39.9241-36.6189 41.9007-34.6978 44.7166-34.6978Z"/>
</svg>