<svg xmlns="http://www.w3.org/2000/svg" viewBox="16.084 -97.0106 133.54 123.46">
  <path d="M77.117-28.4438L87.6185-28.4438L87.6185-79.341C87.6185-83.6941 90.4741-86.5496 94.8522-86.5496C99.1828-86.5496 102.061-83.6835 102.061-79.341L102.061-69.4391C102.061-66.5533 104.437-64.1771 107.3-64.1771C110.234-64.1771 112.562-66.5533 112.562-69.4391L112.562-79.4882C112.562-90.0519 105.393-97.0106 94.8522-97.0106C84.2634-97.0106 77.117-90.0519 77.117-79.4882ZM58.5223-28.4438L67.3551-28.4438L67.3551-44.7978C67.3551-48.2645 65.0962-50.5009 61.6295-50.5009L43.7976-50.5009C41.3609-50.5009 39.3575-48.4975 39.3575-46.0608C39.3575-43.6017 41.3609-41.6207 43.7976-41.6207L57.1765-41.6207C57.9959-41.6207 58.5223-41.1193 58.5223-40.2749ZM97.3105-28.4438L106.213-28.4438L106.213-40.2749C106.213-41.1193 106.74-41.6207 107.559-41.6207L120.915-41.6207C123.375-41.6207 125.355-43.6017 125.355-46.0608C125.355-48.4975 123.375-50.5009 120.915-50.5009L103.083-50.5009C99.6168-50.5009 97.3105-48.2645 97.3105-44.7978ZM21.346-21.8609L23.4379-21.8609L23.4379-1.18444C23.4379 16.4349 34.2164 26.4462 53.0979 26.4462L112.609 26.4462C131.512 26.4462 142.313 16.4349 142.313-1.18444L142.313-21.8609L144.383-21.8609C147.236-21.8609 149.622-24.27 149.622-27.1229C149.622-30.0233 147.236-32.3849 144.383-32.3849L21.346-32.3849C18.4706-32.3849 16.084-30.0233 16.084-27.1229C16.084-24.27 18.4706-21.8609 21.346-21.8609Z"/>
</svg>