<svg xmlns="http://www.w3.org/2000/svg" viewBox="7.37005 -91.1539 153.38 111.75">
  <path d="M55.0092 20.5935L133.363 20.5935C149.556 20.5935 160.747 9.20342 160.747-5.53922C160.747-18.0392 151.979-28.5773 140.009-31.1175C138.848-46.7369 126.158-59.3118 110.255-59.3118C99.9335-59.3118 90.9467-54.3269 85.3994-46.1026C82.6735-46.993 80.266-47.386 77.526-47.386C65.3224-47.386 55.2223-38.6717 53.1681-26.7192C40.4214-26.027 30.5073-15.6259 30.5073-3.16212C30.5073 10.2054 40.4725 20.5935 55.0092 20.5935ZM24.9632-13.0309C28.1853-24.6868 36.4307-31.9848 47.447-33.8985C51.6772-48.1827 63.837-55.969 77.7667-55.969C79.8126-55.969 81.581-55.7327 83.2265-55.4491C89.043-64.2671 98.5177-68.3132 110.295-67.8333C107.763-74.265 100.848-79.292 90.9515-79.292C87.8553-79.292 85.501-78.795 82.7704-77.9763C76.8723-86.3521 68.1823-91.1539 58.1091-91.1539C42.3437-91.1539 29.2467-78.6664 28.0855-63.072C16.0369-60.3625 7.37005-49.8918 7.37005-37.4169C7.37005-26.5632 13.4148-17.1082 24.9632-13.0309Z"/>
</svg>