<svg xmlns="http://www.w3.org/2000/svg" viewBox="11.2588 -99.6475 128.8 128.76">
  <path d="M75.6366 29.1081C111.202 29.1081 140.062 0.295961 140.062-35.2697C140.062-70.8354 111.202-99.6475 75.6366-99.6475C40.1184-99.6475 11.2588-70.8354 11.2588-35.2697C11.2588 0.295961 40.1184 29.1081 75.6366 29.1081ZM75.6366 17.9943C46.1876 17.9943 22.3976-5.82067 22.3976-35.2697C22.3976-64.7187 46.1876-88.5337 75.6366-88.5337C105.086-88.5337 128.901-64.7187 128.901-35.2697C128.901-5.82067 105.086 17.9943 75.6366 17.9943ZM58.8731-8.18798L100.909-8.18798C109.594-8.18798 115.536-14.2234 115.536-22.0931C115.536-28.7277 110.851-34.4168 104.389-35.7083C103.822-44.0321 97.0722-50.8083 88.5771-50.8083C82.9876-50.8083 78.1816-48.1342 75.2651-43.7564C73.7219-44.2063 72.4653-44.4265 70.979-44.4265C64.4339-44.4265 59.0219-39.7391 57.9517-33.3334C51.1693-33.0004 45.7961-27.4641 45.7961-20.8285C45.7961-13.692 51.1409-8.18798 58.8731-8.18798ZM33.4693-39.1814C33.4693-33.4019 36.6304-28.5142 42.4968-26.3398C44.3602-31.6902 48.8836-35.8303 54.518-37.1348C56.9973-44.0136 63.4204-48.755 70.979-48.755C71.8089-48.755 72.7218-48.6626 73.5517-48.5253C77.453-52.9534 82.8388-55.0355 88.6821-55.0128C87.5495-58.558 83.7918-61.5001 78.2075-61.5001C76.497-61.5001 75.2313-61.2918 73.7609-60.8303C70.6321-65.307 65.9805-67.8836 60.6076-67.8836C52.1575-67.8836 45.1128-61.2327 44.6389-52.864C38.0869-51.4353 33.4693-45.8385 33.4693-39.1814Z" />
</svg>