<svg xmlns="http://www.w3.org/2000/svg" viewBox="11.2588 -99.6475 128.8 128.76">
  <path d="M75.6366 29.1081C111.157 29.1081 140.062 0.203591 140.062-35.2697C140.062-70.743 111.157-99.6475 75.6366-99.6475C40.1633-99.6475 11.2588-70.743 11.2588-35.2697C11.2588 0.203591 40.1633 29.1081 75.6366 29.1081ZM75.6841-1.71222C57.2784-1.71222 42.174-16.8641 42.174-35.2697C42.174-53.6754 57.231-68.8272 75.6366-68.8272C94.0897-68.8272 109.242-53.6754 109.242-35.2697C109.242-16.8641 94.0897-1.71222 75.6841-1.71222ZM75.6841-63.6381C72.1913-63.6381 68.7419-62.9854 65.5788-61.7762L73.5756-55.4079L73.5756-46.5138L65.1254-40.0982L56.7018-43.494L53.7188-53.2148C49.6721-48.306 47.1997-42.122 47.1997-35.0886L55.0491-39.4815L63.9487-35.8918L67.103-26.2216L62.343-20.1342L51.7586-19.9839C55.4267-14.2006 61.1611-9.86116 67.8371-7.94016L65.6136-17.4288L70.0506-23.0586L81.2966-23.0586L85.744-17.3748L83.5311-7.94016C90.1965-9.86116 95.9085-14.1691 99.5991-19.9734L89.0371-20.1132L84.2296-26.2231L87.372-35.8918L96.2716-39.4815L104.146-35.0886C104.146-42.122 101.649-48.306 97.6494-53.2148L94.6189-43.4716L86.2428-40.0982L77.7925-46.5138L77.7925-55.4619L85.7314-61.7762C82.5828-63.0183 79.2243-63.6381 75.6841-63.6381Z"/>
</svg>