<svg xmlns="http://www.w3.org/2000/svg" viewBox="16.084 -97.2384 127.07 123.88">
  <path d="M26.956-60.8028L41.6476-60.8028C48.5144-60.8028 52.5195-64.7785 52.5195-71.9066L52.5195-86.1346C52.5195-93.2627 48.5144-97.2384 41.6476-97.2384L26.956-97.2384C20.1116-97.2384 16.084-93.2627 16.084-86.1346L16.084-71.9066C16.084-64.7785 20.1116-60.8028 26.956-60.8028ZM72.2316-60.8028L86.9706-60.8028C93.8375-60.8028 97.7952-64.7785 97.7952-71.9066L97.7952-86.1346C97.7952-93.2627 93.8375-97.2384 86.9706-97.2384L72.2316-97.2384C65.3872-97.2384 61.4071-93.2627 61.4071-86.1346L61.4071-71.9066C61.4071-64.7785 65.3872-60.8028 72.2316-60.8028ZM117.588-60.8028L132.327-60.8028C139.124-60.8028 143.151-64.7785 143.151-71.9066L143.151-86.1346C143.151-93.2627 139.124-97.2384 132.327-97.2384L117.588-97.2384C110.768-97.2384 106.716-93.2627 106.716-86.1346L106.716-71.9066C106.716-64.7785 110.768-60.8028 117.588-60.8028ZM26.956-17.0919L41.6476-17.0919C48.5144-17.0919 52.5195-20.9952 52.5195-28.1008L52.5195-42.4237C52.5195-49.5517 48.5144-53.48 41.6476-53.48L26.956-53.48C20.1116-53.48 16.084-49.5517 16.084-42.4237L16.084-28.1008C16.084-20.9952 20.1116-17.0919 26.956-17.0919ZM72.2316-17.0919L86.9706-17.0919C93.8375-17.0919 97.7952-20.9952 97.7952-28.1008L97.7952-42.4237C97.7952-49.5517 93.8375-53.48 86.9706-53.48L72.2316-53.48C65.3872-53.48 61.4071-49.5517 61.4071-42.4237L61.4071-28.1008C61.4071-20.9952 65.3872-17.0919 72.2316-17.0919ZM117.588-17.0919L132.327-17.0919C139.124-17.0919 143.151-20.9952 143.151-28.1008L143.151-42.4237C143.151-49.5517 139.124-53.48 132.327-53.48L117.588-53.48C110.768-53.48 106.716-49.5517 106.716-42.4237L106.716-28.1008C106.716-20.9952 110.768-17.0919 117.588-17.0919ZM26.956 26.644L41.6476 26.644C48.5144 26.644 52.5195 22.7157 52.5195 15.5876L52.5195 1.31224C52.5195-5.7934 48.5144-9.74414 41.6476-9.74414L26.956-9.74414C20.1116-9.74414 16.084-5.7934 16.084 1.31224L16.084 15.5876C16.084 22.7157 20.1116 26.644 26.956 26.644ZM72.2316 26.644L86.9706 26.644C93.8375 26.644 97.7952 22.7157 97.7952 15.5876L97.7952 1.31224C97.7952-5.7934 93.8375-9.74414 86.9706-9.74414L72.2316-9.74414C65.3872-9.74414 61.4071-5.7934 61.4071 1.31224L61.4071 15.5876C61.4071 22.7157 65.3872 26.644 72.2316 26.644ZM117.588 26.644L132.327 26.644C139.124 26.644 143.151 22.7157 143.151 15.5876L143.151 1.31224C143.151-5.7934 139.124-9.74414 132.327-9.74414L117.588-9.74414C110.768-9.74414 106.716-5.7934 106.716 1.31224L106.716 15.5876C106.716 22.7157 110.768 26.644 117.588 26.644Z"/>
</svg>