<svg xmlns="http://www.w3.org/2000/svg" viewBox="16.084 -105.099 128.45 141.23">
  <path d="M121.826-21.9915L80.4396 0.517718L39.3046-22.2436L23.0292-12.8373C18.2026-10.0136 16.084-7.64866 16.084-3.98464C16.084-0.343076 18.2026 2.02182 23.0292 4.79808L72.5364 33.5438C75.5326 35.254 77.8582 36.1329 80.2972 36.1329C82.7587 36.1329 85.0844 35.254 88.0806 33.5438L137.588 4.79808C142.414 2.02182 144.533-0.343076 144.533-3.98464C144.533-7.64866 142.414-10.0136 137.588-12.8373ZM110.585-45.6751L130.26-34.4505C130.636-34.2222 130.851-34.019 130.851-33.6679C130.851-33.2694 130.636-33.0662 130.26-32.8854L82.7585-5.75166C81.808-5.26519 81.1093-4.987 80.2972-4.987C79.4851-4.987 78.8089-5.26519 77.8584-5.75166L30.3572-32.8854C29.9812-33.0662 29.766-33.2694 29.766-33.6679C29.766-34.019 29.9812-34.2222 30.3572-34.4505L51.2414-46.3788L40.9185-52.8038L23.0292-42.4731C18.2026-39.6744 16.084-37.332 16.084-33.6679C16.084-30.0264 18.2026-27.6615 23.0292-24.8378L72.5364 3.86053C75.5326 5.59321 77.8582 6.47208 80.2972 6.47208C82.7587 6.47208 85.0844 5.59321 88.0806 3.86053L137.588-24.8378C142.414-27.6615 144.533-30.0264 144.533-33.6679C144.533-37.332 142.414-39.6744 137.588-42.4731L120.841-52.2057ZM80.2972-24.8893C82.7587-24.8893 85.0844-25.7682 88.0806-27.4784L137.588-56.1767C142.414-59.0004 144.533-61.3653 144.533-65.0069C144.533-68.6235 142.414-71.0358 137.588-73.8121L88.0806-102.51C85.0844-104.268 82.7587-105.099 80.2972-105.099C77.8582-105.099 75.5326-104.268 72.5364-102.51L23.0292-73.8121C18.2026-71.0358 16.084-68.6235 16.084-65.0069C16.084-61.3653 18.2026-59.0004 23.0292-56.1767L72.5364-27.4784C75.5326-25.7682 77.8582-24.8893 80.2972-24.8893ZM80.2972-36.326C79.4851-36.326 78.8089-36.6042 77.8584-37.0906L30.3572-64.2244C29.9812-64.4051 29.766-64.6084 29.766-65.0069C29.766-65.3804 29.9812-65.5837 30.3572-65.8119L77.8584-92.8982C78.8089-93.4321 79.4851-93.7103 80.2972-93.7103C81.1093-93.7103 81.808-93.4321 82.7585-92.8982L130.26-65.8119C130.636-65.5837 130.851-65.3804 130.851-65.0069C130.851-64.6084 130.636-64.4051 130.26-64.2244L82.7585-37.0906C81.808-36.6042 81.1093-36.326 80.2972-36.326Z"/>
</svg>