<svg xmlns="http://www.w3.org/2000/svg" viewBox="16.084 -110.445 138.7 150.53">
  <path d="M16.084-1.07481L43.2549-1.07481L43.2549-16.9787C43.2549-30.8094 51.8041-39.1528 65.5344-39.1528L72.4184-39.1528L72.5712-40.2175C74.5159-49.0658 81.6116-55.1928 92.68-55.1928L105.887-55.1928L105.887-63.7399C105.887-73.2176 99.4201-79.7231 90.0258-79.7231L86.211-79.7231L86.211-97.1685C86.211-105.377 81.1539-110.445 72.9044-110.445L49.5057-110.445C41.019-110.445 35.7931-105.377 35.7931-97.1685L35.7931-79.7231L31.9454-79.7231C22.551-79.7231 16.084-73.2176 16.084-63.7399ZM45.317-79.7231L45.317-96.7505C45.317-99.7128 47.149-101.537 50.2137-101.537L72.1699-101.537C74.9275-101.537 76.6871-99.7023 76.6871-96.7505L76.6871-79.7231ZM35.7318 40.0861L39.0689 40.0861C41.8521 40.0861 43.749 38.3892 43.8542 35.6346C43.4652 32.6246 43.2549 29.4423 43.2549 26.18L43.2549 8.95177L16.084 8.95177L16.084 15.6138C16.084 24.0477 21.1976 30.2686 28.884 31.2649L30.6155 31.3598L30.6155 34.9828C30.6155 38.1264 32.5883 40.0861 35.7318 40.0861ZM65.5344 40.0861L69.4348 40.0861L69.4348-30.9573L65.5344-30.9573C56.2833-30.9573 51.4504-26.2273 51.4504-16.9787L51.4504 26.18C51.4504 35.4286 56.2833 40.0861 65.5344 40.0861ZM77.8772 40.0861L128.372 40.0861L128.372-30.8522L126.543-30.8522L126.543-34.8611C126.543-43.0035 121.894-46.9973 113.884-46.9973L92.3474-46.9973C84.6441-46.9973 79.7292-43.0035 79.7292-34.8611L79.7292-30.8522L77.8772-30.8522ZM87.6363-30.8522L87.6363-34.8883C87.6363-37.9355 89.3439-39.5626 92.5508-39.5626L113.701-39.5626C116.883-39.5626 118.613-37.925 118.613-34.8883L118.613-30.8522ZM136.862 40.0861L140.651 40.0861C149.949 40.0861 154.78 35.4286 154.78 26.18L154.78-16.9787C154.78-26.2273 149.949-30.9573 140.651-30.9573L136.862-30.9573Z"/>
</svg>