<svg xmlns="http://www.w3.org/2000/svg" viewBox="16.084 -127.823 223.5 142.2">
  <path d="M66.354 14.375C76.1844 14.375 84.0662 6.57368 84.0662-3.31465C84.0662-13.1305 76.137-20.9794 66.354-20.9794C56.5132-20.9794 48.6538-13.1305 48.6538-3.31465C48.6538 6.52624 56.5132 14.375 66.354 14.375ZM192.674 14.375C202.457 14.375 210.364 6.52624 210.364-3.31465C210.364-13.1305 202.457-20.9794 192.674-20.9794C182.858-20.9794 174.952-13.0831 174.952-3.31465C174.952 6.52624 182.811 14.375 192.674 14.375ZM32.3813 1.78147L41.9616 1.78147C41.6098 0.151237 41.4175-1.53552 41.4175-3.31465C41.4175-17.1052 52.5161-28.2157 66.354-28.2157C80.1341-28.2157 91.2551-17.1052 91.2551-3.31465C91.2551-1.53552 91.0628 0.151237 90.711 1.78147L168.259 1.78147C167.908 0.151237 167.715-1.53552 167.715-3.31465C167.715-17.0578 178.884-28.2157 192.674-28.2157C206.432-28.2157 217.553-17.1052 217.553-3.31465C217.553-1.53552 217.361 0.151237 217.056 1.78147L223.514 1.78147C234.324 1.78147 239.579-4.01183 239.579-15.7785L239.579-43.3634C239.579-51.2674 236.699-60.2078 231.714-67.4265L228.864-71.5739C221.695-82.0249 212.585-86.3593 198.03-86.3593L170.656-86.3593L170.656-72.4047C170.656-62.2639 164.346-55.8692 154.628-55.8692L125.465-55.8692C115.737-55.8692 109.426-62.2639 109.426-72.4047L109.426-80.7037C105.503-79.131 101.229-76.8989 96.8405-74.171L71.6307-58.3888L48.3402-55.5147C26.8648-52.8612 16.084-42.9162 16.084-25.5964L16.084-14.8955C16.084-4.29533 22.1471 1.78147 32.3813 1.78147ZM125.37-63.8875L154.533-63.8875C159.691-63.8875 162.318-66.5515 162.318-72.1326L162.318-95.0775C162.318-100.623 159.691-103.275 154.533-103.275L125.37-103.275C120.201-103.275 117.552-100.623 117.552-95.0775L117.552-72.1326C117.552-66.5515 120.201-63.8875 125.37-63.8875ZM123.303-98.6952L129.993-98.6952L129.993-110.624C129.993-116.991 133.936-121.142 139.97-121.142C145.968-121.142 149.924-116.991 149.924-110.624L149.924-98.6952L156.637-98.6952L156.637-109.865C156.637-120.773 150.034-127.823 139.97-127.823C129.883-127.823 123.303-120.773 123.303-109.865Z"/>
</svg>