<svg xmlns="http://www.w3.org/2000/svg" viewBox="16.084 -97.1047 124.06 123.68">
  <path d="M22.8001 26.5772C26.9259 26.5772 29.6652 23.6047 29.6652 19.4579L29.6652-6.62237L39.0576-15.5018L69.0277 23.2549C70.3958 25.2136 72.3707 26.5772 75.1316 26.5772C78.9438 26.5772 81.5435 23.9632 81.5435 20.6105C81.5435 18.9606 80.884 17.3908 79.6342 15.684L48.8668-23.7198L77.7521-52.235C79.5049-53.9008 80.2832-55.3089 80.2832-57.3524C80.2832-60.6935 77.6226-63.1191 74.3006-63.1191C72.1674-63.1191 70.5345-62.2303 68.9607-60.579L30.0409-21.0848L29.6652-21.0848L29.6652-90.0117C29.6652-94.2165 26.8785-97.1047 22.8226-97.1047C18.8127-97.1047 16.084-94.227 16.084-90.0222L16.084 19.4579C16.084 23.7945 18.98 26.5772 22.8001 26.5772ZM103.875 26.5772C107.737 26.5772 110.409 23.6521 110.409 19.4579L110.409-27.1659C110.409-38.3781 114.998-50.1541 129.202-50.1962C132.261-50.2277 136.015-50.1368 137.677-51.3045C139.256-52.1838 140.146-53.7207 140.146-55.9451C140.146-58.597 139.027-60.3395 137.3-61.4644C135.427-62.6013 132.89-63.0517 130.471-63.0517C121.153-63.0517 113.188-56.5145 110.723-45.6195L109.842-45.6195L109.842-56.2776C109.842-60.3125 107.306-63.1216 103.668-63.1216C99.9293-63.1216 97.41-60.323 97.41-56.2881L97.41 19.4579C97.41 23.6521 100.035 26.5772 103.875 26.5772Z"/>
</svg>