<svg xmlns="http://www.w3.org/2000/svg" viewBox="11.2588 -99.5671 128.8 128.76">
  <path d="M75.6366 29.1886C111.157 29.1886 140.062 0.284011 140.062-35.1893C140.062-70.6626 111.157-99.5671 75.6366-99.5671C40.1633-99.5671 11.2588-70.6626 11.2588-35.1893C11.2588 0.284011 40.1633 29.1886 75.6366 29.1886ZM62.6569-1.63692L43.2668-21.122C39.5283-24.8934 39.3482-28.787 43.2-32.7087L74.5479-64.3163C76.8772-66.668 78.5724-68.2972 82.2738-68.2972L94.8421-68.2972C97.7709-68.2972 99.3934-67.1794 101.369-65.2617L107.244-59.4771C109.219-57.5158 109.958-55.8564 109.958-52.9276L109.958-40.7389C109.958-36.9096 108.328-35.2948 105.977-32.9655L74.3505-1.52667C70.4182 2.33566 66.4533 2.1015 62.6569-1.63692ZM87.1093-45.548C88.9438-43.7135 91.9198-43.691 93.7318-45.548C95.6112-47.3944 95.6127-50.4059 93.7543-52.1719C91.9079-54.0183 88.9424-54.0183 87.1199-52.1719C85.3104-50.2581 85.3209-47.2915 87.1093-45.548Z"/>
</svg>