<svg xmlns="http://www.w3.org/2000/svg" viewBox="11.2588 -99.6475 128.8 128.76">
  <path d="M75.6366 29.1081C111.202 29.1081 140.062 0.295961 140.062-35.2697C140.062-70.8354 111.202-99.6475 75.6366-99.6475C40.1184-99.6475 11.2588-70.8354 11.2588-35.2697C11.2588 0.295961 40.1184 29.1081 75.6366 29.1081ZM75.6366 17.9943C46.1876 17.9943 22.3976-5.82067 22.3976-35.2697C22.3976-64.7187 46.1876-88.5337 75.6366-88.5337C105.086-88.5337 128.901-64.7187 128.901-35.2697C128.901-5.82067 105.086 17.9943 75.6366 17.9943ZM75.6591-6.32463C77.9248-6.32463 79.5373-7.94759 79.5373-10.2713L79.5373-46.2801L94.2839-46.2801C95.9677-46.2801 97.1378-47.4871 97.1378-49.1604C97.1378-50.7968 95.9677-51.9918 94.2839-51.9918L56.9644-51.9918C55.2806-51.9918 54.0631-50.7968 54.0631-49.1604C54.0631-47.4871 55.2806-46.2801 56.9644-46.2801L71.7809-46.2801L71.7809-10.2713C71.7809-7.94759 73.3934-6.32463 75.6591-6.32463ZM53.9457-61.0528C53.9457-59.9759 54.7564-59.1877 55.8583-59.1877L95.2252-59.1877C96.3271-59.1877 97.1378-60.0458 97.1378-61.0528C97.1378-62.1072 96.3271-62.8954 95.2252-62.8954L55.8583-62.8954C54.7564-62.8954 53.9457-62.1072 53.9457-61.0528Z" />
</svg>