<svg xmlns="http://www.w3.org/2000/svg" viewBox="11.2583 -99.2086 185.71 129.42">
  <path d="M73.8803 30.2073L186.748 30.2073C194.38 30.2073 196.973 23.3796 193.794 17.128L138.496-93.7691C136.82-97.2387 133.735-99.2086 130.314-99.2086C126.916-99.2086 123.808-97.2387 122.132-93.7691L66.8336 17.128C63.6775 23.3796 66.2704 30.2073 73.8803 30.2073ZM78.2747 20.4834C76.9333 20.4834 76.6036 19.4492 77.168 18.2755L129.335-86.3322C129.802-87.2661 130.826-87.2661 131.315-86.3322L183.482 18.2755C184.092 19.5865 183.784 20.4834 182.6 20.4834ZM96.9554 25.0928L119.128 25.0928L130.314-24.1561L141.522 25.0928L163.672 25.0928L134.408-37.7439C133.547-39.624 131.958-40.4909 130.314-40.4909C128.68-40.4909 127.103-39.624 126.243-37.7439ZM20.2668 9.06876L74.3352 9.06876L79.3025-0.655203L25.0692-0.655203C24.3884-0.655203 24.2645-1.17214 24.5138-1.69311L60.8025-74.5861C61.0518-75.132 61.7376-75.132 61.9868-74.5861L89.1417-20.1151L94.6333-30.91L68.5364-83.1926C67.0316-86.0744 64.3672-87.9389 61.4184-87.9389C58.3997-87.9389 55.7578-86.0744 54.253-83.1926L13.9438-2.34571C11.2583 2.95537 13.6614 9.06876 20.2668 9.06876ZM37.5675 2.65353L53.515 2.65353L61.4184-31.9768L69.2518 2.65353L77.6304 2.65353L81.5328-5.12773L64.3368-42.1327C63.7637-43.4173 62.5845-44.0813 61.4184-44.0813C60.2048-44.0813 59.0731-43.4173 58.4775-42.1327Z"/>
</svg>