<svg xmlns="http://www.w3.org/2000/svg" viewBox="16.084 -93.3513 127.1 116.37">
  <path d="M35.9773 23.0176L123.287 23.0176C136.426 23.0176 143.181 16.1955 143.181 3.26662L143.181-73.6003C143.181-86.5291 136.426-93.3513 123.287-93.3513L35.9773-93.3513C22.9086-93.3513 16.084-86.574 16.084-73.6003L16.084 3.26662C16.084 16.2404 22.9086 23.0176 35.9773 23.0176ZM35.8416 12.2359C29.968 12.2359 26.8183 9.22305 26.8183 3.16508L26.8183-54.3993C26.8183-60.4572 29.968-63.4925 35.8416-63.4925L123.375-63.4925C129.159-63.4925 132.469-60.4572 132.469-54.3993L132.469 3.16508C132.469 9.22305 129.159 12.2359 123.375 12.2359ZM46.238-40.94L113.085-40.94C115.139-40.94 116.684-42.5436 116.684-44.5979C116.684-46.5717 115.139-48.1174 113.085-48.1174L46.238-48.1174C44.1258-48.1174 42.5801-46.5717 42.5801-44.5979C42.5801-42.5436 44.1258-40.94 46.238-40.94ZM46.238-22.0396L113.085-22.0396C115.139-22.0396 116.684-23.5853 116.684-25.5591C116.684-27.6134 115.139-29.1946 113.085-29.1946L46.238-29.1946C44.1258-29.1946 42.5801-27.6134 42.5801-25.5591C42.5801-23.5853 44.1258-22.0396 46.238-22.0396ZM46.238-3.13922L88.9585-3.13922C91.0128-3.13922 92.5585-4.66244 92.5585-6.65876C92.5585-8.69056 91.0128-10.2942 88.9585-10.2942L46.238-10.2942C44.1258-10.2942 42.5801-8.69056 42.5801-6.65876C42.5801-4.66244 44.1258-3.13922 46.238-3.13922Z" />
</svg>