<svg xmlns="http://www.w3.org/2000/svg" viewBox="11.2588 -99.5671 128.8 128.76">
  <path d="M75.6366 29.1886C111.157 29.1886 140.062 0.284011 140.062-35.1893C140.062-70.6626 111.157-99.5671 75.6366-99.5671C40.1633-99.5671 11.2588-70.6626 11.2588-35.1893C11.2588 0.284011 40.1633 29.1886 75.6366 29.1886ZM75.0748-41.227C53.513-41.227 41.7358-46.6582 41.7358-57.0489C41.7358-63.9067 47.7387-70.3136 59.577-73.7889C61.7892-74.3554 63.4074-73.7099 64.0189-71.9638C64.538-70.1678 63.5799-68.4562 61.6589-67.8422C52.0218-64.9189 48.3767-60.9969 48.3767-57.1754C48.3767-50.9342 57.2065-47.5399 74.8324-47.5399C91.8895-47.5399 102.919-51.2141 102.919-54.5617C102.919-57.3833 96.2405-59.8903 84.8302-59.8903C75.2592-59.8903 68.2696-57.7212 62.7043-55.3938C60.8647-54.636 58.9369-55.0997 58.187-56.7244C57.3778-58.1607 57.8364-60.2295 59.8487-61.1877C66.3077-64.091 74.7062-66.0189 85.12-66.0189C99.4978-66.0189 109.56-61.7396 109.56-54.5142C109.56-46.5291 96.1981-41.227 75.0748-41.227ZM76.0862-29.6611C68.2373-29.6611 58.8021-30.6855 51.6368-32.7884C49.7499-33.3049 48.867-34.9046 49.2558-36.5927C49.8093-38.2714 51.4419-38.8803 53.2829-38.3518C59.8443-36.4297 68.5271-35.4658 76.0862-35.4658C86.1211-35.4658 95.485-37.0571 102.075-39.5613C103.858-40.3087 105.57-39.9449 106.32-38.4612C107.069-36.86 106.33-35.1049 104.643-34.4144C97.4448-31.4132 87.2388-29.6611 76.0862-29.6611ZM78.6071-18.2719C74.242-18.2244 70.2442-18.4882 67.4885-18.9602C65.3723-19.2988 64.488-20.9051 64.7858-22.4573C65.11-23.9636 66.4304-24.8899 68.4452-24.6395C71.2842-24.2505 74.9694-24.0053 78.5441-24.0053C86.9588-24.0053 94.8625-25.2674 102.447-27.7553C104.393-28.4011 106.054-27.8331 106.606-26.3019C107.1-24.859 106.581-22.993 104.526-22.3461C96.7033-19.7158 87.9949-18.3298 78.6071-18.2719ZM75.1925-7.4337C73.1342-7.69994 72.2709-9.15191 72.4423-10.6516C72.6506-12.3107 74.1028-13.2949 76.0912-13.1236C82.0796-12.3375 88.7462-12.7741 94.3947-14.2379C96.353-14.7559 97.8802-14.068 98.4113-12.4472C98.8713-10.945 98.1149-9.23987 96.2385-8.73381C89.6844-6.85594 81.6104-6.665 75.1925-7.4337ZM72.7875 3.68015C70.7579 3.3795 69.8185 2.01819 70.0124 0.506831C70.2206-0.961042 71.4936-2.07713 73.4175-1.84782C75.3729-1.53522 77.5327-1.62759 79.4971-1.8808C81.5214-2.11011 82.7824-0.996535 82.9802 0.529294C83.1041 2.11308 82.0843 3.3795 80.2275 3.65769C77.8283 3.92141 75.0798 3.94387 72.7875 3.68015Z" />
</svg>