<svg xmlns="http://www.w3.org/2000/svg" viewBox="16.084 -110.291 72.69 150.04">
  <path d="M34.0171-93.065L70.817-93.065C74.2553-93.065 76.6919-95.5016 76.6919-98.9399L76.6919-104.416C76.6919-107.902 74.2553-110.291 70.817-110.291L34.0171-110.291C30.5788-110.291 28.1647-107.902 28.1647-104.416L28.1647-98.9399C28.1647-95.5016 30.5788-93.065 34.0171-93.065ZM43.814-95.2532L33.733-98.2078L21.7667-81.4525C17.2439-75.1489 16.084-69.0989 16.084-60.4838L16.084 18.214C16.084 32.0297 23.2198 39.7519 36.0274 39.7519L68.7737 39.7519C81.5894 39.7519 88.7726 32.0297 88.7726 18.214L88.7726-60.4838C88.7726-69.0975 87.5323-75.1489 83.0095-81.4525L71.0207-98.2078L60.9621-95.2532L74.3797-76.2076C78.1258-70.8753 78.6691-67.7234 78.6691-60.4838L78.6691 18.214C78.6691 25.7278 75.253 29.6484 68.7737 29.6484L36.0274 29.6484C29.5811 29.6484 26.1875 25.7278 26.1875 18.214L26.1875-60.4838C26.1875-67.6535 26.6504-70.8753 30.3965-76.2076ZM22.2094-61.9557L22.2094-53.9295L82.5878-53.9295L82.5878-61.9557ZM52.3986-2.72866C61.2974-2.72866 67.1402-8.49104 67.1402-16.9877C67.1402-21.4318 65.28-24.9913 64.1646-27.2221C61.9234-32.257 58.0843-38.6695 54.8081-43.5436C54.1227-44.6521 53.3253-45.1452 52.3986-45.1452C51.5524-45.1452 50.6746-44.6521 49.9892-43.5436C46.713-38.6695 42.9543-32.257 40.6326-27.2221C39.5976-24.9913 37.657-21.4318 37.657-16.9877C37.657-8.49104 43.4998-2.72866 52.3986-2.72866ZM22.2094 7.41232L22.2094 15.4385L82.5878 15.4385L82.5878 7.41232Z"/>
</svg>