<svg xmlns="http://www.w3.org/2000/svg" viewBox="11.2588 -105.518 140.45 140.52">
  <path d="M81.5074 35.0013C120.118 35.0013 151.709 3.41086 151.709-35.2697C151.709-73.9278 120.118-105.518 81.5074-105.518C42.8493-105.518 11.2588-73.9278 11.2588-35.2697C11.2588 3.41086 42.8493 35.0013 81.5074 35.0013ZM81.5074 11.5309C55.6358 11.5309 34.7067-9.39812 34.7067-35.2697C34.7067-61.1413 55.6358-82.0703 81.5074-82.0703C107.332-82.0703 128.261-61.1413 128.261-35.2697C128.261-9.39812 107.332 11.5309 81.5074 11.5309ZM65.6272-6.5586C68.0486-6.5586 69.8364-8.05658 70.4688-10.524L81.3241-51.8325L81.7157-51.8325L92.476-10.524C93.1204-7.96421 94.7803-6.5586 97.377-6.5586C99.9882-6.5586 101.798-7.98667 102.314-10.6189L112.02-58.1465C112.111-58.6606 112.158-59.2549 112.158-59.753C112.158-61.9878 110.569-63.2377 108.475-63.2377C106.762-63.2377 105.194-62.1208 104.837-60.1417L97.0401-16.3206L96.6735-16.3206L85.4202-59.8135C84.9036-61.9491 83.7024-63.1359 81.5443-63.1359C79.4337-63.1359 78.148-61.8687 77.584-59.7186L66.2858-16.3206L65.9522-16.3206L58.155-60.1417C57.8453-61.9915 56.3922-63.2377 54.507-63.2377C52.2979-63.2377 50.7865-61.9125 50.7865-59.7979C50.7865-59.3723 50.8445-58.7924 50.9948-58.0791L60.6787-10.6189C61.1938-8.10402 62.9935-6.5586 65.6272-6.5586ZM46.3301-35.2943C46.3301-34.17 47.1883-33.3343 48.3126-33.3343L114.727-33.3343C115.804-33.3343 116.662-34.17 116.662-35.2943C116.662-36.3712 115.804-37.1594 114.727-37.1594L48.3126-37.1594C47.1883-37.1594 46.3301-36.3712 46.3301-35.2943Z" />
</svg>