<svg xmlns="http://www.w3.org/2000/svg" viewBox="9.25808 -108.663 146.65 146.75">
  <path d="M44.2222 19.1351L58.232 19.1351C59.4981 19.1351 60.3975 19.4582 61.3405 20.4011L71.301 30.2693C79.0296 38.0903 86.1841 38.0428 93.9127 30.2693L103.826 20.4011C104.769 19.4582 105.716 19.1351 106.982 19.1351L120.944 19.1351C131.891 19.1351 137 14.0878 137 3.07873L137-10.8837C137-12.1722 137.356-13.0821 138.266-14.062L148.11-23.9527C155.908-31.7037 155.861-38.8357 148.11-46.5868L138.266-56.4774C137.346-57.4678 137-58.3672 137-59.6557L137-73.6181C137-84.5903 131.928-89.6745 120.944-89.6745L106.982-89.6745C105.716-89.6745 104.758-90.0081 103.826-90.9405L93.9127-100.809C86.1036-108.663 79.0296-108.615 71.2786-100.798L61.3405-90.9405C60.4305-90.0306 59.4981-89.6745 58.232-89.6745L44.2222-89.6745C33.2276-89.6745 28.2133-84.6483 28.2133-73.6181L28.2133-59.6557C28.2133-58.3672 27.8572-57.4573 26.9472-56.4774L17.0566-46.5868C9.25808-38.8357 9.30552-31.7037 17.0566-23.9527L26.9472-14.062C27.8572-13.0821 28.2133-12.1722 28.2133-10.8837L28.2133 3.07873C28.2133 14.0509 33.2381 19.1351 44.2222 19.1351ZM61.7907-9.20328C58.8965-9.20328 56.5925-11.5073 56.5925-14.4619C56.5925-15.8254 57.1062-17.0847 58.147-18.115L75.2108-35.2117L58.147-52.3085C57.1062-53.3388 56.5925-54.5981 56.5925-55.9616C56.5925-58.9162 58.8965-61.1253 61.7907-61.1253C63.3082-61.1253 64.4765-60.6326 65.5029-59.6063L82.6076-42.5491L99.8177-59.6538C100.869-60.775 102.082-61.2202 103.53-61.2202C106.449-61.2202 108.728-58.9637 108.728-56.0565C108.728-54.6455 108.309-53.4811 107.173-52.356L90.0503-35.2117L107.126-18.1624C108.214-17.1321 108.681-15.8729 108.681-14.4619C108.681-11.5073 106.402-9.20328 103.435-9.20328C101.94-9.20328 100.632-9.74341 99.6279-10.7697L82.6076-27.8165L65.6452-10.7697C64.5714-9.74341 63.3082-9.20328 61.7907-9.20328Z"/>
</svg>