<svg xmlns="http://www.w3.org/2000/svg" viewBox="8.72266 -83.1265 95.74 95.73">
  <path d="M56.5885 12.6052C82.9179 12.6052 104.466-8.94325 104.466-35.2606C104.466-61.578 82.9179-83.1265 56.5885-83.1265C30.2711-83.1265 8.72266-61.578 8.72266-35.2606C8.72266-8.94325 30.2711 12.6052 56.5885 12.6052ZM35.1812-15.3659C34.0228-15.3659 33.2797-15.9942 33.2797-17.0084C33.2797-17.7088 33.5965-18.3371 34.1024-18.9917L44.5898-33.408C47.6593-37.692 49.2154-40.9852 49.2154-44.6829C49.2154-48.536 47.344-52.6518 43.0939-52.6518C39.2318-52.6518 37.4062-49.5134 36.7111-45.1025C36.5406-44.2393 35.9101-43.719 35.0468-43.719C33.884-43.719 33.342-44.6108 33.342-45.4599C33.342-50.7055 37.256-55.9631 43.0556-55.9631C49.3153-55.9631 52.7789-51.041 52.7789-44.8676C52.7789-40.7217 51.3985-37.1463 47.3982-31.7107L38.2312-18.9482L38.2312-18.7012L51.9967-18.7012C52.9846-18.7012 53.6655-18.0203 53.6655-17.0587C53.6655-16.0708 52.9966-15.3659 51.9967-15.3659ZM61.2051-15.3659C60.0971-15.3659 59.3659-15.9942 59.3659-17.0084C59.3659-17.7088 59.6707-18.3371 60.1384-18.9917L70.6258-33.408C73.6832-37.692 75.2897-40.9852 75.2897-44.6829C75.2897-48.536 73.4183-52.6518 69.1298-52.6518C65.2557-52.6518 63.4421-49.5134 62.735-45.1025C62.5766-44.2393 61.9963-43.719 61.0827-43.719C59.9582-43.719 59.4282-44.6108 59.4282-45.4599C59.4282-50.7055 63.2919-55.9631 69.0915-55.9631C75.3896-55.9631 78.8029-51.041 78.8029-44.8676C78.8029-40.7217 77.4224-37.1463 73.4724-31.7107L64.3174-18.9482L64.3174-18.7012L78.083-18.7012C79.0085-18.7012 79.7134-18.0203 79.7134-17.0587C79.7134-16.0708 79.0206-15.3659 78.083-15.3659Z"/>
</svg>