<svg xmlns="http://www.w3.org/2000/svg" viewBox="8.72266 -83.1265 95.74 95.73">
  <path d="M56.5885 12.6052C83.0185 12.6052 104.466-8.83065 104.466-35.2606C104.466-61.6906 83.0185-83.1265 56.5885-83.1265C30.1705-83.1265 8.72266-61.6906 8.72266-35.2606C8.72266-8.83065 30.1705 12.6052 56.5885 12.6052ZM56.5885 8.86824C32.1734 8.86824 12.4213-10.8455 12.4213-35.2606C12.4213-59.6758 32.1734-79.3895 56.5885-79.3895C81.0036-79.3895 100.717-59.6758 100.717-35.2606C100.717-10.8455 81.0036 8.86824 56.5885 8.86824ZM33.8157-15.5101L50.5735-15.5101C51.5493-15.5101 52.2182-16.2029 52.2182-17.1285C52.2182-18.1284 51.5373-18.8093 50.5735-18.8093L36.88-18.8093L36.88-19.0323L45.9989-31.7468C49.9512-37.1343 51.2814-40.6977 51.2814-44.7955C51.2814-50.9329 47.9041-55.8189 41.6421-55.8189C35.9408-55.8189 32.0629-50.5974 32.0629-45.3998C32.0629-44.5508 32.5929-43.7213 33.6934-43.7213C34.5949-43.7213 35.2135-44.1792 35.3719-45.0305C36.0167-49.4796 37.8806-52.5437 41.6804-52.5437C45.9568-52.5437 47.8162-48.4399 47.8162-44.6228C47.8162-40.9491 46.2841-37.692 43.2387-33.42L32.761-19.0878C32.3054-18.4332 32.0006-17.8169 32.0006-17.0782C32.0006-16.1264 32.7317-15.5101 33.8157-15.5101ZM69.0052-14.827C75.7349-14.827 80.1781-19.6867 80.1781-26.2145C80.1781-31.0817 77.2422-35.4235 73.2165-36.3461L73.2165-36.4324C76.8586-37.6687 79.1069-41.1863 79.1069-45.2677C79.1069-51.0313 75.2913-55.632 69.0052-55.632C63.1508-55.632 59.0161-51.3263 59.0161-45.2797C59.0161-41.0137 61.1736-37.6567 64.9186-36.4324L64.9186-36.3461C60.7945-35.4115 57.8946-31.132 57.8946-26.2145C57.8946-19.7558 62.2305-14.827 69.0052-14.827ZM69.0555-37.8182C65.6122-37.8182 62.6562-40.5693 62.6562-44.9727C62.6562-49.2348 65.2459-52.5032 69.0555-52.5032C73.2914-52.5032 75.4548-48.8062 75.4548-44.9727C75.4548-40.8253 72.7382-37.8182 69.0555-37.8182ZM69.0555-17.9678C64.4578-17.9678 61.7434-21.8134 61.7434-26.4352C61.7434-31.0329 64.5081-34.627 69.0555-34.627C73.1623-34.627 76.3293-31.4975 76.3293-26.4352C76.3293-21.8637 73.6653-17.9678 69.0555-17.9678Z" />
</svg>