<svg xmlns="http://www.w3.org/2000/svg" viewBox="12.4609 -78.4559 86.4 86.41">
  <path d="M25.6328 7.95861L85.6915 7.95861C94.3339 7.95861 98.8634 3.32853 98.8634-5.17725L98.8634-65.32C98.8634-73.8258 94.3339-78.4559 85.6915-78.4559L25.6328-78.4559C17.0024-78.4559 12.4609-73.9264 12.4609-65.32L12.4609-5.17725C12.4609 3.42911 17.0024 7.95861 25.6328 7.95861ZM32.7775-15.3659C31.6192-15.3659 30.9264-15.9942 30.9264-17.0084C30.9264-17.7208 31.1929-18.3371 31.7108-18.9917L42.1982-33.408C45.2556-37.692 46.8118-40.9852 46.8118-44.6949C46.8118-48.536 44.9404-52.6518 40.7023-52.6518C36.8281-52.6518 35.0026-49.5134 34.3074-45.1025C34.137-44.2393 33.5185-43.719 32.6432-43.719C31.4804-43.719 30.9887-44.6108 30.9887-45.4719C30.9887-50.7055 34.8644-55.9631 40.664-55.9631C46.9117-55.9631 50.3753-51.041 50.3753-44.8676C50.3753-40.7217 48.9948-37.1463 44.9945-31.7227L35.8396-18.9482L35.8396-18.7132L49.6051-18.7132C50.581-18.7132 51.2859-18.0323 51.2859-17.0587C51.2859-16.0708 50.593-15.3659 49.6051-15.3659ZM68.193-14.6828C61.3702-14.6828 56.9863-19.6859 56.9863-26.1424C56.9863-31.108 59.9102-35.4115 64.0703-36.3581L64.0703-36.4444C60.3013-37.6687 58.1198-41.0497 58.1198-45.3518C58.1198-51.3961 62.2906-55.7762 68.193-55.7762C74.4888-55.7762 78.3788-51.1514 78.3788-45.3397C78.3788-41.2224 76.0562-37.6808 72.4523-36.4444L72.4523-36.3581C76.4901-35.4235 79.462-31.0697 79.462-26.1424C79.462-19.5786 74.9708-14.6828 68.193-14.6828ZM68.2433-37.7919C71.95-37.7919 74.6786-40.8733 74.6786-45.0327C74.6786-48.84 72.4409-52.5993 68.2433-52.5993C64.4097-52.5993 61.82-49.3309 61.82-45.0327C61.82-40.6054 64.764-37.7919 68.2433-37.7919ZM68.2433-17.8717C72.8268-17.8717 75.5411-21.7796 75.5411-26.3751C75.5411-31.4735 72.3742-34.603 68.2433-34.603C63.6718-34.603 60.8952-31.0472 60.8952-26.3751C60.8952-21.7293 63.6215-17.8717 68.2433-17.8717Z"/>
</svg>