<svg xmlns="http://www.w3.org/2000/svg" viewBox="8.72266 -83.1265 95.74 95.73">
  <path d="M56.5885 12.6052C83.0185 12.6052 104.466-8.83065 104.466-35.2606C104.466-61.6906 83.0185-83.1265 56.5885-83.1265C30.1705-83.1265 8.72266-61.6906 8.72266-35.2606C8.72266-8.83065 30.1705 12.6052 56.5885 12.6052ZM56.5885 8.86824C32.1734 8.86824 12.4213-10.8455 12.4213-35.2606C12.4213-59.6758 32.1734-79.3895 56.5885-79.3895C81.0036-79.3895 100.717-59.6758 100.717-35.2606C100.717-10.8455 81.0036 8.86824 56.5885 8.86824ZM56.864-12.8782C65.6933-12.8782 71.845-18.1336 71.845-25.3685C71.845-30.861 67.4454-35.4716 61.6653-36.0323L61.6653-36.3056C66.6256-37.1921 70.2873-41.6397 70.2873-46.6984C70.2873-53.061 64.6364-57.6431 56.9098-57.6431C50.2326-57.6431 44.5291-54.0557 43.7499-48.8408C43.6636-48.2943 43.6013-47.8845 43.6013-47.3763C43.6013-46.3643 44.3039-45.6234 45.2896-45.6234C46.3157-45.6234 46.884-46.1556 47.0664-47.1195C47.7473-51.4636 51.7077-54.3866 56.8738-54.3866C62.7033-54.3866 66.6015-51.1498 66.6015-46.2548C66.6015-41.3981 62.4181-37.6005 57.0772-37.6005L53.1047-37.6005C52.1288-37.6005 51.4382-36.9842 51.4382-35.9963C51.4382-35.0204 52.1288-34.3921 53.1047-34.3921L57.427-34.3921C63.5396-34.3921 68.1471-30.5322 68.1471-25.4405C68.1471-19.8699 63.6281-16.1347 56.888-16.1347C51.403-16.1347 47.1265-19.1801 46.1439-23.4018C45.8368-24.4279 45.3189-24.8979 44.355-24.8979C43.3693-24.8979 42.6164-24.1329 42.6164-23.121C42.6164-22.6128 42.6787-22.227 42.8153-21.6805C44.2986-16.4514 49.9857-12.8782 56.864-12.8782Z" />
</svg>