<svg xmlns="http://www.w3.org/2000/svg" viewBox="8.72266 -83.1265 95.74 95.73">
  <path d="M56.5885 12.6052C83.0185 12.6052 104.466-8.83065 104.466-35.2606C104.466-61.6906 83.0185-83.1265 56.5885-83.1265C30.1705-83.1265 8.72266-61.6906 8.72266-35.2606C8.72266-8.83065 30.1705 12.6052 56.5885 12.6052ZM56.5885 8.86824C32.1734 8.86824 12.4213-10.8455 12.4213-35.2606C12.4213-59.6758 32.1734-79.3895 56.5885-79.3895C81.0036-79.3895 100.717-59.6758 100.717-35.2606C100.717-10.8455 81.0036 8.86824 56.5885 8.86824ZM41.9679-14.827C48.1894-14.827 52.7407-19.2889 52.7407-26.3511C52.7407-31.7266 49.9842-35.5744 45.1537-36.0105L45.1537-36.1472C49.5774-37.2807 51.6574-41.3447 51.6574-45.5071C51.6574-51.568 47.6692-55.6703 41.781-55.6703C36.9355-55.6703 33.6708-52.8163 32.3384-48.5053C32.0389-47.4821 31.9645-46.6099 31.9645-46.0273C31.9645-45.0372 32.5568-44.3586 33.5688-44.3586C34.6835-44.3586 35.0506-44.9433 35.2976-45.9958C35.9567-49.5419 37.9932-52.4454 41.781-52.4454C45.89-52.4454 48.0534-49.1846 48.0534-45.0875C48.0534-40.8178 45.4036-37.4946 41.0596-37.4946L39.0569-37.4946C38.0044-37.4946 37.575-36.7755 37.575-35.9242C37.575-35.0729 38.1553-34.4281 39.0569-34.4281L41.1219-34.4281C46.1032-34.4281 49.0263-31.6439 49.0263-26.3105C49.0263-21.9763 46.7908-18.1142 42.0182-18.1142C37.6096-18.1142 35.1827-21.4396 34.7106-24.6403C34.5139-25.7191 34.0222-26.2513 32.9435-26.2513C31.9698-26.2513 31.2912-25.5967 31.2912-24.5225C31.2912-23.8514 31.4661-22.7779 31.7153-22.0183C33.0478-17.7215 36.8852-14.827 41.9679-14.827ZM69.6906-14.827C76.4203-14.827 80.8634-19.6867 80.8634-26.2145C80.8634-31.0817 77.9276-35.4235 73.9018-36.3461L73.9018-36.4324C77.544-37.6687 79.7922-41.1863 79.7922-45.2677C79.7922-51.0313 75.9766-55.632 69.6906-55.632C63.8362-55.632 59.7015-51.3263 59.7015-45.2797C59.7015-41.0137 61.8589-37.6567 65.6039-36.4324L65.6039-36.3461C61.4798-35.4115 58.58-31.132 58.58-26.2145C58.58-19.7558 62.9159-14.827 69.6906-14.827ZM69.7409-37.8182C66.2976-37.8182 63.3416-40.5693 63.3416-44.9727C63.3416-49.2348 65.9313-52.5032 69.7409-52.5032C73.9768-52.5032 76.1402-48.8062 76.1402-44.9727C76.1402-40.8253 73.4236-37.8182 69.7409-37.8182ZM69.7409-17.9678C65.1431-17.9678 62.4288-21.8134 62.4288-26.4352C62.4288-31.0329 65.1934-34.627 69.7409-34.627C73.8477-34.627 77.0147-31.4975 77.0147-26.4352C77.0147-21.8637 74.3506-17.9678 69.7409-17.9678Z" />
</svg>