<svg xmlns="http://www.w3.org/2000/svg" viewBox="12.4609 -78.4559 86.4 86.41">
  <path d="M25.6328 7.95861L85.6915 7.95861C94.3339 7.95861 98.8634 3.32853 98.8634-5.17725L98.8634-65.32C98.8634-73.8258 94.3339-78.4559 85.6915-78.4559L25.6328-78.4559C17.0024-78.4559 12.4609-73.9264 12.4609-65.32L12.4609-5.17725C12.4609 3.42911 17.0024 7.95861 25.6328 7.95861ZM25.7574 4.30574C19.4107 4.30574 16.1018 1.02088 16.1018-5.36192L16.1018-65.1353C16.1018-71.5302 19.4107-74.803 25.7574-74.803L85.5669-74.803C91.7125-74.803 95.2226-71.5302 95.2226-65.1353L95.2226-5.36192C95.2226 1.02088 91.7125 4.30574 85.5669 4.30574ZM46.044-15.0259C47.0319-15.0259 47.8711-15.8696 47.8711-16.9394L47.8711-24.6725L50.8009-24.6725C51.8631-24.6725 52.4576-25.2889 52.4576-26.291C52.4576-27.2309 51.7865-27.8592 50.8009-27.8592L47.8711-27.8592L47.8711-52.6826C47.8711-54.8618 46.4471-55.6223 44.984-55.6223C43.1328-55.6223 42.2312-54.5458 41.44-52.841L29.8439-29.6908C29.362-28.6286 29.1631-27.9117 29.1631-27.0342C29.1631-25.6244 30.1149-24.6725 31.6133-24.6725L44.2048-24.6725L44.2048-16.9394C44.2048-15.721 45.0538-15.0259 46.044-15.0259ZM44.2408-27.8232L32.611-27.8232L32.611-27.9958L44.0539-51.5206L44.2408-51.5206ZM67.3409-29.1548C71.9462-29.1548 74.9368-32.5402 75.8692-37.105L76.0561-37.105C76.0561-36.8175 76.0561-36.5803 76.0561-36.2545C76.0561-29.699 75.081-18.1022 68.0729-18.1022C64.9847-18.1022 63.0105-20.3661 61.9994-23.6817C61.5535-24.9496 61.0355-25.3955 60.2203-25.3955C59.122-25.3955 58.5898-24.6426 58.5898-23.6524C58.5898-23.1803 58.7144-22.5189 58.9396-21.8576C60.1376-17.458 63.656-14.7646 68.0992-14.7646C77.3496-14.7646 79.6601-26.863 79.6601-36.0248C79.6601-45.095 77.0598-55.7949 68.2118-55.7949C61.5158-55.7949 57.734-49.4136 57.734-42.0781C57.734-35.4858 60.9115-29.1548 67.3409-29.1548ZM68.2238-32.3197C63.614-32.3197 61.3621-37.4399 61.3621-42.1502C61.3621-47.0234 63.6621-52.5077 68.2238-52.5077C73.0084-52.5077 75.3107-46.9228 75.3107-42.1502C75.3107-37.3032 72.7832-32.3197 68.2238-32.3197Z" />
</svg>