<svg xmlns="http://www.w3.org/2000/svg" viewBox="12.4609 -71.697 163.77 72.46">
  <path d="M77.0605-26.574C76.1709-26.574 75.5186-27.1183 75.5186-28.0897C75.5186-28.435 75.5929-28.7683 75.6912-29.0993L81.9276-52.6669C82.2992-54.0481 83.0859-54.765 84.3929-54.765C85.7239-54.765 86.4603-54.0602 86.8319-52.6669L93.1546-29.0993C93.2289-28.73 93.3535-28.3967 93.3535-28.0897C93.3535-27.2144 92.6487-26.574 91.687-26.574C90.9123-26.574 90.344-27.0297 90.1091-27.953L88.4539-34.332L80.2936-34.332L78.6624-27.9771C78.4275-27.0034 77.857-26.574 77.0605-26.574ZM80.8521-36.9504L87.8954-36.9504L84.4169-50.6003L84.2563-50.6003ZM99.0984-26.574C98.1127-26.574 97.4461-27.2526 97.4461-28.3006L97.4461-52.9882C97.4461-54.0361 98.1127-54.765 99.0984-54.765C100.096-54.765 100.763-54.0361 100.763-52.9882L100.763-28.3006C100.763-27.2526 100.096-26.574 99.0984-26.574ZM107.871-26.6243C106.823-26.6243 106.257-27.3029 106.257-28.3006L106.257-52.6406C106.257-53.7126 106.811-54.4295 107.871-54.4295L113.38-54.4295C118.425-54.4295 121.267-51.1821 121.267-46.3028C121.267-43.2477 120.031-40.233 116.894-38.9148L120.948-29.2262C121.109-28.7946 121.307-28.3749 121.307-28.0919C121.307-27.2286 120.591-26.6243 119.579-26.6243C118.854-26.6243 118.399-27.0417 118.077-27.7661L113.76-38.1739L109.511-38.1739L109.511-28.3006C109.511-27.2526 108.844-26.6243 107.871-26.6243ZM109.511-40.7825L113.121-40.8831C116.324-40.9334 117.938-43.0518 117.938-46.2285C117.938-49.4053 116.223-51.6745 113.058-51.6745L109.511-51.6745ZM48.0753 0.767304C55.7433 0.767304 61.8274-5.25447 61.8274-12.9344C61.8274-20.6407 55.7313-26.6745 48.0753-26.6745C40.4074-26.6745 34.3736-20.6407 34.3736-12.9344C34.3736-5.26648 40.4074 0.767304 48.0753 0.767304ZM143.581 0.767304C151.237 0.767304 157.283-5.26648 157.283-12.9344C157.283-20.6407 151.237-26.6745 143.581-26.6745C135.875-26.6745 129.829-20.6287 129.829-12.9344C129.829-5.26648 135.863 0.767304 143.581 0.767304ZM170.702-58.3915L168.56-61.5308C163.86-68.4451 156.956-71.697 147.142-71.697L110.171-71.697C90.9035-71.697 83.6348-69.9547 72.3404-62.8948L52.9418-50.7093L34.8494-48.4663C19.8782-46.5994 12.4609-39.8052 12.4609-28.0858L12.4609-19.9765C12.4609-13.1987 15.8862-9.6488 22.5274-9.6488L30.5527-9.6488C30.3537-10.732 30.2291-11.7769 30.2291-12.9344C30.2291-22.8987 38.0991-30.8189 48.0753-30.8189C58.0396-30.8189 65.9598-22.8987 65.9598-12.9344C65.9598-11.7769 65.8352-10.732 65.6363-9.6488L126.008-9.6488C125.809-10.732 125.685-11.7769 125.685-12.9344C125.685-22.8867 133.617-30.8189 143.581-30.8189C153.495-30.8189 161.415-22.8987 161.415-12.9344C161.415-11.7769 161.291-10.732 161.104-9.6488L166.213-9.6488C172.895-9.6488 176.229-13.1529 176.229-19.8099L176.229-41.4889C176.229-47.293 174.326-53.0859 170.702-58.3915Z"/>
</svg>