<svg xmlns="http://www.w3.org/2000/svg" viewBox="12.4609 -80.5404 101.79 90.67">
  <path d="M12.4609-2.07706C12.4609 6.16524 16.5498 10.1295 24.7658 10.1295L101.934 10.1295C110.174 10.1295 114.251 6.16524 114.251-2.07706L114.251-51.1025C114.251-59.3448 110.174-63.3594 101.934-63.3594L24.7658-63.3594C16.5498-63.3594 12.4609-59.3448 12.4609-51.1025ZM29.275-37.9007C25.1028-37.9007 21.7406-41.2006 21.7406-45.3848C21.7406-49.6072 25.1028-52.9454 29.275-52.9454C33.4472-52.9454 36.7974-49.6072 36.7974-45.3848C36.7974-41.2006 33.4472-37.9007 29.275-37.9007ZM51.9787-37.9007C47.8449-37.9007 44.5067-41.2006 44.5067-45.3848C44.5067-49.6072 47.8449-52.9454 51.9787-52.9454C56.1509-52.9454 59.5011-49.6072 59.5011-45.3848C59.5011-41.2006 56.1509-37.9007 51.9787-37.9007ZM74.7328-37.9007C70.5606-37.9007 67.2104-41.2006 67.2104-45.3848C67.2104-49.6072 70.5606-52.9454 74.7328-52.9454C78.9049-52.9454 82.2551-49.6072 82.2551-45.3848C82.2551-41.2006 78.9049-37.9007 74.7328-37.9007ZM97.4365-37.9007C93.2523-37.9007 89.9141-41.2006 89.9141-45.3848C89.9141-49.6072 93.2523-52.9454 97.4365-52.9454C101.609-52.9454 104.959-49.6072 104.959-45.3848C104.959-41.2006 101.609-37.9007 97.4365-37.9007ZM16.1018-2.17316L16.1018-28.4589L110.648-28.4589L110.648-2.17316C110.648 3.85759 107.904 6.63952 101.91 6.63952L24.7899 6.63952C18.7952 6.63952 16.1018 3.85759 16.1018-2.17316ZM38.5688-60.819L42.1977-60.819L42.1977-71.0348C42.1977-74.7963 44.6463-77.0317 48.7719-77.0317L77.8893-77.0317C82.0652-77.0317 84.5258-74.7963 84.5258-71.0348L84.5258-60.819L88.1426-60.819L88.1426-71.1046C88.1426-77.0483 84.351-80.5404 77.9209-80.5404L48.7524-80.5404C42.4107-80.5404 38.5688-77.0483 38.5688-71.1046Z"/>
</svg>