<svg xmlns="http://www.w3.org/2000/svg" viewBox="16.4507 -92.9474 120.99 115.37">
  <path d="M66.838-82.658C69.7333-82.658 71.9696-84.8319 71.9696-87.7776C71.9696-90.6609 69.671-92.9474 66.838-92.9474C64.017-92.9474 61.6682-90.6489 61.6682-87.7776C61.6682-84.8942 63.9547-82.658 66.838-82.658ZM44.2041-69.5785C47.1497-69.5785 49.3357-71.8027 49.3357-74.7484C49.3357-77.6317 47.0874-79.9302 44.2041-79.9302C41.3831-79.9302 39.0846-77.5694 39.0846-74.7484C39.0846-71.865 41.3208-69.5785 44.2041-69.5785ZM89.4216-69.5785C92.3672-69.5785 94.5532-71.8027 94.5532-74.7484C94.5532-77.6317 92.3049-79.9302 89.4216-79.9302C86.6509-79.9302 84.3021-77.5694 84.3021-74.7484C84.3021-71.865 86.5886-69.5785 89.4216-69.5785ZM21.5702-56.3744C24.5158-56.3744 26.7521-58.5986 26.7521-61.5442C26.7521-64.3773 24.4535-66.6638 21.5702-66.6638C18.7492-66.6638 16.4507-64.3652 16.4507-61.5442C16.4507-58.6609 18.7372-56.3744 21.5702-56.3744ZM66.838-54.7567C70.5793-54.7567 73.5752-57.7526 73.5752-61.5442C73.5752-65.2233 70.517-68.2815 66.838-68.2815C63.1207-68.2815 60.0505-65.2112 60.0505-61.5442C60.0505-57.8149 63.1087-54.7567 66.838-54.7567ZM111.869-56.3744C114.776-56.3744 117-58.5986 117-61.5442C117-64.4276 114.764-66.6638 111.869-66.6638C109.048-66.6638 106.699-64.315 106.699-61.5442C106.699-58.6609 108.985-56.3744 111.869-56.3744ZM44.2041-41.6652C48.046-41.6652 50.9413-44.6228 50.9413-48.4527C50.9413-52.1318 47.8831-55.19 44.2041-55.19C40.5371-55.19 37.4669-52.0694 37.4669-48.4527C37.4669-44.6852 40.4245-41.6652 44.2041-41.6652ZM89.4216-41.6652C93.2635-41.6652 96.1588-44.6228 96.1588-48.4527C96.1588-52.1318 93.1509-55.19 89.4216-55.19C85.8169-55.19 82.6844-52.0694 82.6844-48.4527C82.6844-44.6852 85.6923-41.6652 89.4216-41.6652ZM21.5702-30.1411C24.5158-30.1411 26.7521-32.315 26.7521-35.2606C26.7521-38.144 24.4535-40.3802 21.5702-40.3802C18.7492-40.3802 16.4507-38.1319 16.4507-35.2606C16.4507-32.3773 18.7372-30.1411 21.5702-30.1411ZM66.838-27.5288C71.1138-27.5288 74.5699-30.9849 74.5699-35.2606C74.5699-39.4741 71.0515-42.9925 66.838-42.9925C62.5983-42.9925 59.0679-39.5124 59.0679-35.2606C59.0679-31.0472 62.5862-27.5288 66.838-27.5288ZM116.034-32.2212C116.665-33.0649 117.036-34.1819 117.036-35.2606C117.036-38.1942 114.788-40.3802 111.905-40.3802C109.084-40.3802 106.735-38.0816 106.735-35.2606C106.735-34.3621 107.01-33.3172 107.521-32.4592C108.815-32.9839 110.15-33.2714 111.534-33.2714C113.157-33.2714 114.718-32.8518 116.034-32.2212ZM44.2041-15.3313C47.8951-15.3313 50.9413-18.3272 50.9413-22.0686C50.9413-25.8361 47.8831-28.8561 44.2041-28.8561C40.4868-28.8561 37.4669-25.7738 37.4669-22.0686C37.4669-18.3895 40.4748-15.3313 44.2041-15.3313ZM89.4216-15.3313C91.0318-15.3313 92.4475-15.8583 93.4248-16.7493L96.1371-21.4689L96.1371-22.4867C95.9809-25.9683 93.1291-28.8561 89.4216-28.8561C85.7546-28.8561 82.6844-25.7738 82.6844-22.0686C82.6844-18.3895 85.7546-15.3313 89.4216-15.3313ZM21.5702-3.8575C24.5158-3.8575 26.7521-6.08172 26.7521-8.97704C26.7521-11.8604 24.4535-14.1469 21.5702-14.1469C18.7995-14.1469 16.4507-11.798 16.4507-8.97704C16.4507-6.09374 18.6869-3.8575 21.5702-3.8575ZM66.838-2.23982C70.5793-2.23982 73.5752-5.23573 73.5752-8.97704C73.5752-12.7063 70.517-15.7646 66.838-15.7646C63.171-15.7646 60.0505-12.644 60.0505-8.97704C60.0505-5.24774 63.0584-2.23982 66.838-2.23982ZM44.2041 9.40891C47.1497 9.40891 49.3357 7.17267 49.3357 4.22706C49.3357 1.39405 47.0874-0.942774 44.2041-0.942774C41.3831-0.942774 39.0846 1.40606 39.0846 4.22706C39.0846 7.11037 41.3208 9.40891 44.2041 9.40891ZM66.838 22.4261C69.7333 22.4261 71.9696 20.2522 71.9696 17.2563C71.9696 14.373 69.671 12.1367 66.838 12.1367C64.017 12.1367 61.6682 14.4353 61.6682 17.2563C61.6682 20.1899 63.9547 22.4261 66.838 22.4261ZM91.5294 18.2751L131.59 18.2751C135.086 18.2751 137.44 15.4713 137.44 12.3366C137.44 11.366 137.179 10.4577 136.656 9.44877L116.601-26.1498C115.455-28.0407 113.564-29.1119 111.597-29.1119C109.605-29.1119 107.602-28.0407 106.468-26.1498L86.3746 9.49907C85.9025 10.4577 85.6412 11.366 85.6412 12.3366C85.6412 15.4713 88.0328 18.2751 91.5294 18.2751ZM111.547 10.9854C109.694 10.9854 108.215 9.46831 108.215 7.66596C108.215 5.9019 109.744 4.3848 111.547 4.3848C113.349 4.3848 114.928 5.95219 114.878 7.66596C114.828 9.46831 113.299 10.9854 111.547 10.9854ZM111.547 1.03236C110.343 1.03236 109.449 0.088024 109.437-1.14157L109.152-15.6938C109.14-17.0961 110.12-18.1267 111.547-18.1267C112.91-18.1267 113.891-17.0961 113.879-15.6938L113.594-1.14157C113.582 0.088024 112.688 1.03236 111.547 1.03236Z"/>
</svg>