<svg xmlns="http://www.w3.org/2000/svg" viewBox="12.4609 -78.4559 86.4 86.41">
  <path d="M25.6328 7.95861L85.6915 7.95861C94.3339 7.95861 98.8634 3.32853 98.8634-5.17725L98.8634-65.32C98.8634-73.8258 94.3339-78.4559 85.6915-78.4559L25.6328-78.4559C17.0024-78.4559 12.4609-73.9264 12.4609-65.32L12.4609-5.17725C12.4609 3.42911 17.0024 7.95861 25.6328 7.95861ZM53.5828-17.0887L36.4468-45.2699C35.4281-46.9717 36.2861-49.0308 38.036-49.0308L73.2524-49.0308C75.0645-49.0308 75.9225-47.0197 74.8918-45.2699L57.9187-17.0887C56.8497-15.3869 54.6398-15.4229 53.5828-17.0887Z"/>
</svg>