<svg xmlns="http://www.w3.org/2000/svg" viewBox="12.4609 -78.4559 86.4 86.41">
  <path d="M25.6328 7.95861L85.6915 7.95861C94.3339 7.95861 98.8634 3.32853 98.8634-5.17725L98.8634-65.32C98.8634-73.8258 94.3339-78.4559 85.6915-78.4559L25.6328-78.4559C17.0024-78.4559 12.4609-73.9264 12.4609-65.32L12.4609-5.17725C12.4609 3.42911 17.0024 7.95861 25.6328 7.95861ZM25.7574 4.30574C19.4107 4.30574 16.1018 1.02088 16.1018-5.36192L16.1018-65.1353C16.1018-71.5302 19.4107-74.803 25.7574-74.803L85.5669-74.803C91.7125-74.803 95.2226-71.5302 95.2226-65.1353L95.2226-5.36192C95.2226 1.02088 91.7125 4.30574 85.5669 4.30574ZM55.6682-12.1831C67.2644-12.1831 76.4547-21.3352 76.4547-33.0177C76.4547-44.6019 67.2283-53.6316 55.8844-53.6316C53.8644-53.6316 51.8444-53.531 49.07-52.9657C48.07-52.8149 47.5183-52.1002 47.5183-51.2512C47.5183-50.3136 48.3335-49.3857 49.5849-49.6492C50.9173-49.951 53.167-50.1521 55.6682-50.1521C65.3531-50.1521 72.9393-42.6283 72.9393-32.9816C72.9393-23.2344 65.3531-15.6483 55.6682-15.6483C46.0215-15.6483 38.4474-23.2847 38.4474-32.9816C38.4474-33.9313 37.6584-34.7082 36.6585-34.7082C35.7592-34.7082 34.9702-33.9313 34.9702-32.9816C34.9702-21.3352 44.0097-12.1831 55.6682-12.1831ZM45.3413-50.8533C45.3413-50.3211 45.5523-49.8391 45.9358-49.4796L56.2634-38.7617C56.4841-38.541 57.0043-38.2678 57.4359-38.2678C58.4118-38.2678 59.1528-39.059 59.1528-39.9343C59.1528-40.5168 58.9801-40.9867 58.4576-41.5092L49.0775-50.8533L58.4576-60.1854C58.9801-60.7079 59.1528-61.1778 59.1528-61.7603C59.1528-62.6859 58.4118-63.4389 57.4359-63.4389C57.0043-63.4389 56.4721-63.1416 56.2634-62.9329L45.9358-52.2653C45.5523-51.9058 45.3413-51.3735 45.3413-50.8533Z" />
</svg>