<svg xmlns="http://www.w3.org/2000/svg" viewBox="8.72266 -83.1265 95.74 95.73">
  <path d="M56.5885 12.6052C83.0185 12.6052 104.466-8.83065 104.466-35.2606C104.466-61.6906 83.0185-83.1265 56.5885-83.1265C30.1705-83.1265 8.72266-61.6906 8.72266-35.2606C8.72266-8.83065 30.1705 12.6052 56.5885 12.6052ZM56.5885 8.86824C32.1734 8.86824 12.4213-10.8455 12.4213-35.2606C12.4213-59.6758 32.1734-79.3895 56.5885-79.3895C81.0036-79.3895 100.717-59.6758 100.717-35.2606C100.717-10.8455 81.0036 8.86824 56.5885 8.86824ZM80.9564-49.8017C80.9564-50.701 80.316-51.4922 79.3161-51.4922L41.6408-51.4922L36.0048-51.3676C35.1416-51.3556 34.4389-50.7152 34.4389-49.852C34.4389-48.9887 35.1416-48.3483 36.0048-48.3363L41.6288-48.1997L79.3161-48.1997C80.2657-48.1997 80.9564-48.852 80.9564-49.8017ZM47.6722-34.4244C48.5212-34.4244 49.2501-35.1413 49.2501-36.0024C49.2501-36.434 49.0392-36.9542 48.6556-37.3378L41.8585-44.0989L35.887-49.864L41.8585-55.5689L48.6556-62.3421C49.0392-62.7016 49.2501-63.2339 49.2501-63.6655C49.2501-64.5266 48.5212-65.2555 47.6722-65.2555C47.152-65.2555 46.7083-65.0588 46.3247-64.6872L32.614-50.9983C31.9857-50.3819 32.036-49.2859 32.614-48.6696L46.3247-34.9184C46.7083-34.5468 47.1137-34.4244 47.6722-34.4244ZM31.9834-20.5305C31.9834-19.5809 32.6861-18.9285 33.6237-18.9285L71.323-18.9285L76.947-19.0651C77.8102-19.0771 78.4626-19.7175 78.4626-20.5808C78.4626-21.4441 77.8102-22.0844 76.947-22.0964L71.311-22.221L33.6237-22.221C32.6358-22.221 31.9834-21.4298 31.9834-20.5305ZM65.2796-5.15322C65.8381-5.15322 66.2435-5.27559 66.6271-5.64717L80.2875-19.3984C80.9158-20.0147 80.9661-21.1107 80.2875-21.7271L66.6271-35.416C66.2435-35.7876 65.7998-35.9843 65.2796-35.9843C64.4186-35.9843 63.6896-35.2554 63.6896-34.3943C63.6896-33.9627 63.9126-33.4304 64.2962-33.0589L71.0933-26.2977L77.0528-20.5928L71.0933-14.8277L64.2962-8.05462C63.9126-7.68303 63.6896-7.16281 63.6896-6.73117C63.6896-5.87012 64.4186-5.15322 65.2796-5.15322Z" />
</svg>