<svg xmlns="http://www.w3.org/2000/svg" viewBox="12.4609 -78.4559 86.4 86.41">
  <path d="M25.6328 7.95861L85.6915 7.95861C94.3339 7.95861 98.8634 3.32853 98.8634-5.17725L98.8634-65.32C98.8634-73.8258 94.3339-78.4559 85.6915-78.4559L25.6328-78.4559C17.0024-78.4559 12.4609-73.9264 12.4609-65.32L12.4609-5.17725C12.4609 3.42911 17.0024 7.95861 25.6328 7.95861ZM25.7574 4.30574C19.4107 4.30574 16.1018 1.02088 16.1018-5.36192L16.1018-65.1353C16.1018-71.5302 19.4107-74.803 25.7574-74.803L85.5669-74.803C91.7125-74.803 95.2226-71.5302 95.2226-65.1353L95.2226-5.36192C95.2226 1.02088 91.7125 4.30574 85.5669 4.30574ZM75.3986-37.1815C76.3722-37.1815 77.1109-37.9202 77.1109-38.8818C77.1109-39.8052 76.3722-40.5942 75.3986-40.5942L71.1537-40.5439L63.009-40.4237L78.5116-55.617C79.2262-56.3196 79.2382-57.4397 78.5236-58.1543C77.8089-58.9193 76.6889-58.9193 75.9239-58.1423L60.7307-42.6278L60.8891-51.4119L60.8891-55.0654C60.8891-55.9887 60.1001-56.7777 59.1888-56.7777C58.2151-56.7777 57.4765-55.9887 57.4765-55.0654L57.4765-38.9757C57.4765-37.7738 58.2031-37.1815 59.3209-37.1815ZM52.1356-13.8945C53.1092-13.8945 53.8479-14.6835 53.8479-15.6068L53.8479-31.6965C53.8479-32.8983 53.1212-33.4906 52.0537-33.4906L35.9258-33.4906C35.0024-33.4906 34.2135-32.752 34.2135-31.7903C34.2135-30.867 35.0024-30.078 35.9258-30.078L40.1587-30.1283L48.3033-30.2484L32.8128-15.0552C32.1484-14.3525 32.1364-13.2325 32.8008-12.5179C33.5154-11.8032 34.6355-11.8032 35.4004-12.5299L50.5937-28.0444L50.4352-19.2602L50.4352-15.6068C50.4352-14.6835 51.2122-13.8945 52.1356-13.8945Z" />
</svg>