<svg xmlns="http://www.w3.org/2000/svg" viewBox="12.4609 -78.4559 86.4 86.41">
  <path d="M25.6328 7.95861L85.6915 7.95861C94.3339 7.95861 98.8634 3.32853 98.8634-5.17725L98.8634-65.32C98.8634-73.8258 94.3339-78.4559 85.6915-78.4559L25.6328-78.4559C17.0024-78.4559 12.4609-73.9264 12.4609-65.32L12.4609-5.17725C12.4609 3.42911 17.0024 7.95861 25.6328 7.95861ZM25.7574 4.30574C19.4107 4.30574 16.1018 1.02088 16.1018-5.36192L16.1018-65.1353C16.1018-71.5302 19.4107-74.803 25.7574-74.803L85.5669-74.803C91.7125-74.803 95.2226-71.5302 95.2226-65.1353L95.2226-5.36192C95.2226 1.02088 91.7125 4.30574 85.5669 4.30574ZM63.8879-59.2202C63.195-59.2202 62.5765-58.9109 62.1066-58.4913L48.9242-45.5199C48.5669-45.1626 48.3439-44.743 48.3439-44.1747C48.3439-43.1508 49.0826-42.4121 50.1306-42.4121C50.6748-42.4121 51.0922-42.6853 51.4758-43.0809L60.407-52.1105L63.8639-56.4907L67.5467-51.8703L76.2377-43.093C76.6093-42.7094 77.065-42.4121 77.6332-42.4121C78.6309-42.4121 79.4199-43.1508 79.4199-44.1867C79.4199-44.755 79.1969-45.1746 78.8276-45.5319L65.631-58.4913C65.1611-58.9109 64.5808-59.2202 63.8879-59.2202ZM33.6288-40.1039C32.5831-40.1039 31.9165-39.3532 31.9165-38.3195L31.9165-30.506C31.9165-19.8225 38.5884-12.4338 48.7764-12.4338C58.9524-12.4338 65.5882-19.8105 65.5882-30.4939L65.5882-49.2708L65.4516-55.7648C65.4396-56.6139 64.7369-57.3285 63.8999-57.3285C63.0006-57.3285 62.3482-56.6139 62.3362-55.7648L62.1756-49.2708L62.1756-30.4939C62.1756-21.8419 56.9668-15.9185 48.8605-15.9185C40.7061-15.9185 35.3532-21.8562 35.3532-30.506L35.3532-38.3435C35.3532-39.3532 34.7248-40.1039 33.6288-40.1039Z" />
</svg>