<svg xmlns="http://www.w3.org/2000/svg" viewBox="12.4609 -78.4559 86.4 86.41">
  <path d="M25.6328 7.95861L85.6915 7.95861C94.3339 7.95861 98.8634 3.32853 98.8634-5.17725L98.8634-65.32C98.8634-73.8258 94.3339-78.4559 85.6915-78.4559L25.6328-78.4559C17.0024-78.4559 12.4609-73.9264 12.4609-65.32L12.4609-5.17725C12.4609 3.42911 17.0024 7.95861 25.6328 7.95861ZM55.6922-7.66403C55.2268-7.66403 54.7711-7.88473 54.3777-8.29011L39.7099-22.9963C39.4148-23.229 39.1176-23.6967 39.1176-24.2769C39.1176-25.2363 39.8803-25.9367 40.8014-25.9367C41.3937-25.9367 41.7991-25.6395 42.1444-25.2941L47.8748-19.5397L54.0685-13.2567L53.8455-20.647L53.8455-49.8743L54.0685-57.2646L47.8748-50.9816L42.1444-45.2272C41.7991-44.8818 41.3937-44.5846 40.8014-44.5846C39.8803-44.5846 39.1176-45.285 39.1176-46.2444C39.1176-46.8246 39.4148-47.2923 39.7099-47.525L54.3777-62.2312C54.7711-62.6366 55.2268-62.8573 55.6922-62.8573C56.1456-62.8573 56.6013-62.6366 56.9947-62.2312L71.6625-47.525C72.0199-47.23 72.2548-46.8246 72.2548-46.2444C72.2548-45.285 71.4921-44.5846 70.583-44.5846C69.9787-44.5846 69.6357-44.8195 69.228-45.2272L63.4976-50.9816L57.3039-57.2646L57.5269-49.8743L57.5269-20.647L57.3039-13.2567L63.4976-19.5397L69.228-25.2941C69.6357-25.7018 69.9787-25.9367 70.583-25.9367C71.4921-25.9367 72.2548-25.2363 72.2548-24.2769C72.2548-23.6967 72.0199-23.2913 71.6625-22.9963L56.9947-8.29011C56.6013-7.88473 56.1456-7.66403 55.6922-7.66403Z"/>
</svg>