<svg xmlns="http://www.w3.org/2000/svg" viewBox="12.4609 -78.4559 86.4 86.41">
  <path d="M25.6328 7.95861L85.6915 7.95861C94.3339 7.95861 98.8634 3.32853 98.8634-5.17725L98.8634-65.32C98.8634-73.8258 94.3339-78.4559 85.6915-78.4559L25.6328-78.4559C17.0024-78.4559 12.4609-73.9264 12.4609-65.32L12.4609-5.17725C12.4609 3.42911 17.0024 7.95861 25.6328 7.95861ZM55.6802-11.1885C55.1885-11.1885 54.8071-11.3611 54.3777-11.7402L37.7544-28.2697C37.373-28.5888 37.1884-28.9701 37.1884-29.4618C37.1884-30.3709 37.9271-31.1479 38.8361-31.1479C39.3038-31.1479 39.8458-30.9129 40.1529-30.5316L49.8325-20.6935L53.9461-16.5822L53.8357-23.453L53.8357-57.5124C53.8357-58.5461 54.6848-59.3328 55.6802-59.3328C56.6636-59.3328 57.5246-58.5461 57.5246-57.5124L57.5246-23.453L57.4023-16.6325L61.4656-20.6935L71.1452-30.5316C71.4523-30.9129 71.9822-31.1479 72.4499-31.1479C73.3207-31.1479 74.1097-30.3709 74.1097-29.4618C74.1097-28.9701 73.925-28.5888 73.5437-28.2697L56.9706-11.7402C56.5412-11.3611 56.1599-11.1885 55.6802-11.1885Z"/>
</svg>