<svg xmlns="http://www.w3.org/2000/svg" viewBox="8.72266 -83.1265 95.74 95.73">
  <path d="M56.5885 12.6052C82.9179 12.6052 104.466-8.94325 104.466-35.2606C104.466-61.578 82.9179-83.1265 56.5885-83.1265C30.2711-83.1265 8.72266-61.578 8.72266-35.2606C8.72266-8.94325 30.2711 12.6052 56.5885 12.6052ZM84.2091-35.2606C84.2091-34.8072 84.0004-34.3516 83.5831-33.9462L68.8769-19.2783C68.5939-18.9833 68.1765-18.698 67.5962-18.698C66.6368-18.698 65.9485-19.4607 65.9485-20.3698C65.9485-20.9621 66.2217-21.3675 66.579-21.7128L72.3455-27.4553L78.6165-33.6489L71.2261-33.426L41.9989-33.426L34.6085-33.6489L40.8915-27.4553L46.658-21.7128C47.0033-21.3675 47.2886-20.9621 47.2886-20.3698C47.2886-19.4607 46.5882-18.698 45.6408-18.698C45.0485-18.698 44.5929-18.9833 44.3481-19.2783L29.5917-33.9462C29.2366-34.3516 29.0159-34.8072 29.0159-35.2606C29.0159-35.7141 29.2366-36.1697 29.5917-36.5751L44.3481-51.243C44.6311-51.5763 45.0485-51.8233 45.6408-51.8233C46.5882-51.8233 47.2886-51.0606 47.2886-50.1515C47.2886-49.5592 47.0416-49.1921 46.658-48.8085L40.8915-43.066L34.6085-36.8724L41.9989-37.0953L71.2261-37.0953L78.6165-36.8724L72.3455-43.066L66.579-48.8085C66.1834-49.1921 65.9485-49.5592 65.9485-50.1515C65.9485-51.0606 66.6368-51.8233 67.5962-51.8233C68.1765-51.8233 68.5436-51.5763 68.8769-51.243L83.5831-36.5751C84.0004-36.1697 84.2091-35.7141 84.2091-35.2606Z"/>
</svg>