<svg xmlns="http://www.w3.org/2000/svg" viewBox="12.4609 -78.4559 113.26 86.41">
  <path d="M100.287 6.5L100.287-41.4355C100.287-48.6944 96.0618-52.9071 88.7669-52.9071L14.3534-52.9071L14.3534-49.4705L88.5965-49.4705C93.7857-49.4705 96.8499-46.4446 96.8499-41.2051L96.8499 6.5ZM75.0546-51.6723L71.6179-51.6723L71.6179 6.5L75.0546 6.5ZM25.6328 7.95861L112.551 7.95861C121.193 7.95861 125.723 3.32853 125.723-5.17725L125.723-65.32C125.723-73.8258 121.193-78.4559 112.551-78.4559L25.6328-78.4559C17.0024-78.4559 12.4609-73.9264 12.4609-65.32L12.4609-5.17725C12.4609 3.42911 17.0024 7.95861 25.6328 7.95861ZM25.7574 4.30574C19.4107 4.30574 16.1018 1.02088 16.1018-5.36192L16.1018-65.1353C16.1018-71.5302 19.4107-74.803 25.7574-74.803L112.426-74.803C118.572-74.803 122.082-71.5302 122.082-65.1353L122.082-5.36192C122.082 1.02088 118.572 4.30574 112.426 4.30574Z"/>
</svg>