<svg xmlns="http://www.w3.org/2000/svg" viewBox="8.72266 -83.1265 95.74 95.73">
  <path d="M56.5885 12.6052C82.9179 12.6052 104.466-8.94325 104.466-35.2606C104.466-61.578 82.9179-83.1265 56.5885-83.1265C30.2711-83.1265 8.72266-61.578 8.72266-35.2606C8.72266-8.94325 30.2711 12.6052 56.5885 12.6052ZM56.4737-13.5897C55.2313-13.5897 54.4686-14.3644 54.4806-15.6451L54.5887-32.3487L40.0244-23.274C39.5785-22.9647 39.1731-22.8041 38.6049-22.8041C37.6575-22.8041 36.7724-23.605 36.7724-24.7348C36.7724-25.5096 37.1418-26.0516 38.0051-26.5455L52.79-35.3897L37.9045-44.2362C37.1418-44.6919 36.7221-45.1956 36.7221-46.0086C36.7221-47.239 37.7078-48.04 38.7055-48.04C39.2857-48.04 39.6791-47.8793 40.0244-47.6323L54.5887-38.5314L54.4806-55.2545C54.4686-56.4969 55.2313-57.3219 56.4737-57.3219C57.704-57.3219 58.3804-56.5209 58.3684-55.2545L58.2723-38.5314L73.052-47.8335C73.5099-48.1428 73.9536-48.3034 74.4835-48.3034C75.5315-48.3034 76.4166-47.4019 76.4166-46.2721C76.4166-45.4591 76.0855-44.9554 75.1719-44.4374L60.0852-35.44L75.1719-26.3946C76.0352-25.9007 76.3663-25.409 76.3663-24.584C76.3663-23.4542 75.4309-22.6029 74.4835-22.6029C73.9033-22.6029 73.5602-22.7635 73.052-23.0608L58.2723-32.3487L58.4187-15.6451C58.4307-14.3404 57.7543-13.5897 56.4737-13.5897Z"/>
</svg>