<svg xmlns="http://www.w3.org/2000/svg" viewBox="12.4609 -84.8643 101.08 99.21">
  <path d="M16.9364 12.1644L109.078 12.1644L109.078 7.66795C109.078 6.88346 108.524 6.32945 107.678 6.32945L104.562 6.32945L104.562-55.6042L109.24-55.6042C110.532-55.6042 111.183-56.439 111.183-57.4246C111.183-58.0004 110.84-58.679 110.002-59.1707L67.9303-83.4598C66.3389-84.3921 64.6612-84.8643 63.0075-84.8643C61.3417-84.8643 59.6137-84.3921 58.0223-83.4598L15.9501-59.1707C15.1514-58.679 14.8203-58.0004 14.8203-57.4246C14.8203-56.439 15.4201-55.6042 16.7631-55.6042L21.4525-55.6042L21.4525 6.32945L18.3372 6.32945C17.4905 6.32945 16.9364 6.88346 16.9364 7.66795ZM14.2814 14.343L111.722 14.343C112.693 14.343 113.542 13.494 113.542 12.5106C113.542 11.4889 112.693 10.6901 111.722 10.6901L14.2814 10.6901C13.2597 10.6901 12.4609 11.4889 12.4609 12.5106C12.4609 13.494 13.2597 14.343 14.2814 14.343ZM48.7802-8.44785C47.7781-8.44785 47.1377-9.06641 47.1377-9.96798C47.1377-10.2532 47.212-10.6008 47.3487-10.9604L50.3963-19.8354L46.8645-19.8354C46.2579-19.8354 45.7617-20.3556 45.7617-20.9381C45.7617-21.5446 46.2579-22.0146 46.8645-22.0146L51.1898-22.0146L53.2984-28.1249L46.8645-28.1249C46.2579-28.1249 45.7617-28.5948 45.7617-29.1774C45.7617-29.7839 46.2579-30.2801 46.8645-30.2801L54.0798-30.2801L60.7607-49.6741C61.106-50.6238 61.8469-51.3287 63.0075-51.3287C64.168-51.3287 64.8346-50.7364 65.2182-49.6741L71.9614-30.2801L79.1767-30.2801C79.7833-30.2801 80.3035-29.7839 80.3035-29.1774C80.3035-28.5948 79.7833-28.1249 79.1767-28.1249L72.7428-28.1249L74.8514-22.0146L79.1767-22.0146C79.7833-22.0146 80.3035-21.5446 80.3035-20.9381C80.3035-20.3556 79.7833-19.8354 79.1767-19.8354L75.6449-19.8354L78.7428-10.9581C78.8794-10.5985 78.9538-10.2773 78.9538-9.96798C78.9538-8.95381 78.0117-8.44785 77.2227-8.44785C76.3091-8.44785 75.8392-8.99209 75.6042-9.73301L72.209-19.8354L53.8322-19.8354L50.3867-9.74503C50.1517-8.91777 49.7081-8.44785 48.7802-8.44785ZM54.501-22.0146L71.4516-22.0146L69.4556-28.1249L56.5856-28.1249ZM57.3047-30.2801L68.6982-30.2801L63.1201-46.8359L62.8829-46.8359Z"/>
</svg>