<svg xmlns="http://www.w3.org/2000/svg" viewBox="8.72266 -83.1265 95.74 95.73">
  <path d="M56.5885 12.6052C82.9179 12.6052 104.466-8.94325 104.466-35.2606C104.466-61.578 82.9179-83.1265 56.5885-83.1265C30.2711-83.1265 8.72266-61.578 8.72266-35.2606C8.72266-8.94325 30.2711 12.6052 56.5885 12.6052ZM42.7276-49.3228C50.7934-57.3886 62.2574-61.8122 71.9364-60.3102C77.1566-59.522 80.8881-55.8287 81.6763-50.6206C83.2406-40.8793 78.817-29.4032 70.7129-21.2991C62.6471-13.2333 51.171-8.80966 41.3914-10.3237C36.2216-11.1742 32.49-14.8555 31.7522-20.1139C30.2501-29.7546 34.6737-41.2187 42.7276-49.3228ZM62.1096-46.6451C61.774-47.055 61.0647-46.9927 60.6428-46.6451C60.3072-46.2473 60.3072-45.5882 60.6428-45.2286L62.9405-42.9549L60.5422-40.5806L58.2565-42.804C57.9089-43.2019 57.2618-43.2019 56.864-42.804C56.4661-42.4564 56.4781-41.8094 56.864-41.3995L59.0994-39.1641L56.7514-36.828L54.5159-39.0132C54.0798-39.423 53.459-39.423 53.1235-39.0515C52.7136-38.6656 52.7376-38.0186 53.1235-37.6207L55.3469-35.3853L52.9726-33.0372L50.6868-35.2847C50.3513-35.6825 49.6802-35.6825 49.2823-35.2727C48.9228-34.9251 48.9228-34.266 49.2823-33.8561L51.5681-31.6447L49.1315-29.2584L46.896-31.4939C46.4982-31.8797 45.8894-31.8797 45.4915-31.4939C45.0937-31.084 45.0937-30.4632 45.4915-30.0773L51.4052-24.214C51.7648-23.8041 52.4118-23.8041 52.7714-24.202C53.1572-24.6118 53.1693-25.2589 52.7714-25.6185L50.5863-27.8036L53.0229-30.1779L55.196-28.0168C55.6059-27.6452 56.2529-27.6452 56.6005-28.0048C57.0104-28.3906 57.0104-29.0617 56.6005-29.4093L54.3651-31.5944L56.8137-33.9064L58.9485-31.7956C59.3464-31.4218 60.0055-31.3857 60.3913-31.7956C60.7509-32.1312 60.7389-32.8143 60.3913-33.1881L58.2062-35.3853L60.5422-37.7213L62.7274-35.5361C63.1372-35.1886 63.7843-35.1766 64.1319-35.5241C64.5417-35.934 64.5297-36.5931 64.1319-36.9286L61.9467-39.1138L64.333-41.5001L66.5182-39.3269C66.928-38.9794 67.5751-38.9794 67.9227-39.3149C68.3205-39.7248 68.3325-40.3839 67.9227-40.7817Z"/>
</svg>