<svg xmlns="http://www.w3.org/2000/svg" viewBox="8.72266 -83.1265 95.74 95.73">
  <path d="M56.5885 12.6052C82.9179 12.6052 104.466-8.94325 104.466-35.2606C104.466-61.578 82.9179-83.1265 56.5885-83.1265C30.2711-83.1265 8.72266-61.578 8.72266-35.2606C8.72266-8.94325 30.2711 12.6052 56.5885 12.6052ZM30.5301-35.2104C30.5301-37.8151 30.9542-40.3073 31.6899-42.7252C33.8105-42.4279 35.8185-41.9055 37.7139-41.0715L37.1651-39.8472C36.8056-39.0635 37.0788-38.2437 37.9008-37.9082C38.5216-37.6612 39.3293-37.9104 39.6386-38.6438L40.149-39.8299C41.3613-39.2188 42.5233-38.4449 43.5848-37.6207L42.8731-36.8708C42.2501-36.2357 42.413-35.3154 42.9355-34.8312C43.494-34.3471 44.352-34.3351 44.8482-34.8695L45.6363-35.708C46.6595-34.6346 47.5963-33.4365 48.4565-32.2002L47.6083-31.7641C46.8366-31.3662 46.5874-30.5727 46.9853-29.9257C47.3328-29.2426 48.1525-28.9431 48.8619-29.3289L49.7987-29.8776C50.4983-28.4544 51.0351-27.0935 51.4712-25.6822L50.5126-25.4833C49.7912-25.3227 49.3311-24.6155 49.4797-23.8198C49.6283-23.0984 50.3617-22.576 51.1574-22.7749L52.104-22.9738C52.2909-21.5506 52.4155-20.1896 52.3773-18.8287L51.3421-18.9796C50.4841-19.0802 49.837-18.3971 49.7867-17.7019C49.7364-17.0188 50.2326-16.2974 50.9901-16.1969L52.2264-16.046C51.8886-13.9516 51.3136-11.8813 50.5014-9.91161C39.2145-12.7371 30.5301-23.19 30.5301-35.2104ZM56.6005-9.17821C55.3544-9.17821 54.1826-9.24052 52.9868-9.42743C53.7608-11.5338 54.3478-13.6642 54.6473-15.8328L55.5916-15.6819C56.4496-15.5813 57.0464-16.2021 57.0967-16.9476C57.147-17.681 56.6508-18.3641 55.8551-18.4646L54.8605-18.5652C54.8987-20.1874 54.8124-21.8719 54.5129-23.494L55.5961-23.7553C56.3295-23.9039 56.84-24.623 56.641-25.5073C56.4421-26.279 55.6967-26.6626 54.9513-26.514L53.8921-26.2407C53.444-27.8629 52.8449-29.4468 52.0207-31.0066L52.8525-31.4405C53.6362-31.8504 53.8854-32.6701 53.4755-33.3292C53.0777-34.0506 52.3202-34.3358 51.5868-33.926L50.6545-33.4418C49.6817-34.9011 48.5722-36.274 47.3741-37.5081L48.0813-38.2655C48.6278-38.8503 48.5272-39.7203 47.8801-40.2548C47.2713-40.739 46.4756-40.751 45.9794-40.2165L45.3106-39.4591C43.9616-40.4702 42.6007-41.3808 41.1775-42.1164L41.549-42.9121C41.8343-43.6335 41.4725-44.5155 40.8014-44.7385C40.092-44.9975 39.3729-44.7482 39.0133-44.0148L38.704-43.37C36.7223-44.1537 34.6662-44.7385 32.5479-45.0981C36.4708-54.5158 45.9006-61.2928 56.5885-61.2928C57.7603-61.2928 58.932-61.2305 60.1158-61.0556C59.3419-58.9755 58.7549-56.8068 58.4674-54.6382L57.5591-54.7388C56.7514-54.8897 56.0923-54.2186 56.042-53.5234C55.9917-52.778 56.4376-52.1069 57.2836-52.0063L58.2662-51.9058C58.228-50.2956 58.3023-48.6352 58.6138-46.9747L57.4585-46.7015C56.6005-46.5528 56.2147-45.7954 56.4136-45.0117C56.6125-44.2783 57.2956-43.8062 58.0913-44.0171L59.2106-44.2783C59.6467-42.6441 60.2698-41.0603 61.0677-39.4764L60.2742-39.0425C59.5146-38.6566 59.3277-37.8489 59.6632-37.1658C60.049-36.545 60.8185-36.1832 61.5399-36.5811L62.4099-37.0652C63.433-35.618 64.5065-34.233 65.7165-33.0109L65.0454-32.3016C64.4607-31.7048 64.6738-30.7965 65.2203-30.3123C65.9057-29.7396 66.6871-29.8161 67.1593-30.3506L67.7801-31.072C69.141-30.0368 70.538-29.1143 71.923-28.3666L71.6017-27.6092C71.2541-26.8375 71.6039-26.0058 72.3253-25.7205C73.0467-25.4112 73.7779-25.7348 74.1134-26.4561L74.3964-27.125C76.3782-26.279 78.4845-25.7445 80.6652-25.409C76.7302-15.9552 67.3124-9.17821 56.6005-9.17821ZM82.6326-35.2104C82.6326-32.6559 82.2708-30.1374 81.5232-27.7818C79.4026-28.0551 77.3826-28.5775 75.4128-29.3875L75.9616-30.6238C76.3091-31.3572 76.0479-32.1409 75.2762-32.5005C74.6291-32.8098 73.7974-32.5245 73.4498-31.8031L72.9514-30.6411C71.7151-31.2642 70.5913-32.0501 69.5059-32.8983L70.2535-33.6963C70.9006-34.3434 70.776-35.1751 70.2033-35.6976C69.5945-36.232 68.8108-36.2561 68.2403-35.6473L67.4543-34.799C66.4552-35.8342 65.5064-37.0705 64.6702-38.3068L65.5064-38.743C66.2781-39.1408 66.5273-39.8862 66.1294-40.5693C65.7939-41.1901 65.0244-41.552 64.2528-41.1541L63.328-40.6294C62.6163-42.0144 62.0676-43.4376 61.6315-44.8488L62.53-45.0478C63.3017-45.2467 63.7739-45.8412 63.5629-46.6752C63.364-47.4709 62.6809-47.9311 61.8852-47.7321L61.0227-47.5572C60.8358-48.9062 60.7112-50.3054 60.7374-51.6423L61.8086-51.4914C62.6666-51.3908 63.2514-52.0116 63.3017-52.7691C63.364-53.4522 62.9061-54.1735 62.1104-54.2741L60.8883-54.425C61.1878-56.5193 61.8011-58.5514 62.6253-60.6217C73.9242-57.8082 82.6326-47.3313 82.6326-35.2104Z"/>
</svg>