<svg xmlns="http://www.w3.org/2000/svg" viewBox="10.9078 -89.5957 98.24 108.66">
  <path d="M67.5735-70.7915L72.3373-69.0341L78.3847-85.6735C78.8787-87.1838 78.3727-88.469 76.9749-89.0635C75.4886-89.5957 74.2154-88.9029 73.6832-87.4308ZM68.1058-79.7208C39.7594-87.3422 17.958-69.0216 11.3995-50.9202C10.9078-49.5652 11.4716-48.5075 12.5578-48.0879C13.4977-47.7163 14.2626-48.2125 15.0921-48.7808C20.397-52.6241 25.1509-53.7171 30.2982-51.8479C35.2502-50.0847 37.4594-46.065 38.5043-42.991C38.9119-41.9484 40.194-41.8861 40.5679-42.9648C46.7968-60.2344 57.4456-74.1186 68.1058-79.7208ZM73.1992-79.0829C61.8889-74.5907 50.0675-59.4664 43.5489-41.2765C43.175-40.1737 44.1434-39.3803 45.2559-39.9388C49.2817-42.1765 54.5955-43.0652 59.4447-41.3282C64.3322-39.5912 67.8445-35.4394 69.4479-31.1336C69.9779-30.0069 71.1572-29.9566 71.5889-31.0736C78.3163-49.1786 79.007-68.3527 73.1992-79.0829ZM77.6101-76.273C82.1629-65.1301 81.3574-47.69 75.0999-30.4092C74.7042-29.3162 75.6628-28.4822 76.7295-29.1173C79.4492-30.7822 83.7519-32.3893 88.6536-30.6141C93.8512-28.7569 96.7862-24.7935 98.3724-18.4272C98.6336-17.4753 98.9406-16.648 99.8805-16.2885C100.967-15.8809 102.085-16.4251 102.564-17.7418C109.147-35.8694 104.237-63.866 77.6101-76.273ZM36.256 15.3226C35.7358 16.6843 36.479 18.0941 37.7281 18.6143C39.0778 19.0602 40.5116 18.3673 41.0198 17.0296L62.4655-41.877L57.7017-43.572Z"/>
</svg>