<svg xmlns="http://www.w3.org/2000/svg" viewBox="12.4609 -87.3212 106.52 104.12">
  <path d="M65.6978-71.266C68.6817-71.266 71.0065-73.8641 71.0065-77.2578C71.0065-80.7642 69.9496-82.9884 67.4431-85.9573C66.3021-87.3212 65.3427-87.2829 64.2017-86.0293C61.6952-83.125 60.4274-80.9008 60.4274-77.2578C60.4274-73.8641 62.8265-71.266 65.6978-71.266ZM64.0028-49.7821L67.1293-49.7821L67.1293-74.2943L64.0028-74.2943ZM36.1037-26.0583L39.6943-26.0583L39.6943-39.8501C39.6943-44.5612 42.6008-47.482 47.3142-47.482L84.1819-47.482C88.845-47.482 91.7516-44.5612 91.7516-39.8501L91.7516-26.0583L95.3924-26.0583L95.3924-40.0347C95.3924-47.0197 91.3156-51.0726 84.3066-51.0726L47.1896-51.0726C40.1926-51.0726 36.1037-47.0197 36.1037-40.0347ZM19.9976 15.0613L23.6384 15.0613L23.6384-15.9461C23.6384-20.6572 26.533-23.5277 31.208-23.5277L100.288-23.5277C104.963-23.5277 107.858-20.6572 107.858-15.9461L107.858 15.0613L111.499 15.0613L111.499-16.1307C111.499-23.0654 107.371-27.1686 100.413-27.1686L31.0834-27.1686C24.0744-27.1686 19.9976-23.0654 19.9976-16.1307ZM65.5469-6.6026C69.9345-6.6026 73.1481-1.25865 79.8845-1.25865C86.5729-1.25865 89.7264-6.6026 94.0419-6.6026C98.3695-6.6026 101.535-1.25865 108.368-1.25865L108.958-1.25865L108.958-4.83946L108.368-4.83946C102.988-4.83946 100.354-10.1834 94.0419-10.1834C87.7296-10.1834 85.2757-4.83946 79.8845-4.83946C74.2771-4.83946 71.8832-10.1834 65.5469-10.1834C59.2609-10.1834 56.855-4.83946 51.2476-4.83946C45.8061-4.83946 43.3642-10.1834 37.0399-10.1834C30.7899-10.1834 28.1558-4.83946 22.7766-4.83946L22.1145-4.83946L22.1145-1.25865L22.7766-1.25865C29.5588-1.25865 32.7243-6.6026 37.0399-6.6026C41.4177-6.6026 44.5712-1.25865 51.2476-1.25865C57.9457-1.25865 61.1593-6.6026 65.5469-6.6026ZM14.2814 16.7999L117.164 16.7999C118.136 16.7999 118.985 16.0132 118.985 14.9795C118.985 14.0081 118.136 13.1591 117.164 13.1591L14.2814 13.1591C13.2597 13.1591 12.4609 14.0081 12.4609 14.9795C12.4609 16.0132 13.2597 16.7999 14.2814 16.7999Z"/>
</svg>