<svg xmlns="http://www.w3.org/2000/svg" viewBox="8.72266 -83.1265 95.74 95.73">
  <path d="M56.5885 12.6052C83.0185 12.6052 104.466-8.83065 104.466-35.2606C104.466-61.6906 83.0185-83.1265 56.5885-83.1265C30.1705-83.1265 8.72266-61.6906 8.72266-35.2606C8.72266-8.83065 30.1705 12.6052 56.5885 12.6052ZM56.5885 8.86824C32.1734 8.86824 12.4213-10.8455 12.4213-35.2606C12.4213-59.6758 32.1734-79.3895 56.5885-79.3895C81.0036-79.3895 100.717-59.6758 100.717-35.2606C100.717-10.8455 81.0036 8.86824 56.5885 8.86824ZM46.5717-14.9125L58.5199-14.9125C66.4882-14.9125 72.4912-18.5097 72.4912-25.8669C72.4912-31.7378 68.0751-35.4333 62.3979-35.9798L62.3979-36.3799C67.0948-37.0893 70.3106-40.998 70.3106-45.5867C70.3106-51.9733 65.0815-55.4722 58.3068-55.4722L46.5717-55.4722C45.3608-55.4722 44.457-54.6187 44.457-53.3072L44.457-17.0774C44.457-15.766 45.3608-14.9125 46.5717-14.9125ZM47.694-37.2312L47.694-52.6526L57.5538-52.6526C62.7559-52.6526 67.0233-50.4052 67.0233-45.2414C67.0233-39.6678 62.3865-37.2312 56.7123-37.2312ZM47.694-17.7943L47.694-34.3733L57.4412-34.3733C63.6522-34.3733 69.1417-32.1379 69.1417-26.0396C69.1417-20.0538 63.9757-17.7943 57.99-17.7943ZM50.5366-54.0046L52.6918-54.0046L52.6918-60.3462C52.6918-60.9527 52.1956-61.4489 51.6011-61.4489C51.0328-61.4489 50.5366-60.9527 50.5366-60.3462ZM57.5418-54.0046L59.7473-54.0046L59.7473-60.3462C59.7473-60.9527 59.2511-61.4489 58.6325-61.4489C58.038-61.4489 57.5418-60.9527 57.5418-60.3462ZM50.5366-16.5813L50.5366-9.58583C50.5366-9.02958 51.0328-8.5454 51.6011-8.5454C52.1956-8.5454 52.6918-9.02958 52.6918-9.58583L52.6918-16.5813ZM57.5418-16.5813L57.5418-9.58583C57.5418-9.02958 58.038-8.5454 58.6325-8.5454C59.2511-8.5454 59.7473-9.02958 59.7473-9.58583L59.7473-16.5813Z" />
</svg>