<svg xmlns="http://www.w3.org/2000/svg" viewBox="12.4609 -84.8643 101.08 99.21">
  <path d="M16.9364 12.1644L109.078 12.1644L109.078 7.66795C109.078 6.88346 108.524 6.32945 107.678 6.32945L104.562 6.32945L104.562-55.6042L109.24-55.6042C110.532-55.6042 111.183-56.439 111.183-57.4246C111.183-58.0004 110.84-58.679 110.002-59.1707L67.9303-83.4598C66.3389-84.3921 64.6612-84.8643 63.0075-84.8643C61.3417-84.8643 59.6137-84.3921 58.0223-83.4598L15.9501-59.1707C15.1514-58.679 14.8203-58.0004 14.8203-57.4246C14.8203-56.439 15.4201-55.6042 16.7631-55.6042L21.4525-55.6042L21.4525 6.32945L18.3372 6.32945C17.4905 6.32945 16.9364 6.88346 16.9364 7.66795ZM14.2814 14.343L111.722 14.343C112.693 14.343 113.542 13.494 113.542 12.5106C113.542 11.4889 112.693 10.6901 111.722 10.6901L14.2814 10.6901C13.2597 10.6901 12.4609 11.4889 12.4609 12.5106C12.4609 13.494 13.2597 14.343 14.2814 14.343ZM52.9066-9.4042C51.6717-9.4042 50.7559-10.32 50.7559-11.6052L50.7559-48.0872C50.7559-49.3724 51.6717-50.2882 52.9066-50.2882L56.8955-50.2882L56.8955-55.1983C56.8955-55.8168 57.3917-56.313 57.96-56.313C58.5665-56.313 59.0627-55.8168 59.0627-55.1983L59.0627-50.2882L63.9488-50.2882L63.9488-55.1983C63.9488-55.8168 64.457-56.313 65.0635-56.313C65.6821-56.313 66.14-55.8168 66.14-55.1983L66.14-50.2139C72.2556-49.7417 76.8376-46.2189 76.8376-40.3307C76.8376-35.7059 73.5978-31.7491 68.8649-31.0398L68.8649-30.6397C74.5782-30.0812 79.0303-26.3736 79.0303-20.4547C79.0303-13.4593 73.5618-9.7878 66.14-9.41621L66.14-4.0918C66.14-3.48525 65.6821-2.98906 65.0635-2.98906C64.457-2.98906 63.9488-3.48525 63.9488-4.0918L63.9488-9.4042L59.0627-9.4042L59.0627-4.0918C59.0627-3.48525 58.5665-2.98906 57.96-2.98906C57.3917-2.98906 56.8955-3.48525 56.8955-4.0918L56.8955-9.4042ZM54.0529-12.3221L64.4089-12.3221C70.4307-12.3221 75.6207-14.6176 75.6207-20.6274C75.6207-26.7617 70.1072-29.0715 63.8482-29.0715L54.0529-29.0715ZM54.0529-31.9533L63.057-31.9533C68.8295-31.9533 73.4783-34.3517 73.4783-39.9613C73.4783-45.1611 69.1486-47.4326 63.9608-47.4326L54.0529-47.4326Z"/>
</svg>