<svg xmlns="http://www.w3.org/2000/svg" viewBox="12.4609 -86.0332 125.98 101.69">
  <path d="M61.9148-7.17931L60.8833-10.8202L58.96-10.8202C57.4279-10.8202 56.6247-10.5349 55.335-9.32183L38.6502 5.51197L38.6502-9.05981C38.6502-10.3022 38.1322-10.8202 36.8898-10.8202L31.148-10.8202C21.7707-10.8202 16.1018-16.5732 16.1018-25.8664L16.1018-67.3461C16.1018-76.6393 21.7707-82.4426 31.148-82.4426L97.5932-82.4426C106.769-82.4426 112.639-76.6393 112.639-67.3461L112.639-58.4756L116.28-58.4756L116.28-67.4467C116.28-78.8531 109.198-86.0332 97.6938-86.0332L31.0474-86.0332C19.5427-86.0332 12.4609-78.9657 12.4609-67.4467L12.4609-25.7658C12.4609-14.2971 19.5427-7.17931 31.0474-7.17931L35.218-7.17931L35.218 6.63952C35.218 8.41191 36.2419 9.59424 37.8034 9.59424C38.9857 9.59424 39.849 8.91562 41.0006 7.92469L58.6035-7.17931ZM73.5673 1.29425L99.6268 1.29425L114.602 14.1921C115.677 15.1207 116.579 15.6605 117.56 15.6605C119.009 15.6605 119.932 14.5787 119.932 12.9572L119.932 1.29425L123.463 1.29425C133.133 1.29425 138.442-4.00098 138.442-13.6231L138.442-45.6362C138.442-55.3086 133.133-60.6542 123.463-60.6542L73.5673-60.6542C63.8469-60.6542 58.5494-55.3086 58.5494-45.6362L58.5494-13.5225C58.5494-3.9004 63.8469 1.29425 73.5673 1.29425ZM73.9817-2.34661C66.0246-2.34661 62.1902-6.11419 62.1902-13.9872L62.2405-45.2339C62.2405-53.0948 66.0246-57.0133 73.9817-57.0133L123.01-57.0133C131.017-57.0133 134.789-53.0948 134.789-45.2339L134.789-14.138C134.789-6.22679 130.967-2.34661 123.01-2.34661L118.246-2.34661C117.275-2.34661 116.5-1.76857 116.5-0.552445L116.5 11.2622L102.535-1.0592C101.382-2.08762 100.591-2.34661 99.3655-2.34661ZM98.5019-23.1038C99.6361-23.1038 100.353-23.9213 100.377-25.2928L100.773-46.1452C100.797-47.5528 99.8734-48.4904 98.4898-48.4904C97.1446-48.4904 96.2453-47.5648 96.2693-46.1572L96.6026-25.2928C96.6266-23.9333 97.3938-23.1038 98.5019-23.1038ZM98.4898-10.6195C100.4-10.6195 101.899-12.2087 101.899-13.9803C101.899-15.8142 100.412-17.3531 98.4898-17.3531C96.6177-17.3531 95.1313-15.8022 95.1313-13.9803C95.1313-12.2207 96.6177-10.6195 98.4898-10.6195Z"/>
</svg>