<svg xmlns="http://www.w3.org/2000/svg" viewBox="12.4609 -78.4559 113.26 86.41">
  <path d="M25.6328 7.95861L66.9678 7.95861L66.9678 4.30574L25.7574 4.30574C19.4107 4.30574 16.1018 1.02088 16.1018-5.36192L16.1018-33.0934L12.4609-33.0934L12.4609-5.17725C12.4609 3.42911 17.0024 7.95861 25.6328 7.95861ZM71.3405 7.95861L112.551 7.95861C121.193 7.95861 125.723 3.32853 125.723-5.17725L125.723-33.0934L122.082-33.0934L122.082-5.36192C122.082 1.02088 118.572 4.30574 112.426 4.30574L71.3405 4.30574ZM122.082-37.4038L125.723-37.4038L125.723-65.32C125.723-73.8258 121.193-78.4559 112.551-78.4559L71.3405-78.4559L71.3405-74.803L112.426-74.803C118.572-74.803 122.082-71.5302 122.082-65.1353ZM12.4609-37.4038L16.1018-37.4038L16.1018-65.1353C16.1018-71.5302 19.4107-74.803 25.7574-74.803L66.9678-74.803L66.9678-78.4559L25.6328-78.4559C17.0024-78.4559 12.4609-73.9264 12.4609-65.32ZM69.2356-48.4047C72.7081-48.4047 75.5839-51.2685 75.5839-54.8033C75.5839-58.2759 72.7081-61.1517 69.2356-61.1517C65.7007-61.1517 62.8369-58.2759 62.8369-54.8033C62.8369-51.2685 65.7007-48.4047 69.2356-48.4047ZM49.6929-28.862C53.2157-28.862 56.0915-31.7258 56.0915-35.2606C56.0915-38.7955 53.2157-41.6593 49.6929-41.6593C46.158-41.6593 43.2942-38.7955 43.2942-35.2606C43.2942-31.7258 46.158-28.862 49.6929-28.862ZM69.2356-28.862C72.7081-28.862 75.5839-31.7258 75.5839-35.2606C75.5839-38.7955 72.7081-41.6593 69.2356-41.6593C65.7007-41.6593 62.8369-38.7955 62.8369-35.2606C62.8369-31.7258 65.7007-28.862 69.2356-28.862ZM88.7279-28.862C92.2508-28.862 95.1266-31.7258 95.1266-35.2606C95.1266-38.7955 92.2508-41.6593 88.7279-41.6593C85.1931-41.6593 82.3293-38.7955 82.3293-35.2606C82.3293-31.7258 85.1931-28.862 88.7279-28.862ZM69.2356-9.36962C72.7081-9.36962 75.5839-12.2454 75.5839-15.718C75.5839-19.2528 72.7081-22.1166 69.2356-22.1166C65.7007-22.1166 62.8369-19.2528 62.8369-15.718C62.8369-12.2454 65.7007-9.36962 69.2356-9.36962Z"/>
</svg>