<svg xmlns="http://www.w3.org/2000/svg" viewBox="12.4609 -80.4527 90.55 90.61">
  <path d="M14.2814-52.1354C15.4494-52.1354 16.1018-52.8501 16.1018-54.0182L16.1018-67.1321C16.1018-73.5149 19.4107-76.7998 25.7574-76.7998L38.9315-76.7998C40.0995-76.7998 40.7639-77.4642 40.7639-78.6202C40.7639-79.7883 40.0995-80.4527 38.9315-80.4527L25.6328-80.4527C17.0024-80.4527 12.4609-75.9232 12.4609-67.3168L12.4609-54.0182C12.4609-52.8501 13.1253-52.1354 14.2814-52.1354ZM101.187-52.1354C102.406-52.1354 103.008-52.8501 103.008-54.0182L103.008-67.3168C103.008-75.8226 98.5287-80.4527 89.836-80.4527L76.5876-80.4527C75.3693-80.4527 74.7049-79.7883 74.7049-78.6202C74.7049-77.4642 75.3693-76.7998 76.5876-76.7998L89.7114-76.7998C95.8569-76.7998 99.4173-73.5149 99.4173-67.1321L99.4173-54.0182C99.4173-52.8501 100.031-52.1354 101.187-52.1354ZM25.6328 10.1566L38.9315 10.1566C40.0995 10.1566 40.7639 9.4922 40.7639 8.33614C40.7639 7.16806 40.0995 6.50369 38.9315 6.50369L25.7574 6.50369C19.4107 6.50369 16.1018 3.21884 16.1018-3.16396L16.1018-16.2659C16.1018-17.446 15.4374-18.1606 14.2814-18.1606C13.1133-18.1606 12.4609-17.446 12.4609-16.2659L12.4609-2.97929C12.4609 5.62707 17.0024 10.1566 25.6328 10.1566ZM76.5876 10.1566L89.836 10.1566C98.5287 10.1566 103.008 5.52648 103.008-2.97929L103.008-16.2659C103.008-17.446 102.394-18.1606 101.187-18.1606C100.019-18.1606 99.4173-17.446 99.4173-16.2659L99.4173-3.16396C99.4173 3.21884 95.8569 6.50369 89.7114 6.50369L76.5876 6.50369C75.3693 6.50369 74.7049 7.16806 74.7049 8.33614C74.7049 9.4922 75.3693 10.1566 76.5876 10.1566ZM34.9005-13.3437L80.518-13.3437C84.9589-13.3437 87.3483-15.709 87.3483-20.1882L87.3483-46.7007C87.3483-51.1919 84.9589-53.5572 80.518-53.5572L73.0662-53.5572C70.9959-53.5572 70.5238-53.6413 69.1125-55.1772L66.8913-57.5973C65.4944-59.0565 64.5883-59.5145 62.1344-59.5145L52.6183-59.5145C50.277-59.5145 49.208-59.1068 47.8734-57.5973L45.6905-55.1772C44.3678-53.7036 43.8071-53.5572 41.6865-53.5572L34.9005-53.5572C30.4476-53.5572 28.1205-51.1919 28.1205-46.7007L28.1205-20.1882C28.1205-15.709 30.4476-13.3437 34.9005-13.3437ZM57.7776-19.0832C49.6157-19.0832 43.0737-25.5629 43.0737-33.7751C43.0737-41.925 49.6157-48.455 57.7776-48.455C65.8772-48.455 72.4072-41.925 72.4072-33.7751C72.4072-25.5269 65.8772-19.0832 57.7776-19.0832ZM57.7656-21.5815C64.4051-21.5815 69.8466-26.9607 69.8466-33.7751C69.8466-40.4649 64.4051-45.9447 57.7656-45.9447C51.0134-45.9447 45.6222-40.4649 45.6222-33.7751C45.6222-26.9607 51.0134-21.5815 57.7656-21.5815ZM78.2518-42.1689C76.773-42.1689 75.6177-43.3242 75.6177-44.803C75.6177-46.2698 76.773-47.3868 78.2518-47.3868C79.6683-47.3868 80.8356-46.2698 80.8356-44.803C80.8356-43.3242 79.6683-42.1689 78.2518-42.1689Z"/>
</svg>