<svg xmlns="http://www.w3.org/2000/svg" viewBox="12.4609 -92.705 99.57 114.89">
  <path d="M112.03-58.724L112.03-80.6192C112.03-82.4674 110.491-83.0837 109.093-82.2302L91.5328-71.4755C90.1208-70.5957 90.0585-68.7476 91.5328-67.8175L109.043-57.1754C110.44-56.3219 112.03-56.9262 112.03-58.724ZM49.6451 22.1837C69.9573 22.1837 80.5754 16.9141 80.5754 6.70579L80.5754-73.5413C80.5754-85.7929 69.4431-92.705 49.6451-92.705C29.9477-92.705 18.8154-85.7929 18.8154-73.5413L18.8154 6.70579C18.8154 16.9141 29.4334 22.1837 49.6451 22.1837ZM49.6451 18.4828C31.9257 18.4828 22.478 14.3978 22.478 6.60969L22.478-73.5413C22.478-83.4065 32.2959-88.9921 49.6451-88.9921C67.1069-88.9921 76.9128-83.4065 76.9128-73.5413L76.9128 6.60969C76.9128 14.3978 67.477 18.4828 49.6451 18.4828ZM49.6954-44.7558C53.7287-44.7558 62.0002-44.3317 64.3918-44.3317C67.9169-44.3317 69.6374-45.7144 69.9489-49.5652L70.608-57.1988C71.1807-63.8106 67.9348-66.9543 49.6954-66.9543C31.4559-66.9543 28.2603-63.8106 28.8331-57.1988L29.5042-49.5652C29.8157-45.7144 31.5242-44.3317 35.0613-44.3317C37.4409-44.3317 44.6562-44.7558 49.6954-44.7558ZM49.6954 6.6749C66.0432 6.6749 70.8002 4.38388 70.081-2.31427L69.6974-6.49845C69.1389-11.9768 64.5569-13.8196 49.6954-13.8196C34.8842-13.8196 30.3141-11.9768 29.7436-6.49845L29.3097-2.31427C28.6529 4.38388 33.3475 6.6749 49.6954 6.6749ZM20.6928-50.8067L20.6928-59.2968L15.8742-59.2968C13.8369-59.2968 12.4609-58.122 12.4609-56.3361L12.4609-53.7674C12.4609-52.0318 13.8369-50.8067 15.8742-50.8067ZM78.7482-50.8067L83.5668-50.8067C85.6041-50.8067 86.9801-52.0318 86.9801-53.7674L86.9801-56.3361C86.9801-58.122 85.6041-59.2968 83.5668-59.2968L78.7482-59.2968Z"/>
</svg>