<svg xmlns="http://www.w3.org/2000/svg" viewBox="5.13525 -88.5502 104.33 104.13">
  <path d="M106.166 14.8994C106.83 15.5637 108.025 15.5758 108.689 14.8994C109.466 14.1224 109.416 13.0527 108.689 12.326L8.58986-87.7732C7.91349-88.4496 6.76943-88.5502 6.04276-87.7732C5.32811-87.0585 5.32811-85.9145 6.04276-85.2501ZM39.2481 4.88232C43.8302 12.9009 53.5106 12.2636 67.4174 4.233C70.5387 2.49969 73.106 0.701833 75.2439-1.03372L72.8169-3.523C70.9477-1.95786 68.5891-0.457271 65.693 1.27604C53.5827 8.2609 45.6791 9.17144 42.1548 3.16023L11.016-50.812C8.61468-54.9294 9.81959-59.2382 12.9926-63.2729L10.5296-65.6857C5.61415-59.9783 5.13525-54.2042 8.07334-49.15L13.5629-39.6805L11.8424-38.6956C10.239-37.7633 9.76679-36.2769 10.5362-34.937L11.5856-33.1016C12.3551-31.7737 13.9157-31.4667 15.4951-32.411L17.2156-33.3576ZM13.5119 12.4085L15.02 12.4085C15.6942 12.4085 16.1213 11.9814 16.1213 11.3072L16.1213-12.4405C16.1213-13.0643 15.6942-13.5418 15.02-13.5418L13.5119-13.5418C12.8881-13.5418 12.4106-13.0643 12.4106-12.4405L12.4106 11.3072C12.4106 11.9814 12.8881 12.4085 13.5119 12.4085ZM43.4016-4.46576C45.6348 0.619201 50.0246 0.257385 61.3152-6.20501C63.4779-7.52846 65.2255-8.61694 66.6202-9.71968L54.642-21.6476C54.1668-21.4149 53.5812-21.0718 52.9236-20.707C42.6757-14.7648 40.2435-11.621 42.0406-7.47064ZM31.0428-35.4235C33.2318-36.8333 35.0123-37.9405 37.0331-39.1821L24.2562-52.0214C19.1149-47.9258 19.066-45.1003 21.3811-41.8267L24.8056-36.8828C26.6147-34.2375 28.4358-33.9763 31.0428-35.4235ZM56.2349-64.3126L50.7956-73.7438C47.1369-80.0501 40.2249-81.7638 31.2622-78.8228L32.795-77.2518C39.4554-79.4384 44.2932-78.2696 46.8439-73.9347L65.332-44.777L71.0369-39.0722L60.0415-58.1098L61.5195-58.9986C63.123-59.9309 63.6071-61.367 62.8257-62.6949L61.7643-64.48C60.9828-65.8079 59.4965-66.1915 57.9051-65.2592ZM104.539-13.4915C104.117-13.4915 103.784-13.2423 103.7-12.8684L103.7-6.40922L107.16-2.94854L107.16-12.3902C107.16-13.014 106.733-13.4915 106.059-13.4915ZM104.539-22.6556L106.059-22.6556C106.733-22.6556 107.16-23.133 107.16-23.7448L107.16-47.4805C107.16-48.1044 106.733-48.5818 106.059-48.5818L104.539-48.5818C103.927-48.5818 103.45-48.1044 103.45-47.4805L103.45-23.7448C103.45-23.133 103.927-22.6556 104.539-22.6556ZM104.539-57.7962L106.059-57.7962C106.733-57.7962 107.16-58.2234 107.16-58.8975L107.16-82.5949C107.16-83.269 106.733-83.6962 106.059-83.6962L104.539-83.6962C103.927-83.6962 103.45-83.269 103.45-82.5949L103.45-58.8975C103.45-58.2234 103.927-57.7962 104.539-57.7962Z"/>
</svg>