<svg xmlns="http://www.w3.org/2000/svg" viewBox="8.72266 -82.3428 112.78 94.03">
  <path d="M8.72266-25.9457C8.72266-12.0705 13.8054 0.709488 22.164 10.5491C23.1106 11.6826 24.6802 11.6323 25.8017 10.5612L35.9656 0.447465C36.9145-0.489349 36.9265-1.73769 36.0903-2.79911C30.9332-9.16171 27.9426-17.211 27.9426-25.9457C27.9426-45.071 42.359-60.8318 60.8613-62.948C62.2199-63.0726 63.1545-64.1197 63.1545-65.4281L63.1545-79.6134C63.1545-81.171 61.9707-82.3428 60.4131-82.1679C31.5292-79.8026 8.72266-55.527 8.72266-25.9457ZM121.503-25.9457C121.503-55.527 98.7583-79.8026 69.8121-82.1679C68.2545-82.3428 67.0707-81.171 67.0707-79.6134L67.0707-65.4281C67.0707-64.1197 68.0053-63.0726 69.4143-62.948C87.8662-60.8318 102.295-45.071 102.295-25.9457C102.295-17.211 99.304-9.16171 94.135-2.79911C93.3108-1.73769 93.3228-0.489349 94.2596 0.447465L104.474 10.5612C105.595 11.6323 107.215 11.6323 108.212 10.4486C116.482 0.608903 121.503-12.1208 121.503-25.9457ZM65.5559-4.88592C72.2781-4.88592 78.7052-8.07547 80.6825-14.378C80.9437-15.1257 81.1186-15.7224 81.1186-16.4821C81.1186-17.3837 80.5-18.0405 79.6105-18.0405C78.7329-18.0405 78.1624-17.5203 77.9537-16.6548C76.7219-11.1225 71.709-7.87813 65.5559-7.87813C55.7793-7.87813 51.1883-15.9034 51.1883-25.6582C51.1883-35.3364 55.8897-43.2251 65.5439-43.2251C71.7112-43.2251 76.7504-39.152 77.7308-34.1347C77.9515-33.2691 78.3591-32.7609 79.3372-32.7609C80.2651-32.7609 80.8956-33.4058 80.8956-34.4079C80.8956-34.9619 80.735-35.645 80.4497-36.4287C78.4004-42.4985 72.4357-46.2173 65.5439-46.2173C53.986-46.2173 47.8027-37.4248 47.8027-25.6582C47.8027-14.0402 53.7893-4.88592 65.5559-4.88592ZM65.1318 0.92267C65.7766 0.92267 66.1722 0.476769 66.1722-0.129777L66.1722-50.5711C66.1722-51.2159 65.7766-51.6235 65.1318-51.6235C64.4749-51.6235 64.029-51.2159 64.029-50.5711L64.029-0.129777C64.029 0.464757 64.4749 0.92267 65.1318 0.92267Z"/>
</svg>