<svg xmlns="http://www.w3.org/2000/svg" viewBox="12.4609 -88.8652 67.51 108.43">
  <path d="M48.4769 6.88966C62.5555 6.88966 75.0698 0.494061 79.1106-13.002C79.5707-14.2098 79.9708-16.3687 79.9708-17.3251C79.9708-18.6516 79.2749-19.4668 77.98-19.4668C76.8885-19.4668 76.1978-18.7784 75.9051-17.5721C73.846-4.46418 62.4 3.07086 48.4889 3.07086C27.0487 3.07086 16.8938-14.1169 16.8938-35.7756C16.8938-57.1415 27.0652-73.5922 48.4769-73.5922C61.9181-73.5922 73.4624-65.1278 75.7106-51.9697C76.0034-50.7513 76.5694-50.1372 77.7856-50.1372C79.0782-50.1372 79.7261-50.9742 79.7261-52.2166C79.7261-53.3862 79.4266-54.7786 78.9664-56.2499C74.9999-69.5538 62.4834-77.4995 48.4769-77.4995C24.6449-77.4995 12.4609-59.7779 12.4609-35.7756C12.4609-11.5886 24.482 6.88966 48.4769 6.88966ZM47.5783 19.563C48.5137 19.563 49.1923 18.8461 49.1923 17.8604L49.1923-87.1507C49.1923-88.2084 48.4679-88.8652 47.5783-88.8652C46.7128-88.8652 45.9884-88.2084 45.9884-87.1507L45.9884 17.8604C45.9884 18.8941 46.6768 19.563 47.5783 19.563Z"/>
</svg>