<svg xmlns="http://www.w3.org/2000/svg" viewBox="12.4609 -85.7996 101.71 101.05">
  <path d="M25.6328 15.2543L101.002 15.2543C109.632 15.2543 114.174 10.6363 114.174 2.13048L114.174-49.1215C114.174-57.6655 109.632-62.2453 101.002-62.2453L25.6328-62.2453C16.9904-62.2453 12.4609-57.7781 12.4609-49.1215L12.4609 2.13048C12.4609 10.7368 16.9904 15.2543 25.6328 15.2543ZM23.1315-71.293L103.477-71.293C103.347-73.2838 102.148-74.7176 100.061-74.7176L26.5975-74.7176C24.4483-74.7176 23.2997-73.2838 23.1315-71.293ZM32.3939-82.5191L94.2527-82.5191C94.1807-84.3876 92.9721-85.7996 90.9189-85.7996L35.7278-85.7996C33.6866-85.7996 32.466-84.3876 32.3939-82.5191ZM58.08-0.161986C57.255-0.161986 56.7535-0.457009 56.1635-1.19345L41.5572-18.2131C41.1999-18.6807 40.9529-19.2227 40.9529-19.7647C40.9529-20.8104 41.8282-21.6092 42.7734-21.6092C43.476-21.6092 43.9677-21.3502 44.4834-20.7001L57.9816-4.91536L82.534-43.15C82.9897-43.7881 83.5677-44.2077 84.2081-44.2077C85.1292-44.2077 86.0766-43.3805 86.0766-42.4233C86.0766-41.9819 85.8318-41.4279 85.5991-41.0608L59.9364-1.19345C59.4185-0.531326 58.8044-0.161986 58.08-0.161986Z"/>
</svg>