<svg xmlns="http://www.w3.org/2000/svg" viewBox="12.4609 -80.5742 64.45 90.63">
  <path d="M44.6942-80.5742C43.9653-80.5742 43.373-80.2147 42.8671-79.7087L13.1396-50.8249C12.6816-50.355 12.4609-49.8873 12.4609-49.3115C12.4609-48.244 13.2957-47.4596 14.4135-47.4596C14.8429-47.4596 15.3969-47.6202 15.8766-48.0496L44.6942-76.2682L73.4999-48.0496C73.9796-47.5819 74.4953-47.4596 74.975-47.4596C76.0425-47.4596 76.9155-48.244 76.9155-49.3115C76.9155-49.8873 76.7068-50.355 76.2369-50.8249L46.5214-79.7087C45.9531-80.2147 45.4111-80.5742 44.6942-80.5742ZM44.6942 10.0529C45.4111 10.0529 45.9531 9.69337 46.5214 9.18741L76.2369-19.6964C76.7068-20.1663 76.9155-20.634 76.9155-21.2098C76.9155-22.2772 76.0425-23.0617 74.975-23.0617C74.4953-23.0617 73.9796-22.9394 73.4999-22.4717L44.6942 5.74693L15.8766-22.4717C15.3969-22.9011 14.8429-23.0617 14.4135-23.0617C13.2957-23.0617 12.4609-22.2772 12.4609-21.2098C12.4609-20.634 12.6816-20.1663 13.1396-19.6964L42.8671 9.18741C43.373 9.69337 43.9653 10.0529 44.6942 10.0529Z"/>
</svg>