<svg xmlns="http://www.w3.org/2000/svg" viewBox="12.4609 -84.8643 101.08 99.21">
  <path d="M16.9364 6.95184L109.078 6.95184L109.078 4.99782C109.078 4.16304 108.524 3.65933 107.678 3.65933L104.562 3.65933L104.562-55.6042L109.24-55.6042C110.532-55.6042 111.183-56.439 111.183-57.4246C111.183-58.0004 110.84-58.679 110.002-59.1707L67.9303-83.4598C66.3389-84.3921 64.6612-84.8643 63.0075-84.8643C61.3417-84.8643 59.6137-84.3921 58.0223-83.4598L15.9501-59.1707C15.1514-58.679 14.8203-58.0004 14.8203-57.4246C14.8203-56.439 15.4201-55.6042 16.7631-55.6042L21.4525-55.6042L21.4525 3.65933L18.3372 3.65933C17.4905 3.65933 16.9364 4.16304 16.9364 4.99782ZM24.9852 3.65933L24.9852-60.1202L60.0679-80.0779C60.9687-80.5906 61.9941-80.8781 63.0075-80.8781C64.0088-80.8781 64.9839-80.5906 65.8847-80.0779L101.042-60.1202L101.042 3.65933ZM14.2814 14.343L111.722 14.343C112.693 14.343 113.542 13.494 113.542 12.5106C113.542 11.4889 112.693 10.6901 111.722 10.6901L14.2814 10.6901C13.2597 10.6901 12.4609 11.4889 12.4609 12.5106C12.4609 13.494 13.2597 14.343 14.2814 14.343ZM63.0075-12.891C63.921-12.891 64.6139-13.5959 64.6139-14.5718L64.6139-31.2904L78.6084-53.1406C78.8051-53.4597 78.9418-53.7329 78.9418-54.1526C78.9418-55.0804 78.1625-55.6607 77.3233-55.6607C76.6544-55.6607 76.1988-55.2891 75.8272-54.7208L63.1321-34.357L62.8949-34.357L50.1877-54.7208C49.8162-55.2891 49.4085-55.6727 48.6796-55.6727C47.7398-55.6727 47.1235-55.0421 47.1235-54.1526C47.1235-53.781 47.2481-53.3974 47.4448-52.9898L61.3387-31.2904L61.3387-14.5718C61.3387-13.5959 62.0436-12.891 63.0075-12.891ZM50.7536-32.0839C50.7536-31.5276 51.2618-31.0194 51.8061-31.0194L74.6495-31.0194C75.256-31.0194 75.7642-31.5276 75.7642-32.0839C75.7642-32.6784 75.256-33.1866 74.6495-33.1866L51.8061-33.1866C51.2618-33.1866 50.7536-32.6784 50.7536-32.0839ZM50.7536-24.4294C50.7536-23.8229 51.2618-23.3146 51.8061-23.3146L74.6495-23.3146C75.256-23.3146 75.7642-23.8229 75.7642-24.4294C75.7642-25.0239 75.256-25.5321 74.6495-25.5321L51.8061-25.5321C51.2618-25.5321 50.7536-25.0239 50.7536-24.4294Z"/>
</svg>