<svg xmlns="http://www.w3.org/2000/svg" viewBox="8.72266 -83.1265 95.74 95.73">
  <path d="M28.7497-31.1237L56.5765-31.1237C57.5501-31.1237 58.3271-31.8504 58.3271-32.8623L58.3271-68.7715C58.3271-69.7451 57.5501-70.4215 56.5765-70.4215C55.7154-70.4215 54.9385-69.7451 54.9385-68.7715L54.9385-34.5123L28.7497-34.5123C27.7257-34.5123 27.0614-33.7354 27.0614-32.8623C27.0614-31.8504 27.7257-31.1237 28.7497-31.1237ZM56.5885 12.6052C83.0185 12.6052 104.466-8.83065 104.466-35.2606C104.466-61.6906 83.0185-83.1265 56.5885-83.1265C30.1705-83.1265 8.72266-61.6906 8.72266-35.2606C8.72266-8.83065 30.1705 12.6052 56.5885 12.6052ZM56.5885 8.86824C32.1734 8.86824 12.4213-10.8455 12.4213-35.2606C12.4213-59.6758 32.1734-79.3895 56.5885-79.3895C81.0036-79.3895 100.717-59.6758 100.717-35.2606C100.717-10.8455 81.0036 8.86824 56.5885 8.86824Z"/>
</svg>