<svg xmlns="http://www.w3.org/2000/svg" viewBox="8.72266 -88.514 109.55 110.34">
  <path d="M30.1255-16.8643L91.5046-16.8643C106.609-16.8643 118.27-28.245 118.27-42.5421C118.27-57.1102 106.039-67.8822 90.1962-67.8822C84.0903-80.3979 73.5195-88.514 58.67-88.514C41.0588-88.514 26.5868-74.1216 25.0675-55.9909C15.9808-53.5873 8.72266-46.3907 8.72266-36.199C8.72266-25.5802 16.6046-16.8643 30.1255-16.8643ZM29.4177 6.8205L37.0203-6.3122C37.6029-7.24004 37.3559-8.15362 36.5406-8.64757C35.7637-9.02892 34.9004-8.78194 34.3059-7.85411L26.6912 5.24031C26.2213 6.19441 26.3677 7.12001 27.1949 7.55165C28.0102 8.03359 28.8975 7.72431 29.4177 6.8205ZM40.9463 20.6139L56.548-6.3745C57.1305-7.29033 56.8835-8.20391 56.0803-8.68585C55.3274-9.0672 54.428-8.83224 53.8455-7.9044L38.2799 19.0096C37.798 19.9878 37.9443 20.9134 38.7596 21.345C39.5628 21.8269 40.4261 21.5297 40.9463 20.6139ZM68.2838 6.80848L75.8864-6.27392C76.469-7.24004 76.222-8.16563 75.4068-8.65958C74.6298-9.04093 73.7665-8.79396 73.172-7.86612L65.5693 5.2283C65.0874 6.1824 65.2338 7.108 66.0611 7.53964C66.8763 8.02158 67.7636 7.7123 68.2838 6.80848ZM79.8124 20.6018L95.4141-6.33622C95.9966-7.30234 95.7496-8.20391 94.9464-8.69786C94.1935-9.07921 93.3062-8.84425 92.7116-7.91641L77.146 18.9976C76.6641 19.9758 76.8105 20.9014 77.6257 21.333C78.4289 21.8149 79.2922 21.5177 79.8124 20.6018Z" />
</svg>