<svg xmlns="http://www.w3.org/2000/svg" viewBox="8.72266 -88.514 109.55 114.72">
  <path d="M30.1255-16.8643L91.5046-16.8643C106.609-16.8643 118.27-28.245 118.27-42.5421C118.27-57.1102 106.039-67.8822 90.1962-67.8822C84.0903-80.3979 73.5195-88.514 58.67-88.514C41.0588-88.514 26.5868-74.1216 25.0675-55.9909C15.9808-53.5873 8.72266-46.3907 8.72266-36.199C8.72266-25.5802 16.6046-16.8643 30.1255-16.8643ZM34.4545 7.8872C35.2885 7.8872 35.7224 7.16581 35.7104 6.38212L35.5377 1.24238L39.8292 3.90947C40.5769 4.35761 41.3966 4.30956 41.8447 3.6122C42.2426 2.91484 41.8928 2.17167 41.0971 1.73554L36.6832-0.648542L41.1091-3.04463C41.8928-3.48077 42.2306-4.21192 41.8567-4.95958C41.4206-5.66895 40.5769-5.6547 39.8292-5.20655L35.5377-2.47716L35.7224-7.62891C35.7464-8.47491 35.2885-9.18428 34.4545-9.18428C33.5965-9.18428 33.1626-8.47491 33.1746-7.62891L33.3473-2.47716L29.0438-5.20655C28.3081-5.6547 27.4884-5.68097 27.0905-4.95958C26.6544-4.21192 27.0305-3.44249 27.7759-3.04463L32.24-0.648542L27.7759 1.78583C26.9802 2.22196 26.6424 2.90282 27.0282 3.6122C27.4644 4.37187 28.3081 4.40791 29.0438 3.95976L33.3473 1.29267L33.1866 6.38212C33.1746 7.16581 33.5965 7.8872 34.4545 7.8872ZM61.4947 7.8872C62.3287 7.8872 62.7626 7.16581 62.7506 6.38212L62.5779 1.24238L66.8694 3.90947C67.6171 4.35761 68.4368 4.30956 68.885 3.6122C69.2828 2.91484 68.933 2.17167 68.1373 1.73554L63.7234-0.648542L68.1493-3.04463C68.933-3.48077 69.2708-4.21192 68.897-4.95958C68.4608-5.66895 67.6171-5.6547 66.8694-5.20655L62.5779-2.47716L62.7626-7.62891C62.7866-8.47491 62.3287-9.18428 61.4947-9.18428C60.6367-9.18428 60.2028-8.47491 60.2148-7.62891L60.3875-2.47716L56.084-5.20655C55.3483-5.6547 54.5286-5.68097 54.1308-4.95958C53.6946-4.21192 54.0707-3.44249 54.8161-3.04463L59.2803-0.648542L54.8161 1.78583C54.0204 2.22196 53.6826 2.90282 54.0685 3.6122C54.5046 4.37187 55.3483 4.40791 56.084 3.95976L60.3875 1.29267L60.2269 6.38212C60.2148 7.16581 60.6367 7.8872 61.4947 7.8872ZM88.535 7.8872C89.3689 7.8872 89.8028 7.16581 89.7908 6.38212L89.6182 1.24238L93.9097 3.90947C94.6573 4.35761 95.477 4.30956 95.9252 3.6122C96.323 2.91484 95.9732 2.17167 95.1775 1.73554L90.7637-0.648542L95.1896-3.04463C95.9732-3.48077 96.311-4.21192 95.9372-4.95958C95.5011-5.66895 94.6573-5.6547 93.9097-5.20655L89.6182-2.47716L89.8028-7.62891C89.8269-8.47491 89.3689-9.18428 88.535-9.18428C87.677-9.18428 87.2431-8.47491 87.2551-7.62891L87.4277-2.47716L83.1242-5.20655C82.3886-5.6547 81.5688-5.68097 81.171-4.95958C80.7349-4.21192 81.1109-3.44249 81.8563-3.04463L86.3205-0.648542L81.8563 1.78583C81.0606 2.22196 80.7229 2.90282 81.1087 3.6122C81.5448 4.37187 82.3886 4.40791 83.1242 3.95976L87.4277 1.29267L87.2671 6.38212C87.2551 7.16581 87.677 7.8872 88.535 7.8872ZM23.8627 26.2048C24.6967 26.2048 25.1306 25.4834 25.1186 24.6997L24.9459 19.56L29.2374 22.227C29.9851 22.6752 30.8048 22.6271 31.2529 21.9298C31.6508 21.2324 31.301 20.4892 30.5053 20.0531L26.0914 17.669L30.5173 15.2729C31.301 14.8368 31.6388 14.1057 31.2649 13.358C30.8288 12.6486 29.9851 12.6629 29.2374 13.111L24.9459 15.8404L25.1306 10.6887C25.1546 9.84267 24.6967 9.13329 23.8627 9.13329C23.0047 9.13329 22.5708 9.84267 22.5828 10.6887L22.7555 15.8404L18.452 13.111C17.7163 12.6629 16.8966 12.6366 16.4987 13.358C16.0626 14.1057 16.4387 14.8751 17.1841 15.2729L21.6482 17.669L17.1841 20.1034C16.3884 20.5395 16.0506 21.2204 16.4364 21.9298C16.8726 22.6894 17.7163 22.7255 18.452 22.2773L22.7555 19.6102L22.5948 24.6997C22.5828 25.4834 23.0047 26.2048 23.8627 26.2048ZM50.9029 26.2048C51.7369 26.2048 52.1708 25.4834 52.1588 24.6997L51.9861 19.56L56.2776 22.227C57.0253 22.6752 57.845 22.6271 58.2932 21.9298C58.691 21.2324 58.3412 20.4892 57.5455 20.0531L53.1316 17.669L57.5575 15.2729C58.3412 14.8368 58.679 14.1057 58.3052 13.358C57.869 12.6486 57.0253 12.6629 56.2776 13.111L51.9861 15.8404L52.1708 10.6887C52.1948 9.84267 51.7369 9.13329 50.9029 9.13329C50.0449 9.13329 49.611 9.84267 49.623 10.6887L49.7957 15.8404L45.4922 13.111C44.7565 12.6629 43.9368 12.6366 43.539 13.358C43.1028 14.1057 43.4789 14.8751 44.2243 15.2729L48.6885 17.669L44.2243 20.1034C43.4286 20.5395 43.0908 21.2204 43.4767 21.9298C43.9128 22.6894 44.7565 22.7255 45.4922 22.2773L49.7957 19.6102L49.6351 24.6997C49.623 25.4834 50.0449 26.2048 50.9029 26.2048ZM77.9432 26.2048C78.7771 26.2048 79.211 25.4834 79.199 24.6997L79.0264 19.56L83.3179 22.227C84.0655 22.6752 84.8853 22.6271 85.3334 21.9298C85.7313 21.2324 85.3814 20.4892 84.5857 20.0531L80.1719 17.669L84.5978 15.2729C85.3814 14.8368 85.7192 14.1057 85.3454 13.358C84.9093 12.6486 84.0655 12.6629 83.3179 13.111L79.0264 15.8404L79.211 10.6887C79.2351 9.84267 78.7771 9.13329 77.9432 9.13329C77.0852 9.13329 76.6513 9.84267 76.6633 10.6887L76.8359 15.8404L72.5324 13.111C71.7968 12.6629 70.9771 12.6366 70.5792 13.358C70.1431 14.1057 70.5191 14.8751 71.2646 15.2729L75.7287 17.669L71.2646 20.1034C70.4688 20.5395 70.1311 21.2204 70.5169 21.9298C70.953 22.6894 71.7968 22.7255 72.5324 22.2773L76.8359 19.6102L76.6753 24.6997C76.6633 25.4834 77.0852 26.2048 77.9432 26.2048Z"/>
</svg>