<svg xmlns="http://www.w3.org/2000/svg" viewBox="8.72266 -83.1265 95.74 95.73">
  <path d="M56.5885 12.6052C83.0185 12.6052 104.466-8.83065 104.466-35.2606C104.466-61.6906 83.0185-83.1265 56.5885-83.1265C30.1705-83.1265 8.72266-61.6906 8.72266-35.2606C8.72266-8.83065 30.1705 12.6052 56.5885 12.6052ZM56.5885 8.86824C32.1734 8.86824 12.4213-10.8455 12.4213-35.2606C12.4213-59.6758 32.1734-79.3895 56.5885-79.3895C81.0036-79.3895 100.717-59.6758 100.717-35.2606C100.717-10.8455 81.0036 8.86824 56.5885 8.86824ZM34.1431-23.2073L60.6856-23.2073C67.5173-23.2073 72.8417-28.4312 72.8417-34.9491C72.8417-41.3808 67.5556-46.2788 60.4866-46.504C57.6184-51.8044 52.8569-55.3865 46.5312-55.3865C38.7889-55.3865 32.307-49.1133 31.4467-41.2321C27.3924-39.986 24.2967-36.7462 24.2967-32.1552C24.2967-27.2354 28.071-23.2073 34.1431-23.2073ZM35.3562-10.9371L38.9285-17.121C39.3264-17.7538 39.0652-18.5615 38.3821-18.9714C37.7613-19.331 36.9798-19.108 36.594-18.4369L32.9713-12.3033C32.5855-11.6443 32.8347-10.8005 33.5058-10.4147C34.1386-10.0551 34.9704-10.266 35.3562-10.9371ZM41.4478-6.81222L44.4429-12.0285C44.8408-12.6996 44.6418-13.5816 43.8964-13.8909C43.2636-14.1762 42.4559-14.0275 42.046-13.3947L39.0389-8.19045C38.629-7.50734 38.9023-6.68761 39.5974-6.28976C40.2182-5.98048 41.0499-6.15313 41.4478-6.81222ZM50.9301-10.8989L54.4905-17.0707C54.9003-17.7035 54.6271-18.5112 53.956-18.9211C53.3232-19.2807 52.4914-19.0697 52.1439-18.3986L48.5453-12.2651C48.1474-11.606 48.3846-10.7622 49.0797-10.3644C49.7246-10.0168 50.5323-10.2278 50.9301-10.8989ZM57.0097-6.76193L60.0168-11.9782C60.4027-12.6493 60.2038-13.4931 59.4704-13.8406C58.8375-14.1259 58.0178-13.9773 57.62-13.3444L54.6128-8.14015C54.203-7.45705 54.4762-6.6253 55.1713-6.23946C55.7921-5.93018 56.6119-6.10284 57.0097-6.76193ZM89.3952-47.1706C89.3952-47.7531 89.11-48.1367 88.6138-48.1367C87.782-48.1367 85.2688-46.9935 82.5702-46.9935C76.0313-46.9935 71.7495-51.026 71.7495-57.2294C71.7495-60.3709 73.1037-62.7024 73.1037-63.5582C73.1037-64.1047 72.6316-64.4522 71.7593-64.3517C65.4726-63.535 61.4047-56.7663 61.2245-50.3272C61.4955-49.9556 61.7808-49.5097 62.0398-49.0758C69.3557-48.3041 74.9151-43.0465 75.4375-36.0804C85.4047-37.5081 89.3952-44.0666 89.3952-47.1706Z" />
</svg>