<svg xmlns="http://www.w3.org/2000/svg" viewBox="8.72266 -92.5579 74.64 104.74">
  <path d="M40.4493 12.1811C59.4628 12.1811 72.176-0.220594 72.176-18.7356C72.176-26.6904 68.9429-36.1825 64.6402-45.4351C59.5072-56.5426 52.3031-68.4939 45.1883-79.4092C43.9227-81.3579 42.5467-82.4246 40.4493-82.4246C38.2897-82.4246 36.976-81.3579 35.7224-79.4092C28.6076-68.4939 21.3412-56.5426 16.2082-45.4351C11.9558-36.1825 8.72266-26.6904 8.72266-18.7356C8.72266-0.220594 21.4358 12.1811 40.4493 12.1811ZM40.4493 8.4156C23.6376 8.4156 12.4881-2.42238 12.4881-18.7356C12.4881-25.9037 15.5028-34.5993 19.6306-43.5884C24.7854-54.8355 31.8116-66.2846 38.9045-77.0437C39.7835-78.3994 41.1775-78.3994 41.9559-77.0437C49.0871-66.2846 56.087-54.8355 61.2058-43.5884C65.3839-34.5993 68.4105-25.9037 68.4105-18.7356C68.4105-2.42238 57.261 8.4156 40.4493 8.4156ZM70.8047-67.4526C77.8677-67.4526 83.3633-72.9865 83.3633-79.9992C83.3633-87.024 77.8677-92.5579 70.8047-92.5579C63.8422-92.5579 58.3466-87.024 58.3466-79.9992C58.3466-72.9865 63.8422-67.4526 70.8047-67.4526ZM70.8047-70.8653C65.7392-70.8653 61.7713-74.8955 61.7713-79.9992C61.7713-85.115 65.7392-89.1452 70.8047-89.1452C75.9707-89.1452 79.9506-85.115 79.9506-79.9992C79.9506-74.8955 75.9707-70.8653 70.8047-70.8653Z"/>
</svg>