<svg xmlns="http://www.w3.org/2000/svg" viewBox="8.72266 -83.1265 95.74 95.73">
  <path d="M56.5885 12.6052C83.0185 12.6052 104.466-8.83065 104.466-35.2606C104.466-61.6906 83.0185-83.1265 56.5885-83.1265C30.1705-83.1265 8.72266-61.6906 8.72266-35.2606C8.72266-8.83065 30.1705 12.6052 56.5885 12.6052ZM56.5885 8.86824C32.1734 8.86824 12.4213-10.8455 12.4213-35.2606C12.4213-59.6758 32.1734-79.3895 56.5885-79.3895C81.0036-79.3895 100.717-59.6758 100.717-35.2606C100.717-10.8455 81.0036 8.86824 56.5885 8.86824ZM44.7942-13.6432L68.4647-13.6432C69.5772-13.6432 70.1289-14.3721 70.1289-15.2954C70.1289-16.2428 69.5772-16.9477 68.4647-16.9477L46.7655-16.9477L46.7655-34.2149L67.3192-34.2149C68.4317-34.2149 68.9714-34.8838 68.9714-35.8191C68.9714-36.7545 68.4317-37.4474 67.3192-37.4474L46.7655-37.4474L46.7655-53.6389L68.4647-53.6389C69.5772-53.6389 70.1289-54.4061 70.1289-55.2912C70.1289-56.2769 69.5772-56.9435 68.4647-56.9435L44.7942-56.9435C43.6381-56.9435 43.036-56.1447 43.036-54.9143L43.036-15.7226C43.036-14.4922 43.6381-13.6432 44.7942-13.6432Z" />
</svg>