<svg xmlns="http://www.w3.org/2000/svg" viewBox="8.72266 -92.5511 78.98 114.58">
  <path d="M48.2735-25.2011C66.6519-25.2011 81.9796-40.4665 81.9796-58.8952C81.9796-77.2354 66.5896-92.5511 48.2112-92.5511C29.7824-92.5511 14.5673-77.2354 14.5673-58.8952C14.5673-40.4665 29.8447-25.2011 48.2735-25.2011ZM48.2735-28.6738C31.4302-28.6738 18.052-42.052 18.052-58.8952C18.052-75.6882 31.3799-89.0784 48.2112-89.0784C65.0041-89.0784 78.5069-75.6379 78.5069-58.8952C78.5069-42.052 65.0664-28.6738 48.2735-28.6738ZM35.6496-61.4115C40.035-61.4115 43.4978-64.824 43.4978-69.2093C43.4978-73.5947 40.035-77.0575 35.6496-77.0575C31.2643-77.0575 27.8015-73.5947 27.8015-69.2093C27.8015-64.824 31.2643-61.4115 35.6496-61.4115ZM60.7727-61.4115C65.158-61.4115 68.6208-64.824 68.6208-69.2093C68.6208-73.5947 65.158-77.0575 60.7727-77.0575C56.3873-77.0575 52.9245-73.5947 52.9245-69.2093C52.9245-64.824 56.3873-61.4115 60.7727-61.4115ZM30.4333-44.1178C33.5486-44.1178 36.0408-46.61 36.0408-49.7252C36.0408-52.8405 33.5486-55.3327 30.4333-55.3327C27.3181-55.3327 24.8259-52.8405 24.8259-49.7252C24.8259-46.61 27.3181-44.1178 30.4333-44.1178ZM65.9387-44.1178C69.0539-44.1178 71.5461-46.61 71.5461-49.7252C71.5461-52.8405 69.0539-55.3327 65.9387-55.3327C62.8235-55.3327 60.3313-52.8405 60.3313-49.7252C60.3313-46.61 62.8235-44.1178 65.9387-44.1178ZM48.2112-32.8834C52.5965-32.8834 56.0593-36.3462 56.0593-40.7316C56.0593-45.1049 52.5965-48.5677 48.2112-48.5677C43.8258-48.5677 40.363-45.1049 40.363-40.7316C40.363-36.3462 43.8258-32.8834 48.2112-32.8834ZM30.7854 22.0298L65.6369 22.0298C78.4462 22.0298 87.6997 12.8409 87.6997 0.19455C87.6997-12.4398 78.4462-21.6407 65.6369-21.6407L30.7854-21.6407C17.9258-21.6407 8.72266-12.4398 8.72266 0.19455C8.72266 12.8409 17.9258 22.0298 30.7854 22.0298ZM30.7854 18.5571C19.9354 18.5571 12.1713 10.8937 12.1713 0.19455C12.1713-10.5046 19.9354-18.168 30.7854-18.168L65.6369-18.168C76.4366-18.168 84.251-10.5046 84.251 0.19455C84.251 10.8937 76.4366 18.5571 65.6369 18.5571ZM30.5339 13.1779C37.7613 13.1779 43.5173 7.42189 43.5173 0.19455C43.5173-7.03279 37.7613-12.7768 30.5339-12.7768C23.3066-12.7768 17.5505-7.03279 17.5505 0.19455C17.5505 7.42189 23.3066 13.1779 30.5339 13.1779ZM65.8381 13.1779C73.0654 13.1779 78.8215 7.42189 78.8215 0.19455C78.8215-7.03279 73.0654-12.7768 65.8381-12.7768C58.6108-12.7768 52.8547-7.03279 52.8547 0.19455C52.8547 7.42189 58.6108 13.1779 65.8381 13.1779Z"/>
</svg>