<svg xmlns="http://www.w3.org/2000/svg" viewBox="8.72266 -83.1265 95.74 95.73">
  <path d="M56.5885 12.6052C83.0185 12.6052 104.466-8.83065 104.466-35.2606C104.466-61.6906 83.0185-83.1265 56.5885-83.1265C30.1705-83.1265 8.72266-61.6906 8.72266-35.2606C8.72266-8.83065 30.1705 12.6052 56.5885 12.6052ZM56.5885 8.86824C32.1734 8.86824 12.4213-10.8455 12.4213-35.2606C12.4213-59.6758 32.1734-79.3895 56.5885-79.3895C81.0036-79.3895 100.717-59.6758 100.717-35.2606C100.717-10.8455 81.0036 8.86824 56.5885 8.86824ZM56.5765-47.9851C59.8163-47.9851 62.4331-50.6642 62.4331-53.916C62.4331-57.1438 59.8163-59.7727 56.5765-59.7727C53.3246-59.7727 50.7078-57.1438 50.7078-53.916C50.7078-50.6642 53.3246-47.9851 56.5765-47.9851ZM31.5683-22.7855L45.0501-21.6137C47.468-21.4268 47.9784-21.2398 50.2837-20.6168L66.7442-15.9942L79.8664-11.1968C81.1125-10.7606 82.9194-11.1968 83.4178-12.8167C83.8539-14.2497 83.1686-15.8696 81.7979-16.3681L68.6756-21.1032C68.4767-21.1655 67.9782-21.3645 67.7913-21.4268L56.3273-25.6012C57.8226-28.5295 59.9289-33.2526 60.4394-38.3616C60.5017-38.9344 60.8755-39.2459 61.4362-39.2459L81.1365-39.2459C82.6942-39.2459 83.8779-40.492 83.8779-41.9873C83.8779-43.4946 82.6942-44.7287 81.1365-44.7287L59.5048-44.7287C55.8911-44.7287 55.5676-44.6904 51.5921-45.7999L31.1321-51.4696C29.6488-51.8938 28.1535-51.0335 27.7174-49.5885C27.3316-48.1052 28.2038-46.5596 29.6488-46.1737L48.7764-40.9281C49.2245-40.8035 49.5361-40.4297 49.524-39.8689C48.901-35.0092 46.5334-30.3363 45.2873-28.2683L34.5086-28.2683L34.5086-39.2459C34.5086-40.7412 33.2505-41.9873 31.7672-41.9873C30.2599-41.9873 29.0138-40.7412 29.0138-39.2459L29.0138-25.5269C29.0138-23.9189 29.7112-22.9604 31.5683-22.7855Z" />
</svg>