<svg xmlns="http://www.w3.org/2000/svg" viewBox="8.72266 -83.1265 95.74 95.73">
  <path d="M56.5885 12.6052C82.9179 12.6052 104.466-8.94325 104.466-35.2606C104.466-61.578 82.9179-83.1265 56.5885-83.1265C30.2711-83.1265 8.72266-61.578 8.72266-35.2606C8.72266-8.94325 30.2711 12.6052 56.5885 12.6052ZM66.498-56.8256C63.2341-56.8256 60.5933-59.4784 60.5933-62.7423C60.5933-66.0062 63.2341-68.647 66.498-68.647C69.7739-68.647 72.4147-66.0062 72.4147-62.7423C72.4147-59.4784 69.7739-56.8256 66.498-56.8256ZM44.7724-8.05897C41.796-8.05897 39.4187-8.58143 37.6141-10.1368C37.0075-10.657 37.0939-11.2876 37.4152-11.7335C37.7364-12.2177 38.4436-12.4046 39.0501-11.9587C40.634-10.7869 42.1556-10.2502 44.7724-10.2502L57.8399-10.2502L57.8399-24.9563L47.775-35.1218C45.8939-37.0029 45.6447-39.9673 47.0274-42.0977L51.7363-49.1861C51.9855-49.4977 51.7363-49.8835 51.3624-49.8835L46.7781-49.8835L42.0693-42.783C41.209-41.4746 39.4405-41.1008 38.2326-41.9731C36.9122-42.783 36.6127-44.5396 37.4227-45.7977L43.0038-54.1442C43.5023-54.9662 44.4488-55.4024 45.3211-55.4024L60.1069-55.4024C62.7477-55.4024 65.1776-53.895 66.3231-51.5777L69.2754-45.6731L78.6932-45.6731C80.2628-45.6731 81.4586-44.4149 81.4586-42.8453C81.4586-41.338 80.2628-40.0919 78.6932-40.0919L67.5189-40.0919C66.498-40.0919 65.5011-40.727 65.065-41.6495L63.1215-45.4861C62.81-46.1715 61.988-46.1715 61.6142-45.5484L55.8341-36.6914L62.6111-28.0453C63.1718-27.3359 63.3707-26.5883 63.3707-25.8166L63.3707-10.2502C66.9551-10.2502 68.4767-10.7869 70.0726-11.9587C70.6791-12.4286 71.3097-12.2177 71.6693-11.7718C72.0288-11.3139 72.0791-10.657 71.4966-10.1368C69.692-8.58143 67.3147-8.05897 64.3383-8.05897ZM30.696-34.9972C31.7049-36.1427 33.4614-36.205 34.607-35.2464L43.0661-27.8464L46.1333-33.9545L46.3202-33.7676L50.9165-29.1713L46.4043-22.0663C45.52-20.7459 43.6269-19.9359 41.8823-21.4815L30.9452-31.048C29.8117-32.0448 29.6991-33.8014 30.696-34.9972ZM42.4814-3.81777C42.4814-5.03759 43.5023-6.10878 44.7724-6.10878C46.0305-6.10878 47.0634-5.03759 47.0634-3.81777C47.0634-2.55966 46.0305-1.53876 44.7724-1.53876C43.5023-1.53876 42.4814-2.55966 42.4814-3.81777ZM62.0976-3.81777C62.0976-5.03759 63.1305-6.10878 64.3383-6.10878C65.6084-6.10878 66.6173-5.03759 66.6173-3.81777C66.6173-2.55966 65.6084-1.53876 64.3383-1.53876C63.1305-1.53876 62.0976-2.55966 62.0976-3.81777Z"/>
</svg>