<svg xmlns="http://www.w3.org/2000/svg" viewBox="8.72266 -83.1265 95.74 95.73">
  <path d="M56.5885 12.6052C83.0185 12.6052 104.466-8.83065 104.466-35.2606C104.466-61.6906 83.0185-83.1265 56.5885-83.1265C30.1705-83.1265 8.72266-61.6906 8.72266-35.2606C8.72266-8.83065 30.1705 12.6052 56.5885 12.6052ZM56.5885 8.86824C32.1734 8.86824 12.4213-10.8455 12.4213-35.2606C12.4213-59.6758 32.1734-79.3895 56.5885-79.3895C81.0036-79.3895 100.717-59.6758 100.717-35.2606C100.717-10.8455 81.0036 8.86824 56.5885 8.86824ZM56.5765-58.7878C59.8163-58.7878 62.4331-61.4046 62.4331-64.6444C62.4331-67.8843 59.8163-70.5131 56.5765-70.5131C53.3366-70.5131 50.7078-67.8843 50.7078-64.6444C50.7078-61.4046 53.3366-58.7878 56.5765-58.7878ZM60.0655-14.652C61.1247-14.3405 62.8693-14.7144 63.3797-16.4589L67.2929-29.4183C67.729-30.801 67.0557-32.234 65.6107-32.7324L55.0189-36.4084L56.3273-45.3923C56.3896-45.941 57.0869-46.0656 57.3241-45.5672L59.6294-41.1556C60.1279-40.209 61.0001-39.7105 61.997-39.7105L72.838-39.7105C74.3333-39.7105 75.5291-40.844 75.5291-42.3896C75.5291-43.8347 74.3333-45.0687 72.838-45.0687L63.6792-45.0687L60.1902-52.0589C59.0567-54.3019 57.0126-56.0103 54.5084-56.4082L52.9628-56.6694C50.2214-57.1296 47.9784-56.6071 46.2339-55.5479L37.4992-50.1154C36.7516-49.617 36.2531-48.7447 36.2531-47.7599L36.2531-36.9691C36.2531-35.4738 37.4992-34.2277 38.9945-34.2277C40.4899-34.2277 41.6737-35.4738 41.6737-36.9691L41.6737-46.3148L45.4742-48.6824C45.7858-48.8693 46.2219-48.6321 46.1596-48.196L44.8632-38.2775C44.3648-34.4146 45.6612-31.7979 50.0345-30.801L61.3116-28.1722L58.2467-17.9542C57.8226-16.5835 58.333-15.0882 60.0655-14.652ZM40.1904-4.87021C41.1752-4.24717 42.9197-4.24717 43.9166-5.68017L51.8916-17.5301C52.2654-18.0908 52.5147-18.527 52.577-19.2123L53.6482-27.1753L49.4617-28.1722C48.8387-28.3088 48.2277-28.4957 47.7172-28.6826L47.1565-20.1972L39.4307-8.65879C38.6207-7.41269 38.882-5.73047 40.1904-4.87021ZM49.2689-1.07636L58.899-1.07636C59.4553-1.07636 59.9635-1.60859 59.9635-2.19111L59.9635-7.75497L68.4909-7.75497C69.0112-7.75497 69.5817-8.32548 69.5817-8.85771L69.5817-14.4839L78.1594-14.4839C78.7779-14.4839 79.2118-15.0544 79.2118-15.5866L79.2118-21.2128L86.5202-21.2128C87.0645-21.2128 87.5847-21.733 87.5847-22.3155C87.5847-22.8598 87.1268-23.4183 86.5202-23.4183L78.1594-23.4183C77.5025-23.4183 77.0687-22.8598 77.0687-22.3155L77.0687-16.6894L68.4909-16.6894C67.8724-16.6894 67.3762-16.1812 67.3762-15.5866L67.3762-9.96045L58.899-9.96045C58.3668-9.96045 57.7963-9.50254 57.7963-8.85771L57.7963-3.28184L49.2689-3.28184C48.6361-3.28184 48.1661-2.72334 48.1661-2.19111C48.1661-1.60859 48.6743-1.07636 49.2689-1.07636Z" />
</svg>