<svg xmlns="http://www.w3.org/2000/svg" viewBox="12.4609 -77.5364 113.9 84.6">
  <path d="M80.714-57.7775C86.1803-57.7775 90.5372-62.1846 90.5372-67.6509C90.5372-73.1292 86.1803-77.5364 80.714-77.5364C75.2357-77.5364 70.8285-73.1292 70.8285-67.6509C70.8285-62.1846 75.2357-57.7775 80.714-57.7775ZM63.8482-0.629667C62.7027 5.54602 71.9913 7.06536 73.1248 0.76506L77.8315-24.9346C78.2796-27.3382 76.7483-29.9407 73.9588-30.3266L58.5065-32.493L68.1067-42.0932C69.0533-43.0398 70.3474-43.0398 71.294-42.0932L97.9402-15.435C99.7208-13.6664 102.709-13.5298 104.552-15.435C106.321-17.3401 106.383-20.1536 104.552-21.9965L69.1899-57.3586C67.0235-59.513 64.0974-60.7831 60.9341-60.7831L40.5019-60.7831C39.2438-60.7831 38.0862-60.2727 37.202-59.3884L23.2066-45.3428C21.3638-43.5502 21.4141-40.6241 23.2066-38.7813C25.0495-36.9384 27.9253-36.9384 29.7562-38.7813L42.4694-51.4442L50.6748-51.4442C51.5591-51.4442 51.8826-50.6222 51.3099-50.0494L38.671-37.4991C32.5696-31.4601 35.8072-21.0499 45.4697-21.0499L67.5962-21.0499ZM37.4392-19.4007L36.1811-4.68924L17.1676-4.68924C14.565-4.68924 12.4609-2.59715 12.4609-0.056913C12.4609 2.49534 14.565 4.64973 17.1676 4.64973L40.5019 4.64973C42.8552 4.64973 44.7101 2.86916 45.1462 0.515841L48.3598-17.1337L45.4697-17.1337C42.2824-17.1337 39.6056-17.9557 37.4392-19.4007ZM107.08 4.64973L121.025 4.64973C123.999 4.64973 126.362 2.28664 126.362-0.687484C126.362-3.67362 123.999-5.97441 121.025-5.97441L107.08-5.97441C103.994-5.97441 101.681-3.67362 101.681-0.687484C101.681 2.28664 103.994 4.64973 107.08 4.64973ZM117.298-4.97595L120.209-4.97595L120.209-9.20593C120.209-12.626 117.951-14.8337 114.543-14.8337L109.333-14.8337C108.566-14.8337 107.897-14.2271 107.897-13.3976C107.897-12.5802 108.566-11.9113 109.333-11.9113L114.543-11.9113C116.227-11.9113 117.298-10.8401 117.298-9.20593Z"/>
</svg>