<svg xmlns="http://www.w3.org/2000/svg" viewBox="8.72266 -83.1265 95.74 95.73">
  <path d="M56.5885 12.6052C83.0185 12.6052 104.466-8.83065 104.466-35.2606C104.466-61.6906 83.0185-83.1265 56.5885-83.1265C30.1705-83.1265 8.72266-61.6906 8.72266-35.2606C8.72266-8.83065 30.1705 12.6052 56.5885 12.6052ZM56.5885 8.86824C32.1734 8.86824 12.4213-10.8455 12.4213-35.2606C12.4213-59.6758 32.1734-79.3895 56.5885-79.3895C81.0036-79.3895 100.717-59.6758 100.717-35.2606C100.717-10.8455 81.0036 8.86824 56.5885 8.86824ZM56.5765-52.0634C59.754-52.0634 62.4211-54.7185 62.4211-57.9463C62.4211-61.1358 59.754-63.7909 56.5765-63.7909C53.2863-63.7909 50.6816-61.1358 50.6816-57.9463C50.6816-54.7185 53.2863-52.0634 56.5765-52.0634ZM56.5765-25.4548L57.8849-14.9756L57.8849-1.01485C57.8849 0.367869 59.119 1.55166 60.5017 1.55166C61.8724 1.55166 63.1065 0.367869 63.1065-1.01485L63.1065-38.4645C63.1065-38.776 63.4923-38.8383 63.6672-38.5388C66.9191-32.4329 68.8505-27.0627 69.6605-24.6951C70.1589-23.3244 71.6039-22.5768 72.9626-23.0249C74.0218-23.3867 74.6569-24.4459 74.6569-25.4548C74.6569-25.7543 74.5825-26.1019 74.4579-26.538C74.3453-26.8878 69.9097-40.3456 64.3023-46.6504C63.1185-48.0091 61.3739-48.819 59.4928-48.819L53.6602-48.819C51.779-48.819 50.0345-48.0091 48.8507-46.6504C43.2433-40.3456 38.8076-26.8878 38.695-26.538C38.5704-26.1019 38.4961-25.7543 38.4961-25.4548C38.4961-24.4459 39.1312-23.3867 40.1904-23.0249C41.549-22.5768 42.9941-23.3244 43.4925-24.6951C44.3025-27.0627 46.2339-32.4329 49.4858-38.5388C49.6607-38.8383 50.0465-38.776 50.0465-38.4645L50.0465-1.01485C50.0465 0.367869 51.2806 1.55166 52.6513 1.55166C54.034 1.55166 55.2681 0.367869 55.2681-1.01485L55.2681-14.9756ZM56.5765-68.8496C66.7389-68.8496 72.5017-60.1149 72.5017-44.6994L72.5017-25.4548L74.6569-25.4548L74.6569-44.6994C74.6569-61.5915 68.1892-71.0551 56.5765-71.0551C44.9758-71.0551 38.4961-61.5915 38.4961-44.6994L38.4961-25.4548L40.6633-25.4548L40.6633-44.6994C40.6633-60.1149 46.4261-68.8496 56.5765-68.8496Z" />
</svg>