<svg xmlns="http://www.w3.org/2000/svg" viewBox="8.72266 -83.1265 95.74 95.73">
  <path d="M56.5885 12.6052C83.0185 12.6052 104.466-8.83065 104.466-35.2606C104.466-61.6906 83.0185-83.1265 56.5885-83.1265C30.1705-83.1265 8.72266-61.6906 8.72266-35.2606C8.72266-8.83065 30.1705 12.6052 56.5885 12.6052ZM56.5885 8.86824C32.1734 8.86824 12.4213-10.8455 12.4213-35.2606C12.4213-59.6758 32.1734-79.3895 56.5885-79.3895C81.0036-79.3895 100.717-59.6758 100.717-35.2606C100.717-10.8455 81.0036 8.86824 56.5885 8.86824ZM63.7393-56.1229C66.9911-56.1229 69.5456-58.6895 69.5456-61.9413C69.5456-65.1309 66.9911-67.7477 63.7393-67.7477C60.5497-67.7477 57.9329-65.1309 57.9329-61.9413C57.9329-58.6895 60.5497-56.1229 63.7393-56.1229ZM34.5687-27.8321L50.0322-27.8321L64.3743-25.7761C69.7828-25.0284 73.5954-27.396 73.5954-32.505L73.5954-42.1742C73.5954-42.6727 74.1442-42.8596 74.4677-42.536L77.1348-39.8569L77.1348-30.6358C77.1348-29.0782 78.3929-27.8321 79.8882-27.8321C81.4458-27.8321 82.6919-29.0782 82.6919-30.6358L82.6919-41.0407C82.6919-41.7884 82.4427-42.4234 81.882-42.9842L75.0787-49.7754C73.0347-51.8194 70.4682-52.8906 67.6022-52.8906L41.0484-52.8906C39.553-52.8906 38.2446-51.5822 38.2446-50.0869C38.2446-48.5293 39.4907-47.2832 41.0484-47.2832L61.446-47.2832C62.256-47.2832 62.867-46.6602 62.867-45.9125L62.867-33.4396L34.5687-33.4396C33.0111-33.4396 31.765-32.1935 31.765-30.6358C31.765-29.0782 33.0111-27.8321 34.5687-27.8321ZM72.8358-4.01973C73.907-5.07891 73.8446-6.82344 72.8358-7.94492L63.9262-16.9791L67.4055-23.7125C66.3703-23.6502 65.2609-23.6622 64.1011-23.7868L60.3508-24.3476L57.8203-17.3529C57.4465-16.3058 57.6957-15.2346 58.5057-14.4246L68.9226-4.01973C69.9818-2.89824 71.7263-2.89824 72.8358-4.01973ZM26.4691-39.7323C29.9581-36.2433 33.8833-36.6171 35.3786-38.0621C36.8116-39.5574 36.9363-43.1711 33.4472-46.7105C29.8958-50.2115 26.2198-50.1492 24.7868-48.5916C23.2915-47.1586 22.968-43.2837 26.4691-39.7323Z" />
</svg>