<svg xmlns="http://www.w3.org/2000/svg" viewBox="12.25 -80.4993 108.07 90.55">
  <path d="M38.5539-60.4694C44.0563-60.4694 48.5137-65.0754 48.5137-70.3526C48.5137-75.9555 44.0563-80.4993 38.5539-80.4993C32.9773-80.4993 28.6324-75.9555 28.6324-70.3526C28.6324-64.5725 32.9773-60.4694 38.5539-60.4694ZM19.4203-22.919L48.1804-55.0556C45.1395-56.2777 42.0025-56.6372 38.5539-56.6372C25.6823-56.6372 18.0376-50.4255 18.0376-40.0679C18.0376-37.5659 18.1502-34.1797 18.536-30.7935ZM57.8264-22.919L58.5478-30.7935C58.8833-34.1797 59.0582-37.5659 59.0582-40.0679C59.0582-45.4621 57.1651-49.7589 53.0868-52.673L29.2953-26.0396C32.4271-26.6648 35.4342-26.9403 38.5539-26.9403C44.9285-26.9403 51.3152-26.0561 57.8264-22.919ZM27.5995 9.79105C30.2261 9.45551 31.9444 7.50004 31.6328 4.27669L29.8402-12.3932L47.3059-12.3932L45.6139 4.27669C45.2904 7.50004 46.92 9.45551 49.5849 9.79105C52.3361 10.0523 54.4402 8.4226 54.7637 5.1347L57.129-17.3176C51.2026-20.6535 44.7919-21.9859 38.5539-21.9859C32.3925-21.9859 25.8813-20.6535 20.1297-17.3176L22.4327 5.1347C22.7563 8.4226 24.7981 10.0523 27.5995 9.79105ZM53.0868-52.685L61.6901-62.2469C62.982-63.6634 62.8574-65.1903 61.6158-66.2472C60.4725-67.1773 59.0582-67.1893 57.8166-65.799L48.1804-55.0556C49.9565-54.3725 51.6582-53.591 53.0868-52.685ZM13.5659-19.3557C12.262-18.337 12.25-16.8604 12.9211-15.7292C13.5802-14.6482 15.1356-14.0132 16.5378-15.0844C17.7096-15.9206 18.8573-16.6442 20.1297-17.3176L19.4203-22.919C17.2779-21.9222 15.2842-20.7504 13.5659-19.3557ZM63.6185-19.3557C61.8499-20.7504 59.9065-21.9222 57.8264-22.919L57.117-17.3176C58.3894-16.6442 59.5251-15.9206 60.6969-15.0844C62.0871-14.0132 63.6305-14.6362 64.3136-15.7675C64.9967-16.8867 64.9967-18.325 63.6185-19.3557ZM80.1105-59.1309L80.1105-49.0705C80.1105-46.1422 82.2912-44.1244 85.1692-44.1244L92.9933-44.1244C95.8331-44.1244 97.9754-46.1422 97.9754-49.0705L97.9754-59.1309C97.9754-61.9586 95.8331-64.1896 92.9933-64.1896L85.1692-64.1896C82.2912-64.1896 80.1105-61.9586 80.1105-59.1309ZM102.543-59.1309L102.543-49.0705C102.543-46.1422 104.623-44.1244 107.513-44.1244L115.299-44.1244C118.201-44.1244 120.32-46.1422 120.32-49.0705L120.32-59.1309C120.32-61.9586 118.201-64.1896 115.299-64.1896L107.513-64.1896C104.623-64.1896 102.543-61.9586 102.543-59.1309ZM80.1105-32.5928L80.1105-22.5324C80.1105-19.6041 82.2912-17.5863 85.1692-17.5863L93.0053-17.5863C95.8571-17.5863 97.9754-19.6041 97.9754-22.5324L97.9754-32.5928C97.9754-35.3702 95.8571-37.6515 93.0053-37.6515L85.1692-37.6515C82.2912-37.6515 80.1105-35.3702 80.1105-32.5928ZM102.543-32.5928L102.543-22.5324C102.543-19.6041 104.623-17.5863 107.513-17.5863L115.299-17.5863C118.189-17.5863 120.308-19.6041 120.308-22.5324L120.308-32.5928C120.308-35.3702 118.189-37.6515 115.299-37.6515L107.513-37.6515C104.623-37.6515 102.543-35.3702 102.543-32.5928ZM80.1105-6.31814L80.1105 3.67992C80.1105 6.56996 82.2912 8.63802 85.1692 8.63802L92.9933 8.63802C95.8331 8.63802 97.9754 6.56996 97.9754 3.67992L97.9754-6.31814C97.9754-9.19617 95.8331-11.3768 92.9933-11.3768L85.1692-11.3768C82.2912-11.3768 80.1105-9.19617 80.1105-6.31814ZM102.543-6.31814L102.543 3.67992C102.543 6.56996 104.623 8.63802 107.513 8.63802L115.299 8.63802C118.201 8.63802 120.32 6.56996 120.32 3.67992L120.32-6.31814C120.32-9.19617 118.201-11.3768 115.299-11.3768L107.513-11.3768C104.623-11.3768 102.543-9.19617 102.543-6.31814ZM89.0681-49.4061C86.4153-49.4061 84.2106-51.5604 84.2106-54.2253C84.2106-56.8158 86.4153-58.9702 89.0681-58.9702C91.6083-58.9702 93.825-56.8158 93.825-54.2253C93.825-51.5604 91.6083-49.4061 89.0681-49.4061ZM111.463-49.4061C108.86-49.4061 106.593-51.5102 106.593-54.2253C106.593-56.8158 108.86-58.9702 111.463-58.9702C113.952-58.9702 116.169-56.8158 116.169-54.2253C116.169-51.5102 113.952-49.4061 111.463-49.4061ZM89.0681-22.9685C86.4776-22.9685 84.2106-25.1229 84.2106-27.7878C84.2106-30.3783 86.4776-32.5327 89.0681-32.5327C91.6083-32.5327 93.825-30.3783 93.825-27.7878C93.825-25.1229 91.6083-22.9685 89.0681-22.9685ZM111.463-22.9685C108.86-22.9685 106.593-25.1229 106.593-27.7878C106.593-30.3783 108.86-32.5327 111.463-32.5327C113.952-32.5327 116.169-30.3783 116.169-27.7878C116.169-25.1229 113.952-22.9685 111.463-22.9685ZM89.0681 3.41868C86.4776 3.41868 84.2106 1.26429 84.2106-1.40056C84.2106-4.04138 86.4776-6.09519 89.0681-6.09519C91.6083-6.09519 93.825-4.04138 93.825-1.40056C93.825 1.26429 91.6083 3.41868 89.0681 3.41868ZM111.463 3.41868C108.86 3.41868 106.593 1.26429 106.593-1.40056C106.593-4.04138 108.86-6.09519 111.463-6.09519C113.952-6.09519 116.169-4.04138 116.169-1.40056C116.169 1.26429 113.952 3.41868 111.463 3.41868ZM90.3743-70.7601L110.306-70.7601C111.311-70.7601 111.661-71.9273 110.74-72.5361L101.527-78.8574C100.719-79.3799 99.9617-79.3799 99.1539-78.8574L89.9404-72.5361C89.0201-71.9273 89.3699-70.7601 90.3743-70.7601Z"/>
</svg>