<svg xmlns="http://www.w3.org/2000/svg" viewBox="11.8762 -96.8952 66.18 123.33">
  <path d="M64.1829-65.8816C69.599-65.8816 74.1067-70.339 74.1067-75.8796C74.1067-81.3579 69.599-85.8536 64.1829-85.8536C58.6423-85.8536 54.1346-81.3579 54.1346-75.8796C54.1346-70.339 58.6423-65.8816 64.1829-65.8816ZM40.3412 25.8754C42.8815 25.8754 44.9856 23.8336 44.9856 21.2934L44.9856-1.54246L56.0473-17.8858C56.3446-18.3317 56.9008-18.1951 56.9751-17.6629L58.7197-2.87488C58.794-2.1032 58.9689-1.66707 59.2924-0.833082L68.3199 22.9494C69.4031 25.8011 72.0799 26.4362 74.2343 25.6142C76.4007 24.7922 78.0567 22.5755 76.9735 19.6495L68.0083-3.89578L68.0083-47.5137C68.0083-52.3569 65.9786-57.4374 61.2719-59.3546L58.3458-60.5624C53.1167-62.7288 48.0986-62.0938 43.6531-58.9065L32.7828-51.0868L18.5879-57.1251L43.2996-91.4273L52.1634-91.4273C53.7263-91.4273 54.9537-92.6546 54.9537-94.1049C54.9537-95.6798 53.7263-96.8952 52.1634-96.8952L44.1141-96.8952C43.5316-96.8952 43.0879-96.5093 42.7666-96.1137L13.4075-55.5247C11.8762-53.3966 12.0105-49.8813 15.2429-48.458L31.5127-41.5369C32.2724-41.2254 32.7828-41.1631 33.8037-41.1631L44.861-41.1631C46.6295-41.1631 47.2023-40.0176 47.2023-38.7475L47.2023-26.0846L36.145-5.1659C35.7592-4.39422 35.6346-3.82146 35.6346-2.93718L35.6346 21.2934C35.6346 23.8336 37.7267 25.8754 40.3412 25.8754Z"/>
</svg>