<svg xmlns="http://www.w3.org/2000/svg" viewBox="12.4609 -83.1265 95.74 95.73">
  <path d="M60.3268 12.6052C86.7568 12.6052 108.205-8.83065 108.205-35.2606C108.205-61.6906 86.7568-83.1265 60.3268-83.1265C33.9088-83.1265 12.4609-61.6906 12.4609-35.2606C12.4609-8.83065 33.9088 12.6052 60.3268 12.6052ZM60.3268 8.86824C35.9117 8.86824 16.1596-10.8455 16.1596-35.2606C16.1596-59.6758 35.9117-79.3895 60.3268-79.3895C84.7419-79.3895 104.456-59.6758 104.456-35.2606C104.456-10.8455 84.7419 8.86824 60.3268 8.86824ZM63.8759-56.6784C67.1278-56.6784 69.7446-59.2952 69.7446-62.5471C69.7446-65.7869 67.1278-68.4037 63.8759-68.4037C60.6361-68.4037 57.969-65.7869 57.969-62.5471C57.969-59.2952 60.6361-56.6784 63.8759-56.6784ZM58.9396-28.4552L58.9396-17.2238C58.9396-16.1144 59.6129-15.5536 60.7344-15.5536L68.4144-15.5536C70.3961-15.5536 70.3578-18.1441 68.8385-18.6546L64.4989-20.0516L64.4989-30.9977C64.4989-32.1694 63.7513-33.1543 62.6418-33.6527L54.9881-37.1681L59.438-45.9936C59.6752-46.492 60.2239-46.6789 60.7104-46.3674L68.1892-41.4311L68.1892-30.9977C68.1892-29.4521 69.373-28.3186 70.8683-28.3186C72.4139-28.3186 73.5977-29.4521 73.5977-30.9977L73.5977-43.1395C73.5977-44.1867 73.2982-44.6349 72.3636-45.3705L60.5355-54.3326C57.9547-56.2903 54.8515-56.6882 51.8346-55.4541L42.9588-51.8765C40.354-50.8173 40.7399-47.925 42.8965-46.8035L46.3135-45.059L44.4684-41.3687C42.0002-36.4947 43.8574-32.1814 48.9303-30.9354ZM59.6249-11.7072L70.4824-11.7072C71.0289-11.7072 71.4891-12.1674 71.4891-12.6898C71.4891-13.174 71.0792-13.6845 70.4824-13.6845L59.6249-13.6845C59.0402-13.6845 58.6303-13.174 58.6303-12.6898C58.6303-12.1674 59.0905-11.7072 59.6249-11.7072ZM44.4444-30.8798L42.8965-26.2482L33.3977-26.2482C32.2882-26.2482 31.7275-25.6252 31.7275-24.4654L31.7275-16.8117C31.7275-14.7917 34.3683-14.83 34.8285-16.3613L36.1751-20.6769L44.9526-20.6769C46.1626-20.6769 47.0229-21.3622 47.459-22.1722L50.6028-28.4236L48.4581-28.9844C46.8622-29.4085 45.4412-30.0818 44.4444-30.8798ZM27.9194-25.6132L27.9194-14.6934C27.9194-14.1469 28.3292-13.6867 28.8637-13.6867C29.3479-13.6867 29.8583-14.0966 29.8583-14.6934L29.8583-25.6132C29.8583-26.0854 29.3479-26.5958 28.8637-26.5958C28.2789-26.5958 27.9194-26.0854 27.9194-25.6132ZM85.2501-16.9266L92.7582-16.9266C93.3287-16.9266 93.8369-17.3845 93.8369-17.955L93.8369-19.2251C93.8369-19.8339 93.3287-20.3421 92.7582-20.3421L83.6595-20.3421L56.4293-45.595L54.5571-44.5666L83.3502-17.6382C83.9995-16.9889 84.4116-16.9266 85.2501-16.9266ZM76.5162-9.20831C76.5162-8.02452 78.4357-7.10196 80.9158-7.10196C83.4343-7.10196 85.416-8.02452 85.416-9.20831L85.416-11.5519C85.416-12.6733 83.4343-13.5959 80.9158-13.5959C78.4357-13.5959 76.5162-12.6733 76.5162-11.5519Z"/>
</svg>