<svg xmlns="http://www.w3.org/2000/svg" viewBox="11.5887 -87.81 126.11 99.74">
  <path d="M65.3105-59.0769L68.5197-60.4093C67.6715-65.2406 65.8962-69.2258 61.9928-74.608C61.7841-74.8648 61.8081-75.1598 62.0911-75.2964C77.945-83.188 99.633-75.9772 105.848-59.3854L109.948-58.4306C104.046-78.6549 77.4855-87.81 58.8-77.5027C57.2777-76.6732 57.2581-75.1148 58.3324-73.6952C62.9264-67.6945 64.3759-64.0906 65.3105-59.0769ZM86.6465-2.8898C108.142-2.8898 137.653-16.0804 137.703-33.6092C137.653-51.1259 108.142-64.4171 86.6465-64.4171C70.7086-64.4171 55.594-59.0109 43.2546-46.351C35.0972-56.2094 26.0742-61.3785 14.9907-61.5654C13.3678-61.5774 12.7342-61.0781 12.5855-59.5438C11.5887-49.7784 16.2878-39.5694 23.4791-33.6092C16.2878-27.7495 11.5887-17.3896 12.5855-7.66257C12.7342-6.1402 13.3678-5.57867 14.9907-5.59068C26.0742-5.82789 35.0972-11.0089 43.2546-20.817C55.594-8.19546 70.7086-2.8898 86.6465-2.8898ZM86.6465-6.49238C70.7063-6.49238 56.3327-11.8363 44.3101-25.0142C43.648-25.7626 42.6023-25.7506 41.9402-24.9158C34.2076-15.1108 26.5735-10.0783 16.7016-9.35166C16.4208-9.31563 16.1641-9.57237 16.2001-9.86515C15.9134-18.7642 20.5885-27.4807 27.5824-32.2827C28.6499-33.0649 28.6619-34.1414 27.5321-34.9739C20.5885-39.8885 15.9134-48.4925 16.2001-57.2909C16.1641-57.634 16.4208-57.9027 16.7016-57.8667C26.5735-57.14 34.2076-52.1459 41.8899-42.3025C42.54-41.4054 43.5977-41.3934 44.2598-42.2042C56.383-55.37 70.7063-60.7763 86.6465-60.7763C107.356-60.7763 134.098-48.4534 134.148-33.6092C134.098-18.765 107.356-6.49238 86.6465-6.49238ZM114.695-31.4878C116.73-31.4878 118.468-33.1753 118.468-35.2606C118.468-37.346 116.73-39.0335 114.695-39.0335C112.61-39.0335 110.872-37.346 110.872-35.2606C110.872-33.1753 112.61-31.4878 114.695-31.4878ZM73.5129-6.53132L71.5957 8.70336C71.3368 10.8496 72.7683 11.9268 75.1713 11.5192C86.6241 9.72664 98.1836 2.548 104.92-6.24079L99.9054-5.67476C93.699 0.868681 85.0785 5.9679 76.0954 7.71995C75.678 7.78001 75.4596 7.5931 75.4956 7.12991L76.9691-5.5487Z"/>
</svg>