<svg xmlns="http://www.w3.org/2000/svg" viewBox="8.72266 -83.0642 95.74 95.73">
  <path d="M56.5885 12.6675C82.9179 12.6675 104.466-8.88095 104.466-35.1983C104.466-61.5157 82.9179-83.0642 56.5885-83.0642C30.2711-83.0642 8.72266-61.5157 8.72266-35.1983C8.72266-8.88095 30.2711 12.6675 56.5885 12.6675ZM43.1547-61.62L43.1547-62.806C43.1547-66.2186 44.8489-67.9751 48.1991-67.9751L64.9396-67.9751C68.3521-67.9751 70.0463-66.2186 70.0463-62.806L70.0463-61.62ZM81.2453-8.46065L29.8508-59.9054C29.2683-60.476 29.218-61.4038 29.8508-61.9863C30.4453-62.5809 31.3492-62.5809 31.9437-61.9863L83.3885-10.5415C83.971-9.959 83.971-9.05519 83.3885-8.46065C82.794-7.82784 81.8278-7.87813 81.2453-8.46065ZM64.1994-33.5297L43.1547-54.6367L43.1547-58.9837L70.0463-58.9837L70.0463-55.5337C70.0463-52.9529 69.0855-50.9952 67.7148-48.8889L66.0446-46.2961C64.9231-44.6139 64.1994-42.419 64.1994-39.2654ZM48.9896-36.9053L64.1994-21.6571L64.1994-7.64092C64.1994-4.39131 62.292-2.42159 59.167-2.42159L53.9837-2.42159C50.897-2.42159 48.9896-4.39131 48.9896-7.64092Z"/>
</svg>