<svg xmlns="http://www.w3.org/2000/svg" viewBox="12.4609 -77.751 131.99 81.93">
  <path d="M78.4597 4.1806C116.915 4.1806 144.446-8.02294 144.446-25.9795C144.446-39.333 127.452-48.3132 109.006-50.7746L109.123-47.2156C126.035-45.0447 140.818-36.6937 140.818-26.0996C140.818-11.0557 115.836 0.638076 78.4597 0.638076C41.122 0.638076 16.0898-11.0557 16.0898-26.0996C16.0898-36.6937 30.8845-45.0447 47.784-47.2156L47.9131-50.7746C29.4551-48.3132 12.4609-39.333 12.4609-25.9795C12.4609-8.02294 40.0041 4.1806 78.4597 4.1806ZM78.4597-19.8796C91.2232-19.8796 102.766-23.151 109.49-28.5977C110.354-29.2764 110.773-30.1922 110.922-31.7288C113.448-61.7927 102.062-77.751 78.4597-77.751C54.8957-77.751 43.4594-61.7927 45.9974-31.7288C46.134-30.1922 46.6542-29.1758 47.781-28.3463C54.5557-23.0504 65.9477-19.8796 78.4597-19.8796ZM78.4597-34.4574C65.5777-34.4574 55.4513-38.1139 49.4393-42.5442C49.6352-62.3954 59.1326-74.2205 78.4597-74.2205C97.6862-74.2205 107.385-62.3954 107.705-42.6951C101.456-38.1139 91.38-34.4574 78.4597-34.4574Z"/>
</svg>