<svg xmlns="http://www.w3.org/2000/svg" viewBox="12.4609 -78.4559 113.26 86.41">
  <path d="M26.4617-49.9045L111.71-49.9045C115.682-49.9045 117.747-51.9575 117.747-55.93L117.747-64.4672C117.747-68.4396 115.682-70.4926 111.71-70.4926L26.4617-70.4926C22.4892-70.4926 20.4242-68.4396 20.4242-64.4672L20.4242-55.93C20.4242-51.9575 22.4892-49.9045 26.4617-49.9045ZM26.4617-24.9557L111.71-24.9557C115.682-24.9557 117.747-26.9584 117.747-30.9691L117.747-39.5184C117.747-43.5291 115.682-45.5318 111.71-45.5318L26.4617-45.5318C22.4892-45.5318 20.4242-43.5291 20.4242-39.5184L20.4242-30.9691C20.4242-26.9584 22.4892-24.9557 26.4617-24.9557ZM26.4617 0.0434111L111.71 0.0434111C115.682 0.0434111 117.747-2.00961 117.747-5.97005L117.747-14.5695C117.747-18.5803 115.682-20.583 111.71-20.583L26.4617-20.583C22.4892-20.583 20.4242-18.5803 20.4242-14.5695L20.4242-5.97005C20.4242-2.00961 22.4892 0.0434111 26.4617 0.0434111ZM25.6328 7.95861L112.551 7.95861C121.193 7.95861 125.723 3.32853 125.723-5.17725L125.723-65.32C125.723-73.8258 121.193-78.4559 112.551-78.4559L25.6328-78.4559C17.0024-78.4559 12.4609-73.9264 12.4609-65.32L12.4609-5.17725C12.4609 3.42911 17.0024 7.95861 25.6328 7.95861ZM25.7574 4.30574C19.4107 4.30574 16.1018 1.02088 16.1018-5.36192L16.1018-65.1353C16.1018-71.5302 19.4107-74.803 25.7574-74.803L112.426-74.803C118.572-74.803 122.082-71.5302 122.082-65.1353L122.082-5.36192C122.082 1.02088 118.572 4.30574 112.426 4.30574Z" />
</svg>