<svg xmlns="http://www.w3.org/2000/svg" viewBox="8.72266 -83.1265 95.74 95.73">
  <path d="M56.5885 12.6052C83.0185 12.6052 104.466-8.83065 104.466-35.2606C104.466-61.6906 83.0185-83.1265 56.5885-83.1265C30.1705-83.1265 8.72266-61.6906 8.72266-35.2606C8.72266-8.83065 30.1705 12.6052 56.5885 12.6052ZM56.5885 8.86824C32.1734 8.86824 12.4213-10.8455 12.4213-35.2606C12.4213-59.6758 32.1734-79.3895 56.5885-79.3895C81.0036-79.3895 100.717-59.6758 100.717-35.2606C100.717-10.8455 81.0036 8.86824 56.5885 8.86824ZM54.7884-13.1635C62.4797-13.1635 67.0212-18.1336 67.0212-25.93L67.0212-55.3865C67.0212-56.5906 66.3186-57.303 65.1505-57.303C64.0327-57.303 63.2918-56.5666 63.2918-55.3865L63.2918-25.9037C63.2918-20.1244 60.0813-16.5281 54.9348-16.5281C50.1621-16.5281 46.4847-19.4436 45.8181-23.7178C45.5253-24.7177 44.9953-25.1876 44.0818-25.1876C43.0098-25.1876 42.3334-24.5112 42.3334-23.3387C42.3334-22.919 42.4077-22.4108 42.5181-21.9026C43.5825-16.9062 48.5504-13.1635 54.7884-13.1635Z" />
</svg>