<svg xmlns="http://www.w3.org/2000/svg" viewBox="8.72266 -83.1265 95.74 95.73">
  <path d="M56.5885 12.6052C83.0185 12.6052 104.466-8.83065 104.466-35.2606C104.466-61.6906 83.0185-83.1265 56.5885-83.1265C30.1705-83.1265 8.72266-61.6906 8.72266-35.2606C8.72266-8.83065 30.1705 12.6052 56.5885 12.6052ZM56.5885 8.86824C32.1734 8.86824 12.4213-10.8455 12.4213-35.2606C12.4213-59.6758 32.1734-79.3895 56.5885-79.3895C81.0036-79.3895 100.717-59.6758 100.717-35.2606C100.717-10.8455 81.0036 8.86824 56.5885 8.86824ZM33.0658-12.9383C38.5922-7.56278 45.3865-7.92235 51.2416-13.7775L61.0647-23.4497C67.0062-29.3792 67.3275-36.3746 61.8274-41.7741C59.5274-44.0358 57.3685-45.2076 55.1286-45.4568C54.3373-44.8503 53.2729-43.8121 52.8653-42.5585C55.4363-42.575 57.6094-41.7267 59.6504-39.5972C63.791-35.6337 63.5966-30.1967 59.0025-25.7655L49.0384-15.8397C44.569-11.2817 39.2949-11.1112 35.2931-15.1896C31.1908-19.1793 31.3492-24.5277 35.9312-28.9349L43.8896-36.9818C43.6711-38.2332 43.7477-39.9402 44.5576-41.8409L33.8811-31.1764C27.9253-25.3212 27.5537-18.3378 33.0658-12.9383ZM78.0386-57.9471C72.5625-63.3226 65.718-62.975 59.8628-57.1078L50.0278-47.4357C44.0983-41.5565 43.765-34.5228 49.2651-29.1232C51.565-26.8495 53.7359-25.6777 55.9759-25.4285C56.8174-26.0351 57.8195-27.0733 58.2392-28.3389C55.6562-28.3104 53.5453-29.1586 51.454-31.3505C47.3134-35.302 47.5581-40.6887 52.1019-45.1821L62.066-55.0577C66.5235-59.6037 71.8096-59.7861 75.8113-55.7461C79.9017-51.706 79.8056-46.3696 75.2115-42.0008L67.2029-33.9035C67.4836-32.6522 67.3951-30.9451 66.5851-29.0444L77.2737-39.709C83.1671-45.6144 83.5387-52.5476 78.0386-57.9471Z" />
</svg>