<svg xmlns="http://www.w3.org/2000/svg" viewBox="12.4609 -70.7474 94.5 71.11">
  <path d="M15.7684-58.0469L22.6257-62.1598C23.9319-62.9555 23.9199-64.7818 22.6257-65.5655L15.7684-69.7528C14.1267-70.7474 12.4609-70.2752 12.4609-68.298L12.4609-59.5017C12.4609-57.5867 14.189-57.1145 15.7684-58.0469ZM38.2305-62.1417L105.126-62.1417C106.16-62.1417 106.959-62.8781 106.959-63.9621C106.959-64.9958 106.16-65.7323 105.126-65.7323L38.2305-65.7323C37.1968-65.7323 36.4101-64.9958 36.4101-63.9621C36.4101-62.8781 37.1968-62.1417 38.2305-62.1417ZM15.7684-29.3957L22.6257-33.4703C23.9319-34.254 23.9199-36.1307 22.6257-36.9144L15.7684-41.0513C14.1267-42.0459 12.4609-41.5737 12.4609-39.5965L12.4609-30.8505C12.4609-28.9355 14.189-28.4634 15.7684-29.3957ZM38.2305-33.3779L105.126-33.3779C106.16-33.3779 106.959-34.1646 106.959-35.1983C106.959-36.232 106.16-37.0188 105.126-37.0188L38.2305-37.0188C37.1968-37.0188 36.4101-36.232 36.4101-35.1983C36.4101-34.1646 37.1968-33.3779 38.2305-33.3779ZM15.7684-0.569607L22.6257-4.69452C23.9319-5.47821 23.9199-7.30458 22.6257-8.08828L15.7684-12.2755C14.1267-13.2701 12.4609-12.798 12.4609-10.8207L12.4609-2.02439C12.4609-0.10945 14.189 0.362719 15.7684-0.569607ZM38.2305-4.66442L105.126-4.66442C106.16-4.66442 106.959-5.40086 106.959-6.43456C106.959-7.51856 106.16-8.25499 105.126-8.25499L38.2305-8.25499C37.1968-8.25499 36.4101-7.51856 36.4101-6.43456C36.4101-5.40086 37.1968-4.66442 38.2305-4.66442Z" />
</svg>