<svg xmlns="http://www.w3.org/2000/svg" viewBox="8.72266 -83.1265 95.74 95.73">
  <path d="M56.5885 12.6052C82.9179 12.6052 104.466-8.94325 104.466-35.2606C104.466-61.578 82.9179-83.1265 56.5885-83.1265C30.2711-83.1265 8.72266-61.578 8.72266-35.2606C8.72266-8.94325 30.2711 12.6052 56.5885 12.6052ZM41.332-16.3508C40.248-16.3508 39.5311-17.1037 39.5311-18.3003L39.5311-52.7937C39.5311-53.7674 40.3824-54.6066 41.3943-54.6066C42.356-54.6066 43.2072-53.7674 43.2072-52.7937L43.2072-19.5855L55.4917-19.5855C56.331-19.5855 57.0719-18.8445 57.0719-17.9933C57.0719-17.0917 56.331-16.3508 55.4917-16.3508ZM66.8358-15.8906C65.8501-15.8906 65.0611-16.7299 65.0611-17.7155L65.0611-50.9238L57.3534-50.9238C56.4399-50.9238 55.7612-51.6527 55.7612-52.5663C55.7612-53.4679 56.4399-54.1465 57.3534-54.1465L75.4894-54.1465C76.3789-54.1465 77.0576-53.4679 77.0576-52.5663C77.0576-51.6527 76.3789-50.9238 75.4894-50.9238L68.6367-50.9238L68.6367-17.7155C68.6367-16.7299 67.8477-15.8906 66.8358-15.8906Z"/>
</svg>