<svg xmlns="http://www.w3.org/2000/svg" viewBox="12.0511 -85.8882 176.19 101.09">
  <path d="M13.6545-32.1649C12.0751-31.1943 12.0511-29.169 13.6545-28.1864L39.2302-12.8024C40.8193-11.8461 42.708-12.6418 42.708-14.2813L42.708-46.2953C42.708-47.8725 40.7833-48.6562 39.2302-47.7741ZM76.1763-39.8382C75.253-39.8382 74.488-40.5649 74.488-41.5265C74.488-42.4258 75.253-43.2028 76.1763-43.2028L95.9591-43.2028C96.9207-43.2028 97.6474-42.4258 97.6474-41.5265C97.6474-40.5649 96.9207-39.8382 95.9591-39.8382ZM133.682-29.6705C132.771-29.6705 132.006-30.3349 132.006-31.3588L132.006-39.7879L123.514-39.7879C122.603-39.7879 121.826-40.5146 121.826-41.4762C121.826-42.3635 122.553-43.1405 123.514-43.1405L132.006-43.1405L132.006-51.6319C132.006-52.5432 132.771-53.3081 133.682-53.3081C134.644-53.3081 135.421-52.5432 135.421-51.6319L135.421-43.1405L143.799-43.1405C144.761-43.1405 145.488-42.3635 145.488-41.4762C145.488-40.5146 144.761-39.7879 143.799-39.7879L135.421-39.7879L135.421-31.3588C135.421-30.3852 134.644-29.6705 133.682-29.6705ZM68.046-8.18741L151.716-8.18741C160.743-8.18741 164.888-12.4091 164.888-21.3113L164.888-61.6696C164.888-70.1634 160.334-74.7935 151.704-74.7935L145.59-74.7935L145.59-81.6124C145.59-84.2968 144.099-85.8882 141.225-85.8882L129.545-85.8882C126.609-85.8882 125.118-84.2968 125.118-81.6124L125.118-74.7935L94.644-74.7935L94.644-81.6124C94.644-84.2968 93.1532-85.8882 90.2173-85.8882L78.5747-85.8882C75.7131-85.8882 74.172-84.2968 74.172-81.6124L74.172-74.7935L68.046-74.7935C59.4156-74.7935 54.8741-70.1634 54.8741-61.6696L54.8741-21.3113C54.8741-12.6546 59.4156-8.18741 68.046-8.18741ZM70.8453 4.17677L171.188 4.17677C174.977 4.17677 177.252 2.07491 177.252-1.68066L177.252-50.036C177.252-52.1769 176.113-53.8074 173.815-54.1594L173.815-2.57101C173.815-0.448164 172.603 0.752126 170.442 0.752126L66.5034 0.752126C66.9057 3.1964 68.6203 4.17677 70.8453 4.17677ZM81.2279 15.201L182.174 15.201C185.963 15.201 188.238 13.0489 188.238 9.29328L188.238-39.2592C188.238-41.5083 187.029-43.0569 184.933-43.445L184.933 8.53506C184.933 10.6579 183.721 11.8582 181.56 11.8582L76.886 11.8582C77.2883 14.2304 79.123 15.201 81.2279 15.201Z"/>
</svg>