<svg xmlns="http://www.w3.org/2000/svg" viewBox="12.4609 -84.4109 62.2 98.38">
  <path d="M15.5065-23.678C16.6746-23.678 17.399-24.4528 17.399-25.6831L17.399-48.545L32.6185-48.545C44.4444-48.545 52.1033-55.4999 52.1033-66.3965C52.1033-77.2428 44.5067-84.4109 32.6305-84.4109L15.5065-84.4109C14.3887-84.4109 13.6523-83.6744 13.6523-82.444L13.6523-25.6831C13.6523-24.4528 14.3887-23.678 15.5065-23.678ZM17.399-52.0853L17.399-80.8083L32.2942-80.8083C42.1968-80.8083 48.2703-75.4606 48.2703-66.3965C48.2703-57.4449 42.1968-52.0853 32.2942-52.0853ZM45.4225-37.2296C49.7073-37.2874 53.9057-39.0657 57.1313-42.2553C60.3449-45.5191 62.1495-49.7033 62.2576-54.0144C62.3176-55.0623 61.4281-55.801 60.5408-55.777C59.7157-55.7529 59.0446-55.0646 59.0229-53.9258C59.0274-50.5186 57.5058-47.248 54.8102-44.5644C52.1769-41.8688 48.9183-40.4861 45.4105-40.402C44.4226-40.3299 43.6096-39.6828 43.6096-38.836C43.5593-37.963 44.2499-37.1815 45.4225-37.2296ZM45.1733-24.948C52.7219-25.0201 60.1962-27.9057 65.8757-33.5731C71.4809-39.2406 74.4167-46.6406 74.4265-54.2133C74.4625-55.2492 73.7479-55.9256 72.8726-55.8896C71.8464-55.8655 71.3405-55.1509 71.3164-54.139C71.2323-47.3936 68.6538-41.0077 63.5666-35.8199C58.4914-30.7327 52.0816-28.2165 45.2596-28.1204C44.298-28.1084 43.4467-27.5019 43.4467-26.5785C43.3964-25.6792 44.1756-24.924 45.1733-24.948ZM23.4874 13.9737C31.0053 13.9737 34.5882 8.06896 34.5882 0.611147C34.5882-6.60498 31.1321-12.7754 23.4874-12.7754C16.2428-12.7754 12.4609-6.83017 12.4609 0.611147C12.4609 8.03293 16.0581 13.9737 23.4874 13.9737ZM23.4874 11.0077C18.118 11.0077 15.8923 5.85596 15.8923 0.611147C15.8923-4.80633 18.2546-9.79743 23.4874-9.79743C29.094-9.79743 31.1065-4.54509 31.1065 0.611147C31.1065 6.34239 28.7442 11.0077 23.4874 11.0077ZM41.3584 13.7124C42.4927 13.7124 43.037 12.9475 43.037 11.9716L43.037 2.27766L52.4892 2.27766C53.3908 2.27766 54.0093 1.74543 54.0093 0.855877C54.0093-0.0336803 53.4028-0.539642 52.4892-0.539642L43.037-0.539642L43.037-9.31325L53.3494-9.31325C54.3373-9.31325 54.9439-9.81921 54.9439-10.7208C54.9439-11.6344 54.3373-12.1906 53.3494-12.1906L41.3464-12.1906C40.3082-12.1906 39.6799-11.5863 39.6799-10.4761L39.6799 11.9716C39.6799 12.8972 40.2241 13.7124 41.3584 13.7124ZM61.0648 13.7124C62.2111 13.7124 62.7936 12.9475 62.7936 11.9716L62.7936 2.27766L72.2076 2.27766C73.1091 2.27766 73.7277 1.74543 73.7277 0.855877C73.7277-0.0336803 73.1211-0.539642 72.2076-0.539642L62.7936-0.539642L62.7936-9.31325L73.0678-9.31325C74.0557-9.31325 74.6623-9.81921 74.6623-10.7208C74.6623-11.6344 74.0557-12.1906 73.0678-12.1906L61.0528-12.1906C60.0146-12.1906 59.3863-11.5863 59.3863-10.4761L59.3863 11.9716C59.3863 12.8972 59.9425 13.7124 61.0648 13.7124Z"/>
</svg>