<svg xmlns="http://www.w3.org/2000/svg" viewBox="12.4609 -76.3833 93.55 82.2">
  <path d="M25.2403 5.81174L82.9411 5.81174C98.118 5.81174 102.868-0.889446 104.761-17.3071C106.007-27.935 106.007-38.3496 104.325-52.7157C102.37-70.2429 94.0652-76.3833 75.3302-74.277L28.0409-68.9188C17.6976-67.7613 12.4609-62.2514 12.4609-52.6437L12.4609-6.93155C12.4609 1.15011 16.9957 5.81174 25.2403 5.81174ZM32.9555-46.3523C32.0441-46.3523 31.2672-47.079 31.2672-48.0166C31.2672-48.9279 32.0441-49.7049 32.9555-49.7049L84.9829-49.7049C85.8943-49.7049 86.6712-48.9279 86.6712-48.0166C86.6712-47.079 85.8943-46.3523 84.9829-46.3523ZM32.9555-30.033C32.0441-30.033 31.2672-30.7597 31.2672-31.7093C31.2672-32.6589 32.0441-33.3856 32.9555-33.3856L84.9829-33.3856C85.8943-33.3856 86.6712-32.6589 86.6712-31.7093C86.6712-30.7597 85.8943-30.033 84.9829-30.033ZM32.9555-13.7137C32.0441-13.7137 31.2672-14.4906 31.2672-15.4019C31.2672-16.3396 32.0441-17.0662 32.9555-17.0662L84.9829-17.0662C85.8943-17.0662 86.6712-16.3396 86.6712-15.4019C86.6712-14.4906 85.8943-13.7137 84.9829-13.7137Z"/>
</svg>