<svg xmlns="http://www.w3.org/2000/svg" viewBox="12.4609 -81.0493 130.67 88.97">
  <path d="M117.481-40.5415C118.205-40.5415 118.843-40.9349 119.26-41.6112L142.703-78.0052C142.936-78.3483 143.13-78.9143 143.13-79.3175C143.13-80.3106 142.248-81.0493 141.315-81.0493C140.7-81.0493 140.11-80.7183 139.705-80.0802L117.382-45.2739L105.171-59.5888C104.656-60.1503 104.178-60.4476 103.526-60.4476C102.545-60.4476 101.708-59.6751 101.708-58.6174C101.708-58.176 101.943-57.6099 102.3-57.1663L115.626-41.5992C116.204-40.9108 116.718-40.5415 117.481-40.5415ZM106.523 7.92403C107.115 7.92403 107.545 7.73936 108.003 7.20713L139.632-24.4338C140.075-24.9157 140.248-25.2708 140.248-25.8511C140.248-26.8465 139.461-27.6332 138.303-27.6332C137.835-27.6332 137.392-27.4485 136.91-26.9786L105.245 4.71257C104.787 5.17048 104.59 5.53757 104.59 6.07957C104.59 7.07499 105.439 7.92403 106.523 7.92403ZM138.315 7.92403C139.461 7.92403 140.248 7.07499 140.248 6.07957C140.248 5.53757 140.063 5.17048 139.593 4.71257L107.979-26.9786C107.509-27.4485 107.065-27.6332 106.535-27.6332C105.439-27.6332 104.59-26.8465 104.59-25.8511C104.59-25.2708 104.775-24.9157 105.257-24.4338L136.886 7.20713C137.356 7.73936 137.785 7.92403 138.315 7.92403ZM19.4616 7.79493L86.5697 7.79493C90.8455 7.79493 93.5824 5.50391 93.5824 2.03359C93.5824-10.4131 78.0588-27.6069 53.0408-27.6069C28.0349-27.6069 12.4609-10.4131 12.4609 2.03359C12.4609 5.50391 15.2481 7.79493 19.4616 7.79493ZM53.1414-36.3799C63.8098-36.3799 72.1256-45.5867 72.1256-57.559C72.1256-68.8654 63.6589-78.2659 53.1414-78.2659C42.6359-78.2659 34.1189-68.8174 34.1189-57.535C34.1189-45.5867 42.4851-36.3799 53.1414-36.3799Z" />
</svg>