<svg xmlns="http://www.w3.org/2000/svg" viewBox="12.4609 -84.8643 101.08 99.21">
  <path d="M16.9364 6.95184L109.078 6.95184L109.078 4.99782C109.078 4.16304 108.524 3.65933 107.678 3.65933L104.562 3.65933L104.562-55.6042L109.24-55.6042C110.532-55.6042 111.183-56.439 111.183-57.4246C111.183-58.0004 110.84-58.679 110.002-59.1707L67.9303-83.4598C66.3389-84.3921 64.6612-84.8643 63.0075-84.8643C61.3417-84.8643 59.6137-84.3921 58.0223-83.4598L15.9501-59.1707C15.1514-58.679 14.8203-58.0004 14.8203-57.4246C14.8203-56.439 15.4201-55.6042 16.7631-55.6042L21.4525-55.6042L21.4525 3.65933L18.3372 3.65933C17.4905 3.65933 16.9364 4.16304 16.9364 4.99782ZM24.9852 3.65933L24.9852-60.1202L60.0679-80.0779C60.9687-80.5906 61.9941-80.8781 63.0075-80.8781C64.0088-80.8781 64.9839-80.5906 65.8847-80.0779L101.042-60.1202L101.042 3.65933ZM14.2814 14.343L111.722 14.343C112.693 14.343 113.542 13.494 113.542 12.5106C113.542 11.4889 112.693 10.6901 111.722 10.6901L14.2814 10.6901C13.2597 10.6901 12.4609 11.4889 12.4609 12.5106C12.4609 13.494 13.2597 14.343 14.2814 14.343ZM53.7165-12.9608C54.7044-12.9608 55.347-13.6537 55.347-14.6296L55.347-28.546L64.6852-28.546C72.9147-28.546 78.1941-34.0296 78.1941-41.7607C78.1941-49.5202 72.9868-54.901 64.7595-54.901L53.6783-54.901C52.6401-54.901 52.0598-54.2967 52.0598-53.2082L52.0598-14.6296C52.0598-13.6537 52.7407-12.9608 53.7165-12.9608ZM55.347-31.4278L55.347-52.0694L64.0066-52.0694C70.4525-52.0694 74.8325-48.3672 74.8325-41.7607C74.8325-35.1902 70.4765-31.4278 64.0066-31.4278ZM47.5663-45.4224C47.5663-44.7655 48.0745-44.3196 48.6811-44.3196L81.0045-44.3196C81.6111-44.3196 82.1193-44.8278 82.1193-45.4224C82.1193-46.0049 81.6111-46.5131 81.0045-46.5131L48.6811-46.5131C48.0745-46.5131 47.5663-46.0049 47.5663-45.4224ZM47.5663-37.9743C47.5663-37.3295 48.0745-36.9339 48.6811-36.9339L81.0045-36.9339C81.6111-36.9339 82.1193-37.3918 82.1193-37.9743C82.1193-38.5689 81.6111-39.0651 81.0045-39.0651L48.6811-39.0651C48.0745-39.0651 47.5663-38.5689 47.5663-37.9743Z"/>
</svg>