<svg xmlns="http://www.w3.org/2000/svg" viewBox="8.72266 -83.0642 95.74 95.73">
  <path d="M56.5885 12.6675C82.9179 12.6675 104.466-8.88095 104.466-35.1983C104.466-61.5157 82.9179-83.0642 56.5885-83.0642C30.2711-83.0642 8.72266-61.5157 8.72266-35.1983C8.72266-8.88095 30.2711 12.6675 56.5885 12.6675ZM44.9375-23.672C36.7756-31.8339 30.6697-41.4288 30.6697-49.3415C30.6697-52.8306 31.9158-55.9458 34.2211-58.1768C35.841-59.6841 38.084-61.1674 39.9029-61.1674C41.4485-61.1674 42.4453-60.0459 43.7537-58.1768L48.4266-51.5965C49.4978-50.1515 49.8596-48.9797 49.8596-47.9085C49.8596-46.9619 49.6224-46.2886 48.913-45.0928L46.3585-40.6571C46.1213-40.2833 45.9224-39.9718 45.9224-39.61C45.9224-39.1618 46.071-38.7257 46.2339-38.4142C47.3434-36.2192 49.3612-33.6167 51.9659-30.9999C54.645-28.2945 57.5734-26.0275 59.7037-25.0307C60.2525-24.7935 60.6143-24.6568 61.1247-24.6568C61.4986-24.6568 61.7478-24.7814 62.2462-25.0307L66.6819-27.4605C68.0766-28.2322 68.8625-28.4071 69.7228-28.4071C70.7317-28.4071 71.429-28.2202 73.1615-26.9741L79.9407-22.1144C81.7716-20.806 82.5072-19.6965 82.5072-18.575C82.5072-17.0174 81.8339-15.3854 79.7658-13.0802C77.6475-10.7629 74.4699-9.2293 70.7437-9.2293C62.9316-9.2293 53.0994-15.5101 44.9375-23.672Z"/>
</svg>