<svg xmlns="http://www.w3.org/2000/svg" viewBox="8.72266 -83.1265 95.74 95.73">
  <path d="M56.5885 12.6052C83.0185 12.6052 104.466-8.83065 104.466-35.2606C104.466-61.6906 83.0185-83.1265 56.5885-83.1265C30.1705-83.1265 8.72266-61.6906 8.72266-35.2606C8.72266-8.83065 30.1705 12.6052 56.5885 12.6052ZM56.5885 8.86824C32.1734 8.86824 12.4213-10.8455 12.4213-35.2606C12.4213-59.6758 32.1734-79.3895 56.5885-79.3895C81.0036-79.3895 100.717-59.6758 100.717-35.2606C100.717-10.8455 81.0036 8.86824 56.5885 8.86824ZM37.5375-24.6794C37.5375-23.1405 38.6688-22.1602 40.3825-22.1602L54.8334-22.1602L54.8334-10.4132C54.8334-7.1215 55.9557-4.19687 56.5382-4.19687C57.1327-4.19687 58.3053-7.1215 58.3053-10.4132L58.3053-22.1602L72.7059-22.1602C74.4579-22.1602 75.6012-23.1405 75.6012-24.6794C75.6012-30.5308 71.0867-36.1262 64.0703-38.4795L63.1981-51.2797C65.7534-52.8831 68.8205-55.1884 70.3301-57.1603C70.9652-57.9823 71.327-58.8163 71.327-59.4634C71.327-60.681 70.4329-61.5127 69.0164-61.5127L44.1103-61.5127C42.7561-61.5127 41.8117-60.681 41.8117-59.4634C41.8117-58.766 42.2741-57.8817 43.0098-56.9592C44.5193-55.0375 47.4859-52.8328 49.9286-51.2797L49.0684-38.4795C42.052-36.1262 37.5375-30.5308 37.5375-24.6794Z" />
</svg>