<svg xmlns="http://www.w3.org/2000/svg" viewBox="18.6914 -83.5709 55.14 96.66">
  <path d="M33.0126-44.7723L59.5109-44.7723C62.2665-44.7723 63.9608-46.4665 63.9608-49.2462L63.9608-59.7794C63.9608-62.5591 62.2665-64.2533 59.5109-64.2533L33.0126-64.2533C30.257-64.2533 28.5627-62.5591 28.5627-59.7794L28.5627-49.2462C28.5627-46.4665 30.257-44.7723 33.0126-44.7723ZM33.0126-6.68233L59.5109-6.68233C62.2665-6.68233 63.9608-8.37657 63.9608-11.1563L63.9608-21.7397C63.9608-24.5194 62.2665-26.2137 59.5109-26.2137L33.0126-26.2137C30.257-26.2137 28.5627-24.5194 28.5627-21.7397L28.5627-11.1563C28.5627-8.37657 30.257-6.68233 33.0126-6.68233ZM18.6914 1.29729C18.6914 8.94875 22.8403 13.0879 30.5759 13.0879L61.9356 13.0879C69.6209 13.0879 73.8321 8.94875 73.8321 1.29729L73.8321-71.7803C73.8321-79.4318 69.6209-83.5709 61.9356-83.5709L30.5759-83.5709C22.8403-83.5709 18.6914-79.4318 18.6914-71.7803ZM22.3323 0.996987L22.3323-71.48C22.3323-77.3208 25.0279-79.9301 30.9047-79.9301L61.6068-79.9301C67.4956-79.9301 70.1792-77.3208 70.1792-71.48L70.1792 0.996987C70.1792 6.83779 67.4956 9.49735 61.6068 9.49735L30.9047 9.49735C25.0279 9.49735 22.3323 6.83779 22.3323 0.996987Z"/>
</svg>