<svg xmlns="http://www.w3.org/2000/svg" viewBox="8.72266 -87.2235 103.96 98.84">
  <path d="M74.81-2.55134L92.4526-2.55134C94.8263-2.55134 95.4884-4.84091 93.9277-6.36328L62.9631-37.3782C61.2418-39.0492 58.4516-38.2843 58.4516-35.7312L58.4516 8.39844C58.4516 10.4891 60.552 11.6203 62.1825 10.0139ZM60.6856-68.0208C61.7936-68.0208 62.7289-68.9441 62.7289-70.0641L62.7289-85.2305C62.7289-86.2882 61.7936-87.2235 60.6856-87.2235C59.6158-87.2235 58.6925-86.2882 58.6925-85.2305L58.6925-70.0641C58.6925-68.9441 59.6158-68.0208 60.6856-68.0208ZM83.8778-58.4026C84.5902-57.6399 85.9572-57.6399 86.7199-58.4026L97.4626-69.107C98.2133-69.92 98.2133-71.2247 97.4626-72.0377C96.6999-72.7501 95.3449-72.7501 94.5822-72.0377L83.8778-61.295C83.0648-60.5323 83.0648-59.1653 83.8778-58.4026ZM93.4337-35.2606C93.4337-34.2029 94.4193-33.2173 95.477-33.2173L110.643-33.2173C111.713-33.2173 112.687-34.2029 112.687-35.2606C112.687-36.3184 111.713-37.304 110.643-37.304L95.477-37.304C94.4193-37.304 93.4337-36.3184 93.4337-35.2606ZM37.5316-12.1187C36.8312-12.8814 35.4139-12.8814 34.7015-12.1187L23.9588-1.41428C23.1961-0.601285 23.1961 0.703416 23.9588 1.51641C24.7095 2.22882 26.0645 2.22882 26.8272 1.51641L37.5316-9.22626C38.3446-9.98897 38.3446-11.356 37.5316-12.1187ZM27.9757-35.2606C27.9757-36.3184 26.9901-37.304 25.9323-37.304L10.766-37.304C9.65802-37.304 8.72266-36.3184 8.72266-35.2606C8.72266-34.2029 9.65802-33.2173 10.766-33.2173L25.9323-33.2173C26.9901-33.2173 27.9757-34.2029 27.9757-35.2606ZM37.5316-58.4026C38.3446-59.1653 38.3446-60.5323 37.5316-61.295L26.8272-72.0377C26.0645-72.7501 24.7095-72.7501 23.9588-72.0377C23.1961-71.2247 23.1961-69.92 23.9588-69.107L34.7015-58.4026C35.4139-57.6399 36.8312-57.6399 37.5316-58.4026Z" />
</svg>