<svg xmlns="http://www.w3.org/2000/svg" viewBox="9.38847 -72.2442 128.29 73.96">
  <path d="M40.0366-72.2442C36.3319-72.2442 33.5725-70.8847 31.4908-68.0478L11.7959-40.6198C9.42675-37.3708 9.38847-33.2608 11.6953-30.0742L31.4788-2.49749C33.4884 0.267284 36.3778 1.71085 40.0366 1.71085L106.965 1.71085C110.624 1.71085 113.525 0.267284 115.523-2.49749L135.369-30.0742C137.675-33.2608 137.587-37.3708 135.256-40.6198L115.511-68.0478C113.479-70.8847 110.72-72.2442 106.965-72.2442ZM39.7031-44.0434C44.5006-44.0434 48.4378-40.1182 48.4378-35.3207C48.4378-30.5232 44.5006-26.586 39.7031-26.586C34.9057-26.586 30.9805-30.5232 30.9805-35.3207C30.9805-40.1182 34.9057-44.0434 39.7031-44.0434ZM73.5008-31.2739C78.2982-31.2739 82.2234-27.3367 82.2234-22.5393C82.2234-17.7418 78.2982-13.8166 73.5008-13.8166C68.7033-13.8166 64.7781-17.7418 64.7781-22.5393C64.7781-27.3367 68.7033-31.2739 73.5008-31.2739ZM107.31-44.0434C112.108-44.0434 116.033-40.1182 116.033-35.3207C116.033-30.5232 112.108-26.586 107.31-26.586C102.513-26.586 98.5758-30.5232 98.5758-35.3207C98.5758-40.1182 102.513-44.0434 107.31-44.0434Z"/>
</svg>