<svg xmlns="http://www.w3.org/2000/svg" viewBox="8.72266 -86.232 95.74 98.84">
  <path d="M56.5885 12.6052C83.0185 12.6052 104.466-8.83065 104.466-35.2606C104.466-51.7466 96.3893-64.2556 87.4602-71.7952C85.4168-73.6156 82.9726-70.7975 85.0159-69.0034C94.7895-60.7342 100.717-48.7965 100.717-35.2606C100.717-10.8455 81.0036 8.86824 56.5885 8.86824C32.1734 8.86824 12.4213-10.8455 12.4213-35.2606C12.4213-48.8205 18.4116-60.7462 28.1731-69.0154C30.1782-70.7713 27.7962-73.5796 25.6905-71.7832C16.7877-64.2413 8.72266-51.6505 8.72266-35.2606C8.72266-8.83065 30.1705 12.6052 56.5885 12.6052ZM56.5885-36.238C57.62-36.238 58.4089-37.051 58.4089-38.1065L58.4089-84.3515C58.4089-85.4572 57.62-86.232 56.5885-86.232C55.569-86.232 54.7681-85.4572 54.7681-84.3515L54.7681-38.1065C54.7681-37.051 55.569-36.238 56.5885-36.238Z" />
</svg>