<svg xmlns="http://www.w3.org/2000/svg" viewBox="12.4609 -76.7241 128.33 83.19">
  <path d="M19.5585-37.6207L68.5307-37.6207C73.1571-37.6207 75.59-39.8142 75.59-44.7783L75.59-69.6288C75.59-74.593 73.1571-76.7241 68.5307-76.7241L19.5585-76.7241C14.9441-76.7241 12.4609-74.593 12.4609-69.6288L12.4609-44.7783C12.4609-39.8142 14.9441-37.6207 19.5585-37.6207ZM31.8753 6.46633L74.7011 6.46633C79.3275 6.46633 81.7604 4.28488 81.7604-0.679299L81.7604-19.2993C81.7604-24.2635 79.3275-26.4569 74.7011-26.4569L31.8753-26.4569C27.2489-26.4569 24.7657-24.2635 24.7657-19.2993L24.7657-0.679299C24.7657 4.28488 27.2489 6.46633 31.8753 6.46633ZM97.7848 1.25822L133.733 1.25822C138.371 1.25822 140.792-0.884957 140.792-5.84914L140.792-63.7594C140.792-68.7115 138.371-70.8667 133.733-70.8667L97.7848-70.8667C93.1584-70.8667 90.6752-68.7115 90.6752-63.7594L90.6752-5.84914C90.6752-0.884957 93.1584 1.25822 97.7848 1.25822Z"/>
</svg>