<svg xmlns="http://www.w3.org/2000/svg" viewBox="8.72266 -88.0748 105.62 105.68">
  <path d="M61.5368 17.6038C90.6865 17.6038 114.339-6.04872 114.339-35.2606C114.339-64.4223 90.6865-88.0748 61.5368-88.0748C32.3752-88.0748 8.72266-64.4223 8.72266-35.2606C8.72266-6.04872 32.3752 17.6038 61.5368 17.6038ZM61.5368 0.897854C41.5513 0.897854 25.3783-15.2751 25.3783-35.2606C25.3783-55.2462 41.5513-71.4191 61.5368-71.4191C81.5104-71.4191 97.6833-55.2462 97.6833-35.2606C97.6833-15.2751 81.5104 0.897854 61.5368 0.897854ZM44.2491-14.6775C45.0644-14.6775 45.6086-15.1835 45.6086-16.073L45.6086-52.4319L57.836-52.4319C63.7715-52.4319 65.9071-50.4314 65.9071-43.9375L65.9071-27.8472C65.9071-26.9576 66.4514-26.3773 67.3289-26.3773C68.1562-26.3773 68.6621-26.9576 68.6621-27.8472L68.6621-44.544C68.6621-51.4847 66.2577-55.3956 58.7376-55.3956L44.8654-55.3956C43.6568-55.3956 42.8536-54.6427 42.8536-53.3958L42.8536-16.073C42.8536-15.1835 43.4099-14.6775 44.2491-14.6775ZM56.325-14.9748L69.951-14.9748C77.6438-14.9748 80.208-18.8047 80.208-26.5478L80.208-54.2733C80.208-55.1749 79.6638-55.7432 78.8868-55.7432C77.9973-55.7432 77.441-55.1749 77.441-54.2733L77.441-26.5455C77.441-20.1139 75.5914-17.9265 69.1598-17.9265L57.1545-17.9265L57.1545-42.6741C57.1545-43.5637 56.6103-44.1319 55.7447-44.1319C54.9678-44.1319 54.3995-43.5637 54.3995-42.6741L54.3995-16.9266C54.3995-15.6917 55.1262-14.9748 56.325-14.9748Z" />
</svg>