<svg xmlns="http://www.w3.org/2000/svg" viewBox="8.72266 -83.1265 95.74 95.73">
  <path d="M56.5885 12.6052C82.9179 12.6052 104.466-8.94325 104.466-35.2606C104.466-61.578 82.9179-83.1265 56.5885-83.1265C30.2711-83.1265 8.72266-61.578 8.72266-35.2606C8.72266-8.94325 30.2711 12.6052 56.5885 12.6052ZM56.5885-9.22851C42.1766-9.22851 30.5301-20.8367 30.5301-35.2486C30.5301-49.6606 42.1766-61.3191 56.5885-61.3191C71.0124-61.3191 82.6086-49.6606 82.6086-35.2486C82.6086-20.8367 71.0124-9.22851 56.5885-9.22851ZM37.0706-22.6488L45.8931-22.7734L49.5526-27.4658L46.7564-36.2042L39.9456-38.9554L33.3947-35.2629C33.4067-30.5255 34.7654-26.2625 37.0706-22.6488ZM38.4436-49.7438L40.89-41.7554L47.5739-39.0545L55.1382-44.8841L55.1382-51.7406L48.561-57.0455C44.5614-55.6125 41.0724-53.046 38.4436-49.7438ZM74.7574-49.7438C72.1406-53.046 68.5893-55.6125 64.5898-57.0455L58.0748-51.8652L58.0748-44.8841L65.6392-39.0545L72.3231-41.7554ZM76.1304-22.6248C78.4357-26.2265 79.8064-30.5255 79.8184-35.2629L73.2674-38.9554L66.4446-36.2042L63.6605-27.4538L67.2959-22.7494ZM56.6005-12.0045C58.8818-12.0045 61.0504-12.316 63.1568-12.9391L65.0161-20.9013L61.7808-25.0952L51.3962-25.0952L48.1969-20.9373L50.0563-12.9391C52.1506-12.316 54.3193-12.0045 56.6005-12.0045Z"/>
</svg>