<svg xmlns="http://www.w3.org/2000/svg" viewBox="8.72266 -83.1265 95.74 95.73">
  <path d="M56.5885 12.6052C83.0185 12.6052 104.466-8.83065 104.466-35.2606C104.466-61.6906 83.0185-83.1265 56.5885-83.1265C30.1705-83.1265 8.72266-61.6906 8.72266-35.2606C8.72266-8.83065 30.1705 12.6052 56.5885 12.6052ZM56.5885 8.86824C32.1734 8.86824 12.4213-10.8455 12.4213-35.2606C12.4213-59.6758 32.1734-79.3895 56.5885-79.3895C81.0036-79.3895 100.717-59.6758 100.717-35.2606C100.717-10.8455 81.0036 8.86824 56.5885 8.86824ZM27.0651-26.4382L32.6364-26.4382C34.9987-26.4382 36.0481-27.5116 36.0481-29.8619L36.0481-40.4462C36.0481-42.7582 34.9987-43.8579 32.6364-43.8579L27.0651-43.8579ZM34.4681-14.827L55.2103-14.827L55.2103-24.1944C49.6749-24.8775 45.4239-29.5264 45.4239-35.2104C45.4239-40.8943 49.6749-45.5552 55.2103-46.2263L55.2103-55.4932L34.4681-55.4932C29.7156-55.4932 27.0651-52.7923 27.0651-48.0278L27.0651-46.528L32.5861-46.528C36.4993-46.528 38.7566-44.2588 38.7566-40.3959L38.7566-29.9122C38.7566-26.0613 36.4993-23.7801 32.5861-23.7801L27.0651-23.7801L27.0651-22.2923C27.0651-17.5278 29.7156-14.827 34.4681-14.827ZM55.2103-26.8405L55.2103-43.5802C51.0914-42.9714 48.1203-39.5281 48.1203-35.2104C48.1203-30.8926 51.0914-27.411 55.2103-26.8405ZM57.9547-26.8405C62.0736-27.411 65.0446-30.8926 65.0446-35.2104C65.0446-39.5281 62.0736-42.9714 57.9547-43.5802ZM57.9547-14.827L78.6969-14.827C83.4493-14.827 86.0879-17.5278 86.0879-22.2923L86.0879-23.7801L80.5285-23.7801C76.6154-23.7801 74.4084-26.0613 74.4084-29.9122L74.4084-40.3959C74.4084-44.2588 76.6154-46.528 80.5285-46.528L86.0879-46.528L86.0879-48.0278C86.0879-52.7923 83.4493-55.4932 78.6969-55.4932L57.9547-55.4932L57.9547-46.2263C63.4901-45.5552 67.729-40.8943 67.729-35.2104C67.729-29.5264 63.4901-24.8775 57.9547-24.1944ZM86.0879-26.4382L86.0879-43.8579L80.4783-43.8579C78.1662-43.8579 77.1168-42.7582 77.1168-40.4462L77.1168-29.8619C77.1168-27.5116 78.1662-26.4382 80.4783-26.4382Z" />
</svg>