<svg xmlns="http://www.w3.org/2000/svg" viewBox="12.4609 -77.9912 85.59 85.59">
  <path d="M14.5689 7.59455C15.7272 7.59455 16.6768 6.63292 16.6768 5.48662C16.6768 4.34032 15.7272 3.37869 14.5689 3.37869C13.3723 3.37869 12.4609 4.34032 12.4609 5.48662C12.4609 6.63292 13.3723 7.59455 14.5689 7.59455ZM14.5689-6.05018C15.7272-6.05018 16.6768-7.01181 16.6768-8.15811C16.6768-9.30441 15.7272-10.266 14.5689-10.266C13.3723-10.266 12.4609-9.30441 12.4609-8.15811C12.4609-7.01181 13.3723-6.05018 14.5689-6.05018ZM14.5689-19.5703C15.7272-19.5703 16.6768-20.5319 16.6768-21.6782C16.6768-22.8245 15.7272-23.7862 14.5689-23.7862C13.3723-23.7862 12.4609-22.8245 12.4609-21.6782C12.4609-20.5319 13.3723-19.5703 14.5689-19.5703ZM14.5689-33.1527C15.7272-33.1527 16.6768-34.1143 16.6768-35.2606C16.6768-36.4069 15.7272-37.3686 14.5689-37.3686C13.3723-37.3686 12.4609-36.4069 12.4609-35.2606C12.4609-34.1143 13.3723-33.1527 14.5689-33.1527ZM14.5689-46.7351C15.7272-46.7351 16.6768-47.6968 16.6768-48.8431C16.6768-49.9894 15.7272-50.951 14.5689-50.951C13.3723-50.951 12.4609-49.9894 12.4609-48.8431C12.4609-47.6968 13.3723-46.7351 14.5689-46.7351ZM14.5689-60.1929C15.7272-60.1929 16.6768-61.1546 16.6768-62.3009C16.6768-63.4472 15.7272-64.4088 14.5689-64.4088C13.3723-64.4088 12.4609-63.4472 12.4609-62.3009C12.4609-61.1546 13.3723-60.1929 14.5689-60.1929ZM14.5689-73.7754C15.7272-73.7754 16.6768-74.737 16.6768-75.8833C16.6768-77.0296 15.7272-77.9912 14.5689-77.9912C13.3723-77.9912 12.4609-77.0296 12.4609-75.8833C12.4609-74.737 13.3723-73.7754 14.5689-73.7754ZM28.1513-73.7754C29.3096-73.7754 30.2592-74.737 30.2592-75.8833C30.2592-77.0296 29.3096-77.9912 28.1513-77.9912C26.9547-77.9912 26.0434-77.0296 26.0434-75.8833C26.0434-74.737 26.9547-73.7754 28.1513-73.7754ZM41.6714-73.7754C42.8297-73.7754 43.7793-74.737 43.7793-75.8833C43.7793-77.0296 42.8297-77.9912 41.6714-77.9912C40.4748-77.9912 39.5635-77.0296 39.5635-75.8833C39.5635-74.737 40.4748-73.7754 41.6714-73.7754ZM55.2538-73.7754C56.4121-73.7754 57.3618-74.737 57.3618-75.8833C57.3618-77.0296 56.4121-77.9912 55.2538-77.9912C54.0572-77.9912 53.1459-77.0296 53.1459-75.8833C53.1459-74.737 54.0572-73.7754 55.2538-73.7754ZM68.8363-73.7754C69.9946-73.7754 70.9442-74.737 70.9442-75.8833C70.9442-77.0296 69.9946-77.9912 68.8363-77.9912C67.6397-77.9912 66.7283-77.0296 66.7283-75.8833C66.7283-74.737 67.6397-73.7754 68.8363-73.7754ZM82.3564-73.7754C83.5147-73.7754 84.4643-74.737 84.4643-75.8833C84.4643-77.0296 83.5147-77.9912 82.3564-77.9912C81.1598-77.9912 80.2484-77.0296 80.2484-75.8833C80.2484-74.737 81.1598-73.7754 82.3564-73.7754ZM95.9388-73.7754C97.0971-73.7754 98.0467-74.737 98.0467-75.8833C98.0467-77.0296 97.0971-77.9912 95.9388-77.9912C94.7422-77.9912 93.8309-77.0296 93.8309-75.8833C93.8309-74.737 94.7422-73.7754 95.9388-73.7754ZM95.9388-60.1809C97.0971-60.1809 98.0467-61.1426 98.0467-62.2889C98.0467-63.4472 97.0971-64.3968 95.9388-64.3968C94.7422-64.3968 93.8309-63.4472 93.8309-62.2889C93.8309-61.1426 94.7422-60.1809 95.9388-60.1809ZM95.9388-46.7231C97.0971-46.7231 98.0467-47.6848 98.0467-48.8311C98.0467-49.9894 97.0971-50.939 95.9388-50.939C94.7422-50.939 93.8309-49.9894 93.8309-48.8311C93.8309-47.6848 94.7422-46.7231 95.9388-46.7231ZM95.9388-33.1407C97.0971-33.1407 98.0467-34.1023 98.0467-35.2486C98.0467-36.4069 97.0971-37.3566 95.9388-37.3566C94.7422-37.3566 93.8309-36.4069 93.8309-35.2486C93.8309-34.1023 94.7422-33.1407 95.9388-33.1407ZM95.9388-19.5583C97.0971-19.5583 98.0467-20.5199 98.0467-21.6662C98.0467-22.8245 97.0971-23.7741 95.9388-23.7741C94.7422-23.7741 93.8309-22.8245 93.8309-21.6662C93.8309-20.5199 94.7422-19.5583 95.9388-19.5583ZM95.9388-6.03816C97.0971-6.03816 98.0467-6.99979 98.0467-8.14609C98.0467-9.30441 97.0971-10.254 95.9388-10.254C94.7422-10.254 93.8309-9.30441 93.8309-8.14609C93.8309-6.99979 94.7422-6.03816 95.9388-6.03816ZM95.9388 7.59455C97.0971 7.59455 98.0467 6.63292 98.0467 5.48662C98.0467 4.34032 97.0971 3.37869 95.9388 3.37869C94.7422 3.37869 93.8309 4.34032 93.8309 5.48662C93.8309 6.63292 94.7422 7.59455 95.9388 7.59455ZM82.3564 7.59455C83.5147 7.59455 84.4643 6.63292 84.4643 5.48662C84.4643 4.34032 83.5147 3.37869 82.3564 3.37869C81.1598 3.37869 80.2484 4.34032 80.2484 5.48662C80.2484 6.63292 81.1598 7.59455 82.3564 7.59455ZM68.8363 7.59455C69.9946 7.59455 70.9442 6.63292 70.9442 5.48662C70.9442 4.34032 69.9946 3.37869 68.8363 3.37869C67.6397 3.37869 66.7283 4.34032 66.7283 5.48662C66.7283 6.63292 67.6397 7.59455 68.8363 7.59455ZM55.2538 7.59455C56.4121 7.59455 57.3618 6.63292 57.3618 5.48662C57.3618 4.34032 56.4121 3.37869 55.2538 3.37869C54.0572 3.37869 53.1459 4.34032 53.1459 5.48662C53.1459 6.63292 54.0572 7.59455 55.2538 7.59455ZM41.6714 7.59455C42.8297 7.59455 43.7793 6.63292 43.7793 5.48662C43.7793 4.34032 42.8297 3.37869 41.6714 3.37869C40.4748 3.37869 39.5635 4.34032 39.5635 5.48662C39.5635 6.63292 40.4748 7.59455 41.6714 7.59455ZM28.1513 7.59455C29.3096 7.59455 30.2592 6.63292 30.2592 5.48662C30.2592 4.34032 29.3096 3.37869 28.1513 3.37869C26.9547 3.37869 26.0434 4.34032 26.0434 5.48662C26.0434 6.63292 26.9547 7.59455 28.1513 7.59455ZM30.0068-12.8279C30.0068-11.2793 30.985-10.3012 32.5336-10.3012L77.9238-10.3012C79.5227-10.3012 80.5008-11.2793 80.5008-12.8279L80.5008-57.6934C80.5008-59.242 79.5227-60.2201 77.9238-60.2201L32.5336-60.2201C30.985-60.2201 30.0068-59.242 30.0068-57.6934ZM33.6477-14.9967L33.6477-55.5246C33.6477-56.2054 34.0215-56.5793 34.7024-56.5793L75.8173-56.5793C76.4861-56.5793 76.86-56.2054 76.86-55.5246L76.86-14.9967C76.86-14.3158 76.4861-13.942 75.8173-13.942L34.7024-13.942C34.0215-13.942 33.6477-14.3158 33.6477-14.9967Z"/>
</svg>