<svg xmlns="http://www.w3.org/2000/svg" viewBox="8.72266 -89.5559 105.63 103.95">
  <path d="M8.72266-50.8924C8.72266-31.975 22.1933-16.3215 40.1498-12.9165L40.1498-16.447C23.9874-19.7154 12.2674-33.6686 12.2674-50.8924C12.2674-70.5866 27.6919-86.0231 47.3861-86.0231C64.1543-86.0231 77.8125-74.8309 81.5485-59.3711L85.1413-59.3711C81.2687-76.6993 65.8479-89.5559 47.3861-89.5559C26.0366-89.5559 8.72266-72.2419 8.72266-50.8924ZM52.0989 14.3978L101.183 14.3978C109.801 14.3978 114.355 9.88029 114.355 1.27393L114.355-47.8942C114.355-56.5006 109.801-61.0181 101.183-61.0181L52.0989-61.0181C43.4685-61.0181 38.927-56.5006 38.927-47.8942L38.927 1.27393C38.927 9.88029 43.4685 14.3978 52.0989 14.3978ZM52.2235 10.7569C45.8767 10.7569 42.5798 7.47206 42.5798 1.07724L42.5798-47.6976C42.5798-54.0924 45.8767-57.3772 52.2235-57.3772L101.058-57.3772C107.405-57.3772 110.702-54.0924 110.702-47.6976L110.702 1.07724C110.702 7.47206 107.405 10.7569 101.058 10.7569Z"/>
</svg>