<svg xmlns="http://www.w3.org/2000/svg" viewBox="12.4609 -94.0606 99.11 117.65">
  <path d="M62.0233 23.5896C74.0083 23.5896 75.9878 13.6831 85.2006 13.6831C94.6003 13.6831 95.947 23.5896 109.624 23.5896L109.873 23.5896C110.835 23.5896 111.574 22.8509 111.574 21.8893C111.574 20.9659 110.835 20.1769 109.873 20.1769L109.624 20.1769C103.811 20.1769 100.442 17.6562 96.766 15.0897C93.5885 12.7845 90.0919 10.2705 85.2006 10.2705C80.1607 10.2705 76.6521 12.9211 73.4745 15.2887C70.1101 17.8431 66.9521 20.1769 62.0233 20.1769C57.0824 20.1769 53.9244 17.8431 50.56 15.2887C47.3824 12.9211 43.8739 10.2705 38.8459 10.2705C33.9426 10.2705 30.4963 12.7845 27.3188 15.0897C23.6428 17.6562 20.2235 20.1769 14.4225 20.1769L14.1733 20.1769C13.2499 20.1769 12.4609 20.9659 12.4609 21.8893C12.4609 22.8509 13.2499 23.5896 14.1733 23.5896L14.4225 23.5896C28.0995 23.5896 29.4462 13.6831 38.8459 13.6831C48.0587 13.6831 50.0262 23.5896 62.0233 23.5896ZM62.0112 0.80849C88.2393 0.80849 109.471-20.4352 109.471-46.6009C109.471-72.8289 88.2393-94.0606 62.0112-94.0606C35.7952-94.0606 14.5516-72.8289 14.5516-46.6009C14.5516-20.4352 35.7952 0.80849 62.0112 0.80849ZM22.2348-64.5358C28.8609-79.7132 44.2741-90.458 61.9872-90.458C79.7124-90.458 95.1255-79.7132 101.764-64.5478C102.524-63.078 101.942-61.7132 100.44-61.7132L23.5583-61.7132C22.0689-61.7132 21.4624-63.078 22.2348-64.5358ZM61.9489-32.2146C56.3941-32.2146 51.8841-36.624 51.8841-42.2794C51.8841-47.8726 56.3941-52.3443 61.9489-52.3443C67.5924-52.3443 72.1144-47.8726 72.1144-42.2794C72.1144-36.624 67.5924-32.2146 61.9489-32.2146ZM19.3477-36.7132C18.9161-38.3437 19.5279-39.4126 21.2897-39.3405C38.0998-39.0305 51.529-24.142 49.6945-7.62614C49.5939-5.82603 48.3665-4.94849 46.6813-5.65338C33.0456-10.7263 22.6904-22.3517 19.3477-36.7132ZM104.663-36.7132C101.32-22.3517 90.9528-10.7263 77.3675-5.65338C75.644-4.94849 74.4046-5.82603 74.304-7.62614C72.57-23.9912 85.7478-39.0305 102.721-39.3405C104.471-39.4126 105.082-38.3437 104.663-36.7132Z" />
</svg>