<svg xmlns="http://www.w3.org/2000/svg" viewBox="12.4609 -84.8643 101.08 99.21">
  <path d="M16.9364 6.95184L109.078 6.95184L109.078 4.99782C109.078 4.16304 108.524 3.65933 107.678 3.65933L104.562 3.65933L104.562-55.6042L109.24-55.6042C110.532-55.6042 111.183-56.439 111.183-57.4246C111.183-58.0004 110.84-58.679 110.002-59.1707L67.9303-83.4598C66.3389-84.3921 64.6612-84.8643 63.0075-84.8643C61.3417-84.8643 59.6137-84.3921 58.0223-83.4598L15.9501-59.1707C15.1514-58.679 14.8203-58.0004 14.8203-57.4246C14.8203-56.439 15.4201-55.6042 16.7631-55.6042L21.4525-55.6042L21.4525 3.65933L18.3372 3.65933C17.4905 3.65933 16.9364 4.16304 16.9364 4.99782ZM24.9852 3.65933L24.9852-60.1202L60.0679-80.0779C60.9687-80.5906 61.9941-80.8781 63.0075-80.8781C64.0088-80.8781 64.9839-80.5906 65.8847-80.0779L101.042-60.1202L101.042 3.65933ZM14.2814 14.343L111.722 14.343C112.693 14.343 113.542 13.494 113.542 12.5106C113.542 11.4889 112.693 10.6901 111.722 10.6901L14.2814 10.6901C13.2597 10.6901 12.4609 11.4889 12.4609 12.5106C12.4609 13.494 13.2597 14.343 14.2814 14.343ZM47.7976-14.1994L76.5801-14.1994C77.4456-14.1994 78.1002-14.7174 78.1002-15.6092C78.1002-16.4627 77.4456-17.043 76.5801-17.043L52.3497-17.043L52.3497-17.3688C56.5406-18.2846 58.788-23.338 58.788-27.4862C58.788-29.7861 58.424-31.5592 57.9113-33.2962L71.4809-33.2962C72.2864-33.2962 72.7923-33.7901 72.7923-34.5213C72.7923-35.2525 72.2361-35.7464 71.4809-35.7464L57.2807-35.7464C56.5954-37.9826 56.0301-40.0574 56.0301-42.7598C56.0301-48.178 59.6994-52.402 67.2037-52.402C69.5735-52.402 71.3585-52.1024 73.2344-51.4126C73.8672-51.1251 74.3874-51.0388 74.8213-51.0388C75.6628-51.0388 76.0442-51.4847 76.0442-52.2879C76.0442-53.0671 75.6268-53.4365 74.4933-53.9229C72.2548-54.9198 69.5667-55.3198 66.9206-55.3198C58.3316-55.3198 52.6566-50.6657 52.6566-42.5849C52.6566-40.1865 53.1452-38.0014 53.8306-35.7464L48.281-35.7464C47.5138-35.7464 46.9193-35.2022 46.9193-34.5213C46.9193-33.7901 47.5138-33.2962 48.281-33.2962L54.5617-33.2962C55.0865-31.2357 55.5248-29.35 55.5248-27.3375C55.5248-22.3869 52.4772-18.5699 47.6872-17.3403C46.9463-17.0813 46.3518-16.3982 46.3518-15.6332C46.3518-14.818 46.92-14.1994 47.7976-14.1994Z"/>
</svg>