<svg xmlns="http://www.w3.org/2000/svg" viewBox="12.4609 -71.5865 73.73 72.75">
  <path d="M13.9758-42.6538L84.7631-42.6538C85.6452-42.6538 86.1894-43.2363 86.1894-44.0298C86.1894-44.8112 85.6452-45.4057 84.7631-45.4057L13.9758-45.4057C13.0555-45.4057 12.4609-44.8112 12.4609-44.0298C12.4609-43.2363 13.0555-42.6538 13.9758-42.6538ZM13.9758-28.1451L84.7631-28.1451C85.6452-28.1451 86.1894-28.6893 86.1894-29.4828C86.1894-30.2643 85.6452-30.8588 84.7631-30.8588L13.9758-30.8588C13.0555-30.8588 12.4609-30.2643 12.4609-29.4828C12.4609-28.6893 13.0555-28.1451 13.9758-28.1451ZM49.4701 1.16582C64.6995 1.16582 74.6757-7.32188 74.6757-18.8851C74.6757-28.2721 68.4573-33.4531 54.7209-36.7793L46.5568-38.749C34.9239-41.5452 29.6408-45.6063 29.6408-52.6023C29.6408-61.6109 38.2853-68.1348 49.1563-68.1348C60.0122-68.1348 68.1988-62.3301 69.52-53.9633C69.7505-52.9634 70.2542-52.3688 71.3284-52.3688C72.4462-52.3688 73.1466-53.0955 73.1466-54.2395C73.1466-54.6472 73.0723-55.6343 72.8854-56.3819C70.8436-65.1406 61.6915-71.5865 49.1563-71.5865C36.1908-71.5865 25.6876-63.4771 25.6876-52.5085C25.6876-43.6702 31.7432-38.3908 45.0524-35.175L53.5071-33.0949C65.6669-30.1478 70.7608-26.0267 70.7608-18.6328C70.7608-9.39905 62.2597-2.28589 49.5586-2.28589C38.47-2.28589 29.4854-8.60335 27.7499-17.2959C27.4068-18.7845 27.0157-19.5682 25.8168-19.5682C24.6368-19.5682 23.9746-18.8558 23.9746-17.5991C23.9746-17.0549 24.0489-16.4221 24.2096-15.7652C26.4743-5.49775 36.3523 1.16582 49.4701 1.16582Z" />
</svg>