<svg xmlns="http://www.w3.org/2000/svg" viewBox="8.72266 -82.7451 88.15 90.66">
  <path d="M8.72266-27.6774C8.72266-15.9882 16.7487-7.89978 28.45-7.89978C35.5978-7.89978 41.7855-10.8371 44.74-16.1405L45.2385-16.1405C44.2424-9.18191 38.3249-3.72312 33.8713 0.565342C30.8611 3.52297 32.5509 7.9136 36.8094 7.9136L68.7829 7.9136C73.0414 7.9136 74.7312 3.52297 71.721 0.565342C67.2674-3.72312 61.3619-9.18191 60.3538-16.1405L60.8523-16.1405C63.8572-10.8371 70.0066-7.89978 77.1543-7.89978C88.8556-7.89978 96.8697-15.9882 96.8697-27.6774C96.8697-48.9669 66.9664-56.9022 55.6555-80.4916C54.9867-81.8676 54.2097-82.7451 52.8022-82.7451C51.3826-82.7451 50.6057-81.8676 49.9488-80.4916C38.6259-56.9022 8.72266-48.9669 8.72266-27.6774Z"/>
</svg>