<svg xmlns="http://www.w3.org/2000/svg" viewBox="8.72266 -83.1265 95.74 95.73">
  <path d="M56.5885 12.6052C82.9179 12.6052 104.466-8.94325 104.466-35.2606C104.466-61.578 82.9179-83.1265 56.5885-83.1265C30.2711-83.1265 8.72266-61.578 8.72266-35.2606C8.72266-8.94325 30.2711 12.6052 56.5885 12.6052ZM33.9733-19.933L33.9733-47.7636C33.9733-50.8578 35.9101-53.0963 39.0043-53.0963L41.7134-53.0963L41.7134-60.2395C41.7134-63.3668 43.6689-65.2982 46.8081-65.2982L55.6892-65.2982C58.8164-65.2982 60.7479-63.3668 60.7479-60.2395L60.7479-53.0963L63.3826-53.0963C66.4266-53.0963 68.3873-50.8578 68.3873-47.7636L68.3873-45.6197C68.1786-45.6437 67.8693-45.6437 67.6224-45.6437L61.3408-45.6437C57.8562-45.6437 54.9302-43.8512 54.726-39.119L51.0058-39.119C46.5048-39.119 43.6072-36.4227 43.6072-31.7325L43.6072-19.933ZM44.4436-53.0963L58.0177-53.0963L58.0177-60.2516C58.0177-61.7033 57.0546-62.5921 55.7034-62.5921L46.8441-62.5921C45.4067-62.5921 44.4436-61.7033 44.4436-60.2516ZM39.0043-8.65958C35.9101-8.65958 33.9733-10.8981 33.9733-14.0426L33.9733-17.1045L43.6072-17.1045L43.6072-13.3017C43.6072-11.3965 44.1056-9.85314 44.9899-8.65958ZM51.0058-8.67159C47.919-8.67159 46.3134-10.215 46.3134-13.3017L46.3134-31.7325C46.3134-34.8695 47.919-36.3746 51.0058-36.3746L52.9101-36.3746L52.9101-8.67159ZM55.5202-8.67159L55.5202-36.3746L57.3743-36.3746L57.3743-39.0957C57.3743-41.6052 58.9154-42.9616 61.3408-42.9616L70.8268-42.9616C73.3889-42.9616 74.9442-41.6052 74.9442-39.0957L74.9442-36.3746L76.736-36.3746L76.736-8.67159ZM59.9986-36.3746L72.3199-36.3746L72.3199-38.9305C72.3199-39.8891 71.7471-40.3613 70.688-40.3613L61.542-40.3613C60.5091-40.3613 59.9986-39.8891 59.9986-38.9305ZM79.3964-8.67159L79.3964-36.3746L81.2122-36.3746C84.3492-36.3746 85.9046-34.8695 85.9046-31.7325L85.9046-13.3017C85.9046-10.215 84.3492-8.67159 81.2122-8.67159Z"/>
</svg>