<svg xmlns="http://www.w3.org/2000/svg" viewBox="8.72266 -83.1265 95.74 95.73">
  <path d="M56.5885 12.6052C83.0185 12.6052 104.466-8.83065 104.466-35.2606C104.466-61.6906 83.0185-83.1265 56.5885-83.1265C30.1705-83.1265 8.72266-61.6906 8.72266-35.2606C8.72266-8.83065 30.1705 12.6052 56.5885 12.6052ZM56.5885 8.86824C32.1734 8.86824 12.4213-10.8455 12.4213-35.2606C12.4213-59.6758 32.1734-79.3895 56.5885-79.3895C81.0036-79.3895 100.717-59.6758 100.717-35.2606C100.717-10.8455 81.0036 8.86824 56.5885 8.86824ZM28.0313-26.2137L37.0631-26.2137C38.003-26.2137 38.6193-26.806 38.6193-27.7098C38.6193-28.5633 37.9527-29.2059 37.0631-29.2059L28.0313-29.2059C27.192-29.2059 26.4992-28.5513 26.4992-27.7098C26.4992-26.8683 27.192-26.2137 28.0313-26.2137ZM41.7187-39.691C42.2607-39.2113 43.3131-39.1873 43.8694-39.7053C44.5502-40.4244 44.325-41.4266 43.8333-41.9566L37.4536-48.3483C36.8493-48.9909 35.8591-48.7777 35.3029-48.2335C34.7346-47.6029 34.7346-46.7254 35.3892-46.1331ZM56.5765-66.8581C55.6727-66.8581 54.9918-66.1915 54.9918-65.326L54.9918-54.6779L55.1164-51.8105L53.6197-53.4078L49.41-57.6055C49.1007-57.9027 48.7554-58.164 48.2952-58.164C47.4155-58.164 46.7706-57.5071 46.7706-56.6393C46.7706-56.2175 46.9575-55.7956 47.468-55.2851L55.512-47.3612C55.795-47.0902 56.2049-46.9296 56.5765-46.9296C56.9601-46.9296 57.3699-47.0902 57.653-47.3612L65.685-55.2851C66.2577-55.8459 66.3944-56.2175 66.3944-56.6393C66.3944-57.5071 65.7495-58.164 64.8697-58.164C64.5102-58.164 64.0905-58.0033 63.8053-57.706L59.6797-53.4438L57.9983-51.8247L58.1229-54.6779L58.1229-65.326C58.1229-66.1915 57.4923-66.8581 56.5765-66.8581ZM69.3076-39.7053C69.8639-39.1993 70.9043-39.1993 71.4463-39.691L77.7758-46.1331C78.3681-46.7254 78.3801-47.6029 77.8621-48.2335C77.3059-48.8018 76.3037-48.9789 75.7114-48.3483L69.3196-41.9566C68.8279-41.4146 68.6268-40.4244 69.3076-39.7053ZM76.0899-26.2137L85.1337-26.2137C86.0232-26.2137 86.6658-26.818 86.6658-27.7098C86.6658-28.6016 86.0232-29.2059 85.1337-29.2059L76.0899-29.2059C75.2123-29.2059 74.5457-28.5633 74.5457-27.7098C74.5457-26.806 75.3129-26.2137 76.0899-26.2137ZM70.3984-27.0987C70.3984-34.7021 64.1919-40.9206 56.5765-40.9206C48.9851-40.9206 42.7666-34.7021 42.7666-27.0987C42.7666-24.8468 43.3056-22.6954 44.2829-20.7955L68.8821-20.7955C69.8474-22.6954 70.3984-24.8468 70.3984-27.0987ZM28.0193-15.215L85.1457-15.215C85.9872-15.215 86.6658-15.8456 86.6658-16.6991C86.6658-17.5526 85.9992-18.1952 85.1457-18.1952L28.0193-18.1952C27.2161-18.1952 26.4992-17.5024 26.4992-16.6991C26.4992-15.8456 27.2281-15.215 28.0193-15.215Z" />
</svg>