<svg xmlns="http://www.w3.org/2000/svg" viewBox="11.0564 -90.9101 160.81 111.5">
  <path d="M68.7672 1.54875C91.5693-4.61492 101.332-22.3245 94.9315-46.0972L85.5332-80.7311C83.52-88.276 78.6737-90.9101 71.0927-88.8968L21.5087-75.6837C13.9157-73.6704 11.0564-68.9487 13.12-61.3295L22.3674-26.607C28.6939-2.84637 45.9531 7.6261 68.7672 1.54875ZM64.7864-13.6649C54.1781-10.9476 44.0323-14.4749 38.6215-23.6689C37.7515-25.1763 38.4466-26.3938 40.1769-26.2069C49.6688-25.2679 57.0163-27.1077 60.8973-28.1241C64.7422-29.1788 72.0461-31.3145 79.7223-36.8798C81.141-37.8121 82.4209-37.141 82.3969-35.449C82.3248-24.6974 75.3445-16.5692 64.7864-13.6649ZM40.1761-45.929C36.8281-44.9704 36.1526-42.6411 34.7721-42.2913C34.125-42.1667 33.0133-42.8378 32.5389-44.4982C31.4054-48.4835 33.8833-52.8186 38.0577-53.8657C42.1556-54.9632 46.4666-52.4327 47.4755-48.4835C47.9619-46.8493 47.2481-45.7278 46.589-45.5169C45.2228-45.083 43.3897-46.763 40.1761-45.929ZM69.9577-53.928C66.6601-53.058 65.9342-50.7287 64.5537-50.3909C63.9067-50.216 62.7949-50.9374 62.3205-52.4973C61.187-56.4705 63.665-60.8559 67.8394-61.915C71.9492-63.0748 76.2483-60.5323 77.2572-56.5208C77.7436-54.8866 77.0297-53.7269 76.3706-53.5159C75.0044-53.1203 73.1713-54.762 69.9577-53.928ZM161.404-62.7581L111.82-75.9952C104.369-77.9605 99.5728-75.4683 97.5092-68.2334L95.4615-60.7203L99.1052-47.2239C103.934-29.4295 100.229-14.3096 89.3436-4.4024C93.6119 4.60696 102.047 11.2322 114.119 14.4623C136.959 20.59 154.195 10.1175 160.545-13.6432L169.805-48.3033C171.868-55.9991 168.997-60.7328 161.404-62.7581ZM112.334-35.9745C109.171-36.7965 107.266-39.9838 108.1-43.1831C108.984-46.2961 112.209-48.2516 115.346-47.4176C118.572-46.483 120.377-43.2837 119.593-40.1084C118.709-36.9331 115.471-35.0902 112.334-35.9745ZM140.994-28.3613C137.831-29.145 135.938-32.3946 136.872-35.5819C137.644-38.6949 140.87-40.5881 144.007-39.7038C147.194-38.8818 149.037-35.6945 148.203-32.5072C147.369-29.3822 144.131-27.4891 140.994-28.3613ZM120.194-8.18292C114.467-9.75479 107.893-9.90567 102.419-8.82471C100.905-8.47715 100.161-9.63019 100.981-10.9986C105.534-18.8002 114.675-21.6302 123.101-19.4758C132.166-17.2065 138.111-10.0851 138.183-1.06144C138.157 0.503699 136.968 1.16278 135.762 0.144127C131.192-3.98976 125.933-6.67335 120.194-8.18292Z"/>
</svg>