<svg xmlns="http://www.w3.org/2000/svg" viewBox="12.4609 -88.8324 63.24 107.16">
  <path d="M16.9566-85.1915L71.1207-85.1915C72.0921-85.1915 72.9411-86.0285 72.9411-87.0119C72.9411-88.0336 72.0921-88.8324 71.1207-88.8324L16.9566-88.8324C15.9732-88.8324 15.1362-88.0336 15.1362-87.0119C15.1362-86.0285 15.9732-85.1915 16.9566-85.1915ZM19.4631-48.1629L22.9936-48.8573L21.448-78.6786L66.6173-78.6786L65.0717-48.8573L68.6022-48.1629L70.5795-82.1152L17.4355-82.1152ZM44.0135-28.7472C62.6344-28.7472 75.7049-33.9808 75.7049-41.419C75.7049-48.3424 62.6344-53.1999 44.0135-53.1999C25.4812-53.1999 12.4609-48.3424 12.4609-41.419C12.4609-33.9808 25.4812-28.7472 44.0135-28.7472ZM44.0135-32.162C27.8511-32.162 16.5342-35.9903 16.5342-41.419C16.5342-46.3711 27.8511-49.8473 44.0135-49.8473C60.3148-49.8473 71.6316-46.3711 71.6316-41.419C71.6316-35.9903 60.3148-32.162 44.0135-32.162ZM43.0661-9.67428L45.0997-9.67428C63.7079-9.67428 75.7049-22.0865 75.7049-41.419L72.1699-41.419C72.1699-24.2545 61.6262-13.219 45.0997-13.219L43.0661-13.219C26.5397-13.219 16.0079-24.2545 16.0079-41.419L12.4609-41.419C12.4609-22.0865 24.4077-9.67428 43.0661-9.67428ZM44.2177 18.3231C52.7872 18.3231 61.2623 16.1927 64.6876 13.1578C66.0725 11.9499 65.996 10.7083 65.4472 8.71234L58.9352-14.1108L55.6757-12.3167L62.6786 12.4199L62.8633 9.88029C59.5469 12.8229 52.3481 14.6702 44.2177 14.6702C36.0753 14.6702 28.8765 12.8229 25.5601 9.88029L25.7448 12.4199L32.7477-12.3167L29.5122-14.1108L22.9882 8.71234C22.4395 10.7083 22.3509 11.9499 23.7479 13.1578C27.1732 16.1927 35.6362 18.3231 44.2177 18.3231Z"/>
</svg>