<svg xmlns="http://www.w3.org/2000/svg" viewBox="12.4609 -78.4559 86.4 86.41">
  <path d="M25.6328 7.95861L85.6915 7.95861C94.3339 7.95861 98.8634 3.32853 98.8634-5.17725L98.8634-65.32C98.8634-73.8258 94.3339-78.4559 85.6915-78.4559L25.6328-78.4559C17.0024-78.4559 12.4609-73.9264 12.4609-65.32L12.4609-5.17725C12.4609 3.42911 17.0024 7.95861 25.6328 7.95861ZM25.7574 4.30574C19.4107 4.30574 16.1018 1.02088 16.1018-5.36192L16.1018-65.1353C16.1018-71.5302 19.4107-74.803 25.7574-74.803L85.5669-74.803C91.7125-74.803 95.2226-71.5302 95.2226-65.1353L95.2226-5.36192C95.2226 1.02088 91.7125 4.30574 85.5669 4.30574ZM41.8268-13.6432L70.1972-13.6432C71.1971-13.6432 71.8494-14.3721 71.8494-15.2954C71.8494-16.2931 71.1971-16.9477 70.1972-16.9477L44.1953-16.9477L44.1953-17.2329L69.927-52.5948C70.5718-53.4626 70.7204-53.9085 70.7204-54.7402C70.7204-56.0276 69.8046-56.9435 68.4046-56.9435L41.3524-56.9435C40.3907-56.9435 39.6881-56.2648 39.6881-55.2912C39.6881-54.3438 40.3907-53.6389 41.3524-53.6389L66.247-53.6389L66.247-53.3537L40.4148-18.0038C39.6836-16.9874 39.535-16.5798 39.535-15.7601C39.535-14.547 40.4891-13.6432 41.8268-13.6432Z" />
</svg>