<svg xmlns="http://www.w3.org/2000/svg" viewBox="8.72266 -82.5701 94.62 94.62">
  <path d="M56.0321 12.0488C82.1491 12.0488 103.342-9.14362 103.342-35.2606C103.342-61.3777 82.1491-82.5701 56.0321-82.5701C29.9155-82.5701 8.72266-61.3777 8.72266-35.2606C8.72266-9.14362 29.9155 12.0488 56.0321 12.0488ZM56.0321 9.63326C31.1881 9.63326 11.0767-10.4166 11.0767-35.2606C11.0767-60.1046 31.1881-80.1545 56.0321-80.1545C80.8761-80.1545 100.926-60.1046 100.926-35.2606C100.926-10.4166 80.8761 9.63326 56.0321 9.63326ZM34.8965-15.5101L51.5963-15.5101C52.29-15.5101 52.8546-16.0754 52.8546-16.7692C52.8546-17.5257 52.2896-18.0906 51.5963-18.0906L37.2266-18.0906L37.2266-18.2788L46.987-32.0713C50.6108-37.2502 51.9217-40.802 51.9217-44.8535C51.9217-50.8402 48.7955-55.761 42.7461-55.761C37.1336-55.761 33.5107-50.5278 33.5107-45.2955C33.5107-44.7246 33.89-44.0342 34.8321-44.0342C35.4632-44.0342 35.9658-44.411 36.0315-45.0421C36.657-49.8273 38.6445-53.1812 42.8075-53.1812C47.4046-53.1812 49.3958-48.6486 49.3958-44.7272C49.3958-41.1114 48.1375-38.0513 44.9646-33.5127L33.9577-18.1605C33.5793-17.6566 33.4484-17.2142 33.4484-16.7073C33.4484-15.9525 34.0752-15.5101 34.8965-15.5101ZM69.3754-14.7603C78.2298-14.7603 80.1693-26.9619 80.1693-35.2606C80.1693-43.5594 78.2298-55.761 69.3754-55.761C60.5829-55.761 58.6434-43.5594 58.6434-35.2606C58.6434-26.9619 60.5829-14.7603 69.3754-14.7603ZM69.3754-17.3413C62.6069-17.3413 61.4825-28.456 61.4825-35.2606C61.4825-42.0653 62.6069-53.18 69.3754-53.18C76.2058-53.18 77.2688-42.0653 77.2688-35.2606C77.2688-28.456 76.2058-17.3413 69.3754-17.3413Z" />
</svg>