<svg xmlns="http://www.w3.org/2000/svg" viewBox="12.4609 -77.9575 85.39 85.39">
  <path d="M25.0069 7.437L85.309 7.437C93.4878 7.437 97.855 2.94602 97.855-5.1077L97.855-65.4127C97.855-73.4665 93.4878-77.9575 85.309-77.9575L25.0069-77.9575C16.8286-77.9575 12.4609-73.5902 12.4609-65.4127L12.4609-5.1077C12.4609 3.06978 16.8286 7.437 25.0069 7.437ZM36.9513-15.505C36.1291-15.505 35.5642-15.9479 35.5642-16.765C35.5642-17.2104 35.6337-17.6532 36.0121-18.1572L47.0211-33.5123C50.1949-38.0513 51.4536-41.1127 51.4536-44.7297C51.4536-48.6519 49.4623-53.185 44.8644-53.185C40.7005-53.185 38.7131-49.7684 38.0875-45.0446C38.0214-44.4131 37.5188-43.974 36.8873-43.974C35.9443-43.974 35.6265-44.7267 35.6265-45.298C35.6265-50.5316 39.1888-55.766 44.803-55.766C50.8537-55.766 53.982-50.844 53.982-44.856C53.982-40.8028 52.6706-37.2506 48.9833-32.0705L39.2831-18.2759L39.2831-18.0869L53.5938-18.0869C54.349-18.0869 54.9148-17.5223 54.9148-16.8269C54.9148-16.0708 54.3495-15.505 53.5938-15.505ZM69.8217-15.068C69.0012-15.068 68.3697-15.7614 68.3697-16.5191L68.3697-51.7453L62.0289-46.6477C61.7776-46.4591 61.5882-46.3336 61.2724-46.3336C60.5185-46.3336 60.0773-46.899 60.0773-47.5296C60.0773-48.0348 60.2684-48.3518 60.6469-48.6044L67.6128-54.448C68.179-54.9502 68.8728-55.3922 69.6928-55.3922C70.5175-55.3922 71.2104-54.7001 71.2104-53.8754L71.2104-16.5191C71.2104-15.7614 70.5171-15.068 69.8217-15.068Z"/>
</svg>