<svg xmlns="http://www.w3.org/2000/svg" viewBox="12.4609 -77.9575 85.39 85.39">
  <path d="M25.0069 7.437L85.309 7.437C93.4878 7.437 97.855 2.94602 97.855-5.1077L97.855-65.4127C97.855-73.4665 93.4878-77.9575 85.309-77.9575L25.0069-77.9575C16.8286-77.9575 12.4609-73.5902 12.4609-65.4127L12.4609-5.1077C12.4609 3.06978 16.8286 7.437 25.0069 7.437ZM34.0781-15.505C33.3179-15.505 32.6906-15.9479 32.6906-16.765C32.6906-17.2104 32.8224-17.6532 33.1389-18.1572L44.1479-33.5123C47.3831-38.0513 48.58-41.1127 48.58-44.7297C48.58-48.6519 46.6506-53.185 41.9913-53.185C37.8892-53.185 35.8395-49.7684 35.2139-45.0446C35.2097-44.4131 34.7075-43.974 34.0137-43.974C33.133-43.974 32.7529-44.7267 32.7529-45.298C32.7529-50.5316 36.3156-55.766 41.9298-55.766C48.0424-55.766 51.1084-50.844 51.1084-44.856C51.1084-40.8028 49.797-37.2506 46.1716-32.0705L36.4718-18.2759L36.4718-18.0869L50.7821-18.0869C51.4759-18.0869 52.0417-17.5223 52.0417-16.8269C52.0417-16.0708 51.4763-15.505 50.7821-15.505ZM72.8089-15.0672C71.9308-15.0672 71.421-15.6928 71.421-16.5179L71.421-25.0865L58.3521-25.0865C57.0963-25.0865 56.3407-25.9036 56.3407-26.9741C56.3407-27.6666 56.5289-28.2333 56.9061-29.0525L69.2769-53.4355C69.9682-54.7591 70.6615-55.6389 72.0503-55.6389C73.0038-55.6389 74.135-55.1287 74.135-53.3703L74.135-27.6064L77.4868-27.6064C78.1208-27.6064 78.7459-27.1017 78.7459-26.3469C78.7459-25.5916 78.2437-25.0865 77.4868-25.0865L74.135-25.0865L74.135-16.5179C74.135-15.8182 73.5662-15.0672 72.8089-15.0672ZM71.4222-27.6052L71.4222-52.1267L71.2353-52.1267L59.0488-27.6696L59.0488-27.6052Z"/>
</svg>