<svg xmlns="http://www.w3.org/2000/svg" viewBox="8.72266 -92.2955 94.62 104.34">
  <path d="M47.9839-90.1582L47.9839-69.3358C47.9839-67.8245 49.0536-67.199 50.4967-68.2649L64.9606-78.365C66.2147-79.1812 66.2151-80.3124 64.9606-81.1287L50.4971-91.2292C49.0536-92.2955 47.9839-91.67 47.9839-90.1582ZM56.0321 12.0488C82.1491 12.0488 103.342-9.14362 103.342-35.2606C103.342-52.7619 93.7584-68.2059 79.5045-76.3135C78.8074-76.6975 78.0429-76.5076 77.7242-75.997C77.467-75.3626 77.6577-74.6642 78.2298-74.2811C91.8481-66.5574 100.926-51.9356 100.926-35.2606C100.926-10.4166 80.8761 9.63326 56.0321 9.63326C31.1881 9.63326 11.0767-10.4166 11.0767-35.2606C11.0767-60.1046 31.1881-80.1545 56.094-80.1545C56.8543-80.1545 57.3018-80.7877 57.3018-81.3623C57.3018-81.937 56.8547-82.5697 56.0944-82.5701C29.9151-82.5697 8.72266-61.3777 8.72266-35.2606C8.72266-9.14362 29.9155 12.0488 56.0321 12.0488ZM41.3804-15.5669C51.2279-15.5669 54.2206-26.4008 54.2206-35.8125C54.2206-45.3473 50.4819-54.3217 41.5673-54.3217C34.7723-54.3217 29.9732-48.7147 29.9732-41.4229C29.9732-34.5096 34.5168-29.0264 41.3046-29.0264C46.2238-29.0264 50.5746-32.3862 51.7575-37.1125L51.5727-37.1125C51.5727-36.9879 51.6346-36.6777 51.6346-36.3674C51.8202-28.7174 49.5861-18.0835 41.4444-18.0835C37.1597-18.0835 34.6751-20.6279 33.4917-23.9818C33.1145-24.9816 32.9225-25.4818 32.0448-25.4818C31.2887-25.4818 30.848-24.9766 30.848-24.2845C30.848-23.8399 30.8555-23.3323 31.1738-22.5808C32.3643-18.9772 35.8513-15.5669 41.3804-15.5669ZM41.6296-31.5405C36.0992-31.5405 32.6838-36.1422 32.6838-41.425C32.6838-46.8316 36.0382-51.8051 41.6305-51.8051C46.9744-51.8051 50.8238-47.1402 50.8238-41.2381C50.8238-35.9548 46.7264-31.5405 41.6296-31.5405ZM72.7281-15.5669C82.014-15.5669 84.8842-26.2147 84.8842-35.0064C84.8842-44.1071 81.8284-54.3836 72.7281-54.3836C63.3799-54.3836 60.5096-43.7976 60.5096-35.0064C60.5096-25.9048 63.6274-15.5669 72.7281-15.5669ZM72.7281-18.0839C65.4645-18.0839 63.2847-27.6494 63.2847-35.0064C63.2847-42.5482 65.4645-51.9899 72.7281-51.9899C79.9912-51.9899 82.1092-42.4244 82.1092-35.0064C82.1092-27.6494 80.0531-18.0839 72.7281-18.0839Z" />
</svg>