<svg xmlns="http://www.w3.org/2000/svg" viewBox="8.72266 -77.8442 91.13 85.4">
  <path d="M8.72266-46.7209C8.72266-34.8144 13.5799-24.0281 21.4943-16.1083C22.0041-15.5972 22.8915-15.5972 23.3369-16.1062C23.7819-16.6151 23.5928-17.3754 23.0839-17.8861C15.6149-25.3609 11.1357-35.3882 11.1357-46.7209C11.1357-58.1151 15.6149-68.1424 23.0839-75.6172C23.5928-76.0664 23.7819-76.8882 23.3369-77.3352C22.8915-77.8442 22.0041-77.8442 21.4943-77.3331C13.5799-69.4752 8.72266-58.6889 8.72266-46.7209ZM27.3054-46.7209C27.3054-39.9882 29.8591-33.8777 34.3429-29.3851C34.9134-28.8727 35.7406-28.8732 36.1864-29.3825C36.6313-29.8911 36.5025-30.6505 35.9957-31.1001C31.708-34.8376 29.7185-40.6231 29.7185-46.7209C29.7185-52.8802 32.2031-58.1084 35.9957-62.3413C36.4406-62.8528 36.6313-63.6122 36.1864-64.0589C35.7406-64.6301 34.9134-64.6306 34.3429-64.0564C29.8591-59.6256 27.3054-53.4532 27.3054-46.7209ZM48.5619-46.7209C48.5619-43.9728 50.4937-41.662 53.052-41.0946L53.052 6.22881C53.052 7.05223 53.5589 7.56077 54.2564 7.56077C55.0171 7.56077 55.4613 7.05265 55.4613 6.22881L55.4613-41.0946C58.0806-41.662 60.0133-43.9732 60.0133-46.7209C60.0133-49.9123 57.5102-52.4778 54.2564-52.4778C51.065-52.4778 48.5619-49.9123 48.5619-46.7209ZM72.3269-29.3825C72.8346-28.8732 73.6618-28.8727 74.1699-29.3851C78.6542-33.8777 81.2697-39.9882 81.2697-46.7209C81.2697-53.4532 78.6542-59.6256 74.1699-64.0564C73.6618-64.6306 72.8346-64.6301 72.3269-64.0589C71.9434-63.6122 72.1345-62.8528 72.5795-62.3413C76.3102-58.1084 78.8567-52.8802 78.8567-46.7209C78.8567-40.6231 76.8671-34.8376 72.5795-31.1001C72.0107-30.6505 71.9434-29.8911 72.3269-29.3825ZM85.1764-16.1062C85.6837-15.5972 86.5092-15.5972 87.0809-16.1083C94.9948-24.0281 99.8525-34.8144 99.8525-46.7209C99.8525-58.6889 94.9948-69.4752 87.0809-77.3331C86.5092-77.8442 85.6837-77.8442 85.1764-77.3352C84.7929-76.8882 84.9823-76.0664 85.4294-75.6172C92.9603-68.1424 97.4395-58.1151 97.4395-46.7209C97.4395-35.3882 92.9603-25.3609 85.4294-17.8861C84.9823-17.3754 84.7929-16.6151 85.1764-16.1062Z" />
</svg>