<svg xmlns="http://www.w3.org/2000/svg" viewBox="12.4609 -77.278 84.16 84.1">
  <path d="M38.2614 6.81901L70.8198 6.81901C79.4793 6.81901 85.9607 4.63582 90.1986 0.397837C94.4379-3.84057 96.6202-10.3838 96.6202-18.9814L96.6202-51.4775C96.6202-60.0752 94.4998-66.5565 90.1986-70.8568C85.8984-75.1571 79.4793-77.278 70.8198-77.278L38.2614-77.278C29.6019-77.278 23.1201-75.0948 18.8821-70.8568C14.6433-66.6184 12.4609-60.0752 12.4609-51.4775L12.4609-18.9814C12.4609-10.3838 14.5814-3.90245 18.8821 0.397837C23.2439 4.75959 29.6019 6.81901 38.2614 6.81901ZM54.5402-11.571C54.2228-11.571 53.9066-11.6973 53.713-11.8909L37.078-28.5827C36.8246-28.7742 36.6975-29.0281 36.6975-29.3459C36.6975-29.9189 37.2043-30.4872 37.7773-30.4872C38.0947-30.4872 38.4125-30.2986 38.6651-30.0447L48.9243-19.7198L53.3976-15.3071L53.3332-21.9809L53.3332-57.7442C53.3332-58.4418 53.8426-58.9503 54.5402-58.9503C55.1758-58.9503 55.7471-58.4418 55.7471-57.7442L55.7471-21.9809L55.6827-15.369L60.0322-19.7198L70.2915-30.0447C70.5441-30.2986 70.9234-30.4872 71.2408-30.4872C71.7518-30.4872 72.321-29.9189 72.321-29.3459C72.321-29.0281 72.1939-28.7742 71.9404-28.5827L55.3674-11.8909C55.1119-11.6973 54.7957-11.571 54.5402-11.571Z"/>
</svg>