<svg xmlns="http://www.w3.org/2000/svg" viewBox="12.4609 -77.462 127.8 85.77">
  <path d="M54.8938 8.3059C55.5914 8.3059 56.3436 7.80284 56.5331 7.16885C61.52-11.3794 70.7962-18.1003 88.892-18.1003L92.9232-17.9766L92.9232 3.12451C92.9232 4.94355 93.8696 6.44644 95.8743 6.44644C97.1915 6.44644 98.3197 5.69668 99.2038 4.81347L137.4-30.5836C139.886-33.0076 140.262-34.1973 140.262-35.5078C140.262-36.8191 139.948-38.0698 137.4-40.4328L99.2038-75.8888C98.3176-76.7122 97.1919-77.462 95.8751-77.462C93.8696-77.462 92.9232-75.957 92.9232-74.1379L92.9232-52.5443L90.6251-52.5443C69.6747-52.5443 57.8246-41.8409 54.9569-16.2935L54.8294-16.2935C51.9587-41.795 40.5991-52.5443 19.6049-52.5443C18.9844-52.5443 18.2986-52.5443 17.6667-52.5443C14.4602-52.5443 12.4609-50.7934 12.4609-47.088L12.4609-23.7238C12.4609-19.9093 14.4597-18.222 17.6629-18.222C18.7259-18.222 19.7249-18.222 20.7879-18.222C38.8798-18.222 48.2205-11.4135 53.2549 7.16843C53.444 7.80284 54.1339 8.3059 54.8938 8.3059ZM53.5134 1.39431C48.1539-15.5277 38.4327-20.446 20.7828-20.4469C19.7245-20.4469 18.7276-20.4469 17.6693-20.4469C15.6199-20.4469 14.8731-21.4416 14.8731-23.6779L14.8731-47.088C14.8731-49.2624 15.6199-50.2571 17.6701-50.2571C18.2965-50.2571 18.9823-50.2571 19.6083-50.2571C41.481-50.2559 53.6334-36.5758 53.641 1.39431ZM96.206 3.76526C95.6465 3.76526 95.3354 3.33039 95.3354 2.70902L95.3354-19.1355C95.3354-20.0718 95.0222-20.385 94.086-20.385L88.9517-20.4469C71.3473-20.4469 61.5684-15.5804 56.2127 1.39431L56.0852 1.39431C56.1534-36.6074 68.107-50.1978 89.9473-50.1978L94.086-50.1359C95.0222-50.1359 95.3354-50.4491 95.3354-51.3854L95.3354-73.8517C95.3354-74.4112 95.7084-74.7841 96.2679-74.7841C96.8265-74.7841 97.1995-74.412 97.6344-74.0394L135.984-38.4816C137.347-37.2426 137.781-36.3754 137.781-35.5078C137.781-34.6405 137.409-33.8348 135.984-32.534L97.5725 3.02055C96.952 3.57876 96.579 3.76526 96.206 3.76526Z"/>
</svg>