<svg xmlns="http://www.w3.org/2000/svg" viewBox="12.4609 -81.3286 81.66 92.07">
  <path d="M25.0069 10.7459L81.5248 10.7459C89.7537 10.7459 94.1209 6.2549 94.1209-1.79882L94.1209-54.0581C94.1209-62.1119 89.7533-66.6028 81.5749-66.6028L25.0069-66.6028C16.8286-66.6028 12.4609-62.2356 12.4609-54.0581L12.4609-1.79882C12.4609 6.37867 16.8286 10.7459 25.0069 10.7459ZM36.8195-64.7952L39.2322-64.7947C39.2322-72.6999 45.3873-78.9198 53.2907-78.9198C61.1327-78.9198 67.3497-72.6999 67.3497-64.7947L69.7619-64.7952C69.7619-74.0289 62.4642-81.3286 53.2907-81.3286C44.1176-81.3286 36.8195-74.0289 36.8195-64.7952Z"/>
</svg>