<svg xmlns="http://www.w3.org/2000/svg" viewBox="8.72266 -82.5078 94.62 94.62">
  <path d="M56.0321 12.1111C82.0254 12.1111 103.342-9.2055 103.342-35.1983C103.342-61.1912 82.0254-82.5078 56.0321-82.5078C30.0393-82.5078 8.72266-61.1912 8.72266-35.1983C8.72266-9.2055 30.0393 12.1111 56.0321 12.1111ZM26.1221-18.1184L26.1221-34.7344C26.1221-37.6143 27.9967-39.4271 30.6914-39.4271L81.3733-39.4271C84.068-39.4271 85.9426-37.6143 85.9426-34.7344L85.9426-18.1184C85.9426-17.1195 85.4412-16.6804 84.4422-16.6804L83.3809-16.6804C82.3819-16.6804 81.8806-17.1195 81.8806-18.1184L81.8806-22.4111C81.6932-22.3488 81.5631-22.3488 81.3114-22.3488L30.7532-22.3488C30.5015-22.3488 30.3095-22.3488 30.1837-22.4111L30.1837-18.1184C30.1837-17.1195 29.6827-16.6804 28.6837-16.6804L27.622-16.6804C26.6235-16.6804 26.1221-17.1195 26.1221-18.1184ZM32.225-41.3088L32.225-48.0386C32.225-51.9061 34.2221-53.6548 37.347-53.6548L74.7176-53.6548C77.8425-53.6548 79.8392-51.9061 79.8392-48.0386L79.8392-41.3088L74.846-41.3088L74.846-44.1791C74.846-46.1134 73.5385-47.4214 70.9225-47.4214L63.2536-47.4214C60.7003-47.4214 59.3928-46.1134 59.3928-44.1791L59.3928-41.3088L54.0337-41.3088L54.0337-44.1791C54.0337-46.1134 52.7262-47.4214 50.7918-47.4214L40.461-47.4214C38.5262-47.4214 37.2186-46.1134 37.2186-44.1791L37.2186-41.3088Z"/>
</svg>