<svg xmlns="http://www.w3.org/2000/svg" viewBox="12.4609 -77.9575 85.39 85.39">
  <path d="M25.0069 7.437L85.309 7.437C93.4878 7.437 97.855 2.94602 97.855-5.1077L97.855-65.4127C97.855-73.4665 93.4878-77.9575 85.309-77.9575L25.0069-77.9575C16.8286-77.9575 12.4609-73.5902 12.4609-65.4127L12.4609-5.1077C12.4609 3.06978 16.8286 7.437 25.0069 7.437ZM25.1315 5.0244C18.3559 5.0244 14.8731 1.54249 14.8731-5.23441L14.8731-65.286C14.8731-72.0634 18.3559-75.5448 25.1315-75.5448L85.1844-75.5448C91.7125-75.5448 95.4428-72.0634 95.4428-65.286L95.4428-5.23441C95.4428 1.54249 91.7125 5.0244 85.1844 5.0244ZM45.1877-15.2486L57.09-15.2486C64.884-15.2486 70.8678-18.7415 70.8678-25.9133C70.8678-31.8305 66.2623-35.3869 60.7744-35.8871L60.7744-36.3219C65.4481-37.0081 68.6871-40.8125 68.6871-45.4824C68.6871-51.7183 63.512-55.1476 56.8417-55.1476L45.1877-55.1476C44.2435-55.1476 43.4904-54.4564 43.4904-53.3884L43.4904-17.0079C43.4904-15.9399 44.2435-15.2486 45.1877-15.2486ZM46.0705-36.953L46.0705-52.8845L56.2742-52.8845C61.6269-52.8845 66.0451-50.5211 66.0451-45.2298C66.0451-39.5635 61.3739-36.953 55.5834-36.953ZM46.0705-17.5741L46.0705-34.6283L56.15-34.6283C62.5619-34.6283 68.1634-32.2654 68.1634-26.0396C68.1634-19.9379 62.8738-17.5741 56.7103-17.5741ZM49.5356-54.0741L51.3542-54.0741L51.3542-60.068C51.3542-60.5702 50.916-61.0085 50.4761-61.0085C49.9734-61.0085 49.5356-60.5702 49.5356-60.068ZM56.2738-54.0741L58.1547-54.0741L58.1547-60.068C58.1547-60.5702 57.7164-61.0085 57.2142-61.0085C56.712-61.0085 56.2738-60.5702 56.2738-60.068ZM49.5356-16.5697L49.5356-9.77129C49.5356-9.33095 49.9734-8.89314 50.4761-8.89314C50.916-8.89314 51.3542-9.33095 51.3542-9.77129L51.3542-16.5697ZM56.2738-16.5697L56.2738-9.77129C56.2738-9.33095 56.712-8.89314 57.2142-8.89314C57.7164-8.89314 58.1547-9.33095 58.1547-9.77129L58.1547-16.5697Z" />
</svg>