<svg xmlns="http://www.w3.org/2000/svg" viewBox="-1.00235 -82.5701 104.34 94.62">
  <path d="M1.13453-43.3093C-0.377195-43.3093-1.00235-42.2392 0.063988-40.7957L10.1641-26.3321C10.9804-25.078 12.1119-25.078 12.9278-26.3321L23.0279-40.7342C24.0938-42.2392 23.4686-43.3093 21.9573-43.3093ZM103.342-35.2606C103.342-61.3777 82.1491-82.5701 56.0321-82.5701C29.9155-82.5701 8.72308-61.3781 8.72266-35.1983C8.72308-34.4385 9.29434-33.991 9.93043-33.991C10.5051-33.991 11.0767-34.4389 11.0767-35.1988C11.0767-60.1046 31.1881-80.1545 56.0321-80.1545C80.8761-80.1545 100.926-60.1046 100.926-35.2606C100.926-10.4166 80.8761 9.63326 56.0321 9.63326C39.3572 9.63326 24.7354 0.616755 17.0121-13.0629C16.629-13.6354 15.9302-13.8257 15.2958-13.5685C14.7856-13.2498 14.5953-12.4853 14.9796-11.7882C23.0872 2.46567 38.5312 12.0488 56.0321 12.0488C82.1491 12.0488 103.342-9.14362 103.342-35.2606ZM46.0621-15.2486L57.964-15.2486C65.7584-15.2486 71.6803-18.7415 71.6803-25.9133C71.6803-31.8305 67.1367-35.3869 61.5869-35.8871L61.5869-36.3219C66.2606-37.0081 69.4996-40.8125 69.4996-45.4824C69.4996-51.7183 64.3864-55.1476 57.716-55.1476L46.0621-55.1476C45.1179-55.1476 44.3647-54.4564 44.3647-53.3884L44.3647-17.0079C44.3647-15.9399 45.1179-15.2486 46.0621-15.2486ZM46.883-36.953L46.883-52.8845L57.1485-52.8845C62.4394-52.8845 66.919-50.5211 66.919-45.2298C66.919-39.5635 62.2479-36.953 56.3958-36.953ZM46.883-17.5741L46.883-34.6283L57.0244-34.6283C63.3744-34.6283 69.0374-32.2654 69.0374-26.0396C69.0374-19.9379 63.6863-17.5741 57.5847-17.5741ZM50.4095-54.0741L52.2286-54.0741L52.2286-60.068C52.2286-60.5702 51.7903-61.0085 51.2885-61.0085C50.8478-61.0085 50.4095-60.5702 50.4095-60.068ZM57.1481-54.0741L59.0291-54.0741L59.0291-60.068C59.0291-60.5702 58.5908-61.0085 58.0882-61.0085C57.5864-61.0085 57.1481-60.5702 57.1481-60.068ZM50.4095-16.5697L50.4095-9.77129C50.4095-9.33095 50.8478-8.89314 51.2885-8.89314C51.7903-8.89314 52.2286-9.33095 52.2286-9.77129L52.2286-16.5697ZM57.1481-16.5697L57.1481-9.77129C57.1481-9.33095 57.5864-8.89314 58.0882-8.89314C58.5908-8.89314 59.0291-9.33095 59.0291-9.77129L59.0291-16.5697Z" />
</svg>