<svg xmlns="http://www.w3.org/2000/svg" viewBox="12.4609 -89.107 55.98 107.69">
  <path d="M14.3654 5.13173L40.0821 5.13173C54.7384 5.13173 68.4417-1.35511 68.4417-16.3823C68.4417-28.7119 58.6737-36.1948 46.6481-37.2569L46.6481-37.8177C57.2281-39.6843 63.8943-47.2905 63.8943-57.4382C63.8943-70.6497 52.1865-77.3247 39.2785-77.3247L14.3654-77.3247C13.161-77.3247 12.4609-76.5628 12.4609-75.4202L12.4609 3.28828C12.4609 4.42955 13.1589 5.13173 14.3654 5.13173ZM15.1354-38.5207L15.1354-74.7841L39.0128-74.7841C51.515-74.7841 61.2194-68.6324 61.2194-57.4298C61.2194-44.9806 51.0692-38.5207 38.5578-38.5207ZM15.1354 2.71449L15.1354-36.0428L38.6394-36.0428C52.9506-36.0428 65.7664-30.4497 65.7664-16.448C65.7664-3.12868 54.0699 2.71449 40.008 2.71449ZM26.1532-76.543L28.4303-76.543L28.4303-87.9687C28.4303-88.6019 27.8632-89.107 27.292-89.107C26.6584-89.107 26.1532-88.6019 26.1532-87.9687ZM38.9493-76.543L41.2259-76.543L41.2259-87.9687C41.2259-88.6019 40.6588-89.107 40.088-89.107C39.4544-89.107 38.9493-88.6019 38.9493-87.9687ZM26.1532 3.42131L26.1532 17.4466C26.1532 18.0802 26.6584 18.5853 27.292 18.5853C27.8632 18.5853 28.4303 18.0802 28.4303 17.4466L28.4303 3.42131ZM38.9493 3.42131L38.9493 17.4466C38.9493 18.0802 39.4544 18.5853 40.088 18.5853C40.6588 18.5853 41.2259 18.0802 41.2259 17.4466L41.2259 3.42131Z"/>
</svg>