<svg xmlns="http://www.w3.org/2000/svg" viewBox="8.72266 -82.6324 94.74 94.74">
  <path d="M8.72266-35.2606C8.72266-9.14362 29.9778 12.1111 56.0944 12.1111C82.2114 12.1111 103.467-9.14362 103.467-35.2606C103.467-59.6264 84.9011-79.8178 61.2228-82.3188C62.343-81.071 63.0894-79.3884 63.0894-77.5188C63.0894-75.3979 62.0929-73.4648 60.5972-72.2157C78.975-69.9652 93.2394-54.325 93.2394-35.2606C93.2394-14.6946 76.6609 1.88431 56.0944 1.88431C35.5284 1.88431 18.9499-14.6946 18.9499-35.2606C18.9499-55.8267 35.5284-72.4056 56.0944-72.4056C58.9007-72.4056 61.208-74.7126 61.208-77.5188C61.208-80.3255 58.9007-82.6324 56.0944-82.6324C29.9778-82.6324 8.72266-61.3777 8.72266-35.2606ZM36.7737-31.6512C36.7737-30.962 37.214-30.584 37.965-30.584L53.4162-30.584L45.0067-7.84869C44.318-6.03259 46.0739-5.15443 47.2636-6.53313L72.2473-37.9339C72.6835-38.4331 72.7479-38.8086 72.7479-39.1223C72.7479-39.8118 72.3079-40.1894 71.5565-40.1894L56.1054-40.1894L64.5148-62.9252C65.2035-64.6794 63.4476-65.6194 62.258-64.2407L37.2742-32.84C36.8381-32.3407 36.7737-31.9648 36.7737-31.6512Z"/>
</svg>