<svg xmlns="http://www.w3.org/2000/svg" viewBox="8.72308 -87.4909 104.52 104.58">
  <path d="M64.9421-71.0888C68.68-70.715 72.1686-69.7181 75.4703-68.2232C76.5287-67.7875 77.7112-68.1609 78.2715-69.1569L84.262-79.3917C84.9465-80.5742 84.5108-81.9441 83.266-82.5044C77.7807-85.1221 71.7354-86.8056 65.3778-87.3663C64.0084-87.4286 62.95-86.4326 62.95-85.0631L62.95-73.2669C62.95-72.1463 63.7592-71.213 64.9421-71.0888ZM82.3264-64.2963C85.2543-62.1161 87.8707-59.5001 90.0513-56.5718C90.7362-55.6381 91.8569-55.3265 92.9144-55.9492L103.149-61.8155C104.332-62.5004 104.705-63.8703 103.958-64.9909C100.467-70.1016 95.9799-74.5269 90.8693-78.1414C89.7486-78.9505 88.3169-78.639 87.6324-77.3946L81.7037-67.1598C81.1434-66.1638 81.3922-64.9812 82.3264-64.2963ZM93.9778-49.7158C95.4104-46.414 96.4072-42.8631 96.7815-39.1875C96.9676-38.005 97.7775-37.1959 98.96-37.1959L110.88-37.1959C112.249-37.1959 113.245-38.1919 113.12-39.5614C112.622-45.9804 110.939-52.0265 108.259-57.5733C107.699-58.8181 106.329-59.192 105.146-58.507L94.8492-52.5161C93.7917-51.8939 93.5421-50.8356 93.9778-49.7158ZM96.8434-31.2719C96.4691-27.534 95.4727-23.9831 93.9778-20.6818C93.5421-19.6234 93.8536-18.5032 94.9115-17.881L105.146-11.9524C106.329-11.2674 107.699-11.6409 108.259-12.8861C110.877-18.3714 112.56-24.4167 113.12-30.8362C113.183-32.2056 112.187-33.2635 110.818-33.2635L98.96-33.2635C97.7775-33.2635 96.9676-32.4544 96.8434-31.2719ZM90.0513-13.8872C87.8711-10.9593 85.2543-8.34334 82.2645-6.10079C81.3308-5.41586 81.0815-4.23333 81.6419-3.23772L87.6324 6.99708C88.3169 8.24149 89.6867 8.55344 90.8074 7.74432C95.9804 4.19127 100.405-0.295931 103.958-5.40618C104.705-6.52682 104.394-7.89668 103.211-8.58161L92.9144-14.5098C91.8569-15.1324 90.7362-14.8209 90.0513-13.8872ZM75.4703-2.23537C72.2309-0.802786 68.68 0.193668 64.9421 0.629801C63.7592 0.75399 62.95 1.6873 62.95 2.80794L62.95 14.7279C62.95 16.0978 63.9461 17.0938 65.3159 16.9692C71.735 16.4703 77.7815 14.7869 83.3283 12.1073C84.5731 11.547 84.9465 10.1771 84.262 8.99462L78.2715-1.30206C77.7112-2.2981 76.5287-2.67151 75.4703-2.23537ZM56.9646 0.629801C53.289 0.255552 49.8-0.740902 46.4987-2.17349C45.4403-2.67151 44.2578-2.2981 43.697-1.30206L37.7688 8.99462C37.0843 10.1771 37.4577 11.547 38.7026 12.1073C44.1256 14.725 50.1713 16.4085 56.5289 16.9692C57.8983 17.0315 58.9562 16.0355 58.9562 14.666L58.9562 2.80794C58.9562 1.6873 58.1471 0.75399 56.9646 0.629801ZM39.6422-6.10079C36.7143-8.28103 34.0979-10.897 31.9177-13.8253C31.2327-14.759 30.1121-15.0701 29.0542-14.4475L18.8194-8.58161C17.6364-7.89668 17.2634-6.52682 18.0103-5.40618C21.5633-0.295511 26.0501 4.12938 31.1612 7.74432C32.2818 8.55344 33.6517 8.24191 34.3362 6.9975L40.2644-3.23772C40.8247-4.23375 40.5759-5.41586 39.6422-6.10079ZM27.9285-20.6818C26.4959-23.9831 25.5613-27.534 25.1252-31.2719C25.001-32.4544 24.0677-33.2635 22.9471-33.2635L11.0886-33.2635C9.71911-33.2635 8.72308-32.2675 8.84769-30.8981C9.34654-24.4781 11.0296-18.4325 13.6477-12.8853C14.208-11.6404 15.6389-11.2047 16.8218-11.8897L27.0571-17.8806C28.115-18.5028 28.4265-19.6234 27.9285-20.6818ZM25.0633-39.1875C25.4376-42.925 26.434-46.414 27.9285-49.7153C28.3646-50.7737 28.0531-51.8943 26.9952-52.5165L16.76-58.4451C15.577-59.1301 14.2076-58.6944 13.6473-57.4495C11.0915-51.9642 9.40843-45.9808 8.84769-39.6232C8.78538-38.2538 9.78099-37.1959 11.1509-37.1959L22.9471-37.1959C24.1296-37.1959 24.9391-38.005 25.0633-39.1875ZM31.8558-56.5718C34.036-59.4997 36.652-62.1161 39.5803-64.3582C40.5759-65.0431 40.8247-66.2257 40.2644-67.2217L34.3358-77.4565C33.6513-78.639 32.2814-78.9505 31.1608-78.2033C25.9882-74.6503 21.5633-70.1016 18.0107-64.9909C17.2634-63.8703 17.5746-62.5004 18.7575-61.8155L28.9927-55.8873C29.9888-55.2651 31.1709-55.5758 31.8558-56.5718ZM46.4364-68.2232C49.7381-69.6562 53.2886-70.6527 56.9646-71.0888C58.1471-71.213 58.9562-72.1463 58.9562-73.2669L58.9562-85.125C58.9562-86.4945 57.9602-87.4909 56.5908-87.3663C50.1713-86.8674 44.1256-85.184 38.6403-82.5044C37.3954-81.9441 37.022-80.5742 37.7065-79.3917L43.6347-69.095C44.1955-68.099 45.3161-67.7875 46.4364-68.2232ZM39.9504-14.5856C40.7679-14.5856 41.271-15.0891 41.271-15.9685L41.271-32.8851L49.6008-32.8851L57.189-15.4052C57.503-14.7144 57.9417-14.5856 58.3862-14.5856C59.1406-14.5856 59.7056-15.0882 59.7056-15.7807C59.7056-16.1575 59.5178-16.5339 59.3919-16.7241L51.9928-33.5746C56.9103-34.8877 59.3355-39.4338 59.3355-44.5996C59.3355-51.5819 55.1569-56.1272 48.1771-56.1272L39.9499-56.1272C39.2562-56.1272 38.6921-55.6238 38.6921-54.8062L38.6921-15.9685C38.6921-15.0899 39.1934-14.5856 39.9504-14.5856ZM41.271-35.1461L41.271-53.803L47.9254-53.803C53.8325-53.803 56.8181-50.0723 56.8181-44.5369C56.8181-39.0638 53.835-35.1461 47.9877-35.1461ZM75.6556-15.6452C82.2624-15.6452 86.132-19.9396 86.132-25.3672C86.132-30.9764 82.6421-34.0234 77.9061-36.2668L74.9109-37.64C70.992-39.5681 67.8199-41.9921 67.8199-46.4048C67.8199-51.0667 71.3014-53.3054 75.4695-53.3054C80.754-53.3054 82.8059-49.8239 83.1191-44.917C83.1826-44.1677 83.684-43.7269 84.2524-43.7269C85.0059-43.7269 85.5085-44.2906 85.5085-45.0442C85.5085-45.2328 85.5077-45.6087 85.445-46.1682C84.8783-52.5822 80.7637-55.5042 75.4695-55.5042C69.9791-55.5042 65.4292-52.261 65.4292-46.3404C65.4292-41.2924 68.4813-38.1187 73.6534-35.5646L76.5245-34.1914C80.6905-32.1399 83.679-29.7791 83.679-25.1782C83.679-20.4527 80.1992-17.9058 75.656-17.9058C69.8755-17.9058 67.6355-21.6298 67.1354-26.852C67.0714-27.8514 66.3831-28.0426 65.9411-28.0426C65.249-28.0426 64.684-27.6645 64.684-26.7868C64.684-26.5363 64.6849-26.2227 64.7476-25.6624C65.5003-19.0008 69.6789-15.6452 75.6556-15.6452ZM75.5314-9.85674C76.0938-9.85674 76.4689-10.2318 76.4689-10.7943L76.4689-59.9215C76.4689-60.4225 76.0938-60.7976 75.5314-60.7976C74.9685-60.7976 74.5934-60.4225 74.5934-59.9215L74.5934-10.7943C74.5934-10.2318 74.9685-9.85674 75.5314-9.85674Z"/>
</svg>