<svg xmlns="http://www.w3.org/2000/svg" viewBox="12.4609 -86.5467 81.23 102.7">
  <path d="M67.3131 16.1491C83.4622 16.1491 93.6898 5.92149 93.6898-10.2276L93.6898-37.6148C93.6898-43.5396 92.0042-48.1565 88.4482-51.4628L57.6074-79.8114C52.1204-84.8619 46.5062-86.5467 39.3993-86.5467L24.4453-86.5467C16.7726-86.5467 12.4609-82.2961 12.4609-74.5614L12.4609 4.16476C12.4609 11.7786 16.6467 16.1491 24.4466 16.1491ZM67.188 13.737L24.5716 13.737C18.3504 13.737 14.8731 10.3855 14.8731 4.04015L14.8731-74.4368C14.8731-80.6509 18.1706-84.1345 24.5704-84.1345L39.2743-84.1345C45.6887-84.1345 51.1012-82.4539 55.9568-78.0341L86.7353-49.8101C89.8471-46.8851 91.2776-42.8441 91.2776-37.4901L91.2776-10.3522C91.2776 4.40472 81.945 13.737 67.188 13.737Z"/>
</svg>