<svg xmlns="http://www.w3.org/2000/svg" viewBox="-57.3548 -95.0904 233.19 231.94">
  <path d="M23.3369 8.10721C23.7819 7.59825 23.5928 6.83797 23.0839 6.38921C15.6149-1.08567 11.1357-11.1748 11.1357-22.5075C11.1357-33.8398 15.6149-43.929 23.0839-51.4039C23.5928-51.853 23.7819-52.6129 23.3369-53.1219C22.8915-53.6308 22.0041-53.5689 21.4943-53.0579C13.5799-45.138 8.72266-34.4755 8.72266-22.5075C8.72266-10.5392 13.5799 0.123368 21.4943 8.04322C22.0041 8.55428 22.8915 8.61616 23.3369 8.10721ZM36.2403-5.16916C36.6234-5.61582 36.5564-6.43714 35.9877-6.88674C31.7-10.6242 29.7105-16.4097 29.7105-22.5075C29.7105-28.605 31.7-34.3905 35.9877-38.1279C36.5564-38.5775 36.6234-39.3988 36.2403-39.8455C35.7326-40.4168 34.9054-40.3553 34.3968-39.7811C29.913-35.3503 27.3593-29.2398 27.3593-22.5075C27.3593-15.7748 29.913-9.66436 34.3968-5.23357C34.9054-4.72125 35.7326-4.5979 36.2403-5.16916ZM161.224 8.10721C161.669 8.61616 162.494 8.55428 163.066 8.04322C170.98 0.123368 175.838-10.5392 175.838-22.5075C175.838-34.4755 170.98-45.138 163.066-53.0579C162.494-53.5689 161.669-53.6308 161.224-53.1219C160.778-52.6129 160.967-51.853 161.415-51.4039C168.945-43.929 173.425-33.8398 173.425-22.5075C173.425-11.1748 168.945-1.08567 161.415 6.38921C160.967 6.83797 160.778 7.59825 161.224 8.10721ZM148.32-5.16916C148.766-4.5979 149.655-4.72125 150.164-5.23357C154.647-9.66436 157.201-15.7748 157.201-22.5075C157.201-29.2398 154.647-35.3503 150.164-39.7811C149.655-40.3553 148.766-40.4168 148.32-39.8455C147.875-39.3988 148.004-38.5775 148.573-38.1279C152.798-34.3905 154.85-28.605 154.85-22.5075C154.85-16.4097 152.798-10.6242 148.573-6.88674C148.004-6.43714 147.875-5.61582 148.32-5.16916ZM91.4136-92.6773C102.746-92.6773 112.835-88.1981 120.31-80.6673C120.759-80.2202 121.519-80.0308 122.028-80.4762C122.537-80.9215 122.537-81.7471 122.026-82.3188C114.106-90.2327 103.382-95.0904 91.4136-95.0904C79.4456-95.0904 68.7212-90.2327 60.8014-82.3188C60.2903-81.7471 60.2903-80.9215 60.7993-80.4762C61.3082-80.0308 62.0681-80.2202 62.5173-80.6673C70.054-88.1981 80.0809-92.6773 91.4136-92.6773ZM91.7853-74.1026C97.9446-74.1026 103.668-72.0511 107.406-67.8254C107.855-67.2566 108.677-67.1893 109.123-67.5728C109.695-68.0805 109.695-68.9077 109.121-69.4158C104.69-73.9001 98.5176-76.4537 91.7853-76.4537C85.0526-76.4537 78.9421-73.9001 74.4499-69.4158C73.9371-68.9077 73.9375-68.0805 74.4469-67.5728C74.9559-67.1893 75.653-67.3185 76.1645-67.8254C80.4593-71.5561 85.6879-74.1026 91.7853-74.1026ZM92.2185 2.05734C104.689 2.05734 122.259 1.37199 129.673 0.499721C134.045 2.10863e-05 136.853-2.06487 136.853-6.68215L136.853-13.6632C136.853-20.8868 134.926-24.1944 132.053-27.8792L128.566-32.4856C127.133-39.5879 124.516-46.8165 123.146-49.6825C121.088-54.232 116.974-56.1702 112.79-56.7322C110.049-57.106 100.895-57.3548 92.2185-57.3548C83.6045-57.3548 74.4499-57.1056 71.7093-56.7322C67.4633-56.1706 63.411-54.232 61.3537-49.6825C59.983-46.8165 57.3666-39.5879 55.9332-32.4856L52.3848-27.8792C49.5735-24.1944 47.7081-20.8868 47.7081-13.6632L47.7081-6.68215C47.7081-2.06487 50.3923 2.10863e-05 54.826 0.499721C62.2403 1.37199 79.8102 2.05734 92.2185 2.05734ZM92.2185-0.344748C79.8708-0.344748 62.367-0.844027 55.0239-1.77734C51.4771-2.21305 50.1106-3.58249 50.1106-6.63331L50.1106-13.6632C50.1106-19.2058 50.9197-22.1295 54.2808-26.4866L58.0844-31.4739C59.4521-38.6268 62.0689-45.9834 63.4417-48.6696C64.9964-51.9659 67.7946-53.9558 71.9627-54.453C74.3935-54.7645 82.8618-55.015 92.2185-55.015C101.637-55.015 110.108-54.7645 112.535-54.453C116.643-53.9554 119.503-51.9655 121.058-48.6696C122.431-45.9834 125.047-38.6268 126.415-31.4739L130.218-26.4866C133.58-22.1295 134.451-19.2058 134.451-13.6632L134.451-6.63331C134.451-3.58249 133.022-2.15074 129.414-1.77734C122.132-0.967795 104.628-0.344748 92.2185-0.344748ZM61.8302-35.2101C61.5806-34.3341 61.8323-33.3406 63.2657-33.4652C70.4232-33.9632 77.7145-34.2132 92.2185-34.2132C106.785-34.2132 114.076-33.9632 121.172-33.4652C122.605-33.3406 122.919-34.3341 122.669-35.2101C121.364-41.0533 119.681-45.546 118.434-47.7271C117.129-49.9044 115.265-51.4557 111.973-51.8286C108.798-52.2644 101.639-52.3902 92.2185-52.3902C82.8602-52.3902 75.701-52.2644 72.526-51.8286C69.234-51.4557 67.3088-49.9044 66.0648-47.7271C64.8806-45.546 63.1357-41.0533 61.8302-35.2101ZM63.6817-9.09983C66.5536-9.09983 68.6151-11.0995 68.6151-13.9718C68.6151-16.7818 66.5536-18.781 63.6817-18.781C60.9335-18.781 58.872-16.7818 58.872-13.9718C58.872-11.0995 60.9335-9.09983 63.6817-9.09983ZM82.6758-9.48334L101.824-9.48334C103.885-9.48334 105.197-10.8578 105.197-12.9194C105.197-14.98 103.885-16.2926 101.824-16.2926L82.6758-16.2926C80.6147-16.2926 79.2398-14.98 79.2398-12.9194C79.2398-10.8578 80.6147-9.48334 82.6758-9.48334ZM120.756-9.09983C123.566-9.09983 125.627-11.0995 125.627-13.9718C125.627-16.7818 123.566-18.781 120.756-18.781C117.946-18.781 115.884-16.7818 115.884-13.9718C115.884-11.0995 117.946-9.09983 120.756-9.09983ZM54.509 12.4012L59.3056 12.4012C62.0487 12.4012 64.1688 10.2816 64.1688 7.53889L64.1688 0.0467549L49.7086-1.76345L49.7086 7.53889C49.7086 10.2197 51.8278 12.4012 54.509 12.4012ZM125.255 12.4012L130.051 12.4012C132.733 12.4012 134.852 10.2197 134.852 7.53889L134.852-1.76345L120.392 0.0467549L120.392 7.53889C120.392 10.2816 122.512 12.4012 125.255 12.4012Z" />
</svg>