<svg xmlns="http://www.w3.org/2000/svg" viewBox="8.72266 -82.5701 94.62 94.62">
  <path d="M56.0321 12.0488C82.1491 12.0488 103.342-9.14362 103.342-35.2606C103.342-61.3777 82.1491-82.5701 56.0321-82.5701C29.9155-82.5701 8.72266-61.3777 8.72266-35.2606C8.72266-9.14362 29.9155 12.0488 56.0321 12.0488ZM56.0321 9.63326C31.1881 9.63326 11.0767-10.4166 11.0767-35.2606C11.0767-60.1046 31.1881-80.1545 56.0321-80.1545C80.8761-80.1545 100.926-60.1046 100.926-35.2606C100.926-10.4166 80.8761 9.63326 56.0321 9.63326ZM28.376-17.3312C28.376-15.649 29.6844-14.3406 31.3666-14.3406L34.1076-14.3406C35.7898-14.3406 37.0982-15.649 37.0982-17.3312L37.0982-21.1933C42.5158-20.8817 50.1759-20.6329 56.0321-20.6329C61.9502-20.6329 69.6103-20.8817 74.9656-21.1933L74.9656-17.3312C74.9656-15.649 76.3359-14.3406 78.0181-14.3406L80.6972-14.3406C82.4413-14.3406 83.7497-15.649 83.7497-17.3312L83.7497-30.3529C83.7497-34.8333 82.6312-36.8284 80.8218-39.1366L78.6437-41.9997C77.7095-46.5441 76.0909-51.214 75.2813-53.0196C73.9738-55.7593 71.4828-56.9456 68.8627-57.3199C67.1817-57.5068 61.456-57.6314 56.0321-57.6314C50.6701-57.6314 44.9444-57.5068 43.2634-57.3199C40.6433-56.946 38.1524-55.7593 36.8448-53.0196C36.0353-51.214 34.3547-46.5441 33.4829-41.9997L31.3039-39.1366C29.4949-36.8284 28.376-34.8333 28.376-30.3529ZM37.0519-43.7471C37.8598-47.4126 38.9185-50.4032 39.7272-51.7108C40.4736-53.0785 41.6528-54.0708 43.7636-54.3191C45.7539-54.5684 50.2327-54.6311 56.0321-54.6311C61.8934-54.6311 66.3722-54.5688 68.3626-54.3191C70.4733-54.0708 71.5906-53.0785 72.3989-51.7108C73.208-50.4036 74.2663-47.4126 75.0738-43.7471C75.1992-43.1851 75.0111-42.6261 74.1392-42.6884C69.7232-42.9995 65.1783-43.1864 56.0321-43.1864C46.9478-43.1864 42.4025-42.9995 37.9865-42.6884C37.1146-42.6261 36.9269-43.1851 37.0519-43.7471ZM35.2291-30.5377C35.2291-32.2852 36.4781-33.5957 38.2252-33.5957C39.9722-33.5957 41.2827-32.2852 41.2827-30.5377C41.2827-28.7292 39.9722-27.5424 38.2252-27.5424C36.4781-27.5424 35.2291-28.7292 35.2291-30.5377ZM47.9287-29.857C47.9287-31.1675 48.8027-32.041 50.0509-32.041L62.0129-32.041C63.3234-32.041 64.1974-31.1675 64.1974-29.857C64.1974-28.6084 63.3234-27.7344 62.0129-27.7344L50.0509-27.7344C48.8027-27.7344 47.9287-28.6084 47.9287-29.857ZM70.8434-30.5377C70.8434-32.2852 72.1539-33.5957 73.9009-33.5957C75.5861-33.5957 76.8966-32.2852 76.8966-30.5377C76.8966-28.7292 75.5861-27.5424 73.9009-27.5424C72.1539-27.5424 70.8434-28.7292 70.8434-30.5377Z" />
</svg>