<svg xmlns="http://www.w3.org/2000/svg" viewBox="12.4609 -71.1157 164.56 71.71">
  <path d="M44.7642 0.59443C51.3744 0.59443 56.8008-3.64271 58.5521-9.56418L130.993-9.56418C132.682-3.64271 138.108 0.59443 144.719 0.59443C151.267 0.59443 156.693-3.64271 158.444-9.56418L164.474-9.56418C172.842-9.56418 177.022-13.9318 177.022-22.6755L177.022-36.1956C177.022-43.9324 173.649-47.9337 165.293-50.8629L157.382-53.6026C144.695-63.3731 134.387-71.1157 116.441-71.1157L110.757-71.1157C92.7355-71.1157 83.7678-69.1839 72.7942-62.3253L59.9375-54.1895L61.4598-52.1599L74.188-60.2314C84.9049-66.9603 93.3652-68.7654 110.757-68.7654L116.441-68.7654C131.191-68.7654 141.717-63.9069 154.674-52.5696C156.361-51.0705 156.989-50.8806 158.372-50.4407L164.903-48.3876C171.931-46.1484 174.61-42.9115 174.61-36.1956L174.61-22.6755C174.61-15.521 171.253-11.9768 164.474-11.9768L158.887-11.9768C159.81-20.0225 153.756-27.9293 144.719-27.9293C135.619-27.9293 129.565-20.0225 130.488-11.9768L58.9949-11.9768C59.9177-20.0225 53.8641-27.9293 44.7642-27.9293C35.7267-27.9293 29.6726-20.0225 30.5954-11.9768L25.0086-11.9768C18.2296-11.9768 14.8731-15.521 14.8731-22.6755L14.8731-29.7067C14.8731-37.7996 20.9731-43.591 30.6282-44.7743L52.791-47.5136L51.1399-49.6732L30.3112-47.1242C19.325-45.751 12.4609-39.1324 12.4609-29.7067L12.4609-22.673C12.4609-13.931 16.6412-9.56418 25.0086-9.56418L31.0387-9.56418C32.7899-3.64271 38.2159 0.59443 44.7642 0.59443ZM44.7642-1.75209C38.1683-1.75209 32.9415-7.04041 32.9415-13.6367C32.9415-20.2945 38.1683-25.5213 44.7642-25.5213C51.422-25.5213 56.6488-20.2945 56.6488-13.6367C56.6488-7.04041 51.422-1.75209 44.7642-1.75209ZM144.719-1.75209C138.061-1.75209 132.834-7.04041 132.834-13.6367C132.834-20.2945 138.061-25.5213 144.719-25.5213C151.314-25.5213 156.541-20.2945 156.541-13.6367C156.541-7.04041 151.314-1.75209 144.719-1.75209ZM80.9346-46.4346L80.9346-30.7301C80.9346-29.5897 82.1331-29.2108 83.0189-29.8422L94.9224-37.4455C95.9302-38.0138 95.9307-39.0886 94.8605-39.7192L83.0193-47.3225C82.1331-47.9544 80.9346-47.5755 80.9346-46.4346ZM84.6211-37.3146C85.3187-37.3146 85.8276-37.8854 85.8276-38.5207C85.8276-39.1564 85.3187-39.7268 84.6211-39.7268L71.9488-39.7268C67.8944-39.7268 65.2835-41.1564 62.4785-44.7726L47.8483-63.885C44.7246-67.8839 41.4722-69.4461 35.9119-69.4461L22.404-69.4461C21.7687-69.4461 21.1979-68.8757 21.1979-68.24C21.1979-67.6048 21.7687-67.0339 22.404-67.0339L35.9119-67.0339C40.7759-67.0339 43.6356-65.7289 46.1299-62.4242L60.6351-43.1881C63.8829-39.0027 66.8874-37.3146 71.9488-37.3146Z"/>
</svg>