<svg xmlns="http://www.w3.org/2000/svg" viewBox="12.4609 -77.1576 109.52 85.58">
  <path d="M12.4609 2.50441C12.4609 5.7472 15.0794 8.42715 18.446 8.42715L23.8075 8.42715C27.1126 8.42715 29.7311 5.80909 29.7311 2.50441L29.7311-2.74433L104.709-2.74433L104.709 2.50441C104.709 5.80909 107.328 8.42715 110.695 8.42715L116.056 8.42715C119.423 8.42715 121.98 5.80909 121.98 2.50441L121.98-25.6316C121.98-34.4738 119.745-38.4074 116.244-43.087L111.878-48.7538L106.275-64.5704C103.471-72.4216 99.0392-75.7242 92.5574-76.4722C89.1934-76.908 77.9213-77.1576 67.2512-77.1576C56.5811-77.1576 45.2467-76.908 41.8831-76.4722C35.4008-75.7242 31.0315-72.4216 28.2278-64.5704L22.6242-48.7538L18.2586-43.087C14.6946-38.4074 12.4609-34.4738 12.4609-25.6316ZM32.5588-51.8417C30.7478-51.8417 29.9378-53.4006 30.6236-55.2722L33.6146-63.7507C35.4779-68.9692 38.0875-71.2643 42.9317-71.8857C46.8527-72.3837 53.7891-72.5104 67.2512-72.5104C80.7128-72.5104 87.5873-72.3837 91.5698-71.8857C96.414-71.2643 99.024-68.9692 100.825-63.7507L103.817-55.2722C104.503-53.4006 103.692-51.8417 101.881-51.8417ZM27.3745-20.7563C25.0633-20.7563 23.4383-22.3812 23.4383-24.6301L23.4383-32.7878C23.4383-35.0367 25.0633-36.5989 27.3745-36.5989C29.6233-36.5989 31.1864-35.0371 31.1864-32.7878L31.1864-24.6301C31.1864-22.3808 29.6233-20.7563 27.3745-20.7563ZM55.6044-22.5059C53.8548-22.5059 52.8533-23.5692 52.8533-25.4443L52.8533-32.097C52.8533-33.9097 53.8548-34.9731 55.6044-34.9731L78.2783-34.9731C79.9664-34.9731 81.0302-33.9097 81.0302-32.097L81.0302-25.4443C81.0302-23.5692 79.9664-22.5059 78.2783-22.5059ZM107.07-20.7563C104.945-20.7563 103.258-22.4431 103.258-24.6301L103.258-32.7878C103.258-34.9748 104.945-36.5989 107.07-36.5989C109.381-36.5989 111.006-35.0371 111.006-32.7878L111.006-24.6301C111.006-22.3808 109.381-20.7563 107.07-20.7563Z"/>
</svg>