<svg xmlns="http://www.w3.org/2000/svg" viewBox="3.23816 -83.4335 102.54 96.33">
  <path d="M105.201-57.6339C105.586-57.6339 105.781-57.8292 105.781-58.2136L105.781-82.792C105.781-83.1763 105.586-83.3716 105.201-83.3716L104.006-83.3716C103.684-83.3716 103.427-83.1763 103.427-82.792L103.427-58.2136C103.427-57.8292 103.684-57.6339 104.006-57.6339ZM105.201-22.7947C105.586-22.7947 105.781-23.0519 105.781-23.3739L105.781-48.0137C105.781-48.3362 105.586-48.5934 105.201-48.5934L104.006-48.5934C103.684-48.5934 103.427-48.3362 103.427-48.0137L103.427-23.3739C103.427-23.0519 103.684-22.7947 104.006-22.7947ZM105.201 11.9836C105.586 11.9836 105.781 11.7882 105.781 11.4039L105.781-13.2364C105.781-13.5588 105.586-13.816 105.201-13.816L104.006-13.816C103.684-13.816 103.427-13.5588 103.427-13.2364L103.427 11.4039C103.427 11.7882 103.684 11.9836 104.006 11.9836ZM14.7536-69.1426L14.7536-82.8539C14.7536-83.2382 14.5582-83.4335 14.1739-83.4335L12.9787-83.4335C12.6563-83.4335 12.3991-83.2382 12.3991-82.8539L12.3991-67.4356ZM14.1739 11.9217C14.5582 11.9217 14.7536 11.7263 14.7536 11.342L14.7536-13.2983C14.7536-13.6207 14.5582-13.8779 14.1739-13.8779L12.9787-13.8779C12.6563-13.8779 12.3991-13.6207 12.3991-13.2983L12.3991 11.342C12.3991 11.7263 12.6563 11.9217 12.9787 11.9217ZM67.8347 4.36051C81.3038-3.43431 86.9045-11.651 82.3529-19.4454L50.5986-74.4857C45.7982-82.8391 35.3251-83.1519 21.8058-75.3642C8.22422-67.5147 3.23816-58.2873 8.03857-49.9961L39.7929 5.0446C44.3445 12.9009 54.2409 12.2172 67.8347 4.36051ZM41.0516-41.7951C38.2483-40.1751 32.465-36.3817 30.7844-35.4476C28.1697-33.9535 26.3018-34.2031 24.3725-36.942L21.0666-41.806C17.9517-46.2911 18.5243-49.842 31.9577-57.6158C45.4521-65.3273 48.822-64.0913 51.1273-59.1697L53.6212-53.8072C54.9906-50.8196 54.3693-49.0759 51.7537-47.5814C50.0728-46.5849 44.7832-43.9715 41.0516-41.7951ZM62.0908-5.38049C50.5123 1.34253 46.0284 1.71594 43.7257-3.39347L42.3567-6.44556C40.4277-10.6204 42.9801-13.9188 53.6203-20.0785C64.3839-26.2387 68.3693-26.7375 71.0488-23.0632L73.0426-20.3239C76.3464-15.777 73.7309-12.1027 62.0908-5.38049ZM58.0646-58.1454L61.195-59.9607C62.6937-60.8342 63.1319-62.0277 62.4432-63.2165L61.3238-65.0827C60.6351-66.2715 59.3806-66.5856 57.8819-65.7112L54.7519-63.8956ZM18.4009-35.2312L15.0264-41.0436L11.9583-39.2288C10.4592-38.3544 10.0218-37.0999 10.7101-35.9106L11.8291-33.9826C12.5174-32.7937 13.8346-32.603 15.3328-33.4774Z"/>
</svg>