<svg xmlns="http://www.w3.org/2000/svg" viewBox="12.4609 -78.6382 105.08 86.76">
  <path d="M115.214-3.17034L115.214-30.2451C115.214-32.3681 113.778-33.7413 111.53-33.7413L97.9051-33.7413C95.7194-33.7413 94.1605-32.3681 94.1605-30.2451L94.1605-3.17034C94.1605-1.04693 95.7194 0.325874 97.9051 0.325874L111.53 0.325874C113.778 0.325874 115.214-1.04693 115.214-3.17034ZM88.7964-3.17034L88.7964-45.2521C88.7964-47.3747 87.3613-48.686 85.1137-48.686L71.4883-48.686C69.3022-48.686 67.7433-47.3747 67.7433-45.2521L67.7433-3.17034C67.7433-1.04693 69.3022 0.325874 71.4883 0.325874L85.1137 0.325874C87.3613 0.325874 88.7964-1.04693 88.7964-3.17034ZM62.3173-3.17034L62.3173-60.1972C62.3173-62.3207 60.8203-63.6935 58.6961-63.6935L45.0092-63.6935C42.7612-63.6935 41.2642-62.3207 41.2642-60.1972L41.2642-3.17034C41.2642-1.04693 42.7612 0.325874 45.0092 0.325874L58.6961 0.325874C60.8203 0.325874 62.3173-1.04693 62.3173-3.17034ZM35.8382-3.17034L35.8382-75.2043C35.8382-77.2658 34.3412-78.6382 32.1555-78.6382L18.5302-78.6382C16.2821-78.6382 14.7851-77.2658 14.7851-75.2043L14.7851-3.17034C14.7851-1.04693 16.2821 0.325874 18.5302 0.325874L32.1555 0.325874C34.3412 0.325874 35.8382-1.04693 35.8382-3.17034ZM116.394 8.11773C116.967 8.11773 117.538 7.79484 117.538 6.97352C117.538 6.2145 116.967 5.89119 116.394 5.89119L13.667 5.89119C13.0318 5.89119 12.4609 6.2145 12.4609 6.97352C12.4609 7.79484 13.0318 8.11773 13.667 8.11773Z" />
</svg>