<svg xmlns="http://www.w3.org/2000/svg" viewBox="8.72266 -82.5701 94.62 94.62">
  <path d="M56.0317-81.3143L56.0317-77.6341L74.4234-77.6341C68.7675-79.9958 62.5543-81.367 56.0317-81.3143ZM56.0317-75.134L56.0317-67.3063L89.2986-67.3063C86.3274-70.2872 82.9844-73.0202 79.2701-75.134ZM56.0317-64.852L56.0317-57.0243L96.803-57.0243C95.2555-59.7577 93.5223-62.4289 91.4174-64.852ZM56.0317-54.5705L56.0317-46.7428L100.697-46.7428C100.016-49.4139 99.0876-52.085 97.9114-54.5705ZM56.0317-44.2885L56.0317-36.4608L102.183-36.4608C102.121-39.132 101.811-41.7412 101.316-44.2885ZM56.0317-34.0066L56.0317-26.1789L101.316-26.1789C101.811-28.7262 102.121-31.3354 102.183-34.0066ZM56.0317-23.7865L56.0317-15.8969L97.9114-15.8969C99.0876-18.4443 100.016-20.9916 100.697-23.7865ZM56.0317-13.5045L56.0317-5.6154L91.4174-5.6154C93.5223-8.03855 95.2555-10.6478 96.803-13.5045ZM56.0317-3.21499L56.0317 4.61267L79.2701 4.61267C82.9844 2.49894 86.3274-0.172164 89.2986-3.21499ZM56.0317 7.11286L56.0317 10.793C62.5543 10.8457 68.7675 9.53643 74.4234 7.11286ZM56.0321 12.0488C82.1491 12.0488 103.342-9.14362 103.342-35.2606C103.342-61.3777 82.1491-82.5701 56.0321-82.5701C29.9155-82.5701 8.72266-61.3777 8.72266-35.2606C8.72266-9.14362 29.9155 12.0488 56.0321 12.0488ZM56.0321 9.63326C31.1881 9.63326 11.0767-10.4166 11.0767-35.2606C11.0767-60.1046 31.1881-80.1545 56.0321-80.1545C80.8761-80.1545 100.926-60.1046 100.926-35.2606C100.926-10.4166 80.8761 9.63326 56.0321 9.63326Z"/>
</svg>