<svg xmlns="http://www.w3.org/2000/svg" viewBox="8.72266 -87.749 108.99 116.15">
  <path d="M29.6734-16.7599L91.2844-16.7599C106.123-16.7599 117.714-27.9205 117.714-42.0089C117.714-56.2872 105.622-66.8853 89.976-66.8853C83.8701-79.5285 73.5195-87.749 58.4498-87.749C41.0588-87.749 26.7839-73.3566 25.2877-55.2259C16.1314-52.8571 8.72266-45.8112 8.72266-35.6543C8.72266-25.302 16.4539-16.7599 29.6734-16.7599ZM29.6726-18.9865C17.7261-18.9865 11.0111-26.5712 11.0111-35.6526C11.0111-44.1045 16.8479-50.6364 25.6906-52.9409C27.0722-53.3172 27.5126-53.822 27.5761-54.9569C28.5124-71.6483 42.6379-85.4605 58.4498-85.4605C72.5669-85.4605 82.3399-77.4397 87.6353-66.3519C88.2626-65.0347 89.0157-64.6571 90.5224-64.6571C104.544-64.6571 115.425-54.637 115.425-41.8839C115.425-29.3143 104.789-18.9865 91.2263-18.9865ZM67.6704 5.20247L58.8051 5.20247L59.546 6.39426L66.7009-7.35614C67.2617-8.41532 66.8256-9.28716 65.7045-9.28716L62.652-9.28716C61.2194-9.28716 60.721-8.78873 60.2848-7.72997L53.433 7.9666C52.8727 9.27416 53.6801 9.95993 54.8648 9.95993L61.6126 9.95993L62.2356 6.97015L54.1381 26.7148C53.827 27.4617 54.0135 28.0224 54.5116 28.2093C55.0096 28.3962 55.6318 28.2097 56.0687 27.5256L68.8509 7.4467C69.5392 6.32564 69.0416 5.20247 67.6704 5.20247Z"/>
</svg>