<svg xmlns="http://www.w3.org/2000/svg" viewBox="12.4609 -77.9575 85.39 85.39">
  <path d="M25.0069 7.437L85.309 7.437C93.4878 7.437 97.855 2.94602 97.855-5.1077L97.855-65.4127C97.855-73.4665 93.4878-77.9575 85.309-77.9575L25.0069-77.9575C16.8286-77.9575 12.4609-73.5902 12.4609-65.4127L12.4609-5.1077C12.4609 3.06978 16.8286 7.437 25.0069 7.437ZM45.9308-9.26739C40.6227-9.26739 37.4384-12.0799 37.4384-18.1386L37.4384-26.7173C37.4384-31.1961 36.0715-32.5007 32.2814-33.6188C30.8257-34.0604 30.7638-36.4596 32.2814-36.9012C36.0715-37.9574 37.4384-39.3239 37.4384-43.8027L37.4384-52.3818C37.4384-58.4401 40.6227-61.2531 45.9308-61.2531C46.5736-61.2531 47.0817-60.747 47.0817-60.0503C47.0817-59.4155 46.5753-58.8489 45.879-58.8489C42.3289-58.8489 39.8468-57.1064 39.8468-51.6965L39.8468-43.0508C39.8468-38.503 37.2902-35.2013 33.6071-35.1946L33.6071-35.3263C37.2902-35.3192 39.8468-32.017 39.8468-27.4692L39.8468-18.824C39.8468-13.4136 42.3289-11.6712 45.879-11.6712C46.5753-11.6712 47.0817-11.1045 47.0817-10.4697C47.0817-9.7734 46.5736-9.26739 45.9308-9.26739ZM64.3241-9.26739C63.6813-9.26739 63.1732-9.7734 63.1732-10.4697C63.1732-11.1045 63.6796-11.6712 64.3759-11.6712C67.926-11.6712 70.4081-13.4136 70.4081-18.824L70.4081-27.4692C70.4081-32.017 72.9647-35.3192 76.6478-35.3263L76.6478-35.1946C72.9647-35.2013 70.4081-38.503 70.4081-43.0508L70.4081-51.6965C70.4081-57.1064 67.926-58.8489 64.3759-58.8489C63.6796-58.8489 63.1732-59.4155 63.1732-60.0503C63.1732-60.747 63.6813-61.2531 64.3241-61.2531C69.5703-61.2531 72.8165-58.4401 72.8165-52.3818L72.8165-43.8027C72.8165-39.3239 74.2453-38.0808 77.9735-36.9012C79.4911-36.3985 79.4292-33.9986 77.9735-33.6188C74.1834-32.6245 72.8165-31.1961 72.8165-26.7173L72.8165-18.1386C72.8165-12.0799 69.5703-9.26739 64.3241-9.26739Z"/>
</svg>