<svg xmlns="http://www.w3.org/2000/svg" viewBox="8.72266 -82.5701 94.62 94.62">
  <path d="M56.0321 12.0488C82.0254 12.0488 103.342-9.26781 103.342-35.2606C103.342-61.2535 82.0254-82.5701 56.0321-82.5701C30.0393-82.5701 8.72266-61.2535 8.72266-35.2606C8.72266-9.26781 30.0393 12.0488 56.0321 12.0488ZM39.0065-14.0817C38.2513-14.0817 37.7478-14.5856 37.7478-15.4035L37.7478-56.6194C37.7478-57.375 38.2513-57.9408 39.0065-57.9408C39.6999-57.9408 40.2034-57.375 40.2034-56.6189L40.2034-29.4865L40.4517-29.4865L54.6395-45.2286C54.8909-45.5426 55.207-45.6697 55.5223-45.6697C56.0898-45.6697 56.5929-45.1662 56.5929-44.5996C56.5929-44.2835 56.467-44.0949 56.214-43.78L45.3885-31.9623L56.6522-16.0337C56.9031-15.7193 56.9671-15.4052 56.9671-15.1522C56.9671-14.461 56.4636-14.0817 55.8334-14.0817C55.4541-14.0817 55.0765-14.2715 54.8243-14.5258L43.6874-30.3891L40.2034-26.7194L40.2034-15.4035C40.2034-14.5856 39.6999-14.0817 39.0065-14.0817ZM64.8221-14.0817C64.0661-14.0817 63.6257-14.5237 63.6257-15.4035L63.6257-44.411C63.6257-45.1654 64.0673-45.6697 64.7594-45.6697C65.3888-45.6697 65.8299-45.1654 65.8299-44.411L65.8299-39.3172L66.2648-39.3172C67.0748-42.866 69.1317-45.6697 72.619-45.6697C73.8702-45.6697 75.4261-45.229 75.4261-43.9783C75.4261-43.4764 75.0523-43.162 74.3674-43.1595C73.7431-43.1552 73.1175-43.2782 72.4907-43.2782C67.6355-43.2782 65.9554-37.6842 65.9554-33.5763L65.9554-15.4035C65.9554-14.5822 65.5731-14.0817 64.8221-14.0817ZM78.8988-14.1486C77.6455-14.1486 76.6449-15.0255 76.6449-16.2783C76.6449-17.5312 77.6455-18.4704 78.8988-18.4704C80.1516-18.4704 81.0908-17.5312 81.0908-16.2783C81.0908-15.0255 80.1516-14.1486 78.8988-14.1486Z"/>
</svg>