<svg xmlns="http://www.w3.org/2000/svg" viewBox="12.4609 -101.079 102.02 131.58">
  <path d="M25.0052 30.4961L72.9011 30.4961C81.0786 30.4961 85.4458 26.1284 85.4458 17.9501L85.4458-24.5678C85.4458-27.8325 84.8219-29.3379 82.8745-31.2858L50.644-63.4582C48.6983-65.4666 47.1903-66.0914 43.932-66.0914L25.0052-66.0914C16.9515-66.0914 12.4609-61.7237 12.4609-53.5454L12.4609 17.9501C12.4609 26.1288 16.8277 30.4961 25.0052 30.4961ZM25.1319 28.0839C18.355 28.0839 14.8731 24.6011 14.8731 17.8255L14.8731-53.4208C14.8731-59.887 18.355-63.6792 25.1324-63.6792L46.521-63.6792L46.521-32.1791C46.521-27.7416 48.7711-25.9246 52.8373-25.9246L83.0332-25.9246L83.0332 17.8255C83.0332 24.6011 79.5513 28.0839 72.7744 28.0839ZM52.9682-28.333C50.0479-28.333 48.929-29.4516 48.929-32.31L48.929-61.749L82.3411-28.333ZM34.883-64.8853L37.3554-64.8853L36.4213-81.4684L33.9493-81.4684ZM53.8064-58.3959L53.4945-68.3263C53.494-68.8968 52.9278-69.3384 52.3574-69.3384C51.6624-69.3384 51.2199-68.8963 51.2203-68.2026L51.4691-60.7955ZM70.1871-42.0148L70.1871-68.2026C70.1871-68.8345 69.7442-69.3384 69.0492-69.3384C68.416-69.3384 67.9113-68.8345 67.9113-68.2026L67.9113-44.291ZM83.0475-22.8107L85.3835-22.8107L86.878-68.1407C86.8784-68.8345 86.3737-69.2765 85.679-69.2765C85.1086-69.2765 84.5424-68.8349 84.542-68.2645ZM84.1155 4.42955L90.6752 4.42955C95.5522 4.42955 99.7923 0.437416 100.042-4.31584L104.149-81.5303L101.552-81.5303L97.5081-4.50822C97.3216-0.90002 94.2148 2.02115 90.607 2.02115L84.1155 2.02115ZM24.756-80.8428L113.28-80.8428C114.038-80.8428 114.484-81.4128 114.484-82.0473C114.484-82.805 113.976-83.2512 113.28-83.2512L24.756-83.2512C24.0606-83.2512 23.4906-82.7431 23.4906-82.0473C23.4906-81.351 24.0606-80.8428 24.756-80.8428ZM49.2851-82.0485L51.6965-82.0485L51.6965-92.2067C51.6965-96.3079 54.3078-98.6712 58.7807-98.6712L79.2549-98.6712C83.7897-98.6712 86.401-96.3079 86.401-92.2067L86.401-82.0485L88.8124-82.0485L88.8124-92.2109C88.8124-97.7682 85.1907-101.079 79.1354-101.079L58.9002-101.079C52.8449-101.079 49.2851-97.7682 49.2851-92.2109Z"/>
</svg>