<svg xmlns="http://www.w3.org/2000/svg" viewBox="12.4609 -84.1934 107.33 97.87">
  <path d="M118.58 13.6721C119.277 13.6721 119.786 13.1631 119.786 12.466L119.786-79.6628C119.786-82.3685 117.899-84.1934 115.006-84.1934L17.2407-84.1934C14.3482-84.1934 12.4609-82.3685 12.4609-79.6628L12.4609 12.466C12.4609 13.1631 12.908 13.6721 13.667 13.6721C14.4265 13.6721 14.935 13.1631 14.935 12.466L14.935-79.2263C14.935-80.7839 15.9319-81.7812 17.3653-81.7812L114.881-81.7812C116.315-81.7812 117.312-80.7839 117.312-79.2263L117.312 12.466C117.312 13.1631 117.821 13.6721 118.58 13.6721ZM112.988 12.4218C113.366 12.4218 113.619 12.1688 113.619 11.7908L113.619-77.4574C113.619-77.8354 113.366-78.0888 112.988-78.0888L68.6008-78.0888C68.2228-78.0888 67.9698-77.8354 67.9698-77.4574L67.9698 11.7908C67.9698 12.1688 68.2228 12.4218 68.6008 12.4218ZM103.148-26.8074C102.085-26.8074 101.336-27.6187 101.336-28.6808L101.336-37.1551C101.336-38.2168 102.085-39.028 103.148-39.028C104.209-39.028 105.02-38.2168 105.02-37.1551L105.02-28.6808C105.02-27.6187 104.209-26.8074 103.148-26.8074ZM63.6459 12.4218C64.0239 12.4218 64.2774 12.1688 64.2774 11.7908L64.2774-77.4574C64.2774-77.8354 64.0239-78.0888 63.6459-78.0888L19.197-78.0888C18.8808-78.0888 18.6274-77.8354 18.6274-77.4574L18.6274 11.7908C18.6274 12.1688 18.8808 12.4218 19.197 12.4218Z"/>
</svg>