<svg xmlns="http://www.w3.org/2000/svg" viewBox="12.4609 -86.9954 139.24 103.47">
  <path d="M150.26-37.0102L124.471-52.828C123.034-53.7024 121.345-52.8916 121.345-51.4536L121.345-19.0686C121.345-17.5682 123.095-16.8189 124.471-17.6941L150.26-33.2635C151.697-34.1998 151.696-36.0744 150.26-37.0102ZM77.2523 14.8378L77.2523-74.9058C77.2523-82.6341 73.0143-86.9954 65.2246-86.9954L29.8654-86.9954C21.9515-86.9954 17.9004-82.7574 17.9004-74.9058L17.9004 14.8378ZM28.7039-43.9332C25.5853-43.9332 23.467-45.9888 23.467-49.1668L23.467-76.1329C23.467-79.3113 25.5853-81.4288 28.7039-81.4288L66.3861-81.4288C69.5047-81.4288 71.6853-79.3113 71.6853-76.1329L71.6853-49.1668C71.6853-45.9888 69.5047-43.9332 66.3861-43.9332ZM12.4609 15.2057C12.4609 15.8414 12.9695 16.4741 13.6047 16.4741L81.4234 16.4741C82.0586 16.4741 82.6295 15.8414 82.6295 15.2057C82.6295 14.6328 82.0586 14.0619 81.4234 14.0619L13.6047 14.0619C12.9699 14.0619 12.4609 14.6324 12.4609 15.2057ZM102.988-35.4875L102.988-8.41364C102.988-2.24295 99.751 1.6191 94.6433 1.6191C89.4156 1.6191 86.1787-2.23664 86.1787-8.45574C86.1787-14.3848 87.3006-23.5465 87.3006-31.8368C87.3006-38.8276 83.4352-44.3803 76.6773-47.2509L75.5453-45.1679C81.6035-42.6147 84.9663-37.8172 84.9663-31.8368C84.9663-24.234 83.8444-15.0718 83.8444-8.45574C83.8444-0.786373 87.9645 4.07718 94.6433 4.07718C101.264 4.07718 105.384-0.791002 105.384-8.41364L105.384-35.4875C105.384-40.0341 108.13-41.5269 111.051-43.9505C113.24-45.8234 115.23-47.5801 115.23-51.4426L115.23-58.3559C115.23-59.5384 114.607-60.3471 113.673-60.3471L110.311-60.3471L110.311-68.6378C110.311-69.3905 109.684-70.0793 108.931-70.0793C108.117-70.0793 107.489-69.3905 107.489-68.6378L107.551-60.3471L100.824-60.3471L100.886-68.6378C100.886-69.3905 100.26-70.0793 99.445-70.0793C98.6923-70.0793 98.0655-69.3905 98.0655-68.6378L98.0655-60.3471L94.6985-60.3471C93.7639-60.3471 93.1409-59.5384 93.1409-58.3559L93.1409-51.4426C93.1409-47.5801 95.1321-45.8234 97.3818-43.9505C100.242-41.5269 102.988-40.0341 102.988-35.4875Z"/>
</svg>