<svg xmlns="http://www.w3.org/2000/svg" viewBox="9.96875 -81.8027 100.02 91.41">
  <path d="M20.212 9.60925L99.7435 9.60925C106.238 9.60925 109.987 5.05091 109.987-0.324548C109.987-2.44417 109.425-4.6884 108.179-6.86907L68.5057-77.0519C66.6311-80.4248 63.2586-81.8027 60.0087-81.8027C56.6968-81.8027 53.324-80.4248 51.4498-77.0519L11.7764-6.86907C10.5299-4.68798 9.96875-2.44417 9.96875-0.324548C9.96875 5.05091 13.7176 9.60925 20.212 9.60925ZM20.2743 7.19833C15.1792 7.19833 12.5047 3.716 12.5047-0.386432C12.5047-2.12465 13.001-4.04978 13.9941-5.84989L53.6052-75.9094C55.0348-78.4576 57.522-79.3294 60.0087-79.3294C62.4331-79.3294 64.9198-78.4576 66.3499-75.9094L105.961-5.84947C106.954-4.04936 107.45-2.12465 107.45-0.386432C107.45 3.716 104.776 7.19833 99.6808 7.19833ZM59.9468-21.9902C60.769-21.9902 61.3979-22.7425 61.3983-23.8138L61.7132-50.5964C61.7136-51.667 61.0178-52.362 59.9464-52.362C58.8741-52.362 58.1795-51.6674 58.18-50.5969L58.494-23.8138C58.4944-22.7429 59.1234-21.9902 59.9468-21.9902ZM59.9468-8.32734C61.7002-8.32734 63.0174-9.82855 63.0174-11.3967C63.0174-13.0886 61.7006-14.466 59.9468-14.466C58.2549-14.466 56.8758-13.0882 56.8758-11.3967C56.8758-9.82897 58.2553-8.32734 59.9468-8.32734Z"/>
</svg>