<svg xmlns="http://www.w3.org/2000/svg" viewBox="7.46899 -74.5265 69.87 80.71">
  <path d="M42.1104-42.4543L44.3462-57.2424C45.9009-67.3265 50.5051-72.177 58.7171-72.177C63.3298-72.177 64.9488-71.4925 65.5832-71.4925C66.2181-71.4925 66.5393-71.9354 66.5393-72.4485C66.5393-73.839 62.8477-74.5265 59.3402-74.5265C49.424-74.5265 43.5552-69.0369 41.8107-57.6861L39.8283-44.6745ZM38.072-32.6173L34.654-11.0982C33.0994-1.01411 28.4951 3.8364 20.2835 3.8364C15.6705 3.8364 14.4846 2.96624 13.4789 2.96624C12.7203 2.96624 12.4609 3.47099 12.4609 3.92227C12.4609 5.4984 16.1525 6.18586 19.6605 6.18586C29.5762 6.18586 35.445 0.696314 37.1896-10.6545L40.2922-30.3975ZM16.3318-37.5036C16.3318-36.8056 16.7785-36.2979 17.6625-36.2979L34.3918-36.2979L31.9804-38.7093L17.6002-38.7093C16.7781-38.7093 16.3318-38.2635 16.3318-37.5036ZM66.5313-37.5036C66.5313-38.2016 66.0851-38.7093 65.1387-38.7093L45.8558-38.7093L48.2672-36.2979L65.201-36.2979C66.0855-36.2979 66.5313-36.7438 66.5313-37.5036ZM75.0557-0.829319C75.4998-0.323307 76.3232-0.322886 76.7673-0.829319C77.3352-1.39764 77.2738-2.09645 76.7673-2.60289L9.68711-69.6212C9.30444-70.0658 8.54332-70.1896 7.975-69.6212C7.46899-69.1771 7.46899-68.4156 7.975-67.9096Z"/>
</svg>