<svg xmlns="http://www.w3.org/2000/svg" viewBox="8.72266 -82.5701 94.62 94.62">
  <path d="M56.0321 12.0488C82.0254 12.0488 103.342-9.26781 103.342-35.2606C103.342-61.2535 82.0254-82.5701 56.0321-82.5701C30.0393-82.5701 8.72266-61.2535 8.72266-35.2606C8.72266-9.26781 30.0393 12.0488 56.0321 12.0488ZM56.0321-25.5264C55.6604-25.5264 55.351-25.5264 55.0411-25.5883C53.1581-14.6988 49.4253-9.77592 43.0104-9.77592C34.6721-9.77592 27.2566-18.1871 27.2566-26.8449C27.2566-31.2694 29.5021-33.4521 34.0516-33.4521L46.4843-33.4521C46.3602-34.0129 46.2979-34.6372 46.2979-35.2606C46.2979-35.6324 46.2979-35.9422 46.3597-36.252C35.4707-38.1347 30.5478-41.8679 30.5478-48.2823C30.5478-56.6206 38.9589-63.9743 47.6164-63.9743C52.0412-63.9743 54.224-61.7907 54.224-57.2416L54.224-44.8084C54.7848-44.9326 55.4086-44.9949 56.0321-44.9949C56.4043-44.9949 56.7137-44.9949 57.0235-44.933C58.9061-55.8225 62.6394-60.7454 69.0538-60.7454C77.3306-60.7454 84.7462-52.3342 84.7462-43.6764C84.7462-39.2519 82.5625-37.0692 78.013-37.0692L65.5799-37.0692C65.7041-36.5084 65.7664-35.8841 65.7664-35.2606C65.7664-34.8889 65.7664-34.5791 65.7045-34.2692C76.5939-32.3866 81.5168-28.6534 81.5168-22.239C81.5168-13.9007 73.1057-6.54702 64.4483-6.54702C60.0234-6.54702 57.8406-8.73063 57.8406-13.2797L57.8406-25.7129C57.2799-25.5887 56.6556-25.5264 56.0321-25.5264ZM56.0321-28.416C59.8281-28.416 62.8772-31.4647 62.8772-35.2606C62.8772-39.0566 59.8281-42.1053 56.0321-42.1053C52.2366-42.1053 49.1256-39.0566 49.1256-35.2606C49.1256-31.4647 52.2366-28.416 56.0321-28.416Z"/>
</svg>