<svg xmlns="http://www.w3.org/2000/svg" viewBox="8.72266 -82.5701 94.62 94.62">
  <path d="M56.0321 12.0488C82.0254 12.0488 103.342-9.26781 103.342-35.2606C103.342-61.2535 82.0254-82.5701 56.0321-82.5701C30.0393-82.5701 8.72266-61.2535 8.72266-35.2606C8.72266-9.26781 30.0393 12.0488 56.0321 12.0488ZM68.7461-51.3416C65.505-51.3416 62.8877-53.9588 62.8877-57.1999C62.8877-60.3795 65.505-62.9963 68.7461-62.9963C71.9876-62.9963 74.6044-60.3795 74.6044-57.1999C74.6044-53.9588 71.9876-51.3416 68.7461-51.3416ZM50.4239-3.60103C48.8662-3.60103 47.6197-4.84754 47.6197-6.40516L47.6197-21.4871L45.5632-33.6399L33.2854-35.6964C31.852-35.8837 30.9789-36.756 30.9789-38.5636L30.9789-55.1405C30.9789-56.7612 32.0389-57.8831 33.7216-57.8831C35.4042-57.8831 36.5261-56.7612 36.5261-55.1405L36.5261-41.119L50.4239-41.119C53.4149-41.119 55.7206-42.6143 57.2167-45.1069C57.6529-45.7927 57.3414-46.6026 56.656-46.7904L42.0102-51.7133C40.2652-52.3359 39.7668-53.9567 40.2029-55.2655C40.5768-56.5743 41.8856-57.6339 43.8174-57.0105L84.4523-43.4242C86.2591-42.8016 86.6957-41.1809 86.3215-39.8101C85.8853-38.5013 84.6384-37.4422 82.7684-38.1271L69.1826-42.677C68.0611-43.0504 67.4381-42.7393 67.2503-42.1786C64.6335-36.6937 59.3355-32.6422 53.228-31.6457L53.228-6.40516C53.228-4.84754 51.9196-3.60103 50.4239-3.60103Z"/>
</svg>