<svg xmlns="http://www.w3.org/2000/svg" viewBox="8.72266 -82.5701 94.62 94.62">
  <path d="M56.0321 12.0488C82.1491 12.0488 103.342-9.14362 103.342-35.2606C103.342-61.3777 82.1491-82.5701 56.0321-82.5701C29.9155-82.5701 8.72266-61.3777 8.72266-35.2606C8.72266-9.14362 29.9155 12.0488 56.0321 12.0488ZM56.0321 9.63326C31.1881 9.63326 11.0767-10.4166 11.0767-35.2606C11.0767-60.1046 31.1881-80.1545 56.0321-80.1545C80.8761-80.1545 100.926-60.1046 100.926-35.2606C100.926-10.4166 80.8761 9.63326 56.0321 9.63326ZM30.057-38.9396C33.2968-38.9396 35.8521-41.5564 35.8521-44.7347C35.8521-47.9123 33.2968-50.5291 30.057-50.5291C26.8794-50.5291 24.2622-47.9123 24.2622-44.7347C24.2622-41.5564 26.8794-38.9396 30.057-38.9396ZM47.9367-22.4924L55.6002-22.4924C62.0176-22.4924 63.824-26.1065 63.2637-30.2809L61.4573-44.3622L71.5544-44.3622C73.0501-44.3622 74.2958-45.6083 74.2958-47.1659C74.2958-48.6616 73.0501-49.9073 71.5544-49.9073L58.0305-49.9073C56.4725-49.9073 55.2887-48.7858 55.2887-46.9167L55.2887-32.7108L50.6781-32.7108C48.2478-32.7108 46.1299-33.5212 45.008-35.4522C44.6969-35.8883 44.6969-36.5118 45.1953-37.1344L52.1111-45.2967C53.731-47.2282 52.4227-49.9073 50.1174-49.9073L40.3974-49.9073C38.9021-49.9073 37.656-48.6616 37.656-47.1659C37.656-45.6083 38.8398-44.3622 40.3974-44.3622L44.3849-44.3622L40.3351-39.5647C37.4691-36.1998 34.8519-33.7712 30.6152-31.9012L26.3789-30.0317L27.6873-34.705C28.1234-36.2003 27.1261-37.6956 25.6935-38.0694C24.1978-38.4432 22.7025-37.5087 22.3286-36.0757L19.7118-25.9196C18.9646-23.1163 21.3945-21.7452 23.824-22.8043L32.4847-26.6672C33.357-27.0411 33.8554-26.9788 34.5408-26.4803C37.3445-24.0504 41.8304-22.4924 47.9367-22.4924ZM92.6597-34.2688L77.3449-34.2688C77.158-34.2688 76.9084-34.2065 76.5969-34.2065L64.7628-33.2715L65.1366-30.5305C65.3235-29.0352 65.2612-27.5399 64.8874-26.1692L77.5942-28.7233L92.6597-28.7233C94.1554-28.7233 95.4634-29.9075 95.4634-31.4651C95.4634-33.0227 94.1554-34.2688 92.6597-34.2688Z" />
</svg>