<svg xmlns="http://www.w3.org/2000/svg" viewBox="8.72266 -82.5701 94.62 94.62">
  <path d="M56.0321 12.0488C82.1491 12.0488 103.342-9.14362 103.342-35.2606C103.342-61.3777 82.1491-82.5701 56.0321-82.5701C29.9155-82.5701 8.72266-61.3777 8.72266-35.2606C8.72266-9.14362 29.9155 12.0488 56.0321 12.0488ZM56.0321 9.63326C31.1881 9.63326 11.0767-10.4166 11.0767-35.2606C11.0767-60.1046 31.1881-80.1545 56.0321-80.1545C80.8761-80.1545 100.926-60.1046 100.926-35.2606C100.926-10.4166 80.8761 9.63326 56.0321 9.63326ZM36.2318-51.4637C39.4098-51.4637 42.0885-54.0804 42.0885-57.3203C42.0885-60.5601 39.4098-63.1769 36.2318-63.1769C32.992-63.1769 30.3129-60.5601 30.3129-57.3203C30.3129-54.0804 32.992-51.4637 36.2318-51.4637ZM30.3125-14.413C31.6828-15.3471 33.2412-16.344 35.797-16.9047L36.3565-22.4343C36.4183-22.7454 36.7926-22.8077 36.9168-22.5589L39.4641-17.4023C39.9642-17.4646 40.4652-17.4651 40.9666-17.4651C42.7705-17.4651 44.2637-17.3405 45.5712-17.0921L42.0262-26.421L42.0262-42.6206C42.0262-45.6112 39.9701-48.1034 36.2318-48.1034L34.9858-48.1034C32.8047-48.1034 30.3125-47.7919 28.0699-45.6112L21.9637-39.5672C20.9049-38.5704 20.9668-36.8258 21.9637-35.829L30.3125-27.6047ZM30.3125-34.8325L27.5092-37.6981L29.5025-39.63C29.8759-39.9415 30.3125-39.8165 30.3125-39.3184ZM25.0187-23.123L79.697-56.6274C80.1975-56.9397 80.2606-57.6276 80.0097-58.1281C79.697-58.6287 79.0714-58.8156 78.5708-58.5028L23.9549-24.9366C23.5162-24.6238 23.3912-23.9982 23.6421-23.4977C23.9549-22.9976 24.5186-22.8102 25.0187-23.123ZM55.9723-7.05093C63.1395-7.05093 65.2532-11.8459 70.9785-11.8459C76.7034-11.8459 78.818-7.05093 85.9843-7.05093L86.1089-7.05093C86.6107-7.05093 87.0497-7.49001 87.0497-7.99139C87.0497-8.43131 86.6726-8.93227 86.1089-8.93227L85.9843-8.93227C80.0106-8.93227 77.8952-13.7268 70.9785-13.7268C64.0614-13.7268 61.9464-8.93227 55.9723-8.93227C49.9987-8.93227 47.8837-13.7268 40.9666-13.7268C34.0499-13.7268 31.9345-8.93227 25.8989-8.93227L25.7743-8.93227C25.2098-8.93227 24.8953-8.43131 24.8953-7.99139C24.8953-7.49001 25.2717-7.05093 25.7743-7.05093L25.8989-7.05093C33.0653-7.05093 35.2417-11.8459 40.9666-11.8459C46.63-11.8459 48.7437-7.05093 55.9723-7.05093Z" />
</svg>