<svg xmlns="http://www.w3.org/2000/svg" viewBox="8.47049 -89.1188 107.65 107.72">
  <path d="M14.277-26.3974L53.4044 12.7295C59.2101 18.5975 65.4481 18.4742 71.13 12.7308L110.135-26.3982C115.879-32.0797 116.125-38.3178 110.257-44.1239L71.1924-83.1889C65.3248-89.1188 59.2105-88.9955 53.4048-83.1283L14.2762-44.1231C8.47049-38.3174 8.47133-32.2035 14.277-26.3974ZM49.9932-6.03806C47.8727-3.54377 43.6962-6.47462 46.3138-9.52923L54.789-19.5628L56.2839-26.5995L60.6473-21.1133L59.839-18.4396C59.4656-17.3805 59.341-17.1931 58.5306-16.1958ZM71.0543-6.84802L65.1336-18.8762C64.8844-19.3742 64.8221-19.6243 64.1995-20.4334L58.4658-27.6005C56.2851-30.3419 55.537-31.7758 55.7863-34.8919L56.2847-41.1236C56.347-42.1192 55.1026-42.4935 54.3549-41.8081L52.1743-39.8771L51.5512-32.4611C51.4262-30.7162 50.5531-29.8431 49.0565-29.9677C47.5604-30.03 46.6877-31.1523 46.8123-32.7727L47.2488-39.5033C47.4353-41.372 47.9957-42.4324 49.3049-43.7421L53.6671-48.0419C56.4097-50.66 58.4039-52.1562 61.2716-52.1562C65.0747-52.1562 67.5042-49.4741 67.1931-45.4858L66.6319-37.2603C66.445-34.393 65.9474-32.6476 65.012-29.7189L64.7628-28.8475L68.5015-23.5507C69.1241-22.7412 69.6853-21.8062 70.1214-20.9958L75.9166-9.21729C77.787-5.5392 72.7373-3.41958 71.0543-6.84802ZM80.8391-41.0626C82.4602-41.0626 83.5198-40.1276 83.5198-38.6933C83.5198-37.1967 82.4602-36.2617 80.8391-36.2617L74.6701-36.2617C73.0493-36.2617 72.3012-36.5728 71.4281-37.4459L69.1275-39.7466L69.5644-46.2301L74.2335-41.0626ZM64.3266-54.9582C60.9618-54.9582 58.2204-57.6996 58.2204-61.064C58.2204-64.367 60.9618-67.0466 64.3266-67.0466C67.6911-67.0466 70.4325-64.367 70.4325-61.064C70.4325-57.6996 67.6911-54.9582 64.3266-54.9582Z"/>
</svg>