<svg xmlns="http://www.w3.org/2000/svg" viewBox="8.72266 -82.5701 94.62 94.62">
  <path d="M56.0321 12.0488C82.1491 12.0488 103.342-9.14362 103.342-35.2606C103.342-61.3777 82.1491-82.5701 56.0321-82.5701C29.9155-82.5701 8.72266-61.3777 8.72266-35.2606C8.72266-9.14362 29.9155 12.0488 56.0321 12.0488ZM56.0321 9.63326C31.1881 9.63326 11.0767-10.4166 11.0767-35.2606C11.0767-60.1046 31.1881-80.1545 56.0321-80.1545C80.8761-80.1545 100.926-60.1046 100.926-35.2606C100.926-10.4166 80.8761 9.63326 56.0321 9.63326ZM67.1076-50.5985C70.2856-50.5985 72.9643-53.2153 72.9643-56.5171C72.9643-59.6954 70.2856-62.3741 67.1076-62.3741C63.8059-62.3741 61.1887-59.6954 61.1887-56.5171C61.1887-53.2153 63.8059-50.5985 67.1076-50.5985ZM46.4911-11.227C47.4884-10.6663 49.3571-10.9155 50.1048-12.4731L56.896-25.9309C57.3944-26.9282 57.2075-28.112 56.3352-28.9843L48.2356-37.1462L58.4536-42.2556C58.952-42.5667 59.5751-42.3802 59.8866-42.0683L65.1825-36.7105L65.1825-25.7444C65.1825-24.2491 66.4286-23.0653 67.9239-23.0653C69.3573-23.0653 70.603-24.2491 70.603-25.7444L70.603-37.8315C70.603-38.5792 70.4165-39.2027 69.7935-39.7634L57.6436-51.8505C56.2729-53.2212 54.4661-53.9689 52.5346-53.9689L42.1921-53.9689C39.513-53.9689 38.7653-51.041 40.3852-49.4206L43.6251-46.2427L42.3167-45.6824C37.4561-43.6276 35.9616-37.3327 40.6344-33.9064L51.0393-26.3048L45.3073-14.8407C44.6219-13.5323 45.1827-11.9128 46.4911-11.227ZM23.5082-21.6942L36.9585-21.6942C38.0176-21.6942 38.8899-22.3796 39.326-23.1899L42.7511-30.0397L39.5723-32.4077C38.7-33.0307 37.829-33.9017 37.579-34.4006L35.027-27.1147L23.5082-27.1147C22.0129-27.1147 20.8291-25.9309 20.8291-24.3737C20.8291-22.9403 22.0129-21.6942 23.5082-21.6942ZM80.8782-12.7177L88.2916-12.7177C88.7926-12.7177 89.1689-13.0318 89.1689-13.6569L89.1689-14.9653C89.1689-15.4667 88.8545-15.9664 88.2916-15.9664L79.079-15.9664L53.1581-41.8872L51.4675-40.9476L78.8276-13.5875C79.5736-12.78 79.947-12.7177 80.8782-12.7177Z" />
</svg>