<svg xmlns="http://www.w3.org/2000/svg" viewBox="8.72266 -82.5701 94.62 94.62">
  <path d="M56.0321 12.0488C82.0254 12.0488 103.342-9.26781 103.342-35.2606C103.342-61.2535 82.0254-82.5701 56.0321-82.5701C30.0393-82.5701 8.72266-61.2535 8.72266-35.2606C8.72266-9.26781 30.0393 12.0488 56.0321 12.0488ZM30.0502-38.94C26.8714-38.94 24.2538-41.5572 24.2538-44.7364C24.2538-47.9152 26.8714-50.5329 30.0502-50.5329C33.2909-50.5329 35.8471-47.9152 35.8471-44.7364C35.8471-41.5572 33.2909-38.94 30.0502-38.94ZM47.9342-22.489C41.8262-22.489 37.3394-24.0475 34.5349-26.4782C33.8495-26.9766 33.3511-27.039 32.4784-26.6651L23.8155-22.801C21.3852-21.7418 18.9549-23.1133 19.7641-25.917L22.3198-36.0757C22.6936-37.5091 24.1894-38.4437 25.6855-38.0698C27.1185-37.696 28.1162-36.2003 27.6797-34.7045L26.3713-30.0304L30.6084-31.9C34.8464-33.7704 37.4641-36.1998 40.3309-39.5656L44.3816-44.3643L40.3932-44.3643C38.8352-44.3643 37.651-45.6108 37.651-47.1688C37.651-48.665 38.8975-49.9111 40.3932-49.9111L50.1157-49.9111C52.4214-49.9111 53.7302-47.2311 52.1099-45.2993L45.1924-37.1344C44.6935-36.5118 44.6935-35.8883 45.005-35.4518C46.1269-33.5203 48.2457-32.7099 50.6764-32.7099L55.2882-32.7099L55.2882-46.9196C55.2882-48.7892 56.4725-49.9111 58.0309-49.9111L71.5586-49.9111C72.9925-49.9111 74.2385-48.665 74.2385-47.1688C74.2385-45.6108 72.9925-44.3643 71.5586-44.3643L61.4581-44.3643L63.2649-30.2796C63.8257-26.104 62.0188-22.489 55.5998-22.489ZM92.6066-34.2684C94.1028-34.2684 95.4112-33.0219 95.4112-31.4638C95.4112-29.9062 94.1028-28.7216 92.6066-28.7216L77.5996-28.7216L64.8899-26.1667C65.2637-27.5378 65.326-29.0335 65.1391-30.5293L64.7653-33.2707L76.6019-34.2061C76.9134-34.2061 77.1631-34.2684 77.35-34.2684Z"/>
</svg>