<svg xmlns="http://www.w3.org/2000/svg" viewBox="12.0833 -83.4441 163.96 96.31">
  <path d="M122.653 10.8953L69.3278-81.4882C68.3828-83.0643 66.8748-83.4441 64.9303-83.3178C61.8172-83.1296 57.7691-81.3867 54.7124-79.5163C43.1805-72.7226 38.57-62.0049 25.9903-54.7191C20.51-51.6047 15.8384-50.6688 13.7815-49.5465C12.4635-48.7311 12.0833-47.5991 12.8373-46.2793L33.3903-10.6541C34.3354-9.07837 35.9052-8.69907 37.9116-8.82494C41.0247-9.075 45.0109-10.756 48.0053-12.6268C59.5995-19.4205 64.21-30.1382 76.7897-37.4241C82.2599-40.5326 87.1714-41.8401 89.1673-42.4034L120.624 12.0998C121.003 12.6706 121.639 12.8609 122.271 12.5435C122.779 12.1646 123.032 11.4658 122.653 10.8953ZM96.563-42.9953L97.9573-40.5873L99.0215-42.4034C101.018-41.8401 105.867-40.5326 111.399-37.4241C123.917-30.1382 128.527-19.4205 140.122-12.6268C143.178-10.756 147.164-9.075 150.278-8.82494C152.222-8.69907 153.853-9.07837 154.737-10.6541L175.351-46.2793C176.044-47.5991 175.725-48.7311 174.345-49.5465C172.288-50.6688 167.617-51.6047 162.198-54.7191C149.619-62.0049 145.008-72.7226 133.476-79.5163C130.358-81.3867 126.372-83.1296 123.258-83.3178C121.252-83.4441 119.744-83.0643 118.861-81.4882ZM100.351-44.6821L121.327-81.0335C125.743-81.1556 130.902-78.234 132.272-77.4249C143.737-70.8198 148.16-60.103 160.994-52.6891C163.736-51.0696 167.35-49.384 173.185-47.4606L152.209-11.1715C147.854-10.9875 142.634-13.9087 141.326-14.7182C129.799-21.3229 125.437-32.102 112.603-39.5159C109.862-41.0735 106.123-42.7591 100.351-44.6821ZM91.5639-29.4941L90.17-31.964L65.4738 10.8953C65.1568 11.4658 65.3475 12.1646 65.9175 12.5435C66.4883 12.8609 67.1863 12.6706 67.5033 12.0998Z"/>
</svg>