<svg xmlns="http://www.w3.org/2000/svg" viewBox="8.72266 -79.8287 103.84 89.51">
  <path d="M60.6422-79.8287C31.9711-79.8287 8.72266-56.5806 8.72266-27.9091C8.72266-13.5134 14.5797-0.487475 24.053 8.92432C24.6844 9.61767 25.5706 9.68039 26.0181 9.17186C26.4631 8.665 26.3986 7.9022 25.7032 7.20506C16.6783-1.76008 11.078-14.213 11.078-27.9091C11.078-55.3093 33.2429-77.4131 60.6422-77.4131C88.042-77.4131 110.207-55.3093 110.207-27.9091C110.207-14.213 104.606-1.76008 95.5817 7.20506C94.8863 7.9022 94.8218 8.665 95.2668 9.17186C95.7143 9.68039 96.6005 9.61767 97.2319 8.92432C106.643-0.425591 112.562-13.5134 112.562-27.9091C112.562-56.5806 89.3138-79.8287 60.6422-79.8287ZM61.2005 1.44355C75.0957 1.44355 84.4409-8.08907 84.4409-22.6035C84.4409-46.7748 64.0067-57.1136 48.5669-57.1136C47.0017-57.1136 46.2478-56.6118 46.2478-55.609C46.2478-55.2331 46.3736-54.9186 46.8725-54.357C50.3582-50.1245 53.7828-44.8973 53.7833-40.0341C53.7833-38.17 53.2263-36.4314 51.9832-34.9984L52.9211-35.2476C51.5516-38.9871 47.4471-41.2958 45.3847-41.2958C44.8817-41.2958 44.6287-41.0424 44.6287-40.538C44.6287-39.7912 44.8775-38.0475 44.8775-36.8018C44.8775-28.9051 40.0198-26.1578 40.0198-16.5633C40.0198-5.72233 48.2444 1.44355 61.2005 1.44355ZM61.4526-6.58913C56.7781-6.58913 53.7226-9.33264 53.7226-13.5715C53.7226-17.9353 56.7781-19.5557 57.2142-22.3602C57.2761-22.6098 57.4011-22.6722 57.588-22.5471C58.7723-21.5498 59.6433-20.1791 60.3909-18.7457C61.7002-20.553 62.3851-24.1085 61.6395-28.469C61.6391-28.7191 61.7641-28.8433 61.9515-28.7191C67.3758-26.0396 70.3041-20.7399 70.3041-15.8776C70.3041-10.8911 67.4368-6.58913 61.4526-6.58913Z" />
</svg>