<svg xmlns="http://www.w3.org/2000/svg" viewBox="8.72266 -84.9377 99.48 99.48">
  <path d="M53.5399 14.5402L63.3841 14.5402C66.1958 14.5402 67.95 13.0385 68.6366 10.1047L70.9402 0.142726L74.7846-1.28313L83.4386 4.19506C85.9367 5.8175 88.2529 5.56702 90.2521 3.56738L97.1675-3.3476C99.2286-5.34682 99.4795-7.66346 97.8567-10.2226L92.3781-18.8152L93.8039-22.7201L103.766-25.0237C106.7-25.7104 108.202-27.465 108.202-30.2763L108.202-40.1187C108.202-42.93 106.7-44.6842 103.766-45.3713L93.8047-47.6757L92.3785-51.5811L97.8571-60.1737C99.4799-62.7332 99.2295-65.0494 97.1679-67.0491L90.2525-73.9641C88.2537-75.9633 85.9375-76.2142 83.4394-74.5917L74.785-69.114L70.9402-70.5402L68.6366-80.5023C67.95-83.4361 66.1958-84.9377 63.3841-84.9377L53.5399-84.9377C50.7282-84.9377 48.9744-83.4361 48.2878-80.5023L45.9842-70.5402L42.0771-69.114L33.4227-74.5917C30.925-76.2142 28.5469-75.9633 26.6096-73.9641L19.6946-67.0491C17.6331-65.0494 17.3826-62.7332 19.0055-60.1737L24.4836-51.5811L23.0574-47.6757L13.1581-45.3713C10.2243-44.6842 8.72266-42.93 8.72266-40.1187L8.72266-30.2763C8.72266-27.465 10.2247-25.7104 13.1581-25.0237L23.0582-22.7201L24.4841-18.8152L19.0059-10.2226C17.383-7.66346 17.6339-5.34682 19.695-3.3476L26.61 3.56738C28.5473 5.56702 30.9259 5.8175 33.4235 4.19506L42.078-1.28313L45.9842 0.142726L48.2878 10.1047C48.9744 13.0385 50.7282 14.5402 53.5399 14.5402ZM53.9171 12.1301C52.0564 12.1301 51.0023 11.2001 50.6305 9.52548L48.0727-1.94363C46.0709-2.56794 43.8856-3.38042 42.0763-4.13313L32.2258 2.10028C30.7377 3.03023 29.311 2.90646 27.947 1.60395L21.597-4.7465C20.2945-6.11047 20.1707-7.41297 21.163-8.96344L27.3955-18.8754C26.7068-20.6224 25.8312-22.8077 25.2069-24.8094L13.7373-27.3669C12.0627-27.7386 11.1327-28.7927 11.1327-30.6535L11.1327-39.7424C11.1327-41.6035 12.0623-42.6568 13.7373-43.0294L25.2064-45.5864C25.8308-47.5898 26.7081-49.776 27.3947-51.5213L21.1625-61.4328C20.1699-62.9837 20.2936-64.2862 21.5961-65.6506L27.9466-72.0002C29.311-73.3023 30.7364-73.4265 32.2258-72.4965L42.0754-66.2644C43.8848-67.0158 46.0718-67.8292 48.0731-68.4539L50.6305-79.923C51.0023-81.5977 52.0564-82.5276 53.9171-82.5276L63.0073-82.5276C64.9299-82.5276 65.9221-81.7214 66.2939-79.923L68.8513-68.4531C70.9772-67.8287 73.0383-67.0154 74.7862-66.264L84.6367-72.4965C86.1257-73.4265 87.5511-73.3023 88.9159-72.0002L95.2664-65.6506C96.5685-64.2862 96.6927-62.9837 95.7-61.4328L89.4674-51.5213C90.2782-49.776 91.0932-47.6517 91.7176-45.5864L103.125-43.0294C104.862-42.6568 105.791-41.6035 105.791-39.7424L105.791-30.6535C105.791-28.7927 104.862-27.7386 103.125-27.3669L91.7171-24.8094C91.0932-22.7458 90.2795-20.6224 89.4666-18.8754L95.6996-8.96344C96.6918-7.41297 96.5681-6.11047 95.2656-4.7465L88.9155 1.60395C87.5511 2.90646 86.1244 3.03023 84.6367 2.10028L74.7858-4.13313C73.0388-3.38042 70.9768-2.56794 68.8513-1.94363L66.2939 9.52548C65.9221 11.3239 64.9299 12.1301 63.0073 12.1301ZM58.462-16.5701C68.8042-16.5701 77.1526-24.9185 77.1526-35.2606C77.1526-45.6028 68.8042-53.9512 58.462-53.9512C48.1198-53.9512 39.7714-45.6028 39.7714-35.2606C39.7714-24.9185 48.1198-16.5701 58.462-16.5701ZM58.462-18.9797C49.4518-18.9797 42.1815-26.2505 42.1815-35.2606C42.1815-44.2708 49.4518-51.5415 58.462-51.5415C67.4722-51.5415 74.7429-44.2708 74.7429-35.2606C74.7429-26.2505 67.4722-18.9797 58.462-18.9797Z"/>
</svg>