<svg xmlns="http://www.w3.org/2000/svg" viewBox="8.7235 -82.4417 94.56 94.43">
  <path d="M22.3278-68.437C25.9975-65.5058 30.7284-63.198 36.5185-61.5764C39.4406-71.2845 43.977-78.5064 48.9509-82.0014C38.5645-80.5027 29.359-75.5882 22.3278-68.437ZM38.9114-60.9457C43.6394-59.8887 48.9269-59.3283 54.8353-59.2652L54.8353-82.4417C48.3657-81.4983 42.5187-72.9689 38.9114-60.9457ZM57.2294-59.2652C63.1378-59.3283 68.3634-59.8887 73.0914-60.9457C69.484-72.9689 63.6371-81.4983 57.2294-82.4417ZM75.4842-61.5764C81.2744-63.198 86.0053-65.5058 89.675-68.437C82.6438-75.5882 73.4383-80.5027 63.0519-82.0014C68.0258-78.5064 72.5622-71.2845 75.4842-61.5764ZM8.7235-36.4575L32.8468-36.4575C32.9095-44.925 34.0895-52.6453 35.8913-59.3073C29.3459-61.1184 24.1734-63.741 20.8148-66.8626C13.5247-58.7626 9.03797-48.1085 8.7235-36.4575ZM35.4269-36.4575L54.8353-36.4575L54.8353-56.8092C48.801-56.8724 43.263-57.5569 38.346-58.739C36.5455-52.0177 35.4897-44.4253 35.4269-36.4575ZM57.2294-36.4575L76.5758-36.4575C76.5131-44.4253 75.4573-52.0177 73.6568-58.739C68.7397-57.5569 63.2018-56.8724 57.2294-56.8092ZM79.1564-36.4575L103.279-36.4575C102.965-48.1085 98.4776-58.7626 91.1875-66.8626C87.8294-63.741 82.6568-61.1184 76.1115-59.3073C77.9133-52.6453 79.0933-44.925 79.1564-36.4575ZM20.9394-3.53451C24.298-6.53187 29.4701-9.15414 35.8913-10.9029C34.0895-17.6276 32.9095-25.4102 32.8464-34.0638L8.7235-34.0638C9.03797-22.2886 13.5871-11.6345 20.9394-3.53451ZM38.5321-11.5335C43.3868-12.7152 48.8629-13.3378 54.8353-13.4628L54.8353-34.0638L35.4265-34.0638C35.4892-26.0955 36.6074-18.3786 38.5321-11.5335ZM57.2294-13.4628C63.1399-13.3378 68.616-12.7152 73.4707-11.5335C75.3954-18.3786 76.5135-26.0955 76.5762-34.0638L57.2294-34.0638ZM76.1115-10.9029C82.5326-9.15414 87.7048-6.53187 91.0629-3.53451C98.4153-11.6345 102.965-22.2886 103.279-34.0638L79.1564-34.0638C79.0933-25.4102 77.9133-17.6276 76.1115-10.9029ZM48.8877 11.542C43.9762 8.04658 39.4401 0.887858 36.5185-8.63382C30.7907-7.0741 26.1221-4.76672 22.4524-1.89818C29.4213 5.12878 38.626 10.0429 48.8877 11.542ZM54.8353 11.984L54.8353-11.0069C48.9887-10.8823 43.7631-10.3219 39.097-9.32632C42.7044 2.38696 48.4276 11.0406 54.8353 11.984ZM57.2294 11.984C63.5752 11.0406 69.2984 2.38696 72.9057-9.32632C68.2396-10.3219 63.014-10.8823 57.2294-11.0069ZM63.115 11.542C73.3764 10.0429 82.5815 5.12878 89.5508-1.89818C85.8807-4.76672 81.212-7.0741 75.4842-8.63382C72.5626 0.887858 68.0881 8.04658 63.115 11.542Z"/>
</svg>