<svg xmlns="http://www.w3.org/2000/svg" viewBox="8.72266 -82.5701 94.62 94.62">
  <path d="M56.0321 12.0488C82.1491 12.0488 103.342-9.14362 103.342-35.2606C103.342-61.3777 82.1491-82.5701 56.0321-82.5701C29.9155-82.5701 8.72266-61.3777 8.72266-35.2606C8.72266-9.14362 29.9155 12.0488 56.0321 12.0488ZM56.0321 9.63326C31.1881 9.63326 11.0767-10.4166 11.0767-35.2606C11.0767-60.1046 31.1881-80.1545 56.0321-80.1545C80.8761-80.1545 100.926-60.1046 100.926-35.2606C100.926-10.4166 80.8761 9.63326 56.0321 9.63326ZM44.435-18.3508C44.8135-18.3508 45.0042-18.4759 45.381-18.6645L72.3761-33.6807C72.9487-34.06 73.2648-34.5644 73.2648-35.1988C73.2648-35.8319 72.9478-36.3375 72.3761-36.7168L45.381-51.7377C45.0038-51.8644 44.8135-51.9894 44.4342-51.9894C43.6739-51.9894 43.1658-51.5432 43.1658-50.7223C43.1658-50.1515 43.4201-49.7094 44.1159-49.392L69.9635-35.3251L69.9635-35.0754L44.1159-21.0101C43.4196-20.6312 43.1658-20.2515 43.1658-19.6184C43.1658-18.8589 43.6743-18.3508 44.435-18.3508Z" />
</svg>