<svg xmlns="http://www.w3.org/2000/svg" viewBox="7.72368 -77.3053 83.18 89.37">
  <path d="M65.8384 6.88257C81.878 1.07814 90.9059-13.2183 83.3649-33.9716L80.4307-42.0249C76.6297-52.4929 70.6379-56.5453 63.0292-53.8636C61.0952-56.6071 57.8528-57.7278 54.2375-56.4185C52.8045-55.9201 51.435-55.0491 50.1279-53.9912C48.2537-56.7368 44.9469-57.8587 41.3299-56.549C40.0236-56.0515 38.6558-55.2436 37.4119-54.2492L31.2487-71.1822C29.6246-75.7406 25.5037-77.3053 21.8753-75.9919C18.0608-74.5543 16.0018-70.8038 17.6251-66.2454L33.4972-22.7374C33.5595-22.4882 33.5591-22.2394 33.3099-22.1766C33.1229-22.1143 32.8746-22.1766 32.6881-22.4254L21.7035-34.8359C19.0846-37.7027 16.091-38.3898 13.4688-37.5154C9.84835-36.2045 7.72368-32.5853 9.22151-28.6513C9.59618-27.7125 10.2226-26.5864 10.9109-25.7099L28.7183-4.10535C38.6449 8.0672 51.6784 12.0598 65.8384 6.88257ZM65.0798 4.85263C52.0598 9.58737 39.5407 5.4281 30.4885-5.62129L12.8049-27.2869C12.1827-28.0333 11.7474-28.7174 11.3744-29.7126C10.5661-31.9505 11.7457-34.4368 14.2332-35.3074C16.0376-35.9919 18.0254-35.2455 19.8272-33.2572L30.7958-20.9268C31.7998-19.7981 32.9259-19.5493 34.175-19.9867C35.5503-20.4869 36.4221-21.8007 35.7978-23.4249L19.8983-67.0701C18.7802-70.1757 19.7758-72.9099 22.6343-73.9043C25.4304-74.9605 27.8552-73.4703 28.9729-70.3643L40.0737-39.9306C40.3873-39.1143 40.9582-38.4904 41.7744-38.8044C42.6526-39.1181 42.6598-39.9352 42.3457-40.7515L38.1688-52.2214C39.2869-53.1539 40.6538-54.0245 41.8359-54.3974C45.0678-55.5783 47.7405-54.2109 49.0456-50.5451L52.0434-42.363C52.4812-41.1135 53.1135-40.9228 53.7441-41.1745C54.3128-41.3644 54.7532-41.9954 54.3154-43.1834L51.0764-52.0913C52.1941-53.0234 53.5614-53.8935 54.7427-54.2674C57.9749-55.4482 60.5862-54.0809 61.9527-50.415L64.0134-44.7331C64.4508-43.5451 65.0835-43.2929 65.7146-43.5446C66.2829-43.7345 66.7228-44.366 66.2854-45.5535L63.9835-51.8379C69.9492-54.0131 74.8006-50.4015 78.1595-41.2579L81.0883-33.1562C88.0647-13.9722 80.0434-0.571663 65.0798 4.85263Z"/>
</svg>