<svg xmlns="http://www.w3.org/2000/svg" viewBox="12.4609 -78.455 110.54 86.39">
  <path d="M13.667-23.4543L58.39-23.4543C63.5634-23.4543 68.1247-23.0144 72.1299-22.1342C87.8694-18.8291 97.2382-9.31117 113.957 5.06143C117.227 7.90302 123.001 7.93376 123.001 1.73193L123.001-72.2532C123.001-78.455 117.227-78.4243 113.957-75.5827C92.93-57.5165 83.6217-47.067 58.39-47.067L13.667-47.067L13.667-44.7166L58.39-44.7166C84.0086-44.7166 93.8271-55.1725 115.174-73.4964C117.791-75.7427 120.65-75.8623 120.65-72.2532L120.65 1.73193C120.65 5.34097 117.791 5.22141 115.174 2.97508C93.8271-15.3488 84.0086-25.8046 58.39-25.8046L13.667-25.8046ZM13.667-19.1435C14.3027-19.1435 14.8731-19.714 14.8731-20.3496L14.8731-50.234C14.8731-50.8696 14.3027-51.4401 13.667-51.4401C12.9699-51.4401 12.4609-50.8696 12.4609-50.234L12.4609-20.3496C12.4609-19.714 12.9699-19.1435 13.667-19.1435ZM18.6897-13.9373C18.6897-7.38394 23.9953-2.07878 30.5482-2.07878L58.2115-2.07878C64.703-2.07878 70.1323-7.38394 70.1323-13.9373C70.1323-20.4283 64.703-25.8577 58.2115-25.8577L30.5482-25.8577C23.9953-25.8577 18.6897-20.4283 18.6897-13.9373ZM21.1019-13.9373C21.1019-19.0955 25.3285-23.4455 30.5482-23.4455L58.2115-23.4455C63.3697-23.4455 67.7201-19.0955 67.7201-13.9373C67.7201-8.71716 63.3697-4.49139 58.2115-4.49139L30.5482-4.49139C25.3285-4.49139 21.1019-8.71716 21.1019-13.9373Z"/>
</svg>