<svg xmlns="http://www.w3.org/2000/svg" viewBox="12.4609 -84.134 98.77 97.75">
  <path d="M16.3453 12.4542L107.351 12.4542L107.351 8.32865C107.351 7.88031 106.971 7.50017 106.461 7.50017L103.345 7.50017L103.345-56.1142L108.139-56.1142C109.026-56.1142 109.409-56.6244 109.409-57.3203C109.409-57.6411 109.217-58.1458 108.646-58.4637L66.4698-82.8223C64.9711-83.6966 63.4093-84.134 61.8483-84.134C60.2869-84.134 58.6632-83.6966 57.1645-82.8223L14.9881-58.4637C14.4791-58.1458 14.2871-57.6411 14.2871-57.3203C14.2871-56.6244 14.6088-56.1142 15.5576-56.1142L20.3513-56.1142L20.3513 7.50017L17.2361 7.50017C16.7254 7.50017 16.3453 7.88031 16.3453 8.32865ZM13.667 13.6127L110.029 13.6127C110.664 13.6127 111.235 13.0419 111.235 12.4062C111.235 11.7091 110.664 11.2001 110.029 11.2001L13.667 11.2001C12.9699 11.2001 12.4609 11.7091 12.4609 12.4062C12.4609 13.0419 12.9699 13.6127 13.667 13.6127ZM61.5991-50.1266C68.3941-50.1266 74.5101-46.6376 74.5101-40.3966C74.5101-38.6495 73.6378-36.3476 71.7725-34.8531L76.7518-34.8531C77.254-34.8531 77.6927-34.4153 77.6927-33.9122C77.6927-33.41 77.254-32.9718 76.7518-32.9718L46.7584-32.9718C46.3185-32.9718 45.8798-33.41 45.8798-33.9122C45.8798-34.4153 46.3185-34.8531 46.7584-34.8531L68.8799-34.8531C70.9966-36.0984 71.9295-38.4024 71.9295-40.208C71.9295-45.3111 67.2592-47.8613 61.6618-47.8613C57.1831-47.8613 52.9543-45.7485 51.5188-41.209C51.3281-40.7056 50.9522-40.3919 50.3851-40.3919C49.6307-40.3919 49.1904-40.8946 49.1904-41.5244C49.1904-42.0287 49.44-42.9633 49.8787-43.8372C52.1292-48.14 56.9301-50.1266 61.5991-50.1266ZM61.8483-9.03205C54.8054-9.03205 48.3758-12.5224 48.3758-18.8871C48.3758-21.5646 49.8686-24.1788 52.2319-25.5516L46.7584-25.5516C46.3185-25.5516 45.8798-25.9895 45.8798-26.4921C45.8798-26.9947 46.3185-27.433 46.7584-27.433L76.7518-27.433C77.254-27.433 77.6927-26.9947 77.6927-26.4921C77.6927-25.9895 77.254-25.5516 76.7518-25.5516L55.4364-25.5516C52.6984-24.2437 50.8949-21.9401 50.8949-19.013C50.8949-14.2833 55.9378-11.2973 61.7241-11.2973C67.0125-11.2973 71.6765-13.5971 72.9264-18.5108C73.1166-19.2003 73.5553-19.6382 74.1842-19.6382C74.8767-19.6382 75.4413-19.1355 75.4413-18.4438C75.4413-17.9412 75.0666-16.8803 74.6915-16.0691C72.6923-11.2738 67.5812-9.03205 61.8483-9.03205Z"/>
</svg>