<svg xmlns="http://www.w3.org/2000/svg" viewBox="12.4609 -71.3351 92.03 72.33">
  <path d="M13.7323 0.998579C14.4315 0.998579 14.9413 0.488779 14.9413-0.272344L14.9413-34.9277L61.6046-34.9277L61.6046-0.272344C61.6046 0.488779 62.1144 0.998579 62.8141 0.998579C63.5752 0.998579 64.085 0.488779 64.085-0.272344L64.085-70.0637C64.085-70.8248 63.5752-71.3351 62.8141-71.3351C62.1144-71.3351 61.6046-70.8248 61.6046-70.0637L61.6046-37.3373L14.9413-37.3373L14.9413-70.0637C14.9413-70.8248 14.4315-71.3351 13.7323-71.3351C12.9712-71.3351 12.4609-70.8248 12.4609-70.0637L12.4609-0.272344C12.4609 0.488779 12.9712 0.998579 13.7323 0.998579ZM81.782 0.310703L103.293 0.310703C104.049 0.310703 104.492-0.194468 104.492-0.888236C104.492-1.52096 103.987-2.08718 103.293-2.08718L83.4335-2.02529L83.6179-1.64305L97.6205-17.3838C101.173-21.3094 102.742-24.3666 102.742-27.9297C102.742-34.0423 98.4334-38.037 91.694-38.037C85.2063-38.037 79.8994-33.6664 79.8994-28.1209C79.8994-27.3025 80.3415-26.7986 81.0984-26.7986C81.977-26.7986 82.3546-27.2393 82.4232-27.9916C82.7414-32.5247 86.5298-35.6378 91.6927-35.6378C96.856-35.6378 100.339-32.6514 100.339-27.9874C100.339-25.057 99.0194-22.3779 95.785-18.7709L81.0853-2.33219C80.5844-1.8308 80.3954-1.51507 80.3954-1.012C80.3954-0.193626 80.9616 0.310703 81.782 0.310703Z"/>
</svg>