<svg xmlns="http://www.w3.org/2000/svg" viewBox="-1.00235 -82.5701 104.34 94.62">
  <path d="M1.13453-43.3093C-0.377195-43.3093-1.00235-42.2392 0.063988-40.7957L10.1641-26.3321C10.9804-25.078 12.1119-25.078 12.9278-26.3321L23.0279-40.7342C24.0938-42.2392 23.4686-43.3093 21.9573-43.3093ZM103.342-35.2606C103.342-61.3777 82.1491-82.5701 56.0321-82.5701C29.9155-82.5701 8.72308-61.3781 8.72266-35.1983C8.72308-34.4385 9.29434-33.991 9.93043-33.991C10.5051-33.991 11.0767-34.4389 11.0767-35.1988C11.0767-60.1046 31.1881-80.1545 56.0321-80.1545C80.8761-80.1545 100.926-60.1046 100.926-35.2606C100.926-10.4166 80.8761 9.63326 56.0321 9.63326C39.3572 9.63326 24.7354 0.616755 17.0121-13.0629C16.629-13.6354 15.9302-13.8257 15.2958-13.5685C14.7856-13.2498 14.5953-12.4853 14.9796-11.7882C23.0872 2.46567 38.5312 12.0488 56.0321 12.0488C82.1491 12.0488 103.342-9.14362 103.342-35.2606ZM50.3051-32.755C57.5977-32.755 64.0728-35.4446 64.6988-43.1068L68.994-43.1068C69.4962-43.1068 69.9345-43.5451 69.9345-44.0469C69.9345-44.5483 69.4962-44.9869 68.994-44.9869L64.7615-44.9869C64.5742-48.2882 63.1416-51.7116 59.7843-53.6439L68.994-53.6439C69.4962-53.6439 69.9345-54.0821 69.9345-54.5839C69.9345-55.0857 69.4962-55.4621 68.994-55.4621L43.0045-55.4621C42.4383-55.4621 42.0611-55.023 42.0611-54.4555L42.0611-54.2674C42.0611-53.6384 42.4383-53.1993 43.0045-53.1993L51.7213-53.1993C57.3224-53.1993 61.6177-50.6495 62.0563-44.9869L42.8787-44.9869C42.4388-44.9869 42.0001-44.5483 42.0001-44.0469C42.0001-43.5451 42.4388-43.1068 42.8787-43.1068L61.9944-43.1068C61.4943-37.1959 56.7048-35.08 50.732-35.08L43.5699-35.08C42.6278-35.08 42.0624-34.5147 42.0624-33.6365L42.0624-33.5734C42.0624-33.0059 42.4383-32.443 42.9414-31.9404L61.4312-14.8807C61.9325-14.4416 62.2466-14.2518 62.8132-14.2518C63.5664-14.2518 64.0075-14.8171 64.0075-15.3842C64.0075-15.8864 63.6947-16.2005 63.3803-16.5149L45.7733-32.755Z" />
</svg>