<svg xmlns="http://www.w3.org/2000/svg" viewBox="12.4609 -77.9575 85.39 85.39">
  <path d="M25.0069 7.437L85.309 7.437C93.4878 7.437 97.855 2.94602 97.855-5.1077L97.855-65.4127C97.855-73.4665 93.4878-77.9575 85.309-77.9575L25.0069-77.9575C16.8286-77.9575 12.4609-73.5902 12.4609-65.4127L12.4609-5.1077C12.4609 3.06978 16.8286 7.437 25.0069 7.437ZM25.1315 5.0244C18.3559 5.0244 14.8731 1.54249 14.8731-5.23441L14.8731-65.286C14.8731-72.0634 18.3559-75.5448 25.1315-75.5448L85.1844-75.5448C91.7125-75.5448 95.4428-72.0634 95.4428-65.286L95.4428-5.23441C95.4428 1.54249 91.7125 5.0244 85.1844 5.0244ZM49.4308-32.755C56.7238-32.755 63.1984-35.4446 63.8248-43.1068L68.1196-43.1068C68.6219-43.1068 69.0601-43.5451 69.0601-44.0469C69.0601-44.5483 68.6219-44.9869 68.1196-44.9869L63.8876-44.9869C63.6998-48.2882 62.2676-51.7116 58.9099-53.6439L68.1196-53.6439C68.6219-53.6439 69.0601-54.0821 69.0601-54.5839C69.0601-55.0857 68.6219-55.4621 68.1196-55.4621L42.1302-55.4621C41.564-55.4621 41.1868-55.023 41.1868-54.4555L41.1868-54.2674C41.1868-53.6384 41.564-53.1993 42.1302-53.1993L50.8469-53.1993C56.448-53.1993 60.7433-50.6495 61.1819-44.9869L42.0047-44.9869C41.5644-44.9869 41.1257-44.5483 41.1257-44.0469C41.1257-43.5451 41.5644-43.1068 42.0047-43.1068L61.1201-43.1068C60.6199-37.1959 55.8305-35.08 49.8576-35.08L42.696-35.08C41.8157-35.08 41.188-34.5147 41.188-33.6365L41.188-33.5734C41.188-33.0059 41.564-32.443 42.067-31.9404L60.5568-14.8807C61.0582-14.4416 61.3726-14.2518 61.9389-14.2518C62.692-14.2518 63.1336-14.8171 63.1336-15.3842C63.1336-15.8864 62.8208-16.2005 62.5059-16.5149L44.8989-32.755Z" />
</svg>