<svg xmlns="http://www.w3.org/2000/svg" viewBox="8.72266 -77.7133 98.54 86.4">
  <path d="M8.72266-59.4972C8.72266-24.4087 29.5408-1.65822 61.6395-1.65822C83.7068-1.65822 99.1676-15.7475 99.1676-35.6968C99.1676-54.8361 83.5821-68.6139 61.8265-68.6139C54.1609-68.6139 46.1236-66.3709 36.9046-66.3709C28.0064-66.3709 21.0939-69.3556 15.6119-75.5852C13.7967-77.7133 10.8469-77.5925 10.1561-74.6418C9.03418-70.1542 8.72266-62.1144 8.72266-59.4972ZM11.1311-59.4972C11.1311-65.2709 11.5638-69.3788 12.1852-73.0463C12.4336-74.4726 13.116-74.4116 14.1082-73.4193C20.7037-66.3339 29.6722-63.9629 36.9046-63.9629C41.9529-63.9629 46.6271-64.6483 50.9261-65.209C54.789-65.7697 58.401-66.2059 61.8265-66.2059C82.1277-66.2059 96.7592-53.566 96.7592-35.6968C96.7592-17.0172 82.2523-4.0662 61.6395-4.0662C30.8105-4.0662 11.1311-25.7398 11.1311-59.4972ZM36.146-48.3429C38.5809-41.5913 44.7124-37.2965 62.1094-32.824C74.604-29.7021 82.0195-25.35 89.7979-14.1587C93.2411-9.22191 94.8585-4.27459 97.9728 5.75351C98.6586 7.93544 100.155 8.68352 101.714 8.68352C105.018 8.68352 107.267 5.81372 107.267 1.82537C107.267-5.45965 99.1086-16.925 94.432-21.3701C86.3446-29.042 76.1182-33.5321 62.8713-36.5219C49.2005-39.6249 42.4594-42.3634 37.3466-48.8502C36.716-49.6088 35.8311-49.288 36.146-48.3429Z"/>
</svg>