<svg xmlns="http://www.w3.org/2000/svg" viewBox="12.4609 -73.2846 121.45 76.05">
  <path d="M25.0069 2.76415L121.366 2.76415C129.545 2.76415 133.912-1.72684 133.912-9.78055L133.912-60.7399C133.912-68.7936 129.545-73.2846 121.366-73.2846L25.0069-73.2846C16.8286-73.2846 12.4609-68.9174 12.4609-60.7399L12.4609-9.78055C12.4609-1.60307 16.8286 2.76415 25.0069 2.76415ZM24.1397-15.473C23.4442-15.473 22.8801-15.9154 22.8801-16.6088C22.8801-16.8605 22.9429-17.1131 23.0056-17.364L31.5813-53.5353C31.7712-54.4198 32.3395-54.9856 33.16-54.9856C34.1695-54.9856 34.6136-54.4185 34.8026-53.5357L43.4403-17.2403C43.503-16.9279 43.5034-16.7982 43.5034-16.6088C43.5034-16.0392 43.1237-15.473 42.3066-15.473C41.5509-15.473 41.2339-15.9748 41.1076-16.4829L38.503-27.6502L27.9428-27.6502L25.3382-16.4833C25.1509-15.7908 24.833-15.473 24.1397-15.473ZM28.4429-29.9753L37.941-29.9753L33.2227-50.0399ZM49.8555-15.473C49.1609-15.473 48.6574-15.9761 48.6574-16.7949L48.6574-53.2267C48.6574-54.1057 49.1601-54.549 49.7932-54.549L56.584-54.549C62.873-54.549 66.1099-49.0666 66.1099-42.7802C66.1099-36.4882 62.8069-31.1351 56.5807-31.1351L51.1151-31.1351L51.1151-16.7949C51.1151-15.9761 50.6116-15.473 49.8555-15.473ZM51.1151-33.4593L56.2009-33.4593C61.2325-33.4593 63.5285-37.6855 63.5285-42.7802C63.5285-47.9982 61.2952-52.1629 56.2009-52.1629L51.1151-52.1629ZM78.3191-15.5353C77.6249-15.5353 77.1206-16.0409 77.1206-16.7359L77.1206-51.2195L72.1577-46.8156C71.8457-46.566 71.5931-46.3787 71.218-46.3787C70.651-46.3787 70.1483-46.7576 70.1483-47.3865C70.1483-47.7645 70.2759-48.0798 70.6539-48.457L76.9871-54.4151C77.3698-54.6719 77.6257-54.8618 78.1928-54.8618C78.9506-54.8618 79.518-54.4177 79.518-53.537L79.518-16.7359C79.518-16.0409 78.9518-15.5353 78.3191-15.5353ZM85.0716-15.9091C84.3172-15.9091 83.751-16.2261 83.751-17.1047C83.751-17.4819 83.8141-17.7968 84.1311-18.2405L93.0786-33.1444C95.4462-37.0031 97.0652-41.6006 97.0652-44.9608C97.0652-49.8012 94.9574-52.6592 91.6662-52.6592C87.2649-52.6592 86.5791-48.0116 86.143-44.4716C86.0777-43.7156 85.6382-43.2761 84.9461-43.2761C84.1917-43.2761 83.7505-43.7804 83.7505-44.5962C83.7505-47.7772 85.2602-55.1114 91.6666-55.1114C96.4687-55.1114 99.5225-51.2485 99.5225-45.0235C99.5225-41.2815 97.65-36.0592 95.034-31.7051L86.8994-18.238L99.2585-18.238C99.887-18.238 100.329-17.796 100.329-17.1043C100.329-16.3512 99.887-15.9091 99.2585-15.9091ZM113.401-15.4099C106.922-15.4099 104.304-21.693 104.304-25.3033C104.304-26.1785 104.806-26.623 105.501-26.623C106.256-26.623 106.447-25.9958 106.573-25.246C107.382-20.3433 109.864-17.7387 113.401-17.7387C117.993-17.7387 119.484-22.3269 119.484-26.6761C119.484-31.5842 117.312-34.8729 112.59-34.8729L110.235-34.8729C109.543-34.8729 109.103-35.3141 109.103-36.0668C109.103-36.7581 109.543-37.2607 110.235-37.2607L112.59-37.2607C116.813-37.2607 118.429-41.2962 118.429-45.2088C118.429-49.4316 116.69-52.8441 112.967-52.8441C109.308-52.8441 107.508-49.0637 107.194-45.5228C107.191-44.6455 106.689-44.0835 105.998-44.0835C105.305-44.0835 104.926-44.587 104.926-45.4028C104.926-49.4573 107.489-55.1106 112.967-55.1106C117.958-55.1106 120.823-51.0583 120.823-45.2126C120.823-41.8519 119.947-38.3675 116.716-36.2546C120.447-34.9483 121.942-30.7823 121.942-26.6748C121.942-21.0059 119.379-15.4099 113.401-15.4099Z"/>
</svg>