<svg xmlns="http://www.w3.org/2000/svg" viewBox="12.4609 -71.7291 80.34 75.8">
  <path d="M13.3467-69.3211L91.8485-69.3211C92.4791-69.3211 92.7961-69.6381 92.7961-70.0831L92.7961-70.9671C92.7961-71.4121 92.4791-71.7291 91.8485-71.7291L13.3467-71.7291C12.7779-71.7291 12.4609-71.4121 12.4609-70.9671L12.4609-70.0831C12.4609-69.6381 12.7779-69.3211 13.3467-69.3211ZM15.3964-37.5525L89.8606-37.5525C91.6102-37.5525 92.7961-38.6142 92.7961-40.4875L92.7961-46.3012C92.7961-48.2364 91.6102-49.2986 89.8606-49.2986L15.3964-49.2986C13.6468-49.2986 12.4609-48.2364 12.4609-46.3012L12.4609-40.4875C12.4609-38.6142 13.6468-37.5525 15.3964-37.5525ZM15.3964 4.06918L89.8606 4.06918C91.6102 4.06918 92.7961 3.00706 92.7961 1.13413L92.7961-15.8948C92.7961-17.8296 91.6102-18.8918 89.8606-18.8918L15.3964-18.8918C13.6468-18.8918 12.4609-17.8296 12.4609-15.8948L12.4609 1.13413C12.4609 3.00706 13.6468 4.06918 15.3964 4.06918Z"/>
</svg>