<svg xmlns="http://www.w3.org/2000/svg" viewBox="12.4609 -77.9575 112.73 85.39">
  <path d="M31.2416-55.188C28.8732-55.188 26.94-57.0597 26.94-59.4286C26.94-61.7978 28.8732-63.7305 31.2416-63.7305C33.5494-63.7305 35.4821-61.7982 35.4821-59.4286C35.4821-57.0593 33.5494-55.188 31.2416-55.188ZM31.2416-39.0574C28.8732-39.0574 26.94-40.9902 26.94-43.3594C26.94-45.7287 28.8732-47.6618 31.2416-47.6618C33.5494-47.6618 35.4821-45.7291 35.4821-43.3594C35.4821-40.9897 33.5494-39.0574 31.2416-39.0574ZM31.2416-22.9887C28.8727-22.9887 26.94-24.9214 26.94-27.2907C26.94-29.6595 28.8727-31.5927 31.2416-31.5927C33.5494-31.5927 35.4821-29.66 35.4821-27.2907C35.4821-24.9214 33.5494-22.9887 31.2416-22.9887ZM31.2416-6.9137C28.8732-6.9137 26.94-8.84682 26.94-11.2157C26.94-13.5845 28.8732-15.5181 31.2416-15.5181C33.5494-15.5181 35.4821-13.5849 35.4821-11.2157C35.4821-8.8464 33.5494-6.9137 31.2416-6.9137ZM49.1626-58.2292C48.407-58.2292 47.9628-58.7348 47.9628-59.4286C47.9628-60.1846 48.407-60.6288 49.1626-60.6288L110.935-60.6288C111.629-60.6288 112.135-60.1846 112.135-59.4286C112.135-58.7348 111.629-58.2292 110.935-58.2292ZM49.1626-42.1596C48.407-42.1596 47.9628-42.6038 47.9628-43.3594C47.9628-44.1151 48.407-44.5592 49.1626-44.5592L86.0066-44.5592C86.7003-44.5592 87.2064-44.1151 87.2064-43.3594C87.2064-42.6038 86.7003-42.1596 86.0066-42.1596ZM49.1626-26.0905C48.407-26.0905 47.9628-26.5342 47.9628-27.2907C47.9628-27.9845 48.407-28.4901 49.1626-28.4901L110.935-28.4901C111.629-28.4901 112.135-27.9845 112.135-27.2907C112.135-26.5342 111.629-26.0905 110.935-26.0905ZM49.1626-10.0155C48.407-10.0155 47.9628-10.4596 47.9628-11.2157C47.9628-11.9094 48.407-12.415 49.1626-12.415L86.0066-12.415C86.7008-12.415 87.2064-11.9094 87.2064-11.2157C87.2064-10.4596 86.7003-10.0155 86.0066-10.0155ZM25.0069 7.437L112.644 7.437C120.822 7.437 125.189 2.94602 125.189-5.1077L125.189-65.4127C125.189-73.4665 120.822-77.9575 112.644-77.9575L25.0069-77.9575C16.8286-77.9575 12.4609-73.5902 12.4609-65.4127L12.4609-5.1077C12.4609 3.06978 16.8286 7.437 25.0069 7.437Z" />
</svg>