<svg xmlns="http://www.w3.org/2000/svg" viewBox="12.4609 -84.768 101.56 99.01">
  <path d="M25.0069 14.2459L101.477 14.2459C109.655 14.2459 114.023 9.75532 114.023 1.70161L114.023-49.8749C114.023-57.9901 109.655-62.4192 101.477-62.4192L25.0069-62.4192C16.8282-62.4192 12.4609-58.1143 12.4609-49.8749L12.4609 1.70161C12.4609 9.87909 16.8282 14.2459 25.0069 14.2459ZM23.2359-71.8146L103.187-71.8146C103.243-73.0867 102.299-74.2192 101.023-74.2192L25.4616-74.2192C24.1237-74.2192 23.2418-73.0867 23.2359-71.8146ZM32.278-82.3685L94.2064-82.3685C94.2038-83.5762 93.3198-84.768 91.9853-84.768L34.4991-84.768C33.165-84.768 32.2806-83.5762 32.278-82.3685ZM45.3582-4.14914L45.3582-24.7051C45.3582-28.813 47.1621-30.5575 50.8322-30.4973L50.8322-37.8375C50.8322-45.6996 55.8212-50.9412 63.2422-50.9412C70.6628-50.9412 75.5899-45.6996 75.5899-37.8375L75.5899-30.4973C79.3219-30.5575 81.1258-28.813 81.1258-24.7051L81.1258-4.14914C81.1258-0.101442 79.3202 1.64309 75.6459 1.64309L50.8381 1.64309C47.1638 1.64309 45.3582-0.101442 45.3582-4.14914ZM53.2852-30.4977L73.1369-30.4977L73.1369-37.8425C73.1369-44.2553 69.1544-48.4895 63.2422-48.4895C57.2681-48.4895 53.2852-44.2553 53.2852-37.8425Z"/>
</svg>