<svg xmlns="http://www.w3.org/2000/svg" viewBox="12.4609 -75.9094 107.17 81.3">
  <path d="M44.9705 5.3881L87.0565 5.3881C112.438 5.3881 119.628-4.21439 119.628-27.2305L119.628-43.2908C119.628-66.3069 112.438-75.9094 87.0565-75.9094L44.9705-75.9094C19.6504-75.9094 12.4609-66.3069 12.4609-43.2908L12.4609-27.2305C12.4609-4.21439 19.6504 5.3881 44.9705 5.3881ZM44.9705 2.9755C21.1764 2.9755 14.8731-5.79894 14.8731-27.2305L14.8731-43.2908C14.8731-64.7223 21.1764-73.4968 44.9705-73.4968L87.0565-73.4968C110.851-73.4968 117.215-64.7223 117.215-43.2908L117.215-27.2305C117.215-5.79894 110.851 2.9755 87.0565 2.9755ZM39.393-14.9481C40.2122-14.9481 40.7165-15.5766 40.7165-16.3971L40.7165-50.2912L40.9043-50.2912L50.4752-17.2049C50.7261-16.2628 51.23-15.4486 52.4201-15.4486C53.6106-15.4486 54.0518-16.139 54.3646-17.2053L63.8741-50.2912L63.9995-50.2912L63.9995-16.3971C63.9995-15.5147 64.6272-14.9481 65.4469-14.9481C66.205-14.9481 66.7704-15.6385 66.7704-16.3971L66.7704-53.2448C66.7704-54.6921 66.0131-55.4482 64.6285-55.4482C63.4312-55.4482 62.6768-54.7574 62.3009-53.4372L52.6062-19.3557L52.2955-19.3557L42.4766-53.4372C42.1003-54.6959 41.2836-55.4482 40.2732-55.4482C38.8268-55.4482 38.0694-54.6294 38.0694-53.2448L38.0694-16.3971C38.0694-15.6385 38.6356-14.9481 39.393-14.9481ZM84.4098-14.8849C90.3995-14.8849 94.7688-19.37 94.7688-26.3511C94.7688-31.5295 92.2059-35.6324 87.1668-36.0685L87.1668-36.1935C91.5904-37.3154 93.6473-41.4259 93.6473-45.5999C93.6473-51.4637 89.96-55.6355 84.2229-55.6355C79.4852-55.6355 76.4832-52.7699 75.1744-48.4705C74.8629-47.4126 74.8006-46.5403 74.8006-46.0389C74.8006-45.2227 75.2417-44.7179 75.9991-44.7179C76.9395-44.7179 77.1328-45.2795 77.3222-46.1581C77.9465-49.8896 80.1217-53.1177 84.2229-53.1177C88.5749-53.1177 90.9358-49.6366 90.9358-45.2845C90.9358-40.8062 88.0769-37.2628 83.5977-37.2628L81.3017-37.2628C80.4231-37.2628 80.1672-36.6364 80.1672-36.0054C80.1672-35.3743 80.6088-34.8106 81.3017-34.8106L83.66-34.8106C88.8229-34.8106 91.9314-31.8874 91.9314-26.2294C91.9314-21.6285 89.5684-17.4651 84.4717-17.4651C79.8081-17.4651 77.1993-21.0686 76.7004-24.5476C76.5729-25.4872 76.2554-25.9267 75.3154-25.9267C74.6204-25.9267 74.1152-25.4228 74.1152-24.6036C74.1152-23.9789 74.3021-22.8591 74.5513-22.111C75.8602-17.8722 79.4233-14.8849 84.4098-14.8849Z"/>
</svg>