<svg xmlns="http://www.w3.org/2000/svg" viewBox="12.4609 -84.134 98.77 97.75">
  <path d="M16.3453 7.46185L107.351 7.46185L107.351 5.89035C107.351 5.38013 106.971 5.06187 106.461 5.06187L103.345 5.06187L103.345-56.1142L108.139-56.1142C109.026-56.1142 109.409-56.6244 109.409-57.3203C109.409-57.6411 109.217-58.1458 108.646-58.4637L66.4698-82.8223C64.9711-83.6966 63.4093-84.134 61.8483-84.134C60.2869-84.134 58.6632-83.6966 57.1645-82.8223L14.9881-58.4637C14.4791-58.1458 14.2871-57.6411 14.2871-57.3203C14.2871-56.6244 14.6088-56.1142 15.5576-56.1142L20.3513-56.1142L20.3513 5.06187L17.2361 5.06187C16.7254 5.06187 16.3453 5.38013 16.3453 5.89035ZM22.7597 5.06187L22.7597-60.1202L58.619-80.5995C59.6125-81.1586 60.7306-81.4693 61.8483-81.4693C62.9656-81.4693 64.0218-81.1586 65.0154-80.5995L100.937-60.1202L100.937 5.06187ZM13.667 13.6127L110.029 13.6127C110.664 13.6127 111.235 13.0419 111.235 12.4062C111.235 11.7091 110.664 11.2001 110.029 11.2001L13.667 11.2001C12.9699 11.2001 12.4609 11.7091 12.4609 12.4062C12.4609 13.0419 12.9699 13.6127 13.667 13.6127ZM48.508-13.835C49.3878-13.835 49.8913-14.2766 49.8913-15.1564L49.8913-30.9115C49.8913-40.2522 53.6856-46.6759 61.9106-46.6759C70.3222-46.6759 73.93-40.0046 73.93-30.9115L73.93-15.1564C73.93-14.2766 74.4335-13.835 75.1895-13.835C76.069-13.835 76.572-14.2766 76.572-15.1564L76.572-31.2849C76.572-41.3934 71.7072-49.0662 61.9106-49.0662C51.9899-49.0662 47.2493-41.2688 47.2493-31.2849L47.2493-15.1564C47.2493-14.2766 47.7523-13.835 48.508-13.835ZM61.8483-13.835C62.476-13.835 62.8532-14.2122 62.8532-14.9022L62.8532-55.4128C62.8532-56.0409 62.476-56.4796 61.8483-56.4796C61.1579-56.4796 60.7193-56.0409 60.7193-55.4128L60.7193-14.9022C60.7193-14.2122 61.1579-13.835 61.8483-13.835Z"/>
</svg>