<svg xmlns="http://www.w3.org/2000/svg" viewBox="12.4609 -77.9575 85.39 85.39">
  <path d="M25.0069 7.437L85.309 7.437C93.4878 7.437 97.855 2.94602 97.855-5.1077L97.855-65.4127C97.855-73.4665 93.4878-77.9575 85.309-77.9575L25.0069-77.9575C16.8286-77.9575 12.4609-73.5902 12.4609-65.4127L12.4609-5.1077C12.4609 3.06978 16.8286 7.437 25.0069 7.437ZM25.1315 5.0244C18.3559 5.0244 14.8731 1.54249 14.8731-5.23441L14.8731-65.286C14.8731-72.0634 18.3559-75.5448 25.1315-75.5448L85.1844-75.5448C91.7125-75.5448 95.4428-72.0634 95.4428-65.286L95.4428-5.23441C95.4428 1.54249 91.7125 5.0244 85.1844 5.0244ZM46.4157-55.8641C46.4157-51.4363 49.7175-47.818 54.0182-47.2505L54.0182-11.7642C54.0182-7.1949 54.6454-5.16538 55.1582-5.16538C55.6705-5.16538 56.2973-7.13217 56.2973-11.7642L56.2973-47.2505C60.5985-47.8176 63.9002-51.4359 63.9002-55.8641C63.9002-60.6725 60.028-64.6066 55.1582-64.6066C50.3498-64.6066 46.4157-60.6725 46.4157-55.8641ZM49.9149-58.174C49.853-59.8584 51.2881-61.2312 52.9097-61.2312C54.5326-61.2312 55.9054-59.8584 55.8435-58.174C55.7816-56.552 54.5326-55.1788 52.9097-55.1788C51.2881-55.1788 49.9768-56.552 49.9149-58.174Z" />
</svg>