<svg xmlns="http://www.w3.org/2000/svg" viewBox="12.4609 -74.7803 112.73 79.16">
  <path d="M35.4055-27.827L58.1888-27.827C58.8851-27.827 59.3924-28.3958 59.3924-29.0302C59.3924-29.6646 58.8851-30.2333 58.1888-30.2333L35.4055-30.2333C34.7711-30.2333 34.2019-29.6646 34.2019-29.0302C34.2019-28.3958 34.7711-27.827 35.4055-27.827ZM90.8524-16.4888C91.5487-16.4888 92.056-16.9961 92.056-17.6924L92.056-27.827L102.191-27.827C102.887-27.827 103.394-28.3958 103.394-29.0302C103.394-29.6646 102.887-30.2333 102.191-30.2333L92.056-30.2333L92.056-40.4298C92.056-41.1261 91.5487-41.6334 90.8524-41.6334C90.2185-41.6334 89.6493-41.1261 89.6493-40.4298L89.6493-30.2333L79.4528-30.2333C78.7569-30.2333 78.2496-29.6646 78.2496-29.0302C78.2496-28.3958 78.8188-27.827 79.4528-27.827L89.6493-27.827L89.6493-17.6924C89.6493-16.9342 90.2185-16.4888 90.8524-16.4888ZM25.0069 4.38365L112.644 4.38365C120.822 4.38365 125.189-0.107334 125.189-8.16105L125.189-49.7747C125.189-57.8284 120.822-62.3194 112.644-62.3194L103.206-62.3194L103.206-70.3441C103.206-73.0935 101.706-74.7803 98.5854-74.7803L87.3204-74.7803C84.262-74.7803 82.6994-73.0935 82.6994-70.3441L82.6994-62.3194L54.9511-62.3194L54.9511-70.3441C54.9511-73.0935 53.3888-74.7803 50.3304-74.7803L39.0655-74.7803C35.9452-74.7803 34.4444-73.0935 34.4444-70.3441L34.4444-62.3194L25.0069-62.3194C16.8286-62.3194 12.4609-57.9522 12.4609-49.7747L12.4609-8.16105C12.4609 0.0164336 16.8286 4.38365 25.0069 4.38365ZM14.8731-8.28776L14.8731-49.648C14.8731-56.4249 18.3559-59.9068 25.1315-59.9068L112.519-59.9068C119.047-59.9068 122.777-56.4249 122.777-49.648L122.777-8.28776C122.777-1.51086 119.047 1.97105 112.519 1.97105L25.1315 1.97105C18.3559 1.97105 14.8731-1.51086 14.8731-8.28776Z"/>
</svg>