<svg xmlns="http://www.w3.org/2000/svg" viewBox="11.2148 -81.3825 91.43 92.24">
  <path d="M11.2148-45.6554C11.2148-25.9524 27.3008-9.86687 47.0038-9.86687C55.7244-9.86687 63.6977-12.9787 69.9294-18.2073L98.1194 10.045C98.4995 10.4866 99.1912 10.8617 99.9451 10.8617C101.702 10.8617 102.648 9.54358 102.648 8.09584C102.648 7.46522 102.396 6.83586 101.894 6.27091L73.7047-21.9186C79.3075-28.2135 82.7305-36.5606 82.7305-45.6554C82.7305-65.2966 66.645-81.3825 47.0038-81.3825C27.3008-81.3825 11.2148-65.2966 11.2148-45.6554ZM13.5694-45.6554C13.5694-63.9616 28.6357-79.028 47.0038-79.028C65.3096-79.028 80.3764-63.9616 80.3764-45.6554C80.3764-27.2877 65.3096-12.221 47.0038-12.221C28.6357-12.221 13.5694-27.2877 13.5694-45.6554ZM33.6151-44.4523L60.2684-44.4523C60.9024-44.4523 61.472-44.96 61.472-45.6554C61.472-46.2894 60.9024-46.7971 60.2684-46.7971L33.6151-46.7971C32.9811-46.7971 32.4115-46.2894 32.4115-45.6554C32.4115-44.96 32.9811-44.4523 33.6151-44.4523Z"/>
</svg>