<svg xmlns="http://www.w3.org/2000/svg" viewBox="12.4609 -81.1805 86.34 91.84">
  <path d="M13.6632-56.792L39.3416-56.792C39.9752-56.792 40.5439-57.3607 40.5439-57.9943C40.5439-58.6897 39.9752-59.1966 39.3416-59.1966L13.6632-59.1966C13.0297-59.1966 12.4609-58.6897 12.4609-57.9943C12.4609-57.3607 13.0297-56.792 13.6632-56.792ZM27.7445 10.6596C28.3137 10.6596 28.6303 10.407 29.135 9.7124L56.3116-34.5092L83.8524-78.8436C84.1669-79.2835 84.2928-79.5993 84.2928-79.9782C84.2928-80.6121 83.7842-81.1805 83.0265-81.1805C82.3946-81.1805 82.1399-80.9287 81.6343-80.171L54.2164-35.9578L26.9173 8.26003C26.6028 8.69995 26.4765 9.07757 26.4765 9.51875C26.4765 10.154 27.047 10.6596 27.7445 10.6596ZM70.7811-8.67127C70.7811-8.0377 71.2879-7.46897 71.983-7.46897L83.6205-7.46897L83.6205 4.16812C83.6205 4.80169 84.1273 5.37043 84.8228 5.37043C85.4559 5.37043 86.0247 4.80169 86.0247 4.16812L86.0247-7.46897L97.5999-7.46897C98.2953-7.46897 98.8022-8.0377 98.8022-8.67127C98.8022-9.36672 98.2953-9.87358 97.5999-9.87358L86.0247-9.87358L86.0247-21.5107C86.0247-22.1442 85.4555-22.7126 84.8228-22.7126C84.1269-22.7126 83.6205-22.1438 83.6205-21.5107L83.6205-9.87358L71.983-9.87358C71.2879-9.87358 70.7811-9.36672 70.7811-8.67127Z"/>
</svg>