<svg xmlns="http://www.w3.org/2000/svg" viewBox="12.4609 -85.4496 112.73 89.9">
  <path d="M25.0069 4.44554L112.644 4.44554C120.822 4.44554 125.189-0.0454502 125.189-8.09917L125.189-48.7227C125.189-56.7764 120.821-61.2674 112.643-61.2674L107.873-61.2674L107.873-68.4185C107.873-70.9793 106.498-72.478 103.69-72.478L91.5609-72.478C88.753-72.478 87.44-70.9793 87.44-68.4185L87.44-61.2674L74.3286-61.2674L74.3265-58.8548L112.518-58.8548C119.047-58.8548 122.777-55.3733 122.777-48.596L122.777-8.22588C122.777-1.44856 119.047 2.03293 112.518 2.03293L25.1315 2.03293C18.3559 2.03293 14.8731-1.44856 14.8731-8.22588L14.8731-48.596C14.8731-55.3733 18.6034-58.8548 25.1315-58.8548L64.3157-58.8548L64.3136-61.2674L49.5916-61.2674L49.5916-68.4185C49.5916-70.9793 48.2167-72.478 45.4706-72.478L33.4029-72.478C30.5954-72.478 29.1582-70.9793 29.1582-68.4185L29.1582-61.2674L25.0069-61.2674C16.8286-61.2674 12.4609-56.7764 12.4609-48.7227L12.4609-8.09917C12.4609 0.0783175 16.8286 4.44554 25.0069 4.44554ZM28.2547-27.2082L45.4365-27.2082C46.1295-27.2082 46.6346-27.7134 46.6346-28.4067C46.6346-29.0996 46.1295-29.6048 45.4365-29.6048L28.2547-29.6048C27.6233-29.6048 27.0566-29.0996 27.0566-28.4067C27.0566-27.7134 27.6233-27.2082 28.2547-27.2082ZM69.3514-14.9497C71.1734-14.9497 72.6818-16.5191 72.6818-18.3399C72.6818-20.2229 71.1738-21.6673 69.3514-21.6673C67.4053-21.6673 65.9596-20.2229 65.9596-18.3399C65.9596-16.5191 67.4676-14.9497 69.3514-14.9497ZM96.0907-18.3016C96.784-18.3016 97.2888-18.8063 97.2888-19.5001L97.2888-27.1463L104.935-27.1463C105.629-27.1463 106.196-27.6515 106.196-28.3448C106.196-29.0378 105.629-29.5429 104.935-29.5429L97.2888-29.5429L97.2888-37.251C97.2888-37.9448 96.784-38.45 96.0907-38.45C95.4592-38.45 94.8926-37.9448 94.8926-37.251L94.8926-29.5429L87.1836-29.5429C86.4284-29.5429 85.9851-29.0378 85.9851-28.3448C85.9851-27.6515 86.4907-27.1463 87.1836-27.1463L94.8926-27.1463L94.8926-19.5001C94.8926-18.7444 95.4592-18.3016 96.0907-18.3016ZM69.3514-33.847C69.99-33.847 70.499-34.3564 70.4998-35.0573L70.6939-84.1071C70.6948-84.9368 70.1824-85.4496 69.3514-85.4496C68.5204-85.4496 67.9466-84.9368 67.9475-84.1071L68.1415-35.0573C68.142-34.3564 68.6513-33.847 69.3514-33.847Z"/>
</svg>