<svg xmlns="http://www.w3.org/2000/svg" viewBox="8.72266 -82.5701 94.62 94.62">
  <path d="M56.0321 12.0488C82.1491 12.0488 103.342-9.14362 103.342-35.2606C103.342-61.3777 82.1491-82.5701 56.0321-82.5701C29.9155-82.5701 8.72266-61.3777 8.72266-35.2606C8.72266-9.14362 29.9155 12.0488 56.0321 12.0488ZM56.0321 9.63326C31.1881 9.63326 11.0767-10.4166 11.0767-35.2606C11.0767-60.1046 31.1881-80.1545 56.0321-80.1545C80.8761-80.1545 100.926-60.1046 100.926-35.2606C100.926-10.4166 80.8761 9.63326 56.0321 9.63326ZM56.0271-6.04774C67.4255-6.04774 79.1821-12.9619 82.2986-22.2992C82.7996-23.736 81.7404-24.5518 80.8589-24.0521C78.8041-23.0578 74.5753-22.4343 70.4708-22.4343C55.5884-22.4343 44.949-33.0728 44.949-48.0786C44.949-52.6757 45.6348-55.489 46.6304-58.4734C47.0691-59.7241 46.132-60.5383 45.0021-60.1606C34.8519-56.7932 28.3735-45.0922 28.3735-33.634C28.3735-18.2477 40.5793-6.04774 56.0271-6.04774ZM68.8757-41.4019C69.0041-41.4019 69.1312-41.4675 69.1936-41.7197C70.3146-50.1948 70.6893-50.8166 79.6607-52.2488C79.9752-52.3111 80.1023-52.4374 80.1023-52.6904C80.1023-52.9426 79.9752-53.0693 79.6612-53.1316C70.7516-54.9376 71.3048-55.5568 69.1936-63.6606C69.1312-63.8509 69.0041-63.9166 68.8757-63.9166C68.6859-63.9166 68.5587-63.8509 68.4964-63.6606C66.3848-55.556 67.1245-54.9342 58.0284-53.1316C57.7143-53.0693 57.5876-52.9426 57.5876-52.6904C57.5876-52.4378 57.7143-52.3111 58.0284-52.2488C67.1245-50.4428 67.2512-50.1944 68.4964-41.7197C68.5587-41.4675 68.6859-41.4019 68.8757-41.4019Z" />
</svg>