<svg xmlns="http://www.w3.org/2000/svg" viewBox="8.72266 -82.5701 94.62 94.62">
  <path d="M56.0321 12.0488C82.1491 12.0488 103.342-9.14362 103.342-35.2606C103.342-61.3777 82.1491-82.5701 56.0321-82.5701C29.9155-82.5701 8.72266-61.3777 8.72266-35.2606C8.72266-9.14362 29.9155 12.0488 56.0321 12.0488ZM56.0321 9.63326C31.1881 9.63326 11.0767-10.4166 11.0767-35.2606C11.0767-60.1046 31.1881-80.1545 56.0321-80.1545C80.8761-80.1545 100.926-60.1046 100.926-35.2606C100.926-10.4166 80.8761 9.63326 56.0321 9.63326ZM49.5629-42.1811C50.6937-41.249 52.6837-39.9369 54.488-39.9369C56.9132-39.9369 58.5954-43.2348 62.3931-43.2348C66.1293-43.2348 67.8115-39.9369 70.2363-39.9369C71.9787-39.9369 73.9691-41.1872 75.1003-42.1811L64.7708-55.7467C63.5184-57.375 61.2072-57.4373 59.8925-55.7467ZM36.3169-18.0772L88.3459-18.0772C90.7245-18.0772 91.7828-20.2082 90.2841-22.2053L76.5384-40.1806C75.4122-39.1989 72.8586-37.5036 70.2363-37.5036C66.3137-37.5036 65.0663-40.802 62.3931-40.802C59.658-40.802 58.4111-37.5036 54.488-37.5036C51.8038-37.5036 49.2506-39.2608 48.124-40.1806L34.3164-22.2053C32.9419-20.27 33.9384-18.0772 36.3169-18.0772ZM23.7187-18.0772L31.8149-18.0772C30.8774-19.6415 30.9397-21.8314 32.377-23.6446L47.3734-43.3064L45.3258-45.788C44.0726-47.4155 42.0725-47.4155 40.7574-45.788L21.8437-22.1468C20.3429-20.3323 21.4627-18.0772 23.7187-18.0772Z" />
</svg>