<svg xmlns="http://www.w3.org/2000/svg" viewBox="8.72266 -81.8216 111.39 93">
  <path d="M64.4483-63.1121C73.1718-63.1121 81.1476-60.1211 87.5036-55.0125C88.5004-54.203 89.8084-54.3271 90.743-55.2617L100.414-64.8705C101.536-65.992 101.535-67.6119 100.351-68.6088C90.6276-76.836 78.037-81.8216 64.4483-81.8216C50.7977-81.8216 38.2067-76.836 28.4833-68.6088C27.2996-67.6119 27.361-65.992 28.4825-64.8705L38.1532-55.2617C39.0878-54.3271 40.458-54.2648 41.5172-55.1367C47.8113-60.1211 55.7871-63.1121 64.4483-63.1121ZM8.72266-26.0964C8.72266-12.4453 13.7087 0.207135 21.9978 9.93087C22.9946 11.1147 24.6764 11.1765 25.736 10.0551L35.3474 0.319961C36.2807-0.67481 36.343-1.9811 35.472-3.10048C30.4851-9.33558 27.4326-17.3733 27.4326-26.0964C27.4326-34.8195 30.4232-42.7953 35.4699-49.0889C36.2798-50.1481 36.218-51.5184 35.2834-52.453L25.6742-62.0622C24.6146-63.1218 22.9328-63.1837 21.9359-61.9999C13.6468-52.3376 8.72266-39.8089 8.72266-26.0964ZM120.112-26.0964C120.112-39.8089 115.188-52.3376 106.96-61.9999C105.963-63.1837 104.282-63.1218 103.222-62.0622L93.5513-52.453C92.6167-51.5184 92.5549-50.1481 93.3648-49.0889C98.4115-42.7953 101.402-34.8195 101.402-26.0964C101.402-17.3733 98.3496-9.33558 93.3623-3.10048C92.4917-1.9811 92.554-0.67481 93.4869 0.319961L103.16 10.0551C104.22 11.1765 105.902 11.1147 106.898 9.93087C115.126 0.207135 120.112-12.4453 120.112-26.0964ZM52.7279-4.40257C53.4827-4.40257 53.9862-4.96836 53.9862-5.72359L53.9862-41.1484L54.3591-41.1484L73.5852-5.78506C74.148-4.84417 74.8389-4.40257 75.6577-4.40257C76.6684-4.40257 77.4805-5.03572 77.4805-6.16267L77.4805-44.7289C77.4805-45.5464 76.9155-46.0499 76.1603-46.0499C75.4051-46.0499 74.8401-45.5464 74.8401-44.7289L74.8401-9.30316L74.4667-9.30316L55.303-44.667C54.7401-45.6702 53.9874-46.0499 53.2301-46.0499C52.1612-46.0499 51.4691-45.4197 51.4691-44.2898L51.4691-5.72359C51.4691-4.96836 51.9731-4.40257 52.7279-4.40257ZM47.7275-25.0402C47.7275-24.5383 48.1657-24.0997 48.668-24.0997L80.2206-24.0997C80.7224-24.0997 81.1611-24.5383 81.1611-25.0402C81.1611-25.5424 80.7224-25.981 80.2206-25.981L48.668-25.981C48.1657-25.981 47.7275-25.5424 47.7275-25.0402Z"/>
</svg>