<svg xmlns="http://www.w3.org/2000/svg" viewBox="12.4609 -84.134 98.77 97.75">
  <path d="M16.3453 7.46185L107.351 7.46185L107.351 5.89035C107.351 5.38013 106.971 5.06187 106.461 5.06187L103.345 5.06187L103.345-56.1142L108.139-56.1142C109.026-56.1142 109.409-56.6244 109.409-57.3203C109.409-57.6411 109.217-58.1458 108.646-58.4637L66.4698-82.8223C64.9711-83.6966 63.4093-84.134 61.8483-84.134C60.2869-84.134 58.6632-83.6966 57.1645-82.8223L14.9881-58.4637C14.4791-58.1458 14.2871-57.6411 14.2871-57.3203C14.2871-56.6244 14.6088-56.1142 15.5576-56.1142L20.3513-56.1142L20.3513 5.06187L17.2361 5.06187C16.7254 5.06187 16.3453 5.38013 16.3453 5.89035ZM22.7597 5.06187L22.7597-60.1202L58.619-80.5995C59.6125-81.1586 60.7306-81.4693 61.8483-81.4693C62.9656-81.4693 64.0218-81.1586 65.0154-80.5995L100.937-60.1202L100.937 5.06187ZM13.667 13.6127L110.029 13.6127C110.664 13.6127 111.235 13.0419 111.235 12.4062C111.235 11.7091 110.664 11.2001 110.029 11.2001L13.667 11.2001C12.9699 11.2001 12.4609 11.7091 12.4609 12.4062C12.4609 13.0419 12.9699 13.6127 13.667 13.6127ZM50.1279-12.7127C50.8831-12.7127 51.4485-13.2166 51.4485-14.0337L51.4485-49.3967L51.8215-49.3967L70.9852-14.0951C71.5485-13.092 72.3008-12.7127 73.0581-12.7127C74.0685-12.7127 74.881-13.3458 74.881-14.4728L74.881-53.0389C74.881-53.7946 74.316-54.36 73.5608-54.36C72.8055-54.36 72.2406-53.7946 72.2406-53.0389L72.2406-17.6132L71.8672-17.6132L52.7034-52.9771C52.1406-53.9802 51.3879-54.36 50.6305-54.36C49.5617-54.36 48.8696-53.7298 48.8696-52.5999L48.8696-14.0337C48.8696-13.2166 49.435-12.7127 50.1279-12.7127ZM45.128-33.3502C45.128-32.8484 45.5662-32.4098 46.0684-32.4098L77.6207-32.4098C78.1229-32.4098 78.5616-32.8484 78.5616-33.3502C78.5616-33.8525 78.1229-34.2907 77.6207-34.2907L46.0684-34.2907C45.5662-34.2907 45.128-33.8525 45.128-33.3502Z"/>
</svg>