<svg xmlns="http://www.w3.org/2000/svg" viewBox="8.72266 -82.5701 94.62 94.62">
  <path d="M56.0321 12.0488C82.1491 12.0488 103.342-9.14362 103.342-35.2606C103.342-61.3777 82.1491-82.5701 56.0321-82.5701C29.9155-82.5701 8.72266-61.3777 8.72266-35.2606C8.72266-9.14362 29.9155 12.0488 56.0321 12.0488ZM56.0321 9.63326C31.1881 9.63326 11.0767-10.4166 11.0767-35.2606C11.0767-60.1046 31.1881-80.1545 56.0321-80.1545C80.8761-80.1545 100.926-60.1046 100.926-35.2606C100.926-10.4166 80.8761 9.63326 56.0321 9.63326ZM35.2417-25.454L76.7598-25.454C77.4599-25.454 78.0303-25.9583 78.0303-26.6584C78.0303-27.3585 77.4607-27.8632 76.7598-27.8632L35.2417-27.8632C34.5408-27.8632 33.9712-27.3585 33.9712-26.6584C33.9712-25.9583 34.5416-25.454 35.2417-25.454ZM35.2417-42.5335L76.7598-42.5335C77.4599-42.5335 78.0303-43.0378 78.0303-43.7379C78.0303-44.438 77.4607-44.9427 76.7598-44.9427L35.2417-44.9427C34.5408-44.9427 33.9712-44.438 33.9712-43.7379C33.9712-43.0378 34.5416-42.5335 35.2417-42.5335ZM42.4884-17.5274C43.061-17.0828 43.7572-17.2121 44.2018-17.7846L69.8259-52.575C70.2089-53.2094 70.1475-53.9066 69.575-54.2892C69.0024-54.6719 68.368-54.6673 67.8616-54.0325L42.2371-19.1801C41.7921-18.6068 41.9163-17.9101 42.4884-17.5274Z" />
</svg>