<svg xmlns="http://www.w3.org/2000/svg" viewBox="8.72266 -82.5701 94.62 94.62">
  <path d="M56.0321 12.0488C82.1491 12.0488 103.342-9.14362 103.342-35.2606C103.342-61.3777 82.1491-82.5701 56.0321-82.5701C29.9155-82.5701 8.72266-61.3777 8.72266-35.2606C8.72266-9.14362 29.9155 12.0488 56.0321 12.0488ZM56.0321 9.63326C31.1881 9.63326 11.0767-10.4166 11.0767-35.2606C11.0767-60.1046 31.1881-80.1545 56.0321-80.1545C80.8761-80.1545 100.926-60.1046 100.926-35.2606C100.926-10.4166 80.8761 9.63326 56.0321 9.63326ZM45.5026-13.3879C46.265-13.3879 46.771-13.9575 46.771-14.6593L46.771-30.6901L59.0232-30.6901C66.5166-30.6901 72.0065-36.1767 72.0065-43.6659C72.0065-51.1542 66.4543-56.6421 59.0236-56.6421L45.3789-56.6421C44.6788-56.6421 44.2355-56.1331 44.2355-55.3703L44.2355-14.6593C44.2355-13.9583 44.8025-13.3879 45.5026-13.3879ZM46.771-33.1486L46.771-54.2451L59.1381-54.2451C65.1172-54.2451 69.4723-49.7675 69.4723-43.6659C69.4723-37.6261 64.9939-33.1486 59.1381-33.1486Z" />
</svg>