<svg xmlns="http://www.w3.org/2000/svg" viewBox="8.90747 -84.2578 103.03 98.12">
  <path d="M110.068-39.4258C111.94-45.2925 110.875-48.5522 105.946-52.1717L67.5741-80.3894C62.2714-84.2578 58.5765-84.2578 53.212-80.3894L14.9022-52.1717C9.91065-48.4903 8.90747-45.045 10.9656-38.6832L25.6662 6.11261C27.5383 11.8543 30.2346 13.8611 36.3514 13.8611L84.4965 13.8611C90.5514 13.8611 93.2478 11.8543 95.1199 6.11261ZM60.4549-80.8475L60.4549 11.4485L36.3514 11.4485C31.5607 11.4485 29.3821 9.89258 27.8893 5.41295L13.3121-39.4443C11.6337-44.5428 12.3814-47.2808 16.3007-50.1426L54.6719-78.4845C56.7861-80.1011 58.6519-80.8475 60.4549-80.8475Z"/>
</svg>