<svg xmlns="http://www.w3.org/2000/svg" viewBox="12.4609 -81.6503 131.72 102.32">
  <path d="M18.7726 8.48019L62.2087 8.48019C56.7912 5.63903 60.1169-9.12761 71.1406-18.6484C65.782-23.3129 58.0621-26.8571 47.6058-26.8571C25.9213-26.8571 12.4609-11.3373 12.4609 2.55367C12.4609 6.85354 14.7671 8.48019 18.7726 8.48019ZM47.7296-34.3336C53.0857-34.3336 57.6348-36.8877 60.6267-41.0613L36.2605-65.3656C33.208-62.0639 31.3384-57.5156 31.3384-52.5927C31.3384-42.187 38.386-34.3336 47.7296-34.3336ZM103.928-35.3932C114.643-35.3932 122.75-44.4923 122.75-56.3946C122.75-67.5543 114.457-77.0204 103.928-77.0204C93.3998-77.0204 85.0451-67.553 85.0451-56.3937C85.0451-44.4923 93.2141-35.3932 103.928-35.3932ZM70.6173 8.48019L110.107 8.48019L80.7498-20.9386C69.7198-14.8323 63.3639-4.98646 63.3639 2.9275C63.3639 7.10276 66.0434 8.48019 70.6173 8.48019ZM144.184 2.9275C144.184-9.47113 128.73-26.6087 103.751-26.6087C99.0459-26.6087 94.5886-25.9276 90.6263-24.8751L123.976 8.47388L136.852 8.47388C141.515 8.52903 144.184 7.15454 144.184 2.9275ZM127.043 20.1589C127.487 20.6654 128.248 20.6654 128.754 20.1589C129.322 19.6525 129.261 18.8922 128.754 18.4473L29.2247-81.1438C28.7801-81.5269 28.019-81.6503 27.4507-81.1438C27.0065-80.6378 27.0065-79.8763 27.4507-79.3703Z"/>
</svg>