<svg xmlns="http://www.w3.org/2000/svg" viewBox="12.4609 -82.5831 132.74 102.32">
  <path d="M19.2778 7.99985L63.2805 7.99985C62.4579 7.55656 61.4547 6.72935 60.9012 5.6546L19.3296 5.6546C16.0464 5.6546 14.8685 4.53943 14.8685 1.6271C14.8685-13.3029 29.9357-25.8783 48.0487-25.8783C57.245-25.8783 65.4473-23.0851 71.4799-17.7484C72.1105-18.3201 72.6814-18.7667 73.317-19.3355C66.5296-25.1163 57.7548-28.2236 48.0487-28.2236C26.1297-28.2236 12.4609-12.3443 12.4609 1.63046C12.4609 5.93875 14.7127 7.99985 19.2778 7.99985ZM48.1729-34.7576C53.5879-34.7576 58.1964-37.2456 61.2501-41.4128L59.5401-43.0614C56.9288-39.4612 52.8302-37.1647 48.1729-37.1647C39.9668-37.1647 33.746-44.1946 33.746-53.5833C33.746-57.9295 35.2964-61.8416 37.9015-64.7615L36.1902-66.4109C33.2046-63.1087 31.3384-58.5639 31.3384-53.5833C31.3384-42.8643 38.6361-34.7576 48.1729-34.7576ZM104.372-35.8732C115.343-35.8732 123.763-45.165 123.763-57.3801C123.763-68.9759 115.034-78.4492 104.372-78.4492C93.71-78.4492 85.043-68.9128 85.043-57.3792C85.043-45.1646 93.4629-35.8732 104.372-35.8732ZM104.372-38.2197C94.797-38.2197 87.4556-46.4944 87.4556-57.3792C87.4556-67.5833 95.0433-76.1026 104.372-76.1026C113.701-76.1026 121.35-67.646 121.35-57.3801C121.35-46.4948 113.947-38.2197 104.372-38.2197ZM71.0606 7.99985L110.602 7.99985L108.255 5.59187L71.1031 5.59187C67.0142 5.59187 65.7739 4.66193 65.7739 1.9963C65.7739-5.52237 71.6853-14.7321 82.2662-20.3972L80.5541-22.0478C69.6529-15.8144 63.3618-5.90798 63.3618 2.00387C63.3618 6.12608 65.8653 7.99985 71.0606 7.99985ZM145.196 2.00387C145.196-10.5834 129.43-28.0371 104.248-28.0371C99.2261-28.0371 94.576-27.3559 90.3595-26.1174L92.274-24.2647C95.9277-25.1315 99.8891-25.6266 104.163-25.6262C128.298-25.6729 142.784-9.74436 142.784 1.9963C142.784 4.66193 141.544 5.59187 137.393 5.59187L122.068 5.59187L124.473 7.9969L137.356 7.99522C142.645 8.05037 145.196 6.17618 145.196 2.00387ZM127.085 19.2265C127.529 19.7329 128.352 19.7329 128.796 19.2265C129.364 18.72 129.303 17.9593 128.796 17.5148L29.2672-82.0767C28.8222-82.4598 28.0615-82.5831 27.4932-82.0767C27.0491-81.5707 27.0491-80.8092 27.4932-80.3031Z"/>
</svg>