<svg xmlns="http://www.w3.org/2000/svg" viewBox="8.72266 -82.5078 94.62 94.62">
  <path d="M56.0321 12.1111C82.0254 12.1111 103.342-9.2055 103.342-35.1983C103.342-61.1912 82.0254-82.5078 56.0321-82.5078C30.0393-82.5078 8.72266-61.1912 8.72266-35.1983C8.72266-9.2055 30.0393 12.1111 56.0321 12.1111ZM22.5716-40.9872C22.5716-48.5938 28.0577-54.0804 35.6029-54.0804L56.8454-54.0804C64.3283-54.0804 69.8149-48.5938 69.8149-40.9872C69.8149-33.442 64.3902-27.9558 56.8454-27.9558L46.3475-27.9558C46.2111-29.3893 46.2717-29.9656 46.3378-30.3487L56.5343-30.3487C62.8797-30.3487 67.42-34.827 67.42-40.9872C67.42-47.1474 62.8179-51.6262 56.5343-51.6262L35.9144-51.6262C29.5686-51.6262 25.0284-47.1474 25.0284-40.9872C25.0284-34.827 29.5067-30.3487 35.9144-30.3487L40.8054-30.3487C40.7418-29.6557 40.7431-28.8319 40.807-27.9558L35.6029-27.9558C27.9958-27.9558 22.5716-33.442 22.5716-40.9872ZM42.3108-29.2828C42.3108-36.8894 47.6736-42.3137 55.2802-42.3137L65.8401-42.3137C65.9146-41.2524 65.854-40.2417 65.787-39.9213L55.5914-39.9213C49.246-39.9213 44.7057-35.4429 44.7057-29.2828C44.7057-23.1226 49.3078-18.6438 55.5914-18.6438L76.2113-18.6438C82.5571-18.6438 87.0973-23.1226 87.0973-29.2828C87.0973-35.4429 82.619-39.9213 76.2113-39.9213L71.3203-39.9213C71.4462-40.991 71.3822-41.3753 71.3186-42.3137L76.5228-42.3137C84.1298-42.3137 89.5541-36.8894 89.5541-29.2828C89.5541-21.6757 84.068-16.1891 76.5228-16.1891L55.2802-16.1891C47.7355-16.1891 42.3108-21.6757 42.3108-29.2828Z"/>
</svg>