<svg xmlns="http://www.w3.org/2000/svg" viewBox="8.72434 -82.9646 94.95 102.3">
  <path d="M11.2148-9.2055C8.72434-4.78566 10.029-0.548096 14.5119 1.44397L49.5916 16.9818C54.7384 19.3376 57.3515 19.3376 63.1172 16.7962L97.8255 1.44397C102.37-0.548096 103.675-4.78566 101.184-9.2055L59.6668-81.0255C58.976-82.219 57.6647-82.9646 56.1685-82.9646C54.6728-82.9646 53.4233-82.219 52.7325-81.0255ZM13.3799-8.14253L54.7401-79.7761C55.0508-80.2737 55.5476-80.7081 56.1685-80.7081C56.7899-80.7081 57.3485-80.3356 57.6592-79.7761L99.019-8.14253C100.817-5.04203 99.7014-2.00509 96.4169-0.579659L62.548 14.4547C57.346 16.808 55.1152 16.808 50.4083 14.7027L15.9205-0.579659C12.636-2.00509 11.5819-5.04203 13.3799-8.14253ZM54.9645 18.2553L57.3729 18.2553L57.3729-81.5442L54.9645-81.5442Z"/>
</svg>