<svg xmlns="http://www.w3.org/2000/svg" viewBox="12.4609 -71.3649 118.57 77.94">
  <path d="M12.4609-29.5299C12.4609-20.1753 13.4018-16.7991 20.3244-13.2444L47.9241 0.775032C57.2146 5.51398 62.897 6.57526 73.2476 3.58211L115.058-8.75422C126.658-12.1839 131.028-18.3032 131.028-29.5299L131.028-59.3789C131.028-66.9901 126.778-71.3645 119.044-71.3645L24.4462-71.3649C16.6497-71.3649 12.4609-67.0529 12.4609-59.442ZM14.8731-29.5299L14.8731-59.317C14.8731-65.7167 18.3567-69.0146 24.5708-69.0146L118.919-69.0142C125.133-69.0142 128.616-65.654 128.616-59.2538L128.616-29.5299C128.616-19.0753 125.249-14.2741 114.236-11.0384L72.4443 1.29369C62.6591 4.16097 58.0381 3.22724 49.2561-1.25701L21.6627-15.2722C15.3787-18.507 14.8731-20.7575 14.8731-29.5299ZM49.4884-17.8141C50.3093-17.8141 50.8764-18.4438 50.8764-19.266L50.8764-35.2455L58.5155-35.2455L65.6637-18.7032C65.9781-18.07 66.4197-17.8141 67.0533-17.8141C67.9315-17.8141 68.44-18.4401 68.44-19.1401C68.44-19.3919 68.4375-19.7089 68.3103-19.9034L61.2893-35.9372C65.2764-37.2514 68.1331-40.8087 68.1331-46.5917C68.1331-53.2688 64.3868-57.7526 57.4032-57.7526L49.4261-57.7526C48.5421-57.7526 48.0373-57.1852 48.0373-56.3011L48.0373-19.266C48.0373-18.4443 48.6659-17.8141 49.4884-17.8141ZM50.8764-37.8219L50.8764-55.1729L57.0892-55.1729C62.0635-55.1729 65.2932-52.2458 65.2932-46.5285C65.2932-41.4915 62.745-37.8219 57.1511-37.8219ZM85.0223-17.38C91.012-17.38 95.3198-21.8651 95.3198-28.8462C95.3198-33.9628 92.8184-38.1275 87.7174-38.5636L87.7174-38.6887C92.141-39.8106 94.1979-43.921 94.1979-48.095C94.1979-53.9588 90.5725-58.1303 84.8354-58.1303C80.0358-58.1303 77.0961-55.2647 75.7869-50.9652C75.4758-49.9073 75.4131-49.035 75.4131-48.5341C75.4131-47.7178 75.7924-47.2126 76.6116-47.2126C77.5521-47.2126 77.6834-47.7123 77.8728-48.6528C78.4972-52.3843 80.6728-55.6128 84.8354-55.6128C89.1256-55.6128 91.5483-52.1317 91.5483-47.7797C91.5483-43.3013 88.6276-39.6961 84.1484-39.6961L81.9142-39.6961C81.0357-39.6961 80.7182-39.1315 80.7182-38.5005C80.7182-37.8076 81.2213-37.3053 81.9142-37.3053L84.2107-37.3053C89.4354-37.3053 92.5439-34.3825 92.5439-28.7241C92.5439-24.1237 90.1814-19.9602 85.0842-19.9602C80.4206-19.9602 77.7503-23.5638 77.2511-27.0423C77.1235-27.9205 76.868-28.4214 75.9284-28.4214C75.171-28.4214 74.7281-27.9179 74.7281-27.0987C74.7281-26.4736 74.9146-25.3542 75.1639-24.6061C76.4731-20.3669 79.9739-17.38 85.0223-17.38Z"/>
</svg>