<svg xmlns="http://www.w3.org/2000/svg" viewBox="12.4609 -91.0473 101.25 110.33">
  <path d="M25.3656-5.14981L39.2145-5.14981L39.2145-7.5582L25.065-7.5582C19.1583-7.5582 14.8723-11.784 14.8723-17.5636L14.8723-54.2013C14.8723-59.9809 19.1583-64.2067 25.065-64.2067L39.2145-64.2067L39.2145-66.6151L25.3656-66.6151C17.9454-66.6151 12.4609-61.5646 12.4609-54.7056L12.4609-17.0593C12.4609-10.2007 17.9454-5.14981 25.3656-5.14981ZM100.871-5.14981C108.23-5.14981 113.714-10.2007 113.714-17.0593L113.714-54.7056C113.714-61.5646 108.23-66.6151 100.871-66.6151L87.0224-66.6151L87.0224-64.2067L101.11-64.2067C107.017-64.2067 111.365-59.9809 111.365-54.2013L111.365-17.5636C111.365-11.784 107.017-7.5582 101.11-7.5582L87.0224-7.5582L87.0224-5.14981ZM63.0873-91.0473C62.7084-91.0473 62.455-90.8587 62.1994-90.604L44.949-73.4248C44.4481-72.9242 43.9501-72.6081 43.9501-71.9194C43.9501-71.1612 44.3946-70.7171 45.2147-70.7171C45.5317-70.7171 45.8487-70.8442 46.1017-71.0353L51.2826-76.3401L63.0873-88.2718L63.0873-88.2718L74.8923-76.3401L80.0733-71.0353C80.3263-70.8442 80.6429-70.7171 81.0218-70.7171C81.7799-70.7171 82.2868-71.1612 82.2868-71.9194C82.2868-72.6081 81.7888-72.9242 81.2878-73.4248L63.9755-90.604C63.72-90.9206 63.4666-91.0473 63.0873-91.0473ZM63.0873-88.7711C62.5156-88.7711 62.0083-88.3257 62.0083-87.754L61.8816-76.4327L61.8816-55.785C61.8816-55.0883 62.4524-54.5797 63.0873-54.5797C63.7844-54.5797 64.2934-55.0883 64.2934-55.785L64.2934-76.4327L64.1667-87.754C64.1667-88.3257 63.7213-88.7711 63.0873-88.7711ZM63.0873 19.2825C63.4666 19.2825 63.72 19.1558 63.9755 18.8392L81.2878 1.6595C81.7888 1.15938 82.2868 0.781344 82.2868 0.15451C82.2868-0.603667 81.7799-1.0478 81.0218-1.0478C80.6429-1.0478 80.3263-0.982546 80.0733-0.729539L74.8923 4.5752L63.0873 16.4451L63.0873 16.4451L51.2826 4.5752L46.1017-0.729539C45.8487-0.982546 45.5317-1.0478 45.2147-1.0478C44.3946-1.0478 43.9501-0.603667 43.9501 0.15451C43.9501 0.781344 44.4481 1.15938 44.949 1.6595L62.1994 18.8392C62.455 19.0939 62.7084 19.2825 63.0873 19.2825ZM63.0873 17.0063C63.7213 17.0063 64.1667 16.5609 64.1667 15.9269L64.2934 4.60594L64.2934-15.9803C64.2934-16.6766 63.7844-17.1851 63.0873-17.1851C62.4524-17.1851 61.8816-16.6766 61.8816-15.9803L61.8816 4.60594L62.0083 15.9269C62.0083 16.5609 62.5156 17.0063 63.0873 17.0063Z"/>
</svg>