<svg xmlns="http://www.w3.org/2000/svg" viewBox="8.72266 -82.5701 94.62 94.62">
  <path d="M56.0321 12.0488C82.0254 12.0488 103.342-9.26781 103.342-35.2606C103.342-61.2535 82.0254-82.5701 56.0321-82.5701C30.0393-82.5701 8.72266-61.2535 8.72266-35.2606C8.72266-9.26781 30.0393 12.0488 56.0321 12.0488ZM43.8764-13.4435C43.1759-13.4435 42.6084-13.9529 42.6084-14.6546L42.6084-55.3127C42.6084-56.1382 43.0521-56.648 43.7526-56.648L57.0955-56.648C64.7177-56.648 70.0233-51.5335 70.0233-44.2292C70.0233-37.8749 66.0989-33.1356 59.9329-32.0692L69.4495-15.782C69.825-15.1556 69.9509-14.9022 69.9509-14.5224C69.9509-13.8257 69.5059-13.4435 68.8707-13.4435C68.1761-13.4435 67.9209-13.635 67.4785-14.3924L57.3961-31.8124L45.1456-31.8124L45.1456-14.6546C45.1456-13.952 44.6396-13.4435 43.8764-13.4435ZM45.1456-34.2705L57.2092-34.2705C63.3146-34.2705 67.4865-38.3123 67.4865-44.2279C67.4865-50.2062 63.3138-54.2493 57.2109-54.2493L45.1456-54.2493Z"/>
</svg>