<svg xmlns="http://www.w3.org/2000/svg" viewBox="12.4609 -84.379 96.69 98.26">
  <path d="M12.4609-63.4847C12.4609-62.1013 13.1568-61.344 14.7262-61.344L25.4662-61.344L25.4662-75.1916C25.4662-79.1101 22.2937-81.106 19.0564-81.106C15.7572-81.1678 12.4609-79.2339 12.4609-75.1916ZM23.8728-84.379C27.4882-83.311 29.1666-81.0011 29.1666-76.7564L29.1666 0.776715C29.1666 6.95077 33.8954 10.0727 38.6407 10.0727C43.3211 10.0727 47.986 6.95203 47.986 0.779661L47.986-12.6782C47.986-16.1925 50.4824-18.5689 53.9975-18.5689L101.099-18.5689L101.099-71.8331C101.099-80.0114 96.7318-84.379 88.5543-84.379ZM43.348-62.5425C43.348-63.2359 43.8528-63.8025 44.6089-63.8025L85.6071-63.8025C86.3627-63.8025 86.8675-63.2359 86.8675-62.5425C86.8675-61.9106 86.3627-61.3436 85.6071-61.3436L44.6089-61.3436C43.8528-61.3436 43.348-61.9106 43.348-62.5425ZM43.348-45.2235C43.348-45.9173 43.8528-46.4843 44.6089-46.4843L64.9594-46.4843C65.715-46.4843 66.2198-45.9173 66.2198-45.2235C66.2198-44.592 65.715-44.0254 64.9594-44.0254L44.6089-44.0254C43.8528-44.0254 43.348-44.592 43.348-45.2235ZM41.5753 13.8578L96.4826 13.8578C104.282 13.8578 109.153 8.73867 109.153 0.626855L109.153-12.7278C109.153-14.1116 108.457-14.8685 106.887-14.8685L53.9516-14.8685C52.4437-14.8685 51.6859-14.1116 51.6859-12.7278L51.6859 3.7261C51.6859 10.3843 48.2196 13.8855 41.5753 13.8578Z"/>
</svg>