<svg xmlns="http://www.w3.org/2000/svg" viewBox="12.4609 -65.8236 136.85 61.13">
  <path d="M20.9066-15.5732L106.323-15.5732C115.63-15.5732 120.31-16.2649 125.002-18.4577L141.494-26.3056C146.75-28.8125 148.683-33.3073 148.715-34.8838C148.755-38.495 143.833-45.3161 133.583-45.3161C128.657-45.3161 117.19-43.4465 112.642-43.4465C108.29-43.4465 106.672-43.6945 102.513-46.0516L94.7208-34.9605C94.28-34.4553 93.5862-34.268 93.0196-34.6481C92.4542-35.0266 92.3292-35.781 92.7081-36.3484L100.371-47.3099L92.4109-51.9739L84.1227-40.1351C83.6815-39.6295 82.9881-39.4431 82.4211-39.8232C81.8553-40.2017 81.7917-40.956 82.1091-41.4621L90.2702-53.2326L82.187-57.8966L73.2139-45.1246C72.8358-44.5584 72.0789-44.3723 71.5131-44.8126C71.0088-45.1911 70.8846-45.8857 71.2008-46.4515L80.1082-59.1557L76.5038-61.2686C68.6408-65.8236 61.8972-65.2001 55.8444-57.5232C49.9898-50.0492 43.7017-46.6872 37.1024-46.6872C31.498-46.6872 27.5753-48.239 23.5882-50.4163C18.8307-53.1004 12.4609-50.3539 12.4609-44.1016L12.4609-19.575C12.4609-18.707 12.5228-17.9004 12.5847-17.1561C14.8348-16.2 17.21-15.5732 20.9066-15.5732ZM142.627-24.1637L126.136-16.5023C120.446-13.8716 115.449-13.1168 106.323-13.1168L20.9066-13.1168C17.2853-13.1168 15.4036-13.3698 12.9632-14.4429C14.4063-7.99688 18.9827-4.69726 26.8314-4.69726L106.379-4.69726C117.939-4.69726 125.614-6.81772 137.084-13.1147C145.877-18.0406 149.312-23.2864 149.312-29.8995C149.312-30.0931 149.311-30.2249 149.31-30.4177C148.005-28.1625 145.825-25.6708 142.627-24.1637Z"/>
</svg>