<svg xmlns="http://www.w3.org/2000/svg" viewBox="12.4609 -69.3257 85.31 68.01">
  <path d="M45.7872-53.7702L64.3241-53.7702C66.6399-53.7702 68.0198-55.1501 68.0198-57.4664L68.0198-62.2584C68.0198-66.5725 65.2031-69.3257 60.7012-69.3257L49.4101-69.3257C44.9082-69.3257 42.1529-66.5725 42.1529-62.2584L42.1529-57.4664C42.1529-55.1501 43.5947-53.7702 45.7872-53.7702ZM49.8345-43.6676L60.4002-43.6676L60.4002-54.906L49.8345-54.906ZM45.8491-28.9435L64.3241-28.9435C66.6399-28.9435 68.0198-30.3853 68.0198-32.6396L68.0198-40.807C68.0198-43.0609 66.6399-44.5028 64.3241-44.5028L45.8491-44.5028C43.6566-44.5028 42.2152-43.0609 42.2152-40.807L42.2152-32.6396C42.2152-30.3853 43.6566-28.9435 45.8491-28.9435ZM49.8345-2.83948L60.4002-2.83948L60.4002-30.3891L49.8345-30.3891ZM12.4609-2.46229C12.4609-1.82704 12.9699-1.31808 13.667-1.31808L96.5676-1.31808C97.2033-1.31808 97.7741-1.82704 97.7741-2.46229C97.7741-3.15984 97.2033-3.66838 96.5676-3.66838L13.667-3.66838C12.9699-3.66838 12.4609-3.15984 12.4609-2.46229Z"/>
</svg>