<svg xmlns="http://www.w3.org/2000/svg" viewBox="12.4609 -80.2366 99.18 90.2">
  <path d="M13.6628-77.8282L110.436-77.8282C111.132-77.8282 111.638-78.397 111.638-79.0326C111.638-79.7298 111.132-80.2366 110.436-80.2366L13.6628-80.2366C13.0284-80.2366 12.4609-79.7298 12.4609-79.0326C12.4609-78.397 13.0284-77.8282 13.6628-77.8282ZM18.7785-39.6258L33.1431-39.6258C37.2106-39.6258 39.4608-41.4427 39.4608-45.8827L39.4608-60.3063C39.4608-64.7463 37.2106-66.6256 33.1431-66.6256L18.7785-66.6256C14.7111-66.6256 12.4609-64.7463 12.4609-60.3063L12.4609-45.8827C12.4609-41.4427 14.7111-39.6258 18.7785-39.6258ZM18.9027-42.03C15.9845-42.03 14.8651-43.1493 14.8651-46.0065L14.8651-60.1829C14.8651-63.0397 15.9845-64.221 18.9027-64.221L33.0185-64.221C35.9372-64.221 37.0566-63.0397 37.0566-60.1829L37.0566-46.0065C37.0566-43.1493 35.9372-42.03 33.0185-42.03ZM54.7431-39.6258L69.1077-39.6258C73.1752-39.6258 75.4253-41.4427 75.4253-45.8827L75.4253-60.3063C75.4253-64.7463 73.1752-66.6256 69.1077-66.6256L54.7431-66.6256C50.6756-66.6256 48.4255-64.7463 48.4255-60.3063L48.4255-45.8827C48.4255-41.4427 50.6756-39.6258 54.7431-39.6258ZM54.8677-42.03C51.949-42.03 50.8297-43.1493 50.8297-46.0065L50.8297-60.1829C50.8297-63.0397 51.949-64.221 54.8677-64.221L68.9835-64.221C71.9021-64.221 73.0211-63.0397 73.0211-60.1829L73.0211-46.0065C73.0211-43.1493 71.9021-42.03 68.9835-42.03ZM90.7076-39.6258L105.135-39.6258C109.202-39.6258 111.39-41.4427 111.39-45.8827L111.39-60.3063C111.39-64.7463 109.202-66.6256 105.135-66.6256L90.7076-66.6256C86.6401-66.6256 84.39-64.7463 84.39-60.3063L84.39-45.8827C84.39-41.4427 86.6401-39.6258 90.7076-39.6258ZM90.8318-42.03C87.9755-42.03 86.8561-43.1493 86.8561-46.0065L86.8561-60.1829C86.8561-63.0397 87.9755-64.221 90.8318-64.221L105.01-64.221C107.867-64.221 108.986-63.0397 108.986-60.1829L108.986-46.0065C108.986-43.1493 107.867-42.03 105.01-42.03ZM13.6628-28.243L110.436-28.243C111.132-28.243 111.638-28.8117 111.638-29.447C111.638-30.0826 111.132-30.6514 110.436-30.6514L13.6628-30.6514C13.0284-30.6514 12.4609-30.0826 12.4609-29.447C12.4609-28.8117 13.0284-28.243 13.6628-28.243ZM19.0261 9.95991L33.3911 9.95991C37.4582 9.95991 39.7083 8.14256 39.7083 3.70251L39.7083-10.721C39.7083-15.1611 37.4582-16.9784 33.3911-16.9784L19.0261-16.9784C14.9586-16.9784 12.7085-15.1611 12.7085-10.721L12.7085 3.70251C12.7085 8.14256 14.9586 9.95991 19.0261 9.95991ZM19.1503 7.5553C16.232 7.5553 15.1127 6.43592 15.1127 3.57916L15.1127-10.5973C15.1127-13.4544 16.232-14.5738 19.1503-14.5738L33.2665-14.5738C36.1847-14.5738 37.3041-13.4544 37.3041-10.5973L37.3041 3.57916C37.3041 6.43592 36.1847 7.5553 33.2665 7.5553ZM54.9906 9.95991L69.3556 9.95991C73.4846 9.95991 75.6728 8.14256 75.6728 3.70251L75.6728-10.721C75.6728-15.1611 73.4846-16.9784 69.3556-16.9784L54.9906-16.9784C50.9231-16.9784 48.673-15.1611 48.673-10.721L48.673 3.70251C48.673 8.14256 50.9231 9.95991 54.9906 9.95991ZM55.1152 7.5553C52.2585 7.5553 51.0776 6.43592 51.0776 3.57916L51.0776-10.5973C51.0776-13.4544 52.2585-14.5738 55.1152-14.5738L69.2314-14.5738C72.1497-14.5738 73.2686-13.4544 73.2686-10.5973L73.2686 3.57916C73.2686 6.43592 72.1497 7.5553 69.2314 7.5553ZM90.9551 9.95991L105.382 9.95991C109.45 9.95991 111.638 8.14256 111.638 3.70251L111.638-10.721C111.638-15.1611 109.45-16.9784 105.382-16.9784L90.9551-16.9784C86.8877-16.9784 84.6994-15.1611 84.6994-10.721L84.6994 3.70251C84.6994 8.14256 86.8877 9.95991 90.9551 9.95991ZM91.0793 7.5553C88.223 7.5553 87.104 6.43592 87.104 3.57916L87.104-10.5973C87.104-13.4544 88.223-14.5738 91.0793-14.5738L105.257-14.5738C108.114-14.5738 109.233-13.4544 109.233-10.5973L109.233 3.57916C109.233 6.43592 108.114 7.5553 105.257 7.5553Z" />
</svg>