<svg xmlns="http://www.w3.org/2000/svg" viewBox="8.72266 -83.9404 88.82 97.42">
  <path d="M52.7897 13.4814L53.4132 13.4814C60.0807 13.4814 62.2643 11.6102 62.2643 5.19025L62.2643-20.7857L61.0388-20.0777L83.5805-7.15071C85.6988-5.96734 87.3815-5.34345 88.7539-5.34345C91.2477-5.34345 93.055-6.96506 95.1742-10.6385L95.4857-11.1993C96.8573-13.5041 97.543-15.3737 97.543-16.9321C97.543-19.2412 95.9829-20.9882 92.6799-22.9193L70.1955-35.9721L70.1955-34.5555L92.7414-47.5397C96.0443-49.4084 97.5418-51.217 97.5418-53.4641C97.5418-55.0845 96.8564-56.9536 95.4866-59.3818L95.1746-59.8196C93.0558-63.4329 91.2477-65.1778 88.7543-65.1778C87.3819-65.1778 85.6984-64.5539 83.6419-63.3706L61.0392-50.3817L62.2643-49.6737L62.2643-75.6492C62.2643-82.0691 60.0807-83.9404 53.4132-83.9404L52.7897-83.9404C46.1223-83.9404 43.9383-82.0691 43.9383-75.6492L43.9383-49.6737L45.165-50.3817L22.6848-63.3706C20.6279-64.5548 18.9436-65.1787 17.5085-65.1787C15.0146-65.1787 13.2048-63.4337 11.0894-59.8188L10.7783-59.3818C9.41011-56.9532 8.72476-55.0836 8.72476-53.5252C8.72476-51.2174 10.2209-49.4089 13.5239-47.5393L36.0702-34.5555L36.0702-35.9721L13.5854-22.9193C10.2828-20.9882 8.72266-19.2416 8.72266-16.933C8.72266-15.3745 9.40885-13.5045 10.7787-11.1997L11.0898-10.6398C13.2078-7.02652 15.0159-5.34303 17.5106-5.34303C18.9444-5.34303 20.6279-5.96734 22.7463-7.15071L45.165-20.0777L43.9383-20.7857L43.9383 5.19025C43.9383 11.6102 46.1223 13.4814 52.7897 13.4814Z"/>
</svg>