<svg xmlns="http://www.w3.org/2000/svg" viewBox="8.72266 -82.5701 94.62 94.62">
  <path d="M56.0321 12.0488C82.1491 12.0488 103.342-9.14362 103.342-35.2606C103.342-61.3777 82.1491-82.5701 56.0321-82.5701C29.9155-82.5701 8.72266-61.3777 8.72266-35.2606C8.72266-9.14362 29.9155 12.0488 56.0321 12.0488ZM56.0321 9.63326C31.1881 9.63326 11.0767-10.4166 11.0767-35.2606C11.0767-60.1046 31.1881-80.1545 56.0321-80.1545C80.8761-80.1545 100.926-60.1046 100.926-35.2606C100.926-10.4166 80.8761 9.63326 56.0321 9.63326ZM40.7157-10.46L56.0317-21.6673L71.41-10.46C72.6073-9.63953 74.0529-10.399 73.5498-12.0328L67.6957-30.0889L83.0749-41.1093C83.8991-41.7429 83.7695-43.7513 82.1331-43.7509L63.2051-43.7497L57.415-61.8062C56.9738-63.1302 55.1514-63.1302 54.7107-61.8062L48.9201-43.7497L29.9307-43.7509C28.48-43.7513 27.9167-41.9285 29.0508-41.0474L44.43-30.0889L38.6377-12.0328C38.0724-10.399 39.5184-9.63953 40.7157-10.46Z" />
</svg>