<svg xmlns="http://www.w3.org/2000/svg" viewBox="8.72266 -82.5078 94.62 94.62">
  <path d="M56.0321 12.1111C82.0254 12.1111 103.342-9.2055 103.342-35.1983C103.342-61.1912 82.0254-82.5078 56.0321-82.5078C30.0393-82.5078 8.72266-61.1912 8.72266-35.1983C8.72266-9.2055 30.0393 12.1111 56.0321 12.1111ZM23.9414-51.6354C23.9414-56.8109 26.3755-59.3696 31.4879-59.3696L32.2309-59.3696C32.6704-60.2431 33.6694-60.8666 34.7311-60.8666C36.1721-60.8666 37.363-59.6765 37.363-58.297C37.363-56.7941 36.1721-55.6036 34.7311-55.6036C33.7312-55.6036 32.7941-56.1651 32.2932-56.9764L30.7444-56.9764C27.8249-56.9764 26.397-55.3 26.397-51.6973C26.397-41.3716 35.2939-28.3642 42.3836-28.3642C49.4733-28.3642 58.3707-41.3097 58.3707-51.6973C58.3707-55.2996 56.9423-56.9764 54.0843-56.9764L52.4732-56.9764C51.9726-56.1651 51.0974-55.6036 50.0976-55.6036C48.6562-55.6036 47.4661-56.7941 47.4661-58.297C47.4661-59.6765 48.6562-60.8666 50.0976-60.8666C51.1597-60.8666 52.0968-60.2431 52.5355-59.3696L53.4031-59.3696C58.3917-59.3696 60.7643-56.8728 60.7643-51.6354C60.7643-40.4905 51.5521-26.9792 43.5181-26.0358C43.583-15.5884 46.6321-10.6086 52.7224-10.6086C60.5484-10.6086 61.8627-16.4501 63.4215-27.1577C64.8592-36.6377 67.6671-40.5048 73.0952-40.5048C78.2757-40.5048 81.2697-36.0782 82.0818-27.0368C86.188-26.4104 89.3605-22.9239 89.3605-18.6914C89.3605-13.9566 85.5603-10.2184 80.8256-10.2184C76.0909-10.2184 72.353-13.9562 72.353-18.6914C72.353-22.9226 75.5848-26.4079 79.689-27.0352C79.0049-34.5037 76.8276-38.1734 73.0952-38.1734C69.053-38.1734 66.8142-34.6275 65.8144-26.4071C64.1907-13.081 60.7572-8.21536 52.7241-8.21536C45.0593-8.21536 41.3143-14.1394 41.1872-26.0358C33.2151-26.9796 23.9414-40.6146 23.9414-51.6354ZM74.8039-18.6914C74.8039-15.2773 77.5352-12.6074 80.8256-12.6074C84.2397-12.6074 86.9096-15.2773 86.9096-18.6914C86.9096-21.9818 84.2397-24.7131 80.8256-24.7131C77.5352-24.7131 74.8039-21.9818 74.8039-18.6914Z"/>
</svg>