<svg xmlns="http://www.w3.org/2000/svg" viewBox="12.4609 -93.6431 112.65 113.54">
  <path d="M51.8101-18.7027L55.4987-18.7027C49.6977-22.8658 45.8895-29.6562 45.8895-37.3196C45.8895-49.9486 56.1555-60.2145 68.7844-60.2145C81.4133-60.2145 91.6793-49.9486 91.6793-37.3196C91.6793-29.6562 87.8711-22.8658 82.07-18.7027L85.7586-18.7027C90.7969-23.3133 93.9677-29.9125 93.9677-37.3196C93.9677-51.2195 82.6838-62.5034 68.7844-62.5034C54.885-62.5034 43.6011-51.2195 43.6011-37.3196C43.6011-29.9125 46.7719-23.3133 51.8101-18.7027ZM13.5471-37.4211L32.1223-37.4211C32.7605-37.4211 33.2088-37.9296 33.2084-38.5657C33.208-39.0776 32.7605-39.7104 32.1223-39.7104L13.5471-39.7104C12.9703-39.7104 12.4609-39.1395 12.4609-38.5657C12.4609-37.9915 12.9703-37.4211 13.5471-37.4211ZM43.6133-62.4907C44.0583-62.8738 44.0583-63.6985 43.6726-64.0218L30.5023-77.1921C30.0553-77.6396 29.2933-77.515 28.9717-77.1323C28.4644-76.6874 28.4025-76.0488 28.9119-75.6013L42.0822-62.431C42.4055-62.0458 43.1683-62.0453 43.6133-62.4907ZM68.7844-72.8956C69.3582-72.896 69.929-73.405 69.929-73.9199L69.929-92.557C69.929-93.1337 69.3582-93.6431 68.7844-93.6431C68.2106-93.6431 67.6397-93.1337 67.6397-92.557L67.6397-73.9199C67.6397-73.405 68.2106-72.8952 68.7844-72.8956ZM93.9555-62.4907C94.4009-62.0458 95.1632-62.0458 95.4866-62.431L108.657-75.6013C109.166-76.0488 109.104-76.6869 108.597-77.1323C108.214-77.5154 107.513-77.6396 107.066-77.1921L93.8961-64.0218C93.5105-63.6985 93.5101-62.8734 93.9555-62.4907ZM105.446-37.4211L124.022-37.4211C124.66-37.4211 125.108-37.9296 125.108-38.5657C125.108-39.0776 124.66-39.7104 124.022-39.7104L105.446-39.7104C104.87-39.7104 104.36-39.1395 104.36-38.5657C104.361-37.9915 104.87-37.4211 105.446-37.4211ZM21.1356-17.6154L123.785-17.6154C124.479-17.6154 125.108-18.0587 125.108-18.7528C125.108-19.3847 124.479-19.8903 123.785-19.8903L21.1356-19.8903C20.4418-19.8903 19.8129-19.3847 19.8129-18.7528C19.8129-18.0587 20.4418-17.6154 21.1356-17.6154ZM13.7836 1.13834L116.433 1.13834C117.127 1.13834 117.756 0.695052 117.756 0.000862755C117.756-0.631022 117.127-1.13661 116.433-1.13661L13.7836-1.13661C13.0899-1.13661 12.4609-0.631022 12.4609 0.000862755C12.4609 0.695052 13.0899 1.13834 13.7836 1.13834ZM21.1356 19.892L123.785 19.892C124.479 19.892 125.108 19.4488 125.108 18.7546C125.108 18.1227 124.479 17.6171 123.785 17.6171L21.1356 17.6171C20.4418 17.6171 19.8129 18.1227 19.8129 18.7546C19.8129 19.4488 20.4418 19.892 21.1356 19.892Z"/>
</svg>