<svg xmlns="http://www.w3.org/2000/svg" viewBox="3.55221 -86.5458 95.73 102.82">
  <path d="M29.1569-67.0293L71.9059-67.0293C72.6001-67.0293 73.1672-66.5241 73.1672-65.8304C73.1672-65.1981 72.6001-64.6306 71.9059-64.6306L31.5556-64.6306L46.4797-49.7065L71.9059-49.7065C72.6001-49.7065 73.1672-49.2013 73.1672-48.5076C73.1672-47.8753 72.6001-47.3078 71.9059-47.3078L48.8784-47.3078L90.3763-5.80989L90.3763-73.9999C90.3763-82.1782 86.0714-86.5458 77.832-86.5458L25.0056-86.5458C20.0284-86.5458 16.4796-84.8076 14.421-81.7652ZM47.064-29.985L30.994-29.985C30.2376-29.985 29.6705-30.5524 29.6705-31.1839C29.6705-31.8781 30.2376-32.4456 30.994-32.4456L44.6653-32.4456L12.4614-64.5872L12.4614 3.7261C12.4614 11.9048 16.8282 16.2721 25.0056 16.2721L77.832 16.2721C82.8715 16.2721 86.4823 14.658 88.479 11.4919ZM96.9436 12.0989C97.4504 12.5435 98.2111 12.5435 98.7171 12.0989C99.285 11.5306 99.1617 10.8314 98.7171 10.3249L5.77033-82.56C5.38766-83.0046 4.62654-83.1283 4.05822-82.56C3.55221-82.1159 3.55221-81.3543 4.05822-80.8483Z"/>
</svg>