<svg xmlns="http://www.w3.org/2000/svg" viewBox="12.4609 -86.5458 77.92 102.82">
  <path d="M30.9368-64.7485L71.9009-64.7485C72.6565-64.7485 73.1613-65.3155 73.1613-66.0093C73.1613-66.6407 72.6565-67.2074 71.9009-67.2074L30.9368-67.2074C30.2426-67.2074 29.676-66.6407 29.676-66.0093C29.676-65.3155 30.2426-64.7485 30.9368-64.7485ZM30.9368-47.4299L71.9009-47.4299C72.6565-47.4299 73.1613-47.9973 73.1613-48.6292C73.1613-49.3221 72.6565-49.8892 71.9009-49.8892L30.9368-49.8892C30.2426-49.8892 29.676-49.3221 29.676-48.6292C29.676-47.9973 30.2426-47.4299 30.9368-47.4299ZM30.9368-30.1117L51.2873-30.1117C52.0429-30.1117 52.6096-30.6783 52.6096-31.3098C52.6096-32.0035 52.0429-32.5706 51.2873-32.5706L30.9368-32.5706C30.2426-32.5706 29.676-32.0035 29.676-31.3098C29.676-30.6783 30.2426-30.1117 30.9368-30.1117ZM12.4609 3.7261C12.4609 11.9048 16.8277 16.2721 25.0052 16.2721L77.8316 16.2721C86.071 16.2721 90.3763 11.9048 90.3763 3.7261L90.3763-73.9999C90.3763-82.1782 86.071-86.5458 77.8316-86.5458L25.0052-86.5458C16.8277-86.5458 12.4609-82.1782 12.4609-73.9999ZM14.8731 3.60149L14.8731-73.8752C14.8731-80.6509 18.355-84.1336 25.1324-84.1336L77.7049-84.1336C84.4818-84.1336 88.0256-80.6509 88.0256-73.8752L88.0256 3.60149C88.0256 10.3771 84.4818 13.8599 77.7049 13.8599L25.1324 13.8599C18.355 13.8599 14.8731 10.3771 14.8731 3.60149Z" />
</svg>