<svg xmlns="http://www.w3.org/2000/svg" viewBox="12.4609 -86.5458 77.92 102.82">
  <path d="M72.0815-26.988L31.1793-26.988C30.4232-26.988 29.8561-26.4833 29.8561-25.7899C29.8561-25.0961 30.4232-24.591 31.1793-24.591L72.0815-24.591C72.8371-24.591 73.4038-25.0961 73.4038-25.7899C73.4038-26.4833 72.8371-26.988 72.0815-26.988ZM72.0815-9.66983L31.1793-9.66983C30.4232-9.66983 29.8561-9.10278 29.8561-8.47089C29.8561-7.77754 30.4232-7.27279 31.1793-7.27279L72.0815-7.27279C72.8371-7.27279 73.4038-7.77754 73.4038-8.47089C73.4038-9.10278 72.8371-9.66983 72.0815-9.66983ZM25.0052 16.2721L77.8316 16.2721C86.071 16.2721 90.3763 11.9044 90.3763 3.7261L90.3763-45.0223C90.3763-48.2865 89.7524-49.7919 87.805-51.7402L55.6364-83.9126C53.6906-85.9211 52.1208-86.5458 48.8624-86.5458L25.0052-86.5458C16.9515-86.5458 12.4609-82.1782 12.4609-73.9999L12.4609 3.7261C12.4609 11.9048 16.8277 16.2721 25.0052 16.2721ZM25.1319 13.8599C18.355 13.8599 14.8731 10.3771 14.8731 3.60149L14.8731-73.8752C14.8731-80.3415 18.355-84.1336 25.1324-84.1336L50.2134-84.1336L50.2134-52.695C50.2134-48.1956 52.4635-46.3787 56.5297-46.3787L88.0256-46.3787L88.0256 3.60149C88.0256 10.3771 84.4818 13.8599 77.7049 13.8599ZM56.6606-48.7871C53.7403-48.7871 52.6213-49.906 52.6213-52.7645L52.6213-83.4415L87.3335-48.7871Z" />
</svg>