<svg xmlns="http://www.w3.org/2000/svg" viewBox="12.4609 -91.6228 98.1 104.83">
  <path d="M61.5132-4.83281C69.3725-4.83281 75.6109-11.1327 75.6109-18.9924C75.6109-24.4815 72.5538-29.0335 68.0039-31.4647C66.136-32.4611 65.5731-33.1528 65.5731-36.0163L65.5731-79.7298C65.5731-81.9159 63.8855-83.7278 61.5137-83.7278C59.1415-83.7278 57.5156-81.9159 57.5156-79.7298L57.5156-36.0163C57.5156-33.1536 56.8905-32.4624 55.0218-31.4655C50.4723-29.034 47.416-24.4815 47.416-18.9924C47.416-11.1327 53.7159-4.83281 61.5132-4.83281ZM76.8667-77.153L86.5315-77.153C87.2872-77.153 87.9148-77.5962 87.9148-78.2883C87.9148-78.9804 87.2872-79.4237 86.5315-79.4237L76.8667-79.4237C76.1111-79.4237 75.4838-78.9804 75.4838-78.2883C75.4838-77.5962 76.1111-77.153 76.8667-77.153ZM76.8667-63.4459L86.5315-63.4459C87.2872-63.4459 87.9148-63.8892 87.9148-64.5813C87.9148-65.2734 87.2872-65.7167 86.5315-65.7167L76.8667-65.7167C76.1111-65.7167 75.4838-65.2734 75.4838-64.5813C75.4838-63.8892 76.1111-63.4459 76.8667-63.4459ZM76.8667-49.7389L86.5315-49.7389C87.2872-49.7389 87.9148-50.1822 87.9148-50.8743C87.9148-51.5664 87.2872-52.0096 86.5315-52.0096L76.8667-52.0096C76.1111-52.0096 75.4838-51.5664 75.4838-50.8743C75.4838-50.1822 76.1111-49.7389 76.8667-49.7389ZM76.8667-36.0319L86.5315-36.0319C87.2872-36.0319 87.9148-36.4752 87.9148-37.1672C87.9148-37.8593 87.2872-38.3026 86.5315-38.3026L76.8667-38.3026C76.1111-38.3026 75.4838-37.8593 75.4838-37.1672C75.4838-36.4752 76.1111-36.0319 76.8667-36.0319ZM12.4609-5.97197C12.4609-5.3384 13.0297-4.76966 13.6632-4.76966L13.9125-4.76966C27.1375-4.76966 28.5073-14.6761 38.3359-14.6761C40.9359-14.6761 42.9789-13.9954 44.7743-12.9429C44.3984-13.8851 44.15-14.8921 43.9644-15.9037C42.3546-16.5848 40.4349-17.0799 38.3296-17.0799C33.6538-17.0799 30.2864-14.7081 27.1101-12.4041C23.4341-9.84917 19.8874-7.17386 13.9125-7.17386L13.6632-7.17386C13.0297-7.17386 12.4609-6.667 12.4609-5.97197ZM110.565-5.97197C110.565-6.667 110.058-7.17386 109.363-7.17386L109.114-7.17386C103.139-7.17386 99.6538-9.84917 95.9778-12.4041C92.7397-14.7081 89.4342-17.0799 84.6973-17.0799C82.5924-17.0799 80.6728-16.5848 79.0634-15.9037C78.8798-14.8403 78.6281-13.8851 78.2521-12.9429C80.1095-13.9954 82.0906-14.6761 84.691-14.6761C94.5192-14.6753 95.8894-4.76966 109.114-4.76966L109.363-4.76966C110.058-4.76966 110.565-5.3384 110.565-5.97197ZM12.4609 12.0042C12.4609 12.6996 13.0297 13.2065 13.6632 13.2065L13.9125 13.2065C27.1375 13.2065 28.5073 3.30004 38.3359 3.30004C47.9776 3.30004 49.9103 13.2065 61.5132 13.2065C73.1158 13.2065 75.0489 3.30004 84.6906 3.30004C94.5192 3.30004 95.889 13.2065 109.114 13.2065L109.363 13.2065C110.058 13.2065 110.565 12.6996 110.565 12.0042C110.565 11.3706 110.058 10.8019 109.363 10.8019L109.114 10.8019C103.139 10.8019 99.6538 8.18887 95.9778 5.63396C92.8003 3.32868 89.4312 0.895433 84.6906 0.895433C79.8245 0.895433 76.455 3.45371 73.2775 5.82129C69.913 8.37578 66.6159 10.8019 61.5132 10.8019C56.4102 10.8019 53.1131 8.37578 49.7486 5.82129C46.5711 3.45371 43.2016 0.895433 38.3359 0.895433C33.5949 0.895433 30.2877 3.32868 27.1101 5.63396C23.4341 8.18887 19.8874 10.8019 13.9125 10.8019L13.6632 10.8019C13.0297 10.8019 12.4609 11.3706 12.4609 12.0042ZM39.7479-31.0589C40.5018-31.0589 40.9443-31.6246 40.9443-32.379L40.9443-50.3573L40.6904-61.3406L40.9443-72.3243L40.9443-90.3645C40.9443-91.057 40.5018-91.6228 39.7479-91.6228C38.9939-91.6228 38.5519-91.057 38.5519-90.3645L38.5519-72.3243L38.8672-61.3406L38.5519-50.3573L38.5519-32.379C38.5519-31.6246 38.9939-31.0589 39.7479-31.0589ZM53.8153-68.0485L53.8153-70.8795L48.6667-67.9024L39.3079-62.1573L29.633-56.9187L14.019-47.8984C13.39-47.5216 13.1391-46.8287 13.5163-46.1997C13.8931-45.5708 14.6479-45.4437 15.215-45.7594L30.8913-54.7793L40.2505-60.5239ZM53.8153-51.8017L53.8153-54.6332L40.2501-62.1573L30.8913-67.9024L15.215-76.9223C14.6479-77.2995 13.8931-77.1104 13.5163-76.4819C13.1391-75.853 13.39-75.1601 14.019-74.7829L29.633-65.7626L39.3079-60.5235L48.6667-54.7793ZM49.8442-85.0185C49.4674-85.6466 48.7757-85.8352 48.1468-85.458L39.7479-80.5439L31.3494-85.458C30.72-85.8352 30.0283-85.6466 29.652-85.0185C29.2748-84.39 29.4638-83.6983 30.1546-83.3211L38.9232-78.2222C39.5584-77.904 40.0619-77.9659 40.5726-78.2222L49.3415-83.3211C50.0323-83.6983 50.2214-84.39 49.8442-85.0185ZM29.652-37.6632C30.0283-37.0346 30.72-36.9079 31.3494-37.2237L39.7479-42.1377L48.1468-37.2237C48.7757-36.9079 49.4674-37.0346 49.8442-37.6632C50.2214-38.2917 50.0323-39.0448 49.3415-39.3605L40.5726-44.4594C39.9381-44.8396 39.4347-44.7772 38.9232-44.4594L30.1546-39.3605C29.4638-39.0448 29.2748-38.2917 29.652-37.6632ZM24.2959-40.7767C24.988-40.7763 25.5525-41.2793 25.5529-42.096L25.5525-52.1709C25.5517-52.9312 25.238-53.3109 24.6659-53.6287L15.8978-58.6666C15.2684-59.1056 14.5149-58.917 14.2-58.2266C13.8232-57.599 14.0118-56.9692 14.7031-56.592L23.1016-51.739L23.102-42.0337C23.1016-41.2793 23.5428-40.7763 24.2959-40.7767ZM24.2959-81.9045C23.5428-81.905 23.1016-81.4015 23.102-80.709L23.1016-70.9419L14.7031-66.0892C14.0118-65.7739 13.8232-65.0823 14.2-64.4542C14.5149-63.7638 15.2684-63.6371 15.8978-64.0147L24.6659-69.0521C25.238-69.4318 25.5517-69.7501 25.5525-70.5722L25.5529-80.6467C25.5525-81.4015 24.988-81.905 24.2959-81.9045Z"/>
</svg>