<svg xmlns="http://www.w3.org/2000/svg" viewBox="12.4609 -85.029 54.97 99.54">
  <path d="M39.9748 14.5077C56.1336 14.5077 67.4263 3.77576 67.4263-11.5727L67.4263-58.9486C67.4263-74.297 56.1336-85.029 39.9748-85.029C23.816-85.029 12.4609-74.297 12.4609-58.9486L12.4609-11.5727C12.4609 3.77576 23.816 14.5077 39.9748 14.5077ZM39.9743 12.157C25.2128 12.157 14.8727 2.37854 14.8727-11.5727L14.8727-58.9486C14.8727-72.8998 25.2128-82.6783 39.9743-82.6783C54.6749-82.6783 65.0145-72.8998 65.0145-58.9486L65.0145-11.5727C65.0145 2.37854 54.6749 12.157 39.9743 12.157ZM39.9748-40.5481C48.894-40.5481 55.8801-47.5961 55.8801-56.5158C55.8801-65.4355 48.894-72.4835 39.9748-72.4835C31.0551-72.4835 24.0071-65.4355 24.0071-56.5158C24.0071-47.5961 31.0551-40.5481 39.9748-40.5481ZM39.9748-50.4049C36.5455-50.4049 33.8024-53.0861 33.8024-56.5158C33.8024-59.9451 36.5455-62.6263 39.9748-62.6263C43.404-62.6263 46.0852-59.9451 46.0852-56.5158C46.0852-53.0861 43.404-50.4049 39.9748-50.4049ZM39.9748 1.28104C48.894 1.28104 55.8801-5.70508 55.8801-14.6866C55.8801-23.544 48.894-30.592 39.9748-30.592C31.0551-30.592 24.0071-23.544 24.0071-14.6866C24.0071-5.70508 31.0551 1.28104 39.9748 1.28104ZM39.9748-1.11936C32.0726-1.11936 26.4075-6.72215 26.4075-14.6866C26.4075-22.5269 32.0726-28.1301 39.9748-28.1301C47.8769-28.1301 53.4797-22.5269 53.4797-14.6866C53.4797-6.72215 47.8769-1.11936 39.9748-1.11936Z"/>
</svg>