<svg xmlns="http://www.w3.org/2000/svg" viewBox="14.0565 -86.0453 87.05 91.32">
  <path d="M99.9796 4.02203C100.985 2.95359 101.109 1.44355 100.042 0.313228L35.264-64.2172C34.1341-65.2856 32.4982-65.2237 31.431-64.2172C30.3634-63.0869 30.3634-61.5149 31.4314-60.3846L96.1471 4.02203C97.4007 5.27612 98.9125 5.15235 99.9796 4.02203ZM98.659 2.82477C98.3446 3.20071 97.6563 3.26301 97.218 2.82477L47.9102-46.4212L49.475-47.9237L98.659 1.32231C99.0973 1.76012 99.0973 2.38654 98.659 2.82477ZM79.7466-47.3195C80.2468-47.3195 80.4985-47.5704 80.5616-47.9472C82.8038-61.7557 85.4728-63.6909 98.481-65.8674C98.9201-65.9301 99.1091-66.2437 99.1091-66.6201C99.1091-67.0592 98.9201-67.3728 98.481-67.4355C85.4728-69.4882 82.7996-71.6727 80.5616-85.293C80.4985-85.7321 80.2468-86.0453 79.7466-86.0453C79.1846-86.0453 78.871-85.7321 78.8697-85.2934C76.5657-71.671 73.8967-69.4882 60.9504-67.4355C60.5109-67.3728 60.26-67.0592 60.26-66.6201C60.26-66.2437 60.5109-65.9305 60.9504-65.8674C73.8967-63.6909 76.5691-61.8176 78.8697-47.9476C78.8706-47.5704 79.1838-47.3195 79.7466-47.3195ZM25.3546-11.5217C25.7933-11.5217 26.0442-11.773 26.1069-12.2113C26.9838-19.5165 26.9838-21.067 35.9637-22.068C36.4638-22.1308 36.6533-22.4436 36.6533-22.8199C36.6533-23.1967 36.4638-23.5095 35.9637-23.5722C26.9838-24.5114 26.9838-26.1237 26.1069-33.429C26.0442-33.8672 25.7933-34.1185 25.3546-34.1185C24.9164-34.1185 24.6655-33.8672 24.6028-33.429C23.7878-26.1237 23.7878-24.5114 14.746-23.5722C14.2459-23.5095 14.0565-23.1967 14.0565-22.8199C14.0565-22.4436 14.2459-22.1308 14.746-22.068C23.7878-21.067 23.7878-19.5165 24.6028-12.2113C24.6655-11.773 24.9164-11.5217 25.3546-11.5217ZM41.9256 4.41019C42.1154 4.41019 42.2426 4.28347 42.3053 4.03131C42.9309-0.89497 43.114-2.44165 50.0239-3.6869C50.2761-3.74962 50.4024-3.87718 50.4024-4.1285C50.4024-4.38024 50.2761-4.44592 50.0239-4.50864C43.1144-5.75389 42.9317-7.29973 42.3053-12.2273C42.2426-12.4786 42.115-12.6057 41.9256-12.6057C41.6734-12.6057 41.6086-12.4786 41.5454-12.2264C40.9182-7.29973 40.7363-5.75263 33.7654-4.50864C33.5751-4.44592 33.3865-4.38067 33.3865-4.1285C33.3865-3.87718 33.5751-3.74962 33.7654-3.6869C40.7363-2.44165 40.9182-0.89497 41.5454 4.03131C41.6086 4.28347 41.6734 4.41019 41.9256 4.41019Z"/>
</svg>