<svg xmlns="http://www.w3.org/2000/svg" viewBox="12.4609 -91.7962 77.92 108.07">
  <path d="M12.4609 3.7261C12.4609 11.9048 16.8277 16.2721 25.0052 16.2721L77.8316 16.2721C86.071 16.2721 90.3763 11.9048 90.3763 3.7261L90.3763-73.9999C90.3763-82.1782 86.071-86.5458 77.8316-86.5458L25.0052-86.5458C16.8277-86.5458 12.4609-82.1782 12.4609-73.9999ZM14.8731 3.60149L14.8731-73.8752C14.8731-80.6509 18.355-84.1336 25.1324-84.1336L77.7049-84.1336C84.4818-84.1336 88.0256-80.6509 88.0256-73.8752L88.0256 3.60149C88.0256 10.3771 84.4818 13.8599 77.7049 13.8599L25.1324 13.8599C18.355 13.8599 14.8731 10.3771 14.8731 3.60149ZM51.4186-60.5526C56.0969-60.5526 59.6513-63.9229 59.3389-68.7242L58.3403-85.2475C58.0903-89.1184 55.095-91.7962 51.4186-91.7962C47.8041-91.7962 44.8089-89.1184 44.5588-85.2475L43.6221-68.7242C43.3098-63.9229 46.8022-60.5526 51.4186-60.5526ZM51.4186-62.9989C48.4941-62.9989 46.1299-65.3639 46.1299-68.3499C46.1299-71.2744 48.4941-73.6386 51.4186-73.6386C54.3427-73.6386 56.7074-71.2744 56.7074-68.3499C56.7074-65.3639 54.3427-62.9989 51.4186-62.9989ZM51.4186-49.1474L61.7671-49.1474C63.5752-49.1474 64.9467-50.5813 64.9467-52.3894C64.9467-54.1971 63.5752-55.5682 61.7671-55.5682L51.4186-55.5682ZM51.4186-42.7881L51.4186-49.1474L41.0083-49.1474C39.2002-49.1474 37.8905-47.7759 37.8905-46.0301C37.8905-44.222 39.2002-42.7881 41.0083-42.7881ZM51.4186-36.3674L61.7671-36.3674C63.5752-36.3674 64.9467-37.8012 64.9467-39.6712C64.9467-41.417 63.5752-42.7881 61.7671-42.7881L51.4186-42.7881ZM51.4186-29.9462L51.4186-36.3674L41.0083-36.3674C39.2002-36.3674 37.8905-34.9959 37.8905-33.2501C37.8905-31.3801 39.2002-29.9462 41.0083-29.9462ZM51.4186-23.5255L61.7671-23.5255C63.5752-23.5255 64.9467-24.9593 64.9467-26.8293C64.9467-28.5747 63.5752-29.9462 61.7671-29.9462L51.4186-29.9462ZM51.4186-17.1662L51.4186-23.5255L41.0083-23.5255C39.2002-23.5255 37.8905-22.1539 37.8905-20.4081C37.8905-18.6 39.2002-17.1662 41.0083-17.1662Z"/>
</svg>