<svg xmlns="http://www.w3.org/2000/svg" viewBox="9.76562 -68.8482 67.19 67.2">
  <path d="M19.7647-1.65282L66.9585-1.65282C73.4917-1.65282 76.9576-5.20946 76.9576-11.6416L76.9576-58.8594C76.9576-65.2915 73.4917-68.8482 66.9585-68.8482L19.7647-68.8482C13.2349-68.8482 9.76562-65.3823 9.76562-58.8594L9.76562-11.6416C9.76562-5.11864 13.2349-1.65282 19.7647-1.65282ZM32.4253-19.1313C25.4551-19.1313 23.8696-28.6367 23.8696-35.2539C23.8696-41.8711 25.4551-51.3765 32.4253-51.3765C39.3921-51.3765 40.9776-41.8711 40.9776-35.2539C40.9776-28.6367 39.3921-19.1313 32.4253-19.1313ZM32.4253-21.3589C37.5698-21.3589 38.4761-29.8017 38.4761-35.2539C38.4761-40.7061 37.5698-49.1489 32.4253-49.1489C27.2808-49.1489 26.3745-40.7061 26.3745-35.2539C26.3745-29.8017 27.2808-21.3589 32.4253-21.3589ZM54.291-19.229C49.022-19.229 45.7876-23.2339 45.7876-28.1499C45.7876-31.9575 48.0156-35.3901 51.252-36.126L51.252-36.1816C48.2656-37.1831 46.6665-39.8867 46.6665-43.1323C46.6665-47.7134 49.7227-51.23 54.291-51.23C59.1446-51.23 62.0132-47.585 62.0132-43.1289C62.0132-39.998 60.3404-37.1865 57.4346-36.1816L57.4346-36.126C60.605-35.3936 62.8501-31.9155 62.8501-28.1499C62.8501-23.0478 59.4717-19.229 54.291-19.229ZM54.3365-37.0938C57.3194-37.0938 59.6231-39.5566 59.6231-42.9482C59.6231-46.022 57.8189-49.082 54.3365-49.082C51.2242-49.082 49.0567-46.4726 49.0567-42.9482C49.0567-39.2627 51.5772-37.0938 54.3365-37.0938ZM54.3365-21.3804C58.1153-21.3804 60.335-24.5449 60.335-28.2783C60.335-32.4658 57.7031-34.9424 54.3365-34.9424C50.6553-34.9424 48.2994-32.0957 48.2994-28.2783C48.2994-24.4995 50.6099-21.3804 54.3365-21.3804Z"/>
</svg>