<svg xmlns="http://www.w3.org/2000/svg" viewBox="6.83594 -72.4785 74.45 74.45">
  <path d="M44.0606 1.97072C64.6118 1.97072 81.2886-14.7026 81.2886-35.2539C81.2886-55.8052 64.6118-72.4785 44.0606-72.4785C23.5127-72.4785 6.83594-55.8052 6.83594-35.2539C6.83594-14.7026 23.5127 1.97072 44.0606 1.97072ZM44.0606-0.274438C24.7046-0.274438 9.0391-15.898 9.0391-35.2539C9.0391-54.6099 24.7046-70.2334 44.0606-70.2334C63.4165-70.2334 79.04-54.6099 79.04-35.2539C79.04-15.898 63.4165-0.274438 44.0606-0.274438ZM45.6118-17.8447C46.314-17.8447 46.7662-18.356 46.7662-19.0298L46.7662-51.3872C46.7662-52.1553 46.1744-52.6631 45.4199-52.6631C44.853-52.6631 44.4566-52.4961 43.7363-51.9985L35.5552-46.731C35.1724-46.4595 35.0088-46.1392 35.0088-45.7007C35.0088-45.1543 35.4473-44.6601 36.0425-44.6601C36.2686-44.6601 36.439-44.7124 36.6016-44.8511L44.2622-49.7754L44.4644-49.7754L44.4644-19.0298C44.4644-18.356 44.9165-17.8447 45.6118-17.8447Z" />
</svg>