<svg xmlns="http://www.w3.org/2000/svg" viewBox="6.83594 -72.4785 74.45 74.45">
  <path d="M44.0606 1.97072C64.6118 1.97072 81.2886-14.7026 81.2886-35.2539C81.2886-55.8052 64.6118-72.4785 44.0606-72.4785C23.5127-72.4785 6.83594-55.8052 6.83594-35.2539C6.83594-14.7026 23.5127 1.97072 44.0606 1.97072ZM44.0606-0.274438C24.7046-0.274438 9.0391-15.898 9.0391-35.2539C9.0391-54.6099 24.7046-70.2334 44.0606-70.2334C63.4165-70.2334 79.04-54.6099 79.04-35.2539C79.04-15.898 63.4165-0.274438 44.0606-0.274438ZM27.3916-19.7754L40.4946-19.7754C41.1001-19.7754 41.5703-20.2524 41.5703-20.8579C41.5703-21.5156 41.0967-21.9893 40.4946-21.9893L29.3999-21.9893L29.3999-22.146L36.8916-32.668C39.8057-36.7822 40.8516-39.5688 40.8516-42.7563C40.8516-47.4883 38.3213-51.3355 33.5371-51.3355C29.1016-51.3355 26.1943-47.2373 26.1943-43.146C26.1943-42.6245 26.5317-42.0464 27.3257-42.0464C27.8789-42.0464 28.3037-42.3633 28.3799-42.9165C28.8887-46.5771 30.3999-49.1284 33.5791-49.1284C37.083-49.1284 38.625-45.6904 38.625-42.645C38.625-39.7959 37.5493-37.3452 35.0967-33.8594L26.625-22.0996C26.2944-21.6646 26.1455-21.2715 26.1455-20.8125C26.1455-20.1685 26.6645-19.7754 27.3916-19.7754ZM54.5918-19.1724C61.5835-19.1724 63.1621-28.6606 63.1621-35.2539C63.1621-41.8472 61.5835-51.3355 54.5918-51.3355C47.6455-51.3355 46.0669-41.8472 46.0669-35.2539C46.0669-28.6606 47.6455-19.1724 54.5918-19.1724ZM54.5918-21.3897C49.4541-21.3897 48.5513-29.8223 48.5513-35.2539C48.5513-40.6856 49.4541-49.1181 54.5918-49.1181C59.7749-49.1181 60.6358-40.6856 60.6358-35.2539C60.6358-29.8223 59.7749-21.3897 54.5918-21.3897Z" />
</svg>