<svg xmlns="http://www.w3.org/2000/svg" viewBox="6.83594 -72.4785 74.45 74.45">
  <path d="M44.0606 1.97072C64.6118 1.97072 81.2886-14.7026 81.2886-35.2539C81.2886-55.8052 64.6118-72.4785 44.0606-72.4785C23.5127-72.4785 6.83594-55.8052 6.83594-35.2539C6.83594-14.7026 23.5127 1.97072 44.0606 1.97072ZM44.0606-0.274438C24.7046-0.274438 9.0391-15.898 9.0391-35.2539C9.0391-54.6099 24.7046-70.2334 44.0606-70.2334C63.4165-70.2334 79.04-54.6099 79.04-35.2539C79.04-15.898 63.4165-0.274438 44.0606-0.274438ZM26.7456-19.7754L39.8452-19.7754C40.4961-19.7754 40.9697-20.2524 40.9697-20.8579C40.9697-21.5156 40.4927-21.9893 39.8452-21.9893L28.7993-21.9893L28.7993-22.146L36.2422-32.668C39.2051-36.7822 40.251-39.5688 40.251-42.7563C40.251-47.4883 37.7173-51.3355 32.9365-51.3355C28.4976-51.3355 25.5937-47.2373 25.5937-43.146C25.5937-42.6245 25.9312-42.0464 26.7251-42.0464C27.2783-42.0464 27.6997-42.3633 27.7793-42.9165C28.2881-46.5771 29.7959-49.1284 32.9785-49.1284C36.4824-49.1284 37.9756-45.6904 37.9756-42.645C37.9756-39.7959 36.9487-37.3452 34.4961-33.8594L26.021-22.0996C25.6938-21.6646 25.5449-21.2715 25.5449-20.8125C25.5449-20.1685 26.0605-19.7754 26.7456-19.7754ZM54.1866-19.1724C59.4624-19.1724 62.2481-24.146 62.2481-29.7954C62.2481-35.0132 59.7579-40.0322 54.6797-40.0322C50.9747-40.0322 48.6309-37.2197 47.9302-33.5918L47.7837-33.5918C47.7837-33.8257 47.7837-34.0176 47.7837-34.2969C47.7837-39.6177 48.5899-49.0727 54.2251-49.0727C56.9195-49.0727 58.4932-47.0903 59.2642-44.4971C59.4868-43.8599 59.73-43.3227 60.458-43.3227C61.126-43.3227 61.5371-43.6772 61.5371-44.3667C61.5371-44.6699 61.4429-45.2002 61.2544-45.8247C60.337-49.0996 57.6875-51.2832 54.2808-51.2832C47.1812-51.2832 45.4209-41.376 45.4209-34.5522C45.4209-27.4585 47.4502-19.1724 54.1866-19.1724ZM54.1797-21.3828C50.3135-21.3828 48.3379-25.9326 48.3379-30.0088C48.3379-33.7808 50.502-37.8911 54.1343-37.8911C57.9937-37.8911 59.8364-33.6797 59.8296-29.7295C59.8296-25.8281 57.98-21.3828 54.1797-21.3828Z" />
</svg>