<svg xmlns="http://www.w3.org/2000/svg" viewBox="6.83594 -72.4785 74.45 74.45">
  <path d="M44.0606 1.97072C64.521 1.97072 81.2886-14.7969 81.2886-35.2539C81.2886-55.7109 64.521-72.4785 44.0606-72.4785C23.6035-72.4785 6.83594-55.7109 6.83594-35.2539C6.83594-14.7969 23.6035 1.97072 44.0606 1.97072ZM38.9653-18.0693C38.2803-18.0693 37.7622-18.4795 37.7622-19.1611C37.7622-19.4951 37.8179-19.6758 37.9849-20.0029L53.1997-49.8291L53.1997-50.0347L34.8897-50.0347C34.2388-50.0347 33.7969-50.522 33.7969-51.0889C33.7969-51.7012 34.2354-52.1465 34.8897-52.1465L53.7295-52.1465C54.9302-52.1465 55.7481-51.5137 55.7481-50.5708C55.7481-50.0937 55.6436-49.7597 55.355-49.1894L40.1651-18.9214C39.8311-18.3022 39.5254-18.0693 38.9653-18.0693Z"/>
</svg>