<svg xmlns="http://www.w3.org/2000/svg" viewBox="6.83594 -72.4785 74.45 74.45">
  <path d="M44.0606 1.97072C64.6118 1.97072 81.2886-14.7026 81.2886-35.2539C81.2886-55.8052 64.6118-72.4785 44.0606-72.4785C23.5127-72.4785 6.83594-55.8052 6.83594-35.2539C6.83594-14.7026 23.5127 1.97072 44.0606 1.97072ZM44.0606-0.274438C24.7046-0.274438 9.0391-15.898 9.0391-35.2539C9.0391-54.6099 24.7046-70.2334 44.0606-70.2334C63.4165-70.2334 79.04-54.6099 79.04-35.2539C79.04-15.898 63.4165-0.274438 44.0606-0.274438ZM38.9302-18.1172C39.4868-18.1172 39.7857-18.3013 40.1231-18.9658L55.3174-49.1655C55.606-49.729 55.7071-50.063 55.7071-50.5332C55.7071-51.4727 54.9448-52.1406 53.7056-52.1406L34.8682-52.1406C34.2627-52.1406 33.8276-51.6567 33.8276-51.0478C33.8276-50.4844 34.2661-50.0005 34.8682-50.0005L53.228-50.0005L53.228-49.7949L37.96-20.0337C37.793-19.71 37.7339-19.4839 37.7339-19.1987C37.7339-18.5239 38.252-18.1172 38.9302-18.1172Z" />
</svg>