<svg xmlns="http://www.w3.org/2000/svg" viewBox="9.76562 -63.7026 67.19 57.09">
  <path d="M9.76562-7.7256C9.76562-7.13819 10.2417-6.6167 10.8745-6.6167C11.4654-6.6167 11.9834-7.13819 11.9834-7.7256L11.9834-62.5903C11.9834-63.1811 11.4654-63.7026 10.8745-63.7026C10.2417-63.7026 9.76562-63.1811 9.76562-62.5903ZM74.7397-7.7256C74.7397-7.13819 75.2612-6.6167 75.8486-6.6167C76.4849-6.6167 76.9576-7.13819 76.9576-7.7256L76.9576-62.5903C76.9576-63.1811 76.4849-63.7026 75.8486-63.7026C75.2612-63.7026 74.7397-63.1811 74.7397-62.5903ZM43.3599-18.2534C49.4248-18.2534 53.9605-21.9336 53.9605-27.6103C53.9605-31.7358 51.1704-35.0947 47.2188-35.9702L47.2188-35.8896C50.5391-36.8662 52.8897-39.6074 52.8897-43.1753C52.8897-48.2876 48.6914-51.6147 43.3599-51.6147C38.1714-51.6147 33.8755-48.333 33.8755-43.1753C33.8755-39.4258 36.4043-36.8208 39.5986-35.8896L39.5986-35.9702C35.6924-35.189 32.8501-31.7358 32.8501-27.6103C32.8501-22.0381 37.3687-18.2534 43.3599-18.2534ZM43.4053-36.9902C39.5425-36.9902 36.4815-39.2681 36.4815-42.9912C36.4815-46.8994 39.4971-49.3135 43.4053-49.3135C47.8652-49.3135 50.2837-46.3965 50.2837-42.9912C50.2837-39.2192 47.1773-36.9902 43.4053-36.9902ZM43.4053-20.6035C38.7466-20.6035 35.5288-23.5376 35.5288-27.7808C35.5288-31.8911 38.8828-34.6401 43.4053-34.6401C48.0186-34.6401 51.2329-31.9433 51.2329-27.7808C51.2329-23.4434 47.9731-20.6035 43.4053-20.6035Z"/>
</svg>