<svg xmlns="http://www.w3.org/2000/svg" viewBox="9.76562 -68.8482 67.19 67.2">
  <path d="M19.7647-1.65282L66.9585-1.65282C73.4917-1.65282 76.9576-5.20946 76.9576-11.6416L76.9576-58.8594C76.9576-65.2915 73.4917-68.8482 66.9585-68.8482L19.7647-68.8482C13.2349-68.8482 9.76562-65.3823 9.76562-58.8594L9.76562-11.6416C9.76562-5.11864 13.2349-1.65282 19.7647-1.65282ZM19.8623-3.87405C14.6665-3.87405 11.9834-6.55031 11.9834-11.7564L11.9834-58.7446C11.9834-63.9541 14.6665-66.6269 19.8623-66.6269L66.8609-66.6269C71.875-66.6269 74.7397-63.9541 74.7397-58.7446L74.7397-11.7564C74.7397-6.55031 71.875-3.87405 66.8609-3.87405ZM42.523-17.8447C50.4551-17.8447 55.17-24.1289 55.17-37.3691C55.17-47.6426 50.2803-52.6631 43.1611-52.6631C36.5054-52.6631 31.6021-48.0107 31.6021-41.3926C31.6021-35.2002 36.2217-30.3823 42.4478-30.3823C47.5259-30.3823 51.1333-32.7397 52.8467-36.9136L53.0034-36.9136C53.0103-25.8316 49.1348-19.9986 42.5615-19.9986C39.2119-19.9986 36.2871-21.7471 34.9483-24.3882C34.5791-25.0435 34.3394-25.3218 33.7896-25.3218C33.2158-25.3218 32.7705-24.9673 32.7705-24.3062C32.7705-23.9995 32.8228-23.8325 32.8818-23.6133C33.4917-21.3364 37.5522-17.8447 42.523-17.8447ZM43.0454-32.4883C37.6304-32.4883 33.8902-36.3682 33.8902-41.5947C33.8902-46.8418 37.8018-50.5332 43.1362-50.5332C48.2754-50.5332 52.3823-46.6919 52.3823-41.4551C52.3823-36.4136 48.4605-32.4883 43.0454-32.4883Z" />
</svg>