<svg xmlns="http://www.w3.org/2000/svg" viewBox="6.83594 -70.7695 96.97 71.03">
  <path d="M55.3004 0.261736C74.9239 0.261736 90.816-15.6758 90.816-35.2539C90.816-54.832 74.9239-70.7695 55.3004-70.7695C35.7256-70.7695 19.7847-54.832 19.7847-35.2539C19.7847-15.6758 35.7256 0.261736 55.3004 0.261736ZM55.3004-1.98342C36.9664-1.98342 22.0299-16.8745 22.0299-35.2539C22.0299-53.6333 36.9664-68.5244 55.3004-68.5244C73.6797-68.5244 88.6162-53.6333 88.6162-35.2539C88.6162-16.8745 73.6797-1.98342 55.3004-1.98342ZM6.83594-35.2539C6.83594-23.77 10.833-13.2627 17.4316-4.98435C17.8906-4.44577 18.5088-4.38669 19.0371-4.80369C19.5586-5.21385 19.6177-5.86376 19.169-6.4375C12.8623-14.3057 9.04252-24.3472 9.04252-35.2539C9.04252-46.1641 12.8623-56.2021 19.169-64.1191C19.6177-64.644 19.5166-65.294 19.0371-65.7075C18.5542-66.0791 17.8452-66.0166 17.4316-65.5235C10.833-57.2031 6.83594-46.7378 6.83594-35.2539ZM103.81-35.2539C103.81-46.7378 99.8131-57.2031 93.2145-65.5235C92.8009-66.0166 92.0919-66.0791 91.609-65.7075C91.1295-65.294 91.0284-64.644 91.4771-64.1191C97.7838-56.2021 101.558-46.1641 101.558-35.2539C101.558-24.3472 97.7838-14.3057 91.4771-6.4375C91.0284-5.86376 91.0875-5.21385 91.609-4.80369C92.1373-4.38669 92.7555-4.44577 93.2145-4.98435C99.8131-13.2627 103.81-23.77 103.81-35.2539ZM33.4444-22.5791C34.043-22.5791 34.3702-22.8643 34.5235-23.4141L36.0211-29.8677L42.9395-29.8677L44.437-23.4107C44.5972-22.8018 44.9312-22.5791 45.5196-22.5791C46.108-22.5791 46.5396-23.0142 46.5396-23.5117C46.5396-23.7105 46.4839-23.9605 46.4317-24.166L41.1041-46.4453C40.8882-47.3643 40.4815-47.9321 39.4751-47.9321C38.6119-47.9321 38.1177-47.4131 37.8565-46.4453L32.5323-24.166C32.4766-23.9468 32.4698-23.731 32.4698-23.5117C32.4698-22.9448 32.8594-22.5791 33.4444-22.5791ZM36.4288-31.668L39.4229-45.0381L39.482-45.0381L42.5704-31.668ZM51.2818-22.8789L56.4634-22.8789C60.5196-22.8789 62.4307-25.8643 62.4307-29.624C62.4307-32.4526 61.043-35.4731 58.3643-35.8013L58.3643-35.9023C60.7183-36.6211 61.6143-39.4746 61.6143-41.5356C61.6143-44.7925 59.9268-47.6323 56.359-47.6323L51.2818-47.6323C50.6378-47.6323 50.2515-47.1724 50.2515-46.501L50.2515-24.0103C50.2515-23.3525 50.6275-22.8789 51.2818-22.8789ZM52.3609-24.7666L52.3609-34.7144L55.8443-34.7144C58.8487-34.7144 60.2759-32.7012 60.2759-29.7422C60.2759-26.9614 59.0372-24.7666 55.9839-24.7666ZM52.3609-36.5747L52.3609-45.7412L55.8477-45.7412C58.3878-45.7412 59.522-43.8428 59.522-41.3027C59.522-38.6196 58.2833-36.5747 55.5547-36.5747ZM71.8614-22.4746C75.9937-22.4746 77.7642-25.5791 77.7642-29.2437C77.7642-33.1499 75.9337-34.6841 72.9268-36.2749L71.7379-36.9131C69.5294-38.1099 68.1724-39.2646 68.1724-41.8535C68.1724-44.2685 69.4429-46.1284 71.6763-46.1284C74.0006-46.1284 75.0406-44.23 75.4312-41.9058C75.5391-41.3379 75.9185-41.1152 76.4512-41.1152C77.127-41.1152 77.3634-41.582 77.3634-41.9819C77.3634-42.3828 77.2623-42.8745 77.1578-43.3208C76.6387-45.5591 74.9761-48.04 71.6763-48.04C68.1539-48.04 66.1187-45.2876 66.1187-41.7319C66.1187-38.1435 67.8233-36.6514 70.9039-34.9277L72.1314-34.2441C74.483-32.9111 75.6583-31.8052 75.6583-29.1221C75.6583-26.4629 74.5069-24.3828 71.9068-24.3828C69.5338-24.3828 68.127-26.3198 67.7364-28.9653C67.6705-29.4981 67.3433-29.8569 66.8072-29.8569C66.1734-29.8569 65.8428-29.3379 65.8428-28.7495C65.8428-28.3589 65.8951-28.0103 65.9473-27.8013C66.6866-24.8228 68.398-22.4746 71.8614-22.4746Z"/>
</svg>