<svg xmlns="http://www.w3.org/2000/svg" viewBox="9.76562 -74.1446 63.83 77.78">
  <path d="M18.8076-1.63033L49.7964-1.63033C55.4181-1.63033 58.8839-5.04732 58.8839-10.6587L58.8839-65.1162C58.8839-70.731 55.4112-74.1446 49.7964-74.1446L18.8076-74.1446C13.2383-74.1446 9.76562-70.731 9.76562-65.1162L9.76562-10.6587C9.76562-5.04732 13.2315-1.63033 18.8076-1.63033ZM11.9834-10.7768L11.9834-64.9981C11.9834-69.2505 14.6665-71.9722 18.9053-71.9722L49.6988-71.9722C53.983-71.9722 56.6661-69.2505 56.6661-64.9981L56.6661-10.7768C56.6661-6.5244 53.983-3.80273 49.6988-3.80273L18.9053-3.80273C14.6665-3.80273 11.9834-6.5244 11.9834-10.7768ZM22.1817-57.3857C24.6675-57.3857 26.7491-59.4219 26.7491-61.9566C26.7491-64.439 24.6675-66.5239 22.1817-66.5239C19.6958-66.5239 17.6143-64.439 17.6143-61.9566C17.6143-59.4219 19.6958-57.3857 22.1817-57.3857ZM18.2007-28.0454L30.3643-28.0454C31.2388-28.0454 31.8623-28.7178 31.8623-29.5923C31.8623-30.4214 31.2388-31.0938 30.3643-31.0938L18.2007-31.0938C17.3716-31.0938 16.7027-30.4214 16.7027-29.5923C16.7027-28.7178 17.3716-28.0454 18.2007-28.0454ZM18.2007-19.2402L30.3643-19.2402C31.2388-19.2402 31.8623-19.8638 31.8623-20.7383C31.8623-21.6128 31.2388-22.2852 30.3643-22.2852L18.2007-22.2852C17.3716-22.2852 16.7027-21.6128 16.7027-20.7383C16.7027-19.8638 17.3716-19.2402 18.2007-19.2402ZM18.2007-10.3862L30.3643-10.3862C31.2388-10.3862 31.8623-11.0552 31.8623-11.9297C31.8623-12.7622 31.2388-13.4312 30.3643-13.4312L18.2007-13.4312C17.3716-13.4312 16.7027-12.7622 16.7027-11.9297C16.7027-11.0552 17.3716-10.3862 18.2007-10.3862ZM38.2852-28.0454L50.4034-28.0454C51.2779-28.0454 51.9468-28.7178 51.9468-29.5923C51.9468-30.4214 51.2779-31.0938 50.4034-31.0938L38.2852-31.0938C37.4107-31.0938 36.7383-30.4214 36.7383-29.5923C36.7383-28.7178 37.4107-28.0454 38.2852-28.0454ZM38.2852-19.2402L50.4034-19.2402C51.2779-19.2402 51.9468-19.8638 51.9468-20.7383C51.9468-21.6128 51.2779-22.2852 50.4034-22.2852L38.2852-22.2852C37.4107-22.2852 36.7383-21.6128 36.7383-20.7383C36.7383-19.8638 37.4107-19.2402 38.2852-19.2402ZM38.2852-10.3862L50.4034-10.3862C51.2779-10.3862 51.9468-11.0552 51.9468-11.9297C51.9468-12.7622 51.2779-13.4312 50.4034-13.4312L38.2852-13.4312C37.4107-13.4312 36.7383-12.7622 36.7383-11.9297C36.7383-11.0552 37.4107-10.3862 38.2852-10.3862ZM18.1206 3.63336C18.7671 3.63336 19.2295 3.17095 19.2295 2.56986L19.2295-2.80418L17.0571-2.80418L17.0571 2.56986C17.0571 3.17095 17.5195 3.63336 18.1206 3.63336ZM50.4835 3.63336C51.13 3.63336 51.5924 3.17095 51.5924 2.56986L51.5924-2.80418L49.3746-2.80418L49.3746 2.56986C49.3746 3.17095 49.8824 3.63336 50.4835 3.63336ZM43.2901-58.7725C51.8878-58.7725 57.2974-66.4932 65.4713-66.4932C67.9273-66.4932 69.7271-65.9209 71.7916-64.7876C72.4879-64.4116 73.0831-64.6343 73.358-65.1114C73.5978-65.5635 73.5035-66.2871 72.8707-66.6348C70.5099-68.0123 68.1773-68.6119 65.4713-68.6119C56.1471-68.6119 50.961-60.9331 43.2901-60.9331C40.8829-60.9331 38.9923-61.5088 37.0152-62.6421C36.4132-62.9273 35.7691-62.8409 35.4942-62.3081C35.167-61.7266 35.3067-61.0938 35.8907-60.7041C38.1573-59.2324 40.5875-58.7725 43.2901-58.7725ZM43.2935-50.102C51.8878-50.102 57.3009-57.8228 65.4713-57.8228C67.9308-57.8228 69.7306-57.2505 71.795-56.1172C72.4879-55.7378 73.0865-55.9639 73.3614-56.4409C73.5978-56.8897 73.5069-57.6167 72.8775-57.9644C70.5133-59.3418 68.1773-59.9414 65.4713-59.9414C56.1505-59.9414 50.9644-52.2627 43.2935-52.2627C40.8829-52.2627 38.9923-52.8384 37.0186-53.9717C36.4166-54.2569 35.7691-54.1704 35.4942-53.6377C35.167-53.0562 35.3067-52.4233 35.8941-52.0303C38.1607-50.5586 40.5909-50.102 43.2935-50.102ZM43.2901-41.4316C51.8878-41.4316 57.2974-49.1523 65.4713-49.1523C67.9273-49.1523 69.7271-48.5766 71.7916-47.4468C72.4879-47.0674 73.0831-47.2934 73.358-47.7705C73.5978-48.2192 73.5035-48.9463 72.8707-49.3394C70.5099-50.6714 68.1773-51.2676 65.4713-51.2676C56.1471-51.2676 50.961-43.5889 43.2901-43.5889C40.8829-43.5889 38.9923-44.168 37.0152-45.2979C36.4132-45.6318 35.7691-45.4966 35.4942-44.9673C35.167-44.3857 35.3067-43.7495 35.8907-43.3598C38.1573-41.8882 40.5875-41.4316 43.2901-41.4316Z"/>
</svg>