<svg xmlns="http://www.w3.org/2000/svg" viewBox="7.8125 -66.0952 59.54 61.78">
  <path d="M67.356-63.3784C67.356-65.0049 66.1929-66.0918 64.1655-66.0918L11.0484-66.0952C8.97901-66.0952 7.8125-65.0083 7.8125-63.3818C7.8125-62.5356 8.13623-61.9858 8.65186-60.9091L34.7163-6.60256C35.4331-5.1167 36.3179-4.31494 37.6069-4.31494C38.8506-4.31494 39.7354-5.1167 40.4522-6.60256L66.562-60.9091C67.0322-61.9824 67.356-62.5322 67.356-63.3784ZM64.997-63.0815C64.997-62.708 64.812-62.3833 64.6269-62.0132L38.8047-7.9434C38.5742-7.48247 38.1621-6.93071 37.6069-6.93071C37.0098-6.93071 36.5943-7.48247 36.3638-7.9434L10.5415-62.0166C10.3565-62.3867 10.1714-62.7114 10.1714-63.0849C10.1714-63.5493 10.4961-63.874 11.3272-63.874L63.8867-63.8706C64.6269-63.8706 64.997-63.5459 64.997-63.0815Z"/>
</svg>