<svg xmlns="http://www.w3.org/2000/svg" viewBox="9.76562 -68.0508 55.32 65.64">
  <path d="M65.0899-3.50246C65.0899-4.11721 64.6172-4.64213 64.0059-4.64213L10.9019-4.64213C10.2417-4.64213 9.76562-4.11721 9.76562-3.50246C9.76562-2.8877 10.2417-2.40819 10.9019-2.40819L64.0059-2.40819C64.6172-2.40819 65.0899-2.8877 65.0899-3.50246ZM10.8496-33.1715C10.2417-33.1715 9.76562-32.6885 9.76562-32.0386C9.76562-31.6944 9.88379-31.4932 10.1235-31.25L36.6323-4.87065C36.8721-4.67289 37.1255-4.54789 37.4277-4.54789C37.7754-4.54789 37.9834-4.67289 38.2232-4.87065L64.7774-31.25C65.0171-31.4932 65.0899-31.6944 65.0899-32.0386C65.0899-32.6885 64.6138-33.1715 64.0513-33.1715C63.707-33.1715 63.3174-33.0079 63.2241-32.8692L46.6148-16.2736L37.4277-6.87948L28.2407-16.2736L11.6768-32.8692C11.5381-33.0079 11.1485-33.1715 10.8496-33.1715ZM38.3936-6.92586L38.522-16.0372L38.522-67.0054C38.522-67.5747 38.0425-68.0508 37.4277-68.0508C36.813-68.0508 36.3789-67.5747 36.3789-67.0054L36.3789-16.0372L36.4619-6.92586C36.4687-6.42926 36.9346-6.00201 37.4277-6.00201C37.9663-6.00201 38.3868-6.42926 38.3936-6.92586Z" />
</svg>