<svg xmlns="http://www.w3.org/2000/svg" viewBox="9.76562 -62.8238 137.59 55.09">
  <path d="M9.76562-35.2539C9.76562-34.1035 10.2642-33.1836 11.6631-31.8823L36.4185-8.95505C37.2818-8.14742 38.0303-7.72945 38.8936-7.72945C40.2725-7.72945 41.1495-8.73923 41.1495-10.2475L41.1495-23.6001L68.0557-23.6001C71.7457-23.6001 74.1295-25.8965 74.1295-29.4399L74.1295-40.8022C74.1295-44.3457 71.7491-46.6319 68.0557-46.6319L41.1495-46.6319L41.1495-60.2886C41.1495-61.8072 40.2691-62.8238 38.8902-62.8238C38.0337-62.8238 37.3091-62.4161 36.4185-61.5811L11.6631-38.6289C9.9917-37.0518 9.76562-36.1318 9.76562-35.2539ZM13.1055-33.5327C11.7544-34.835 11.7999-35.7183 13.1055-36.9751L38.0313-60.1103C38.3208-60.3965 38.9282-60.3408 38.9282-59.8276L38.9282-45.4385C38.9282-44.7275 39.1997-44.4595 39.9527-44.4595L68.0386-44.4595C70.3902-44.4595 71.9117-42.938 71.9117-40.6704L71.9117-29.5127C71.9117-27.2905 70.3902-25.7759 68.0386-25.7759L39.9527-25.7759C39.1997-25.7759 38.9282-25.5078 38.9282-24.7446L38.9282-10.7495C38.9282-10.2295 38.3208-10.1773 38.0313-10.4668ZM147.351-35.2539C147.351-36.1318 147.125-37.0518 145.408-38.6289L120.698-61.5811C119.762-62.4161 119.083-62.8238 118.177-62.8238C116.847-62.8238 115.921-61.8072 115.921-60.2886L115.921-46.6319L89.0607-46.6319C85.3673-46.6319 82.9835-44.3457 82.9835-40.8022L82.9835-29.4399C82.9835-25.8965 85.3707-23.6001 89.0607-23.6001L115.921-23.6001L115.921-10.2475C115.921-8.73923 116.844-7.72945 118.174-7.72945C119.086-7.72945 119.789-8.14742 120.698-8.95505L145.408-31.8823C146.852-33.1836 147.351-34.1035 147.351-35.2539ZM89.0778-25.7759C86.6808-25.7759 85.1593-27.2905 85.1593-29.5127L85.1593-40.6704C85.1593-42.938 86.6808-44.4595 89.0778-44.4595L117.118-44.4595C117.871-44.4595 118.143-44.7275 118.143-45.4385L118.143-59.8276C118.143-60.3408 118.747-60.3965 119.036-60.1103L143.965-36.9751C145.313-35.7183 145.359-34.835 143.965-33.5327L119.036-10.4668C118.747-10.1773 118.143-10.2295 118.143-10.7495L118.143-24.7446C118.143-25.5078 117.871-25.7759 117.118-25.7759Z"/>
</svg>