<svg xmlns="http://www.w3.org/2000/svg" viewBox="9.76562 -69.875 84.93 69.2">
  <path d="M74.7393-3.08938L74.8951-12.3926L74.8951-68.6138C74.8951-69.1831 74.4156-69.75 73.7554-69.75C73.0952-69.75 72.6157-69.1831 72.6157-68.6138L72.6157-12.3926L72.7749-3.08938C72.7886-2.49513 73.2056-2.10547 73.7588-2.10547C74.3155-2.10547 74.7325-2.49513 74.7393-3.08938ZM54.9605-22.332C54.5914-22.7012 54.2608-22.8194 53.9551-22.8194C53.3404-22.8194 52.8189-22.3013 52.8189-21.6831C52.8189-21.2095 52.9893-20.9912 53.313-20.664L72.9111-1.16112C73.3452-0.723606 74.1167-0.674778 74.5962-1.16112L94.1978-20.664C94.5215-20.9912 94.6919-21.2095 94.6919-21.6831C94.6919-22.3013 94.1705-22.8194 93.5557-22.8194C93.25-22.8194 92.9195-22.7012 92.5503-22.332L82.5787-12.3399L73.7554-3.33449L64.9322-12.3399ZM31.6895-67.4604C31.6792-68.0547 31.2168-68.4443 30.7056-68.4443C30.1524-68.4443 29.7354-68.0547 29.7217-67.4604L29.5625-58.1572L29.5625-1.93603C29.5625-1.36668 30.042-0.799781 30.7022-0.799781C31.3623-0.799781 31.7964-1.36668 31.7964-1.93603L31.7964-58.1572ZM11.9073-48.2178L21.8789-58.2099L30.7022-67.2153L39.5254-58.2099L49.4971-48.2178C49.8662-47.8486 50.1514-47.7304 50.5025-47.7304C51.1172-47.7304 51.6387-48.2485 51.6387-48.8667C51.6387-49.3438 51.4683-49.5586 51.1446-49.8858L31.5464-69.3887C31.0181-69.875 30.292-69.8262 29.8613-69.3887L10.2598-49.8858C9.93604-49.5586 9.76562-49.3438 9.76562-48.8667C9.76562-48.2485 10.2417-47.7304 10.9019-47.7304C11.2075-47.7304 11.5381-47.8486 11.9073-48.2178Z" />
</svg>