<svg xmlns="http://www.w3.org/2000/svg" viewBox="9.76562 -63.3892 130.78 66.75">
  <path d="M13.4854-7.64112L30.0991-7.64112C41.9961-7.64112 49.2329-13.5244 49.2329-23.0845C49.2329-30.5552 43.8618-35.8389 36.1436-36.6348L36.1436-36.8857C42.0894-37.8975 46.4317-43.0391 46.4317-49.0937C46.4317-57.373 39.8467-62.7759 29.9185-62.7759L13.4854-62.7759C11.1729-62.7759 9.76562-61.3232 9.76562-58.955L9.76562-11.4619C9.76562-9.09376 11.1729-7.64112 13.4854-7.64112ZM17.3594-13.9317L17.3594-33.0972L27.958-33.0972C36.7055-33.0972 41.4472-29.7021 41.4472-23.5195C41.4472-17.3755 36.894-13.9317 28.562-13.9317ZM17.3594-38.9526L17.3594-56.4751L28.0771-56.4751C34.832-56.4751 38.855-53.3594 38.855-48.0454C38.855-42.3057 34.3574-38.9526 26.5659-38.9526ZM55.1988-7.68653L80.2666-7.68653C80.8643-7.68653 81.3301-8.09327 81.3301-8.73635C81.3301-9.37259 80.8677-9.77933 80.2701-9.77933L68.8599-9.77933L79.7481-60.7285L91.1548-60.7285C91.7525-60.7285 92.2183-61.1806 92.2183-61.7783C92.2183-62.46 91.7559-62.8213 91.1582-62.8213L66.0869-62.8213C65.4893-62.8213 65.0269-62.46 65.0269-61.7783C65.0269-61.1806 65.4893-60.7285 66.0904-60.7285L77.4971-60.7285L66.6089-9.77933L55.1954-9.77933C54.5977-9.77933 54.1807-9.37259 54.1807-8.73635C54.1807-8.09327 54.6011-7.68653 55.1988-7.68653ZM121.265-6.70996C133.062-6.70996 140.549-14.2148 140.549-26.0947L140.549-62.1938C140.549-62.9131 140.069-63.3892 139.396-63.3892C138.722-63.3892 138.298-62.9131 138.298-62.1938L138.298-26.188C138.298-15.4966 131.663-8.7769 121.265-8.7769C110.801-8.7769 104.235-15.4966 104.235-26.188L104.235-62.1938C104.235-62.9131 103.755-63.3892 103.085-63.3892C102.411-63.3892 101.984-62.9131 101.984-62.1938L101.984-26.0947C101.984-14.2148 109.422-6.70996 121.265-6.70996ZM103.112 3.35939L139.46 3.35939C140.149 3.35939 140.549 2.92091 140.549 2.36426C140.549 1.7622 140.149 1.36913 139.46 1.36913L103.112 1.36913C102.384 1.36913 101.984 1.7622 101.984 2.36426C101.984 2.92091 102.384 3.35939 103.112 3.35939Z" />
</svg>