<svg xmlns="http://www.w3.org/2000/svg" viewBox="12.4858 -75.9097 47.96 80.73">
  <path d="M25.7754 3.42434L59.8247-39.8696C60.2359-40.3433 60.4449-40.7192 60.4449-41.1929C60.4449-41.543 60.2163-41.9951 59.4995-41.9951L37.3306-41.9951L49.249-73.3843C49.9136-75.1485 48.2617-75.9097 47.1099-74.5181L13.1059-31.2241C12.6948-30.7505 12.4858-30.3745 12.4858-29.9009C12.4858-29.5508 12.6724-29.0986 13.4312-29.0986L35.5547-29.0986L23.6816 2.29053C22.9751 4.05471 24.669 4.81596 25.7754 3.42434ZM27.0816-0.931188L38.669-31.2788L16.0181-31.2788L46.249-69.9331L45.8457-70.1626L34.2617-39.8149L56.8638-39.8149L26.6783-1.16068Z"/>
</svg>