<svg xmlns="http://www.w3.org/2000/svg" viewBox="9.76562 -68.8482 67.19 67.2">
  <path d="M19.7647-1.65282L66.9585-1.65282C73.4917-1.65282 76.9576-5.20946 76.9576-11.6416L76.9576-58.8594C76.9576-65.2915 73.4917-68.8482 66.9585-68.8482L19.7647-68.8482C13.2349-68.8482 9.76562-65.3823 9.76562-58.8594L9.76562-11.6416C9.76562-5.11864 13.2349-1.65282 19.7647-1.65282ZM26.8613-19.126C26.1445-19.126 25.73-19.5259 25.73-20.2642L25.73-50.4731C25.73-51.1309 26.2002-51.6045 26.8545-51.6045L33.2988-51.6045C38.7949-51.6045 42.1109-48.0605 42.1109-42.5405C42.1109-38.522 40.2407-34.9644 36.4561-33.8979L42.1084-20.9673C42.2163-20.7412 42.3731-20.4278 42.3731-20.1109C42.3731-19.5576 41.896-19.126 41.252-19.126C40.8384-19.126 40.4727-19.2647 40.208-19.8042L34.3467-33.3232L27.9439-33.3232L27.9439-20.2642C27.9439-19.5191 27.5156-19.126 26.8613-19.126ZM27.9439-35.2383L33.1773-35.2383C37.6499-35.2383 39.9424-38.2598 39.9424-42.4883C39.9424-46.7622 37.6294-49.6372 33.1284-49.6372L27.9439-49.6372ZM54.8096-15.4175C54.353-15.4175 54.0498-15.7207 54.0498-16.1773L54.0498-20.0117C49.8291-20.3047 46.8755-22.7925 46.2974-27.6865C46.2451-28.1191 46.2383-28.3872 46.2383-28.5894C46.2383-29.3242 46.7153-29.6514 47.3106-29.6514C47.6582-29.6514 48.2681-29.4707 48.3306-28.6621C48.6792-24.9038 50.2632-22.2266 54.0498-21.8848L54.0498-35.0674L53.2207-35.4331C49.1963-37.4385 46.8037-39.9014 46.8037-43.835C46.8037-48.292 49.9912-50.813 54.0498-51.1128L54.0498-54.4966C54.0498-54.9531 54.353-55.2563 54.8096-55.2563C55.2661-55.2563 55.5728-54.9531 55.5728-54.4966L55.5728-51.0674C59.3223-50.8198 62.2168-48.5171 62.6099-43.8569C62.6621-43.4277 62.669-43.1108 62.669-42.9507C62.669-42.3135 62.2862-41.8501 61.6489-41.8501C61.0991-41.8501 60.688-42.2329 60.6709-42.8359C60.4165-46.3262 58.9893-48.8491 55.5728-49.1977L55.5728-36.6192L56.6846-36.0684C60.4126-34.3491 63.1641-31.9976 63.1641-27.5825C63.1641-23.4683 60.3784-20.2627 55.5728-19.9663L55.5728-16.1773C55.5728-15.7207 55.2661-15.4175 54.8096-15.4175ZM48.8609-43.9463C48.8609-40.6729 51.1431-38.771 54.0498-37.3369L54.0498-49.2012C51.1851-48.9956 48.8609-47.272 48.8609-43.9463ZM55.5728-21.836C58.7407-22.0801 61.1035-24.0274 61.1035-27.4575C61.1035-30.9331 58.7588-32.7373 55.5728-34.311Z"/>
</svg>