<svg xmlns="http://www.w3.org/2000/svg" viewBox="9.76562 -71.0239 89.61 69.46">
  <path d="M85.0371-45.0781C82.6695-45.0781 80.7481-47.0029 80.7481-49.3672C80.7481-51.6894 82.6695-53.6143 85.0371-53.6143C87.3594-53.6143 89.2808-51.6894 89.2808-49.3672C89.2808-47.0029 87.3594-45.0781 85.0371-45.0781ZM19.7647-1.562L89.4209-1.562C95.9507-1.562 99.3746-5.11864 99.3746-11.5508L99.3746-51.9463C99.3746-58.3784 95.9507-61.9317 89.4209-61.9317L77.7217-61.9317C74.5161-61.9317 73.77-62.0738 71.7012-64.3799L68.314-68.1577C66.2281-70.4356 64.7676-71.0239 61.1724-71.0239L46.8745-71.0239C43.2759-71.0239 41.8154-70.4356 39.7329-68.1577L36.3423-64.3799C34.3677-62.1646 33.482-61.9317 30.3252-61.9317L19.7647-61.9317C13.2349-61.9317 9.76562-58.3784 9.76562-51.9463L9.76562-11.5508C9.76562-5.11864 13.2349-1.562 19.7647-1.562ZM54.5928-11.0103C42.8423-11.0103 33.3379-20.4658 33.3379-32.3105C33.3379-44.1587 42.8423-53.6143 54.5928-53.6143C66.4341-53.6143 75.8443-44.1587 75.8443-32.3105C75.8443-20.4658 66.3433-11.0103 54.5928-11.0103ZM54.5928-13.3335C65.0425-13.3335 73.479-21.812 73.479-32.3105C73.479-42.8091 65.0425-51.291 54.5928-51.291C44.0977-51.291 35.7032-42.8091 35.7032-32.3105C35.7032-21.812 44.1011-13.3335 54.5928-13.3335Z"/>
</svg>