<svg xmlns="http://www.w3.org/2000/svg" viewBox="9.76562 -68.2954 86.19 67.37">
  <path d="M23.437-46.7803C24.6304-52.3213 26.353-56.9409 27.5772-59.0474C28.7808-61.1231 30.5293-62.6206 33.6563-63.001C36.7153-63.3916 43.6147-63.5483 52.8838-63.5483C62.1075-63.5483 69.0069-63.3984 72.1114-63.001C75.1895-62.6172 76.98-61.1231 78.1905-59.0474C79.418-56.9444 81.0816-52.3213 82.3306-46.7803C82.5396-45.8569 82.2193-45.0054 80.8418-45.103C74.0015-45.5845 66.9258-45.8423 52.8838-45.8423C38.8418-45.8423 31.7627-45.5845 24.9258-45.103C23.5484-45.0054 23.2315-45.8569 23.437-46.7803ZM25.2959-21.2832C22.4966-21.2832 20.4854-23.3398 20.4854-26.1392C20.4854-28.8931 22.4966-30.9497 25.2959-30.9497C28.0498-30.9497 30.1065-28.8931 30.1065-26.1392C30.1065-23.3398 28.0498-21.2832 25.2959-21.2832ZM43.5347-21.8115C41.5269-21.8115 40.1675-23.1289 40.1675-25.1821C40.1675-27.2354 41.5269-28.5948 43.5347-28.5948L62.1875-28.5948C64.2408-28.5948 65.6001-27.2354 65.6001-25.1821C65.6001-23.1289 64.2408-21.8115 62.1875-21.8115ZM80.4717-21.2832C77.6724-21.2832 75.6611-23.3398 75.6611-26.1392C75.6611-28.8931 77.6724-30.9497 80.4717-30.9497C83.2256-30.9497 85.2823-28.8931 85.2823-26.1392C85.2823-23.3398 83.2256-21.2832 80.4717-21.2832ZM52.8838-10.7114C64.9673-10.7114 81.9663-11.3462 89.1509-12.1763C93.3868-12.6714 95.9566-14.7451 95.9566-19.0933L95.9566-25.8316C95.9566-32.7695 94.2364-35.8901 91.4336-39.6309L88.0328-44.0537C86.6621-50.9385 84.1231-58.2105 82.8047-60.9971C80.7994-65.2486 76.9317-67.211 72.7935-67.7583C70.1602-68.1001 61.3633-68.2954 52.8838-68.2954C44.4043-68.2954 35.5586-68.0967 32.9287-67.7583C28.8359-67.2144 24.9683-65.2486 22.9629-60.9971C21.6445-58.2105 19.1055-50.9385 17.7349-44.0537L14.334-39.6309C11.4858-35.8901 9.76562-32.7695 9.76562-25.8316L9.76562-19.0933C9.76562-14.7451 12.3809-12.6714 16.5713-12.1763C23.7559-11.3462 40.7549-10.7114 52.8838-10.7114ZM14.4839-0.926259L18.7105-0.926259C21.3223-0.926259 23.3867-2.9873 23.3867-5.5957L23.3867-14.4917L9.76562-21.0269L9.76562-5.5957C9.76562-2.9873 11.8301-0.926259 14.4839-0.926259ZM87.0572-0.926259L91.2803-0.926259C93.9375-0.926259 95.9566-2.9873 95.9566-5.5957L95.9566-21.0269L82.3355-14.4917L82.3355-5.5957C82.3355-2.9873 84.3999-0.926259 87.0572-0.926259Z"/>
</svg>