<svg xmlns="http://www.w3.org/2000/svg" viewBox="9.76562 -84.5855 85.14 98.66">
  <path d="M76.8706-28.2451C86.5528-28.2451 91.9873-30.9238 91.9873-36.6211L91.9873-75.0908C91.9873-81.165 86.499-84.5855 76.8706-84.5855C67.2422-84.5855 61.6177-81.165 61.6177-75.0908L61.6177-36.6211C61.6177-30.9238 67.1465-28.2451 76.8706-28.2451ZM76.8706-30.3887C68.2871-30.3887 63.7158-32.2837 63.7158-36.6348L63.7158-75.0908C63.7158-79.7974 68.3555-82.5293 76.8706-82.5293C85.4312-82.5293 89.8857-79.7974 89.8857-75.0908L89.8857-36.6348C89.8857-32.2837 85.4541-30.3887 76.8706-30.3887ZM76.8252-60.6924C79.4209-60.6924 82.9546-60.4517 84.1231-60.4517C86.0659-60.4517 86.9868-61.2295 87.1787-63.3608L87.4751-66.9277C87.7715-70.3457 86.2349-72.1567 76.8252-72.1567C67.4156-72.1567 65.9278-70.3457 66.2207-66.9277L66.5205-63.3608C66.7124-61.2295 67.6753-60.4517 69.5728-60.4517C70.7378-60.4517 74.8652-60.6924 76.8252-60.6924ZM76.8252-35.3477C85.0713-35.3477 87.6035-36.5196 87.2446-40.0352L87.0425-42.0825C86.7358-45.0508 84.3569-46.0205 76.8252-46.0205C69.3843-46.0205 66.8692-45.0508 66.6568-42.0825L66.4966-40.0352C66.2285-36.4741 68.6665-35.3477 76.8252-35.3477ZM90.4722-63.9223L92.9844-63.9223C94.1836-63.9223 94.9082-64.5561 94.9082-65.5249L94.9082-66.8262C94.9082-67.7949 94.1836-68.5649 92.9844-68.5649L90.4722-68.5649ZM63.1328-63.9223L63.1328-68.5649L60.6626-68.5649C59.5122-68.5649 58.7422-67.8403 58.7422-66.8262L58.7422-65.5249C58.7422-64.5561 59.5122-63.9223 60.6626-63.9223ZM55.5425-25.4809C58.084-22.9428 61.4273-21.5166 64.9097-21.5166C65.6094-21.5166 66.0933-22.0459 66.0025-22.6025C66.0025-23.3306 65.5254-23.6782 64.7007-23.6567C62.0493-23.6773 59.415-24.7026 57.0669-27.002C54.771-29.3047 53.7456-31.9424 53.7183-34.6631C53.6943-35.3799 53.416-35.9795 52.7095-35.9341C52.1074-36.0249 51.5679-35.5342 51.5395-34.8139C51.5737-31.2915 53.0454-27.978 55.5425-25.4809ZM48.6201-18.5552C52.9409-14.1435 58.7935-11.8042 64.998-11.8042C65.8022-11.8042 66.1113-12.2881 66.1113-12.9004C66.1113-13.3662 65.7568-13.8853 64.9424-13.8989C59.3921-13.9229 54.2539-16.0156 50.0957-20.0342C46.0772-24.1016 43.9424-29.3271 43.9151-34.8808C43.9014-35.709 43.48-36.0884 42.9482-36.0884C42.3599-36.0884 41.8623-35.6567 41.8725-34.9365C41.9033-28.6831 44.2993-22.8305 48.6201-18.5552ZM43.0528 14.0776L43.0528-7.37985C43.0528-13.4507 37.5225-16.8711 27.9429-16.8711C18.2691-16.8711 12.6411-13.4507 12.6411-7.37985L12.6411 14.0776L14.7881 14.0776L14.7881-7.37985C14.7881-12.0898 19.3789-14.8183 27.9429-14.8183C36.4546-14.8183 40.9092-12.0898 40.9092-7.37985L40.9092 14.0776ZM27.8975 7.01858C30.4444 7.01858 33.9815 7.25589 35.1465 7.25589C37.086 7.25589 38.0068 6.47806 38.1987 4.35013L38.4951 0.734401C38.7847-2.68015 37.3037-4.44919 27.8975-4.44919C18.4844-4.44919 16.9512-2.68015 17.2442 0.734401L17.544 4.35013C17.7359 6.47806 18.6988 7.25589 20.5962 7.25589C21.7647 7.25589 25.9375 7.01858 27.8975 7.01858ZM41.5342 3.7852L44.0464 3.7852C45.2491 3.7852 45.9248 3.15141 45.9248 2.18607L45.9248 0.839397C45.9248-0.0907838 45.2491-0.853971 44.0464-0.853971L41.5342-0.853971ZM14.2051 3.7852L14.2051-0.853971L11.7349-0.853971C10.5811-0.853971 9.76562-0.136194 9.76562 0.839397L9.76562 2.18607C9.76562 3.15141 10.5811 3.7852 11.7349 3.7852Z"/>
</svg>