<svg xmlns="http://www.w3.org/2000/svg" viewBox="9.76562 -63.5728 129.53 56.64">
  <path d="M10.854-60.3857L23.7285-60.3857C25.7734-60.3857 26.6729-59.9985 27.688-58.9834L40.6787-45.9473L42.8633-47.1299L29.5386-60.4512C28.1485-61.9356 26.5606-62.5523 23.6738-62.5523L10.854-62.5523C10.2598-62.5523 9.76562-62.0547 9.76562-61.4707C9.76562-60.8379 10.2598-60.3857 10.854-60.3857ZM19.7783-14.9179L25.0235-14.9179L25.0235-17.1392L19.7783-17.1392C14.5552-17.1392 11.9834-19.8643 11.9834-25.394L11.9834-30.8364C11.9834-37.1294 16.7207-41.6465 24.272-42.5708L39.9605-44.4717C42.479-44.7646 43.1924-45.1235 44.5801-45.9673L58.4746-54.7246C66.8765-59.998 73.4112-61.4004 87.106-61.4004L91.6622-61.4004C103.105-61.4004 111.329-57.602 121.465-48.7324C122.821-47.5298 123.35-47.3594 124.527-46.9868L129.562-45.3994C134.983-43.6724 137.076-41.1572 137.076-35.9897L137.076-25.394C137.076-19.8643 134.504-17.1392 129.281-17.1392L123.806-17.1392L123.806-14.9179L129.281-14.9179C135.982-14.9179 139.294-18.3872 139.294-25.394L139.294-35.9897C139.294-42.1333 136.589-45.3711 129.988-47.6729L123.797-49.8076C114.024-57.8843 105.749-63.5728 91.6622-63.5728L87.106-63.5728C72.8682-63.5728 65.8711-62.0557 57.2124-56.6436L41.7339-46.9268L23.9834-44.7398C15.2222-43.645 9.76562-38.353 9.76562-30.8364L9.76562-25.3735C9.76562-18.3804 13.085-14.9179 19.7783-14.9179ZM45.6299-14.9179L103.604-14.9179L103.604-17.1392L45.6299-17.1392ZM35.2979-6.93503C41.7095-6.93503 46.6846-11.9067 46.6846-18.2764C46.6846-24.6426 41.7095-29.6597 35.2979-29.6597C28.9317-29.6597 23.9565-24.6426 23.9565-18.2764C23.9565-11.9067 28.9317-6.93503 35.2979-6.93503ZM35.2979-9.07667C30.1905-9.07667 26.1436-13.1655 26.1436-18.2764C26.1436-23.4292 30.1905-27.4761 35.2979-27.4761C40.4507-27.4761 44.4976-23.4292 44.4976-18.2764C44.4976-13.1655 40.4507-9.07667 35.2979-9.07667ZM113.762-6.93503C120.128-6.93503 125.103-11.9067 125.103-18.2764C125.103-24.6426 120.128-29.6597 113.762-29.6597C107.35-29.6597 102.375-24.6426 102.375-18.2764C102.375-11.9067 107.35-6.93503 113.762-6.93503ZM113.762-9.07667C108.609-9.07667 104.562-13.1655 104.562-18.2764C104.562-23.4292 108.609-27.4761 113.762-27.4761C118.869-27.4761 122.916-23.4292 122.916-18.2764C122.916-13.1655 118.869-9.07667 113.762-9.07667Z"/>
</svg>