<svg xmlns="http://www.w3.org/2000/svg" viewBox="2.52539 -73.0903 80.74 75.58">
  <path d="M82.6748-52.8311C83.0533-52.8311 83.2681-53.0459 83.2681-53.4243L83.2681-72.4517C83.2681-72.8301 83.0533-73.0449 82.6748-73.0449L81.6514-73.0449C81.3218-73.0449 81.0615-72.8301 81.0615-72.4517L81.0615-53.4243C81.0615-53.0459 81.3218-52.8311 81.6514-52.8311ZM82.6748-25.4473C83.0533-25.4473 83.2681-25.7075 83.2681-26.0371L83.2681-45.1064C83.2681-45.4394 83.0533-45.6997 82.6748-45.6997L81.6514-45.6997C81.3218-45.6997 81.0615-45.4394 81.0615-45.1064L81.0615-26.0371C81.0615-25.7075 81.3218-25.4473 81.6514-25.4473ZM82.6748 1.89796C83.0533 1.89796 83.2681 1.68311 83.2681 1.30469L83.2681-17.768C83.2681-18.1011 83.0533-18.3613 82.6748-18.3613L81.6514-18.3613C81.3218-18.3613 81.0615-18.1011 81.0615-17.768L81.0615 1.30469C81.0615 1.68311 81.3218 1.89796 81.6514 1.89796ZM11.9268-61.7207L11.9268-72.4971C11.9268-72.8755 11.7119-73.0903 11.3335-73.0903L10.3135-73.0903C9.98048-73.0903 9.72022-72.8755 9.72022-72.4971L9.72022-60.2007ZM11.3335 1.85255C11.7119 1.85255 11.9268 1.6377 11.9268 1.25928L11.9268-17.8135C11.9268-18.1465 11.7119-18.4067 11.3335-18.4067L10.3135-18.4067C9.98048-18.4067 9.72022-18.1465 9.72022-17.8135L9.72022 1.25928C9.72022 1.6377 9.98048 1.85255 10.3135 1.85255ZM53.0508-4.23682C63.6899-10.395 68.0298-16.7788 64.438-22.9336L39.7065-65.7969C35.9229-72.3774 27.6719-72.6318 17.083-66.5317C6.44531-60.3862 2.52539-53.1084 6.30908-46.5766L31.0405-3.70997C34.6323 2.49023 42.3139 1.9668 53.0508-4.23682ZM51.9692-6.10452C42.3345-0.540563 35.7627 0.185022 32.8628-4.75979L8.14163-47.6094C5.03617-53.0039 8.54935-59.1274 18.1226-64.7026C27.6855-70.1835 34.6811-70.1064 37.7832-64.7153L62.5078-21.8657C65.4042-16.9209 61.5166-11.6299 51.9692-6.10452ZM32.1299-40.3476C34.998-41.9736 39.0903-43.9936 40.395-44.7681C42.4287-45.9331 42.9033-47.29 41.8428-49.603L39.8794-53.8262C38.0796-57.6699 35.4052-58.6098 25.0352-52.6362C14.7105-46.6592 14.1333-43.8862 16.5645-40.3877L19.2183-36.5552C20.666-34.4341 22.1172-34.2354 24.1963-35.3936C25.4976-36.1226 29.9429-39.0361 32.1299-40.3476ZM48.4843-12.0274C57.4604-17.2847 59.4941-20.1416 56.8994-23.689L55.3437-25.8135C53.2441-28.6738 50.143-28.2832 41.8359-23.5244C33.5708-18.7237 31.6348-16.2119 33.0791-12.9473L34.1816-10.5684C35.9678-6.57132 39.456-6.86087 48.4843-12.0274ZM45.4805-52.8706L48.0449-54.355C49.2442-55.0488 49.603-56.0552 49.0386-57.0239L48.1768-58.4648C47.6123-59.4336 46.5674-59.6982 45.3682-58.9975L42.8071-57.5097ZM14.5752-35.0146L11.8565-39.7026L9.34082-38.2217C8.13818-37.521 7.78612-36.476 8.34716-35.5039L9.20556-34.0176C9.7666-33.0488 10.8638-32.8715 12.0596-33.5722Z"/>
</svg>