<svg xmlns="http://www.w3.org/2000/svg" viewBox="7.90087 -86.8199 81.73 103.13">
  <path d="M32.8912 14.6299L32.8912-2.58933C32.8912-3.8784 31.7691-4.27147 30.8116-3.68651L17.0137 4.75051C15.9756 5.37746 15.9268 6.71194 17.0137 7.38089L30.7661 15.7237C31.7237 16.312 32.8912 15.9224 32.8912 14.6299ZM53.8369 14.6299C53.8369 15.9224 55.0498 16.312 55.962 15.7237L69.7144 7.38089C70.8013 6.71194 70.7525 5.37746 69.7144 4.75051L55.9166-3.68651C55.0044-4.27147 53.8369-3.8784 53.8369-2.58933ZM10.2222-25.334C12.875-14.312 17.1035-10.9961 23.7139-10.9961L64.253-10.9961C69.0225-10.9961 72.5587-13.894 73.7511-18.7612L87.9771-76.9326C89.6295-83.6397 86.0308-86.8199 81.6456-86.8199C75.9702-86.8199 70.3477-81.853 72.2944-71.728L72.6704-73.2026C62.8858-67.9311 57.1255-52.3023 58.7027-35.5498L59.3457-36.4087C51.1744-37.9644 41.545-38.791 31.7022-38.791C14.6397-38.791 7.90087-34.8379 10.2222-25.334ZM12.2832-25.876C10.3995-33.5029 15.9781-36.5732 31.7022-36.5732C41.7926-36.5732 51.607-35.6123 58.6363-34.292C60.0367-34.0615 60.876-34.8135 60.7852-36.2627C59.5557-51.2925 64.7027-66.1772 73.6285-71.2939C74.4224-71.7075 74.3589-72.1709 74.2339-73.064C73.3833-80.9126 77.4292-84.5986 81.5547-84.5986C84.6104-84.5986 87.064-82.2583 85.8672-77.3384L71.6377-19.377C70.6851-15.4859 67.9556-13.2139 64.253-13.2139L23.7139-13.2139C18.3931-13.2139 14.8008-15.6572 12.2832-25.876Z"/>
</svg>