<svg xmlns="http://www.w3.org/2000/svg" viewBox="8.51758 -73.1431 81.73 75.77">
  <path d="M50.3589-48.0918C50.3589-42.7422 54.9512-37.5254 60.0894-37.5254C63.9878-37.5254 66.3667-40.6734 67.6617-47.4287L69.2637-47.5332L69.2637-39.7935C69.2637-37.0215 70.6548-35.585 73.378-35.585C78.7208-35.585 83.8956-40.2158 83.8956-45.3155C83.8956-49.3047 80.793-51.5894 73.9922-52.8843L73.8877-54.5318L81.6241-54.5318C84.4903-54.5318 85.836-55.9229 85.836-58.646C85.836-63.9922 81.2471-69.1636 76.1509-69.1636C72.1583-69.1636 69.8282-66.0611 68.5787-59.2569L66.9312-59.1592L66.9312-66.8955C66.9312-69.7129 65.5435-71.1495 62.8658-71.1495C57.4742-71.1495 52.2539-66.5152 52.2539-61.4224C52.2539-57.4297 55.4507-55.1451 62.1641-53.8501L62.2164-52.1573L54.5674-52.1573C51.7535-52.1573 50.3589-50.8081 50.3589-48.0918ZM68.0748-49.4468C65.9297-49.4468 64.1753-51.2012 64.1753-53.3462C64.1753-55.4912 65.9297-57.2456 68.0748-57.2456C70.2198-57.2456 71.9742-55.4912 71.9742-53.3462C71.9742-51.2012 70.2198-49.4468 68.0748-49.4468ZM87.9703-11.6606C90.2462-21.1646 83.5074-25.1631 66.4449-25.1631C56.6021-25.1631 46.9727-24.3364 38.8013-22.7774L39.4444-21.8731C41.0669-38.6709 35.2613-54.2998 25.4766-59.5293L25.8526-58.1001C27.7994-68.2217 22.1768-73.1431 16.5015-73.1431C12.1162-73.1431 8.51758-70.0083 10.1699-63.3047L24.396-5.12987C25.5884-0.22068 29.1245 2.63186 33.8941 2.63186L74.4332 2.63186C81.0889 2.63186 85.272-0.638652 87.9703-11.6606ZM85.8638-12.2446C83.3462-2.0293 79.754 0.459459 74.4332 0.459459L33.8941 0.459459C30.1914 0.459459 27.462-1.8545 26.5093-5.70361L12.2798-63.707C11.083-68.6304 13.5367-70.9707 16.5923-70.9707C20.7178-70.9707 24.7637-67.2812 23.9131-59.4326C23.7881-58.5429 23.7246-58.0761 24.5186-57.6172C33.4444-52.5459 38.5913-37.6157 37.3618-22.6348C37.271-21.1401 38.1104-20.4336 39.5108-20.6606C46.54-21.9389 56.3545-22.9419 66.4449-22.9419C82.169-22.9419 87.7476-19.875 85.8638-12.2446Z"/>
</svg>