<svg xmlns="http://www.w3.org/2000/svg" viewBox="6.83594 -71.8823 87.67 73.12">
  <path d="M6.83594-28.0317C6.83594-17.2417 10.8013-7.29198 17.3159 0.359392C18.0518 1.24172 19.2759 1.19631 20.1548 0.36281L27.8985-7.33545C28.666-8.0996 28.6694-9.1079 27.9961-9.96972C23.9785-14.8901 21.6348-21.1924 21.6348-28.0317C21.6348-42.9902 32.9209-55.312 47.3911-56.9404C48.4619-57.0381 49.1944-57.8647 49.1944-58.8901L49.1944-69.7373C49.1944-70.958 48.2666-71.8823 47.0459-71.7393C24.5835-69.9155 6.83594-51.0347 6.83594-28.0317ZM94.502-28.0317C94.502-51.0347 76.8033-69.9155 54.292-71.7393C53.0713-71.8823 52.1436-70.958 52.1436-69.7373L52.1436-58.8901C52.1436-57.8647 52.876-57.0381 53.9922-56.9404C68.417-55.312 79.7066-42.9902 79.7066-28.0317C79.7066-21.1924 77.3628-14.8901 73.3418-9.96972C72.6719-9.1079 72.6753-8.0996 73.4395-7.33545L81.2286 0.36281C82.1075 1.19631 83.377 1.19631 84.1582 0.268573C90.5855-7.3828 94.502-17.2871 94.502-28.0317ZM51.0283-11.6831C56.2066-11.6831 61.2075-14.1767 62.7032-19.0801C62.9019-19.666 63.045-20.1157 63.045-20.7051C63.045-21.3037 62.6201-21.7705 62.0249-21.7705C61.4331-21.7705 61.022-21.4048 60.9004-20.8164C59.959-16.3188 55.9824-13.7163 51.0283-13.7163C43.2705-13.7163 39.6006-20.0117 39.6006-27.7944C39.6006-35.4932 43.333-41.6875 51.0249-41.6875C56.0142-41.6875 60.0293-38.3516 60.7437-34.3115C60.8687-33.7231 61.1402-33.3608 61.8228-33.3608C62.46-33.3608 62.8882-33.8242 62.8882-34.5137C62.8882-34.8579 62.7803-35.3633 62.5747-35.9595C61.0586-40.7344 56.438-43.7207 51.0249-43.7207C42.0449-43.7207 37.3311-36.896 37.3311-27.7944C37.3311-18.7974 41.9268-11.6831 51.0283-11.6831ZM50.69-7.10692C51.1533-7.10692 51.4214-7.4204 51.4214-7.84179L51.4214-47.1987C51.4214-47.6621 51.1533-47.9336 50.69-47.9336C50.2232-47.9336 49.9097-47.6621 49.9097-47.1987L49.9097-7.84179C49.9097-7.42382 50.2232-7.10692 50.69-7.10692Z"/>
</svg>