<svg xmlns="http://www.w3.org/2000/svg" viewBox="9.76562 -65.6177 116.71 58.59">
  <path d="M23.4443-7.11865C30.7817-7.11865 37.2392-11.1904 39.2265-17.0654L39.2822-17.0654L39.2822-8.32179C39.2822-7.58106 39.748-7.11523 40.3491-7.11523C41.041-7.11523 41.5069-7.58106 41.5069-8.33547L41.5069-35.6196C41.5069-44.2803 36.0288-49.7842 26.8501-49.7842C18.9527-49.7842 13.6211-46.1665 11.7349-40.0259C11.4736-39.2764 11.2261-38.3486 11.2261-37.791C11.2261-37.1548 11.7339-36.748 12.3667-36.748C12.9131-36.748 13.3028-37.1001 13.4414-37.727C14.7793-43.914 19.4834-47.7539 26.791-47.7539C34.6699-47.7539 39.2617-42.8227 39.2617-35.4844L39.2617-31.6294L24.3608-30.5894C14.6895-29.874 9.76562-25.6509 9.76562-18.7456C9.76562-11.8687 15.4263-7.11865 23.4443-7.11865ZM23.6196-9.17728C16.9693-9.17728 12.0245-13.1729 12.0245-18.8921C12.0245-24.2412 16.187-27.8701 24.6983-28.5263L39.2617-29.664L39.2617-22.9731C39.2617-15.5278 32.147-9.17728 23.6196-9.17728ZM52.0254-7.11865C52.6299-7.11865 53.0538-7.53907 53.0538-8.33205L53.0538-19.9365L53.1094-19.9365C55.1558-12.0532 61.5269-7.02783 69.2198-7.02783C79.4976-7.02783 86.7422-15.8735 86.7422-28.4497C86.7422-40.9873 79.4942-49.7842 69.2266-49.7842C61.3658-49.7842 55.0752-44.668 53.1753-37.0152L53.0708-37.0152L53.0708-64.3906C53.0708-65.1484 52.647-65.6177 51.9483-65.6177C51.2495-65.6177 50.8711-65.1484 50.8711-64.3906L50.8711-8.33205C50.8711-7.53565 51.2881-7.11865 52.0254-7.11865ZM68.9639-9.06498C59.6758-9.06498 53.2945-17.0098 53.2945-28.3589C53.2945-39.708 59.7212-47.747 68.9639-47.747C78.227-47.747 84.438-39.9453 84.438-28.4497C84.438-16.9053 78.1816-9.06498 68.9639-9.06498ZM110.277-7.02783C117.891-7.02783 124.249-11.269 126.268-18.1172C126.379-18.4375 126.477-18.9394 126.477-19.3437C126.477-19.8823 126.154-20.3379 125.483-20.3379C124.913-20.3379 124.673-19.9756 124.51-19.3882C122.596-12.7573 116.98-9.06498 110.277-9.06498C100.252-9.06498 94.2447-16.5 94.2447-28.4043C94.2447-40.3471 100.476-47.7505 110.054-47.7505C116.736-47.7505 122.407-44.0649 124.322-37.4204C124.481-36.8364 124.728-36.5195 125.291-36.5195C125.969-36.5195 126.289-36.9228 126.289-37.4683C126.289-37.8657 126.191-38.3154 126.132-38.5381C124.179-45.3408 117.678-49.7842 110.085-49.7842C98.8799-49.7842 91.9439-41.3369 91.9439-28.3101C91.9439-15.3218 99.0196-7.02783 110.277-7.02783Z"/>
</svg>