<svg xmlns="http://www.w3.org/2000/svg" viewBox="9.76562 -60.2451 76.32 49.99">
  <path d="M26.0713-10.2558C35.7935-10.2558 43.6602-15.9013 46.0293-24.8818L46.0147-24.8818C49.0171-15.2724 56.1992-10.2558 65.8579-10.2558C75.4565-10.2558 82.8125-14.7104 84.8999-22.9189C84.9692-23.1621 85.0772-23.6289 85.0772-23.9492C85.0772-24.5537 84.6567-25.0161 83.916-25.0161C83.3276-25.0161 82.9902-24.5732 82.8379-24.0825C81.0727-16.9063 74.4453-12.4351 65.7466-12.4351C54.209-12.4351 46.6729-21.3916 46.6729-35.1113L46.6729-35.376L83.9941-35.4214C85.3276-35.4214 86.083-36.0893 86.083-37.3423C86.083-51.1118 78.1318-60.2451 65.6978-60.2451C55.6953-60.2451 48.8267-54.2671 46.3623-46.4038L46.293-46.4038C45.9019-55.1616 38.9048-60.2451 29.5005-60.2451C20.0884-60.2451 13.8052-55.7168 11.8814-48.6905C11.6519-47.833 11.4043-46.7031 11.4043-46.041C11.4043-45.2969 11.7793-44.8765 12.4746-44.8765C13.0801-44.8765 13.4766-45.2842 13.6187-46.0156C15.3575-54.0976 21.0767-58.0625 29.5108-58.0625C38.6797-58.0625 44.3345-53.0537 44.3345-44.2051L44.2891-37.8604L26.6641-36.7647C15.5049-35.9971 9.76562-31.4502 9.76562-23.7124C9.76562-15.7588 16.3008-10.2558 26.0713-10.2558ZM26.0884-12.4283C17.7564-12.4283 12.1177-17.1631 12.1177-23.7192C12.1177-30.188 17.2149-33.8828 27.0855-34.5493L44.2891-35.6904L44.3345-29.0562C44.3345-19.7861 36.2544-12.3828 26.0884-12.4283ZM46.7183-37.5913C47.3042-49.8281 54.7359-58.0659 65.6499-58.0659C76.5537-58.0659 83.623-49.8418 83.6787-37.5913Z"/>
</svg>