<svg xmlns="http://www.w3.org/2000/svg" viewBox="14.6484 -72.605 42.06 74.74">
  <path d="M35.6797-21.0903C43.4502-21.0903 49.8013-27.4414 49.8013-35.2573C49.8013-43.0278 43.4502-49.3789 35.6797-49.3789C27.9092-49.3789 21.5581-43.0278 21.5581-35.2573C21.5581-27.4414 27.9092-21.0903 35.6797-21.0903ZM14.6484-6.96922C14.6484-0.966775 17.7261 2.13919 23.7525 2.13919L47.6036 2.13919C53.5845 2.13919 56.711-0.966775 56.711-6.96922L56.711-63.4966C56.711-69.499 53.5845-72.605 47.6036-72.605L23.7525-72.605C17.7261-72.605 14.6484-69.499 14.6484-63.4966ZM16.8662-7.05467L16.8662-63.4111C16.8662-68.2764 19.0327-70.3872 23.9082-70.3872L47.4478-70.3872C52.3267-70.3872 54.4898-68.2764 54.4898-63.4111L54.4898-7.05467C54.4898-2.18946 52.3267-0.0332117 47.4478-0.0332117L23.9082-0.0332117C19.0327-0.0332117 16.8662-2.18946 16.8662-7.05467Z"/>
</svg>