<svg xmlns="http://www.w3.org/2000/svg" viewBox="-0.825688 -72.4785 82.11 74.45">
  <path d="M0.984874-41.645C-0.320315-41.645-0.825688-40.7261 0.0625014-39.5176L8.02735-28.1177C8.71339-27.0761 9.67434-27.0761 10.357-28.1177L18.3218-39.4756C19.2066-40.7261 18.7012-41.645 17.3994-41.645ZM81.2886-35.2539C81.2886-55.8052 64.6118-72.4785 44.0606-72.4785C23.5127-72.4785 6.83936-55.8086 6.83594-35.2051C6.83936-34.52 7.36427-34.0859 7.95852-34.0859C8.51077-34.0859 9.0391-34.5234 9.0391-35.2085C9.0391-54.6099 24.7046-70.2334 44.0606-70.2334C63.4165-70.2334 79.04-54.6099 79.04-35.2539C79.04-15.898 63.4165-0.274438 44.0606-0.274438C31.1592-0.274438 19.8453-7.21095 13.8111-17.7309C13.4429-18.2661 12.7964-18.4399 12.2158-18.1797C11.7295-17.8774 11.5557-17.1548 11.9341-16.5219C18.3467-5.4531 30.3946 1.97072 44.0606 1.97072C64.6118 1.97072 81.2886-14.7026 81.2886-35.2539ZM48.7027-19.3481C49.5987-19.3481 50.8716-19.397 51.7676-19.5957C52.356-19.7104 52.833-19.9819 52.833-20.6157C52.833-21.2109 52.3628-21.5278 51.813-21.5278C51.2144-21.5278 50.3696-21.3359 48.7232-21.3359C39.8457-21.3359 34.9492-26.7817 34.9492-35.313C34.9492-43.8306 39.8672-49.248 48.7129-49.248C50.2129-49.248 51.252-49.0561 51.813-49.0561C52.3628-49.0561 52.833-49.4219 52.833-50.0171C52.833-50.6406 52.3765-50.877 51.7676-51.0371C50.8853-51.2324 49.6226-51.2847 48.7027-51.2847C39.0415-51.2847 32.6411-45.3721 32.6411-35.3164C32.6411-25.27 38.9697-19.3481 48.7027-19.3481ZM27.1055-38.4233C27.1055-38.0088 27.4678-37.6465 27.8369-37.6465L47.9102-37.6465C48.3247-37.6465 48.6416-38.0088 48.6416-38.4233C48.6416-38.8413 48.3247-39.1582 47.9102-39.1582L27.8369-39.1582C27.4678-39.1582 27.1055-38.8413 27.1055-38.4233ZM27.1055-32.1221C27.1055-31.7075 27.4678-31.3452 27.8369-31.3452L47.9102-31.3452C48.3247-31.3452 48.6416-31.7075 48.6416-32.1221C48.6416-32.54 48.3247-32.8989 47.9102-32.8989L27.8369-32.8989C27.4678-32.8989 27.1055-32.54 27.1055-32.1221Z" />
</svg>