<svg xmlns="http://www.w3.org/2000/svg" viewBox="6.83594 -72.4785 74.45 74.45">
  <path d="M44.0606 1.97072C64.6118 1.97072 81.2886-14.7026 81.2886-35.2539C81.2886-55.8052 64.6118-72.4785 44.0606-72.4785C23.5127-72.4785 6.83594-55.8052 6.83594-35.2539C6.83594-14.7026 23.5127 1.97072 44.0606 1.97072ZM44.0606-0.274438C24.7046-0.274438 9.0391-15.898 9.0391-35.2539C9.0391-54.6099 24.7046-70.2334 44.0606-70.2334C63.4165-70.2334 79.04-54.6099 79.04-35.2539C79.04-15.898 63.4165-0.274438 44.0606-0.274438ZM38.1035-17.543C38.9336-17.7871 39.4219-18.0313 39.7637-18.6206L44.4478-27.061C44.5-27.1655 44.5943-27.2144 44.6987-27.2144L56.0757-27.2144L56.0757-16.5176C56.0757-15.2969 57.0523-14.3726 58.2241-14.3726C59.3994-14.3726 60.3726-15.2969 60.3726-16.5176L60.3726-29.1187C60.3726-30.5347 59.5913-31.3193 58.1265-31.4658L48.6016-32.3447L48.6016-44.353C48.6016-46.7002 46.9448-48.6079 44.0606-48.6079L43.084-48.6079C41.3262-48.6079 40.0078-48.3149 38.3477-47.0454L31.2642-41.7231C30.0889-40.8442 30.1445-39.083 31.3653-38.2529L40.0078-32.4878L40.0078-31.9507L36.2481-21.498L25.647-18.5923C24.524-18.2993 23.8404-17.082 24.1333-15.9556C24.5205-14.7383 25.5528-14.1069 26.77-14.4453ZM36.2481-40.1572L39.4707-42.5498C39.7149-42.6997 40.0078-42.5986 40.0078-42.2568L40.0078-37.6636ZM44.0606-51.207C46.5542-51.207 48.6504-53.3032 48.6504-55.8457C48.6504-58.3394 46.5542-60.4355 44.0606-60.4355C41.5181-60.4355 39.4219-58.3394 39.4219-55.8457C39.4219-53.3032 41.5181-51.207 44.0606-51.207Z" />
</svg>