<svg xmlns="http://www.w3.org/2000/svg" viewBox="9.76562 -67.9956 88.05 65.53">
  <path d="M62.6499-52.7324C66.8799-52.7324 70.2344-56.1323 70.2344-60.3623C70.2344-64.5957 66.8799-67.9956 62.6499-67.9956C58.4165-67.9956 55.0166-64.5957 55.0166-60.3623C55.0166-56.1323 58.4165-52.7324 62.6499-52.7324ZM49.5161-8.41942C48.6304-3.64549 55.814-2.46677 56.6963-7.33836L60.337-27.2153C60.6822-29.0811 59.5-31.0967 57.3379-31.3931L45.3838-33.0669L52.8116-40.4946C53.5474-41.2305 54.5376-41.2305 55.2735-40.4946L75.8863-19.8784C77.2637-18.5044 79.5757-18.4033 81.002-19.8784C82.376-21.3535 82.4249-23.5225 81.002-24.9487L53.6485-52.3023C51.9746-53.9727 49.7115-54.9561 47.2564-54.9561L31.4595-54.9561C30.4795-54.9561 29.5903-54.562 28.9033-53.875L18.0791-43.0054C16.6528-41.6245 16.6982-39.3613 18.0791-37.9351C19.5054-36.5088 21.7232-36.5088 23.146-37.9351L32.9834-47.7271L39.3301-47.7271C40.0171-47.7271 40.2647-47.0889 39.8218-46.646L30.0366-36.9482C25.315-32.2754 27.8223-24.2129 35.2988-24.2129L52.4175-24.2129ZM29.0952-23.0283L28.1152-11.5649L13.4063-11.5649C11.3906-11.5649 9.76562-9.94334 9.76562-7.97654C9.76562-6.00633 11.3906-4.33592 13.4063-4.33592L31.4595-4.33592C33.2798-4.33592 34.7095-5.71336 35.0513-7.53367L37.5518-21.2637L35.2988-21.2637C32.8369-21.2637 30.7691-21.9018 29.0952-23.0283ZM82.9654-4.33592L93.7442-4.33592C96.0211-4.33592 97.8131-6.12791 97.8131-8.40477C97.8131-10.685 96.0211-12.4282 93.7442-12.4282L82.9654-12.4282C80.5943-12.4282 78.8477-10.685 78.8477-8.40477C78.8477-6.12791 80.5943-4.33592 82.9654-4.33592ZM90.9732-11.9575L93.0142-11.9575L93.0142-15.1826C93.0142-17.7729 91.3765-19.3652 88.7896-19.3652L84.6949-19.3652C84.1656-19.3652 83.6954-18.9438 83.6954-18.3657C83.6954-17.791 84.1656-17.3208 84.6949-17.3208L88.7896-17.3208C90.1397-17.3208 90.9732-16.4873 90.9732-15.1826Z"/>
</svg>