<svg xmlns="http://www.w3.org/2000/svg" viewBox="6.83594 -72.4785 74.45 74.45">
  <path d="M44.0606 1.97072C64.521 1.97072 81.2886-14.7969 81.2886-35.2539C81.2886-55.7109 64.521-72.4785 44.0606-72.4785C23.6035-72.4785 6.83594-55.7109 6.83594-35.2539C6.83594-14.7969 23.6035 1.97072 44.0606 1.97072ZM57.3106-44.9741C54.7613-44.9741 52.7036-47.0317 52.7036-49.6265C52.7036-52.1724 54.7613-54.2266 57.3106-54.2266C59.9019-54.2266 61.9595-52.1724 61.9595-49.6265C61.9595-47.0317 59.9019-44.9741 57.3106-44.9741ZM20.1895-23.1489C18.5781-22.7129 17.5493-23.7417 17.3994-24.8193C17.2075-25.8447 17.7447-26.9224 19.1641-27.2642L32.584-30.689L32.584-35.7319C32.584-37.7407 34.0523-38.5742 35.96-38.1802L44.9717-36.3701L51.0923-40.9282C52.5606-42.0547 54.3706-42.6406 56.2329-42.6406L58.0987-42.6406C59.7588-42.6406 61.2271-41.7583 61.9629-40.2866L65.6387-32.8931C65.7852-32.6001 65.8794-32.2583 65.8794-31.9131L65.8794-23.3442C65.8794-22.0713 65.0005-21.1958 63.7276-21.1958C62.5-21.1958 61.5689-22.0713 61.5689-23.3442L61.5689-31.3794L59.2671-36.0771C59.1206-36.4189 58.6812-36.4224 58.3882-36.2271L50.604-30.396C49.23-29.3638 47.5699-28.6348 45.9517-28.3872L36.8911-27.02L36.8911-23.3442C36.8911-22.1689 35.9566-21.1958 34.7359-21.1958C33.5606-21.1958 32.584-22.1689 32.584-23.3442L32.584-26.2388ZM36.8911-31.7178L39.8311-32.4536L36.8911-33.3359ZM47.0816-21.1958C45.3135-21.1958 43.8487-22.6152 43.8487-24.4253C43.8487-26.1899 45.3135-27.6548 47.0816-27.6548L55.6924-27.6548C57.4536-27.6548 58.8765-26.1899 58.8765-24.4253C58.8765-22.6152 57.4536-21.1958 55.6924-21.1958ZM55.647-22.5586C56.6973-22.5586 57.5137-23.375 57.5137-24.4253C57.5137-25.4756 56.6973-26.334 55.647-26.334C54.5967-26.334 53.7349-25.4756 53.7349-24.4253C53.7349-23.375 54.5967-22.5586 55.647-22.5586Z"/>
</svg>