<svg xmlns="http://www.w3.org/2000/svg" viewBox="6.83594 -72.4785 74.45 74.45">
  <path d="M44.0606 1.97072C64.521 1.97072 81.2886-14.7969 81.2886-35.2539C81.2886-55.7109 64.521-72.4785 44.0606-72.4785C23.6035-72.4785 6.83594-55.7109 6.83594-35.2539C6.83594-14.7969 23.6035 1.97072 44.0606 1.97072ZM42.8526-46.5151C40.3487-46.5151 38.3364-48.5693 38.3364-51.0698C38.3364-53.6157 40.3487-55.6279 42.8526-55.6279C45.395-55.6279 47.4073-53.6157 47.4073-51.0698C47.4073-48.5693 45.395-46.5151 42.8526-46.5151ZM23.3858-43.0415L29.6436-54.0083C28.6216-54.7544 27.9868-55.9751 27.9868-57.3911C27.9868-59.8076 29.7788-61.6416 32.1953-61.6416C34.5596-61.6416 36.3516-59.8076 36.3516-57.3911C36.3516-55.0269 34.5596-53.2349 32.1953-53.2349C31.8081-53.2349 31.4209-53.2837 31.0371-53.3779L25.7207-44.0952C26.1465-44.0327 26.5723-43.792 26.9492-43.457L32.4429-37.9634L64.0742-53.8018C65.2007-54.3423 66.4771-53.8994 67.0596-52.8218C67.6001-51.7441 67.1641-50.3735 66.0342-49.833L50.857-42.2251C50.2744-41.9321 50.0791-41.5347 50.2744-40.7534L56.1509-17.2476C56.4439-16.0757 56.001-15.0469 55.021-14.4121L45.3291-7.9497C44.2969-7.26269 42.9263-7.55224 42.2881-8.58105C41.6045-9.60986 41.8975-10.9839 42.8775-11.6221L51.4009-17.2998L49.0469-23.5703C48.9004-23.9155 48.5132-23.9609 48.3179-23.6191L43.8574-15.3921C43.4146-14.6074 42.6333-14.2168 41.7998-14.2168L31.9546-14.2168C30.7305-14.2168 29.7539-15.2388 29.7539-16.4175C29.7539-17.6938 30.7305-18.6704 31.9546-18.6704L40.4258-18.6704L44.0073-27.6787L41.751-36.7393C41.6533-37.1787 41.1651-37.4263 40.6699-37.1753L33.1753-33.4053C32.0523-32.8228 30.9746-33.1611 30.3887-33.7505L23.7764-40.3628C23.1314-41.0078 22.8521-42.0718 23.3858-43.0415ZM29.5371-57.3911C29.5371-55.8945 30.6499-54.7397 32.1953-54.7397C33.6919-54.7397 34.8467-55.8945 34.8467-57.3911C34.8467-58.9365 33.6919-60.0913 32.1953-60.0913C30.6499-60.0913 29.5371-58.9365 29.5371-57.3911Z"/>
</svg>