<svg xmlns="http://www.w3.org/2000/svg" viewBox="10.8384 -78.5435 67 78.16">
  <path d="M13.9981-0.385228C14.624-0.385228 15.0899-0.851056 15.0899-1.52245L15.0899-25.5825C16.6045-25.6167 20.127-27.3891 26.6787-27.3891C40.2984-27.3891 47.3618-20.685 62.2129-20.6372L59.8881-22.9653C47.4131-23.3745 39.5586-29.5728 26.6787-29.5728C23.2412-29.5728 19.8799-29.2173 15.0899-27.8037L15.0899-66.0698L14.1074-67.1885C13.3218-67.1406 12.9028-66.541 12.9028-65.0195L12.9028-1.52245C12.9028-0.899884 13.4175-0.385228 13.9981-0.385228ZM73.563-24.041C74.3658-24.1514 74.7881-24.7295 74.7881-26.2783L74.7881-62.9092C74.7881-64.3345 74.0157-64.9717 72.7969-64.9717C71.1197-64.9717 67.604-63.1367 60.9702-63.1367C47.7867-63.1367 39.7559-69.8716 25.8853-69.8921L28.1793-67.5981C40.4219-67.0176 48.2061-60.9951 60.9702-60.9951C64.4532-60.9951 67.7803-61.3052 72.5591-62.7539L72.5591-25.1812ZM75.7818-11.955C76.2373-11.4995 76.9327-11.4995 77.3848-11.955C77.837-12.456 77.795-13.1025 77.3848-13.5127L12.8516-78.0425C12.4414-78.4527 11.7461-78.5435 11.2451-78.0425C10.8384-77.6357 10.8384-76.8916 11.2451-76.4849Z"/>
</svg>