<svg xmlns="http://www.w3.org/2000/svg" viewBox="6.83594 -76.3745 82.24 82.29">
  <path d="M47.9566 5.91213C70.6812 5.91213 89.0738-12.4805 89.0738-35.2539C89.0738-57.9819 70.6812-76.3745 47.9566-76.3745C25.2285-76.3745 6.83594-57.9819 6.83594-35.2539C6.83594-12.4805 25.2285 5.91213 47.9566 5.91213ZM47.9566-6.95849C32.3179-6.95849 19.6611-19.6152 19.6611-35.2539C19.6611-50.8926 32.3179-63.5493 47.9566-63.5493C63.5918-63.5493 76.2486-50.8926 76.2486-35.2539C76.2486-19.6152 63.5918-6.95849 47.9566-6.95849ZM42.3535-18.5498C42.9556-18.5498 43.4815-19.0303 43.4815-19.6812L43.4815-25.0757L52.6245-25.0757C53.0425-25.0757 53.4014-25.4346 53.4014-25.8071C53.4014-26.2285 53.0425-26.584 52.6245-26.584L43.4815-26.584L43.4815-34.2827L57.2949-34.2827C57.7959-34.2827 58.2695-34.7109 58.2695-35.2539C58.2695-35.7935 57.7959-36.2217 57.2949-36.2217L43.4815-36.2217L43.4815-48.8257L58.6587-48.8257C59.1631-48.8257 59.6367-49.2959 59.6367-49.8389C59.6367-50.3399 59.1631-50.8135 58.6587-50.8135L42.3989-50.8135C41.6538-50.8135 41.2222-50.3818 41.2222-49.6787L41.2222-26.584L37.6475-26.584C37.2715-26.584 36.916-26.2285 36.916-25.8071C36.916-25.4346 37.2715-25.0757 37.6475-25.0757L41.2222-25.0757L41.2222-19.6812C41.2222-19.0303 41.7026-18.5498 42.3535-18.5498Z" />
</svg>