<svg xmlns="http://www.w3.org/2000/svg" viewBox="6.83594 -72.4785 74.45 74.45">
  <path d="M44.0606 1.97072C64.521 1.97072 81.2886-14.7969 81.2886-35.2539C81.2886-55.7109 64.521-72.4785 44.0606-72.4785C23.6035-72.4785 6.83594-55.7109 6.83594-35.2539C6.83594-14.7969 23.6035 1.97072 44.0606 1.97072ZM38.4473-18.4985C37.7896-18.4985 37.3057-19.0312 37.3057-19.6436L37.3057-25.0449L33.7207-25.0449C33.3481-25.0449 32.9858-25.4038 32.9858-25.8286C32.9858-26.2012 33.3481-26.5635 33.7207-26.5635L37.3057-26.5635L37.3057-49.7163C37.3057-50.4263 37.7407-50.8613 38.4927-50.8613L54.7481-50.8613C55.3013-50.8613 55.7818-50.3877 55.7818-49.8379C55.7818-49.3369 55.3013-48.8599 54.7481-48.8599L39.582-48.8599L39.582-36.2285L53.3809-36.2285C53.9307-36.2285 54.4112-35.7969 54.4112-35.2539C54.4112-34.7075 53.9307-34.2793 53.3809-34.2793L39.582-34.2793L39.582-26.5635L48.7422-26.5635C49.167-26.5635 49.5225-26.2012 49.5225-25.8286C49.5225-25.4038 49.167-25.0449 48.7422-25.0449L39.582-25.0449L39.582-19.6436C39.582-19.0312 39.0527-18.4985 38.4473-18.4985Z"/>
</svg>