<svg xmlns="http://www.w3.org/2000/svg" viewBox="-3.51904 -77.6406 92.04 77.46">
  <path d="M8.42237-76.5039L-2.38232-65.6538C-3.51904-64.5171-2.65723-63.4893-1.62939-63.2383L12.333-59.9658C13.5562-59.666 14.4067-60.6563 14.1523-61.7398L10.8379-75.7022C10.5869-76.772 9.55567-77.6406 8.42237-76.5039ZM6.83594-29.4888C6.83594-18.4604 11.2168-8.44727 18.4263-0.962889C19.1113-0.30272 19.9092-0.177717 20.7784-1.00146L29.7754-9.95309C30.1958-10.3247 30.1958-11.1177 29.7754-11.5801C29.313-11.9971 28.5166-11.9937 28.1484-11.5801L19.6524-2.99661C13.128-9.91409 9.05961-19.2217 9.05961-29.4888C9.05961-50.8013 26.3648-68.1133 47.6773-68.1133C68.9898-68.1133 86.2949-50.8013 86.2949-29.4888C86.2949-19.2217 82.2754-9.91409 75.7056-2.99661L67.2095-11.5801C66.8413-11.9971 66.045-11.9971 65.5825-11.5801C65.2075-11.1177 65.1621-10.3247 65.5825-9.95309L74.5762-1.00146C75.4487-0.177717 76.2466-0.30272 76.9317-0.962889C84.1377-8.44727 88.522-18.4604 88.522-29.4888C88.522-51.9795 70.1226-70.3335 47.6773-70.3335C25.19-70.3335 6.83594-51.9795 6.83594-29.4888ZM21.1787-30.6079L8.0801-30.6079L8.0801-28.373L21.1787-28.373C21.8149-28.373 22.2944-28.8979 22.2944-29.4888C22.2944-30.0796 21.8149-30.6079 21.1787-30.6079ZM46.5615-55.9522C46.5615-55.3613 47.0864-54.8784 47.6773-54.8784C48.2715-54.8784 48.7964-55.3613 48.7964-55.9522L48.7964-69.0962L46.5615-69.0962ZM65.5928-49.0279C65.1758-48.7051 65.2178-47.8599 65.5928-47.4429C66.0552-47.0259 66.8096-47.0293 67.2198-47.4429L76.4522-56.7207L74.9126-58.2568ZM74.1441-30.6079C73.5533-30.6079 73.0703-30.0796 73.0703-29.4888C73.0703-28.8979 73.5533-28.373 74.1441-28.373L87.2881-28.373L87.2881-30.6079ZM44.5029-25.5083C46.3882-23.5742 49.4522-23.5742 51.3374-25.5083C53.2715-27.3481 53.2715-30.4541 51.3374-32.2974C51.1602-32.6109 50.6206-33.0357 50.2515-33.3003L29.2613-49.0679C28.8194-49.353 28.3286-49.3779 27.8755-49.0156C27.4678-48.5625 27.4927-48.0298 27.8233-47.5845L43.5454-26.5942C43.8555-26.2251 44.2349-25.7309 44.5029-25.5083Z"/>
</svg>