<svg xmlns="http://www.w3.org/2000/svg" viewBox="6.83594 -74.2588 78.14 78.1">
  <path d="M42.0562 3.84181L49.7583 3.84181C51.9385 3.84181 53.3545 2.66993 53.8882 0.356945L55.7085-7.41601C56.6841-7.81689 57.7437-8.17578 58.7476-8.58691L65.5825-4.26953C67.5083-3.02051 69.3672-3.2124 70.9126-4.75781L76.2915-10.1367C77.8823-11.7729 78.0776-13.5478 76.8218-15.5679L72.5078-22.3086C72.919-23.3579 73.2813-24.3721 73.6753-25.4248L81.5005-27.2485C83.8101-27.7788 84.9785-29.1948 84.9785-31.3784L84.9785-39.0249C84.9785-41.2017 83.8101-42.6177 81.5005-43.1479L73.6821-44.9751C73.2813-46.0449 72.9155-47.0557 72.5147-48.0947L76.8286-54.8457C78.0776-56.8237 77.8926-58.6304 76.2984-60.27L70.9126-65.6489C69.3638-67.1875 67.5186-67.3931 65.5928-66.144L58.7476-61.8198C57.7471-62.231 56.6875-62.5898 55.7085-62.9907L53.8882-70.7739C53.3545-73.0869 51.9385-74.2588 49.7583-74.2588L42.0562-74.2588C39.876-74.2588 38.46-73.0869 37.9297-70.7739L36.106-62.9976C35.043-62.5967 34.0674-62.2378 33.0215-61.8232L26.1797-66.144C24.2505-67.3931 22.4019-67.1943 20.8564-65.6489L15.4707-60.27C13.8765-58.6304 13.6914-56.8237 14.9404-54.8457L19.2544-48.0947C18.8535-47.0557 18.4878-46.0449 18.0903-44.9751L10.3174-43.1479C8.00439-42.6177 6.83594-41.2017 6.83594-39.0249L6.83594-31.3784C6.83594-29.1948 8.00439-27.7788 10.3174-27.2485L18.0972-25.4248C18.4878-24.3721 18.8501-23.3579 19.2612-22.3086L14.9473-15.5679C13.6914-13.5478 13.8867-11.7729 15.4775-10.1367L20.8564-4.75781C22.4019-3.2124 24.2607-3.02051 26.1899-4.26953L33.0249-8.58691C34.0708-8.17578 35.043-7.81689 36.106-7.41601L37.9297 0.356945C38.46 2.66993 39.876 3.84181 42.0562 3.84181ZM45.8862-21.3267C38.1919-21.3267 31.959-27.563 31.959-35.2539C31.959-42.9448 38.1919-49.1811 45.8862-49.1811C53.6226-49.1811 59.8555-42.9448 59.8555-35.2539C59.8555-27.563 53.6226-21.3267 45.8862-21.3267Z"/>
</svg>