<svg xmlns="http://www.w3.org/2000/svg" viewBox="6.83594 -72.4785 74.45 74.45">
  <path d="M44.0606 1.97072C64.6118 1.97072 81.2886-14.7026 81.2886-35.2539C81.2886-55.8052 64.6118-72.4785 44.0606-72.4785C23.5127-72.4785 6.83594-55.8052 6.83594-35.2539C6.83594-14.7026 23.5127 1.97072 44.0606 1.97072ZM44.0606-0.274438C24.7046-0.274438 9.0391-15.898 9.0391-35.2539C9.0391-54.6099 24.7046-70.2334 44.0606-70.2334C63.4165-70.2334 79.04-54.6099 79.04-35.2539C79.04-15.898 63.4165-0.274438 44.0606-0.274438ZM28.5718-20.6045C28.5718-17.8359 30.291-16.1724 33.021-16.1724L42.8545-16.1724L42.8545-34.251L28.5718-34.251ZM45.2632-16.1724L55.0967-16.1724C57.8233-16.1724 59.5459-17.8359 59.5459-20.6045L59.5459-34.251L45.2632-34.251ZM25.2119-38.7773C25.2119-37.0376 26.2442-35.8999 27.9385-35.8999L42.8545-35.8999L42.8545-45.9336L40.6831-45.9336C36.9395-45.9336 34.5108-47.8345 34.5108-50.7866C34.5108-52.6592 35.8916-53.9287 37.9912-53.9287C40.9151-53.9287 42.8545-51.5908 42.8545-48.0425L42.8545-45.9336L45.2632-45.9336L45.2632-48.0425C45.2632-51.5908 47.2027-53.9287 50.1265-53.9287C52.2261-53.9287 53.6069-52.6592 53.6069-50.7866C53.6069-47.8345 51.1782-45.9336 47.4346-45.9336L45.2632-45.9336L45.2632-35.8999L60.1792-35.8999C61.8735-35.8999 62.9058-37.0376 62.9058-38.7773L62.9058-43.0562C62.9058-44.7471 61.8735-45.9336 60.1792-45.9336L53.2305-45.9336C54.8008-46.959 55.792-48.602 55.792-50.7095C55.792-53.9277 53.4912-56.0752 50.1436-56.0752C47.1436-56.0752 44.9009-54.2959 44.0571-51.3936C43.2168-54.2959 40.9741-56.0752 37.9741-56.0752C34.6265-56.0752 32.3223-53.9277 32.3223-50.7095C32.3223-48.602 33.3169-46.959 34.8872-45.9336L27.9385-45.9336C26.251-45.9336 25.2119-44.7471 25.2119-43.0562Z" />
</svg>