<svg xmlns="http://www.w3.org/2000/svg" viewBox="6.83594 -72.4785 74.45 74.45">
  <path d="M12.4488-19.3867L16.1202-26.6953C17.376-29.2388 18.6353-30.4209 20.0762-30.4209C21.4751-30.4209 23.0557-29.2002 25.1314-26.4932C28.7378-21.8647 30.8648-19.9228 32.7681-19.9228C34.5772-19.9228 37.0494-23.0229 37.0494-25.0522C37.0494-26.8032 34.1255-27.8276 34.1255-28.8394C34.1255-29.541 34.8726-29.9634 36.1783-29.9634C43.2227-29.9634 46.1802-35.7622 46.1802-38.4458C46.1802-41.1055 42.6861-43.4312 42.6861-44.9141C42.6861-45.3853 42.9722-45.7134 43.3492-45.7134C43.7784-45.7134 44.3994-45.4102 45.9038-44.5064C49.3062-42.4756 51.273-42.5908 51.3072-45.585C51.2754-46.7749 52.1167-47.6084 54.5762-48.6372C58.3531-50.1953 62.0494-53.896 62.0494-56.4272C62.0494-59.6626 56.3775-61.2774 56.3775-62.7398C56.3775-63.5493 58.3633-64.7573 61.874-65.9302L61.3936-67.8589C56.7608-66.5156 54.3169-64.7442 54.3169-62.7603C54.3169-59.415 59.981-58.73 59.981-56.4272C59.981-54.8511 56.7129-51.7764 53.7368-50.5034C50.5718-49.1904 49.3028-47.8018 49.2583-45.69C49.2217-43.5757 46.6045-47.7236 43.2979-47.7236C41.7046-47.7236 40.645-46.6777 40.645-44.9551C40.645-42.4273 44.1118-40.3149 44.1118-38.4458C44.1118-36.27 41.9053-32.001 36.0825-32.001C33.5786-32.001 32.0684-30.8257 32.0684-28.8623C32.0684-27.1748 34.9673-25.5361 34.9673-25.0522C34.9673-24.187 33.3506-22.022 32.7749-22.022C31.7701-22.022 29.8794-23.7525 26.7784-27.7256C24.2881-30.9937 22.1714-32.4893 20.0967-32.4893C17.8072-32.4893 16.0708-30.9639 14.4483-27.8301L10.5557-20.3198ZM61.0108-3.2622L62.6577-4.53321C60.9488-6.82813 58.8877-9.25392 55.105-9.25392C52.6782-9.25392 51.8721-8.28419 49.3843-8.28419C47.545-8.28419 46.5537-9.75343 45.9746-12.4819C45.357-15.0957 45.2491-16.6377 46.5992-17.395C48.2388-18.2886 53.0977-18.4238 54.6636-23.352C56.0069-27.4341 57.3921-29.0635 59.9605-29.0635C64.9756-29.0635 63.5894-25.3276 67.1426-25.3276C68.6734-25.3276 69.6431-26.1055 71.2691-26.1055C73.4219-26.1055 75.1738-24.4033 75.7812-19.3652L77.7168-20.9277C76.8584-25.8242 74.728-28.1738 71.8482-28.1738C70.9693-28.1738 69.979-27.9819 68.8628-27.6401C67.104-27.1133 66.4614-27.3438 65.1704-28.8267C63.6499-30.5391 62.4644-31.1318 60.4453-31.1318C56.4097-31.1318 54.4541-29.4126 52.6929-23.9404C52.0718-21.9795 51.168-21.2676 47.9478-20.1094L46.249-19.478C43.5327-18.4424 42.8809-16.5142 43.9097-12.0049C44.8408-8.08496 46.5703-6.2124 49.0425-6.2124C51.3999-6.2124 53.0884-7.18212 55.105-7.18212C57.9029-7.23095 59.3858-5.53222 61.0108-3.2622ZM51.5909-37.7305C53.9903-37.7305 55.0679-39.8857 57.8091-40.6704C59.6192-41.2075 60.5503-43.0664 60.5503-44.5869C60.5503-45.8599 59.9156-46.9375 58.545-46.9375C57.1221-46.9375 55.7515-45.811 54.8692-43.9487C54.3809-42.8711 53.5962-42.334 51.5909-41.7935C50.0249-41.3052 49.4844-40.7192 49.4844-39.5439C49.4844-38.271 50.4644-37.7305 51.5909-37.7305ZM40.8179-20.5474C42.9243-20.5474 45.0274-22.9956 45.0274-25.1997C45.0274-27.8921 43.9009-29.165 42.628-29.165C41.2085-29.165 40.3262-27.5015 40.3262-24.9556C40.3262-23.5327 39.0533-23.4839 39.0533-22.0156C39.0533-21.1333 39.7403-20.5474 40.8179-20.5474ZM34.3101-13.7851C35.9248-13.7851 36.9536-14.5732 36.9536-15.9438C36.9536-16.9726 36.169-17.6108 35.0425-17.6108C30.5855-17.6108 30.3902-20.1567 28.2349-20.1567C27.0142-20.1567 26.1807-19.4697 26.1807-18.4409C26.1807-17.6074 27.0142-16.9726 28.1372-16.9726C30.5366-16.9726 29.4102-13.7851 34.3101-13.7851ZM44.0606 1.97072C64.6118 1.97072 81.2886-14.7026 81.2886-35.2539C81.2886-55.8052 64.6118-72.4785 44.0606-72.4785C23.5127-72.4785 6.83594-55.8052 6.83594-35.2539C6.83594-14.7026 23.5127 1.97072 44.0606 1.97072ZM44.0606-0.165051C24.6919-0.165051 8.97513-15.8853 8.97513-35.2539C8.97513-54.6226 24.6919-70.3428 44.0606-70.3428C63.4292-70.3428 79.1494-54.6226 79.1494-35.2539C79.1494-15.8853 63.4292-0.165051 44.0606-0.165051Z"/>
</svg>