<svg xmlns="http://www.w3.org/2000/svg" viewBox="6.83594 -72.4785 74.45 74.45">
  <path d="M47.4609-6.73925C54.1812-6.73925 60.0508-17.4043 61.6587-19.9922C63.4336-22.9424 62.5967-25.9346 62.5967-27.9297C62.5967-29.9258 66.6494-31.9609 66.6494-35.5469C66.6494-39.3213 58.7881-40.7979 58.7881-43.4185C58.7881-44.772 59.894-46.3389 61.2305-46.3389C63.2051-46.3389 66.9082-41.0166 69.3848-41.0166C70.8564-41.0166 70.5942-42.335 71.5151-42.335C73.7373-42.335 74.5264-32.0229 79.0508-29.0298C79.7744-30.3086 80.2583-32.7749 80.2583-35.2539C80.2583-54.1484 64.9146-71.6787 44.0571-71.4517C36.0347-71.3608 30.6753-69.6079 30.6753-64.5449C30.6753-59.0684 26.3921-57.8091 26.3921-54.8726C26.3921-53.2827 27.4448-52.1914 29.0064-52.1914C33.2715-52.1914 32.999-56.8018 36.2305-56.8018C38.3379-56.7529 39.7642-54.7485 41.478-54.7485C42.4785-54.7485 42.9771-55.2222 43.2529-55.8071C43.707-56.5645 43.8149-56.9902 44.478-56.9902C47.0557-56.9902 50.5483-54.0708 50.5483-52.0996C50.5483-50.4883 49.9624-48.7295 48.5352-48.7295C46.6899-48.7295 42.3965-51.2695 38.7207-51.2695C30.3926-51.2695 23.4873-44.9004 23.4873-37.9395C23.4873-31.9062 27.02-28.4678 33.2031-28.4678C37.4238-28.4678 40.5771-25.5586 40.5771-21.6309C40.5771-15.9214 39.9878-6.73925 47.4609-6.73925ZM56.6328-58.3462C55.353-58.3462 54.8159-57.7046 53.6826-57.7046C52.5981-57.7046 51.7646-58.4893 51.7646-59.5737C51.7646-61.2964 53.4385-62.231 56.3853-62.231C58.8472-62.231 60.7163-60.9512 60.7163-59.2808C60.7163-58.3462 60.127-57.6069 59.3389-57.6069C58.0591-57.6069 57.3721-58.3462 56.6328-58.3462ZM44.0606 1.97072C64.6118 1.97072 81.2886-14.7026 81.2886-35.2539C81.2886-55.8052 64.6118-72.4785 44.0606-72.4785C23.5127-72.4785 6.83594-55.8052 6.83594-35.2539C6.83594-14.7026 23.5127 1.97072 44.0606 1.97072ZM44.0606-0.165051C24.6919-0.165051 8.97513-15.8853 8.97513-35.2539C8.97513-54.6226 24.6919-70.3428 44.0606-70.3428C63.4292-70.3428 79.1494-54.6226 79.1494-35.2539C79.1494-15.8853 63.4292-0.165051 44.0606-0.165051Z"/>
</svg>