<svg xmlns="http://www.w3.org/2000/svg" viewBox="9.15918 -74.209 88.66 77.88">
  <path d="M10.1245-0.577158C9.15918 1.60791 10.104 3.62062 12.4131 3.62062C13.1685 3.62062 13.9873 3.38429 14.9903 2.54151L26.5611-7.04784C27.4478-7.74949 27.961-8.0742 28.4287-8.0742C28.8999-8.0742 29.4585-7.74949 30.3452-7.04784L41.9126 2.54151C42.9155 3.38429 43.7344 3.62062 44.4444 3.62062C46.7569 3.62062 47.6983 1.60791 46.7329-0.577158L30.9112-37.1079L30.9112-56.4922C30.9112-65.229 32.376-71.7686 32.376-72.9473C32.376-73.749 31.916-74.209 31.1597-74.209C30.6577-74.209 30.25-73.9058 29.3677-72.9258L20.9658-63.2578C20.4605-62.6514 20.5195-62.1255 21.0874-61.8643C24.502-60.3994 26.0371-59.6353 26.0371-56.4922L26.0371-37.2896ZM37.2632-7.55958C36.5977-7.55958 35.9458-8.21144 35.9458-8.9258C35.9458-9.68215 36.6465-10.3862 37.2632-10.3862C38.0718-10.3862 38.7271-9.72756 38.7271-8.9258C38.7271-8.21486 38.0684-7.55958 37.2632-7.55958ZM35.3941-12.044C34.7251-12.044 34.0664-12.6538 34.0664-13.4102C34.0664-14.1699 34.7251-14.8286 35.3941-14.8286C36.1958-14.8286 36.8545-14.2188 36.8545-13.4102C36.8545-12.6992 36.1958-12.044 35.3941-12.044ZM33.5635-16.5318C32.8037-16.5318 32.1973-17.1416 32.1973-17.8946C32.1973-18.6089 32.8491-19.271 33.5635-19.271C34.3233-19.271 34.9297-18.6577 34.9297-17.8946C34.9297-17.1836 34.2744-16.5318 33.5635-16.5318ZM55.9903 3.67287C65.168 3.67287 71.3331-1.62011 71.3331-9.76904C71.3331-18.0991 66.5967-20.2241 66.5967-23.3433C66.5967-26.9053 69.1846-29.2978 69.1846-32.6172C69.1846-34.4605 68.0489-35.7427 66.4463-35.7427C64.5044-35.7427 63.3609-33.876 62.3843-32.4214C61.7359-31.48 61.2408-30.7407 60.5254-30.7407C58.836-30.7407 58.4205-34.249 58.4205-35.8784L58.4239-58.25C58.4239-59.5093 58.5181-59.9248 59.4707-60.2564C60.0318-60.4585 60.2305-60.7651 60.3282-61.6157L61.064-69.4282C61.1128-70.0664 60.8653-70.523 60.4644-70.8784L57.1475-73.7559C56.8829-74.0171 56.4332-74.209 55.9903-74.209C55.5928-74.209 55.1431-74.0171 54.8365-73.7559L51.5162-70.8784C51.1187-70.5264 50.8677-70.0664 50.9165-69.4282L51.6524-61.6157C51.75-60.7617 51.9068-60.4551 52.5132-60.2564C53.3682-59.9736 53.5567-59.5547 53.5567-58.25L53.5635-35.8818C53.5635-34.2183 53.1797-30.7407 51.4585-30.7407C50.7398-30.7407 50.2481-31.4868 49.5962-32.4214C48.6197-33.876 47.4761-35.7427 45.5831-35.7427C43.9351-35.7427 42.8448-34.4605 42.8448-32.6172C42.8448-29.2978 45.4326-26.9053 45.4326-23.3433C45.4326-21.4312 43.3775-19.7642 42.0137-16.5894L47.6914-3.542C48.6783-1.22315 49.1177-0.118166 49.1177 1.10157C49.1177 1.62061 49.062 2.04884 48.9019 2.46681C51.0323 3.26857 53.3716 3.67287 55.9903 3.67287ZM48.4829-10.3164C47.9707-10.5186 47.6641-11.1353 47.8662-11.6055L51.4068-21.2642C51.5669-21.7798 52.1382-22.041 52.6993-21.8355C53.2149-21.6787 53.5215-21.062 53.3194-20.543L49.8208-10.9331C49.6153-10.4175 49.0474-10.1562 48.4829-10.3164ZM63.4976-10.3164C62.9332-10.1562 62.3653-10.4175 62.2051-10.9331L58.6612-20.543C58.459-21.062 58.7657-21.6787 59.2813-21.8355C59.8458-22.041 60.4136-21.7798 60.6192-21.2642L64.1143-11.6055C64.3165-11.1353 64.0098-10.5186 63.4976-10.3164ZM82.5289 3.47756C91.9439 3.47756 97.8194-0.783193 97.8194-7.56836C97.8194-14.6646 92.6471-16.9741 92.6471-20.7031C92.6471-23.6509 93.8155-25.9458 93.8155-28.7632C93.8155-32.8628 90.377-35.7359 84.9171-36.3809L84.9171-59.666C84.9171-61.501 85.2032-62.0732 86.2218-62.7534C86.9088-63.1963 87.0655-63.3667 87.0167-63.9141L86.4307-73.3379C86.3819-73.8501 86.0264-74.209 85.6539-74.209L79.3551-74.209C78.9405-74.209 78.585-73.8501 78.5362-73.3379L77.9957-63.9141C77.9469-63.3633 78.1002-63.1963 78.7452-62.7534C79.7603-62.0698 80.0499-61.4976 80.0499-59.666L80.0499-36.3809C74.5899-35.7359 71.1934-32.8628 71.1934-28.7632C71.1934-25.9458 72.3619-23.6509 72.3619-20.7031C72.3619-19.7856 72.0689-19.0112 71.6295-18.2334C72.5674-16.3857 73.2715-13.7705 73.2715-9.76904C73.2715-6.07959 72.1905-2.88183 70.2759-0.36425C72.8492 2.17042 77.1417 3.47756 82.5289 3.47756ZM82.5289-18.0254C80.4473-18.0254 78.7247-19.748 78.7247-21.8262C78.7247-23.9043 80.4508-25.585 82.5289-25.585C84.5616-25.585 86.2389-23.9043 86.2389-21.8262C86.2389-19.748 84.5616-18.0254 82.5289-18.0254ZM77.6324-7.458C77.1031-7.458 76.6329-7.87939 76.6329-8.4541C76.6329-9.02539 77.1065-9.40821 77.6324-9.40821L87.3765-9.40821C87.857-9.40821 88.3272-9.02881 88.3272-8.4541C88.3272-7.87939 87.857-7.458 87.3765-7.458Z"/>
</svg>