<svg xmlns="http://www.w3.org/2000/svg" viewBox="7.8125 -64.8096 77.05 59.41">
  <path d="M84.8634-30.7334C84.8634-43.2373 78.0499-52.2549 65.6455-56.6407L44.0743-64.21C43.1509-64.5655 42.0323-64.7222 41.1714-64.7642C37.668-64.8096 35.4014-62.0137 35.4014-58.8237C35.4468-56.5264 36.8833-54.3609 39.8755-53.1753L52.041-48.3443C52.2783-48.25 52.376-48.0616 52.376-47.9117C52.376-47.7163 52.2295-47.6187 52.0342-47.6187L14.2925-47.6187C10.1963-47.6187 7.8125-44.875 7.8125-41.4317C7.8125-38.1665 10.1963-35.3354 14.2925-35.3354L29.0098-35.3354C28.6294-34.1387 28.3955-32.8931 28.3955-31.7871C28.3955-28.5859 30.125-26.2602 32.8584-25.6367C32.4258-24.29 32.1397-22.9853 32.1397-21.7646C32.1397-18.5771 33.9429-16.4048 36.6489-15.6553C36.7012-8.94627 41.541-5.40085 50.6822-5.40085L57.9058-5.40085C76.1211-5.40085 84.8634-16.4214 84.8634-30.7334ZM82.833-30.7129C82.833-17.5312 74.5967-7.6377 57.8511-7.6377L50.7505-7.6377C42.8794-7.6377 38.7701-10.314 38.7701-15.3984L44.1636-15.3984C45.272-15.3984 45.6719-15.9448 45.6719-16.5049C45.6719-17.1104 45.272-17.6182 44.1636-17.6182L39.1192-17.6182C35.9502-17.6182 34.1846-19.2827 34.1846-22.001C34.1846-23.0059 34.4253-24.29 34.8545-25.4243L42.6011-25.4243C43.7129-25.4243 44.1548-25.9253 44.1548-26.5308C44.1548-27.0908 43.7129-27.6406 42.6011-27.6406L35.333-27.6406C32.1607-27.6406 30.3951-29.2178 30.3951-32.0234C30.3951-33.0317 30.6812-34.2705 31.065-35.356L41.1329-35.356C41.9234-35.356 42.5958-35.7241 42.5958-36.4624C42.5958-37.2529 41.9234-37.6211 41.1329-37.6211L14.2617-37.6211C11.5674-37.6211 9.81204-39.0552 9.81204-41.4317C9.81204-43.8955 11.5674-45.3818 14.2617-45.3818L52.7359-45.3818C54.2315-45.3818 55.0152-46.4175 55.0152-47.6792C55.0152-48.7354 54.5132-49.603 53.2696-50.1255L40.6573-55.147C38.668-55.9566 37.5235-57.2759 37.5235-58.8213C37.5235-60.9253 39.1461-62.5308 41.0513-62.5308C41.9166-62.5308 42.5411-62.3877 43.2598-62.1016L64.8311-54.5288C76.1793-50.5825 82.833-42.0762 82.833-30.7129Z"/>
</svg>