<svg xmlns="http://www.w3.org/2000/svg" viewBox="6.83594 -72.4785 74.45 74.45">
  <path d="M44.0606 1.97072C64.521 1.97072 81.2886-14.7969 81.2886-35.2539C81.2886-55.7109 64.521-72.4785 44.0606-72.4785C23.6035-72.4785 6.83594-55.7109 6.83594-35.2539C6.83594-14.7969 23.6035 1.97072 44.0606 1.97072ZM22.2183-28.7212C22.2183-35.3062 25.6987-40.4785 30.4419-40.4785L33.7871-40.4785C32.2495-38.1348 30.1499-34.7349 30.0557-28.9619C30.0034-23.9463 31.9292-19.7471 36.1499-17.0933L31.2651-17.0933C25.9883-17.0933 22.2183-22.4155 22.2183-28.7212ZM31.815-28.9131C31.8218-33.9424 33.189-37.064 35.9654-40.7192C39.188-45.0195 43.478-50.0034 46.6099-56.2012C47.4365-57.8125 48.2144-58.8379 49.7315-58.8379C51.3882-58.8379 52.6612-57.666 52.6612-55.7129C52.6612-51.9565 49.0547-46.6865 49.0547-43.8057C49.0547-42.2397 50.3628-41.2632 52.2739-41.2632L59.7935-41.2632C61.8897-41.2632 63.501-39.5576 63.501-37.5C63.501-36.2896 63.0615-35.3096 62.4302-34.7656C62.085-34.4727 61.9873-34.2354 62.3325-33.9424C62.9151-33.4507 63.208-32.373 63.208-31.3999C63.208-29.9805 62.5733-28.77 61.5933-28.2261C61.2061-27.9854 61.1572-27.7344 61.4014-27.3926C61.8897-26.8101 62.1406-25.9312 62.1406-25C62.1406-23.2944 61.0596-22.1123 59.7446-21.5366C59.5005-21.3936 59.4551-21.1948 59.6016-20.9019C59.8877-20.4658 60.1319-19.8242 60.1319-19.0464C60.1319-16.9956 58.4717-15.9771 56.8081-15.5796C55.6362-15.2446 53.6343-15.0493 50.8545-15.0947L47.9248-15.0981C38.0127-15.1924 31.8047-21.1006 31.815-28.9131Z"/>
</svg>