<svg xmlns="http://www.w3.org/2000/svg" viewBox="6.83594 -72.4785 74.45 74.45">
  <path d="M44.0606 1.97072C64.6118 1.97072 81.2886-14.7026 81.2886-35.2539C81.2886-55.8052 64.6118-72.4785 44.0606-72.4785C23.5127-72.4785 6.83594-55.8052 6.83594-35.2539C6.83594-14.7026 23.5127 1.97072 44.0606 1.97072ZM44.0606-0.274438C24.7046-0.274438 9.0391-15.898 9.0391-35.2539C9.0391-54.6099 24.7046-70.2334 44.0606-70.2334C63.4165-70.2334 79.04-54.6099 79.04-35.2539C79.04-15.898 63.4165-0.274438 44.0606-0.274438ZM23.9829-35.3936C23.9829-29.2886 25.6953-22.6948 28.6704-17.5259C28.959-17.0181 29.5713-16.8965 30.1768-17.1816C30.6846-17.4565 30.8516-18.1245 30.521-18.688C27.7163-23.7285 26.1641-29.727 26.1641-35.3936C26.1641-46.9892 33.3472-54.8491 44.0606-54.8491C54.7773-54.8491 62.0127-46.9858 62.0127-35.3936C62.0127-29.8179 60.415-23.8159 57.6455-18.688C57.2729-18.1279 57.4399-17.46 57.9478-17.1816C58.5498-16.8965 59.169-17.0181 59.4541-17.5259C62.4326-22.7085 64.1905-29.2988 64.1905-35.3936C64.1905-48.4512 56.1553-57.0269 44.0606-57.0269C31.9727-57.0269 23.9829-48.4546 23.9829-35.3936ZM28.4917-18.2686C29.1333-16.2676 30.7539-15.4453 32.7061-16.0937C34.7105-16.6899 35.5748-18.3491 34.9297-20.3501L31.7447-30.1826C31.0997-32.187 29.4859-32.957 27.4395-32.3154C25.5293-31.8101 24.6617-30.1021 25.3067-28.1011ZM59.6328-18.2686L62.8145-28.1011C63.4595-30.1055 62.5986-31.8101 60.685-32.3154C58.6387-32.957 57.0249-32.187 56.3799-30.1826L53.1948-20.3467C52.5498-18.3003 53.4106-16.6899 55.4184-16.0937C57.374-15.4033 58.9912-16.2676 59.6328-18.2686Z" />
</svg>