<svg xmlns="http://www.w3.org/2000/svg" viewBox="9.76562 -67.9429 58.84 65.33">
  <path d="M31.3184-2.61031L47.0533-2.61031C61.2984-2.61031 68.6095-11.1997 68.6095-23.687C68.6095-32.4488 60.567-48.9776 48.6993-65.6177C47.7359-66.9151 46.4493-67.9429 44.4478-67.9429L33.9273-67.9429C31.9712-67.9429 30.6392-66.9151 29.7178-65.6177C17.8081-48.9776 9.76562-32.4488 9.76562-23.687C9.76562-11.1997 17.0767-2.61031 31.3184-2.61031ZM11.9834-23.687C11.9834-31.7783 19.9073-47.8613 31.2178-64.3237C31.9673-65.3662 32.4273-65.7705 34.0284-65.7705L44.3467-65.7705C45.9478-65.7705 46.4078-65.3662 47.1573-64.3237C58.5133-47.8613 66.3917-31.7783 66.3917-23.687C66.3917-12.5586 59.9395-4.78271 47.0533-4.78271L31.3184-4.78271C18.4356-4.78271 11.9834-12.5586 11.9834-23.687ZM20.2813-50.7266L20.1856-48.5088L58.1475-48.5088L58.0518-50.7266ZM11.4302-22.9438L32.2588-22.9438L32.2588-25.1162L11.4302-25.1162ZM39.1666-16.4677C43.3878-16.4677 46.7061-19.7861 46.7061-24.0107C46.7061-28.2773 43.3878-31.5957 39.1666-31.5957C34.8965-31.5957 31.5816-28.2773 31.5816-24.0107C31.5816-19.7861 34.8965-16.4677 39.1666-16.4677ZM39.1666-18.624C36.0928-18.624 33.7344-20.979 33.7344-24.0107C33.7344-27.0845 36.0928-29.4394 39.1666-29.4394C42.1949-29.4394 44.5533-27.0845 44.5533-24.0107C44.5533-20.979 42.1949-18.624 39.1666-18.624ZM46.0255-22.9438L67.7657-22.9438L67.7657-25.1162L46.0255-25.1162Z"/>
</svg>