<svg xmlns="http://www.w3.org/2000/svg" viewBox="9.76562 -68.8482 67.19 67.2">
  <path d="M19.7647-1.65282L66.9585-1.65282C73.4917-1.65282 76.9576-5.20946 76.9576-11.6416L76.9576-58.8594C76.9576-65.2915 73.4917-68.8482 66.9585-68.8482L19.7647-68.8482C13.2349-68.8482 9.76562-65.3823 9.76562-58.8594L9.76562-11.6416C9.76562-5.11864 13.2349-1.65282 19.7647-1.65282ZM35.5493-18.6553C34.8428-18.6553 34.3691-19.1391 34.3691-19.7935L34.3691-34.4033L31.3657-34.4033C30.8989-34.4033 30.6274-34.7202 30.6274-35.187C30.6274-35.6572 30.8989-35.9253 31.3657-35.9253L34.3691-35.9253L34.3691-50.4556C34.3691-51.1133 34.8428-51.5904 35.5493-51.5904C36.1582-51.5904 36.6353-51.1133 36.6353-50.4556L36.6353-35.9253L39.5342-35.9253L52.4121-51.002C52.6768-51.3643 52.9131-51.5904 53.3799-51.5904C53.9717-51.5904 54.3648-51.2041 54.3648-50.5249C54.3648-50.3477 54.2569-50.0796 54.0899-49.8184L42.0196-35.9253L54.4668-35.9253C54.8428-35.9253 55.2085-35.6118 55.2085-35.187C55.2085-34.769 54.8428-34.4033 54.4668-34.4033L42.0127-34.4033L53.999-20.4863C54.3023-20.1274 54.3682-19.8628 54.3682-19.5879C54.3682-19.0654 53.9536-18.6553 53.3799-18.6553C52.9902-18.6553 52.6768-18.8291 52.4053-19.2017L39.5308-34.4033L36.6353-34.4033L36.6353-19.7935C36.6353-19.1391 36.1582-18.6553 35.5493-18.6553Z"/>
</svg>