<svg xmlns="http://www.w3.org/2000/svg" viewBox="6.83594 -71.8823 87.67 73.12">
  <path d="M6.83594-28.0317C6.83594-17.2417 10.8013-7.29198 17.3159 0.359392C18.0518 1.24172 19.2759 1.19631 20.1548 0.36281L27.8985-7.33545C28.666-8.0996 28.6694-9.1079 27.9961-9.96972C23.9785-14.8901 21.6348-21.1924 21.6348-28.0317C21.6348-42.9902 32.9209-55.312 47.3911-56.9404C48.4619-57.0381 49.1944-57.8647 49.1944-58.8901L49.1944-69.7373C49.1944-70.958 48.2666-71.8823 47.0459-71.7393C24.5835-69.9155 6.83594-51.0347 6.83594-28.0317ZM94.502-28.0317C94.502-51.0347 76.8033-69.9155 54.292-71.7393C53.0713-71.8823 52.1436-70.958 52.1436-69.7373L52.1436-58.8901C52.1436-57.8647 52.876-57.0381 53.9922-56.9404C68.417-55.312 79.7066-42.9902 79.7066-28.0317C79.7066-21.1924 77.3628-14.8901 73.3418-9.96972C72.6719-9.1079 72.6753-8.0996 73.4395-7.33545L81.2286 0.36281C82.1075 1.19631 83.377 1.19631 84.1582 0.268573C90.5855-7.3828 94.502-17.2871 94.502-28.0317ZM42.8545-10.9927C43.5054-10.9927 43.979-11.4731 43.979-12.1274L43.979-26.6963L46.8677-26.6963L59.666-11.5356C59.9795-11.1631 60.2964-10.9927 60.6826-10.9927C61.253-10.9927 61.6607-11.3994 61.6607-11.9185C61.6607-12.1899 61.5982-12.4546 61.2984-12.8101L49.2906-26.6963L61.7173-26.6963C62.1387-26.6963 62.4976-27.0586 62.4976-27.4766C62.4976-27.898 62.1387-28.2534 61.7173-28.2534L49.2974-28.2534L61.3438-42.0669C61.5528-42.3315 61.6607-42.5962 61.6607-42.8154C61.6607-43.4912 61.2676-43.832 60.6826-43.832C60.2158-43.832 59.9795-43.6514 59.6729-43.2925L46.8711-28.2534L43.979-28.2534L43.979-42.7007C43.979-43.4004 43.5054-43.832 42.8545-43.832C42.2002-43.832 41.7266-43.4004 41.7266-42.7007L41.7266-28.2534L38.73-28.2534C38.2632-28.2534 37.9531-27.9434 37.9531-27.4731C37.9531-27.0098 38.2632-26.6963 38.73-26.6963L41.7266-26.6963L41.7266-12.1274C41.7266-11.4731 42.2002-10.9927 42.8545-10.9927Z"/>
</svg>