<svg xmlns="http://www.w3.org/2000/svg" viewBox="9.76562 -77.8843 80.77 88.29">
  <path d="M32.7891-16.5307C29.7515-16.5307 27.2544-19.0278 27.2544-22.1177C27.2544-25.1064 29.7515-27.6035 32.7891-27.6035C35.8267-27.6035 38.3272-25.1064 38.3272-22.1177C38.3272-19.0278 35.8267-16.5307 32.7891-16.5307ZM37.4028-3.54441C35.1499-3.54441 33.3364-5.35789 33.3364-7.61082C33.3364-9.82176 35.1499-11.6806 37.4028-11.6806C39.6592-11.6806 41.4727-9.82176 41.4727-7.61082C41.4727-5.35789 39.6592-3.54441 37.4028-3.54441ZM62.9229-32.2275C60.2793-32.2275 58.1695-34.3862 58.1695-37.0264C58.1695-39.6211 60.2793-41.731 62.9229-41.731C65.521-41.731 67.6729-39.6211 67.6729-37.0264C67.6729-34.4316 65.521-32.2275 62.9229-32.2275ZM32.1211-75.1816L36.8545-72.7305C38.3819-71.9697 38.8838-71 38.6782-69.542L38.2388-66.6524L40.3668-66.6558L40.8345-69.3252C41.274-71.6944 40.2325-73.2652 37.7691-74.587L33.0435-77.1494C31.6494-77.8843 30.8281-75.812 32.1211-75.1816ZM68.1851-75.1816C69.4781-75.812 68.6114-77.8843 67.2627-77.1494L62.5371-74.587C60.0283-73.2652 59.0322-71.6944 59.4717-69.3252L59.9395-66.6558L62.0674-66.6524L61.628-69.542C61.4224-71 61.9244-71.9697 63.4517-72.7305ZM33.627-39.9312L25.0005-48.5996L19.1431-53.3672C18.5923-53.8145 17.8179-53.7905 17.4136-53.1978C16.9126-52.5435 17.1318-51.8481 17.7373-51.3471L24.4141-45.9614C21.0303-40.7197 18.8604-33.1762 18.8604-25.8467C18.8604-7.16259 29.8296 5.68166 45.834 7.06838C48.2891 7.22854 49.0694 6.20999 49.0694 4.70412L49.0694-24.4888L40.2915-33.2666C39.458-32.625 38.4678-32.2275 37.3379-32.2275C34.7852-32.2275 32.6333-34.4316 32.6333-37.0264C32.6333-38.1528 33.0274-39.1431 33.627-39.9312ZM19.8579-29.3662L11.0176-29.4082C10.2734-29.4082 9.76562-28.9072 9.76562-28.1767C9.76562-27.3589 10.2734-26.9033 11.063-26.9033L19.8579-26.9067ZM24.2759-7.09033L17.147-1.35351C16.5381-0.807121 16.4097-0.206035 16.9561 0.402859C17.3662 1.06058 18.1489 1.04691 18.7613 0.542507L25.7959-5.05466ZM73.6929-48.1489L75.0733-46.0678L82.5689-52.1225C83.1324-52.5781 83.3482-53.3188 82.8926-53.9243C82.4371-54.582 81.6123-54.5718 81-54.0674ZM80.4483-29.3662L80.4483-26.9067L89.2432-26.9033C90.0328-26.9033 90.5406-27.3589 90.5406-28.1767C90.5406-28.9072 90.0328-29.4082 89.2886-29.4082ZM10.4819-67.4566L87.9454 9.95119C88.4009 10.4068 89.0963 10.4068 89.5484 9.95119C90.046 9.49561 90.004 8.80371 89.5484 8.39354L12.0884-69.0142C11.6782-69.4244 10.9829-69.5152 10.4819-69.0142C10.0752-68.6075 10.0752-67.9087 10.4819-67.4566ZM50.1304-47.4732C56.3589-47.4732 62.3501-48.6905 66.2837-50.5982C68.2745-51.6758 68.9683-52.7491 68.9683-54.625C68.9683-63.7818 60.9571-70.2964 50.1304-70.2964C39.8867-70.2964 31.0708-64.1763 31.4029-54.213L35.5167-50.0083C39.3624-48.4859 44.6329-47.4732 50.1304-47.4732ZM67.4717-27.6035C70.5093-27.6035 73.0064-25.1064 73.0064-22.1177C73.0064-19.5269 71.1343-17.3516 68.7559-16.8667L77.4073-8.16995C80.0391-13.1558 81.4459-19.126 81.4459-25.8467C81.4459-34.6367 78.3174-43.7432 73.7037-48.7803C72.7334-49.8662 71.4048-49.9116 70.5655-49.4585C63.605-45.3994 56.5215-44.459 50.1304-44.459C46.9424-44.459 43.5694-44.686 40.0636-45.5557L62.2696-23.353C62.7545-25.7734 64.8843-27.6035 67.4717-27.6035ZM62.858-3.54441C60.6016-3.54441 58.8335-5.35789 58.8335-7.61082C58.8335-9.5366 60.1597-11.2114 61.9742-11.5908L51.1914-22.3667L51.1914 4.70412C51.1914 6.20999 51.9717 7.22854 54.4268 7.06838C61.6021 6.41653 67.8077 3.46194 72.4292-1.22653L66.8311-6.77585C66.4654-4.9614 64.8257-3.54441 62.858-3.54441Z"/>
</svg>