<svg xmlns="http://www.w3.org/2000/svg" viewBox="9.76562 -79.6572 48.31 85.12">
  <path d="M9.76562-57.415C9.76562-44.5522 18.2437-40.0898 20.416-12.7671C20.5171-11.6655 21.0293-11.1011 22.4067-11.1011L45.438-11.1011C46.8154-11.1011 47.3731-11.6655 47.4741-12.7671C49.6465-40.0898 58.0791-44.5522 58.0791-57.415C58.0791-69.2149 47.4253-79.6572 33.9224-79.6572C20.4648-79.6572 9.76562-69.2149 9.76562-57.415ZM11.9527-57.415C11.9527-68.3013 21.9712-77.4702 33.9224-77.4702C45.8735-77.4702 55.8921-68.3013 55.8921-57.415C55.8921-45.9395 47.7676-41.5625 45.3281-13.2847L22.562-13.2847C20.0772-41.5625 11.9527-45.9395 11.9527-57.415ZM22.7949-4.63475L45.0918-4.63475C45.9141-4.63475 46.5762-5.30028 46.5762-6.16454C46.5762-6.98681 45.9141-7.64892 45.0918-7.64892L22.7949-7.64892C21.9307-7.64892 21.2651-6.98681 21.2651-6.16454C21.2651-5.30028 21.9307-4.63475 22.7949-4.63475ZM33.9224 5.46389C39.7432 5.46389 43.9165 2.85207 44.1675-1.18602L23.7192-1.18602C23.9668 2.85207 28.0982 5.46389 33.9224 5.46389Z"/>
</svg>