<svg xmlns="http://www.w3.org/2000/svg" viewBox="6.83594 -72.4785 74.45 74.45">
  <path d="M44.0606 1.97072C64.6118 1.97072 81.2886-14.7026 81.2886-35.2539C81.2886-55.8052 64.6118-72.4785 44.0606-72.4785C23.5127-72.4785 6.83594-55.8052 6.83594-35.2539C6.83594-14.7026 23.5127 1.97072 44.0606 1.97072ZM44.0606-0.274438C24.7046-0.274438 9.0391-15.898 9.0391-35.2539C9.0391-54.6099 24.7046-70.2334 44.0606-70.2334C63.4165-70.2334 79.04-54.6099 79.04-35.2539C79.04-15.898 63.4165-0.274438 44.0606-0.274438ZM22.2744-45.0097L65.9443-45.0097C66.5318-45.0097 66.9907-45.4585 66.9907-46.0879C66.9907-46.7593 66.5318-47.166 65.9443-47.166L22.2744-47.166C21.6416-47.166 21.1372-46.7593 21.1372-46.0879C21.1372-45.4585 21.6416-45.0097 22.2744-45.0097ZM27.8057-32.4507L60.4131-32.4507C61.0005-32.4507 61.5049-32.8994 61.5049-33.5288C61.5049-34.2036 61.0005-34.6069 60.4131-34.6069L27.8057-34.6069C27.1695-34.6069 26.665-34.2036 26.665-33.5288C26.665-32.8994 27.1695-32.4507 27.8057-32.4507ZM33.5811-19.7553L54.6377-19.7553C55.2285-19.7553 55.7329-20.2041 55.7329-20.8335C55.7329-21.5083 55.2285-21.9116 54.6377-21.9116L33.5811-21.9116C32.9448-21.9116 32.4404-21.5083 32.4404-20.8335C32.4404-20.2041 32.9448-19.7553 33.5811-19.7553Z" />
</svg>