<svg xmlns="http://www.w3.org/2000/svg" viewBox="9.76562 -60.1001 73.48 49.79">
  <path d="M12.2744-55.1211L17.9263-55.1211C19.3096-55.1211 20.4385-56.25 20.4385-57.6333C20.4385-58.9746 19.3096-60.1001 17.9263-60.1001L12.2744-60.1001C10.9365-60.1001 9.76562-58.9746 9.76562-57.6333C9.76562-56.25 10.9365-55.1211 12.2744-55.1211ZM29.1773-56.5244L82.1294-56.5244C82.7657-56.5244 83.2417-56.9517 83.2417-57.6333C83.2417-58.2695 82.7657-58.6968 82.1294-58.6968L29.1773-58.6968C28.5411-58.6968 28.1138-58.2695 28.1138-57.6333C28.1138-56.9517 28.5411-56.5244 29.1773-56.5244ZM12.2744-32.7383L17.9263-32.7383C19.3096-32.7383 20.4385-33.8218 20.4385-35.2051C20.4385-36.5918 19.3096-37.6719 17.9263-37.6719L12.2744-37.6719C10.9365-37.6719 9.76562-36.5918 9.76562-35.2051C9.76562-33.8218 10.9365-32.7383 12.2744-32.7383ZM29.1773-34.0962L82.1294-34.0962C82.7657-34.0962 83.2417-34.5688 83.2417-35.2051C83.2417-35.8413 82.7657-36.314 82.1294-36.314L29.1773-36.314C28.5411-36.314 28.1138-35.8413 28.1138-35.2051C28.1138-34.5688 28.5411-34.0962 29.1773-34.0962ZM12.2744-10.31L17.9263-10.31C19.3096-10.31 20.4385-11.439 20.4385-12.7768C20.4385-14.1636 19.3096-15.2891 17.9263-15.2891L12.2744-15.2891C10.9365-15.2891 9.76562-14.1636 9.76562-12.7768C9.76562-11.439 10.9365-10.31 12.2744-10.31ZM29.1773-11.7134L82.1294-11.7134C82.7657-11.7134 83.2417-12.1406 83.2417-12.7768C83.2417-13.4585 82.7657-13.8858 82.1294-13.8858L29.1773-13.8858C28.5411-13.8858 28.1138-13.4585 28.1138-12.7768C28.1138-12.1406 28.5411-11.7134 29.1773-11.7134Z" />
</svg>