<svg xmlns="http://www.w3.org/2000/svg" viewBox="9.76562 -71.1817 59.29 73.93">
  <path d="M39.4116 2.74366C40.2666 2.74366 41.2398 2.2339 41.9053 1.87843C62.7393-10.8403 69.0542-14.6733 69.0542-26.4268L69.0542-55.1514C69.0542-59.3755 67.9707-60.7778 63.9478-62.3198C56.8629-65.0244 49.2617-68.1455 42.1802-70.5991C41.2002-70.9409 40.3496-71.1817 39.4116-71.1817C38.4702-71.1817 37.6196-70.9375 36.6397-70.5991C29.6001-67.9287 21.957-65.021 14.8721-62.3198C10.8491-60.8267 9.76562-59.3755 9.76562-55.1514L9.76562-26.4268C9.76562-14.6733 16.2476-11.1675 36.918 1.87843C37.5801 2.23731 38.5532 2.74366 39.4116 2.74366ZM25.3775-20.5464L25.3775-36.6255C25.3775-39.8105 26.7695-41.1777 29.648-41.146L29.648-46.8154C29.648-53.0601 33.5464-57.2266 39.4116-57.2266C45.2735-57.2266 49.1719-53.0601 49.1719-46.8154L49.1719-41.146C52.0503-41.1777 53.4424-39.8105 53.4424-36.6255L53.4424-20.5464C53.4424-17.3931 52.0366-16.0259 49.1695-16.0259L29.6504-16.0259C26.7832-16.0259 25.3775-17.3931 25.3775-20.5464ZM31.6949-41.1494L47.125-41.1494L47.125-46.853C47.125-51.8447 43.9922-55.1479 39.4116-55.1479C34.8277-55.1479 31.6949-51.8447 31.6949-46.853Z"/>
</svg>