<svg xmlns="http://www.w3.org/2000/svg" viewBox="6.83594 -76.3745 82.24 82.29">
  <path d="M47.9566 5.91213C70.6812 5.91213 89.0738-12.4805 89.0738-35.2539C89.0738-57.9819 70.6812-76.3745 47.9566-76.3745C25.2285-76.3745 6.83594-57.9819 6.83594-35.2539C6.83594-12.4805 25.2285 5.91213 47.9566 5.91213ZM47.9566-6.95849C32.3179-6.95849 19.6611-19.6152 19.6611-35.2539C19.6611-50.8926 32.3179-63.5493 47.9566-63.5493C63.5918-63.5493 76.2486-50.8926 76.2486-35.2539C76.2486-19.6152 63.5918-6.95849 47.9566-6.95849ZM29.3179-21.2949C29.8609-21.2949 30.2334-21.6709 30.2334-22.2139L30.2334-33.3755L35.6665-33.3755L40.6523-21.9004C40.8613-21.4653 41.0908-21.2949 41.5679-21.2949C42.0689-21.2949 42.4834-21.5835 42.4834-22.148C42.4834-22.3218 42.3823-22.5728 42.271-22.8511L37.4419-33.8457C40.2852-34.7837 42.2666-37.1797 42.2666-41.1494C42.2666-45.8506 39.4243-48.8711 34.8037-48.8711L29.2691-48.8711C28.7715-48.8711 28.3535-48.4043 28.3535-47.9067L28.3535-22.2139C28.3535-21.6709 28.7681-21.2949 29.3179-21.2949ZM30.2334-34.9668L30.2334-47.1821L34.6367-47.1821C38.3281-47.1821 40.4321-44.7886 40.4321-41.146C40.4321-37.5454 38.5166-34.9668 34.6402-34.9668ZM48.5674-21.2915C49.0547-21.2915 49.4693-21.6607 49.4693-22.1514L49.4693-45.7158L49.7554-45.7158L56.3638-22.6885C56.6113-21.981 56.8442-21.5527 57.6177-21.5527C58.4297-21.5527 58.7046-21.9707 58.9556-22.7373L65.522-45.7158L65.8047-45.7158L65.8047-22.1514C65.8047-21.6607 66.2192-21.2915 66.7066-21.2915C67.1485-21.2915 67.5176-21.6607 67.5176-22.1514L67.5176-47.6977C67.5176-48.5928 66.9849-49.1709 66.1353-49.1709C65.2153-49.1709 64.8643-48.6973 64.6099-47.8227L57.855-24.1538L57.5166-24.1538L50.6221-47.8682C50.4131-48.6518 50.0166-49.1709 49.1455-49.1709C48.2925-49.1709 47.7109-48.5474 47.7109-47.6977L47.7109-22.1514C47.7109-21.6607 48.0801-21.2915 48.5674-21.2915Z" />
</svg>