<svg xmlns="http://www.w3.org/2000/svg" viewBox="6.83594 -72.4297 74.45 74.45">
  <path d="M44.0606 2.01955C64.521 2.01955 81.2886-14.748 81.2886-35.2051C81.2886-55.6621 64.521-72.4297 44.0606-72.4297C23.6035-72.4297 6.83594-55.6621 6.83594-35.2051C6.83594-14.748 23.6035 2.01955 44.0606 2.01955ZM37.04-51.251C37.04-55.1099 40.2017-58.2681 44.0606-58.2681C47.9229-58.2681 51.0811-55.1099 51.0811-51.251C51.0811-47.7329 48.4898-44.853 45.0967-44.3589L45.0967-17.1617C45.0967-13.4024 44.5708-11.5879 44.0606-11.5879C43.5503-11.5879 43.0244-13.4546 43.0244-17.1617L43.0244-44.3589C39.6348-44.8564 37.04-47.7363 37.04-51.251ZM39.8701-53.0532C39.9155-51.8086 40.9649-50.7104 42.2549-50.7104C43.5518-50.7104 44.5523-51.8086 44.5977-53.0532C44.6431-54.3921 43.5518-55.4868 42.2549-55.4868C40.9649-55.4868 39.7793-54.3921 39.8701-53.0532Z"/>
</svg>