<svg xmlns="http://www.w3.org/2000/svg" viewBox="9.72022 -53.7681 95.84 37.02">
  <path d="M21.1328-16.7466L74.4048-16.7466C82.563-16.7466 85.772-21.9687 85.772-35.2573C85.8174-48.5459 82.6084-53.7681 74.4048-53.7681L21.1328-53.7681C12.9292-53.7681 9.72022-48.5459 9.76562-35.2573C9.76562-21.9687 12.9746-16.7466 21.1328-16.7466ZM21.1328-38.0825C19.1558-38.0825 17.5762-39.6167 17.5762-41.5903C17.5762-43.564 19.1558-45.0527 21.1328-45.0527C23.1065-45.0527 24.6372-43.564 24.6372-41.5903C24.6372-39.6167 23.1065-38.0825 21.1328-38.0825ZM87.8814-25.0464L100.111-25.0464C103.524-25.0464 105.559-26.9839 105.559-30.1001L105.559-40.418C105.559-43.5762 103.524-45.5171 100.111-45.5171L87.8814-45.5171C88.5582-42.668 88.8511-39.2817 88.8511-35.2573C88.8511-31.2817 88.5128-27.8955 87.8814-25.0464Z"/>
</svg>