<svg xmlns="http://www.w3.org/2000/svg" viewBox="9.76562 -68.8482 67.19 67.2">
  <path d="M19.7647-1.65282L66.9585-1.65282C73.4917-1.65282 76.9576-5.20946 76.9576-11.6416L76.9576-58.8594C76.9576-65.2915 73.4917-68.8482 66.9585-68.8482L19.7647-68.8482C13.2349-68.8482 9.76562-65.3823 9.76562-58.8594L9.76562-11.6416C9.76562-5.11864 13.2349-1.65282 19.7647-1.65282ZM31.4922-23.8413C30.8901-23.8413 30.4688-24.3183 30.4688-24.9136L30.4688-45.7158C30.4688-46.3145 30.8901-46.7881 31.4434-46.7881C32.0386-46.7881 32.46-46.3145 32.46-45.7158L32.46-42.0518L32.6939-42.0518C33.4649-45.0166 35.1524-46.8823 38.2251-46.8823C41.148-46.8823 42.9614-45.3335 43.6621-42.8047L48.5371-55.5567C48.6939-55.9644 48.9517-56.2222 49.3174-56.2222C49.8296-56.2222 50.0977-55.961 50.0977-55.4942C50.0977-55.2954 50.0489-55.1387 49.9932-54.9819L46.481-45.856C47.3951-46.46 48.585-46.8823 50.0962-46.8823C54.1651-46.8823 56.3135-43.9434 56.3135-39.8633L56.3135-24.9136C56.3135-24.3183 55.8853-23.8413 55.2901-23.8413C54.6494-23.8413 54.2178-24.3183 54.2178-24.9136L54.2178-39.2886C54.2178-42.4839 52.7905-45.0376 49.5918-45.0376C46.166-45.0376 44.4356-42.0796 44.4356-38.6641L44.4356-24.9136C44.4356-24.3183 44.0528-23.8413 43.4121-23.8413C42.7749-23.8413 42.3467-24.3183 42.3467-24.9136L42.3467-35.0644L34.7861-15.3076C34.6226-14.8476 34.4624-14.6421 34.0024-14.6421C33.5391-14.6421 33.2676-14.9487 33.2676-15.3701C33.2676-15.5688 33.3164-15.7676 33.3301-15.8789L42.3467-39.3574L42.3467-39.5396C42.3467-42.585 40.773-45.0376 37.7241-45.0376C34.2461-45.0376 32.5645-41.5767 32.5645-38.0601L32.5645-24.9136C32.5645-24.3183 32.1431-23.8413 31.4922-23.8413Z"/>
</svg>