<svg xmlns="http://www.w3.org/2000/svg" viewBox="6.83594 -76.3745 82.24 82.29">
  <path d="M47.9566 5.91213C70.6812 5.91213 89.0738-12.4805 89.0738-35.2539C89.0738-57.9819 70.6812-76.3745 47.9566-76.3745C25.2285-76.3745 6.83594-57.9819 6.83594-35.2539C6.83594-12.4805 25.2285 5.91213 47.9566 5.91213ZM47.9566-6.95849C32.3179-6.95849 19.6611-19.6152 19.6611-35.2539C19.6611-50.8926 32.3179-63.5493 47.9566-63.5493C63.5918-63.5493 76.2486-50.8926 76.2486-35.2539C76.2486-19.6152 63.5918-6.95849 47.9566-6.95849ZM36.1196-23.8755C36.7671-23.8755 37.1817-24.3071 37.1817-24.9409L37.1817-38.0498C37.1817-41.5596 38.8633-45.0171 42.3345-45.0171C45.4219-45.0171 46.9468-42.519 46.9468-39.4351L46.9468-24.9409C46.9468-24.3037 47.3716-23.8755 48.0054-23.8755C48.6426-23.8755 49.022-24.3037 49.022-24.9409L49.022-38.6538C49.022-42.0625 50.749-45.0171 54.168-45.0171C57.3599-45.0171 58.7871-42.4634 58.7871-39.2749L58.7871-24.9409C58.7871-24.3037 59.2119-23.8755 59.8491-23.8755C60.4864-23.8755 60.8692-24.3037 60.8692-24.9409L60.8692-39.8496C60.8692-43.9614 58.7276-46.8447 54.7144-46.8447C50.8697-46.8447 49.1446-44.3115 48.6914-42.1992L48.4121-42.1992C47.8194-45.0938 45.9571-46.8447 42.8321-46.8447C39.7661-46.8447 38.0855-44.9859 37.3145-42.0313L37.0806-42.0313L37.0806-45.6851C37.0806-46.2837 36.6592-46.7505 36.0674-46.7505C35.521-46.7505 35.0996-46.2837 35.0996-45.6851L35.0996-24.9409C35.0996-24.3071 35.5176-23.8755 36.1196-23.8755ZM38.6265-14.7002C39.0864-14.7002 39.2432-14.9057 39.4033-15.3657L54.5625-54.9727C54.6182-55.1294 54.667-55.2861 54.667-55.4849C54.667-55.9028 54.399-56.1641 53.8936-56.1641C53.5244-56.1641 53.27-55.9063 53.1587-55.544L37.9575-15.9336C37.9019-15.8223 37.853-15.6269 37.853-15.4248C37.853-15.0068 38.1631-14.7002 38.6265-14.7002Z" />
</svg>