<svg xmlns="http://www.w3.org/2000/svg" viewBox="-0.825688 -72.4785 82.11 74.45">
  <path d="M0.984874-41.645C-0.320315-41.645-0.825688-40.7261 0.0625014-39.5176L8.02735-28.1177C8.71339-27.0761 9.67434-27.0761 10.357-28.1177L18.3218-39.4756C19.2066-40.7261 18.7012-41.645 17.3994-41.645ZM81.2886-35.2539C81.2886-55.8052 64.6118-72.4785 44.0606-72.4785C23.5127-72.4785 6.83936-55.8086 6.83594-35.2051C6.83936-34.52 7.36427-34.0859 7.95852-34.0859C8.51077-34.0859 9.0391-34.5234 9.0391-35.2085C9.0391-54.6099 24.7046-70.2334 44.0606-70.2334C63.4165-70.2334 79.04-54.6099 79.04-35.2539C79.04-15.898 63.4165-0.274438 44.0606-0.274438C31.1592-0.274438 19.8453-7.21095 13.8111-17.7309C13.4429-18.2661 12.7964-18.4399 12.2158-18.1797C11.7295-17.8774 11.5557-17.1548 11.9341-16.5219C18.3467-5.4531 30.3946 1.97072 44.0606 1.97072C64.6118 1.97072 81.2886-14.7026 81.2886-35.2539ZM32.2271-23.8755C32.8745-23.8755 33.2891-24.3071 33.2891-24.9409L33.2891-38.0498C33.2891-41.5596 34.9707-45.0171 38.4385-45.0171C41.5293-45.0171 43.0088-42.519 43.0088-39.4351L43.0088-24.9409C43.0088-24.3037 43.479-23.8755 44.1094-23.8755C44.75-23.8755 45.1294-24.3037 45.1294-24.9409L45.1294-38.6538C45.1294-42.0625 46.8531-45.0171 50.2754-45.0171C53.4673-45.0171 54.8911-42.4634 54.8911-39.2749L54.8911-24.9409C54.8911-24.3037 55.3194-23.8755 55.9566-23.8755C56.5484-23.8755 56.9732-24.3037 56.9732-24.9409L56.9732-39.8496C56.9732-43.9614 54.8316-46.8447 50.7764-46.8447C46.9737-46.8447 45.252-44.3115 44.7989-42.1992L44.5161-42.1992C43.9234-45.0938 42.0645-46.8447 38.9395-46.8447C35.8701-46.8447 34.1929-44.9859 33.4219-42.0313L33.1846-42.0313L33.1846-45.6851C33.1846-46.2837 32.7666-46.7505 32.1748-46.7505C31.583-46.7505 31.207-46.2837 31.207-45.6851L31.207-24.9409C31.207-24.3071 31.5796-23.8755 32.2271-23.8755ZM34.7339-14.7002C35.1904-14.7002 35.3506-14.9057 35.5107-15.3657L50.67-54.9727C50.7256-55.1294 50.7744-55.2861 50.7744-55.4849C50.7744-55.9028 50.5064-56.1641 49.9976-56.1641C49.6319-56.1641 49.3775-55.9063 49.2207-55.544L34.0615-15.9336C34.0059-15.8223 33.957-15.6269 33.957-15.4248C33.957-15.0068 34.2705-14.7002 34.7339-14.7002Z" />
</svg>