<svg xmlns="http://www.w3.org/2000/svg" viewBox="9.76562 -68.8482 67.19 67.2">
  <path d="M19.7647-1.65282L66.9585-1.65282C73.4917-1.65282 76.9576-5.20946 76.9576-11.6416L76.9576-58.8594C76.9576-65.2915 73.4917-68.8482 66.9585-68.8482L19.7647-68.8482C13.2349-68.8482 9.76562-65.3823 9.76562-58.8594L9.76562-11.6416C9.76562-5.11864 13.2349-1.65282 19.7647-1.65282ZM25.4283-34.0303C24.793-34.0303 24.2158-34.5766 24.2158-35.1562C24.2158-35.8301 24.7407-36.3799 25.4283-36.3799L61.3437-36.3799C62.0313-36.3799 62.5108-35.8301 62.5108-35.1562C62.5108-34.5766 61.979-34.0303 61.3437-34.0303Z" />
</svg>