<svg xmlns="http://www.w3.org/2000/svg" viewBox="9.76562 -68.8482 67.19 67.2">
  <path d="M19.7647-1.65282L66.9585-1.65282C73.4917-1.65282 76.9576-5.20946 76.9576-11.6416L76.9576-58.8594C76.9576-65.2915 73.4917-68.8482 66.9585-68.8482L19.7647-68.8482C13.2349-68.8482 9.76562-65.3823 9.76562-58.8594L9.76562-11.6416C9.76562-5.11864 13.2349-1.65282 19.7647-1.65282ZM19.8623-3.87405C14.6665-3.87405 11.9834-6.55031 11.9834-11.7564L11.9834-58.7446C11.9834-63.9541 14.6665-66.6269 19.8623-66.6269L66.8609-66.6269C71.875-66.6269 74.7397-63.9541 74.7397-58.7446L74.7397-11.7564C74.7397-6.55031 71.875-3.87405 66.8609-3.87405ZM34.5728-18.3452C35.2373-18.3452 35.5816-18.6758 35.7417-19.3335L37.7652-28.7002L46.3232-28.7002L44.4043-19.6152C44.2407-18.9018 44.7803-18.3452 45.4937-18.3452C46.2071-18.3452 46.6035-18.6758 46.7183-19.3335L48.6963-28.7002L53.5459-28.7002C54.2525-28.7002 54.6558-29.1523 54.6558-29.7681C54.6558-30.3701 54.3116-30.7178 53.6675-30.7178L49.1382-30.7178L51.1128-40.0923L56.2349-40.0923C56.9414-40.0923 57.3448-40.5444 57.3448-41.1602C57.3448-41.7588 57.0005-42.1553 56.3565-42.1553L51.5547-42.1553L53.376-50.8496C53.5362-51.563 53.0386-52.1231 52.2798-52.1231C51.6641-52.1231 51.2676-51.7891 51.1108-51.0859L49.1817-42.1553L40.5782-42.1553L42.4483-50.8496C42.6084-51.5596 42.0689-52.1231 41.3521-52.1231C40.6455-52.1231 40.2978-51.7891 40.1377-51.0859L38.2539-42.1553L33.1318-42.1553C32.4707-42.1553 32.022-41.7031 32.022-41.0874C32.022-40.4854 32.4116-40.0923 33.0103-40.0923L37.8086-40.0923L35.8862-30.7178L30.4429-30.7178C29.7817-30.7178 29.333-30.311 29.333-29.6533C29.333-29.0967 29.7227-28.7002 30.3213-28.7002L35.3535-28.7002L33.4766-19.6152C33.3164-18.9018 33.8594-18.3452 34.5728-18.3452ZM38.1831-30.7256L40.1192-40.123L48.7739-40.123L46.8311-30.7256Z" />
</svg>