<svg xmlns="http://www.w3.org/2000/svg" viewBox="8.56982 -78.7759 81.66 86.99">
  <path d="M13.21-17.415L34.1992 3.57766C38.7905 8.12357 43.7383 8.21439 48.3648 3.58791L80.2066-28.3481C84.4698-32.6113 84.4698-38.1982 80.1963-42.4229L59.2071-63.4121C54.6646-68 49.7622-68.0523 45.1289-63.4224L13.1997-31.5806C8.56982-26.9507 8.6709-22.0063 13.21-17.415ZM14.8789-18.9375C11.1626-22.6084 11.2955-26.5234 14.8858-30.0683L46.5992-61.8271C50.1441-65.372 54.0557-65.5049 57.7266-61.834L78.6216-40.9878C82.3345-37.3623 82.1597-33.3564 78.6148-29.8569L46.856 1.90185C43.3145 5.48876 39.396 5.61815 35.7251 1.90527ZM53.2632-29.6709C57.1753-29.6709 60.3902-32.8891 60.3902-36.8501C60.3902-40.7168 57.1753-43.9316 53.2632-43.9316C49.3443-43.9316 46.1294-40.7168 46.1294-36.8501C46.1294-32.8891 49.3443-29.6709 53.2632-29.6709ZM53.2632-31.6792C50.437-31.6792 48.1377-33.9785 48.1377-36.8501C48.1377-39.6274 50.437-41.9233 53.2632-41.9233C56.0825-41.9233 58.3818-39.6274 58.3818-36.8501C58.3818-33.9785 56.0825-31.6792 53.2632-31.6792ZM52.2612-42.7558L54.3037-42.7558L54.3037-68.8208C54.3037-74.9283 50.6548-78.7759 44.8403-78.7759C39.0259-78.7759 35.3281-74.9283 35.3281-68.8208L35.3281-52.3979L37.374-54.395L37.374-68.8208C37.374-73.6196 40.2856-76.6743 44.8403-76.6743C49.3496-76.6743 52.2612-73.6196 52.2612-68.8208ZM69.357-52.0239L82.0279-38.918L82.0279-32.4126L78.0078-27.4433L78.0078 3.29153C78.0078 6.17483 81.1275 6.30325 82.1099 4.56789L89.0684-8.13033C89.9249-9.70114 90.2315-11.2397 90.2315-13.709L90.2315-38.1372C90.2315-40.8628 89.5865-42.8437 88.0655-44.3648L77.1192-55.311C75.6665-56.7637 73.688-56.7954 72.4092-55.3872Z"/>
</svg>