<svg xmlns="http://www.w3.org/2000/svg" viewBox="9.76562 -68.8482 88.49 67.2">
  <path d="M19.7647-1.65282L88.2539-1.65282C94.7871-1.65282 98.2529-5.20946 98.2529-11.6416L98.2529-58.8594C98.2529-65.2915 94.7871-68.8482 88.2539-68.8482L19.7647-68.8482C13.2349-68.8482 9.76562-65.3823 9.76562-58.8594L9.76562-11.6416C9.76562-5.11864 13.2349-1.65282 19.7647-1.65282ZM43.7046-20.9458C42.1987-20.9458 41.4526-21.793 41.4526-22.9956L41.4526-47.5542C41.4526-48.8023 42.1987-49.6074 43.7046-49.6074L47.6074-49.6074C49.1587-49.6074 49.8594-48.8023 49.8594-47.5542L49.8594-22.9956C49.8594-21.793 49.1587-20.9458 47.6074-20.9458ZM60.3726-20.9458C58.8667-20.9458 58.1626-21.793 58.1626-22.9956L58.1626-47.5542C58.1626-48.8023 58.8667-49.6074 60.3726-49.6074L64.2754-49.6074C65.7813-49.6074 66.5274-48.8023 66.5274-47.5542L66.5274-22.9956C66.5274-21.793 65.7813-20.9458 64.2754-20.9458Z"/>
</svg>