<svg xmlns="http://www.w3.org/2000/svg" viewBox="9.76562 -73.7754 77.49 77.04">
  <path d="M10.9199 3.2676C11.5562 3.2676 12.0288 2.79151 12.0288 2.15869L12.0288-72.6665C12.0288-73.2993 11.5562-73.7754 10.9199-73.7754C10.1963-73.7754 9.76562-73.2993 9.76562-72.6665L9.76562 2.15869C9.76562 2.79151 10.1963 3.2676 10.9199 3.2676ZM86.1515 3.2676C86.7843 3.2676 87.2604 2.79151 87.2604 2.15869L87.2604-72.6665C87.2604-73.2993 86.7843-73.7754 86.1515-73.7754C85.4244-73.7754 84.9972-73.2993 84.9972-72.6665L84.9972 2.15869C84.9972 2.79151 85.4244 3.2676 86.1515 3.2676ZM43.6524-49.6074L80.1431-53.8623C81.2652-54.0122 81.983-54.6255 81.983-55.6079L81.983-65.9717C81.983-67.3662 81.2652-68.1533 80.1431-67.8989L43.2095-59.7764C42.3179-59.5674 41.8126-58.9893 41.8126-58.3101L41.8126-51.2837C41.8126-50.1548 42.5167-49.4541 43.6524-49.6074ZM43.2095-36.729L80.1431-36.729C81.2198-36.729 81.983-37.4434 81.983-38.4746L81.983-48.8838C81.983-50.1387 81.4014-50.8701 80.1431-50.7202L43.2095-46.4585C42.1988-46.354 41.8126-45.6851 41.8126-44.8071L41.8126-38.3247C41.8126-37.3877 42.3839-36.729 43.2095-36.729ZM43.2095-23.854L80.1431-19.5923C81.4014-19.4424 81.983-20.1738 81.983-21.4287L81.983-31.8379C81.983-32.8691 81.2198-33.5835 80.1431-33.5835L43.2095-33.5835C42.3839-33.5835 41.8126-32.9248 41.8126-31.9878L41.8126-25.5054C41.8126-24.6274 42.1988-23.9585 43.2095-23.854ZM43.2095-10.5361L80.1431-2.41356C81.2652-2.15916 81.983-2.94628 81.983-4.34081L81.983-14.7046C81.983-15.687 81.2652-16.3003 80.1431-16.4502L43.6524-20.7051C42.5167-20.8584 41.8126-20.1577 41.8126-19.0288L41.8126-12.0024C41.8126-11.3232 42.3179-10.7451 43.2095-10.5361ZM80.5518-59.5942L86.1515-59.5942L86.1515-61.7129L80.5518-61.7129ZM80.5518-42.6846L86.1515-42.6846L86.1515-44.8067L80.5518-44.8067ZM80.5518-25.7329L86.1515-25.7329L86.1515-27.9004L80.5518-27.9004ZM80.5518-8.82663L86.1515-8.82663L86.1515-10.9487L80.5518-10.9487Z"/>
</svg>