<svg xmlns="http://www.w3.org/2000/svg" viewBox="6.83594 -72.4785 74.45 74.45">
  <path d="M44.0606 1.97072C64.521 1.97072 81.2886-14.7969 81.2886-35.2539C81.2886-55.7109 64.521-72.4785 44.0606-72.4785C23.6035-72.4785 6.83594-55.7109 6.83594-35.2539C6.83594-14.7969 23.6035 1.97072 44.0606 1.97072ZM21.5074-35.2539C21.5074-32.4663 21.9888-29.689 22.9834-27.2363L21.0386-26.4048C19.9746-29.1743 19.3887-32.1914 19.3887-35.2539C19.3887-38.3164 19.9746-41.3789 21.0386-44.103L22.9834-43.2261C21.9434-40.8188 21.5074-38.1323 21.5074-35.2539ZM34.8379-55.854C29.7998-53.541 25.7246-49.4692 23.4605-44.48L21.5122-45.3535C24.0445-50.8403 28.4741-55.2246 33.9575-57.7568ZM44.0571-57.8559C41.1856-57.8559 38.4956-57.3779 36.085-56.331L35.2114-58.2793C37.9321-59.3433 40.9981-59.9746 44.0571-59.9746C47.1231-59.9746 50.1367-59.3433 52.9028-58.2793L52.0815-56.331C49.6255-57.2871 46.8447-57.8559 44.0571-57.8559ZM64.6572-44.48C62.3511-49.5146 58.3213-53.5444 53.2866-55.854L54.1602-57.8057C59.647-55.27 64.0733-50.8403 66.6123-45.3535ZM66.6626-35.2539C66.6626-38.1323 66.1392-40.8188 65.1411-43.2261L67.086-44.0576C68.1499-41.2881 68.7813-38.3164 68.7813-35.2539C68.7813-32.1914 68.1499-29.1743 67.086-26.4048L65.1411-27.2363C66.0937-29.689 66.6626-32.4663 66.6626-35.2539ZM44.0606-10.5786C34.2529-10.5786 25.3447-16.7559 21.5576-25.1543L23.4639-26.0278C24.4688-23.8818 25.7041-21.8858 27.3618-20.127C29.4639-23.3994 35.6909-27.4551 44.0606-27.4551C52.4302-27.4551 58.6606-23.3994 60.7173-20.0816C62.4204-21.8369 63.6103-23.8364 64.6572-26.0278L66.5669-25.1543C62.7798-16.7559 53.8682-10.5786 44.0606-10.5786ZM44.0606-31.1602C39.1358-31.1636 35.3272-35.3979 35.3272-40.811C35.2329-45.98 39.2266-50.4028 44.0606-50.4028C48.8945-50.4028 52.8428-45.98 52.8428-40.811C52.8428-35.3979 48.9854-31.1567 44.0606-31.1602Z"/>
</svg>