<svg xmlns="http://www.w3.org/2000/svg" viewBox="6.83594 -72.4297 74.45 74.45">
  <path d="M44.0606 2.01955C64.521 2.01955 81.2886-14.748 81.2886-35.2051C81.2886-55.6621 64.521-72.4297 44.0606-72.4297C23.6035-72.4297 6.83594-55.6621 6.83594-35.2051C6.83594-14.748 23.6035 2.01955 44.0606 2.01955ZM31.8809-22.7041C25.4844-29.1006 20.6992-36.6201 20.6992-42.8213C20.6992-45.5557 21.6758-47.9971 23.4824-49.7549C24.752-50.9268 26.5098-52.0952 27.9292-52.0952C29.1465-52.0952 29.9278-51.2197 30.9531-49.7549L34.6153-44.5859C35.4488-43.4595 35.7383-42.5317 35.7383-41.6982C35.7383-40.9658 35.5464-40.4287 35.0025-39.4976L33.0005-36.0308C32.8086-35.7344 32.6621-35.4902 32.6621-35.2007C32.6621-34.8589 32.7632-34.5137 32.9029-34.2695C33.7783-32.5254 35.3477-30.5098 37.395-28.4624C39.4946-26.3208 41.7896-24.5596 43.4531-23.7749C43.8892-23.583 44.1821-23.4854 44.5728-23.4854C44.8657-23.4854 45.0611-23.5796 45.4551-23.7749L48.9219-25.6826C50.003-26.272 50.6309-26.415 51.3111-26.415C52.0957-26.415 52.6363-26.2686 54-25.292L59.3223-21.4834C60.7417-20.458 61.3242-19.5859 61.3242-18.7036C61.3242-17.4829 60.7905-16.21 59.1792-14.4067C57.5156-12.5933 55.0254-11.3794 52.0991-11.3794C45.9888-11.3794 38.2774-16.3076 31.8809-22.7041ZM45.7232-35.4888C45.0825-35.4888 44.6509-35.8682 44.6509-36.4565C44.6509-36.6895 44.71-36.9121 45.02-37.2153L56.9595-49.2036L60.0537-52.1865L53.7563-52.0332L47.6548-52.0332C47.1118-52.0332 46.6382-52.5034 46.6348-53.0884C46.6279-53.5894 47.1538-54.1221 47.6548-54.1221L62.2505-54.1221C62.9014-54.1221 63.2842-53.6938 63.2842-53.1269L63.2842-38.7651C63.2842-38.1733 62.8457-37.7349 62.2539-37.7383C61.7109-37.7485 61.2861-38.1802 61.2861-38.7651L61.2861-44.542L61.3975-50.8427L58.4111-47.7939L46.3775-35.7114C46.2173-35.6352 45.9038-35.4888 45.7232-35.4888Z"/>
</svg>