<svg xmlns="http://www.w3.org/2000/svg" viewBox="8.78906 -74.2671 68.07 73.1">
  <path d="M50.688-45.5361L54.5942-45.5361C56.1455-45.5361 56.8496-46.3867 56.8496-47.6348L56.8496-72.1685C56.8496-73.4165 56.1455-74.2671 54.5942-74.2671L50.688-74.2671C49.2241-74.2671 48.478-73.4165 48.478-72.1685L48.478-47.6348C48.478-46.3867 49.2241-45.5361 50.688-45.5361ZM66.9121-45.5361L70.8184-45.5361C72.3242-45.5361 73.0703-46.3867 73.0703-47.6348L73.0703-72.1685C73.0703-73.4165 72.3242-74.2671 70.8184-74.2671L66.9121-74.2671C65.4063-74.2671 64.6987-73.4165 64.6987-72.1685L64.6987-47.6348C64.6987-46.3867 65.4063-45.5361 66.9121-45.5361ZM27.4746-20.1011C38.2158-9.35985 51.1089-1.16795 61.4561-1.16795C66.2686-1.16795 70.4883-3.12791 73.2818-6.22118C75.9287-9.21337 76.8599-11.4209 76.8599-13.4297C76.8599-14.9502 75.8799-16.415 73.5259-18.04L64.5528-24.4185C62.3906-25.9878 61.4073-26.2808 60.0855-26.2808C58.959-26.2808 57.9336-26.0854 56.1133-25.0532L50.3208-21.8623C49.6338-21.4717 49.292-21.4194 48.8003-21.4194C48.1133-21.4194 47.625-21.5693 46.938-21.8623C44.1445-23.1841 40.2666-26.1831 36.7861-29.7056C33.3057-33.186 30.6973-36.5859 29.1904-39.5576C28.9951-39.9028 28.7964-40.4888 28.7964-41.0781C28.7964-41.521 29.044-41.9605 29.3369-42.4522L32.7686-48.2481C33.6997-49.8208 33.9473-50.7031 33.9473-51.9761C33.9473-53.3535 33.459-54.874 32.085-56.7852L26.0029-65.4131C24.2837-67.8648 22.9585-69.3399 20.9497-69.3399C18.4981-69.3399 15.5581-67.4287 13.4482-65.4165C10.4072-62.4732 8.78906-58.3999 8.78906-53.793C8.78906-43.439 16.8276-30.79 27.4746-20.1011Z"/>
</svg>