<svg xmlns="http://www.w3.org/2000/svg" viewBox="9.76562 -68.8482 67.19 67.2">
  <path d="M19.7647-1.65282L66.9585-1.65282C73.4917-1.65282 76.9576-5.20946 76.9576-11.6416L76.9576-58.8594C76.9576-65.2915 73.4917-68.8482 66.9585-68.8482L19.7647-68.8482C13.2349-68.8482 9.76562-65.3823 9.76562-58.8594L9.76562-11.6416C9.76562-5.11864 13.2349-1.65282 19.7647-1.65282ZM19.8623-3.87405C14.6665-3.87405 11.9834-6.55031 11.9834-11.7564L11.9834-58.7446C11.9834-63.9541 14.6665-66.6269 19.8623-66.6269L66.8609-66.6269C71.875-66.6269 74.7397-63.9541 74.7397-58.7446L74.7397-11.7564C74.7397-6.55031 71.875-3.87405 66.8609-3.87405ZM33.5239-18.4736C34.1988-18.4736 34.6123-18.9189 34.6123-19.5518L34.6123-49.0581L51.147-49.0581L51.147-24.419C51.147-20.3022 52.687-18.4033 56.378-18.4033C58.4165-18.4033 59.2378-18.7578 59.2378-19.6768C59.2378-20.2119 58.8902-20.5913 58.1597-20.5913C57.6782-20.5913 57.2774-20.5425 56.3555-20.5425C54.3355-20.5425 53.3692-21.6904 53.3692-24.6528L53.3692-49.0581L59.1499-49.0581C59.7657-49.0581 60.3472-49.416 60.3472-50.1226C60.3472-50.8814 59.8111-51.2359 59.1499-51.2359L26.5776-51.2359C26.0039-51.2359 25.4644-50.8814 25.4644-50.1226C25.4644-49.416 26.0493-49.0581 26.5776-49.0581L32.3901-49.0581L32.3901-19.5518C32.3901-18.9189 32.8003-18.4736 33.5239-18.4736Z" />
</svg>