<svg xmlns="http://www.w3.org/2000/svg" viewBox="9.76562 -68.8482 88.49 67.2">
  <path d="M37.4824-67.9658L24.7871-67.9658L24.7871-31.8999C24.7871-30.0112 25.9614-29.2969 27.188-29.2969L35.0816-29.2969C36.3081-29.2969 37.4824-30.0112 37.4824-31.8999ZM60.3359-67.9658L47.6406-67.9658L47.6406-31.8999C47.6406-30.0112 48.815-29.2969 50.0869-29.2969L57.9316-29.2969C59.207-29.2969 60.3359-30.0112 60.3359-31.8999ZM83.2314-67.9658L70.5361-67.9658L70.5361-31.8999C70.5361-30.0112 71.7105-29.2969 72.9404-29.2969L80.8306-29.2969C82.0571-29.2969 83.2314-30.0112 83.2314-31.8999ZM30.0899-36.1328L30.0899-2.55666L32.1343-2.55666L32.1343-36.1328ZM52.9888-36.1328L52.9888-2.55666L55.0332-2.55666L55.0332-36.1328ZM75.8843-36.1328L75.8843-2.55666L77.9287-2.55666L77.9287-36.1328ZM19.7647-1.65282L88.2539-1.65282C94.7871-1.65282 98.2529-5.20946 98.2529-11.6416L98.2529-58.8594C98.2529-65.2915 94.7871-68.8482 88.2539-68.8482L19.7647-68.8482C13.2349-68.8482 9.76562-65.3823 9.76562-58.8594L9.76562-11.6416C9.76562-5.11864 13.2349-1.65282 19.7647-1.65282ZM19.8623-3.87405C14.6665-3.87405 11.9834-6.55031 11.9834-11.7564L11.9834-58.7446C11.9834-63.9541 14.6665-66.6269 19.8623-66.6269L88.1562-66.6269C93.1704-66.6269 96.0351-63.9541 96.0351-58.7446L96.0351-11.7564C96.0351-6.55031 93.1704-3.87405 88.1562-3.87405Z"/>
</svg>