<svg xmlns="http://www.w3.org/2000/svg" viewBox="9.76562 -68.8482 88.49 67.2">
  <path d="M19.7647-1.65282L88.2539-1.65282C94.7871-1.65282 98.2529-5.20946 98.2529-11.6416L98.2529-58.8594C98.2529-65.2915 94.7871-68.8482 88.2539-68.8482L19.7647-68.8482C13.2349-68.8482 9.76562-65.3823 9.76562-58.8594L9.76562-11.6416C9.76562-5.11864 13.2349-1.65282 19.7647-1.65282ZM19.8623-3.87405C14.6665-3.87405 11.9834-6.55031 11.9834-11.7564L11.9834-58.7446C11.9834-63.9541 14.6665-66.6269 19.8623-66.6269L88.1562-66.6269C93.1704-66.6269 96.0351-63.9541 96.0351-58.7446L96.0351-11.7564C96.0351-6.55031 93.1704-3.87405 88.1562-3.87405ZM55.1529-19.6826L55.1529-50.9194C55.1529-51.5762 54.6382-52.0454 53.9395-52.0454C53.3804-52.0454 52.8691-51.5308 52.8691-50.9194L52.8691-19.6826C52.8691-19.0747 53.3804-18.56 53.9395-18.56C54.6382-18.56 55.1529-19.0293 55.1529-19.6826ZM38.417-34.1382L69.605-34.1382C70.2129-34.1382 70.773-34.6948 70.773-35.2539C70.773-35.9072 70.2617-36.4673 69.605-36.4673L38.417-36.4673C37.7603-36.4673 37.2456-35.9072 37.2456-35.2539C37.2456-34.6948 37.8057-34.1382 38.417-34.1382Z" />
</svg>