<svg xmlns="http://www.w3.org/2000/svg" viewBox="9.76562 -71.2505 68.03 72">
  <path d="M9.76562-52.2393C9.76562-51.6655 10.27-51.1611 10.8438-51.1611L19.8584-51.1611L19.8584-42.1465C19.8584-41.5693 20.3208-41.0683 20.9365-41.0683C21.5137-41.0683 22.0147-41.5727 22.0147-42.1465L22.0147-51.1611L31.0327-51.1611C31.6065-51.1611 32.1109-51.6655 32.1109-52.2393C32.1109-52.8584 31.6065-53.3174 31.0327-53.3174L22.0147-53.3174L22.0147-62.3355C22.0147-62.9092 21.5103-63.4136 20.9365-63.4136C20.3174-63.4136 19.8584-62.9092 19.8584-62.3355L19.8584-53.3174L10.8438-53.3174C10.27-53.3174 9.76562-52.8584 9.76562-52.2393ZM44.5166-34.6279L66.1045-69.1875C66.3726-69.56 66.4805-69.8384 66.4805-70.1723C66.4805-70.7495 66.0079-71.2505 65.3399-71.2505C64.7798-71.2505 64.5401-71.0347 64.0913-70.3667L42.2095-35.2476L21.1108-1.36917C20.8428-0.996605 20.7314-0.672871 20.7314-0.290054C20.7314 0.297359 21.2495 0.746095 21.8858 0.746095C22.3936 0.746095 22.6787 0.523436 23.1206-0.0888765ZM55.4927-13.7486C55.4927-13.1328 55.9517-12.6738 56.5674-12.6738L76.7144-12.6738C77.3335-12.6738 77.7925-13.1328 77.7925-13.7486C77.7925-14.3223 77.3335-14.8267 76.7144-14.8267L56.5674-14.8267C55.9517-14.8267 55.4927-14.3223 55.4927-13.7486Z"/>
</svg>