<svg xmlns="http://www.w3.org/2000/svg" viewBox="9.76562 -74.1822 36.13 78.04">
  <path d="M18.8076 3.85598L36.855 3.85598C42.337 3.85598 45.897 0.302756 45.897-5.17236L45.897-65.1538C45.897-70.6289 42.337-74.1822 36.855-74.1822L18.8076-74.1822C13.3711-74.1822 9.76562-70.6289 9.76562-65.1538L9.76562-5.17236C9.76562 0.302756 13.3711 3.85598 18.8076 3.85598ZM27.833-52.2388C25.0962-52.2388 22.9068-54.477 22.9068-57.1685C22.9068-59.8984 25.0962-62.1367 27.833-62.1367C30.5699-62.1367 32.8047-59.8984 32.8047-57.1685C32.8047-54.477 30.5699-52.2388 27.833-52.2388ZM27.833-30.3242C25.0962-30.3242 22.9068-32.5171 22.9068-35.2539C22.9068-37.9873 25.0962-40.1802 27.833-40.1802C30.5699-40.1802 32.8047-37.9873 32.8047-35.2539C32.8047-32.5171 30.5699-30.3242 27.833-30.3242ZM27.833-8.36767C25.0962-8.36767 22.9068-10.606 22.9068-13.3394C22.9068-16.0274 25.0962-18.2656 27.833-18.2656C30.5699-18.2656 32.8047-16.0274 32.8047-13.3394C32.8047-10.606 30.5699-8.36767 27.833-8.36767Z"/>
</svg>