<svg xmlns="http://www.w3.org/2000/svg" viewBox="9.76562 -68.7573 70.08 67.2">
  <path d="M19.7647-1.562L69.8892-1.562C76.4224-1.562 79.8428-5.11864 79.8428-11.5508L79.8428-58.7686C79.8428-65.2007 76.4224-68.7573 69.8892-68.7573L19.7647-68.7573C13.2349-68.7573 9.76562-65.2915 9.76562-58.7686L9.76562-11.5508C9.76562-5.02782 13.2349-1.562 19.7647-1.562ZM43.6856-17.3164C42.5908-17.3164 41.8447-18.1045 41.8447-19.1992L41.8447-32.1972C41.8447-33.3408 42.6362-34.1323 43.6856-34.1323L45.9195-34.1323C47.0176-34.1323 47.8091-33.3408 47.8091-32.1972L47.8091-19.1992C47.8091-18.0556 47.0176-17.3164 45.9195-17.3164ZM25.9209-40.1601C25.126-40.9551 25.1714-42.1792 25.9243-42.8833L35.02-51.8882C35.8638-52.6865 36.8574-52.6865 37.6523-51.8916L39.1856-50.4038C39.9805-49.6055 40.0259-48.4756 39.231-47.6772L30.1318-38.6269C29.3369-37.8286 28.249-37.8286 27.4541-38.6269ZM62.1997-38.6723C61.3594-37.8286 60.2715-37.874 59.4766-38.6723L50.4229-47.7226C49.6279-48.521 49.6279-49.6055 50.4229-50.4038L52.0015-51.937C52.7964-52.7319 53.9297-52.7319 54.6338-51.9336L63.6841-42.8833C64.4825-42.0884 64.4825-40.9551 63.7329-40.2056Z"/>
</svg>