<svg xmlns="http://www.w3.org/2000/svg" viewBox="9.76562 -68.8482 67.19 67.2">
  <path d="M22.9209-32.1821C22.9209-30.9409 23.7612-30.1006 25.0024-30.1006L26.4878-30.1006L26.4878-27.707C26.4878-21.2549 34.582-15.5112 43.3633-15.5112C52.1411-15.5112 60.2808-21.2549 60.2808-27.707L60.2808-30.1006L61.7207-30.1006C62.9619-30.1006 63.8057-30.9409 63.8057-32.1821L63.8057-38.144C63.8057-39.3399 62.9619-40.1802 61.7207-40.1802L60.2808-40.1802L60.2808-42.6157C60.2808-49.0713 52.1411-54.7695 43.3633-54.7695C34.582-54.7695 26.4878-49.0713 26.4878-42.6157L26.4878-40.1802L25.0024-40.1802C23.7612-40.1802 22.9209-39.3399 22.9209-38.144ZM34.2437-31.4326C32.2495-31.4326 30.5586-33.1235 30.5586-35.1631C30.5586-37.2026 32.2495-38.8936 34.2437-38.8936C36.2866-38.8936 37.9741-37.2026 37.9741-35.1631C37.9741-33.1235 36.2866-31.4326 34.2437-31.4326ZM52.4795-31.4326C50.44-31.4326 48.749-33.1235 48.749-35.1631C48.749-37.2026 50.44-38.8936 52.4795-38.8936C54.5191-38.8936 56.1646-37.2026 56.1646-35.1631C56.1646-33.1235 54.5191-31.4326 52.4795-31.4326ZM19.7647-1.65282L66.9585-1.65282C73.4917-1.65282 76.9576-5.20946 76.9576-11.6416L76.9576-58.8594C76.9576-65.2915 73.4917-68.8482 66.9585-68.8482L19.7647-68.8482C13.2349-68.8482 9.76562-65.3823 9.76562-58.8594L9.76562-11.6416C9.76562-5.11864 13.2349-1.65282 19.7647-1.65282ZM19.8623-3.87405C14.6665-3.87405 11.9834-6.55031 11.9834-11.7564L11.9834-58.7446C11.9834-63.9541 14.6665-66.6269 19.8623-66.6269L66.8609-66.6269C71.875-66.6269 74.7397-63.9541 74.7397-58.7446L74.7397-11.7564C74.7397-6.55031 71.875-3.87405 66.8609-3.87405Z" />
</svg>