<svg xmlns="http://www.w3.org/2000/svg" viewBox="7.12891 -70.3301 81.38 70.44">
  <path d="M44.5166-25.5083C46.4053-23.5742 49.4693-23.5742 51.3545-25.5083C53.2852-27.3481 53.2852-30.4541 51.3545-32.2974C51.1319-32.6109 50.6377-33.0357 50.2652-33.3003L29.2749-49.0679C28.833-49.353 28.3457-49.3779 27.8892-49.0156C27.4395-48.5625 27.5098-48.0298 27.8369-47.5845L43.5625-26.5942C43.8691-26.2251 44.252-25.7309 44.5166-25.5083ZM47.6704-70.3301C26.9956-70.3301 9.96583-55.022 7.2085-35.1035C7.12891-34.3911 7.45509-33.9331 8.20266-33.8706C8.84232-33.8115 9.34233-34.2002 9.41508-34.9058C12.0474-53.6665 28.1568-68.0849 47.6704-68.0849C69.0386-68.0849 86.2949-50.8672 86.2949-29.4956C86.2949-18.8423 81.9551-9.14162 74.9536-2.16506C74.3345-1.53224 74.2685-0.823241 74.6821-0.36425C75.1162 0.108415 75.9126 0.0561684 76.4693-0.545889C83.8697-7.90429 88.5083-18.189 88.5083-29.4956C88.5083-52.0488 70.2237-70.3301 47.6704-70.3301ZM20.6621-0.36425C21.0757-0.823241 21.0098-1.53224 20.3907-2.16506C14.585-7.93898 10.5972-15.6284 9.41508-24.1308C9.34233-24.8364 8.84232-25.1797 8.20266-25.1694C7.45509-25.1069 7.12891-24.6035 7.2085-23.8911C8.45313-14.8501 12.6909-6.73339 18.875-0.545889C19.4317 0.0561684 20.228 0.108415 20.6621-0.36425Z" />
</svg>