<svg xmlns="http://www.w3.org/2000/svg" viewBox="9.76562 -74.7085 81.46 78.84">
  <path d="M19.0425-7.59812L25.6255-7.59812L25.6255-9.78516L19.0357-9.78516C14.1465-9.78516 12.0743-11.8994 12.0743-16.792L12.0743-52.8125C12.0743-57.7016 14.1465-59.8647 19.0357-59.8647L81.9595-59.8647C86.8486-59.8647 88.9175-57.7016 88.9175-52.8125L88.9175-16.792C88.9175-11.8994 86.8486-9.78516 81.9595-9.78516L75.0962-9.78516L75.0962-7.59812L81.9527-7.59812C88.169-7.59812 91.2295-10.5996 91.2295-16.7705L91.2295-52.834C91.2295-59.0049 88.169-62.0064 81.9527-62.0064L19.0425-62.0064C12.8569-62.0064 9.76562-59.0049 9.76562-52.834L9.76562-16.7705C9.76562-10.5996 12.8262-7.59812 19.0425-7.59812ZM24.4551-60.7759L26.7466-60.7759L26.7466-66.5058C26.7466-70.8852 28.3579-72.5386 32.7408-72.5386L68.2544-72.5386C72.6826-72.5386 74.294-70.8852 74.294-66.5058L74.294-60.7827L76.5367-60.7827L76.5367-66.4682C76.5367-72.1953 73.9439-74.7085 68.2476-74.7085L32.7476-74.7085C27.082-74.7085 24.4551-72.1953 24.4551-66.4682ZM32.5615 4.13186L68.4336 4.13186C73.9839 4.13186 76.5616 1.62014 76.5616-3.95065L76.5616-32.6919C76.5616-38.3081 73.9839-40.7744 68.4336-40.7744L32.5615-40.7744C26.9863-40.7744 24.479-38.3081 24.479-32.6919L24.479-3.95065C24.479 1.62014 27.0112 4.13186 32.5615 4.13186ZM34.6285-24.126C34.0127-24.126 33.522-24.5747 33.522-25.1836C33.522-25.7471 34.0127-26.2378 34.6285-26.2378L66.4644-26.2378C67.0767-26.2378 67.5674-25.7471 67.5674-25.1836C67.5674-24.5747 67.0767-24.126 66.4644-24.126ZM34.6285-10.4047C34.0127-10.4047 33.522-10.8955 33.522-11.5044C33.522-12.0679 34.0127-12.562 34.6285-12.562L66.4644-12.562C67.0767-12.562 67.5674-12.0679 67.5674-11.5044C67.5674-10.8955 67.0767-10.4047 66.4644-10.4047ZM67.9097-49.8882C67.9097-47.3808 69.9253-45.5503 72.3384-45.5503C74.5664-45.5503 76.5821-47.5171 76.5821-49.8882C76.5821-52.1582 74.5664-54.2226 72.3384-54.2226C69.9253-54.2226 67.9097-52.1582 67.9097-49.8882Z"/>
</svg>