<svg xmlns="http://www.w3.org/2000/svg" viewBox="9.76562 -68.8482 67.19 67.2">
  <path d="M19.7647-1.65282L66.9585-1.65282C73.4917-1.65282 76.9576-5.20946 76.9576-11.6416L76.9576-58.8594C76.9576-65.2915 73.4917-68.8482 66.9585-68.8482L19.7647-68.8482C13.2349-68.8482 9.76562-65.3823 9.76562-58.8594L9.76562-11.6416C9.76562-5.11864 13.2349-1.65282 19.7647-1.65282ZM19.8623-3.87405C14.6665-3.87405 11.9834-6.55031 11.9834-11.7564L11.9834-58.7446C11.9834-63.9541 14.6665-66.6269 19.8623-66.6269L66.8609-66.6269C71.875-66.6269 74.7397-63.9541 74.7397-58.7446L74.7397-11.7564C74.7397-6.55031 71.875-3.87405 66.8609-3.87405ZM43.3633-17.8232C45.7842-17.8232 47.9712-18.3013 49.8687-19.2119L53.2671-14.5293C53.6011-14.084 53.7954-13.9658 54.2305-13.9658C54.836-13.9658 55.1836-14.4009 55.1836-14.9609C55.1836-15.1519 55.0791-15.4165 54.836-15.8096L51.6499-20.2241C56.0069-23.0869 58.6197-28.4898 58.6197-35.3301C58.6197-45.583 52.5943-52.6099 43.3633-52.6099C34.1323-52.6099 28.1069-45.583 28.1069-35.3301C28.1069-24.8955 34.1323-17.8232 43.3633-17.8232ZM43.3633-19.9737C35.6319-19.9737 30.4087-26.0996 30.4087-35.3301C30.4087-44.3335 35.6319-50.5049 43.3633-50.5049C51.0947-50.5049 56.3633-44.3335 56.3633-35.3301C56.3633-29.3633 54.1992-24.5445 50.3911-21.9771L46.5865-27.2339C46.2661-27.6587 46.0821-27.7735 45.6504-27.7735C45.0972-27.7735 44.6973-27.3804 44.6973-26.8306C44.6973-26.5942 44.8052-26.3262 45.0278-25.9502L48.6269-20.9512C47.1646-20.2984 45.4683-19.9737 43.3633-19.9737Z" />
</svg>