<svg xmlns="http://www.w3.org/2000/svg" viewBox="9.76562 -70.0396 80.79 74.14">
  <path d="M28.919 4.10354C29.6597 4.10354 30.2164 3.70705 30.8551 3.17627L44.7584-8.6787L76.5625-8.6787C85.1231-8.6787 90.5591-14.2192 90.5591-22.6753L90.5591-56.043C90.5591-64.499 85.1231-70.0396 76.5625-70.0396L23.7622-70.0396C15.2017-70.0396 9.76562-64.5899 9.76562-56.043L9.76562-22.6753C9.76562-14.1284 15.2017-8.6787 23.7622-8.6787L27.3125-8.6787L27.3125 2.26416C27.3125 3.40822 27.9771 4.10354 28.919 4.10354ZM29.4087 1.68113L29.4087-9.8047C29.4087-10.5625 29.0748-10.8965 28.3169-10.8965L23.8531-10.8965C16.5821-10.8965 11.9834-15.5645 11.9834-22.7661L11.9834-55.9521C11.9834-63.1958 16.5821-67.8183 23.8531-67.8183L76.4717-67.8183C83.561-67.8183 88.3413-63.1958 88.3413-55.9521L88.3413-22.7661C88.3413-15.5645 83.561-10.8965 76.4717-10.8965L45.1397-10.8965C44.1128-10.8965 43.5733-10.6909 42.6465-9.89358ZM31.6094-43.0327C31.6094-38.8198 34.48-35.7651 38.6441-35.7651C40.479-35.7651 42.1777-36.3691 43.2905-37.8169L43.6289-37.8169C42.2583-33.7905 38.2559-31.4321 36.3457-30.8848C35.2442-30.585 34.8955-30.1284 34.8955-29.4277C34.8955-28.6748 35.4986-28.0718 36.3491-28.0718C39.312-28.0718 47.5264-32.0781 47.5264-41.6167C47.5264-47.1104 43.6612-50.5728 39.355-50.5728C34.9434-50.5728 31.6094-47.2627 31.6094-43.0327ZM52.7564-43.0327C52.7564-38.8198 55.6235-35.7651 59.791-35.7651C61.6226-35.7651 63.3247-36.3691 64.4375-37.8169L64.8213-37.8169C63.4961-33.7905 59.4448-31.4321 57.4927-30.8848C56.4365-30.585 56.0425-30.1284 56.0425-29.4277C56.0425-28.6748 56.6421-28.0718 57.4961-28.0718C60.5044-28.0718 68.6699-32.0781 68.6699-41.6167C68.6699-47.1104 64.8535-50.5728 60.502-50.5728C56.0903-50.5728 52.7564-47.2627 52.7564-43.0327Z"/>
</svg>