<svg xmlns="http://www.w3.org/2000/svg" viewBox="9.76562 -70.0396 80.79 74.16">
  <path d="M28.896 4.12405C29.5606 4.12405 30.1421 3.74465 30.7398 3.20265L44.649-8.68212L76.5625-8.68212C85.1231-8.68212 90.5591-14.2192 90.5591-22.6753L90.5591-56.043C90.5591-64.499 85.1231-70.0396 76.5625-70.0396L23.7622-70.0396C15.2017-70.0396 9.76562-64.5899 9.76562-56.043L9.76562-22.6753C9.76562-14.1284 15.2017-8.68212 23.7622-8.68212L27.3091-8.68212L27.3091 2.36329C27.3091 3.45607 27.9986 4.12405 28.896 4.12405ZM31.5615-43.0396C31.5615-47.2798 34.9058-50.6001 39.3277-50.6001C43.6475-50.6001 47.5196-47.124 47.5196-41.6201C47.5196-32.103 39.3301-28.0376 36.315-28.0376C35.4575-28.0376 34.8545-28.644 34.8545-29.4424C34.8545-30.1499 35.2031-30.561 36.3115-30.8574C38.2251-31.4082 42.2344-33.7769 43.6084-37.8066L43.27-37.8066C42.1538-36.3589 40.4517-35.7515 38.6167-35.7515C34.4356-35.7515 31.5615-38.8164 31.5615-43.0396ZM52.7632-43.0396C52.7632-47.2798 56.104-50.6001 60.5259-50.6001C64.8457-50.6001 68.7212-47.124 68.7212-41.6201C68.7212-32.103 60.5318-28.0376 57.5166-28.0376C56.6592-28.0376 56.0527-28.644 56.0527-29.4424C56.0527-30.1499 56.4468-30.561 57.5098-30.8574C59.4722-31.4082 63.4815-33.7769 64.8101-37.8066L64.4717-37.8066C63.3555-36.3589 61.6533-35.7515 59.815-35.7515C55.6372-35.7515 52.7632-38.8164 52.7632-43.0396Z"/>
</svg>