<svg xmlns="http://www.w3.org/2000/svg" viewBox="9.76562 -71.8931 77.02 73.29">
  <path d="M38.3194 1.39212L76.7891 1.39212C83.3223 1.39212 86.7881-2.07028 86.7881-8.59325L86.7881-47.0903C86.7881-53.6133 83.3223-57.0757 76.7891-57.0757L67.6104-57.0757L67.6104-54.8579L76.6914-54.8579C81.8872-54.8579 84.5703-52.1816 84.5703-46.9722L84.5703-8.71141C84.5703-3.50195 81.8872-0.825688 76.6914-0.825688L38.417-0.825688C33.4029-0.825688 30.5381-3.50195 30.5381-8.71141L30.5381-14.3809L28.3203-14.3809L28.3203-8.59325C28.3203-2.1611 31.7896 1.39212 38.3194 1.39212ZM19.7647-13.4253L58.2344-13.4253C64.7676-13.4253 68.2334-16.8877 68.2334-23.4107L68.2334-61.9077C68.2334-68.4307 64.7676-71.8931 58.2344-71.8931L19.7647-71.8931C13.2349-71.8931 9.76562-68.3399 9.76562-61.9077L9.76562-23.4107C9.76562-16.9785 13.2349-13.4253 19.7647-13.4253ZM19.8623-15.6431C14.8482-15.6431 11.9834-18.3194 11.9834-23.5288L11.9834-61.7896C11.9834-66.999 14.8482-69.6753 19.8623-69.6753L58.1367-69.6753C63.3325-69.6753 66.0156-66.999 66.0156-61.7896L66.0156-23.5288C66.0156-18.3194 63.3325-15.6431 58.1367-15.6431ZM29.4541-25.4863C30.1631-25.4863 30.6119-25.9976 30.6119-26.668L30.6119-39.813L40.0191-39.813L47.8232-26.3736C48.2129-25.7124 48.4561-25.4863 49.0615-25.4863C49.649-25.4863 50.0557-25.8897 50.0557-26.4668C50.0557-26.8496 49.9512-27.0826 49.6411-27.5913L42.3174-40.0664C47.1207-40.9512 50.1832-44.686 50.1832-49.6494C50.1832-55.5034 45.9678-59.5415 39.8604-59.5415L29.3633-59.5415C28.7065-59.5415 28.3066-59.02 28.3066-58.2656L28.3066-26.668C28.3066-26.0044 28.7974-25.4863 29.4541-25.4863ZM30.6119-41.9326L30.6119-57.4014L39.8862-57.4014C44.6372-57.4014 47.8848-54.3345 47.8848-49.6812C47.8848-45.0347 44.6441-41.9326 39.8726-41.9326Z"/>
</svg>