<svg xmlns="http://www.w3.org/2000/svg" viewBox="6.83594 -72.4785 74.45 74.45">
  <path d="M44.0606 1.97072C64.6118 1.97072 81.2886-14.7026 81.2886-35.2539C81.2886-55.8052 64.6118-72.4785 44.0606-72.4785C23.5127-72.4785 6.83594-55.8052 6.83594-35.2539C6.83594-14.7026 23.5127 1.97072 44.0606 1.97072ZM44.0606-0.274438C24.7046-0.274438 9.0391-15.898 9.0391-35.2539C9.0391-54.6099 24.7046-70.2334 44.0606-70.2334C63.4165-70.2334 79.04-54.6099 79.04-35.2539C79.04-15.898 63.4165-0.274438 44.0606-0.274438ZM20.2232-35.2539C20.2232-29.3672 24.98-24.6103 30.8667-24.6103L57.2544-24.6103C63.1411-24.6103 67.9434-29.3672 67.9434-35.2539C67.9434-41.1406 63.1411-45.9429 57.2544-45.9429C51.3711-45.9429 46.6563-41.1406 46.6563-35.2539C46.6563-31.7749 48.2969-28.6626 50.9844-26.6675L37.1368-26.6675C39.8242-28.6626 41.5103-31.7749 41.5103-35.2539C41.5103-41.1406 36.75-45.9429 30.8667-45.9429C24.98-45.9429 20.2232-41.1406 20.2232-35.2539ZM22.2803-35.2573C22.2803-40.0024 26.1216-43.8403 30.8701-43.8403C35.5698-43.8403 39.4077-40.0024 39.4077-35.2573C39.4077-30.5054 35.5733-26.7129 30.8701-26.7129C26.1182-26.7129 22.2803-30.5088 22.2803-35.2573ZM48.7588-35.2573C48.7588-40.0024 52.5513-43.8403 57.251-43.8403C61.9541-43.8403 65.8862-40.0024 65.8862-35.2573C65.8862-30.5088 61.9575-26.7129 57.251-26.7129C52.5479-26.7129 48.7588-30.5054 48.7588-35.2573Z" />
</svg>