<svg xmlns="http://www.w3.org/2000/svg" viewBox="6.83594 -72.4785 74.45 74.45">
  <path d="M44.0606 1.97072C64.521 1.97072 81.2886-14.7969 81.2886-35.2539C81.2886-55.7109 64.521-72.4785 44.0606-72.4785C23.6035-72.4785 6.83594-55.7109 6.83594-35.2539C6.83594-14.7969 23.6035 1.97072 44.0606 1.97072ZM18.5581-27.7378C16.9341-27.7378 15.979-27.7231 15.0274-28.1958C14.982-28.3355 15.0728-28.709 15.0728-28.8067L15.0274-38.9614C15.0274-41.6392 17.7061-42.8101 19.8243-41.6777C21.5127-40.7568 23.1001-40.1323 25.5562-40.0869C28.2949-40.1323 30.9395-41.5244 33.4014-44.7222C35.9551-47.9561 38.794-48.1299 42.188-46.2778L43.4043-45.6191L39.7241-40.4492C39.4278-40.0098 39.5254-39.4067 39.9649-39.1069C40.4077-38.8071 41.0528-38.898 41.356-39.3442L45.0918-44.5835L47.6875-43.0869L44.2549-38.3008C43.9483-37.8511 44.0947-37.2583 44.5376-36.9131C44.9873-36.6064 45.5801-36.7007 45.9253-37.1504L49.3784-42.0967L51.9321-40.6035L48.7822-36.1524C48.4824-35.7026 48.5767-35.1587 49.0196-34.8101C49.4658-34.5034 50.1074-34.6011 50.4107-35.0474L53.6719-39.6133C55.1309-38.8174 55.8008-38.7266 57.5108-38.772C59.4434-38.772 64.2988-39.5498 66.3462-39.5498C70.5903-39.501 72.5752-36.7705 72.7549-35.417C72.8711-34.4834 71.8594-33.1524 69.4995-32.1211L62.689-29.0234C60.6777-28.0581 58.6724-27.7412 54.6558-27.7412ZM21.1914-22.144C17.8599-22.144 15.8599-23.5395 15.1909-26.4014C16.2505-25.8687 17.0762-25.7573 18.6524-25.7573L54.7466-25.7573C58.7315-25.7573 60.8198-26.123 63.3579-27.2837L70.2559-30.4756C71.6846-31.148 72.6055-32.2573 73.1289-33.2227C73.1323-33.1079 73.1812-33.0352 73.1323-32.9102C73.1812-30.0679 71.6504-27.8433 67.8941-25.7471C63.0737-23.0229 59.7886-22.144 54.7227-22.144Z"/>
</svg>