<svg xmlns="http://www.w3.org/2000/svg" viewBox="9.76562 -74.4912 70.09 78.42">
  <path d="M58.2891 3.92435C62.4273 3.92435 65.8614 0.49026 65.8614-3.64793C65.8614-7.82812 62.4273-11.2168 58.2891-11.2168C54.1089-11.2168 50.6748-7.82812 50.6748-3.64793C50.6748 0.49026 54.1089 3.92435 58.2891 3.92435ZM58.2891 1.42433C55.397 1.42433 53.1714-0.843248 53.1714-3.69334C53.1714-6.54344 55.397-8.7656 58.2891-8.7656C61.1426-8.7656 63.3613-6.54344 63.3613-3.69334C63.3613-0.843248 61.1426 1.42433 58.2891 1.42433ZM51.9654-4.75684L10.8745-4.75684C10.2383-4.75684 9.76562-4.23876 9.76562-3.64793C9.76562-3.05368 10.2383-2.53561 10.8745-2.53561L51.9654-2.53561ZM78.7578-4.75684L64.4405-4.75684L64.4405-2.53561L78.7578-2.53561C79.3838-2.53561 79.8565-3.05368 79.8565-3.64793C79.8565-4.23876 79.3838-4.75684 78.7578-4.75684ZM47.228-19.1387C62.5239-19.1387 74.9253-31.5401 74.9253-46.8394C74.9253-62.0899 62.5239-74.4912 47.228-74.4912C31.9775-74.4912 19.5727-62.0899 19.5727-46.8394C19.5727-31.5401 31.9775-19.1387 47.228-19.1387ZM47.228-21.3199L47.228-72.3521C61.3447-72.3521 72.7407-60.9072 72.7407-46.8394C72.7407-32.7193 61.3447-21.3199 47.228-21.3199Z"/>
</svg>