<svg xmlns="http://www.w3.org/2000/svg" viewBox="6.83594 -72.4785 74.45 74.45">
  <path d="M44.0606 1.97072C64.521 1.97072 81.2886-14.7969 81.2886-35.2539C81.2886-55.7109 64.521-72.4785 44.0606-72.4785C23.6035-72.4785 6.83594-55.7109 6.83594-35.2539C6.83594-14.7969 23.6035 1.97072 44.0606 1.97072ZM25.3096-22.0034C20.1338-22.0034 17.5777-24.5981 17.3506-29.23C17.3052-29.5855 17.5562-29.8433 17.9185-29.8433L21.71-29.8433C22.062-29.8433 22.2222-29.6411 22.2744-29.2856C22.4278-27.2974 23.5689-26.1108 25.4038-26.1108C27.19-26.1108 28.1846-27.1021 28.1846-28.8848C28.1846-30.5732 27.1831-31.4351 24.6543-32.7012L23.0567-33.5698C19.1572-35.5229 17.689-37.668 17.689-41.2812C17.689-45.6724 20.521-48.6055 25.3096-48.6055C30.2481-48.6055 32.5952-45.8018 32.8257-41.4277C32.8257-41.0234 32.5713-40.8599 32.2544-40.8599L28.7071-40.8599C28.3482-40.8599 28.1494-41.0166 28.0938-41.3755C27.8428-43.3569 26.981-44.498 25.3096-44.498C23.771-44.498 22.7627-43.3989 22.7627-41.8638C22.7627-40.0947 23.5791-39.125 26.0489-37.8169L27.6079-37.0356C31.7935-34.8872 33.2129-33.1328 33.2129-29.4253C33.2129-24.9331 30.2832-22.0034 25.3096-22.0034ZM44.1514-22.0034C38.1489-22.0034 35.0274-26.4854 35.0274-35.2539C35.0274-44.0156 38.1455-48.5601 44.1514-48.5601C50.0596-48.5601 53.2232-44.0156 53.2232-35.2539C53.2232-26.4854 50.0562-22.0034 44.1514-22.0034ZM44.1514-26.3936C46.6563-26.3936 47.9961-29.1357 47.9961-35.2539C47.9961-41.3721 46.6563-44.1631 44.1514-44.1631C41.5454-44.1631 40.251-41.3721 40.251-35.2539C40.251-29.1357 41.5454-26.3936 44.1514-26.3936ZM63.042-22.0034C57.8208-22.0034 55.3135-24.5981 54.9922-29.23C54.9922-29.5855 55.2466-29.8433 55.5601-29.8433L59.397-29.8433C59.7525-29.8433 59.9126-29.6411 59.9649-29.2856C60.1636-27.2974 61.2593-26.1108 63.0908-26.1108C64.9712-26.1108 65.875-27.1021 65.875-28.8848C65.875-30.5732 64.919-31.3896 62.3901-32.7012L60.8345-33.5698C56.8897-35.6138 55.376-37.668 55.376-41.2812C55.376-45.6724 58.208-48.6055 63.042-48.6055C67.9351-48.6055 70.2857-45.8018 70.6035-41.4277C70.6035-41.0234 70.3525-40.8599 69.9902-40.8599L66.3941-40.8599C66.084-40.8599 65.8853-41.0166 65.875-41.3755C65.6206-43.3569 64.7168-44.498 63.042-44.498C61.5068-44.498 60.4497-43.3989 60.4497-41.8638C60.4497-40.0947 61.2695-39.0796 63.7393-37.8169L65.3403-37.0356C69.5747-34.8872 70.9453-33.1328 70.9453-29.4253C70.9453-24.9331 68.061-22.0034 63.042-22.0034Z"/>
</svg>