<svg xmlns="http://www.w3.org/2000/svg" viewBox="9.76562 -68.7573 67.2 67.21">
  <path d="M11.7861-1.55174C12.9219-1.55174 13.8521-2.48534 13.8521-3.57568C13.8521-4.71143 12.9219-5.64161 11.7861-5.64161C10.6958-5.64161 9.76562-4.71143 9.76562-3.57568C9.76562-2.48534 10.6958-1.55174 11.7861-1.55174ZM11.7861-12.0669C12.9219-12.0669 13.8521-12.9971 13.8521-14.0874C13.8521-15.2231 12.9219-16.1113 11.7861-16.1113C10.6958-16.1113 9.76562-15.2231 9.76562-14.0874C9.76562-12.9971 10.6958-12.0669 11.7861-12.0669ZM11.7861-22.582C12.9219-22.582 13.8521-23.4668 13.8521-24.6025C13.8521-25.7383 12.9219-26.6231 11.7861-26.6231C10.6958-26.6231 9.76562-25.7383 9.76562-24.6025C9.76562-23.4668 10.6958-22.582 11.7861-22.582ZM11.7861-33.1426C12.9219-33.1426 13.8521-34.0273 13.8521-35.1631C13.8521-36.2988 12.9219-37.1836 11.7861-37.1836C10.6958-37.1836 9.76562-36.2988 9.76562-35.1631C9.76562-34.0273 10.6958-33.1426 11.7861-33.1426ZM22.3467-33.1426C23.4824-33.1426 24.3672-34.0273 24.3672-35.1631C24.3672-36.2988 23.4824-37.1836 22.3467-37.1836C21.2564-37.1836 20.3262-36.2988 20.3262-35.1631C20.3262-34.0273 21.2564-33.1426 22.3467-33.1426ZM32.8618-33.1426C33.9976-33.1426 34.8824-34.0273 34.8824-35.1631C34.8824-36.2988 33.9976-37.1836 32.8618-37.1836C31.7261-37.1836 30.8413-36.2988 30.8413-35.1631C30.8413-34.0273 31.7261-33.1426 32.8618-33.1426ZM43.3736-33.1426C44.5093-33.1426 45.3975-34.0273 45.3975-35.1631C45.3975-36.2988 44.5093-37.1836 43.3736-37.1836C42.2378-37.1836 41.353-36.2988 41.353-35.1631C41.353-34.0273 42.2378-33.1426 43.3736-33.1426ZM43.3736-22.582C44.5093-22.582 45.3975-23.4668 45.3975-24.6025C45.3975-25.7383 44.5093-26.6231 43.3736-26.6231C42.2378-26.6231 41.353-25.7383 41.353-24.6025C41.353-23.4668 42.2378-22.582 43.3736-22.582ZM43.3736-12.0669C44.5093-12.0669 45.3975-12.9971 45.3975-14.0874C45.3975-15.2231 44.5093-16.1113 43.3736-16.1113C42.2378-16.1113 41.353-15.2231 41.353-14.0874C41.353-12.9971 42.2378-12.0669 43.3736-12.0669ZM43.3736-1.55174C44.5093-1.55174 45.3975-2.48534 45.3975-3.57568C45.3975-4.71143 44.5093-5.64161 43.3736-5.64161C42.2378-5.64161 41.353-4.71143 41.353-3.57568C41.353-2.48534 42.2378-1.55174 43.3736-1.55174ZM32.8618-1.55174C33.9976-1.55174 34.8824-2.48534 34.8824-3.57568C34.8824-4.71143 33.9976-5.64161 32.8618-5.64161C31.7261-5.64161 30.8413-4.71143 30.8413-3.57568C30.8413-2.48534 31.7261-1.55174 32.8618-1.55174ZM22.3467-1.55174C23.4824-1.55174 24.3672-2.48534 24.3672-3.57568C24.3672-4.71143 23.4824-5.64161 22.3467-5.64161C21.2564-5.64161 20.3262-4.71143 20.3262-3.57568C20.3262-2.48534 21.2564-1.55174 22.3467-1.55174ZM48.4082-1.562L75.1846-1.562C76.2783-1.562 76.961-2.24804 76.961-3.33838L76.961-63.0127L74.7432-60.8471L74.7432-4.501C74.7432-4.07619 74.4502-3.78323 74.0254-3.78323L48.4082-3.78323ZM9.76904-40.1978L11.9869-40.1978L11.9869-65.8183C11.9869-66.2431 12.2798-66.5361 12.7081-66.5361L68.9404-66.5361L71.2104-68.7573L11.5454-68.7573C10.4517-68.7573 9.76904-68.0713 9.76904-66.9775ZM65.9175-47.8257L55.7647-57.9785C54.9004-58.7485 53.7647-58.2954 53.5137-57.1177L50.8735-44.7676C50.6226-43.6489 51.5425-42.8232 52.6577-43.0811L64.9658-45.6689C66.189-45.9165 66.7329-46.958 65.9175-47.8257ZM74.5596-68.187L54.855-48.4824C54.4268-48.0542 54.3745-47.4351 54.813-47C55.2935-46.5649 55.9058-46.5649 56.3863-47.0034L76.0454-66.6592C76.4317-67.0488 76.4351-67.752 76.0489-68.2324C75.607-68.5767 74.9492-68.5733 74.5596-68.187Z"/>
</svg>