<svg xmlns="http://www.w3.org/2000/svg" viewBox="6.83594 -81.3149 74.45 83.29">
  <path d="M44.0606 1.97072C64.5039 1.97072 81.2886-14.8105 81.2886-35.2539C81.2886-55.6973 64.5005-72.4785 44.0571-72.4785C23.5718-72.4785 6.83594-55.6973 6.83594-35.2539C6.83594-14.8105 23.5752 1.97072 44.0606 1.97072ZM44.0606-0.274438C24.7466-0.274438 9.04252-15.9365 9.04252-35.2539C9.04252-54.5713 24.7432-70.2334 44.0571-70.2334C63.3745-70.2334 79.0366-54.5713 79.04-35.2539C79.0435-15.9365 63.3779-0.274438 44.0606-0.274438ZM42.2373-70.7568L45.8804-70.7568L45.8804-79.436C45.8804-80.4834 45.1011-81.3149 44.0571-81.3149C43.02-81.3149 42.2373-80.4834 42.2373-79.436ZM68.4268-60.9849L71.0088-58.3926L77.4898-64.9223C77.876-65.3086 78.0987-65.8096 78.0987-66.3457C78.0987-67.2432 77.3262-68.0156 76.3345-68.0156C75.7778-68.0156 75.3428-67.8941 74.9531-67.4624ZM44.0606-31.1528C46.273-31.1528 48.022-32.9087 48.022-35.2051C48.022-36.752 47.1021-38.0899 45.1773-38.937L45.1773-62.7148C45.1773-63.2886 44.6763-63.7441 44.0571-63.7441C43.5322-63.7441 43.0313-63.2886 43.0313-62.7148L43.0313-39.0278C41.1099-38.1773 40.0991-36.8394 40.0991-35.2051C40.0991-32.9541 41.8481-31.1528 44.0606-31.1528Z"/>
</svg>