<svg xmlns="http://www.w3.org/2000/svg" viewBox="6.83594 -72.4785 74.45 74.45">
  <path d="M44.0606 1.97072C64.6118 1.97072 81.2886-14.7026 81.2886-35.2539C81.2886-55.8052 64.6118-72.4785 44.0606-72.4785C23.5127-72.4785 6.83594-55.8052 6.83594-35.2539C6.83594-14.7026 23.5127 1.97072 44.0606 1.97072ZM44.0606-0.274438C24.7046-0.274438 9.0391-15.898 9.0391-35.2539C9.0391-54.6099 24.7046-70.2334 44.0606-70.2334C63.4165-70.2334 79.04-54.6099 79.04-35.2539C79.04-15.898 63.4165-0.274438 44.0606-0.274438ZM29.1875-35.7661C29.1875-36.3125 28.7422-36.793 28.0947-36.793L20.3013-36.793C19.6993-36.793 19.2154-36.3545 19.2154-35.7661C19.2154-35.1289 19.6993-34.6904 20.3013-34.6904L28.0947-34.6904C28.7876-34.6904 29.1875-35.0801 29.1875-35.7661ZM33.5161-45.728C33.9898-46.2051 33.8047-46.9014 33.5059-47.2002L27.9742-52.7319C27.5357-53.1704 26.8848-53.0308 26.5474-52.606C26.1646-52.2197 26.168-51.6631 26.5611-51.2246L32.1348-45.6963C32.4336-45.352 33.1299-45.2998 33.5161-45.728ZM44.0571-51.7246C44.6978-51.7246 45.0874-52.2642 45.0874-52.772L45.0874-60.5688C45.0874-61.2617 44.6944-61.6548 44.0571-61.6548C43.4234-61.6548 43.0303-61.2617 43.0303-60.5688L43.0303-52.772C43.0303-52.1699 43.4653-51.7246 44.0571-51.7246ZM54.605-45.728C54.9912-45.3032 55.6841-45.3486 55.9864-45.6963L61.5112-51.2246C61.9463-51.6631 61.9497-52.2617 61.5703-52.606C61.2295-53.0342 60.5786-53.167 60.1435-52.7319L54.6118-47.2002C54.3096-46.898 54.0859-46.2051 54.605-45.728ZM58.9302-35.7661C58.9302-35.1255 59.4663-34.6904 60.023-34.6904L67.8164-34.6904C68.4639-34.6904 68.9023-35.0835 68.9023-35.7661C68.9023-36.3999 68.4639-36.793 67.8164-36.793L60.023-36.793C59.3755-36.793 58.9302-36.3125 58.9302-35.7661ZM34.1221-29.8369L53.9502-29.8369C54.8789-31.4527 55.3467-33.25 55.3467-35.2324C55.3467-41.4824 50.3071-46.522 44.0571-46.522C37.8106-46.522 32.771-41.4824 32.771-35.2324C32.771-33.25 33.2388-31.4527 34.1221-29.8369ZM20.2979-25.6289L67.8198-25.6289C68.4536-25.6289 68.9023-26.0186 68.9023-26.6558C68.9023-27.2476 68.457-27.6372 67.8198-27.6372L20.2979-27.6372C19.7061-27.6372 19.2154-27.2022 19.2154-26.6558C19.2154-26.0186 19.7095-25.6289 20.2979-25.6289ZM25.2197-18.9746C25.9761-18.9746 26.628-19.6265 26.628-20.3794C26.628-21.1357 25.9761-21.7876 25.2197-21.7876C24.4668-21.7876 23.815-21.1357 23.815-20.3794C23.815-19.6265 24.4668-18.9746 25.2197-18.9746ZM34.6856-18.9746C35.4419-18.9746 36.0938-19.6265 36.0938-20.3794C36.0938-21.1357 35.4419-21.7876 34.6856-21.7876C33.9326-21.7876 33.2808-21.1357 33.2808-20.3794C33.2808-19.6265 33.9326-18.9746 34.6856-18.9746ZM44.106-18.9746C44.8623-18.9746 45.5142-19.6265 45.5142-20.3794C45.5142-21.1357 44.8623-21.7876 44.106-21.7876C43.353-21.7876 42.7012-21.1357 42.7012-20.3794C42.7012-19.6265 43.353-18.9746 44.106-18.9746ZM53.5264-18.9746C54.2827-18.9746 54.9346-19.6265 54.9346-20.3794C54.9346-21.1357 54.2827-21.7876 53.5264-21.7876C52.7735-21.7876 52.1216-21.1357 52.1216-20.3794C52.1216-19.6265 52.7735-18.9746 53.5264-18.9746ZM62.9502-18.9746C63.7031-18.9746 64.355-19.6265 64.355-20.3794C64.355-21.1357 63.7031-21.7876 62.9502-21.7876C62.1939-21.7876 61.542-21.1357 61.542-20.3794C61.542-19.6265 62.1939-18.9746 62.9502-18.9746ZM29.9946-13.397C30.751-13.397 31.4029-14.0488 31.4029-14.8052C31.4029-15.5581 30.751-16.21 29.9946-16.21C29.2417-16.21 28.5899-15.5581 28.5899-14.8052C28.5899-14.0488 29.2417-13.397 29.9946-13.397ZM39.4639-13.397C40.2168-13.397 40.8687-14.0488 40.8687-14.8052C40.8687-15.5581 40.2168-16.21 39.4639-16.21C38.7075-16.21 38.0557-15.5581 38.0557-14.8052C38.0557-14.0488 38.7075-13.397 39.4639-13.397ZM48.8843-13.397C49.6372-13.397 50.2891-14.0488 50.2891-14.8052C50.2891-15.5581 49.6372-16.21 48.8843-16.21C48.1279-16.21 47.4761-15.5581 47.4761-14.8052C47.4761-14.0488 48.1279-13.397 48.8843-13.397ZM58.2593-13.397C59.0122-13.397 59.6641-14.0488 59.6641-14.8052C59.6641-15.5581 59.0122-16.21 58.2593-16.21C57.5029-16.21 56.8511-15.5581 56.8511-14.8052C56.8511-14.0488 57.5029-13.397 58.2593-13.397Z" />
</svg>