<svg xmlns="http://www.w3.org/2000/svg" viewBox="9.76562 -63.3174 126.93 56.01">
  <path d="M66.3506-23.5669C65.0127-23.5669 64.6719-24.7832 65.2115-25.6919L73.5542-39.4478C74.2232-40.5347 75.6031-40.4859 76.1846-39.4478L84.667-25.6465C85.2066-24.7378 84.8589-23.5669 83.5244-23.5669ZM37.1909-7.30662C43.2603-7.30662 48.0703-12.0679 48.0703-18.1406C48.0703-24.2519 43.2569-29.0166 37.1909-29.0166C31.1216-29.0166 26.357-24.2519 26.357-18.1406C26.357-12.0713 31.1216-7.30662 37.1909-7.30662ZM111.607-7.30662C117.673-7.30662 122.441-12.0713 122.441-18.1406C122.441-24.2519 117.673-29.0166 111.607-29.0166C105.496-29.0166 100.728-24.2485 100.728-18.1406C100.728-12.0713 105.492-7.30662 111.607-7.30662ZM132.448-53.0938L130.781-55.542C127.236-60.7749 121.819-63.3174 114.362-63.3174L85.5552-63.3174C70.5874-63.3174 65.0049-61.982 56.2554-56.521L41.0948-46.9893L26.9278-45.2315C15.4526-43.7984 9.76562-38.5996 9.76562-29.667L9.76562-23.3477C9.76562-18.2158 12.2642-15.6196 17.2949-15.6196L23.5904-15.6196C23.4405-16.4565 23.3428-17.2514 23.3428-18.1406C23.3428-25.8896 29.4385-32.0307 37.1909-32.0307C44.94-32.0307 51.0811-25.8896 51.0811-18.1406C51.0811-17.2514 50.9834-16.4565 50.8335-15.6196L97.961-15.6196C97.8111-16.4565 97.7134-17.2514 97.7134-18.1406C97.7134-25.8862 103.858-32.0307 111.607-32.0307C119.311-32.0307 125.452-25.8896 125.452-18.1406C125.452-17.2514 125.354-16.4565 125.208-15.6196L129.211-15.6196C134.161-15.6196 136.695-18.2339 136.695-22.9893L136.695-40.105C136.695-44.6177 135.252-48.9717 132.448-53.0938Z"/>
</svg>