<svg xmlns="http://www.w3.org/2000/svg" viewBox="9.72022 -92.394 133.09 100.8">
  <path d="M46.0801-92.394C33.5796-92.394 23.2935-82.1045 23.2935-69.6006C23.2935-63.8193 25.4727-58.4355 29.1065-54.3623C29.336-54.0873 29.7119-53.9135 30.0947-53.9135C30.6617-53.9135 31.1172-54.4145 31.1172-54.894C31.1172-55.2177 31.0093-55.5381 30.773-55.771C27.4869-59.434 25.4361-64.2329 25.4361-69.6006C25.4361-81.082 34.6021-90.2514 46.0801-90.2514C57.1197-90.2514 67.1143-81.415 66.6617-68.5728C67.3614-69.1089 68.0748-69.5996 68.8052-70.0938C68.5581-82.3857 58.378-92.394 46.0801-92.394ZM35.0567-79.1211C35.4951-78.6826 36.2085-78.6826 36.6084-79.0757C37.0469-79.5176 37.0015-80.1855 36.563-80.624L31.208-85.9756L29.7505-84.4692ZM46.0801-83.0615C46.5948-83.0615 47.1412-83.5171 47.1412-84.1225L47.1412-91.686L45.0225-91.686L45.0225-84.1225C45.0225-83.5171 45.4746-83.0615 46.0801-83.0615ZM55.5518-79.0757C55.9483-78.6826 56.6651-78.6826 57.0582-79.1211L62.4063-84.4692L60.9488-85.9756L55.5972-80.624C55.1587-80.1855 55.1133-79.5176 55.5518-79.0757ZM45.7657-66.8735C47.2286-66.9257 48.396-68.1103 48.438-69.563C48.4209-71.1098 47.191-72.2387 45.6997-72.2319C45.4317-72.2705 44.8672-72.1694 44.6026-72.1103L30.7788-70.1001C30.4449-70.0376 30.2779-69.8989 30.2813-69.5366C30.2847-69.2163 30.5005-69.0844 30.8379-68.9833L44.9546-66.9291C45.2227-66.8769 45.4976-66.8735 45.7657-66.8735ZM11.1773-64.3393L18.4663-68.8657C19.0376-69.2802 19.041-70.0332 18.4629-70.4023L11.1841-74.9253C10.5776-75.2422 9.76904-75.2046 9.76562-74.2109L9.76562-65.0048C9.72022-64.1474 10.6162-63.977 11.1773-64.3393ZM47.2754 7.70175C47.5742 8.23349 48.2696 8.40391 48.7911 8.11533L142.157-45.6308C142.633-45.8774 142.81-46.5273 142.564-47.0522C142.177-47.6294 141.479-47.7578 141.003-47.5112L47.6367 6.23492C47.1607 6.5235 46.9834 7.17683 47.2754 7.70175ZM48.0157-10.1552L54.9815-14.1855L54.0987-15.7114L47.1568-11.6948C44.6407-10.2675 42.6626-10.8569 41.1343-13.4878L38.6089-17.8549C35.4239-23.4018 36.9058-28.1245 43.8687-33.3955L53.4415-40.6142L60.3741-53.7753C64.1373-60.9043 67.1646-63.7851 77.4673-69.7421L97.6983-81.4043C102.519-84.1772 106.562-84.5576 110.699-82.5239L112.854-81.4531C116.238-79.81 118.651-77.7387 120.339-74.7944L127.259-62.8066C128.616-60.3891 128.19-58.477 125.661-56.9975L120.365-53.9926L121.29-52.4213L126.564-55.4819C130.001-57.5 130.733-60.3549 128.772-63.7099L121.865-75.6772C120.048-78.8647 117.253-81.3188 113.619-83.0835L111.463-84.1123C106.872-86.3506 102.038-85.9634 96.7735-82.9302L76.5845-71.268C66.084-65.186 62.7227-62.02 58.7925-54.6445L51.9986-41.789L42.8086-34.8032C35.2945-29.165 33.4151-23.227 37.0376-16.9721L39.6324-12.5605C41.6787-8.92767 44.5259-8.11565 48.0157-10.1552ZM69.0084-22.2646L107.284-44.3559L106.404-45.9272L68.0801-23.7905ZM65.4112-12.3593C69.8673-14.9326 71.398-20.4765 68.7759-24.9814C66.2027-29.4829 60.6133-30.9682 56.1119-28.3916C51.6524-25.7729 50.167-20.2289 52.7437-15.7241C55.3169-11.2226 60.9063-9.73724 65.4112-12.3593ZM64.483-13.8852C60.8575-11.7846 56.3702-12.978 54.2696-16.6069C52.169-20.2812 53.3624-24.7197 57.0367-26.8202C60.6656-28.9208 65.1495-27.7275 67.25-24.0986C69.3506-20.4697 68.1573-15.9858 64.483-13.8852ZM117.598-42.4946C122.057-45.0712 123.588-50.6118 120.966-55.1167C118.389-59.6181 112.8-61.1035 108.344-58.5302C103.842-55.9082 102.357-50.3642 104.93-45.8627C107.507-41.3579 113.096-39.8725 117.598-42.4946ZM116.673-44.0205C113.044-41.9199 108.602-43.1133 106.456-46.7422C104.359-50.4165 105.552-54.8549 109.223-56.9555C112.852-59.0561 117.339-57.8627 119.44-54.2338C121.541-50.6084 120.347-46.1211 116.673-44.0205Z"/>
</svg>