<svg xmlns="http://www.w3.org/2000/svg" viewBox="6.83594 -72.4785 74.45 74.45">
  <path d="M44.0606-70.4287C34.8413-70.4287 26.501-62.9082 26.501-52.8657C26.501-45.0068 33.2891-38.2607 44.0606-35.2539C54.8809-32.1982 61.7178-25.4033 61.7178-17.6421C61.7178-7.98683 53.8589-0.0791252 44.0606-0.0791252C63.5142-0.0791252 79.2353-15.8003 79.2353-35.2539C79.2353-54.7075 63.5142-70.4287 44.0606-70.4287ZM44.0606 1.97072C64.6118 1.97072 81.2886-14.7026 81.2886-35.2539C81.2886-55.8052 64.6118-72.4785 44.0606-72.4785C23.5127-72.4785 6.83594-55.8052 6.83594-35.2539C6.83594-14.7026 23.5127 1.97072 44.0606 1.97072ZM44.0606-0.274438C24.7046-0.274438 9.0391-15.898 9.0391-35.2539C9.0391-54.6099 24.7046-70.2334 44.0606-70.2334C63.4165-70.2334 79.04-54.6099 79.04-35.2539C79.04-15.898 63.4165-0.274438 44.0606-0.274438Z"/>
</svg>