<svg xmlns="http://www.w3.org/2000/svg" viewBox="6.83594 -72.4785 74.45 74.45">
  <path d="M44.0606 1.97072C64.6118 1.97072 81.2886-14.7026 81.2886-35.2539C81.2886-55.8052 64.6118-72.4785 44.0606-72.4785C23.5127-72.4785 6.83594-55.8052 6.83594-35.2539C6.83594-14.7026 23.5127 1.97072 44.0606 1.97072ZM44.0606-0.274438C24.7046-0.274438 9.0391-15.898 9.0391-35.2539C9.0391-54.6099 24.7046-70.2334 44.0606-70.2334C63.4165-70.2334 79.04-54.6099 79.04-35.2539C79.04-15.898 63.4165-0.274438 44.0606-0.274438ZM33.606-19.4199L67.7246-19.4199C69.0728-19.4199 69.6587-20.4819 68.9649-21.8242L52.1162-55.7065C51.8028-56.3721 51.2871-56.6889 50.667-56.6889C50.0503-56.6889 49.4824-56.3755 49.1758-55.7099L32.3238-21.8242C31.6719-20.4819 32.3067-19.4199 33.606-19.4199ZM42.6397-21.4482L49.9492-38.0542C50.2525-38.7651 51.0713-38.7651 51.3882-38.0542L58.6909-21.4482L53.3174-21.4482L50.667-34.3784L48.0586-21.4482ZM32.0957-27.5801L30.272-36.687L28.3994-27.5801L24.5987-27.5801L29.7598-39.3794C29.9688-39.853 30.5821-39.8359 30.7876-39.3794L35.9009-27.7178L39.731-35.5879L31.4668-52.291C31.2056-52.8066 30.7422-53.0781 30.272-53.0781C29.753-53.0781 29.3316-52.8066 29.0737-52.291L16.8228-27.5586C16.272-26.499 16.7217-25.5518 17.8609-25.5518L34.8843-25.5518L35.8076-27.5801Z" />
</svg>