<svg xmlns="http://www.w3.org/2000/svg" viewBox="6.83594 -83.501 67.28 90.19">
  <path d="M25.0664 6.68848C35.1616 6.68848 43.2935-1.48877 43.2935-11.4932C43.2935-16.9019 41.0791-21.6236 36.4019-25.3687C35.2574-26.2827 35.0201-26.9458 35.0201-28.5615L35.0235-66.6645C35.0235-72.8662 30.899-77.2451 25.0664-77.2451C19.2305-77.2451 15.106-72.8662 15.106-66.6645L15.106-28.5615C15.106-26.9458 14.8686-26.2827 13.7275-25.3687C9.05029-21.6236 6.83594-16.9019 6.83594-11.4932C6.83594-1.48877 14.9678 6.68848 25.0664 6.68848ZM25.0664 4.65476C16.1675 4.65476 8.91849-2.64309 8.91849-11.4932C8.91849-16.3657 10.941-20.7988 15.3081-23.9805C16.7036-24.9854 17.2339-26.2104 17.2339-27.9512L17.2339-66.644C17.2339-71.5937 20.4961-75.1172 25.0664-75.1172C29.6333-75.1172 32.8921-71.5937 32.8921-66.644L32.8921-27.9512C32.8921-26.2104 33.4258-24.9854 34.8213-23.9805C39.1851-20.7988 41.2109-16.3657 41.2109-11.4932C41.2109-2.64309 33.9619 4.65476 25.0664 4.65476ZM25.063-0.475615C31.1753-0.475615 36.0386-5.3843 36.0386-11.4966C36.0386-15.7773 33.6768-19.2905 30.1216-21.1675C28.6738-21.9419 28.1924-22.5176 28.1924-24.6841L28.1924-30.7881C28.1924-32.5073 26.8877-33.9482 25.063-33.9482C23.2417-33.9482 21.937-32.5073 21.937-30.7881L21.937-24.6841C21.937-22.5176 21.4556-21.9419 20.0078-21.1675C16.4492-19.2905 14.0909-15.7773 14.0909-11.4966C14.0909-5.3843 18.9541-0.475615 25.063-0.475615ZM49.3037-26.8916C49.9512-26.8916 50.3794-27.3652 50.3794-27.9707L50.3794-44.5908L50.042-55.1508L50.3794-65.7598L50.3794-82.3798C50.3794-82.9819 49.9512-83.459 49.3037-83.501C48.7051-83.501 48.2769-82.9819 48.2769-82.3798L48.2769-65.7632L48.6109-55.1508L48.2769-44.5873L48.2769-27.9707C48.2769-27.3686 48.7051-26.8916 49.3037-26.8916ZM38.0342-60.5122L48.938-54.5693L57.8877-49.0024L72.3867-40.7133C72.8843-40.3476 73.5181-40.5498 73.8384-41.0507C74.1167-41.5903 73.9532-42.1753 73.4136-42.4082L58.9634-50.7846L49.6763-55.7846L38.0342-62.852ZM38.0342-47.5019L49.6729-54.5659L58.9634-59.5625L73.4136-67.9423C73.9112-68.1753 74.1167-68.809 73.835-69.352C73.5147-69.8008 72.9263-69.9575 72.3867-69.6826L57.8912-61.3481L48.938-55.7846L38.0342-49.8384ZM58.5767-77.5791C58.3052-78.0176 57.7168-78.2163 57.1909-77.9028L49.3072-73.4028L41.4654-77.9028C40.8941-78.2163 40.3057-78.0176 40.0342-77.5791C39.7173-76.959 39.9717-76.4614 40.4556-76.1445L48.5801-71.456C48.8482-71.2959 48.9868-71.2368 49.3072-71.2368C49.5786-71.2368 49.857-71.3413 50.0796-71.456L58.1587-76.1445C58.6846-76.4614 58.939-76.959 58.5767-77.5791ZM73.357-58.3667C73.6285-58.8051 73.5523-59.3935 73.0264-59.749L65.1006-64.3467L65.0972-73.3466C65.0972-73.935 64.7178-74.4575 64.042-74.4541C63.4082-74.4575 63.022-73.935 63.022-73.3466L63.0254-64.0117C62.9834-63.646 63.1299-63.4199 63.2481-63.1972C63.3628-63.02 63.5786-62.7519 63.7525-62.686L71.9224-57.9487C72.354-57.6772 72.9981-57.6977 73.357-58.3667ZM73.357-51.9839C72.9981-52.6528 72.354-52.6733 71.9224-52.4018L63.7525-47.6679C63.5786-47.5986 63.3628-47.334 63.2481-47.1567C63.1299-46.934 62.9834-46.7046 63.0254-46.3388L63.022-37.0039C63.022-36.4223 63.4082-35.8964 64.042-35.8964C64.7178-35.8964 65.0972-36.4223 65.0972-37.0039L65.1006-46.0073L73.0264-50.6015C73.5977-50.915 73.6285-51.5454 73.357-51.9839ZM40.0342-32.7714C40.3057-32.333 40.9395-32.0888 41.5108-32.4477L49.3072-36.9443L57.1455-32.4477C57.6714-32.0888 58.3052-32.333 58.5767-32.7714C58.939-33.395 58.6846-33.8925 58.1587-34.206L50.0796-38.8945C49.8081-39.0547 49.6241-39.1137 49.3072-39.1137C49.0323-39.1137 48.8028-39.0092 48.5801-38.8945L40.4556-34.206C39.9717-33.8925 39.7173-33.395 40.0342-32.7714Z"/>
</svg>