<svg xmlns="http://www.w3.org/2000/svg" viewBox="9.76562 -49.649 61.16 28.84">
  <path d="M10.8711-32.0942C11.5142-32.0942 11.9834-32.5703 11.9834-33.2031L11.9834-37.2524C11.9834-37.8887 11.5142-38.3613 10.8711-38.3613C10.1895-38.3613 9.76562-37.8887 9.76562-37.2524L9.76562-33.2031C9.76562-32.5703 10.1895-32.0942 10.8711-32.0942ZM22.6436-27.9062C23.3287-27.9062 23.7559-28.3823 23.7559-29.0186L23.7559-41.437C23.7559-42.0733 23.3287-42.5493 22.6436-42.5493C22.0039-42.5493 21.5347-42.0733 21.5347-41.437L21.5347-29.0186C21.5347-28.3823 22.0039-27.9062 22.6436-27.9062ZM34.458-20.8066C35.0977-20.8066 35.525-21.2339 35.525-21.9155L35.525-48.54C35.525-49.2217 35.0977-49.649 34.458-49.649C33.7764-49.649 33.3526-49.2217 33.3526-48.54L33.3526-21.9155C33.3526-21.2339 33.7764-20.8066 34.458-20.8066ZM46.2305-29.7563C46.8702-29.7563 47.3394-30.1836 47.3394-30.8618L47.3394-39.6392C47.3394-40.3174 46.8702-40.7446 46.2305-40.7446C45.5909-40.7446 45.1216-40.3174 45.1216-39.6392L45.1216-30.8618C45.1216-30.1836 45.5909-29.7563 46.2305-29.7563ZM58.003-24.0513C58.6846-24.0513 59.1119-24.5239 59.1119-25.1602L59.1119-45.2954C59.1119-45.9316 58.6846-46.4043 58.003-46.4043C57.3599-46.4043 56.8941-45.9316 56.8941-45.2954L56.8941-25.1602C56.8941-24.5239 57.3599-24.0513 58.003-24.0513ZM69.8175-31.3149C70.4571-31.3149 70.9264-31.7456 70.9264-32.4238L70.9264-38.0317C70.9264-38.71 70.4571-39.1407 69.8175-39.1407C69.1324-39.1407 68.7085-38.71 68.7085-38.0317L68.7085-32.4238C68.7085-31.7456 69.1324-31.3149 69.8175-31.3149Z" />
</svg>