<svg xmlns="http://www.w3.org/2000/svg" viewBox="6.26806 -69.6768 107.91 68.8">
  <path d="M60.2012-23.6929C56.1655-23.6929 52.4263-25.3882 50.1416-28.0986C49.4444-29.0752 48.6529-29.1172 47.8648-28.0986C45.6572-25.3779 41.9248-23.6929 37.812-23.6929C33.7412-23.6929 30.0122-25.3779 27.8047-28.0986C27.0166-29.1172 26.2217-29.0752 25.479-28.0986C23.5157-25.706 20.4156-24.147 16.9702-23.7837L33.21-2.5156L54.4648-8.02634L65.8887-8.02634L87.189-2.5156L103.429-23.7837C99.9414-24.147 96.8413-25.706 94.8745-28.0986C94.1353-29.0752 93.3858-29.1172 92.5977-28.0986C90.3901-25.3779 86.6157-23.6929 82.5449-23.6929C78.4776-23.6929 74.7451-25.3779 72.5376-28.0986C71.7495-29.1172 70.958-29.0752 70.2153-28.0986C67.9761-25.3882 64.2368-23.6929 60.2012-23.6929ZM60.2466-6.93014C68.9751-6.93014 77.4111-4.86227 84.4434-1.57711C86.023-0.873005 87.7525-1.08199 88.8335-2.45943L112.759-33.4717C114.183-35.3594 113.789-37.397 111.95-38.7725C101.782-46.167 83.7964-51.8833 66.2579-52.9849L66.2579-50.7637C82.4239-49.7632 99.0347-44.6943 110.192-37.1807C111.218-36.4517 111.406-35.3491 110.628-34.3271L87.4409-4.30958C86.6143-3.29102 86.042-3.417 85.1562-3.76221C77.2109-7.07227 68.5254-9.15137 60.2466-9.15137C51.9224-9.15137 43.2857-7.07227 35.2915-3.76221C34.4058-3.417 33.8335-3.29102 33.0103-4.30958L9.81938-34.3271C9.04155-35.3491 9.23003-36.4517 10.2554-37.1807C21.4165-44.6943 38.0274-49.7632 54.1899-50.7637L54.1899-52.9883C36.6548-51.8833 18.7148-46.1704 8.50099-38.7725C6.66211-37.397 6.26806-35.3594 7.69239-33.4717L31.6177-2.45943C32.6988-1.08199 34.4283-0.873005 36.0044-1.57711C43.0401-4.86227 51.4761-6.93014 60.2466-6.93014ZM60.2466-21.6924C60.8374-21.6924 61.3101-22.1684 61.3101-22.8047L61.3101-32.5703C61.3101-33.1577 60.8374-33.6338 60.2466-33.6338C59.6138-33.6338 59.1377-33.1577 59.1377-32.5703L59.1377-22.8047C59.1377-22.1684 59.6138-21.6924 60.2466-21.6924ZM60.2466-41.3081C60.8374-41.3081 61.3101-41.7842 61.3101-42.417L61.3101-52.1826C61.3101-52.7735 60.8374-53.2949 60.2466-53.2949C59.6138-53.2949 59.1377-52.7735 59.1377-52.1826L59.1377-42.417C59.1377-41.7842 59.6138-41.3081 60.2466-41.3081ZM19.2012-60.8989C19.6807-60.5581 20.3555-60.5923 20.8531-61.1978C23.2183-64.2261 26.2149-66.396 29.5078-67.3794C30.1861-67.6089 30.4532-68.1758 30.3316-68.7246C30.2066-69.3326 29.6021-69.6768 28.6524-69.3882C24.9697-68.3355 21.6152-65.919 19.1431-62.5884C18.5796-61.9102 18.7534-61.2466 19.2012-60.8989ZM54.8736-60.9058C55.3179-61.2534 55.4849-61.9136 54.9702-62.5884C52.4527-65.9224 49.0948-68.3355 45.4156-69.3848C44.4556-69.6348 43.8545-69.3189 43.7397-68.7178C43.625-68.1724 43.9307-67.6089 44.5601-67.3794C47.853-66.396 50.8462-64.2261 53.2568-61.2012C53.7192-60.5854 54.4326-60.5649 54.8736-60.9058ZM65.5776-60.9058C66.0606-60.5649 66.732-60.5854 67.2398-61.2012C69.6016-64.2261 72.5982-66.396 75.8877-67.3794C76.566-67.6089 76.8262-68.1724 76.7115-68.7178C76.5933-69.3189 75.9956-69.6348 75.0322-69.3848C71.3565-68.3355 67.9985-65.9224 65.5264-62.5884C64.9663-61.9136 65.1299-61.2534 65.5776-60.9058ZM101.25-60.8989C101.694-61.2466 101.872-61.9102 101.354-62.5884C98.836-65.919 95.4815-68.3355 91.7989-69.3882C90.8457-69.6768 90.2412-69.3326 90.1196-68.7246C89.998-68.1758 90.3105-67.6089 90.94-67.3794C94.2363-66.396 97.2295-64.2261 99.6436-61.1978C100.096-60.5923 100.816-60.5581 101.25-60.8989Z"/>
</svg>