<svg xmlns="http://www.w3.org/2000/svg" viewBox="6.26806 -75.3287 107.68 80.15">
  <path d="M60.1348 4.82085C63.7915 4.82085 66.8521 1.76713 66.8521-1.89645C66.8521-5.56004 63.7949-8.61717 60.1348-8.61717C56.4258-8.61717 53.4175-5.56004 53.4175-1.89645C53.4175 1.81254 56.3769 4.82085 60.1348 4.82085ZM60.1348 2.78274C57.5527 2.78274 55.4522 0.636744 55.4522-1.89645C55.4522-4.43307 57.5527-6.58248 60.1348-6.58248C62.6226-6.58248 64.772-4.38766 64.772-1.89645C64.772 0.636744 62.668 2.78274 60.1348 2.78274ZM56.438-5.86618L58.4195-6.91942L23.5381-65.0786C23.2461-65.5581 22.6519-65.917 21.9248-65.5308C21.3442-65.1968 21.2715-64.4912 21.5669-64.0571ZM60.1314-15.2256C68.8779-15.2256 77.2729-13.1611 84.2881-9.88962C85.8711-9.14011 87.6006-9.3945 88.6885-10.7788L112.528-41.6782C113.949-43.5591 113.552-45.6001 111.716-46.9722C100.379-55.207 79.4336-61.356 60.1314-61.356C40.7837-61.356 19.8833-55.207 8.50099-46.9722C6.66552-45.6001 6.26806-43.5591 7.68897-41.6782L31.5708-10.7788C32.6587-9.3945 34.3462-9.14011 35.9292-9.88962C42.9898-13.1611 51.3848-15.2256 60.1314-15.2256ZM60.1314-17.4185C51.8277-17.4185 43.1626-15.3462 35.2412-12.043C34.3692-11.7046 33.8072-11.5718 32.9942-12.5801L9.82964-42.5474C9.05864-43.5625 9.24712-44.6865 10.2623-45.4121C22.8453-53.7969 42.1758-59.1313 60.1314-59.1313C78.0415-59.1313 97.4174-53.7969 109.955-45.4121C110.97-44.6865 111.159-43.5625 110.388-42.5474L87.2685-12.5801C86.4521-11.5718 85.8481-11.7046 84.9761-12.043C77.0512-15.3462 68.435-17.4185 60.1314-17.4185ZM14.6387-74.2198C14.6387-73.6323 15.1567-73.1109 15.7476-73.1109L37.8096-73.1109C38.4004-73.1109 38.8731-73.6323 38.8731-74.2198C38.8731-74.8106 38.4004-75.3287 37.8096-75.3287L15.7476-75.3287C15.1567-75.3287 14.6387-74.8106 14.6387-74.2198ZM47.9897-74.2198C47.9897-73.6323 48.4658-73.1109 49.0532-73.1109L71.1186-73.1109C71.7061-73.1109 72.2276-73.6323 72.2276-74.2198C72.2276-74.8106 71.7061-75.3287 71.1186-75.3287L49.0532-75.3287C48.4658-75.3287 47.9897-74.8106 47.9897-74.2198ZM81.2954-74.2198C81.2954-73.6323 81.7715-73.1109 82.4043-73.1109L104.424-73.1109C105.057-73.1109 105.533-73.6323 105.533-74.2198C105.533-74.8106 105.057-75.3287 104.424-75.3287L82.4043-75.3287C81.7715-75.3287 81.2954-74.8106 81.2954-74.2198Z"/>
</svg>