<svg xmlns="http://www.w3.org/2000/svg" viewBox="8.72266 -85.0341 99.6 99.55">
  <path d="M58.4961 14.5128C85.9991 14.5128 108.321-7.75763 108.321-35.2606C108.321-62.7637 85.9991-85.0341 58.4961-85.0341C31.0448-85.0341 8.72266-62.7637 8.72266-35.2606C8.72266-7.75763 31.0448 14.5128 58.4961 14.5128ZM58.4961 6.24529C35.5514 6.24529 17.0314-12.316 17.0314-35.2606C17.0314-58.2053 35.5514-76.7666 58.4961-76.7666C81.4408-76.7666 100.002-58.2053 100.002-35.2606C100.002-12.316 81.4408 6.24529 58.4961 6.24529ZM45.3106-14.9704C47.2486-14.9704 48.855-16.5873 48.855-18.5771L48.855-51.6126C48.855-54.1822 47.3003-55.6438 44.772-55.6438C42.7199-55.6438 41.0512-54.4831 39.9318-53.6224L34.5474-49.4325C33.6561-48.8104 33.0034-47.8261 33.0034-46.5513C33.0034-45.0485 34.0088-43.9702 35.481-43.9702C36.2689-43.9702 36.7558-44.1983 37.212-44.5923L41.7039-48.2109L41.7039-18.5771C41.7039-16.5873 43.3209-14.9704 45.3106-14.9704ZM68.5488-14.6282C75.5546-14.6282 80.951-19.0107 80.951-26.3511C80.951-32.4022 77.3096-35.3757 73.1945-35.8118L73.1945-35.9882C77.6182-37.1614 79.7777-41.0665 79.7777-45.1892C79.7777-51.9256 74.7561-55.7895 68.3619-55.7895C63.3574-55.7895 58.9694-52.9753 57.5575-48.6245C57.2977-47.7206 57.1837-46.8483 57.1837-45.9876C57.1837-44.4013 58.2409-43.1266 60.1894-43.1266C61.838-43.1266 62.8529-43.7908 63.2986-45.4394C64.0769-48.3496 65.6366-50.1404 68.3619-50.1404C71.5741-50.1404 73.1241-47.6346 73.1241-44.4119C73.1241-40.8575 71.1274-38.2895 67.4695-38.2895L66.3028-38.2895C64.6648-38.2895 63.6287-37.2524 63.6287-35.646C63.6287-34.0397 64.6964-33.1166 66.3028-33.1166L67.5318-33.1166C71.7198-33.1166 73.9657-30.8094 73.9657-26.5887C73.9657-23.1685 72.2087-20.3397 68.5593-20.3397C65.0145-20.3397 63.4328-22.7113 62.8308-24.9583C62.344-26.5139 61.3079-27.364 59.7628-27.364C57.8248-27.364 56.5501-26.1928 56.5501-24.2443C56.5501-23.4142 56.6852-22.4997 56.9345-21.7003C58.3464-17.2048 63.2951-14.6282 68.5488-14.6282Z" />
</svg>