<svg xmlns="http://www.w3.org/2000/svg" viewBox="8.72266 -85.0341 99.6 99.55">
  <path d="M58.4961 14.5128C85.9991 14.5128 108.321-7.75763 108.321-35.2606C108.321-62.7637 85.9991-85.0341 58.4961-85.0341C31.0448-85.0341 8.72266-62.7637 8.72266-35.2606C8.72266-7.75763 31.0448 14.5128 58.4961 14.5128ZM58.4961 6.24529C35.5514 6.24529 17.0314-12.316 17.0314-35.2606C17.0314-58.2053 35.5514-76.7666 58.4961-76.7666C81.4408-76.7666 100.002-58.2053 100.002-35.2606C100.002-12.316 81.4408 6.24529 58.4961 6.24529ZM33.4305-15.5101L50.3869-15.5101C52.1179-15.5101 53.1339-16.6401 53.1339-18.3605C53.1339-20.195 52.0662-21.2733 50.3869-21.2733L38.7998-21.2733L38.7998-21.6155L45.9316-30.634C50.7874-36.7369 52.4063-40.34 52.4063-44.5968C52.4063-51.2508 47.9043-56.0177 41.1774-56.0177C34.9489-56.0177 30.2072-50.8358 30.2072-45.7575C30.2072-43.9547 31.2538-42.6483 33.1094-42.6483C34.7264-42.6483 35.7423-43.3844 36.2081-44.9907C37.1417-48.2873 38.3697-50.3579 41.1362-50.3579C44.1012-50.3579 45.7221-47.7246 45.7221-44.2652C45.7221-40.3927 43.0374-36.46 40.4186-33.1021L31.9784-22.2671C31.0458-21.0959 30.1449-19.8835 30.1449-18.35C30.1449-16.7225 31.182-15.5101 33.4305-15.5101ZM62.8188-14.9081C64.7462-14.9081 66.3631-16.525 66.3631-18.5148L66.3631-32.6393L78.3818-32.6393L78.3818-18.5148C78.3818-16.525 79.9988-14.9081 81.9885-14.9081C83.9265-14.9081 85.5329-16.525 85.5329-18.5148L85.5329-52.11C85.5329-54.0375 83.9265-55.6544 81.9885-55.6544C79.9988-55.6544 78.3818-54.0375 78.3818-52.11L78.3818-38.5578L66.3631-38.5578L66.3631-52.11C66.3631-54.0375 64.7462-55.6544 62.8188-55.6544C60.8185-55.6544 59.2121-54.0375 59.2121-52.11L59.2121-18.5148C59.2121-16.525 60.8185-14.9081 62.8188-14.9081Z" />
</svg>