<svg xmlns="http://www.w3.org/2000/svg" viewBox="8.72266 -85.0341 99.6 99.55">
  <path d="M58.4961 14.5128C85.9991 14.5128 108.321-7.75763 108.321-35.2606C108.321-62.7637 85.9991-85.0341 58.4961-85.0341C31.0448-85.0341 8.72266-62.7637 8.72266-35.2606C8.72266-7.75763 31.0448 14.5128 58.4961 14.5128ZM58.4961 6.24529C35.5514 6.24529 17.0314-12.316 17.0314-35.2606C17.0314-58.2053 35.5514-76.7666 58.4961-76.7666C81.4408-76.7666 100.002-58.2053 100.002-35.2606C100.002-12.316 81.4408 6.24529 58.4961 6.24529ZM43.8911-14.6282C50.8969-14.6282 56.2933-19.0107 56.2933-26.3511C56.2933-32.4022 52.652-35.3757 48.5369-35.8118L48.5369-35.9882C52.9605-37.1614 55.1201-41.0665 55.1201-45.1892C55.1201-51.9256 50.0468-55.7895 43.7042-55.7895C38.648-55.7895 34.3118-52.9753 32.8999-48.6245C32.6401-47.7206 32.5261-46.8483 32.5261-45.9876C32.5261-44.4013 33.5832-43.1266 35.5318-43.1266C37.1803-43.1266 38.1436-43.7908 38.641-45.4394C39.4193-48.3496 40.9789-50.1404 43.7042-50.1404C46.9164-50.1404 48.456-47.6346 48.456-44.4119C48.456-40.8575 46.4697-38.2895 42.8119-38.2895L41.6452-38.2895C40.0072-38.2895 38.9711-37.2524 38.9711-35.646C38.9711-34.0397 40.0388-33.1166 41.6452-33.1166L42.8742-33.1166C47.0104-33.1166 49.3081-30.8094 49.3081-26.5887C49.3081-23.1685 47.551-20.3397 43.9017-20.3397C40.3569-20.3397 38.7752-22.7113 38.1732-24.9583C37.6863-26.5139 36.6502-27.364 35.1052-27.364C33.1672-27.364 31.8925-26.1928 31.8925-24.2443C31.8925-23.4142 32.0276-22.4997 32.2768-21.7003C33.6887-17.2048 38.6375-14.6282 43.8911-14.6282ZM64.6286-15.5101L81.585-15.5101C83.316-15.5101 84.3425-16.6401 84.3425-18.3605C84.3425-20.195 83.2642-21.2733 81.585-21.2733L69.9979-21.2733L69.9979-21.6155L77.1297-30.634C81.996-36.7369 83.615-40.34 83.615-44.5968C83.615-51.2508 79.1024-56.0177 72.3755-56.0177C66.1576-56.0177 61.4053-50.8358 61.4053-45.7575C61.4053-43.9547 62.4519-42.6483 64.3075-42.6483C65.9244-42.6483 66.9404-43.3844 67.4167-44.9907C68.3503-48.2873 69.5678-50.3579 72.3343-50.3579C75.2993-50.3579 76.9202-47.7246 76.9202-44.2652C76.9202-40.3927 74.2355-36.46 71.6273-33.1021L63.187-22.2671C62.2439-21.0959 61.343-19.8835 61.343-18.35C61.343-16.7225 62.3801-15.5101 64.6286-15.5101Z" />
</svg>