<svg xmlns="http://www.w3.org/2000/svg" viewBox="12.4609 -71.3351 123.94 72.08">
  <path d="M51.2567 0.741915C53.6499 0.741915 55.401-1.05036 55.401-3.6094L55.401-15.2086L61.8726-15.2086C64.1412-15.2086 65.6747-16.5974 65.6747-18.9177C65.6747-21.0416 64.1412-22.5751 61.8726-22.5751L55.401-22.5751L55.401-64.4659C55.401-68.4751 52.4585-71.3034 48.3977-71.3034C43.9649-71.3034 41.4471-68.0726 39.1986-64.4257L14.2954-26.2843C13.1242-24.4297 12.4609-22.4611 12.4609-20.71C12.4609-17.55 14.5436-15.2086 18.4493-15.2086L47.1124-15.2086L47.1124-3.6094C47.1124-0.595132 49.2775 0.741915 51.2567 0.741915ZM47.1536-22.4716L20.6375-22.4716L20.6375-22.9068L46.7079-62.5872L47.1536-62.5872ZM84.7013 0.741915C87.105 0.741915 89.0526-1.15387 89.0526-3.55764L89.0526-32.3097L127.697-32.3097L127.697-3.55764C127.697-1.15387 129.655 0.741915 132.048 0.741915C134.441 0.741915 136.4-1.15387 136.4-3.55764L136.4-66.9837C136.4-69.3875 134.441-71.3351 132.048-71.3351C129.655-71.3351 127.697-69.3875 127.697-66.9837L127.697-39.8526L89.0526-39.8526L89.0526-66.9837C89.0526-69.3875 87.105-71.3351 84.7013-71.3351C82.308-71.3351 80.3605-69.3875 80.3605-66.9837L80.3605-3.55764C80.3605-1.15387 82.308 0.741915 84.7013 0.741915Z"/>
</svg>