<svg xmlns="http://www.w3.org/2000/svg" viewBox="12.4609 -80.1648 89.86 89.91">
  <path d="M27.7789 9.74698L87.003 9.74698C97.235 9.74698 102.321 4.64 102.321-5.4157L102.321-65.0021C102.321-75.0578 97.235-80.1648 87.003-80.1648L27.7789-80.1648C17.5986-80.1648 12.4609-75.0789 12.4609-65.0021L12.4609-5.4157C12.4609 4.6611 17.5986 9.74698 27.7789 9.74698ZM27.9035 1.84176C23.0272 1.84176 20.3144-0.767488 20.3144-5.79908L20.3144-64.6187C20.3144-69.702 23.0272-72.2595 27.9035-72.2595L86.8784-72.2595C91.7125-72.2595 94.4675-69.702 94.4675-64.6187L94.4675-5.79908C94.4675-0.767488 91.7125 1.84176 86.8784 1.84176ZM57.5414-12.0039C67.5273-12.0039 74.4823-18.4816 74.4823-27.5444C74.4823-35.6335 68.4282-41.562 59.8819-41.562C56.5682-41.562 53.1721-40.3264 51.5396-38.6949L51.0623-38.809C51.5617-39.6516 52.226-40.5133 53.7318-42.4553C56.1672-45.6997 59.4171-49.6781 61.8078-52.7753C62.5745-53.7596 62.9273-54.5369 62.9273-55.4906C62.9273-56.9723 61.9842-58.4541 59.6427-58.4541C58.1082-58.4541 57.1133-57.4276 56.335-56.4106C53.1384-52.2593 50.1885-48.4974 47.6812-45.0988C42.625-38.4543 40.4654-33.1086 40.4654-27.8454C40.4654-18.4615 47.3898-12.0039 57.5414-12.0039ZM57.5414-18.1495C51.7421-18.1495 47.3873-22.0576 47.3873-27.2138C47.3873-32.3278 51.6999-36.0796 57.458-36.0796C63.3408-36.0796 67.6121-32.3172 67.6121-27.1716C67.6121-22.0365 63.3408-18.1495 57.5414-18.1495Z" />
</svg>