<svg xmlns="http://www.w3.org/2000/svg" viewBox="12.4609 -90.1903 113.18 110.04">
  <path d="M15.8701-83.0614L122.236-83.0614C124.153-83.0614 125.645-84.709 125.645-86.6259C125.645-88.5428 124.153-90.1903 122.236-90.1903L15.8701-90.1903C13.9532-90.1903 12.4609-88.5428 12.4609-86.6259C12.4609-84.709 13.9532-83.0614 15.8701-83.0614ZM36.3976 19.8454L53.368 19.8454C60.4703 19.8454 64.3598 15.9559 64.3598 8.69835L64.3598-62.7219C64.3598-69.9689 60.4703-73.9207 53.368-73.9207L36.3976-73.9207C29.2541-73.9207 25.4058-69.9689 25.4058-62.7219L25.4058 8.69835C25.4058 15.9559 29.2541 19.8454 36.3976 19.8454ZM84.7696-14.7121L101.74-14.7121C108.894-14.7121 112.732-18.6017 112.732-25.9004L112.732-62.7219C112.732-69.9689 108.894-73.9207 101.74-73.9207L84.7696-73.9207C77.6779-73.9207 73.7778-69.9689 73.7778-62.7219L73.7778-25.9004C73.7778-18.6017 77.6779-14.7121 84.7696-14.7121Z" />
</svg>