<svg xmlns="http://www.w3.org/2000/svg" viewBox="8.72266 -85.0341 99.6 99.55">
  <path d="M58.4961 14.5128C85.978 14.5128 108.321-7.83049 108.321-35.2606C108.321-62.6908 85.978-85.0341 58.4961-85.0341C31.0659-85.0341 8.72266-62.6908 8.72266-35.2606C8.72266-7.83049 31.0659 14.5128 58.4961 14.5128ZM43.9198-49.858C52.954-58.8922 67.3941-63.4817 78.7155-60.1057C81.6302-59.2344 82.5015-58.3114 83.2798-55.4378C86.7488-44.127 82.2111-29.6246 73.1769-20.6421C64.1945-11.608 49.6508-7.07028 38.34-10.4875C35.4665-11.3175 34.5952-12.1888 33.7134-15.1141C30.3479-26.3732 34.8856-40.8756 43.9198-49.858ZM63.9377-45.9484C63.4604-46.4669 62.7338-46.4152 62.153-45.9484C61.7379-45.4711 61.6862-44.641 62.153-44.1742L64.0136-42.4171L62.1319-40.6389L60.323-42.3337C59.8562-42.8628 59.1814-42.8628 58.6524-42.3337C58.175-41.9187 58.175-41.0886 58.6524-40.6631L60.4506-38.8648L58.6312-37.0454L56.7812-38.8331C56.2933-39.2587 55.5256-39.3622 55.1105-38.7919C54.6332-38.3663 54.6332-37.588 55.1105-37.1624L56.8571-35.3642L55.0683-33.493L53.3218-35.343C52.855-35.8204 52.0249-35.8204 51.5476-35.2913C51.0185-34.8245 50.9773-33.9945 51.5476-33.5171L53.3565-31.8223L51.516-29.9924L49.7177-31.7389C49.1886-32.1645 48.5243-32.1645 47.9952-31.7389C47.5179-31.2616 47.4662-30.4421 47.9952-30.0165L53.3248-24.7492C53.7398-24.2202 54.5076-24.2202 55.0367-24.6975C55.4623-25.2266 55.4623-25.9531 55.0367-26.4611L53.2489-28.2594L55.0894-30.0376L56.8254-28.3016C57.3545-27.7831 58.1328-27.7831 58.5478-28.2499C59.0769-28.7272 59.0252-29.5573 58.5478-30.024L56.7496-31.8118L58.6418-33.5277L60.419-31.854C60.8446-31.4284 61.6746-31.3249 62.1002-31.854C62.6705-32.269 62.5152-33.0473 62.1002-33.5247L60.3019-35.3642L62.1319-37.1835L63.9196-35.3958C64.4487-34.9808 65.1752-34.8773 65.642-35.3441C66.1711-35.8731 66.1194-36.6514 65.642-37.0665L63.8543-38.8542L65.6842-40.6842L67.472-38.8964C68.0011-38.4814 68.7794-38.4814 69.1944-38.8447C69.6717-39.4255 69.7235-40.2038 69.1944-40.6812Z"/>
</svg>