<svg xmlns="http://www.w3.org/2000/svg" viewBox="12.4609 -72.2636 85.99 74.01">
  <path d="M16.8535 1.74233C19.3914 1.74233 21.1837 0.00180552 21.1837-2.48437L21.1837-67.9334C21.1837-70.4713 19.3914-72.2636 16.8535-72.2636C14.305-72.2636 12.4609-70.4713 12.4609-67.9334L12.4609-2.48437C12.4609 0.00180552 14.305 1.74233 16.8535 1.74233ZM62.5676-68.0475C62.5676-70.4713 60.6824-72.2636 58.2786-72.2636C57.139-72.2636 56.1135-71.8285 55.088-70.917L22.675-38.503C21.7012-37.581 21.1626-36.4625 21.1626-35.2606C21.1626-34.0588 21.7012-32.9403 22.675-32.0183L55.088 0.395734C56.1135 1.3072 57.139 1.74233 58.2786 1.74233C60.6824 1.74233 62.5676-0.0499481 62.5676-2.47382C62.5676-3.62395 62.1219-4.78464 61.3763-5.53029L50.4474-16.6661L30.0204-35.2606L50.4474-53.8552L61.3763-64.991C62.1219-65.7367 62.5676-66.8973 62.5676-68.0475ZM29.3688-31.4691L44.8274-30.8787L94.176-30.8787C96.714-30.8787 98.4545-32.7227 98.4545-35.2606C98.4545-37.7986 96.714-39.6426 94.176-39.6426L44.8274-39.6426L29.3688-39.0522C27.3177-38.9487 25.5772-37.3117 25.5772-35.2606C25.5772-33.2096 27.3177-31.5726 29.3688-31.4691Z" />
</svg>