<svg xmlns="http://www.w3.org/2000/svg" viewBox="12.4609 -79.8809 103.43 89.39">
  <path d="M71.956-42.7518L93.6802-42.7518C96.2729-42.7518 97.5371-44.8988 96.0754-47.1588L85.452-64.5323C84.135-66.6994 81.5318-66.7617 80.1525-64.5323L69.602-47.1694C68.192-44.9093 69.301-42.7518 71.956-42.7518ZM71.956-26.455L93.6802-26.455C96.2729-26.455 97.5371-24.3598 96.0754-22.048L85.452-4.72627C84.135-2.54861 81.5318-2.48631 80.1525-4.72627L69.602-22.0374C68.192-24.3492 69.301-26.455 71.956-26.455ZM27.7894 9.50531L100.568 9.50531C110.905 9.50531 115.886 4.57669 115.886-5.57396L115.886-65.1382C115.886-74.9101 110.874-79.8809 100.999-79.8809L77.3283-79.8809C69.3814-79.8809 64.3684-78.168 57.9655-73.3218L20.0013-44.4722C14.4326-40.2309 12.4609-36.466 12.4609-29.5351L12.4609-5.57396C12.4609 4.57669 17.4931 9.50531 27.7894 9.50531ZM28.0628-35.5234C25.5053-35.5234 24.9742-38.2995 26.9594-39.8169L63.3213-67.6334C67.4776-70.9165 71.0596-71.9757 77.3283-71.9757L100.874-71.9757C105.393-71.9757 108.043-69.4815 108.043-64.7031L108.043-42.796C108.043-38.1221 105.351-35.5234 100.874-35.5234Z"/>
</svg>