<svg xmlns="http://www.w3.org/2000/svg" viewBox="12.4609 -75.6055 198.4 80.68">
  <path d="M12.4609-35.2606C12.4609-33.4136 13.2392-31.6711 14.7873-30.2476L49.0765 2.08805C51.3155 4.1612 53.1711 5.07366 55.41 5.07366C58.6861 5.07366 61.1321 2.64779 61.1321-0.556398L61.1321-16.5516L94.1374-16.5516C101.263-16.5516 105.537-20.8562 105.537-27.7946L105.537-42.7669C105.537-49.7053 101.315-53.8546 94.1374-53.8546L61.1321-53.8546L61.1321-69.7167C61.1321-73.0761 58.6343-75.6055 55.3583-75.6055C53.2228-75.6055 51.7295-74.8483 49.0765-72.3611L14.7873-40.3254C13.1759-38.7869 12.4609-37.0444 12.4609-35.2606ZM22.4097-34.2492C21.5861-35.0104 21.5967-35.5214 22.4097-36.2721L52.5088-64.987C52.8309-65.2573 53.2268-65.0915 53.2268-64.7684L53.2268-47.9718C53.2268-46.6855 53.9524-46.0117 55.1975-46.0117L93.8787-46.0117C96.3106-46.0117 97.6833-44.639 97.6833-42.1247L97.6833-28.2192C97.6833-25.7155 96.3106-24.4463 93.8787-24.4463L55.1975-24.4463C53.9524-24.4463 53.2268-23.7725 53.2268-22.3721L53.2268-6.12569C53.2268-5.69911 52.8309-5.58505 52.5088-5.90712ZM210.862-35.2606C210.862-37.0444 210.147-38.7869 208.526-40.3254L174.247-72.3611C171.583-74.8483 170.101-75.6055 167.903-75.6055C164.689-75.6055 162.181-73.0761 162.181-69.7167L162.181-53.8546L129.186-53.8546C122.009-53.8546 117.735-49.7053 117.735-42.7669L117.735-27.7946C117.735-20.8562 122.061-16.5516 129.186-16.5516L162.181-16.5516L162.181-0.556398C162.181 2.64779 164.637 5.07366 167.851 5.07366C170.152 5.07366 171.997 4.1612 174.247 2.08805L208.526-30.2476C210.084-31.6711 210.862-33.4136 210.862-35.2606ZM129.445-24.4463C127.002-24.4463 125.63-25.7155 125.63-28.2192L125.63-42.1247C125.63-44.639 127.002-46.0117 129.445-46.0117L168.115-46.0117C169.36-46.0117 170.086-46.6855 170.086-47.9718L170.086-64.7684C170.086-65.0915 170.43-65.2573 170.752-64.987L200.903-36.2721C201.675-35.5214 201.685-35.0104 200.903-34.2492L170.752-5.90712C170.43-5.58505 170.086-5.69911 170.086-6.12569L170.086-22.3721C170.086-23.7725 169.36-24.4463 168.115-24.4463Z"/>
</svg>