<svg xmlns="http://www.w3.org/2000/svg" viewBox="12.4609 -75.6573 197.37 80.78">
  <path d="M93.6199-53.3888L43.0626-53.3888C35.8855-53.3888 31.6528-49.136 31.6528-42.1458L31.6528-28.3122C31.6528-21.3737 35.9373-17.0691 43.0626-17.0691L93.6199-17.0691C100.745-17.0691 105.071-21.3737 105.071-28.3122L105.071-42.1458C105.071-49.136 100.797-53.3888 93.6199-53.3888ZM61.0803-0.556398L61.0803-69.7684C61.0803-73.0761 58.6343-75.6573 55.3583-75.6573C53.2228-75.6573 51.7295-74.9001 49.0248-72.4129L14.7873-40.3254C13.1759-38.7869 12.4609-37.0444 12.4609-35.2606C12.4609-33.4136 13.2392-31.6711 14.7873-30.2476L49.0248 2.08805C51.3155 4.21295 53.1193 5.12542 55.41 5.12542C58.7378 5.12542 61.0803 2.64779 61.0803-0.556398ZM128.668-53.3888C121.491-53.3888 117.217-49.136 117.217-42.1458L117.217-28.3122C117.217-21.3737 121.543-17.0691 128.668-17.0691L179.174-17.0691C186.351-17.0691 190.636-21.3737 190.636-28.3122L190.636-42.1458C190.636-49.136 186.403-53.3888 179.174-53.3888ZM161.208-0.556398C161.208 2.64779 163.55 5.12542 166.878 5.12542C169.169 5.12542 170.973 4.21295 173.264 2.08805L207.501-30.2476C209.049-31.6711 209.827-33.4136 209.827-35.2606C209.827-37.0444 209.112-38.7869 207.501-40.3254L173.264-72.4129C170.559-74.9001 169.065-75.6573 166.878-75.6573C163.654-75.6573 161.208-73.0761 161.208-69.7684Z"/>
</svg>