<svg xmlns="http://www.w3.org/2000/svg" viewBox="12.4609 -90.8963 28.23 111.34">
  <path d="M26.6277 1.00082C34.3601 1.00082 40.691-5.3407 40.691-13.1142L40.691-40.8243C40.691-42.5869 39.5399-43.738 37.829-43.738L15.437-43.738C13.6121-43.738 12.4609-42.5869 12.4609-40.8243L12.4609-13.1142C12.4609-5.3407 18.8025 1.00082 26.6277 1.00082ZM22.5437 20.4478L30.66 20.4478L30.66-2.23602L22.492-2.23602ZM21.9177-49.4324L31.2448-49.4324L31.2448-76.236L21.9177-76.236ZM21.9177-81.4129L31.2448-81.4129L31.2448-87.9202C31.2448-89.7039 30.0937-90.8963 28.3723-90.8963L24.8315-90.8963C23.0583-90.8963 21.9177-89.7039 21.9177-87.9202Z"/>
</svg>