<svg xmlns="http://www.w3.org/2000/svg" viewBox="8.72266 -84.9718 99.6 99.55">
  <path d="M58.4961 14.5751C85.978 14.5751 108.321-7.76818 108.321-35.1983C108.321-62.6285 85.978-84.9718 58.4961-84.9718C31.0659-84.9718 8.72266-62.6285 8.72266-35.1983C8.72266-7.76818 31.0659 14.5751 58.4961 14.5751ZM50.6236-4.51478C41.7869-4.51478 37.3642-9.02082 37.4266-18.0751C37.5512-28.3574 37.6135-35.8043 37.8627-41.4233C38.434-54.4173 41.4457-60.1694 50.1523-61.9647C50.7025-65.9608 53.9509-68.773 58.4443-68.773C62.9167-68.773 66.2169-65.9608 66.7671-61.9647C75.4842-60.1694 78.4547-54.4173 79.0777-41.4233C79.327-35.8043 79.3893-28.3574 79.5139-18.0751C79.5762-9.02082 75.1535-4.51478 66.3168-4.51478ZM54.2594-62.5762C55.5678-62.6491 56.9385-62.7008 58.4443-62.7008C59.9396-62.7008 61.3209-62.6491 62.6293-62.5762C61.9651-63.9796 60.4074-64.9458 58.4443-64.9458C56.5119-64.9458 54.9648-63.9796 54.2594-62.5762ZM46.3371-28.2403L70.6033-28.2403L70.6033-31.4812C70.6033-33.6206 69.222-35.0642 66.9791-35.0642L49.9613-35.0642C47.7184-35.0642 46.3371-33.6206 46.3371-31.4812ZM49.9613-14.682L66.9791-14.682C69.222-14.682 70.6033-16.1256 70.6033-18.3168L70.6033-25.013L46.3371-25.013L46.3371-18.3168C46.3371-16.1256 47.7184-14.682 49.9613-14.682Z"/>
</svg>