<svg xmlns="http://www.w3.org/2000/svg" viewBox="12.3363 -98.9964 80.58 122.47">
  <path d="M37.714 23.4696L67.5002 23.4696C84.5023 23.4696 92.919 14.9073 92.7944-2.32303C92.6075-21.9038 92.4829-36.1791 91.995-46.8724C90.5936-78.3368 81.6891-87.5223 52.6018-87.5223C23.5145-87.5223 14.6617-78.3368 13.2603-46.8724C12.7725-36.1791 12.6479-21.9038 12.4609-2.32303C12.3363 14.9073 20.7013 23.4696 37.714 23.4696ZM36.2754 4.10844C32.0714 4.10844 29.4239 1.35749 29.4239-2.75362L29.4239-27.9624C29.4239-32.0736 32.0714-34.8245 36.2754-34.8245L68.9799-34.8245C73.1322-34.8245 75.8314-32.0736 75.8314-27.9624L75.8314-2.75362C75.8314 1.35749 73.1322 4.10844 68.9799 4.10844ZM29.4239-15.9909L75.8314-15.9909L75.8314-21.8259L29.4239-21.8259ZM52.6123-98.9964C43.2882-98.9964 36.6688-92.5966 36.6688-83.997L43.539-83.997C43.539-88.7005 47.2772-92.0745 52.6123-92.0745C57.9369-92.0745 61.6752-88.7005 61.6752-83.997L68.5971-83.997C68.5971-92.5966 61.9882-98.9964 52.6123-98.9964Z"/>
</svg>