<svg xmlns="http://www.w3.org/2000/svg" viewBox="12.4609 -91.6374 106.75 112.92">
  <path d="M25.7565 21.2809L31.477 21.2809C35.1519 21.2809 37.9757 18.4571 37.9757 14.8339L37.9757 6.7257C47.6692 7.41106 57.1892 7.77433 65.7998 7.77433C74.3999 7.77433 83.941 7.46281 93.6968 6.73626L93.6968 14.8339C93.6968 18.4571 96.4688 21.2809 100.144 21.2809L105.916 21.2809C109.539 21.2809 112.363 18.4465 112.363 14.8339L112.363-79.1C112.363-85.3592 108.699-89.0005 102.068-89.7788C91.7146-90.9731 78.3442-91.6374 65.7998-91.6374C53.3484-91.6374 40.0509-91.0143 29.6154-89.7788C22.9739-89.0005 19.2577-85.3592 19.2577-79.1L19.2577 14.8339C19.2577 18.4465 22.0815 21.2809 25.7565 21.2809ZM33.4752-25.611C30.2068-26.119 28.6079-27.9459 28.6079-31.3907L28.6079-74.7533C28.6079-78.6639 30.455-80.7602 34.1998-81.1541C54.5508-83.2936 77.2061-83.283 97.5762-81.1541C101.269-80.7602 103.075-78.6639 103.075-74.7533L103.075-31.3907C103.075-27.9459 101.476-26.119 98.249-25.611C77.9693-22.5821 53.5047-22.5927 33.4752-25.611ZM36.4804-3.81734C32.8803-3.81734 30.1831-6.51454 30.1831-10.1147C30.1831-13.7042 32.8803-16.412 36.4804-16.412C40.07-16.412 42.7672-13.7042 42.7672-10.1147C42.7672-6.51454 40.07-3.81734 36.4804-3.81734ZM55.1829-5.94325C52.6304-5.94325 50.908-7.71743 50.908-10.2182C50.908-12.7601 52.6304-14.4308 55.1829-14.4308L76.3745-14.4308C78.9165-14.4308 80.6389-12.7601 80.6389-10.2182C80.6389-7.71743 78.9165-5.94325 76.3745-5.94325ZM95.1921-3.81734C91.6025-3.81734 88.9053-6.51454 88.9053-10.1147C88.9053-13.7042 91.6025-16.412 95.1921-16.412C98.7922-16.412 101.5-13.7042 101.5-10.1147C101.5-6.51454 98.7922-3.81734 95.1921-3.81734ZM19.2577-45.9409L19.2577-73.5509L17.0971-73.5509C14.3788-73.5509 12.4609-71.8707 12.4609-69.3087L12.4609-50.1831C12.4609-47.6105 14.3788-45.9409 17.0971-45.9409ZM112.363-45.9409L114.524-45.9409C117.304-45.9409 119.212-47.6105 119.212-50.1831L119.212-69.3087C119.212-71.8707 117.304-73.5509 114.524-73.5509L112.363-73.5509Z"/>
</svg>