<svg xmlns="http://www.w3.org/2000/svg" viewBox="12.4609 -83.9392 58.81 97.42">
  <path d="M25.7364 13.4803L57.9912 13.4803C65.9652 13.4803 71.2666 8.37528 71.2666 0.763553L71.2666-71.2225C71.2666-78.8343 65.9652-83.9392 57.9912-83.9392L25.7364-83.9392C17.7624-83.9392 12.4609-78.8343 12.4609-71.2225L12.4609 0.763553C12.4609 8.37528 17.7624 13.4803 25.7364 13.4803ZM26.7408 5.63734C22.6523 5.63734 20.3144 3.40292 20.3144-0.478535L20.3144-69.9804C20.3144-73.8619 22.6523-76.0963 26.7408-76.0963L56.9868-76.0963C61.0752-76.0963 63.4132-73.8619 63.4132-69.9804L63.4132-0.478535C63.4132 3.40292 61.0752 5.63734 56.9868 5.63734ZM29.1697-39.5557L54.5579-39.5557C57.1249-39.5557 58.6318-40.8967 58.6318-43.2557L58.6318-67.3415C58.6318-69.7006 57.1249-71.0416 54.5579-71.0416L29.1697-71.0416C26.6026-71.0416 25.0958-69.7006 25.0958-67.3415L25.0958-43.2557C25.0958-40.8967 26.6026-39.5557 29.1697-39.5557ZM28.2934-25.2477L32.7879-25.2477C33.8777-25.2477 34.6666-25.9742 34.6666-27.0018L34.6666-31.6103C34.6666-32.6378 33.8777-33.3644 32.7879-33.3644L28.2934-33.3644C27.2553-33.3644 26.5288-32.6378 26.5288-31.6103L26.5288-27.0018C26.5288-25.9742 27.2553-25.2477 28.2934-25.2477ZM39.4248-25.2477L43.9711-25.2477C45.0609-25.2477 45.8498-25.9742 45.8498-27.0018L45.8498-31.6103C45.8498-32.6378 45.0609-33.3644 43.9711-33.3644L39.4248-33.3644C38.4491-33.3644 37.7225-32.6378 37.7225-31.6103L37.7225-27.0018C37.7225-25.9742 38.4491-25.2477 39.4248-25.2477ZM50.6186-25.2477L55.1543-25.2477C56.2547-25.2477 56.9918-25.9742 56.9918-27.0018L56.9918-31.6103C56.9918-32.6378 56.2547-33.3644 55.1543-33.3644L50.6186-33.3644C49.5805-33.3644 48.9057-32.6378 48.9057-31.6103L48.9057-27.0018C48.9057-25.9742 49.5805-25.2477 50.6186-25.2477ZM28.2934-13.2354L32.7879-13.2354C33.8777-13.2354 34.6666-13.962 34.6666-14.9895L34.6666-19.6086C34.6666-20.6361 33.8777-21.3521 32.7879-21.3521L28.2934-21.3521C27.2553-21.3521 26.5288-20.6361 26.5288-19.6086L26.5288-14.9895C26.5288-13.962 27.2553-13.2354 28.2934-13.2354ZM39.4248-13.2354L43.9711-13.2354C45.0609-13.2354 45.8498-13.962 45.8498-14.9895L45.8498-19.6086C45.8498-20.6361 45.0609-21.3521 43.9711-21.3521L39.4248-21.3521C38.4491-21.3521 37.7225-20.6361 37.7225-19.6086L37.7225-14.9895C37.7225-13.962 38.4491-13.2354 39.4248-13.2354ZM50.6186-13.2354L55.1543-13.2354C56.2547-13.2354 56.9918-13.962 56.9918-14.9895L56.9918-19.6086C56.9918-20.6361 56.2547-21.3521 55.1543-21.3521L50.6186-21.3521C49.5805-21.3521 48.9057-20.6361 48.9057-19.6086L48.9057-14.9895C48.9057-13.962 49.5805-13.2354 50.6186-13.2354ZM28.2934-1.22319L32.7879-1.22319C33.8777-1.22319 34.6666-1.89799 34.6666-2.92551L34.6666-7.59636C34.6666-8.63444 33.8777-9.30924 32.7879-9.30924L28.2934-9.30924C27.2553-9.30924 26.5288-8.63444 26.5288-7.59636L26.5288-2.92551C26.5288-1.89799 27.2553-1.22319 28.2934-1.22319ZM39.4248-1.22319L43.9711-1.22319C45.0609-1.22319 45.8498-1.89799 45.8498-2.92551L45.8498-7.59636C45.8498-8.63444 45.0609-9.30924 43.9711-9.30924L39.4248-9.30924C38.4491-9.30924 37.7225-8.63444 37.7225-7.59636L37.7225-2.92551C37.7225-1.89799 38.4491-1.22319 39.4248-1.22319ZM50.6186-1.22319L55.1543-1.22319C56.2547-1.22319 56.9918-1.89799 56.9918-2.92551L56.9918-7.59636C56.9918-8.63444 56.2547-9.30924 55.1543-9.30924L50.6186-9.30924C49.5805-9.30924 48.9057-8.63444 48.9057-7.59636L48.9057-2.92551C48.9057-1.89799 49.5805-1.22319 50.6186-1.22319Z"/>
</svg>