<svg xmlns="http://www.w3.org/2000/svg" viewBox="12.4609 -89.8818 133.3 107.8">
  <path d="M79.1049-55.9167C81.4263-55.9167 82.7633-57.2854 82.8151-59.7937L83.5406-85.5391C83.5924-88.0579 81.6238-89.8818 79.0532-89.8818C76.4414-89.8818 74.5657-88.1096 74.6174-85.5908L75.2395-59.7937C75.2912-57.3371 76.6906-55.9167 79.1049-55.9167ZM79.1049-40.0983C81.9363-40.0983 84.3833-42.3182 84.3833-45.1179C84.3833-47.9799 81.988-50.1892 79.1049-50.1892C76.2324-50.1892 73.8266-47.9387 73.8266-45.1179C73.8266-42.3594 76.2841-40.0983 79.1049-40.0983ZM145.759-40.2656L145.759-48.42C143.696-47.4241 141.622-46.273 139.444-44.9043L121.625-33.6895L102.121-31.2902C89.8852-29.7854 82.5161-22.2515 82.5161-11.822L82.5161-6.19147C82.5161 3.84313 86.9272 8.33761 96.5362 8.33761L102.839 8.33761L102.839 1.2509L96.5362 1.2509C91.7865 1.2509 89.6028-1.16088 89.6028-6.50199L89.6028-11.822C89.6028-18.3765 94.4751-23.2584 102.991-24.3176L120.552-26.4465C123.273-26.7686 125.056-27.3801 126.873-28.5322L143.226-38.7808C144.088-39.331 144.898-39.8295 145.759-40.2656ZM145.759 8.33761L145.759 1.2509L126.018 1.2509L126.018 8.33761ZM114.935 17.921C123.715 17.921 130.627 11.0092 130.627 2.22922C130.627-6.59194 123.715-13.4002 114.935-13.4002C106.114-13.4002 99.3057-6.59194 99.3057 2.22922C99.3057 11.0092 106.114 17.921 114.935 17.921ZM114.935 11.2483C109.948 11.2483 105.927 7.2789 105.927 2.22922C105.927-2.80992 109.948-6.77932 114.935-6.77932C119.985-6.77932 124.006-2.80992 124.006 2.22922C124.006 7.2789 119.985 11.2483 114.935 11.2483ZM39.6193 17.921C48.3887 17.921 55.2488 11.0092 55.2488 2.22922C55.2488-6.59194 48.3887-13.4002 39.6193-13.4002C30.777-13.4002 23.8758-6.59194 23.8758 2.22922C23.8758 11.0092 30.777 17.921 39.6193 17.921ZM39.6193 11.2483C34.5591 11.2483 30.5485 7.2789 30.5485 2.22922C30.5485-2.80992 34.5591-6.77932 39.6193-6.77932C44.6067-6.77932 48.5761-2.80992 48.5761 2.22922C48.5761 7.2789 44.6067 11.2483 39.6193 11.2483ZM12.4609 1.2509L12.4609 8.33761L29.0753 8.33761L29.0753 1.2509ZM51.622 8.33761L57.9665 8.33761C67.6791 8.33761 71.9761 3.79137 71.9761-6.50199L71.9761-18.662C71.9761-26.8199 68.0232-32.0389 59.687-34.717L52.6772-36.96C43.5285-44.8279 31.5684-53.417 15.847-53.417L12.4609-53.417L12.4609-46.2785L15.847-46.2785C26.9689-46.2785 35.9503-41.9142 47.0386-32.1238C49.1655-30.339 50.2438-29.8522 52.8766-29.0125L57.5535-27.5162C62.563-25.926 64.8999-23.2459 64.8999-18.662L64.8999-6.50199C64.8999-1.16088 62.7162 1.2509 57.9665 1.2509L51.622 1.2509Z"/>
</svg>