<svg xmlns="http://www.w3.org/2000/svg" viewBox="12.4609 -93.0805 133.3 111">
  <path d="M84.4601-89.6346L82.3016-80.73L71.2173-92.1047C70.2933-93.0805 69.0683-92.3539 69.5045-91.0149L73.4688-79.3392L68.3217-81.6742C67.1072-82.1726 66.2244-81.3109 67.0967-80.1377L69.9607-76.3918L56.7074-78.2389C55.1095-78.4775 54.7347-76.9209 55.9808-76.1733L68.4558-68.6173L60.9938-65.8568C59.6854-65.3584 59.8723-63.8429 61.2948-63.7183L69.6386-63.1164L58.2851-55.478C57.1425-54.7198 57.6208-53.028 59.1774-53.3913L73.5935-56.6503L73.7698-44.4867C73.7698-43.21 75.0265-43.0959 75.5661-43.9883L84.7927-59.2344L100.361-45.2027C101.534-44.1541 102.977-45.2756 102.198-46.6664L93.013-63.9052L102.416-66.7281C103.215-66.9773 103.215-68.0777 102.427-68.3892L94.1133-71.7727L100.092-88.7211C100.465-89.7909 99.3545-90.7561 98.4305-89.8215L88.7265-80.6677L86.381-89.6452C86.0695-90.8807 84.7716-90.9124 84.4601-89.6346ZM145.759-40.2656L145.759-48.42C143.696-47.4241 141.622-46.273 139.444-44.9043L121.625-33.6895L102.121-31.2902C89.8852-29.7854 82.5161-22.2515 82.5161-11.822L82.5161-6.19147C82.5161 3.84313 86.9272 8.33761 96.5362 8.33761L102.839 8.33761L102.839 1.2509L96.5362 1.2509C91.7865 1.2509 89.6028-1.16088 89.6028-6.50199L89.6028-11.822C89.6028-18.3765 94.4751-23.2584 102.991-24.3176L120.552-26.4465C123.273-26.7686 125.056-27.3801 126.873-28.5322L143.226-38.7808C144.088-39.331 144.898-39.8295 145.759-40.2656ZM145.759 8.33761L145.759 1.2509L126.018 1.2509L126.018 8.33761ZM114.935 17.921C123.715 17.921 130.627 11.0092 130.627 2.22922C130.627-6.59194 123.715-13.4002 114.935-13.4002C106.114-13.4002 99.3057-6.59194 99.3057 2.22922C99.3057 11.0092 106.114 17.921 114.935 17.921ZM114.935 11.2483C109.948 11.2483 105.927 7.2789 105.927 2.22922C105.927-2.80992 109.948-6.77932 114.935-6.77932C119.985-6.77932 124.006-2.80992 124.006 2.22922C124.006 7.2789 119.985 11.2483 114.935 11.2483ZM39.6193 17.921C48.3887 17.921 55.2488 11.0092 55.2488 2.22922C55.2488-6.59194 48.3887-13.4002 39.6193-13.4002C30.777-13.4002 23.8758-6.59194 23.8758 2.22922C23.8758 11.0092 30.777 17.921 39.6193 17.921ZM39.6193 11.2483C34.5591 11.2483 30.5485 7.2789 30.5485 2.22922C30.5485-2.80992 34.5591-6.77932 39.6193-6.77932C44.6067-6.77932 48.5761-2.80992 48.5761 2.22922C48.5761 7.2789 44.6067 11.2483 39.6193 11.2483ZM12.4609 1.2509L12.4609 8.33761L29.0753 8.33761L29.0753 1.2509ZM51.622 8.33761L57.9665 8.33761C67.6791 8.33761 71.9761 3.79137 71.9761-6.50199L71.9761-18.662C71.9761-26.8199 68.0232-32.0389 59.687-34.717L52.6772-36.96C43.5285-44.8279 31.5684-53.417 15.847-53.417L12.4609-53.417L12.4609-46.2785L15.847-46.2785C26.9689-46.2785 35.9503-41.9142 47.0386-32.1238C49.1655-30.339 50.2438-29.8522 52.8766-29.0125L57.5535-27.5162C62.563-25.926 64.8999-23.2459 64.8999-18.662L64.8999-6.50199C64.8999-1.16088 62.7162 1.2509 57.9665 1.2509L51.622 1.2509Z"/>
</svg>