<svg xmlns="http://www.w3.org/2000/svg" viewBox="12.4609 -80.1648 89.86 89.91">
  <path d="M27.7789 9.74698L87.003 9.74698C97.235 9.74698 102.321 4.64 102.321-5.4157L102.321-65.0021C102.321-75.0578 97.235-80.1648 87.003-80.1648L27.7789-80.1648C17.5986-80.1648 12.4609-75.0789 12.4609-65.0021L12.4609-5.4157C12.4609 4.6611 17.5986 9.74698 27.7789 9.74698ZM27.9035 1.84176C23.0272 1.84176 20.3144-0.767488 20.3144-5.79908L20.3144-64.6187C20.3144-69.702 23.0272-72.2595 27.9035-72.2595L86.8784-72.2595C91.7125-72.2595 94.4675-69.702 94.4675-64.6187L94.4675-5.79908C94.4675-0.767488 91.7125 1.84176 86.8784 1.84176ZM57.8012-13.7906C65.13-13.7906 71.7956-17.0199 74.12-23.5504C74.421-24.298 74.5561-25.014 74.5561-25.8652C74.5561-27.4409 73.5507-28.4157 71.975-28.4157C70.4098-28.4157 69.6526-27.6173 69.1763-26.1968C67.7337-21.6963 63.0905-18.8906 57.8012-18.8906C48.671-18.8906 44.5464-26.8762 44.5464-35.6757C44.5464-44.5883 48.9404-52.3974 57.7494-52.3974C62.8941-52.3974 67.4855-49.3405 68.8341-45.0279C69.3728-43.5768 70.036-42.7784 71.6223-42.7784C73.1568-42.7784 74.214-43.7014 74.214-45.3806C74.214-46.4896 73.8929-47.4231 73.5402-48.2743C70.8324-54.2767 64.5617-57.4562 57.7494-57.4562C45.6231-57.4562 38.6174-48.2783 38.6174-35.6757C38.6174-23.3318 45.2503-13.7906 57.8012-13.7906ZM57.4168-8.13046C58.3398-8.13046 59.0242-8.81481 59.0242-9.78958L59.0242-61.3834C59.0242-62.2959 58.3398-63.032 57.4168-63.032C56.442-63.032 55.7059-62.2959 55.7059-61.3834L55.7059-9.78958C55.7059-8.86656 56.442-8.13046 57.4168-8.13046Z" />
</svg>