<svg xmlns="http://www.w3.org/2000/svg" viewBox="12.4609 -97.1699 82.12 118.23">
  <path d="M53.2529-31.3244C50.7005-31.3244 48.7394-33.1925 48.4288-35.538L35.3082-42.2382C34.5299-41.6669 33.5541-41.3449 32.516-41.3449C29.8083-41.3449 27.6402-43.5235 27.6402-46.283C27.6402-48.9802 29.8083-51.1589 32.516-51.1589C35.1087-51.1589 37.2472-49.2199 37.3919-46.4373L50.1704-40.0064C51.0004-40.7023 52.0385-41.1384 53.2529-41.1384C54.0946-41.1384 54.9151-40.9198 55.5899-40.545L69.624-50.9368C69.529-54.349 72.0077-56.1674 74.4787-56.1674C77.2382-56.1674 79.3652-53.9993 79.3652-51.2398C79.3652-48.5838 77.2382-46.3639 74.4787-46.3639C73.6793-46.3639 72.8905-46.5614 72.2262-46.8834L58.1288-36.5012C58.1394-33.0161 55.6291-31.3244 53.2529-31.3244ZM31.3081-15.0995C29.536-15.0995 28.1472-16.4883 28.1472-18.2499C28.1472-19.9704 29.536-21.3486 31.3081-21.3486L75.7489-21.3486C77.5106-21.3486 78.8994-19.9704 78.8994-18.2499C78.8994-16.4883 77.5106-15.0995 75.7489-15.0995ZM31.3081 3.73862C29.5877 3.73862 28.1472 2.30862 28.1472 0.588192C28.1472-1.13223 29.536-2.51048 31.3081-2.51048L56.6807-2.51048C58.4529-2.51048 59.8311-1.13223 59.8311 0.588192C59.8311 2.30862 58.4011 3.73862 56.6807 3.73862ZM27.5719 21.0578L79.4229 21.0578C89.5103 21.0578 94.5856 15.9825 94.5856 5.7504L94.5856-68.3313C94.5856-78.5117 89.5103-83.6493 79.9405-83.6493L78.8165-83.6493C78.8165-83.4624 78.8165-83.2132 78.8165-83.0262L78.8165-77.2254C78.8165-71.0853 74.6672-66.7089 68.5683-66.7089L38.4264-66.7089C32.3793-66.7089 28.23-71.0853 28.23-77.2254L28.23-83.0262C28.23-83.2132 28.23-83.4624 28.23-83.6493L27.1061-83.6493C17.4951-83.6493 12.4609-78.5117 12.4609-68.3313L12.4609 5.7504C12.4609 15.9825 17.4951 21.0578 27.5719 21.0578ZM38.4264-72.4033L68.5683-72.4033C71.4314-72.4033 73.1739-74.187 73.1739-77.2254L73.1739-82.364C73.1739-85.4129 71.4314-87.1861 68.5683-87.1861L64.1071-87.1861C63.7965-92.7177 59.1995-97.1699 53.5233-97.1699C47.8575-97.1699 43.25-92.7177 42.8877-87.1861L38.4264-87.1861C35.574-87.1861 33.8726-85.4129 33.8726-82.364L33.8726-77.2254C33.8726-74.187 35.574-72.4033 38.4264-72.4033ZM53.5233-82.5449C51.1758-82.5449 49.2338-84.4974 49.2338-86.8344C49.2338-89.1924 51.1758-91.0826 53.5233-91.0826C55.8707-91.0826 57.761-89.1924 57.761-86.8344C57.761-84.4974 55.8707-82.5449 53.5233-82.5449Z"/>
</svg>