<svg xmlns="http://www.w3.org/2000/svg" viewBox="8.72266 -95.4782 99.6 109.99">
  <path d="M67.9307-91.0309C67.9307-94.5446 65.526-95.4782 62.8403-93.5392L47.3094-82.566C45.0282-80.9797 45.0799-78.6679 47.3094-77.0816L62.8921-66.1602C65.526-64.273 67.9307-65.2066 67.9307-68.6685ZM58.4961 14.5128C85.9991 14.5128 108.321-7.75763 108.321-35.2606C108.321-62.7637 86.0509-84.9823 58.4338-85.0341C56.1853-84.9823 54.3518-83.1689 54.3518-80.9003C54.3518-78.6317 56.237-76.7666 58.4855-76.7666C81.4408-76.7666 100.002-58.2053 100.002-35.2606C100.002-12.316 81.4408 6.24529 58.4961 6.24529C35.5514 6.24529 17.0314-12.316 17.0314-35.2606C17.0314-49.1636 23.8507-61.3728 34.2455-68.8398C36.2036-70.3522 36.8563-72.6419 35.6132-74.6623C34.4324-76.6616 31.6146-77.2108 29.4284-75.5949C16.8685-66.512 8.72266-51.992 8.72266-35.2606C8.72266-7.75763 31.0448 14.5128 58.4961 14.5128ZM53.2213-12.0833C54.8066-12.0833 56.1532-12.8501 57.148-14.3519L79.446-49.459C80.0259-50.4223 80.6163-51.5206 80.6163-52.5979C80.6163-54.763 78.6582-56.1624 76.6378-56.1624C75.3841-56.1624 74.1717-55.4368 73.2391-53.9762L53.0037-21.4713L43.341-33.9357C42.2014-35.4998 41.1136-35.8938 39.7871-35.8938C37.6738-35.8938 36.0156-34.205 36.0156-32.0188C36.0156-30.9722 36.4613-29.9255 37.1246-28.993L49.0358-14.3519C50.2894-12.736 51.5737-12.0833 53.2213-12.0833Z" />
</svg>