<svg xmlns="http://www.w3.org/2000/svg" viewBox="12.4609 -87.5725 82.12 104.67">
  <path d="M12.4609 1.77545C12.4609 12.0075 17.4951 17.0934 27.5719 17.0934L79.4229 17.0934C89.5103 17.0934 94.5856 12.0075 94.5856 1.77545L94.5856-72.2545C94.5856-82.4348 89.5103-87.5725 79.4229-87.5725L27.5719-87.5725C17.4951-87.5725 12.4609-82.4348 12.4609-72.2545ZM48.0415-11.3894C46.3527-11.3894 45.0061-12.0421 43.7112-13.7615L31.479-28.7649C30.764-29.7492 30.3288-30.8476 30.3288-31.9459C30.3288-34.1839 32.0281-35.9762 34.245-35.9762C35.6233-35.9762 36.7216-35.5305 37.9024-33.9146L47.8239-21.1397L68.6803-54.5761C69.6129-56.0885 70.8771-56.8553 72.1825-56.8553C74.3064-56.8553 76.3162-55.4147 76.3162-53.0943C76.3162-52.0171 75.6741-50.8669 75.0942-49.9037L52.1234-13.7615C51.1286-12.1562 49.7302-11.3894 48.0415-11.3894Z" />
</svg>