<svg xmlns="http://www.w3.org/2000/svg" viewBox="12.4609 -83.2589 81.16 98.62">
  <path d="M53.0429 15.365C53.8021 15.365 55.0482 15.0524 56.324 14.347C84.0456-1.14879 93.6249-7.74708 93.6249-25.5562L93.6249-62.9159C93.6249-68.0777 91.385-69.6775 87.2794-71.4125C81.5152-73.8252 62.876-80.5029 57.1013-82.5112C55.8034-82.9474 54.4337-83.2589 53.0429-83.2589C51.6521-83.2589 50.2307-82.8439 48.9846-82.5112C43.2204-80.8748 24.5706-73.7735 18.7959-71.4125C14.7009-69.7398 12.4609-68.0777 12.4609-62.9159L12.4609-25.5562C12.4609-7.74708 22.072-1.26385 49.7619 14.347C51.0376 15.0524 52.2837 15.365 53.0429 15.365ZM53.0429 6.48697C52.2742 6.48697 51.4738 6.2262 49.9814 5.37603C27.4367-8.335 20.2109-12.3436 20.2109-27.357L20.2109-61.4447C20.2109-63.0621 20.5445-63.7293 21.8579-64.2815C29.2632-67.1858 43.6811-72.0123 51.1075-74.9472C51.836-75.2492 52.5128-75.3537 53.0429-75.3537C53.573-75.3537 54.2287-75.2386 54.9678-74.9472C62.3424-72.0123 76.6051-66.8752 84.1762-64.2815C85.5413-63.7811 85.8232-63.0621 85.8232-61.4447L85.8232-27.357C85.8232-12.3436 78.5763-8.36666 56.0527 5.37603C54.6121 6.2262 53.8117 6.48697 53.0429 6.48697ZM47.7164-13.1118C49.3428-13.1118 50.7-13.9303 51.6431-15.3804L73.9823-50.5393C74.5209-51.4613 75.1631-52.5492 75.1631-53.6264C75.1631-55.7915 73.205-57.2426 71.1846-57.2426C69.8792-57.2426 68.6668-56.4653 67.786-55.0152L47.4988-22.5516L37.8879-34.9642C36.7483-36.5284 35.6499-36.9741 34.334-36.9741C32.1583-36.9741 30.5107-35.2335 30.5107-33.0473C30.5107-32.0007 30.9564-30.9541 31.6714-30.0733L43.5309-15.3804C44.7845-13.8163 46.0688-13.1118 47.7164-13.1118Z" />
</svg>