<svg xmlns="http://www.w3.org/2000/svg" viewBox="12.4609 -77.6837 56.4 84.86">
  <path d="M12.4715 2.6769C12.4715 5.21483 14.419 7.17292 16.9675 7.17292C18.2106 7.17292 19.2361 6.71669 20.1169 5.79467L58.7901-31.9751C59.7437-32.877 60.2105-34.0166 60.2105-35.2501C60.2105-36.5354 59.6814-37.6338 58.8313-38.5357L20.1064-76.316C19.2256-77.1862 18.2106-77.6837 16.8947-77.6837C14.419-77.6837 12.4609-75.7773 12.4609-73.1876C12.4609-71.9551 12.9373-70.8673 13.7663-69.9865L52.3907-32.2655L52.3907-38.2558L13.7663-0.461974C12.8961 0.408288 12.4715 1.44436 12.4715 2.6769ZM60.0859 2.93567C60.0859 5.42185 61.9299 7.17292 64.4679 7.17292C67.0163 7.17292 68.8604 5.42185 68.8604 2.93567L68.8604-73.3429C68.8604-75.8808 67.0163-77.6837 64.4679-77.6837C61.9299-77.6837 60.0859-75.8808 60.0859-73.3429Z"/>
</svg>