<svg xmlns="http://www.w3.org/2000/svg" viewBox="8.72266 -83.6192 104.31 96.77">
  <path d="M60.8702-18.9207C69.8813-18.9207 77.2207-26.2496 77.2207-35.2606C77.2207-44.2717 69.8813-51.6006 60.8702-51.6006C51.8697-51.6006 44.582-44.2717 44.582-35.2606C44.582-26.2496 51.8697-18.9207 60.8702-18.9207ZM60.8702-26.8154C56.2421-26.8154 52.4355-30.622 52.4355-35.2606C52.4355-39.8993 56.2421-43.7059 60.8702-43.7059C65.5606-43.7059 69.3155-39.8993 69.3155-35.2606C69.3155-30.622 65.5606-26.8154 60.8702-26.8154ZM42.9199-50.9805C51.9827-50.9805 59.2598-58.3094 59.2598-67.3204C59.2598-76.3315 51.9827-83.6192 42.9199-83.6192C33.9088-83.6192 26.6317-76.3315 26.6317-67.3204C26.6317-58.3094 33.9088-50.9805 42.9199-50.9805ZM42.9199-58.8752C38.2813-58.8752 34.4747-62.6818 34.4747-67.3204C34.4747-71.9591 38.2813-75.7657 42.9199-75.7657C47.6103-75.7657 51.4169-71.9591 51.4169-67.3204C51.4169-62.6818 47.6103-58.8752 42.9199-58.8752ZM78.8311-50.9805C87.8421-50.9805 95.1192-58.3094 95.1192-67.3204C95.1192-76.3315 87.8421-83.6192 78.8311-83.6192C69.82-83.6192 62.4911-76.3315 62.4911-67.3204C62.4911-58.3094 69.82-50.9805 78.8311-50.9805ZM78.8311-58.8752C74.1924-58.8752 70.3858-62.6818 70.3858-67.3204C70.3858-71.9591 74.1924-75.7657 78.8311-75.7657C83.4697-75.7657 87.2763-71.9591 87.2763-67.3204C87.2763-62.6818 83.4697-58.8752 78.8311-58.8752ZM25.0626-18.9207C34.0737-18.9207 41.3613-26.2496 41.3613-35.2606C41.3613-44.2717 34.0737-51.6006 25.0626-51.6006C16.0103-51.6006 8.72266-44.2717 8.72266-35.2606C8.72266-26.2496 16.0103-18.9207 25.0626-18.9207ZM25.0626-26.8154C20.3722-26.8154 16.5761-30.622 16.5761-35.2606C16.5761-39.8993 20.3722-43.7059 25.0626-43.7059C29.7012-43.7059 33.5078-39.8993 33.5078-35.2606C33.5078-30.622 29.7012-26.8154 25.0626-26.8154ZM96.7402-18.9207C105.741-18.9207 113.028-26.2496 113.028-35.2606C113.028-44.2717 105.741-51.6006 96.7402-51.6006C87.7291-51.6006 80.3897-44.2717 80.3897-35.2606C80.3897-26.2496 87.7291-18.9207 96.7402-18.9207ZM96.7402-26.8154C92.0497-26.8154 88.2431-30.622 88.2431-35.2606C88.2431-39.8993 92.0497-43.7059 96.7402-43.7059C101.368-43.7059 105.175-39.8993 105.175-35.2606C105.175-30.622 101.368-26.8154 96.7402-26.8154ZM42.9199 13.1496C51.9827 13.1496 59.2598 5.86199 59.2598-3.14909C59.2598-12.1602 51.9827-19.489 42.9199-19.489C33.9088-19.489 26.6317-12.1602 26.6317-3.14909C26.6317 5.86199 33.9088 13.1496 42.9199 13.1496ZM42.9199 5.29617C38.2813 5.29617 34.4747 1.48957 34.4747-3.14909C34.4747-7.78775 38.2813-11.5943 42.9199-11.5943C47.6103-11.5943 51.4169-7.78775 51.4169-3.14909C51.4169 1.48957 47.6103 5.29617 42.9199 5.29617ZM78.8311 13.1496C87.8421 13.1496 95.1192 5.86199 95.1192-3.14909C95.1192-12.1602 87.8421-19.489 78.8311-19.489C69.82-19.489 62.4911-12.1602 62.4911-3.14909C62.4911 5.86199 69.82 13.1496 78.8311 13.1496ZM78.8311 5.29617C74.1924 5.29617 70.3858 1.48957 70.3858-3.14909C70.3858-7.78775 74.1924-11.5943 78.8311-11.5943C83.4697-11.5943 87.2763-7.78775 87.2763-3.14909C87.2763 1.48957 83.4697 5.29617 78.8311 5.29617Z"/>
</svg>