<svg xmlns="http://www.w3.org/2000/svg" viewBox="12.4609 -80.1648 115.09 89.91">
  <path d="M69.7838-8.0194C84.8058-8.0194 96.9522-20.1553 96.9522-35.1878C96.9522-50.2098 84.8058-62.3562 69.7838-62.3562C54.803-62.3562 42.6672-50.2098 42.6672-35.1878C42.6672-20.1553 54.803-8.0194 69.7838-8.0194ZM69.7838-14.3203C58.1806-14.3203 48.968-23.5846 48.968-35.1878C48.968-46.791 58.1806-56.0553 69.7838-56.0553C81.4282-56.0553 90.6513-46.791 90.6513-35.1878C90.6513-23.5846 81.4282-14.3203 69.7838-14.3203ZM17.1841-32.9056L61.0551-76.7767L50.6522-76.7767L17.1841-43.3086ZM69.2898-58.3958L79.6928-58.3958L97.8742-76.5772L87.8807-76.9867ZM17.4785 3.76673L45.6653-24.3683L45.6653-34.7301L17.1735-6.27949ZM93.034-34.3858L122.115-63.4665L121.705-73.367L93.034-44.6335ZM53.6213 4.97509L70.5847-11.9883L60.2853-11.9883L43.6384 4.60681ZM80.4469 4.81683L90.9016 4.81683L122-26.3329L122-36.7359ZM27.7789 9.74698L112.233 9.74698C122.465 9.74698 127.551 4.64 127.551-5.4157L127.551-65.0021C127.551-75.0578 122.465-80.1648 112.233-80.1648L27.7789-80.1648C17.5986-80.1648 12.4609-75.0789 12.4609-65.0021L12.4609-5.4157C12.4609 4.6611 17.5986 9.74698 27.7789 9.74698ZM27.9035 1.84176C23.0272 1.84176 20.3144-0.767488 20.3144-5.79908L20.3144-64.6187C20.3144-69.702 23.0272-72.2595 27.9035-72.2595L112.108-72.2595C116.942-72.2595 119.697-69.702 119.697-64.6187L119.697-5.79908C119.697-0.767488 116.942 1.84176 112.108 1.84176Z"/>
</svg>