<svg xmlns="http://www.w3.org/2000/svg" viewBox="8.72266 -85.0341 99.6 99.55">
  <path d="M58.4961 14.5128C85.9991 14.5128 108.321-7.75763 108.321-35.2606C108.321-62.7637 85.9991-85.0341 58.4961-85.0341C31.0448-85.0341 8.72266-62.7637 8.72266-35.2606C8.72266-7.75763 31.0448 14.5128 58.4961 14.5128ZM58.4961 6.24529C35.5514 6.24529 17.0314-12.316 17.0314-35.2606C17.0314-58.2053 35.5514-76.7666 58.4961-76.7666C81.4408-76.7666 100.002-58.2053 100.002-35.2606C100.002-12.316 81.4408 6.24529 58.4961 6.24529ZM35.4921-21.516L59.7175-21.516C66.3123-21.516 71.3188-26.5013 71.3188-32.9398C71.3188-39.2642 66.2711-44.0828 59.5306-44.2285C56.8611-49.0903 52.2189-52.1452 46.5979-52.1452C39.2133-52.1452 32.9301-46.3594 32.1096-39.0361C28.4632-37.79 25.8339-34.5502 25.8339-30.3843C25.8339-25.2658 29.7274-21.516 35.4921-21.516ZM55.0371-54.1314C55.8979-53.2295 57.3595-53.333 58.2202-54.1726C58.9563-54.971 59.0598-56.4538 58.2202-57.2522L54.6945-60.7156C53.782-61.5763 52.4239-61.5658 51.6149-60.7262C50.7753-59.9901 50.7753-58.5073 51.6149-57.6571ZM68.192-58.3279C69.4572-58.3279 70.452-59.3439 70.452-60.5257L70.452-65.4558C70.452-66.6481 69.4572-67.6641 68.192-67.6641C66.9996-67.6641 65.9731-66.6481 65.9731-65.4558L65.9731-60.5257C65.9731-59.3439 66.9996-58.3279 68.192-58.3279ZM78.2366-54.1832C79.035-53.333 80.6107-53.2295 81.4197-54.1314L84.8725-57.6571C85.7227-58.4661 85.6709-59.9795 84.8725-60.7156C84.0329-61.5658 82.623-61.6281 81.7623-60.7156L78.2366-57.2522C77.3347-56.4643 77.4276-54.9816 78.2366-54.1832ZM84.6309-41.9303L89.4469-41.9303C90.7015-41.9303 91.7175-42.8945 91.7175-44.1386C91.7175-45.3932 90.7015-46.3469 89.4469-46.3469L84.6309-46.3469C83.4797-46.3469 82.412-45.3932 82.412-44.1386C82.412-42.8945 83.4797-41.9303 84.6309-41.9303ZM81.7623-27.4475C82.6125-26.5561 84.0329-26.6701 84.8725-27.4992C85.6709-28.3599 85.7333-29.8216 84.8725-30.6305L81.4197-34.0527C80.5695-34.9029 79.0868-34.8406 78.2366-34.0527C77.4276-33.2026 77.3347-31.7304 78.2366-30.8697ZM79.5957-44.1386C79.5957-50.5052 74.5481-55.5529 68.192-55.5529C64.3261-55.5529 60.835-53.5878 58.8413-50.6047C59.8286-49.6068 60.7325-48.5984 61.4812-47.403C68.5216-46.5001 73.8904-41.3921 74.5968-34.6326C77.7764-36.8344 79.5957-40.2938 79.5957-44.1386ZM37.41-11.1136L40.1861-15.9065C40.7151-16.7883 40.4142-17.8465 39.5324-18.3239C38.7128-18.8424 37.6029-18.5002 37.1256-17.7219L34.3601-12.929C33.8827-12.0989 34.132-10.9372 35.0032-10.5117C35.8745-10.0449 36.9327-10.3353 37.41-11.1136ZM43.6606-5.97798L46.2583-10.5081C46.7356-11.2864 46.4969-12.4069 45.5528-12.9255C44.6815-13.3817 43.6857-13.1018 43.1566-12.22L40.4966-7.73106C39.978-6.85979 40.3202-5.80161 41.2538-5.32428C42.0733-4.80574 43.1832-5.14792 43.6606-5.97798ZM53.1826-11.1548L55.9481-15.896C56.4772-16.7778 56.1245-17.836 55.2532-18.3133C54.4337-18.8213 53.3238-18.5414 52.8465-17.7631L50.1222-12.9702C49.6448-12.1401 49.8423-10.9784 50.7759-10.5011C51.6471-10.0861 52.7053-10.3247 53.1826-11.1548ZM59.3814-5.96743L61.9791-10.4976C62.4565-11.2759 62.1661-12.4481 61.3254-12.9149C60.4542-13.3711 59.4066-13.0913 58.8775-12.2094L56.2692-7.72051C55.7401-6.84924 56.0929-5.79106 57.0264-5.31373C57.7942-4.79519 58.9041-5.13736 59.3814-5.96743Z" />
</svg>