<svg xmlns="http://www.w3.org/2000/svg" viewBox="8.72266 -84.9718 99.6 99.55">
  <path d="M58.4961 14.5751C85.978 14.5751 108.321-7.76818 108.321-35.1983C108.321-62.6285 85.978-84.9718 58.4961-84.9718C31.0659-84.9718 8.72266-62.6285 8.72266-35.1983C8.72266-7.76818 31.0659 14.5751 58.4961 14.5751ZM36.8206-23.0489C30.8595-23.0489 26.8624-26.954 26.8624-32.2278C26.8624-36.4972 29.5435-39.8405 33.2933-41.1384C34.1656-48.7099 40.6041-54.651 48.2992-54.651C54.0132-54.651 58.8106-51.4925 61.5837-46.486C68.5312-46.3403 73.7446-41.3665 73.7446-34.8868C73.7446-28.2413 68.5724-23.0489 61.8223-23.0489ZM38.8008-12.3878C38.3235-11.5578 37.2135-11.2156 36.3423-11.7859C35.4192-12.2115 35.17-13.3731 35.6368-14.2032L38.5164-19.1514C38.9937-20.0226 40.1554-20.3131 40.9232-19.8463C41.8979-19.276 42.1989-18.2178 41.6698-17.2842ZM45.2584-7.04517C44.781-6.21511 43.5676-5.87293 42.7998-6.39147C41.8145-6.81705 41.4618-7.97874 41.9909-8.90176L44.7026-13.546C45.2212-14.376 46.3311-14.6559 47.1506-14.1997C48.1465-13.7329 48.3852-12.5606 47.9078-11.6788ZM55.0392-12.429C54.5619-11.599 53.5037-11.2568 52.5807-11.7753C51.6471-12.2527 51.3979-13.4143 51.8752-14.2444L54.703-19.182C55.1804-20.0121 56.3315-20.3025 57.2028-19.8357C58.0846-19.2654 58.4373-18.2073 57.9082-17.2737ZM61.445-7.03462C60.9677-6.20456 59.806-5.86238 59.0383-6.38092C58.0529-6.8065 57.7002-7.96819 58.2293-8.8912L60.9305-13.4837C61.4596-14.3655 62.5695-14.6453 63.4408-14.1891C64.3332-13.7223 64.6236-12.5501 64.1463-11.6683ZM90.287-47.709C90.287-43.508 85.3067-37.1001 77.199-36.3083C76.5453-43.3899 71.0414-48.8823 63.586-49.8369C63.0885-50.5107 62.6323-51.1433 62.0831-51.7242C62.9112-58.7003 68.8432-64.3127 73.616-64.5333C74.54-64.5544 75.0797-64.0876 75.0797-63.3199C75.0797-62.0547 73.3678-59.7906 73.3678-56.6648C73.3678-51.2825 77.0669-47.8221 82.9888-47.8221C86.2161-47.8221 88.026-49.233 89.1877-49.233C89.8826-49.233 90.287-48.6215 90.287-47.709Z"/>
</svg>