<svg xmlns="http://www.w3.org/2000/svg" viewBox="12.4609 -80.1648 89.86 89.91">
  <path d="M27.7789 9.74698L87.003 9.74698C97.235 9.74698 102.321 4.64 102.321-5.4157L102.321-65.0021C102.321-75.0578 97.235-80.1648 87.003-80.1648L27.7789-80.1648C17.5986-80.1648 12.4609-75.0789 12.4609-65.0021L12.4609-5.4157C12.4609 4.6611 17.5986 9.74698 27.7789 9.74698ZM27.9035 1.84176C23.0272 1.84176 20.3144-0.767488 20.3144-5.79908L20.3144-64.6187C20.3144-69.702 23.0272-72.2595 27.9035-72.2595L86.8784-72.2595C91.7125-72.2595 94.4675-69.702 94.4675-64.6187L94.4675-5.79908C94.4675-0.767488 91.7125 1.84176 86.8784 1.84176ZM53.8493-19.0443C58.0449-19.0443 61.9701-20.7276 63.9533-24.604L64.099-24.604L64.099-21.1798C64.099-19.6664 65.2702-18.5469 66.7836-18.5469C68.297-18.5469 69.3753-19.6664 69.3753-21.1798L69.3753-52.3608L73.0322-52.3608C73.8929-52.3608 74.629-53.1074 74.629-53.9576C74.629-54.8701 73.8929-55.565 73.0322-55.565L69.3753-55.565L69.3753-57.5321C69.3753-59.2113 68.3593-60.3308 66.6801-60.3308C65.0009-60.3308 63.9332-59.2113 63.9332-57.5321L63.9332-55.565L54.6277-55.565C53.7152-55.565 53.0203-54.8701 53.0203-53.9576C53.0203-53.0557 53.7152-52.3608 54.6277-52.3608L63.9332-52.3608L63.9332-42.4167L63.7251-42.4167C61.9912-46.1982 58.0976-47.8929 53.8493-47.8929C46.6135-47.8929 40.7176-42.3066 40.7176-33.5257C40.7176-25.4462 45.8804-19.0443 53.8493-19.0443ZM55.2276-23.7715C49.6086-23.7715 46.2738-28.0102 46.2738-33.5257C46.2738-39.3104 49.9814-43.2693 55.2276-43.2693C60.7632-43.2693 63.9638-38.7306 63.9638-33.5257C63.9638-27.8961 60.3491-23.7715 55.2276-23.7715ZM43.2184-13.8318C43.2184-12.9088 44.0168-12.1727 44.9292-12.1727L69.0974-12.1727C70.0617-12.1727 70.8083-12.9194 70.8083-13.8318C70.8083-14.7855 70.0617-15.4804 69.0974-15.4804L44.9292-15.4804C44.0168-15.4804 43.2184-14.7855 43.2184-13.8318Z" />
</svg>