<svg xmlns="http://www.w3.org/2000/svg" viewBox="12.4609 -88.3583 74.99 104.1">
  <path d="M12.4609-6.39448C12.4609 7.11963 20.8183 15.7463 34.0113 15.7463C43.7711 15.7463 51.1125 11.4031 55.7421 3.08392L60.107-4.77756C70.44-23.5749 87.4492-26.0446 87.4492-50.1841C87.4492-73.0871 72.6553-88.3583 50.4588-88.3583C27.7542-88.3583 12.4609-72.9605 12.4609-50.0681ZM25.5555-27.4113L25.5555-51.7694C25.5555-65.4945 35.1589-74.7146 50.406-74.7146C65.1672-74.7146 74.3451-65.5367 74.3451-51.7694C74.3451-49.7902 72.6458-48.1014 70.6772-48.1014C68.6568-48.1014 66.9574-49.7902 66.9574-51.7694C66.9574-61.2266 60.8571-67.3269 50.406-67.3269C39.4691-67.3269 32.9432-61.195 32.9432-51.7694L32.9432-45.56L47.6877-45.56C55.5753-45.56 60.826-40.7867 60.826-33.6055C60.826-30.5958 59.4975-26.849 57.5048-24.3166L51.1497-16.2793C50.3206-15.2221 49.2328-14.6729 48.1239-14.6729C46.1035-14.6729 44.3936-16.2888 44.3936-18.3303C44.3936-19.2217 44.7252-20.1437 45.3885-20.921L51.2662-28.3046C52.3887-29.7386 53.2409-31.7555 53.2409-33.294C53.2409-36.2474 51.0878-38.2241 47.8123-38.2241L32.9432-38.2241L32.9432-27.4113C32.9432-25.4426 31.2438-23.7433 29.2234-23.7433C27.2548-23.7433 25.5555-25.4426 25.5555-27.4113Z"/>
</svg>