<svg xmlns="http://www.w3.org/2000/svg" viewBox="12.4609 -79.683 140.66 88.84">
  <path d="M65.5059 9.16167L113.1 9.16167C119.53 9.16167 123.367 5.5118 123.367-0.897571L123.367-9.78196C123.367-9.98998 123.492-10.1146 123.7-10.1146L129.528-10.1146C129.736-10.1146 129.86-9.98998 129.86-9.78196L129.86-4.34743C129.86 1.19922 133.489 4.56922 139.44 4.56922L143.484 4.56922C149.435 4.56922 153.116 1.25097 153.116-4.34743L153.116-39.535C153.116-45.0922 149.435-48.4517 143.484-48.4517L139.44-48.4517C133.489-48.4517 129.86-45.0405 129.86-39.535L129.86-35.0321C129.86-34.7723 129.736-34.6477 129.528-34.6477L123.7-34.6477C123.492-34.6477 123.367-34.7723 123.367-35.0321L123.367-43.31C123.367-49.3742 119.583-53.0441 113.373-53.0441L109.533-53.0441L101.308-61.9758C99.4088-64.051 97.4793-64.8599 95.061-64.8599L57.138-64.8599C54.7197-64.8599 52.6867-63.9992 50.8397-61.9758L42.6662-53.0441L37.2674-53.0441C31.1092-53.0441 27.3252-49.3742 27.3252-43.31L27.3252-12.4918C27.3252-6.4276 31.0575-2.75763 37.2674-2.75763L51.0447-2.75763L59.2699 6.27755C61.1687 8.2492 62.9429 9.16167 65.5059 9.16167ZM66.541 1.3082C65.5843 1.3082 65.2814 1.16249 64.6784 0.486687L54.474-10.6005L37.3191-10.6005C35.958-10.6005 35.1681-11.3799 35.1681-12.8646L35.1681-42.8854C35.1681-44.3701 35.958-45.1495 37.3191-45.1495L46.1473-45.1495L56.2587-56.1849C56.8617-56.8713 57.2576-57.017 58.059-57.017L94.0882-57.017C94.9932-57.017 95.3373-56.8713 95.9403-56.1849L106.052-45.1495L113.321-45.1495C114.682-45.1495 115.524-44.3184 115.524-42.8854L115.524-28.8945C115.524-27.6052 116.283-26.7942 117.562-26.7942L135.758-26.7942C136.996-26.7942 137.755-27.6052 137.755-28.8945L137.755-39.1622C137.755-40.0777 138.389-40.5465 139.544-40.5465L143.484-40.5465C144.649-40.5465 145.231-40.0259 145.231-39.1622L145.231-4.66851C145.231-3.85654 144.649-3.28425 143.484-3.28425L139.544-3.28425C138.389-3.28425 137.755-3.80479 137.755-4.66851L137.755-15.9195C137.755-17.2606 136.996-18.0198 135.758-18.0198L117.562-18.0198C116.283-18.0198 115.524-17.2606 115.524-15.9195L115.524-1.16689C115.524 0.424383 114.681 1.3082 113.048 1.3082ZM16.3877-8.57561C18.5633-8.57561 20.3144-10.4196 20.3144-12.4918L20.3144-23.9171L30.7047-23.9171L30.7047-31.8223L20.3144-31.8223L20.3144-43.2582C20.3144-45.3821 18.5116-47.1744 16.3877-47.1744C14.2532-47.1744 12.4609-45.3304 12.4609-43.2582L12.4609-12.4918C12.4609-10.3679 14.305-8.57561 16.3877-8.57561ZM75.9144-59.9298L83.8196-59.9298L83.8196-71.8189L99.1631-71.8189C101.287-71.8189 103.09-73.6323 103.09-75.7562C103.09-77.8907 101.287-79.683 99.1631-79.683L60.5296-79.6724C58.3434-79.6724 56.6029-77.8801 56.6029-75.7457C56.6029-73.57 58.3952-71.8189 60.5296-71.8189L75.9144-71.8189Z"/>
</svg>