<svg xmlns="http://www.w3.org/2000/svg" viewBox="12.4609 -92.1072 117.77 113.33">
  <path d="M13.2076 12.0362L49.4046-20.5884L22.7578-47.2352C21.3967-48.5963 21.5107-50.571 23.2161-51.7146L66.6319-81.5841C70.1029-84.0361 72.5895-84.0361 76.0605-81.5841L119.476-51.7146C121.182-50.571 121.244-48.5446 119.883-47.2352L93.2877-20.5884L129.485 12.0362C129.952 10.3243 130.231 8.33254 130.231 6.11267L130.231-43.3683C130.231-50.3589 128.956-53.7711 124.102-57.1788L81.28-86.963C73.915-92.1072 68.7774-92.1072 61.3606-86.963L18.5899-57.1788C13.7367-53.7711 12.4609-50.3589 12.4609-43.3683L12.4609 6.11267C12.4609 8.33254 12.7408 10.3243 13.2076 12.0362ZM27.7789 21.2236L114.935 21.2236C120.167 21.2236 123.512 19.9036 125.878 17.834L77.9266-25.3718C75.7861-27.3665 73.616-28.2493 71.3203-28.2493C69.0763-28.2493 66.8957-27.356 64.7658-25.3718L16.7731 17.8024C19.1914 19.8931 22.484 21.2236 27.7789 21.2236Z"/>
</svg>