<svg xmlns="http://www.w3.org/2000/svg" viewBox="8.72266 -85.0341 99.6 99.55">
  <path d="M58.4961 14.5128C85.9991 14.5128 108.321-7.75763 108.321-35.2606C108.321-62.7637 85.9991-85.0341 58.4961-85.0341C31.0448-85.0341 8.72266-62.7637 8.72266-35.2606C8.72266-7.75763 31.0448 14.5128 58.4961 14.5128ZM58.4961 6.24529C35.5514 6.24529 17.0314-12.316 17.0314-35.2606C17.0314-58.2053 35.5514-76.7666 58.4961-76.7666C81.4408-76.7666 100.002-58.2053 100.002-35.2606C100.002-12.316 81.4408 6.24529 58.4961 6.24529ZM47.7068-12.9259C50.2659-12.9259 51.6441-14.5735 51.6441-17.2772L51.6441-32.4207L69.2642-32.4207C71.161-32.4207 72.5182-33.4578 72.5182-35.4159C72.5182-37.3845 71.161-38.5146 69.2642-38.5146L51.6441-38.5146L51.6441-51.5724L71.164-51.5724C73.0608-51.5724 74.418-52.8165 74.418-54.7746C74.418-56.7538 73.0608-57.9767 71.164-57.9767L47.6857-57.9767C45.189-57.9767 43.8731-56.1845 43.8731-53.5631L43.8731-17.2772C43.8731-14.677 45.2101-12.9259 47.7068-12.9259Z" />
</svg>