<svg xmlns="http://www.w3.org/2000/svg" viewBox="8.72266 -85.0341 99.6 99.55">
  <path d="M17.0831-35.2606C17.0831-39.6978 17.7695-43.9999 19.0588-47.9693L11.3405-51.181C9.67833-46.1238 8.72266-40.7857 8.72266-35.2606C8.72266-29.7356 9.67833-24.3975 11.3922-19.3403L19.0588-22.5415C17.78-26.5109 17.0831-30.8235 17.0831-35.2606ZM39.5037-72.2404L36.406-79.7306C26.7162-74.892 18.8025-66.9783 13.9638-57.3401L21.5163-54.139C25.4847-61.9225 31.7719-68.2097 39.5037-72.2404ZM58.4443-76.7666C62.8815-76.7666 67.1836-76.0285 71.2153-74.7497L74.3647-82.3645C69.3592-84.0784 64.0211-85.0341 58.4443-85.0341C52.9193-85.0341 47.5295-84.0784 42.524-82.3645L45.7357-74.7497C49.7051-76.039 54.0071-76.7666 58.4443-76.7666ZM95.4241-54.1907L103.028-57.3401C98.138-66.9888 90.2137-74.9025 80.5238-79.7929L77.3744-72.2404C85.1168-68.2615 91.4969-61.9848 95.4241-54.1907ZM100.002-35.2606C100.002-30.8235 99.3157-26.5109 98.0369-22.4897L105.6-19.3403C107.366-24.3458 108.321-29.7356 108.321-35.2606C108.321-40.7857 107.366-46.165 105.6-51.1704L97.9957-48.021C99.3262-43.9999 100.002-39.6978 100.002-35.2606ZM77.3744 1.71916L80.5238 9.27165C90.2137 4.38123 98.1897-3.53247 103.018-13.1706L95.4759-16.32C91.5487-8.53648 85.1685-2.2598 77.3744 1.71916ZM58.4961 6.24529C54.0071 6.24529 49.7051 5.51774 45.7357 4.22844L42.5757 11.8432C47.5812 13.5571 52.9711 14.5128 58.4961 14.5128C64.0729 14.5128 69.4004 13.5677 74.4059 11.895L71.1942 4.29074C67.173 5.51774 62.9227 6.24529 58.4961 6.24529ZM21.568-16.32L13.9743-13.1706C18.8648-3.53247 26.7267 4.38123 36.4166 9.21989L39.5143 1.6674C31.7719-2.31155 25.4952-8.58823 21.568-16.32ZM58.4443-10.7578C68.6382-10.7578 75.5214-17.5586 75.5214-20.7658C75.5214-21.9475 74.4019-22.4756 73.3141-21.9571C69.7963-20.0849 65.5566-17.8314 58.4443-17.8314C51.3838-17.8314 47.1546-20.0955 43.6264-21.9571C42.5385-22.4756 41.4191-21.9475 41.4191-20.7658C41.4191-17.5586 48.3022-10.7578 58.4443-10.7578ZM43.9886-39.53C47.0913-39.53 49.8413-42.3433 49.8413-46.2348C49.8413-50.1676 47.1019-52.9808 43.9886-52.9808C40.9272-52.9808 38.2395-50.1676 38.2395-46.2348C38.2395-42.3433 40.9377-39.53 43.9886-39.53ZM72.9518-39.53C76.0545-39.53 78.7527-42.3433 78.7527-46.2348C78.7527-50.1676 76.065-52.9808 72.9518-52.9808C69.8385-52.9808 67.2027-50.1676 67.2027-46.2348C67.2027-42.3433 69.8491-39.53 72.9518-39.53Z"/>
</svg>