<svg xmlns="http://www.w3.org/2000/svg" viewBox="8.72266 -85.0341 99.6 99.55">
  <path d="M58.4961 14.5128C85.978 14.5128 108.321-7.83049 108.321-35.2606C108.321-62.6908 85.978-85.0341 58.4961-85.0341C31.0659-85.0341 8.72266-62.6908 8.72266-35.2606C8.72266-7.83049 31.0659 14.5128 58.4961 14.5128ZM58.9483-57.7833C55.5532-57.7833 52.8952-60.5036 52.8952-63.8881C52.8952-67.1797 55.5532-69.8895 58.9483-69.8895C62.2811-69.8895 64.9497-67.1797 64.9497-63.8881C64.9497-60.5036 62.2811-57.7833 58.9483-57.7833ZM34.8565-9.16453L43.1661-18.6273L43.1661-33.1739C43.1661-34.9597 43.4154-36.8183 43.9761-38.5628L45.1493-41.8956L39.9474-41.8956C37.414-41.8956 36.4171-44.938 38.2757-46.786L43.7269-52.2995C45.5855-54.1581 47.5581-54.8329 49.8528-54.8329L83.3381-54.8329C85.6328-54.8329 87.6572-52.8602 87.6572-50.5549C87.6572-48.1462 85.6328-46.2253 83.3381-46.2253C81.4172-46.2253 79.8078-47.4091 79.2471-49.1325L61.0561-49.1325C60.4331-49.1325 59.9557-48.8833 59.7583-48.2085L55.6155-35.8942L64.088-23.5177C64.4618-23.0193 64.711-22.5208 64.711-21.7732L64.711-6.58139C64.711-5.02377 63.3508-3.67417 61.8555-3.67417C60.2462-3.67417 58.9483-5.02377 58.9483-6.58139L58.9483-20.7869L50.9733-30.008C50.6934-30.2984 50.2784-30.122 50.2267-29.7798L48.9288-17.5681C48.8665-16.8205 48.5655-16.1457 48.0565-15.5226L39.1862-5.3956C38.0752-4.16005 36.279-4.09775 35.1057-5.03232C33.8702-6.14325 33.7456-7.93954 34.8565-9.16453Z"/>
</svg>