<svg xmlns="http://www.w3.org/2000/svg" viewBox="8.72266 -85.0341 99.6 99.55">
  <path d="M58.4961 14.5128C85.978 14.5128 108.321-7.83049 108.321-35.2606C108.321-62.6908 85.978-85.0341 58.4961-85.0341C31.0659-85.0341 8.72266-62.6908 8.72266-35.2606C8.72266-7.83049 31.0659 14.5128 58.4961 14.5128ZM57.8077-50.0565C54.4232-50.0565 51.7134-52.7251 51.7134-56.0579C51.7134-59.4012 54.4232-62.111 57.8077-62.111C61.0993-62.111 63.8091-59.4012 63.8091-56.0579C63.8091-52.7251 61.0993-50.0565 57.8077-50.0565ZM31.8307-45.5294L39.2469-58.5752C37.9903-59.7167 37.1803-61.2744 37.1803-63.0812C37.1803-66.4964 39.9408-69.2157 43.3561-69.2157C46.6572-69.2157 49.4177-66.4964 49.4177-63.0812C49.4177-59.78 46.6572-57.0195 43.3561-57.0195C42.9094-57.0195 42.4627-57.0818 42.0678-57.1547L36.0423-46.5895C36.396-46.3202 36.7498-46.0605 37.0412-45.7278L43.7193-39.0497L83.2753-58.8329C84.76-59.57 86.4834-58.9575 87.1794-57.5351C87.9165-56.1126 87.4075-54.3163 85.871-53.5792L67.9739-44.6772C67.278-44.3034 67.0288-43.7014 67.278-42.7046L75.0134-11.7632C75.3872-10.2679 74.7747-8.90776 73.4769-8.0978L60.7783 0.385183C59.3664 1.3092 57.5701 0.987128 56.7084-0.373024C55.8361-1.73318 56.2099-3.58121 57.5078-4.44293L68.7628-11.8773L65.6169-20.1628C65.43-20.6507 64.9833-20.6612 64.7341-20.2251L58.8056-9.39565C58.1931-8.34702 57.1962-7.84859 56.0853-7.84859L43.0963-7.84859C41.4869-7.84859 40.2408-9.10523 40.2408-10.704C40.2408-12.4275 41.4869-13.6736 43.0963-13.6736L54.2373-13.6736L59.0443-25.4999L56.023-37.4403C55.8984-38.001 55.2753-38.3643 54.5488-37.9493L44.6539-32.9966C43.2209-32.3007 41.7984-32.6851 41.0508-33.4845L32.3291-42.2061C31.3639-43.1713 31.1971-44.3868 31.8307-45.5294ZM40.3433-63.0812C40.3433-61.4085 41.6211-60.172 43.3561-60.172C45.0287-60.172 46.2653-61.4085 46.2653-63.0812C46.2653-64.8162 45.0287-66.0527 43.3561-66.0527C41.6211-66.0527 40.3433-64.8162 40.3433-63.0812Z"/>
</svg>