<svg xmlns="http://www.w3.org/2000/svg" viewBox="8.72266 -85.0341 99.6 99.55">
  <path d="M58.4961 14.5128C85.978 14.5128 108.321-7.83049 108.321-35.2606C108.321-62.6908 85.978-85.0341 58.4961-85.0341C31.0659-85.0341 8.72266-62.6908 8.72266-35.2606C8.72266-7.83049 31.0659 14.5128 58.4961 14.5128ZM58.4961-30.0059L51.8094-19.4363L46.8049-5.63727C46.1924-4.14196 44.7077-3.65407 43.5133-4.0902C42.1637-4.57809 41.4372-6.12516 41.9768-7.37125L47.0436-21.2948L52.0692-35.1561L52.0692-47.6573C52.0692-48.218 51.7471-48.7788 51.1969-49.028L34.1792-58.1235C32.9436-58.85 32.4452-60.2936 33.1305-61.5914C33.8053-62.8787 35.3524-63.3148 36.5362-62.6918L53.0555-53.9184C54.9035-52.9838 56.6998-52.5477 58.4961-52.5477C60.2924-52.5477 62.0369-52.9838 63.8849-53.9184L80.4042-62.6918C81.588-63.3148 83.1351-62.8787 83.8099-61.5914C84.4952-60.2936 84.0486-58.85 82.7613-58.1235L65.7435-49.028C65.1933-48.7788 64.8818-48.218 64.8818-47.6573L64.8818-35.1561L69.8968-21.2948L74.9636-7.37125C75.5033-6.12516 74.7767-4.57809 73.4271-4.0902C72.2328-3.65407 70.748-4.14196 70.1355-5.63727L65.131-19.4363ZM58.4961-55.4358C55.2045-55.4358 52.5254-58.1149 52.5254-61.4583C52.5254-64.6981 55.2045-67.3149 58.4961-67.3149C61.7254-67.3149 64.4045-64.6981 64.4045-61.4583C64.4045-58.1149 61.7254-55.4358 58.4961-55.4358Z"/>
</svg>