<svg xmlns="http://www.w3.org/2000/svg" viewBox="12.4609 -91.3937 99.45 112.2">
  <path d="M90.5911-70.1232C96.4668-70.1232 101.18-74.8362 101.18-80.8155C101.18-86.6289 96.4668-91.3937 90.5911-91.3937C84.6741-91.3937 79.9093-86.6289 79.9093-80.8155C79.9093-74.8362 84.6741-70.1232 90.5911-70.1232ZM52.9068-28.9583L77.7287-10.0227L70.0049 13.8129C68.9045 17.2492 71.043 19.6992 73.6176 20.3117C75.9429 20.8101 78.5904 19.8755 79.6285 16.6367L88.2657-10.085C88.8782-12.0366 88.5149-14.1338 87.2171-15.4211L70.4928-32.1349L89.6671-51.3197C90.5182-52.1814 91.7538-52.1709 92.6155-51.3197L99.2906-44.7692L90.1655-35.6958C88.1411-33.6714 88.2034-30.4843 90.1655-28.5222C92.003-26.6847 95.3147-26.4978 97.3285-28.5222L109.952-41.1565C111.914-43.1809 111.863-46.2846 109.952-48.309L97.7541-60.6317C94.8163-63.5179 91.2659-64.9815 87.0925-64.9815L28.5104-64.9815C25.7595-64.9815 23.4341-62.7184 23.4341-59.9569C23.4341-57.1954 25.7595-54.8701 28.5104-54.8701L62.1565-54.8701C63.8694-54.8701 64.6688-53.0949 63.4438-51.8699L53.6544-42.1323C49.2941-37.7202 49.9066-31.2214 52.9068-28.9583ZM51.4537-24.1438L48.9826-9.3479L25.5831-9.3479C22.697-9.3479 20.4339-7.07428 20.4339-4.26102C20.4339-1.49952 22.697 0.774104 25.5831 0.774104L53.0314 0.774104C55.6683 0.774104 57.4329-0.575497 58.1077-2.84912L62.0741-16.0356ZM23.4341-37.9694C29.4862-37.9694 34.3967-42.9317 34.3967-48.9838C34.3967-54.9947 29.4862-59.9569 23.4341-59.9569C17.4232-59.9569 12.4609-54.9947 12.4609-48.9838C12.4609-42.9317 17.4232-37.9694 23.4341-37.9694Z"/>
</svg>