<svg xmlns="http://www.w3.org/2000/svg" viewBox="8.72266 -85.0341 99.6 99.55">
  <path d="M58.4961 14.5128C85.978 14.5128 108.321-7.83049 108.321-35.2606C108.321-62.6908 85.978-85.0341 58.4961-85.0341C31.0659-85.0341 8.72266-62.6908 8.72266-35.2606C8.72266-7.83049 31.0659 14.5128 58.4961 14.5128ZM66.1164-56.5573C62.7836-56.5573 60.0633-59.2153 60.0633-62.6104C60.0633-65.9432 62.7836-68.6635 66.1164-68.6635C69.5115-68.6635 72.2212-65.9432 72.2212-62.6104C72.2212-59.2153 69.5115-56.5573 66.1164-56.5573ZM35.9744-27.7323C34.3651-27.7323 33.0672-29.0302 33.0672-30.6395C33.0672-32.2489 34.3651-33.5468 35.9744-33.5468L65.1923-33.5468L65.1923-46.4217C65.1923-47.1694 64.621-47.8442 63.7593-47.8442L42.6611-47.8442C41.0518-47.8442 39.7539-49.142 39.7539-50.7514C39.7539-52.2985 41.1141-53.6069 42.6611-53.6069L70.0828-53.6069C73.0523-53.6069 75.762-52.4959 77.8181-50.3881L84.8163-43.3899C85.4288-42.8292 85.678-42.1544 85.678-41.4067L85.678-30.6395C85.678-29.0302 84.3802-27.7323 82.7708-27.7323C81.2237-27.7323 79.8741-29.0302 79.8741-30.6395L79.8741-40.1712L77.195-42.9538C76.8318-43.2653 76.3228-43.0784 76.3228-42.5799L76.3228-32.5604C76.3228-27.2962 72.3669-24.8251 66.7912-25.6245L51.9435-27.7323ZM75.5234-3.15563C74.4019-1.98239 72.6056-1.98239 71.4947-3.15563L60.6758-13.9228C59.8658-14.7328 59.6166-15.8437 59.9904-16.8511L62.5449-23.7986L66.4384-23.1861C67.5705-23.0615 68.6402-23.0097 69.6476-23.072L66.3033-16.4773L75.5234-7.18434C76.572-6.06285 76.6343-4.26657 75.5234-3.15563ZM27.6161-40.0466C23.9717-43.7014 24.335-47.7196 25.8821-49.2043C27.3669-50.8137 31.1463-50.876 34.8012-47.1799C38.4455-43.5768 38.2692-39.9114 36.8362-38.3643C35.2891-36.8278 31.2086-36.454 27.6161-40.0466Z"/>
</svg>