<svg xmlns="http://www.w3.org/2000/svg" viewBox="8.72266 -85.0341 99.6 99.55">
  <path d="M58.4961 14.5128C85.978 14.5128 108.321-7.83049 108.321-35.2606C108.321-62.6908 85.978-85.0341 58.4961-85.0341C31.0659-85.0341 8.72266-62.6908 8.72266-35.2606C8.72266-7.83049 31.0659 14.5128 58.4961 14.5128ZM70.2973-56.8447C66.9434-56.8447 64.1397-59.6484 64.1397-63.0023C64.1397-66.2939 66.9434-69.0459 70.2973-69.0459C73.6407-69.0459 76.3409-66.2939 76.3409-63.0023C76.3409-59.6484 73.6407-56.8447 70.2973-56.8447ZM83.5682-19.0509C82.5522-19.0509 81.8161-19.8493 81.8161-20.8135L81.8161-44.5486L68.8221-44.5486C68.0332-44.5486 67.3268-44.9119 66.8178-45.4209L62.2389-49.9997C61.8133-50.4771 61.2114-50.4148 60.7858-49.9997L54.2448-43.4482L61.544-36.1701C62.053-35.6199 62.4057-34.8723 62.4057-34.1141L62.4057-20.7512C62.4057-19.9603 62.0203-19.2634 61.5822-18.7755L73.398-6.94921C74.9767-5.30818 75.4445-5.12127 77.2724-5.12127C78.1955-5.12127 78.9833-4.27111 78.9833-3.36919C78.9833-2.45673 78.1849-1.65832 77.2724-1.65832C75.0928-1.65832 73.1106-2.32257 71.365-4.0681L54.3694-21.1155L54.3694-20.0764C54.3694-19.3373 54.0358-18.5886 53.5354-18.1525L66.2234-5.46445C67.8644-3.82342 68.2182-3.62596 70.0979-3.62596C70.9586-3.62596 71.8087-2.78635 71.8087-1.82213C71.8087-0.920211 71.0209-0.111251 70.0979-0.111251C67.8664-0.111251 66.0395-0.786052 64.1905-2.58334L34.1435-32.682C33.5215-33.2935 33.5109-34.3824 34.1435-35.1185C34.8279-35.6993 35.9473-35.7923 36.6317-35.1079L48.6163-23.0198L48.6163-26.8169L41.3804-34.1668C40.7478-34.8406 40.696-35.9189 41.3804-36.6032C42.0024-37.2358 43.1325-37.2253 43.7651-36.5927L48.6163-31.7415L48.6163-35.5883L43.6741-40.4681C41.3688-42.7216 41.2759-46.6986 43.5812-49.0039L43.9685-49.4018L26.1896-49.4018C25.2148-49.4018 24.4787-50.2108 24.4787-51.1021C24.4787-52.1181 25.2254-52.9165 26.1896-52.9165L47.1833-52.9165L42.7501-57.4236C40.9433-59.2304 41.805-62.3667 44.6815-62.3667L55.1477-62.3667C56.9546-62.3667 58.7614-61.6191 60.0487-60.3212L69.9541-50.3535L82.1955-50.3535C83.7531-50.3535 85.2791-49.138 85.2791-47.5804L85.2791-20.8135C85.2791-19.8493 84.4807-19.0509 83.5682-19.0509ZM54.3694-25.9883L56.6008-23.7569L56.6008-32.9303L54.3694-35.1511Z"/>
</svg>