<svg xmlns="http://www.w3.org/2000/svg" viewBox="8.72266 -85.0341 99.6 99.55">
  <path d="M58.4961 14.5128C85.978 14.5128 108.321-7.83049 108.321-35.2606C108.321-62.6908 85.978-85.0341 58.4961-85.0341C31.0659-85.0341 8.72266-62.6908 8.72266-35.2606C8.72266-7.83049 31.0659 14.5128 58.4961 14.5128ZM76.0957-41.7911C72.7523-41.7911 69.9803-44.5114 69.9803-47.803C69.9803-51.1981 72.7523-53.9184 76.0957-53.9184C79.439-53.9184 82.2111-51.1981 82.2111-47.803C82.2111-44.5114 79.439-41.7911 76.0957-41.7911ZM28.31-23.671L53.9383-70.4377C55.3608-72.9711 58.6418-72.0365 58.6418-69.7629L58.6418-38.7889L77.9543-38.7889C80.0621-38.7889 82.097-37.9789 83.6441-36.4319L91.4005-28.6237C92.5114-27.5128 92.522-25.9657 91.4005-24.7925L84.755-18.0434C82.2734-15.5618 78.4527-19.3413 80.9861-21.8747L85.8142-26.7028L81.1107-31.3545C80.6123-31.853 79.6365-31.9153 79.1275-31.3545L67.7373-19.7257L30.4072-19.7257C28.3723-19.7257 27.2402-21.6878 28.31-23.671ZM55.1788-23.1886L55.1788-64.9076C55.1788-65.1272 55.0216-65.2106 54.8854-64.9699L32.2071-23.4715C32.1131-23.3248 32.1236-23.1886 32.3538-23.1886ZM58.6418-26.5782L64.6537-32.5383C65.017-32.9534 64.7783-33.4001 64.2799-33.4001L58.6418-33.4001ZM27.9859-10.1403C27.9859-11.0528 28.7843-11.8924 29.6862-11.8924L29.8108-11.8924C35.1298-11.8924 36.8859-16.3899 44.164-16.3899C51.3904-16.3899 53.1982-11.8924 58.3926-11.8924C63.5975-11.8924 65.4677-16.3899 72.6835-16.3899C79.9098-16.3899 81.7176-11.8924 86.9331-11.8924L87.0577-11.8924C88.022-11.8924 88.8098-11.0528 88.8098-10.1403C88.8098-9.22784 88.022-8.37767 87.0577-8.37767L86.9331-8.37767C79.3541-8.37767 77.7532-12.9681 72.6835-12.9681C67.6865-12.9681 66.034-8.37767 58.3926-8.37767C50.8135-8.37767 49.1092-12.9681 44.164-12.9681C39.0942-12.9681 37.4416-8.37767 29.8108-8.37767L29.6862-8.37767C28.7843-8.37767 27.9859-9.22784 27.9859-10.1403Z"/>
</svg>