<svg xmlns="http://www.w3.org/2000/svg" viewBox="8.72266 -85.0341 99.6 99.55">
  <path d="M58.4961 14.5128C85.9991 14.5128 108.321-7.75763 108.321-35.2606C108.321-62.7637 85.9991-85.0341 58.4961-85.0341C31.0448-85.0341 8.72266-62.7637 8.72266-35.2606C8.72266-7.75763 31.0448 14.5128 58.4961 14.5128ZM58.4961 6.24529C35.5514 6.24529 17.0314-12.316 17.0314-35.2606C17.0314-58.2053 35.5514-76.7666 58.4961-76.7666C81.4408-76.7666 100.002-58.2053 100.002-35.2606C100.002-12.316 81.4408 6.24529 58.4961 6.24529ZM75.6299-41.7393C78.8697-41.7393 81.4865-44.3561 81.4865-47.596C81.4865-50.8876 78.8697-53.5044 75.6299-53.5044C72.39-53.5044 69.7215-50.8876 69.7215-47.596C69.7215-44.3561 72.39-41.7393 75.6299-41.7393ZM56.8782-20.3467L67.5303-20.3467L78.5582-31.6133C79.0672-32.1741 79.9912-32.1118 80.4896-31.6133L85.0379-27.0651L80.365-22.3922C77.9352-19.9623 81.5488-16.2864 83.9787-18.7162L90.5207-25.2582C91.5904-26.3797 91.5799-27.875 90.5207-28.9342L82.9195-36.5354C81.4242-38.0307 79.4928-38.8407 77.4367-38.8407L57.5826-38.8407L57.5826-33.6071L64.1764-33.6071C64.6748-33.6071 64.9135-33.1604 64.5502-32.7971L56.8782-25.1768ZM31.3388-20.3467L58.6936-20.3467L58.6936-68.8936C58.6936-71.0637 55.516-71.9983 54.1453-69.5167L29.2933-24.1368C28.2236-22.2053 29.3556-20.3467 31.3388-20.3467ZM33.1818-23.7062C32.9517-23.7062 32.9412-23.7906 33.0351-23.9267L55.0407-64.2041C55.1768-64.486 55.3341-64.4026 55.3341-64.1936L55.3341-23.7062ZM30.6178-9.36099L30.7424-9.36099C38.1662-9.36099 39.7153-13.7962 44.6298-13.7962C49.4715-13.7962 51.124-9.36099 58.4961-9.36099C65.8269-9.36099 67.4278-13.7962 72.3317-13.7962C77.2357-13.7962 78.7848-9.36099 86.1568-9.36099L86.2814-9.36099C87.1939-9.36099 87.9406-10.1594 87.9406-11.0613C87.9406-11.922 87.1939-12.7204 86.2814-12.7204L86.1568-12.7204C81.1071-12.7204 79.3511-17.1039 72.3317-17.1039C65.3124-17.1039 63.5458-12.7204 58.4961-12.7204C53.4052-12.7204 51.6491-17.1039 44.6298-17.1039C37.5587-17.1039 35.8438-12.7204 30.7424-12.7204L30.6178-12.7204C29.7571-12.7204 28.9587-11.922 28.9587-11.0613C28.9587-10.1594 29.7571-9.36099 30.6178-9.36099Z" />
</svg>