<svg xmlns="http://www.w3.org/2000/svg" viewBox="12.4609 -87.368 108.99 104.21">
  <path d="M18.9633 11.1709L115 11.1709L115 5.40268C115 3.46569 113.85 2.31556 111.851 2.31556L108.735 2.31556L108.735-53.8556L113.015-53.8556C115.699-53.8556 117.263-55.8031 117.263-57.7823C117.263-59.2324 116.403-60.5071 114.652-61.595L72.9378-85.6456C71.0284-86.7766 68.9533-87.368 66.9816-87.368C64.9582-87.368 62.8725-86.7766 60.9632-85.6456L19.2487-61.595C17.4564-60.5071 16.6484-59.2324 16.6484-57.7823C16.6484-55.8031 18.2021-53.8556 20.8962-53.8556L25.2279-53.8556L25.2279 2.31556L22.1127 2.31556C20.1134 2.31556 18.9633 3.46569 18.9633 5.40268ZM16.3877 16.8467L117.524 16.8467C119.648 16.8467 121.451 15.0439 121.451 12.8682C121.451 10.7338 119.648 8.94149 117.524 8.94149L16.3877 8.94149C14.2532 8.94149 12.4609 10.7338 12.4609 12.8682C12.4609 15.0439 14.2532 16.8467 16.3877 16.8467ZM54.7508-9.05047C53.1731-9.05047 51.2532-9.13388 49.7895-9.73582C48.4726-10.3061 47.7259-11.001 47.7259-12.3381C47.7259-13.5198 48.4726-14.3183 49.7684-14.3183C51.6145-14.3183 52.1973-14.0469 54.1911-14.0469C59.1965-14.0469 61.2526-16.6446 62.0837-21.5255L63.6011-30.5848L54.0855-30.5848C52.8415-30.5848 51.9395-31.4244 51.9395-32.6167C51.9395-33.7468 52.8415-34.6487 54.0855-34.6487L64.2337-34.6487L65.5632-42.5614C66.8399-50.1374 71.1455-54.1345 78.7838-54.1345C80.1525-54.1345 82.2287-53.9581 83.5899-53.3868C84.7515-52.9201 85.757-52.091 85.757-50.8469C85.757-49.4581 85.0103-48.8773 83.6627-48.7738C82.3553-48.7738 81.1198-49.138 79.2813-49.138C74.4934-49.138 72.1363-46.779 71.3158-42.1051L69.9969-34.6487L80.1661-34.6487C81.4514-34.6487 82.3533-33.7468 82.3533-32.6167C82.3533-31.4244 81.4514-30.5848 80.1661-30.5848L69.416-30.5848L67.7434-20.7999C66.5184-13.1098 62.6585-9.05047 54.7508-9.05047Z"/>
</svg>