<svg xmlns="http://www.w3.org/2000/svg" viewBox="8.72266 -84.1312 117.55 97.76">
  <path d="M8.72266-25.4291C8.72266-10.9975 13.9246 2.21967 22.5216 12.4567C23.508 13.63 25.1173 13.6194 26.2388 12.5085L37.8732 0.884622C38.6631 0.146515 38.7149-0.903115 37.9978-1.76583C32.6818-8.56559 29.6912-16.6546 29.6912-25.4291C29.6912-44.7531 44.1871-60.7126 62.8881-63.0274C64.207-63.152 65.1416-64.1595 65.1416-65.4679L65.1416-81.4415C65.1416-82.9991 63.9578-84.1312 62.4002-83.996C32.3638-81.432 8.72266-56.2026 8.72266-25.4291ZM126.272-25.4291C126.272-56.2026 102.693-81.432 72.594-83.996C71.0364-84.1312 69.8526-82.9991 69.8526-81.4415L69.8526-65.4679C69.8526-64.1595 70.7872-63.152 72.1167-63.0274C90.8071-60.7126 105.355-44.7531 105.355-25.4291C105.355-16.6546 102.364-8.56559 96.9964-1.76583C96.3311-0.903115 96.3829 0.146515 97.121 0.884622L108.766 12.5085C109.887 13.6194 111.507 13.6194 112.504 12.4356C121.132 2.19856 126.272-11.008 126.272-25.4291ZM59.1317-2.01805C60.8109-2.01805 62.0032-3.26214 62.0032-4.98257L62.0032-10.1599L72.485-10.1599C73.3975-10.1599 74.0924-10.803 74.0924-11.7672C74.0924-12.6797 73.3975-13.3641 72.485-13.3641L62.0032-13.3641L62.0032-22.2872L78.1969-22.2872C79.6998-22.2872 80.8298-23.3655 80.8298-24.806C80.8298-26.2054 79.6998-27.2319 78.1969-27.2319L62.0032-27.2319L62.0032-41.4233L79.8897-41.4233C81.4443-41.4233 82.5743-42.4392 82.5743-43.8903C82.5743-45.3932 81.4443-46.4609 79.8897-46.4609L59.1422-46.4609C57.349-46.4609 56.2295-45.3002 56.2295-43.4447L56.2295-13.3641L51.526-13.3641C50.5618-13.3641 49.9186-12.6797 49.9186-11.7672C49.9186-10.803 50.5618-10.1599 51.526-10.1599L56.2295-10.1599L56.2295-4.98257C56.2295-3.26214 57.4113-2.01805 59.1317-2.01805Z"/>
</svg>