<svg xmlns="http://www.w3.org/2000/svg" viewBox="8.72266 -85.0341 99.6 99.55">
  <path d="M32.0679-42.7854C34.3596-42.7854 36.2574-44.6832 36.2574-46.9749C36.2574-49.2772 34.3596-51.1644 32.0679-51.1644C29.7656-51.1644 27.8678-49.2772 27.8678-46.9749C27.8678-44.6832 29.7656-42.7854 32.0679-42.7854ZM42.9933-54.9006C45.285-54.9006 47.1828-56.7879 47.1828-59.0901C47.1828-61.3924 45.285-63.2797 42.9933-63.2797C40.691-63.2797 38.7933-61.3924 38.7933-59.0901C38.7933-56.7879 40.691-54.9006 42.9933-54.9006ZM58.4443-59.5046C60.7466-59.5046 62.6856-61.4024 62.6856-63.7047C62.6856-65.9964 60.7466-67.8942 58.4443-67.8942C56.1421-67.8942 54.2548-65.9964 54.2548-63.7047C54.2548-61.4024 56.1421-59.5046 58.4443-59.5046ZM73.9471-54.9006C76.2494-54.9006 78.1472-56.7879 78.1472-59.0901C78.1472-61.3924 76.2494-63.2797 73.9471-63.2797C71.6554-63.2797 69.7059-61.3924 69.7059-59.0901C69.7059-56.7879 71.6554-54.9006 73.9471-54.9006ZM84.8725-42.7854C87.1748-42.7854 89.0726-44.6832 89.0726-46.9749C89.0726-49.2772 87.1748-51.1644 84.8725-51.1644C82.5808-51.1644 80.683-49.2772 80.683-46.9749C80.683-44.6832 82.5808-42.7854 84.8725-42.7854ZM58.4338-4.75445C62.7067-4.75445 64.8949-7.5024 66.4621-11.0699L77.2297-34.2136C77.7482-35.4883 77.4272-36.6701 76.5559-37.2509C75.6846-37.78 74.5134-37.7273 73.5185-36.7947L54.4272-19.4941C51.6179-16.9858 50.6844-15.1599 50.6844-12.3486C50.6844-8.21941 54.1388-4.75445 58.4338-4.75445ZM58.4961 14.5128C85.9991 14.5128 108.321-7.75763 108.321-35.2606C108.321-62.7637 85.9991-85.0341 58.4961-85.0341C31.0448-85.0341 8.72266-62.7637 8.72266-35.2606C8.72266-7.75763 31.0448 14.5128 58.4961 14.5128ZM58.4961 6.24529C35.5514 6.24529 17.0314-12.316 17.0314-35.2606C17.0314-58.2053 35.5514-76.7666 58.4961-76.7666C81.4408-76.7666 100.002-58.2053 100.002-35.2606C100.002-12.316 81.4408 6.24529 58.4961 6.24529Z"/>
</svg>