<svg xmlns="http://www.w3.org/2000/svg" viewBox="12.5127 -84.289 112.71 98.12">
  <path d="M34.3159-11.7511C49.1579-11.7511 53.9257-24.5437 71.2108-24.5437C80.2535-24.5437 89.3002-19.798 102.343-19.798C117.589-19.798 124.087-22.9464 124.718-27.0802C125.222-28.5323 124.666-29.7507 121.813-32.6549C119.588-35.015 118.094-38.896 117.179-43.711C113.19-66.2316 93.3175-84.289 62.9971-84.289C32.517-84.289 12.5127-62.6521 12.5127-39.1406C12.5127-34.3758 13.1674-28.8538 14.0598-25.5632C15.7314-19.2589 26.5951-11.7511 34.3159-11.7511ZM34.3159-18.9318C29.6094-18.9318 22.3006-23.2087 21.1475-27.8836C20.4621-30.5838 19.6934-35.0285 19.6934-39.1406C19.6934-58.5184 36.4754-77.4706 62.9971-77.4706C85.3032-77.4706 106.083-63.7108 110.009-43.4608C111.379-36.3063 112.875-32.3916 116.052-29.0789C116.374-28.7463 116.374-28.3197 115.855-28.1223C113.454-27.2183 110.796-26.9269 102.343-26.9269C89.975-26.9269 80.1827-31.4138 71.159-31.4138C53.3756-31.4138 48.0344-18.9318 34.3159-18.9318ZM51.928-64.1298C53.7941-64.1298 55.2146-65.6643 55.2146-67.6752L55.2146-78.3504L48.5379-78.1931L48.5379-67.6857C48.5379-65.6231 50.0206-64.1298 51.928-64.1298ZM66.1536-61.8647C68.0302-61.8647 69.513-63.3475 69.513-65.4101L69.513-79.8849L62.774-79.8849L62.774-65.3171C62.774-63.3063 64.2462-61.8647 66.1536-61.8647ZM80.4319-64.0781C82.3086-64.0781 83.7808-65.6126 83.7808-67.6752L83.7808-77.7731L77.0523-78.0253L77.0523-67.634C77.0523-65.5714 78.5245-64.0781 80.4319-64.0781ZM26.9956-34.5984C28.7888-33.7693 30.6962-34.4738 31.4428-36.2259C32.2824-37.9051 31.4323-39.8124 29.5978-40.6003L16.9992-46.3399L14.4517-40.1913ZM77.1323 13.4984C79.2456 13.1667 80.2309 11.6026 79.8888 9.59172C79.0482 4.89877 78.3724 0.937913 78.2995-5.52622C78.1749-11.4738 78.3101-18.6132 78.6216-26.2938L71.461-26.7701C71.2223-18.8202 71.0143-11.4412 71.3258-5.276C71.6891 1.86694 72.0841 5.3329 73.1327 10.7419C73.4749 12.7009 75.2777 13.83 77.1323 13.4984ZM74.3009 1.81071L74.7994-6.08395L50.9437-22.1641L45.8563-17.6153Z"/>
</svg>