<svg xmlns="http://www.w3.org/2000/svg" viewBox="8.72266 -85.0341 99.6 99.55">
  <path d="M58.4961 14.5128C85.978 14.5128 108.321-7.83049 108.321-35.2606C108.321-62.6908 85.978-85.0341 58.4961-85.0341C31.0659-85.0341 8.72266-62.6908 8.72266-35.2606C8.72266-7.83049 31.0659 14.5128 58.4961 14.5128ZM56.0999-11.6944C49.1659-11.6944 43.7369-15.0809 41.9848-20.3241C41.6637-21.133 41.5497-21.8279 41.5497-22.6982C41.5497-24.9161 43.0726-26.439 45.2694-26.439C46.9898-26.439 48.0988-25.6512 49.0409-23.7649C50.2639-20.4482 52.7611-18.6057 56.5244-18.6057C60.6617-18.6057 63.2604-21.63 63.2604-26.649L63.2604-54.7133C63.2604-57.4381 64.6492-59.2716 67.2494-59.2716C69.9119-59.2716 71.3419-57.5416 71.3419-54.7133L71.3419-26.5455C71.3419-16.927 65.9973-11.6944 56.0999-11.6944Z"/>
</svg>