<svg xmlns="http://www.w3.org/2000/svg" viewBox="12.4609 -87.5725 113.22 104.67">
  <path d="M92.3451-14.4433C93.9927-13.345 96.2824-13.6766 97.5878-15.5724C101.326-20.5251 103.55-27.7715 103.55-35.2606C103.55-42.7498 101.326-49.9445 97.5878-54.9489C96.2824-56.8447 93.9927-57.1763 92.3451-56.0262C90.3458-54.6585 90.0142-52.2653 91.5371-50.2343C94.4484-46.3559 96.007-40.9459 96.007-35.2606C96.007-29.5754 94.3966-24.2172 91.5371-20.287C90.0659-18.2043 90.3458-15.8628 92.3451-14.4433ZM110.446-1.74273C112.197-0.540839 114.476-0.913666 115.792-2.82C122.033-11.3748 125.679-23.2243 125.679-35.2606C125.679-47.297 122.085-59.25 115.792-67.7013C114.476-69.6076 112.197-69.9804 110.446-68.7786C108.632-67.5661 108.311-65.287 109.741-63.256C115.061-55.7247 118.147-45.6494 118.147-35.2606C118.147-24.8719 114.958-14.8483 109.741-7.26527C108.363-5.23433 108.632-2.95516 110.446-1.74273ZM12.4609 2.29299C12.4609 9.99967 17.288 17.0934 29.0622 17.0934L59.293 17.0934C71.0153 17.0934 75.8942 9.99967 75.8942 2.29299L75.8942-72.7203C75.8942-80.4788 71.0153-87.5725 59.293-87.5725L29.0622-87.5725C17.288-87.5725 12.4609-80.4788 12.4609-72.7203ZM20.3144 2.16838L20.3144-72.5957C20.3144-75.5572 22.3026-79.719 29.4455-79.719L58.8578-79.719C66.0525-79.719 67.9995-75.5572 67.9995-72.5957L67.9995 2.16838C67.9995 5.12982 66.0525 9.23993 58.8578 9.23993L29.4455 9.23993C22.3026 9.23993 20.3144 5.12982 20.3144 2.16838ZM26.8076-68.0344L61.4957-68.0344C62.1811-68.0344 62.7418-68.5951 62.7418-69.2805L62.7418-70.9099C62.7418-72.8414 61.1219-74.4613 59.1905-74.4613L29.1129-74.4613C27.1815-74.4613 25.5616-72.8414 25.5616-70.9099L25.5616-69.2805C25.5616-68.5951 26.1223-68.0344 26.8076-68.0344ZM44.2293-54.6655C36.2639-54.6655 29.9806-48.3823 29.9806-40.5309C29.9806-34.6416 33.4813-29.4588 38.9344-27.2886L38.9344-5.99253C38.9344-5.34939 39.1213-4.93436 39.5987-4.44647L43.2028-0.728289C43.6696-0.261505 44.6232-0.209751 45.1629-0.728289L52.1219-7.64611C52.7334-8.20585 52.6817-9.04546 52.1219-9.66751L48.0586-13.6379L53.6594-19.28C54.2192-19.8503 54.2192-20.6381 53.6489-21.2602L48.1822-26.8304C54.7071-29.5412 58.3745-34.5371 58.3745-40.5309C58.3745-48.32 52.029-54.6655 44.2293-54.6655ZM44.1776-41.1278C41.9441-41.1278 40.1986-42.8734 40.1986-45.0962C40.1986-47.2779 41.8818-49.034 44.1776-49.034C46.3075-49.034 48.0942-47.2779 48.0942-45.0962C48.0942-42.8734 46.3075-41.1278 44.1776-41.1278Z" />
</svg>