<svg xmlns="http://www.w3.org/2000/svg" viewBox="12.4609 -80.1648 89.86 89.91">
  <path d="M27.7789 9.74698L87.003 9.74698C97.235 9.74698 102.321 4.64 102.321-5.4157L102.321-65.0021C102.321-75.0578 97.235-80.1648 87.003-80.1648L27.7789-80.1648C17.5986-80.1648 12.4609-75.0789 12.4609-65.0021L12.4609-5.4157C12.4609 4.6611 17.5986 9.74698 27.7789 9.74698ZM48.0681-12.7717C45.4573-12.7717 44.0791-14.678 44.0791-17.33L44.0791-54.7133C44.0791-57.4381 45.4468-59.3233 48.0681-59.3233C50.7306-59.3233 52.1501-57.5416 52.1501-54.7133L52.1501-19.4453L71.2253-19.4453C73.2045-19.4453 74.6345-18.1706 74.6345-16.1291C74.6345-14.0464 73.2151-12.7717 71.2253-12.7717Z"/>
</svg>