<svg xmlns="http://www.w3.org/2000/svg" viewBox="12.4609 -77.8459 112.63 85.17">
  <path d="M53.4173 7.32464L84.1254 7.32464C112.433 7.32464 125.092-5.69403 125.092-32.3484L125.092-63.037C125.092-72.8118 119.976-77.8459 110.076-77.8459L27.4769-77.8459C17.5257-77.8459 12.4609-72.8329 12.4609-63.037L12.4609-32.3484C12.4609-5.69403 25.1199 7.32464 53.4173 7.32464ZM53.4489-0.580574C30.3932-0.580574 20.3144-10.5639 20.3144-31.8625L20.3144-62.6019C20.3144-67.5184 22.8814-69.9407 27.6533-69.9407L109.9-69.9407C114.578-69.9407 117.187-67.5184 117.187-62.6019L117.187-31.8625C117.187-10.5639 107.15-0.580574 84.1043-0.580574ZM48.4123-15.4478L62.4444-15.4478C64.0613-15.4478 65.4089-16.7954 65.4089-18.4123C65.4089-20.0292 64.0613-21.3768 62.4444-21.3768L52.0189-21.3768L52.0189-52.0065C52.0189-53.934 50.402-55.5509 48.4746-55.5509C46.526-55.5509 44.9197-53.934 44.9197-52.0065L44.9197-19.1685C44.9197-16.8471 46.205-15.4478 48.4123-15.4478ZM73.9914-15.4372L84.3616-15.4372C91.2247-15.4372 95.2323-20.0467 95.2323-26.5571C95.2323-31.3757 92.3778-35.737 87.6839-36.2048L87.6839-36.4434C91.4317-37.0876 93.9957-41.2102 93.9957-45.0741C93.9957-51.3333 89.8032-54.9384 84.0712-54.9384L73.9914-54.9384C71.6806-54.9384 70.4576-53.332 70.4576-51.1765L70.4576-19.1579C70.4576-16.8989 71.7218-15.4372 73.9914-15.4372ZM77.484-38.185L77.484-49.4857L82.0096-49.4857C85.7087-49.4857 87.1552-47.1266 87.1552-43.9863C87.1552-40.3897 85.056-38.185 81.4489-38.185ZM77.484-20.8381L77.484-33.3639L81.999-33.3639C85.5871-33.3639 88.0813-31.4601 88.0813-27.158C88.0813-23.2288 86.1468-20.8381 82.1659-20.8381Z"/>
</svg>