<svg xmlns="http://www.w3.org/2000/svg" viewBox="12.4609 -80.1648 89.86 89.91">
  <path d="M27.7789 9.74698L87.003 9.74698C97.235 9.74698 102.321 4.64 102.321-5.4157L102.321-65.0021C102.321-75.0578 97.235-80.1648 87.003-80.1648L27.7789-80.1648C17.5986-80.1648 12.4609-75.0789 12.4609-65.0021L12.4609-5.4157C12.4609 4.6611 17.5986 9.74698 27.7789 9.74698ZM37.8526-14.5026C37.8526-16.523 39.4896-18.1706 41.5618-18.1706L70.6772-18.1706C72.7599-18.1706 74.3969-16.523 74.3969-14.5026C74.3969-12.6269 72.7599-10.8864 70.6772-10.8864L41.5618-10.8864C39.4896-10.8864 37.8526-12.6269 37.8526-14.5026ZM68.9251-25.8767C68.396-25.8767 67.795-26.0014 66.6449-26.6023L41.716-37.689C39.2404-38.7251 38.4113-40.2586 38.4113-42.4448C38.4113-44.4134 39.2922-46.1127 41.716-47.19L66.6449-58.3285C67.795-58.8259 68.396-58.9505 68.9251-58.9505C71.1736-58.9505 72.7177-57.2205 72.7177-55.3238C72.7177-53.8727 71.8368-52.505 70.3752-51.8312L49.3625-42.5176L49.3625-42.3719L70.3752-33.0067C71.8368-32.4364 72.7177-31.0581 72.7177-29.5553C72.7177-27.7208 71.1736-25.8767 68.9251-25.8767Z"/>
</svg>