<svg xmlns="http://www.w3.org/2000/svg" viewBox="12.4609 -64.3535 98.75 58.19">
  <path d="M36.6728-6.16783L87.2603-6.16783C89.4359-6.16783 91.1765-7.90835 91.1765-10.1463C91.1765-12.322 89.4359-14.0625 87.2603-14.0625L36.6728-14.0625C34.4866-14.0625 32.7461-12.322 32.7461-10.1463C32.7461-7.90835 34.4866-6.16783 36.6728-6.16783ZM26.6338-31.3339L97.2994-31.3339C99.475-31.3339 101.226-33.085 101.226-35.2606C101.226-37.4363 99.475-39.1874 97.2994-39.1874L26.6338-39.1874C24.4475-39.1874 22.707-37.4363 22.707-35.2606C22.707-33.085 24.4475-31.3339 26.6338-31.3339ZM16.3877-56.4588L107.287-56.4588C109.514-56.4588 111.213-58.1993 111.213-60.375C111.213-62.6129 109.514-64.3535 107.287-64.3535L16.3877-64.3535C14.2015-64.3535 12.4609-62.6129 12.4609-60.375C12.4609-58.1993 14.2015-56.4588 16.3877-56.4588Z" />
</svg>