<svg xmlns="http://www.w3.org/2000/svg" viewBox="12.4609 -77.5048 118.14 84.49">
  <path d="M16.3877-69.6513L106.835-69.6513C109.021-69.6513 110.813-71.3918 110.813-73.578C110.813-75.7642 109.021-77.5048 106.835-77.5048L16.3877-77.5048C14.1909-77.5048 12.4609-75.7642 12.4609-73.578C12.4609-71.3918 14.1909-69.6513 16.3877-69.6513ZM16.3877-44.1064L46.4014-44.1064C48.5876-44.1064 50.3798-45.8469 50.3798-48.0331C50.3798-50.2193 48.5876-51.9598 46.4014-51.9598L16.3877-51.9598C14.1909-51.9598 12.4609-50.2193 12.4609-48.0331C12.4609-45.8469 14.1909-44.1064 16.3877-44.1064ZM16.3877-18.5615L46.4014-18.5615C48.5876-18.5615 50.3798-20.302 50.3798-22.4882C50.3798-24.6744 48.5876-26.4149 46.4014-26.4149L16.3877-26.4149C14.1909-26.4149 12.4609-24.6744 12.4609-22.4882C12.4609-20.302 14.1909-18.5615 16.3877-18.5615ZM16.3877 6.98347L46.4014 6.98347C48.5876 6.98347 50.3798 5.24295 50.3798 3.05674C50.3798 0.870531 48.5876-0.869994 46.4014-0.869994L16.3877-0.869994C14.1909-0.869994 12.4609 0.870531 12.4609 3.05674C12.4609 5.24295 14.1909 6.98347 16.3877 6.98347ZM66.1566 6.1484L123.993 6.1484C128.028 6.1484 130.6 3.58736 130.6-0.40668L130.6-44.8064C130.6-48.7275 128.028-51.3097 123.993-51.3097L66.1566-51.3097C62.1625-51.3097 59.5497-48.7275 59.5497-44.8064L59.5497-0.40668C59.5497 3.58736 62.1625 6.1484 66.1566 6.1484ZM66.5811-37.373C65.6044-37.373 64.9708-38.0066 64.9708-38.9211L64.9708-44.3607C64.9708-45.2857 65.6044-45.9816 66.5811-45.9816L71.1907-45.9816C72.1675-45.9816 72.8011-45.2857 72.8011-44.3607L72.8011-38.9211C72.8011-38.0066 72.1675-37.373 71.1907-37.373ZM66.5811-24.6764C65.6044-24.6764 64.9708-25.3617 64.9708-26.1727L64.9708-31.6123C64.9708-32.5891 65.6044-33.2332 66.5811-33.2332L71.1907-33.2332C72.1675-33.2332 72.8011-32.5891 72.8011-31.6123L72.8011-26.1727C72.8011-25.3617 72.1675-24.6764 71.1907-24.6764ZM66.5811-11.9798C65.6044-11.9798 64.9708-12.6134 64.9708-13.4761L64.9708-18.9157C64.9708-19.8925 65.6044-20.5366 66.5811-20.5366L71.1907-20.5366C72.1675-20.5366 72.8011-19.8925 72.8011-18.9157L72.8011-13.4761C72.8011-12.6134 72.1675-11.9798 71.1907-11.9798ZM66.5811 0.779112C65.6044 0.779112 64.9708 0.145514 64.9708-0.779507L64.9708-6.20856C64.9708-7.18534 65.6044-7.82949 66.5811-7.82949L71.1907-7.82949C72.1675-7.82949 72.8011-7.18534 72.8011-6.20856L72.8011-0.779507C72.8011 0.145514 72.1675 0.779112 71.1907 0.779112ZM119-37.373C117.971-37.373 117.338-38.0066 117.338-38.9211L117.338-44.3607C117.338-45.2857 117.971-45.9816 119-45.9816L123.558-45.9816C124.586-45.9816 125.22-45.2857 125.22-44.3607L125.22-38.9211C125.22-38.0066 124.586-37.373 123.558-37.373ZM119-24.6764C117.971-24.6764 117.338-25.3617 117.338-26.1727L117.338-31.6123C117.338-32.5891 117.971-33.2332 119-33.2332L123.558-33.2332C124.586-33.2332 125.22-32.5891 125.22-31.6123L125.22-26.1727C125.22-25.3617 124.586-24.6764 123.558-24.6764ZM119-11.9798C117.971-11.9798 117.338-12.6134 117.338-13.4761L117.338-18.9157C117.338-19.8925 117.971-20.5366 119-20.5366L123.558-20.5366C124.586-20.5366 125.22-19.8925 125.22-18.9157L125.22-13.4761C125.22-12.6134 124.586-11.9798 123.558-11.9798ZM119 0.779112C117.971 0.779112 117.338 0.145514 117.338-0.779507L117.338-6.20856C117.338-7.18534 117.971-7.82949 119-7.82949L123.558-7.82949C124.586-7.82949 125.22-7.18534 125.22-6.20856L125.22-0.779507C125.22 0.145514 124.586 0.779112 123.558 0.779112ZM79.6044-1.18753C78.6592-1.18753 78.0774-1.76937 78.0774-2.71449L78.0774-17.3028C78.0774-18.2997 78.6592-18.8815 79.6044-18.8815L110.535-18.8815C111.48-18.8815 112.062-18.2997 112.062-17.3028L112.062-2.71449C112.062-1.76937 111.48-1.18753 110.535-1.18753ZM79.6044-26.228C78.6592-26.228 78.0774-26.8098 78.0774-27.755L78.0774-42.4985C78.0774-43.4437 78.6592-44.0255 79.6044-44.0255L110.535-44.0255C111.48-44.0255 112.062-43.4437 112.062-42.4985L112.062-27.755C112.062-26.8098 111.48-26.228 110.535-26.228Z" />
</svg>