<svg xmlns="http://www.w3.org/2000/svg" viewBox="9.9381 -82.3942 133.76 94.3">
  <path d="M30.0937 9.48721L49.3237 5.77003C59.6518 3.76673 64.2488-1.85779 64.2488-12.8606L64.2488-66.0065C64.2488-75.7833 57.4098-82.3942 47.124-82.3942C38.5194-82.3942 31.1292-76.2079 28.6592-67.0531L13.2498-8.56158C9.9381 3.928 17.385 11.9045 30.0937 9.48721ZM56.4058-66.0065L56.4058-12.8606C56.4058-5.5775 54.4819-3.27877 47.9148-1.97993L28.6004 1.75836C23.0483 2.83964 19.305-0.520273 20.9681-6.77785L36.2951-65.0222C37.8431-70.7477 42.1356-74.489 47.124-74.489C52.7153-74.489 56.4058-71.1099 56.4058-66.0065ZM37.6361-12.33L64.2488-17.9269L64.2488-25.9873L58.462-24.699L43.552-38.2066C42.0502-39.5743 39.4077-39.5225 37.9471-37.9373C36.5382-36.3214 36.7452-33.7518 38.3305-32.3323L49.0443-22.7409L35.9473-19.9553C33.9892-19.5202 32.5698-17.3963 32.9532-15.3241C33.3365-13.2213 35.564-11.8948 37.6361-12.33ZM76.8142-20.606L89.3279-17.9269L89.3279-25.9873L80.6892-27.8067L80.6892-76.2245C80.6892-78.3484 78.9487-80.1512 76.8142-80.1512C74.6385-80.1512 72.898-78.3484 72.898-76.2245L72.898-27.8067L64.2488-25.9873L64.2488-17.9269ZM123.483 9.48721C136.202 11.9045 143.701 3.928 140.337-8.56158L124.928-67.0531C122.499-76.2079 115.12-82.3942 106.453-82.3942C96.2292-82.3942 89.3279-75.7833 89.3279-66.0065L89.3279-12.8606C89.3279-1.85779 93.9354 3.76673 104.263 5.77003ZM97.1814-66.0065C97.1814-71.1099 100.872-74.489 106.453-74.489C111.452-74.489 115.734-70.7477 117.333-65.0222L132.66-6.77785C134.282-0.520273 130.591 2.83964 124.987 1.75836L105.672-1.97993C99.1053-3.27877 97.1814-5.5775 97.1814-12.8606ZM115.951-12.33C118.023-11.8948 120.251-13.2213 120.634-15.3241C121.069-17.3963 119.65-19.5202 117.64-19.9553L104.543-22.7409L115.257-32.3323C116.842-33.7518 117.049-36.3214 115.64-37.9373C114.169-39.5225 111.537-39.5743 110.035-38.2066L95.1252-24.699L89.3279-25.9873L89.3279-17.9269Z"/>
</svg>