<svg xmlns="http://www.w3.org/2000/svg" viewBox="-1.66967 -85.0341 109.99 99.55">
  <path d="M2.72585-44.6953C-0.787857-44.6953-1.66967-42.2905 0.269319-39.5637L11.1907-24.0222C12.777-21.7927 15.1406-21.7927 16.6751-24.0222L27.5965-39.6049C29.4837-42.2905 28.6019-44.6953 25.14-44.6953ZM108.321-35.2606C108.321-62.7637 85.9991-85.0341 58.4961-85.0341C31.0448-85.0341 8.77441-62.8154 8.72266-35.1983C8.77441-32.9498 10.629-31.1163 12.8564-31.1163C15.125-31.1163 17.0314-33.0016 17.0314-35.2501C17.0314-58.2053 35.5514-76.7666 58.4961-76.7666C81.4408-76.7666 100.002-58.2053 100.002-35.2606C100.002-12.316 81.4408 6.24529 58.4961 6.24529C44.5931 6.24529 32.384-0.615232 24.9687-10.9583C23.4563-12.9681 21.1148-13.5691 19.0944-12.3365C17.1469-11.1452 16.5459-8.32739 18.2136-6.19293C27.2965 6.36697 41.8165 14.5128 58.4961 14.5128C85.9991 14.5128 108.321-7.75763 108.321-35.2606ZM35.6846-18.7419C37.0322-18.7419 37.8929-19.6544 37.8929-21.0643L37.8929-32.0027L42.8958-32.0027L47.845-20.3694C48.2389-19.3016 49.0162-18.7419 50.0428-18.7419C51.4939-18.7419 52.3134-19.685 52.3134-20.7844C52.3134-21.3336 52.1888-21.7074 51.8466-22.4847L47.2501-32.9775C50.2332-34.2753 52.4053-37.3082 52.4053-41.7559C52.4053-47.6969 48.76-51.3327 42.633-51.3327L35.6223-51.3327C34.2747-51.3327 33.3622-50.4097 33.3622-49.0103L33.3622-21.0643C33.3622-19.6544 34.2229-18.7419 35.6846-18.7419ZM37.8929-35.6008L37.8929-47.5688L42.2286-47.5688C45.8472-47.5688 47.8852-45.2912 47.8852-41.6418C47.8852-38.0136 45.9824-35.6008 42.2391-35.6008ZM58.9438-18.6901C60.1879-18.6901 60.9968-19.5508 60.9968-20.7949L60.9968-44.4576L61.2154-44.4576L67.7347-21.4391C68.0463-20.2458 68.813-19.2192 70.2757-19.2192C71.6971-19.2192 72.4332-20.1422 72.8483-21.5531L79.3571-44.4576L79.5756-44.4576L79.5756-20.7949C79.5756-19.5508 80.3846-18.6901 81.6287-18.6901C82.8517-18.6901 83.6606-19.5508 83.6606-20.7949L83.6606-48.6059C83.6606-50.5554 82.4165-51.7583 80.467-51.7583C78.7657-51.7583 77.6155-50.7318 77.1382-49.0928L70.546-25.202L70.1511-25.202L63.4237-49.1033C63.0087-50.7212 61.7962-51.7583 60.1572-51.7583C58.1559-51.7583 56.9013-50.5449 56.9013-48.6059L56.9013-20.7949C56.9013-19.5508 57.7102-18.6901 58.9438-18.6901Z" />
</svg>