<svg xmlns="http://www.w3.org/2000/svg" viewBox="12.4609 -77.039 115.09 83.68">
  <path d="M36.3829-25.3105C34.3002-25.3105 32.6632-26.958 32.6632-29.0302C32.6632-31.1023 34.3002-32.7499 36.3829-32.7499L57.3128-32.7499C59.3955-32.7499 61.0325-31.1023 61.0325-29.0302C61.0325-26.958 59.3955-25.3105 57.3128-25.3105ZM93.0656-13.8157C90.9935-13.8157 89.2942-15.4528 89.2942-17.5355L89.2942-25.3105L81.5604-25.3105C79.4365-25.3105 77.7889-26.958 77.7889-29.0302C77.7889-31.1023 79.4259-32.7499 81.5604-32.7499L89.2942-32.7499L89.2942-40.5354C89.2942-42.6076 90.9935-44.2552 93.0656-44.2552C95.1378-44.2552 96.7854-42.6076 96.7854-40.5354L96.7854-32.7499L104.56-32.7499C106.633-32.7499 108.28-31.1023 108.28-29.0302C108.28-26.958 106.633-25.3105 104.56-25.3105L96.7854-25.3105L96.7854-17.5355C96.7854-15.4633 95.1378-13.8157 93.0656-13.8157ZM27.7789 6.6423L112.233 6.6423C122.465 6.6423 127.551 1.53532 127.551-8.52038L127.551-49.4154C127.551-59.4711 122.465-64.578 112.233-64.578L106.799-64.578L106.799-71.0627C106.799-74.7875 104.683-77.039 100.947-77.039L91.1704-77.039C87.4447-77.039 85.266-74.7875 85.266-71.0627L85.266-64.578L54.7457-64.578L54.7457-71.0627C54.7457-74.7875 52.6188-77.039 48.8931-77.039L39.1168-77.039C35.3805-77.039 33.2124-74.7875 33.2124-71.0627L33.2124-64.578L27.7789-64.578C17.5986-64.578 12.4609-59.4922 12.4609-49.4154L12.4609-8.52038C12.4609 1.55642 17.5986 6.6423 27.7789 6.6423Z"/>
</svg>