<svg xmlns="http://www.w3.org/2000/svg" viewBox="12.4609 -79.092 115.12 87.66">
  <path d="M50.9251 8.57074L89.1098 8.57074C117.418 8.57074 127.585-1.95575 127.585-28.1032L127.585-42.4181C127.585-68.5655 117.418-79.092 89.1098-79.092L50.9251-79.092C22.6277-79.092 12.4609-68.5655 12.4609-42.4181L12.4609-28.1032C12.4609-1.95575 22.6277 8.57074 50.9251 8.57074ZM46.9421-14.4011C44.5172-14.4011 43.1907-15.8417 43.1907-18.2148L43.1907-51.808C43.1907-54.2751 44.7147-55.684 46.8903-55.684L56.3154-55.684C63.6644-55.684 68.0141-49.6435 68.0141-42.0031C68.0141-34.2592 63.582-28.3739 55.8908-28.3739L50.5593-28.3739L50.5593-18.2148C50.5593-15.8733 49.2951-14.4011 46.9421-14.4011ZM50.5593-34.2407L54.4091-34.2407C58.898-34.2407 60.7079-37.5142 60.7079-42.0031C60.7079-46.7614 58.691-49.755 54.4503-49.755L50.5593-49.755ZM91.0071-14.2459C89.3691-14.2459 87.4628-15.2312 87.4628-17.9043L87.4628-22.8278L76.2525-22.8278C73.7537-22.8278 72.0745-24.5176 72.0745-26.9741C72.0745-28.5393 72.3649-29.8246 73.2045-31.7731L82.1462-51.28C83.5456-54.3997 85.266-56.2036 88.8104-56.2036C92.1256-56.2036 94.3962-54.3078 94.3962-50.8036L94.3962-28.7357L96.1975-28.7357C98.2285-28.7357 99.0585-27.461 99.0585-25.8335C99.0585-24.1543 98.146-22.8278 96.1975-22.8278L94.3962-22.8278L94.3962-17.9043C94.3962-15.4076 92.8416-14.2459 91.0071-14.2459ZM87.618-28.5805L87.618-49.8681L87.4311-49.8681L78.2729-28.9016L78.2729-28.5805Z"/>
</svg>