<svg xmlns="http://www.w3.org/2000/svg" viewBox="-1.66967 -85.0341 109.99 99.55">
  <path d="M2.72585-44.6953C-0.787857-44.6953-1.66967-42.2905 0.269319-39.5637L11.1907-24.0222C12.777-21.7927 15.1406-21.7927 16.6751-24.0222L27.5965-39.6049C29.4837-42.2905 28.6019-44.6953 25.14-44.6953ZM108.321-35.2606C108.321-62.7637 85.9991-85.0341 58.4961-85.0341C31.0448-85.0341 8.77441-62.8154 8.72266-35.1983C8.77441-32.9498 10.629-31.1163 12.8564-31.1163C15.125-31.1163 17.0314-33.0016 17.0314-35.2501C17.0314-58.2053 35.5514-76.7666 58.4961-76.7666C81.4408-76.7666 100.002-58.2053 100.002-35.2606C100.002-12.316 81.4408 6.24529 58.4961 6.24529C44.5931 6.24529 32.384-0.615232 24.9687-10.9583C23.4563-12.9681 21.1148-13.5691 19.0944-12.3365C17.1469-11.1452 16.5459-8.32739 18.2136-6.19293C27.2965 6.36697 41.8165 14.5128 58.4961 14.5128C85.9991 14.5128 108.321-7.75763 108.321-35.2606ZM48.7344-12.8772C50.5065-12.8772 51.5848-13.9449 51.5848-15.7276L51.5848-28.8493L60.5376-28.8493C69.0502-28.8493 74.9988-34.6089 74.9988-43.111C74.9988-51.799 68.9467-57.2587 60.6411-57.2587L48.7861-57.2587C46.9928-57.2587 45.8839-56.1498 45.8839-54.346L45.8839-15.7276C45.8839-13.9449 46.9516-12.8772 48.7344-12.8772ZM51.5848-33.587L51.5848-52.5316L59.2111-52.5316C65.132-52.5316 69.111-49.446 69.111-43.111C69.111-36.8796 65.3707-33.587 59.1593-33.587ZM41.0568-43.4015C41.0568-42.4267 41.8034-41.7835 42.7677-41.7835L77.2438-41.7835C78.2186-41.7835 78.9652-42.4784 78.9652-43.4015C78.9652-44.3245 78.2186-45.0088 77.2438-45.0088L42.7677-45.0088C41.8034-45.0088 41.0568-44.3245 41.0568-43.4015Z" />
</svg>