<svg xmlns="http://www.w3.org/2000/svg" viewBox="8.72266 -84.1312 117.55 97.76">
  <path d="M8.72266-25.4291C8.72266-10.9975 13.9246 2.21967 22.5216 12.4567C23.508 13.63 25.1173 13.6194 26.2388 12.5085L37.8732 0.884622C38.6631 0.146515 38.7149-0.903115 37.9978-1.76583C32.6818-8.56559 29.6912-16.6546 29.6912-25.4291C29.6912-44.7531 44.1871-60.7126 62.8881-63.0274C64.207-63.152 65.1416-64.1595 65.1416-65.4679L65.1416-81.4415C65.1416-82.9991 63.9578-84.1312 62.4002-83.996C32.3638-81.432 8.72266-56.2026 8.72266-25.4291ZM126.272-25.4291C126.272-56.2026 102.693-81.432 72.594-83.996C71.0364-84.1312 69.8526-82.9991 69.8526-81.4415L69.8526-65.4679C69.8526-64.1595 70.7872-63.152 72.1167-63.0274C90.8071-60.7126 105.355-44.7531 105.355-25.4291C105.355-16.6546 102.364-8.56559 96.9964-1.76583C96.3311-0.903115 96.3829 0.146515 97.121 0.884622L108.766 12.5085C109.887 13.6194 111.507 13.6194 112.504 12.4356C121.132 2.19856 126.272-11.008 126.272-25.4291ZM57.7484-2.41198C59.5312-2.41198 60.7024-3.55257 60.7024-5.32474L60.7024-17.2023L69.5411-17.2023C78.417-17.2023 84.0541-23.7192 84.0541-32.0861C84.0541-40.2154 78.7276-46.8664 69.6552-46.8664L57.7896-46.8664C55.9964-46.8664 54.9392-45.6952 54.9392-43.8913L54.9392-5.32474C54.9392-3.55257 56.0175-2.41198 57.7484-2.41198ZM60.7024-21.9917L60.7024-42.0875L68.2769-42.0875C74.4049-42.0875 78.2286-38.5045 78.2286-32.0861C78.2286-25.8335 74.5084-21.9917 68.2769-21.9917ZM50.0603-35.9068C50.0603-34.932 50.7552-34.31 51.7089-34.31L86.3202-34.31C87.2326-34.31 87.9793-34.9943 87.9793-35.9068C87.9793-36.7675 87.2326-37.5142 86.3202-37.5142L51.7089-37.5142C50.7552-37.5142 50.0603-36.7675 50.0603-35.9068ZM50.0603-28.1408C50.0603-27.2283 50.7552-26.544 51.7089-26.544L86.3202-26.544C87.2326-26.544 87.9793-27.2907 87.9793-28.1408C87.9793-29.0533 87.2326-29.7482 86.3202-29.7482L51.7089-29.7482C50.7552-29.7482 50.0603-29.0533 50.0603-28.1408Z"/>
</svg>