<svg xmlns="http://www.w3.org/2000/svg" viewBox="8.72266 -85.0341 99.6 99.55">
  <path d="M58.4961 14.5128C85.9991 14.5128 108.321-7.75763 108.321-35.2606C108.321-62.7637 85.9991-85.0341 58.4961-85.0341C31.0448-85.0341 8.72266-62.7637 8.72266-35.2606C8.72266-7.75763 31.0448 14.5128 58.4961 14.5128ZM58.4961 6.24529C35.5514 6.24529 17.0314-12.316 17.0314-35.2606C17.0314-58.2053 35.5514-76.7666 58.4961-76.7666C81.4408-76.7666 100.002-58.2053 100.002-35.2606C100.002-12.316 81.4408 6.24529 58.4961 6.24529ZM37.4447-14.1183L79.5897-14.1183C84.6229-14.1183 87.2588-16.5883 87.2588-21.6732L87.2588-38.512C87.2588-48.1271 81.6744-53.3577 71.8036-53.3577L71.1113-53.3577L71.1113-54.8761C71.1113-59.5439 68.5261-61.7351 64.0126-61.7351L53.0736-61.7351C48.7153-61.7351 45.9231-59.5439 45.9231-54.8761L45.9231-53.3577L45.2307-53.3577C35.3599-53.3577 29.8274-48.1271 29.8274-38.512L29.8274-21.6732C29.8274-16.5883 32.4115-14.1183 37.4447-14.1183ZM50.0196-53.3577L50.0196-55.1559C50.0196-56.9206 51.1833-57.9597 52.9796-57.9597L64.2638-57.9597C65.945-57.9597 67.0665-56.9206 67.0665-55.1559L67.0665-53.3577ZM46.317-34.8964C46.317-37.1604 47.5315-38.9874 49.0479-38.9874C50.616-38.9874 51.8928-37.1604 51.8928-34.8964C51.8928-32.57 50.616-30.7948 49.0479-30.7948C47.5315-30.7948 46.317-32.57 46.317-34.8964ZM51.9551-41.5831C51.9551-43.8682 53.2213-45.6329 54.7483-45.6329C56.3164-45.6329 57.5309-43.8682 57.5309-41.5831C57.5309-39.3084 56.3164-37.5333 54.7483-37.5333C53.2213-37.5333 51.9551-39.3084 51.9551-41.5831ZM59.5035-41.5831C59.5035-43.8682 60.7697-45.6329 62.2967-45.6329C63.8648-45.6329 65.0898-43.8682 65.0898-41.5831C65.0898-39.3084 63.8648-37.5333 62.2967-37.5333C60.7697-37.5333 59.5035-39.3084 59.5035-41.5831ZM65.1521-34.8964C65.1521-37.1604 66.4701-38.9874 67.9971-38.9874C69.6064-38.9874 70.7691-37.1604 70.7691-34.8964C70.7691-32.57 69.6064-30.7948 67.9971-30.7948C66.4701-30.7948 65.1521-32.57 65.1521-34.8964ZM49.7945-25.8401C49.7945-27.8137 50.9994-28.8317 52.142-29.8391C52.8168-30.2964 53.3776-30.7843 53.8549-31.5108C54.1453-31.9881 54.4463-32.5278 54.6955-33.0885C55.5361-34.8637 56.1496-36.5786 58.5172-36.5786C60.8742-36.5786 61.5395-34.8743 62.4012-33.0885C62.6916-32.5172 62.8891-31.9153 63.2418-31.4897C63.7086-30.7737 64.2693-30.2964 64.9441-29.8391C66.0867-28.8317 67.2916-27.8137 67.2916-25.8401C67.2916-23.5147 65.6094-21.8536 63.377-21.8536C62.1932-21.8536 61.3832-22.1134 60.5732-22.3837C59.8879-22.6329 59.3272-22.7892 58.5172-22.7892C57.7072-22.7892 57.1465-22.6329 56.4611-22.3837C55.6512-22.1134 54.8412-21.8536 53.7197-21.8536C51.4145-21.8536 49.7945-23.5147 49.7945-25.8401Z" />
</svg>