<svg xmlns="http://www.w3.org/2000/svg" viewBox="8.72266 -84.9718 99.6 99.55">
  <path d="M58.4961 14.5751C85.978 14.5751 108.321-7.76818 108.321-35.1983C108.321-62.6285 85.978-84.9718 58.4961-84.9718C31.0659-84.9718 8.72266-62.6285 8.72266-35.1983C8.72266-7.76818 31.0659 14.5751 58.4961 14.5751ZM58.6514-47.8673C70.1777-47.8673 81.476-45.3128 87.114-39.7265C89.6896-37.1614 90.9146-33.8487 90.7383-30.6818C90.6031-27.6183 89.8765-25.9466 88.8068-24.8251C87.9451-24.0257 86.6885-23.7659 84.456-24.1915L76.273-25.5622C74.2064-25.8843 73.4904-26.2476 72.7945-26.9435C72.1715-27.6077 71.8388-28.1484 71.351-29.7989L69.9285-34.6587C69.7416-35.2606 69.617-35.4581 69.3678-35.7179C68.9422-36.0812 68.6307-36.2163 68.1734-36.4655C65.8269-37.2649 62.1615-37.7116 58.4539-37.7528C54.7779-37.7528 51.3311-37.2755 49.1187-36.569C48.8484-36.4032 48.4228-36.2058 48.0596-35.8942C47.8103-35.6968 47.7375-35.3335 47.6234-34.8868L46.2633-29.913C45.8894-28.5011 45.6297-27.9192 44.9961-27.2444C44.1967-26.445 43.1375-25.8843 41.2789-25.5728L33.4074-24.3056C31.1644-23.9317 29.6691-23.8694 28.5582-24.8769C27.3015-26.1853 26.6996-28.8021 26.6785-31.045C26.575-34.2226 27.9351-37.286 30.4168-39.7677C35.9724-45.3751 47.0627-47.8673 58.6514-47.8673Z"/>
</svg>