<svg xmlns="http://www.w3.org/2000/svg" viewBox="8.72266 -84.9718 99.6 99.55">
  <path d="M58.4961 14.5751C85.978 14.5751 108.321-7.76818 108.321-35.1983C108.321-62.6285 85.978-84.9718 58.4961-84.9718C31.0659-84.9718 8.72266-62.6285 8.72266-35.1983C8.72266-7.76818 31.0659 14.5751 58.4961 14.5751ZM43.3339-20.1734C35.172-28.3353 29.0662-37.9302 29.0662-45.8429C29.0662-49.332 30.3123-52.4472 32.6175-54.6384C34.2375-56.1855 36.4804-57.629 38.339-57.629C39.8449-57.629 40.8418-56.5075 42.1502-54.6384L46.823-48.1376C47.9339-46.6529 48.256-45.4691 48.256-44.4099C48.256-43.4236 48.0586-42.79 47.2697-41.5544L44.7152-37.079C44.5177-36.7052 44.2791-36.3937 44.2791-36.0199C44.2791-35.5837 44.5072-35.1476 44.5906-34.8361C45.6603-32.7484 47.7576-30.0386 50.3226-27.4218C53.0017-24.8357 55.93-22.4892 58.1002-21.4406C58.6091-21.2431 58.9312-21.1185 59.4814-21.1185C59.8552-21.1185 60.1045-21.1913 60.6029-21.4406L65.0783-23.9222C66.5525-24.7734 67.2589-24.9085 68.0795-24.9085C69.1281-24.9085 69.8652-24.6698 71.558-23.4755L78.2974-18.6157C80.2078-17.3073 80.9037-16.2376 80.9037-15.1161C80.9037-13.5585 80.2701-11.8868 78.1623-9.58156C76.0439-7.22454 72.8664-5.77043 69.1798-5.77043C61.2882-5.77043 51.4959-12.0114 43.3339-20.1734ZM61.7857-38.6763C60.0949-38.6763 59.2754-39.6616 59.2754-41.0102L59.2754-59.5042C59.2754-60.9045 60.0949-61.8381 61.7857-61.8381L64.6105-61.8381C66.2907-61.8381 67.162-60.9045 67.162-59.5042L67.162-41.0102C67.162-39.6616 66.2907-38.6763 64.6105-38.6763ZM75.0008-38.6763C73.2583-38.6763 72.4081-39.6616 72.4081-41.0102L72.4081-59.5042C72.4081-60.9045 73.2583-61.8381 75.0008-61.8381L77.8256-61.8381C79.4647-61.8381 80.3359-60.9045 80.3359-59.5042L80.3359-41.0102C80.3359-39.6616 79.4647-38.6763 77.8256-38.6763Z"/>
</svg>