<svg xmlns="http://www.w3.org/2000/svg" viewBox="12.4609 -80.1648 89.86 89.91">
  <path d="M27.7789 9.74698L87.003 9.74698C97.235 9.74698 102.321 4.64 102.321-5.4157L102.321-65.0021C102.321-75.0578 97.235-80.1648 87.003-80.1648L27.7789-80.1648C17.5986-80.1648 12.4609-75.0789 12.4609-65.0021L12.4609-5.4157C12.4609 4.6611 17.5986 9.74698 27.7789 9.74698ZM59.9462-20.2437L47.2511-7.54861C43.9655-4.31478 39.6745-5.90205 39.6745-9.85188L39.6745-58.5455C39.6745-62.9526 44.2685-64.6001 47.2752-61.604L81.6272-27.252C84.3541-24.4734 82.5206-20.2437 77.8357-20.2437Z"/>
</svg>