<svg xmlns="http://www.w3.org/2000/svg" viewBox="12.4609 -77.7856 104.32 85.06">
  <path d="M28.1537-46.3589C36.8819-46.3589 43.9394-53.3647 43.9394-62.1034C43.9394-70.7281 36.8819-77.7856 28.1537-77.7856C19.5185-77.7856 12.4609-70.7281 12.4609-62.1034C12.4609-53.3647 19.5185-46.3589 28.1537-46.3589ZM100.998-46.3589C109.727-46.3589 116.784-53.3647 116.784-62.1034C116.784-70.7281 109.727-77.7856 100.998-77.7856C92.3632-77.7856 85.3057-70.7281 85.3057-62.1034C85.3057-53.3647 92.3632-46.3589 100.998-46.3589ZM64.6019 7.27489C73.3301 7.27489 80.3877 0.269122 80.3877-8.46963C80.3877-17.1461 73.3301-24.1518 64.6019-24.1518C55.9667-24.1518 48.9092-17.1461 48.9092-8.46963C48.9092 0.269122 55.9667 7.27489 64.6019 7.27489ZM52.1707-57.7777C54.4624-57.7777 56.3602-59.7167 56.3602-62.019C56.3602-64.3107 54.4624-66.2085 52.1707-66.2085C49.8684-66.2085 47.9706-64.3107 47.9706-62.019C47.9706-59.7167 49.8684-57.7777 52.1707-57.7777ZM64.6019-57.7777C66.9042-57.7777 68.8432-59.7167 68.8432-62.019C68.8432-64.3107 66.9042-66.2085 64.6019-66.2085C62.2997-66.2085 60.4124-64.3107 60.4124-62.019C60.4124-59.7167 62.2997-57.7777 64.6019-57.7777ZM77.0744-57.7777C79.3767-57.7777 81.2639-59.7167 81.2639-62.019C81.2639-64.3107 79.3767-66.2085 77.0744-66.2085C74.7827-66.2085 72.8849-64.3107 72.8849-62.019C72.8849-59.7167 74.7827-57.7777 77.0744-57.7777ZM88.5164-35.7229C90.8187-35.7229 92.7059-37.6101 92.7059-39.9124C92.7059-42.2147 90.8187-44.1019 88.5164-44.1019C86.2141-44.1019 84.3269-42.2147 84.3269-39.9124C84.3269-37.6101 86.2141-35.7229 88.5164-35.7229ZM79.4199-25.6918C81.7222-25.6918 83.6094-27.5791 83.6094-29.8813C83.6094-32.1836 81.7222-34.0708 79.4199-34.0708C77.1176-34.0708 75.2304-32.1836 75.2304-29.8813C75.2304-27.5791 77.1176-25.6918 79.4199-25.6918ZM49.7629-25.6918C52.0652-25.6918 53.9524-27.5791 53.9524-29.8813C53.9524-32.1836 52.0652-34.0708 49.7629-34.0708C47.4606-34.0708 45.5734-32.1836 45.5734-29.8813C45.5734-27.5791 47.4606-25.6918 49.7629-25.6918ZM40.6664-35.7229C42.9687-35.7229 44.8559-37.6101 44.8559-39.9124C44.8559-42.2147 42.9687-44.1019 40.6664-44.1019C38.3641-44.1019 36.4769-42.2147 36.4769-39.9124C36.4769-37.6101 38.3641-35.7229 40.6664-35.7229Z"/>
</svg>