<svg xmlns="http://www.w3.org/2000/svg" viewBox="11.0807 -98.22 104.62 123.68">
  <path d="M115.703-56.5166C115.703-66.7486 110.669-71.8345 100.592-71.8345L54.5553-71.8345C44.4785-71.8345 39.3927-66.7486 39.3927-56.5166L39.3927 10.1394C39.3927 20.3197 44.4996 25.4573 54.5553 25.4573L100.592 25.4573C110.648 25.4573 115.703 20.3197 115.703 10.1394ZM107.849-56.3919L107.849 10.0148C107.849 14.8489 105.24 17.6038 100.157 17.6038L54.9387 17.6038C49.9071 17.6038 47.2979 14.8489 47.2979 10.0148L47.2979-56.3919C47.2979-61.2683 49.9071-63.981 54.9387-63.981L100.157-63.981C105.24-63.981 107.849-61.2683 107.849-56.3919ZM46.2206-1.42773L41.0422-0.516267C36.0423 0.47206 32.9547-1.86787 32.1437-6.63969L20.6154-72.0907C19.7939-76.8942 21.8836-79.9607 26.8423-80.8339L71.3645-88.6748C76.375-89.6104 79.3897-87.3654 80.2218-82.5619L83.2526-65.8587L90.8885-67.2264L88.0024-84.0437C86.2071-94.1511 80.3429-98.22 70.4425-96.4765L25.1018-88.5216C15.2013-86.8298 11.0807-80.9139 12.876-70.7959L24.4043-5.14738C26.1996 4.90832 32.1166 9.17569 41.9748 7.28544L46.2206 6.52924Z"/>
</svg>