<svg xmlns="http://www.w3.org/2000/svg" viewBox="12.4609 -85.8933 147.38 96.08">
  <path d="M38.4109-17.5958C42.2497-17.5958 45.383-20.7703 45.383-24.6302C45.383-28.4795 42.2497-31.6023 38.4109-31.6023C34.551-31.6023 31.3554-28.4795 31.3554-24.6302C31.3554-20.7703 34.551-17.5958 38.4109-17.5958ZM59.4206-17.5958C63.2594-17.5958 66.3928-20.7703 66.3928-24.6302C66.3928-28.4795 63.2594-31.6023 59.4206-31.6023C55.5608-31.6023 52.4274-28.4795 52.4274-24.6302C52.4274-20.7703 55.5608-17.5958 59.4206-17.5958ZM80.4822-17.5958C84.321-17.5958 87.4648-20.7703 87.4648-24.6302C87.4648-28.4795 84.321-31.6023 80.4822-31.6023C76.6223-31.6023 73.4372-28.4795 73.4372-24.6302C73.4372-20.7703 76.6223-17.5958 80.4822-17.5958ZM106.626-25.6241L150.448-69.384L143.177-76.6139L99.4062-32.8645L95.3323-23.5409C94.9585-22.5556 95.9649-21.415 97.0432-21.83ZM154.029-72.9028L157.911-76.8154C159.78-78.674 159.842-81.4219 158.005-83.1559L156.731-84.3156C155.029-85.8627 152.404-85.8933 150.67-84.1076L146.747-80.1949ZM32.8823 10.1907L116.664 10.1907C129.766 10.1907 137.085 2.86081 137.085-10.2518L137.085-45.6068L129.232-37.7533L129.232-10.2413C129.232-2.2055 124.699 2.28544 116.664 2.28544L32.8718 2.28544C24.8466 2.28544 20.3144-2.2055 20.3144-10.2413L20.3144-38.4393C20.3144-46.4233 24.8466-50.9554 32.8718-50.9554L107.166-50.9554L114.906-58.8089L32.8823-58.8089C19.7802-58.8089 12.4609-51.5413 12.4609-38.4287L12.4609-10.2518C12.4609 2.86081 19.7802 10.1907 32.8823 10.1907Z"/>
</svg>