<svg xmlns="http://www.w3.org/2000/svg" viewBox="12.4609 -80.0246 104.42 88.24">
  <path d="M62.8941-75.5542L62.8941-44.6073C62.8941-42.6377 64.0759-41.5594 66.0667-41.5594C66.9379-41.5594 67.8705-41.8911 68.5971-42.4824L87.0468-57.72C88.6034-59.0274 88.6552-61.0518 87.0468-62.4004L68.5971-77.6897C67.8705-78.2811 66.9379-78.6021 66.0667-78.6021C64.0759-78.6021 62.8941-77.5344 62.8941-75.5542ZM16.5967-33.4578C18.8874-33.4578 20.6807-35.2511 20.6807-37.6147L20.6807-42.2549C20.6807-50.6203 26.4549-56.083 35.267-56.083L70.1109-56.083C72.3499-56.083 74.1949-57.928 74.1949-60.1152C74.1949-62.3647 72.3499-64.1992 70.1109-64.1992L36.0951-64.1992C21.562-64.1992 12.4609-55.979 12.4609-42.8242L12.4609-37.6147C12.4609-35.2511 14.2542-33.4578 16.5967-33.4578ZM55.7437 5.16809L55.7437-25.7788C55.7437-27.7484 54.5619-28.8267 52.5606-28.8267C51.6893-28.8267 50.7673-28.4951 50.0407-27.9037L31.591-12.6144C30.0756-11.3587 29.9721-9.33435 31.591-7.98575L50.0407 7.30354C50.7673 7.89494 51.6893 8.21601 52.5606 8.21601C54.5619 8.21601 55.7437 7.14828 55.7437 5.16809ZM112.517-36.9283C110.174-36.9283 108.433-35.135 108.433-32.7715L108.433-28.1313C108.433-19.7659 102.607-14.3032 93.7948-14.3032L48.5269-14.3032C46.2774-14.3032 44.4323-12.4581 44.4323-10.2709C44.4323-8.02141 46.2774-6.18692 48.5269-6.18692L93.0291-6.18692C107.552-6.18692 116.653-14.4071 116.653-27.562L116.653-32.7715C116.653-35.135 114.87-36.9283 112.517-36.9283ZM112.569-47.4744C115.243-47.4744 116.881-49.1229 116.881-51.8382L116.881-74.6036C116.881-77.869 114.776-80.0246 111.594-80.0246C109.045-80.0246 107.5-79.2166 105.521-77.6314L98.9972-72.647C97.9295-71.8179 97.6391-71.0818 97.6391-70.0764C97.6391-68.6148 98.7997-67.5259 100.5-67.5259C101.143-67.5259 101.817-67.754 102.501-68.262L107.685-72.3741L108.205-72.3741L108.205-51.8382C108.205-49.1229 109.853-47.4744 112.569-47.4744Z" />
</svg>