<svg xmlns="http://www.w3.org/2000/svg" viewBox="8.72266 -85.0341 99.6 99.55">
  <path d="M58.4961 14.5128C85.978 14.5128 108.321-7.83049 108.321-35.2606C108.321-62.6908 85.978-85.0341 58.4961-85.0341C31.0659-85.0341 8.72266-62.6908 8.72266-35.2606C8.72266-7.83049 31.0659 14.5128 58.4961 14.5128ZM28.4668-25.7175C25.5415-25.7175 23.9436-26.1727 22.3976-27.9132C22.387-27.9966 22.4081-28.2363 22.4081-28.3609L22.3976-39.944C22.3976-43.9295 25.7208-46.0871 30.0349-43.8366C31.9051-42.7563 33.5989-42.1016 36.2589-42.0911C39.1374-42.1016 41.9431-43.5462 45.3689-47.9582C48.1535-51.5634 51.8707-52.1643 55.8697-49.8485L58.0379-48.6763L53.7685-42.8377C53.3429-42.277 53.4675-41.2705 54.0282-40.7932C54.6407-40.3159 55.606-40.337 56.1351-41.0012L60.5702-47.2126L63.3137-45.5399L59.4076-40.0963C58.8267-39.3803 59.0136-38.5291 59.6261-38.0413C60.3421-37.4604 61.1933-37.5333 61.6812-38.2493L65.8978-44.0868L68.6824-42.4659L64.9949-37.3549C64.5175-36.6389 64.5904-35.85 65.2029-35.3104C65.8671-34.7296 66.7806-34.8542 67.3097-35.5184L71.3289-41.0128C72.4322-40.4711 73.0975-40.45 74.6159-40.4606C76.7976-40.4606 82.614-41.4057 85.1791-41.4057C88.5093-41.3434 90.805-39.9446 92.1717-38.4071C93.9314-36.4575 92.83-33.906 88.9183-31.8319L81.9342-28.2584C78.5622-26.5053 75.956-25.7692 69.9777-25.7692ZM31.7795-18.2007C28.0497-18.2007 24.1707-19.697 22.8433-24.4387C24.6692-23.1429 26.3389-22.8113 28.5396-22.8113L69.9988-22.8113C76.1735-22.8113 79.3596-23.6097 83.2617-25.612L90.2152-29.2583C92.8913-30.6375 93.9716-31.8635 94.4499-33.6166C94.5017-33.2332 94.564-32.8087 94.5017-32.27C94.564-28.5011 92.3737-25.2833 87.628-22.656C81.6669-19.3222 77.2855-18.2007 69.6365-18.2007Z"/>
</svg>