<svg xmlns="http://www.w3.org/2000/svg" viewBox="8.72266 -84.9718 99.6 99.55">
  <path d="M58.4961 14.5751C85.978 14.5751 108.321-7.76818 108.321-35.1983C108.321-62.6285 85.978-84.9718 58.4961-84.9718C31.0659-84.9718 8.72266-62.6285 8.72266-35.1983C8.72266-7.76818 31.0659 14.5751 58.4961 14.5751ZM33.2762-34.8948L33.2762-52.0638C33.2762-55.8001 35.4042-57.8657 39.2027-57.8657L55.6562-57.8657L55.6562-62.4144C55.6562-63.9278 56.9309-65.2131 58.4443-65.2131C60.0095-65.2131 61.2842-63.9278 61.2842-62.4144L61.2842-57.8657L77.7377-57.8657C81.5363-57.8657 83.6124-55.8001 83.6124-52.0638L83.6124-34.8948C83.6124-31.1691 81.5363-29.1447 77.7377-29.1447L61.2842-29.1447L61.2842-10.7704L69.2653-10.7704C70.7892-10.7704 72.0534-9.47459 72.0534-7.98228C72.0534-6.47942 70.7892-5.18357 69.2653-5.18357L47.6646-5.18357C46.1618-5.18357 44.8765-6.46887 44.8765-7.98228C44.8765-9.48514 46.1618-10.7704 47.6646-10.7704L55.6562-10.7704L55.6562-29.1447L39.2027-29.1447C35.4042-29.1447 33.2762-31.1691 33.2762-34.8948ZM50.2613-40.2375C49.1408-38.609 49.691-37.2298 51.7853-37.2298L65.2587-37.2298C67.2494-37.2298 67.8513-38.609 66.7414-40.2375L60.114-49.6696C59.2322-50.9664 57.8117-50.9559 56.8782-49.6696Z"/>
</svg>