<svg xmlns="http://www.w3.org/2000/svg" viewBox="12.4609 -88.0981 105.08 106">
  <path d="M68.2252-55.3675L112.881-55.3675C111.128-71.0386 97.5692-88.0981 74.4918-88.0981C70.7767-88.0981 68.2252-85.4124 68.2252-81.543ZM55.7598-18.0987L86.893-18.0987C106.9-18.0987 112.34-30.7566 113.047-42.6477L114.136-42.6477C116.011-42.6477 117.545-44.1812 117.545-46.0569C117.545-47.9738 116.011-49.5179 114.136-49.5179L28.4276-49.5179C26.5624-49.5179 25.0184-47.9738 25.0184-46.0569C25.0184-44.1812 26.5624-42.6477 28.4276-42.6477L29.6365-42.6477L31.7031-34.4039C34.2546-24.4181 41.9889-18.0987 55.7598-18.0987ZM46.2171-45.7886L56.5788-45.7886L30.6339-71.723C29.4827-72.8329 28.2914-73.3303 26.7041-73.3303L16.1289-73.3303C14.1603-73.3303 12.4609-71.631 12.4609-69.6624C12.4609-67.6314 14.1603-65.9427 16.1289-65.9427L26.0218-65.9427ZM45.6734-6.0141L50.7513-0.666916L69.5804-19.496L64.2955-24.6362ZM91.8553-0.0458722L97.2025-5.18604L78.6216-23.7046L72.7156-19.1855ZM52.223 7.20458L90.1163 7.20458L90.1163 0.800214L52.223 0.800214ZM41.2794 17.8979C49.0108 17.8979 55.1126 11.7855 55.1126 4.0024C55.1126-3.79123 49.0108-9.84133 41.2794-9.84133C33.4858-9.84133 27.3839-3.79123 27.3839 4.0024C27.3839 11.7855 33.4858 17.8979 41.2794 17.8979ZM41.2794 11.483C37.0819 11.483 33.7883 8.18936 33.7883 4.0024C33.7883-0.195124 37.0819-3.48872 41.2794-3.48872C45.4664-3.48872 48.7082-0.195124 48.7082 4.0024C48.7082 8.18936 45.4664 11.483 41.2794 11.483ZM100.717 16.9146C107.837 16.9146 113.577 11.1644 113.577 4.0024C113.577-3.11844 107.837-8.86857 100.717-8.86857C93.544-8.86857 87.8045-3.11844 87.8045 4.0024C87.8045 11.1644 93.5958 16.9146 100.717 16.9146ZM100.717 11.483C96.5297 11.483 93.2361 8.18936 93.2361 4.0024C93.2361-0.195124 96.5297-3.48872 100.717-3.48872C104.904-3.48872 108.208-0.195124 108.208 4.0024C108.208 8.18936 104.904 11.483 100.717 11.483Z"/>
</svg>