<svg xmlns="http://www.w3.org/2000/svg" viewBox="12.4609 -107.094 173.15 111.52">
  <path d="M62.9906-6.74767L138.307-6.74767L138.307-14.5906L62.9906-14.5906ZM51.2944 4.42397C60.6361 4.42397 67.9639-2.90388 67.9639-12.2973C67.9639-21.6802 60.6361-29.0186 51.2944-29.0186C41.9115-29.0186 34.5731-21.6802 34.5731-12.2973C34.5731-2.90388 41.9115 4.42397 51.2944 4.42397ZM51.2944-3.4707C46.3146-3.4707 42.4266-7.31749 42.4266-12.2973C42.4266-17.2772 46.3146-21.1134 51.2944-21.1134C56.2742-21.1134 60.121-17.2772 60.121-12.2973C60.121-7.31749 56.2742-3.4707 51.2944-3.4707ZM149.868 4.42397C159.251 4.42397 166.59-2.90388 166.59-12.2973C166.59-21.6802 159.251-29.0186 149.868-29.0186C140.527-29.0186 133.199-21.6802 133.199-12.2973C133.199-2.90388 140.527 4.42397 149.868 4.42397ZM149.868-3.4707C144.94-3.4707 141.042-7.31749 141.042-12.2973C141.042-17.2772 144.94-21.1134 149.868-21.1134C154.838-21.1134 158.736-17.2772 158.736-12.2973C158.736-7.31749 154.838-3.4707 149.868-3.4707ZM24.9119-6.74767L40.1157-6.74767L40.1157-14.5906L25.3259-14.5906C22.2056-14.5906 20.3144-16.7511 20.3144-20.4829L20.3144-27.8474C20.3144-36.6163 26.1605-41.5499 38.3667-43.0768L58.2379-45.5891L79.4375-58.7746C80.8459-59.7026 82.2322-60.4428 83.1738-60.9125L83.1738-69.9257C80.6057-68.669 78.0176-67.2245 75.2415-65.478L55.5648-53.1733L37.3929-50.9303C20.7128-48.8647 12.4609-41.2359 12.4609-27.8474L12.4609-19.4996C12.4609-11.5296 17.1182-6.74767 24.9119-6.74767ZM160.768-6.74767L173.167-6.74767C181.757-6.74767 185.608-11.1261 185.608-20.8432L185.608-41.6876C185.608-47.7301 183.387-54.755 179.525-60.2991L177.303-63.5179C171.689-71.6642 164.825-74.9558 153.461-74.9558L131.193-74.9558L131.193-67.0611L153.461-67.0611C161.946-67.0611 166.819-64.7338 170.817-59.0525L173.039-55.8749C175.979-51.5634 177.754-46.3212 177.754-41.6876L177.754-20.3362C177.754-16.4301 176.195-14.5906 172.753-14.5906L160.768-14.5906ZM96.005-57.5828L118.155-57.5828C122.285-57.5828 124.412-59.7615 124.412-64.2032L124.412-81.2194C124.412-85.6199 122.285-87.788 118.155-87.788L96.005-87.788C91.8748-87.788 89.7374-85.6199 89.7374-81.2194L89.7374-64.2032C89.7374-59.7615 91.8748-57.5828 96.005-57.5828ZM94.0279-83.8352L99.2936-83.8352L99.2936-93.5899C99.2936-98.5974 102.338-101.818 107.106-101.818C111.832-101.818 114.907-98.5974 114.907-93.5899L114.907-83.8352L120.184-83.8352L120.184-92.7619C120.184-101.531 115.066-107.094 107.106-107.094C99.1348-107.094 94.0279-101.531 94.0279-92.7619Z"/>
</svg>