<svg xmlns="http://www.w3.org/2000/svg" viewBox="11.9117 -96.3585 163.67 122.21">
  <path d="M29.4702-73.0203L39.8038-90.8033C41.483-93.7573 39.1204-96.3585 36.0936-95.7787L20.4114-92.8785C18.2021-92.5056 17.2474-90.835 17.9845-88.7503L23.3447-73.7247C24.3818-70.7813 27.7603-70.0769 29.4702-73.0203ZM13.0101-53.7687C11.9117-51.8106 12.5644-49.4068 14.3778-48.3707L141.006 24.7599C142.798 25.8478 145.243 25.2056 146.279 23.3616C147.377 21.4236 146.714 19.0304 144.922 17.9426L18.2835-55.1881C16.4912-56.2137 14.0462-55.5715 13.0101-53.7687ZM59.6232-40.5224C64.7437-37.6036 71.1104-39.3069 74.0809-44.4274C77.0514-49.4962 75.2963-55.9146 70.2275-58.8851C65.1588-61.8039 58.6781-60.1006 55.7698-54.98C52.8511-49.9113 54.5544-43.4823 59.6232-40.5224ZM128.617-0.704112C133.738 2.21466 140.167 0.51133 143.075-4.55745C146.045-9.67799 144.29-16.0964 139.221-19.0151C134.153-21.9339 127.683-20.2306 124.764-15.1618C121.845-10.0413 123.548-3.61233 128.617-0.704112ZM175.113-32.8051L174.864-35.951C174.21-43.921 170.721-48.9782 162.771-53.5963L136.015-69.0459C121.905-77.1857 115.522-79.0749 104.05-78.6388L85.2867-77.9534L71.6008-83.7478C59.0519-89.0723 50.1981-87.0796 44.77-77.6766L41.3749-71.8104C38.1888-66.2271 39.5269-60.9784 44.975-57.8652L50.5413-54.6148C50.8528-55.5282 51.2678-56.3899 51.7557-57.3034C56.002-64.571 65.2211-67.0315 72.5509-62.837C79.829-58.653 82.2895-49.3822 78.095-42.1041C77.5448-41.1906 76.9946-40.4017 76.3821-39.7164L119.535-14.7448C119.847-15.6582 120.262-16.5717 120.75-17.4334C124.944-24.701 134.267-27.2133 141.545-23.0187C148.823-18.8348 151.283-9.56393 147.089-2.28584C146.601-1.37237 145.989-0.583509 145.376 0.143045L148.99 2.20965C154.997 5.67461 159.469 4.16019 163.389-2.63255L171.822-17.235C174.283-21.4918 175.58-27.3339 175.113-32.8051Z" />
</svg>