<svg xmlns="http://www.w3.org/2000/svg" viewBox="12.4609 -80.1648 115.09 89.91">
  <path d="M104.919-11.1859C109.009-11.1859 111.739-13.8851 111.739-18.0269C111.739-22.0028 109.009-24.6809 104.919-24.6809L102.455-24.6809L102.455-29.8517L104.919-29.8517C109.009-29.8517 111.739-32.5298 111.739-36.5575C111.739-40.5957 109.009-43.3467 104.919-43.3467C100.891-43.3467 98.2133-40.5957 98.2133-36.5575L98.2133-34.1035L93.1892-34.1035L93.1892-36.5575C93.1892-40.5957 90.5629-43.3467 86.4834-43.3467C82.4452-43.3467 79.7153-40.5957 79.7153-36.5575C79.7153-32.5298 82.4452-29.8517 86.4834-29.8517L88.8962-29.8517L88.8962-24.6809L86.4834-24.6809C82.4452-24.6809 79.7153-22.0028 79.7153-18.0269C79.7153-13.8851 82.4452-11.1859 86.4834-11.1859C90.5629-11.1859 93.1892-13.8851 93.1892-18.0269L93.1892-20.4291L98.2133-20.4291L98.2133-18.0269C98.2133-13.8851 100.891-11.1859 104.919-11.1859ZM102.455-20.502L104.919-20.502C106.479-20.502 107.446-19.5242 107.446-18.0269C107.446-16.4673 106.479-15.4377 104.919-15.4377C103.463-15.4377 102.455-16.4673 102.455-18.0269ZM88.8962-20.502L88.8962-18.0269C88.8962-16.5708 87.8878-15.4377 86.4834-15.4377C84.9238-15.4377 83.9566-16.4673 83.9566-18.0269C83.9566-19.5242 84.9238-20.502 86.4834-20.502ZM98.2133-24.6186L93.1892-24.6186L93.1892-29.8622L98.2133-29.8622ZM102.455-34.0306L102.455-36.5575C102.455-38.0654 103.463-39.0949 104.919-39.0949C106.479-39.0949 107.446-38.0654 107.446-36.5575C107.446-35.0602 106.479-34.0306 104.919-34.0306ZM88.8962-34.0306L86.4834-34.0306C84.9238-34.0306 83.9566-35.0602 83.9566-36.5575C83.9566-38.0654 84.9238-39.0949 86.4834-39.0949C87.9396-39.0949 88.8962-38.0654 88.8962-36.5575ZM31.4614-39.2979C31.4614-37.681 32.7467-36.3957 34.3119-36.3957L64.101-36.3957C65.6661-36.3957 66.9409-37.681 66.9409-39.2979C66.9409-40.9043 65.6661-42.1896 64.101-42.1896L34.3119-42.1896C32.7467-42.1896 31.4614-40.9043 31.4614-39.2979ZM31.4614-27.251C31.4614-25.6341 32.7467-24.3488 34.3119-24.3488L64.101-24.3488C65.6661-24.3488 66.9409-25.6341 66.9409-27.251C66.9409-28.8574 65.6661-30.1426 64.101-30.1426L34.3119-30.1426C32.7467-30.1426 31.4614-28.8574 31.4614-27.251ZM31.4614-15.1418C31.4614-13.5354 32.7467-12.2501 34.3119-12.2501L64.101-12.2501C65.6661-12.2501 66.9409-13.5354 66.9409-15.1418C66.9409-16.7587 65.6661-18.0957 64.101-18.0957L34.3119-18.0957C32.7467-18.0957 31.4614-16.7587 31.4614-15.1418ZM33.0592 9.74698L108.184 9.74698C120.482 9.74698 127.551 2.27442 127.551-10.9031L127.551-59.5147C127.551-72.6922 120.482-80.1648 108.184-80.1648L33.0592-80.1648C19.9335-80.1648 12.4609-72.6922 12.4609-59.5147L12.4609-10.9031C12.4609 2.27442 19.9335 9.74698 33.0592 9.74698ZM33.0803 1.84176C24.9998 1.84176 20.3144-2.79189 20.3144-10.9242L20.3144-59.4936C20.3144-67.6259 24.9998-72.2595 33.0803-72.2595L106.931-72.2595C115.064-72.2595 119.697-67.6259 119.697-59.4936L119.697-10.9242C119.697-2.79189 115.064 1.84176 106.931 1.84176ZM34.0636-54.4474C36.5011-54.4474 38.4411-56.5015 38.4411-58.7836C38.4411-61.1176 36.5011-63.1611 34.0636-63.1611C31.6674-63.1611 29.7274-61.1176 29.7274-58.7836C29.7274-56.5015 31.6674-54.4474 34.0636-54.4474ZM48.1018-54.4474C50.4981-54.4474 52.438-56.4909 52.438-58.7836C52.438-61.1176 50.4981-63.1611 48.1018-63.1611C45.7162-63.1611 43.7244-61.1176 43.7244-58.7836C43.7244-56.4909 45.7162-54.4474 48.1018-54.4474ZM62.0988-54.458C64.4845-54.458 66.4762-56.4909 66.4762-58.7836C66.4762-61.1176 64.4845-63.1611 62.0988-63.1611C59.7026-63.1611 57.7626-61.1176 57.7626-58.7836C57.7626-56.4909 59.7026-54.458 62.0988-54.458Z"/>
</svg>