<svg xmlns="http://www.w3.org/2000/svg" viewBox="3.65487 -87.5725 99.77 104.67">
  <path d="M27.6236-87.5725C23.5191-87.5725 20.2782-86.6148 17.9116-84.8452L24.1693-78.5463C25.1059-79.3105 26.3886-79.719 28.0587-79.719L79.0501-79.719C84.1229-79.719 86.7427-77.0063 86.7427-72.1299L86.7427-16.0247L94.5856-8.1712L94.5856-72.2545C94.5856-82.4348 89.562-87.5725 79.4747-87.5725ZM27.6236 17.0934L79.4747 17.0934C83.6415 17.0934 86.8929 16.1875 89.249 14.4178L83.0019 8.17073C82.0442 8.9043 80.7202 9.23993 79.0501 9.23993L28.0587 9.23993C22.9754 9.23993 20.3662 6.52717 20.3662 1.65084L20.3662-54.4238L12.5127-62.2772L12.5127 1.77545C12.5127 12.0075 17.5468 17.0934 27.6236 17.0934ZM43.5014-59.3072L72.0549-59.3072C73.7858-59.3072 75.1123-60.6442 75.1123-62.3647C75.1123-64.0228 73.7858-65.3081 72.0549-65.3081L37.4593-65.3081ZM60.5115-42.2452L72.0549-42.2452C73.7858-42.2452 75.1123-43.634 75.1123-45.3439C75.1123-46.9608 73.7858-48.2979 72.0549-48.2979L54.5212-48.2979ZM35.0434-25.2351L49.6066-25.2351L43.6163-31.2359L35.0434-31.2359C33.2712-31.2359 31.9859-29.8989 31.9859-28.1785C31.9859-26.5204 33.2712-25.2351 35.0434-25.2351ZM96.6356 13.1777C98.1691 14.649 100.521 14.649 101.951 13.1777C103.392 11.6854 103.422 9.29221 101.951 7.81046L10.4416-83.699C8.98096-85.1597 6.57719-85.1808 5.08488-83.699C3.65487-82.269 3.65487-79.8135 5.08488-78.3835Z"/>
</svg>