<svg xmlns="http://www.w3.org/2000/svg" viewBox="11.2148 -83.3845 95.39 96.3">
  <path d="M11.2148-44.4234C11.2148-22.9238 28.6868-5.50358 50.1865-5.50358C58.6503-5.50358 66.4183-8.20478 72.8041-12.8173L96.836 11.277C97.9862 12.3859 99.4478 12.915 100.972 12.915C104.269 12.915 106.601 10.4162 106.601 7.17185C106.601 5.61724 105.989 4.21789 105.025 3.13961L81.0967-20.8406C86.1348-27.3922 89.0958-35.534 89.0958-44.4234C89.0958-65.9125 71.6756-83.3845 50.1865-83.3845C28.6868-83.3845 11.2148-65.9125 11.2148-44.4234ZM19.5753-44.4234C19.5753-61.3437 33.2557-75.0241 50.1865-75.0241C67.0549-75.0241 80.7871-61.3437 80.7871-44.4234C80.7871-27.5444 67.0549-13.8123 50.1865-13.8123C33.2557-13.8123 19.5753-27.5444 19.5753-44.4234ZM34.7741-47.5532L65.7149-47.5532C67.6423-47.5532 69.1241-49.0973 69.1241-50.9624C69.1241-52.8899 67.6423-54.3716 65.7149-54.3716L34.7741-54.3716C32.8055-54.3716 31.3649-52.8899 31.3649-50.9624C31.3649-49.0973 32.8055-47.5532 34.7741-47.5532ZM34.7741-34.5376L57.249-34.5376C59.1659-34.5376 60.7099-36.0193 60.7099-37.895C60.7099-39.8119 59.1659-41.356 57.249-41.356L34.7741-41.356C32.8055-41.356 31.3649-39.8119 31.3649-37.895C31.3649-36.0193 32.8055-34.5376 34.7741-34.5376Z"/>
</svg>