<svg xmlns="http://www.w3.org/2000/svg" viewBox="11.1324 -93.8874 102.49 116.77">
  <path d="M23.3256 4.07071L101.373 4.07071C109.395 4.07071 113.618-0.776502 111.812-8.10435L98.0646-64.1394C96.2799-71.3512 91.7452-75.0663 84.6877-75.0663L39.9589-75.0663C32.9014-75.0663 28.4185-71.3512 26.6443-64.1394L12.8348-8.10435C11.1324-0.776502 15.3038 4.07071 23.3256 4.07071ZM62.3856 22.8813C60.0854 22.8813 58.7071 21.41 58.7071 18.9545L58.7071-89.9501C58.7071-92.4057 60.0854-93.8874 62.3856-93.8874C64.6648-93.8874 66.0948-92.4057 66.0948-89.9501L66.0948 18.9545C66.0948 21.41 64.6648 22.8813 62.3856 22.8813Z"/>
</svg>