<svg xmlns="http://www.w3.org/2000/svg" viewBox="7.14494 -93.9225 95.2 108.69">
  <path d="M90.159-17.3546L92.4873-67.7324L98.355-67.7324C100.386-67.7324 101.971-69.38 101.971-71.4004C101.971-73.4419 100.324-75.0683 98.355-75.0683L76.0841-75.0683L76.0841-82.5288C76.0841-89.5853 71.4871-93.9225 63.9427-93.9225L45.4016-93.9225C37.9194-93.9225 33.3225-89.5853 33.3225-82.5394L33.3225-76.1034L31.4619-76.1034L39.8013-67.7324L84.654-67.7324L82.6572-24.8247ZM41.1242-75.0683L41.1242-82.0113C41.1242-84.8401 43.0682-86.6384 46.0015-86.6384L63.4357-86.6384C66.3384-86.6384 68.2824-84.8401 68.2824-82.0113L68.2824-75.0683ZM32.3849 14.768L77.1252 14.768C82.3578 14.768 86.077 12.2708 87.8682 8.24967L87.9104 7.16691L81.5061 0.762552L81.4428 2.39095C81.4111 5.22832 79.2898 7.43209 76.3383 7.43209L33.0471 7.43209C30.2615 7.43209 28.1402 5.32127 28.005 2.44271L25.1676-55.5865L17.1684-63.5751L20.3585 3.30242C20.7113 10.3147 25.2997 14.768 32.3849 14.768ZM57.869-49.6752L57.869-56.0161C57.869-57.7365 56.6048-58.8972 54.7292-58.8972C53.8368-58.8972 52.9349-58.554 52.3656-57.8687L52.3656-55.1892ZM73.1558-34.399L73.7386-56.0056C73.7904-57.7365 72.5674-58.8867 70.7023-58.8867C68.9406-58.8867 67.7071-57.7365 67.6553-56.0267L67.1866-40.3165ZM40.2629-0.947858C42.1492-0.947858 43.351-2.11909 43.2993-3.82897L42.2698-38.422L36.0312-44.6711L37.2266-3.81842C37.2783-2.05679 38.4907-0.947858 40.2629-0.947858ZM54.7292-0.947858C56.6048-0.947858 57.869-2.10854 57.869-3.82897L57.869-22.8227L51.5893-29.1025L51.5893-3.82897C51.5893-2.05679 52.864-0.947858 54.7292-0.947858ZM69.2366-0.926756C70.9676-0.926756 72.2318-2.04624 72.2835-3.80786L72.4197-8.3344L66.5022-14.2413L66.2002-3.81842C66.1485-2.10854 67.3609-0.926756 69.2366-0.926756ZM95.5573 6.74427C97.0391 8.22602 99.4428 8.22602 100.873 6.74427C102.303 5.26251 102.344 2.91049 100.873 1.43929L13.9317-85.5536C12.471-87.0248 10.0567-87.0459 8.57494-85.5536C7.14494-84.1236 7.14494-81.6681 8.57494-80.2486Z"/>
</svg>