<svg xmlns="http://www.w3.org/2000/svg" viewBox="12.4609 -107.094 185.11 111.52">
  <path d="M60.8792-6.74767L140.729-6.74767L140.729-14.5906L60.8792-14.5906ZM49.183 4.42397C58.5765 4.42397 65.8526-2.90388 65.8526-12.2973C65.8526-21.6802 58.5765-29.0186 49.183-29.0186C39.8001-29.0186 32.4617-21.6802 32.4617-12.2973C32.4617-2.90388 39.8001 4.42397 49.183 4.42397ZM49.183-3.4707C44.2032-3.4707 40.367-7.31749 40.367-12.2973C40.367-17.2772 44.2032-21.1134 49.183-21.1134C54.1629-21.1134 58.0097-17.2772 58.0097-12.2973C58.0097-7.31749 54.1629-3.4707 49.183-3.4707ZM152.228 4.42397C161.57 4.42397 168.898-2.90388 168.898-12.2973C168.898-21.6802 161.57-29.0186 152.228-29.0186C142.845-29.0186 135.507-21.6802 135.507-12.2973C135.507-2.90388 142.845 4.42397 152.228 4.42397ZM152.228-3.4707C147.248-3.4707 143.36-7.31749 143.36-12.2973C143.36-17.2772 147.248-21.1134 152.228-21.1134C157.208-21.1134 161.055-17.2772 161.055-12.2973C161.055-7.31749 157.208-3.4707 152.228-3.4707ZM24.9119-6.74767L37.9938-6.74767L37.9938-14.5906L25.3259-14.5906C22.2056-14.5906 20.3144-16.7511 20.3144-20.4829L20.3144-30.321C20.3144-37.2785 24.7631-41.0323 34.9203-42.5593L54.8327-45.5891L76.3162-58.9635C78.0542-60.0458 81.1674-61.727 83.329-62.6827C83.2773-63.2942 83.1738-63.7916 83.1738-64.4031L83.1738-71.2512C79.7998-70.0156 75.2153-67.63 72.1202-65.6774L52.1596-53.1733L33.936-50.361C19.1602-48.1402 12.4609-41.7534 12.4609-30.321L12.4609-19.4996C12.4609-11.5296 17.1182-6.74767 24.9119-6.74767ZM165.237-6.74767L185.12-6.74767C192.903-6.74767 197.571-11.5296 197.571-19.4996L197.571-39.6496C197.571-47.5679 192.903-52.4015 185.12-52.4015L145.088-52.4015L144.193-60.4086C143.176-69.0122 138.794-73.8278 132.323-74.5418L131.193-74.5935L131.193-67.6756C131.193-67.0948 131.193-66.4517 131.193-65.9226L132.219-65.7155C134.494-64.8463 135.975-62.6204 136.35-59.3409L137.98-44.5068L184.706-44.5068C187.878-44.5068 189.718-42.3357 189.718-38.6663L189.718-20.4829C189.718-16.7511 187.878-14.5906 184.706-14.5906L165.237-14.5906ZM96.3156-57.5828L118.414-57.5828C122.533-57.5828 124.723-59.7615 124.723-64.2032L124.723-81.2194C124.723-85.6199 122.533-87.788 118.414-87.788L96.3156-87.788C92.1854-87.788 90.0479-85.6199 90.0479-81.2194L90.0479-64.2032C90.0479-59.7615 92.1854-57.5828 96.3156-57.5828ZM114.038-83.8352L119.356-83.8352L119.356-93.5899C119.356-98.5974 122.348-101.818 127.116-101.818C131.843-101.818 134.866-98.5974 134.866-93.5899L134.866-88.1282C134.866-86.6666 136.048-85.4953 137.51-85.4953C138.961-85.4953 140.194-86.6666 140.194-88.1282L140.194-92.7619C140.194-101.531 135.077-107.094 127.116-107.094C119.145-107.094 114.038-101.531 114.038-92.7619Z"/>
</svg>