<svg xmlns="http://www.w3.org/2000/svg" viewBox="8.72266 -85.0341 99.6 99.55">
  <path d="M58.4961 14.5128C85.9991 14.5128 108.321-7.75763 108.321-35.2606C108.321-62.7637 85.9991-85.0341 58.4961-85.0341C31.0448-85.0341 8.72266-62.7637 8.72266-35.2606C8.72266-7.75763 31.0448 14.5128 58.4961 14.5128ZM58.4961 6.24529C35.5514 6.24529 17.0314-12.316 17.0314-35.2606C17.0314-58.2053 35.5514-76.7666 58.4961-76.7666C81.4408-76.7666 100.002-58.2053 100.002-35.2606C100.002-12.316 81.4408 6.24529 58.4961 6.24529ZM58.4443-11.9858C60.2376-11.9858 61.3053-13.0641 61.3053-14.7951L61.3053-51.1322L73.1271-51.1322C74.7546-51.1322 75.8223-52.2412 75.8223-53.6511C75.8223-55.175 74.7029-56.1805 73.1271-56.1805L43.7721-56.1805C42.1341-56.1805 41.0663-55.175 41.0663-53.6511C41.0663-52.1377 42.1858-51.1322 43.7721-51.1322L55.5939-51.1322L55.5939-14.7951C55.5939-13.0641 56.7134-11.9858 58.4443-11.9858ZM47.9897-30.1356C48.2801-30.1356 48.5811-30.1979 48.9233-30.2602L69.2929-38.515C70.1019-38.8572 70.4958-39.3652 70.4958-40.1636C70.4958-41.2524 69.7597-41.7604 68.9613-41.7604C68.6709-41.7604 68.3699-41.6981 68.0277-41.5841L47.5546-33.3292C46.7868-32.9765 46.4034-32.4167 46.4034-31.7218C46.4034-30.7998 46.9938-30.1356 47.9897-30.1356ZM47.9897-20.5014C48.2801-20.5014 48.5811-20.5637 48.9233-20.6778L69.2929-28.9327C70.1019-29.2854 70.4958-29.7934 70.4958-30.54C70.4958-31.6701 69.7597-32.1781 68.9613-32.1781C68.6709-32.1781 68.3699-32.1158 68.0277-32.0017L47.5546-23.7468C46.7868-23.3941 46.4034-22.8344 46.4034-22.0983C46.4034-21.2174 46.9938-20.5014 47.9897-20.5014Z" />
</svg>