<svg xmlns="http://www.w3.org/2000/svg" viewBox="12.4609 -86.239 97.51 102.02">
  <path d="M16.3359-23.9066C18.6256-23.9066 20.3144-25.6472 20.3144-27.8334L20.3144-42.6256C20.3144-44.8118 18.6256-46.6041 16.3359-46.6041C14.1392-46.6041 12.4609-44.8118 12.4609-42.6256L12.4609-27.8334C12.4609-25.6472 14.1392-23.9066 16.3359-23.9066ZM32.7793-3.89775C35.0279-3.89775 36.7578-5.67947 36.7578-7.87623L36.7578-45.8212L28.8526-53.6746L28.8526-7.87623C28.8526-5.67947 30.5414-3.89775 32.7793-3.89775ZM49.1816-86.239C46.9848-86.239 45.3066-84.4572 45.3066-82.2605L45.3066-66.8161L53.1495-58.9626L53.1495-82.2605C53.1495-84.4572 51.4195-86.239 49.1816-86.239ZM49.1816 15.78C51.4195 15.78 53.1495 13.9983 53.1495 11.8015L53.1495-29.4813L45.3066-37.2724L45.3066 11.8015C45.3066 13.9983 46.9848 15.78 49.1816 15.78ZM65.625-60.6589C63.387-60.6589 61.6983-58.8666 61.6983-56.6804L61.6983-50.4138L69.5517-42.5709L69.5517-56.6804C69.5517-58.8666 67.863-60.6589 65.625-60.6589ZM65.625-5.62919C67.9147-5.62919 69.5517-7.41092 69.5517-9.55592L69.5517-13.0273L61.6983-20.8807L61.6983-9.55592C61.6983-7.41092 63.4388-5.62919 65.625-5.62919ZM82.0684-75.4196C79.7787-75.4196 78.1417-73.6273 78.1417-71.4411L78.1417-33.9704L85.9952-26.1169L85.9952-71.4411C85.9952-73.6273 84.2652-75.4196 82.0684-75.4196ZM98.4707-50.8132C96.2221-50.8132 94.5439-49.0314 94.5439-46.8347L94.5439-23.6243C94.5439-21.4275 96.2221-19.6976 98.4707-19.6976C100.709-19.6976 102.397-21.4275 102.397-23.6243L102.397-46.8347C102.397-49.0314 100.709-50.8132 98.4707-50.8132ZM103.189 11.1533C104.66 12.6245 107.074 12.6245 108.494 11.1533C109.934 9.66104 109.975 7.31957 108.494 5.83781L20.9917-81.7264C19.5205-83.187 17.065-83.2081 15.5727-81.7264C14.1532-80.2964 14.1532-77.8409 15.5727-76.4109Z"/>
</svg>