<svg xmlns="http://www.w3.org/2000/svg" viewBox="8.72266 -85.0341 99.6 99.55">
  <path d="M58.4961 14.5128C85.9991 14.5128 108.321-7.75763 108.321-35.2606C108.321-62.7637 85.9991-85.0341 58.4961-85.0341C31.0448-85.0341 8.72266-62.7637 8.72266-35.2606C8.72266-7.75763 31.0448 14.5128 58.4961 14.5128ZM58.4961 6.24529C35.5514 6.24529 17.0314-12.316 17.0314-35.2606C17.0314-58.2053 35.5514-76.7666 58.4961-76.7666C81.4408-76.7666 100.002-58.2053 100.002-35.2606C100.002-12.316 81.4408 6.24529 58.4961 6.24529ZM33.6576-28.0861C35.3368-28.0861 36.6528-29.3608 36.6528-30.9777L36.6528-39.627C36.6528-41.2439 35.3368-42.5186 33.6576-42.5186C32.0302-42.5186 30.766-41.2439 30.766-39.627L30.766-30.9777C30.766-29.3608 32.0819-28.0861 33.6576-28.0861ZM43.6158-19.7704C45.2433-19.7704 46.5592-21.0452 46.5592-22.7138L46.5592-47.9426C46.5592-49.5595 45.2433-50.886 43.6158-50.886C41.9366-50.886 40.6724-49.5595 40.6724-47.9426L40.6724-22.7138C40.6724-21.0452 41.9366-19.7704 43.6158-19.7704ZM53.5117-8.2757C55.1392-8.2757 56.4551-9.55045 56.4551-11.2191L56.4551-59.3444C56.4551-61.013 55.1392-62.2878 53.5117-62.2878C51.8325-62.2878 50.5683-61.013 50.5683-59.3444L50.5683-11.2191C50.5683-9.49869 51.7807-8.2757 53.5117-8.2757ZM63.3664-24.2152C65.0456-24.2152 66.3616-25.4899 66.3616-27.1068L66.3616-43.4979C66.3616-45.1148 65.0456-46.3895 63.3664-46.3895C61.7389-46.3895 60.4747-45.1148 60.4747-43.4979L60.4747-27.1068C60.4747-25.4899 61.7389-24.2152 63.3664-24.2152ZM73.2623-15.0855C74.9415-15.0855 76.2575-16.412 76.2575-18.0289L76.2575-52.6276C76.2575-54.2445 74.9415-55.5192 73.2623-55.5192C71.6348-55.5192 70.3706-54.2445 70.3706-52.6276L70.3706-18.0289C70.3706-16.412 71.6348-15.0855 73.2623-15.0855ZM83.2205-26.137C84.8997-26.137 86.1639-27.36 86.1639-29.0287L86.1639-41.576C86.1639-43.2447 84.8997-44.4676 83.2205-44.4676C81.5413-44.4676 80.2771-43.1929 80.2771-41.576L80.2771-29.0287C80.2771-27.4118 81.5413-26.137 83.2205-26.137Z" />
</svg>