<svg xmlns="http://www.w3.org/2000/svg" viewBox="12.4609 -77.8459 112.63 85.17">
  <path d="M53.4173-77.8459C25.1199-77.8459 12.4609-64.8273 12.4609-38.1729L12.4609-7.48431C12.4609 2.31162 17.5257 7.32464 27.4769 7.32464L110.076 7.32464C119.976 7.32464 125.092 2.29052 125.092-7.48431L125.092-38.1729C125.092-64.8273 112.433-77.8459 84.1254-77.8459ZM53.4489-69.9407L84.1043-69.9407C107.15-69.9407 117.187-59.9574 117.187-38.6588L117.187-7.91944C117.187-3.00291 114.578-0.580574 109.9-0.580574L27.6533-0.580574C22.8814-0.580574 20.3144-3.00291 20.3144-7.91944L20.3144-38.6588C20.3144-59.9574 30.3932-69.9407 53.4489-69.9407ZM44.5454-15.2925L62.0369-15.2925C63.6538-15.2925 64.9909-16.6401 64.9909-18.257C64.9909-19.8739 63.6538-21.2733 62.0369-21.2733L48.9399-21.2733L48.9399-21.5742L63.5187-48.5426C64.0161-49.455 64.3688-50.2228 64.3688-51.394C64.3688-53.4461 62.98-54.856 60.7928-54.856L43.9454-54.856C42.318-54.856 40.9704-53.5084 40.9704-51.902C40.9704-50.2745 42.318-48.9269 43.9454-48.9269L56.5229-48.9269L56.5229-48.626L41.7266-21.5954C41.208-20.5583 40.9799-19.781 40.9799-18.6509C40.9799-16.5366 42.4828-15.2925 44.5454-15.2925ZM74.925-14.7951C77.1323-14.7951 78.4693-16.2979 78.4693-18.557L78.4693-30.5325L83.0793-30.5325L88.1742-17.7375C88.8998-15.9241 89.957-14.7951 91.9256-14.7951C93.5224-14.7951 95.2629-15.7804 95.2629-18.2771C95.2629-18.8368 94.9419-19.8212 94.455-20.9397L89.847-32.0047C93.7827-34.0789 95.4689-38.303 95.4689-42.7106C95.4689-50.6605 90.7368-54.8876 83.1482-54.8876L74.8627-54.8876C72.5825-54.8876 71.2665-53.4988 71.2665-51.2292L71.2665-18.557C71.2665-16.3497 72.6036-14.7951 74.925-14.7951ZM78.4693-35.7782L78.4693-49.2797L82.4744-49.2797C86.2061-49.2797 88.2662-46.4549 88.2662-42.5965C88.2662-38.6779 86.4774-35.7782 82.4849-35.7782Z"/>
</svg>