<svg xmlns="http://www.w3.org/2000/svg" viewBox="8.72266 -86.8071 103.12 103.09">
  <path d="M60.2692 16.2859C88.7361 16.2859 111.844-6.82236 111.844-35.2606C111.844-63.6989 88.7361-86.8071 60.2692-86.8071C31.8309-86.8071 8.72266-63.6989 8.72266-35.2606C8.72266-6.82236 31.8309 16.2859 60.2692 16.2859ZM44.9534-14.2473C34.8483-14.2473 31.7785-25.2586 31.7785-35.2606C31.7785-45.2627 34.8483-56.274 44.9534-56.274C55.0819-56.274 58.1283-45.2627 58.1283-35.2606C58.1283-25.2586 55.0819-14.2473 44.9534-14.2473ZM44.9534-21.2316C48.0865-21.2316 49.2943-26.8108 49.2943-35.2606C49.2943-43.7105 48.0865-49.2897 44.9534-49.2897C41.7865-49.2897 40.5839-43.7105 40.5839-35.2606C40.5839-26.8108 41.7865-21.2316 44.9534-21.2316ZM72.6613-29.2116C66.3007-29.2116 63.4371-35.5383 63.4371-42.0286C63.4371-49.7137 67.7034-56.1882 75.446-56.1882C85.7776-56.1882 88.6753-44.6818 88.6753-35.5042C88.6753-25.1937 85.6656-14.2525 75.3501-14.2525C70.4504-14.2525 66.1761-16.5369 64.9873-21.0176C64.8187-21.6172 64.7227-22.3932 64.7227-22.9386C64.7227-24.8346 65.7019-26.5386 68.2317-26.5386C69.9928-26.5386 71.1436-25.8503 72.0031-24.0378C72.8909-22.1625 73.9184-21.0991 75.602-21.0991C79.5074-21.0991 80.4518-27.907 80.4518-34.1357C80.4518-34.6805 80.4518-35.2722 80.4518-35.8691L80.322-35.8691C79.3352-32.0246 76.687-29.2116 72.6613-29.2116ZM75.5603-35.5337C78.2436-35.5337 79.5377-38.601 79.5377-42.286C79.5377-46.0176 78.3213-49.2897 75.5603-49.2897C73.0047-49.2897 71.6892-46.0565 71.6892-42.3717C71.6892-38.7257 72.8902-35.5337 75.5603-35.5337Z"/>
</svg>