<svg xmlns="http://www.w3.org/2000/svg" viewBox="8.72266 -86.8071 103.12 103.09">
  <path d="M60.2692 16.2859C88.7361 16.2859 111.844-6.82236 111.844-35.2606C111.844-63.6989 88.7361-86.8071 60.2692-86.8071C31.8309-86.8071 8.72266-63.6989 8.72266-35.2606C8.72266-6.82236 31.8309 16.2859 60.2692 16.2859ZM45.0672-14.3433C39.5633-14.3433 34.4446-16.7961 33.079-21.428C32.7726-22.2329 32.6429-23.1542 32.6429-24.1203C32.6429-26.4449 34.1651-27.8916 36.5418-27.8916C38.4715-27.8916 39.7833-26.9073 40.3936-24.9726C41.0064-23.0269 42.3086-21.1563 45.0438-21.1563C48.1759-21.1563 49.5201-23.873 49.5201-26.6834C49.5201-30.4436 47.7141-32.481 44.0001-32.481L43.1185-32.481C40.9809-32.481 39.8536-33.6418 39.8536-35.5225C39.8536-37.4031 40.9941-38.5978 43.1185-38.5978L43.9378-38.5978C47.2236-38.5978 48.6896-41.2344 48.6896-44.2346C48.6896-46.9386 47.5507-49.313 44.8803-49.313C42.5635-49.313 41.3258-47.4688 40.7024-45.1927C40.2011-43.2344 38.6713-42.5878 36.8557-42.5878C34.3025-42.5878 33.2426-44.3437 33.2426-46.0683C33.2426-46.967 33.3334-47.8678 33.6164-48.7555C35.0106-53.3403 39.7398-56.0922 44.8232-56.0922C51.7789-56.0922 56.8846-52.118 56.8846-45.1749C56.8846-40.6578 54.2573-36.9169 50.4901-35.9381L50.4901-35.6991C54.7648-35.2059 58.0633-31.8661 58.0633-26.2079C58.0633-18.8579 52.5868-14.3433 45.0672-14.3433ZM75.3057-14.2473C70.3892-14.2473 65.9567-17.1927 64.4346-21.2366C64.1435-22.1589 63.8992-23.1069 63.8992-24.1385C63.8992-26.2917 65.1928-27.6527 67.3747-27.6527C69.0265-27.6527 70.32-26.741 71.0214-24.848C71.7071-22.767 72.9338-21.0887 75.1343-21.0887C78.1806-21.0887 79.1195-25.2515 79.1195-28.5526C79.1195-31.7834 78.0717-35.7436 75.1212-35.7436C73.5176-35.7436 72.4567-34.6566 71.6053-33.3024C70.6596-31.8687 69.7713-31.3599 68.1795-31.3599C65.6207-31.3599 64.3458-33.1213 64.3458-35.6274C64.3458-36.173 64.3795-37.141 64.4132-37.694L65.0254-50.4588C65.1787-53.3056 66.454-55.1833 69.3111-55.1833L82.7336-55.1833C84.7622-55.1833 86.0089-53.7651 86.0089-51.7314C86.0089-49.7833 84.8816-48.2795 82.7336-48.2795L72.1139-48.2795L71.4445-37.5644L71.6834-37.5644C72.6646-39.9626 74.9748-41.7798 78.3058-41.7798C84.7131-41.7798 87.4341-35.1861 87.4341-28.7863C87.4341-20.7658 83.2587-14.2473 75.3057-14.2473Z"/>
</svg>