<svg xmlns="http://www.w3.org/2000/svg" viewBox="8.72266 -86.8071 103.12 103.09">
  <path d="M60.2692 16.2859C88.7361 16.2859 111.844-6.82236 111.844-35.2606C111.844-63.6989 88.7361-86.8071 60.2692-86.8071C31.8309-86.8071 8.72266-63.6989 8.72266-35.2606C8.72266-6.82236 31.8309 16.2859 60.2692 16.2859ZM50.2316-14.5874C48.1072-14.5874 46.0887-15.8104 46.0887-18.8213L46.0887-22.5324L36.581-22.5324C33.4152-22.5324 31.6099-24.2857 31.6099-27.3452C31.6099-29.0881 31.9968-30.8204 32.771-32.831L39.346-48.3688C40.9123-52.4491 42.6553-55.7778 47.6834-55.7778C51.6474-55.7778 54.3459-53.5073 54.3459-49.4479L54.3459-29.4259L55.4477-29.4259C57.7051-29.4259 58.7516-28.0699 58.7516-26.0078C58.7516-24.1454 57.8865-22.5324 55.4191-22.5324L54.3459-22.5324L54.3459-18.8213C54.3459-15.8781 52.494-14.5874 50.2316-14.5874ZM46.3458-29.1687L46.3458-48.7733L46.1304-48.7733L38.8048-29.5454L38.8048-29.1687ZM66.8451-15.2808C64.1824-15.2808 62.845-16.6316 62.845-18.7275C62.845-20.3358 63.5651-21.6581 65.0532-23.4993L72.5378-33.0301C75.372-36.6632 77.9907-40.4313 77.9907-44.2169C77.9907-47.1424 76.8018-49.4897 74.244-49.4897C71.8699-49.4897 70.9336-47.6063 70.1958-45.0429C69.5619-42.9909 68.24-42.0975 66.4113-42.0975C64.0763-42.0975 62.8217-43.7025 62.8217-45.8923C62.8217-51.2972 67.888-56.2455 74.2675-56.2455C81.2829-56.2455 86.1703-51.6945 86.1703-44.5416C86.1703-39.492 83.9193-35.7692 79.4757-30.368L73.1568-22.5666L73.1568-22.1509L83.5438-22.1509C85.8008-22.1509 86.8763-20.6759 86.8763-18.7041C86.8763-16.8416 85.8295-15.2808 83.5438-15.2808Z"/>
</svg>