<svg xmlns="http://www.w3.org/2000/svg" viewBox="12.4609 -81.9107 93.33 93.36">
  <path d="M29.6986 11.4467L88.5521 11.4467C99.7145 11.4467 105.79 5.36118 105.79-5.70513L105.79-64.7589C105.79-75.8252 99.7145-81.9107 88.5521-81.9107L29.6986-81.9107C18.5648-81.9107 12.4609-75.8355 12.4609-64.7589L12.4609-5.70513C12.4609 5.37145 18.5648 11.4467 29.6986 11.4467ZM48.8242-14.616C46.7233-14.616 44.6475-15.839 44.6475-18.8784L44.6475-22.5324L35.1684-22.5324C32.0027-22.5324 30.2025-24.2857 30.2025-27.3452C30.2025-29.0881 30.5894-30.8204 31.3585-32.8596L37.9049-48.3975C39.4997-52.4491 41.2714-55.7778 46.2422-55.7778C50.2635-55.7778 52.9334-53.536 52.9334-49.4479L52.9334-29.4259L54.0065-29.4259C56.2925-29.4259 57.3441-28.0699 57.3441-26.0078C57.3441-24.1739 56.4454-22.5324 53.978-22.5324L52.9334-22.5324L52.9334-18.8784C52.9334-15.8781 51.0814-14.616 48.8242-14.616ZM44.8761-29.1973L44.8761-48.7733L44.6892-48.7733L37.3922-29.5454L37.3922-29.1973ZM74.1681-14.3433C68.6356-14.3433 63.5455-16.7961 62.1227-21.3995C61.8449-22.2329 61.7152-23.1542 61.7152-24.1203C61.7152-26.4449 63.2425-27.8916 65.6141-27.8916C67.5489-27.8916 68.8556-26.9073 69.4946-24.944C70.1073-23.0269 71.4146-21.1563 74.1447-21.1563C77.282-21.1563 78.621-23.873 78.621-26.6834C78.621-30.4436 76.7915-32.481 73.0438-32.481L72.2246-32.481C70.0819-32.481 68.9545-33.6418 68.9545-35.5225C68.9545-37.4031 70.095-38.5978 72.2246-38.5978L72.9815-38.5978C76.3245-38.5978 77.7956-41.2058 77.7956-44.2346C77.7956-46.9386 76.6516-49.313 73.9812-49.313C71.6358-49.313 70.4267-47.4688 69.8034-45.1927C69.302-43.2344 67.7487-42.5878 65.928-42.5878C63.4086-42.5878 62.2863-44.3151 62.2863-46.0683C62.2863-46.967 62.4343-47.8678 62.6887-48.7555C64.1115-53.3403 68.8407-56.0922 73.9241-56.0922C80.8849-56.0922 85.9855-52.118 85.9855-45.1749C85.9855-40.6578 83.3582-36.9169 79.5624-35.9094L79.5624-35.6991C83.8657-35.2059 87.107-31.8661 87.107-26.2079C87.107-18.8579 81.6877-14.3433 74.1681-14.3433Z"/>
</svg>