<svg xmlns="http://www.w3.org/2000/svg" viewBox="8.72266 -86.8071 103.12 103.09">
  <path d="M60.2692 16.2859C88.7361 16.2859 111.844-6.82236 111.844-35.2606C111.844-63.6989 88.7361-86.8071 60.2692-86.8071C31.8309-86.8071 8.72266-63.6989 8.72266-35.2606C8.72266-6.82236 31.8309 16.2859 60.2692 16.2859ZM59.5809-11.2608C50.84-11.2608 45.7784-14.6848 44.1452-18.3563C43.7686-19.0913 43.592-19.9017 43.592-20.7326C43.592-23.3375 45.7475-25.3115 48.4851-25.3115C50.8224-25.3115 52.0719-24.4905 53.2224-23.5036C54.9337-21.6479 56.796-20.5714 59.5288-20.5714C64.9219-20.5714 68.5071-26.0871 68.0216-34.451L67.5489-34.451C65.9063-30.7978 62.1715-28.1207 56.3818-28.1207C47.8645-28.1207 41.2688-33.5792 41.2688-42.6829C41.2688-52.5416 48.956-59.2605 60.1054-59.2605C72.6156-59.2605 79.9885-50.9152 79.9885-36.1162C79.9885-20.0881 72.5789-11.2608 59.5809-11.2608ZM60.6044-35.9794C64.7828-35.9794 67.7543-38.9743 67.7543-43.0024C67.7543-47.1604 64.6817-50.236 60.6147-50.236C56.3555-50.236 53.4465-47.3189 53.4465-43.0464C53.4465-38.9406 56.4208-35.9794 60.6044-35.9794Z"/>
</svg>