<svg xmlns="http://www.w3.org/2000/svg" viewBox="8.72266 -86.8071 103.12 103.09">
  <path d="M60.2692 16.2859C88.7463 16.2859 111.844-6.78347 111.844-35.2606C111.844-63.7378 88.7463-86.8071 60.2692-86.8071C31.8206-86.8071 8.72266-63.7378 8.72266-35.2606C8.72266-6.78347 31.8206 16.2859 60.2692 16.2859ZM60.2692 3.46117C38.8667 3.46117 21.5708-13.8582 21.5708-35.2606C21.5708-56.6631 38.8667-73.9825 60.2692-73.9825C81.6717-73.9825 98.991-56.6631 98.991-35.2606C98.991-13.8582 81.6717 3.46117 60.2692 3.46117ZM71.661-56.3207C71.661-60.576 69.145-63.0921 64.9286-63.0921L55.6434-63.0921C51.4272-63.0921 48.9682-60.576 48.9682-56.3207L48.9682-26.6661C48.9682-22.3822 51.4272-19.8896 55.6434-19.8896L64.9286-19.8896C69.145-19.8896 71.661-22.3822 71.661-26.6661ZM40.3125-37.2663C37.9675-37.2663 36.2669-35.534 36.2669-33.236C36.2669-31.6831 36.8744-30.4599 38.2251-28.9897L56.9984-8.85408C57.9454-7.84475 59.2359-7.37213 60.2692-7.37213C61.3882-7.37213 62.593-7.81621 63.5685-8.85408L82.2274-28.9897C83.7211-30.6028 84.3001-31.7116 84.3001-33.1788C84.3001-35.534 82.4849-37.2663 80.1686-37.2663Z" />
</svg>