<svg xmlns="http://www.w3.org/2000/svg" viewBox="6.98482 -81.7635 107.81 93.06">
  <path d="M101.552-57.1892L43.9554-57.1892C35.6185-57.1892 30.742-52.3466 30.742-44.0874L30.742-26.1074C30.742-17.8196 35.6185-13.0341 43.9554-13.0341L101.552-13.0341C109.912-13.0341 114.794-17.8196 114.794-26.1074L114.794-44.0874C114.794-52.3466 109.912-57.1892 101.552-57.1892ZM65.0793 3.34038L65.0793-73.6328C65.0793-78.1538 61.6252-81.7635 57.0367-81.7635C54.0995-81.7635 51.9209-80.6157 48.7287-77.6909L9.82682-41.6677C7.86775-39.7863 6.98482-37.426 6.98482-35.2321C6.98482-33.1525 7.90143-30.6493 9.85537-28.7965L48.7287 7.3933C51.6637 10.0945 54.0374 11.2993 57.0939 11.2993C61.6252 11.2993 65.0793 7.86138 65.0793 3.34038Z"/>
</svg>