<svg xmlns="http://www.w3.org/2000/svg" viewBox="12.4609 -81.9107 93.33 93.36">
  <path d="M29.6986 11.4467L88.5521 11.4467C99.7145 11.4467 105.79 5.36118 105.79-5.70513L105.79-64.7589C105.79-75.8252 99.7145-81.9107 88.5521-81.9107L29.6986-81.9107C18.5648-81.9107 12.4609-75.8355 12.4609-64.7589L12.4609-5.70513C12.4609 5.37145 18.5648 11.4467 29.6986 11.4467ZM59.4538-61.1656C61.0225-61.1656 62.5001-60.6411 64.0351-59.1683L80.4939-43.3567C81.5148-42.341 82.068-41.2916 82.068-39.78C82.068-36.9332 79.6787-34.9437 77.0369-34.9437C75.5824-34.9437 74.237-35.5592 73.25-36.6086L67.1415-43.094L64.7756-46.7398L65.295-39.3348L65.295-15.0825C65.295-11.9684 62.7055-9.35565 59.4538-9.35565C56.202-9.35565 53.6125-11.9684 53.6125-15.0825L53.6125-39.3348L54.1034-46.7449L51.7323-43.094L45.6238-36.6086C44.6368-35.5592 43.2627-34.9437 41.8083-34.9437C39.1899-34.9437 36.8058-36.9332 36.8058-39.78C36.8058-41.2916 37.359-42.341 38.3799-43.3567L54.8439-59.1683C56.3789-60.6411 57.8565-61.1656 59.4538-61.1656Z"/>
</svg>