<svg xmlns="http://www.w3.org/2000/svg" viewBox="12.4609 -81.8822 116.51 93.36">
  <path d="M107.952-54.1187C108.911-55.0537 109.469-56.3654 109.469-57.5965C109.469-60.4588 107.376-62.3523 104.685-62.3523C103.277-62.3523 102.08-61.8796 101.03-60.8069L88.4208-48.2544L81.8193-40.8945C77.9022-36.3154 83.5409-31.089 87.8633-34.783L95.2804-41.4182ZM80.9522-28.1992L101.335-28.1992C103.884-28.2279 105.634-29.9214 105.634-32.4309C105.634-34.9506 103.855-36.6728 101.221-36.7014L92.4848-36.7014L82.827-35.8765L83.6519-45.7865L83.6519-54.3039C83.6233-56.9095 81.9011-58.7226 79.3815-58.7226C76.8435-58.7226 75.1733-56.9667 75.1447-54.3898L75.1447-34.0119C75.1447-30.4689 77.3857-28.1992 80.9522-28.1992ZM29.6986 11.4753L111.733 11.4753C122.895 11.4753 128.97 5.38973 128.97-5.67659L128.97-64.7304C128.97-75.7967 122.895-81.8822 111.733-81.8822L29.6986-81.8822C18.5648-81.8822 12.4609-75.8069 12.4609-64.7304L12.4609-5.67659C12.4609 5.39999 18.5648 11.4753 29.6986 11.4753ZM31.0794-1.14908C27.1457-1.14908 25.0566-3.06672 25.0566-7.20043L25.0566-63.2065C25.0566-67.3688 27.1457-69.2579 31.0794-69.2579L110.352-69.2579C114.265-69.2579 116.375-67.3688 116.375-63.2065L116.375-7.20043C116.375-3.06672 114.265-1.14908 110.352-1.14908Z" />
</svg>