<svg xmlns="http://www.w3.org/2000/svg" viewBox="1.67312 -76.324 146.52 82.13">
  <path d="M148.195-3.27539L148.195-67.2459C148.195-73.2547 144.469-76.324 140.057-76.324C138.19-76.324 136.208-75.7891 134.323-74.701L81.1387-43.7474C76.9903-41.3317 74.7522-38.9504 74.7522-35.2606C74.7522-31.5708 76.9903-29.1896 81.1387-26.7739L134.323 4.17971C136.208 5.26784 138.19 5.80276 140.057 5.80276C144.469 5.80276 148.195 2.73338 148.195-3.27539ZM75.1156-3.27539L75.1156-67.2459C75.1156-73.2547 71.3897-76.324 66.9728-76.324C65.1108-76.324 63.1294-75.7891 61.244-74.701L8.05966-43.7474C3.93993-41.3317 1.67312-38.9504 1.67312-35.2606C1.67312-31.5708 3.93993-29.1896 8.05966-26.7739L61.244 4.17971C63.1294 5.26784 65.1108 5.80276 66.9728 5.80276C71.3897 5.80276 75.1156 2.73338 75.1156-3.27539Z"/>
</svg>