<svg xmlns="http://www.w3.org/2000/svg" viewBox="8.72266 -86.8071 103.12 103.09">
  <path d="M60.2692 16.2859C88.7463 16.2859 111.844-6.78347 111.844-35.2606C111.844-63.7378 88.7463-86.8071 60.2692-86.8071C31.8206-86.8071 8.72266-63.7378 8.72266-35.2606C8.72266-6.78347 31.8206 16.2859 60.2692 16.2859ZM60.2692 3.46117C38.8667 3.46117 21.5708-13.8582 21.5708-35.2606C21.5708-56.6631 38.8667-73.9825 60.2692-73.9825C81.6717-73.9825 98.991-56.6631 98.991-35.2606C98.991-13.8582 81.6717 3.46117 60.2692 3.46117ZM29.8676-25.5887C29.8676-18.8852 35.7479-13.8201 43.1777-13.8201C50.5738-13.8201 56.5349-18.8852 56.5349-25.5887L56.5349-30.5396C57.6117-30.8974 58.9144-31.11 60.2405-31.11C61.6812-31.11 62.9164-30.9598 63.9881-30.6357L63.9881-25.5601C63.9881-18.8566 69.897-13.7915 77.2931-13.7915C84.7229-13.7915 90.6319-18.8566 90.6319-25.5601C90.6319-27.2272 90.349-28.951 89.5674-30.9249L80.4256-52.8388C78.9173-56.5046 75.8717-58.5297 72.0134-58.5297C67.1142-58.5297 63.9881-55.3883 63.9881-50.5436L63.9881-49.0121C62.854-49.3595 61.5902-49.4812 60.2405-49.4812C58.9716-49.4812 57.7078-49.3023 56.5349-48.9782L56.5349-50.5721C56.5349-55.3883 53.3852-58.5583 48.486-58.5583C44.6277-58.5583 41.6107-56.5332 40.1024-52.8674L30.932-30.9535C30.1504-28.9796 29.8676-27.2557 29.8676-25.5887ZM35.9472-25.5887C35.9472-29.0611 38.8646-31.4308 43.1777-31.4308C47.5379-31.4308 50.4889-29.0559 50.4889-25.5887C50.4889-22.1683 47.5431-19.7986 43.1777-19.7986C38.8646-19.7986 35.9472-22.1735 35.9472-25.5887ZM69.9819-25.5601C69.9819-29.0274 72.9615-31.4023 77.2931-31.4023C81.6349-31.4023 84.5522-29.0325 84.5522-25.5601C84.5522-22.1449 81.6349-19.7986 77.2931-19.7986C72.9564-19.7986 69.9819-22.1398 69.9819-25.5601ZM56.5063-37.5505L56.5063-41.9439C57.6454-42.2393 58.9716-42.4468 60.2405-42.4468C61.5902-42.4468 62.854-42.2679 63.9881-41.9776L63.9881-37.6753C62.9164-37.9421 61.6812-38.1262 60.2405-38.1262C58.8859-38.1262 57.6066-37.9135 56.5063-37.5505Z" />
</svg>