<svg xmlns="http://www.w3.org/2000/svg" viewBox="12.4609 -84.5569 121.58 96.2">
  <path d="M73.2547-1.9561C90.4103-1.9561 112.349-2.79461 121.68-3.85379C129.461-4.73392 134.043-9.34544 134.043-16.7992L134.043-25.3972C134.043-34.5628 132.743-39.7451 127.911-45.6472L123.293-51.2879C121.463-60.0729 118.223-69.2706 116.512-72.9077C113.615-79.0134 108.036-82.7863 100.865-83.7288C96.9294-84.2506 86.8236-84.5569 73.2547-84.5569C59.6859-84.5569 49.5464-84.222 45.6396-83.7288C38.4733-82.8149 32.8658-79.0419 29.9972-72.9077C28.315-69.2706 25.0466-60.0729 23.2163-51.2879L18.5984-45.6472C13.761-39.7451 12.4609-34.5628 12.4609-25.3972L12.4609-16.7992C12.4609-9.34544 17.0483-4.73392 24.8247-3.85379C34.1549-2.79461 56.094-1.9561 73.2547-1.9561ZM73.2547-12.1282C56.2701-12.1282 36.2832-12.9615 28.2215-13.8829C24.0397-14.3866 22.371-16.4171 22.371-20.1707L22.371-26.5392C22.371-33.0031 23.8402-36.1358 26.7579-39.9855L32.4538-47.4623C33.5125-53.133 36.581-63.7071 38.6013-67.9113C40.309-71.4697 43.4651-73.3333 47.4934-73.842C51.1409-74.33 60.1461-74.7274 73.2547-74.7274C86.3582-74.7274 95.4779-74.2729 98.9537-73.842C103.044-73.3332 106.115-71.441 107.932-67.8256C109.871-63.8498 112.911-53.3328 114.051-47.4623L119.723-39.9855C122.664-36.1358 124.133-33.0031 124.133-26.5392L124.133-20.1707C124.133-16.4171 122.436-14.3528 118.288-13.8829C110.221-12.9718 90.2056-12.1282 73.2547-12.1282ZM21.7629 11.643L27.864 11.643C31.7091 11.643 34.6973 8.68344 34.6973 4.86698L34.6973-7.71384L14.9531-12.5502L14.9531 4.86698C14.9531 8.67831 17.9413 11.643 21.7629 11.643ZM118.645 11.643L124.718 11.643C128.568 11.643 131.551 8.68344 131.551 4.86698L131.551-12.5502L111.807-7.71384L111.807 4.86698C111.807 8.68344 114.795 11.643 118.645 11.643ZM58.6178-40.838C58.6178-39.7732 59.4827-38.9758 60.5577-38.9758L71.647-38.9758L65.7392-23.3989C64.7732-20.7891 67.5831-19.3219 69.3229-21.4253L87.9633-44.2866C88.3892-44.7513 88.6333-45.3201 88.6333-45.8602C88.6333-46.9016 87.7399-47.7041 86.6933-47.7041L75.6041-47.7041L81.4833-63.2707C82.4728-65.8806 79.6578-67.3764 77.9465-65.2443L59.254-42.383C58.8568-41.8897 58.6178-41.3496 58.6178-40.838Z"/>
</svg>