<svg xmlns="http://www.w3.org/2000/svg" viewBox="8.72266 -83.7415 151.82 96.96">
  <path d="M84.6438 13.2202C111.452 13.2202 133.125-8.45772 133.125-35.2606C133.125-62.0636 111.452-83.7415 84.6438-83.7415C57.8695-83.7415 36.1629-62.0636 36.1629-35.2606C36.1629-8.45772 57.8695 13.2202 84.6438 13.2202ZM84.6438 0.395516C64.9778 0.395516 48.9876-15.5896 48.9876-35.2606C48.9876-54.9317 64.9778-70.9168 84.6438-70.9168C104.315-70.9168 120.305-54.9317 120.305-35.2606C120.305-15.5896 104.315 0.395516 84.6438 0.395516ZM8.72266-35.2321C8.72266-19.2812 13.9457-4.31951 23.0421 7.83366C25.3406 10.8802 29.3066 11.0855 32.2102 8.67792C35.028 6.32757 35.1477 2.64221 32.9351-0.409291C25.7214-10.2692 21.5995-22.3899 21.5995-35.2321C21.5995-48.1315 25.7214-60.2235 32.9636-70.1172C35.2048-73.1635 35.1086-76.8203 32.2102-79.2278C29.3403-81.6303 25.364-81.3679 23.0707-78.3549C13.9457-66.1967 8.72266-51.183 8.72266-35.2321ZM160.541-35.2321C160.541-51.183 155.318-66.1967 146.193-78.3549C143.9-81.3679 139.924-81.6303 137.054-79.2278C134.156-76.8203 134.059-73.1635 136.301-70.1172C143.543-60.2235 147.66-48.1315 147.66-35.2321C147.66-22.3899 143.543-10.2692 136.329-0.409291C134.116 2.64221 134.236 6.32757 137.054 8.67792C139.958 11.0855 143.924 10.8802 146.222 7.83366C155.318-4.31951 160.541-19.2812 160.541-35.2321Z"/>
</svg>