<svg xmlns="http://www.w3.org/2000/svg" viewBox="12.4609 -81.9107 93.33 93.36">
  <path d="M29.6986 11.4467L88.5521 11.4467C99.7145 11.4467 105.79 5.36118 105.79-5.70513L105.79-64.7589C105.79-75.8252 99.7145-81.9107 88.5521-81.9107L29.6986-81.9107C18.5648-81.9107 12.4609-75.8355 12.4609-64.7589L12.4609-5.70513C12.4609 5.37145 18.5648 11.4467 29.6986 11.4467ZM31.0794-1.17762C27.1457-1.17762 25.0566-3.09527 25.0566-7.22898L25.0566-63.2351C25.0566-67.3974 27.1457-69.2864 31.0794-69.2864L87.1713-69.2864C91.0844-69.2864 93.1941-67.3974 93.1941-63.2351L93.1941-7.22898C93.1941-3.09527 91.0844-1.17762 87.1713-1.17762ZM38.3703-17.1466C40.7232-17.1466 42.0218-18.588 42.0218-20.9461L42.0218-30.9504L46.028-30.9504L50.5151-20.2136C51.3124-18.3282 52.1201-17.1466 54.2706-17.1466C56.3327-17.1466 57.8363-18.5022 57.8363-20.6448C57.8363-21.5616 57.4208-22.5639 57.039-23.408L53.0532-32.3787C56.3187-34.1162 58.1768-37.6078 58.1768-42.0929C58.1768-49.5 53.5734-53.334 46.3095-53.334L38.3417-53.334C36.1133-53.334 34.724-52.0639 34.724-49.5397L34.724-20.9461C34.724-18.6167 35.9081-17.1466 38.3703-17.1466ZM42.0218-36.1941L42.0218-47.6567L45.6316-47.6567C48.9792-47.6567 50.7699-45.233 50.7699-41.9449C50.7699-38.662 49.1509-36.1941 45.6368-36.1941ZM73.0725-18.2059C79.8486-18.2059 84.8831-21.7047 84.8831-27.9258C84.8831-33.505 81.2512-35.7005 76.7157-37.6295L73.1819-39.1148C70.571-40.2463 68.5363-41.5618 68.5363-43.7853C68.5363-46.258 70.5967-47.4439 73.1142-47.4439C75.8387-47.4439 77.1803-45.7262 77.7776-43.6045C78.3255-42.4283 79.2812-41.3919 80.8996-41.3919C83.0186-41.3919 84.0602-42.781 84.0602-44.2434C84.0602-44.916 83.8602-45.6613 83.598-46.1933C82.037-50.8972 77.8674-52.7966 73.1427-52.7966C66.9734-52.7966 61.7968-49.4705 61.7968-43.2373C61.7968-38.1333 64.7354-35.6416 69.7355-33.4868L73.2591-31.9729C75.7191-30.8883 78.1098-29.8922 78.1098-27.2247C78.1098-24.718 76.3068-23.5637 73.1297-23.5637C70.1927-23.5637 68.6925-24.8729 68.0224-27.5637C67.5316-29.0463 66.4175-29.8049 64.9526-29.8049C63.067-29.8049 61.7348-28.7452 61.7348-26.8442C61.7348-26.3379 61.8491-25.7119 62.0257-25.1513C63.4879-20.1699 67.9486-18.2059 73.0725-18.2059ZM73.1764-13.6687C73.7945-13.6687 74.2257-14.0998 74.2257-14.718L74.2257-56.22C74.2257-56.8616 73.7945-57.2927 73.1764-57.2927C72.5296-57.2927 72.0985-56.8616 72.0985-56.22L72.0985-14.718C72.0985-14.0998 72.5296-13.6687 73.1764-13.6687Z" />
</svg>