<svg xmlns="http://www.w3.org/2000/svg" viewBox="12.4609 -84.5704 98.72 98.75">
  <path d="M18.7588-49.3523C22.8492-49.3523 25.0566-51.622 25.0566-55.7124L25.0566-65.8947C25.0566-70.0284 27.1457-71.9461 31.0794-71.9461L41.4048-71.9461C45.5237-71.9461 47.7598-74.1821 47.7598-78.2439C47.7598-82.3343 45.5237-84.5704 41.4048-84.5704L29.6986-84.5704C18.5648-84.5704 12.4609-78.4951 12.4609-67.4185L12.4609-55.7124C12.4609-51.5935 14.697-49.3523 18.7588-49.3523ZM104.884-49.3523C108.979-49.3523 111.182-51.5935 111.182-55.7124L111.182-67.4185C111.182-78.4849 105.111-84.5704 93.9438-84.5704L82.2428-84.5704C78.1188-84.5704 75.8827-82.3343 75.8827-78.2439C75.8827-74.1821 78.1473-71.9461 82.2428-71.9461L92.5631-71.9461C96.4762-71.9461 98.591-70.0284 98.591-65.8947L98.591-55.7124C98.591-51.5935 100.822-49.3523 104.884-49.3523ZM29.6986 14.184L41.4048 14.184C45.5237 14.184 47.7598 11.9479 47.7598 7.88612C47.7598 3.79572 45.4952 1.55964 41.4048 1.55964L31.0794 1.55964C27.1457 1.55964 25.0566-0.358006 25.0566-4.49171L25.0566-14.6454C25.0566-18.7929 22.8206-21.0342 18.7588-21.0342C14.6684-21.0342 12.4609-18.7929 12.4609-14.6454L12.4609-2.96787C12.4609 8.10871 18.5648 14.184 29.6986 14.184ZM82.2428 14.184L93.9438 14.184C105.111 14.184 111.182 8.09844 111.182-2.96787L111.182-14.6454C111.182-18.7929 108.951-21.0342 104.884-21.0342C100.793-21.0342 98.591-18.7644 98.591-14.6454L98.591-4.49171C98.591-0.358006 96.4762 1.55964 92.5631 1.55964L82.2428 1.55964C78.1188 1.55964 75.8827 3.79572 75.8827 7.88612C75.8827 11.9479 78.1188 14.184 82.2428 14.184ZM41.489-13.7625L82.1769-13.7625C87.4426-13.7625 90.3479-16.6391 90.3479-21.8528L90.3479-46.3249C90.3479-51.5672 87.4426-54.4438 82.1769-54.4438L77.1315-54.4438C75.3275-54.4438 74.6913-54.6727 73.4535-55.8924L71.6626-57.699C70.344-58.9372 69.1052-59.5114 66.7894-59.5114L56.7812-59.5114C54.5042-59.5114 53.2214-58.9709 51.9366-57.699L50.1222-55.8924C48.866-54.7065 48.2482-54.4438 46.4675-54.4438L41.489-54.4438C36.2232-54.4438 33.3231-51.5672 33.3231-46.3249L33.3231-21.8528C33.3231-16.6391 36.2232-13.7625 41.489-13.7625ZM61.8667-20.7696C54.3614-20.7696 48.3333-26.764 48.3333-34.303C48.3333-41.7797 54.3614-47.7792 61.8667-47.7792C69.3668-47.7792 75.3378-41.7797 75.3378-34.303C75.3378-26.6781 69.3668-20.7696 61.8667-20.7696ZM61.8381-26.4492C66.1543-26.4492 69.653-29.9141 69.653-34.303C69.653-38.6243 66.1543-42.0995 61.8381-42.0995C57.5115-42.0995 54.018-38.6243 54.018-34.303C54.018-29.9141 57.5115-26.4492 61.8381-26.4492ZM81.2229-40.8443C79.3377-40.8443 77.8211-42.3608 77.8211-44.2461C77.8211-46.1027 79.3377-47.6427 81.2229-47.6427C83.0744-47.6427 84.6196-46.1027 84.6196-44.2461C84.6196-42.3608 83.0744-40.8443 81.2229-40.8443Z"/>
</svg>