<svg xmlns="http://www.w3.org/2000/svg" viewBox="12.4609 -97.9677 169.29 112.47">
  <path d="M89.5217-72.305L139.653-72.305C144.773-72.305 147.053-75.1897 147.053-80.6807L147.053-85.7008C147.053-93.8599 143.183-97.9677 134.498-97.9677L124.138-97.9677C114.936-97.9677 108.776-96.0299 97.3763-90.7525L87.0975-85.9627C83.1822-84.0783 81.9224-81.7871 81.9224-78.6606C81.9224-74.819 84.4647-72.305 89.5217-72.305ZM28.8549 4.85287L30.7474 4.85287C30.3605 3.24056 30.1736 1.56089 30.1736-0.118858C30.1736-11.6075 39.3877-20.8216 50.9049-20.8216C62.3936-20.8216 71.6362-11.6075 71.6362-0.118858C71.6362 1.56089 71.3922 3.24056 71.0001 4.85287L123.209 4.85287C122.817 3.24056 122.63 1.56089 122.63-0.118858C122.63-11.6075 131.873-20.8216 143.361-20.8216C154.85-20.8216 164.093-11.6075 164.093-0.118858C164.093 1.56089 163.849 3.24056 163.433 4.85287L165.383 4.85287C176.286 4.85287 181.748-0.939338 181.748-12.4397L181.748-25.3107C181.748-34.6809 176.976-40.4432 167.588-43.7272L160.516-46.1387C151.423-54.0058 137.861-63.7195 120.078-63.7195L112.781-63.7195C93.3635-63.7195 85.1581-61.7699 73.4258-54.4096L54.9032-42.7405L34.6397-40.2952C20.8498-38.6153 12.4609-29.8755 12.4609-17.9005L12.4609-12.1253C12.4609-0.824996 18.0092 4.85287 28.8549 4.85287ZM50.9049 14.4995C59.0098 14.4995 65.5232 8.01461 65.5232-0.118858C65.5232-8.25225 59.0098-14.7372 50.9049-14.7372C42.7429-14.7372 36.258-8.25225 36.258-0.118858C36.258 8.01461 42.7429 14.4995 50.9049 14.4995ZM143.361 14.4995C151.466 14.4995 158.008 8.01461 158.008-0.118858C158.008-8.25225 151.466-14.7372 143.361-14.7372C135.228-14.7372 128.686-8.25225 128.686-0.118858C128.686 8.01461 135.228 14.4995 143.361 14.4995Z"/>
</svg>