<svg xmlns="http://www.w3.org/2000/svg" viewBox="8.72266 -86.8071 103.12 103.09">
  <path d="M60.2692 16.2859C88.7463 16.2859 111.844-6.78347 111.844-35.2606C111.844-63.7378 88.7463-86.8071 60.2692-86.8071C31.8206-86.8071 8.72266-63.7378 8.72266-35.2606C8.72266-6.78347 31.8206 16.2859 60.2692 16.2859ZM60.2692 3.46117C38.8667 3.46117 21.5708-13.8582 21.5708-35.2606C21.5708-56.6631 38.8667-73.9825 60.2692-73.9825C81.6717-73.9825 98.991-56.6631 98.991-35.2606C98.991-13.8582 81.6717 3.46117 60.2692 3.46117ZM35.0908-20.003C35.0908-18.4349 36.3421-17.1836 37.9102-17.1836L40.4517-17.1836C42.0482-17.1836 43.271-18.4349 43.271-20.003L43.271-23.6659C47.8345-23.3829 54.6695-23.1623 60.2692-23.1623C65.8739-23.1623 72.7089-23.3543 77.2672-23.6659L77.2672-20.003C77.2672-18.4349 78.4951-17.1836 80.0917-17.1836L82.5995-17.1836C84.2012-17.1836 85.424-18.4349 85.424-20.003L85.424-32.4822C85.424-36.2535 84.8169-38.3331 82.8669-40.8387L81.0007-43.1618C80.2089-46.8529 78.8747-50.6974 78.179-52.19C76.985-54.7027 74.6928-56.2295 71.7329-56.6319C70.1365-56.8474 65.8901-56.972 60.2692-56.972C54.6819-56.972 50.4355-56.8474 48.8391-56.6319C45.8792-56.2581 43.5585-54.7027 42.393-52.19C41.6973-50.6974 40.3579-46.8529 39.5999-43.1618L37.6765-40.8387C35.7551-38.3331 35.0908-36.2535 35.0908-32.4822ZM46.2091-45.4778C46.619-47.1536 47.3355-49.3448 47.8027-50.1963C48.3788-51.3096 49.0765-51.7347 50.3942-51.8981C51.588-52.0902 54.788-52.1811 60.2692-52.1811C65.784-52.1811 68.9555-52.1188 70.1779-51.8981C71.4955-51.7347 72.1595-51.3096 72.7693-50.1963C73.2651-49.3735 73.953-47.1536 74.3058-45.4778C74.5447-44.6028 74.1577-44.0995 73.1713-44.1332C70.6047-44.2734 67.1133-44.4603 60.2692-44.4603C53.4587-44.4603 49.9387-44.2734 47.372-44.1332C46.3857-44.0995 45.9988-44.6028 46.2091-45.4778ZM41.4875-32.6117C41.4875-34.6707 43.0767-36.2079 45.1072-36.2079C47.1091-36.2079 48.6748-34.6707 48.6748-32.6117C48.6748-30.6047 47.1091-29.0778 45.1072-29.0778C43.0767-29.0778 41.4875-30.6047 41.4875-32.6117ZM52.0547-32.5552C52.0547-34.0923 53.1271-35.1647 54.6305-35.1647L65.8792-35.1647C67.4164-35.1647 68.5173-34.0923 68.5173-32.5552C68.5173-31.0232 67.4164-29.9508 65.8792-29.9508L54.6305-29.9508C53.1271-29.9508 52.0547-31.0232 52.0547-32.5552ZM71.8972-32.6117C71.8972-34.6707 73.4344-36.2079 75.4648-36.2079C77.4902-36.2079 79.0273-34.6707 79.0273-32.6117C79.0273-30.6047 77.4902-29.0778 75.4648-29.0778C73.4344-29.0778 71.8972-30.6047 71.8972-32.6117Z" />
</svg>