<svg xmlns="http://www.w3.org/2000/svg" viewBox="11.4117 -87.3827 153.46 112.53">
  <path d="M93.198-44.1023L107.022-44.1023L107.022-41.0379C107.022-39.3374 108.354-37.9484 110.145-37.9484L112.928-37.9484C114.691-37.9484 116.023-39.3374 116.023-41.0379L116.023-56.663C116.023-60.8421 115.554-63.288 113.219-65.9026L110.905-68.4672L108.541-75.1487C106.975-79.4581 104.223-81.1065 100.885-81.5323C99.0936-81.7528 94.4731-81.906 88.278-81.906C82.083-81.906 77.4339-81.7528 75.6479-81.5323C72.3042-81.1065 69.5806-79.4581 68.0152-75.1487L66.4942-70.8347L81.0245-56.3044L81.0245-58.8349C81.0245-60.1643 81.8893-61.0628 83.2188-61.0628L93.2311-61.0628C94.584-61.0628 95.4254-60.1643 95.4254-58.8349L95.4254-56.6577C95.4254-55.2997 94.5555-54.4012 93.2311-54.4012L82.9278-54.4012ZM73.3336-67.9282C71.9808-67.9282 71.2928-68.8186 71.7472-70.0388L73.1231-74.0033C73.7094-75.6428 74.7499-76.1589 76.4258-76.4131C77.7807-76.5715 81.9175-76.6962 88.278-76.6962C94.6386-76.6962 98.7702-76.5715 100.102-76.4131C101.778-76.1589 102.823-75.6428 103.41-74.0033L104.757-70.0388C105.183-68.8186 104.58-67.9282 103.194-67.9282ZM106.43-53.3002C104.913-53.3002 103.732-54.4816 103.732-55.998L103.732-59.4609C103.732-61.0058 104.913-62.1586 106.43-62.1586C108.037-62.1586 109.156-61.0395 109.156-59.4609L109.156-55.998C109.156-54.4244 108.037-53.3002 106.43-53.3002ZM37.7582-51.5185L13.1908-3.10562C11.4117 0.3771 12.8945 4.45479 17.9075 4.45479L24.5527 4.45479C28.2695 4.45479 30.2018 2.53788 31.2095-0.040976L51.137-49.7321C52.1811-52.3111 50.8127-54.6746 48.1245-54.6746L42.6075-54.6746C40.5088-54.6746 38.8258-53.6119 37.7582-51.5185ZM138.523-51.5471C137.45-53.6405 135.772-54.7031 133.673-54.7031L128.156-54.7031C125.468-54.7031 124.1-52.3397 125.144-49.7607L145.071-0.0695241C146.074 2.50933 148.011 4.42625 151.728 4.42625L158.373 4.42625C163.386 4.42625 164.869 0.348552 163.09-3.13417ZM134.572 18.612C136.185 20.1915 138.814 20.2252 140.376 18.612C141.932 16.9936 141.984 14.4217 140.376 12.8085L41.7404-85.7644C40.1374-87.3725 37.5084-87.3827 35.8849-85.7644C34.3288-84.2083 34.3288-81.5169 35.8849-79.9609ZM114.671 20.3474L103.517-0.585281L104.743-0.985996L78.1568-27.5383L81.93-16.4759L76.5602-18.8855C75.1866-19.4983 74.0053-18.1222 74.9582-16.8577L77.8951-13.0771L63.365-15.079C61.4953-15.3516 60.9011-13.3056 62.4277-12.3866L76.21-4.07776L68.2152-1.11258C66.5355-0.471325 66.8081 1.51754 68.6073 1.64215L77.5835 2.26014L65.2033 10.6313C63.6821 11.6646 64.3283 13.8405 66.3846 13.3575L82.0832 9.81846L82.2649 23.3644C82.2649 25.1092 83.8486 25.1482 84.5705 24.0005L95.0603 6.78839L112.247 22.2792C113.682 23.5383 115.58 22.0924 114.671 20.3474Z"/>
</svg>