<svg xmlns="http://www.w3.org/2000/svg" viewBox="10.3603 -96.9524 122.58 116.16">
  <path d="M57.7227-78.4877C57.398-76.7765 58.0809-75.2209 59.7899-74.5247C61.8469-73.8051 64.0884-74.831 64.413-77.088C65.5579-84.713 61.7752-92.6033 55.4923-95.7161C53.0769-96.9524 51.1006-95.7082 50.4227-94.0227C49.8878-92.4566 50.2747-90.6049 52.1213-89.6361C56.2586-87.7595 58.3897-83.391 57.7227-78.4877ZM70.9504-41.1709C70.244-38.7321 71.5659-37.1713 73.1554-36.7558C74.8357-36.3402 77.007-37.0804 77.5654-39.2568C80.1667-48.795 76.1529-62.9237 65.5528-67.9577C63.3089-69.0225 61.4806-68.1915 60.6598-66.7684C59.8156-65.2698 60.0259-63.1037 62.283-61.8726C70.5714-57.4648 72.7778-48.0679 70.9504-41.1709ZM128.454-3.28725C132.944-19.445 121.361-26.9151 92.9893-26.9151C80.1758-26.9151 67.3306-25.8845 56.44-23.8908L60.1538-18.4092C62.6139-40.7312 56.2478-59.0581 43.093-67.8291L45.4426-59.1013C50.777-75.098 41.1405-89.7833 27.2576-89.7833C16.2511-89.7833 10.3603-81.5585 13.1595-70.2657L32.147 6.50898C34.1852 14.7628 39.6422 19.2048 47.7949 19.2048L107.807 19.2048C118.87 19.2048 123.747 13.8926 128.454-3.28725ZM117.468-6.36752C113.947 6.45455 112.379 7.75617 107.807 7.75617L47.7949 7.75617C45.364 7.75617 43.9793 6.44639 43.3047 3.77151L24.2601-73.1827C23.4738-76.3718 24.799-78.3346 27.4106-78.3346C32.6732-78.3346 36.7881-73.3757 35.4715-64.8824C34.9466-61.4892 35.5936-59.7289 37.6143-58.0299C46.092-51.1793 50.3345-38.8553 50.1672-19.2956C50.1569-15.346 52.8109-12.6503 56.7216-12.6759C61.9744-12.8769 74.726-15.4327 92.9893-15.4327C113.871-15.4327 119.269-12.9024 117.468-6.36752Z"/>
</svg>