<svg xmlns="http://www.w3.org/2000/svg" viewBox="12.4609 -89.6703 75.22 108.94">
  <path d="M52.6262 8.33682C67.0163 8.33682 81.4329 2.14313 86.6053-11.4625C87.27-13.0175 87.6773-15.2314 87.6773-16.9036C87.6773-21.4851 84.5943-24.4503 79.832-24.4503C75.8374-24.4503 73.7391-22.4995 72.2145-18.8038C69.1786-10.3244 61.6728-5.62548 52.3694-5.62548C36.7499-5.62548 29.9959-19.3724 29.9959-35.3121C29.9959-50.6407 36.5313-64.7531 52.3122-64.7531C61.2412-64.7531 68.8381-59.8189 71.7517-51.6484C73.2763-48.0096 75.5355-46.0356 79.6547-46.0356C84.3265-46.0356 87.0667-49.0818 87.0667-53.3487C87.0667-55.4982 86.4412-57.892 85.4625-59.901C79.6959-72.4492 66.5591-78.7256 52.198-78.7256C27.1224-78.7256 12.4609-61.2785 12.4609-35.2835C12.4609-8.84947 27.0213 8.33682 52.6262 8.33682ZM51.6919 19.2723C53.4303 19.2723 54.615 18.1111 54.615 16.3391L54.615-86.7084C54.615-88.6522 53.2064-89.6703 51.6919-89.6703C50.2061-89.6703 48.7975-88.6522 48.7975-86.7084L48.7975 16.3391C48.7975 18.2256 50.1202 19.2723 51.6919 19.2723Z"/>
</svg>