<svg xmlns="http://www.w3.org/2000/svg" viewBox="12.4609 -90.4277 76.07 110.34">
  <path d="M26.874-51.5981L74.1504-51.5981C80.4614-51.5981 83.4833-54.5187 83.4833-60.7389L83.4833-81.3441C83.4833-87.5071 80.4614-90.4277 74.1504-90.4277L26.874-90.4277C20.563-90.4277 17.5127-87.5071 17.5127-81.3441L17.5127-60.7389C17.5127-54.5187 20.563-51.5981 26.874-51.5981ZM30.47-62.3906C29.073-62.3906 28.2767-63.1767 28.2767-64.5062L28.2767-77.5769C28.2767-78.8829 29.073-79.6352 30.47-79.6352L70.4975-79.6352C71.8658-79.6352 72.657-78.8829 72.657-77.5769L72.657-64.5062C72.657-63.1767 71.8658-62.3906 70.4975-62.3906ZM28.4917-35.3064L39.7141-35.3064L39.7141-58.1798L28.4917-58.1798ZM61.2818-35.3064L72.5042-35.3064L72.5042-58.1798L61.2818-58.1798ZM21.6243-14.4526L79.3951-14.4526C85.5829-14.4526 88.535-17.3087 88.535-23.3564L88.535-32.1231C88.535-38.1137 85.5829-40.9984 79.3951-40.9984L21.6243-40.9984C15.4416-40.9984 12.4609-38.1137 12.4609-32.1231L12.4609-23.3564C12.4609-17.3087 15.4416-14.4526 21.6243-14.4526ZM26.1045-25.2503C25.0802-25.2503 24.4006-25.8911 24.4006-26.8375L24.4006-28.6083C24.4006-29.5313 25.0802-30.2007 26.1045-30.2007L74.9149-30.2007C75.9157-30.2007 76.5954-29.5313 76.5954-28.6083L76.5954-26.8375C76.5954-25.8911 75.9157-25.2503 74.9149-25.2503ZM24.0415 19.9115L25.1827 19.9115C28.2941 19.9115 30.4603 17.7402 30.4603 14.6523L30.4603-19.6044L18.8211-19.6044L18.8211 14.6523C18.8211 17.7402 20.9638 19.9115 24.0415 19.9115ZM26.4921-0.797578L74.5038-0.797578L74.5038-10.2522L26.4921-10.2522ZM75.7796 19.9115L76.9259 19.9115C80.0036 19.9115 82.1749 17.7402 82.1749 14.6523L82.1749-19.6044L70.5592-19.6044L70.5592 14.6523C70.5592 17.7402 72.6733 19.9115 75.7796 19.9115Z"/>
</svg>