<svg xmlns="http://www.w3.org/2000/svg" viewBox="8.72266 -86.7448 103.12 103.09">
  <path d="M60.2692 16.3482C88.7361 16.3482 111.844-6.76006 111.844-35.1983C111.844-63.6366 88.7361-86.7448 60.2692-86.7448C31.8309-86.7448 8.72266-63.6366 8.72266-35.1983C8.72266-6.76006 31.8309 16.3482 60.2692 16.3482ZM37.0816-20.9741C31.3135-20.9741 27.4034-24.7148 27.4034-30.032C27.4034-34.224 29.9859-37.5497 33.7264-38.7958C34.5701-46.2666 40.8836-51.9359 48.4767-51.9359C54.8229-51.9359 59.2207-48.5462 61.6348-44.0917C68.5376-44.014 73.5815-39.0633 73.5815-32.4694C73.5815-25.9272 68.6753-20.9741 62.1359-20.9741ZM56.8778-54.344L53.9356-57.377C52.985-58.3848 52.8423-60.0471 53.9071-61.0262C54.8291-61.9431 56.4577-61.9768 57.5562-61.021L60.5607-57.9881C61.4491-56.9855 61.4775-55.3181 60.5607-54.3389C59.5478-53.4169 57.8336-53.3311 56.8778-54.344ZM70.4354-58.4923C69.0407-58.4923 67.8797-59.6532 67.8797-61.0714L67.8797-65.2563C67.8797-66.703 69.0407-67.8588 70.4354-67.8588C71.8976-67.8588 72.986-66.703 72.986-65.2563L72.986-61.0714C72.986-59.6532 71.8976-58.4923 70.4354-58.4923ZM80.4346-54.344C79.4505-55.3232 79.4218-56.9906 80.4346-58.0167L83.4106-60.964C84.4235-62.0054 86.104-61.9716 87.026-60.964C88.0337-60.042 88.0338-58.3614 86.9975-57.3199L84.0553-54.3154C83.1333-53.3311 81.3853-53.4169 80.4346-54.344ZM87.1048-41.9085C85.7622-41.9085 84.5206-43.0072 84.5206-44.4305C84.5206-45.859 85.7622-47.0096 87.1048-47.0096L91.2845-47.0096C92.7364-47.0096 93.8638-45.859 93.8638-44.4305C93.8638-43.0072 92.7364-41.9085 91.2845-41.9085ZM83.4106-27.8113L80.406-30.8106C79.3932-31.7663 79.4219-33.4571 80.3775-34.4364C81.3853-35.3817 83.0813-35.3869 84.1124-34.4078L86.9975-31.4891C88.0389-30.4762 88.0052-28.8476 87.026-27.8685C86.0754-26.8658 84.4183-26.8035 83.4106-27.8113ZM81.8604-44.4305C81.8604-40.6386 79.997-37.2329 77.0771-35.1275C76.0103-41.7894 70.7324-46.7588 63.811-47.7066C63.0662-48.8355 62.1215-49.8632 61.104-50.8519C63.0122-53.8053 66.5476-55.7749 70.464-55.7749C76.845-55.7749 81.8604-50.7881 81.8604-44.4305ZM43.1049-10.3465L46.2174-17.5247C46.4718-18.0386 46.7262-18.2643 47.4036-18.2643L53.7344-18.2643C54.3105-18.2643 54.5414-17.7894 54.2768-17.2938L52.3768-13.8575L57.6668-13.8575C58.4064-13.8575 58.6087-13.1099 58.1051-12.5754L46.0855-1.74317C45.5248-1.24255 44.9156-1.71229 45.123-2.23359L48.0775-9.31363L43.7067-9.31363C43.0631-9.31363 42.8167-9.79378 43.1049-10.3465Z"/>
</svg>