<svg xmlns="http://www.w3.org/2000/svg" viewBox="12.4609 -86.0096 119.67 101.5">
  <path d="M29.4686 15.4883L115.09 15.4883C126.182 15.4883 132.126 9.60725 132.126-1.40484L132.126-49.7015C132.126-60.7136 126.182-66.5946 115.09-66.5946L29.4686-66.5946C18.433-66.5946 12.4609-60.7136 12.4609-49.7015L12.4609-1.40484C12.4609 9.60725 18.433 15.4883 29.4686 15.4883ZM30.2966 3.75929C26.8842 3.75929 25.0566 1.98383 25.0566-1.51442L25.0566-49.5347C25.0566-53.0616 26.8842-54.8656 30.2966-54.8656L114.29-54.8656C117.674-54.8656 119.502-53.0616 119.502-49.5347L119.502-1.51442C119.502 1.98383 117.674 3.75929 114.29 3.75929ZM45.2993-63.0633L56.41-63.0633L56.41-71.1379C56.41-74.2736 58.1698-75.9842 61.3415-75.9842L83.2116-75.9842C86.417-75.9842 88.1482-74.2451 88.1482-71.1379L88.1482-63.1205L99.2875-63.1205L99.2875-72.0792C99.2875-81.4213 94.0163-86.0096 84.2004-86.0096L60.2956-86.0096C50.771-86.0096 45.2993-81.4213 45.2993-72.0792ZM50.2052-22.2463C50.2052-19.23 52.2402-17.1429 55.3085-17.1429L63.8131-17.1429L63.8131-8.63836C63.8131-5.53625 65.8716-3.53493 68.9165-3.53493L75.561-3.53493C78.6631-3.53493 80.6644-5.53625 80.6644-8.63836L80.6644-17.1429L89.2262-17.1429C92.2659-17.1429 94.3582-19.23 94.3582-22.2463L94.3582-28.9194C94.3582-31.9592 92.2659-34.0228 89.2262-34.0228L80.6644-34.0228L80.6644-42.4937C80.6644-45.5957 78.6631-47.6257 75.561-47.6257L68.9165-47.6257C65.8716-47.6257 63.8131-45.5957 63.8131-42.4937L63.8131-34.0228L55.28-34.0228C52.2116-34.0228 50.2052-31.9592 50.2052-28.9194Z"/>
</svg>