<svg xmlns="http://www.w3.org/2000/svg" viewBox="8.72266 -86.8071 103.12 103.09">
  <path d="M60.2692 16.2859C88.7361 16.2859 111.844-6.82236 111.844-35.2606C111.844-63.6989 88.7361-86.8071 60.2692-86.8071C31.8309-86.8071 8.72266-63.6989 8.72266-35.2606C8.72266-6.82236 31.8309 16.2859 60.2692 16.2859ZM60.7276-12.8436C47.3618-12.8436 40.2866-22.1851 40.2866-35.1381C40.2866-48.6783 48.0917-57.4642 60.4993-57.4642C67.5322-57.4642 74.3526-54.4013 77.2766-48.1164C77.7674-47.1241 78.1102-45.9502 78.1102-44.9869C78.1102-42.6964 76.3649-41.3459 74.1835-41.3459C72.0931-41.3459 71.0101-42.2159 70.0855-44.182C68.678-47.8468 65.2827-49.9538 61.1559-49.9538C53.1113-49.9538 49.7418-42.9259 49.7418-35.1667C49.7418-28.1871 52.088-21.209 58.4107-19.7935L58.4107-35.2004C58.4107-36.2237 59.0419-36.9121 60.0549-36.9121C61.0445-36.9121 61.6421-36.2237 61.6421-35.2004L61.6421-31.5309L61.8523-31.5309C62.9246-35.1112 66.2039-37.2364 70.2994-36.9795C71.3196-36.8653 72.3913-36.5071 72.7392-35.7753C73.1032-34.96 72.9193-34.4247 72.491-34.0842C72.0914-33.4135 71.5223-33.2393 70.4185-33.2393C69.3441-33.2393 68.207-33.0471 67.1256-32.4761C63.891-31.8481 61.7666-29.2737 61.7666-25.6006L61.7666-19.583C65.4463-19.8167 68.6651-21.7679 70.1584-25.7003C71.0258-27.5572 72.2619-28.5934 74.3188-28.5934C76.6664-28.5934 78.4115-27.3185 78.4115-24.9812C78.4115-24.1031 78.1779-23.2047 77.8869-22.4541C75.3912-16.1169 68.1708-12.8436 60.7276-12.8436Z"/>
</svg>