<svg xmlns="http://www.w3.org/2000/svg" viewBox="8.72266 -86.8071 103.12 103.09">
  <path d="M60.2692 16.2859C88.7361 16.2859 111.844-6.82236 111.844-35.2606C111.844-63.6989 88.7361-86.8071 60.2692-86.8071C31.8309-86.8071 8.72266-63.6989 8.72266-35.2606C8.72266-6.82236 31.8309 16.2859 60.2692 16.2859ZM60.1835-36.9199L35.9427-50.814C36.3737-51.3176 36.9006-51.7017 37.4951-51.9897L56.7976-63.1518C58.945-64.424 61.5078-64.424 63.6552-63.1518L82.9291-51.9897C83.495-51.7017 84.0271-51.3176 84.4346-50.8712ZM57.9472-32.9405L57.9472-6.18311C57.5734-6.31278 57.1998-6.52311 56.7976-6.70995L37.4951-17.9394C35.3763-19.1209 34.104-21.2968 34.104-23.7688L34.104-45.7832C34.104-46.0506 34.1325-46.3568 34.1714-46.5955ZM62.529-33.0261L86.2917-46.6812C86.3202-46.4139 86.3488-46.0791 86.3488-45.8404L86.3488-23.7974C86.3488-21.2968 85.0764-19.0923 82.9862-17.9394L63.7123-6.73849C63.2866-6.49448 62.9077-6.31278 62.529-6.18311Z"/>
</svg>