<svg xmlns="http://www.w3.org/2000/svg" viewBox="12.4609 -98.5511 104.6 126.58">
  <path d="M37.4448-63.682L53.929-63.682L86.7981-30.8514L86.7981 1.78708L99.9081 1.78708C110.985 1.78708 117.06-4.3168 117.06-15.4506L117.06-81.3134C117.06-92.4472 110.985-98.5511 99.9081-98.5511L54.568-98.5511C43.5017-98.5511 37.4448-92.4758 37.4448-81.3134ZM66.3248-79.7684C64.1149-79.7684 62.7103-81.451 62.7103-83.2479L62.7103-84.4528C62.7103-85.9071 63.8866-87.9323 66.3248-87.9323L88.2084-87.9323C90.6416-87.9323 91.8178-85.9071 91.8178-84.4528L91.8178-83.2479C91.8178-81.451 90.3847-79.7684 88.2084-79.7684ZM12.4609 10.7919C12.4609 21.9544 18.5076 28.0296 29.5842 28.0296L74.9242 28.0296C86.0008 28.0296 92.0761 21.9309 92.0761 10.7919L92.0761-25.7892C92.0761-32.8537 91.0817-36.4685 86.6638-40.9437L60.9637-66.8962C56.6602-71.257 52.8503-72.3085 46.2099-72.3085L29.5842-72.3085C18.5178-72.3085 12.4609-66.2046 12.4609-55.0708ZM25.0566 9.41121L25.0566-53.6901C25.0566-57.6032 26.9743-59.7128 31.1366-59.7128L44.3397-59.7128L44.3397-35.8187C44.3397-27.3102 48.3825-23.3269 56.8316-23.3269L79.4517-23.3269L79.4517 9.41121C79.4517 13.3449 77.5341 15.4339 73.4004 15.4339L31.108 15.4339C26.9743 15.4339 25.0566 13.3449 25.0566 9.41121ZM57.7853-33.638C55.6577-33.638 54.6509-34.6448 54.6509-36.7724L54.6509-57.7245L78.4512-33.638Z"/>
</svg>