<svg xmlns="http://www.w3.org/2000/svg" viewBox="-1.11203 -86.8071 112.96 103.09">
  <path d="M3.75022-45.7836C-0.146037-45.7836-1.11203-42.4672 1.00469-39.6621L13.0691-23.4929C14.5938-21.4175 17.2016-21.4175 18.7263-23.4929L30.7622-39.6855C32.8217-42.4672 31.8843-45.7836 28.0452-45.7836ZM111.844-35.2606C111.844-63.7378 88.7178-86.8071 60.2692-86.8071C31.8206-86.8071 8.75128-63.7664 8.72266-35.1698C8.75128-31.6508 11.6263-28.7861 15.135-28.7861C18.6672-28.7861 21.5708-31.6794 21.5708-35.1984C21.5708-56.6631 38.8667-73.9825 60.2692-73.9825C81.6717-73.9825 98.991-56.6631 98.991-35.2606C98.991-13.8582 81.6717 3.46117 60.2692 3.46117C48.5429 3.46117 38.444-1.68733 31.2325-10.0225C28.4304-12.8121 24.6595-13.7133 21.6935-11.1788C18.9948-8.89617 18.6074-4.77686 21.6952-1.52009C31.2807 9.71913 45.3892 16.2859 60.2692 16.2859C88.7178 16.2859 111.844-6.78347 111.844-35.2606ZM55.8649-18.6397C59.707-18.6397 63.5466-20.0906 65.3068-23.6072L65.4988-23.6072L65.5273-21.6366C65.7843-19.5512 67.3399-18.281 69.4538-18.281C71.9675-18.281 73.4374-19.8652 73.4374-22.3503L73.4374-51.7569L76.874-51.7569C77.6533-51.7569 78.2897-52.3933 78.2897-53.1726C78.2897-53.9571 77.6533-54.5649 76.874-54.5649L73.4089-54.5649L73.3803-55.7862C73.152-58.0483 71.7444-59.2613 69.4252-59.2613C67.1009-59.2613 65.6647-58.0483 65.4363-55.7862L65.4078-54.5649L57.1111-54.5649C56.3032-54.5649 55.6668-53.9571 55.6668-53.1726C55.6668-52.3932 56.3032-51.7569 57.1111-51.7569L65.3792-51.7569L65.3792-42.7092L65.1821-42.7092C63.6711-46.2938 59.8183-47.7468 55.8649-47.7468C48.1697-47.7468 42.8546-41.7786 42.8546-33.2673C42.8546-24.9239 48.015-18.6397 55.8649-18.6397ZM58.3059-25.0828C53.8668-25.0828 51.0661-28.5714 51.0661-33.2673C51.0661-38.14 54.0723-41.5037 58.3059-41.5037C62.6724-41.5037 65.3976-37.82 65.3976-33.2673C65.3976-28.509 62.4669-25.0828 58.3059-25.0828ZM45.2723-13.816C45.2723-12.9978 45.9087-12.3665 46.7504-12.3665L73.3404-12.3665C74.1534-12.3665 74.8133-13.003 74.8133-13.816C74.8133-14.6526 74.1534-15.2604 73.3404-15.2604L46.7504-15.2604C45.9087-15.2604 45.2723-14.6526 45.2723-13.816Z" />
</svg>