<svg xmlns="http://www.w3.org/2000/svg" viewBox="9.13989 -88.7865 132.46 106.91">
  <path d="M71.2811 14.2729L98.1659 14.2729C101.617 14.2729 104.464 11.4317 104.464 7.97509C104.464 4.495 101.617 1.67724 98.1659 1.67724L83.8769 1.67724ZM117.849 14.2729L135.302 14.2729C138.754 14.2729 141.6 11.4317 141.6 7.97509C141.6 4.495 138.754 1.67724 135.302 1.67724L117.849 1.67724C114.364 1.67724 111.551 4.495 111.551 7.97509C111.551 11.4317 114.364 14.2729 117.849 14.2729ZM28.6116-46.8618L74.1811-1.32078L110.728-37.868C116.082-43.2118 115.997-50.0228 110.528-55.4809L82.7717-83.266C77.3421-88.7007 70.5077-88.7865 65.1588-83.4375ZM17.4345-10.1431L37.4104 9.85628C45.4998 17.9118 54.7145 18.1223 62.3934 10.4435L67.9693 4.91955L22.3998-40.65L16.8472-35.1312C9.13989-27.4238 9.37891-18.2039 17.4345-10.1431Z"/>
</svg>