<svg xmlns="http://www.w3.org/2000/svg" viewBox="4.56855 -91.4024 128.63 119.21">
  <path d="M90.8259-18.694L90.8259-43.8987C94.9193-41.3288 96.6369-37.6767 96.6369-33.376C96.6369-27.2713 95.9207-20.4713 95.6298-13.8953L102.461-7.0591C102.427-7.42982 102.393-7.83431 102.393-8.23879C102.393-15.5298 103.572-24.5464 103.572-33.376C103.572-41.5391 99.9014-47.9027 90.8259-51.6314L90.8259-77.6019C90.8259-86.4701 85.8753-91.4024 77.0255-91.4024L34.3972-91.4024C29.1368-91.4024 25.4531-89.5037 23.5436-85.9528L33.1355-76.3609L33.1355-77.563C33.164-79.1794 33.9747-80.0342 35.6352-80.0342L76.0444-80.0342C78.1695-80.0342 79.4108-78.7461 79.4108-76.4496L79.4446-30.0805ZM114.599 5.07428C120.282 3.08216 123.418-2.43798 123.418-10.7208L123.418-40.1651C123.418-43.828 125.841-45.1801 128.312-47.2949C131.493-49.9355 133.201-53.2809 133.201-57.2293L133.201-62.8886C133.201-64.0436 132.435-64.8534 131.358-64.8534L128.393-64.8534L128.393-73.1121C128.393-74.5743 127.175-75.7456 125.708-75.7456C124.297-75.7456 123.074-74.5743 123.074-73.1121L123.079-64.8534L117.093-64.8534L117.098-73.1121C117.098-74.5743 115.903-75.7456 114.47-75.7456C113.002-75.7456 111.836-74.5743 111.836-73.1121L111.836-64.8534L108.528-64.8534C107.394-64.8534 106.628-64.0436 106.628-62.8886L106.628-57.2293C106.628-53.2809 108.393-49.9355 111.551-47.2949C114.045-45.1801 116.473-43.828 116.473-40.1651L116.473-10.7208C116.473-4.55223 113.89-1.03207 109.324-1.03207C109.028-1.03207 108.732-1.06062 108.464-1.08916ZM74.3865-49.0093L74.3865-71.4939C74.3865-73.5567 72.8191-74.9865 70.6136-74.9865L40.8091-74.9865C39.5742-74.9865 38.6115-74.2704 38.326-73.2925L38.326-71.1653L63.9694-45.5218L71.0132-45.5218C72.967-45.6646 74.3865-47.0944 74.3865-49.0093ZM18.0165 20.9383L93.4296 20.9383C94.9408 20.9383 96.3092 20.2476 97.3196 19.2273L79.4446 1.41466L79.4446 9.76995L32.017 9.76995L32.0221-47.3568L20.6876-58.6627L20.6876 9.76995L18.0165 9.76995C14.9882 9.76995 12.4609 12.2737 12.4609 15.3255C12.4609 18.4059 14.9595 20.9383 18.0165 20.9383ZM114.861 26.2012C116.503 27.7808 119.109 27.8093 120.665 26.2012C122.231 24.5829 122.302 21.9823 120.665 20.3691L11.9801-88.2584C10.372-89.8614 7.74297-89.8768 6.11947-88.2584C4.56855-86.7024 4.56855-84.011 6.11947-82.4549Z"/>
</svg>