<svg xmlns="http://www.w3.org/2000/svg" viewBox="8.72266 -90.0829 114.99 109.64">
  <path d="M66.2329 19.5564C97.9738 19.5564 123.709-6.17924 123.709-37.9252C123.709-59.3927 111.965-78.0815 95.3877-87.4664C92.2384-89.1924 88.9565-90.0829 85.3821-90.0829L47.0786-90.0829C43.4756-90.0829 40.1937-89.1924 37.0444-87.4664C20.4674-78.0815 8.72266-59.3927 8.72266-37.9252C8.72266-6.17924 34.487 19.5564 66.2329 19.5564ZM66.2329 6.70827C40.9983 6.70827 21.5995-12.7192 21.5995-37.9252C21.5995-54.5458 29.9885-68.4379 42.8489-76.0543C44.1568-76.874 45.6076-77.2347 47.3641-77.2347L85.0966-77.2347C86.8582-77.2347 88.361-76.8455 89.7546-75.9687C102.472-68.4379 110.861-54.5458 110.861-37.9252C110.861-12.7192 91.4338 6.70827 66.2329 6.70827ZM50.6631-56.4161C54.2636-56.4161 57.2307-59.3547 57.2307-62.9838C57.2307-66.5844 54.2636-69.5515 50.6631-69.5515C47.0339-69.5515 44.0953-66.5844 44.0953-62.9838C44.0953-59.3547 47.0339-56.4161 50.6631-56.4161ZM66.2329-56.4161C69.8335-56.4161 72.8006-59.3547 72.8006-62.9838C72.8006-66.5844 69.8335-69.5515 66.2329-69.5515C62.6038-69.5515 59.6652-66.5844 59.6652-62.9838C59.6652-59.3547 62.6038-56.4161 66.2329-56.4161ZM81.7977-56.4161C85.3982-56.4161 88.3653-59.3547 88.3653-62.9838C88.3653-66.5844 85.3982-69.5515 81.7977-69.5515C78.1971-69.5515 75.2299-66.5844 75.2299-62.9838C75.2299-59.3547 78.1971-56.4161 81.7977-56.4161ZM66.2329-40.8514C69.8335-40.8514 72.8006-43.79 72.8006-47.4191C72.8006-51.0196 69.8335-53.9868 66.2329-53.9868C62.6038-53.9868 59.6652-51.0196 59.6652-47.4191C59.6652-43.79 62.6038-40.8514 66.2329-40.8514ZM42.4027-23.6814C50.284-23.6814 56.67-30.0622 56.67-37.9252C56.67-45.8117 50.284-52.1925 42.4027-52.1925C34.5448-52.1925 28.1589-45.8117 28.1589-37.9252C28.1589-30.0622 34.5448-23.6814 42.4027-23.6814ZM90.0294-23.6814C97.8873-23.6814 104.302-30.0622 104.302-37.9252C104.302-45.8117 97.8873-52.1925 90.0294-52.1925C82.1767-52.1925 75.7621-45.8117 75.7621-37.9252C75.7621-30.0622 82.1767-23.6814 90.0294-23.6814ZM46.6051-6.65982C49.8317-6.65982 52.5497-9.37774 52.5497-12.6044C52.5497-15.8597 49.8317-18.6062 46.6051-18.6062C43.3498-18.6062 40.6319-15.8597 40.6319-12.6044C40.6319-9.37774 43.3498-6.65982 46.6051-6.65982ZM66.2329-2.69847C71.6324-2.69847 76.1389-7.20501 76.1389-12.6044C76.1389-18.061 71.6324-22.539 66.2329-22.539C60.8049-22.539 56.2932-18.061 56.2932-12.6044C56.2932-7.20501 60.8049-2.69847 66.2329-2.69847ZM85.8271-6.65982C89.1109-6.65982 91.8288-9.37774 91.8288-12.6044C91.8288-15.8597 89.1109-18.6062 85.8271-18.6062C82.6004-18.6062 79.8824-15.8597 79.8824-12.6044C79.8824-9.37774 82.6004-6.65982 85.8271-6.65982Z"/>
</svg>