<svg xmlns="http://www.w3.org/2000/svg" viewBox="8.72266 -86.8071 103.12 103.09">
  <path d="M60.2692 16.2859C88.7361 16.2859 111.844-6.82236 111.844-35.2606C111.844-63.6989 88.7361-86.8071 60.2692-86.8071C31.8309-86.8071 8.72266-63.6989 8.72266-35.2606C8.72266-6.82236 31.8309 16.2859 60.2692 16.2859ZM61.3191-53.7711C57.9649-53.7711 55.2908-56.4451 55.2908-59.7707C55.2908-63.0678 57.9649-65.7704 61.3191-65.7704C64.5876-65.7704 67.2616-63.0678 67.2616-59.7707C67.2616-56.4451 64.5876-53.7711 61.3191-53.7711ZM82.56-45.1811L62.5704-45.1811C61.6255-45.1811 60.9244-44.7397 60.4545-43.857L55.5165-33.9811L64.707-24.7283C65.234-24.1728 65.5741-23.4302 65.5741-22.6878L65.5741-7.92848C65.5741-6.25667 64.2423-4.98717 62.5756-4.98717C60.9895-4.98717 59.72-6.25667 59.72-7.92848L59.72-21.1742L50.1425-28.4799C49.6337-28.8304 48.956-28.7915 48.6055-28.2255L40.8014-16.8023C39.7525-15.2888 37.7692-15.1304 36.562-16.3999L27.047-25.9486C25.8736-27.1221 25.9022-28.9238 27.047-30.1258C28.1634-31.2706 30.0169-31.3043 31.2241-30.1258L37.6783-23.643L49.4624-47.206C50.7268-49.6645 53.0606-51.0924 55.7633-51.0924L82.56-51.0924C84.2267-51.0924 85.5871-49.7944 85.5871-48.151C85.5871-46.4792 84.2267-45.1811 82.56-45.1811ZM66.6022-33.1349C65.8546-33.1349 65.1121-33.4413 64.5514-34.0019L60.4237-38.1348L62.5656-42.3564C62.6719-42.5689 62.7861-42.626 63.0558-42.626L64.2867-42.626L67.8666-39.0176L75.8826-39.0176C77.5258-39.0176 78.7954-37.7144 78.7954-36.0711C78.7954-34.4667 77.5258-33.1349 75.8826-33.1349ZM81.4978-38.7297C81.4978-41.4659 84.6417-43.6415 88.4944-43.6415C92.3237-43.6415 95.4338-41.4659 95.4338-38.7297C95.4338-35.9129 92.3237-33.7608 88.4944-33.7608C84.6417-33.7608 81.4978-35.9129 81.4978-38.7297Z"/>
</svg>