<svg xmlns="http://www.w3.org/2000/svg" viewBox="-1.35255 -100.997 115.43 119.52">
  <path d="M6.94896-92.8713L23.0417-76.75C25.8106-73.9525 29.9403-75.6147 30.1272-79.5445L31.0949-96.7953C31.2195-99.3796 29.6225-100.997 26.9891-100.867L9.70975-99.9906C5.98515-99.8037 4.06062-95.8974 6.94896-92.8713ZM6.22475-70.0902L23.2335-87.099C24.8415-88.7641 24.8129-91.4838 23.2907-93.0631C21.6256-94.6763 18.9345-94.6763 17.2642-93.0631L0.255467-76.0544C-1.35255-74.3893-1.32393-71.6695 0.198296-70.0902C1.86341-68.4771 4.5545-68.4771 6.22475-70.0902ZM43.7477-73.6075L43.7477-50.7925C43.7477-46.8157 47.8308-45.1068 50.7008-47.7327L63.5214-59.2824C65.4615-61.0355 65.5288-63.3543 63.5214-65.1463L50.7008-76.6672C47.8306-79.2362 43.7477-77.6697 43.7477-73.6075ZM25.031-58.0034L51.4411-58.0034C53.8362-58.0034 55.6831-59.8452 55.6831-62.2168C55.6831-64.5547 53.8362-66.4016 51.4411-66.4016L25.031-66.4016C22.6022-66.4016 20.7604-64.5547 20.7604-62.2168C20.7604-59.8452 22.6022-58.0034 25.031-58.0034ZM6.94896-31.6143C4.06062-28.6168 5.98515-24.7105 9.70975-24.5236L26.9891-23.6183C29.6225-23.4886 31.2195-25.1347 31.0949-27.7189L30.1272-44.9411C29.9403-48.8995 25.8106-50.5331 23.0417-47.7642ZM0.255467-48.4313L17.1843-31.5025C18.8545-29.8893 21.5742-29.8893 23.2393-31.5025C24.7616-33.0869 24.7902-35.8015 23.1822-37.4717L6.22475-54.424C4.5545-56.0372 1.86341-56.0372 0.198296-54.424C-1.32393-52.8447-1.35255-50.0964 0.255467-48.4313ZM99.691-60.1917C107.677-60.1917 114.079-66.7991 114.079-74.4837C114.079-82.5033 107.677-88.9861 99.691-88.9861C91.7-88.9861 85.3469-82.5033 85.3469-74.4837C85.3469-66.7088 91.7-60.1917 99.691-60.1917ZM15.0244 15.4819C17.9866 18.5219 22.8647 18.2961 26.4733 14.563L48.8317-8.52755C49.6598-9.38427 50.2725-9.51408 51.4641-9.05454L68.2265-2.76697C79.4215 1.42332 91.224-2.94181 96.483-12.5021L107.035-31.701C111.527-39.8789 110.047-47.9868 102.409-52.19C94.9399-56.3412 87.2215-53.2907 82.673-45.0453L68.1914-18.6965L56.0983-23.1646C49.4833-25.6152 43.9173-24.8208 38.5952-19.3171L15.5177 4.73658C11.9713 8.40745 12.3063 12.7923 15.0244 15.4819Z"/>
</svg>