<svg xmlns="http://www.w3.org/2000/svg" viewBox="11.9443 -87.6287 110.27 104.7">
  <path d="M43.761-64.6367C50.1193-64.6367 55.2857-69.8031 55.2857-76.1664C55.2857-82.496 50.1193-87.6287 43.761-87.6287C37.455-87.6287 32.2599-82.496 32.2599-76.1664C32.2599-69.8031 37.455-64.6367 43.761-64.6367ZM118.45 5.2715L85.3217-12.5698L66.1926-25.8938C64.9411-26.7662 63.8143-27.8022 62.8172-28.9628C64.5905-30.3361 65.276-32.587 64.7204-34.8043L60.9559-50.0157C59.5721-55.6988 54.4731-59.5723 48.6654-59.5723L36.6915-59.5723C32.9088-59.5723 30.2088-58.6532 27.6853-56.1298L14.0835-42.4994C12.274-40.6899 11.9443-37.8471 13.2268-35.5833L22.6771-19.001L22.6771 10.3159C22.6771 13.3792 25.2759 16.0066 28.3914 16.0066C31.5457 16.0066 34.1158 13.3792 34.1158 10.3159L34.1158-14.3773L62.6801-12.2846L80.2774-2.28389L113.071 15.2745C116.373 17.0737 119.618 15.3705 120.81 13.0106C122.217 10.225 121.173 6.74091 118.45 5.2715ZM25.2833-37.4785L33.1919-45.4779L39.6178-28.9938L34.7288-26.2235L31.7611-26.2235Z"/>
</svg>