<svg xmlns="http://www.w3.org/2000/svg" viewBox="12.4609 -91.6781 98.2 113.68">
  <path d="M34.5462-78.8359C49.6296-78.8359 65.0205-55.2267 89.6105-55.2267C103.126-55.2267 110.659-64.0259 110.659-74.7852C110.659-78.3604 109.754-82.1504 107.882-85.7982C104.967-91.5458 96.0668-87.6346 99.3342-81.3336C100.676-78.7453 101.32-76.3239 101.32-74.0838C101.32-68.5731 96.9741-64.8806 89.6105-64.8806C70.215-64.8806 54.8292-88.4898 34.5462-88.4898C20.675-88.4898 12.4609-79.0814 12.4609-68.2585C12.4609-64.8834 13.2942-61.35 15.0518-57.9594C17.966-52.222 26.7523-56.3047 23.6279-62.4005C22.4001-64.7367 21.8913-66.8678 21.8913-68.9731C21.8913-74.7027 26.6763-78.8359 34.5462-78.8359ZM57.4936-28.6951L66.5808-28.7053C65.0754-48.4484 79.4219-57.4702 79.4219-74.4943C79.4219-84.2827 72.9671-91.6781 64.0742-91.6781C57.0712-91.6781 51.1227-86.6897 50.2045-79.8293L59.1674-76.944C59.3409-79.9921 61.3103-82.0477 64.0742-82.0477C67.435-82.0477 69.7966-79.0857 69.7966-74.7798C69.7966-63.0257 56.045-52.422 57.4936-28.6951ZM21.2134-25.402C21.2134-0.12617 41.1665 22.0025 71.146 22.0025C85.5571 22.0025 97.2924 15.0104 97.2924 5.77456C97.2924 1.46594 94.3052-1.97694 89.3748-2.63437C86.524-3.06289 84.4982-1.68157 84.0696 1.11769C83.2822 6.6878 79.137 10.9765 73.2674 10.9765C69.0905 10.9765 66.6213 8.83984 66.6213 5.8259C66.6213-4.7503 101.464-5.51406 101.464-30.31C101.464-41.8265 93.4561-49.849 82.4235-49.849C72.8619-49.849 65.5364-44.6989 62.0957-36.18C63.1245-47.7809 55.6566-55.5315 45.3026-55.5315C30.6106-55.5315 21.2134-42.3675 21.2134-25.402Z"/>
</svg>