<svg xmlns="http://www.w3.org/2000/svg" viewBox="12.4609 -76.324 146.49 82.13">
  <path d="M12.4609-3.27539C12.4609 2.73338 16.1868 5.80276 20.5986 5.80276C22.4657 5.80276 24.4471 5.26784 26.3274 4.17971L79.5117-26.7739C83.6314-29.1896 85.9034-31.5708 85.9034-35.2606C85.9034-38.9504 83.6314-41.3317 79.5117-43.7474L26.3274-74.701C24.4471-75.7891 22.4657-76.324 20.5986-76.324C16.1868-76.324 12.4609-73.2547 12.4609-67.2459ZM85.54-3.27539C85.54 2.73338 89.2659 5.80276 93.6776 5.80276C95.5447 5.80276 97.4975 5.26784 99.3778 4.17971L152.562-26.7739C156.71-29.1896 158.954-31.5708 158.954-35.2606C158.954-38.9504 156.71-41.3317 152.562-43.7474L99.3778-74.701C97.4975-75.7891 95.5447-76.324 93.6776-76.324C89.2659-76.324 85.54-73.2547 85.54-67.2459Z"/>
</svg>