<svg xmlns="http://www.w3.org/2000/svg" viewBox="12.4609 -76.324 161.12 82.13">
  <path d="M12.4609-3.27539C12.4609 2.73338 16.1868 5.80276 20.5986 5.80276C22.4657 5.80276 24.4471 5.26784 26.3274 4.17971L79.5117-26.7739C83.6314-29.1896 85.9034-31.5708 85.9034-35.2606C85.9034-38.9504 83.6314-41.3317 79.5117-43.7474L26.3274-74.701C24.4471-75.7891 22.4657-76.324 20.5986-76.324C16.1868-76.324 12.4609-73.2547 12.4609-67.2459ZM25.0566-11.2254L25.0566-59.2958C25.0566-59.9495 25.4743-60.3907 26.0738-60.3907C26.271-60.3907 26.4733-60.3284 26.6755-60.2222L68.0942-36.1378C68.5068-35.9121 68.665-35.5721 68.665-35.2606C68.665-34.9492 68.5068-34.6092 68.0942-34.3835L26.6755-10.2991C26.4733-10.1929 26.271-10.1306 26.0738-10.1306C25.4743-10.1306 25.0566-10.5717 25.0566-11.2254ZM85.6542-3.27539C85.6542 2.73338 89.3801 5.80276 93.7918 5.80276C95.6589 5.80276 97.6117 5.26784 99.492 4.17971L152.676-26.7739C156.825-29.1896 159.068-31.5708 159.068-35.2606C159.068-38.9504 156.825-41.3317 152.676-43.7474L99.492-74.701C97.6117-75.7891 95.6589-76.324 93.7918-76.324C89.3801-76.324 85.6542-73.2547 85.6542-67.2459ZM98.2499-11.2254L98.2499-59.2958C98.2499-59.9495 98.6676-60.3907 99.2384-60.3907C99.4356-60.3907 99.6665-60.3284 99.8687-60.2222L141.287-36.1378C141.7-35.9121 141.858-35.5721 141.858-35.2606C141.858-34.9492 141.7-34.6092 141.287-34.3835L99.8687-10.2991C99.6665-10.1929 99.4356-10.1306 99.2384-10.1306C98.6676-10.1306 98.2499-10.5717 98.2499-11.2254ZM166.145 5.80276C170.453 5.80276 173.585 2.69944 173.585-1.40886L173.585-69.1124C173.585-73.2207 170.453-76.324 166.145-76.324C161.865-76.324 158.705-73.2207 158.705-69.1124L158.705-1.40886C158.705 2.69944 161.865 5.80276 166.145 5.80276Z"/>
</svg>