<svg xmlns="http://www.w3.org/2000/svg" viewBox="12.4609 -83.4142 122.54 96.31">
  <path d="M128.45-83.4142C124.855-83.4142 121.871-80.4013 121.871-76.8302L121.871-41.8447L98.543-41.8447L98.543-76.8302C98.543-80.4013 95.5301-83.4142 91.964-83.4142C88.3929-83.4142 85.4086-80.4013 85.4086-76.8302L85.4086-41.8447L62.0574-41.8447L62.0574-76.8302C62.0574-80.4013 59.068-83.4142 55.502-83.4142C51.9359-83.4142 48.923-80.4013 48.923-76.8302L48.923-41.8447L25.5953-41.8447L25.5953-76.8302C25.5953-80.4013 22.6111-83.4142 19.045-83.4142C15.4452-83.4142 12.4609-80.4013 12.4609-76.8302L12.4609-35.2606C12.4609-31.6946 15.4452-28.6766 19.045-28.6766L48.923-28.6766L48.923 6.30887C48.923 9.88004 51.9359 12.8929 55.502 12.8929C59.068 12.8929 62.0574 9.88004 62.0574 6.30887L62.0574-28.6766L85.4086-28.6766L85.4086 6.30887C85.4086 9.88004 88.3929 12.8929 91.964 12.8929C95.5301 12.8929 98.543 9.88004 98.543 6.30887L98.543-28.6766L121.871-28.6766L121.871 6.30887C121.871 9.88004 124.855 12.8929 128.45 12.8929C132.016 12.8929 135.005 9.88004 135.005 6.30887L135.005-76.8302C135.005-80.4013 132.016-83.4142 128.45-83.4142Z"/>
</svg>