<svg xmlns="http://www.w3.org/2000/svg" viewBox="12.4609 -89.6624 110.05 108.94">
  <path d="M62.7891-15.3318C62.7891-5.07626 69.8391 1.23336 79.3492 1.23336C85.6752 1.23336 90.2272-1.19518 93.5142-6.48961C96.155-10.2169 97.8765-15.7772 99.0507-19.3924C99.752-21.759 100.786-24.8196 100.958-26.1081C101.129-27.6113 100.218-28.8161 98.7816-29.0159C97.1088-29.2443 95.951-28.2935 95.0518-26.4177L91.9156-19.4487C91.6458-18.8496 91.4126-18.6472 91.0936-18.6472C90.7592-18.6472 90.5261-18.9039 90.5261-19.4845L90.5261-43.4239C90.5261-44.9843 89.3005-46.2436 87.6778-46.2436C86.0601-46.2436 84.8579-44.9557 84.8579-43.4239L84.8579-25.7308C84.3286-25.9097 83.8175-26.0498 83.2156-26.1612L83.2156-46.4854C83.2156-48.103 81.9899-49.3338 80.4009-49.3338C78.7547-49.3338 77.5811-48.103 77.5811-46.4854L77.5811-26.4156C76.9923-26.3533 76.4321-26.3093 75.8536-26.2081L75.8536-44.6511C75.8536-46.2688 74.5994-47.4995 72.9532-47.4995C71.3927-47.4995 70.1282-46.2688 70.1282-44.6511L70.1282-24.6502C69.516-24.3803 69.01-24.0716 68.5093-23.7914L68.5093-37.6602C68.5093-39.3064 67.2265-40.5371 65.7181-40.5371C64.0719-40.5371 62.7891-39.3064 62.7891-37.6602ZM29.6986-5.00623L43.92-5.00623L43.92-17.6019L31.0794-17.6019C27.1457-17.6019 25.0566-19.5196 25.0566-23.6819L25.0566-70.9867C25.0566-75.1491 27.1457-77.0667 31.0794-77.0667L78.4987-77.0667C82.4118-77.0667 84.5214-75.1491 84.5214-70.9867L84.5214-60.5255L97.1171-60.5255L97.1171-72.5392C97.1171-83.6055 91.0132-89.6624 79.8794-89.6624L29.6986-89.6624C18.5362-89.6624 12.4609-83.6158 12.4609-72.5392L12.4609-22.1294C12.4609-11.0529 18.5362-5.00623 29.6986-5.00623ZM55.0873 19.276L105.268 19.276C116.402 19.276 122.506 13.2191 122.506 2.15279L122.506-48.257C122.506-59.3233 116.402-65.3802 105.268-65.3802L55.0873-65.3802C43.9249-65.3802 37.8496-59.3335 37.8496-48.257L37.8496 2.15279C37.8496 13.2294 43.9249 19.276 55.0873 19.276ZM56.468 6.6803C52.5344 6.6803 50.4453 4.76265 50.4453 0.600323L50.4453-46.7045C50.4453-50.8668 52.5344-52.7845 56.468-52.7845L103.887-52.7845C107.8-52.7845 109.91-50.8668 109.91-46.7045L109.91 0.600323C109.91 4.76265 107.8 6.6803 103.887 6.6803Z"/>
</svg>