<svg xmlns="http://www.w3.org/2000/svg" viewBox="12.6847 -78.6812 71.02 86.81">
  <path d="M20.5735 8.12619L76.3825 8.12619C80.6625 8.12619 83.7088 5.34241 83.7088 1.17151C83.7088-3.02296 80.6339-5.77819 76.3825-5.77819L36.6308-5.77819L36.6308-6.26606C43.8345-9.6401 46.5524-18.0673 46.5524-25.2269C46.5524-35.9125 42.2054-40.7074 42.2054-50.1769C42.2054-60.4653 50.8754-65.114 61.3764-65.114C64.1883-65.114 66.7691-64.8237 69.1313-64.4073C71.0531-64.1374 73.8182-63.563 75.5254-63.563C79.1148-63.563 81.5273-65.4901 81.5273-69.1366C81.5273-72.9595 78.9765-74.9334 76.0107-76.1592C70.7607-78.3398 64.3497-78.6812 58.7202-78.6812C40.3884-78.6812 25.1042-69.7564 25.1042-52.0031C25.1042-42.1378 30.0278-33.9784 30.0278-24.4789C30.0278-16.8281 26.1758-9.76912 18.8111-6.46679C16.0005-4.9373 13.4604-2.56368 13.4604 1.15588C13.4604 5.14712 16.3014 8.12619 20.5735 8.12619ZM12.6847-28.6326C12.6847-26.8267 14.041-25.504 15.8418-25.504L69.2903-25.504C71.0859-25.504 72.4474-26.8318 72.4474-28.6326C72.4474-30.3996 71.0859-31.7325 69.2903-31.7325L15.8418-31.7325C14.041-31.7325 12.6847-30.3996 12.6847-28.6326ZM12.6847-42.1414C12.6847-40.3641 14.041-39.0414 15.8418-39.0414L69.2903-39.0414C71.0859-39.0414 72.4474-40.3693 72.4474-42.1414C72.4474-43.937 71.0859-45.2699 69.2903-45.2699L15.8418-45.2699C14.041-45.2699 12.6847-43.937 12.6847-42.1414Z"/>
</svg>