<svg xmlns="http://www.w3.org/2000/svg" viewBox="12.4609 -92.8163 104.73 115.03">
  <path d="M35.5383-31.6867C33.2574-31.6867 31.5249-33.6193 31.5249-35.7287C31.5249-37.9523 33.2289-39.8277 35.5383-39.8277L63.0534-39.8277C65.2769-39.8277 66.981-37.9808 66.981-35.7287C66.981-33.6479 65.2484-31.6867 63.0534-31.6867ZM35.5383-18.5615C33.2574-18.5615 31.5249-20.4031 31.5249-22.5462C31.5249-24.7698 33.2289-26.6452 35.5383-26.6452L54.8919-26.6452C57.092-26.6452 58.8246-24.8269 58.8246-22.5462C58.8246-20.4031 57.0635-18.5615 54.8919-18.5615ZM86.7056-17.8169C79.9117-17.8169 74.421-23.279 74.421-30.0443C74.421-36.8096 79.9117-42.2665 86.7056-42.2665C93.4086-42.2665 98.8992-36.8096 98.8992-30.0443C98.8992-23.279 93.4086-17.8169 86.7056-17.8169ZM29.6986 22.2092L99.9497 22.2092C111.084 22.2092 117.187 16.1523 117.187 5.08602L117.187-45.2441C117.187-56.2869 111.084-62.3673 99.9497-62.3673L29.6986-62.3673C18.5362-62.3673 12.4609-56.3258 12.4609-45.2441L12.4609 5.08602C12.4609 16.1626 18.5362 22.2092 29.6986 22.2092ZM23.9812-70.4598L105.719-70.4598C105.067-75.4218 102.389-78.4009 96.6842-78.4009L33.0214-78.4009C27.2828-78.4009 24.6103-75.4218 23.9812-70.4598ZM33.702-85.5328L95.975-85.5328C95.5749-90.2037 92.645-92.8163 87.6493-92.8163L42.0276-92.8163C37.0605-92.8163 34.1021-90.2037 33.702-85.5328Z"/>
</svg>