<svg xmlns="http://www.w3.org/2000/svg" viewBox="8.72266 -86.1735 122 101.81">
  <path d="M8.72266-25.2444C8.72266-10.2232 14.1407 3.51034 23.1128 14.1442C24.3329 15.5797 26.3474 15.6032 27.6973 14.2299L39.7034 2.20033C40.7856 1.14673 40.8143-0.332586 39.8566-1.53934C34.6045-8.19885 31.5854-16.379 31.5854-25.2444C31.5854-44.567 45.9494-60.5251 64.5632-63.0668C66.1622-63.2771 67.2966-64.4789 67.2966-66.0728L67.2966-82.8326C67.2966-84.7614 65.8274-86.1735 63.8986-85.9866C32.9914-83.0529 8.72266-56.9798 8.72266-25.2444ZM130.719-25.2444C130.719-56.9798 106.512-83.0529 75.5426-85.9866C73.6138-86.1735 72.1446-84.7614 72.1446-82.8326L72.1446-66.0728C72.1446-64.4789 73.279-63.2771 74.8831-63.0668C93.4918-60.5251 107.884-44.567 107.884-25.2444C107.884-16.379 104.865-8.19885 99.5561-1.51079C98.627-0.304038 98.6556 1.17528 99.7092 2.22888L111.72 14.2584C113.07 15.6317 115.09 15.6032 116.315 14.1624C125.334 3.50008 130.719-10.2283 130.719-25.2444ZM44.904-7.93727C47.1556-7.93727 48.397-9.35006 48.397-11.6068L48.397-20.9052L52.045-20.9052L56.2181-10.9132C56.9478-9.10062 58.0646-7.93727 59.9628-7.93727C61.8434-7.93727 63.3182-9.2256 63.2611-11.2821C63.2611-12.1833 62.9365-12.9283 62.4638-13.9829L58.7687-22.2426C62.0079-24.1975 63.5731-27.2998 63.5731-31.3778C63.5731-38.3897 59.2869-41.9826 52.3706-41.9826L44.8702-41.9826C42.6472-41.9826 41.3487-40.6219 41.3487-38.3652L41.3487-11.6068C41.3487-9.35006 42.6472-7.93727 44.904-7.93727ZM48.397-25.8708L48.397-36.5783L51.7551-36.5783C54.7212-36.5783 56.4443-34.4763 56.4443-31.2584C56.4443-28.2555 54.9703-25.8708 51.7316-25.8708ZM70.604-7.93727C72.5699-7.93727 73.6684-9.17855 73.6684-11.173L73.6684-31.9378L73.985-31.9378L79.5437-11.3782C79.9643-9.75281 80.9904-8.56833 82.8109-8.56833C84.6131-8.56833 85.5299-9.6436 86.0415-11.4406L91.6236-31.9378L91.9117-31.9378L91.9117-11.173C91.9117-9.17855 93.0101-7.93727 94.9995-7.93727C96.9602-7.93727 98.0588-9.17855 98.0588-11.173L98.0588-37.7781C98.0588-40.8944 96.2642-42.4993 93.257-42.4993C90.7019-42.4993 89.0706-41.2526 88.4111-38.7262L82.9276-17.7744L82.72-17.7744L77.1352-38.7313C76.4523-41.3565 74.7251-42.4993 72.3231-42.4993C69.2873-42.4993 67.5162-40.8036 67.5162-37.7781L67.5162-11.173C67.5162-9.17855 68.6147-7.93727 70.604-7.93727Z"/>
</svg>