<svg xmlns="http://www.w3.org/2000/svg" viewBox="8.72266 -86.8071 103.12 103.09">
  <path d="M60.2692 16.2859C88.7463 16.2859 111.844-6.78347 111.844-35.2606C111.844-63.7378 88.7463-86.8071 60.2692-86.8071C31.8206-86.8071 8.72266-63.7378 8.72266-35.2606C8.72266-6.78347 31.8206 16.2859 60.2692 16.2859ZM60.2692 3.46117C38.8667 3.46117 21.5708-13.8582 21.5708-35.2606C21.5708-56.6631 38.8667-73.9825 60.2692-73.9825C81.6717-73.9825 98.991-56.6631 98.991-35.2606C98.991-13.8582 81.6717 3.46117 60.2692 3.46117ZM48.2691-13.5144C50.7024-13.5144 52.149-15.0416 52.149-17.5371L52.149-43.9004L52.38-43.9004L64.2569-17.5422C65.3034-15.0312 67.1081-13.5144 69.9415-13.5144C73.2298-13.5144 75.3197-15.6238 75.3197-18.6304L75.3197-53.1717C75.3197-55.6622 73.9354-57.1372 71.4684-57.1372C68.978-57.1372 67.5937-55.6908 67.5937-53.1717L67.5937-26.6838L67.3342-26.6838L55.4521-53.1094C54.4628-55.5583 52.6631-57.1372 49.7675-57.1372C46.7419-57.1372 44.3945-55.2568 44.3945-52.0498L44.3945-17.5371C44.3945-15.0416 45.8125-13.5144 48.2691-13.5144ZM40.1416-35.3961C40.1416-34.5829 40.8066-33.918 41.6197-33.918L78.3748-33.918C79.188-33.918 79.8243-34.5829 79.8243-35.3961C79.8243-36.1806 79.188-36.8455 78.3748-36.8455L41.6197-36.8455C40.8066-36.8455 40.1416-36.1806 40.1416-35.3961Z" />
</svg>