<svg xmlns="http://www.w3.org/2000/svg" viewBox="8.72266 -86.8071 103.12 103.09">
  <path d="M60.2692 16.2859C88.7463 16.2859 111.844-6.78347 111.844-35.2606C111.844-63.7378 88.7463-86.8071 60.2692-86.8071C31.8206-86.8071 8.72266-63.7378 8.72266-35.2606C8.72266-6.78347 31.8206 16.2859 60.2692 16.2859ZM60.2692 3.46117C38.8667 3.46117 21.5708-13.8582 21.5708-35.2606C21.5708-56.6631 38.8667-73.9825 60.2692-73.9825C81.6717-73.9825 98.991-56.6631 98.991-35.2606C98.991-13.8582 81.6717 3.46117 60.2692 3.46117ZM60.2692-12.6224C72.7441-12.6224 81.7793-21.4707 81.7793-35.4274C81.7793-49.4414 72.7441-58.2845 60.2692-58.2845C47.7942-58.2845 38.759-49.4414 38.759-35.4274C38.759-21.4707 47.7942-12.6224 60.2692-12.6224ZM60.2692-22.109C54.5568-22.109 50.5655-26.9705 50.5655-35.4274C50.5655-43.9364 54.5568-48.803 60.2692-48.803C65.9815-48.803 69.9493-43.9364 69.9493-35.4274C69.9493-26.9705 65.9815-22.109 60.2692-22.109Z" />
</svg>