<svg xmlns="http://www.w3.org/2000/svg" viewBox="12.4609 -81.3121 117.73 92.16">
  <path d="M51.4107 10.8479L91.2392 10.8479C120.313 10.8479 130.194 0.623551 130.194-27.6814L130.194-42.7828C130.194-71.0877 120.313-81.3121 91.2392-81.3121L51.4107-81.3121C22.3424-81.3121 12.4609-71.0877 12.4609-42.7828L12.4609-27.6814C12.4609 0.623551 22.3424 10.8479 51.4107 10.8479ZM51.3634-14.7018C48.7189-14.7018 46.9632-16.2345 46.9632-19.25L46.9632-50.6016C46.9632-53.495 48.6255-55.212 51.3685-55.212L60.5651-55.212C67.8688-55.212 72.0281-49.074 72.0281-41.3863C72.0281-33.7556 67.8218-27.6463 59.9884-27.6463L55.7452-27.6463L55.7452-19.25C55.7452-16.4212 54.2231-14.7018 51.3634-14.7018ZM55.7452-34.3735L58.2039-34.3735C62.0243-34.3735 63.337-37.5087 63.337-41.3863C63.337-45.355 61.9098-48.3082 58.2896-48.3082L55.7452-48.3082ZM88.5388-14.6447C86.0712-14.6447 84.1048-16.5875 84.1048-19.05L84.1048-46.885L80.5501-44.062C79.8723-43.5036 79.2566-43.2646 78.4255-43.2646C76.8539-43.2646 75.4462-44.3401 75.4462-46.3918C75.4462-47.8621 76.1192-48.9454 77.3165-49.8518L82.071-53.508C83.6032-54.6922 85.3698-55.786 87.814-55.786C90.9961-55.786 92.9389-54.0432 92.9389-50.8611L92.9389-19.05C92.9389-16.5875 90.9675-14.6447 88.5388-14.6447Z"/>
</svg>