<svg xmlns="http://www.w3.org/2000/svg" viewBox="11.7756 -89.9601 88.66 109.27">
  <path d="M37.3879 19.3111L83.4087 19.3111C94.0251 19.3111 100.371 13.0068 100.371 2.4344L100.433-65.7981C100.433-75.8014 94.3705-82.7863 83.6612-85.3824C71.8272-88.2147 59.7814-89.5645 46.822-89.7362C27.665-89.9601 16.8381-82.7709 14.6027-66.1958C11.9002-46.131 11.7756-18.7308 14.234-0.626063C15.8281 11.5659 24.7598 19.3111 37.3879 19.3111ZM36.7662-45.2379C34.457-45.2379 32.6388-47.0795 32.6388-49.3366C32.6388-51.7028 34.457-53.521 36.7662-53.521L77.2498-53.521C79.5875-53.521 81.4343-51.7028 81.4343-49.3366C81.4343-47.0795 79.5875-45.2379 77.2498-45.2379ZM36.7662-27.582C34.457-27.582 32.6388-29.4236 32.6388-31.7093C32.6388-34.0235 34.457-35.8651 36.7662-35.8651L77.2498-35.8651C79.5875-35.8651 81.4343-34.0235 81.4343-31.7093C81.4343-29.4236 79.5875-27.582 77.2498-27.582ZM36.7662-9.92606C34.457-9.92606 32.6388-11.7443 32.6388-14.082C32.6388-16.3676 34.457-18.2092 36.7662-18.2092L77.2498-18.2092C79.5875-18.2092 81.4343-16.3676 81.4343-14.082C81.4343-11.7443 79.5875-9.92606 77.2498-9.92606Z"/>
</svg>