<svg xmlns="http://www.w3.org/2000/svg" viewBox="12.6037 -83.27 123.36 115.68">
  <path d="M43.1117 11.7256C61.1817 11.7256 74.5764 2.52416 74.5764-15.6571C74.5764-30.7024 65.7452-37.1576 51.5131-41.4469L43.9825-43.7134C36.6765-45.899 30.4022-49.4296 30.4022-57.1528C30.4022-64.4348 35.9831-68.3642 42.7615-68.3642C49.2612-68.3642 54.7773-65.101 56.7126-58.0901C58.2602-54.1242 60.9715-52.7346 64.8956-52.7346C69.4242-52.7917 72.2554-55.5806 72.2554-59.8815C72.2554-61.2052 72.0218-62.5865 71.583-63.9002C67.8576-76.2243 56.1393-82.3884 42.7618-82.3884C26.1716-82.3884 13.1353-72.5531 13.1353-55.8725C13.1353-41.5599 21.7746-34.3122 35.5653-30.0126L42.9583-27.7125C50.5416-25.3817 57.3044-22.0532 57.3044-14.0286C57.3044-6.5759 50.9853-2.30388 43.4029-2.30388C36.2772-2.30388 30.2368-5.91501 28.232-12.8257C26.6272-16.6645 24.1107-18.3578 20.1634-18.3578C15.9771-18.3578 12.6037-15.4491 12.6037-10.9201C12.6037-8.96401 12.9568-7.40902 13.5386-5.78076C17.2798 5.85583 29.4337 11.7256 43.1117 11.7256ZM87.7826 32.4067C92.3379 32.4067 94.8981 29.6485 95.6851 24.787L113.255-73.5052C113.432-74.474 113.551-75.6424 113.551-76.8636C113.523-80.4911 110.528-83.27 106.459-83.27C101.846-83.27 99.3146-80.6213 98.5563-75.9601L81.0149 21.8506C80.7811 23.072 80.633 24.5552 80.633 25.7477C80.6615 29.3466 83.3982 32.4067 87.7826 32.4067ZM126.15 11.7256C131.79 11.7256 135.961 7.58338 135.961 2.0003C135.961-3.58792 131.79-7.72496 126.15-7.72496C120.476-7.72496 116.311-3.58792 116.311 2.0003C116.311 7.58338 120.476 11.7256 126.15 11.7256Z"/>
</svg>