<svg xmlns="http://www.w3.org/2000/svg" viewBox="8.72266 -86.145 122 101.9">
  <path d="M69.7375-63.3109C78.4603-63.3109 86.4925-60.3773 92.9334-55.4397C94.1587-54.5156 95.7239-54.6116 96.8583-55.746L108.716-67.5987C110.095-68.9771 110.037-70.9967 108.54-72.2219C97.9915-80.932 84.4629-86.145 69.7375-86.145C55.0069-86.145 41.4497-80.932 30.9302-72.2219C29.4324-70.9967 29.3803-68.9771 30.7587-67.5987L42.588-55.746C43.7224-54.6116 45.35-54.5207 46.6375-55.5071C53.0733-60.3773 61.077-63.3109 69.7375-63.3109ZM8.72266-25.1588C8.72266-10.0855 14.1926 3.70505 23.2219 14.3389C24.4186 15.751 26.3862 15.6991 27.731 14.3492L39.7268 2.34307C40.8039 1.28947 40.8377-0.189845 39.88-1.3966C34.6097-8.08466 31.5854-16.2933 31.5854-25.1588C31.5854-33.8244 34.4903-41.8281 39.3943-48.2352C40.347-49.5228 40.3419-51.1218 39.1789-52.2848L27.2976-64.1375C25.9243-65.5108 23.8996-65.4874 22.6743-63.9896C13.9591-53.4179 8.72266-39.8945 8.72266-25.1588ZM130.719-25.1588C130.719-39.9231 125.482-53.5036 116.686-64.1038C115.518-65.516 113.522-65.5108 112.149-64.1375L100.291-52.2848C99.1279-51.1218 99.1228-49.5228 100.076-48.2352C104.979-41.8281 107.884-33.8244 107.884-25.1588C107.884-16.2933 104.86-8.08466 99.5612-1.3966C98.6321-0.189845 98.6659 1.28947 99.7144 2.34307L111.715 14.3492C113.06 15.6991 115.056 15.6939 116.31 14.2532C125.306 3.6194 130.719-10.1141 130.719-25.1588ZM53.5506-6.31487L68.7987-6.31487C70.5933-6.31487 71.754-7.41847 71.754-9.12218C71.754-10.7738 70.5933-11.906 68.7987-11.906L60.448-11.906L60.448-12.4982L70.3543-28.4402C71.0424-29.5775 71.406-30.2424 71.406-31.4369C71.406-33.312 70.2609-34.6986 68.0482-34.6986L53.4727-34.6986C51.7354-34.6986 50.5174-33.543 50.5174-31.8914C50.5174-30.1826 51.7354-29.0504 53.4727-29.0504L62.5091-29.0504L62.5091-28.4296L51.5017-11.8384C50.8239-10.8308 50.5174-10.2128 50.5174-9.23379C50.5174-7.53787 51.6784-6.31487 53.5506-6.31487ZM81.6376-5.70216C83.9333-5.70216 85.346-7.20574 85.346-9.64942L85.346-42.1239C85.346-44.6014 83.9333-46.1335 81.6376-46.1335C79.3082-46.1335 77.8383-44.6014 77.8383-42.1525L77.8383-9.64942C77.8383-7.20574 79.3082-5.70216 81.6376-5.70216ZM77.0198-22.4503L88.2533-28.3063C89.3469-28.8935 89.7339-29.6675 89.7339-30.4753C89.7339-31.9713 88.2093-33.3816 86.3885-32.4492L74.9601-26.4318C74.0043-25.9202 73.4744-25.0267 73.4744-24.2527C73.4744-22.7229 75.0041-21.4087 77.0198-22.4503Z"/>
</svg>