<svg xmlns="http://www.w3.org/2000/svg" viewBox="12.4609 -79.9232 115.81 89.38">
  <path d="M53.9029 9.45904L86.8258 9.45904C115.899 9.45904 128.273-3.25747 128.273-31.8435L128.273-62.9607C128.273-73.8766 122.179-79.9232 111.196-79.9232L29.5379-79.9232C18.5259-79.9232 12.4609-73.8869 12.4609-62.9607L12.4609-31.8435C12.4609-3.25747 24.8346 9.45904 53.9029 9.45904ZM54.3751-3.16529C33.7864-3.16529 25.0566-11.8998 25.0566-31.744L25.0566-61.4082C25.0566-65.2827 27.1536-67.2989 30.9473-67.2989L109.787-67.2989C113.531-67.2989 115.649-65.2827 115.649-61.4082L115.649-31.744C115.649-11.8998 106.942-3.16529 86.3588-3.16529ZM48.5325-15.6027C51.1716-15.6027 52.647-17.3119 52.647-19.9796L52.647-30.1337L55.7954-30.1337L59.7601-19.133C60.5576-16.8239 61.8796-15.6027 64.0747-15.6027C66.1756-15.6027 68.0176-17.0828 67.9605-19.712C67.9319-20.4755 67.698-21.2733 67.2925-22.2609L63.5386-31.853C66.9265-33.9282 68.3063-38.0515 68.3063-42.0219C68.3063-50.027 63.705-54.1129 56.1031-54.1129L48.4988-54.1129C45.7923-54.1129 44.3271-52.4947 44.3271-49.7933L44.3271-19.9796C44.3271-17.312 45.8025-15.6027 48.5325-15.6027ZM52.647-35.9465L52.647-47.7571L55.3628-47.7571C58.3705-47.7571 59.8723-44.9431 59.8723-41.8739C59.8723-38.7079 58.5465-35.9465 55.3394-35.9465ZM78.0036-16.242L88.0594-16.242C94.5785-16.242 98.1509-20.9126 98.1509-27.0395C98.1509-31.6759 95.2585-35.866 91.0037-36.2033L91.0037-36.4188C94.6644-37.0236 97.1984-40.8268 97.1984-44.6868C97.1984-50.656 93.376-54.1444 87.701-54.1444L78.0036-54.1444C75.2166-54.1444 73.8658-52.2924 73.8658-49.7962L73.8658-20.5667C73.8658-18.0133 75.2453-16.242 78.0036-16.242ZM82.0895-38.4006L82.0895-48.0744L85.2255-48.0744C88.2491-48.0744 89.3359-46.0889 89.3359-43.3464C89.3359-40.3258 87.8281-38.4006 84.8075-38.4006ZM82.0895-22.2834L82.0895-33.1359L85.1347-33.1359C88.1157-33.1359 89.8883-31.1746 89.8883-27.7694C89.8883-24.5412 88.4744-22.2834 85.2513-22.2834Z"/>
</svg>