<svg xmlns="http://www.w3.org/2000/svg" viewBox="8.72266 -86.8071 103.12 103.09">
  <path d="M60.2692 16.2859C88.7463 16.2859 111.844-6.78347 111.844-35.2606C111.844-63.7378 88.7463-86.8071 60.2692-86.8071C31.8206-86.8071 8.72266-63.7378 8.72266-35.2606C8.72266-6.78347 31.8206 16.2859 60.2692 16.2859ZM60.2692 3.46117C38.8667 3.46117 21.5708-13.8582 21.5708-35.2606C21.5708-56.6631 38.8667-73.9825 60.2692-73.9825C81.6717-73.9825 98.991-56.6631 98.991-35.2606C98.991-13.8582 81.6717 3.46117 60.2692 3.46117ZM38.4322-15.6365C41.0478-15.6365 42.5231-17.317 42.5231-19.9847L42.5231-30.1388L45.7003-30.1388L49.6649-19.1381C50.4337-16.829 51.7792-15.6365 53.9509-15.6365C56.0752-15.6365 57.8937-17.0879 57.8367-19.7171C57.8081-20.4807 57.6028-21.2785 57.1921-22.2712L53.4096-31.8868C56.7975-33.9333 58.2111-38.0566 58.2111-42.027C58.2111-50.0321 53.6098-54.118 45.9741-54.118L38.3984-54.118C35.6685-54.118 34.2268-52.5049 34.2268-49.7984L34.2268-19.9847C34.2268-17.3171 35.6787-15.6365 38.4322-15.6365ZM42.5231-35.9517L42.5231-47.7622L45.2676-47.7622C48.2753-47.7622 49.7485-44.9482 49.7485-41.879C49.7485-38.713 48.4461-35.9517 45.2442-35.9517ZM67.9033-16.2471L77.9642-16.2471C84.4547-16.2471 88.0557-20.9177 88.0557-27.0446C88.0557-31.6811 85.1633-35.8711 80.8799-36.2084L80.8799-36.424C84.5692-37.0287 87.1032-40.832 87.1032-44.6919C87.1032-50.6611 83.2808-54.1496 77.6058-54.1496L67.9033-54.1496C65.0928-54.1496 63.7654-52.2975 63.7654-49.8013L63.7654-20.5719C63.7654-18.0184 65.1214-16.2471 67.9033-16.2471ZM71.9891-38.4109L71.9891-48.0795L75.1017-48.0795C78.1539-48.0795 79.2355-46.0941 79.2355-43.3515C79.2355-40.3309 77.7043-38.4109 74.6837-38.4109ZM71.9891-22.2886L71.9891-33.141L75.0058-33.141C78.0153-33.141 79.7879-31.1797 79.7879-27.7745C79.7879-24.5463 78.3792-22.2886 75.1275-22.2886Z" />
</svg>