<svg xmlns="http://www.w3.org/2000/svg" viewBox="12.4609 -83.8823 142.2 96.9">
  <path d="M26.0926-36.3533L70.9231-36.3533C79.9115-36.3533 84.5547-40.9034 84.5547-49.8991L84.5547-70.3365C84.5547-79.3322 79.9115-83.8823 70.9231-83.8823L26.0926-83.8823C17.0704-83.8823 12.4609-79.3322 12.4609-70.3365L12.4609-49.8991C12.4609-40.9034 17.0704-36.3533 26.0926-36.3533ZM28.3304-48.6628C26.0353-48.6628 24.799-49.8991 24.799-52.28L24.799-67.9608C24.799-70.3703 26.0353-71.5493 28.3304-71.5493L68.6281-71.5493C70.9517-71.5493 72.2166-70.3703 72.2166-67.9608L72.2166-52.28C72.2166-49.8991 70.9517-48.6628 68.6281-48.6628ZM37.9826 13.0152L75.3262 13.0152C84.3197 13.0152 88.9578 8.45998 88.9578-0.530616L88.9578-14.3141C88.9578-23.3047 84.3197-27.8599 75.3262-27.8599L37.9826-27.8599C28.9604-27.8599 24.3509-23.3047 24.3509-14.3141L24.3509-0.530616C24.3509 8.45998 28.9604 13.0152 37.9826 13.0152ZM40.2203 0.705694C37.9253 0.705694 36.689-0.530578 36.689-2.9115L36.689-11.9332C36.689-14.3428 37.9253-15.5504 40.2203-15.5504L73.0598-15.5504C75.3548-15.5504 76.6197-14.3428 76.6197-11.9332L76.6197-2.9115C76.6197-0.530578 75.3548 0.705694 73.0598 0.705694ZM110.68 5.64198L141.028 5.64198C150.05 5.64198 154.66 1.09192 154.66-7.90381L154.66-61.6781C154.66-70.6739 150.05-75.2239 141.028-75.2239L110.68-75.2239C101.692-75.2239 97.0773-70.6739 97.0773-61.6781L97.0773-7.90381C97.0773 1.09192 101.692 5.64198 110.68 5.64198ZM112.947-6.6675C110.652-6.6675 109.387-7.90377 109.387-10.2847L109.387-59.2973C109.387-61.7068 110.652-62.8858 112.947-62.8858L138.767-62.8858C141.09-62.8858 142.322-61.7068 142.322-59.2973L142.322-10.2847C142.322-7.90377 141.09-6.6675 138.767-6.6675Z"/>
</svg>