<svg xmlns="http://www.w3.org/2000/svg" viewBox="8.72266 -75.2931 116.32 72.16">
  <path d="M66.8967-30.8234C93.4312-30.8234 124.279-40.975 124.279-53.2442C124.279-65.394 98.6281-75.2931 66.8967-75.2931C35.1366-75.2931 9.45709-65.394 9.45709-53.2442C9.45709-40.975 40.3335-30.8234 66.8967-30.8234ZM30.8923-3.64858C32.5644-3.13707 33.6108-3.94463 33.6108-5.64531L33.6108-10.1863C33.6108-13.1465 35.7352-14.4656 38.3994-13.7204C46.2902-11.5345 57.3674-10.4061 67.0684-10.4061C76.8135-10.4061 87.8753-11.5345 95.7609-13.7204C98.4251-14.4656 100.526-13.1465 100.526-10.1863L100.526-5.78842C100.526-4.05912 101.601-3.28018 103.273-3.79169C116.518-8.12775 125.042-15.0605 125.042-23.7609L125.042-41.4109C115.592-31.932 93.9308-24.1184 66.8967-24.1184C40.0916-24.1184 18.1445-31.932 8.72266-41.4109L8.72266-23.7609C8.72266-14.946 17.4083-8.01326 30.8923-3.64858ZM66.8967-52.853C56.2478-52.853 50.1786-55.8131 50.1786-59.8634C50.1786-63.885 56.1619-66.9075 66.8967-66.9075C77.5743-66.9075 83.5861-63.8565 83.5861-59.8634C83.5861-55.8131 77.4884-52.853 66.8967-52.853ZM66.8967-57.7013C73.0371-57.7013 76.3449-58.6903 76.3449-59.8919C76.3449-61.1068 73.1479-62.1684 66.8967-62.1684C60.5883-62.1684 57.3861-61.1068 57.3861-59.8919C57.3861-58.6903 60.6991-57.7013 66.8967-57.7013ZM47.3777-41.1898C44.1143-41.1898 41.3492-42.4957 41.3492-44.1988C41.3492-45.7826 44.1143-47.1171 47.3777-47.1171C50.7217-47.1171 53.4633-45.7826 53.4633-44.1988C53.4633-42.4957 50.7217-41.1898 47.3777-41.1898ZM66.8967-39.1879C63.5812-39.1879 60.8682-40.5276 60.8682-42.145C60.8682-43.8144 63.5812-45.1776 66.8967-45.1776C70.1835-45.1776 72.9252-43.8144 72.9252-42.145C72.9252-40.5276 70.1835-39.1879 66.8967-39.1879ZM86.387-41.1898C83.0716-41.1898 80.33-42.4957 80.33-44.1988C80.33-45.7826 83.0716-47.1171 86.387-47.1171C89.6791-47.1171 92.4493-45.7826 92.4493-44.1988C92.4493-42.4957 89.6791-41.1898 86.387-41.1898Z"/>
</svg>