<svg xmlns="http://www.w3.org/2000/svg" viewBox="12.4609 -102.215 102.46 115.4">
  <path d="M27.5626 13.1881L75.6914 13.1881C85.4495 13.1881 90.793 7.93053 90.793-1.94212L90.793-50.0012C90.793-59.8452 85.4495-65.1028 75.6914-65.1028L27.5626-65.1028C17.833-65.1028 12.4609-59.8452 12.4609-50.0012L12.4609-1.94212C12.4609 7.93053 17.833 13.1881 27.5626 13.1881ZM28.8343 1.13478C25.8477 1.13478 24.4857-0.0506437 24.4857-3.20866L24.4857-48.7347C24.4857-51.8927 25.8477-53.0781 28.8343-53.0781L74.4197-53.0781C77.4063-53.0781 78.7683-51.8927 78.7683-48.7347L78.7683-3.20866C78.7683-0.0506437 77.4063 1.13478 74.4197 1.13478ZM87.0082-76.5222L87.0082-96.9945C87.0082-101.049 83.5728-102.215 80.477-99.8695L66.7959-89.5418C64.7084-87.9293 64.6798-85.616 66.7959-84.0035L80.477-73.7278C83.5442-71.4449 87.0082-72.6106 87.0082-76.5222ZM81.1663-90.9473C78.9095-90.9473 77.0631-89.0722 77.0631-86.8492C77.0631-84.5925 78.9095-82.746 81.1663-82.746L89.5831-82.746C99.5055-82.746 106.243-75.4902 106.243-65.3642L106.243-56.9693C106.243-54.5696 108.199-52.614 110.598-52.614C112.964-52.614 114.925-54.5696 114.925-56.9693L114.925-65.4031C114.925-80.4625 104.267-90.9473 89.469-90.9473Z" />
</svg>