<svg xmlns="http://www.w3.org/2000/svg" viewBox="8.72266 -90.5637 110.58 110.61">
  <path d="M64.0257 20.0476C94.4497 20.0476 119.3-4.80297 119.3-35.2606C119.3-65.7132 94.4497-90.5637 64.0257-90.5637C33.5732-90.5637 8.72266-65.7132 8.72266-35.2606C8.72266-4.80297 33.5732 20.0476 64.0257 20.0476ZM64.0257 0.757194C44.1165 0.757194 28.0079-15.3514 28.0079-35.2606C28.0079-55.1699 44.1165-71.2785 64.0257-71.2785C83.9064-71.2785 100.015-55.1699 100.015-35.2606C100.015-15.3514 83.9064 0.757194 64.0257 0.757194ZM55.6484-13.4127C58.3154-13.4127 59.9514-15.1162 59.9514-17.8351L59.9514-20.7512L70.3639-20.7512C71.2341-20.7512 71.8081-21.2681 71.8081-22.1772C71.8081-23.0475 71.2341-23.5878 70.3639-23.5878L59.9514-23.5878L59.9514-29.732L67.6039-29.732C76.5256-29.732 82.3687-35.5049 82.3687-43.1628C82.3687-51.1841 76.6425-56.7366 68.0659-56.7366L55.7912-56.7366C53.0101-56.7366 51.3453-54.8953 51.3453-52.109L51.3453-32.6829L46.6493-32.6829C45.6831-32.6829 45.1377-32.0802 45.1377-31.2048C45.1377-30.2774 45.6831-29.732 46.6493-29.732L51.3453-29.732L51.3453-23.5878L46.6493-23.5878C45.7116-23.5878 45.1662-23.0475 45.1662-22.1772C45.1662-21.2681 45.7116-20.7512 46.6493-20.7512L51.3453-20.7512L51.3453-17.8351C51.3453-15.1162 53.01-13.4127 55.6484-13.4127ZM59.9514-36.2322L59.9514-49.922L65.5003-49.922C71.007-49.922 73.6379-47.0269 73.6379-43.1057C73.6379-38.7186 70.494-36.2322 65.4718-36.2322Z" />
</svg>