<svg xmlns="http://www.w3.org/2000/svg" viewBox="10.3371 -91.5165 105.49 110.24">
  <path d="M13.2606-0.258658C10.3371 11.5939 15.59 18.7215 27.1282 18.7215L99.038 18.7215C110.571 18.7215 115.829 11.5939 112.906-0.258658L102.281-43.5893C100.17-52.2243 94.0265-56.9551 85.0144-56.9551L41.1518-56.9551C32.1059-56.9551 25.9961-52.2243 23.8855-43.5893ZM56.7852-47.1975L69.3809-47.1975L69.3809-65.795L56.7852-65.795ZM63.0831-59.386C71.8452-59.386 79.1483-66.6605 79.1483-75.3889C79.1483-84.1849 71.8116-91.5165 63.0831-91.5165C54.3444-91.5165 47.0178-84.1797 47.0178-75.3889C47.0178-66.6553 54.3495-59.386 63.0831-59.386ZM63.0831-69.5822C59.9384-69.5822 57.2477-72.2677 57.2477-75.3889C57.2477-78.5622 59.9333-81.2866 63.0831-81.2866C66.2512-81.2866 68.9521-78.5673 68.9521-75.3889C68.9521-72.2443 66.2615-69.5822 63.0831-69.5822Z"/>
</svg>