<svg xmlns="http://www.w3.org/2000/svg" viewBox="8.40032 -88.7069 103.54 106.78">
  <path d="M71.8531-64.1003L71.8531-82.9513C71.8531-86.1225 69.2402-88.7069 66.1313-88.7069C62.9601-88.7069 60.4044-86.094 60.4044-82.9513L60.4044-64.1003ZM99.8235-22.7457C107.478-22.7457 111.939-27.1493 111.939-34.7082L111.939-61.26C111.939-68.8138 107.478-73.2174 99.8235-73.2174L37.1952-73.2174C32.6691-73.2174 30.1431-71.9112 27.1077-68.9432L14.5494-56.8826C8.40032-50.9359 8.49645-44.9362 14.5156-39.1194L27.1077-27.0199C30.1431-24.0857 32.6691-22.7508 37.2238-22.7508ZM71.8531-27.9622L60.4044-27.9622L60.4044 15.0566L71.8531 15.0566ZM90.9049 12.3159C90.9049 9.17842 88.2869 6.5941 85.178 6.5941L47.0172 6.5941C43.8511 6.5941 41.2954 9.20697 41.2954 12.3159C41.2954 15.4871 43.8797 18.0714 47.0172 18.0714L85.178 18.0714C88.3155 18.0714 90.9049 15.4585 90.9049 12.3159Z"/>
</svg>