<svg xmlns="http://www.w3.org/2000/svg" viewBox="12.4609 -81.8719 143.41 93.36">
  <path d="M25.0387-38.5936L43.1328-38.5936C51.6678-38.5936 55.7106-42.6342 55.7106-51.2859L55.7106-69.1797C55.7106-77.8365 51.6678-81.8719 43.1328-81.8719L25.0387-81.8719C16.5037-81.8719 12.4609-77.8365 12.4609-69.1797L12.4609-51.2859C12.4609-42.6342 16.5037-38.5936 25.0387-38.5936ZM25.0205-48.6758C23.3215-48.6758 22.5144-49.4829 22.5144-51.2391L22.5144-69.2551C22.5144-70.9827 23.3215-71.7898 25.0205-71.7898L43.1224-71.7898C44.85-71.7898 45.6571-70.9827 45.6571-69.2551L45.6571-51.2391C45.6571-49.4829 44.85-48.6758 43.1224-48.6758ZM75.1179-38.5936L93.212-38.5936C101.747-38.5936 105.79-42.6342 105.79-51.2859L105.79-69.1797C105.79-77.8365 101.747-81.8719 93.212-81.8719L75.1179-81.8719C66.5829-81.8719 62.5401-77.8365 62.5401-69.1797L62.5401-51.2859C62.5401-42.6342 66.5829-38.5936 75.1179-38.5936ZM75.1283-48.6758C73.4007-48.6758 72.5936-49.4829 72.5936-51.2391L72.5936-69.2551C72.5936-70.9827 73.4007-71.7898 75.1283-71.7898L93.2302-71.7898C94.9578-71.7898 95.7363-70.9827 95.7363-69.2551L95.7363-51.2391C95.7363-49.4829 94.9578-48.6758 93.2302-48.6758ZM125.197-38.5936L143.325-38.5936C151.831-38.5936 155.869-42.6342 155.869-51.2859L155.869-69.1797C155.869-77.8365 151.831-81.8719 143.325-81.8719L125.197-81.8719C116.662-81.8719 112.619-77.8365 112.619-69.1797L112.619-51.2859C112.619-42.6342 116.662-38.5936 125.197-38.5936ZM125.179-48.6758C123.485-48.6758 122.678-49.4829 122.678-51.2391L122.678-69.2551C122.678-70.9827 123.485-71.7898 125.179-71.7898L143.315-71.7898C145.037-71.7898 145.815-70.9827 145.815-69.2551L145.815-51.2391C145.815-49.4829 145.037-48.6758 143.315-48.6758ZM25.0387 11.4855L43.1328 11.4855C51.6678 11.4855 55.7106 7.45007 55.7106-1.20673L55.7106-19.1005C55.7106-27.7522 51.6678-31.7641 43.1328-31.7641L25.0387-31.7641C16.5037-31.7641 12.4609-27.7522 12.4609-19.1005L12.4609-1.20673C12.4609 7.45007 16.5037 11.4855 25.0387 11.4855ZM25.0205 1.40339C23.3215 1.40339 22.5144 0.59631 22.5144-1.13128L22.5144-19.1473C22.5144-20.9036 23.3215-21.7106 25.0205-21.7106L43.1224-21.7106C44.85-21.7106 45.6571-20.9036 45.6571-19.1473L45.6571-1.13128C45.6571 0.59631 44.85 1.40339 43.1224 1.40339ZM75.1179 11.4855L93.212 11.4855C101.747 11.4855 105.79 7.45007 105.79-1.20673L105.79-19.1005C105.79-27.7522 101.747-31.7641 93.212-31.7641L75.1179-31.7641C66.5829-31.7641 62.5401-27.7522 62.5401-19.1005L62.5401-1.20673C62.5401 7.45007 66.5829 11.4855 75.1179 11.4855ZM75.1283 1.40339C73.4007 1.40339 72.5936 0.59631 72.5936-1.13128L72.5936-19.1473C72.5936-20.9036 73.4007-21.7106 75.1283-21.7106L93.2302-21.7106C94.9578-21.7106 95.7363-20.9036 95.7363-19.1473L95.7363-1.13128C95.7363 0.59631 94.9578 1.40339 93.2302 1.40339ZM125.197 11.4855L143.325 11.4855C151.831 11.4855 155.869 7.45007 155.869-1.20673L155.869-19.1005C155.869-27.7522 151.831-31.7641 143.325-31.7641L125.197-31.7641C116.662-31.7641 112.619-27.7522 112.619-19.1005L112.619-1.20673C112.619 7.45007 116.662 11.4855 125.197 11.4855ZM125.179 1.40339C123.485 1.40339 122.678 0.59631 122.678-1.13128L122.678-19.1473C122.678-20.9036 123.485-21.7106 125.179-21.7106L143.315-21.7106C145.037-21.7106 145.815-20.9036 145.815-19.1473L145.815-1.13128C145.815 0.59631 145.037 1.40339 143.315 1.40339Z"/>
</svg>