<svg xmlns="http://www.w3.org/2000/svg" viewBox="12.4609 -83.902 83.29 98.79">
  <path d="M54.1216 14.8928C55.0998 14.8928 56.46 14.4935 57.756 13.8573C86.0358-0.299441 95.7537-8.37324 95.7537-25.8555L95.7537-61.349C95.7537-68.1964 93.4734-71.0021 87.4992-73.5093C82.755-75.4888 65.3246-81.4009 60.8659-82.8404C58.7633-83.4763 56.1906-83.902 54.1216-83.902C52.024-83.902 49.4513-83.4477 47.3487-82.8404C42.8665-81.4611 25.4596-75.4602 20.7154-73.5093C14.7412-71.0359 12.4609-68.1964 12.4609-61.349L12.4609-25.8555C12.4609-8.37324 22.4518-0.788205 50.4872 13.8573C51.7545 14.5221 53.1148 14.8928 54.1216 14.8928ZM31.0477-49.7218L31.777-50.9418C33.4803-54.0966 34.9765-54.4837 38.1731-52.6453L48.57-46.503L48.57-58.7693C48.57-62.2099 49.7414-63.3241 53.4495-63.3241L54.851-63.3241C58.4967-63.3241 59.6395-62.2099 59.6395-58.7693L59.6395-46.503L70.0365-52.6453C73.2096-54.5643 74.7109-54.0864 76.4377-50.9418L77.167-49.7218C78.9223-46.5875 78.4731-45.024 75.3727-43.3778L64.4641-37.3888L75.4064-31.1297C78.3873-29.4212 78.7509-28.0057 77.0476-24.8143L76.352-23.5995C74.6486-20.4213 73.1474-20.0291 70.0937-21.8388L59.6395-28.0098L59.6395-15.6578C59.6395-12.1549 58.4967-11.0121 54.851-11.0121L53.4495-11.0121C49.7129-11.0121 48.5415-12.1549 48.57-15.6293L48.57-28.0098L38.1445-21.8388C35.1194-20.0863 33.6518-20.4785 31.8341-23.5995L31.1671-24.8143C29.3443-27.9485 29.765-29.4263 32.8082-31.1297L43.7506-37.3888L32.842-43.3778C29.7702-45.0188 29.3495-46.5538 31.0477-49.7218Z"/>
</svg>