<svg xmlns="http://www.w3.org/2000/svg" viewBox="12.4609 -81.8719 175.1 93.36">
  <path d="M63.6925 11.4855L135.79 11.4855C146.953 11.4855 153.028 5.39999 153.028-5.66632L153.028-64.7201C153.028-75.7864 146.953-81.8719 135.79-81.8719L63.6925-81.8719C52.5587-81.8719 46.4548-75.7967 46.4548-64.7201L46.4548-5.66632C46.4548 5.41026 52.5587 11.4855 63.6925 11.4855ZM55.4251-20.7993L55.4251-49.582C55.4251-51.8102 57.2431-53.6282 59.4663-53.6282C61.6945-53.6282 63.5074-51.8102 63.5074-49.582L63.5074-20.7993C63.5074-18.5762 61.6945-16.7582 59.4663-16.7582C57.2431-16.7582 55.4251-18.5762 55.4251-20.7993ZM72.4727-1.13881L72.4727-69.2476L127.01-69.2476L127.01-1.13881ZM136.009-20.7993L136.009-49.582C136.009-51.8102 137.822-53.6282 140.05-53.6282C142.278-53.6282 144.091-51.8102 144.091-49.582L144.091-20.7993C144.091-18.5762 142.278-16.7582 140.05-16.7582C137.822-16.7582 136.009-18.5762 136.009-20.7993ZM12.4609-24.0565C12.4609-20.5795 15.5273-19.0912 18.4439-20.8288L36.6129-31.7397C39.4357-33.4068 39.3734-37.0316 36.6129-38.6886L18.4388-49.6435C15.4936-51.4096 12.4609-49.8356 12.4609-46.4157ZM187.564-24.0565L187.564-46.4157C187.564-49.8356 184.531-51.4096 181.586-49.6435L163.412-38.6886C160.652-37.0316 160.589-33.4068 163.412-31.7397L181.581-20.8288C184.498-19.0912 187.564-20.5795 187.564-24.0565Z"/>
</svg>