<svg xmlns="http://www.w3.org/2000/svg" viewBox="8.72266 -80.6235 143.5 90.79">
  <path d="M80.5027 10.1646C120.397 10.1646 152.221-9.79446 152.221-35.2606C152.221-60.6645 120.335-80.6235 80.5027-80.6235C40.6318-80.6235 8.72266-60.6645 8.72266-35.2606C8.72266-9.79446 40.598 10.1646 80.5027 10.1646ZM80.5027-2.43115C48.1237-2.43115 21.3184-17.6016 21.3184-35.2606C21.3184-52.8573 48.2145-68.0278 80.5027-68.0278C112.786-68.0278 139.625-52.8573 139.625-35.2606C139.625-17.6016 112.843-2.43115 80.5027-2.43115ZM113.687-36.2742C105.411-44.2085 93.2295-48.791 80.4976-48.791C67.7657-48.791 55.5894-44.2085 47.3131-36.2742L53.9434-29.3972C60.5627-35.7294 70.1212-39.2785 80.4976-39.2785C90.8791-39.2785 100.438-35.7294 107.057-29.3972ZM41.2433-36.8139C45.7641-28.0058 60.6511-22.6025 80.4976-22.6025C100.349-22.6025 115.231-28.0058 119.757-36.8139C121.884-41.033 116.71-43.9847 113.726-40.7389C107.941-34.2341 93.0039-32.115 80.4976-32.115C68.2775-32.115 53.0879-34.182 47.274-40.7389C44.3193-43.9847 39.1449-41.033 41.2433-36.8139Z"/>
</svg>