<svg xmlns="http://www.w3.org/2000/svg" viewBox="12.4609 -85.1351 93.37 97.01">
  <path d="M105.83-69.0802L105.83-81.762C97.3058-80.2248 90.4504-77.301 82.6846-72.4302L60.5828-58.5887L40.375-55.7764C21.7128-53.2345 12.8042-44.8862 12.8042-29.7676L12.8042-16.9658C12.8042-6.40118 18.7922-0.683054 28.7182-0.683054L46.2097-0.683054L46.2097-13.0738L30.7693-13.0738C27.331-13.0738 25.2287-15.4726 25.2287-19.1655L25.2287-29.7676C25.2287-37.7257 29.9935-41.8205 41.9202-43.4377L64.8446-46.598L89.2397-61.8315C94.9693-65.396 99.9183-67.7145 105.83-69.0802ZM105.807-0.683054L105.807-13.0738L68.7753-13.0738L68.7753-0.683054ZM57.5374 11.8798C69.0001 11.8798 78.0351 2.87332 78.0351-8.61786C78.0351-20.161 69.0001-29.1726 57.5374-29.1726C46.0177-29.1726 36.9827-20.161 36.9827-8.61786C36.9827 2.87332 46.0177 11.8798 57.5374 11.8798ZM57.5374 0.511567C52.4979 0.511567 48.5222-3.43555 48.5222-8.47512C48.5222-13.5381 52.4979-17.519 57.5374-17.519C62.5433-17.519 66.5579-13.5381 66.5579-8.47512C66.5579-3.43555 62.5433 0.511567 57.5374 0.511567ZM17.8448-74.6246L33.8071-74.6246C36.0568-74.6246 37.35-74.0406 38.6868-72.7039L57.6108-53.7462L67.4356-59.1689L46.0865-80.4946C42.804-83.7588 39.5618-85.1351 33.6346-85.1351L17.8448-85.1351C14.6216-85.1351 12.4609-82.9745 12.4609-79.9228C12.4609-76.8373 14.593-74.6246 17.8448-74.6246Z"/>
</svg>