<svg xmlns="http://www.w3.org/2000/svg" viewBox="8.72266 -86.8071 103.12 103.09">
  <path d="M60.2692 16.2859C88.7463 16.2859 111.844-6.78347 111.844-35.2606C111.844-63.7378 88.7463-86.8071 60.2692-86.8071C31.8206-86.8071 8.72266-63.7378 8.72266-35.2606C8.72266-6.78347 31.8206 16.2859 60.2692 16.2859ZM60.2692 3.46117C38.8667 3.46117 21.5708-13.8582 21.5708-35.2606C21.5708-56.6631 38.8667-73.9825 60.2692-73.9825C81.6717-73.9825 98.991-56.6631 98.991-35.2606C98.991-13.8582 81.6717 3.46117 60.2692 3.46117ZM39.5364-18.5983L80.8875-18.5983C84.9359-18.5983 87.7171-21.2703 87.7171-25.2718L87.7171-50.0693C87.7171-54.0943 84.9359-56.7949 80.8875-56.7949L39.5364-56.7949C35.488-56.7949 32.7355-54.0943 32.7355-50.0693L32.7355-25.2718C32.7355-21.2703 35.488-18.5983 39.5364-18.5983ZM41.3643-25.2284C40.3444-25.2284 39.6228-25.9265 39.6228-26.9853L39.6228-48.3844C39.6228-49.4381 40.3444-50.1648 41.3643-50.1648L79.0882-50.1648C80.1081-50.1648 80.8297-49.4381 80.8297-48.3844L80.8297-26.9853C80.8297-25.9265 80.1081-25.2284 79.0882-25.2284ZM47.5687-7.90709L72.9982-7.90709C74.8784-7.90709 76.2679-9.26279 76.2679-11.1767C76.2679-13.0906 74.8784-14.4515 72.9982-14.4515L47.5687-14.4515C45.6313-14.4515 44.2705-13.0906 44.2705-11.1767C44.2705-9.26279 45.6313-7.90709 47.5687-7.90709Z" />
</svg>