<svg xmlns="http://www.w3.org/2000/svg" viewBox="12.4609 -81.9107 93.33 93.36">
  <path d="M29.6986 11.4467L88.5521 11.4467C99.7145 11.4467 105.79 5.36118 105.79-5.70513L105.79-64.7589C105.79-75.8252 99.7145-81.9107 88.5521-81.9107L29.6986-81.9107C18.5648-81.9107 12.4609-75.8355 12.4609-64.7589L12.4609-5.70513C12.4609 5.37145 18.5648 11.4467 29.6986 11.4467ZM31.0794-1.17762C27.1457-1.17762 25.0566-3.09527 25.0566-7.22898L25.0566-63.2351C25.0566-67.3974 27.1457-69.2864 31.0794-69.2864L87.1713-69.2864C91.0844-69.2864 93.1941-67.3974 93.1941-63.2351L93.1941-7.22898C93.1941-3.09527 91.0844-1.17762 87.1713-1.17762ZM59.0255-12.648C64.2421-12.648 67.0079-14.9566 68.6624-19.938L79.0766-49.1555C79.4818-50.4435 79.6298-51.2927 79.6298-52.3083C79.6298-55.713 77.1079-57.944 73.4747-57.944C70.0752-57.944 68.3349-56.4091 67.4232-52.5423L59.2928-24.5599L58.9008-24.5599L50.7755-52.5423C49.8352-56.3857 48.095-57.944 44.724-57.944C41.0908-57.944 38.6209-55.6793 38.6209-52.2226C38.6209-51.1785 38.7689-50.3813 39.1507-49.1555L49.622-19.7096C51.2533-14.7513 53.8424-12.648 59.0255-12.648Z" />
</svg>