<svg xmlns="http://www.w3.org/2000/svg" viewBox="12.4609 -97.5571 129.25 124.59">
  <path d="M40.5863 27.0358L113.589 27.0358C123.436 27.0358 130.326 25.723 135.392 20.6515C140.487 15.5564 141.714 8.81976 141.714-1.08959L141.714-69.4317C141.714-79.341 140.487-86.1114 135.392-91.1727C130.263-96.2443 123.436-97.5571 113.589-97.5571L40.535-97.5571C30.7781-97.5571 23.8832-96.2392 18.7881-91.1676C13.7166-86.0726 12.4609-79.3308 12.4609-69.5117L12.4609-1.08959C12.4609 8.81976 13.7114 15.5901 18.783 20.6515C23.9117 25.723 30.7392 27.0358 40.5863 27.0358ZM39.2259 14.4401C34.1143 14.4401 30.3285 13.6984 28.018 11.4164C25.736 9.10592 25.0566 5.41611 25.0566 0.270843L25.0566-70.7122C25.0566-75.9271 25.736-79.6323 28.0129-81.9429C30.3234-84.23 34.1246-84.9614 39.3059-84.9614L114.949-84.9614C120.061-84.9614 123.847-84.2197 126.157-81.9377C128.439-79.6272 129.118-75.9374 129.118-70.7921L129.118 0.270843C129.118 5.41611 128.434 9.10592 126.157 11.4164C123.847 13.7036 120.061 14.4401 114.949 14.4401ZM37.8541-19.9909L116.35-19.9909C118.23-19.9909 119.763-21.5234 119.763-23.4041C119.763-25.2899 118.23-26.7653 116.35-26.7653L37.8541-26.7653C35.9684-26.7653 34.4409-25.2899 34.4409-23.4041C34.4409-21.5234 35.9684-19.9909 37.8541-19.9909ZM37.8541-7.27823L116.35-7.27823C118.23-7.27823 119.763-8.81072 119.763-10.6915C119.763-12.5772 118.23-14.0475 116.35-14.0475L37.8541-14.0475C35.9684-14.0475 34.4409-12.5772 34.4409-10.6915C34.4409-8.81072 35.9684-7.27823 37.8541-7.27823ZM37.8541 5.43444L84.6754 5.43444C86.5846 5.43444 88.0886 3.90708 88.0886 2.02121C88.0886 0.135427 86.5846-1.33484 84.6754-1.33484L37.8541-1.33484C35.9684-1.33484 34.4409 0.135427 34.4409 2.02121C34.4409 3.90708 35.9684 5.43444 37.8541 5.43444ZM40.3931-55.2108L51.5559-55.2108C55.6213-55.2108 58.4355-58.025 58.4355-62.0904L58.4355-70.1379C58.4355-74.2033 55.6213-77.0175 51.5559-77.0175L40.3931-77.0175C36.3277-77.0175 33.5136-74.2033 33.5136-70.1379L33.5136-62.0904C33.5136-58.025 36.3277-55.2108 40.3931-55.2108Z"/>
</svg>