<svg xmlns="http://www.w3.org/2000/svg" viewBox="12.4609 -97.5571 165.48 124.59">
  <path d="M40.5863 27.0358L149.811 27.0358C159.658 27.0358 166.548 25.723 171.614 20.6515C176.71 15.5564 177.937 8.81976 177.937-1.08959L177.937-69.4317C177.937-79.341 176.71-86.1114 171.614-91.1727C166.486-96.2443 159.658-97.5571 149.811-97.5571L40.535-97.5571C30.7781-97.5571 23.8832-96.2392 18.7881-91.1676C13.7166-86.0726 12.4609-79.3308 12.4609-69.5117L12.4609-1.08959C12.4609 8.81976 13.7114 15.5901 18.783 20.6515C23.9117 25.723 30.7392 27.0358 40.5863 27.0358ZM39.2259 14.4401C34.1143 14.4401 30.3285 13.6984 28.018 11.4164C25.736 9.10592 25.0566 5.41611 25.0566 0.270843L25.0566-70.7122C25.0566-75.9271 25.736-79.6323 28.0129-81.9429C30.3234-84.23 34.1246-84.9614 39.3059-84.9614L151.172-84.9614C156.283-84.9614 160.069-84.2197 162.379-81.9377C164.661-79.6272 165.341-75.9374 165.341-70.7921L165.341 0.270843C165.341 5.41611 164.656 9.10592 162.379 11.4164C160.069 13.7036 156.283 14.4401 151.172 14.4401ZM37.8541-19.9909L152.572-19.9909C154.453-19.9909 155.985-21.5234 155.985-23.4041C155.985-25.2899 154.453-26.7653 152.572-26.7653L37.8541-26.7653C35.9684-26.7653 34.4409-25.2899 34.4409-23.4041C34.4409-21.5234 35.9684-19.9909 37.8541-19.9909ZM37.8541-7.27823L152.572-7.27823C154.453-7.27823 155.985-8.81072 155.985-10.6915C155.985-12.5772 154.453-14.0475 152.572-14.0475L37.8541-14.0475C35.9684-14.0475 34.4409-12.5772 34.4409-10.6915C34.4409-8.81072 35.9684-7.27823 37.8541-7.27823ZM37.8541 5.43444L120.898 5.43444C122.807 5.43444 124.311 3.90708 124.311 2.02121C124.311 0.135427 122.807-1.33484 120.898-1.33484L37.8541-1.33484C35.9684-1.33484 34.4409 0.135427 34.4409 2.02121C34.4409 3.90708 35.9684 5.43444 37.8541 5.43444ZM40.3931-55.2108L51.5559-55.2108C55.6213-55.2108 58.4355-58.025 58.4355-62.0904L58.4355-70.1379C58.4355-74.2033 55.6213-77.0175 51.5559-77.0175L40.3931-77.0175C36.3277-77.0175 33.5136-74.2033 33.5136-70.1379L33.5136-62.0904C33.5136-58.025 36.3277-55.2108 40.3931-55.2108Z"/>
</svg>