<svg xmlns="http://www.w3.org/2000/svg" viewBox="8.72266 -86.8071 103.12 103.09">
  <path d="M60.2692 16.2859C88.7463 16.2859 111.844-6.78347 111.844-35.2606C111.844-63.7378 88.7463-86.8071 60.2692-86.8071C31.8206-86.8071 8.72266-63.7378 8.72266-35.2606C8.72266-6.78347 31.8206 16.2859 60.2692 16.2859ZM60.2692 3.46117C38.8667 3.46117 21.5708-13.8582 21.5708-35.2606C21.5708-56.6631 38.8667-73.9825 60.2692-73.9825C81.6717-73.9825 98.991-56.6631 98.991-35.2606C98.991-13.8582 81.6717 3.46117 60.2692 3.46117ZM48.3944-12.8649C50.9809-12.8649 52.8275-14.4257 53.4197-17.0927L60.1108-45.7488L60.3938-45.7488L67.0849-17.0927C67.6536-14.3868 69.4093-12.8649 72.1153-12.8649C74.8163-12.8649 76.6681-14.3919 77.1978-17.15L83.8767-51.3271C83.9675-51.7865 83.9962-52.2309 83.9962-52.67C83.9962-54.8384 82.5156-56.3497 80.0928-56.3497C78.223-56.3497 76.6285-55.0434 76.3272-53.0569L71.6012-22.7148L71.3417-22.7148L64.3542-52.7455C63.8764-55.0125 62.5414-56.3526 60.2406-56.3526C58.0257-56.3526 56.662-54.9502 56.1555-52.6883L49.1292-22.7148L48.9034-22.7148L44.206-53.0569C43.9333-55.0045 42.3828-56.3497 40.3546-56.3497C37.9938-56.3497 36.5084-54.8902 36.5084-52.6803C36.5084-52.2933 36.5656-51.8438 36.6616-51.3117L43.3353-17.15C43.8651-14.4543 45.6883-12.8649 48.3944-12.8649ZM32.8105-34.9693C32.8105-34.1224 33.4469-33.4912 34.2651-33.4912L86.2395-33.4912C87.0863-33.4912 87.7227-34.1224 87.7227-34.9693C87.7227-35.7875 87.0863-36.3901 86.2395-36.3901L34.2651-36.3901C33.4469-36.3901 32.8105-35.7875 32.8105-34.9693Z" />
</svg>