<svg xmlns="http://www.w3.org/2000/svg" viewBox="12.4609 -79.4356 109.76 86">
  <path d="M35.3741 6.56144C42.8229 6.56144 46.55 2.26216 48.6849-4.08585L68.4126-65.2502L115.041-65.2502C119.413-65.2502 122.225-68.1434 122.225-72.4001C122.225-76.5996 119.413-79.4356 115.041-79.4356L67.8547-79.4356C60.0343-79.4356 56.5826-76.267 54.3905-69.2754L36.1559-9.89185L34.9118-9.89185L26.8518-38.2442C25.7219-42.2103 23.6337-44.2076 19.6783-44.2076C15.3543-44.2076 12.4609-41.143 12.4609-37.2292C12.4609-35.7515 12.757-34.5593 13.2529-33.0093L22.3883-3.84139C24.4426 2.52172 28.2031 6.56144 35.3741 6.56144ZM77.9551-1.55989C80.4253-1.55989 81.7369-2.46631 83.6487-5.33626L92.1686-17.9019L92.5034-17.9019L100.87-5.33626C102.639-2.52341 104.037-1.55989 106.54-1.55989C109.85-1.55989 112.148-3.74438 112.148-6.85863C112.148-8.34175 111.681-9.59105 110.551-11.0688L99.8647-25.3646L110.595-39.7278C111.754-41.2342 112.221-42.5121 112.221-43.9379C112.221-46.9561 109.951-49.1405 106.694-49.1405C104.224-49.1405 102.769-48.2056 101.057-45.45L92.9379-32.8558L92.5745-32.8558L84.1169-45.4787C82.2961-48.2627 80.9273-49.1405 78.4234-49.1405C75.1663-49.1405 72.7867-46.8988 72.7867-43.8132C72.7867-42.2728 73.2542-41.0808 74.4698-39.4885L84.8414-25.4791L74.0537-10.9154C72.9239-9.40904 72.4851-8.24561 72.4851-6.73388C72.4851-3.74438 74.7267-1.55989 77.9551-1.55989Z" />
</svg>