<svg xmlns="http://www.w3.org/2000/svg" viewBox="12.4609 -81.8822 116.51 93.36">
  <path d="M29.6986 11.4753L111.733 11.4753C122.895 11.4753 128.97 5.38973 128.97-5.67659L128.97-64.7304C128.97-75.7967 122.895-81.8822 111.733-81.8822L29.6986-81.8822C18.5648-81.8822 12.4609-75.8069 12.4609-64.7304L12.4609-5.67659C12.4609 5.39999 18.5648 11.4753 29.6986 11.4753ZM55.3588-14.235C52.2109-14.235 49.7642-16.6817 49.7642-19.8816C49.7642-21.2893 50.3694-22.6815 51.4576-23.7411L62.8006-35.1126L51.4576-46.4842C50.3694-47.5438 49.7642-48.9359 49.7642-50.3436C49.7642-53.5435 52.2109-55.933 55.3588-55.933C57.0286-55.933 58.3064-55.4083 59.4282-54.3151L70.7274-43.0394L82.0889-54.3437C83.2394-55.4942 84.5224-55.9902 86.1819-55.9902C89.3063-55.9902 91.753-53.5721 91.753-50.4009C91.753-48.9646 91.1998-47.6296 90.0882-46.5128L78.7451-35.1126L90.0596-23.7697C91.1477-22.7101 91.7243-21.3179 91.7243-19.8816C91.7243-16.6817 89.2776-14.235 86.1298-14.235C84.4651-14.235 83.0676-14.7883 82.0031-15.8815L70.7274-27.1287L59.5141-15.8815C58.3923-14.7883 57.0286-14.235 55.3588-14.235Z"/>
</svg>