<svg xmlns="http://www.w3.org/2000/svg" viewBox="12.4609 -81.9107 93.33 93.36">
  <path d="M29.6986 11.4467L88.5521 11.4467C99.7145 11.4467 105.79 5.36118 105.79-5.70513L105.79-64.7589C105.79-75.8252 99.7145-81.9107 88.5521-81.9107L29.6986-81.9107C18.5648-81.9107 12.4609-75.8355 12.4609-64.7589L12.4609-5.70513C12.4609 5.37145 18.5648 11.4467 29.6986 11.4467ZM31.0794-1.17762C27.1457-1.17762 25.0566-3.09527 25.0566-7.22898L25.0566-63.2351C25.0566-67.3974 27.1457-69.2864 31.0794-69.2864L87.1713-69.2864C91.0844-69.2864 93.1941-67.3974 93.1941-63.2351L93.1941-7.22898C93.1941-3.09527 91.0844-1.17762 87.1713-1.17762ZM46.626-13.6458L72.4577-13.6458C75.605-13.6458 77.6982-15.4922 77.6982-18.401C77.6982-21.3721 75.6621-23.0991 72.4577-23.0991L56.0579-23.0991L56.0579-23.5769L74.1303-46.9578C75.8335-48.9623 76.2438-50.0218 76.2438-52.0832C76.2438-55.1421 74.0391-57.2611 70.8556-57.2611L45.8993-57.2611C42.6715-57.2611 40.6302-55.4769 40.6302-52.5345C40.6302-49.5685 42.7286-47.7793 45.8993-47.7793L61.5251-47.7793L61.5251-47.33L43.4995-23.9777C41.8481-21.9912 41.2951-20.6228 41.2951-18.7327C41.2951-15.7361 43.4763-13.6458 46.626-13.6458Z" />
</svg>