<svg xmlns="http://www.w3.org/2000/svg" viewBox="9.76562 -71.2666 72.07 72.11">
  <path d="M22.7178 0.838867L68.8789 0.838867C77.4482 0.838867 81.8311-3.54395 81.8311-11.9932L81.8311-58.4346C81.8311-66.8838 77.4482-71.2666 68.8789-71.2666L22.7178-71.2666C14.1885-71.2666 9.76562-66.8838 9.76562-58.4346L9.76562-11.9932C9.76562-3.54395 14.1885 0.838867 22.7178 0.838867ZM23.2021-7.51562C19.915-7.51562 18.0801-9.23535 18.0801-12.6777L18.0801-57.75C18.0801-61.2324 19.915-62.9121 23.2021-62.9121L68.3945-62.9121C71.6816-62.9121 73.5166-61.2324 73.5166-57.75L73.5166-12.6777C73.5166-9.23535 71.6816-7.51562 68.3945-7.51562ZM33.9863-19.2002C41.6797-19.2002 44.0859-27.4932 44.0859-35.2539C44.0859-43.0146 41.6797-51.3076 33.9863-51.3076C26.293-51.3076 23.8867-43.0146 23.8867-35.2539C23.8867-27.4932 26.293-19.2002 33.9863-19.2002ZM33.9863-24.4189C31.5117-24.4189 30.3652-28.5625 30.3652-35.2539C30.3652-41.9453 31.5117-46.0889 33.9863-46.0889C36.4609-46.0889 37.5674-41.9453 37.5674-35.2539C37.5674-28.5625 36.4609-24.4189 33.9863-24.4189ZM55.4756-30.583C58.4277-30.583 60.6309-32.5225 61.4971-35.5957L61.626-35.5957C61.626-35.3438 61.626-35.083 61.626-34.8711C61.626-30.7051 61.0586-24.3438 57.5605-24.3438C56.1875-24.3438 55.2363-25.2549 54.6104-26.6182C53.958-27.9141 53.1104-28.5 51.8057-28.5C49.9287-28.5 49.1875-27.2354 49.1875-25.833C49.1875-25.3623 49.2764-24.8789 49.3828-24.4395C50.1992-21.0879 53.5781-19.2314 57.3877-19.2314C65.2988-19.2314 67.6562-27.5518 67.6562-35.4629C67.6562-42.5312 65.374-51.2188 57.4453-51.2188C51.541-51.2188 48.1709-46.3711 48.1709-40.3994C48.1709-35.3867 50.5205-30.583 55.4756-30.583ZM57.5518-35.3496C55.2275-35.3496 54.3125-38.0957 54.3125-40.6836C54.3125-43.3115 55.3877-46.0889 57.5518-46.0889C59.9561-46.0889 60.8711-43.3027 60.8711-40.6572C60.8711-37.9668 59.876-35.3496 57.5518-35.3496Z" />
</svg>