<svg xmlns="http://www.w3.org/2000/svg" viewBox="6.83594 -75.124 79.78 79.74">
  <path d="M46.7061 4.61621C68.7383 4.61621 86.6162-13.2617 86.6162-35.2539C86.6162-57.2461 68.7383-75.124 46.7061-75.124C24.7139-75.124 6.83594-57.2461 6.83594-35.2539C6.83594-13.2617 24.7139 4.61621 46.7061 4.61621ZM36.4814-18.873C34.5469-18.873 33.0293-20.3994 33.0293-22.2539L33.0293-44.7705L29.9639-42.2959C29.4805-41.9277 29.0234-41.7236 28.291-41.7236C26.9902-41.7236 25.9746-42.6738 25.9746-44.1641C25.9746-45.3535 26.583-46.2412 27.4834-46.8887L31.3516-49.8242C32.5049-50.7158 33.9609-51.6973 35.8779-51.6973C38.3271-51.6973 39.8135-50.335 39.8135-47.877L39.8135-22.2539C39.8135-20.3994 38.2871-18.873 36.4814-18.873ZM48.7373-19.3301C46.625-19.3301 45.5869-20.4531 45.5869-22.0146C45.5869-23.4043 46.3867-24.5186 47.3975-25.7285L53.5439-33.4561C55.6162-36.0518 57.9434-39.2891 57.9434-42.4238C57.9434-44.9736 56.8232-46.7363 54.8115-46.7363C52.8838-46.7363 52.0664-45.2754 51.3555-43.0762C50.8584-41.5234 49.8916-40.8223 48.3691-40.8223C46.6299-40.8223 45.6182-42.0469 45.6182-43.7686C45.6182-47.9229 49.6797-51.999 54.8516-51.999C60.4092-51.999 64.3105-48.2559 64.3105-42.6992C64.3105-38.9766 62.8076-36.0781 58.8457-31.2988L53.7432-25.0635L53.7432-24.6904L62.292-24.6904C63.9287-24.6904 64.8701-23.6885 64.8701-22.0059C64.8701-20.4521 63.9688-19.3301 62.292-19.3301Z"/>
</svg>