<svg xmlns="http://www.w3.org/2000/svg" viewBox="6.83594 -75.124 79.78 79.74">
  <path d="M46.7061 4.61621C68.7383 4.61621 86.6162-13.2217 86.6162-35.2539C86.6162-57.2861 68.7383-75.124 46.7061-75.124C24.7139-75.124 6.83594-57.2861 6.83594-35.2539C6.83594-13.2217 24.7139 4.61621 46.7061 4.61621ZM46.7061-4.01855C29.4434-4.01855 15.5107-17.9912 15.5107-35.2539C15.5107-52.5166 29.4434-66.4893 46.7061-66.4893C63.9688-66.4893 77.9414-52.5166 77.9414-35.2539C77.9414-17.9912 63.9688-4.01855 46.7061-4.01855ZM36.1885-19.5732C37.9678-19.5732 39.4277-21.0332 39.4277-22.8525L39.4277-47.3271C39.4277-49.7012 38.0078-51.0059 35.6738-51.0059C33.832-51.0059 32.3936-50.0332 31.3379-49.2393L27.5938-46.3701C26.751-45.7803 26.1826-44.9014 26.1826-43.7695C26.1826-42.3457 27.1406-41.4531 28.3838-41.4531C29.0674-41.4531 29.5156-41.6484 29.9502-42.0166L32.9092-44.3848L32.9092-22.8525C32.9092-21.0332 34.3691-19.5732 36.1885-19.5732ZM54.8164-19.2002C60.8672-19.2002 64.1484-24.1279 64.1484-30.2588C64.1484-35.3389 61.8115-40.1992 56.9414-40.1992C54.5762-40.1992 52.6973-39.0107 51.8574-37.0117L51.6621-37.0117L52.1641-45.2852L60.6152-45.2852C62.1592-45.2852 63.0293-46.4033 63.0293-47.877C63.0293-49.3545 62.0928-50.4375 60.6152-50.4375L50.248-50.4375C48.0508-50.4375 47.0654-49.0127 46.9277-46.8066L46.3945-37.0781C46.3545-36.5625 46.3457-35.9639 46.3457-35.4395C46.3457-33.7051 47.2461-32.2666 49.248-32.2666C50.3662-32.2666 51.0498-32.6396 51.8848-33.8027C52.6357-34.8467 53.4219-35.6279 54.7236-35.6279C57.127-35.6279 57.9668-32.5771 57.9668-30.1035C57.9668-27.3223 57.1221-24.3125 54.7012-24.3125C52.9062-24.3125 51.96-25.5605 51.2979-27.3379C50.7607-28.6602 49.7979-29.3613 48.6221-29.3613C47.0156-29.3613 45.9814-28.3184 45.9814-26.7119C45.9814-25.8057 46.1992-24.9482 46.5459-24.1621C47.8652-21.1924 51.3193-19.2002 54.8164-19.2002Z" />
</svg>