<svg xmlns="http://www.w3.org/2000/svg" viewBox="9.76562 -65.0605 72.07 59.89">
  <path d="M9.76562-9.33105C9.76562-7.06641 11.6582-5.17383 13.9229-5.17383C16.2275-5.17383 18.0801-7.06641 18.0801-9.33105L18.0801-60.8633C18.0801-63.168 16.2275-65.0605 13.9229-65.0605C11.6582-65.0605 9.76562-63.168 9.76562-60.8633ZM73.5166-9.33105C73.5166-7.06641 75.4092-5.17383 77.6738-5.17383C79.9785-5.17383 81.8311-7.06641 81.8311-9.33105L81.8311-60.8633C81.8311-63.168 79.9785-65.0605 77.6738-65.0605C75.4092-65.0605 73.5166-63.168 73.5166-60.8633ZM38.373-17.5742L54.0176-17.5742C55.7832-17.5742 56.8838-18.7188 56.8838-20.4893C56.8838-22.2461 55.7744-23.3242 54.0176-23.3242L44.0479-23.3242L44.0479-23.6797L49.8164-30.0088C51.3262-31.6387 52.5381-33.0508 53.4834-34.3203C55.2148-36.6113 56.1689-38.8574 56.1689-41.7559C56.1689-48.0098 51.4424-51.4639 45.4414-51.4639C40.6602-51.4639 36.3467-48.4707 35.2725-44.6807C35.126-44.1035 35.0371-43.5264 35.0371-42.9004C35.0371-41.0371 36.1816-39.8438 38.0449-39.8438C39.6377-39.8438 40.6758-40.6777 41.2969-42.1641C42.0029-44.4609 43.3447-45.8203 45.3926-45.8203C47.9111-45.8203 49.1904-43.8926 49.1904-41.4629C49.1904-39.4648 48.5156-37.9951 47.3701-36.3877C46.6465-35.3887 45.6787-34.1455 44.3691-32.707L36.918-24.4375C35.8799-23.3418 34.957-22.2148 34.957-20.5732C34.957-19.1143 35.7373-17.5742 38.373-17.5742Z"/>
</svg>