<svg xmlns="http://www.w3.org/2000/svg" viewBox="6.83594 -75.124 79.78 79.74">
  <path d="M46.7061 4.61621C68.7383 4.61621 86.6162-13.2617 86.6162-35.2539C86.6162-57.2461 68.7383-75.124 46.7061-75.124C24.7139-75.124 6.83594-57.2461 6.83594-35.2539C6.83594-13.2617 24.7139 4.61621 46.7061 4.61621ZM34.498-18.5889C30.2148-18.5889 25.9482-20.5156 24.874-24.2402C24.6299-24.9062 24.5322-25.5674 24.5322-26.3486C24.5322-28.1367 25.7393-29.2549 27.5762-29.2549C29.0537-29.2549 30.0742-28.4961 30.5088-27.0498C30.9971-25.5088 32.0498-23.9004 34.4893-23.9004C37.0742-23.9004 38.2695-26.0049 38.2695-28.377C38.2695-31.4189 36.7324-33.0977 33.6904-33.0977L32.917-33.0977C31.3379-33.0977 30.3789-33.9717 30.3789-35.4717C30.3789-36.9717 31.3467-37.917 32.917-37.917L33.6416-37.917C36.3193-37.917 37.6348-39.8877 37.6348-42.4463C37.6348-44.7295 36.626-46.5586 34.3516-46.5586C32.4951-46.5586 31.4199-45.2627 30.8066-43.2188C30.4072-41.7012 29.3477-41.1729 27.874-41.1729C25.9531-41.1729 25.043-42.4814 25.043-43.8975C25.043-44.6299 25.1006-45.3223 25.3359-46.0371C26.4502-49.5879 30.2676-51.8301 34.334-51.8301C39.7041-51.8301 43.9932-48.7764 43.9932-43.165C43.9932-39.7568 42.0811-36.6797 38.7539-35.8135L38.7539-35.6182C41.9717-35.2588 44.9521-32.8984 44.9521-28.04C44.9521-22.1445 40.4414-18.5889 34.498-18.5889ZM58.9414-18.5C55.2715-18.5 51.6846-20.5674 50.2764-23.6611C49.9697-24.4961 49.7119-25.3623 49.7119-26.3574C49.7119-28.0303 50.7549-29.0908 52.4678-29.0908C53.71-29.0908 54.6904-28.3809 55.2764-26.9521C55.9385-25.1572 56.9336-23.8203 58.8262-23.8203C61.3535-23.8203 62.2383-26.9941 62.2383-29.873C62.2383-32.4619 61.3496-35.6279 58.8486-35.6279C57.4893-35.6279 56.6543-34.8379 55.8633-33.7363C55.0195-32.5645 54.2871-32.1426 53.1025-32.1426C50.9941-32.1426 50.1162-33.6387 50.1162-35.4482C50.1162-36.0127 50.125-36.6289 50.165-37.1846L50.667-47.3564C50.8047-49.6377 51.8389-51.1289 54.1514-51.1289L64.9795-51.1289C66.5234-51.1289 67.5488-49.9883 67.5488-48.4443C67.5488-46.8643 66.5898-45.7285 64.9795-45.7285L56.1914-45.7285L55.6406-37.1182L55.8359-37.1182C56.7246-39.1748 58.7012-40.3896 61.1904-40.3896C66.2822-40.3896 68.7256-35.3389 68.7256-30.0371C68.7256-23.6182 65.2803-18.5 58.9414-18.5Z"/>
</svg>