<svg xmlns="http://www.w3.org/2000/svg" viewBox="9.76562 -71.2666 72.07 72.11">
  <path d="M22.7178 0.838867L68.8789 0.838867C77.4482 0.838867 81.8311-3.54395 81.8311-11.9932L81.8311-58.4346C81.8311-66.8838 77.4482-71.2666 68.8789-71.2666L22.7178-71.2666C14.1885-71.2666 9.76562-66.8838 9.76562-58.4346L9.76562-11.9932C9.76562-3.54395 14.1885 0.838867 22.7178 0.838867ZM33.6982-18.5889C29.375-18.5889 25.1484-20.5156 24.0342-24.2402C23.79-24.9062 23.6924-25.5674 23.6924-26.3486C23.6924-28.1367 24.8994-29.2549 26.7764-29.2549C28.2139-29.2549 29.2344-28.4961 29.709-27.0498C30.1572-25.5088 31.25-23.9004 33.6895-23.9004C36.2344-23.9004 37.4697-26.0049 37.4697-28.377C37.4697-31.4189 35.8926-33.0977 32.8506-33.0977L32.1172-33.0977C30.5381-33.0977 29.5391-33.9717 29.5391-35.4717C29.5391-36.9717 30.5469-37.917 32.1172-37.917L32.8018-37.917C35.5195-37.917 36.7949-39.8877 36.7949-42.4463C36.7949-44.7295 35.8262-46.5586 33.5518-46.5586C31.6553-46.5586 30.6201-45.2627 30.0068-43.2188C29.5674-41.7012 28.5078-41.1729 27.0342-41.1729C25.1133-41.1729 24.2031-42.4814 24.2031-43.8975C24.2031-44.6299 24.3008-45.3223 24.4961-46.0371C25.6504-49.5879 29.4277-51.8301 33.5342-51.8301C38.9043-51.8301 43.1533-48.7764 43.1533-43.165C43.1533-39.7568 41.2412-36.6797 37.9141-35.8135L37.9141-35.6182C41.1318-35.2588 44.1123-32.8984 44.1123-28.04C44.1123-22.1445 39.6016-18.5889 33.6982-18.5889ZM58.1016-18.5C54.4717-18.5 50.8447-20.5674 49.4365-23.6611C49.1299-24.4961 48.8721-25.3623 48.8721-26.3574C48.8721-28.0303 49.915-29.0908 51.6279-29.0908C52.8701-29.0908 53.8906-28.3809 54.4365-26.9521C55.0986-25.1572 56.0938-23.8203 57.9863-23.8203C60.5537-23.8203 61.3984-26.9941 61.3984-29.873C61.3984-32.4619 60.5498-35.6279 58.0088-35.6279C56.6494-35.6279 55.8545-34.8379 55.0234-33.7363C54.1797-32.5645 53.4873-32.1426 52.2627-32.1426C50.1943-32.1426 49.2764-33.6387 49.2764-35.4482C49.2764-36.0127 49.2852-36.6289 49.3252-37.1846L49.8271-47.3564C49.9648-49.6377 51.0391-51.1289 53.3115-51.1289L64.1396-51.1289C65.6836-51.1289 66.709-49.9883 66.709-48.4443C66.709-46.8643 65.75-45.7285 64.1396-45.7285L55.3916-45.7285L54.8008-37.1182L54.9961-37.1182C55.8848-39.1748 57.9014-40.3896 60.3506-40.3896C65.4424-40.3896 67.8857-35.3389 67.8857-30.0371C67.8857-23.6182 64.4404-18.5 58.1016-18.5Z"/>
</svg>