<svg xmlns="http://www.w3.org/2000/svg" viewBox="9.76562 -84.7861 77.03 97.98">
  <path d="M52.5801-54.9834L52.9658-65.4326L52.9658-80.0537C52.9658-82.8584 51.0332-84.7861 48.2812-84.7861C45.5293-84.7861 43.6367-82.8584 43.6367-80.0537L43.6367-65.4326L43.9824-54.9834C44.0664-52.6035 45.9014-50.6846 48.2812-50.6846C50.7012-50.6846 52.4961-52.6035 52.5801-54.9834ZM48.2812-44.0938C49.5928-44.0938 50.8428-44.6387 51.7783-45.5879L67.6455-61.2891C68.5986-62.2959 69.0947-63.4434 69.0947-64.6357C69.0947-67.1973 67.251-69.1348 64.6533-69.1348C63.3555-69.1348 62.2646-68.7012 61.3867-67.7705L48.2812-53.2559L35.1758-67.7705C34.3291-68.7012 33.2471-69.1348 31.9092-69.1348C29.3516-69.1348 27.4678-67.1973 27.4678-64.6357C27.4678-63.4434 27.9639-62.2959 28.957-61.2891L44.8242-45.5879C45.7598-44.6299 46.9697-44.0938 48.2812-44.0938ZM9.76562-35.7744C9.76562-33.1455 11.6934-31.209 14.3311-31.209L82.3115-31.209C84.9092-31.209 86.7969-33.1455 86.7969-35.7744C86.7969-38.4033 84.9092-40.3799 82.3115-40.3799L14.3311-40.3799C11.6934-40.3799 9.76562-38.4033 9.76562-35.7744ZM48.2812-27.4951C46.9697-27.4951 45.7598-26.9189 44.8242-25.9609L28.957-10.2598C27.9639-9.29297 27.4678-8.14551 27.4678-6.91309C27.4678-4.35156 29.3516-2.4541 31.9092-2.4541C33.2471-2.4541 34.3291-2.8877 35.1758-3.81836L48.2812-18.333L61.3867-3.81836C62.2646-2.8877 63.3555-2.4541 64.6533-2.4541C67.251-2.4541 69.0947-4.35156 69.0947-6.91309C69.0947-8.14551 68.5986-9.29297 67.6455-10.2598L51.7783-25.9609C50.8428-26.9102 49.5928-27.4951 48.2812-27.4951ZM52.5801-16.6055C52.4961-18.9854 50.7012-20.9043 48.2812-20.9043C45.9014-20.9043 44.0664-18.9854 43.9824-16.6055L43.6367-6.15625L43.6367 8.50488C43.6367 11.3096 45.5293 13.1973 48.2812 13.1973C51.0332 13.1973 52.9658 11.3096 52.9658 8.50488L52.9658-6.15625Z" />
</svg>