<svg xmlns="http://www.w3.org/2000/svg" viewBox="6.83594 -75.124 79.78 79.74">
  <path d="M46.7061 4.61621C68.7383 4.61621 86.6162-13.2617 86.6162-35.2539C86.6162-57.2461 68.7383-75.124 46.7061-75.124C24.7139-75.124 6.83594-57.2461 6.83594-35.2539C6.83594-13.2617 24.7139 4.61621 46.7061 4.61621ZM66.8496-35.2939C66.8496-34.2256 66.5039-33.2686 65.4619-32.209L53.0859-19.2559C52.3408-18.5195 51.5557-18.0938 50.4736-18.0938C48.4248-18.0938 46.9834-19.6895 46.9834-21.668C46.9834-22.71 47.3867-23.748 48.1719-24.4131L53.7783-29.624L56.1953-31.5605L50.2109-31.2148L30.2881-31.2148C28.0977-31.2148 26.3066-33.0684 26.3066-35.2939C26.3066-37.5283 28.0977-39.373 30.2881-39.373L50.2109-39.373L56.1953-39.0273L53.7783-40.9639L48.1719-46.1748C47.3867-46.8398 46.9834-47.8379 46.9834-48.8799C46.9834-50.8584 48.4248-52.4941 50.4736-52.4941C51.5557-52.4941 52.3408-52.0684 53.0859-51.332L65.4619-38.3789C66.5039-37.3193 66.8496-36.3623 66.8496-35.2939Z"/>
</svg>