<svg xmlns="http://www.w3.org/2000/svg" viewBox="-1.22266 -75.124 87.84 79.74">
  <path d="M2.65625-43.1611C-0.472656-43.1611-1.22266-40.8242 0.463867-38.498L9.48047-25.9863C10.8037-24.1611 12.8896-24.1611 14.1816-25.9863L23.1895-38.5381C24.8271-40.8242 24.0859-43.1611 21.0059-43.1611ZM86.6162-35.2539C86.6162-57.2861 68.7295-75.124 46.7061-75.124C24.7139-75.124 6.87598-57.3262 6.83594-35.1963C6.87598-32.8516 8.80859-30.9189 11.1533-30.9189C13.5381-30.9189 15.5107-32.8916 15.5107-35.2363C15.5107-52.5166 29.4434-66.4893 46.7061-66.4893C63.9688-66.4893 77.9414-52.5166 77.9414-35.2539C77.9414-17.9912 63.9688-4.01855 46.7061-4.01855C36.8369-4.01855 28.2285-8.59082 22.5195-15.6494C20.792-17.6494 18.3057-18.2656 16.2529-16.7734C14.3105-15.3916 13.8525-12.5186 15.7617-10.3154C23.1602-1.09668 34.2939 4.61621 46.7061 4.61621C68.7295 4.61621 86.6162-13.2217 86.6162-35.2539Z" />
</svg>