<svg xmlns="http://www.w3.org/2000/svg" viewBox="9.76562 -72.2979 74.01 74.13">
  <path d="M14.4248-39.8467C17.1025-39.8467 19.0439-41.7666 19.0439-44.4443L19.0439-45.5908L18.1562-57.6797L26.2812-49.0303L36.8887-38.2939C37.7842-37.3984 38.9277-36.9463 40.1689-36.9463C43.0283-36.9463 45.0947-38.9053 45.0947-41.7646C45.0947-43.0684 44.6162-44.248 43.6895-45.1348L33.0244-55.791L24.335-63.9072L36.5479-63.0195L37.8828-63.0195C40.5605-63.0195 42.5605-64.9609 42.5605-67.6387C42.5605-70.3252 40.5605-72.2979 37.8828-72.2979L17.4609-72.2979C12.582-72.2979 9.76562-69.4814 9.76562-64.6025L9.76562-44.4443C9.76562-41.8066 11.7471-39.8467 14.4248-39.8467ZM55.6602 1.83398L76.082 1.83398C80.9609 1.83398 83.7773-0.982422 83.7773-5.86133L83.7773-26.0195C83.7773-28.6572 81.7959-30.6172 79.1182-30.6172C76.4805-30.6172 74.499-28.6973 74.499-26.0195L74.499-24.873L75.4268-12.7842L67.3018-21.4336L56.6543-32.1699C55.7988-33.0654 54.6152-33.5176 53.374-33.5176C50.5146-33.5176 48.4482-31.5586 48.4482-28.6992C48.4482-27.3955 48.9668-26.2158 49.8535-25.3291L60.5186-14.6729L69.208-6.55664L57.0352-7.44434L55.6602-7.44434C52.9824-7.44434 51.0225-5.50293 50.9824-2.8252C50.9824-0.138672 52.9824 1.83398 55.6602 1.83398Z"/>
</svg>