<svg xmlns="http://www.w3.org/2000/svg" viewBox="9.76562 -70.2617 78.1 72.56">
  <path d="M52.75-44.417L52.75-32.6953L52.3955-26.8389L54.5537-29.1611L57.6094-32.292C58.293-33.0459 59.2725-33.4844 60.2393-33.4844C62.2393-33.4844 63.7959-32.0654 63.7959-30.0918C63.7959-29.001 63.3965-28.207 62.5811-27.4668L51.8135-17.7959C50.7578-16.8066 49.916-16.4307 48.8174-16.4307C47.7188-16.4307 46.877-16.8066 45.8213-17.7959L35.0537-27.4668C34.2383-28.207 33.8389-29.001 33.8389-30.0918C33.8389-32.0654 35.3154-33.4844 37.3955-33.4844C38.3398-33.4844 39.3555-33.0459 40.0254-32.292L43.0898-29.1611L45.2393-26.8389L44.8848-32.6953L44.8848-44.417C44.8848-46.5137 46.6895-48.1328 48.8174-48.1328C50.9854-48.1328 52.75-46.5137 52.75-44.417ZM48.8174 2.29785C49.8721 2.29785 51.4141 1.50098 52.6445 0.677734C74.2959-13.1631 87.8691-29.4619 87.8691-46.0146C87.8691-60.3203 77.9746-70.2617 65.6494-70.2617C57.8867-70.2617 52.3203-66.0098 48.8174-59.6973C45.3545-65.9697 39.748-70.2617 31.9854-70.2617C19.6602-70.2617 9.76562-60.3203 9.76562-46.0146C9.76562-29.4619 23.3389-13.1631 44.9902 0.677734C46.2207 1.50098 47.8027 2.29785 48.8174 2.29785Z"/>
</svg>