<svg xmlns="http://www.w3.org/2000/svg" viewBox="9.76562 -77.8857 89.22 85.26">
  <path d="M15.8457 1.90332L93.1855 1.90332L93.1855-3.42676C93.1855-5.29004 92.0811-6.38574 90.1865-6.38574L87.9912-6.38574L87.9912-49.7178L91.2012-49.7178C93.8047-49.7178 95.3438-51.6426 95.3438-53.5586C95.3438-54.9912 94.5098-56.2373 92.8242-57.2754L59.627-76.4082C58.0117-77.3623 56.2061-77.8857 54.5156-77.8857C52.7852-77.8857 50.9795-77.3623 49.3643-76.4082L16.167-57.2754C14.4414-56.2373 13.6475-54.9912 13.6475-53.5586C13.6475-51.6426 15.1865-49.7178 17.79-49.7178L21.04-49.7178L21.04-6.38574L18.8447-6.38574C16.9502-6.38574 15.8457-5.29004 15.8457-3.42676ZM13.6152 7.37793L95.1299 7.37793C97.21 7.37793 98.9883 5.63477 98.9883 3.48828C98.9883 1.39941 97.21-0.361328 95.1299-0.361328L13.6152-0.361328C11.5352-0.361328 9.76562 1.39941 9.76562 3.48828C9.76562 5.62598 11.5352 7.37793 13.6152 7.37793ZM36.1865-17.96C34.7725-17.96 33.668-18.7842 33.668-20.3584C33.668-20.9434 33.832-21.502 33.9473-21.9629L40.1611-43.9609C40.751-45.9736 42.001-47.0469 44.0625-47.0469C46.1992-47.0469 47.3779-46.0137 47.9766-43.9609L54.2881-21.9629C54.4609-21.3867 54.5186-20.8896 54.5186-20.3584C54.5186-18.7842 53.4229-17.96 52.0977-17.96C50.5996-17.96 49.8857-18.7178 49.4775-20.2119L48.2236-25.0801L39.9141-25.0801L38.6602-20.2383C38.3408-18.7354 37.5557-17.96 36.1865-17.96ZM40.8682-29.0449L47.252-29.0449L44.1377-41.21L43.8271-41.21ZM65.5312-15.2695C64.9893-15.2695 64.5361-15.6738 64.5361-16.2646L64.5361-18.8701C60.8027-19.208 57.6436-21.2471 56.8809-24.332C56.7656-24.749 56.6992-25.2236 56.6992-25.7158C56.6992-27.0469 57.6572-27.8896 58.9258-27.8896C60.083-27.8896 60.8857-27.2861 61.2715-25.9902C61.6709-24.4268 62.6035-23.1953 64.5361-22.8574L64.5361-30.4824L62.9629-31.1787C59.0879-32.915 56.8779-34.9121 56.8779-38.7959C56.8779-43.2158 60.1963-45.7812 64.5361-46.1367L64.5361-48.7822C64.5361-49.333 64.9893-49.7773 65.5312-49.7773C66.082-49.7773 66.5264-49.333 66.5264-48.7822L66.5264-46.1367C70.0771-45.8701 72.6504-44.0713 73.6396-40.9551C73.7949-40.418 73.8926-39.9248 73.8926-39.4062C73.8926-38.0664 72.9658-37.2949 71.582-37.2949C70.4688-37.2949 69.8125-37.8984 69.4004-38.9541C68.8496-40.7051 68.0547-41.8428 66.5264-42.1494L66.5264-34.667L68.1621-33.9395C72.0498-32.2168 74.4912-30.5928 74.4912-26.4199C74.4912-21.6533 70.9863-19.1631 66.5264-18.8701L66.5264-16.2646C66.5264-15.6738 66.082-15.2695 65.5312-15.2695ZM61.6533-39.1592C61.6533-37.4307 62.9688-36.4219 64.5361-35.6357L64.5361-42.1982C62.9014-41.9316 61.6533-40.8965 61.6533-39.1592ZM66.5264-22.8174C68.4814-23.0352 69.6846-23.9863 69.6846-25.9102C69.6846-27.7764 68.3203-28.7451 66.5264-29.6025Z"/>
</svg>