<svg xmlns="http://www.w3.org/2000/svg" viewBox="6.83594 -75.124 79.78 80.83">
  <path d="M6.83594-35.2539C6.83594-22.9629 12.583-11.5059 21.8076-4.26953C24.0684-2.37793 26.8838-2.81836 28.2656-4.80078C29.749-6.85352 29.1016-9.31738 27.1416-11.0273C20.0117-16.7676 15.5107-25.3848 15.5107-35.2539C15.5107-52.5166 29.4434-66.4893 46.7061-66.4893C63.9688-66.4893 77.9414-52.5166 77.9414-35.2539C77.9414-25.3848 73.4004-16.7676 66.3105-11.0273C64.3506-9.31738 63.7031-6.85352 65.1865-4.80078C66.5684-2.81836 69.3262-2.44434 71.5557-4.24707C80.7627-11.3594 86.6162-22.8838 86.6162-35.2539C86.6162-57.2861 68.7383-75.124 46.7061-75.124C24.7139-75.124 6.83594-57.2861 6.83594-35.2539ZM77.3379-1.47266L64.2773-14.6084C62.1162-16.8057 59.9824-15.8037 59.4668-13.0205L56.8223 2.09766C56.4443 4.34473 57.8164 5.70801 60.1123 5.38379L75.7256 3.21387C78.624 2.82324 79.5654 0.782227 77.3379-1.47266ZM34.5303-19.7822C36.4092-19.7822 37.6904-20.7256 38.3828-23.0928L40.5-29.5635L52.9121-29.5635L55.0693-23.0928C55.7217-20.7256 57.0029-19.7822 58.8818-19.7822C61.1777-19.7822 62.6143-21.1699 62.6143-23.3193C62.6143-24.0068 62.4502-24.7734 62.0645-25.9082L52.5645-52.0928C51.5674-54.9541 49.5596-56.3896 46.6396-56.3896C43.7861-56.3896 41.8535-54.9629 40.8477-52.0928L31.3477-25.9082C31.002-24.7734 30.8379-24.0068 30.8379-23.3193C30.8379-21.1699 32.2744-19.7822 34.5303-19.7822ZM42.2441-35.3408L46.4707-48.5781L46.9414-48.5781L51.168-35.3408Z"/>
</svg>