<svg xmlns="http://www.w3.org/2000/svg" viewBox="6.83594 -75.124 79.78 79.74">
  <path d="M46.7061 4.61621C68.7383 4.61621 86.6162-13.2617 86.6162-35.2539C86.6162-57.2461 68.7383-75.124 46.7061-75.124C24.7139-75.124 6.83594-57.2461 6.83594-35.2539C6.83594-13.2617 24.7139 4.61621 46.7061 4.61621ZM18.7617-35.3281C18.7617-36.5566 19.4443-37.5156 20.8691-38.3457L38.8252-48.9268C39.6465-49.4062 40.2764-49.6104 41.1328-49.6104C42.7168-49.6104 44.0479-48.4258 44.0479-46.2246L44.0479-36.708C44.4072-37.3604 44.9883-37.8975 45.8359-38.3457L63.752-48.9268C64.582-49.4062 65.252-49.6104 66.0996-49.6104C67.6924-49.6104 69.0234-48.4258 69.0234-46.2246L69.0234-24.4141C69.0234-22.2129 67.6836-21.0283 66.0908-21.0283C65.2432-21.0283 64.582-21.2324 63.752-21.7119L45.8359-32.2529C44.9883-32.7412 44.416-33.2871 44.0479-33.9482L44.0479-24.4141C44.0479-22.2129 42.708-21.0283 41.124-21.0283C40.2764-21.0283 39.6465-21.2324 38.8252-21.7119L20.8691-32.2529C19.4443-33.123 18.7617-34.0996 18.7617-35.3281Z"/>
</svg>