<svg xmlns="http://www.w3.org/2000/svg" viewBox="6.83594 -75.124 79.78 79.74">
  <path d="M46.7061-26.3408C51.6465-26.3408 55.6592-30.3135 55.6592-35.2539C55.6592-40.1943 51.6465-44.167 46.7061-44.167C41.8057-44.167 37.793-40.1943 37.793-35.2539C37.793-30.3135 41.8057-26.3408 46.7061-26.3408ZM46.7061-32.0244C44.9336-32.0244 43.4766-33.4414 43.4766-35.2539C43.4766-37.0664 44.9336-38.4834 46.7061-38.4834C48.5186-38.4834 49.9756-37.0664 49.9756-35.2539C49.9756-33.4414 48.5186-32.0244 46.7061-32.0244ZM48.124-41.8438L53.5-36.5605L65.9277-48.9883C67.4004-50.4609 67.4004-52.8652 65.9277-54.3379C64.4551-55.8105 62.0508-55.8105 60.5781-54.3379ZM45.585-28.6543L40.209-33.96L34.7129-28.4326C33.249-27.0088 33.2402-24.5557 34.7129-23.123C36.1855-21.6504 38.5986-21.6504 40.0625-23.123ZM46.7061 4.61621C68.7383 4.61621 86.6162-13.2217 86.6162-35.2539C86.6162-57.2861 68.7383-75.124 46.7061-75.124C24.7139-75.124 6.83594-57.2861 6.83594-35.2539C6.83594-13.2217 24.7139 4.61621 46.7061 4.61621ZM46.7061-4.01855C29.4434-4.01855 15.5107-17.9912 15.5107-35.2539C15.5107-52.5166 29.4434-66.4893 46.7061-66.4893C63.9688-66.4893 77.9414-52.5166 77.9414-35.2539C77.9414-17.9912 63.9688-4.01855 46.7061-4.01855Z"/>
</svg>