<svg xmlns="http://www.w3.org/2000/svg" viewBox="6.83594 -75.124 79.78 79.74">
  <path d="M46.7061 4.61621C68.7383 4.61621 86.6162-13.2617 86.6162-35.2539C86.6162-57.2461 68.7383-75.124 46.7061-75.124C24.7139-75.124 6.83594-57.2461 6.83594-35.2539C6.83594-13.2617 24.7139 4.61621 46.7061 4.61621ZM32.3359-22.7793C29.499-22.7793 26.5869-22.9658 24.4873-25.0479C22.4941-27.0811 22.2676-29.9443 22.2676-32.7412L22.2676-37.7666C22.2676-40.5635 22.4941-43.3867 24.4873-45.4688C26.5869-47.542 29.499-47.7773 32.3359-47.7773L58.7725-47.7773C61.5293-47.7773 64.4326-47.542 66.4658-45.4688C68.4678-43.3867 68.792-40.5635 68.792-37.7666L68.792-32.7412C68.792-29.9443 68.4678-27.0811 66.4658-25.0479C64.4326-22.9658 61.5293-22.7793 58.7725-22.7793ZM31.7988-27.6758L59.2607-27.6758C61.041-27.6758 62.3018-27.9688 62.9766-28.5859C63.5049-29.1631 63.8779-30.4238 63.8779-32.2617L63.8779-38.2549C63.8779-40.084 63.5049-41.3447 62.9766-41.9219C62.3018-42.5391 61.041-42.8809 59.2607-42.8809L31.7988-42.8809C29.9609-42.8809 28.7178-42.5391 28.0918-41.9219C27.4658-41.3848 27.2129-40.1328 27.2129-38.2549L27.2129-32.2617C27.2129-30.375 27.4658-29.123 28.0918-28.5859C28.7178-27.9688 29.9609-27.6758 31.7988-27.6758ZM32.0518-30.1572C31.1328-30.1572 30.6133-30.2461 30.2227-30.5879C29.8408-31.0186 29.6943-31.5469 29.6943-32.3994L29.6943-38.1572C29.6943-39.0098 29.8408-39.5381 30.2227-39.9688C30.6133-40.3105 31.1328-40.3994 32.0518-40.3994L59.0566-40.3994C59.9756-40.3994 60.4463-40.3105 60.8369-39.9688C61.2588-39.5381 61.4141-39.0098 61.4141-38.1572L61.4141-32.3994C61.4141-31.5469 61.2588-31.0186 60.8369-30.5879C60.4463-30.2461 59.9756-30.1572 59.0566-30.1572ZM70.4346-30.7168L70.4346-39.791C71.7842-39.6445 73.6709-37.9131 73.6709-35.2539C73.6709-32.5947 71.7842-30.8232 70.4346-30.7168Z"/>
</svg>