<svg xmlns="http://www.w3.org/2000/svg" viewBox="6.83594 -75.0752 79.78 79.74">
  <path d="M46.7061 4.66504C68.7383 4.66504 86.6162-13.2129 86.6162-35.2051C86.6162-57.1973 68.7383-75.0752 46.7061-75.0752C24.7139-75.0752 6.83594-57.1973 6.83594-35.2051C6.83594-13.2129 24.7139 4.66504 46.7061 4.66504ZM23.3477-21.0605L23.3477-31.7197C23.3477-35.5244 25.4209-37.5889 29.2744-37.5889L64.1777-37.5889C68.0312-37.5889 70.1045-35.5244 70.1045-31.7197L70.1045-21.0605C70.1045-20.0615 69.3896-19.3955 68.3906-19.3955L67.3076-19.3955C66.2998-19.3955 65.5762-20.0615 65.5762-21.0605L65.5762-23.5742C65.3984-23.5254 64.6748-23.5166 64.1777-23.5166L29.2744-23.5166C28.7773-23.5166 28.0537-23.5254 27.8359-23.5742L27.8359-21.0605C27.8359-20.0615 27.1523-19.3955 26.1445-19.3955L25.0215-19.3955C24.0625-19.3955 23.3477-20.0615 23.3477-21.0605ZM27.7559-40.5273L27.7559-45.7227C27.7559-49.2256 29.665-51.0459 33.1768-51.0459L60.2754-51.0459C63.7871-51.0459 65.6562-49.2256 65.6562-45.7227L65.6562-40.5273L60.8125-40.5273L60.8125-43.0859C60.8125-44.9062 59.876-45.8652 57.9756-45.8652L51.5459-45.8652C49.7256-45.8652 48.7979-44.9062 48.7979-43.0859L48.7979-40.5273L44.6943-40.5273L44.6943-43.0859C44.6943-44.9062 43.7666-45.8652 41.9463-45.8652L35.4365-45.8652C33.5762-45.8652 32.6396-44.9062 32.6396-43.0859L32.6396-40.5273Z"/>
</svg>