<svg xmlns="http://www.w3.org/2000/svg" viewBox="6.83594 -75.124 79.78 79.74">
  <path d="M46.7061 4.61621C68.7383 4.61621 86.6162-13.2217 86.6162-35.2539C86.6162-57.2861 68.7383-75.124 46.7061-75.124C24.7139-75.124 6.83594-57.2861 6.83594-35.2539C6.83594-13.2217 24.7139 4.61621 46.7061 4.61621ZM46.7061-4.01855C29.4434-4.01855 15.5107-17.9912 15.5107-35.2539C15.5107-52.5166 29.4434-66.4893 46.7061-66.4893C63.9688-66.4893 77.9414-52.5166 77.9414-35.2539C77.9414-17.9912 63.9688-4.01855 46.7061-4.01855ZM24.3496-21.7256C24.3496-20.7754 25.0156-20.1182 25.9258-20.1182L27.0312-20.1182C27.9814-20.1182 28.6562-20.7754 28.6562-21.7256L28.6562-24.0928C28.834-24.0439 29.5088-24.0352 29.9971-24.0352L63.415-24.0352C63.9434-24.0352 64.5781-24.0439 64.7959-24.0928L64.7959-21.7256C64.7959-20.7754 65.4707-20.1182 66.4209-20.1182L67.4863-20.1182C68.4365-20.1182 69.1025-20.7754 69.1025-21.7256L69.1025-31.8926C69.1025-35.5645 67.0957-37.5225 63.415-37.5225L29.9971-37.5225C26.3164-37.5225 24.3496-35.5645 24.3496-31.8926ZM28.5361-40.3857L33.207-40.3857L33.207-42.7979C33.207-44.5205 34.166-45.4219 35.8887-45.4219L42.1592-45.4219C43.8818-45.4219 44.792-44.5205 44.792-42.7979L44.792-40.3857L48.7002-40.3857L48.7002-42.7979C48.7002-44.5205 49.6104-45.4219 51.333-45.4219L57.5234-45.4219C59.2861-45.4219 60.2051-44.5205 60.2051-42.7979L60.2051-40.3857L64.876-40.3857L64.876-45.3594C64.876-48.6582 63.0645-50.4209 59.7168-50.4209L33.7354-50.4209C30.3877-50.4209 28.5361-48.6582 28.5361-45.3594Z" />
</svg>