<svg xmlns="http://www.w3.org/2000/svg" viewBox="6.83594 -75.0752 79.78 79.74">
  <path d="M46.7061 4.66504C68.7383 4.66504 86.6162-13.2129 86.6162-35.2051C86.6162-57.1973 68.7383-75.0752 46.7061-75.0752C24.7139-75.0752 6.83594-57.1973 6.83594-35.2051C6.83594-13.2129 24.7139 4.66504 46.7061 4.66504ZM32.5215-15.5469C27.8516-15.5469 25.4688-17.8809 25.4688-22.5107L25.4688-47.8818C25.4688-52.5117 27.8516-54.8457 32.5215-54.8457L60.9307-54.8457C65.6006-54.8457 67.9834-52.5117 67.9834-47.8818L67.9834-22.5107C67.9834-17.8809 65.6006-15.5469 60.9307-15.5469ZM32.3633-20.0205L61.0488-20.0205C62.6123-20.0205 63.4609-20.8604 63.4609-22.4727L63.4609-42.1113C63.4609-43.7637 62.6123-44.5947 61.0088-44.5947L32.4033-44.5947C30.8398-44.5947 29.9512-43.7637 29.9512-42.1113L29.9512-22.4727C29.9512-20.8604 30.7998-20.0205 32.3633-20.0205ZM42.6074-36.9551C41.6396-36.9551 41.3242-37.2881 41.3242-38.1582L41.3242-39.6768C41.3242-40.6357 41.6396-40.9512 42.6074-40.9512L44.0459-40.9512C45.0273-40.9512 45.3604-40.6357 45.3604-39.6768L45.3604-38.1582C45.3604-37.2881 45.0273-36.9551 44.0459-36.9551ZM49.3662-36.9551C48.4248-36.9551 48.0918-37.2881 48.0918-38.1582L48.0918-39.6768C48.0918-40.6357 48.4248-40.9512 49.3662-40.9512L50.8047-40.9512C51.8125-40.9512 52.0879-40.6357 52.0879-39.6768L52.0879-38.1582C52.0879-37.2881 51.8125-36.9551 50.8047-36.9551ZM56.1426-36.9551C55.1836-36.9551 54.8506-37.2881 54.8506-38.1582L54.8506-39.6768C54.8506-40.6357 55.1836-40.9512 56.1426-40.9512L57.5723-40.9512C58.5625-40.9512 58.8955-40.6357 58.8955-39.6768L58.8955-38.1582C58.8955-37.2881 58.5625-36.9551 57.5723-36.9551ZM35.8398-30.334C34.8896-30.334 34.5566-30.627 34.5566-31.5283L34.5566-32.998C34.5566-33.9971 34.8896-34.2812 35.8398-34.2812L37.2695-34.2812C38.2686-34.2812 38.6016-33.9971 38.6016-32.998L38.6016-31.5283C38.6016-30.627 38.2686-30.334 37.2695-30.334ZM42.6074-30.334C41.6396-30.334 41.3242-30.627 41.3242-31.5283L41.3242-32.998C41.3242-33.9971 41.6396-34.2812 42.6074-34.2812L44.0459-34.2812C45.0273-34.2812 45.3604-33.9971 45.3604-32.998L45.3604-31.5283C45.3604-30.627 45.0273-30.334 44.0459-30.334ZM49.3662-30.334C48.4248-30.334 48.0918-30.627 48.0918-31.5283L48.0918-32.998C48.0918-33.9971 48.4248-34.2812 49.3662-34.2812L50.8047-34.2812C51.8125-34.2812 52.0879-33.9971 52.0879-32.998L52.0879-31.5283C52.0879-30.627 51.8125-30.334 50.8047-30.334ZM56.1426-30.334C55.1836-30.334 54.8506-30.627 54.8506-31.5283L54.8506-32.998C54.8506-33.9971 55.1836-34.2812 56.1426-34.2812L57.5723-34.2812C58.5625-34.2812 58.8955-33.9971 58.8955-32.998L58.8955-31.5283C58.8955-30.627 58.5625-30.334 57.5723-30.334ZM35.8398-23.6553C34.8896-23.6553 34.5566-23.9883 34.5566-24.9385L34.5566-26.4258C34.5566-27.3584 34.8896-27.6289 35.8398-27.6289L37.2695-27.6289C38.2686-27.6289 38.6016-27.3584 38.6016-26.4258L38.6016-24.9385C38.6016-23.9883 38.2686-23.6553 37.2695-23.6553ZM42.6074-23.6553C41.6396-23.6553 41.3242-23.9883 41.3242-24.9385L41.3242-26.4258C41.3242-27.3584 41.6396-27.6289 42.6074-27.6289L44.0459-27.6289C45.0273-27.6289 45.3604-27.3584 45.3604-26.4258L45.3604-24.9385C45.3604-23.9883 45.0273-23.6553 44.0459-23.6553ZM49.3662-23.6553C48.4248-23.6553 48.0918-23.9883 48.0918-24.9385L48.0918-26.4258C48.0918-27.3584 48.4248-27.6289 49.3662-27.6289L50.8047-27.6289C51.8125-27.6289 52.0879-27.3584 52.0879-26.4258L52.0879-24.9385C52.0879-23.9883 51.8125-23.6553 50.8047-23.6553Z"/>
</svg>