<svg xmlns="http://www.w3.org/2000/svg" viewBox="6.83594 -74.502 94.28 78.54">
  <path d="M53.998-57.2354C60.8965-57.2354 67.2266-54.8779 72.2959-50.958C73.1475-50.3193 74.2207-50.377 75.0146-51.1709L84.291-60.416C85.249-61.374 85.2002-62.7666 84.1758-63.6182C75.9912-70.4316 65.4629-74.502 53.998-74.502C42.5332-74.502 31.9648-70.4316 23.8203-63.6182C22.7959-62.7666 22.7471-61.374 23.7051-60.416L32.9414-51.1709C33.7354-50.377 34.8574-50.3193 35.7578-51.0068C40.8271-54.8779 47.1484-57.2354 53.998-57.2354ZM6.83594-27.3799C6.83594-15.7783 11.0166-5.1709 17.9268 3.04004C18.7695 4.03809 20.1445 4.02051 21.0938 3.07129L30.5703-6.40527C31.2529-7.04785 31.293-7.96973 30.6768-8.71875C26.4951-14.0859 24.1426-20.4688 24.1426-27.3799C24.1426-34.2295 26.46-40.5508 30.3711-45.5801C31.0498-46.4805 31.0498-47.5938 30.2471-48.3965L20.9619-57.6729C20.0039-58.6309 18.6113-58.6221 17.7598-57.5977C10.9463-49.373 6.83594-38.8447 6.83594-27.3799ZM101.12-27.3799C101.12-38.8535 97.041-49.3994 90.1699-57.6328C89.3359-58.6309 87.9521-58.6309 86.9941-57.6729L77.749-48.3965C76.9463-47.5938 76.9463-46.4805 77.625-45.5801C81.5361-40.5508 83.8535-34.2295 83.8535-27.3799C83.8535-20.4688 81.501-14.0859 77.2793-8.71875C76.7031-7.96973 76.7432-7.04785 77.3857-6.40527L86.8623 3.07129C87.8115 4.02051 89.1953 4.02051 90.0557 3.01367C96.9883-5.19727 101.12-15.7871 101.12-27.3799ZM53.9668-13.7588C57.415-13.7588 60.8857-14.9355 63.0381-17.127C64.2461-18.3213 65.0986-19.96 65.0986-21.3936C65.0986-22.8965 63.9727-23.7969 62.5498-23.7969C61.2861-23.7969 60.6211-22.9893 60.1025-22.1025C58.7119-19.623 56.8594-18.3789 54.0244-18.3789C49.0049-18.3789 46.8311-22.2695 46.8311-27.3291C46.8311-32.4688 49.125-36.2617 53.9844-36.2617C56.8193-36.2617 58.8633-35.0488 60.0537-32.498C60.5898-31.4736 61.4062-30.8525 62.541-30.8525C63.9863-30.8525 65.0498-31.7529 65.0498-33.2959C65.0498-34.6992 64.0859-36.333 62.9316-37.5137C60.7969-39.6924 57.4463-40.8818 53.918-40.8818C45.8496-40.8818 41.1484-35.3018 41.1484-27.3291C41.1484-18.6328 46.4131-13.7588 53.9668-13.7588ZM53.8555-9.37109C54.584-9.37109 55.1836-9.9707 55.1836-10.7393L55.1836-43.9102C55.1836-44.6787 54.584-45.2783 53.8555-45.2783C53.0869-45.2783 52.5273-44.6787 52.5273-43.9102L52.5273-10.7393C52.5273-9.9707 53.0869-9.37109 53.8555-9.37109Z"/>
</svg>