<svg xmlns="http://www.w3.org/2000/svg" viewBox="9.76562 -85.3213 123.44 100.05">
  <path d="M71.4932-62.6592C81.3916-62.6592 91.0752-69.3838 91.0752-77.917C91.0752-80.7178 89.584-82.5244 86.0459-83.5811C81.668-84.8242 76.5889-85.3213 71.4932-85.3213C66.3574-85.3213 61.3184-84.8242 56.9404-83.5811C53.3623-82.5244 51.9111-80.7178 51.9111-77.917C51.9111-69.3838 61.5547-62.6592 71.4932-62.6592ZM68.248-39.75L74.7383-39.75L74.7383-66.1572L68.248-66.1572ZM18.3135-22.7275C22.9824-22.7275 26.8213-26.5664 26.8213-31.2754C26.8213-35.9531 22.9912-39.7832 18.3135-39.7832C13.6045-39.7832 9.76562-35.9443 9.76562-31.2754C9.76562-26.6064 13.6445-22.7275 18.3135-22.7275ZM41.6377-22.7275C47.3809-22.7275 52.0498-27.4365 52.0498-33.1396C52.0498-38.8828 47.3809-43.5918 41.6377-43.5918C35.8945-43.5918 31.2256-38.8828 31.2256-33.1396C31.2256-27.4365 35.8945-22.7275 41.6377-22.7275ZM71.4844-13.2285C79.6289-13.2285 86.2422-19.8418 86.2422-27.9863C86.2422-36.1309 79.6289-42.7441 71.4844-42.7441C63.3398-42.7441 56.7266-36.1309 56.7266-27.9863C56.7266-19.8418 63.3398-13.2285 71.4844-13.2285ZM101.331-22.7275C107.034-22.7275 111.743-27.4365 111.743-33.1396C111.743-38.8828 107.034-43.5918 101.331-43.5918C95.5879-43.5918 90.8789-38.8828 90.8789-33.1396C90.8789-27.4365 95.5879-22.7275 101.331-22.7275ZM124.655-22.7275C129.324-22.7275 133.203-26.6064 133.203-31.2754C133.203-35.9443 129.364-39.7832 124.655-39.7832C119.938-39.7832 116.107-35.9531 116.107-31.2754C116.107-26.5664 119.946-22.7275 124.655-22.7275ZM71.4844 14.7275C77.1875 14.7275 81.8965 10.0186 81.8965 4.31543C81.8965-1.42773 77.1875-6.09668 71.4844-6.09668C65.7812-6.09668 61.0723-1.42773 61.0723 4.31543C61.0723 10.0186 65.7812 14.7275 71.4844 14.7275ZM22.292-25.6309L16.0967-25.6309C15.8818-11.8633 35.1016-4.28711 45.4385-15.4912L42.002-20.7324C35.9082-12.2207 22.0244-16.7686 22.292-25.6309ZM44.7373-25.6309L38.4932-25.6309C37.79-10.9492 55.7148-4.34961 67.7646-16.0361L61.8438-19.1318C54.0439-13.0957 44.043-16.9619 44.7373-25.6309ZM98.2314-25.6309C98.8857-16.9619 88.9248-13.0957 81.085-19.1318L75.1641-16.0361C87.2539-4.34961 105.179-10.9492 104.436-25.6309ZM120.637-25.6309C120.904-16.7686 107.061-12.2207 100.967-20.7324L97.4902-15.4912C107.827-4.28711 127.087-11.8633 126.872-25.6309ZM68.3711-16.2783L68.3711-2.30566L74.5977-2.30566L74.5977-16.2783Z"/>
</svg>