<svg xmlns="http://www.w3.org/2000/svg" viewBox="9.76562 -71.2578 87.98 72.11">
  <path d="M14.3145-18.0195C14.3145-15.5801 15.8311-14.0947 18.293-14.0947L26.4854-14.0947C28.9873-14.0947 30.5039-15.5801 30.5039-18.0195L30.5039-50.1084C30.5039-52.5166 28.9873-54.002 26.4854-54.002L18.293-54.002C15.8311-54.002 14.3145-52.5166 14.3145-50.1084ZM35.2109-18.0195C35.2109-15.5801 36.7275-14.0947 39.1982-14.0947L47.3818-14.0947C49.8926-14.0947 51.4004-15.5801 51.4004-18.0195L51.4004-67.3643C51.4004-69.8125 49.8926-71.2578 47.3818-71.2578L39.1982-71.2578C36.7275-71.2578 35.2109-69.8125 35.2109-67.3643ZM56.1074-18.0195C56.1074-15.5801 57.6064-14.0947 60.1172-14.0947L68.2783-14.0947C70.7803-14.0947 72.2969-15.5801 72.2969-18.0195L72.2969-58.4404C72.2969-60.8887 70.7803-62.374 68.2783-62.374L60.1172-62.374C57.6064-62.374 56.1074-60.8887 56.1074-58.4404ZM77.0039-18.0195C77.0039-15.5801 78.5205-14.0947 81.0225-14.0947L89.2148-14.0947C91.6768-14.0947 93.1934-15.5801 93.1934-18.0195L93.1934-41.999C93.1934-44.4072 91.6768-45.9326 89.2148-45.9326L81.0225-45.9326C78.5205-45.9326 77.0039-44.4072 77.0039-41.999ZM9.76562-3.26562C9.76562-0.916992 11.623 0.847656 13.9141 0.847656L93.5938 0.847656C95.8848 0.847656 97.7422-0.916992 97.7422-3.26562C97.7422-5.57422 95.8848-7.37891 93.5938-7.37891L13.9141-7.37891C11.623-7.37891 9.76562-5.57422 9.76562-3.26562Z" />
</svg>