<svg xmlns="http://www.w3.org/2000/svg" viewBox="9.76562 -74.2725 88.52 78.22">
  <path d="M26.8652 3.95117C36.167 3.95117 43.8848-3.84668 43.8848-13.1484C43.8848-22.4814 36.167-30.2393 26.8652-30.2393C17.4746-30.2393 9.76562-22.4814 9.76562-13.1484C9.76562-3.84668 17.5146 3.95117 26.8652 3.95117ZM26.8652-3.23145C21.4561-3.23145 16.9482-7.7793 16.9482-13.1484C16.9482-18.5088 21.4961-23.0566 26.8652-23.0566C32.1943-23.0566 36.7021-18.5088 36.7021-13.1484C36.7021-7.7793 32.1943-3.23145 26.8652-3.23145ZM56.5107-53.1562L94.2627-53.1562C96.4795-53.1562 98.2842-54.9824 98.2842-57.1816C98.2842-59.4072 96.4883-61.207 94.2627-61.207L56.5107-61.207C54.2939-61.207 52.5293-59.3896 52.5293-57.1816C52.5293-55 54.3027-53.1562 56.5107-53.1562ZM56.5107-9.12305L94.2627-9.12305C96.4795-9.12305 98.2842-10.9492 98.2842-13.1484C98.2842-15.374 96.4883-17.1738 94.2627-17.1738L56.5107-17.1738C54.2939-17.1738 52.5293-15.3564 52.5293-13.1484C52.5293-10.9668 54.3027-9.12305 56.5107-9.12305ZM26.8652-40.1221C36.167-40.1221 43.8848-47.9199 43.8848-57.2217C43.8848-66.5547 36.167-74.2725 26.8652-74.2725C17.4746-74.2725 9.76562-66.5547 9.76562-57.2217C9.76562-47.9199 17.5146-40.1221 26.8652-40.1221ZM24.8193-48.1064C23.8965-48.1064 23.249-48.6035 22.6143-49.3047L18.4775-54.2939C18.0918-54.8262 17.9277-55.3145 17.9277-55.998C17.9277-57.2578 18.877-58.2383 20.0791-58.2383C20.8955-58.2383 21.4326-57.9277 22.0273-57.1641L24.7393-53.7275L31.3262-64.3096C31.8096-65.1523 32.4795-65.5605 33.3135-65.5605C34.5244-65.5605 35.5713-64.6289 35.5713-63.4668C35.5713-62.9209 35.4248-62.4238 35.0166-61.7715L27.0645-49.3398C26.5498-48.5723 25.7246-48.1064 24.8193-48.1064Z" />
</svg>