<svg xmlns="http://www.w3.org/2000/svg" viewBox="9.76562 -64.1982 70.29 57.89">
  <path d="M12.9004-18.4277L38.2129-8.17285C40.4922-7.24219 42.7666-6.30957 44.9131-6.30957C47.0596-6.30957 49.374-7.24219 51.6133-8.17285L76.9258-18.4277C78.7705-19.1855 80.0605-20.8574 80.0605-22.7764C80.0518-25.9404 77.7695-28.1572 74.8652-28.1572C73.3359-28.1572 71.3232-27.2842 69.875-26.6689L42.126-15.4941L47.7002-15.4941L19.9512-26.6689C18.5029-27.2842 16.5303-28.1572 14.9609-28.1572C12.0566-28.1572 9.77441-25.9404 9.76562-22.7764C9.76562-20.8574 11.0557-19.1855 12.9004-18.4277ZM12.9004-52.0801C11.0557-51.3223 9.76562-49.6504 9.76562-47.7314C9.77441-44.5674 12.0566-42.3506 14.9609-42.3506C16.5303-42.3506 18.5029-43.2236 19.9512-43.8389L47.7002-55.0137L42.126-55.0137L69.875-43.8389C71.3232-43.2236 73.3359-42.3506 74.8652-42.3506C77.7695-42.3506 80.0518-44.5674 80.0605-47.7314C80.0605-49.6504 78.7705-51.3223 76.9258-52.0801L51.6133-62.335C49.374-63.2656 47.0596-64.1982 44.9131-64.1982C42.7666-64.1982 40.4922-63.2656 38.2129-62.335Z"/>
</svg>