<svg xmlns="http://www.w3.org/2000/svg" viewBox="9.76562 -79.79 66.68 89.02">
  <path d="M43.124-16.458C53.4854-16.458 61.96-24.8926 61.96-35.3027C61.96-45.6641 53.4854-54.0986 43.124-54.0986C32.7627-54.0986 24.2881-45.6641 24.2881-35.3027C24.2881-24.8926 32.7627-16.458 43.124-16.458ZM9.76562-1.83691C9.76562 4.77051 14.4287 9.2334 21.3164 9.2334L64.8916 9.2334C71.8193 9.2334 76.4424 4.77051 76.4424-1.83691L76.4424-68.6797C76.4424-75.3271 71.8193-79.79 64.8916-79.79L21.3164-79.79C14.4287-79.79 9.76562-75.3271 9.76562-68.6797ZM18.0801-3.24219L18.0801-67.3145C18.0801-69.9209 19.6797-71.4756 22.4814-71.4756L63.7266-71.4756C66.5283-71.4756 68.1279-69.9209 68.1279-67.3145L68.1279-3.24219C68.1279-0.635742 66.5283 0.918945 63.7266 0.918945L22.4814 0.918945C19.6797 0.918945 18.0801-0.635742 18.0801-3.24219Z"/>
</svg>