<svg xmlns="http://www.w3.org/2000/svg" viewBox="9.76562 -71.8115 73.11 73.12">
  <path d="M26.5791-38.1758C35.8691-38.1758 43.3926-45.6992 43.3926-54.9893C43.3926-64.2793 35.8691-71.8027 26.5791-71.8027C17.2891-71.8027 9.76562-64.2793 9.76562-54.9893C9.76562-45.6992 17.2891-38.1758 26.5791-38.1758ZM26.5791-45.8594C21.541-45.8594 17.4492-49.9512 17.4492-54.9893C17.4492-60.0273 21.541-64.0791 26.5791-64.0791C31.6172-64.0791 35.6689-60.0273 35.6689-54.9893C35.6689-49.9512 31.6172-45.8594 26.5791-45.8594ZM66.0586-38.1846C75.3486-38.1846 82.8721-45.708 82.8721-54.998C82.8721-64.2881 75.3486-71.8115 66.0586-71.8115C56.7686-71.8115 49.2451-64.2881 49.2451-54.998C49.2451-45.708 56.7686-38.1846 66.0586-38.1846ZM66.0586-45.8682C61.0205-45.8682 56.9287-49.96 56.9287-54.998C56.9287-60.0361 61.0205-64.0879 66.0586-64.0879C71.0967-64.0879 75.1484-60.0361 75.1484-54.998C75.1484-49.96 71.0967-45.8682 66.0586-45.8682ZM26.5791 1.30371C35.8691 1.30371 43.3926-6.21973 43.3926-15.5098C43.3926-24.7998 35.8691-32.3232 26.5791-32.3232C17.2891-32.3232 9.76562-24.7998 9.76562-15.5098C9.76562-6.21973 17.2891 1.30371 26.5791 1.30371ZM26.5791-6.41992C21.541-6.41992 17.4492-10.4717 17.4492-15.5098C17.4492-20.5479 21.541-24.6396 26.5791-24.6396C31.6172-24.6396 35.6689-20.5479 35.6689-15.5098C35.6689-10.4717 31.6172-6.41992 26.5791-6.41992ZM66.0586 1.29492C75.3486 1.29492 82.8721-6.22852 82.8721-15.5186C82.8721-24.8086 75.3486-32.332 66.0586-32.332C56.7686-32.332 49.2451-24.8086 49.2451-15.5186C49.2451-6.22852 56.7686 1.29492 66.0586 1.29492ZM66.0586-6.42871C61.0205-6.42871 56.9287-10.4805 56.9287-15.5186C56.9287-20.5566 61.0205-24.6484 66.0586-24.6484C71.0967-24.6484 75.1484-20.5566 75.1484-15.5186C75.1484-10.4805 71.0967-6.42871 66.0586-6.42871Z"/>
</svg>