<svg xmlns="http://www.w3.org/2000/svg" viewBox="9.76562 -71.2666 72.07 72.11">
  <path d="M22.7178 0.838867L68.8789 0.838867C77.4482 0.838867 81.8311-3.54395 81.8311-11.9932L81.8311-58.4346C81.8311-66.8838 77.4482-71.2666 68.8789-71.2666L22.7178-71.2666C14.1885-71.2666 9.76562-66.8838 9.76562-58.4346L9.76562-11.9932C9.76562-3.54395 14.1885 0.838867 22.7178 0.838867ZM23.2021-7.51562C19.915-7.51562 18.0801-9.23535 18.0801-12.6777L18.0801-57.75C18.0801-61.2324 19.915-62.9121 23.2021-62.9121L68.3945-62.9121C71.6816-62.9121 73.5166-61.2324 73.5166-57.75L73.5166-12.6777C73.5166-9.23535 71.6816-7.51562 68.3945-7.51562ZM45.8184-15.0488C56.9531-15.0488 65.9834-24.0791 65.9834-35.2539C65.9834-46.4287 56.9531-55.459 45.8184-55.459C34.6436-55.459 25.6133-46.4287 25.6133-35.2539C25.6133-24.0791 34.6436-15.0488 45.8184-15.0488ZM45.8184-22.5039C38.7637-22.5039 33.0684-28.1992 33.0684-35.2539C33.0684-42.3086 38.7637-48.0039 45.8184-48.0039C52.833-48.0039 58.5684-42.3086 58.5684-35.2539C58.5684-28.1992 52.833-22.5039 45.8184-22.5039Z" />
</svg>