<svg xmlns="http://www.w3.org/2000/svg" viewBox="9.76562 -69.1562 144.05 67.7">
  <path d="M73.8291-21.877L89.7676-21.877C91.9814-21.877 93.0195-23.7041 91.8525-25.6875L84.0254-38.4639C82.9473-40.292 80.6807-40.3408 79.5225-38.4639L71.7754-25.6875C70.5771-23.7129 71.5889-21.877 73.8291-21.877ZM19.1182-9.45898L29.6729-8.32812L30.418-16.2822L21.0381-17.3154C18.8076-17.582 17.7373-18.6299 17.7373-20.5801L17.7373-25.4297C17.7373-31.3262 21.8809-35.0254 30.4795-36.6279L54.7852-41.1953C57.0176-41.6348 59.0938-41.9141 60.5801-43.1475C67.7871-49.3916 76.0771-54.9121 85.1621-59.8154C89.9902-62.3994 86.0049-69.1562 81.0117-66.4961C71.5723-61.4375 62.665-55.6113 55.1914-49.2383L29.3848-44.4756C16.3906-42.0391 9.76562-35.8535 9.76562-25.4297L9.76562-19.9072C9.76562-13.4072 12.6357-10.1689 19.1182-9.45898ZM39.584-1.45898C47.8018-1.45898 54.249-7.90625 54.249-16.124C54.249-24.3506 47.8018-30.7979 39.584-30.7979C31.3574-30.7979 24.9102-24.3506 24.9102-16.124C24.9102-7.90625 31.3574-1.45898 39.584-1.45898ZM39.584-8.96484C35.5781-8.96484 32.416-12.127 32.416-16.124C32.416-20.1299 35.5781-23.292 39.584-23.292C43.5811-23.292 46.7432-20.1299 46.7432-16.124C46.7432-12.127 43.5811-8.96484 39.584-8.96484ZM48.6738-10.1514L115.451-10.1514L115.451-18.1143L48.6738-18.1143ZM124.004-1.45898C132.222-1.45898 138.669-7.90625 138.669-16.124C138.669-24.3506 132.222-30.7979 124.004-30.7979C115.777-30.7979 109.33-24.3506 109.33-16.124C109.33-7.90625 115.777-1.45898 124.004-1.45898ZM124.004-8.96484C119.998-8.96484 116.836-12.127 116.836-16.124C116.836-20.1299 119.998-23.292 124.004-23.292C128.001-23.292 131.163-20.1299 131.163-16.124C131.163-12.127 128.001-8.96484 124.004-8.96484ZM134.63-11.0928L142.082-11.8291C149.936-12.5967 153.813-17.0293 153.813-25.207L153.813-32.3486C153.813-42.1113 150.242-46.1934 141.287-47.8711L123.443-51.1963C118.124-52.1992 113.146-52.7324 106.651-52.3506L55.2314-49.2383L53.502-41.1602L106.199-44.3389C111.381-44.6494 116.021-44.3164 122.613-42.9932L139.877-39.6729C144.194-38.8555 145.842-36.9941 145.842-32.3486L145.842-25.207C145.842-21.8223 144.247-19.9521 141.066-19.6367L134.63-19.0557Z"/>
</svg>