<svg xmlns="http://www.w3.org/2000/svg" viewBox="9.76562 -82.0635 105.01 93.67">
  <path d="M13.5811 11.6045C15.6416 11.6045 17.4277 9.97852 17.4277 7.90918L17.4277-78.417C17.4277-80.4375 15.6416-82.0635 13.5811-82.0635C11.5518-82.0635 9.76562-80.4375 9.76562-78.417L9.76562 7.90918C9.76562 9.97852 11.5518 11.6045 13.5811 11.6045ZM33.1641 3.31055L46.3379 3.31055C52.6396 3.31055 56.126-0.264648 56.126-6.66406L56.126-63.835C56.126-70.2344 52.6396-73.7695 46.3379-73.7695L33.1641-73.7695C26.8936-73.7695 23.3672-70.2344 23.3672-63.835L23.3672-6.66406C23.3672-0.264648 26.8936 3.31055 33.1641 3.31055ZM34.1084-4.51172C32.1934-4.51172 31.1895-5.51562 31.1895-7.35059L31.1895-63.1572C31.1895-64.9834 32.1934-65.9873 34.1084-65.9873L45.4248-65.9873C47.2998-65.9873 48.3438-64.9834 48.3438-63.1572L48.3438-7.35059C48.3438-5.51562 47.2998-4.51172 45.4248-4.51172ZM72.2295 11.6045C74.29 11.6045 76.0361 9.97852 76.0361 7.90918L76.0361-78.417C76.0361-80.4375 74.29-82.0635 72.2295-82.0635C70.1602-82.0635 68.374-80.4375 68.374-78.417L68.374 7.90918C68.374 9.97852 70.1602 11.6045 72.2295 11.6045ZM91.7725-10.249L104.986-10.249C111.248-10.249 114.774-13.793 114.774-20.1924L114.774-50.3154C114.774-56.7148 111.248-60.25 104.986-60.25L91.7725-60.25C85.502-60.25 81.9756-56.7148 81.9756-50.3154L81.9756-20.1924C81.9756-13.793 85.502-10.249 91.7725-10.249ZM92.7168-18.04C90.8018-18.04 89.7979-19.084 89.7979-20.8789L89.7979-49.6377C89.7979-51.4238 90.8018-52.4678 92.7168-52.4678L104.033-52.4678C105.948-52.4678 106.952-51.4238 106.952-49.6377L106.952-20.8789C106.952-19.084 105.948-18.04 104.033-18.04Z" />
</svg>