<svg xmlns="http://www.w3.org/2000/svg" viewBox="7.13379 -76.5234 83.12 82.54">
  <path d="M45.2803-55.8154L55.5908-66.0459C56.377-66.8408 57.4473-66.8408 58.2021-66.0859L79.2354-45.0928C79.9814-44.3467 79.9414-43.2764 79.1953-42.4814L68.8848-32.2109L74.7305-26.3252L85.6631-37.2578C89.5928-41.1475 89.5352-46.5645 85.5166-50.583L63.6523-72.416C59.6738-76.4346 54.248-76.5234 50.3672-72.5938L39.4346-61.6611ZM57.0137-20.3799L42.8799-6.25488C40.418-3.7041 37.4678-3.85938 34.7617-6.56543L19.6748-21.6123C17-24.3271 16.8535-27.2686 19.3154-29.8193L33.4492-43.9443L27.5547-49.8301L13.1064-35.3418C7.13379-29.3291 7.36035-22.2354 13.6572-15.8496L28.999-0.556641C35.3447 5.78906 42.4297 6.01562 48.4424 0.00292969L62.8994-14.4941ZM20.3984-36.6367L49.6973-7.28906L54.7549-12.3467L25.5273-41.5654ZM84.1572-0.335938C85.4844 0.991211 87.6504 0.991211 88.9287-0.335938C90.2471-1.66309 90.2559-3.78027 88.9287-5.10742L19.7393-74.3369C18.4121-75.6641 16.2461-75.6641 14.9189-74.3369C13.6406-73.0586 13.6406-70.8438 14.9189-69.5654Z"/>
</svg>