<svg xmlns="http://www.w3.org/2000/svg" viewBox="9.76562 -71.4229 66.97 73.14">
  <path d="M16.6826-20.2236C19.5928-20.2236 21.3926-22.0225 21.4678-25.0391L22.0127-65.5957C22.0215-65.7803 22.0303-65.9824 22.0303-66.1318C22.0303-69.3477 19.707-71.3994 16.6514-71.3994C13.5957-71.3994 11.2549-69.3477 11.2549-66.1318C11.2549-65.9824 11.2637-65.7803 11.2725-65.5957L11.8574-25.0391C11.9326-22.0225 13.7637-20.2236 16.6826-20.2236ZM16.6426 1.71289C20.4248 1.71289 23.4707-1.34277 23.4707-5.0498C23.4707-8.82812 20.4248-11.8037 16.6426-11.8037C12.8428-11.8037 9.76562-8.82812 9.76562-5.0498C9.76562-1.34277 12.8428 1.71289 16.6426 1.71289ZM52.7676-19.9902C56.002-19.9902 57.6816-22.002 57.8926-24.9482C57.9014-25.1748 57.9189-25.3877 57.9277-25.6143C58.1748-30.0791 59.9287-31.9355 66.0088-35.8955C72.5186-40.1523 76.7334-45.3467 76.7334-52.8271C76.7334-64.7627 67.0352-71.4229 54.5332-71.4229C45.4033-71.4229 37.5479-67.5752 34.0586-60.4658C33.1445-58.6904 32.7676-56.7686 32.7676-55.0693C32.7588-52.1396 34.5352-50.1094 37.7266-50.1094C40.2051-50.1094 42.084-51.5156 42.8945-53.8174C44.96-60.0215 48.9502-61.9492 54.0684-61.9492C60.5557-61.9492 65.5635-58.4443 65.5635-52.7881C65.5635-47.543 62.3906-44.9844 57.499-41.7412C51.8955-37.9971 47.3818-33.6045 47.3818-27.1113C47.3818-26.5332 47.3818-25.9951 47.3818-25.457C47.3818-22.1895 49.3223-19.9902 52.7676-19.9902ZM52.7803 1.71289C56.6113 1.71289 59.6572-1.34277 59.6572-5.0498C59.6572-8.82812 56.6113-11.8037 52.7803-11.8037C48.9893-11.8037 45.9121-8.82812 45.9121-5.0498C45.9121-1.34277 48.9893 1.71289 52.7803 1.71289Z"/>
</svg>