<svg xmlns="http://www.w3.org/2000/svg" viewBox="9.76562 -68.3125 50.72 67.12">
  <path d="M20.0879-1.18945C29.3037-1.18945 35.5381-6.50488 36.9844-17.0615L41.6143-51C42.4756-57.5195 45.0752-59.9902 49.7178-59.9902C53.3994-59.9902 54.7998-59.5508 56.5713-59.5508C58.8398-59.5508 60.4883-60.999 60.4883-63.4678C60.4883-67.2764 55.625-68.3125 50.2061-68.3125C40.9502-68.3125 34.7158-62.9971 33.2695-52.4404L28.6396-18.502C27.7871-11.9912 25.1875-9.51172 20.5762-9.51172C16.8545-9.51172 15.4541-9.95117 13.6826-9.95117C11.4141-9.95117 9.76562-8.50293 9.76562-6.03418C9.76562-2.22559 14.6689-1.18945 20.0879-1.18945ZM18.0371-33.2021L55.293-33.2021C57.7705-33.2021 59.5518-34.9746 59.5518-37.3633C59.5518-39.752 57.7217-41.5244 55.2441-41.5244L17.9883-41.5244C15.5508-41.5244 13.7295-39.752 13.7295-37.3633C13.7295-34.9746 15.5996-33.2021 18.0371-33.2021Z"/>
</svg>