<svg xmlns="http://www.w3.org/2000/svg" viewBox="6.47754 -69.8926 118.17 67.65">
  <path d="M12.0127-29.5645L56.6055-5.45703C60.3291-3.41992 62.8447-2.24414 65.542-2.24414C68.2393-2.24414 70.7549-3.41992 74.5186-5.45703L119.071-29.5645C123.205-31.791 124.646-36.8691 121.83-40.8652C109.345-58.4326 88.8125-69.8926 65.542-69.8926C42.3115-69.8926 21.7393-58.4326 9.25391-40.8652C6.47754-36.8691 7.87891-31.791 12.0127-29.5645ZM17.8496-35.8291C17.0332-36.2461 16.8379-37.1602 17.4414-37.9502C28.584-52.7012 45.3896-61.5117 65.542-61.5117C85.792-61.5117 102.646-52.6523 113.731-37.8438C114.246-37.1113 114.042-36.2461 113.226-35.8291L69.7354-12.3125C68.0215-11.4023 66.835-10.918 65.542-10.918C64.2891-10.918 63.0625-11.4023 61.3486-12.3125Z"/>
</svg>