<svg xmlns="http://www.w3.org/2000/svg" viewBox="6.83594 -75.124 79.78 79.74">
  <path d="M46.7061 4.61621C68.7383 4.61621 86.6162-13.2617 86.6162-35.2539C86.6162-57.2461 68.7383-75.124 46.7061-75.124C24.7139-75.124 6.83594-57.2461 6.83594-35.2539C6.83594-13.2617 24.7139 4.61621 46.7061 4.61621ZM52.5039-48.3965C49.8848-48.3965 47.7852-50.5762 47.7852-53.1953C47.7852-55.7832 49.8848-57.9141 52.5039-57.9141C55.123-57.9141 57.3027-55.7832 57.3027-53.1953C57.3027-50.5762 55.123-48.3965 52.5039-48.3965ZM25.6709-44.3838C25.6709-45.6133 26.6963-46.665 27.9346-46.665L28.3926-46.665L28.3926-48.4854C26.7988-49.4219 25.6445-51.3486 25.6445-53.0488C25.6445-55.375 27.4512-57.1504 29.7461-57.1504C32.0811-57.1504 33.8965-55.375 33.8965-53.0488C33.8965-51.3887 32.7822-49.4619 31.1885-48.4854L31.1885-46.665L47.8555-46.665C51.8379-46.665 53.8711-46.2656 55.8066-44.25L59.8652-39.9648L64.7676-44.8848C65.7041-45.8213 67.0576-45.7637 67.9453-44.8848C68.8418-44.0195 68.7842-42.6436 67.9453-41.7471L61.4941-35.2871C61.0059-34.7988 60.46-34.6348 59.8652-34.6348C59.3105-34.6348 58.7646-34.8389 58.3164-35.2871L53.5391-40.0732C53.0371-40.5664 52.3213-40.4775 52.1035-39.7754L48.9199-30.3223L55.6426-26.3838C56.1885-26.042 56.5303-25.6426 56.6768-25.0967L59.8955-13.7305C60.2549-12.3994 59.5186-11.4053 58.5068-11.0234C57.415-10.6504 56.0654-11.0498 55.6172-12.5723L52.5713-22.8154L43.8643-26.665C41.2539-27.8281 39.9443-30.6514 40.9033-33.4082L43.4385-40.8848C43.7051-41.7246 43.1982-42.1514 42.5674-42.1514L27.9521-42.1514C26.7051-42.1514 25.6709-43.1455 25.6709-44.3838ZM31.0908-11.8047C30.4121-12.7988 30.4922-14.2988 31.9033-15.0576L40.668-19.9727L41.8672-25.4531C41.916-25.3555 42.293-25.1338 43.0742-24.752L46.5674-23.2783L44.7334-17.8291C44.5381-17.2432 44.1963-16.7861 43.6592-16.5332L34.0381-11.1963C32.7686-10.5127 31.6855-10.9746 31.0908-11.8047ZM59.3867-30.7861C59.3867-31.6113 60.1367-32.3213 60.9131-32.3213L73.4111-32.3213L73.4111-29.2109L60.9131-29.2109C60.1367-29.2109 59.3867-29.9609 59.3867-30.7861Z"/>
</svg>