<svg xmlns="http://www.w3.org/2000/svg" viewBox="6.83594 -75.124 79.78 79.74">
  <path d="M46.7061 4.61621C68.7383 4.61621 86.6162-13.2617 86.6162-35.2539C86.6162-57.2461 68.7383-75.124 46.7061-75.124C24.7139-75.124 6.83594-57.2461 6.83594-35.2539C6.83594-13.2617 24.7139 4.61621 46.7061 4.61621ZM46.5332-53.9102C43.9141-53.9102 41.7256-56.0498 41.7256-58.6689C41.7256-61.2881 43.9141-63.4678 46.5332-63.4678C49.1211-63.4678 51.252-61.2881 51.252-58.6689C51.252-56.0498 49.1211-53.9102 46.5332-53.9102ZM49.2461-18.623C47.8525-18.9824 47.4355-20.2295 47.7461-21.3613L50.166-29.3584L41.2988-31.4854C37.7207-32.3154 36.6953-34.4238 37.0859-37.5449L38.0762-45.3516C38.1162-45.707 37.8008-45.8535 37.5742-45.707L34.6777-43.9033L34.6777-36.4971C34.6777-35.2588 33.6748-34.2158 32.4365-34.2158C31.2383-34.2158 30.2041-35.2588 30.2041-36.4971L30.2041-45.1504C30.2041-45.9316 30.6035-46.6328 31.2471-47.0322L38.2266-51.3877C39.625-52.249 41.4629-52.7373 43.6426-52.2979L44.8457-52.0225C46.9189-51.6719 48.5215-50.3623 49.4316-48.6221L52.1934-43.0273L59.4531-43.0273C60.6914-43.0273 61.7344-42.042 61.7344-40.8037C61.7344-39.5967 60.6826-38.6025 59.4531-38.6025L50.8086-38.6025C49.9922-38.6025 49.251-39.0107 48.8516-39.8408L47.1016-43.2031C46.9639-43.5586 46.4482-43.4697 46.4082-43.083L45.3867-36.1104L53.7432-33.1885C54.9727-32.7803 55.4697-31.582 55.1279-30.4014L52.0156-20.123C51.5762-18.6719 50.1338-18.3477 49.2461-18.623ZM33.4004-10.8086C32.3086-11.5098 32.0557-12.8945 32.7568-13.9375L38.8975-23.1328L39.3281-29.7676C39.7764-29.6123 40.2646-29.4258 40.7617-29.2881L44.2549-28.4893L43.3711-22.374C43.2822-21.7969 43.1357-21.4375 42.834-21.0068L36.4717-11.4922C35.6328-10.3027 34.1904-10.3027 33.4004-10.8086ZM42.4688-7.10645C41.6035-7.10645 40.9023-7.90527 40.9023-8.73047C40.9023-9.50684 41.6436-10.248 42.4688-10.248L47.6689-10.248L47.6689-14.0361C47.6689-14.9014 48.3789-15.5713 49.2441-15.5713L54.3955-15.5713L54.3955-19.3818C54.3955-20.207 55.0566-20.9258 55.9307-20.9258L61.1396-20.9258L61.1396-24.7852C61.1396-25.5527 61.792-26.3203 62.6572-26.3203L69.3613-26.3203C70.2578-26.3203 70.9365-25.5615 70.9365-24.7852C70.9365-23.9199 70.2578-23.21 69.3613-23.21L64.2412-23.21L64.2412-19.3818C64.2412-18.5654 63.5713-17.8555 62.6572-17.8555L57.4658-17.8555L57.4658-14.0361C57.4658-13.2021 56.7559-12.501 55.9307-12.501L50.7881-12.501L50.7881-8.73047C50.7881-7.89648 50.1006-7.10645 49.2441-7.10645Z"/>
</svg>