<svg xmlns="http://www.w3.org/2000/svg" viewBox="6.83594 -75.124 79.78 79.74">
  <path d="M46.7061 4.61621C68.7383 4.61621 86.6162-13.2617 86.6162-35.2539C86.6162-57.2461 68.7383-75.124 46.7061-75.124C24.7139-75.124 6.83594-57.2461 6.83594-35.2539C6.83594-13.2617 24.7139 4.61621 46.7061 4.61621ZM34.0186-43.0254C31.3506-43.0254 29.251-45.1562 29.251-47.8242C29.251-50.4434 31.3506-52.583 34.0186-52.583C36.6777-52.583 38.7861-50.4434 38.7861-47.8242C38.7861-45.1562 36.6777-43.0254 34.0186-43.0254ZM46.0293-20.749L40.1289-10.0537C39.4365-8.7666 38.083-8.52246 37.04-9.1084C35.9395-9.66309 35.5889-11.0967 36.1523-12.2061L41.915-22.8438L42.1104-23.2256L47.3945-32.9014L37.3633-32.9014C35.6191-32.9014 34.4697-34.6943 35.4238-36.3232L42.834-49.0303C42.9717-49.3057 42.9229-49.5859 42.7051-49.835C40.9424-51.6553 38.9043-53.3604 36.6621-54.9854L29.4287-54.9854C28.1904-54.9854 27.1963-56.0195 27.1963-57.2666C27.1963-58.5449 28.1904-59.5479 29.4287-59.5479L36.835-59.5479C37.6162-59.5479 38.2998-59.3125 38.9922-58.873C53.626-49.1855 58.5986-32.625 61.0537-23.8828L61.1514-23.4922C62.7676-17.8486 62.8252-12.5127 62.8252-11.1631C62.8252-9.83594 61.8799-8.82422 60.5928-8.82422C59.2969-8.82422 58.2627-9.80957 58.2627-11.2256C58.2627-11.9492 58.125-15.6162 56.7754-22.2051L52.5967-29.8164ZM41.3008-37.4199L45.6934-37.4199L43.8193-40.2266C43.6416-40.542 43.1572-40.5996 42.8906-40.1777Z"/>
</svg>