<svg xmlns="http://www.w3.org/2000/svg" viewBox="9.47754 -75.4971 99.64 80.59">
  <path d="M33.3184-57.6963C38.2002-57.6963 42.1631-61.7793 42.1631-66.5635C42.1631-71.4717 38.2002-75.4971 33.3184-75.4971C28.3701-75.4971 24.4736-71.4717 24.4736-66.5635C24.4736-61.7793 28.3701-57.6963 33.3184-57.6963ZM16.2637-24.8193L41.4277-52.7305C39.0576-53.5918 36.3232-54.04 33.3184-54.04C21.8418-54.04 15.1318-48.4971 15.1318-39.3105C15.1318-37.0869 15.207-34.0869 15.5488-31.0781ZM50.3467-24.8193L50.999-31.0781C51.3496-34.0869 51.4873-37.0869 51.4873-39.3105C51.4873-43.7354 49.876-47.3525 46.96-49.8467L27.2979-28.001C29.3359-28.2764 31.3115-28.3652 33.3184-28.3652C38.9502-28.3652 44.5596-27.624 50.3467-24.8193ZM23.6514 4.84277C26.0605 4.50098 27.6045 2.80176 27.2939-0.228516L25.7627-14.8086L40.8564-14.8086L39.2363-0.228516C38.8857 2.80176 40.5273 4.50098 42.9453 4.84277C45.4121 5.0957 47.2979 3.53809 47.6084 0.636719L49.668-18.418C44.4844-21.4092 38.7949-22.5586 33.3184-22.5586C27.7842-22.5586 22.0459-21.4092 16.9736-18.418L19.0107 0.636719C19.2812 3.53809 21.1758 5.0957 23.6514 4.84277ZM46.96-49.8867L54.4697-58.2041C55.916-59.7744 55.7871-61.5625 54.3721-62.6758C53.0723-63.8516 51.3818-63.9004 49.8867-62.2412L41.4277-52.7305C43.4551-51.9805 45.3672-51.0088 46.96-49.8867ZM11.1885-21.8115C9.52637-20.5879 9.47754-18.7207 10.2666-17.5186C10.9805-16.334 12.5684-15.7969 14.2275-16.79C15.1416-17.3799 16.0332-17.9121 16.9736-18.418L16.2637-24.8193C14.418-23.9854 12.79-23.0449 11.1885-21.8115ZM55.3506-21.8115C53.7803-23.0449 52.1123-23.9854 50.3467-24.8193L49.6367-18.418C50.5771-17.9121 51.4463-17.3799 52.3115-16.79C53.9707-15.7969 55.4785-16.2939 56.2725-17.4785C57.1328-18.6406 57.124-20.5479 55.3506-21.8115ZM69.3369-49.9072L69.3369-40.2246C69.3369-37.4111 71.3516-35.3877 74.1826-35.3877L81.9297-35.3877C84.6943-35.3877 86.7578-37.4111 86.7578-40.2246L86.7578-49.9072C86.7578-52.7119 84.6943-54.7754 81.9297-54.7754L74.1826-54.7754C71.3516-54.7754 69.3369-52.7119 69.3369-49.9072ZM91.7324-49.9072L91.7324-40.2246C91.7324-37.4111 93.7646-35.3877 96.5293-35.3877L104.276-35.3877C107.099-35.3877 109.113-37.4111 109.113-40.2246L109.113-49.9072C109.113-52.7119 107.099-54.7754 104.276-54.7754L96.5293-54.7754C93.7646-54.7754 91.7324-52.7119 91.7324-49.9072ZM69.3369-21.665L69.3369-11.96C69.3369-9.19531 71.3516-7.12305 74.1826-7.12305L81.9297-7.12305C84.6943-7.12305 86.7578-9.19531 86.7578-11.96L86.7578-21.665C86.7578-24.4473 84.6943-26.5195 81.9297-26.5195L74.1826-26.5195C71.3516-26.5195 69.3369-24.4473 69.3369-21.665ZM91.7324-21.665L91.7324-11.96C91.7324-9.19531 93.7646-7.12305 96.5293-7.12305L104.276-7.12305C107.099-7.12305 109.113-9.19531 109.113-11.96L109.113-21.665C109.113-24.4473 107.099-26.5195 104.276-26.5195L96.5293-26.5195C93.7646-26.5195 91.7324-24.4473 91.7324-21.665ZM78.0918-40.873C75.749-40.873 73.8457-42.7588 73.8457-45.1191C73.8457-47.3643 75.749-49.25 78.0918-49.25C80.3457-49.25 82.2891-47.3643 82.2891-45.1191C82.2891-42.7588 80.3457-40.873 78.0918-40.873ZM100.447-40.873C98.1533-40.873 96.2012-42.7588 96.2012-45.1191C96.2012-47.3643 98.1533-49.25 100.447-49.25C102.701-49.25 104.645-47.3643 104.645-45.1191C104.645-42.7588 102.701-40.873 100.447-40.873ZM78.0918-12.6084C75.749-12.6084 73.8457-14.4941 73.8457-16.8545C73.8457-19.1084 75.749-20.9941 78.0918-20.9941C80.3457-20.9941 82.2891-19.1084 82.2891-16.8545C82.2891-14.4941 80.3457-12.6084 78.0918-12.6084ZM100.447-12.6084C98.1533-12.6084 96.2012-14.4941 96.2012-16.8545C96.2012-19.1084 98.1533-20.9941 100.447-20.9941C102.701-20.9941 104.645-19.1084 104.645-16.8545C104.645-14.4941 102.701-12.6084 100.447-12.6084ZM81.5303-60.7217L96.9111-60.7217C98.2158-60.7217 98.4111-62.0352 97.4658-62.6875L90.6396-67.3652C89.7041-67.9814 88.7549-67.9814 87.8193-67.3652L80.9756-62.6875C80.0303-62.0352 80.2256-60.7217 81.5303-60.7217Z"/>
</svg>