<svg xmlns="http://www.w3.org/2000/svg" viewBox="-2.97656 -75.8359 89.95 81.18">
  <path d="M33.8574-61.7607L33.8574-43.668C33.8574-40.4814 37.0703-39.2529 39.2979-41.2852L49.4229-50.4824C50.9629-51.8447 50.9492-53.584 49.4229-54.9863L39.2979-64.1436C37.0078-66.2207 33.8574-64.8799 33.8574-61.7607ZM19.1016-49.3906L39.7061-49.3906C41.583-49.3906 43.043-50.8506 43.043-52.6875C43.043-54.5469 41.583-56.0068 39.7061-56.0068L19.1016-56.0068C17.1846-56.0068 15.7246-54.5469 15.7246-52.6875C15.7246-50.8506 17.1846-49.3906 19.1016-49.3906ZM3.08301-29.4697C0.81543-27.1357 2.29297-24.1006 5.21289-23.9541L18.9111-23.2793C20.9658-23.1816 22.1816-24.4375 22.084-26.4521L21.3604-40.1016C21.2139-43.2168 18.0146-44.4502 15.8447-42.2803ZM-1.68066-42.3271L11.1895-29.457C12.5029-28.1611 14.6328-28.1611 15.9463-29.457C17.1533-30.6816 17.1934-32.8115 15.8975-34.125L2.9873-47.0352C1.67383-48.3311-0.416016-48.3311-1.72949-47.0352C-2.93652-45.8105-2.97656-43.6406-1.68066-42.3271ZM76.1689-54.0693C82.1729-54.0693 86.9697-59.084 86.9697-64.875C86.9697-70.9189 82.1729-75.8359 76.1689-75.8359C70.1338-75.8359 65.2832-70.9189 65.2832-64.875C65.2832-59.0439 70.1338-54.0693 76.1689-54.0693ZM11.9502 3.13184C14.084 5.3457 17.6689 5.19043 20.2998 2.49316L37.3994-15.1299C37.9805-15.751 38.4062-15.8799 39.2803-15.5293L52.2363-10.6289C60.8105-7.40234 69.3457-10.2578 73.1211-17.1299L81.6133-32.6006C84.9902-38.751 83.9121-44.9688 78.1387-48.1104C72.4717-51.2344 66.6406-48.8955 63.2148-42.665L52.1152-22.4316L42.7324-25.8623C37.8965-27.6279 33.8594-27.0557 29.9863-23.0674L12.3096-4.70312C9.72754-2.05469 9.98047 1.1709 11.9502 3.13184Z"/>
</svg>