<svg xmlns="http://www.w3.org/2000/svg" viewBox="6.83594 -75.124 79.78 79.74">
  <path d="M46.7061 4.61621C68.7383 4.61621 86.6162-13.2217 86.6162-35.2539C86.6162-57.2861 68.7383-75.124 46.7061-75.124C24.7139-75.124 6.83594-57.2861 6.83594-35.2539C6.83594-13.2217 24.7139 4.61621 46.7061 4.61621ZM46.7061-4.01855C29.4434-4.01855 15.5107-17.9912 15.5107-35.2539C15.5107-52.5166 29.4434-66.4893 46.7061-66.4893C63.9688-66.4893 77.9414-52.5166 77.9414-35.2539C77.9414-17.9912 63.9688-4.01855 46.7061-4.01855ZM54.8662-51.5137C57.4189-51.5137 59.4434-53.5869 59.4434-56.0908C59.4434-58.6035 57.4189-60.668 54.8662-60.668C52.3623-60.668 50.3291-58.6035 50.3291-56.0908C50.3291-53.5869 52.3623-51.5137 54.8662-51.5137ZM40.5693-35.127L48.2334-27.4629L48.2334-16.0674L52.6143-16.0674L52.6143-28.1064C52.6143-28.7324 52.4189-29.3271 52.0283-29.9043L46.8906-36.374L51.2646-43.0527C51.5225-43.4795 52.0693-43.4795 52.2871-43.0127L53.748-40.082C54.0986-39.3809 54.8398-38.9014 55.6699-38.9014L64.124-38.9014C65.3535-38.9014 66.3301-39.8379 66.3301-41.0674C66.3301-42.2969 65.3535-43.2734 64.124-43.2734L57.0459-43.2734L54.8389-47.7051C53.9287-49.4854 52.0908-50.6396 50.0664-50.6396L38.7705-50.6396C38.0781-50.6396 37.3369-50.2891 36.9463-49.6543L32.7637-43.3359C32.1201-42.3506 32.333-40.9746 33.3584-40.3311C34.3438-39.6475 35.7598-39.9404 36.4121-40.9346L39.9512-46.3076L43.2783-46.3076C43.5449-46.3076 43.6826-46.0498 43.5449-45.8232L40.0322-40.543C38.918-38.8916 39.1221-36.5742 40.5693-35.127ZM27.8438-32.0322L36.1514-24.7725C37.4785-23.5918 39.001-24.2354 39.6846-25.2607L42.7715-30.0889L39.1758-33.7334C39.1182-33.791 39.1094-33.7998 39.0205-33.8887L37.0391-29.7969L30.7422-35.3301C29.8145-36.1201 28.4385-36.0713 27.6484-35.1348C26.8584-34.207 26.9072-32.8223 27.8438-32.0322ZM38.3887-14.2471L52.5752-14.2471C54.915-14.2471 56.8594-14.7266 58.4268-16.0273C59.2031-16.7373 59.1768-17.6201 58.7021-18.1748C58.2451-18.7607 57.3486-18.9961 56.5098-18.3125C55.4795-17.5088 54.458-17.1846 52.5752-17.1846L38.3887-17.1846C36.5059-17.1846 35.4844-17.5088 34.4141-18.3125C33.6465-18.916 32.7988-18.7607 32.3018-18.2148C31.8271-17.6602 31.7207-16.7373 32.4971-16.0273C34.0645-14.7266 36.0488-14.2471 38.3887-14.2471ZM38.3887-9.54199C39.3828-9.54199 40.2529-10.4121 40.2529-11.4062C40.2529-12.4404 39.3828-13.2793 38.3887-13.2793C37.3545-13.2793 36.5156-12.4404 36.5156-11.4062C36.5156-10.4121 37.3545-9.54199 38.3887-9.54199ZM52.5752-9.54199C53.6094-9.54199 54.4482-10.4121 54.4482-11.4062C54.4482-12.4404 53.6094-13.2793 52.5752-13.2793C51.5811-13.2793 50.7109-12.4404 50.7109-11.4062C50.7109-10.4121 51.5811-9.54199 52.5752-9.54199Z" />
</svg>