<svg xmlns="http://www.w3.org/2000/svg" viewBox="6.83594 -80.9785 65.66 84.52">
  <path d="M37.7559 3.53711C58.584 3.53711 72.4932-10.4922 72.4932-31.5918C72.4932-66.4385 42.6543-80.9785 22.3438-80.9785C18.1475-80.9785 15.3711-79.3691 15.3711-76.3672C15.3711-75.2188 15.9121-73.9727 16.8037-72.917C21.498-67.2734 25.8281-61.2383 25.9082-53.7607C25.9082-52.4043 25.8682-51.2568 24.9072-49.5L26.7734-49.8682C24.7305-55.9375 20.6172-59.543 16.584-59.543C14.5752-59.543 13.2227-58.1367 13.2227-55.9375C13.2227-54.7588 13.5156-52.6523 13.5156-50.7812C13.5156-42.3369 6.83594-37.6436 6.83594-23.3887C6.83594-7.2207 19.1914 3.53711 37.7559 3.53711ZM38.7588-8.32129C31.5361-8.32129 26.7061-12.6943 26.7061-19.1982C26.7061-25.9512 31.4971-28.1904 32.1143-32.9062C32.1631-33.4023 32.5254-33.6055 32.9502-33.2383C34.6689-31.6533 35.7656-29.7178 36.6494-27.3525C38.6699-30.4043 39.418-36.0811 38.7705-42.0371C38.6777-42.5947 39.0889-42.8691 39.5625-42.6699C48.0293-38.833 52.4854-30.4902 52.4854-22.666C52.4854-14.876 47.8213-8.32129 38.7588-8.32129Z"/>
</svg>