<svg xmlns="http://www.w3.org/2000/svg" viewBox="9.76562 -71.2666 72.07 72.11">
  <path d="M22.7178 0.838867L68.8789 0.838867C77.4482 0.838867 81.8311-3.54395 81.8311-11.9932L81.8311-58.4346C81.8311-66.8838 77.4482-71.2666 68.8789-71.2666L22.7178-71.2666C14.1885-71.2666 9.76562-66.8838 9.76562-58.4346L9.76562-11.9932C9.76562-3.54395 14.1885 0.838867 22.7178 0.838867ZM39.2715-16.6045C37.3701-16.6045 36.1113-17.9033 36.1113-19.8398L36.1113-23.0557L32.2627-23.0557C31.5342-23.0557 30.9258-23.624 30.9258-24.4414C30.9258-25.1699 31.5342-25.7783 32.2627-25.7783L36.1113-25.7783L36.1113-49.7939C36.1113-51.8193 37.2861-53.0293 39.2715-53.0293L55.8408-53.0293C57.4717-53.0293 58.6377-51.9785 58.6377-50.4092C58.6377-48.8623 57.4717-47.7715 55.8408-47.7715L42.3428-47.7715L42.3428-37.623L54.5879-37.623C56.1836-37.623 57.2832-36.5498 57.2832-35.0693C57.2832-33.5664 56.1836-32.5244 54.5879-32.5244L42.3428-32.5244L42.3428-25.7783L50.6611-25.7783C51.4297-25.7783 51.998-25.1699 51.998-24.4414C51.998-23.624 51.4297-23.0557 50.6611-23.0557L42.3428-23.0557L42.3428-19.8398C42.3428-17.9033 41.0928-16.6045 39.2715-16.6045Z"/>
</svg>