<svg xmlns="http://www.w3.org/2000/svg" viewBox="9.76562 -71.2666 72.07 72.11">
  <path d="M22.7178 0.838867L68.8789 0.838867C77.4482 0.838867 81.8311-3.54395 81.8311-11.9932L81.8311-58.4346C81.8311-66.8838 77.4482-71.2666 68.8789-71.2666L22.7178-71.2666C14.1885-71.2666 9.76562-66.8838 9.76562-58.4346L9.76562-11.9932C9.76562-3.54395 14.1885 0.838867 22.7178 0.838867ZM45.9824-16.4375C35.1699-16.4375 28.3398-23.8369 28.3398-35.5566C28.3398-47.2764 35.1699-54.7559 45.8223-54.7559C53.0752-54.7559 58.6318-51.5723 60.7764-46.4971C61.0557-45.7383 61.2109-45.1133 61.2109-44.3281C61.2109-42.2393 59.832-40.9531 57.6777-40.9531C55.8975-40.9531 54.9395-41.7598 54.1367-43.1895C52.457-46.377 49.7939-48.0654 46.0479-48.0654C40.4854-48.0654 36.8506-43.0459 36.8506-35.5566C36.8506-28.041 40.5342-23.0312 46.168-23.0312C51.3184-23.0312 53.9795-25.6348 53.9795-29.3447L53.9795-31.6221L48.5273-31.6221C46.6787-31.6221 45.5566-32.8867 45.5566-34.4561C45.5566-36.0967 46.6699-37.25 48.5273-37.25L57.9814-37.25C60.6465-37.25 62.1592-35.7285 62.1592-32.9834L62.1592-30.502C62.1592-22.3262 56.1377-16.4375 45.9824-16.4375Z"/>
</svg>