<svg xmlns="http://www.w3.org/2000/svg" viewBox="6.83594 -77.1113 83.83 83.71">
  <path d="M44.8584 6.60352L52.6084 6.60352C55.9355 6.60352 58.6104 4.54102 59.3379 1.41797L60.8613-5.21777L61.582-5.45801L67.3115-1.90918C70.1152-0.241211 73.4199-0.635742 75.7578-3.01367L81.1465-8.35352C83.5107-10.709 83.9014-14.0625 82.1934-16.7686L78.6045-22.5205L78.8447-23.1211L85.4629-24.6533C88.5859-25.3896 90.6709-28.1045 90.6709-31.3828L90.6709-38.8848C90.6709-42.1631 88.626-44.8379 85.4629-45.6143L78.9248-47.2266L78.6445-47.8672L82.2334-53.6191C83.9414-56.3652 83.5908-59.6787 81.1865-62.0742L75.7979-67.4141C73.5-69.752 70.1953-70.1953 67.3916-68.5186L61.6221-65.0098L60.8613-65.29L59.3379-71.9258C58.6104-75.0488 55.9355-77.1113 52.6084-77.1113L44.8584-77.1113C41.5312-77.1113 38.8965-75.04 38.1689-71.9258L36.6455-65.29L35.8447-65.0098L30.0752-68.5186C27.3115-70.1865 24.0068-69.752 21.6689-67.4141L16.3203-62.0742C13.916-59.6787 13.5654-56.3652 15.2734-53.6191L18.8223-47.8672L18.542-47.2266L12.0039-45.6143C8.87207-44.8291 6.83594-42.1631 6.83594-38.8848L6.83594-31.3828C6.83594-28.1045 8.9209-25.3896 12.0039-24.6533L18.6221-23.1211L18.8623-22.5205L15.3135-16.7686C13.6055-14.0625 13.9961-10.709 16.3604-8.35352L21.709-3.01367C24.0469-0.635742 27.3916-0.241211 30.1553-1.90918L35.9248-5.45801L36.6455-5.21777L38.1689 1.41797C38.8965 4.54102 41.5312 6.60352 44.8584 6.60352ZM45.8936-1.07129C45.3789-1.07129 45.1348-1.29297 45.0771-1.74121L42.7373-11.2236C40.1768-11.8232 37.79-12.8125 35.8613-14.125L27.502-8.96191C27.1426-8.74902 26.7432-8.74902 26.4326-9.09961L22.4863-13.0771C22.127-13.3965 22.1445-13.7559 22.3887-14.1465L27.4893-22.4746C26.3857-24.3633 25.2939-26.7236 24.6943-29.2754L15.1719-31.5752C14.7236-31.6328 14.502-31.877 14.502-32.3916L14.502-37.9561C14.502-38.5107 14.6836-38.6748 15.1719-38.8125L24.6543-41.0723C25.2715-43.7754 26.4971-46.2334 27.4092-47.9531L22.3486-56.2412C22.0645-56.6719 22.0469-57.0312 22.4062-57.3906L26.3926-61.2881C26.7432-61.5986 27.0225-61.6387 27.502-61.4258L35.7812-56.3828C37.5693-57.5137 40.2041-58.6182 42.7686-59.2842L45.0771-68.7666C45.1348-69.2148 45.3789-69.4365 45.8936-69.4365L51.6133-69.4365C52.1279-69.4365 52.3721-69.2148 52.4297-68.7666L54.7383-59.2041C57.3652-58.5869 59.7119-57.5176 61.6455-56.3428L69.9873-61.4082C70.4268-61.6211 70.6973-61.5898 71.0967-61.2705L75.083-57.373C75.4023-57.0137 75.4248-56.6543 75.1406-56.2236L70.0576-47.9531C71.001-46.2422 72.1953-43.7754 72.8037-41.0811L82.335-38.8125C82.8232-38.6748 82.9648-38.5107 82.9648-37.9561L82.9648-32.3916C82.9648-31.877 82.7832-31.6328 82.335-31.5752L72.7637-29.2666C72.2041-26.7324 71.1123-24.3369 69.9775-22.4746L75.1006-14.1641C75.3447-13.7734 75.3623-13.4141 75.0029-13.0947L71.0566-9.11719C70.6973-8.75781 70.3066-8.7666 69.9873-8.97949L61.6143-14.125C59.6992-12.8125 57.3779-11.8496 54.7383-11.2236L52.4297-1.74121C52.3721-1.29297 52.1279-1.07129 51.6133-1.07129ZM48.7246-20.7734C56.7373-20.7734 63.2051-27.2412 63.2051-35.2539C63.2051-43.2666 56.7373-49.7344 48.7246-49.7344C40.7119-49.7344 34.2441-43.2666 34.2441-35.2539C34.2441-27.2412 40.7119-20.7734 48.7246-20.7734ZM48.7246-28.0391C44.7529-28.0391 41.5498-31.2822 41.5498-35.2539C41.5498-39.2256 44.7529-42.4688 48.7246-42.4688C52.6963-42.4688 55.9395-39.2256 55.9395-35.2539C55.9395-31.2822 52.6963-28.0391 48.7246-28.0391Z"/>
</svg>