<svg xmlns="http://www.w3.org/2000/svg" viewBox="9.76562 -62.252 118.5 53.99">
  <path d="M22.6426-15.1328L115.349-15.1328C123.869-15.1328 128.266-19.4893 128.266-27.8896L128.266-49.4951C128.266-57.8955 123.869-62.252 115.349-62.252L22.6426-62.252C14.1621-62.252 9.76562-57.8955 9.76562-49.4951L9.76562-27.8896C9.76562-19.4893 14.1621-15.1328 22.6426-15.1328ZM32.5244-29.8115C27.6113-29.8115 23.6436-33.7793 23.6436-38.6924C23.6436-43.6055 27.6113-47.5732 32.5244-47.5732C37.4287-47.5732 41.3477-43.6055 41.3477-38.6924C41.3477-33.7793 37.4287-29.8115 32.5244-29.8115ZM53.1709-29.9072C50.9785-29.9072 49.585-31.3008 49.585-33.4932L49.585-43.8516C49.585-46.0439 50.9785-47.4375 53.1709-47.4375L84.8604-47.4375C87.0527-47.4375 88.4463-46.0439 88.4463-43.8516L88.4463-33.4932C88.4463-31.3008 87.0527-29.9072 84.8604-29.9072ZM105.467-29.8115C100.603-29.8115 96.6436-33.7793 96.6436-38.6924C96.6436-43.6055 100.603-47.5732 105.467-47.5732C110.42-47.5732 114.348-43.6055 114.348-38.6924C114.348-33.7793 110.42-29.8115 105.467-29.8115ZM39.832-18.4463L18.3232-18.4463L18.3232-12.1748C18.3232-9.85156 19.8613-8.26465 22.1934-8.26465L35.9619-8.26465C38.2939-8.26465 39.832-9.85156 39.832-12.1748ZM98.1592-18.4463L98.1592-12.1748C98.1592-9.85156 99.7373-8.26465 102.069-8.26465L115.798-8.26465C118.13-8.26465 119.708-9.85156 119.708-12.1748L119.708-18.4463Z"/>
</svg>