<svg xmlns="http://www.w3.org/2000/svg" viewBox="9.76562 -71.2578 90.94 72.11">
  <path d="M34.9766-18.8496L75.4736-18.8496C77.7227-18.8496 78.6738-19.8096 78.6738-22.1387L78.6738-48.3115C78.6738-50.6006 77.7227-51.5605 75.4736-51.5605L34.9766-51.5605C32.7275-51.5605 31.8164-50.6006 31.8164-48.3115L31.8164-22.1387C31.8164-19.8096 32.7275-18.8496 34.9766-18.8496ZM22.7178 0.847656L87.75 0.847656C96.3193 0.847656 100.702-3.53516 100.702-11.9844L100.702-58.4258C100.702-66.875 96.3193-71.2578 87.75-71.2578L22.7178-71.2578C14.1885-71.2578 9.76562-66.875 9.76562-58.4258L9.76562-11.9844C9.76562-3.53516 14.1885 0.847656 22.7178 0.847656ZM23.2021-7.50684C19.915-7.50684 18.0801-9.22656 18.0801-12.6689L18.0801-57.7412C18.0801-61.2236 19.915-62.9033 23.2021-62.9033L87.2656-62.9033C90.5527-62.9033 92.3877-61.2236 92.3877-57.7412L92.3877-12.6689C92.3877-9.22656 90.5527-7.50684 87.2656-7.50684Z" />
</svg>