<svg xmlns="http://www.w3.org/2000/svg" viewBox="9.76562 -69.085 93.09 67.76">
  <path d="M45.1055-16.0635C45.1055-14.7148 46.1523-13.6279 47.541-13.6279C48.8408-13.6279 49.9277-14.7148 49.9277-16.0635L49.9277-23.6221C49.9277-24.9619 48.8408-26.0088 47.541-26.0088C46.1523-26.0088 45.1055-24.9619 45.1055-23.6221ZM53.8945-16.0635C53.8945-14.7148 54.9414-13.6279 56.3301-13.6279C57.6299-13.6279 58.7168-14.7148 58.7168-16.0635L58.7168-23.6221C58.7168-24.9619 57.6299-26.0088 56.3301-26.0088C54.9414-26.0088 53.8945-24.9619 53.8945-23.6221ZM62.6836-16.0635C62.6836-14.7148 63.7305-13.6279 65.1191-13.6279C66.4189-13.6279 67.5059-14.7148 67.5059-16.0635L67.5059-23.6221C67.5059-24.9619 66.4189-26.0088 65.1191-26.0088C63.7305-26.0088 62.6836-24.9619 62.6836-23.6221ZM71.4727-16.0635C71.4727-14.7148 72.5195-13.6279 73.9082-13.6279C75.208-13.6279 76.2949-14.7148 76.2949-16.0635L76.2949-23.6221C76.2949-24.9619 75.208-26.0088 73.9082-26.0088C72.5195-26.0088 71.4727-24.9619 71.4727-23.6221ZM80.2617-16.0635C80.2617-14.7148 81.3086-13.6279 82.6973-13.6279C83.9971-13.6279 85.084-14.7148 85.084-16.0635L85.084-23.6221C85.084-24.9619 83.9971-26.0088 82.6973-26.0088C81.3086-26.0088 80.2617-24.9619 80.2617-23.6221ZM9.76562-19.8516C9.76562-9.26074 17.6787-1.3252 29.208-1.3252L83.4121-1.3252C94.9414-1.3252 102.854-9.26074 102.854-19.8516C102.854-23.0498 101.932-25.8711 100.867-28.4844L88.1084-59.0469C85.3887-65.6152 79.8008-69.085 72.3545-69.085L40.3232-69.085C32.8369-69.085 27.249-65.6152 24.5293-59.0469L11.8496-28.6426C10.7588-25.9766 9.76562-23.1201 9.76562-19.8516ZM17.8164-19.8516C17.8164-25.9082 22.2529-30.3271 29.208-30.3271L83.4121-30.3271C90.3672-30.3271 94.8037-25.9082 94.8037-19.8516C94.8037-13.0742 90.3672-9.41602 83.4121-9.41602L29.208-9.41602C22.2529-9.41602 17.8164-13.835 17.8164-19.8516ZM24.584-37.8086L32.2041-57.1523C33.5059-60.4229 36.4688-62.1064 40.5566-62.1064L72.1211-62.1064C76.1689-62.1064 79.1719-60.4229 80.4336-57.1523L88.0537-37.8086C86.5732-38.1689 85.0527-38.3779 83.4121-38.3779L29.208-38.3779C27.5762-38.3779 26.0557-38.1689 24.584-37.8086Z"/>
</svg>