<svg xmlns="http://www.w3.org/2000/svg" viewBox="9.53027 -89.2109 74.2 106.89">
  <path d="M70.8955 16.916C73.1309 17.6787 75.5176 17.1338 76.5244 14.9023L82.749 1.50293C83.7295-0.630859 82.8066-2.98145 80.6553-4.02832L74.791-6.75586L78.9531-15.7148C79.9199-17.8125 79.0459-20.2656 76.917-21.2725L68.9648-24.9688C75.7373-32.3916 77.874-41.3115 74.8193-49.752C70.3936-61.9463 56.8809-68.1562 44.709-63.6816C32.4307-59.2383 26.207-45.9121 30.6816-33.6826C33.7803-25.0342 41.4834-19.0723 50.5312-18.3008L61.2988 11.2529C61.7646 12.4951 62.6738 13.915 64.1602 14.4297ZM71.3398 9.39062L67.1953 7.44043L55.2344-25.3965C47.334-24.2207 39.9717-28.6611 37.2451-36.0771C34.1543-44.6348 38.582-54.0361 47.0771-57.1758C55.6973-60.2979 65.1562-55.8701 68.1982-47.3438C70.916-39.9766 68.0303-31.7002 60.9541-27.3877L63.7939-19.6758L71.3965-16.0654L67.5059-7.82227L69.8262-1.3623L75.1924 1.13867ZM19.4609 16.1855L32.8203 9.9209C34.9941 8.94043 35.7744 6.45215 34.7852 4.34082L32.0264-1.52344L41.0342-5.68945C43.1631-6.69629 44.0146-9.14062 43.0479-11.2695L39.3428-19.2529C42.1914-19.6738 44.9473-20.4229 47.335-21.5312L40.0371-26.2324C38.3652-25.9717 36.6318-25.9141 34.7607-26.2061L31.9297-18.4854L35.4912-10.8428L27.168-7.00977L24.8164-0.532227L27.2686 4.78516L19.0566 8.66895L17.0889 4.44434L29.0586-28.3613C22.2559-32.5322 19.4805-40.7383 22.1895-48.1143C25.0273-56.0107 33.3594-60.3584 41.4023-58.4922L50.1924-62.2197C48.7764-63.1475 47.2451-63.8975 45.5762-64.4834C33.3379-68.958 20.0117-62.7832 15.5283-50.5137C12.416-41.8877 14.5166-32.4004 20.9102-25.9502L10.1562 3.56348C9.69922 4.92578 9.53027 6.54492 10.249 7.84473L13.8408 14.1406C15.0029 16.2031 17.3096 17.1924 19.4609 16.1855ZM52.4727-42.335C55.4033-43.4004 56.8818-46.6729 55.7852-49.5322C54.7861-52.374 51.5625-53.9014 48.6543-52.8535C45.7549-51.7969 44.3564-48.6221 45.3643-45.7627C46.4121-42.8232 49.5957-41.2959 52.4727-42.335ZM21.8818-66.3535C21.8818-63.5938 22.4053-60.9092 23.3057-58.4863L29.1377-61.1631C28.5693-62.7793 28.334-64.502 28.334-66.3535C28.334-75.4863 35.5088-82.7988 44.6504-82.7988C53.7832-82.7988 61.1533-75.4863 61.1533-66.3535C61.1533-58.9521 56.2246-52.5361 49.1279-50.5986L50.5107-44.3281C60.3994-46.9307 67.6055-56.0371 67.6055-66.3535C67.6055-78.8896 57.2441-89.2109 44.6904-89.2109C32.168-89.2109 21.8818-78.8984 21.8818-66.3535Z"/>
</svg>