<svg xmlns="http://www.w3.org/2000/svg" viewBox="9.76562 -66.5322 98.12 62.54">
  <path d="M22.7178-3.99316L94.9336-3.99316C103.463-3.99316 107.886-8.37598 107.886-16.8252L107.886-53.7402C107.886-62.1494 103.463-66.5322 94.9336-66.5322L22.7178-66.5322C14.1484-66.5322 9.76562-62.1895 9.76562-53.7402L9.76562-16.8252C9.76562-8.37598 14.1484-3.99316 22.7178-3.99316ZM23.2021-12.3076C19.915-12.3076 18.0801-14.0273 18.0801-17.5098L18.0801-53.0156C18.0801-56.498 19.915-58.2178 23.2021-58.2178L94.4492-58.2178C97.7363-58.2178 99.5713-56.498 99.5713-53.0156L99.5713-17.5098C99.5713-14.0273 97.7363-12.3076 94.4492-12.3076ZM26.2451-43.8145L29.127-43.8145C29.8457-43.8145 30.3516-44.2803 30.3516-45.0703L30.3516-49.748C30.3516-50.5381 29.8457-51.0439 29.127-51.0439L26.2451-51.0439C25.4863-51.0439 24.9805-50.5381 24.9805-49.748L24.9805-45.0703C24.9805-44.2803 25.4863-43.8145 26.2451-43.8145ZM34.4941-43.8145L37.3359-43.8145C38.0947-43.8145 38.6006-44.2803 38.6006-45.0703L38.6006-49.748C38.6006-50.5381 38.0947-51.0439 37.3359-51.0439L34.4941-51.0439C33.7354-51.0439 33.2295-50.5381 33.2295-49.748L33.2295-45.0703C33.2295-44.2803 33.7354-43.8145 34.4941-43.8145ZM42.7432-43.8145L45.625-43.8145C46.3438-43.8145 46.8496-44.2803 46.8496-45.0703L46.8496-49.748C46.8496-50.5381 46.3438-51.0439 45.625-51.0439L42.7432-51.0439C41.9844-51.0439 41.4785-50.5381 41.4785-49.748L41.4785-45.0703C41.4785-44.2803 41.9844-43.8145 42.7432-43.8145ZM50.9922-43.8145L53.834-43.8145C54.5928-43.8145 55.0986-44.2803 55.0986-45.0703L55.0986-49.748C55.0986-50.5381 54.5928-51.0439 53.834-51.0439L50.9922-51.0439C50.2334-51.0439 49.7275-50.5381 49.7275-49.748L49.7275-45.0703C49.7275-44.2803 50.2334-43.8145 50.9922-43.8145ZM59.2627-43.8145L62.123-43.8145C62.8418-43.8145 63.3477-44.2803 63.3477-45.0703L63.3477-49.748C63.3477-50.5381 62.8418-51.0439 62.123-51.0439L59.2627-51.0439C58.5088-51.0439 57.9766-50.5381 57.9766-49.748L57.9766-45.0703C57.9766-44.2803 58.5088-43.8145 59.2627-43.8145ZM67.4902-43.8145L70.332-43.8145C71.0908-43.8145 71.5967-44.2803 71.5967-45.0703L71.5967-49.748C71.5967-50.5381 71.0908-51.0439 70.332-51.0439L67.4902-51.0439C66.7314-51.0439 66.2256-50.5381 66.2256-49.748L66.2256-45.0703C66.2256-44.2803 66.7314-43.8145 67.4902-43.8145ZM26.2451-31.6504L29.127-31.6504C29.8457-31.6504 30.3516-32.1162 30.3516-32.9062L30.3516-37.584C30.3516-38.374 29.8457-38.8799 29.127-38.8799L26.2451-38.8799C25.4863-38.8799 24.9805-38.374 24.9805-37.584L24.9805-32.9062C24.9805-32.1162 25.4863-31.6504 26.2451-31.6504ZM34.4941-31.6504L37.3359-31.6504C38.0947-31.6504 38.6006-32.1162 38.6006-32.9062L38.6006-37.584C38.6006-38.374 38.0947-38.8799 37.3359-38.8799L34.4941-38.8799C33.7354-38.8799 33.2295-38.374 33.2295-37.584L33.2295-32.9062C33.2295-32.1162 33.7354-31.6504 34.4941-31.6504ZM42.7432-31.6504L45.625-31.6504C46.3438-31.6504 46.8496-32.1162 46.8496-32.9062L46.8496-37.584C46.8496-38.374 46.3438-38.8799 45.625-38.8799L42.7432-38.8799C41.9844-38.8799 41.4785-38.374 41.4785-37.584L41.4785-32.9062C41.4785-32.1162 41.9844-31.6504 42.7432-31.6504ZM50.9922-31.6504L53.834-31.6504C54.5928-31.6504 55.0986-32.1162 55.0986-32.9062L55.0986-37.584C55.0986-38.374 54.5928-38.8799 53.834-38.8799L50.9922-38.8799C50.2334-38.8799 49.7275-38.374 49.7275-37.584L49.7275-32.9062C49.7275-32.1162 50.2334-31.6504 50.9922-31.6504ZM59.2627-31.6504L62.123-31.6504C62.8418-31.6504 63.3477-32.1162 63.3477-32.9062L63.3477-37.584C63.3477-38.374 62.8418-38.8799 62.123-38.8799L59.2627-38.8799C58.5088-38.8799 57.9766-38.374 57.9766-37.584L57.9766-32.9062C57.9766-32.1162 58.5088-31.6504 59.2627-31.6504ZM67.4902-31.6504L70.332-31.6504C71.0908-31.6504 71.5967-32.1162 71.5967-32.9062L71.5967-37.584C71.5967-38.374 71.0908-38.8799 70.332-38.8799L67.4902-38.8799C66.7314-38.8799 66.2256-38.374 66.2256-37.584L66.2256-32.9062C66.2256-32.1162 66.7314-31.6504 67.4902-31.6504ZM26.2451-19.4863L29.127-19.4863C29.8457-19.4863 30.3516-19.9521 30.3516-20.7422L30.3516-25.4199C30.3516-26.21 29.8457-26.7158 29.127-26.7158L26.2451-26.7158C25.4863-26.7158 24.9805-26.21 24.9805-25.4199L24.9805-20.7422C24.9805-19.9521 25.4863-19.4863 26.2451-19.4863ZM34.4941-19.4863L62.123-19.4863C62.8418-19.4863 63.3477-19.9521 63.3477-20.7422L63.3477-25.4199C63.3477-26.21 62.8418-26.7158 62.123-26.7158L34.4941-26.7158C33.7354-26.7158 33.2295-26.21 33.2295-25.4199L33.2295-20.7422C33.2295-19.9521 33.7354-19.4863 34.4941-19.4863ZM67.4902-19.4863L70.332-19.4863C71.0908-19.4863 71.5967-19.9521 71.5967-20.7422L71.5967-25.4199C71.5967-26.21 71.0908-26.7158 70.332-26.7158L67.4902-26.7158C66.7314-26.7158 66.2256-26.21 66.2256-25.4199L66.2256-20.7422C66.2256-19.9521 66.7314-19.4863 67.4902-19.4863ZM78.0732-37.6768C76.5068-36.2031 76.5068-34.3623 78.0732-32.8486L88.5527-23.1221C90.0518-21.7646 92.5107-22.332 92.5107-24.6357L92.5107-45.9297C92.5107-48.1934 90.0518-48.7607 88.5527-47.4033Z"/>
</svg>