<svg xmlns="http://www.w3.org/2000/svg" viewBox="6.83594 -66.8975 81.7 70.93">
  <path d="M47.708-13.5283C72.4512-13.5283 88.54-24.4883 88.54-40.1973C88.54-55.9463 72.4111-66.8975 47.6592-66.8975C22.9248-66.8975 6.83594-55.9463 6.83594-40.1973C6.83594-24.4883 22.9248-13.5283 47.708-13.5283ZM47.708-22.0195C28.6201-22.0195 15.9111-29.3369 15.9111-40.1973C15.9111-51.0889 28.6201-58.4062 47.6592-58.4062C66.707-58.4062 79.4648-51.0889 79.4648-40.1973C79.4648-29.3369 66.7559-22.0195 47.708-22.0195ZM47.708 4.02832C57.6318 4.02832 63.6729-0.71875 63.6729-8.79297L63.6729-9.93555C58.7754-8.84473 53.4258-8.28613 47.708-8.28613C41.9502-8.28613 36.6006-8.84473 31.7031-9.93555L31.7031-8.79297C31.7031-0.71875 37.7441 4.02832 47.708 4.02832ZM42.7559-28.2158L54.1748-28.2158C56.0771-28.2158 57.3369-29.4492 57.3369-31.2363C57.3369-33.0635 56.0771-34.2568 54.1748-34.2568L46.3965-34.2568L46.3965-49.7363C46.3965-52.1973 45.0039-53.6826 42.7559-53.6826C40.5791-53.6826 39.1553-52.1748 39.1553-49.7363L39.1553-32.1621C39.1553-29.7637 40.5391-28.2158 42.7559-28.2158Z"/>
</svg>