<svg xmlns="http://www.w3.org/2000/svg" viewBox="9.76562 -69.6768 90.27 68.86">
  <path d="M42.7783-0.813477L67.0244-0.813477C89.8213-0.813477 100.037-11.042 100.037-33.001L100.037-57.0449C100.037-65.334 95.6143-69.6768 87.2451-69.6768L22.5576-69.6768C14.1484-69.6768 9.76562-65.334 9.76562-57.0449L9.76562-33.001C9.76562-11.042 19.9814-0.813477 42.7783-0.813477ZM39.0225-19.8818C36.915-19.8818 35.7793-21.1816 35.7793-23.2891L35.7793-47.7334C35.7793-49.5303 37.3057-50.9766 39.0713-50.9766C40.8281-50.9766 42.3145-49.5303 42.3145-47.7334L42.3145-25.3037L49.3818-25.3037C50.8594-25.3037 52.0928-24.0791 52.0928-22.5928C52.0928-21.1064 50.8594-19.8818 49.3818-19.8818ZM59.0215-19.8818C56.8613-19.8818 55.7207-21.248 55.7207-23.2891L55.7207-47.0811C55.7207-48.9932 56.8613-50.4795 59.0215-50.4795L66.9141-50.4795C71.4502-50.4795 74.7227-47.7676 74.7227-42.8223C74.7227-39.8311 72.7031-36.6699 69.7471-36.2217L69.7471-35.9951C73.25-35.6885 75.5801-32.3105 75.5801-28.5996C75.5801-23.5654 72.543-19.8818 67.2158-19.8818ZM62.1846-37.7656L64.5713-37.7656C67.1426-37.7656 68.5156-39.2529 68.5156-41.7754C68.5156-43.9688 67.6094-45.6074 65.0156-45.6074L62.1846-45.6074ZM62.1846-24.7139L65.0781-24.7139C67.7695-24.7139 69.0137-26.4404 69.0137-29.1719C69.0137-32.1348 67.3916-33.5322 64.9893-33.5322L62.1846-33.5322Z"/>
</svg>