<svg xmlns="http://www.w3.org/2000/svg" viewBox="6.83594 -75.124 79.78 79.74">
  <path d="M46.7061 4.61621C68.7383 4.61621 86.6162-13.2617 86.6162-35.2539C86.6162-57.2461 68.7383-75.124 46.7061-75.124C24.7139-75.124 6.83594-57.2461 6.83594-35.2539C6.83594-13.2617 24.7139 4.61621 46.7061 4.61621ZM32.9521-46.6943C32.9521-53.917 39.043-59.2178 46.666-59.2178C54.3779-59.2178 60.4688-53.708 60.4688-46.4941C60.4688-38.6738 55.3838-36.8564 54.6992-23.9463C54.6504-22.9805 54.0127-22.3643 52.9756-22.3643L40.3965-22.3643C39.4395-22.3643 38.8105-22.9805 38.7617-23.9463C37.9971-36.8564 32.9521-38.8828 32.9521-46.6943ZM40.749-16.8555C39.79-16.8555 39.0088-17.6367 39.0088-18.5469C39.0088-19.4883 39.79-20.2695 40.749-20.2695L52.7031-20.2695C53.6309-20.2695 54.4521-19.4883 54.4521-18.5469C54.4521-17.6367 53.6309-16.8555 52.7031-16.8555ZM46.7148-11.3252C43.8076-11.3252 41.6816-12.7012 41.4863-14.7695L51.9658-14.7695C51.7305-12.7012 49.6309-11.3252 46.7148-11.3252Z"/>
</svg>