<svg xmlns="http://www.w3.org/2000/svg" viewBox="9.76562 -87.3936 71.89 104.4">
  <path d="M24.5947 5.11426L66.8232 5.11426C75.7334 5.11426 81.6523-1.14648 81.6523-10.4072L81.6523-29.875C81.6523-39.4355 80.6094-49.6748 78.834-56.998C76.7217-66.1885 70.4561-72.1523 61.9404-73.0576C59.9209-73.2529 53.1035-73.79 45.709-73.79C37.3691-73.79 31.5283-73.2529 29.5176-73.0576C20.9619-72.1523 14.6963-66.1885 12.624-56.998C10.8486-49.6484 9.76562-39.8574 9.76562-30.3145L9.76562-10.4072C9.76562-1.14648 15.7246 5.11426 24.5947 5.11426ZM25.5801-1.50781C19.4385-1.50781 16.3877-4.98145 16.3877-10.4072L16.3877-30.3145C16.3877-39.3652 17.3643-48.54 19.0332-55.4688C20.5605-61.96 24.5391-65.8672 30.1514-66.4355C32.0732-66.6309 37.5996-67.168 45.709-67.168C52.873-67.168 59.3535-66.6309 61.2666-66.4355C66.8789-65.8672 70.8975-61.96 72.4248-55.4688C74.085-48.5977 75.0703-38.9521 75.0703-29.875L75.0703-10.4072C75.0703-4.98145 72.0195-1.50781 65.8779-1.50781ZM45.709-22.7637C55.4463-22.8125 62.8047-23.2256 66.6631-23.7363C68.9307-24.0293 69.8125-25.5156 69.8125-27.6543L69.8125-32.7471C69.8125-40.3545 69.0088-46.5381 68.5156-48.6475C68.1426-50.3242 67.0918-51.5664 65.3926-51.7705C61.2764-52.29 56.7109-52.5742 45.709-52.623C34.6895-52.5742 30.1328-52.29 26.0342-51.7705C24.3662-51.5664 23.3154-50.3242 22.9424-48.6475C22.418-46.5381 21.6055-40.3545 21.6055-32.7471L21.6055-27.6543C21.6055-25.5156 22.4873-24.0293 24.7949-23.7363C28.6445-23.2256 35.9541-22.8125 45.709-22.7637ZM28.2578-6.91211C31.3164-6.91211 33.6426-9.1582 33.6426-12.2969C33.6426-15.4355 31.3965-17.6816 28.2578-17.6816C25.1279-17.6816 22.8818-15.4355 22.8818-12.2969C22.8818-9.1582 25.1191-6.91211 28.2578-6.91211ZM63.1113-6.87207C66.1299-6.87207 68.5361-9.19824 68.5361-12.2969C68.5361-15.3955 66.1699-17.7217 63.1113-17.7217C60.0215-17.7217 57.6553-15.3955 57.6553-12.2969C57.6553-9.19824 60.0127-6.87207 63.1113-6.87207ZM36.2744-56.709L55.1348-56.709C56.8203-56.709 57.9287-57.8574 57.9287-59.5029C57.9287-61.1572 56.8203-62.2656 55.1348-62.2656L36.2744-62.2656C34.6289-62.2656 33.4893-61.1572 33.4893-59.5029C33.4893-57.8486 34.6289-56.709 36.2744-56.709ZM12.8633-79.1318C12.8633-77.2295 14.2295-75.9795 16.0869-75.9795C17.0439-75.9795 18.0459-76.5156 18.8438-77.4824C20.834-79.8818 22.958-80.8193 26.917-80.8193L64.541-80.8193C68.5-80.8193 70.624-79.8818 72.5742-77.4824C73.4121-76.5156 74.374-75.9795 75.3711-75.9795C77.1885-75.9795 78.5547-77.2295 78.5547-79.1318C78.5547-80.4756 77.6758-81.8994 76.4912-83.0039C73.1045-86.3105 69.1279-87.3936 64.3564-87.3936L27.1016-87.3936C22.3301-87.3936 18.3535-86.3105 14.9268-83.0039C13.7822-81.8994 12.8633-80.4756 12.8633-79.1318ZM41.832-72.1846L33.9229-81.9346L25.2227-81.9346L33.1807-72.1846ZM49.626-72.1846L58.2373-72.1846L66.1953-81.9346L57.5352-81.9346ZM25.2412 2.05762L18.4854 12.9346C17.3008 14.7979 18.3086 17.0098 20.543 17.0098L23.0664 17.0098C24.3701 17.0098 25.1016 16.5664 25.8066 15.4756L34.1279 2.05762ZM57.459 2.05762L65.7803 15.4756C66.4453 16.5664 67.2168 17.0098 68.4805 17.0098L70.8281 17.0098C73.0625 17.0098 74.166 14.7578 72.9424 12.8115L66.2656 2.05762Z"/>
</svg>