<svg xmlns="http://www.w3.org/2000/svg" viewBox="6.83594 -75.124 79.78 79.74">
  <path d="M46.7061 4.61621C68.7383 4.61621 86.6162-13.2217 86.6162-35.2539C86.6162-57.2861 68.7383-75.124 46.7061-75.124C24.7139-75.124 6.83594-57.2861 6.83594-35.2539C6.83594-13.2217 24.7139 4.61621 46.7061 4.61621ZM46.7061-4.01855C29.4434-4.01855 15.5107-17.9912 15.5107-35.2539C15.5107-52.5166 29.4434-66.4893 46.7061-66.4893C63.9688-66.4893 77.9414-52.5166 77.9414-35.2539C77.9414-17.9912 63.9688-4.01855 46.7061-4.01855ZM35.5234-18.4561C37.2705-18.4561 38.4316-19.5342 38.4316-21.4043L38.4316-32.25C38.4316-38.5703 40.5459-43.959 46.7061-43.959C53.0264-43.959 55.0518-38.5703 55.0518-32.25L55.0518-21.4043C55.0518-19.6045 56.1289-18.4561 57.9287-18.4561C59.6533-18.4561 60.8057-19.5693 60.8057-21.4043L60.8057-32.3398C60.8057-42.0566 56.1826-49.0488 46.7061-49.0488C37.2695-49.0488 32.6865-41.9766 32.6865-32.3398L32.6865-21.4043C32.6865-19.6045 33.7637-18.4561 35.5234-18.4561ZM46.666-18.4912C47.749-18.4912 48.4014-19.1924 48.4014-20.3018L48.4014-52.9561C48.4014-54.0254 47.749-54.7354 46.666-54.7354C45.583-54.7354 44.8906-54.0254 44.8906-52.9561L44.8906-20.3018C44.8906-19.1924 45.583-18.4912 46.666-18.4912Z" />
</svg>