<svg xmlns="http://www.w3.org/2000/svg" viewBox="9.76562 -71.2578 90.94 72.11">
  <path d="M22.7178 0.847656L87.75 0.847656C96.3193 0.847656 100.702-3.53516 100.702-11.9844L100.702-58.4258C100.702-66.875 96.3193-71.2578 87.75-71.2578L22.7178-71.2578C14.1885-71.2578 9.76562-66.875 9.76562-58.4258L9.76562-11.9844C9.76562-3.53516 14.1885 0.847656 22.7178 0.847656ZM40.6777-30.9697C37.9756-30.9697 36.1035-32.5078 36.1035-35.1074C36.1035-37.7471 37.8955-39.3252 40.6777-39.3252L69.8301-39.3252C72.6123-39.3252 74.4043-37.7471 74.4043-35.1074C74.4043-32.5078 72.5322-30.9697 69.8301-30.9697Z" />
</svg>