<svg xmlns="http://www.w3.org/2000/svg" viewBox="6.83594 -83.2227 79.78 87.84">
  <path d="M38.8389-79.3037L38.8389-60.9941C38.8389-57.9141 41.1357-57.1328 43.4219-58.7705L55.9736-67.7783C57.7988-69.1104 57.8389-71.1562 55.9736-72.4795L43.4619-81.5361C41.1357-83.2227 38.8389-82.4326 38.8389-79.3037ZM46.7061 4.61621C68.7383 4.61621 86.6162-13.2305 86.6162-35.2539C86.6162-47.7061 80.8633-58.8398 71.6445-66.2383C69.4414-68.1074 66.5684-67.6895 65.1865-65.707C63.6943-63.6543 64.3506-61.208 66.3105-59.4805C73.4092-53.7314 77.9414-45.123 77.9414-35.2539C77.9414-17.9912 63.9688-4.01855 46.7061-4.01855C29.4434-4.01855 15.5107-17.9912 15.5107-35.2539C15.5107-52.5166 29.4434-66.4893 46.7236-66.4893C49.1084-66.4893 51.041-68.4219 51.041-70.8066C51.041-73.1914 49.1484-75.084 46.7637-75.124C24.6738-75.084 6.83594-57.2861 6.83594-35.2539C6.83594-13.2305 24.7139 4.61621 46.7061 4.61621ZM59.2422-42.2979C61.3145-42.7725 61.958-43.3135 61.958-45.7236L61.958-53.9141C61.958-55.6221 61.2578-56.3408 59.0342-55.7461L46.915-52.7363C44.8115-52.2305 44.3369-51.7383 44.3369-49.2705L44.3369-31.6074C44.3369-29.8223 44.208-29.542 42.1963-28.9824L38.4805-28.0146C34.5713-27.0342 31.5029-24.6602 31.5029-20.6602C31.5029-17.083 34.2412-14.5264 38.418-14.5264C44.4014-14.5264 48.5293-18.792 48.5293-24.793L48.5293-38.0039C48.5293-39.4473 48.8271-39.8252 49.6533-40.0117Z" />
</svg>