<svg xmlns="http://www.w3.org/2000/svg" viewBox="6.83594 -54.0791 110.56 41.65">
  <path d="M37.2334-12.4248C47.3682-12.4248 56.1396-15.626 62.0977-21.3799C68.0957-15.626 76.8672-12.4248 86.9619-12.4248C104.111-12.4248 117.399-22.9209 117.399-36.4746C117.399-42.6953 114.822-46.333 110.302-46.333C108.363-46.333 106.767-45.4902 105.263-43.8135C103.633-41.9082 101.625-40.9932 99.0713-40.9932C90.1992-40.9932 87.2627-54.0791 71.6201-54.0791C67.9072-54.0791 64.5752-52.9756 62.0977-50.9717C59.6602-52.9756 56.3281-54.0791 52.5752-54.0791C36.9727-54.0791 34.0361-40.9932 25.124-40.9932C22.6104-40.9932 20.6025-41.9082 18.9326-43.8135C17.4688-45.4902 15.832-46.333 13.9336-46.333C9.41309-46.333 6.83594-42.6953 6.83594-36.4746C6.83594-22.9209 20.124-12.4248 37.2334-12.4248ZM37.2334-20.3877C24.9492-20.3877 15.335-27.1758 14.79-35.8066C14.7549-36.4287 15.3594-36.4678 15.7051-36.1836C18.0537-34.0947 21.5225-33.166 25.124-33.166C32.127-33.166 36.8887-37.002 40.6484-40.2246C44.5547-43.5449 47.5566-46.1162 52.5928-46.1162C56.0791-46.1162 58.6426-44.5264 59.9961-42.0957C61.2549-40.4307 62.9805-40.3906 64.1992-42.0957C65.5527-44.5264 68.1162-46.1162 71.6025-46.1162C76.6387-46.1162 79.6807-43.5449 83.5869-40.2246C87.3467-37.002 92.0684-33.166 99.0713-33.166C102.713-33.166 106.182-34.1348 108.65-36.3438C109.036-36.6279 109.48-36.6689 109.445-35.8066C108.9-27.1758 99.2861-20.3877 86.9619-20.3877C75.7295-20.3877 67.5771-24.9297 64.457-31.8555C63.3564-34.0078 60.8789-34.0479 59.7783-31.8555C56.6982-24.9297 48.5459-20.3877 37.2334-20.3877Z"/>
</svg>