<svg xmlns="http://www.w3.org/2000/svg" viewBox="8.78906 -71.918 74.25 73.33">
  <path d="M28.8896-18.9746C40.4424-7.42188 54.2363 1.41016 65.3584 1.41016C70.6133 1.41016 75.1758-0.675781 78.1582-4.04004C80.9854-7.25781 82.0674-9.68945 82.0674-11.8154C82.0674-13.4707 81.0244-14.9619 78.4902-16.7949L68.8682-23.6875C66.4893-25.374 65.3975-25.6758 64.0039-25.6758C62.8057-25.6758 61.7715-25.4717 59.7256-24.3311L53.4717-20.8867C52.7217-20.4873 52.3711-20.3896 51.8252-20.3896C51.084-20.3896 50.5957-20.585 49.8457-20.8955C46.8633-22.2803 42.6602-25.5869 38.9365-29.2617C35.2217-32.9854 32.332-36.8027 30.8545-39.7803C30.6592-40.1797 30.415-40.7656 30.415-41.418C30.415-41.915 30.6904-42.3809 30.9922-42.9268L34.6318-49.2383C35.6172-50.9648 35.9277-51.9102 35.9277-53.2549C35.9277-54.7861 35.4307-56.4238 33.9395-58.4697L27.3799-67.6924C25.498-70.3242 23.9766-71.918 21.8418-71.918C19.2188-71.918 16.0811-69.8809 13.7998-67.6973C10.5244-64.5283 8.78906-60.1123 8.78906-55.1992C8.78906-43.9883 17.377-30.4385 28.8896-18.9746ZM77.3594-64.8076L76.0254-50.0039L75.9854-45.1963C76.0254-43.2764 77.4795-41.8086 79.4346-41.7285C81.3408-41.6484 83.0352-43.1875 83.0352-45.1787L83.0352-66.4111C82.9951-69.1631 81.5732-70.625 78.8213-70.625L57.4697-70.625C55.5186-70.625 53.9795-69.002 54.0596-67.0156C54.1396-65.0605 55.5674-63.6465 57.4873-63.6865L62.3564-63.6465ZM79-62.1572C80.1836-63.4072 80.2324-65.3223 79-66.5635C77.8076-67.7559 75.8525-67.6982 74.5938-66.5635L66.415-59.0859L51.6377-44.2686C50.835-43.4658 50.4492-42.6016 50.4492-41.5107C50.4893-39.6221 51.9834-38.1055 54.085-38.1455C55.0693-38.1055 55.9248-38.4912 56.6387-39.1963L71.4873-53.9961Z" />
</svg>