<svg xmlns="http://www.w3.org/2000/svg" viewBox="9.76562 -79.292 80.97 87.99">
  <path d="M23.8701 6.72949L76.7705 6.72949C84.0654 6.72949 87.876 3.02637 87.876-4.35645L87.876-6.49023L68.7383-24.5547C67.2686-25.9668 65.3633-26.6328 63.4541-26.6328C61.5801-26.6328 59.7773-26.0068 58.2188-24.5947L42.1045-10.3008L35.5947-16.082C34.1025-17.4365 32.4463-18.085 30.79-18.085C29.2539-18.085 27.709-17.3965 26.2256-16.1309L12.7559-4.47461C12.7559 3.03516 16.5225 6.72949 23.8701 6.72949ZM39.2383-23.5996C43.9844-23.5996 47.8379-27.5332 47.8379-32.2881C47.8379-36.9629 43.9844-40.8477 39.2383-40.8477C34.4746-40.8477 30.6299-36.9629 30.6299-32.2881C30.6299-27.5332 34.4746-23.5996 39.2383-23.5996ZM22.7178 8.69531L77.7852 8.69531C86.3145 8.69531 90.7373 4.35254 90.7373-4.09668L90.7373-43.2646C90.7373-51.6738 86.3145-56.0566 77.7852-56.0566L22.7178-56.0566C14.1484-56.0566 9.76562-51.7139 9.76562-43.2646L9.76562-4.09668C9.76562 4.35254 14.1484 8.69531 22.7178 8.69531ZM23.2021 0.380859C19.915 0.380859 18.0801-1.33887 18.0801-4.82129L18.0801-42.54C18.0801-46.0225 19.915-47.7422 23.2021-47.7422L77.3008-47.7422C80.5879-47.7422 82.4229-46.0225 82.4229-42.54L82.4229-4.82129C82.4229-1.33887 80.5879 0.380859 77.3008 0.380859ZM18.1602-62.0879L82.4229-62.0879C81.752-66.1445 79.7959-68.4072 75.2607-68.4072L25.3223-68.4072C20.7471-68.4072 18.791-66.1445 18.1602-62.0879ZM26.0449-73.5498L74.498-73.5498C74.1875-77.3311 71.9961-79.292 67.8994-79.292L32.6436-79.292C28.5869-79.292 26.3555-77.3311 26.0449-73.5498Z"/>
</svg>