<svg xmlns="http://www.w3.org/2000/svg" viewBox="9.76562 -71.2666 72.07 72.11">
  <path d="M45.8184-13.875C33.9727-13.875 24.4482-23.3994 24.4482-35.2451C24.4482-47.0908 33.9727-56.6152 45.8184-56.6152C57.624-56.6152 67.1885-47.0908 67.1885-35.2451C67.1885-23.3994 57.624-13.875 45.8184-13.875ZM36.0244-30.7012C38.6436-30.7012 40.792-32.8896 40.792-35.5088C40.792-38.1191 38.6436-40.3076 36.0244-40.3076C33.3652-40.3076 31.2168-38.1191 31.2168-35.5088C31.2168-32.8896 33.3652-30.7012 36.0244-30.7012ZM55.4805-30.7012C58.0996-30.7012 60.2393-32.8896 60.2393-35.5088C60.2393-38.1191 58.0908-40.3076 55.4805-40.3076C52.8213-40.3076 50.6729-38.1191 50.6729-35.5088C50.6729-32.8809 52.8125-30.7012 55.4805-30.7012ZM45.8184-19.9551C48.4463-19.9551 50.5947-22.1436 50.5947-24.7627C50.5947-27.3818 48.4463-29.5615 45.8184-29.5615C43.168-29.5615 41.0195-27.373 41.0195-24.7627C41.0195-22.1436 43.168-19.9551 45.8184-19.9551ZM22.7178 0.838867L68.8789 0.838867C77.4482 0.838867 81.8311-3.54395 81.8311-11.9932L81.8311-58.4346C81.8311-66.8838 77.4482-71.2666 68.8789-71.2666L22.7178-71.2666C14.1885-71.2666 9.76562-66.8838 9.76562-58.4346L9.76562-11.9932C9.76562-3.54395 14.1885 0.838867 22.7178 0.838867Z"/>
</svg>