<svg xmlns="http://www.w3.org/2000/svg" viewBox="9.76562 -78.2295 46.47 85.97">
  <path d="M22.6777 7.73926L43.3252 7.73926C51.8145 7.73926 56.2373 3.39648 56.2373-5.0127L56.2373-65.4775C56.2373-73.8867 51.8145-78.2295 43.3252-78.2295L22.6777-78.2295C14.1885-78.2295 9.76562-73.8867 9.76562-65.4775L9.76562-5.0127C9.76562 3.39648 14.1885 7.73926 22.6777 7.73926ZM23.1621-0.575195C19.915-0.575195 18.0801-2.29492 18.0801-5.7373L18.0801-64.7529C18.0801-68.1953 19.915-69.915 23.1621-69.915L42.8408-69.915C46.0879-69.915 47.9229-68.1953 47.9229-64.7529L47.9229-5.7373C47.9229-2.29492 46.0879-0.575195 42.8408-0.575195ZM33.0215-49.4297C36.3369-49.4297 39.0088-52.1416 39.0088-55.457C39.0088-58.7324 36.3369-61.4443 33.0215-61.4443C29.7061-61.4443 27.0342-58.7324 27.0342-55.457C27.0342-52.1416 29.7061-49.4297 33.0215-49.4297ZM33.0215-29.2178C36.3369-29.2178 39.0088-31.9297 39.0088-35.2451C39.0088-38.5205 36.3369-41.2324 33.0215-41.2324C29.7061-41.2324 27.0342-38.5205 27.0342-35.2451C27.0342-31.9297 29.7061-29.2178 33.0215-29.2178ZM33.0215-9.00586C36.3369-9.00586 39.0088-11.7178 39.0088-15.0332C39.0088-18.3486 36.3369-21.0205 33.0215-21.0205C29.7061-21.0205 27.0342-18.3486 27.0342-15.0332C27.0342-11.7178 29.7061-9.00586 33.0215-9.00586Z"/>
</svg>