<svg xmlns="http://www.w3.org/2000/svg" viewBox="9.76562 -71.2666 72.07 72.11">
  <path d="M33.1055-16.6621C31.7842-16.6621 30.5381-17.0566 29.6152-17.9395C25.2471-22.0723 22.1758-28.5078 22.1758-35.2051C22.1758-41.9512 25.2959-48.4355 29.7217-52.5771C30.5957-53.3623 31.793-53.748 33.1055-53.748L58.4912-53.748C59.8125-53.748 61.0586-53.3535 61.9814-52.4707C66.3896-48.3379 69.4209-41.9023 69.4209-35.2051C69.4209-28.5078 66.3896-22.0723 61.9814-17.9395C61.0586-17.0566 59.8125-16.6621 58.4912-16.6621ZM35.9033-25.4541C37.3271-25.4541 38.4805-26.5674 38.4805-28.0312L38.4805-42.4277C38.4805-43.8916 37.3271-45.0049 35.9033-45.0049C34.4395-45.0049 33.3262-43.8916 33.3262-42.4277L33.3262-28.0312C33.3262-26.5674 34.4395-25.4541 35.9033-25.4541ZM55.7334-25.4541C57.1572-25.4541 58.3105-26.5674 58.3105-28.0312L58.3105-42.4277C58.3105-43.8916 57.1572-45.0049 55.7334-45.0049C54.2695-45.0049 53.1562-43.8916 53.1562-42.4277L53.1562-28.0312C53.1562-26.5674 54.2695-25.4541 55.7334-25.4541ZM22.7178 0.838867L68.8789 0.838867C77.4482 0.838867 81.8311-3.54395 81.8311-11.9932L81.8311-58.4346C81.8311-66.8838 77.4482-71.2666 68.8789-71.2666L22.7178-71.2666C14.1885-71.2666 9.76562-66.8838 9.76562-58.4346L9.76562-11.9932C9.76562-3.54395 14.1885 0.838867 22.7178 0.838867Z"/>
</svg>