<svg xmlns="http://www.w3.org/2000/svg" viewBox="9.76562 -76.8027 66.27 83.12">
  <path d="M29.1484-23.2051L56.6836-23.2051C58.166-23.2051 59.3379-24.3857 59.3379-25.9082C59.3379-27.3818 58.166-28.5137 56.6836-28.5137L29.1484-28.5137C27.5771-28.5137 26.4453-27.3818 26.4453-25.9082C26.4453-24.3857 27.5771-23.2051 29.1484-23.2051ZM29.1484-12.0303L42.373-12.0303C43.8955-12.0303 45.0273-13.1621 45.0273-14.6357C45.0273-16.1582 43.8955-17.3389 42.373-17.3389L29.1484-17.3389C27.5771-17.3389 26.4453-16.1582 26.4453-14.6357C26.4453-13.1621 27.5771-12.0303 29.1484-12.0303ZM41.9326-42.3037C43.7881-42.3037 44.9639-43.3652 45.0254-44.7773C45.0342-44.835 45.043-44.9326 45.043-44.9814C45.1221-46.3633 46.085-47.2559 47.9111-48.4424C50.708-50.2539 52.7793-52.0039 52.7793-55.5576C52.7793-60.7227 48.1699-63.4922 42.9141-63.4922C38.5811-63.4922 34.2061-61.5869 33.2344-58.2959C33.0703-57.8789 33.0127-57.4307 33.0127-56.9248C33.0127-55.3311 34.3447-54.3154 35.6396-54.3154C36.8516-54.3154 37.6367-54.8086 38.3027-55.6875L38.8809-56.3145C39.9473-57.7539 41.1025-58.3008 42.5469-58.3008C44.6895-58.3008 46.0537-57.1055 46.0537-55.2695C46.0537-53.5635 44.877-52.7549 42.4873-51.1025C40.5068-49.7393 38.8008-48.1846 38.8008-45.3535C38.8008-45.3047 38.8008-45.2246 38.8008-45.1846C38.8008-43.2402 39.9365-42.3037 41.9326-42.3037ZM41.9014-33.3311C43.9072-33.3311 45.6387-34.792 45.6387-36.8115C45.6387-38.8711 43.9473-40.3721 41.9014-40.3721C39.8066-40.3721 38.1465-38.8799 38.1465-36.8115C38.1465-34.832 39.8467-33.3311 41.9014-33.3311ZM9.76562-6.63965C9.76562 1.92969 14.1084 6.3125 22.5576 6.3125L63.2031 6.3125C71.6523 6.3125 76.0352 1.92969 76.0352-6.63965L76.0352-63.8506C76.0352-72.3799 71.6523-76.8027 63.2031-76.8027L22.5576-76.8027C14.1084-76.8027 9.76562-72.3799 9.76562-63.8506ZM18.0801-7.12402L18.0801-63.3662C18.0801-66.6533 19.7998-68.4883 23.2822-68.4883L62.5186-68.4883C65.9609-68.4883 67.6807-66.6533 67.6807-63.3662L67.6807-7.12402C67.6807-3.83691 65.9609-2.00195 62.5186-2.00195L23.2822-2.00195C19.7998-2.00195 18.0801-3.83691 18.0801-7.12402Z"/>
</svg>