<svg xmlns="http://www.w3.org/2000/svg" viewBox="6.83594 -75.124 79.78 79.74">
  <path d="M46.7061 4.61621C68.7383 4.61621 86.6162-13.2617 86.6162-35.2539C86.6162-57.2461 68.7383-75.124 46.7061-75.124C24.7139-75.124 6.83594-57.2461 6.83594-35.2539C6.83594-13.2617 24.7139 4.61621 46.7061 4.61621ZM32.1846-19.5342C30.0459-19.5342 28.8877-20.8877 28.8877-22.9463L28.8877-46.8955C28.8877-49.0342 30.0459-50.2676 32.1445-50.2676L38.374-50.2676C44.3975-50.2676 48.1709-47.0537 48.1709-40.6885C48.1709-37.5361 47.083-34.1934 44.2139-32.4932L47.2119-24.9756C47.665-24.0605 47.8828-23.252 47.8916-22.7109C47.9092-20.5049 46.3555-19.5342 44.8789-19.5342C43.0859-19.5342 42.0566-20.5195 41.4844-22.2627L38.126-31.2109L35.3525-31.2109L35.3525-22.9463C35.3525-20.8477 34.1543-19.5342 32.1846-19.5342ZM35.3525-35.7773L37.8105-35.7773C40.4668-35.7773 41.582-37.8857 41.582-40.502C41.582-43.1006 40.3779-45.2266 37.8193-45.2266L35.3525-45.2266ZM61.1172-19.7031C59.3203-19.7031 57.8604-21.123 57.8604-22.96L57.8604-44.2998L54.9326-41.9717C54.498-41.5947 54.001-41.3994 53.3975-41.3994C52.1455-41.3994 51.1475-42.292 51.1475-43.6846C51.1475-44.8252 51.707-45.7041 52.5586-46.3027L56.2402-49.1406C57.3359-49.9434 58.752-50.876 60.5938-50.876C62.9053-50.876 64.334-49.5625 64.334-47.251L64.334-22.96C64.334-21.123 62.8652-19.7031 61.1172-19.7031Z"/>
</svg>