<svg xmlns="http://www.w3.org/2000/svg" viewBox="9.76562 -72.0752 91.58 73.74">
  <path d="M9.76562-11.127C9.76562-2.67773 14.1885 1.66504 22.7178 1.66504L88.3896 1.66504C96.9189 1.66504 101.342-2.71777 101.342-11.127L101.342-24.7354C101.342-27.5479 100.357-30.8984 98.1025-33.2686L84.0664-48.2324C80.3486-52.2031 77.3223-54.3877 72.1152-54.3877L38.4639-54.3877C33.7676-54.3877 30.75-52.1943 27.041-48.2324L13.0049-33.2686C10.75-30.8984 9.76562-27.5479 9.76562-24.7354ZM20.2168-29.2031L33.2676-43.9629C35.2119-46.1113 36.4736-47.1689 38.3574-47.1689L72.71-47.1689C74.6338-47.1689 75.8955-46.1113 77.7998-43.9629L90.8906-29.2031C91.8867-28.0869 91.3574-26.3965 89.4766-26.3965L21.6309-26.3965C19.75-26.3965 19.2207-28.0869 20.2168-29.2031ZM15.3223-65.2119L27.5957-52.8984C31.2256-49.2686 33.1289-48.1055 37.7227-48.1055L73.3047-48.1055C77.9785-48.1055 79.8818-49.2686 83.5117-52.8984L95.7852-65.2119C98.2148-67.6416 96.917-72.0752 92.8359-72.0752L18.2715-72.0752C14.1904-72.0752 12.8926-67.6416 15.3223-65.2119ZM32.8047-31.292C33.2129-30.2314 34.3223-29.7656 35.4316-30.1738L52.1943-36.3105C53.3037-36.6699 53.8672-37.7393 53.459-38.8398C53.0508-39.9492 51.9902-40.375 50.832-40.0068L34.0693-33.8701C32.96-33.4619 32.3965-32.4414 32.8047-31.292ZM33.2363-38.3291C33.6045-37.2285 34.7451-36.8115 35.8145-37.2109L47.2842-41.3184C48.3535-41.7178 48.9482-42.8359 48.5488-43.8965C48.1494-45.0059 47.04-45.4229 45.9707-45.0234L34.4922-40.9072C33.3828-40.5078 32.8281-39.3984 33.2363-38.3291ZM70.5381-12.6895C70.5293-14.0918 71.6074-15.0723 73.0674-15.0723L83.874-15.0723C85.3027-15.0723 86.3545-14.0918 86.3633-12.6895C86.3721-11.2471 85.2939-10.2666 83.874-10.2666L73.0674-10.2666C71.6875-10.2666 70.5469-11.2471 70.5381-12.6895Z"/>
</svg>