<svg xmlns="http://www.w3.org/2000/svg" viewBox="6.83594 -74.4795 94.28 78.48">
  <path d="M6.83594-27.4062C6.83594-15.8223 10.999-5.23242 17.8916 2.97852C18.7432 3.98535 20.1357 3.99414 21.085 3.03613L30.5615-6.44922C31.2441-7.0918 31.2842-8.01367 30.668-8.7627C26.4951-14.1211 24.1426-20.4951 24.1426-27.4062C24.1426-42.583 35.4756-55.123 50.1377-57.04C51.251-57.1641 52.0449-58.0068 52.0449-59.1201L52.0449-72.1777C52.0449-73.5127 51.0293-74.4795 49.6943-74.3643C25.6953-72.208 6.83594-52.0176 6.83594-27.4062ZM101.12-27.4062C101.12-52.0176 82.3096-72.208 58.2617-74.3643C56.9268-74.4795 55.9111-73.5127 55.9111-72.1777L55.9111-59.1201C55.9111-58.0068 56.7051-57.1641 57.8184-57.04C72.4805-55.123 83.8535-42.583 83.8535-27.4062C83.8535-20.4951 81.501-14.1211 77.2793-8.75391C76.7031-8.00488 76.7432-7.08301 77.3857-6.44043L86.8623 3.04492C87.8115 4.00293 89.2041 3.99414 90.0557 2.9873C96.9971-5.23242 101.12-15.8223 101.12-27.4062ZM43.375-12.1396C49.7646-12.1396 52.9102-15.9287 52.9102-20.957C52.9102-25.9932 49.9736-27.9375 45.96-29.3984L43.6523-30.2373C41.249-31.0947 39.4951-32.1787 39.4951-34.7598C39.4951-36.8975 40.7969-38.5508 43.2236-38.5508C45.3516-38.5508 46.8408-37.4004 47.5117-35.0576C47.915-33.8418 48.7227-33.3359 49.9736-33.3359C51.3701-33.3359 52.1865-34.2627 52.1865-35.5674C52.1865-35.957 52.1025-36.4404 51.9873-36.791C50.9141-40.7207 47.4648-42.916 43.2549-42.916C37.5225-42.916 34.2793-39.1758 34.2793-34.374C34.2793-29.9248 36.8643-27.3984 41.1396-25.9111L43.333-25.1074C45.8906-24.2461 47.6943-22.9971 47.6943-20.4336C47.6943-18.1406 46.0771-16.5137 43.4639-16.5137C41.0684-16.5137 39.4863-17.6738 38.8379-20.043C38.417-21.2764 37.5918-21.8311 36.3809-21.8311C35.0283-21.8311 34.0566-20.793 34.0566-19.4131C34.0566-18.8721 34.1895-18.1846 34.3887-17.7236C35.7646-14.0322 39.085-12.1396 43.375-12.1396ZM64.7334-13.2939C70.1006-13.2939 73.9971-16.1045 73.9971-21.1387C73.9971-25.5566 71.2178-27.3145 67.4844-28.9932L64.5195-30.3164C62.4004-31.2852 60.6943-32.4453 60.6943-34.4092C60.6943-36.6621 62.4268-37.7021 64.6797-37.7021C67.1553-37.7021 68.2432-36.1992 68.7715-34.2041C69.0771-33.2061 69.7646-32.4912 71.1406-32.4912C72.5859-32.4912 73.416-33.4043 73.416-34.6475C73.416-35.1846 73.3496-35.5127 73.2744-35.9297C72.1689-40.043 68.6846-41.7305 64.6797-41.7305C59.8096-41.7305 55.7754-39.1064 55.7754-34.0947C55.7754-29.8369 58.2705-27.9014 62.1328-26.1426L65.1143-24.8242C67.2246-23.8242 69.0381-22.8818 69.0381-20.6377C69.0381-18.4648 67.4131-17.3623 64.7422-17.3623C61.9912-17.3623 60.7607-18.54 60.2725-20.918C59.998-21.876 59.2393-22.6709 57.9434-22.6709C56.5771-22.6709 55.5791-21.8145 55.5791-20.4082C55.5791-20.0801 55.6455-19.623 55.7607-19.2148C56.9014-14.9639 60.5732-13.2939 64.7334-13.2939ZM64.6973-9.53711C65.2793-9.53711 65.7637-10.0215 65.7637-10.6035L65.7637-44.4609C65.7637-45.0029 65.2793-45.4873 64.6973-45.4873C64.1553-45.4873 63.6709-45.0029 63.6709-44.4609L63.6709-10.6035C63.6709-10.0215 64.1553-9.53711 64.6973-9.53711Z"/>
</svg>