<svg xmlns="http://www.w3.org/2000/svg" viewBox="2.34766 -74.7861 78.46 79.06">
  <path d="M44.3594-45.4287L44.918-53.001L44.918-57.3359L53.3984-62.1221C55.1377-63.1426 55.6523-64.8994 54.8096-66.3721C53.8467-68.0449 52.0898-68.2617 50.3906-67.3213L44.918-64.2119L44.918-71.2646C44.918-73.3096 43.6016-74.7861 41.5566-74.7861C39.5518-74.7861 38.1553-73.3096 38.1553-71.2646L38.1553-64.2119L32.6426-67.3213C30.9434-68.2617 29.2266-68.0449 28.2637-66.3721C27.3809-64.8994 27.9355-63.1426 29.6748-62.1221L38.1553-57.3359L38.1553-53.2471L38.2354-51.6104ZM51.9492-37.9053L58.5781-41.1738L62.332-43.3525L70.7725-38.4062C72.4316-37.4258 74.3086-37.8115 75.1914-39.2754C76.123-40.9482 75.3994-42.585 73.7803-43.5654L68.3164-46.7861L74.4678-50.3125C76.2109-51.3594 76.7607-53.2168 75.7539-55.04C74.7471-56.7432 72.8896-57.2129 71.0664-56.2061L64.9062-52.7197L64.8662-59.0098C64.8662-60.9307 63.7842-62.3594 61.8984-62.3506C60.1729-62.3418 58.9307-60.9707 58.9307-59.0098L59.0107-49.2773L55.1992-47.0898L47.7939-42.0518ZM62.5918-27.2764L74.8477-15.1182L75.2881-14.8379C75.4434-15.042 75.5986-15.2373 75.7451-15.4502C76.8408-17.1621 76.1797-19.1973 74.4238-20.2305L68.3164-23.7217L73.7803-26.9424C75.3994-27.9229 76.1318-29.5596 75.2002-31.1924C74.2686-32.6963 72.4316-33.082 70.7725-32.1016ZM38.7051-25.0703L38.1465-17.4805L38.1553-13.1719L29.6748-8.38574C27.9355-7.36523 27.3809-5.6084 28.2637-4.13574C29.2266-2.46289 30.9434-2.24609 32.6426-3.18652L38.1553-6.2959L38.1553 0.756836C38.1553 2.80176 39.5518 4.27832 41.5566 4.27832C43.6016 4.27832 44.918 2.80176 44.918 0.756836L44.918-6.2959L50.3906-3.18652C52.0898-2.24609 53.8467-2.46289 54.8096-4.13574C55.6523-5.6084 55.1377-7.36523 53.3984-8.38574L44.918-13.1719L44.9268-17.2344L44.8467-18.9199ZM31.1553-32.5625L24.5127-29.3428L20.7012-27.1553L12.3008-32.1016C10.6504-33.0732 8.76465-32.6963 7.96191-31.2324C6.99902-29.4795 7.67383-27.9229 9.29297-26.9424L14.7568-23.7217L8.60547-20.1953C6.90234-19.1885 6.3125-17.2109 7.31934-15.4678C8.36621-13.6846 10.2637-13.335 12.0068-14.3018L18.167-17.7881L18.207-11.498C18.207-9.57715 19.2891-8.15723 21.2148-8.15723C22.9004-8.15723 24.1426-9.53711 24.1426-11.498L24.1025-21.2705L27.874-23.418L35.2793-28.4561ZM12.3008-38.4062L20.5352-43.2314L8.42578-55.3408L7.8252-55.6611C7.66113-55.4971 7.47461-55.293 7.31934-55.04C6.27246-53.2256 6.83203-51.126 9.00977-50.2158L15.3193-47.0059L9.29297-43.5654C7.66504-42.6201 6.9502-41.0283 7.91309-39.2754C8.72461-37.7939 10.6016-37.4258 12.3008-38.4062ZM74.707 2.70801C76.0342 4.02637 78.2002 3.99512 79.4785 2.66797C80.7568 1.34082 80.8057-0.776367 79.4785-2.10352L8.44629-73.167C7.11914-74.4941 4.95312-74.4941 3.62598-73.167C2.34766-71.8887 2.34766-69.6738 3.62598-68.3955Z"/>
</svg>