<svg xmlns="http://www.w3.org/2000/svg" viewBox="12.2627 -69.8154 71.01 69.22">
  <path d="M21.3164-18.5039L31.9482-18.5039C32.2148-18.5039 32.4814-18.4238 32.6768-18.2285L49.2295-3.39844C51.4033-1.47754 53.0625-0.594727 55.1826-0.594727C58.1934-0.594727 60.499-2.82031 60.499-5.87109L60.499-64.3389C60.499-67.3496 58.1934-69.8154 55.1025-69.8154C53.0176-69.8154 51.5811-68.9102 49.2295-66.7715L32.6768-52.1904C32.4727-51.9951 32.2148-51.9062 31.9482-51.9062L21.3164-51.9062C15.3008-51.9062 12.2627-48.7441 12.2627-42.3643L12.2627-28.0059C12.2627-21.666 15.3408-18.5039 21.3164-18.5039ZM22.0137-25.959C20.876-25.959 20.2451-26.5586 20.2451-27.7275L20.2451-42.6826C20.2451-43.8115 20.876-44.4512 22.0137-44.4512L34.002-44.4512C34.9912-44.4512 35.75-44.624 36.6289-45.4541L51.5137-58.957C51.6602-59.1035 51.8555-59.1924 52.0508-59.1924C52.3125-59.1924 52.5166-58.9883 52.5166-58.6777L52.5166-11.7637C52.5166-11.4131 52.3125-11.2002 52.0508-11.2002C51.8555-11.2002 51.6602-11.2979 51.5137-11.4844L36.6289-24.9561C35.75-25.7461 34.9912-25.959 34.002-25.959ZM72.9746-18.0557C74.7471-16.9121 77.1055-17.293 78.4004-19.1602C81.4795-23.3213 83.2764-29.2236 83.2764-35.2139C83.2764-41.2041 81.4795-47.0664 78.4004-51.2764C77.1055-53.1348 74.7471-53.5156 72.9746-52.332C70.9355-50.9795 70.5371-48.5059 72.168-46.1279C74.1396-43.3447 75.2588-39.2725 75.2588-35.2139C75.2588-31.1553 74.0996-27.123 72.168-24.2998C70.5771-21.8818 70.9355-19.4482 72.9746-18.0557Z" />
</svg>