<svg xmlns="http://www.w3.org/2000/svg" viewBox="6.83594 -75.0752 79.78 79.74">
  <path d="M46.7061 4.66504C68.7383 4.66504 86.6162-13.2129 86.6162-35.2051C86.6162-57.1973 68.7383-75.0752 46.7061-75.0752C24.7139-75.0752 6.83594-57.1973 6.83594-35.2051C6.83594-13.2129 24.7139 4.66504 46.7061 4.66504ZM36.8008-26.833C33.8008-26.833 32.1855-28.4658 32.1855-31.6523L32.1855-38.7266C32.1855-39.7842 32.4346-40.6504 32.8125-41.2988L32.8525-41.2988L55.4385-18.6953L55.0381-18.1748C54.625-17.877 54.1494-17.6768 53.6162-17.6768C52.5557-17.6768 51.6592-18.0938 50.6074-19.0791L42.499-26.7041C42.4102-26.793 42.2812-26.833 42.0947-26.833ZM44.4229-45.4082L50.6074-51.1621C51.7881-52.2764 52.5244-52.7246 53.5762-52.7246C55.0801-52.7246 56.291-51.4912 56.291-49.9785L56.291-33.5713ZM64.4463-14.458L26.0078-52.8877C25.1963-53.6904 25.1963-55.1143 26.0078-55.9258C26.8594-56.7773 28.2119-56.7773 29.0947-55.9258L67.5244-17.5361C68.3359-16.6533 68.3359-15.3496 67.5244-14.458C66.6729-13.6465 65.2891-13.6553 64.4463-14.458Z"/>
</svg>