<svg xmlns="http://www.w3.org/2000/svg" viewBox="9.76562 -71.3066 104.6 72.11">
  <path d="M9.76562-22.5586L19.2764-22.5586C21.6318-22.5586 22.9072-23.834 22.9072-26.1895L22.9072-44.2607C22.9072-46.6162 21.6318-47.8916 19.2764-47.8916L9.76562-47.8916ZM25.2217 0.798828L58.6641 0.798828L58.6641-16.5693C49.7803-18.1621 43.0762-25.9355 43.0762-35.2539C43.0762-44.5723 49.7803-52.3457 58.6641-53.9385L58.6641-71.3066L25.2217-71.3066C15.2236-71.3066 9.76562-65.8613 9.76562-55.8809L9.76562-54.3818L19.3027-54.3818C25.8506-54.3818 29.3887-50.8438 29.3887-44.2959L29.3887-26.1631C29.3887-19.6152 25.8506-16.0771 19.3027-16.0771L9.76562-16.0771L9.76562-14.5781C9.76562-4.64648 15.2324 0.798828 25.2217 0.798828ZM58.6641-23.1689L58.6641-29.4424C56.6611-30.6006 55.2842-32.7451 55.2842-35.2539C55.2842-37.7627 56.6611-39.9072 58.6641-41.0654L58.6641-47.3389C53.333-45.8877 49.4277-41.0596 49.4277-35.2539C49.4277-29.4482 53.333-24.6201 58.6641-23.1689ZM65.5088-23.1777C70.791-24.6377 74.6875-29.457 74.6875-35.2539C74.6875-41.0508 70.791-45.8701 65.5088-47.3301L65.5088-41.0479C67.5029-39.8984 68.8311-37.7539 68.8311-35.2539C68.8311-32.7539 67.5029-30.6094 65.5088-29.46ZM65.5088 0.798828L98.9111 0.798828C108.909 0.798828 114.367-4.64648 114.367-14.5781L114.367-16.0771L104.83-16.0771C98.2822-16.0771 94.7441-19.6152 94.7441-26.1631L94.7441-44.2959C94.7441-50.8438 98.2822-54.3818 104.83-54.3818L114.367-54.3818L114.367-55.8809C114.367-65.8613 108.909-71.3066 98.9111-71.3066L65.5088-71.3066L65.5088-53.9385C74.3438-52.3369 81.0791-44.5635 81.0791-35.2539C81.0791-25.9443 74.3438-18.1709 65.5088-16.5693ZM114.367-22.5586L114.367-47.8916L104.856-47.8916C102.501-47.8916 101.226-46.6162 101.226-44.2607L101.226-26.1895C101.226-23.834 102.501-22.5586 104.856-22.5586Z"/>
</svg>