<svg xmlns="http://www.w3.org/2000/svg" viewBox="6.83594 -76.6465 77.38 82.83">
  <path d="M43.6455 6.1875L47.3574 6.1875C53.9346 6.1875 57.3203 3.0459 57.3203-3.0918L57.3203-14.8682L67.4619-8.95117C69.3037-7.85938 71.0967-7.35352 72.7031-7.35352C75.7207-7.35352 78.3389-9.21289 80.4424-12.9141L82.3428-16.1211C83.5811-18.3047 84.2158-20.2529 84.2158-22.0947C84.2158-25.0547 82.5293-27.5264 79.2676-29.3857L69.0859-35.2539L79.2188-41.1133C82.4805-42.9727 84.1758-45.4443 84.1758-48.4043C84.1758-50.1973 83.5322-52.1543 82.2939-54.3291L80.4424-57.5049C78.29-61.2461 75.6631-63.1055 72.5967-63.1055C70.999-63.1055 69.2549-62.5996 67.4131-61.5166L57.3203-55.6885L57.3203-67.3672C57.3203-73.5049 53.9346-76.6465 47.3574-76.6465L43.6455-76.6465C37.0684-76.6465 33.7314-73.5137 33.7314-67.3672L33.7314-55.6885L23.5986-61.5166C21.7568-62.5996 20.0527-63.1055 18.415-63.1055C15.3887-63.1055 12.7617-61.2461 10.5693-57.5049L8.75781-54.3291C7.51953-52.1543 6.87598-50.1973 6.87598-48.4043C6.87598-45.4443 8.53125-42.9727 11.833-41.1133L21.9258-35.2539L11.7842-29.3857C8.52246-27.5264 6.83594-25.0547 6.83594-22.0947C6.83594-20.2529 7.4707-18.3047 8.70898-16.1211L10.5693-12.9141C12.7129-9.21289 15.3311-7.35352 18.3086-7.35352C19.9551-7.35352 21.708-7.85938 23.5498-8.95117L33.7314-14.8682L33.7314-3.0918C33.7314 3.05469 37.0684 6.1875 43.6455 6.1875ZM44.9453-0.975586C42.0811-0.975586 41.2012-1.7666 41.21-4.57324L41.2539-25.9932C41.2539-26.6006 40.793-27.0752 40.2432-27.0752C40.0215-27.0752 39.8398-27.0176 39.627-26.9023L21.1582-16.1943C20.2656-15.6836 19.4971-15.3994 18.8486-15.3994C17.8447-15.3994 17.1074-16.0967 16.1748-17.6777L15.623-18.6221C15.0547-19.6211 14.7305-20.4473 14.7305-21.1445C14.7305-22.1084 15.3789-22.877 16.8535-23.6631L35.7354-34.5674C36.1123-34.7891 36.3164-35.1172 36.3164-35.4941C36.3164-35.8799 36.1035-36.2568 35.6777-36.4785L16.8936-46.8047C15.4189-47.6309 14.7705-48.3682 14.7705-49.3896C14.7705-50.0781 15.0547-50.8643 15.6143-51.8457L16.1748-52.8301C17.0986-54.4023 17.8848-55.0996 18.8975-55.0996C19.5371-55.0996 20.3145-54.8242 21.1982-54.3135L39.5869-43.5967C39.7998-43.4814 39.9814-43.4238 40.2031-43.4238C40.793-43.4238 41.2539-43.8984 41.2539-44.5459L41.21-65.8242C41.2012-68.6309 42.0811-69.4219 44.9453-69.4219L46.0664-69.4219C48.9707-69.4219 49.8506-68.6309 49.8418-65.8242L49.7979-44.5459C49.7979-43.8984 50.2188-43.4238 50.8086-43.4238C51.0303-43.4238 51.2119-43.4814 51.4248-43.5967L69.8535-54.3135C70.7773-54.833 71.4746-55.1084 72.123-55.1084C73.167-55.1084 73.9443-54.4111 74.8369-52.8301L75.3975-51.8457C75.9658-50.8643 76.29-50.0693 76.29-49.3809C76.29-48.3682 75.5928-47.6309 74.1582-46.8047L55.3652-36.4385C54.9395-36.2168 54.7266-35.8799 54.7266-35.4941C54.7266-35.1172 54.9307-34.7891 55.3076-34.5674L74.207-23.6631C75.6416-22.877 76.3301-22.1084 76.3301-21.1445C76.3301-20.4072 75.9658-19.6211 75.3975-18.6221L74.8457-17.6777C73.9531-16.0967 73.2158-15.3994 72.1719-15.3994C71.5234-15.3994 70.7949-15.6836 69.9023-16.1943L51.4248-26.9023C51.2119-27.0176 51.0303-27.0752 50.8086-27.0752C50.2188-27.0752 49.7979-26.6006 49.7979-25.9932L49.8418-4.57324C49.8506-1.7666 48.9707-0.975586 46.0664-0.975586Z"/>
</svg>