<svg xmlns="http://www.w3.org/2000/svg" viewBox="6.83594 -75.124 79.78 79.74">
  <path d="M46.7061 4.61621C68.7383 4.61621 86.6162-13.2217 86.6162-35.2539C86.6162-57.2861 68.7383-75.124 46.7061-75.124C24.7139-75.124 6.83594-57.2861 6.83594-35.2539C6.83594-13.2217 24.7139 4.61621 46.7061 4.61621ZM46.7061-4.01855C29.4434-4.01855 15.5107-17.9912 15.5107-35.2539C15.5107-52.5166 29.4434-66.4893 46.7061-66.4893C63.9688-66.4893 77.9414-52.5166 77.9414-35.2539C77.9414-17.9912 63.9688-4.01855 46.7061-4.01855ZM26.7402-38.666C28-38.2891 29.2471-38.1074 30.6182-38.1074C37.5547-38.1074 42.835-43.3477 42.835-50.333C42.835-51.9482 42.5732-53.4131 41.9971-54.8154C34.2529-52.96 28.1738-46.5566 26.7402-38.666ZM46.626-14.9287C47.207-14.9287 47.748-14.9375 48.3291-14.9951C47.6777-16.5488 47.3984-18.248 47.3984-20.0361C47.3984-28.5352 54.25-35.4268 62.7402-35.4268C64.1377-35.4268 65.5352-35.2051 66.8711-34.7354C66.8711-34.8682 66.8711-35.001 66.8711-35.1338C66.8711-46.2285 57.6807-55.3789 46.626-55.3789C46.1025-55.3789 45.6279-55.3701 45.0645-55.3213C45.6807-53.8076 45.96-52.1035 45.96-50.333C45.96-41.8828 39.0684-35.0312 30.6182-35.0312C29.2119-35.0312 27.7832-35.2129 26.4297-35.625C26.4209-35.4346 26.4209-35.3242 26.4209-35.1338C26.4209-24.0791 35.6113-14.9287 46.626-14.9287ZM51.4277-15.5098C59.123-17.4229 65.1934-23.7949 66.5605-31.6543C65.2959-32.0713 64.1289-32.3018 62.7402-32.3018C55.7549-32.3018 50.5146-27.0215 50.5146-20.0361C50.5146-18.3633 50.8027-16.8721 51.4277-15.5098Z" />
</svg>