<svg xmlns="http://www.w3.org/2000/svg" viewBox="6.83594 -75.124 79.78 79.74">
  <path d="M46.7061 4.61621C68.7383 4.61621 86.6162-13.2217 86.6162-35.2539C86.6162-57.2861 68.7383-75.124 46.7061-75.124C24.7139-75.124 6.83594-57.2861 6.83594-35.2539C6.83594-13.2217 24.7139 4.61621 46.7061 4.61621ZM46.7061-4.01855C29.4434-4.01855 15.5107-17.9912 15.5107-35.2539C15.5107-52.5166 29.4434-66.4893 46.7061-66.4893C63.9688-66.4893 77.9414-52.5166 77.9414-35.2539C77.9414-17.9912 63.9688-4.01855 46.7061-4.01855ZM34.7012-53.7256L58.7109-53.7256C59.8066-53.7256 60.6494-54.6484 60.6494-55.6641C60.6494-56.7109 59.8066-57.5625 58.7109-57.5625L34.7012-57.5625C33.6055-57.5625 32.7627-56.7109 32.7627-55.6641C32.7627-54.6484 33.6055-53.7256 34.7012-53.7256ZM46.7061-43.4355C51.3672-43.4355 55.3535-42.748 58.1104-41.4658L58.8477-51.3945L34.5645-51.3945L35.3018-41.4658C38.0586-42.708 42.0449-43.4355 46.7061-43.4355ZM46.7061-31.1289C54.5156-31.1289 60.2822-33.2188 60.2822-36.1123C60.2822-39.0059 54.5156-41.0557 46.7061-41.0557C38.8965-41.0557 33.1299-39.0059 33.1299-36.1123C33.1299-33.2188 38.8965-31.1289 46.7061-31.1289ZM46.7061-34.1729C41.3818-34.1729 37.8564-35.0117 37.8564-36.1123C37.8564-37.2129 41.3818-37.9717 46.7061-37.9717C52.0303-37.9717 55.5557-37.2129 55.5557-36.1123C55.5557-35.0117 52.0303-34.1729 46.7061-34.1729ZM46.0215-21.8076L47.3506-21.8076C53.8369-21.8076 58.708-25.5156 59.8838-31.7852C57.1846-29.9209 52.4961-28.8467 46.7061-28.8467C40.916-28.8467 36.2275-29.9209 33.5283-31.8252C34.6729-25.5156 39.584-21.8076 46.0215-21.8076ZM46.7061-10.4316C49.8789-10.4316 54.2607-11.2529 56.2139-13.2148C56.6797-13.7783 56.7549-14.5059 56.542-15.2734L54.7568-21.1221C52.5732-20.0176 49.9727-19.4277 47.3594-19.4277L45.9727-19.4277C43.3994-19.4277 40.8389-20.0176 38.6553-21.082L36.8701-15.2734C36.6572-14.5059 36.6924-13.7783 37.1982-13.2148C39.1514-11.2529 43.5332-10.4316 46.7061-10.4316Z" />
</svg>