<svg xmlns="http://www.w3.org/2000/svg" viewBox="6.83594 -75.124 79.78 79.74">
  <path d="M46.7061 4.61621C68.7383 4.61621 86.6162-13.2217 86.6162-35.2539C86.6162-57.2861 68.7383-75.124 46.7061-75.124C24.7139-75.124 6.83594-57.2861 6.83594-35.2539C6.83594-13.2217 24.7139 4.61621 46.7061 4.61621ZM46.7061-4.01855C29.4434-4.01855 15.5107-17.9912 15.5107-35.2539C15.5107-52.5166 29.4434-66.4893 46.7061-66.4893C63.9688-66.4893 77.9414-52.5166 77.9414-35.2539C77.9414-17.9912 63.9688-4.01855 46.7061-4.01855ZM37.1885-13.1924L56.1436-13.1924C58.9473-13.1924 60.5312-14.6211 60.6465-17.4561L61.8672-46.1191L64.5195-46.1191C65.6191-46.1191 66.4707-46.9932 66.5107-48.084C66.5508-49.1748 65.6191-50.04 64.5195-50.04L56.0723-50.04L56.0723-52.6797C56.0723-56.0439 53.8398-58.1123 50.1973-58.1123L43.0547-58.1123C39.4209-58.1123 37.2197-56.0439 37.2197-52.6797L37.2197-50.04L28.7725-50.04C27.7217-50.04 26.8301-49.1748 26.8213-48.084C26.8125-46.9932 27.7217-46.1191 28.7725-46.1191L31.5137-46.1191L32.7256-17.4561C32.832-14.6211 34.3936-13.1924 37.1885-13.1924ZM40.2061-19.0303C39.3672-19.0303 38.7012-19.6162 38.6924-20.4238L38.1152-41.8389C38.1064-42.7041 38.6523-43.2988 39.6289-43.2988C40.4277-43.2988 41.0625-42.7129 41.0713-41.8564L41.6484-20.4326C41.6572-19.625 41.0938-19.0303 40.2061-19.0303ZM46.6348-19.0303C45.7383-19.0303 45.1523-19.6162 45.1523-20.4238L45.1523-41.874C45.1523-42.7217 45.7383-43.2988 46.6348-43.2988C47.5625-43.2988 48.1885-42.7217 48.1885-41.874L48.1885-20.4238C48.1885-19.6162 47.5625-19.0303 46.6348-19.0303ZM53.0947-19.0303C52.167-19.0303 51.6436-19.625 51.6523-20.4326L52.2295-41.8564C52.2383-42.7129 52.833-43.2988 53.7119-43.2988C54.6484-43.2988 55.1943-42.7041 55.1855-41.8389L54.5684-20.4238C54.5596-19.6162 53.9336-19.0303 53.0947-19.0303ZM41.7148-50.04L41.7236-52.5059C41.7324-53.4072 42.3672-53.9932 43.2861-53.9932L50.0146-53.9932C50.9424-53.9932 51.5684-53.4072 51.5771-52.5059L51.5859-50.04Z" />
</svg>