<svg xmlns="http://www.w3.org/2000/svg" viewBox="7.8125 -71.9883 81.23 73.66">
  <path d="M19.1104 1.66797L77.749 1.66797C84.668 1.66797 89.0381-3.33203 89.0381-9.63867C89.0381-11.5068 88.5098-13.4639 87.498-15.2344L58.1299-66.2949C55.9512-70.0488 52.2637-71.9883 48.4297-71.9883C44.5957-71.9883 40.8418-70.0312 38.7207-66.2949L9.35254-15.2256C8.30957-13.4238 7.8125-11.5068 7.8125-9.63867C7.8125-3.33203 12.1826 1.66797 19.1104 1.66797ZM19.8271-6.35059C17.6719-6.35059 16.2588-8.11035 16.2588-10.0166C16.2588-10.5811 16.3877-11.3008 16.6943-11.874L45.3457-61.9023C45.999-63.04 47.2432-63.5957 48.4297-63.5957C49.5762-63.5957 50.7715-63.0312 51.4648-61.8936L80.125-11.8164C80.4316-11.2432 80.5605-10.5723 80.5605-10.0166C80.5605-8.11035 79.1475-6.35059 76.9922-6.35059Z"/>
</svg>