<svg xmlns="http://www.w3.org/2000/svg" viewBox="9.76562 -92.2197 158.94 113.79">
  <path d="M37.207-75.3125C38.3164-74.2031 40.1182-74.2031 41.3076-75.3125C42.417-76.4531 42.417-78.2637 41.3076-79.373L37.1143-83.5264L33.0449-79.4258ZM51.1426-79.4873C52.709-79.4873 54.0537-80.832 54.0537-82.3984L54.0537-88.2041L48.2803-88.2041L48.2803-82.3984C48.2803-80.832 49.585-79.4873 51.1426-79.4873ZM60.9775-75.3125C62.127-74.2031 63.9688-74.2031 65.0781-75.3125L69.2002-79.4258L65.1309-83.5264L60.9775-79.373C59.8682-78.2637 59.8682-76.4531 60.9775-75.3125ZM51.1475-60.2305C53.8906-60.2666 55.7275-62.3564 55.6875-64.9795C55.4873-67.6426 53.4326-69.5684 50.8896-69.4883C50.3389-69.3994 49.4287-69.2617 48.7422-69.04L36.6367-65.8242C35.6875-65.5625 35.1953-64.8613 35.2441-64.1387C35.2754-63.3584 35.8076-62.7373 36.7969-62.5557L49.1602-60.4385C49.8955-60.2969 50.5791-60.2305 51.1475-60.2305ZM11.9521-59.0322L19.4316-63.9248C20.5098-64.666 20.541-65.8584 19.3828-66.5996L12.0322-71.4521C11.0479-72.1396 9.79688-71.5586 9.76562-70.2588L9.76562-60.2119C9.76562-58.9121 10.9766-58.3711 11.9521-59.0322ZM51.1426-92.2197C36.5225-92.2197 24.4229-80.0801 24.4229-65.4199C24.4229-58.8535 26.8789-52.7578 30.6885-48.377C31.3896-47.623 32.3164-47.0684 33.332-47.0684C35.1191-47.0684 36.5869-48.5273 36.5869-50.3457C36.5869-51.1309 36.334-51.8496 35.5967-52.5908C32.9053-55.6182 31.0039-60.3525 31.0039-65.4287C31.0039-76.7461 39.8564-85.6475 51.1426-85.6475C61.2666-85.6475 69.5342-78.418 70.9756-68.6084C72.7188-69.9258 74.6348-71.1943 76.7764-72.498C73.6934-83.748 63.2881-92.2197 51.1426-92.2197ZM52.5127 18.9121C53.6875 20.8848 56.1787 21.5674 58.0938 20.4814L166.105-41.8584C168.021-42.9443 168.703-45.4268 167.617-47.3506C166.434-49.3633 163.942-50.0059 162.036-48.9199L54.0244 13.4199C52.1094 14.5059 51.4268 16.9883 52.5127 18.9121ZM57.8789-2.55273L65.7168-7.07715L62.3965-12.7646L55.124-8.59375C53.6494-7.71875 52.1348-8.29199 51.0996-10.0068L47.9736-15.4551C45.9805-18.9355 47.1084-22.0039 51.915-25.8213L62.0088-33.9053L69.5996-48.0703C72.9775-54.4268 76.8027-58.1543 84.6826-62.7109L95.2119-68.7656C97.7188-70.2324 99.7588-69.8145 101.452-67.5566L107.402-59.4678L133.474-74.4873C134.957-75.3623 136.472-74.7891 137.507-73.0342L143.198-63.1875C144.193-61.4238 143.909-59.8291 142.426-58.9541L131.981-52.9619L135.302-47.2256L146.254-53.5938C150.891-56.2559 152.093-60.8701 149.373-65.6396L142.751-77.0596C140.005-81.873 135.241-83.1025 130.411-80.335L109.295-68.1475L106.837-71.4678C102.839-76.877 97.8877-77.9238 92.0703-74.5781L81.4111-68.4072C72.3379-63.1807 67.6758-58.6338 63.748-51.1689L56.9199-38.2939L47.9209-31.0654C40.165-24.8926 38.3867-18.9092 42.2773-12.1748L45.8906-5.9248C48.6455-1.09375 53.2334 0.109375 57.8789-2.55273ZM77.0674-13.6299L122.173-39.6777L118.901-45.374L73.7559-19.3262ZM74.8164-4.17578C80.248-7.2998 82.0762-14.0977 78.9121-19.5605C75.7881-25.0098 68.9902-26.8291 63.5586-23.6738C58.0869-20.5498 56.2588-13.752 59.4229-8.27148C62.5469-2.83984 69.3447-1.01172 74.8164-4.17578ZM71.6191-9.67871C69.2383-8.30176 66.3467-9.08789 64.9697-11.4688C63.5928-13.8408 64.3789-16.7324 66.7598-18.1094C69.1318-19.4775 72.0322-18.7002 73.4004-16.3193C74.7773-13.9473 73.9912-11.0469 71.6191-9.67871ZM131.473-36.8652C136.904-40.0205 138.732-46.8184 135.568-52.25C132.444-57.7305 125.646-59.5586 120.175-56.3945C114.734-53.2305 112.915-46.4727 116.079-40.9922C119.203-35.5605 126.001-33.7324 131.473-36.8652ZM128.275-42.3594C125.895-41.0312 123.003-41.8086 121.626-44.1494C120.249-46.5303 121.035-49.4619 123.416-50.8389C125.788-52.207 128.688-51.4297 130.057-49.0488C131.434-46.668 130.647-43.7363 128.275-42.3594Z"/>
</svg>