<svg xmlns="http://www.w3.org/2000/svg" viewBox="7.88477 -87.2236 132.46 103.59">
  <path d="M133.216 13.0801C135.684 13.0801 137.534 12.0146 138.781 10.3232C139.659 9.11621 140.343 7.3584 140.343 5.86328C140.343 4.38672 139.345 3.45508 137.819 3.45508C136.604 3.45508 135.655 4.29785 135.42 5.61914C135.042 7.54785 134.438 8.55957 133.092 8.55957C131.488 8.55957 130.319 6.41992 130.319 0.692383C130.319-4.69238 131.555-7.17578 133.092-7.17578C134.287-7.17578 135.087-6.05566 135.331-4.29297C135.553-2.72852 136.647-1.95996 137.908-1.95996C139.31-1.95996 140.179-2.95801 140.179-4.44824C140.179-5.99707 139.504-8.13184 137.978-9.66309C136.766-10.9463 134.99-11.6562 133.043-11.6562C129.512-11.6562 127.351-9.56152 126.21-6.96289C125.117-4.56055 124.873-1.83496 124.873 0.692383C124.873 3.75098 125.184 6.5791 126.396 8.93262C127.861 11.7979 130.155 13.0801 133.216 13.0801ZM91.2617 12.8672C92.9336 12.8672 93.9316 11.8604 93.9316 10.1797L93.9316 2.77637L98.9336 2.77637L98.9336 10.1797C98.9336 11.8691 99.9141 12.8672 101.595 12.8672C103.275 12.8672 104.305 11.8604 104.305 10.1797L104.305-8.75586C104.305-10.3789 103.275-11.4033 101.595-11.4033C99.9229-11.4033 98.9336-10.3789 98.9336-8.75586L98.9336-1.59277L93.9316-1.59277L93.9316-8.75586C93.9316-10.4404 92.8809-11.4033 91.2617-11.4033C89.6035-11.4033 88.6406-10.3701 88.6406-8.75586L88.6406 10.1797C88.6406 11.8691 89.6123 12.8672 91.2617 12.8672ZM109.88 12.8584L114.309 12.8584C120.713 12.8584 122.888 7.0166 122.888 0.603516C122.888-6.27246 120.441-11.4033 114.309-11.4033L109.88-11.4033C108.279-11.4033 107.152-10.5342 107.152-8.64453L107.152 10.0732C107.152 11.9629 108.288 12.8584 109.88 12.8584ZM112.435 8.48926L112.435-7.04297L113.661-7.04297C116.838-7.04297 117.508-3.08301 117.508 0.603516C117.508 4.41406 116.958 8.48926 113.661 8.48926ZM22.002 13.71C23.1768 15.7227 25.668 16.3652 27.583 15.2793L135.595-47.0205C137.51-48.1465 138.192-50.6289 137.106-52.5127C135.923-54.5254 133.432-55.208 131.525-54.082L23.5137 8.21777C21.5986 9.30371 20.916 11.8262 22.002 13.71ZM27.6572-7.19434L30.5938-8.86914C29.8262-9.67676 29.1562-10.5107 28.5928-11.4824C25.1006-17.4727 27.1904-25.1445 33.1719-28.5967C39.1621-32.0889 46.834-30.0078 50.2861-24.0264C50.8496-23.0547 51.2666-22.0254 51.5596-20.9961L87.25-41.5986C86.4824-42.3574 85.8125-43.1914 85.249-44.2031C81.7969-50.1533 83.8379-57.8652 89.8281-61.3174C95.8096-64.7695 103.49-62.7373 106.942-56.7471C107.506-55.7354 107.914-54.7461 108.216-53.6855L116.063-58.2354C120.709-60.8975 121.911-65.5518 119.143-70.2812L112.89-81.1807C110.095-85.9941 105.331-87.2236 100.501-84.4561L79.5537-72.3486L76.335-76.6299C72.3369-82.0391 67.3857-83.126 61.5684-79.7803L50.9004-73.6094C41.8359-68.3428 37.1738-63.8359 33.2373-56.3711L26.4092-43.4561L17.4102-36.2676C9.66309-30.0947 7.88477-24.0713 11.7266-17.3369L15.6602-10.5664C18.4639-5.73535 23.0518-4.53223 27.6572-7.19434ZM43.71-10.3379C47.8232-12.7207 49.2119-17.8984 46.8604-22.0117C44.4775-26.1338 39.2598-27.5137 35.1865-25.1709C31.0645-22.7793 29.6758-17.5703 32.0186-13.4883C34.4102-9.36621 39.6279-7.98633 43.71-10.3379ZM100.366-43.0586C104.479-45.4102 105.868-50.6592 103.517-54.7412C101.125-58.8232 95.916-60.2432 91.834-57.8604C87.7607-55.5088 86.332-50.251 88.6748-46.1689C91.0664-42.0869 96.2842-40.7158 100.366-43.0586Z" />
</svg>