<svg xmlns="http://www.w3.org/2000/svg" viewBox="6.83594 -78.5586 86.57 86.61">
  <path d="M50.1406 8.05078C73.8877 8.05078 93.4053-11.4668 93.4053-35.2539C93.4053-59.041 73.8877-78.5586 50.1406-78.5586C26.3535-78.5586 6.83594-59.041 6.83594-35.2539C6.83594-11.4668 26.3535 8.05078 50.1406 8.05078ZM50.1406-6.78125C34.3994-6.78125 21.668-19.5127 21.668-35.2539C21.668-50.9951 34.3994-63.7266 50.1406-63.7266C65.8418-63.7266 78.5732-50.9951 78.5732-35.2539C78.5732-19.5127 65.8418-6.78125 50.1406-6.78125ZM50.1406-16.9541C51.8262-16.9541 52.9863-17.9082 52.9863-19.8174L52.9863-46.6523L61.6152-46.6523C63.2031-46.6523 64.2139-47.6992 64.2139-49.1221C64.2139-50.6074 63.1719-51.5918 61.6152-51.5918L38.5859-51.5918C37.0693-51.5918 35.9785-50.5986 35.9785-49.1221C35.9785-47.6455 37.1094-46.6523 38.5859-46.6523L47.2148-46.6523L47.2148-19.8174C47.2148-17.9082 48.4463-16.9541 50.1406-16.9541ZM41.5449-30.8916C41.7715-30.8916 41.998-30.9404 42.2646-30.9893L59.0205-37.5098C59.6289-37.7764 59.9531-38.1982 59.9531-38.8467C59.9531-39.6953 59.3623-40.1436 58.7051-40.1436C58.4785-40.1436 58.252-40.0947 57.9854-40.0059L41.2295-33.4854C40.5811-33.2188 40.2568-32.7568 40.2568-32.1885C40.2568-31.4199 40.8076-30.8916 41.5449-30.8916ZM41.5449-23.5244C41.7715-23.5244 41.998-23.5732 42.2646-23.6621L59.0205-30.1738C59.6289-30.4404 59.9531-30.8623 59.9531-31.4707C59.9531-32.3594 59.3623-32.8076 58.7051-32.8076C58.4785-32.8076 58.252-32.7588 57.9854-32.6699L41.2295-26.1582C40.5811-25.8916 40.2568-25.4209 40.2568-24.8125C40.2568-24.084 40.8076-23.5244 41.5449-23.5244Z" />
</svg>