<svg xmlns="http://www.w3.org/2000/svg" viewBox="6.83594 -75.124 79.78 79.74">
  <path d="M46.7061 4.61621C68.7383 4.61621 86.6162-13.2617 86.6162-35.2539C86.6162-57.2461 68.7383-75.124 46.7061-75.124C24.7139-75.124 6.83594-57.2461 6.83594-35.2539C6.83594-13.2617 24.7139 4.61621 46.7061 4.61621ZM46.7109-16.4775C43.3135-16.4775 41.5498-17.873 40.2725-21.4326L30.3154-48.0791C30.0361-48.8945 29.9297-49.502 29.9297-50.2334C29.9297-52.6709 31.7295-54.3154 34.2422-54.3154C36.6621-54.3154 37.9033-53.1719 38.6621-50.5576L46.542-25.8232L46.8525-25.8232L54.7324-50.5576C55.5312-53.1807 56.7637-54.3154 59.1436-54.3154C61.7051-54.3154 63.4824-52.6797 63.4824-50.2686C63.4824-49.5371 63.376-48.9121 63.0879-48.0791L53.1797-21.5742C51.9248-18.0596 50.0059-16.4775 46.7109-16.4775Z"/>
</svg>