<svg xmlns="http://www.w3.org/2000/svg" viewBox="9.76562 -80.4414 53.04 90.37">
  <path d="M36.3125 9.93359C51.8848 9.93359 62.8105-0.552734 62.8105-15.4502L62.8105-55.0576C62.8105-69.9551 51.8848-80.4414 36.3125-80.4414C20.7314-80.4414 9.76562-69.9551 9.76562-55.0576L9.76562-15.4502C9.76562-0.552734 20.7314 9.93359 36.3125 9.93359ZM36.3125-38.5391C27.8652-38.5391 21.2334-45.1797 21.2334-53.627C21.2334-62.0254 27.8652-68.7061 36.3125-68.7061C44.751-68.7061 51.3428-62.0254 51.3428-53.627C51.3428-45.1797 44.751-38.5391 36.3125-38.5391ZM36.3125-1.80176C27.8652-1.80176 21.2334-8.48242 21.2334-16.9209C21.2334-25.3682 27.8652-32.0088 36.3125-32.0088C44.751-32.0088 51.3428-25.3682 51.3428-16.9209C51.3428-8.48242 44.751-1.80176 36.3125-1.80176ZM36.3125-48.2012C39.3096-48.2012 41.6406-50.5723 41.6406-53.627C41.6406-56.6641 39.3096-58.9951 36.3125-58.9951C33.3066-58.9951 30.9355-56.6641 30.9355-53.627C30.9355-50.5723 33.3066-48.2012 36.3125-48.2012ZM36.3125-8.10547C41.2109-8.10547 45.0967-11.9336 45.0967-16.9209C45.0967-21.8682 41.2109-25.7539 36.3125-25.7539C31.3652-25.7539 27.5195-21.8682 27.5195-16.9209C27.5195-11.9336 31.3652-8.10547 36.3125-8.10547Z"/>
</svg>