<svg xmlns="http://www.w3.org/2000/svg" viewBox="6.83594 -75.0752 79.78 79.74">
  <path d="M46.7061 4.66504C68.7383 4.66504 86.6162-13.2129 86.6162-35.2051C86.6162-57.1973 68.7383-75.0752 46.7061-75.0752C24.7139-75.0752 6.83594-57.1973 6.83594-35.2051C6.83594-13.2129 24.7139 4.66504 46.7061 4.66504ZM25.6982-41.4688C24.2559-41.0293 23.0312-41.7305 22.7031-43.0127C22.2637-44.1973 22.9111-45.4619 24.3535-45.8613C27.9268-46.8691 31.8291-47.5664 35.6562-47.5664C39.9004-47.5664 43.1592-46.8604 46.8574-46.8604C48.7051-46.8604 49.7578-47.8643 49.7578-49.5654C49.7578-51.3779 48.625-52.3018 47.1328-52.3018C46.0176-52.3018 45.1338-51.6709 44.6631-50.8047C43.9219-49.4111 42.502-49.0742 41.3975-49.7041C40.1768-50.334 40.0127-51.7588 40.6162-52.8457C41.7656-55.1582 44.2959-56.8408 47.1328-56.8408C51.083-56.8408 54.3682-53.8359 54.3682-49.5654C54.3682-45.4775 51.3857-42.3301 46.8574-42.3301C42.8975-42.3301 39.7275-42.9473 35.6562-42.9473C32.3799-42.9473 29.0635-42.4766 25.6982-41.4688ZM61.6807-30.1494C53.7031-30.1494 46.9287-34.2207 37.7959-34.2207C33.3604-34.2207 29.4893-33.6035 25.7734-32.2627C24.2734-31.7168 23.04-32.498 22.7031-33.749C22.2637-34.9248 22.9512-36.1406 24.2959-36.6377C28.5264-38.0273 33.0811-38.8311 37.7959-38.8311C47.1279-38.8311 54.7812-34.7998 61.6807-34.7998C64.998-34.7998 67.0586-36.4385 67.0586-39.1963C67.0586-41.8389 65.1709-43.5264 62.6885-43.5264C60.7295-43.5264 59.0908-42.3359 58.6738-40.3545C58.3594-38.8232 57.082-38.0508 55.835-38.3252C54.6592-38.5908 53.8418-39.7529 54.1875-41.2178C54.9053-45.1787 58.3545-48.1367 62.6885-48.1367C67.6201-48.1367 71.6289-44.377 71.6289-39.1963C71.6289-33.9492 67.416-30.1494 61.6807-30.1494ZM46.8574-13.5781C43.0156-13.5781 40.4141-16.2969 39.834-19.6191C39.5332-20.9014 40.0615-22.3037 41.6289-22.5068C43.0361-22.75 44.0781-21.79 44.3701-20.5967C44.6895-18.9883 45.4268-18.1172 46.8574-18.1172C48.2832-18.1172 49.3584-18.9922 49.3584-20.7646C49.3584-23.6113 45.3232-25.4766 37.1748-25.4766C33.1523-25.4766 29.3076-24.7705 25.7734-23.5273C24.2734-22.9814 23.04-23.8115 22.7031-25.0537C22.2637-26.1807 22.9512-27.4453 24.2959-27.9023C28.3135-29.2744 33.0283-30.0557 37.1748-30.0557C47.9717-30.0557 53.9463-26.7441 53.9463-20.7646C53.9463-16.543 50.8301-13.5781 46.8574-13.5781Z"/>
</svg>