<svg xmlns="http://www.w3.org/2000/svg" viewBox="9.76562 -74.0703 81.1 77.67">
  <path d="M38.2256 3.60254L62.3643 3.60254C66.9922 3.60254 69.7852 2.06348 72.3447-0.761719L87.3945-17.6611C90.1543-20.7666 90.8643-22.7588 90.8643-26.8535L90.8643-43.6143C90.8643-47.709 90.0225-49.5957 87.2188-52.8066L72.3447-69.7061C69.8115-72.5488 66.9922-74.0703 62.3643-74.0703L38.2256-74.0703C33.6377-74.0703 30.8047-72.5312 28.2852-69.7061L13.1953-52.8066C10.4756-49.7012 9.76562-47.709 9.76562-43.6143L9.76562-26.8535C9.76562-22.7588 10.4756-20.7666 13.1953-17.6611L28.2852-0.761719C30.8047 2.06348 33.6377 3.60254 38.2256 3.60254ZM40.3994-4.62402C37.1357-4.62402 35.9736-5.35156 34.1484-7.34082L20.8076-22.1816C19.3428-23.8506 18.9922-24.875 18.9922-27.6357L18.9922-42.832C18.9922-45.5928 19.3428-46.6172 20.8076-48.2861L34.1484-63.127C35.9736-65.1162 37.1357-65.8438 40.3994-65.8438L60.1904-65.8438C63.4941-65.8438 64.6562-65.1162 66.4814-63.127L79.7822-48.2861C81.2871-46.6172 81.6377-45.5928 81.6377-42.832L81.6377-27.6357C81.6377-24.875 81.2871-23.8506 79.7822-22.1816L66.4814-7.34082C64.6562-5.35156 63.4941-4.62402 60.1904-4.62402ZM40.6416-20.1279L65.4297-44.916C66.1348-45.6211 66.5605-46.5391 66.5605-47.5371C66.5605-49.6924 64.8662-51.3467 62.7197-51.3467C61.6602-51.3467 60.791-50.9785 60.0771-50.2246L35.249-25.5166C34.5039-24.7715 34.1182-23.8936 34.1182-22.8555C34.1182-20.7002 35.8125-19.0059 37.9189-19.0059C39.0186-19.0059 39.9678-19.4141 40.6416-20.1279ZM59.9971-20.1279C60.7109-19.4141 61.6201-19.0059 62.7197-19.0059C64.8662-19.0059 66.5605-20.7002 66.5605-22.8555C66.5605-23.8936 66.1348-24.7715 65.4297-25.5166L40.5615-50.2246C39.8877-50.9785 38.9785-51.3467 37.9189-51.3467C35.8125-51.3467 34.1182-49.6924 34.1182-47.5371C34.1182-46.5391 34.5039-45.6211 35.249-44.916Z" />
</svg>