<svg xmlns="http://www.w3.org/2000/svg" viewBox="11.2588 -97.925 125.34 125.31">
  <path d="M73.9141 27.3856C108.426 27.3856 136.603-0.791611 136.603-35.2697C136.603-69.7478 108.426-97.925 73.9141-97.925C39.436-97.925 11.2588-69.7478 11.2588-35.2697C11.2588-0.791611 39.436 27.3856 73.9141 27.3856ZM73.9141-5.55496C61.3157-5.55496 52.761-17.5396 52.761-35.2697C52.761-52.9998 61.3157-64.9844 73.9141-64.9844C86.5124-64.9844 95.0671-52.9998 95.0671-35.2697C95.0671-17.5396 86.5124-5.55496 73.9141-5.55496ZM73.9141-11.3052C82.5747-11.3052 88.4489-20.959 88.4489-35.2697C88.4489-49.5804 82.5747-59.2342 73.9141-59.2342C65.2871-59.2342 59.4129-49.5804 59.4129-35.2697C59.4129-20.959 65.2871-11.3052 73.9141-11.3052Z"/>
</svg>