<svg xmlns="http://www.w3.org/2000/svg" viewBox="11.2588 -97.925 125.34 125.31">
  <path d="M73.9141 27.3856C108.519 27.3856 136.603-0.66445 136.603-35.2697C136.603-69.875 108.519-97.925 73.9141-97.925C39.3425-97.925 11.2588-69.875 11.2588-35.2697C11.2588-0.66445 39.3425 27.3856 73.9141 27.3856ZM73.9141 20.4903C43.0726 20.4903 18.141-4.42824 18.141-35.2697C18.141-66.1112 43.0726-91.0297 73.9141-91.0297C104.756-91.0297 129.674-66.1112 129.674-35.2697C129.674-4.42824 104.756 20.4903 73.9141 20.4903ZM73.8804-5.97971C86.2767-5.97971 94.6967-17.7959 94.6967-35.2697C94.6967-52.7435 86.2767-64.5597 73.8804-64.5597C61.5178-64.5597 53.0978-52.7435 53.0978-35.2697C53.0978-17.7959 61.5178-5.97971 73.8804-5.97971ZM73.8804-11.6083C65.3544-11.6083 59.5813-21.1274 59.5813-35.2697C59.5813-49.412 65.3544-58.9311 73.8804-58.9311C82.44-58.9311 88.2131-49.412 88.2131-35.2697C88.2131-21.1274 82.44-11.6083 73.8804-11.6083Z" />
</svg>