<svg xmlns="http://www.w3.org/2000/svg" viewBox="16.084 -91.8055 113.1 113.14">
  <path d="M34.067 21.3335L111.206 21.3335C123.088 21.3335 129.189 15.1391 129.189 3.45147L129.189-73.9235C129.189-85.6111 123.088-91.8055 111.206-91.8055L34.067-91.8055C22.2185-91.8055 16.084-85.7046 16.084-73.9235L16.084 3.45147C16.084 15.2326 22.2185 21.3335 34.067 21.3335ZM34.2278 14.674C26.7082 14.674 22.7098 10.743 22.7098 3.12224L22.7098-73.5943C22.7098-81.2487 26.7082-85.146 34.2278-85.146L111.045-85.146C118.378-85.146 122.563-81.2487 122.563-73.5943L122.563 3.12224C122.563 10.743 118.378 14.674 111.045 14.674ZM53.0551-8.64316C65.0809-8.64316 68.1801-23.5972 68.1801-35.2697C68.1801-46.9422 65.0809-61.8962 53.0551-61.8962C41.1097-61.8962 37.9768-46.9422 37.9768-35.2697C37.9768-23.5972 41.1097-8.64316 53.0551-8.64316ZM53.0551-14.0621C46.1416-14.0621 44.4246-25.4262 44.4246-35.2697C44.4246-45.1132 46.1416-56.4773 53.0551-56.4773C60.049-56.4773 61.7192-45.1132 61.7192-35.2697C61.7192-25.4262 60.049-14.0621 53.0551-14.0621ZM90.0846-8.804C98.4784-8.804 104.735-14.5269 104.735-23.7697C104.735-31.017 100.777-35.5838 94.8224-36.1468L94.8224-36.3413C100.532-37.8225 103.253-42.9955 103.253-48.35C103.253-56.482 97.6798-61.6681 89.8433-61.6681C83.5163-61.6681 78.7935-58.0024 77.0374-52.4198C76.6689-51.1537 76.5548-50.0278 76.5548-49.1487C76.5548-47.598 77.5556-46.4495 79.2616-46.4495C80.973-46.4495 81.6727-47.2406 82.0824-48.8717C82.9876-53.158 85.4449-56.3969 89.8433-56.3969C94.7655-56.3969 97.2489-52.5333 97.2489-47.6448C97.2489-42.4608 94.1558-38.5167 88.8577-38.5167L86.6361-38.5167C85.005-38.5167 84.1315-37.4431 84.1315-35.999C84.1315-34.5549 85.1453-33.5954 86.6361-33.5954L88.9381-33.5954C94.9861-33.5954 98.4683-30.2198 98.4683-23.8446C98.4683-18.6681 95.7828-14.1556 90.1313-14.1556C84.8407-14.1556 82.0899-18.0117 81.3792-21.7069C81.0163-23.3173 80.1558-24.1497 78.5453-24.1497C76.8524-24.1497 75.7039-23.0685 75.7039-21.2821C75.7039-20.3432 75.9115-19.0304 76.2332-18.0317C77.9893-12.3947 83.4695-8.804 90.0846-8.804Z" />
</svg>