<svg xmlns="http://www.w3.org/2000/svg" viewBox="11.2588 -97.925 125.34 125.31">
  <path d="M73.9141 27.3856C108.519 27.3856 136.603-0.66445 136.603-35.2697C136.603-69.875 108.519-97.925 73.9141-97.925C39.3425-97.925 11.2588-69.875 11.2588-35.2697C11.2588-0.66445 39.3425 27.3856 73.9141 27.3856ZM73.9141 20.4903C43.0726 20.4903 18.141-4.42824 18.141-35.2697C18.141-66.1112 43.0726-91.0297 73.9141-91.0297C104.756-91.0297 129.674-66.1112 129.674-35.2697C129.674-4.42824 104.756 20.4903 73.9141 20.4903ZM54.6223-8.64316C66.5677-8.64316 69.7006-23.5972 69.7006-35.2697C69.7006-46.9422 66.5677-61.8962 54.6223-61.8962C42.6301-61.8962 39.4972-46.9422 39.4972-35.2697C39.4972-23.5972 42.6301-8.64316 54.6223-8.64316ZM54.6223-14.0621C47.6284-14.0621 45.9581-25.4262 45.9581-35.2697C45.9581-45.1132 47.6284-56.4773 54.6223-56.4773C61.5694-56.4773 63.2527-45.1132 63.2527-35.2697C63.2527-25.4262 61.5694-14.0621 54.6223-14.0621ZM99.4263-9.07894C101.065-9.07894 102.395-10.3134 102.395-12.2757L102.395-20.9488L105.694-20.9488C107.446-20.9488 108.312-22.017 108.312-23.6013C108.312-25.1052 107.42-26.2069 105.694-26.2069L102.395-26.2069L102.395-56.6849C102.395-60.0611 100.274-61.5333 97.5857-61.5333C94.4693-61.5333 92.9785-59.8349 91.6561-57.0347L78.0436-29.08C77.258-27.3273 76.9831-26.1657 76.9831-24.7422C76.9831-22.4864 78.5206-20.9488 80.8363-20.9488L96.3437-20.9488L96.3437-12.2757C96.3437-10.0852 97.8757-9.07894 99.4263-9.07894ZM96.4447-26.1059L82.5965-26.1059L82.5965-26.4015L96.2034-55.3122L96.4447-55.3122Z" />
</svg>