<svg xmlns="http://www.w3.org/2000/svg" viewBox="16.084 -91.8055 113.1 113.14">
  <path d="M34.067 21.3335L111.206 21.3335C123.088 21.3335 129.189 15.1391 129.189 3.45147L129.189-73.9235C129.189-85.6111 123.088-91.8055 111.206-91.8055L34.067-91.8055C22.2185-91.8055 16.084-85.7046 16.084-73.9235L16.084 3.45147C16.084 15.2326 22.2185 21.3335 34.067 21.3335ZM53.3878-8.23902C41.1936-8.23902 38.0737-23.3614 38.0737-35.2697C38.0737-47.178 41.1936-62.3004 53.3878-62.3004C65.569-62.3004 68.7692-47.178 68.7692-35.2697C68.7692-23.3614 65.569-8.23902 53.3878-8.23902ZM53.3878-13.759C60.4023-13.759 62.153-25.2242 62.153-35.2697C62.153-45.3152 60.4023-56.7804 53.3878-56.7804C46.3733-56.7804 44.6563-45.3152 44.6563-35.2697C44.6563-25.2242 46.3733-13.759 53.3878-13.759ZM88.734-27.2538C80.2823-27.2538 76.1136-35.524 76.1136-44.1496C76.1136-53.9161 81.27-62.233 90.455-62.233C102.504-62.233 106.138-48.0565 106.138-36.0925C106.138-23.6831 102.75-8.31944 90.3279-8.31944C84.3074-8.31944 79.3379-11.7569 77.8305-17.4667C77.5425-18.284 77.3817-19.1816 77.3817-19.7989C77.3817-21.3832 78.201-22.6795 80.1688-22.6795C81.4988-22.6795 82.4322-22.0286 83.1505-20.1975C84.4166-16.4294 86.7-13.8188 90.3822-13.8188C98.8201-13.8188 99.9179-28.1536 99.9179-36.1709C99.9179-36.5187 99.9179-36.8067 99.9179-37.1414L99.6766-37.1414C98.3823-31.3457 94.4548-27.2538 88.734-27.2538ZM90.5224-32.4913C95.9401-32.4913 98.8648-38.5187 98.8648-44.3853C98.8648-50.0574 96.1944-56.7804 90.5224-56.7804C85.0318-56.7804 82.3669-50.1509 82.3669-44.3853C82.3669-38.7133 84.8971-32.4913 90.5224-32.4913Z"/>
</svg>