<svg xmlns="http://www.w3.org/2000/svg" viewBox="16.084 -91.712 124.37 113.14">
  <path d="M34.067 21.4269L122.47 21.4269C134.399 21.4269 140.453 15.2326 140.453 3.54496L140.453-73.83C140.453-85.5176 134.399-91.712 122.47-91.712L34.067-91.712C22.2185-91.712 16.084-85.6111 16.084-73.83L16.084 3.54496C16.084 15.3261 22.2185 21.4269 34.067 21.4269ZM33.689 14.7674C26.5061 14.7674 22.7098 11.0385 22.7098 3.75457L22.7098-52.9819C22.7098-60.2658 26.5061-64.0415 33.689-64.0415L122.814-64.0415C129.81-64.0415 133.874-60.2658 133.874-52.9819L133.874 3.75457C133.874 11.0385 129.81 14.7674 122.814 14.7674ZM62.1626 1.50977C63.8685 1.50977 65.3126 0.0189491 65.3126-1.75436L65.3126-47.1774C65.3126-49.3679 63.9022-50.7577 61.6986-50.7577C59.8449-50.7577 58.3204-49.7232 57.2729-48.8909L49.2631-42.4091C48.4775-41.8049 47.8995-40.965 47.8995-39.8632C47.8995-38.4398 48.8666-37.3792 50.3031-37.3792C51.055-37.3792 51.4647-37.6074 51.908-37.9834L58.8984-43.6479L58.8984-1.75436C58.8984 0.0189491 60.3893 1.50977 62.1626 1.50977ZM89.5251 2.01291C98.7362 2.01291 103.711-6.37689 103.711-15.7489C103.711-24.294 99.5762-32.4893 91.4537-32.4893C87.9077-32.4893 84.2366-30.8135 82.4412-26.7609L82.213-26.7609L83.5052-44.6878L99.0091-44.6878C100.627-44.6878 101.641-45.8027 101.641-47.4207C101.641-48.9582 100.547-50.0731 99.0091-50.0731L82.0124-50.0731C79.4218-50.0731 78.2939-48.442 78.0994-45.9449L76.8408-26.9348C76.7604-25.923 76.7136-24.8047 76.7136-24.1201C76.7136-22.3076 77.7069-20.8766 79.7084-20.8766C81.1841-20.8766 81.9023-21.6134 82.8694-23.0293C84.4235-25.6736 86.5385-27.5212 89.6653-27.5212C95.0961-27.5212 97.5122-21.0786 97.5122-15.6011C97.5122-9.53999 95.0157-3.33867 89.4914-3.33867C85.2126-3.33867 82.4955-6.77204 81.4762-10.9237C80.9992-12.6407 79.9517-13.3459 78.7096-13.3459C77.071-13.3459 76.0235-12.2179 76.0235-10.5326C76.0235-9.57859 76.3322-8.37781 76.6614-7.47809C78.5131-1.91808 83.5087 2.01291 89.5251 2.01291Z"/>
</svg>