<svg xmlns="http://www.w3.org/2000/svg" viewBox="11.2588 -97.925 125.34 125.31">
  <path d="M73.9141 27.3856C108.519 27.3856 136.603-0.66445 136.603-35.2697C136.603-69.875 108.519-97.925 73.9141-97.925C39.3425-97.925 11.2588-69.875 11.2588-35.2697C11.2588-0.66445 39.3425 27.3856 73.9141 27.3856ZM73.9141 20.4903C43.0726 20.4903 18.141-4.42824 18.141-35.2697C18.141-66.1112 43.0726-91.0297 73.9141-91.0297C104.756-91.0297 129.674-66.1112 129.674-35.2697C129.674-4.42824 104.756 20.4903 73.9141 20.4903ZM55.634-8.804C63.9812-8.804 70.2841-14.5269 70.2841-23.7697C70.2841-31.017 66.2797-35.5838 60.3719-36.1468L60.3719-36.3413C66.0817-37.8225 68.8029-42.9955 68.8029-48.35C68.8029-56.482 63.1488-61.6681 55.3928-61.6681C49.0321-61.6681 44.2963-58.0024 42.5401-52.4198C42.1717-51.1537 42.0576-50.0278 42.0576-49.1487C42.0576-47.598 43.0247-46.4495 44.811-46.4495C46.4421-46.4495 47.1885-47.2406 47.6318-48.8717C48.5371-53.158 50.914-56.3969 55.3928-56.3969C60.2345-56.3969 62.7516-52.5333 62.7516-47.6448C62.7516-42.4608 59.6248-38.5167 54.3735-38.5167L52.1388-38.5167C50.5078-38.5167 49.6809-37.4431 49.6809-35.999C49.6809-34.5549 50.6948-33.5954 52.1388-33.5954L54.4539-33.5954C60.4552-33.5954 63.9373-30.2198 63.9373-23.8446C63.9373-18.6681 61.2518-14.1556 55.6808-14.1556C50.3435-14.1556 47.6394-18.0117 46.9287-21.7069C46.5321-23.3173 45.6585-24.1497 44.0481-24.1497C42.3552-24.1497 41.2066-23.0685 41.2066-21.2821C41.2066-20.3432 41.4142-19.0304 41.7359-18.0317C43.4921-12.3947 48.9853-8.804 55.634-8.804ZM91.7266-8.64316C100.985-8.64316 105.913-17.033 105.913-26.4049C105.913-34.9501 101.778-43.1453 93.6553-43.1453C90.156-43.1453 86.4381-41.4696 84.6427-37.4169L84.4145-37.4169L85.7535-55.2971L101.257-55.2971C102.875-55.2971 103.842-56.4587 103.842-58.0767C103.842-59.5675 102.795-60.7291 101.257-60.7291L84.1802-60.7291C81.6701-60.7291 80.5422-59.0513 80.3476-56.601L79.0891-37.5909C79.0087-36.5791 78.9619-35.4607 78.9619-34.7762C78.9619-32.9637 79.9215-31.5326 81.9566-31.5326C83.4324-31.5326 84.1506-32.2695 85.071-33.6387C86.6718-36.3297 88.7868-38.1773 91.8669-38.1773C97.3444-38.1773 99.7137-31.688 99.7137-26.2572C99.7137-20.1493 97.264-13.9947 91.6593-13.9947C87.4609-13.9947 84.697-17.3814 83.6777-21.5797C83.2007-23.2967 82.1999-23.9552 80.9579-23.9552C79.2726-23.9552 78.2718-22.874 78.2718-21.1887C78.2718-20.1879 78.5804-19.0339 78.9097-18.1342C80.7146-12.5274 85.757-8.64316 91.7266-8.64316Z" />
</svg>