<svg xmlns="http://www.w3.org/2000/svg" viewBox="16.084 -91.8055 113.1 113.14">
  <path d="M34.067 21.3335L111.206 21.3335C123.088 21.3335 129.189 15.1391 129.189 3.45147L129.189-73.9235C129.189-85.6111 123.088-91.8055 111.206-91.8055L34.067-91.8055C22.2185-91.8055 16.084-85.7046 16.084-73.9235L16.084 3.45147C16.084 15.2326 22.2185 21.3335 34.067 21.3335ZM53.3335-8.39986C46.6174-8.39986 41.0362-12.0373 39.2464-17.7623C38.9247-18.7946 38.7171-20.0738 38.7171-21.0801C38.7171-22.8665 39.8526-24.028 41.5922-24.028C43.2569-24.028 44.1305-23.1489 44.5271-21.4712C45.2378-17.7759 47.9756-13.8525 53.3803-13.8525C59.0523-13.8525 61.7846-18.466 61.7846-23.6762C61.7846-30.1655 58.2557-33.528 52.1533-33.528L49.8383-33.528C48.3605-33.528 47.2794-34.5212 47.2794-35.999C47.2794-37.4768 48.1866-38.5841 49.8383-38.5841L52.0729-38.5841C57.3917-38.5841 60.5989-42.5955 60.5989-47.8469C60.5989-52.8027 58.0013-56.7 53.0922-56.7C48.5797-56.7 46.1692-53.347 45.2639-49.0401C44.8206-47.3754 44.0873-46.5842 42.3758-46.5842C40.5221-46.5842 39.568-47.8001 39.568-49.3844C39.568-50.2635 39.7158-51.3894 40.0842-52.6892C41.8404-58.3392 46.6642-62.0722 53.0922-62.0722C61.0167-62.0722 66.7718-56.8524 66.7718-48.5521C66.7718-43.1302 63.9832-37.8562 58.1724-36.3413L58.1724-36.1468C64.1812-35.5838 68.253-30.9497 68.253-23.5676C68.253-14.2238 61.849-8.39986 53.3335-8.39986ZM91.1919-8.23902C79.1434-8.23902 75.5094-22.3688 75.5094-34.3665C75.5094-46.5085 78.8629-62.1863 91.319-62.1863C97.3395-62.1863 102.262-58.6684 103.723-53.1456C103.977-52.2348 104.104-51.3839 104.104-50.7667C104.104-49.1823 103.225-48.0132 101.465-48.0132C99.8209-48.0132 99.0745-48.8978 98.4497-50.4148C97.2303-53.9959 94.9132-56.7337 91.1713-56.7337C82.8268-56.7337 81.729-42.2717 81.729-34.2544C81.729-33.9066 81.729-33.6186 81.729-33.3176L81.9703-33.3176C83.2646-39.0796 87.1584-43.2182 92.8662-43.2182C101.365-43.2182 105.533-34.9013 105.533-26.229C105.533-16.5092 100.47-8.23902 91.1919-8.23902ZM91.1245-13.6916C96.6151-13.6916 99.2126-20.3418 99.2126-25.9465C99.28-31.6784 96.7162-38.0144 91.0778-38.0144C85.7068-38.0144 82.782-31.9066 82.782-26.3617C82.782-20.5906 85.4057-13.6916 91.1245-13.6916Z"/>
</svg>