<svg xmlns="http://www.w3.org/2000/svg" viewBox="16.084 -89.4574 177.65 108.42">
  <path d="M50.9825-27.5694C55.1945-27.5694 58.6491-30.9903 58.6491-35.236C58.6491-39.4817 55.1945-42.9026 50.9825-42.9026C46.7835-42.9026 43.3159-39.4817 43.3159-35.236C43.3159-30.9903 46.7835-27.5694 50.9825-27.5694ZM23.7506-27.5694C27.9963-27.5694 31.4172-30.9903 31.4172-35.236C31.4172-39.4817 27.9963-42.9026 23.7506-42.9026C19.5516-42.9026 16.084-39.4817 16.084-35.236C16.084-30.9903 19.5516-27.5694 23.7506-27.5694ZM193.736-35.2697C193.736-41.4641 185.202-45.9958 175.026-45.9958L152.8-45.9958C149.817-45.9958 148.751-46.5456 146.881-48.4963L111.196-87.5534C110.083-88.7803 108.695-89.4574 107.113-89.4574L100.918-89.4574C99.5643-89.4574 98.7731-88.2305 99.4502-86.7623L117.826-45.9958L89.342-43.0257L79.682-60.6905C78.9245-61.9511 77.965-62.501 76.2219-62.501L73.7625-62.501C72.3748-62.501 71.5163-61.6893 71.5163-60.2548L71.5163-10.2042C71.5163-8.76973 72.3748-7.99165 73.7625-7.99165L76.2219-7.99165C77.965-7.99165 78.9245-8.58827 79.682-9.84886L89.342-27.4669L117.826-24.4632L99.4502 16.2229C98.7731 17.6911 99.5643 18.9647 100.918 18.9647L107.113 18.9647C108.695 18.9647 110.083 18.2877 111.196 17.014L146.881-22.0094C148.751-23.9938 149.817-24.4632 152.8-24.4632L175.026-24.4632C185.202-24.4632 193.736-29.0286 193.736-35.2697Z"/>
</svg>