<svg xmlns="http://www.w3.org/2000/svg" viewBox="16.084 -88.8912 88.52 112.43">
  <path d="M83.5169-74.2211L43.6265-74.2211C25.6752-74.2211 16.084-64.643 16.084-46.7982L16.084 20.0578C16.084 22.0201 17.6366 23.5391 19.5653 23.5391C21.4472 23.5391 22.9998 22.0201 22.9998 20.0578L22.9998-46.8655C22.9998-60.4077 29.9104-67.2585 43.6265-67.2585L83.5169-67.2585C85.4792-67.2585 86.9982-68.8242 86.9982-70.7398C86.9982-72.6217 85.4792-74.2211 83.5169-74.2211ZM78.0593-84.6414L78.0593-56.7708C78.0593-53.561 80.3021-52.5547 82.9731-54.4607L102.325-68.0276C104.573-69.5445 104.607-71.8004 102.325-73.3977L83.0068-86.9179C80.3021-88.8912 78.0593-87.8849 78.0593-84.6414Z" />
</svg>