<svg xmlns="http://www.w3.org/2000/svg" viewBox="15.5341 -104.991 121.4 139.15">
  <path d="M122.379-54.1431L122.379 30.812C122.379 32.6733 123.83 34.1586 125.725 34.1586C127.633 34.1586 129.038 32.6733 129.038 30.812L129.038-54.1431C129.038-56.0044 127.633-57.4093 125.725-57.4093C123.83-57.4093 122.379-56.0044 122.379-54.1431ZM89.4063-54.1431L89.4063 30.812C89.4063 32.6733 90.858 34.1586 92.7529 34.1586C94.661 34.1586 96.0658 32.6733 96.0658 30.812L96.0658-54.1431C96.0658-56.0044 94.661-57.4093 92.7529-57.4093C90.858-57.4093 89.4063-56.0044 89.4063-54.1431ZM56.4342-54.1431L56.4342 30.812C56.4342 32.6733 57.8858 34.1586 59.7808 34.1586C61.6888 34.1586 63.0937 32.6733 63.0937 30.812L63.0937-54.1431C63.0937-56.0044 61.6888-57.4093 59.7808-57.4093C57.8858-57.4093 56.4342-56.0044 56.4342-54.1431ZM23.462-54.1431L23.462-9.39798C23.462-7.5367 24.9136-6.0514 26.8086-6.0514C28.7166-6.0514 30.1215-7.5367 30.1215-9.39798L30.1215-54.1431C30.1215-56.0044 28.7166-57.4093 26.8086-57.4093C24.9136-57.4093 23.462-56.0044 23.462-54.1431ZM38.921-76.6694L38.921-100.521C38.921-103.77 35.5991-104.991 32.9074-102.938L17.5597-91.4391C15.5341-89.9167 15.5809-87.1467 17.5597-85.6709L32.9074-74.1387C35.5317-72.1522 38.921-73.2726 38.921-76.6694ZM113.579-100.521L113.579-76.6694C113.579-73.34 116.948-72.0849 119.593-74.1387L134.94-85.6709C136.919-87.1467 136.932-89.9503 134.94-91.4391L119.593-102.938C116.948-104.991 113.579-103.77 113.579-100.521ZM120.644-85.9157C122.067-85.9157 123.262-87.0979 123.262-88.555C123.262-89.9785 122.067-91.127 120.644-91.127L31.8565-91.127C30.3993-91.127 29.2508-89.9785 29.2508-88.555C29.2508-87.0979 30.3993-85.9157 31.8565-85.9157Z" />
</svg>