<svg xmlns="http://www.w3.org/2000/svg" viewBox="16.084 -95.2601 75.45 120.07">
  <path d="M53.807-95.2601C52.8324-95.2601 51.9382-94.8635 51.1787-94.0703L17.2064-59.9145C16.5142-59.2224 16.084-58.2271 16.084-57.3199C16.084-55.1892 17.5693-53.7712 19.6196-53.7712C20.6279-53.7712 21.4809-54.1004 22.0926-54.7458L38.9479-71.8032L53.807-88.0225L68.6998-71.8032L85.5682-54.7458C86.1332-54.1004 86.9862-53.7712 88.0412-53.7712C90.0448-53.7712 91.5301-55.1892 91.5301-57.3199C91.5301-58.2271 91.1802-59.2224 90.4544-59.9145L56.4354-94.0703C55.6759-94.8635 54.8284-95.2601 53.807-95.2601ZM53.807 21.0228C55.5412 21.0228 56.9124 19.6516 56.946 17.9305L57.3763-0.0440816L57.3763-70.4018L56.946-88.3297C56.9124-90.0975 55.5412-91.4687 53.807-91.4687C52.1197-91.4687 50.7017-90.0975 50.668-88.3297L50.2845-70.4018L50.2845-0.0440816L50.668 17.9305C50.7017 19.6516 52.1197 21.0228 53.807 21.0228ZM53.807 24.8142C54.8284 24.8142 55.6759 24.4176 56.4354 23.6244L90.4544-10.5314C91.1802-11.2236 91.5301-12.172 91.5301-13.0924C91.5301-15.2231 90.0448-16.6747 88.0412-16.6747C86.9862-16.6747 86.1332-16.3118 85.5682-15.7001L68.6998 1.35733L53.807 17.5766L38.9479 1.35733L22.0926-15.7001C21.4809-16.3118 20.6279-16.6747 19.6196-16.6747C17.5693-16.6747 16.084-15.2231 16.084-13.0924C16.084-12.172 16.5142-11.2236 17.2064-10.5314L51.1787 23.6244C51.9382 24.4176 52.8324 24.8142 53.807 24.8142Z" />
</svg>