<svg xmlns="http://www.w3.org/2000/svg" viewBox="16.084 -91.8055 113.1 113.14">
  <path d="M34.067 21.3335L111.206 21.3335C123.088 21.3335 129.189 15.1391 129.189 3.45147L129.189-73.9235C129.189-85.6111 123.088-91.8055 111.206-91.8055L34.067-91.8055C22.2185-91.8055 16.084-85.7046 16.084-73.9235L16.084 3.45147C16.084 15.2326 22.2185 21.3335 34.067 21.3335ZM34.2278 14.674C26.7082 14.674 22.7098 10.743 22.7098 3.12224L22.7098-73.5943C22.7098-81.2487 26.7082-85.146 34.2278-85.146L111.045-85.146C118.378-85.146 122.563-81.2487 122.563-73.5943L122.563 3.12224C122.563 10.743 118.378 14.674 111.045 14.674ZM72.6871-66.4822C70.9063-66.4822 69.3742-64.9838 69.3742-63.2703L69.3742-22.438L69.6567-11.1429C69.7241-9.37508 71.1888-8.21349 72.6871-8.21349C74.1986-8.21349 75.6502-9.37508 75.6839-11.1429L75.9664-22.438L75.9664-63.2703C75.9664-64.9838 74.4343-66.4822 72.6871-66.4822ZM72.6871-4.05719C73.5271-4.05719 74.2659-4.35274 75.0124-5.14591L96.101-25.8771C96.7257-26.5356 97.0886-27.194 97.0886-28.0676C97.0886-29.7344 95.725-31.0307 94.105-31.0307C93.2651-31.0307 92.4251-30.6547 91.834-29.9963L80.417-18.1957L72.6871-10.2432L72.6871-10.2432L64.8768-18.1957L53.4598-29.9963C52.8687-30.6547 51.9951-31.0307 51.1552-31.0307C49.4885-31.0307 48.2052-29.7344 48.2052-28.0676C48.2052-27.194 48.5681-26.5356 49.1929-25.8771L70.3282-5.14591C71.1214-4.35274 71.8135-4.05719 72.6871-4.05719Z" />
</svg>