<svg xmlns="http://www.w3.org/2000/svg" viewBox="11.2588 -97.925 125.34 125.31">
  <path d="M73.9141 27.3856C108.519 27.3856 136.603-0.66445 136.603-35.2697C136.603-69.875 108.519-97.925 73.9141-97.925C39.3425-97.925 11.2588-69.875 11.2588-35.2697C11.2588-0.66445 39.3425 27.3856 73.9141 27.3856ZM73.9141 20.4903C43.0726 20.4903 18.141-4.42824 18.141-35.2697C18.141-66.1112 43.0726-91.0297 73.9141-91.0297C104.756-91.0297 129.674-66.1112 129.674-35.2697C129.674-4.42824 104.756 20.4903 73.9141 20.4903ZM102.268-32.0241C103.982-32.0241 105.48-33.5225 105.48-35.3034C105.48-37.0506 103.982-38.5826 102.268-38.5826L58.3899-38.5359L50.4437-38.3001C48.8442-38.2664 47.4469-36.9365 47.4469-35.3034C47.4469-33.6703 48.8442-32.3403 50.4437-32.273L58.3899-32.0709ZM67.0653-10.8215C68.7321-10.8215 70.0284-12.1047 70.0284-13.8051C70.0284-14.6114 69.6524-15.485 68.9939-16.1097L57.1934-27.5267L49.2408-35.3034L49.2408-35.3034L57.1934-43.0333L68.9939-54.4503C69.6524-55.0751 70.0284-55.915 70.0284-56.7212C70.0284-58.3749 68.7321-59.7386 67.0653-59.7386C66.1917-59.7386 65.5332-59.3757 64.9215-58.7172L44.1436-37.6623C43.3504-36.8691 43.1016-36.1433 43.1016-35.3034C43.1016-34.4635 43.3504-33.7377 44.1436-32.9445L64.9215-11.8091C65.5332-11.1844 66.1917-10.8215 67.0653-10.8215Z" />
</svg>