<svg xmlns="http://www.w3.org/2000/svg" viewBox="11.2588 -97.925 125.34 125.31">
  <path d="M73.9141 27.3856C108.426 27.3856 136.603-0.791611 136.603-35.2697C136.603-69.7478 108.426-97.925 73.9141-97.925C39.436-97.925 11.2588-69.7478 11.2588-35.2697C11.2588-0.791611 39.436 27.3856 73.9141 27.3856ZM106.79-47.5086C106.79-46.3807 106.219-45.3538 105.514-44.5813L88.45-27.2759C87.8589-26.6174 87.1331-26.2751 86.166-26.2751C84.346-26.2751 83.0421-27.6725 83.0421-29.5001C83.0421-30.3998 83.4779-31.2397 84.1364-31.8308L94.5189-42.045L97.7976-44.626L90.7317-44.4315L68.2173-44.4315C57.5537-44.4315 49.9887-38.1497 49.9887-27.7906C49.9887-17.3305 57.4527-10.6241 68.2173-10.6241L77.9647-10.6241C79.8053-10.6241 81.1765-9.47552 81.1765-7.54688C81.1765-5.50415 79.8053-4.40236 77.944-4.40236L68.2173-4.40236C53.8648-4.40236 43.6323-13.4265 43.6323-27.5212C43.6323-41.6496 53.8311-50.5521 68.2173-50.5521L90.7317-50.5521L97.8313-50.3913L93.8117-53.5654L84.1233-63.1397C83.5453-63.6634 83.0421-64.5501 83.0421-65.4835C83.0421-67.3111 84.346-68.7084 86.1997-68.7084C87.1201-68.7084 87.8926-68.3661 88.4837-67.674L105.514-50.4229C106.219-49.6504 106.79-48.6365 106.79-47.5086Z"/>
</svg>