<svg xmlns="http://www.w3.org/2000/svg" viewBox="16.084 -91.8055 113.1 113.14">
  <path d="M34.067 21.3335L111.206 21.3335C123.088 21.3335 129.189 15.1391 129.189 3.45147L129.189-73.9235C129.189-85.6111 123.088-91.8055 111.206-91.8055L34.067-91.8055C22.2185-91.8055 16.084-85.7046 16.084-73.9235L16.084 3.45147C16.084 15.2326 22.2185 21.3335 34.067 21.3335ZM72.6198-0.0898879C70.8259-0.0898879 69.61-1.33945 69.61-3.06602L69.61-36.035L70.1076-47.924L58.2054-35.3614L52.1862-29.0466C51.582-28.4087 50.8431-28.1001 49.863-28.1001C48.0766-28.1001 46.9411-29.2693 46.9411-31.0426C46.9411-31.8076 47.4106-32.7616 47.955-33.2723L70.3825-55.816C71.041-56.5549 71.7799-56.8841 72.6198-56.8841C73.426-56.8841 74.2116-56.4875 74.8234-55.816L97.1313-33.4592C97.8702-32.741 98.3321-31.9684 98.3321-30.9958C98.3321-29.3366 97.1966-28.1001 95.4439-28.1001C94.5312-28.1001 93.7249-28.4087 93.1208-29.0466L86.7461-35.5016L75.132-47.8904L75.5286-36.035L75.5286-3.06602C75.5286-1.33945 74.3257-0.0898879 72.6198-0.0898879ZM48.7124-62.6366C47.0663-62.6366 45.8504-63.8861 45.8504-65.5323C45.8504-67.3056 47.0663-68.5084 48.7124-68.5084L96.5608-68.5084C98.207-68.5084 99.4229-67.3056 99.4229-65.5323C99.4229-63.8861 98.207-62.6366 96.5608-62.6366Z"/>
</svg>