<svg xmlns="http://www.w3.org/2000/svg" viewBox="16.084 -91.8055 113.1 113.14">
  <path d="M34.067 21.3335L111.206 21.3335C123.088 21.3335 129.189 15.1391 129.189 3.45147L129.189-73.9235C129.189-85.6111 123.088-91.8055 111.206-91.8055L34.067-91.8055C22.2185-91.8055 16.084-85.7046 16.084-73.9235L16.084 3.45147C16.084 15.2326 22.2185 21.3335 34.067 21.3335ZM34.2278 14.674C26.7082 14.674 22.7098 10.743 22.7098 3.12224L22.7098-73.5943C22.7098-81.2487 26.7082-85.146 34.2278-85.146L111.045-85.146C118.378-85.146 122.563-81.2487 122.563-73.5943L122.563 3.12224C122.563 10.743 118.378 14.674 111.045 14.674ZM60.6186-10.6145L96.6392-32.1986C99.0332-33.5864 98.9996-36.7791 96.6392-38.1669L60.6186-59.8913C58.2714-61.2996 55.2526-60.1531 55.2526-57.5907L55.2526-12.915C55.2526-10.3526 58.1366-9.10506 60.6186-10.6145Z" />
</svg>