<svg xmlns="http://www.w3.org/2000/svg" viewBox="11.2588 -97.925 125.34 125.31">
  <path d="M73.9141 27.3856C108.519 27.3856 136.603-0.66445 136.603-35.2697C136.603-69.875 108.519-97.925 73.9141-97.925C39.3425-97.925 11.2588-69.875 11.2588-35.2697C11.2588-0.66445 39.3425 27.3856 73.9141 27.3856ZM73.9141 20.4903C43.0726 20.4903 18.141-4.42824 18.141-35.2697C18.141-66.1112 43.0726-91.0297 73.9141-91.0297C104.756-91.0297 129.674-66.1112 129.674-35.2697C129.674-4.42824 104.756 20.4903 73.9141 20.4903ZM41.2113-8.82317C42.5805-8.82317 43.3867-9.57511 43.729-11.0323L47.1905-24.1491L63.9661-24.1491L67.4744-11.0323C67.884-9.57511 68.6229-8.82317 70.1268-8.82317C71.4492-8.82317 72.5641-9.65553 72.5641-11.3072C72.5641-11.844 72.4836-12.3341 72.3489-12.8784L59.5195-58.6789C58.8816-60.7738 57.8005-61.9279 55.6251-61.9279C53.4235-61.9279 52.288-60.7065 51.7176-58.6321L38.8881-12.8784C38.7403-12.4014 38.6599-11.8777 38.6599-11.3072C38.6599-9.65553 39.8215-8.82317 41.2113-8.82317ZM48.238-28.3652L55.2697-55.3102L55.7392-55.3102L62.9186-28.3652ZM92.8932-10.3044C101.384-10.3044 107.064-15.3145 107.064-23.0857C107.064-30.6245 102.415-33.8262 96.3141-36.7756L92.1639-38.7937C87.6514-41.0097 83.939-43.755 83.939-48.55C83.939-53.7059 87.9167-56.2642 92.7193-56.2642C98.3838-56.2642 100.794-52.6961 101.533-47.2261C101.769-45.9243 102.581-45.193 103.869-45.193C105.34-45.193 106.32-46.0721 106.32-47.5891C106.32-48.1128 106.252-48.7039 106.105-49.5287C104.863-56.682 99.6897-60.4934 92.7193-60.4934C85.1034-60.4934 78.984-56.1432 78.984-48.2545C78.984-41.4525 83.0311-37.7607 89.5657-34.6243L93.7833-32.6063C98.4979-30.3696 102.156-27.8525 102.156-22.6423C102.156-17.3387 98.326-14.6009 92.8932-14.6009C86.4581-14.6009 83.8661-18.6309 83.1217-24.0054C82.8392-25.6028 81.833-26.1602 80.7648-26.1602C79.4087-26.1602 78.2678-25.3409 78.2678-23.7903C78.2678-23.2665 78.3014-22.7297 78.4155-22.0059C79.4555-15.2472 84.8401-10.3044 92.8932-10.3044ZM92.766-3.39033C93.5777-3.39033 94.2754-4.08798 94.2754-4.86605L94.2754-65.685C94.2754-66.4967 93.5777-67.1944 92.766-67.1944C91.9879-67.1944 91.2903-66.4967 91.2903-65.685L91.2903-4.86605C91.2903-4.08798 91.9879-3.39033 92.766-3.39033Z" />
</svg>