<svg xmlns="http://www.w3.org/2000/svg" viewBox="16.084 -100.441 134.09 130.34">
  <path d="M22.7876 18.4165L143.501 18.4165L143.501 15.2947C143.501 13.7083 142.513 12.7674 140.893 12.7674L136.872 12.7674L136.872-60.7285L142.728-60.7285C145.033-60.7285 146.29-62.3149 146.29-64.0415C146.29-65.1845 145.611-66.333 144.112-67.2403L89.9711-98.4824C87.7716-99.7767 85.4243-100.441 83.1444-100.441C80.8308-100.441 78.4367-99.7767 76.2372-98.4824L22.0961-67.2403C20.6107-66.333 19.9653-65.1845 19.9653-64.0415C19.9653-62.3149 21.1757-60.7285 23.5271-60.7285L29.4163-60.7285L29.4163 12.7674L25.3953 12.7674C23.7753 12.7674 22.7876 13.7083 22.7876 15.2947ZM35.739 12.7674L35.739-67.3573L79.8045-92.2999C80.8218-92.889 81.9999-93.2237 83.1444-93.2237C84.2551-93.2237 85.3865-92.889 86.4038-92.2999L130.583-67.3573L130.583 12.7674ZM19.3969 29.9012L146.858 29.9012C148.639 29.9012 150.171 28.3692 150.171 26.5546C150.171 24.727 148.639 23.2417 146.858 23.2417L19.3969 23.2417C17.5693 23.2417 16.084 24.727 16.084 26.5546C16.084 28.3692 17.5693 29.9012 19.3969 29.9012ZM51.6746-9.31791C52.9297-9.31791 53.7153-10.0362 54.0576-11.3455L57.3845-24.105L73.6342-24.105L76.9947-11.3455C77.3707-10.0362 78.0889-9.31791 79.5255-9.31791C80.7805-9.31791 81.828-10.1166 81.828-11.6205C81.828-12.1236 81.7476-12.58 81.5662-13.1374L69.2082-57.368C68.6508-59.3283 67.637-60.4487 65.5495-60.4487C63.4958-60.4487 62.4146-59.261 61.8441-57.3213L49.5198-13.1374C49.3721-12.6474 49.258-12.1573 49.258-11.6205C49.258-10.1166 50.3522-9.31791 51.6746-9.31791ZM58.3983-28.0854L65.2279-54.1678L65.6636-54.1678L72.6073-28.0854ZM101.383-10.7655C109.583-10.7655 114.994-15.5268 114.994-23.0079C114.994-30.2436 110.48-33.391 104.635-36.1927L100.653-38.1097C96.2755-40.2584 92.7315-42.9026 92.7315-47.576C92.7315-52.5504 96.5745-55.0544 101.209-55.0544C106.705-55.0544 109.014-51.5743 109.719-46.239C109.968-45.0383 110.78-44.3537 111.968-44.3537C113.324-44.3537 114.237-45.1524 114.237-46.602C114.237-47.092 114.169-47.6625 114.022-48.4536C112.927-55.3712 107.876-59.0815 101.209-59.0815C93.9296-59.0815 88.0796-54.866 88.0796-47.3141C88.0796-40.7815 91.9714-37.1777 98.2703-34.1761L102.239-32.259C106.785-30.0897 110.342-27.6063 110.342-22.5982C110.342-17.4162 106.66-14.7926 101.383-14.7926C95.1159-14.7926 92.6249-18.7215 91.9479-23.9276C91.6654-25.4109 90.6928-25.9814 89.6921-25.9814C88.437-25.9814 87.3634-25.149 87.3634-23.7462C87.3634-23.2561 87.397-22.753 87.5111-22.0629C88.4837-15.4931 93.5989-10.7655 101.383-10.7655ZM101.255-4.04039C102.033-4.04039 102.664-4.67069 102.664-5.44876L102.664-64.0711C102.664-64.8491 102.033-65.4794 101.255-65.4794C100.511-65.4794 99.847-64.8491 99.847-64.0711L99.847-5.44876C99.847-4.67069 100.511-4.04039 101.255-4.04039Z"/>
</svg>