<svg xmlns="http://www.w3.org/2000/svg" viewBox="11.2588 -97.925 125.34 125.31">
  <path d="M73.9141 27.3856C108.519 27.3856 136.603-0.66445 136.603-35.2697C136.603-69.875 108.519-97.925 73.9141-97.925C39.3425-97.925 11.2588-69.875 11.2588-35.2697C11.2588-0.66445 39.3425 27.3856 73.9141 27.3856ZM73.9141 20.4903C43.0726 20.4903 18.141-4.42824 18.141-35.2697C18.141-66.1112 43.0726-91.0297 73.9141-91.0297C104.756-91.0297 129.674-66.1112 129.674-35.2697C129.674-4.42824 104.756 20.4903 73.9141 20.4903ZM97.1815-11.862C99.1267-11.862 100.857-13.304 100.857-16.2012L100.857-53.9904C100.857-56.9343 99.1267-58.3763 97.1815-58.3763C96.1753-58.3763 95.1298-57.9612 94.1703-57.3907L62.2799-38.6253C60.7293-37.7723 59.9979-36.5846 59.9979-35.1425C59.9979-33.6538 60.7293-32.466 62.2799-31.6131L94.1703-12.814C95.1298-12.2772 96.1753-11.862 97.1815-11.862ZM50.338-10.9643L57.0932-10.9643C59.4199-10.9643 60.4935-12.0043 60.4935-14.3179L60.4935-56.1879C60.4935-58.5352 59.4199-59.5751 57.0932-59.5751L50.338-59.5751C48.0917-59.5751 46.9377-58.5015 46.9377-56.1879L46.9377-14.3179C46.9377-12.0043 48.0917-10.9643 50.338-10.9643Z" />
</svg>