<svg xmlns="http://www.w3.org/2000/svg" viewBox="11.2588 -97.925 125.34 125.31">
  <path d="M73.9141 27.3856C108.519 27.3856 136.603-0.66445 136.603-35.2697C136.603-69.875 108.519-97.925 73.9141-97.925C39.3425-97.925 11.2588-69.875 11.2588-35.2697C11.2588-0.66445 39.3425 27.3856 73.9141 27.3856ZM73.9141 20.4903C43.0726 20.4903 18.141-4.42824 18.141-35.2697C18.141-66.1112 43.0726-91.0297 73.9141-91.0297C104.756-91.0297 129.674-66.1112 129.674-35.2697C129.674-4.42824 104.756 20.4903 73.9141 20.4903ZM50.5868-5.39412L97.2077-5.39412C103.484-5.39412 106.683-8.63909 106.683-14.8018L106.683-55.7376C106.683-61.8536 103.484-65.1453 97.2077-65.1453L50.5868-65.1453C44.3099-65.1453 41.1117-61.9003 41.1117-55.7376L41.1117-14.8018C41.1117-8.63909 44.3099-5.39412 50.5868-5.39412ZM50.5847-9.78414C47.1363-9.78414 45.5952-11.2915 45.5952-14.7606L45.5952-44.7468C45.5952-48.5431 47.5569-50.5178 51.2859-50.5178L96.4412-50.5178C100.144-50.5178 102.199-48.5431 102.199-44.7468L102.199-14.7606C102.199-11.2915 100.658-9.78414 97.176-9.78414ZM67.0316-38.3387L69.3171-38.3387C70.5515-38.3387 70.834-38.5875 70.834-39.7546L70.834-42.0738C70.834-43.2615 70.5515-43.4972 69.3171-43.4972L67.0316-43.4972C65.8776-43.4972 65.5951-43.2615 65.5951-42.0738L65.5951-39.7546C65.5951-38.5875 65.8776-38.3387 67.0316-38.3387ZM78.4774-38.3387L80.7628-38.3387C81.9169-38.3387 82.1993-38.5875 82.1993-39.7546L82.1993-42.0738C82.1993-43.2615 81.9169-43.4972 80.7628-43.4972L78.4774-43.4972C77.2429-43.4972 76.9604-43.2615 76.9604-42.0738L76.9604-39.7546C76.9604-38.5875 77.2429-38.3387 78.4774-38.3387ZM89.809-38.3387L92.0945-38.3387C93.2485-38.3387 93.6245-38.5875 93.6245-39.7546L93.6245-42.0738C93.6245-43.2615 93.2485-43.4972 92.0945-43.4972L89.809-43.4972C88.5746-43.4972 88.279-43.2615 88.279-42.0738L88.279-39.7546C88.279-38.5875 88.5746-38.3387 89.809-38.3387ZM55.7-27.1679L57.9854-27.1679C59.2199-27.1679 59.5154-27.4167 59.5154-28.5838L59.5154-30.9029C59.5154-32.0439 59.2199-32.2927 57.9854-32.2927L55.7-32.2927C54.5459-32.2927 54.1699-32.0439 54.1699-30.9029L54.1699-28.5838C54.1699-27.4167 54.5459-27.1679 55.7-27.1679ZM67.0316-27.1679L69.3171-27.1679C70.5515-27.1679 70.834-27.4167 70.834-28.5838L70.834-30.9029C70.834-32.0439 70.5515-32.2927 69.3171-32.2927L67.0316-32.2927C65.8776-32.2927 65.5951-32.0439 65.5951-30.9029L65.5951-28.5838C65.5951-27.4167 65.8776-27.1679 67.0316-27.1679ZM78.4774-27.1679L80.7628-27.1679C81.9169-27.1679 82.1993-27.4167 82.1993-28.5838L82.1993-30.9029C82.1993-32.0439 81.9169-32.2927 80.7628-32.2927L78.4774-32.2927C77.2429-32.2927 76.9604-32.0439 76.9604-30.9029L76.9604-28.5838C76.9604-27.4167 77.2429-27.1679 78.4774-27.1679ZM89.809-27.1679L92.0945-27.1679C93.2485-27.1679 93.6245-27.4167 93.6245-28.5838L93.6245-30.9029C93.6245-32.0439 93.2485-32.2927 92.0945-32.2927L89.809-32.2927C88.5746-32.2927 88.279-32.0439 88.279-30.9029L88.279-28.5838C88.279-27.4167 88.5746-27.1679 89.809-27.1679ZM55.7-15.9634L57.9854-15.9634C59.2199-15.9634 59.5154-16.2122 59.5154-17.3999L59.5154-19.6723C59.5154-20.8394 59.2199-21.0882 57.9854-21.0882L55.7-21.0882C54.5459-21.0882 54.1699-20.8394 54.1699-19.6723L54.1699-17.3999C54.1699-16.2122 54.5459-15.9634 55.7-15.9634ZM67.0316-15.9634L69.3171-15.9634C70.5515-15.9634 70.834-16.2122 70.834-17.3999L70.834-19.6723C70.834-20.8394 70.5515-21.0882 69.3171-21.0882L67.0316-21.0882C65.8776-21.0882 65.5951-20.8394 65.5951-19.6723L65.5951-17.3999C65.5951-16.2122 65.8776-15.9634 67.0316-15.9634ZM78.4774-15.9634L80.7628-15.9634C81.9169-15.9634 82.1993-16.2122 82.1993-17.3999L82.1993-19.6723C82.1993-20.8394 81.9169-21.0882 80.7628-21.0882L78.4774-21.0882C77.2429-21.0882 76.9604-20.8394 76.9604-19.6723L76.9604-17.3999C76.9604-16.2122 77.2429-15.9634 78.4774-15.9634Z" />
</svg>