<svg xmlns="http://www.w3.org/2000/svg" viewBox="16.084 -91.8055 147.03 113.14">
  <path d="M34.067 21.3335L86.3298 21.3335L86.3298 14.674L34.2278 14.674C26.7082 14.674 22.7098 10.743 22.7098 3.12224L22.7098-31.9272L16.084-31.9272L16.084 3.45147C16.084 15.2326 22.2185 21.3335 34.067 21.3335ZM93.0279 21.3335L145.13 21.3335C157.012 21.3335 163.113 15.1391 163.113 3.45147L163.113-31.9272L156.487-31.9272L156.487 3.12224C156.487 10.743 152.302 14.674 144.969 14.674L93.0279 14.674ZM156.487-38.5449L163.113-38.5449L163.113-73.9235C163.113-85.6111 157.012-91.8055 145.13-91.8055L93.0279-91.8055L93.0279-85.146L144.969-85.146C152.302-85.146 156.487-81.2487 156.487-73.5943ZM16.084-38.5449L22.7098-38.5449L22.7098-73.5943C22.7098-81.2487 26.7082-85.146 34.2278-85.146L86.3298-85.146L86.3298-91.8055L34.067-91.8055C22.2185-91.8055 16.084-85.7046 16.084-73.9235ZM89.7658-52.3263C94.4115-52.3263 98.2325-56.1136 98.2325-60.8398C98.2325-65.4855 94.4115-69.3065 89.7658-69.3065C85.0396-69.3065 81.2523-65.4855 81.2523-60.8398C81.2523-56.1136 85.0396-52.3263 89.7658-52.3263ZM64.1957-26.7562C68.8882-26.7562 72.7092-30.5435 72.7092-35.2697C72.7092-39.9959 68.8882-43.7832 64.1957-43.7832C59.4695-43.7832 55.6822-39.9959 55.6822-35.2697C55.6822-30.5435 59.4695-26.7562 64.1957-26.7562ZM89.7658-26.7562C94.4115-26.7562 98.2325-30.5435 98.2325-35.2697C98.2325-39.9959 94.4115-43.7832 89.7658-43.7832C85.0396-43.7832 81.2523-39.9959 81.2523-35.2697C81.2523-30.5435 85.0396-26.7562 89.7658-26.7562ZM115.289-26.7562C119.982-26.7562 123.803-30.5435 123.803-35.2697C123.803-39.9959 119.982-43.7832 115.289-43.7832C110.563-43.7832 106.776-39.9959 106.776-35.2697C106.776-30.5435 110.563-26.7562 115.289-26.7562ZM89.7658-1.2329C94.4115-1.2329 98.2325-5.05387 98.2325-9.69964C98.2325-14.4258 94.4115-18.2131 89.7658-18.2131C85.0396-18.2131 81.2523-14.4258 81.2523-9.69964C81.2523-5.05387 85.0396-1.2329 89.7658-1.2329Z"/>
</svg>