<svg xmlns="http://www.w3.org/2000/svg" viewBox="16.084 -83.9023 218.44 97.01">
  <path d="M96.7449-37.7552C89.0522-37.7552 84.0806-40.398 79.2589-46.6618L61.4641-70.2318C58.0789-74.6961 54.8847-76.1155 48.2752-76.1155L31.8007-76.1155C30.0199-76.1155 28.4878-77.6475 28.4878-79.4284C28.4878-81.2429 30.0199-82.7413 31.8007-82.7413L48.2752-82.7413C56.645-82.7413 61.8372-80.3603 66.5317-74.3042L84.5211-50.8276C88.241-45.9612 91.1472-44.381 96.7449-44.381L109.437-44.381L109.437-51.3824C109.437-54.3792 112.143-55.2658 114.381-53.7544L129.93-43.7748C132.173-42.3644 132.139-39.7512 129.977-38.4212L114.347-28.4416C112.143-26.9638 109.437-27.8505 109.437-30.8135L109.437-37.7552ZM34.2017 0.0186961L38.3891 0.0186961C38.0337-1.80483 37.7924-3.67511 37.7924-5.6258C37.7924-19.4958 48.6793-30.3827 62.583-30.3827C76.4062-30.3827 87.3399-19.4958 87.3399-5.6258C87.3399-3.67511 87.0986-1.80483 86.7096 0.0186961L163.863 0.0186961C163.507-1.80483 163.266-3.67511 163.266-5.6258C163.266-19.4958 174.2-30.3827 188.023-30.3827C201.927-30.3827 212.814-19.4958 212.814-5.6258C212.814-3.67511 212.572-1.80483 212.183 0.0186961L216.404 0.0186961C228.73 0.0186961 234.522-6.11587 234.522-19.0586L234.522-36.5097C234.522-47.3574 229.506-53.6156 218.157-57.4627L208.045-60.8665C193.491-72.5831 178.067-83.9023 154.67-83.9023L146.24-83.9023C121.753-83.9023 110.509-81.3756 95.7154-72.1253L70.2223-56.1217L41.5763-52.6038C25.7721-50.6325 16.084-40.963 16.084-27.4051L16.084-18.8565C16.084-6.04851 21.9436 0.0186961 34.2017 0.0186961ZM62.583 13.1065C73.0919 13.1065 81.2816 4.88308 81.2816-5.6258C81.2816-16.101 73.0919-24.3244 62.583-24.3244C52.0741-24.3244 43.8507-16.101 43.8507-5.6258C43.8507 4.88308 52.0741 13.1065 62.583 13.1065ZM188.023 13.1065C198.532 13.1065 206.755 4.88308 206.755-5.6258C206.755-16.101 198.532-24.3244 188.023-24.3244C177.548-24.3244 169.324-16.101 169.324-5.6258C169.324 4.88308 177.548 13.1065 188.023 13.1065Z"/>
</svg>