<svg xmlns="http://www.w3.org/2000/svg" viewBox="16.084 -110.522 175.68 150.34">
  <path d="M103.97-80.819C117.177-80.819 130.604-89.7332 130.604-100.916C130.604-104.145 128.565-106.606 124.611-108.001C119.69-109.625 111.913-110.476 103.97-110.522C95.9933-110.476 88.2036-109.625 83.329-108.001C79.3879-106.606 77.3829-104.191 77.3829-100.916C77.3829-89.7332 90.7297-80.819 103.97-80.819ZM101.175-43.7791L106.858-43.7791L106.858-83.8047L101.175-83.8047ZM27.7661-16.4117C34.157-16.4117 39.4612-21.6224 39.4612-28.1405C39.4612-34.5782 34.2037-39.8357 27.7661-39.8357C21.3415-39.8357 16.084-34.5314 16.084-28.1405C16.084-21.7028 21.3752-16.4117 27.7661-16.4117ZM61.0838-16.4117C69.1504-16.4117 75.7751-22.9765 75.7751-31.0562C75.7751-39.1229 69.1504-45.7812 61.0838-45.7812C53.0171-45.7812 46.4859-39.1229 46.4859-31.0562C46.4859-22.9765 53.0171-16.4117 61.0838-16.4117ZM104.017-3.47448C115.837-3.47448 125.398-12.9887 125.398-24.8557C125.398-36.676 115.837-46.3305 104.017-46.3305C92.1964-46.3305 82.5887-36.676 82.5887-24.8557C82.5887-12.9887 92.1964-3.47448 104.017-3.47448ZM146.763-16.4117C154.749-16.4117 161.361-22.9765 161.361-31.0562C161.361-39.1229 154.749-45.7812 146.763-45.7812C138.696-45.7812 132.038-39.1229 132.038-31.0562C132.038-22.9765 138.696-16.4117 146.763-16.4117ZM180.08-16.4117C186.471-16.4117 191.762-21.7028 191.762-28.1405C191.762-34.5314 186.505-39.8357 180.08-39.8357C173.562-39.8357 168.352-34.5782 168.352-28.1405C168.352-21.6224 173.609-16.4117 180.08-16.4117ZM104.017 39.8147C111.863 39.8147 118.334 33.3433 118.334 25.4973C118.334 17.6176 111.863 11.1799 104.017 11.1799C96.1707 11.1799 89.6993 17.6176 89.6993 25.4973C89.6993 33.3433 96.1707 39.8147 104.017 39.8147ZM32.0681-19.1576L26.419-19.1576C27.3407-0.609563 52.8371 8.18904 66.3262-5.6107L63.3164-10.246C53.5423 0.948021 33.0366-4.96997 32.0681-19.1576ZM63.8915-19.2043L58.2087-19.1576C58.7002-0.190327 82.5002 8.0282 98.2561-5.82032L92.7884-8.70848C81.0561 0.121172 64.4298-5.25042 63.8915-19.2043ZM143.955-19.2043C143.383-5.25042 126.79 0.121172 115.024-8.70848L109.51-5.82032C125.346 8.0282 149.146-0.190327 149.604-19.1576ZM175.745-19.1576C174.776-4.96997 154.304 0.948021 144.53-10.246L141.487-5.6107C154.976 8.18904 180.506-0.609563 181.428-19.1576ZM101.175-6.27467L101.175 14.2516L106.858 14.2516L106.858-6.27467Z"/>
</svg>