<svg xmlns="http://www.w3.org/2000/svg" viewBox="11.2588 -97.8445 125.34 125.31">
  <path d="M73.9141 27.466C108.426 27.466 136.603-0.711191 136.603-35.1893C136.603-69.6674 108.426-97.8445 73.9141-97.8445C39.436-97.8445 11.2588-69.6674 11.2588-35.1893C11.2588-0.711191 39.436 27.466 73.9141 27.466ZM95.9189-70.7424C100.217-70.7424 103.026-67.692 103.026-63.1603L103.026-53.4391L44.5663-53.4391L44.5663-63.1603C44.5663-67.692 47.3755-70.7424 51.7071-70.7424ZM55.1777-58.7921C56.2864-58.199 57.7003-58.5352 58.3738-59.6906C59.0007-60.7526 58.6308-62.2133 57.4753-62.8531C56.4133-63.5136 54.9864-63.1307 54.3128-62.022C53.6392-60.9132 54.0689-59.4993 55.1777-58.7921ZM65.5634-57.6601C67.299-57.6601 68.7129-59.074 68.7129-60.8226C68.7129-62.5919 67.299-64.0525 65.5634-64.0525C63.7475-64.0525 62.414-62.5919 62.414-60.8226C62.414-59.074 63.7475-57.6601 65.5634-57.6601ZM44.5663-11.941L44.5663-49.4814L103.026-49.4814L103.026-11.941ZM65.8102-40.3486L82.143-40.3486C83.1287-40.3486 83.8057-41.1398 83.8057-42.1254C83.8057-43.1447 83.1287-43.8685 82.143-43.8685L65.8102-43.8685C64.7909-43.8685 64.0671-43.1447 64.0671-42.1254C64.0671-41.1398 64.7909-40.3486 65.8102-40.3486ZM103.026-8.03L103.026-7.35296C103.026-2.82128 100.217 0.229161 95.9189 0.229161L51.7071 0.229161C47.3755 0.229161 44.5663-2.82128 44.5663-7.35296L44.5663-8.03Z"/>
</svg>