<svg xmlns="http://www.w3.org/2000/svg" viewBox="16.084 -104.89 152.13 139.37">
  <path d="M27.2244 21.9794L51.7457 21.9794C58.7469 21.9794 62.8861 17.7729 62.8861 10.7044L62.8861-81.1503C62.8861-88.2188 58.7469-92.3917 51.7457-92.3917L27.2244-92.3917C20.2101-92.3917 16.084-88.2188 16.084-81.1503L16.084 10.7044C16.084 17.7729 20.2101 21.9794 27.2244 21.9794ZM77.6311 34.4782C79.2772 34.4782 80.7083 33.1482 80.7083 31.5021L80.7083-101.948C80.7083-103.56 79.2772-104.89 77.6311-104.89C75.9382-104.89 74.5203-103.56 74.5203-101.948L74.5203 31.5021C74.5203 33.1482 75.9382 34.4782 77.6311 34.4782ZM114.695 0.776153L139.25 0.776153C146.264 0.776153 150.39-3.39669 150.39-10.4652L150.39-59.9807C150.39-67.0492 146.264-71.2221 139.25-71.2221L114.695-71.2221C107.727-71.2221 103.554-67.0492 103.554-59.9807L103.554-10.4652C103.554-3.39669 107.727 0.776153 114.695 0.776153ZM165.102 34.4782C166.748 34.4782 168.212 33.1482 168.212 31.5021L168.212-101.948C168.212-103.56 166.748-104.89 165.102-104.89C163.442-104.89 162.024-103.56 162.024-101.948L162.024 31.5021C162.024 33.1482 163.442 34.4782 165.102 34.4782Z" />
</svg>