<svg xmlns="http://www.w3.org/2000/svg" viewBox="16.084 -87.9192 179.23 109.89">
  <path d="M34.067 17.4472L129.434 17.4472C127.711 15.599 126.191 13.4758 124.966 11.0908L33.9584 11.0908C31.3162 11.0908 29.1283 10.4756 27.5089 9.45277L70.3192-33.4043L80.0405-24.7547C83.4593-21.6575 86.7661-20.2698 90.4338-20.2698C94.1352-20.2698 97.442-21.6575 100.827-24.7547L117.362-39.5426L117.362-47.9473L96.9121-29.5735C94.7222-27.5575 92.665-26.6599 90.4338-26.6599C88.2363-26.6599 86.1791-27.5575 83.9892-29.5735L27.9955-79.9193C29.5737-81.015 31.5052-81.5628 33.9584-81.5628L147.003-81.5628C148.386-81.5628 149.723-81.3759 150.793-80.9813C152.458-82.0157 154.371-82.5938 156.479-82.5938C158.255-82.5938 159.929-82.0886 161.3-81.1195C158.747-85.6483 153.89-87.9192 146.928-87.9192L33.124-87.9192C22.2784-87.9192 16.084-81.7585 16.084-70.0709L16.084-0.401134C16.084 11.2865 22.312 17.4472 34.067 17.4472ZM23.8165 4.15693C22.9415 2.77325 22.4741 0.808048 22.4741-1.35718L22.4741-70.0111C22.4741-72.1427 22.8947-73.9003 23.723-75.297L65.7437-37.63ZM155.131 21.9716C169.917 21.9716 180.139 15.0184 185.952-0.688453C188.711-7.90563 191.159-15.83 193.628-24.3813C194.362-26.9759 195.318-29.829 195.318-31.3143C195.318-33.6409 193.541-35.1167 191.194-35.1167C188.951-35.1167 187.322-33.7867 185.777-30.5432L179.723-16.1968C178.905-14.3155 177.841-13.7525 176.871-13.7525C175.612-13.7525 174.615-14.5286 174.615-16.6642L174.615-63.5261C174.615-66.0342 172.543-68.0598 170.082-68.0598C167.62-68.0598 165.582-66.0342 165.582-63.5261L165.582-30.4256C164.202-31.0147 162.647-31.5102 161.013-31.845L161.013-71.4087C161.013-73.9038 159.021-75.9424 156.479-75.9424C154.051-75.9424 151.979-73.9038 151.979-71.4087L151.979-32.3742C150.238-32.2938 148.37-32.0862 146.756-31.7515L146.756-66.6941C146.756-69.1424 144.684-71.1811 142.222-71.1811C139.748-71.1811 137.722-69.1424 137.722-66.6941L137.722-28.8543C135.901-28.0371 134.393-27.0459 133.026-26.0547L133.026-52.3231C133.026-54.8312 131.021-56.8698 128.526-56.8698C126.098-56.8698 124.026-54.8312 124.026-52.3231L124.026-10.1371C124.026 10.8264 137.518 21.9716 155.131 21.9716Z"/>
</svg>