<svg xmlns="http://www.w3.org/2000/svg" viewBox="1.97131 -103.769 155.27 144.61">
  <path d="M105.5-10.512L105.5-46.2701C111.483-42.799 114.529-37.4596 114.529-31.0824C114.529-22.1392 113.364-11.5691 113.149-2.90985L118.441 2.42866C118.394 1.81347 118.347 1.11785 118.347 0.422237C118.347-8.02593 119.829-20.0834 119.829-31.0824C119.829-40.5554 115.198-48.0234 105.5-52.2409L105.5-87.966C105.5-98.1401 99.9307-103.769 89.6967-103.769L40.3322-103.769C31.1835-103.769 25.9768-99.2645 25.1479-90.8774L31.2218-84.8035L31.2218-87.8051C31.2218-93.8993 34.2586-97.1437 40.493-97.1437L89.5359-97.1437C95.5496-97.1437 98.9006-93.8862 98.9006-87.8051L98.981-17.078ZM132.889 16.8299C140.134 15.0511 144.376 8.60793 144.376-1.11389L144.376-38.7104C144.376-44.4463 148.238-46.1743 151.479-48.8055C154.9-51.5212 157.238-54.7496 157.238-59.702L157.238-68.4265C157.238-69.8535 156.433-70.7979 155.261-70.7979L151.086-70.7979L151.086-81.8305C151.086-83.1997 149.992-84.3538 148.576-84.3538C147.194-84.3538 146.053-83.1997 146.053-81.8305L146.1-70.7979L137.549-70.7979L137.596-81.8305C137.596-83.1997 136.489-84.3538 135.153-84.3538C133.737-84.3538 132.63-83.1997 132.63-81.8305L132.63-70.7979L128.052-70.7979C126.845-70.7979 126.041-69.8535 126.041-68.4265L126.041-59.702C126.041-54.7496 128.446-51.5212 131.88-48.8055C135.108-46.1743 138.983-44.4463 138.983-38.7104L138.983-1.11389C138.983 7.04975 135.071 11.9684 128.577 11.9684C128.383 11.9684 128.222 11.9684 128.027 11.9684ZM93.4692-52.0046L93.4692-87.1324C93.4692-89.8104 91.5672-91.7253 88.8893-91.7253L41.1396-91.7253C38.4617-91.7253 36.6402-89.8104 36.6402-87.1324L36.6402-79.3384L68.5538-47.4247L88.8893-47.4247C91.614-47.4247 93.4692-49.3734 93.4692-52.0046ZM19.3632 33.2638L110.619 33.2638C111.324 33.2638 111.996 33.0486 112.493 32.6259L98.981 19.194L98.981 26.6379L31.1751 26.6379L31.2218-58.5775L24.6428-65.1566L24.6428 26.6379L19.3632 26.6379C17.5693 26.6379 16.084 28.1363 16.084 29.9172C16.084 31.7317 17.5356 33.2638 19.3632 33.2638ZM137.953 39.6059C139.27 40.8424 141.279 40.8424 142.529 39.6059C143.872 38.2759 143.799 36.2799 142.529 34.9967L7.78334-99.6811C6.54684-100.871 4.55085-101.011 3.17413-99.6811C1.97131-98.4316 1.97131-96.3552 3.17413-95.1056Z"/>
</svg>