<svg xmlns="http://www.w3.org/2000/svg" viewBox="15.5004 -103.769 186.38 137">
  <path d="M17.7336-37.9256C15.5678-36.6183 15.5004-33.7679 17.7336-32.4268L50.5092-12.8607C52.7967-11.4991 55.4526-12.5988 55.4526-14.933L55.4526-55.6737C55.4526-57.9275 52.6957-59.0403 50.5092-57.7461ZM150.112 29.8257L150.112-87.966C150.112-98.1401 144.543-103.769 134.355-103.769L86.1977-103.769C75.8833-103.769 70.5213-98.1999 70.5213-87.966L70.5213 29.8257ZM86.4546-47.4247C82.1305-47.4247 79.3963-50.0449 79.3963-54.18L79.3963-88.0588C79.3963-92.2276 82.1305-94.8945 86.4546-94.8945L134.145-94.8945C138.422-94.8945 141.237-92.2276 141.237-88.0588L141.237-54.18C141.237-50.0449 138.422-47.4247 134.145-47.4247ZM62.0093 29.8368C62.0093 31.6513 63.5076 33.2301 65.2418 33.2301L155.231 33.2301C157.045 33.2301 158.577 31.6513 158.577 29.8368C158.577 28.1363 157.045 26.6043 155.231 26.6043L65.2418 26.6043C63.5413 26.6043 62.0093 28.1026 62.0093 29.8368ZM183.629-38.7104L183.629-1.11389C183.629 7.04975 179.683 11.9684 173.189 11.9684C166.952 11.9684 162.993 7.55492 162.993 0.422237C162.993-8.02593 164.474-20.0834 164.474-31.0824C164.474-41.0997 159.252-48.8633 148.243-52.9331L146.001-48.1238C154.933-44.9276 159.175-38.7353 159.175-31.0824C159.175-21.1364 157.694-9.04526 157.694 0.422237C157.694 10.7854 163.641 17.3612 173.189 17.3612C183.094 17.3612 189.021 10.4149 189.021-1.11389L189.021-38.7104C189.021-44.4463 192.85-46.1743 196.091-48.8055C199.512-51.5212 201.883-54.7496 201.883-59.702L201.883-68.4265C201.883-69.8535 201.079-70.7979 199.906-70.7979L195.698-70.7979L195.698-81.8305C195.698-83.1997 194.638-84.3538 193.188-84.3538C191.84-84.3538 190.699-83.1997 190.699-81.8305L190.745-70.7979L182.161-70.7979L182.208-81.8305C182.208-83.1997 181.134-84.3538 179.765-84.3538C178.349-84.3538 177.275-83.1997 177.275-81.8305L177.275-70.7979L172.697-70.7979C171.491-70.7979 170.687-69.8535 170.687-68.4265L170.687-59.702C170.687-54.7496 173.058-51.5212 176.492-48.8055C179.72-46.1743 183.629-44.4463 183.629-38.7104Z"/>
</svg>