<svg xmlns="http://www.w3.org/2000/svg" viewBox="11.2588 -99.9622 138.4 129.34">
  <path d="M80.4975 29.376C118.623 29.376 149.656-1.65706 149.656-39.829C149.656-63.939 137.209-85.2117 119.584-96.7193C116.132-98.9635 112.739-99.9622 108.37-99.9622L52.5778-99.9622C48.1754-99.9622 44.7826-98.9635 41.3301-96.7193C23.7059-85.2117 11.2588-63.939 11.2588-39.829C11.2588-1.65706 42.3256 29.376 80.4975 29.376ZM80.4975 22.4939C45.734 22.4939 18.1746-5.09917 18.1746-39.829C18.1746-61.4639 28.867-80.1028 44.7963-90.7705C47.0666-92.4573 49.4043-93.08 52.5778-93.08L108.37-93.08C111.557-93.08 113.848-92.4573 116.152-90.7705C132.081-80.1028 142.774-61.4639 142.774-39.829C142.774-5.09917 115.181 22.4939 80.4975 22.4939ZM59.3772-66.0363C64.1818-66.0363 68.055-69.9095 68.055-74.7477C68.055-79.5523 64.1818-83.4255 59.3772-83.4255C54.539-83.4255 50.6657-79.5523 50.6657-74.7477C50.6657-69.9095 54.539-66.0363 59.3772-66.0363ZM80.4975-66.0363C85.302-66.0363 89.1753-69.9095 89.1753-74.7477C89.1753-79.5523 85.302-83.4255 80.4975-83.4255C75.6592-83.4255 71.786-79.5523 71.786-74.7477C71.786-69.9095 75.6592-66.0363 80.4975-66.0363ZM101.571-66.0363C106.376-66.0363 110.249-69.9095 110.249-74.7477C110.249-79.5523 106.376-83.4255 101.571-83.4255C96.7664-83.4255 92.8595-79.5523 92.8595-74.7477C92.8595-69.9095 96.7664-66.0363 101.571-66.0363ZM80.4975-44.9628C85.302-44.9628 89.1753-48.836 89.1753-53.6742C89.1753-58.4788 85.302-62.352 80.4975-62.352C75.6592-62.352 71.786-58.4788 71.786-53.6742C71.786-48.836 75.6592-44.9628 80.4975-44.9628ZM48.3336-20.8182C58.8143-20.8182 67.3312-29.2884 67.3312-39.829C67.3312-50.3564 58.8143-58.8266 48.3336-58.8266C37.8398-58.8266 29.3228-50.3564 29.3228-39.829C29.3228-29.2884 37.8398-20.8182 48.3336-20.8182ZM112.581-20.8182C123.075-20.8182 131.625-29.2884 131.625-39.829C131.625-50.3564 123.075-58.8266 112.581-58.8266C102.134-58.8266 93.5833-50.3564 93.5833-39.829C93.5833-29.2884 102.134-20.8182 112.581-20.8182ZM53.4523 3.04386C57.7743 3.04386 61.3259-0.507682 61.3259-4.82974C61.3259-9.15181 57.7743-12.737 53.4523-12.737C49.1302-12.737 45.5787-9.15181 45.5787-4.82974C45.5787-0.507682 49.1302 3.04386 53.4523 3.04386ZM80.4975 8.53854C87.8549 8.53854 93.8657 2.52766 93.8657-4.82974C93.8657-12.2208 87.8549-18.2317 80.4975-18.2317C73.1064-18.2317 67.0488-12.2208 67.0488-4.82974C67.0488 2.52766 73.1064 8.53854 80.4975 8.53854ZM107.462 3.04386C111.818 3.04386 115.37-0.507682 115.37-4.82974C115.37-9.15181 111.818-12.737 107.462-12.737C103.14-12.737 99.5886-9.15181 99.5886-4.82974C99.5886-0.507682 103.14 3.04386 107.462 3.04386Z"/>
</svg>