<svg xmlns="http://www.w3.org/2000/svg" viewBox="11.2588 -73.5612 195.84 76.62">
  <path d="M60.9273 3.05548C82.0536 3.05548 99.2188-14.0629 99.2188-35.2697C99.2188-56.4428 82.0536-73.5612 60.9273-73.5612C39.7205-73.5612 22.5086-56.4428 22.5086-35.2697C22.5086-14.0629 39.7205 3.05548 60.9273 3.05548ZM60.9273-3.75935C43.531-3.75935 29.3702-17.8398 29.3702-35.2697C29.3702-52.6659 43.531-66.7464 60.9273-66.7464C78.2898-66.7464 92.4039-52.6323 92.4039-35.2697C92.4039-17.8735 78.2898-3.75935 60.9273-3.75935ZM157.468 3.05548C178.641 3.05548 195.887-14.0629 195.887-35.2697C195.887-56.4428 178.641-73.5612 157.468-73.5612C136.308-73.5612 119.143-56.4428 119.143-35.2697C119.143-14.0629 136.308 3.05548 157.468 3.05548ZM157.468-3.75935C140.072-3.75935 125.958-17.8735 125.958-35.2697C125.958-52.6323 140.072-66.7464 157.468-66.7464C174.865-66.7464 188.992-52.6659 188.992-35.2697C188.992-17.8398 174.865-3.75935 157.468-3.75935ZM25.3967-41.6235L15.1567-41.6235C12.6073-41.6235 11.2588-40.3217 11.2588-37.7854L11.2588-36.0121C11.2588-33.5225 12.6073-32.2338 15.1567-32.2338L25.3967-32.2338ZM192.965-32.2338L203.205-32.2338C205.788-32.2338 207.103-33.5225 207.103-36.0121L207.103-37.7854C207.103-40.3217 205.788-41.6235 203.205-41.6235L192.965-41.6235ZM97.3293-34.9248C100.793-37.0081 105.276-37.9601 109.198-37.9601C113.086-37.9601 117.569-37.0081 121.033-34.9248L121.033-43.6973C117.447-45.4328 112.783-46.1229 109.198-46.1229C105.613-46.1229 100.948-45.4328 97.3293-43.6973Z"/>
</svg>