<svg xmlns="http://www.w3.org/2000/svg" viewBox="16.084 -96.7097 135.62 122.88">
  <path d="M93.6146-72.3927C93.6146-75.6568 90.1505-76.8651 87.8273-74.7701L72.362-61.6948C70.6038-60.1778 70.544-57.924 72.362-56.3136L87.8273-43.2046C90.2178-41.0759 93.6146-42.4863 93.6146-45.582ZM118.623-55.9335C120.37-55.9335 121.768-57.2841 121.768-59.0313C121.768-60.7242 120.37-62.0748 118.623-62.0748L84.605-62.0748C82.8111-62.0748 81.4605-60.7242 81.4605-59.0313C81.4605-57.2841 82.8111-55.9335 84.605-55.9335ZM120.396-25.7465C117.132-25.7465 115.923-22.3291 117.971-19.9591L131.094-4.52749C132.597-2.76928 134.864-2.6758 136.475-4.52749L149.584-19.9591C151.699-22.3964 150.336-25.7465 147.16-25.7465ZM136.855-50.1956C136.855-51.9091 135.504-53.3064 133.71-53.3064C132.064-53.3064 130.667-51.9091 130.667-50.1956L130.667-16.7368C130.667-15.0233 132.064-13.626 133.71-13.626C135.504-13.626 136.855-15.0233 136.855-16.7368ZM32.4992-63.8043C23.4434-63.8043 16.084-71.3788 16.084-80.1597C16.084-89.2959 23.4434-96.7097 32.4992-96.7097C41.5887-96.7097 48.8753-89.2959 48.8753-80.1597C48.8753-70.7843 41.5887-63.8043 32.4992-63.8043ZM130.329 22.8057C127.172 26.1703 121.776 25.8355 117.955 21.8407L91.7734-5.09857C90.8888-6.01687 90.2454-6.25813 88.9718-5.74193L67.7746 2.30006C54.75 7.2469 42.7634 2.17697 36.659-8.93956L24.1878-31.5553C19.0671-40.8991 20.7559-50.4842 29.6302-55.1898C38.1568-59.9421 47.0648-56.3493 52.2529-46.8447L69.2985-15.7497L83.7369-21.0182C90.9355-23.659 96.9147-22.8212 102.619-16.956L129.766 11.1895C133.553 15.104 133.198 19.9367 130.329 22.8057Z"/>
</svg>