<svg xmlns="http://www.w3.org/2000/svg" viewBox="12.8672 -95.3771 130.59 118.85">
  <path d="M62.1164 5.35135L72.3689-6.85738C73.334-8.03 73.4948-8.30494 73.91-9.5243L74.787-12.35L69.4793-19.0716L67.7176-10.9588L57.5792 1.08909C54.3624 4.82209 59.4626 8.44099 62.1164 5.35135ZM87.237 4.41999C89.2812 8.56815 95.4399 5.98165 93.1881 1.47813L86.2328-12.6607C85.7503-13.6594 84.9928-14.7983 84.3701-15.7297L79.9209-22.109L80.1752-23.0534C81.4021-26.5713 81.8303-28.6622 82.0716-32.167L82.7954-41.9501C83.1638-46.7547 80.2893-50.166 75.6249-50.166C72.1201-50.166 69.6477-48.3163 66.3505-45.0864L61.0971-39.9939C59.4887-38.3518 58.879-37.0314 58.6714-34.8002L58.1085-26.7321C57.9476-24.789 59.0735-23.4218 60.8428-23.3414C62.7261-23.1806 63.7716-24.226 63.9661-26.3974L64.7366-35.2491L67.2894-37.4802C68.2208-38.3312 69.6271-37.815 69.5467-36.7771L68.9239-29.3392C68.6023-25.5464 69.5804-23.7903 72.1669-20.5473L78.995-11.9163C79.7655-10.9719 79.846-10.6502 80.1209-10.1209ZM99.0849-36.7977L91.1309-36.7977L85.8121-42.6794L85.2492-34.7178L87.6728-32.3072C88.765-31.2618 89.6833-30.8933 91.6601-30.8933L99.0849-30.8933C101.062-30.8933 102.348-31.9855 102.348-33.8689C102.348-35.6381 101.062-36.7977 99.0849-36.7977ZM79.3579-53.3752C83.3246-53.3752 86.5676-56.6181 86.5676-60.5979C86.5676-64.5983 83.3246-67.8281 79.3579-67.8281C75.3108-67.8281 72.0342-64.5983 72.0342-60.5979C72.0342-56.6181 75.3108-53.3752 79.3579-53.3752ZM28.0767 23.4746L128.247 23.4746C137.79 23.4746 143.457 16.7957 143.457 8.49876C143.457 5.66344 142.666 2.66729 141.057-0.147405L91.0084-88.0191C88.158-93.0353 83.1754-95.3771 78.1853-95.3771C73.1485-95.3771 68.1322-93.0353 65.3155-88.0191L15.2667-0.147405C13.6246 2.70097 12.8672 5.66344 12.8672 8.49876C12.8672 16.7957 18.5343 23.4746 28.0767 23.4746ZM28.1572 16.9498C22.6741 16.9498 19.5865 12.9851 19.5865 8.45201C19.5865 6.70542 20.0615 4.71758 21.0451 2.92425L71.0134-84.8876C72.5937-87.6797 75.4063-88.7719 78.1853-88.7719C80.8839-88.7719 83.6628-87.6797 85.2768-84.8876L135.245 2.95792C136.229 4.75125 136.704 6.70542 136.704 8.45201C136.704 12.9851 133.616 16.9498 128.133 16.9498Z"/>
</svg>