<svg xmlns="http://www.w3.org/2000/svg" viewBox="15.7754 -95.4607 184.46 120.5">
  <path d="M50.7813-68.8074C58.1015-68.8074 64.0003-74.9345 64.0003-82.0004C64.0003-89.4141 58.1015-95.4607 50.7813-95.4607C43.3806-95.4607 37.622-89.4141 37.622-82.0004C37.622-74.467 43.3806-68.8074 50.7813-68.8074ZM25.3212-19.049L63.4766-61.547C59.536-63.088 55.4401-63.6249 50.7813-63.6249C33.6739-63.6249 23.5183-55.3526 23.5183-41.5837C23.5183-38.2452 23.6792-33.7472 24.1954-29.2492ZM76.3479-19.049L77.3672-29.2492C77.8366-33.7472 78.0442-38.2452 78.0442-41.5837C78.0442-48.6008 75.5643-54.2378 70.4456-58.0718L39.3733-23.3676C43.2183-24.0838 46.9699-24.3848 50.7813-24.3848C59.2611-24.3848 67.7072-23.2253 76.3479-19.049ZM36.1875 24.68C39.6531 24.2106 42.0265 21.6502 41.5571 17.3261L39.1369-4.80854L62.405-4.80854L60.1457 17.3261C59.7099 21.6502 61.8888 24.2106 65.4348 24.68C69.0613 25.0354 71.8499 22.8228 72.2856 18.5063L75.3959-11.0737C67.5801-15.525 59.0666-17.2812 50.7813-17.2812C42.5558-17.2812 33.9488-15.525 26.3069-11.0737L29.3367 18.5063C29.7725 22.8228 32.5143 25.0354 36.1875 24.68ZM70.4456-58.1055L81.8411-70.7747C83.6048-72.7666 83.444-74.9736 81.727-76.4288C80.0904-77.811 78.0442-77.8447 76.2599-75.8321L63.4766-61.547C65.9717-60.5744 68.3526-59.4204 70.4456-58.1055ZM17.7075-14.4314C15.7754-12.9893 15.7754-10.829 16.7143-9.2598C17.6195-7.73733 19.7517-6.89945 21.7642-8.30027C23.2585-9.32511 24.6854-10.2228 26.3069-11.0737L25.3212-19.049C22.5533-17.7623 20.0266-16.268 17.7075-14.4314ZM83.9486-14.4314C81.5958-16.268 79.1027-17.7623 76.3479-19.049L75.3622-11.0737C76.9837-10.2228 78.4106-9.32511 79.9049-8.30027C81.8838-6.89945 83.9822-7.70365 84.9211-9.27286C85.8937-10.8084 85.8937-12.9556 83.9486-14.4314ZM105.557-57.4435L105.557-42.6573C105.557-38.3875 108.714-35.2642 112.951-35.2642L124.66-35.2642C128.943-35.2642 132.1-38.3875 132.1-42.6573L132.1-57.4435C132.1-61.7134 128.943-64.8703 124.66-64.8703L112.951-64.8703C108.714-64.8703 105.557-61.7134 105.557-57.4435ZM139.607-57.4435L139.607-42.6573C139.607-38.3875 142.811-35.2642 147.081-35.2642L158.757-35.2642C163.027-35.2642 166.15-38.3875 166.15-42.6573L166.15-57.4435C166.15-61.7134 163.027-64.8703 158.757-64.8703L147.081-64.8703C142.811-64.8703 139.607-61.7134 139.607-57.4435ZM173.691-57.4435L173.691-42.6573C173.691-38.3875 176.861-35.2642 181.177-35.2642L192.794-35.2642C197.076-35.2642 200.233-38.3875 200.233-42.6573L200.233-57.4435C200.233-61.7134 197.076-64.8703 192.794-64.8703L181.177-64.8703C176.861-64.8703 173.691-61.7134 173.691-57.4435ZM105.557-14.0031L105.557 0.816787C105.557 5.05291 108.714 8.20991 112.951 8.20991L124.66 8.20991C128.943 8.20991 132.1 5.05291 132.1 0.816787L132.1-14.0031C132.1-18.2393 128.943-21.3962 124.66-21.3962L112.951-21.3962C108.714-21.3962 105.557-18.2393 105.557-14.0031ZM139.607-14.0031L139.607 0.816787C139.607 5.05291 142.811 8.20991 147.081 8.20991L158.757 8.20991C163.027 8.20991 166.15 5.05291 166.15 0.816787L166.15-14.0031C166.15-18.2393 163.027-21.3962 158.757-21.3962L147.081-21.3962C142.811-21.3962 139.607-18.2393 139.607-14.0031ZM173.691-14.0031L173.691 0.816787C173.691 5.05291 176.861 8.20991 181.177 8.20991L192.794 8.20991C197.076 8.20991 200.233 5.05291 200.233 0.816787L200.233-14.0031C200.233-18.2393 197.076-21.3962 192.794-21.3962L181.177-21.3962C176.861-21.3962 173.691-18.2393 173.691-14.0031ZM118.808-43.643C115.283-43.643 112.274-46.525 112.274-50.1308C112.274-53.6226 115.283-56.4579 118.808-56.4579C122.3-56.4579 125.229-53.6226 125.229-50.1308C125.229-46.525 122.3-43.643 118.808-43.643ZM152.811-43.643C149.286-43.643 146.323-46.525 146.323-50.1308C146.323-53.6226 149.286-56.4579 152.811-56.4579C156.256-56.4579 159.265-53.6226 159.265-50.1308C159.265-46.525 156.256-43.643 152.811-43.643ZM186.861-43.643C183.336-43.643 180.373-46.525 180.373-50.1308C180.373-53.6226 183.336-56.4579 186.861-56.4579C190.306-56.4579 193.315-53.6226 193.315-50.1308C193.315-46.525 190.306-43.643 186.861-43.643ZM118.808-0.202544C115.283-0.202544 112.274-3.03786 112.274-6.64369C112.274-10.1354 115.283-13.0175 118.808-13.0175C122.3-13.0175 125.229-10.1354 125.229-6.64369C125.229-3.03786 122.3-0.202544 118.808-0.202544ZM152.811-0.202544C149.286-0.202544 146.323-3.03786 146.323-6.64369C146.323-10.1354 149.286-13.0175 152.811-13.0175C156.256-13.0175 159.265-10.1354 159.265-6.64369C159.265-3.03786 156.256-0.202544 152.811-0.202544ZM186.861-0.202544C183.336-0.202544 180.373-3.03786 180.373-6.64369C180.373-10.1354 183.336-13.0175 186.861-13.0175C190.306-13.0175 193.315-10.1354 193.315-6.64369C193.315-3.03786 190.306-0.202544 186.861-0.202544ZM140.12-73.986L165.557-73.986C167.087-73.986 167.502-75.6562 166.208-76.5147L154.515-84.4948C153.415-85.2392 152.295-85.2392 151.162-84.4948L139.503-76.5147C138.209-75.6562 138.624-73.986 140.12-73.986Z"/>
</svg>