<svg xmlns="http://www.w3.org/2000/svg" viewBox="16.084 -107.816 83.87 145.06">
  <path d="M46.3225-81.4189C53.5417-81.4189 59.5209-87.3981 59.5209-94.6641C59.5209-101.917 53.5417-107.816 46.3225-107.816C39.0228-107.816 33.0773-101.917 33.0773-94.6641C33.0773-87.3981 39.0228-81.4189 46.3225-81.4189ZM77.3933 15.0229C80.107 13.8895 81.9491 10.7999 80.2603 6.53763L69.6091-20.1473C69.2874-21.0319 68.6908-21.6155 67.3368-22.5674L47.9515-37.0059L49.3523-58.469C49.4327-59.6155 50.351-60.0176 51.5106-59.6155L64.1124-55.3587C65.3056-54.9566 66.7738-54.7958 68.1746-54.9566L91.6221-57.6311C99.9542-58.5494 98.4392-70.6687 90.2213-69.7504L67.4509-67.19L44.325-74.8918C35.8322-77.7271 28.5793-72.9411 27.9022-64.4819L26.1461-43.3535C25.6299-37.0059 28.9814-30.7854 34.3173-27.6414L59.1656-13.3302L68.8517 11.0824C70.5144 15.1521 74.4907 16.1639 77.3933 15.0229ZM20.9057 25.562C23.3857 26.9216 26.7296 26.6261 28.9814 23.2821L44.9217-0.567488C45.4379-1.35862 45.8399-2.43776 45.9204-3.79183L46.5974-14.7104L32.836-22.6403L33.6739-5.70885L18.9268 16.4183C16.3926 20.2598 18.0292 24.021 20.9057 25.562ZM67.7203 33.1331L91.5156 25.2706C92.7651 24.8272 93.4834 23.8471 93.4834 22.4628L93.4834-52.4485C92.8662-52.3007 92.1218-52.153 91.3774-52.0725L88.3937-51.7433L88.3937 20.9328L66.2762 28.3053C64.43 28.8964 63.9399 30.5144 64.4637 31.7564C64.8397 32.8843 66.1154 33.6906 67.7203 33.1331ZM18.5549 37.2427L44.7437 37.2427C46.1204 37.2427 47.282 36.1278 47.282 34.738C47.282 33.3146 46.1204 32.2334 44.7437 32.2334L18.5549 32.2334C17.2119 32.2334 16.084 33.3146 16.084 34.738C16.084 36.1278 17.2119 37.2427 18.5549 37.2427Z"/>
</svg>