<svg xmlns="http://www.w3.org/2000/svg" viewBox="15.7754 -95.427 150.37 120.5">
  <path d="M50.828-68.7738C58.1015-68.7738 64.034-74.9008 64.034-81.9667C64.034-89.3804 58.1015-95.427 50.828-95.427C43.3002-95.427 37.5753-89.3804 37.5753-81.9667C37.5753-74.4334 43.3002-68.7738 50.828-68.7738ZM25.2745-19.0153L63.4429-61.5133C59.536-63.0544 55.3597-63.5912 50.828-63.5912C33.6402-63.5912 23.4716-55.3526 23.4716-41.55C23.4716-38.2116 23.739-33.7136 24.2084-29.2156ZM76.3479-19.0153L77.3803-29.2156C77.8497-33.7136 78.091-38.2116 78.091-41.55C78.091-48.6008 75.5773-54.2041 70.4119-58.0381L39.2929-23.3339C43.2183-24.0501 46.9362-24.3512 50.828-24.3512C59.2143-24.3512 67.7072-23.2253 76.3479-19.0153ZM36.1408 24.7137C39.6401 24.2443 41.9124 21.6839 41.4767 17.3598L39.1706-4.77486L62.4387-4.77486L60.112 17.3598C59.6426 21.6839 61.8888 24.2443 65.4348 24.7137C69.0613 25.0691 71.8499 22.8565 72.2856 18.54L75.4296-11.0401C67.5801-15.4913 58.9861-17.2475 50.828-17.2475C42.5558-17.2475 33.9152-15.4913 26.2732-11.0401L29.3367 18.54C29.7725 22.8565 32.4339 25.0691 36.1408 24.7137ZM70.4119-58.0718L81.8411-70.741C83.6722-72.7329 83.4777-74.94 81.6933-76.4288C80.0904-77.7773 78.091-77.811 76.2262-75.7985L63.4429-61.5133C65.9717-60.5407 68.3395-59.3867 70.4119-58.0718ZM17.7205-14.3977C15.809-12.9556 15.7754-10.7953 16.6675-9.22612C17.6663-7.70365 19.7647-6.86578 21.7642-8.26659C23.2585-9.29144 24.7191-10.1891 26.2732-11.0401L25.2745-19.0153C22.5664-17.7286 20.0266-16.2343 17.7205-14.3977ZM83.9149-14.3977C81.6425-16.2343 79.1158-17.7286 76.3479-19.0153L75.3959-11.0401C76.9837-10.1891 78.3302-9.29144 79.8245-8.26659C81.8838-6.86578 83.9486-7.66997 84.9679-9.23918C85.8807-10.7747 85.8807-12.922 83.9149-14.3977ZM105.524-42.7673L105.524-27.9344C105.524-23.7113 108.681-20.588 112.951-20.588L124.627-20.588C128.896-20.588 132.1-23.7113 132.1-27.9344L132.1-42.7673C132.1-47.0371 128.896-50.1941 124.627-50.1941L112.951-50.1941C108.681-50.1941 105.524-47.0371 105.524-42.7673ZM139.688-42.7673L139.688-27.9344C139.688-23.7113 142.764-20.588 147.047-20.588L158.757-20.588C162.993-20.588 166.15-23.7113 166.15-27.9344L166.15-42.7673C166.15-47.0371 162.993-50.1941 158.757-50.1941L147.047-50.1941C142.764-50.1941 139.688-47.0371 139.688-42.7673ZM118.909-29.021C115.384-29.021 112.375-31.9031 112.375-35.5089C112.375-39.0007 115.384-41.8827 118.909-41.8827C122.401-41.8827 125.317-39.0007 125.317-35.5089C125.317-31.9031 122.401-29.021 118.909-29.021ZM152.912-29.021C149.387-29.021 146.378-31.9031 146.378-35.5089C146.378-39.0007 149.387-41.8827 152.912-41.8827C156.357-41.8827 159.366-39.0007 159.366-35.5089C159.366-31.9031 156.357-29.021 152.912-29.021ZM123.456-59.3771L148.893-59.3771C150.389-59.3771 150.804-61.0473 149.51-61.9058L137.851-69.886C136.718-70.6304 135.597-70.6304 134.498-69.886L122.805-61.9058C121.511-61.0473 121.926-59.3771 123.456-59.3771Z"/>
</svg>