<svg xmlns="http://www.w3.org/2000/svg" viewBox="11.2588 -97.925 125.34 125.31">
  <path d="M73.9141 27.3856C108.426 27.3856 136.603-0.791611 136.603-35.2697C136.603-69.7478 108.426-97.925 73.9141-97.925C39.436-97.925 11.2588-69.7478 11.2588-35.2697C11.2588-0.791611 39.436 27.3856 73.9141 27.3856ZM72.6088-15.4135C70.645-15.4135 69.0497-16.9752 69.0497-18.9389L69.0497-35.1446L56.0608-48.2008C53.5341-50.7275 52.7767-54.4811 54.1775-57.8924C55.5783-61.1429 58.7484-63.2675 62.3542-63.2675L79.74-63.2675C83.6338-63.2675 86.8376-60.1778 86.8376-56.2036L86.8376-43.7907L97.5073-43.7907C99.3776-43.7907 100.939-42.1487 100.939-40.2316C100.939-38.3016 99.3776-36.7062 97.5073-36.7062L83.2785-36.7062C81.3484-36.7062 79.74-38.3016 79.74-40.2316L79.74-49.005C79.74-50.0037 79.3042-50.9687 77.9371-50.9687L66.6034-50.9687C65.7188-50.9687 65.283-50.0037 65.8796-49.3266L75.1355-39.0253C75.8125-38.3016 76.1342-37.4974 76.1342-36.6595L76.1342-18.9389C76.1342-16.9752 74.5388-15.4135 72.6088-15.4135ZM49.4176-3.9637C40.1075-3.9637 32.8134-11.284 32.8134-20.6614C32.8134-30.052 40.1075-37.4059 49.4176-37.4059C58.8082-37.4059 66.2762-30.052 66.2762-20.6614C66.2762-11.284 58.8082-3.9637 49.4176-3.9637ZM49.4176-7.38664C56.8087-7.38664 62.8196-13.2834 62.8196-20.6614C62.8196-28.0525 56.8087-34.0297 49.4176-34.0297C42.107-34.0297 36.1765-28.0525 36.1765-20.6614C36.1765-13.2834 42.107-7.38664 49.4176-7.38664ZM104.524-30.3173C103.498-31.391 103.612-32.3505 104.148-32.9753C104.706-33.5121 105.72-33.8076 106.646-33.0426C110.192-29.9791 112.417-25.5409 112.417-20.5006C112.417-11.1231 104.983-3.75612 95.6391-3.75612C86.3083-3.75612 78.9544-11.1231 78.9544-20.5006C78.9544-22.9001 79.4238-25.1127 80.4226-27.3308C80.8453-28.3783 81.8385-28.6065 82.5904-28.2642C83.376-27.9556 83.9933-27.0428 83.376-25.7877C82.6859-24.1456 82.3306-22.3296 82.3306-20.5006C82.3306-13.1226 88.2947-7.17906 95.6391-7.17906C103.03-7.17906 109.007-13.1226 109.007-20.5006C109.007-24.4206 107.238-27.9254 104.524-30.3173ZM98.1974-53.804C93.9145-53.804 90.5032-57.2958 90.5032-61.545C90.5032-65.7942 93.9145-69.2391 98.1974-69.2391C102.4-69.2391 105.811-65.7942 105.811-61.545C105.811-57.2958 102.4-53.804 98.1974-53.804Z"/>
</svg>