<svg xmlns="http://www.w3.org/2000/svg" viewBox="16.084 -100.441 134.09 130.34">
  <path d="M22.7876 18.4165L143.501 18.4165L143.501 15.2947C143.501 13.7083 142.513 12.7674 140.893 12.7674L136.872 12.7674L136.872-60.7285L142.728-60.7285C145.033-60.7285 146.29-62.3149 146.29-64.0415C146.29-65.1845 145.611-66.333 144.112-67.2403L89.9711-98.4824C87.7716-99.7767 85.4243-100.441 83.1444-100.441C80.8308-100.441 78.4367-99.7767 76.2372-98.4824L22.0961-67.2403C20.6107-66.333 19.9653-65.1845 19.9653-64.0415C19.9653-62.3149 21.1757-60.7285 23.5271-60.7285L29.4163-60.7285L29.4163 12.7674L25.3953 12.7674C23.7753 12.7674 22.7876 13.7083 22.7876 15.2947ZM35.739 12.7674L35.739-67.3573L79.8045-92.2999C80.8218-92.889 81.9999-93.2237 83.1444-93.2237C84.2551-93.2237 85.3865-92.889 86.4038-92.2999L130.583-67.3573L130.583 12.7674ZM19.3969 29.9012L146.858 29.9012C148.639 29.9012 150.171 28.3692 150.171 26.5546C150.171 24.727 148.639 23.2417 146.858 23.2417L19.3969 23.2417C17.5693 23.2417 16.084 24.727 16.084 26.5546C16.084 28.3692 17.5693 29.9012 19.3969 29.9012ZM67.9581-7.37358C76.9692-7.37358 81.2877-12.3802 82.769-21.2772L85.0599-34.3012L99.3108-34.3012C100.392-34.3012 101.258-35.0531 101.258-36.1941C101.258-37.2883 100.392-38.1207 99.3108-38.1207L85.7108-38.1207L87.379-47.7093C88.4376-53.9071 91.4468-57.249 97.6577-57.249C100.096-57.249 101.624-56.5795 102.978-56.5795C104.322-56.5795 105.12-57.2978 105.12-58.4931C105.12-59.7482 104.22-60.4066 102.986-60.9097C101.097-61.6803 98.5835-61.8748 97.248-61.8748C88.3847-61.8748 83.6902-56.9486 82.1752-48.1656L80.4266-38.1207L66.9332-38.1207C65.7586-38.1207 64.9262-37.2883 64.9262-36.1941C64.9262-35.0531 65.7586-34.3012 66.9332-34.3012L79.7757-34.3012L77.5858-21.8814C76.4469-15.6162 73.8267-11.9993 67.4343-11.9993C64.8946-11.9993 63.8773-12.6482 61.9919-12.6482C60.7705-12.6482 59.9718-11.8158 59.9718-10.7553C59.9718-9.51327 60.7705-8.79501 62.0854-8.25819C63.8415-7.54748 66.0878-7.37358 67.9581-7.37358Z"/>
</svg>