<svg xmlns="http://www.w3.org/2000/svg" viewBox="11.2588 -97.925 125.34 125.31">
  <path d="M73.9141 27.3856C108.519 27.3856 136.603-0.66445 136.603-35.2697C136.603-69.875 108.519-97.925 73.9141-97.925C39.3425-97.925 11.2588-69.875 11.2588-35.2697C11.2588-0.66445 39.3425 27.3856 73.9141 27.3856ZM73.9141 20.4903C43.0726 20.4903 18.141-4.42824 18.141-35.2697C18.141-66.1112 43.0726-91.0297 73.9141-91.0297C104.756-91.0297 129.674-66.1112 129.674-35.2697C129.674-4.42824 104.756 20.4903 73.9141 20.4903ZM82.1993-11.9555C83.2187-11.9555 84.1837-12.3706 85.1302-12.9411L117.114-31.7065C118.571-32.5595 119.349-33.7472 119.349-35.236C119.349-36.6781 118.571-37.8658 117.114-38.7188L85.1302-57.4842C84.1837-58.0547 83.2187-58.4698 82.1993-58.4698C80.2672-58.4698 78.5241-57.0278 78.5241-54.1306L78.5241-16.2947C78.5241-13.3975 80.2672-11.9555 82.1993-11.9555ZM41.5013-11.9555C42.4609-11.9555 43.5063-12.3706 44.4659-12.9411L76.3563-31.7065C77.9069-32.5595 78.685-33.7472 78.685-35.236C78.685-36.6781 77.9069-37.8658 76.3563-38.7188L44.4659-57.4842C43.5063-58.0547 42.4609-58.4698 41.5013-58.4698C39.5562-58.4698 37.8261-57.0278 37.8261-54.1306L37.8261-16.2947C37.8261-13.3975 39.5562-11.9555 41.5013-11.9555Z" />
</svg>