<svg xmlns="http://www.w3.org/2000/svg" viewBox="11.2588 -110.214 119.31 135.94">
  <path d="M39.5698-110.214C23.919-110.214 11.2588-97.5537 11.2588-81.9832C11.2588-75.3174 13.5256-69.1079 17.5487-64.1796C18.2539-63.2462 19.1873-62.8703 20.0403-62.8703C22.1765-62.8703 23.9965-65.3825 22.1765-67.5524C18.8586-71.4331 16.9416-76.5202 16.9416-81.9832C16.9416-94.4634 27.0223-104.484 39.5698-104.484C52.0033-104.484 62.0241-94.4167 62.0241-81.9832C62.0241-81.5811 62.0241-81.3193 62.0241-80.8759C62.0241-78.9549 63.4345-78.0682 64.7645-78.0682C66.3151-78.0682 67.619-79.1755 67.6863-80.6869C67.72-81.0162 67.72-81.3921 67.72-81.9832C67.72-97.5537 55.0935-110.214 39.5698-110.214ZM97.4623 19.1676C122.35 10.0988 130.568-9.16546 120.455-36.9626L116.72-47.1484C113.034-57.4029 105.763-61.7531 100.087-59.7557C98.7999-59.2732 98.3641-58.2951 98.7999-57.0888L100.85-51.5625C101.454-49.7967 100.883-48.4949 99.789-48.0722C98.6143-47.6495 97.3125-48.233 96.6279-49.9988L95.2683-53.883C93.0503-59.9949 87.6621-62.5684 82.3544-60.6383C79.9418-59.7537 79.2648-58.3865 79.9886-56.3424L82.6349-48.9533C83.3195-47.1875 82.7153-45.9194 81.5612-45.463C80.4333-45.0403 79.1315-45.6239 78.4937-47.4364L76.0419-54.2961C73.4684-61.1655 68.3216-62.9347 63.1747-61.0851C60.9229-60.2809 60.1187-58.7529 60.7621-56.7892L65.8677-42.8524C66.5056-41.0399 65.9014-39.7718 64.7941-39.3491C63.6195-38.8927 62.3644-39.5566 61.6798-41.3355L45.9079-84.6432C44.2995-89.0663 40.6057-90.7757 36.9064-89.4086C33.1191-88.0545 31.2901-84.3009 32.8985-79.9582L55.1698-18.7885C55.673-17.3465 54.9959-16.2337 53.9972-15.8783C53.092-15.5697 52.14-15.7848 51.0066-16.9987L35.1955-33.7226C32.7362-36.296 30.2899-36.7991 27.8361-35.8939C23.7683-34.3996 22.4665-30.8068 23.7065-27.3824C24.1423-26.2023 24.8193-25.2036 25.5561-24.2591L45.9471 1.67876C60.9154 20.5354 79.5171 25.7304 97.4623 19.1676Z"/>
</svg>