<svg xmlns="http://www.w3.org/2000/svg" viewBox="11.2588 -101.236 117.38 126.07">
  <path d="M11.2588-15.5058C11.2588 3.48693 23.6681 18.8759 38.2584 18.8759L57.0567 18.8759C64.2518 22.6315 72.9955 24.831 82.8053 24.831L90.696 24.831C97.9022 24.831 103.863 24.442 107.852 23.4096C114.99 21.5991 119.45 16.8352 119.45 10.5096C119.45 8.78158 119.103 7.27422 118.467 5.80053C122.602 3.17077 124.981-0.953299 124.981-5.61969C124.981-8.23232 124.392-10.7384 123.307-12.5956C126.169-14.8439 127.883-18.8126 127.883-23.002C127.883-25.9102 127.053-28.9194 125.694-30.8178C127.536-32.8771 128.641-36.1351 128.641-39.6942C128.641-47.3347 122.671-53.3854 115.043-53.3854L93.8902-53.3854C91.1228-53.3854 89.4381-54.6756 89.4381-56.7886C89.4381-63.5026 99.2252-77.9898 99.2252-89.2341C99.2252-96.2649 94.4015-101.236 87.6456-101.236C82.6143-101.236 79.3803-98.5936 75.9931-92.0941C68.7478-78.0935 62.0552-69.1877 47.1066-50.2092L36.1132-50.2092C22.5086-50.2092 11.2588-34.9344 11.2588-15.5058ZM41.6634-15.5677C41.6634-28.1695 44.4987-36.2733 52.3949-46.8441C61.0693-58.4211 72.9755-72.1639 81.5694-89.2788C83.8548-93.816 85.3491-95.0147 87.8009-95.0147C90.9408-95.0147 93.0035-92.8248 93.0035-89.2341C93.0035-79.6827 83.2164-65.5117 83.2164-56.7886C83.2164-50.9194 88.0326-47.1974 94.517-47.1974L115.043-47.1974C119.231-47.1974 122.419-43.9283 122.419-39.6942C122.419-36.9057 121.594-34.9962 119.722-33.2304C118.336-32.0317 118.162-30.4851 119.4-29.219C120.871-27.3708 121.662-25.4146 121.662-23.002C121.662-20.0938 120.295-17.5747 117.96-15.9904C116.386-14.9243 115.776-13.3627 116.814-11.4663C118.082-9.37126 118.759-7.83777 118.759-5.61969C118.759-2.40289 116.808 0.196672 112.892 2.08204C111.478 2.8395 111.003 4.05886 111.846 5.59236C112.987 8.07842 113.195 9.02836 113.195 10.5096C113.195 13.7917 110.904 16.2902 106.341 17.4161C102.956 18.2877 97.4589 18.643 90.696 18.643L83.1757 18.643C58.4003 18.643 41.6634 4.38606 41.6634-15.5677ZM17.4805-15.5058C17.4805-31.541 26.3246-44.0212 36.1132-44.0212C38.4227-44.0212 40.6725-44.0212 42.9689-44.0212C37.6185-35.1434 35.4417-26.6842 35.4417-15.6687C35.4417-4.16314 40.1095 5.72851 48.3475 12.6542C44.9533 12.6542 41.6526 12.6542 38.2584 12.6542C27.2429 12.6542 17.4805 0.0805381 17.4805-15.5058Z"/>
</svg>