<svg xmlns="http://www.w3.org/2000/svg" viewBox="11.2588 -95.1103 168.94 119.68">
  <path d="M70.6543-22.9112C70.6543-6.04419 81.4396 3.01162 95.6402 3.01162C107.323 3.01162 115.935-2.49757 120.654-15.7842C122.941-21.6584 124.752-27.9909 126.629-34.7482C127.208-36.7236 127.894-38.8357 127.894-39.8571C127.894-41.7741 126.447-43.001 124.589-43.001C122.831-43.001 121.511-42.0003 120.316-39.4771L115.363-27.856C114.761-26.317 113.938-25.8681 113.129-25.8681C112.098-25.8681 111.296-26.5507 111.296-28.1962L111.296-65.795C111.296-67.7794 109.633-69.4421 107.649-69.4421C105.698-69.4421 104.069-67.7794 104.069-65.795L104.069-39.3856C102.904-39.8269 101.646-40.2421 100.387-40.5431L100.387-72.2823C100.387-74.233 98.758-75.9087 96.7737-75.9087C94.7556-75.9087 93.1266-74.233 93.1266-72.2823L93.1266-40.9583C91.7148-40.8779 90.2356-40.704 88.9303-40.4497L88.9303-68.3795C88.9303-70.3638 87.2545-71.9928 85.2701-71.9928C83.2858-71.9928 81.61-70.3638 81.61-68.3795L81.61-38.0632C80.1776-37.4611 78.9994-36.7112 77.9278-35.9482L77.9278-56.8086C77.9278-58.8266 76.2988-60.4893 74.2677-60.4893C72.2833-60.4893 70.6543-58.8266 70.6543-56.8086ZM95.7076 24.5709C128.785 24.5709 155.548-2.23917 155.548-35.2697C155.548-68.3002 128.785-95.1103 95.7076-95.1103C62.7107-95.1103 35.867-68.3002 35.867-35.2697C35.867-2.23917 62.7107 24.5709 95.7076 24.5709ZM95.7076 17.6756C66.5213 17.6756 42.7623-6.03664 42.7623-35.2697C42.7623-64.5028 66.5213-88.215 95.7076-88.215C124.941-88.215 148.7-64.5028 148.7-35.2697C148.7-6.03664 124.941 17.6756 95.7076 17.6756ZM11.2588-35.2697C11.2588-15.8789 17.7859 1.90347 28.7099 16.1549C30.0268 17.8554 32.1108 18.0368 33.7102 16.733C35.2423 15.4965 35.4237 13.5005 34.2078 11.8543C24.1574-1.16063 18.1746-17.5587 18.1746-35.2697C18.1746-53.0143 24.1574-69.3788 34.2078-82.4742C35.4237-84.0399 35.2292-86.0359 33.7102-87.3061C32.1575-88.5632 29.9801-88.348 28.7099-86.6943C17.7859-72.4298 11.2588-54.6605 11.2588-35.2697ZM180.203-35.2697C180.203-54.6605 173.676-72.4298 162.752-86.6943C161.482-88.348 159.304-88.5632 157.752-87.3061C156.233-86.0359 156.038-84.0399 157.254-82.4742C167.305-69.3788 173.241-53.0143 173.241-35.2697C173.241-17.5587 167.305-1.16063 157.254 11.8543C156.038 13.5005 156.22 15.4965 157.752 16.733C159.351 18.0368 161.435 17.8554 162.752 16.1549C173.676 1.90347 180.203-15.8789 180.203-35.2697Z"/>
</svg>