<svg xmlns="http://www.w3.org/2000/svg" viewBox="16.1177 -95.4064 139.5 120.35">
  <path d="M41.5109-7.01152C61.2977-7.01152 67.7499-23.3911 89.1663-23.3911C100.474-23.3911 112.582-17.2324 129.483-17.2324C145.385-17.2324 151.289-19.6401 153.693-23.0877C155.537-24.6308 155.613-26.8991 152.56-29.9852C149.159-33.5945 147.429-38.074 145.916-45.7133C140.569-74.285 113.361-95.4064 78.5976-95.4064C40.779-95.4064 16.1177-68.2073 16.1177-39.5491C16.1177-33.697 17.0621-27.0332 18.0814-23.0177C20.206-14.6485 32.539-7.01152 41.5109-7.01152ZM41.5109-13.1995C34.9391-13.1995 25.8366-18.455 24.2488-24.8865C23.3642-28.4381 22.3057-34.2414 22.3057-39.5491C22.3057-64.7597 44.2321-89.4542 78.5976-89.4542C107.588-89.4542 134.708-71.5281 139.774-45.1916C141.544-35.99 143.474-30.9703 147.575-26.6613C148.024-26.1657 148.024-25.4495 147.287-25.1615C143.891-23.8954 140.526-23.3867 129.483-23.3867C113.419-23.3867 100.747-29.377 89.1326-29.377C67.0728-29.377 59.4501-13.1995 41.5109-13.1995ZM64.3763-72.7976C66.1888-72.7976 67.5917-74.3146 67.5917-76.1814L67.5917-90.0267L61.0936-89.5256L61.0936-76.2281C61.0936-74.3277 62.5769-72.7976 64.3763-72.7976ZM82.6055-69.609C84.4648-69.609 85.948-71.0923 85.948-72.9928L85.948-91.5436L79.3695-91.5436L79.3695-72.9721C79.3695-71.1053 80.8061-69.609 82.6055-69.609ZM101.068-72.764C102.928-72.764 104.364-74.2809 104.364-76.1814L104.364-88.056L97.8324-88.9777L97.8324-76.1945C97.8324-74.294 99.269-72.764 101.068-72.764ZM32.1616-34.8786C33.8469-34.1398 35.6464-34.7178 36.4114-36.4162C37.197-37.9874 36.3647-39.7869 34.6924-40.5388L19.9543-47.3841L18.0573-41.2696ZM95.2526 24.6519C96.9868 24.3563 98.0267 23.0992 97.6844 21.2324C96.6988 15.3075 95.6609 9.30067 95.5337 1.98389C95.3729-5.19613 95.5804-15.5044 95.9825-24.6894L89.688-25.0392C89.413-15.6391 89.0783-4.85587 89.4804 2.50561C89.9162 11.4604 90.4922 15.4703 91.8126 22.2201C92.1549 24.0532 93.6869 24.9474 95.2526 24.6519ZM92.2937 8.47297L92.937 1.86021L63.5364-17.9347L59.1891-14.0176Z"/>
</svg>