<svg xmlns="http://www.w3.org/2000/svg" viewBox="11.2588 -97.925 125.34 125.31">
  <path d="M73.9141 27.3856C108.426 27.3856 136.603-0.791611 136.603-35.2697C136.603-69.7478 108.426-97.925 73.9141-97.925C39.436-97.925 11.2588-69.7478 11.2588-35.2697C11.2588-0.791611 39.436 27.3856 73.9141 27.3856ZM55.8628 2.2417C52.2811 2.2417 50.0012 0.0628076 50.0012-3.61997L50.0012-4.89159C50.0012-14.2429 60.6427-25.565 67.4668-32.3554C69.4477-34.37 69.3803-36.4313 67.4668-38.2644C60.6427-45.0548 50.0012-56.3432 50.0012-65.7956L50.0012-66.9194C50.0012-70.6022 52.2811-72.7811 55.8628-72.7811L91.9653-72.7811C95.547-72.7811 97.8606-70.6022 97.8606-66.9194L97.8606-65.7956C97.8606-56.3432 87.2191-45.0548 80.395-38.2644C78.4347-36.4313 78.3804-34.37 80.395-32.3554C87.2191-25.565 97.8606-14.2429 97.8606-4.89159L97.8606-3.61997C97.8606 0.0628076 95.547 2.2417 91.9653 2.2417ZM58.5861-2.23425L89.2757-2.23425C90.6449-2.23425 91.0937-3.78488 90.0874-4.77053L76.7026-18.8696C76.207-19.4456 76.0593-19.6064 76.0593-20.3302L76.0593-37.6321C76.0593-38.8816 76.3081-39.426 77.2415-40.4061C80.6563-43.9873 84.0057-47.4694 86.8521-50.7571C87.7312-51.7297 87.2748-52.6761 86.1881-52.6761L61.6269-52.6761C60.587-52.6761 60.1306-51.7297 60.976-50.7571C63.856-47.4694 67.1718-43.9873 70.5866-40.4061C71.5537-39.426 71.8025-38.8816 71.8025-37.6321L71.8025-20.3302C71.8025-19.6064 71.6547-19.4456 71.1592-18.8696L57.7743-4.77053C56.7213-3.78488 57.1832-2.23425 58.5861-2.23425Z"/>
</svg>