<svg xmlns="http://www.w3.org/2000/svg" viewBox="11.2588 -97.925 125.34 125.31">
  <path d="M73.9141 27.3856C108.519 27.3856 136.603-0.66445 136.603-35.2697C136.603-69.875 108.519-97.925 73.9141-97.925C39.3425-97.925 11.2588-69.875 11.2588-35.2697C11.2588-0.66445 39.3425 27.3856 73.9141 27.3856ZM73.9141 20.4903C43.0726 20.4903 18.141-4.42824 18.141-35.2697C18.141-66.1112 43.0726-91.0297 73.9141-91.0297C104.756-91.0297 129.674-66.1112 129.674-35.2697C129.674-4.42824 104.756 20.4903 73.9141 20.4903ZM43.1591-33.8689L72.6816-56.8478C73.0968-57.1488 73.4521-57.3097 73.8673-57.3097C74.2955-57.3097 74.6378-57.1488 75.0661-56.8478L104.622-33.8689C106.702-32.2585 108.816-35.0491 107.031-36.4911L77.1645-59.7937C76.2462-60.5175 74.9932-61.0467 73.8673-61.0467C72.7414-61.0467 71.5221-60.5044 70.5701-59.7937L40.75-36.4911C38.932-35.0958 41.0455-32.2585 43.1591-33.8689ZM51.9539-16.6253L95.7938-16.6253C99.2649-16.6253 101.122-18.5087 101.122-21.9667L101.122-32.5252C100.131-33.1274 99.2202-33.8099 98.2084-34.5468L73.8673-53.541L49.5056-34.5468C48.5275-33.8099 47.6037-33.1274 46.6256-32.5252L46.6256-21.9667C46.6256-18.5087 48.4828-16.6253 51.9539-16.6253ZM66.9065-20.1734L66.8597-32.0172C66.8597-32.8289 67.5237-33.4592 68.3822-33.4592L79.3991-33.4592C80.3381-33.4592 80.8879-32.8289 80.8879-32.0172L80.8879-20.1734ZM38.7113-39.1731L49.4711-47.4996L45.0549-47.4996C43.6561-47.4996 42.7378-47.2453 41.7673-46.6356L25.4833-36.2106C24.5162-35.5391 24.8791-33.8668 26.3699-33.8668L37.0356-33.8668C36.5249-35.6175 36.7792-37.617 38.7113-39.1731ZM43.3263-21.9667L43.3263-31.0687L29.0705-31.035L29.0705-21.9667C29.0705-18.5087 30.9745-16.6253 34.4325-16.6253L44.8543-16.6253C43.8425-18.0598 43.3263-19.8758 43.3263-21.9667ZM108.99-39.1731C110.968-37.6637 111.256-35.6175 110.712-33.8668L121.424-33.8668C122.822-33.8668 123.265-35.4718 122.231-36.2106L105.934-46.6356C105.023-47.2453 104.125-47.4996 102.693-47.4996L98.2766-47.4996ZM104.421-21.9667C104.421-19.8758 103.905-18.0598 102.893-16.6253L113.315-16.6253C116.773-16.6253 118.677-18.5087 118.677-21.9667L118.677-31.035L104.421-31.0687Z" />
</svg>