<svg xmlns="http://www.w3.org/2000/svg" viewBox="16.0503 -88.0409 142.4 105.54">
  <path d="M24.882-18.0366L43.5908-30.536C46.9368-32.7822 46.8227-37.5366 43.5908-39.8165L24.882-52.544C20.6102-55.4075 16.0503-53.8514 16.084-48.6145L16.084-21.852C16.0503-16.8227 20.8047-15.3209 24.882-18.0366ZM72.9653-81.415L155.071-81.415C156.966-81.415 158.451-82.8667 158.451-84.728C158.451-86.5892 156.966-88.0409 155.071-88.0409L72.9653-88.0409C71.0573-88.0409 69.6524-86.5892 69.6524-84.728C69.6524-82.8667 71.0573-81.415 72.9653-81.415ZM72.9653-48.4429L155.071-48.4429C156.966-48.4429 158.451-49.8945 158.451-51.7558C158.451-53.6171 156.966-55.0687 155.071-55.0687L72.9653-55.0687C71.0573-55.0687 69.6524-53.6171 69.6524-51.7558C69.6524-49.8945 71.0573-48.4429 72.9653-48.4429ZM72.9653-15.4707L155.071-15.4707C156.966-15.4707 158.451-16.9223 158.451-18.7836C158.451-20.6449 156.966-22.0965 155.071-22.0965L72.9653-22.0965C71.0573-22.0965 69.6524-20.6449 69.6524-18.7836C69.6524-16.9223 71.0573-15.4707 72.9653-15.4707ZM72.9653 17.5015L122.903 17.5015C124.798 17.5015 126.283 16.0498 126.283 14.1885C126.283 12.3273 124.798 10.8756 122.903 10.8756L72.9653 10.8756C71.0573 10.8756 69.6524 12.3273 69.6524 14.1885C69.6524 16.0498 71.0573 17.5015 72.9653 17.5015Z" />
</svg>