<svg xmlns="http://www.w3.org/2000/svg" viewBox="16.084 -98.1668 129.83 125.86">
  <path d="M64.6266 27.6948L127.93 27.6948C139.812 27.6948 145.913 21.6276 145.913 9.84647L145.913-53.7265C145.913-65.5076 139.812-71.5748 127.93-71.5748L112.42-71.5748L112.42-64.949L127.769-64.949C135.289-64.949 139.287-61.018 139.287-53.3636L139.287 9.48356C139.287 17.138 135.289 21.0689 127.769 21.0689L64.7874 21.0689C57.4547 21.0689 53.2694 17.138 53.2694 9.48356L53.2694-1.90154L46.6436-1.90154L46.6436 9.84647C46.6436 21.5341 52.7781 27.6948 64.6266 27.6948ZM34.067 1.10275L97.3705 1.10275C109.253 1.10275 115.354-4.96446 115.354-16.7456L115.354-80.3185C115.354-92.0996 109.253-98.1668 97.3705-98.1668L34.067-98.1668C22.2185-98.1668 16.084-92.0061 16.084-80.3185L16.084-16.7456C16.084-5.05794 22.2185 1.10275 34.067 1.10275ZM34.2278-5.52307C26.8951-5.52307 22.7098-9.45406 22.7098-17.1085L22.7098-79.9556C22.7098-87.61 26.8951-91.541 34.2278-91.541L97.2097-91.541C104.729-91.541 108.728-87.61 108.728-79.9556L108.728-17.1085C108.728-9.45406 104.729-5.52307 97.2097-5.52307ZM63.1564-19.7115C73.9408-19.7115 80.0753-26.1994 80.0753-36.8883L80.0753-73.9462C80.0753-76.191 78.8595-77.5752 76.7157-77.5752C74.6523-77.5752 73.4234-76.1236 73.4234-73.9462L73.4234-36.9556C73.4234-29.8491 69.6065-25.516 63.4725-25.516C57.7743-25.516 53.6041-28.7885 52.5229-33.7966C51.8906-35.5156 50.9703-36.2208 49.4458-36.2208C47.5714-36.2208 46.3349-34.9843 46.3349-33.0165C46.3349-32.358 46.449-31.593 46.6642-30.7813C48.3289-24.314 54.8243-19.7115 63.1564-19.7115Z"/>
</svg>