<svg xmlns="http://www.w3.org/2000/svg" viewBox="11.2588 -97.925 125.34 125.31">
  <path d="M73.9141 27.3856C108.519 27.3856 136.603-0.66445 136.603-35.2697C136.603-69.875 108.519-97.925 73.9141-97.925C39.3425-97.925 11.2588-69.875 11.2588-35.2697C11.2588-0.66445 39.3425 27.3856 73.9141 27.3856ZM73.9141 20.4903C43.0726 20.4903 18.141-4.42824 18.141-35.2697C18.141-66.1112 43.0726-91.0297 73.9141-91.0297C104.756-91.0297 129.674-66.1112 129.674-35.2697C129.674-4.42824 104.756 20.4903 73.9141 20.4903ZM57.428-6.73921C59.5717-6.73921 60.8213-8.13655 60.8213-10.3683L60.8213-26.724L68.908-34.9921L89.3843-8.55171C90.3775-7.26296 91.2043-6.78595 92.5604-6.78595C94.375-6.78595 95.7854-8.06919 95.7854-9.94354C95.7854-10.9237 95.3159-11.844 94.7248-12.6035L73.766-39.4591L93.0566-59.0322C93.8292-59.8047 94.1117-60.5436 94.1117-61.4509C94.1117-63.0297 92.7611-64.2662 91.0476-64.2662C89.9327-64.2662 89.2069-63.9369 88.1931-62.9025L61.0962-35.4634L60.8213-35.4634L60.8213-60.6838C60.8213-62.9623 59.5717-64.2662 57.428-64.2662C55.432-64.2662 54.1357-62.9623 54.1357-60.6838L54.1357-10.3683C54.1357-8.13655 55.432-6.73921 57.428-6.73921Z" />
</svg>