<svg xmlns="http://www.w3.org/2000/svg" viewBox="16.084 -106.725 112.84 143.06">
  <path d="M75.2624-30.9744L125.941-81.6534C128.921-84.633 127.55-88.7104 123.203-90.1057C108.973-94.579 96.166-95.3179 80.2182-94.3191L77.2537-97.4912C71.9123-103.261 64.493-103.648 58.643-98.0054C53.0679-92.189 53.3539-84.6351 59.1908-79.361L62.3293-76.5312C61.2969-60.6508 62.0357-47.8434 66.5091-33.4659C67.938-29.0986 71.7947-27.4937 75.2624-30.9744ZM60.0314-92.0621L64.3993-96.6507L55.4942-105.475C54.2109-106.712 52.316-106.725 51.0664-105.475C49.8636-104.319 49.8299-102.331 51.0664-101.094ZM102.084-37.3621C111.473-37.4088 119.193-45.1628 119.193-54.484C119.193-57.8581 118.145-61.1519 116.144-63.9012L92.5863-40.3774C95.3694-38.3628 98.6631-37.3621 102.084-37.3621ZM25.0791-26.9048L67.9282-66.3536L63.3657-71.1051L20.5634-31.6226ZM23.2817-22.0329C27.3033-22.0329 30.4926-25.1417 30.4926-29.197C30.4926-33.2055 27.2566-36.3947 23.2817-36.3947C19.2395-36.3947 16.084-33.2055 16.084-29.197C16.084-25.1417 19.1928-22.0329 23.2817-22.0329ZM47.8551 0.110738L52.5056-4.53971L25.1294-31.8822L20.4322-27.185ZM49.4449 5.31801C53.4665 5.31801 56.6558 2.20921 56.6558-1.87974C56.6558-5.85459 53.4198-9.07749 49.4449-9.07749C45.4027-9.07749 42.2472-5.85459 42.2472-1.87974C42.2472 2.20921 45.356 5.31801 49.4449 5.31801ZM46.1451 30.4877L52.7578 30.4877L52.7578-1.14493L46.1451-1.14493ZM23.5349 36.3334L80.6709 36.3334C82.2627 36.3334 83.3776 35.1849 83.3776 33.5387C83.3776 30.3474 80.7699 27.8634 76.2768 27.8634L27.9626 27.8634C23.4696 27.8634 20.8282 30.3474 20.8282 33.5387C20.8282 35.1849 21.9767 36.3334 23.5349 36.3334Z"/>
</svg>