<svg xmlns="http://www.w3.org/2000/svg" viewBox="11.2588 -97.925 125.34 125.31">
  <path d="M73.9141 27.3856C108.519 27.3856 136.603-0.66445 136.603-35.2697C136.603-69.875 108.519-97.925 73.9141-97.925C39.3425-97.925 11.2588-69.875 11.2588-35.2697C11.2588-0.66445 39.3425 27.3856 73.9141 27.3856ZM73.9141 20.4903C43.0726 20.4903 18.141-4.42824 18.141-35.2697C18.141-66.1112 43.0726-91.0297 73.9141-91.0297C104.756-91.0297 129.674-66.1112 129.674-35.2697C129.674-4.42824 104.756 20.4903 73.9141 20.4903ZM52.0996-53.5381C52.0996-41.4992 60.4764-37.9029 61.7033-14.9894C61.7837-13.8429 62.5542-13.2126 63.5399-13.2126L84.1872-13.2126C85.2402-13.2126 86.0107-13.8429 86.0911-14.9894C87.2844-37.9029 95.6948-41.3775 95.6948-53.3697C95.6948-64.3556 86.0575-73.4953 73.8467-73.4953C61.7033-73.4953 52.0996-64.524 52.0996-53.5381ZM63.8973-5.70885L83.8972-5.70885C85.0512-5.70885 85.977-6.66837 85.977-7.78874C85.977-8.89604 85.0512-9.82189 83.8972-9.82189L63.8973-9.82189C62.7432-9.82189 61.7837-8.89604 61.7837-7.78874C61.7837-6.66837 62.7432-5.70885 63.8973-5.70885ZM73.8804 2.90915C78.3839 2.90915 82.055 0.818229 82.4104-2.35183L65.384-2.35183C65.659 0.818229 69.3432 2.90915 73.8804 2.90915Z" />
</svg>