<svg xmlns="http://www.w3.org/2000/svg" viewBox="16.084 -109.356 81.76 143.11">
  <path d="M37.8798 16.3942L76.0613 16.3942C77.7522 16.3942 79.067 15.0456 79.067 13.3417C79.067 11.6508 77.7522 10.3359 76.0613 10.3359L37.8798 10.3359C36.1759 10.3359 34.8273 11.6508 34.8273 13.3417C34.8273 15.0456 36.1759 16.3942 37.8798 16.3942ZM56.964 33.7559C66.635 33.7559 74.0975 29.2579 74.567 22.3267L39.3741 22.3267C39.8099 29.2579 47.2593 33.7559 56.964 33.7559ZM34.074 1.17706C34.1881 3.21573 35.3084 4.36977 37.6612 4.36977L76.2668 4.36977C78.6196 4.36977 79.7867 3.21573 79.9008 1.17706C81.5092-27.4367 89.0069-40.1802 93.619-51.8336L20.3558-51.8336C24.9212-40.1802 32.4656-27.4367 34.074 1.17706ZM97.8441-71.713C97.8441-92.2131 79.8204-109.356 56.964-109.356C34.1544-109.356 16.084-92.2131 16.084-71.713C16.084-66.3867 16.9143-61.8907 18.2739-57.5632L95.6542-57.5632C97.0137-61.8907 97.8441-66.3867 97.8441-71.713Z"/>
</svg>