<svg xmlns="http://www.w3.org/2000/svg" viewBox="16.084 -132.677 121.9 156.17">
  <path d="M21.338-66.4474C24.297-66.4474 26.592-68.7424 26.592-71.7014C26.592-74.6136 24.297-76.9554 21.338-76.9554C18.4257-76.9554 16.084-74.6136 16.084-71.7014C16.084-68.7424 18.4257-66.4474 21.338-66.4474ZM35.9689-107.525C38.9279-107.525 41.2229-109.866 41.2229-112.825C41.2229-115.704 38.9279-118.046 35.9689-118.046C33.0436-118.046 30.7486-115.704 30.7486-112.825C30.7486-109.866 33.0436-107.525 35.9689-107.525ZM77.033-122.122C79.9453-122.122 82.2871-124.464 82.2871-127.376C82.2871-130.335 79.9453-132.677 77.033-132.677C74.074-132.677 71.779-130.335 71.779-127.376C71.779-124.464 74.074-122.122 77.033-122.122ZM118.097-107.525C121.009-107.525 123.351-109.866 123.351-112.825C123.351-115.704 121.009-118.046 118.097-118.046C115.138-118.046 112.843-115.704 112.843-112.825C112.843-109.866 115.138-107.525 118.097-107.525ZM132.762-66.4474C135.64-66.4474 137.982-68.7424 137.982-71.7014C137.982-74.6136 135.64-76.9554 132.762-76.9554C129.803-76.9554 127.461-74.6136 127.461-71.7014C127.461-68.7424 129.803-66.4474 132.762-66.4474ZM77.033-109.356C55.8504-109.356 39.0722-93.3912 39.0722-74.3105C39.0722-53.3781 52.25-47.1019 55.7699-6.9764C55.9645-4.98448 56.924-3.91085 59.1159-3.91085L94.9034-3.91085C97.129-3.91085 98.1353-4.98448 98.2961-6.9764C101.816-47.1019 114.981-53.3781 114.981-74.3105C114.981-93.3912 98.2157-109.356 77.033-109.356ZM59.4486 7.34302L94.7109 7.34302C96.4485 7.34302 97.7634 6.02813 97.7634 4.32422C97.7634 2.58662 96.4485 1.35216 94.7109 1.35216L59.4486 1.35216C57.7447 1.35216 56.4298 2.58662 56.4298 4.32422C56.4298 6.02813 57.7447 7.34302 59.4486 7.34302ZM77.0798 23.4929C86.115 23.4929 93.1493 19.0417 93.5046 12.5723L60.6549 12.5723C61.0103 19.0417 68.0446 23.4929 77.0798 23.4929Z"/>
</svg>