<svg xmlns="http://www.w3.org/2000/svg" viewBox="16.084 -94.7645 119.16 119.24">
  <path d="M19.3969-56.9419C21.5407-56.9419 22.7098-58.1914 22.7098-60.3352L22.7098-76.5533C22.7098-84.174 26.7082-88.105 34.2278-88.105L50.6143-88.105C52.7581-88.105 53.9609-89.3078 53.9609-91.4179C53.9609-93.5617 52.7581-94.7645 50.6143-94.7645L34.067-94.7645C22.2185-94.7645 16.084-88.6636 16.084-76.8825L16.084-60.3352C16.084-58.1914 17.2868-56.9419 19.3969-56.9419ZM131.935-56.9419C134.125-56.9419 135.247-58.1914 135.247-60.3352L135.247-76.8825C135.247-88.5701 129.193-94.7645 117.264-94.7645L100.764-94.7645C98.5734-94.7645 97.3705-93.5617 97.3705-91.4179C97.3705-89.3078 98.5734-88.105 100.764-88.105L117.104-88.105C124.436-88.105 128.668-84.174 128.668-76.5533L128.668-60.3352C128.668-58.1914 129.824-56.9419 131.935-56.9419ZM34.067 24.4794L50.6143 24.4794C52.7581 24.4794 53.9609 23.2766 53.9609 21.1665C53.9609 19.0227 52.7581 17.8199 50.6143 17.8199L34.2278 17.8199C26.7082 17.8199 22.7098 13.8889 22.7098 6.26821L22.7098-9.91622C22.7098-12.0937 21.507-13.3432 19.3969-13.3432C17.2531-13.3432 16.084-12.0937 16.084-9.91622L16.084 6.59744C16.084 18.3785 22.2185 24.4794 34.067 24.4794ZM100.764 24.4794L117.264 24.4794C129.193 24.4794 135.247 18.285 135.247 6.59744L135.247-9.91622C135.247-12.0937 134.091-13.3432 131.935-13.3432C129.791-13.3432 128.668-12.0937 128.668-9.91622L128.668 6.26821C128.668 13.8889 124.436 17.8199 117.104 17.8199L100.764 17.8199C98.5734 17.8199 97.3705 19.0227 97.3705 21.1665C97.3705 23.2766 98.5734 24.4794 100.764 24.4794ZM39.6839-29.3668L69.6759-29.2864L69.7096 0.402471C69.7096 3.45902 71.2733 5.27152 73.8061 5.27152C75.5924 5.27152 77.1637 4.08932 78.2318 1.80532L107.465-60.71C107.955-61.7444 108.297-62.8723 108.297-63.772C108.297-66.0952 106.578-67.7806 104.208-67.7806C103.262-67.7806 102.168-67.4719 101.099-66.9949L38.3484-37.6945C36.3132-36.7742 35.118-35.1899 35.118-33.4296C35.118-30.8838 36.8164-29.3668 39.6839-29.3668ZM45.3055-34.8888L101.531-61.0145L75.325-4.87479L75.3924-32.0027C75.3924-33.7609 74.2308-34.9692 72.252-34.9692Z"/>
</svg>