<svg xmlns="http://www.w3.org/2000/svg" viewBox="16.084 -91.8055 147.03 113.14">
  <path d="M42.9399-57.7132L86.1524-57.7132C87.7985-57.7132 89.1285-59.0301 89.1285-60.723C89.1285-62.3692 87.7985-63.6992 86.1524-63.6992L42.9399-63.6992C41.2601-63.6992 39.9638-62.3692 39.9638-60.723C39.9638-59.0301 41.2601-57.7132 42.9399-57.7132ZM42.9399-42.1056L74.6152-42.1056C76.3081-42.1056 77.625-43.3889 77.625-45.0818C77.625-46.7279 76.3081-48.0916 74.6152-48.0916L42.9399-48.0916C41.2601-48.0916 39.9638-46.7279 39.9638-45.0818C39.9638-43.3889 41.2601-42.1056 42.9399-42.1056ZM124.208-38.5231C132.491-38.5231 139.246-45.2783 139.246-53.642C139.246-62.0057 132.491-68.761 124.208-68.761C115.844-68.761 109.089-62.0057 109.089-53.642C109.089-45.2783 115.844-38.5231 124.208-38.5231ZM34.067 21.3335L145.13 21.3335C157.012 21.3335 163.113 15.1391 163.113 3.45147L163.113-73.9235C163.113-85.6111 157.012-91.8055 145.13-91.8055L34.067-91.8055C22.2185-91.8055 16.084-85.7046 16.084-73.9235L16.084 3.45147C16.084 15.2326 22.2185 21.3335 34.067 21.3335ZM34.2278 14.674C26.7082 14.674 22.7098 10.743 22.7098 3.12224L22.7098-73.5943C22.7098-81.2487 26.7082-85.146 34.2278-85.146L144.969-85.146C152.302-85.146 156.487-81.2487 156.487-73.5943L156.487 3.12224C156.487 10.743 152.302 14.674 144.969 14.674Z" />
</svg>