<svg xmlns="http://www.w3.org/2000/svg" viewBox="16.084 -93.3933 187.03 116.25">
  <path d="M20.0498 22.6463C22.4967 22.6463 24.0288 20.9795 24.0288 18.6131L24.0288-26.8154L48.7873-26.8154C49.9579-26.8154 51.0818-26.9557 52.1589-27.0828L76.5304 20.2256C77.3573 21.9672 78.4666 22.7398 80.3897 22.7398C82.6813 22.7398 84.3817 21.2002 84.3817 19.1032C84.3817 18.1959 83.9047 17.0941 83.4614 16.2542L60.1298-28.6561C75.9362-32.9018 83.4077-44.6713 83.4077-59.6892C83.4077-80.3592 69.3679-92.1121 48.7632-92.1121L19.9825-92.1121C17.603-92.1121 16.084-90.4659 16.084-87.9854L16.084 18.6131C16.084 21.1816 17.8181 22.6463 20.0498 22.6463ZM24.0288-33.9258L24.0288-84.968L47.8821-84.968C64.358-84.968 75.3021-76.2867 75.3021-59.5208C75.3021-42.9624 64.7697-33.9258 48.1646-33.9258ZM110.313 22.8539C112.658 22.8539 114.043 21.3349 114.043 18.9423L114.043-77.8376L114.626-77.8376L149.607 17.3766C150.493 19.9506 152.16 21.6641 154.801 21.6641C157.57 21.6641 159.203 19.93 160.009 17.3092L194.963-77.8376L195.62-77.8376L195.62 18.9423C195.62 21.4696 197.152 22.8539 199.316 22.8539C201.696 22.8539 203.114 21.3686 203.114 18.9423L203.114-87.8411C203.114-91.242 200.908-93.3933 197.554-93.3933C194.462-93.3933 192.64-91.6386 191.652-88.6473L155.406 10.8051L154.425 10.8051L117.743-88.8343C116.815-91.7527 115.001-93.3933 112.062-93.3933C108.599-93.3933 106.549-90.9258 106.549-87.9346L106.549 18.9423C106.549 21.2675 108.014 22.8539 110.313 22.8539Z"/>
</svg>