<svg xmlns="http://www.w3.org/2000/svg" viewBox="15.9025 -102.16 109.59 134.17">
  <path d="M70.6296 32.0078C91.5319 32.0078 108.372 15.1342 108.372-5.68764C108.372-26.5431 91.5319-43.4168 70.6296-43.4168C49.7742-43.4168 32.9809-26.5431 32.9809-5.68764C32.9809 15.1342 49.7742 32.0078 70.6296 32.0078ZM59.1633 14.44C57.5508 15.6091 55.7177 14.4063 56.4229 12.3917L60.8666-1.16555L49.2861-9.4488C47.6812-10.5169 48.2648-12.8401 50.3804-12.8401L64.6147-12.7727L69.0041-26.3637C69.6289-28.2044 71.7576-28.2044 72.3823-26.3637L76.7718-12.7727L91.0061-12.8401C93.1217-12.8401 93.4715-10.4702 92.1003-9.49554L80.5199-1.16555L85.0103 12.3917C85.6351 14.4063 83.8824 15.6091 82.1764 14.44L70.6633 6.02958ZM35.8232-33.1904C41.6285-40.6248 49.8128-46.129 59.2239-48.5773L33.0752-100.239L16.6751-74.9867C15.9362-73.8382 15.9025-72.4821 16.5273-71.3466ZM55.8158-72.2031L85.5837-72.2031L101.097-102.16L40.2559-102.16ZM82.1756-48.5773C91.54-46.0823 99.6775-40.578 105.53-33.1437L124.839-71.3466C125.497-72.4821 125.463-73.8382 124.724-74.9867L108.324-100.239Z"/>
</svg>