<svg xmlns="http://www.w3.org/2000/svg" viewBox="18.7997 -106.181 85.08 131.97">
  <path d="M61.3148-20.3839C73.4603-20.3839 81.3978-29.5724 81.3978-42.1893L81.3978-84.3293C81.3978-96.993 73.4603-106.181 61.3148-106.181C49.1825-106.181 41.245-96.993 41.245-84.3293L41.245-42.1893C41.245-29.5724 49.1825-20.3839 61.3148-20.3839ZM61.3148 1.09987C86.8814 1.09987 103.877-16.0075 103.877-40.2372L103.877-52.3303C103.877-54.1243 102.446-55.5085 100.699-55.5085C98.9383-55.5085 97.554-54.1243 97.554-52.3303L97.554-40.4392C97.554-19.4139 83.3609-4.85239 61.3148-4.85239C39.3155-4.85239 25.1224-19.4139 25.1224-40.4392L25.1224-52.3303C25.1224-54.1243 23.6914-55.5085 21.9442-55.5085C20.2307-55.5085 18.7997-54.1243 18.7997-52.3303L18.7997-40.2372C18.7997-16.0075 35.7483 1.09987 61.3148 1.09987ZM33.1679 25.7923L89.4618 25.7923C91.2221 25.7923 92.6063 24.3612 92.6063 22.6141C92.6063 20.8538 91.2221 19.4695 89.4618 19.4695L33.1679 19.4695C31.4207 19.4695 29.9897 20.8538 29.9897 22.6141C29.9897 24.3612 31.4207 25.7923 33.1679 25.7923ZM61.3148 24.3612C63.0751 24.3612 64.4594 22.977 64.4594 21.2167L64.4594-0.471373C64.4594-2.2653 63.0751-3.64957 61.3148-3.64957C59.5677-3.64957 58.1366-2.2653 58.1366-0.471373L58.1366 21.2167C58.1366 22.977 59.5677 24.3612 61.3148 24.3612Z"/>
</svg>