<svg xmlns="http://www.w3.org/2000/svg" viewBox="11.2588 -97.925 125.34 125.31">
  <path d="M73.9141 27.3856C108.519 27.3856 136.603-0.66445 136.603-35.2697C136.603-69.875 108.519-97.925 73.9141-97.925C39.3425-97.925 11.2588-69.875 11.2588-35.2697C11.2588-0.66445 39.3425 27.3856 73.9141 27.3856ZM73.9141 20.4903C43.0726 20.4903 18.141-4.42824 18.141-35.2697C18.141-66.1112 43.0726-91.0297 73.9141-91.0297C104.756-91.0297 129.674-66.1112 129.674-35.2697C129.674-4.42824 104.756 20.4903 73.9141 20.4903ZM74.2172 1.52894C88.934 1.52894 101.176-7.30418 106.658-19.4174C107.384-20.9494 106.422-22.2176 104.744-21.5873C102.452-20.7027 97.849-19.3582 92.9625-19.3582C71.7956-19.3582 59.9683-31.3463 59.9683-52.4328C59.9683-57.0464 60.866-61.0357 62.4126-64.8918C63.0841-66.652 62.0421-67.6528 60.3231-66.9607C49.793-62.6868 38.5444-50.8218 38.5444-34.1101C38.5444-14.4877 54.561 1.52894 74.2172 1.52894Z" />
</svg>