<svg xmlns="http://www.w3.org/2000/svg" viewBox="16.084 -92 91.22 113.38">
  <path d="M30.0576 21.3802C32.5176 21.3802 34.117 19.7471 34.117 17.2535L34.117-77.3827L34.7005-77.3827L85.9738 17.4143C87.156 19.7189 88.9238 21.3802 91.9281 21.3802C95.2486 21.3802 97.325 19.156 97.325 15.9909L97.325-87.907C97.325-90.4474 95.8397-92 93.333-92C90.8731-92 89.4345-90.4474 89.4345-87.907L89.4345 6.81715L88.8042 6.81715L37.6842-87.7537C36.2738-90.5147 34.5527-92 31.556-92C28.4974-92 26.1928-90.0302 26.1928-86.6107L26.1928 17.2535C26.1928 19.7471 27.7118 21.3802 30.0576 21.3802ZM16.084-34.8958C16.084-33.3507 17.3803-32.1011 18.8787-32.1011L104.499-32.1011C106.01-32.1011 107.307-33.3507 107.307-34.8958C107.307-36.3605 106.01-37.6568 104.499-37.6568L18.8787-37.6568C17.3803-37.6568 16.084-36.3605 16.084-34.8958Z"/>
</svg>