<svg xmlns="http://www.w3.org/2000/svg" viewBox="16.084 -95.9612 124.97 121.42">
  <path d="M61.2353 25.4555L95.8678 25.4555C105.523 25.4555 108.843 22.2352 113.438 17.3186L136.239-7.22173C140.067-11.3458 141.053-14.0615 141.053-20.181L141.053-50.3248C141.053-56.4442 140.067-59.1599 136.239-63.284L113.438-87.8243C108.843-92.7409 105.523-95.9612 95.8678-95.9612L61.2353-95.9612C51.6136-95.9612 48.2601-92.7409 43.6988-87.8243L20.8645-63.284C17.0696-59.1599 16.084-56.4442 16.084-50.3248L16.084-20.181C16.084-14.0615 17.0696-11.3458 20.8645-7.22173L43.6988 17.3186C48.2601 22.2352 51.6136 25.4555 61.2353 25.4555ZM62.9061 18.9231C54.9733 18.9231 53.1106 17.0027 48.6187 12.2228L26.6002-11.367C24.0006-14.1948 23.4377-16.0032 23.4377-20.7404L23.4377-49.7653C23.4377-54.5025 24.0006-56.311 26.6002-59.1387L48.6187-82.7285C53.1106-87.5084 54.9733-89.4289 62.9061-89.4289L94.197-89.4289C102.164-89.4289 104.026-87.5084 108.518-82.7285L130.503-59.1387C133.136-56.311 133.699-54.5025 133.699-49.7653L133.699-20.7404C133.699-16.0032 133.136-14.1948 130.503-11.367L108.518 12.2228C104.026 17.0027 102.164 18.9231 94.197 18.9231Z"/>
</svg>