<svg xmlns="http://www.w3.org/2000/svg" viewBox="16.084 -100.441 134.09 130.34">
  <path d="M22.7876 18.4165L143.501 18.4165L143.501 15.2947C143.501 13.7083 142.513 12.7674 140.893 12.7674L136.872 12.7674L136.872-60.7285L142.728-60.7285C145.033-60.7285 146.29-62.3149 146.29-64.0415C146.29-65.1845 145.611-66.333 144.112-67.2403L89.9711-98.4824C87.7716-99.7767 85.4243-100.441 83.1444-100.441C80.8308-100.441 78.4367-99.7767 76.2372-98.4824L22.0961-67.2403C20.6107-66.333 19.9653-65.1845 19.9653-64.0415C19.9653-62.3149 21.1757-60.7285 23.5271-60.7285L29.4163-60.7285L29.4163 12.7674L25.3953 12.7674C23.7753 12.7674 22.7876 13.7083 22.7876 15.2947ZM35.739 12.7674L35.739-67.3573L79.8045-92.2999C80.8218-92.889 81.9999-93.2237 83.1444-93.2237C84.2551-93.2237 85.3865-92.889 86.4038-92.2999L130.583-67.3573L130.583 12.7674ZM19.3969 29.9012L146.858 29.9012C148.639 29.9012 150.171 28.3692 150.171 26.5546C150.171 24.727 148.639 23.2417 146.858 23.2417L19.3969 23.2417C17.5693 23.2417 16.084 24.727 16.084 26.5546C16.084 28.3692 17.5693 29.9012 19.3969 29.9012ZM68.7416-10.8041C78.2896-10.8041 83.2887-16.9648 83.2887-25.3676C83.2887-33.8193 78.2951-37.1295 71.6333-39.8095L68.1677-41.1767C63.0641-43.1721 59.8081-45.6163 59.8081-51.1351C59.8081-56.2909 62.9349-59.9545 68.3134-59.9545C73.5552-59.9545 76.5906-56.6353 77.5762-51.5578C77.8587-50.1886 78.7117-49.5714 80.0004-49.5714C81.4033-49.5714 82.2095-50.5178 82.2095-51.9076C82.2095-52.4369 82.1291-53.0672 82.015-53.5366C80.7001-60.0245 75.5849-64.4662 68.3938-64.4662C59.8446-64.4662 54.638-58.6196 54.638-50.8058C54.638-43.1996 58.9882-39.2646 66.0988-36.5378L69.5775-35.1707C74.8083-33.209 78.199-30.4094 78.199-24.8439C78.199-19.9142 75.2571-15.3625 68.8557-15.3625C63.1706-15.3625 59.6548-18.8426 58.7289-24.4342C58.4465-25.7099 57.6608-26.4076 56.3384-26.4076C54.9355-26.4076 54.0021-25.3601 54.0021-23.9366C54.0021-23.2259 54.1162-22.4141 54.3108-21.724C56.0614-14.9763 61.2495-10.8041 68.7416-10.8041ZM88.7139 1.41773C90.1842 1.41773 90.8557 0.619044 91.1176-0.871778L101.662-60.4597C101.742-60.8618 101.856-61.4323 101.856-62.1169C101.856-63.4393 100.99-64.326 99.6339-64.326C98.1637-64.326 97.4922-63.4936 97.2303-62.0028L86.6863-2.41486C86.6059-2.01276 86.4918-1.44227 86.4918-0.75768C86.4918 0.564752 87.3578 1.41773 88.7139 1.41773ZM109.82-11.2605C111.9-11.2605 113.43-12.7568 113.43-14.7899C113.43-16.7894 111.9-18.3194 109.82-18.3194C107.787-18.3194 106.29-16.7894 106.29-14.7899C106.29-12.7568 107.787-11.2605 109.82-11.2605Z"/>
</svg>