<svg xmlns="http://www.w3.org/2000/svg" viewBox="16.084 -98.0733 159.15 125.86">
  <path d="M34.067 1.19624L78.5102 1.19624L78.5102-5.42959L34.2278-5.42959C26.7082-5.42959 22.7098-9.36058 22.7098-17.015L22.7098-79.8621C22.7098-87.5165 26.7082-91.4475 34.2278-91.4475L125.933-91.4475C133.265-91.4475 137.451-87.5165 137.451-79.8621L137.451-46.6585L144.077-46.6585L144.077-80.225C144.077-91.9126 137.942-98.0733 126.094-98.0733L34.067-98.0733C22.1849-98.0733 16.084-92.0061 16.084-80.225L16.084-16.6521C16.084-4.87097 22.1849 1.19624 34.067 1.19624ZM93.9096 27.7883L157.246 27.7883C169.141 27.7883 175.229 21.6276 175.229 9.93995L175.229-31.7135C175.229-43.4142 169.141-49.5618 157.246-49.5618L93.9096-49.5618C82.0144-49.5618 75.9266-43.5413 75.9266-31.7135L75.9266 9.93995C75.9266 21.721 82.0144 27.7883 93.9096 27.7883ZM37.9292-55.3535C38.1705-53.7169 40.1569-51.9326 42.1694-53.9788L49.4258-61.1547L61.2132-49.3542C62.2944-48.3665 64.034-48.3665 65.1152-49.3542C66.1496-50.4354 66.1496-52.2218 65.1152-53.2562L53.3147-65.0437L60.4906-72.3C62.5368-74.3126 60.7525-76.3457 59.0823-76.587L37.3703-80.2787C36.4445-80.4396 35.586-80.131 34.922-79.5474C34.3385-78.8834 34.0298-77.9913 34.1907-77.0991Z"/>
</svg>