<svg xmlns="http://www.w3.org/2000/svg" viewBox="16.084 -86.3857 89.58 102.23">
  <path d="M16.084 8.43199C16.084 13.5644 19.1626 15.8463 22.6117 15.8463C24.108 15.8463 25.7184 15.3899 27.1082 14.5912L100.532-28.9194C104.159-31.0687 105.668-32.6324 105.668-35.2697C105.668-37.907 104.159-39.4707 100.532-41.62L27.1082-85.1306C25.7184-85.9293 24.108-86.3857 22.6117-86.3857C19.1626-86.3857 16.084-84.1038 16.084-78.9714ZM22.7098 6.3756L22.7098-76.915C22.7098-78.5942 24.0618-79.217 25.4737-78.3942L96.3521-36.5283C96.9748-36.2272 97.2291-35.7316 97.2291-35.2697C97.2291-34.8078 96.9748-34.3459 96.3521-34.0111L25.4737 7.8548C24.0618 8.67758 22.7098 8.05483 22.7098 6.3756Z"/>
</svg>