<svg xmlns="http://www.w3.org/2000/svg" viewBox="16.084 -103.347 108.12 136.24">
  <path d="M105.547-66.0287C115.819-66.0287 124.2-74.3758 124.2-84.728C124.2-94.9996 115.819-103.347 105.547-103.347C95.1821-103.347 86.8817-94.9996 86.8817-84.728C86.8817-74.3758 95.1821-66.0287 105.547-66.0287ZM79.6257 17.5819L92.7399 17.5819C112.026 17.5819 124.2 7.66003 124.2-8.00735C124.2-23.7833 111.867-34.5149 89.7733-36.7948L51.472-40.7409C33.0799-42.6579 22.7098-50.8024 22.7098-62.4516C22.7098-74.127 32.2496-81.415 47.5439-81.415L89.1883-81.415C90.9692-81.415 92.5012-82.9471 92.5012-84.728C92.5012-86.5088 90.9692-88.0409 89.1883-88.0409L47.5439-88.0409C28.2576-88.0409 16.084-78.119 16.084-62.4516C16.084-46.6757 28.4501-35.8974 50.1832-33.6642L88.8454-29.7181C107.191-27.8011 117.574-19.6566 117.574-8.00735C117.574 3.66805 108.034 10.9561 92.7399 10.9561L79.6257 10.9561C77.8448 10.9561 76.3127 12.4881 76.3127 14.269C76.3127 16.0498 77.8448 17.5819 79.6257 17.5819ZM84.4886 28.2304L84.4886 0.359801C84.4886-2.88372 82.085-4.29412 79.5412-2.25342L61.7849 11.6502C59.6638 13.315 59.6975 15.3426 61.7849 17.0204L79.5748 30.8436C82.085 32.8974 84.4886 31.4402 84.4886 28.2304ZM34.7832 32.8878C45.0886 32.8878 53.4694 24.5407 53.4694 14.1885C53.4694 3.91686 45.0886-4.43027 34.7832-4.43027C24.4985-4.43027 16.1177 3.91686 16.1177 14.1885C16.1177 24.5407 24.4985 32.8878 34.7832 32.8878Z" />
</svg>