<svg xmlns="http://www.w3.org/2000/svg" viewBox="16.084 -114.064 108.68 146.95">
  <path d="M34.7028 32.8878C45.0549 32.8878 53.4357 24.5407 53.4357 14.2353C53.4357 3.91686 45.0549-4.43027 34.7028-4.43027C24.4648-4.43027 16.084 3.91686 16.084 14.2353C16.084 24.5407 24.4648 32.8878 34.7028 32.8878ZM90.0852-82.4329L90.0852-109.921C90.0852-112.646 87.6217-114.064 85.5735-112.358L68.9617-98.9292C66.921-97.2308 66.8873-95.1434 68.9617-93.4113L85.5268-80.0293C87.575-78.357 90.0852-79.6403 90.0852-82.4329ZM91.3411-61.079C91.3411-59.2046 92.6786-58.1365 94.5193-58.1365L102.985-58.1365C115.795-58.1365 124.759-66.1338 124.759-78.6985C124.759-91.1828 115.829-99.1594 103.019-99.1594L85.7701-99.1594C84.1576-99.1594 82.8276-97.8294 82.8276-96.217C82.8276-94.5578 84.1576-93.2745 85.7701-93.2745L103.019-93.2745C112.261-93.2745 118.773-87.898 118.773-78.9006C118.773-69.7553 112.362-63.9878 102.985-63.9878L94.4182-63.9878C92.6786-63.9878 91.3411-62.9066 91.3411-61.079ZM51.6885 17.5819L92.7399 17.5819C112.026 17.5819 124.2 7.66003 124.2-8.00735C124.2-23.7833 111.867-34.5149 89.7733-36.7948L51.472-40.7409C33.0799-42.6579 22.7098-50.8024 22.7098-62.4516C22.7098-74.127 32.2496-81.415 47.5439-81.415L74.8126-81.415L69.8631-85.4648C68.9352-86.2449 68.1757-87.0924 67.5846-88.0409L47.5439-88.0409C28.2576-88.0409 16.084-78.119 16.084-62.4516C16.084-46.6757 28.4501-35.8974 50.1832-33.6642L88.8454-29.7181C107.191-27.8011 117.574-19.6566 117.574-8.00735C117.574 3.66805 108.034 10.9561 92.7399 10.9561L51.6885 10.9561C49.9077 10.9561 48.4224 12.4881 48.4224 14.269C48.4224 16.0498 49.9077 17.5819 51.6885 17.5819Z"/>
</svg>