<svg xmlns="http://www.w3.org/2000/svg" viewBox="16.084 -91.8055 113.1 113.14">
  <path d="M72.6535-2.87702C90.5891-2.87702 105.012-17.334 105.012-35.2697C105.012-53.2054 90.5891-67.6624 72.6535-67.6624C54.6841-67.6624 40.3075-53.2054 40.3075-35.2697C40.3075-17.334 54.6841-2.87702 72.6535-2.87702ZM57.3249-28.5646C53.704-28.5646 50.6666-31.602 50.6666-35.2697C50.6666-38.9374 53.704-41.9748 57.3249-41.9748C61.0263-41.9748 64.03-38.9374 64.03-35.2697C64.03-31.602 61.0263-28.5646 57.3249-28.5646ZM87.9483-28.5646C84.2807-28.5646 81.2433-31.602 81.2433-35.2697C81.2433-38.9374 84.2807-41.9748 87.9483-41.9748C91.616-41.9748 94.6067-38.9374 94.6067-35.2697C94.6067-31.602 91.616-28.5646 87.9483-28.5646ZM72.6067-11.893C69.1672-11.893 66.5395-14.5002 66.5395-17.9864L66.5395-20.9076C66.5395-21.8541 66.9959-22.2637 67.8956-22.2637L77.3776-22.2637C78.2306-22.2637 78.7337-21.8541 78.7337-20.9076L78.7337-17.9864C78.7337-14.5002 76.0256-11.893 72.6067-11.893ZM34.067 21.3335L111.206 21.3335C123.088 21.3335 129.189 15.1391 129.189 3.45147L129.189-73.9235C129.189-85.6111 123.088-91.8055 111.206-91.8055L34.067-91.8055C22.2185-91.8055 16.084-85.7046 16.084-73.9235L16.084 3.45147C16.084 15.2326 22.2185 21.3335 34.067 21.3335ZM34.2278 14.674C26.7082 14.674 22.7098 10.743 22.7098 3.12224L22.7098-73.5943C22.7098-81.2487 26.7082-85.146 34.2278-85.146L111.045-85.146C118.378-85.146 122.563-81.2487 122.563-73.5943L122.563 3.12224C122.563 10.743 118.378 14.674 111.045 14.674Z" />
</svg>