<svg xmlns="http://www.w3.org/2000/svg" viewBox="16.084 -94.4745 182.28 118.25">
  <path d="M71.0642 23.7742L92.48 23.7742C96.7072 23.7742 99.5445 21.0695 99.5445 17.4672C99.5445 15.5612 98.7795 13.715 96.9409 11.6557C93.9598 8.15298 91.9438 4.60144 91.9438-0.144774C91.9438-8.87627 97.7114-14.8273 107.208-14.8273C116.704-14.8273 122.472-8.87627 122.472-0.144774C122.472 4.60144 120.49 8.15298 117.475 11.6557C115.67 13.715 114.905 15.5612 114.905 17.4672C114.905 21.0695 117.742 23.7742 121.969 23.7742L143.385 23.7742C153.811 23.7742 159.899 17.8005 159.899 7.58249L159.899-17.2942C159.899-18.6593 160.976-19.5289 162.442-18.4311C166.229-15.7567 170.54-12.8058 177.428-12.8058C189.176-12.8058 198.365-21.5757 198.365-34.6621C198.365-47.7354 189.176-56.5183 177.428-56.5183C170.54-56.5183 166.229-53.5544 162.442-50.8462C160.976-49.8289 159.899-50.618 159.899-52.0168L159.899-78.2827C159.899-88.5007 153.811-94.4745 143.385-94.4745L121.969-94.4745C117.742-94.4745 114.905-91.7698 114.905-88.1674C114.905-86.2614 115.67-84.4153 117.475-82.356C120.49-78.8532 122.472-75.3017 122.472-70.5555C122.472-62.1044 116.424-55.8729 107.208-55.8729C98.0255-55.8729 91.9438-62.1044 91.9438-70.5555C91.9438-75.3017 93.9598-78.8532 96.9409-82.356C98.7795-84.4153 99.5445-86.2614 99.5445-88.1674C99.5445-91.7698 96.7072-94.4745 92.48-94.4745L71.0642-94.4745C60.605-94.4745 54.5172-88.5007 54.5172-78.2827L54.5172-52.0168C54.5172-50.618 53.4737-49.8289 52.0076-50.8462C48.1866-53.5544 43.9093-56.5183 36.9882-56.5183C25.2731-56.5183 16.084-47.7354 16.084-34.6621C16.084-21.5757 25.2731-12.8058 36.9882-12.8058C43.9093-12.8058 48.1866-15.7567 52.0076-18.4311C53.4737-19.5289 54.5172-18.6593 54.5172-17.2942L54.5172 7.58249C54.5172 17.8005 60.605 23.7742 71.0642 23.7742ZM71.2251 17.1484C65.0478 17.1484 61.143 13.4044 61.143 7.26633L61.143-19.8874C61.143-24.1613 58.472-26.9519 54.836-26.9519C52.9636-26.9519 51.0707-26.2 49.0245-24.395C45.5087-21.414 42.0039-19.398 37.2577-19.398C28.8066-19.398 22.5414-25.4797 22.5414-34.6621C22.5414-43.8314 28.8066-49.9261 37.2577-49.9261C42.0039-49.9261 45.5087-47.9438 49.0245-44.9291C51.0707-43.1241 52.9636-42.3254 54.836-42.3254C58.472-42.3254 61.143-45.1965 61.143-49.4236L61.143-77.9666C61.143-84.1046 65.0478-87.8486 71.2251-87.8486L89.348-87.8486C91.6767-87.8486 91.7716-86.3674 90.7543-84.8676C88.2482-81.1813 85.3517-77.0724 85.3517-70.3197C85.3517-58.5709 94.1683-49.4155 107.208-49.4155C120.281-49.4155 129.098-58.5709 129.098-70.3197C129.098-77.0724 126.201-81.1813 123.695-84.8676C122.644-86.3674 122.773-87.8486 125.102-87.8486L143.224-87.8486C149.402-87.8486 153.273-84.1046 153.273-77.9666L153.273-49.4236C153.273-45.1965 155.977-42.3254 159.614-42.3254C161.486-42.3254 163.332-43.1241 165.391-44.9291C168.894-47.9438 172.399-49.9261 177.192-49.9261C185.643-49.9261 191.874-43.8314 191.874-34.6621C191.874-25.4797 185.643-19.398 177.192-19.398C172.399-19.398 168.894-21.414 165.391-24.395C163.332-26.2 161.486-26.9519 159.614-26.9519C155.977-26.9519 153.273-24.1613 153.273-19.8874L153.273 7.26633C153.273 13.4044 149.402 17.1484 143.224 17.1484L125.102 17.1484C122.773 17.1484 122.644 15.6672 123.695 14.1673C126.201 10.4811 129.098 6.37212 129.098-0.38052C129.098-12.4566 120.608-21.2848 107.208-21.2848C93.7943-21.2848 85.3517-12.4566 85.3517-0.38052C85.3517 6.37212 88.2482 10.4811 90.7543 14.1673C91.7716 15.6672 91.6767 17.1484 89.348 17.1484Z"/>
</svg>