<svg xmlns="http://www.w3.org/2000/svg" viewBox="16.084 -94.3287 135.73 125.9">
  <path d="M50.9392 31.5715C53.0287 31.5715 54.5065 30.4697 56.7925 28.4455L79.1864 9.00452L126.098 9.00452C142.329 9.00452 151.815-0.70975 151.815-16.7125L151.815-68.6117C151.815-84.6145 142.329-94.3287 126.098-94.3287L41.801-94.3287C25.5701-94.3287 16.084-84.7079 16.084-68.6117L16.084-16.7125C16.084-0.616266 25.5701 9.00452 41.801 9.00452L46.33 9.00452L46.33 26.2701C46.33 29.5287 48.0697 31.5715 50.9392 31.5715ZM52.5593 24.1319L52.5593 5.52322C52.5593 3.26535 51.6726 2.3787 49.4147 2.3787L41.8945 2.3787C29.5545 2.3787 22.7098-4.74848 22.7098-16.806L22.7098-68.5182C22.7098-80.5888 29.5545-87.6692 41.8945-87.6692L126.005-87.6692C138.158-87.6692 145.19-80.5888 145.19-68.5182L145.19-16.806C145.19-4.74848 138.158 2.3787 126.005 2.3787L79.3376 2.3787C76.833 2.3787 75.5236 2.80141 73.6046 4.64759ZM82.82-29.9173C84.8497-29.9173 86.133-31.2342 86.133-33.0206C86.133-33.5217 86.133-34.0434 86.133-34.5445C86.133-38.4232 87.9902-40.7348 92.7666-43.9365C99.1383-48.251 102.515-51.9503 102.515-58.4759C102.515-67.4107 94.4926-73.0401 84.3968-73.0401C74.187-73.0401 67.6166-67.5399 66.3877-61.3029C66.1725-60.4444 66.0715-59.6457 66.0715-58.66C66.0715-56.7389 67.4764-55.6241 69.014-55.6241C70.5852-55.6241 71.6121-56.4228 72.1379-57.6909L72.7104-58.7384C73.8087-63.3444 78.1659-67.2356 84.1013-67.2356C90.9982-67.2356 95.3443-63.4785 95.3443-58.1336C95.3443-53.8246 92.984-51.3337 87.0817-47.2267C82.1314-43.7838 79.4604-40.4996 79.4604-34.9541C79.4604-34.4063 79.4604-33.8378 79.4604-33.29C79.4604-31.0658 80.723-29.9173 82.82-29.9173ZM82.706-12.346C85.6313-12.346 88.061-14.7008 88.061-17.6C88.061-20.4992 85.6649-22.854 82.706-22.854C79.76-22.854 77.3172-20.4655 77.3172-17.6C77.3172-14.7345 79.7937-12.346 82.706-12.346Z"/>
</svg>