<svg xmlns="http://www.w3.org/2000/svg" viewBox="16.084 -94.3287 135.73 126.1">
  <path d="M50.3124 31.7735C52.0521 31.7735 53.3745 30.8401 55.2564 29.106L78.1087 8.97084L126.098 8.97084C142.329 8.97084 151.815-0.70975 151.815-16.7125L151.815-68.6117C151.815-84.6145 142.329-94.3287 126.098-94.3287L41.801-94.3287C25.5701-94.3287 16.084-84.7079 16.084-68.6117L16.084-16.7125C16.084-0.616266 25.5701 8.97084 41.801 8.97084L46.2963 8.97084L46.2963 27.2468C46.2963 30.0002 47.8806 31.7735 50.3124 31.7735ZM52.9355-49.0744C52.9355-56.3946 58.6398-61.8632 66.147-61.8632C73.8508-61.8632 79.9476-55.6612 79.9476-46.7085C79.9476-30.6692 66.5717-23.4686 60.9046-23.4686C59.268-23.4686 58.1346-24.6357 58.1346-26.0908C58.1346-27.4524 58.7649-28.2979 60.8709-28.8141C64.4994-29.8334 70.3454-33.5382 72.6645-39.5862L72.1352-39.5862C70.3529-37.342 67.6056-36.566 64.7517-36.566C57.6129-36.566 52.9355-41.9225 52.9355-49.0744ZM87.9388-49.0744C87.9388-56.3946 93.6094-61.8632 101.117-61.8632C108.82-61.8632 114.951-55.6612 114.951-46.7085C114.951-30.6692 101.575-23.4686 95.9079-23.4686C94.2713-23.4686 93.1042-24.6357 93.1042-26.0908C93.1042-27.4524 93.7813-28.2979 95.8405-28.8141C99.5494-29.8334 105.395-33.5382 107.668-39.5862L107.139-39.5862C105.356-37.342 102.609-36.566 99.7213-36.566C92.6162-36.566 87.9388-41.9225 87.9388-49.0744Z"/>
</svg>