<svg xmlns="http://www.w3.org/2000/svg" viewBox="16.084 -97.9639 150.15 119.39">
  <path d="M92.9474-91.712L92.9474-85.0525L114.801-85.0525L121.46-91.712ZM55.601-85.0525L86.2493-85.0525L86.2493-91.712L55.601-91.712ZM16.084-58.7584L22.7098-58.7584L22.7098-73.5008C22.7098-81.1215 26.7082-85.0525 34.2278-85.0525L48.9029-85.0525L48.9029-91.712L34.067-91.712C22.2185-91.712 16.084-85.6111 16.084-73.83ZM16.084-18.178L22.7098-18.178L22.7098-52.0603L16.084-52.0603ZM34.067 21.4269L48.9029 21.4269L48.9029 14.7674L34.2278 14.7674C26.7082 14.7674 22.7098 10.8701 22.7098 3.21573L22.7098-11.5267L16.084-11.5267L16.084 3.54496C16.084 15.3261 22.2185 21.4269 34.067 21.4269ZM55.601 21.4269L86.2493 21.4269L86.2493 14.7674L55.601 14.7674ZM92.9474 21.4269L123.63 21.4269L123.63 14.7674L92.9474 14.7674ZM145.13 21.4269C156.978 21.4269 163.113 15.3261 163.113 3.54496L163.113-11.5267L156.487-11.5267L156.487 3.21573C156.487 10.8701 152.489 14.7674 144.969 14.7674L130.328 14.7674L130.328 21.4269ZM163.113-18.178L163.113-40.2557L156.487-33.6299L156.487-18.178ZM102.277-25.4663C110.301-17.489 122.871-16.4476 131.944-25.5673L160.165-53.9155C161.327-54.9967 161.247-56.783 160.212-57.7501C159.157-58.7041 157.586-58.7639 156.411-57.636L128.231-29.4095C121.454-22.6783 112.1-23.2186 106.085-29.2542C100.003-35.5179 99.4419-44.7703 106.126-51.4678L141.995-87.2222C146.633-91.8473 152.654-91.2809 156.215-87.7871C159.649-84.3064 160.228-78.3196 155.603-73.6945L120.66-38.5237C118.945-36.8087 116.735-36.9957 115.274-38.4302C113.653-39.9114 113.64-42.1948 115.355-43.9434L140.76-69.222C141.935-70.4771 141.748-71.9548 140.874-72.9556C139.874-73.9694 138.383-74.1433 137.128-72.8415L111.715-47.3815C107.892-43.4987 108.032-37.9566 111.393-34.6423C114.948-31.2269 120.242-30.9334 124.226-34.8368L159.303-69.9946C166.231-76.9223 165.303-85.8364 159.733-91.4534C154.197-97.0366 145.101-97.9639 138.194-91.0437L102.411-55.2144C93.2917-46.0611 94.2733-33.4229 102.277-25.4663Z"/>
</svg>