<svg xmlns="http://www.w3.org/2000/svg" viewBox="-14.2198 -111.252 121.72 132.59">
  <path d="M93.4877 21.3335C102.804 21.3335 107.499 16.7399 107.499 7.28898L107.499-55.6964C107.499-65.1136 102.804-69.7072 93.4877-69.7072L30.0948-69.7072C20.8122-69.7072 16.084-65.1136 16.084-55.6964L16.084 7.28898C16.084 16.7399 20.8122 21.3335 30.0948 21.3335ZM18.4376-83.9737C18.4376-80.6237 21.376-79.6847 24.1144-81.6113L39.8038-92.6852C42.2446-94.4489 42.2109-96.4202 39.8038-98.184L24.1144-109.245C21.376-111.252 18.4376-110.313 18.4376-106.895ZM24.5254-98.1207L17.3042-98.1207C-1.7437-98.1207-14.2198-85.7903-14.2198-67.8697L-14.2198-58.1801C-14.2198-56.6556-13.0039-55.4397-11.4794-55.4397C-9.95493-55.4397-8.73905-56.6556-8.73905-58.1801L-8.73905-67.7426C-8.73905-81.913 0.866041-92.8626 17.3379-92.8626L24.5254-92.8626C25.9826-92.8626 27.1779-94.0579 27.1779-95.515C27.1779-96.8917 25.9826-98.1207 24.5254-98.1207Z" />
</svg>