<svg xmlns="http://www.w3.org/2000/svg" viewBox="11.2588 -97.925 125.34 125.31">
  <path d="M52.2474-35.2697C52.2474 0.525307 61.5349 27.1161 73.8804 27.1161L73.8804 20.4903C66.2994 20.4903 58.9069-0.57648 58.9069-35.2697C58.9069-69.9629 66.2994-91.0297 73.8804-91.0297L73.8804-97.6555C61.5349-97.6555 52.2474-71.0647 52.2474-35.2697ZM73.9477-13.7172C109.776-13.7172 136.334-22.971 136.334-35.2697L129.754-35.2697C129.754-27.6888 108.675-20.343 73.9477-20.343C39.2545-20.343 18.2214-27.6888 18.2214-35.2697L11.5619-35.2697C11.5619-22.971 38.1527-13.7172 73.9477-13.7172ZM73.9141 27.3856C108.566 27.3856 136.603-0.66445 136.603-35.2697C136.603-69.875 108.566-97.925 73.9141-97.925C39.3425-97.925 11.2588-69.875 11.2588-35.2697C11.2588-0.66445 39.3425 27.3856 73.9141 27.3856ZM73.9141 20.4903C43.0726 20.4903 18.1877-4.42824 18.1877-35.2697C18.1877-66.1112 43.0726-91.0297 73.9141-91.0297C104.756-91.0297 129.721-66.1112 129.721-35.2697C129.721-4.42824 104.756 20.4903 73.9141 20.4903Z"/>
</svg>