<svg xmlns="http://www.w3.org/2000/svg" viewBox="11.2588 -97.925 125.34 125.31">
  <path d="M73.9141 27.3856C108.519 27.3856 136.603-0.66445 136.603-35.2697C136.603-69.875 108.519-97.925 73.9141-97.925C39.3425-97.925 11.2588-69.875 11.2588-35.2697C11.2588-0.66445 39.3425 27.3856 73.9141 27.3856ZM73.9141 20.4903C43.0726 20.4903 18.141-4.42824 18.141-35.2697C18.141-66.1112 43.0726-91.0297 73.9141-91.0297C104.756-91.0297 129.674-66.1112 129.674-35.2697C129.674-4.42824 104.756 20.4903 73.9141 20.4903ZM63.1041-7.48504C64.7894-7.48504 65.7902-8.57928 65.7902-10.2179L65.7902-17.7974L81.169-17.7974C82.1622-17.7974 82.8131-18.4146 82.8131-19.4882C82.8131-20.4347 82.1622-21.0389 81.169-21.0389L65.7902-21.0389L65.7902-29.595L77.636-29.595C88.4707-29.595 95.1847-36.4293 95.1847-46.0721C95.1847-56.0366 88.1696-62.6502 77.7501-62.6502L63.1378-62.6502C61.5198-62.6502 60.4854-61.5017 60.4854-59.8033L60.4854-32.8702L53.8181-32.8702C52.7444-32.8702 52.0935-32.1856 52.0935-31.1924C52.0935-30.2122 52.7444-29.595 53.8181-29.595L60.4854-29.595L60.4854-21.0389L53.8181-21.0389C52.7444-21.0389 52.0935-20.4347 52.0935-19.4882C52.0935-18.4146 52.7444-17.7974 53.8181-17.7974L60.4854-17.7974L60.4854-10.2179C60.4854-8.57928 61.4524-7.48504 63.1041-7.48504ZM65.7902-34.1067L65.7902-58.0039L76.3397-58.0039C85.2065-58.0039 89.6723-53.2515 89.6723-46.0721C89.6723-38.5408 84.8003-34.1067 76.3397-34.1067Z" />
</svg>