<svg xmlns="http://www.w3.org/2000/svg" viewBox="9.31565 -102.69 134.83 134.84">
  <path d="M135.949-84.8888C135.399-86.847 134.815-88.3358 134.151-89.5029L98.0627-53.435L103.333-48.1651C104.212-47.2523 104.212-45.8364 103.333-44.9572C102.454-44.0912 100.97-44.0912 100.125-44.9572L86.4238-58.6713C85.498-59.5972 85.5447-61 86.4238-61.9128C87.303-62.7115 88.7656-62.7919 89.5849-61.9128L94.9016-56.5624L130.956-92.6173C129.789-93.3149 128.314-93.8985 126.402-94.482C99.6429-102.69 65.8886-94.1789 41.7943-70.1183C17.8271-46.1043 9.31565-12.3163 17.524 14.4429C18.1543 16.4011 18.6911 17.8562 19.4355 19.057L55.612-17.1325L50.2149-22.496C49.289-23.4555 49.3694-24.8247 50.2149-25.7375C51.1276-26.5829 52.5772-26.6297 53.49-25.7375L67.1704-12.0365C68.0832-11.1574 68.0832-9.62737 67.1704-8.79501C66.2913-7.86916 64.8754-7.86916 63.9626-8.79501L58.7394-14.0182L22.6302 22.1713C23.7506 22.8222 25.2263 23.4058 27.0705 23.9893C53.9568 32.151 87.5709 23.6862 111.632-0.374412C135.632-24.3883 144.144-58.0828 135.949-84.8888ZM77.3852-49.6794C76.5191-50.5585 76.5191-51.9613 77.3852-52.8404C78.2773-53.7195 79.6335-53.8 80.5593-52.8404L94.3407-39.1394C95.2198-38.2267 95.1861-36.8107 94.3407-35.8849C93.4279-35.0525 91.9653-35.0058 91.0525-35.8849ZM68.2791-40.6407C67.4805-41.5198 67.4805-42.9357 68.2791-43.8485C69.1919-44.6939 70.5611-44.7744 71.5206-43.8485L85.2216-30.1008C86.1344-29.2347 86.1007-27.8188 85.2216-26.893C84.3556-26.0269 82.8929-25.9802 81.9801-26.893ZM59.2405-31.5683C58.3744-32.4475 58.4081-33.897 59.2405-34.7762C60.1663-35.6553 61.6028-35.7357 62.5287-34.7762L76.2297-21.0621C77.1088-20.1493 77.0751-18.7465 76.2297-17.7869C75.3169-16.9883 73.901-16.9078 72.9882-17.7869Z"/>
</svg>