<svg xmlns="http://www.w3.org/2000/svg" viewBox="16.084 -91.8055 147.03 113.14">
  <path d="M110.372 16.1311L116.863 16.1311L116.863-86.7826L110.372-86.7826ZM39.8558 21.3335L140.103 21.3335C154.485 21.3335 163.113 12.4832 163.113-2.47203L163.113-68C163.113-82.9552 154.485-91.8055 140.103-91.8055L39.8558-91.8055C24.9342-91.8055 16.084-82.9552 16.084-68L16.084-2.47203C16.084 12.4832 24.9342 21.3335 39.8558 21.3335ZM39.9493 14.674C29.1881 14.674 22.7098 8.22933 22.7098-2.56552L22.7098-67.9065C22.7098-78.7014 29.1881-85.146 39.9493-85.146L139.248-85.146C150.042-85.146 156.487-78.7014 156.487-67.9065L156.487-2.56552C156.487 8.22933 150.042 14.674 139.248 14.674ZM128.913-61.5438L144.437-61.5438C145.907-61.5438 147.103-62.7727 147.103-64.1625C147.103-65.5056 145.907-66.6671 144.437-66.6671L128.913-66.6671C127.477-66.6671 126.328-65.5056 126.328-64.1625C126.328-62.7727 127.477-61.5438 128.913-61.5438ZM128.913-44.7119L144.437-44.7119C145.907-44.7119 147.103-45.9072 147.103-47.2839C147.103-48.6737 145.907-49.8353 144.437-49.8353L128.913-49.8353C127.477-49.8353 126.328-48.6737 126.328-47.2839C126.328-45.9072 127.477-44.7119 128.913-44.7119ZM128.913-27.9268L144.437-27.9268C145.907-27.9268 147.103-29.0753 147.103-30.4651C147.103-31.8549 145.907-32.9698 144.437-32.9698L128.913-32.9698C127.477-32.9698 126.328-31.8549 126.328-30.4651C126.328-29.0753 127.477-27.9268 128.913-27.9268Z"/>
</svg>