<svg xmlns="http://www.w3.org/2000/svg" viewBox="11.2588 -97.8445 125.34 125.31">
  <path d="M73.9141 27.466C108.426 27.466 136.603-0.711191 136.603-35.1893C136.603-69.6674 108.426-97.8445 73.9141-97.8445C39.436-97.8445 11.2588-69.6674 11.2588-35.1893C11.2588-0.711191 39.436 27.466 73.9141 27.466ZM73.9477 4.65633C72.4438 4.65633 71.3421 3.5078 71.3421 1.97024L71.3421-7.40055L63.933-3.20421C62.6236-2.38491 61.2002-2.79456 60.4482-3.98983C59.7299-5.26552 60.1396-6.70205 61.4957-7.48767L71.3421-13.1542L71.3421-19.3178L71.8527-31.6035L61.5178-24.9939L56.1508-21.8953L56.1845-10.5753C56.1508-8.95729 55.0903-7.92286 53.6331-7.90979C52.1966-7.92286 51.1958-8.95729 51.2295-10.4949L51.1958-19.0353L43.0369-14.3565C41.7406-13.6045 40.1693-13.9805 39.4174-15.2768C38.6785-16.5525 39.1218-18.1237 40.4312-18.8289L48.5771-23.5545L41.2148-27.865C39.8717-28.6169 39.4958-29.9936 40.1673-31.202C40.9062-32.5244 42.3427-32.9004 43.7325-32.068L53.4984-26.4015L58.899-29.5131L69.8512-35.1893L58.899-40.8654L53.5321-43.9771L43.7325-38.2769C42.3427-37.4445 40.9062-37.8205 40.1673-39.1429C39.4958-40.3513 39.8717-41.7617 41.2148-42.4799L48.5771-46.824L40.4312-51.5496C39.1218-52.2548 38.6785-53.8261 39.4174-55.1355C40.1693-56.3981 41.7406-56.7741 43.0369-56.0221L51.1958-51.3433L51.2295-59.85C51.1958-61.3876 52.1966-62.4688 53.6331-62.4351C55.0903-62.4688 56.1508-61.3876 56.1845-59.7696L56.1508-48.4833L61.5178-45.3846L71.8527-38.7751L71.3421-51.0608L71.3421-57.2243L61.4957-62.8909C60.1396-63.6765 59.7299-65.113 60.4482-66.3887C61.2002-67.584 62.6236-67.9937 63.933-67.1744L71.3421-62.978L71.3421-72.3488C71.3421-73.8864 72.4438-75.0349 73.9477-75.0349C75.4516-75.0349 76.5197-73.8864 76.5197-72.3488L76.5197-62.978L83.8821-67.1744C85.2382-67.9937 86.6616-67.584 87.4136-66.3887C88.1188-65.113 87.7559-63.6765 86.3998-62.8909L76.5197-57.2243L76.5197-51.0608L75.9623-38.7284L86.344-45.3846L91.7446-48.4833L91.7109-59.7696C91.7446-61.3876 92.7715-62.4688 94.2287-62.4351C95.6184-62.4688 96.6996-61.3876 96.6659-59.85L96.6996-51.3433L104.812-56.0221C106.121-56.7741 107.692-56.3981 108.478-55.1355C109.183-53.8261 108.693-52.2548 107.431-51.5496L99.2379-46.824L106.647-42.4799C107.99-41.7617 108.366-40.3513 107.648-39.1429C106.989-37.8205 105.553-37.4445 104.163-38.2769L94.3634-43.9771L88.9628-40.8654L78.0573-35.1893L88.9628-29.5131L94.3634-26.4015L104.163-32.1017C105.553-32.934 106.989-32.5581 107.648-31.2356C108.366-30.0273 107.99-28.6169 106.647-27.8986L99.2379-23.5545L107.431-18.8289C108.693-18.1237 109.183-16.5525 108.465-15.2768C107.692-13.9805 106.121-13.6045 104.812-14.3565L96.6996-19.0353L96.6659-10.5285C96.6996-8.99097 95.6184-7.90979 94.2287-7.94347C92.7715-7.90979 91.7446-8.99097 91.7109-10.609L91.7446-21.8953L86.344-24.9939L75.9623-31.6165L76.5197-19.3178L76.5197-13.1542L86.3998-7.48767C87.7559-6.70205 88.1188-5.26552 87.4136-3.98983C86.6616-2.79456 85.2382-2.38491 83.8821-3.20421L76.5197-7.40055L76.5197 1.97024C76.5197 3.5078 75.4516 4.65633 73.9477 4.65633Z"/>
</svg>