<svg xmlns="http://www.w3.org/2000/svg" viewBox="16.084 -89.0994 153.19 107.68">
  <path d="M26.304-11.5226L45.2715-11.5226C46.128-11.5226 46.7507-11.2683 47.3061-10.7596L76.9282 15.5934C78.9503 17.4939 80.8694 18.5806 83.2317 18.5806C86.4526 18.5806 88.6486 16.1584 88.6486 12.9637L88.6486-83.2673C88.6486-86.4284 86.4526-89.0994 83.1644-89.0994C80.802-89.0994 79.1318-87.8855 76.9282-85.9102L47.3061-59.245C46.7507-58.7364 46.128-58.5755 45.2715-58.5755L26.304-58.5755C19.3591-58.5755 16.084-55.046 16.084-47.8785L16.084-22.0457C16.084-14.9118 19.4396-11.5226 26.304-11.5226ZM26.5061-17.6302C23.6673-17.6302 22.5414-18.7691 22.5414-21.6883L22.5414-48.3163C22.5414-51.2486 23.6673-52.4212 26.5061-52.4212L46.4915-52.4212C48.2999-52.4212 49.5529-52.6625 51.0472-54.0763L79.8012-80.2906C80.2762-80.6721 80.6446-81.0199 81.2-81.0199C81.7424-81.0199 82.1575-80.6515 82.1575-79.982L82.1575 9.38278C82.1575 10.1327 81.7424 10.5011 81.2468 10.5011C80.8316 10.5011 80.4632 10.3403 79.848 9.78488L51.0472-15.975C49.5997-17.2617 48.2999-17.6302 46.4915-17.6302ZM110.855-31.7623L165.493-31.7623C167.678-31.7623 169.278-33.1053 169.278-35.1425C169.278-37.3069 167.792-38.6836 165.493-38.6836L110.855-38.6836C108.556-38.6836 107.037-37.3069 107.037-35.1425C107.037-33.1053 108.67-31.7623 110.855-31.7623Z" />
</svg>