<svg xmlns="http://www.w3.org/2000/svg" viewBox="16.084 -99.2529 187.64 128.22">
  <path d="M27.6622 0.16995L75.1308 0.16995C82.3134 0.16995 86.7426-4.22558 86.7426-11.2735L86.7426-59.0116C86.7426-66.0595 82.3134-70.455 75.1308-70.455L27.6622-70.455C20.5132-70.455 16.084-66.0595 16.084-59.0116L16.084-11.2735C16.084-4.22558 20.5132 0.16995 27.6622 0.16995ZM27.823-6.11909C24.5313-6.11909 22.4067-8.27737 22.4067-11.6364L22.4067-58.6487C22.4067-62.0077 24.5313-64.166 27.823-64.166L74.9699-64.166C78.2953-64.166 80.4199-62.0077 80.4199-58.6487L80.4199-11.6364C80.4199-8.27737 78.2953-6.11909 74.9699-6.11909ZM109.926 28.9678C111.754 28.9678 113.003 27.7519 113.003 25.9917L113.003-96.2768C113.003-98.037 111.754-99.2529 109.926-99.2529C108.018-99.2529 106.815-98.037 106.815-96.2768L106.815 25.9917C106.815 27.7519 108.018 28.9678 109.926 28.9678ZM144.641 0.16995L192.144 0.16995C199.293 0.16995 203.722-4.22558 203.722-11.2735L203.722-59.0116C203.722-66.0595 199.293-70.455 192.144-70.455L144.641-70.455C137.492-70.455 133.063-66.0595 133.063-59.0116L133.063-11.2735C133.063-4.22558 137.492 0.16995 144.641 0.16995Z"/>
</svg>