<svg xmlns="http://www.w3.org/2000/svg" viewBox="16.084 -106.708 120.78 142.86">
  <path d="M84.0949-32.9822C84.0949-37.8492 82.6639-40.2886 78.2945-42.8324L27.0243-72.4847C21.7517-75.5166 16.084-73.1713 16.084-66.9049L16.084-6.70468C16.084-1.78337 17.2662 0.541849 21.9518 3.23346L72.6494 32.5022C78.9887 36.1554 84.0949 33.8845 84.0949 25.9629ZM75.0936-36.8052C76.8443-35.7522 77.4017-34.9742 77.4017-32.7802L77.4017 25.5884C77.4017 26.5851 76.7528 27.0394 75.6964 26.4579L25.031-2.81433C23.2934-3.82059 22.7772-4.65296 22.7772-6.80572L22.7772-64.7536C22.7772-66.0101 23.7663-66.4851 24.763-65.9166ZM80.4528 5.35457L99.9228 16.5866C106.262 20.2398 111.368 17.9689 111.368 10.0473L111.368-48.8978C111.368-53.7648 109.937-56.2042 105.615-58.748L54.264-88.4003C49.0251-91.4322 43.3574-89.0869 43.3574-82.8205L43.3574-59.2003L50.0505-55.7059L50.0505-80.7159C50.0505-81.9257 51.0397-82.4344 52.0494-81.8322L102.367-52.7208C104.118-51.6678 104.688-50.8897 104.688-48.7425L104.688 9.67282C104.688 10.6695 104.073 11.1239 102.97 10.5087L80.4528-2.48162ZM107.962-8.74097L125.367 1.31093C131.706 4.9641 136.859 2.65949 136.859-5.27511L136.859-64.2203C136.859-69.121 135.382-71.5603 131.059-74.0704L79.742-103.723C74.5031-106.708 68.8484-104.363 68.8484-98.0962L68.8484-75.4919L75.4949-72.2257L75.4949-96.0253C75.4949-97.2351 76.5308-97.7568 77.5274-97.1416L127.845-68.0433C129.562-67.0239 130.166-66.2459 130.166-64.0519L130.166-5.64964C130.166-4.68663 129.551-4.1986 128.494-4.8138L107.962-16.6108Z"/>
</svg>