<svg xmlns="http://www.w3.org/2000/svg" viewBox="11.2588 -97.925 125.34 125.31">
  <path d="M73.9141 27.3856C108.426 27.3856 136.603-0.791611 136.603-35.2697C136.603-69.7478 108.426-97.925 73.9141-97.925C39.436-97.925 11.2588-69.7478 11.2588-35.2697C11.2588-0.791611 39.436 27.3856 73.9141 27.3856ZM58.3469-47.9203C53.3306-47.9203 49.8967-44.419 49.8967-39.4701L49.8967-16.5888L38.9781-16.5888L38.9781-51.3778C38.9781-55.8311 41.9165-59.0032 46.3437-59.0032L49.098-59.0032L49.098-68.2308C49.098-72.3529 51.692-74.9469 55.9488-74.9469L67.7595-74.9469C71.8815-74.9469 74.4419-72.3529 74.4419-68.2308L74.4419-59.0032L77.1494-59.0032C81.5429-59.0032 84.4682-55.8311 84.4682-51.3778L84.4682-47.9203ZM53.211-59.0032L70.3288-59.0032L70.3288-68.2645C70.3288-69.9046 69.2648-70.8882 67.6715-70.8882L56.0498-70.8882C54.3087-70.8882 53.211-69.9046 53.211-68.2645ZM49.8967-5.5727C49.8967-3.84265 50.2988-2.30712 51.0562-1.01285L46.3437-1.01285C41.9165-1.01285 38.9781-4.21862 38.9781-8.67192L38.9781-12.328L49.8967-12.328ZM104.459-44.043C107.301-44.043 109.031-42.2793 109.031-39.4701L109.031-5.5727C109.031-2.77658 107.301-1.01285 104.459-1.01285L58.5489-1.01285C55.6724-1.01285 53.9423-2.77658 53.9423-5.5727L53.9423-39.4701C53.9423-42.2793 55.6724-44.043 58.5489-44.043ZM58.1599-35.2642L62.0421-35.2642C62.4311-35.2642 62.7061-35.6195 62.7061-35.9282L62.7061-39.4756C62.7061-39.8983 62.4311-40.1733 62.0421-40.1733L58.3936-40.1733C57.7839-40.1733 57.4753-39.8983 57.4753-39.2887L57.4753-35.9282C57.4753-35.6532 57.7839-35.2642 58.1599-35.2642ZM58.1599-27.7253L62.0421-27.7253C62.4311-27.7253 62.7061-28.0003 62.7061-28.3089L62.7061-31.7965C62.7061-32.1519 62.4311-32.4605 62.0421-32.4605L58.1599-32.4605C57.7372-32.4605 57.4753-32.2323 57.4753-31.7965L57.4753-28.3089C57.4753-28.0003 57.7839-27.7253 58.1599-27.7253ZM58.1599-20.1734L62.0421-20.1734C62.4311-20.1734 62.7061-20.482 62.7061-20.858L62.7061-24.1979C62.7061-24.6206 62.4311-24.8955 62.0421-24.8955L58.1599-24.8955C57.7372-24.8955 57.4753-24.6673 57.4753-24.1979L57.4753-20.858C57.4753-20.5157 57.7839-20.1734 58.1599-20.1734ZM58.1599-12.5954L62.0421-12.5954C62.4311-12.5954 62.7061-12.8703 62.7061-13.2126L62.7061-16.6796C62.7061-17.1023 62.5246-17.3305 62.0421-17.3305L58.1599-17.3305C57.7372-17.3305 57.4753-17.1023 57.4753-16.6796L57.4753-13.2126C57.4753-12.904 57.7839-12.5954 58.1599-12.5954ZM58.3936-4.86953L62.0421-4.86953C62.5246-4.86953 62.7061-5.14447 62.7061-5.5335L62.7061-9.09404C62.7061-9.43633 62.4311-9.71127 62.0421-9.71127L58.1599-9.71127C57.7839-9.71127 57.4753-9.43633 57.4753-9.09404L57.4753-5.72047C57.4753-5.19121 57.7839-4.86953 58.3936-4.86953ZM100.75-35.2642L104.645-35.2642C105.055-35.2642 105.296-35.6195 105.296-35.9282L105.296-39.2887C105.296-39.8516 105.008-40.1733 104.412-40.1733L100.75-40.1733C100.408-40.1733 100.133-39.8983 100.133-39.4756L100.133-35.9282C100.133-35.6532 100.408-35.2642 100.75-35.2642ZM100.75-27.7253L104.645-27.7253C105.055-27.7253 105.296-28.0003 105.296-28.3089L105.296-31.7965C105.296-32.2323 105.102-32.4605 104.645-32.4605L100.75-32.4605C100.408-32.4605 100.133-32.1519 100.133-31.7965L100.133-28.3089C100.133-28.0003 100.408-27.7253 100.75-27.7253ZM100.75-20.1734L104.645-20.1734C105.055-20.1734 105.296-20.482 105.296-20.858L105.296-24.1979C105.296-24.6673 105.102-24.8955 104.645-24.8955L100.75-24.8955C100.408-24.8955 100.133-24.6206 100.133-24.1979L100.133-20.858C100.133-20.5157 100.408-20.1734 100.75-20.1734ZM100.75-12.5954L104.645-12.5954C105.055-12.5954 105.296-12.8703 105.296-13.2126L105.296-16.6796C105.296-17.1023 105.102-17.3305 104.645-17.3305L100.75-17.3305C100.361-17.3305 100.133-17.1023 100.133-16.6796L100.133-13.2126C100.133-12.904 100.408-12.5954 100.75-12.5954ZM100.75-4.86953L104.412-4.86953C105.055-4.86953 105.296-5.19121 105.296-5.72047L105.296-9.09404C105.296-9.43633 105.055-9.71127 104.645-9.71127L100.75-9.71127C100.408-9.71127 100.133-9.43633 100.133-9.09404L100.133-5.5335C100.133-5.14447 100.361-4.86953 100.75-4.86953ZM66.4954-25.0735C66.4954-24.6508 66.6432-24.503 67.1463-24.503L95.8611-24.503C96.3643-24.503 96.4784-24.6508 96.4784-25.0735L96.4784-39.6028C96.4784-39.9451 96.2839-40.1733 95.8611-40.1733L67.1463-40.1733C66.6899-40.1733 66.4954-39.9451 66.4954-39.6028ZM66.4954-5.48676C66.4954-5.01731 66.6432-4.86953 67.1463-4.86953L95.8611-4.86953C96.3643-4.86953 96.4784-5.01731 96.4784-5.48676L96.4784-19.9954C96.4784-20.4181 96.3643-20.5659 95.8611-20.5659L67.1463-20.5659C66.6432-20.5659 66.4954-20.4181 66.4954-19.9954Z"/>
</svg>