<svg xmlns="http://www.w3.org/2000/svg" viewBox="16.084 -110.859 145.4 151.18">
  <path d="M64.7203-15.0904L75.3793-15.0904C67.3614-19.5692 61.8496-28.2677 61.8496-38.1593C61.8496-52.969 73.9739-65.0933 88.7836-65.0933C103.593-65.0933 115.718-52.969 115.718-38.1593C115.718-28.2677 110.206-19.5692 102.188-15.0904L112.847-15.0904C118.687-21.0415 122.25-29.1619 122.25-38.1593C122.25-56.5644 107.155-71.6593 88.7836-71.6593C70.4121-71.6593 55.3173-56.5644 55.3173-38.1593C55.3173-29.1619 58.8799-21.0415 64.7203-15.0904ZM19.6065-36.4679L39.3413-36.4679C41.3579-36.4679 42.8975-37.9195 42.8638-39.7677C42.8301-41.4888 41.3579-43.0676 39.3413-43.0676L19.6065-43.0676C17.603-43.0676 16.084-41.5355 16.084-39.7677C16.084-37.9662 17.603-36.4679 19.6065-36.4679ZM56.2939-70.649C57.5641-71.8724 57.5641-74.0966 56.1386-75.4417L42.1543-89.426C40.7157-90.8982 38.6056-90.7374 37.3953-89.5476C36.0447-88.2775 35.9979-86.2272 37.5169-84.7549L51.5012-70.7706C52.8463-69.3788 55.0238-69.3451 56.2939-70.649ZM88.7836-84.0791C90.5514-84.1128 92.0834-85.5981 92.0834-87.5549L92.0834-107.336C92.0834-109.34 90.5514-110.859 88.7836-110.859C87.0158-110.859 85.4837-109.34 85.4837-107.336L85.4837-87.5549C85.4837-85.5981 87.0158-84.0454 88.7836-84.0791ZM121.273-70.649C122.577-69.3788 124.721-69.3788 126.066-70.7706L140.05-84.7549C141.569-86.2272 141.489-88.2438 140.172-89.5476C138.948-90.7711 136.851-90.8982 135.413-89.426L121.429-75.4417C120.003-74.0966 119.969-71.8387 121.273-70.649ZM138.226-36.4679L157.961-36.4679C160.011-36.4679 161.483-37.9195 161.483-39.7677C161.483-41.4888 160.011-43.0676 157.961-43.0676L138.226-43.0676C136.256-43.0676 134.67-41.5355 134.703-39.7677C134.737-37.9662 136.256-36.4679 138.226-36.4679ZM23.5953-11.4668L153.837-11.4668C155.395-11.4668 156.671-12.6023 156.671-14.1942C156.671-15.7056 155.395-16.9215 153.837-16.9215L23.5953-16.9215C22.0371-16.9215 20.7614-15.7056 20.7614-14.1942C20.7614-12.6023 22.0371-11.4668 23.5953-11.4668ZM30.3183 9.75994C31.9212 9.75994 33.135 8.51241 33.135 6.90953C33.135 5.34032 31.9212 4.0928 30.3183 4.0928C28.7154 4.0928 27.5016 5.34032 27.5016 6.90953C27.5016 8.51241 28.7154 9.75994 30.3183 9.75994ZM56.9373 9.75994C58.5402 9.75994 59.754 8.51241 59.754 6.90953C59.754 5.34032 58.5402 4.0928 56.9373 4.0928C55.3344 4.0928 54.1206 5.34032 54.1206 6.90953C54.1206 8.51241 55.3344 9.75994 56.9373 9.75994ZM83.5563 9.75994C85.1592 9.75994 86.373 8.51241 86.373 6.90953C86.373 5.34032 85.1592 4.0928 83.5563 4.0928C81.9534 4.0928 80.7396 5.34032 80.7396 6.90953C80.7396 8.51241 81.9534 9.75994 83.5563 9.75994ZM110.175 9.75994C111.778 9.75994 112.992 8.51241 112.992 6.90953C112.992 5.34032 111.778 4.0928 110.175 4.0928C108.572 4.0928 107.359 5.34032 107.359 6.90953C107.359 8.51241 108.572 9.75994 110.175 9.75994ZM136.794 9.75994C138.397 9.75994 139.611 8.51241 139.611 6.90953C139.611 5.34032 138.397 4.0928 136.794 4.0928C135.191 4.0928 133.978 5.34032 133.978 6.90953C133.978 8.51241 135.191 9.75994 136.794 9.75994ZM22.2763 25.0397C23.8792 25.0397 25.0931 23.7922 25.0931 22.1893C25.0931 20.6201 23.8792 19.3726 22.2763 19.3726C20.6734 19.3726 19.4596 20.6201 19.4596 22.1893C19.4596 23.7922 20.6734 25.0397 22.2763 25.0397ZM48.8953 25.0397C50.4982 25.0397 51.712 23.7922 51.712 22.1893C51.712 20.6201 50.4982 19.3726 48.8953 19.3726C47.2924 19.3726 46.0786 20.6201 46.0786 22.1893C46.0786 23.7922 47.2924 25.0397 48.8953 25.0397ZM75.5143 25.0397C77.1172 25.0397 78.331 23.7922 78.331 22.1893C78.331 20.6201 77.1172 19.3726 75.5143 19.3726C73.9114 19.3726 72.6976 20.6201 72.6976 22.1893C72.6976 23.7922 73.9114 25.0397 75.5143 25.0397ZM102.133 25.0397C103.736 25.0397 104.95 23.7922 104.95 22.1893C104.95 20.6201 103.736 19.3726 102.133 19.3726C100.53 19.3726 99.3166 20.6201 99.3166 22.1893C99.3166 23.7922 100.53 25.0397 102.133 25.0397ZM128.752 25.0397C130.355 25.0397 131.569 23.7922 131.569 22.1893C131.569 20.6201 130.355 19.3726 128.752 19.3726C127.149 19.3726 125.936 20.6201 125.936 22.1893C125.936 23.7922 127.149 25.0397 128.752 25.0397ZM155.371 25.0397C156.974 25.0397 158.188 23.7922 158.188 22.1893C158.188 20.6201 156.974 19.3726 155.371 19.3726C153.768 19.3726 152.555 20.6201 152.555 22.1893C152.555 23.7922 153.768 25.0397 155.371 25.0397ZM40.8533 40.3195C42.4562 40.3195 43.6701 39.072 43.6701 37.4691C43.6701 35.8999 42.4562 34.6524 40.8533 34.6524C39.2504 34.6524 38.0366 35.8999 38.0366 37.4691C38.0366 39.072 39.2504 40.3195 40.8533 40.3195ZM67.4723 40.3195C69.0752 40.3195 70.289 39.072 70.289 37.4691C70.289 35.8999 69.0752 34.6524 67.4723 34.6524C65.8694 34.6524 64.6556 35.8999 64.6556 37.4691C64.6556 39.072 65.8694 40.3195 67.4723 40.3195ZM94.0913 40.3195C95.6942 40.3195 96.908 39.072 96.908 37.4691C96.908 35.8999 95.6942 34.6524 94.0913 34.6524C92.4884 34.6524 91.2746 35.8999 91.2746 37.4691C91.2746 39.072 92.4884 40.3195 94.0913 40.3195ZM120.71 40.3195C122.313 40.3195 123.527 39.072 123.527 37.4691C123.527 35.8999 122.313 34.6524 120.71 34.6524C119.107 34.6524 117.894 35.8999 117.894 37.4691C117.894 39.072 119.107 40.3195 120.71 40.3195ZM147.329 40.3195C148.932 40.3195 150.146 39.072 150.146 37.4691C150.146 35.8999 148.932 34.6524 147.329 34.6524C145.726 34.6524 144.513 35.8999 144.513 37.4691C144.513 39.072 145.726 40.3195 147.329 40.3195Z"/>
</svg>