<svg xmlns="http://www.w3.org/2000/svg" viewBox="4.65129 -102.129 126.15 133.91">
  <path d="M33.966-102.129C28.1049-102.129 23.723-100.429 20.8671-97.2836L26.0956-92.0682C27.702-94.2802 30.4507-95.503 34.3289-95.503L101.206-95.503C108.814-95.503 112.791-91.5047 112.791-83.985L112.791-5.40609L119.37 1.21973L119.37-84.1458C119.37-95.9943 113.35-102.129 101.522-102.129ZM33.966 31.7764L101.522 31.7764C107.464 31.7764 111.892 30.1103 114.701 26.9649L109.52 21.7831C107.82 24.0549 105.084 25.1506 101.206 25.1506L34.3289 25.1506C26.6745 25.1506 22.7435 21.1523 22.7435 13.6326L22.7435-65.0062L16.1177-71.632L16.1177 13.7934C16.1177 25.6755 22.1849 31.7764 33.966 31.7764ZM48.3655-69.8189L92.9056-69.8189C94.5105-69.8189 95.6928-71.0478 95.6928-72.606C95.6928-74.0838 94.5105-75.279 92.9056-75.279L42.9185-75.279ZM70.5202-47.6305L92.9056-47.6305C94.5105-47.6305 95.6928-48.8932 95.6928-50.4046C95.6928-51.8954 94.5105-53.1244 92.9056-53.1244L65.1068-53.1244ZM42.5825-25.4759L62.3075-25.4759L56.894-30.936L42.5825-30.936C40.9907-30.936 39.7954-29.7071 39.7954-28.1489C39.7954-26.6711 40.9907-25.4759 42.5825-25.4759ZM124.931 26.5567C126.248 27.7932 128.257 27.7932 129.507 26.5567C130.803 25.2267 130.743 23.2307 129.507 21.9475L10.4633-97.0961C9.27357-98.2858 7.23084-98.3793 5.90085-97.0961C4.65129-95.8465 4.65129-93.7701 5.90085-92.5205Z"/>
</svg>