<svg xmlns="http://www.w3.org/2000/svg" viewBox="11.2588 -97.925 125.34 125.31">
  <path d="M73.9141 27.3856C108.426 27.3856 136.603-0.791611 136.603-35.2697C136.603-69.7478 108.426-97.925 73.9141-97.925C39.436-97.925 11.2588-69.7478 11.2588-35.2697C11.2588-0.791611 39.436 27.3856 73.9141 27.3856ZM34.9606-19.3321L34.9606-51.2074C34.9606-52.2548 35.3703-52.9394 36.3504-53.3958C40.1226-55.2118 42.1331-57.0821 44.1511-61.3313C44.5608-62.2647 45.3595-62.7211 46.3059-62.7211L101.361-62.7211C102.341-62.7211 103.106-62.2647 103.55-61.3313C105.615-57.0821 107.578-55.2118 111.351-53.3958C112.331-52.9394 112.753-52.2548 112.753-51.2074L112.753-19.3321C112.753-18.2846 112.331-17.6 111.351-17.1903C107.578-15.3743 105.615-13.5041 103.55-9.20813C103.106-8.27474 102.341-7.86509 101.361-7.86509L46.3059-7.86509C45.3595-7.86509 44.5608-8.27474 44.1511-9.20813C42.1331-13.5041 40.1226-15.3743 36.3504-17.1903C35.3703-17.6 34.9606-18.2846 34.9606-19.3321ZM45.8275-21.2203C45.8275-18.95 47.374-17.3697 49.564-17.3697L98.0902-17.3697C100.327-17.3697 101.873-18.95 101.873-21.2203L101.873-49.2724C101.873-51.4959 100.327-53.0762 98.0902-53.0762L49.564-53.0762C47.374-53.0762 45.8275-51.4959 45.8275-49.2724ZM49.6766-42.0607L49.6766-48.2228C49.6766-48.8923 50.0581-49.2401 50.6472-49.2401L55.0194-49.2401L55.0194-42.0607ZM49.6766-31.5332L49.6766-38.9127L55.0194-38.9127L55.0194-31.5332ZM49.6766-22.2231L49.6766-28.3852L55.0194-28.3852L55.0194-21.2058L50.6472-21.2058C50.0581-21.2058 49.6766-21.6004 49.6766-22.2231ZM92.6348-42.0607L92.6348-49.2401L97.0538-49.2401C97.6428-49.2401 98.0374-48.8923 98.0374-48.2228L98.0374-42.0607ZM92.6348-31.7669L92.6348-38.679L98.0374-38.679L98.0374-31.7669ZM92.6348-21.2058L92.6348-28.3852L98.0374-28.3852L98.0374-22.2231C98.0374-21.6004 97.6428-21.2058 97.0538-21.2058ZM58.7751-21.2058L58.7751-49.2401L88.7987-49.2401L88.7987-21.2058Z"/>
</svg>