<svg xmlns="http://www.w3.org/2000/svg" viewBox="11.2588 -97.925 125.34 125.31">
  <path d="M73.9141 27.3856C108.519 27.3856 136.603-0.66445 136.603-35.2697C136.603-69.875 108.519-97.925 73.9141-97.925C39.3425-97.925 11.2588-69.875 11.2588-35.2697C11.2588-0.66445 39.3425 27.3856 73.9141 27.3856ZM73.9141 20.4903C43.0726 20.4903 18.141-4.42824 18.141-35.2697C18.141-66.1112 43.0726-91.0297 73.9141-91.0297C104.756-91.0297 129.674-66.1112 129.674-35.2697C129.674-4.42824 104.756 20.4903 73.9141 20.4903ZM62.016-40.0034C70.4766-40.0371 76.9569-42.891 82.4702-48.1203C77.3831-54.5876 71.5613-58.597 62.5508-58.6307C53.5402-58.6307 47.5912-55.9768 41.9563-47.9932C47.3836-42.8573 53.9183-39.9698 62.016-40.0034ZM42.7866-22.7468C47.075-27.3212 49.8189-33.0612 50.7221-38.4267C46.776-39.8873 42.7454-42.4216 39.985-44.9764C38.4646-42.6126 36.9105-39.9477 35.5041-37.3482C33.0503-32.8014 29.6018-29.4278 27.4978-27.8923C26.961-27.4153 26.572-26.6372 26.572-25.8853C26.572-24.8302 27.5336-24.1456 29.6492-24.1456C31.0686-24.1456 32.7684-24.1456 34.1411-24.1456C37.6775-24.1456 40.3087-23.4968 42.7866-22.7468ZM61.3691-16.646C68.816-16.646 73.8728-19.3637 78.2863-21.2732C73.5903-26.128 71.1626-31.3724 70.5138-37.5813C67.8283-36.7846 65.0156-36.4162 62.0833-36.4162C59.1304-36.4162 56.4786-36.6911 53.8997-37.3476C53.1106-31.9539 50.8025-26.6084 46.3739-21.3928C50.3461-19.605 54.7224-16.646 61.3691-16.646ZM81.6715-22.7077C84.6113-23.6707 87.4034-24.3793 90.867-24.3793C92.9675-24.3793 95.0212-24.5814 96.0144-25.2791C92.7584-29.2664 87.303-40.1739 84.3144-45.2644C81.279-42.5693 77.2615-40.0537 73.8447-38.6604C74.4337-32.6742 76.6951-27.8505 81.6715-22.7077ZM111.348-30.7401C118.006-30.7401 122.844-33.5939 122.844-37.9758C122.844-47.0392 117.825-53.8467 110.245-53.8467C103.463-53.8467 99.5413-49.306 97.86-43.3791C96.1471-38.3971 94.9724-36.5213 93.4726-35.115C95.2605-32.3099 97.3328-28.7955 99.1508-26.6462C103.79-29.0884 106.147-30.7401 111.348-30.7401ZM111.335-40.6035C110.061-40.6035 109.062-41.5761 109.062-42.8965C109.062-44.1365 110.061-45.2026 111.335-45.2026C112.481-45.2026 113.594-44.1365 113.594-42.8965C113.594-41.5761 112.481-40.6035 111.335-40.6035ZM35.0065-12.0077C39.2783-12.0077 43.8437-14.0986 46.2563-17.4687C42.3122-19.4456 40.0489-20.6278 36.1495-20.8147C35.4629-20.5996 34.6154-20.5659 33.8821-20.4181C30.7628-19.5954 28.6644-18.6173 28.6644-16.2851C28.6644-13.6031 31.2735-12.0077 35.0065-12.0077ZM88.7072-11.774C92.4739-11.774 95.0157-13.4161 95.0157-16.0177C95.0157-18.3031 92.9509-19.9397 89.7849-20.4539C88.7038-20.581 87.804-20.6745 86.749-20.7212C84.3193-20.4071 79.0905-18.1498 77.5042-17.1883C79.8364-13.8182 84.4223-11.774 88.7072-11.774Z" />
</svg>