<svg xmlns="http://www.w3.org/2000/svg" viewBox="11.2588 -97.8445 125.34 125.31">
  <path d="M73.9141 27.466C108.426 27.466 136.603-0.711191 136.603-35.1893C136.603-69.6674 108.426-97.8445 73.9141-97.8445C39.436-97.8445 11.2588-69.6674 11.2588-35.1893C11.2588-0.711191 39.436 27.466 73.9141 27.466ZM45.4419-9.95193C39.3335-9.95193 36.2026-13.0828 36.2026-19.0771L36.2026-36.6836C36.2026-38.9992 36.5786-39.9457 37.6522-41.429L50.3786-58.2698C53.418-62.323 55.3632-63.363 60.2392-63.363L87.6563-63.363C92.566-63.363 94.4775-62.323 97.5169-58.2698L110.277-41.429C111.351-39.9457 111.727-38.9992 111.727-36.6836L111.727-19.0771C111.727-13.1295 108.596-9.95193 102.454-9.95193ZM42.9701-38.5614L63.5942-38.5614C64.8829-38.5614 65.5077-37.5943 65.5077-36.5544L65.5077-36.01C65.5077-31.0597 69.0366-27.6917 73.9477-27.6917C78.8925-27.6917 82.4084-31.0597 82.4084-36.01L82.4084-36.5544C82.4084-37.5943 83.0125-38.5614 84.3013-38.5614L105.006-38.5614C105.711-38.5614 105.905-39.1862 105.563-39.6426L93.2444-56.0627C91.8979-57.8918 90.7439-58.7091 88.1519-58.7091L59.7305-58.7091C57.2189-58.7091 56.0182-57.9255 54.638-56.0627L42.4127-39.6426C42.0367-39.1188 42.1845-38.5614 42.9701-38.5614Z"/>
</svg>