<svg xmlns="http://www.w3.org/2000/svg" viewBox="16.084 -88.6064 111.59 107.41">
  <path d="M127.626-80.4878L127.626-87.3156C118.895-85.4584 111.558-82.2396 103.371-77.1038L73.7994-58.5419L47.2869-54.8742C25.8485-51.9509 16.3871-43.0112 16.3871-26.4784L16.3871-12.8436C16.3871-2.55126 21.727 2.99627 31.7911 2.99627L49.9605 2.99627L49.9605-3.58281L32.0812-3.58281C26.1548-3.58281 23.0466-7.12129 23.0466-13.5508L23.0466-26.4784C23.0466-39.1801 30.5346-45.8901 48.1736-48.2484L76.0105-52.1312L106.819-71.4189C113.87-75.8289 120.212-78.7316 127.626-80.4878ZM127.672 2.99627L127.672-3.58281L86.0273-3.58281L86.0273 2.99627ZM67.8152 18.8074C80.318 18.8074 89.965 9.16044 89.965-3.3424C89.965-15.7985 80.318-25.4921 67.8152-25.4921C55.3124-25.4921 45.6655-15.7985 45.6655-3.3424C45.6655 9.16044 55.3124 18.8074 67.8152 18.8074ZM67.8152 12.1479C59.0892 12.1479 52.325 5.41726 52.325-3.3424C52.325-12.0553 59.0892-18.8663 67.8152-18.8663C76.5281-18.8663 83.3859-12.0553 83.3859-3.3424C83.3859 5.41726 76.5281 12.1479 67.8152 12.1479ZM19.1948-82.5195L41.7098-82.5195C44.629-82.5195 46.2786-81.9098 47.8664-80.322L73.1821-54.9595L79.0334-58.1638L52.8777-84.3662C49.9655-87.372 46.3405-88.6064 41.1709-88.6064L19.1948-88.6064C17.3466-88.6064 16.084-87.3438 16.084-85.5966C16.084-83.769 17.3466-82.5195 19.1948-82.5195Z"/>
</svg>