<svg xmlns="http://www.w3.org/2000/svg" viewBox="16.084 -95.733 100.99 124.35">
  <path d="M66.5773 28.618C67.7891 28.618 69.3975 28.0159 70.746 27.2378C105.733 6.70661 117.071-0.617708 117.071-21.6175L117.071-69.3759C117.071-76.204 114.776-78.4015 108.714-80.8066C99.022-84.6496 81.1904-91.3477 71.4512-94.768C69.8092-95.3309 68.24-95.733 66.5773-95.733C64.9146-95.733 63.3117-95.2636 61.7033-94.768C52.0108-91.4301 34.1326-84.6159 24.3934-80.8066C18.379-78.4819 16.084-76.204 16.084-69.3759L16.084-21.6175C16.084-0.617708 27.562 6.39248 62.4085 27.2378C63.7571 28.0159 65.3654 28.618 66.5773 28.618ZM66.5773 21.3653C65.5187 21.3653 64.32 20.7969 62.99 19.9645C33.7247 1.47202 22.6425-3.76834 22.6425-22.7495L22.6425-68.1394C22.6425-71.7838 23.3381-73.1751 26.027-74.2522C33.7967-77.3383 55.4209-85.2244 63.2841-88.2507C64.5557-88.8061 65.7937-89.0735 66.5773-89.0735C67.3608-89.0735 68.5053-88.7594 69.8237-88.2507C77.6532-85.2244 99.1763-77.1362 107.094-74.2522C109.816-73.2087 110.478-71.7838 110.478-68.1394L110.478-22.7495C110.478-3.76834 99.3027 1.3318 70.1308 19.9645C68.8345 20.7969 67.6358 21.3653 66.5773 21.3653ZM46.9238-12.1122L91.128-56.3969C91.8799-57.1152 92.2092-57.9214 92.2092-58.8885C92.2092-60.7498 90.7445-62.1677 88.7897-62.1677C87.8226-62.1677 87.0631-61.8852 86.3318-61.0865L42.0135-16.8692C41.2615-16.151 40.8986-15.3447 40.8986-14.3907C40.8986-12.4827 42.4437-11.0311 44.3518-11.0311C45.3993-11.0311 46.1587-11.394 46.9238-12.1122ZM86.2644-12.1122C86.9958-11.394 87.7422-11.0311 88.7897-11.0311C90.7445-11.0311 92.2092-12.4827 92.2092-14.3907C92.2092-15.3447 91.8799-16.151 91.128-16.8692L46.8564-61.0865C46.0914-61.8852 45.3188-62.1677 44.3518-62.1677C42.4437-62.1677 40.8986-60.7498 40.8986-58.8885C40.8986-57.9214 41.2615-57.1152 42.0135-56.3969Z" />
</svg>