<svg xmlns="http://www.w3.org/2000/svg" viewBox="16.084 -95.939 121.37 121.4">
  <path d="M38.8315 25.46L114.705 25.46C129.348 25.46 137.453 17.3442 137.453 2.80309L137.453-73.2821C137.453-87.8232 129.348-95.939 114.705-95.939L38.8315-95.939C24.2188-95.939 16.084-87.8344 16.084-73.2821L16.084 2.80309C16.084 17.3554 24.2188 25.46 38.8315 25.46ZM57.2217-8.25379C44.1405-8.25379 40.1714-22.4163 40.1714-35.2697C40.1714-48.1231 44.1405-62.2856 57.2217-62.2856C70.2368-62.2856 74.2115-48.1231 74.2115-35.2697C74.2115-22.4163 70.2368-8.25379 57.2217-8.25379ZM57.2217-17.5146C60.9963-17.5146 62.4924-24.4645 62.4924-35.2697C62.4924-46.0749 60.9963-53.0248 57.2217-53.0248C53.3722-53.0248 51.8761-46.0749 51.8761-35.2697C51.8761-24.4645 53.3722-17.5146 57.2217-17.5146ZM104.324-8.7307C101.482-8.7307 98.8185-10.3709 98.8185-14.3023L98.8185-18.7805L87.0028-18.7805C82.8562-18.7805 80.4252-21.0531 80.4252-25.1539C80.4252-27.4442 80.9801-29.7953 81.9718-32.4419L89.7807-51.4605C91.8465-56.9278 94.1524-61.6313 101.013-61.6313C106.254-61.6313 109.824-58.6558 109.824-53.2359L109.824-27.9163L111.089-27.9163C114.092-27.9163 115.448-26.1508 115.448-23.3786C115.448-20.9778 114.31-18.7805 111-18.7805L109.824-18.7805L109.824-14.3023C109.824-10.3834 107.411-8.7307 104.324-8.7307ZM99.1768-27.558L99.1768-52.4333L98.9355-52.4333L89.9374-28.057L89.9374-27.558Z"/>
</svg>