<svg xmlns="http://www.w3.org/2000/svg" viewBox="16.084 -95.939 121.37 121.4">
  <path d="M38.8315 25.46L114.705 25.46C129.348 25.46 137.453 17.3442 137.453 2.80309L137.453-73.2821C137.453-87.8232 129.348-95.939 114.705-95.939L38.8315-95.939C24.2188-95.939 16.084-87.8344 16.084-73.2821L16.084 2.80309C16.084 17.3554 24.2188 25.46 38.8315 25.46ZM49.053-9.59287C45.5704-9.59287 43.7114-11.3527 43.7114-14.1607C43.7114-16.2356 44.6173-17.9062 46.6813-20.4591L55.9875-32.3893C59.7727-37.1051 63.0396-41.9171 63.0396-46.7035C63.0396-50.2947 61.6792-53.2939 58.4632-53.2939C55.5555-53.2939 54.3863-50.9339 53.4903-47.8234C52.6473-45.0769 50.8241-43.901 48.4647-43.901C45.3909-43.901 43.7026-46.0315 43.7026-48.9076C43.7026-55.9608 50.2761-62.1964 58.4877-62.1964C67.5457-62.1964 73.9448-56.4233 73.9448-47.1045C73.9448-40.4309 70.8845-35.6527 65.2801-28.8493L57.3806-19.2157L57.3806-18.645L70.3978-18.645C73.4391-18.645 74.8073-16.6377 74.8073-14.1217C74.8073-11.6606 73.4693-9.59287 70.3978-9.59287ZM85.3368-9.59287C81.8152-9.59287 79.9808-11.3527 79.9808-14.1607C79.9808-16.2356 80.9369-17.9062 82.9506-20.4591L92.2569-32.3893C96.0174-37.1051 99.2843-41.9171 99.2843-46.7035C99.2843-50.2947 97.9239-53.2939 94.7325-53.2939C91.8449-53.2939 90.6556-50.9339 89.7596-47.8234C88.9223-45.0769 87.1292-43.901 84.734-43.901C81.6802-43.901 79.9719-46.0315 79.9719-48.9076C79.9719-55.9608 86.5455-62.1964 94.7571-62.1964C103.791-62.1964 110.229-56.4233 110.229-47.1045C110.229-40.4309 107.124-35.6527 101.6-28.8493L93.6555-19.2157L93.6555-18.645L106.703-18.645C109.678-18.645 111.077-16.6377 111.077-14.1217C111.077-11.6606 109.708-9.59287 106.703-9.59287Z"/>
</svg>