<svg xmlns="http://www.w3.org/2000/svg" viewBox="16.084 -95.939 121.37 121.4">
  <path d="M38.8315 25.46L114.705 25.46C129.348 25.46 137.453 17.3442 137.453 2.80309L137.453-73.2821C137.453-87.8232 129.348-95.939 114.705-95.939L38.8315-95.939C24.2188-95.939 16.084-87.8344 16.084-73.2821L16.084 2.80309C16.084 17.3554 24.2188 25.46 38.8315 25.46ZM40.9557 7.92943C36.118 7.92943 33.5844 5.63471 33.5844 0.527938L33.5844-71.007C33.5844-76.1439 36.118-78.4085 40.9557-78.4085L112.581-78.4085C117.396-78.4085 119.952-76.1439 119.952-71.007L119.952 0.527938C119.952 5.63471 117.396 7.92943 112.581 7.92943ZM50.1538-11.026L70.3401-11.026C73.2173-11.026 74.5106-12.9743 74.5106-15.2658C74.5106-17.6679 73.1871-19.586 70.3401-19.586L57.9948-19.586L57.9948-20.0517L65.5059-29.2522C70.7966-35.6671 73.6626-40.2366 73.6626-46.4771C73.6626-55.3038 67.652-60.7632 59.0963-60.7632C51.3379-60.7632 45.117-54.8413 45.117-48.2212C45.117-45.479 46.7361-43.4736 49.5956-43.4736C51.8714-43.4736 53.545-44.569 54.3433-47.1515C55.1646-50.1481 56.3035-52.3529 59.0717-52.3529C62.1136-52.3529 63.4293-49.5178 63.4293-46.1063C63.4293-41.5588 60.3265-37.0604 56.8104-32.5534L47.9373-21.2807C46.0374-18.8616 45.1258-17.2658 45.1258-15.3048C45.1258-12.6664 46.871-11.026 50.1538-11.026ZM84.443-11.026L104.599-11.026C107.476-11.026 108.764-12.9743 108.764-15.2658C108.764-17.6679 107.446-19.586 104.599-19.586L92.2538-19.586L92.2538-20.0517L99.765-29.2522C105.056-35.6671 107.946-40.2366 107.946-46.4771C107.946-55.3038 101.911-60.7632 93.3554-60.7632C85.597-60.7632 79.4063-54.8413 79.4063-48.2212C79.4063-45.479 80.9952-43.4736 83.8547-43.4736C86.1305-43.4736 87.8041-44.569 88.6024-47.1515C89.4482-50.1481 90.5626-52.3529 93.3308-52.3529C96.4028-52.3529 97.6884-49.5178 97.6884-46.1063C97.6884-41.5588 94.5856-37.0604 91.0695-32.5534L82.1908-21.2807C80.2964-18.8616 79.4151-17.2658 79.4151-15.3048C79.4151-12.6664 81.1301-11.026 84.443-11.026Z" />
</svg>