<svg xmlns="http://www.w3.org/2000/svg" viewBox="11.2588 -102.264 134.02 133.99">
  <path d="M78.2532 31.7248C115.252 31.7248 145.278 1.69868 145.278-35.2697C145.278-72.2381 115.252-102.264 78.2532-102.264C41.2849-102.264 11.2588-72.2381 11.2588-35.2697C11.2588 1.69868 41.2849 31.7248 78.2532 31.7248ZM78.6396-4.30093C67.3843-4.30093 58.1117-9.20997 55.7354-16.3552C55.3961-17.4763 55.1818-18.4799 55.1818-19.7148C55.1818-23.805 58.1144-26.4196 62.6842-26.4196C65.6507-26.4196 67.7807-25.1746 69.4337-22.6632C71.1781-19.44 74.1609-17.3663 78.9677-17.3663C83.7264-17.3663 86.9068-19.7286 86.9068-23.2458C86.9068-26.9514 83.7654-29.3206 78.6682-29.3206L76.5795-29.3206C72.214-29.3206 69.3474-31.8692 69.3474-35.7583C69.3474-39.7524 72.1248-42.1816 76.5795-42.1816L78.5137-42.1816C82.7641-42.1816 85.6995-44.6633 85.6995-48.2602C85.6995-51.5434 82.9978-53.5747 78.7403-53.5747C74.7601-53.5747 71.7549-51.6129 70.1046-48.2778C68.4483-45.713 66.3573-44.5214 63.3997-44.5214C58.8154-44.5214 55.933-47.0812 55.933-51.1659C55.933-52.3561 56.1027-53.4647 56.4364-54.5858C58.7643-61.7714 67.2266-66.2385 78.8755-66.2385C92.9063-66.2385 102.178-59.7894 102.178-50.0351C102.178-43.8768 97.1392-38.1499 90.8684-37.2874L90.8684-36.4592C98.3445-35.8391 103.861-29.7974 103.861-22.2917C103.861-11.3813 94.2259-4.30093 78.6396-4.30093Z"/>
</svg>