<svg xmlns="http://www.w3.org/2000/svg" viewBox="16.084 -95.939 121.37 121.4">
  <path d="M38.8315 25.46L114.705 25.46C129.348 25.46 137.453 17.3442 137.453 2.80309L137.453-73.2821C137.453-87.8232 129.348-95.939 114.705-95.939L38.8315-95.939C24.2188-95.939 16.084-87.8344 16.084-73.2821L16.084 2.80309C16.084 17.3554 24.2188 25.46 38.8315 25.46ZM40.9557 7.92943C36.118 7.92943 33.5844 5.63471 33.5844 0.527938L33.5844-71.007C33.5844-76.1439 36.118-78.4085 40.9557-78.4085L112.581-78.4085C117.396-78.4085 119.952-76.1439 119.952-71.007L119.952 0.527938C119.952 5.63471 117.396 7.92943 112.581 7.92943ZM64.5588-10.1639C67.4071-10.1639 69.7061-11.772 69.7061-15.452L69.7061-19.7359L70.8764-19.7359C73.9836-19.7359 75.0167-21.7333 75.0167-24.0203C75.0167-26.6285 73.765-28.2991 70.921-28.2991L69.7061-28.2991L69.7061-52.2949C69.7061-57.3923 66.3697-60.1982 61.4112-60.1982C54.9986-60.1982 52.8567-55.7925 50.9104-50.6534L43.4309-32.5469C42.4536-30.0644 41.9735-27.8772 41.9735-25.7065C41.9735-21.8835 44.2103-19.7359 48.1784-19.7359L59.4114-19.7359L59.4114-15.452C59.4114-11.7293 61.8859-10.1639 64.5588-10.1639ZM59.6949-27.9855L50.9188-27.9855L50.9188-28.4455L59.4536-51.5225L59.6949-51.5225ZM84.8161-11.026L105.002-11.026C107.88-11.026 109.137-12.9743 109.137-15.2658C109.137-17.6679 107.849-19.586 105.002-19.586L92.6571-19.586L92.6571-20.0517L100.168-29.2522C105.453-35.6671 108.319-40.2366 108.319-46.4771C108.319-55.3038 102.314-60.7632 93.7284-60.7632C85.9946-60.7632 79.7793-54.8413 79.7793-48.2212C79.7793-45.479 81.3984-43.4736 84.2579-43.4736C86.5337-43.4736 88.2073-44.569 89-47.1515C89.8213-50.1481 90.9659-52.3529 93.7039-52.3529C96.7759-52.3529 98.0917-49.5178 98.0917-46.1063C98.0917-41.5588 94.9888-37.0604 91.4671-32.5534L82.594-21.2807C80.6695-18.8616 79.7881-17.2658 79.7881-15.3048C79.7881-12.6664 81.5333-11.026 84.8161-11.026Z" />
</svg>