<svg xmlns="http://www.w3.org/2000/svg" viewBox="16.084 -87.5666 121.37 105.66">
  <path d="M16.084 9.34152C16.084 14.1446 20.0254 18.0917 24.8342 18.0917C29.6675 18.0917 33.5844 14.1446 33.5844 9.34152L33.5844-78.7862C33.5844-83.6195 29.6675-87.5666 24.8342-87.5666C20.0254-87.5666 16.084-83.6195 16.084-78.7862ZM119.952 9.34152C119.952 14.1446 123.9 18.0917 128.703 18.0917C133.542 18.0917 137.453 14.1446 137.453 9.34152L137.453-78.7862C137.453-83.6195 133.542-87.5666 128.703-87.5666C123.9-87.5666 119.952-83.6195 119.952-78.7862ZM71.3711-7.08928C74.4169-7.08928 76.0346-8.25389 77.1389-11.0306L92.2765-47.5409C93.2859-49.8789 94.0262-52.1924 94.0262-54.6945C94.0262-59.0412 90.6021-61.185 87.0468-61.185L64.2437-61.185C61.2614-61.185 59.2282-59.1518 59.2282-56.1752C59.2282-53.193 61.2614-51.1598 64.2437-51.1598L81.0092-51.1598L81.0092-50.6695L66.4185-16.8444C65.8088-15.3359 65.4537-13.996 65.4537-12.4127C65.4537-9.27531 67.92-7.08928 71.3711-7.08928Z"/>
</svg>