<svg xmlns="http://www.w3.org/2000/svg" viewBox="11.2588 -102.264 134.02 133.99">
  <path d="M78.2532 31.7248C115.252 31.7248 145.278 1.69868 145.278-35.2697C145.278-72.2381 115.252-102.264 78.2532-102.264C41.2849-102.264 11.2588-72.2381 11.2588-35.2697C11.2588 1.69868 41.2849 31.7248 78.2532 31.7248ZM54.1795-4.83032C50.4538-6.03313 49.0837-7.4032 47.8753-11.1345C46.4508-16.1745 46.1315-21.8201 47.0647-27.4443L70.4893-4.0197C64.8707-3.08086 59.2251-3.37556 54.1795-4.83032ZM96.3473-17.2705C91.3127-12.0918 85.2628-8.40213 79.0608-6.17043L49.1852-36.0158C51.4527-42.2122 55.1368-48.2621 60.3211-53.3023C65.3111-58.442 71.361-62.1317 77.6076-64.3634L107.408-34.5626C105.171-28.316 101.487-22.2605 96.3473-17.2705ZM74.5048-21.5323C75.2796-22.3675 75.2796-23.5444 74.5048-24.3293L72.3465-26.5178L74.0108-28.1574L76.1388-25.9546C76.896-25.1226 78.1421-25.1696 78.9472-25.93C79.6931-26.6904 79.6987-27.9835 78.9472-28.7439L76.6449-30.9658L78.3393-32.4804L80.5277-30.3579C81.3082-29.5919 82.5008-29.6119 83.2813-30.3635C84.0574-31.1439 84.0473-32.3422 83.2813-33.117L81.123-35.3245L82.718-36.9887L84.9701-34.7612C85.7606-33.9952 86.9488-33.965 87.6846-34.731C88.5254-35.5272 88.5254-36.7902 87.6846-37.5204L85.5263-39.6976L87.1515-41.3618L89.3432-39.179C90.1193-38.3683 91.3465-38.3627 92.1181-39.1488C92.8841-39.9305 92.9143-41.1633 92.1181-41.9985L84.9575-49.0731C84.1971-49.8693 82.9755-49.8335 82.1548-49.0731C81.4133-48.3015 81.4548-47.0554 82.1604-46.2982L84.4124-44.1009L82.718-42.5115L80.5598-44.6396C79.8296-45.4804 78.5722-45.4804 77.7816-44.6396C77.0156-43.9484 77.0156-42.6609 77.7816-41.9697L80.0393-39.6976L78.3393-38.078L76.1262-40.2665C75.3458-41.0627 74.1833-41.0627 73.4029-40.2363C72.6067-39.4558 72.6369-38.2576 73.4029-37.4771L75.5366-35.3245L74.0108-33.6301L71.7833-35.9379C71.0173-36.6593 69.7354-36.6593 68.9694-35.9078C68.2034-35.0971 68.2034-33.804 68.9694-33.0882L71.2081-30.9658L69.5382-29.3015L67.3856-31.4598C66.595-32.2403 65.4125-32.2459 64.566-31.4598C63.7944-30.6882 63.8447-29.4755 64.566-28.7151L71.7601-21.5625C72.5619-20.8411 73.7332-20.8053 74.5048-21.5323ZM108.754-59.3993C110.203-54.3593 110.498-48.7885 109.574-43.0895L86.1401-66.5229C91.8335-67.4473 97.4043-67.1582 102.45-65.7035C106.176-64.495 107.54-63.1306 108.754-59.3993Z"/>
</svg>