<svg xmlns="http://www.w3.org/2000/svg" viewBox="16.084 -99.6463 128.58 128.58">
  <path d="M30.909-57.7327L57.9474-84.8013C63.6958-90.5139 60.6929-99.6463 52.401-99.6463L25.0864-99.6463C19.8745-99.6463 16.084-95.874 16.084-90.5905L16.084-63.2847C16.084-55.023 25.1606-52.0201 30.909-57.7327ZM129.426 13.7942C133.019 10.1864 133.064 4.37631 129.426 0.732768L44.2649-84.4586C40.627-88.1021 34.7755-88.0273 31.1678-84.4586C27.6046-80.8509 27.5544-74.9748 31.1678-71.3614L116.335 13.7942C119.972 17.4377 125.813 17.3931 129.426 13.7942ZM129.828-12.932L102.759 14.1063C97.0411 19.8491 100.044 28.9314 108.306 28.9314L135.62 28.9314C140.832 28.9314 144.667 25.1791 144.667 19.9258L144.667-7.37998C144.667-15.6719 135.546-18.6804 129.828-12.932ZM102.759-84.8013L129.828-57.7327C135.546-52.0201 144.667-55.023 144.667-63.2847L144.667-90.5905C144.667-95.874 140.832-99.6463 135.62-99.6463L108.306-99.6463C100.044-99.6463 97.0411-90.5139 102.759-84.8013ZM31.1376 13.7942C34.7397 17.3931 40.5912 17.4377 44.2292 13.7942L129.396-71.3614C133.034-75.005 132.984-80.8509 129.396-84.4586C125.783-88.0273 119.937-88.072 116.329-84.4586L31.1376 0.732768C27.5242 4.34612 27.5688 10.1864 31.1376 13.7942ZM57.9474 14.1063L30.909-12.932C25.1606-18.6804 16.084-15.6719 16.084-7.37998L16.084 19.9258C16.084 25.1791 19.8745 28.9314 25.0864 28.9314L52.401 28.9314C60.6929 28.9314 63.6958 19.8491 57.9474 14.1063Z" />
</svg>