<svg xmlns="http://www.w3.org/2000/svg" viewBox="11.2588 -102.184 134.02 133.99">
  <path d="M78.2532 31.8052C115.252 31.8052 145.278 1.7791 145.278-35.1893C145.278-72.1577 115.252-102.184 78.2532-102.184C41.2849-102.184 11.2588-72.1577 11.2588-35.1893C11.2588 1.7791 41.2849 31.8052 78.2532 31.8052ZM78.2231 1.7907C74.4118 1.7907 71.872-0.907531 71.872-4.87275L71.872-25.8236L72.6614-35.2515L65.4302-26.9546L61.3604-22.7728C60.1826-21.5291 58.8037-20.7366 56.8378-20.7366C53.3434-20.7366 50.7948-23.2764 50.7948-27.0129C50.7948-28.4709 51.4747-30.2294 52.7663-31.4205L73.5432-51.5742C74.7412-52.7634 76.3878-53.5214 78.2231-53.5214C80.0885-53.5214 81.7295-52.703 82.9331-51.5742L103.757-31.4486C105.18-30.2193 105.742-28.5425 105.742-27.0073C105.742-23.3368 103.193-20.7366 99.8183-20.7366C97.8323-20.7366 96.3842-21.5737 95.1461-22.7728L90.9632-26.9714L83.8149-35.2213L84.544-25.8236L84.544-4.87275C84.544-0.907531 81.974 1.7907 78.2231 1.7907ZM55.4246-57.1803C52.0363-57.1803 49.3626-59.8785 49.3626-63.2725C49.3626-66.6966 52.0363-69.4005 55.4246-69.4005L101.112-69.4005C104.5-69.4005 107.174-66.6966 107.174-63.2725C107.174-59.8785 104.5-57.1803 101.112-57.1803Z"/>
</svg>