<svg xmlns="http://www.w3.org/2000/svg" viewBox="16.084 -99.6744 158 125.19">
  <path d="M38.8315 25.5159L151.342 25.5159C165.955 25.5159 174.084 17.4 174.084 2.85894L174.084-63.5608C174.084-78.1019 165.955-86.1875 151.342-86.1875L135.822-86.1875C130.933-86.1875 129.16-86.83 125.661-90.0904L120.794-94.842C117.189-98.2477 113.706-99.6744 107.474-99.6744L82.5287-99.6744C76.267-99.6744 72.7838-98.2477 69.209-94.842L64.3119-90.0904C60.8546-86.8412 59.0343-86.1875 54.181-86.1875L38.8315-86.1875C24.2188-86.1875 16.084-78.1019 16.084-63.5608L16.084 2.85894C16.084 17.4 24.2188 25.5159 38.8315 25.5159ZM40.9557 7.98528C36.1404 7.98528 33.5844 5.72074 33.5844 0.583786L33.5844-61.2554C33.5844-66.3924 36.1404-68.6871 40.9557-68.6871L60.2309-68.6871C65.8715-68.6871 68.4721-69.5752 71.7202-72.972L76.2144-77.7079C79.6045-81.2325 81.6773-82.174 87.0654-82.174L102.907-82.174C108.296-82.174 110.368-81.1879 113.58-77.8418L118.283-72.972C121.501-69.6198 124.132-68.6871 129.772-68.6871L149.218-68.6871C153.997-68.6871 156.559-66.3924 156.559-61.2554L156.559 0.583786C156.559 5.72074 153.997 7.98528 149.218 7.98528ZM57.9679-27.5454L79.606-27.5454C83.0149-27.5454 84.1926-30.9965 82.0947-33.7096L72.3352-46.6389C70.4067-49.222 67.0389-49.2321 65.1249-46.6389L55.4815-33.7096C53.4139-30.935 54.5892-27.5454 57.9679-27.5454ZM95.0868-1.35116C101.688-1.35116 107.873-3.37955 112.944-6.83383C119.877-11.2491 113.526-21.3671 106.717-16.8917C103.469-14.5611 99.4262-13.2252 95.0868-13.2252C83.609-13.2252 74.3424-22.4974 74.3424-33.9752C74.3424-37.2454 71.6907-39.8915 68.4204-39.8915C65.1144-39.8915 62.4683-37.2454 62.4683-33.9752C62.4683-16.0262 77.0328-1.35116 95.0868-1.35116ZM132.175-40.3247L110.537-40.3247C107.129-40.3247 105.956-36.9037 108.079-34.1906L117.808-21.2613C119.737-18.6782 123.104-18.6379 125.019-21.2613L134.662-34.1906C136.73-36.9652 135.584-40.3247 132.175-40.3247ZM95.0868-66.5189C88.4558-66.5189 82.3009-64.4905 77.199-61.0664C70.2971-56.6511 76.6173-46.5029 83.4268-50.9784C86.674-53.3146 90.7171-54.6448 95.0868-54.6448C106.565-54.6448 115.801-45.4028 115.801-33.9306C115.801-30.6246 118.453-27.9785 121.753-27.9785C125.029-27.9785 127.675-30.6246 127.675-33.9306C127.675-51.874 113.111-66.5189 95.0868-66.5189Z" />
</svg>