<svg xmlns="http://www.w3.org/2000/svg" viewBox="11.4639 -112.621 154.49 154.59">
  <path d="M70.0302-74.8484L107.413-74.8484C114.214-74.8484 118.066-81.3864 112.799-87.674L95.5757-107.915C91.6738-112.621 85.4521-112.164 81.7923-107.707L64.5934-87.4509C59.6002-81.4757 63.4021-74.8484 70.0302-74.8484ZM128.24-54.0485L128.24-16.6661C128.24-9.86515 134.742-6.01304 141.066-11.2796L161.246-28.4728C165.957-32.3558 165.611-38.5775 161.098-42.2563L140.842-59.4797C134.831-64.4785 128.24-60.671 128.24-54.0485ZM107.368 4.26196L69.9856 4.26196C63.3574 4.26196 59.5556 10.8893 64.5488 16.8645L81.7778 37.1504C85.4679 41.6383 91.6895 41.9739 95.5556 37.2987L112.754 17.0876C118.021 10.8 114.169 4.26196 107.368 4.26196ZM49.2418-16.6661L49.2418-54.0485C49.2418-60.671 42.6447-64.4785 36.6393-59.4797L16.4138-42.2865C11.9315-38.6378 11.4639-32.4162 16.2051-28.503L36.4162-11.2796C42.734-6.01304 49.2418-9.86515 49.2418-16.6661ZM88.8034 22.8076C93.8913 22.8076 98.0484 18.6505 98.0484 13.5626L98.0484-84.1378C98.0484-89.2257 93.8913-93.3828 88.8034-93.3828C83.7155-93.3828 79.5584-89.2257 79.5584-84.1378L79.5584 13.5626C79.5584 18.6505 83.7155 22.8076 88.8034 22.8076ZM30.7261-35.3055C30.7261-30.2176 34.8776-26.0605 39.9711-26.0605L137.672-26.0605C142.759-26.0605 146.916-30.2176 146.916-35.3055C146.916-40.3934 142.759-44.5505 137.672-44.5505L39.9711-44.5505C34.8776-44.5505 30.7261-40.3934 30.7261-35.3055Z" />
</svg>