<svg xmlns="http://www.w3.org/2000/svg" viewBox="11.2588 -102.264 146.56 133.99">
  <path d="M151.401-49.1362L119.575-49.1362C114.534-49.1362 113.281-44.6193 116.009-41.0133L131.835-19.9571C133.8-17.329 137.221-17.329 139.165-19.9571L155.041-40.9887C157.814-44.6193 156.517-49.1362 151.401-49.1362ZM11.2588-35.2697C11.2588 1.74009 41.3183 31.7248 78.2532 31.7248C97.0072 31.7248 115.114 23.6658 127.615 9.50318C131.975 5.0068 131.537-0.646178 127.857-3.88179C123.759-7.49895 118.547-6.25763 114.589-2.45756C105.334 7.78426 92.8211 13.9829 78.2532 13.9829C51.0308 13.9829 29.0252-8.04727 29.0252-35.2697C29.0252-62.4921 51.0308-84.5223 78.2532-84.5223C105.476-84.5223 127.506-62.4921 127.506-35.1748C127.506-30.3001 131.519-26.3039 136.407-26.3039C141.265-26.3039 145.248-30.2699 145.278-35.1447C145.248-72.3097 115.263-102.264 78.2532-102.264C41.3183-102.264 11.2588-72.2795 11.2588-35.2697Z" />
</svg>