<svg xmlns="http://www.w3.org/2000/svg" viewBox="16.084 -95.8944 150.75 121.4">
  <path d="M138.555-11.9268L122.678-27.8346L113.649-35.8056C107.883-40.6628 100.233-33.7668 105.471-27.5551L113.406-18.5874L129.174-2.8938C130.63-1.41362 132.212-0.783887 134.12-0.783887C137.729-0.783887 140.606-3.34825 140.606-7.21109C140.606-8.87347 139.857-10.6497 138.555-11.9268ZM104.336-44.7724C99.5131-44.7724 96.3788-41.638 96.3788-36.8096L96.3788-11.0774C96.409-7.67518 98.6364-5.33393 101.997-5.33393C105.333-5.33393 107.636-7.74999 107.666-11.1679L107.666-22.4244L106.796-34.3607L118.459-33.491L129.939-33.491C133.401-33.5211 135.773-35.8234 135.773-39.1596C135.773-42.4757 133.431-44.7422 130.068-44.7724ZM38.8315 25.5046L144.087 25.5046C158.73 25.5046 166.834 17.3888 166.834 2.84772L166.834-73.2375C166.834-87.7786 158.73-95.8944 144.087-95.8944L38.8315-95.8944C24.2188-95.8944 16.084-87.7898 16.084-73.2375L16.084 2.84772C16.084 17.4 24.2188 25.5046 38.8315 25.5046ZM40.9557 7.97405C36.118 7.97405 33.5844 5.67933 33.5844 0.57256L33.5844-70.9624C33.5844-76.0993 36.118-78.3638 40.9557-78.3638L141.963-78.3638C146.778-78.3638 149.334-76.0993 149.334-70.9624L149.334 0.57256C149.334 5.67933 146.778 7.97405 141.963 7.97405Z" />
</svg>