<svg xmlns="http://www.w3.org/2000/svg" viewBox="12.8672 -88.0266 104.33 106.43">
  <path d="M117.194-76.9651C117.194-82.9531 112.632-87.9964 104.884-87.9964L25.1831-88.0266C17.4594-88.0266 12.8672-82.9833 12.8672-76.9953C12.8672-74.0195 13.9783-71.5118 15.8272-67.7638L53.2214 9.2724C56.1961 15.377 59.965 18.4066 65.0334 18.4066C70.0962 18.4066 73.8651 15.377 76.8398 9.2724L114.24-67.7638C116.083-71.4816 117.194-73.9893 117.194-76.9651ZM94.8268-69.684C94.8268-69.4593 94.7296-69.2704 94.5877-68.9867L65.6426-6.8547C65.4951-6.55971 65.3252-6.34274 65.0334-6.34274C64.7662-6.34274 64.5661-6.55971 64.4186-6.8547L35.4289-69.0168C35.287-69.3006 35.1898-69.4895 35.1898-69.7142C35.1898-70.0394 35.4233-70.2283 35.8682-70.2283L94.154-70.1981C94.5877-70.1981 94.8268-70.0092 94.8268-69.684Z"/>
</svg>