<svg xmlns="http://www.w3.org/2000/svg" viewBox="16.084 -95.939 121.37 121.4">
  <path d="M38.8315 25.46L114.705 25.46C129.348 25.46 137.453 17.3442 137.453 2.80309L137.453-73.2821C137.453-87.8232 129.348-95.939 114.705-95.939L38.8315-95.939C24.2188-95.939 16.084-87.8344 16.084-73.2821L16.084 2.80309C16.084 17.3554 24.2188 25.46 38.8315 25.46ZM113.198-48.1877C113.198-46.6108 112.512-45.0799 111.347-43.8103L93.3807-25.692C92.3713-24.6223 90.8698-24.0227 89.3344-24.0227C86.256-24.0227 83.542-26.6889 83.542-29.9358C83.542-31.3361 84.1528-32.8445 85.3708-33.8539L92.4246-39.8644L95.8503-42.3386L90.6628-42.103L71.3759-42.103C62.8763-42.103 56.8788-36.7567 56.8788-27.9691C56.8788-19.1802 62.7411-13.5509 71.3169-13.5509L80.9345-13.5509C84.9099-13.5509 87.759-11.2053 87.759-7.46622C87.759-3.57188 84.9545-1.14269 80.9188-1.14269L71.3169-1.14269C55.3259-1.14269 44.1412-11.6072 44.1412-27.7277C44.1412-43.6552 55.3403-53.8405 71.3759-53.8405L90.6628-53.8405L95.8805-53.6351L91.7964-56.6772L85.401-62.5604C84.2276-63.554 83.6312-65.0235 83.6312-66.4985C83.6312-69.6563 86.3898-72.367 89.4538-72.367C90.9144-72.367 92.3123-71.8121 93.4109-70.6229L111.347-52.545C112.467-51.32 113.198-49.8091 113.198-48.1877Z"/>
</svg>