<svg xmlns="http://www.w3.org/2000/svg" viewBox="11.2588 -101.462 158.62 132.59">
  <path d="M90.5877-71.4865C101.818-71.4865 112.172-67.73 120.48-61.3888C122.123-60.1505 124.228-60.2811 125.747-61.7998L141.171-77.2332C143.021-79.0823 142.946-81.798 140.927-83.4417C127.232-94.7146 109.688-101.462 90.5877-101.462C71.4822-101.462 53.9079-94.7146 40.2429-83.4417C38.2241-81.798 38.1549-79.0823 40.0041-77.2332L55.3985-61.7998C56.9171-60.2811 59.1024-60.1561 60.8265-61.4749C69.1287-67.73 79.4382-71.4865 90.5877-71.4865ZM11.2588-22.1631C11.2588-2.5366 18.3932 15.4147 30.1626 29.2438C31.7617 31.1287 34.3937 31.0451 36.1926 29.2406L51.7625 13.6595C53.2352 12.2113 53.271 10.1826 51.968 8.52894C45.1748-0.0681933 41.2644-10.6957 41.2644-22.1631C41.2644-33.3182 44.9907-43.6277 51.2816-51.8998C52.5501-53.6239 52.5445-55.7645 50.9813-57.3278L35.5177-72.7468C33.6741-74.5903 30.9529-74.5513 29.3092-72.5325C18.0306-58.8127 11.2588-41.2742 11.2588-22.1631ZM169.881-22.1631C169.881-41.3188 163.095-58.9466 151.702-72.711C150.148-74.5959 147.471-74.5903 145.628-72.7468L130.189-57.3278C128.625-55.7645 128.62-53.6239 129.888-51.8998C136.179-43.6277 139.905-33.3182 139.905-22.1631C139.905-10.6957 135.995-0.0681933 129.172 8.52894C127.899 10.1826 127.935 12.2113 129.377 13.6595L144.953 29.2406C146.752 31.0451 149.428 31.0395 151.116 29.1099C162.821 15.2809 169.881-2.58123 169.881-22.1631ZM76.7939 4.37088L94.2828 4.37088C104.818 4.37088 113.085-0.879401 113.085-11.0349C113.085-18.3982 107.445-23.536 100.093-24.077L100.093-24.3709C106.087-25.1852 110.539-30.2455 110.539-36.1418C110.539-45.5818 102.386-49.5945 93.7751-49.5945L76.7939-49.5945C72.6497-49.5945 70.4569-47.0221 70.4569-43.0377L70.4569-2.14455C70.4569 1.7985 72.6798 4.37088 76.7939 4.37088ZM82.0601-27.2268L82.0601-40.9756L90.962-40.9756C95.6864-40.9756 99.2723-38.9141 99.2723-34.2846C99.2723-29.2749 95.1433-27.2268 90.0754-27.2268ZM82.0601-4.24804L82.0601-19.6355L91.1079-19.6355C96.7476-19.6355 101.015-17.6399 101.015-12.0305C101.015-6.38435 97.0773-4.24804 91.3553-4.24804ZM89.6651 11.0553C90.7642 11.0553 91.4366 10.3471 91.4366 9.24796L91.4366-54.8157C91.4366-55.9506 90.734-56.6532 89.6651-56.6532C88.5358-56.6532 87.8577-55.9506 87.8577-54.8157L87.8577 9.24796C87.8577 10.3471 88.5358 11.0553 89.6651 11.0553Z"/>
</svg>