<svg xmlns="http://www.w3.org/2000/svg" viewBox="16.084 -95.939 121.37 121.4">
  <path d="M38.8315 25.46L114.705 25.46C129.348 25.46 137.453 17.3442 137.453 2.80309L137.453-73.2821C137.453-87.8232 129.348-95.939 114.705-95.939L38.8315-95.939C24.2188-95.939 16.084-87.8344 16.084-73.2821L16.084 2.80309C16.084 17.3554 24.2188 25.46 38.8315 25.46ZM49.8124-13.358C45.7137-13.358 43.1336-15.8588 43.1336-19.3922C43.1336-23.4127 46.1043-26.4732 49.3464-29.3129C52.0183-31.608 52.5296-36.5641 53.2687-42.2296C54.1919-53.5649 58.3262-62.0095 66.6865-65.0266C68.386-69.633 72.1967-72.7733 77.2599-72.7733C82.2929-72.7733 86.1338-69.633 87.8031-65.0266C96.1634-62.0095 100.244-53.5649 101.221-42.2296C102.005-36.5641 102.436-31.6024 105.143-29.3129C108.421-26.5034 111.356-23.4127 111.356-19.3922C111.356-15.8588 108.776-13.358 104.677-13.358ZM77.2599 2.38717C70.7176 2.38717 65.9255-2.08691 65.5702-7.54854L88.9251-7.54854C88.5641-2.08691 83.7721 2.38717 77.2599 2.38717Z"/>
</svg>