<svg xmlns="http://www.w3.org/2000/svg" viewBox="16.084 -95.939 121.37 121.4">
  <path d="M38.8315 25.46L114.705 25.46C129.348 25.46 137.453 17.3442 137.453 2.80309L137.453-73.2821C137.453-87.8232 129.348-95.939 114.705-95.939L38.8315-95.939C24.2188-95.939 16.084-87.8344 16.084-73.2821L16.084 2.80309C16.084 17.3554 24.2188 25.46 38.8315 25.46ZM40.9557 7.92943C36.118 7.92943 33.5844 5.63471 33.5844 0.527938L33.5844-71.007C33.5844-76.1439 36.118-78.4085 40.9557-78.4085L112.581-78.4085C117.396-78.4085 119.952-76.1439 119.952-71.007L119.952 0.527938C119.952 5.63471 117.396 7.92943 112.581 7.92943ZM50.7994-14.5378L102.798-14.5378C106.613-14.5378 109.035-16.8444 109.035-20.1993C109.035-23.981 106.258-26.922 103.144-29.5675C100.586-31.7074 100.206-36.4604 99.461-41.7834C98.4988-52.5504 94.6568-60.5318 86.7598-63.3992C85.2099-67.7221 81.5776-70.7184 76.8137-70.7184C72.0196-70.7184 68.3873-67.7221 66.8375-63.3992C58.9404-60.5318 55.0148-52.5504 54.1362-41.7834C53.4361-36.4604 52.975-31.713 50.4528-29.5675C47.3747-26.8918 44.5625-23.981 44.5625-20.1993C44.5625-16.8444 46.9842-14.5378 50.7994-14.5378ZM76.8137 0.326683C82.9676 0.326683 87.4761-3.90292 87.8673-9.05089L65.7601-9.05089C66.1211-3.90292 70.6297 0.326683 76.8137 0.326683Z" />
</svg>