<svg xmlns="http://www.w3.org/2000/svg" viewBox="16.084 -93.4551 150.28 116.46">
  <path d="M69.6541-93.4551C31.9508-93.4551 16.084-77.1318 16.084-39.7416L16.084 0.549467C16.084 14.9417 24.1774 23.0049 38.6602 23.0049L143.787 23.0049C158.24 23.0049 166.363 14.9305 166.363 0.549467L166.363-39.7416C166.363-77.1318 150.496-93.4551 112.787-93.4551ZM70.3849-75.9245L112.062-75.9245C137.968-75.9245 148.833-64.979 148.833-39.7588L148.833-1.75587C148.833 2.97467 146.226 5.47436 141.633 5.47436L40.8146 5.47436C36.169 5.47436 33.5844 2.97467 33.5844-1.75587L33.5844-39.7588C33.5844-64.979 44.4734-75.9245 70.3849-75.9245Z"/>
</svg>