<svg xmlns="http://www.w3.org/2000/svg" viewBox="16.084 -113.97 112.25 157.45">
  <path d="M33.9801 28.6889L110.397 28.6889C120.981 28.6889 128.338 21.1898 128.338 10.376L128.338-95.6574C128.338-106.471 120.981-113.97 110.397-113.97L33.9801-113.97C23.391-113.97 16.084-106.471 16.084-95.6574L16.084 10.376C16.084 21.1898 23.391 28.6889 33.9801 28.6889ZM35.8758 12.5328C33.7422 12.5328 32.2903 11.0775 32.2903 8.89893L32.2903-94.1803C32.2903-96.3589 33.7422-97.8086 35.8758-97.8086L108.948-97.8086C110.858-97.8086 112.132-96.5374 112.132-94.6265L112.132 9.34516C112.132 11.256 110.858 12.5328 108.948 12.5328ZM66.35 22.5955L78.0275 22.5955L78.0275-107.941L66.35-107.941ZM53.1118-32.9558C57.5438-32.9558 61.2733-36.6162 61.2733-41.0481C61.2733-45.5995 57.5438-49.2599 53.1118-49.2599C48.4712-49.2599 44.9001-45.5103 44.9001-41.0481C44.9001-36.7054 48.4712-32.9558 53.1118-32.9558ZM91.3437-32.9558C95.8059-32.9558 99.5052-36.6162 99.5052-41.0481C99.5052-45.5995 95.8059-49.2599 91.3437-49.2599C86.7333-49.2599 83.1622-45.5103 83.1622-41.0481C83.1622-36.7054 86.7333-32.9558 91.3437-32.9558ZM39.1845 43.4776C43.7851 43.4776 47.3517 39.9412 47.3517 35.3105L47.3517 19.4713L31.0174 19.4713L31.0174 35.3105C31.0174 39.9412 34.5482 43.4776 39.1845 43.4776ZM105.059 43.4776C109.69 43.4776 113.226 39.9412 113.226 35.3105L113.226 19.4713L96.9221 19.4713L96.9221 35.3105C96.9221 39.9412 100.459 43.4776 105.059 43.4776Z"/>
</svg>