<svg xmlns="http://www.w3.org/2000/svg" viewBox="16.084 -106.361 172.5 142.35">
  <path d="M38.8315 4.22978L56.7383 4.22978L56.7383-13.2706L40.9557-13.2706C36.118-13.2706 33.5844-15.5653 33.5844-20.7023L33.5844-81.4285C33.5844-86.5655 36.118-88.8602 40.9557-88.8602L129.908-88.8602C134.723-88.8602 137.279-86.5655 137.279-81.4285L137.279-66.9727L154.78-66.9727L154.78-83.7339C154.78-98.2749 146.645-106.361 132.032-106.361L38.8315-106.361C24.1886-106.361 16.084-98.2862 16.084-83.7339L16.084-18.397C16.084-3.84465 24.1886 4.22978 38.8315 4.22978ZM72.6363 35.9933L165.837 35.9933C180.485 35.9933 188.584 27.9188 188.584 13.3665L188.584-45.564C188.584-60.1163 180.485-68.2153 165.837-68.2153L158.959-68.2153C154.166-68.2153 152.482-68.7104 149.515-71.2376L144.226-75.5807C140.521-78.6673 136.603-80.0938 131.148-80.0938L107.331-80.0938C101.875-80.0938 97.9583-78.6673 94.2527-75.5807L88.9941-71.2376C85.9964-68.7104 84.3123-68.2153 79.5496-68.2153L72.6363-68.2153C57.9934-68.2153 49.8944-60.1163 49.8944-45.564L49.8944 13.3665C49.8944 27.9188 57.9934 35.9933 72.6363 35.9933ZM74.7605 18.4929C69.9284 18.4929 67.3892 16.1981 67.3892 11.0612L67.3892-43.2888C67.3892-48.4202 69.9284-50.6903 74.7605-50.6903L84.8107-50.6903C89.7952-50.6903 93.11-51.6412 95.9431-54.1232L102.943-59.7914C105.96-62.1437 107.704-62.599 111.591-62.599L126.918-62.599C130.805-62.599 132.519-62.1437 135.536-59.7914L142.536-54.1232C145.369-51.6412 148.684-50.6903 153.698-50.6903L163.713-50.6903C168.55-50.6903 171.09-48.4202 171.09-43.2888L171.09 11.0612C171.09 16.1981 168.55 18.4929 163.713 18.4929ZM119.267 11.2593C134.935 11.2593 147.637-1.44831 147.637-17.1464C147.637-32.7841 134.935-45.5275 119.267-45.5275C103.605-45.5275 90.8723-32.7841 90.8723-17.1464C90.8723-1.44831 103.605 11.2593 119.267 11.2593ZM119.267-2.15325C110.975-2.15325 104.24-8.86354 104.24-17.191C104.24-25.4638 110.975-32.2042 119.267-32.2042C127.564-32.2042 134.269-25.4638 134.269-17.191C134.269-8.86354 127.564-2.15325 119.267-2.15325ZM156.701-29.8574C160.693-29.8574 163.922-33.1164 163.922-37.088C163.922-41.0796 160.693-44.3442 156.701-44.3442C152.679-44.3442 149.415-41.0796 149.415-37.088C149.415-33.1164 152.679-29.8574 156.701-29.8574Z"/>
</svg>