<svg xmlns="http://www.w3.org/2000/svg" viewBox="13.2349 -105.857 158.63 141.22">
  <path d="M138.276-45.4895C142.462-45.4895 145.061-48.0897 145.061-52.3813L145.061-93.2668C145.061-97.7839 142.127-100.438 137.34-100.438C134.048-100.438 132.245-99.5545 128.934-97.2881L119.604-91.122C117.772-89.8839 116.816-88.3925 116.816-86.3964C116.816-83.5864 118.943-81.5388 121.77-81.5388C122.854-81.5388 123.773-81.7386 124.977-82.6713L131.021-86.5603L131.368-86.5603L131.368-52.3813C131.368-48.1199 134.018-45.4895 138.276-45.4895ZM166.031 6.19234C171.861-14.6642 156.984-24.4117 120.019-24.4117C103.203-24.4117 86.4568-22.9238 72.9703-20.3491L74.6226-14.4544C80.4499-42.9883 72.1504-66.2637 51.6002-77.5194L55.0068-66.9715C60.9952-87.9642 48.8227-105.857 32.7067-105.857C20.8589-105.857 13.2349-96.1922 17.0568-80.7639L41.7254 18.9457C44.3721 29.624 51.3698 35.3619 61.9564 35.3619L139.34 35.3619C153.651 35.3619 159.895 28.5606 166.031 6.19234Z"/>
</svg>