<svg xmlns="http://www.w3.org/2000/svg" viewBox="11.2588 -102.264 134.02 133.99">
  <path d="M78.2532 31.7248C115.263 31.7248 145.278 1.74009 145.278-35.2697C145.278-72.2795 115.263-102.264 78.2532-102.264C41.2736-102.264 11.2588-72.2795 11.2588-35.2697C11.2588 1.74009 41.2736 31.7248 78.2532 31.7248ZM78.2532 13.9829C51.0308 13.9829 29.0252-8.04727 29.0252-35.2697C29.0252-62.4921 51.0308-84.5223 78.2532-84.5223C105.476-84.5223 127.506-62.4921 127.506-35.2697C127.506-8.04727 105.476 13.9829 78.2532 13.9829ZM78.8004-8.50927C87.9562-8.50927 97.0685-12.5516 100.268-20.8584C100.665-22.0019 100.965-23.2624 100.965-24.4663C100.965-27.6992 98.7012-29.6908 95.4683-29.6908C92.7621-29.6908 91.2984-28.3811 90.2626-25.8635C88.2713-21.0132 84.1741-18.1571 78.5773-18.1571C69.1294-18.1571 65.5605-26.8054 65.5605-35.6875C65.5605-44.8162 69.4788-53.1397 78.5773-53.1397C84.0646-53.1397 88.1706-49.9662 89.9754-45.5335C91.1307-42.9523 92.5919-41.6872 95.3986-41.6872C98.5033-41.6872 100.589-43.6486 100.589-46.808C100.589-48.4327 100.039-50.1766 99.2757-51.5143C95.423-59.3351 87.0866-62.7629 78.4881-62.7629C62.5901-62.7629 53.3937-51.9075 53.3937-35.6429C53.3937-19.6632 62.0552-8.50927 78.8004-8.50927ZM78.1784-1.77889C79.2329-1.77889 79.9858-2.53176 79.9858-3.58626L79.9858-67.6913C79.9858-68.71 79.2329-69.4931 78.1784-69.4931C77.1541-69.4931 76.4157-68.71 76.4157-67.6913L76.4157-3.58626C76.4157-2.56194 77.1541-1.77889 78.1784-1.77889Z" />
</svg>