<svg xmlns="http://www.w3.org/2000/svg" viewBox="9.0041 -110.646 150.62 150.7">
  <path d="M46.4065 20.9988L59.5722 20.9988C60.5835 20.9988 61.2618 21.2369 62.035 22.0101L71.3536 31.2873C80.0809 40.056 88.573 40.0258 97.3003 31.2873L106.589 22.0101C107.362 21.2369 108.07 20.9988 109.082 20.9988L122.217 20.9988C134.553 20.9988 140.593 14.969 140.593 2.62336L140.593-10.5122C140.593-11.529 140.881-12.252 141.604-13.0107L150.857-22.2936C159.62-31.0264 159.589-39.513 150.857-48.2458L141.604-57.5287C140.836-58.332 140.593-59.0104 140.593-60.0273L140.593-73.1628C140.593-85.5228 134.538-91.5382 122.217-91.5382L109.082-91.5382C108.07-91.5382 107.317-91.8209 106.589-92.5495L97.3003-101.827C88.4926-110.646 80.0809-110.615 71.348-101.782L62.035-92.5495C61.312-91.8265 60.5835-91.5382 59.5722-91.5382L46.4065-91.5382C34.0409-91.5382 28.0612-85.5976 28.0612-73.1628L28.0612-60.0273C28.0612-59.0104 27.7729-58.2874 27.05-57.5287L17.7672-48.2458C9.0041-39.513 9.03428-31.0264 17.7672-22.2936L27.05-13.0107C27.7729-12.252 28.0612-11.529 28.0612-10.5122L28.0612 2.62336C28.0612 14.9834 34.0855 20.9988 46.4065 20.9988ZM77.3399-3.49416C74.4205-3.49416 72.0816-4.85491 70.0295-7.33265L55.4184-24.6555C53.888-26.4907 53.2727-28.1098 53.2727-30.0412C53.2727-34.1517 56.6295-37.3792 60.6842-37.3792C63.0455-37.3792 64.8676-36.4516 66.5861-34.3968L77.2438-21.5193L101.322-59.6791C103.083-62.4767 105.194-63.9091 107.832-63.9091C111.856-63.9091 115.453-60.9709 115.453-56.8558C115.453-55.248 114.843-53.4649 113.666-51.7892L84.4404-7.46651C82.7478-4.96551 80.1891-3.49416 77.3399-3.49416Z" />
</svg>