<svg xmlns="http://www.w3.org/2000/svg" viewBox="16.084 -107.953 145.34 145.27">
  <path d="M16.084-23.3872C16.084-12.6186 23.3848-5.42277 34.1836-5.42277L58.8259-5.42277L58.8259 19.2944C58.8259 30.0931 66.0217 37.3191 76.7903 37.3191L100.725 37.3191C111.494 37.3191 118.689 30.0931 118.689 19.2944L118.689-5.42277L143.401-5.42277C154.2-5.42277 161.426-12.6186 161.426-23.3872L161.426-47.3275C161.426-58.0961 154.2-65.2919 143.401-65.2919L118.689-65.2919L118.689-89.9286C118.689-100.727 111.494-107.953 100.725-107.953L76.7903-107.953C66.0217-107.953 58.8259-100.727 58.8259-89.9286L58.8259-65.2919L34.1088-65.2919C23.31-65.2919 16.084-58.0961 16.084-47.3275Z"/>
</svg>