<svg xmlns="http://www.w3.org/2000/svg" viewBox="11.2588 -102.264 134.02 133.99">
  <path d="M78.2532 31.7248C115.263 31.7248 145.278 1.74009 145.278-35.2697C145.278-72.2795 115.263-102.264 78.2532-102.264C41.2736-102.264 11.2588-72.2795 11.2588-35.2697C11.2588 1.74009 41.2736 31.7248 78.2532 31.7248ZM78.2532 13.9829C51.0308 13.9829 29.0252-8.04727 29.0252-35.2697C29.0252-62.4921 51.0308-84.5223 78.2532-84.5223C105.476-84.5223 127.506-62.4921 127.506-35.2697C127.506-8.04727 105.476 13.9829 78.2532 13.9829ZM78.1194-37.3534L107.581-54.3185C107.093-54.8179 106.43-55.3116 105.745-55.6891L82.4332-69.1839C79.762-70.7573 76.5962-70.7573 73.925-69.1839L50.6132-55.6891C49.8838-55.3116 49.226-54.8179 48.6988-54.2437ZM75.3844-32.5067L46.4444-49.0852C46.3886-48.776 46.3439-48.3809 46.3439-48.0415L46.3439-21.3552C46.3439-18.3043 47.9419-15.6187 50.6132-14.1099L73.925-0.575108C74.4364-0.289225 74.9176-0.083763 75.3844 0.127312ZM80.9883-32.5959L80.9883 0.127312C81.4695-0.083763 81.972-0.289225 82.5225-0.61973L105.834-14.1099C108.411-15.5741 109.984-18.3043 109.984-21.3998L109.984-48.1163C109.984-48.4255 109.939-48.8653 109.895-49.2046Z" />
</svg>