<svg xmlns="http://www.w3.org/2000/svg" viewBox="16.084 -91.2358 194.33 111.96">
  <path d="M113.265-10.7985C127.499-10.7985 139.016-22.3097 139.016-36.5385C139.016-50.7728 127.499-62.3589 113.265-62.3589C99.111-62.3589 87.5249-50.7728 87.5249-36.5385C87.5249-22.3097 99.111-10.7985 113.265-10.7985ZM113.265-18.5525C103.094-18.5525 95.4788-26.2421 95.4788-36.5385C95.4788-46.8461 103.094-54.5992 113.265-54.5992C123.417-54.5992 131.096-46.8461 131.096-36.5385C131.096-26.2421 123.492-18.5525 113.265-18.5525ZM113.259-68.7021C111.3-68.7021 109.656-67.0731 109.656-65.1382L109.656-50.5996C109.656-48.4905 111.3-46.9609 113.259-46.9609C115.269-46.9609 116.868-48.6099 116.868-50.5996L116.868-65.1382C116.868-67.0285 115.388-68.7021 113.259-68.7021ZM127.221-32.9299L141.765-32.9299C143.82-32.9299 145.398-34.6928 145.398-36.5385C145.398-38.4891 143.82-40.147 141.765-40.147L127.221-40.147C125.336-40.147 123.657-38.6978 123.657-36.5385C123.657-34.6035 125.292-32.9299 127.221-32.9299ZM113.271-4.4496C115.28-4.4496 116.879-6.1232 116.879-8.0883L116.879-22.6326C116.879-24.5474 115.4-26.1909 113.271-26.1909C111.311-26.1909 109.668-24.5921 109.668-22.6326L109.668-8.0883C109.668-6.00377 111.311-4.4496 113.271-4.4496ZM84.8147-32.9299L99.359-32.9299C101.294-32.9299 102.923-34.6035 102.923-36.5385C102.923-38.6978 101.249-40.147 99.359-40.147L84.8147-40.147C82.8195-40.147 81.1817-38.5784 81.1817-36.5385C81.1817-34.6035 82.7-32.9299 84.8147-32.9299ZM113.34-31.4522C116.103-31.4522 118.426-33.7748 118.426-36.6133C118.426-39.4071 116.103-41.6995 113.34-41.6995C110.477-41.6995 108.184-39.4071 108.184-36.6133C108.184-33.7748 110.477-31.4522 113.34-31.4522ZM16.084 10.7434C16.084 16.2096 20.6423 20.729 26.0784 20.729L200.416 20.729C205.876 20.729 210.41 16.2096 210.41 10.7434C210.41 5.25262 205.876 0.733286 200.416 0.733286L188.151 0.733286L188.151-72.3834C188.151-84.4354 181.284-91.2358 169.238-91.2358L57.2559-91.2358C45.4208-91.2358 38.3432-84.4354 38.3432-72.3834L38.3432 0.733286L26.0784 0.733286C20.6423 0.733286 16.084 5.25262 16.084 10.7434ZM55.8738 0.733286L55.8738-68.224C55.8738-72.0805 57.6826-73.741 61.3662-73.741L165.128-73.741C168.811-73.741 170.65-72.0805 170.65-68.224L170.65 0.733286Z"/>
</svg>