<svg xmlns="http://www.w3.org/2000/svg" viewBox="16.084 -95.939 121.37 121.4">
  <path d="M38.8315 25.46L114.705 25.46C129.348 25.46 137.453 17.3442 137.453 2.80309L137.453-73.2821C137.453-87.8232 129.348-95.939 114.705-95.939L38.8315-95.939C24.2188-95.939 16.084-87.8344 16.084-73.2821L16.084 2.80309C16.084 17.3554 24.2188 25.46 38.8315 25.46ZM40.9557 7.92943C36.118 7.92943 33.5844 5.63471 33.5844 0.527938L33.5844-71.007C33.5844-76.1439 36.118-78.4085 40.9557-78.4085L112.581-78.4085C117.396-78.4085 119.952-76.1439 119.952-71.007L119.952 0.527938C119.952 5.63471 117.396 7.92943 112.581 7.92943ZM84.0966-8.32517C86.3342-8.32517 88.9016-8.53946 90.9017-9.2483C93.0422-10.0509 94.6191-11.4531 94.6191-13.9563C94.6191-17.005 92.2994-18.1897 89.2562-18.1897C88.2745-18.1897 87.8428-18.0767 86.7018-18.0767C73.6639-18.0767 66.9536-23.8529 66.9536-35.4853C66.9536-46.9077 73.6311-52.8292 86.7897-52.8292C87.8535-52.8292 88.7404-52.7162 89.3901-52.7162C92.3887-52.7162 94.6191-53.9813 94.6191-56.9855C94.6191-59.4427 93.2234-60.9298 90.9017-61.6934C89.0669-62.3275 86.724-62.5273 84.2751-62.5273C67.9805-62.5273 55.0646-53.9563 55.0646-35.4709C55.0646-18.1767 66.3952-8.32517 84.0966-8.32517ZM48.6673-40.1843C48.6673-39.2404 49.4559-38.4517 50.4244-38.4517L84.5485-38.4517C85.5226-38.4517 86.281-39.2404 86.281-40.1843C86.281-41.1583 85.5226-41.9414 84.5485-41.9414L50.4244-41.9414C49.4559-41.9414 48.6673-41.1583 48.6673-40.1843ZM48.6673-30.4641C48.6673-29.5202 49.4559-28.7315 50.4244-28.7315L84.5485-28.7315C85.5226-28.7315 86.281-29.5202 86.281-30.4641C86.281-31.4381 85.5226-32.1966 84.5485-32.1966L50.4244-32.1966C49.4559-32.1966 48.6673-31.4381 48.6673-30.4641Z" />
</svg>