<svg xmlns="http://www.w3.org/2000/svg" viewBox="11.2588 -96.5638 138.41 122.59">
  <path d="M80.4506 26.0244C119.179 26.0244 149.673-4.46369 149.673-41.0375C149.673-60.3536 141.182-77.8111 129.266-89.0895C123.797-94.2276 117.699-96.5638 109.712-96.5638L51.1889-96.5638C43.2019-96.5638 37.1338-94.2276 31.6652-89.0895C19.7491-77.8111 11.2588-60.3536 11.2588-41.0375C11.2588-4.46369 41.7524 26.0244 80.4506 26.0244ZM80.4506 8.22773C49.5002 8.22773 29.0554-12.2416 29.0554-41.0375C29.0554-56.0784 34.4358-67.2802 43.905-76.1419C46.0822-78.1972 47.7112-78.7671 51.2336-78.7671L109.668-78.7671C113.22-78.7671 114.938-78.1526 116.996-76.1419C126.496-67.2802 131.87-56.0784 131.87-41.0375C131.87-12.2416 111.401 8.22773 80.4506 8.22773ZM64.8176-54.2885C70.3332-54.2885 74.8033-58.7586 74.8033-64.2742C74.8033-69.7898 70.3332-74.2901 64.8176-74.2901C59.3021-74.2901 54.8319-69.7898 54.8319-64.2742C54.8319-58.7586 59.3021-54.2885 64.8176-54.2885ZM96.1137-54.2885C101.629-54.2885 106.099-58.7586 106.099-64.2742C106.099-69.7898 101.629-74.2901 96.1137-74.2901C90.5981-74.2901 86.128-69.7898 86.128-64.2742C86.128-58.7586 90.5981-54.2885 96.1137-54.2885ZM49.1735-27.2483C56.807-27.2483 62.9627-33.404 62.9627-41.0375C62.9627-48.671 56.807-54.8267 49.1735-54.8267C41.5098-54.8267 35.3541-48.671 35.3541-41.0375C35.3541-33.404 41.5098-27.2483 49.1735-27.2483ZM80.4506-27.2483C88.084-27.2483 94.2699-33.404 94.2699-41.0375C94.2699-48.671 88.084-54.8267 80.4506-54.8267C72.8171-54.8267 66.6614-48.671 66.6614-41.0375C66.6614-33.404 72.8171-27.2483 80.4506-27.2483ZM111.758-27.2483C119.391-27.2483 125.547-33.404 125.547-41.0375C125.547-48.671 119.391-54.8267 111.758-54.8267C104.124-54.8267 97.9686-48.671 97.9686-41.0375C97.9686-33.404 104.124-27.2483 111.758-27.2483ZM64.812 0.238628C72.4455 0.238628 78.6012-5.9171 78.6012-13.5506C78.6012-21.184 72.4455-27.3398 64.812-27.3398C57.1786-27.3398 51.0228-21.184 51.0228-13.5506C51.0228-5.9171 57.1786 0.238628 64.812 0.238628ZM96.1193 0.238628C103.753 0.238628 109.908-5.9171 109.908-13.5506C109.908-21.184 103.753-27.3398 96.1193-27.3398C88.4858-27.3398 82.3301-21.184 82.3301-13.5506C82.3301-5.9171 88.4858 0.238628 96.1193 0.238628Z"/>
</svg>