<svg xmlns="http://www.w3.org/2000/svg" viewBox="11.2588 -98.0662 199.21 125.59">
  <path d="M110.883 27.5268C145.606 27.5268 173.679-0.552087 173.679-35.2697C173.679-69.9873 145.606-98.0662 110.883-98.0662C76.1955-98.0662 48.0865-69.9873 48.0865-35.2697C48.0865-0.552087 76.1955 27.5268 110.883 27.5268ZM110.883 9.78488C86.0331 9.78488 65.8284-10.4143 65.8284-35.2697C65.8284-60.1251 86.0331-80.3243 110.883-80.3243C135.738-80.3243 155.943-60.1251 155.943-35.2697C155.943-10.4143 135.738 9.78488 110.883 9.78488ZM11.2588-35.2251C11.2588-14.5104 18.0606 4.99752 29.9593 20.8232C33.1252 25.0104 38.6016 25.2706 42.609 21.9464C46.5114 18.6825 46.6378 13.5889 43.5625 9.35277C34.318-3.29823 29.0554-18.8214 29.0554-35.2251C29.0554-51.7036 34.318-67.1966 43.6072-79.8833C46.727-84.1283 46.6253-89.1772 42.609-92.5159C38.6518-95.8346 33.1642-95.4996 30.004-91.3626C18.0606-75.5169 11.2588-55.9398 11.2588-35.2251ZM210.468-35.2251C210.468-55.9398 203.666-75.5169 191.723-91.3626C188.563-95.4996 183.075-95.8346 179.118-92.5159C175.102-89.1772 175-84.1283 178.12-79.8833C187.409-67.1966 192.666-51.7036 192.666-35.2251C192.666-18.8214 187.409-3.29823 178.164 9.35277C175.089 13.5889 175.215 18.6825 179.118 21.9464C183.125 25.2706 188.602 25.0104 191.768 20.8232C203.666 4.99752 210.468-14.5104 210.468-35.2251ZM110.928-26.7674C115.213-26.7674 117.764-29.1656 117.973-33.6536L118.988-58.0813C119.241-62.7924 115.817-65.9978 110.853-65.9978C105.858-65.9978 102.494-62.8226 102.748-58.1115L103.763-33.5644C103.941-29.1656 106.537-26.7674 110.928-26.7674ZM110.928-4.95702C115.866-4.95702 119.602-8.0092 119.602-12.7075C119.602-17.4026 115.896-20.458 110.928-20.458C105.959-20.458 102.164-17.4171 102.164-12.7075C102.164-8.03939 105.989-4.95702 110.928-4.95702Z"/>
</svg>