<svg xmlns="http://www.w3.org/2000/svg" viewBox="16.084 -107.904 140.19 149.03">
  <path d="M41.8747-63.5923L130.48-63.5923C137.075-63.5923 143.1-62.1239 148.199-59.358L133.086-92.8631C128.794-102.438 120.689-107.904 109.452-107.904L62.917-107.904C51.71-107.904 43.6494-102.438 39.328-92.8631L24.2897-59.4026C29.3437-62.1239 35.2943-63.5923 41.8747-63.5923ZM41.8747-2.5828L130.48-2.5828C145.887-2.5828 156.271-12.9362 156.271-28.1937C156.271-43.5014 145.887-53.8315 130.48-53.8315L41.8747-53.8315C26.4676-53.8315 16.084-43.5014 16.084-28.1937C16.084-12.9362 26.4676-2.5828 41.8747-2.5828ZM122.832-28.1937C122.832-32.674 126.636-36.4441 131.127-36.4441C135.616-36.4441 139.461-32.674 139.461-28.1937C139.461-23.594 135.616-20.0426 131.127-19.9344C126.636-19.8709 122.832-23.5771 122.832-28.1937ZM78.855 26.1826L93.4549 26.1826L93.4549-17.5038L78.855-17.5038ZM27.8914 31.6048L144.413 31.6048C148.449 31.6048 151.691 28.3628 151.691 24.3327C151.691 20.3272 148.449 17.0104 144.413 17.0104L27.8914 17.0104C23.8613 17.0104 20.6194 20.3272 20.6194 24.3327C20.6194 28.3628 23.8613 31.6048 27.8914 31.6048ZM86.1326 41.1269C95.3788 41.1269 102.949 33.5925 102.949 24.3463C102.949 15.0644 95.3788 7.52999 86.1326 7.52999C76.8865 7.52999 69.3163 15.0644 69.3163 24.3463C69.3163 33.5925 76.8865 41.1269 86.1326 41.1269Z"/>
</svg>