<svg xmlns="http://www.w3.org/2000/svg" viewBox="16.084 -95.939 121.37 121.4">
  <path d="M38.8315 25.46L114.705 25.46C129.348 25.46 137.453 17.3442 137.453 2.80309L137.453-73.2821C137.453-87.8232 129.348-95.939 114.705-95.939L38.8315-95.939C24.2188-95.939 16.084-87.8344 16.084-73.2821L16.084 2.80309C16.084 17.3554 24.2188 25.46 38.8315 25.46ZM77.2297-8.65145C52.0754-8.65145 35.3601-29.0448 35.3601-35.2451C35.3601-41.4009 52.0305-61.7998 77.2297-61.7998C102.612-61.7998 119.069-41.4009 119.069-35.2451C119.069-29.0448 102.623-8.65145 77.2297-8.65145ZM77.2297-18.3973C86.5355-18.3973 94.1278-26.1393 94.1278-35.2005C94.1278-44.5778 86.5355-52.0483 77.2297-52.0483C67.9417-52.0483 60.2959-44.5778 60.3015-35.2005C60.3071-26.1393 67.9417-18.3973 77.2297-18.3973ZM77.2655-27.9C73.1463-27.9 69.8934-31.1918 69.8934-35.2005C69.8934-39.2148 73.1463-42.5456 77.2655-42.5456C81.244-42.5456 84.5805-39.2148 84.5805-35.2005C84.5805-31.1918 81.244-27.9 77.2655-27.9Z"/>
</svg>