<svg xmlns="http://www.w3.org/2000/svg" viewBox="13.1985 -117.81 148.17 165.4">
  <path d="M87.2975 47.5888C106.331 47.5888 108.677 34.4897 117.883 34.4897C127.197 34.4897 128.683 47.5888 149.943 47.5888L150.443 47.5888C154.209 47.5888 157.241 44.5512 157.241 40.7557C157.241 37.0104 154.209 34.003 150.443 34.003L149.943 34.003C144.653 34.003 141.121 31.9378 135.707 28.0749C131.516 25.0101 125.771 20.9039 117.883 20.9039C109.863 20.9039 104.088 25.1119 99.897 28.2125C95.4205 31.5543 92.279 34.003 87.2975 34.003C82.2859 34.003 79.1444 31.5543 74.6678 28.2125C70.4772 25.1119 64.7014 20.9039 56.712 20.9039C48.7942 20.9039 43.0541 25.0101 38.8635 28.0749C33.4494 31.9378 29.9114 34.003 24.6519 34.003L24.1517 34.003C20.3618 34.003 17.3242 37.0104 17.3242 40.7557C17.3242 44.5512 20.3618 47.5888 24.1517 47.5888L24.6519 47.5888C45.8823 47.5888 47.3982 34.4897 56.712 34.4897C65.9183 34.4897 68.2342 47.5888 87.2975 47.5888ZM19.2992-9.89828L41.9058 30.543L53.6452 24.5035L31.9403-15.0529C29.8484-18.9149 30.962-20.7788 33.4983-21.871L80.4207-42.55C83.4243-43.8838 84.9755-44.657 87.2975-44.657C89.5893-44.657 91.1405-43.8838 94.1442-42.55L141.097-21.871C143.603-20.7788 144.716-18.9149 142.625-15.0529L120.92 24.5035L132.84 30.2713L155.266-9.89828C161.366-20.8066 157.675-29.5998 147.376-34.115L99.7536-55.1064C97.2435-56.2214 93.0846-58.4603 87.2975-58.4603C81.4803-58.4603 77.3214-56.2214 74.8112-55.1064L27.1893-34.115C16.8894-29.5998 13.1985-20.8066 19.2992-9.89828ZM32.5777-33.4195L46.973-36.8153L53.6689-83.7956C53.9551-85.7305 54.8197-86.7434 56.798-86.7434L117.808-86.7434C119.847-86.7434 120.712-85.8513 120.998-84.1276L127.663-36.6644L142.029-33.4195L134.742-85.5327C133.325-95.7627 128.066-100.577 118.121-100.577L56.4856-100.577C46.6308-100.577 41.4019-95.5212 39.8945-84.9592ZM63.1367-64.7634L79.7909-64.7634C82.409-64.7634 84.1328-66.313 84.1328-68.5659L84.1328-77.0168C84.1328-79.3055 82.409-80.8552 79.7909-80.8552L63.1367-80.8552C60.8926-80.8552 59.409-79.3055 59.409-77.0168L59.409-68.5659C59.409-66.313 60.8926-64.7634 63.1367-64.7634ZM94.1566-64.7634L110.861-64.7634C113.473-64.7634 115.197-66.313 115.197-68.5659L115.197-77.0168C115.197-79.3055 113.473-80.8552 110.861-80.8552L94.1566-80.8552C91.9125-80.8552 90.4433-79.3055 90.4433-77.0168L90.4433-68.5659C90.4433-66.313 91.9125-64.7634 94.1566-64.7634ZM57.6944-93.205L71.4977-93.205L71.4977-103.364C71.4977-104.559 72.2843-105.345 73.4733-105.345L101.103-105.345C102.292-105.345 103.078-104.559 103.078-103.364L103.078-93.205L116.912-93.205L116.912-105.951C116.912-113.295 112.402-117.81 105.064-117.81L69.5426-117.81C62.2038-117.81 57.6944-113.295 57.6944-105.951Z"/>
</svg>