<svg xmlns="http://www.w3.org/2000/svg" viewBox="-1.35537 -123.151 150.49 158.43">
  <path d="M9.75123-112.448L30.5831-91.5712C34.2466-87.8775 39.7245-90.0828 39.9657-95.2772L41.1948-117.609C41.3556-121.02 39.2473-123.151 35.7834-122.985L13.407-121.866C8.48724-121.625 5.93251-116.455 9.75123-112.448ZM8.68901-82.633L30.8733-104.817C32.9914-107.025 32.9612-110.635 30.9481-112.738C28.7407-114.862 25.16-114.862 22.947-112.738L0.762768-90.5536C-1.35537-88.3462-1.32519-84.7353 0.687961-82.633C2.89535-80.5092 6.47601-80.5092 8.68901-82.633ZM9.75123-32.0988C5.93251-28.1216 8.48724-22.9518 13.407-22.7105L35.7834-21.5619C39.2473-21.3954 41.3556-23.5564 41.1948-26.9677L39.9657-49.2693C39.7245-54.4938 34.2466-56.6689 30.5831-53.0054ZM0.762768-53.9928L22.8607-31.8949C25.0737-29.7711 28.6846-29.7711 30.892-31.8949C32.9051-34.0029 32.9353-37.6081 30.8172-39.8211L8.68901-61.9437C6.47601-64.0674 2.89535-64.0674 0.687961-61.9437C-1.32519-59.8413-1.35537-56.2002 0.762768-53.9928ZM130.232-67.9728C140.722-67.9728 149.131-76.628 149.131-86.7126C149.131-97.2383 140.722-105.733 130.232-105.733C119.751-105.733 111.437-97.2383 111.437-86.7126C111.437-76.5304 119.751-67.9728 130.232-67.9728ZM19.3587 31.2556C23.3028 35.2825 29.7519 34.9854 34.5393 30.0228L63.7398-0.154833C64.8475-1.29275 65.6694-1.44476 67.2484-0.842815L88.9846 7.28842C103.608 12.7498 119.334 6.85488 126.304-5.81026L139.913-30.5639C145.809-41.3007 143.852-51.8772 133.845-57.4096C124.061-62.8584 113.941-58.878 107.97-48.0696L89.0725-13.7057L73.3526-19.5333C64.5886-22.7918 57.195-21.7343 50.1318-14.4211L20.0109 17.0074C15.304 21.8896 15.7451 27.6866 19.3587 31.2556Z"/>
</svg>