<svg xmlns="http://www.w3.org/2000/svg" viewBox="14.9461 -118.522 103.48 164.7">
  <path d="M70.8364-88.4063C79.1253-88.4063 85.864-95.1753 85.864-103.494C85.864-111.783 79.1253-118.522 70.8364-118.522C62.5173-118.522 55.7484-111.783 55.7484-103.494C55.7484-95.1753 62.5173-88.4063 70.8364-88.4063ZM85.4257-48.7933C88.509-45.7045 94.345-45.8653 97.0173-50.0865L112.908-75.5088C118.428-84.342 105.418-91.566 100.315-83.3737L89.3968-65.8188L81.1868-74.1035C72.3225-82.9767 62.5558-84.6989 49.1626-83.218L25.9394-80.6224C22.5011-80.2561 19.8589-77.4945 19.448-74.2058L16.1644-48.5479C14.9461-39.1787 29.5437-36.7866 30.8424-46.7936L33.3544-66.5552L44.7764-67.8218C46.0523-67.938 46.5925-67.4425 46.3959-65.961L43.3177-40.8962C41.7922-28.4661 49.077-21.0864 61.3519-21.9742L84.1275-23.6072L77.3097 1.33731C74.557 11.255 88.9961 14.824 91.588 5.14755L100.998-29.7234C102.371-34.7218 98.9273-39.0536 93.4162-39.0536L69.6636-39.0536L72.6079-59.4064C72.7901-60.7275 73.6022-60.7577 74.5351-59.7945ZM49.6316-16.4199L48.1985 5.14243L35.9966 35.6421C33.5599 41.7942 38.0312 46.1762 42.6934 46.1762C45.5266 46.1762 48.4044 44.5915 49.8584 40.9064L62.3908 9.47981C62.5516 8.95267 62.7571 8.38652 62.8375 7.81475L66.1863-15.0765L61.8678-14.7906C57.3093-14.5047 53.1918-15.0765 49.6316-16.4199Z"/>
</svg>