<svg xmlns="http://www.w3.org/2000/svg" viewBox="11.2588 -102.264 134.02 133.99">
  <path d="M78.2532 31.7248C115.252 31.7248 145.278 1.69868 145.278-35.2697C145.278-72.2381 115.252-102.264 78.2532-102.264C41.2849-102.264 11.2588-72.2381 11.2588-35.2697C11.2588 1.69868 41.2849 31.7248 78.2532 31.7248ZM59.2751-55.7444C55.2239-55.7444 51.9323-59.0662 51.9323-63.0225C51.9323-67.1183 55.2239-70.3653 59.2751-70.3653C63.3207-70.3653 66.5979-67.1183 66.5979-63.0225C66.5979-59.0662 63.3207-55.7444 59.2751-55.7444ZM99.9322-57.1016C95.9615-57.1016 92.6643-60.4234 92.6643-64.469C92.6643-68.4755 95.9615-71.7225 99.9322-71.7225C104.028-71.7225 107.305-68.4755 107.305-64.469C107.305-60.4234 104.028-57.1016 99.9322-57.1016ZM39.5221-46.4359C36.9813-46.6414 35.2088-49.0628 36.0822-51.5478L40.038-63.4285C40.726-65.4423 42.9451-66.5323 44.9589-65.9192C47.0027-65.2456 48.057-62.9674 47.3747-60.8877L44.9613-53.7726L58.7896-52.736C60.589-52.5751 62.183-52.0982 63.8216-51.333L73.972-46.2081L85.3724-46.2081L91.838-51.8123C95.1208-54.732 99.5484-55.3968 103.591-54.0497L112.482-51.1183L111.729-58.6378C111.532-60.7713 113.102-62.7513 115.19-62.9121C117.318-63.1478 119.242-61.5698 119.453-59.4062L120.837-45.7707C121.189-42.7172 118.734-40.8442 115.755-41.8539L111.861-43.1318C111.289-43.2894 110.833-42.944 110.949-42.3717L112.147-35.7811C112.71-32.3877 111.941-28.6582 109.945-25.792L102.318-14.8908L107.872-0.95555C108.685 1.02236 107.711 3.32757 105.703 4.09597C103.85 4.85315 101.509 4.09597 100.63 1.92142L94.2631-13.9369C93.7862-15.132 94.0577-16.3471 94.6652-17.512L98.9205-25.9533L90.3593-24.6629L89.1404-13.1666C88.935-11.1171 87.2876-9.62166 85.3185-9.62166C83.3908-9.62166 81.166-11.3137 81.4375-13.8545L82.8674-28.3742C83.0226-30.0607 84.1931-31.392 85.7991-31.7941L99.1348-35.4915L96.0481-44.0642C95.8961-44.5203 95.4099-44.6723 94.9896-44.3683L89.2748-39.3684C88.6761-38.7608 87.738-38.475 86.8232-38.475L73.5109-38.475C72.6017-38.475 71.5474-38.7608 71.0291-39.0323L63.0858-42.971C62.7101-43.1588 62.2541-42.9798 62.2183-42.4791L61.1873-32.4054L84.0327-3.50011C85.3943-1.7779 85.0726 0.563107 83.3448 1.96926C81.7778 3.28937 79.1979 2.94873 77.9168 1.37052L65.6122-14.32C65.6122-14.0876 65.5764-13.9054 65.4959-13.6283L60.9014 1.62992C60.258 3.87928 58.0389 4.77273 56.0999 4.20096C54.0617 3.64925 52.8465 1.4747 53.4843-0.664055L57.6698-14.5389L49.4796-25.038C47.8467-27.1145 46.962-29.7483 46.962-32.4625L46.962-45.1589C46.962-45.5746 46.7441-45.8674 46.3975-45.873Z"/>
</svg>