<svg xmlns="http://www.w3.org/2000/svg" viewBox="16.084 -107.588 181.57 144.58">
  <path d="M85.7027-85.7494C91.7265-85.7494 96.6068-90.5493 96.6068-96.6479C96.6068-102.702 91.7265-107.588 85.7027-107.588C79.6431-107.588 74.7685-102.702 74.7685-96.6479C74.7685-90.5493 79.6431-85.7494 85.7027-85.7494ZM23.5794 5.78071L59.2634 5.78071C61.3161 5.78071 62.204 5.67011 63.6849 5.3038L97.7911-2.95269C98.8136-3.19716 99.6664-2.47819 99.547-1.41105L97.5886 14.7298L86.1754 6.61559C82.7761 4.22354 78.0334 5.03095 75.647 8.35546C73.1355 11.7548 73.9071 16.5276 77.351 18.9643L97.6063 33.2627C102.867 36.9893 109.585 35.7263 110.965 30.0958L128.757-41.4228C128.998-42.3609 129.573-42.7039 130.542-42.4985L188.693-30.9431C194.399-29.8052 197.657-34.1012 197.657-38.3581C197.657-41.5074 195.823-44.9356 191.691-45.743L133.638-57.4209C116.446-60.8352 105.602-62.4324 93.2968-62.4324L77.8103-62.4324L77.8103-78.2405C77.8103-82.4919 74.411-85.8554 70.2702-85.8554C66.0189-85.8554 62.6944-82.4919 62.6944-78.2405L62.6944-54.9671C62.6944-50.8018 66.0189-47.3969 70.2702-47.3969L97.1061-47.3969C98.1729-47.3969 98.8288-46.5411 98.5071-45.3851L93.3726-25.5965C92.5438-22.5058 90.5566-20.2974 87.5407-19.2218L58.9743-9.25477L23.5794-9.25477C19.3281-9.25477 16.084-5.85546 16.084-1.68454C16.084 2.57242 19.3281 5.78071 23.5794 5.78071ZM121.507-66.256C129.796-66.256 136.565-73.0249 136.565-81.344C136.565-89.6329 129.796-96.3716 121.507-96.3716C113.188-96.3716 106.419-89.6329 106.419-81.344C106.419-73.0249 113.188-66.256 121.507-66.256Z"/>
</svg>