<svg xmlns="http://www.w3.org/2000/svg" viewBox="11.2588 -102.264 134.02 133.99">
  <path d="M78.2532 31.7248C115.263 31.7248 145.278 1.74009 145.278-35.2697C145.278-72.2795 115.263-102.264 78.2532-102.264C41.2736-102.264 11.2588-72.2795 11.2588-35.2697C11.2588 1.74009 41.2736 31.7248 78.2532 31.7248ZM78.2532 13.9829C51.0308 13.9829 29.0252-8.04727 29.0252-35.2697C29.0252-62.4921 51.0308-84.5223 78.2532-84.5223C105.476-84.5223 127.506-62.4921 127.506-35.2697C127.506-8.04727 105.476 13.9829 78.2532 13.9829ZM91.1265-60.5534C95.2046-60.5534 98.4484-63.872 98.4484-67.8753C98.4484-71.9233 95.2046-75.1973 91.1265-75.1973C87.1231-75.1973 83.8347-71.9233 83.8347-67.8753C83.8347-63.872 87.1231-60.5534 91.1265-60.5534ZM68.7966-34.4352L80.564-22.6566L80.564-5.67251L87.8942-5.67251L87.8942-23.7523C87.8942-24.7475 87.5782-25.7572 86.9292-26.672L79.1061-36.5796L85.7317-46.6995C86.0358-47.1914 86.635-47.1914 86.9032-46.6637L89.1285-42.1742C89.7361-40.9534 90.9926-40.1939 92.3541-40.1939L105.464-40.1939C107.519-40.1939 109.122-41.7721 109.122-43.8216C109.122-45.8767 107.519-47.4851 105.464-47.4851L94.6505-47.4851L91.317-54.2414C89.8839-57.083 86.9116-58.9239 83.6678-58.9239L66.1957-58.9239C65.0252-58.9239 63.7743-58.3163 63.1309-57.2708L56.6229-47.4674C55.5328-45.8144 55.9549-43.518 57.6437-42.428C59.2855-41.3021 61.6121-41.7846 62.7524-43.4879L68.1592-51.6684L72.825-51.6684C73.1737-51.6684 73.3816-51.3644 73.1737-51.0515L67.9008-43.1689C66.107-40.4792 66.4733-36.7586 68.7966-34.4352ZM49.0736-29.6095L61.9311-18.3818C64.1583-16.4015 66.6847-17.4916 67.8105-19.1804L72.3009-26.1635L66.4447-32.0945C66.314-32.2252 66.2694-32.2698 66.1588-32.3804L63.4345-26.8022L53.8964-35.1315C52.3797-36.4573 50.0833-36.3768 48.7519-34.8098C47.4206-33.2819 47.5066-30.9409 49.0736-29.6095ZM65.5858-2.87363L87.6295-2.87363C91.2911-2.87363 94.4464-3.62198 96.8547-5.69284C98.2392-6.9133 98.0997-8.50327 97.2255-9.44907C96.435-10.3804 94.9487-10.7267 93.5874-9.64571C92.0189-8.40121 90.5005-7.91629 87.6295-7.91629L65.5858-7.91629C62.7147-7.91629 61.1964-8.40121 59.5976-9.64571C58.2521-10.6663 56.8406-10.3804 56.0255-9.47364C55.1513-8.52784 54.9514-6.9133 56.3416-5.69284C58.7442-3.62198 61.9298-2.87363 65.5858-2.87363ZM65.5858 4.98645C67.2834 4.98645 68.6751 3.59474 68.6751 1.8971C68.6751 0.17488 67.2834-1.23688 65.5858-1.23688C63.8635-1.23688 62.4574 0.17488 62.4574 1.8971C62.4574 3.59474 63.8635 4.98645 65.5858 4.98645ZM87.6295 4.98645C89.3573 4.98645 90.7635 3.59474 90.7635 1.8971C90.7635 0.17488 89.3573-1.23688 87.6295-1.23688C85.9374-1.23688 84.5457 0.17488 84.5457 1.8971C84.5457 3.59474 85.9374 4.98645 87.6295 4.98645Z" />
</svg>