<svg xmlns="http://www.w3.org/2000/svg" viewBox="14.1293 -113.935 179.22 157.33">
  <path d="M50.0855-73.3781C57.2401-73.3781 63.0087-79.1467 63.0087-86.3014C63.0087-93.3813 57.2401-99.1443 50.0855-99.1443C43.0056-99.1443 37.2124-93.3813 37.2124-86.3014C37.2124-79.1467 43.0056-73.3781 50.0855-73.3781ZM42.4159 28.4211C45.8222 28.4211 48.5158 25.7274 48.5158 22.3212L48.5158-1.30037C48.5158-2.19512 49.2353-2.88441 50.0855-2.88441C50.9356-2.88441 51.6551-2.19512 51.6551-1.30037L51.6551 22.3212C51.6551 25.7274 54.3487 28.4211 57.755 28.4211C61.1198 28.4211 63.8493 25.7721 63.8493 22.3212L63.8493-1.30037L70.3486-1.30037C73.5894-1.30037 74.9976-4.03649 73.9858-7.22494L62.5473-43.5326C61.6739-46.2634 65.3561-47.4171 66.2596-44.5612L73.533-21.9779C75.8093-14.882 86.0416-17.6464 83.7351-24.7926L77.0493-45.7285C72.5335-59.8127 68.1504-67.5257 53.4846-67.5257L46.6863-67.5257C32.0205-67.5257 27.6318-59.8127 23.1216-45.7285L16.4057-24.7926C14.1293-17.6464 24.3314-14.882 26.638-21.9779L33.9113-44.5612C34.8092-47.4171 38.497-46.2634 37.6236-43.5326L26.1549-7.22494C25.1677-4.03649 26.5514-1.30037 29.8223-1.30037L36.3216-1.30037L36.3216 22.3212C36.3216 25.7721 39.0399 28.4211 42.4159 28.4211ZM165.306-73.3781C172.431-73.3781 178.188-79.1467 178.188-86.3014C178.188-93.3813 172.431-99.1443 165.306-99.1443C158.196-99.1443 152.398-93.3813 152.398-86.3014C152.398-79.1467 158.196-73.3781 165.306-73.3781ZM157.607 28.4211C161.013 28.4211 163.707 25.7274 163.707 22.3212L163.707-17.961C163.707-18.8413 164.426-19.5752 165.306-19.5752C166.126-19.5752 166.89-18.8413 166.89-17.961L166.89 22.3212C166.89 25.7274 169.614 28.4211 172.97 28.4211C176.385 28.4211 179.04 25.7721 179.04 22.3212L179.04-43.6819C179.04-44.5622 179.729-45.2213 180.61-45.2213C181.504-45.2213 182.163-44.5622 182.163-43.6819L182.163-22.0255C182.163-18.9052 184.691-16.3836 187.811-16.3836C190.865-16.3836 193.348-18.9052 193.348-22.0255L193.348-46.2241C193.348-58.9902 183.521-67.5032 169.68-67.5032L160.873-67.5032C147.026-67.5032 137.243-58.9902 137.243-46.2241L137.243-22.0255C137.243-18.9052 139.732-16.3836 142.816-16.3836C145.901-16.3836 148.434-18.9052 148.434-22.0255L148.434-43.6819C148.434-44.5622 149.123-45.2213 149.943-45.2213C150.817-45.2213 151.507-44.5622 151.507-43.6819L151.507 22.3212C151.507 25.7721 154.231 28.4211 157.607 28.4211ZM108.891 43.396C113.313 43.396 116.748 39.9913 116.748 35.6043L116.748-106.144C116.748-110.531 113.313-113.935 108.891-113.935C104.503-113.935 101.038-110.531 101.038-106.144L101.038 35.6043C101.038 39.9913 104.503 43.396 108.891 43.396Z"/>
</svg>