<svg xmlns="http://www.w3.org/2000/svg" viewBox="11.2588 -102.264 134.02 133.99">
  <path d="M78.2532 31.7248C115.263 31.7248 145.278 1.74009 145.278-35.2697C145.278-72.2795 115.263-102.264 78.2532-102.264C41.2736-102.264 11.2588-72.2795 11.2588-35.2697C11.2588 1.74009 41.2736 31.7248 78.2532 31.7248ZM78.2532 13.9829C51.0308 13.9829 29.0252-8.04727 29.0252-35.2697C29.0252-62.4921 51.0308-84.5223 78.2532-84.5223C105.476-84.5223 127.506-62.4921 127.506-35.2697C127.506-8.04727 105.476 13.9829 78.2532 13.9829ZM58.8553-46.4033C62.8229-46.4033 66.1112-49.6415 66.1112-53.7197C66.1112-57.7174 62.8229-61.0058 58.8553-61.0058C54.7772-61.0058 51.4944-57.7174 51.4944-53.7197C51.4944-49.6415 54.7772-46.4033 58.8553-46.4033ZM77.7799-13.7738L87.3012-26.8308L93.1998-16.0223C95.273-6.26355 95.4697-0.51229 95.4697 0.610376C95.4697 2.7761 97.1283 4.33988 99.1778 4.33988C101.233 4.33988 102.806 2.64223 102.806 0.556928C102.806-1.77242 102.636-9.90627 100.3-18.0718L100.139-18.6404C96.4642-31.5951 89.0522-56.2218 67.3388-70.6989C66.2073-71.378 65.1618-71.7299 63.97-71.7299L53.1564-71.7299C51.1817-71.7299 49.5287-70.0769 49.5287-68.072C49.5287-66.0169 51.1817-64.3639 53.1564-64.3639L63.5948-64.3639C66.9372-62.0135 69.8718-59.5112 72.4992-56.8034C72.773-56.5798 72.8478-56.3292 72.6512-55.9359L61.6201-37.1691C60.0475-34.5511 61.9362-31.6471 64.7654-31.6471L79.1429-31.6471L71.5341-17.7232L71.2125-17.1244L62.4633-1.10171C61.4838 0.726594 62.097 2.97274 63.8807 3.90759C65.5639 4.79221 67.7943 4.46492 68.9145 2.41541ZM70.8094-38.7599L73.056-42.6387C73.3745-43.2644 73.9411-43.1035 74.1792-42.7191L76.8335-38.7599Z" />
</svg>