<svg xmlns="http://www.w3.org/2000/svg" viewBox="11.2588 -102.264 134.02 133.99">
  <path d="M78.2532 31.7248C115.263 31.7248 145.278 1.74009 145.278-35.2697C145.278-72.2795 115.263-102.264 78.2532-102.264C41.2736-102.264 11.2588-72.2795 11.2588-35.2697C11.2588 1.74009 41.2736 31.7248 78.2532 31.7248ZM78.2532 13.9829C51.0308 13.9829 29.0252-8.04727 29.0252-35.2697C29.0252-62.4921 51.0308-84.5223 78.2532-84.5223C105.476-84.5223 127.506-62.4921 127.506-35.2697C127.506-8.04727 105.476 13.9829 78.2532 13.9829ZM78.4088 0.711593C95.8975 0.711593 107.484-11.0572 107.484-28.5486C107.484-57.3927 82.655-69.4891 65.7871-69.4891C62.0285-69.4891 59.5398-67.9349 59.5398-65.0654C59.5398-63.9858 60.0589-62.8369 60.8663-61.8743C64.9945-56.8414 68.1957-52.2792 68.2259-46.6128C68.2259-45.8118 68.1754-45.1428 67.6707-44.2303L68.8508-44.5966C66.6812-49.9585 63.6571-51.9707 60.8628-51.9707C58.995-51.9707 57.8216-50.8117 57.8216-48.6749C57.8216-47.4578 58.0238-46.1143 58.0238-44.2237C58.0238-36.7192 52.4375-33.8737 52.4375-21.9208C52.4375-8.37395 62.8153 0.711593 78.4088 0.711593ZM79.2541-10.6692C73.5481-10.6692 69.6495-14.0965 69.6495-19.1749C69.6495-24.4499 73.325-25.9909 73.8433-30.1164C73.8489-30.6914 74.4415-31.0396 74.9505-30.5362C76.1963-29.3833 77.0085-27.7926 77.7505-25.7933C79.2765-28.5875 79.5062-32.5506 78.8706-36.8256C78.7066-37.5646 79.2546-37.8737 79.8384-37.6538C86.4372-34.7903 90.1277-28.3969 90.1277-21.8538C90.1277-15.537 86.204-10.6692 79.2541-10.6692Z" />
</svg>