<svg xmlns="http://www.w3.org/2000/svg" viewBox="11.2588 -106.822 143.08 143.11">
  <path d="M82.8114 36.2885C122.202 36.2885 154.334 4.15717 154.334-35.2697C154.334-74.691 122.202-106.822 82.8114-106.822C43.3901-106.822 11.2588-74.691 11.2588-35.2697C11.2588 4.15717 43.3901 36.2885 82.8114 36.2885ZM82.8114 11.1031C57.1794 11.1031 36.4386-9.6377 36.4386-35.2697C36.4386-60.9017 57.1794-81.6425 82.8114-81.6425C108.413-81.6425 129.154-60.9017 129.154-35.2697C129.154-9.6377 108.413 11.1031 82.8114 11.1031ZM67.8998-7.81247C78.8407-7.81247 84.6596-12.5353 86.4497-23.3209L88.1368-33.0821L99.9176-33.0821C101.801-33.0821 103.171-34.2969 103.171-36.0723C103.171-37.8722 101.801-39.0927 99.9176-39.0927L89.1273-39.0927L90.2705-45.887C91.1129-50.9636 93.717-53.5031 98.8438-53.5031C101.57-53.5031 103.455-53.4299 104.802-53.9654C106.217-54.4116 106.947-55.4768 106.947-57.114C106.947-58.9108 105.814-60.2036 104.251-61.0533C102.341-62.095 99.5256-62.5538 97.2524-62.5538C86.4523-62.5538 80.3607-57.9058 78.5404-47.1773L77.1773-39.0927L66.3736-39.0927C64.4788-39.0927 63.1389-37.8722 63.1389-36.0723C63.1389-34.2969 64.4788-33.0821 66.3736-33.0821L76.1925-33.0821L74.7687-24.7375C73.8905-19.5849 71.4453-16.8877 66.2368-16.8877C63.9613-16.8877 62.8268-17.001 61.21-16.8672C59.2705-16.5548 58.1393-15.2451 58.1393-13.2522C58.1393-11.5201 59.0921-10.3299 60.5965-9.45567C62.5688-8.21647 65.2814-7.81247 67.8998-7.81247Z" />
</svg>