<svg xmlns="http://www.w3.org/2000/svg" viewBox="11.2588 -104.745 139.03 138.96">
  <path d="M75.0745 34.2171L86.4701 34.2171C91.2768 34.2171 94.9477 31.2607 96.0698 26.6013L98.9876 14.3189C100.492 13.8081 101.903 13.2281 103.217 12.6267L113.925 19.2601C117.882 21.7054 122.709 21.28 126.024 17.965L134.053 9.9361C137.373 6.60991 137.74 1.6451 135.234-2.35333L128.72-12.9758C129.321-14.2512 129.887-15.6115 130.337-16.9617L142.73-19.9097C147.36-21.0017 150.286-24.6725 150.286-29.5094L150.286-40.675C150.286-45.4068 147.36-49.1223 142.73-50.2143L130.487-53.1478C129.976-54.6489 129.38-56.0237 128.825-57.2085L135.384-68.1C137.874-72.2569 137.509-76.9281 134.113-80.2845L125.935-88.358C122.589-91.3449 118.241-91.9802 114.284-89.7581L103.217-82.9305C101.933-83.5765 100.522-84.1118 99.0322-84.6673L96.0698-97.1295C94.903-101.789 91.2768-104.745 86.4701-104.745L75.0745-104.745C70.2679-104.745 66.6416-101.789 65.505-97.0848L62.5571-84.7723C61.0717-84.2615 59.5674-83.6815 58.2775-83.0053L47.2855-89.7581C43.2537-91.9802 38.8302-91.5391 35.5599-88.3134L27.4259-80.2845C24.0306-76.9281 23.6656-72.2569 26.1555-68.1L32.714-57.2085C32.1586-56.0237 31.5628-54.6489 31.0822-53.1478L18.8444-50.2143C14.185-49.1223 11.2588-45.4068 11.2588-40.675L11.2588-29.5094C11.2588-24.6725 14.185-21.0017 18.8444-19.9097L31.2318-16.9617C31.6521-15.6115 32.2176-14.2512 32.819-12.9758L26.3051-2.35333C23.7994 1.6451 24.1657 6.60991 27.4863 9.9361L35.5152 17.965C38.8302 21.28 43.6566 21.7054 47.6438 19.2601L58.3523 12.6267C59.6422 13.2281 61.0717 13.8081 62.5571 14.3189L65.505 26.6013C66.597 31.2607 70.2679 34.2171 75.0745 34.2171ZM80.7846-13.6726C68.8395-13.6726 59.1875-23.3547 59.1875-35.2697C59.1875-47.1847 68.8395-56.8668 80.7846-56.8668C92.7052-56.8668 102.357-47.1847 102.357-35.2697C102.357-23.3547 92.7052-13.6726 80.7846-13.6726Z"/>
</svg>