<svg xmlns="http://www.w3.org/2000/svg" viewBox="16.084 -99.834 175.39 157.38">
  <path d="M183.398-67.1757L122.044-95.2014C115.109-98.3309 109.31-99.834 103.78-99.7536C98.2437-99.834 92.4454-98.3309 85.5098-95.2014L24.1563-67.1757C19.0615-64.8555 16.084-60.4866 16.084-55.5956C16.084-50.7291 19.0615-46.2867 24.1563-44.0759L45.2938-34.7798L88.2753-54.6386C88.1307-54.9907 88.0858-55.2793 88.0858-55.6012C88.0858-61.4156 95.773-65.2892 103.901-65.2892C111.948-65.2892 119.629-61.4602 119.629-55.6012C119.629-49.7254 111.992-45.777 103.901-45.777C101.304-45.777 98.7803-46.1633 96.5235-46.8858L57.282-28.931L85.5098-16.0144C92.4511-12.8101 98.2437-11.3818 103.78-11.4622C109.31-11.3818 115.109-12.8547 122.044-16.0144L183.398-44.0759C188.493-46.4206 191.47-50.7291 191.47-55.5956C191.47-60.4866 188.493-64.8555 183.398-67.1757ZM57.1613-17.3756L57.1613 16.6335C68.854 23.5299 85.26 27.6391 103.78 27.6391C140.518 27.6391 168.757 11.5048 168.757-9.64526L168.757-25.8285L126.43-6.40965C118.293-2.6673 110.723-0.831269 103.78-0.911689C96.8312-0.831269 89.3053-2.6673 81.1238-6.40965ZM38.797-25.7481L38.797-9.64526C38.797-4.18129 41.1671 1.67345 45.4894 6.77402L45.4894-22.6997ZM45.4894 27.9241L57.1613 27.9687L57.1613 16.6335C52.3387 13.8046 48.3968 10.4891 45.4894 6.77402ZM38.7296 31.318L38.7296 47.2042C38.7296 53.4348 42.8452 57.5448 49.0702 57.5448L53.5056 57.5448C59.7362 57.5448 63.8462 53.4348 63.8462 47.2042L63.8462 31.318C63.8462 25.093 59.7362 20.9774 53.5056 20.9774L49.0702 20.9774C42.8452 20.9774 38.7296 25.093 38.7296 31.318Z"/>
</svg>