<svg xmlns="http://www.w3.org/2000/svg" viewBox="14.4916 -105.989 177.68 141.54">
  <path d="M17.1548 21.8292C14.4916 27.8268 16.5275 35.5287 25.2329 35.5287C28.2421 35.5287 30.7533 34.2647 34.4625 31.1852L51.1119 17.4289C51.6083 16.9851 51.9247 16.8854 52.3246 16.8854C52.7548 16.8854 53.1214 16.9851 53.6178 17.4289L70.237 31.1852C73.9462 34.2647 76.4574 35.5287 79.461 35.5287C88.1966 35.5287 90.2023 27.8268 87.5391 21.8292L58.1804-44.1719L58.1804-74.5065C58.1804-89.05 60.6376-99.9299 60.6376-102.188C60.6376-104.415 59.108-105.989 56.8872-105.989C55.4268-105.989 54.1863-105.193 52.4854-103.286L38.3107-87.0061C36.7755-85.1906 37.1695-82.8496 39.3075-81.8503C44.9513-79.4377 46.4801-78.6589 46.4801-74.5065L46.4801-44.1051ZM67.4752 10.5523C65.4441 10.5523 63.7122 8.82042 63.7122 6.75354C63.7122 4.71123 65.4799 2.9134 67.4752 2.9134C69.5388 2.9134 71.3009 4.661 71.3009 6.75354C71.3009 8.79023 69.5533 10.5523 67.4752 10.5523ZM63.406 1.3993C61.3448 1.3993 59.5525-0.312502 59.5525-2.35481C59.5525-4.38268 61.3448-6.1749 63.406-6.1749C65.4093-6.1749 67.2015-4.41847 67.2015-2.35481C67.2015-0.318115 65.4093 1.3993 63.406 1.3993ZM59.416-7.73923C57.3435-7.73923 55.5726-9.49566 55.5726-11.4632C55.5726-13.53 57.3045-15.3078 59.416-15.3078C61.4439-15.3078 63.1701-13.5658 63.1701-11.4632C63.1701-9.47109 61.4081-7.73923 59.416-7.73923ZM107.443 35.55C125.7 35.55 137.947 24.6457 137.947 8.15186C137.947-5.52291 130.012-9.68365 130.012-14.6957C130.012-20.2387 134.542-23.8669 134.542-30.7039C134.542-35.9154 130.757-39.7633 125.65-39.7633C121.958-39.7633 119.928-37.896 118.364-36.1987C117.064-34.8623 116.065-33.6849 114.876-33.6849C113.566-33.6849 113.143-35.3684 113.143-36.9386L113.173-77.0446C113.173-78.1972 113.304-78.4419 114.21-78.9143C115.708-79.8318 116.283-80.6136 116.444-82.5188L117.725-96.0553C117.85-97.5772 117.194-98.9874 116.104-99.9834L110.576-104.787C109.636-105.608 108.554-105.989 107.443-105.989C106.293-105.989 105.211-105.608 104.295-104.787L98.7373-99.9834C97.6766-99.0176 96.991-97.5772 97.116-96.0553L98.3971-82.5188C98.558-80.5834 99.1129-79.6678 100.661-78.9143C101.495-78.5223 101.712-78.2474 101.712-77.0446L101.772-36.9241C101.772-35.0967 101.145-33.6403 99.9948-33.6403C98.9984-33.6403 97.8963-34.7442 96.4768-36.1987C94.9131-37.8514 92.8823-39.6741 89.2712-39.6741C84.1582-39.6741 80.3788-35.8708 80.3788-30.6593C80.3788-23.8223 84.9087-20.194 84.9087-14.6511C84.9087-12.6444 83.2264-10.3852 81.5403-7.32957L92.73 17.8029C94.2951 21.3923 94.9743 24.1026 94.9743 26.9461C94.9743 29.1375 94.6104 31.1838 93.8468 33.0057C97.9781 34.7413 102.507 35.55 107.443 35.55ZM93.4826 7.13206C91.7085 6.57153 90.7036 4.57624 91.2196 2.82222L95.4956-10.7494C96.0807-12.5983 98.0704-13.6422 99.9249-12.9622C101.729-12.4519 102.734-10.412 102.218-8.62219L98.0067 4.91367C97.4606 6.71793 95.3226 7.7618 93.4826 7.13206ZM121.269 7.17669C119.384 7.67255 117.425 6.58406 116.929 4.91367L112.667-8.62219C112.107-10.6351 113.246-12.6304 115.094-13.0068C116.979-13.5083 118.894-12.4198 119.395-10.7494L123.666 2.82222C124.226 4.71011 123.043 6.79464 121.269 7.17669ZM161.735 35.273C180.29 35.273 192.174 26.2517 192.174 11.9794C192.174-1.69171 183.545-4.08983 183.545-10.1444C183.545-14.1536 185.49-17.8887 185.49-23.7562C185.49-33.07 178.564-39.2567 167.55-40.8389L167.55-79.823C167.55-82.1624 167.749-82.6497 169.02-83.5669C170.578-84.5886 171.133-85.5767 171.052-87.0427L170.087-102.965C169.962-104.784 168.698-105.989 167.016-105.989L156.419-105.989C154.761-105.989 153.497-104.784 153.372-102.965L152.413-87.0427C152.332-85.5911 152.857-84.6333 154.394-83.5669C155.68-82.6196 155.91-82.1322 155.91-79.823L155.91-40.8389C144.895-39.2567 137.989-33.07 137.989-23.7562C137.989-18.8258 139.8-15.3138 139.8-11.7508C139.8-11.1166 139.585-10.6042 139.263-10.017C141.328-6.45613 144.286-0.30136 144.286 8.15186C144.286 15.7189 142.144 22.3623 138.292 27.7761C143.579 32.5823 151.682 35.273 161.735 35.273ZM161.78-4.45779C157.506-4.45779 154.124-7.79483 154.124-11.994C154.124-16.1486 157.536-19.5549 161.78-19.5549C165.929-19.5549 169.305-16.1486 169.305-11.994C169.305-7.79483 165.929-4.45779 161.78-4.45779ZM153.662 13.8972C151.692 13.8972 150.117 12.3129 150.117 10.3823C150.117 8.48183 151.722 6.88734 153.662 6.88734L169.728 6.88734C171.662 6.88734 173.238 8.45165 173.238 10.3823C173.238 12.3129 171.662 13.8972 169.728 13.8972Z"/>
</svg>