<svg xmlns="http://www.w3.org/2000/svg" viewBox="16.084 -108.239 167.7 139.6">
  <path d="M21.4823-97.4424L61.2612-97.4424C63.6749-103.271 68.5243-106.713 74.0863-108.239L21.4823-108.239C18.5057-108.239 16.084-105.823 16.084-102.841C16.084-99.864 18.5057-97.4424 21.4823-97.4424ZM21.4823-74.0518L64.4276-74.0518C62.1172-80.4336 61.4547-82.6365 60.84-84.8182L21.4823-84.8182C18.5057-84.8182 16.084-82.4021 16.084-79.4947C16.084-76.4735 18.5057-74.0518 21.4823-74.0518ZM21.5269-50.6311L55.9129-50.6311C58.8951-50.6311 61.3168-53.0527 61.3168-56.0293C61.3168-59.0115 58.8951-61.4276 55.9129-61.4276L21.5269-61.4276C18.5949-61.4276 16.084-59.0115 16.084-56.0293C16.084-53.0527 18.5949-50.6311 21.5269-50.6311ZM145.405 23.3299C173.819 12.9984 183.787-10.7437 172.817-40.8892L168.19-53.5352C164.109-64.8397 155.726-70.6506 148.633-68.0745C146.677-67.3688 145.962-65.7646 146.662-63.8444L148.524-58.6226C149.271-56.6053 148.763-55.2492 147.618-54.8369C146.392-54.4247 145.17-55.0424 144.417-57.1044L143.174-60.5034C140.61-67.5524 134.24-70.7506 127.892-68.4635C124.765-67.3111 123.69-65.1854 124.681-62.3862L127.301-55.2111C128.053-53.1491 127.56-51.8734 126.433-51.431C125.169-51.0187 123.947-51.5918 123.199-53.6928L120.741-60.3464C117.975-67.9708 112.069-70.6325 105.584-68.292C102.573-67.1899 101.337-64.9781 102.323-62.2593L107.539-47.9933C108.286-45.9816 107.748-44.6556 106.672-44.288C105.446-43.801 104.185-44.4991 103.432-46.4862L86.6935-92.6125C84.7728-97.8388 79.9432-100.246 75.2622-98.522C70.3768-96.7343 68.225-91.8791 70.1457-86.5993L94.1166-20.7871C94.5646-19.5034 94.1588-18.5459 93.3421-18.3135C92.6704-18.0118 91.9039-18.2576 91.0613-19.1561L75.2529-36.2397C72.4632-39.2594 69.0388-40.823 64.9549-39.3035C59.8127-37.4488 57.4749-32.6652 59.2166-27.8094C59.813-26.2416 60.6204-24.8894 61.4535-23.8452L84.121 3.87007C102.464 26.2876 123.366 31.3658 145.405 23.3299Z"/>
</svg>