<svg xmlns="http://www.w3.org/2000/svg" viewBox="16.084 -95.939 121.37 121.4">
  <path d="M38.8315 25.46L114.705 25.46C129.348 25.46 137.453 17.3442 137.453 2.80309L137.453-73.2821C137.453-87.8232 129.348-95.939 114.705-95.939L38.8315-95.939C24.2188-95.939 16.084-87.8344 16.084-73.2821L16.084 2.80309C16.084 17.3554 24.2188 25.46 38.8315 25.46ZM62.0032-63.2288C69.2752-63.2288 74.4269-58.9924 77.2297-54.1192C80.0024-58.9924 85.1899-63.2288 92.4261-63.2288C102.745-63.2288 110.818-55.2256 110.818-43.4402C110.818-23.8083 88.4122-8.77149 81.1022-4.25987C79.9207-3.6176 78.4144-2.72765 77.2901-2.72765C76.1658-2.72765 74.5243-3.62321 73.3573-4.25987C66.0224-8.79899 43.6168-23.8083 43.6168-43.4402C43.6168-55.2256 51.7143-63.2288 62.0032-63.2288Z"/>
</svg>