<svg xmlns="http://www.w3.org/2000/svg" viewBox="16.084 -121.234 83.87 171.16">
  <path d="M39.6559-80.6697C39.6559-90.6604 31.2644-95.8242 31.2644-101.377C31.2644-104.692 32.0766-106.244 34.3308-109.394C38.7453-115.238 30.3787-121.234 26.0031-115.63C22.4638-111.211 20.8691-106.954 20.8691-101.931C20.8691-91.4574 29.0719-87.1048 29.0719-80.6697C29.0719-74.2626 20.8691-69.8573 20.8691-59.3977C20.8691-54.3908 22.4638-50.1638 25.9919-45.7378C30.3562-40.1442 38.7285-46.1708 34.3083-51.9843C32.0766-55.0705 31.2644-56.6527 31.2644-60.0407C31.2644-65.446 39.6559-70.662 39.6559-80.6697ZM67.1292-80.6697C67.1292-90.6604 58.7377-95.8242 58.7377-101.377C58.7377-104.692 59.5889-106.244 61.7985-109.394C66.1885-115.238 57.852-121.234 53.4407-115.63C49.9516-111.211 48.3424-106.954 48.3424-101.931C48.3424-91.4574 56.5541-87.1048 56.5541-80.6697C56.5541-74.2626 48.3424-69.8573 48.3424-59.3977C48.3424-54.3908 49.9516-50.1638 53.4351-45.7378C57.7938-40.1442 66.1716-46.1708 61.7816-51.9843C59.5889-55.0705 58.7377-56.6527 58.7377-60.0407C58.7377-65.446 67.1292-70.662 67.1292-80.6697ZM94.4975-80.6697C94.4975-90.6604 86.1753-95.8242 86.1753-101.377C86.1753-104.692 86.9875-106.244 89.2472-109.394C93.6762-115.238 85.304-121.234 80.8838-115.63C77.3892-111.211 75.8-106.954 75.8-101.931C75.8-91.4574 83.9972-87.1048 83.9972-80.6697C83.9972-74.2626 75.8-69.8573 75.8-59.3977C75.8-54.3908 77.3892-50.1638 80.8726-45.7378C85.2815-40.1442 93.6538-46.1708 89.2248-51.9843C86.9875-55.0705 86.1753-56.6527 86.1753-60.0407C86.1753-65.446 94.4975-70.662 94.4975-80.6697ZM72.2074 49.9234C84.8394 49.9234 96.9785 39.2194 96.9785 27.7237C96.9785 17.6686 88.6194 12.3269 73.7012 8.27442L73.4888 5.31397L88.3162 5.31397C95.7287 5.31397 99.952 1.30257 99.952-6.07735C99.952-18.6391 89.2391-30.8084 77.6128-30.8084C67.6437-30.8084 62.4102-22.4838 58.2495-7.61906L55.2891-7.37218L55.2891-22.2799C55.2891-29.6767 51.2331-33.8521 43.8946-33.8521C31.2858-33.8521 19.0775-23.0979 19.0775-11.5376C19.0775-1.55724 27.4825 3.68078 42.4007 7.8225L42.5415 10.7081L27.8146 10.7081C20.3374 10.7081 16.084 14.8133 16.084 22.1184C16.084 34.755 26.8829 46.9141 38.3985 46.9141C48.3174 46.9141 53.7564 38.5417 57.8064 23.7763L60.7279 23.5696L60.7279 38.2964C60.7279 45.7982 64.8387 49.9234 72.2074 49.9234ZM57.9287 16.3977C53.2644 16.3977 49.5293 12.6626 49.5293 7.99822C49.5293 3.33387 53.2644-0.45148 57.9287-0.45148C62.5931-0.45148 66.3728 3.33387 66.3728 7.99822C66.3728 12.6626 62.5931 16.3977 57.9287 16.3977Z"/>
</svg>