<svg xmlns="http://www.w3.org/2000/svg" viewBox="11.2588 -101.521 158.62 132.47">
  <path d="M11.2588-22.297C11.2588-2.7541 18.3096 15.108 29.9897 28.937C31.6278 30.861 34.3379 30.9 36.1424 29.0565L51.7235 13.4363C53.2018 11.9882 53.232 9.95944 51.929 8.30583C45.1692-0.246684 41.2644-10.8295 41.2644-22.297C41.2644-47.2349 59.7679-67.8301 83.7677-71.1704C85.9084-71.4651 87.427-73.0698 87.427-75.2048L87.427-97.0309C87.427-99.6215 85.4528-101.521 82.8622-101.265C42.745-97.3802 11.2588-63.5076 11.2588-22.297ZM169.881-22.297C169.881-63.5076 138.475-97.3802 98.2774-101.265C95.6868-101.521 93.7126-99.6215 93.7126-97.0309L93.7126-75.2048C93.7126-73.0698 95.2312-71.4651 97.3775-71.1704C121.372-67.8301 139.905-47.2349 139.905-22.297C139.905-10.8295 136.001-0.246684 129.166 8.35045C127.893 10.0041 127.923 12.0328 129.372 13.481L144.958 29.1011C146.763 30.9446 149.478 30.9 151.122 28.9704C162.866 15.0968 169.881-2.75972 169.881-22.297ZM90.5482-50.2202C84.4717-50.2202 77.3309-48.6898 73.5656-42.9741C72.7927-41.7433 72.2177-40.4923 72.2177-38.6734C72.2177-36.0276 74.2571-34.3395 76.969-34.3395C79.1417-34.3395 80.4445-35.1747 81.8643-36.7214C84.088-39.7057 87.0039-40.952 90.3018-40.952C94.6129-40.952 98.6181-38.9629 98.6181-34.9933C98.6181-32.5527 96.9407-30.1356 93.3987-29.2272L106.615-28.5126C108.786-30.1143 110.285-32.8139 110.285-35.98C110.285-45.6432 100.491-50.2202 90.5482-50.2202ZM66.4996-27.7174C66.4996-26.7434 67.2726-25.9402 68.2466-25.9402L113.357-25.9402C114.331-25.9402 115.134-26.7434 115.134-27.7174C115.134-28.7519 114.331-29.555 113.357-29.555L68.2466-29.555C67.2726-29.555 66.4996-28.7519 66.4996-27.7174ZM66.4996-18.5005C66.4996-17.5019 67.2726-16.7289 68.2466-16.7289L113.357-16.7289C114.331-16.7289 115.134-17.5019 115.134-18.5005C115.134-19.5048 114.331-20.3079 113.357-20.3079L68.2466-20.3079C67.2726-20.3079 66.4996-19.5048 66.4996-18.5005ZM90.9591 4.69686C98.4614 4.69686 106.098 2.45795 109.152-4.01394C109.71-5.10533 110.075-6.22048 110.075-7.29955C110.075-9.9008 107.895-11.6637 105.227-11.6637C103.035-11.6637 101.755-10.8763 100.321-9.20459C98.3515-6.1426 95.3202-4.61596 91.3049-4.61596C86.6764-4.61596 82.6363-6.70042 82.6363-11.0511C82.6363-13.8859 84.55-16.7901 89.0861-17.3383L75.349-17.8929C72.6425-16.3157 70.8648-12.7698 70.8648-9.63949C70.8648-0.0153287 81.1722 4.69686 90.9591 4.69686Z"/>
</svg>