<svg xmlns="http://www.w3.org/2000/svg" viewBox="16.084 -109.502 153.25 148.46">
  <path d="M27.741 19.7304L158.911 19.7304L158.911 13.8234C158.911 10.55 156.905 8.59397 153.646 8.59397L150.874 8.59397L150.874-60.2129L156.006-60.2129C160.821-60.2129 163.649-63.7987 163.649-67.3567C163.649-69.9847 162.167-72.3748 159.098-74.2114L102.382-106.902C99.5859-108.536 96.3365-109.502 93.3259-109.502C90.2852-109.502 87.0302-108.536 84.2339-106.902L27.5178-74.2114C24.4242-72.3748 22.9728-69.9847 22.9728-67.3567C22.9728-63.7987 25.795-60.2129 30.6157-60.2129L35.7778-60.2129L35.7778 8.59397L33.0062 8.59397C29.7473 8.59397 27.741 10.55 27.741 13.8234ZM48.4997 8.59397L48.4997-69.4991L91.7282-93.6619C92.238-93.9526 92.8194-94.1158 93.3259-94.1158C93.8469-94.1158 94.3781-93.9526 94.8878-93.6619L138.182-69.4991L138.182 8.59397ZM23.2724 38.9626L162.1 38.9626C165.966 38.9626 169.333 35.7742 169.333 31.744C169.333 27.8278 165.966 24.5556 162.1 24.5556L23.2724 24.5556C19.4007 24.5556 16.084 27.8278 16.084 31.744C16.084 35.7295 19.4007 38.9626 23.2724 38.9626ZM90.3646-30.2462C100.158-30.8709 106.41-37.3449 107.367-45.197L113.551-45.197C114.6-45.197 115.353-45.9857 115.353-47.0044C115.353-47.9483 114.6-48.737 113.551-48.737L107.433-48.737C107.131-53.4743 105.253-57.6704 101.348-60.4022L113.551-60.4022C114.6-60.4022 115.353-61.1909 115.353-62.2096C115.353-63.1837 114.6-63.9366 113.551-63.9366L76.2439-63.9366C73.8281-63.9366 72.128-62.3289 72.128-59.9922L72.128-59.7496C72.128-57.4073 73.8281-55.7997 76.2439-55.7997L85.0665-55.7997C90.3846-55.7997 94.8141-53.891 95.692-48.737L74.6092-48.737C73.5905-48.737 72.8074-47.9483 72.8074-47.0044C72.8074-46.0303 73.5905-45.197 74.6092-45.197L95.731-45.197C94.8776-39.9155 90.5529-38.1511 85.0426-38.1511L77.5976-38.1511C74.6432-38.1511 72.2185-36.6635 72.2185-33.464L72.2185-33.0555C72.2185-30.7332 73.5603-29.2338 75.3891-27.471L92.7288-10.6987C94.1636-9.30536 95.5802-8.14768 97.7171-8.14768C100.508-8.14768 103.307-10.5723 103.307-13.5338C103.307-15.088 102.443-16.6384 101.22-17.7873L88.17-30.1569Z"/>
</svg>