<svg xmlns="http://www.w3.org/2000/svg" viewBox="16.084 -95.8832 121.37 121.4">
  <path d="M16.084-61.8009L33.5844-61.8009L33.5844-70.9511C33.5844-76.0579 36.118-78.3526 40.9557-78.3526L50.0456-78.3526L50.0456-95.8832L38.8315-95.8832C24.2188-95.8832 16.084-87.7786 16.084-73.2263ZM60.6017-78.3526L92.9653-78.3526L92.9653-95.8832L60.6017-95.8832ZM119.952-61.8009L137.453-61.8009L137.453-73.2263C137.453-87.7674 129.318-95.8832 114.705-95.8832L103.521-95.8832L103.521-78.3526L112.581-78.3526C117.396-78.3526 119.952-76.0579 119.952-70.9511ZM119.952-19.117L137.453-19.117L137.453-51.2447L119.952-51.2447ZM103.521 25.5159L114.705 25.5159C129.318 25.5159 137.453 17.4 137.453 2.85894L137.453-8.56648L119.952-8.56648L119.952 0.583786C119.952 5.72074 117.396 7.98528 112.581 7.98528L103.521 7.98528ZM60.6017 25.5159L92.9653 25.5159L92.9653 7.98528L60.6017 7.98528ZM38.8315 25.5159L50.0456 25.5159L50.0456 7.98528L40.9557 7.98528C36.118 7.98528 33.5844 5.72074 33.5844 0.583786L33.5844-8.56648L16.084-8.56648L16.084 2.85894C16.084 17.4112 24.2188 25.5159 38.8315 25.5159ZM16.084-19.117L33.5844-19.117L33.5844-51.2447L16.084-51.2447ZM47.9766-2.62109L105.59-2.62109C108.137-2.62109 109.402-3.96041 109.402-6.5678L109.402-63.9716C109.402-66.579 108.137-67.9183 105.59-67.9183L47.9766-67.9183C45.3994-67.9183 44.1349-66.579 44.1349-63.9716L44.1349-6.5678C44.1349-3.96041 45.3994-2.62109 47.9766-2.62109Z"/>
</svg>