<svg xmlns="http://www.w3.org/2000/svg" viewBox="14.9914 -116.128 153.27 163.98">
  <path d="M58.5466 0.889003C52.9792 0.889003 48.4604-3.62976 48.4604-9.26318C48.4604-14.7056 52.9792-19.1797 58.5466-19.1797C64.0694-19.1797 68.6184-14.661 68.6184-9.26318C68.6184-3.62976 64.0694 0.889003 58.5466 0.889003ZM66.719 24.2145C62.5131 24.2145 59.0309 20.8216 59.0309 16.6157C59.0309 12.3852 62.5131 8.89743 66.719 8.89743C70.9551 8.89743 74.3926 12.3852 74.3926 16.6157C74.3926 20.8216 70.9551 24.2145 66.719 24.2145ZM118.58-27.0857C113.731-27.0857 109.78-31.1163 109.78-35.8908C109.78-40.6596 113.731-44.6544 118.58-44.6544C123.379-44.6544 127.304-40.6596 127.304-35.8908C127.304-31.1219 123.379-27.0857 118.58-27.0857ZM63.1056-100.843L66.8446-99.6625C69.146-99.0031 69.8032-98.0352 69.4355-96.5308L68.2655-91.9637L81.6196-92.0831L82.0642-96.3255C82.8326-103.655 79.2674-109.101 72.0304-111.57L67.385-113.255C58.6736-116.128 54.496-103.227 63.1056-100.843ZM120.197-100.843C128.807-103.227 124.624-116.128 115.918-113.255L111.273-111.57C104.03-109.101 100.47-103.655 101.239-96.3255L101.683-92.0831L115.037-91.9637L113.867-96.5308C113.5-98.0352 114.157-99.0031 116.458-99.6625ZM58.6056-41.9624L45.3553-55.1882L30.469-69.8951C29.5975-69.6677 28.7728-69.1441 28.0533-68.2972C25.4922-65.3005 26.159-60.9153 29.4768-58.2649L41.1024-49.1047C35.5964-39.8134 32.799-26.9943 32.799-16.5672C32.799 15.1091 51.0103 37.8813 79.1122 42.5751C83.3878 43.2941 86.2661 41.4425 86.2661 37.7752L86.2661-14.2573L70.9589-29.6092C69.383-28.1017 67.2077-27.0857 64.8068-27.0857C60.0134-27.0857 56.0877-31.1219 56.0877-35.8908C56.0877-38.2168 57.029-40.3922 58.6056-41.9624ZM40.7322-27.1033L23.3496-27.0341C19.0179-27.0341 16.084-24.2498 16.084-20.2173C16.084-16.2038 19.0179-13.4698 23.3552-13.4698L40.7322-13.5446ZM44.4026 10.2835L31.3226 21.3318C28.0639 24.1217 27.319 28.3762 29.8858 31.4565C32.4357 34.5726 36.7127 34.5411 40.0016 31.7266L53.0402 20.7253ZM128.912-55.7424L137.414-45.4288L153.915-58.3906C157.258-61.0353 157.894-65.4261 155.339-68.387C152.783-71.5031 148.709-71.4125 145.287-68.6873ZM142.66-27.1033L142.66-13.5446L160.037-13.4698C164.374-13.4698 167.308-16.2038 167.308-20.2173C167.308-24.2498 164.374-27.0341 160.043-27.0341ZM17.0203-95.8119L158.582 45.7431C160.692 47.8524 164.095 47.8524 166.174 45.7431C168.259 43.6338 168.239 40.2159 166.174 38.1568L24.6871-103.398C22.628-105.457 19.1352-105.513 17.0203-103.398C14.9914-101.369 14.9914-97.8464 17.0203-95.8119ZM91.6933-58.5305C103.174-58.5305 114.091-60.5108 121.167-64.2574C126.59-67.217 127.807-69.6408 127.807-73.1902C127.807-88.2466 114.231-100.462 91.6933-100.462C74.3602-100.462 62.0831-93.145 57.7653-82.5708L80.9752-59.3497C84.2922-58.8193 87.9787-58.5305 91.6933-58.5305ZM124.84-19.1797C130.407-19.1797 134.926-14.7056 134.926-9.26318C134.926-8.08005 134.561-7.05243 134.029-6.27841L146.836 6.53437C149.318-0.389609 150.593-8.14934 150.593-16.5672C150.593-30.5221 145.639-48.89 135.593-57.2039C132.631-59.7335 129.878-59.6499 128.123-58.8054C118.366-53.5284 106.095-50.8236 92.1841-50.779C91.2693-50.779 90.3018-50.807 89.3476-50.9741L122.025-18.327C122.754-18.7898 123.732-19.1797 124.84-19.1797ZM116.668 24.2145C112.432 24.2145 109 20.8216 109 16.6157C109 14.2651 109.997 12.6 111.62 11.0357L97.1204-3.40297L97.1204 37.7752C97.1204 41.4425 99.9988 43.2941 104.274 42.5751C114.697 40.8879 123.706 36.6398 130.972 30.3772L122.143 21.5833C120.967 23.2061 118.86 24.2145 116.668 24.2145Z"/>
</svg>