<svg xmlns="http://www.w3.org/2000/svg" viewBox="11.2588 -101.462 158.62 132.59">
  <path d="M90.5877-71.4865C101.818-71.4865 112.172-67.73 120.48-61.3888C122.123-60.1505 124.228-60.2811 125.747-61.7998L141.171-77.2332C143.021-79.0823 142.946-81.798 140.927-83.4417C127.232-94.7146 109.688-101.462 90.5877-101.462C71.4822-101.462 53.9079-94.7146 40.2429-83.4417C38.2241-81.798 38.1549-79.0823 40.0041-77.2332L55.3985-61.7998C56.9171-60.2811 59.1024-60.1561 60.8265-61.4749C69.1287-67.73 79.4382-71.4865 90.5877-71.4865ZM11.2588-22.1631C11.2588-2.5366 18.3932 15.4147 30.1626 29.2438C31.7617 31.1287 34.3937 31.0451 36.1926 29.2406L51.7625 13.6595C53.2352 12.2113 53.271 10.1826 51.968 8.52894C45.1748-0.0681933 41.2644-10.6957 41.2644-22.1631C41.2644-33.3182 44.9907-43.6277 51.2816-51.8998C52.5501-53.6239 52.5445-55.7645 50.9813-57.3278L35.5177-72.7468C33.6741-74.5903 30.9529-74.5513 29.3092-72.5325C18.0306-58.8127 11.2588-41.2742 11.2588-22.1631ZM169.881-22.1631C169.881-41.3188 163.095-58.9466 151.702-72.711C150.148-74.5959 147.471-74.5903 145.628-72.7468L130.189-57.3278C128.625-55.7645 128.62-53.6239 129.888-51.8998C136.179-43.6277 139.905-33.3182 139.905-22.1631C139.905-10.6957 135.995-0.0681933 129.172 8.52894C127.899 10.1826 127.935 12.2113 129.377 13.6595L144.953 29.2406C146.752 31.0451 149.428 31.0395 151.116 29.1099C162.821 15.2809 169.881-2.58123 169.881-22.1631ZM68.9582 4.64875L109.787 4.64875C112.949 4.64875 114.831 2.89151 114.831-0.0309294C114.831-3.0036 112.949-4.79102 109.787-4.79102L95.8251-4.79102C83.9639-4.79102 75.319-13.1846 75.319-23.7839C75.319-33.6523 81.7299-40.1698 91.3757-40.1698C99.2138-40.1698 105.739-35.3168 106.82-27.9314C107.341-25.371 108.925-23.1305 111.92-23.1305C115.019-23.1305 117.2-24.9996 117.2-28.1098C117.147-39.1096 105.301-49.5341 91.2418-49.5341C77.0199-49.5341 64.6542-40.1227 64.6542-25.7284C64.6542-17.3966 68.1839-8.87282 75.9988-4.66517L75.9988-4.31461L68.9582-4.31461C65.8806-4.31461 64.0731-2.64662 64.0731 0.147561C64.0731 2.98076 65.8806 4.64875 68.9582 4.64875ZM86.0512-23.5664C87.0555-23.5664 87.8586-24.3639 87.8586-25.3984L87.8586-54.5878C87.8586-55.5921 87.0555-56.365 86.0512-56.365C85.047-56.365 84.2438-55.5921 84.2438-54.5878L84.2438-25.3984C84.2438-24.3639 85.047-23.5664 86.0512-23.5664ZM96.8276-23.5664C97.862-23.5664 98.6595-24.3639 98.6595-25.3984L98.6595-54.5878C98.6595-55.5921 97.862-56.365 96.8276-56.365C95.8535-56.365 95.0504-55.5921 95.0504-54.5878L95.0504-25.3984C95.0504-24.3639 95.8535-23.5664 96.8276-23.5664Z"/>
</svg>