<svg xmlns="http://www.w3.org/2000/svg" viewBox="16.084 -95.939 121.37 121.4">
  <path d="M38.8315 25.46L114.705 25.46C129.348 25.46 137.453 17.3442 137.453 2.80309L137.453-73.2821C137.453-87.8232 129.348-95.939 114.705-95.939L38.8315-95.939C24.2188-95.939 16.084-87.8344 16.084-73.2821L16.084 2.80309C16.084 17.3554 24.2188 25.46 38.8315 25.46ZM54.3814-6.39964C51.1196-6.39964 49.1481-8.18706 49.1481-11.2289C49.1481-14.1872 51.1196-15.989 54.3814-15.989L61.7068-15.989L61.7068-16.3396C53.5335-20.8107 49.7738-29.8034 49.7738-38.5683C49.7738-51.2671 58.883-60.2712 70.5778-62.9244L70.5778-69.1242C70.5778-70.1731 71.4199-71.0209 72.4544-71.0209C73.5335-71.0209 74.3812-70.1731 74.3812-69.1242L74.3812-63.5937C75.5867-63.7155 76.7475-63.7569 77.9586-63.7569C79.2948-63.7569 80.6611-63.7155 81.9615-63.5434L81.9615-69.1242C81.9615-70.1731 82.8394-71.0209 83.8581-71.0209C84.9371-71.0209 85.7704-70.1731 85.7704-69.1242L85.7704-62.7246C97.0177-59.7299 105.452-50.5874 105.469-41.1584C105.469-37.8092 103.125-35.8006 99.8171-35.8006C96.6131-35.8006 94.9093-38.1807 94.3437-40.9352C93.6562-46.0873 90.3505-50.0908 85.7704-52.1245L85.7704-38.1936C85.7704-37.0843 84.9371-36.3114 83.8581-36.3114C82.8394-36.3114 81.9615-37.0843 81.9615-38.1936L81.9615-53.3978C80.7504-53.6503 79.4343-53.8111 78.0925-53.8111C76.8368-53.8111 75.5867-53.6503 74.3812-53.4782L74.3812-38.1936C74.3812-37.0843 73.5335-36.3114 72.4544-36.3114C71.4199-36.3114 70.5778-37.0843 70.5778-38.1936L70.5778-52.2653C64.712-49.7686 61.1897-44.0262 61.1897-36.5043C61.1897-25.3525 70.262-16.4654 82.811-16.4654L97.6091-16.4654C100.954-16.4654 102.995-14.5888 102.995-11.4074C102.995-8.27631 100.954-6.39964 97.6091-6.39964Z"/>
</svg>