<svg xmlns="http://www.w3.org/2000/svg" viewBox="16.084 -95.939 121.37 121.4">
  <path d="M38.8315 25.46L114.705 25.46C129.348 25.46 137.453 17.3442 137.453 2.80309L137.453-73.2821C137.453-87.8232 129.348-95.939 114.705-95.939L38.8315-95.939C24.2188-95.939 16.084-87.8344 16.084-73.2821L16.084 2.80309C16.084 17.3554 24.2188 25.46 38.8315 25.46ZM53.7896-10.2047L53.7896-34.8796C53.7896-39.1803 55.4643-41.566 58.8104-42.2222L58.8104-48.8585C58.8104-61.1307 66.2397-69.3519 77.2297-69.3519C88.2342-69.3519 95.6635-61.1307 95.6635-48.8585L95.6635-42.1776C98.965-41.566 100.64-39.1803 100.64-34.8796L100.64-10.2047C100.64-4.89074 98.2642-2.50512 93.417-2.50512L61.0569-2.50512C56.1651-2.50512 53.7896-4.89074 53.7896-10.2047ZM68.599-42.5201L85.8303-42.5201L85.8303-49.3992C85.8303-55.6994 82.4233-59.7676 77.1851-59.7676C71.9916-59.7676 68.599-55.6548 68.599-49.3992Z"/>
</svg>