<svg xmlns="http://www.w3.org/2000/svg" viewBox="12.2681 -98.6118 186.99 126.7">
  <path d="M43.6443 24.3295L66.2538 20.0064C80.8558 17.2021 87.7 8.7398 87.7-6.65197L87.7-75.027C87.7-89.1807 77.6016-98.6118 62.9328-98.6118C49.8127-98.6118 40.1584-90.8558 36.6829-77.5976L17.2521-3.15563C12.2681 15.9413 23.9055 28.0892 43.6443 24.3295ZM55.4035-4.49241C50.8983-3.52575 46.2133-6.52621 45.3661-11.095C44.5188-15.5556 47.4848-20.091 51.924-21.013L62.716-23.2757L53.324-31.6685C49.8602-34.7237 49.5164-40.1867 52.6106-43.6694C55.6904-47.0439 61.2395-47.2972 64.567-44.2722L82.9996-27.581L87.7-28.6318L87.7-11.323ZM105.761-15.1826L123.792-11.323L123.792-28.6318L114.169-30.653L114.169-88.082C114.169-92.6621 110.391-96.5199 105.761-96.5199C101.106-96.5199 97.3288-92.6621 97.3288-88.082L97.3288-30.653L87.7-28.6318L87.7-11.323ZM167.848 24.3295C187.592 28.0892 199.26 15.9413 194.245-3.15563L174.815-77.5976C171.364-90.8558 161.715-98.6118 148.559-98.6118C133.926-98.6118 123.792-89.1807 123.792-75.027L123.792-6.65197C123.792 8.7398 130.642 17.2021 145.244 20.0064ZM156.094-4.49241L123.792-11.323L123.792-28.6318L128.498-27.581L146.931-44.2722C150.258-47.2972 155.802-47.0439 158.887-43.6694C161.981-40.1867 161.637-34.7237 158.174-31.6685L148.782-23.2757L159.573-21.013C164.043-20.091 167.009-15.5556 166.131-11.095C165.284-6.52621 160.599-3.52575 156.094-4.49241Z"/>
</svg>