<svg xmlns="http://www.w3.org/2000/svg" viewBox="16.084 -111.406 100.19 153.67">
  <path d="M39.386-111.406L29.9399-111.406C21.9991-111.406 16.084-105.441 16.084-97.5056L16.084-57.5513C16.084-51.0939 18.1797-47.1682 23.0336-43.7994L39.386-32.5419ZM77.8587-111.406L54.4308-111.406L54.4308-32.485L54.8918-32.1608L55.2977-33.0359C60.0797-41.4238 72.0269-41.349 76.9943-33.0359L77.4033-32.2179L77.8587-32.5309ZM102.374-111.406L92.9426-111.406L92.9426-32.5564L109.325-43.7994C114.259-47.1682 116.275-51.2189 116.275-57.5513L116.275-97.5056C116.275-105.441 110.309-111.406 102.374-111.406ZM48.9591 39.1793L66.2029 26.5411L83.4221 39.1793C87.5224 42.2144 92.0927 39.4815 90.3285 34.1578L83.5749 13.889L100.929 1.44185C104.429-1.13767 103.95-6.86482 98.3174-6.79001L76.9618-6.57121L70.4093-26.9751C68.845-31.9673 63.4772-31.9673 61.8827-26.9751L55.4195-6.57121L34.0136-6.79001C28.5758-6.86482 27.835-1.15451 31.4073 1.44746L48.7617 13.9337L42.0137 34.1578C40.3187 39.303 44.8142 42.259 48.9591 39.1793Z"/>
</svg>