<svg xmlns="http://www.w3.org/2000/svg" viewBox="16.084 -95.939 121.37 121.4">
  <path d="M38.8315 25.46L114.705 25.46C129.348 25.46 137.453 17.3442 137.453 2.80309L137.453-73.2821C137.453-87.8232 129.348-95.939 114.705-95.939L38.8315-95.939C24.2188-95.939 16.084-87.8344 16.084-73.2821L16.084 2.80309C16.084 17.3554 24.2188 25.46 38.8315 25.46ZM40.9557 7.92943C36.118 7.92943 33.5844 5.63471 33.5844 0.527938L33.5844-71.007C33.5844-76.1439 36.118-78.4085 40.9557-78.4085L112.581-78.4085C117.396-78.4085 119.952-76.1439 119.952-71.007L119.952 0.527938C119.952 5.63471 117.396 7.92943 112.581 7.92943ZM55.3724-15.7759L98.084-15.7759C103.015-15.7759 106.307-18.4037 106.307-22.8436C106.307-27.2835 103.12-29.9414 98.1286-29.9414L55.3724-29.9414C50.3366-29.9414 47.1494-27.3282 47.1494-22.8436C47.1494-18.4037 50.4416-15.7759 55.3724-15.7759ZM55.3724-40.3479L98.084-40.3479C103.015-40.3479 106.307-42.9756 106.307-47.4155C106.307-51.8555 103.12-54.5134 98.1286-54.5134L55.3724-54.5134C50.3366-54.5134 47.1494-51.9001 47.1494-47.4155C47.1494-42.9756 50.4416-40.3479 55.3724-40.3479ZM57.9846-4.12028C61.219-2.15045 64.7482-3.4019 66.6287-6.62188L97.5564-58.8693C99.4616-62.2288 98.7276-65.6542 95.4932-67.5292C92.243-69.4934 88.8245-68.3136 86.9081-65.0132L55.92-12.8047C53.92-9.39051 54.7646-5.95063 57.9846-4.12028Z" />
</svg>