<svg xmlns="http://www.w3.org/2000/svg" viewBox="16.084 -93.0233 67.11 115.51">
  <path d="M26.1007 22.4839C31.6637 22.4839 36.1117 18.0906 36.1117 12.5276L36.1117-83.067C36.1117-88.8532 31.8868-93.0233 26.1007-93.0233C20.3089-93.0233 16.084-88.8532 16.084-83.067L16.084 12.5276C16.084 18.0906 20.532 22.4839 26.1007 22.4839ZM73.1874 22.4839C78.7806 22.4839 83.1985 18.0906 83.1985 12.5276L83.1985-83.067C83.1985-88.8532 79.0038-93.0233 73.1874-93.0233C67.3957-93.0233 63.1707-88.8532 63.1707-83.067L63.1707 12.5276C63.1707 18.0906 67.6188 22.4839 73.1874 22.4839Z"/>
</svg>