<svg xmlns="http://www.w3.org/2000/svg" viewBox="13.6919 -93.5644 116.83 116.54">
  <path d="M35.7638 15.7326L71.5171-20.0263L56.8797-34.6636L21.1767 1.12865L14.7257 17.6969C13.6919 20.4093 16.4848 22.9748 18.9843 22.1107ZM91.2425-39.7996L111.475-60.032L96.8823-74.6247L76.6442-54.3477ZM118.678-67.1299L126.514-74.9304C130.34-78.7505 130.52-83.1854 126.915-86.7597L123.743-89.9768C120.185-93.5644 115.695-93.254 111.88-89.5143L104.025-81.764ZM116.004 12.3041C118.063 14.3688 121.592 14.4134 123.621 12.3041C125.705 10.2394 125.73 6.82147 123.621 4.71777L33.0849-85.779C30.9812-87.8771 27.4583-87.8883 25.4238-85.779C23.3893-83.7445 23.3893-80.2216 25.4238-78.1871Z"/>
</svg>