<svg xmlns="http://www.w3.org/2000/svg" viewBox="16.084 -92.976 154.46 115.33">
  <path d="M135.488-32.1784C138.173-32.1784 140.582-33.5605 142.141-35.9119L168.882-76.9535C169.934-78.5154 170.545-80.2037 170.545-81.7223C170.545-85.5683 167.162-88.2978 163.415-88.2978C160.947-88.2978 158.9-87.0351 157.279-84.3569L135.361-49.0552L125.242-61.35C123.643-63.2551 121.91-64.1382 119.713-64.1382C115.897-64.1382 112.749-61.0747 112.749-57.2477C112.749-55.4357 113.358-53.9059 114.775-52.1901L128.595-35.778C130.527-33.4499 132.702-32.1784 135.488-32.1784ZM28.6389 22.3529L110.953 22.3529C118.833 22.3529 123.538 18.5339 123.538 12.1534C123.538-3.9263 102.476-25.925 69.7989-25.925C37.1519-25.925 16.084-3.9263 16.084 12.1534C16.084 18.5339 20.7954 22.3529 28.6389 22.3529ZM69.8101-36.877C84.1463-36.877 95.7243-49.3549 95.7243-65.2086C95.7243-80.5129 84.0403-92.976 69.8101-92.976C55.6102-92.976 43.9205-80.3922 43.9205-65.1482C43.9205-49.3549 55.5041-36.877 69.8101-36.877Z" />
</svg>