<svg xmlns="http://www.w3.org/2000/svg" viewBox="16.084 -104.915 112.91 139.4">
  <path d="M16.084 11.7397C16.084 26.3825 24.1584 34.4871 38.7107 34.4871L106.333 34.4871C120.891 34.4871 128.99 26.3825 128.99 11.7397L128.99-82.1674C128.99-96.78 120.891-104.915 106.333-104.915L38.7107-104.915C24.1584-104.915 16.084-96.78 16.084-82.1674ZM72.5013-4.6255C68.028-4.6255 64.7158-7.90324 64.7158-12.2986L64.7158-27.4283L49.6162-27.4283C45.1907-27.4283 41.913-30.7405 41.913-35.2139C41.913-39.7286 45.1851-43.071 49.6162-43.071L64.7158-43.071L64.7158-58.1706C64.7158-62.5961 68.028-65.8738 72.5013-65.8738C77.0161-65.8738 80.3585-62.6017 80.3585-58.1706L80.3585-43.071L95.4938-43.071C99.8891-43.071 103.161-39.7286 103.161-35.2139C103.161-30.7405 99.8835-27.4283 95.4938-27.4283L80.3585-27.4283L80.3585-12.2986C80.3585-7.89762 77.0161-4.6255 72.5013-4.6255Z"/>
</svg>