<svg xmlns="http://www.w3.org/2000/svg" viewBox="16.084 -111.832 124.7 153.21">
  <path d="M116.805-63.8795C130.028-63.8795 140.786-74.6075 140.786-87.866C140.786-101.104 130.028-111.832 116.805-111.832C103.556-111.832 92.8332-101.104 92.8332-87.866C92.8332-74.6075 103.556-63.8795 116.805-63.8795ZM59.6511 25.7858L102.327 25.7858C125.603 25.7858 140.786 13.2564 140.786-6.49018C140.786-26.6298 126.117-39.6363 98.2019-42.513L61.0804-46.3497C41.6287-48.3936 33.5844-54.4494 33.5844-63.9688C33.5844-73.3052 40.829-78.7444 54.5429-78.7444L97.7868-78.7444C102.59-78.7444 106.537-82.6914 106.537-87.4946C106.537-92.2977 102.59-96.2448 97.7868-96.2448L54.5429-96.2448C31.2667-96.2448 16.084-83.7154 16.084-63.9688C16.084-43.8292 30.739-30.8171 58.5842-27.946L95.7751-24.1093C115.221-22.0654 123.286-16.0096 123.286-6.49018C123.286 2.84626 116.041 8.28537 102.327 8.28537L59.6511 8.28537C54.8479 8.28537 50.9065 12.2324 50.9065 17.0356C50.9065 21.8387 54.8479 25.7858 59.6511 25.7858ZM40.0648 41.3734C53.3088 41.3734 64.067 30.6454 64.067 17.407C64.067 4.14854 53.3088-6.57946 40.0648-6.57946C26.8422-6.57946 16.084 4.14854 16.084 17.407C16.084 30.6454 26.8422 41.3734 40.0648 41.3734Z" />
</svg>