<svg xmlns="http://www.w3.org/2000/svg" viewBox="16.084 -109.502 153.25 148.46">
  <path d="M27.741 19.7304L158.911 19.7304L158.911 13.8234C158.911 10.55 156.905 8.59397 153.646 8.59397L150.874 8.59397L150.874-60.2129L156.006-60.2129C160.821-60.2129 163.649-63.7987 163.649-67.3567C163.649-69.9847 162.167-72.3748 159.098-74.2114L102.382-106.902C99.5859-108.536 96.3365-109.502 93.3259-109.502C90.2852-109.502 87.0302-108.536 84.2339-106.902L27.5178-74.2114C24.4242-72.3748 22.9728-69.9847 22.9728-67.3567C22.9728-63.7987 25.795-60.2129 30.6157-60.2129L35.7778-60.2129L35.7778 8.59397L33.0062 8.59397C29.7473 8.59397 27.741 10.55 27.741 13.8234ZM48.4997 8.59397L48.4997-69.4991L91.7282-93.6619C92.238-93.9526 92.8194-94.1158 93.3259-94.1158C93.8469-94.1158 94.3781-93.9526 94.8878-93.6619L138.182-69.4991L138.182 8.59397ZM23.2724 38.9626L162.1 38.9626C165.966 38.9626 169.333 35.7742 169.333 31.744C169.333 27.8278 165.966 24.5556 162.1 24.5556L23.2724 24.5556C19.4007 24.5556 16.084 27.8278 16.084 31.744C16.084 35.7295 19.4007 38.9626 23.2724 38.9626ZM72.4761-12.5184L92.0927-12.5184C94.4941-12.5184 96.0841-14.0033 96.0841-16.3099C96.0841-18.5617 94.4941-20.0768 92.0927-20.0768L81.9902-20.0768L81.9902-20.8618L94.1836-40.4977C95.1439-42.0185 95.6007-42.8662 95.6007-44.4762C95.6007-47.0304 93.9843-48.8641 91.0721-48.8641L72.4222-48.8641C70.0509-48.8641 68.4163-47.3043 68.4163-45.0581C68.4163-42.7315 70.0509-41.2163 72.4222-41.2163L83.4342-41.2163L83.4342-40.4012L69.7172-19.8767C68.7984-18.5223 68.4163-17.7382 68.4163-16.4141C68.4163-14.173 69.9472-12.5184 72.4761-12.5184ZM108.844-11.7109C112.009-11.7109 113.935-13.7573 113.935-17.0976L113.935-57.9792C113.935-61.3496 112.009-63.4261 108.844-63.4261C105.673-63.4261 103.701-61.3496 103.701-58.0093L103.701-17.0976C103.701-13.7573 105.673-11.7109 108.844-11.7109ZM102.905-33.2984L117.336-40.8405C118.766-41.611 119.262-42.6172 119.262-43.6592C119.262-45.6023 117.259-47.4204 114.93-46.2232L100.23-38.4869C98.9581-37.8358 98.2982-36.6744 98.2982-35.6682C98.2982-33.6893 100.277-31.9762 102.905-33.2984Z"/>
</svg>