<svg xmlns="http://www.w3.org/2000/svg" viewBox="11.2588 -102.264 134.02 133.99">
  <path d="M78.2532 31.7248C115.252 31.7248 145.278 1.69868 145.278-35.2697C145.278-72.2381 115.252-102.264 78.2532-102.264C41.2849-102.264 11.2588-72.2381 11.2588-35.2697C11.2588 1.69868 41.2849 31.7248 78.2532 31.7248ZM76.5371-23.1104C70.9213-23.1104 67.8102-25.4472 67.8102-29.9386C67.8102-30.1054 67.8102-30.2275 67.8102-30.364C67.8102-35.2443 70.97-38.4178 75.6245-41.6437C80.8224-45.261 83.6167-46.9907 83.6167-50.5157C83.6167-53.688 80.7949-56.2336 76.9762-56.2336C74.0082-56.2336 71.6474-55.0096 69.5702-51.9913L68.9232-51.0983C67.3592-49.0439 65.1878-48.0164 62.3999-48.0164C58.4875-48.0164 55.5724-50.9565 55.5724-54.6767C55.5724-56.1282 55.886-57.3487 56.3995-58.625C59.0788-65.1765 67.2902-69.8529 78.6857-69.8529C91.7109-69.8529 102.029-62.6515 102.029-51.547C102.029-44.327 98.6168-40.612 91.7214-36.2839C88.1403-33.9686 85.3779-31.8395 84.7086-29.0203C84.6639-28.8146 84.6193-28.5252 84.5747-28.2246C83.9946-25.2857 80.8734-23.1104 76.5371-23.1104ZM76.5158-1.38067C71.255-1.38067 67.1405-4.59691 67.1405-9.62333C67.1405-14.6164 71.2248-17.8962 76.5158-17.8962C81.7822-17.8962 85.727-14.6019 85.727-9.62333C85.727-4.56672 81.752-1.38067 76.5158-1.38067Z"/>
</svg>