<svg xmlns="http://www.w3.org/2000/svg" viewBox="16.084 -95.8944 150.75 121.4">
  <path d="M56.6597-56.7957L79.907-56.7957L79.907-78.3638L56.6597-78.3638ZM102.947-56.7957L126.164-56.7957L126.164-78.3638L102.947-78.3638ZM33.5844-35.1893L56.6597-35.1893L56.6597-56.7957L33.5844-56.7957ZM79.907-35.1893L102.947-35.1893L102.947-56.7957L79.907-56.7957ZM126.164-35.1893L149.364-35.1893L149.364-56.7957L126.164-56.7957ZM56.6597-13.6355L79.907-13.6355L79.907-35.1893L56.6597-35.1893ZM102.947-13.6355L126.164-13.6355L126.164-35.1893L102.947-35.1893ZM33.5844 5.83396L35.7261 7.97405L56.6597 7.97405L56.6597-13.6355L33.5844-13.6355ZM79.907 7.97405L102.947 7.97405L102.947-13.6355L79.907-13.6355ZM126.164 7.97405L146.78 7.97405L149.364 5.68297L149.364-13.6355L126.164-13.6355ZM38.8315 25.5046L144.087 25.5046C158.73 25.5046 166.834 17.3888 166.834 2.84772L166.834-73.2375C166.834-87.7786 158.73-95.8944 144.087-95.8944L38.8315-95.8944C24.2188-95.8944 16.084-87.7898 16.084-73.2375L16.084 2.84772C16.084 17.4 24.2188 25.5046 38.8315 25.5046ZM40.9557 7.97405C36.118 7.97405 33.5844 5.67933 33.5844 0.57256L33.5844-70.9624C33.5844-76.0993 36.118-78.3638 40.9557-78.3638L141.963-78.3638C146.778-78.3638 149.334-76.0993 149.334-70.9624L149.334 0.57256C149.334 5.67933 146.778 7.97405 141.963 7.97405Z"/>
</svg>