<svg xmlns="http://www.w3.org/2000/svg" viewBox="16.084 -101.238 150.31 132.11">
  <path d="M34.2827-39.4082L148.229-39.4082C160.223-39.4082 166.397-45.549 166.397-57.5466L166.397-83.1297C166.397-95.0971 160.223-101.238 148.229-101.238L34.2827-101.238C22.2585-101.238 16.084-95.0971 16.084-83.1297L16.084-57.5466C16.084-45.549 22.2585-39.4082 34.2827-39.4082ZM34.2827 30.8706L148.229 30.8706C160.223 30.8706 166.397 24.76 166.397 12.7322L166.397-12.851C166.397-24.8184 160.223-30.929 148.229-30.929L34.2827-30.929C22.2585-30.929 16.084-24.8184 16.084-12.851L16.084 12.7322C16.084 24.76 22.2585 30.8706 34.2827 30.8706Z"/>
</svg>