<svg xmlns="http://www.w3.org/2000/svg" viewBox="16.084 -95.939 121.37 121.4">
  <path d="M38.8315 25.46L114.705 25.46C129.348 25.46 137.453 17.3442 137.453 2.80309L137.453-73.2821C137.453-87.8232 129.348-95.939 114.705-95.939L38.8315-95.939C24.2188-95.939 16.084-87.8344 16.084-73.2821L16.084 2.80309C16.084 17.3554 24.2188 25.46 38.8315 25.46ZM52.4652-6.44187C49.238-6.44187 47.4505-8.37759 47.4505-11.8381L47.4505-55.4414C47.4505-61.1909 50.3441-63.7131 56.049-63.7131L73.1864-63.7131C84.9004-63.7131 90.1712-59.0657 90.1712-46.8087L90.1712-28.6C90.1712-25.4708 88.2946-23.4445 85.3909-23.4445C82.4313-23.4445 80.5849-25.4708 80.5849-28.6L80.5849-44.3607C80.5849-51.957 78.0092-53.6597 70.8804-53.6597L57.4831-53.6597L57.4831-11.8381C57.4831-8.46684 55.6957-6.44187 52.4652-6.44187ZM71.4072-6.80948C67.1863-6.80948 64.2436-8.88409 64.2436-13.5771L64.2436-41.5824C64.2436-44.8008 65.8972-46.9308 69.0686-46.9308C72.2211-46.9308 73.83-44.8008 73.83-41.5824L73.83-16.9075L87.9475-16.9075C95.5079-16.9075 96.9461-19.0444 96.9461-26.6049L96.9461-58.6241C96.9461-61.9865 98.8674-64.0863 101.955-64.0863C104.998-64.0863 106.979-61.9865 106.979-58.6241L106.979-24.4515C106.979-12.7324 101.766-6.80948 90.002-6.80948Z"/>
</svg>