<svg xmlns="http://www.w3.org/2000/svg" viewBox="16.084 -108.439 113.48 148.77">
  <path d="M93.7396-108.439L74.3847-108.439C61.7376-108.439 53.7058-100.523 53.7058-88.1564L53.7058-74.8512L68.1233-74.8512L68.1233-88.1564C68.1233-92.1269 70.1283-94.0157 74.3847-94.0157L93.7396-94.0157C107.177-94.0157 115.173-85.3764 115.173-70.8207L115.173 30.603C115.173 34.7424 118.205 37.8938 122.389 37.8938C126.568 37.8938 129.561 34.6978 129.561 30.603L129.561-70.8207C129.561-93.6923 115.627-108.439 93.7396-108.439ZM16.084-25.5545C16.084-21.989 18.9775-19.101 22.5375-19.101L99.2526-19.101C102.812-19.101 105.706-21.989 105.706-25.5545C105.706-28.5845 103.601-31.1601 100.869-31.7402L100.566-31.7848C99.1778-45.7378 90.9625-57.6228 78.9201-63.6968L78.9201-67.4468C78.9201-77.7814 71.4116-85.4094 60.8771-85.4094C50.3482-85.4094 42.8699-77.7814 42.8699-67.4468L42.8699-63.6968C30.8275-57.6228 22.5764-45.7378 21.2183-31.7848L20.9153-31.7402C18.1888-31.1601 16.084-28.5845 16.084-25.5545ZM38.7937 0.363426C42.0106 0.363426 44.592-2.24824 44.592-5.42928C44.592-8.64611 42.0106-11.2276 38.7937-11.2276C35.6071-11.2276 33.0312-8.64611 33.0312-5.42928C33.0312-2.24824 35.6071 0.363426 38.7937 0.363426ZM38.7937 20.3335C42.0106 20.3335 44.592 17.752 44.592 14.5352C44.592 11.3486 42.0106 8.73688 38.7937 8.73688C35.6071 8.73688 33.0312 11.3486 33.0312 14.5352C33.0312 17.752 35.6071 20.3335 38.7937 20.3335ZM38.7937 40.3282C42.0106 40.3282 44.592 37.7165 44.592 34.5299C44.592 31.3186 42.0106 28.7372 38.7937 28.7372C35.6071 28.7372 33.0312 31.3186 33.0312 34.5299C33.0312 37.7165 35.6071 40.3282 38.7937 40.3282ZM60.8413 0.363426C64.0581 0.363426 66.6396-2.24824 66.6396-5.42928C66.6396-8.64611 64.0581-11.2276 60.8413-11.2276C57.6603-11.2276 55.0486-8.64611 55.0486-5.42928C55.0486-2.24824 57.6603 0.363426 60.8413 0.363426ZM60.8413 20.3335C64.0581 20.3335 66.6396 17.752 66.6396 14.5352C66.6396 11.3486 64.0581 8.73688 60.8413 8.73688C57.6603 8.73688 55.0486 11.3486 55.0486 14.5352C55.0486 17.752 57.6603 20.3335 60.8413 20.3335ZM60.8413 40.3282C64.0581 40.3282 66.6396 37.7165 66.6396 34.5299C66.6396 31.3186 64.0581 28.7372 60.8413 28.7372C57.6603 28.7372 55.0486 31.3186 55.0486 34.5299C55.0486 37.7165 57.6603 40.3282 60.8413 40.3282ZM82.8945 0.363426C86.1057 0.363426 88.6872-2.24824 88.6872-5.42928C88.6872-8.64611 86.1057-11.2276 82.8945-11.2276C79.7079-11.2276 77.0962-8.64611 77.0962-5.42928C77.0962-2.24824 79.7079 0.363426 82.8945 0.363426ZM82.8945 20.3335C86.1057 20.3335 88.6872 17.752 88.6872 14.5352C88.6872 11.3486 86.1057 8.73688 82.8945 8.73688C79.7079 8.73688 77.0962 11.3486 77.0962 14.5352C77.0962 17.752 79.7079 20.3335 82.8945 20.3335ZM82.8945 40.3282C86.1057 40.3282 88.6872 37.7165 88.6872 34.5299C88.6872 31.3186 86.1057 28.7372 82.8945 28.7372C79.7079 28.7372 77.0962 31.3186 77.0962 34.5299C77.0962 37.7165 79.7079 40.3282 82.8945 40.3282Z"/>
</svg>