<svg xmlns="http://www.w3.org/2000/svg" viewBox="11.2588 -102.184 134.02 133.99">
  <path d="M78.2532 31.8052C115.252 31.8052 145.278 1.7791 145.278-35.1893C145.278-72.1577 115.252-102.184 78.2532-102.184C41.2849-102.184 11.2588-72.1577 11.2588-35.1893C11.2588 1.7791 41.2849 31.8052 78.2532 31.8052ZM63.0215-8.24123C54.8625-8.24123 49.0917-14.0926 49.0917-21.7879C49.0917-28.4753 54.1779-34.1183 60.86-34.9429C62.3907-41.0612 67.9843-45.3979 74.3604-45.3979C75.5237-45.3979 76.6677-45.2459 77.878-44.9998C80.8402-49.1453 85.5697-51.5641 90.8536-51.5641C99.2213-51.5641 106.217-45.2077 107.257-37.0757C113.534-35.2602 117.882-29.5726 117.882-22.9576C117.882-14.5663 111.545-8.24123 102.485-8.24123ZM37.6711-39.3998C37.6711-45.9902 42.0023-51.7414 48.2657-53.5492C49.3304-61.6924 56.382-68.003 64.7686-68.003C70.0164-68.003 74.545-65.8331 77.7584-61.4709C79.1001-61.8642 80.3724-62.1156 81.8171-62.1156C86.733-62.1156 90.6902-59.721 92.1998-56.3852C86.5954-56.7008 80.3583-54.9744 75.8589-50.2947C75.4026-50.3529 74.8167-50.3943 74.3604-50.3943C66.8117-50.3943 60.0198-45.8377 57.0538-39.2291C51.0729-37.3356 46.4598-32.6184 44.8386-26.6401C39.7662-29.8543 37.6711-34.3564 37.6711-39.3998Z"/>
</svg>