<svg xmlns="http://www.w3.org/2000/svg" viewBox="16.084 -104.821 211.66 139.32">
  <path d="M33.6317 5.36046L79.6245 5.36046C90.3555 5.36046 97.2024-1.41165 97.2024-11.9773L97.2024-58.4346C97.2024-68.9557 90.3555-75.7278 79.6245-75.7278L33.6317-75.7278C22.9309-75.7278 16.084-68.9557 16.084-58.4346L16.084-11.9773C16.084-1.41165 22.9309 5.36046 33.6317 5.36046ZM121.94 34.4979C126.526 34.4979 130.122 30.9317 130.122 26.3619L130.122-96.7292C130.122-101.254 126.526-104.821 121.94-104.821C117.274-104.821 113.683-101.254 113.683-96.7292L113.683 26.3619C113.683 30.9317 117.274 34.4979 121.94 34.4979ZM164.175 5.36046L210.198 5.36046C220.899 5.36046 227.746-1.41165 227.746-11.9773L227.746-58.4346C227.746-68.9557 220.899-75.7278 210.198-75.7278L164.175-75.7278C153.474-75.7278 146.627-68.9557 146.627-58.4346L146.627-11.9773C146.627-1.41165 153.474 5.36046 164.175 5.36046Z"/>
</svg>