<svg xmlns="http://www.w3.org/2000/svg" viewBox="16.084 -95.939 121.37 121.4">
  <path d="M38.8315 25.46L114.705 25.46C129.348 25.46 137.453 17.3442 137.453 2.80309L137.453-73.2821C137.453-87.8232 129.348-95.939 114.705-95.939L38.8315-95.939C24.2188-95.939 16.084-87.8344 16.084-73.2821L16.084 2.80309C16.084 17.3554 24.2188 25.46 38.8315 25.46ZM40.9557 7.92943C36.118 7.92943 33.5844 5.63471 33.5844 0.527938L33.5844-71.007C33.5844-76.1439 36.118-78.4085 40.9557-78.4085L112.581-78.4085C117.396-78.4085 119.952-76.1439 119.952-71.007L119.952 0.527938C119.952 5.63471 117.396 7.92943 112.581 7.92943ZM58.1054-8.12108L92.4295-8.12108C95.4179-8.12108 97.5302-9.99213 97.5302-12.956C97.5302-16.1072 95.1502-17.7909 92.4295-17.7909L68.9994-17.7909L68.9994-18.1382C73.0329-20.2788 74.755-24.8913 74.755-29.59C74.755-30.6282 74.6912-31.5801 74.4897-32.381L88.4346-32.381C90.3796-32.381 91.7799-33.6563 91.7799-35.4015C91.7799-37.1768 90.374-38.4219 88.4346-38.4219L73.1071-38.4219C72.4903-40.8591 72.2254-42.4392 72.2254-44.2665C72.2254-50.0985 76.9976-53.1317 83.6858-53.1317C85.645-53.1317 88.0694-52.8491 89.5175-52.5605C90.4168-52.4029 91.4141-52.2565 92.4045-52.2565C94.8864-52.2565 96.5274-53.7591 96.5274-56.0568C96.5274-59.2168 94.0372-60.7127 90.9386-61.4152C88.1847-62.211 85.5441-62.4803 81.7305-62.4803C70.3116-62.4803 60.2918-57.1009 60.2918-45.7209C60.2918-43.3817 60.7452-41.0348 61.4514-38.4219L55.8629-38.4219C53.8487-38.4219 52.5176-37.2158 52.5176-35.4015C52.5176-33.6116 53.8487-32.381 55.8629-32.381L62.795-32.381C63.0712-31.2371 63.2067-30.1545 63.2067-29.1313C63.2067-24.5242 61.1198-20.5572 57.1011-18.4118C55.1213-17.2308 53.1655-15.5473 53.1655-12.9717C53.1655-9.95874 55.3156-8.12108 58.1054-8.12108Z" />
</svg>