<svg xmlns="http://www.w3.org/2000/svg" viewBox="16.084 -103.549 137.7 136.5">
  <path d="M34.1008 18.2242L135.728 18.2242C146.408 18.2242 153.789 10.7496 153.789 0.00186083L153.789-85.3572C153.789-96.0804 146.408-103.549 135.728-103.549L34.1008-103.549C23.4212-103.549 16.084-96.0804 16.084-85.3572L16.084 0.00186083C16.084 10.7496 23.4212 18.2242 34.1008 18.2242ZM35.8155 2.06252C33.712 2.06252 32.2903 0.582627 32.2903-1.62613L32.2903-83.699C32.2903-85.9078 33.712-87.3933 35.8155-87.3933L134.435-87.3933C136.34-87.3933 137.583-86.0863 137.583-84.1453L137.583-1.1799C137.583 0.761118 136.34 2.06252 134.435 2.06252ZM50.8643-67.0935C54.9436-67.0935 58.3795-70.3955 58.3795-74.4893C58.3795-78.6936 54.9436-81.9654 50.8643-81.9654C46.7794-81.9654 43.3881-78.6936 43.3881-74.4893C43.3881-70.3955 46.7794-67.0935 50.8643-67.0935ZM73.6086-67.0935C77.6633-67.0935 81.0847-70.3955 81.0847-74.4893C81.0847-78.6936 77.6633-81.9654 73.6086-81.9654C69.5293-81.9654 66.0632-78.6936 66.0632-74.4893C66.0632-70.3955 69.5293-67.0935 73.6086-67.0935ZM96.2333-67.0935C100.318-67.0935 103.784-70.3955 103.784-74.4893C103.784-78.6936 100.318-81.9654 96.2333-81.9654C92.1842-81.9654 88.7628-78.6936 88.7628-74.4893C88.7628-70.3955 92.1842-67.0935 96.2333-67.0935ZM118.983-67.0935C123.068-67.0935 126.49-70.3955 126.49-74.4893C126.49-78.6936 123.068-81.9654 118.983-81.9654C114.928-81.9654 111.468-78.6936 111.468-74.4893C111.468-70.3955 114.928-67.0935 118.983-67.0935ZM27.7559-51.4105L142.192-51.4105L142.192-62.2648L27.7559-62.2648ZM46.5811-5.02999L123.331-5.02999C126.859-5.02999 129.128-7.30982 129.128-10.8373L129.128-39.4332C129.128-42.9306 126.859-45.2048 123.331-45.2048L46.5811-45.2048C43.0837-45.2048 40.8151-42.9306 40.8151-39.4332L40.8151-10.8373C40.8151-7.30982 43.0837-5.02999 46.5811-5.02999ZM51.5915-14.4239C50.8225-14.4239 50.2091-15.0374 50.2091-15.8176L50.2091-34.869C50.2091-35.6436 50.8225-36.2929 51.5915-36.2929L118.351-36.2929C119.12-36.2929 119.734-35.6436 119.734-34.869L119.734-15.8176C119.734-15.0374 119.12-14.4239 118.351-14.4239ZM39.923 32.9464C44.297 32.9464 47.3346 29.9145 47.3346 25.5405L47.3346 10.6854L32.5115 10.6854L32.5115 25.5405C32.5115 29.9145 35.5793 32.9464 39.923 32.9464ZM129.92 32.9464C134.294 32.9464 137.362 29.9145 137.362 25.5405L137.362 10.6854L122.509 10.6854L122.509 25.5405C122.509 29.9145 125.576 32.9464 129.92 32.9464Z"/>
</svg>