<svg xmlns="http://www.w3.org/2000/svg" viewBox="11.2588 -109.815 149.17 149.09">
  <path d="M85.8332-81.3015C90.2919-81.3015 94.0203-85.0602 94.0203-89.5189L94.0203-101.589C94.0203-106.042 90.2919-109.815 85.8332-109.815C81.3499-109.815 77.6214-106.042 77.6214-101.589L77.6214-89.5189C77.6214-85.0602 81.3499-81.3015 85.8332-81.3015ZM118.431-67.5851C121.529-64.4984 126.893-64.5072 130.054-67.719L138.584-76.2577C141.646-79.35 141.596-84.744 138.45-87.9312C135.352-91.0123 129.988-90.9287 126.857-87.7973L118.297-79.1927C115.24-76.1306 115.291-70.7667 118.431-67.5851ZM131.938-35.2697C131.938-30.8166 135.703-27.0524 140.156-27.0524L152.166-27.0524C156.655-27.0524 160.428-30.8166 160.428-35.2697C160.428-39.7228 156.655-43.487 152.166-43.487L140.156-43.487C135.703-43.487 131.938-39.7228 131.938-35.2697ZM118.297-2.74561C115.246 0.346707 115.285 5.63578 118.431 8.81735L127.035 17.3774C130.122 20.4641 135.486 20.3837 138.673 17.2133C141.73 14.1154 141.691 8.7515 138.539 5.61456L129.935-2.87948C126.848-5.9718 121.484-5.92156 118.297-2.74561ZM85.8332 10.7621C81.3499 10.7621 77.6214 14.5208 77.6214 18.9794L77.6214 31.0496C77.6214 35.5027 81.3499 39.2758 85.8332 39.2758C90.2919 39.2758 94.0203 35.5027 94.0203 31.0496L94.0203 18.9794C94.0203 14.5208 90.2919 10.7621 85.8332 10.7621ZM53.3449-2.74561C50.1577-5.92156 44.7636-5.9718 41.6769-2.87948L33.1326 5.58438C29.9511 8.72132 29.9121 14.0852 32.9686 17.1831C36.1502 20.3535 41.5197 20.4339 44.6064 17.3472L53.1808 8.81735C56.3568 5.63578 56.3958 0.346707 53.3449-2.74561ZM39.7423-35.2697C39.7423-39.7228 35.9692-43.487 31.486-43.487L19.4761-43.487C14.9873-43.487 11.2588-39.7228 11.2588-35.2697C11.2588-30.8166 14.9873-27.0524 19.4761-27.0524L31.486-27.0524C35.9692-27.0524 39.7423-30.8166 39.7423-35.2697ZM53.1808-67.5851C56.3512-70.7365 56.4014-76.1306 53.3449-79.1927L44.815-87.7973C41.7139-90.8985 36.3142-91.0123 33.2521-87.9312C30.0761-84.744 30.0259-79.35 33.088-76.2878L41.5877-67.719C44.719-64.5374 50.0829-64.4984 53.1808-67.5851ZM85.8219-0.443216C105.034-0.443216 120.648-16.0327 120.648-35.2697C120.648-54.5067 105.034-70.0962 85.8219-70.0962C66.585-70.0962 50.9653-54.5067 50.9653-35.2697C50.9653-16.0327 66.585-0.443216 85.8219-0.443216Z" />
</svg>