<svg xmlns="http://www.w3.org/2000/svg" viewBox="11.2588 -102.264 134.02 133.99">
  <path d="M78.2532 31.7248C115.263 31.7248 145.278 1.74009 145.278-35.2697C145.278-72.2795 115.263-102.264 78.2532-102.264C41.2736-102.264 11.2588-72.2795 11.2588-35.2697C11.2588 1.74009 41.2736 31.7248 78.2532 31.7248ZM78.2532 13.9829C51.0308 13.9829 29.0252-8.04727 29.0252-35.2697C29.0252-62.4921 51.0308-84.5223 78.2532-84.5223C105.476-84.5223 127.506-62.4921 127.506-35.2697C127.506-8.04727 105.476 13.9829 78.2532 13.9829ZM48.3542-24.0438L54.1816-24.0438C56.3882-24.0438 58.1625-25.7577 58.1625-27.8291C58.1625-29.9395 56.3826-31.659 54.1816-31.659L48.3542-31.659C46.2035-31.659 44.4337-29.9093 44.4337-27.8291C44.4337-25.7935 46.2035-24.0438 48.3542-24.0438ZM58.6472-40.411C60.2216-38.917 62.6035-38.812 64.093-40.2815C65.6095-41.818 65.5266-44.1942 63.9578-45.7385L59.8326-49.8939C58.2223-51.4796 55.8317-51.4269 54.3868-50.0122C52.9117-48.5014 52.8671-46.0629 54.4829-44.5274ZM78.4015-73.2617C76.3302-73.2617 74.6352-71.4372 74.6352-69.3412L74.6352-60.2745L74.796-58.6794L74.8809-58.4718L72.0161-61.5296C71.2757-62.3736 70.311-63.0825 69.063-63.0825C67.0965-63.0825 65.5368-61.4925 65.5368-59.6009C65.5368-58.4176 66.1796-57.4573 67.0317-56.6053L75.6325-48.4848C76.5615-47.6306 77.4023-47.2453 78.4015-47.2453C79.431-47.2453 80.2718-47.6306 81.2008-48.4848L89.7714-56.6053C90.6593-57.4629 91.2965-58.4176 91.2965-59.6009C91.2965-61.4925 89.7367-63.0825 87.7703-63.0825C86.5335-63.0825 85.5028-62.3849 84.8228-61.5409L82.1692-58.5624L82.0316-58.5944L82.1925-60.2745L82.1925-69.3412C82.1925-71.4372 80.5031-73.2617 78.4015-73.2617ZM92.7705-40.2815C94.26-38.8422 96.6117-38.8868 98.1861-40.411L102.35-44.5274C103.93-46.0629 103.916-48.5014 102.447-50.0122C101.002-51.4873 98.5808-51.4494 97.0007-49.8939L92.8453-45.7385C91.2765-44.164 91.254-41.818 92.7705-40.2815ZM102.621-24.0438L108.479-24.0438C110.68-24.0438 112.4-25.7879 112.4-27.8291C112.4-29.9149 110.68-31.659 108.479-31.659L102.621-31.659C100.495-31.659 98.6708-29.9395 98.6708-27.8291C98.6708-25.7577 100.507-24.0438 102.621-24.0438ZM94.86-26.0287C94.86-35.1001 87.4585-42.5319 78.4015-42.5319C69.405-42.5319 61.9733-35.1001 61.9733-26.0287C61.9733-24.7097 62.1199-23.268 62.5359-22.0329L94.2973-22.0329C94.6832-23.268 94.86-24.7097 94.86-26.0287ZM48.8149-8.86206L108.018-8.86206C110.456-8.86206 112.4-10.8638 112.4-13.2419C112.4-15.6201 110.486-17.6519 108.018-17.6519L48.8149-17.6519C46.3531-17.6519 44.4337-15.5698 44.4337-13.2419C44.4337-10.9084 46.4279-8.86206 48.8149-8.86206Z" />
</svg>