<svg xmlns="http://www.w3.org/2000/svg" viewBox="16.084 -115.536 135.96 143.35">
  <path d="M16.084-94.9911L16.084 12.2565L46.5664 12.2565C45.9826 9.83479 45.6433 7.26475 45.6433 4.63755C45.6433-12.8985 60.0322-27.1736 77.5492-27.1736C95.0016-27.1736 109.316-12.9287 109.316 4.63755C109.316 7.26475 109.021 9.83479 108.407 12.2565L115.197 12.2565C128.766 12.2565 136.397 4.10997 136.397-10.2353L136.397-42.6814C136.397-52.2826 132.787-63.5104 126.804-72.129L123.524-76.857C114.476-89.8773 103.502-95.1519 85.5289-95.1519L27.1361-95.1519C23.1736-95.1519 19.4635-95.0715 16.084-94.9911ZM77.5492 27.8159C90.2771 27.8159 100.677 17.4301 100.677 4.63755C100.677-8.174 90.2771-18.5296 77.5492-18.5296C64.7868-18.5296 54.2816-8.14381 54.2816 4.63755C54.2816 17.4301 64.7566 27.8159 77.5492 27.8159ZM98.9193-89.7344L110.482-80.3452L128.399-98.4751C130.154-100.315 131.724-101.063 134.601-101.063L144.631-101.063C149.092-101.063 152.04-104.129 152.04-108.322C152.04-112.545 149.048-115.536 144.631-115.536L134.638-115.536C126.713-115.536 122.734-113.72 118.423-109.361Z"/>
</svg>