<svg xmlns="http://www.w3.org/2000/svg" viewBox="14.4756 -99.4828 127.4 128.46">
  <path d="M14.4756-45.8335C14.4756-16.1962 38.4931 7.79121 68.1305 7.79121C77.5873 7.79121 86.377 5.26112 93.9741 0.876081L118.098 25.0356C120.773 27.6866 124.387 28.9736 128.08 28.9736C135.967 28.9736 141.871 22.9315 141.871 15.1169C141.871 11.4936 140.579 8.00552 137.924 5.28424L114.039-18.6308C118.937-26.5025 121.75-35.8194 121.75-45.8335C121.75-75.4653 97.7622-99.4828 68.1305-99.4828C38.4931-99.4828 14.4756-75.4653 14.4756-45.8335ZM33.0308-45.8335C33.0308-65.1814 48.777-80.9276 68.1305-80.9276C87.4929-80.9276 103.225-65.1814 103.225-45.8335C103.225-26.5102 87.4929-10.7338 68.1305-10.7338C48.777-10.7338 33.0308-26.5102 33.0308-45.8335ZM52.0973-48.87L84.6716-48.87C87.4855-48.87 89.6394-51.3274 89.6394-53.927C89.6394-56.7855 87.5301-59.0286 84.6716-59.0286L52.0973-59.0286C49.2589-59.0286 47.1295-56.7408 47.1295-53.927C47.1295-51.2828 49.3035-48.87 52.0973-48.87ZM52.0973-32.7634L75.1298-32.7634C77.8934-32.7634 80.0831-35.0959 80.0831-37.7903C80.0831-40.5985 77.938-42.9221 75.1298-42.9221L52.0973-42.9221C49.2589-42.9221 47.1295-40.5539 47.1295-37.7903C47.1295-35.0959 49.3035-32.7634 52.0973-32.7634Z"/>
</svg>