<svg xmlns="http://www.w3.org/2000/svg" viewBox="16.084 -92.9515 152.54 115.54">
  <path d="M38.8315 22.5842L145.872 22.5842C160.515 22.5842 168.619 14.4684 168.619-0.0727135L168.619-37.0943C168.619-46.7123 167.659-50.8998 163.064-56.2015L141.969-81.0261C134.422-89.8684 128.98-92.9515 119.545-92.9515L65.1584-92.9515C55.7536-92.9515 50.2365-89.8237 42.6445-80.9368L21.6691-56.2015C17.0744-50.8998 16.084-46.7123 16.084-37.0943L16.084-0.0727135C16.084 14.4796 24.2188 22.5842 38.8315 22.5842ZM36.4225-45.3461C34.4257-45.3461 34.0046-47.0827 35.0656-48.4151L56.9508-74.9101C59.1891-77.6849 61.6788-79.1293 65.2378-79.1293L119.465-79.1293C123.024-79.1293 125.544-77.6849 127.783-74.9101L149.673-48.4151C150.704-47.0827 150.283-45.3461 148.316-45.3461L109.119-45.3461C105.716-45.3461 104.332-43.3745 104.332-41.1404L104.332-40.9572C104.332-35.1731 99.9454-28.7914 92.3639-28.7914C84.7879-28.7914 80.3715-35.1731 80.3715-40.9572L80.3715-41.1404C80.3715-43.3745 79.0178-45.3461 75.5838-45.3461ZM40.4202 5.05362C35.5825 5.05362 33.0489 2.7589 33.0489-2.34787L33.0489-30.4805L67.1476-30.4805C70.1678-20.3386 79.7939-12.8247 92.3639-12.8247C104.939-12.8247 114.535-20.38 117.556-30.4805L151.654-30.4805L151.654-2.34787C151.654 2.7589 149.098 5.05362 144.283 5.05362Z"/>
</svg>