<svg xmlns="http://www.w3.org/2000/svg" viewBox="16.084 -118.523 166.92 167.62">
  <path d="M16.084-19.0231C16.084-2.8336 27.2618 8.67475 42.9889 8.67475C47.4825 8.67475 52.4116 7.60232 57.5152 5.25521C61.7105 8.55785 70.6019 13.2066 81.553 13.7289C79.5468 4.2747 72.9493-9.19957 68.1694-18.2172C78.4179-18.9113 84.5071-24.1786 87.3602-31.348C90.7603-29.108 94.7866-27.9327 99.5576-27.9327C104.304-27.9327 108.33-29.108 111.755-31.348C114.583-24.1786 120.703-18.9113 130.921-18.2172C126.141-9.19957 119.544 4.2747 117.538 13.7289C128.489 13.2066 137.38 8.55785 141.606 5.25521C146.709 7.60232 151.608 8.67475 156.102 8.67475C171.853 8.67475 183.007-2.8336 183.007-19.0231C183.007-26.5615 180.074-34.5486 173.556-41.7741C178.632-47.7273 180.73-54.7438 180.73-61.3813C180.73-76.6493 169.51-90.9762 154.817-93.6956C152.881-108.453 136.289-118.523 120.775-118.523C112.856-118.523 105.341-116.185 99.5576-110.723C93.7499-116.185 86.2343-118.523 78.3152-118.523C62.8012-118.523 46.2091-108.453 44.273-93.6956C29.5803-90.9762 18.3603-76.6493 18.3603-61.3813C18.3603-54.7438 20.4883-47.7273 25.5344-41.7741C19.0162-34.5486 16.084-26.5615 16.084-19.0231ZM99.5576 49.0929C106.054 49.0929 110.324 46.5729 110.324 43.1125C110.324 38.9758 109.204 26.927 109.204 18.7756C109.204 6.05056 121.963-18.0909 128.106-29.5829L118.756-35.0638C113.261-25.0422 109.941-19.1543 105.256-8.97882L105.105-33.5074L93.7741-33.7488L93.8344-8.90401C89.1796-19.0795 85.6483-25.3831 80.6007-34.2243L72.2009-26.9077C77.1214-18.0909 89.8867 6.05056 89.8867 18.7756C89.8867 26.927 88.7664 38.9758 88.7664 43.1125C88.7664 46.5729 93.0671 49.0929 99.5576 49.0929Z"/>
</svg>