<svg xmlns="http://www.w3.org/2000/svg" viewBox="16.084 -95.939 121.37 121.4">
  <path d="M38.8315 25.46L114.705 25.46C129.348 25.46 137.453 17.3442 137.453 2.80309L137.453-73.2821C137.453-87.8232 129.348-95.939 114.705-95.939L38.8315-95.939C24.2188-95.939 16.084-87.8344 16.084-73.2821L16.084 2.80309C16.084 17.3554 24.2188 25.46 38.8315 25.46ZM40.9557 7.92943C36.118 7.92943 33.5844 5.63471 33.5844 0.527938L33.5844-71.007C33.5844-76.1439 36.118-78.4085 40.9557-78.4085L112.581-78.4085C117.396-78.4085 119.952-76.1439 119.952-71.007L119.952 0.527938C119.952 5.63471 117.396 7.92943 112.581 7.92943ZM76.7835-6.21748C79.875-6.21748 82.6944-7.8232 82.6944-12.2176L82.6944-51.4266L95.7068-51.4266C98.6129-51.4266 100.674-53.319 100.674-56.2772C100.674-59.2122 98.6273-61.1335 95.7068-61.1335L57.8357-61.1335C54.9095-61.1335 52.7884-59.1676 52.7884-56.2772C52.7884-53.3925 54.9397-51.4266 57.8357-51.4266L70.8179-51.4266L70.8179-12.2176C70.8179-7.8232 73.653-6.21748 76.7835-6.21748ZM61.8609-27.8502C62.1625-27.8502 62.4697-27.9307 62.8015-28.0111L92.1272-38.824C93.0164-39.1558 93.462-39.7622 93.462-40.6703C93.462-41.7462 92.7091-42.4865 91.7262-42.4865C91.4246-42.4865 91.1174-42.4061 90.7855-42.2955L61.4598-31.4826C60.5461-31.1452 60.0949-30.5085 60.0949-29.6608C60.0949-28.679 60.8253-27.8502 61.8609-27.8502ZM61.8609-16.8201C62.1625-16.8201 62.4697-16.9005 62.8015-17.0111L92.1272-27.7793C93.0164-28.1168 93.462-28.7232 93.462-29.6011C93.462-30.7016 92.7091-31.4419 91.7262-31.4419C91.4246-31.4419 91.1174-31.3615 90.7855-31.2509L61.4598-20.4826C60.5461-20.1452 60.0949-19.4639 60.0949-18.5916C60.0949-17.6344 60.8253-16.8201 61.8609-16.8201Z" />
</svg>