<svg xmlns="http://www.w3.org/2000/svg" viewBox="11.2588 -102.264 134.02 133.99">
  <path d="M78.2532 31.7248C115.252 31.7248 145.278 1.69868 145.278-35.2697C145.278-72.2381 115.252-102.264 78.2532-102.264C41.2849-102.264 11.2588-72.2381 11.2588-35.2697C11.2588 1.69868 41.2849 31.7248 78.2532 31.7248ZM50.2765-12.8473C44.726-12.8473 41.0425-16.4862 41.0425-21.9732L41.0425-55.7764C41.0425-61.2489 44.726-64.8934 50.2765-64.8934L106.15-64.8934C111.676-64.8934 115.419-61.2489 115.419-55.7764L115.419-21.9732C115.419-16.4862 111.676-12.8473 106.15-12.8473ZM53.2124-22.4562L103.249-22.4562C104.595-22.4562 105.506-23.3726 105.506-24.6991L105.506-53.0114C105.506-54.3927 104.595-55.2789 103.249-55.2789L53.2124-55.2789C51.8669-55.2789 50.9561-54.3927 50.9561-53.0114L50.9561-24.6991C50.9561-23.3726 51.8669-22.4562 53.2124-22.4562ZM60.8683 2.01228C58.0941 2.01228 56.1157 0.0640199 56.1157-2.71011C56.1157-5.48986 58.0941-7.4683 60.8683-7.4683L95.7232-7.4683C98.4583-7.4683 100.407-5.48986 100.407-2.71011C100.407 0.0640199 98.4583 2.01228 95.7232 2.01228Z"/>
</svg>