<svg xmlns="http://www.w3.org/2000/svg" viewBox="16.084 -115.612 164.8 149.21">
  <path d="M160.768-103.857L60.9032-103.857L77.4219-87.344L158.816-87.344C162.409-87.344 164.369-85.5628 164.369-81.7969L164.369-12.0641C164.369-8.49115 162.588-6.69547 159.396-6.56161L158.167-6.56161L171.742 7.04878L171.924 7.04878C177.733 3.97118 180.888-1.97082 180.888-10.1184L180.888-83.7426C180.888-96.3625 173.393-103.857 160.768-103.857ZM36.2041 10.0263L131.907 10.0263L115.37-6.51698L38.1555-6.51698C34.5624-6.51698 32.6027-8.26804 32.6027-12.0641L32.6027-81.7969C32.6027-84.1366 33.4718-85.7022 35.0949-86.3899L35.5279-86.3899L22.8178-99.1604L22.6529-99.1604C18.4002-95.8784 16.084-90.6487 16.084-83.7426L16.084-10.1184C16.084 2.50152 23.5786 10.0263 36.2041 10.0263ZM65.0105 33.6026L131.961 33.6026C135.958 33.6026 139.111 30.277 139.111 26.5035C139.111 22.7355 135.958 19.3741 131.961 19.3741L65.0105 19.3741C61.0138 19.3741 57.8611 22.7355 57.8611 26.5035C57.8611 30.277 61.0138 33.6026 65.0105 33.6026ZM159.485 23.7916C161.589 25.9009 165.031 25.8116 167.071 23.7469C169.156 21.6678 169.181 18.2643 167.071 16.1606L37.4867-113.491C35.3886-115.595 31.9461-115.612 29.8256-113.491C27.791-111.462 27.791-107.934 29.8256-105.905Z"/>
</svg>