<svg xmlns="http://www.w3.org/2000/svg" viewBox="11.2588 -102.184 134.02 133.99">
  <path d="M78.2532 31.8052C115.252 31.8052 145.278 1.7791 145.278-35.1893C145.278-72.1577 115.252-102.184 78.2532-102.184C41.2849-102.184 11.2588-72.1577 11.2588-35.1893C11.2588 1.7791 41.2849 31.8052 78.2532 31.8052ZM61.3706-0.930198C54.455-0.930198 51.5869-4.82778 50.469-11.7289L46.175-39.2607L110.362-39.2607L106.068-11.7289C104.95-4.839 102.082-0.930198 95.1661-0.930198ZM70.0594-9.0309C70.9605-9.0309 71.6675-9.28229 72.3117-9.88184L78.2231-15.9383L84.1948-9.88184C84.8692-9.31248 85.5459-9.0309 86.4773-9.0309C88.2281-9.0309 89.72-10.4279 89.72-12.2536C89.72-13.1937 89.3794-13.7813 88.7742-14.4612L82.8572-20.4028L88.7742-26.311C89.49-27.0268 89.7502-27.6923 89.7502-28.6023C89.7502-30.4493 88.2941-31.8696 86.4773-31.8696C85.5761-31.8696 84.905-31.5145 84.225-30.8792L78.2231-24.8929L72.2815-30.8792C71.6317-31.5145 70.9605-31.8394 70.0594-31.8394C68.2426-31.8394 66.7865-30.4135 66.7865-28.6023C66.7865-27.6677 67.0825-26.991 67.7625-26.311L73.6739-20.4028L67.7625-14.4612C67.1271-13.7813 66.7865-13.1937 66.7865-12.2536C66.7865-10.4279 68.2426-9.0309 70.0594-9.0309ZM44.2509-44.6872C40.6353-44.6872 38.3939-46.9021 38.3939-50.705L38.3939-54.5271C38.3939-58.3156 40.6957-60.4714 44.2509-60.4714L112.286-60.4714C115.946-60.4714 118.143-58.3156 118.143-54.5271L118.143-50.705C118.143-46.9021 115.946-44.6872 112.286-44.6872Z"/>
</svg>