<svg xmlns="http://www.w3.org/2000/svg" viewBox="16.084 -94.0051 117.51 117.56">
  <path d="M36.6517 23.5524L113.03 23.5524C126.507 23.5524 133.598 16.4246 133.598 3.11475L133.598-73.5674C133.598-86.8772 126.507-94.0051 113.03-94.0051L36.6517-94.0051C23.2182-94.0051 16.084-86.9142 16.084-73.5674L16.084 3.11475C16.084 16.4615 23.2182 23.5524 36.6517 23.5524ZM37.6298 11.1759C31.6387 11.1759 28.4171 8.11539 28.4171 1.91986L28.4171-72.3725C28.4171-78.6114 31.6387-81.6286 37.6298-81.6286L112.052-81.6286C117.97-81.6286 121.265-78.6114 121.265-72.3725L121.265 1.91986C121.265 8.11539 117.97 11.1759 112.052 11.1759ZM55.4491-9.04048C67.7546-9.04048 71.3502-23.0934 71.3502-35.2697C71.3502-47.446 67.7546-61.4989 55.4491-61.4989C43.1251-61.4989 39.5295-47.446 39.5295-35.2697C39.5295-23.0934 43.1251-9.04048 55.4491-9.04048ZM55.4491-16.537C50.4553-16.537 48.7907-24.9305 48.7907-35.2697C48.7907-45.6089 50.4553-54.0024 55.4491-54.0024C60.4244-54.0024 62.1075-45.6089 62.1075-35.2697C62.1075-24.9305 60.4244-16.537 55.4491-16.537ZM100.816-9.48595C103.212-9.48595 105.143-10.9651 105.143-13.9989L105.143-20.0429L107.169-20.0429C109.72-20.0429 110.785-21.6649 110.785-23.72C110.785-25.8618 109.658-27.3786 107.188-27.3786L105.143-27.3786L105.143-54.2003C105.143-58.6383 102.265-60.9665 98.129-60.9665C93.195-60.9665 91.2326-57.9518 89.5056-53.8104L79.237-31.1358C78.3147-28.8454 77.9124-27.1121 77.9124-25.1993C77.9124-22.0238 79.9304-20.0429 83.1986-20.0429L96.4267-20.0429L96.4267-13.9989C96.4267-10.7918 98.6618-9.48595 100.816-9.48595ZM96.6496-27.1556L85.6131-27.1556L85.6131-27.5642L96.4084-53.1555L96.6496-53.1555Z" />
</svg>