<svg xmlns="http://www.w3.org/2000/svg" viewBox="11.2588 -100.266 130.04 129.99">
  <path d="M76.2549 29.7265C112.162 29.7265 141.294 0.637211 141.294-35.2697C141.294-71.1766 112.162-100.266 76.2549-100.266C40.3914-100.266 11.2588-71.1766 11.2588-35.2697C11.2588 0.637211 40.3914 29.7265 76.2549 29.7265ZM76.2549 17.0464C47.3321 17.0464 23.9637-6.34682 23.9637-35.2697C23.9637-64.1926 47.3321-87.5858 76.2549-87.5858C105.178-87.5858 128.571-64.1926 128.571-35.2697C128.571-6.34682 105.178 17.0464 76.2549 17.0464ZM48.0003-10.2966L69.0949-10.2966C71.4225-10.2966 72.6914-11.8689 72.6914-13.9551C72.6914-16.1652 71.3792-17.6941 69.0949-17.6941L54.8345-17.6941L54.8345-18.1211L63.7011-29.5083C69.3938-36.6294 71.77-41.2381 71.77-47.0104C71.77-55.5916 66.0952-61.4804 57.5636-61.4804C49.7064-61.4804 43.7783-55.1028 43.7783-48.4962C43.7783-46.193 45.1033-44.4722 47.5545-44.4722C49.5726-44.4722 50.9035-45.4255 51.5599-47.5551C52.5686-51.524 54.0396-54.2068 57.5387-54.2068C61.3219-54.2068 63.1276-50.7393 63.1276-46.6389C63.1276-41.8692 60.0449-37.1728 56.5134-32.5782L46.0199-19.0008C44.6393-17.2179 43.7351-15.7631 43.7351-13.9552C43.7351-11.7701 45.1463-10.2966 48.0003-10.2966ZM93.991-9.18275C102.913-9.18275 109.577-14.7748 109.577-23.9925C109.577-31.2189 105.388-35.3497 99.9513-35.9497L99.9513-36.1725C105.141-37.5334 108.105-42.3705 108.105-47.8082C108.105-56.2534 101.947-61.2514 93.7126-61.2514C87.3592-61.2514 81.9072-57.744 80.1502-52.1331C79.8101-50.9889 79.6677-49.863 79.6677-48.8047C79.6677-46.8487 80.9182-45.1091 83.5306-45.1091C85.5856-45.1091 86.9974-45.9196 87.6102-48.0674C88.4517-51.4744 90.2754-53.9777 93.7498-53.9777C97.6452-53.9777 99.4871-50.7253 99.4871-46.8115C99.4871-42.5076 97.138-39.1005 92.5988-39.1005L91.1903-39.1005C88.968-39.1005 87.7174-37.7636 87.7174-35.7455C87.7174-33.7087 89.0049-32.4771 91.1903-32.4771L92.6793-32.4771C97.7996-32.4771 100.569-29.6263 100.569-24.3581C100.569-20.2031 98.4549-16.5182 93.9909-16.5182C89.8237-16.5182 87.8334-19.3989 87.0847-22.2487C86.4346-24.3283 85.0911-25.4239 83.03-25.4239C80.5289-25.4239 78.9008-23.901 78.9008-21.3815C78.9008-20.311 79.0801-19.1112 79.4018-18.1028C81.1773-12.436 87.2478-9.18275 93.991-9.18275Z" />
</svg>