<svg xmlns="http://www.w3.org/2000/svg" viewBox="16.084 -93.9496 128.65 117.56">
  <path d="M36.6517 23.608L124.163 23.608C137.658 23.608 144.73 16.4801 144.73 3.17029L144.73-73.5119C144.73-86.8217 137.658-93.9496 124.163-93.9496L36.6517-93.9496C23.2182-93.9496 16.084-86.8587 16.084-73.5119L16.084 3.17029C16.084 16.5171 23.2182 23.608 36.6517 23.608ZM36.936 11.2314C31.3785 11.2314 28.4171 8.43112 28.4171 2.66924L28.4171-54.3593C28.4171-60.1211 31.3785-62.94 36.936-62.94L123.835-62.94C129.319-62.94 132.416-60.1211 132.416-54.3593L132.416 2.66924C132.416 8.43112 129.319 11.2314 123.835 11.2314ZM51.7925-0.723362L72.9303-0.723362C75.258-0.723362 76.4835-2.29563 76.4835-4.40035C76.4835-6.5919 75.2331-8.12079 72.9303-8.12079L58.6266-8.12079L58.6266-8.54787L67.5365-19.935C73.1859-27.0561 75.5621-31.6649 75.5621-37.4371C75.5621-46.0183 69.8873-51.9071 61.3557-51.9071C53.5418-51.9071 47.5705-45.5295 47.5705-38.9229C47.5705-36.6382 48.9139-34.899 51.3466-34.899C53.3647-34.899 54.7575-35.8707 55.3521-37.9818C56.3607-41.9507 57.8936-44.6335 61.3309-44.6335C65.1141-44.6335 66.9197-41.1845 66.9197-37.0656C66.9197-32.3144 63.8555-27.5995 60.3055-23.0049L49.8553-9.42755C48.4315-7.64467 47.5272-6.1898 47.5272-4.40044C47.5272-2.19681 49.0003-0.723362 51.7925-0.723362ZM97.8212 0.532796C107.43 0.532796 112.553-7.63252 112.553-17.3646C112.553-25.5859 108.816-33.6956 100.824-33.6956C96.9881-33.6956 93.8031-31.7219 92.3684-28.2958L92.0837-28.2958L93.0419-43.2101L107.144-43.2101C109.391-43.2101 110.679-44.8135 110.679-46.9305C110.679-49.0785 109.273-50.6076 107.144-50.6076L90.3669-50.6076C87.1546-50.6076 85.7309-48.534 85.5267-45.3401L84.5437-28.4504C84.4819-27.6154 84.4448-26.5084 84.4448-25.7843C84.4448-23.203 85.8127-21.2343 88.586-21.2343C90.3436-21.2343 91.2783-21.8774 92.4731-23.5857C93.747-25.5823 95.3169-27.0908 97.7219-27.0908C102.056-27.0908 103.749-21.643 103.749-17.1417C103.749-12.2507 102.069-6.82127 97.6602-6.82127C94.3711-6.82127 92.3995-9.34302 91.4591-12.558C90.7223-14.6125 89.3233-15.6092 87.5776-15.6092C85.2625-15.6092 83.8387-14.105 83.8387-11.7898C83.8387-10.5888 84.1481-9.33874 84.5877-8.24928C86.5123-3.1035 91.8583 0.532796 97.8212 0.532796Z"/>
</svg>