<svg xmlns="http://www.w3.org/2000/svg" viewBox="11.2588 -100.266 130.04 129.99">
  <path d="M76.2549 29.7265C112.162 29.7265 141.294 0.637211 141.294-35.2697C141.294-71.1766 112.162-100.266 76.2549-100.266C40.3914-100.266 11.2588-71.1766 11.2588-35.2697C11.2588 0.637211 40.3914 29.7265 76.2549 29.7265ZM76.2549 17.0464C47.3321 17.0464 23.9637-6.34682 23.9637-35.2697C23.9637-64.1926 47.3321-87.5858 76.2549-87.5858C105.178-87.5858 128.571-64.1926 128.571-35.2697C128.571-6.34682 105.178 17.0464 76.2549 17.0464ZM75.9206-5.74802C89.1426-5.74802 97.9284-13.704 97.9284-25.9045C97.9284-36.9105 90.2138-44.3959 78.9723-44.3959C73.7204-44.3959 68.5056-42.1322 66.2302-38.7866L65.6546-38.7866L66.9839-54.6018L91.0394-54.6018C93.8251-54.6018 95.6514-56.3351 95.6514-58.9849C95.6514-61.6717 93.8622-63.3678 91.0394-63.3678L64.8362-63.3678C60.6697-63.3678 57.9391-60.8667 57.6544-57.0409L56.1209-37.0547C55.8361-33.0242 58.1391-30.5478 62.2871-30.5478C64.7202-30.5478 66.1443-31.1359 68.2248-32.5969C71.0686-35.0188 73.3619-36.0076 76.5887-36.0076C82.5738-36.0076 86.6421-31.8093 86.6421-25.6507C86.6421-19.4489 81.992-14.8608 75.7281-14.8608C70.819-14.8608 66.9119-17.222 65.0119-20.9255C63.8663-22.5596 62.3805-23.4943 60.1273-23.4943C57.0997-23.4943 55.1868-21.6555 55.1868-18.9377C55.1868-17.8976 55.4344-16.9565 55.8245-16.0154C58.1823-9.79262 65.4955-5.74802 75.9206-5.74802Z" />
</svg>