<svg xmlns="http://www.w3.org/2000/svg" viewBox="16.084 -87.1291 226.04 104.24">
  <path d="M105.345-22.3571C107.599-22.3571 108.787-23.5522 109.214-25.9851L110.085-30.0551L117.85-30.0551L118.863-25.9046C119.308-23.5025 120.516-22.3571 122.707-22.3571C124.93-22.3571 126.416-23.9916 126.416-26.1274C126.416-26.9818 126.255-27.7186 126.05-28.6348L120.059-53.7919C119.267-57.2153 117.094-58.5275 113.905-58.5275C110.767-58.5275 108.73-57.0419 107.999-53.7919L102.07-28.6348C101.847-27.6379 101.705-26.8083 101.705-26.1274C101.705-23.7004 103.209-22.3571 105.345-22.3571ZM111.056-35.7502L113.763-49.6447L114.029-49.6447L116.86-35.7502ZM134.948-22.3571C137.369-22.3571 138.898-23.911 138.898-26.4491L138.898-54.417C138.898-56.98 137.369-58.5275 134.948-58.5275C132.465-58.5275 131.017-56.98 131.017-54.417L131.017-26.4491C131.017-23.911 132.465-22.3571 134.948-22.3571ZM148.58-22.4189C151.019-22.4189 152.468-23.9296 152.468-26.4491L152.468-35.7477L155.123-35.7477L158.665-25.6633C159.358-23.583 160.479-22.4189 162.522-22.4189C164.837-22.4189 166.397-23.8243 166.397-25.9724C166.397-26.6472 166.118-27.6068 165.852-28.393L162.366-37.4129C165.402-39.2381 166.651-43.3211 166.651-46.7414C166.651-53.6522 162.977-58.0449 155.384-58.0449L148.58-58.0449C146.184-58.0449 144.649-56.5902 144.649-53.9344L144.649-26.4491C144.649-23.9295 146.06-22.4189 148.58-22.4189ZM152.468-41.1763L152.468-52.0651L154.734-52.0651C157.367-52.0651 158.671-49.3188 158.671-46.6424C158.671-43.8423 157.404-41.2133 154.734-41.1948ZM33.2006 2.75725L53.7931 2.75725L53.7931-9.40882L34.569-9.40882C30.6-9.40882 28.2685-11.9756 28.2685-16.4956L28.2685-25.4516C28.2685-36.2933 35.0852-42.1196 50.5913-44.0494L76.4391-47.2913L103.908-64.4096C117.635-72.9835 125.584-74.9197 149.642-74.9197L199.703-74.9197C210.392-74.9197 216.217-72.1367 221.197-65.0296L224.055-60.9282C227.791-55.467 229.938-49.0885 229.938-43.2624L229.938-16.2859C229.938-11.6226 227.978-9.40882 223.656-9.40882L208.805-9.40882L208.805 2.75725L225.396 2.75725C236.51 2.75725 242.122-3.38158 242.122-15.3823L242.122-43.2624C242.122-51.3112 239.146-60.4879 234.098-67.8191L231.239-71.9825C223.882-82.7182 214.59-87.1291 199.703-87.1291L149.642-87.1291C123.528-87.1291 113.004-84.5924 97.4132-74.7925L72.2724-59.0548L49.0867-56.1968C27.1902-53.4992 16.084-43.253 16.084-25.4516L16.084-14.7429C16.084-3.58001 22.5204 2.75725 33.2006 2.75725ZM81.0741 2.75725L180.293 2.75725L180.293-9.40882L81.0741-9.40882ZM67.3375 17.1099C79.9287 17.1099 89.9213 7.11719 89.9213-5.51735C89.9213-18.1706 79.9287-28.1817 67.3375-28.1817C54.7029-28.1817 44.6917-18.1706 44.6917-5.51735C44.6917 7.11719 54.7029 17.1099 67.3375 17.1099ZM67.3375 5.51335C61.1668 5.51335 56.3562 0.727679 56.3562-5.44306C56.3562-11.6138 61.1668-16.381 67.3375-16.381C73.4897-16.381 78.2939-11.6138 78.2939-5.44306C78.2939 0.727679 73.4897 5.51335 67.3375 5.51335ZM194.11 17.1099C206.726 17.1099 216.737 7.11719 216.737-5.51735C216.737-18.1706 206.726-28.1817 194.11-28.1817C181.5-28.1817 171.507-18.1706 171.507-5.51735C171.507 7.11719 181.5 17.1099 194.11 17.1099ZM194.11 5.51335C187.982 5.51335 183.153 0.727679 183.153-5.44306C183.153-11.6138 187.982-16.381 194.11-16.381C200.243-16.381 205.091-11.6138 205.091-5.44306C205.091 0.727679 200.243 5.51335 194.11 5.51335Z"/>
</svg>