<svg xmlns="http://www.w3.org/2000/svg" viewBox="11.2588 -100.185 130.04 129.99">
  <path d="M76.2549 29.8069C112.125 29.8069 141.294 0.637302 141.294-35.1893C141.294-71.0159 112.125-100.185 76.2549-100.185C40.4284-100.185 11.2588-71.0159 11.2588-35.1893C11.2588 0.637302 40.4284 29.8069 76.2549 29.8069ZM62.0339-8.54642C60.3381-8.54642 59.1066-9.28886 57.4351-10.818L31.3693-35.1335C30.0215-36.4258 29.6006-37.7686 29.6006-38.9752C29.6006-40.2809 30.0215-41.5184 31.3508-42.8169L57.4351-67.0642C59.1871-68.6738 60.3691-69.404 61.9905-69.404C64.2744-69.404 65.8404-68.018 66.1005-66.4216L66.1005-64.5784L45.9114-46.0723C43.7093-44.0559 42.5396-41.5558 42.5396-38.9752C42.5396-36.3513 43.6723-33.851 45.9114-31.8596L66.1005-13.3038L66.1005-11.3987C65.8404-9.88912 64.2744-8.54642 62.0339-8.54642ZM79.6767-8.54642C78.0862-8.54642 76.706-9.2518 75.0593-10.818L49.0369-35.1335C47.6829-36.4321 47.1814-37.7686 47.1814-38.9752C47.1814-40.2809 47.6457-41.4564 49.0369-42.8169L75.0593-67.0642C76.8113-68.6304 78.0181-69.404 79.6334-69.404C82.1338-69.404 83.9476-67.3863 83.9476-64.9662L83.9476-52.9204L84.8065-52.9204C106.892-52.9204 117.88-39.0666 117.88-14.9284C117.88-10.8738 116.345-8.71357 114.036-8.71357C112.279-8.71357 110.713-9.35694 109.561-11.6034C104.81-21.0787 97.2411-24.8077 84.8065-24.8077L83.9476-24.8077L83.9476-12.8541C83.9476-10.3907 82.1338-8.54642 79.6767-8.54642Z"/>
</svg>