<svg xmlns="http://www.w3.org/2000/svg" viewBox="16.084 -110.304 229.74 149.92">
  <path d="M108.846-40.2621L152.94-40.2621C160.477-40.2621 165.948-45.7886 165.948-53.493L165.948-97.0295C165.948-104.734 160.477-110.304 152.94-110.304L108.846-110.304C101.334-110.304 95.9433-104.734 95.9433-97.0295L95.9433-53.493C95.9433-45.7886 101.334-40.2621 108.846-40.2621ZM109.31-50.4711C107.506-50.4711 106.19-51.8309 106.19-53.6788L106.19-96.8437C106.19-98.7349 107.506-100.095 109.31-100.095L152.55-100.095C154.398-100.095 155.733-98.7349 155.733-96.8437L155.733-53.6788C155.733-51.8309 154.398-50.4711 152.55-50.4711ZM117.176-60.4088L144.74-60.4088C147.538-60.4088 149.104-63.584 147.569-66.1526L134.111-88.7953C132.663-91.2523 129.061-91.2523 127.613-88.752L114.26-66.1526C112.769-63.5284 114.335-60.4088 117.176-60.4088ZM28.9868 39.6158L73.124 39.6158C80.618 39.6158 86.0887 34.0893 86.0887 26.3848L86.0887-17.1516C86.0887-24.856 80.618-30.4259 73.124-30.4259L28.9868-30.4259C21.4743-30.4259 16.084-24.856 16.084-17.1516L16.084 26.3848C16.084 34.0893 21.4743 39.6158 28.9868 39.6158ZM29.414 29.4067C27.6095 29.4067 26.2931 28.0469 26.2931 26.1991L26.2931-16.9659C26.2931-18.857 27.6095-20.2169 29.414-20.2169L72.6968-20.2169C74.5198-20.2169 75.8796-18.857 75.8796-16.9659L75.8796 26.1991C75.8796 28.0469 74.5198 29.4067 72.6968 29.4067ZM64.4579 18.3275L64.4579-9.21811C64.4579-12.0343 61.3198-13.6003 58.6956-12.0903L36.0529 1.33034C33.5959 2.82181 33.6392 6.44263 36.0962 7.84737L58.6956 21.2616C61.2827 22.7716 64.4579 21.2056 64.4579 18.3275ZM108.846 39.6158L152.94 39.6158C160.477 39.6158 165.948 34.0893 165.948 26.3848L165.948-17.1516C165.948-24.856 160.477-30.4259 152.94-30.4259L108.846-30.4259C101.334-30.4259 95.9433-24.856 95.9433-17.1516L95.9433 26.3848C95.9433 34.0893 101.334 39.6158 108.846 39.6158ZM109.31 29.4067C107.506 29.4067 106.19 28.0469 106.19 26.1991L106.19-16.9659C106.19-18.857 107.506-20.2169 109.31-20.2169L152.55-20.2169C154.398-20.2169 155.733-18.857 155.733-16.9659L155.733 26.1991C155.733 28.0469 154.398 29.4067 152.55 29.4067ZM127.613 18.064C129.104 20.5643 132.663 20.5643 134.111 18.1074L147.569-4.53535C149.147-7.10403 147.538-10.2792 144.74-10.2792L117.194-10.2792C114.335-10.2792 112.787-7.15957 114.26-4.53535ZM188.767 39.6158L232.861 39.6158C240.398 39.6158 245.826 34.0893 245.826 26.3848L245.826-17.1516C245.826-24.856 240.398-30.4259 232.861-30.4259L188.767-30.4259C181.211-30.4259 175.821-24.856 175.821-17.1516L175.821 26.3848C175.821 34.0893 181.211 39.6158 188.767 39.6158ZM189.194 29.4067C187.39 29.4067 186.03 28.0469 186.03 26.1991L186.03-16.9659C186.03-18.857 187.39-20.2169 189.194-20.2169L232.434-20.2169C234.282-20.2169 235.573-18.857 235.573-16.9659L235.573 26.1991C235.573 28.0469 234.282 29.4067 232.434 29.4067ZM197.39 18.3275C197.39 21.2056 200.565 22.7716 203.196 21.2616L225.752 7.84737C228.252 6.44263 228.295 2.82181 225.795 1.33034L203.196-12.0903C200.528-13.6003 197.39-12.0343 197.39-9.21811Z"/>
</svg>