<svg xmlns="http://www.w3.org/2000/svg" viewBox="16.084 -92.2431 127.26 117.64">
  <path d="M79.7137-5.40512C81.2491-5.40512 82.4872-6.03651 83.8494-7.25634L101.087-23.2122C102.245-24.2272 102.845-25.3665 102.845-26.9693C102.845-29.619 100.765-31.5753 98.0592-31.5753C96.7219-31.5753 95.3351-30.9625 94.5179-29.947L90.3231-25.6162L79.6765-14.3692L69.1662-25.6162L64.9343-29.947C64.055-30.9625 62.6806-31.5753 61.3496-31.5753C58.6193-31.5753 56.5825-29.619 56.5825-26.9693C56.5825-25.3665 57.1825-24.2272 58.3833-23.2122L75.5779-7.25634C76.9216-6.03651 78.1783-5.40512 79.7137-5.40512ZM79.7137-55.7623C76.8162-55.7623 74.3706-53.5893 74.3706-50.6484L74.3706-29.7354L74.9526-16.5791C75.0888-13.9169 77.0515-11.8181 79.7137-11.8181C82.3574-11.8181 84.3385-13.9169 84.5181-16.5791L85.0567-29.7354L85.0567-50.6484C85.0567-53.5893 82.636-55.7623 79.7137-55.7623ZM16.084-52.9558C16.084-26.1924 38.8538 0.212221 73.6289 22.774C75.6345 24.1111 78.0858 25.3926 79.7137 25.3926C81.3848 25.3926 83.7743 24.1111 85.7985 22.774C120.555 0.212221 143.343-26.1924 143.343-52.9558C143.343-76.1573 127.238-92.2431 106.785-92.2431C94.7515-92.2431 85.214-86.6147 79.7137-78.1726C74.2566-86.5713 64.6758-92.2431 52.6424-92.2431C32.1889-92.2431 16.084-76.1573 16.084-52.9558ZM28.9-53.0301C28.9-68.8885 39.4886-79.7242 53.6949-79.7242C64.8175-79.7242 71.2119-73.0433 75.3-66.7987C76.8973-64.4278 78.1043-63.549 79.7137-63.549C81.3663-63.549 82.3876-64.4712 84.1088-66.7987C88.4075-72.9751 94.6532-79.7242 105.776-79.7242C119.964-79.7242 130.527-68.8885 130.527-53.0301C130.527-31.1206 107.924-6.81497 80.8091 11.2391C80.3077 11.5734 79.9549 11.8024 79.7137 11.8024C79.4724 11.8024 79.1196 11.5734 78.6615 11.2391C51.5029-6.81497 28.9-31.1206 28.9-53.0301Z" />
</svg>