<svg xmlns="http://www.w3.org/2000/svg" viewBox="16.084 -94.0051 117.51 117.56">
  <path d="M36.6517 23.5524L113.03 23.5524C126.507 23.5524 133.598 16.4246 133.598 3.11475L133.598-73.5674C133.598-86.8772 126.507-94.0051 113.03-94.0051L36.6517-94.0051C23.2182-94.0051 16.084-86.9142 16.084-73.5674L16.084 3.11475C16.084 16.4615 23.2182 23.5524 36.6517 23.5524ZM37.6298 11.1759C31.6387 11.1759 28.4171 8.11539 28.4171 1.91986L28.4171-72.3725C28.4171-78.6114 31.6387-81.6286 37.6298-81.6286L112.052-81.6286C117.97-81.6286 121.265-78.6114 121.265-72.3725L121.265 1.91986C121.265 8.11539 117.97 11.1759 112.052 11.1759ZM101.426-35.3075C103.946-35.3075 105.995-37.3381 105.995-39.8516L105.995-60.7372C105.995-64.6009 103.934-66.3961 100.318-66.3961L79.4822-66.3961C76.9624-66.3961 74.9132-64.3469 74.9132-61.8271C74.9132-59.3136 76.9624-57.3014 79.4822-57.3014L82.6147-57.3199L91.1308-57.9888L77.7561-45.3384C75.7563-43.4563 75.7687-40.1749 77.7127-38.1938C79.6939-36.2313 82.9071-36.1507 84.8324-38.2372L97.5882-51.7419L96.8574-42.8927L96.8574-39.8516C96.8574-37.3381 98.8881-35.3075 101.426-35.3075ZM70.1319-4.03149C72.6083-4.03149 74.6575-6.08069 74.6575-8.60051C74.6575-11.1574 72.6083-13.1262 70.1319-13.1262L66.9744-13.1077L58.4399-12.4573L71.8579-25.1326C73.8577-27.0146 73.8454-30.2527 71.9013-32.2338C69.9202-34.1963 66.6636-34.2769 64.7382-32.1904L52.001-18.729L52.7132-27.5349L52.7132-30.5945C52.7132-33.1328 50.6825-35.1635 48.1442-35.1635C45.6678-35.1635 43.6186-33.1328 43.6186-30.5945L43.6186-9.69044C43.6186-5.87009 45.6801-4.03149 49.2961-4.03149Z" />
</svg>