<svg xmlns="http://www.w3.org/2000/svg" viewBox="16.0655 -129.447 241.96 184.22">
  <path d="M82.7074 50.942C84.4533 53.8767 88.1496 54.7745 90.8552 53.2328L254.275-41.0641C256.962-42.6492 258.027-46.2836 256.461-49.113C254.678-52.0662 250.981-53.0074 248.276-51.4223L84.8744 42.8746C82.1502 44.4162 81.1038 48.1126 82.7074 50.942ZM53.9487-57.6829C56.5489-57.6829 58.6849-59.8187 58.6849-62.4068C58.6849-63.5582 58.3197-64.6105 57.3476-65.6321C52.7956-70.8769 49.7337-78.4857 49.7337-86.7499C49.7337-105.234 64.3263-119.888 82.7854-119.888C99.7156-119.888 113.928-107.265 115.391-90.0226C117.911-91.9417 120.74-93.8608 123.965-95.8604C120.002-114.85 102.921-129.447 82.7854-129.447C59.4229-129.447 40.1562-110.137 40.1562-86.7314C40.1562-76.3435 43.9735-66.6857 50.0919-59.5649C51.0701-58.4568 52.4568-57.6829 53.9487-57.6829ZM61.1723-102.643C62.7571-101.058 65.32-101.058 66.973-102.624C68.5578-104.234 68.5393-106.797 66.9545-108.382L59.8362-115.457L54.0973-109.674ZM82.7854-109.231C84.9833-109.231 86.8962-111.107 86.8962-113.342L86.8962-123.274L78.7366-123.274L78.7366-113.342C78.7366-111.107 80.5692-109.231 82.7854-109.231ZM98.5978-102.624C100.208-101.058 102.814-101.058 104.38-102.643L111.43-109.674L105.691-115.457L98.6163-108.382C97.0315-106.797 97.013-104.234 98.5978-102.624ZM82.6251-79.2172C86.6297-79.2295 89.4518-82.3798 89.4269-86.2543C89.21-90.2092 86.1156-93.118 82.3093-93.0313C81.5479-92.9445 80.205-92.7403 79.1155-92.4183L58.9082-87.789C57.5339-87.4237 56.8095-86.4825 56.8715-85.3622C56.8963-84.1798 57.6825-83.3253 59.1002-83.0282L79.7156-79.5515C80.7803-79.3596 82.0001-79.2606 82.6251-79.2172ZM19.531-76.677L31.7799-84.5092C33.3953-85.6047 33.4201-87.5356 31.7179-88.6126L19.6177-96.4015C18.0582-97.429 16.1088-96.6548 16.084-94.5696L16.084-78.5027C16.0655-76.4729 18.0085-75.6867 19.531-76.677ZM91.7966 15.5441L94.1404 14.1588C92.9771 12.9338 91.9563 11.5912 91.1149 10.1063C85.0577-0.337517 88.6153-13.4666 99.0591-19.5237C109.546-25.5437 122.613-22.0233 128.652-11.5795C129.512-10.0946 130.155-8.49213 130.657-6.92673L181.965-36.5178C180.845-37.7428 179.824-39.1288 178.939-40.6323C172.9-51.0946 176.439-64.1617 186.927-70.2003C197.352-76.2574 210.481-72.7618 216.495-62.318C217.379-60.8146 218.041-59.2306 218.524-57.6218L220.868-58.9886C230.614-64.6196 232.476-72.292 226.542-82.5887L219.465-94.8125C214.633-103.202 207.516-105.926 197.308-103.902L189.099-102.244C175.506-104.682 158.236-106.476 141.508-96.8254L134.918-93.0261C116.914-82.6322 110.215-76.3101 103.273-63.2065L91.965-41.8026L73.8222-28.1382C62.3318-19.5128 59.257-7.42829 65.4013 3.20827L68.6484 8.86146C74.5206 18.9909 82.0941 21.1317 91.7966 15.5441ZM117.712 12.7776C125.247 8.39761 127.796-0.993323 123.416-8.59031C119.098-16.119 109.645-18.6308 102.11-14.2694C94.5381-9.88938 91.9892-0.455083 96.3073 7.05517C100.706 14.6088 110.14 17.1391 117.712 12.7776ZM205.561-37.9176C213.096-42.2975 215.602-51.7133 211.284-59.2854C206.904-66.839 197.451-69.3259 189.916-65.0079C182.344-60.6279 179.795-51.1936 184.193-43.6215C188.53-36.0678 197.964-33.5809 205.561-37.9176Z"/>
</svg>