<svg xmlns="http://www.w3.org/2000/svg" viewBox="16.084 -89.3905 118.93 107.81">
  <path d="M135.011 4.63194L135.011-88.0454C121.134-86.6659 112.176-83.2755 100.909-76.2161L74.8218-59.841L45.7106-56.2594C27.2587-53.9513 16.2883-42.6708 16.2883-26.5887L16.2883-16.9136C16.2883-2.34128 23.3608 4.63194 37.1224 4.63194L41.4462 4.63194C40.9697 2.47249 40.6728 0.220259 40.6728-2.07524C40.6728-17.6918 53.0907-30.0912 68.7506-30.0912C84.3302-30.0912 96.7666-17.6918 96.7666-2.07524C96.7666 0.220259 96.4696 2.47249 95.9497 4.63194ZM68.7506 18.4151C80.1712 18.4151 89.1976 9.34534 89.1976-2.07524C89.1976-13.471 80.1712-22.5222 68.7506-22.5222C57.3115-22.5222 48.2418-13.471 48.2418-2.07524C48.2418 9.34534 57.3115 18.4151 68.7506 18.4151ZM21.5075-78.7665L41.8648-78.7665C44.6476-78.7665 46.3553-78.0922 47.9883-76.4592L70.2287-54.1818L80.2085-59.7042L55.8508-83.9999C52.1373-87.7751 47.9407-89.3905 41.3567-89.3905L21.5075-89.3905C18.2445-89.3905 16.084-87.1866 16.084-84.1095C16.084-80.9705 18.226-78.7665 21.5075-78.7665Z"/>
</svg>