<svg xmlns="http://www.w3.org/2000/svg" viewBox="11.2588 -100.185 130.04 129.99">
  <path d="M76.2549 29.8069C112.125 29.8069 141.294 0.637302 141.294-35.1893C141.294-71.0159 112.125-100.185 76.2549-100.185C40.4284-100.185 11.2588-71.0159 11.2588-35.1893C11.2588 0.637302 40.4284 29.8069 76.2549 29.8069ZM47.2104-5.60052C43.9856-5.60052 41.7884-7.79775 41.7884-11.1029L41.7884-62.3394C41.7884-64.5308 43.5465-66.3138 45.7008-66.3138C47.8984-66.3138 49.6379-64.5123 49.6379-62.3394L49.6379-43.2009L89.7181-43.2009L89.7181-49.4586C89.7181-51.854 92.219-53.0428 94.4846-51.6871L110.404-42.1112C112.415-40.9661 112.397-38.0506 110.36-36.8622L94.5465-27.2429C92.2871-25.8936 89.7181-27.1378 89.7181-29.5766L89.7181-35.7475L49.6379-35.7475L49.6379-14.2172C49.6379-13.7163 49.9041-13.4501 50.405-13.4501L107.35-13.4501C109.523-13.4501 111.263-11.692 111.263-9.51923C111.263-7.34012 109.504-5.60052 107.35-5.60052Z"/>
</svg>