<svg xmlns="http://www.w3.org/2000/svg" viewBox="16.084 -95.0975 165.62 119.79">
  <path d="M32.435 24.6947L48.1189 24.6947C58.5965 24.6947 64.5318 19.0691 64.5318 8.99452L64.5318-42.7248C64.5318-52.7993 58.5965-58.4249 48.1189-58.4249L32.435-58.4249C21.9574-58.4249 16.084-52.7993 16.084-42.7062L16.084 8.99452C16.084 19.0691 21.9574 24.6947 32.435 24.6947ZM34.3611 13.6248C29.8452 13.6248 27.9218 11.7326 27.9218 7.28504L27.9218-41.0337C27.9218-45.4813 29.8452-47.355 34.3611-47.355L46.2546-47.355C50.7706-47.355 52.694-45.4813 52.694-41.0337L52.694 7.28504C52.694 11.7326 50.7706 13.6248 46.2361 13.6248ZM91.0153 24.6947L106.743 24.6947C117.22 24.6947 123.094 19.0691 123.094 8.99452L123.094-61.0922C123.094-71.1668 117.22-76.749 106.743-76.749L91.0153-76.749C80.5378-76.749 74.6459-71.1668 74.6459-61.0737L74.6459 8.99452C74.6459 19.0691 80.5378 24.6947 91.0153 24.6947ZM92.923 13.6248C88.4071 13.6248 86.527 11.7326 86.527 7.28504L86.527-59.3579C86.527-63.8055 88.4071-65.7225 92.923-65.7225L104.86-65.7225C109.376-65.7225 111.256-63.8055 111.256-59.3579L111.256 7.28504C111.256 11.7326 109.376 13.6248 104.841 13.6248ZM149.621 24.6947L165.305 24.6947C175.782 24.6947 181.699 19.0691 181.699 8.99452L181.699-79.3973C181.699-89.4719 175.782-95.0975 165.305-95.0975L149.621-95.0975C139.143-95.0975 133.27-89.4719 133.27-79.3788L133.27 8.99452C133.27 19.0691 139.143 24.6947 149.621 24.6947ZM151.547 13.6248C147.031 13.6248 145.107 11.7326 145.107 7.28504L145.107-77.7063C145.107-82.1539 147.031-84.0276 151.547-84.0276L163.44-84.0276C167.938-84.0276 169.88-82.1539 169.88-77.7063L169.88 7.28504C169.88 11.7326 167.938 13.6248 163.422 13.6248Z"/>
</svg>