<svg xmlns="http://www.w3.org/2000/svg" viewBox="11.2588 -108.074 146.32 154.44">
  <path d="M41.847-10.6052L120.645-10.6052C141.711-10.6052 157.579-26.5858 157.579-46.5813C157.579-67.0846 141.068-82.4094 119.476-82.4094C111.781-97.6076 97.6629-108.074 78.0594-108.074C53.8882-108.074 34.4006-89.5157 31.938-66.0207C20.2279-62.4817 11.2588-52.4034 11.2588-38.7191C11.2588-23.0718 22.8161-10.6052 41.847-10.6052ZM99.6548 13.3111L85.0332 13.3111L84.9515 16.4245L92.7689 1.36463C93.4927-0.00251173 92.9298-1.08503 91.5256-1.08503L77.5204-1.08503C75.7141-1.08503 75.0707-0.441666 74.5078 0.882107L65.6679 21.0672C65.006 22.6321 65.6799 23.5972 67.3317 23.5972L79.3429 23.5972L79.9428 19.4523L69.7051 44.3012C69.3463 45.1609 69.5442 45.8847 70.1256 46.126C70.7071 46.3672 71.406 46.1879 72.0928 45.4891L100.706 16.4291C102.043 15.0621 101.505 13.3111 99.6548 13.3111ZM28.0356 21.4706C29.998 22.5601 32.332 21.8173 33.4648 19.88L41.7951 5.42698C42.9896 3.46479 42.3953 1.11852 40.433-0.014315C38.4457-1.15355 36.2541-0.484847 35.0658 1.55155L26.6487 16.0913C25.5345 17.9852 26.0299 20.2944 28.0356 21.4706ZM40.2898 39.0826C42.2521 40.1721 44.5861 39.4293 45.6755 37.4919L54.0492 23.0389C55.2004 21.0767 54.6494 18.7305 52.6871 17.5976C50.7183 16.4584 48.5082 17.1271 47.2765 19.1635L38.878 33.7032C37.7886 35.5972 38.3025 37.9064 40.2898 39.0826ZM115.654 21.4706C117.616 22.5601 119.907 21.8173 121.04 19.88L129.413 5.42698C130.565 3.46479 130.014 1.11852 128.051-0.014315C126.064-1.15355 123.873-0.484847 122.641 1.55155L114.224 16.0913C113.153 17.9852 113.605 20.2944 115.654 21.4706ZM127.865 39.0826C129.827 40.1721 132.161 39.4293 133.294 37.4919L141.624 23.0389C142.819 21.0767 142.224 18.7305 140.262 17.5976C138.293 16.4584 136.083 17.1271 134.852 19.1635L126.496 33.7032C125.364 35.5972 125.877 37.9064 127.865 39.0826Z"/>
</svg>