<svg xmlns="http://www.w3.org/2000/svg" viewBox="11.2588 -100.266 130.04 129.99">
  <path d="M76.2549 29.7265C112.125 29.7265 141.294 0.556883 141.294-35.2697C141.294-71.0963 112.125-100.266 76.2549-100.266C40.4284-100.266 11.2588-71.0963 11.2588-35.2697C11.2588 0.556883 40.4284 29.7265 76.2549 29.7265ZM76.8354-6.57492C60.0379-6.57492 51.2952-18.9417 51.2952-35.1516C51.2952-52.0363 60.8056-63.6978 76.6868-63.6978C86.0031-63.6978 94.6213-59.0905 97.9015-50.8383C98.3597-49.7858 98.657-48.5353 98.657-47.6006C98.657-45.2359 96.8863-43.8059 94.6022-43.8059C92.4171-43.8059 91.2904-44.8395 90.4112-46.9381C88.6044-52.4666 83.3722-55.9351 77.1388-55.9351C65.9248-55.9351 60.8595-46.2232 60.8595-35.1702C60.8595-25.2253 64.6623-15.8538 73.7163-14.0775L73.7163-35.2072C73.7163-36.4698 74.5147-37.3302 75.7403-37.3302C76.9658-37.3302 77.7272-36.4698 77.7272-35.2072L77.7272-30.1982L77.9438-30.1982C79.2493-34.5354 83.3205-37.5962 88.5654-37.4291C89.8274-37.3548 91.3238-37.0021 91.9792-36.2412C92.5735-35.4922 92.6725-34.7864 92.3939-34.217C92.1339-33.1151 91.3663-32.713 90.0665-32.713C89.0828-32.713 87.8947-32.7682 86.5348-32.3967C81.3028-31.9881 77.8633-28.0863 77.8633-22.5388L77.8633-13.7866C83.6382-14.028 88.7156-17.076 90.6277-22.9326C91.445-24.9506 92.7264-26.0772 94.924-26.0772C97.3506-26.0772 99.0469-24.7403 99.0469-22.3507C99.0469-21.3476 98.855-20.3699 98.5021-19.4539C95.5501-11.1087 86.5479-6.57492 76.8354-6.57492Z"/>
</svg>