<svg xmlns="http://www.w3.org/2000/svg" viewBox="16.084 -94.0051 117.51 117.56">
  <path d="M36.6517 23.5524L113.03 23.5524C126.507 23.5524 133.598 16.4246 133.598 3.11475L133.598-73.5674C133.598-86.8772 126.507-94.0051 113.03-94.0051L36.6517-94.0051C23.2182-94.0051 16.084-86.9142 16.084-73.5674L16.084 3.11475C16.084 16.4615 23.2182 23.5524 36.6517 23.5524ZM37.6298 11.1759C31.6387 11.1759 28.4171 8.11539 28.4171 1.91986L28.4171-72.3725C28.4171-78.6114 31.6387-81.6286 37.6298-81.6286L112.052-81.6286C117.97-81.6286 121.265-78.6114 121.265-72.3725L121.265 1.91986C121.265 8.11539 117.97 11.1759 112.052 11.1759ZM102.332-52.6107C107.776-52.5303 112.336-57.1085 112.336-62.6951C112.336-68.2632 107.794-72.6991 102.332-72.6991C96.7635-72.6991 92.2039-68.2632 92.2039-62.6951C92.2039-57.1271 96.7635-52.6912 102.332-52.6107ZM74.8998-25.105C80.3441-25.105 84.9037-29.6398 84.9037-35.2697C84.9037-40.7388 80.3255-45.1932 74.8998-45.1932C69.3317-45.1932 64.834-40.7574 64.834-35.2697C64.834-29.6212 69.3131-25.105 74.8998-25.105ZM47.4309 2.34546C52.9186 2.34546 57.4597-2.17086 57.4597-7.73895C57.4597-13.2699 52.9-17.7428 47.4309-17.7428C41.9062-17.7428 37.4084-13.2885 37.4084-7.73895C37.4084-2.15228 41.9062 2.34546 47.4309 2.34546Z"/>
</svg>