<svg xmlns="http://www.w3.org/2000/svg" viewBox="11.2588 -100.266 130.04 129.99">
  <path d="M76.2549 29.7265C112.162 29.7265 141.294 0.637211 141.294-35.2697C141.294-71.1766 112.162-100.266 76.2549-100.266C72.7629-100.266 69.9149-97.4363 69.9149-93.9258C69.9149-90.3904 72.7629-87.5424 76.2549-87.5424C105.134-87.5424 128.528-64.1492 128.528-35.2697C128.528-6.39019 105.134 17.003 76.2549 17.003C47.3754 17.003 24.0071-6.39019 24.0071-35.2697C24.0071-38.7617 21.1342-41.6531 17.6422-41.6531C14.1317-41.6531 11.2588-38.7617 11.2588-35.2697C11.2588 0.637211 40.3914 29.7265 76.2549 29.7265ZM75.5073-34.5923C77.8974-36.7285 78.6652-40.6169 75.4765-43.8613L40.7217-78.5419L31.0608-86.8463C28.9123-88.6974 25.7427-88.8522 23.7553-86.8463C21.7308-84.7785 21.9475-81.7078 23.7367-79.547L31.9789-69.7811L66.672-34.995C69.644-32.0541 73.235-32.5678 75.5073-34.5923ZM19.3841-55.681C22.4735-55.681 25.1978-58.1452 25.012-61.3152L24.3802-79.7946L30.7017-86.2462L49.3235-85.5028C52.444-85.317 54.939-88.0784 54.9824-91.0936C54.9824-94.27 52.4811-96.7464 49.3668-96.8083L20.8395-96.8269C16.2204-96.8084 13.7128-94.3809 13.7314-89.6938L13.7314-61.2533C13.7933-58.1452 16.3193-55.681 19.3841-55.681Z" />
</svg>