<svg xmlns="http://www.w3.org/2000/svg" viewBox="11.2588 -105.826 141.07 141.13">
  <path d="M81.8155 35.3055C120.611 35.3055 152.329 3.58721 152.329-35.2697C152.329-74.1081 120.611-105.826 81.8155-105.826C42.9771-105.826 11.2588-74.1081 11.2588-35.2697C11.2588 3.58721 42.9771 35.3055 81.8155 35.3055ZM81.8155 11.4298C56.0005 11.4298 35.116-9.45473 35.116-35.2697C35.116-61.0847 56.0005-81.9692 81.8155-81.9692C107.587-81.9692 128.472-61.0847 128.472-35.2697C128.472-9.45473 107.587 11.4298 81.8155 11.4298ZM56.7064-12.0989L74.372-12.0989C76.4085-12.0989 77.6775-13.2316 77.6775-15.2497C77.6775-17.212 76.4085-18.3386 74.372-18.3386L60.4764-18.3386L60.4764-32.6512L73.8032-32.6512C75.5983-32.6512 76.8116-33.7468 76.8116-35.6038C76.8116-37.4361 75.5612-38.4698 73.8032-38.4698L60.4764-38.4698L60.4764-52.0531L74.372-52.0531C76.4085-52.0531 77.6775-53.2044 77.6775-55.1853C77.6775-57.1601 76.4085-58.2494 74.372-58.2494L56.7064-58.2494C54.4097-58.2494 53.0418-56.8009 53.0418-54.4238L53.0418-15.9679C53.0418-13.5723 54.3294-12.0989 56.7064-12.0989ZM87.9351-12.0989L109.708-12.0989C111.602-12.0989 112.735-13.3554 112.735-15.2497C112.735-17.1253 111.602-18.3386 109.708-18.3386L92.7201-18.3386L92.7201-18.6417L111.076-51.5337C111.608-52.4312 112.066-53.3716 112.066-54.7026C112.066-56.8127 110.68-58.2494 108.315-58.2494L87.5943-58.2494C85.6197-58.2494 84.2702-57.1166 84.2702-55.1853C84.2702-53.2292 85.6197-52.0531 87.5943-52.0531L103.74-52.0531L103.74-51.7314L85.137-18.7156C84.6109-17.7439 84.2272-16.7041 84.2272-15.5714C84.2272-13.2751 85.9417-12.0989 87.9351-12.0989Z" />
</svg>