<svg xmlns="http://www.w3.org/2000/svg" viewBox="11.2588 -100.266 130.04 129.99">
  <path d="M76.2549 29.7265C112.162 29.7265 141.294 0.637211 141.294-35.2697C141.294-71.1766 112.162-100.266 76.2549-100.266C40.3914-100.266 11.2588-71.1766 11.2588-35.2697C11.2588 0.637211 40.3914 29.7265 76.2549 29.7265ZM76.2549 17.0464C47.3321 17.0464 23.9637-6.34682 23.9637-35.2697C23.9637-64.1926 47.3321-87.5858 76.2549-87.5858C105.178-87.5858 128.571-64.1926 128.571-35.2697C128.571-6.34682 105.178 17.0464 76.2549 17.0464ZM90.255-10.2082L81.7245-18.7758C80.037-18.0101 78.1954-17.6213 76.2116-17.6213C66.4379-17.6213 58.5261-25.6752 58.5076-35.2262C58.5076-37.1852 58.9213-39.0888 59.6685-40.7577L47.4673-53.0023C38.4563-46.6435 33.1005-38.7271 33.1005-35.2448C33.1005-28.8175 50.8047-8.00178 76.2116-8.00178C81.2451-8.00178 85.957-8.83608 90.255-10.2082ZM92.7916-29.8057L105.055-17.5241C114.01-23.9014 119.323-31.7624 119.323-35.2448C119.323-41.6536 101.873-62.4693 76.2116-62.4693C71.2399-62.4693 66.6019-61.6719 62.3224-60.2935L70.853-51.8062C72.46-52.4979 74.308-52.8498 76.2116-52.8498C85.9421-52.8498 93.9156-45.0371 93.9156-35.2262C93.9156-33.3227 93.5203-31.4995 92.7916-29.8057ZM104.558-2.55311C105.722-1.4081 107.74-1.37105 108.903-2.55311C110.154-3.82189 110.154-5.69123 108.903-6.94154L47.8402-68.023C46.6333-69.2733 44.6217-69.2733 43.4332-68.023C42.2078-66.816 42.2263-64.8415 43.4332-63.6346Z" />
</svg>