<svg xmlns="http://www.w3.org/2000/svg" viewBox="11.2588 -100.185 130.04 129.99">
  <path d="M76.2549 29.8069C112.125 29.8069 141.294 0.637302 141.294-35.1893C141.294-71.0159 112.125-100.185 76.2549-100.185C40.4284-100.185 11.2588-71.0159 11.2588-35.1893C11.2588 0.637302 40.4284 29.8069 76.2549 29.8069ZM76.2549-8.40468C51.288-8.40468 33.906-28.8733 33.906-35.1644C33.906-41.4369 51.1401-61.924 76.2549-61.924C101.389-61.924 118.56-41.4369 118.56-35.1644C118.56-28.8733 101.47-8.40468 76.2549-8.40468ZM76.2549-17.863C85.8244-17.863 93.5933-25.7993 93.5933-35.1458C93.5933-44.7956 85.8244-52.4472 76.2549-52.4472C66.6857-52.4472 58.8547-44.7956 58.9165-35.1458C58.935-25.7993 66.6857-17.863 76.2549-17.863ZM76.3168-27.7647C72.2396-27.7647 68.8553-31.1491 68.8553-35.1458C68.8553-39.1611 72.2396-42.5455 76.3168-42.5455C80.3135-42.5455 83.7165-39.1611 83.7165-35.1458C83.7165-31.1491 80.3135-27.7647 76.3168-27.7647Z"/>
</svg>