<svg xmlns="http://www.w3.org/2000/svg" viewBox="15.323 -93.9512 137.82 117.47">
  <path d="M84.5842-65.5658C92.3612-65.5658 98.7275-71.932 98.7275-79.7894C98.7275-87.5849 92.3612-93.9512 84.5842-93.9512C76.7268-93.9512 70.3606-87.5849 70.3606-79.7894C70.3606-71.932 76.7268-65.5658 84.5842-65.5658ZM25.6366-6.32802L57.4181-3.6554C62.5589-3.21003 64.7498-2.67783 69.6988-1.29825L108.428 9.59046L143.247 22.3724C146.396 23.517 150.802 22.3724 152.064 18.2456C153.147 14.7376 151.563 10.8088 148.018 9.52813L113.217-3.13001C112.716-3.29085 111.565-3.73631 111.144-3.91572L84.4609-13.5485C88.006-20.4715 92.8068-31.4096 94.0566-43.2757C94.1988-44.5377 94.8607-45.0759 95.9804-45.0759L142.456-45.0759C146.199-45.0759 149.224-48.1633 149.224-51.8074C149.224-55.6557 146.199-58.6997 142.456-58.6997L91.4702-58.6997C82.9757-58.6997 82.2457-58.7245 72.9656-61.2796L24.7396-74.6431C21.114-75.6639 17.408-73.4799 16.3253-69.8914C15.323-66.2473 17.4885-62.4608 21.114-61.4586L66.0981-49.0417C67.0942-48.7571 67.6508-48.0768 67.5704-46.9137C66.1413-35.8086 60.7342-24.9818 57.7954-19.9767L33.0301-19.9767L33.0301-45.4473C33.0301-49.1968 29.8252-52.1788 26.1563-52.1788C22.4318-52.1788 19.3258-49.1968 19.3258-45.4473L19.3258-13.1833C19.3258-9.22973 21.1882-6.73021 25.6366-6.32802Z"/>
</svg>