<svg xmlns="http://www.w3.org/2000/svg" viewBox="11.2588 -100.266 130.04 129.99">
  <path d="M76.2549 29.7265C112.162 29.7265 141.294 0.637211 141.294-35.2697C141.294-71.1766 112.162-100.266 76.2549-100.266C40.3914-100.266 11.2588-71.1766 11.2588-35.2697C11.2588 0.637211 40.3914 29.7265 76.2549 29.7265ZM76.2549 17.0464C47.3321 17.0464 23.9637-6.34682 23.9637-35.2697C23.9637-64.1926 47.3321-87.5858 76.2549-87.5858C105.178-87.5858 128.571-64.1926 128.571-35.2697C128.571-6.34682 105.178 17.0464 76.2549 17.0464ZM75.7535-60.6492C79.8796-60.6492 83.2015-63.9896 83.2015-68.1591C83.2015-72.2296 79.8796-75.6071 75.7535-75.6071C71.6026-75.6071 68.2436-72.2296 68.2436-68.1591C68.2436-63.9896 71.6026-60.6492 75.7535-60.6492ZM52.1166 4.01843C53.5828 4.84111 55.853 4.50095 56.8986 2.63262L65.3672-12.6343L70.2354-23.5645C70.3963-23.8616 70.7181-23.9854 71.04-23.7625L84.129-14.2674L84.129 0.863386C84.129 2.81204 85.6941 4.43901 87.7047 4.43901C89.6533 4.43901 91.2618 2.81204 91.2618 0.863386L91.2618-15.8326C91.2618-16.841 90.9586-17.9235 90.1544-18.6658L76.236-31.8419L77.4298-41.8379C77.4731-42.2029 78.0175-42.2029 78.1598-41.8998L81.0237-35.0152C81.5866-33.6728 82.8485-32.8067 84.2776-32.8067L98.6538-32.8067C100.646-32.8067 102.211-34.4152 102.211-36.3638C102.211-38.3929 100.646-39.9395 98.6538-39.9395L86.6469-39.9395L81.8218-51.2227C80.5352-54.2229 78.5804-55.9365 74.2687-57.1241L72.3139-57.6685C67.6559-58.9799 64.433-59.1409 60.5852-57.5077L55.6861-55.3797L55.6861-67.7205C55.6861-69.6321 54.0592-71.2591 52.1105-71.2591C50.1619-71.2591 48.5534-69.6321 48.5534-67.7205L48.5534-49.5523C48.5534-47.0222 51.2259-45.6798 53.5147-46.6819L62.9111-50.7831C63.2946-50.944 63.6658-50.6842 63.6224-50.2574L58.8593-15.4862L50.669-0.80064C49.7473 0.863386 50.3103 3.13372 52.1166 4.01843ZM96.0668-45.2777L100.437-45.2777L100.437-74.4508C100.437-75.6391 99.403-76.6543 98.2517-76.6543C97.0571-76.6543 96.0668-75.6206 96.0668-74.4508ZM93.5817-43.0762L102.86-43.0762C104.122-43.0762 104.63-44.1155 104.246-45.2233C103.361-47.8335 101.011-49.6212 98.2517-49.6212C95.4742-49.6212 93.1606-47.8335 92.239-45.2233C91.8553-44.097 92.3383-43.0762 93.5817-43.0762Z" />
</svg>