<svg xmlns="http://www.w3.org/2000/svg" viewBox="11.2588 -100.266 130.04 129.99">
  <path d="M76.2549 29.7265C112.125 29.7265 141.294 0.556883 141.294-35.2697C141.294-71.0963 112.125-100.266 76.2549-100.266C40.4284-100.266 11.2588-71.0963 11.2588-35.2697C11.2588 0.556883 40.4284 29.7265 76.2549 29.7265ZM60.7528 1.7849C57.7088 5.36711 51.8932 1.14145 55.4938-3.08402L66.3259-16.0318L68.1011-24.0417L74.096-16.4321L73.3849-14.2622C72.9643-12.9508 72.8035-12.6104 71.7146-11.2803ZM87.3095 0.739445L79.6695-14.8499C79.3664-15.4499 79.2674-15.8398 78.5004-16.7428L71.1202-26.0407C68.287-29.5792 67.3157-31.5713 67.656-35.5862L68.2436-43.4054C68.324-44.4505 67.0562-44.9207 66.2026-44.129L63.6108-41.8836L62.8252-32.3816C62.621-30.0308 61.3341-28.7439 59.1996-28.9233C57.1456-29.0037 55.8835-30.5937 56.0443-32.8023L56.6878-41.5125C56.8671-43.8818 57.4855-45.3976 59.3045-47.2165L64.9092-52.7407C68.5221-56.2113 71.1575-58.2467 74.9869-58.2467C80.2332-58.2467 83.2828-54.4294 82.9427-49.1958L82.1755-38.636C81.9343-34.8623 81.421-32.561 80.1218-28.7564L79.8558-27.8473L84.6006-21.1292C85.318-20.1085 86.0666-18.896 86.6729-17.8072L94.0901-2.60141C96.6885 2.50878 89.6233 5.44744 87.3095 0.739445ZM100.189-43.8265C102.485-43.8265 103.97-42.5211 103.97-40.4671C103.97-38.3512 102.485-37.0272 100.189-37.0272L92.3083-37.0272C90.0688-37.0272 89.0418-37.4231 87.792-38.6171L85.9684-40.4842L86.6366-49.5539L91.7763-43.8265ZM79.2929-61.4878C74.9254-61.4878 71.3869-65.0077 71.3869-69.3133C71.3869-73.6437 74.9254-77.1451 79.2929-77.1451C83.5984-77.1451 87.1183-73.6437 87.1183-69.3133C87.1183-65.0077 83.5984-61.4878 79.2929-61.4878Z"/>
</svg>