<svg xmlns="http://www.w3.org/2000/svg" viewBox="16.084 -109.864 135.48 150.31">
  <path d="M16.084 29.737C16.084 33.2717 18.9626 36.1318 22.4787 36.1318C25.97 36.1318 28.8301 33.2717 28.8301 29.737L28.8301-103.469C28.8301-107.003 25.97-109.864 22.4787-109.864C18.9626-109.864 16.084-107.003 16.084-103.469ZM135.389 33.8423L115.35 9.99859C113.339 7.65387 113.079 7.02881 112.257 4.6346L110.896 0.491859L122.039-13.4788L125.262 1.44789L144.985 24.8708C151.569 32.5987 140.827 40.2832 135.389 33.8423ZM87.0343 31.813C82.7589 40.4441 69.9762 35.1293 74.5918 25.7742L88.1716-1.81245C89.1801-3.84802 90.634-6.02585 91.9703-7.94367L100.551-20.1066L100.001-21.7643C97.7298-28.6934 96.7835-32.8819 96.3194-39.6875L94.9522-58.9592C94.2903-68.4311 99.92-75.3979 109.343-75.3979C116.44-75.3979 121.284-71.7229 127.805-65.4062L138.001-55.3652C141.329-52.1417 142.486-49.382 142.826-44.9524L144.033-29.1576C144.355-25.0246 142.028-22.1166 138.192-21.9742C134.3-21.6958 131.955-24.0409 131.572-28.3781L130.081-45.5645L125.49-49.6908C123.888-51.1322 121.637-50.2288 121.798-48.4105L122.887-34.2308C123.45-26.8995 121.754-23.3048 116.533-16.7591L103.052 0.143163C101.722 1.81341 101.542 2.44451 100.979 3.56426ZM63.6293-49.3271L78.8918-49.3271L88.5416-60.0284L89.6429-43.1247L86.1743-39.7365C83.885-37.5401 82.0165-36.8039 77.9764-36.8039L63.6293-36.8039C59.4343-36.8039 56.6439-39.2293 56.6439-43.084C56.6439-46.8582 59.4963-49.3271 63.6293-49.3271ZM101.634-81.2933C93.7025-81.2933 87.3178-87.6966 87.3178-95.566C87.3178-103.46 93.7025-109.864 101.634-109.864C109.503-109.864 115.888-103.46 115.888-95.566C115.888-87.6966 109.503-81.2933 101.634-81.2933Z"/>
</svg>