<svg xmlns="http://www.w3.org/2000/svg" viewBox="15.7907 -109.718 119.84 136.56">
  <path d="M19.4532 21.0442C19.4532 24.2017 22.0968 26.8453 25.2606 26.8453C28.4428 26.8453 31.0432 24.2821 31.0432 21.0442L31.0432-13.858C32.9538-14.3845 38.0878-16.2949 45.9658-16.2949C67.4866-16.2949 81.8543-6.02067 102.994-4.96779L20.8046-87.0769C19.9529-86.0193 19.4532-84.826 19.4532-83.2928ZM45.8438-97.2489L130.139-13.0152C131.443-14.7726 132.061-16.864 132.061-19.3758L132.061-81.3395C132.061-85.5357 129.028-88.1913 124.756-88.1913C121.1-88.1913 115.495-85.7856 105.573-85.7856C84.1385-85.7856 68.355-96.9887 45.8438-97.2489ZM127.215 8.2444C129.073 10.1017 132.075 10.0646 133.815 8.2444C135.629 6.36858 135.617 3.46479 133.815 1.66308L24.2108-107.879C22.3719-109.718 19.3877-109.718 17.549-107.879C15.7907-106.121 15.8278-103.056 17.549-101.298Z"/>
</svg>