<svg xmlns="http://www.w3.org/2000/svg" viewBox="16.084 -94.0051 117.51 117.56">
  <path d="M36.6517 23.5524L113.03 23.5524C126.507 23.5524 133.598 16.4246 133.598 3.11475L133.598-73.5674C133.598-86.8772 126.507-94.0051 113.03-94.0051L36.6517-94.0051C23.2182-94.0051 16.084-86.9142 16.084-73.5674L16.084 3.11475C16.084 16.4615 23.2182 23.5524 36.6517 23.5524ZM50.8054-0.761435C48.9425-0.761435 47.3885-2.33379 47.3885-4.14137L47.3885-57.9419C47.3885-60.8324 48.7995-62.9492 51.5716-64.1992C53.9847-65.2882 56.1557-65.8696 61.0496-65.8696C72.7475-65.8696 79.9858-60.1352 90.7366-60.1352C95.914-60.1352 98.7221-61.5207 100.696-61.5207C103.426-61.5207 104.676-60.0724 104.676-57.8506L104.676-26.2825C104.676-23.2681 103.389-21.2874 100.511-19.9198C98.0058-18.7631 95.7793-18.2929 91.0397-18.2929C79.7505-18.2929 72.6361-23.9654 61.3527-23.9654C57.8093-23.9654 55.4095-23.2542 54.0921-22.7718L54.0921-4.14137C54.0921-2.27185 52.7488-0.761435 50.8054-0.761435Z"/>
</svg>