<svg xmlns="http://www.w3.org/2000/svg" viewBox="16.084 -118.319 112.86 167.87">
  <path d="M98.112-21.855L98.112-106.577C98.112-114.131 93.899-118.319 86.3081-118.319L50.6595-118.319C43.0068-118.319 38.9361-114.125 38.9361-106.577L38.9361-21.855ZM52.0358-77.8667C49.0104-77.8667 47.1361-79.6235 47.1361-82.4381L47.1361-105.529C47.1361-108.362 49.0104-110.119 52.0358-110.119L84.907-110.119C88.0128-110.119 89.9304-108.362 89.9304-105.529L89.9304-82.4381C89.9304-79.6235 87.9942-77.8667 84.907-77.8667ZM31.6277-22.7347C31.6277-20.3017 33.5901-18.4011 35.8809-18.4011L101.105-18.4011C103.439-18.4011 105.377-20.3017 105.377-22.7347C105.377-25.0625 103.476-26.9445 101.105-26.9445L35.8809-26.9445C33.615-26.9445 31.6277-25.1058 31.6277-22.7347ZM114.772-30.5327C123.137-30.5327 127.864-36.2063 127.864-45.9633C127.864-57.062 125.693-69.9606 121.536-89.8499L120.559-94.622C119.686-98.899 118.349-102.472 115.713-105.689L110.616-111.992C108.06-115.322 102.953-111.459 105.782-107.968L111.961-100.082C112.283-99.7352 112.301-99.2835 112.035-98.7884L108.318-91.8489C107.241-89.8496 107.482-88.3767 109.098-86.5565L117.622-77.5132C120.208-65.1427 121.563-54.5493 121.563-45.9633C121.563-39.9576 119.213-36.8526 114.772-36.8526C110.894-36.8526 108.544-39.2211 108.544-43.5248C108.544-49.8359 109.614-58.2678 109.614-66.1927C109.614-74.261 105.525-80.3617 95.7656-83.4987L93.2463-77.7418C100.517-75.6633 103.331-71.5496 103.331-66.1927C103.331-59.2208 102.286-50.7889 102.286-43.5248C102.286-35.6184 107.248-30.5327 114.772-30.5327ZM21.3156 49.5491C24.2874 49.5491 26.6525 47.1655 26.6525 44.2555L26.6525-4.64136C26.6525-7.55121 24.2874-9.91633 21.3156-9.91633C18.4242-9.91633 16.084-7.55121 16.084-4.64136L16.084 44.2555C16.084 47.1655 18.4242 49.5491 21.3156 49.5491ZM41.3373 13.7052C44.7528 13.7052 47.4011 11.057 47.4011 7.68477C47.4011 4.3311 44.7528 1.62097 41.3373 1.62097C38.0455 1.62097 35.2984 4.34958 35.2984 7.68477C35.2984 11.057 38.0455 13.7052 41.3373 13.7052ZM62.1357 13.7052C65.5264 13.7052 68.1995 11.057 68.1995 7.68477C68.1995 4.3311 65.5264 1.62097 62.1357 1.62097C58.7571 1.62097 56.0534 4.34958 56.0534 7.68477C56.0534 11.057 58.7571 13.7052 62.1357 13.7052ZM82.9093 13.7052C86.2814 13.7052 88.9546 11.057 88.9546 7.68477C88.9546 4.3311 86.2814 1.62097 82.9093 1.62097C79.5555 1.62097 76.827 4.34958 76.827 7.68477C76.827 11.057 79.5555 13.7052 82.9093 13.7052ZM103.664 13.7052C107.018 13.7052 109.71 11.057 109.71 7.68477C109.71 4.3311 107.018 1.62097 103.664 1.62097C100.329 1.62097 97.582 4.34958 97.582 7.68477C97.582 11.057 100.329 13.7052 103.664 13.7052ZM41.3373 38.3144C44.7528 38.3144 47.4011 35.5858 47.4011 32.2321C47.4011 28.8166 44.7528 26.1434 41.3373 26.1434C38.0455 26.1434 35.2984 28.8351 35.2984 32.2321C35.2984 35.5858 38.0455 38.3144 41.3373 38.3144ZM62.1357 38.3144C65.5264 38.3144 68.1995 35.5858 68.1995 32.2321C68.1995 28.8166 65.5264 26.1434 62.1357 26.1434C58.7571 26.1434 56.0534 28.8351 56.0534 32.2321C56.0534 35.5858 58.7571 38.3144 62.1357 38.3144ZM82.9093 38.3144C86.2814 38.3144 88.9546 35.5858 88.9546 32.2321C88.9546 28.8166 86.2814 26.1434 82.9093 26.1434C79.5555 26.1434 76.827 28.8351 76.827 32.2321C76.827 35.5858 79.5555 38.3144 82.9093 38.3144ZM103.664 38.3144C107.018 38.3144 109.71 35.5858 109.71 32.2321C109.71 28.8166 107.018 26.1434 103.664 26.1434C100.329 26.1434 97.582 28.8351 97.582 32.2321C97.582 35.5858 100.329 38.3144 103.664 38.3144ZM123.668 49.0426C126.577 49.0426 128.943 46.659 128.943 43.811L128.943-4.599C128.943-7.55231 126.577-9.93591 123.668-9.93591C120.739-9.93591 118.417-7.55231 118.417-4.599L118.417 43.811C118.417 46.659 120.739 49.0426 123.668 49.0426Z"/>
</svg>