<svg xmlns="http://www.w3.org/2000/svg" viewBox="11.2588 -100.266 130.04 129.99">
  <path d="M76.2549 29.7265C112.162 29.7265 141.294 0.637211 141.294-35.2697C141.294-71.1766 112.162-100.266 76.2549-100.266C40.3914-100.266 11.2588-71.1766 11.2588-35.2697C11.2588 0.637211 40.3914 29.7265 76.2549 29.7265ZM76.2549 17.0464C47.3321 17.0464 23.9637-6.34682 23.9637-35.2697C23.9637-64.1926 47.3321-87.5858 76.2549-87.5858C105.178-87.5858 128.571-64.1926 128.571-35.2697C128.571-6.34682 105.178 17.0464 76.2549 17.0464ZM57.2074-6.52201C61.0585-6.52201 63.3182-8.97982 63.3182-13.1964L63.3182-31.6165L89.0865-31.6165L89.0865-13.1964C89.0865-9.00461 91.3276-6.52201 95.1105-6.52201C98.9615-6.52201 101.221-8.97982 101.221-13.1964L101.221-58.0124C101.221-62.2474 98.9615-64.6682 95.1105-64.6682C91.3276-64.6682 89.0865-62.2226 89.0865-58.0124L89.0865-40.9459L63.3182-40.9459L63.3182-58.0124C63.3182-62.2474 61.0585-64.6682 57.2074-64.6682C53.4431-64.6682 51.1834-62.2226 51.1834-58.0124L51.1834-13.1964C51.1834-9.00461 53.4431-6.52201 57.2074-6.52201Z" />
</svg>