<svg xmlns="http://www.w3.org/2000/svg" viewBox="16.084 -124.864 155.09 171.76">
  <path d="M115.341-80.4107C116.474-80.4107 117.26-81.1413 117.359-82.3362C119.232-96.9646 119.747-97.2503 134.691-99.7484C135.948-99.866 136.697-100.553 136.697-101.73C136.697-102.739 135.948-103.506 134.938-103.667C119.815-106.648 119.232-106.451 117.359-121.08C117.26-122.212 116.474-122.962 115.341-122.962C114.35-122.962 113.521-122.212 113.422-121.142C111.406-106.228 111.095-105.936 95.8605-103.667C94.8515-103.568 94.0839-102.739 94.0839-101.73C94.0839-100.615 94.8143-99.8846 95.842-99.7484C111.133-96.6804 111.362-96.8656 113.422-82.1938C113.521-81.1413 114.369-80.4107 115.341-80.4107ZM71.175-97.0344C71.887-97.0344 72.438-97.4802 72.6238-98.316C74.1705-107.661 74.2132-107.821 83.7621-109.535C84.6534-109.696 85.1178-110.166 85.1178-110.94C85.1178-111.732 84.6534-112.222 83.8178-112.407C74.1945-114.324 74.4539-114.447 72.6238-123.583C72.438-124.418 71.9303-124.864 71.175-124.864C70.4196-124.864 69.9119-124.375 69.7881-123.601C67.859-114.336 68.2108-114.176 58.5693-112.407C57.7151-112.24 57.2074-111.689 57.2074-110.94C57.2074-110.21 57.6965-109.696 58.5507-109.535C68.2108-107.574 68.1425-107.606 69.7881-98.2974C69.9119-97.5236 70.4196-97.0344 71.175-97.0344ZM34.3048 45.4475C35.3017 45.4475 35.8589 44.8406 36.0197 43.8934C38.1052 31.5579 38.1231 31.2678 50.9594 28.9601C52.0242 28.7372 52.631 28.1738 52.631 27.1648C52.631 26.2113 52.0242 25.6479 51.0337 25.4684C38.1044 22.8516 38.4256 22.6235 36.0197 10.5103C35.8589 9.5445 35.3017 8.93764 34.3048 8.93764C33.4132 8.93764 32.8127 9.5445 32.6084 10.4917C30.2273 22.7721 30.6225 23.0559 17.6749 25.4684C16.7278 25.6293 16.084 26.2113 16.084 27.1648C16.084 28.1738 16.7092 28.7372 17.6563 28.9601C30.6225 31.5335 30.4922 31.6507 32.6084 43.9305C32.8127 44.8406 33.4132 45.4475 34.3048 45.4475ZM134.144 26.7919C150.62 10.2967 153.38-10.0962 142.31-33.4052L127.749-64.092C126.66-66.3261 125.416-68.0898 123.974-69.5564C118.931-74.6184 111.456-74.5935 106.357-69.5132C103.232-66.3884 102.1-61.6677 104.042-56.7864L107.779-47.8229C107.878-47.5632 107.878-47.3407 107.736-47.1798C107.513-46.9571 107.253-47.0375 107.068-47.2417L72.4156-81.8689C66.7726-87.5368 59.3593-87.506 53.9072-81.992C52.2247-80.3713 51.2164-78.2807 51.0427-76.0975C45.6904-79.6478 39.7884-79.2135 35.21-74.6352C30.7741-70.2178 30.3214-64.081 33.649-58.871C31.6082-58.7344 29.6848-57.788 28.188-56.2728C23.0457-51.1305 23.0582-44.0206 28.3855-38.7182L32.4906-34.6132C30.3754-34.5385 28.2909-33.5426 26.6764-31.9096C21.5341-26.7673 21.6828-19.3106 27.1648-13.8285L66.1957 25.2208C87.892 46.8985 114.318 46.5552 134.144 26.7919ZM126.435 19.4927C110.56 35.3679 90.5605 35.2598 72.6152 17.358L35.1081-20.1492C33.3465-21.9107 33.2171-24.2045 34.8799-25.9292C36.586-27.5734 38.9971-27.5798 40.7772-25.8183L63.6303-2.94663C65.524-1.00949 68.3904-1.19512 70.1548-2.95952C71.9191-4.72392 72.1111-7.59654 70.174-9.50879L35.7836-43.8807C34.0035-45.6422 33.8926-47.9545 35.5554-49.6421C37.243-51.3049 39.6726-51.3113 41.4093-49.5312L73.4551-17.4854C75.4108-15.5731 78.2586-15.7154 80.023-17.4798C81.7873-19.2442 81.9359-22.1168 80.0422-24.029L42.3413-61.668C40.6232-63.4481 40.4874-65.896 42.1935-67.5773C43.8194-69.228 46.2303-69.0986 48.0104-67.337L84.962-30.3854C86.8068-28.5656 89.6916-28.56 91.468-30.3797C93.3312-32.1811 93.3689-35.1093 91.5491-36.9291L60.1906-68.2876C58.4104-70.0492 58.3735-72.4168 60.0177-74.123C61.7054-75.7672 64.0795-75.7183 65.7792-73.9382L110.192-29.5442C112.785-26.9697 115.99-27.2046 118.088-29.3397C119.871-31.1405 120.651-33.6532 119.357-36.9151L111.359-57.5472C110.321-60.1313 111.23-62.2579 113.239-63.1603C115.372-64.1494 117.313-63.1853 118.605-60.539L133.277-29.0839C142.688-8.94341 139.507 6.37774 126.435 19.4927ZM72.8158-86.7546C71.1705-85.1896 70.224-83.1547 69.9698-81.0645L78.8021-72.3259C76.9847-74.4527 76.9107-77.0679 78.7097-78.7679C80.4654-80.5298 82.9511-80.4004 84.8798-78.5088L104.916-58.4666L111.232-66.7486L91.3242-86.6315C85.6378-92.3179 78.3978-92.1324 72.8158-86.7546ZM151.938 22.4008C168.433 5.94262 171.174-14.4439 160.104-37.7715L145.543-68.4647C142.845-74.2259 138.099-77.6794 132.536-77.6422C128.287-77.6237 120.922-74.7855 120.922-65.9908C120.922-65.3044 120.959-64.6613 121.057-63.9749L129.142-60.9722C128.802-61.7945 128.579-62.6107 128.579-63.489C128.579-65.4729 130.069-67.2537 132.591-67.2537C134.18-67.2537 135.732-66.1777 136.598-64.4097L151.072-33.475C160.483-13.3345 157.363 2.02999 144.248 15.0582C138.452 20.8357 132.149 24.4481 125.637 25.8215L113.919 36.0862C127.198 38.3463 140.663 33.6818 151.938 22.4008Z"/>
</svg>