<svg xmlns="http://www.w3.org/2000/svg" viewBox="11.2588 -100.266 130.04 129.99">
  <path d="M76.2549 29.7265C112.125 29.7265 141.294 0.556883 141.294-35.2697C141.294-71.0963 112.125-100.266 76.2549-100.266C40.4284-100.266 11.2588-71.0963 11.2588-35.2697C11.2588 0.556883 40.4284 29.7265 76.2549 29.7265ZM60.8882-63.6333C67.9656-63.6333 73.2729-59.4889 76.2549-54.1186C79.2803-59.4889 84.6495-63.6333 91.6651-63.6333C102.281-63.6333 110.249-55.4857 110.249-43.9844C110.249-25.7237 89.9608-10.4248 79.6095-3.6573C78.6008-3.00122 77.2887-2.2274 76.3417-2.2274C75.4814-2.2274 74.0207-3.01971 72.9004-3.6573C62.4632-10.2587 42.2856-25.7237 42.2856-43.9844C42.2856-55.4857 50.2289-63.6333 60.8882-63.6333Z"/>
</svg>