<svg xmlns="http://www.w3.org/2000/svg" viewBox="16.1394 -92.5444 81.93 114.49">
  <path d="M70.7109 21.9431C74.7911 21.9431 78.2272 18.7732 78.2272 14.6807C78.2272 12.2908 77.0508 10.3963 75.1997 8.60698L38.2558-25.6487L45.7324-25.6858C65.3417-26.1316 80.9633-36.239 83.0809-55.3514L94.4607-55.3514C96.5037-55.3514 98.07-56.8991 98.07-58.9421C98.07-61.0037 96.5037-62.5514 94.4607-62.5514L83.2046-62.5514C82.4929-72.2304 78.4305-80.3322 71.0043-85.3628L94.4607-85.3195C96.5037-85.3195 98.07-86.8487 98.07-88.9103C98.07-90.9967 96.5037-92.501 94.4607-92.501L21.8229-92.5444C18.3125-92.5444 16.1394-90.3092 16.1394-86.6687L16.1394-86.0124C16.1394-82.4771 18.3125-80.2852 21.8229-80.2852L42.4916-80.2852C55.3544-80.2852 65.3978-74.9802 66.9888-62.5514L20.2939-62.5514C18.2075-62.5514 16.6412-61.0037 16.6412-58.9421C16.6412-56.8991 18.2075-55.3514 20.2939-55.3514L67.0323-55.3514C65.4415-42.5457 54.6959-37.8337 41.6733-37.8337L24.2692-37.8337C19.8981-37.8337 16.3627-35.4439 16.3627-30.7442L16.3627-30.311C16.3627-26.7694 18.3068-24.4043 20.9068-21.9094L63.6897 18.3889C65.9125 20.5498 68.0546 21.9431 70.7109 21.9431Z"/>
</svg>