<svg xmlns="http://www.w3.org/2000/svg" viewBox="11.2588 -100.266 130.04 129.99">
  <path d="M76.2549 29.7265C112.162 29.7265 141.294 0.637211 141.294-35.2697C141.294-71.1766 112.162-100.266 76.2549-100.266C40.3914-100.266 11.2588-71.1766 11.2588-35.2697C11.2588 0.637211 40.3914 29.7265 76.2549 29.7265ZM76.2549 17.0464C47.3321 17.0464 23.9637-6.34682 23.9637-35.2697C23.9637-64.1926 47.3321-87.5858 76.2549-87.5858C105.178-87.5858 128.571-64.1926 128.571-35.2697C128.571-6.34682 105.178 17.0464 76.2549 17.0464ZM47.6688-8.16291L78.4202-8.16291C78.0181-9.04771 77.8386-10.0129 77.8386-11.0586C77.8386-12.0368 78.012-13.077 78.3837-14.0552L48.1019-14.0552C45.431-14.0552 43.8855-15.4953 43.8855-18.3335L43.8855-52.2059C43.8855-55.0441 45.431-56.5276 48.1019-56.5276L96.6083-56.5276C99.2173-56.5276 100.912-55.0627 100.912-52.2802L100.912-49.4644C102.502-49.3595 104.767-48.9268 106.674-47.5839L106.674-52.6454C106.674-58.9807 103.21-62.3765 97.0415-62.3765L47.6688-62.3765C41.4636-62.3765 37.9562-58.9807 37.9562-52.6454L37.9562-17.894C37.9562-11.5587 41.4636-8.16291 47.6688-8.16291ZM50.4916-18.2753L80.4574-18.2753C82.4559-21.8497 86.1167-24.9347 90.9393-26.5927C88.571-28.9312 86.932-32.4383 86.932-36.3288C86.932-42.5217 90.8604-47.4445 96.3694-48.8072L96.3694-50.2125C96.2703-51.4793 95.3183-52.2641 94.0329-52.2641L50.4731-52.2641C49.0329-52.2641 48.0686-51.3802 48.0686-49.9648L48.0686-20.5932C48.0686-19.1592 49.0514-18.2753 50.4916-18.2753ZM99.795-27.2352C104.305-27.2352 108.047-31.2438 108.047-36.3721C108.047-41.3525 104.268-45.2309 99.795-45.2309C95.2854-45.2309 91.4372-41.3091 91.4372-36.3288C91.4372-31.2438 95.2483-27.2352 99.795-27.2352ZM85.9945-8.16291L113.472-8.16291C115.78-8.16291 117.147-9.31376 117.147-11.0586C117.147-16.2858 110.392-23.6226 99.7765-23.6226C89.1177-23.6226 82.3438-16.2858 82.3438-11.0586C82.3438-9.31376 83.8227-8.16291 85.9945-8.16291Z" />
</svg>