<svg xmlns="http://www.w3.org/2000/svg" viewBox="16.084 -93.9865 149.09 117.56">
  <path d="M42.4361 2.3062L73.3473 2.3062C76.9269 2.3062 78.4346 0.674656 78.4346-2.92977L78.4346-30.0585C78.4346-33.6814 76.9269-35.2511 73.3473-35.2511L42.4361-35.2511C38.875-35.2511 37.3488-33.6814 37.3488-30.0585L37.3488-2.92977C37.3488 0.674656 38.875 2.3062 42.4361 2.3062ZM107.936 2.3062L138.822 2.3062C142.383 2.3062 143.91 0.674656 143.91-2.92977L143.91-30.0585C143.91-33.6814 142.383-35.2511 138.822-35.2511L107.936-35.2511C104.331-35.2511 102.824-33.6814 102.824-30.0585L102.824-2.92977C102.824 0.674656 104.331 2.3062 107.936 2.3062ZM36.6517 23.571L144.607 23.571C158.083 23.571 165.174 16.4431 165.174 3.13332L165.174-73.5488C165.174-86.8587 158.083-93.9865 144.607-93.9865L36.6517-93.9865C23.2182-93.9865 16.084-86.8956 16.084-73.5488L16.084 3.13332C16.084 16.4801 23.2182 23.571 36.6517 23.571ZM37.6298 11.1945C31.6387 11.1945 28.4171 8.13396 28.4171 1.93843L28.4171-72.354C28.4171-78.5929 31.6387-81.61 37.6298-81.61L143.628-81.61C149.546-81.61 152.841-78.5929 152.841-72.354L152.841 1.93843C152.841 8.13396 149.546 11.1945 143.628 11.1945Z" />
</svg>