<svg xmlns="http://www.w3.org/2000/svg" viewBox="16.084 -104.914 144.28 139.29">
  <path d="M25.4176 26.8451L151.575 26.8451L151.575 18.4038C151.575 15.8218 149.996 14.2616 147.371 14.2616L143.87 14.2616L143.87-60.0237L149.313-60.0237C153.053-60.0237 155.22-62.7542 155.22-65.5216C155.22-67.5278 154.062-69.3603 151.653-70.8215L96.5408-102.6C94.0037-104.091 91.1695-104.914 88.4964-104.914C85.7799-104.914 82.9272-104.091 80.3902-102.6L25.2775-70.8215C22.8442-69.3603 21.7297-67.5278 21.7297-65.5216C21.7297-62.7542 23.8783-60.0237 27.6363-60.0237L33.1226-60.0237L33.1226 14.2616L29.6216 14.2616C26.9963 14.2616 25.4176 15.8218 25.4176 18.4038ZM21.6005 34.3748L154.829 34.3748C157.801 34.3748 160.364 31.8859 160.364 28.8149C160.364 25.806 157.801 23.2984 154.829 23.2984L21.6005 23.2984C18.6101 23.2984 16.084 25.806 16.084 28.8149C16.084 31.8673 18.6101 34.3748 21.6005 34.3748ZM65.0301-0.688005C62.6779-0.688005 61.1303-2.14279 61.1303-4.35888C61.1303-6.51935 62.6779-7.90598 65.0301-7.90598L75.1836-7.90598L75.1836-8.17807C66.2194-12.6152 61.3974-22.2601 61.3974-32.1803C61.3974-44.5167 69.6883-53.6911 81.0411-56.5926L81.0411-63.13C81.0411-64.2443 81.8766-65.0798 82.9473-65.0798C84.1234-65.0798 84.9589-64.2443 84.9589-63.13L84.9589-57.3104C86.3072-57.4712 87.6369-57.5515 89.0037-57.5515C90.4695-57.5515 91.9786-57.4712 93.3825-57.2734L93.3825-63.13C93.3825-64.2443 94.218-65.0798 95.3074-65.0798C96.4401-65.0798 97.2819-64.2443 97.2819-63.13L97.2819-56.4317C107.887-53.3441 116.01-44.5456 116.065-34.1973C116.065-31.6532 114.344-29.9942 111.881-29.9942C109.429-29.9942 108.036-31.777 107.77-34.1044C107.343-40.6158 103.206-45.8848 97.2819-48.3283L97.2819-32.6245C97.2819-31.4484 96.4401-30.6315 95.3074-30.6315C94.218-30.6315 93.3825-31.4484 93.3825-32.6245L93.3825-49.5416C92.0157-49.8198 90.5437-49.9807 89.0594-49.9807C87.6741-49.9807 86.3072-49.8198 84.9589-49.622L84.9589-32.6245C84.9589-31.4484 84.1234-30.6315 82.9473-30.6315C81.8766-30.6315 81.0411-31.4484 81.0411-32.6245L81.0411-48.4954C74.3369-45.8292 69.9835-39.4711 69.9835-30.7007C69.9835-18.3603 79.8496-8.13508 94.0397-8.13508L108.695-8.13508C111.047-8.13508 112.614-6.68651 112.614-4.43318C112.614-2.17994 111.047-0.688005 108.695-0.688005Z"/>
</svg>