<svg xmlns="http://www.w3.org/2000/svg" viewBox="16.084 -102.734 127.95 134.93">
  <path d="M80.0717 32.195C118.611 32.195 144.035 18.9045 144.035-1.68802L144.035-66.3952C144.035-88.4353 118.531-102.734 80.0717-102.734C41.5878-102.734 16.084-88.4353 16.084-66.3952L16.084-1.68802C16.084 18.9045 41.5073 32.195 80.0717 32.195ZM27.6556-1.68802C27.6556-14.578 49.0783-23.9808 80.0717-23.9808C111.04-23.9808 132.463-14.578 132.463-1.68802C132.463 11.2204 111.04 20.6232 80.0717 20.6232C49.0783 20.6232 27.6556 11.2204 27.6556-1.68802ZM54.0116-15.1694C54.9895-6.18542 66.2134 0.978798 80.0717 0.978798C93.8867 0.978798 105.129-6.18542 106.125-15.1509C98.7692-16.9081 89.8164-17.9787 80.0717-17.9787C70.3207-17.9787 61.3494-16.9081 54.0116-15.1694Z"/>
</svg>