<svg xmlns="http://www.w3.org/2000/svg" viewBox="16.084 -138.793 135.92 166.84">
  <path d="M23.0345-63.5962C26.9027-63.5962 29.985-66.6785 29.985-70.5467C29.985-74.3964 26.9027-77.4972 23.0345-77.4972C19.1848-77.4972 16.084-74.3964 16.084-70.5467C16.084-66.6785 19.1848-63.5962 23.0345-63.5962ZM38.7919-108.751C42.6601-108.751 45.7424-111.852 45.7424-115.72C45.7424-119.526 42.6601-122.627 38.7919-122.627C34.9671-122.627 31.8847-119.526 31.8847-115.72C31.8847-111.852 34.9671-108.751 38.7919-108.751ZM84.046-124.874C87.8958-124.874 90.9965-127.975 90.9965-131.824C90.9965-135.692 87.8958-138.793 84.046-138.793C80.1778-138.793 77.0955-135.692 77.0955-131.824C77.0955-127.975 80.1778-124.874 84.046-124.874ZM129.3-108.751C133.15-108.751 136.251-111.852 136.251-115.72C136.251-119.526 133.15-122.627 129.3-122.627C125.432-122.627 122.35-119.526 122.35-115.72C122.35-111.852 125.432-108.751 129.3-108.751ZM145.101-63.5962C148.907-63.5962 152.008-66.6785 152.008-70.5467C152.008-74.3964 148.907-77.4972 145.101-77.4972C141.233-77.4972 138.132-74.3964 138.132-70.5467C138.132-66.6785 141.233-63.5962 145.101-63.5962ZM84.046-111.765C61.829-111.765 44.0108-95.5384 44.0108-74.7119C44.0108-52.7719 57.0642-46.0296 60.4856-8.04971C60.7455-4.91193 62.6087-3.0736 65.7769-3.0736L102.297-3.0736C105.49-3.0736 107.371-4.91193 107.625-8.04971C111.028-46.0296 124.125-52.7719 124.125-74.6933C124.125-95.5198 106.263-111.765 84.046-111.765ZM84.046-101.129C99.9917-101.11 113.525-90.0154 113.525-74.7119C113.525-59.0127 102.732-54.6609 97.8866-13.6914L70.2488-13.6914C65.36-54.6609 54.6472-59.0127 54.6472-74.7119C54.6472-90.0154 68.0818-101.129 84.046-101.129ZM65.4168 10.6148L102.712 10.6148C105.002 10.6148 106.747 8.81384 106.747 6.64158C106.747 4.40739 105.002 2.68681 102.712 2.68681L65.4168 2.68681C63.1702 2.68681 61.425 4.40739 61.425 6.64158C61.425 8.81384 63.1702 10.6148 65.4168 10.6148ZM84.0645 28.0502C93.5858 28.0502 101.104 23.3172 101.487 16.3319L66.5674 16.3319C66.9696 23.3172 74.5432 28.0502 84.0645 28.0502Z"/>
</svg>