<svg xmlns="http://www.w3.org/2000/svg" viewBox="16.084 -115.671 107.91 153.65">
  <path d="M44.5884-46.6297C47.714-46.6297 50.1774-49.1115 50.1774-52.2186C50.1774-55.3442 47.714-57.8261 44.5884-57.8261C41.5432-57.8261 38.9994-55.2823 38.9994-52.2186C38.9994-49.1735 41.5432-46.6297 44.5884-46.6297ZM44.5884-24.2371C47.714-24.2371 50.1774-26.7005 50.1774-29.826C50.1774-32.9331 47.6954-35.3531 44.5884-35.3531C41.4999-35.3531 38.9994-32.8711 38.9994-29.826C38.9994-26.7005 41.4813-24.2371 44.5884-24.2371ZM44.5884-0.564248C47.714-0.564248 50.1774-3.04611 50.1774-6.17169C50.1774-9.27879 47.714-11.7607 44.5884-11.7607C41.5432-11.7607 38.9994-9.21685 38.9994-6.17169C38.9994-3.10804 41.5432-0.564248 44.5884-0.564248ZM61.5371-47.8665L96.779-47.8665C99.1748-47.8665 101.131-49.8414 101.131-52.2186C101.131-54.6144 99.1748-56.5892 96.779-56.5892L61.5371-56.5892C59.1414-56.5892 57.185-54.6144 57.185-52.2186C57.185-49.8414 59.1414-47.8665 61.5371-47.8665ZM61.5371-25.4739L96.779-25.4739C99.2367-25.4739 101.131-27.3683 101.131-29.826C101.131-32.2218 99.2181-34.1162 96.779-34.1162L61.5371-34.1162C59.098-34.1162 57.185-32.2218 57.185-29.826C57.185-27.3683 59.0794-25.4739 61.5371-25.4739ZM61.5371-1.8011L96.779-1.8011C99.1748-1.8011 101.131-3.77592 101.131-6.17169C101.131-8.54898 99.2181-10.4619 96.779-10.4619L61.5371-10.4619C59.098-10.4619 57.185-8.54898 57.185-6.17169C57.185-3.77592 59.1414-1.8011 61.5371-1.8011ZM36.5154 37.9833L103.516 37.9833C116.733 37.9833 123.991 30.7066 123.991 17.3226L123.991-78.5633C123.991-91.7305 116.888-99.2425 103.993-99.2425L101.957-99.2425C102.261-98.382 102.391-97.3668 102.391-96.3577L102.391-90.971C102.391-89.6335 102.217-88.3581 101.846-87.2374L103.677-87.2374C109.13-87.2374 112.004-83.8796 112.004-78.4024L112.004 17.1618C112.004 22.8373 108.87 26.0402 103.027 26.0402L37.0479 26.0402C31.1619 26.0402 28.0457 22.8373 28.0457 17.1618L28.0457-78.4024C28.0457-83.8796 30.9017-87.2374 36.3974-87.2374L38.2476-87.2374C37.8574-88.3581 37.6841-89.6335 37.6841-90.971L37.6841-96.3577C37.6841-97.3668 37.8141-98.382 38.1175-99.2425L36.0818-99.2425C23.1438-99.2425 16.084-91.7305 16.084-78.5633L16.084 17.3226C16.084 30.7066 23.3172 37.9833 36.5154 37.9833ZM50.7113-83.6042L89.3203-83.6042C93.0397-83.6042 95.2862-85.9128 95.2862-89.8244L95.2862-96.3762C95.2862-100.306 93.0397-102.596 89.3203-102.596L83.8551-102.596C83.4464-109.848 77.4566-115.671 70.0375-115.671C62.6368-115.671 56.6286-109.848 56.1764-102.596L50.7113-102.596C47.0104-102.596 44.7887-100.306 44.7887-96.3762L44.7887-89.8244C44.7887-85.9128 47.0104-83.6042 50.7113-83.6042ZM70.0375-96.4904C66.9137-96.4904 64.3651-99.0761 64.3651-102.163C64.3651-105.286 66.9137-107.792 70.0375-107.792C73.1612-107.792 75.6665-105.286 75.6665-102.163C75.6665-99.0761 73.1612-96.4904 70.0375-96.4904Z"/>
</svg>