<svg xmlns="http://www.w3.org/2000/svg" viewBox="16.084 -100.566 159.27 130.65">
  <path d="M16.084-71.4159L28.4171-71.4159L28.4171-78.9334C28.4171-85.1723 31.6387-88.2079 37.6298-88.2079L45.1039-88.2079L45.1039-100.566L36.6517-100.566C23.1749-100.566 16.084-93.4936 16.084-80.1283ZM16.084-36.2589L28.4171-36.2589L28.4171-63.882L16.084-63.882ZM54.6592 0.468443L54.6592-11.8647L37.6298-11.8647C31.6387-11.8647 28.4171-14.9252 28.4171-21.1641L28.4171-28.725L16.084-28.725L16.084-19.9259C16.084-6.57907 23.1749 0.468443 36.6517 0.468443ZM131.321-64.0053L143.697-64.0053L143.697-80.1283C143.697-93.4936 136.563-100.566 123.129-100.566L114.59-100.566L114.59-88.2079L122.151-88.2079C128.142-88.2079 131.321-85.1723 131.321-78.9334ZM83.6358-88.2079L107.019-88.2079L107.019-100.566L83.6358-100.566ZM52.6564-88.2079L76.0649-88.2079L76.0649-100.566L52.6564-100.566ZM68.3052 30.082L154.783 30.082C168.216 30.082 175.35 22.9726 175.35 9.68771L175.35-50.5581C175.35-63.8679 168.216-70.9524 154.783-70.9524L68.3052-70.9524C54.8098-70.9524 47.7374-63.9049 47.7374-50.5581L47.7374 9.68771C47.7374 23.053 54.8098 30.082 68.3052 30.082ZM69.2833 17.7674C63.2921 17.7674 60.0521 14.6883 60.0521 8.46793L60.0521-49.3198C60.0521-55.5587 63.2921-58.6193 69.2833-58.6193L153.805-58.6193C159.722-58.6193 163.017-55.5587 163.017-49.3198L163.017 8.46793C163.017 14.6883 159.722 17.7674 153.805 17.7674ZM98.0718 9.03189L125.053 9.03189C129.743 9.03189 132.193 6.61875 132.193 1.44645L132.193-19.7982C132.193-24.8837 129.743-27.3403 125.053-27.3403L98.0718-27.3403C93.3016-27.3403 90.8948-24.8837 90.8948-19.7982L90.8948 1.44645C90.8948 6.61875 93.3016 9.03189 98.0718 9.03189ZM96.1641-23.2876L102.676-23.2876L102.676-34.0961C102.676-39.7605 106.182-43.4709 111.513-43.4709C116.924-43.4709 120.455-39.7605 120.455-34.0961L120.455-23.2876L126.942-23.2876L126.942-33.4641C126.942-43.4373 120.812-49.8836 111.513-49.8836C102.276-49.8836 96.1641-43.4373 96.1641-33.4641Z"/>
</svg>