<svg xmlns="http://www.w3.org/2000/svg" viewBox="16.084 -88.3478 164.75 112.68">
  <path d="M180.835-28.1869L180.835-68.3985C180.835-80.5816 173.044-88.3478 160.824-88.3478L36.0084-88.3045C23.8133-88.3045 16.084-80.4764 16.084-68.25L16.084-28.1869C16.084-11.3827 23.4041-0.999451 40.5918 4.04295L94.9872 19.9661C109.867 24.3279 119.544 22.5953 132.834 15.7031L168.088-2.51526C178.421-7.81758 180.835-14.3403 180.835-28.1869ZM168.502-28.1869C168.502-19.3745 166.892-15.6059 160.535-12.3717L126.228 5.20874C115.663 10.6212 108.677 11.6479 95.8589 7.8185L44.2693-7.48526C32.6919-10.9363 28.4171-17.0174 28.4171-28.1869L28.4171-67.2471C28.4171-72.638 31.7378-76.0084 36.9865-76.0084L159.846-76.0517C165.138-76.0517 168.502-72.7432 168.502-67.3957ZM55.6262-15.45L72.1834-15.45C74.1953-15.45 75.879-17.1337 75.879-19.1022C75.879-21.1327 74.1953-22.7978 72.1834-22.7978L60.0957-22.7978L60.0957-59.8913C60.0957-62.287 58.0839-64.2989 55.7066-64.2989C53.2738-64.2989 51.2804-62.287 51.2804-59.8913L51.2804-20.0372C51.2804-17.2328 52.8403-15.45 55.6262-15.45ZM95.1426-14.4166C104.373-14.4166 109.886-19.8475 109.886-28.7257C109.886-36.427 105.934-39.9224 99.3701-42.5392L96.1594-43.8445C92.2697-45.4214 89.4992-47.3813 89.4992-51.6047C89.4992-55.0666 91.5144-57.6012 94.9449-57.6012C98.5242-57.6012 100.385-54.98 101.034-51.9141C101.585-49.8219 102.997-49.0359 105.033-49.0359C107.503-49.073 108.834-50.6452 108.834-52.7684C108.834-53.3187 108.742-54.0978 108.475-55.0881C106.57-61.4356 101.311-64.7879 94.9635-64.7879C86.8586-64.7879 80.8881-59.5421 80.8881-50.9112C80.8881-43.4941 85.1323-39.5159 91.1813-37.0542L94.4105-35.7489C98.3242-34.1783 101.232-32.2924 101.232-27.9333C101.232-24.2118 99.0062-21.5229 95.2229-21.5229C91.4647-21.5229 89.2209-24.1686 88.6332-27.277C88.0883-29.4805 86.485-30.3781 84.5536-30.3781C82.2756-30.3781 80.6907-28.6945 80.6907-26.3795C80.6907-25.3271 80.8269-24.7021 81.2107-23.6502C82.9866-17.6752 88.4067-14.4166 95.1426-14.4166ZM121.548-15.4315L134.057-15.4315C142.365-15.4315 147.029-21.1415 147.029-29.0038C147.029-34.8491 143.503-40.1627 137.923-40.7068L137.923-40.9481C142.495-41.7706 145.619-46.7067 145.619-51.5745C145.619-59.0542 140.769-63.5751 133.698-63.5751L121.548-63.5751C118.632-63.5751 117.202-61.5632 117.202-58.9198L117.202-20.0187C117.202-17.3319 118.675-15.4315 121.548-15.4315ZM125.894-43.1392L125.894-56.8714L131.135-56.8714C135.439-56.8714 137.169-54.0641 137.169-50.1938C137.169-45.8905 134.851-43.1392 130.504-43.1392ZM125.894-22.0486L125.894-37.2715L131.061-37.2715C135.425-37.2715 138.17-34.6875 138.17-29.7344C138.17-25.0414 135.926-22.0486 131.277-22.0486Z"/>
</svg>