<svg xmlns="http://www.w3.org/2000/svg" viewBox="35.9158 -105.471 48.93 134.99">
  <path d="M35.9158-80.8957C35.9158-69.5532 43.5633-60.0236 54.0575-57.225L54.0575 4.78878C54.0575 19.7163 57.9522 29.518 60.3917 29.518C62.7693 29.518 66.6454 19.7967 66.6454 4.78878L66.6454-57.225C77.1767-59.9616 84.849-69.5532 84.849-80.8957C84.849-94.4425 74.0004-105.471 60.3917-105.471C46.783-105.471 35.9158-94.4425 35.9158-80.8957ZM53.3313-79.6075C48.8941-79.6075 44.9644-83.5003 44.9644-88.0364C44.9644-92.5727 48.8941-96.4034 53.3313-96.4034C57.948-96.4034 61.7168-92.5727 61.7168-88.0364C61.7168-83.5003 57.948-79.6075 53.3313-79.6075Z"/>
</svg>