<svg xmlns="http://www.w3.org/2000/svg" viewBox="16.084 -85.5988 179.61 120.87">
  <path d="M66.1897 27.1722C63.567 23.6834 62.6391 21.5805 62.6391 17.7455C62.6391 8.44181 71.5217 3.10023 71.5217-9.29762C71.5217-20.4588 63.2814-23.2663 63.2814-36.2955L63.2814-38.7818C63.2814-40.7255 61.6595-42.3474 59.7158-42.3474C57.7287-42.3474 56.1502-40.7255 56.1502-38.7818L56.1502-36.2955C56.1502-19.6086 64.3905-17.7973 64.3905-9.29762C64.3905 1.44727 55.5265 5.81723 55.5265 18.2163C55.5265 23.3996 57.085 27.2046 60.439 31.3815C63.3917 35.2505 69.2788 31.2888 66.1897 27.1722ZM48.1286-39.7597C46.9097-37.8973 48.0048-35.4218 50.4181-35.4218L68.9267-35.4218C71.34-35.4218 72.5219-37.8539 71.2163-39.7597L62.2466-53.133C61.5412-54.1601 60.78-54.5995 59.6539-54.5995C58.6082-54.5995 57.7666-54.0982 57.1231-53.133ZM96.7721 27.1722C94.106 23.6834 93.1781 21.5805 93.1781 17.7455C93.1781 8.44181 102.061 3.10023 102.061-9.29762C102.061-20.4588 93.8389-23.2663 93.8389-36.2955L93.8389-38.7818C93.8389-40.7255 92.2604-42.3474 90.3167-42.3474C88.311-42.3474 86.7077-40.7255 86.7077-38.7818L86.7077-36.2955C86.7077-19.6086 94.948-17.7973 94.948-9.29762C94.948 1.44727 86.1522 5.81723 86.1522 18.2163C86.1522 23.3996 87.7293 27.2046 91.0213 31.3815C94.0544 35.269 99.8115 31.2888 96.7721 27.1722ZM78.6676-39.7597C77.4053-37.8973 78.5872-35.4218 81.0624-35.4218L99.4657-35.4218C101.941-35.4218 103.079-37.8973 101.86-39.7597L92.8226-53.133C92.1606-54.0982 91.356-54.5995 90.2548-54.5995C89.1721-54.5995 88.3675-54.0982 87.6621-53.133ZM127.33 27.1722C124.707 23.6834 123.779 21.5805 123.779 17.7455C123.779 8.44181 132.662 3.10023 132.662-9.29762C132.662-20.4588 124.378-23.2663 124.378-36.2955L124.378-38.7818C124.378-40.7255 122.799-42.3474 120.831-42.3474C118.825-42.3474 117.247-40.7255 117.247-38.7818L117.247-36.2955C117.247-19.6086 125.53-17.7973 125.53-9.29762C125.53 1.44727 116.666 5.81723 116.666 18.2163C116.666 23.3996 118.287 27.2046 121.579 31.3815C124.593 35.269 130.394 31.2888 127.33 27.1722ZM109.312-39.7597C108.05-37.8973 109.188-35.4218 111.576-35.4218L130.11-35.4218C132.542-35.4218 133.68-37.8973 132.418-39.7597L123.423-53.133C122.737-54.0982 121.895-54.5995 120.812-54.5995C119.748-54.5995 118.987-54.1601 118.281-53.133ZM16.084-31.6563C16.084-4.74992 32.3308 10.1907 59.9602 10.1907L156.841 10.1907C166.732 10.1907 174.717 11.0443 182.774 13.0291C190.227 14.9976 195.694 12.3109 195.694 4.48604L195.694-25.7972C195.694-30.9227 192.017-34.6431 186.891-34.6431L171.282-34.6431C166.428-34.6431 163.899-36.8751 164.418-41.8042L166.341-59.6718C167.999-75.6798 158.545-85.5988 140.778-85.5988C120.517-85.5554 83.5341-84.7631 62.4418-82.2949C32.8748-78.6954 16.084-60.5161 16.084-31.6563ZM28.1571-31.6563C28.1571-53.6621 40.7815-67.5075 63.5999-70.1783C84.3329-72.5662 120.597-73.4823 140.778-73.4823C151.184-73.4823 155.239-69.5444 154.293-61.0524L149.202-15.66C148.058-5.40025 143.798-1.87001 132.499-1.87001L59.8301-1.87001C39.9214-1.87001 28.1571-12.3715 28.1571-31.6563Z"/>
</svg>