<svg xmlns="http://www.w3.org/2000/svg" viewBox="11.2588 -100.185 130.04 129.99">
  <path d="M76.2549 29.8069C112.125 29.8069 141.294 0.637302 141.294-35.1893C141.294-71.0159 112.125-100.185 76.2549-100.185C40.4284-100.185 11.2588-71.0159 11.2588-35.1893C11.2588 0.637302 40.4284 29.8069 76.2549 29.8069ZM75.5983 1.53084C56.0442 1.53084 41.1675-12.7574 41.1675-32.3364C41.1675-46.3224 49.4259-59.7444 61.946-64.5702C64.75-65.6721 66.8975-63.8091 65.5419-61.0488C64.4472-58.1672 63.4511-53.3095 63.4511-49.2103C63.4511-31.5692 74.9857-20.3566 92.6208-20.3566C96.7641-20.3566 101.013-21.1671 103.437-22.1812C106.285-23.3262 108.067-21.0544 106.823-18.3439C102.288-7.06145 89.7084 1.53084 75.5983 1.53084ZM94.3454-39.7688C93.5899-39.7688 93.0203-40.4066 92.9213-41.199C91.4925-51.9444 91.1272-52.0865 79.7077-54.2639C78.8968-54.4 78.3892-54.9325 78.3892-55.7683C78.3892-56.5422 78.8968-57.1118 79.7263-57.2108C91.1272-58.8678 91.2524-59.3747 92.9213-70.2942C93.0203-71.13 93.5899-71.7245 94.3454-71.7245C95.0759-71.7245 95.6703-71.13 95.7693-70.2757C97.4446-59.6348 97.7242-59.4501 108.983-57.2108C109.75-57.0932 110.302-56.5422 110.302-55.7683C110.302-54.8891 109.75-54.4 108.859-54.2639C97.6809-52.5505 97.1612-52.1055 95.7693-41.199C95.6703-40.4066 95.0759-39.7688 94.3454-39.7688Z"/>
</svg>