<svg xmlns="http://www.w3.org/2000/svg" viewBox="9.9974 -106.178 129.9 145">
  <path d="M118.288-31.9482L71.3254 14.952C59.5169 26.8474 43.6259 25.6296 33.4504 15.4107C23.2315 5.21035 22.0323-10.5938 33.8843-22.5077L97.6331-86.1947C104.726-93.2877 115.049-94.1334 121.7-87.5261C128.326-80.8318 127.443-70.5705 120.394-63.4775L57.7645-0.767793C54.9266 2.11341 51.4893 1.346 49.4496-0.631837C47.4903-2.65304 46.8096-6.00358 49.6475-8.88478L93.6652-52.884C95.8319-55.1126 95.9065-58.2701 93.8509-60.3442C91.7768-62.3379 88.5759-62.3066 86.3908-60.14L42.2057-15.9549C35.4493-9.11179 35.789 1.12964 41.7603 7.11942C48.2022 13.4995 57.9729 13.4737 64.816 6.67396L127.73-56.2835C139.9-68.4718 139.16-84.4599 128.733-94.9058C118.411-105.172 102.237-106.178 90.0489-93.9896L26.0023-29.8376C9.9974-13.8575 11.3376 8.85049 25.6741 23.187C40.0292 37.4802 62.7557 38.8204 78.7172 22.8774L125.897-24.302C128.008-26.3511 127.971-30.1154 125.835-32.109C123.835-34.2698 120.436-34.0343 118.288-31.9482Z" />
</svg>