<svg xmlns="http://www.w3.org/2000/svg" viewBox="11.2588 -100.266 130.04 129.99">
  <path d="M76.2549 29.7265C112.162 29.7265 141.294 0.637211 141.294-35.2697C141.294-71.1766 112.162-100.266 76.2549-100.266C40.3914-100.266 11.2588-71.1766 11.2588-35.2697C11.2588 0.637211 40.3914 29.7265 76.2549 29.7265ZM76.2549 17.0464C47.3321 17.0464 23.9637-6.34682 23.9637-35.2697C23.9637-64.1926 47.3321-87.5858 76.2549-87.5858C105.178-87.5858 128.571-64.1926 128.571-35.2697C128.571-6.34682 105.178 17.0464 76.2549 17.0464ZM62.534-6.52201C66.3541-6.52201 68.5581-9.01083 68.5581-13.0911L68.5581-24.8162L79.8984-24.8162C92.1935-24.8162 100.379-32.5806 100.379-44.3492C100.379-56.031 92.1874-63.9069 80.0161-63.9069L62.8313-63.9069C58.7573-63.9069 56.6399-61.3622 56.6399-57.183L56.6399-13.0911C56.6399-9.07899 58.7571-6.52201 62.534-6.52201ZM68.5581-33.706L68.5581-54.9923L78.3747-54.9923C84.9495-54.9923 88.9997-50.9609 88.9997-44.3306C88.9997-37.7559 84.9373-33.706 78.3747-33.706Z" />
</svg>