<svg xmlns="http://www.w3.org/2000/svg" viewBox="16.084 -96.5724 137.32 118.19">
  <path d="M131.144-52.3247C134.413-52.3247 136.586-54.1882 136.809-56.5716C136.827-56.9173 136.846-57.2447 136.864-57.5534C137.106-60.7816 139.371-62.9341 143.421-65.6365C149.787-69.7558 153.401-73.3808 153.401-80.3793C153.401-90.4601 144.249-96.5724 133.031-96.5724C122.396-96.5724 115.151-91.6245 113.238-85.594C112.854-84.5048 112.649-83.4896 112.649-82.3697C112.649-79.4477 114.891-77.5348 117.485-77.5348C119.695-77.5348 121.279-78.4322 122.388-80.0847L123.181-81.1926C124.983-84.7907 128.154-86.9701 132.202-86.9701C137.333-86.9701 140.771-83.9156 140.771-79.7231C140.771-75.8139 138.221-73.8106 132.834-70.0935C128.295-66.8898 125.243-63.6977 125.243-58.3396C125.243-58.0743 125.243-57.7409 125.243-57.4757C125.243-54.0828 127.367-52.3247 131.144-52.3247ZM131.057-33.132C135.074-33.132 138.292-35.9478 138.292-39.8162C138.292-43.7465 135.117-46.5439 131.057-46.5439C127.015-46.5439 123.784-43.7217 123.784-39.8162C123.784-35.9911 127.059-33.132 131.057-33.132ZM27.3025 21.6138L111.239 21.6138C118.262 21.6138 122.501 18.2109 122.501 12.6358C122.501-3.52269 101.906-25.7436 69.2798-25.7436C36.6968-25.7436 16.084-3.52269 16.084 12.6358C16.084 18.2109 20.3409 21.6138 27.3025 21.6138ZM69.3168-36.8908C83.2356-36.8908 94.7122-49.1089 94.7122-64.8593C94.7122-80.1403 83.143-92.1719 69.3168-92.1719C55.5339-92.1719 43.9462-79.9669 43.9462-64.7726C43.9462-49.1089 55.4413-36.8908 69.3168-36.8908Z"/>
</svg>