<svg xmlns="http://www.w3.org/2000/svg" viewBox="16.084 -93.9865 149.09 117.56">
  <path d="M105.705-55.9925L138.14-55.9925C140.301-55.9925 141.91-57.664 141.91-59.7874C141.91-61.8675 140.301-63.4585 138.14-63.4585L105.705-63.4585C103.545-63.4585 101.892-61.8675 101.892-59.7874C101.892-57.664 103.545-55.9925 105.705-55.9925ZM105.705-31.4193L138.14-31.4193C140.301-31.4193 141.91-33.0722 141.91-35.2142C141.91-37.2942 140.301-38.8852 138.14-38.8852L105.705-38.8852C103.545-38.8852 101.892-37.2942 101.892-35.2142C101.892-33.0722 103.545-31.4193 105.705-31.4193ZM105.705-6.88312L138.14-6.88312C140.301-6.88312 141.91-8.47413 141.91-10.5542C141.91-12.6776 140.301-14.3491 138.14-14.3491L105.705-14.3491C103.545-14.3491 101.892-12.6776 101.892-10.5542C101.892-8.47413 103.545-6.88312 105.705-6.88312ZM41.5438-6.88312L89.15-6.88312C91.3659-6.88312 92.4988-8.41211 92.4988-10.4855C92.4988-16.3307 83.9752-31.422 65.3562-31.422C46.7187-31.422 38.2198-16.3307 38.2198-10.4855C38.2198-8.41211 39.3094-6.88312 41.5438-6.88312ZM65.3562-35.6157C72.878-35.5724 78.9276-41.9747 78.9276-50.4367C78.9276-58.3976 72.878-65.0349 65.3562-65.0349C57.8158-65.0349 51.723-58.3976 51.723-50.4367C51.723-41.9747 57.8158-35.6157 65.3562-35.6157ZM36.6517 23.571L144.607 23.571C158.083 23.571 165.174 16.4431 165.174 3.13332L165.174-73.5488C165.174-86.8587 158.083-93.9865 144.607-93.9865L36.6517-93.9865C23.2182-93.9865 16.084-86.8956 16.084-73.5488L16.084 3.13332C16.084 16.4801 23.2182 23.571 36.6517 23.571ZM37.6298 11.1945C31.6387 11.1945 28.4171 8.13396 28.4171 1.93843L28.4171-72.354C28.4171-78.5929 31.6387-81.61 37.6298-81.61L143.628-81.61C149.546-81.61 152.841-78.5929 152.841-72.354L152.841 1.93843C152.841 8.13396 149.546 11.1945 143.628 11.1945Z"/>
</svg>