<svg xmlns="http://www.w3.org/2000/svg" viewBox="16.084 -104.914 144.28 139.29">
  <path d="M25.4176 26.8451L151.575 26.8451L151.575 18.4038C151.575 15.8218 149.996 14.2616 147.371 14.2616L143.87 14.2616L143.87-60.0237L149.313-60.0237C153.053-60.0237 155.22-62.7542 155.22-65.5216C155.22-67.5278 154.062-69.3603 151.653-70.8215L96.5408-102.6C94.0037-104.091 91.1695-104.914 88.4964-104.914C85.7799-104.914 82.9272-104.091 80.3902-102.6L25.2775-70.8215C22.8442-69.3603 21.7297-67.5278 21.7297-65.5216C21.7297-62.7542 23.8783-60.0237 27.6363-60.0237L33.1226-60.0237L33.1226 14.2616L29.6216 14.2616C26.9963 14.2616 25.4176 15.8218 25.4176 18.4038ZM21.6005 34.3748L154.829 34.3748C157.801 34.3748 160.364 31.8859 160.364 28.8149C160.364 25.806 157.801 23.2984 154.829 23.2984L21.6005 23.2984C18.6101 23.2984 16.084 25.806 16.084 28.8149C16.084 31.8673 18.6101 34.3748 21.6005 34.3748ZM75.4991 0.0909425C72.6142 0.0909425 70.8995-1.68563 70.8995-4.5706L70.8995-37.1516L66.8664-37.1516C65.74-37.1516 64.8364-38.0118 64.8364-39.0949C64.8364-40.1842 65.74-41.026 66.8664-41.026L70.8995-41.026L70.8995-53.1997C70.8995-56.233 72.6391-58.0345 75.6725-58.0345L91.4867-58.0345C102.165-58.0345 109.608-51.3089 110.536-41.026L113.919-41.026C115.089-41.026 115.931-40.1842 115.931-39.0949C115.931-38.0552 115.089-37.1516 113.919-37.1516L110.598-37.1516C109.843-26.5779 102.246-19.4251 91.1213-19.4251L80.0801-19.4251L80.0801-4.5706C80.0801-1.68563 78.3036 0.0909425 75.4991 0.0909425ZM80.0801-26.5191L89.004-26.5191C96.1354-26.5191 100.557-30.3231 101.17-37.1516L80.0801-37.1516ZM80.0801-41.026L101.108-41.026C100.285-47.446 95.7579-50.8227 89.1278-50.8227L80.0801-50.8227Z"/>
</svg>