<svg xmlns="http://www.w3.org/2000/svg" viewBox="24.7668 -108.317 98.74 149.6">
  <path d="M74.1149 41.288C75.8481 41.288 80.2065 32.4551 80.2065 24.5195L80.2065-12.1567L68.0668-12.1567L68.0668 24.5195C68.0668 32.4551 72.4251 41.288 74.1149 41.288ZM34.4029-6.81323L113.827-6.81323C119.7-6.81323 123.506-10.5083 123.506-16.0417C123.506-35.257 102.216-53.6822 74.1149-53.6822C46.057-53.6822 24.7668-35.257 24.7668-16.0417C24.7668-10.5083 28.5915-6.81323 34.4029-6.81323ZM37.1095-17.1216C35.9098-17.1216 35.3289-17.8265 35.5209-19.243C36.8712-31.1761 52.382-43.6835 74.1149-43.6835C95.9098-43.6835 111.359-31.1761 112.752-19.243C112.944-17.8265 112.32-17.1216 111.12-17.1216ZM33.0597-101.212C33.0597-99.1944 33.8828-96.9973 35.5415-94.8561C38.7397-90.6007 46.1875-84.7053 54.0405-79.5071L51.7451-45.1527L62.5676-45.1527L64.9-84.2195C64.9804-85.3149 64.7452-85.841 63.9344-86.2742C55.9715-90.419 49.2202-95.6731 48.155-97.3168C47.6781-98.0095 48.0926-98.6281 48.8283-98.6281L99.445-98.6281C100.156-98.6281 100.552-98.0095 100.137-97.3168C99.0097-95.6731 92.3018-90.419 84.314-86.2742C83.5466-85.841 83.3113-85.3149 83.3918-84.2195L85.7241-45.1527L96.5281-45.1527L94.1894-79.5071C102.061-84.7053 109.509-90.6007 112.707-94.8561C114.39-96.9973 115.214-99.1944 115.214-101.212C115.214-105.315 112.032-108.317 107.403-108.317L40.87-108.317C36.1976-108.317 33.0597-105.315 33.0597-101.212Z"/>
</svg>