<svg xmlns="http://www.w3.org/2000/svg" viewBox="16.084 -78.1989 138.22 85.78">
  <path d="M46.9998-23.1011L74.6074-23.1011C77.9785-23.1011 80.2118-25.3344 80.2118-28.8294L80.2118-41.8523C80.2118-45.3474 77.9785-47.5806 74.6074-47.5806L46.9998-47.5806C43.6287-47.5806 41.3954-45.3474 41.3954-41.8523L41.3954-28.8294C41.3954-25.3344 43.6287-23.1011 46.9998-23.1011ZM95.7765-23.1011L123.384-23.1011C126.755-23.1011 128.988-25.3344 128.988-28.8294L128.988-41.8523C128.988-45.3474 126.755-47.5806 123.384-47.5806L95.7765-47.5806C92.4054-47.5806 90.1721-45.3474 90.1721-41.8523L90.1721-28.8294C90.1721-25.3344 92.4054-23.1011 95.7765-23.1011ZM33.7049 7.57901L136.679 7.57901C147.345 7.57901 154.3 0.536639 154.3-10.259L154.3-59.9708C154.3-70.9894 147.363-78.1989 136.716-78.1989L33.7048-78.1989C23.0578-78.1989 16.1025-70.9894 16.1025-59.9708L16.084-10.259C16.084 0.536639 23.0209 7.57901 33.7049 7.57901ZM36.7888-4.75413C31.7077-4.75413 28.9185-7.68557 28.9185-12.903L28.9185-57.6984C28.9185-62.9343 31.689-65.8658 36.7702-65.8658L133.57-65.8658C138.713-65.8658 141.502-62.9343 141.502-57.6984L141.484-12.903C141.484-7.68557 138.658-4.75413 133.533-4.75413Z"/>
</svg>