<svg xmlns="http://www.w3.org/2000/svg" viewBox="16.084 -77.0645 252.02 75.27">
  <path d="M34.1992-1.79307L195.364-1.79307C206.227-1.79307 213.479-9.10084 213.479-19.9268L213.479-58.9059C213.479-69.7318 206.227-77.0645 195.364-77.0645L34.1992-77.0645C23.2929-77.0645 16.084-69.7688 16.084-58.9059L16.084-19.9268C16.084-9.06388 23.2929-1.79307 34.1992-1.79307ZM39.1726-23.7821C37.0315-23.7821 35.571-25.2177 35.571-27.3034L35.571-51.5727C35.571-53.7757 37.0315-55.1743 39.1726-55.1743L43.6502-55.1743C45.7359-55.1743 47.153-53.7757 47.153-51.5727L47.153-27.3034C47.153-25.2177 45.7359-23.7821 43.6502-23.7821ZM78.8594-18.8578C67.5131-18.8578 58.3319-28.0204 58.3319-39.3669C58.3319-50.6948 67.5131-59.9749 78.8594-59.9749C90.2059-59.9749 99.4304-50.6948 99.4304-39.3669C99.4304-28.0204 90.2059-18.8578 78.8594-18.8578ZM127.363-18.8578C116.06-18.8578 106.879-28.0204 106.879-39.3669C106.879-50.6948 116.06-59.9749 127.363-59.9749C138.734-59.9749 147.934-50.6948 147.934-39.3669C147.934-28.0204 138.734-18.8578 127.363-18.8578ZM175.872-18.8578C164.483-18.8578 155.407-28.0204 155.407-39.3669C155.407-50.6948 164.483-59.9749 175.872-59.9749C187.219-59.9749 196.443-50.6948 196.443-39.3669C196.443-28.0204 187.219-18.8578 175.872-18.8578ZM71.5214-28.8563C73.0559-28.8563 74.2438-30.0442 74.2438-31.5538L74.2438-47.1613C74.2438-48.708 73.0559-50.0013 71.5214-50.0013C69.9932-50.0013 68.6381-48.6461 68.6381-47.1613L68.6381-31.5538C68.6381-30.1061 69.9932-28.8563 71.5214-28.8563ZM86.2594-28.8563C87.7876-28.8563 89.0189-30.0442 89.0189-31.5538L89.0189-47.1613C89.0189-48.708 87.7876-50.0013 86.2594-50.0013C84.6446-50.0013 83.3513-48.708 83.3513-47.1613L83.3513-31.5538C83.3513-30.0442 84.7065-28.8563 86.2594-28.8563ZM119.988-28.8563C121.603-28.8563 122.79-30.0442 122.79-31.5538L122.79-47.1613C122.79-48.708 121.603-50.0013 119.988-50.0013C118.435-50.0013 117.166-48.6461 117.166-47.1613L117.166-31.5538C117.166-30.0442 118.435-28.8563 119.988-28.8563ZM134.744-28.8563C136.272-28.8563 137.522-30.0442 137.522-31.5538L137.522-47.1613C137.522-48.708 136.334-50.0013 134.744-50.0013C133.191-50.0013 131.923-48.708 131.923-47.1613L131.923-31.5538C131.923-30.0442 133.191-28.8563 134.744-28.8563ZM168.516-28.8563C170.069-28.8563 171.319-30.0442 171.319-31.5538L171.319-47.1613C171.319-48.708 170.131-50.0013 168.516-50.0013C166.963-50.0013 165.694-48.6461 165.694-47.1613L165.694-31.5538C165.694-30.0442 166.963-28.8563 168.516-28.8563ZM183.272-28.8563C184.8-28.8563 186.032-30.0442 186.032-31.5538L186.032-47.1613C186.032-48.708 184.8-50.0013 183.272-50.0013C181.657-50.0013 180.346-48.708 180.346-47.1613L180.346-31.5538C180.346-30.0442 181.719-28.8563 183.272-28.8563ZM209.809-17.0824L220.018-17.0824C224.978-17.0824 228.542-20.6895 228.542-25.6502L228.542-53.2258C228.542-58.1866 224.978-61.7937 220.018-61.7937L209.809-61.7937ZM226.735-33.4863L268.104-33.4863L268.104-44.3336L226.735-44.3336Z"/>
</svg>