<svg xmlns="http://www.w3.org/2000/svg" viewBox="16.084 -94.0051 117.51 117.56">
  <path d="M52.2699-6.5032L97.8437-6.5032C101.612-6.5032 104.267-9.15807 104.267-12.9452L104.267-57.5074C104.267-61.2946 101.612-63.9495 97.8437-63.9495L52.2699-63.9495C48.5447-63.9495 45.8279-61.2946 45.8279-57.5074L45.8279-12.9452C45.8279-9.15807 48.5447-6.5032 52.2699-6.5032ZM55.3778-38.5721C54.3257-39.5687 54.3442-40.8992 55.3778-41.9762L63.7482-50.2845C64.8003-51.343 66.125-51.3679 67.14-50.3279L69.1945-48.304C70.2962-47.2642 70.1973-45.8718 69.176-44.8133L60.7686-36.5668C59.7722-35.4651 58.4289-35.4651 57.4822-36.5668ZM92.6748-36.5668C91.7032-35.4651 90.3414-35.465 89.3264-36.5668L80.9191-44.8133C79.8607-45.9088 79.8792-47.2642 80.9005-48.304L82.9984-50.3648C83.9886-51.4419 85.3318-51.343 86.4088-50.303L94.7357-41.9762C95.8312-40.8807 95.8311-39.5687 94.7542-38.5721ZM73.6179-16.0024C72.2377-16.0024 71.2226-16.9741 71.2226-18.3294L71.2226-29.1292C71.2226-30.5714 72.2376-31.5863 73.6179-31.5863L76.4957-31.5863C77.876-31.5863 78.9529-30.5714 78.9529-29.1292L78.9529-18.3294C78.9529-16.9307 77.8759-16.0024 76.4957-16.0024ZM36.6517 23.5524L113.03 23.5524C126.507 23.5524 133.598 16.4246 133.598 3.11475L133.598-73.5674C133.598-86.8772 126.507-94.0051 113.03-94.0051L36.6517-94.0051C23.2182-94.0051 16.084-86.9142 16.084-73.5674L16.084 3.11475C16.084 16.4615 23.2182 23.5524 36.6517 23.5524ZM37.6298 11.1759C31.6387 11.1759 28.4171 8.11539 28.4171 1.91986L28.4171-72.3725C28.4171-78.6114 31.6387-81.6286 37.6298-81.6286L112.052-81.6286C117.97-81.6286 121.265-78.6114 121.265-72.3725L121.265 1.91986C121.265 8.11539 117.97 11.1759 112.052 11.1759Z" />
</svg>