<svg xmlns="http://www.w3.org/2000/svg" viewBox="16.084 -94.0051 117.51 117.56">
  <path d="M55.1623-53.9411C51.0267-53.9411 49.3806-52.3003 47.0468-49.9234L36.6937-39.3985C34.3662-37.071 34.3663-33.5921 36.6938-31.2462L47.0654-20.616C49.3991-18.2391 51.3551-16.5983 55.1623-16.5983L94.5198-16.5983C98.327-16.5983 100.283-18.2391 102.617-20.616L113.007-31.2462C115.316-33.5921 115.316-37.071 113.007-39.3985L102.635-49.9234C100.302-52.3003 98.6739-53.9411 94.5198-53.9411ZM53.1056-41.0984C56.3541-41.0984 58.9529-38.4129 58.9529-35.2511C58.9529-32.1079 56.3541-29.4224 53.1056-29.4224C49.9808-29.4224 47.3821-32.1079 47.3821-35.2511C47.3821-38.4129 49.9808-41.0984 53.1056-41.0984ZM74.8627-36.712C78.0245-36.712 80.6667-34.1133 80.6667-30.8833C80.6667-27.7215 78.0245-25.0978 74.8627-25.0978C71.6576-25.0978 69.0339-27.7215 69.0339-30.8833C69.0339-34.1133 71.6576-36.712 74.8627-36.712ZM96.5765-41.0984C99.7013-41.0984 102.343-38.4129 102.343-35.2511C102.343-32.1079 99.7013-29.4224 96.5765-29.4224C93.328-29.4224 90.7292-32.1079 90.7292-35.2511C90.7292-38.4129 93.328-41.0984 96.5765-41.0984ZM36.6517 23.5524L113.03 23.5524C126.507 23.5524 133.598 16.4246 133.598 3.11475L133.598-73.5674C133.598-86.8772 126.507-94.0051 113.03-94.0051L36.6517-94.0051C23.2182-94.0051 16.084-86.9142 16.084-73.5674L16.084 3.11475C16.084 16.4615 23.2182 23.5524 36.6517 23.5524ZM37.6298 11.1759C31.6387 11.1759 28.4171 8.11539 28.4171 1.91986L28.4171-72.3725C28.4171-78.6114 31.6387-81.6286 37.6298-81.6286L112.052-81.6286C117.97-81.6286 121.265-78.6114 121.265-72.3725L121.265 1.91986C121.265 8.11539 117.97 11.1759 112.052 11.1759Z" />
</svg>