<svg xmlns="http://www.w3.org/2000/svg" viewBox="11.2588 -100.266 130.04 129.99">
  <path d="M48.2878-25.9127C41.3338-25.9127 35.7099-31.5799 35.7099-38.4906C35.7099-45.4695 41.3338-51.0685 48.2878-51.0685C55.2419-51.0685 60.8657-45.4695 60.8657-38.4906C60.8657-31.5799 55.2419-25.9127 48.2878-25.9127ZM104.265-25.9127C97.3113-25.9127 91.6441-31.5799 91.6441-38.4906C91.6441-45.4695 97.3113-51.0685 104.265-51.0685C111.219-51.0685 116.843-45.4695 116.843-38.4906C116.843-31.5799 111.219-25.9127 104.265-25.9127ZM76.2549 3.90066C69.3442 3.90066 63.677-1.69837 63.677-8.67725C63.677-15.5695 69.3442-21.2367 76.2549-21.2367C83.209-21.2367 88.8762-15.5695 88.8762-8.67725C88.8762-1.69837 83.209 3.90066 76.2549 3.90066ZM76.2549 29.7265C112.125 29.7265 141.294 0.556883 141.294-35.2697C141.294-71.0963 112.125-100.266 76.2549-100.266C40.4284-100.266 11.2588-71.0963 11.2588-35.2697C11.2588 0.556883 40.4284 29.7265 76.2549 29.7265Z"/>
</svg>