<svg xmlns="http://www.w3.org/2000/svg" viewBox="16.084 -94.5939 144.16 117.4">
  <path d="M36.6517 22.8038L140.937 22.8038C153.157 22.8038 160.248 15.6759 160.248 2.36609L160.248-62.4955C160.248-75.8053 153.113-82.8898 139.68-82.8898L81.6387-82.8898C76.8645-82.8898 74.1237-83.9233 70.5111-86.8797L67.0649-89.7252C62.5486-93.4613 59.3863-94.5939 52.6433-94.5939L34.852-94.5939C23.0647-94.5939 16.084-87.7557 16.084-74.7478L16.084 2.36609C16.084 15.7129 23.2182 22.8038 36.6517 22.8038ZM86.851-18.3829C83.1794-18.3829 81.118-20.0791 81.118-23.3852C81.118-23.6505 81.118-23.9654 81.118-24.212C81.118-29.44 84.0391-32.502 88.4548-35.6004C93.6933-39.2123 96.1558-41.1473 96.1558-44.9513C96.1558-48.9702 92.8048-51.938 87.8223-51.938C83.8615-51.938 80.8394-49.7835 79.0801-46.334L78.3306-45.2261C77.2467-43.6603 75.7425-42.7629 73.6379-42.7629C71.0875-42.7629 68.9513-44.6324 68.9513-47.3873C68.9513-48.5506 69.1557-49.5223 69.4777-50.5681C71.3473-56.45 78.3386-61.2058 88.6766-61.2058C99.5346-61.2058 108.408-55.2855 108.408-45.5641C108.408-38.7825 104.862-35.3061 98.7075-31.3107C94.7621-28.695 92.6026-26.5858 92.3426-23.4444C92.324-23.1791 92.3054-22.8084 92.2869-22.5245C92.0826-20.166 89.9962-18.3829 86.851-18.3829ZM86.7643 0.171693C82.8713 0.171693 79.7457-2.58216 79.7457-6.32046C79.7457-10.0402 82.8713-12.8375 86.7643-12.8375C90.6758-12.8375 93.7458-10.065 93.7458-6.32046C93.7458-2.53879 90.6325 0.171693 86.7643 0.171693Z"/>
</svg>