<svg xmlns="http://www.w3.org/2000/svg" viewBox="16.084 -97.7622 141.26 132.5">
  <path d="M56.3913 34.7392C59.8398 34.7392 62.4585 33.1295 66.5824 29.4824L88.2818 10.4604L128.253 10.4604C146.632 10.4604 157.342-0.460212 157.342-18.6285L157.342-68.6732C157.342-86.8415 146.632-97.7622 128.253-97.7622L45.1729-97.7622C26.7942-97.7622 16.084-86.8785 16.084-68.6732L16.084-18.6285C16.084-0.423249 27.1657 10.4604 44.6157 10.4604L48.5038 10.4604L48.5038 25.8672C48.5038 31.3464 51.4506 34.7392 56.3913 34.7392ZM59.4067 20.9633L59.4067 3.01837C59.4067-0.535472 57.8466-1.87269 54.5156-1.87269L45.6928-1.87269C34.1927-1.87269 28.4171-7.89603 28.4171-19.1484L28.4171-68.1533C28.4171-79.3808 34.1927-85.3857 45.6928-85.3857L127.733-85.3857C139.159-85.3857 145.009-79.3808 145.009-68.1533L145.009-19.1484C145.009-7.89603 139.159-1.87269 127.733-1.87269L87.6184-1.87269C83.9598-1.87269 82.208-1.21661 79.559 1.42654ZM85.3733-31.4919C88.5682-31.4919 90.6855-33.2998 90.8898-35.6893C90.9084-35.9732 90.927-36.3439 90.927-36.6092C91.1499-39.8622 93.3341-41.9775 97.3725-44.618C103.583-48.6879 107.204-52.2572 107.204-59.1009C107.204-69.0392 98.1997-75.0215 87.2238-75.0215C76.7742-75.0215 69.6774-70.1479 67.8202-64.204C67.4363-63.1767 67.2505-62.1617 67.2505-61.0355C67.2505-58.2311 69.4176-56.3491 71.9371-56.3491C74.0913-56.3491 75.5954-57.2713 76.6856-58.8867L77.46-59.9761C79.2874-63.4936 82.3776-65.6545 86.4066-65.6545C91.544-65.6545 94.9446-62.6556 94.9446-58.5066C94.9446-54.6531 92.4511-52.6684 87.1382-48.9822C82.6296-45.859 79.6155-42.7226 79.6155-37.4017C79.6155-37.1364 79.6155-36.8215 79.6155-36.5563C79.6155-33.1944 81.6832-31.4919 85.3733-31.4919ZM85.2867-12.6707C89.1673-12.6707 92.3116-15.4122 92.3116-19.2497C92.3116-23.0686 89.2106-25.8288 85.2867-25.8288C81.3564-25.8288 78.1999-23.0438 78.1999-19.2497C78.1999-15.4556 81.3998-12.6707 85.2867-12.6707Z"/>
</svg>