<svg xmlns="http://www.w3.org/2000/svg" viewBox="16.084 -122.456 149.09 146.03">
  <path d="M132.43-49.3329C126.918-49.2525 122.376-53.8003 122.376-59.27C122.376-64.7582 126.918-69.405 132.43-69.3245C138.005-69.2441 142.466-64.7396 142.466-59.27C142.466-53.8189 138.024-49.4133 132.43-49.3329ZM132.43-20.9889C126.918-20.9889 122.376-25.5119 122.376-31.0434C122.376-36.5564 126.918-41.061 132.43-41.061C138.005-41.061 142.466-36.5749 142.466-31.0434C142.466-25.4934 137.987-20.9889 132.43-20.9889ZM75.4786-61.4176C72.7625-61.4176 70.6157-63.6696 70.6157-66.4413C70.6157-69.0955 72.7625-71.3042 75.4786-71.3042C78.1513-71.3042 80.3415-69.0955 80.3415-66.4413C80.3415-63.6696 78.1699-61.4176 75.4786-61.4176ZM91.0242-57.0126C88.3885-57.0126 86.2602-59.2832 86.2602-61.9374C86.2602-64.7091 88.37-66.9427 91.0242-66.9427C93.8392-66.9427 95.9491-64.7091 95.9491-61.9374C95.9491-59.2832 93.8207-57.0126 91.0242-57.0126ZM102.771-45.858C100.117-45.858 98.0505-48.0112 98.0505-50.7024C98.0505-53.499 100.117-55.7511 102.771-55.7511C105.481-55.7511 107.733-53.499 107.733-50.7024C107.733-48.0112 105.481-45.858 102.771-45.858ZM106.749-30.8198C104.058-30.8198 101.868-32.9729 101.868-35.6642C101.868-38.3555 104.058-40.5271 106.749-40.5271C109.403-40.5271 111.575-38.3555 111.575-35.6642C111.575-32.9729 109.403-30.8198 106.749-30.8198ZM102.771-15.5958C100.117-15.5958 98.0505-17.8479 98.0505-20.626C98.0505-23.3173 100.117-25.4889 102.771-25.4889C105.481-25.4889 107.733-23.3173 107.733-20.626C107.733-17.8665 105.462-15.5958 102.771-15.5958ZM91.0242-3.99124C88.37-3.99124 86.2602-6.20631 86.2602-8.97801C86.2602-11.6322 88.3885-13.9028 91.0242-13.9028C93.8207-13.9028 95.9491-11.6322 95.9491-8.97801C95.9491-6.20631 93.8392-3.99124 91.0242-3.99124ZM75.4786 0.801751C72.7625 0.801751 70.6157-1.36355 70.6157-4.06114C70.6157-6.83284 72.7625-9.08488 75.4786-9.08488C78.1699-9.08488 80.3415-6.83284 80.3415-4.06114C80.3415-1.36355 78.1513 0.801751 75.4786 0.801751ZM59.8712-3.99124C57.1428-3.99124 55.0331-6.20631 55.0331-8.97801C55.0331-11.6322 57.1614-13.9028 59.8712-13.9028C62.5254-13.9028 64.6352-11.6322 64.6352-8.97801C64.6352-6.20631 62.544-3.99124 59.8712-3.99124ZM48.1242-15.5958C45.4515-15.5958 43.2242-17.8665 43.2242-20.626C43.2242-23.3173 45.4515-25.4889 48.1242-25.4889C50.7784-25.4889 52.8882-23.3173 52.8882-20.626C52.8882-17.8479 50.7784-15.5958 48.1242-15.5958ZM44.1648-30.8198C41.5353-30.8198 39.3637-32.9729 39.3637-35.6642C39.3637-38.3555 41.5353-40.5271 44.1648-40.5271C46.8561-40.5271 49.071-38.3555 49.071-35.6642C49.071-32.9729 46.8561-30.8198 44.1648-30.8198ZM48.1242-45.858C45.4515-45.858 43.2242-48.0112 43.2242-50.7024C43.2242-53.499 45.4515-55.7511 48.1242-55.7511C50.7784-55.7511 52.8882-53.499 52.8882-50.7024C52.8882-48.0112 50.7784-45.858 48.1242-45.858ZM59.8712-57.0126C57.1614-57.0126 55.0331-59.2832 55.0331-61.9374C55.0331-64.7091 57.1428-66.9427 59.8712-66.9427C62.544-66.9427 64.6352-64.7091 64.6352-61.9374C64.6352-59.2832 62.5254-57.0126 59.8712-57.0126ZM75.4786-45.4266C72.7625-45.4266 70.6157-47.5982 70.6157-50.2895C70.6157-53.086 72.7625-55.2947 75.4786-55.2947C78.1699-55.2947 80.3415-53.086 80.3415-50.2895C80.3415-47.5982 78.1699-45.4266 75.4786-45.4266ZM89.9662-39.0797C87.312-39.0797 85.0847-41.3689 85.0847-43.9612C85.0847-46.6588 87.312-48.9046 89.9662-48.9046C92.6389-48.9046 94.7672-46.6773 94.7672-43.9612C94.7672-41.3317 92.6389-39.0797 89.9662-39.0797ZM89.9662-21.5544C87.2934-21.5544 85.0847-23.7816 85.0847-26.4978C85.0847-29.2324 87.2934-31.4411 89.9662-31.4411C92.6575-31.4411 94.7672-29.2324 94.7672-26.4978C94.7672-23.7816 92.6575-21.5544 89.9662-21.5544ZM75.4786-15.1644C72.7625-15.1644 70.6157-17.4783 70.6157-20.213C70.6157-22.9043 72.7625-25.0759 75.4786-25.0759C78.1699-25.0759 80.3415-22.9043 80.3415-20.213C80.3415-17.4783 78.1513-15.1644 75.4786-15.1644ZM60.9477-21.5544C58.2564-21.5544 56.1715-23.7816 56.1715-26.4978C56.1715-29.2324 58.2564-31.4411 60.9477-31.4411C63.6453-31.4411 65.9159-29.2324 65.9159-26.4978C65.9159-23.7816 63.6453-21.5544 60.9477-21.5544ZM60.9477-39.0797C58.275-39.0797 56.1715-41.3317 56.1715-43.9612C56.1715-46.6773 58.275-48.9046 60.9477-48.9046C63.6267-48.9046 65.9159-46.6588 65.9159-43.9612C65.9159-41.3689 63.6267-39.0797 60.9477-39.0797ZM75.4786-30.3883C72.7625-30.3883 70.6157-32.5599 70.6157-35.2512C70.6157-37.9425 72.7625-40.1141 75.4786-40.1141C78.1699-40.1141 80.3415-37.9425 80.3415-35.2512C80.3415-32.5599 78.1699-30.3883 75.4786-30.3883ZM136.906-82.316L140.36-93.0333L52.7568-121.49C49.816-122.456 46.584-120.803 45.6987-117.856C44.7081-114.971 46.3425-111.782 49.2711-110.773ZM36.6517 23.571L144.607 23.571C158.083 23.571 165.174 16.4431 165.174 3.13332L165.174-73.5488C165.174-86.8587 158.083-93.9865 144.607-93.9865L36.6517-93.9865C23.2182-93.9865 16.084-86.8956 16.084-73.5488L16.084 3.13332C16.084 16.4801 23.2182 23.571 36.6517 23.571Z"/>
</svg>