<svg xmlns="http://www.w3.org/2000/svg" viewBox="16.084 -91.0683 146.15 111.63">
  <path d="M68.2916 20.566L110.006 20.566C146.565 20.566 162.233 4.10966 162.233-30.9474L162.233-71.0137C162.233-84.0207 155.135-91.0683 142.005-91.0683L36.312-91.0683C23.1379-91.0683 16.084-84.0577 16.084-71.0137L16.084-30.9474C16.084 4.10966 31.7515 20.566 68.2916 20.566ZM68.6442 8.18949C40.339 8.18949 28.4171-4.0937 28.4171-30.6806L28.4171-69.7755C28.4171-75.6868 31.5337-78.6917 37.3334-78.6917L140.983-78.6917C146.665-78.6917 149.856-75.6868 149.856-69.7755L149.856-30.6806C149.856-4.0937 137.959 8.18949 109.672 8.18949ZM60.4069-9.45466C63.3105-9.45466 65.0005-11.3861 65.0005-14.333L65.0005-29.2596L70.4948-29.2596L76.6712-13.2995C77.5874-10.8293 79.0236-9.45466 81.4939-9.45466C83.7656-9.45466 85.8769-10.9896 85.8397-14.0049C85.8211-14.8097 85.5053-15.8498 85.0037-17.0574L79.2174-31.2032C83.9494-33.7469 86.1127-39.0246 86.1127-44.6641C86.1127-54.7433 80.2408-60.1495 70.5461-60.1495L60.3451-60.1495C57.3427-60.1495 55.6896-58.3419 55.6896-55.3579L55.6896-14.333C55.6896-11.4109 57.3796-9.45466 60.4069-9.45466ZM65.0005-35.9634L65.0005-52.9194L69.6919-52.9194C74.2304-52.9194 76.7276-49.2635 76.7276-44.5032C76.7276-39.7419 74.6009-35.9634 69.6918-35.9634ZM98.6903-10.1977L111.695-10.1977C120.313-10.1977 125.144-16.1369 125.144-24.2655C125.144-30.3834 121.494-35.9014 115.729-36.4454L115.729-36.7301C120.443-37.5527 123.691-42.6745 123.691-47.7096C123.691-55.4742 118.654-60.1439 111.293-60.1439L98.6903-60.1439C95.6507-60.1439 94.0967-58.07 94.0967-55.2841L94.0967-15.0326C94.0967-12.16 95.694-10.1977 98.6903-10.1977ZM103.241-38.9833L103.241-53.1738L108.63-53.1738C113.058-53.1738 114.851-50.2797 114.851-46.267C114.851-41.8149 112.452-38.9833 107.999-38.9833ZM103.241-17.1245L103.241-32.8492L108.556-32.8492C113.044-32.8492 115.895-30.1784 115.895-25.058C115.895-20.2412 113.571-17.1245 108.772-17.1245Z"/>
</svg>