<svg xmlns="http://www.w3.org/2000/svg" viewBox="16.084 -94.0051 117.51 117.56">
  <path d="M36.6517 23.5524L113.03 23.5524C126.507 23.5524 133.598 16.4246 133.598 3.11475L133.598-73.5674C133.598-86.8772 126.507-94.0051 113.03-94.0051L36.6517-94.0051C23.2182-94.0051 16.084-86.9142 16.084-73.5674L16.084 3.11475C16.084 16.4615 23.2182 23.5524 36.6517 23.5524ZM37.6298 11.1759C31.6387 11.1759 28.4171 8.11539 28.4171 1.91986L28.4171-72.3725C28.4171-78.6114 31.6387-81.6286 37.6298-81.6286L112.052-81.6286C117.97-81.6286 121.265-78.6114 121.265-72.3725L121.265 1.91986C121.265 8.11539 117.97 11.1759 112.052 11.1759ZM74.1014-5.99595C88.5051-5.99595 97.8478-12.9747 97.8478-23.9074C97.8478-32.2914 92.1793-37.0187 81.1678-39.6042L73.2316-41.5402C66.8993-43.0303 64.5124-45.0151 64.5124-48.5397C64.5124-53.1523 68.5421-56.2485 74.5401-56.2485C80.1978-56.2485 83.9004-53.993 86.1103-49.4172C87.5096-47.3809 88.8282-46.4524 91.2117-46.4524C94.0717-46.4524 96.0405-48.0249 96.0405-50.9716C96.0405-51.9867 95.7805-53.0883 95.2419-54.3014C92.7664-60.6289 85.0331-65.1509 74.8002-65.1509C61.6213-65.1509 52.6127-58.0543 52.6127-47.7776C52.6127-39.6723 57.9158-34.8772 67.9135-32.5077L76.1037-30.4539C83.6174-28.5677 86.1028-26.8681 86.1028-22.8921C86.1028-18.081 81.2004-15.1212 74.8748-15.1212C68.8153-15.1212 64.513-17.4692 62.0246-22.1251C60.6994-24.0625 59.2632-24.9476 57.1213-24.9476C54.1311-24.9476 52.1376-23.0902 52.1376-20.1992C52.1376-19.0727 52.3976-17.9832 52.9424-16.8756C55.294-10.9015 63.0573-5.99595 74.1014-5.99595Z" />
</svg>