<svg xmlns="http://www.w3.org/2000/svg" viewBox="16.084 -104.914 144.28 139.29">
  <path d="M25.4176 18.4732L151.575 18.4732L151.575 13.8244C151.575 11.2239 149.996 9.68217 147.371 9.68217L143.87 9.68217L143.87-60.0237L149.313-60.0237C153.053-60.0237 155.22-62.7542 155.22-65.5216C155.22-67.5278 154.062-69.3603 151.653-70.8215L96.5408-102.6C94.0037-104.091 91.1695-104.914 88.4964-104.914C85.7799-104.914 82.9272-104.091 80.3902-102.6L25.2775-70.8215C22.8442-69.3603 21.7297-67.5278 21.7297-65.5216C21.7297-62.7542 23.8783-60.0237 27.6363-60.0237L33.1226-60.0237L33.1226 9.68217L29.6216 9.68217C26.9963 9.68217 25.4176 11.2239 25.4176 13.8244ZM43.1895 9.68217L43.1895-68.2488L86.1602-92.3654C86.8771-92.7858 87.7177-93.0268 88.4964-93.0268C89.2503-93.0268 90.0538-92.7858 90.7707-92.3654L133.847-68.2488L133.847 9.68217ZM21.6005 34.3748L154.829 34.3748C157.801 34.3748 160.364 31.8859 160.364 28.8149C160.364 25.806 157.801 23.2984 154.829 23.2984L21.6005 23.2984C18.6101 23.2984 16.084 25.806 16.084 28.8149C16.084 31.8673 18.6101 34.3748 21.6005 34.3748ZM65.365-8.43536C67.5874-8.43536 68.875-9.9025 68.875-12.2302L68.875-55.6223L82.5867-55.6223C89.6813-55.6223 92.6886-53.7305 92.6886-45.9427L92.6886-28.3594C92.6886-26.0876 94.0133-24.639 96.1676-24.639C98.2848-24.639 99.6529-26.0876 99.6529-28.3594L99.6529-47.5769C99.6529-58.1824 95.1471-63.0695 84.5861-63.0695L67.5442-63.0695C63.7741-63.0695 61.7435-61.1876 61.7435-57.4174L61.7435-12.2302C61.7435-9.86536 63.0744-8.43536 65.365-8.43536ZM82.4286-8.91193L100.295-8.91193C111.097-8.91193 115.206-14.5054 115.206-25.3078L115.206-59.6645C115.206-62.054 113.844-63.5646 111.653-63.5646C109.418-63.5646 108.031-62.054 108.031-59.6645L108.031-26.2676C108.031-18.5418 106.331-16.3777 98.605-16.3777L84.2237-16.3777L84.2237-43.566C84.2237-45.8565 83.0289-47.3422 80.8252-47.3422C78.5966-47.3422 77.2779-45.8565 77.2779-43.566L77.2779-13.8705C77.2779-10.5586 79.3953-8.91193 82.4286-8.91193Z"/>
</svg>