<svg xmlns="http://www.w3.org/2000/svg" viewBox="11.2588 -100.266 130.04 129.99">
  <path d="M76.2549 29.7265C112.162 29.7265 141.294 0.637211 141.294-35.2697C141.294-71.1766 112.162-100.266 76.2549-100.266C40.3914-100.266 11.2588-71.1766 11.2588-35.2697C11.2588 0.637211 40.3914 29.7265 76.2549 29.7265ZM76.2549 17.0464C47.3321 17.0464 23.9637-6.34682 23.9637-35.2697C23.9637-64.1926 47.3321-87.5858 76.2549-87.5858C105.178-87.5858 128.571-64.1926 128.571-35.2697C128.571-6.34682 105.178 17.0464 76.2549 17.0464ZM76.2549 1.93445C96.8181 1.93445 113.441-14.7314 113.441-35.2511C113.441-55.7709 96.8181-72.4367 76.2549-72.4367C55.7352-72.4367 39.0942-55.7709 39.0942-35.2511C39.0942-14.7314 55.7352 1.93445 76.2549 1.93445ZM48.6532-35.2511C48.6532-50.527 61.0224-62.9396 76.2983-62.9396C91.5742-62.9396 103.987-50.527 103.987-35.2511C103.987-32.2102 103.406-29.2802 102.411-26.5542L50.2286-26.5542C49.1907-29.2802 48.6532-32.2102 48.6532-35.2511ZM54.779-18.0479L97.861-18.0479C92.8699-11.68 85.0787-7.56269 76.2983-7.56269C67.5613-7.56269 59.7267-11.68 54.779-18.0479Z" />
</svg>