<svg xmlns="http://www.w3.org/2000/svg" viewBox="14.4756 -97.939 124.27 125.38">
  <path d="M14.4756-46.7675C14.4756-18.5184 37.4163 4.379 65.6655 4.379C76.0203 4.379 85.5648 1.22498 93.514-4.17411L122.327 24.7007C124.184 26.5332 126.667 27.4429 129.229 27.4429C134.751 27.4429 138.744 23.2337 138.744 17.8232C138.744 15.2912 137.803 12.9079 136.045 11.0446L107.393-17.6506C113.318-25.8227 116.794-35.8683 116.794-46.7675C116.794-74.9982 93.8962-97.939 65.6655-97.939C37.4163-97.939 14.4756-74.9982 14.4756-46.7675ZM27.5396-46.7675C27.5396-67.7914 44.6231-84.8749 65.6655-84.8749C86.6646-84.8749 103.773-67.7914 103.773-46.7675C103.773-25.7686 86.6646-8.64169 65.6655-8.64169C44.6231-8.64169 27.5396-25.7686 27.5396-46.7675ZM65.7088-20.957C66.7918-20.957 67.5843-21.7864 67.832-22.8509C70.659-39.8855 72.2861-42.3933 89.4952-44.6443C90.7269-44.8053 91.4945-45.6782 91.4945-46.8046C91.4945-47.9189 90.7084-48.7113 89.4952-48.9156C72.4223-51.2284 70.4414-53.7738 67.832-70.6593C67.6277-71.792 66.7733-72.603 65.7088-72.603C64.5391-72.603 63.7282-71.8168 63.4805-70.6407C60.6045-53.6563 59.0884-51.2656 41.8172-48.9156C40.666-48.7113 39.8365-47.9189 39.8365-46.8046C39.8365-45.6782 40.6474-44.8301 41.7986-44.6443C59.0881-42.9782 61.0004-39.8298 63.4805-22.8943C63.6848-21.805 64.5143-20.957 65.7088-20.957Z"/>
</svg>