<svg xmlns="http://www.w3.org/2000/svg" viewBox="16.084 -98.6954 129.87 126.79">
  <path d="M27.365-61.3267L42.1717-61.3267C49.2631-61.3267 53.4527-65.5108 53.4527-72.8555L53.4527-87.1666C53.4527-94.5114 49.2631-98.6954 42.1717-98.6954L27.365-98.6954C20.2921-98.6954 16.084-94.5114 16.084-87.1666L16.084-72.8555C16.084-65.5108 20.2921-61.3267 27.365-61.3267ZM28.845-70.7123C26.6198-70.7123 25.5129-71.8811 25.5129-74.2735L25.5129-85.8106C25.5129-88.0976 26.6198-89.2665 28.845-89.2665L40.6298-89.2665C42.8735-89.2665 44.0238-88.0976 44.0238-85.8106L44.0238-74.2735C44.0238-71.8811 42.8735-70.7123 40.6298-70.7123ZM73.5763-61.3267L88.4263-61.3267C95.5177-61.3267 99.664-65.5108 99.664-72.8555L99.664-87.1666C99.664-94.5114 95.5177-98.6954 88.4263-98.6954L73.5763-98.6954C66.5034-98.6954 62.3386-94.5114 62.3386-87.1666L62.3386-72.8555C62.3386-65.5108 66.5034-61.3267 73.5763-61.3267ZM75.0562-70.7123C72.8062-70.7123 71.7242-71.8811 71.7242-74.2735L71.7242-85.8106C71.7242-88.0976 72.8062-89.2665 75.0562-89.2665L86.9029-89.2665C89.1281-89.2665 90.235-88.0976 90.235-85.8106L90.235-74.2735C90.235-71.8811 89.1281-70.7123 86.9029-70.7123ZM119.868-61.3267L134.718-61.3267C141.748-61.3267 145.956-65.5108 145.956-72.8555L145.956-87.1666C145.956-94.5114 141.748-98.6954 134.718-98.6954L119.868-98.6954C112.82-98.6954 108.587-94.5114 108.587-87.1666L108.587-72.8555C108.587-65.5108 112.82-61.3267 119.868-61.3267ZM121.329-70.7123C119.123-70.7123 118.016-71.8811 118.016-74.2735L118.016-85.8106C118.016-88.0976 119.123-89.2665 121.329-89.2665L133.176-89.2665C135.42-89.2665 136.527-88.0976 136.527-85.8106L136.527-74.2735C136.527-71.8811 135.42-70.7123 133.176-70.7123ZM27.365-16.6291L42.1717-16.6291C49.2631-16.6291 53.4527-20.7449 53.4527-28.0711L53.4527-42.469C53.4527-49.8137 49.2631-53.9544 42.1717-53.9544L27.365-53.9544C20.2921-53.9544 16.084-49.8137 16.084-42.469L16.084-28.0711C16.084-20.7449 20.2921-16.6291 27.365-16.6291ZM28.845-26.0146C26.6198-26.0146 25.5129-27.1586 25.5129-29.5325L25.5129-41.1314C25.5129-43.4 26.6198-44.5255 28.845-44.5255L40.6298-44.5255C42.8735-44.5255 44.0238-43.4 44.0238-41.1314L44.0238-29.5325C44.0238-27.1586 42.8735-26.0146 40.6298-26.0146ZM73.5763-16.6291L88.4263-16.6291C95.5177-16.6291 99.664-20.7449 99.664-28.0711L99.664-42.469C99.664-49.8137 95.5177-53.9544 88.4263-53.9544L73.5763-53.9544C66.5034-53.9544 62.3386-49.8137 62.3386-42.469L62.3386-28.0711C62.3386-20.7449 66.5034-16.6291 73.5763-16.6291ZM75.0562-26.0146C72.8062-26.0146 71.7242-27.1586 71.7242-29.5325L71.7242-41.1314C71.7242-43.4 72.8062-44.5255 75.0562-44.5255L86.9029-44.5255C89.1281-44.5255 90.235-43.4 90.235-41.1314L90.235-29.5325C90.235-27.1586 89.1281-26.0146 86.9029-26.0146ZM119.868-16.6291L134.718-16.6291C141.748-16.6291 145.956-20.7449 145.956-28.0711L145.956-42.469C145.956-49.8137 141.748-53.9544 134.718-53.9544L119.868-53.9544C112.82-53.9544 108.587-49.8137 108.587-42.469L108.587-28.0711C108.587-20.7449 112.82-16.6291 119.868-16.6291ZM121.329-26.0146C119.123-26.0146 118.016-27.1586 118.016-29.5325L118.016-41.1314C118.016-43.4 119.123-44.5255 121.329-44.5255L133.176-44.5255C135.42-44.5255 136.527-43.4 136.527-41.1314L136.527-29.5325C136.527-27.1586 135.42-26.0146 133.176-26.0146ZM27.365 28.0934L42.1717 28.0934C49.2631 28.0934 53.4527 23.9528 53.4527 16.608L53.4527 2.25353C53.4527-5.07274 49.2631-9.23189 42.1717-9.23189L27.365-9.23189C20.2921-9.23189 16.084-5.07274 16.084 2.25353L16.084 16.608C16.084 23.9528 20.2921 28.0934 27.365 28.0934ZM28.845 18.6645C26.6198 18.6645 25.5129 17.539 25.5129 15.2085L25.5129 3.60961C25.5129 1.27917 26.6198 0.153655 28.845 0.153655L40.6298 0.153655C42.8735 0.153655 44.0238 1.27917 44.0238 3.60961L44.0238 15.2085C44.0238 17.539 42.8735 18.6645 40.6298 18.6645ZM73.5763 28.0934L88.4263 28.0934C95.5177 28.0934 99.664 23.9528 99.664 16.608L99.664 2.25353C99.664-5.07274 95.5177-9.23189 88.4263-9.23189L73.5763-9.23189C66.5034-9.23189 62.3386-5.07274 62.3386 2.25353L62.3386 16.608C62.3386 23.9528 66.5034 28.0934 73.5763 28.0934ZM75.0562 18.6645C72.8062 18.6645 71.7242 17.539 71.7242 15.2085L71.7242 3.60961C71.7242 1.27917 72.8062 0.153655 75.0562 0.153655L86.9029 0.153655C89.1281 0.153655 90.235 1.27917 90.235 3.60961L90.235 15.2085C90.235 17.539 89.1281 18.6645 86.9029 18.6645ZM119.868 28.0934L134.718 28.0934C141.748 28.0934 145.956 23.9528 145.956 16.608L145.956 2.25353C145.956-5.07274 141.748-9.23189 134.718-9.23189L119.868-9.23189C112.82-9.23189 108.587-5.07274 108.587 2.25353L108.587 16.608C108.587 23.9528 112.82 28.0934 119.868 28.0934Z"/>
</svg>