<svg xmlns="http://www.w3.org/2000/svg" viewBox="16.084 -102.172 200.14 134.02">
  <path d="M31.3167 2.85405L76.9009 2.85405C86.3404 2.85405 92.177-2.92064 92.177-12.1681L92.177-58.1921C92.177-67.421 86.3404-73.1956 76.9009-73.1956L31.3167-73.1956C21.9206-73.1956 16.084-67.421 16.084-58.1921L16.084-12.1681C16.084-2.92064 21.9206 2.85405 31.3167 2.85405ZM116.175 31.849C119.462 31.849 121.889 29.4654 121.889 26.246L121.889-96.5876C121.889-99.7885 119.462-102.172 116.175-102.172C112.807-102.172 110.398-99.7885 110.398-96.5876L110.398 26.246C110.398 29.4654 112.807 31.849 116.175 31.849ZM155.368 2.85405L200.995 2.85405C210.391 2.85405 216.228-2.92064 216.228-12.1681L216.228-58.1921C216.228-67.421 210.391-73.1956 200.995-73.1956L155.368-73.1956C145.972-73.1956 140.135-67.421 140.135-58.1921L140.135-12.1681C140.135-2.92064 145.972 2.85405 155.368 2.85405Z"/>
</svg>