<svg xmlns="http://www.w3.org/2000/svg" viewBox="16.084 -107.217 126.77 145.08">
  <path d="M77.0939 37.8582C79.4338 37.8582 82.2441 36.9483 85.4442 35.147L134.738 6.8104C141.07 3.13395 142.853 0.124314 142.853-7.42694L142.853-64.3539C142.853-72.4134 139.715-76.6721 134.41-76.6721C132.114-76.6721 129.347-75.8241 126.295-74.0228L76.9331-45.5746C70.4773-41.7928 68.7126-38.8825 68.7126-31.3373L68.7126 25.5897C68.7126 33.488 71.8077 37.8582 77.0939 37.8582ZM49.7282 22.2329C51.0472 22.2329 52.4283 21.9046 53.828 21.0561L53.828-44.8698C53.828-48.7631 54.4095-49.7716 57.7705-51.7275L114.912-84.6689C114.807-89.4493 111.662-92.3095 107.44-92.3095C105.521-92.3095 103.416-91.7523 101.193-90.4894L49.3928-60.5994C42.8009-56.8732 41.8662-55.3319 41.8662-47.663L41.8476 11.6711C41.8476 17.9551 45.0979 22.2329 49.7282 22.2329ZM23.9212 7.30671C25.1783 7.30671 26.5594 6.97844 27.9776 6.14836L27.9776-59.7775C27.9776-63.5841 28.6394-64.7781 31.9449-66.6537L89.0867-99.5766C88.9199-104.394 85.7628-107.217 81.6763-107.217C79.7323-107.217 77.5902-106.635 75.343-105.354L23.5673-75.5256C17.0372-71.7376 16.084-70.283 16.084-62.5707L16.084-3.25506C16.084 2.99192 19.1366 7.30671 23.9212 7.30671Z"/>
</svg>