<svg xmlns="http://www.w3.org/2000/svg" viewBox="12.0623 -107.641 143.17 136.23">
  <path d="M40.0079 26.3543C42.9669 28.5891 46.5514 27.8892 50.7111 24.8438L83.6237 0.708124L116.561 24.8438C120.714 27.8892 124.299 28.5891 127.258 26.3543C130.137 24.1814 130.774 20.5535 129.096 15.7503L116.169-22.9333L149.347-46.7842C153.507-49.7058 155.228-52.9867 154.04-56.4721C152.894-59.8893 149.625-61.5542 144.519-61.5542L103.806-61.5542L91.3925-100.194C89.8203-105.078 87.2885-107.641 83.6237-107.641C80.0207-107.641 77.4704-105.078 75.8733-100.194L63.4594-61.5542L22.7284-61.5542C17.6403-61.5542 14.3964-59.8893 13.2262-56.4907C12.0623-52.9867 13.7837-49.7058 17.9186-46.7842L51.0973-22.9333L38.1694 15.7503C36.4919 20.5535 37.1292 24.1814 40.0079 26.3543Z"/>
</svg>