<svg xmlns="http://www.w3.org/2000/svg" viewBox="16.084 -111.112 145.4 151.69">
  <path d="M62.4748-17.0179L79.5014-17.0179C71.18-20.4179 65.2337-28.7812 65.2337-38.45C65.2337-51.4122 75.8585-62.037 88.7836-62.037C101.709-62.037 112.333-51.4122 112.333-38.45C112.333-28.7812 106.387-20.4179 98.0657-17.0179L115.092-17.0179C120.182-22.8204 123.051-30.2859 123.051-38.45C123.051-57.3065 107.578-72.7978 88.7836-72.7978C69.989-72.7978 54.5163-57.3251 54.5163-38.45C54.5163-30.2859 57.4038-22.8204 62.4748-17.0179ZM21.7681-35.0742L37.0869-35.0556C40.288-35.0556 42.8143-37.427 42.771-40.3927C42.7276-43.2781 40.288-45.7112 37.0869-45.7112L21.7681-45.7112C18.5606-45.7112 16.084-43.2966 16.084-40.3927C16.084-37.4454 18.5792-35.0742 21.7681-35.0742ZM56.2382-70.9582C58.2876-72.9891 58.269-76.4996 55.9779-78.7288L45.1225-89.5657C42.8377-91.8938 39.451-91.7887 37.3953-89.8012C35.284-87.7518 35.2656-84.3401 37.6122-82.012L48.4676-71.1937C50.6968-68.946 54.1888-68.8655 56.2382-70.9582ZM88.7836-84.4255C91.6875-84.4689 94.1021-86.9021 94.1021-90.0911L94.1021-105.428C94.1021-108.654 91.6875-111.112 88.7836-111.112C85.8797-111.112 83.4651-108.654 83.4651-105.428L83.4651-90.0911C83.4651-86.9021 85.8797-84.3821 88.7836-84.4255ZM121.329-70.9582C123.422-68.9088 126.87-68.946 129.1-71.1937L139.955-82.012C142.302-84.3401 142.24-87.7084 140.172-89.8012C138.141-91.8321 134.729-91.8938 132.445-89.5657L121.589-78.7288C119.298-76.4996 119.236-72.9458 121.329-70.9582ZM140.48-35.0742L155.799-35.0556C159.044-35.0556 161.483-37.427 161.483-40.3927C161.483-43.2781 159.044-45.7112 155.799-45.7112L140.48-45.7112C137.316-45.7112 134.753-43.2966 134.796-40.3927C134.84-37.4454 137.335-35.0742 140.48-35.0742ZM24.8896-10.6093L152.504-10.6093C154.832-10.6093 156.652-12.3181 156.652-14.6334C156.652-16.8869 154.832-18.6575 152.504-18.6575L24.8896-18.6575C22.562-18.6575 20.742-16.8869 20.742-14.6334C20.742-12.3181 22.562-10.6093 24.8896-10.6093ZM30.3183 10.0135C32.1933 10.0135 33.6228 8.54067 33.6228 6.66567C33.6228 4.83404 32.1933 3.36123 30.3183 3.36123C28.4433 3.36123 27.0139 4.83404 27.0139 6.66567C27.0139 8.54067 28.4433 10.0135 30.3183 10.0135ZM56.9373 10.0135C58.8123 10.0135 60.2418 8.54067 60.2418 6.66567C60.2418 4.83404 58.8123 3.36123 56.9373 3.36123C55.0623 3.36123 53.6329 4.83404 53.6329 6.66567C53.6329 8.54067 55.0623 10.0135 56.9373 10.0135ZM83.5563 10.0135C85.4313 10.0135 86.8607 8.54067 86.8607 6.66567C86.8607 4.83404 85.4313 3.36123 83.5563 3.36123C81.6813 3.36123 80.2519 4.83404 80.2519 6.66567C80.2519 8.54067 81.6813 10.0135 83.5563 10.0135ZM110.175 10.0135C112.05 10.0135 113.48 8.54067 113.48 6.66567C113.48 4.83404 112.05 3.36123 110.175 3.36123C108.3 3.36123 106.871 4.83404 106.871 6.66567C106.871 8.54067 108.3 10.0135 110.175 10.0135ZM136.794 10.0135C138.669 10.0135 140.099 8.54067 140.099 6.66567C140.099 4.83404 138.669 3.36123 136.794 3.36123C134.919 3.36123 133.49 4.83404 133.49 6.66567C133.49 8.54067 134.919 10.0135 136.794 10.0135ZM22.2763 25.2933C24.1513 25.2933 25.5808 23.8205 25.5808 21.9455C25.5808 20.1138 24.1513 18.641 22.2763 18.641C20.4013 18.641 18.9719 20.1138 18.9719 21.9455C18.9719 23.8205 20.4013 25.2933 22.2763 25.2933ZM48.8953 25.2933C50.7703 25.2933 52.1998 23.8205 52.1998 21.9455C52.1998 20.1138 50.7703 18.641 48.8953 18.641C47.0203 18.641 45.5909 20.1138 45.5909 21.9455C45.5909 23.8205 47.0203 25.2933 48.8953 25.2933ZM75.5143 25.2933C77.3893 25.2933 78.8188 23.8205 78.8188 21.9455C78.8188 20.1138 77.3893 18.641 75.5143 18.641C73.6393 18.641 72.2099 20.1138 72.2099 21.9455C72.2099 23.8205 73.6393 25.2933 75.5143 25.2933ZM102.133 25.2933C104.008 25.2933 105.438 23.8205 105.438 21.9455C105.438 20.1138 104.008 18.641 102.133 18.641C100.258 18.641 98.8289 20.1138 98.8289 21.9455C98.8289 23.8205 100.258 25.2933 102.133 25.2933ZM128.752 25.2933C130.627 25.2933 132.057 23.8205 132.057 21.9455C132.057 20.1138 130.627 18.641 128.752 18.641C126.877 18.641 125.448 20.1138 125.448 21.9455C125.448 23.8205 126.877 25.2933 128.752 25.2933ZM155.371 25.2933C157.246 25.2933 158.676 23.8205 158.676 21.9455C158.676 20.1138 157.246 18.641 155.371 18.641C153.496 18.641 152.067 20.1138 152.067 21.9455C152.067 23.8205 153.496 25.2933 155.371 25.2933ZM40.8533 40.5731C42.7283 40.5731 44.1578 39.1002 44.1578 37.2252C44.1578 35.3936 42.7283 33.9208 40.8533 33.9208C38.9783 33.9208 37.5489 35.3936 37.5489 37.2252C37.5489 39.1002 38.9783 40.5731 40.8533 40.5731ZM67.4723 40.5731C69.3473 40.5731 70.7768 39.1002 70.7768 37.2252C70.7768 35.3936 69.3473 33.9208 67.4723 33.9208C65.5973 33.9208 64.1679 35.3936 64.1679 37.2252C64.1679 39.1002 65.5973 40.5731 67.4723 40.5731ZM94.0913 40.5731C95.9663 40.5731 97.3958 39.1002 97.3958 37.2252C97.3958 35.3936 95.9663 33.9208 94.0913 33.9208C92.2163 33.9208 90.7869 35.3936 90.7869 37.2252C90.7869 39.1002 92.2163 40.5731 94.0913 40.5731ZM120.71 40.5731C122.585 40.5731 124.015 39.1002 124.015 37.2252C124.015 35.3936 122.585 33.9208 120.71 33.9208C118.835 33.9208 117.406 35.3936 117.406 37.2252C117.406 39.1002 118.835 40.5731 120.71 40.5731ZM147.329 40.5731C149.204 40.5731 150.634 39.1002 150.634 37.2252C150.634 35.3936 149.204 33.9208 147.329 33.9208C145.454 33.9208 144.025 35.3936 144.025 37.2252C144.025 39.1002 145.454 40.5731 147.329 40.5731Z"/>
</svg>