<svg xmlns="http://www.w3.org/2000/svg" viewBox="16.084 -91.7463 161.48 103.86">
  <path d="M130.771-19.1642C130.771-37.8166 115.459-53.2088 96.8256-53.2088C78.1919-53.2088 62.88-37.8166 62.88-19.1642C62.88-15.0408 63.7324-11.0965 65.3449-7.58443L128.306-7.58443C129.919-11.0965 130.771-15.0408 130.771-19.1642ZM29.8101-16.4509L45.1288-16.4324C48.3918-16.4324 50.8563-18.8655 50.8129-21.7694C50.7696-24.6733 48.33-27.088 45.1288-27.088L29.8101-27.088C26.6026-27.088 24.126-24.6733 24.126-21.7694C24.126-18.8655 26.6212-16.4509 29.8101-16.4509ZM56.5096-51.8709C58.7388-49.5983 62.2308-49.5178 64.2802-51.592C66.3296-53.6848 66.311-57.1334 64.0199-59.3626L53.1645-70.1995C50.8797-72.5461 47.493-72.4844 45.4373-70.435C43.326-68.4041 43.3075-64.9739 45.6542-62.6458ZM129.371-51.592C131.464-49.5611 134.912-49.5983 137.142-51.8709L147.997-62.6458C150.344-64.9739 150.282-68.3607 148.214-70.435C146.183-72.5277 142.771-72.5461 140.487-70.1995L129.631-59.3626C127.34-57.1334 127.278-53.6414 129.371-51.592ZM148.522-16.4509L163.841-16.4509C167.086-16.4509 169.525-18.8655 169.525-21.7694C169.525-24.6733 167.086-27.088 163.841-27.088L148.522-27.088C145.358-27.088 142.795-24.6733 142.838-21.7694C142.882-18.8655 145.377-16.4509 148.522-16.4509ZM96.8256-65.0593C99.7295-65.1027 102.144-67.5544 102.144-70.7434L102.144-86.0806C102.144-89.3067 99.7295-91.7463 96.8256-91.7463C93.9217-91.7463 91.5071-89.3067 91.5071-86.0806L91.5071-70.7434C91.5071-67.5544 93.9217-65.0159 96.8256-65.0593ZM22.1762 12.1135L171.475 12.1135C174.818 12.1135 177.567 9.40152 177.567 6.244C177.567 3.04924 174.837 0.39299 171.475 0.39299L22.1762 0.39299C18.833 0.39299 16.084 3.08638 16.084 6.244C16.084 9.36437 18.8516 12.1135 22.1762 12.1135Z"/>
</svg>