<svg xmlns="http://www.w3.org/2000/svg" viewBox="15.4034 -125.291 217.23 178.75">
  <path d="M44.741 18.5163L31.7151-4.08267C29.4245-8.13761 24.7255-7.13433 23.4012-3.1911L16.4427 15.9477C15.4034 18.8504 16.7462 21.1523 19.7229 21.7035L39.7203 25.27C43.8927 26.0627 47.0686 22.4845 44.741 18.5163ZM57.9476 49.6077C59.675 52.5176 63.3464 53.4586 66.0954 51.917L228.84-42.0456C231.589-43.6306 232.636-47.3084 231.007-50.0945C229.286-53.0662 225.59-53.9455 222.841-52.4038L60.096 41.5588C57.3656 43.1004 56.344 46.7967 57.9476 49.6077ZM101.901 5.29156C108.878 1.27696 111.279-7.49478 107.239-14.5344C103.2-21.4689 94.3662-23.8072 87.4318-19.8296C80.4356-15.7717 78.0787-6.93797 82.0933-0.0221148C86.1327 6.9308 94.9479 9.31247 101.901 5.29156ZM189.648-45.3686C196.626-49.3646 198.983-58.2416 194.987-65.1575C190.947-72.1104 182.114-74.4921 175.179-70.4712C168.226-66.4566 165.869-57.5981 169.884-50.6637C173.88-43.7108 182.695-41.3724 189.648-45.3686ZM184.199-119.048L180.556-120.817C171.175-125.291 162.972-124.592 152.67-118.664L117.976-98.6509C99.8929-88.2019 93.6501-82.2376 86.7395-69.227L75.6601-48.194L60.6712-36.9725C46.6078-26.3368 42.9883-14.8284 50.1162-2.52785L54.4095 4.90819C58.8648 12.612 65.821 14.419 73.1782 10.1804L79.4687 6.55578C78.5344 5.49778 77.6371 4.32212 76.8823 3.02899C71.2276-6.79561 74.5562-19.3488 84.3993-25.0654C94.2238-30.7201 106.758-27.3482 112.45-17.5051C113.211-16.2305 113.768-14.8568 114.208-13.5018L167.216-44.0858C166.282-45.1623 165.366-46.338 164.648-47.6745C158.975-57.4557 162.365-70.0337 172.147-75.707C181.971-81.3802 194.506-78.0331 200.222-68.2086C200.959-66.8906 201.578-65.5169 201.936-64.1433L206.421-66.7291C214.107-71.1599 215.518-77.6389 210.709-85.9446L199.543-105.232C196.326-110.862 190.621-115.992 184.199-119.048Z" />
</svg>