<svg xmlns="http://www.w3.org/2000/svg" viewBox="12.0561 -102.728 146.05 146.06">
  <path d="M112.102 12.4883L103.373 3.69666L82.8091 24.3155C78.543 28.6065 74.1715 28.6869 69.7196 24.2722L31.1198-14.3275C26.7113-18.699 26.8474-23.1446 31.0765-27.3985L51.7202-47.9805L43.0089-56.6918L21.517-35.2553C12.1677-25.906 12.0561-15.8635 21.5604-6.44599L61.8814 33.875C71.3857 43.3359 81.3783 43.274 90.6722 33.9183ZM120.87-13.7821L129.643-5.07088L152.669-28.1585C157.508-33.0162 158.108-35.8451 158.108-43.1451L158.108-67.0546C158.108-73.874 156.591-76.2691 151.339-81.4781L136.876-95.9839C131.667-101.193 129.229-102.728 122.434-102.728L98.5247-102.728C91.2247-102.728 88.4886-102.097 83.6309-97.2398L60.4813-74.1271L69.1926-65.3974L92.4164-88.5842C93.8012-89.9256 95.0496-90.6739 97.152-90.6739L122.186-90.6739C124.183-90.6739 125.562-89.9319 126.878-88.6585L143.995-71.4804C145.33-70.207 146.029-68.7853 146.029-66.8066L146.029-41.7725C146.029-39.5835 145.379-38.2917 144.013-36.944ZM114.539-50.3408C119.571-50.3408 123.383-54.2213 123.383-59.1845C123.383-64.086 119.571-67.9849 114.539-67.9849C109.533-67.9849 105.739-64.086 105.739-59.1845C105.739-54.2213 109.533-50.3408 114.539-50.3408ZM139.805 29.2127C141.643 31.0144 144.609 31.0329 146.404 29.2127C148.181 27.3924 148.225 24.4516 146.404 22.6128L32.8224-90.9939C31.0206-92.7957 28.0364-92.8511 26.1792-90.9939C24.4024-89.217 24.4024-86.1275 26.1792-84.3507Z"/>
</svg>