<svg xmlns="http://www.w3.org/2000/svg" viewBox="13.813 -111.823 220.93 153.14">
  <path d="M93.9989 16.4581C125.805 7.82142 139.372-16.9688 130.575-50.1484L118.648-94.75C115.245-107.145 106.934-111.823 94.2982-108.463L31.2015-91.6619C18.5468-88.2646 13.813-80.127 17.1297-67.5345L28.976-22.9764C37.8169 10.1722 62.0753 24.9402 93.9989 16.4581ZM90.8476 4.6946C66.2419 11.1212 47.7723-0.25374 40.8632-26.0843L29.0171-70.2336C27.6321-75.4397 29.3574-78.4637 34.483-79.8983L97.3071-96.7549C102.433-98.1647 105.605-96.3156 106.928-91.0476L118.713-46.9416C125.647-20.9809 115.391-1.91127 90.8476 4.6946ZM87.3654-8.29922C100.473-11.8992 108.904-21.8021 109.276-34.253C109.338-37.2977 106.695-38.4734 104.139-36.4742C95.5925-30.4573 86.6418-28.0448 82.4168-26.919C78.13-25.7684 69.2347-23.3375 58.6721-24.333C55.4665-24.7229 53.752-22.3649 55.3981-19.8156C61.9551-9.27616 74.2028-4.8785 87.3654-8.29922ZM57.0488-47.8449C61.4292-49.0142 63.6001-46.9233 65.4747-47.3872C66.7558-47.709 67.3677-49.4041 66.7615-51.6807C65.4748-57.1063 59.6038-60.4345 54.1475-58.8755C48.561-57.4278 45.1707-51.6807 46.705-46.379C47.4103-44.0219 48.7771-42.8833 50.0334-43.1743C51.9265-43.7187 52.6686-46.6386 57.0488-47.8449ZM93.7865-57.7671C98.1853-58.9798 100.338-56.864 102.212-57.2661C103.493-57.6746 104.105-59.3882 103.499-61.6213C102.15-67.0469 96.3848-70.3318 90.8851-68.7728C85.2801-67.4056 81.8899-61.6648 83.4427-56.3012C84.0924-54.0551 85.416-52.787 86.771-53.1706C88.6456-53.6779 89.4062-56.6163 93.7865-57.7671ZM154.49 32.9189C186.29 41.3142 210.549 26.571 219.408-6.54046L231.378-51.0738C234.738-63.5238 229.881-71.7605 217.201-75.201L154.148-92.064C141.475-95.4241 133.343-90.7644 129.903-78.2707L123.501-54.6495L130.83-34.6293L141.561-74.6672C142.971-79.8547 145.976-81.6605 151.164-80.2941L213.988-63.4747C219.132-62.1267 220.839-58.9975 219.41-53.7295L207.589-9.62343C200.636 16.3309 182.21 27.6439 157.598 21.0749C138.328 15.8227 127.645 2.74331 127.877-15.6507L116.975-1.64374C121.281 15.3746 134.304 27.4006 154.49 32.9189ZM153.174-34.8166C157.721-33.5235 162.423-36.2521 163.717-40.8553C164.911-45.4583 162.182-50.1482 157.579-51.4784C153.013-52.6725 148.348-49.9069 147.073-45.3408C145.861-40.6944 148.589-36.0479 153.174-34.8166ZM189.517-25.1292C194.102-23.898 198.767-26.6265 200.06-31.2112C201.235-35.8391 198.525-40.5041 193.941-41.7168C189.356-42.9914 184.71-40.2814 183.497-35.6968C182.185-31.0937 184.932-26.3668 189.517-25.1292ZM163.382-1.17861C170.321 0.70161 176.252 4.10314 182.277 9.41759C184.679 11.5219 187.532 10.1912 187.365 7.17106C187.037-3.94363 179.081-13.0117 167.303-16.0552C155.526-19.2411 144.156-15.3136 138.304-6.01129C136.689-3.46156 138.54-0.793907 141.64-1.43141C149.25-3.03403 156.479-3.05278 163.382-1.17861Z"/>
</svg>