<svg xmlns="http://www.w3.org/2000/svg" viewBox="11.2588 -105.826 141.07 141.13">
  <path d="M81.8155 35.3055C120.611 35.3055 152.329 3.58721 152.329-35.2697C152.329-74.1081 120.611-105.826 81.8155-105.826C42.9771-105.826 11.2588-74.1081 11.2588-35.2697C11.2588 3.58721 42.9771 35.3055 81.8155 35.3055ZM81.8155 11.4298C56.0005 11.4298 35.116-9.45473 35.116-35.2697C35.116-61.0847 56.0005-81.9692 81.8155-81.9692C107.587-81.9692 128.472-61.0847 128.472-35.2697C128.472-9.45473 107.587 11.4298 81.8155 11.4298ZM81.8155-5.95105C84.2978-5.95105 86.1549-7.34993 86.1549-10.3276L86.1549-54.1834L100.696-54.1834C103.036-54.1834 104.577-55.7001 104.577-57.8791C104.577-60.1261 103.011-61.5932 100.696-61.5932L62.8671-61.5932C60.5768-61.5932 58.9487-60.1075 58.9487-57.8791C58.9487-55.6691 60.6201-54.1834 62.8671-54.1834L77.4079-54.1834L77.4079-10.3276C77.4079-7.34993 79.3331-5.95105 81.8155-5.95105ZM67.8024-28.5492C68.1304-28.5492 68.4769-28.6296 68.8482-28.71L96.2371-39.4062C97.1529-39.7775 97.5863-40.3717 97.5863-41.294C97.5863-42.4884 96.7631-43.1384 95.8223-43.1384C95.4943-43.1384 95.1479-43.058 94.7765-42.9342L67.3876-32.2381C66.4469-31.8482 65.995-31.2106 65.995-30.3751C65.995-29.3783 66.7009-28.5492 67.8024-28.5492ZM67.8024-16.8135C68.1304-16.8135 68.4769-16.8939 68.8482-17.0177L96.2371-27.6953C97.1529-28.0851 97.5863-28.6793 97.5863-29.5582C97.5863-30.7775 96.7631-31.4275 95.8223-31.4275C95.4943-31.4275 95.1479-31.3471 94.7765-31.2233L67.3876-20.5457C66.4469-20.1559 65.995-19.4997 65.995-18.6394C65.995-17.6674 66.7009-16.8135 67.8024-16.8135Z" />
</svg>