<svg xmlns="http://www.w3.org/2000/svg" viewBox="16.084 -93.9865 149.09 117.56">
  <path d="M21.6685-45.1622L84.6792-45.1622L84.6792 18.6234L96.6224 18.6234L96.6224-45.1622L160.414-45.1622L160.414-56.7336L21.6685-56.7336ZM42.7594 23.571L139.521 23.571C155.621 23.571 165.174 13.6896 165.174-3.14781L165.174-67.2677C165.174-84.1051 155.621-93.9865 139.521-93.9865L42.7594-93.9865C25.9654-93.9865 16.084-84.1051 16.084-67.2677L16.084-3.14781C16.084 13.6896 25.9654 23.571 42.7594 23.571ZM43.6508 11.1945C34.0823 11.1945 28.4171 5.57269 28.4171-4.03914L28.4171-66.3764C28.4171-75.9882 34.0823-81.61 43.6508-81.61L137.608-81.61C147.219-81.61 152.841-75.9882 152.841-66.3764L152.841-4.03914C152.841 5.57269 147.219 11.1945 137.608 11.1945Z"/>
</svg>