<svg xmlns="http://www.w3.org/2000/svg" viewBox="16.084 -103.511 108.2 136.59">
  <path d="M46.6015-51.0417L57.028-51.0417C58.8973-51.0417 60.1288-52.0568 60.5559-53.7403L62.7371-62.5938L67.7447-38.1308C68.4751-34.6583 73.0619-34.6026 74.1204-38.0318L79.7665-57.484L80.7426-53.567C81.1821-51.9453 82.3828-51.0417 84.0787-51.0417L93.7087-51.0417C95.5412-51.0417 97.0205-52.5274 97.0205-54.2916C97.0205-56.0991 95.603-57.5599 93.7087-57.5599L86.1461-57.5599L83.0349-69.5155C82.224-72.7838 77.8601-72.7032 76.7829-69.373L71.372-51.5676L65.9493-77.7401C65.2623-81.1629 60.657-81.2248 59.7843-77.8206L54.8922-57.5599L46.6015-57.5599C44.8125-57.5599 43.3516-56.0371 43.3516-54.2916C43.3516-52.5274 44.8125-51.0417 46.6015-51.0417ZM46.881-16.2565L93.5898-16.2565C95.7069-16.2565 97.3412-17.928 97.3412-20.0514C97.3412-22.1315 95.7069-23.741 93.5898-23.741L46.881-23.741C44.6771-23.741 43.0676-22.1315 43.0676-20.0514C43.0676-17.928 44.6771-16.2565 46.881-16.2565ZM46.881 1.95988L69.7771 1.95988C71.9376 1.95988 73.5471 0.36887 73.5471-1.71115C73.5471-3.85312 71.9376-5.50607 69.7771-5.50607L46.881-5.50607C44.6771-5.50607 43.0676-3.85312 43.0676-1.71115C43.0676 0.36887 44.6771 1.95988 46.881 1.95988ZM16.084 12.5152C16.084 25.9921 23.1315 33.083 36.4783 33.083L103.85 33.083C117.216 33.083 124.288 25.9921 124.288 12.5152L124.288-82.9435C124.288-96.377 117.216-103.511 103.85-103.511L36.4783-103.511C23.1315-103.511 16.084-96.377 16.084-82.9435ZM28.4171 11.5371L28.4171-81.9655C28.4171-87.9566 31.4776-91.1782 37.7165-91.1782L102.656-91.1782C108.851-91.1782 111.93-87.9566 111.93-81.9655L111.93 11.5371C111.93 17.5283 108.851 20.7498 102.656 20.7498L37.7165 20.7498C31.4776 20.7498 28.4171 17.5283 28.4171 11.5371Z"/>
</svg>