<svg xmlns="http://www.w3.org/2000/svg" viewBox="16.084 -103.511 108.2 136.59">
  <path d="M45.5858-51.562C43.6792-51.562 42.0759-53.1033 42.0759-55.0286C42.0759-56.8732 43.6792-58.4517 45.5858-58.4517L54.1986-58.4517L59.2269-79.5733C60.1801-83.1942 65.0394-83.1322 65.8317-79.4927L71.3905-52.3292L77.0245-70.785C78.1387-74.3134 82.7566-74.4125 83.6728-70.9274L86.8583-58.4517L94.7863-58.4517C96.7549-58.4517 98.2714-56.9537 98.2714-55.0286C98.2714-53.1033 96.693-51.562 94.7863-51.562L84.7166-51.562C82.9031-51.562 81.6403-52.5461 81.139-54.2482L80.1877-58.2086L74.3186-38.0504C73.1795-34.4045 68.3574-34.4601 67.5899-38.1494L62.3964-63.4175L60.1533-54.4153C59.7077-52.6575 58.3771-51.562 56.4521-51.562ZM45.8468-15.1418C43.5253-15.1418 41.8167-16.9123 41.8167-19.1719C41.8167-21.3511 43.5253-23.0597 45.8468-23.0597L94.624-23.0597C96.9021-23.0597 98.5922-21.3511 98.5922-19.1719C98.5922-16.9123 96.9021-15.1418 94.624-15.1418ZM45.8468 3.86729C43.5253 3.86729 41.8167 2.15871 41.8167-0.0204886C41.8167-2.28011 43.5253-4.05063 45.8468-4.05063L69.7895-4.05063C72.1109-4.05063 73.7762-2.28011 73.7762-0.0204886C73.7762 2.15871 72.1109 3.86729 69.7895 3.86729ZM16.084 12.5152C16.084 25.9921 23.1315 33.083 36.4783 33.083L103.85 33.083C117.216 33.083 124.288 25.9921 124.288 12.5152L124.288-82.9435C124.288-96.377 117.216-103.511 103.85-103.511L36.4783-103.511C23.1315-103.511 16.084-96.377 16.084-82.9435Z"/>
</svg>