<svg xmlns="http://www.w3.org/2000/svg" viewBox="16.084 -102.722 111.79 134.94">
  <path d="M16.084 17.7469C16.084 26.5558 21.81 32.22 30.8044 32.22L113.151 32.22C122.188 32.22 127.871 26.5558 127.871 17.7469L127.871-88.2492C127.871-97.0581 122.188-102.722 113.151-102.722L30.8044-102.722C21.81-102.722 16.084-97.0581 16.084-88.2492ZM28.4356 16.4163L28.4356-86.9185C28.4356-89.0219 29.7595-90.3891 31.7825-90.3891L112.173-90.3891C114.196-90.3891 115.519-89.0219 115.519-86.9185L115.519 16.4163C115.519 18.5196 114.196 19.8869 112.173 19.8869L31.7825 19.8869C29.7595 19.8869 28.4356 18.5196 28.4356 16.4163ZM37.4719-60.0844L106.465-60.0844C107.517-60.0844 108.322-60.9326 108.322-61.9416L108.322-81.3344C108.322-82.3434 107.517-83.1916 106.465-83.1916L37.4719-83.1916C36.4813-83.1916 35.6331-82.3434 35.6331-81.3344L35.6331-61.9416C35.6331-60.9326 36.4813-60.0844 37.4719-60.0844ZM62.2547-68.4172C60.3859-68.4172 59.006-69.7537 59.006-71.6472C59.006-73.5408 60.3859-74.9207 62.2547-74.9207L81.7004-74.9207C83.6126-74.9207 84.949-73.5408 84.949-71.6472C84.949-69.7537 83.6126-68.4172 81.7004-68.4172Z"/>
</svg>