<svg xmlns="http://www.w3.org/2000/svg" viewBox="9.66814 -101.484 187.49 132.4">
  <path d="M103.4-6.61155C115.77-6.61155 130.061-2.77563 140.762 2.60023C144.072 4.24623 147.741 3.71404 150.006 0.830706L192.676-53.581C197.157-59.3127 196.359-65.5519 190.727-69.9592C172.559-83.9402 138.301-94.2343 103.4-94.2343C68.5249-94.2343 34.2852-83.9402 16.099-69.9592C10.4663-65.5519 9.66814-59.3127 14.1496-53.581L56.8199 0.830706C59.0845 3.71404 62.7537 4.24623 66.0207 2.60023C76.7649-2.77563 91.0556-6.61155 103.4-6.61155ZM103.4-18.3875C91.6432-18.3875 78.1338-15.3074 65.7127-10.2104C64.3084-9.65979 63.554-9.77158 62.4593-11.1508L25.9072-57.7662C24.8495-59.1702 25.0473-60.5368 26.4947-61.514C47.4107-74.758 75.1501-82.4768 103.4-82.4768C131.676-82.4768 159.415-74.758 180.288-61.514C181.753-60.5368 181.951-59.1702 180.875-57.7662L144.385-11.1694C143.228-9.77158 142.492-9.64121 141.07-10.2104C128.692-15.3074 115.139-18.3875 103.4-18.3875ZM93.473 9.51713L103.775 4.43402L44.1571-97.8187C42.6029-100.456 39.2844-101.484 36.2755-99.8927C33.3905-98.3263 32.6473-94.7539 34.2634-92.0544ZM103.4 30.9194C111.6 30.9194 118.382 24.162 118.382 15.9627C118.382 7.65824 111.643 0.962701 103.4 0.962701C95.1826 0.962701 88.4437 7.65824 88.4437 15.9627C88.4437 24.1805 95.1208 30.9194 103.4 30.9194ZM103.4 21.9239C100.092 21.9239 97.4207 19.2525 97.4207 15.9627C97.4207 12.6111 100.092 9.853 103.4 9.853C106.672 9.853 109.448 12.6296 109.448 15.9627C109.448 19.2525 106.69 21.9239 103.4 21.9239Z"/>
</svg>