<svg xmlns="http://www.w3.org/2000/svg" viewBox="9.70528 -111.068 181.14 151.6">
  <path d="M100.347 40.5291C108.503 40.5291 115.303 33.8151 115.303 25.5724C115.303 17.3298 108.546 10.5724 100.347 10.5724C92.0857 10.5724 85.3901 17.3298 85.3901 25.5724C85.3901 33.8335 92.0238 40.5291 100.347 40.5291ZM100.347 31.552C96.9951 31.552 94.3238 28.8622 94.3238 25.5724C94.3238 22.2392 96.9951 19.5061 100.347 19.5061C103.618 19.5061 106.351 22.2577 106.351 25.5724C106.351 28.8622 103.637 31.552 100.347 31.552ZM90.4195 19.1702L100.722 14.0437L43.8348-83.3594C42.3055-86.0404 39.0054-87.0245 35.9347-85.4334C33.0682-83.9105 32.3499-80.2947 33.9411-77.6137ZM100.266 2.64532C112.215 2.64532 125.836 6.40073 136.19 11.5474C139.488 13.1563 143.102 12.6426 145.416 9.70973L186.482-42.6642C190.846-48.2163 190.023-54.3874 184.527-58.6522C166.929-72.2678 133.711-82.1531 100.285-82.1531C66.8403-82.1531 33.6411-72.2678 16.0247-58.6522C10.5282-54.3874 9.70528-48.2163 14.0691-42.6642L55.1103 9.70973C57.4245 12.6426 61.0629 13.1563 64.3609 11.5474C74.7334 6.40073 88.3551 2.64532 100.266 2.64532ZM100.266-9.13088C88.8993-9.13088 75.774-6.14976 63.8112-1.17663C62.5989-0.712772 61.9932-0.73784 61.0286-1.98695L25.7587-46.8867C24.7878-48.204 24.9856-49.2855 26.2843-50.2007C46.6986-63.228 73.9983-70.5319 100.285-70.5319C126.553-70.5319 153.871-63.228 174.267-50.2007C175.566-49.2855 175.763-48.204 174.793-46.8867L139.541-1.98695C138.533-0.73784 137.952-0.712772 136.74-1.17663C124.734-6.14976 111.67-9.13088 100.266-9.13088ZM21.0471-105.181C21.0471-101.986 23.6784-99.2925 26.9351-99.2925L60.4112-99.2925C63.6493-99.2925 66.2807-101.967 66.2807-105.181C66.2807-108.419 63.6679-111.068 60.4112-111.068L26.9351-111.068C23.6969-111.068 21.0471-108.437 21.0471-105.181ZM77.6278-105.181C77.6278-101.986 80.284-99.2925 83.4973-99.2925L117.017-99.2925C120.212-99.2925 122.905-101.967 122.905-105.181C122.905-108.419 120.23-111.068 117.017-111.068L83.4973-111.068C80.3026-111.068 77.6278-108.437 77.6278-105.181ZM134.19-105.181C134.19-101.986 136.846-99.2925 140.078-99.2925L173.579-99.2925C176.792-99.2925 179.467-101.967 179.467-105.181C179.467-108.419 176.811-111.068 173.579-111.068L140.078-111.068C136.865-111.068 134.19-108.437 134.19-105.181Z"/>
</svg>