<svg xmlns="http://www.w3.org/2000/svg" viewBox="16.084 -94.0051 117.51 117.56">
  <path d="M36.6517 23.5524L113.03 23.5524C126.507 23.5524 133.598 16.4246 133.598 3.11475L133.598-73.5674C133.598-86.8772 126.507-94.0051 113.03-94.0051L36.6517-94.0051C23.2182-94.0051 16.084-86.9142 16.084-73.5674L16.084 3.11475C16.084 16.4615 23.2182 23.5524 36.6517 23.5524ZM54.5297-8.91888C51.2855-8.91888 48.7224-11.4635 48.7224-14.7511C48.7224-16.2431 49.3478-17.6548 50.493-18.7814L66.8637-35.1707L50.493-51.56C49.3478-52.6867 48.7224-54.0984 48.7224-55.5903C48.7224-58.8779 51.2855-61.3358 54.5297-61.3358C56.2321-61.3358 57.5014-60.791 58.6837-59.6521L75.0485-43.3307L91.4752-59.6955C92.7008-60.8777 93.9887-61.4225 95.6725-61.4225C98.8733-61.4225 101.436-58.9213 101.436-55.677C101.436-54.1417 100.898-52.7734 99.7093-51.6034L83.3137-35.1707L99.6659-18.8247C100.811-17.6981 101.393-16.2864 101.393-14.7511C101.393-11.4635 98.83-8.91888 95.5858-8.91888C93.8586-8.91888 92.4406-9.46371 91.3451-10.6459L75.0485-26.9488L58.8138-10.6459C57.6315-9.46371 56.2321-8.91888 54.5297-8.91888Z"/>
</svg>