<svg xmlns="http://www.w3.org/2000/svg" viewBox="12.4609 -80.7933 91.11 91.15">
  <path d="M28.47 10.3589L87.5607 10.3589C98.1277 10.3589 103.57 4.89962 103.57-5.51989L103.57-64.9145C103.57-75.3341 98.1277-80.7933 87.5607-80.7933L28.47-80.7933C17.9464-80.7933 12.4609-75.3513 12.4609-64.9145L12.4609-5.51989C12.4609 4.91683 17.9464 10.3589 28.47 10.3589ZM29.0468 0.754783C24.5098 0.754783 22.0216-1.60549 22.0216-6.31384L22.0216-64.1206C22.0216-68.8724 24.5098-71.1892 29.0468-71.1892L86.9838-71.1892C91.4864-71.1892 94.009-68.8724 94.009-64.1206L94.009-6.31384C94.009-1.60549 91.4864 0.754783 86.9838 0.754783ZM45.0195-15.244C47.0846-15.244 48.7794-16.9474 48.7794-19.0559L48.7794-51.0849C48.7794-53.8132 47.128-55.3453 44.443-55.3453C42.2945-55.3453 40.6196-54.2189 39.3842-53.2726L34.309-49.3281C33.3696-48.6327 32.6765-47.623 32.6765-46.3087C32.6765-44.6494 33.7958-43.5927 35.3079-43.5927C36.068-43.5927 36.5874-43.8248 37.1376-44.2573L41.251-47.5606L41.251-19.0559C41.251-16.9474 42.9545-15.244 45.0195-15.244ZM68.0878-14.9063C75.1243-14.9063 80.4466-19.2437 80.4466-26.4744C80.4466-32.2812 76.9905-35.3146 72.8899-35.7713L72.8899-35.9496C77.0258-37.0425 79.292-40.8165 79.292-44.9989C79.292-51.676 74.3619-55.5179 67.8804-55.5179C62.94-55.5179 58.52-52.7775 57.1436-48.4248C56.8858-47.5473 56.7698-46.675 56.7698-45.8109C56.7698-44.2057 57.8543-42.8092 59.9154-42.8092C61.6366-42.8092 62.7627-43.4568 63.2284-45.186C63.9304-47.8287 65.3535-49.5956 67.9009-49.5956C70.9203-49.5956 72.3036-47.168 72.3036-44.1835C72.3036-40.8697 70.5167-38.3387 67.0339-38.3387L66.0232-38.3387C64.2077-38.3387 63.1546-37.2655 63.1546-35.6015C63.1546-33.9273 64.2667-32.9495 66.0232-32.9495L67.0962-32.9495C71.0187-32.9495 73.1291-30.7684 73.1291-26.7771C73.1291-23.6073 71.4978-20.8806 68.1296-20.8806C64.874-20.8806 63.4135-23.0409 62.8179-25.1486C62.3299-26.7995 61.182-27.6859 59.5397-27.6859C57.4952-27.6859 56.1689-26.4482 56.1689-24.3951C56.1689-23.5469 56.3022-22.6402 56.5514-21.8492C57.938-17.4056 62.88-14.9063 68.0878-14.9063Z" />
</svg>