<svg xmlns="http://www.w3.org/2000/svg" viewBox="12.4609 -80.7933 91.11 91.15">
  <path d="M28.47 10.3589L87.5607 10.3589C98.1277 10.3589 103.57 4.89962 103.57-5.51989L103.57-64.9145C103.57-75.3341 98.1277-80.7933 87.5607-80.7933L28.47-80.7933C17.9464-80.7933 12.4609-75.3513 12.4609-64.9145L12.4609-5.51989C12.4609 4.91683 17.9464 10.3589 28.47 10.3589ZM29.0468 0.754783C24.5098 0.754783 22.0216-1.60549 22.0216-6.31384L22.0216-64.1206C22.0216-68.8724 24.5098-71.1892 29.0468-71.1892L86.9838-71.1892C91.4864-71.1892 94.009-68.8724 94.009-64.1206L94.009-6.31384C94.009-1.60549 91.4864 0.754783 86.9838 0.754783ZM47.1647-15.244C49.2298-15.244 50.9246-16.9474 50.9246-19.0559L50.9246-51.0849C50.9246-53.8132 49.2732-55.3453 46.5797-55.3453C44.4397-55.3453 42.7648-54.2189 41.5294-53.2726L36.4542-49.3281C35.4714-48.6327 34.8217-47.623 34.8217-46.3087C34.8217-44.6494 35.9411-43.5927 37.4532-43.5927C38.2132-43.5927 38.7326-43.8248 39.2829-44.2573L43.3528-47.5606L43.3528-19.0559C43.3528-16.9474 45.0563-15.244 47.1647-15.244ZM64.9046-15.1486C66.8172-15.1486 67.6515-15.9377 68.3286-17.7144L78.9956-46.5291C79.5064-48.0581 79.8876-49.3011 79.8876-50.8245C79.8876-53.16 78.1076-54.6698 75.8435-54.6698L60.5506-54.6698C58.7541-54.6698 57.5678-53.4029 57.5678-51.6869C57.5678-49.9315 58.7746-48.6418 60.5506-48.6418L72.3593-48.6418L72.3593-48.2211L62.0762-21.2789C61.6847-20.1669 61.4961-19.508 61.4961-18.3217C61.4961-16.8348 62.4099-15.1486 64.9046-15.1486Z" />
</svg>