<svg xmlns="http://www.w3.org/2000/svg" viewBox="12.4609 -80.7933 91.11 91.15">
  <path d="M28.47 10.3589L87.5607 10.3589C98.1277 10.3589 103.57 4.89962 103.57-5.51989L103.57-64.9145C103.57-75.3341 98.1277-80.7933 87.5607-80.7933L28.47-80.7933C17.9464-80.7933 12.4609-75.3513 12.4609-64.9145L12.4609-5.51989C12.4609 4.91683 17.9464 10.3589 28.47 10.3589ZM58.3313-11.2794C49.9452-11.2794 43.1907-15.1901 41.5926-20.9293C41.3835-21.6837 41.2903-22.214 41.2903-23.0237C41.2903-25.4104 42.9799-27.0193 45.4623-27.0193C47.364-27.0193 48.6421-26.1416 49.4682-24.301C50.7456-21.1358 53.556-18.8265 58.5233-18.8265C63.7222-18.8265 67.2407-21.4505 67.2407-25.4278C67.2407-29.4557 63.7587-32.198 58.5934-32.198L55.7113-32.198C53.4145-32.198 51.829-33.7115 51.829-35.8621C51.829-38.1098 53.394-39.5594 55.7113-39.5594L58.3681-39.5594C62.7399-39.5594 65.868-42.2474 65.868-46.0094C65.868-49.5898 63.0783-51.7873 58.5296-51.7873C54.3652-51.7873 51.4618-49.6934 50.2795-46.3128C49.5037-44.5036 48.2272-43.5944 46.2838-43.5944C43.8345-43.5944 42.1639-45.1252 42.1639-47.5032C42.1639-48.3027 42.2467-48.9301 42.4473-49.6845C43.925-55.535 50.2156-59.2419 58.6701-59.2419C68.286-59.2419 74.9307-54.2395 74.9307-47.0019C74.9307-41.9277 71.0051-37.3177 65.9852-36.6083L65.9852-36.1694C72.0339-35.5961 76.4495-30.8552 76.4495-25.0257C76.4495-16.8724 69.5023-11.2794 58.3313-11.2794Z"/>
</svg>