<svg xmlns="http://www.w3.org/2000/svg" viewBox="12.4609 -80.7658 99.16 91.15">
  <path d="M28.47 10.3864L95.6157 10.3864C106.191 10.3864 111.625 4.9271 111.625-5.49242L111.625-64.8871C111.625-75.3066 106.191-80.7658 95.6157-80.7658L28.47-80.7658C17.9464-80.7658 12.4609-75.3238 12.4609-64.8871L12.4609-5.49242C12.4609 4.9443 17.9464 10.3864 28.47 10.3864ZM28.352 0.782262C24.2493 0.782262 22.0216-1.31745 22.0216-5.59154L22.0216-50.6672C22.0216-54.9413 24.2493-57.0496 28.352-57.0496L95.6902-57.0496C99.7585-57.0496 102.073-54.9413 102.073-50.6672L102.073-5.59154C102.073-1.31745 99.7585 0.782262 95.6902 0.782262ZM47.0489-7.74479C54.0939-7.74479 59.3642-12.0822 59.3642-19.3129C59.3642-25.1197 55.9601-28.1531 51.8509-28.6098L51.8509-28.7881C55.9868-29.8811 58.253-33.655 58.253-37.8374C58.253-44.5145 53.2795-48.3564 46.8414-48.3564C41.8576-48.3564 37.4462-45.6161 36.1046-41.2633C35.8034-40.3858 35.7308-39.5136 35.7308-38.6495C35.7308-37.0528 36.7805-35.6477 38.8764-35.6477C40.5628-35.6477 41.6889-36.2953 42.1895-38.0331C42.8914-40.6672 44.2797-42.4342 46.8619-42.4342C49.8465-42.4342 51.2212-40.0066 51.2212-37.0306C51.2212-33.7083 49.4429-31.1773 45.9515-31.1773L44.9494-31.1773C43.1688-31.1773 42.0808-30.104 42.0808-28.4401C42.0808-26.7658 43.1843-25.788 44.9494-25.788L46.0138-25.788C49.9449-25.788 52.0467-23.6155 52.0467-19.6156C52.0467-16.4544 50.424-13.7191 47.0472-13.7191C43.8436-13.7191 42.3311-15.888 41.7789-17.9871C41.2561-19.6381 40.1517-20.533 38.4573-20.533C36.4648-20.533 35.0865-19.2867 35.0865-17.2336C35.0865-16.3854 35.2632-15.4788 35.5124-14.6877C36.8642-10.2441 41.7976-7.74479 47.0489-7.74479ZM76.8316-7.63045C86.5096-7.63045 89.4118-18.43 89.4118-28.0992C89.4118-37.777 86.5096-48.5679 76.8316-48.5679C67.1536-48.5679 64.2515-37.777 64.2515-28.0992C64.2515-18.43 67.1536-7.63045 76.8316-7.63045ZM76.8316-13.7327C73.1871-13.7327 71.8233-19.8155 71.8233-28.0992C71.8233-36.3914 73.1871-42.4656 76.8316-42.4656C80.4762-42.4656 81.8834-36.3914 81.8834-28.0992C81.8834-19.8155 80.4762-13.7327 76.8316-13.7327Z"/>
</svg>