<svg xmlns="http://www.w3.org/2000/svg" viewBox="12.4609 -80.7658 99.16 91.15">
  <path d="M28.47 10.3864L95.6157 10.3864C106.191 10.3864 111.625 4.9271 111.625-5.49242L111.625-64.8871C111.625-75.3066 106.191-80.7658 95.6157-80.7658L28.47-80.7658C17.9464-80.7658 12.4609-75.3238 12.4609-64.8871L12.4609-5.49242C12.4609 4.9443 17.9464 10.3864 28.47 10.3864ZM28.352 0.782262C24.2493 0.782262 22.0216-1.31745 22.0216-5.59154L22.0216-50.6672C22.0216-54.9413 24.2493-57.0496 28.352-57.0496L95.6902-57.0496C99.7585-57.0496 102.073-54.9413 102.073-50.6672L102.073-5.59154C102.073-1.31745 99.7585 0.782262 95.6902 0.782262ZM56.4549-6.92939C58.2171-6.92939 59.4044-7.68018 60.5328-9.78107L76.4976-39.1657C77.5026-40.9427 77.7631-42.0923 77.7631-43.2962C77.7631-46.1342 75.6215-48.1536 72.284-48.1536L50.7337-48.1536C48.7345-48.1536 47.3758-46.8479 47.3758-44.8978C47.3758-42.9461 48.7345-41.6405 50.7337-41.6405L68.7277-41.6405L68.7277-41.2633L53.0513-13.2768C52.5342-12.4117 52.3234-11.6095 52.3234-10.6393C52.3234-8.4081 54.1227-6.92939 56.4549-6.92939Z"/>
</svg>