<svg xmlns="http://www.w3.org/2000/svg" viewBox="12.4609 -75.681 175.65 81.13">
  <path d="M81.5975-25.0966C83.4923-25.0966 84.4283-26.1222 84.7763-28.0901L85.3257-30.8305L91.0645-30.8305L91.7283-28.0262C92.0866-26.0542 93.0946-25.0966 94.8756-25.0966C96.7093-25.0966 97.9264-26.4576 97.9264-28.2045C97.9264-28.9056 97.8018-29.5221 97.6321-30.2752L93.2118-49.2645C92.5661-52.025 90.792-53.1251 88.1389-53.1251C85.5538-53.1251 83.8745-51.9096 83.2842-49.2645L78.9176-30.2752C78.7376-29.4564 78.6216-28.7885 78.6216-28.2045C78.6216-26.1411 79.9074-25.0966 81.5975-25.0966ZM86.1013-35.4843L88.0246-45.885L88.2463-45.885L90.277-35.4843ZM104.642-25.0966C106.624-25.0966 107.885-26.392 107.885-28.4554L107.885-49.7577C107.885-51.8559 106.624-53.1251 104.642-53.1251C102.608-53.1251 101.41-51.8559 101.41-49.7577L101.41-28.4554C101.41-26.392 102.608-25.0966 104.642-25.0966ZM115.433-25.1486C117.425-25.1486 118.622-26.4023 118.622-28.4554L118.622-35.324L120.39-35.324L122.924-27.8392C123.495-26.1182 124.418-25.1486 126.12-25.1486C128.004-25.1486 129.259-26.3051 129.259-28.0394C129.259-28.6022 129.051-29.3971 128.829-30.0782L126.32-36.6777C128.592-38.1409 129.501-41.2549 129.501-43.9017C129.501-49.2538 126.727-52.7496 120.666-52.7496L115.433-52.7496C113.427-52.7496 112.198-51.5318 112.198-49.3822L112.198-28.4554C112.198-26.4006 113.378-25.1486 115.433-25.1486ZM118.622-39.751L118.622-47.8638L120.138-47.8638C122.028-47.8638 122.952-45.7631 122.952-43.8291C122.952-41.7894 122.045-39.7682 120.136-39.7596ZM25.7688-5.73173L41.7544-5.73173L41.7544-15.2016L26.6815-15.2016C23.7328-15.2016 21.9394-17.2207 21.9394-20.6815L21.9394-27.6815C21.9394-36.0566 27.3866-40.658 39.3204-42.1483L59.4131-44.6787L80.801-57.9839C91.4786-64.6512 97.711-66.1677 116.383-66.1677L155.097-66.1677C163.404-66.1677 167.932-63.9998 171.825-58.4761L174.051-55.2985C176.926-51.1048 178.635-46.0262 178.635-41.5432L178.635-20.5607C178.635-16.9105 177.16-15.2016 173.901-15.2016L162.022-15.2016L162.022-5.73173L175.019-5.73173C183.847-5.73173 188.113-10.4819 188.113-20.2567L188.113-41.5432C188.113-47.7516 185.795-54.9808 181.87-60.6497L179.644-63.8826C173.862-72.2949 166.763-75.681 155.097-75.681L116.383-75.681C96.0748-75.681 87.8701-73.6994 75.7436-66.0672L56.1765-53.8286L38.1446-51.6062C21.0621-49.5 12.4609-41.5527 12.4609-27.6815L12.4609-19.3426C12.4609-10.7488 17.4973-5.73173 25.7688-5.73173ZM63.1365-5.73173L140.114-5.73173L140.114-15.2016L63.1365-15.2016ZM52.2951 5.44913C62.0433 5.44913 69.7596-2.26715 69.7596-12.0588C69.7596-21.8624 62.0433-29.5873 52.2951-29.5873C42.5018-29.5873 34.7769-21.8624 34.7769-12.0588C34.7769-2.26715 42.5018 5.44913 52.2951 5.44913ZM52.2951-3.725C47.6199-3.725 43.9676-7.34247 43.9676-12.0177C43.9676-16.6929 47.6199-20.3018 52.2951-20.3018C56.96-20.3018 60.5878-16.6929 60.5878-12.0177C60.5878-7.34247 56.96-3.725 52.2951-3.725ZM150.966 5.44913C160.749 5.44913 168.474-2.26715 168.474-12.0588C168.474-21.8624 160.749-29.5873 150.966-29.5873C141.208-29.5873 133.491-21.8624 133.491-12.0588C133.491-2.26715 141.208 5.44913 150.966 5.44913ZM150.966-3.725C146.334-3.725 142.673-7.34247 142.673-12.0177C142.673-16.6929 146.334-20.3018 150.966-20.3018C155.622-20.3018 159.294-16.6929 159.294-12.0177C159.294-7.34247 155.622-3.725 150.966-3.725Z"/>
</svg>