<svg xmlns="http://www.w3.org/2000/svg" viewBox="8.72266 -85.6101 100.87 100.82">
  <path d="M59.1344 15.2134C86.9709 15.2134 109.59-7.40526 109.59-35.1983C109.59-62.9914 86.9709-85.6101 59.1344-85.6101C31.3413-85.6101 8.72266-62.9914 8.72266-35.1983C8.72266-7.40526 31.3413 15.2134 59.1344 15.2134ZM79.8086-11.2435L35.1019-55.8616C34.1436-56.8719 34.0916-58.505 35.1019-59.4719C36.1556-60.4822 37.7642-60.4822 38.7745-59.4719L83.3754-14.8086C84.4291-13.8086 84.4291-12.2623 83.3754-11.2435C82.452-10.2766 80.7754-10.2955 79.8086-11.2435ZM78.5076-36.7906C78.5076-33.3932 77.6093-30.1164 75.998-27.3479L71.2125-32.0883C71.9233-33.4789 72.2518-35.0666 72.2518-36.7906C72.2518-39.4445 71.3501-42.0194 69.8913-44.04C68.6891-45.7445 68.5661-47.3474 69.5307-48.5765C70.8867-50.1205 73.1666-50.0336 74.4848-48.3245C77.071-45.2315 78.5076-41.1433 78.5076-36.7906ZM90.668-36.7906C90.668-29.9803 88.5236-23.6694 84.6458-18.7087L80.1487-23.1972C82.934-27.0127 84.3687-31.6532 84.3687-36.7906C84.3687-42.7393 82.3626-48.1725 78.6413-52.2028C77.263-53.765 77.1367-55.5307 78.2379-56.8016C79.5309-58.3038 81.648-58.2604 83.0839-56.6713C87.9001-51.4335 90.668-44.3009 90.668-36.7906ZM39.8046-36.7906C39.8046-39.4858 40.3689-42.0651 41.4095-44.4214L46.4766-39.3611C46.235-38.5041 46.0707-37.6037 46.0707-36.6775C46.081-33.8845 46.9084-31.4489 48.3626-29.5434C49.6095-27.7807 49.7855-26.1658 48.7381-24.9543C47.4775-23.4796 45.137-23.5578 43.784-25.1714C41.2515-28.2959 39.8046-32.4293 39.8046-36.7906ZM27.6443-36.7906C27.6443-42.8885 29.4129-48.6052 32.5628-53.2475L37.1009-48.6951C35.0065-45.2397 33.9001-41.191 33.9001-36.7906C33.9001-30.7881 35.9496-25.3653 39.671-21.3366C41.0144-19.6899 41.1669-17.9636 40.0309-16.6825C38.7727-15.2237 36.6642-15.3642 35.2283-16.8578C30.3047-22.1248 27.6443-29.1334 27.6443-36.7906ZM56.1522-29.7118L62.16-23.7576L62.16-6.55357C62.16-4.57536 60.9309-3.27368 59.1344-3.27368C57.3813-3.27368 56.1522-4.62906 56.1522-6.55357Z"/>
</svg>