<svg xmlns="http://www.w3.org/2000/svg" viewBox="11.9591 -87.7057 97.69 104.89">
  <path d="M34.8491-32.6366L34.8491-55.1274C34.8491-58.9564 31.1381-60.2027 28.2918-57.9856L13.8971-46.6774C11.9763-45.2333 11.9591-42.6033 13.8971-41.1071L28.2918-29.844C31.2044-27.5692 34.8491-28.9789 34.8491-32.6366ZM53.3038-43.9582C53.3038-46.4351 51.3441-48.3514 48.8673-48.3514L25.2628-48.3514C22.7859-48.3514 20.8262-46.4351 20.8262-43.9582C20.8262-41.49 22.7859-39.5217 25.2628-39.5217L48.8673-39.5217C51.3441-39.5217 53.3038-41.49 53.3038-43.9582ZM79.9528-45.4147C91.6386-45.4147 101.085-54.9247 101.085-66.626C101.085-78.2581 91.5746-87.7057 79.9528-87.7057C68.2687-87.7057 58.7587-78.1507 58.7587-66.626C58.7587-54.8173 68.2687-45.4147 79.9528-45.4147ZM79.9528-3.08204C83.3999-3.08204 86.0402-4.72985 86.0402-7.00845L86.0402-57.1139L73.9278-57.1139L73.9278-7.00845C73.9278-4.72985 76.5595-3.08204 79.9528-3.08204ZM80.1676 17.1845C96.7368 17.1845 109.649 6.27279 109.649-7.84114C109.649-18.3649 102.437-27.1349 91.8398-30.855L91.8398-21.3869C97.443-18.537 100.961-13.6682 100.961-7.84114C100.961 1.43384 91.9944 8.54875 80.1676 8.54875C68.2975 8.54875 59.2688 1.43384 59.2688-7.84114C59.2688-13.5591 62.7123-18.3742 68.1368-21.172L68.1368-30.7373C57.6745-26.9722 50.5896-18.3009 50.5896-7.84114C50.5896 6.27279 63.4927 17.1845 80.1676 17.1845Z"/>
</svg>