<svg xmlns="http://www.w3.org/2000/svg" viewBox="12.4609 -86.7187 75.57 103.17">
  <path d="M88.0358 11.2201C88.0358 8.21947 85.8683 5.95475 82.9008 5.95475L17.6915 5.95475C14.672 5.95475 12.4609 8.21947 12.4609 11.2201C12.4609 14.2293 14.672 16.4506 17.6915 16.4506L82.9008 16.4506C85.8683 16.4506 88.0358 14.2293 88.0358 11.2201ZM17.5857-36.9985C14.6514-36.9985 12.4609-34.8057 12.4609-31.8343C12.4609-30.394 13.0105-29.1131 14.1223-27.9579L46.3029 4.23165C47.3633 5.37892 48.8029 5.97195 50.2535 5.97195C51.7127 5.97195 53.1438 5.37892 54.2042 4.23165L86.383-27.9579C87.4948-29.1131 88.0358-30.394 88.0358-31.8343C88.0358-34.8057 85.8454-36.9985 82.9197-36.9985C81.4217-36.9985 80.0795-36.4221 79.1546-35.4349L68.0722-24.504L50.2535-4.61769L32.4348-24.504L21.3507-35.4349C20.4173-36.4221 19.0751-36.9985 17.5857-36.9985ZM54.9315-3.85285L55.6114-20.6944L55.6114-81.3535C55.6114-84.5511 53.398-86.7187 50.2535-86.7187C47.109-86.7187 44.9043-84.5511 44.9043-81.3535L44.9043-20.6944L45.5756-3.85285C45.7035-1.29277 47.7021 0.825106 50.2535 0.825106C52.8136 0.825106 54.8035-1.29277 54.9315-3.85285Z" />
</svg>