<svg xmlns="http://www.w3.org/2000/svg" viewBox="12.4609 -80.7933 91.11 91.15">
  <path d="M28.47 10.3589L87.5607 10.3589C98.1277 10.3589 103.57 4.89962 103.57-5.51989L103.57-64.9145C103.57-75.3341 98.1277-80.7933 87.5607-80.7933L28.47-80.7933C17.9464-80.7933 12.4609-75.3513 12.4609-64.9145L12.4609-5.51989C12.4609 4.91683 17.9464 10.3589 28.47 10.3589ZM42.7016-10.5303C40.7075-10.5303 39.2069-12.0137 39.2069-14.0061L39.2069-46.013L39.2675-48.0772L37.6294-46.2653L32.6215-41.1832C32.0524-40.5272 31.0935-40.1706 30.2124-40.1706C28.1314-40.1706 26.7223-41.5986 26.7223-43.5841C26.7223-44.5013 27.2125-45.4327 27.8251-46.1218L40.1257-58.7812C41.5017-60.2108 43.9901-60.2125 45.3763-58.7812L57.7187-46.1218C58.3975-45.4241 58.7158-44.4664 58.7158-43.5841C58.7158-41.5986 57.3398-40.1706 55.3125-40.1706C54.3692-40.1706 53.5246-40.5186 52.8703-41.1832L47.9058-46.2653L46.1602-48.1081L46.2209-46.0564L46.2209-14.0061C46.2209-12.0223 44.6941-10.5303 42.7016-10.5303ZM73.4683-59.9406C75.419-59.9406 76.9458-58.4487 76.9458-56.4648L76.9458-24.4145L76.8851-22.3503L78.6536-24.2056L83.6181-29.3312C84.2392-29.9523 85.1461-30.3003 86.0272-30.3003C88.1082-30.3003 89.4738-28.8724 89.4738-26.8434C89.4738-26.0045 89.1311-25.0469 88.4665-24.3491L76.1138-11.6898C74.7379-10.2687 72.2495-10.2498 70.8632-11.6898L58.5815-24.3491C57.9375-25.0469 57.4803-25.9697 57.4803-26.8434C57.4803-28.8724 58.8997-30.3003 60.927-30.3003C61.8704-30.3003 62.8018-29.9523 63.3693-29.3312L68.3771-24.2056L70.0011-22.4497L69.9404-24.458L69.9404-56.4648C69.9404-58.4573 71.4324-59.9406 73.4683-59.9406Z"/>
</svg>