<svg xmlns="http://www.w3.org/2000/svg" viewBox="12.4609 -88.3977 90.82 106.19">
  <path d="M78.0833 5.81015L78.0833-53.3734C78.0833-60.9546 73.7702-65.3528 66.3537-65.3528L49.2681-65.3528C41.7996-65.3528 37.5488-60.9546 37.5488-53.3734L37.5488 5.81015C37.5488 13.3827 41.7996 17.7895 49.2681 17.7895L66.3537 17.7895C73.7702 17.7895 78.0833 13.3827 78.0833 5.81015ZM18.9632-33.2702L96.516-33.2702C100.227-33.2702 103.279-36.0791 103.279-39.8946C103.279-42.4935 102.188-44.2747 99.5816-47.1254L63.5687-85.7637C61.7318-87.6817 59.7289-88.3977 57.8698-88.3977C56.0851-88.3977 53.989-87.6628 52.2042-85.7534L15.8889-47.1254C13.5388-44.5432 12.4609-42.4477 12.4609-39.8077C12.4609-36.0791 15.2518-33.2702 18.9632-33.2702Z"/>
</svg>