<svg xmlns="http://www.w3.org/2000/svg" viewBox="12.4609 -80.7933 91.11 91.15">
  <path d="M28.47 10.3589L87.5607 10.3589C98.1277 10.3589 103.57 4.89962 103.57-5.51989L103.57-64.9145C103.57-75.3341 98.1277-80.7933 87.5607-80.7933L28.47-80.7933C17.9464-80.7933 12.4609-75.3513 12.4609-64.9145L12.4609-5.51989C12.4609 4.91683 17.9464 10.3589 28.47 10.3589ZM85.4469-45.0804C85.4469-43.8855 84.8874-42.8106 84.072-41.8981L70.4625-28.1223C69.7631-27.336 68.8409-26.9571 67.7066-26.9571C65.5895-26.9571 63.892-28.6947 63.892-30.9455C63.892-31.9392 64.2881-32.9797 65.072-33.6791L71.0976-39.2819L73.8348-41.3477L68.5392-41.1693L53.6174-41.1693C46.4347-41.1693 41.0982-36.9897 41.0982-29.5074C41.0982-21.9154 46.2941-17.1672 53.6402-17.1672L60.752-17.1672C63.134-17.1672 64.972-15.7296 64.972-13.2561C64.972-10.6666 63.1442-9.21707 60.6754-9.21707L53.6402-9.21707C41.6534-9.21707 32.8898-16.9393 32.8898-29.16C32.8898-41.3728 41.6203-48.8556 53.6174-48.8556L68.5392-48.8556L73.8782-48.7207L70.1942-51.6029L65.1155-56.4835C64.3418-57.1063 63.9126-58.1451 63.9126-59.1926C63.9126-61.4227 65.6204-63.1706 67.7706-63.1706C68.8512-63.1706 69.786-62.802 70.5059-61.9518L84.072-48.2873C84.8771-47.3851 85.4469-46.2856 85.4469-45.0804Z"/>
</svg>