<svg xmlns="http://www.w3.org/2000/svg" viewBox="12.4609 -80.783 115.6 91.15">
  <path d="M42.1901-37.6921C39.9788-37.6921 38.4331-39.4217 38.4331-41.7198L38.4331-61.0056C38.4331-64.0778 40.2466-65.5108 42.9731-65.5108L62.4286-65.5108C64.6833-65.5108 66.3158-63.9549 66.3158-61.7436C66.3158-59.4889 64.6833-57.9329 62.3418-57.9329L56.2988-57.9329L50.3204-58.5866L56.796-52.8645L66.5399-43.0527C67.3112-42.2813 67.8741-41.1997 67.8741-40.1649C67.8741-37.8068 66.2217-36.1978 63.9298-36.1978C62.7127-36.1978 61.7077-36.6635 60.8621-37.5091L51.1868-47.193L45.4299-53.5383L46.0007-47.2629L46.0007-41.633C46.0007-39.3348 44.4636-37.6921 42.1901-37.6921ZM98.3327-32.7218C100.544-32.7218 102.133-30.9922 102.133-28.6941L102.133-9.40827C102.133-6.33607 100.32-4.9031 97.5931-4.9031L78.0942-4.9031C75.8395-4.9031 74.207-6.45903 74.207-8.67031C74.207-10.925 75.8395-12.481 78.181-12.481L84.2674-12.481L90.2024-11.8273L83.7268-17.5928L73.9829-27.3612C73.2116-28.1325 72.6921-29.2142 72.6921-30.249C72.6921-32.6071 74.3446-34.2161 76.593-34.2161C77.8535-34.2161 78.8151-33.7504 79.6607-32.9048L89.3795-23.2209L95.1364-16.8756L94.5655-23.151L94.5655-28.7809C94.5655-31.0791 96.1026-32.7218 98.3327-32.7218ZM28.47 10.3692L112.053 10.3692C122.62 10.3692 128.062 4.9099 128.062-5.50962L128.062-64.9043C128.062-75.3238 122.62-80.783 112.053-80.783L28.47-80.783C17.9464-80.783 12.4609-75.341 12.4609-64.9043L12.4609-5.50962C12.4609 4.9271 17.9464 10.3692 28.47 10.3692Z"/>
</svg>