<svg xmlns="http://www.w3.org/2000/svg" viewBox="12.4609 -88.0637 83.72 105.66">
  <path d="M28.2963 17.5974L80.3056 17.5974C90.7509 17.5974 96.1843 12.1119 96.1843 1.5883L96.1843-42.0813L59.6786-42.0813C53.5637-42.0813 50.5911-45.0625 50.5911-51.1774L50.5911-88.0637L28.2963-88.0637C17.8768-88.0637 12.4609-82.5782 12.4609-72.0546L12.4609 1.5883C12.4609 12.1553 17.8596 17.5974 28.2963 17.5974ZM60.5063-49.2112L95.6303-49.2112C95.3857-51.442 93.748-53.5482 91.2453-56.0943L64.563-83.1674C62.1465-85.6273 59.9449-87.281 57.721-87.5879L57.721-51.9948C57.721-50.1242 58.6877-49.2112 60.5063-49.2112ZM58.9226 2.76495C58.9226 5.19835 56.8674 7.03475 54.4529 7.03475C51.995 7.03475 49.9398 5.19835 49.9398 2.76495L49.9398-13.5463L50.3409-21.424L46.5162-17.3988L42.7834-13.5225C41.9852-12.7163 40.8642-12.1684 39.7414-12.1684C37.4108-12.1684 35.7276-13.7963 35.7276-16.0961C35.7276-17.3619 36.226-18.3069 37.1733-19.1349L51.0466-31.8386C52.2373-32.903 53.1634-33.3847 54.4529-33.3847C55.699-33.3847 56.6337-32.903 57.8592-31.8386L71.7325-19.1349C72.645-18.3069 73.1434-17.3619 73.1434-16.0961C73.1434-13.7963 71.3647-12.1684 69.1296-12.1684C67.9754-12.1684 66.8567-12.7163 66.1224-13.5225L62.3565-17.3988L58.5215-21.424L58.9226-13.5463Z"/>
</svg>