<svg xmlns="http://www.w3.org/2000/svg" viewBox="8.72266 -85.6724 100.87 100.82">
  <path d="M59.1344 15.1511C86.9881 15.1511 109.59-7.40694 109.59-35.2606C109.59-63.1144 86.9881-85.6724 59.1344-85.6724C31.3241-85.6724 8.72266-63.1144 8.72266-35.2606C8.72266-7.40694 31.3241 15.1511 59.1344 15.1511ZM59.1344 5.24301C36.7449 5.24301 18.6656-12.8711 18.6656-35.2606C18.6656-57.6501 36.7449-75.7643 59.1344-75.7643C81.5239-75.7643 99.6381-57.6501 99.6381-35.2606C99.6381-12.8711 81.5239 5.24301 59.1344 5.24301ZM44.6521-12.1774C46.8548-12.1774 48.5427-13.9459 48.5427-16.1731L48.5427-35.5329C48.5427-39.3939 50.9915-41.7582 54.8188-41.7582L72.364-41.7582C74.5169-41.7582 76.3082-43.4975 76.3082-45.7025C76.3082-47.8223 74.5169-49.6033 72.364-49.6033L54.7668-49.6033C46.1473-49.6033 40.7079-44.2381 40.7079-35.7152L40.7079-16.1731C40.7079-13.9545 42.4289-12.1774 44.6521-12.1774ZM67.8829-54.3784L67.8829-36.9579C67.8829-34.1408 70.0576-33.2276 72.2953-34.8717L84.2363-43.2619C86.1283-44.6099 86.1512-46.6846 84.2363-48.099L72.3388-56.4978C70.0782-58.1869 67.8829-57.3377 67.8829-54.3784Z" />
</svg>