<svg xmlns="http://www.w3.org/2000/svg" viewBox="12.3363 -100.053 82.11 124.58">
  <path d="M38.4343 24.5301L68.3093 24.5301C85.712 24.5301 94.4422 15.6479 94.3176-1.98683C94.1306-21.6311 94.006-35.9704 93.5162-46.7012C92.0884-78.6096 82.889-88.0943 53.3675-88.0943C23.8461-88.0943 14.6901-78.6096 13.2623-46.7012C12.7725-35.9704 12.6479-21.6311 12.4609-1.98683C12.3363 15.6479 21.0231 24.5301 38.4343 24.5301ZM38.4343 16.0277C25.794 16.0277 20.8284 10.9999 20.9531-1.88802C21.14-21.5671 21.2646-35.7698 21.7544-46.3018C22.9714-73.6553 28.6256-79.5833 53.3675-79.5833C78.1529-79.5833 83.7637-73.6553 84.9807-46.3018C85.4705-35.7698 85.5951-21.5671 85.782-1.88802C85.9066 10.9999 80.9845 16.0277 68.3093 16.0277ZM53.3659-100.053C43.6644-100.053 36.9376-93.4665 36.9376-84.3011L44.5941-84.3011C44.5941-89.1132 48.1782-92.4662 53.3659-92.4662C58.5449-92.4662 62.1291-89.1132 62.1291-84.3011L69.8289-84.3011C69.8289-93.4665 63.1107-100.053 53.3659-100.053ZM37.4978 4.74543L69.2807 4.74543C73.861 4.74543 76.8958 1.71056 76.8958-2.82465L76.8958-27.3562C76.8958-31.8811 73.861-34.9263 69.2807-34.9263L37.4978-34.9263C32.9278-34.9263 29.8913-31.8377 29.8913-27.3562L29.8913-2.82465C29.8913 1.65686 32.9278 4.74543 37.4978 4.74543ZM38.8819-2.6912C37.9902-2.6912 37.373-3.30838 37.373-4.18127L37.373-25.9459C37.373-26.8725 37.9902-27.4548 38.8819-27.4548L67.8531-27.4548C68.7883-27.4548 69.4141-26.8725 69.4141-25.9459L69.4141-4.18127C69.4141-3.30838 68.7883-2.6912 67.8531-2.6912ZM33.8244-14.7856L72.9192-14.7856L72.9192-21.5258L33.8244-21.5258Z"/>
</svg>