<svg xmlns="http://www.w3.org/2000/svg" viewBox="8.72266 -84.8664 119.15 99.21">
  <path d="M8.72266-25.3626C8.72266-10.7187 14.0024 2.68431 22.7345 13.0642C23.805 14.3319 25.5602 14.3336 26.7639 13.1282L38.5321 1.35828C39.4272 0.506593 39.4706-0.697724 38.667-1.6843C33.374-8.43356 30.3731-16.5554 30.3731-25.3626C30.3731-44.6861 44.8215-60.6451 63.4911-63.0416C64.9109-63.1971 65.9174-64.2745 65.9174-65.6856L65.9174-81.9423C65.9174-83.6335 64.6308-84.8664 62.9396-84.7126C32.5897-82.0155 8.72266-56.4824 8.72266-25.3626ZM127.872-25.3626C127.872-56.4824 104.068-82.0155 73.6555-84.7126C71.9643-84.8664 70.6777-83.6335 70.6777-81.9423L70.6777-65.6856C70.6777-64.2745 71.6842-63.1971 73.1126-63.0416C91.7736-60.6451 106.265-44.6861 106.265-25.3626C106.265-16.5554 103.265-8.43356 97.9179-1.67402C97.1576-0.687447 97.2011 0.51687 98.0528 1.36855L109.83 13.1385C111.033 14.3438 112.797 14.3336 113.876 13.0573C122.645 2.66711 127.872-10.7273 127.872-25.3626ZM58.1069-3.6425L70.6867-3.6425C79.1152-3.6425 85.4519-7.69775 85.4519-15.6107C85.4519-21.2943 81.3173-25.4284 75.3585-26.0057L75.3585-26.2705C80.0851-27.0221 83.3329-31.2261 83.3329-35.5847C83.3329-42.5545 77.5218-46.1476 70.4958-46.1476L58.1069-46.1476C55.6716-46.1476 54.1521-44.5682 54.1521-42.1346L54.1521-7.64692C54.1521-5.26534 55.6716-3.6425 58.1069-3.6425ZM60.9424-28.0664L60.9424-40.8438L68.7549-40.8438C73.1597-40.8438 76.5854-39.011 76.5854-34.6901C76.5854-29.7971 72.4888-28.0664 67.5786-28.0664ZM60.9424-9.04174L60.9424-23.0567L68.8176-23.0567C74.1274-23.0567 78.5702-21.2878 78.5702-16.0734C78.5702-10.8643 74.4618-9.04174 69.2321-9.04174ZM61.0391-42.9045L64.163-42.9045L64.163-50.8217C64.163-51.775 63.4892-52.4402 62.6228-52.4402C61.6695-52.4402 61.0391-51.775 61.0391-50.8217ZM68.8268-42.9045L71.9421-42.9045L71.9421-50.8217C71.9421-51.775 71.2769-52.4402 70.367-52.4402C69.4572-52.4402 68.8268-51.775 68.8268-50.8217ZM61.0391-6.97542L61.0391 1.07986C61.0391 1.98969 61.6695 2.66351 62.6228 2.66351C63.4892 2.66351 64.163 1.98969 64.163 1.07986L64.163-6.97542ZM68.8268-6.97542L68.8268 1.07986C68.8268 1.98969 69.4572 2.66351 70.367 2.66351C71.2769 2.66351 71.9421 1.98969 71.9421 1.07986L71.9421-6.97542Z"/>
</svg>