<svg xmlns="http://www.w3.org/2000/svg" viewBox="12.5555 -86.0084 105.49 101.56">
  <path d="M12.5555-81.2281C12.5555-78.6176 14.7255-76.4477 17.3273-76.4477L113.268-76.4477C115.913-76.4477 118.048-78.6176 118.048-81.2281C118.048-83.8299 115.913-86.0084 113.268-86.0084L17.3273-86.0084C14.7255-86.0084 12.5555-83.8299 12.5555-81.2281ZM17.3273-64.4662C19.2948-64.4662 20.9183-66.1554 20.9183-68.0589C20.9183-70.0264 19.3051-71.5979 17.3273-71.5979C15.3581-71.5979 13.7883-70.0264 13.7883-68.0589C13.7883-66.1554 15.3684-64.4662 17.3273-64.4662ZM17.3273-53.1998C19.2948-53.1998 20.9183-54.8249 20.9183-56.7388C20.9183-58.7497 19.3051-60.3314 17.3273-60.3314C15.3581-60.3314 13.7883-58.7497 13.7883-56.7388C13.7883-54.8249 15.3684-53.1998 17.3273-53.1998ZM17.3273-41.9367C19.2948-41.9367 20.9183-43.5705 20.9183-45.4843C20.9183-47.4432 19.3051-49.0232 17.3273-49.0232C15.3581-49.0232 13.7883-47.4432 13.7883-45.4843C13.7883-43.5705 15.3684-41.9367 17.3273-41.9367ZM17.3273-30.6371C19.2948-30.6371 20.9183-32.3246 20.9183-34.2281C20.9183-36.1767 19.3051-37.767 17.3273-37.767C15.3581-37.767 13.7883-36.1767 13.7883-34.2281C13.7883-32.3246 15.3684-30.6371 17.3273-30.6371ZM17.3273-19.3723C19.2948-19.3723 20.9183-21.0061 20.9183-22.9199C20.9183-24.9222 19.3051-26.5023 17.3273-26.5023C15.3581-26.5023 13.7883-24.9222 13.7883-22.9199C13.7883-21.0061 15.3684-19.3723 17.3273-19.3723ZM17.3273-8.11616C19.2948-8.11616 20.9183-9.74991 20.9183-11.6654C20.9183-13.6329 19.3051-15.2027 17.3273-15.2027C15.3581-15.2027 13.7883-13.6329 13.7883-11.6654C13.7883-9.74991 15.3684-8.11616 17.3273-8.11616ZM17.3273 15.5488C19.59 15.5488 21.4704 13.658 21.4704 11.3953L21.4704 0.205235C21.4704-2.04716 19.642-3.94818 17.3273-3.94818C15.0646-3.94818 13.2013-2.04716 13.2013 0.205235L13.2013 11.3953C13.2013 13.658 15.0732 15.5488 17.3273 15.5488ZM27.0205-67.1191L27.0205-56.7156C27.0205-54.3361 28.6218-52.7869 31.0184-52.7869L109.734-52.7869C112.226-52.7869 113.74-54.3898 113.74-56.7693L113.74-67.1625C113.74-69.5334 112.183-71.0724 109.734-71.0724L31.0184-71.0724C28.5783-71.0724 27.0205-69.4797 27.0205-67.1191ZM27.0205-44.3903L27.0205-33.9102C27.0205-31.6089 28.5783-30.0683 31.0184-30.0683L109.777-30.0683C112.183-30.0683 113.74-31.6626 113.74-33.9204L113.74-44.444C113.74-46.728 112.193-48.3104 109.788-48.3104L31.0184-48.3104C28.6218-48.3104 27.0205-46.7177 27.0205-44.3903ZM27.0205-21.6631L27.0205-11.1916C27.0205-8.84695 28.5783-7.26293 31.0184-7.26293L109.744-7.26293C112.236-7.26293 113.74-8.85723 113.74-11.2019L113.74-21.7168C113.74-23.966 112.226-25.5484 109.734-25.5484L31.0184-25.5484C28.6218-25.5484 27.0205-23.9558 27.0205-21.6631ZM27.0308 1.14228L27.0308 11.5269C27.0308 13.915 28.5349 15.4642 30.975 15.4642L109.691 15.4642C112.139 15.4642 113.74 13.9048 113.74 11.5167L113.74 1.13201C113.74-1.29091 112.183-2.7864 109.734-2.7864L31.0184-2.7864C28.5349-2.7864 27.0308-1.23721 27.0308 1.14228Z"/>
</svg>