<svg xmlns="http://www.w3.org/2000/svg" viewBox="12.4609 -94.2497 98.92 117.72">
  <path d="M69.5726 23.4678C87.9713 23.4576 99.3013 16.8231 99.3013 5.41319L99.3013-18.2001C106.922-24.9896 111.382-35.8376 111.382-47.6773C111.382-75.6189 93.1873-94.2497 66.0921-94.2497C39.0851-94.2497 21.0065-75.9842 21.0065-48.7193C21.0065-47.2496 21.0499-46.0068 21.1729-44.8178L14.9175-33.6427C13.2988-30.7169 12.4609-27.8221 12.4609-25.1409C12.4609-20.1637 15.5281-16.0352 21.0134-14.7368L21.0134-6.3337C21.0134 2.95194 27.3689 7.7292 36.0164 6.97459L40.3551 6.55019L40.322 6.9305C41.1892 17.3903 52.2142 23.4678 69.5726 23.4678ZM48.9408-41.6411C41.0721-41.6411 35.803-47.8297 35.803-55.8853C35.803-58.9589 36.7647-61.8944 38.4146-64.3792C39.9428-61.5081 42.9811-59.7432 46.9061-59.7432C48.3324-59.7432 49.5061-60.9083 49.5061-62.2392C49.5061-63.6638 48.3758-64.8043 46.9061-64.8043C44.2496-64.8043 42.2582-66.971 42.2582-69.8211C42.2582-74.3511 46.6351-78.085 52.6973-78.085C53.5177-78.085 54.2308-78.0244 55.0254-77.9277C54.5444-76.683 54.047-75.3211 53.9864-73.4677C53.9344-71.9151 54.9589-70.7934 56.4893-70.7934C57.9778-70.7934 58.9835-71.7991 58.9835-73.3225C59.0265-77.6996 62.4092-80.6544 67.1411-80.6544C69.8955-80.6544 72.7959-79.3063 74.87-77.0619C75.3762-77.202 75.9693-77.2626 77.7344-77.2626C83.3275-77.2832 87.8745-72.7295 87.8745-67.0537C87.8745-55.4361 68.7829-53.6686 68.7829-40.3434C68.7829-39.5996 68.9041-38.918 69.1569-38.1913C67.7981-37.9712 66.4713-37.8672 65.376-37.8672C62.4642-37.8672 59.8139-38.4602 57.5193-39.6119C61.2696-41.7884 63.469-45.5469 63.5204-50.1052C63.5204-51.1424 63.4438-52.159 63.1746-53.0905C68.527-54.4171 71.2804-58.0627 71.2718-63.6735C71.2718-65.058 70.1107-66.2318 68.7278-66.2318C67.3638-66.2318 66.2524-65.1015 66.2524-63.6649C66.2524-60.253 64.5619-58.1298 61.0422-57.539C60.8735-57.9126 60.5754-58.4222 60.2121-58.6682C59.6069-59.2688 58.887-59.4591 58.2327-59.4591C56.9035-59.4591 55.8166-58.4694 55.8166-57.1259C55.8166-56.47 56.1126-55.578 56.9612-54.802C57.9629-53.8003 58.6203-52.2515 58.6203-50.4799C58.6203-45.2984 54.6072-41.6411 48.9408-41.6411ZM86.6049-28.057C82.8855-28.057 79.8928-31.1672 79.0413-35.7673L78.335-35.7673C75.1333-35.7673 73.2943-37.7483 73.2943-40.5165C73.2943-50.1587 90.8307-52.2254 92.4705-66.0111C95.9472-63.8628 98.0776-60.3139 98.0776-55.9681C98.0776-51.1735 94.5864-48.1403 89.2414-48.5597C87.9191-48.6773 86.7597-47.4413 86.7597-46.0654C86.7597-44.7448 87.7494-43.6596 89.1671-43.5625C91.6782-43.4014 93.9258-43.7616 95.8636-44.5151C95.8722-43.8919 95.8722-43.1646 95.8722-42.5413C95.8722-34.015 92.0206-28.057 86.6049-28.057Z"/>
</svg>