<svg xmlns="http://www.w3.org/2000/svg" viewBox="12.4609 -87.5129 128.62 104.65">
  <path d="M28.47-6.07446L40.1544-6.07446L40.1544-15.6351L29.0468-15.6351C24.5098-15.6351 22.0216-17.9954 22.0216-22.7472L22.0216-70.8402C22.0216-75.592 24.5098-77.9522 29.0468-77.9522L99.3879-77.9522C103.89-77.9522 106.413-75.592 106.413-70.8402L106.413-58.689L115.974-58.689L115.974-71.6776C115.974-82.0971 110.488-87.5129 99.9647-87.5129L28.47-87.5129C17.903-87.5129 12.4609-82.1143 12.4609-71.6776L12.4609-21.9098C12.4609-11.4731 17.903-6.07446 28.47-6.07446ZM53.5789 17.1334L125.074 17.1334C135.649 17.1334 141.083 11.7348 141.083 1.29808L141.083-43.7396C141.083-54.1763 135.649-59.6097 125.074-59.6097L119.111-59.6097C115.417-59.6097 114.226-60.0085 112.09-62.2106L108.391-65.8961C105.787-68.5261 103.206-69.7229 99.2569-69.7229L79.4042-69.7229C75.4549-69.7229 72.8745-68.5261 70.2696-65.8961L66.614-62.2106C64.4349-60.0085 63.2444-59.6097 59.5934-59.6097L53.5789-59.6097C43.0119-59.6097 37.5785-54.1763 37.5785-43.7396L37.5785 1.29808C37.5785 11.7348 43.0119 17.1334 53.5789 17.1334ZM54.1557 7.57276C49.6274 7.57276 47.1305 5.21249 47.1305 0.460711L47.1305-42.9456C47.1305-47.6888 49.6274-50.0142 54.1557-50.0142L62.1473-50.0142C66.2288-50.0142 68.8018-50.8536 71.1765-53.3152L75.7729-57.8821C77.548-59.5624 78.9932-60.1708 81.7566-60.1708L96.9479-60.1708C99.7113-60.1708 101.113-59.5624 102.888-57.8821L107.485-53.3152C109.859-50.8536 112.432-50.0142 116.557-50.0142L124.497-50.0142C129.034-50.0142 131.531-47.6888 131.531-42.9456L131.531 0.460711C131.531 5.21249 129.034 7.57276 124.497 7.57276ZM89.3697 1.29443C102.158 1.29443 112.49-9.0463 112.49-21.8782C112.49-34.6232 102.158-45.0159 89.3697-45.0159C76.5898-45.0159 66.2143-34.6232 66.2143-21.8782C66.2143-9.0463 76.5898 1.29443 89.3697 1.29443ZM89.3697-7.07673C81.2202-7.07673 74.5752-13.687 74.5752-21.8884C74.5752-30.0117 81.2202-36.6653 89.3697-36.6653C97.5277-36.6653 104.129-30.0117 104.129-21.8884C104.129-13.687 97.5277-7.07673 89.3697-7.07673ZM120.313-33.1028C123.276-33.1028 125.676-35.5463 125.676-38.5333C125.676-41.4958 123.276-43.9479 120.313-43.9479C117.308-43.9479 114.855-41.4958 114.855-38.5333C114.855-35.5463 117.308-33.1028 120.313-33.1028Z"/>
</svg>