<svg xmlns="http://www.w3.org/2000/svg" viewBox="8.72266 -85.6101 100.87 100.82">
  <path d="M59.1344 15.2134C86.9709 15.2134 109.59-7.40526 109.59-35.1983C109.59-62.9914 86.9709-85.6101 59.1344-85.6101C31.3413-85.6101 8.72266-62.9914 8.72266-35.1983C8.72266-7.40526 31.3413 15.2134 59.1344 15.2134ZM36.36-12.228C33.813-12.228 32.0776-13.9635 32.0776-16.5728L32.0776-56.3579C32.0776-58.0772 33.4826-59.5171 35.1831-59.5171C36.9253-59.5171 38.3201-58.0669 38.3201-56.3579L38.3201-41.8156L69.5411-41.8156L69.5411-46.6394C69.5411-48.5234 71.5255-49.4661 73.3426-48.3792L85.9813-40.8905C87.5607-39.9962 87.5505-37.7094 85.9379-36.7734L73.3947-29.2395C71.6021-28.1772 69.5411-29.1458 69.5411-31.0749L69.5411-35.8101L38.3201-35.8101L38.3201-19.0748C38.3201-18.694 38.5418-18.4723 38.9226-18.4723L83.3379-18.4723C85.0469-18.4723 86.4434-17.0672 86.4434-15.3581C86.4434-13.6245 85.0383-12.228 83.3379-12.228Z"/>
</svg>