<svg xmlns="http://www.w3.org/2000/svg" viewBox="12.4609 -83.6704 109.35 102.81">
  <path d="M43.8946 19.139C46.6366 19.139 48.6523 17.8128 51.9672 14.8555L68.7169 0.0616135L98.8859 0.0616135C113.559 0.0616135 121.813-8.38344 121.813-22.8658L121.813-60.743C121.813-75.2253 113.559-83.6704 98.8859-83.6704L35.3884-83.6704C20.7151-83.6704 12.4609-75.2425 12.4609-60.743L12.4609-22.8658C12.4609-8.36624 20.9206 0.0616135 35.0801 0.0616135L37.6714 0.0616135L37.6714 12.0861C37.6714 16.4262 39.9626 19.139 43.8946 19.139ZM46.269 8.39623L46.269-5.52166C46.269-8.41912 45.0658-9.49906 42.2917-9.49906L35.6728-9.49906C26.4216-9.49906 22.0216-14.1705 22.0216-23.1502L22.0216-60.4585C22.0216-69.4035 26.4216-74.0663 35.6728-74.0663L98.6015-74.0663C107.818-74.0663 112.253-69.4035 112.253-60.4585L112.253-23.1502C112.253-14.1705 107.818-9.49906 98.6015-9.49906L68.1797-9.49906C65.2535-9.49906 63.8146-9.00651 61.7563-6.90768ZM51.5513-18.9133C53.7345-18.9133 55.189-20.0347 55.9942-22.7372L58.9901-31.603L75.2407-31.603L78.2715-22.7372C79.0332-20.0433 80.4964-18.9133 82.6881-18.9133C85.3317-18.9133 86.9921-20.5113 86.9921-22.9852C86.9921-23.788 86.8018-24.6924 86.3573-25.9596L73.8502-60.2096C72.699-63.5112 70.4011-65.1514 67.0412-65.1514C63.7555-65.1514 61.5856-63.5215 60.3806-60.2096L47.865-25.9596C47.4639-24.6924 47.2736-23.788 47.2736-22.9938C47.2736-20.5027 48.934-18.9133 51.5513-18.9133ZM61.0313-38.3813L66.84-56.0242L67.3823-56.0242L73.191-38.3813Z"/>
</svg>