<svg xmlns="http://www.w3.org/2000/svg" viewBox="12.4609 -84.9287 111.94 99.58">
  <path d="M34.0017-41.8837C45.7355-41.8837 55.4642-51.6907 55.4642-63.4331C55.4642-75.2086 45.7355-84.9287 34.0017-84.9287C22.1622-84.9287 12.4609-75.2 12.4609-63.4331C12.4609-51.6993 22.2056-41.8837 34.0017-41.8837ZM34.0017-50.1683C26.7628-50.1683 20.7456-56.2461 20.7456-63.4331C20.7456-70.6183 26.8148-76.6961 34.0017-76.6961C41.1538-76.6961 47.1882-70.6097 47.1882-63.4331C47.1882-56.2461 41.1538-50.1683 34.0017-50.1683ZM34.0017 14.6464C45.7355 14.6464 55.4642 4.83939 55.4642-6.9116C55.4642-18.6785 45.7355-28.4421 34.0017-28.4421C22.1622-28.4421 12.4609-18.6699 12.4609-6.9116C12.4609 4.83079 22.2056 14.6464 34.0017 14.6464ZM34.0017 6.3617C26.7628 6.3617 20.7456 0.283906 20.7456-6.9116C20.7456-14.0882 26.8148-20.166 34.0017-20.166C41.1538-20.166 47.1882-14.0796 47.1882-6.9116C47.1882 0.283906 41.1538 6.3617 34.0017 6.3617ZM71.198-58.772L119.78-58.772C122.339-58.772 124.398-60.8591 124.398-63.3896C124.398-65.9596 122.35-68.0158 119.78-68.0158L71.198-68.0158C68.6469-68.0158 66.6232-65.939 66.6232-63.3896C66.6232-60.8797 68.6572-58.772 71.198-58.772ZM71.198-2.28543L119.78-2.28543C122.339-2.28543 124.398-4.37247 124.398-6.9116C124.398-9.47296 122.35-11.5292 119.78-11.5292L71.198-11.5292C68.6469-11.5292 66.6232-9.45241 66.6232-6.9116C66.6232-4.39303 68.6572-2.28543 71.198-2.28543Z" />
</svg>