<svg xmlns="http://www.w3.org/2000/svg" viewBox="8.72266 -85.6724 100.87 100.82">
  <path d="M59.1344 15.1511C86.9881 15.1511 109.59-7.40694 109.59-35.2606C109.59-63.1144 86.9881-85.6724 59.1344-85.6724C31.3241-85.6724 8.72266-63.1144 8.72266-35.2606C8.72266-7.40694 31.3241 15.1511 59.1344 15.1511ZM59.1344 5.24301C36.7449 5.24301 18.6656-12.8711 18.6656-35.2606C18.6656-57.6501 36.7449-75.7643 59.1344-75.7643C81.5239-75.7643 99.6381-57.6501 99.6381-35.2606C99.6381-12.8711 81.5239 5.24301 59.1344 5.24301ZM43.8756-29.2821L72.1654-29.2821C79.6711-29.2821 85.3673-35.045 85.3673-42.1935C85.3673-49.5637 79.4053-55.0001 71.6262-55.0001C68.7321-60.6531 63.467-64.2026 56.8507-64.2026C48.2056-64.2026 41.1411-57.5853 40.2592-49.0103C36.0331-47.7111 32.9535-44.1037 32.9535-39.2775C32.9535-33.7429 37.0289-29.2821 43.8756-29.2821ZM46.8324-16.6665L49.609-21.4273C50.1977-22.48 49.8947-23.9258 48.7449-24.5681C47.6803-25.1933 46.2779-24.7567 45.6979-23.704L42.9212-18.9347C42.3326-17.934 42.6355-16.4448 43.7956-15.8459C44.8413-15.2121 46.2437-15.6573 46.8324-16.6665ZM59.7564-16.646L62.533-21.4067C63.1217-22.4594 62.8188-23.9052 61.7124-24.5476C60.6043-25.1727 59.2105-24.7362 58.6219-23.6835L55.8452-18.9141C55.2566-17.9135 55.5595-16.4242 56.7196-15.8253C57.774-15.1916 59.2112-15.6367 59.7564-16.646ZM72.6804-16.6665L75.457-21.4273C76.0023-22.48 75.6993-23.9258 74.593-24.5681C73.4849-25.1933 72.0911-24.7567 71.5025-23.704L68.7692-18.9347C68.1806-17.934 68.4835-16.4448 69.6002-15.8459C70.698-15.2121 72.0917-15.6573 72.6804-16.6665ZM41.025-7.13788C42.7614-7.13788 44.2468-8.57991 44.2468-10.3786C44.2468-12.1669 42.7614-13.609 41.025-13.609C39.2264-13.609 37.7409-12.1669 37.7409-10.3786C37.7409-8.57991 39.2264-7.13788 41.025-7.13788ZM53.949-7.11732C55.694-7.11732 57.1708-8.55936 57.1708-10.358C57.1708-12.1464 55.694-13.5884 53.949-13.5884C52.1504-13.5884 50.7084-12.1464 50.7084-10.358C50.7084-8.55936 52.1504-7.11732 53.949-7.11732ZM66.8296-7.13788C68.618-7.13788 70.06-8.57991 70.06-10.3786C70.06-12.1669 68.618-13.609 66.8296-13.609C65.0744-13.609 63.5889-12.1669 63.5889-10.3786C63.5889-8.57991 65.0744-7.13788 66.8296-7.13788Z" />
</svg>