<svg xmlns="http://www.w3.org/2000/svg" viewBox="8.72266 -85.6724 100.87 100.82">
  <path d="M56.0964-43.3309L49.786-54.274C49.0511-55.4257 48.9888-56.4931 49.4314-57.8875L51.8007-63.9436C52.3717-65.3611 53.0485-65.8059 54.0277-65.8059C55.123-65.8059 55.9346-65.0427 56.2096-63.3206L57.6229-55.2082ZM58.2474-36.3171L62.0677-63.3206C62.3325-64.8799 63.0904-65.8059 64.2931-65.8059C65.2723-65.8059 66.0028-65.3074 66.5201-63.9436L68.8254-57.8875C69.332-56.4931 69.2697-55.4257 68.5348-54.274ZM46.2002-7.28776C42.1561-7.28776 39.465-10.048 39.645-14.0922L39.8405-19.8049L39.4403-18.4606C38.8864-18.1502 38.1732-18.1265 37.3379-18.4015L31.8683-19.905C29.4829-20.6633 28.7163-22.4777 29.3582-24.8658L38.1329-56.4797C38.5776-58.3677 39.8099-59.6262 41.9685-60.5628L47.8239-62.7984L45.887-57.9481C45.2747-56.3131 45.4981-54.9982 46.4112-53.3288L54.7085-39.4546L54.7085-7.28776ZM58.1524-7.28776L58.1524-30.3889L71.8559-53.3288C72.8227-54.9982 73.0462-56.3131 72.3698-57.9481L70.4969-62.7984L76.3523-60.5628C78.4052-59.6799 79.6358-58.3677 80.1342-56.5334L88.9191-24.8658C89.5611-22.4777 88.7203-20.6633 86.4091-19.9587L81.0367-18.4015C80.3001-18.1802 79.4881-18.1502 78.9343-18.4606L78.534-19.8049L78.7295-14.0922C78.8558-10.048 76.2722-7.28776 72.1309-7.28776ZM65.0422-23.4844C66.4979-23.4844 67.7375-24.6269 67.7375-26.1797C67.7375-27.6182 66.5516-28.8766 65.0422-28.8766C63.5603-28.8766 62.4162-27.6821 62.4162-26.1797C62.3625-24.6269 63.5066-23.4844 65.0422-23.4844ZM65.0422-12.6145C66.4979-12.6145 67.7375-13.873 67.7375-15.3823C67.7375-16.8019 66.5516-18.0067 65.0422-18.0067C63.5603-18.0067 62.4162-16.8642 62.4162-15.3823C62.3625-13.873 63.5066-12.6145 65.0422-12.6145ZM59.1344 15.1511C86.9709 15.1511 109.59-7.46756 109.59-35.2606C109.59-63.0537 86.9709-85.6724 59.1344-85.6724C31.3413-85.6724 8.72266-63.0537 8.72266-35.2606C8.72266-7.46756 31.3413 15.1511 59.1344 15.1511Z"/>
</svg>