<svg xmlns="http://www.w3.org/2000/svg" viewBox="12.4523 -108.009 192.45 140.04">
  <path d="M96.0133-84.5195C91.8496-98.0055 79.1621-108.009 64.3572-108.009C46.0896-108.009 30.9867-92.8626 30.9867-74.5516C30.9867-66.3317 34.0573-58.6972 38.877-53.1626C39.6838-52.2855 40.7701-51.6484 41.9534-51.6484C44.0172-51.6484 45.7107-53.3402 45.7107-55.42C45.7107-56.3388 45.4147-57.1834 44.5724-58.0336C41.0372-62.0169 38.5951-68.0498 38.5951-74.5619C38.5951-89.0128 49.9394-100.411 64.3572-100.411C77.5653-100.411 88.1331-90.8529 89.7789-78.1317C92.0536-81.8337 93.3301-83.4463 96.0133-84.5195ZM47.1416-87.0822C48.433-85.7908 50.5295-85.7908 51.8992-87.0736C53.1906-88.3982 53.182-90.4964 51.8906-91.7878L46.3446-97.2904L41.6373-92.5414ZM64.3572-92.3467C66.1611-92.3467 67.728-93.8964 67.728-95.7174L67.728-103.426L61.0402-103.426L61.0402-95.7174C61.0402-93.8964 62.5464-92.3467 64.3572-92.3467ZM76.8153-87.0736C78.1415-85.7908 80.2815-85.7908 81.5643-87.0822L87.0337-92.5414L82.3265-97.2904L76.8239-91.7878C75.5325-90.4964 75.5239-88.3982 76.8153-87.0736ZM64.2994-68.3991C67.5579-68.4432 69.7815-70.9457 69.7467-74.0739C69.7033-77.2628 67.0596-79.5749 64.0096-79.4881C63.3633-79.4778 62.2689-79.2315 61.4604-78.9773L45.7291-75.119C44.6286-74.8213 44.0578-74.0317 44.1115-73.1705C44.1447-72.254 44.7675-71.5513 45.9114-71.3319L61.9754-68.6408C62.8376-68.4734 63.6325-68.3991 64.2994-68.3991ZM15.1194-66.615L24.6279-72.7813C25.912-73.6659 25.9451-75.118 24.5742-75.994L15.2063-82.1169C14.0131-82.9283 12.4941-82.2862 12.4609-80.6791L12.4609-68.0316C12.4523-66.4503 13.9451-65.8258 15.1194-66.615ZM68.2153 28.9851C69.5797 31.2939 72.4712 32.0321 74.5944 30.794L201.969-42.7285C204.073-43.9666 204.902-46.8164 203.671-49.0366C202.289-51.354 199.387-52.075 197.283-50.8369L69.9082 22.6855C67.7937 23.9253 66.967 26.782 68.2153 28.9851ZM70.4495 5.03178L80.3444 0.67198L77.3243-6.00373L68.3376-2.07292C66.1744-1.09764 64.6285-1.54069 63.5634-3.33643L61.105-7.66166C57.8586-13.2773 59.7127-18.7675 66.6388-24.7521L86.2304-41.5937C87.9164-43.0391 89.4276-44.2092 90.0282-45.9053C93.2641-55.0116 97.6617-64.0225 103.147-72.8989C105.746-77.124 99.5047-80.7082 96.7501-76.2555C91.0802-67.1252 86.2802-57.5052 82.8591-48.153L62.1937-30.4593C52.1559-21.7989 49.4426-13.2087 54.7704-3.97358L57.5242 0.826348C60.6776 6.23822 64.6986 7.58458 70.4495 5.03178ZM92.6202 1.65831C99.7015-2.39274 102-11.1109 97.9154-18.182C93.8541-25.2547 85.1548-27.5614 78.0735-23.5206C71.0025-19.4262 68.694-10.7166 72.7451-3.63526C76.831 3.43577 85.5492 5.74417 92.6202 1.65831ZM89.1589-4.2901C85.4749-2.15368 80.8647-3.38112 78.7283-7.10684C76.5919-10.7805 77.8193-15.3907 81.5016-17.5271C85.2188-19.6738 89.8289-18.4464 91.9654-14.7104C94.1121-11.0281 92.8846-6.4368 89.1589-4.2901ZM96.3764-10.7502L155.47-44.8501L151.827-51.2093L92.6986-17.0745ZM167.736-41.6951C174.807-45.7896 177.114-54.4992 173.073-61.5702C168.978-68.6081 160.269-70.9583 153.198-66.8741C146.16-62.7693 143.799-54.07 147.894-47.0321C151.945-39.9611 160.655-37.6007 167.736-41.6951ZM164.316-47.687C160.58-45.5505 155.989-46.778 153.842-50.4603C151.706-54.1774 152.933-58.7876 156.65-60.924C160.333-63.0707 164.934-61.7998 167.081-58.1072C169.217-54.4249 167.99-49.78 164.316-47.687ZM172.216-55.5859L178.221-59.973C184.632-64.6118 185.769-70.338 181.692-77.3565L178.07-83.6667C173.29-91.9932 168.056-93.7187 159.314-90.6458L141.69-84.3797C136.372-82.4997 131.921-80.5068 126.561-76.9472L83.0746-48.291L85.1413-40.8725L129.867-70.3772C134.411-73.3731 138.461-75.311 144.821-77.5253L161.95-83.4908C166.636-85.1296 169.306-84.2273 171.744-79.9889L175.366-73.7119C177.251-70.4454 176.758-67.8222 173.872-65.702L168.571-61.9119Z"/>
</svg>