<svg xmlns="http://www.w3.org/2000/svg" viewBox="12.4609 -77.7393 100.57 84.25">
  <path d="M19.5145-65.8353L34.7171-65.8353C36.7031-65.8353 38.0417-65.3392 39.3043-64.1199L56.6292-46.7934L64.5682-50.8838L45.6113-69.891C42.607-72.885 39.0684-74.1239 34.1164-74.1239L19.5145-74.1239C16.8766-74.1239 15.2185-72.4573 15.2185-70.0239C15.2185-67.5556 16.8663-65.8353 19.5145-65.8353ZM53.308 6.5148C61.7245 6.5148 68.3737-0.124081 68.3737-8.55092C68.3737-16.9343 61.7245-23.5298 53.308-23.5298C44.8897-23.5298 38.284-16.9343 38.284-8.55092C38.284-0.124081 44.8897 6.5148 53.308 6.5148ZM86.9906-53.7492C93.2874-58.3057 99.6524-62.6805 107.622-67.0049C113.03-70.0284 108.569-77.7393 102.703-74.6088C90.8172-68.1974 79.7358-60.871 70.3205-52.9437L36.9829-46.7403C20.7352-43.6876 12.4609-36.0514 12.4609-22.8016L12.4609-15.8487C12.4609-8.05103 15.9454-4.17581 23.7946-3.25341L33.0294-2.17681C32.5619-3.83678 32.2789-6.58238 32.2789-8.55092C32.2789-20.1895 41.626-29.5263 53.308-29.5263C65.0317-29.5263 74.3702-20.1895 74.3702-8.55092C74.3702-7.0015 74.2148-5.27272 73.9227-4.11875L111.132-4.11875L111.132-55.2385Z"/>
</svg>