<svg xmlns="http://www.w3.org/2000/svg" viewBox="12.4609 -96.1189 119.96 121.72">
  <path d="M16.7351-87.2769L128.158-87.2769C130.535-87.2769 132.422-89.3291 132.422-91.7144C132.422-94.058 130.535-96.1189 128.158-96.1189L16.7351-96.1189C14.3481-96.1189 12.4609-94.058 12.4609-91.7144C12.4609-89.3291 14.3481-87.2769 16.7351-87.2769ZM52.8755-42.2453L91.9971-42.2453C99.5637-42.2453 103.856-46.4856 103.856-53.9099L103.856-67.7066C103.856-75.1206 99.5637-79.3608 91.9971-79.3608L52.8755-79.3608C45.3295-79.3608 41.0167-75.1206 41.0167-67.7066L41.0167-53.9099C41.0167-46.4856 45.3295-42.2453 52.8755-42.2453ZM53.6784-51.261C51.3655-51.261 50.0324-52.5839 50.0324-55.0042L50.0324-66.602C50.0324-69.0223 51.3655-70.3452 53.6784-70.3452L91.184-70.3452C93.5277-70.3452 94.8403-69.0223 94.8403-66.602L94.8403-55.0042C94.8403-52.5839 93.5277-51.261 91.184-51.261ZM16.7351-19.434L128.158-19.434C130.535-19.434 132.422-21.4948 132.422-23.8281C132.422-26.2237 130.535-28.276 128.158-28.276L16.7351-28.276C14.3481-28.276 12.4609-26.2237 12.4609-23.8281C12.4609-21.4948 14.3481-19.434 16.7351-19.434ZM35.8851 25.5976L108.998 25.5976C116.554 25.5976 120.857 21.3487 120.857 13.933L120.857 0.136313C120.857-7.27771 116.554-11.5179 108.998-11.5179L35.8851-11.5179C28.2854-11.5179 24.0263-7.27771 24.0263 0.136313L24.0263 13.933C24.0263 21.3487 28.2854 25.5976 35.8851 25.5976ZM36.688 16.5819C34.3649 16.5819 33.042 15.259 33.042 12.8387L33.042 1.2409C33.042-1.17938 34.3649-2.50227 36.688-2.50227L108.185-2.50227C110.518-2.50227 111.841-1.17938 111.841 1.2409L111.841 12.8387C111.841 15.259 110.518 16.5819 108.185 16.5819Z" />
</svg>