<svg xmlns="http://www.w3.org/2000/svg" viewBox="8.72266 -94.9049 119.36 119.41">
  <path d="M68.4292-26.717C73.0982-26.717 76.902-30.5207 76.902-35.1983C76.902-39.876 73.0982-43.6797 68.4292-43.6797C63.7081-43.6797 59.9044-39.876 59.9044-35.1983C59.9044-30.5207 63.7081-26.717 68.4292-26.717ZM68.4481 11.5483C94.2512 11.5483 115.219-9.46322 115.219-35.2749C115.219-61.0866 94.2512-82.0895 68.4481-82.0895C42.5929-82.0895 21.6248-61.0866 21.6248-35.2749C21.6248-9.46322 42.5929 11.5483 68.4481 11.5483ZM68.4481 2.19086C47.7498 2.19086 30.9823-14.5767 30.9823-35.2749C30.9823-55.9297 47.7498-72.7407 68.4481-72.7407C89.1029-72.7407 105.862-55.9297 105.862-35.2749C105.862-14.5767 89.1029 2.19086 68.4481 2.19086ZM68.4395-54.2319C70.6176-54.2319 72.334-55.9758 72.334-58.1367L72.334-90.9567C72.334-93.161 70.6176-94.9049 68.4395-94.9049C66.2265-94.9049 64.5187-93.161 64.5187-90.9567L64.5187-58.1367C64.5187-55.9758 66.2265-54.2319 68.4395-54.2319ZM12.6709-31.269L45.4474-31.269C47.6517-31.269 49.3956-32.9854 49.3956-35.1897C49.3956-37.4113 47.6517-39.1277 45.4474-39.1277L12.6709-39.1277C10.4665-39.1277 8.72266-37.4113 8.72266-35.1897C8.72266-32.9854 10.4665-31.269 12.6709-31.269ZM68.4395 24.5082C70.6176 24.5082 72.334 22.7643 72.334 20.56L72.334-12.26C72.334-14.4209 70.6176-16.1648 68.4395-16.1648C66.2265-16.1648 64.5187-14.4209 64.5187-12.26L64.5187 20.56C64.5187 22.7643 66.2265 24.5082 68.4395 24.5082ZM91.3676-31.269L124.135-31.269C126.348-31.269 128.084-32.9854 128.084-35.1897C128.084-37.4113 126.348-39.1277 124.135-39.1277L91.3676-39.1277C89.1546-39.1277 87.4193-37.4113 87.4193-35.1897C87.4193-32.9854 89.1546-31.269 91.3676-31.269Z" />
</svg>