<svg xmlns="http://www.w3.org/2000/svg" viewBox="12.4609 -78.0059 146.52 93.19">
  <path d="M72.1953-30.4184C73.7342-30.4184 75.1977-31.0278 76.72-32.4067L91.5647-45.5182L91.5647-46.7053C91.5647-53.023 96.964-57.8739 103.159-57.5276L103.17-58.4772C103.344-64.423 108.266-69.2008 114.269-69.2008C115.313-69.2008 116.426-69.0349 117.355-68.6665C119.746-71.2487 122.5-73.7772 125.615-75.661C122.964-77.2736 119.967-78.0059 115.964-78.0059L28.47-78.0059C24.4665-78.0059 21.4616-77.2736 18.7674-75.6524L67.7139-32.4067C69.2363-31.0278 70.6997-30.4184 72.1953-30.4184ZM13.6921-1.00232L49.9161-37.1902L13.6292-69.2485C13.0355-68.0165 12.4609-65.5099 12.4609-62.1706L12.4609-8.24328C12.4609-5.19013 12.9298-2.87207 13.6921-1.00232ZM91.5647-11.1852L91.5647-28.4173L88.2592-31.7228L81.6082-25.7939C78.5757-23.118 75.5009-21.8423 72.1953-21.8423C68.933-21.8423 65.8583-23.118 62.8257-25.7939L56.1313-31.7228L18.8379 5.53579C20.8132 6.78714 23.6601 7.59207 27.2541 7.59207L97.3722 7.59207C93.8154 2.78876 91.5647-3.49621 91.5647-11.1852ZM124.497 15.187C135.826 15.187 143.048 10.5951 148.068 1.40477C151.515-4.32995 154.009-11.9941 156.117-18.8738C157.191-22.3802 158.746-26.7457 158.86-28.6895C158.983-30.86 157.499-32.4401 155.322-32.5634C152.784-32.7176 151.201-31.2107 149.604-27.8676L144.466-16.8408C143.973-15.7384 143.457-15.3536 142.867-15.3536C142.218-15.3536 141.706-15.7134 141.706-16.9473L141.706-55.8846C141.706-58.2581 139.854-60.1549 137.456-60.1549C135.154-60.1549 133.24-58.2478 133.24-55.8846L133.24-27.6055C132.321-27.9411 131.289-28.2493 130.203-28.4534L130.203-61.0945C130.203-63.4925 128.308-65.3545 125.945-65.3545C123.634-65.3545 121.728-63.4925 121.728-61.0945L121.728-28.8359C120.662-28.7736 119.525-28.6506 118.519-28.4671L118.519-58.025C118.519-60.4041 116.614-62.2764 114.269-62.2764C111.915-62.2764 110.053-60.4041 110.053-58.025L110.053-25.9117C108.889-25.3852 107.909-24.7791 106.912-24.173L106.912-46.5316C106.912-48.8947 105.095-50.767 102.697-50.767C100.386-50.767 98.4805-48.8947 98.4805-46.5316L98.4805-11.1852C98.4805 5.32067 109.542 15.187 124.497 15.187Z"/>
</svg>