<svg xmlns="http://www.w3.org/2000/svg" viewBox="8.72266 -85.6724 100.87 100.82">
  <path d="M59.1344 15.1511C86.9709 15.1511 109.59-7.46756 109.59-35.2606C109.59-63.0537 86.9709-85.6724 59.1344-85.6724C31.3413-85.6724 8.72266-63.0537 8.72266-35.2606C8.72266-7.46756 31.3413 15.1511 59.1344 15.1511ZM37.5706-15.5452C35.4478-15.5452 34.3948-16.8131 34.3948-18.9444L34.3948-51.5532C34.3948-53.6239 35.5519-54.8655 37.5706-54.8655L52.7133-54.8655C54.5006-54.8655 55.5851-53.9729 55.5851-52.1856C55.5851-50.4537 54.5006-49.4537 52.7133-49.4537L40.8853-49.4537L40.8853-38.1304L52.2335-38.1304C53.7735-38.1304 54.8391-37.147 54.8391-35.5556C54.8391-33.9848 53.794-32.9825 52.2335-32.9825L40.8853-32.9825L40.8853-21.0439L52.7133-21.0439C54.4903-21.0439 55.5851-19.9902 55.5851-18.2685C55.5851-16.5247 54.5006-15.5452 52.7133-15.5452ZM64.381-15.5452C62.6497-15.5452 61.1548-16.5817 61.1548-18.6354C61.1548-19.5612 61.4697-20.4846 61.944-21.3172L77.7907-49.2045L77.7907-49.4537L64.1257-49.4537C62.3835-49.4537 61.1915-50.4868 61.1915-52.1856C61.1915-53.9192 62.3835-54.8655 64.1257-54.8655L81.7922-54.8655C83.9542-54.8655 85.095-53.5303 85.095-51.7776C85.095-50.648 84.6989-49.8141 84.2-49.0643L68.5402-21.2931L68.5402-21.0439L83.0345-21.0439C84.6607-21.0439 85.5984-19.9033 85.5984-18.2685C85.5984-16.6423 84.6607-15.5452 83.0345-15.5452Z"/>
</svg>