<svg xmlns="http://www.w3.org/2000/svg" viewBox="-1.46892 -85.6724 111.06 100.82">
  <path d="M3.09462-45.0871C-0.556802-45.0871-1.46892-42.3541 0.534053-39.5991L11.8669-23.8316C13.4311-21.6577 15.8826-21.6577 17.4135-23.8316L28.7361-39.6339C30.6854-42.3541 29.7836-45.0871 26.1858-45.0871ZM109.59-35.2606C109.59-63.1144 86.9778-85.6724 59.1344-85.6724C31.3241-85.6724 8.76608-63.1578 8.72266-35.1881C8.76608-32.4822 10.988-30.2774 13.6767-30.2774C16.4002-30.2774 18.6656-32.5256 18.6656-35.2315C18.6656-57.6501 36.7449-75.7643 59.1344-75.7643C81.5239-75.7643 99.6381-57.6501 99.6381-35.2606C99.6381-12.8711 81.5239 5.24301 59.1344 5.24301C46.015 5.24301 34.5656-1.00119 27.2237-10.6214C25.247-12.9119 22.3909-13.621 20.0301-11.9197C17.8121-10.3355 17.2881-7.0492 19.467-4.51071C28.7308 7.57375 43.1027 15.1511 59.1344 15.1511C86.9778 15.1511 109.59-7.40694 109.59-35.2606ZM59.1447-27.1072C61.8021-27.1072 63.3312-28.6226 63.4157-31.4219L64.1151-55.145C64.2099-57.9957 62.0799-60.0253 59.091-60.0253C56.0935-60.0253 54.0068-58.0391 54.1016-55.1885L54.8096-31.4013C54.8942-28.6226 56.4249-27.1072 59.1447-27.1072ZM59.1447-10.9271C62.2653-10.9271 64.8563-13.228 64.8563-16.28C64.8563-19.3824 62.3087-21.633 59.1447-21.633C56.0154-21.633 53.4473-19.3493 53.4473-16.28C53.4473-13.2714 56.0154-10.9271 59.1447-10.9271Z" />
</svg>