<svg xmlns="http://www.w3.org/2000/svg" viewBox="9.96875 -77.4318 134.13 84.5">
  <path d="M77.0323 7.06599C117.058 7.06599 144.097-25.2241 144.097-35.1881C144.097-45.1851 117.015-77.4318 77.0323-77.4318C37.5987-77.4318 9.96875-45.1851 9.96875-35.1881C9.96875-25.2241 37.5557 7.06599 77.0323 7.06599ZM77.0323-2.31784C45.8384-2.31784 21.0267-28.3815 21.0267-35.1881C21.0267-40.896 45.8384-68.0652 77.0323-68.0652C108.174-68.0652 132.996-40.896 132.996-35.1881C132.996-28.3815 108.174-2.31784 77.0323-2.31784ZM77.0425-8.92634C91.619-8.92634 103.4-20.7687 103.4-35.2938C103.4-37.3333 103.169-39.267 102.733-41.1819L83.4336-40.8809C84.7512-39.3896 85.5373-37.4032 85.5373-35.2401C85.5373-30.5563 81.7612-26.7162 77.022-26.7162C72.3382-26.7162 68.5289-30.5563 68.5289-35.2401C68.5289-37.3616 69.362-39.2893 70.6364-40.779L51.2759-40.8016C50.8603-39.0061 50.6751-37.2036 50.6751-35.2938C50.6751-20.7687 62.4764-8.92634 77.0425-8.92634ZM16.7206-32.6038C36.7723-35.277 57.6554-36.9406 76.9905-36.9406C96.3479-36.9406 117.295-35.277 137.324-32.5935L137.324-42.2581C117.437-44.9793 99.3362-47.5506 76.9905-47.5506C54.7105-47.5506 36.6301-44.9896 16.7206-42.2684Z"/>
</svg>