<svg xmlns="http://www.w3.org/2000/svg" viewBox="5.01755 -95.3351 147.47 120.03">
  <path d="M78.7544-7.10743C86.5795-7.10743 92.0591-9.53418 92.0591-12.4051C92.0591-15.3108 86.5881-17.7289 78.7544-17.7289C70.9294-17.7289 65.4583-15.3108 65.4583-12.4051C65.4583-9.53418 70.938-7.10743 78.7544-7.10743ZM78.7544-67.135C91.1121-67.135 103.173-75.543 103.173-86.11C103.173-89.6402 101.324-91.8282 97.0023-93.1404C91.757-94.664 85.3543-95.3265 78.7544-95.3351C72.198-95.3265 65.7518-94.664 60.5065-93.1404C56.2373-91.8282 54.3444-89.6488 54.3444-86.11C54.3444-75.543 66.4402-67.135 78.7544-67.135ZM78.7544-74.1437C69.8813-74.1437 62.8081-78.8529 61.4599-85.572C61.3959-85.8757 61.5497-86.1623 62.0693-86.3557C67.3031-87.6702 72.9812-88.3801 78.7544-88.3801C84.5276-88.3801 90.216-87.6702 95.4395-86.3557C95.9678-86.1537 96.165-85.8757 96.101-85.572C94.7196-78.8632 87.6812-74.1437 78.7544-74.1437ZM74.4879-71.592L74.4879-38.2634L83.0209-38.2634L83.0209-71.592ZM78.7544-35.2132C83.5194-35.2132 88.3068-33.7519 91.4081-31.7567L97.978-36.0764C93.5418-40.0983 86.3906-42.7155 78.7544-42.7155C71.2256-42.7155 64.1733-40.152 59.7457-36.2273L66.584-31.9818C69.6854-33.913 74.194-35.2132 78.7544-35.2132ZM78.7544 3.52686C93.1099 3.52686 102.685-2.87541 102.685-12.4051C102.685-21.9695 93.1099-28.3632 78.7544-28.3632C64.399-28.3632 54.8674-21.9695 54.8674-12.4051C54.8674-2.87541 64.399 3.52686 78.7544 3.52686ZM78.7544-3.97543C68.8832-3.97543 62.3697-7.40766 62.3697-12.4051C62.3697-17.4373 68.8832-20.8175 78.7544-20.8175C88.6256-20.8175 95.1391-17.4373 95.1391-12.4051C95.1391-7.40766 88.6256-3.97543 78.7544-3.97543ZM79.5355-27.9624L31.3159-52.6184C14.9498-60.9963 5.01755-39.4658 19.3866-32.5161L59.1328-13.1824L60.7487-20.495L22.5492-39.0242C16.2651-42.0994 20.0853-50.2171 27.7814-46.2634L69.9346-24.7218ZM57.4749-9.03771L57.4749-17.0994L28.9407-3.71554C13.1056 3.74672 24.356 24.6971 38.8136 17.3303L70.1221 1.34392L63.1174-3.27348L35.4869 10.8759C29.2283 14.0413 25.1272 6.0528 31.9863 2.86851ZM77.9733-27.9624L87.6176-24.7218L129.719-46.2634C137.424-50.2171 141.287-42.0994 135.003-39.0242L96.8035-20.495L98.376-13.1824L138.122-32.5161C152.491-39.4658 142.559-60.9963 126.236-52.6184ZM100.034-9.03771L125.523 2.86851C132.382 6.0528 128.281 14.0413 122.022 10.8759L94.3914-3.27348L87.3868 1.34392L118.695 17.3303C133.153 24.6971 144.403 3.74672 128.612-3.71554L100.034-17.0994Z"/>
</svg>