<svg xmlns="http://www.w3.org/2000/svg" viewBox="8.72266 -85.6724 100.87 100.82">
  <path d="M59.1344 15.1511C86.9881 15.1511 109.59-7.40694 109.59-35.2606C109.59-63.1144 86.9881-85.6724 59.1344-85.6724C31.3241-85.6724 8.72266-63.1144 8.72266-35.2606C8.72266-7.40694 31.3241 15.1511 59.1344 15.1511ZM59.1344 5.24301C36.7449 5.24301 18.6656-12.8711 18.6656-35.2606C18.6656-57.6501 36.7449-75.7643 59.1344-75.7643C81.5239-75.7643 99.6381-57.6501 99.6381-35.2606C99.6381-12.8711 81.5239 5.24301 59.1344 5.24301ZM59.1344-24.0991C59.7803-24.0991 60.4697-24.1614 61.0201-24.2323L61.0201-15.7693C61.0201-11.2108 63.403-8.71189 67.8472-8.71189C75.8654-8.71189 83.8333-15.8235 83.8333-22.7919C83.8333-28.6391 79.0472-31.7512 70.3205-34.8386C70.3394-34.9867 70.3394-35.1142 70.3394-35.2606C70.3394-35.9066 70.2874-36.5856 70.2165-37.1361L78.6589-37.1361C83.2277-37.1361 85.6729-39.519 85.6729-43.9632C85.6729-51.938 78.5613-59.9493 71.6363-59.9493C65.7456-59.9493 62.6336-55.1631 59.5462-46.4033C59.4084-46.4222 59.3242-46.4222 59.1344-46.4222C58.4885-46.4222 57.822-46.3599 57.2818-46.289L57.2818-54.7314C57.2818-59.3002 54.8989-61.7888 50.4547-61.7888C42.4468-61.7888 34.4686-54.6773 34.4686-47.7088C34.4686-41.8616 39.2548-38.7495 47.9711-35.6621C47.9625-35.5346 47.9625-35.3968 47.9625-35.2606C47.9625-34.6147 48.0248-33.9048 48.0958-33.3646L39.6431-33.3646C35.0948-33.3646 32.5959-30.9715 32.5959-26.5273C32.5959-18.5628 39.7075-10.5514 46.676-10.5514C52.5666-10.5514 55.6249-15.3376 58.766-24.1179C58.9039-24.0991 58.988-24.0991 59.1344-24.0991ZM59.1344-29.6977C56.0857-29.6977 53.5714-32.1685 53.5714-35.2606C53.5714-38.3528 56.0857-40.8236 59.1344-40.8236C62.2266-40.8236 64.7322-38.3528 64.7322-35.2606C64.7322-32.1685 62.2266-29.6977 59.1344-29.6977Z" />
</svg>