<svg xmlns="http://www.w3.org/2000/svg" viewBox="11.878 -80.796 107.23 91.17">
  <path d="M65.7571-58.82C71.7877-58.82 76.7106-63.7429 76.7106-69.834C76.7106-75.8731 71.7877-80.796 65.7571-80.796C59.666-80.796 54.7431-75.8731 54.7431-69.834C54.7431-63.7429 59.666-58.82 65.7571-58.82ZM19.8301-12.8797L44.6015-10.81C48.7394-10.4568 50.2221-10.0716 54.1811-8.96669L84.3785-0.481098L111.512 9.48428C113.938 10.3702 117.309 9.48428 118.277 6.3202C119.11 3.62475 117.892 0.605833 115.176-0.371524L88.0513-10.2312C87.6672-10.3558 86.7601-10.7107 86.4383-10.8456L65.5465-18.3853C68.3175-23.7798 72.0876-32.3284 73.0673-41.6057C73.1816-42.6277 73.7453-43.0874 74.6531-43.0874L110.878-43.0874C113.738-43.0874 116.059-45.4627 116.059-48.2496C116.059-51.2062 113.738-53.5364 110.878-53.5364L71.1328-53.5364C64.5094-53.5364 63.9258-53.5696 56.6896-55.5581L19.1006-65.9699C16.3223-66.75 13.4817-65.0737 12.6495-62.316C11.878-59.5274 13.544-56.6245 16.3223-55.8546L51.3809-46.1818C52.1846-45.9515 52.6529-45.3792 52.5906-44.428C51.4777-35.7337 47.2279-27.2451 44.9365-23.3619L25.5027-23.3619L25.5027-43.2929C25.5027-46.1786 23.0462-48.4552 20.2261-48.4552C17.3752-48.4552 14.9913-46.1786 14.9913-43.2929L14.9913-18.1477C14.9913-15.0956 16.4184-13.1929 19.8301-12.8797Z"/>
</svg>