<svg xmlns="http://www.w3.org/2000/svg" viewBox="8.72266 -85.6724 100.87 100.82">
  <path d="M59.1344 15.1511C86.9881 15.1511 109.59-7.40694 109.59-35.2606C109.59-63.1144 86.9881-85.6724 59.1344-85.6724C31.3241-85.6724 8.72266-63.1144 8.72266-35.2606C8.72266-7.40694 31.3241 15.1511 59.1344 15.1511ZM59.1344 5.24301C36.7449 5.24301 18.6656-12.8711 18.6656-35.2606C18.6656-57.6501 36.7449-75.7643 59.1344-75.7643C81.5239-75.7643 99.6381-57.6501 99.6381-35.2606C99.6381-12.8711 81.5239 5.24301 59.1344 5.24301ZM59.091-56.0422C62.2897-56.0422 64.8859-58.6384 64.8859-61.8892C64.8859-65.0896 62.2897-67.6755 59.091-67.6755C55.8385-67.6755 53.2526-65.0896 53.2526-61.8892C53.2526-58.6384 55.8385-56.0422 59.091-56.0422ZM53.2234-36.5029L64.9585-36.5029L64.9585-42.3951C64.9585-42.8004 65.5617-43.0085 65.8424-42.466L73.1037-27.7563C73.7371-26.4377 75.4107-25.8232 76.7482-26.5623C78.0583-27.1956 78.6277-28.8361 77.9423-30.2068L68.3259-49.7481C67.1627-52.0934 64.9592-53.4539 62.24-53.4539L55.9333-53.4539C53.2228-53.4539 51.009-52.0934 49.8457-49.7481L40.1859-30.2068C39.5006-28.8361 40.1236-27.1956 41.3903-26.5623C42.761-25.8232 44.3929-26.4377 45.0348-27.7563L52.3396-42.466C52.6203-43.0085 53.2234-42.8524 53.2234-42.4037ZM48.4012-3.85474C49.7112-3.56209 51.1631-4.24744 51.5992-6.10798L54.0732-17.3797L59.091-26.3916L64.0899-17.3797L66.529-6.10798C66.9565-4.17654 68.5416-3.54321 69.9037-3.86334C71.1704-4.22689 72.1981-5.42095 71.814-7.30205L69.3211-18.9476C69.2691-19.1431 69.2502-19.3403 69.1879-19.5707L66.158-28.203L52.0673-28.203L48.9854-19.5707C48.8797-19.3403 48.8608-19.1431 48.8071-18.9476L46.3143-7.30205C45.8781-5.35005 47.0636-4.10395 48.4012-3.85474ZM33.1226-23.3635L34.6397-23.3635C35.7438-23.3635 36.5068-24.1802 36.5068-25.2929L36.5068-39.4216C36.5068-40.5343 35.7438-41.2801 34.6397-41.2801L33.1226-41.2801C31.9751-41.2801 31.2121-40.5343 31.2121-39.4216L31.2121-25.2929C31.2121-24.1802 31.9751-23.3635 33.1226-23.3635ZM83.5233-23.3635L85.0405-23.3635C86.188-23.3635 86.9075-24.1802 86.9075-25.2929L86.9075-39.4216C86.9075-40.5343 86.188-41.2801 85.0405-41.2801L83.5233-41.2801C82.4193-41.2801 81.6129-40.5343 81.6129-39.4216L81.6129-25.2929C81.6129-24.1802 82.4193-23.3635 83.5233-23.3635ZM29.1542-30.6092L88.9655-30.6092C89.9695-30.6092 90.757-31.3967 90.757-32.3487C90.757-33.3699 89.9695-34.0967 88.9655-34.0967L29.1542-34.0967C28.2039-34.0967 27.4163-33.3699 27.4163-32.3487C27.4163-31.3967 28.2039-30.6092 29.1542-30.6092Z" />
</svg>