<svg xmlns="http://www.w3.org/2000/svg" viewBox="8.72266 -85.6724 100.87 100.82">
  <path d="M59.1344 15.1511C86.9881 15.1511 109.59-7.40694 109.59-35.2606C109.59-63.1144 86.9881-85.6724 59.1344-85.6724C31.3241-85.6724 8.72266-63.1144 8.72266-35.2606C8.72266-7.40694 31.3241 15.1511 59.1344 15.1511ZM59.1344 5.24301C36.7449 5.24301 18.6656-12.8711 18.6656-35.2606C18.6656-57.6501 36.7449-75.7643 59.1344-75.7643C81.5239-75.7643 99.6381-57.6501 99.6381-35.2606C99.6381-12.8711 81.5239 5.24301 59.1344 5.24301ZM59.0996-52.3628C62.3417-52.3628 64.938-55.0025 64.938-58.2115C64.938-61.4102 62.3417-64.0499 59.0996-64.0499C55.9008-64.0499 53.3046-61.4102 53.3046-58.2115C53.3046-55.0025 55.9008-52.3628 59.0996-52.3628ZM81.0794-47.4592C79.9476-48.591 78.2551-48.5807 77.1233-47.4592L70.8075-41.2056L64.4379-47.5838C63.1586-48.8717 61.1248-49.6713 59.0996-49.6713L41.8556-49.6713C40.6095-49.6713 39.6457-48.9237 39.2182-47.7296L35.0945-35.3467C34.4526-33.3963 35.5496-32.0153 36.9219-31.6935C38.2303-31.33 39.7359-31.8907 40.3069-33.6455L43.8596-44.0851L49.4096-44.0851C49.9064-44.0851 50.2825-43.6798 50.1059-43.1396L46.6344-32.7206C45.4712-29.2829 46.5098-25.9579 50.3836-24.2442L61.5725-19.3414L65.1801-6.71973C65.6785-4.97352 67.2567-4.47508 68.5651-4.84031C69.9272-5.16043 71.0692-6.4168 70.5605-8.2442L66.5357-22.1657C66.295-22.967 65.9023-23.5364 65.0198-23.9205L56.3562-27.7658L60.9253-41.5717C61.1019-42.1639 61.7896-42.3823 62.2052-41.9147L68.8034-35.2542C69.8815-34.1761 71.6797-34.1658 72.7681-35.2542L81.0794-43.5134C82.2111-44.6452 82.1574-46.3377 81.0794-47.4592ZM47.4725-22.9299L46.2085-15.58L36.6792-10.2709C34.8982-9.2826 34.9433-7.5901 35.6909-6.38743C36.4197-5.25567 37.7659-4.47319 39.4412-5.39916L50.156-11.3645C50.9225-11.8006 51.2254-12.3299 51.4832-13.1382L53.7516-19.9672L49.4108-21.8987C48.6133-22.2446 48.0078-22.5733 47.4725-22.9299ZM83.1585-51.5846C84.0792-52.0761 84.6314-52.959 84.6314-54.0117L84.6314-62.1745C84.6314-63.6891 83.4889-64.8956 82.0058-64.8956L76.1781-64.8956C74.6618-64.8956 73.4656-63.6994 73.4656-62.1745L73.4656-54.0117C73.4656-52.959 74.0698-52.0658 74.9819-51.5846L79.0839-49.5249ZM77.3359-45.4128L80.8234-45.4128L80.8234-52.6601L77.3359-52.6601Z" />
</svg>