<svg xmlns="http://www.w3.org/2000/svg" viewBox="-4.53817 -85.1074 86.55 102.22">
  <path d="M21.0025-39.7218C25.5382-39.7218 29.0958-43.3229 29.0958-47.8065C29.0958-52.3507 25.5382-55.9952 21.0025-55.9952C16.5275-55.9952 12.8658-52.3507 12.8658-47.8065C12.8658-43.3229 16.5275-39.7218 21.0025-39.7218ZM20.9591-10.7789C22.0577-10.7789 22.9123-10.137 23.2325-8.90849L28.7719 12.3493C29.9763 17.1101 36.5373 15.4348 35.8503 10.9384C35.5491 9.18732 30.8076-8.80843 30.112-12.8473C29.6222-15.8258 29.8542-23.4219 29.8542-26.6857C29.8542-27.6773 30.7109-28.2745 31.7042-27.8539L41.0795-24.0263C43.6155-23.038 45.3966-24.2291 45.8996-25.9101C46.4563-27.5665 45.7448-29.5785 43.352-30.5525L33.2302-34.7246C30.9127-35.6661 28.8609-36.1818 26.5335-36.483C24.8704-35.6835 22.9822-35.183 20.9591-35.183C18.9446-35.183 17.0564-35.6835 15.3932-36.483C13.0659-36.1818 10.9706-35.6661 8.68802-34.7246L-1.43385-30.5525C-3.81799-29.5785-4.53817-27.5665-3.98142-25.9101C-3.47837-24.2291-1.69734-23.038 0.847296-24.0263L10.2226-27.8539C11.2159-28.2745 12.0726-27.6773 12.0726-26.6857C12.0726-23.4219 12.296-15.8258 11.8062-12.8473C11.1106-8.80843 6.36912 9.18732 6.06787 10.9384C5.38085 15.4348 11.9505 17.1101 13.1983 12.3493L18.6943-8.90849C19.0144-10.137 19.8605-10.7789 20.9591-10.7789ZM42.7445 12.0767L70.7284 12.0767C78.1409 12.0767 82.0134 8.12471 82.0134 0.109881L82.0134-34.4334C82.0134-41.4878 78.9402-45.3964 73.0983-46.2043L73.0983-57.8436C73.0983-75.8512 61.1815-85.1074 47.8385-85.1074C35.7519-85.1074 24.8666-77.4843 22.9599-62.5836C26.1567-62.2777 29.459-60.7372 31.8015-58.0299C31.9331-70.4058 39.3342-76.3921 47.8385-76.3921C56.557-76.3921 63.9898-70.1473 63.9898-58.6863L63.9898-46.3448L35.8612-46.3448C35.7118-44.6668 35.2927-43.1665 34.6313-41.6184L45.9728-36.9403C51.7268-34.5576 54.1643-28.9186 52.5028-23.7796C50.7854-18.3339 44.8333-15.1839 38.5382-17.6282L36.7335-18.3431C36.7335-16.5556 36.7077-15.1098 36.929-13.9743L42.3736 8.45953C42.6799 9.73498 42.8187 10.9899 42.7445 12.0767Z"/>
</svg>