<svg xmlns="http://www.w3.org/2000/svg" viewBox="8.72266 -85.6724 100.87 100.82">
  <path d="M59.1344 15.1511C86.9881 15.1511 109.59-7.40694 109.59-35.2606C109.59-63.1144 86.9881-85.6724 59.1344-85.6724C31.3241-85.6724 8.72266-63.1144 8.72266-35.2606C8.72266-7.40694 31.3241 15.1511 59.1344 15.1511ZM59.1344 5.24301C36.7449 5.24301 18.6656-12.8711 18.6656-35.2606C18.6656-57.6501 36.7449-75.7643 59.1344-75.7643C81.5239-75.7643 99.6381-57.6501 99.6381-35.2606C99.6381-12.8711 81.5239 5.24301 59.1344 5.24301ZM50.7731-49.6955C53.9908-49.6955 56.5767-52.2917 56.5767-55.5425C56.5767-58.7412 53.9908-61.3375 50.7731-61.3375C47.531-61.3375 44.9347-58.7412 44.9347-55.5425C44.9347-52.2917 47.531-49.6955 50.7731-49.6955ZM36.7915-29.7069C35.618-25.3158 38.4097-22.5326 41.8593-22.5326C42.9603-22.5326 44.0715-22.7905 45.1827-23.3946L59.4132-30.9566L75.1516-23.0934C77.1454-22.0965 78.767-22.863 79.3466-24.1628C79.9696-25.3655 79.5958-27.1117 77.7181-28.0566L61.2011-36.3679C60.0797-36.9183 58.8524-36.9704 57.7224-36.4388L47.2175-31.8989L49.2954-39.2255C49.6921-40.5346 50.8229-41.4161 52.1839-41.4161L73.797-41.4161C75.346-41.4161 76.6024-42.6638 76.6024-44.2317C76.6024-45.7476 75.346-47.004 73.797-47.004L50.2227-47.004C44.9136-47.004 40.5721-43.9401 39.3552-39.4015ZM36.022-13.798L82.2206-13.798C83.1881-13.798 83.9687-14.5786 83.9687-15.5895C83.9687-16.5673 83.1881-17.3376 82.2206-17.3376L36.022-17.3376C35.0545-17.3376 34.2739-16.5673 34.2739-15.5895C34.2739-14.5786 35.0545-13.798 36.022-13.798Z" />
</svg>