<svg xmlns="http://www.w3.org/2000/svg" viewBox="11.677 -96.5927 80.52 122.69">
  <path d="M42.6221-76.2602C48.336-76.2602 52.7571-80.7436 52.7571-86.4576C52.7571-92.1282 48.336-96.5927 42.6221-96.5927C36.9081-96.5927 32.4247-92.1282 32.4247-86.4576C32.4247-80.7436 36.9081-76.2602 42.6221-76.2602ZM42.6221-82.2572C40.2788-82.2572 38.4216-84.123 38.4216-86.4576C38.4216-88.7472 40.2788-90.5524 42.6221-90.5524C44.9116-90.5524 46.7168-88.7472 46.7168-86.4576C46.7168-84.123 44.9116-82.2572 42.6221-82.2572ZM20.1403-60.0408C24.1198-68.943 30.73-74.1631 44.8197-74.1631L64.1658-74.1631L64.1658-82.159L44.8197-82.159C27.3755-82.159 17.7306-74.4098 12.8209-63.3188C11.677-60.8058 13.4249-57.6992 16.4589-57.6992C18.1153-57.6992 19.4929-58.6632 20.1403-60.0408ZM57.1746-81.6216L57.1746-74.7091C57.1746-72.437 58.8895-70.5769 61.1616-70.3797L87.2673-67.8972C90.0219-67.6377 92.1952-69.6379 92.1952-72.4913L92.1952-83.8308C92.1952-86.6391 90.0219-88.693 87.2673-88.4335L61.1616-85.9424C58.8895-85.7452 57.1746-83.8851 57.1746-81.6216ZM39.6162-75.3219L39.6162-62.5723L48.9016-62.5723L48.9016-75.3219ZM32.9934 26.0972L55.5158 26.0972C62.4809 26.0972 67.3643 21.2138 67.3643 14.2487L67.3643-42.45C67.3643-56.1199 57.7952-65.8012 44.2372-65.8012C30.714-65.8012 21.1535-56.1199 21.1535-42.45L21.1535 14.2487C21.1535 21.2138 26.0369 26.0972 32.9934 26.0972ZM34.2296 16.9476C31.9645 16.9476 30.2945 15.2427 30.2945 13.0211L30.2945-42.45C30.2945-50.7406 36.0498-56.6082 44.2372-56.6082C52.4679-56.6082 58.2147-50.7406 58.2147-42.45L58.2147 13.0211C58.2147 15.2427 56.5098 16.9476 54.2882 16.9476Z"/>
</svg>