<svg xmlns="http://www.w3.org/2000/svg" viewBox="8.72266 -85.6724 100.87 100.82">
  <path d="M59.1344 15.1511C86.9881 15.1511 109.59-7.40694 109.59-35.2606C109.59-63.1144 86.9881-85.6724 59.1344-85.6724C31.3241-85.6724 8.72266-63.1144 8.72266-35.2606C8.72266-7.40694 31.3241 15.1511 59.1344 15.1511ZM59.1344 5.24301C36.7449 5.24301 18.6656-12.8711 18.6656-35.2606C18.6656-57.6501 36.7449-75.7643 59.1344-75.7643C81.5239-75.7643 99.6381-57.6501 99.6381-35.2606C99.6381-12.8711 81.5239 5.24301 59.1344 5.24301ZM51.123-12.764C53.156-12.764 54.5547-14.1644 54.5547-16.2716L54.5547-20.649L64.9363-20.649C65.8027-20.649 66.4766-21.3228 66.4766-22.1806C66.4766-23.0905 65.8027-23.7209 64.9363-23.7209L54.5547-23.7209L54.5547-32.1856L69.8388-32.1856C71.6112-32.1856 72.8426-33.3775 72.8426-35.0551C72.8426-36.6995 71.6112-37.8915 69.8388-37.8915L54.5547-37.8915L54.5547-50.7898L71.4047-50.7898C73.253-50.7898 74.5049-51.9572 74.5049-53.6759C74.5049-55.4191 73.253-56.63 71.4047-56.63L51.1402-56.63C48.9621-56.63 47.6217-55.2918 47.6217-53.0789L47.6217-23.7209L42.9969-23.7209C42.087-23.7209 41.4218-23.0905 41.4218-22.1806C41.4218-21.3228 42.087-20.649 42.9969-20.649L47.6217-20.649L47.6217-16.2716C47.6217-14.1644 49.0553-12.764 51.123-12.764Z" />
</svg>