<svg xmlns="http://www.w3.org/2000/svg" viewBox="-1.70157 -85.6724 121.72 100.82">
  <path d="M115.45-44.0271L92.359-44.0271C88.7613-44.0271 87.8595-41.2941 89.8087-38.5739L101.131-22.7716C102.662-20.5976 105.114-20.5542 106.687-22.7716L118.011-38.5305C120.014-41.2941 119.058-44.0271 115.45-44.0271ZM59.1344-75.7643C81.5239-75.7643 99.6381-57.6501 99.6381-35.2401C99.6381-32.5514 101.903-30.286 104.636-30.286C107.324-30.286 109.546-32.508 109.59-35.1967C109.546-63.1578 86.9881-85.6724 59.1344-85.6724C45.1891-85.6724 32.4967-79.8981 23.554-70.5766C20.9905-68.1408 21.5763-64.8322 23.5098-63.0492C25.2474-61.5363 27.8373-61.1132 30.4498-63.5261C37.6939-71.0706 47.8751-75.7643 59.1344-75.7643ZM2.86198-26.4942L25.9012-26.4942C29.4989-26.4942 30.4442-29.2272 28.4949-31.9474L17.1809-47.7497C15.6413-49.9236 13.1984-49.9671 11.6257-47.7497L0.292806-31.9908C-1.70157-29.2272-0.798049-26.4942 2.86198-26.4942ZM59.1344 5.24301C36.7449 5.24301 18.6656-12.8711 18.6656-35.2812C18.6656-37.9699 16.4088-40.2352 13.6767-40.2352C10.9794-40.2352 8.76608-38.0133 8.72266-35.3246C8.76608-7.36351 31.3155 15.1511 59.1344 15.1511C73.1145 15.1511 85.7635 9.3768 94.7497 0.0552727C97.2783-2.38047 96.736-5.68905 94.7504-7.47211C93.0648-8.98498 90.4664-9.40805 87.8539-6.99518C80.6183 0.54929 70.3851 5.24301 59.1344 5.24301ZM56.9346-10.2688L61.2868-10.2688C62.6495-10.2688 63.6126-11.0781 63.9532-12.3957L65.1433-17.4655C65.9739-17.7811 66.7942-18.0863 67.519-18.4264L71.9445-15.7019C73.0666-15.0017 74.3721-15.0931 75.3129-16.0529L78.3199-19.0615C79.2797-19.9762 79.4129-21.3599 78.6172-22.5254L75.9985-26.9076C76.3385-27.6307 76.6438-28.4075 76.8724-29.1758L81.9857-30.3745C83.3033-30.6717 84.1126-31.6782 84.1126-33.086L84.1126-37.3308C84.1126-38.6501 83.3033-39.6234 81.9857-39.9641L76.9262-41.1525C76.6541-42.051 76.3054-42.8382 75.9985-43.5179L78.7143-47.9537C79.4232-49.0775 79.3665-50.4058 78.4068-51.3655L75.3027-54.3828C74.3515-55.2266 73.1306-55.4672 72.0085-54.7789L67.519-51.9991C66.7942-52.306 66.0173-52.6546 65.1536-52.9702L63.9532-58.0937C63.6126-59.4113 62.6495-60.2206 61.2868-60.2206L56.9346-60.2206C55.5805-60.2206 54.6174-59.4113 54.2768-58.0834L53.0781-53.0136C52.2561-52.7083 51.4358-52.3928 50.7024-52.0093L46.2563-54.7789C45.0908-55.4672 43.8682-55.2889 42.9101-54.3828L39.858-51.3655C38.8549-50.4058 38.8068-49.0775 39.5071-47.9537L42.2315-43.5179C41.916-42.8382 41.5673-42.051 41.2952-41.1525L36.2443-39.9641C34.9267-39.6234 34.1174-38.6501 34.1174-37.3308L34.1174-33.086C34.1174-31.6782 34.9267-30.6717 36.2443-30.3745L41.3489-29.1758C41.5776-28.4075 41.9263-27.6307 42.2749-26.9076L39.6042-22.5254C38.8171-21.3599 38.9765-19.9762 39.9015-19.0615L42.8999-16.0529C43.8579-15.0931 45.1548-15.0017 46.2769-15.7019L50.7024-18.4264C51.4358-18.0863 52.2561-17.7811 53.0781-17.4655L54.2768-12.3957C54.6174-11.0781 55.5805-10.2688 56.9346-10.2688ZM59.1367-27.038C54.5658-27.038 50.8346-30.7258 50.8346-35.2967C50.8346-39.8677 54.5658-43.5554 59.1367-43.5554C63.6642-43.5554 67.3954-39.8677 67.3954-35.2967C67.3954-30.7258 63.6642-27.038 59.1367-27.038Z" />
</svg>