<svg xmlns="http://www.w3.org/2000/svg" viewBox="12.4609 -84.5028 134.81 120.35">
  <path d="M79.8663-17.5824C84.1409-17.5201 88.4252-18.654 93.7547-21.0729L141.977-43.1044C145.458-44.6702 147.272-47.7468 147.272-50.9897C147.272-54.2241 145.458-57.3527 141.977-58.9099L93.7547-80.95C88.4252-83.369 84.1409-84.5028 79.8663-84.4405C75.635-84.5028 71.3159-83.369 65.9864-80.95L17.7559-58.9099C14.2833-57.3527 12.4609-54.2241 12.4609-50.9897C12.4609-47.7468 14.2833-44.6702 17.7559-43.1044L65.9864-21.0729C71.3159-18.654 75.635-17.5201 79.8663-17.5824ZM79.8663-27.0254C76.7502-27.0254 73.7513-27.7976 69.6407-29.7137L26.0433-49.5301C25.2692-49.8817 24.9004-50.382 24.9004-50.9897C24.9004-51.6409 25.2692-52.1412 26.0433-52.4928L69.6407-72.3092C73.7513-74.1819 76.7502-74.9975 79.8663-74.9975C82.9823-74.9975 85.9812-74.1819 90.1004-72.3092L133.689-52.4928C134.463-52.1412 134.875-51.6409 134.875-50.9897C134.875-50.382 134.463-49.8817 133.689-49.5301L90.1004-29.7137C85.9812-27.7976 82.9823-27.0254 79.8663-27.0254ZM31.6417-14.7653C31.6417 0.73109 51.2067 13.1089 79.8663 13.1089C108.578 13.1089 128.091 0.73109 128.091-14.7653L128.091-40.2645L118.826-40.2645L118.826-14.7653C118.826-4.79309 103.369 4.32964 79.8663 4.32964C56.3639 4.32964 40.9146-4.79309 40.9146-14.7653L40.9146-40.2645L31.6417-40.2645ZM80.04-44.8611C85.5814-44.8611 90.9461-47.4343 90.9461-50.9983C90.9461-54.5366 85.5712-57.0458 80.04-57.0458C74.4985-57.0458 69.0801-54.5264 69.0801-50.9983C69.0801-47.4343 74.4882-44.8611 80.04-44.8611ZM51.5617-32.9729L78.9968-47.3462L75.8132-53.0154L44.4012-36.7703ZM44.4012 14.7276L51.5617 14.7379L51.5617-32.9729L44.4012-36.5531ZM40.1444 15.8927L40.1444 29.0257C40.1444 33.1604 42.8348 35.8508 46.9695 35.8508L48.9397 35.8508C53.0658 35.8508 55.7648 33.1604 55.7648 29.0257L55.7648 15.8927C55.7648 11.7666 53.0658 9.06758 48.9397 9.06758L46.9695 9.06758C42.8348 9.06758 40.1444 11.7666 40.1444 15.8927Z"/>
</svg>