<svg xmlns="http://www.w3.org/2000/svg" viewBox="12.4609 -53.135 137.88 35.9">
  <path d="M132.425-17.238C142.328-17.238 150.342-25.2519 150.342-35.209C150.342-45.0776 142.328-53.135 132.425-53.135C122.494-53.135 114.445-45.0776 114.445-35.209C114.445-25.2519 122.494-17.238 132.425-17.238ZM30.3783-17.238C40.3006-17.238 48.358-25.2519 48.358-35.1639C48.358-45.0776 40.3006-53.135 30.3783-53.135C20.5097-53.135 12.4609-45.0776 12.4609-35.1639C12.4609-25.2519 20.5097-17.238 30.3783-17.238ZM36.3909-30.4675L123.174-30.4675C125.733-30.4675 127.862-32.5615 127.862-35.1553C127.862-37.7161 125.733-39.8535 123.174-39.8535L36.3909-39.8535C33.7867-39.8535 31.6928-37.7161 31.6928-35.1553C31.6928-32.5615 33.7867-30.4675 36.3909-30.4675Z"/>
</svg>