<svg xmlns="http://www.w3.org/2000/svg" viewBox="12.4609 -86.7378 77.45 102.98">
  <path d="M12.4609-71.9426L12.4609 1.45045C12.4609 11.1764 17.4782 16.2457 27.1173 16.2457L75.2558 16.2457C84.9035 16.2457 89.9122 11.1764 89.9122 1.45045L89.9122-71.9426C89.9122-81.6771 84.9121-86.7378 75.2558-86.7378L27.1173-86.7378C17.4696-86.7378 12.4609-81.6771 12.4609-71.9426ZM51.2126 1.39209C39.8691 1.39209 30.7047-7.68551 30.7047-19.081C30.7047-30.5507 39.8691-39.6512 51.2126-39.5889C62.5126-39.5455 71.677-30.5507 71.677-19.081C71.677-7.68551 62.5126 1.39209 51.2126 1.39209ZM51.2023-48.4439C44.6733-48.4439 39.4767-53.632 39.4767-60.1712C39.4767-66.7018 44.6819-71.9088 51.2023-71.8567C57.6895-71.7944 62.8427-66.6932 62.8964-60.1712C62.9936-53.6406 57.6809-48.4439 51.2023-48.4439ZM51.2126-10.9314C55.773-10.9314 59.3393-14.6279 59.3393-19.081C59.3393-23.7849 55.773-27.3569 51.2126-27.3569C46.6001-27.3569 43.0338-23.7849 43.0338-19.081C43.0338-14.6279 46.7041-10.9314 51.2126-10.9314ZM51.2126-54.7909C54.1971-54.7909 56.5929-57.2301 56.5929-60.1712C56.5929-63.1575 54.1348-65.5532 51.2126-65.5532C48.1674-65.5532 45.7889-63.2718 45.7889-60.1712C45.7889-57.2301 48.176-54.7909 51.2126-54.7909Z"/>
</svg>