<svg xmlns="http://www.w3.org/2000/svg" viewBox="12.4609 -80.7075 58.32 90.89">
  <path d="M21.0304 10.1862L62.2123 10.1862C67.5293 10.1862 70.7817 7.15097 70.7817 1.60653L70.7817 0.669231C70.7817-11.3671 58.1404-23.9692 51.7632-30.2943C48.6077-33.4064 48.434-37.0224 51.7632-40.3516C58.1404-46.6767 70.7817-59.2165 70.7817-71.3151L70.7817-72.1278C70.7817-77.6723 67.5293-80.7075 62.2123-80.7075L21.0304-80.7075C15.7133-80.7075 12.4609-77.6723 12.4609-72.1278L12.4609-71.3151C12.4609-59.2165 25.1023-46.6767 31.4794-40.3516C34.5915-37.2395 34.8087-33.6235 31.4794-30.2943C25.1023-23.9692 12.4609-11.3671 12.4609 0.669231L12.4609 1.60653C12.4609 7.15097 15.7133 10.1862 21.0304 10.1862ZM25.1038 2.58585C22.8797 2.58585 22.2945 0.00179455 23.8118-1.43895L38.997-16.1049C40.6748-17.6816 42.601-17.6484 44.2022-16.1049L59.4309-1.43895C60.9048 0.00179455 60.3195 2.58585 58.0954 2.58585Z"/>
</svg>