<svg xmlns="http://www.w3.org/2000/svg" viewBox="12.4609 -80.783 115.6 91.15">
  <path d="M93.6858-6.31286L107.55-6.31286C110.285-6.31286 111.38-7.50527 111.38-10.283L111.38-60.1309C111.38-62.952 110.285-64.101 107.55-64.101L93.6858-64.101C90.9515-64.101 89.8562-62.952 89.8562-60.1309L89.8562-10.283C89.8562-7.50527 90.9515-6.31286 93.6858-6.31286ZM28.47 10.3692L112.053 10.3692C122.62 10.3692 128.062 4.9099 128.062-5.50962L128.062-64.9043C128.062-75.3238 122.62-80.783 112.053-80.783L28.47-80.783C17.9464-80.783 12.4609-75.341 12.4609-64.9043L12.4609-5.50962C12.4609 4.9271 17.9464 10.3692 28.47 10.3692ZM29.0468 0.76506C24.5098 0.76506 22.0216-1.59521 22.0216-6.30356L22.0216-64.1103C22.0216-68.8621 24.5098-71.1789 29.0468-71.1789L111.476-71.1789C115.979-71.1789 118.501-68.8621 118.501-64.1103L118.501-6.30356C118.501-1.59521 115.979 0.76506 111.476 0.76506Z" />
</svg>