<svg xmlns="http://www.w3.org/2000/svg" viewBox="-0.761916 -88.6769 85.21 106.76">
  <path d="M27.7382-21.5822L18.1775-21.5822L18.1775 4.65239C18.1775 12.7144 23.7925 18.0797 32.2201 18.0797L70.5772 18.0797C78.8729 18.0797 84.4474 12.7144 84.4474 4.64211L84.4474-75.2393C84.4474-83.3116 78.8729-88.6769 70.5772-88.6769L32.2201-88.6769C23.7925-88.6769 18.1775-83.3116 18.1775-75.2496L18.1775-49.0259L27.7382-49.0259L27.7382-73.0232C27.7382-76.7703 29.9866-78.849 33.8435-78.849L68.7483-78.849C72.6382-78.849 74.8433-76.7497 74.8433-73.0129L74.8433 2.41567C74.8433 6.1525 72.6382 8.26037 68.7483 8.26037L33.8435 8.26037C29.9866 8.26037 27.7382 6.17305 27.7382 2.42595ZM38.0494-52.0548C38.0494-50.9549 38.4694-49.8093 39.371-49.0048L46.8084-42.0428L54.9097-35.3041L46.8084-28.574L39.371-21.6119C38.4694-20.8074 38.0494-19.7053 38.0494-18.6054C38.0494-16.3622 39.667-14.5345 41.9141-14.5345C43.0905-14.5345 43.9922-15.0121 44.7967-15.8601L60.2837-31.8858C61.4286-33.041 61.8297-34.13 61.8297-35.3041C61.8297-36.4782 61.4286-37.5671 60.2837-38.7223L44.7967-54.7567C43.9922-55.6046 43.0905-56.0823 41.9141-56.0823C39.667-56.0823 38.0494-54.3065 38.0494-52.0548ZM-0.761916-35.3041C-0.761916-32.805 1.28235-30.7933 3.64316-30.7933L42.6774-30.7933L56.6645-31.5776C58.7094-31.7158 60.391-33.2506 60.391-35.3041C60.391-37.349 58.7094-38.8923 56.6645-39.0305L42.6774-39.8149L3.64316-39.8149C1.28235-39.8149-0.761916-37.7597-0.761916-35.3041Z"/>
</svg>