<svg xmlns="http://www.w3.org/2000/svg" viewBox="18.1775 -88.6769 66.27 106.76">
  <path d="M18.1775 4.65239C18.1775 12.7144 23.7925 18.0797 32.2201 18.0797L70.5772 18.0797C78.8729 18.0797 84.4474 12.7144 84.4474 4.64211L84.4474-75.2393C84.4474-83.3116 78.8729-88.6769 70.5772-88.6769L32.2201-88.6769C23.7925-88.6769 18.1775-83.3116 18.1775-75.2496ZM27.7382 2.42595L27.7382-73.0232C27.7382-76.7703 29.9866-78.849 33.8435-78.849L68.7483-78.849C72.6382-78.849 74.8433-76.7497 74.8433-73.0129L74.8433 2.41567C74.8433 6.1525 72.6382 8.26037 68.7483 8.26037L33.8435 8.26037C29.9866 8.26037 27.7382 6.17305 27.7382 2.42595ZM40.5771-59.6148C44.0257-59.6148 46.981-62.5615 46.981-66.1798C46.981-69.6804 44.0257-72.6185 40.5771-72.6185C36.9503-72.6185 33.9687-69.6804 33.9687-66.1798C33.9687-62.5615 36.9503-59.6148 40.5771-59.6148Z"/>
</svg>