<svg xmlns="http://www.w3.org/2000/svg" viewBox="-6.41233 -98.735 129.95 125.13">
  <path d="M45.5671-88.093C59.0743-88.093 69.9176-77.2496 69.9176-63.7962C69.9176-52.8859 62.7978-43.4384 51.635-40.143L58.295-33.483C71.3664-40.0336 78.7081-50.9751 78.7081-63.7962C78.7081-82.0965 63.8966-96.8401 45.5671-96.8401C31.7791-96.8401 20.0503-88.457 15.1759-76.5484L21.9662-69.7581C24.6201-80.3189 34.1114-88.093 45.5671-88.093ZM45.5671-65.1164C49.9448-65.1164 53.4777-68.6509 53.4777-73.027C53.4777-77.3698 49.9448-80.9027 45.5671-80.9027C41.1808-80.9027 37.6913-77.3801 37.6913-73.027C37.6913-68.6509 41.2242-65.1164 45.5671-65.1164ZM49.3072 24.2611L64.3764 9.19193C65.9399 7.67183 65.7228 5.64721 64.5169 4.47454L49.0707-11.0254L49.0707-1.08625L55.6538 5.42432L45.5671 15.6254L40.2765 10.345L40.2765-21.6894L31.8377-30.1282L31.8377 12.2493C31.8377 13.9835 32.3965 15.9892 33.904 17.2716L41.8704 24.2074C44.0907 26.1283 47.1732 26.3951 49.3072 24.2611ZM89.2234-43.3054C90.9719-41.892 93.6424-42.1389 95.2895-44.2826C99.0586-49.0768 101.267-56.3016 101.267-63.7962C101.267-71.2908 99.0586-78.4722 95.2895-83.32C93.6424-85.4637 90.9719-85.7004 89.2234-84.2435C87.2395-82.666 87.0977-80.157 88.6805-78.024C91.3118-74.4218 92.8587-69.123 92.8587-63.7962C92.8587-58.4694 91.2683-53.214 88.6805-49.5787C87.1308-47.4022 87.2395-44.9264 89.2234-43.3054ZM107.166-30.3371C109.076-28.8368 111.631-29.0569 113.35-31.2709C119.856-39.7116 123.538-51.6193 123.538-63.7962C123.538-75.9525 119.776-88.0293 113.35-96.3113C111.651-98.5355 109.086-98.735 107.166-97.245C105.296-95.7875 105.14-93.3432 106.719-91.2204C112.124-83.9483 115.13-74.0584 115.13-63.7962C115.13-53.5237 112.017-43.6772 106.719-36.3617C105.193-34.2389 105.306-31.7946 107.166-30.3371ZM-4.93695-76.1956L84.3491 12.9831C85.8799 14.5138 88.3752 14.483 89.8317 12.9831C91.3362 11.4351 91.3505 9.03121 89.8317 7.5124L0.599354-81.6662C-0.922808-83.1884-3.41814-83.2056-4.93695-81.6868C-6.41233-80.2114-6.40206-77.6607-4.93695-76.1956Z"/>
</svg>