<svg xmlns="http://www.w3.org/2000/svg" viewBox="12.2912 -93.986 96.66 117.49">
  <path d="M60.698-64.8569C73.1088-64.8569 83.5343-72.2289 85.0891-82.5536C85.7405-86.7251 83.5997-89.7436 79.3573-90.9461C67.9264-93.986 53.5045-93.986 42.0387-90.9461C37.7964-89.7436 35.7076-86.7337 36.307-82.5536C37.9137-72.2289 48.3221-64.8569 60.698-64.8569ZM60.698-72.0277C51.9088-72.0277 44.838-76.6878 43.5474-83.2795C43.4834-83.5936 43.7043-83.9322 44.1482-84.0649C54.5871-86.7306 66.7387-86.7409 77.2393-84.0649C77.6918-83.9236 77.9647-83.5936 77.9007-83.2795C76.6015-76.6878 69.5118-72.0277 60.698-72.0277ZM56.3288-45.866L65.0673-45.866L65.0673-69.4845L56.3288-69.4845ZM60.6254 23.5066C89.6799 23.5066 108.951 14.6483 108.781 1.43682C108.826-11.6775 96.9955-27.8031 82.0919-35.2492C79.2648-44.6513 70.4618-51.1945 60.6254-51.1945C50.8239-51.1945 42.0296-44.6513 39.1938-35.2492C24.2554-27.8031 12.4593-11.6775 12.4609 1.43682C12.2912 14.6483 31.6058 23.5066 60.6254 23.5066ZM60.6254 15.4494C36.6245 15.4494 20.5268 9.82241 20.4748 1.43682C20.5268-9.80131 32.6772-24.3023 46.3689-29.5613C47.0587-37.3916 53.1847-43.0733 60.6254-43.0733C68.0662-43.0733 74.1922-37.3916 74.9168-29.5613C88.4434-24.3892 100.759-9.88817 100.768 1.43682C100.759 9.82241 84.7047 15.4494 60.6254 15.4494ZM60.6254-12.6277C84.7047-12.6277 100.759-7.00079 100.768 1.43682L108.781 1.43682C108.951-11.8181 89.6799-20.685 60.6254-20.685C31.6058-20.685 12.2912-11.8181 12.4609 1.43682L20.4748 1.43682C20.5268-7.00079 36.6245-12.6277 60.6254-12.6277ZM60.6254 5.32465C69.5927 5.32465 78.0355-0.0142761 78.2719-6.5544C73.1224-7.35009 67.1355-7.8588 60.6254-7.8588C54.1674-7.8588 48.1805-7.35009 43.031-6.5544C43.2674-0.0142761 51.6844 5.32465 60.6254 5.32465Z"/>
</svg>