<svg xmlns="http://www.w3.org/2000/svg" viewBox="8.72266 -80.1415 106.98 91.7">
  <path d="M10.1955-76.0695C9.12396-71.0654 8.72266-64.4945 8.72266-60.069C8.72266-23.1324 30.7546 1.24019 64.4412 1.24019C86.5217 1.24019 96.5941-11.8352 98.9881-15.9094L91.7745-16.3061C98.4883-9.18688 101.205-2.09041 104.496 8.20722C105.255 10.6209 106.95 11.5559 108.825 11.5559C112.591 11.5559 115.699 8.30036 115.699 3.79305C115.699-3.02918 105.79-14.8828 100.69-19.6783C78.9821-39.8002 45.9617-27.7574 37.6917-49.6079C37.1102-51.1787 38.7679-52.4255 40.2119-50.9627C57.1164-33.5854 79.2667-48.1193 100.288-28.804C102.171-27.1195 104.438-27.9469 104.784-29.975C105.033-31.3539 105.168-33.5866 105.168-35.8457C105.168-59.751 88.6046-71.7946 64.6109-71.7946C56.6827-71.7946 47.4295-69.7723 40.2315-69.7723C32.4376-69.7723 23.6386-70.3509 16.5897-77.8396C14.3481-80.1415 11.0143-79.6815 10.1955-76.0695Z"/>
</svg>