<svg xmlns="http://www.w3.org/2000/svg" viewBox="12.4609 -80.7317 91.11 91.15">
  <path d="M44.7365-8.49738C42.3432-8.49738 40.6134-10.2358 40.6134-12.6205L40.6134-57.7761C40.6134-60.1609 42.3432-61.8993 44.7365-61.8993L71.2941-61.8993C73.7309-61.8993 75.4173-60.1609 75.4173-57.7761L75.4173-12.6205C75.4173-10.2358 73.7309-8.49738 71.2941-8.49738ZM48.4541-40.0514L67.62-40.0514C68.6664-40.0514 69.4207-40.816 69.4207-41.9681L69.4207-54.0397C69.4207-55.1381 68.6664-55.9028 67.62-55.9028L48.4541-55.9028C47.3643-55.9028 46.6099-55.1381 46.6099-54.0397L46.6099-41.9681C46.6099-40.816 47.3643-40.0514 48.4541-40.0514ZM28.47 10.4205L87.5607 10.4205C98.1277 10.4205 103.57 4.96129 103.57-5.45823L103.57-64.8529C103.57-75.2724 98.1277-80.7317 87.5607-80.7317L28.47-80.7317C17.9464-80.7317 12.4609-75.2896 12.4609-64.8529L12.4609-5.45823C12.4609 4.97849 17.9464 10.4205 28.47 10.4205Z"/>
</svg>