<svg xmlns="http://www.w3.org/2000/svg" viewBox="12.4609 -89.4447 73.78 108.42">
  <path d="M28.2963 18.9784L70.406 18.9784C80.8513 18.9784 86.2413 13.4929 86.2413 2.96934L86.2413-73.4357C86.2413-84.0027 80.8513-89.4447 70.406-89.4447L28.2963-89.4447C17.8596-89.4447 12.4609-84.0027 12.4609-73.4357L12.4609 2.96934C12.4609 13.4929 17.8596 18.9784 28.2963 18.9784ZM29.1337 9.41772C24.3819 9.41772 22.0216 6.92949 22.0216 2.39253L22.0216-72.8589C22.0216-77.3958 24.3819-79.8841 29.1337-79.8841L69.5772-79.8841C74.3204-79.8841 76.6892-77.3958 76.6892-72.8589L76.6892 2.39253C76.6892 6.92949 74.3204 9.41772 69.5772 9.41772ZM32.9726-43.5294L65.556-43.5294C68.3423-43.5294 69.4724-44.6263 69.4724-47.3607L69.4724-68.9142C69.4724-71.6572 68.3423-72.7541 65.556-72.7541L32.9726-72.7541C30.1948-72.7541 29.0561-71.6572 29.0561-68.9142L29.0561-47.3607C29.0561-44.6263 30.1948-43.5294 32.9726-43.5294Z"/>
</svg>