<svg xmlns="http://www.w3.org/2000/svg" viewBox="12.4609 -48.8122 102.01 53.94">
  <path d="M16.9628 5.12567C19.4466 5.12567 21.4441 3.21501 21.4441 0.720959L21.4441-44.3537C21.4441-46.8564 19.4466-48.8122 16.9628-48.8122C14.4167-48.8122 12.4609-46.8564 12.4609-44.3537L12.4609 0.720959C12.4609 3.21501 14.4167 5.12567 16.9628 5.12567ZM40.2494 5.12567C42.7332 5.12567 44.6786 3.17158 44.6786 0.720959L44.6786-22.5385C44.6786-25.0411 42.7332-27.0403 40.2494-27.0403C37.7033-27.0403 35.7041-25.0411 35.7041-22.5385L35.7041 0.720959C35.7041 3.17158 37.7033 5.12567 40.2494 5.12567ZM63.4577 5.12567C65.9849 5.12567 67.9304 3.21501 67.9304 0.720959L67.9304-44.3537C67.9304-46.8564 65.9849-48.8122 63.4577-48.8122C60.9116-48.8122 58.9993-46.8564 58.9993-44.3537L58.9993 0.720959C58.9993 3.21501 60.9116 5.12567 63.4577 5.12567ZM86.7792 5.12567C89.2715 5.12567 91.217 3.17158 91.217 0.720959L91.217-22.5385C91.217-25.0411 89.2715-27.0403 86.7792-27.0403C84.1982-27.0403 82.2425-25.0411 82.2425-22.5385L82.2425 0.720959C82.2425 3.17158 84.1982 5.12567 86.7792 5.12567ZM109.987 5.12567C112.48 5.12567 114.469 3.21501 114.469 0.720959L114.469-44.3537C114.469-46.8564 112.48-48.8122 109.987-48.8122C107.45-48.8122 105.494-46.8564 105.494-44.3537L105.494 0.720959C105.494 3.21501 107.45 5.12567 109.987 5.12567Z" />
</svg>