<svg xmlns="http://www.w3.org/2000/svg" viewBox="12.4609 -72.0662 125.54 73.69">
  <path d="M19.3309-58.3348C23.0953-58.3348 26.1923-61.4317 26.1923-65.2048C26.1923-68.9692 23.0953-72.0662 19.3309-72.0662C15.5579-72.0662 12.4609-68.9692 12.4609-65.2048C12.4609-61.4317 15.5579-58.3348 19.3309-58.3348ZM42.0839-60.5786L108.491-60.5786C111.042-60.5786 113.109-62.6657 113.109-65.2048C113.109-67.7661 111.053-69.8224 108.491-69.8224L42.0839-69.8224C39.5242-69.8224 37.5091-67.7456 37.5091-65.2048C37.5091-62.6862 39.5345-60.5786 42.0839-60.5786ZM31.7733-28.3473C35.5464-28.3473 38.6433-31.4442 38.6433-35.2172C38.6433-38.9903 35.5464-42.0872 31.7733-42.0872C27.9569-42.0872 24.912-38.9903 24.912-35.2172C24.912-31.4442 27.9569-28.3473 31.7733-28.3473ZM54.5263-30.591L120.942-30.591C123.493-30.591 125.552-32.6867 125.552-35.2172C125.552-37.7786 123.504-39.8434 120.942-39.8434L54.5263-39.8434C51.9752-39.8434 49.9515-37.758 49.9515-35.2172C49.9515-32.7072 51.9855-30.591 54.5263-30.591ZM44.2244 1.62144C47.9974 1.62144 51.0857-1.47549 51.0857-5.23993C51.0857-9.05639 47.9974-12.1099 44.2244-12.1099C40.4079-12.1099 37.3544-9.05639 37.3544-5.23993C37.3544-1.47549 40.4079 1.62144 44.2244 1.62144ZM66.9774-0.622353L133.385-0.622353C135.944-0.622353 138.003-2.7094 138.003-5.23993C138.003-7.85331 135.955-9.8661 133.385-9.8661L66.9774-9.8661C64.4177-9.8661 62.4026-7.83276 62.4026-5.23993C62.4026-2.72996 64.4279-0.622353 66.9774-0.622353Z" />
</svg>