<svg xmlns="http://www.w3.org/2000/svg" viewBox="12.4609 -70.6751 100.65 70.95">
  <path d="M17.9256-59.6675L26.3195-59.6675C29.3305-59.6675 31.8276-62.1544 31.8276-65.1756C31.8276-68.2317 29.3305-70.6751 26.3195-70.6751L17.9256-70.6751C14.9233-70.6751 12.4609-68.2317 12.4609-65.1756C12.4609-62.1544 14.9233-59.6675 17.9256-59.6675ZM46.8002-60.5597L108.491-60.5597C111.042-60.5597 113.109-62.6468 113.109-65.1859C113.109-67.7473 111.053-69.8035 108.491-69.8035L46.8002-69.8035C44.2491-69.8035 42.234-67.7267 42.234-65.1859C42.234-62.6673 44.2594-60.5597 46.8002-60.5597ZM17.9256-29.6988L26.3195-29.6988C29.3305-29.6988 31.8276-32.1771 31.8276-35.1983C31.8276-38.263 29.3305-40.6978 26.3195-40.6978L17.9256-40.6978C14.9233-40.6978 12.4609-38.263 12.4609-35.1983C12.4609-32.1771 14.9233-29.6988 17.9256-29.6988ZM46.8002-30.5824L108.491-30.5824C111.042-30.5824 113.109-32.6781 113.109-35.2086C113.109-37.77 111.053-39.8348 108.491-39.8348L46.8002-39.8348C44.2491-39.8348 42.234-37.7494 42.234-35.2086C42.234-32.6986 44.2594-30.5824 46.8002-30.5824ZM17.9256 0.278443L26.3195 0.278443C29.3305 0.278443 31.8276-2.20845 31.8276-5.22105C31.8276-8.28567 29.3305-10.7291 26.3195-10.7291L17.9256-10.7291C14.9233-10.7291 12.4609-8.28567 12.4609-5.22105C12.4609-2.20845 14.9233 0.278443 17.9256 0.278443ZM46.8002-0.613752L108.491-0.613752C111.042-0.613752 113.109-2.7008 113.109-5.23133C113.109-7.80129 111.053-9.8575 108.491-9.8575L46.8002-9.8575C44.2491-9.8575 42.234-7.78073 42.234-5.23133C42.234-2.72135 44.2594-0.613752 46.8002-0.613752Z" />
</svg>