<svg xmlns="http://www.w3.org/2000/svg" viewBox="12.4609 -80.7933 91.11 91.15">
  <path d="M28.47 10.3589L87.5607 10.3589C98.1277 10.3589 103.57 4.89962 103.57-5.51989L103.57-64.9145C103.57-75.3341 98.1277-80.7933 87.5607-80.7933L28.47-80.7933C17.9464-80.7933 12.4609-75.3513 12.4609-64.9145L12.4609-5.51989C12.4609 4.91683 17.9464 10.3589 28.47 10.3589ZM32.2917-31.1118C27.6769-31.1118 26.7896-36.2363 30.6711-38.0242L76.6128-59.6711C80.7876-61.6254 84.4818-57.9411 82.5103-53.765L61.053-7.76229C59.2925-3.93411 54.184-4.7612 54.184-9.41895L54.132-29.4302C54.132-30.4313 53.4601-31.1032 52.511-31.1032Z"/>
</svg>