<svg xmlns="http://www.w3.org/2000/svg" viewBox="8.72266 -85.6724 100.87 100.82">
  <path d="M59.1344 15.1511C86.9881 15.1511 109.59-7.40694 109.59-35.2606C109.59-63.1144 86.9881-85.6724 59.1344-85.6724C31.3241-85.6724 8.72266-63.1144 8.72266-35.2606C8.72266-7.40694 31.3241 15.1511 59.1344 15.1511ZM59.1344 5.24301C36.7449 5.24301 18.6656-12.8711 18.6656-35.2606C18.6656-57.6501 36.7449-75.7643 59.1344-75.7643C81.5239-75.7643 99.6381-57.6501 99.6381-35.2606C99.6381-12.8711 81.5239 5.24301 59.1344 5.24301ZM43.8064-19.167C45.6646-19.167 46.6828-20.4332 46.6828-22.1177L46.6828-39.2847C46.6828-42.7579 48.3105-46.1459 51.8619-46.1459C55.0634-46.1459 56.427-43.6635 56.427-40.4027L56.427-22.1177C56.427-20.4206 57.5533-19.167 59.1636-19.167C60.8938-19.167 62.0029-20.4206 62.0029-22.1177L62.0029-39.5702C62.0029-42.8651 63.5341-46.1459 67.0849-46.1459C70.5389-46.1459 71.6814-43.4835 71.6814-40.0729L71.6814-22.1177C71.6814-20.4103 72.8939-19.167 74.6013-19.167C76.3103-19.167 77.5126-20.4103 77.5126-22.1177L77.5126-41.6162C77.5126-47.0315 74.8146-51.5637 68.9909-51.5637C64.9503-51.5637 61.9166-49.09 61.1-45.6196L60.8873-45.6196C60.0116-49.4487 57.6315-51.5637 53.7056-51.5637C49.8981-51.5637 47.501-49.0191 46.6858-45.6356L46.4508-45.6356L46.4508-48.5627C46.4508-50.3894 45.3686-51.5031 43.6904-51.5031C41.9813-51.5031 40.8951-50.3586 40.8951-48.5627L40.8951-22.1177C40.8951-20.4537 41.9687-19.167 43.8064-19.167ZM45.5617-7.52698C46.3191-7.52698 46.7208-7.90648 47.0814-8.70722L70.0677-60.7158C70.2271-61.0433 70.2791-61.3502 70.2791-61.6326C70.2791-62.5298 69.6123-63.0585 68.7492-63.0585C67.9783-63.0585 67.5467-62.5733 67.2295-61.8868L44.2433-9.8348C44.0941-9.53649 44.0318-9.28727 44.0318-8.96147C44.0318-8.06424 44.7073-7.52698 45.5617-7.52698Z" />
</svg>