<svg xmlns="http://www.w3.org/2000/svg" viewBox="8.72266 -85.6724 100.87 100.82">
  <path d="M59.1344 15.1511C86.9709 15.1511 109.59-7.46756 109.59-35.2606C109.59-63.0537 86.9709-85.6724 59.1344-85.6724C31.3413-85.6724 8.72266-63.0537 8.72266-35.2606C8.72266-7.46756 31.3413 15.1511 59.1344 15.1511ZM43.101-14.5786C40.5722-14.5786 38.529-16.6133 38.529-19.2306C38.529-20.414 39.0272-21.5384 39.8797-22.4241L52.6334-35.1881L39.8797-47.952C39.0272-48.8377 38.529-49.9621 38.529-51.1455C38.529-53.7629 40.5722-55.7106 43.101-55.7106C44.4621-55.7106 45.4705-55.2764 46.3853-54.405L59.1344-41.6559L72.0241-54.4484C72.9737-55.3632 73.9993-55.7975 75.2649-55.7975C77.8372-55.7975 79.8804-53.8063 79.8804-51.2323C79.8804-50.0056 79.469-48.9246 78.4862-47.9955L65.6993-35.1881L78.4428-22.4675C79.3822-21.5818 79.837-20.4574 79.837-19.2306C79.837-16.6133 77.7937-14.5786 75.178-14.5786C73.869-14.5786 72.7218-15.0129 71.8503-15.9277L59.1344-28.6665L46.4721-15.9277C45.6007-15.0129 44.4621-14.5786 43.101-14.5786Z"/>
</svg>