<svg xmlns="http://www.w3.org/2000/svg" viewBox="12.4609 -80.783 115.6 91.15">
  <path d="M28.47 10.3692L112.053 10.3692C122.62 10.3692 128.062 4.9099 128.062-5.50962L128.062-64.9043C128.062-75.3238 122.62-80.783 112.053-80.783L28.47-80.783C17.9464-80.783 12.4609-75.341 12.4609-64.9043L12.4609-5.50962C12.4609 4.9271 17.9464 10.3692 28.47 10.3692ZM55.8061-15.2848C53.2206-15.2848 51.9582-16.705 51.9582-18.8275L51.9582-51.6281C51.9582-53.7592 53.2206-55.2143 55.8061-55.2143L61.0759-55.2143C63.6701-55.2143 64.9136-53.7592 64.9136-51.6281L64.9136-18.8275C64.9136-16.705 63.6701-15.2848 61.0759-15.2848ZM79.5251-15.2848C76.9396-15.2848 75.6526-16.705 75.6526-18.8275L75.6526-51.6281C75.6526-53.7592 76.9396-55.2143 79.5251-55.2143L84.7949-55.2143C87.3805-55.2143 88.6429-53.7592 88.6429-51.6281L88.6429-18.8275C88.6429-16.705 87.3805-15.2848 84.7949-15.2848Z"/>
</svg>