<svg xmlns="http://www.w3.org/2000/svg" viewBox="8.72266 -84.8893 119.15 99.28">
  <path d="M68.3236-63.2822C77.1125-63.2822 85.1744-60.279 91.6266-55.2648C92.7057-54.4469 94.0734-54.5281 95.0799-55.5346L106.622-67.0354C107.836-68.2493 107.783-70.0131 106.486-71.0922C96.1368-79.7232 82.8143-84.8893 68.3236-84.8893C53.8242-84.8893 40.4583-79.7232 30.1527-71.0922C28.8558-70.0131 28.8107-68.2493 30.0247-67.0354L41.5238-55.5346C42.5303-54.5281 43.9603-54.4555 45.1017-55.3357C51.5454-60.279 59.5969-63.2822 68.3236-63.2822ZM8.72266-25.3318C8.72266-10.6759 14.0143 2.74765 22.767 13.1275C23.8358 14.3936 25.5876 14.3816 26.7827 13.1779L38.5338 1.40966C39.4203 0.557979 39.4723-0.646338 38.6687-1.63291C33.3826-8.39245 30.3731-16.5246 30.3731-25.3318C30.3731-34.067 33.3329-42.1186 38.3282-48.5188C39.1895-49.6602 39.1809-51.0799 38.1642-52.0967L26.62-63.6306C25.4146-64.836 23.6422-64.8343 22.5631-63.5375C13.9235-53.1536 8.72266-39.8397 8.72266-25.3318ZM127.872-25.3318C127.872-39.85 122.705-53.1844 114.01-63.5786C112.951-64.8446 111.189-64.836 109.984-63.6306L98.4744-52.0967C97.4576-51.0799 97.449-49.6602 98.3104-48.5188C103.306-42.1186 106.265-34.067 106.265-25.3318C106.265-16.5246 103.256-8.39245 97.9265-1.63291C97.1662-0.646338 97.2183 0.557979 98.0614 1.40966L109.821 13.1779C111.016 14.3816 112.778 14.373 113.868 13.0967C122.634 2.71682 127.872-10.6862 127.872-25.3318ZM58.6951-2.79646C60.784-2.79646 62.145-4.13126 62.145-6.23215L62.145-16.7359L70.4793-16.7359C79.4975-16.7359 85.1418-23.324 85.1418-31.8352C85.1418-40.0539 79.8094-46.7449 70.7186-46.7449L58.8018-46.7449C56.6529-46.7449 55.3565-45.353 55.3565-43.1955L55.3565-6.23215C55.3565-4.13126 56.6393-2.79646 58.6951-2.79646ZM62.145-22.102L62.145-41.3463L69.0297-41.3463C74.7721-41.3463 78.291-37.8924 78.291-31.8249C78.291-25.8551 74.8589-22.102 69.0091-22.102ZM50.6226-35.4787C50.6226-34.55 51.2861-33.9471 52.1976-33.9471L87.4423-33.9471C88.3189-33.9471 89.0259-34.602 89.0259-35.4787C89.0259-36.3017 88.3189-37.0086 87.4423-37.0086L52.1976-37.0086C51.2861-37.0086 50.6226-36.3017 50.6226-35.4787ZM50.6226-28.0157C50.6226-27.139 51.2861-26.4841 52.1976-26.4841L87.4423-26.4841C88.3189-26.4841 89.0259-27.191 89.0259-28.0157C89.0259-28.8924 88.3189-29.5559 87.4423-29.5559L52.1976-29.5559C51.2861-29.5559 50.6226-28.8924 50.6226-28.0157Z"/>
</svg>