<svg xmlns="http://www.w3.org/2000/svg" viewBox="11.0298 -90.8822 127.85 106.28">
  <path d="M74.203-22.694C68.5052-22.694 63.8734-27.343 63.8734-32.9974C63.8734-38.6243 68.5052-43.3253 74.203-43.3253C79.8386-43.3253 84.4789-38.6243 84.4789-32.9974C84.4789-27.343 79.8386-22.694 74.203-22.694ZM55.1995 6.70284C51.2271 6.70284 48.7737 4.25571 48.7737 0.242186L48.7737-2.21389L60.6836-12.9109C62.4357-14.4949 64.3036-15.2912 66.2021-15.2912C68.267-15.2912 70.2287-14.4429 71.991-12.892L79.7351-5.88403L99.0354-22.9919C101.028-24.7629 103.141-25.5518 105.487-25.5518C107.829-25.5518 110.043-24.7108 111.912-22.9399L130.401-5.75838L130.401 0.285612C130.401 4.29914 127.879 6.70284 124.028 6.70284ZM56.2209 15.395L122.867 15.395C133.4 15.395 138.876 9.94432 138.876-0.440369L138.876-46.8472C138.876-57.2667 133.4-62.6826 122.867-62.6826L56.2209-62.6826C45.6973-62.6826 40.2118-57.2839 40.2118-46.8472L40.2118-0.440369C40.2118 10.005 45.6973 15.395 56.2209 15.395ZM20.9423-13.3819C22.3512-5.42008 26.43-1.03927 33.0819-0.378294C33.0819-0.530383 33.0819-0.680795 33.0819-0.822606L33.0819-46.8472C33.0819-61.2435 41.7463-69.8125 56.2209-69.8125L111.156-69.8125L109.994-76.2145C108.187-86.4557 101.91-90.8822 91.5123-89.0321L25.8713-77.4632C15.4826-75.6566 11.0298-69.3601 12.8799-59.1017Z"/>
</svg>