<svg xmlns="http://www.w3.org/2000/svg" viewBox="12.4609 -87.5129 105.73 104.65">
  <path d="M28.47-6.07446L41.51-6.07446L41.51-15.6351L29.0468-15.6351C24.5098-15.6351 22.0216-17.9954 22.0216-22.7472L22.0216-70.8402C22.0216-75.592 24.5098-77.9522 29.0468-77.9522L77.3135-77.9522C81.8161-77.9522 84.3387-75.592 84.3387-70.8402L84.3387-60.2301L93.8994-60.2301L93.8994-71.6776C93.8994-82.0971 88.4139-87.5129 77.8903-87.5129L28.47-87.5129C17.903-87.5129 12.4609-82.1143 12.4609-71.6776L12.4609-21.9098C12.4609-11.4731 17.903-6.07446 28.47-6.07446ZM52.7624 17.1334L102.183 17.1334C112.706 17.1334 118.192 11.7176 118.192 1.29808L118.192-48.4697C118.192-58.8892 112.706-64.305 102.183-64.305L52.7624-64.305C42.1954-64.305 36.7534-58.9064 36.7534-48.4697L36.7534 1.29808C36.7534 11.7348 42.1954 17.1334 52.7624 17.1334ZM53.3392 7.57276C48.8023 7.57276 46.314 5.21249 46.314 0.460711L46.314-47.6323C46.314-52.3841 48.8023-54.7443 53.3392-54.7443L101.606-54.7443C106.108-54.7443 108.631-52.3841 108.631-47.6323L108.631 0.460711C108.631 5.21249 106.108 7.57276 101.606 7.57276ZM82.0424-5.62875L82.0424-41.5949C82.0424-44.3226 80.1168-46.2104 77.4206-46.2104C74.7849-46.2104 72.9028-44.314 72.9028-41.5949L72.9028-5.62875C72.9028-2.96163 74.7849-1.05665 77.4206-1.05665C80.1168-1.05665 82.0424-2.95303 82.0424-5.62875ZM59.5069-19.068L95.4731-19.068C98.1488-19.068 100.045-20.9501 100.045-23.5858C100.045-26.2821 98.1574-28.2076 95.4731-28.2076L59.5069-28.2076C56.7878-28.2076 54.9348-26.2821 54.9348-23.5858C54.9348-20.9501 56.7964-19.068 59.5069-19.068Z"/>
</svg>