<svg xmlns="http://www.w3.org/2000/svg" viewBox="12.4609 -80.7933 91.11 91.15">
  <path d="M28.47 10.3589L87.5607 10.3589C98.1277 10.3589 103.57 4.89962 103.57-5.51989L103.57-64.9145C103.57-75.3341 98.1277-80.7933 87.5607-80.7933L28.47-80.7933C17.9464-80.7933 12.4609-75.3513 12.4609-64.9145L12.4609-5.51989C12.4609 4.91683 17.9464 10.3589 28.47 10.3589ZM58.0878-11.8341C55.3139-11.8341 53.3472-13.8584 53.3472-16.629L53.3472-30.5201L39.4995-30.5201C36.6856-30.5201 34.6612-32.4868 34.6612-35.2606C34.6612-38.0952 36.677-40.1052 39.4995-40.1052L53.3472-40.1052L53.3472-53.953C53.3472-56.7669 55.3139-58.7913 58.0878-58.7913C60.9223-58.7913 62.8889-56.7755 62.8889-53.953L62.8889-40.1052L76.8235-40.1052C79.6026-40.1052 81.575-38.0952 81.575-35.2606C81.575-32.4868 79.594-30.5201 76.8235-30.5201L62.8889-30.5201L62.8889-16.629C62.8889-13.8498 60.9223-11.8341 58.0878-11.8341Z"/>
</svg>