<svg xmlns="http://www.w3.org/2000/svg" viewBox="12.4609 -81.3917 93.34 92.31">
  <path d="M12.4609-56.8147C12.4609-54.6127 14.2373-52.8363 16.4393-52.8363L25.8327-52.8363L25.8327-43.4532C25.8327-41.2077 27.644-39.4645 29.8111-39.4748C32.0566-39.4748 33.7895-41.2512 33.7895-43.4532L33.7895-52.8363L43.2161-52.8363C45.4181-52.8363 47.1945-54.6127 47.1945-56.8147C47.1945-59.0253 45.4181-60.7931 43.2161-60.7931L33.7895-60.7931L33.7895-70.2299C33.7895-72.432 32.0132-74.2083 29.8111-74.2083C27.6005-74.2083 25.8327-72.432 25.8327-70.2299L25.8327-60.7931L16.4393-60.7931C14.2373-60.7931 12.4609-59.0253 12.4609-56.8147ZM63.1044-33.2715L90.8234-74.3392C91.5623-75.3615 91.9096-76.3128 91.9096-77.4236C91.9096-79.6998 89.9579-81.3917 87.6541-81.3917C85.6258-81.3917 84.5654-80.7072 83.0615-78.5165L55.4116-37.3784L27.5027 3.76591C26.7742 4.76759 26.3834 5.6967 26.3834 6.94171C26.3834 9.36883 28.4362 10.9138 30.8743 10.9138C32.7044 10.9138 33.7836 10.1733 35.2007 8.12149ZM71.0718-10.3363C71.0718-8.16906 72.8396-6.40128 75.0068-6.40128L101.818-6.40128C104.029-6.40128 105.797-8.16906 105.797-10.3363C105.797-12.5383 104.029-14.3147 101.818-14.3147L75.0068-14.3147C72.8396-14.3147 71.0718-12.5383 71.0718-10.3363Z"/>
</svg>