<svg xmlns="http://www.w3.org/2000/svg" viewBox="12.4609 -80.7933 91.11 91.15">
  <path d="M42.9103-51.9403C39.5962-51.9403 38.1521-50.7815 36.5796-48.7679L28.8187-38.5733C27.2559-36.6001 27.2473-34.0372 28.8101-32.0435L36.5899-21.7534C38.1624-19.7398 39.987-18.581 42.9103-18.581L73.129-18.581C76.0436-18.581 77.9117-19.7398 79.4408-21.7534L87.2205-32.0435C88.8268-34.0372 88.8182-36.6001 87.2119-38.5733L79.451-48.7679C77.922-50.7815 76.4344-51.9403 73.129-51.9403ZM41.3573-39.832C43.8453-39.832 45.939-37.7384 45.939-35.2504C45.939-32.7726 43.8453-30.679 41.3573-30.679C38.8796-30.679 36.838-32.7726 36.838-35.2504C36.838-37.7384 38.8796-39.832 41.3573-39.832ZM58.037-34.1987C60.525-34.1987 62.6187-32.1485 62.6187-29.6605C62.6187-27.1828 60.525-25.0892 58.037-25.0892C55.5056-25.0892 53.4554-27.1828 53.4554-29.6605C53.4554-32.1485 55.5056-34.1987 58.037-34.1987ZM74.6733-39.832C77.151-39.832 79.2012-37.7384 79.2012-35.2504C79.2012-32.7726 77.151-30.679 74.6733-30.679C72.1853-30.679 70.0917-32.7726 70.0917-35.2504C70.0917-37.7384 72.1853-39.832 74.6733-39.832ZM28.47 10.3589L87.5607 10.3589C98.1277 10.3589 103.57 4.89962 103.57-5.51989L103.57-64.9145C103.57-75.3341 98.1277-80.7933 87.5607-80.7933L28.47-80.7933C17.9464-80.7933 12.4609-75.3513 12.4609-64.9145L12.4609-5.51989C12.4609 4.91683 17.9464 10.3589 28.47 10.3589ZM29.0468 0.754783C24.5098 0.754783 22.0216-1.60549 22.0216-6.31384L22.0216-64.1206C22.0216-68.8724 24.5098-71.1892 29.0468-71.1892L86.9838-71.1892C91.4864-71.1892 94.009-68.8724 94.009-64.1206L94.009-6.31384C94.009-1.60549 91.4864 0.754783 86.9838 0.754783Z" />
</svg>