<svg xmlns="http://www.w3.org/2000/svg" viewBox="12.4609 -80.7933 91.11 91.15">
  <path d="M41.3943-51.2087L74.6364-51.2087C78.393-51.2087 79.7828-49.6991 81.8363-47.649L90.4671-38.9548C92.5338-36.8898 92.5424-33.7167 90.4654-31.6619L81.826-22.8723C79.7725-20.8222 77.9588-19.3126 74.6364-19.3126L41.3943-19.3126C38.0719-19.3126 36.2581-20.8222 34.2046-22.8723L25.5652-31.6619C23.4882-33.7167 23.4968-36.8898 25.5636-38.9548L34.1944-47.649C36.2478-49.6991 37.681-51.2087 41.3943-51.2087ZM39.5701-40.3306C36.8183-40.3306 34.4813-38.0023 34.4813-35.2504C34.4813-32.4985 36.8183-30.1701 39.5701-30.1701C42.3134-30.1701 44.6504-32.4985 44.6504-35.2504C44.6504-38.0023 42.3134-40.3306 39.5701-40.3306ZM58.037-36.5961C55.2417-36.5961 52.9568-34.3026 52.9568-31.5073C52.9568-28.7554 55.2417-26.4705 58.037-26.4705C60.7889-26.4705 63.0824-28.7554 63.0824-31.5073C63.0824-34.3026 60.7889-36.5961 58.037-36.5961ZM76.4605-40.3306C73.7172-40.3306 71.4237-38.0023 71.4237-35.2504C71.4237-32.4985 73.7172-30.1701 76.4605-30.1701C79.2558-30.1701 81.5493-32.4985 81.5493-35.2504C81.5493-38.0023 79.2558-40.3306 76.4605-40.3306ZM28.47 10.3589L87.5607 10.3589C98.1277 10.3589 103.57 4.89962 103.57-5.51989L103.57-64.9145C103.57-75.3341 98.1277-80.7933 87.5607-80.7933L28.47-80.7933C17.9464-80.7933 12.4609-75.3513 12.4609-64.9145L12.4609-5.51989C12.4609 4.91683 17.9464 10.3589 28.47 10.3589Z"/>
</svg>