<svg xmlns="http://www.w3.org/2000/svg" viewBox="12.4609 -79.8912 116.06 89.28">
  <path d="M51.0999 9.39051L89.8764 9.39051C118.46 9.39051 128.524-1.0272 128.524-27.9513L128.524-42.5494C128.524-69.4735 118.46-79.8912 89.8764-79.8912L51.0999-79.8912C22.525-79.8912 12.4609-69.4735 12.4609-42.5494L12.4609-27.9513C12.4609-1.0272 22.525 9.39051 51.0999 9.39051ZM51.0999-0.213592C29.1226-0.213592 22.0216-7.25514 22.0216-27.9513L22.0216-42.5494C22.0216-63.2456 29.1226-70.2871 51.0999-70.2871L89.8764-70.2871C111.854-70.2871 118.92-63.2456 118.92-42.5494L118.92-27.9513C118.92-7.25514 111.854-0.213592 89.8764-0.213592ZM47.5134-15.1379C49.8761-15.1379 51.263-16.6715 51.263-19.0777L51.263-30.3975L55.3468-30.3975L60.0348-18.2484C60.7863-16.2566 61.9388-15.1379 63.989-15.1379C65.7672-15.1379 67.5443-16.2578 67.5237-18.8023C67.5135-19.4354 67.2237-20.3525 66.8163-21.4325L62.4724-32.0021C66.2109-34.0332 67.7801-38.2211 67.7801-42.4712C67.7801-50.441 63.1036-54.6173 55.5016-54.6173L47.4613-54.6173C45.0363-54.6173 43.7015-53.1545 43.7015-50.7209L43.7015-19.0777C43.7015-16.7047 45.0535-15.1379 47.5134-15.1379ZM51.263-35.8474L51.263-48.7401L54.8039-48.7401C58.3184-48.7401 60.1341-45.9192 60.1341-42.345C60.1341-38.6973 58.5187-35.8474 54.8022-35.8474ZM90.611-15.1469C92.5497-15.1469 94.1371-16.3344 94.1371-18.8308L94.1371-23.2333L95.6329-23.2333C97.6403-23.2333 98.5272-24.5469 98.5272-26.2264C98.5272-27.9361 97.6483-29.211 95.6432-29.211L94.1371-29.211L94.1371-49.7706C94.1371-53.345 91.8073-55.2825 88.3967-55.2825C84.541-55.2825 82.9096-53.0348 81.4707-49.7281L73.6164-32.2614C72.8438-30.3545 72.5289-28.9825 72.5289-27.4174C72.5289-24.8734 74.1895-23.2333 76.7901-23.2333L87.0242-23.2333L87.0242-18.8308C87.0242-16.1641 88.9069-15.1469 90.611-15.1469ZM87.2058-29.0293L78.7992-29.0293L78.7992-29.3687L87.0189-48.9724L87.2058-48.9724Z"/>
</svg>