<svg xmlns="http://www.w3.org/2000/svg" viewBox="12.4609 -88.9811 111.91 107.44">
  <path d="M19.7205 5.83682L117.428 5.83682L117.428 2.1781C117.428 0.0526297 116.156-1.20037 113.998-1.20037L111.17-1.20037L111.17-54.0678L115.359-54.0678C118.357-54.0678 120.11-56.2652 120.11-58.4781C120.11-60.1048 119.163-61.5526 117.224-62.7417L74.8484-87.1711C72.8618-88.3427 70.6541-88.9811 68.5743-88.9811C66.4512-88.9811 64.2349-88.3427 62.2483-87.1711L19.873-62.7417C17.8984-61.5526 16.9951-60.1048 16.9951-58.4781C16.9951-56.2652 18.7394-54.0678 21.7465-54.0678L25.9784-54.0678L25.9784-1.20037L23.151-1.20037C20.9924-1.20037 19.7205 0.0526297 19.7205 2.1781ZM34.1103-1.20037L34.1103-60.6135L66.8415-78.9418C67.3677-79.2569 67.9979-79.4404 68.5743-79.4404C69.1177-79.4404 69.729-79.2569 70.2551-78.9418L103.082-60.6135L103.082-1.20037ZM16.8816 18.4598L119.936 18.4598C122.322 18.4598 124.367 16.456 124.367 13.9957C124.367 11.5908 122.322 9.5751 119.936 9.5751L16.8816 9.5751C14.487 9.5751 12.4609 11.5908 12.4609 13.9957C12.4609 16.4457 14.487 18.4598 16.8816 18.4598ZM50.5465-14.3908C52.2652-14.3908 53.2771-15.541 53.2771-17.3568L53.2771-51.3899L63.8004-51.3899C69.2767-51.3899 71.8231-49.9919 71.8231-43.8909L71.8231-30.1214C71.8231-28.3397 72.8556-27.1998 74.5543-27.1998C76.2359-27.1998 77.3119-28.3397 77.3119-30.1214L77.3119-45.1319C77.3119-53.4123 73.6676-57.3176 65.4507-57.3176L52.1684-57.3176C49.2905-57.3176 47.6958-55.8051 47.6958-52.9272L47.6958-17.3568C47.6958-15.5205 48.7512-14.3908 50.5465-14.3908ZM63.8394-14.8035L77.8452-14.8035C86.3073-14.8035 89.4094-19.281 89.4094-27.7431L89.4094-54.6774C89.4094-56.5435 88.3564-57.7388 86.6354-57.7388C84.8709-57.7388 83.7847-56.5435 83.7847-54.6774L83.7847-28.373C83.7847-22.324 82.5074-20.7414 76.4583-20.7414L65.2633-20.7414L65.2633-41.9622C65.2633-43.7557 64.3011-44.9162 62.5944-44.9162C60.8528-44.9162 59.7831-43.7557 59.7831-41.9622L59.7831-18.7324C59.7831-16.1469 61.4664-14.8035 63.8394-14.8035Z"/>
</svg>