<svg xmlns="http://www.w3.org/2000/svg" viewBox="15.2128 -84.5327 136.45 98.61">
  <path d="M68.634 8.45408C72.2346 8.45408 74.9086 5.78951 74.9086 2.17129L74.9086-72.368C74.9086-75.9428 72.2346-78.868 68.5472-78.868C66.0728-78.868 64.2727-77.8296 61.6123-75.3057L41.1747-56.1806C40.891-55.9073 40.5136-55.7307 40.083-55.7307L26.2452-55.7307C19.1061-55.7307 15.2128-51.786 15.2128-44.2046L15.2128-26.0798C15.2128-18.5505 19.1061-14.5624 26.2452-14.5624L40.0727-14.5624C40.5034-14.5624 40.8808-14.4411 41.1644-14.1678L61.6123 5.14379C64.0785 7.43855 66.1186 8.45408 68.634 8.45408ZM92.2394-13.588C94.2962-12.267 96.9975-12.7092 98.4905-14.8427C102.403-20.0993 104.756-27.5297 104.756-35.2606C104.756-42.9916 102.403-50.3786 98.4905-55.6889C96.9975-57.812 94.2962-58.2542 92.2394-56.8899C89.9084-55.3329 89.4456-52.4951 91.3178-49.7454C94.04-45.9274 95.5252-40.721 95.5252-35.2606C95.5252-29.8003 93.9965-24.6373 91.3178-20.7759C89.489-17.9828 89.9084-15.1884 92.2394-13.588ZM111.788-0.568262C113.985 0.80871 116.674 0.331686 118.187-1.9234C124.539-10.878 128.253-22.9193 128.253-35.2606C128.253-47.6019 124.583-59.7301 118.187-68.5979C116.674-70.853 113.985-71.33 111.788-69.953C109.486-68.5058 109.134-65.6606 110.836-63.1062C116.078-55.5156 119.032-45.564 119.032-35.2606C119.032-24.9573 115.991-15.0492 110.836-7.41506C109.178-4.86066 109.486-2.0155 111.788-0.568262ZM131.404 12.6321C133.545 14.0731 136.404 13.4595 137.89 11.1215C146.524-1.7163 151.661-17.7038 151.661-35.2298C151.661-52.7558 146.394-68.6999 137.89-81.5811C136.404-83.9625 133.545-84.5327 131.404-83.0917C129.152-81.6199 128.794-78.7884 130.414-76.2546C137.871-64.917 142.517-50.811 142.517-35.2298C142.517-19.692 137.871-5.49916 130.414 5.79493C128.794 8.32879 129.152 11.1603 131.404 12.6321Z" />
</svg>