<svg xmlns="http://www.w3.org/2000/svg" viewBox="12.4609 -80.7658 91.11 91.15">
  <path d="M51.4209-35.1897L13.9305-72.6716C12.9281-70.5304 12.4609-67.9495 12.4609-64.8871L12.4609-5.49242C12.4609-2.43003 12.9281 0.15091 13.9305 2.29214ZM58.037-41.8058L95.4669-79.2877C93.3343-80.2552 90.7099-80.7658 87.5607-80.7658L28.47-80.7658C25.3642-80.7658 22.7398-80.2552 20.5552-79.2963ZM64.6531-35.1897L102.092 2.28354C103.103 0.15091 103.57-2.43863 103.57-5.49242L103.57-64.8871C103.57-67.9409 103.103-70.5304 102.092-72.663ZM58.037-28.5736L20.5552 8.91684C22.7398 9.87575 25.3642 10.3864 28.47 10.3864L87.5607 10.3864C90.7099 10.3864 93.3343 9.87575 95.4669 8.90823Z"/>
</svg>