<svg xmlns="http://www.w3.org/2000/svg" viewBox="8.72266 -84.8664 119.15 99.21">
  <path d="M8.72266-25.3626C8.72266-10.7187 14.0024 2.68431 22.7345 13.0642C23.805 14.3319 25.5602 14.3336 26.7639 13.1282L38.5321 1.35828C39.4272 0.506593 39.4706-0.697724 38.667-1.6843C33.374-8.43356 30.3731-16.5554 30.3731-25.3626C30.3731-44.6861 44.8215-60.6451 63.4911-63.0416C64.9109-63.1971 65.9174-64.2745 65.9174-65.6856L65.9174-81.9423C65.9174-83.6335 64.6308-84.8664 62.9396-84.7126C32.5897-82.0155 8.72266-56.4824 8.72266-25.3626ZM127.872-25.3626C127.872-56.4824 104.068-82.0155 73.6555-84.7126C71.9643-84.8664 70.6777-83.6335 70.6777-81.9423L70.6777-65.6856C70.6777-64.2745 71.6842-63.1971 73.1126-63.0416C91.7736-60.6451 106.265-44.6861 106.265-25.3626C106.265-16.5554 103.265-8.43356 97.9179-1.67402C97.1576-0.687447 97.2011 0.51687 98.0528 1.36855L109.83 13.1385C111.033 14.3438 112.797 14.3336 113.876 13.0573C122.645 2.66711 127.872-10.7273 127.872-25.3626ZM52.9817-3.52503L81.2532-3.52503C83.0137-3.52503 84.2799-4.65636 84.2799-6.30372C84.2799-8.02009 82.952-9.15205 81.2532-9.15205L60.0071-9.15205L60.0071-9.3419C63.671-10.8722 65.3159-15.0639 65.3159-19.1521C65.3159-20.5589 65.2208-21.8015 64.9697-22.8966L76.918-22.8966C78.2558-22.8966 79.1975-23.8263 79.1975-24.9858C79.1975-26.1973 78.2038-27.075 76.918-27.075L63.8491-27.075C63.2254-29.6369 63.0548-31.0577 63.0548-32.7064C63.0548-37.9956 67.1542-40.8986 73.0148-40.8986C74.9912-40.8986 76.6078-40.6511 77.8377-40.3884C78.659-40.2135 79.4505-40.0557 80.1237-40.0557C81.6511-40.0557 82.6041-40.9271 82.6041-42.3962C82.6041-44.036 81.3895-44.9147 79.8443-45.3903C77.3202-46.2741 75.3752-46.5389 72.1414-46.5389C62.9137-46.5389 56.1708-41.6299 56.1708-32.9448C56.1708-31.0782 56.4505-29.2894 57.0947-27.075L52.1795-27.075C50.8921-27.075 49.9001-26.1555 49.9001-24.9858C49.9001-23.8161 50.8921-22.8966 52.1795-22.8966L58.1703-22.8966C58.5185-21.5105 58.7176-20.1434 58.7176-18.879C58.7176-14.5703 56.586-11.2209 52.5607-9.61608C51.1549-8.9939 50.071-7.979 50.071-6.38029C50.071-4.66328 51.316-3.52503 52.9817-3.52503Z"/>
</svg>