<svg xmlns="http://www.w3.org/2000/svg" viewBox="-2.49219 -94.6177 122.01 118.71">
  <path d="M114.685-1.94998C117.382-1.94998 119.515-4.03075 119.515-6.73032C119.515-9.48192 117.382-11.5541 114.685-11.5541L27.7268-11.5541C23.8962-11.5541 21.949-13.5361 21.949-17.3839L21.949-66.7102C21.949-76.1825 17.3085-80.7276 7.75789-80.7276L2.28815-80.7276C-0.313679-80.7276-2.49219-78.5491-2.49219-75.9472C-2.49219-73.3106-0.313679-71.1669 2.28815-71.1669L6.6019-71.1669C10.3891-71.1669 12.3883-69.1415 12.3883-65.3022L12.3883-15.9674C12.3883-6.50361 17.0288-1.94998 26.536-1.94998ZM97.4871 24.0964C102.589 24.0964 106.884 19.7923 106.884 14.6557C106.884 9.49154 102.589 5.19611 97.4871 5.19611C92.3504 5.19611 88.0898 9.49154 88.0898 14.6557C88.0898 19.7923 92.3504 24.0964 97.4871 24.0964ZM45.1511 24.0964C50.253 24.0964 54.5484 19.7923 54.5484 14.6557C54.5484 9.49154 50.253 5.19611 45.1511 5.19611C40.0145 5.19611 35.7539 9.49154 35.7539 14.6557C35.7539 19.7923 40.0145 24.0964 45.1511 24.0964ZM108.026-19.3728C115.338-19.3728 119.507-23.3323 119.507-30.3234L119.507-69.4016C119.507-76.4012 115.338-80.3608 108.026-80.3608L41.7257-80.3608C34.37-80.3608 30.2019-76.4012 30.2019-69.4016L30.2019-30.3234C30.2019-23.3323 34.37-19.3728 41.7257-19.3728ZM107.787-27.3319L41.9644-27.3319C39.6773-27.3319 38.3941-28.4935 38.3941-30.5634L38.3941-69.1616C38.3941-71.2315 39.6773-72.4017 41.9644-72.4017L107.787-72.4017C110.031-72.4017 111.314-71.2315 111.314-69.1616L111.314-30.5634C111.314-28.4935 110.031-27.3319 107.787-27.3319ZM102.946-22.777L102.946-74.7467L94.9516-74.7467L94.9516-22.777ZM54.7569-22.777L54.7569-76.3883L46.7623-76.3883L46.7623-22.777ZM94.936-76.4335L94.936-83.5916C94.936-90.7164 90.9164-94.6177 83.4527-94.6177L66.2557-94.6177C58.6617-94.6177 54.8072-90.8901 54.8072-83.5916L54.8072-76.5203L62.4431-76.5203L62.4431-83.9081C62.4431-86.2498 63.7886-87.5318 66.2853-87.5318L83.4231-87.5318C85.9718-87.5318 87.3002-86.2498 87.3002-83.9081L87.3002-76.4335Z"/>
</svg>