<svg xmlns="http://www.w3.org/2000/svg" viewBox="12.4609 -94.4066 112.65 121.22">
  <path d="M95.2534-38.166C95.2534-52.6763 83.2827-64.699 68.7844-64.699C54.2861-64.699 42.3154-52.6763 42.3154-38.166C42.3154-34.9171 42.9623-31.7735 44.1235-28.9606L93.4453-28.9606C94.6064-31.7735 95.2534-34.9171 95.2534-38.166ZM17.1524-35.2027L28.4655-35.2027C31.1144-35.2027 33.2004-37.1133 33.157-39.5348C33.1136-41.8956 31.1144-43.8669 28.4655-43.8669L17.1524-43.8669C14.479-43.8669 12.4609-41.9042 12.4609-39.5348C12.4609-37.1219 14.4893-35.2027 17.1524-35.2027ZM43.5824-63.2851C45.2491-64.9432 45.2389-67.7972 43.3202-69.6638L35.307-77.6668C33.4129-79.6043 30.6646-79.5105 28.9717-77.8959C27.253-76.2292 27.2444-73.4444 29.1905-71.5069L37.2037-63.5142C39.0703-61.639 41.9158-61.575 43.5824-63.2851ZM68.7844-73.7105C71.1538-73.754 73.1165-75.7286 73.1165-78.3934L73.1165-89.7151C73.1165-92.3988 71.1538-94.4066 68.7844-94.4066C66.4149-94.4066 64.4522-92.3988 64.4522-89.7151L64.4522-78.3934C64.4522-75.7286 66.4149-73.6671 68.7844-73.7105ZM93.9863-63.2851C95.6964-61.6184 98.4984-61.639 100.365-63.5142L108.378-71.5069C110.324-73.4444 110.272-76.1857 108.597-77.8959C106.939-79.5539 104.156-79.6043 102.262-77.6668L94.2485-69.6638C92.3299-67.7972 92.2762-64.8997 93.9863-63.2851ZM109.103-35.2027L120.416-35.2027C123.109-35.1941 125.108-37.1133 125.108-39.5348C125.108-41.8956 123.109-43.8583 120.416-43.8669L109.103-43.8669C106.473-43.8669 104.368-41.9042 104.412-39.5348C104.455-37.1219 106.484-35.2027 109.103-35.2027ZM19.4002-16.3336L118.036-16.3336C119.908-16.3336 121.366-17.7341 121.366-19.6191C121.366-21.4522 119.908-22.9047 118.036-22.9047L19.4002-22.9047C17.5277-22.9047 16.0706-21.4522 16.0706-19.6191C16.0706-17.7341 17.5277-16.3336 19.4002-16.3336ZM41.7441 8.49318C42.7437 8.49318 43.4169 7.59533 43.3324 6.58546L42.9107 1.93401L46.7231 4.6645C47.5427 5.19313 48.6537 5.04229 49.1743 4.22102C49.6967 3.40835 49.3686 2.20883 48.3342 1.75214L44.1602-0.17617L48.3879-2.21881C49.3789-2.6755 49.6635-3.75041 49.228-4.58028C48.7508-5.43471 47.5324-5.6061 46.7128-5.03404L42.921-2.32578L43.3758-6.9464C43.5038-7.9997 42.7437-8.84552 41.7441-8.84552C40.6577-8.84552 39.9742-7.9997 40.0588-6.9464L40.4599-2.32578L36.6349-5.04432C35.8588-5.6061 34.7272-5.47813 34.2152-4.58028C33.7379-3.75041 33.9877-2.6669 35.0136-2.21881L39.2167-0.186447L35.0033 1.77102C33.9791 2.22771 33.6945 3.36492 34.1734 4.22102C34.6506 5.09432 35.8588 5.24516 36.6349 4.6731L40.4599 2.00659L40.1022 6.58546C40.0177 7.59533 40.6577 8.49318 41.7441 8.49318ZM68.7844 8.49318C69.784 8.49318 70.4571 7.59533 70.3726 6.58546L69.951 1.93401L73.7633 4.6645C74.5829 5.19313 75.6939 5.04229 76.2146 4.22102C76.7369 3.40835 76.4088 2.20883 75.3744 1.75214L71.2004-0.17617L75.4281-2.21881C76.4191-2.6755 76.7037-3.75041 76.2683-4.58028C75.791-5.43471 74.5726-5.6061 73.753-5.03404L69.9612-2.32578L70.416-6.9464C70.544-7.9997 69.784-8.84552 68.7844-8.84552C67.6979-8.84552 67.0145-7.9997 67.099-6.9464L67.5001-2.32578L63.6752-5.04432C62.899-5.6061 61.7675-5.47813 61.2554-4.58028C60.7781-3.75041 61.028-2.6669 62.0538-2.21881L66.2569-0.186447L62.0435 1.77102C61.0194 2.22771 60.7347 3.36492 61.2136 4.22102C61.6909 5.09432 62.899 5.24516 63.6752 4.6731L67.5001 2.00659L67.1424 6.58546C67.0579 7.59533 67.6979 8.49318 68.7844 8.49318ZM95.8246 8.49318C96.8242 8.49318 97.4974 7.59533 97.4128 6.58546L96.9912 1.93401L100.804 4.6645C101.623 5.19313 102.734 5.04229 103.255 4.22102C103.777 3.40835 103.449 2.20883 102.415 1.75214L98.2406-0.17617L102.468-2.21881C103.459-2.6755 103.744-3.75041 103.308-4.58028C102.831-5.43471 101.613-5.6061 100.793-5.03404L97.0015-2.32578L97.4563-6.9464C97.5842-7.9997 96.8242-8.84552 95.8246-8.84552C94.7382-8.84552 94.0547-7.9997 94.1392-6.9464L94.5403-2.32578L90.7154-5.04432C89.9392-5.6061 88.8077-5.47813 88.2956-4.58028C87.8184-3.75041 88.0682-2.6669 89.094-2.21881L93.2972-0.186447L89.0837 1.77102C88.0596 2.22771 87.775 3.36492 88.2539 4.22102C88.7311 5.09432 89.9392 5.24516 90.7154 4.6731L94.5403 2.00659L94.1827 6.58546C94.0981 7.59533 94.7382 8.49318 95.8246 8.49318ZM31.1523 26.8108C32.1519 26.8108 32.8251 25.9129 32.7406 24.903L32.3189 20.2516L36.1313 22.9821C36.9509 23.5107 38.0619 23.3599 38.5825 22.5386C39.1049 21.7259 38.7768 20.5264 37.7424 20.0697L33.5684 18.1414L37.7961 16.0988C38.7871 15.6421 39.0717 14.5672 38.6362 13.7373C38.159 12.8829 36.9406 12.7115 36.121 13.2835L32.3292 15.9918L32.784 11.3712C32.912 10.3179 32.1519 9.47206 31.1523 9.47206C30.0659 9.47206 29.3824 10.3179 29.467 11.3712L29.8681 15.9918L26.0431 13.2733C25.267 12.7115 24.1354 12.8394 23.6234 13.7373C23.1461 14.5672 23.3959 15.6507 24.4218 16.0988L28.6249 18.1311L24.4115 20.0886C23.3873 20.5453 23.1027 21.6825 23.5816 22.5386C24.0589 23.4119 25.267 23.5627 26.0431 22.9907L29.8681 20.3242L29.5104 24.903C29.4259 25.9129 30.0659 26.8108 31.1523 26.8108ZM58.1926 26.8108C59.1922 26.8108 59.8653 25.9129 59.7808 24.903L59.3592 20.2516L63.1715 22.9821C63.9911 23.5107 65.1021 23.3599 65.6228 22.5386C66.1451 21.7259 65.817 20.5264 64.7826 20.0697L60.6086 18.1414L64.8363 16.0988C65.8273 15.6421 66.112 14.5672 65.6765 13.7373C65.1992 12.8829 63.9808 12.7115 63.1612 13.2835L59.3694 15.9918L59.8242 11.3712C59.9522 10.3179 59.1922 9.47206 58.1926 9.47206C57.1061 9.47206 56.4227 10.3179 56.5072 11.3712L56.9083 15.9918L53.0834 13.2733C52.3072 12.7115 51.1757 12.8394 50.6636 13.7373C50.1864 14.5672 50.4362 15.6507 51.462 16.0988L55.6651 18.1311L51.4517 20.0886C50.4276 20.5453 50.1429 21.6825 50.6218 22.5386C51.0991 23.4119 52.3072 23.5627 53.0834 22.9907L56.9083 20.3242L56.5506 24.903C56.4661 25.9129 57.1061 26.8108 58.1926 26.8108ZM85.2328 26.8108C86.2324 26.8108 86.9056 25.9129 86.821 24.903L86.3994 20.2516L90.2117 22.9821C91.0313 23.5107 92.1423 23.3599 92.663 22.5386C93.1853 21.7259 92.8573 20.5264 91.8228 20.0697L87.6488 18.1414L91.8765 16.0988C92.8675 15.6421 93.1522 14.5672 92.7167 13.7373C92.2395 12.8829 91.0211 12.7115 90.2015 13.2835L86.4097 15.9918L86.8645 11.3712C86.9924 10.3179 86.2324 9.47206 85.2328 9.47206C84.1464 9.47206 83.4629 10.3179 83.5475 11.3712L83.9485 15.9918L80.1236 13.2733C79.3474 12.7115 78.2159 12.8394 77.7038 13.7373C77.2266 14.5672 77.4764 15.6507 78.5022 16.0988L82.7054 18.1311L78.492 20.0886C77.4678 20.5453 77.1832 21.6825 77.6621 22.5386C78.1393 23.4119 79.3474 23.5627 80.1236 22.9907L83.9485 20.3242L83.5909 24.903C83.5063 25.9129 84.1464 26.8108 85.2328 26.8108Z"/>
</svg>