<svg xmlns="http://www.w3.org/2000/svg" viewBox="8.72266 -85.6724 100.87 100.82">
  <path d="M59.1344 15.1511C86.9881 15.1511 109.59-7.40694 109.59-35.2606C109.59-63.1144 86.9881-85.6724 59.1344-85.6724C31.3241-85.6724 8.72266-63.1144 8.72266-35.2606C8.72266-7.40694 31.3241 15.1511 59.1344 15.1511ZM59.1344 5.24301C36.7449 5.24301 18.6656-12.8711 18.6656-35.2606C18.6656-57.6501 36.7449-75.7643 59.1344-75.7643C81.5239-75.7643 99.6381-57.6501 99.6381-35.2606C99.6381-12.8711 81.5239 5.24301 59.1344 5.24301ZM47.6507-15.486L86.4166-15.486C89.2614-15.486 90.1324-18.0747 89.0477-20.2356L70.0837-58.2415C69.3979-59.5245 68.3452-60.264 67.0502-60.264C65.8192-60.264 64.6711-59.5679 64.0722-58.2849L45.0545-20.2356C43.9452-18.0747 44.8682-15.486 47.6507-15.486ZM56.1905-19.3652L65.5793-39.2347C66.145-40.588 67.8457-40.588 68.5852-39.2347L77.8768-19.3652L70.5062-19.3652L67.0502-34.4601L63.5595-19.3652ZM45.6805-26.7084L43.2917-37.2024L40.8303-26.7084L35.6042-26.7084L42.2413-40.7366C42.7156-41.8446 43.9649-41.6275 44.3752-40.7366L50.3221-28.0643L54.8248-36.8853L45.8833-54.7056C45.3033-55.7686 44.3563-56.4994 43.2917-56.4994C42.1648-56.4994 41.183-55.7686 40.6566-54.7056L26.8233-26.9833C25.882-25.0453 26.7066-22.8292 29.1183-22.8292L47.6906-22.8292L49.613-26.7084Z" />
</svg>