<svg xmlns="http://www.w3.org/2000/svg" viewBox="12.4609 -78.2042 100.65 85.92">
  <path d="M17.0357-68.9519L108.491-68.9519C111.042-68.9519 113.109-71.0475 113.109-73.578C113.109-76.1394 111.053-78.2042 108.491-78.2042L17.0357-78.2042C14.476-78.2042 12.4609-76.1188 12.4609-73.578C12.4609-71.0681 14.4863-68.9519 17.0357-68.9519ZM18.7944-39.6776L106.786-39.6776C110.961-39.6776 113.109-41.7823 113.109-45.9574L113.109-50.1523C113.109-54.2405 110.961-56.3886 106.786-56.3886L18.7944-56.3886C14.6194-56.3886 12.4712-54.2405 12.4712-50.1523L12.4712-45.9574C12.4712-41.7823 14.6194-39.6776 18.7944-39.6776ZM18.7944-14.1327L55.3269-14.1327C59.502-14.1327 61.6415-16.2374 61.6415-20.4125L61.6415-24.6073C61.6415-28.6955 59.502-30.8437 55.3269-30.8437L18.7944-30.8437C14.6194-30.8437 12.4712-28.6955 12.4712-24.6073L12.4712-20.4125C12.4712-16.2374 14.6194-14.1327 18.7944-14.1327ZM72.6269-17.862L108.491-17.862C111.042-17.862 113.109-19.9577 113.109-22.4882C113.109-25.0495 111.053-27.1144 108.491-27.1144L72.6269-27.1144C70.0323-27.1144 68.0521-25.029 68.0521-22.4882C68.0521-19.9782 70.0426-17.862 72.6269-17.862ZM17.0357 7.71732L108.491 7.71732C111.042 7.71732 113.109 5.6651 113.109 3.09114C113.109 0.529783 111.053-1.53503 108.491-1.53503L17.0357-1.53503C14.476-1.53503 12.4609 0.550338 12.4609 3.09114C12.4609 5.64454 14.4863 7.71732 17.0357 7.71732Z" />
</svg>