<svg xmlns="http://www.w3.org/2000/svg" viewBox="8.72266 -93.1684 93.57 112.86">
  <path d="M35.4117 19.6886C50.1023 19.6886 62.0368 7.83798 62.0368-6.84568C62.0368-14.4338 58.9646-21.0549 53.1445-26.399C52.0891-27.368 51.8952-27.9078 51.8952-29.3177L51.9387-72.376C51.9387-83.0483 45.2079-90.2516 35.4117-90.2516C25.5413-90.2516 18.8208-83.0483 18.8208-72.376L18.8208-29.3177C18.8208-27.9078 18.627-27.3577 17.615-26.399C11.7641-21.096 8.72266-14.4338 8.72266-6.84568C8.72266 7.83798 20.6572 19.6886 35.4117 19.6886ZM35.4117 11.327C25.3005 11.327 17.1466 3.11071 17.1466-6.94846C17.1466-13.1103 20.0336-18.5162 25.2011-21.9735C26.6857-22.9597 27.2637-23.8712 27.2637-25.8457L27.2637-72.0538C27.2637-77.9153 30.5771-81.8191 35.4117-81.8191C40.1823-81.8191 43.4524-77.9153 43.4524-72.0538L43.4524-25.8457C43.4524-23.8712 44.0738-22.9597 45.5584-21.9735C50.6825-18.5162 53.6129-13.1103 53.6129-6.94846C53.6129 3.11071 45.4589 11.327 35.4117 11.327ZM35.358 4.73126C41.8539 4.73126 47.0623-0.485763 47.0623-6.99188C47.0623-11.5064 44.503-15.2388 40.8054-17.239C39.2151-18.1182 38.6994-18.7047 38.6994-21.0251L38.6994-31.0897C38.6994-33.4315 37.232-34.9247 35.358-34.9247C33.5275-34.9247 32.0601-33.4315 32.0601-31.0897L32.0601-21.0251C32.0601-18.7047 31.5444-18.1182 29.9541-17.239C26.2131-15.2388 23.6972-11.5064 23.6972-6.99188C23.6972-0.485763 28.9056 4.73126 35.358 4.73126ZM69.3933-19.251C71.1693-19.251 72.3716-20.4618 72.3716-22.2726L72.3716-40.0486L71.2276-56.1837L72.3716-72.3708L72.3716-90.1467C72.3716-91.9141 71.1693-93.1684 69.3933-93.1336C67.6694-93.1336 66.4672-91.9141 66.4672-90.1467L66.4672-72.4142L67.5676-56.1837L66.4672-40.0051L66.4672-22.2726C66.4672-20.5052 67.6694-19.251 69.3933-19.251ZM57.8918-59.8895L68.5196-54.6974L81.9194-45.5956L97.3836-36.6902C98.9189-35.8268 100.562-36.2348 101.417-37.8136C102.297-39.3039 101.81-40.9055 100.32-41.7763L84.8976-50.6555L70.3539-57.7654L57.8918-66.0905ZM57.8918-46.362L70.3105-54.654L84.8976-61.7204L100.32-70.643C101.845-71.5138 102.297-73.1675 101.374-74.7115C100.529-76.1845 98.8841-76.584 97.3836-75.748L81.9628-66.8237L68.5196-57.7654L57.8918-52.5196ZM81.7438-85.3593C80.9718-86.661 79.45-86.9845 78.154-86.237L69.4368-81.2413L60.6847-86.237C59.3801-86.9845 57.8584-86.661 57.0864-85.3593C56.3161-84.0335 56.799-82.5187 58.1195-81.7278L67.1871-76.5286C67.8848-76.1269 68.6436-75.924 69.4368-75.924C70.1779-75.924 71.0059-76.1355 71.6951-76.5286L80.754-81.7278C82.0398-82.5187 82.5227-84.0335 81.7438-85.3593ZM100.83-60.1061C101.591-61.3975 101.099-62.9296 99.8136-63.6319L91.1312-68.7522L91.0878-78.754C91.0878-80.3168 90.0301-81.5077 88.514-81.4643C86.9631-81.5077 85.8186-80.3168 85.8186-78.754L85.862-68.3105C85.8968-67.4984 86.1043-66.7658 86.5306-66.0973C86.9237-65.427 87.4746-64.7601 88.1117-64.419L97.1878-59.1575C98.4129-58.3855 100.084-58.7283 100.83-60.1061ZM100.83-52.3235C100.094-53.691 98.4232-54.0338 97.1878-53.2618L88.1219-48.0437C87.4849-47.6592 86.9237-47.0357 86.5408-46.3655C86.1043-45.6969 85.9071-44.9209 85.8723-44.1089L85.8288-33.6654C85.8288-32.1894 86.9734-30.955 88.5243-30.955C90.0301-30.955 91.0878-32.1894 91.0878-33.6654L91.1312-43.7105L99.8239-48.7875C101.118-49.5246 101.602-51.0218 100.83-52.3235ZM57.0864-27.06C57.8584-25.7686 59.3887-25.4263 60.6933-26.1823L69.4368-31.1449L78.1454-26.1823C79.4414-25.4263 80.9718-25.7686 81.7438-27.06C82.5227-28.4293 82.0398-29.9441 80.754-30.6915L71.6951-35.8907C70.9539-36.2924 70.1865-36.5056 69.4368-36.5056C68.6522-36.5056 67.8762-36.2838 67.1871-35.8907L58.1195-30.6915C56.799-29.9441 56.3161-28.4293 57.0864-27.06Z"/>
</svg>