<svg xmlns="http://www.w3.org/2000/svg" viewBox="8.72266 -85.6724 100.87 100.82">
  <path d="M59.1344 15.1511C86.9881 15.1511 109.59-7.40694 109.59-35.2606C109.59-63.1144 86.9881-85.6724 59.1344-85.6724C31.3241-85.6724 8.72266-63.1144 8.72266-35.2606C8.72266-7.40694 31.3241 15.1511 59.1344 15.1511ZM59.1344 5.24301C36.7449 5.24301 18.6656-12.8711 18.6656-35.2606C18.6656-57.6501 36.7449-75.7643 59.1344-75.7643C81.5239-75.7643 99.6381-57.6501 99.6381-35.2606C99.6381-12.8711 81.5239 5.24301 59.1344 5.24301ZM46.6245-6.62954C54.1947-6.62954 60.2506-12.6546 60.2506-20.1973C60.2506-24.1076 58.6489-27.5595 55.6438-30.2529C55.1921-30.6874 55.0864-30.9697 55.0864-31.6775L55.1298-54.2887C55.1298-59.7383 51.6376-63.4609 46.6245-63.4609C41.5766-63.4609 38.1365-59.7383 38.1365-54.2887L38.1365-31.6775C38.1365-30.9611 38.0656-30.6976 37.5168-30.2529C34.5117-27.5801 32.962-24.1076 32.962-20.1973C32.962-12.6546 39.0282-6.62954 46.6245-6.62954ZM46.6143-10.9822C41.478-10.9822 37.3667-15.0918 37.3667-20.2487C37.3667-23.4183 38.8402-26.1421 41.4195-27.8696C42.233-28.3905 42.5063-28.9007 42.5063-29.9634L42.5063-54.1276C42.5063-57.0966 44.163-58.9939 46.6143-58.9939C49.0062-58.9939 50.6526-57.0966 50.6526-54.1276L50.6526-29.9634C50.6526-28.9007 50.9276-28.3905 51.7497-27.8696C54.3638-26.1421 55.8459-23.4183 55.8459-20.2487C55.8459-15.0918 51.726-10.9822 46.6143-10.9822ZM46.6229-52.2641C47.6126-52.2641 48.4085-53.06 48.4085-54.1018C48.4085-55.0395 47.6126-55.8788 46.6229-55.8788C45.6331-55.8788 44.7938-55.0395 44.7938-54.1018C44.7938-53.06 45.6331-52.2641 46.6229-52.2641ZM46.6229-45.8846C47.6126-45.8846 48.4085-46.6806 48.4085-47.7223C48.4085-48.66 47.6126-49.4994 46.6229-49.4994C45.6331-49.4994 44.7938-48.66 44.7938-47.7223C44.7938-46.6806 45.6331-45.8846 46.6229-45.8846ZM46.6229-39.5486C47.6126-39.5486 48.4085-40.388 48.4085-41.3777C48.4085-42.3675 47.6126-43.1634 46.6229-43.1634C45.6331-43.1634 44.7938-42.3675 44.7938-41.3777C44.7938-40.388 45.6331-39.5486 46.6229-39.5486ZM46.5708-14.1428C49.9943-14.1428 52.7099-16.9121 52.7099-20.2921C52.7099-22.6458 51.3841-24.5479 49.4094-25.609C48.6565-26.0435 48.4085-26.3275 48.4085-27.4891L48.4085-35.0069C48.4085-35.9966 47.6126-36.7926 46.6229-36.7926C45.6331-36.7926 44.7938-35.9966 44.7938-35.0069L44.7938-27.4891C44.7938-26.3275 44.5372-26.0435 43.7306-25.609C41.8285-24.6 40.4924-22.6458 40.4924-20.2921C40.4924-16.8687 43.1995-14.1428 46.5708-14.1428ZM72.9347-53.434C76.0347-53.434 78.5321-55.956 78.5321-59.0662C78.5321-62.1575 76.0347-64.6361 72.9347-64.6361C69.8434-64.6361 67.3546-62.1575 67.3546-59.0662C67.3546-55.956 69.8434-53.434 72.9347-53.434ZM76.3015-7.81104C77.7259-7.81104 78.856-8.8891 78.856-10.3655L78.856-40.0342C78.856-40.4846 79.1904-40.8711 79.6494-40.8711C80.0564-40.8711 80.4428-40.4846 80.4428-40.0342L80.4428-30.2609C80.4428-29.0063 81.5036-27.9368 82.7686-27.9368C84.025-27.9368 85.0739-29.0063 85.0739-30.2609L85.0739-41.2306C85.0739-46.8594 80.8856-50.5705 74.8198-50.5705L71.0496-50.5705C65.0359-50.5705 60.8042-46.8594 60.8042-41.2306L60.8042-30.2609C60.8042-29.0063 61.8633-27.9368 63.1197-27.9368C64.3847-27.9368 65.4353-29.0063 65.4353-30.2609L65.4353-40.0342C65.4353-40.4846 65.832-40.8711 66.2201-40.8711C66.6791-40.8711 67.0237-40.4846 67.0237-40.0342L67.0237-10.3655C67.0237-8.8891 68.1538-7.81104 69.5782-7.81104C71.001-7.81104 72.0893-8.89938 72.0893-10.3655L72.0893-28.426C72.0893-28.8764 72.486-29.2297 72.9347-29.2297C73.3937-29.2297 73.7904-28.8764 73.7904-28.426L73.7904-10.3655C73.7904-8.89938 74.8685-7.81104 76.3015-7.81104Z" />
</svg>