<svg xmlns="http://www.w3.org/2000/svg" viewBox="8.72266 -85.6621 100.87 100.82">
  <path d="M59.1344 15.1614C86.9881 15.1614 109.59-7.39666 109.59-35.2504C109.59-63.1041 86.9881-85.6621 59.1344-85.6621C31.3241-85.6621 8.72266-63.1041 8.72266-35.2504C8.72266-7.39666 31.3241 15.1614 59.1344 15.1614ZM59.143-0.19501C39.7771-0.19501 24.0774-15.8948 24.0774-35.2606C24.0774-54.6265 39.7771-70.3263 59.143-70.3263C78.5523-70.3263 94.2521-54.6265 94.2521-35.2606C94.2521-15.8948 78.5523-0.19501 59.143-0.19501ZM54.9037-64.4736C45.1237-63.1033 36.9085-56.8803 32.7271-48.4007L50.4215-41.8474C51.6995-43.6257 53.523-44.9364 55.6562-45.6467ZM30.0643-40.1731C29.7669-38.5949 29.6079-36.9269 29.6079-35.2606C29.6079-27.003 33.0386-19.4983 38.512-14.1484L50.1942-28.9515C48.913-30.7315 48.2564-32.7615 48.1662-35.0886ZM45.5009-9.10698C49.5637-6.9177 54.2253-5.68208 59.143-5.68208C64.1578-5.68208 68.8194-6.9177 72.8805-9.10698L62.3931-24.7772C61.3923-24.4691 60.2771-24.2752 59.143-24.2752C58.0192-24.2752 56.9908-24.4691 55.9363-24.7772ZM79.8711-14.1484C85.3359-19.4983 88.7216-27.003 88.7216-35.2606C88.7216-36.9269 88.6162-38.5949 88.2651-40.1731L70.1632-35.0886C70.1251-32.7701 69.4078-30.7315 68.189-28.9515ZM85.6126-48.4007C81.473-56.8803 73.2491-63.1033 63.4691-64.4736L62.7269-45.6467C64.8499-44.9364 66.6922-43.6257 67.9513-41.8474ZM59.143-30.416C61.858-30.416 64.0311-32.5457 64.0311-35.2606C64.0311-37.9756 61.858-40.1053 59.143-40.1053C56.4714-40.1053 54.2983-37.9756 54.2983-35.2606C54.2983-32.5457 56.4714-30.416 59.143-30.416Z"/>
</svg>