<svg xmlns="http://www.w3.org/2000/svg" viewBox="12.4609 -80.7933 91.11 91.15">
  <path d="M28.47 10.3589L87.5607 10.3589C98.1277 10.3589 103.57 4.89962 103.57-5.51989L103.57-64.9145C103.57-75.3341 98.1277-80.7933 87.5607-80.7933L28.47-80.7933C17.9464-80.7933 12.4609-75.3513 12.4609-64.9145L12.4609-5.51989C12.4609 4.91683 17.9464 10.3589 28.47 10.3589ZM45.6274-5.91402C41.9634-5.91402 39.857-7.86496 39.7119-11.5101L38.0059-50.2436L34.1673-50.2436C32.8445-50.2436 31.7308-51.2973 31.7513-52.6202C31.7719-53.9881 32.8445-55.075 34.1673-55.075L45.754-55.075L45.754-58.7712C45.754-63.0272 48.6162-65.7392 53.3083-65.7392L62.8926-65.7392C67.595-65.7392 70.5076-63.0272 70.5076-58.7712L70.5076-55.075L81.982-55.075C83.3688-55.075 84.4849-53.9881 84.4414-52.6202C84.398-51.2973 83.3688-50.2436 81.982-50.2436L78.3094-50.2436L76.6366-11.5101C76.4914-7.86496 74.2564-5.91402 70.669-5.91402ZM49.5539-13.6889C50.7066-13.6889 51.4335-14.4227 51.3712-15.4697L50.4774-44.2884C50.4585-45.3907 49.6812-46.0971 48.6011-46.0971C47.3946-46.0971 46.7059-45.3633 46.7248-44.2072L47.6789-15.4422C47.6978-14.4038 48.5258-13.6889 49.5539-13.6889ZM58.0895-13.6975C59.225-13.6975 60.0006-14.421 60.0006-15.4594L60.0006-44.2569C60.0006-45.3924 59.2422-46.0971 58.0895-46.0971C56.883-46.0971 56.1784-45.3924 56.1784-44.2569L56.1784-15.4594C56.1784-14.421 56.9002-13.6975 58.0895-13.6975ZM66.5713-13.6889C67.6429-13.6889 68.4274-14.4038 68.4463-15.4422L69.4004-44.2072C69.4627-45.3633 68.774-46.0971 67.5778-46.0971C66.444-46.0971 65.7102-45.3907 65.6913-44.2884L64.754-15.4697C64.7351-14.4227 65.4186-13.6889 66.5713-13.6889ZM51.2133-55.075L64.9378-55.075L64.9378-58.5591C64.9378-59.8083 64.0298-60.6699 62.6531-60.6699L53.4894-60.6699C52.1401-60.6699 51.2133-59.8083 51.2133-58.5591Z"/>
</svg>