<svg xmlns="http://www.w3.org/2000/svg" viewBox="8.72266 -85.6101 100.87 100.82">
  <path d="M59.1344 15.2134C86.9709 15.2134 109.59-7.40526 109.59-35.1983C109.59-62.9914 86.9709-85.6101 59.1344-85.6101C31.3413-85.6101 8.72266-62.9914 8.72266-35.1983C8.72266-7.40526 31.3413 15.2134 59.1344 15.2134ZM37.9807-14.745C32.6517-14.745 29.9095-17.4872 29.9095-22.7311L29.9095-36.5751C29.9095-39.2984 30.3112-40.4446 31.5592-42.0966L39.9854-53.2339C43.0228-57.2269 44.7135-58.3184 49.1365-58.3184L69.2192-58.3184C73.6856-58.3184 75.3328-57.2269 78.3702-53.2339L86.8399-42.0966C88.0879-40.4446 88.4896-39.2984 88.4896-36.5751L88.4896-22.7311C88.4896-17.4958 85.7474-14.745 80.3749-14.745ZM37.4695-38.4255L51.2188-38.4255C52.5588-38.4255 53.2708-37.3552 53.2708-36.3357L53.2708-35.6963C53.2708-32.2406 55.556-30.1212 59.1778-30.1212C62.8431-30.1212 65.1631-32.2406 65.1631-35.6963L65.1631-36.3357C65.1631-37.3552 65.7968-38.4255 67.1369-38.4255L80.9382-38.4255C81.7844-38.4255 81.9628-39.1992 81.5736-39.7043L72.9204-51.1959C72.0114-52.4376 70.9787-52.9847 69.3321-52.9847L49.0584-52.9847C47.4638-52.9847 46.4225-52.4811 45.4701-51.1959L36.8341-39.7043C36.4015-39.1123 36.5712-38.4255 37.4695-38.4255Z"/>
</svg>