<svg xmlns="http://www.w3.org/2000/svg" viewBox="12.4609 -107.832 188.87 113.69">
  <path d="M61.3646-5.32064L143.354-5.32064L143.354-14.7905L61.3646-14.7905ZM50.5232 5.86022C60.3148 5.86022 67.9877-1.85606 67.9877-11.6477C67.9877-21.4513 60.3148-29.1762 50.5232-29.1762C40.7299-29.1762 33.005-21.4513 33.005-11.6477C33.005-1.85606 40.7299 5.86022 50.5232 5.86022ZM50.5232-3.3139C45.848-3.3139 42.2391-6.93138 42.2391-11.6066C42.2391-16.2818 45.848-19.8907 50.5232-19.8907C55.1881-19.8907 58.8159-16.2818 58.8159-11.6066C58.8159-6.93138 55.1881-3.3139 50.5232-3.3139ZM154.154 5.86022C163.902 5.86022 171.618-1.85606 171.618-11.6477C171.618-21.4513 163.902-29.1762 154.154-29.1762C144.36-29.1762 136.635-21.4513 136.635-11.6477C136.635-1.85606 144.36 5.86022 154.154 5.86022ZM154.154-3.3139C149.478-3.3139 145.826-6.93138 145.826-11.6066C145.826-16.2818 149.478-19.8907 154.154-19.8907C158.819-19.8907 162.446-16.2818 162.446-11.6066C162.446-6.93138 158.819-3.3139 154.154-3.3139ZM25.7688-5.32064L39.9739-5.32064L39.9739-14.7905L26.6815-14.7905C23.7328-14.7905 21.9394-16.8096 21.9394-20.2704L21.9394-29.9629C21.9394-36.8181 26.2141-40.4293 36.428-41.9196L56.5556-44.8842L78.1761-58.3447C80.1981-59.6053 83.2834-61.2674 85.5899-62.25C85.4951-62.9779 85.3877-63.6309 85.3877-64.3999L85.3877-72.4301C81.5003-71.1413 76.761-68.7244 73.1187-66.4366L53.319-54.0342L35.2437-51.334C19.7593-49.0976 12.4609-42.1926 12.4609-29.9629L12.4609-18.9315C12.4609-10.3377 17.4973-5.32064 25.7688-5.32064ZM167.527-5.32064L188.026-5.32064C196.289-5.32064 201.334-10.4405 201.334-18.9315L201.334-39.5775C201.334-48.1073 196.073-53.3322 187.481-53.3322L148.076-53.3322L147.279-60.4462C146.255-69.0961 141.969-74.1895 135.457-75.2102L134.442-75.2845L134.442-67.1307C134.442-65.7918 134.134-64.5756 133.599-63.7221L134.466-63.3531C136.372-62.4385 137.621-60.3994 137.953-57.4866L139.459-43.8395L187.134-43.8395C190.126-43.8395 191.876-41.8117 191.876-38.403L191.876-20.2704C191.876-16.8096 190.126-14.7905 187.134-14.7905L167.527-14.7905ZM98.7544-57.6463L121.389-57.6463C125.511-57.6463 127.691-59.8072 127.691-64.2699L127.691-81.8003C127.691-86.2178 125.511-88.3804 121.389-88.3804L98.7544-88.3804C94.6136-88.3804 92.4772-86.2178 92.4772-81.8003L92.4772-64.2699C92.4772-59.8072 94.6136-57.6463 98.7544-57.6463ZM116.658-84.7155L122.447-84.7155L122.447-94.2257C122.447-98.9901 125.354-102.099 129.909-102.099C134.419-102.099 137.363-98.9901 137.363-94.2257L137.363-88.9349C137.363-87.3412 138.651-86.0624 140.244-86.0624C141.83-86.0624 143.16-87.3412 143.16-88.9349L143.16-93.5309C143.16-102.227 137.929-107.832 129.909-107.832C121.881-107.832 116.658-102.227 116.658-93.5309Z"/>
</svg>