<svg xmlns="http://www.w3.org/2000/svg" viewBox="9.96875 -84.682 98.91 103.64">
  <path d="M14.0214-25.2267L35.6986-25.2267C38.1448-25.2267 39.6699-26.3507 40.175-28.5387L47.264-61.1411L46.6359-61.1411L59.3092 14.8816C59.9629 18.9561 66.2033 18.9127 67.037 14.8919L79.1514-42.139L78.6033-42.1413L81.32-28.9786C81.7817-26.4684 83.2862-25.2267 85.8501-25.2267L104.826-25.2267C107.092-25.2267 108.879-26.9683 108.879-29.172C108.879-31.4934 107.146-33.2246 104.826-33.2246L86.9269-33.2246L88.1182-32.3545L82.3983-57.6662C81.5441-61.62 75.7163-61.5561 74.7673-57.5051L62.6986-3.63636L63.4672-3.45136L50.7196-80.6075C50.1094-84.5746 44.2655-84.682 43.4215-80.6281L32.9558-32.3824L33.8471-33.2246L14.0214-33.2246C11.7554-33.2246 9.96875-31.4294 9.96875-29.172C9.96875-26.9683 11.7554-25.2267 14.0214-25.2267Z" />
</svg>