<svg xmlns="http://www.w3.org/2000/svg" viewBox="12.4609 -86.7171 120.9 103.17">
  <path d="M28.4803-11.2559L117.345-11.2559C127.838-11.2559 133.364-16.7973 133.364-27.1038L133.364-63.3663C133.364-73.6813 127.838-79.1708 117.345-79.1708L28.4803-79.1708C18.0389-79.1708 12.4609-73.6985 12.4609-63.3663L12.4609-27.1038C12.4609-16.7801 18.0389-11.2559 28.4803-11.2559ZM28.6049-20.5516C24.2015-20.5516 21.7133-22.9199 21.7133-27.5072L21.7133-62.928C21.7133-67.5068 24.2015-69.927 28.6049-69.927L117.22-69.927C121.589-69.927 124.12-67.5068 124.12-62.928L124.12-27.5072C124.12-22.9199 121.589-20.5516 117.22-20.5516ZM72.8391 16.451C79.2199 16.451 84.5355 11.1789 84.5355 4.79805C84.5355-1.67823 79.2634-6.89835 72.8391-6.89835C66.4583-6.89835 61.1861-1.67823 61.1861 4.79805C61.1861 11.1875 66.4063 16.451 72.8391 16.451ZM72.8391 9.19734C70.3859 9.19734 68.3878 7.25121 68.3878 4.79805C68.3878 2.29285 70.3859 0.216448 72.8391 0.216448C75.2837 0.216448 77.3773 2.30146 77.3773 4.79805C77.3773 7.25121 75.2923 9.19734 72.8391 9.19734ZM65.0341-0.053705L73.1667-4.15842L26.8874-83.8196C25.6801-85.9073 23.0302-86.7171 20.6184-85.4594C18.3295-84.2333 17.7783-81.3822 19.0392-79.2408Z"/>
</svg>