<svg xmlns="http://www.w3.org/2000/svg" viewBox="-1.46892 -85.6724 111.06 100.82">
  <path d="M3.09462-45.0871C-0.556802-45.0871-1.46892-42.3541 0.534053-39.5991L11.8669-23.8316C13.4311-21.6577 15.8826-21.6577 17.4135-23.8316L28.7361-39.6339C30.6854-42.3541 29.7836-45.0871 26.1858-45.0871ZM109.59-35.2606C109.59-63.1144 86.9778-85.6724 59.1344-85.6724C31.3241-85.6724 8.76608-63.1578 8.72266-35.1881C8.76608-32.4822 10.988-30.2774 13.6767-30.2774C16.4002-30.2774 18.6656-32.5256 18.6656-35.2315C18.6656-57.6501 36.7449-75.7643 59.1344-75.7643C81.5239-75.7643 99.6381-57.6501 99.6381-35.2606C99.6381-12.8711 81.5239 5.24301 59.1344 5.24301C46.015 5.24301 34.5656-1.00119 27.2237-10.6214C25.247-12.9119 22.3909-13.621 20.0301-11.9197C17.8121-10.3355 17.2881-7.0492 19.467-4.51071C28.7308 7.57375 43.1027 15.1511 59.1344 15.1511C86.9778 15.1511 109.59-7.40694 109.59-35.2606ZM46.8819-12.7078C48.9675-12.7078 50.5211-13.9929 51.0594-16.1338L59.0012-47.449L59.3024-47.449L67.2442-16.1338C67.7808-13.9322 69.2287-12.7078 71.4634-12.7078C73.7227-12.7078 75.2849-13.9408 75.7278-16.2207L83.032-52.6832C83.1045-53.0879 83.148-53.5993 83.148-54.0359C83.148-55.9182 81.7525-57.026 79.9185-57.026C78.4626-57.026 77.1169-56.0319 76.8312-54.361L71.1458-20.9986L70.8794-20.9986L62.5525-54.1158C62.1216-55.9472 61.0509-56.9933 59.1675-56.9933C57.4145-56.9933 56.2672-55.8849 55.7929-54.029L47.4053-20.9986L47.1578-20.9986L41.5159-54.361C41.265-55.9381 39.9971-57.026 38.3315-57.026C36.4271-57.026 35.1557-55.8639 35.1557-54.0531C35.1557-53.6948 35.2094-53.2079 35.3237-52.6574L42.6193-16.2207C43.0621-14.0363 44.6054-12.7078 46.8819-12.7078ZM31.5271-35.157C31.5271-34.2283 32.2341-33.53 33.1193-33.53L85.1843-33.53C86.113-33.53 86.82-34.2283 86.82-35.157C86.82-36.0423 86.113-36.6973 85.1843-36.6973L33.1193-36.6973C32.2341-36.6973 31.5271-36.0423 31.5271-35.157Z" />
</svg>