<svg xmlns="http://www.w3.org/2000/svg" viewBox="8.72266 -85.4855 100.87 100.82">
  <path d="M59.1344 15.338C86.9881 15.338 109.59-7.22002 109.59-35.0737C109.59-62.9274 86.9881-85.4855 59.1344-85.4855C31.3241-85.4855 8.72266-62.9274 8.72266-35.0737C8.72266-7.22002 31.3241 15.338 59.1344 15.338ZM59.1344 5.42993C36.7449 5.42993 18.6656-12.6842 18.6656-35.0737C18.6656-57.4632 36.7449-75.5774 59.1344-75.5774C81.5239-75.5774 99.6381-57.4632 99.6381-35.0737C99.6381-12.6842 81.5239 5.42993 59.1344 5.42993ZM45.9113-8.39336L72.3141-8.39336C77.3719-8.39336 79.4468-11.1501 80.1978-16.1632L83.6271-39.1916L34.5982-39.1916L37.9841-16.1632C38.7351-11.1329 40.81-8.39336 45.9113-8.39336ZM52.0972-15.0705C50.8457-15.0705 49.8885-16.1043 49.8885-17.2707C49.8885-17.9147 50.1536-18.3856 50.5411-18.8165L56.0221-24.2975L50.5411-29.7855C50.1434-30.2163 49.8885-30.6993 49.8885-31.2999C49.8885-32.4994 50.8457-33.5 52.0972-33.5C52.6962-33.5 53.1357-33.268 53.5665-32.8371L59.0475-27.3458L64.6588-32.8371C65.0463-33.268 65.5292-33.5 66.1281-33.5C67.3797-33.5 68.3369-32.5514 68.3369-31.2999C68.3369-30.7427 68.134-30.2684 67.6408-29.7855L62.1947-24.2975L67.6408-18.8165C68.0283-18.3856 68.2935-17.9147 68.2935-17.2707C68.2935-16.1043 67.3276-15.0705 66.1281-15.0705C65.4858-15.0705 64.9943-15.3688 64.6154-15.7477L59.0475-21.223L53.61-15.7477C53.1877-15.3254 52.6962-15.0705 52.0972-15.0705ZM33.2116-43.1275L85.0138-43.1275C87.8538-43.1275 89.3976-44.8502 89.3976-47.6776L89.3976-50.2774C89.3976-53.1397 87.8538-54.8418 85.0138-54.8418L33.2116-54.8418C30.4687-54.8418 28.8278-53.1397 28.8278-50.2774L28.8278-47.6776C28.8278-44.8502 30.3819-43.1275 33.2116-43.1275Z" />
</svg>