<svg xmlns="http://www.w3.org/2000/svg" viewBox="12.4609 -84.3186 102.17 98.16">
  <path d="M48.5918 13.8408L78.4534 13.8408C84.769 13.8408 88.1663 11.7266 91.5349 8.02659L110.337-12.9225C113.75-16.7373 114.628-19.1925 114.628-24.3491L114.628-46.1288C114.628-51.2853 113.596-53.6172 110.131-57.5554L91.5349-78.5045C88.1972-82.2251 84.769-84.3186 78.4534-84.3186L48.5918-84.3186C42.3197-84.3186 38.8789-82.2045 35.5538-78.5045L16.7085-57.5554C13.3382-53.7406 12.4609-51.2853 12.4609-46.1288L12.4609-24.3491C12.4609-19.1925 13.3382-16.7373 16.7085-12.9225L35.5538 8.02659C38.8789 11.7266 42.3197 13.8408 48.5918 13.8408ZM47.485-14.5786C44.9561-14.5786 42.9215-16.6133 42.9215-19.2306C42.9215-20.414 43.4111-21.5384 44.2637-22.4241L57.0174-35.1881L44.2637-47.952C43.4111-48.8377 42.9215-49.9621 42.9215-51.1455C42.9215-53.7629 44.9561-55.7106 47.485-55.7106C48.846-55.7106 49.863-55.2764 50.7344-54.405L63.5269-41.6559L76.408-54.4484C77.3663-55.3632 78.3918-55.7975 79.6574-55.7975C82.2297-55.7975 84.2643-53.8063 84.2643-51.2323C84.2643-50.0056 83.853-48.9246 82.8787-47.9955L70.0919-35.1881L82.8353-22.4675C83.7747-21.5818 84.2209-20.4574 84.2209-19.2306C84.2209-16.6133 82.1863-14.5786 79.5706-14.5786C78.2616-14.5786 77.1057-15.0129 76.2343-15.9277L63.5269-28.6665L50.8647-15.9277C49.9933-15.0129 48.846-14.5786 47.485-14.5786Z"/>
</svg>