<svg xmlns="http://www.w3.org/2000/svg" viewBox="11.2588 -96.7134 122.9 122.89">
  <path d="M72.7024 26.174C106.482 26.174 134.155-1.49838 134.155-35.2697C134.155-69.041 106.482-96.7134 72.7024-96.7134C38.9311-96.7134 11.2588-69.041 11.2588-35.2697C11.2588-1.49838 38.9311 26.174 72.7024 26.174ZM53.991-8.66813C42.3774-8.66813 39.7792-24.2702 39.7792-35.2697C39.7792-46.2693 42.3774-61.8713 53.991-61.8713C65.5327-61.8713 68.2029-46.2693 68.2029-35.2697C68.2029-24.2702 65.5327-8.66813 53.991-8.66813ZM53.991-12.5221C62.3181-12.5221 63.8416-26.1834 63.8416-35.2697C63.8416-44.356 62.3181-58.0173 53.991-58.0173C45.6639-58.0173 44.1489-44.356 44.1489-35.2697C44.1489-26.1834 45.6639-12.5221 53.991-12.5221ZM97.4662-9.07867C96.2222-9.07867 95.3511-9.94192 95.3511-11.2826L95.3511-21.7901L78.7581-21.7901C76.9557-21.7901 75.8304-22.9789 75.8304-24.5739C75.8304-25.6019 76.097-26.4438 76.6554-27.6748L92.0937-58.398C93.1049-60.3821 94.0778-61.6598 96.2734-61.6598C97.8677-61.6598 99.5093-60.7887 99.5093-58.2501L99.5093-25.5636L103.59-25.5636C104.622-25.5636 105.469-24.7937 105.469-23.6853C105.469-22.5684 104.75-21.7901 103.59-21.7901L99.5093-21.7901L99.5093-11.2826C99.5093-10.1112 98.5533-9.07867 97.4662-9.07867ZM95.3764-25.5383L95.3764-56.6923L95.1351-56.6923L79.807-25.6609L79.807-25.5383Z"/>
</svg>