<svg xmlns="http://www.w3.org/2000/svg" viewBox="11.2588 -96.7134 122.9 122.89">
  <path d="M72.7024 26.174C106.482 26.174 134.155-1.49838 134.155-35.2697C134.155-69.041 106.482-96.7134 72.7024-96.7134C38.9311-96.7134 11.2588-69.041 11.2588-35.2697C11.2588-1.49838 38.9311 26.174 72.7024 26.174ZM57.3349-9.09554C56.0954-9.09554 55.1225-10.1404 55.1225-11.3164L55.1225-56.0579L47.1981-49.6997C46.8342-49.4163 46.5508-49.2386 45.9923-49.2386C44.9727-49.2386 44.3085-50.0551 44.3085-51.0112C44.3085-51.7895 44.6342-52.3013 45.201-52.6905L53.9634-59.9969C54.7884-60.7077 55.8502-61.3888 57.1066-61.3888C58.4473-61.3888 59.4838-60.3692 59.4838-59.0284L59.4838-11.3164C59.4838-10.1404 58.4389-9.09554 57.3349-9.09554ZM82.8168-8.66813C76.5947-8.66813 71.9309-13.0367 70.3821-18.9669C70.1706-19.6227 69.9125-20.6468 69.9125-21.2643C69.9125-22.4784 70.6655-23.3035 71.8797-23.3035C72.7385-23.3035 73.4831-22.8254 73.7834-21.3019C74.7102-16.637 77.9826-12.5053 82.8-12.5053C89.0311-12.5053 92.0156-19.3162 92.0156-26.0467C92.0156-32.1254 89.1115-39.3132 83.0328-39.3132C79.4684-39.3132 76.9411-37.1626 75.286-34.0088C74.6134-32.9426 74.1354-32.1468 72.8532-32.1468C71.4276-32.1468 70.6998-33.0562 70.6998-34.4228C70.6998-34.9643 70.7718-36.2089 70.8522-37.2543L72.3212-57.695C72.4989-59.5228 73.2435-60.8556 75.2956-60.8556L92.2383-60.8556C93.2832-60.8556 94.0998-60.0137 94.0998-58.8968C94.0998-57.7631 93.3637-56.9381 92.2383-56.9381L76.0481-56.9381L74.5791-37.03L74.7569-37.03C76.6532-41.3687 80.5431-42.994 83.9798-42.994C92.1276-42.994 96.2543-34.6472 96.2543-26.144C96.2543-17.1842 91.6158-8.66813 82.8168-8.66813Z"/>
</svg>