<svg xmlns="http://www.w3.org/2000/svg" viewBox="11.2588 -96.7134 122.9 122.89">
  <path d="M72.7024 26.174C106.626 26.174 134.155-1.34598 134.155-35.2697C134.155-69.1934 106.626-96.7134 72.7024-96.7134C38.7872-96.7134 11.2588-69.1934 11.2588-35.2697C11.2588-1.34598 38.7872 26.174 72.7024 26.174ZM72.7024 22.1563C40.927 22.1563 15.2129-3.49429 15.2129-35.2697C15.2129-67.0451 40.927-92.6957 72.7024-92.6957C104.478-92.6957 130.128-67.0451 130.128-35.2697C130.128-3.49429 104.478 22.1563 72.7024 22.1563ZM45.1533-9.77659L66.748-9.77659C67.8013-9.77659 68.601-10.5932 68.601-11.6465C68.601-12.7887 67.7929-13.5968 66.748-13.5968L48.6265-13.5968L48.6265-13.8634L60.8222-30.9321C65.689-37.7588 67.4285-42.3511 67.4285-47.6122C67.4285-55.4422 63.1881-61.77 55.2693-61.77C47.9303-61.77 43.0803-55.0232 43.0803-48.2932C43.0803-47.367 43.6725-46.3811 45.0307-46.3811C45.9951-46.3811 46.7229-46.9227 46.8708-47.8872C47.7256-53.8349 50.1725-57.9667 55.3328-57.9667C61.014-57.9667 63.5368-52.4081 63.5368-47.4176C63.5368-42.7111 61.6837-38.6271 57.6751-32.9505L43.8626-13.8291C43.2873-13.0761 42.9999-12.3866 42.9999-11.5745C42.9999-10.4661 43.88-9.77659 45.1533-9.77659ZM90.1148-8.76937C101.678-8.76937 104.331-24.3292 104.331-35.2697C104.331-46.2102 101.678-61.77 90.1148-61.77C78.6237-61.77 75.9704-46.2102 75.9704-35.2697C75.9704-24.3292 78.6237-8.76937 90.1148-8.76937ZM90.1148-12.5981C81.8046-12.5981 80.2979-26.234 80.2979-35.2697C80.2979-44.3054 81.8046-57.9413 90.1148-57.9413C98.497-57.9413 99.94-44.3054 99.94-35.2697C99.94-26.234 98.497-12.5981 90.1148-12.5981Z" />
</svg>