<svg xmlns="http://www.w3.org/2000/svg" viewBox="16.084 -90.5761 123.44 110.92">
  <path d="M32.7039 20.3415L122.899 20.3415C133.844 20.3415 139.519 14.4501 139.519 3.74689L139.519-73.9815C139.519-84.6847 133.844-90.5761 122.899-90.5761L32.7039-90.5761C21.8399-90.5761 16.084-84.8286 16.084-73.9815L16.084 3.74689C16.084 14.594 21.8399 20.3415 32.7039 20.3415ZM32.7298 16.3829C24.3605 16.3829 20.0342 12.0734 20.0342 3.67885L20.0342-51.0382C20.0342-59.4328 24.3605-63.8143 32.7298-63.8143L122.865-63.8143C130.946-63.8143 135.641-59.4328 135.641-51.0382L135.641 3.67885C135.641 12.0734 130.946 16.3829 122.865 16.3829ZM54.1057 1.81342L75.7005 1.81342C76.8258 1.81342 77.5535 0.996847 77.5535-0.128479C77.5535-1.19869 76.8173-2.00683 75.7005-2.00683L57.651-2.00683L57.651-2.2734L69.7747-19.3421C74.6415-26.1688 76.3809-30.7611 76.3809-36.0222C76.3809-43.8522 72.2126-50.18 64.2218-50.18C56.8827-50.18 52.1048-43.4332 52.1048-36.7032C52.1048-35.849 52.697-34.7911 53.9831-34.7911C55.0196-34.7911 55.7473-35.4047 55.8233-36.2972C56.6781-42.2449 59.1969-46.3766 64.2853-46.3766C70.0384-46.3766 72.4808-40.8901 72.4808-35.8276C72.4808-31.193 70.7082-27.0371 66.6276-21.3604L52.8151-2.23911C52.3117-1.48608 52.0244-0.796594 52.0244-0.0564955C52.0244 1.12394 52.9045 1.81342 54.1057 1.81342ZM97.0821 2.39324C98.1691 2.39324 99.2056 1.35677 99.2056 0.189259L99.2056-47.3541C99.2056-48.6863 98.1691-49.6975 96.8453-49.6975C95.5338-49.6975 94.5609-49.0165 93.7359-48.386L84.9184-41.0965C84.4319-40.6438 84.1147-40.132 84.1147-39.4341C84.1147-38.4145 84.7705-37.6064 85.7816-37.6064C86.3317-37.6064 86.6151-37.7841 86.979-38.0591L94.8781-44.4809L94.8781 0.189259C94.8781 1.35677 95.8426 2.39324 97.0821 2.39324Z"/>
</svg>