<svg xmlns="http://www.w3.org/2000/svg" viewBox="16.084 -90.5761 123.44 110.92">
  <path d="M32.7039 20.3415L122.899 20.3415C133.844 20.3415 139.519 14.4501 139.519 3.74689L139.519-73.9815C139.519-84.6847 133.844-90.5761 122.899-90.5761L32.7039-90.5761C21.8399-90.5761 16.084-84.8286 16.084-73.9815L16.084 3.74689C16.084 14.594 21.8399 20.3415 32.7039 20.3415ZM32.7298 16.3829C24.3605 16.3829 20.0342 12.0734 20.0342 3.67885L20.0342-51.0382C20.0342-59.4328 24.3605-63.8143 32.7298-63.8143L122.865-63.8143C130.946-63.8143 135.641-59.4328 135.641-51.0382L135.641 3.67885C135.641 12.0734 130.946 16.3829 122.865 16.3829ZM51.913 1.81342L73.4993 1.81342C74.5527 1.81342 75.3608 0.996847 75.3608-0.128479C75.3608-1.19869 74.5442-2.00683 73.4993-2.00683L55.4583-2.00683L55.4583-2.2734L67.5735-19.3421C72.4488-26.1688 74.1882-30.7611 74.1882-36.0222C74.1882-43.8522 70.0115-50.18 62.0291-50.18C54.69-50.18 49.9121-43.4332 49.9121-36.7032C49.9121-35.849 50.4323-34.7911 51.7904-34.7911C52.8269-34.7911 53.4742-35.4047 53.6305-36.2972C54.4854-42.2449 56.9323-46.3766 62.0926-46.3766C67.8457-46.3766 70.2881-40.8901 70.2881-35.8276C70.2881-31.193 68.4435-27.0371 64.4349-21.3604L50.6139-2.23911C50.0471-1.48608 49.8317-0.796594 49.8317-0.0564955C49.8317 1.12394 50.7033 1.81342 51.913 1.81342ZM87.8248 2.48209C89.0305 2.48209 89.5805 1.86854 90.0417 0.671225L106.474-43.8083C106.774-44.6839 107.041-45.5809 107.041-46.5201C107.041-48.1532 105.987-49.1644 104.227-49.1644L83.3218-49.1644C82.2049-49.1644 81.3799-48.3394 81.3799-47.2945C81.3799-46.1776 82.2049-45.4161 83.3218-45.4161L102.722-45.4161L102.722-45.0691L86.2765-1.57099C85.9931-0.826397 85.8238-0.238149 85.8238 0.442896C85.8238 1.58959 86.5982 2.48209 87.8248 2.48209Z"/>
</svg>