<svg xmlns="http://www.w3.org/2000/svg" viewBox="11.2588 -96.7134 122.9 122.89">
  <path d="M72.7024 26.174C106.482 26.174 134.155-1.49838 134.155-35.2697C134.155-69.041 106.482-96.7134 72.7024-96.7134C38.9311-96.7134 11.2588-69.041 11.2588-35.2697C11.2588-1.49838 38.9311 26.174 72.7024 26.174ZM46.7403-9.67535C45.4418-9.67535 44.5701-10.3733 44.5701-11.5621C44.5701-12.3107 44.8574-13.0086 45.4328-13.7616L59.2959-32.942C63.3045-38.6271 65.1025-42.7364 65.1025-47.4682C65.1025-52.4756 62.6516-58.0426 56.9621-58.0426C51.7764-58.0426 49.3379-53.8219 48.4747-47.9378C48.3183-46.9649 47.5906-46.3429 46.6177-46.3429C45.2427-46.3429 44.6505-47.4092 44.6505-48.3439C44.6505-55.0991 49.5257-61.8713 56.8265-61.8713C64.8427-61.8713 69.0363-55.5181 69.0363-47.6628C69.0363-42.368 67.3689-37.7672 62.3963-30.9152L50.2389-13.8044L50.2389-13.5209L68.3474-13.5209C69.4727-13.5209 70.2893-12.7212 70.2893-11.6341C70.2893-10.5004 69.4812-9.67535 68.3474-9.67535ZM82.8208-9.00669C81.5138-9.00669 80.7225-9.90762 80.7225-11.0628C80.7225-11.7438 80.8918-12.3405 81.1837-13.0851L97.6793-56.6462L97.6793-57.0016L78.2205-57.0016C77.0867-57.0016 76.3422-57.8351 76.3422-58.8884C76.3422-60.0222 77.0867-60.8556 78.2205-60.8556L99.2101-60.8556C100.979-60.8556 102.041-59.7556 102.041-58.1944C102.041-57.2384 101.766-56.2694 101.465-55.4573L84.9826-10.826C84.513-9.62024 83.963-9.00669 82.8208-9.00669Z"/>
</svg>