<svg xmlns="http://www.w3.org/2000/svg" viewBox="16.084 -90.7201 110.91 110.92">
  <path d="M32.7039 20.1976L110.373 20.1976C121.246 20.1976 126.993 14.3061 126.993 3.60292L126.993-74.1255C126.993-84.8286 121.246-90.7201 110.373-90.7201L32.7039-90.7201C21.8399-90.7201 16.084-84.9726 16.084-74.1255L16.084 3.60292C16.084 14.4501 21.8399 20.1976 32.7039 20.1976ZM32.8648 16.2389C24.4111 16.2389 20.0342 11.8788 20.0342 3.3999L20.0342-73.9224C20.0342-82.4098 24.4111-86.7615 32.8648-86.7615L110.212-86.7615C118.378-86.7615 123.043-82.4098 123.043-73.9224L123.043 3.3999C123.043 11.8788 118.378 16.2389 110.212 16.2389ZM53.0091-8.93021C60.8262-8.93021 66.6243-14.7036 66.6243-23.7697C66.6243-30.5879 63.1499-35.71 56.7877-36.273L56.7877-36.4423C62.4976-37.8983 65.1683-43.1722 65.1683-48.5519C65.1683-56.2548 60.2042-61.5923 52.7678-61.5923C46.5418-61.5923 42.4538-57.9014 40.7481-52.344C40.3545-51.0022 40.2656-49.8763 40.2656-49.1739C40.2656-48.0019 40.9382-47.232 42.1609-47.232C43.4217-47.232 43.7895-47.9727 44.073-49.2251C44.9025-53.9153 47.6159-57.8609 52.7678-57.8609C58.1481-57.8609 61.1326-53.5177 61.1326-48.0739C61.1326-42.4355 57.5047-38.0119 51.8579-38.0119L49.0595-38.0119C47.8791-38.0119 47.3589-37.1402 47.3589-36.1757C47.3589-35.2112 48.0951-34.4284 49.0595-34.4284L51.9383-34.4284C58.4445-34.4284 62.4025-30.7499 62.4025-23.6679C62.4025-17.9108 59.3673-12.742 53.0811-12.742C47.1632-12.742 43.9543-17.2039 43.2941-21.505C43.0826-22.8125 42.554-23.4429 41.3184-23.4429C40.1593-23.4429 39.3894-22.6899 39.3894-21.4588C39.3894-20.6209 39.6223-19.2071 39.9439-18.2336C41.6496-12.7229 46.4698-8.93021 53.0091-8.93021ZM95.4945-9.1799C96.6367-9.1799 97.5843-10.2124 97.5843-11.367L97.5843-21.8576L101.593-21.8576C102.816-21.8576 103.518-22.547 103.518-23.7275C103.518-24.8275 102.681-25.5254 101.593-25.5254L97.5843-25.5254L97.5843-58.1742C97.5843-60.7679 95.8876-61.5586 94.3185-61.5586C92.2118-61.5586 91.1754-60.2893 90.2446-58.3221L74.7765-27.6917C74.218-26.4691 73.9599-25.6356 73.9599-24.616C73.9599-22.966 75.0684-21.8576 76.8624-21.8576L93.3962-21.8576L93.3962-11.367C93.3962-10.0347 94.3309-9.1799 95.4945-9.1799ZM93.4215-25.5001L77.9663-25.5001L77.9663-25.6947L93.1803-56.6248L93.4215-56.6248Z" />
</svg>