<svg xmlns="http://www.w3.org/2000/svg" viewBox="11.2588 -96.7134 122.9 122.89">
  <path d="M72.7024 26.174C106.626 26.174 134.155-1.34598 134.155-35.2697C134.155-69.1934 106.626-96.7134 72.7024-96.7134C38.7872-96.7134 11.2588-69.1934 11.2588-35.2697C11.2588-1.34598 38.7872 26.174 72.7024 26.174ZM72.7024 22.1563C40.927 22.1563 15.2129-3.49429 15.2129-35.2697C15.2129-67.0451 40.927-92.6957 72.7024-92.6957C104.478-92.6957 130.128-67.0451 130.128-35.2697C130.128-3.49429 104.478 22.1563 72.7024 22.1563ZM60.022-9.1799C61.1642-9.1799 62.0398-10.2124 62.0398-11.367L62.0398-21.8576L66.1209-21.8576C67.3436-21.8576 68.046-22.547 68.046-23.7275C68.046-24.8275 67.208-25.5254 66.1209-25.5254L62.0398-25.5254L62.0398-58.1742C62.0398-60.7679 60.4151-61.5586 58.846-61.5586C56.7393-61.5586 55.7029-60.2893 54.7086-58.3221L39.304-27.6917C38.7455-26.4691 38.4874-25.6356 38.4874-24.616C38.4874-22.966 39.5959-21.8576 41.3898-21.8576L57.9237-21.8576L57.9237-11.367C57.9237-10.0347 58.8584-9.1799 60.022-9.1799ZM57.949-25.5001L42.4938-25.5001L42.4938-25.6947L57.7078-56.6248L57.949-56.6248ZM89.0097-8.93021C96.8987-8.93021 102.625-14.7036 102.625-23.7697C102.625-30.5879 99.2225-35.71 92.7883-36.273L92.7883-36.4423C98.4982-37.8983 101.169-43.1722 101.169-48.5519C101.169-56.2548 96.2768-61.5923 88.7685-61.5923C82.5424-61.5923 78.5264-57.9014 76.8207-52.344C76.4271-51.0022 76.3382-49.8763 76.3382-49.1739C76.3382-48.0019 77.0108-47.232 78.1615-47.232C79.4943-47.232 79.7901-47.9727 80.0736-49.2251C80.9031-53.9153 83.6885-57.8609 88.7685-57.8609C94.2207-57.8609 97.1332-53.5177 97.1332-48.0739C97.1332-42.4355 93.5858-38.0119 87.8585-38.0119L85.1321-38.0119C83.8797-38.0119 83.3595-37.1402 83.3595-36.1757C83.3595-35.2112 84.0957-34.4284 85.1321-34.4284L87.9389-34.4284C94.5171-34.4284 98.4031-30.7499 98.4031-23.6679C98.4031-17.9108 95.4399-12.742 89.0817-12.742C83.2358-12.742 79.9549-17.2039 79.2947-21.505C79.0832-22.8125 78.6266-23.4429 77.319-23.4429C76.2319-23.4429 75.462-22.6899 75.462-21.4588C75.462-20.6209 75.6949-19.2071 76.0165-18.2336C77.7222-12.7229 82.4704-8.93021 89.0097-8.93021Z" />
</svg>