<svg xmlns="http://www.w3.org/2000/svg" viewBox="16.084 -92.1278 146.79 113.72">
  <path d="M28.4541 5.9008L150.505 5.9008C158.448 5.9008 162.875 1.3939 162.875-6.47771L162.875-79.7577C162.875-87.6293 158.448-92.1278 150.505-92.1278L28.4541-92.1278C20.5105-92.1278 16.084-87.6293 16.084-79.7577L16.084-6.47771C16.084 1.3939 20.5105 5.9008 28.4541 5.9008ZM28.6869 1.94218C23.1413 1.94218 20.0342-1.08453 20.0342-6.63855L20.0342-79.5968C20.0342-85.1424 23.1413-88.1776 28.6869-88.1776L150.272-88.1776C155.817-88.1776 158.924-85.1424 158.924-79.5968L158.924-6.63855C158.924-1.08453 155.817 1.94218 150.272 1.94218ZM59.6232 21.5884L119.335 21.5884C120.537 21.5884 121.382 20.7425 121.382 19.6133C121.382 18.412 120.537 17.6297 119.335 17.6297L59.6232 17.6297C58.422 17.6297 57.5762 18.412 57.5762 19.6133C57.5762 20.7425 58.422 21.5884 59.6232 21.5884ZM74.5476-16.9919C75.6178-16.9919 76.5654-18.016 76.5654-19.1706L76.5654-29.6611L80.6382-29.6611C81.7888-29.6611 82.4996-30.359 82.4996-31.5395C82.4996-32.6395 81.6617-33.329 80.6382-33.329L76.5654-33.329L76.5654-65.9862C76.5654-68.5714 74.8687-69.3621 73.2912-69.3621C71.1846-69.3621 70.2201-68.0929 69.2258-66.1256L53.7492-35.4953C53.1992-34.2811 53.013-33.3672 53.013-32.4196C53.013-30.7696 54.0495-29.6611 55.9155-29.6611L72.4494-29.6611L72.4494-19.1706C72.4494-17.8383 73.3121-16.9919 74.5476-16.9919ZM72.4747-33.3037L56.939-33.3037L56.939-33.4983L72.2334-64.4284L72.4747-64.4284ZM93.7494-16.8395C95.0013-16.8395 95.9619-17.8844 95.9619-19.0604L95.9619-34.6089L101.181-42.3596L115.866-18.4682C116.513-17.4868 117.025-16.9199 118.104-16.9199C119.335-16.9199 120.096-17.7956 120.096-18.9378C120.096-19.6104 119.927-19.9911 119.538-20.6002L103.998-45.8289L117.523-65.2118C117.823-65.7618 118.162-66.3034 118.162-66.9844C118.162-68.0929 117.489-68.9854 116.233-68.9854C115.298-68.9854 114.701-68.482 114.24-67.7543L96.1396-41.2388L95.8814-41.2388L95.8814-66.9253C95.8814-68.0377 94.904-69.0742 93.7494-69.0742C92.4593-69.0742 91.4819-68.0631 91.4819-66.9253L91.4819-19.0604C91.4819-17.8591 92.4678-16.8395 93.7494-16.8395Z"/>
</svg>