<svg xmlns="http://www.w3.org/2000/svg" viewBox="16.084 -82.15 110.91 94.07">
  <path d="M16.084 9.94033C16.084 10.9892 16.9382 11.9154 18.0591 11.9154C19.1164 11.9154 20.0342 10.9892 20.0342 9.94033L20.0342-80.1665C20.0342-81.2238 19.1164-82.15 18.0591-82.15C16.9382-82.15 16.084-81.2238 16.084-80.1665ZM123.043 9.94033C123.043 10.9892 123.969 11.9154 125.018 11.9154C126.147 11.9154 126.993 10.9892 126.993 9.94033L126.993-80.1665C126.993-81.2238 126.147-82.15 125.018-82.15C123.969-82.15 123.043-81.2238 123.043-80.1665ZM71.3522-6.95006C81.764-6.95006 88.3371-14.8903 88.3371-25.1497C88.3371-34.9441 82.1656-42.7954 72.604-42.7954C67.7153-42.7954 63.0718-40.5521 60.5743-36.4378L60.5405-36.4378L62.5937-57.1883L83.445-57.1883C84.6676-57.1883 85.5646-58.0218 85.5646-59.2444C85.5646-60.467 84.6676-61.3004 83.445-61.3004L61.9217-61.3004C59.7554-61.3004 58.7695-60.2724 58.5283-58.1146L56.2973-34.186C56.1281-32.4471 57.0419-31.3049 58.4929-31.3049C59.9061-31.3049 60.7441-32.3971 61.4887-33.3194C63.8805-36.7695 67.555-38.8481 71.7841-38.8481C79.0989-38.8481 83.743-32.5832 83.743-25.1244C83.743-17.6786 79.3447-10.9902 71.4877-10.9902C65.4045-10.9902 61.0315-14.9949 59.7363-20.2441C59.3303-21.5516 58.5857-22.3176 57.5025-22.3176C56.263-22.3176 55.4296-21.4122 55.4296-20.1727C55.4296-19.576 55.5904-18.7634 55.8317-18.1031C57.7449-11.259 64.1566-6.95006 71.3522-6.95006Z"/>
</svg>