<svg xmlns="http://www.w3.org/2000/svg" viewBox="16.084 -90.5761 123.44 110.92">
  <path d="M32.7039 20.3415L122.899 20.3415C133.844 20.3415 139.519 14.4501 139.519 3.74689L139.519-73.9815C139.519-84.6847 133.844-90.5761 122.899-90.5761L32.7039-90.5761C21.8399-90.5761 16.084-84.8286 16.084-73.9815L16.084 3.74689C16.084 14.594 21.8399 20.3415 32.7039 20.3415ZM32.7298 16.3829C24.3605 16.3829 20.0342 12.0734 20.0342 3.67885L20.0342-51.0382C20.0342-59.4328 24.3605-63.8143 32.7298-63.8143L122.865-63.8143C130.946-63.8143 135.641-59.4328 135.641-51.0382L135.641 3.67885C135.641 12.0734 130.946 16.3829 122.865 16.3829ZM77.8291 4.75127C89.1508 4.75127 97.307-2.02537 97.307-11.3541C97.307-17.9316 92.2827-23.7348 85.4302-25.1019L85.4302-25.4321C91.1484-27.0405 95.1272-32.0563 95.1272-37.6857C95.1272-46.1129 87.8473-52.1107 77.7655-52.1107C67.7642-52.1107 60.4842-46.1129 60.4842-37.6857C60.4842-32.0563 64.4462-27.1293 70.1728-25.4321L70.1728-25.1019C63.3203-23.7348 58.3044-17.9232 58.3044-11.3456C58.3044-1.94495 66.3717 4.75127 77.8291 4.75127ZM77.7739 1.29038C68.6854 1.29038 62.0775-3.93747 62.0775-11.3327C62.0775-18.3596 68.6938-23.5155 77.7739-23.5155C86.9429-23.5155 93.5424-18.368 93.5424-11.3327C93.5424-3.93747 86.9345 1.29038 77.7739 1.29038ZM77.7655-26.8155C70.0823-26.8155 64.431-31.3449 64.431-37.7369C64.431-44.1204 69.9384-48.7049 77.7655-48.7049C85.6731-48.7049 91.1804-44.1204 91.1804-37.7369C91.1804-31.3449 85.5291-26.8155 77.7655-26.8155Z"/>
</svg>