<svg xmlns="http://www.w3.org/2000/svg" viewBox="16.084 -98.116 134.25 125.86">
  <path d="M40.1515 11.1816L66.667 11.1816C72.0406 11.1816 75.4851 7.65656 75.4851 2.32969L75.4851-89.2725C75.4851-94.6714 72.0406-98.116 66.667-98.116L40.1515-98.116C34.8415-98.116 31.3334-94.6714 31.3334-89.2725L31.3334 2.32969C31.3334 7.65656 34.8415 11.1816 40.1515 11.1816ZM99.9615 11.1816L126.477 11.1816C131.859 11.1816 135.295 7.65656 135.295 2.32969L135.295-48.6413C135.295-53.9766 131.859-57.4212 126.477-57.4212L99.9615-57.4212C94.6599-57.4212 91.1434-53.9766 91.1434-48.6413L91.1434 2.32969C91.1434 7.65656 94.6599 11.1816 99.9615 11.1816ZM17.9747 27.7458L148.438 27.7458C149.453 27.7458 150.329 26.8449 150.329 25.8298C150.329 24.8147 149.453 23.9053 148.438 23.9053L17.9747 23.9053C16.9596 23.9053 16.084 24.8147 16.084 25.8298C16.084 26.8449 16.9596 27.7458 17.9747 27.7458Z" />
</svg>