<svg xmlns="http://www.w3.org/2000/svg" viewBox="16.084 -104.285 103.48 137.93">
  <path d="M40.6289-28.3547C40.6289-40.1596 48.7092-47.9856 56.0189-54.9568C55.5831-57.3649 55.3334-59.5149 55.3334-61.2712C55.3334-72.2932 59.5614-80.1277 65.8718-81.1518C68.6353-81.5961 70.1802-78.9805 70.1802-74.6591C70.1802-64.0566 65.0547-56.599 59.8825-49.7126L62.1089-41.3057C63.9119-42.6177 66.0197-43.5192 68.5127-43.9382C76.521-45.2586 82.0188-40.3232 82.0188-31.621C82.0188-23.9727 77.1936-17.1837 69.5959-13.8105C70.6076-9.60282 71.2341-6.14027 71.2341-3.91382C71.2341 1.61773 67.7889 5.94298 62.7568 6.73425C57.0132 7.58907 53.2464 5.40929 53.2464 0.863598C53.2464-2.17099 55.1467-4.56222 58.0204-5.07005C60.6614-5.50589 62.24-4.10501 62.24-1.48096C62.24 0.15275 61.1141 1.2955 61.1141 2.6289C61.1141 3.83969 62.1725 4.30534 63.4001 4.07251C66.6254 3.57312 68.7332 0.521658 68.7332-3.4611C68.7332-5.91194 68.1871-9.18834 67.3362-12.922C66.1131-12.503 64.7544-12.1813 63.2264-11.9316C48.9836-9.67591 40.6289-16.457 40.6289-28.3547ZM57.8343-61.0097C57.8343-60.0148 57.9951-58.6348 58.2364-57.077C63.4001-62.063 67.726-66.7825 67.726-72.5052C67.726-73.6227 67.1079-74.2407 65.9989-74.0714C61.2243-73.2588 57.8006-68.0315 57.8343-61.0097ZM48.9707-26.8391C48.9707-18.183 54.3588-13.3915 63.6285-14.8728C64.6655-15.0337 65.7025-15.2834 66.6591-15.6051C65.4528-20.4263 63.8444-25.8741 62.2276-31.3387C60.0518-30.2212 58.2994-28.799 56.8687-27.6011C55.9419-26.8098 55.3244-26.8818 55.3244-27.8761C55.3244-32.3796 57.0132-36.481 59.883-39.465L57.8259-46.9069C53.229-40.7905 48.9707-34.7292 48.9707-26.8391ZM64.6481-32.3796C66.1845-26.9319 67.704-21.429 68.9019-16.6798C72.8048-18.6987 75.2686-22.0893 75.2686-26.0006C75.2686-32.1974 69.5374-34.1365 64.6481-32.3796ZM16.084 16.8475C16.084 24.1978 21.0099 28.7811 28.9568 28.6968C50.3148 28.4898 75.0278 26.9748 96.6766 23.2557C104.413 21.8807 108.926 17.7669 108.926 9.77721L108.926-91.7385C108.926-99.8503 103.369-104.285 95.3077-102.868C75.0278-99.6304 50.3148-97.125 29.5378-96.9563C20.9379-96.8804 16.084-92.3521 16.084-84.1678ZM55.6749 33.6401L102.98 33.6401C113.827 33.6401 119.567 27.8926 119.567 17.0201L119.567-82.5003C119.567-88.7883 117.417-93.0708 114.046-94.3868C114.143-93.5449 114.16-92.6861 114.16-91.7385L114.16 9.77721C114.16 20.6277 107.442 26.7217 97.6113 28.3037C84.3077 30.4109 69.7967 32.0952 55.6749 33.6401Z"/>
</svg>