<svg xmlns="http://www.w3.org/2000/svg" viewBox="11.2588 -96.6329 122.9 122.89">
  <path d="M72.7024 26.2544C106.482 26.2544 134.155-1.41796 134.155-35.1893C134.155-68.9606 106.482-96.6329 72.7024-96.6329C38.9311-96.6329 11.2588-68.9606 11.2588-35.1893C11.2588-1.41796 38.9311 26.2544 72.7024 26.2544ZM72.7024-74.7008C73.7012-74.7008 74.7084-74.4342 76.4906-72.5801L103.457-43.4675C104.244-42.6723 104.832-41.8343 104.832-40.7045C104.832-39.05 103.597-38.1997 102.039-38.1997L85.6411-38.1997L85.6411-5.82702C85.6411-1.31113 83.3049 1.10541 78.9499 1.10541L66.5354 1.10541C62.1888 1.10541 59.8442-1.31113 59.8442-5.82702L59.8442-38.1997L43.3486-38.1997C41.7745-38.1997 40.5812-39.05 40.5812-40.6876C40.5812-41.8259 41.161-42.6976 41.9224-43.4675L68.9227-72.5801C70.7049-74.4342 71.7205-74.7008 72.7024-74.7008Z"/>
</svg>