<svg xmlns="http://www.w3.org/2000/svg" viewBox="16.084 -90.7201 110.91 110.92">
  <path d="M32.7039 20.1976L110.373 20.1976C121.246 20.1976 126.993 14.3061 126.993 3.60292L126.993-74.1255C126.993-84.8286 121.246-90.7201 110.373-90.7201L32.7039-90.7201C21.8399-90.7201 16.084-84.9726 16.084-74.1255L16.084 3.60292C16.084 14.4501 21.8399 20.1976 32.7039 20.1976ZM32.8648 16.2389C24.4111 16.2389 20.0342 11.8788 20.0342 3.3999L20.0342-73.9224C20.0342-82.4098 24.4111-86.7615 32.8648-86.7615L110.212-86.7615C118.378-86.7615 123.043-82.4098 123.043-73.9224L123.043 3.3999C123.043 11.8788 118.378 16.2389 110.212 16.2389ZM48.8852-16.799L94.2724-16.799C96.4094-16.799 97.4971-19.3297 96.2149-21.4583L74.3615-57.6135C73.041-59.7804 70.3241-59.7635 69.0121-57.6135L46.8623-21.4583C45.6774-19.3634 46.6762-16.799 48.8852-16.799Z" />
</svg>