<svg xmlns="http://www.w3.org/2000/svg" viewBox="15.2843 -89.9109 154.48 109.29">
  <path d="M66.5405-82.7529L167.785-82.7529C168.987-82.7529 169.769-83.5987 169.769-84.728C169.769-85.8572 168.987-86.703 167.785-86.703L66.5405-86.703C65.4113-86.703 64.5654-85.8572 64.5654-84.728C64.5654-83.5987 65.4113-82.7529 66.5405-82.7529ZM66.5405-49.7807L167.785-49.7807C168.987-49.7807 169.769-50.6265 169.769-51.7558C169.769-52.8851 168.987-53.7309 167.785-53.7309L66.5405-53.7309C65.4113-53.7309 64.5654-52.8851 64.5654-51.7558C64.5654-50.6265 65.4113-49.7807 66.5405-49.7807ZM66.5405-16.8085L167.785-16.8085C168.987-16.8085 169.769-17.6544 169.769-18.7836C169.769-19.9129 168.987-20.7587 167.785-20.7587L66.5405-20.7587C65.4113-20.7587 64.5654-19.9129 64.5654-18.7836C64.5654-17.6544 65.4113-16.8085 66.5405-16.8085ZM66.5405 16.1636L126.99 16.1636C128.119 16.1636 128.901 15.3178 128.901 14.1885C128.901 13.0593 128.119 12.2135 126.99 12.2135L66.5405 12.2135C65.4113 12.2135 64.5654 13.0593 64.5654 14.1885C64.5654 15.3178 65.4113 16.1636 66.5405 16.1636ZM18.6946-69.3137L41.486-69.3137C43.9358-69.3137 44.9132-71.9457 43.3858-74.0062L32.5808-88.2265C31.3154-89.8473 28.9371-89.9109 27.5998-88.2265L16.8837-74.0062C15.2843-71.9457 16.2533-69.3137 18.6946-69.3137ZM41.486-1.22566L18.6946-1.22566C16.2533-1.22566 15.2843 1.40628 16.8837 3.46684L27.5998 17.6871C28.9456 19.3799 31.3154 19.3079 32.5808 17.6871L43.3858 3.46684C44.8963 1.42315 43.9526-1.22566 41.486-1.22566ZM31.9284-75.2339C31.9284-76.19 31.0866-77.0318 30.1305-77.0318C29.1109-77.0318 28.269-76.19 28.269-75.2339L28.269 4.6945C28.269 5.65899 29.1109 6.50088 30.1305 6.50088C31.0866 6.50088 31.9284 5.65899 31.9284 4.6945Z" />
</svg>