<svg xmlns="http://www.w3.org/2000/svg" viewBox="16.084 -94.3261 147.91 114.67">
  <path d="M32.7039 20.3415L147.45 20.3415C158.314 20.3415 163.998 14.4501 163.998 3.74689L163.998-62.7564C163.998-73.4596 158.314-79.3427 147.45-79.3427L128.238-79.3427C122.972-79.3427 121.732-79.6132 118.35-83.3805L112.797-89.5774C109.372-93.3149 106.93-94.3261 100.984-94.3261L77.3623-94.3261C71.4073-94.3261 68.9654-93.3149 65.5496-89.5774L59.9877-83.3805C56.7579-79.7571 55.2935-79.3427 50.1084-79.3427L32.7039-79.3427C21.8399-79.3427 16.084-73.4596 16.084-62.7564L16.084 3.74689C16.084 14.4501 21.8399 20.3415 32.7039 20.3415ZM50.3041-28.0448C48.7345-28.0448 48.523-29.1741 49.3565-30.4434L57.444-43.0558C58.7982-45.0618 60.7109-45.1085 62.1202-43.0558L70.2966-30.4434C71.1385-29.3181 70.6942-28.0448 69.1966-28.0448L61.6574-28.0448C63.5914-14.0546 75.5537-3.35765 90.0771-3.35765C98.0482-3.35765 105.202-6.63012 110.447-11.8287C112.553-13.8932 115.197-11.0937 113.307-9.15625C107.364-3.22993 99.11 0.486807 90.0771 0.486807C73.384 0.486807 59.7554-11.8681 57.7156-28.0448ZM129.85-36.174C131.42-36.174 131.64-35.1252 130.798-33.7839L122.71-21.235C121.364-19.1655 119.452-19.1103 118.042-21.235L109.866-33.7839C109.024-34.9092 109.46-36.174 110.958-36.174L118.505-36.174C116.563-50.1727 104.6-60.8697 90.0771-60.8697C82.106-60.8697 74.9604-57.5972 69.7157-52.3986C67.6731-50.3341 64.9574-53.1972 66.856-55.0626C72.7986-60.9889 81.0442-64.7777 90.0771-64.7777C106.77-64.7777 120.407-52.3592 122.439-36.174Z"/>
</svg>