<svg xmlns="http://www.w3.org/2000/svg" viewBox="16.084 -103.696 210.1 136.85">
  <path d="M98.5229-40.0949L143.588-40.0949C148.954-40.0949 152.864-43.8612 152.864-49.2993L152.864-94.483C152.864-99.9212 148.954-103.696 143.588-103.696L98.5229-103.696C93.0931-103.696 89.3353-99.9212 89.3353-94.483L89.3353-49.2993C89.3353-43.8612 93.0931-40.0949 98.5229-40.0949ZM98.5229-43.8848C95.3393-43.8848 93.1252-46.1073 93.1252-49.2993L93.1252-94.483C93.1252-97.6834 95.3393-99.906 98.5229-99.906L143.588-99.906C146.78-99.906 149.066-97.6834 149.066-94.483L149.066-49.2993C149.066-46.1073 146.78-43.8848 143.588-43.8848ZM98.5229 33.1565L143.588 33.1565C148.954 33.1565 152.864 29.3902 152.864 23.952L152.864-21.2316C152.864-26.6698 148.954-30.4445 143.588-30.4445L98.5229-30.4445C93.0931-30.4445 89.3353-26.6698 89.3353-21.2316L89.3353 23.952C89.3353 29.3902 93.0931 33.1565 98.5229 33.1565ZM98.5229 29.3665C95.3393 29.3665 93.1252 27.144 93.1252 23.952L93.1252-21.2316C93.1252-24.4321 95.3393-26.6546 98.5229-26.6546L143.588-26.6546C146.78-26.6546 149.066-24.4321 149.066-21.2316L149.066 23.952C149.066 27.144 146.78 29.3665 143.588 29.3665ZM171.855 33.1565L216.92 33.1565C222.286 33.1565 226.188 29.3902 226.188 23.952L226.188-21.2316C226.188-26.6698 222.286-30.4445 216.92-30.4445L171.855-30.4445C166.416-30.4445 162.659-26.6698 162.659-21.2316L162.659 23.952C162.659 29.3902 166.416 33.1565 171.855 33.1565ZM171.855 29.3665C168.671 29.3665 166.449 27.144 166.449 23.952L166.449-21.2316C166.449-24.4321 168.671-26.6546 171.855-26.6546L216.92-26.6546C220.112-26.6546 222.389-24.4321 222.389-21.2316L222.389 23.952C222.389 27.144 220.112 29.3665 216.92 29.3665ZM25.2716 33.1565L70.345 33.1565C75.7027 33.1565 79.613 29.3902 79.613 23.952L79.613-21.2316C79.613-26.6698 75.7027-30.4445 70.345-30.4445L25.2716-30.4445C19.8418-30.4445 16.084-26.6698 16.084-21.2316L16.084 23.952C16.084 29.3902 19.8418 33.1565 25.2716 33.1565ZM60.419 18.0526C60.419 19.6605 58.4642 20.6548 56.8732 19.6138L30.3588 3.423C28.7127 2.40734 28.7043 0.185941 30.3504-0.846587L56.8732-16.9019C58.5362-17.9428 60.419-16.957 60.419-15.3491Z"/>
</svg>