<svg xmlns="http://www.w3.org/2000/svg" viewBox="11.2588 -96.9377 122.9 122.9">
  <path d="M72.7024 25.958C106.626 25.958 134.155-1.57037 134.155-35.4857C134.155-69.4094 106.626-96.9377 72.7024-96.9377C38.7872-96.9377 11.2588-69.4094 11.2588-35.4857C11.2588-1.57037 38.7872 25.958 72.7024 25.958ZM72.7024 21.9319C40.927 21.9319 15.2129-3.71024 15.2129-35.4857C15.2129-67.2611 40.927-92.9836 72.7024-92.9836C104.478-92.9836 130.128-67.2611 130.128-35.4857C130.128-3.71024 104.478 21.9319 72.7024 21.9319ZM72.5034-8.41221C73.8992-8.41221 74.6224-9.2243 74.614-10.637L74.4745-32.4195L93.7764-20.4027C94.39-20.0472 94.6605-19.8611 95.3078-19.8611C96.4117-19.8611 97.3464-20.7452 97.3464-22.0055C97.3464-22.8895 97.0124-23.4266 96.1199-23.9851L76.5092-35.795L96.1199-47.588C97.0843-48.1549 97.4184-48.6835 97.4184-49.576C97.4184-50.7559 96.5557-51.7839 95.3078-51.7839C94.7325-51.7839 94.3095-51.5978 93.7764-51.2424L74.4745-39.2592L74.542-60.8933C74.5504-62.3144 73.8272-63.1265 72.5034-63.1265C71.1711-63.1265 70.3506-62.2976 70.359-60.8933L70.4349-39.2592L51.5481-50.946C51.0785-51.2379 50.736-51.424 50.0887-51.424C48.9127-51.424 47.9061-50.5399 47.9061-49.2161C47.9061-48.3236 48.3841-47.7949 49.1326-47.2916L68.4553-35.723L49.2766-24.201C48.3841-23.6426 47.9781-23.0419 47.9781-22.2214C47.9781-20.9695 48.8408-20.1575 49.9363-20.1575C50.592-20.1575 50.9345-20.3352 51.5481-20.6906L70.4349-32.4195L70.359-10.637C70.3506-9.24117 71.1711-8.41221 72.5034-8.41221Z" />
</svg>