<svg xmlns="http://www.w3.org/2000/svg" viewBox="16.084 -90.7201 110.91 110.92">
  <path d="M32.7039 20.1976L110.373 20.1976C121.246 20.1976 126.993 14.3061 126.993 3.60292L126.993-74.1255C126.993-84.8286 121.246-90.7201 110.373-90.7201L32.7039-90.7201C21.8399-90.7201 16.084-84.9726 16.084-74.1255L16.084 3.60292C16.084 14.4501 21.8399 20.1976 32.7039 20.1976ZM32.8648 16.2389C24.4111 16.2389 20.0342 11.8788 20.0342 3.3999L20.0342-73.9224C20.0342-82.4098 24.4111-86.7615 32.8648-86.7615L110.212-86.7615C118.378-86.7615 123.043-82.4098 123.043-73.9224L123.043 3.3999C123.043 11.8788 118.378 16.2389 110.212 16.2389ZM38.6381-8.09116C39.7044-8.09116 40.2077-8.64117 40.4828-9.6692L44.4154-24.5277L61.9987-24.5277L66.0203-9.6692C66.2953-8.64117 66.8537-8.09116 67.8817-8.09116C68.876-8.09116 69.7095-8.72159 69.7095-9.9189C69.7095-10.3547 69.6291-10.7186 69.5318-11.0358L56.0629-59.638C55.6101-61.1272 54.9207-62.0793 53.2875-62.0793C51.6543-62.0793 50.8844-61.1104 50.4317-59.5661L36.9797-11.0358C36.8824-10.7355 36.7935-10.3632 36.7935-9.9189C36.7935-8.72159 37.627-8.09116 38.6381-8.09116ZM45.16-27.6332L52.9574-56.9257L53.3764-56.9257L61.2541-27.6332ZM90.5304-9.54715C99.0464-9.54715 104.21-14.9611 104.21-22.1517C104.21-29.7663 99.236-33.2204 93.4969-36.0689L89.6159-37.9607C84.4471-40.5049 80.6927-43.6036 80.6927-48.9034C80.6927-54.7156 85.1248-57.5263 90.2975-57.5263C96.7193-57.5263 99.4328-53.3777 99.9192-47.1252C100.05-46.0758 100.672-45.4707 101.65-45.4707C102.741-45.4707 103.477-46.1731 103.477-47.3366C103.477-47.7089 103.461-48.0981 103.355-48.8472C102.441-56.6063 97.167-60.6953 90.2975-60.6953C83.0856-60.6953 77.1008-56.4713 77.1008-48.7088C77.1008-41.8816 81.3124-38.0636 87.7078-34.9272L91.5887-33.0354C96.8082-30.5463 100.618-27.6253 100.618-21.8598C100.618-15.9504 96.2829-12.733 90.5304-12.733C83.3044-12.733 80.4852-17.4193 79.825-23.8287C79.6855-25.0727 78.9027-25.4534 78.1412-25.4534C77.1385-25.4534 76.2499-24.8865 76.2499-23.7145C76.2499-23.3422 76.2583-22.9064 76.3472-22.1826C77.2105-14.9443 82.1155-9.54715 90.5304-9.54715ZM90.378-2.33017C91.0551-2.33017 91.6517-2.92686 91.6517-3.60396L91.6517-66.2151C91.6517-66.9006 91.0551-67.4973 90.378-67.4973C89.6924-67.4973 89.0957-66.9006 89.0957-66.2151L89.0957-3.60396C89.0957-2.92686 89.6924-2.33017 90.378-2.33017Z" />
</svg>