<svg xmlns="http://www.w3.org/2000/svg" viewBox="4.98099 -80.3414 103.35 90.14">
  <path d="M106.326 9.80203C107.409 9.80203 108.335 8.87579 108.335 7.80163L108.335-78.341C108.335-79.4152 107.409-80.3414 106.326-80.3414C105.235-80.3414 104.309-79.4152 104.309-78.341L104.309 7.80163C104.309 8.87579 105.235 9.80203 106.326 9.80203ZM82.976 4.13606L82.976-74.6755C82.976-78.6532 80.4369-80.3414 77.7414-80.3414C76.6751-80.3414 75.5284-79.9945 74.5257-79.4444L8.41208-39.7969C6.19123-38.4601 4.98099-37.2881 4.98099-35.2697C4.98099-33.2513 6.19123-32.0793 8.41208-30.7425L74.5257 8.90504C75.5284 9.45505 76.6751 9.80203 77.7414 9.80203C80.4369 9.80203 82.976 8.11377 82.976 4.13606ZM79.0258 3.78285C79.0258 5.00208 78.3358 5.62856 77.4849 5.62856C77.0997 5.62856 76.6425 5.54814 76.1217 5.25177L10.1611-34.0971C9.54308-34.4824 9.31025-34.876 9.31025-35.2697C9.31025-35.6634 9.54308-36.057 10.1611-36.4423L76.1217-75.7912C76.6425-76.0875 77.0997-76.168 77.4849-76.168C78.3358-76.168 79.0258-75.5415 79.0258-74.3223Z"/>
</svg>