<svg xmlns="http://www.w3.org/2000/svg" viewBox="4.05979 -80.3414 155.54 90.14">
  <path d="M159.601 4.13606L159.601-74.6755C159.601-78.6532 157.062-80.3414 154.438-80.3414C153.3-80.3414 152.145-79.9945 151.142-79.4444L85.0287-39.7969C82.8078-38.4601 81.6696-37.2881 81.6696-35.2697C81.6696-33.2513 82.8078-32.0793 85.0287-30.7425L151.142 8.90504C152.145 9.45505 153.3 9.80203 154.438 9.80203C157.062 9.80203 159.601 8.11377 159.601 4.13606ZM81.9913 4.13606L81.9913-74.6755C81.9913-78.6532 79.4521-80.3414 76.7566-80.3414C75.6904-80.3414 74.5352-79.9945 73.5325-79.4444L7.41889-39.7969C5.20648-38.4601 4.05979-37.2881 4.05979-35.2697C4.05979-33.2513 5.20648-32.0793 7.41889-30.7425L73.5325 8.90504C74.5352 9.45505 75.6904 9.80203 76.7566 9.80203C79.4521 9.80203 81.9913 8.11377 81.9913 4.13606Z"/>
</svg>