<svg xmlns="http://www.w3.org/2000/svg" viewBox="16.084 -98.8504 129.06 127.16">
  <path d="M21.5003 19.5272L139.74 19.5272L139.74 17.2383C139.74 16.3587 139.131 15.8216 138.243 15.8216L134.222 15.8216L134.222-61.8392L140.33-61.8392C141.751-61.8392 142.428-62.7188 142.428-63.8143C142.428-64.402 142.077-65.1719 141.159-65.7005L86.7906-97.0941C84.793-98.2622 82.6982-98.8504 80.6202-98.8504C78.5338-98.8504 76.3669-98.2622 74.3693-97.0941L20.001-65.7005C19.1467-65.1719 18.8042-64.402 18.8042-63.8143C18.8042-62.7188 19.4088-61.8392 20.9019-61.8392L27.0183-61.8392L27.0183 15.8216L22.9973 15.8216C22.1093 15.8216 21.5003 16.3587 21.5003 17.2383ZM30.8926 15.8216L30.8926-67.3573L76.6492-93.4358C77.8685-94.1258 79.2485-94.511 80.6202-94.511C81.9834-94.511 83.2915-94.1258 84.5107-93.4358L130.356-67.3573L130.356 15.8216ZM18.0591 28.311L143.173 28.311C144.222 28.311 145.148 27.3847 145.148 26.3275C145.148 25.2066 144.222 24.3524 143.173 24.3524L18.0591 24.3524C16.9382 24.3524 16.084 25.2066 16.084 26.3275C16.084 27.3847 16.9382 28.311 18.0591 28.311ZM67.7192-7.6345L83.1216-7.6345C93.2202-7.6345 100.991-12.2944 100.991-21.6056C100.991-29.2118 95.2133-33.8885 87.9631-34.5656L87.9631-35.1033C94.0115-36.0048 98.1765-40.9947 98.1765-46.9672C98.1765-55.1104 91.4977-59.5925 82.8168-59.5925L67.7192-59.5925C66.2469-59.5925 65.2442-58.5898 65.2442-57.0455L65.2442-10.1815C65.2442-8.64566 66.2469-7.6345 67.7192-7.6345ZM68.984-36.1397L68.984-56.3645L81.9581-56.3645C88.6925-56.3645 94.3647-53.3125 94.3647-46.578C94.3647-39.3188 88.3585-36.1397 80.8918-36.1397ZM68.984-11.0234L68.984-32.7846L81.8057-32.7846C89.9073-32.7846 97.0989-29.741 97.0989-21.8002C97.0989-14.0034 90.3178-11.0234 82.521-11.0234ZM73.0787-57.9386L75.6471-57.9386L75.6471-65.9755C75.6471-66.6313 75.042-67.2364 74.3311-67.2364C73.6754-67.2364 73.0787-66.6313 73.0787-65.9755ZM81.9496-57.9386L84.5984-57.9386L84.5984-65.9755C84.5984-66.6313 83.9933-67.2364 83.274-67.2364C82.5548-67.2364 81.9496-66.6313 81.9496-65.9755ZM73.0787-9.58484L73.0787-0.675652C73.0787-0.0283512 73.6754 0.576769 74.3311 0.576769C75.042 0.576769 75.6471-0.0283512 75.6471-0.675652L75.6471-9.58484ZM81.9496-9.58484L81.9496-0.675652C81.9496-0.0283512 82.5548 0.576769 83.274 0.576769C83.9933 0.576769 84.5984-0.0283512 84.5984-0.675652L84.5984-9.58484Z"/>
</svg>