<svg xmlns="http://www.w3.org/2000/svg" viewBox="11.2588 -95.723 144.72 120.7">
  <path d="M11.2588-23.3383C11.2588-5.52781 17.7981 10.8902 28.5446 23.5201C29.7593 24.9761 31.7782 24.9041 33.2258 23.5285L46.0835 10.7429C47.3364 9.49833 47.3449 7.8517 46.2443 6.44632C39.6161-1.68847 35.756-12.0711 35.756-23.3383C35.756-47.989 54.3498-68.297 78.1963-70.993C79.9571-71.1539 81.1634-72.5126 81.1634-74.2014L81.1634-92.193C81.1634-94.2035 79.6354-95.723 77.6249-95.4902C40.548-92.4725 11.2588-61.3083 11.2588-23.3383ZM155.982-23.3383C155.982-61.3083 126.773-92.4725 89.6154-95.4902C87.6049-95.723 86.0769-94.2035 86.0769-92.193L86.0769-74.2014C86.0769-72.5126 87.2832-71.1539 89.116-70.993C112.89-68.297 131.493-47.989 131.493-23.3383C131.493-12.0711 127.633-1.68847 120.996 6.44632C119.904 7.8517 119.912 9.49833 121.157 10.7429L134.086 23.5285C135.534 24.9041 137.625 24.9041 138.912 23.3761C149.523 10.7463 155.982-5.5998 155.982-23.3383ZM70.751 3.53378L86.1534 3.53378C96.252 3.53378 104.031-1.12609 104.031-10.4374C104.031-18.0435 98.2451-22.7287 91.0033-23.3974L91.0033-23.935C97.0433-24.8365 101.217-29.8265 101.217-35.7989C101.217-43.9506 94.4575-48.4963 85.857-48.4963L70.751-48.4963C69.2787-48.4963 68.276-47.4215 68.276-45.8772L68.276 0.986752C68.276 2.45063 69.2787 3.53378 70.751 3.53378ZM72.0242-24.9715L72.0242-45.1962L84.9898-45.1962C91.7243-45.1962 97.3964-42.2162 97.3964-35.4097C97.3964-28.1506 91.3267-24.9715 83.9235-24.9715ZM72.0242 0.144866L72.0242-21.6163L84.8374-21.6163C92.939-21.6163 100.131-18.6447 100.131-10.632C100.131-2.83517 93.3496 0.144866 85.5528 0.144866ZM76.0385-46.7703L78.6788-46.7703L78.6788-54.8072C78.6788-55.535 78.0737-56.0681 77.3629-56.0681C76.6351-56.0681 76.0385-55.535 76.0385-54.8072ZM84.9898-46.7703L87.5582-46.7703L87.5582-54.8072C87.5582-55.535 87.0251-56.0681 86.3058-56.0681C85.5865-56.0681 84.9898-55.535 84.9898-54.8072ZM76.0385 1.58344L76.0385 10.4206C76.0385 11.1399 76.6351 11.745 77.3629 11.745C78.0737 11.745 78.6788 11.1399 78.6788 10.4206L78.6788 1.58344ZM84.9898 1.58344L84.9898 10.4206C84.9898 11.1399 85.5865 11.745 86.3058 11.745C87.0251 11.745 87.5582 11.1399 87.5582 10.4206L87.5582 1.58344Z"/>
</svg>