<svg xmlns="http://www.w3.org/2000/svg" viewBox="11.2588 -96.9817 143.2 123.42">
  <path d="M11.2588-40.294C11.2588-21.8632 23.8577-9.74671 43.0039-9.74671C61.5405-9.74671 74.1141-20.4791 74.1141-36.5609C74.1141-43.0654 71.4096-49.558 67.5416-53.0538C66.8313-53.5779 66.3747-53.8063 65.6092-53.8063C64.4631-53.8063 63.6595-53.0195 63.6595-51.9155C63.6595-51.0956 64.0228-50.6428 64.737-49.9539C68.3098-46.47 70.2528-41.547 70.2528-36.5862C70.2528-22.8687 59.3202-13.6969 43.0292-13.6969C26.1838-13.6969 15.209-24.2527 15.209-40.3744C15.209-49.3387 19.9071-58.9216 27.0386-64.2844L25.9824-68.1379C17.112-62.4753 11.2588-51.1198 11.2588-40.294ZM24.2975-69.4634C24.2975-59.3917 31.2249-50.0422 45.0437-50.0422C46.029-50.0422 47.0188-51.0404 47.0188-52.0173C47.0188-53.0746 46.029-53.9924 45.0437-53.9924C33.75-53.9924 28.1757-61.4849 28.1757-69.4634C28.1757-78.1105 34.7359-86.6997 47.0795-86.6997C51.2484-86.6997 55.523-85.6756 59.4591-83.4581L61.7598-86.7486C57.1005-89.4143 52.1409-90.6498 47.1599-90.6498C32.3036-90.6498 24.2975-80.1317 24.2975-69.4634ZM53.7588-71.4317C53.7504-70.1714 54.6598-69.262 55.7339-69.262C56.7828-69.262 57.6837-70.1208 57.7006-71.2287C58.1831-83.9142 67.491-93.0315 80.3542-93.0315C87.3294-93.0315 93.835-89.8743 96.1925-82.6061C96.531-81.6495 97.1108-81.6411 97.9021-81.9628C100.768-83.1567 103.659-83.6859 106.478-83.6139C118.864-83.4615 127.379-74.5939 127.379-61.3545C127.379-35.9777 88.5413-35.7174 88.5413-10.6494C88.5413 0.227017 96.3786 6.72305 109.127 6.72305C110.231 6.72305 111.776 6.64263 113.456 6.56221C114.201 18.3845 120.037 26.4423 128.514 26.4423C140.059 26.4423 146.301 11.3042 146.301-10.4446C146.301-14.4212 146.034-18.2044 145.751-22.0173L141.657-20.4646C142.084-16.389 142.351-13.4016 142.351-10.3175C142.351 9.25203 137.471 22.4836 128.514 22.4836C121.552 22.4836 117.145 14.7138 117.145 3.8262C117.145 3.11086 116.751 2.63678 116.011 2.70876C114.728 2.78075 110.711 2.92471 109.661 2.92471C99.3604 2.92471 92.4915-2.06187 92.4915-10.6663C92.4915-32.4044 131.329-32.8093 131.329-61.3545C131.329-77.0853 121.223-87.5725 106.647-87.5725C104.45-87.6445 101.554-87.1873 98.938-86.2982C95.3495-93.3375 88.146-96.9817 80.3627-96.9817C65.3849-96.9817 54.563-86.617 53.7588-71.4317ZM123.832-17.0419C123.832-15.9126 124.742-15.0921 125.807-15.0668C143.015-14.8896 154.463-25.2796 154.463-41.0014C154.463-55.6919 144.03-66.1622 128.493-67.1689L128.371-63.1552C141.636-62.7064 150.512-53.8771 150.512-41.0014C150.512-27.686 140.625-18.8567 125.807-18.9366C124.742-18.9703 123.832-18.0907 123.832-17.0419ZM91.0715-6.45067C88.0031-5.507 83.5885-4.93563 80.046-4.93563C71.3955-4.93563 61.5297-7.99103 56.7254-14.7041L53.4095-12.0142C59.517-4.6499 69.1831-0.985435 79.9111-0.985435C83.309-0.985435 88.1167-1.57368 92.0691-2.48755ZM71.0936-42.8388L72.5063-39.172C85.0501-41.741 91.4325-49.4602 91.2886-62.2121C91.2886-63.2694 90.4343-64.1872 89.3135-64.1872C88.2562-64.1872 87.3384-63.2694 87.3384-62.2121C87.3384-51.1434 82.2843-44.8875 71.0936-42.8388Z"/>
</svg>