<svg xmlns="http://www.w3.org/2000/svg" viewBox="16.084 -92.7385 133.33 122.58">
  <path d="M82.7381 29.8384C84.0748 29.8384 85.1872 29.1191 86.2023 27.5248L98.6382 8.55017L126.098 8.55017C140.411 8.55017 149.417-0.634024 149.417-14.7688L149.417-69.4195C149.417-83.5543 140.411-92.7385 126.098-92.7385L39.403-92.7385C25.0905-92.7385 16.084-83.6983 16.084-69.4195L16.084-14.7688C16.084-0.490057 25.0905 8.55017 39.403 8.55017L66.8295 8.55017L79.2653 27.5248C80.2804 29.1191 81.3928 29.8384 82.7381 29.8384ZM82.7381 25.9349L70.0942 6.23202C69.4092 5.078 68.8001 4.59998 67.172 4.59998L39.547 4.59998C27.5351 4.59998 20.0342-3.03203 20.0342-14.9128L20.0342-69.2755C20.0342-81.2198 27.5351-88.7799 39.547-88.7799L125.954-88.7799C137.678-88.7799 145.467-81.2198 145.467-69.2755L145.467-14.9128C145.467-3.03203 137.678 4.59998 125.954 4.59998L98.2957 4.59998C96.6676 4.59998 96.0585 5.078 95.3735 6.23202Z"/>
</svg>