<svg xmlns="http://www.w3.org/2000/svg" viewBox="11.2588 -96.6329 122.9 122.89">
  <path d="M72.7024 26.2544C106.482 26.2544 134.155-1.41796 134.155-35.1893C134.155-68.9606 106.482-96.6329 72.7024-96.6329C38.9311-96.6329 11.2588-68.9606 11.2588-35.1893C11.2588-1.41796 38.9311 26.2544 72.7024 26.2544ZM72.7024 22.2367C56.9233 22.2367 42.7058 15.9684 32.344 5.67918L32.344-54.976C32.344-60.3731 34.909-62.9803 40.2004-62.9803L81.3113-62.9803C86.6112-62.9803 89.1677-60.3731 89.1677-54.976L89.1677 19.8325C83.9742 21.4325 78.4589 22.2367 72.7024 22.2367ZM47.6283 9.94144L55.1034 9.94144C55.6365 9.94144 55.992 9.44204 55.992 8.90047L55.992 1.59464C55.992 0.997952 55.6365 0.562108 55.1034 0.562108L47.6283 0.562108C47.1036 0.562108 46.6762 0.997952 46.6762 1.59464L46.6762 8.90047C46.6762 9.44204 47.1036 9.94144 47.6283 9.94144ZM65.8325 9.94144L73.2991 9.94144C73.8323 9.94144 74.1961 9.44204 74.1961 8.90047L74.1961 1.59464C74.1961 0.997952 73.8323 0.562108 73.2991 0.562108L65.8325 0.562108C65.2993 0.562108 64.8719 0.997952 64.8719 1.59464L64.8719 8.90047C64.8719 9.44204 65.2993 9.94144 65.8325 9.94144ZM47.6283-7.61203L55.1034-7.61203C55.6365-7.61203 55.992-8.04787 55.992-8.57257L55.992-15.9504C55.992-16.4835 55.6365-16.9109 55.1034-16.9109L47.6283-16.9109C47.1036-16.9109 46.6762-16.4835 46.6762-15.9504L46.6762-8.57257C46.6762-8.04787 47.1036-7.61203 47.6283-7.61203ZM65.8325-7.61203L73.2991-7.61203C73.8323-7.61203 74.1961-8.04787 74.1961-8.57257L74.1961-15.9504C74.1961-16.4835 73.8323-16.9109 73.2991-16.9109L65.8325-16.9109C65.2993-16.9109 64.8719-16.4835 64.8719-15.9504L64.8719-8.57257C64.8719-8.04787 65.2993-7.61203 65.8325-7.61203ZM47.6283-25.0851L55.1034-25.0851C55.6365-25.0851 55.992-25.5209 55.992-26.0541L55.992-33.4234C55.992-33.9566 55.6365-34.3924 55.1034-34.3924L47.6283-34.3924C47.1036-34.3924 46.6762-33.9566 46.6762-33.4234L46.6762-26.0541C46.6762-25.5209 47.1036-25.0851 47.6283-25.0851ZM65.8325-25.0851L73.2991-25.0851C73.8323-25.0851 74.1961-25.5209 74.1961-26.0541L74.1961-33.4234C74.1961-33.9566 73.8323-34.3924 73.2991-34.3924L65.8325-34.3924C65.2993-34.3924 64.8719-33.9566 64.8719-33.4234L64.8719-26.0541C64.8719-25.5209 65.2993-25.0851 65.8325-25.0851ZM47.6283-42.5497L55.1034-42.5497C55.6365-42.5497 55.992-42.9855 55.992-43.5102L55.992-50.888C55.992-51.4296 55.6365-51.8486 55.1034-51.8486L47.6283-51.8486C47.1036-51.8486 46.6762-51.4296 46.6762-50.888L46.6762-43.5102C46.6762-42.9855 47.1036-42.5497 47.6283-42.5497ZM65.8325-42.5497L73.2991-42.5497C73.8323-42.5497 74.1961-42.9855 74.1961-43.5102L74.1961-50.888C74.1961-51.4296 73.8323-51.8486 73.2991-51.8486L65.8325-51.8486C65.2993-51.8486 64.8719-51.4296 64.8719-50.888L64.8719-43.5102C64.8719-42.9855 65.2993-42.5497 65.8325-42.5497ZM92.6039 18.7663L92.6039-46.2653L110.084-46.2653C115.448-46.2653 118.013-43.7385 118.013-38.3414L118.013 0.0593276C111.519 8.42245 102.762 14.991 92.6039 18.7663ZM101.869 5.04032L108.659 5.04032C109.094 5.04032 109.441 4.62134 109.441 4.1855L109.441-2.50678C109.441-2.93419 109.094-3.3616 108.659-3.3616L101.869-3.3616C101.433-3.3616 101.014-2.93419 101.014-2.50678L101.014 4.1855C101.014 4.62134 101.433 5.04032 101.869 5.04032ZM101.869-10.8963L108.659-10.8963C109.094-10.8963 109.441-11.3153 109.441-11.6876L109.441-18.4434C109.441-18.8877 109.094-19.2982 108.659-19.2982L101.869-19.2982C101.433-19.2982 101.014-18.8877 101.014-18.4434L101.014-11.6876C101.014-11.3153 101.433-10.8963 101.869-10.8963ZM101.869-26.6974L108.659-26.6974C109.094-26.6974 109.441-27.1164 109.441-27.5522L109.441-34.2445C109.441-34.6803 109.094-35.0993 108.659-35.0993L101.869-35.0993C101.433-35.0993 101.014-34.6803 101.014-34.2445L101.014-27.5522C101.014-27.1164 101.433-26.6974 101.869-26.6974Z"/>
</svg>