<svg xmlns="http://www.w3.org/2000/svg" viewBox="16.084 -90.7201 145.87 110.92">
  <path d="M57.3658-35.1173C57.3658-33.5016 58.5418-32.2536 60.1491-32.2536L118.047-32.2536C119.663-32.2536 120.839-33.5016 120.839-35.1173C120.839-36.733 119.663-37.981 118.047-37.981L60.1491-37.981C58.5418-37.981 57.3658-36.733 57.3658-35.1173ZM32.7039 20.1976L86.4812 20.1976L86.4812 16.2389L32.8648 16.2389C24.4111 16.2389 20.0342 11.8788 20.0342 3.3999L20.0342-32.6844L16.084-32.6844L16.084 3.60292C16.084 14.4501 21.8399 20.1976 32.7039 20.1976ZM91.7153 20.1976L145.332 20.1976C156.204 20.1976 161.952 14.3061 161.952 3.60292L161.952-32.6844L158.001-32.6844L158.001 3.3999C158.001 11.8788 153.337 16.2389 145.171 16.2389L91.7153 16.2389ZM158.001-37.8381L161.952-37.8381L161.952-74.1255C161.952-84.8286 156.204-90.7201 145.332-90.7201L91.7153-90.7201L91.7153-86.7615L145.171-86.7615C153.337-86.7615 158.001-82.4098 158.001-73.9224ZM16.084-37.8381L20.0342-37.8381L20.0342-73.9224C20.0342-82.4098 24.4111-86.7615 32.8648-86.7615L86.4812-86.7615L86.4812-90.7201L32.7039-90.7201C21.8399-90.7201 16.084-84.9726 16.084-74.1255Z"/>
</svg>