<svg xmlns="http://www.w3.org/2000/svg" viewBox="16.084 -93.7243 65.16 116.99">
  <path d="M31.1765 23.2654L66.1559 23.2654C76.0981 23.2654 81.2484 18.0769 81.2484 8.19364L81.2484-78.6526C81.2484-88.5358 76.0981-93.7243 66.1559-93.7243L31.1765-93.7243C21.2342-93.7243 16.084-88.5358 16.084-78.6526L16.084 8.19364C16.084 18.0769 21.2342 23.2654 31.1765 23.2654ZM31.4808 19.3871C23.5771 19.3871 20.0342 15.861 20.0342 7.99117L20.0342-78.4502C20.0342-86.32 23.5771-89.8461 31.4808-89.8461L65.8516-89.8461C73.7552-89.8461 77.2982-86.32 77.2982-78.4502L77.2982 7.99117C77.2982 15.861 73.7552 19.3871 65.8516 19.3871ZM34.2657-39.4127L63.0667-39.4127C67.1389-39.4127 69.4924-41.669 69.4924-45.3559L69.4924-74.5771C69.4924-78.264 67.1389-80.5203 63.0667-80.5203L34.2657-80.5203C30.1935-80.5203 27.84-78.264 27.84-74.5771L27.84-45.3559C27.84-41.669 30.1935-39.4127 34.2657-39.4127ZM31.7339-21.4116L36.8931-21.4116C38.1247-21.4116 39.0262-22.2327 39.0262-23.3839L39.0262-28.632C39.0262-29.7832 38.1247-30.6042 36.8931-30.6042L31.7339-30.6042C30.5107-30.6042 29.6896-29.7832 29.6896-28.632L29.6896-23.3839C29.6896-22.2327 30.5107-21.4116 31.7339-21.4116ZM45.9851-21.4116L51.1527-21.4116C52.3843-21.4116 53.2858-22.2327 53.2858-23.3839L53.2858-28.632C53.2858-29.7832 52.3843-30.6042 51.1527-30.6042L45.9851-30.6042C44.8423-30.6042 44.0212-29.7832 44.0212-28.632L44.0212-23.3839C44.0212-22.2327 44.8423-21.4116 45.9851-21.4116ZM60.3167-21.4116L65.4124-21.4116C66.716-21.4116 67.609-22.2327 67.609-23.3839L67.609-28.632C67.609-29.7832 66.716-30.6042 65.4124-30.6042L60.3167-30.6042C59.0935-30.6042 58.2809-29.7832 58.2809-28.632L58.2809-23.3839C58.2809-22.2327 59.0935-21.4116 60.3167-21.4116ZM31.7339-6.66552L36.8931-6.66552C38.1247-6.66552 39.0262-7.48659 39.0262-8.63778L39.0262-13.9579C39.0262-15.1091 38.1247-15.8581 36.8931-15.8581L31.7339-15.8581C30.5107-15.8581 29.6896-15.1091 29.6896-13.9579L29.6896-8.63778C29.6896-7.48659 30.5107-6.66552 31.7339-6.66552ZM45.9851-6.66552L51.1527-6.66552C52.3843-6.66552 53.2858-7.48659 53.2858-8.63778L53.2858-13.9579C53.2858-15.1091 52.3843-15.8581 51.1527-15.8581L45.9851-15.8581C44.8423-15.8581 44.0212-15.1091 44.0212-13.9579L44.0212-8.63778C44.0212-7.48659 44.8423-6.66552 45.9851-6.66552ZM60.3167-6.66552L65.4124-6.66552C66.716-6.66552 67.609-7.48659 67.609-8.63778L67.609-13.9579C67.609-15.1091 66.716-15.8581 65.4124-15.8581L60.3167-15.8581C59.0935-15.8581 58.2809-15.1091 58.2809-13.9579L58.2809-8.63778C58.2809-7.48659 59.0935-6.66552 60.3167-6.66552ZM31.7339 8.08058L36.8931 8.08058C38.1247 8.08058 39.0262 7.26794 39.0262 6.11675L39.0262 0.788226C39.0262-0.434945 38.1247-1.24758 36.8931-1.24758L31.7339-1.24758C30.5107-1.24758 29.6896-0.434945 29.6896 0.788226L29.6896 6.11675C29.6896 7.26794 30.5107 8.08058 31.7339 8.08058ZM45.9851 8.08058L51.1527 8.08058C52.3843 8.08058 53.2858 7.26794 53.2858 6.11675L53.2858 0.788226C53.2858-0.434945 52.3843-1.24758 51.1527-1.24758L45.9851-1.24758C44.8423-1.24758 44.0212-0.434945 44.0212 0.788226L44.0212 6.11675C44.0212 7.26794 44.8423 8.08058 45.9851 8.08058ZM60.3167 8.08058L65.4124 8.08058C66.716 8.08058 67.609 7.26794 67.609 6.11675L67.609 0.788226C67.609-0.434945 66.716-1.24758 65.4124-1.24758L60.3167-1.24758C59.0935-1.24758 58.2809-0.434945 58.2809 0.788226L58.2809 6.11675C58.2809 7.26794 59.0935 8.08058 60.3167 8.08058Z"/>
</svg>