<svg xmlns="http://www.w3.org/2000/svg" viewBox="16.084 -81.4117 110 92.98">
  <path d="M126.082-77.4615L126.082-81.4117C113.305-80.1502 104.577-77.069 94.3776-70.6612L68.8845-54.6577L39.7084-51.0641C25.1411-49.2442 16.084-40.4329 16.084-27.9352L16.084-18.9827C16.084-7.33584 21.5902-1.59678 32.7377-1.59678L41.3932-1.59678L41.3932-5.55541L32.7377-5.55541C24.2166-5.55541 20.0342-9.99593 20.0342-19.0333L20.0342-27.9352C20.0342-38.2548 27.7972-45.6748 40.2201-47.1943L66.031-50.3223C70.1622-50.8048 71.4017-51.4099 73.7041-52.8108L96.6108-67.2481C106.193-73.3218 114.367-76.2805 126.082-77.4615ZM126.082-1.59678L126.082-5.55541L75.2928-5.55541L75.2928-1.59678ZM58.332 11.5707C68.9846 11.5707 77.2544 3.30939 77.2544-7.27963C77.2544-17.8602 68.9846-26.1935 58.332-26.1935C47.7515-26.1935 39.4817-17.8602 39.4817-7.27963C39.4817 3.30939 47.7515 11.5707 58.332 11.5707ZM58.332 7.76844C49.9762 7.76844 43.356 1.0846 43.356-7.27963C43.356-15.7074 49.9762-22.3277 58.332-22.3277C66.7598-22.3277 73.3801-15.7074 73.3801-7.27963C73.3801 1.0846 66.7598 7.76844 58.332 7.76844ZM18.0085-76.6899L39.1595-76.6899C42.4825-76.6899 43.9807-76.055 45.6442-74.3915L67.082-52.8817L70.9102-54.9585L48.8886-76.9717C46.5401-79.4726 43.8238-80.5136 39.0245-80.5136L18.0085-80.5136C16.9427-80.5136 16.084-79.6464 16.084-78.6059C16.084-77.4851 16.9427-76.6899 18.0085-76.6899Z"/>
</svg>