<svg xmlns="http://www.w3.org/2000/svg" viewBox="15.809 -79.7194 154.79 91.03">
  <path d="M25.7715 9.2689C28.0137 9.2689 28.877 8.49505 29.2155 6.72637C35.0693-25.3488 48.3768-51.4178 74.4278-78.0317C75.1893-78.8736 74.614-79.7194 73.8103-79.7194L72.7531-79.7194C71.9196-79.7194 71.4798-79.6053 70.562-78.954C47.6294-60.8382 24.9639-33.6439 16.1813 6.3074C15.809 8.02097 16.3759 9.2689 18.4235 9.2689ZM168.288 9.2689C169.79 9.2689 170.598 8.32578 169.959 6.65888C158.882-21.0944 157.278-47.4553 164.355-78.4085C164.638-79.2797 164.093-79.7194 163.425-79.7194L161.283-79.7194C160.391-79.7194 159.942-79.4191 159.659-78.679C150.504-49.6772 150.715-20.8324 157.962 7.25501C158.3 8.58785 159.197 9.2689 160.936 9.2689ZM48.347-3.10229C48.0254-0.82522 49.5618 1.27413 51.8473 1.60425L55.4999 2.08677C57.849 2.41689 59.8848 0.872035 60.2064-1.40503L60.7143-5.1038L111.818 2.09576L111.31 5.79452C110.989 8.07159 112.525 10.099 114.882 10.4291L118.535 10.9836C120.812 11.3137 122.848 9.76884 123.17 7.41979L125.883-11.9558C126.759-17.9282 125.662-20.8993 123.614-24.5221L121.142-28.7591L118.916-39.9166C117.718-45.4825 114.98-48.1532 110.612-49.2875C108.44-49.9224 100.851-51.2007 93.3726-52.1995C85.9746-53.2618 78.3769-54.138 76.0531-54.1465C71.5327-54.2989 68.1427-52.4576 65.4889-47.3828L60.2402-37.3342L56.7315-33.9099C53.7734-31.0446 51.9277-28.4503 51.0599-22.4779ZM67.5618-38.1311C66.3133-38.3004 65.9112-39.4431 66.563-40.7383L69.3946-46.1939C71.071-49.4197 72.9972-50.6856 76.1341-50.6136C78.8177-50.5416 83.7819-50.0422 92.9199-48.7471C102.122-47.4519 106.997-46.6055 109.536-45.8902C112.665-45.1197 114.134-43.3882 114.824-39.8576L116.03-33.767C116.352-32.383 115.628-31.3291 114.371-31.5704ZM60.9212-17.6111C59.3258-17.8608 58.327-19.1261 58.5682-20.7216L59.364-26.2199C59.5417-27.807 60.8791-28.7422 62.4745-28.5645C64.07-28.3148 65.0052-27.0579 64.8275-25.4624L64.0318-19.9641C63.7821-18.3686 62.5167-17.3614 60.9212-17.6111ZM80.2979-16.1253C79.113-16.2945 78.4995-17.1578 78.6772-18.5036L79.2952-22.8637C79.4645-24.201 80.2558-24.8061 81.5127-24.6368L96.8943-22.4739C98.0792-22.3047 98.7647-21.4499 98.5954-20.1845L97.969-15.7524C97.7277-14.4786 96.8729-13.7931 95.6795-13.9624ZM115.12-9.96274C113.605-10.2124 112.598-11.5498 112.775-13.0733L113.571-18.5716C113.812-20.1671 115.158-21.1659 116.673-20.9162C118.269-20.6665 119.276-19.4096 119.026-17.8141L118.23-12.3157C118.061-10.7203 116.715-9.78502 115.12-9.96274Z"/>
</svg>