<svg xmlns="http://www.w3.org/2000/svg" viewBox="16.084 -100.126 151.54 131.82">
  <path d="M45.872 31.6909L49.9712 31.6909C56.1669 31.6909 60.2509 28.1783 60.2509 22.4269C60.2509 17.7974 57.3181 14.3264 52.6071 13.4969L52.6071 0.877706C52.6071-5.55589 54.3049-8.86548 57.1499-13.5473C63.1724-10.7073 73.0045-9.07355 81.6769-9.07355C89.6975-9.07355 98.2429-10.0386 106.344-11.791C107.293-6.55018 108.944-0.631741 108.944 1.31576C108.944 10.0562 108.131 14.039 108.131 20.9163C108.131 28.1024 111.423 31.6909 118.097 31.6909L122.705 31.6909C128.858 31.6909 132.984 28.1446 132.984 22.4269C132.984 17.7974 130.052 14.3264 125.269 13.4249L125.269 8.62948C125.269-21.6545 148.979-13.3167 149.157-55.7014C159.937-55.8235 167.623-63.1709 167.623-68.3932C167.623-74.9319 160.5-82.1939 152.767-87.4977C150.973-94.0275 148.16-99.5933 144.609-99.5933C141.536-99.5933 138.388-96.1279 134.583-89.2799C130.117-85.3691 125.466-78.7578 121.737-72.8871L117.097-65.6106C115.785-63.5157 114.706-62.788 112.878-62.788C93.0032-62.788 82.3321-66.047 61.6743-66.047C50.2299-66.047 43.636-61.3106 40.0261-55.2707C38.7017-53.087 37.3902-52.9385 34.8888-53.6831C25.8638-56.2222 19.9076-63.8413 19.9076-73.3567C19.9076-86.7914 30.7053-96.3023 45.5661-96.3023C51.0431-96.3023 56.7529-95.0324 63.0678-92.5141C66.067-91.2746 67.1665-95.1027 64.7218-96.1263C57.9839-98.8308 51.5846-100.126 45.5661-100.126C27.6971-100.126 16.084-89.3676 16.084-73.3567C16.084-61.9843 23.2037-53.0498 33.9423-50.1345C36.1935-49.4281 36.3453-48.2432 36.0574-45.5685C35.1936-38.4269 35.1936-35.5363 35.1936-33.6444C35.1936-16.5071 26.8726-10.8608 29.103-2.82389L36.1794 23.1073C37.8682 29.1726 41.5085 31.6909 45.872 31.6909ZM46.1375 27.8673C43.3436 27.8673 41.0575 26.301 39.8214 21.9494L32.8209-3.90254C31.3267-9.32498 39.0172-14.7215 39.0172-33.6444C39.0172-41.6988 39.3473-62.2149 61.6743-62.2149C81.804-62.2149 93.263-58.9643 113.05-58.9643C116.44-58.9643 118.424-60.3095 120.617-63.8514L125.307-71.3648C128.934-77.2562 133.76-83.8597 137.68-86.7593C140.668-92.3324 142.882-95.7191 144.664-95.7191C145.747-95.7191 147.681-91.7358 149.201-85.4928C157.01-80.2059 163.799-73.4894 163.799-68.4353C163.799-65.0915 156.976-59.5127 147.977-59.5127L147.732-59.5127C146.078-59.5127 145.341-58.6326 145.341-56.9612L145.341-56.7626C145.341-14.3127 121.445-26.1806 121.445 8.62948L121.445 15.6378C121.445 16.4077 121.842 16.8053 122.604 16.8053L123.133 16.8053C127.019 16.8053 129.161 19.1381 129.161 22.3003C129.161 25.8225 126.803 27.8673 122.629 27.8673L118.152 27.8673C114.037 27.8673 111.955 25.5857 111.955 20.9039C111.955 14.5209 112.767 10.5382 112.767 1.31576C112.767-1.66372 109.991-9.84463 109.991-15.1484C109.991-18.3404 111.197-21.0534 112.429-24.016C113.554-26.5838 109.815-27.8059 108.817-25.2594C106.984-20.7092 106.023-17.6538 106.023-15.6697C100.127-14.0782 90.5445-12.8972 81.6769-12.8972C73.5461-12.8972 64.5177-14.4252 59.0575-16.7956C60.3437-19.2414 62.7777-23.0042 63.6539-25.4635C64.4575-27.6967 61.1372-29.4227 59.8004-26.563C56.7737-19.9551 53.8741-15.6248 52.8252-13.8189C49.9515-8.68501 48.7834-5.74377 48.7834 0.422707L48.7834 15.6378C48.7834 16.4797 49.0371 16.8053 49.7985 16.8053L50.2552 16.8053C54.2132 16.8053 56.4273 19.1549 56.4273 22.3003C56.4273 25.9029 54.0692 27.8673 49.9673 27.8673ZM148.997-72.0255C150.826-72.0255 152.387-73.5153 152.387-75.424C152.387-77.1719 150.826-78.742 148.997-78.742C147.169-78.742 145.599-77.1719 145.599-75.424C145.599-73.5153 147.169-72.0255 148.997-72.0255Z"/>
</svg>