<svg xmlns="http://www.w3.org/2000/svg" viewBox="11.2588 -96.7134 122.9 122.89">
  <path d="M72.7024 26.174C106.482 26.174 134.155-1.49838 134.155-35.2697C134.155-69.041 106.482-96.7134 72.7024-96.7134C38.9311-96.7134 11.2588-69.041 11.2588-35.2697C11.2588-1.49838 38.9311 26.174 72.7024 26.174ZM52.0941-6.8359C50.732-6.8359 50.0004-7.48714 50.0004-8.66309C50.0004-9.07756 50.0892-9.25922 50.2287-9.85984L69.9535-61.7279C70.4737-63.0686 71.3364-63.7114 72.694-63.7114C73.9881-63.7114 74.9396-63.0686 75.4514-61.7279L95.1042-9.85984C95.3157-9.25922 95.4045-9.07756 95.4045-8.5911C95.4045-7.55913 94.5289-6.8359 93.4632-6.8359C92.249-6.8359 91.7586-7.32236 91.2721-8.55736L85.0579-25.2566L60.347-25.2566L54.0608-8.55736C53.6547-7.17839 53.0924-6.8359 52.0941-6.8359ZM61.7305-28.9199L83.6744-28.9199L72.8166-57.8772L72.5163-57.8772Z"/>
</svg>