<svg xmlns="http://www.w3.org/2000/svg" viewBox="16.084 -87.0748 71.28 103.7">
  <path d="M65.4017 16.6287C66.04 16.6287 66.8054 16.3627 67.2031 15.3561L86.6236-32.1659C87.0465-33.0961 87.3592-34.3817 87.3592-35.223C87.3592-36.0644 87.0465-37.2864 86.6236-38.2802L67.2031-85.7937C66.8054-86.8088 66.04-87.0748 65.4017-87.0748C64.2263-87.0748 63.385-86.2419 63.385-85.003C63.385-84.4153 63.6555-83.6797 63.8034-83.0537L83.837-34.0268L83.837-36.4192L63.8034 12.6797C63.6555 13.2336 63.385 14.0328 63.385 14.5569C63.385 15.7958 64.2263 16.6287 65.4017 16.6287ZM38.0415 16.6287C39.2168 16.6287 40.0582 15.7958 40.0582 14.5569C40.0582 14.0328 39.8597 13.2336 39.6398 12.6797L19.6062-36.4192L19.6062-34.0268L39.6398-83.0537C39.8597-83.6797 40.0582-84.4153 40.0582-85.003C40.0582-86.2419 39.2168-87.0748 38.0415-87.0748C37.4751-87.0748 36.6377-86.8088 36.2401-85.7937L16.8196-38.2802C16.4687-37.2864 16.084-36.0644 16.084-35.223C16.084-34.3817 16.4687-33.0961 16.8196-32.1659L36.2401 15.3561C36.6377 16.3627 37.4751 16.6287 38.0415 16.6287Z"/>
</svg>