<svg xmlns="http://www.w3.org/2000/svg" viewBox="7.88171 -110.635 159.29 151.84">
  <path d="M31.4223-11.1336L100.673-11.1336C117.184-11.1336 130.321-23.6616 130.321-39.4909C130.321-55.5276 116.87-67.5816 99.0346-67.5265C91.2929-82.6545 78.8874-90.7853 63.7516-90.7853C44.371-90.7853 28.0547-74.8622 26.4761-54.2578C15.1409-51.4645 7.88171-42.9444 7.88171-32.4055C7.88171-19.9455 17.5867-11.1336 31.4223-11.1336ZM134.544-41.0318C158.248-45.2648 167.169-60.8365 167.169-67.9753C167.169-69.2699 166.403-70.0567 165.24-70.0567C163.374-70.0567 156.961-67.3696 150.52-67.3696C134.313-67.3696 123.599-77.6088 123.599-92.9443C123.599-100.469 126.832-106.365 126.832-108.329C126.832-109.916 125.825-110.635 123.54-110.347C108.292-108.323 99.0549-92.4832 98.0741-77.3693C99.3012-75.8711 100.168-74.369 101.074-72.2618C119.836-70.9964 133.159-59.0751 134.544-41.0318ZM77.8342 14.1194L66.1108 14.1194L66.8689 15.8628L74.6573 1.28935C75.3811-0.0777908 74.8181-1.19523 73.379-1.19523L68.3462-1.19523C66.5134-1.19523 65.8785-0.551874 65.3156 0.806828L57.8326 18.0881C57.1172 19.7516 58.1121 20.6447 59.6485 20.6447L68.6628 20.6447L69.467 16.8098L60.1681 38.9883C59.7745 39.9365 60.0073 40.7238 60.6507 40.9651C61.2856 41.2063 62.0729 40.9015 62.6443 40.0422L79.2142 17.0314C80.2215 15.6007 79.6034 14.1194 77.8342 14.1194Z"/>
</svg>