<svg xmlns="http://www.w3.org/2000/svg" viewBox="16.084 -94.5009 118.32 118.43">
  <path d="M36.4207 23.9278C47.6154 23.9278 56.7574 14.7138 56.7574 3.51068L56.7574-74.0838C56.7574-85.287 47.6154-94.5009 36.4207-94.5009C25.298-94.5009 16.084-85.287 16.084-74.0838C16.084-62.8087 25.298-53.6285 36.4207-53.6285L54.8076-53.6285C55.9116-53.6285 56.7405-54.5294 56.7405-55.5698C56.7405-56.6738 55.9116-57.5027 54.8076-57.5027L36.4207-57.5027C27.3957-57.5027 19.992-64.9784 19.992-74.0838C19.992-83.1173 27.3957-90.5845 36.4207-90.5845C45.4457-90.5845 52.9214-83.1173 52.9214-74.0838L52.9214 3.51068C52.9214 12.6161 45.4457 20.0114 36.4207 20.0114C27.3957 20.0114 19.992 12.6161 19.992 3.51068C19.992-5.59475 27.3957-13.0704 36.4207-13.0704L114.066-13.0704C123.019-13.0704 130.494-5.59475 130.494 3.51068C130.494 12.6161 123.019 20.0114 114.066 20.0114C105.041 20.0114 97.5736 12.6161 97.5736 3.51068L97.5736-74.0838C97.5736-83.1173 105.041-90.5845 114.066-90.5845C123.019-90.5845 130.494-83.1173 130.494-74.0838C130.494-64.9784 123.019-57.5027 114.066-57.5027L54.8076-57.5027C53.7672-57.5027 52.9382-56.6738 52.9382-55.5698C52.9382-54.5294 53.7672-53.6285 54.8076-53.6285L114.066-53.6285C125.189-53.6285 134.403-62.8087 134.403-74.0838C134.403-85.287 125.189-94.5009 114.066-94.5009C102.871-94.5009 93.6571-85.287 93.6571-74.0838L93.6571 3.51068C93.6571 14.7138 102.871 23.9278 114.066 23.9278C125.189 23.9278 134.403 14.7138 134.403 3.51068C134.403-7.76443 125.189-16.9362 114.066-16.9362L36.4207-16.9362C25.298-16.9362 16.084-7.76443 16.084 3.51068C16.084 14.7138 25.298 23.9278 36.4207 23.9278Z" />
</svg>