<svg xmlns="http://www.w3.org/2000/svg" viewBox="16.084 -83.4773 226.07 95.23">
  <path d="M115.049-15.8598L143.189-15.8598C145.423-15.8598 146.023-17.7303 145.11-19.355L131.209-41.9535C130.24-43.6969 127.934-43.7773 126.804-41.9535L113.137-19.427C112.143-17.8023 112.815-15.8598 115.049-15.8598ZM26.1134-1.01358L42.5236 1.03516L42.9296-2.91503L26.6966-4.87491C22.2438-5.42942 20.0342-7.70254 20.0342-11.8085L20.0342-19.6643C20.0342-34.0994 28.1993-40.7405 44.5212-43.8982L88.7836-52.457C91.3947-52.9648 92.308-53.151 93.5605-54.1453C104.853-63.118 116.907-71.5323 129.968-78.6852C132.214-79.9286 130.535-83.4773 127.743-81.9206C114.128-74.4545 101.388-65.7101 89.5411-56.4241L43.713-47.5436C25.3233-44.0349 16.084-36.1673 16.084-19.6643L16.084-11.6521C16.084-5.3259 19.3553-1.85152 26.1134-1.01358ZM58.332 11.7563C68.9846 11.7563 77.2544 3.48655 77.2544-7.16602C77.2544-17.7466 68.9846-26.0164 58.332-26.0164C47.7515-26.0164 39.4817-17.7466 39.4817-7.16602C39.4817 3.48655 47.7515 11.7563 58.332 11.7563ZM58.332 7.88205C49.9762 7.88205 43.356 1.26176 43.356-7.16602C43.356-15.5218 49.9762-22.2141 58.332-22.2141C66.7598-22.2141 73.3801-15.5218 73.3801-7.16602C73.3801 1.26176 66.7598 7.88205 58.332 7.88205ZM74.9328-1.99549L182.75-1.99549L182.75-5.94568L74.9328-5.94568ZM199.834 11.7563C210.415 11.7563 218.756 3.48655 218.756-7.16602C218.756-17.7466 210.415-26.0164 199.834-26.0164C189.253-26.0164 180.984-17.7466 180.984-7.16602C180.984 3.48655 189.253 11.7563 199.834 11.7563ZM199.834 7.88205C191.478 7.88205 184.786 1.26176 184.786-7.16602C184.786-15.5218 191.478-22.2141 199.834-22.2141C208.262-22.2141 214.882-15.5218 214.882-7.16602C214.882 1.26176 208.262 7.88205 199.834 7.88205ZM216.773-3.31595L226.105-4.5858C237.194-6.08003 242.154-11.6369 242.154-22.6409L242.154-33.65C242.154-45.6523 236.389-51.51 222.506-53.9564L191.938-59.3614C182.647-61.0418 176.781-61.4309 168.533-60.9315L91.4931-56.4241L87.1921-52.2411L168.465-56.9729C177.875-57.5274 183.084-56.8205 192.014-55.2166L221.855-49.964C233.877-47.8686 238.204-42.8438 238.204-33.65L238.204-22.6409C238.204-13.9545 234.453-9.64949 225.873-8.4387L216.773-7.19416Z"/>
</svg>