<svg xmlns="http://www.w3.org/2000/svg" viewBox="11.2588 -96.7134 122.9 122.89">
  <path d="M72.7024 26.174C106.482 26.174 134.155-1.49838 134.155-35.2697C134.155-69.041 106.482-96.7134 72.7024-96.7134C38.9311-96.7134 11.2588-69.041 11.2588-35.2697C11.2588-1.49838 38.9311 26.174 72.7024 26.174ZM50.4188-8.01973C49.3019-8.01973 48.5573-8.77276 48.5573-9.9785L48.5573-62.6175C48.5573-63.7428 49.3019-64.5679 50.4188-64.5679C51.4637-64.5679 52.2083-63.7428 52.2083-62.6091L52.2083-28.1956L52.5131-28.1956L70.4945-48.12C70.8584-48.5727 71.3533-48.7842 71.8313-48.7842C72.6901-48.7842 73.4262-48.0396 73.4262-47.1977C73.4262-46.7028 73.2401-46.4278 72.8425-45.9582L59.1615-31.0834L73.4476-10.9261C73.803-10.465 73.9172-10.0122 73.9172-9.61464C73.9172-8.61192 73.1726-8.01973 72.225-8.01973C71.6328-8.01973 71.0743-8.32004 70.6936-8.74295L56.6106-28.7607L52.2083-24.1425L52.2083-9.9785C52.2083-8.77276 51.4637-8.01973 50.4188-8.01973ZM84.1429-8.01973C83.0091-8.01973 82.3618-8.70077 82.3618-9.9785L82.3618-46.9227C82.3618-48.0227 83.0344-48.7842 84.054-48.7842C84.9848-48.7842 85.6489-48.0227 85.6489-46.9227L85.6489-40.632L86.1866-40.632C87.232-45.1653 89.9028-48.7842 94.3725-48.7842C96.0822-48.7842 98.0589-48.1285 98.0589-46.4273C98.0589-45.7164 97.5764-45.2553 96.7002-45.2046C95.8707-45.1203 95.0159-45.2474 94.1358-45.2474C87.9558-45.2474 85.8267-38.2795 85.8267-33.0562L85.8267-9.9785C85.8267-8.70527 85.1754-8.01973 84.1429-8.01973ZM102.233-8.19294C100.482-8.19294 99.119-9.41162 99.119-11.155C99.119-12.8984 100.482-14.1975 102.233-14.1975C103.977-14.1975 105.276-12.8984 105.276-11.155C105.276-9.41162 103.977-8.19294 102.233-8.19294Z"/>
</svg>