<svg xmlns="http://www.w3.org/2000/svg" viewBox="16.084 -86.703 139.82 102.87">
  <path d="M147.903-19.5006C151.576-17.0121 155.902-18.413 155.902-22.9879L155.902-47.3524C155.902-52.1602 151.746-53.5144 147.903-50.9286L130.869-39.3621C127.881-37.2841 127.792-32.9589 130.869-30.8893ZM102.647-82.7529C103.784-82.7529 104.622-83.5987 104.622-84.728C104.622-85.8572 103.784-86.703 102.647-86.703L18.0675-86.703C16.8663-86.703 16.084-85.8572 16.084-84.728C16.084-83.5987 16.8663-82.7529 18.0675-82.7529ZM102.647-49.7807C103.784-49.7807 104.622-50.6265 104.622-51.7558C104.622-52.8851 103.784-53.7309 102.647-53.7309L18.0675-53.7309C16.8663-53.7309 16.084-52.8851 16.084-51.7558C16.084-50.6265 16.8663-49.7807 18.0675-49.7807ZM102.647-16.8085C103.784-16.8085 104.622-17.6544 104.622-18.7836C104.622-19.9129 103.784-20.7587 102.647-20.7587L18.0675-20.7587C16.8663-20.7587 16.084-19.9129 16.084-18.7836C16.084-17.6544 16.8663-16.8085 18.0675-16.8085ZM70.4788 16.1636C71.6165 16.1636 72.4539 15.3178 72.4539 14.1885C72.4539 13.0593 71.6165 12.2135 70.4788 12.2135L18.0675 12.2135C16.8663 12.2135 16.084 13.0593 16.084 14.1885C16.084 15.3178 16.8663 16.1636 18.0675 16.1636Z" />
</svg>