<svg xmlns="http://www.w3.org/2000/svg" viewBox="16.084 -89.6617 110.45 108.7">
  <path d="M67.3402 19.0419C68.5707 19.0419 69.6027 17.9295 69.6027 16.6186L69.6027-35.2843L119.678-35.2843C120.875-35.2843 121.801-36.2021 121.801-37.382C121.801-38.5619 120.875-39.4881 119.678-39.4881L69.6027-39.4881L69.6027-85.5046L124.397-85.5046C125.594-85.5046 126.529-86.3504 126.529-87.5471C126.529-88.7355 125.594-89.6617 124.397-89.6617L67.3402-89.6617C66.004-89.6617 65.0609-88.5662 65.0609-87.23L65.0609 16.6186C65.0609 17.993 66.004 19.0419 67.3402 19.0419ZM31.798-51.6646C40.6093-51.6646 47.5035-58.6308 47.5035-67.4422C47.5035-76.2619 40.6093-83.2281 31.798-83.2281C22.9866-83.2281 16.084-76.2619 16.084-67.4422C16.084-58.6308 22.9866-51.6646 31.798-51.6646ZM31.798-55.5265C25.0888-55.5265 19.8739-60.7415 19.8739-67.4422C19.8739-74.2233 25.0888-79.4382 31.798-79.4382C38.5071-79.4382 43.7136-74.2233 43.7136-67.4422C43.7136-60.7415 38.5071-55.5265 31.798-55.5265Z"/>
</svg>