<svg xmlns="http://www.w3.org/2000/svg" viewBox="16.084 -120.682 132.26 170.76">
  <path d="M32.6702 50.0795L94.1841 50.0795C105.031 50.0795 110.779 44.3235 110.779 33.4595L110.779-20.7418C110.779-25.4213 109.958-27.5539 107.144-30.3759L66.3555-71.1684C63.5756-74.0372 61.3925-74.8751 56.8395-74.8751L32.6702-74.8751C21.967-74.8751 16.084-69.1192 16.084-58.2551L16.084 33.4595C16.084 44.332 21.823 50.0795 32.6702 50.0795ZM32.8732 46.1293C24.3943 46.1293 20.0342 41.7523 20.0342 33.2987L20.0342-58.0943C20.0342-66.188 24.3943-70.9249 32.8817-70.9249L59.6603-70.9249L59.6603-30.7555C59.6603-24.7673 62.6988-22.2326 68.2551-22.2326L106.82-22.2326L106.82 33.2987C106.82 41.7523 102.46 46.1293 93.9811 46.1293ZM68.5425-26.1069C64.9231-26.1069 63.5261-27.4954 63.5261-31.0428L63.5261-68.4572L105.801-26.1069ZM44.8833-72.9L48.8717-72.9L47.6739-94.4942L43.6939-94.4942ZM70.1532-64.3423L69.7427-77.6099C69.7342-78.5277 68.9008-79.2003 67.983-79.2003C66.9043-79.2003 66.2148-78.5193 66.2233-77.466L66.5365-68.0394ZM91.194-43.2931L91.194-77.466C91.194-78.4473 90.4961-79.2003 89.4174-79.2003C88.4107-79.2003 87.6408-78.4473 87.6408-77.466L87.6408-46.8547ZM107.107-18.2369L110.698-18.2369L112.612-77.394C112.62-78.4473 111.85-79.1284 110.78-79.1284C109.862-79.1284 109.029-78.4558 109.02-77.5379ZM108.651 16L117.45 16C124.068 16 129.604 10.7603 129.943 4.28563L135.141-94.5662L130.983-94.5662L125.882 3.9347C125.65 8.48938 121.797 12.1257 117.251 12.1257L108.651 12.1257ZM32.3485-93.6394L146.414-93.6394C147.582-93.6394 148.339-94.5487 148.339-95.5807C148.339-96.7482 147.51-97.5136 146.414-97.5136L32.3485-97.5136C31.2614-97.5136 30.3521-96.6762 30.3521-95.5807C30.3521-94.4767 31.2614-93.6394 32.3485-93.6394ZM63.6543-95.606L67.5877-95.606L67.5877-108.765C67.5877-113.853 70.8556-116.825 76.3843-116.825L102.362-116.825C107.962-116.825 111.23-113.853 111.23-108.765L111.23-95.606L115.164-95.606L115.164-108.849C115.164-116.251 110.339-120.682 102.302-120.682L76.4439-120.682C68.407-120.682 63.6543-116.251 63.6543-108.849Z"/>
</svg>