<svg xmlns="http://www.w3.org/2000/svg" viewBox="16.084 -98.8718 140.38 127.2">
  <path d="M18.0591 28.3324C19.2603 28.3324 20.1062 27.4781 20.1062 26.3573L20.1062-91.6159C20.1062-93.6264 21.3929-94.9216 23.251-94.9216L149.294-94.9216C151.152-94.9216 152.439-93.6264 152.439-91.6159L152.439 26.3573C152.439 27.4781 153.293 28.3324 154.486 28.3324C155.615 28.3324 156.461 27.4781 156.461 26.3573L156.461-92.1873C156.461-96.1768 153.694-98.8718 149.455-98.8718L23.0901-98.8718C18.8593-98.8718 16.084-96.1768 16.084-92.1873L16.084 26.3573C16.084 27.4781 16.8663 28.3324 18.0591 28.3324ZM26.0809 27.0799L82.7668 27.0799C83.3336 27.0799 83.7397 26.6739 83.7397 26.179L83.7397-88.443C83.7397-89.0098 83.3336-89.4159 82.7668-89.4159L26.0809-89.4159C25.586-89.4159 25.1799-89.0098 25.1799-88.443L25.1799 26.179C25.1799 26.6739 25.586 27.0799 26.0809 27.0799ZM34.6223-54.7037C33.8096-54.7037 33.3102-55.1311 33.3102-55.9606L33.3102-79.8847C33.3102-80.7142 33.8096-81.2136 34.6223-81.2136L74.2254-81.2136C75.038-81.2136 75.5374-80.7142 75.5374-79.8847L75.5374-55.9606C75.5374-55.1311 75.038-54.7037 74.2254-54.7037ZM34.6223-17.8411C33.8096-17.8411 33.3102-18.3404 33.3102-19.17L33.3102-43.094C33.3102-43.9235 33.8096-44.4229 34.6223-44.4229L74.2254-44.4229C75.038-44.4229 75.5374-43.9235 75.5374-43.094L75.5374-19.17C75.5374-18.3404 75.038-17.8411 74.2254-17.8411ZM34.6223 18.9496C33.8096 18.9496 33.3102 18.4503 33.3102 17.6207L33.3102-6.30332C33.3102-7.13282 33.8096-7.63222 34.6223-7.63222L74.2254-7.63222C75.038-7.63222 75.5374-7.13282 75.5374-6.30332L75.5374 17.6207C75.5374 18.4503 75.038 18.9496 74.2254 18.9496ZM89.778 26.6396L146.392 26.6396C146.967 26.6396 147.365 26.242 147.365 25.6751L147.365-88.8749C147.365-89.4417 146.967-89.8478 146.392-89.8478L89.778-89.8478C89.2111-89.8478 88.8135-89.4417 88.8135-88.8749L88.8135 25.6751C88.8135 26.242 89.2111 26.6396 89.778 26.6396ZM98.3193-55.1356C97.5067-55.1356 97.0157-55.635 97.0157-56.4645L97.0157-80.3166C97.0157-81.1461 97.5067-81.6455 98.3193-81.6455L137.922-81.6455C138.735-81.6455 139.162-81.1461 139.162-80.3166L139.162-56.4645C139.162-55.635 138.735-55.1356 137.922-55.1356ZM98.3193-18.2814C97.5067-18.2814 97.0157-18.7808 97.0157-19.6019L97.0157-43.5344C97.0157-44.3639 97.5067-44.8633 98.3193-44.8633L137.922-44.8633C138.735-44.8633 139.162-44.3639 139.162-43.5344L139.162-19.6019C139.162-18.7808 138.735-18.2814 137.922-18.2814ZM98.3193 18.4458C97.5067 18.4458 97.0157 17.9464 97.0157 17.1888L97.0157-6.74366C97.0157-7.56473 97.5067-8.06412 98.3193-8.06412L137.922-8.06412C138.735-8.06412 139.162-7.56473 139.162-6.74366L139.162 17.1888C139.162 17.9464 138.735 18.4458 137.922 18.4458Z"/>
</svg>