<svg xmlns="http://www.w3.org/2000/svg" viewBox="16.084 -82.0634 168.04 93.82">
  <path d="M100.145-11.6898C114.379-11.6898 126.095-23.3338 126.095-37.4962C126.095-51.7305 114.379-63.3829 100.145-63.3829C85.9909-63.3829 74.3384-51.7305 74.3384-37.4962C74.3384-23.3338 85.9909-11.6898 100.145-11.6898ZM100.145-15.0281C87.7764-15.0281 77.7656-25.0474 77.7656-37.4962C77.7656-50.0889 87.7764-59.9727 100.145-59.9727C112.649-59.9727 122.524-50.0889 122.524-37.4962C122.524-25.0474 112.657-15.0281 100.145-15.0281ZM100.073-69.6174C99.1123-69.6174 98.4014-68.8982 98.4014-67.8741L98.4014-50.477C98.4014-49.4995 99.1123-48.7251 100.073-48.7251C101.105-48.7251 101.816-49.508 101.816-50.477L101.816-67.8741C101.816-68.8982 101.114-69.6174 100.073-69.6174ZM113.109-35.7528L130.578-35.7528C131.61-35.7528 132.258-36.4721 132.258-37.4962C132.258-38.5371 131.61-39.2395 130.578-39.2395L113.109-39.2395C112.157-39.2395 111.365-38.5456 111.365-37.4962C111.365-36.4721 112.157-35.7528 113.109-35.7528ZM100.217-5.38329C101.249-5.38329 101.96-6.10258 101.96-7.13511L101.96-24.6042C101.96-25.5648 101.258-26.2756 100.217-26.2756C99.2562-26.2756 98.5454-25.5648 98.5454-24.6042L98.5454-7.13511C98.5454-6.09414 99.2562-5.38329 100.217-5.38329ZM69.7837-35.7528L87.2529-35.7528C88.2769-35.7528 88.9962-36.4721 88.9962-37.4962C88.9962-38.5456 88.2769-39.2395 87.2529-39.2395L69.7837-39.2395C68.7428-39.2395 68.1039-38.5371 68.1039-37.4962C68.1039-36.4721 68.7343-35.7528 69.7837-35.7528ZM100.153-34.2968C101.918-34.2968 103.353-35.7314 103.353-37.5046C103.353-39.2778 101.918-40.704 100.153-40.704C98.4436-40.704 97.0174-39.2778 97.0174-37.5046C97.0174-35.7314 98.4436-34.2968 100.153-34.2968ZM16.084 7.41136C16.084 9.946 17.8229 11.7569 20.3491 11.7569L179.86 11.7569C182.323 11.7569 184.125 9.946 184.125 7.41136C184.125 4.94026 182.323 3.12939 179.86 3.12939L166.1 3.12939L166.1-70.0477C166.1-78.0469 161.994-82.0634 154.067-82.0634L46.142-82.0634C38.2737-82.0634 34.1093-78.0469 34.1093-70.0477L34.1093 3.12939L20.3491 3.12939C17.8229 3.12939 16.084 4.94026 16.084 7.41136ZM38.0679 3.12939L38.0679-69.613C38.0679-75.3278 40.9169-78.1852 46.7038-78.1852L153.505-78.1852C159.292-78.1852 162.15-75.3278 162.15-69.613L162.15 3.12939Z"/>
</svg>