<svg xmlns="http://www.w3.org/2000/svg" viewBox="16.084 -90.6678 141.09 110.14">
  <path d="M86.6584-1.36285C89.837-1.36285 92.4442-3.89805 92.4442-7.14859L92.4442-36.6616C92.4442-37.9736 91.9532-39.2772 90.8189-40.4919L75.5228-57.6461C74.6213-58.7085 75.2731-60.2533 76.7375-60.2533L95.4535-60.2533C97.7305-60.2533 98.4628-58.6281 98.4628-57.0748L98.4628-42.5193C98.4628-39.2772 101.061-36.742 104.312-36.742L127.895-36.742C131.074-36.742 133.673-39.2772 133.673-42.5193C133.673-45.6979 131.074-48.377 127.895-48.377L110.17-48.377L110.17-69.0315C110.17-75.5494 104.964-80.7554 98.3823-80.7554L69.6735-80.7554C63.655-80.7554 58.4406-77.1747 56.0915-71.7911C53.8145-66.1915 55.0461-59.9317 59.2617-55.6992L80.8092-34.1433L80.8092-7.14859C80.8092-3.89805 83.4163-1.36285 86.6584-1.36285ZM45.5661 19.4766C62.2923 19.4766 75.2557 6.65722 75.2557-10.0775C75.2557-26.7401 62.2923-39.7671 45.5661-39.7671C28.9034-39.7671 16.084-26.7401 16.084-10.0775C16.084 6.65722 28.9034 19.4766 45.5661 19.4766ZM45.5661 15.6867C31.429 15.6867 19.8019 4.13157 19.8019-10.0775C19.8019-24.278 31.429-35.9052 45.5661-35.9052C59.7667-35.9052 71.3938-24.278 71.3938-10.0775C71.3938 4.13157 59.7667 15.6867 45.5661 15.6867ZM144.783-29.1752C149.858-24.5193 153.371-17.7005 153.371-10.0775C153.371 4.13157 141.744 15.6867 127.615 15.6867C113.415 15.6867 101.86 4.13157 101.86-10.0775C101.86-13.6159 102.583-17.2095 103.942-20.2655C104.543-22.0297 104.285-22.8924 103.024-23.4171C101.996-23.8613 101.197-23.5695 100.55-22.2411C98.9711-18.3135 98.0612-14.4961 98.0612-10.0775C98.0612 6.65722 110.881 19.4766 127.615 19.4766C144.278 19.4766 157.169 6.65722 157.169-10.0775C157.169-19.1812 153.36-26.7188 147.042-32.369C145.827-33.325 144.939-33.266 144.042-32.3521C143.209-31.4298 143.328-30.4614 144.783-29.1752ZM129.165-65.1291C136.157-65.1291 141.926-70.8896 141.926-77.8985C141.926-84.8905 136.157-90.6678 129.165-90.6678C122.148-90.6678 116.387-84.8905 116.387-77.8985C116.387-70.8896 122.148-65.1291 129.165-65.1291Z"/>
</svg>