<svg xmlns="http://www.w3.org/2000/svg" viewBox="11.2588 -96.7134 122.9 122.89">
  <path d="M72.7024 26.174C106.626 26.174 134.155-1.34598 134.155-35.2697C134.155-69.1934 106.626-96.7134 72.7024-96.7134C38.7872-96.7134 11.2588-69.1934 11.2588-35.2697C11.2588-1.34598 38.7872 26.174 72.7024 26.174ZM72.7024 22.1563C40.927 22.1563 15.2129-3.49429 15.2129-35.2697C15.2129-67.0451 40.927-92.6957 72.7024-92.6957C104.478-92.6957 130.128-67.0451 130.128-35.2697C130.128-3.49429 104.478 22.1563 72.7024 22.1563ZM53.495-56.6406C57.5076-56.6406 60.7244-59.8574 60.7244-63.798C60.7244-67.8105 57.5076-71.0273 53.495-71.0273C49.4825-71.0273 46.2657-67.8105 46.2657-63.798C46.2657-59.8574 49.4825-56.6406 53.495-56.6406ZM94.7077-57.8722C98.7203-57.8722 101.937-61.089 101.937-65.0296C101.937-69.0506 98.7203-72.2674 94.7077-72.2674C90.7671-72.2674 87.4783-69.0506 87.4783-65.0296C87.4783-61.089 90.7671-57.8722 94.7077-57.8722ZM33.191-47.227L40.2297-46.664C40.9917-46.592 41.3218-46.2619 41.3218-45.4915L41.3218-32.3493C41.3218-29.6954 42.198-27.1135 43.8064-25.0226L52.4113-14.0051L47.9967 0.550908C47.4337 2.48099 48.5512 4.49148 50.3373 4.98244C52.1785 5.46496 54.189 4.66076 54.8324 2.56984L59.738-13.7638C59.8184-14.0855 59.8988-14.3268 59.8988-14.6485L73.1681 2.08732C74.3744 3.68728 76.6346 3.93698 78.0821 2.73068C79.6905 1.44396 80.0122-0.799359 78.7255-2.33577L55.0736-32.1884L56.1191-42.8843C56.1995-43.6081 56.9233-44.0102 57.5666-43.6885L65.8499-39.5871C66.4128-39.3374 67.3779-39.0961 68.1905-39.0961L80.8164-39.0961C81.701-39.0961 82.5052-39.3374 83.1486-39.9003L89.1081-45.0556C89.743-45.5381 90.4752-45.2969 90.7165-44.5731L94.1661-35.236L79.8598-31.3758C78.4842-30.9737 77.3668-29.6954 77.2779-28.2394L75.6695-11.8338C75.4283-9.50158 77.5108-7.9736 79.208-7.9736C81.0577-7.9736 82.5857-9.26032 82.7465-11.1904L84.1136-24.7814L94.0857-26.3093L89.3409-16.7394C88.778-15.6939 88.5283-14.568 88.9388-13.5141L95.4613 2.88309C96.2655 4.89358 98.5088 5.54538 100.198 4.89358C101.975 4.1698 102.86 2.0069 102.136 0.237664L96.3375-14.3268L104.379-25.7548C106.39-28.65 107.122-32.3408 106.551-35.7269L105.273-42.643C105.112-43.5276 105.835-44.1626 106.712-43.8493L110.821-42.4822C113.636-41.5256 115.808-43.2779 115.486-46.1011L113.903-62.4229C113.67-64.7934 111.82-65.881 110.034-65.7117C108.176-65.5509 106.504-64.0611 106.745-61.6992L107.846-50.9347L98.0263-54.3039C93.9333-55.5991 89.6626-54.8669 86.3654-52.0522L79.5297-46.1815L68.5842-46.1815L58.0491-51.4172C56.4407-52.2934 54.8324-52.6955 53.0631-52.8564L38.2574-53.9822L41.6395-64.1202C42.2109-66.0587 41.2459-68.0608 39.3878-68.7041C37.5381-69.3391 35.5276-68.302 34.8843-66.4524L29.9826-51.8998C29.2504-49.7115 30.8588-47.3878 33.191-47.227Z" />
</svg>