<svg xmlns="http://www.w3.org/2000/svg" viewBox="15.8174 -92.9618 167.12 115.47">
  <path d="M49.3677-67.4191C56.3851-67.4191 62.082-73.2937 62.082-80.0063C62.082-87.1676 56.3851-92.9618 49.3677-92.9618C42.198-92.9618 36.7086-87.1676 36.7086-80.0063C36.7086-72.5739 42.198-67.4191 49.3677-67.4191ZM24.8959-19.4528L61.7012-60.5373C57.6971-62.1289 53.7779-62.5647 49.3677-62.5647C32.9671-62.5647 23.1182-54.6459 23.1182-41.4322C23.1182-38.2452 23.2706-33.9239 23.7616-29.6026ZM73.9751-19.4528L74.8935-29.6026C75.3844-33.9239 75.6173-38.2452 75.6173-41.4322C75.6173-48.3737 73.1158-53.8844 67.7148-57.6175L37.1473-23.3676C41.3252-24.21 45.2787-24.5868 49.3677-24.5868C57.439-24.5868 65.6711-23.4525 73.9751-19.4528ZM35.333 22.1811C38.6809 21.7621 40.886 19.2522 40.4754 15.1553L38.2535-6.12111L60.5371-6.12111L58.3956 15.1553C57.9131 19.2522 60.0462 21.7621 63.466 22.1811C66.9747 22.5112 69.5734 20.4501 70.0644 16.2345L73.0101-12.5125C65.5187-16.7618 57.2697-18.4675 49.3677-18.4675C41.5293-18.4675 33.2168-16.7618 25.8694-12.5125L28.7347 16.2345C29.2256 20.4501 31.7608 22.5112 35.333 22.1811ZM67.7148-57.6259L78.7868-69.8407C80.3103-71.6055 80.1495-73.4844 78.698-74.8133C77.2634-75.9431 75.6173-75.9515 74.0049-74.2419L61.7012-60.5373C63.9103-59.6909 65.9416-58.7388 67.7148-57.6259ZM17.527-14.8605C15.8343-13.5951 15.8174-11.7882 16.5918-10.3704C17.5737-9.02466 19.546-8.21203 21.1921-9.5876C22.7116-10.6882 24.2058-11.6363 25.8694-12.5125L24.8959-19.4528C22.2887-18.1661 19.7153-16.6466 17.527-14.8605ZM81.4244-14.8605C79.2193-16.6466 76.6543-18.1661 73.9751-19.4528L73.0017-12.5125C74.6567-11.6363 76.1594-10.6882 77.6789-9.5876C79.469-8.21203 81.4328-9.01623 82.2708-10.434C83.0452-11.8433 83.0452-13.5867 81.4244-14.8605ZM117.024-66.0025L117.024-53.1443C117.024-49.3646 119.83-46.7742 123.538-46.7742L133.633-46.7742C137.268-46.7742 140.02-49.3646 140.02-53.1443L140.02-66.0025C140.02-69.6383 137.268-72.5249 133.633-72.5249L123.538-72.5249C119.83-72.5249 117.024-69.6383 117.024-66.0025ZM145.767-66.0025L145.767-53.1443C145.767-49.3646 148.429-46.7742 152.146-46.7742L162.232-46.7742C165.948-46.7742 168.691-49.3646 168.691-53.1443L168.691-66.0025C168.691-69.6383 165.948-72.5249 162.232-72.5249L152.146-72.5249C148.429-72.5249 145.767-69.6383 145.767-66.0025ZM102.604-32.2188L102.604-19.441C102.604-15.7333 105.275-12.999 109.055-12.999L119.069-12.999C122.857-12.999 125.528-15.7333 125.528-19.441L125.528-32.2188C125.528-35.9985 122.857-38.6693 119.069-38.6693L109.055-38.6693C105.275-38.6693 102.604-35.9985 102.604-32.2188ZM131.347-32.2188L131.347-19.441C131.347-15.7333 134.09-12.999 137.806-12.999L147.884-12.999C151.608-12.999 154.271-15.7333 154.271-19.441L154.271-32.2188C154.271-35.9985 151.608-38.6693 147.884-38.6693L137.806-38.6693C134.09-38.6693 131.347-35.9985 131.347-32.2188ZM160.09-32.2188L160.09-19.441C160.09-15.7333 162.689-12.999 166.405-12.999L176.491-12.999C180.208-12.999 182.942-15.7333 182.942-19.441L182.942-32.2188C182.942-35.9985 180.208-38.6693 176.491-38.6693L166.405-38.6693C162.689-38.6693 160.09-35.9985 160.09-32.2188ZM117.024 1.62845L117.024 14.4062C117.024 18.1224 119.83 20.7847 123.538 20.7847L133.633 20.7847C137.268 20.7847 140.02 18.1224 140.02 14.4062L140.02 1.62845C140.02-2.0793 137.268-4.894 133.633-4.894L123.538-4.894C119.83-4.894 117.024-2.0793 117.024 1.62845ZM145.767 1.62845L145.767 14.4062C145.767 18.1224 148.429 20.7847 152.146 20.7847L162.232 20.7847C165.948 20.7847 168.691 18.1224 168.691 14.4062L168.691 1.62845C168.691-2.0793 165.948-4.894 162.232-4.894L152.146-4.894C148.429-4.894 145.767-2.0793 145.767 1.62845ZM128.638-53.5633C125.235-53.5633 122.395-56.3228 122.395-59.7342C122.395-63.0568 125.235-65.8163 128.638-65.8163C131.88-65.8163 134.72-63.0568 134.72-59.7342C134.72-56.3228 131.88-53.5633 128.638-53.5633ZM157.301-53.5633C153.978-53.5633 151.066-56.2509 151.066-59.7342C151.066-63.0568 153.978-65.8163 157.301-65.8163C160.551-65.8163 163.391-63.0568 163.391-59.7342C163.391-56.2509 160.551-53.5633 157.301-53.5633ZM114.146-19.7076C110.815-19.7076 107.903-22.4672 107.903-25.8785C107.903-29.2011 110.815-31.9607 114.146-31.9607C117.397-31.9607 120.228-29.2011 120.228-25.8785C120.228-22.4672 117.397-19.7076 114.146-19.7076ZM142.881-19.7076C139.558-19.7076 136.646-22.4672 136.646-25.8785C136.646-29.2011 139.558-31.9607 142.881-31.9607C146.132-31.9607 148.972-29.2011 148.972-25.8785C148.972-22.4672 146.132-19.7076 142.881-19.7076ZM171.624-19.7076C168.293-19.7076 165.39-22.4672 165.39-25.8785C165.39-29.2011 168.293-31.9607 171.624-31.9607C174.875-31.9607 177.715-29.2011 177.715-25.8785C177.715-22.4672 174.875-19.7076 171.624-19.7076ZM128.638 14.0761C125.307 14.0761 122.395 11.3165 122.395 7.90515C122.395 4.51064 125.307 1.89502 128.638 1.89502C131.88 1.89502 134.72 4.51064 134.72 7.90515C134.72 11.3165 131.88 14.0761 128.638 14.0761ZM157.301 14.0761C153.978 14.0761 151.066 11.3165 151.066 7.90515C151.066 4.51064 153.978 1.89502 157.301 1.89502C160.551 1.89502 163.391 4.51064 163.391 7.90515C163.391 11.3165 160.551 14.0761 157.301 14.0761ZM130.208-81.0624L156.049-81.0624C157.276-81.0624 157.742-82.5054 156.574-83.263L144.604-91.4787C143.605-92.139 142.661-92.139 141.654-91.4787L129.692-83.263C128.524-82.5054 128.99-81.0624 130.208-81.0624Z"/>
</svg>