<svg xmlns="http://www.w3.org/2000/svg" viewBox="16.084 -94.8418 171.4 119.14">
  <path d="M120.739-80.1193L137.03-59.02C137.762-58.1269 138.744-57.9577 139.726-58.4571C143.34-60.3489 149.067-61.7965 153.651-61.7965C158.315-61.7965 163.979-60.3489 167.568-58.4571C168.558-57.9577 169.629-58.1269 170.281-59.02L186.572-80.1193C187.485-81.3801 187.308-82.713 186.136-83.6268C178.932-88.799 165.878-92.6125 153.651-92.6125C141.432-92.6125 128.379-88.799 121.175-83.6268C119.994-82.713 119.825-81.3081 120.739-80.1193ZM138.656-45.6022C136.933-47.7522 136.265-49.8853 136.265-52.5307C136.265-57.4274 140.81-59.8658 140.81-62.9004C140.81-65.9519 136.265-68.2379 136.265-73.3674C136.265-75.9324 136.933-78.057 138.728-80.279C140.268-82.0859 143.019-80.2537 141.559-78.2859C140.183-76.4194 139.637-75.23 139.637-73.3674C139.637-69.2407 144.246-67.7549 144.246-62.9004C144.246-57.9189 139.637-56.4246 139.637-52.5307C139.637-50.4269 140.183-49.3899 141.478-47.6589C142.731-45.6995 140.124-43.9309 138.656-45.6022ZM152.255-45.6022C150.549-47.6802 149.88-49.8853 149.88-52.5307C149.88-57.4274 154.418-59.8658 154.418-62.9004C154.418-65.9519 149.88-68.2379 149.88-73.3674C149.88-75.9324 150.549-78.057 152.335-80.279C153.875-82.0859 156.563-80.2537 155.094-78.2859C153.719-76.4194 153.181-75.23 153.181-73.3674C153.181-69.2407 157.79-67.7549 157.79-62.9004C157.79-57.9189 153.181-56.4246 153.181-52.5307C153.181-50.4269 153.719-49.3899 155.022-47.6589C156.347-45.6995 153.588-43.8589 152.255-45.6022ZM165.815-45.6022C164.084-47.6802 163.424-49.8853 163.424-52.5307C163.424-57.4274 167.961-59.8658 167.961-62.9004C167.961-65.9519 163.424-68.2379 163.424-73.3674C163.424-75.9324 164.084-78.057 165.887-80.279C167.428-82.0859 170.17-80.2537 168.71-78.2859C167.343-76.4194 166.869-75.23 166.869-73.3674C166.869-69.2407 171.406-67.7549 171.406-62.9004C171.406-57.9189 166.869-56.4246 166.869-52.5307C166.869-50.4269 167.343-49.3899 168.638-47.6589C169.954-45.6995 167.284-43.8589 165.815-45.6022ZM99.5368-72.1453C100.438-72.1453 101.297-72.9956 101.377-74.0023C101.377-75.0472 100.51-75.906 99.5368-75.906L74.4137-75.906C73.3604-75.906 72.5736-75.0472 72.5736-74.0023C72.6456-72.9956 73.4324-72.1453 74.4137-72.1453ZM82.1914-86.4207C82.1914-88.5488 79.7035-89.5093 78.0872-88.0623L63.4125-76.1776C62.0414-75.0478 61.889-73.0671 63.4125-71.7848L78.0872-59.9805C79.6484-58.6055 82.1914-59.5194 82.1914-61.6221ZM111.651-62.5399C111.651-63.5382 110.801-64.3885 109.747-64.3885C108.766-64.3081 107.827-63.4577 107.827-62.5399L107.827-35.9136C107.827-34.9958 108.766-34.1455 109.747-34.0651C110.801-34.0651 111.651-34.9154 111.651-35.9136ZM97.3757-45.0674C95.1925-45.0674 94.3675-42.6768 95.6705-41.0436L107.538-26.4156C108.821-24.9006 110.784-25.0614 111.859-26.4241L123.833-40.9632C125.199-42.643 124.319-45.0674 122.102-45.0674ZM32.0701-62.9713C23.292-62.9713 16.084-70.2934 16.084-78.8219C16.084-87.6805 23.292-94.8418 32.0701-94.8418C40.8567-94.8418 47.8656-87.6805 47.8656-78.8219C47.8656-69.4212 40.8567-62.9713 32.0701-62.9713ZM127.098 20.9883C124.017 24.3024 118.747 23.9171 115.078 20.0232L89.6531-6.13349C88.7685-7.02654 88.1251-7.2678 86.9019-6.77685L65.6795 1.26515C53.1345 6.06054 41.7537 0.51101 35.5231-10.8327L23.9606-31.8077C18.9409-40.8991 20.6297-50.2317 29.3021-54.7859C37.5257-59.412 46.2066-55.9202 51.2433-46.668L67.8092-16.4565L81.7933-21.5736C88.8404-24.1639 94.6177-23.3512 100.145-17.6628L126.535 9.70025C130.196 13.5137 129.866 18.2203 127.098 20.9883Z"/>
</svg>