<svg xmlns="http://www.w3.org/2000/svg" viewBox="11.2588 -96.7134 122.9 122.89">
  <path d="M72.7024 26.174C106.482 26.174 134.155-1.49838 134.155-35.2697C134.155-69.041 106.482-96.7134 72.7024-96.7134C38.9311-96.7134 11.2588-69.041 11.2588-35.2697C11.2588-1.49838 38.9311 26.174 72.7024 26.174ZM85.3447-63.027C81.146-63.027 77.7515-66.4299 77.7515-70.6286C77.7515-74.8273 81.146-78.2218 85.3447-78.2218C89.5518-78.2218 92.9463-74.8273 92.9463-70.6286C92.9463-66.4299 89.5518-63.027 85.3447-63.027ZM57.4013-0.364067C53.5878-0.364067 50.5617-1.0243 48.2677-2.99656C47.5484-3.61855 47.6457-4.35471 48.018-4.88784C48.3903-5.48453 49.2536-5.72579 49.9729-5.19265C52.0385-3.67311 54.0237-2.9662 57.4013-2.9662L74.2046-2.9662L74.2046-21.9835L61.2699-35.0622C58.8489-37.4832 58.5272-41.2883 60.3048-44.031L66.3616-53.1522C66.6833-53.5543 66.3616-54.0452 65.8791-54.0452L59.9832-54.0452L53.9264-44.9156C52.8089-43.2268 50.5403-42.7443 48.9954-43.8701C47.2982-44.9156 46.9045-47.1758 47.95-48.7926L55.1327-59.5307C55.776-60.5846 56.9908-61.1475 58.1166-61.1475L77.1166-61.1475C80.5111-61.1475 83.6474-59.209 85.1119-56.225L88.9085-48.6318L101.022-48.6318C103.041-48.6318 104.577-47.015 104.577-44.996C104.577-43.0575 103.041-41.4491 101.022-41.4491L86.6483-41.4491C85.3447-41.4491 84.058-42.2617 83.495-43.4596L80.9936-48.3905C80.5915-49.2751 79.5376-49.2751 79.0551-48.4709L71.6227-37.0811L80.3418-25.9494C81.0656-25.0479 81.3153-24.0829 81.3153-23.101L81.3153-2.9662C86.069-2.9662 88.0542-3.67311 90.1283-5.19265C90.8475-5.74266 91.5837-5.48453 92.0195-4.95139C92.4554-4.40982 92.5274-3.61855 91.825-2.99656C89.531-1.0243 86.5049-0.364067 82.6914-0.364067ZM39.3029-34.9013C40.598-36.3658 42.8582-36.4462 44.3226-35.223L55.2131-25.6997L59.2003-33.6191L59.4416-33.3779L65.346-27.4735L59.5006-18.2674C58.3663-16.5701 55.9369-15.5246 53.6851-17.5267L39.6245-29.818C38.1686-31.1047 38.0162-33.3649 39.3029-34.9013ZM54.4724 5.18097C54.4724 3.62768 55.776 2.2521 57.4013 2.2521C59.0181 2.2521 60.3302 3.62768 60.3302 5.18097C60.3302 6.7978 59.0181 8.10139 57.4013 8.10139C55.776 8.10139 54.4724 6.7978 54.4724 5.18097ZM79.8345 5.18097C79.8345 3.62768 81.1465 2.2521 82.6914 2.2521C84.3167 2.2521 85.6118 3.62768 85.6118 5.18097C85.6118 6.7978 84.3167 8.10139 82.6914 8.10139C81.1465 8.10139 79.8345 6.7978 79.8345 5.18097Z"/>
</svg>