<svg xmlns="http://www.w3.org/2000/svg" viewBox="11.2588 -96.7134 122.9 122.89">
  <path d="M72.7024 26.174C106.482 26.174 134.155-1.49838 134.155-35.2697C134.155-69.041 106.482-96.7134 72.7024-96.7134C38.9311-96.7134 11.2588-69.041 11.2588-35.2697C11.2588-1.49838 38.9311 26.174 72.7024 26.174ZM57.5076-8.40212C55.7046-8.40212 53.635-8.62651 51.9209-9.28674C50.8631-9.73102 50.2495-10.3446 50.2495-11.1949C50.2495-12.0115 50.8631-12.6419 51.7769-12.6419C53.3426-12.6419 54.5618-11.8163 57.1353-11.8163C63.7044-11.8163 66.3583-15.753 67.5477-22.1697L70.0536-35.3805L56.4154-35.3805C55.5016-35.3805 54.9431-35.9389 54.9431-36.8359C54.9431-37.6609 55.5016-38.2914 56.4154-38.2914L70.5064-38.2914L72.3391-48.5047C73.812-56.7745 78.0186-61.6334 86.3688-61.6334C87.4351-61.6334 89.8814-61.4726 91.9301-60.6684C92.9627-60.2494 93.6184-59.7545 93.6184-58.8491C93.6184-57.9987 93.0048-57.474 92.0741-57.4572C90.7452-57.4572 89.2088-58.2192 86.6607-58.2192C80.1888-58.2192 77.1964-54.5407 76.079-48.1493L74.3266-38.2914L88.6335-38.2914C89.4034-38.2914 90.0422-37.6609 90.0422-36.8359C90.0422-35.9389 89.4034-35.3805 88.6335-35.3805L73.8019-35.3805L71.3595-21.7001C69.8866-13.3499 66.0355-8.40212 57.5076-8.40212Z"/>
</svg>