<svg xmlns="http://www.w3.org/2000/svg" viewBox="16.084 -98.5282 136.33 127.33">
  <path d="M33.5379-63.6754C43.1113-63.6754 50.9368-71.5008 50.9368-81.1378C50.9368-90.7747 43.1113-98.5282 33.5379-98.5282C23.9095-98.5282 16.084-90.7747 16.084-81.1378C16.084-71.5008 23.9095-63.6754 33.5379-63.6754ZM33.4744-3.14108C34.5317-3.14108 35.4495-3.99534 35.4495-5.11617L35.4495-64.6061C35.4495-65.6634 34.5317-66.5812 33.4744-66.5812C32.4255-66.5812 31.4993-65.6634 31.4993-64.6061L31.4993-5.11617C31.4993-3.99534 32.4255-3.14108 33.4744-3.14108ZM33.4744 28.7975C43.1113 28.7975 50.9368 21.044 50.9368 11.4155C50.9368 1.77014 43.1113-5.98337 33.4744-5.98337C23.9095-5.98337 16.084 1.77014 16.084 11.4155C16.084 21.044 23.9095 28.7975 33.4744 28.7975ZM72.8965-14.1035C74.0555-14.1035 74.8254-14.8734 74.8254-16.024L74.8254-54.8511C74.8254-55.955 74.0387-56.7334 72.9263-56.7334C72.2621-56.7334 71.7121-56.5472 71.2301-56.2047L60.4702-49.6694C59.7891-49.2633 59.4253-48.6964 59.4253-47.9434C59.4253-46.8434 60.3223-46.1708 61.3587-46.1708C61.8199-46.1708 62.1202-46.2045 62.5094-46.4795L70.7982-51.4324L70.9844-51.4324L70.9844-16.024C70.9844-14.9454 71.8263-14.1035 72.8965-14.1035ZM85.1704-14.1074L109.669-14.1074C110.714-14.1074 111.556-14.7969 111.556-15.9138C111.556-16.9756 110.714-17.7371 109.669-17.7371L89.2145-17.7371L89.2145-17.9232L100.517-29.9119C107.73-37.459 109.549-40.5993 109.549-44.7216C109.549-51.5612 103.891-56.7671 96.4123-56.7671C90.6395-56.7671 85.8401-53.6904 83.9905-49.0434C83.5248-47.8073 83.1396-46.4908 83.1396-45.3014C83.1396-44.1761 83.8291-43.3426 85.018-43.3426C86.0376-43.3426 86.74-44.1001 86.8159-45.073C86.9048-46.051 87.0572-46.813 87.362-47.4946C88.8562-50.9954 92.2766-53.074 96.4123-53.074C101.518-53.074 105.708-49.3657 105.708-44.6794C105.708-41.5132 104.142-39.0877 97.708-32.3825L83.9348-17.7708C83.3258-17.0982 83.1227-16.6033 83.1227-16.0027C83.1227-14.7969 83.9562-14.1074 85.1704-14.1074ZM128.829-13.8875C137.272-13.8875 143.422-19.1103 143.422-26.2081C143.422-32.3032 138.961-36.6796 133.035-37.035L133.035-35.3422C138.389-36.7347 141.653-40.6033 141.653-45.6782C141.653-52.0437 136.091-56.7671 128.469-56.7671C122.243-56.7671 117.062-53.5205 115.594-48.3523C115.382-47.4975 115.34-46.6978 115.34-46.0505C115.34-44.9251 115.949-44.1001 117.138-44.1001C118.31-44.1001 118.797-44.8492 119.017-46.0679C119.774-50.2587 123.618-53.074 128.444-53.074C133.832-53.074 137.812-49.937 137.812-45.6574C137.812-41.0813 133.879-37.9275 128.067-37.9275L124.084-37.9275C122.967-37.9275 122.205-37.1745 122.205-36.066C122.205-35.0295 122.967-34.2765 124.084-34.2765L128.067-34.2765C135.373-34.2765 139.547-31.3387 139.547-26.2081C139.547-21.2637 135.068-17.5087 128.837-17.5087C123.233-17.5087 118.771-20.6288 118.085-24.8832C117.865-26.0298 117.282-26.707 116.207-26.707C115.001-26.707 114.375-25.8651 114.375-24.7397C114.375-23.9569 114.561-23.2292 114.709-22.5988C116.453-17.2697 121.904-13.8875 128.829-13.8875ZM63.6015-76.9947C65.9545-76.9947 67.825-78.8567 67.825-81.1378C67.825-83.4992 65.9545-85.3612 63.6015-85.3612C61.3205-85.3612 59.45-83.4992 59.45-81.1378C59.45-78.8567 61.3205-76.9947 63.6015-76.9947ZM80.5617-77.2826C82.9147-77.2826 84.7851-79.1447 84.7851-81.4257C84.7851-83.7871 82.9147-85.6492 80.5617-85.6492C78.2807-85.6492 76.4102-83.7871 76.4102-81.4257C76.4102-79.1447 78.2807-77.2826 80.5617-77.2826ZM97.4499-77.2826C99.8029-77.2826 101.673-79.1447 101.673-81.4257C101.673-83.7871 99.8029-85.6492 97.4499-85.6492C95.1689-85.6492 93.2984-83.7871 93.2984-81.4257C93.2984-79.1447 95.1689-77.2826 97.4499-77.2826ZM114.338-77.2826C116.691-77.2826 118.562-79.1447 118.562-81.4257C118.562-83.7871 116.691-85.6492 114.338-85.6492C112.057-85.6492 110.187-83.7871 110.187-81.4257C110.187-79.1447 112.057-77.2826 114.338-77.2826ZM131.298-77.5706C133.651-77.5706 135.522-79.4326 135.522-81.7221C135.522-84.0751 133.651-85.9371 131.298-85.9371C129.017-85.9371 127.147-84.0751 127.147-81.7221C127.147-79.4326 129.017-77.5706 131.298-77.5706ZM148.186-77.5706C150.539-77.5706 152.41-79.4326 152.41-81.7221C152.41-84.0751 150.539-85.9371 148.186-85.9371C145.905-85.9371 144.035-84.0751 144.035-81.7221C144.035-79.4326 145.905-77.5706 148.186-77.5706ZM63.6015 15.6305C65.9545 15.6305 67.825 13.7685 67.825 11.4155C67.825 9.12604 65.9545 7.264 63.6015 7.264C61.3205 7.264 59.45 9.12604 59.45 11.4155C59.45 13.7685 61.3205 15.6305 63.6015 15.6305ZM80.5617 15.3426C82.9147 15.3426 84.7851 13.4805 84.7851 11.1275C84.7851 8.8381 82.9147 6.97607 80.5617 6.97607C78.2807 6.97607 76.4102 8.8381 76.4102 11.1275C76.4102 13.4805 78.2807 15.3426 80.5617 15.3426ZM97.4499 15.3426C99.8029 15.3426 101.673 13.4805 101.673 11.1275C101.673 8.8381 99.8029 6.97607 97.4499 6.97607C95.1689 6.97607 93.2984 8.8381 93.2984 11.1275C93.2984 13.4805 95.1689 15.3426 97.4499 15.3426ZM114.338 15.3426C116.691 15.3426 118.562 13.4805 118.562 11.1275C118.562 8.8381 116.691 6.97607 114.338 6.97607C112.057 6.97607 110.187 8.8381 110.187 11.1275C110.187 13.4805 112.057 15.3426 114.338 15.3426ZM131.298 15.0546C133.651 15.0546 135.522 13.1926 135.522 10.8312C135.522 8.55017 133.651 6.68813 131.298 6.68813C129.017 6.68813 127.147 8.55017 127.147 10.8312C127.147 13.1926 129.017 15.0546 131.298 15.0546ZM148.186 15.0546C150.539 15.0546 152.41 13.1926 152.41 10.8312C152.41 8.55017 150.539 6.68813 148.186 6.68813C145.905 6.68813 144.035 8.55017 144.035 10.8312C144.035 13.1926 145.905 15.0546 148.186 15.0546Z"/>
</svg>