<svg xmlns="http://www.w3.org/2000/svg" viewBox="15.4198 -88.7962 133.67 106.99">
  <path d="M118.568 10.9178C139.576 3.3887 149.087-18.6695 142.861-42.0925L137.651-61.783C135.197-71.105 128.963-73.8477 118.988-71.6178L120.523-68.0388C130.145-70.9891 133.154-64.7073 134-61.508L139.156-41.4497C144.743-19.8415 135.959 0.474429 117.32 7.26739C100.106 13.485 78.7739 9.23121 62.9272-7.41965L42.1159-29.3737C36.3718-35.3675 43.6315-43.4826 51.124-37.4843L62.3789-28.3839C68.9261-23.0937 75.2202-20.4955 80.7726-20.4955C90.8363-20.4955 96.4185-26.5596 96.4185-37.0389C96.4185-43.6924 92.3722-53.8585 88.1144-59.3563C84.8262-63.7406 81.2124-64.7608 74.3311-63.14L59.4832-59.7118C50.1658-57.6248 46.2713-69.1726 55.8936-71.8057L75.8748-77.367C90.2278-81.3796 97.1861-72.6644 104.475-60.7583C105.769-58.4863 109.01-60.1026 107.77-62.3234C99.6184-77.3232 89.5204-85.2246 74.6522-80.9246L54.1676-75.0545C41.5006-71.3895 45.178-52.5442 61.3745-56.315L75.3839-59.5993C79.9386-60.6278 82.5418-60.1706 84.6625-57.343C88.8612-51.6163 92.6494-41.9406 92.6494-36.963C92.6494-28.8316 88.4293-24.2392 80.6421-24.2392C75.5711-24.2392 69.8434-26.4994 64.688-30.859L52.9175-40.6995C43.8818-48.3259 29.328-37.7543 40.1582-26.2553L59.8094-5.30059C75.7106 11.7434 98.3115 18.1933 118.568 10.9178ZM119.987-62.5354C120.634-60.4158 124.154-61.0929 123.392-63.6439C119.084-78.8928 105.025-80.1795 95.9034-75.5365L97.9718-72.6515C106.193-76.0887 116.537-74.9544 119.987-62.5354ZM30.9442-86.6558C26.0397-81.0573 19.7242-71.5172 16.1813-60.2241C15.4198-57.7029 19.0365-56.7092 19.8317-59.1241C23.197-69.8969 29.085-78.8534 33.8163-84.2533C35.8173-86.5377 32.8817-88.7962 30.9442-86.6558ZM30.9442-5.08464C32.8817-2.86379 35.8173-5.19431 33.8163-7.48714C29.085-12.8787 23.197-21.8351 19.8317-32.536C19.0365-35.0228 15.4198-34.0375 16.1813-31.5079C19.7242-20.1429 26.0397-10.6663 30.9442-5.08464Z"/>
</svg>