<svg xmlns="http://www.w3.org/2000/svg" viewBox="12.8672 -82.7619 124.59 94.81">
  <path d="M137.458-29.3788C137.458-48.5559 125.098-64.0842 103.358-71.1348L69.6735-82.0381C68.4037-82.5122 67.1974-82.7619 65.9573-82.7619C62.1141-82.7619 59.0497-80.4978 59.0497-75.9223C59.0497-73.3618 60.3533-71.1185 63.8113-69.5989L85.4606-60.0036C86.8232-59.4154 87.2591-58.5943 87.2591-57.6928C87.2591-56.5585 86.4296-55.5682 85.1473-55.5682L20.7101-55.5682C15.8045-55.5682 12.8672-52.4402 12.8672-48.3686C12.8672-44.1868 15.8045-41.2495 20.7101-41.2495L67.8008-41.2495C69.2646-41.2495 70.1279-40.5218 70.1279-39.4555C70.1279-38.4865 69.2646-37.6064 67.8008-37.6064L51.7162-37.6064C49.5365-37.6064 48.3386-36.3197 48.3386-33.7462C48.3386-28.0364 51.9575-23.5329 59.6694-23.5329L67.8008-23.5329C69.2646-23.5329 70.1279-22.7332 70.1279-21.7473C70.1279-20.6979 69.2646-19.8982 67.8008-19.8982L59.1064-19.8982C56.7827-19.8982 55.7288-18.6919 55.7288-16.0381C55.7288-10.087 60.1603-5.74432 66.996-5.74432L71.7498-5.74432C73.2137-5.74432 74.0685-4.86419 74.0685-3.95032C74.0685-2.90092 73.2137-2.10122 71.7498-2.10122L65.0659-2.10122C63.6988-2.10122 62.9666-1.29702 62.9666 0.150538C62.9666 6.42329 69.8445 12.0527 81.1454 12.0527L91.383 12.0527C122.679 12.0527 137.458-2.21034 137.458-29.3788Z"/>
</svg>