<svg xmlns="http://www.w3.org/2000/svg" viewBox="11.2588 -96.7134 122.9 122.89">
  <path d="M72.7024 26.174C106.626 26.174 134.155-1.34598 134.155-35.2697C134.155-69.1934 106.626-96.7134 72.7024-96.7134C38.7872-96.7134 11.2588-69.1934 11.2588-35.2697C11.2588-1.34598 38.7872 26.174 72.7024 26.174ZM72.7024 22.1563C40.927 22.1563 15.2129-3.49429 15.2129-35.2697C15.2129-67.0451 40.927-92.6957 72.7024-92.6957C104.478-92.6957 130.128-67.0451 130.128-35.2697C130.128-3.49429 104.478 22.1563 72.7024 22.1563ZM39.5869-35.4941C39.5869-25.3578 42.41-14.5765 47.3072-6.06883C47.8189-5.17633 48.8892-4.95644 49.9425-5.45977C50.835-5.9378 51.1269-7.1053 50.5516-8.0951C45.9547-16.366 43.4066-26.1193 43.4066-35.4941C43.4066-54.4912 55.1614-67.355 72.7024-67.355C90.252-67.355 102.096-54.4827 102.096-35.4941C102.096-26.2632 99.4755-16.5015 94.9253-8.0951C94.2864-7.11374 94.5783-5.94623 95.4708-5.45977C96.5157-4.95644 97.6028-5.17633 98.1062-6.06883C103.012-14.6102 105.907-25.3831 105.907-35.4941C105.907-57.0168 92.6505-71.1662 72.7024-71.1662C52.7712-71.1662 39.5869-57.0253 39.5869-35.4941ZM47.1869-7.30044C48.2492-3.96554 50.966-2.57759 54.2205-3.65679C57.5639-4.64714 59.0154-7.4191 57.9446-10.754L52.7297-26.9229C51.6589-30.2662 48.9589-31.5653 45.552-30.503C42.3611-29.6566 40.9012-26.8042 41.9719-23.4693ZM98.2265-7.30044L103.433-23.4693C104.504-26.8127 103.061-29.6566 99.8613-30.503C96.4544-31.5653 93.7544-30.2662 92.6836-26.9229L87.4687-10.7456C86.398-7.33868 87.841-4.64714 91.1928-3.65679C94.4557-2.51404 97.1641-3.96554 98.2265-7.30044Z" />
</svg>