<svg xmlns="http://www.w3.org/2000/svg" viewBox="16.084 -101.759 131.41 128.47">
  <path d="M24.3746-75.0697C29.0468-75.0697 32.6651-78.76 32.6651-83.4322C32.6651-88.0325 29.0468-91.7228 24.3746-91.7228C19.7743-91.7228 16.084-88.0325 16.084-83.4322C16.084-78.76 19.7743-75.0697 24.3746-75.0697ZM24.3746-43.0417C29.0468-43.0417 32.6651-46.6601 32.6651-51.3323C32.6651-55.9326 29.0468-59.6229 24.3746-59.6229C19.7743-59.6229 16.084-55.9326 16.084-51.3323C16.084-46.6601 19.7743-43.0417 24.3746-43.0417ZM24.3746-10.9165C29.0468-10.9165 32.6651-14.6068 32.6651-19.2071C32.6651-23.8793 29.0468-27.4977 24.3746-27.4977C19.7743-27.4977 16.084-23.8793 16.084-19.2071C16.084-14.6068 19.7743-10.9165 24.3746-10.9165ZM24.3746 21.1834C29.0468 21.1834 32.6651 17.4931 32.6651 12.8928C32.6651 8.2206 29.0468 4.53028 24.3746 4.53028C19.7743 4.53028 16.084 8.2206 16.084 12.8928C16.084 17.4931 19.7743 21.1834 24.3746 21.1834ZM56.3603 1.11779C56.3603 16.46 66.5141 26.711 81.7252 26.711C93.8642 26.711 103.282 20.1796 108.665 8.91631L111.915 2.15426C125.536-26.4859 147.49-25.4129 147.49-55.3539C147.49-83.3901 129.621-101.759 102.613-101.759C75.2331-101.759 56.3603-82.5347 56.3603-54.5536ZM60.2346 1.04186L60.2346-54.5536C60.2346-80.4921 77.2673-97.8847 102.613-97.8847C127.146-97.8847 143.616-80.7716 143.616-55.3539C143.616-27.6039 122.414-27.8772 108.599 0.280398L105.023 7.36468C100.096 17.4183 92.0747 22.8115 81.7843 22.8115C68.7895 22.8115 60.2346 14.0873 60.2346 1.04186ZM73.5607-15.2446C73.5607-10.344 77.4203-7.19976 83.0615-7.19976C91.5686-7.2082 97.9386-13.7723 97.9386-22.4993C97.9386-40.8097 77.4349-42.8112 77.4349-57.7069C77.4349-70.6899 87.4503-80.46 102.253-80.46C117.28-80.46 126.783-70.8215 126.783-55.9297C126.783-54.9062 127.693-53.9968 128.716-53.9968C129.82-53.9968 130.649-54.9062 130.649-55.9297C130.649-73.0716 119.459-84.3343 102.253-84.3343C85.2553-84.3343 73.5607-72.8849 73.5607-57.7069C73.5607-43.1885 85.9493-38.342 85.9493-31.3111C85.9493-21.3925 73.5607-25.021 73.5607-15.2446Z"/>
</svg>