<svg xmlns="http://www.w3.org/2000/svg" viewBox="11.2588 -96.7134 122.9 122.89">
  <path d="M72.7024 26.174C106.626 26.174 134.155-1.34598 134.155-35.2697C134.155-69.1934 106.626-96.7134 72.7024-96.7134C38.7872-96.7134 11.2588-69.1934 11.2588-35.2697C11.2588-1.34598 38.7872 26.174 72.7024 26.174ZM72.7024 22.1563C40.927 22.1563 15.2129-3.49429 15.2129-35.2697C15.2129-67.0451 40.927-92.6957 72.7024-92.6957C104.478-92.6957 130.128-67.0451 130.128-35.2697C130.128-3.49429 104.478 22.1563 72.7024 22.1563ZM54.1924 1.77014L91.2209 1.77014C94.2595 1.77014 96.329-0.282542 96.329-3.33795L96.329-4.92553C96.329-13.7925 85.6202-25.7082 78.0895-33.2305C76.6976-34.6308 76.7145-36.0947 78.0895-37.3893C85.6202-44.9117 96.329-56.8189 96.329-65.7027L96.329-67.2015C96.329-70.2569 94.2595-72.3095 91.2209-72.3095L54.1924-72.3095C51.1538-72.3095 49.0843-70.2569 49.0843-67.2015L49.0843-65.7027C49.0843-56.8189 59.7931-44.9117 67.3154-37.3893C68.6904-36.0947 68.7157-34.6308 67.3154-33.2305C59.7931-25.7082 49.0843-13.7925 49.0843-4.92553L49.0843-3.33795C49.0843-0.282542 51.1538 1.77014 54.1924 1.77014ZM56.6174-1.72505C55.4875-1.72505 55.0219-2.9606 55.9403-3.87053L70.0317-19.1137C70.5778-19.7318 70.6751-19.9011 70.6751-20.608L70.6751-37.1104C70.6751-37.8971 70.5525-38.2228 69.8967-38.9336C66.036-43.1458 62.5099-47.015 59.3139-50.7233C58.6835-51.5612 59.0389-52.2805 59.9022-52.2805L85.5111-52.2805C86.3659-52.2805 86.7214-51.5612 86.0274-50.7233C82.9034-47.015 79.3689-43.1458 75.5082-38.9336C74.8609-38.2228 74.7383-37.8971 74.7383-37.1104L74.7383-20.608C74.7383-19.9011 74.8355-19.7318 75.3816-19.1137L89.4731-3.87053C90.3914-2.9606 89.9258-1.72505 88.7875-1.72505Z" />
</svg>