<svg xmlns="http://www.w3.org/2000/svg" viewBox="16.084 -92.7385 133.33 122.54">
  <path d="M47.864 29.8047C49.023 29.8047 50.0173 29.1489 51.0915 28.1721L73.9943 8.54173L126.098 8.54173C140.411 8.54173 149.417-0.634024 149.417-14.7688L149.417-69.4195C149.417-83.5543 140.411-92.7385 126.098-92.7385L39.403-92.7385C25.0905-92.7385 16.084-83.6983 16.084-69.4195L16.084-14.7688C16.084-0.490057 25.0905 8.54173 39.403 8.54173L45.11 8.54173L45.11 26.7419C45.11 28.6372 46.2904 29.8047 47.864 29.8047ZM71.9404-10.5347C70.7814-10.5347 70.0413-11.3934 70.0413-12.4085C70.0413-13.3348 70.7814-14.2104 71.9404-14.2104L82.1509-14.2104L82.1509-50.2851L72.2745-50.2851C71.1958-50.2851 70.4557-51.1439 70.4557-52.087C70.4557-53.0852 71.1958-53.9609 72.2745-53.9609L83.9652-53.9609C85.1282-53.9609 85.8261-53.0515 85.8261-52.0071L85.8261-14.2104L96.1086-14.2104C97.1957-14.2104 97.9273-13.3348 97.9273-12.4085C97.9273-11.3934 97.1957-10.5347 96.1086-10.5347ZM82.6874-66.1774C80.2293-66.1774 78.2491-68.094 78.2491-70.5521C78.2491-73.0103 80.2293-75.0709 82.6874-75.0709C85.1372-75.0709 87.1893-73.0103 87.1893-70.5521C87.1893-68.094 85.1372-66.1774 82.6874-66.1774Z"/>
</svg>