<svg xmlns="http://www.w3.org/2000/svg" viewBox="11.2588 -92.1502 154.85 113.76">
  <path d="M67.7822 12.4266L109.655 12.4266C139.974 12.4266 156.994-4.33957 156.994-35.2697C156.994-66.1998 139.974-82.966 109.655-82.966L67.7822-82.966C37.4628-82.966 20.3711-66.1998 20.3711-35.2697C20.3711-4.33957 37.4628 12.4266 67.7822 12.4266ZM11.2588-35.2697C11.2588-0.308956 33.4744 21.6108 67.7822 21.6108L109.655 21.6108C143.954 21.6108 166.106-0.308956 166.106-35.2697C166.106-70.2304 143.954-92.1502 109.655-92.1502L67.7822-92.1502C33.4744-92.1502 11.2588-70.2304 11.2588-35.2697ZM15.209-35.2697C15.209-68.3577 35.2752-88.2 67.7822-88.2L109.655-88.2C142.09-88.2 162.219-68.3577 162.219-35.2697C162.219-2.18171 142.09 17.6606 109.655 17.6606L67.7822 17.6606C35.2752 17.6606 15.209-2.18171 15.209-35.2697Z"/>
</svg>