<svg xmlns="http://www.w3.org/2000/svg" viewBox="16.084 -90.7201 145.87 110.92">
  <path d="M33.2692 11.0853L80.9936 11.0853C86.2765 11.0853 89.0029 8.27004 89.0029 2.98708L89.0029-73.5096C89.0029-78.801 86.2765-81.6078 80.9936-81.6078L33.2692-81.6078C27.9946-81.6078 25.1963-78.801 25.1963-73.5096L25.1963 2.98708C25.1963 8.27004 27.9946 11.0853 33.2692 11.0853ZM32.7039 20.1976L145.332 20.1976C156.204 20.1976 161.952 14.3061 161.952 3.60292L161.952-74.1255C161.952-84.8286 156.204-90.7201 145.332-90.7201L32.7039-90.7201C21.8399-90.7201 16.084-84.9726 16.084-74.1255L16.084 3.60292C16.084 14.4501 21.8399 20.1976 32.7039 20.1976ZM32.8648 16.2389C24.4111 16.2389 20.0342 11.8788 20.0342 3.3999L20.0342-73.9224C20.0342-82.4098 24.4111-86.7615 32.8648-86.7615L145.171-86.7615C153.337-86.7615 158.001-82.4098 158.001-73.9224L158.001 3.3999C158.001 11.8788 153.337 16.2389 145.171 16.2389Z" />
</svg>