<svg xmlns="http://www.w3.org/2000/svg" viewBox="16.084 -90.7201 110.91 110.92">
  <path d="M32.7039 20.1976L110.373 20.1976C121.246 20.1976 126.993 14.3061 126.993 3.60292L126.993-74.1255C126.993-84.8286 121.246-90.7201 110.373-90.7201L32.7039-90.7201C21.8399-90.7201 16.084-84.9726 16.084-74.1255L16.084 3.60292C16.084 14.4501 21.8399 20.1976 32.7039 20.1976ZM32.8648 16.2389C24.4111 16.2389 20.0342 11.8788 20.0342 3.3999L20.0342-73.9224C20.0342-82.4098 24.4111-86.7615 32.8648-86.7615L110.212-86.7615C118.378-86.7615 123.043-82.4098 123.043-73.9224L123.043 3.3999C123.043 11.8788 118.378 16.2389 110.212 16.2389ZM58.6509-7.93198C59.7042-7.93198 60.5124-8.68501 60.5124-9.89075L60.5124-33.8604L65.2363-33.8604L86.3114-8.80761C86.8445-8.16031 87.3141-7.93198 87.9867-7.93198C89.0654-7.93198 89.7509-8.6552 89.7509-9.53533C89.7509-10.0134 89.6368-10.4576 89.1374-11.0543L69.484-33.8604L89.8105-33.8604C90.5298-33.8604 91.0629-34.4739 91.0629-35.1848C91.0629-35.9041 90.5298-36.4372 89.8105-36.4372L69.5009-36.4372L89.2093-59.1673C89.5648-59.6201 89.7425-60.0812 89.7425-60.4535C89.7425-61.5367 88.9895-62.2008 87.9867-62.2008C87.1955-62.2008 86.8445-61.8032 86.3283-61.2701L65.2448-36.4372L60.5124-36.4372L60.5124-60.2589C60.5124-61.3927 59.7042-62.2008 58.6509-62.2008C57.4451-62.2008 56.6286-61.3927 56.6286-60.2589L56.6286-36.4372L51.7269-36.4372C50.9356-36.4372 50.4109-35.9761 50.4109-35.1848C50.4109-34.3935 50.9356-33.8604 51.7269-33.8604L56.6286-33.8604L56.6286-9.89075C56.6286-8.68501 57.4451-7.93198 58.6509-7.93198Z" />
</svg>