<svg xmlns="http://www.w3.org/2000/svg" viewBox="11.2588 -96.7134 122.9 122.89">
  <path d="M72.7024 26.174C106.626 26.174 134.155-1.34598 134.155-35.2697C134.155-69.1934 106.626-96.7134 72.7024-96.7134C38.7872-96.7134 11.2588-69.1934 11.2588-35.2697C11.2588-1.34598 38.7872 26.174 72.7024 26.174ZM72.7024 22.1563C40.927 22.1563 15.2129-3.49429 15.2129-35.2697C15.2129-67.0451 40.927-92.6957 72.7024-92.6957C104.478-92.6957 130.128-67.0451 130.128-35.2697C130.128-3.49429 104.478 22.1563 72.7024 22.1563ZM48.7249-9.76815L68.0178-9.76815C68.9823-9.76815 69.9046-10.6905 69.9046-11.7269C69.9046-12.7634 68.9823-13.6941 68.0178-13.6941L50.9289-13.6941L50.9289-59.2911C50.9289-60.3781 49.9644-61.4146 48.8054-61.4146C47.6463-61.4146 46.6098-60.3781 46.6098-59.2911L46.6098-12.061C46.6098-10.6989 47.5237-9.76815 48.7249-9.76815ZM77.4759-9.77659L99.0622-9.77659C100.188-9.77659 100.996-10.5932 100.996-11.6465C100.996-12.7887 100.179-13.5968 99.0622-13.5968L81.0212-13.5968L81.0212-13.8634L93.1364-30.9321C98.0837-37.7588 99.7511-42.3511 99.7511-47.6122C99.7511-55.4422 95.5743-61.77 87.592-61.77C80.3165-61.77 75.475-55.0232 75.475-48.2932C75.475-47.367 76.0672-46.3811 77.3533-46.3811C78.3898-46.3811 79.1091-46.9227 79.2654-47.8872C80.0482-53.8349 82.5587-57.9667 87.6555-57.9667C93.4086-57.9667 95.851-52.4081 95.851-47.4176C95.851-42.7111 94.0784-38.6271 90.0698-32.9505L76.2488-13.8291C75.6819-13.0761 75.3945-12.3866 75.3945-11.5745C75.3945-10.4661 76.2662-9.77659 77.4759-9.77659Z" />
</svg>