<svg xmlns="http://www.w3.org/2000/svg" viewBox="16.084 -67.1497 123.67 64.35">
  <path d="M18.0169-2.79693L137.814-2.79693C138.854-2.79693 139.755-3.62588 139.755-4.73828C139.755-5.77869 138.854-6.67963 137.814-6.67963L18.0169-6.67963C16.9849-6.67963 16.084-5.77869 16.084-4.73828C16.084-3.62588 16.9849-2.79693 18.0169-2.79693ZM18.0169-33.032L137.814-33.032C138.854-33.032 139.755-33.9329 139.755-34.9733C139.755-36.0137 138.854-36.9147 137.814-36.9147L18.0169-36.9147C16.9849-36.9147 16.084-36.0137 16.084-34.9733C16.084-33.9329 16.9849-33.032 18.0169-33.032ZM18.0169-63.2755L137.814-63.2755C138.854-63.2755 139.755-64.1764 139.755-65.2084C139.755-66.2488 138.854-67.1497 137.814-67.1497L18.0169-67.1497C16.9849-67.1497 16.084-66.2488 16.084-65.2084C16.084-64.1764 16.9849-63.2755 18.0169-63.2755Z" />
</svg>