<svg xmlns="http://www.w3.org/2000/svg" viewBox="16.084 -90.7201 145.87 110.92">
  <path d="M40.9355-60.7257C44.0167-60.7257 46.5266-63.2356 46.5266-66.3168C46.5266-69.3897 44.0167-71.8996 40.9355-71.8996C37.8626-71.8996 35.3528-69.3812 35.3528-66.3168C35.3528-63.244 37.8626-60.7257 40.9355-60.7257ZM40.9355-40.091C44.0167-40.091 46.5266-42.5924 46.5266-45.6737C46.5266-48.7549 44.0167-51.2648 40.9355-51.2648C37.8626-51.2648 35.3528-48.7465 35.3528-45.6737C35.3528-42.6008 37.8626-40.091 40.9355-40.091ZM40.9355-19.5282C44.0167-19.5282 46.5266-22.0381 46.5266-25.1194C46.5266-28.2006 44.0167-30.7021 40.9355-30.7021C37.8542-30.7021 35.3528-28.1922 35.3528-25.1194C35.3528-22.0381 37.8542-19.5282 40.9355-19.5282ZM40.9355 1.1442C44.0167 1.1442 46.5266-1.2937 46.5266-4.37497C46.5266-7.4478 44.0167-9.95769 40.9355-9.95769C37.8626-9.95769 35.3528-7.43936 35.3528-4.37497C35.3528-1.30214 37.8626 1.1442 40.9355 1.1442ZM63.5734-64.4132L142.452-64.4132C143.577-64.4132 144.283-65.1999 144.283-66.3168C144.283-67.3617 143.569-68.1485 142.452-68.1485L63.5734-68.1485C62.5285-68.1485 61.7417-67.3617 61.7417-66.3168C61.7417-65.1999 62.52-64.4132 63.5734-64.4132ZM63.5734-43.842L110.284-43.842C111.401-43.842 112.115-44.6288 112.115-45.6737C112.115-46.7906 111.401-47.5054 110.284-47.5054L63.5734-47.5054C62.5285-47.5054 61.7417-46.7906 61.7417-45.6737C61.7417-44.6288 62.5285-43.842 63.5734-43.842ZM63.5734-23.2157L142.452-23.2157C143.577-23.2157 144.283-23.994 144.283-25.1194C144.283-26.1643 143.577-26.9426 142.452-26.9426L63.5734-26.9426C62.52-26.9426 61.7417-26.1643 61.7417-25.1194C61.7417-23.994 62.52-23.2157 63.5734-23.2157ZM63.5734-2.54329L110.284-2.54329C111.401-2.54329 112.115-3.33006 112.115-4.37497C112.115-5.49186 111.409-6.2702 110.284-6.2702L63.5734-6.2702C62.52-6.2702 61.7417-5.49186 61.7417-4.37497C61.7417-3.33006 62.5285-2.54329 63.5734-2.54329ZM32.7039 20.1976L145.332 20.1976C156.204 20.1976 161.952 14.3061 161.952 3.60292L161.952-74.1255C161.952-84.8286 156.204-90.7201 145.332-90.7201L32.7039-90.7201C21.8399-90.7201 16.084-84.9726 16.084-74.1255L16.084 3.60292C16.084 14.4501 21.8399 20.1976 32.7039 20.1976ZM32.8648 16.2389C24.4111 16.2389 20.0342 11.8788 20.0342 3.3999L20.0342-73.9224C20.0342-82.4098 24.4111-86.7615 32.8648-86.7615L145.171-86.7615C153.337-86.7615 158.001-82.4098 158.001-73.9224L158.001 3.3999C158.001 11.8788 153.337 16.2389 145.171 16.2389Z" />
</svg>