<svg xmlns="http://www.w3.org/2000/svg" viewBox="16.084 -89.9536 109.53 109.45">
  <path d="M49.5044 19.4946L92.1922 19.4946C103.354 19.4946 111.751 16.6293 117.245 11.1354C122.764 5.63313 125.613-2.83627 125.613-13.9258L125.613-56.5332C125.613-67.6227 122.836-76.0201 117.245-81.5944C111.671-87.1687 103.354-89.9536 92.1922-89.9536L49.5044-89.9536C38.3429-89.9536 29.937-87.0883 24.4432-81.5944C18.9324-76.0921 16.084-67.6227 16.084-56.5332L16.084-13.9258C16.084-2.83627 18.8604 5.56115 24.4432 11.1354C30.081 16.7733 38.3429 19.4946 49.5044 19.4946ZM49.5044 15.5444C39.6583 15.5444 32.2844 13.0851 27.3529 8.23409C22.485 3.29417 20.0342-4.07127 20.0342-13.9258L20.0342-56.5332C20.0342-66.3877 22.485-73.7532 27.3529-78.6931C32.276-83.5357 39.6583-86.0034 49.5044-86.0034L92.1922-86.0034C102.03-86.0034 109.34-83.5441 114.272-78.6931C119.212-73.7532 121.662-66.3877 121.662-56.5332L121.662-13.9258C121.662-4.07127 119.212 3.29417 114.272 8.23409C109.349 13.0767 102.03 15.5444 92.1922 15.5444ZM35.585-32.6462L67.307-32.5742C67.7468-32.5742 67.9115-32.3375 67.9115-31.8977L67.9835-0.43384C67.9835 2.46411 71.2667 2.67557 72.2779 0.611067L102.58-63.5494C103.994-66.4096 101.641-68.347 99.052-67.0693L34.7645-36.8686C32.3485-35.7134 33.0639-32.6462 35.585-32.6462Z"/>
</svg>