<svg xmlns="http://www.w3.org/2000/svg" viewBox="11.2588 -96.7134 122.9 122.89">
  <path d="M72.7024 26.174C106.626 26.174 134.155-1.34598 134.155-35.2697C134.155-69.1934 106.626-96.7134 72.7024-96.7134C38.7872-96.7134 11.2588-69.1934 11.2588-35.2697C11.2588-1.34598 38.7872 26.174 72.7024 26.174ZM72.7024 22.1563C40.927 22.1563 15.2129-3.49429 15.2129-35.2697C15.2129-67.0451 40.927-92.6957 72.7024-92.6957C104.478-92.6957 130.128-67.0451 130.128-35.2697C130.128-3.49429 104.478 22.1563 72.7024 22.1563ZM48.8054-6.91577C50.015-6.91577 50.7214-7.71941 50.7214-8.8993L50.7214-57.1275L51.0684-57.1275L69.9057-9.3312C70.4473-8.13389 71.2639-7.5119 72.6136-7.5119C74.0353-7.5119 74.8687-8.13389 75.4019-9.3312L94.2477-57.1275L94.5946-57.1275L94.5946-8.8993C94.5946-7.72785 95.301-6.91577 96.5022-6.91577C97.64-6.91577 98.4183-7.71941 98.4183-8.8993L98.4183-60.5305C98.4183-62.3667 97.1237-63.5089 95.423-63.5089C93.773-63.5089 92.817-62.8532 92.051-60.9658L72.7913-12.3169L72.4696-12.3169L53.2735-60.9658C52.4991-62.8532 51.543-63.5089 49.9014-63.5089C48.1923-63.5089 46.8977-62.3667 46.8977-60.5305L46.8977-8.8993C46.8977-7.72785 47.6761-6.91577 48.8054-6.91577Z" />
</svg>