<svg xmlns="http://www.w3.org/2000/svg" viewBox="16.084 -90.7201 110.91 110.92">
  <path d="M32.7039 20.1976L110.373 20.1976C121.246 20.1976 126.993 14.3061 126.993 3.60292L126.993-74.1255C126.993-84.8286 121.246-90.7201 110.373-90.7201L32.7039-90.7201C21.8399-90.7201 16.084-84.9726 16.084-74.1255L16.084 3.60292C16.084 14.4501 21.8399 20.1976 32.7039 20.1976ZM47.6249-6.86964C46.4068-6.86964 45.692-7.60974 45.692-8.8065L45.692-60.6233C45.692-62.4128 46.9231-63.6355 48.6406-63.6355C50.3075-63.6355 51.272-62.8909 52.0548-61.0671L71.31-12.3298L71.6317-12.3298L90.9504-61.0671C91.7333-62.8909 92.6978-63.6355 94.3647-63.6355C96.0822-63.6355 97.3132-62.4128 97.3132-60.6233L97.3132-8.8065C97.3132-7.60974 96.5984-6.86964 95.4354-6.86964C94.2342-6.86964 93.5194-7.60974 93.5194-8.8065L93.5194-57.0893L93.164-57.0893L74.276-9.31039C73.726-8.03266 72.8925-7.39379 71.4624-7.39379C70.1043-7.39379 69.2708-8.03266 68.7292-9.31039L49.8413-57.0893L49.4858-57.0893L49.4858-8.8065C49.4858-7.60974 48.7711-6.86964 47.6249-6.86964Z"/>
</svg>