<svg xmlns="http://www.w3.org/2000/svg" viewBox="16.084 -85.1329 141.06 100.03">
  <path d="M40.0452-8.60908C40.0452-9.63262 40.9292-10.4616 41.9612-10.4616L131.194-10.4616C132.298-10.4616 133.118-9.63262 133.118-8.60908C133.118-7.52199 132.298-6.69304 131.194-6.69304L41.9612-6.69304C40.9292-6.69304 40.0452-7.52199 40.0452-8.60908ZM39.5447 14.8983L133.619 14.8983C146.65 14.8983 157.143 4.47745 157.143-8.60908C157.143-21.6321 146.65-32.0529 133.619-32.0529L39.5447-32.0529C26.5048-32.0529 16.084-21.6321 16.084-8.60908C16.084 4.47745 26.5048 14.8983 39.5447 14.8983ZM39.5447-37.287L133.619-37.287C139.002-37.287 143.975-35.8563 148.216-33.3082L129.726-73.3803C126.218-81.0405 120.115-85.1329 111.575-85.1329L61.5882-85.1329C53.0479-85.1329 46.9455-81.0405 43.4284-73.3803L24.9386-33.3082C29.1879-35.8563 34.2246-37.287 39.5447-37.287Z"/>
</svg>