<svg xmlns="http://www.w3.org/2000/svg" viewBox="16.084 -91.3297 250.83 112.19">
  <path d="M26.6758 20.8623L111.577 20.8623C118.804 20.8623 122.241 18.3569 122.241 12.8467C122.241-3.43185 101.835-26.1266 69.1263-26.1266C36.4977-26.1266 16.084-3.43185 16.084 12.8467C16.084 18.3569 19.4566 20.8623 26.6758 20.8623ZM26.3682 16.988C21.5245 16.988 20.0342 15.883 20.0342 12.6949C20.0342-1.82511 38.3541-22.2523 69.1263-22.2523C99.9704-22.2523 118.29-1.82511 118.29 12.6949C118.29 15.883 116.8 16.988 111.884 16.988ZM69.1263-35.9007C83.3814-35.9007 94.4153-48.124 94.4153-63.9453C94.4153-78.9749 83.0552-91.3297 69.1263-91.3297C55.2226-91.3297 43.7653-78.8776 43.9093-63.9284C44.0532-48.1155 54.9431-35.9007 69.1263-35.9007ZM69.1263-39.7665C57.1465-39.7665 47.8595-50.2261 47.8595-63.9284C47.7155-76.7669 57.3372-87.4555 69.1263-87.4555C80.8518-87.4555 90.4651-76.8558 90.4651-63.9453C90.4651-50.243 81.1229-39.7665 69.1263-39.7665ZM141.357-26.1266C128.92-26.1266 118.266-22.8119 109.763-17.8507C110.9-17.0133 111.877-16.1506 112.867-15.271C120.461-19.4793 130.083-22.2523 141.357-22.2523C172.193-22.2523 190.449-1.82511 190.449 12.6949C190.449 15.883 188.959 16.988 184.115 16.988L126.742 16.988C126.383 18.4727 125.811 19.7246 124.991 20.8623L183.799 20.8623C191.027 20.8623 194.399 18.3569 194.399 12.8467C194.399-3.43185 173.985-26.1266 141.357-26.1266ZM141.501-35.9007C155.756-35.9007 166.718-48.124 166.718-63.9453C166.718-78.9749 155.358-91.3297 141.501-91.3297C127.525-91.3297 116.131-78.8776 116.284-63.9284C116.428-48.1155 127.237-35.9007 141.501-35.9007ZM141.501-39.7665C129.513-39.7665 120.162-50.2261 120.162-63.9284C120.018-76.7669 129.703-87.4555 141.501-87.4555C153.226-87.4555 162.768-76.8558 162.768-63.9453C162.768-50.243 153.489-39.7665 141.501-39.7665ZM213.867-26.1266C201.367-26.1266 190.56-22.74 182.129-17.7787C183.203-16.8693 184.243-16.0786 185.169-15.1906C192.764-19.4793 202.458-22.2523 213.867-22.2523C244.639-22.2523 262.959-1.82511 262.959 12.6949C262.959 15.883 261.469 16.988 256.625 16.988L198.973 16.988C198.605 18.4727 198.042 19.7246 197.149 20.8623L256.317 20.8623C263.473 20.8623 266.909 18.3569 266.909 12.8467C266.909-3.43185 246.504-26.1266 213.867-26.1266ZM213.867-35.9007C228.059-35.9007 239.084-48.124 239.084-63.9453C239.084-78.9749 227.724-91.3297 213.867-91.3297C199.891-91.3297 188.434-78.8776 188.578-63.9284C188.722-48.1155 199.612-35.9007 213.867-35.9007ZM213.867-39.7665C201.815-39.7665 192.528-50.2261 192.528-63.9284C192.384-76.7669 202.078-87.4555 213.867-87.4555C225.52-87.4555 235.134-76.8558 235.134-63.9453C235.134-50.243 225.864-39.7665 213.867-39.7665Z"/>
</svg>