<svg xmlns="http://www.w3.org/2000/svg" viewBox="11.5641 -96.2263 119.58 119.6">
  <path d="M92.9266-63.9453C92.9266-78.4119 82.1042-90.6234 68.5217-90.6234C58.7352-90.6234 50.3839-84.2567 46.431-75.325L81.2731-40.5634C88.3084-45.1979 92.9266-53.7567 92.9266-63.9453ZM16.084 12.8467C16.084 17.2271 19.618 20.1559 24.8869 20.1559L111.797 20.1559C112.432 20.1559 112.986 20.084 113.532 20.0035L68.2607-25.3398C35.982-25.1627 16.084-3.11466 16.084 12.8467ZM127.444 22.568C128.176 23.3716 129.483 23.3632 130.206 22.5596C131.145 21.7559 131.01 20.5293 130.206 19.7977L15.2016-95.3507C14.47-96.0824 13.307-96.2263 12.3594-95.3507C11.5641-94.6275 11.5641-93.3121 12.3594-92.5888Z"/>
</svg>