<svg xmlns="http://www.w3.org/2000/svg" viewBox="16.084 -93.149 115.98 116.06">
  <path d="M18.0591-57.0933C19.3194-57.0933 20.0342-57.8885 20.0342-59.1488L20.0342-76.3514C20.0342-84.8303 24.4111-89.1904 32.8648-89.1904L50.1095-89.1904C51.3698-89.1904 52.093-89.9136 52.093-91.1655C52.093-92.4258 51.3698-93.149 50.1095-93.149L32.7039-93.149C21.8399-93.149 16.084-87.4015 16.084-76.5544L16.084-59.1488C16.084-57.8885 16.8072-57.0933 18.0591-57.0933ZM130.092-57.0933C131.424-57.0933 132.067-57.8885 132.067-59.1488L132.067-76.5544C132.067-87.2576 126.391-93.149 115.447-93.149L98.1135-93.149C96.7812-93.149 96.058-92.4258 96.058-91.1655C96.058-89.9136 96.7812-89.1904 98.1135-89.1904L115.286-89.1904C123.452-89.1904 128.189-84.8303 128.189-76.3514L128.189-59.1488C128.189-57.8885 128.84-57.0933 130.092-57.0933ZM32.7039 22.9144L50.1095 22.9144C51.3698 22.9144 52.093 22.1912 52.093 20.9393C52.093 19.679 51.3698 18.9558 50.1095 18.9558L32.8648 18.9558C24.4111 18.9558 20.0342 14.5957 20.0342 6.11675L20.0342-11.0773C20.0342-12.3461 19.3109-13.1413 18.0591-13.1413C16.7988-13.1413 16.084-12.3461 16.084-11.0773L16.084 6.31978C16.084 17.1669 21.8399 22.9144 32.7039 22.9144ZM98.1135 22.9144L115.447 22.9144C126.391 22.9144 132.067 17.023 132.067 6.31978L132.067-11.0773C132.067-12.3461 131.416-13.1413 130.092-13.1413C128.832-13.1413 128.189-12.3461 128.189-11.0773L128.189 6.11675C128.189 14.5957 123.452 18.9558 115.286 18.9558L98.1135 18.9558C96.7812 18.9558 96.058 19.679 96.058 20.9393C96.058 22.1912 96.7812 22.9144 98.1135 22.9144ZM40.9523 0.67745L107.199 0.67745C108.806 0.67745 109.327-0.181308 109.327-1.84426C109.327-9.61125 98.051-30.5761 74.0353-30.5761C50.028-30.5761 38.8159-9.61125 38.8159-1.84426C38.8159-0.181308 39.3361 0.67745 40.9523 0.67745ZM74.0353-36.1419C83.783-36.1335 91.6006-44.2897 91.6006-55.3156C91.6006-65.5543 83.783-74.0957 74.0353-74.0957C64.2876-74.0957 56.542-65.5543 56.542-55.3156C56.542-44.2897 64.2876-36.1504 74.0353-36.1419Z"/>
</svg>