<svg xmlns="http://www.w3.org/2000/svg" viewBox="11.2588 -95.7314 144.72 120.78">
  <path d="M83.6604-71.2427C94.936-71.2427 105.247-67.3741 113.466-60.7881C114.753-59.7511 116.433-59.9035 117.64-61.1098L130.383-73.7729C131.831-75.2204 131.822-77.3113 130.294-78.5981C117.665-89.2725 101.318-95.7314 83.6604-95.7314C65.9303-95.7314 49.5758-89.2725 36.9544-78.5981C35.4264-77.3113 35.4899-75.2204 36.9375-73.7729L49.6725-61.1098C50.8788-59.9035 52.6396-59.8231 54.0068-60.9405C62.1545-67.3741 72.4651-71.2427 83.6604-71.2427ZM11.2588-23.3383C11.2588-5.5998 17.7261 10.8182 28.4726 23.4481C29.7593 24.9761 31.9222 25.0481 33.2978 23.6005L46.0115 10.7429C47.1925 9.49833 47.2729 7.8517 46.1723 6.44632C39.6881-1.68847 35.756-12.0711 35.756-23.3383C35.756-34.6055 39.6161-44.9162 46.1301-53.0554C47.1756-54.4226 47.1036-56.1834 45.8973-57.3897L33.2258-70.0612C31.8502-71.4367 29.6873-71.5087 28.4006-69.9808C17.6541-57.4144 11.2588-41.1404 11.2588-23.3383ZM155.982-23.3383C155.982-41.1404 149.595-57.4144 138.912-69.9808C137.625-71.5087 135.462-71.4367 134.086-70.0612L121.351-57.3897C120.145-56.1834 120.073-54.4226 121.119-53.0554C127.633-44.9162 131.493-34.6055 131.493-23.3383C131.493-12.0711 127.561-1.68847 121.068 6.44632C119.976 7.8517 120.056 9.49833 121.229 10.7429L134.015 23.6005C135.39 25.0481 137.553 24.9761 138.84 23.4481C149.523 10.8182 155.982-5.5998 155.982-23.3383ZM69.3754 1.67679C78.225 1.67679 83.2746-4.20625 83.2746-12.7606C83.2746-21.086 78.3988-24.4468 71.7155-27.2277L68.4481-28.5948C62.8901-30.8511 59.4827-33.5646 59.4827-39.5882C59.4827-45.4003 63.0386-49.3921 68.8462-49.3921C74.8575-49.3921 78.0321-45.366 78.8785-39.9352C79.073-38.8689 79.6484-38.3526 80.6342-38.3526C81.7089-38.3526 82.2123-39.0719 82.2123-40.1551C82.2123-40.7096 82.1318-41.2894 82.043-41.7083C80.858-48.0953 76.0925-52.7641 68.9267-52.7641C61.059-52.7641 55.7766-47.2494 55.7766-39.3852C55.7766-31.7537 60.0006-27.9953 67.086-25.1424L70.4974-23.7837C76.1357-21.5359 79.6405-18.5558 79.6405-12.3883C79.6405-7.05469 76.6014-1.69525 69.4643-1.69525C63.1061-1.69525 59.2032-5.95412 58.4288-12.1048C58.2977-13.0271 57.7393-13.6238 56.7534-13.6238C55.6703-13.6238 55.0146-12.8792 55.0146-11.8596C55.0146-11.1994 55.1034-10.5858 55.2727-9.87049C56.7962-2.92457 61.8328 1.67679 69.3754 1.67679ZM89.1542 14.2015C90.2374 14.2015 90.707 13.5075 90.8931 12.543L102.102-49.5271C102.182-49.9292 102.271-50.365 102.271-50.8981C102.271-51.8924 101.624-52.5482 100.621-52.5482C99.466-52.5482 99.0599-51.8457 98.8738-50.8093L87.6735 11.2524C87.5931 11.6545 87.5042 12.0987 87.5042 12.6319C87.5042 13.5542 88.1431 14.2015 89.1542 14.2015ZM109.923 1.32136C111.65 1.32136 112.877 0.102686 112.877-1.55184C112.877-3.19792 111.65-4.42503 109.923-4.42503C108.277-4.42503 107.05-3.19792 107.05-1.55184C107.05 0.102686 108.277 1.32136 109.923 1.32136Z"/>
</svg>