<svg xmlns="http://www.w3.org/2000/svg" viewBox="16.084 -99.8739 131.19 129.19">
  <path d="M33.5886 27.2689L129.511 27.2689C139.368 27.2689 144.235 22.3639 144.235 12.3631L144.235 6.5425L114.052-21.2395C111.055-24.012 107.902-25.4258 104.11-25.4258C100.245-25.4258 97.6208-24.0924 94.3191-21.3199L66.8239 2.39946L56.5178-7.2678C53.8724-9.74395 51.4896-11.0138 48.171-11.0138C45.0217-11.0138 42.8082-9.73551 40.2347-7.34822L18.793 12.2995C18.793 22.3639 23.7318 27.2689 33.5886 27.2689ZM63.3242-20.4865C71.2138-20.4865 77.7194-27.0089 77.7194-35.0425C77.7194-42.9152 71.2138-49.5732 63.3242-49.5732C55.3627-49.5732 48.9291-42.9152 48.9291-35.0425C48.9291-27.0089 55.3627-20.4865 63.3242-20.4865ZM32.7039 29.3177L130.658 29.3177C141.522 29.3177 147.278 23.4346 147.278 12.7314L147.278-53.62C147.278-64.3868 141.522-70.2062 130.658-70.2062L32.7039-70.2062C21.8315-70.2062 16.084-64.5392 16.084-53.62L16.084 12.7314C16.084 23.5786 21.8315 29.3177 32.7039 29.3177ZM32.8648 25.3675C24.4111 25.3675 20.0342 21.0074 20.0342 12.52L20.0342-53.4806C20.0342-61.896 24.4111-66.328 32.8648-66.328L130.497-66.328C138.663-66.328 143.328-61.896 143.328-53.4806L143.328 12.52C143.328 21.0074 138.663 25.3675 130.497 25.3675ZM29.9207-82.0966L133.386-82.0966C133.332-84.228 131.94-85.8949 129.741-85.8949L33.6381-85.8949C31.3587-85.8949 30.0388-84.228 29.9207-82.0966ZM41.7419-96.1768L121.629-96.1768C121.578-98.1857 120.216-99.8739 118.004-99.8739L45.3664-99.8739C43.163-99.8739 41.7925-98.1857 41.7419-96.1768Z"/>
</svg>