<svg xmlns="http://www.w3.org/2000/svg" viewBox="16.084 -95.7258 150.38 137.32">
  <path d="M108.728-69.005L112.678-69.005L112.678-79.1396C112.678-89.8428 106.93-95.7258 96.058-95.7258L83.693-95.7258L83.693-91.7757L95.8971-91.7757C104.063-91.7757 108.728-87.4156 108.728-78.9282ZM50.2186-91.7757L78.5433-91.7757L78.5433-95.7258L50.2186-95.7258ZM16.084-67.8162L20.0342-67.8162L20.0342-78.9282C20.0342-87.4156 24.4111-91.7757 32.8648-91.7757L45.0689-91.7757L45.0689-95.7258L32.7039-95.7258C21.8315-95.7258 16.084-89.9868 16.084-79.1396ZM16.084-32.2756L20.0342-32.2756L20.0342-62.5821L16.084-62.5821ZM32.7039 0.868093L48.775 0.868093L48.775-3.0821L32.8648-3.0821C24.4111-3.0821 20.0342-7.4422 20.0342-15.9296L20.0342-27.0416L16.084-27.0416L16.084-15.7181C16.084-4.87097 21.8315 0.868093 32.7039 0.868093ZM63.2635 25.4912L113.977 25.4912L113.977 21.5411L63.4244 21.5411C54.9707 21.5411 50.5937 17.181 50.5937 8.69358L50.5937-54.305C50.5937-62.7924 54.9707-67.1525 63.4244-67.1525L126.457-67.1525C134.622-67.1525 139.287-62.7924 139.287-54.305L139.287-14.184L143.237-9.86544L143.237-54.5165C143.237-65.2197 137.482-71.1027 126.618-71.1027L63.2635-71.1027C52.3911-71.1027 46.6436-65.3636 46.6436-54.5165L46.6436 8.90504C46.6436 19.7522 52.3911 25.4912 63.2635 25.4912ZM139.865 23.1681L163.142 23.1681C165.837 23.1681 166.459 20.4602 164.728 18.6578L124.505-21.5657C122.461-23.5458 119.063-22.6786 119.063-19.522L119.063 37.5773C119.063 40.171 121.572 41.5972 123.378 39.6553Z"/>
</svg>