<svg xmlns="http://www.w3.org/2000/svg" viewBox="16.084 -90.7201 110.91 110.92">
  <path d="M32.7039 20.1976L110.373 20.1976C121.246 20.1976 126.993 14.3061 126.993 3.60292L126.993-74.1255C126.993-84.8286 121.246-90.7201 110.373-90.7201L32.7039-90.7201C21.8399-90.7201 16.084-84.9726 16.084-74.1255L16.084 3.60292C16.084 14.4501 21.8399 20.1976 32.7039 20.1976ZM73.2901-18.9799L54.9195-0.609269C52.8382 1.46367 50.1011-0.0598128 50.1011-2.88184L50.1011-66.6087C50.1011-70.1377 53.8713-71.0386 56.118-68.8639L100.925-24.057C102.985-21.988 102.195-18.9799 99.1825-18.9799Z"/>
</svg>