<svg xmlns="http://www.w3.org/2000/svg" viewBox="12.1057 -76.528 166.16 82.51">
  <path d="M51.2489-76.528C46.9973-76.528 44.0482-74.6665 41.4427-71.7477L15.16-41.2225C12.1693-37.7745 12.1057-32.9679 15.0161-29.5115L41.4342 1.19143C43.9723 4.05115 47.0732 5.98012 51.2489 5.98012L139.12 5.98012C143.295 5.98012 146.396 4.05115 148.943 1.19143L175.353-29.5115C178.263-32.9679 178.208-37.7745 175.209-41.2225L148.934-71.7477C146.32-74.6665 143.371-76.528 139.12-76.528ZM51.2489-72.5778L139.12-72.5778C142.136-72.5778 144.028-71.3675 145.813-69.3581L172.015-38.8667C174.059-36.6706 174.059-33.9194 172.159-31.7953L145.813-1.19814C144.024 0.88773 142.06 2.02993 139.12 2.02993L51.2489 2.02993C48.3082 2.02993 46.345 0.88773 44.5555-1.19814L18.2093-31.7953C16.3095-33.9194 16.3095-36.6706 18.3532-38.8667L44.5555-69.3581C46.3405-71.3675 48.2408-72.5778 51.2489-72.5778ZM51.6403-46.4947C45.4733-46.4947 40.4237-41.4452 40.4237-35.2781C40.4237-29.1111 45.4733-24.0615 51.6403-24.0615C57.8073-24.0615 62.8569-29.1111 62.8569-35.2781C62.8569-41.4452 57.8073-46.4947 51.6403-46.4947ZM95.233-35.3799C88.9855-35.3799 83.9359-30.3303 83.9359-24.1633C83.9359-17.9963 88.9855-12.9467 95.233-12.9467C101.4-12.9467 106.45-17.9963 106.45-24.1633C106.45-30.3303 101.4-35.3799 95.233-35.3799ZM138.745-46.4947C132.578-46.4947 127.529-41.4452 127.529-35.2781C127.529-29.1111 132.578-24.0615 138.745-24.0615C144.912-24.0615 149.962-29.1111 149.962-35.2781C149.962-41.4452 144.912-46.4947 138.745-46.4947Z"/>
</svg>