<svg xmlns="http://www.w3.org/2000/svg" viewBox="11.2588 -95.8693 126.44 121.2">
  <path d="M11.2588-26.0776C11.2588-22.1713 13.8362-19.522 17.6789-19.522L22.237-19.522L22.237-12.3005C22.237 7.64702 47.4028 25.3299 74.4774 25.3299C101.552 25.3299 126.726 7.64702 126.726-12.3005L126.726-19.522L131.212-19.522C135.119-19.522 137.696-22.1713 137.696-26.0776L137.696-44.4618C137.696-48.3681 135.119-51.0174 131.212-51.0174L126.726-51.0174L126.726-58.2389C126.726-78.1864 101.552-95.8693 74.4774-95.8693C47.4028-95.8693 22.237-78.1864 22.237-58.2389L22.237-51.0174L17.6789-51.0174C13.8362-51.0174 11.2588-48.3681 11.2588-44.4618ZM45.8698-23.8844C39.6735-23.8844 34.548-29.0014 34.548-35.2697C34.548-41.538 39.6735-46.655 45.8698-46.655C52.138-46.655 57.2551-41.538 57.2551-35.2697C57.2551-29.0014 52.138-23.8844 45.8698-23.8844ZM103.021-23.8844C96.7447-23.8844 91.708-29.0014 91.708-35.2697C91.708-41.538 96.7447-46.655 103.021-46.655C109.281-46.655 114.407-41.538 114.407-35.2697C114.407-29.0014 109.281-23.8844 103.021-23.8844Z"/>
</svg>