<svg xmlns="http://www.w3.org/2000/svg" viewBox="11.2588 -99.7964 144.04 129.04">
  <path d="M75.7854-99.7964C40.242-99.7964 11.2588-70.9571 11.2588-35.2697C11.2588 0.345676 40.1701 29.2485 75.7854 29.2485C105.184 29.2485 130.135 9.50345 137.799-17.3562C136.424-17.5767 135.139-18.1267 134.098-18.8921C126.929 6.73315 103.467 25.2899 75.7854 25.2899C42.1873 25.2899 15.209-1.75202 15.209-35.2697C15.209-68.8594 42.2678-95.8377 75.7854-95.8377C103.548-95.8377 126.938-77.2726 134.098-51.6389C135.139-52.5482 136.505-52.9458 137.799-53.1747C130.08-80.0344 105.193-99.7964 75.7854-99.7964ZM140.788-47.3822C138.808-48.8376 136.215-47.9322 136.215-45.5545L136.215-24.9765C136.215-22.5819 138.817-21.7018 140.78-23.1403L153.591-32.8025C155.22-34.0763 155.301-36.4631 153.591-37.7369ZM75.7854 12.6763C102.34 12.6763 123.723-8.71481 123.723-35.2697C123.723-61.833 102.34-83.2242 75.7854-83.2242C49.2305-83.2242 27.831-61.833 27.831-35.2697C27.831-8.71481 49.2305 12.6763 75.7854 12.6763ZM63.4817-11.1865C62.3823-11.1865 61.5235-12.0958 61.5235-13.2037L61.5235-57.564C61.5235-58.7439 62.2299-59.6066 63.3378-59.6066L78.1221-59.6066C87.0561-59.6066 93.1759-53.7871 93.1759-45.3649C93.1759-38.347 88.9473-33.1327 82.2213-31.711L92.3683-14.6339C92.749-13.9315 92.9436-13.4366 92.9436-12.8528C92.9436-11.9097 92.267-11.1865 91.1462-11.1865C90.2453-11.1865 89.7082-11.5756 89.1795-12.557L78.3769-31.229L65.4737-31.229L65.4737-13.2037C65.4737-12.0874 64.7336-11.1865 63.4817-11.1865ZM65.4737-34.8119L78.2498-34.8119C84.8656-34.8119 89.323-38.9521 89.323-45.3396C89.323-51.8711 84.8403-56.0619 78.2751-56.0619L65.4737-56.0619Z"/>
</svg>