<svg xmlns="http://www.w3.org/2000/svg" viewBox="11.2588 -96.7134 122.9 122.89">
  <path d="M72.7024 26.174C106.626 26.174 134.155-1.34598 134.155-35.2697C134.155-69.1934 106.626-96.7134 72.7024-96.7134C38.7872-96.7134 11.2588-69.1934 11.2588-35.2697C11.2588-1.34598 38.7872 26.174 72.7024 26.174ZM72.7024 22.1563C40.927 22.1563 15.2129-3.49429 15.2129-35.2697C15.2129-67.0451 40.927-92.6957 72.7024-92.6957C104.478-92.6957 130.128-67.0451 130.128-35.2697C130.128-3.49429 104.478 22.1563 72.7024 22.1563ZM44.353-9.4594C45.6898-9.4594 46.5401-10.3986 46.5401-11.6803L46.5401-31.6902L55.9425-31.6902L64.8533-10.9143C65.3145-9.91606 65.9151-9.4594 67.0022-9.4594C68.1826-9.4594 69.092-10.3142 69.092-11.4941C69.092-11.8664 68.9778-12.3782 68.7579-12.8433L60.0585-32.7817C65.197-34.5167 68.7827-39.2103 68.7827-46.5335C68.7827-55.2774 63.7252-61.0254 54.6085-61.0254L44.2726-61.0254C42.9105-61.0254 42.1406-60.2387 42.1406-58.813L42.1406-11.6803C42.1406-10.407 43.0545-9.4594 44.353-9.4594ZM46.5401-35.426L46.5401-57.2305L54.2278-57.2305C60.3869-57.2305 64.4383-53.4676 64.4383-46.4447C64.4383-40.0443 61.2041-35.426 54.2998-35.426ZM80.6039-9.69617L92.8356-9.69617C101.402-9.69617 106.342-15.2958 106.342-23.5239C106.342-29.8602 103.066-35.4896 96.8903-36.2685L96.8903-36.5182C101.436-37.4663 104.454-42.846 104.454-48.1836C104.454-55.3871 99.9761-60.6824 92.5774-60.6824L80.6039-60.6824C79.3138-60.6824 78.5523-59.7179 78.5523-58.4531L78.5523-11.989C78.5523-10.7073 79.3222-9.69617 80.6039-9.69617ZM82.719-37.7875L82.719-56.9128L91.609-56.9128C97.2007-56.9128 100.105-53.2258 100.105-47.6549C100.105-41.7286 96.8115-37.7875 90.8852-37.7875ZM82.719-13.4574L82.719-34.1191L91.465-34.1191C98.0223-34.1191 101.942-30.4361 101.942-23.8326C101.942-17.3603 98.3946-13.4574 91.9858-13.4574Z" />
</svg>