<svg xmlns="http://www.w3.org/2000/svg" viewBox="16.084 -90.7201 145.87 110.92">
  <path d="M47.5091-61.1278L75.2888-61.1278L75.2888-86.7615L47.5091-86.7615ZM102.683-61.1278L130.455-61.1278L130.455-86.7615L102.683-86.7615ZM20.0342-35.1893L47.5091-35.1893L47.5091-61.1278L20.0342-61.1278ZM75.2888-35.1893L102.683-35.1893L102.683-61.1278L75.2888-61.1278ZM130.455-35.1893L158.01-35.1893L158.01-61.1278L130.455-61.1278ZM47.5091-9.54715L75.2888-9.54715L75.2888-35.1893L47.5091-35.1893ZM102.683-9.54715L130.455-9.54715L130.455-35.1893L102.683-35.1893ZM20.0342 12.1707L24.7036 16.2389L47.5091 16.2389L47.5091-9.54715L20.0342-9.54715ZM75.2888 16.2389L102.683 16.2389L102.683-9.54715L75.2888-9.54715ZM130.455 16.2389L152.811 16.2389L158.01 11.3789L158.01-9.54715L130.455-9.54715ZM32.7039 20.1976L145.332 20.1976C156.204 20.1976 161.952 14.3061 161.952 3.60292L161.952-74.1255C161.952-84.8286 156.204-90.7201 145.332-90.7201L32.7039-90.7201C21.8399-90.7201 16.084-84.9726 16.084-74.1255L16.084 3.60292C16.084 14.4501 21.8399 20.1976 32.7039 20.1976ZM32.8648 16.2389C24.4111 16.2389 20.0342 11.8788 20.0342 3.3999L20.0342-73.9224C20.0342-82.4098 24.4111-86.7615 32.8648-86.7615L145.171-86.7615C153.337-86.7615 158.001-82.4098 158.001-73.9224L158.001 3.3999C158.001 11.8788 153.337 16.2389 145.171 16.2389Z"/>
</svg>