<svg xmlns="http://www.w3.org/2000/svg" viewBox="14.5942 -116.71 128.56 156.89">
  <path d="M143.157-66.2077C143.157-77.0802 137.418-82.8277 126.571-82.8277L65.8066-82.8277C54.9594-82.8277 49.2119-77.0802 49.2119-66.2077L49.2119 23.5639C49.2119 34.428 55.1034 40.1839 65.8066 40.1839L126.571 40.1839C137.274 40.1839 143.157 34.428 143.157 23.5639ZM65.8066-88.0618L111.253-88.0618L108.92-101.33C107.092-112.041 100.434-116.71 89.7565-114.809L29.9488-104.308C19.271-102.416 14.5942-95.831 16.503-85.0474L32.0836 3.3656C33.5312 11.5769 37.8615 16.0039 44.0499 16.9684L44.0499-66.2077C44.0499-79.9956 52.0992-88.0618 65.8066-88.0618Z"/>
</svg>