<svg xmlns="http://www.w3.org/2000/svg" viewBox="4.60081 -101.624 124.18 133">
  <path d="M18.27-94.393L64.7172-47.9458L64.7172-101.624L32.6702-101.624C25.6517-101.624 20.894-99.2109 18.27-94.393ZM16.084-74.6647L16.084 14.7526C16.084 25.6251 21.823 31.3726 32.6702 31.3726L64.7172 31.3726L64.7172-26.0315ZM68.6674-44.0676L117.301 4.63766L117.301-85.0041C117.301-95.8681 111.625-101.624 100.706-101.624L68.6674-101.624ZM68.6674-22.1533L68.6674 31.3726L100.706 31.3726C107.733 31.3726 112.554 28.8874 115.034 24.2135ZM125.083 26.1706C125.895 26.9022 127.121 26.9022 127.917 26.1706C128.784 25.2949 128.648 24.1319 127.917 23.3283L8.16632-96.3501C7.50664-97.0817 6.27165-97.2257 5.39602-96.3501C4.60081-95.6268 4.60081-94.3834 5.39602-93.5882Z"/>
</svg>