<svg xmlns="http://www.w3.org/2000/svg" viewBox="11.2588 -96.7134 122.9 122.89">
  <path d="M51.5447-18.2567C51.0875-23.7005 50.8631-29.3051 50.8631-35.2697C50.8631-64.357 56.4508-87.2345 64.6503-96.1127C34.5727-92.1817 11.2588-66.2612 11.2588-35.2697C11.2588-27.5443 26.6865-20.8178 51.5447-18.2567ZM55.4864-18.0537C60.8031-17.5414 66.5686-17.317 72.7024-17.317C109.75-17.317 134.155-25.5676 134.155-35.2697C134.155-69.0073 106.432-96.7134 72.694-96.7134C63.0003-96.7134 54.7413-72.3174 54.7413-35.2697C54.7413-29.1359 54.9741-23.3704 55.4864-18.0537ZM51.9001-14.4758C32.8524-16.4272 18.5163-21.0837 11.8594-27.154C15.4648 0.139266 37.2935 21.9679 64.5783 25.5733C58.5165 18.9165 53.86 4.58034 51.9001-14.4758ZM55.6894-14.1119C58.2421 10.7463 64.9686 26.1655 72.694 26.174C103.702 26.174 129.623 2.85162 133.554-27.226C124.676-19.0181 101.798-13.4388 72.7024-13.4388C66.7295-13.4388 61.1332-13.6632 55.6894-14.1119Z"/>
</svg>