<svg xmlns="http://www.w3.org/2000/svg" viewBox="11.2588 -96.6329 122.9 122.89">
  <path d="M72.7024 26.2544C106.482 26.2544 134.155-1.41796 134.155-35.1893C134.155-68.9606 106.482-96.6329 72.7024-96.6329C38.9311-96.6329 11.2588-68.9606 11.2588-35.1893C11.2588-1.41796 38.9311 26.2544 72.7024 26.2544ZM46.8652-31.4832C43.145-31.4832 40.868-33.6883 40.868-37.3915L40.868-55.2065C40.868-58.8378 43.145-60.9624 46.8652-60.9624L70.8961-60.9624L70.8961-69.8941C70.8961-70.8586 71.6575-71.692 72.694-71.692C73.6416-71.692 74.4835-70.8586 74.4835-69.8941L74.4835-60.9624L92.5538-60.9624C95.0339-60.9624 96.473-60.2938 97.9374-58.9733L106.966-50.6985C110.026-47.9434 109.937-44.5022 106.974-41.836L97.9374-33.6247C96.473-32.3043 95.0339-31.5552 92.5538-31.5552L74.4835-31.5552L74.4835-2.27396L85.519-2.27396C86.4751-2.27396 87.3085-1.44051 87.3085-0.484456C87.3085 0.471594 86.4751 1.30504 85.519 1.30504L59.869 1.30504C58.913 1.30504 58.1431 0.471594 58.1431-0.484456C58.1431-1.44051 58.913-2.27396 59.869-2.27396L70.8961-2.27396L70.8961-31.5552Z"/>
</svg>