<svg xmlns="http://www.w3.org/2000/svg" viewBox="11.2588 -96.7134 122.9 122.89">
  <path d="M72.7024-60.386L48.3183-41.6229L58.0491-11.5205L87.3557-11.5205L97.095-41.6229ZM94.8179-89.4727L72.622-95.5841L50.4261-89.4727L72.622-71.5391ZM70.9298-92.8538L70.9298-54.5671L74.4835-54.5671L74.4835-92.8538ZM116.692-73.5496L108.409-46.2872L133.259-32.3746L128.899-57.3846ZM128.834-52.5943L127.523-55.9365L91.9239-41.597L93.2438-38.2463ZM87.25 22.023L108.32 12.9356L124.401-5.31975L93.6836-5.72185ZM108.183 10.0022L84.6383-20.2216L81.6853-18.0683L105.311 12.1556ZM58.1464 21.9893L51.7128-5.75559L21.0043-5.35349L37.0764 12.9018ZM37.2215 9.97691L40.0941 12.1218L63.7196-18.102L60.7666-20.2554ZM28.7127-73.5496L16.5142-57.3846L12.1462-32.3746L36.996-46.2872ZM16.5704-52.5943L52.1695-38.2463L53.481-41.597L17.8904-55.9365ZM72.7024 26.174C106.626 26.174 134.155-1.34598 134.155-35.2697C134.155-69.1934 106.626-96.7134 72.7024-96.7134C38.7872-96.7134 11.2588-69.1934 11.2588-35.2697C11.2588-1.34598 38.7872 26.174 72.7024 26.174ZM72.7024 22.4262C40.8556 22.4262 15.0149-3.42286 15.0149-35.2697C15.0149-67.1165 40.8556-92.9656 72.7024-92.9656C104.549-92.9656 130.398-67.1165 130.398-35.2697C130.398-3.42286 104.549 22.4262 72.7024 22.4262Z"/>
</svg>