<svg xmlns="http://www.w3.org/2000/svg" viewBox="11.2588 -96.6329 122.9 122.89">
  <path d="M72.7024 26.2544C106.482 26.2544 134.155-1.41796 134.155-35.1893C134.155-68.9606 106.482-96.6329 72.7024-96.6329C38.9311-96.6329 11.2588-68.9606 11.2588-35.1893C11.2588-1.41796 38.9311 26.2544 72.7024 26.2544ZM53.3921-23.2286C50.4385-23.2286 48.081-25.5141 48.081-28.5735L48.081-41.7966C48.081-44.4466 50.2911-46.7664 52.8145-46.8125L54.9105-46.8125L85.8947-16.1162L85.8103-8.95213C85.7344-7.66935 85.0657-6.69138 83.7408-6.69138C82.6998-6.69138 81.9001-7.26276 81.2191-7.93536L65.5873-22.6994C65.2105-23.0762 64.8252-23.2286 64.2876-23.2286ZM66.45-48.3641L81.2191-62.6974C81.9254-63.3953 82.6914-63.9751 83.7324-63.9751C85.2007-63.9751 85.9706-62.8369 85.9706-61.4405L85.9706-28.8519ZM105.036-0.511424L37.8891-67.7307C37.1866-68.4331 37.1147-69.4527 37.8891-70.2271C38.5999-70.9379 39.7466-70.9379 40.4659-70.2271L107.541-3.01627C108.244-2.36897 108.244-1.30269 107.541-0.511424C106.83 0.262973 105.747 0.190989 105.036-0.511424Z"/>
</svg>