<svg xmlns="http://www.w3.org/2000/svg" viewBox="16.084 -90.7201 110.91 110.92">
  <path d="M32.7039 20.1976L110.373 20.1976C121.246 20.1976 126.993 14.3061 126.993 3.60292L126.993-74.1255C126.993-84.8286 121.246-90.7201 110.373-90.7201L32.7039-90.7201C21.8399-90.7201 16.084-84.9726 16.084-74.1255L16.084 3.60292C16.084 14.4501 21.8399 20.1976 32.7039 20.1976ZM37.2884-19.2414C36.2267-19.2414 35.3848-20.0917 35.3848-21.145C35.3848-22.118 36.2267-22.9599 37.2884-22.9599L102.273-22.9599C103.326-22.9599 104.168-22.118 104.168-21.145C104.168-20.0917 103.326-19.2414 102.273-19.2414ZM37.2884 1.04076C36.2267 1.04076 35.3848 0.190436 35.3848-0.77405C35.3848-1.82739 36.2267-2.61417 37.2884-2.61417L83.5254-2.61417C84.6507-2.61417 85.4206-1.82739 85.4206-0.77405C85.4206 0.190436 84.6507 1.04076 83.5254 1.04076ZM36.1637-68.5546C36.1637-71.5847 38.2332-73.6542 41.3437-73.6542L60.6844-73.6542C63.7949-73.6542 65.7925-71.5847 65.7925-68.5546L65.7925-49.125C65.7925-46.0949 63.7949-44.0254 60.6844-44.0254L41.3437-44.0254C38.2332-44.0254 36.1637-46.0949 36.1637-49.125Z" />
</svg>