<svg xmlns="http://www.w3.org/2000/svg" viewBox="16.084 -90.5761 110.91 110.92">
  <path d="M68.8108-35.1173L19.0134-84.8427C17.0788-82.1 16.084-78.5064 16.084-73.9815L16.084 3.74689C16.084 8.27177 17.0788 11.8654 19.0134 14.6081ZM71.5428-37.8494L121.188-87.5747C118.517-89.5729 114.915-90.5761 110.373-90.5761L32.7039-90.5761C28.1706-90.5761 24.5686-89.5729 21.8174-87.6467ZM74.2749-35.1173L123.992 14.5361C125.998 11.8654 126.993 8.19979 126.993 3.74689L126.993-73.9815C126.993-78.4344 125.998-82.1 123.992-84.7707ZM71.5428-32.3852L21.8174 17.4121C24.5686 19.3383 28.1706 20.3415 32.7039 20.3415L110.373 20.3415C114.915 20.3415 118.517 19.3383 121.188 17.3401Z"/>
</svg>