<svg xmlns="http://www.w3.org/2000/svg" viewBox="16.084 -102.067 117.79 133.74">
  <path d="M21.2764 1.70044L69.7483 29.7839C73.0702 31.6712 76.8832 31.6712 80.2051 29.7839L128.605 1.70044C131.919-0.250456 133.869-3.57243 133.869-7.32181L133.869-63.2176C133.869-66.967 131.919-70.2889 128.605-72.2398L80.2051-100.179C76.8832-102.067 73.0702-102.067 69.7483-100.179L21.2764-72.2398C18.0349-70.2889 16.084-66.967 16.084-63.2176L16.084-7.32181C16.084-3.57243 18.0349-0.250456 21.2764 1.70044ZM55.2288-2.84415C53.486-1.57092 51.358-2.78904 52.111-5.24721L59.5732-28.3283L39.908-42.3978C38.1989-43.7093 38.9733-46.3789 41.2026-46.3705L65.4815-46.3536L72.91-69.4431C73.5741-71.5414 76.2353-71.5414 76.8995-69.4431L84.3195-46.3536L108.679-46.3705C111.044-46.3789 111.323-43.4849 109.965-42.4698L90.2363-28.3283L97.7704-5.24721C98.587-2.78904 96.3954-1.57092 94.5806-2.84415L74.9407-17.2185Z"/>
</svg>