<svg xmlns="http://www.w3.org/2000/svg" viewBox="11.2588 -96.7134 122.9 122.89">
  <path d="M72.7024 26.174C106.482 26.174 134.155-1.49838 134.155-35.2697C134.155-69.041 106.482-96.7134 72.7024-96.7134C38.9311-96.7134 11.2588-69.041 11.2588-35.2697C11.2588-1.49838 38.9311 26.174 72.7024 26.174ZM72.7024 0.676344C52.8904 0.676344 36.7564-15.4577 36.7564-35.2697C36.7564-55.0817 52.8904-71.2157 72.7024-71.2157C92.5229-71.2157 108.648-55.0817 108.648-35.2697C108.648-15.4577 92.5229 0.676344 72.7024 0.676344ZM43.1991-47.9103C42.8144-46.9542 43.1782-46.0915 44.0494-46.0915L101.356-46.0915C102.218-46.0915 102.582-46.9542 102.125-47.9103C97.3683-59.2765 85.9307-67.4214 72.694-67.4214C59.4658-67.4214 48.0282-59.2765 43.1991-47.9103ZM72.6305-24.6751C76.7825-24.6751 80.0583-27.8705 80.0583-31.887C80.0583-35.9671 76.7825-39.226 72.6305-39.226C68.6308-39.226 65.3634-35.9671 65.3634-31.887C65.3634-27.8705 68.6308-24.6751 72.6305-24.6751ZM41.3252-28.0578C43.8013-17.4457 51.552-8.79357 61.5629-5.06894C62.79-4.60779 63.6066-5.24666 63.6785-6.46533C65.1351-18.7831 55.1917-29.7719 42.6198-29.9237C41.4011-29.9575 41.1053-29.1915 41.3252-28.0578ZM104.08-28.0578C104.3-29.1915 103.995-29.9575 102.777-29.9237C90.1412-29.7719 80.3418-18.6391 81.7179-6.46533C81.7899-5.24666 82.6149-4.60779 83.77-5.06894C93.8444-8.79357 101.532-17.4457 104.08-28.0578Z"/>
</svg>