<svg xmlns="http://www.w3.org/2000/svg" viewBox="16.084 -93.6405 137.94 116.74">
  <path d="M41.6119-71.0678L45.4902-71.0678L45.4902 23.1011L41.6119 23.1011ZM124.619-71.0678L128.498-71.0678L128.498 23.1011L124.619 23.1011ZM31.4718 23.1011L138.629 23.1011C148.926 23.1011 154.026 18.0903 154.026 7.74707L154.026-55.7858C154.026-66.129 148.926-71.1398 138.629-71.1398L31.4718-71.1398C21.1921-71.1398 16.084-66.129 16.084-55.7858L16.084 7.74707C16.084 18.0903 21.1921 23.1011 31.4718 23.1011ZM55.6202-68.6906L59.5198-68.6906L59.5198-81.6264C59.5198-86.7947 62.83-89.8084 68.5021-89.8084L101.527-89.8084C107.28-89.8084 110.581-86.7947 110.581-81.6264L110.581-68.7075L114.489-68.7075L114.489-81.5336C114.489-89.218 109.623-93.6405 101.366-93.6405L68.6629-93.6405C60.563-93.6405 55.6202-89.218 55.6202-81.5336Z"/>
</svg>