<svg xmlns="http://www.w3.org/2000/svg" viewBox="16.084 -96.4839 161.48 122.36">
  <path d="M74.403 23.6618L80.569 23.6618C72.955 18.5734 67.8975 9.83294 67.8975-0.058707C67.8975-16.0128 80.88-28.9952 96.8256-28.9952C112.771-28.9952 125.754-16.0128 125.754-0.058707C125.754 9.83294 120.696 18.5734 113.082 23.6618L119.248 23.6618C125.593 17.7107 129.56 9.28743 129.56-0.058707C129.56-18.1189 114.869-32.8819 96.8256-32.8819C78.7823-32.8819 64.0913-18.1189 64.0913-0.058707C64.0913 9.28743 68.0577 17.7107 74.403 23.6618ZM26.033 0.244442L48.9988 0.244442C50.1871 0.244442 50.9142-0.681805 50.9058-1.66711C50.8974-2.66084 50.1067-3.57865 48.9988-3.57865L26.033-3.57865C24.9887-3.57865 24.126-2.66084 24.126-1.66711C24.126-0.681805 24.9887 0.244442 26.033 0.244442ZM64.3359-32.5484C65.076-33.2969 65.076-34.5572 64.3573-35.2039L48.076-51.4853C47.2937-52.3395 46.1858-52.1871 45.4373-51.447C44.6167-50.7154 44.5448-49.599 45.4075-48.8083L61.6888-32.527C62.3271-31.8887 63.5958-31.8802 64.3359-32.5484ZM129.315-32.5484C130.064-31.8887 131.324-31.8887 131.962-32.527L148.244-48.8083C149.106-49.599 149.026-50.7069 148.214-51.447C147.474-52.1956 146.357-52.3395 145.575-51.4853L129.294-35.2039C128.575-34.5572 128.567-33.2885 129.315-32.5484ZM144.652 0.244442L167.618 0.244442C168.734 0.244442 169.525-0.681805 169.525-1.66711C169.525-2.66084 168.734-3.57865 167.618-3.57865L144.652-3.57865C143.616-3.57865 142.737-2.66084 142.745-1.66711C142.754-0.681805 143.616 0.244442 144.652 0.244442ZM18.2537 25.8725L175.398 25.8725C176.616 25.8725 177.567 25.0903 177.567 23.9694C177.567 22.9121 176.616 22.1383 175.398 22.1383L18.2537 22.1383C17.0355 22.1383 16.084 22.9121 16.084 23.9694C16.084 25.0903 17.0355 25.8725 18.2537 25.8725ZM96.8256-92.5366L105.426-83.5897L115.975-72.8163C116.445-72.3467 116.876-72.1437 117.379-72.1437C118.475-72.1437 119.262-72.994 119.262-74.153C119.262-74.8088 118.923-75.3588 118.293-75.9723L98.2467-95.858C97.8705-96.2174 97.3289-96.4839 96.834-96.4839C96.3391-96.4839 95.7976-96.2174 95.4213-95.858L75.367-75.9723C74.745-75.3588 74.4064-74.8088 74.4064-74.153C74.4064-72.994 75.1932-72.1437 76.2887-72.1437C76.792-72.1437 77.2234-72.3467 77.693-72.8163L88.3264-83.6656ZM98.4919-91.6019C98.4666-92.5366 97.6883-93.2682 96.8256-93.2682C95.9629-93.2682 95.1845-92.5366 95.1592-91.6019L94.8421-79.3443L94.8421-52.7535C94.8421-51.6624 95.7767-50.7109 96.8256-50.7109C97.8744-50.7109 98.8091-51.6624 98.8091-52.7535L98.8091-79.3443Z"/>
</svg>