<svg xmlns="http://www.w3.org/2000/svg" viewBox="16.084 -96.1639 121.29 112.33">
  <path d="M27.1882-43.4264L65.7756-43.4264C70.3033-43.4264 72.8464-46.0415 72.8464-50.4635L72.8464-89.1184C72.8464-93.5488 70.3033-96.1639 65.7756-96.1639L27.1882-96.1639C22.7324-96.1639 20.1809-93.5488 20.1809-89.1184L20.1809-50.4635C20.1809-46.0415 22.7324-43.4264 27.1882-43.4264ZM90.6097-82.7529L135.388-82.7529C136.517-82.7529 137.371-83.5987 137.371-84.728C137.371-85.8572 136.517-86.703 135.388-86.703L90.6097-86.703C89.472-86.703 88.6261-85.8572 88.6261-84.728C88.6261-83.5987 89.472-82.7529 90.6097-82.7529ZM90.6097-49.7807L135.388-49.7807C136.517-49.7807 137.371-50.6265 137.371-51.7558C137.371-52.8851 136.517-53.7309 135.388-53.7309L90.6097-53.7309C89.472-53.7309 88.6261-52.8851 88.6261-51.7558C88.6261-50.6265 89.472-49.7807 90.6097-49.7807ZM18.0591-16.8085L135.388-16.8085C136.517-16.8085 137.371-17.6544 137.371-18.7836C137.371-19.9129 136.517-20.7587 135.388-20.7587L18.0591-20.7587C16.8578-20.7587 16.084-19.9129 16.084-18.7836C16.084-17.6544 16.8578-16.8085 18.0591-16.8085ZM18.0591 16.1636L135.388 16.1636C136.517 16.1636 137.371 15.3178 137.371 14.1885C137.371 13.0593 136.517 12.2135 135.388 12.2135L18.0591 12.2135C16.8578 12.2135 16.084 13.0593 16.084 14.1885C16.084 15.3178 16.8578 16.1636 18.0591 16.1636Z" />
</svg>