<svg xmlns="http://www.w3.org/2000/svg" viewBox="16.084 -98.8864 127.32 127.23">
  <path d="M79.7457 4.43921C90.0557 4.43921 98.258-3.82662 98.258-14.1451C98.258-21.3486 94.2331-27.2952 88.3287-30.4569C85.9414-31.7352 85.1754-32.7463 85.1754-36.395L85.1754-93.5286C85.1754-96.453 82.8944-98.8864 79.7541-98.8864C76.6053-98.8864 74.3963-96.453 74.3963-93.5286L74.3963-36.395C74.3963-32.7632 73.5499-31.7605 71.1458-30.4738C65.2498-27.3036 61.2417-21.3486 61.2417-14.1451C61.2417-3.82662 69.5076 4.43921 79.7457 4.43921ZM100.06-89.7843L112.677-89.7843C113.803-89.7843 114.7-90.4907 114.7-91.5103C114.7-92.5299 113.803-93.2362 112.677-93.2362L100.06-93.2362C98.9351-93.2362 98.0465-92.5299 98.0465-91.5103C98.0465-90.4907 98.9351-89.7843 100.06-89.7843ZM100.06-72.0919L112.677-72.0919C113.803-72.0919 114.7-72.7983 114.7-73.8179C114.7-74.8375 113.803-75.5438 112.677-75.5438L100.06-75.5438C98.9351-75.5438 98.0465-74.8375 98.0465-73.8179C98.0465-72.7983 98.9351-72.0919 100.06-72.0919ZM100.06-54.3995L112.677-54.3995C113.803-54.3995 114.7-55.1059 114.7-56.1255C114.7-57.1451 113.803-57.8515 112.677-57.8515L100.06-57.8515C98.9351-57.8515 98.0465-57.1451 98.0465-56.1255C98.0465-55.1059 98.9351-54.3995 100.06-54.3995ZM100.06-36.7072L112.677-36.7072C113.803-36.7072 114.7-37.4135 114.7-38.4331C114.7-39.4527 113.803-40.1591 112.677-40.1591L100.06-40.1591C98.9351-40.1591 98.0465-39.4527 98.0465-38.4331C98.0465-37.4135 98.9351-36.7072 100.06-36.7072ZM16.084 2.63733C16.084 3.65243 16.9681 4.5365 17.9832 4.5365L18.3048 4.5365C35.6829 4.5365 37.4352-8.25027 49.8294-8.25027C52.8696-8.25027 55.262-7.45845 57.3664-6.22629C56.8417-7.58444 56.5369-9.07362 56.3209-10.6556C54.4325-11.4559 52.1757-12.0317 49.7029-12.0317C43.6124-12.0317 39.2106-8.89141 35.1345-5.94119C30.3897-2.63553 25.8986 0.746598 18.3048 0.746598L17.9832 0.746598C16.9681 0.746598 16.084 1.55868 16.084 2.63733ZM143.399 2.63733C143.399 1.55868 142.587 0.746598 141.508 0.746598L141.186 0.746598C133.584 0.746598 129.165-2.63553 124.42-5.94119C120.272-8.89141 115.943-12.0317 109.797-12.0317C107.333-12.0317 105.076-11.4559 103.196-10.6556C103.022-9.20411 102.65-7.58444 102.125-6.22629C104.301-7.45845 106.622-8.25027 109.67-8.25027C122.056-8.23339 123.817 4.5365 141.186 4.5365L141.508 4.5365C142.587 4.5365 143.399 3.65243 143.399 2.63733ZM16.084 26.4479C16.084 27.5349 16.9681 28.347 17.9832 28.347L18.3048 28.347C35.6829 28.347 37.4352 15.5603 49.8294 15.5603C61.9824 15.5603 64.5007 28.347 79.7457 28.347C94.9822 28.347 97.5089 15.5603 109.662 15.5603C122.056 15.5603 123.808 28.347 141.186 28.347L141.508 28.347C142.587 28.347 143.399 27.5349 143.399 26.4479C143.399 25.4327 142.587 24.5487 141.508 24.5487L141.186 24.5487C133.584 24.5487 129.165 21.247 124.42 17.9413C120.319 14.9658 115.883 11.7619 109.662 11.7619C103.263 11.7619 98.8187 15.1351 94.7172 18.191C90.3746 21.4882 86.2135 24.5487 79.7457 24.5487C73.2693 24.5487 69.1083 21.4882 64.7656 18.191C60.6642 15.1351 56.2203 11.7619 49.8294 11.7619C43.5994 11.7619 39.2359 14.9658 35.1345 17.9413C30.3897 21.247 25.8986 24.5487 18.3048 24.5487L17.9832 24.5487C16.9681 24.5487 16.084 25.4327 16.084 26.4479Z"/>
</svg>