<svg xmlns="http://www.w3.org/2000/svg" viewBox="11.2588 -99.4668 113.26 126.7">
  <path d="M66.4674-49.0597C100.076-49.0597 124.517-57.1855 124.517-69.3368C124.517-79.5238 108.382-86.2998 84.329-86.2998C67.4673-86.2998 52.7504-82.7445 41.1486-77.5807C39.7145-76.9081 39.2067-75.69 39.7651-74.6451C40.2769-73.6384 41.5839-73.4821 42.9589-74.1125C53.0114-78.5103 66.4207-82.6117 84.2531-82.6117C106.259-82.6117 120.744-77.2022 120.744-69.3453C120.744-60.3073 97.2423-52.79 66.4083-52.79C33.6769-52.79 15.0313-59.9013 15.0313-73.1374C15.0313-81.8194 23.9972-90.5519 41.4056-95.8552C42.4966-96.1257 43.0804-97.0688 42.8352-98.1008C42.4376-99.3318 41.3123-99.4668 40.2342-99.1878C21.8236-93.6816 11.2588-83.5746 11.2588-73.1036C11.2588-57.7828 30.6057-49.0597 66.4674-49.0597ZM68.533-29.7893C87.9564-29.7893 105.699-32.6546 118.143-38.3138C119.366-38.7834 119.933-39.807 119.438-40.7883C118.934-41.8332 117.873-41.9474 116.536-41.3974C103.82-35.9834 86.5808-33.3509 68.533-33.3509C54.1035-33.3509 37.329-35.3912 26.5195-38.5062C25.2463-38.8954 24.1845-38.5698 23.8842-37.4995C23.5119-36.4293 24.0872-35.5115 25.3689-35.1943C37.1985-31.5754 54.3071-29.7893 68.533-29.7893ZM73.3542-10.5442C90.5433-10.5611 105.857-13.5962 118.677-17.8624C119.874-18.2853 120.356-19.3257 119.975-20.3453C119.578-21.3267 118.596-21.6186 117.201-21.2125C104.829-16.8446 89.4303-14.0338 73.3542-14.0338C66.4421-14.0338 59.4877-14.3723 53.8454-15.2401C52.6188-15.4262 51.6797-14.9949 51.5571-14.0051C51.3625-13.0153 51.8658-12.0424 53.3336-11.8309C58.4383-11.0903 65.833-10.5358 73.3542-10.5442ZM67.2929 7.71056C78.2975 9.21323 92.5448 9.03552 103.736 5.32327C104.873 5.01453 105.423 3.92744 105.059 2.94608C104.679 1.87587 103.625 1.63066 102.335 2.00296C91.834 4.94475 78.6867 5.9649 67.8851 4.30983C66.595 4.13212 65.6941 4.66076 65.5164 5.57857C65.3387 6.64879 65.842 7.5964 67.2929 7.71056ZM63.0223 26.6087C66.1963 27.2352 72.2666 27.0192 75.9446 26.4647C77.1542 26.2786 77.7464 25.4114 77.5772 24.4132C77.4079 23.4487 76.566 22.8396 75.0515 23.0977C71.5215 23.7158 67.2125 23.7878 63.5385 23.2417C62.2568 23.0556 61.4065 23.5291 61.2288 24.4851C61.0511 25.53 61.5797 26.3506 63.0223 26.6087Z" />
</svg>