<svg xmlns="http://www.w3.org/2000/svg" viewBox="16.084 -81.7204 232.75 134.98">
  <path d="M73.1276 40.288L185.916 40.288C186.944 40.288 187.714 39.4461 187.714 38.418C187.714 37.4704 186.944 36.6201 185.916 36.6201L73.1276 36.6201C72.1716 36.6201 71.3297 37.4704 71.3297 38.418C71.3297 39.4461 72.1716 40.288 73.1276 40.288ZM82.0245 49.8456L82.0245 27.0541C82.0245 24.5408 79.4645 23.6354 77.332 25.1628L63.1117 35.9593C61.4909 37.1527 61.3469 39.5945 63.1117 40.9403L77.332 51.6649C79.4392 53.2474 82.0245 52.3122 82.0245 49.8456ZM177.027 49.8456C177.027 52.2953 179.731 53.2643 181.72 51.6649L195.932 40.9403C197.777 39.5945 197.624 37.1443 195.932 35.9593L181.72 25.1628C179.731 23.6354 177.027 24.5408 177.027 27.0541ZM28.6531-2.56687L38.7872-2.56687C38.5122-4.00993 38.3344-5.44456 38.3344-6.9045C38.3344-19.6952 48.4077-29.8405 61.2069-29.8405C73.9976-29.8405 84.1513-19.6952 84.1513-6.9045C84.1513-5.44456 83.9736-4.00149 83.707-2.56687L169.341-2.56687C169.066-4.00993 168.889-5.44456 168.889-6.9045C168.889-19.6868 178.97-29.8405 191.761-29.8405C204.552-29.8405 214.697-19.6952 214.697-6.9045C214.697-5.44456 214.528-4.00993 214.253-2.56687L236.26-2.56687C244.555-2.56687 248.829-6.9298 248.829-15.5381L248.829-39.3885C248.829-47.9884 244.555-52.3598 236.26-52.3598L180.311-52.3598L178.647-66.9124C177.551-76.5021 171.681-81.7204 162.244-81.7204L136.759-81.7204C116.205-81.7204 106.768-79.5581 93.9648-71.4952L67.3835-54.7718L44.0364-51.7839C25.2563-49.3843 16.084-40.9655 16.084-26.3842L16.084-15.5381C16.084-6.9298 20.2861-2.56687 28.6531-2.56687ZM61.2069 10.8942C71.175 10.8942 79.0775 3.07207 79.0775-6.9045C79.0775-16.9362 71.1666-24.7667 61.2069-24.7667C51.2388-24.7667 43.4082-16.9362 43.4082-6.9045C43.4082 3.06363 51.2388 10.8942 61.2069 10.8942ZM191.761 10.8942C201.721 10.8942 209.632 3.06363 209.632-6.9045C209.632-16.9362 201.721-24.7667 191.761-24.7667C181.801-24.7667 173.962-16.9277 173.962-6.9045C173.962 3.06363 181.793 10.8942 191.761 10.8942Z" />
</svg>