<svg xmlns="http://www.w3.org/2000/svg" viewBox="16.012 -129.349 236.44 166.42">
  <path d="M57.8169-107.294C58.5783-106.533 59.8178-106.533 60.5242-107.222C61.2857-107.992 61.2137-109.16 60.4522-109.921L51.6859-118.679L49.131-116.044ZM76.1633-113.812C77.0727-113.812 78.0203-114.616 78.0203-115.669L78.0203-128.042L74.3148-128.042L74.3148-115.669C74.3148-114.616 75.11-113.812 76.1633-113.812ZM91.8025-107.222C92.5004-106.533 93.7483-106.533 94.4378-107.294L103.187-116.044L100.632-118.679L91.8745-109.921C91.113-109.16 91.041-107.992 91.8025-107.222ZM75.6679-86.929C78.1559-87.0179 80.1152-89.0194 80.1787-91.4821C80.1366-94.0971 78.0631-96.0013 75.5453-95.9845C75.0841-96.0396 74.132-95.8703 73.6793-95.7646L50.9874-92.3667C50.4037-92.2525 50.1118-91.9904 50.1202-91.3769C50.1286-90.8269 50.5009-90.5817 51.0931-90.4124L74.2676-87.0263C74.7287-86.9375 75.2067-86.929 75.6679-86.929ZM18.4454-82.8394L30.4617-90.3224C31.4307-91.0248 31.4391-92.2818 30.4533-92.9122L18.4623-100.387C17.4466-100.928 16.0924-100.836 16.084-99.1849L16.084-83.9608C16.012-82.5262 17.5017-82.2259 18.4454-82.8394ZM76.1633-129.349C55.4543-129.349 38.4064-112.292 38.4064-91.5748C38.4064-81.997 42.0208-73.0794 48.0225-66.3539C48.4286-65.8759 49.0759-65.5671 49.74-65.5671C50.7383-65.5671 51.5419-66.4428 51.5419-67.3055C51.5419-67.8639 51.3558-68.4139 50.9328-68.8284C45.5487-74.8222 42.171-82.7371 42.171-91.5748C42.171-110.49 57.2562-125.584 76.1633-125.584C94.165-125.584 110.39-111.616 110.041-90.417C111.256-91.2757 112.495-92.198 113.76-92.9764C113.118-113.09 96.3403-129.349 76.1633-129.349ZM78.5338 35.8064C79.1428 36.8215 80.3058 37.0667 81.2405 36.6185L251.203-61.3903C252.137-61.9105 252.455-62.9296 252.006-63.8643C251.325-64.9598 250.09-65.2685 249.156-64.7483L79.2654 33.2605C78.3307 33.7087 78.0135 34.9437 78.5338 35.8064ZM79.9443 6.38284L87.0431 2.25556C86.2687 1.3372 85.5832 0.4104 84.9865-0.622128C79.7974-9.60779 82.8067-20.8154 91.7924-25.996C100.706-31.1767 111.914-28.1758 117.094-19.1817C117.691-18.0856 118.19-17.0531 118.601-15.9486L178.645-50.6349C177.87-51.4897 177.185-52.4165 176.588-53.5126C171.408-62.4982 174.417-73.7143 183.322-78.8145C192.308-84.0036 203.515-80.9943 208.696-72.0806C209.293-70.9845 209.792-69.952 210.131-68.8475L225.589-77.7578C231.468-81.0842 232.598-85.8746 229.191-91.914L219.498-108.645C216.019-114.685 211.301-116.056 205.422-112.657L166.239-90.0075L159.12-99.5061C154.494-105.808 148.213-107.128 141.629-103.26L123.712-92.9662C109.333-84.6194 103.612-79.2745 97.9065-68.4353L85.983-45.9385L70.8005-34.443C58.6487-25.1272 55.6349-15.5358 61.5224-5.2972L65.8769 2.37927C69.3558 8.34666 74.1461 9.70931 79.9443 6.38284ZM108.295 2.58679C115.241-1.48089 117.557-10.1072 113.569-17.1251C109.502-24.1345 100.795-26.4583 93.8575-22.3906C86.8396-18.4034 84.5242-9.69665 88.5115-2.67875C92.5792 4.33072 101.286 6.65446 108.295 2.58679ZM199.825-50.3037C206.843-54.2993 209.158-63.0061 205.171-70.0155C201.103-77.0334 192.397-79.3487 185.387-75.2895C178.45-71.2303 176.054-62.5871 180.113-55.5776C184.181-48.5597 192.816-46.2444 199.825-50.3037Z"/>
</svg>