<svg xmlns="http://www.w3.org/2000/svg" viewBox="16.084 -74.4202 170.38 76.28">
  <path d="M101.299-5.52781C120.697-5.52781 135.782-20.4769 135.782-39.9296C135.782-59.3271 120.697-74.4202 101.299-74.4202C81.8383-74.4202 66.8256-59.3271 66.8256-39.9296C66.8256-20.4769 81.8383-5.52781 101.299-5.52781ZM101.299-16.7022C88.2213-16.7022 77.9916-26.8599 77.9916-39.9296C77.9916-52.9441 88.2213-63.2457 101.299-63.2457C114.305-63.2457 124.607-52.9441 124.607-39.9296C124.607-26.8599 114.305-16.7022 101.299-16.7022ZM101.299-20.1086C112.456-20.1086 121.129-28.8445 121.129-39.9296C121.129-51.095 112.456-59.7674 101.299-59.7674C90.1339-59.7674 81.4064-51.095 81.4064-39.9296C81.4064-28.8445 90.1339-20.1086 101.299-20.1086ZM61.6799-39.9296C61.6799-53.5661 68.2737-65.3743 78.4736-72.4721L31.4718-72.4721C21.9839-72.4721 16.084-66.7246 16.084-57.1816L16.084-22.8468C16.084-13.3038 21.9839-7.48431 31.4718-7.48431L78.3128-7.48431C68.1933-14.5905 61.6799-26.3183 61.6799-39.9296ZM171.063-72.4721L124.053-72.4721C134.333-65.3743 140.855-53.5661 140.855-39.9296C140.855-26.3183 134.414-14.5905 124.206-7.48431L171.063-7.48431C180.632-7.48431 186.46-13.3038 186.46-22.8468L186.46-57.1816C186.46-66.7246 180.632-72.4721 171.063-72.4721ZM151.221-54.0587C151.221-55.1542 152.016-55.9494 153.111-55.9494L170.567-55.9494C171.671-55.9494 172.467-55.1542 172.467-54.0587C172.467-53.0267 171.671-52.1595 170.567-52.1595L153.111-52.1595C152.016-52.1595 151.221-53.0267 151.221-54.0587ZM151.221-43.8268C151.221-44.9307 152.016-45.726 153.111-45.726L170.567-45.726C171.671-45.726 172.467-44.9307 172.467-43.8268C172.467-42.8032 171.671-41.936 170.567-41.936L153.111-41.936C152.016-41.936 151.221-42.8032 151.221-43.8268ZM58.7977-9.803L30.0771-9.803L30.0771-1.39321C30.0771 0.544755 31.4566 1.86072 33.4665 1.86072L55.3362 1.86072C57.4182 1.86072 58.7977 0.544755 58.7977-1.39321ZM143.809-9.803L143.809-1.39321C143.809 0.544755 145.197 1.86072 147.207 1.86072L169.069 1.86072C171.151 1.86072 172.467 0.544755 172.467-1.39321L172.467-9.803Z"/>
</svg>