<svg xmlns="http://www.w3.org/2000/svg" viewBox="16.084 -81.9048 145.27 93.41">
  <path d="M46.8292 11.5094C64.6436 11.5094 77.8533 0.530094 77.8533-14.5422C77.8533-27.3672 68.4947-36.129 54.036-37.0221L54.036-37.2633C66.3065-39.4813 73.8491-47.7393 73.8491-58.9177C73.8491-72.1571 62.0235-81.9048 46.012-81.9048C32.9924-81.9048 22.3219-75.005 19.0888-64.2619C18.5219-62.5608 18.3104-60.8849 18.3104-59.6622C18.3104-58.3002 19.059-57.5601 20.1967-57.5601C21.6139-57.5601 21.8461-58.614 22.1718-60.1116C23.9956-70.7748 33.7235-78.1959 45.9698-78.1959C59.617-78.1959 69.7387-69.8564 69.7387-58.7321C69.7387-47.0065 59.6935-38.7688 45.0554-38.7688L36.0304-38.7688C34.8123-38.7688 34.0722-38.1811 34.0722-36.9715C34.0722-35.9142 34.8123-35.1825 36.0304-35.1825L45.1443-35.1825C63.0036-35.1825 73.7473-27.474 73.7473-14.4871C73.7473-1.52093 62.2501 7.76671 46.9096 7.76671C33.0251 7.76671 21.8535 0.138089 20.0932-10.9655C19.8312-12.4293 19.2052-13.1402 18.1013-13.1402C16.8494-13.1402 16.084-12.4001 16.084-10.9958C16.084-9.52744 16.4394-8.21991 16.8708-7.03104C20.4846 4.6349 32.4762 11.5094 46.8292 11.5094ZM95.3634 10.1169L117.977 10.1169C144.859 10.1169 161.354-8.04953 161.354-35.295C161.354-62.5152 144.859-80.6563 117.977-80.6563L95.3634-80.6563C94.0863-80.6563 93.3124-79.8825 93.3124-78.5884L93.3124 8.04904C93.3124 9.34309 94.0863 10.1169 95.3634 10.1169ZM97.4229 6.42094L97.4229-76.9772L117.812-76.9772C142.318-76.9772 157.21-60.3331 157.21-35.2866C157.21-10.2316 142.318 6.42094 117.812 6.42094Z"/>
</svg>