<svg xmlns="http://www.w3.org/2000/svg" viewBox="11.2588 -85.7498 202.87 100.96">
  <path d="M112.688 15.2104C140.58 15.2104 163.168-7.37803 163.168-35.2697C163.168-63.1614 140.58-85.7498 112.688-85.7498C84.8048-85.7498 62.2164-63.1614 62.2164-35.2697C62.2164-7.37803 84.8048 15.2104 112.688 15.2104ZM47.5507-12.5586C48.2188-13.3409 48.0456-14.6057 47.1615-15.4471C41.8404-20.2554 39.3513-27.5573 39.3513-35.2697C39.3513-42.9821 41.8404-50.284 47.1615-55.0923C48.0456-55.9337 48.2188-57.1985 47.5507-57.9808C46.7218-58.907 45.3304-58.8435 44.4846-57.8497C38.7365-52.0049 35.4562-44.031 35.4562-35.2697C35.4562-26.5084 38.7365-18.5345 44.4846-12.6897C45.3304-11.6959 46.7218-11.6324 47.5507-12.5586ZM30.7773 4.67203C31.5174 3.81777 31.2339 2.60808 30.3796 1.79206C20.8811-7.83303 15.2259-20.7683 15.2259-35.2697C15.2259-49.7711 20.8811-62.7064 30.3796-72.3315C31.2339-73.1475 31.5174-74.3572 30.7773-75.2114C30.0287-76.0741 28.5991-76.0022 27.728-75.0973C17.4809-64.7405 11.2588-50.82 11.2588-35.2697C11.2588-19.7194 17.4809-5.79888 27.728 4.55787C28.5991 5.46275 30.0287 5.53473 30.7773 4.67203ZM177.834-12.5586C178.591-11.6324 179.982-11.6959 180.9-12.6897C186.648-18.5345 189.928-26.5084 189.928-35.2697C189.928-44.031 186.648-52.0049 180.9-57.8497C179.982-58.8435 178.591-58.907 177.834-57.9808C177.085-57.1985 177.339-55.9337 178.223-55.0923C183.472-50.284 185.961-42.9821 185.961-35.2697C185.961-27.5573 183.472-20.2554 178.223-15.4471C177.339-14.6057 177.085-13.3409 177.834-12.5586ZM194.535 4.67203C195.356 5.53473 196.713 5.46275 197.657 4.55787C207.832-5.79888 214.126-19.7194 214.126-35.2697C214.126-50.82 207.832-64.7405 197.657-75.0973C196.713-76.0022 195.356-76.0741 194.535-75.2114C193.867-74.3572 194.151-73.1475 194.933-72.3315C204.504-62.7064 210.159-49.7711 210.159-35.2697C210.159-20.7683 204.504-7.83303 194.933 1.79206C194.151 2.60808 193.867 3.81777 194.535 4.67203ZM90.382-10.7635C83.5637-10.7635 80.6095-13.6457 80.6095-20.1761L80.6095-50.4185C80.6095-56.8048 83.5637-59.543 90.382-59.543L135.003-59.543C141.757-59.543 144.775-56.8048 144.775-50.4185L144.775-20.1761C144.775-13.6457 141.757-10.7635 135.003-10.7635ZM85.532-49.8083L139.861-49.8083L139.861-51.6456C139.861-53.4356 138.443-54.5401 136.492-54.5401L88.9007-54.5401C86.8694-54.5401 85.532-53.4356 85.532-51.6456ZM85.532-42.4608L139.861-42.4608L139.861-45.352C139.861-46.5791 138.926-47.2731 137.538-47.2731L87.8468-47.2731C86.4588-47.2731 85.532-46.5791 85.532-45.352ZM85.532-35.1938L102.797-35.1938C104.287-35.1938 105.142-34.7917 105.988-33.5983C108.392-30.5637 110.144-29.1246 112.697-29.1246C115.177-29.1246 117.001-30.5637 119.397-33.5983C120.243-34.7917 121.098-35.1938 122.588-35.1938L139.861-35.1938L139.861-38.085C139.861-39.2316 138.926-39.9341 137.538-39.9341L87.8468-39.9341C86.4588-39.9341 85.532-39.2316 85.532-38.085Z" />
</svg>