<svg xmlns="http://www.w3.org/2000/svg" viewBox="16.084 -82.1101 213.84 93.68">
  <path d="M125.889-18.7116C113.843-18.7116 102.47-22.2417 92.6792-29.1623C91.7485-29.746 91.5539-30.9433 92.1292-31.6328C92.7681-32.6187 93.885-32.7964 94.7437-32.0771C102.976-25.8336 113.893-22.3542 125.889-22.3542C138.037-22.3542 148.873-25.8252 157.025-32.0771C157.884-32.7964 159.073-32.5467 159.648-31.6328C160.224-30.7909 159.957-29.8096 159.162-29.1623C149.363-22.2417 137.926-18.7116 125.889-18.7116ZM125.889-35.2995C116.636-35.2995 108.408-37.8729 102.038-42.8888C101.331-43.5445 101.065-44.509 101.568-45.2789C102.199-46.1124 103.188-46.5229 104.056-45.8036C109.969-41.4013 117.461-38.9589 125.889-38.9589C134.388-38.9589 141.872-41.4013 147.713-45.8036C148.653-46.5229 149.714-46.1124 150.201-45.2789C150.704-44.509 150.582-43.5445 149.731-42.8888C143.387-37.8729 135.15-35.2995 125.889-35.2995ZM125.889-51.8323C120.492-51.8323 115.096-53.5126 111.197-56.4629C110.347-57.0933 110.233-58.3626 110.863-59.1409C111.591-59.9913 112.788-60.0334 113.655-59.3057C116.995-56.8886 121.406-55.4832 125.889-55.4832C130.524-55.4832 134.863-56.8886 138.194-59.3057C139.133-60.0419 140.203-59.9997 140.914-59.1409C141.617-58.3626 141.422-57.1017 140.589-56.4629C136.657-53.5126 131.34-51.8323 125.889-51.8323ZM32.7377-1.59678L37.1017-1.59678C36.7716-3.31934 36.5304-5.11389 36.5304-6.98886C36.5304-20.2278 46.9124-30.6098 60.1598-30.6098C73.3267-30.6098 83.7808-20.2278 83.7808-6.98886C83.7808-5.11389 83.5395-3.31934 83.2009-1.59678L162.803-1.59678C162.472-3.31934 162.231-5.11389 162.231-6.98886C162.231-20.2278 172.685-30.6098 185.852-30.6098C199.1-30.6098 209.482-20.2278 209.482-6.98886C209.482-5.11389 209.24-3.31934 208.902-1.59678L213.274-1.59678C224.439-1.59678 229.928-7.35272 229.928-19.0333L229.928-36.4844C229.928-46.6758 225.417-52.1011 214.497-55.8977L204.309-59.4025C188.367-71.8006 174.558-82.1101 151.338-82.1101L143.741-82.1101C120.188-82.1101 108.692-79.6087 94.3776-70.6612L68.8845-54.6577L39.7084-51.0641C25.1411-49.2442 16.084-40.4329 16.084-27.9352L16.084-18.9827C16.084-7.33584 21.5902-1.59678 32.7377-1.59678ZM60.1598 11.5668C70.5677 11.5668 78.707 3.41906 78.707-6.98886C78.707-17.3883 70.5677-25.5361 60.1598-25.5361C49.7519-25.5361 41.6041-17.3883 41.6041-6.98886C41.6041 3.41906 49.7519 11.5668 60.1598 11.5668ZM185.852 11.5668C196.26 11.5668 204.408 3.41906 204.408-6.98886C204.408-17.3883 196.26-25.5361 185.852-25.5361C175.453-25.5361 167.305-17.3883 167.305-6.98886C167.305 3.41906 175.453 11.5668 185.852 11.5668Z"/>
</svg>