<svg xmlns="http://www.w3.org/2000/svg" viewBox="9.87588 -77.128 142.08 82.32">
  <path d="M81.0015-60.0238C93.3265-60.0238 104.759-64.3114 113.6-72.201C116.286-74.5444 113.291-77.128 111.397-75.5123C103.017-68.0164 92.6668-64.1304 81.0015-64.1304C69.2725-64.1304 58.9141-68.0164 50.5426-75.4403C48.7114-76.9841 46.1571-74.2565 48.4027-72.201C57.1724-64.3114 68.6848-60.0238 81.0015-60.0238ZM81.0015-27.4588C99.5228-27.4588 117.181-33.2997 131.876-44.135C134.206-45.8221 131.982-48.9726 129.72-47.3192C115.587-36.9535 98.749-31.4849 81.0015-31.4849C63.254-31.4849 46.4248-36.9535 32.2833-47.3192C30.1013-48.9726 27.805-45.8221 30.207-44.135C44.822-33.2997 62.4801-27.4588 81.0015-27.4588ZM81.0015 5.19507C105.791 5.19507 129.514-2.32167 149.75-16.5515C151.958-18.1076 149.996-21.4611 147.683-19.7908C128.072-6.10258 105.233 1.08854 81.0015 1.08854C56.8417 1.08854 34.0025-6.17456 14.3289-19.7908C12.1682-21.3087 9.87588-18.2049 12.2525-16.5515C32.5605-2.39365 56.2119 5.19507 81.0015 5.19507Z" />
</svg>