<svg xmlns="http://www.w3.org/2000/svg" viewBox="11.2588 -106.218 82.39 142.01">
  <path d="M76.5497-35.2613C76.5497-22.9446 80.8372-11.5042 88.7268-2.73448C90.7823-0.40846 93.5015-3.04323 91.9577-4.79394C84.5422-13.1739 80.5842-23.6043 80.5842-35.2613C80.5842-46.9266 84.5422-57.2766 92.0297-65.7286C93.6454-67.6233 91.0703-70.546 88.7268-67.86C80.8372-59.0903 76.5497-47.6499 76.5497-35.2613ZM43.9042-35.2613C43.9042-16.8119 49.7535 0.846173 60.5888 15.5417C62.348 17.8632 65.49 15.6389 63.8366 13.3849C53.4793-0.756625 48.0108-17.5138 48.0108-35.2613C48.0108-53.0088 53.4793-69.8463 63.8366-83.9794C65.49-86.2419 62.348-88.4661 60.5888-86.1362C49.7535-71.4407 43.9042-53.8546 43.9042-35.2613ZM11.2588-35.2613C11.2588-10.5437 18.9111 13.1797 33.0773 33.4877C34.6588 35.7923 37.7541 33.572 36.2363 31.3394C22.6284 11.7377 15.4373-11.1015 15.4373-35.2613C15.4373-59.493 22.5564-82.3322 36.2363-101.942C37.9066-104.327 34.5615-106.218 33.0773-104.082C18.8391-83.7742 11.2588-60.0509 11.2588-35.2613Z" />
</svg>