<svg xmlns="http://www.w3.org/2000/svg" viewBox="11.2588 -96.6329 122.9 122.89">
  <path d="M72.7024 26.2544C106.482 26.2544 134.155-1.41796 134.155-35.1893C134.155-68.9606 106.482-96.6329 72.7024-96.6329C38.9311-96.6329 11.2588-68.9606 11.2588-35.1893C11.2588-1.41796 38.9311 26.2544 72.7024 26.2544ZM30.8329-47.5233C38.3418-56.7846 51.8742-63.5612 66.0754-65.2371C66.0754-64.7079 66.0754-64.1956 66.0754-63.6748C66.0838-60.958 66.0838-58.3682 66.0922-55.6513C54.951-54.2336 44.9992-49.2431 37.3672-41.2809C36.7452-40.5785 35.8566-40.5065 35.26-41.2005L30.9302-45.6191C30.4055-46.2158 30.3251-46.9182 30.8329-47.5233ZM114.572-47.5233C115.08-46.9182 115.071-46.2158 114.475-45.6191L110.073-41.209C109.54-40.5318 108.66-40.5954 108.055-41.2725C100.63-49.387 90.5894-54.2336 79.2958-55.6513C79.3042-58.3682 79.3126-60.9495 79.3126-63.6664C79.3126-64.1871 79.3126-64.7079 79.3126-65.2371C93.5222-63.5696 106.991-56.7126 114.572-47.5233ZM45.7618-32.2897C50.168-37.716 57.7365-41.6949 66.1007-43.1846C66.1091-40.4126 66.1091-37.7211 66.1176-34.9576C66.1176-34.3778 66.1176-33.7979 66.1176-33.2266C61.0376-31.9314 56.3598-29.2011 53.0198-25.5648C52.3174-24.9259 51.5897-24.8539 50.9761-25.4123L45.8591-30.5294C45.3344-31.0541 45.3259-31.7565 45.7618-32.2897ZM99.6347-32.2897C100.079-31.693 100.071-31.0457 99.5543-30.5294L94.4288-25.4123C93.8152-24.7988 93.0239-24.9259 92.4019-25.5563C89.062-29.2095 84.3673-31.9398 79.2789-33.235C79.2789-33.8148 79.2789-34.4031 79.2789-34.9744C79.2789-37.666 79.2873-40.4211 79.2873-43.1846C87.732-41.7753 95.3004-37.716 99.6347-32.2897ZM72.7024-19.3112C71.6109-19.3112 70.9551-20.1828 70.9467-21.1305C70.9298-37.0676 70.9129-53.0301 70.8876-68.9673C70.8876-70.1646 71.6744-70.8288 72.694-70.8288C73.722-70.8288 74.5088-70.1646 74.5088-68.9673C74.4835-53.0301 74.4751-37.0676 74.4582-21.1305C74.4498-20.1828 73.794-19.3112 72.7024-19.3112ZM72.694-6.50973C70.1335-6.50973 67.9751-8.58771 67.9751-11.1482C67.9751-13.7976 70.1335-15.8671 72.694-15.8671C75.2714-15.8671 77.4214-13.7256 77.4214-11.1482C77.4214-8.58771 75.2714-6.50973 72.694-6.50973Z"/>
</svg>