<svg xmlns="http://www.w3.org/2000/svg" viewBox="10.2982 -100.729 178.1 124.2">
  <path d="M93.1431 5.74674L96.6704 3.87737L38.9424-92.4798C38.4857-93.3341 37.348-93.9476 36.1552-93.275C35.1232-92.6828 34.9753-91.431 35.4404-90.5683ZM99.3805 23.4718C105.487 23.4718 110.595 18.3721 110.595 12.2652C110.595 6.06953 105.496 1.0503 99.3805 1.0503C93.2016 1.0503 88.174 6.06953 88.174 12.2652C88.174 18.4441 93.1212 23.4718 99.3805 23.4718ZM99.3805 19.8129C95.1812 19.8129 91.7609 16.3925 91.7609 12.2652C91.7609 8.05755 95.1812 4.62031 99.3805 4.62031C103.436 4.62031 106.945 8.12954 106.945 12.2652C106.945 16.3925 103.508 19.8129 99.3805 19.8129ZM99.3805-9.75238C113.667-9.75238 127.592-6.33257 139.134-0.910687C141.75 0.337792 144.615-0.0896158 146.401-2.36668L185.966-53.6009C188.399-56.8166 187.747-60.282 184.612-62.5709C177.603-67.7009 168.269-72.3653 157.696-76.1534C158.297-74.5968 159.113-72.791 159.629-70.9435C167.677-67.743 175.069-64.1022 181.436-59.7967C183.125-58.5988 183.43-56.7998 182.152-55.1194L144.007-5.69827C142.648-4.02632 141.717-4.21696 140.252-4.78834C127.178-10.2316 112.917-13.7026 99.3805-13.7026C85.7715-13.7026 71.5918-10.2316 58.4367-4.78834C56.9722-4.21696 56.0409-4.02632 54.6907-5.69827L16.5373-55.1194C15.259-56.7998 15.5639-58.5988 17.2527-59.7967C38.0556-73.612 69.7303-82.4588 99.3805-82.4588C105.299-82.4588 111.361-82.0904 117.271-81.3453C117.897-82.6944 118.604-83.8743 119.183-85.1262C112.639-85.9602 105.942-86.337 99.3805-86.337C67.2946-86.337 32.8237-76.1619 14.0853-62.5709C10.95-60.282 10.2982-56.8166 12.7311-53.6009L52.296-2.36668C54.0822-0.0896158 56.9475 0.337792 59.5547-0.910687C71.1059-6.33257 85.0309-9.75238 99.3805-9.75238ZM136.285-40.4413C148.428-40.4413 156.508-48.1993 156.508-60.0121C156.508-64.9762 154.485-70.8766 151.5-77.1123C148.178-84.2483 143.73-91.9084 139.104-98.9809C138.266-100.221 137.5-100.729 136.285-100.729C135.071-100.729 134.305-100.221 133.475-98.9809C128.913-91.9084 124.393-84.2483 121.07-77.1123C118.158-70.8766 116.135-64.9762 116.135-60.0121C116.135-48.1993 124.214-40.4413 136.285-40.4413Z"/>
</svg>