<svg xmlns="http://www.w3.org/2000/svg" viewBox="16.084 -90.7201 145.87 110.92">
  <path d="M32.7039 20.1976L145.332 20.1976C156.204 20.1976 161.952 14.3061 161.952 3.60292L161.952-74.1255C161.952-84.8286 156.204-90.7201 145.332-90.7201L32.7039-90.7201C21.8399-90.7201 16.084-84.9726 16.084-74.1255L16.084 3.60292C16.084 14.4501 21.8399 20.1976 32.7039 20.1976ZM67.6917-11.7505C66.482-11.7505 65.5557-12.6768 65.5557-13.8229C65.5557-14.4871 65.6952-14.9269 66.2452-15.4769L85.9492-35.1808L66.2452-54.8848C65.6952-55.4348 65.5557-55.8746 65.5557-56.5388C65.5557-57.6849 66.482-58.5943 67.6917-58.5943C68.4362-58.5943 68.8592-58.3913 69.4812-57.7777L88.9861-38.2093L108.571-57.7862C109.202-58.4166 109.697-58.6112 110.297-58.6112C111.571-58.6112 112.497-57.6934 112.497-56.5557C112.497-55.8831 112.302-55.4601 111.816-54.8933L92.1034-35.1808L111.807-15.4853C112.357-14.9353 112.488-14.4955 112.488-13.8229C112.488-12.6768 111.562-11.7505 110.352-11.7505C109.68-11.7505 109.151-11.962 108.546-12.5755L88.9861-32.144L69.5065-12.5755C68.8845-11.962 68.4362-11.7505 67.6917-11.7505Z"/>
</svg>