<svg xmlns="http://www.w3.org/2000/svg" viewBox="16.084 -94.7386 130.69 119.13">
  <path d="M37.5412 24.3865L125.317 24.3865C139.283 24.3865 146.774 16.8555 146.774 3.04324L146.774-73.3953C146.774-87.2076 139.283-94.7386 125.317-94.7386L37.5412-94.7386C23.6265-94.7386 16.084-87.2341 16.084-73.3953L16.084 3.04324C16.084 16.882 23.6265 24.3865 37.5412 24.3865ZM38.3792 9.90678C33.2386 9.90678 30.5257 7.38667 30.5257 2.0153L30.5257-54.3065C30.5257-59.6779 33.2386-62.2112 38.3792-62.2112L124.441-62.2112C129.529-62.2112 132.346-59.6779 132.346-54.3065L132.346 2.0153C132.346 7.38667 129.529 9.90678 124.441 9.90678ZM64.2151-0.510036C66.9592-0.510036 69.1992-2.75009 69.1992-5.5321L69.1992-45.7454C69.1992-49.3382 66.9971-51.3475 63.4424-51.3475C60.6543-51.3475 58.594-50.0191 56.8683-48.7142L50.6318-43.8305C49.2729-42.85 48.4986-41.5744 48.4986-39.9073C48.4986-37.5972 50.0502-36.3183 51.8683-36.3183C52.8883-36.3183 53.5619-36.6135 54.2984-37.2112L59.1931-41.1402L59.1931-5.5321C59.1931-2.75009 61.4331-0.510036 64.2151-0.510036ZM100.621-0.40486C103.188-0.40486 105.281-1.93662 105.281-5.23414L105.281-10.5599L106.948-10.5599C109.712-10.5599 110.776-12.3484 110.776-14.4848C110.776-16.8169 109.586-18.4097 106.977-18.4097L105.281-18.4097L105.281-44.065C105.281-48.7721 102.204-51.2952 97.7205-51.2952C92.1832-51.2952 90.1475-47.7262 88.3443-43.1644L79.2006-22.3539C78.2682-19.9851 77.8341-18.0666 77.8341-16.0485C77.8341-12.622 79.9414-10.5599 83.5084-10.5599L95.9101-10.5599L95.9101-5.23414C95.9101-1.81662 98.204-0.40486 100.621-0.40486ZM96.1568-18.1498L86.0304-18.1498L86.0304-18.5794L95.9156-43.1314L96.1568-43.1314Z"/>
</svg>