<svg xmlns="http://www.w3.org/2000/svg" viewBox="16.084 -85.8328 119.09 101.9">
  <path d="M16.084 8.84384C16.084 12.7939 19.3416 16.0647 23.3049 16.0647C27.2929 16.0647 30.5257 12.7939 30.5257 8.84384L30.5257-78.5739C30.5257-82.5619 27.2929-85.8328 23.3049-85.8328C19.3416-85.8328 16.084-82.5619 16.084-78.5739ZM120.729 8.84384C120.729 12.7939 124 16.0647 127.95 16.0647C131.952 16.0647 135.171 12.7939 135.171 8.84384L135.171-78.5739C135.171-82.5619 131.952-85.8328 127.95-85.8328C124-85.8328 120.729-82.5619 120.729-78.5739ZM63.3786-7.23587L89.1549-7.23587C91.9618-7.23587 93.6466-9.05351 93.6466-11.7948C93.6466-14.5725 91.9326-16.2778 89.1549-16.2778L72.226-16.2778L72.226-16.6985L82.0172-27.3786C84.4418-29.9834 86.4364-32.2605 88.0227-34.3779C90.7641-38.0231 92.4061-41.696 92.4061-46.4462C92.4061-56.5172 84.7653-62.2089 74.9403-62.2089C67.0481-62.2089 60.0038-57.3281 58.3933-50.8475C58.1917-49.991 58.0733-49.1346 58.0733-48.2374C58.0733-45.2961 59.891-43.3981 62.8322-43.3981C65.3499-43.3981 66.9907-44.7409 67.9403-47.0818C69.0061-50.8318 71.2215-53.3438 74.8864-53.3438C79.0854-53.3438 81.4288-50.1237 81.4288-46.0166C81.4288-42.748 80.2792-40.3217 78.397-37.6965C77.1935-36.0556 75.5878-33.9861 73.3927-31.595L61.0465-18.0337C59.4057-16.2832 57.9841-14.524 57.9841-11.9656C57.9841-9.49897 59.3915-7.23587 63.3786-7.23587Z"/>
</svg>