<svg xmlns="http://www.w3.org/2000/svg" viewBox="11.2588 -101.081 131.66 131.62">
  <path d="M77.0704 30.5419C113.427 30.5419 142.92 1.08726 142.92-35.2697C142.92-71.6267 113.427-101.081 77.0704-101.081C40.7514-101.081 11.2588-71.6267 11.2588-35.2697C11.2588 1.08726 40.7514 30.5419 77.0704 30.5419ZM77.0704 15.7963C48.8414 15.7963 26.0292-7.04073 26.0292-35.2697C26.0292-63.4987 48.8414-86.3357 77.0704-86.3357C105.299-86.3357 128.136-63.4987 128.136-35.2697C128.136-7.04073 105.299 15.7963 77.0704 15.7963ZM48.8933-10.5943L69.6429-10.5943C72.2058-10.5943 73.4846-12.32 73.4846-14.49C73.4846-16.7784 72.1678-18.4661 69.6429-18.4661L56.1383-18.4661L56.1383-18.9089L64.4774-29.4038C70.0171-36.2367 72.5675-40.8295 72.5675-46.7928C72.5675-55.4742 66.7704-61.1877 58.229-61.1877C50.423-61.1877 44.3388-54.9961 44.3388-48.384C44.3388-45.9016 45.8204-44.0647 48.4273-44.0647C50.5506-44.0647 52.0323-45.076 52.7466-47.3904C53.6531-50.9625 55.0143-53.4503 58.2042-53.4503C61.6592-53.4503 63.2906-50.2408 63.2906-46.4216C63.2906-41.7425 60.185-37.127 56.6854-32.568L46.8531-19.9312C45.2607-17.8887 44.3168-16.3763 44.3168-14.506C44.3168-12.1359 45.901-10.5943 48.8933-10.5943ZM94.5088-9.32249C104.161-9.32249 109.233-17.403 109.233-27.1446C109.233-35.1478 105.736-43.2631 97.818-43.2631C93.9087-43.2631 90.8765-41.1407 89.5745-37.9531L89.2792-37.9531L90.1909-51.9929L103.715-51.9929C106.166-51.9929 107.438-53.7361 107.438-55.953C107.438-58.2515 106.027-59.8779 103.715-59.8779L87.129-59.8779C83.8144-59.8779 82.3223-57.7018 82.1235-54.3844L81.2791-38.1184C81.2278-37.3738 81.1854-36.2186 81.1854-35.5374C81.1854-32.7128 82.6291-30.6656 85.5824-30.6656C87.405-30.6656 88.425-31.2771 89.5678-33.0192C90.725-34.8441 92.1711-36.2896 94.3353-36.2896C98.3663-36.2896 99.8403-31.114 99.8403-26.9006C99.8403-22.4147 98.4319-17.1563 94.316-17.1563C91.3471-17.1563 89.6168-19.438 88.697-22.3486C87.9182-24.5089 86.4322-25.5609 84.5793-25.5609C82.1112-25.5609 80.6164-23.9856 80.6164-21.5176C80.6164-20.3148 80.8665-19.1263 81.2712-18.0375C83.1366-12.9626 88.5487-9.32249 94.5088-9.32249Z" />
</svg>