<svg xmlns="http://www.w3.org/2000/svg" viewBox="11.2588 -101.081 131.66 131.62">
  <path d="M77.0704 30.5419C113.401 30.5419 142.92 1.02282 142.92-35.2697C142.92-71.5622 113.401-101.081 77.0704-101.081C40.7779-101.081 11.2588-71.5622 11.2588-35.2697C11.2588 1.02282 40.7779 30.5419 77.0704 30.5419ZM57.2133-8.26821C50.1414-8.26821 43.7214-11.5165 41.8602-17.4597C41.5386-18.5007 41.3645-19.6999 41.3645-20.9073C41.3645-23.6937 43.1865-25.437 46.0357-25.437C48.3783-25.437 49.883-24.2357 50.669-21.8551C51.4467-19.1686 53.3141-16.4788 57.1974-16.4788C61.4972-16.4788 63.4564-20.1756 63.4564-24.0936C63.4564-29.2401 60.8389-32.0047 55.7735-32.0047L54.5302-32.0047C51.9893-32.0047 50.5689-33.412 50.5689-35.6768C50.5689-37.9416 51.9789-39.4089 54.5302-39.4089L55.6931-39.4089C60.2302-39.4089 62.3713-42.909 62.3713-47.0402C62.3713-50.8001 60.6896-54.0066 56.9721-54.0066C53.6141-54.0066 51.9357-51.4709 51.1256-48.2712C50.452-45.8951 48.7401-45.0661 46.4675-45.0661C43.4591-45.0661 42.1323-47.1438 42.1323-49.2643C42.1323-50.3779 42.3091-51.533 42.644-52.7074C44.4468-58.5747 50.3006-62.166 56.8845-62.166C65.6794-62.166 72.1054-57.0262 72.1054-48.1638C72.1054-42.4164 68.8615-37.4971 63.7386-36.1488L63.7386-35.8916C69.3616-35.2703 73.6201-30.9267 73.6201-23.5709C73.6201-14.0964 66.6498-8.26821 57.2133-8.26821ZM91.994-27.4118C83.6961-27.4118 79.8983-35.603 79.8983-44.0371C79.8983-53.9472 85.3749-62.2977 95.1875-62.2977C108.389-62.2977 112.115-47.56 112.115-35.6741C112.115-22.5059 108.326-8.15859 95.0647-8.15859C88.8087-8.15859 83.3691-11.2035 81.8834-16.9717C81.6289-17.7511 81.4681-18.7278 81.4681-19.4207C81.4681-21.7164 82.6941-23.7868 85.7493-23.7868C87.871-23.7868 89.2182-22.9099 90.2879-20.6604C91.3862-18.0102 92.9434-16.4117 95.3698-16.4117C101.092-16.4117 102.242-26.2812 102.242-34.2698C102.242-34.8924 102.242-35.5557 102.242-36.2323L102.06-36.2323C100.773-31.1092 97.2457-27.4118 91.994-27.4118ZM95.3511-35.0689C99.2024-35.0689 101.08-39.4159 101.08-44.3614C101.08-49.3125 99.3693-53.9994 95.3511-53.9994C91.6925-53.9994 89.818-49.3681 89.818-44.449C89.818-39.6235 91.5158-35.0689 95.3511-35.0689Z"/>
</svg>