<svg xmlns="http://www.w3.org/2000/svg" viewBox="11.2588 -101.081 131.66 131.62">
  <path d="M77.0704 30.5419C113.427 30.5419 142.92 1.08726 142.92-35.2697C142.92-71.6267 113.427-101.081 77.0704-101.081C40.7514-101.081 11.2588-71.6267 11.2588-35.2697C11.2588 1.08726 40.7514 30.5419 77.0704 30.5419ZM77.0704 15.7963C48.8414 15.7963 26.0292-7.04073 26.0292-35.2697C26.0292-63.4987 48.8414-86.3357 77.0704-86.3357C105.299-86.3357 128.136-63.4987 128.136-35.2697C128.136-7.04073 105.299 15.7963 77.0704 15.7963ZM63.3515-9.76258C65.932-9.76258 68.0244-11.2943 68.0244-14.5919L68.0244-19.9176L69.6781-19.9176C72.4558-19.9176 73.5199-21.6929 73.5199-23.8426C73.5199-26.1747 72.3301-27.7542 69.7073-27.7542L68.0244-27.7542L68.0244-53.4228C68.0244-58.1299 64.9482-60.6529 60.4643-60.6529C54.927-60.6529 52.8914-57.0707 51.0881-52.5221L41.9444-31.7116C41.012-29.3428 40.5779-27.4243 40.5779-25.4063C40.5779-21.9665 42.6852-19.9176 46.239-19.9176L58.6407-19.9176L58.6407-14.5919C58.6407-11.1743 60.9478-9.76258 63.3515-9.76258ZM58.9006-27.4943L48.7742-27.4943L48.7742-27.9239L58.6594-52.4891L58.9006-52.4891ZM95.1776-9.32249C107.544-9.32249 111.145-23.1218 111.145-35.2697C111.145-47.4176 107.544-61.2169 95.1776-61.2169C82.8626-61.2169 79.2098-47.4176 79.2098-35.2697C79.2098-23.1218 82.8626-9.32249 95.1776-9.32249ZM95.1776-17.3199C90.7789-17.3199 89.2027-24.9963 89.2027-35.2697C89.2027-45.5431 90.7789-53.2195 95.1776-53.2195C99.6142-53.2195 101.19-45.5431 101.19-35.2697C101.19-24.9963 99.6142-17.3199 95.1776-17.3199Z" />
</svg>