<svg xmlns="http://www.w3.org/2000/svg" viewBox="16.084 -94.7943 119.09 119.13">
  <path d="M37.5412 24.3309L113.714 24.3309C127.667 24.3309 135.171 16.7998 135.171 2.98757L135.171-73.451C135.171-87.2633 127.667-94.7943 113.714-94.7943L37.5412-94.7943C23.6265-94.7943 16.084-87.2897 16.084-73.451L16.084 2.98757C16.084 16.8263 23.6265 24.3309 37.5412 24.3309ZM62.9523-8.57666C60.4477-8.57666 57.977-10.0468 57.977-13.6571L57.977-19.1465L45.0599-19.1465C41.2708-19.1465 39.0804-21.305 39.0804-24.9535C39.0804-27.068 39.5436-29.112 40.5388-31.5773L49.9804-53.1765C51.9181-58.0142 54.0501-61.8096 59.8971-61.8096C64.6321-61.8096 67.9011-59.1098 67.9011-54.2027L67.9011-27.4403L69.622-27.4403C72.3704-27.4403 73.6186-25.7891 73.6186-23.3314C73.6186-21.0693 72.5253-19.1465 69.5928-19.1465L67.9011-19.1465L67.9011-13.6571C67.9011-10.1668 65.6831-8.57666 62.9523-8.57666ZM58.2662-27.1511L58.2662-53.2311L57.9957-53.2311L47.7834-27.5967L47.7834-27.1511ZM83.9884-9.43756C80.8325-9.43756 79.19-11.0755 79.19-13.5845C79.19-15.538 80.0958-17.1467 81.8386-19.2768L92.0273-32.4424C95.7197-37.1854 98.9641-42.0317 98.9641-46.9415C98.9641-50.9244 97.3035-54.2302 93.6849-54.2302C90.3854-54.2302 88.995-51.5949 88.0125-47.9395C87.3069-45.4995 85.7041-44.4078 83.4845-44.4078C80.6848-44.4078 79.1828-46.3544 79.1828-48.9623C79.1828-55.8928 85.572-62.3736 93.7097-62.3736C102.666-62.3736 108.739-56.4001 108.739-47.3419C108.739-41.0222 106.063-36.2455 100.277-29.1526L91.6482-18.2342L91.6482-17.7154L105.673-17.7154C108.339-17.7154 109.685-15.978 109.685-13.5685C109.685-11.2889 108.377-9.43756 105.673-9.43756Z"/>
</svg>