<svg xmlns="http://www.w3.org/2000/svg" viewBox="16.084 -94.7943 119.09 119.13">
  <path d="M37.5412 24.3309L113.714 24.3309C127.667 24.3309 135.171 16.7998 135.171 2.98757L135.171-73.451C135.171-87.2633 127.667-94.7943 113.714-94.7943L37.5412-94.7943C23.6265-94.7943 16.084-87.2897 16.084-73.451L16.084 2.98757C16.084 16.8263 23.6265 24.3309 37.5412 24.3309ZM61.584-8.60586C59.0794-8.60586 56.5707-10.0848 56.5707-13.7243L56.5707-19.1465L43.6536-19.1465C39.9025-19.1465 37.7121-21.305 37.7121-24.9535C37.7121-27.068 38.1753-29.112 39.1325-31.6065L48.5742-53.2144C50.5118-58.0142 52.6818-61.8096 58.4908-61.8096C63.2639-61.8096 66.4948-59.1477 66.4948-54.2027L66.4948-27.4403L68.2158-27.4403C70.9641-27.4403 72.2503-25.7891 72.2503-23.3314C72.2503-21.0985 71.119-19.1465 68.1865-19.1465L66.4948-19.1465L66.4948-13.7243C66.4948-10.1668 64.2768-8.60586 61.584-8.60586ZM56.8599-27.1803L56.8599-53.2311L56.5894-53.2311L46.3771-27.5967L46.3771-27.1803ZM95.3252-8.13657C82.1621-8.13657 78.3974-22.861 78.3974-34.7849C78.3974-47.8489 82.1995-62.2844 95.4481-62.2844C101.675-62.2844 107.101-59.2175 108.603-53.5022C108.857-52.6963 108.951-51.7329 108.951-51.04C108.951-48.7443 107.779-46.7091 104.797-46.7091C102.562-46.7091 101.293-47.6521 100.212-49.7551C99.1849-52.148 97.6702-54.0446 95.1165-54.0446C89.4212-54.0446 88.2411-44.1398 88.2411-36.1512C88.2411-35.5286 88.2411-34.8653 88.2411-34.2267L88.424-34.2267C89.7106-39.3118 93.2671-43.0224 98.5055-43.0224C106.817-43.0224 110.614-34.818 110.614-26.3707C110.614-16.4738 105.202-8.13657 95.3252-8.13657ZM95.1325-16.3764C98.8583-16.3764 100.657-21.0704 100.657-25.8579C100.733-30.7391 99.0102-35.345 95.1192-35.345C91.3484-35.345 89.4033-30.9467 89.4033-26.2061C89.4033-21.3408 91.1815-16.3764 95.1325-16.3764Z"/>
</svg>