<svg xmlns="http://www.w3.org/2000/svg" viewBox="16.084 -94.7943 119.09 119.13">
  <path d="M37.5412 24.3309L113.714 24.3309C127.667 24.3309 135.171 16.7998 135.171 2.98757L135.171-73.451C135.171-87.2633 127.667-94.7943 113.714-94.7943L37.5412-94.7943C23.6265-94.7943 16.084-87.2897 16.084-73.451L16.084 2.98757C16.084 16.8263 23.6265 24.3309 37.5412 24.3309ZM64.394-8.60586C61.9027-8.60586 59.394-10.114 59.394-13.7243L59.394-19.1465L46.5396-19.1465C42.7638-19.1465 40.5601-21.3342 40.5601-24.9535C40.5601-27.068 41.0234-29.112 42.023-31.6065L51.4354-53.2144C53.3351-58.0142 55.5051-61.8096 61.3812-61.8096C66.0871-61.8096 69.3049-59.1477 69.3049-54.2027L69.3049-27.4403L71.077-27.4403C73.8413-27.4403 75.0603-25.7891 75.0603-23.3314C75.0603-21.0985 73.9803-19.1465 71.0478-19.1465L69.3049-19.1465L69.3049-13.7243C69.3049-10.1668 67.1001-8.60586 64.394-8.60586ZM59.6831-27.1803L59.6831-53.2311L59.4127-53.2311L49.2003-27.5967L49.2003-27.1803ZM89.2793-8.62184C85.8677-8.62184 84.548-10.9318 84.548-13.026C84.548-14.5296 84.8052-15.5657 85.3532-16.9569L98.4572-52.0992L98.4572-52.7188L83.4744-52.7188C80.9992-52.7188 79.3947-54.4621 79.3947-56.9037C79.3947-59.2038 80.9407-61.0347 83.4744-61.0347L103.442-61.0347C106.569-61.0347 108.982-58.9742 108.982-55.8192C108.982-53.6596 108.501-52.0155 107.789-49.9407L94.0618-12.0852C93.1514-9.70473 92.0145-8.62184 89.2793-8.62184Z"/>
</svg>