<svg xmlns="http://www.w3.org/2000/svg" viewBox="16.084 -94.7943 119.09 119.13">
  <path d="M37.5412 24.3309L113.714 24.3309C127.667 24.3309 135.171 16.7998 135.171 2.98757L135.171-73.451C135.171-87.2633 127.667-94.7943 113.714-94.7943L37.5412-94.7943C23.6265-94.7943 16.084-87.2897 16.084-73.451L16.084 2.98757C16.084 16.8263 23.6265 24.3309 37.5412 24.3309ZM61.6666-8.60586C59.1752-8.60586 56.7717-10.0848 56.7717-13.7243L56.7717-19.1465L43.8546-19.1465C40.1035-19.1465 37.8327-21.3342 37.8327-24.9535C37.8327-27.068 38.3339-29.112 39.2956-31.6065L48.746-53.2144C50.6748-58.0142 52.8069-61.8096 58.6918-61.8096C63.3889-61.8096 66.6154-59.1477 66.6154-54.2027L66.6154-27.4403L68.4168-27.4403C71.1271-27.4403 72.3709-25.7891 72.3709-23.3314C72.3709-21.0985 71.2908-19.1465 68.3876-19.1465L66.6154-19.1465L66.6154-13.7243C66.6154-10.1668 64.4398-8.60586 61.6666-8.60586ZM57.0317-27.1803L57.0317-53.2311L56.7904-53.2311L46.5109-27.5967L46.5109-27.1803ZM94.9386-8.23901C85.3434-8.23901 78.28-14.0608 78.28-23.3721C78.28-30.1255 82.3576-35.3386 87.8333-36.5245L87.8333-36.7393C83.6039-38.0454 79.6692-41.9734 79.6692-48.2904C79.6692-57.29 86.8052-62.1908 94.9386-62.1908C104.004-62.1908 110.31-56.612 110.31-48.2524C110.31-42.5198 106.784-38.171 102.209-36.7393L102.209-36.5245C107.632-35.3182 111.724-30.0918 111.724-23.3429C111.724-14.1585 104.721-8.23901 94.9386-8.23901ZM94.9898-39.8942C98.3051-39.8942 100.236-43.0492 100.236-47.2225C100.236-51.2739 98.4374-54.6769 94.9898-54.6769C91.6888-54.6769 89.7729-51.3682 89.7729-47.2225C89.7729-43.2225 91.6559-39.8942 94.9898-39.8942ZM94.9898-15.8201C98.8119-15.8201 100.893-19.5271 100.893-24.1669C100.893-28.9477 98.6548-32.3803 94.9898-32.3803C91.1385-32.3803 89.1025-28.7659 89.1025-24.1669C89.1025-19.5139 91.1253-15.8201 94.9898-15.8201Z"/>
</svg>