<svg xmlns="http://www.w3.org/2000/svg" viewBox="16.084 -94.7943 119.09 119.13">
  <path d="M37.5412 24.3309L113.714 24.3309C127.667 24.3309 135.171 16.7998 135.171 2.98757L135.171-73.451C135.171-87.2633 127.667-94.7943 113.714-94.7943L37.5412-94.7943C23.6265-94.7943 16.084-87.2897 16.084-73.451L16.084 2.98757C16.084 16.8263 23.6265 24.3309 37.5412 24.3309ZM38.987 9.85111C33.4665 9.85111 30.5257 7.10309 30.5257 1.35185L30.5257-71.8153C30.5257-77.6045 33.4665-80.3145 38.987-80.3145L112.268-80.3145C117.736-80.3145 120.729-77.6045 120.729-71.8153L120.729 1.35185C120.729 7.10309 117.736 9.85111 112.268 9.85111ZM75.7782-5.85572C89.6981-5.85572 99.0312-14.3967 99.0312-26.1588C99.0312-36.4249 91.6553-43.9623 80.9166-43.9623C76.5837-43.9623 72.6102-42.4255 70.5957-40.556L69.8912-40.6452C70.7672-41.963 71.5961-43.0464 73.1306-45.027C75.2925-47.9142 78.8798-52.3212 81.3761-55.5534C82.3989-56.8873 82.8842-58.1278 82.8842-59.5086C82.855-62.1003 80.9617-64.6043 77.2553-64.6043C74.0135-64.6043 72.3742-62.6917 70.7552-60.7059C67.7057-56.8023 63.5738-51.5393 61.2296-48.3619C55.4314-40.8045 52.3511-33.8704 52.3511-26.9273C52.3511-14.194 61.5851-5.85572 75.7782-5.85572ZM75.7782-16.0652C69.5309-16.0652 64.8826-20.1081 64.8826-25.5237C64.8826-30.8864 69.4779-34.758 75.7005-34.758C82.0839-34.758 86.6545-30.8732 86.6545-25.4708C86.6545-20.0817 82.0839-16.0652 75.7782-16.0652Z" />
</svg>