<svg xmlns="http://www.w3.org/2000/svg" viewBox="11.2588 -113.896 131.66 144.44">
  <path d="M90.2224-107.934C90.2224-112.659 86.3198-113.896 82.8736-111.299L62.2928-96.0772C59.6326-94.17 59.6706-91.031 62.2928-89.0945L82.9116-73.9401C86.3198-71.4104 90.2224-72.6177 90.2224-77.2762ZM77.0704 30.5419C113.427 30.5419 142.92 1.05806 142.92-35.2697C142.92-71.6267 113.465-101.043 76.9608-101.081C72.9083-101.043 69.6259-97.7593 69.6259-93.7085C69.6259-89.6577 72.9463-86.3357 76.9988-86.3357C105.299-86.3357 128.136-63.4987 128.136-35.2697C128.136-7.04073 105.299 15.7963 77.0704 15.7963C48.8414 15.7963 26.0292-7.04073 26.0292-35.2697C26.0292-51.2666 33.3248-65.1091 44.994-74.5408C48.2036-77.6989 49.2832-81.9805 46.4451-85.4165C43.8919-88.5924 39.1296-89.0704 35.3327-85.632C20.302-73.4919 11.2588-55.0785 11.2588-35.2697C11.2588 1.05806 40.7514 30.5419 77.0704 30.5419ZM51.9679-10.2909C54.3115-10.2909 55.5447-11.2218 56.4491-13.3886L70.773-47.2387C71.5563-49.1031 72.1335-50.8756 72.1335-52.8656C72.1335-56.2717 69.5678-57.9725 66.7082-57.9725L45.9039-57.9725C43.5895-57.9725 42.0318-56.3521 42.0318-54.0244C42.0318-51.6968 43.5895-50.1231 45.9039-50.1231L62.1002-50.1231L62.1002-49.736L48.153-17.8919C47.6562-16.7595 47.399-15.6386 47.399-14.423C47.399-11.9185 49.3218-10.2909 51.9679-10.2909ZM93.787-9.79519C103.644-9.79519 109.743-16.925 109.743-26.7851C109.743-35.053 105.246-42.1315 97.159-42.1315C93.0994-42.1315 89.6302-40.3138 87.9612-36.9548L87.7216-36.9548L88.7126-50.0834L103.845-50.0834C106.231-50.0834 107.698-51.6571 107.698-54.0112C107.698-56.4193 106.253-57.9725 103.845-57.9725L85.7283-57.9725C82.3773-57.9725 80.6748-56.1241 80.476-52.6255L79.3666-35.2611C79.1677-32.3237 80.7342-29.9217 83.8902-29.9217C85.9452-29.9217 86.9902-30.5975 88.2382-32.1028C89.5889-33.8898 91.4111-35.148 93.7071-35.148C98.1827-35.148 100.203-30.9352 100.203-26.5544C100.203-21.7677 97.9536-17.6975 93.6586-17.6975C90.3938-17.6975 88.2421-19.7698 87.1102-22.5548C86.1474-24.4606 84.6994-25.4179 82.8553-25.4179C80.3668-25.4179 78.7551-23.8762 78.7551-21.401C78.7551-19.9064 79.4037-18.4233 80.391-17.2792C82.5807-12.5441 88.3929-9.79519 93.787-9.79519Z" />
</svg>