<svg xmlns="http://www.w3.org/2000/svg" viewBox="15.8793 -101.193 131.8 131.8">
  <path d="M142.433-95.984C137.186-101.193 125.529-98.5621 116.516-89.5495L97.859-70.8926C95.4322-68.4657 94.0623-68.0036 90.8737-68.1308L28.2757-70.1829C26.2757-70.2209 24.5753-69.642 23.2611-68.3658L17.0212-62.1038C15.8793-60.9372 16.2682-59.1784 18.0401-58.5483L67.3927-40.5431L46.8762-14.9944L24.5508-21.0244C22.8053-21.5185 21.3275-21.0084 19.9401-19.6298L17.864-17.5537C16.6345-16.3154 16.5833-14.6624 17.8348-13.4109L59.8595 28.6138C61.111 29.8653 62.764 29.8521 64.0023 28.5846L66.0784 26.5085C67.495 25.1211 67.9671 23.6565 67.511 21.949L61.4562-0.414324L87.0297-20.9309L105.035 28.4217C105.665 30.2317 107.424 30.6073 108.552 29.4407L114.814 23.2007C116.129 21.9245 116.708 20.2241 116.67 18.1861L114.579-44.425C114.452-47.5625 114.914-48.9323 117.379-51.3972L136.011-70.0294C145.011-79.0419 147.68-90.6858 142.433-95.984Z"/>
</svg>