<svg xmlns="http://www.w3.org/2000/svg" viewBox="16.084 -109.32 120.69 147.87">
  <path d="M59.7889-9.16152C54.1069-10.8247 45.1862-10.3099 38.5342-8.30091C35.8897-7.36837 34.2647-8.23646 34.2647-10.6392L34.2647-50.2819C34.2647-53.2558 35.8847-55.4558 39.0338-56.2363C47.3894-58.337 56.033-57.9988 61.308-54.7834C62.6515-54.026 63.1341-53.0361 63.1341-50.959L63.1341-11.0499C63.1341-9.59123 61.9309-8.75942 59.7889-9.16152ZM70.461-10.3468C68.7804-9.26554 67.3597-10.0049 67.3597-11.6783L67.3597-51.0791C67.3597-53.1358 67.8874-54.2513 68.9081-55.4019C74.1115-60.489 82.8355-64.3292 91.3007-65.319C94.3898-65.7371 96.2158-64.1655 96.2158-61.1155L96.2158-21.4612C96.2158-19.2453 94.7661-17.6744 92.0996-17.6045C85.2601-17.3061 76.3219-14.2452 70.461-10.3468ZM16.084 15.1732C16.084 26.7879 23.2985 33.4805 35.9989 32.7502C57.1803 31.6619 79.142 28.7715 100.396 22.8449C110.33 19.9736 113.843 14.0746 113.843 3.03002L113.843-89.7367C113.843-103.122 105.856-109.32 93.0396-106.288C75.6668-102.345 54.8148-99.0182 33.6178-97.7708C22.5552-97.0405 16.084-91.1613 16.084-79.5411ZM69.1722 38.5452L115.699 38.5452C129.596 38.5452 136.771 31.3035 136.771 17.2048L136.771-76.265C136.771-87.5673 131.897-94.4888 122.516-96.3642C122.906-93.3272 123.128-91.2363 123.128-88.9482L123.128 3.03002C123.128 20.3866 115.568 27.8364 102.945 31.4747C91.808 34.4946 80.3525 36.7661 69.1722 38.5452Z"/>
</svg>