<svg xmlns="http://www.w3.org/2000/svg" viewBox="11.2588 -101.081 131.66 131.62">
  <path d="M77.0704 30.5419C113.401 30.5419 142.92 1.02282 142.92-35.2697C142.92-71.5622 113.401-101.081 77.0704-101.081C40.7779-101.081 11.2588-71.5622 11.2588-35.2697C11.2588 1.02282 40.7779 30.5419 77.0704 30.5419ZM44.0242-35.3077C44.0242-37.1177 44.629-38.8297 46.325-40.5973L66.8492-61.8722C68.0472-63.041 69.27-63.7218 71.0304-63.7218C74.3451-63.7218 76.6872-60.9241 76.6872-57.8562C76.6872-56.1338 75.9727-54.5442 74.7367-53.4354L65.6984-44.869L61.0186-41.4873L70.5189-42.0789L103.655-42.0789C107.226-42.0789 110.279-39.0621 110.279-35.3077C110.279-31.5825 107.226-28.5365 103.655-28.5365L70.5189-28.5365L61.0054-29.1281L65.6984-25.7332L74.7367-17.1667C75.9727-16.0579 76.6872-14.4303 76.6872-12.7079C76.6872-9.62682 74.3451-6.88038 71.0304-6.88038C69.27-6.88038 68.0472-7.56117 66.8492-8.72997L46.325-30.0181C44.629-31.7857 44.0242-33.4977 44.0242-35.3077Z"/>
</svg>