<svg xmlns="http://www.w3.org/2000/svg" viewBox="16.084 -83.6002 114.96 96.66">
  <path d="M23.9388 13.0608C28.3387 13.0608 31.7423 9.72439 31.7423 5.33323L31.7423-75.7967C31.7423-80.2258 28.3387-83.6002 23.9388-83.6002C19.5256-83.6002 16.084-80.2258 16.084-75.7967L16.084 5.33323C16.084 9.72439 19.5256 13.0608 23.9388 13.0608ZM85.6668-74.8637C85.6668-79.2329 82.4049-82.5489 77.6836-82.5489C75.71-82.5489 73.7088-81.7221 71.9996-80.0437L34.173-41.2253C32.6479-39.6797 31.6575-37.6157 31.6575-35.2697C31.6575-32.9237 32.6479-30.8597 34.173-29.3141L71.9996 9.53353C73.7088 11.2119 75.71 12.0387 77.6836 12.0387C82.4049 12.0387 85.6668 8.7227 85.6668 4.35355C85.6668 1.95788 84.5932 0.0162347 83.1588-1.41813L70.5669-14.2204L46.8474-35.2697L70.5669-56.319L83.1588-69.0921C84.6224-70.5556 85.6668-72.4681 85.6668-74.8637ZM46.9933-28.1645L68.3218-27.1653L122.72-27.1653C127.704-27.1653 131.041-30.4609 131.041-35.2697C131.041-40.0785 127.704-43.3741 122.72-43.3741L68.3218-43.3741L46.9933-42.3749C43.137-42.1529 39.8881-39.1553 39.8881-35.2697C39.8881-31.3841 43.137-28.3865 46.9933-28.1645Z" />
</svg>