<svg xmlns="http://www.w3.org/2000/svg" viewBox="16.084 -94.7943 119.09 119.13">
  <path d="M37.5412 24.3309L113.714 24.3309C127.667 24.3309 135.171 16.7998 135.171 2.98757L135.171-73.451C135.171-87.2633 127.667-94.7943 113.714-94.7943L37.5412-94.7943C23.6265-94.7943 16.084-87.2897 16.084-73.451L16.084 2.98757C16.084 16.8263 23.6265 24.3309 37.5412 24.3309ZM47.8183-35.6279C44.8788-35.6279 42.5192-37.9743 42.5192-40.8891C42.5192-43.7907 44.8788-46.1211 47.8183-46.1211L50.3651-46.1078L58.4209-45.2607L43.4074-59.3901C41.0334-61.6313 41.0451-65.4561 43.3827-67.7469C45.6982-70.0465 49.4762-70.0757 51.7015-67.7469L65.936-52.6707L65.1137-60.8896L65.1137-63.45C65.1137-66.3807 67.4733-68.7111 70.3077-68.7111C73.2605-68.7111 75.6068-66.3807 75.6068-63.45L75.6068-42.3538C75.6068-37.8616 73.2108-35.6279 68.8517-35.6279ZM81.5315-1.86795C78.5787-1.86795 76.2323-4.19835 76.2323-7.12913L76.2323-28.2633C76.2323-32.7175 78.6284-34.9512 82.9875-34.9512L104.021-34.9512C106.96-34.9512 109.32-32.6428 109.32-29.69C109.32-26.7884 106.96-24.458 104.021-24.458L101.474-24.4713L93.4315-25.3184L108.432-11.189C110.806-8.97699 110.794-5.161 108.47-2.83218C106.141-0.532576 102.363-0.47417 100.138-2.87017L85.9031-17.9216L86.7255-9.68948L86.7255-7.12913C86.7255-4.19835 84.3659-1.86795 81.5315-1.86795Z"/>
</svg>