<svg xmlns="http://www.w3.org/2000/svg" viewBox="16.084 -106.458 187.66 142.24">
  <path d="M24.1884 15.9253C28.9096 15.9253 32.2415 12.6925 32.2415 7.8969L32.2415-1.57893C32.2415-19.6053 44.2575-27.2617 59.748-27.2617L63.9597-27.2617L84.4397-28.1265C88.3924-28.2433 91.628-31.3753 91.628-35.3281C91.628-39.2809 88.3924-42.4129 84.4397-42.5297L63.9597-43.3945L59.7772-43.3945C36.2482-43.3945 16.084-30.0573 16.084-1.5657L16.084 7.8677C16.084 12.6925 19.454 15.9253 24.1884 15.9253ZM66.39 0.44371C68.5096 0.44371 70.4948-0.412302 72.339-2.21853L98.9348-29.0805C100.752-30.8889 101.704-32.9821 101.704-35.3281C101.704-37.6742 100.752-39.7673 98.9348-41.5757L72.22-68.5815C70.4816-70.2439 68.5096-71.0999 66.39-71.0999C61.8147-71.0999 58.6112-67.7707 58.6112-63.4015C58.6112-61.0059 59.508-58.9271 61.4127-57.3071L66.9824-52.4533L86.8022-35.2697L66.9824-18.2029L61.4127-13.3491C59.4948-11.7159 58.6112-9.65035 58.6112-7.25469C58.6112-2.88554 61.8147 0.44371 66.39 0.44371ZM113.767 17.3774C113.767 28.4868 121.39 35.7775 132.94 35.7775L185.22 35.7775C196.407 35.7775 203.742 28.4868 203.742 17.3482L203.742-88.0292C203.742-99.1678 196.407-106.458 185.22-106.458L132.94-106.458C121.39-106.458 113.767-99.1678 113.767-88.0584Z" />
</svg>