<svg xmlns="http://www.w3.org/2000/svg" viewBox="16.084 -94.7943 119.09 119.13">
  <path d="M37.5412 24.3309L113.714 24.3309C127.667 24.3309 135.171 16.7998 135.171 2.98757L135.171-73.451C135.171-87.2633 127.667-94.7943 113.714-94.7943L37.5412-94.7943C23.6265-94.7943 16.084-87.2897 16.084-73.451L16.084 2.98757C16.084 16.8263 23.6265 24.3309 37.5412 24.3309ZM38.987 9.85111C33.4665 9.85111 30.5257 7.10309 30.5257 1.35185L30.5257-71.8153C30.5257-77.6045 33.4665-80.3145 38.987-80.3145L112.268-80.3145C117.736-80.3145 120.729-77.6045 120.729-71.8153L120.729 1.35185C120.729 7.10309 117.736 9.85111 112.268 9.85111ZM102.476-35.6571C105.236-35.6571 107.457-37.8779 107.457-40.5999C107.457-43.3759 105.236-45.5807 102.476-45.5807L99.9582-45.5675L92.2224-44.7496L106.694-58.4174C108.926-60.495 108.906-64.0978 106.732-66.301C104.529-68.4883 100.897-68.5175 98.797-66.263L85.0999-51.7536L85.8931-59.7037L85.8931-62.1589C85.8931-64.9348 83.6591-67.1397 80.9503-67.1397C78.1903-67.1397 75.9695-64.9348 75.9695-62.1589L75.9695-42.0062C75.9695-37.736 78.2399-35.6571 82.3611-35.6571ZM70.3048-3.43944C73.0648-3.43944 75.2856-5.64425 75.2856-8.42023L75.2856-28.5729C75.2856-32.8431 73.0152-34.922 68.9073-34.922L48.7794-34.922C46.0326-34.922 43.7986-32.7012 43.7986-29.9792C43.7986-27.2032 46.0326-24.9984 48.7794-24.9984L51.259-25.0116L58.9948-25.8295L44.5613-12.1617C42.3421-10.1133 42.3625-6.48129 44.5233-4.27808C46.7265-2.10407 50.3585-2.04566 52.4581-4.31607L66.1552-18.8255L65.362-10.8754L65.362-8.42023C65.362-5.64425 67.558-3.43944 70.3048-3.43944Z" />
</svg>