<svg xmlns="http://www.w3.org/2000/svg" viewBox="16.084 -95.0627 101.2 124.13">
  <path d="M91.0556-78.8989L47.9596-78.8989C27.4211-78.8989 16.084-67.6246 16.084-47.3215L16.084 21.2134C16.084 25.6207 19.2423 29.0623 23.6408 29.0623C28.026 29.0623 31.1844 25.6207 31.1844 21.2134L31.1844-47.3974C31.1844-58.0303 37.0446-63.7852 47.9596-63.7852L91.0556-63.7852C95.2584-63.7852 98.6124-67.1525 98.6124-71.3421C98.6124-75.4937 95.2584-78.8989 91.0556-78.8989ZM83.2891-88.5748L83.2891-54.3838C83.2891-49.4041 87.3085-47.9047 91.5344-50.9894L113.847-67.0198C117.287-69.4732 117.266-73.4094 113.847-75.8848L91.5724-91.9313C87.3377-95.0627 83.2891-93.6509 83.2891-88.5748Z" />
</svg>