<svg xmlns="http://www.w3.org/2000/svg" viewBox="11.2588 -101.805 131.66 131.62">
  <path d="M77.0704 29.8181C113.401 29.8181 142.92 0.299038 142.92-35.9935C142.92-72.286 113.401-101.805 77.0704-101.805C40.7779-101.805 11.2588-72.286 11.2588-35.9935C11.2588 0.299038 40.7779 29.8181 77.0704 29.8181ZM63.9132-1.7477C62.4211-1.7477 61.0095-2.44332 59.8683-3.49256L42.0365-21.175C40.9306-22.0954 40.4453-23.3958 40.4453-24.765C40.4453-27.5558 42.8341-29.9518 45.7168-29.9518C47.0773-29.9518 48.4113-29.3862 49.2821-28.343L55.8274-21.4164L59.0933-17.1597L58.9032-23.1266L58.9032-42.8825C58.9032-58.5196 68.7375-69.5775 84.3154-69.5775C100.077-69.5775 110.202-58.5108 110.202-42.9029L110.202-33.4344C110.202-29.9588 108.113-27.478 104.661-27.478C101.343-27.478 99.3119-29.988 99.3119-33.3876L99.3119-42.9029C99.3119-52.0488 93.3829-58.3936 84.0627-58.3936C74.7848-58.3936 69.3-51.9056 69.3-42.8825L69.3-23.1266L69.072-17.1977L71.6161-20.6319L78.5779-28.3809C79.5087-29.5046 80.8719-30.0103 82.1651-30.0103C85.1063-30.0103 87.4279-27.6435 87.4279-24.8614C87.4279-23.463 86.9646-22.1466 85.9419-21.213L68.0253-3.49256C66.8417-2.41411 65.452-1.7477 63.9132-1.7477Z"/>
</svg>