<svg xmlns="http://www.w3.org/2000/svg" viewBox="11.2588 -101.081 131.66 131.62">
  <path d="M77.0704 30.5419C113.401 30.5419 142.92 1.02282 142.92-35.2697C142.92-71.5622 113.401-101.081 77.0704-101.081C40.7779-101.081 11.2588-71.5622 11.2588-35.2697C11.2588 1.02282 40.7779 30.5419 77.0704 30.5419ZM86.1812-71.2261C88.0192-69.3589 88.012-66.5477 86.206-64.7417L57.3114-35.8471L55.2241-33.8782L58.0679-33.9542L67.4733-34.0885C68.7665-34.0885 69.9006-33.6121 70.6954-32.7926C72.5845-30.9034 72.5757-28.2221 70.6866-26.4134C69.8697-25.6125 68.6453-25.0017 67.4705-25.0017L44.5404-24.7302C41.8768-24.7302 39.6836-26.8722 39.7216-29.5897L40.0284-52.4146C40.0576-53.5735 40.5296-54.9207 41.4092-55.7623C43.2312-57.5711 45.8656-57.6091 47.768-55.7331C48.6724-54.8535 49.1444-53.7239 49.1064-52.4686L48.9721-43.1868L48.8449-40.3493L50.8005-42.3827L79.7084-71.2393C81.5144-73.0585 84.33-73.0613 86.1812-71.2261ZM67.8544 0.745082C66.0164-1.12207 66.0616-3.89531 67.8676-5.70131L96.7242-34.5959L98.7868-36.5648L96.0816-36.4509L86.6383-36.3165C85.4211-36.2785 84.249-36.8309 83.4542-37.6505C81.5783-39.5396 81.5491-42.2209 83.425-44.0297C84.2799-44.8685 85.5042-45.4033 86.7303-45.4033L109.622-45.7128C112.197-45.7128 114.428-43.5329 114.39-40.8533L114.159-18.0284C114.13-16.7935 113.544-15.4843 112.702-14.6807C110.842-12.8339 108.246-12.8339 106.344-14.6719C105.477-15.6275 105.005-16.6812 105.005-17.9364L105.178-27.2182L105.267-30.1696L103.311-28.0983L74.3652 0.796299C72.5972 2.57755 69.7188 2.58029 67.8544 0.745082Z"/>
</svg>