<svg xmlns="http://www.w3.org/2000/svg" viewBox="16.084 -95.7546 145.49 119.34">
  <path d="M37.5412 23.5823L141.221 23.5823C154.072 23.5823 161.576 16.0513 161.576 2.23904L161.576-62.6759C161.576-76.4882 154.034-83.9812 140.119-83.9812L83.6339-83.9812C78.7626-83.9812 75.8943-85.0569 72.0581-88.1043L68.7667-90.769C64.0433-94.5693 60.7969-95.7546 53.7719-95.7546L36.0764-95.7546C23.6369-95.7546 16.084-88.3812 16.084-74.7602L16.084 2.23904C16.084 16.0778 23.6265 23.5823 37.5412 23.5823ZM121.741-30.461C121.741-28.651 121.174-26.9637 119.465-25.2093L98.9156-3.88324C97.7176-2.71444 96.4816-2.03365 94.7345-2.03365C91.4065-2.03365 89.0777-4.78009 89.0777-7.89921C89.0777-9.58362 89.7789-11.198 91.0529-12.358L100.053-20.8865L104.759-24.2814L95.2327-23.6898L62.1097-23.6898C58.5261-23.6898 55.4729-26.7225 55.4729-30.461C55.4729-34.2533 58.5261-37.2322 62.1097-37.2322L95.2327-37.2322L104.746-36.6786L100.053-40.009L91.0529-48.5755C89.7789-49.6975 89.0777-51.3251 89.0777-53.0095C89.0777-56.0774 91.4065-58.8618 94.7345-58.8618C96.4816-58.8618 97.7176-58.2322 98.9156-57.0255L119.465-35.7506C121.174-33.983 121.741-32.2957 121.741-30.461Z"/>
</svg>