<svg xmlns="http://www.w3.org/2000/svg" viewBox="11.2588 -101.081 131.66 131.62">
  <path d="M77.0704 30.5419C113.401 30.5419 142.92 1.02282 142.92-35.2697C142.92-71.5622 113.401-101.081 77.0704-101.081C40.7779-101.081 11.2588-71.5622 11.2588-35.2697C11.2588 1.02282 40.7779 30.5419 77.0704 30.5419ZM58.9207-53.5307C68.1297-62.7689 82.6933-68.8292 95.2563-67.4029C103.019-66.5721 108.377-61.1892 109.208-53.4936C110.686-40.8502 104.625-26.2194 95.4118-17.0351C86.232-7.82613 71.6012-1.73667 58.9826-3.23018C51.2038-4.11217 45.8749-9.39869 45.0865-17.1659C43.6602-29.7536 49.7205-44.3465 58.9207-53.5307ZM83.9182-49.1732C83.2649-49.9157 82.0999-49.8645 81.2902-49.144C80.6369-48.4395 80.6661-47.3169 81.3194-46.5876L83.6875-44.2955L81.6434-42.3858L79.3425-44.6355C78.6512-45.3692 77.5374-45.3984 76.8329-44.6355C76.1576-44.0026 76.1956-42.8888 76.8329-42.1463L79.1789-39.8002L77.1481-37.8657L74.8604-40.1402C74.1514-40.8827 73.0625-40.8827 72.38-40.1154C71.6375-39.4197 71.7135-38.3935 72.38-37.6598L74.6297-35.3721L72.7492-33.3413L70.4191-35.7253C69.795-36.459 68.576-36.4298 67.8423-35.6873C67.113-34.9668 67.113-33.8151 67.8715-33.1018L70.2016-30.9193L68.1823-28.9132L65.8946-31.2008C65.1901-31.8966 64.1099-31.8966 63.347-31.2008C62.6425-30.4583 62.6717-29.311 63.3762-28.6445L70.5036-21.5596C71.2328-20.8171 72.3174-20.8171 73.0467-21.4924C73.7424-22.2641 73.722-23.3195 73.0175-24.0779L70.7723-26.3524L72.7624-28.2913L74.9697-26.0636C75.7121-25.2964 76.8259-25.2964 77.5172-26.0256C78.2597-26.6922 78.2597-27.8819 77.5172-28.5732L75.2004-30.9061L77.2285-32.7062L79.4605-30.5501C80.1942-29.8924 81.3168-29.8368 82.0125-30.5209C82.6834-31.2034 82.7038-32.402 81.9833-33.0597L79.7381-35.3429L81.6726-37.3066L83.9762-35.0322C84.7479-34.3701 85.8033-34.2737 86.4946-34.965C87.2371-35.7367 87.1991-36.8593 86.4654-37.5126L84.2201-39.787L86.1678-41.7639L88.4423-39.5567C89.214-38.8654 90.2986-38.807 90.9899-39.4895C91.6944-40.2028 91.7324-41.3546 90.9899-42.0883Z"/>
</svg>