<svg xmlns="http://www.w3.org/2000/svg" viewBox="16.084 -89.4082 168.64 108.24">
  <path d="M77.9538-35.2697C77.9538-23.3774 78.8356-11.6368 82.2198 0.288704C86.2247 13.7759 93.9794 18.8308 109.898 18.8308L113.405 18.8308C151.346 18.8308 184.725-6.02748 184.725-35.2697C184.725-64.5119 151.346-89.4082 113.405-89.4082L109.898-89.4082C94.0466-89.4082 86.2919-84.3153 82.2198-70.8281C78.8356-58.9026 77.9538-47.162 77.9538-35.2697ZM91.5045-35.2697C91.5045-48.281 92.5499-57.6635 95.2153-67.0285C97.1635-73.6118 101.004-75.9043 109.898-75.9043L113.405-75.9043C143.534-75.9043 171.225-56.7856 171.225-35.2697C171.225-13.7538 143.534 5.3269 113.405 5.3269L109.898 5.3269C100.861 5.3269 97.1371 3.00629 95.2153-3.51087C92.5499-12.8759 91.5045-22.2584 91.5045-35.2697ZM16.084-71.1068C16.084-67.71 18.8159-65.1097 22.1103-65.1097L69.2297-65.1097C70.3781-70.6098 71.2137-73.913 72.4613-77.1199L22.1103-77.1199C18.8159-77.1199 16.084-74.4171 16.084-71.1068ZM16.084-47.2301C16.084-43.8713 18.8539-41.2038 22.1103-41.2038L66.691-41.1658C66.7714-45.1541 67.0534-49.2096 67.4814-53.2431L22.1103-53.2431C18.8159-53.2431 16.084-50.5112 16.084-47.2301ZM16.084-23.2889C16.084-20.0078 18.8159-17.3138 22.1103-17.3138L67.4814-17.3138C67.0534-21.3766 66.8094-25.4029 66.691-29.3532L22.1103-29.3532C18.8159-29.3532 16.084-26.6097 16.084-23.2889ZM16.084 0.587816C16.084 3.86892 18.8159 6.56288 22.1103 6.56288L72.4905 6.60087C71.1933 3.26558 70.0538-1.48684 69.2589-5.40927L22.1103-5.44725C18.8159-5.44725 16.084-2.73298 16.084 0.587816ZM108.745-11.9427C111.774-11.9427 113.68-13.5248 114.636-17.1712L117.461-25.6471L134.831-25.6471L137.605-17.1712C138.574-13.5248 140.518-11.9427 143.522-11.9427C147.109-11.9427 149.323-14.0231 149.323-17.4488C149.323-18.4425 149.05-19.6796 148.475-21.3977L135.432-57.8148C133.832-62.6106 130.7-64.9142 125.995-64.9142C121.428-64.9142 118.447-62.6398 116.822-57.8148L103.804-21.3977C103.191-19.6796 102.955-18.4425 102.955-17.462C102.955-14.0099 105.132-11.9427 108.745-11.9427ZM119.859-34.4603L125.852-53.4976L126.427-53.4976L132.395-34.4603Z"/>
</svg>