<svg xmlns="http://www.w3.org/2000/svg" viewBox="11.2588 -100.207 155.66 129.83">
  <path d="M11.2588-22.4577C11.2588-3.29899 18.1788 14.2326 29.6282 27.8004C31.1353 29.578 33.6219 29.594 35.3031 27.8968L50.5098 12.6741C51.849 11.3729 51.887 9.55277 50.6998 8.06152C43.9243-0.515135 40.0349-11.0441 40.0349-22.4577C40.0349-47.3729 58.6003-67.9455 82.6237-71.1397C84.6178-71.3882 86.0285-72.8926 86.0285-74.8734L86.0285-96.0638C86.0285-98.4539 84.2085-100.207 81.8184-99.9743C42.3074-96.3123 11.2588-63.008 11.2588-22.4577ZM166.916-22.4577C166.916-63.008 135.948-96.3123 96.3564-99.9743C93.9663-100.207 92.1463-98.4539 92.1463-96.0638L92.1463-74.8734C92.1463-72.8926 93.557-71.3882 95.5643-71.1397C119.575-67.9455 138.178-47.3729 138.178-22.4577C138.178-11.0441 134.289-0.515135 127.446 8.09072C126.297 9.58198 126.335 11.4021 127.636 12.7033L142.856 27.926C144.537 29.6232 147.037 29.594 148.557 27.8032C160.047 14.2061 166.916-3.31222 166.916-22.4577ZM75.7427 4.76805L92.569 4.76805C103.09 4.76805 111.389-0.351814 111.389-10.5863C111.389-18.073 105.796-23.1652 98.4123-23.8145L98.4123-24.1467C104.344-24.9844 108.75-30.184 108.75-36.0723C108.75-45.4217 100.743-49.604 92.2081-49.604L75.7427-49.604C72.1206-49.604 70.1888-47.3231 70.1888-43.8688L70.1888-0.902645C70.1888 2.48715 72.1585 4.76805 75.7427 4.76805ZM80.0245-26.6495L80.0245-42.06L89.8252-42.06C95.0882-42.06 99.1432-39.7911 99.1432-34.5998C99.1432-28.9201 94.467-26.6495 88.6831-26.6495ZM80.0245-2.77595L80.0245-19.8328L89.8556-19.8328C96.1804-19.8328 101.201-17.6531 101.201-11.3663C101.201-5.11198 96.5638-2.77595 90.2493-2.77595ZM88.491 11.6368C89.6062 11.6368 90.2947 10.8972 90.2947 9.78187L90.2947-54.9784C90.2947-56.1449 89.5682-56.8713 88.491-56.8713C87.3377-56.8713 86.636-56.1449 86.636-54.9784L86.636 9.78187C86.636 10.8972 87.3377 11.6368 88.491 11.6368Z"/>
</svg>