<svg xmlns="http://www.w3.org/2000/svg" viewBox="16.084 -90.7309 149.77 111.08">
  <path d="M73.3289-23.2744C73.3289-22.1315 74.2817-21.2591 75.467-21.2591L89.1777-21.2591L81.8497-1.82719C80.7812 1.07708 83.9003 2.72725 85.8209 0.346226L108.561-27.7427C109.039-28.2764 109.347-28.9181 109.347-29.4838C109.347-30.6646 108.343-31.5503 107.187-31.5503L93.485-31.5503L100.775-50.9689C101.873-53.8732 98.7492-55.4854 96.8198-53.1291L74.0642-25.0534C73.6241-24.4817 73.3289-23.8781 73.3289-23.2744ZM37.5412 20.3523L144.394 20.3523C158.347 20.3523 165.852 12.8213 165.852-0.990991L165.852-52.4275C165.852-66.2398 158.347-73.7708 144.394-73.7708L137.82-73.7708L137.82-81.2239C137.82-87.178 134.412-90.7309 128.446-90.7309L117.941-90.7309C111.988-90.7309 108.529-87.178 108.529-81.2239L108.529-73.7708L73.4067-73.7708L73.4067-81.2239C73.4067-87.178 69.9855-90.7309 64.0325-90.7309L53.5276-90.7309C47.5614-90.7309 44.1154-87.178 44.1154-81.2239L44.1154-73.7708L37.5412-73.7708C23.6265-73.7708 16.084-66.2662 16.084-52.4275L16.084-0.990991C16.084 12.8477 23.6265 20.3523 37.5412 20.3523ZM30.5257-2.62671L30.5257-50.7918C30.5257-56.543 33.4665-59.291 38.987-59.291L142.949-59.291C148.416-59.291 151.41-56.543 151.41-50.7918L151.41-2.62671C151.41 3.12453 148.416 5.87255 142.949 5.87255L38.987 5.87255C33.4665 5.87255 30.5257 3.12453 30.5257-2.62671Z"/>
</svg>