<svg xmlns="http://www.w3.org/2000/svg" viewBox="15.3662 -121.137 222.48 169.96">
  <path d="M45.7891 12.5305L32.4476-10.6047C29.9272-14.9808 24.7579-13.8589 23.3329-9.57477L16.4349 9.96114C15.3662 13.0622 16.8045 15.5046 20.0009 16.143L40.2822 19.9459C44.8191 20.8443 48.3095 16.9198 45.7891 12.5305ZM59.4146 44.3807C61.4306 47.7275 65.6715 48.8276 68.8679 46.9884L233.438-47.9873C236.621-49.8425 237.843-54.0789 235.963-57.3338C233.958-60.7318 229.679-61.8478 226.496-59.9926L61.9258 35.0211C58.7134 36.8223 57.5462 41.1011 59.4146 44.3807ZM78.171 2.26194L80.2281 1.0519C78.9959-0.215551 77.9273-1.62183 77.0487-3.15974C70.8647-13.8362 74.5282-27.3253 85.1755-33.5093C95.9033-39.6509 109.363-36.0458 115.496-25.3693C116.412-23.8314 117.101-22.1927 117.575-20.5204L168.008-49.6144C166.843-50.9198 165.774-52.3261 164.857-53.9064C158.725-64.5829 162.308-78.0428 173.035-84.2136C183.683-90.3596 197.172-86.7633 203.343-76.0868C204.234-74.5489 204.91-72.8721 205.421-71.1999L207.463-72.3967C217.493-78.1912 219.443-86.3038 213.354-96.8959L206.277-109.133C201.299-117.748 193.884-120.547 183.427-118.5L175.324-116.89C162.037-119.343 144.296-121.137 127.511-111.439L120.79-107.561C102.542-97.0563 95.8188-90.7074 88.8113-77.4454L77.5377-56.1265L59.556-42.6164C47.7328-33.7153 44.5998-21.2184 50.9396-10.233L54.1774-4.66404C60.162 5.75561 68.165 8.01845 78.171 2.26194ZM104.205-0.561918C111.833-4.99495 114.429-14.5832 109.996-22.227C105.617-29.846 96.0129-32.4134 88.3851-27.9963C80.7413-23.5633 78.1447-14.0131 82.5105-6.36928C86.9435 1.27451 96.561 3.84191 104.205-0.561918ZM192.036-51.2954C199.65-55.6744 202.247-65.2494 197.843-72.9065C193.41-80.5502 183.83-83.1176 176.178-78.7138C168.521-74.2808 165.962-64.6925 170.357-57.0867C174.803-49.4297 184.379-46.8623 192.036-51.2954Z" />
</svg>