<svg xmlns="http://www.w3.org/2000/svg" viewBox="11.2588 -101.081 131.66 131.62">
  <path d="M77.0704 30.5419C113.427 30.5419 142.92 1.08726 142.92-35.2697C142.92-71.6267 113.427-101.081 77.0704-101.081C40.7514-101.081 11.2588-71.6267 11.2588-35.2697C11.2588 1.08726 40.7514 30.5419 77.0704 30.5419ZM77.0704 15.7963C48.8414 15.7963 26.0292-7.04073 26.0292-35.2697C26.0292-63.4987 48.8414-86.3357 77.0704-86.3357C105.299-86.3357 128.136-63.4987 128.136-35.2697C128.136-7.04073 105.299 15.7963 77.0704 15.7963ZM77.0748-13.6293C82.7923-13.6293 88.4002-15.4391 92.007-19.246C93.8257-21.0896 95.2782-23.788 95.2782-26.048C95.2782-28.6986 93.2924-30.1026 90.8484-30.1026C88.6258-30.1026 87.555-28.8473 86.6345-27.3011C84.6033-23.4742 81.5925-21.4593 77.1712-21.4593C69.3724-21.4593 66.1238-27.646 66.1238-35.5852C66.1238-43.5245 69.4731-49.5768 77.12-49.5768C81.4735-49.5768 84.7393-47.6236 86.5673-43.7597C87.533-41.9652 88.7795-40.9627 90.806-40.9627C93.2957-40.9627 95.1978-42.4444 95.1978-45.0553C95.1978-47.2221 93.7002-49.8572 91.8434-51.8148C88.3082-55.458 82.8293-57.4068 76.9944-57.4068C63.6127-57.4068 56.1802-48.3662 56.1802-35.5852C56.1802-21.8124 64.4774-13.6293 77.0748-13.6293ZM76.9372-6.89855C77.9808-6.89855 78.8301-7.70983 78.8301-8.74024L78.8301-62.363C78.8301-63.3687 77.9808-64.218 76.9372-64.218C75.9315-64.218 75.0822-63.3687 75.0822-62.363L75.0822-8.74024C75.0822-7.70983 75.9315-6.89855 76.9372-6.89855Z" />
</svg>