<svg xmlns="http://www.w3.org/2000/svg" viewBox="11.2588 -101.081 131.66 131.62">
  <path d="M77.0704 30.5419C113.427 30.5419 142.92 1.08726 142.92-35.2697C142.92-71.6267 113.427-101.081 77.0704-101.081C40.7514-101.081 11.2588-71.6267 11.2588-35.2697C11.2588 1.08726 40.7514 30.5419 77.0704 30.5419ZM77.0704 15.7963C48.8414 15.7963 26.0292-7.04073 26.0292-35.2697C26.0292-63.4987 48.8414-86.3357 77.0704-86.3357C105.299-86.3357 128.136-63.4987 128.136-35.2697C128.136-7.04073 105.299 15.7963 77.0704 15.7963ZM44.0536-12.9566C44.0536-9.56906 46.3583-7.30244 49.7458-7.30244L105.478-7.30244C107.795-7.30244 109.684-9.07765 109.684-11.4666C109.684-13.8555 107.808-15.6572 105.478-15.6572L52.3583-15.6572C52.0976-15.6572 52.4596-15.3332 52.4596-15.5558L52.4596-60.5674C52.4596-62.9271 50.6579-64.8164 48.2822-64.8164C45.8553-64.8164 44.0536-62.9271 44.0536-60.5674ZM50.7195-25.5025L63.0249-38.0513C63.3587-38.4099 63.6794-38.4099 64-38.0513L73.6829-28.011C75.2499-26.4616 76.909-25.6971 78.6952-25.6971C80.5035-25.6971 82.2385-26.4324 83.7075-27.9818L94.9881-39.4904L98.6902-35.6556C100.548-33.7487 103.413-34.8415 104.094-37.4848L108.4-54.308C109.078-56.7586 106.831-58.9795 104.342-58.3147L87.5457-54.0973C84.9139-53.4033 83.837-50.4939 85.744-48.6938L89.3975-45.0678L79.2164-34.6118C78.909-34.2531 78.6131-34.2531 78.2792-34.5738L68.5204-44.728C67.0001-46.3447 65.3455-47.0287 63.546-47.0287C61.6998-47.0287 60.0876-46.3447 58.5762-44.728L45.1641-31.0931Z" />
</svg>