<svg xmlns="http://www.w3.org/2000/svg" viewBox="11.2588 -101.081 131.66 131.62">
  <path d="M77.0704 30.5419C113.427 30.5419 142.92 1.08726 142.92-35.2697C142.92-71.6267 113.427-101.081 77.0704-101.081C40.7514-101.081 11.2588-71.6267 11.2588-35.2697C11.2588 1.08726 40.7514 30.5419 77.0704 30.5419ZM77.0704 15.7963C48.8414 15.7963 26.0292-7.04073 26.0292-35.2697C26.0292-63.4987 48.8414-86.3357 77.0704-86.3357C105.299-86.3357 128.136-63.4987 128.136-35.2697C128.136-7.04073 105.299 15.7963 77.0704 15.7963ZM63.3206-4.43989C65.2639-2.49665 69.2682-2.54616 71.3635-4.54507L96.6199-28.3695C100.528-32.0091 100.541-38.3684 96.6199-42.0592L71.3635-65.8165C69.0374-68.0082 65.5955-67.9993 63.4462-65.9889C61.0634-63.7989 61.0255-60.0281 63.3251-57.8248L87.3617-35.229L63.3251-12.5659C61.0927-10.4299 60.9511-6.7979 63.3206-4.43989Z" />
</svg>