<svg xmlns="http://www.w3.org/2000/svg" viewBox="11.2588 -101.081 131.66 131.62">
  <path d="M77.0704 30.5419C113.427 30.5419 142.92 1.08726 142.92-35.2697C142.92-71.6267 113.427-101.081 77.0704-101.081C40.7514-101.081 11.2588-71.6267 11.2588-35.2697C11.2588 1.08726 40.7514 30.5419 77.0704 30.5419ZM77.0704 15.7963C48.8414 15.7963 26.0292-7.04073 26.0292-35.2697C26.0292-63.4987 48.8414-86.3357 77.0704-86.3357C105.299-86.3357 128.136-63.4987 128.136-35.2697C128.136-7.04073 105.299 15.7963 77.0704 15.7963ZM47.9745-9.84764L80.199-9.84764C88.6281-9.84764 95.022-16.2894 95.022-24.6728C95.022-33.0883 88.4865-39.3951 79.6189-39.524C76.4479-45.449 70.6815-49.7412 62.6811-49.7412C52.9112-49.7412 44.8098-42.3382 43.7671-32.7506C38.8504-31.1494 35.476-26.8768 35.476-21.4406C35.476-14.7147 40.49-9.84764 47.9745-9.84764ZM73.7171-52.7936C74.86-51.5836 76.954-51.6887 78.0969-52.7892C79.231-53.9436 79.2062-55.9589 78.0969-57.1018L73.9017-61.3731C72.6332-62.5028 70.6983-62.4603 69.5466-61.3863C68.3161-60.2142 68.433-58.2661 69.5759-57.018ZM90.9519-58.2032C92.71-58.2032 94.0253-59.5609 94.0253-61.2545L94.0253-67.121C94.0253-68.9083 92.71-70.2528 90.9519-70.2528C89.299-70.2528 87.8654-68.9083 87.8654-67.121L87.8654-61.2545C87.8654-59.5609 89.299-58.2032 90.9519-58.2032ZM103.933-52.8024C105.071-51.6887 107.154-51.5836 108.254-52.7644L112.424-56.9888C113.597-58.2369 113.612-60.201 112.454-61.3439C111.302-62.4895 109.322-62.5408 108.103-61.3439L103.933-57.131C102.76-55.9474 102.769-53.9568 103.933-52.8024ZM112.339-36.912L118.184-36.912C119.955-36.912 121.257-38.2433 121.257-39.8962C121.257-41.6251 119.955-42.974 118.184-42.974L112.339-42.974C110.673-42.974 109.262-41.6251 109.262-39.8962C109.262-38.2433 110.673-36.912 112.339-36.912ZM108.103-18.3945C109.322-17.2136 111.273-17.3028 112.454-18.4617C113.583-19.6965 113.634-21.6402 112.424-22.7743L108.283-26.8776C107.086-28.0877 105.08-28.1169 103.874-26.9068C102.74-25.8063 102.731-23.829 103.903-22.5809ZM105.72-39.8962C105.72-48.122 99.147-54.5815 90.9811-54.5815C85.8385-54.5815 81.2711-51.9864 78.8216-48.0633C80.1453-46.8156 81.3241-45.4143 82.3128-43.9105C91.2403-42.7219 98.0753-36.3304 99.3297-27.7907C103.237-30.5167 105.72-34.9189 105.72-39.8962Z" />
</svg>