<svg xmlns="http://www.w3.org/2000/svg" viewBox="16.084 -106.628 95.49 142.72">
  <path d="M67.0583 20.0771C86.3023 20.0771 104.007 11.3084 110.268-5.79613C111.141-7.98036 111.576-10.4866 111.576-12.62C111.576-17.9576 108.017-21.1349 102.639-21.1349C98.0847-21.1349 95.6858-18.7858 93.9798-14.6062C90.1111-2.58636 79.5967 4.07991 66.8043 4.07991C45.3252 4.07991 35.9809-14.5734 35.9809-36.1261C35.9809-57.9752 45.784-75.9419 66.7371-75.9419C79.2488-75.9419 89.5571-68.8882 93.3939-57.1869C95.1671-52.8905 97.6592-50.6581 102.37-50.6581C107.558-50.6581 110.831-53.8805 110.831-59.0331C110.831-61.5533 110.146-64.3819 108.981-66.8785C101.799-83.6225 84.8766-91.9948 66.6203-91.9948C34.5794-91.9948 16.084-69.4107 16.084-36.0969C16.084-2.54252 34.332 20.0771 67.0583 20.0771ZM38.533 36.0886C40.5029 36.0886 41.7596 35.1226 42.2112 33.1642L75.6754-101.207C75.845-101.834 75.9634-102.447 75.9634-103.026C75.9634-105.285 74.5474-106.628 72.2719-106.628C70.4407-106.628 69.1839-105.586 68.6943-103.704L35.2682 30.7058C35.0986 31.333 34.9802 32.0215 34.9802 32.663C34.9802 34.5935 36.4341 36.0886 38.533 36.0886ZM60.8662 36.0886C62.8741 36.0886 64.0929 35.1226 64.5825 33.1642L98.0466-101.207C98.2162-101.834 98.2967-102.447 98.2967-103.026C98.2967-105.285 96.8807-106.628 94.6299-106.628C92.8119-106.628 91.5552-105.586 91.0656-103.704L57.6015 30.7058C57.4318 31.333 57.3134 32.0215 57.3134 32.663C57.3134 34.5935 58.7674 36.0886 60.8662 36.0886Z"/>
</svg>