<svg xmlns="http://www.w3.org/2000/svg" viewBox="16.084 -104.381 167.92 130.11">
  <path d="M34.2716-41.6937C44.2768-41.6937 52.3921-49.8338 52.3921-59.8814C52.3921-69.8485 44.2768-78.0398 34.2716-78.0398C24.224-78.0398 16.084-69.8865 16.084-59.8814C16.084-49.8338 24.262-41.6937 34.2716-41.6937ZM34.2716-53.5597C30.794-53.5597 27.9119-56.4037 27.9119-59.8814C27.9119-63.3925 30.794-66.1739 34.2716-66.1739C37.7068-66.1739 40.5641-63.3165 40.5641-59.8814C40.5641-56.4037 37.7828-53.5597 34.2716-53.5597ZM100.066-68.0733C110.084-68.0733 118.186-76.2133 118.186-86.2609C118.186-96.228 110.084-104.381 100.066-104.381C90.0315-104.381 81.8782-96.266 81.8782-86.2609C81.8782-76.2133 90.0695-68.0733 100.066-68.0733ZM100.066-79.9392C96.6014-79.9392 93.7441-82.7833 93.7441-86.2609C93.7441-89.772 96.6014-92.5534 100.066-92.5534C103.514-92.5534 106.358-89.6961 106.358-86.2609C106.358-82.7833 103.59-79.9392 100.066-79.9392ZM165.847-41.6937C175.852-41.6937 184.005-49.8338 184.005-59.8814C184.005-69.8865 175.89-78.0398 165.847-78.0398C155.837-78.0398 147.697-69.8485 147.697-59.8814C147.697-49.8338 155.837-41.6937 165.847-41.6937ZM165.847-53.5597C162.331-53.5597 159.563-56.4037 159.563-59.8814C159.563-63.3165 162.407-66.1739 165.847-66.1739C169.32-66.1739 172.177-63.3925 172.177-59.8814C172.177-56.4037 169.32-53.5597 165.847-53.5597ZM40.5871-46.0003L61.6233-33.4597C67.59-29.9032 75.0514-30.6224 79.6044-36.824L104.491-70.1761L92.0353-75.5214L70.0965-46.1187C69.1462-44.8027 68.0202-44.5571 66.3958-45.5799L47.5788-57.2081ZM159.736-45.7744L152.744-56.9954L134.097-45.4714C132.303-44.3312 131.11-44.6297 130.069-46.0516L108.352-75.3335L95.8966-69.9502L120.849-36.4658C125.271-30.4097 132.667-29.6888 138.318-32.9974ZM49.1567 1.11291L151.026 1.11291L151.026-12.0729L49.1567-12.0729ZM32.9685-44.322L46.1586 9.45576C48.8323 20.3319 54.8981 25.7282 66.0136 25.7282L134.169 25.7282C145.234 25.7282 151.313 20.3319 153.986 9.45576L167.176-44.322L154.914-49.8733L140.933 7.38518C140.122 10.7688 137.883 12.5044 134.25 12.5044L65.9332 12.5044C62.2863 12.5044 60.0604 10.7688 59.2116 7.38518L45.2311-49.8733Z"/>
</svg>