<svg xmlns="http://www.w3.org/2000/svg" viewBox="16.084 -94.7943 119.09 119.13">
  <path d="M37.5412 24.3309L113.714 24.3309C127.667 24.3309 135.171 16.7998 135.171 2.98757L135.171-73.451C135.171-87.2633 127.667-94.7943 113.714-94.7943L37.5412-94.7943C23.6265-94.7943 16.084-87.2897 16.084-73.451L16.084 2.98757C16.084 16.8263 23.6265 24.3309 37.5412 24.3309ZM38.987 9.85111C33.4665 9.85111 30.5257 7.10309 30.5257 1.35185L30.5257-71.8153C30.5257-77.6045 33.4665-80.3145 38.987-80.3145L112.268-80.3145C117.736-80.3145 120.729-77.6045 120.729-71.8153L120.729 1.35185C120.729 7.10309 117.736 9.85111 112.268 9.85111ZM59.8992-7.34209L75.7006-7.34209C93.0608-7.34209 102.923-17.4501 102.923-35.6264C102.923-53.5707 93.1236-63.7246 75.7006-63.7246L59.8992-63.7246C55.0435-63.7246 52.5631-60.8466 52.5631-55.9017L52.5631-15.1782C52.5631-10.2041 55.0143-7.34209 59.8992-7.34209ZM65.752-17.6932L65.752-53.3195L73.6541-53.3195C83.6873-53.3195 88.9904-47.3471 88.9904-35.5372C88.9904-23.4661 83.7385-17.6932 73.6541-17.6932Z" />
</svg>