<svg xmlns="http://www.w3.org/2000/svg" viewBox="16.084 -94.7651 149.77 119.13">
  <path d="M43.4928 24.3601L139.341 24.3601C155.933 24.3601 165.852 14.1506 165.852-3.08673L165.852-67.3183C165.852-84.5557 155.933-94.7651 139.341-94.7651L43.4928-94.7651C26.2934-94.7651 16.084-84.5557 16.084-67.3183L16.084-3.08673C16.084 14.1506 26.2934 24.3601 43.4928 24.3601ZM44.8626 9.88032C35.8675 9.88032 30.5257 4.57653 30.5257-4.45654L30.5257-65.9485C30.5257-74.9816 35.8675-80.2853 44.8626-80.2853L137.073-80.2853C146.106-80.2853 151.41-74.9816 151.41-65.9485L151.41-4.45654C151.41 4.57653 146.106 9.88032 137.073 9.88032ZM45.4187-4.90045C45.4187-1.25279 47.9041 1.15217 51.6614 1.15217L130.355 1.15217C134.112 1.15217 136.597-1.25279 136.597-4.90045L136.597-13.582C136.597-17.2296 134.112-19.6346 130.355-19.6346L51.6614-19.6346C47.9041-19.6346 45.4187-17.2296 45.4187-13.582Z"/>
</svg>