<svg xmlns="http://www.w3.org/2000/svg" viewBox="16.084 -116.262 133.41 161.97">
  <path d="M47.9737-92.7091L58.3545-92.7091C69.0179-92.7091 76.0424-90.1885 82.7382-83.4547L118.82-47.4374C125.208-41.0117 127.159-33.0732 127.159-23.0742L127.159 12.5466L129.202 12.5466C140.238 12.5466 149.494 5.96778 149.494-8.91063L149.494-94.8048C149.494-108.72 141.99-116.262 128.151-116.262L69.1037-116.262C55.5543-116.262 47.9737-108.67 47.9737-95.0677ZM80.0782-97.1211L80.0782-98.6061C80.0782-100.439 81.5252-102.847 84.5244-102.847L112.973-102.847C115.959-102.847 117.406-100.439 117.406-98.6061L117.406-97.1211C117.406-94.9376 115.696-92.8797 112.973-92.8797L84.5244-92.8797C81.7588-92.8797 80.0782-94.9376 80.0782-97.1211ZM16.084 24.2479C16.084 38.2005 23.5506 45.7051 37.3893 45.7051L96.2614 45.7051C110.1 45.7051 117.605 38.1758 117.605 24.2479L117.605-24.1181L71.9214-24.1181C64.1256-24.1181 60.1101-28.1848 60.1101-35.9807L60.1101-83.1036L37.3893-83.1036C23.577-83.1036 16.084-75.561 16.084-61.6463ZM73.4247-33.7236L116.337-33.7528C115.631-36.5597 113.819-39.349 110.959-42.2334L77.9245-75.6478C75.049-78.5234 72.5297-80.5299 69.6776-81.3787L69.6776-37.5583C69.6776-35.0821 71.0069-33.7236 73.4247-33.7236Z"/>
</svg>