<svg xmlns="http://www.w3.org/2000/svg" viewBox="16.084 -108.635 234.2 149.49">
  <path d="M103.817-6.14664L162.205-6.14664C179.337-6.14664 182.968-19.6335 177.214-30.9436L160.323-64.2127C156.891-71.0957 152.497-74.8881 142.723-74.8881L123.57-74.8881C113.796-74.8881 109.44-71.0957 105.956-64.2127L88.8378-30.9436C83.0541-19.7272 86.699-6.14664 103.817-6.14664ZM60.9339 14.1562L100.378 0.408051L98.1986-10.0084L58.445 3.85216C46.7152 7.92844 40.159 2.96013 40.159-6.6548L40.159-18.6824C40.159-19.8459 40.4532-20.0729 41.6146-20.0729L44.4938-20.0729C45.7489-20.0729 46.0298-19.8592 46.0298-18.6824L46.0298-8.14475C46.0298-2.08379 49.8097 0.522523 56.3098-1.73928L95.0775-15.3388L94.2577-26.2216L59.1641-13.7401C57.0992-13.0117 56.3416-13.6042 56.3416-15.3666L56.3416-21.721C56.3416-26.4118 53.6856-29.4353 48.5415-29.4353L37.4733-29.4353C32.5689-29.4353 29.7801-26.2949 29.7801-21.429L29.7801-4.11834C29.7801 10.2175 42.4924 20.5633 60.9339 14.1562ZM122.651 40.8506L143.307 40.8506C147.502 40.8506 150.123 37.6371 150.123 33.4558L150.123 17.7108L115.832 17.7108L115.832 33.4558C115.832 37.6371 118.483 40.8506 122.651 40.8506ZM132.986 34.0606C130.198 34.0606 127.997 31.9114 127.997 29.0588C127.997 26.2195 130.198 24.1374 132.986 24.1374C135.758 24.1374 137.987 26.2707 137.987 29.0588C137.987 31.9114 135.677 34.0606 132.986 34.0606ZM116.594 22.159L149.364 22.159C153.948 22.159 157.85 20.5187 160.082 16.7262L178.169-14.2755L161.292-9.14155L151.201 8.18792C150.174 9.98269 148.536 10.8774 145.986 10.8774L119.918 10.8774C117.377 10.8774 115.768 9.98269 114.741 8.18792L104.454-9.45737L87.6535-14.5516L105.876 16.7262C108.07 20.5187 111.994 22.159 116.594 22.159ZM97.8408-37.7082L101.583-47.3931L82.3937-57.7193C76.7044-60.7911 75.4718-63.0407 75.4718-69.5994L75.4718-77.7612C75.4718-78.9115 75.766-79.1765 76.9274-79.1765L79.8066-79.1765C81.0616-79.1765 81.3806-78.9247 81.3806-77.7612L81.3806-69.9073C81.3806-65.6605 82.5542-64.1154 85.7176-62.4723L103.819-53.0656L108.587-62.3739L93.0539-70.7642C91.9032-71.3943 91.4499-72.1561 91.4499-73.2903L91.4499-80.7866C91.4499-85.3897 88.9195-88.3972 84.2338-88.3972L72.348-88.3972C67.848-88.3972 65.2388-85.3897 65.2388-80.7866L65.2388-66.9998C65.2388-57.2456 68.0354-53.4547 77.6613-48.3364ZM108.137-17.4371C100.121-17.4371 97.8412-22.8389 101.501-30.0535L115.557-57.9062C117.632-61.9814 119.776-63.4341 125.031-63.4341L141.195-63.4341C146.501-63.4341 148.631-61.9814 150.707-57.9062L164.686-30.0535C168.332-22.8257 166.065-17.4371 158.024-17.4371ZM101.123-93.3917C103.734-93.3917 105.425-95.6352 105.425-97.9211C105.425-100.274 103.734-102.493 101.123-102.493L55.6893-102.493C53.0877-102.493 51.3587-100.274 51.3587-97.9211C51.3587-95.6352 53.0877-93.3917 55.6893-93.3917ZM205.359 14.1562C223.792 20.5925 236.513 10.2175 236.513-4.11834L236.513-21.429C236.513-26.2949 233.724-29.4353 228.82-29.4353L217.751-29.4353C212.556-29.4353 209.951-26.4118 209.951-21.721L209.951-15.3666C209.951-13.6042 209.143-13.0117 207.129-13.7401L172.035-26.2216L171.215-15.3388L209.945-1.73928C216.483 0.522523 220.263-2.08379 220.263-8.14475L220.263-18.6824C220.263-19.8592 220.544-20.0729 221.799-20.0729L224.678-20.0729C225.827-20.0729 226.134-19.8459 226.134-18.6824L226.134-6.6548C226.134 2.96013 219.565 7.92844 207.848 3.85216L168.094-10.0084L165.915 0.408051ZM168.439-37.7082L188.618-48.3364C198.287-53.4839 201.054-57.2456 201.054-66.9998L201.054-80.7866C201.054-85.3897 198.432-88.3972 193.945-88.3972L182.059-88.3972C177.36-88.3972 174.843-85.4189 174.843-80.7866L174.843-73.2903C174.843-72.1561 174.39-71.3943 173.239-70.7642L157.676-62.3447L162.474-53.0656L180.562-62.4723C183.725-64.1154 184.912-65.6605 184.912-69.9073L184.912-77.7612C184.912-78.9247 185.231-79.1765 186.486-79.1765L189.328-79.1765C190.527-79.1765 190.821-78.9115 190.821-77.7612L190.821-69.5994C190.821-63.0407 189.589-60.7911 183.899-57.7193L164.71-47.3931ZM165.018-93.3917L210.452-93.3917C213.053-93.3917 214.782-95.6352 214.782-97.9211C214.782-100.274 213.053-102.493 210.452-102.493L165.018-102.493C162.445-102.493 160.716-100.274 160.716-97.9211C160.716-95.6352 162.445-93.3917 165.018-93.3917ZM65.8487-34.3262C68.4211-34.3262 70.1501-36.5696 70.1501-38.8555C70.1501-41.1954 68.4211-43.4141 65.8487-43.4141L20.4145-43.4141C17.813-43.4141 16.084-41.1954 16.084-38.8555C16.084-36.5696 17.813-34.3262 20.4145-34.3262ZM200.507-34.3262L245.954-34.3262C248.556-34.3262 250.285-36.5696 250.285-38.8555C250.285-41.1954 248.556-43.4141 245.954-43.4141L200.507-43.4141C197.948-43.4141 196.219-41.1954 196.219-38.8555C196.219-36.5696 197.948-34.3262 200.507-34.3262ZM182-85.6236L193.832-85.6236L193.832-102.628C193.832-105.874 191.239-108.635 187.846-108.635C184.584-108.635 182-105.874 182-102.628ZM84.2931-85.6236L84.2931-102.628C84.2931-105.874 81.7093-108.635 78.3582-108.635C75.0538-108.635 72.4612-105.874 72.4612-102.628L72.4612-85.6236ZM217.313-26.9379L229.144-26.9379L229.144-43.9425C229.144-47.1752 226.59-49.9359 223.158-49.9359C219.896-49.9359 217.313-47.1752 217.313-43.9425ZM48.9804-26.9379L48.9804-43.9425C48.9804-47.1752 46.3965-49.9359 43.0454-49.9359C39.7031-49.9359 37.1485-47.1752 37.1485-43.9425L37.1485-26.9379Z"/>
</svg>