<svg xmlns="http://www.w3.org/2000/svg" viewBox="11.2588 -101.225 91.65 131.86">
  <path d="M57.0812 30.6302C84.591 30.601 102.904 12.6905 102.904-14.1468C102.904-26.5358 98.0137-39.8797 92.7144-51.1247C86.1024-65.4644 76.5269-80.9269 67.4963-94.7755C64.8336-98.812 61.5881-101.225 57.0812-101.225C52.5231-101.225 49.3288-98.812 46.7042-94.7755C37.5275-80.6933 27.7548-64.9971 21.1136-50.4531C16.0028-39.4708 11.2588-26.3606 11.2588-14.1468C11.2588 12.6905 29.5715 30.601 57.0812 30.6302ZM57.0812 16.0276C38.2911 15.9984 25.8614 3.97076 25.8614-14.1468C25.8614-23.6959 29.7391-34.023 34.105-43.4994C40.3476-57.3749 48.4845-69.7599 56.3659-81.4794C56.7544-82.0921 57.3716-82.2381 57.8213-81.4794C65.6196-69.8767 73.7315-57.5793 79.8602-43.8206C84.327-34.2566 88.3011-23.7835 88.3011-14.1468C88.3011 3.97076 75.8713 15.9984 57.0812 16.0276Z"/>
</svg>