<svg xmlns="http://www.w3.org/2000/svg" viewBox="16.084 -93.0295 160.09 115.52">
  <path d="M25.8577 22.4901L74.2103 22.4901C79.3347 22.4901 83.0056 19.5829 83.0056 14.2937C83.0056 9.13718 79.3843 6.13521 74.2103 6.13521L35.8374 6.13521L35.8374-28.4624L72.5277-28.4624C77.4609-28.4624 80.5798-31.526 80.5798-36.1668C80.5798-40.8486 77.3704-43.8201 72.5277-43.8201L35.8374-43.8201L35.8374-76.6526L74.2103-76.6526C79.1419-76.6526 83.0056-79.4926 83.0056-84.8623C83.0056-90.0055 79.4515-93.0295 74.2103-93.0295L25.8577-93.0295C19.7768-93.0295 16.084-89.3118 16.084-82.7898L16.084 12.2212C16.084 19.1901 20.2528 22.4901 25.8577 22.4901ZM108.558 22.4901L168.077 22.4901C173.085 22.4901 176.17 19.1565 176.17 14.2937C176.17 9.27442 173.009 6.10601 168.077 6.10601L121.239 6.10601L121.239 5.54752L171.682-75.503C173.287-78.1387 174.339-80.3536 174.339-83.5606C174.339-89.3335 170.389-93.0295 164.273-93.0295L107.655-93.0295C102.564-93.0295 98.7497-90.2363 98.7497-84.8623C98.7497-79.405 102.634-76.6234 107.655-76.6234L151.877-76.6234L151.877-76.0914L101.088 5.22529C99.4191 7.86551 98.5731 10.1415 98.5731 13.3088C98.5731 19.3535 103.018 22.4901 108.558 22.4901Z"/>
</svg>