<svg xmlns="http://www.w3.org/2000/svg" viewBox="11.2588 -93.1314 153.36 115.8">
  <path d="M46.6442 22.6725C67.0568 22.6725 82.256-0.761355 82.256-35.2697C82.256-69.7533 67.07-93.1314 46.6442-93.1314C27.7321-93.1314 13.3134-73.1216 11.2588-42.7775C14.2833-48.4802 19.9809-51.893 27.3921-51.893C38.5351-51.893 45.9165-44.1067 45.9165-32.5777C45.9165-20.8718 38.5351-13.1819 27.3921-13.1819C20.525-13.1819 15.0703-16.0887 11.9301-21.0935C15.4755 5.53478 29.0808 22.6725 46.6442 22.6725ZM22.3186-34.7554C24.5846-34.3286 26.7162-36.4046 27.266-39.276C27.8157-42.0625 26.475-44.8023 24.0861-45.2423C21.8873-45.586 19.5161-43.5932 19.0203-40.7218C18.5246-37.8549 19.9969-35.1735 22.3186-34.7554ZM128.97 22.6725C149.434 22.6725 164.62-0.748125 164.62-35.2697C164.62-69.7533 149.434-93.1314 128.97-93.1314C110.109-93.1314 95.6769-73.1216 93.5844-42.7775C96.6468-48.4802 102.306-51.893 109.731-51.893C120.899-51.893 128.242-44.1067 128.242-32.5777C128.242-20.8718 120.899-13.1819 109.731-13.1819C102.851-13.1819 97.4338-16.0887 94.2557-21.0935C97.8391 5.53478 111.444 22.6725 128.97 22.6725ZM104.644-34.7554C106.923-34.3286 109.093-36.4046 109.63-39.276C110.179-42.0625 108.814-44.8986 106.425-45.2423C104.213-45.586 101.88-43.5932 101.384-40.7218C100.85-37.8549 102.322-35.1823 104.644-34.7554Z"/>
</svg>