<svg xmlns="http://www.w3.org/2000/svg" viewBox="11.2588 -101.081 131.66 131.62">
  <path d="M77.0704 30.5419C113.401 30.5419 142.92 1.02282 142.92-35.2697C142.92-71.5622 113.401-101.081 77.0704-101.081C40.7779-101.081 11.2588-71.5622 11.2588-35.2697C11.2588 1.02282 40.7779 30.5419 77.0704 30.5419ZM77.0704-20.3433C76.807-20.3433 76.5948-20.3433 76.3447-20.3858C72.7077-8.58797 68.4348-2.24643 60.4378-2.24643C50.7865-2.24643 41.4822-12.7527 41.4822-23.4987C41.4822-29.5181 44.9556-32.844 51.1155-32.844L62.2889-32.844C62.1661-33.5386 62.0856-34.4567 62.0856-35.2697C62.0856-35.5039 62.0856-35.7832 62.0989-36.0042C50.4266-39.5739 44.0851-43.9141 44.0851-51.873C44.0851-61.5244 54.6206-70.8155 65.3286-70.8155C71.386-70.8155 74.6827-67.3844 74.6827-61.2042L74.6827-50.022C75.3772-50.1448 76.2574-50.2253 77.0704-50.2253C77.3718-50.2253 77.5839-50.2253 77.8341-50.1828C81.4038-61.893 85.744-68.2346 93.7029-68.2346C103.379-68.2346 112.683-57.7283 112.683-46.9531C112.683-40.9337 109.252-37.637 103.034-37.637L91.8519-37.637C91.9747-36.9132 92.0259-36.0827 92.0259-35.2697C92.0259-35.0063 92.0259-34.7562 91.9543-34.4768C103.723-30.907 110.064-26.5669 110.064-18.608C110.064-8.95657 99.5582 0.33449 88.821 0.33449C82.7636 0.33449 79.4669-3.12576 79.4669-9.27681L79.4669-20.5174C78.7431-20.4238 77.8834-20.3433 77.0704-20.3433ZM77.0704-27.7469C81.2661-27.7469 84.6312-31.074 84.6312-35.2697C84.6312-39.4654 81.2661-42.7925 77.0704-42.7925C72.9126-42.7925 69.5343-39.4654 69.5343-35.2697C69.5343-31.074 72.9126-27.7469 77.0704-27.7469Z"/>
</svg>