<svg xmlns="http://www.w3.org/2000/svg" viewBox="11.2588 -101.081 131.66 131.62">
  <path d="M77.0704 30.5419C113.401 30.5419 142.92 1.02282 142.92-35.2697C142.92-71.5622 113.401-101.081 77.0704-101.081C40.7779-101.081 11.2588-71.5622 11.2588-35.2697C11.2588 1.02282 40.7779 30.5419 77.0704 30.5419ZM76.8255-60.9194C72.5032-60.9194 68.9647-64.3995 68.9647-68.751C68.9647-73.022 72.5032-76.5605 76.8255-76.5605C81.1522-76.5605 84.6482-73.022 84.6482-68.751C84.6482-64.3995 81.1522-60.9194 76.8255-60.9194ZM52.9896-3.31498L63.3571-15.5586L66.3358-27.9144C65.1704-29.77 64.5986-31.3111 64.5562-33.5175L60.0695-33.5175C57.213-33.5175 55.1211-35.5714 55.1211-38.4703L55.1211-55.6161C55.1211-59.7867 57.6256-62.2621 61.7671-62.2621L65.2362-62.2621C68.0905-62.2621 70.2441-60.3074 70.4194-57.6624C70.968-57.7605 71.5591-57.8249 72.1343-57.8249C74.7821-57.8249 76.8421-56.6467 78.4708-54.9243L88.8354-43.6107L97.6073-43.6107C99.8618-43.6107 101.393-42.2788 101.393-40.1984C101.393-38.0375 99.891-36.6384 97.6073-36.6384L89.2815-36.6384C87.0854-36.6384 86.046-37.0273 84.7929-38.3008L79.7211-43.2907L79.3482-38.1208C79.0398-33.7933 78.5473-30.8225 76.7067-27.0008L70.6174-13.753C69.8645-12.2968 69.458-11.5146 68.4655-10.455L58.3842 1.69251C55.352 5.30367 49.3652 0.990748 52.9896-3.31498ZM75.5873-16.0476L79.3169-24.1413L81.7112-20.7786C82.4862-19.704 83.248-18.5181 83.8109-17.3587L90.9512-2.78728C93.5565 2.31386 86.4174 5.38409 83.9905 0.566635L76.6982-14.3644C76.4262-14.8413 76.1789-15.26 75.5873-16.0476ZM95.2796 0.89387L95.2796-33.1579L97.6073-33.1579C98.1493-33.1579 98.8803-33.2543 99.6288-33.4151L99.6288 0.89387C99.6288 2.11559 98.6715 3.0933 97.4206 3.0933C96.1989 3.0933 95.2796 2.11559 95.2796 0.89387ZM95.2796-47.1205L95.2796-50.9507C95.2796-52.1884 96.1856-53.0829 97.4206-53.0829C98.6847-53.0829 99.6288-52.1884 99.6288-50.9507L99.6288-46.834C98.8308-47.0533 98.1395-47.1205 97.6073-47.1205Z"/>
</svg>