<svg xmlns="http://www.w3.org/2000/svg" viewBox="11.2588 -101.081 131.66 131.62">
  <path d="M77.0704 30.5419C113.427 30.5419 142.92 1.08726 142.92-35.2697C142.92-71.6267 113.427-101.081 77.0704-101.081C40.7514-101.081 11.2588-71.6267 11.2588-35.2697C11.2588 1.08726 40.7514 30.5419 77.0704 30.5419ZM77.0704 15.7963C48.8414 15.7963 26.0292-7.04073 26.0292-35.2697C26.0292-63.4987 48.8414-86.3357 77.0704-86.3357C105.299-86.3357 128.136-63.4987 128.136-35.2697C128.136-7.04073 105.299 15.7963 77.0704 15.7963ZM77.0324-54.7315C81.0462-54.7315 84.3787-57.9967 84.3787-62.053C84.3787-66.1048 81.0462-69.3992 77.0324-69.3992C72.925-69.3992 69.6729-66.1048 69.6729-62.053C69.6729-57.9967 72.925-54.7315 77.0324-54.7315ZM77.0324-20.6988L78.3708-9.95377L78.3708 6.23508C78.3708 8.10071 79.9412 9.6871 81.836 9.6871C83.6345 9.6871 85.2341 8.10071 85.2341 6.23508L85.2341-37.6438C85.2341-38.0751 85.6962-38.1263 85.8703-37.7914C89.4184-31.1952 91.7654-24.6207 92.7525-21.74C93.3958-19.9416 95.3419-18.9473 97.1023-19.5774C98.4987-20.0512 99.3993-21.3891 99.3993-22.8014C99.3993-23.1363 99.2809-23.6524 99.0908-24.2737C98.968-24.7095 93.5122-41.0873 86.654-48.8388C85.1553-50.5117 82.9619-51.5571 80.5405-51.5571L73.5243-51.5571C71.1029-51.5571 68.9096-50.5117 67.4108-48.8388C60.5526-41.0873 55.0969-24.7095 54.974-24.2737C54.784-23.6524 54.6656-23.1363 54.6656-22.8014C54.6656-21.3891 55.5661-20.0512 56.9625-19.5774C58.7229-18.9473 60.669-19.9416 61.3124-21.74C62.2994-24.6207 64.6464-31.1952 68.1946-37.7914C68.3686-38.1263 68.8307-38.0751 68.8307-37.6438L68.8307 6.23508C68.8307 8.10071 70.4303 9.6871 72.2288 9.6871C74.1236 9.6871 75.694 8.10071 75.694 6.23508L75.694-9.95377ZM77.0324-75.0459C88.2937-75.0459 94.7681-64.7421 94.7681-47.2482L94.7681-22.8014L99.3993-22.8014L99.3993-47.2482C99.3993-67.6052 91.2196-79.6903 77.0324-79.6903C62.8832-79.6903 54.6656-67.6052 54.6656-47.2482L54.6656-22.8014L59.3347-22.8014L59.3347-47.2482C59.3347-64.7421 65.8091-75.0459 77.0324-75.0459Z" />
</svg>