<svg xmlns="http://www.w3.org/2000/svg" viewBox="14.9482 -107.844 162.47 145.1">
  <path d="M60.3124-77.669C67.9336-77.669 74.0621-83.8912 74.0621-91.432C74.0621-99.0532 67.9336-105.195 60.3124-105.195C52.7203-105.195 46.5494-99.0532 46.5494-91.432C46.5494-83.8912 52.7203-77.669 60.3124-77.669ZM137.665-80.293C145.248-80.293 151.428-86.5151 151.428-94.0559C151.428-101.664 145.248-107.844 137.665-107.844C130.073-107.844 123.915-101.664 123.915-94.0559C123.915-86.5151 130.073-80.293 137.665-80.293ZM22.8129-60.223L36.012-59.1907C36.808-59.1103 37.2921-58.597 37.2921-57.7206L37.2921-33.4336C37.2921-28.4322 38.9324-23.4235 41.9851-19.5507L57.6641 0.55242L49.6447 27.1221C48.4957 30.9873 50.7134 35.0805 54.4557 36.1199C58.1017 37.1753 62.1729 35.4182 63.4023 31.2445L72.1982 1.89781C72.3299 1.46491 72.4103 1.0408 72.4395 0.607902L96.1531 30.658C98.5855 33.725 103.249 34.3039 106.184 31.829C109.303 29.2517 109.873 24.8588 107.414 21.7918L63.8629-33.3676L65.8337-52.6433C65.9653-53.7052 66.9043-54.1821 67.8054-53.698L82.8542-46.2124C83.9448-45.6335 85.9008-45.173 87.5191-45.173L112.339-45.173C113.958-45.173 115.744-45.7811 116.974-46.8497L127.848-56.2681C128.698-57.0155 129.718-56.6498 130.07-55.6816L136.066-39.1204L110.421-32.0689C107.529-31.2707 105.369-28.841 105.07-25.7872L102.273 2.60905C101.812 7.30161 105.881 10.4199 109.395 10.4199C113.07 10.4199 116.175 7.70371 116.555 3.98612L118.892-18.9354L135.723-21.4927L127.411-4.82149C126.401-2.81429 125.86-0.516202 126.738 1.65903L138.807 31.8659C140.412 35.8787 144.78 37.2558 148.185 35.8787C151.78 34.4212 153.647 30.2051 152.16 26.5272L141.497-0.0689264L156.166-20.9206C160.026-26.3445 161.467-33.324 160.296-39.767L158.004-52.3872C157.783-53.6027 158.773-54.4526 160.004-54.0197L167.445-51.5239C173.06-49.6059 177.418-53.1406 176.877-58.785L173.829-89.2579C173.435-93.3358 169.789-96.1609 166.002-95.7561C162.125-95.3512 159.123-91.8331 159.517-87.7712L161.442-68.619L144.113-74.3959C136.504-76.9368 128.362-75.5245 122.042-70.105L109.704-59.4583L88.3757-59.4583L68.9468-69.1604C65.9365-70.6911 62.9351-71.5405 59.5872-71.7817L32.9598-73.8038L39.1416-92.2173C40.4382-96.0533 38.3726-100.138 34.6011-101.367C30.8747-102.567 26.7903-100.569 25.5608-96.8515L16.4349-69.6813C14.9482-65.246 18.1248-60.5739 22.8129-60.223Z"/>
</svg>