<svg xmlns="http://www.w3.org/2000/svg" viewBox="11.2588 -101.081 131.66 131.62">
  <path d="M77.0704 30.5419C113.427 30.5419 142.92 1.08726 142.92-35.2697C142.92-71.6267 113.427-101.081 77.0704-101.081C40.7514-101.081 11.2588-71.6267 11.2588-35.2697C11.2588 1.08726 40.7514 30.5419 77.0704 30.5419ZM77.0704 15.7963C48.8414 15.7963 26.0292-7.04073 26.0292-35.2697C26.0292-63.4987 48.8414-86.3357 77.0704-86.3357C105.299-86.3357 128.136-63.4987 128.136-35.2697C128.136-7.04073 105.299 15.7963 77.0704 15.7963ZM90.7677-61.0735C94.8327-61.0735 98.2049-64.4412 98.2049-68.5487C98.2049-72.6137 94.8327-76.0106 90.7677-76.0106C86.6602-76.0106 83.2925-72.6137 83.2925-68.5487C83.2925-64.4412 86.6602-61.0735 90.7677-61.0735ZM77.8714-14.4652C79.9376-14.4652 81.5884-16.1381 81.5884-18.153L81.5884-33.9751C81.5884-34.9533 81.1996-35.8892 80.5138-36.5617L72.0308-45.0182L79.5939-52.5566C80.0268-52.9762 80.5709-52.9895 81.0038-52.5566L86.3924-47.1388C86.9978-46.4018 88.0185-46.0801 88.9411-46.0801L104.763-46.0801C106.803-46.0801 108.438-47.7017 108.438-49.7547C108.438-51.7652 106.803-53.4292 104.763-53.4292L90.4603-53.4292L78.7677-65.135C77.2309-66.685 74.9952-67.6209 72.7886-67.6209L60.4102-67.6209C56.7736-67.6209 55.699-63.6114 57.9552-61.3172L63.2605-56.0366L59.0606-51.9172C56.1435-49.0805 56.1727-44.1848 59.0606-41.2969L64.8309-35.6451L64.8309-17.378C64.8309-15.3543 66.4145-13.6522 68.4542-13.6522C70.44-13.6522 72.1332-15.3543 72.1332-17.378L72.1332-34.5487L74.2481-32.4559L74.2481-18.153C74.2481-16.1381 75.8989-14.4652 77.8714-14.4652ZM38.5474-51.7922L70.9043-51.7922L70.9043-56.4234L38.5474-56.4234C37.2542-56.4234 36.2385-55.4077 36.2385-54.1144C36.2385-52.8592 37.241-51.7922 38.5474-51.7922ZM106.129-15.4193C107.426-15.4193 108.438-16.4729 108.438-17.7662L108.438-49.7909L103.807-49.7909L103.807-17.7662C103.807-16.4729 104.822-15.4193 106.129-15.4193ZM89.7852 6.80099C91.1837 6.80099 92.2622 5.69608 92.2622 4.49204C92.2622 3.15636 91.1705 2.06469 89.902 2.06469C88.1362 2.06469 87.5352 1.72259 85.777-0.035565L50.7609-35.0225C49.8168-35.8994 48.3715-35.9038 47.4567-35.0357C46.5638-34.1209 46.6063-32.6623 47.4567-31.7827L82.9899 3.76649C85.0946 5.87119 87.2499 6.80099 89.7852 6.80099ZM98.9834 4.69569C100.252 4.69569 101.344 3.63322 101.344 2.38674C101.344 1.13149 100.265 0.0265823 98.9834 0.0265823C96.8964 0.0265823 96.3025-0.31107 94.5664-2.06044L59.5635-37.0766C58.6486-37.9534 57.1741-37.9959 56.2593-37.0898C55.3664-36.1837 55.3956-34.7004 56.2593-33.8076L91.7793 1.74161C93.9044 3.86673 96.3313 4.69569 98.9834 4.69569Z" />
</svg>