<svg xmlns="http://www.w3.org/2000/svg" viewBox="15.5623 -101.69 167.89 133.09">
  <path d="M55.6499-72.3356C63.6803-72.3356 70.2648-79.0606 70.2648-86.9169C70.2648-95.0746 63.6803-101.69 55.6499-101.69C47.403-101.69 41.0217-95.0746 41.0217-86.9169C41.0217-78.9283 47.403-72.3356 55.6499-72.3356ZM27.4126-18.0367L68.9092-64.1344C64.9482-65.55 60.5373-66.2501 55.6499-66.2501C36.7061-66.2501 25.5469-57.1379 25.5469-41.922C25.5469-38.2949 25.7679-33.3287 26.3044-28.3332ZM83.7616-18.0367L84.8903-28.3332C85.456-33.3287 85.668-38.2949 85.668-41.922C85.668-49.3405 83.0538-55.2822 78.0732-59.4255L45.5581-23.242C48.9441-23.7322 52.2728-23.9035 55.6499-23.9035C64.9185-23.9035 74.2473-22.7193 83.7616-18.0367ZM39.8707 30.9852C43.9507 30.4487 46.5864 27.5293 46.0587 22.4072L43.5602-1.45096L67.668-1.45096L65.0775 22.4072C64.5118 27.5293 67.2555 30.4487 71.3779 30.9852C75.5808 31.4033 78.7662 28.8436 79.2939 23.8382L82.6346-7.37338C74.066-12.2972 64.6233-14.208 55.6499-14.208C46.5289-14.208 37.0437-12.2972 28.5616-7.37338L31.9095 23.8382C32.4372 28.8436 35.5874 31.4033 39.8707 30.9852ZM78.0732-59.4635L90.3641-73.1156C92.7596-75.7595 92.59-78.6651 90.1785-80.6177C88.049-82.4723 85.3176-82.5395 82.8549-79.8036L68.9092-64.1344C72.2824-62.9359 75.4364-61.3677 78.0732-59.4635ZM18.6603-12.8016C15.6295-10.6285 15.5623-7.47334 16.9725-5.44023C18.2676-3.47876 20.9716-2.60737 23.7323-4.42134C25.3099-5.52087 26.9079-6.49755 28.5616-7.37338L27.4126-18.0367C24.2783-16.5748 21.3924-14.9096 18.6603-12.8016ZM92.5183-12.8016C89.795-14.9096 86.8844-16.5748 83.7616-18.0367L82.6258-7.37338C84.3175-6.49755 85.8847-5.52087 87.4331-4.42134C90.1823-2.60737 92.8484-3.44077 94.2062-5.41547C95.6499-7.41059 95.6207-10.5905 92.5183-12.8016ZM116.299-42.9622L116.299-26.7006C116.299-22.0429 119.732-18.6189 124.49-18.6189L137.611-18.6189C142.282-18.6189 145.757-22.0429 145.757-26.7006L145.757-42.9622C145.757-47.6916 142.282-51.1535 137.611-51.1535L124.49-51.1535C119.732-51.1535 116.299-47.6916 116.299-42.9622ZM154.08-42.9622L154.08-26.7006C154.08-22.0429 157.52-18.6189 162.166-18.6189L175.325-18.6189C180.017-18.6189 183.449-22.0429 183.449-26.7006L183.449-42.9622C183.449-47.6916 180.017-51.1535 175.325-51.1535L162.166-51.1535C157.52-51.1535 154.08-47.6916 154.08-42.9622ZM136.788-61.2265L163.12-61.2265C165.131-61.2265 165.479-63.3443 163.959-64.3953L152.41-72.3659C150.759-73.4736 149.17-73.4736 147.557-72.3659L135.912-64.3953C134.391-63.3443 134.739-61.2265 136.788-61.2265Z"/>
</svg>