<svg xmlns="http://www.w3.org/2000/svg" viewBox="3.72984 -132.328 140.19 164.95">
  <path d="M70.2958-124.99L70.2958-91.1398C70.2958-85.9245 75.602-83.5997 79.4993-87.1214L98.6736-104.143C101.293-106.441 101.319-109.595 98.6736-111.999L79.4993-129.021C75.8036-132.328 70.2958-130.474 70.2958-124.99ZM78.9267-102.018C82.2606-102.018 85.0234-104.743 85.0234-108.115C85.0234-111.462 82.2606-114.173 78.9267-114.173L65.6766-114.173C56.4809-114.173 50.1187-111.012 44.4602-103.538L27.6197-81.2997C24.2889-76.9147 21.8691-75.813 15.1668-75.813L9.81327-75.813C6.47935-75.813 3.72984-73.1015 3.72984-69.7544C3.72984-66.3825 6.47935-63.6577 9.81327-63.6577L15.1668-63.6577C25.0438-63.6577 31.5846-66.4861 37.1874-73.8751L54.1888-96.0356C57.9216-100.919 60.0066-102.018 65.6766-102.018ZM125.78-66.75C135.833-66.75 143.92-75.0977 143.92-84.7978C143.92-94.9159 135.833-103.103 125.78-103.103C115.653-103.103 107.656-94.9159 107.656-84.7978C107.656-74.901 115.653-66.75 125.78-66.75ZM18.6685 28.8106C22.3641 32.6218 28.4822 32.3249 32.9847 27.6703L61.2887-1.59275C62.3194-2.66137 63.0796-2.84422 64.6042-2.26531L86.1475 5.83509C100.339 11.1582 114.936 5.67369 121.574-6.39697L135.009-30.8405C140.681-41.1619 138.817-51.4618 129.149-56.7481C119.724-61.9892 109.96-58.1163 104.22-47.6925L85.8368-14.2273L70.4447-19.9013C62.1601-22.9596 55.2207-21.9714 48.5809-15.1124L19.2899 15.3862C14.8678 19.9603 15.2858 25.4571 18.6685 28.8106Z"/>
</svg>