<svg xmlns="http://www.w3.org/2000/svg" viewBox="11.2588 -101.081 131.66 131.62">
  <path d="M77.0704 30.5419C113.427 30.5419 142.92 1.08726 142.92-35.2697C142.92-71.6267 113.427-101.081 77.0704-101.081C40.7514-101.081 11.2588-71.6267 11.2588-35.2697C11.2588 1.08726 40.7514 30.5419 77.0704 30.5419ZM77.0704 15.7963C48.8414 15.7963 26.0292-7.04073 26.0292-35.2697C26.0292-63.4987 48.8414-86.3357 77.0704-86.3357C105.299-86.3357 128.136-63.4987 128.136-35.2697C128.136-7.04073 105.299 15.7963 77.0704 15.7963ZM76.4021-52.5894C80.4671-52.5894 83.7351-55.9086 83.7351-59.9896C83.7351-64.0546 80.4671-67.3986 76.4021-67.3986C72.2831-67.3986 69.0063-64.0546 69.0063-59.9896C69.0063-55.9086 72.2831-52.5894 76.4021-52.5894ZM79.8083 7.47563L94.8554-2.55574C96.4638-3.60119 97.2548-5.31922 96.7722-7.1821L87.5803-43.757C87.317-44.8101 87.5511-45.4418 88.3321-45.7987L109.96-56.5961C111.877-57.5479 112.525-59.7908 111.611-61.6273C110.684-63.4257 108.497-64.1495 106.647-63.2649L59.62-39.6987L51.9637-47.2878C51.6316-47.658 51.273-47.9637 50.8763-48.2165L58.5543-61.8041L54.746-64.0124L45.1424-47.1804C44.325-45.7443 44.5812-44.1562 45.7858-42.9676L56.2132-32.5986C57.1782-31.6336 58.9475-31.1086 60.7591-32.0357L72.2253-37.79C73.0223-38.2008 73.7389-37.8571 73.8997-37.1626L77.345-23.3858L71.7648-9.63988L58.8158-9.63988C56.7469-9.63988 55.1093-8.00228 55.1093-5.91136C55.1093-3.88489 56.7469-2.20485 58.8158-2.20485L74.1553-2.20485C75.4933-2.20485 76.8092-2.84821 77.5622-4.19334L84.3139-16.5825C84.5684-17.0491 85.1154-17.0358 85.3274-16.5021L88.7875-7.35892L75.6617 1.32732C74.0241 2.40198 73.5708 4.75013 74.6967 6.46816C75.7714 8.15697 78.0523 8.60151 79.8083 7.47563ZM59.0543-60.3692C63.192-60.3692 66.4831-63.6983 66.4831-67.798C66.4831-71.9737 63.192-75.2647 59.0543-75.2647C54.8787-75.2647 51.6008-71.9737 51.6008-67.798C51.6008-63.6983 54.8787-60.3692 59.0543-60.3692ZM59.0543-64.606C57.2141-64.606 55.7996-65.9577 55.7996-67.798C55.7996-69.6471 57.2141-71.028 59.0543-71.028C60.8654-71.028 62.2551-69.6471 62.2551-67.798C62.2551-65.9577 60.8654-64.606 59.0543-64.606Z" />
</svg>