<svg xmlns="http://www.w3.org/2000/svg" viewBox="16.084 -102.158 214.09 133.87">
  <path d="M16.084-26.9208C16.084 8.2189 48.969 31.6949 98.5193 31.7081C148.137 31.6949 181.035 8.2481 181.035-26.9208C181.035-42.6426 146.612-54.4029 98.5193-54.4029C50.4934-54.4029 16.084-42.6426 16.084-26.9208ZM29.27-26.9208C29.27-33.7012 66.3659-41.8508 98.5193-41.8508C130.658-41.8508 167.82-33.7144 167.82-26.9208C167.82-20.519 132.789-12.7702 98.5193-12.7702C64.2875-12.7702 29.27-20.519 29.27-26.9208ZM33.5962-10.9104C47.1358-4.21301 72.4615 0.44504 98.5193 0.44504C124.748 0.44504 150.262-4.27142 164.473-11.4361C157.724 6.61668 132.055 18.4417 98.5193 18.4549C66.073 18.4417 41.0885 7.20074 33.5962-10.9104ZM168.145-29.9836L210.454-57.8696C230.172-70.965 210.356-102.158 185.977-83.9927L133.123-44.6619L147.733-41.0247L195.473-74.6998C202.632-79.8011 207.728-71.8489 201.982-68.1516L156.479-37.9165ZM59.9174-8.56183L131.44-8.33862C132.265-22.7093 120.899-32.9927 106.698-32.9927C98.4925-32.9927 91.0187-29.4768 86.3988-23.7419C84.3094-24.3848 82.392-24.6498 80.1258-24.6498C69.6461-24.663 60.8316-17.6094 59.9174-8.56183Z"/>
</svg>