<svg xmlns="http://www.w3.org/2000/svg" viewBox="16.084 -94.7943 119.09 119.13">
  <path d="M37.5412 24.3309L113.714 24.3309C127.667 24.3309 135.171 16.7998 135.171 2.98757L135.171-73.451C135.171-87.2633 127.667-94.7943 113.714-94.7943L37.5412-94.7943C23.6265-94.7943 16.084-87.2897 16.084-73.451L16.084 2.98757C16.084 16.8263 23.6265 24.3309 37.5412 24.3309ZM38.987 9.85111C33.4665 9.85111 30.5257 7.10309 30.5257 1.35185L30.5257-71.8153C30.5257-77.6045 33.4665-80.3145 38.987-80.3145L112.268-80.3145C117.736-80.3145 120.729-77.6045 120.729-71.8153L120.729 1.35185C120.729 7.10309 117.736 9.85111 112.268 9.85111ZM56.9985-6.49601C61.4878-6.49601 64.1158-9.37249 64.1158-14.2881L64.1158-30.6617L87.0881-30.6617L87.0881-14.2881C87.0881-9.38127 89.7134-6.49601 94.1294-6.49601C98.6054-6.49601 101.247-9.37249 101.247-14.2881L101.247-56.7918C101.247-61.7206 98.6054-64.5706 94.1294-64.5706C89.7134-64.5706 87.0881-61.7118 87.0881-56.7918L87.0881-41.4376L64.1158-41.4376L64.1158-56.7918C64.1158-61.7206 61.4878-64.5706 56.9985-64.5706C52.5825-64.5706 49.9572-61.7118 49.9572-56.7918L49.9572-14.2881C49.9572-9.38127 52.5825-6.49601 56.9985-6.49601Z" />
</svg>