<svg xmlns="http://www.w3.org/2000/svg" viewBox="17.042 -110.236 124.76 145.46">
  <path d="M75.1948 35.2217C99.4714 35.2217 115.589 21.9321 125.46-2.91543L138.185-35.0033C141.797-44.131 137.571-51.0488 131.607-53.7951C126.018-56.3326 118.884-55.18 115.078-48.3973L111.106-40.8793C110.974-40.6407 110.867-40.5091 110.655-40.5091C110.363-40.5091 110.18-40.7344 110.231-41.0374L117.795-84.5102C119.424-93.5035 115.147-100.041 107.029-101.624C98.6061-103.193 92.1693-98.9158 90.1907-89.7166L88.7181-81.2062L90.8739-80.3301L90.8739-95.5366C90.8739-104.35 85.1955-110.236 76.8411-110.236C68.2366-110.236 62.6325-104.207 62.6325-95.1538L62.6325-86.4756L65.4733-87.5284L64.5217-92.9331C62.4778-100.511 56.2029-103.839 49.2651-102.616C40.8869-101.153 36.5954-94.1925 38.1677-85.4028L39.5135-76.4513L44.1189-77.7613C41.7189-84.6836 36.3745-87.2687 30.3701-86.371C21.5045-84.9329 17.042-78.347 18.3237-68.9879L25.9201-13.6936C30.0457 16.6537 45.8502 35.2217 75.1948 35.2217ZM74.8004 22.8306C52.1084 22.8306 41.2783 9.36502 37.6936-14.7759L29.2998-70.1058C28.972-72.2221 30.1954-73.8888 32.2517-74.2298C34.2039-74.5283 35.7433-73.3379 36.2451-71.3335L45.1021-36.4697C45.9217-33.2628 48.661-32.1028 51.1871-32.6828C53.7015-33.2205 55.6052-35.4776 55.1435-38.4902L48.3187-87.28C48.0538-89.4855 49.1031-91.1132 51.2051-91.4542C53.2525-91.7819 54.8476-90.5288 55.1666-88.4637L62.8165-40.5788C63.3321-37.5618 65.9326-36.0041 68.6283-36.3958C71.5155-36.8254 73.2304-38.7951 73.2304-41.7926L73.2304-94.9233C73.2304-97.0528 74.7248-98.5604 76.8411-98.5604C78.9177-98.5604 80.3344-97.0528 80.3344-94.9233L80.3344-41.378C80.3344-38.4735 82.5828-36.2338 85.4785-36.2338C88.2955-36.2205 90.4999-37.8658 91.0376-40.6668L100.331-87.1093C100.804-89.4684 102.455-90.6033 104.498-90.2464C106.469-89.9027 107.634-88.2617 107.306-85.9785L97.3625-25.325C96.5236-20.0396 99.6632-17.4897 102.908-17.1101C105.902-16.7597 108.751-18.0458 110.674-21.7766L121.171-41.9571C122.277-44.1247 124.266-44.6889 125.882-44.0317C127.617-43.3454 128.525-41.5056 127.609-39.2356L114.44-6.8512C105.978 13.8602 93.8538 22.8306 74.8004 22.8306Z"/>
</svg>