<svg xmlns="http://www.w3.org/2000/svg" viewBox="10.5158 -101.85 134.89 128.37">
  <path d="M124.082-6.56672C137.569-21.4296 145.409-37.0614 145.409-52.8601C145.409-76.8833 128.684-93.2868 108.33-93.2868C95.6734-93.2868 86.2409-86.2748 80.7467-76.0032C75.2904-86.2368 65.82-93.2868 53.1639-93.2868C48.4943-93.2868 44.012-92.45 39.9264-90.7648ZM105.039 11.0382L20.8156-73.1049C17.8308-67.3701 16.084-60.4823 16.084-52.8601C16.084-25.955 38.8657 0.692507 73.5265 23.2854C76.0099 24.9463 78.8589 26.5196 80.7467 26.5196C82.6725 26.5196 85.4702 24.9463 87.9669 23.2854C94.0683 19.3122 99.7776 15.2367 105.039 11.0382ZM128.788 23.3727C130.737 25.2927 133.911 25.3219 135.793 23.3727C137.674 21.4235 137.728 18.3304 135.793 16.3813L19.4564-99.8876C17.5205-101.824 14.347-101.85 12.3846-99.8876C10.5158-98.0189 10.5158-94.765 12.3846-92.8962Z"/>
</svg>