<svg xmlns="http://www.w3.org/2000/svg" viewBox="16.084 -91.2768 154.55 112.2">
  <path d="M74.8878-3.65308C74.8878-1.4184 76.6372 0.368999 78.9099 0.368999C81.0641 0.368999 82.8515-1.4184 82.8515-3.65308L82.8515-15.4865C82.8515-17.6788 81.0641-19.4282 78.9099-19.4282C76.6372-19.4282 74.8878-17.6788 74.8878-15.4865ZM89.3634-3.65308C89.3634-1.4184 91.1128 0.368999 93.3855 0.368999C95.5397 0.368999 97.3271-1.4184 97.3271-3.65308L97.3271-15.4865C97.3271-17.6788 95.5397-19.4282 93.3855-19.4282C91.1128-19.4282 89.3634-17.6788 89.3634-15.4865ZM103.839-3.65308C103.839-1.4184 105.588 0.368999 107.861 0.368999C110.015 0.368999 111.803-1.4184 111.803-3.65308L111.803-15.4865C111.803-17.6788 110.015-19.4282 107.861-19.4282C105.588-19.4282 103.839-17.6788 103.839-15.4865ZM118.315-3.65308C118.315-1.4184 120.064 0.368999 122.337 0.368999C124.491 0.368999 126.278-1.4184 126.278-3.65308L126.278-15.4865C126.278-17.6788 124.491-19.4282 122.337-19.4282C120.064-19.4282 118.315-17.6788 118.315-15.4865ZM132.79-3.65308C132.79-1.4184 134.54 0.368999 136.812 0.368999C138.966 0.368999 140.754-1.4184 140.754-3.65308L140.754-15.4865C140.754-17.6788 138.966-19.4282 136.812-19.4282C134.54-19.4282 132.79-17.6788 132.79-15.4865ZM16.084-9.57254C16.084 8.04552 28.9703 20.9246 47.5205 20.9246L139.199 20.9246C157.749 20.9246 170.636 8.04552 170.636-9.57254C170.636-15.0495 169.069-19.8996 167.181-24.2908L144.911-75.068C140.343-85.5631 131.538-91.2768 119.541-91.2768L67.2751-91.2768C55.2399-91.2768 46.4348-85.5631 41.8668-75.068L19.8463-24.8164C17.8715-20.2632 16.084-15.2831 16.084-9.57254ZM29.6496-9.57254C29.6496-19.3561 36.8428-26.4908 47.5205-26.4908L139.199-26.4908C149.877-26.4908 157.083-19.3561 157.083-9.57254C157.083 0.894798 149.877 7.32101 139.199 7.32101L47.5205 7.32101C36.8428 7.32101 29.6496 0.186285 29.6496-9.57254ZM40.4289-38.8075L54.632-72.118C56.6639-76.9698 61.1109-79.5894 66.981-79.5894L119.848-79.5894C125.667-79.5894 130.152-76.9698 132.146-72.118L146.349-38.8207C144.135-39.586 141.751-40.0565 139.199-40.0565L47.5205-40.0565C44.9851-40.0565 42.6006-39.586 40.4289-38.8075Z"/>
</svg>