<svg xmlns="http://www.w3.org/2000/svg" viewBox="15.2044 -78.4009 159.88 86.26">
  <path d="M18.1731-40.3216C15.5243-37.2625 15.2044-33.055 18.1059-30.2046L37.5543-10.7562C40.4047-7.86787 44.843-7.97305 47.7225-10.8234L56.6929-19.7778L70.2048-6.31989C72.9907-3.51197 77.4714-3.53398 80.373-6.38434L92.6176-18.591C101.18-1.6414 115.407 7.86145 132.046 7.86145C155.874 7.86145 175.084-11.3709 175.084-35.2697C175.084-59.249 155.954-78.4009 132.046-78.4009C115.077-78.4009 99.8455-68.74 92.8348-53.3903L33.915-53.3903C31.5741-53.3903 28.8636-52.6538 27.1478-50.6021ZM30.1531-35.2697L36.9886-42.1476L101.732-42.1476C104.703-56.0528 117.194-66.3626 132.046-66.3626C149.156-66.3626 162.978-52.473 162.978-35.2697C162.978-18.0796 149.169-4.25727 132.046-4.25727C117.326-4.25727 104.674-14.6342 101.306-30.5735L87.3474-30.5735L75.1895-18.4607L62.7109-31.1002L50.8358-31.1002L42.6998-22.8546ZM133.624-35.2697C133.624-29.6729 138.166-25.1596 143.734-25.1596C149.292-25.1596 153.806-29.6729 153.806-35.2697C153.806-40.9045 149.322-45.3418 143.734-45.3418C138.166-45.3418 133.624-40.8665 133.624-35.2697Z"/>
</svg>