<svg xmlns="http://www.w3.org/2000/svg" viewBox="11.2588 -106.233 141.89 141.94">
  <path d="M82.2219 35.7066C121.26 35.7066 153.147 3.8198 153.147-35.2697C153.147-74.346 121.26-106.233 82.2219-106.233C43.1456-106.233 11.2588-74.346 11.2588-35.2697C11.2588 3.8198 43.1456 35.7066 82.2219 35.7066ZM82.2219 11.2965C56.4816 11.2965 35.6557-9.5294 35.6557-35.2697C35.6557-61.01 56.4816-81.8359 82.2219-81.8359C107.924-81.8359 128.75-61.01 128.75-35.2697C128.75-9.5294 107.924 11.2965 82.2219 11.2965ZM68.7834-7.19218C71.8428-7.19218 73.7641-9.20546 73.7641-12.3452L73.7349-34.3843L76.6733-34.3843L93.621-10.0599C94.7695-8.18257 96.0303-7.19218 98.1676-7.19218C101.737-7.19218 102.979-9.79101 102.979-11.6088C102.979-13.0828 102.6-14.1421 101.662-15.4411L87.047-34.3843L102.83-34.3843C103.865-34.3843 104.671-35.2044 104.671-36.2392C104.671-37.3121 103.865-38.0809 102.83-38.0809L87.2106-38.0809L101.675-56.1858C102.345-57.1663 102.765-58.2724 102.765-59.2892C102.765-61.8666 100.431-63.4986 98.1968-63.4986C96.3222-63.4986 95.0907-62.4554 94.0182-60.9565L76.8573-38.0809L73.7349-38.0809L73.7349-58.4216C73.7349-61.5481 71.8136-63.4986 68.7542-63.4986C65.6569-63.4986 63.6976-61.5481 63.6976-58.4216L63.6976-38.0809L59.1498-38.0809C58.0637-38.0809 57.3329-37.3253 57.3329-36.2392C57.3329-35.1532 58.0637-34.3843 59.1498-34.3843L63.6976-34.3843L63.7268-12.3452C63.7268-9.20546 65.6861-7.19218 68.7834-7.19218Z" />
</svg>