<svg xmlns="http://www.w3.org/2000/svg" viewBox="11.2588 -123.272 148.7 162.42">
  <path d="M159.956-35.2697C159.956-67.1422 139.821-94.3768 111.64-104.854C112.437-100.685 111.356-96.4145 108.812-93.3289C131.915-84.0466 148.201-61.6039 148.201-35.2697C148.201-0.665599 120.225 27.353 85.6073 27.353C51.0032 27.353 23.0138-0.652368 23.0138-35.2697C23.0138-61.5527 39.2615-84.0466 62.335-93.2909C59.7799-96.4145 58.6342-100.634 59.5365-104.884C31.356-94.3141 11.2588-67.075 11.2588-35.2697C11.2588 5.77431 44.5925 39.146 85.6073 39.146C126.665 39.146 159.956 5.76108 159.956-35.2697ZM101.055-104.975L89.0729-120.858C87.2619-123.272 83.9439-123.192 82.1709-120.858L70.0452-104.937C67.403-101.409 68.9288-96.9647 73.5553-96.9647L97.6797-96.9647C102.143-96.9647 103.744-101.4 101.055-104.975ZM34.6686-35.2697C34.6686-7.15975 57.5106 15.7361 85.6073 15.7361C113.717 15.7361 136.546-7.15975 136.546-35.2697C136.546-63.4176 113.717-86.2084 85.6073-86.2084C57.5106-86.2084 34.6686-63.4176 34.6686-35.2697ZM47.475-35.2697C47.475-56.3717 64.5054-73.402 85.6073-73.402C106.709-73.402 123.74-56.3717 123.74-35.2697C123.74-14.1385 106.709 2.92978 85.6073 2.92978C64.5054 2.92978 47.475-14.1385 47.475-35.2697ZM76.7775-11.9499L97.7085-11.9499C100.063-11.9499 102.025-13.7224 102.025-16.1683C102.025-18.5851 100.049-20.3955 97.7085-20.3955L81.9702-20.3955L81.9702-53.6556C81.9702-56.8043 79.8414-59.085 76.8067-59.085C73.7808-59.085 71.7659-56.7663 71.7659-53.6556L71.7659-17.4202C71.7659-14.0979 73.5312-11.9499 76.7775-11.9499Z"/>
</svg>