<svg xmlns="http://www.w3.org/2000/svg" viewBox="11.2588 -101.081 131.66 131.62">
  <path d="M77.0704 30.5419C113.427 30.5419 142.92 1.08726 142.92-35.2697C142.92-71.6267 113.427-101.081 77.0704-101.081C40.7514-101.081 11.2588-71.6267 11.2588-35.2697C11.2588 1.08726 40.7514 30.5419 77.0704 30.5419ZM77.0704 15.7963C48.8414 15.7963 26.0292-7.04073 26.0292-35.2697C26.0292-63.4987 48.8414-86.3357 77.0704-86.3357C105.299-86.3357 128.136-63.4987 128.136-35.2697C128.136-7.04073 105.299 15.7963 77.0704 15.7963ZM49.022-50.6884L105.221-50.6884C108.571-50.6884 110.938-52.8244 110.938-56.0196C110.938-59.2148 108.571-61.3801 105.221-61.3801L49.022-61.3801C45.6208-61.3801 43.254-59.2148 43.254-56.0196C43.254-52.8244 45.6208-50.6884 49.022-50.6884ZM49.022-29.9649L105.221-29.9649C108.571-29.9649 110.938-32.139 110.938-35.2962C110.938-38.4914 108.571-40.6566 105.221-40.6566L49.022-40.6566C45.6208-40.6566 43.254-38.4914 43.254-35.2962C43.254-32.139 45.6208-29.9649 49.022-29.9649ZM49.022-9.20178L105.221-9.20178C108.571-9.20178 110.938-11.3758 110.938-14.533C110.938-17.7282 108.571-19.8934 105.221-19.8934L49.022-19.8934C45.6208-19.8934 43.254-17.7282 43.254-14.533C43.254-11.3758 45.6208-9.20178 49.022-9.20178Z" />
</svg>