<svg xmlns="http://www.w3.org/2000/svg" viewBox="11.2588 -101.081 131.66 131.62">
  <path d="M77.0704 30.5419C113.427 30.5419 142.92 1.08726 142.92-35.2697C142.92-71.6267 113.427-101.081 77.0704-101.081C40.7514-101.081 11.2588-71.6267 11.2588-35.2697C11.2588 1.08726 40.7514 30.5419 77.0704 30.5419ZM77.0704 15.7963C48.8414 15.7963 26.0292-7.04073 26.0292-35.2697C26.0292-63.4987 48.8414-86.3357 77.0704-86.3357C105.299-86.3357 128.136-63.4987 128.136-35.2697C128.136-7.04073 105.299 15.7963 77.0704 15.7963ZM45.5051-38.3931L108.738-38.3931C112.104-38.3931 114.442-40.5159 114.442-43.7243C114.442-46.9107 112.104-49.0468 108.738-49.0468L45.5051-49.0468C42.1259-49.0468 39.7751-46.9107 39.7751-43.7243C39.7751-40.5159 42.1259-38.3931 45.5051-38.3931ZM53.518-17.0856L100.725-17.0856C104.062-17.0856 106.442-19.2084 106.442-22.4168C106.442-25.574 104.062-27.7392 100.725-27.7392L53.518-27.7392C50.13-27.7392 47.75-25.574 47.75-22.4168C47.75-19.2084 50.13-17.0856 53.518-17.0856Z" />
</svg>