<svg xmlns="http://www.w3.org/2000/svg" viewBox="16.084 -102.06 161.54 133.62">
  <path d="M69.9563 31.56L156.172 31.56C170.087 31.56 177.629 24.0422 177.629 10.2547L177.629-50.2635C177.629-64.0758 170.087-71.5688 156.172-71.5688L69.9563-71.5688C55.9904-71.5688 48.4991-64.1022 48.4991-50.2635L48.4991 10.2547C48.4991 24.1066 55.9904 31.56 69.9563 31.56ZM69.9563-81.1743L145.194-81.1743L145.194-81.943C144.727-95.0092 137.263-102.06 123.795-102.06L37.5412-102.06C23.5885-102.06 16.084-94.5684 16.084-80.7164L16.084-20.2362C16.084-6.60189 23.3257 0.806272 36.8988 1.0399L38.8936 1.0399L38.8936-50.2635C38.8936-69.4318 50.712-81.1743 69.9563-81.1743ZM89.6514 5.2853L89.6514-19.8513C89.6514-24.2899 91.4388-26.6293 95.0093-27.1316L95.0093-34.2434C95.0093-46.2868 102.299-54.3479 113.077-54.3479C123.859-54.3479 131.148-46.2868 131.148-34.2434L131.148-27.1024C134.69-26.6293 136.464-24.2899 136.464-19.8513L136.464 5.2853C136.464 10.4599 134.158 12.7993 129.419 12.7993L96.7385 12.7993C91.9572 12.7993 89.6514 10.4599 89.6514 5.2853ZM103.506-27.3448L122.623-27.3448L122.623-34.8161C122.623-41.6009 118.837-46.0619 113.047-46.0619C107.3-46.0619 103.506-41.5717 103.506-34.8161Z"/>
</svg>