<svg xmlns="http://www.w3.org/2000/svg" viewBox="16.084 -94.7651 149.77 119.13">
  <path d="M37.5412 24.3601L144.394 24.3601C158.347 24.3601 165.852 16.829 165.852 3.01678L165.852-73.4218C165.852-87.2341 158.347-94.7651 144.394-94.7651L37.5412-94.7651C23.6265-94.7651 16.084-87.2605 16.084-73.4218L16.084 3.01678C16.084 16.8555 23.6265 24.3601 37.5412 24.3601ZM38.987 9.88032C33.4665 9.88032 30.5257 7.1323 30.5257 1.38106L30.5257-71.7861C30.5257-77.5753 33.4665-80.2853 38.987-80.2853L142.949-80.2853C148.416-80.2853 151.41-77.5753 151.41-71.7861L151.41 1.38106C151.41 7.1323 148.416 9.88032 142.949 9.88032ZM67.619-28.8049L114.355-28.8049C118.206-28.8049 120.973-31.3266 120.973-35.1089C120.973-38.9555 118.295-41.5152 114.355-41.5152L67.619-41.5152C63.7167-41.5152 60.9628-38.9555 60.9628-35.1089C60.9628-31.3266 63.8059-28.8049 67.619-28.8049Z" />
</svg>