<svg xmlns="http://www.w3.org/2000/svg" viewBox="16.084 -94.7943 119.09 119.13">
  <path d="M37.5412 24.3309L113.714 24.3309C127.667 24.3309 135.171 16.7998 135.171 2.98757L135.171-73.451C135.171-87.2633 127.667-94.7943 113.714-94.7943L37.5412-94.7943C23.6265-94.7943 16.084-87.2897 16.084-73.451L16.084 2.98757C16.084 16.8263 23.6265 24.3309 37.5412 24.3309ZM51.5754-28.4281C47.5024-28.4281 44.5716-31.1046 44.5716-35.1089C44.5716-39.1775 47.4132-41.892 51.5754-41.892L100.315-41.892C104.477-41.892 107.306-39.1775 107.306-35.1089C107.306-31.1046 104.388-28.4281 100.315-28.4281Z" />
</svg>