<svg xmlns="http://www.w3.org/2000/svg" viewBox="13.0266 -115.544 130.66 150.34">
  <path d="M71.8129 34.7922C95.8273 34.7922 116.222 20.4443 125.246 0.447424C127.978-5.49185 123.913-8.91815 118.95-6.86551C114.265-4.92309 107.127-3.3827 100.722-3.3827C69.407-3.3827 51.6271-21.1493 51.6271-52.5027C51.6271-58.7418 53.1739-65.8606 55.502-71.2526C57.9356-76.7746 53.9068-80.5596 48.2154-78.0075C28.2238-69.328 13.0266-48.7603 13.0266-23.9941C13.0266 8.46251 39.3475 34.7922 71.8129 34.7922ZM71.8129 21.8344C46.5232 21.8344 25.9465 1.28236 25.9465-23.9941C25.9465-36.7593 31.7401-47.5414 39.3966-54.7958C39.0472-52.8682 38.824-51.2033 38.8532-49.1736C40.0506-13.794 61.8472 8.11501 97.1304 9.39995C98.9889 9.42916 100.733 9.24838 102.225 9.04115C94.7338 16.7782 83.991 21.8344 71.8129 21.8344ZM109.164-87.6768L95.3532-87.6768L95.3532-87.9985L110.403-106.959C111.824-108.776 112.39-109.883 112.39-111.475C112.39-113.917 110.566-115.544 108.003-115.544L87.3491-115.544C84.7717-115.544 83.0973-113.982 83.0973-111.598C83.0973-109.18 84.8301-107.665 87.3491-107.665L100.506-107.665L100.506-107.343L85.5099-88.4784C84.0514-86.6487 83.5237-85.5002 83.5237-83.8824C83.5237-81.4918 85.3095-79.8553 87.8565-79.8553L109.164-79.8553C111.67-79.8553 113.441-81.3794 113.441-83.7974C113.441-86.1819 111.728-87.6768 109.164-87.6768ZM139.623-62.7847L130.544-62.7847L130.544-63.0684L140.759-75.6679C142.103-77.2669 142.669-78.4621 142.669-80.0244C142.669-82.3186 140.913-83.8499 138.462-83.8499L123.262-83.8499C120.848-83.8499 119.203-82.4426 119.203-80.2641C119.203-77.9877 120.877-76.5892 123.262-76.5892L131.682-76.5892L131.682-76.3055L121.694-63.9483C120.282-62.313 119.667-61.0009 119.667-59.3919C119.667-57.1604 121.356-55.5823 123.769-55.5823L139.623-55.5823C142.045-55.5823 143.682-56.9517 143.682-59.1901C143.682-61.3774 142.075-62.7847 139.623-62.7847ZM110.856-40.9471L103.112-40.9471L103.112-41.2308L111.866-52.0025C113.148-53.5431 113.66-54.604 113.66-56.0406C113.66-58.164 112.02-59.5698 109.762-59.5698L95.8819-59.5698C93.6142-59.5698 92.1617-58.2296 92.1617-56.1343C92.1617-54.0347 93.6726-52.7034 95.8819-52.7034L102.975-52.7034L102.975-52.4197L94.4603-41.8479C93.0574-40.1861 92.5969-39.1517 92.5677-37.6099C92.5385-35.5536 94.0643-34.1099 96.3221-34.1099L110.856-34.1099C113.094-34.1099 114.567-35.4792 114.567-37.5409C114.567-39.6362 113.153-40.9471 110.856-40.9471Z"/>
</svg>