<svg xmlns="http://www.w3.org/2000/svg" viewBox="11.2588 -101.081 131.66 131.62">
  <path d="M77.0704 30.5419C113.427 30.5419 142.92 1.08726 142.92-35.2697C142.92-71.6267 113.427-101.081 77.0704-101.081C40.7514-101.081 11.2588-71.6267 11.2588-35.2697C11.2588 1.08726 40.7514 30.5419 77.0704 30.5419ZM77.0704 15.7963C48.8414 15.7963 26.0292-7.04073 26.0292-35.2697C26.0292-63.4987 48.8414-86.3357 77.0704-86.3357C105.299-86.3357 128.136-63.4987 128.136-35.2697C128.136-7.04073 105.299 15.7963 77.0704 15.7963ZM55.6134-32.0552L100.326-32.0552C101.264-33.159 101.941-34.3642 102.55-35.6868C103.217-37.2869 103.107-38.7191 102.257-39.5915C101.478-40.3032 100.184-40.4349 98.7594-39.8488C96.5683-38.8997 93.8087-38.4447 90.6855-38.4447C77.7785-38.4447 69.6815-46.2994 69.6815-58.8969C69.6815-62.1103 70.2417-65.5307 71.3153-67.7992C72.0446-69.3119 71.9262-70.6068 71.2304-71.4969C70.4163-72.4162 68.9605-72.5886 67.2915-71.8576C57.6952-67.8689 51.1928-58.0342 51.1928-46.7959C51.1928-41.2374 52.7986-36.2105 55.6134-32.0552ZM46.9946-22.3995L109.158-22.3995C110.567-22.3995 111.693-23.5115 111.693-24.9586C111.693-26.3676 110.567-27.4797 109.158-27.4797L46.9946-27.4797C45.5609-27.4797 44.4603-26.3543 44.4603-24.9586C44.4603-23.5115 45.5609-22.3995 46.9946-22.3995ZM44.9443-13.1792L107.108-13.1792C108.555-13.1792 109.642-14.278 109.642-15.6871C109.642-17.1341 108.555-18.2462 107.108-18.2462L44.9443-18.2462C43.5485-18.2462 42.41-17.1208 42.41-15.6871C42.41-14.278 43.5485-13.1792 44.9443-13.1792ZM46.9946-3.94566L109.158-3.94566C110.567-3.94566 111.693-5.01977 111.693-6.46678C111.693-7.90055 110.567-8.97466 109.158-8.97466L46.9946-8.97466C45.5609-8.97466 44.4603-7.88732 44.4603-6.46678C44.4603-5.01977 45.5609-3.94566 46.9946-3.94566Z" />
</svg>