<svg xmlns="http://www.w3.org/2000/svg" viewBox="16.084 -94.7943 119.09 119.13">
  <path d="M37.5412 24.3309L113.714 24.3309C127.667 24.3309 135.171 16.7998 135.171 2.98757L135.171-73.451C135.171-87.2633 127.667-94.7943 113.714-94.7943L37.5412-94.7943C23.6265-94.7943 16.084-87.2897 16.084-73.451L16.084 2.98757C16.084 16.8263 23.6265 24.3309 37.5412 24.3309ZM38.987 9.85111C33.4665 9.85111 30.5257 7.10309 30.5257 1.35185L30.5257-71.8153C30.5257-77.6045 33.4665-80.3145 38.987-80.3145L112.268-80.3145C117.736-80.3145 120.729-77.6045 120.729-71.8153L120.729 1.35185C120.729 7.10309 117.736 9.85111 112.268 9.85111ZM55.0979-11.2113C57.6053-11.2113 59.3381-12.9954 59.3381-15.6211L59.3381-24.0651L62.5389-27.1712L71.5626-13.8145C72.5007-12.2353 73.7163-11.2113 75.6228-11.2113C77.8277-11.2113 79.7154-12.8053 79.7154-14.9138C79.7154-16.2783 79.2698-17.1127 78.6005-18.1136L68.8172-32.1378L77.9732-41.6751C79.0281-42.8191 79.5453-43.6504 79.5453-44.8704C79.5453-46.9349 77.938-48.5889 75.7843-48.5889C74.4695-48.5889 73.2203-47.8702 72.3582-46.8693L59.5254-32.7183L59.3381-32.7183L59.3381-57.9087C59.3381-60.5344 57.6053-62.3813 55.0979-62.3813C52.633-62.3813 50.8242-60.5592 50.8242-57.9467L50.8242-15.6211C50.8242-12.9954 52.633-11.2113 55.0979-11.2113ZM90.447-11.2113C92.5629-11.2113 94.4388-12.6782 94.4388-15.6211L94.4388-32.5084C94.4388-36.5426 95.7982-40.4446 100.451-40.503C101.83-40.503 103.367-40.6985 104.393-41.4784C105.327-42.0656 105.868-43.0505 105.868-44.4226C105.868-46.9949 104.118-48.5889 101.604-48.5889C97.6874-48.5889 95.308-45.1336 94.5429-41.1952L94.1232-41.1952L94.1232-44.3152C94.1232-46.8385 92.5407-48.5889 90.2994-48.5889C87.9777-48.5889 86.3661-46.8385 86.3661-44.3152L86.3661-15.6211C86.3661-12.9821 87.9514-11.2113 90.447-11.2113Z" />
</svg>