<svg xmlns="http://www.w3.org/2000/svg" viewBox="11.2588 -101.081 131.66 131.62">
  <path d="M77.0704 30.5419C113.401 30.5419 142.92 1.02282 142.92-35.2697C142.92-71.5622 113.401-101.081 77.0704-101.081C40.7779-101.081 11.2588-71.5622 11.2588-35.2697C11.2588 1.02282 40.7779 30.5419 77.0704 30.5419ZM43.6579-39.9953C43.6579-46.3473 47.1197-51.3035 51.5428-51.3035C55.9951-51.3035 59.4905-46.3473 59.4905-39.9953C59.4905-33.6273 55.9951-28.6843 51.5428-28.6843C47.1197-28.6843 43.6579-33.6273 43.6579-39.9953ZM58.9504-58.2385C58.9504-64.5818 62.3919-69.4867 66.8442-69.4867C71.2965-69.4867 74.7963-64.5685 74.7963-58.2385C74.7963-51.8865 71.2965-46.8923 66.8442-46.8923C62.4211-46.8923 58.9504-51.8865 58.9504-58.2385ZM79.333-58.2385C79.333-64.5685 82.8328-69.4867 87.2851-69.4867C91.7374-69.4867 95.1788-64.5818 95.1788-58.2385C95.1788-51.8865 91.7082-46.8923 87.2851-46.8923C82.8328-46.8923 79.333-51.8865 79.333-58.2385ZM94.6388-39.9953C94.6388-46.3473 98.1342-51.3035 102.586-51.3035C107.01-51.3035 110.471-46.3473 110.471-39.9953C110.471-33.6273 107.01-28.6843 102.586-28.6843C98.1342-28.6843 94.6388-33.6273 94.6388-39.9953ZM53.336-15.7931C53.336-21.265 56.6922-24.1034 59.763-26.62C61.4154-27.942 63.0281-29.2463 64.1539-30.9862C65.0032-32.2596 65.7093-33.669 66.4578-35.1838C68.607-39.9416 70.4821-44.6728 77.0456-44.6728C83.6207-44.6728 85.509-39.9548 87.6714-35.1838C88.4067-33.6558 89.1261-32.1951 89.9886-30.9465C91.1011-29.2331 92.7138-27.942 94.353-26.62C97.4238-24.1034 100.78-21.265 100.78-15.7931C100.78-9.25949 96.3729-4.58531 89.9119-4.58531C86.758-4.58531 84.455-5.41597 82.3377-6.17499C80.6208-6.78641 79.0153-7.27941 77.0456-7.27941C75.1007-7.27941 73.4952-6.78641 71.7783-6.17499C69.6611-5.41597 67.3581-4.58531 64.2174-4.58531C57.7432-4.58531 53.336-9.25949 53.336-15.7931Z"/>
</svg>