<svg xmlns="http://www.w3.org/2000/svg" viewBox="16.084 -106.786 147.94 143.03">
  <path d="M26.3657 27.8938L154.569 27.8938L154.569 18.6254C154.569 15.7635 152.815 14.0395 149.932 14.0395L146.728 14.0395L146.728-60.1009L152.044-60.1009C156.223-60.1009 158.659-63.1805 158.659-66.2705C158.659-68.5304 157.369-70.5904 154.691-72.2048L98.9245-104.356C96.2817-105.905 93.278-106.786 90.4672-106.786C87.6184-106.786 84.6015-105.905 81.9587-104.356L26.1917-72.2048C23.4889-70.5904 22.237-68.5304 22.237-66.2705C22.237-63.1805 24.6605-60.1009 28.8521-60.1009L34.2061-60.1009L34.2061 14.0395L31.0028 14.0395C28.1189 14.0395 26.3657 15.7635 26.3657 18.6254ZM22.2827 36.2469L157.796 36.2469C161.133 36.2469 164.024 33.4726 164.024 30.0102C164.024 26.631 161.133 23.8114 157.796 23.8114L22.2827 23.8114C18.9327 23.8114 16.084 26.631 16.084 30.0102C16.084 33.4434 18.9327 36.2469 22.2827 36.2469ZM77.486 0.537402C74.1667 0.537402 72.171-1.50953 72.171-4.84482L72.171-36.267L68.2547-36.267C67.1395-36.267 66.2522-37.1162 66.2522-38.1935C66.2522-39.2504 67.1395-40.0864 68.2547-40.0864L72.171-40.0864L72.171-52.0904C72.171-55.6274 74.1915-57.6991 77.7284-57.6991L93.8012-57.6991C104.782-57.6991 112.24-50.6021 113.12-40.0864L116.578-40.0864C117.732-40.0864 118.568-39.2504 118.568-38.1935C118.568-37.1542 117.732-36.267 116.578-36.267L113.171-36.267C112.411-25.418 104.756-17.9527 93.2872-17.9527L82.7719-17.9527L82.7719-4.84482C82.7719-1.50953 80.7249 0.537402 77.486 0.537402ZM82.7719-25.8939L90.9-25.8939C97.644-25.8939 101.753-29.693 102.349-36.267L82.7719-36.267ZM82.7719-40.0864L102.298-40.0864C101.523-46.2628 97.3252-49.5871 91.0344-49.5871L82.7719-49.5871Z"/>
</svg>