<svg xmlns="http://www.w3.org/2000/svg" viewBox="11.054 -81.1587 174.49 91.71">
  <path d="M60.7288-81.1587C51.6034-81.1587 46.1015-77.2134 39.4739-70.419L18.1537-48.0567C11.054-40.7929 11.1372-30.2725 18.1272-22.9123L39.3775-0.2548C45.4967 6.1277 52.1789 10.5521 60.7288 10.5521L135.829 10.5521C144.379 10.5521 151.061 6.1277 157.218-0.2548L178.43-22.9123C185.45-30.3017 185.542-40.7929 178.404-48.0567L157.122-70.419C150.456-77.2134 144.954-81.1587 135.829-81.1587ZM56.8032-46.8557C63.2-46.8557 68.5089-41.614 68.5089-35.188C68.5089-28.7913 63.2-23.4824 56.8032-23.4824C50.3773-23.4824 45.1356-28.7913 45.1356-35.188C45.1356-41.614 50.3773-46.8557 56.8032-46.8557ZM98.3424-36.7183C104.768-36.7183 110.01-31.4095 110.01-25.0127C110.01-18.5868 104.768-13.3451 98.3424-13.3451C91.9164-13.3451 86.6747-18.5868 86.6747-25.0127C86.6747-31.4095 91.9164-36.7183 98.3424-36.7183ZM139.83-46.8557C146.256-46.8557 151.498-41.614 151.498-35.188C151.498-28.7913 146.256-23.4824 139.83-23.4824C133.434-23.4824 128.125-28.7913 128.125-35.188C128.125-41.614 133.434-46.8557 139.83-46.8557Z"/>
</svg>