<svg xmlns="http://www.w3.org/2000/svg" viewBox="16.084 -94.7386 123.42 119.13">
  <path d="M37.5412 24.3865L118.058 24.3865C132.011 24.3865 139.503 16.8555 139.503 3.04324L139.503-73.3953C139.503-87.2076 132.011-94.7386 118.058-94.7386L37.5412-94.7386C23.6265-94.7386 16.084-87.2341 16.084-73.3953L16.084 3.04324C16.084 16.882 23.6265 24.3865 37.5412 24.3865ZM38.987 9.90678C33.4665 9.90678 30.5257 7.19674 30.5257 1.40752L30.5257-71.7596C30.5257-77.5109 33.4665-80.2589 38.987-80.2589L116.613-80.2589C122.067-80.2589 125.074-77.5109 125.074-71.7596L125.074 1.40752C125.074 7.19674 122.067 9.90678 116.613 9.90678ZM75.4514-4.20007L80.1556-4.20007C82.8536-4.20007 84.6835-6.01679 84.6835-8.69006L84.6835-26.397C84.6835-29.0791 82.8244-30.925 80.1556-30.925L75.4514-30.925C72.8337-30.925 70.9746-29.0791 70.9746-26.397L70.9746-8.69006C70.9746-6.03002 72.7913-4.20007 75.4514-4.20007ZM46.3508-40.8654L49.6675-37.5354C51.6026-35.6003 54.1415-35.6295 56.0766-37.5354L69.5774-50.9937C71.4834-52.8705 71.4409-55.497 69.535-57.4029L66.205-60.7329C64.3371-62.6008 61.7503-62.63 59.8603-60.7241L46.3887-47.2365C44.4961-45.3279 44.4536-42.7625 46.3508-40.8654ZM105.919-37.5486L109.262-40.8786C111.146-42.7625 111.117-45.3014 109.211-47.2365L95.7526-60.7373C93.8891-62.6432 91.2626-62.614 89.3947-60.7461L86.0515-57.4029C84.1456-55.497 84.1164-52.8837 86.0223-51.007L99.5098-37.5486C101.445-35.6427 103.971-35.6003 105.919-37.5486Z"/>
</svg>