<svg xmlns="http://www.w3.org/2000/svg" viewBox="16.084 -109.802 92.54 149.12">
  <path d="M54.4757 39.3211L70.2178 39.3211C78.3579 39.3211 82.602 34.9541 82.602 26.7627L82.602 4.18283C82.602-3.02928 85.5143-6.68842 91.52-11.3034C102.443-19.8452 108.623-32.5347 108.623-46.1498L108.623-63.7308C108.623-69.8454 105.066-73.3931 98.994-73.4311L91.1798-73.4691L91.1798-100.887C91.1798-105.822 87.2018-109.802 82.2941-109.802C77.3908-109.802 73.3864-105.822 73.3864-100.887L73.3864-73.4691L51.3797-73.4691L51.3797-100.887C51.3797-105.822 47.4265-109.802 42.5745-109.802C37.642-109.802 33.6376-105.822 33.6376-100.887L33.6376-73.4691L25.6465-73.4311C19.5381-73.3931 16.084-69.8454 16.084-63.7308L16.084-46.1498C16.084-32.5347 22.2518-19.8452 33.1999-11.3034C39.2189-6.68842 42.1047-3.02928 42.1047 4.18283L42.1047 26.7627C42.1047 34.9541 46.3108 39.3211 54.4757 39.3211Z"/>
</svg>