<svg xmlns="http://www.w3.org/2000/svg" viewBox="16.084 -102.06 161.54 133.62">
  <path d="M69.9563 31.56L156.172 31.56C170.087 31.56 177.629 24.0422 177.629 10.2547L177.629-50.2635C177.629-64.0758 170.087-71.5688 156.172-71.5688L69.9563-71.5688C55.9904-71.5688 48.4991-64.1022 48.4991-50.2635L48.4991 10.2547C48.4991 24.1066 55.9904 31.56 69.9563 31.56ZM69.9563-81.1743L145.194-81.1743L145.194-81.943C144.727-95.0092 137.263-102.06 123.795-102.06L37.5412-102.06C23.5885-102.06 16.084-94.5684 16.084-80.7164L16.084-20.2362C16.084-6.60189 23.3257 0.806272 36.8988 1.0399L38.8936 1.0399L38.8936-50.2635C38.8936-69.4318 50.712-81.1743 69.9563-81.1743Z"/>
</svg>