<svg xmlns="http://www.w3.org/2000/svg" viewBox="16.084 -94.7943 119.09 119.13">
  <path d="M37.5412 24.3309L113.714 24.3309C127.667 24.3309 135.171 16.7998 135.171 2.98757L135.171-73.451C135.171-87.2633 127.667-94.7943 113.714-94.7943L37.5412-94.7943C23.6265-94.7943 16.084-87.2897 16.084-73.451L16.084 2.98757C16.084 16.8263 23.6265 24.3309 37.5412 24.3309ZM51.5798-6.56097C48.8521-6.56097 47.2872-8.20465 47.2872-11.1119L47.2872-56.6133C47.2872-61.2939 49.7505-63.5323 54.4019-63.5323L71.8787-63.5323C83.1705-63.5323 88.1204-58.622 88.1204-47.0713L88.1204-27.8696C88.1204-25.1782 86.4972-23.4206 84.0003-23.4206C81.4478-23.4206 79.8626-25.1782 79.8626-27.8696L79.8626-45.0464C79.8626-52.9357 76.969-54.776 69.7174-54.776L55.8372-54.776L55.8372-11.1119C55.8372-8.26306 54.2723-6.56097 51.5798-6.56097ZM69.8389-6.9674C66.2403-6.9674 63.7275-8.85828 63.7275-12.8292L63.7275-42.4362C63.7275-45.186 65.2048-46.9932 67.8768-46.9932C70.5374-46.9932 71.9854-45.186 71.9854-42.4362L71.9854-15.7529L86.5341-15.7529C94.3721-15.7529 96.002-17.9426 96.002-25.7806L96.002-59.3118C96.002-62.1827 97.6545-63.952 100.281-63.952C102.879-63.952 104.552-62.1827 104.552-59.3118L104.552-24.2897C104.552-12.8383 99.9011-6.9674 88.4205-6.9674Z"/>
</svg>