<svg xmlns="http://www.w3.org/2000/svg" viewBox="16.084 -98.2632 107.9 128.85">
  <path d="M16.084-22.4064C16.084 0.253599 28.9092 9.65989 65.3906 29.1882C67.0115 30.0419 68.7951 30.589 70.0352 30.589C71.2753 30.589 73.0589 30.0419 74.6799 29.1882C111.201 9.77726 123.986 0.253599 123.986-22.4064L123.986-69.2907C123.986-77.8495 121.088-81.1686 113.666-84.3114C106.836-87.1543 84.6321-94.7448 78.0813-96.9477C75.5588-97.7442 72.562-98.2632 70.0352-98.2632C67.5084-98.2632 64.4736-97.6391 61.9891-96.9477C55.4515-95.025 33.234-87.1164 26.3912-84.3114C18.9822-81.2198 16.084-77.8495 16.084-69.2907ZM70.7393 15.6664L70.7393-84.788C71.7173-84.75 72.6739-84.4574 74.3506-83.9339C81.2317-81.3049 99.1084-75.0125 107.968-71.7469C109.923-70.9888 110.459-69.8914 110.459-67.3547L110.459-24.5988C110.459-7.11378 101.009-2.24296 73.2814 14.492C72.1517 15.2098 71.4168 15.5524 70.7393 15.6664Z"/>
</svg>