<svg xmlns="http://www.w3.org/2000/svg" viewBox="11.2588 -101.081 131.66 131.62">
  <path d="M77.0704 30.5419C113.401 30.5419 142.92 1.02282 142.92-35.2697C142.92-71.5622 113.401-101.081 77.0704-101.081C40.7779-101.081 11.2588-71.5622 11.2588-35.2697C11.2588 1.02282 40.7779 30.5419 77.0704 30.5419ZM79.5914 0.786698L79.5914-33.4416L110.784-50.8246C110.925-50.237 110.963-49.6566 110.963-48.9429L110.963-21.8468C110.963-17.4446 109.398-15.5239 106.176-13.6617L80.7913 0.314555C80.4128 0.495815 80.0211 0.728292 79.5914 0.786698ZM74.529 0.786698C74.0993 0.728292 73.7075 0.495815 73.2911 0.314555L47.9313-13.6617C44.6848-15.5239 43.1956-17.4446 43.1956-21.8468L43.1956-48.9429C43.1956-49.6566 43.1956-50.237 43.298-50.8246L74.529-33.4416ZM77.0412-37.9296L45.5529-55.332C46.0409-55.8332 46.7437-56.276 47.5931-56.7365L59.3399-63.2681L91.0172-45.6481ZM96.4493-48.5679L64.5413-66.1312L70.8636-69.6159C72.885-70.7472 74.9967-71.3129 77.0412-71.3129C79.1529-71.3129 81.2354-70.7472 83.2568-69.6159L106.527-56.7365C107.368-56.276 108.041-55.8332 108.597-55.332Z"/>
</svg>