<svg xmlns="http://www.w3.org/2000/svg" viewBox="12.8672 -104.602 183.73 137.9">
  <path d="M12.8672-26.8943C12.8672-28.6371 13.472-30.2952 15.1432-32.0203L35.1079-52.7374C36.2767-53.8929 37.4747-54.5065 39.1255-54.5065C42.3863-54.5065 44.6479-51.8697 44.6479-48.8425C44.6479-47.2253 43.9627-45.6109 42.7779-44.5181L33.8308-36.0562L21.8508-26.9075L33.8308-17.7208L42.7779-9.28365C43.9627-8.15284 44.6479-6.61444 44.6479-4.99722C44.6479-1.95852 42.3863 0.742739 39.1255 0.742739C37.4747 0.742739 36.2767 0.0911509 35.1079-1.03966L15.1432-21.7682C13.472-23.4686 12.8672-25.1514 12.8672-26.8943ZM96.8517-26.8943C96.8517-23.2363 93.8525-20.3539 90.3785-20.3539L37.94-20.3671L24.3676-20.9746C21.0996-21.1294 18.448-23.6263 18.448-26.8943C18.448-30.1375 21.0864-32.6079 24.3544-32.7759L37.94-33.4215L90.3785-33.4347C93.8525-33.4347 96.8517-30.5275 96.8517-26.8943ZM136.556 33.302C137.364 33.1677 138.215 32.7919 139.039 32.3462L187.377 5.74259C193.638 2.26099 196.595-1.52757 196.595-10.0203L196.595-61.9273C196.595-63.2391 196.506-64.3266 196.276-65.3162L136.556-32.2063ZM126.892 33.302L126.892-32.2063L67.2096-65.3162C66.98-64.3266 66.8908-63.2391 66.8908-61.9273L66.8908-10.0203C66.8908-1.52757 69.8092 2.26099 76.1088 5.74259L124.447 32.3462C125.271 32.7919 126.084 33.1677 126.892 33.302ZM131.749-40.8706L158.471-55.5972L97.8086-89.2162L75.4209-76.8179C73.8086-75.9526 72.4949-75.0977 71.4517-74.044ZM168.823-61.1913L192.076-74.044C190.982-75.0977 189.719-75.9526 188.094-76.8311L143.722-101.337C139.842-103.493 135.772-104.602 131.779-104.602C127.704-104.602 123.673-103.493 119.754-101.337L107.916-94.7288Z" />
</svg>