<svg xmlns="http://www.w3.org/2000/svg" viewBox="11.2588 -101.081 131.66 131.62">
  <path d="M77.0704 30.5419C113.427 30.5419 142.92 1.08726 142.92-35.2697C142.92-71.6267 113.427-101.081 77.0704-101.081C40.7514-101.081 11.2588-71.6267 11.2588-35.2697C11.2588 1.08726 40.7514 30.5419 77.0704 30.5419ZM77.0704 15.7963C48.8414 15.7963 26.0292-7.04073 26.0292-35.2697C26.0292-63.4987 48.8414-86.3357 77.0704-86.3357C105.299-86.3357 128.136-63.4987 128.136-35.2697C128.136-7.04073 105.299 15.7963 77.0704 15.7963ZM55.8543-28.2494L73.1967-28.2627L73.1967-9.56456L65.3424-9.56456C63.2499-9.56456 61.5067-7.8505 61.5067-5.72885C61.5067-3.63641 63.2499-1.94711 65.3424-1.94711L88.7225-1.94711C90.8149-1.94711 92.5042-3.63641 92.5042-5.72885C92.5042-7.8505 90.8149-9.56456 88.7225-9.56456L80.8009-9.56456L80.8009-28.2627L94.8238-28.2627C97.5228-28.2627 98.982-29.0624 100.739-30.7639L108.609-38.2103C112.082-41.5637 112.171-45.1122 108.571-48.5256L100.739-55.9764C98.982-57.6487 97.5228-58.4352 94.8238-58.4352L80.8009-58.4352L80.8009-64.8106C80.8009-66.941 79.1248-68.6303 77.0324-68.6303C74.8595-68.6303 73.1967-66.941 73.1967-64.8106L73.1967-58.4352L55.8543-58.4352C51.4555-58.4352 48.8649-55.9383 48.8649-51.5615L48.8649-35.1876C48.8649-30.8268 51.4555-28.2494 55.8543-28.2494Z" />
</svg>