<svg xmlns="http://www.w3.org/2000/svg" viewBox="11.2588 -101.001 131.66 131.62">
  <path d="M77.0704 30.6223C113.401 30.6223 142.92 1.10324 142.92-35.1893C142.92-71.4818 113.401-101.001 77.0704-101.001C40.7779-101.001 11.2588-71.4818 11.2588-35.1893C11.2588 1.10324 40.7779 30.6223 77.0704 30.6223ZM73.6897-7.06651C71.9739-7.06651 70.6295-7.78425 69.025-9.24986L55.8346-21.5529C55.6252-21.7242 55.3779-21.7886 55.113-21.7886L46.5329-21.7886C41.818-21.7886 39.1091-24.5428 39.1091-29.5104L39.1091-40.8302C39.1091-45.8093 41.818-48.5475 46.5329-48.5475L55.113-48.5475C55.3779-48.5475 55.6252-48.5739 55.8346-48.8037L69.025-61.0005C70.7726-62.6092 71.9652-63.3358 73.6137-63.3358C76.1552-63.3358 78.0312-61.3468 78.0312-58.8654L78.0312-11.4521C78.0312-8.97072 76.1552-7.06651 73.6897-7.06651ZM88.6843-20.6047C86.7995-21.9112 86.4211-24.0488 87.8746-26.4345C89.4286-28.7954 90.3942-31.9521 90.3942-35.2157C90.3942-38.595 89.471-41.8322 87.9143-43.9706C86.3919-46.3155 86.8127-48.6211 88.6843-49.8647C90.3968-50.9652 92.6341-50.4524 93.7478-48.9179C96.4325-45.2786 98.0145-40.3334 98.0145-35.2157C98.0145-30.0106 96.4413-25.0769 93.7478-21.5136C92.5669-19.9499 90.3676-19.4079 88.6843-20.6047ZM101.506-12.0769C99.4982-13.2562 99.2702-15.6935 100.609-17.7651C103.938-22.3964 105.703-28.7319 105.703-35.1865C105.703-41.6184 103.951-47.8012 100.635-52.6707C99.3478-54.7193 99.5626-57.0789 101.506-58.3182C103.312-59.4638 105.476-59.027 106.644-57.1901C110.956-50.8053 113.285-43.2196 113.285-35.1865C113.285-26.9217 110.84-19.3492 106.617-13.1698C105.499-11.46 103.375-10.9985 101.506-12.0769Z"/>
</svg>