<svg xmlns="http://www.w3.org/2000/svg" viewBox="16.084 -91.1702 165.39 111.76">
  <path d="M21.1959-64.2529L37.8382-64.2529C41.1968-64.2529 42.9881-66.1158 42.9881-69.3663L42.9881-85.9311C42.9881-89.3717 41.1968-91.1702 37.8382-91.1702L21.1959-91.1702C17.8753-91.1702 16.084-89.2957 16.084-85.9311L16.084-69.3663C16.084-66.1918 17.8753-64.2529 21.1959-64.2529ZM21.1959-21.8251L37.8382-21.8251C41.1968-21.8251 42.9881-23.688 42.9881-26.9386L42.9881-43.5034C42.9881-46.944 41.1968-48.7557 37.8382-48.7557L21.1959-48.7557C17.8753-48.7557 16.084-46.868 16.084-43.5034L16.084-26.9386C16.084-23.764 17.8753-21.8251 21.1959-21.8251ZM21.2091 20.5894L37.8515 20.5894C41.1968 20.5894 43.0013 18.7397 43.0013 15.4892L43.0013-1.08888C43.0013-4.51622 41.1968-6.32794 37.8515-6.32794L21.2091-6.32794C17.8885-6.32794 16.0972-4.44025 16.0972-1.08888L16.0972 15.4892C16.0972 18.6637 17.8885 20.5894 21.2091 20.5894ZM82.878 18.3024L160.605 18.3024C174.189 18.3024 181.47 10.9814 181.47-2.42413L181.47-68.1153C181.47-81.5208 174.189-88.8419 160.605-88.8419L82.878-88.8419C69.3832-88.8419 62.0127-81.5473 62.0127-68.1153L62.0127-2.42413C62.0127 11.0079 69.3832 18.3024 82.878 18.3024ZM84.3105 3.95331C79.1191 3.95331 76.3486 1.3888 76.3486-4.0846L76.3486-66.4548C76.3486-71.9282 79.1191-74.4927 84.3105-74.4927L159.172-74.4927C164.337-74.4927 167.147-71.9282 167.147-66.4548L167.147-4.0846C167.147 1.3888 164.337 3.95331 159.172 3.95331Z"/>
</svg>