<svg xmlns="http://www.w3.org/2000/svg" viewBox="16.084 -110.964 113.64 151.55">
  <path d="M37.5412 40.5852L109.372 40.5852C122.236 40.5852 129.728 33.0674 129.728 19.2552L129.728-51.753C129.728-65.5653 122.198-73.0583 108.27-73.0583L37.5412-73.0583C23.6265-73.0583 16.084-65.5918 16.084-51.753L16.084 19.2552C16.084 33.0939 23.6265 40.5852 37.5412 40.5852ZM29.9477-83.0064L114.929-83.0064C114.177-89.0434 110.9-92.6512 104.004-92.6512L40.8862-92.6512C33.9772-92.6512 30.7511-89.0434 29.9477-83.0064ZM40.4916-102.042L104.385-102.042C103.962-107.764 100.391-110.964 94.2736-110.964L50.6034-110.964C44.4993-110.964 40.9532-107.764 40.4916-102.042Z"/>
</svg>