<svg xmlns="http://www.w3.org/2000/svg" viewBox="16.084 -83.0963 110.27 95.77">
  <path d="M70.7425 12.671C93.5161 12.671 108.13 1.22134 108.13-16.1957C108.13-30.1409 99.7752-37.7517 80.9687-41.7687L69.5211-44.1494C57.7212-46.752 52.6188-50.2636 52.6188-56.5839C52.6188-64.2526 60.1861-69.5456 70.7128-69.5456C80.2582-69.5456 86.8142-65.3899 90.6744-57.7676C92.5131-55.1871 94.4575-54.0355 97.5652-54.0355C101.92-54.0355 104.808-56.7439 104.808-60.8607C104.808-62.0632 104.631-63.2316 104.273-64.3427C101.051-75.5402 87.9373-83.0963 70.6252-83.0963C50.2591-83.0963 35.3496-71.7057 35.3496-55.0608C35.3496-41.7721 43.9184-33.5289 61.4319-29.8026L73.5065-27.1896C85.9818-24.4597 90.8941-20.9334 90.8941-14.259C90.8941-6.49062 82.8466-0.850528 70.8478-0.850528C60.3033-0.850528 52.1849-5.69487 48.2977-13.3557C46.4821-16.0816 44.719-17.3358 41.7133-17.3358C37.2781-17.3358 34.4529-14.5558 34.4529-10.287C34.4529-8.9441 34.6882-7.58356 35.1382-6.11783C38.7152 5.41819 52.492 12.671 70.7425 12.671ZM20.4993-30.8402L121.926-30.8402C124.396-30.8402 126.353-32.8972 126.353-35.2246C126.353-37.5768 124.396-39.5958 121.926-39.5958L20.4993-39.5958C18.0534-39.5958 16.084-37.5768 16.084-35.2246C16.084-32.8972 18.0534-30.8402 20.4993-30.8402Z" />
</svg>