<svg xmlns="http://www.w3.org/2000/svg" viewBox="11.2588 -101.001 131.66 131.62">
  <path d="M77.0704 30.6223C113.401 30.6223 142.92 1.10324 142.92-35.1893C142.92-71.4818 113.401-101.001 77.0704-101.001C40.7779-101.001 11.2588-71.4818 11.2588-35.1893C11.2588 1.10324 40.7779 30.6223 77.0704 30.6223ZM95.6856-39.8835C95.6856-38.1125 95.3634-36.298 94.8212-34.662L59.2816-34.662C58.7014-36.298 58.4172-38.1125 58.4172-39.8835C58.4172-50.1627 66.8583-58.5526 77.0324-58.5526C87.2825-58.5526 95.6856-50.1627 95.6856-39.8835ZM42.3483-37.6025C40.0907-37.6025 38.2935-39.3705 38.2935-41.4894C38.2935-43.5818 40.0907-45.3631 42.3483-45.3631L49.7827-45.3631C52.1367-45.3631 53.9515-43.6198 53.9515-41.4894C53.9515-39.3193 52.1499-37.6025 49.7827-37.6025ZM55.108-56.3093L49.806-61.5821C48.1256-63.2201 48.1548-65.6441 49.6029-67.2061C51.1269-68.6922 53.5438-68.8343 55.1817-67.1406L60.5597-61.7715C62.1465-60.1847 62.2374-57.7211 60.7029-56.1414C59.1496-54.6041 56.724-54.7517 55.108-56.3093ZM80.9149-68.5399C80.9149-66.3512 79.1981-64.4091 77.0324-64.4091C74.8887-64.4091 73.1587-66.3247 73.1587-68.5399L73.1587-76.0035C73.1587-78.3415 74.9135-80.0963 77.0324-80.0963C79.1601-80.0963 80.9149-78.3415 80.9149-76.0035ZM93.4379-56.1414C91.8654-57.7211 91.9183-60.1467 93.5431-61.7715L98.8831-67.1406C100.483-68.7963 102.976-68.7681 104.5-67.2061C105.948-65.6441 105.939-63.2201 104.297-61.5821L99.0327-56.3093C97.3788-54.7138 94.9911-54.6421 93.4379-56.1414ZM104.32-37.6025C102.051-37.6025 100.151-39.3325 100.151-41.4894C100.151-43.6198 102.025-45.3631 104.32-45.3631L111.754-45.3631C114.055-45.3631 115.809-43.5951 115.809-41.4894C115.809-39.3573 114.055-37.6025 111.754-37.6025ZM42.69-21.263C40.3215-21.263 38.2935-23.2719 38.2935-25.5748C38.2935-27.8804 40.2251-29.8645 42.69-29.8645L111.413-29.8645C113.891-29.8645 115.809-27.9229 115.809-25.5748C115.809-23.2427 113.853-21.263 111.413-21.263ZM56.5598-3.27481C55.6742-1.76951 53.8445-1.32668 52.3904-2.12313C50.8983-3.00879 50.3751-4.8765 51.2607-6.33937L55.5919-13.779C56.4104-15.2843 58.2401-15.7651 59.7482-14.9307C61.2535-14.045 61.7095-12.1773 60.8619-10.7904ZM65.4256 6.01944C64.6203 7.42835 62.7614 7.96757 61.3365 7.13313C59.764 6.28545 59.308 4.38854 60.1264 2.91244L69.7762-13.7206C70.6194-15.2055 72.4783-15.7067 73.8944-14.8722C75.4377-13.9866 75.8646-12.1277 75.0461-10.732ZM84.8771-3.27481C84.0295-1.76951 82.1997-1.32668 80.7501-2.12313C79.2156-3.00879 78.7595-4.8765 79.6452-6.33937L83.9472-13.779C84.7949-15.2843 86.6246-15.7651 88.1079-14.9307C89.6088-14.045 90.094-12.1773 89.2084-10.7904ZM93.7941 6.01944C92.9668 7.42835 91.1079 7.96757 89.6538 7.13313C88.1193 6.28545 87.6925 4.38854 88.5109 2.91244L98.1315-13.7206C98.912-15.2055 100.796-15.7067 102.279-14.8722C103.793-13.9866 104.211-12.1277 103.431-10.732Z"/>
</svg>