<svg xmlns="http://www.w3.org/2000/svg" viewBox="11.2588 -70.6304 204.85 70.71">
  <path d="M113.676-43.709C115.567-43.709 117.159-42.6393 118.033-40.6447L124.604-25.9573C132.887-7.38639 147.845 0.0777681 163.998 0.0777681C187.617 0.0777681 203.51-14.6661 208.393-41.3319L209.761-49.107C211.126-56.9115 216.107-59.7225 216.107-64.2267C216.107-67.9611 213.407-70.6304 208.139-70.6304C187.527-70.6304 168.397-69.607 157.221-67.9534C134.511-64.557 124.707-58.5304 113.676-58.5304C102.683-58.5304 92.8414-64.557 70.1444-67.9534C59.0068-69.607 39.8249-70.6304 19.2642-70.6304C13.9835-70.6304 11.2588-67.9611 11.2588-64.2267C11.2588-59.7225 16.2397-56.9115 17.6426-49.107L18.9976-41.3319C23.8798-14.6661 39.7483 0.0777681 63.4051 0.0777681C79.5448 0.0777681 94.4787-7.38639 102.762-25.9573L109.32-40.6447C110.244-42.6393 111.798-43.709 113.676-43.709ZM63.4855-12.3487C43.4137-12.3487 31.3129-26.6366 31.3129-46.9251C31.3129-53.5192 36.6024-56.5976 50.0289-56.5976C78.9786-56.5976 92.3659-51.3223 92.3659-41.131C92.3659-24.8447 81.2368-12.3487 63.4855-12.3487ZM163.918-12.3487C146.153-12.3487 135-24.8447 135-41.131C135-51.3223 148.387-56.5976 177.323-56.5976C190.801-56.5976 196.077-53.5192 196.077-46.9251C196.077-26.6366 183.952-12.3487 163.918-12.3487Z"/>
</svg>