<svg xmlns="http://www.w3.org/2000/svg" viewBox="15.1096 -117.719 214.19 164.91">
  <path d="M37.7073-86.3081L51.1247-109.443C53.6204-113.795 50.092-117.719 45.647-116.85L25.2985-113.031C22.0906-112.431 20.6524-109.921 21.721-106.874L28.6058-87.3673C30.0936-83.0292 35.2-81.97 37.7073-86.3081ZM17.0292-58.6201C15.1096-55.2061 16.2476-50.952 19.4732-49.1128L183.04 45.3158C186.239 47.193 190.518 46.0974 192.387 42.831C194.306 39.4153 193.155 35.1745 189.956 33.2973L26.3756-61.1313C23.1764-62.9573 18.8976-61.8617 17.0292-58.6201ZM60.3695-65.1272L75.1656-56.5509L80.7724-66.2218L67.2335-74.0328C64.6875-75.5311 64.1389-78.0588 65.7776-80.9104L69.1986-86.8646C73.3-93.9806 79.9386-95.2095 91.1385-90.5016L110.442-82.3242L136.373-83.222C149.17-83.6753 155.281-81.8533 171.783-72.3341L206.727-52.163C213.966-47.9631 216.687-44.0017 217.258-37.2906L217.634-33.3412C218.036-28.2252 216.957-23.0797 214.721-19.2184L204.141-0.914323C202.383 2.12666 200.331 2.82009 197.503 1.20339L187.254-4.74954L181.669 4.92129L193.636 11.8191C201.519 16.3869 208.292 14.2823 213.188 5.81514L224.392-13.6116C227.656-19.2828 229.304-27.0377 228.758-34.2484L228.437-38.2518C227.621-48.8719 222.855-55.7496 212.32-61.8339L177.368-82.0137C159.237-92.4941 150.817-94.9926 135.974-94.4297L112.512-93.5742L95.4889-100.79C78.9574-107.815 66.8195-105.094 59.5146-92.4202L55.248-85.0217C50.5472-76.8727 52.6574-69.5591 60.3695-65.1272ZM92.859-46.322L162.552-6.09022L168.137-15.7611L98.4818-55.9928ZM78.2953-41.5501C87.2814-36.3372 98.6135-39.3865 103.81-48.4106C109.015-57.4127 106.003-68.758 96.9792-73.971C88.0063-79.1592 76.661-76.1098 71.448-67.0945C66.2598-58.0704 69.242-46.7763 78.2953-41.5501ZM83.5137-50.5917C79.5267-52.8683 78.229-57.7564 80.5056-61.7301C82.8113-65.679 87.7127-67.006 91.6864-64.7382C95.6309-62.4616 96.971-57.5311 94.652-53.5574C92.3754-49.5837 87.4582-48.3019 83.5137-50.5917ZM165.819 8.9689C174.843 14.1819 186.188 11.1325 191.334 2.1756C196.576-6.89366 193.527-18.2098 184.54-23.3848C175.53-28.6109 164.184-25.5908 158.98-16.5463C153.783-7.5514 156.816 3.7807 165.819 8.9689ZM171.075-0.043488C167.088-2.34927 165.761-7.19937 168.067-11.1863C170.373-15.16 175.236-16.4578 179.21-14.1812C183.167-11.8754 184.494-7.01207 182.189-3.03836C179.912 0.935335 175.019 2.2331 171.075-0.043488Z" />
</svg>