<svg xmlns="http://www.w3.org/2000/svg" viewBox="16.084 -113.66 131.99 139.18">
  <path d="M16.084-93.3183L16.084 10.1753L47.4754 10.1753C46.9917 8.00766 46.7141 5.76123 46.7141 3.40359C46.7141-13.2008 60.2949-26.6984 76.8877-26.6984C93.4469-26.6984 106.96-13.2387 106.96 3.40359C106.96 5.76123 106.712 8.00766 106.19 10.1753L113.227 10.1753C126.131 10.1753 132.991 2.76661 132.991-11.0701L132.991-42.8896C132.991-52.1909 129.566-62.8821 123.745-71.2624L120.487-75.9675C111.869-88.3972 101.25-93.4792 83.997-93.4792L26.8116-93.4792C22.9573-93.4792 19.3708-93.3987 16.084-93.3183ZM76.8877 25.5244C89.0828 25.5244 98.966 15.6324 98.966 3.40359C98.966-8.83669 89.0828-18.6907 76.8877-18.6907C64.6969-18.6907 54.7085-8.79871 54.7085 3.40359C54.7085 15.6324 64.6589 25.5244 76.8877 25.5244ZM96.8956-87.9627L106.646-80.0561L125.305-99.0653C126.944-100.798 128.516-101.491 131.092-101.491L141.838-101.491C145.601-101.491 148.071-104.058 148.071-107.59C148.071-111.16 145.572-113.66 141.838-113.66L131.408-113.66C124.536-113.66 120.538-111.974 116.602-107.96Z"/>
</svg>