<svg xmlns="http://www.w3.org/2000/svg" viewBox="11.2588 -101.001 131.66 131.62">
  <path d="M77.0704 30.6223C113.401 30.6223 142.92 1.10324 142.92-35.1893C142.92-71.4818 113.401-101.001 77.0704-101.001C40.7779-101.001 11.2588-71.4818 11.2588-35.1893C11.2588 1.10324 40.7779 30.6223 77.0704 30.6223ZM63.3219-1.83395L45.0383-20.1935C40.8544-24.4198 40.4032-29.0302 44.7099-33.3881L75.8459-64.7273C78.1834-67.078 79.8501-68.5749 83.5779-68.5749L95.9498-68.5749C99.0459-68.5749 100.752-67.5517 102.867-65.5037L108.976-59.4478C111.091-57.3283 111.81-55.6136 111.81-52.5175L111.81-40.4495C111.81-36.6034 110.313-35.0171 107.963-32.6795L76.5764-1.43389C72.1893 2.90201 67.5729 2.34989 63.3219-1.83395ZM87.5376-44.4297C89.5955-42.3718 92.9165-42.3586 94.9611-44.4297C97.0454-46.4716 97.0003-49.8465 94.9743-51.808C92.9325-53.8499 89.6407-53.8499 87.5668-51.808C85.5337-49.7264 85.5629-46.3779 87.5376-44.4297Z"/>
</svg>