<svg xmlns="http://www.w3.org/2000/svg" viewBox="11.2588 -101.081 131.66 131.62">
  <path d="M77.0704 30.5419C113.401 30.5419 142.92 1.02282 142.92-35.2697C142.92-71.5622 113.401-101.081 77.0704-101.081C40.7779-101.081 11.2588-71.5622 11.2588-35.2697C11.2588 1.02282 40.7779 30.5419 77.0704 30.5419ZM77.1216-5.12823C73.9542-5.12823 71.8066-7.34753 71.8066-10.5776L71.8066-45.9224L57.6985-45.9224C55.536-45.9224 54.0968-47.3836 54.0968-49.403C54.0968-51.5434 55.536-52.9959 57.6985-52.9959L96.4935-52.9959C98.618-52.9959 100.095-51.5434 100.095-49.403C100.095-47.3836 98.618-45.9224 96.4935-45.9224L82.4366-45.9224L82.4366-10.5776C82.4366-7.34753 80.289-5.12823 77.1216-5.12823ZM53.9696-62.0668C53.9696-63.1309 54.8144-64.0181 55.8785-64.0181L98.1863-64.0181C99.2372-64.0181 100.095-63.1309 100.095-62.0668C100.095-61.016 99.2372-60.1287 98.1863-60.1287L55.8785-60.1287C54.8144-60.1287 53.9696-60.9648 53.9696-62.0668Z"/>
</svg>