<svg xmlns="http://www.w3.org/2000/svg" viewBox="10.9134 -101.56 191.66 133.8">
  <path d="M76.3384 32.2374L190.569 32.2374C199.177 32.2374 202.573 24.3324 198.872 17.0365L142.685-95.4424C140.777-99.3487 137.367-101.56 133.454-101.56C129.554-101.56 126.131-99.3487 124.222-95.4424L68.0354 17.0365C64.3481 24.3324 67.7443 32.2374 76.3384 32.2374ZM82.4747 19.8517C81.2909 19.8517 80.9515 18.9941 81.4693 17.9321L132.567-84.3883C132.997-85.2489 133.911-85.2489 134.354-84.3883L185.452 17.9321C185.996 19.085 185.67 19.8517 184.579 19.8517ZM98.9375 25.5305L121.879 25.5305L133.454-24.3969L145.042 25.5305L167.97 25.5305L138.432-38.5424C137.414-40.7853 135.462-41.8666 133.454-41.8666C131.475-41.8666 129.507-40.7853 128.489-38.5424ZM21.6814 10.6237L74.8085 10.6237L81.1065-1.762L28.4864-1.762C27.8511-1.762 27.6991-2.24177 27.958-2.77288L62.7117-72.4371C62.9706-72.993 63.6289-72.993 63.8878-72.4371L90.2124-19.7289L97.2117-33.5302L71.5428-84.8642C69.8243-88.1828 66.7789-90.2884 63.3187-90.2884C59.8073-90.2884 56.7752-88.1828 55.0567-84.8642L14.1021-2.85644C10.9134 3.46991 14.0726 10.6237 21.6814 10.6237ZM39.5221 1.89849L55.6793 1.89849L63.3187-30.9534L70.907 1.89849L79.2493 1.89849L83.3168-6.16653L66.833-41.8923C66.139-43.4279 64.7085-44.2316 63.3187-44.2316C61.891-44.2316 60.4985-43.4279 59.7913-41.8923Z"/>
</svg>