<svg xmlns="http://www.w3.org/2000/svg" viewBox="16.084 -99.0391 143.38 134.8">
  <path d="M58.2228 35.7657C62.1104 35.7657 65.1637 34.0401 69.8588 29.9119L91.3574 11.0971L129.486 11.0971C148.264 11.0971 159.467-0.284626 159.467-18.884L159.467-69.0579C159.467-87.6573 148.264-99.0391 129.486-99.0391L46.0651-99.0391C27.2873-99.0391 16.084-87.6838 16.084-69.0579L16.084-18.884C16.084-0.258166 27.8714 11.0971 45.189 11.0971L49.2235 11.0971L49.2235 25.7349C49.2235 31.9497 52.61 35.7657 58.2228 35.7657ZM61.72 19.7069L61.72 2.0217C61.72-1.88064 59.9055-3.34465 56.3536-3.34465L46.8509-3.34465C35.9735-3.34465 30.5257-8.9547 30.5257-19.6698L30.5257-68.2722C30.5257-78.9625 35.9735-84.5593 46.8509-84.5593L128.7-84.5593C139.525-84.5593 145.025-78.9625 145.025-68.2722L145.025-19.6698C145.025-8.9547 139.525-3.34465 128.7-3.34465L90.4133-3.34465C86.4112-3.34465 84.5699-2.58778 81.6561 0.303972ZM55.8858-59.7668L118.818-59.7668C121.079-59.7668 122.905-61.6561 122.905-63.8961C122.905-66.0762 121.079-67.945 118.818-67.945L55.8858-67.945C53.6837-67.945 51.9245-66.0762 51.9245-63.8961C51.9245-61.6561 53.7129-59.7668 55.8858-59.7668ZM55.8858-40.2234L118.818-40.2234C121.079-40.2234 122.905-42.1127 122.905-44.3527C122.905-46.5328 121.079-48.4396 118.818-48.4396L55.8858-48.4396C53.6837-48.4396 51.9245-46.5036 51.9245-44.3527C51.9245-42.1127 53.7129-40.2234 55.8858-40.2234ZM55.8858-20.6668L97.0528-20.6668C99.3133-20.6668 101.11-22.5561 101.11-24.7582C101.11-27.0142 99.3133-28.883 97.0528-28.883L55.8858-28.883C53.6837-28.883 51.9245-26.985 51.9245-24.7582C51.9245-22.5561 53.7129-20.6668 55.8858-20.6668Z" />
</svg>