<svg xmlns="http://www.w3.org/2000/svg" viewBox="11.2588 -101.081 131.66 131.62">
  <path d="M77.0704 30.5419C113.401 30.5419 142.92 1.02282 142.92-35.2697C142.92-71.5622 113.401-101.081 77.0704-101.081C40.7779-101.081 11.2588-71.5622 11.2588-35.2697C11.2588 1.02282 40.7779 30.5419 77.0704 30.5419ZM77.0704 0.392496C57.3678 0.392496 41.4082-15.5672 41.4082-35.2697C41.4082-43.6085 44.4476-51.463 49.3724-57.4657C51.3916-60.2138 54.7884-60.4445 56.8864-58.3741C59.0297-56.3477 58.5945-53.7205 56.92-51.4093C53.322-46.9757 51.1798-41.376 51.1798-35.2697C51.1798-20.8224 62.5355-9.34115 77.0704-9.34115C91.6433-9.34115 102.961-20.8224 102.961-35.2697C102.961-48.5263 93.5456-59.258 80.8425-61.0171L80.8425-56.7425C80.8425-54.3504 79.054-52.41 76.6124-52.41C74.1196-52.41 72.3603-54.3504 72.3603-56.7425L72.3603-66.4077C72.3603-69.0994 74.2056-70.9319 77.1084-70.9319C96.8109-70.9319 112.771-54.9723 112.771-35.2697C112.771-15.5672 96.8109 0.392496 77.0704 0.392496ZM82.874-29.4979C79.6931-26.2658 74.9016-26.9224 72.5581-30.7609L63.3548-45.3735C61.5394-48.3942 64.6334-50.9405 67.3664-49.2595L81.6826-39.8722C85.454-37.457 86.0841-32.8131 82.874-29.4979Z"/>
</svg>