<svg xmlns="http://www.w3.org/2000/svg" viewBox="16.084 -94.7943 119.09 119.13">
  <path d="M37.5412 24.3309L113.714 24.3309C127.667 24.3309 135.171 16.7998 135.171 2.98757L135.171-73.451C135.171-87.2633 127.667-94.7943 113.714-94.7943L37.5412-94.7943C23.6265-94.7943 16.084-87.2897 16.084-73.451L16.084 2.98757C16.084 16.8263 23.6265 24.3309 37.5412 24.3309ZM38.987 9.85111C33.4665 9.85111 30.5257 7.10309 30.5257 1.35185L30.5257-71.8153C30.5257-77.6045 33.4665-80.3145 38.987-80.3145L112.268-80.3145C117.736-80.3145 120.729-77.6045 120.729-71.8153L120.729 1.35185C120.729 7.10309 117.736 9.85111 112.268 9.85111ZM61.0483 0.340974L90.4091 0.340974C93.0977 0.340974 95.2686-0.694732 96.3057-2.40904L96.5409-3.00411L87.6633-11.8817L87.4743-10.2433C87.3179-9.56594 86.6863-9.16944 85.9798-9.16944C84.5692-9.16944 83.7055-10.1108 83.7187-11.4322L83.8626-15.6445L78.026-21.5191L78.026-11.403C78.026-10.0948 77.0626-9.18267 75.6785-9.18267C74.2404-9.18267 73.315-10.0948 73.315-11.403L73.315-26.2052L66.8301-32.6902L67.5843-11.4322C67.6267-10.1108 66.7586-9.16944 65.3233-9.16944C64.0063-9.16944 63.0827-10.0683 63.0402-11.3765L62.0326-37.5257L51.4261-48.1409L53.2693-6.98184C53.4593-2.20782 56.2858 0.340974 61.0483 0.340974ZM101.807-4.81338C103.125-3.52447 105.26-3.52003 106.54-4.83814C107.896-6.16948 107.896-8.29123 106.54-9.64733L50.1829-66.0175C48.8648-67.3736 46.6626-67.3736 45.3825-66.0175C44.0264-64.6861 44.0396-62.5644 45.3825-61.2595ZM99.0082-24.283L100.395-53.4813L104.606-53.4813C106.504-53.4813 107.932-54.8754 107.97-56.7443C108.008-58.6001 106.504-59.9782 104.606-59.9782L90.9929-59.9782L90.9929-64.0513C90.9929-69.4013 87.3498-72.758 81.2676-72.758L70.1006-72.758C64.8653-72.758 61.4866-70.1022 60.8733-65.8035C60.7857-65.1368 60.7273-64.4817 60.6689-63.815L59.4982-63.815L74.8792-48.4207L74.8792-49.4608C75.0604-49.6956 75.3254-49.7882 75.6785-49.7882C77.0891-49.7882 78.026-48.9317 78.026-47.5723L78.026-45.274L84.5643-38.7648L84.8795-46.2714C84.9219-47.66 85.9012-48.5324 87.2314-48.5324C88.7092-48.5324 89.5674-47.6043 89.5542-46.1865L89.0544-34.2747ZM67.3659-59.9782L67.3951-63.9093C67.4243-65.482 68.5888-66.5397 70.2596-66.5397L81.0699-66.5397C82.7831-66.5397 83.9564-65.482 83.9856-63.9093L84.0148-59.9782Z"/>
</svg>