<svg xmlns="http://www.w3.org/2000/svg" viewBox="12.8672 -95.8353 134.02 121.96">
  <path d="M12.8672 7.45299C12.8672 17.5669 20.2742 26.123 31.4143 26.123L128.264 26.123C139.434 26.123 146.892 17.5669 146.892 7.45299C146.892 4.41686 146.098 1.26232 144.43-1.65974L95.9052-86.4433C92.4262-92.6428 86.1286-95.8353 79.8328-95.8353C73.5369-95.8353 67.3915-92.7012 63.8409-86.4433L15.342-1.71541C13.6565 1.22433 12.8672 4.41686 12.8672 7.45299ZM27.7442 6.19725C27.7442 5.33353 27.9668 4.19936 28.5303 3.22602L74.7453-78.0443C75.8475-80.013 77.8349-80.9307 79.8328-80.9307L79.8328 12.3793L33.7522 12.3793C30.2147 12.3793 27.7442 9.46095 27.7442 6.19725Z"/>
</svg>