<svg xmlns="http://www.w3.org/2000/svg" viewBox="16.0708 -129.783 261.08 187.06">
  <path d="M62.3823-102.01C64.0831-100.309 66.82-100.309 68.5835-101.997C70.2844-103.706 70.2711-106.459 68.5703-108.16L61.9132-114.779L55.7472-108.591ZM84.1399-108.385C86.5171-108.385 88.5512-110.393 88.5512-112.797L88.5512-122.093L79.7959-122.093L79.7959-112.797C79.7959-110.393 81.7655-108.385 84.1399-108.385ZM99.6963-101.997C101.422-100.309 104.197-100.309 105.884-102.01L112.495-108.591L106.329-114.779L99.7096-108.16C98.0087-106.459 97.9955-103.706 99.6963-101.997ZM83.9685-78.5836C88.1308-78.5268 91.1167-81.8779 91.092-85.9262C90.9021-90.039 87.6545-93.1169 83.669-93.0409C82.9133-92.9489 81.5496-92.7501 80.2479-92.3805L60.7777-87.8329C59.2553-87.4253 58.4357-86.3998 58.5029-85.1417C58.5117-83.8004 59.3825-82.8509 60.9429-82.506L80.7788-79.0028C82.1477-78.7092 83.1545-78.5836 83.9685-78.5836ZM19.8225-76.169L32.103-83.9475C33.8347-85.0904 33.8435-87.2547 32.0358-88.3843L19.8985-96.1248C18.1798-97.2529 16.0928-96.3678 16.084-94.1606L16.084-78.1696C16.0708-76.0021 18.1463-75.1153 19.8225-76.169ZM84.1399-129.783C60.3497-129.783 40.7771-110.172 40.7771-86.344C40.7771-76 44.4822-66.3752 50.5152-59.1804C51.5672-57.94 53.1233-57.1028 54.7845-57.1028C57.7181-57.1028 60.1346-59.5032 60.1346-62.4192C60.1346-63.6816 59.743-64.8185 58.761-65.9085C54.4316-71.0797 51.5504-78.4119 51.5504-86.3732C51.5504-104.559 65.9626-119.039 84.1399-119.039C100.415-119.039 114.059-107.327 116.176-91.0261C119.003-93.1461 122.12-95.2122 125.701-97.3686C121.038-115.841 104.054-129.783 84.1399-129.783ZM86.7131 52.7647C88.6999 56.1248 92.9407 57.2787 96.1911 55.4235L272.733-46.4624C275.983-48.3308 277.15-52.5159 275.295-55.7955C273.266-59.2068 269.012-60.336 265.791-58.4676L89.2623 43.4183C86.0118 45.2735 84.8446 49.4983 86.7131 52.7647ZM94.528 17.6855L99.34 14.9363C98.0963 13.6661 97.0002 12.2703 96.0809 10.6509C90.1892 0.494706 93.6963-12.4696 103.853-18.3233C113.966-24.177 126.96-20.7078 132.814-10.5428C133.733-8.94823 134.408-7.27045 134.907-5.57944L191.886-38.4854C190.643-39.7511 189.546-41.1469 188.627-42.7415C182.773-52.8977 186.281-65.9001 196.386-71.7025C206.513-77.5942 219.506-74.1163 225.36-63.9733C226.279-62.3787 226.954-60.7009 227.44-59.0391L240.9-66.774C248.596-71.2439 250.576-78.7619 245.997-86.7357L235.485-104.931C230.804-113.05 222.803-115.009 214.465-110.175L179.944-90.2235L175.282-96.4742C168.779-105.269 160.447-107.058 151.017-101.606L133.656-91.5752C117.964-82.5283 110.889-75.7118 104.421-63.4065L93.2591-42.3448L78.6321-30.9338C65.3118-20.5931 62.037-9.86525 68.8013 1.83459L74.714 12.1574C79.4235 20.3223 86.854 22.1554 94.528 17.6855ZM121.875 12.9184C129.023 8.79371 131.454-0.239006 127.352-7.37129C123.198-14.4948 114.114-16.935 107.033-12.8103C99.8714-8.70763 97.44 0.347096 101.543 7.50858C105.697 14.6321 114.78 17.0723 121.875 12.9184ZM214.408-40.4741C221.54-44.6147 223.972-53.6694 219.898-60.7929C215.744-67.9544 206.66-70.3567 199.566-66.27C192.456-62.154 189.973-53.0454 194.089-45.9219C198.243-38.7604 207.284-36.3874 214.408-40.4741Z"/>
</svg>