<svg xmlns="http://www.w3.org/2000/svg" viewBox="16.084 -91.9219 89.44 113.27">
  <path d="M49.0953 21.3445L50.9006 21.3445C66.4476 21.3445 80.7165 16.9052 91.3477 7.4911C99.7118 0.00523059 105.528-10.3339 105.528-21.2108C105.528-26.3513 102.036-29.8077 96.6046-29.8077C91.1487-29.8077 88.6257-26.566 87.6413-22.0869C86.8716-15.6169 83.966-10.017 79.8058-5.64533C73.4346 0.976411 64.1176 4.29697 54.174 4.29697L54.174-34.1464L80.8348-44.7286C82.6148-45.4418 83.4111-46.5714 83.4111-48.2577C83.4111-50.2145 82.172-51.9532 79.8616-51.9532C79.2916-51.9532 78.6836-51.7924 78.074-51.5468L54.174-42.1062L54.174-57.6161L80.8348-68.1604C82.6148-68.8736 83.4111-70.0543 83.4111-71.7274C83.4111-73.7982 82.058-75.4362 79.8616-75.4362C79.2916-75.4362 78.6836-75.2753 78.074-75.0297L54.174-65.5379L54.174-82.3334C54.174-88.1619 50.4185-91.9219 44.6704-91.9219C39.0055-91.9219 35.3259-88.1619 35.3259-82.3626L35.3259-58.6091L18.6091-52.0861C16.8936-51.4109 16.084-50.2302 16.084-48.557C16.084-46.4351 17.5016-44.8103 19.5823-44.8103C20.1903-44.8103 20.8363-44.9579 21.4343-45.2168L35.3259-50.6493L35.3259-35.1102L18.6091-28.5872C16.8936-27.95 16.084-26.7312 16.084-25.0449C16.084-22.9741 17.5016-21.3362 19.5823-21.3362C20.1903-21.3362 20.8363-21.4838 21.4343-21.7046L35.3259-27.2176L35.3259 8.91683C35.3259 17.2366 40.4221 21.3445 49.0953 21.3445Z"/>
</svg>