<svg xmlns="http://www.w3.org/2000/svg" viewBox="11.2588 -106.233 141.89 141.94">
  <path d="M82.2219 35.7066C121.26 35.7066 153.147 3.8198 153.147-35.2697C153.147-74.346 121.26-106.233 82.2219-106.233C43.1456-106.233 11.2588-74.346 11.2588-35.2697C11.2588 3.8198 43.1456 35.7066 82.2219 35.7066ZM82.2219 11.2965C56.4816 11.2965 35.6557-9.5294 35.6557-35.2697C35.6557-61.01 56.4816-81.8359 82.2219-81.8359C107.924-81.8359 128.75-61.01 128.75-35.2697C128.75-9.5294 107.924 11.2965 82.2219 11.2965ZM76.3093-8.18846L77.2623-8.18846C84.4014-8.18846 92.1593-10.4775 97.0924-14.9471C101.194-18.6981 103.927-23.7852 103.927-28.7563C103.927-31.3557 102.217-33.2521 99.2706-33.2521C96.566-33.2521 95.194-31.5952 94.604-29.2411C94.1656-26.285 92.8629-23.7194 90.9659-21.7101C88.0037-18.6456 83.5704-17.0457 78.9443-17.0457L78.9443-35.4642L91.6656-40.3787C92.5281-40.7339 92.9885-41.3711 92.9885-42.1824C92.9885-43.2685 92.2197-44.0957 91.1848-44.0957C90.8384-44.0957 90.5212-43.9773 90.1907-43.8457L78.9443-39.4853L78.9443-46.9032L91.6656-51.8177C92.5414-52.1482 93.0018-52.7854 93.0018-53.6726C93.0018-54.4928 92.4608-55.4968 91.236-55.4968C90.8764-55.4968 90.5344-55.3784 90.1907-55.2467L78.9443-50.8863L78.9443-58.512C78.9443-61.4678 76.9558-63.5103 74.038-63.5103C71.1379-63.5103 69.1114-61.4678 69.1114-58.512L69.1114-47.2217L61.0225-44.1228C60.16-43.8055 59.7756-43.2223 59.7756-42.3995C59.7756-41.3514 60.5445-40.5241 61.5413-40.5241C61.8498-40.5241 62.205-40.6045 62.5734-40.7362L69.1114-43.2678L69.1114-35.8499L61.0225-32.735C60.16-32.3797 59.7756-31.8345 59.7756-30.9472C59.7756-29.9504 60.5445-29.0851 61.5413-29.0851C61.8498-29.0851 62.2562-29.1655 62.5999-29.2972L69.1114-31.8536L69.1114-14.6724C69.1114-10.7394 71.9719-8.18846 76.3093-8.18846Z" />
</svg>