<svg xmlns="http://www.w3.org/2000/svg" viewBox="16.084 -114.457 164.81 158.38">
  <path d="M51.5487 43.918L145.431 43.918C157.895 43.918 166.611 42.3038 172.979 35.9217C179.386 29.5149 180.895 20.9899 180.895 8.45335L180.895-78.9928C180.895-91.5293 179.386-100.097 172.979-106.461C166.53-112.843 157.895-114.457 145.431-114.457L51.4164-114.457C39.1483-114.457 30.4199-112.83 24.0131-106.448C17.631-100.041 16.084-91.5028 16.084-79.163L16.084 8.45335C16.084 20.9899 17.6178 29.5573 23.9999 35.9217C30.4491 42.3038 39.0838 43.918 51.5487 43.918ZM49.8059 29.4763C43.0159 29.4763 37.7561 28.4637 34.5924 25.3292C31.4579 22.1655 30.5257 17.0286 30.5257 10.1961L30.5257-80.5652C30.5257-87.5415 31.4579-92.7181 34.5792-95.8818C37.7429-99.0296 43.0424-100.016 49.9762-100.016L147.173-100.016C153.963-100.016 159.223-99.0031 162.387-95.8686C165.521-92.7049 166.454-87.568 166.454-80.7355L166.454 10.1961C166.454 17.0286 165.508 22.1655 162.387 25.3292C159.223 28.4769 153.963 29.4763 147.173 29.4763ZM47.5901-15.4521L149.427-15.4521C151.692-15.4521 153.549-17.3006 153.549-19.5742C153.549-21.8522 151.692-23.6422 149.427-23.6422L47.5901-23.6422C45.3121-23.6422 43.4681-21.8522 43.4681-19.5742C43.4681-17.3006 45.3121-15.4521 47.5901-15.4521ZM47.5901 0.9286L149.427 0.9286C151.692 0.9286 153.549-0.919839 153.549-3.19343C153.549-5.47147 151.692-7.24827 149.427-7.24827L47.5901-7.24827C45.3121-7.24827 43.4681-5.47147 43.4681-3.19343C43.4681-0.919839 45.3121 0.9286 47.5901 0.9286ZM47.5901 17.3093L108.715 17.3093C111.018 17.3093 112.837 15.4741 112.837 13.1873C112.837 10.9093 111.018 9.13246 108.715 9.13246L47.5901 9.13246C45.3121 9.13246 43.4681 10.9093 43.4681 13.1873C43.4681 15.4741 45.3121 17.3093 47.5901 17.3093ZM50.5712-61.4218L64.8267-61.4218C70.12-61.4218 73.7829-65.0848 73.7829-70.3781L73.7829-80.6126C73.7829-85.9059 70.12-89.5688 64.8267-89.5688L50.5712-89.5688C45.2779-89.5688 41.615-85.9059 41.615-80.6126L41.615-70.3781C41.615-65.0848 45.2779-61.4218 50.5712-61.4218Z"/>
</svg>