<svg xmlns="http://www.w3.org/2000/svg" viewBox="11.2588 -101.001 131.66 131.62">
  <path d="M77.0704 30.6223C113.401 30.6223 142.92 1.10324 142.92-35.1893C142.92-71.4818 113.401-101.001 77.0704-101.001C40.7779-101.001 11.2588-71.4818 11.2588-35.1893C11.2588 1.10324 40.7779 30.6223 77.0704 30.6223ZM42.1348-45.6054C39.9531-44.9345 38.0066-45.9865 37.4337-48.003C36.7761-49.8851 37.8265-51.8431 40.0081-52.476C45.8948-54.2652 52.2732-55.4076 58.4837-55.4076C65.7956-55.4076 70.9803-54.2095 77.3254-54.2095C80.4432-54.2095 82.2577-55.9568 82.2577-58.8201C82.2577-61.7019 80.4069-63.4129 77.776-63.4129C75.7984-63.4129 74.218-62.1977 73.4722-60.583C72.4219-58.495 70.286-57.84 68.4667-58.7923C66.6414-59.7446 66.2359-61.8414 67.127-63.6156C68.8791-67.6257 73.0582-70.5513 77.776-70.5513C84.263-70.5513 89.4428-65.5845 89.4428-58.8201C89.4428-52.121 84.4953-47.1136 77.3254-47.1136C70.5463-47.1136 65.3873-48.2065 58.4837-48.2065C53.0289-48.2065 47.536-47.3549 42.1348-45.6054ZM101.645-27.1756C88.5192-27.1756 77.0547-33.8014 62.1782-33.8014C54.8644-33.8014 48.402-32.8144 42.2763-30.465C40.0115-29.657 38.0358-30.7585 37.4337-32.7794C36.7761-34.6191 37.8645-36.5364 39.9117-37.2904C46.9028-39.6408 54.3587-40.9865 62.1782-40.9865C77.577-40.9865 90.2642-34.3855 101.645-34.3855C107.242-34.3855 110.673-37.2047 110.673-41.7788C110.673-46.0939 107.571-49.02 103.407-49.02C100.033-49.02 97.2402-46.795 96.5357-43.5336C95.9529-41.2468 93.8708-40.0951 91.9712-40.6267C90.1183-41.1291 88.981-43.0316 89.5726-45.1928C90.9095-51.5205 96.5477-56.2051 103.407-56.2051C111.411-56.2051 117.821-50.0392 117.821-41.7788C117.821-33.3001 111.086-27.1756 101.645-27.1756ZM77.3519 0.130261C71.5764 0.130261 67.377-3.76914 66.1992-8.90367C65.58-10.9466 66.356-13.0903 68.6125-13.5751C70.6773-14.0979 72.4394-12.8803 73.0426-10.969C73.626-8.35865 74.9916-7.00808 77.3519-7.00808C79.8043-7.00808 81.5719-8.61221 81.5719-11.4825C81.5719-16.2676 74.6776-19.3511 61.5329-19.3511C54.7759-19.3511 48.1366-18.1531 42.2763-16.0307C40.0115-15.2227 38.0358-16.4179 37.4337-18.3963C36.7629-20.1688 37.8777-22.1269 39.9382-22.8561C46.5888-25.1084 54.4745-26.5142 61.5329-26.5142C78.9077-26.5142 88.7774-21.1543 88.7774-11.4825C88.7774-4.7456 83.7788 0.130261 77.3519 0.130261Z"/>
</svg>