<svg xmlns="http://www.w3.org/2000/svg" viewBox="9.76562 -73.3887 76.27 76.27">
  <path d="M25 2.88086L70.8008 2.88086C80.3711 2.88086 86.0352-2.7832 86.0352-12.3535L86.0352-58.1543C86.0352-67.7246 80.3711-73.3887 70.8008-73.3887L25-73.3887C15.4297-73.3887 9.76562-67.7246 9.76562-58.1543L9.76562-12.3535C9.76562-2.7832 15.4297 2.88086 25 2.88086ZM39.2578-17.5293C35.8887-17.5293 33.4961-19.7266 33.4961-22.8027C33.4961-24.8047 33.9355-26.6602 36.5234-28.7598L45.9473-36.3281C48.9746-38.7695 49.707-40.1367 49.707-41.5039C49.707-42.627 49.0234-43.2617 47.7539-43.2617C46.2891-43.2617 45.5078-42.1875 44.5801-41.0645C43.5059-39.7949 42.1875-38.4766 39.4043-38.4766C35.7422-38.4766 33.3008-40.1855 33.3008-43.5547C33.3008-44.4336 33.4961-45.3613 33.7891-46.1914C35.5957-51.0254 41.3574-54.0527 48.6328-54.0527C57.6172-54.0527 63.7207-49.4629 63.7207-42.7246C63.7207-39.1113 61.6699-35.9375 56.4941-31.8359L52.8809-28.9062L52.8809-28.5156L58.8379-28.5156C62.8906-28.5156 65.1855-26.5137 65.1855-23.0469C65.1855-19.6289 62.793-17.5293 58.8379-17.5293Z"/>
</svg>