<svg xmlns="http://www.w3.org/2000/svg" viewBox="6.83594 -77.2461 83.98 83.98">
  <path d="M48.8281 6.73828C72.0215 6.73828 90.8203-12.0605 90.8203-35.2539C90.8203-58.4473 72.0215-77.2461 48.8281-77.2461C25.6348-77.2461 6.83594-58.4473 6.83594-35.2539C6.83594-12.0605 25.6348 6.73828 48.8281 6.73828ZM31.4453-19.9707C29.0527-19.9707 27.7344-21.0938 27.7344-23.0957C27.7344-24.3652 28.1738-25.4395 29.7852-27.4902L34.5215-33.4961C36.9629-36.5723 38.7695-39.209 38.7695-41.9434C38.7695-43.6523 38.3301-45.2148 36.7188-45.2148C35.3516-45.2148 34.8145-43.9941 34.4238-42.6758C33.8379-40.7227 32.5195-39.9414 30.957-39.9414C28.8574-39.9414 27.6855-41.4062 27.6855-43.4082C27.6855-47.8027 31.7871-51.3184 36.7188-51.3184C42.2363-51.3184 46.3379-48.0957 46.3379-42.1875C46.3379-37.6953 43.9941-34.7168 41.1133-31.2988L37.0117-26.4648L37.0117-26.1719L43.7988-26.1719C45.9961-26.1719 46.7773-24.6094 46.7773-23.0469C46.7773-21.5332 45.9961-19.9707 43.7988-19.9707ZM63.5742-19.3848C61.4746-19.3848 59.7656-20.6055 59.7656-23.2422L59.7656-25.0488L53.9062-25.0488C50.8789-25.0488 49.3164-26.4648 49.3164-29.3945C49.3164-30.9082 49.707-32.666 50.293-34.2773L53.2227-42.9199C54.5898-46.9238 56.0547-50.9277 61.2793-50.9277C64.9414-50.9277 67.3828-48.877 67.3828-45.166L67.3828-31.2988L67.6758-31.2988C69.6777-31.2988 70.6055-30.1758 70.6055-28.1738C70.6055-26.5625 69.9707-25.0488 67.627-25.0488L67.3828-25.0488L67.3828-23.2422C67.3828-20.5078 65.7227-19.3848 63.5742-19.3848ZM60.0586-31.0059L60.0586-44.873L59.9121-44.873L55.7617-31.3477L55.7617-31.0059Z"/>
</svg>