<svg xmlns="http://www.w3.org/2000/svg" viewBox="9.76562 -73.3887 76.27 76.27">
  <path d="M25 2.88086L70.8008 2.88086C80.3711 2.88086 86.0352-2.7832 86.0352-12.3535L86.0352-58.1543C86.0352-67.7246 80.3711-73.3887 70.8008-73.3887L25-73.3887C15.4297-73.3887 9.76562-67.7246 9.76562-58.1543L9.76562-12.3535C9.76562-2.7832 15.4297 2.88086 25 2.88086ZM37.9883-19.1895C33.5449-19.1895 29.6387-20.9961 28.5156-24.5117C28.3203-25.1465 28.2227-25.9277 28.2227-26.709C28.2227-28.8574 29.5898-30.1758 31.7383-30.1758C33.5449-30.1758 34.7656-29.2969 35.4004-27.4902C35.8398-26.2695 36.6211-25.3418 37.9395-25.3418C39.8438-25.3418 40.4785-27.2461 40.4785-28.8574C40.4785-31.2988 39.4531-32.6172 37.0117-32.6172L36.7676-32.6172C34.668-32.6172 33.7402-33.6914 33.7402-35.3516C33.7402-37.0117 34.7168-38.0371 36.7676-38.0371L36.9629-38.0371C39.209-38.0371 39.8438-40.0391 39.8438-41.8457C39.8438-43.4082 39.3555-45.1172 37.8418-45.1172C36.377-45.1172 35.7422-43.7012 35.498-42.5781C35.0098-40.8203 33.3984-40.332 31.8359-40.332C29.4434-40.332 28.5645-41.9922 28.5645-43.457C28.5645-44.1895 28.6621-44.9219 28.9062-45.5566C29.9316-49.2676 33.7891-51.2695 37.6953-51.2695C43.5059-51.2695 47.3145-48.0957 47.3145-42.7246C47.3145-38.916 44.9707-36.2793 42.6758-35.6934L42.6758-35.498C46.0938-35.0586 48.2422-32.1777 48.2422-28.3203C48.2422-22.7051 44.043-19.1895 37.9883-19.1895ZM57.4219-19.4824C54.7363-19.4824 53.7598-21.2402 53.7598-22.8027C53.7598-23.8281 53.9551-24.707 54.2969-25.5859L60.6445-43.8477L60.6445-44.2871L53.7109-44.2871C51.8066-44.2871 50.6348-45.6055 50.6348-47.4121C50.6348-49.0234 51.709-50.4883 53.7109-50.4883L64.7461-50.4883C67.041-50.4883 68.75-49.0234 68.75-46.7285C68.75-45.1172 68.5059-43.8965 67.9688-42.4316L60.9863-21.9238C60.4004-20.3125 59.5215-19.4824 57.4219-19.4824Z"/>
</svg>