<svg xmlns="http://www.w3.org/2000/svg" viewBox="9.76562 -73.3887 76.27 76.27">
  <path d="M25 2.88086L70.8008 2.88086C80.3711 2.88086 86.0352-2.7832 86.0352-12.3535L86.0352-58.1543C86.0352-67.7246 80.3711-73.3887 70.8008-73.3887L25-73.3887C15.4297-73.3887 9.76562-67.7246 9.76562-58.1543L9.76562-12.3535C9.76562-2.7832 15.4297 2.88086 25 2.88086ZM36.2793-19.1895C31.8848-19.1895 27.9297-20.9961 26.8555-24.5605C26.6113-25.1465 26.5137-25.9277 26.5137-26.709C26.5137-28.8574 27.8809-30.1758 30.0781-30.1758C31.8848-30.1758 33.0566-29.2969 33.6914-27.4902C34.1797-26.2695 34.9121-25.3418 36.2305-25.3418C38.1348-25.3418 38.7695-27.2461 38.7695-28.8574C38.7695-31.2988 37.793-32.6172 35.3516-32.6172L35.0586-32.6172C32.959-32.6172 32.0801-33.6914 32.0801-35.3516C32.0801-37.0117 33.0078-38.0371 35.0586-38.0371L35.3027-38.0371C37.5-38.0371 38.1348-40.0879 38.1348-41.8457C38.1348-43.4082 37.6465-45.1172 36.1328-45.1172C34.7168-45.1172 34.082-43.7012 33.8379-42.5781C33.3496-40.8203 31.6895-40.332 30.1758-40.332C27.7344-40.332 26.9043-42.041 26.9043-43.457C26.9043-44.1895 27.002-44.9219 27.1973-45.5566C28.2715-49.2676 32.1289-51.2695 36.0352-51.2695C41.8457-51.2695 45.6543-48.0957 45.6543-42.7246C45.6543-38.916 43.2617-36.2793 41.0156-35.6934L41.0156-35.498C44.4336-35.0586 46.5332-32.1777 46.5332-28.3203C46.5332-22.7051 42.3828-19.1895 36.2793-19.1895ZM59.8633-19.1406C53.8086-19.1406 49.5117-22.6562 49.5117-28.2227C49.5117-32.0312 51.9531-35.3027 55.2246-35.9375L55.2246-36.084C52.6367-36.9141 50.293-39.2578 50.293-42.9199C50.293-48.4375 54.7363-51.2695 59.8633-51.2695C65.3809-51.2695 69.4824-48.0469 69.4824-42.9199C69.4824-39.7461 67.5781-37.0605 64.5508-36.084L64.5508-35.9375C68.1641-35.2051 70.2148-31.9336 70.2148-28.1738C70.2148-22.168 65.4297-19.1406 59.8633-19.1406ZM59.8633-38.3789C61.0352-38.3789 61.7188-39.7949 61.7188-42.0898C61.7188-44.3359 61.0352-45.752 59.8633-45.752C58.7891-45.752 58.1055-44.3359 58.1055-42.0898C58.1055-39.7949 58.7891-38.3789 59.8633-38.3789ZM59.8633-24.707C61.084-24.707 61.8652-26.2695 61.8652-28.8086C61.8652-31.2988 61.084-32.8613 59.8633-32.8613C58.6426-32.8613 57.9102-31.2988 57.9102-28.8086C57.9102-26.2695 58.6426-24.707 59.8633-24.707Z"/>
</svg>