<svg xmlns="http://www.w3.org/2000/svg" viewBox="9.76562 -69.3848 76.27 69.34">
  <path d="M9.76562-7.12891C9.76562-3.22266 12.9395-0.0488281 16.8457-0.0488281C20.752-0.0488281 23.9258-3.22266 23.9258-7.12891L23.9258-62.3047C23.9258-66.2109 20.752-69.3848 16.8457-69.3848C12.9395-69.3848 9.76562-66.2109 9.76562-62.3047ZM71.875-7.12891C71.875-3.22266 75.0488-0.0488281 78.9551-0.0488281C82.8613-0.0488281 86.0352-3.22266 86.0352-7.12891L86.0352-62.3047C86.0352-66.2109 82.8613-69.3848 78.9551-69.3848C75.0488-69.3848 71.875-66.2109 71.875-62.3047ZM48.2422-18.457C55.2734-18.457 59.5703-23.2422 59.5703-30.3223C59.5703-35.8398 56.7871-40.625 51.5137-40.625C48.9258-40.625 46.6309-39.4043 45.6543-37.0117L45.459-37.0117L45.8496-43.9941L54.8828-43.9941C57.0801-43.9941 58.3008-45.4102 58.3008-47.5098C58.3008-49.6094 57.0312-51.0254 54.8828-51.0254L42.6758-51.0254C39.9414-51.0254 38.5254-49.4141 38.4277-46.582L37.9395-36.1816C37.8418-33.7402 39.1602-31.543 42.041-31.543C43.6035-31.543 44.5801-31.8359 45.5078-33.0566C46.0938-33.8379 46.8262-34.5703 47.998-34.5703C50.293-34.5703 50.8789-32.1289 50.8789-30.127C50.8789-27.6855 50.0488-25.4883 48.0469-25.4883C46.6309-25.4883 45.8008-26.3672 45.1172-27.4902C44.1895-29.1016 42.9199-29.8828 41.2598-29.8828C39.0137-29.8828 37.5977-28.5645 37.5977-26.3672C37.5977-24.3652 38.7207-22.4121 40.3809-21.1426C42.5293-19.3848 45.459-18.457 48.2422-18.457Z"/>
</svg>