<svg xmlns="http://www.w3.org/2000/svg" viewBox="9.76562 -73.3887 76.27 76.27">
  <path d="M25 2.88086L70.8008 2.88086C80.3711 2.88086 86.0352-2.7832 86.0352-12.3535L86.0352-58.1543C86.0352-67.7246 80.3711-73.3887 70.8008-73.3887L25-73.3887C15.4297-73.3887 9.76562-67.7246 9.76562-58.1543L9.76562-12.3535C9.76562-2.7832 15.4297 2.88086 25 2.88086ZM27.2461-11.2793C25-11.2793 23.9258-12.1582 23.9258-14.5996L23.9258-55.9082C23.9258-58.3496 25-59.2285 27.2461-59.2285L68.5547-59.2285C70.8008-59.2285 71.875-58.3496 71.875-55.9082L71.875-14.5996C71.875-12.1582 70.8008-11.2793 68.5547-11.2793ZM37.6465-17.7734C40.9668-17.7734 42.9688-19.6777 43.7012-23.4863L43.8965-24.5117L51.9043-24.5117L52.0996-23.4863C52.832-19.6777 54.834-17.7734 58.1543-17.7734C62.0117-17.7734 64.209-19.9219 64.209-23.6328C64.209-24.5605 63.9648-25.9277 63.3789-27.7832L58.2031-44.2383C56.4453-49.9023 53.0762-52.5391 47.7539-52.5391C42.5781-52.5391 39.4043-49.9512 37.5977-44.2383L32.4219-27.7832C31.8359-25.9277 31.5918-24.5605 31.5918-23.6328C31.5918-19.9219 33.7891-17.7734 37.6465-17.7734ZM45.8008-33.252L47.7051-42.2852L48.0957-42.2852L50-33.252Z" />
</svg>