<svg xmlns="http://www.w3.org/2000/svg" viewBox="6.83594 -77.2461 83.98 83.98">
  <path d="M48.8281 6.73828C72.0215 6.73828 90.8203-12.0605 90.8203-35.2539C90.8203-58.4473 72.0215-77.2461 48.8281-77.2461C25.6348-77.2461 6.83594-58.4473 6.83594-35.2539C6.83594-12.0605 25.6348 6.73828 48.8281 6.73828ZM27.5879-24.4629C25.7324-24.4629 24.7559-25.5371 24.7559-27.4414C24.7559-28.0762 24.9023-28.8574 25-29.4434L27.7344-42.334C28.3203-45.0195 30.1758-46.0449 32.373-46.0449C35.0098-46.0449 36.7676-44.873 37.2559-42.334L40.0391-29.4434C40.1367-28.8574 40.2832-28.0273 40.2832-27.4414C40.2832-25.6836 39.209-24.4629 37.5-24.4629C35.5957-24.4629 34.7168-25.3906 34.375-27.2949L34.2285-28.125L30.7129-28.125L30.6152-27.3926C30.3711-25.5859 29.4434-24.4629 27.5879-24.4629ZM31.3477-32.4707L33.5449-32.4707L32.4219-39.2578L32.3242-39.2578ZM45.8496-24.8047C43.7988-24.8047 42.7734-26.0254 42.7734-28.0273L42.7734-42.4316C42.7734-44.4336 43.7988-45.6543 45.8496-45.6543L51.3672-45.6543C54.6875-45.6543 56.6406-43.75 56.6406-40.4297C56.6406-37.9883 55.0293-36.2793 52.9785-35.9375L52.9785-35.8398C55.1758-35.8398 56.9824-33.252 56.9824-30.8594C56.9824-27.4414 55.0293-24.8047 51.6602-24.8047ZM48.877-29.0039L49.3164-29.0039C50.5371-29.0039 50.8789-30.2246 50.8789-31.4453C50.8789-32.666 50.5371-33.7891 49.3164-33.7891L48.877-33.7891ZM48.877-37.3047L49.3164-37.3047C50.5371-37.3047 50.9766-38.2812 50.9766-39.3555C50.9766-40.5762 50.6348-41.4551 49.4141-41.4551L48.877-41.4551ZM65.5762-24.2188C62.9883-24.2188 60.5957-25.0488 59.4727-27.3926C59.082-28.0762 58.9355-28.8086 58.9355-29.3945C58.9355-30.957 60.2051-31.9336 61.5234-31.9336C62.9883-31.9336 63.9648-31.2988 64.4531-29.9316C64.6973-29.3945 65.0391-28.9062 65.5762-28.9062C66.3086-28.9062 66.6016-29.4922 66.6016-30.2246C66.6016-31.6406 65.4785-32.1777 64.209-32.8125L62.793-33.4961C60.1074-34.7656 58.7891-36.8164 58.7891-39.6973C58.7891-43.7988 61.5234-46.2402 65.625-46.2402C68.457-46.2402 70.8984-44.8242 71.7773-42.5781C71.9727-42.0898 72.1191-41.5039 72.1191-40.918C72.1191-39.6484 71.4355-38.4277 69.6289-38.4277C68.3594-38.4277 67.2852-38.8184 66.748-40.332C66.4551-41.1621 66.1621-41.5527 65.625-41.5527C64.9902-41.5527 64.7949-41.0156 64.7949-40.2832C64.7949-38.7207 65.6738-38.2812 67.0898-37.5977L68.5547-36.9141C70.6055-35.8887 72.6074-34.5215 72.6074-30.8105C72.6074-26.709 70.1172-24.2188 65.5762-24.2188Z"/>
</svg>