<svg xmlns="http://www.w3.org/2000/svg" viewBox="9.27734 -73.4375 105.86 70.21">
  <path d="M28.3691-3.22266L96.875-3.22266C105.957-3.27148 112.988-8.30078 112.451-14.7949C111.914-20.7031 104.59-24.9023 96.2891-24.3164L71.1426-22.6074C69.6777-22.5098 68.9453-22.8027 67.5293-23.9746L40.7227-46.6309C39.502-47.6562 37.8906-48.1934 36.4746-48.1934L33.4961-48.0957C31.3477-47.9492 30.2246-45.6543 31.2988-43.6523L47.8516-12.5488L52.0996-21.3379L20.5566-19.1895L45.8496-11.5723L17.8223-30.7617C16.4062-31.7871 14.7949-31.8359 13.0859-30.957L11.5723-30.127C9.86328-29.3457 9.27734-27.4414 10.1562-25.8301L19.1406-7.86133C20.6543-4.78516 23.8281-3.27148 28.3691-3.22266ZM78.418-41.4551L102.832-41.4551C109.717-41.4551 115.137-46.7285 115.137-53.5645C115.137-60.498 109.912-65.8691 102.832-65.8691C100.244-70.8984 95.752-73.4375 89.6484-73.4375C82.0801-73.4375 75.8789-68.2129 74.6094-60.5469C70.4102-59.082 67.9688-55.5664 67.9688-51.416C67.9688-45.6543 72.4121-41.4551 78.418-41.4551Z"/>
</svg>