<svg xmlns="http://www.w3.org/2000/svg" viewBox="9.76562 -70.459 82.62 70.46">
  <path d="M17.627 0L34.6191 0C39.502 0 43.3594-2.53906 45.752-7.27539L69.4336-54.3457C69.6777-54.834 70.2148-55.127 70.8496-55.127L84.5215-55.127C89.0137-55.127 92.3828-58.4473 92.3828-62.793C92.3828-67.0898 88.9648-70.459 84.5215-70.459L67.4805-70.459C62.207-70.459 58.9844-68.3594 56.3965-63.2324L32.666-16.1133C32.4219-15.625 31.8848-15.332 31.25-15.332L17.627-15.332C13.1348-15.332 9.76562-12.0117 9.76562-7.66602C9.76562-3.36914 13.1836 0 17.627 0ZM63.3789 0L84.5215 0C89.0137 0 92.3828-3.32031 92.3828-7.66602C92.3828-12.0117 89.0137-15.332 84.5215-15.332L63.3789-15.332C58.8867-15.332 55.5176-12.0117 55.5176-7.66602C55.5176-3.36914 58.9355 0 63.3789 0Z" />
</svg>