<svg xmlns="http://www.w3.org/2000/svg" viewBox="9.76562 -73.3398 81.25 76.27">
  <path d="M29.4434 2.92969L71.3379 2.92969C80.9082 2.92969 86.5723-2.73438 86.5723-12.3047L86.5723-43.457L14.209-43.457L14.209-12.3047C14.209-2.73438 19.873 2.92969 29.4434 2.92969ZM39.4531-25.2441C36.6699-25.2441 34.5215-27.3926 34.5215-30.2246L34.5215-31.4941C34.5215-34.3262 36.6211-36.4258 39.4531-36.4258L61.377-36.4258C64.209-36.4258 66.3086-34.3262 66.3086-31.4941L66.3086-30.2246C66.3086-27.3926 64.1602-25.2441 61.377-25.2441ZM18.8965-50.7812L81.9336-50.7812C87.9395-50.7812 91.0156-53.9551 91.0156-59.9121L91.0156-64.209C91.0156-70.166 87.9395-73.3398 81.9336-73.3398L18.8965-73.3398C12.9395-73.3398 9.76562-70.166 9.76562-64.209L9.76562-59.9121C9.76562-53.9551 12.9395-50.7812 18.8965-50.7812Z"/>
</svg>