<svg xmlns="http://www.w3.org/2000/svg" viewBox="9.76562 -73.3887 76.27 76.27">
  <path d="M25 2.88086L70.8008 2.88086C80.3711 2.88086 86.0352-2.7832 86.0352-12.3535L86.0352-58.1543C86.0352-67.7246 80.3711-73.3887 70.8008-73.3887L25-73.3887C15.4297-73.3887 9.76562-67.7246 9.76562-58.1543L9.76562-12.3535C9.76562-2.7832 15.4297 2.88086 25 2.88086ZM61.0352-21.7773C57.8125-21.7773 55.8594-24.1211 55.8594-27.7832L55.8594-31.7383L56.3477-35.3516L52.7344-30.8105L41.9434-20.0684C40.3809-18.5547 38.7695-17.9688 37.0117-17.9688C33.5938-17.9688 30.6152-20.5078 30.6152-24.2188C30.6152-25.9277 31.3477-27.6855 32.6172-28.9551L43.6035-39.9414L48.1445-43.5547L44.7266-42.9199L40.332-42.9199C36.7188-42.9199 34.375-44.873 34.375-48.0957C34.375-51.3184 36.7676-53.2715 40.4785-53.2715L58.4961-53.2715C63.3301-53.2715 66.1621-50.4395 66.1621-45.7031L66.1621-27.6855C66.1621-24.0723 64.209-21.7773 61.0352-21.7773Z"/>
</svg>