<svg xmlns="http://www.w3.org/2000/svg" viewBox="9.76562 -73.3887 76.27 76.27">
  <path d="M25 2.88086L70.8008 2.88086C80.3711 2.88086 86.0352-2.7832 86.0352-12.3535L86.0352-58.1543C86.0352-67.7246 80.3711-73.3887 70.8008-73.3887L25-73.3887C15.4297-73.3887 9.76562-67.7246 9.76562-58.1543L9.76562-12.3535C9.76562-2.7832 15.4297 2.88086 25 2.88086ZM27.2461-11.2793C25-11.2793 23.9258-12.1582 23.9258-14.5996L23.9258-55.9082C23.9258-58.3496 25-59.2285 27.2461-59.2285L68.5547-59.2285C70.8008-59.2285 71.875-58.3496 71.875-55.9082L71.875-14.5996C71.875-12.1582 70.8008-11.2793 68.5547-11.2793ZM37.5977-16.9922C39.4531-16.9922 40.918-18.4082 40.918-20.2637L40.918-41.0645L40.918-45.6543C40.918-47.5098 39.4043-49.0234 37.5977-49.0234C35.791-49.0234 34.2773-47.5098 34.2773-45.6543L34.2773-41.0645L34.2773-20.2637C34.2773-18.4082 35.6934-16.9922 37.5977-16.9922ZM50-40.8691C50-41.748 49.5605-42.5781 49.0234-43.1641L40.0879-52.4414C38.6719-53.9062 36.5723-53.8574 35.2051-52.4414L26.2207-43.1641C25.5859-42.5781 25.2441-41.748 25.2441-40.8691C25.2441-38.9648 26.5625-37.5977 28.4668-37.5977C29.2969-37.5977 30.1758-37.8906 30.8105-38.5254L37.0117-45.0195L37.5977-45.6543L38.2812-45.0195L44.4824-38.5254C45.0684-37.8906 45.8496-37.5977 46.7773-37.5977C48.6328-37.5977 50-38.9648 50-40.8691ZM58.252-53.5645C56.3477-53.5645 54.9316-52.1484 54.9316-50.293L54.9316-29.4922L54.9316-24.9023C54.9316-23.0469 56.4453-21.5332 58.252-21.5332C60.0586-21.5332 61.5723-23.0469 61.5723-24.9023L61.5723-29.4922L61.5723-50.293C61.5723-52.1484 60.1074-53.5645 58.252-53.5645ZM70.6055-29.6875C70.6055-31.5918 69.2871-32.959 67.3828-32.959C66.5039-32.959 65.7227-32.666 65.0879-32.0312L58.8867-25.5371L58.252-24.9023L57.6172-25.5371L51.416-32.0312C50.8301-32.666 50-32.959 49.0723-32.959C47.2168-32.959 45.8496-31.5918 45.8496-29.6875C45.8496-28.8086 46.2891-27.9785 46.875-27.3926L55.8105-18.1152C57.1777-16.6992 59.2773-16.6504 60.6934-18.1152L69.6777-27.3926C70.2637-27.9785 70.6055-28.8086 70.6055-29.6875Z" />
</svg>