<svg xmlns="http://www.w3.org/2000/svg" viewBox="9.76562 -78.5645 71.87 86.72">
  <path d="M25 8.1543L66.4062 8.1543C75.9766 8.1543 81.6406 2.49023 81.6406-7.08008L81.6406-38.9648L48.4863-38.9648C44.2871-38.9648 41.9922-41.2598 41.9922-45.459L41.9922-78.5645L25-78.5645C15.4297-78.5645 9.76562-72.9004 9.76562-63.3301L9.76562-7.08008C9.76562 2.49023 15.4297 8.1543 25 8.1543ZM52.0508-46.2891L81.3965-46.2891C81.3477-48.6816 79.2969-50.9766 76.5625-53.7109L56.543-73.7305C54.0527-76.2207 51.7578-78.2227 49.3164-78.3203L49.3164-48.9746C49.3164-47.168 50.2441-46.2891 52.0508-46.2891ZM51.5137-5.9082C51.5137-2.63672 48.9258-0.634766 45.7031-0.634766C42.4805-0.634766 39.8926-2.63672 39.8926-5.9082L39.8926-12.0605L40.4785-17.041L38.8672-15.1367L38.5254-14.6484C37.7441-13.623 36.377-12.793 34.9609-12.793C32.1777-12.793 30.0781-14.7949 30.0781-17.4316C30.0781-18.9941 30.4688-20.0195 31.8359-21.1914L40.8203-29.1992C42.1875-30.4199 43.7012-31.3477 45.7031-31.3477C47.7051-31.3477 49.2188-30.4199 50.5859-29.1992L59.5703-21.1914C60.9375-20.0195 61.3281-18.9941 61.3281-17.4316C61.3281-14.7949 59.2285-12.793 56.4453-12.793C55.127-12.793 53.5645-13.623 52.8809-14.6484L52.5879-15.1367L50.9277-17.041L51.5137-12.0605Z"/>
</svg>