<svg xmlns="http://www.w3.org/2000/svg" viewBox="9.76562 -73.3887 76.27 76.27">
  <path d="M25 2.88086L70.8008 2.88086C80.3711 2.88086 86.0352-2.7832 86.0352-12.3535L86.0352-58.1543C86.0352-67.7246 80.3711-73.3887 70.8008-73.3887L25-73.3887C15.4297-73.3887 9.76562-67.7246 9.76562-58.1543L9.76562-12.3535C9.76562-2.7832 15.4297 2.88086 25 2.88086ZM27.2461-11.2793C25-11.2793 23.9258-12.1582 23.9258-14.5996L23.9258-55.9082C23.9258-58.3496 25-59.2285 27.2461-59.2285L68.5547-59.2285C70.8008-59.2285 71.875-58.3496 71.875-55.9082L71.875-14.5996C71.875-12.1582 70.8008-11.2793 68.5547-11.2793ZM33.8867-29.541L48.1934-29.541L56.1523-30.1758C58.9355-30.4199 61.2305-32.4707 61.2305-35.2539C61.2305-38.0371 58.9355-40.0879 56.1523-40.332L48.1934-40.9668L33.8867-40.9668C30.8594-40.9668 28.2227-38.5254 28.2227-35.2539C28.2227-32.0312 30.8594-29.541 33.8867-29.541ZM49.9512-17.2363C51.3672-17.2363 52.3438-17.7734 53.2715-18.7012L64.5996-30.5176C66.0645-32.0312 66.6016-33.6914 66.6016-35.2539C66.6016-36.8164 66.0645-38.4766 64.5996-39.9902L53.2715-51.8066C52.3438-52.7344 51.3672-53.2715 49.9512-53.2715C47.2168-53.2715 45.3613-50.8301 45.3613-48.4863C45.3613-47.0215 45.9961-45.8008 46.9727-44.873L50.2441-41.748L54.1504-40.1367L54.1504-30.3711L50.2441-28.7598L46.9727-25.6348C45.9961-24.707 45.3613-23.4863 45.3613-22.0215C45.3613-19.6777 47.2168-17.2363 49.9512-17.2363Z" />
</svg>