<svg xmlns="http://www.w3.org/2000/svg" viewBox="9.76562 -75.2441 78.03 79.98">
  <path d="M87.793-47.4121C87.793-49.5605 86.9141-51.9043 85.5469-53.2715L66.0645-72.7539C64.4531-74.3652 62.4512-75.2441 60.3516-75.2441C55.7617-75.2441 52.6855-71.9727 52.6855-67.7246C52.6855-65.1855 53.8574-63.4277 55.3711-61.9629L59.2773-58.1543L72.9004-47.4609L59.2773-36.6699L55.3711-32.9102C53.8574-31.4453 52.6855-29.6875 52.6855-27.1484C52.6855-22.9004 55.7617-19.6289 60.3516-19.6289C62.4512-19.6289 64.4531-20.5078 66.0645-22.1191L85.5469-41.5527C86.9141-42.9199 87.793-45.2637 87.793-47.4121ZM57.8125-3.27148C57.8125-7.71484 54.248-11.2793 49.707-11.2793L40.1855-11.2793C31.543-11.2793 25.293-16.8457 25.293-25.1465C25.293-33.4473 31.543-39.4043 40.1855-39.4043L55.1758-39.4043L73.7793-40.2832C77.7344-40.4785 80.9082-43.457 80.9082-47.4121C80.9082-51.3672 77.7344-54.3457 73.7793-54.541L55.1758-55.4199L38.6719-55.4199C21.8262-55.4199 9.76562-43.0664 9.76562-25.1465C9.76562-6.73828 21.8262 4.73633 38.6719 4.73633L49.707 4.73633C54.248 4.73633 57.8125 1.17188 57.8125-3.27148Z" />
</svg>