<svg xmlns="http://www.w3.org/2000/svg" viewBox="6.83594 -77.2461 83.98 83.98">
  <path d="M48.8281 6.73828C72.0215 6.73828 90.8203-12.0605 90.8203-35.2539C90.8203-58.4473 72.0215-77.2461 48.8281-77.2461C25.6348-77.2461 6.83594-58.4473 6.83594-35.2539C6.83594-12.0605 25.6348 6.73828 48.8281 6.73828ZM30.8594-21.2402C28.5645-21.2402 27.0996-22.7051 27.0996-25C27.0996-26.0254 27.3438-26.9043 27.5391-27.6855L32.0312-44.2383C32.8613-47.4121 34.9121-48.9258 38.1348-48.9258C41.5527-48.9258 43.6523-47.4121 44.5312-44.2383L49.1211-27.6855C49.4141-26.709 49.5117-26.1719 49.5117-25C49.5117-22.7051 48.0957-21.2402 45.8496-21.2402C43.3105-21.2402 42.2363-22.5586 41.748-24.8535L41.4551-26.3184L35.1074-26.3184L34.8145-25C34.375-22.6562 33.3496-21.2402 30.8594-21.2402ZM36.1816-31.8848L40.2832-31.8848L38.3301-40.9668L37.9395-40.9668ZM60.6445-18.75C60.3027-18.75 60.0098-18.9941 60.0098-19.3848L60.0098-22.0703C56.3965-22.168 52.6367-23.4863 51.5137-26.6113C51.3184-27.1484 51.1719-27.7832 51.1719-28.5156C51.1719-30.127 52.4902-31.25 54.1992-31.25C55.957-31.25 57.0801-30.5664 57.666-29.1504C58.1055-28.0273 58.8379-27.6367 60.0098-27.5391L60.0098-31.6406L57.2754-32.6172C53.3203-34.0332 50.8301-36.2305 50.8301-40.2344C50.8301-45.2148 55.0293-47.9004 60.0098-48.0957L60.0098-50.7812C60.0098-51.1719 60.3027-51.416 60.6445-51.416C61.0352-51.416 61.2793-51.1719 61.2793-50.7812L61.2793-48.0957C64.9902-47.9492 68.1641-46.6309 69.4336-43.5547C69.6289-43.0176 69.7266-42.7246 69.7266-41.8457C69.7266-40.1855 68.3594-39.0137 66.4551-39.0137C64.9414-39.0137 63.9648-39.6973 63.2324-41.1133C62.8418-41.9434 62.207-42.4805 61.2793-42.627L61.2793-38.4277L63.916-37.5C68.1641-35.9375 70.6055-34.0332 70.6055-29.9805C70.6055-24.8535 66.2598-22.3633 61.2793-22.0703L61.2793-19.3848C61.2793-18.9941 61.0352-18.75 60.6445-18.75ZM58.0078-40.918C58.0078-39.9902 58.6426-39.502 60.0098-38.916L60.0098-42.6758C58.9355-42.5293 58.0078-41.8945 58.0078-40.918ZM61.2793-27.5391C62.3535-27.6367 63.4766-28.0273 63.4766-29.1504C63.4766-30.1758 62.793-30.6641 61.2793-31.2012Z"/>
</svg>