<svg xmlns="http://www.w3.org/2000/svg" viewBox="-0.341797 -77.2461 91.16 83.98">
  <path d="M3.85742-44.4824C0.488281-44.4824-0.341797-41.0645 1.46484-38.8184L11.9629-25.5859C13.0859-24.1211 15.332-24.1211 16.5039-25.5859L26.9531-38.8184C28.7109-41.0645 27.9297-44.4824 24.6094-44.4824ZM90.8203-35.2539C90.8203-58.4473 71.9727-77.2461 48.8281-77.2461C25.6348-77.2461 6.83594-58.4473 6.83594-35.1562C6.83594-31.25 10.0098-28.0762 13.916-28.0762C17.8223-28.0762 20.9961-31.25 20.9961-35.1562C20.9961-50.6348 33.4473-63.0859 48.8281-63.0859C64.209-63.0859 76.6602-50.6348 76.6602-35.2539C76.6602-19.873 64.209-7.42188 48.8281-7.42188C41.6016-7.42188 35.5957-9.91211 30.127-14.6484C26.7578-17.5293 22.5098-18.5059 19.3359-15.332C16.5527-12.5488 16.4551-8.1543 20.166-4.58984C28.125 3.02734 38.8184 6.73828 48.8281 6.73828C71.9727 6.73828 90.8203-12.0605 90.8203-35.2539ZM40.8691-19.5312L52.3926-19.5312C58.6914-19.5312 63.623-22.8516 63.623-28.7598C63.623-33.1055 59.9609-36.1816 55.7129-36.3281L55.7129-36.4746C59.4238-36.9141 62.207-39.7461 62.207-43.3594C62.207-49.0723 57.1777-51.2695 51.8555-51.2695L40.8691-51.2695C37.793-51.2695 36.1816-49.4141 36.1816-46.3867L36.1816-24.4141C36.1816-21.3867 37.793-19.5312 40.8691-19.5312ZM45.5566-38.5742L45.5566-44.873L49.3164-44.873C51.709-44.873 53.0762-43.7012 53.0762-41.748C53.0762-39.5508 51.3672-38.5742 49.1699-38.5742ZM45.5566-25.9277L45.5566-33.2031L49.9023-33.2031C52.3926-33.2031 54.1016-32.1289 54.1016-29.6387C54.1016-27.0508 52.5391-25.9277 49.8535-25.9277ZM44.1406-47.1191L45.9961-47.1191L45.9961-54.9805C45.9961-55.4688 45.5566-55.9082 45.0684-55.9082C44.5801-55.9082 44.1406-55.4688 44.1406-54.9805ZM49.6582-47.1191L51.5137-47.1191L51.5137-54.9805C51.5137-55.4688 51.0742-55.9082 50.5859-55.9082C50.0977-55.9082 49.6582-55.4688 49.6582-54.9805ZM44.1406-23.7793L44.1406-15.918C44.1406-15.4297 44.5801-14.9902 45.0684-14.9902C45.5566-14.9902 45.9961-15.4297 45.9961-15.918L45.9961-23.7793ZM49.6582-23.7793L49.6582-15.918C49.6582-15.4297 50.0977-14.9902 50.5859-14.9902C51.0742-14.9902 51.5137-15.4297 51.5137-15.918L51.5137-23.7793Z" />
</svg>