<svg xmlns="http://www.w3.org/2000/svg" viewBox="6.83594 -82.2266 111.28 93.95">
  <path d="M26.3672-11.1816C34.7168-11.1816 40.7227-15.3809 40.7227-23.0957C40.7227-26.123 39.209-27.6367 37.7441-29.1504C36.3281-30.5664 34.9121-31.8848 34.9121-34.4238C34.9121-37.5 37.3535-39.7461 40.625-39.7461C42.6758-39.7461 44.5312-38.8184 46.1426-37.5C47.5098-36.4258 48.6328-35.0586 49.4629-33.7402C51.8066-35.1074 52.4902-37.4023 52.4902-41.0156C52.4902-44.2383 54.834-46.8262 58.0566-46.8262C61.2793-46.8262 64.0625-44.1895 64.0625-39.9902C64.0625-31.7383 60.2539-25.3418 52.2949-22.3145C52.2949-22.1191 52.2949-21.9238 52.2949-21.7773C52.2949-15.625 49.7559-10.3516 45.8984-6.34766C48.9258-5.46875 52.1973-4.98047 55.5664-4.98047C56.9336-4.98047 58.3496-4.98047 59.7168-4.98047C59.7168-5.56641 59.7168-6.10352 59.7168-6.64062C59.7168-34.5703 97.0215-36.7676 97.0215-60.7422C97.0215-69.5801 88.4766-76.5137 77.5879-76.5137C77.1484-76.5137 76.6113-76.4648 75.9766-76.416C72.168-80.0781 67.7734-82.2266 63.2324-82.2266C56.2012-82.2266 50.6836-77.5391 50.6836-68.5547C50.6836-64.209 48.1934-61.8652 44.873-61.8652C41.5039-61.8652 39.0625-64.4531 39.0625-68.1152C39.0625-71.0449 39.5996-73.9746 40.5273-76.8066C39.3066-77.002 38.0859-77.0996 36.8164-77.0996C27.3926-77.0996 20.0195-72.0215 20.0195-65.5762C20.0195-62.207 22.5098-59.5703 25.6348-59.5703C28.8574-59.5703 31.4941-56.9336 31.4941-53.7109C31.4941-50.4883 28.8574-47.8516 25.6348-47.8516C20.1172-47.8516 15.5273-49.707 12.2559-52.8809C8.78906-48.291 6.83594-41.6504 6.83594-34.668C6.83594-21.5332 15.4297-11.1816 26.3672-11.1816ZM95.7031 11.7188C105.859 11.7188 113.184 1.9043 113.184-13.5742C113.184-14.0625 113.184-14.5508 113.184-15.0391C110.449-14.4043 107.422-14.209 104.199-14.4531C100.928-14.6973 98.4863-17.1387 98.4863-20.3125C98.4863-23.6816 101.27-26.416 104.541-26.123C112.891-25.293 118.115-29.5898 118.115-38.0371C118.115-44.9219 114.307-51.6602 108.008-55.7617C102.686-27.4414 72.2656-27.8809 72.2656-9.86328C72.2656-5.0293 76.2207-1.2207 81.25-1.2207C81.3477-1.2207 81.4941-1.2207 81.5918-1.2207C83.4961 6.44531 89.0137 11.7188 95.7031 11.7188Z"/>
</svg>