<svg xmlns="http://www.w3.org/2000/svg" viewBox="9.76562 -83.9355 65.43 97.36">
  <path d="M27.4902-57.666L27.4902-64.6484C27.4902-65.5762 28.0762-66.1621 28.9062-66.1621L37.0117-66.1621C37.8418-66.1621 38.4277-65.5762 38.4277-64.6484L38.4277-57.666C38.4277-56.7383 37.8418-56.2012 37.0117-56.2012L28.9062-56.2012C28.0762-56.2012 27.4902-56.7383 27.4902-57.666ZM46.5332-57.666L46.5332-64.6484C46.5332-65.5762 47.1191-66.1621 47.9492-66.1621L56.0547-66.1621C56.8848-66.1621 57.4707-65.5762 57.4707-64.6484L57.4707-57.666C57.4707-56.7383 56.8848-56.2012 56.0547-56.2012L47.9492-56.2012C47.1191-56.2012 46.5332-56.7383 46.5332-57.666ZM27.4902-41.9434L27.4902-48.9258C27.4902-49.8535 28.0762-50.4395 28.9062-50.4395L37.0117-50.4395C37.8418-50.4395 38.4277-49.8535 38.4277-48.9258L38.4277-41.9434C38.4277-41.0156 37.8418-40.4297 37.0117-40.4297L28.9062-40.4297C28.0762-40.4297 27.4902-41.0156 27.4902-41.9434ZM46.5332-41.9434L46.5332-48.9258C46.5332-49.8535 47.1191-50.4395 47.9492-50.4395L56.0547-50.4395C56.8848-50.4395 57.4707-49.8535 57.4707-48.9258L57.4707-41.9434C57.4707-41.0156 56.8848-40.4297 56.0547-40.4297L47.9492-40.4297C47.1191-40.4297 46.5332-41.0156 46.5332-41.9434ZM27.4902-26.2207L27.4902-33.2031C27.4902-34.1309 28.0762-34.668 28.9062-34.668L37.0117-34.668C37.8418-34.668 38.4277-34.1309 38.4277-33.2031L38.4277-26.2207C38.4277-25.293 37.8418-24.707 37.0117-24.707L28.9062-24.707C28.0762-24.707 27.4902-25.293 27.4902-26.2207ZM46.5332-26.2207L46.5332-33.2031C46.5332-34.1309 47.1191-34.668 47.9492-34.668L56.0547-34.668C56.8848-34.668 57.4707-34.1309 57.4707-33.2031L57.4707-26.2207C57.4707-25.293 56.8848-24.707 56.0547-24.707L47.9492-24.707C47.1191-24.707 46.5332-25.293 46.5332-26.2207ZM21.4355 13.4277L63.5254 13.4277C71.0449 13.4277 75.1953 9.0332 75.1953 1.26953L75.1953-71.7773C75.1953-79.541 71.0449-83.9355 63.5254-83.9355L21.4355-83.9355C13.916-83.9355 9.76562-79.541 9.76562-71.7773L9.76562 1.26953C9.76562 9.0332 13.916 13.4277 21.4355 13.4277ZM30.7617 0.439453L30.7617-9.22852C30.7617-12.1094 32.5684-14.0625 35.3027-14.0625L49.6582-14.0625C52.3926-14.0625 54.1992-12.1094 54.1992-9.22852L54.1992 0.439453Z"/>
</svg>