<svg xmlns="http://www.w3.org/2000/svg" viewBox="9.76562 -94.9707 149.71 94.97">
  <path d="M44.6289 0C51.9043 0 57.9102-5.95703 57.9102-13.2812C57.9102-20.6055 51.9043-26.5625 44.6289-26.5625C37.3047-26.5625 31.2988-20.6055 31.2988-13.2812C31.2988-5.95703 37.3047 0 44.6289 0ZM124.658 0C131.934 0 137.939-5.95703 137.939-13.2812C137.939-20.6055 131.934-26.5625 124.658-26.5625C117.334-26.5625 111.328-20.6055 111.328-13.2812C111.328-5.95703 117.334 0 124.658 0ZM146.094-53.2715L140.332-55.3711C135.01-60.0586 127.441-65.6738 118.066-68.7012L118.066-58.1055C118.066-51.0254 113.574-46.582 106.836-46.582L86.9629-46.582C80.1758-46.582 75.6836-51.0254 75.6836-58.1055L75.6836-68.457C71.4355-67.1875 67.627-65.2344 63.2812-62.5L47.5098-52.5391L30.3711-50.4883C17.627-48.9746 9.76562-40.6738 9.76562-29.4922L9.76562-24.6094C9.76562-14.209 15.3809-8.39844 25.4395-8.39844L26.0742-8.39844C25.6348-9.96094 25.4395-11.6211 25.4395-13.2812C25.4395-23.8281 34.082-32.4219 44.6289-32.4219C55.127-32.4219 63.7695-23.8281 63.7695-13.2812C63.7695-11.6211 63.5254-9.96094 63.1348-8.39844L106.104-8.39844C105.664-9.96094 105.469-11.6211 105.469-13.2812C105.469-23.8281 114.111-32.4219 124.658-32.4219C135.156-32.4219 143.799-23.8281 143.799-13.2812C143.799-11.6211 143.555-9.96094 143.164-8.39844L143.799-8.39844C153.857-8.39844 159.473-14.3066 159.473-24.9023L159.473-36.0352C159.473-44.7754 154.736-50.0977 146.094-53.2715ZM86.9629-53.0273L106.836-53.0273C110.059-53.0273 111.719-54.6387 111.719-58.2031L111.719-74.0234C111.719-77.5391 110.059-79.1992 106.836-79.1992L86.9629-79.1992C83.6914-79.1992 82.0312-77.5391 82.0312-74.0234L82.0312-58.2031C82.0312-54.6387 83.6914-53.0273 86.9629-53.0273ZM101.758-77.4902L108.105-77.4902L108.105-83.9355C108.105-86.7188 110.059-88.7207 112.793-88.7207C115.479-88.7207 117.48-86.7188 117.48-83.9355L117.48-80.4688C117.48-78.7109 118.896-77.2949 120.654-77.2949C122.412-77.2949 123.828-78.7109 123.828-80.4688L123.828-83.9355C123.828-90.4297 119.287-94.9707 112.793-94.9707C106.299-94.9707 101.758-90.4297 101.758-83.9355Z"/>
</svg>