<svg xmlns="http://www.w3.org/2000/svg" viewBox="6.83594 -90.7227 158.98 101.37">
  <path d="M23.877 5.37109C25.5371 3.27148 25 0.732422 23.1934-1.26953C18.9453-5.95703 16.5527-12.9883 16.5527-20.6055C16.5527-28.1738 18.8965-35.2539 23.1934-39.8926C25.0488-41.8945 25.5859-44.4336 23.877-46.5332C21.9727-48.8281 18.6523-49.3652 15.8203-46.3867C10.2539-40.5762 6.83594-30.6152 6.83594-20.6055C6.83594-10.498 9.66797-0.927734 15.8203 5.22461C18.75 8.1543 22.0215 7.71484 23.877 5.37109ZM37.2559-5.85938C38.7207-7.91016 38.3301-10.3516 36.8652-12.4023C35.6445-14.1113 34.4727-17.8223 34.4727-20.6055C34.4727-23.3887 35.6445-27.0996 36.8652-28.8574C38.2812-30.9082 38.7207-33.3008 37.2559-35.3516C35.5469-37.6953 31.9336-37.8906 29.3457-35.2539C26.2695-32.0801 24.7559-26.5137 24.7559-20.6055C24.7559-14.6973 26.2695-9.13086 29.3457-6.00586C31.9336-3.36914 35.5469-3.51562 37.2559-5.85938ZM148.779 5.37109C150.635 7.71484 153.906 8.1543 156.836 5.22461C162.988-0.927734 165.82-10.498 165.82-20.6055C165.82-30.6152 162.402-40.5762 156.836-46.3867C154.004-49.3652 150.684-48.8281 148.779-46.5332C147.07-44.4336 147.607-41.8945 149.463-39.8926C153.809-35.2051 156.104-28.1738 156.104-20.6055C156.104-12.9883 153.711-5.95703 149.463-1.26953C147.656 0.732422 147.119 3.27148 148.779 5.37109ZM135.4-5.85938C137.109-3.51562 140.723-3.36914 143.311-6.00586C146.387-9.13086 147.9-14.6973 147.9-20.6055C147.9-26.5137 146.387-32.0801 143.311-35.2539C140.723-37.8906 137.109-37.6953 135.4-35.3516C133.936-33.3008 134.375-30.9082 135.791-28.8574C137.012-27.0996 138.184-23.3887 138.184-20.6055C138.184-17.8223 137.012-14.1113 135.791-12.4023C134.326-10.3516 133.936-7.91016 135.4-5.85938ZM86.2305-80.1758C94.4824-80.1758 102.1-77.6855 107.178-73.0469C109.326-71.0938 112.061-70.4102 114.355-72.2656C116.895-74.3164 117.334-77.8809 114.16-81.0059C107.471-87.5488 97.168-90.7227 86.2305-90.7227C75.3906-90.7227 64.502-87.1094 58.3496-81.0059C55.1758-77.8809 55.6152-74.3164 58.1543-72.2656C60.4492-70.4102 63.1836-71.0938 65.332-73.0469C70.4102-77.6855 78.0273-80.1758 86.2305-80.1758ZM86.2793-62.4023C89.3066-62.4023 93.3105-61.1328 95.166-59.8145C97.3633-58.252 100-57.8125 102.197-59.4238C104.736-61.2793 104.932-65.1367 102.1-67.9199C98.6816-71.2402 92.627-72.9492 86.2793-72.9492C79.9316-72.9492 73.877-71.2402 70.459-67.9199C67.627-65.1367 67.8223-61.2793 70.3613-59.4238C72.5586-57.8125 75.1953-58.252 77.3926-59.8145C79.248-61.1328 83.252-62.4023 86.2793-62.4023ZM86.2793 2.39258C97.168 2.39258 110.547 1.85547 116.211 1.2207C122.021 0.537109 125.586-3.125 125.586-8.69141L125.586-13.916C125.586-20.166 125.049-23.8281 121.826-27.5391L118.75-31.0547C117.578-36.3281 115.625-41.8457 114.6-44.0918C112.598-48.3398 108.643-51.123 103.711-51.7578C100.879-52.0996 95.1172-52.3438 86.2793-52.3438C77.4414-52.3438 71.6797-52.0996 68.8477-51.7578C63.916-51.123 59.9121-48.3887 57.959-44.0918C56.9336-41.8457 54.9805-36.3281 53.8086-31.0547L50.7324-27.5391C47.5098-23.8281 46.9727-20.166 46.9727-13.916L46.9727-8.69141C46.9727-3.125 50.5371 0.537109 56.3477 1.2207C62.0117 1.85547 75.3906 2.39258 86.2793 2.39258ZM86.2793-6.88477C75.7812-6.88477 64.6484-7.4707 59.5703-8.00781C57.0312-8.25195 55.9082-9.42383 55.9082-11.7188L55.9082-15.4297C55.9082-19.1406 57.0312-21.0449 58.2031-22.6074L62.1094-27.7832C62.5977-30.2246 64.4043-37.0605 65.5762-39.4043C66.6992-41.6992 68.6523-42.627 70.8008-42.9199C73.3398-43.3105 78.1738-43.5059 86.2793-43.5059C94.3848-43.5059 99.2188-43.2617 101.758-42.9199C103.906-42.6758 105.811-41.6992 107.031-39.3066C108.105-37.2559 109.863-30.4688 110.449-27.7832L114.355-22.6074C115.527-21.0449 116.65-19.1406 116.65-15.4297L116.65-11.7188C116.65-9.42383 115.527-8.25195 112.988-8.00781C107.91-7.4707 96.7773-6.88477 86.2793-6.88477ZM66.0156-33.1055C65.5762-31.2012 66.4062-29.9805 68.457-29.9805C71.0449-30.0293 75.8301-30.2734 86.2793-30.2734C96.7285-30.2734 101.514-30.0293 104.102-29.9805C106.152-29.9805 106.982-31.2012 106.543-33.1055C106.201-34.5703 105.518-36.7188 105.078-37.5488C104.053-39.6973 102.637-40.4785 100.049-40.8203C98.6816-41.0156 93.9941-41.1133 86.2793-41.1133C78.5645-41.1133 73.877-41.0156 72.5098-40.8203C69.9219-40.4785 68.5059-39.6973 67.4805-37.5488C67.041-36.7188 66.4062-34.5703 66.0156-33.1055ZM64.6484-9.42383C67.9688-9.42383 70.459-11.9629 70.459-15.2344C70.459-18.5547 67.9688-21.0938 64.6484-21.0938C61.3281-21.0938 58.8379-18.5547 58.8379-15.2344C58.8379-11.9629 61.3281-9.42383 64.6484-9.42383ZM77.5391-10.9863L95.0195-10.9863C97.5098-10.9863 99.3164-12.793 99.3164-15.2344C99.3164-17.7246 97.5098-19.5312 95.0195-19.5312L77.5391-19.5312C75.0488-19.5312 73.2422-17.7246 73.2422-15.2344C73.2422-12.793 75.0488-10.9863 77.5391-10.9863ZM107.91-9.42383C111.23-9.42383 113.721-11.9629 113.721-15.2344C113.721-18.5547 111.23-21.0938 107.91-21.0938C104.59-21.0938 102.1-18.5547 102.1-15.2344C102.1-11.9629 104.59-9.42383 107.91-9.42383ZM53.125 10.6445L57.4707 10.6445C59.9121 10.6445 61.8652 8.74023 61.8652 6.29883L61.8652-1.95312L48.7793-6.39648L48.7793 6.29883C48.7793 8.74023 50.6836 10.6445 53.125 10.6445ZM114.893 10.6445L119.238 10.6445C121.68 10.6445 123.584 8.74023 123.584 6.29883L123.584-6.39648L110.498-1.95312L110.498 6.29883C110.498 8.74023 112.451 10.6445 114.893 10.6445Z" />
</svg>