<svg xmlns="http://www.w3.org/2000/svg" viewBox="6.64062 -94.8242 102.25 119.24">
  <path d="M33.7891-49.3164L51.9043-49.3164C55.2734-49.3164 56.8848-52.5391 55.1758-55.4199L46.2891-70.459C44.6777-73.1445 40.9668-73.1934 39.3555-70.459L30.4688-55.4199C28.8086-52.5879 30.2734-49.3164 33.7891-49.3164ZM33.7402 0.537109C30.2734 0.537109 28.7598 3.80859 30.4199 6.64062L39.3066 21.6797C40.918 24.4141 44.6777 24.3652 46.2402 21.6797L55.127 6.64062C56.8359 3.75977 55.2734 0.537109 51.8555 0.537109ZM10.5957-23.5352C14.6484-8.93555 18.8965-4.3457 28.4668-4.3457L77.2461-4.3457C84.4727-4.3457 89.3555-8.30078 91.1621-15.625L106.592-77.8809C108.887-87.1582 103.516-94.8242 93.6035-94.8242C80.5664-94.8242 72.7539-79.8828 77.7344-66.6016L80.8594-77.0996C68.8965-69.6289 63.5254-54.248 66.3086-35.3027L70.5078-41.9922C61.7676-43.6035 51.3184-44.4336 40.7715-44.4336C16.5527-44.4336 6.64062-37.5977 10.5957-23.5352ZM22.3145-26.8555C21.1914-30.7617 24.9512-32.2266 40.7715-32.2266C55.8105-32.2266 66.0156-30.0293 69.9219-30.0293C73.877-30.0293 76.6602-32.8613 76.6602-36.8164C76.6602-53.3203 79.4922-60.7422 86.1328-66.5527C87.8418-68.0176 88.5742-70.1172 88.1836-72.8027C87.207-78.8574 89.5508-82.6172 93.3594-82.6172C94.4824-82.6172 94.9707-81.9824 94.7266-80.957L79.248-18.5059C78.9062-17.0898 78.418-16.5527 77.2461-16.5527L28.4668-16.5527C25.6348-16.5527 25-17.1387 22.3145-26.8555Z"/>
</svg>