<svg xmlns="http://www.w3.org/2000/svg" viewBox="8.00781 -80.5176 102.25 90.48">
  <path d="M66.6992-31.8848C66.6992-37.6465 62.1582-40.4297 62.1582-43.0664C62.1582-44.7754 62.5488-45.459 63.7207-47.1191C66.5527-50.8789 61.1328-54.7852 58.3008-51.1719C56.3477-48.6816 55.4199-46.2402 55.4199-43.4082C55.4199-37.4023 59.8633-35.1562 59.8633-31.8848C59.8633-28.6133 55.4199-26.3672 55.4199-20.3613C55.4199-17.5293 56.3477-15.0879 58.3008-12.5977C61.1328-8.98438 66.5527-12.8906 63.7207-16.6504C62.5488-18.3105 62.1582-18.9941 62.1582-20.7031C62.1582-23.3398 66.6992-26.123 66.6992-31.8848ZM79.248-31.8848C79.248-37.6465 74.707-40.4297 74.707-43.0664C74.707-44.7754 75.0977-45.459 76.2695-47.1191C79.1016-50.8789 73.6816-54.7852 70.8496-51.1719C68.8965-48.6816 67.9688-46.2402 67.9688-43.4082C67.9688-37.4023 72.4121-35.1562 72.4121-31.8848C72.4121-28.6133 67.9688-26.3672 67.9688-20.3613C67.9688-17.5293 68.8965-15.0879 70.8496-12.5977C73.6816-8.98438 79.1016-12.8906 76.2695-16.6504C75.0977-18.3105 74.707-18.9941 74.707-20.7031C74.707-23.3398 79.248-26.123 79.248-31.8848ZM91.7969-31.8848C91.7969-37.6465 87.2559-40.4297 87.2559-43.0664C87.2559-44.7754 87.6465-45.459 88.8184-47.1191C91.6504-50.8789 86.2305-54.7852 83.3984-51.1719C81.4453-48.6816 80.5176-46.2402 80.5176-43.4082C80.5176-37.4023 84.9609-35.1562 84.9609-31.8848C84.9609-28.6133 80.5176-26.3672 80.5176-20.3613C80.5176-17.5293 81.4453-15.0879 83.3984-12.5977C86.2305-8.98438 91.6504-12.8906 88.8184-16.6504C87.6465-18.3105 87.2559-18.9941 87.2559-20.7031C87.2559-23.3398 91.7969-26.123 91.7969-31.8848ZM106.299-9.22852C110.254-23.291 100.342-30.127 76.123-30.127C65.5762-30.127 55.127-29.2969 46.3867-27.6855L50.5859-20.9961C53.3691-39.9414 47.998-55.3223 36.0352-62.793L39.1602-52.2949C44.1406-65.5762 36.3281-80.5176 23.291-80.5176C13.3789-80.5176 8.00781-72.8516 10.3027-63.5742L25.7324-1.31836C27.5391 6.00586 32.4219 9.96094 39.6484 9.96094L88.4277 9.96094C97.998 9.96094 102.246 5.37109 106.299-9.22852ZM94.5801-12.5488C91.8945-2.83203 91.2598-2.24609 88.4277-2.24609L39.6484-2.24609C38.4766-2.24609 37.9883-2.7832 37.6465-4.19922L22.168-66.6504C21.9238-67.6758 22.4121-68.3105 23.5352-68.3105C27.3438-68.3105 29.6875-64.5508 28.7109-58.4961C28.3203-55.8105 29.0527-53.7109 30.7617-52.2461C37.4023-46.4355 40.2344-39.0137 40.2344-22.5098C40.2344-18.5547 43.0176-15.7227 46.9727-15.7227C50.8789-15.7227 61.084-17.9199 76.123-17.9199C91.9434-17.9199 95.7031-16.4551 94.5801-12.5488Z"/>
</svg>