<svg xmlns="http://www.w3.org/2000/svg" viewBox="9.76562 -77.3926 62.65 84.23">
  <path d="M43.3105-1.2207C54.6875-1.2207 66.9922-6.15234 71.3379-16.9922C71.9727-18.457 72.4121-20.5078 72.4121-22.2168C72.4121-27.1973 68.9941-30.9082 63.1836-30.9082C58.8379-30.9082 56.4941-29.0039 54.6875-25.0488C52.1973-19.6289 48.3398-16.7969 42.8223-16.7969C33.252-16.7969 30.127-25.7812 30.127-35.2051C30.127-44.3848 33.2031-53.4668 42.7734-53.4668C48.3887-53.4668 52.1973-50.4883 54.4922-45.6055C56.2988-41.7969 59.0332-39.7461 63.4766-39.7461C68.9453-39.7461 71.9727-43.3105 71.9727-48.0957C71.9727-50.5371 71.1426-53.0762 69.9707-55.2246C64.502-65.0391 54.1992-69.0918 42.5781-69.0918C22.2656-69.0918 9.76562-56.543 9.76562-35.1562C9.76562-13.3789 22.168-1.2207 43.3105-1.2207ZM42.4316 6.83594C43.5547 6.83594 44.3848 6.00586 44.3848 4.83398L44.3848-75.3906C44.3848-76.5625 43.5547-77.3926 42.4316-77.3926C41.2598-77.3926 40.4297-76.5625 40.4297-75.3906L40.4297 4.83398C40.4297 6.00586 41.2598 6.83594 42.4316 6.83594Z"/>
</svg>