<svg xmlns="http://www.w3.org/2000/svg" viewBox="6.83594 -77.2461 91.16 83.98">
  <path d="M93.7988-44.4824L73.0469-44.4824C69.7266-44.4824 68.9453-41.0645 70.7031-38.8184L81.1523-25.5859C82.3242-24.1211 84.5703-24.1211 85.6934-25.5859L96.1914-38.8184C97.998-41.0645 97.168-44.4824 93.7988-44.4824ZM48.8281 6.73828C52.7344 6.73828 55.9082 3.56445 55.9082-0.341797C55.9082-4.24805 52.7344-7.42188 48.8281-7.42188C33.4473-7.42188 20.9961-19.873 20.9961-35.2539C20.9961-50.6348 33.4473-63.0859 48.8281-63.0859C64.209-63.0859 76.6602-50.6348 76.6602-35.1562C76.6602-31.25 79.834-28.0762 83.7402-28.0762C87.6465-28.0762 90.8203-31.25 90.8203-35.1562C90.8203-58.4473 72.0215-77.2461 48.8281-77.2461C25.6836-77.2461 6.83594-58.4473 6.83594-35.2539C6.83594-12.0605 25.6836 6.73828 48.8281 6.73828ZM62.6465 2.14844C65.332 2.14844 67.4805 0 67.4805-2.68555C67.4805-5.41992 65.332-7.56836 62.6465-7.56836C59.9121-7.56836 57.7637-5.41992 57.7637-2.68555C57.7637 0 59.9121 2.14844 62.6465 2.14844ZM72.9492-4.05273C75.6348-4.05273 77.7832-6.20117 77.7832-8.88672C77.7832-11.6211 75.6348-13.7695 72.9492-13.7695C70.2148-13.7695 68.0664-11.6211 68.0664-8.88672C68.0664-6.20117 70.2148-4.05273 72.9492-4.05273ZM80.6152-12.6465C83.3008-12.6465 85.4492-14.7949 85.4492-17.4805C85.4492-20.2148 83.3008-22.3633 80.6152-22.3633C77.8809-22.3633 75.7324-20.2148 75.7324-17.4805C75.7324-14.7949 77.8809-12.6465 80.6152-12.6465ZM32.8125-27.3926L48.8281-27.3926C51.5625-27.3926 53.7109-29.541 53.7109-32.2754L53.7109-53.7598C53.7109-56.4941 51.5625-58.6426 48.8281-58.6426C46.0938-58.6426 43.9453-56.4941 43.9453-53.7598L43.9453-37.1582L32.8125-37.1582C30.0781-37.1582 27.9297-35.0098 27.9297-32.2754C27.9297-29.541 30.0781-27.3926 32.8125-27.3926Z"/>
</svg>