<svg xmlns="http://www.w3.org/2000/svg" viewBox="9.76562 -78.5645 71.87 86.72">
  <path d="M16.8457 8.1543C20.752 8.1543 23.9258 4.98047 23.9258 1.07422L23.9258-62.0605C23.9258-63.5254 24.8047-64.4043 26.2695-64.4043L65.1367-64.4043C66.6016-64.4043 67.4805-63.5254 67.4805-62.0605L67.4805 1.07422C67.4805 4.98047 70.6543 8.1543 74.5605 8.1543C78.4668 8.1543 81.6406 4.98047 81.6406 1.07422L81.6406-64.3066C81.6406-73.291 76.3672-78.5645 67.3828-78.5645L24.0234-78.5645C15.0391-78.5645 9.76562-73.291 9.76562-64.3066L9.76562 1.07422C9.76562 4.98047 12.9395 8.1543 16.8457 8.1543ZM29.7852 5.07812L61.6211 5.07812C62.1582 5.07812 62.5977 4.63867 62.5977 4.10156L62.5977-58.5449C62.5977-59.082 62.1582-59.5215 61.6211-59.5215L29.7852-59.5215C29.248-59.5215 28.8086-59.082 28.8086-58.5449L28.8086 4.10156C28.8086 4.63867 29.248 5.07812 29.7852 5.07812ZM53.1738-26.4648C51.4648-26.4648 50.0977-27.8809 50.0977-29.5898C50.0977-31.2988 51.4648-32.7148 53.1738-32.7148C54.9316-32.7148 56.2988-31.2988 56.2988-29.5898C56.2988-27.8809 54.9316-26.4648 53.1738-26.4648Z"/>
</svg>