<svg xmlns="http://www.w3.org/2000/svg" viewBox="6.83594 -77.2461 83.98 83.98">
  <path d="M48.8281 6.73828C72.0215 6.73828 90.8203-12.0605 90.8203-35.2539C90.8203-58.4473 72.0215-77.2461 48.8281-77.2461C25.6348-77.2461 6.83594-58.4473 6.83594-35.2539C6.83594-12.0605 25.6348 6.73828 48.8281 6.73828ZM48.8281-15.5273C39.9902-15.5273 34.2285-21.2402 34.2285-29.8828C34.2285-32.959 35.4004-36.5234 37.207-40.2832C39.2578-44.6777 42.2363-49.4141 45.1172-53.8574C46.2402-55.4199 47.5098-56.4453 48.8281-56.4453C50.1465-56.4453 51.416-55.4199 52.5391-53.8574C55.3711-49.4141 58.3496-44.7754 60.4492-40.332C62.2559-36.5723 63.4277-32.959 63.4277-29.8828C63.4277-21.2402 57.666-15.5273 48.8281-15.5273Z"/>
</svg>