<svg xmlns="http://www.w3.org/2000/svg" viewBox="6.83594 -77.002 99.61 83.45">
  <path d="M6.83594-27.2461C6.83594-14.9414 11.2793-3.71094 18.6523 4.98047C19.8242 6.34766 21.7773 6.39648 23.0469 5.07812L32.7637-4.6875C33.8867-5.81055 33.8867-7.37305 32.9102-8.64258C28.8574-13.7207 26.4648-20.2148 26.4648-27.2461C26.4648-42.3828 37.5977-54.8828 52.0996-57.0801C53.6133-57.3242 54.6875-58.4473 54.6875-59.9609L54.6875-73.7793C54.6875-75.6348 53.2715-77.002 51.416-76.8066C26.416-74.1699 6.83594-52.9785 6.83594-27.2461ZM106.445-27.2461C106.445-52.9785 86.9141-74.1699 61.8652-76.8066C60.0098-77.002 58.5938-75.6348 58.5938-73.7793L58.5938-59.9609C58.5938-58.4473 59.668-57.3242 61.1816-57.0801C75.6836-54.8828 86.8164-42.3828 86.8164-27.2461C86.8164-20.2148 84.4238-13.7207 80.3223-8.59375C79.3457-7.32422 79.3457-5.76172 80.4688-4.63867L90.1855 5.12695C91.4551 6.44531 93.4082 6.39648 94.5801 5.0293C102.002-3.71094 106.445-14.9414 106.445-27.2461ZM43.5547-16.0645L51.709-16.0645C53.5645-16.0645 54.7363-16.9434 54.7363-18.7988C54.7363-20.5078 53.5645-21.5332 51.709-21.5332L47.0703-21.5332L47.0703-25.3418L51.6602-25.3418C53.2715-25.3418 54.2969-26.1719 54.2969-27.7832C54.2969-29.4922 53.1738-30.2734 51.6602-30.2734L47.0703-30.2734L47.0703-34.082L51.709-34.082C53.5645-34.082 54.7363-35.0586 54.7363-36.8164C54.7363-38.6719 53.5645-39.5508 51.709-39.5508L43.5547-39.5508C41.3574-39.5508 40.0879-38.1836 40.0879-35.9375L40.0879-19.6777C40.0879-17.4316 41.3574-16.0645 43.5547-16.0645ZM61.0352-16.0645L71.2891-16.0645C73.0469-16.0645 73.9746-17.041 73.9746-18.7988C73.9746-20.5078 73.0469-21.5332 71.2891-21.5332L65.2832-21.5332L65.2832-21.6797L72.7539-33.8379C73.0957-34.4238 73.4863-35.1562 73.4863-36.377C73.4863-38.4277 72.168-39.5508 70.1172-39.5508L60.498-39.5508C58.6914-39.5508 57.4219-38.623 57.4219-36.8164C57.4219-35.0098 58.6914-34.082 60.498-34.082L65.8691-34.082L65.8691-33.8867L58.3008-21.6797C57.9102-20.9473 57.6172-19.9219 57.6172-19.043C57.6172-17.041 59.082-16.0645 61.0352-16.0645Z"/>
</svg>