<svg xmlns="http://www.w3.org/2000/svg" viewBox="6.83594 -77.2461 83.98 83.98">
  <path d="M35.2051-24.2676C41.2598-24.2676 46.1914-29.1992 46.1914-35.2539C46.1914-41.3086 41.2598-46.2402 35.2051-46.2402C29.1504-46.2402 24.2188-41.3086 24.2188-35.2539C24.2188-29.1992 29.1504-24.2676 35.2051-24.2676ZM62.4512-24.2676C68.5059-24.2676 73.4375-29.1992 73.4375-35.2539C73.4375-41.3086 68.5059-46.2402 62.4512-46.2402C56.3965-46.2402 51.4648-41.3086 51.4648-35.2539C51.4648-29.1992 56.3965-24.2676 62.4512-24.2676ZM42.9199-47.168C43.9941-46.0938 45.7031-46.0938 46.7773-47.168L48.8281-49.2188L50.8789-47.168C51.9531-46.0938 53.6133-46.0449 54.7363-47.1191C55.9082-48.2422 55.8594-49.9023 54.7363-51.0254L52.6855-53.0762L54.7363-55.127C55.8594-56.25 55.9082-57.9102 54.7363-58.9844C53.6621-60.1074 52.002-60.1074 50.8789-58.9844L48.8281-56.9336L46.7773-58.9844C45.6543-60.1074 43.9453-60.1074 42.9199-58.9844C41.8457-57.9102 41.8457-56.2012 42.9199-55.127L44.9707-53.0762L42.9199-51.0254C41.8457-49.9512 41.8457-48.2422 42.9199-47.168ZM42.9199-11.5234C43.9941-10.4004 45.6543-10.4004 46.7773-11.5234L48.8281-13.5742L50.8789-11.5234C52.002-10.4004 53.6621-10.4004 54.7363-11.5234C55.9082-12.5977 55.8594-14.2578 54.7363-15.3809L52.6855-17.4316L54.7363-19.4824C55.8594-20.6055 55.9082-22.2656 54.7363-23.3398C53.6133-24.5117 52.002-24.4629 50.8789-23.3398L48.8281-21.2891L46.7773-23.3398C45.6543-24.4629 44.043-24.5117 42.9199-23.3398C41.7969-22.2656 41.7969-20.6055 42.9199-19.4824L44.9707-17.4316L42.9199-15.3809C41.7969-14.2578 41.7969-12.5977 42.9199-11.5234ZM48.8281 6.73828C72.0215 6.73828 90.8203-12.0605 90.8203-35.2539C90.8203-58.4473 72.0215-77.2461 48.8281-77.2461C25.6348-77.2461 6.83594-58.4473 6.83594-35.2539C6.83594-12.0605 25.6348 6.73828 48.8281 6.73828ZM48.8281-7.42188C33.4473-7.42188 20.9961-19.873 20.9961-35.2539C20.9961-50.6348 33.4473-63.0859 48.8281-63.0859C64.209-63.0859 76.6602-50.6348 76.6602-35.2539C76.6602-19.873 64.209-7.42188 48.8281-7.42188Z"/>
</svg>