<svg xmlns="http://www.w3.org/2000/svg" viewBox="2.88086 -85.3027 128.13 100.24">
  <path d="M66.9434-60.0586C78.1738-60.0586 88.0371-67.7734 88.0371-76.7578C88.0371-80.1758 86.1328-82.3242 82.1777-83.4473C77.832-84.668 72.7539-85.3027 66.9434-85.3027C61.1328-85.3027 56.0547-84.668 51.709-83.4473C47.7539-82.3242 45.8496-80.1758 45.8496-76.7578C45.8496-67.7734 55.7129-60.0586 66.9434-60.0586ZM66.9434-67.8711C60.5957-67.8711 55.6641-70.8008 54.0039-75.4395C53.9062-75.7324 54.1016-76.0254 54.3945-76.123C58.6426-77.0508 62.793-77.5391 66.9434-77.5391C71.0938-77.5391 75.293-77.0508 79.4922-76.123C79.7852-76.0254 79.9805-75.7324 79.8828-75.4395C78.2715-70.8496 73.3398-67.8711 66.9434-67.8711ZM62.3047-65.7227L62.3047-38.3301L71.582-38.3301L71.582-65.7227ZM66.9434-35.791C70.5078-35.791 74.4629-34.6191 77.002-32.7637L84.1309-37.4512C80.3223-41.5527 73.6328-44.0918 66.9434-44.0918C60.3516-44.0918 53.7598-41.6016 49.9512-37.5488L57.3242-33.0078C59.8633-34.7656 63.5254-35.791 66.9434-35.791ZM66.9434-4.05273C79.1016-4.05273 87.2559-9.61914 87.2559-17.9688C87.2559-26.3184 79.1016-31.8848 66.9434-31.8848C54.7852-31.8848 46.6309-26.3184 46.6309-17.9688C46.6309-9.61914 54.7852-4.05273 66.9434-4.05273ZM66.9434-12.3535C59.7168-12.3535 54.9316-14.6973 54.9316-17.9688C54.9316-21.2402 59.7168-23.584 66.9434-23.584C74.1699-23.584 78.9551-21.2402 78.9551-17.9688C78.9551-14.6973 74.1699-12.3535 66.9434-12.3535ZM70.6543-29.9805L27.0996-52.1484C12.1094-59.7656 2.88086-39.6973 16.2109-33.3008L52.0508-16.0645L53.9551-24.9512L20.0195-41.2109C16.8945-42.7246 18.6523-46.5332 22.2656-44.6777L59.1797-25.9277ZM50.9766-14.2578L50.9766-24.0234L25.0977-11.5723C10.6934-4.63867 20.9961 14.9414 34.375 8.00781L62.5977-6.5918L54.1016-12.1582L30.3223 0.146484C27.1973 1.75781 25.0488-1.80664 28.5156-3.4668ZM63.2324-29.9805L74.707-25.9277L111.621-44.6777C115.234-46.5332 116.992-42.7246 113.867-41.2109L79.9316-24.9512L81.8359-16.0645L117.676-33.3008C131.006-39.6973 121.777-59.7656 106.787-52.1484ZM82.9102-14.2578L105.371-3.4668C108.838-1.80664 106.689 1.75781 103.564 0.146484L79.7852-12.1582L71.2891-6.5918L99.5117 8.00781C112.891 14.9414 123.193-4.63867 108.789-11.5723L82.9102-24.0234Z"/>
</svg>