<svg xmlns="http://www.w3.org/2000/svg" viewBox="9.76562 -79.8828 108.06 89.26">
  <path d="M79.9805-60.3516C85.3516-60.3516 89.7461-64.7461 89.7461-70.1172C89.7461-75.4883 85.3516-79.8828 79.9805-79.8828C74.6094-79.8828 70.2148-75.4883 70.2148-70.1172C70.2148-64.7461 74.6094-60.3516 79.9805-60.3516ZM95.1172-4.73633C94.9707-2.92969 96.4355-1.46484 97.998-1.26953C99.7559-1.12305 101.367-2.44141 101.514-4.24805L105.176-50.1465L98.8281-50.6348ZM77.7832-24.8535L67.9688-32.666L75.0488-45.0684L87.3047-35.7422C89.5996-33.9844 92.041-33.9355 93.9453-36.0352L103.955-47.2656C107.959-51.8066 101.221-59.1797 96.582-53.7598L90.1855-46.3379L79.4434-55.0781C75.8789-58.0078 70.9961-61.3281 64.4531-61.0352L45.6543-60.2051C43.2617-60.1074 40.918-58.5449 40.7227-55.3223L39.7949-40.2344C39.4043-34.1797 49.1699-32.373 49.6094-40.2344L50.1953-50.8301L58.9355-51.123L52.2461-38.9648C49.6094-34.1797 50.9277-28.8574 55.7617-26.0254L70.0195-17.7246L70.0195 1.5625C70.0195 4.29688 72.2168 6.49414 74.9512 6.49414C77.6855 6.49414 79.8828 4.29688 79.8828 1.5625L79.8828-20.9473C79.8828-22.3633 79.4434-23.5352 77.7832-24.8535ZM12.8906-10.7422C11.6699-9.57031 11.7188-7.51953 12.793-6.29883C14.0625-5.0293 16.1621-5.0293 17.4316-6.25L47.9492-36.1816L43.3594-40.5273ZM50.293-24.1211L48.8281-18.457L32.4219-3.17383C27.3926 1.51367 34.2285 8.74023 39.4043 3.90625L56.4453-12.0117C57.5195-13.0371 57.9102-13.8184 58.3496-14.8438L59.7168-18.0664L53.3203-21.8262C52.1973-22.5098 51.1719-23.2422 50.293-24.1211ZM104.834 9.375C108.936 9.375 112.061 8.05664 115.039 6.78711C117.139 5.85938 117.822 3.61328 117.188 1.9043C116.504 0.0488281 114.16-1.46484 111.67-0.146484C109.473 0.976562 107.959 1.5625 104.834 1.5625L35.6445 1.5625C33.5938 1.5625 31.7383 3.22266 31.7383 5.37109C31.7383 7.42188 33.3984 9.375 35.6445 9.375ZM82.8613 9.375L82.8613 1.5625L13.6719 1.5625C11.6211 1.5625 9.76562 3.22266 9.76562 5.37109C9.76562 7.42188 11.4258 9.375 13.6719 9.375Z"/>
</svg>