<svg xmlns="http://www.w3.org/2000/svg" viewBox="6.83594 -77.2461 83.98 83.98">
  <path d="M48.8281 6.73828C72.0215 6.73828 90.8203-12.0605 90.8203-35.2539C90.8203-58.4473 72.0215-77.2461 48.8281-77.2461C25.6348-77.2461 6.83594-58.4473 6.83594-35.2539C6.83594-12.0605 25.6348 6.73828 48.8281 6.73828ZM48.8281-7.42188C33.4473-7.42188 20.9961-19.873 20.9961-35.2539C20.9961-50.6348 33.4473-63.0859 48.8281-63.0859C64.209-63.0859 76.6602-50.6348 76.6602-35.2539C76.6602-19.873 64.209-7.42188 48.8281-7.42188ZM53.4668-46.5332C55.8105-46.5332 57.7637-48.4863 57.7637-50.8301C57.7637-53.2227 55.8105-55.127 53.4668-55.127C51.0742-55.127 49.1699-53.2227 49.1699-50.8301C49.1699-48.4863 51.0742-46.5332 53.4668-46.5332ZM43.6523-10.8887C44.873-10.8887 45.8984-11.9141 45.8984-13.1348L45.8984-21.4844L49.0723-26.1719C49.3652-26.5625 49.9023-26.416 49.9512-25.9766L50.4395-22.0215C50.4883-21.7285 50.5371-21.4844 50.6836-21.1426L54.0039-12.3535C54.541-10.9863 55.8594-10.6934 56.8848-11.0352C57.9102-11.4258 58.7402-12.5488 58.2031-13.916L54.9316-22.6074L54.9316-39.5508C54.9316-41.5527 54.0527-43.7988 52.0508-44.6289L50.8789-45.1172C48.6816-46.0449 46.582-45.7031 44.7266-44.3848L40.6738-41.4551L37.0117-43.0176L46.0938-55.6152L48.877-55.6152C50.0488-55.6152 51.0254-56.6406 51.0254-57.7637C51.0254-58.9844 50.0488-59.9609 48.877-59.9609L45.8984-59.9609C45.4102-59.9609 44.8242-59.7168 44.4824-59.2773L32.9102-43.3105C31.8359-41.8457 32.2754-40.1855 33.6914-39.5508L40.0391-36.8164C40.3809-36.6699 40.7227-36.6699 41.1133-36.6699L45.4102-36.6699C45.8496-36.6699 45.9473-36.5234 45.9473-36.1328L45.9473-31.2988L41.6504-23.1934C41.4551-22.8516 41.4062-22.5098 41.4062-22.1191L41.4062-13.1348C41.4062-11.9141 42.3828-10.8887 43.6523-10.8887Z" />
</svg>