<svg xmlns="http://www.w3.org/2000/svg" viewBox="9.27734 -79.541 115.77 88.72">
  <path d="M37.4023-60.0586C42.7246-60.0586 47.168-64.502 47.168-69.7266C47.168-75.1953 42.7246-79.541 37.4023-79.541C31.9336-79.541 27.6367-75.1953 27.6367-69.7266C27.6367-64.502 31.9336-60.0586 37.4023-60.0586ZM18.5059-24.2188L45.752-54.4922C43.2617-55.2734 40.5273-55.7617 37.4023-55.7617C24.8047-55.7617 17.334-49.6582 17.334-39.5508C17.334-37.207 17.5293-33.8867 17.8711-30.5176ZM56.1523-24.2188L56.8848-30.5176C57.2754-33.8867 57.373-37.207 57.373-39.5508C57.373-44.3359 55.7617-48.1934 52.6855-50.9277L31.9824-27.8809C33.7402-28.0762 35.5957-28.125 37.4023-28.125C43.5547-28.125 49.8047-27.3438 56.1523-24.2188ZM27.2949 8.88672C30.2246 8.54492 32.1289 6.44531 31.7383 2.73438L30.127-12.6465L44.5801-12.6465L42.9199 2.73438C42.5293 6.44531 44.5312 8.54492 47.5098 8.88672C50.5371 9.17969 52.7832 7.42188 53.1738 3.75977L55.2734-16.0156C49.6094-19.2871 43.3594-20.5566 37.4023-20.5566C31.3477-20.5566 25.0488-19.2871 19.3359-16.0156L21.5332 3.75977C21.9238 7.42188 24.2188 9.17969 27.2949 8.88672ZM52.6855-50.9277L60.5957-59.7656C62.4023-61.8164 62.3535-63.9648 60.498-65.4785C58.8379-66.8945 56.7871-66.9434 54.9316-64.8438L45.752-54.4922C48.3398-53.6621 50.7324-52.4902 52.6855-50.9277ZM12.1094-20.4102C9.32617-18.5059 9.27734-15.918 10.5469-14.3555C11.6211-12.8906 13.7695-12.3535 15.8691-13.8672C16.9434-14.6973 18.1152-15.4297 19.3359-16.0156L18.5059-24.2188C16.2598-23.1445 14.1113-21.9238 12.1094-20.4102ZM62.5977-20.4102C60.5469-21.9238 58.3984-23.1445 56.1523-24.2188L55.3223-16.0156C56.543-15.4297 57.8125-14.6973 58.8379-13.8672C60.9375-12.3535 63.0859-12.8906 64.1602-14.3555C65.3809-15.918 65.332-18.5059 62.5977-20.4102ZM78.9062-40.3809L78.9062-29.3457C78.9062-26.2207 81.2012-23.877 84.4727-23.877L93.7012-23.877C96.8262-23.877 99.1699-26.2207 99.1699-29.3457L99.1699-40.3809C99.1699-43.6035 96.8262-45.9473 93.7012-45.9473L84.4727-45.9473C81.2012-45.9473 78.9062-43.6035 78.9062-40.3809ZM104.785-40.3809L104.785-29.3457C104.785-26.2207 107.178-23.877 110.303-23.877L119.531-23.877C122.754-23.877 125.049-26.2207 125.049-29.3457L125.049-40.3809C125.049-43.6035 122.754-45.9473 119.531-45.9473L110.303-45.9473C107.178-45.9473 104.785-43.6035 104.785-40.3809ZM93.2129-52.7344L110.596-52.7344C112.061-52.7344 112.256-54.248 111.23-54.9805L104.004-60.0586C102.588-61.0352 101.318-61.0352 99.9023-60.0586L92.5781-54.9805C91.5527-54.248 91.748-52.7344 93.2129-52.7344Z"/>
</svg>