<svg xmlns="http://www.w3.org/2000/svg" viewBox="-1.51367 -91.3574 121.19 103.42">
  <path d="M-0.0488281-62.2559L9.96094-49.6094C10.791-48.5352 12.0117-48.5352 13.0859-48.9258C15.4785-50.0488 18.6035-51.0254 21.0938-51.0254C23.6328-51.0254 26.709-49.9512 29.1016-48.9258C30.1758-48.4375 31.3477-48.584 32.1777-49.6094L42.2363-62.2559C43.7012-64.1113 43.4082-66.2598 41.6016-67.627C37.207-71.1426 29.1016-73.3887 21.0938-73.3887C13.0859-73.3887 5.0293-71.1426 0.634766-67.627C-1.2207-66.2598-1.51367-64.0625-0.0488281-62.2559ZM10.9863-42.041C9.81445-43.5547 9.32617-44.9219 9.32617-46.4844C9.32617-50.0488 12.1582-50.6836 12.1582-52.832C12.1582-54.8828 9.32617-55.6152 9.32617-59.2285C9.32617-60.6934 9.81445-62.0605 10.9863-63.623C12.3535-65.2344 14.8438-63.4766 13.4766-61.7188C12.6953-60.5957 12.5488-60.0098 12.5488-59.2285C12.5488-56.7871 15.2832-56.1523 15.2832-52.832C15.2832-49.4629 12.5488-48.877 12.5488-46.4844C12.5488-45.6543 12.6953-45.0195 13.4766-43.9453C14.8438-42.1387 12.3535-40.332 10.9863-42.041ZM20.0684-42.041C18.8477-43.5547 18.4082-44.9219 18.4082-46.4844C18.4082-50.0488 21.1914-50.6836 21.1914-52.832C21.1914-54.8828 18.4082-55.6152 18.4082-59.2285C18.4082-60.6934 18.8477-62.0605 20.0684-63.623C21.4355-65.2344 23.9258-63.4766 22.6074-61.7188C21.7773-60.5957 21.582-60.0098 21.582-59.2285C21.582-56.7871 24.3164-56.1523 24.3164-52.832C24.3164-49.4629 21.582-48.877 21.582-46.4844C21.582-45.6543 21.7773-45.0195 22.6074-43.9453C23.9258-42.1387 21.4355-40.332 20.0684-42.041ZM29.1504-42.041C27.9785-43.5547 27.4902-44.9219 27.4902-46.4844C27.4902-50.0488 30.3223-50.6836 30.3223-52.832C30.3223-54.8828 27.4902-55.6152 27.4902-59.2285C27.4902-60.6934 27.9785-62.0605 29.1504-63.623C30.5664-65.2344 33.0078-63.4766 31.6895-61.7188C30.8594-60.5957 30.6641-60.0098 30.6641-59.2285C30.6641-56.7871 33.4473-56.1523 33.4473-52.832C33.4473-49.4629 30.6641-48.877 30.6641-46.4844C30.6641-45.6543 30.8594-45.0195 31.6895-43.9453C33.0078-42.1387 30.5664-40.332 29.1504-42.041ZM56.2988-66.6504L56.2988-82.7637C56.2988-84.5703 54.7852-86.084 52.9785-86.084C51.1719-86.084 49.6582-84.5703 49.6582-82.7637L49.6582-66.6504C49.6582-64.8438 51.1719-63.3301 52.9785-63.3301C54.7852-63.3301 56.2988-64.8438 56.2988-66.6504ZM45.166-75.5371L60.8398-75.5371C64.0137-75.5371 65.332-78.6133 63.1836-81.0059L55.3223-89.7949C53.9551-91.3574 52.1484-91.3086 50.7324-89.7949L42.7246-81.0059C40.7227-78.8574 41.8945-75.5371 45.166-75.5371ZM61.2305-55.6641L77.3438-55.6641C79.1504-55.6641 80.6641-57.1777 80.6641-58.9844C80.6641-60.791 79.1504-62.3047 77.3438-62.3047L61.2305-62.3047C59.4238-62.3047 57.9102-60.791 57.9102-58.9844C57.9102-57.1777 59.4238-55.6641 61.2305-55.6641ZM70.1172-66.8457L70.1172-51.1719C70.1172-47.9004 73.4375-46.7285 75.5859-48.7305L84.375-56.7383C85.8887-58.1543 85.9375-59.9609 84.375-61.3281L75.5859-69.1895C73.1934-71.3379 70.1172-70.0195 70.1172-66.8457ZM107.275-55.3223C114.16-55.3223 119.678-60.9375 119.678-67.5293C119.678-74.4141 114.16-79.9316 107.275-79.9316C100.439-79.9316 95.0684-74.4141 95.0684-67.5293C95.0684-60.9375 100.439-55.3223 107.275-55.3223ZM35.4492 9.32617C38.1836 12.0605 42.5293 11.8652 45.8008 8.44727L64.502-10.9375C65.2832-11.7188 65.8691-11.7676 66.9434-11.377L80.4199-6.39648C89.7949-2.92969 100.732-7.22656 105.469-15.8203L113.721-30.8105C117.578-37.8418 116.26-44.5801 109.766-48.2422C103.418-51.8066 96.8262-49.2676 92.9199-42.2363L80.8594-20.3613L70.9961-24.0723C65.0391-26.3184 59.9609-25.5859 55.127-20.5566L35.8887-0.390625C32.666 2.97852 32.959 6.88477 35.4492 9.32617Z"/>
</svg>