<svg xmlns="http://www.w3.org/2000/svg" viewBox="8.88672 -86.0352 69.97 101.56">
  <path d="M38.2324-68.2129C43.2129-68.2129 47.1191-72.168 47.1191-77.1484C47.1191-82.1289 43.2129-86.0352 38.2324-86.0352C33.252-86.0352 29.2969-82.1289 29.2969-77.1484C29.2969-72.168 33.252-68.2129 38.2324-68.2129ZM38.2324-75.0977C37.0605-75.0977 36.1816-75.9766 36.1816-77.1484C36.1816-78.2715 37.0605-79.1504 38.2324-79.1504C39.3555-79.1504 40.2344-78.2715 40.2344-77.1484C40.2344-75.9766 39.3555-75.0977 38.2324-75.0977ZM18.1641-53.0762C21.582-60.6445 29.8828-65.4297 39.6484-65.4297L55.0781-65.4297L55.0781-74.2188L39.6484-74.2188C26.3184-74.2188 14.9414-67.4805 10.1562-56.6895C8.88672-53.9062 10.8398-50.4883 14.1602-50.4883C15.9668-50.4883 17.4805-51.5625 18.1641-53.0762ZM49.2676-72.7051L49.2676-66.9434C49.2676-64.5996 51.0254-62.6465 53.3691-62.4512L73.8281-60.7422C76.6113-60.498 78.8574-62.5 78.8574-65.3809L78.8574-74.2676C78.8574-77.0996 76.6113-79.1504 73.8281-78.9062L53.3691-77.1973C51.0254-77.002 49.2676-75.0488 49.2676-72.7051ZM34.7168-67.9688L34.7168-56.2988L44.4824-56.2988L44.4824-67.9688ZM30.5176 15.5273L48.6816 15.5273C55.3223 15.5273 60.1074 10.7422 60.1074 4.10156L60.1074-40.5762C60.1074-52.5391 51.5625-61.084 39.5996-61.084C27.6367-61.084 19.0918-52.5391 19.0918-40.5762L19.0918 4.10156C19.0918 10.7422 23.877 15.5273 30.5176 15.5273Z"/>
</svg>