<svg xmlns="http://www.w3.org/2000/svg" viewBox="6.83594 -77.2461 83.98 83.98">
  <path d="M48.8281 6.73828C72.0215 6.73828 90.8203-12.0605 90.8203-35.2539C90.8203-58.4473 72.0215-77.2461 48.8281-77.2461C25.6348-77.2461 6.83594-58.4473 6.83594-35.2539C6.83594-12.0605 25.6348 6.73828 48.8281 6.73828ZM41.2109-12.5C39.4043-12.5 38.1348-13.623 38.1836-15.3809L38.5742-36.5723C38.5742-37.5977 38.4277-37.793 37.6465-38.2324C34.8633-39.5508 33.5449-41.0156 33.7402-45.166L34.2773-55.8594C34.3262-56.9824 35.0098-57.7148 35.9863-57.7148C37.0605-57.7148 37.6465-56.9824 37.6465-55.8105L37.4512-45.5078C37.4512-44.7754 37.7441-44.2871 38.3789-44.2871C39.0137-44.2871 39.4531-44.7754 39.4531-45.459L39.5996-56.2012C39.5996-57.2754 40.2832-58.0078 41.2109-58.0078C42.2852-58.0078 42.9199-57.2754 42.9199-56.2012L43.0664-45.459C43.0664-44.7754 43.5059-44.2871 44.1406-44.2871C44.7266-44.2871 45.0684-44.7754 45.0684-45.5078L44.9219-55.8105C44.9219-56.9824 45.459-57.7148 46.5332-57.7148C47.5098-57.7148 48.1445-57.0312 48.1934-55.8594L48.7793-45.166C49.0234-41.0156 47.6562-39.5508 44.8242-38.2324C44.0918-37.793 43.9941-37.5977 43.9941-36.5723L44.3359-15.3809C44.3848-13.6719 43.1641-12.5 41.2109-12.5ZM55.7129-28.7109C55.7617-30.127 55.5664-30.6641 54.7852-31.1523L54.3945-31.3477C52.8809-32.2266 52.4902-33.2031 52.4902-34.7168L52.4902-36.0352C52.4902-43.0176 55.0293-52.4902 58.1543-56.6895C58.7891-57.6172 59.3262-58.0078 60.1074-58.0078C61.0352-58.0078 61.6211-57.3242 61.6211-56.3965L61.6211-15.3809C61.6211-13.6719 60.498-12.5 58.5449-12.5C56.6895-12.5 55.4199-13.623 55.4688-15.3809Z"/>
</svg>