<svg xmlns="http://www.w3.org/2000/svg" viewBox="9.0332 -73.6328 85.16 75.44">
  <path d="M45.8984-4.78516C49.7559-2.53906 53.418-2.63672 57.2266-4.78516L84.375-20.459C89.7949-23.6328 89.5996-30.3223 84.375-33.3496L57.2266-49.0234C53.418-51.1719 49.7559-51.2695 45.8984-49.0234L18.7988-33.3496C13.4277-30.2246 13.3301-23.6816 18.7988-20.459ZM17.4316 0.390625C19.873-1.02539 20.752-4.15039 19.3359-6.5918C17.9199-9.0332 14.7461-9.91211 12.3047-8.49609C9.86328-7.08008 9.0332-3.90625 10.4492-1.46484C11.8652 0.976562 14.9902 1.80664 17.4316 0.390625ZM27.0508-5.12695C29.4922-6.54297 30.3223-9.7168 28.9062-12.1582C27.4902-14.5996 24.3652-15.4297 21.9238-14.0137C19.4824-12.5977 18.6035-9.47266 20.0195-7.03125C21.4355-4.58984 24.6094-3.71094 27.0508-5.12695ZM50.6836-13.3301L27.832-26.5625C27.4902-26.7578 27.4902-27.0508 27.832-27.2461L50.6836-40.4785C51.3672-40.8691 51.7578-40.8691 52.4414-40.4785L75.3906-27.2461C75.7324-27.0508 75.7324-26.7578 75.3906-26.5625L52.4414-13.3301C51.7578-12.9395 51.3672-12.9395 50.6836-13.3301ZM38.6719-14.4043L73.3398-35.5469L66.2598-41.8945L30.8105-20.3125ZM65.918-13.8672L74.3652-19.6777L37.9883-40.7715L31.1523-34.0332ZM76.1719-5.12695C78.6133-3.71094 81.7871-4.58984 83.2031-7.03125C84.6191-9.47266 83.7402-12.5977 81.2988-14.0137C78.8574-15.4297 75.7324-14.5996 74.3164-12.1582C72.9004-9.7168 73.7305-6.54297 76.1719-5.12695ZM85.791 0.390625C88.2324 1.80664 91.3574 0.976562 92.7734-1.46484C94.1895-3.90625 93.3594-7.08008 90.918-8.49609C88.4766-9.91211 85.3027-9.0332 83.8867-6.5918C82.4707-4.15039 83.3496-1.02539 85.791 0.390625ZM51.6113-52.2949C54.4434-52.2949 56.7383-54.5898 56.7383-57.4219C56.7383-60.2539 54.4434-62.5488 51.6113-62.5488C48.7793-62.5488 46.4844-60.2539 46.4844-57.4219C46.4844-54.5898 48.7793-52.2949 51.6113-52.2949ZM51.6113-63.3789C54.4434-63.3789 56.7383-65.6738 56.7383-68.5059C56.7383-71.3379 54.4434-73.6328 51.6113-73.6328C48.7793-73.6328 46.4844-71.3379 46.4844-68.5059C46.4844-65.6738 48.7793-63.3789 51.6113-63.3789Z"/>
</svg>