<svg xmlns="http://www.w3.org/2000/svg" viewBox="6.83594 -77.2461 83.98 83.98">
  <path d="M48.8281 6.73828C72.0215 6.73828 90.8203-12.0605 90.8203-35.2539C90.8203-58.4473 72.0215-77.2461 48.8281-77.2461C25.6348-77.2461 6.83594-58.4473 6.83594-35.2539C6.83594-12.0605 25.6348 6.73828 48.8281 6.73828ZM65.0879-19.6777C65.0879-16.8945 62.8906-14.8926 59.8145-14.8926L38.9648-14.8926C35.8887-14.8926 33.6914-16.8945 33.6914-19.6777C33.6914-22.5586 35.8887-24.6094 38.9648-24.6094L59.8145-24.6094C62.8906-24.6094 65.0879-22.5586 65.0879-19.6777ZM40.1855-28.3203C37.1582-28.3203 35.3516-31.2988 35.3516-33.4473C35.3516-35.2539 36.4258-36.9141 38.3301-37.7441L49.2676-42.4316L49.2676-42.5293L38.3301-47.3145C36.4258-48.1445 35.3516-49.8047 35.3516-51.5625C35.3516-53.7598 37.1582-56.6895 40.1855-56.6895C40.918-56.6895 41.6504-56.543 42.4316-56.1523L61.6699-47.2168C63.916-46.1426 65.0879-44.6289 65.0879-42.334C65.0879-40.2344 63.8672-38.916 61.6699-37.8418L42.4316-28.8574C41.6504-28.5156 40.918-28.3203 40.1855-28.3203Z"/>
</svg>