<svg xmlns="http://www.w3.org/2000/svg" viewBox="6.83594 -77.2461 83.98 83.98">
  <path d="M48.8281 6.73828C72.0215 6.73828 90.8203-12.0605 90.8203-35.2539C90.8203-58.4473 72.0215-77.2461 48.8281-77.2461C25.6348-77.2461 6.83594-58.4473 6.83594-35.2539C6.83594-12.0605 25.6348 6.73828 48.8281 6.73828ZM48.8281-7.42188C33.4473-7.42188 20.9961-19.873 20.9961-35.2539C20.9961-50.6348 33.4473-63.0859 48.8281-63.0859C64.209-63.0859 76.6602-50.6348 76.6602-35.2539C76.6602-19.873 64.209-7.42188 48.8281-7.42188ZM68.0664-40.3809C68.0664-46.1426 64.6973-50.4883 60.1074-50.4883L57.6172-50.4883C60.4004-47.9004 62.0117-44.3359 61.9141-40.2344C61.9141-36.377 61.0352-33.3984 59.082-30.2734L60.6934-30.2734C64.9414-30.2734 68.0664-34.668 68.0664-40.3809ZM59.1797-40.2832C59.2773-47.168 53.6133-52.002 45.459-52.1484L43.1152-52.1973C41.1133-52.2461 39.2578-52.0508 38.1348-51.7578C36.1816-51.3184 34.9121-50 34.9121-48.1934C34.9121-47.7051 35.0586-47.2168 35.2051-46.7773C35.3027-46.6797 35.2539-46.6309 35.2051-46.582C33.9355-45.8496 33.3008-44.7266 33.3008-43.457C33.3008-42.7246 33.4961-42.0898 33.7402-41.4551C33.7891-41.3574 33.7402-41.3086 33.7402-41.2598C32.959-40.5762 32.4219-39.5508 32.4219-38.3301C32.4219-37.4023 32.666-36.5723 33.0566-35.9863C33.1055-35.9863 33.1055-35.8887 33.0078-35.8398C32.4707-35.2539 32.2266-34.2773 32.2266-33.3984C32.2266-31.25 33.8379-29.6387 35.9863-29.6387L41.9434-29.6387C43.1152-29.6387 43.8477-29.1016 43.8477-28.3203C43.8477-26.1719 40.9668-21.9727 40.9668-18.6523C40.9668-16.748 42.2363-15.3809 44.0918-15.3809C45.4102-15.3809 46.2891-16.1621 47.2656-17.9199C49.8047-22.8516 53.0762-26.9043 55.6641-30.3711C58.1543-33.5938 59.1309-36.377 59.1797-40.2832Z" />
</svg>