<svg xmlns="http://www.w3.org/2000/svg" viewBox="7.8125 -72.9492 84.23 77.1">
  <path d="M35.4004-15.3809L64.4531-15.3809C65.918-15.3809 66.8457-16.9434 66.1133-18.2129L51.5625-44.043C50.8301-45.3613 49.0234-45.3613 48.291-44.043L33.7402-18.2129C33.0078-16.9434 33.9355-15.3809 35.4004-15.3809ZM44.2383-22.2168C44.043-22.2168 43.9453-22.3633 44.0918-22.6074L49.7559-32.666C49.8535-32.8613 50.0488-32.8613 50.1465-32.666L55.8594-22.6074C56.0059-22.3633 55.9082-22.2168 55.7129-22.2168ZM20.752 4.15039L79.1504 4.15039C86.6699 4.15039 92.041-2.05078 92.041-8.83789C92.041-10.9863 91.5527-13.1836 90.3809-15.2344L61.1328-66.4551C58.5938-70.8496 54.3457-72.9492 49.9512-72.9492C45.5566-72.9492 41.1621-70.752 38.7207-66.4551L9.47266-15.1855C8.34961-13.1836 7.8125-10.9863 7.8125-8.83789C7.8125-2.05078 13.1836 4.15039 20.752 4.15039ZM24.5117-9.0332C23.4375-9.0332 22.7051-9.91211 22.7051-10.9375C22.7051-11.1816 22.7539-11.6211 22.9004-11.9141L48.3887-57.1777C48.6816-57.7148 49.3652-57.9102 49.9512-57.9102C50.5371-57.9102 51.1719-57.666 51.4648-57.1289L77.002-11.8164C77.1484-11.5234 77.1973-11.1328 77.1973-10.9375C77.1973-9.91211 76.4648-9.0332 75.3906-9.0332Z"/>
</svg>