<svg xmlns="http://www.w3.org/2000/svg" viewBox="6.83594 -77.2461 83.98 83.98">
  <path d="M48.8281 6.73828C72.0215 6.73828 90.8203-12.0605 90.8203-35.2539C90.8203-58.4473 72.0215-77.2461 48.8281-77.2461C25.6348-77.2461 6.83594-58.4473 6.83594-35.2539C6.83594-12.0605 25.6348 6.73828 48.8281 6.73828ZM48.8281-7.42188C33.4473-7.42188 20.9961-19.873 20.9961-35.2539C20.9961-50.6348 33.4473-63.0859 48.8281-63.0859C64.209-63.0859 76.6602-50.6348 76.6602-35.2539C76.6602-19.873 64.209-7.42188 48.8281-7.42188ZM30.5176-46.875C29.4922-45.5566 30.3711-43.3105 32.373-43.3105L33.3984-43.3105L33.3984-43.5547C33.3984-37.8906 36.377-37.2559 36.377-34.9609C36.377-32.7148 32.5684-31.543 32.5684-25.7324C32.5684-23.7305 33.252-21.9238 34.6191-20.1172C36.9141-17.334 41.1621-20.4102 38.916-23.3398C38.1836-24.4141 37.9395-24.9512 37.9395-25.9277C37.9395-28.8574 41.748-30.5176 41.748-34.9609C41.748-39.3555 38.7207-39.9414 38.7207-43.5547L38.7207-43.3105L39.5508-43.3105C41.5527-43.3105 42.4805-45.4102 41.4062-46.875L38.0371-51.5625C37.0117-52.9297 35.2539-53.0762 34.082-51.5625ZM43.7012-46.875C42.7734-45.5078 43.5547-43.3105 45.5566-43.3105L46.3867-43.3105L46.3867-43.5547C46.3867-37.8906 49.3652-37.2559 49.3652-34.9609C49.3652-32.7148 45.5566-31.543 45.5566-25.7324C45.5566-23.7305 46.2402-21.9238 47.6074-20.1172C49.8047-17.3828 54.1504-20.3125 51.9531-23.3398C51.123-24.4141 50.9766-24.9512 50.9766-25.9277C50.9766-28.8574 54.7363-30.5176 54.7363-34.9609C54.7363-39.3555 51.709-39.9414 51.709-43.5547L51.709-43.3105L52.5391-43.3105C54.4434-43.3105 55.4688-45.4102 54.3945-46.875L50.9766-51.5625C50-52.9297 48.2422-53.0762 47.1191-51.5625ZM56.4941-46.875C55.5664-45.5078 56.3477-43.3105 58.3496-43.3105L59.1797-43.3105L59.1797-43.5547C59.1797-37.8906 62.1582-37.2559 62.1582-34.9609C62.1582-32.7148 58.3496-31.543 58.3496-25.7324C58.3496-23.7305 59.0332-21.9238 60.4004-20.1172C62.6953-17.334 66.9922-20.3125 64.7461-23.3398C63.9648-24.4141 63.7695-24.9512 63.7695-25.9277C63.7695-28.8574 67.5293-30.5176 67.5293-34.9609C67.5293-39.3555 64.502-39.9414 64.502-43.5547L64.502-43.3105L65.3809-43.3105C67.2363-43.3105 68.2617-45.4102 67.1875-46.875L63.8184-51.5625C62.793-52.9297 61.0352-53.0762 59.9121-51.5625Z" />
</svg>