<svg xmlns="http://www.w3.org/2000/svg" viewBox="9.76562 -73.3398 92.58 76.27">
  <path d="M32.5684-18.5547L54.7363-18.5547C55.6641-18.5547 56.0547-18.9941 56.0547-19.9219L56.0547-50.4883C56.0547-51.416 55.6641-51.8555 54.7363-51.8555L32.5684-51.8555C31.6406-51.8555 31.25-51.416 31.25-50.4883L31.25-19.9219C31.25-18.9941 31.6406-18.5547 32.5684-18.5547ZM59.7656-35.2539C59.7656-34.2773 60.1074-33.3008 60.9863-32.4219L68.9453-24.1699C69.5312-23.584 70.4102-23.1934 71.2402-23.1934C73.2422-23.1934 74.8535-24.707 74.8535-26.709C74.8535-27.6367 74.4141-28.5645 73.7305-29.1504L69.1406-32.7637L66.0156-35.2539L69.1406-37.7441L73.7305-41.3574C74.4141-41.8945 74.8535-42.8711 74.8535-43.7988C74.8535-45.8008 73.2422-47.3633 71.2402-47.3633C70.4102-47.3633 69.5801-46.9727 68.9453-46.3379L60.9863-38.0859C60.1074-37.207 59.7656-36.2305 59.7656-35.2539ZM82.4707-35.2051C82.4707-37.5488 80.9082-39.1113 78.7109-39.1113L72.3633-39.1113L67.627-38.623C65.7227-38.3789 64.1113-37.1582 64.1113-35.2051C64.1113-33.3008 65.7227-32.0801 67.627-31.8359L72.3633-31.3477L78.7109-31.3477C80.9082-31.3477 82.4707-32.9102 82.4707-35.2051ZM25 2.92969L87.1094 2.92969C96.6797 2.92969 102.344-2.73438 102.344-12.3047L102.344-58.1055C102.344-67.6758 96.6797-73.3398 87.1094-73.3398L25-73.3398C15.4297-73.3398 9.76562-67.6758 9.76562-58.1055L9.76562-12.3047C9.76562-2.73438 15.4297 2.92969 25 2.92969ZM27.2461-11.2305C25-11.2305 23.9258-12.1094 23.9258-14.5508L23.9258-55.8594C23.9258-58.3008 25-59.1797 27.2461-59.1797L84.8633-59.1797C87.1094-59.1797 88.1836-58.3008 88.1836-55.8594L88.1836-14.5508C88.1836-12.1094 87.1094-11.2305 84.8633-11.2305Z" />
</svg>