<svg xmlns="http://www.w3.org/2000/svg" viewBox="6.83594 -77.2461 83.98 83.98">
  <path d="M84.4238-12.9395C88.4766-19.3848 90.8203-27.0508 90.8203-35.2539C90.8203-58.4473 72.0215-77.2461 48.8281-77.2461C40.625-77.2461 32.959-74.9023 26.5137-70.8008L36.9141-60.4004C40.5273-62.1094 44.5801-63.0859 48.8281-63.0859C64.209-63.0859 76.6602-50.6348 76.6602-35.2539C76.6602-31.0059 75.7324-26.9531 74.0234-23.3398ZM48.8281 6.73828C57.0801 6.73828 64.7461 4.39453 71.2402 0.292969L60.791-10.1074C57.1777-8.39844 53.125-7.42188 48.8281-7.42188C33.4473-7.42188 20.9961-19.873 20.9961-35.2539C20.9961-39.502 21.9727-43.5547 23.6816-47.168L13.2812-57.5684C9.17969-51.0742 6.83594-43.457 6.83594-35.2539C6.83594-12.0605 25.6348 6.73828 48.8281 6.73828ZM48.8281-14.9414C50.9766-14.9414 53.0762-15.2832 55.0293-15.8691L29.4922-41.4062C28.8574-39.4531 28.5156-37.4023 28.5156-35.2539C28.5156-24.0234 37.5977-14.9414 48.8281-14.9414ZM68.2129-29.1504C68.8477-31.0547 69.1406-33.1055 69.1406-35.2539C69.1406-46.4844 60.0586-55.5664 48.8281-55.5664C46.7285-55.5664 44.6289-55.2246 42.7246-54.6387ZM83.7402 4.54102C85.1074 5.85938 87.3535 5.9082 88.6719 4.54102C89.9902 3.17383 90.0391 0.976562 88.6719-0.390625L13.916-75.0977C12.5488-76.4648 10.3027-76.4648 8.93555-75.0977C7.61719-73.7793 7.61719-71.4844 8.93555-70.166Z"/>
</svg>