<svg xmlns="http://www.w3.org/2000/svg" viewBox="9.76562 -78.5645 104.35 86.72">
  <path d="M83.6914-20.5078C85.4004-18.1641 89.0137-18.0176 91.6016-20.6543C94.6777-23.7793 96.1914-29.3457 96.1914-35.2539C96.1914-41.1621 94.6777-46.7285 91.6016-49.9023C89.0137-52.5391 85.4004-52.3438 83.6914-50C82.2266-47.9492 82.666-45.5566 84.082-43.5059C85.3027-41.748 86.4746-38.0371 86.4746-35.2539C86.4746-32.4707 85.3027-28.7598 84.082-27.0508C82.6172-25 82.2266-22.5586 83.6914-20.5078ZM97.0703-9.27734C98.9258-6.93359 102.197-6.49414 105.127-9.42383C111.279-15.5762 114.111-25.1465 114.111-35.2539C114.111-45.2637 110.693-55.2246 105.127-61.0352C102.295-64.0137 98.9746-63.4766 97.0703-61.1816C95.3613-59.082 95.8984-56.543 97.7539-54.541C102.1-49.8535 104.395-42.8223 104.395-35.2539C104.395-27.6367 102.002-20.6055 97.7539-15.918C95.9473-13.916 95.4102-11.377 97.0703-9.27734ZM9.76562-7.08008C9.76562 2.49023 15.4297 8.1543 25 8.1543L56.6406 8.1543C66.2109 8.1543 71.875 2.49023 71.875-7.08008L71.875-63.3301C71.875-72.9004 66.2109-78.5645 56.6406-78.5645L25-78.5645C15.4297-78.5645 9.76562-72.9004 9.76562-63.3301ZM27.832-58.0078C26.6602-58.0078 25.7324-58.9844 25.7324-60.1562L25.7324-61.0352C25.7324-62.4023 26.8066-63.5254 28.1738-63.5254L53.4668-63.5254C54.834-63.5254 55.9082-62.4023 55.9082-61.0352L55.9082-60.1562C55.9082-58.9844 54.9805-58.0078 53.8086-58.0078ZM40.5762-48.0469C47.0215-48.0469 52.1973-42.8711 52.1973-36.4258C52.1973-32.2266 49.9512-28.5645 45.8984-26.2207L48.3887-23.7305C49.3652-22.8027 49.3652-21.1914 48.3887-20.2148L45.4102-17.2363L47.2168-15.4297C48.1934-14.4531 48.1934-12.8906 47.2656-11.9141L42.2852-6.93359C41.4551-6.10352 40.1367-6.15234 39.4043-6.83594L36.1816-9.57031C35.5469-10.1562 35.2539-10.9863 35.2539-11.8164L35.2539-25.9766C31.3477-27.9785 28.9062-31.9824 28.9062-36.4258C28.9062-42.8711 34.082-48.0469 40.5762-48.0469ZM40.5762-38.0371C42.041-38.0371 43.2129-39.2578 43.2129-40.6738C43.2129-42.1387 42.041-43.3594 40.5762-43.3594C39.0625-43.3594 37.8418-42.2363 37.8418-40.6738C37.8418-39.2578 39.0625-38.0371 40.5762-38.0371Z" />
</svg>