<svg xmlns="http://www.w3.org/2000/svg" viewBox="9.76562 -83.6914 99.07 96.88">
  <path d="M18.4082 6.34766L101.514 6.34766L101.514-1.46484C101.514-3.80859 100.049-5.22461 97.7539-5.22461L96.6797-5.22461L96.6797-50.8789L99.6094-50.8789C103.174-50.8789 105.273-53.5645 105.273-56.2012C105.273-58.1543 104.199-59.9609 101.953-61.2793L66.1133-81.9336C64.2578-83.0078 62.0117-83.6914 59.9609-83.6914C57.9102-83.6914 55.6641-83.0078 53.8086-81.9336L17.9688-61.2793C15.7227-59.9609 14.6484-58.1543 14.6484-56.2012C14.6484-53.5645 16.748-50.8789 20.3125-50.8789L23.2422-50.8789L23.2422-5.22461L22.168-5.22461C19.873-5.22461 18.4082-3.80859 18.4082-1.46484ZM15.1367 13.1836L103.418 13.1836C106.299 13.1836 108.838 10.8398 108.838 7.8125C108.838 4.88281 106.299 2.44141 103.418 2.44141L15.1367 2.44141C12.2559 2.44141 9.76562 4.88281 9.76562 7.8125C9.76562 10.791 12.2559 13.1836 15.1367 13.1836ZM51.8555-12.3047C48.7305-12.3047 46.7773-14.3066 46.7773-17.4805L46.7285-30.2246L43.5547-30.2246C42.9688-30.2246 42.5781-30.6641 42.5781-31.25C42.5781-31.8359 42.9688-32.2266 43.5547-32.2266L46.7285-32.2266L46.7285-42.5781C46.7285-45.752 48.6816-47.7539 51.8066-47.7539C54.9316-47.7539 56.8848-45.752 56.8848-42.5781L56.8848-32.2266L57.7148-32.2266L66.0645-45.1172C67.1875-46.875 68.2129-47.7539 70.2148-47.7539C72.3145-47.7539 74.9023-46.2891 74.9023-43.7012C74.9023-42.6758 74.5117-41.6016 73.877-40.6738L67.627-32.2266L75.5859-32.2266C76.1719-32.2266 76.5625-31.8359 76.5625-31.25C76.5625-30.6641 76.1719-30.2246 75.5859-30.2246L67.4805-30.2246L73.877-20.8984C74.9023-19.4824 75.1953-18.3594 75.1953-16.7969C75.1953-15.0391 74.0234-12.3047 70.166-12.3047C67.8711-12.3047 66.6016-13.3301 65.4785-15.3809L57.4707-30.2246L56.8848-30.2246L56.9336-17.4805C56.9336-14.3066 54.9805-12.3047 51.8555-12.3047Z"/>
</svg>