<svg xmlns="http://www.w3.org/2000/svg" viewBox="-0.341797 -77.2461 91.16 83.98">
  <path d="M3.85742-44.4824C0.488281-44.4824-0.341797-41.0645 1.46484-38.8184L11.9629-25.5859C13.0859-24.1211 15.332-24.1211 16.5039-25.5859L26.9531-38.8184C28.7109-41.0645 27.9297-44.4824 24.6094-44.4824ZM90.8203-35.2539C90.8203-58.4473 71.9727-77.2461 48.8281-77.2461C25.6348-77.2461 6.83594-58.4473 6.83594-35.1562C6.83594-31.25 10.0098-28.0762 13.916-28.0762C17.8223-28.0762 20.9961-31.25 20.9961-35.1562C20.9961-50.6348 33.4473-63.0859 48.8281-63.0859C64.209-63.0859 76.6602-50.6348 76.6602-35.2539C76.6602-19.873 64.209-7.42188 48.8281-7.42188C41.6016-7.42188 35.5957-9.91211 30.127-14.6484C26.7578-17.5293 22.5098-18.5059 19.3359-15.332C16.5527-12.5488 16.4551-8.1543 20.166-4.58984C28.125 3.02734 38.8184 6.73828 48.8281 6.73828C71.9727 6.73828 90.8203-12.0605 90.8203-35.2539ZM36.7188-19.2871L60.3516-19.2871C62.8906-19.2871 64.3066-20.6055 64.3066-22.9492C64.3066-25.3418 62.8906-26.6602 60.3516-26.6602L51.9531-26.6602C46.1914-26.6602 41.6504-30.5176 41.6504-35.9375C41.6504-40.5762 44.4336-44.1895 49.5605-44.1895C52.8809-44.1895 55.8594-42.4805 56.8848-39.1602C57.4219-37.4023 58.5449-35.6934 60.791-35.6934C63.1836-35.6934 64.8926-36.9629 64.8926-39.3555C64.8926-44.8242 57.959-51.2695 49.4141-51.2695C41.2598-51.2695 33.4961-46.0449 33.4961-37.5C33.4961-33.3008 35.0098-28.8086 38.916-26.4648L38.916-26.1719L36.7188-26.1719C34.2773-26.1719 32.9102-24.9512 32.9102-22.7539C32.9102-20.5078 34.2773-19.2871 36.7188-19.2871ZM46.7773-35.791C47.2656-35.791 47.7051-36.2305 47.7051-36.7188L47.7051-54.248C47.7051-54.7363 47.2656-55.1758 46.7773-55.1758C46.2891-55.1758 45.8496-54.7363 45.8496-54.248L45.8496-36.7188C45.8496-36.2305 46.2891-35.791 46.7773-35.791ZM52.3926-35.791C52.8809-35.791 53.3203-36.2305 53.3203-36.7188L53.3203-54.248C53.3203-54.7363 52.8809-55.1758 52.3926-55.1758C51.9043-55.1758 51.4648-54.7363 51.4648-54.248L51.4648-36.7188C51.4648-36.2305 51.9043-35.791 52.3926-35.791Z" />
</svg>