<svg xmlns="http://www.w3.org/2000/svg" viewBox="9.76562 -85.3516 100.2 100.2">
  <path d="M14.6484-40.1367C11.9141-40.1367 9.76562-37.9883 9.76562-35.2539C9.76562-32.5195 11.9141-30.3711 14.6484-30.3711L105.078-30.3711C107.812-30.3711 109.961-32.5195 109.961-35.2539C109.961-37.9883 107.812-40.1367 105.078-40.1367ZM64.7461-80.4688C64.7461-83.2031 62.5977-85.3516 59.8633-85.3516C57.1289-85.3516 54.9805-83.2031 54.9805-80.4688L54.9805 9.96094C54.9805 12.6953 57.1289 14.8438 59.8633 14.8438C62.5977 14.8438 64.7461 12.6953 64.7461 9.96094ZM79.3945-69.6289C80.4199-72.168 79.248-74.9512 76.7578-75.9766C74.2676-76.9531 71.3867-75.8789 70.3613-73.3887L40.332-0.878906C39.3066 1.66016 40.4785 4.44336 42.9688 5.46875C45.5078 6.44531 48.3398 5.37109 49.3652 2.88086ZM99.3652-67.9688C101.318-69.8242 101.318-72.8516 99.3652-74.7559C97.5098-76.6602 94.4336-76.6602 92.5781-74.7559L20.3125-2.58789C18.3594-0.683594 18.457 2.34375 20.4102 4.19922C22.2168 6.10352 25.293 6.20117 27.1973 4.24805ZM98.0469-45.752C100.537-46.7773 101.562-49.6582 100.537-52.0996C99.5605-54.5898 96.7773-55.7617 94.2383-54.7363L21.6797-24.7559C19.1895-23.7305 18.1641-20.8984 19.1895-18.4082C20.166-15.918 22.9492-14.7461 25.4883-15.7715ZM94.2383-15.7227C96.6797-14.6973 99.4629-15.918 100.586-18.4082C101.562-20.8984 100.391-23.6816 97.9004-24.707L25.4883-54.7852C23.0469-55.8105 20.2637-54.5898 19.1406-52.0996C18.1641-49.6094 19.3359-46.8262 21.8262-45.8008ZM92.5781 4.24805C94.4824 6.20117 97.4609 6.20117 99.3652 4.19922C101.27 2.39258 101.318-0.634766 99.3652-2.53906L27.1973-74.8047C25.293-76.7578 22.2656-76.6602 20.4102-74.7559C18.5059-72.9004 18.4082-69.873 20.3613-67.9688ZM70.3613 2.92969C71.3867 5.41992 74.2676 6.44531 76.709 5.41992C79.1992 4.44336 80.3711 1.70898 79.3457-0.830078L49.3652-73.4375C48.3398-75.9277 45.5078-76.9531 43.0176-75.9277C40.5273-74.9512 39.3555-72.2168 40.3809-69.6777Z" />
</svg>