<svg xmlns="http://www.w3.org/2000/svg" viewBox="6.83594 -77.2461 83.98 83.98">
  <path d="M48.8281 6.73828C72.0215 6.73828 90.8203-12.0605 90.8203-35.2539C90.8203-58.4473 72.0215-77.2461 48.8281-77.2461C25.6348-77.2461 6.83594-58.4473 6.83594-35.2539C6.83594-12.0605 25.6348 6.73828 48.8281 6.73828ZM48.8281-7.42188C33.4473-7.42188 20.9961-19.873 20.9961-35.2539C20.9961-50.6348 33.4473-63.0859 48.8281-63.0859C64.209-63.0859 76.6602-50.6348 76.6602-35.2539C76.6602-19.873 64.209-7.42188 48.8281-7.42188ZM58.0078-19.4824C61.3281-19.4824 63.6719-21.8262 63.6719-25.293C63.6719-28.125 62.3047-29.7852 58.6914-31.1035L48.2422-34.9121L48.2422-35.4004L58.6914-39.209C62.3047-40.5273 63.6719-42.1875 63.6719-45.0195C63.6719-48.4863 61.3281-50.8301 58.0078-50.8301C56.8359-50.8301 55.7617-50.5859 54.6387-50.0488L34.082-40.332C31.5918-39.1602 30.3223-37.5 30.3223-35.0098C30.3223-32.666 31.6895-31.1523 34.082-30.0293L54.6387-20.2637C55.7617-19.7266 56.8359-19.4824 58.0078-19.4824Z" />
</svg>