<svg xmlns="http://www.w3.org/2000/svg" viewBox="7.51953 -85.0098 108.35 99.51">
  <path d="M13.5254-50.7324C8.49609-47.8516 7.51953-42.627 10.4004-37.6953L16.6016-27.0996C18.5547-23.7793 21.5332-21.9727 24.8047-21.9727L50.4883-21.9727L39.7461-15.7715C34.7656-12.8906 33.5938-7.71484 36.4258-2.7832L42.5781 7.8125C45.459 12.793 50.4395 14.502 55.4688 11.6211L109.814-19.7754C114.844-22.6562 115.869-27.832 112.939-32.8125L106.738-43.4082C104.785-46.7285 101.807-48.4863 98.5352-48.4863L72.8516-48.4863L83.5938-54.7363C88.5742-57.6172 89.7461-62.793 86.9141-67.7246L80.7617-78.3203C77.8809-83.252 72.9004-85.0098 67.8711-82.1289ZM19.5312-43.3105L71.3379-73.2422C71.9238-73.584 72.7051-73.291 73.0957-72.6074L78.125-63.9648C78.5156-63.2812 78.3691-62.5 77.7832-62.1582L25.8789-32.2266C25.2441-31.8848 24.4629-32.0801 24.0723-32.7637L19.0918-41.4551C18.7012-42.1387 18.8965-42.9688 19.5312-43.3105ZM43.2617-31.3965L56.543-39.1113L80.127-39.1113L66.8457-31.3965ZM45.6055-8.34961L97.4609-38.2812C98.0957-38.623 98.877-38.4277 99.2676-37.7441L104.199-29.0527C104.59-28.3691 104.443-27.5391 103.857-27.1973L52.002 2.73438C51.416 3.07617 50.6348 2.7832 50.2441 2.09961L45.2148-6.54297C44.8242-7.22656 44.9707-7.95898 45.6055-8.34961ZM73.291-78.7109L77.5391-71.3867L86.2793-76.4648C88.3789-77.6855 89.1113-80.2734 87.9395-82.2754C86.7188-84.375 84.1797-84.9609 82.1289-83.7891ZM79.1992-68.5059L83.4473-61.1816L92.1875-66.2598C94.2871-67.4805 94.9707-70.0684 93.7988-72.1191C92.627-74.1211 90.0879-74.7559 88.0371-73.584ZM64.9414-62.1582C65.8691-60.5957 67.9199-60.0586 69.5312-60.9863C71.1426-61.9629 71.7285-63.9648 70.8008-65.5762C69.8242-67.1875 67.8223-67.7734 66.1621-66.7969C64.5996-65.8691 64.0137-63.8184 64.9414-62.1582ZM55.3223-56.6406C56.25-55.0293 58.3008-54.541 59.8633-55.4688C61.5234-56.3965 62.0605-58.3984 61.1328-60.0098C60.2539-61.6699 58.2031-62.1582 56.543-61.2305C54.9316-60.3027 54.3945-58.252 55.3223-56.6406ZM45.6543-51.0742C46.582-49.4629 48.6328-48.9258 50.293-49.8535C51.9043-50.8301 52.4414-52.832 51.5137-54.4434C50.5859-56.0547 48.5352-56.6406 46.9238-55.6641C45.3125-54.7363 44.7266-52.6855 45.6543-51.0742ZM36.084-45.5078C37.0117-43.8965 39.0625-43.4082 40.625-44.3359C42.2852-45.2637 42.8223-47.3145 41.8945-48.877C40.9668-50.5371 38.9648-51.0254 37.3047-50.1465C35.6934-49.2188 35.1074-47.168 36.084-45.5078ZM26.4648-39.9902C27.3926-38.3301 29.4434-37.8418 31.0059-38.7207C32.666-39.6973 33.1543-41.6992 32.2266-43.3105C31.2988-44.9219 29.2969-45.5078 27.6855-44.5312C26.0742-43.6035 25.4883-41.6016 26.4648-39.9902ZM50.0488 8.20312L45.752 0.878906L37.0605 5.95703C34.9609 7.17773 34.2285 9.76562 35.4004 11.8164C36.6211 13.8672 39.1602 14.4531 41.2109 13.2812ZM44.1406-2.00195L39.8926-9.32617L31.1523-4.24805C29.0527-3.02734 28.3203-0.439453 29.541 1.61133C30.7129 3.61328 33.252 4.24805 35.3027 3.07617ZM91.1133-27.1973C92.041-25.5859 94.0918-25 95.7031-25.9277C97.3145-26.8555 97.8516-28.9551 96.9238-30.5664C95.9961-32.1777 93.8965-32.7148 92.334-31.7871C90.6738-30.8105 90.1855-28.8086 91.1133-27.1973ZM81.4453-21.6309C82.373-19.9707 84.4238-19.4336 86.084-20.4102C87.6465-21.2891 88.2324-23.3398 87.3047-25C86.377-26.6113 84.2773-27.0996 82.666-26.1719C81.0547-25.2441 80.5176-23.1934 81.4453-21.6309ZM71.8262-16.0645C72.7539-14.4531 74.8047-13.8672 76.416-14.7949C78.0273-15.7227 78.6621-17.8223 77.6855-19.4824C76.7578-21.0449 74.707-21.582 73.0469-20.6543C71.3867-19.6777 70.8984-17.6758 71.8262-16.0645ZM62.1582-10.498C63.0859-8.83789 65.1367-8.30078 66.7969-9.27734C68.4082-10.2051 68.9941-12.2559 68.0176-13.8672C67.0898-15.4785 65.0391-15.9668 63.4277-15.0391C61.7676-14.1113 61.2793-12.0605 62.1582-10.498ZM52.5391-4.93164C53.4668-3.32031 55.5176-2.73438 57.1777-3.66211C58.7402-4.58984 59.375-6.68945 58.3984-8.34961C57.4707-9.91211 55.4199-10.4492 53.8086-9.52148C52.1484-8.54492 51.6113-6.54297 52.5391-4.93164Z"/>
</svg>