<svg xmlns="http://www.w3.org/2000/svg" viewBox="9.76562 -83.3008 70.51 97.9">
  <path d="M9.76562-64.6484C9.76562-49.0723 30.3223-40.1367 30.3223-20.6543L30.3223-14.6973C30.3223-11.8652 32.0801-10.1074 34.9121-10.1074L55.127-10.1074C57.959-10.1074 59.7168-11.8652 59.7168-14.6973L59.7168-20.6543C59.7168-40.1855 80.2734-48.7793 80.2734-64.6484C80.2734-76.6113 67.334-83.3008 45.0195-83.3008C22.7051-83.3008 9.76562-76.6113 9.76562-64.6484ZM20.9473-64.6484C20.9473-68.75 30.7617-72.1191 45.0195-72.1191C59.2773-72.1191 69.0918-68.75 69.0918-64.6484C69.0918-57.0312 48.5352-40.6738 48.5352-22.9492L48.5352-12.5977L58.5449-18.9453L31.4941-18.9453L41.5039-12.5977L41.5039-22.9004C41.5039-40.6738 20.9473-57.0312 20.9473-64.6484ZM17.5781-54.3457L72.5098-54.3457L72.5098-64.1113L17.5781-64.1113ZM36.084 1.80664L53.9551 1.80664C55.957 1.80664 57.5195 0.0976562 57.5195-1.70898C57.5195-3.56445 55.957-5.22461 53.9551-5.22461L36.084-5.22461C34.082-5.22461 32.5195-3.56445 32.5195-1.70898C32.5195 0.0976562 34.082 1.80664 36.084 1.80664ZM45.0195 14.5996C50.8301 14.5996 55.1758 11.377 55.5664 6.68945L34.4727 6.68945C34.8633 11.377 39.209 14.5996 45.0195 14.5996Z"/>
</svg>