<svg xmlns="http://www.w3.org/2000/svg" viewBox="9.76562 -85.0098 56.4 99.51">
  <path d="M24.8535 1.80664L51.0254 1.80664C53.0273 1.80664 54.5898 0.0976562 54.5898-1.70898C54.5898-3.56445 53.0273-5.22461 51.0254-5.22461L24.8535-5.22461C22.8516-5.22461 21.2891-3.56445 21.2891-1.70898C21.2891 0.0976562 22.8516 1.80664 24.8535 1.80664ZM37.9395 14.502C44.6289 14.502 49.2188 11.377 49.707 6.68945L25.9277 6.68945C26.416 11.377 31.25 14.502 37.9395 14.502ZM19.1406-16.3086C19.2383-12.4023 22.0703-10.1074 25.9277-10.1074L49.9512-10.1074C53.8086-10.1074 56.6406-12.4023 56.7383-16.3086C57.0801-28.3203 59.8145-35.7422 62.2559-42.2363L13.6719-42.2363C16.0645-35.7422 18.7988-28.3203 19.1406-16.3086ZM66.1621-58.7891C66.1621-73.9746 53.2715-85.0098 37.9395-85.0098C22.6074-85.0098 9.76562-74.0234 9.76562-58.8379C9.76562-56.8359 9.96094-54.9805 10.2539-53.2227L65.6738-53.2227C65.9668-54.9805 66.1621-56.7871 66.1621-58.7891Z"/>
</svg>