<svg xmlns="http://www.w3.org/2000/svg" viewBox="9.76562 -91.3574 78.61 112.45">
  <path d="M27.1973 8.83789L70.9473 8.83789C81.2988 8.83789 88.3789 1.41602 88.3789-9.32617L88.3789-29.3945C88.3789-39.3555 87.2559-50.1953 85.4004-57.959C83.0078-68.3105 75.7812-75.1953 66.0645-76.2207C63.9648-76.416 56.7871-76.9531 49.0723-76.9531C40.332-76.9531 34.1309-76.416 32.0801-76.2207C22.3633-75.1953 15.1367-68.3105 12.7441-57.959C10.8887-50.0488 9.76562-39.6973 9.76562-29.834L9.76562-9.32617C9.76562 1.41602 16.8457 8.83789 27.1973 8.83789ZM49.0723-19.7266C39.7949-19.7754 33.3984-20.0684 29.7363-20.5078C26.9531-20.8496 25.2441-22.8027 25.2441-25.5371L25.2441-32.5684C25.2441-39.0625 26.0254-45.6543 26.3184-47.5098C26.6113-49.8535 28.3691-51.5625 30.7129-51.8066C34.375-52.2949 40.3809-52.5879 49.0723-52.6367C57.666-52.5879 63.7207-52.2949 67.4805-51.8066C69.7754-51.5625 71.5332-49.8535 71.8262-47.5098C72.168-45.6543 72.9004-39.0625 72.9004-32.5684L72.9004-25.5371C72.9004-22.8027 71.1914-20.8496 68.4082-20.5078C64.6973-20.0684 58.252-19.7754 49.0723-19.7266ZM31.0547-2.39258C27.832-2.39258 25.4883-4.83398 25.4883-8.05664C25.4883-11.2793 27.8809-13.6719 31.0547-13.6719C34.2773-13.6719 36.7188-11.2793 36.7188-8.05664C36.7188-4.83398 34.2773-2.39258 31.0547-2.39258ZM67.041-2.39258C63.8184-2.39258 61.4258-4.83398 61.4258-8.05664C61.4258-11.2793 63.8672-13.6719 67.041-13.6719C70.2637-13.6719 72.6562-11.2793 72.6562-8.05664C72.6562-4.83398 70.2637-2.39258 67.041-2.39258ZM39.7949-58.4473C37.3535-58.4473 35.5469-60.2539 35.5469-62.6953C35.5469-65.1855 37.3535-67.041 39.7949-67.041L58.3008-67.041C60.7422-67.041 62.5977-65.1855 62.5977-62.6953C62.5977-60.3027 60.7422-58.4473 58.3008-58.4473ZM13.1836-81.4941C13.1836-78.7109 14.9902-76.6602 17.9688-76.6602C19.7266-76.6602 21.2891-77.6367 22.6074-79.0039C23.877-80.3223 25-80.8594 27.1973-80.8594L70.9473-80.8594C73.1445-80.8594 74.2676-80.3223 75.5371-79.0039C76.8555-77.6367 78.418-76.6602 80.1758-76.6602C83.1543-76.6602 84.9609-78.7109 84.9609-81.4941C84.9609-83.3984 84.082-85.3027 82.6172-86.7676C79.1504-90.2344 74.8535-91.3574 69.9219-91.3574L28.2227-91.3574C23.291-91.3574 18.9941-90.2344 15.5273-86.7676C14.0625-85.3027 13.1836-83.3984 13.1836-81.4941ZM47.998-72.7051L37.6465-85.498L24.9023-85.498L35.3027-72.7051ZM50.1465-72.7051L62.8418-72.7051L73.2422-85.498L60.498-85.498ZM26.5625 0.976562L17.7246 15.1367C16.2598 17.4805 17.1875 21.0938 20.7031 21.0938L24.2676 21.0938C26.1719 21.0938 27.3438 20.4102 28.3691 18.7988L39.4531 0.976562ZM58.7402 0.976562L69.8242 18.7988C70.8496 20.4102 72.0215 21.0938 73.9258 21.0938L76.5137 21.0938C80.0293 21.0938 81.9336 17.4805 80.0293 14.4531L71.6309 0.976562Z"/>
</svg>