<svg xmlns="http://www.w3.org/2000/svg" viewBox="9.76562 -86.4746 71.09 97.46">
  <path d="M32.1289-41.1133C34.7168-41.1133 36.7188-43.1152 36.7188-45.7031C36.7188-48.291 34.7168-50.293 32.1289-50.293C29.5898-50.293 27.5391-48.2422 27.5391-45.7031C27.5391-43.1641 29.5898-41.1133 32.1289-41.1133ZM32.1289-27.7344C34.7168-27.7344 36.7188-29.7363 36.7188-32.3242C36.7188-34.8633 34.668-36.8652 32.1289-36.8652C29.5898-36.8652 27.5391-34.8145 27.5391-32.3242C27.5391-29.7363 29.541-27.7344 32.1289-27.7344ZM32.1289-13.623C34.7168-13.623 36.7188-15.625 36.7188-18.2129C36.7188-20.8008 34.7168-22.8027 32.1289-22.8027C29.5898-22.8027 27.5391-20.752 27.5391-18.2129C27.5391-15.6738 29.5898-13.623 32.1289-13.623ZM43.9453-41.4551L58.9355-41.4551C61.2793-41.4551 63.1836-43.3594 63.1836-45.7031C63.1836-48.0469 61.2793-49.9512 58.9355-49.9512L43.9453-49.9512C41.6016-49.9512 39.6973-48.0469 39.6973-45.7031C39.6973-43.3594 41.6016-41.4551 43.9453-41.4551ZM43.9453-28.0762L58.9355-28.0762C61.3281-28.0762 63.1836-29.9316 63.1836-32.3242C63.1836-34.668 61.2793-36.5234 58.9355-36.5234L43.9453-36.5234C41.6016-36.5234 39.6973-34.668 39.6973-32.3242C39.6973-29.9316 41.5527-28.0762 43.9453-28.0762ZM43.9453-13.9648L58.9355-13.9648C61.2793-13.9648 63.1836-15.8691 63.1836-18.2129C63.1836-20.5566 61.2793-22.4121 58.9355-22.4121L43.9453-22.4121C41.6016-22.4121 39.6973-20.5566 39.6973-18.2129C39.6973-15.8691 41.6016-13.9648 43.9453-13.9648ZM25.0977 10.9863L65.5273 10.9863C74.707 10.9863 80.8594 4.78516 80.8594-4.54102L80.8594-61.9141C80.8594-71.2402 74.707-77.4414 65.5273-77.4414L64.8438-77.4414C65.5273-76.123 65.8691-74.5605 65.8691-72.8516L65.8691-68.8477C65.8691-67.1387 65.5273-65.5762 64.8438-64.2578L65.1367-64.2578C66.6504-64.2578 67.6758-63.2812 67.6758-61.8164L67.6758-4.63867C67.6758-3.17383 66.6504-2.19727 65.1367-2.19727L25.4883-2.19727C23.9746-2.19727 22.9492-3.17383 22.9492-4.63867L22.9492-61.8164C22.9492-63.2812 23.9746-64.2578 25.4883-64.2578L25.7812-64.2578C25.0977-65.5762 24.7559-67.1387 24.7559-68.8477L24.7559-72.8516C24.7559-74.5605 25.0977-76.123 25.7812-77.4414L25.0977-77.4414C15.918-77.4414 9.76562-71.2402 9.76562-61.9141L9.76562-4.54102C9.76562 4.78516 15.918 10.9863 25.0977 10.9863ZM33.6914-64.2578L56.9336-64.2578C59.6191-64.2578 61.2305-65.9668 61.2305-68.8477L61.2305-72.8516C61.2305-75.7324 59.6191-77.4414 56.9336-77.4414L55.0293-77.4414C54.6387-82.4707 50.4883-86.4746 45.3125-86.4746C40.1367-86.4746 35.9863-82.4707 35.5957-77.4414L33.6914-77.4414C31.0059-77.4414 29.3945-75.7324 29.3945-72.8516L29.3945-68.8477C29.3945-65.9668 31.0059-64.2578 33.6914-64.2578ZM45.3125-73.4375C43.3105-73.4375 41.6992-75.0977 41.6992-77.0508C41.6992-79.0039 43.3105-80.6152 45.3125-80.6152C47.3145-80.6152 48.9258-79.0039 48.9258-77.0508C48.9258-75.0977 47.3145-73.4375 45.3125-73.4375Z"/>
</svg>