<svg xmlns="http://www.w3.org/2000/svg" viewBox="9.76562 -73.1445 83.79 78.12">
  <path d="M51.6602 4.98047C53.5156 4.98047 56.2988 3.22266 59.1309 1.31836C79.541-12.4023 93.5547-29.1016 93.5547-45.6543C93.5547-62.4023 81.7383-73.1445 68.6523-73.1445C60.4492-73.1445 54.8828-68.6523 51.6602-62.5C48.4375-68.6523 42.8711-73.1445 34.668-73.1445C21.582-73.1445 9.76562-62.4023 9.76562-45.6543C9.76562-29.1016 23.7793-12.4023 44.1895 1.31836C47.0215 3.22266 49.8047 4.98047 51.6602 4.98047ZM41.0156-22.6562L41.0156-33.4473C41.0156-35.3027 41.6992-36.4746 43.0664-36.9141L43.0664-39.5508C43.0664-45.2637 46.5332-49.0723 51.6602-49.0723C56.8359-49.0723 60.3027-45.2637 60.3027-39.5508L60.3027-36.8652C61.6211-36.4746 62.3535-35.3027 62.3535-33.4473L62.3535-22.6562C62.3535-20.0684 61.1816-18.8965 58.8379-18.8965L44.5801-18.8965C42.1875-18.8965 41.0156-20.0684 41.0156-22.6562ZM48.584-37.1094L54.7363-37.1094L54.7363-39.6973C54.7363-42.1387 53.5645-43.6035 51.6602-43.6035C49.7559-43.6035 48.584-42.0898 48.584-39.6973Z"/>
</svg>