<svg xmlns="http://www.w3.org/2000/svg" viewBox="8.98438 -83.3008 188.96 96.78">
  <path d="M194.922-35.1562L178.223-45.0195C175-46.9238 171.436-45.166 171.436-41.4062L171.436-21.2402C171.436-17.4316 175.098-15.7227 178.223-17.5781L194.922-27.4414C197.949-29.248 197.9-33.3984 194.922-35.1562ZM12.0117-35.1562C9.0332-33.3984 8.98438-29.248 12.0117-27.4414L28.7109-17.5781C31.8359-15.7227 35.498-17.4316 35.498-21.2402L35.498-41.4062C35.498-45.166 31.9336-46.9238 28.7109-45.0195ZM66.2109-39.4043C64.1113-39.4043 62.3535-41.1621 62.3535-43.2617C62.3535-45.3613 64.1113-47.1191 66.2109-47.1191L77.4414-47.1191C79.6387-47.1191 81.2988-45.3613 81.2988-43.2617C81.2988-41.1621 79.6387-39.4043 77.4414-39.4043ZM107.568-32.8125C105.371-32.8125 103.613-34.5703 103.613-36.6699L103.613-39.3555L100.879-39.3555C98.7305-39.3555 97.0215-41.1133 97.0215-43.2129C97.0215-45.3613 98.7305-47.1191 100.879-47.1191L103.613-47.1191L103.613-49.8535C103.613-51.9531 105.371-53.7109 107.52-53.7109C109.619-53.7109 111.377-51.9531 111.377-49.8535L111.377-47.1191L114.062-47.1191C116.162-47.1191 117.92-45.3613 117.92-43.2129C117.92-41.1133 116.162-39.3555 114.062-39.3555L111.377-39.3555L111.377-36.6699C111.377-34.5703 109.668-32.8125 107.568-32.8125ZM59.1797-13.5254L119.922-13.5254C131.885-13.5254 135.156-17.334 135.156-28.7598L135.156-59.9121C135.156-67.7734 129.736-72.998 121.631-72.998L118.311-72.998L118.311-76.0742C118.311-80.6152 115.674-83.3008 111.182-83.3008L106.006-83.3008C101.465-83.3008 98.8281-80.6152 98.8281-76.0742L98.8281-72.998L80.5176-72.998L80.5176-76.0742C80.5176-80.6152 77.8809-83.3008 73.3398-83.3008L68.1641-83.3008C63.6719-83.3008 61.0352-80.6152 61.0352-76.0742L61.0352-72.998L59.1797-72.998C49.6094-72.998 43.9453-67.334 43.9453-57.7637L43.9453-28.7598C43.9453-19.1895 49.6094-13.5254 59.1797-13.5254ZM64.8438 0.292969L141.748 0.292969C146.094 0.292969 148.975-2.73438 148.975-7.27539L148.975-47.8516C148.975-51.8066 146.777-55.3223 140.771-55.3223L140.771-9.86328C140.771-8.64258 140.039-7.91016 138.867-7.91016L57.0312-7.91016C57.0312-1.75781 60.7422 0.292969 64.8438 0.292969ZM78.4668 13.4766L155.322 13.4766C159.473 13.4766 162.158 10.5957 162.158 6.34766L162.158-35.5957C162.158-39.209 160.107-42.627 154.59-42.627L154.59 4.00391C154.59 5.17578 153.857 5.9082 152.734 5.9082L71.1426 5.9082C71.1426 11.5723 74.7559 13.4766 78.4668 13.4766Z"/>
</svg>