<svg xmlns="http://www.w3.org/2000/svg" viewBox="8.30078 -86.8652 83.79 103.13">
  <path d="M19.3848-50L81.0059-50C89.9902-50 92.0898-61.4258 84.668-66.3086L59.8145-82.7148C53.5156-86.8652 46.875-86.8652 40.5762-82.7148L15.7227-66.3086C8.39844-61.4746 10.3027-50 19.3848-50ZM40.918-63.6719C40.6738-63.6719 40.4297-64.0625 40.8203-64.3555L49.3164-69.9707C50-70.4102 50.3906-70.4102 51.0742-69.9707L59.5703-64.3555C59.9609-64.0625 59.7168-63.6719 59.4727-63.6719ZM16.8945-27.9297L83.4961-27.9297C87.4512-27.9297 90.625-31.3965 90.625-35.3027C90.625-39.3555 87.5-42.6758 83.4961-42.6758L16.8945-42.6758C12.9395-42.6758 9.76562-39.2578 9.76562-35.3027C9.76562-31.4941 12.9883-27.9297 16.8945-27.9297ZM19.3848-20.6055C10.4004-20.6055 8.30078-9.17969 15.7227-4.29688L40.5762 12.1094C46.875 16.2598 53.5156 16.2598 59.8145 12.1094L84.668-4.29688C91.9922-9.13086 90.0879-20.6055 81.0059-20.6055ZM40.918-6.93359L59.4727-6.93359C59.7168-6.93359 59.9609-6.54297 59.5703-6.25L51.0742-0.634766C50.3906-0.195312 50-0.195312 49.3164-0.634766L40.8203-6.25C40.4297-6.54297 40.6738-6.93359 40.918-6.93359Z"/>
</svg>