<svg xmlns="http://www.w3.org/2000/svg" viewBox="8.1543 -88.1836 89.36 90.23">
  <path d="M10.4004-54.6387L13.9648-41.6016L13.9648-11.7188C13.9648-3.07617 19.043 2.05078 27.6855 2.05078L83.7402 2.05078C92.3828 2.05078 97.5098-3.07617 97.5098-11.7188L97.5098-51.8066C97.5098-56.2012 94.9219-58.8379 90.4785-58.8379L81.6895-58.8379L88.1348-60.5957C92.2852-61.6699 94.1895-64.9414 93.0664-69.2383L90.8691-77.2461C88.7695-85.0098 82.2754-88.1836 74.3164-85.9863L20.1172-71.4355C11.7676-69.1895 8.1543-62.9883 10.4004-54.6387ZM26.709-13.7207L26.709-25.4883L84.7168-25.4883L84.7168-13.7207C84.7168-11.5234 83.7402-10.7422 81.7383-10.7422L29.7363-10.7422C27.6855-10.7422 26.709-11.5234 26.709-13.7207ZM28.418-51.5625L30.7617-61.6699L38.0371-63.7207L35.7422-53.4668ZM46.3867-56.3477L48.7305-66.5527L56.0547-68.457L53.6621-58.3008ZM64.4531-61.2305L66.7969-71.3379L71.875-72.7539C72.6074-72.9492 73.291-73.1445 74.0723-73.3398L71.7285-63.1836ZM30.4688-34.8633L36.2793-44.7754L42.3828-44.7754L43.8477-44.7754L38.0371-34.8633ZM49.1699-34.8633L54.9805-44.7754L62.5-44.7754L56.6895-34.8633ZM67.8223-34.8633L73.6328-44.7754L81.1523-44.7754L75.3418-34.8633Z"/>
</svg>