<svg xmlns="http://www.w3.org/2000/svg" viewBox="5.9082 -82.7148 86.52 96.19">
  <path d="M74.4141-34.3262L45.6055-5.56641C39.0137 1.07422 30.1758 0.634766 24.4629-5.12695C18.7012-10.8398 18.3105-19.6289 24.9512-26.2695L64.8438-66.1621C68.2129-69.5312 73.584-70.8984 77.2461-67.2363C80.957-63.4766 79.541-58.2031 76.1719-54.834L36.2793-14.8438C35.498-14.0625 34.6191-14.2578 34.082-14.7461C33.6426-15.2344 33.4473-16.1133 34.2285-16.8945L61.9141-44.5801C64.1602-46.8262 64.1602-50.1465 62.0117-52.2949C59.8633-54.3945 56.4941-54.3945 54.2969-52.1973L26.4648-24.3652C21.3867-19.2871 21.6797-11.377 26.2207-6.83594C31.1523-1.9043 38.623-2.00195 43.7012-7.08008L83.8867-47.2656C92.4316-55.8105 92.334-67.1387 84.6191-74.9023C77.002-82.4219 65.4785-82.7148 56.9336-74.2188L16.6992-33.8867C5.9082-23.0469 6.39648-7.17773 16.4551 2.88086C26.5625 12.9395 42.4316 13.4766 53.2715 2.68555L82.3242-26.3672C84.4238-28.418 84.375-32.373 82.1777-34.4238C80.1758-36.5723 76.6113-36.4746 74.4141-34.3262Z" />
</svg>