<svg xmlns="http://www.w3.org/2000/svg" viewBox="6.83594 -77.2461 83.98 83.98">
  <path d="M48.8281 6.73828C72.0215 6.73828 90.8203-12.0605 90.8203-35.2539C90.8203-58.4473 72.0215-77.2461 48.8281-77.2461C25.6348-77.2461 6.83594-58.4473 6.83594-35.2539C6.83594-12.0605 25.6348 6.73828 48.8281 6.73828ZM48.8281-7.42188C33.4473-7.42188 20.9961-19.873 20.9961-35.2539C20.9961-50.6348 33.4473-63.0859 48.8281-63.0859C64.209-63.0859 76.6602-50.6348 76.6602-35.2539C76.6602-19.873 64.209-7.42188 48.8281-7.42188ZM33.8867-18.1641C38.4766-13.623 45.6055-13.3789 50.4883-18.2617L63.5742-31.3477C64.5996-32.373 64.5508-34.0332 63.5254-35.0098C62.5488-35.9375 60.9863-35.9375 60.0098-34.9609L47.0215-21.9727C44.043-18.9941 40.0879-19.1895 37.5-21.7773C34.9121-24.3652 34.7168-28.3203 37.7441-31.2988L55.7617-49.2676C57.2754-50.7324 59.668-51.416 61.2793-49.7559C62.9883-48.0469 62.3047-45.7031 60.791-44.1895L42.7246-26.123C42.2852-25.6836 42.041-25.7812 41.7969-26.0742C41.6016-26.2207 41.5039-26.5625 41.8945-27.002L54.3945-39.5508C55.4688-40.625 55.4688-42.041 54.4434-43.0664C53.4668-44.043 52.002-44.043 50.9766-43.0176L38.3789-30.3711C36.084-28.0762 36.2305-24.5605 38.2812-22.4609C40.5273-20.2148 43.8477-20.2637 46.1426-22.5586L64.3066-40.8203C68.1641-44.6777 68.1152-49.7559 64.6484-53.2227C61.1816-56.6895 56.0059-56.7871 52.1484-52.9297L34.0332-34.7168C29.1504-29.7852 29.3945-22.7051 33.8867-18.1641Z" />
</svg>