<svg xmlns="http://www.w3.org/2000/svg" viewBox="9.76562 -70.8008 106.69 71.04">
  <path d="M60.498 0.195312L106.494 0.195312C114.062 0.195312 116.455-2.58789 116.455-6.88477C116.455-16.5527 103.32-29.6875 83.4961-29.6875C63.6719-29.6875 50.5371-16.5527 50.5371-6.88477C50.5371-2.58789 52.9297 0.195312 60.498 0.195312ZM83.4961-36.1816C92.5781-36.1816 99.5605-43.9453 99.5605-53.6133C99.5605-62.793 92.4805-70.8008 83.4961-70.8008C74.5117-70.8008 67.4316-62.793 67.4316-53.6133C67.4316-43.9453 74.4141-36.1816 83.4961-36.1816ZM18.4082 0.244141L45.3613 0.244141C40.7715-5.9082 43.3105-17.2363 53.7109-25.9277C49.8047-28.0762 44.2871-29.7363 38.4277-29.7363C22.1191-29.7363 9.76562-17.7734 9.76562-8.39844C9.76562-3.02734 11.8164 0.244141 18.4082 0.244141ZM38.4277-35.3516C46.3379-35.3516 52.4414-42.1387 52.4414-50.5371C52.4414-58.5449 46.2402-65.5273 38.4277-65.5273C30.6152-65.5273 24.4629-58.5449 24.4629-50.5371C24.4629-42.1387 30.5176-35.3516 38.4277-35.3516Z"/>
</svg>