<svg xmlns="http://www.w3.org/2000/svg" viewBox="6.83594 -77.2461 83.98 83.98">
  <path d="M48.8281 6.73828C72.0215 6.73828 90.8203-12.0605 90.8203-35.2539C90.8203-58.4473 72.0215-77.2461 48.8281-77.2461C25.6348-77.2461 6.83594-58.4473 6.83594-35.2539C6.83594-12.0605 25.6348 6.73828 48.8281 6.73828ZM48.8281-7.42188C33.4473-7.42188 20.9961-19.873 20.9961-35.2539C20.9961-50.6348 33.4473-63.0859 48.8281-63.0859C64.209-63.0859 76.6602-50.6348 76.6602-35.2539C76.6602-19.873 64.209-7.42188 48.8281-7.42188ZM35.3027-21.0938L62.2559-21.0938C65.9668-21.0938 68.1152-23.1934 68.1152-26.9043L68.1152-37.3047C68.1152-43.6523 64.4043-47.6562 58.4961-47.6562L57.7637-47.6562L57.7637-49.2188C57.7637-52.3926 55.2246-54.2969 51.2207-54.2969L46.3379-54.2969C42.334-54.2969 39.7949-52.3926 39.7949-49.2188L39.7949-47.6562L39.0625-47.6562C33.1543-47.6562 29.4434-43.6523 29.4434-37.3047L29.4434-26.9043C29.4434-23.1934 31.5918-21.0938 35.3027-21.0938ZM44.4336-47.6562L44.4336-48.3887C44.4336-49.5117 45.1172-50.2441 46.3379-50.2441L51.2207-50.2441C52.4414-50.2441 53.125-49.5117 53.125-48.3887L53.125-47.6562ZM41.6992-34.9609C41.6992-36.3281 42.4805-37.4512 43.457-37.4512C44.4824-37.4512 45.2637-36.3281 45.2637-34.9609C45.2637-33.5938 44.4824-32.4707 43.457-32.4707C42.4805-32.4707 41.6992-33.5938 41.6992-34.9609ZM44.873-38.8184C44.873-40.1367 45.6543-41.2598 46.6797-41.2598C47.7051-41.2598 48.4863-40.1367 48.4863-38.8184C48.4863-37.4512 47.7051-36.3281 46.6797-36.3281C45.6543-36.3281 44.873-37.4512 44.873-38.8184ZM49.0723-38.8184C49.0723-40.1367 49.9023-41.2598 50.8789-41.2598C51.9043-41.2598 52.6855-40.1367 52.6855-38.8184C52.6855-37.4512 51.9043-36.3281 50.8789-36.3281C49.9023-36.3281 49.0723-37.4512 49.0723-38.8184ZM52.2949-34.9609C52.2949-36.3281 53.0762-37.4512 54.1016-37.4512C55.0781-37.4512 55.9082-36.3281 55.9082-34.9609C55.9082-33.5938 55.0781-32.4707 54.1016-32.4707C53.0762-32.4707 52.2949-33.5938 52.2949-34.9609ZM43.8477-30.0293C43.8477-31.2012 44.5801-31.7871 45.166-32.2754C45.5078-32.5684 45.8496-32.8125 45.9961-33.1055C46.1914-33.3496 46.3379-33.5938 46.4844-33.9844C46.9238-34.9121 47.3145-35.9375 48.7793-35.9375C50.2441-35.9375 50.6348-34.9121 51.123-33.9844C51.2207-33.5938 51.3672-33.3496 51.5625-33.1055C51.7578-32.8125 52.0996-32.5684 52.3926-32.2754C52.9785-31.7871 53.7598-31.2012 53.7598-30.0293C53.7598-28.5645 52.7344-27.4902 51.3672-27.4902C50.6836-27.4902 50.1953-27.7344 49.8047-27.832C49.4629-27.9297 49.1699-28.0273 48.7793-28.0273C48.3887-28.0273 48.1445-27.9297 47.8027-27.832C47.3633-27.7344 46.875-27.4902 46.1914-27.4902C44.8242-27.4902 43.8477-28.5645 43.8477-30.0293Z" />
</svg>