<svg xmlns="http://www.w3.org/2000/svg" viewBox="9.76562 -80.9082 109.18 91.41">
  <path d="M25-10.0098L52.002-10.0098L52.002-24.1699L27.2461-24.1699C25-24.1699 23.9258-25.0488 23.9258-27.4902L23.9258-63.4277C23.9258-65.8691 25-66.748 27.2461-66.748L79.9805-66.748C82.2266-66.748 83.3008-65.8691 83.3008-63.4277L83.3008-43.7988L97.4609-43.7988L97.4609-65.6738C97.4609-75.2441 91.7969-80.9082 82.2266-80.9082L25-80.9082C15.4297-80.9082 9.76562-75.2441 9.76562-65.6738L9.76562-25.2441C9.76562-15.6738 15.4297-10.0098 25-10.0098ZM60.6445 10.498L103.711 10.498C113.281 10.498 118.945 4.83398 118.945-4.73633L118.945-33.4473C118.945-43.0176 113.281-48.6816 103.711-48.6816L60.6445-48.6816C51.0742-48.6816 45.4102-43.0176 45.4102-33.4473L45.4102-4.73633C45.4102 4.83398 51.0742 10.498 60.6445 10.498ZM45.4102-58.0078C45.2637-60.4492 42.5781-61.8652 40.7227-60.0098L37.4512-56.7383L33.5449-60.6445C32.1777-62.0117 30.0781-61.9629 28.7109-60.6445C27.3438-59.2773 27.3438-57.1777 28.7109-55.8105L32.6172-51.9043L29.3457-48.584C27.4902-46.6797 28.8574-44.043 31.3477-43.8965L42.5781-43.1641C43.75-43.0664 44.6777-43.4082 45.3125-43.9941C45.9473-44.6289 46.2891-45.5566 46.1914-46.7285ZM59.7168-22.3145L58.9355-33.5938C58.8867-34.7656 59.1797-35.6934 59.8145-36.3281C60.4492-36.9141 61.377-37.2559 62.5488-37.1582L73.7793-36.4258C76.2695-36.2305 77.6855-33.5938 75.7812-31.7383L72.5098-28.418L76.416-24.5117C77.7832-23.1934 77.7832-21.0449 76.416-19.6777C75.0488-18.3594 72.9492-18.3594 71.582-19.6777L67.6758-23.584L64.4043-20.3125C62.5488-18.457 59.8633-19.873 59.7168-22.3145Z"/>
</svg>