<svg xmlns="http://www.w3.org/2000/svg" viewBox="9.76562 -84.9121 73.34 99.41">
  <path d="M25 14.502L67.8711 14.502C77.4414 14.502 83.1055 8.83789 83.1055-0.732422L83.1055-43.6035C83.1055-53.1738 77.4414-58.8379 67.8711-58.8379L25-58.8379C15.4297-58.8379 9.76562-53.1738 9.76562-43.6035L9.76562-0.732422C9.76562 8.83789 15.4297 14.502 25 14.502ZM27.2461 0.341797C25 0.341797 23.9258-0.537109 23.9258-2.97852L23.9258-41.3574C23.9258-43.7988 25-44.6777 27.2461-44.6777L65.625-44.6777C67.8711-44.6777 68.9453-43.7988 68.9453-41.3574L68.9453-2.97852C68.9453-0.537109 67.8711 0.341797 65.625 0.341797ZM18.7012-64.4043L72.6074-64.4043C72.2168-68.8477 69.4824-71.7285 64.1113-71.7285L27.1973-71.7285C21.8262-71.7285 19.0918-68.8477 18.7012-64.4043ZM24.8535-78.0762L66.4551-78.0762C66.0645-82.373 63.1348-84.9121 58.6426-84.9121L32.666-84.9121C28.1738-84.9121 25.2441-82.373 24.8535-78.0762ZM41.8457-6.98242L60.4004-17.9199C63.7695-19.9219 63.7207-24.5605 60.4004-26.5137L41.8457-37.4512C38.2812-39.5508 34.3262-37.6465 34.3262-33.4473L34.3262-11.0352C34.3262-6.78711 38.3789-4.93164 41.8457-6.98242Z"/>
</svg>