<svg xmlns="http://www.w3.org/2000/svg" viewBox="6.83594 -74.0723 104.59 77.64">
  <path d="M79.3457-31.0059C81.6895-31.0059 83.5938-32.9102 83.5938-35.2539C83.5938-37.5977 81.6895-39.4531 79.3457-39.4531L68.1152-39.4531C65.8203-39.4531 63.916-37.5977 63.916-35.2539C63.916-32.9102 65.8203-31.0059 68.1152-31.0059ZM36.7188-31.0059L51.123-31.0059C53.418-31.0059 55.3223-32.9102 55.3223-35.2539C55.3223-37.5977 53.418-39.4531 51.123-39.4531L36.7188-39.4531C34.375-39.4531 32.4707-37.5977 32.4707-35.2539C32.4707-32.9102 34.375-31.0059 36.7188-31.0059ZM48.0957-28.0762L48.0957-42.4805C48.0957-44.8242 46.1914-46.7285 43.8965-46.7285C41.5527-46.7285 39.6484-44.8242 39.6484-42.4805L39.6484-28.0762C39.6484-25.7324 41.5039-23.8281 43.8477-23.8281C46.1914-23.8281 48.0957-25.7324 48.0957-28.0762ZM6.83594-35.2539C6.83594-11.9629 22.7051 3.56445 46.4844 3.56445L71.7773 3.56445C95.5566 3.56445 111.426-11.9629 111.426-35.2539C111.426-58.5449 95.5566-74.0723 71.7773-74.0723L46.4844-74.0723C22.7051-74.0723 6.83594-58.5449 6.83594-35.2539ZM20.9961-35.2539C20.9961-50.3906 30.8105-59.9121 46.4844-59.9121L71.7773-59.9121C87.4512-59.9121 97.2656-50.3906 97.2656-35.2539C97.2656-20.1172 87.4512-10.5957 71.7773-10.5957L46.4844-10.5957C30.8105-10.5957 20.9961-20.1172 20.9961-35.2539Z" />
</svg>