<svg xmlns="http://www.w3.org/2000/svg" viewBox="8.69141 -79.541 88.09 88.48">
  <path d="M56.0547-67.5781C58.4473-67.5781 60.4492-69.5312 60.4492-71.9727C60.4492-74.4141 58.4473-76.3672 56.0547-76.3672L28.6133-76.3672L37.3535-67.5781ZM68.0664-55.4688C70.5078-55.4688 72.4609-57.4219 72.4609-59.8633C72.4609-62.2559 70.5078-64.2578 68.0664-64.2578L40.6738-64.2578L49.4141-55.4688ZM80.1758-43.3594C82.6172-43.3594 84.5703-45.3613 84.5703-47.7539C84.5703-50.1953 82.6172-52.1484 80.1758-52.1484L52.7344-52.1484L61.5234-43.3594ZM92.3828-40.0391L64.7949-40.0391C67.2363-37.4023 68.3105-34.2773 68.2129-31.25L92.3828-31.25C94.7754-31.25 96.7773-33.2031 96.7773-35.6445C96.7773-38.0859 94.7754-40.0391 92.3828-40.0391ZM47.0215 6.83594C52.1973 4.78516 54.6875-0.976562 52.4902-6.00586L37.3535-40.6738L31.3965-27.9785L55.2734-26.4648C60.3516-26.123 62.793-31.7383 59.2285-35.3027L18.457-76.1719C15.0879-79.541 9.96094-77.5391 9.86328-72.7539L8.78906-15.332C8.69141-10.0586 14.5508-7.86133 18.0176-11.7676L33.1543-28.9551L19.7754-34.4727L34.1797 1.5625C36.1328 6.44531 42.041 8.93555 47.0215 6.83594Z"/>
</svg>