<svg xmlns="http://www.w3.org/2000/svg" viewBox="9.76562 -73.3887 76.27 76.27">
  <path d="M25 2.88086L70.8008 2.88086C80.3711 2.88086 86.0352-2.7832 86.0352-12.3535L86.0352-58.1543C86.0352-67.7246 80.3711-73.3887 70.8008-73.3887L25-73.3887C15.4297-73.3887 9.76562-67.7246 9.76562-58.1543L9.76562-12.3535C9.76562-2.7832 15.4297 2.88086 25 2.88086ZM27.2461-11.2793C25-11.2793 23.9258-12.1582 23.9258-14.5996L23.9258-55.9082C23.9258-58.3496 25-59.2285 27.2461-59.2285L68.5547-59.2285C70.8008-59.2285 71.875-58.3496 71.875-55.9082L71.875-14.5996C71.875-12.1582 70.8008-11.2793 68.5547-11.2793ZM55.5176-15.1855C58.0078-16.2598 59.2285-18.9941 58.1543-21.4844L53.6621-31.7383L59.5703-31.3965C62.0605-31.25 63.2812-33.9355 61.5234-35.6934L41.5527-55.6641C39.8926-57.3242 37.4512-56.3477 37.4023-54.0039L36.8652-25.9277C36.8164-23.3398 39.6484-22.3145 41.3574-24.2188L45.0195-28.3691L49.2188-17.7734C50.1953-15.3809 53.0762-14.1602 55.5176-15.1855Z" />
</svg>