<svg xmlns="http://www.w3.org/2000/svg" viewBox="9.76562 -73.3887 76.27 76.27">
  <path d="M23.3887-31.3477L23.3887-39.0625C23.3887-41.3086 25-42.9199 27.1973-42.9199L27.832-42.9199L27.832-43.5059C27.832-51.1719 37.4512-58.0566 47.9004-58.0566C58.3496-58.0566 67.9688-51.1719 67.9688-43.5059L67.9688-42.9199L68.6035-42.9199C70.8008-42.9199 72.4121-41.3086 72.4121-39.0625L72.4121-31.3477C72.4121-29.1016 70.8008-27.4902 68.6035-27.4902L67.9688-27.4902L67.9688-26.9043C67.9688-19.2383 58.3496-12.3535 47.9004-12.3535C37.4512-12.3535 27.832-19.2383 27.832-26.9043L27.832-27.4902L27.1973-27.4902C25-27.4902 23.3887-29.1016 23.3887-31.3477ZM36.9141-30.5664C39.502-30.5664 41.5527-32.6172 41.5527-35.2051C41.5527-37.793 39.502-39.8438 36.9141-39.8438C34.375-39.8438 32.3242-37.8418 32.3242-35.2051C32.3242-32.5684 34.375-30.5664 36.9141-30.5664ZM58.8867-30.5664C61.4258-30.5664 63.5254-32.5684 63.5254-35.2051C63.5254-37.8418 61.4258-39.8438 58.8867-39.8438C56.2988-39.8438 54.248-37.793 54.248-35.2051C54.248-32.6172 56.2988-30.5664 58.8867-30.5664ZM25 2.88086L70.8008 2.88086C80.3711 2.88086 86.0352-2.7832 86.0352-12.3535L86.0352-58.1543C86.0352-67.7246 80.3711-73.3887 70.8008-73.3887L25-73.3887C15.4297-73.3887 9.76562-67.7246 9.76562-58.1543L9.76562-12.3535C9.76562-2.7832 15.4297 2.88086 25 2.88086Z"/>
</svg>