<svg xmlns="http://www.w3.org/2000/svg" viewBox="6.83594 -77.2461 83.98 83.98">
  <path d="M48.8281 6.73828C72.0215 6.73828 90.8203-12.0605 90.8203-35.2539C90.8203-58.4473 72.0215-77.2461 48.8281-77.2461C25.6348-77.2461 6.83594-58.4473 6.83594-35.2539C6.83594-12.0605 25.6348 6.73828 48.8281 6.73828ZM28.2715-24.7559C28.2715-27.0996 30.2246-28.7109 32.3242-28.7109C33.7891-28.7109 34.668-28.2227 35.791-26.9043L36.4746-26.0742L37.5488-24.5605L37.0117-28.0762L37.0117-41.8457C37.0117-51.8555 42.6758-57.7148 52.3926-57.7148C60.9375-57.7148 66.6992-51.5625 66.6992-43.6523C66.6992-35.6934 61.4258-30.3711 53.5156-30.3711C51.9531-30.3711 50.5371-30.7617 49.4629-31.3965C48.0957-32.2266 47.3633-33.3984 47.3633-34.9121C47.3633-36.7676 48.584-38.3301 50.8301-38.3301C51.3184-38.3301 52.1484-38.2812 53.418-38.2812C56.543-38.2812 58.6426-40.4297 58.6426-43.6523C58.6426-47.168 56.1035-49.6094 52.3926-49.6094C48.1445-49.6094 45.3613-46.7773 45.3613-40.5762L45.3613-28.0762L44.8242-24.5605L45.8984-26.0742L46.6797-26.9043C47.8516-28.125 48.584-28.7109 50.0488-28.7109C52.1484-28.7109 54.0527-27.0996 54.0527-24.7559C54.0527-23.3887 53.6621-22.4609 52.4902-21.3379L45.3125-14.4531C44.2871-13.4766 42.6758-12.8418 41.2109-12.8418C39.6973-12.8418 38.0371-13.4766 37.0605-14.4531L29.8828-21.3379C28.7109-22.4609 28.2715-23.3887 28.2715-24.7559Z"/>
</svg>