<svg xmlns="http://www.w3.org/2000/svg" viewBox="6.83594 -77.2461 83.98 83.98">
  <path d="M48.8281 6.73828C72.0215 6.73828 90.8203-12.0605 90.8203-35.2539C90.8203-58.4473 72.0215-77.2461 48.8281-77.2461C25.6348-77.2461 6.83594-58.4473 6.83594-35.2539C6.83594-12.0605 25.6348 6.73828 48.8281 6.73828ZM48.8281-7.42188C33.4473-7.42188 20.9961-19.873 20.9961-35.2539C20.9961-50.6348 33.4473-63.0859 48.8281-63.0859C64.209-63.0859 76.6602-50.6348 76.6602-35.2539C76.6602-19.873 64.209-7.42188 48.8281-7.42188ZM48.8281-20.1172C57.1777-20.1172 63.9648-26.9043 63.9648-35.2539C63.9648-43.6035 57.1777-50.3906 48.8281-50.3906C40.4785-50.3906 33.6914-43.6035 33.6914-35.2539C33.6914-26.9043 40.4785-20.1172 48.8281-20.1172Z" />
</svg>