<svg xmlns="http://www.w3.org/2000/svg" viewBox="9.76562 -83.6914 67.97 96.92">
  <path d="M22.2168 13.2324L65.2344 13.2324C72.5586 13.2324 77.7344 7.95898 77.7344 0.537109L77.7344-70.9961C77.7344-78.418 72.5586-83.6914 65.2344-83.6914L22.2168-83.6914C14.8926-83.6914 9.76562-78.418 9.76562-70.9961L9.76562 0.537109C9.76562 7.95898 14.8926 13.2324 22.2168 13.2324ZM24.0723 0.537109C23.1445 0.537109 22.5098-0.0976562 22.5098-1.02539L22.5098-69.4336C22.5098-70.3613 23.1445-70.9961 24.0723-70.9961L63.8672-70.9961C64.5508-70.9961 64.9902-70.5566 64.9902-69.9219L64.9902-0.537109C64.9902 0.0976562 64.5508 0.537109 63.8672 0.537109ZM30.7129-51.2695C32.666-51.2695 34.1309-52.7344 34.1309-54.6875L34.1309-63.7207C34.1309-65.6738 32.666-67.0898 30.7129-67.0898C28.8086-67.0898 27.3438-65.6738 27.3438-63.7207L27.3438-54.6875C27.3438-52.7344 28.8086-51.2695 30.7129-51.2695ZM19.7266-41.0645L68.8965-41.0645L68.8965-47.9004L19.7266-47.9004ZM30.7129-22.8516C32.666-22.8516 34.1309-24.2676 34.1309-26.2207L34.1309-35.2539C34.1309-37.207 32.666-38.6719 30.7129-38.6719C28.8086-38.6719 27.3438-37.207 27.3438-35.2539L27.3438-26.2207C27.3438-24.2676 28.8086-22.8516 30.7129-22.8516ZM19.7266-4.63867L68.8965-4.63867L68.8965-11.4746L19.7266-11.4746Z"/>
</svg>