<svg xmlns="http://www.w3.org/2000/svg" viewBox="0.976562 -73.9258 69.43 77.44">
  <path d="M61.7188 3.51562C66.1621 3.51562 70.4102 0.0976562 70.4102-5.9082L70.4102-64.502C70.4102-70.5078 66.1621-73.9258 61.7188-73.9258C59.668-73.9258 57.7148-73.3887 54.9316-71.7773L7.37305-44.1406C3.51562-41.8945 0.976562-39.2578 0.976562-35.2051C0.976562-31.1523 3.51562-28.5156 7.37305-26.2695L54.9316 1.36719C57.7148 2.97852 59.668 3.51562 61.7188 3.51562ZM54.834-15.8203C54.7363-15.8203 54.6387-15.8691 54.4434-15.9668L21.5332-34.8633C21.3867-34.9609 21.3379-35.0586 21.3379-35.2051C21.3379-35.3516 21.3867-35.4492 21.5332-35.5469L54.4434-54.4922C54.6387-54.5898 54.7363-54.6387 54.834-54.6387C55.0293-54.6387 55.127-54.4922 55.127-54.248L55.127-16.2109C55.127-15.9668 55.0293-15.8203 54.834-15.8203Z"/>
</svg>