<svg xmlns="http://www.w3.org/2000/svg" viewBox="9.76562 -74.9512 69.73 80.57">
  <path d="M9.76562-27.3438C9.76562-13.4766 18.2129-6.34766 41.3574 4.6875C42.3828 5.17578 43.6523 5.61523 44.6289 5.61523C45.6055 5.61523 46.875 5.17578 47.9004 4.6875C71.0449-6.34766 79.4922-13.4766 79.4922-27.3438L79.4922-54.4922C79.4922-61.6699 77.5879-64.9902 70.9961-67.8223C68.0176-69.0918 55.0781-73.0469 52.5879-73.7793C50.1465-74.5117 46.9727-74.9512 44.6289-74.9512C42.2852-74.9512 39.1113-74.4629 36.6699-73.7793C34.1797-73.0957 21.2402-69.0918 18.2617-67.8223C11.6699-64.9902 9.76562-61.6699 9.76562-54.4922ZM22.4121-28.8086L22.4121-35.2539L44.5801-35.2539L44.5801-62.5977C45.8008-62.5977 46.875-62.3047 49.0234-61.6699C50.7812-61.1328 60.4004-58.0078 65.2344-56.0059C66.4062-55.5176 66.8457-54.7852 66.8457-53.125L66.8457-35.2539L44.6289-35.2539L44.6289-7.91016C44.3848-7.91016 44.1895-7.95898 43.2617-8.54492C26.709-18.9941 22.4121-20.5078 22.4121-28.8086Z"/>
</svg>