<svg xmlns="http://www.w3.org/2000/svg" viewBox="7.8125 -79.1992 115.82 85.35">
  <path d="M7.8125-29.1992C7.8125-30.8594 8.39844-32.5684 9.96094-34.1797L21.875-46.6309C22.8516-47.6074 23.877-48.1445 25.3418-48.1445C28.2227-48.1445 30.1758-45.6055 30.1758-43.1152C30.1758-41.6016 29.541-40.2832 28.5156-39.3066L25.0488-36.0352L13.9648-29.1992L25.0488-22.3633L28.5156-19.0918C29.541-18.1152 30.1758-16.7969 30.1758-15.2832C30.1758-12.793 28.2227-10.2539 25.3418-10.2539C23.877-10.2539 22.8516-10.791 21.875-11.7676L9.96094-24.2188C8.39844-25.8301 7.8125-27.5391 7.8125-29.1992ZM64.209-29.1992C64.209-25.7812 61.4258-23.1934 58.252-23.1934L27.1973-23.1934L17.5293-23.8281C14.5508-24.0234 12.1582-26.2207 12.1582-29.1992C12.1582-32.1777 14.5508-34.375 17.5293-34.5703L27.1973-35.2051L58.252-35.2051C61.4258-35.2051 64.209-32.6172 64.209-29.1992ZM86.7188 6.15234C87.5977 6.05469 88.5254 5.66406 89.4531 5.17578L117.432-9.375C121.924-11.7188 123.633-14.5508 123.633-19.5312L123.633-53.6621C123.633-53.9551 123.633-54.1992 123.633-54.4922L86.7188-34.8633ZM79.2969 6.15234L79.2969-34.8633L42.3828-54.4922C42.3828-54.1992 42.3828-53.9551 42.3828-53.6621L42.3828-19.5312C42.3828-14.5508 44.0918-11.7188 48.584-9.375L76.5625 5.17578C77.4902 5.66406 78.418 6.05469 79.2969 6.15234ZM83.0078-41.6992L98.877-50.0488L61.084-70.1172L48.4863-63.5254C47.2656-62.8906 46.2402-62.207 45.4102-61.4258ZM107.275-54.3945L120.654-61.4258C119.824-62.207 118.799-62.8906 117.578-63.5254L91.5039-77.1484C88.916-78.5156 85.9863-79.1992 83.0566-79.1992C80.0781-79.1992 77.1484-78.5156 74.5605-77.1484L69.2383-74.3652Z" />
</svg>