<svg xmlns="http://www.w3.org/2000/svg" viewBox="9.76562 -73.3398 92.58 76.27">
  <path d="M52.7344-9.91211L65.4297-9.91211L65.4297-61.084L52.7344-61.084ZM27.9297 2.92969L84.1797 2.92969C95.3613 2.92969 102.344-4.05273 102.344-15.2344L102.344-55.1758C102.344-66.3574 95.3613-73.3398 84.1797-73.3398L27.9297-73.3398C16.748-73.3398 9.76562-66.3574 9.76562-55.1758L9.76562-15.2344C9.76562-4.05273 16.748 2.92969 27.9297 2.92969ZM30.1758-11.2305C26.3184-11.2305 23.9258-13.623 23.9258-17.4805L23.9258-52.9297C23.9258-56.7871 26.3184-59.1797 30.1758-59.1797L81.9336-59.1797C85.791-59.1797 88.1836-56.7871 88.1836-52.9297L88.1836-17.4805C88.1836-13.623 85.791-11.2305 81.9336-11.2305ZM73.6328-46.0938L79.7852-46.0938C82.1289-46.0938 83.9355-47.8516 83.9355-49.9512C83.9355-52.0508 82.1289-53.8574 79.7852-53.8574L73.6328-53.8574C71.2891-53.8574 69.4824-52.0508 69.4824-49.9512C69.4824-47.8516 71.2891-46.0938 73.6328-46.0938ZM73.6328-34.1309L79.7852-34.1309C82.1289-34.1309 83.9355-35.8887 83.9355-37.9883C83.9355-40.0879 82.1289-41.8457 79.7852-41.8457L73.6328-41.8457C71.2891-41.8457 69.4824-40.0879 69.4824-37.9883C69.4824-35.8887 71.2891-34.1309 73.6328-34.1309ZM73.6328-22.1191L79.7852-22.1191C82.1289-22.1191 83.9355-23.9258 83.9355-26.0254C83.9355-28.125 82.1289-29.8828 79.7852-29.8828L73.6328-29.8828C71.2891-29.8828 69.4824-28.125 69.4824-26.0254C69.4824-23.9258 71.2891-22.1191 73.6328-22.1191Z"/>
</svg>