<svg xmlns="http://www.w3.org/2000/svg" viewBox="9.76562 -71.7773 98.39 73.14">
  <path d="M21.582-15.3809L31.9336-15.3809C32.0801-15.3809 32.2266-15.3809 32.4219-15.1855L46.9727-2.19727C49.707 0.244141 51.8066 1.36719 54.6875 1.36719C59.1797 1.36719 62.6465-2.09961 62.6465-6.5918L62.6465-63.8184C62.6465-68.3105 59.1797-71.7773 54.6875-71.7773C52.002-71.7773 49.8047-70.752 46.9727-68.2129L32.4219-55.2734C32.1777-55.0781 32.0801-55.0293 31.9336-55.0293L21.582-55.0293C13.9648-55.0293 9.76562-50.5859 9.76562-42.7246L9.76562-27.6855C9.76562-19.8242 13.9648-15.3809 21.582-15.3809ZM24.1211-27.8809C23.584-27.8809 23.1934-28.3203 23.1934-28.8086L23.1934-41.6016C23.1934-42.0898 23.584-42.5293 24.1211-42.5293L34.668-42.5293C35.9375-42.5293 36.8164-42.8223 37.6953-43.6523L48.0957-53.2715C48.2422-53.418 48.4375-53.4668 48.6328-53.4668C48.9746-53.4668 49.2188-53.2227 49.2188-52.832L49.2188-17.5293C49.2188-17.1387 48.9746-16.8457 48.6328-16.8457C48.4375-16.8457 48.2422-16.9434 48.0957-17.0898L37.6953-26.7578C36.8164-27.5879 35.9375-27.8809 34.668-27.8809ZM96.1914-23.0957L96.1914-47.4121C96.1914-50.3906 93.8477-52.6367 90.7715-52.6367C87.6953-52.6367 85.3516-50.3906 85.3516-47.4121L85.3516-23.0957C85.3516-20.1172 87.6953-17.8711 90.7715-17.8711C93.8477-17.8711 96.1914-20.1172 96.1914-23.0957ZM78.6133-29.834L102.93-29.834C105.908-29.834 108.154-32.1777 108.154-35.2539C108.154-38.3301 105.908-40.6738 102.93-40.6738L78.6133-40.6738C75.6348-40.6738 73.3887-38.3301 73.3887-35.2539C73.3887-32.1777 75.6348-29.834 78.6133-29.834Z" />
</svg>