<svg xmlns="http://www.w3.org/2000/svg" viewBox="9.76562 -80.3711 84.77 90.23">
  <path d="M43.1641-35.3516L61.1328-35.3516C64.6484-35.3516 67.1875-37.8906 67.1875-41.4062L67.1875-45.2148C67.1875-50.9277 63.4766-54.4922 57.4707-54.4922L46.8262-54.4922C40.8203-54.4922 37.1094-50.9277 37.1094-45.2148L37.1094-41.4062C37.1094-37.8906 39.6484-35.3516 43.1641-35.3516ZM45.9961-43.5547C45.6055-43.5547 45.3125-43.8477 45.3125-44.2383L45.3125-45.2148C45.3125-45.8984 45.8496-46.2891 46.6797-46.2891L57.6172-46.2891C58.4473-46.2891 58.9844-45.8984 58.9844-45.2148L58.9844-44.2383C58.9844-43.8477 58.6914-43.5547 58.3008-43.5547ZM44.0918-12.5977L60.2051-12.5977C64.3066-12.5977 67.1875-15.2832 67.1875-19.1406L67.1875-26.2695C67.1875-30.0781 64.3066-32.7637 60.2051-32.7637L44.0918-32.7637C39.9902-32.7637 37.1094-30.0781 37.1094-26.2695L37.1094-19.1406C37.1094-15.2832 39.9902-12.5977 44.0918-12.5977ZM45.9961-20.8008C45.6055-20.8008 45.3125-21.0938 45.3125-21.4844L45.3125-23.9258C45.3125-24.2676 45.6055-24.5605 45.9961-24.5605L58.3008-24.5605C58.6914-24.5605 58.9844-24.2676 58.9844-23.9258L58.9844-21.4844C58.9844-21.0938 58.6914-20.8008 58.3008-20.8008ZM42.4316-26.9531L50.6348-26.9531L50.6348-40.1367L42.4316-40.1367ZM53.6621-26.9531L61.8652-26.9531L61.8652-40.1367L53.6621-40.1367ZM42.4316 3.71094L50.6348 3.71094L50.6348-17.041L42.4316-17.041ZM53.6621 3.71094L61.8652 3.71094L61.8652-17.041L53.6621-17.041ZM15.3809 9.86328L88.916 9.86328C91.9922 9.86328 94.5312 7.32422 94.5312 4.24805C94.5312 1.12305 91.9434-1.36719 88.916-1.36719L15.3809-1.36719C12.3047-1.36719 9.76562 1.17188 9.76562 4.24805C9.76562 7.32422 12.3535 9.86328 15.3809 9.86328ZM28.0762-38.7207C30.3711-38.7207 32.2266-40.5762 32.2266-42.8711C32.2266-45.166 30.3711-47.0215 28.0762-47.0215C25.7812-47.0215 23.9258-45.166 23.9258-42.8711C23.9258-40.5762 25.7812-38.7207 28.0762-38.7207ZM15.3809-38.7207C17.6758-38.7207 19.5312-40.5762 19.5312-42.8711C19.5312-45.166 17.6758-47.0215 15.3809-47.0215C13.0859-47.0215 11.2305-45.166 11.2305-42.8711C11.2305-40.5762 13.0859-38.7207 15.3809-38.7207ZM34.2773-55.4688C36.5723-55.4688 38.4277-57.3242 38.4277-59.6191C38.4277-61.9141 36.5723-63.7695 34.2773-63.7695C31.9824-63.7695 30.127-61.9141 30.127-59.6191C30.127-57.3242 31.9824-55.4688 34.2773-55.4688ZM25.293-64.4531C27.5879-64.4531 29.4434-66.3086 29.4434-68.6035C29.4434-70.8984 27.5879-72.7539 25.293-72.7539C22.998-72.7539 21.1426-70.8984 21.1426-68.6035C21.1426-66.3086 22.998-64.4531 25.293-64.4531ZM52.1484-59.375C54.4434-59.375 56.2988-61.2305 56.2988-63.5254C56.2988-65.8203 54.4434-67.6758 52.1484-67.6758C49.8535-67.6758 47.998-65.8203 47.998-63.5254C47.998-61.2305 49.8535-59.375 52.1484-59.375ZM52.1484-72.0703C54.4434-72.0703 56.2988-73.9258 56.2988-76.2207C56.2988-78.5156 54.4434-80.3711 52.1484-80.3711C49.8535-80.3711 47.998-78.5156 47.998-76.2207C47.998-73.9258 49.8535-72.0703 52.1484-72.0703ZM70.0195-55.4688C72.3145-55.4688 74.1699-57.3242 74.1699-59.6191C74.1699-61.9141 72.3145-63.7695 70.0195-63.7695C67.7246-63.7695 65.8691-61.9141 65.8691-59.6191C65.8691-57.3242 67.7246-55.4688 70.0195-55.4688ZM79.0039-64.4531C81.2988-64.4531 83.1543-66.3086 83.1543-68.6035C83.1543-70.8984 81.2988-72.7539 79.0039-72.7539C76.709-72.7539 74.8535-70.8984 74.8535-68.6035C74.8535-66.3086 76.709-64.4531 79.0039-64.4531ZM76.2207-38.7207C78.5156-38.7207 80.3711-40.5762 80.3711-42.8711C80.3711-45.166 78.5156-47.0215 76.2207-47.0215C73.9258-47.0215 72.0703-45.166 72.0703-42.8711C72.0703-40.5762 73.9258-38.7207 76.2207-38.7207ZM88.916-38.7207C91.2109-38.7207 93.0664-40.5762 93.0664-42.8711C93.0664-45.166 91.2109-47.0215 88.916-47.0215C86.6211-47.0215 84.7656-45.166 84.7656-42.8711C84.7656-40.5762 86.6211-38.7207 88.916-38.7207Z"/>
</svg>