<svg xmlns="http://www.w3.org/2000/svg" viewBox="9.76562 -73.3887 76.27 76.27">
  <path d="M25 2.88086L70.8008 2.88086C80.3711 2.88086 86.0352-2.7832 86.0352-12.3535L86.0352-58.1543C86.0352-67.7246 80.3711-73.3887 70.8008-73.3887L25-73.3887C15.4297-73.3887 9.76562-67.7246 9.76562-58.1543L9.76562-12.3535C9.76562-2.7832 15.4297 2.88086 25 2.88086ZM27.2461-11.2793C25-11.2793 23.9258-12.1582 23.9258-14.5996L23.9258-55.9082C23.9258-58.3496 25-59.2285 27.2461-59.2285L68.5547-59.2285C70.8008-59.2285 71.875-58.3496 71.875-55.9082L71.875-14.5996C71.875-12.1582 70.8008-11.2793 68.5547-11.2793ZM28.8086-46.1914C28.8086-44.3848 30.0293-43.1641 31.8359-43.1641L36.8652-43.1641C38.7207-43.1641 39.9414-44.3848 39.9414-46.1914L39.9414-51.3184C39.9414-53.0762 38.7207-54.2969 36.8652-54.2969L31.8359-54.2969C30.0293-54.2969 28.8086-53.0762 28.8086-51.3184ZM42.3828-46.1914C42.3828-44.3848 43.6035-43.1641 45.4102-43.1641L50.4395-43.1641C52.2461-43.1641 53.4668-44.3848 53.4668-46.1914L53.4668-51.3184C53.4668-53.125 52.2461-54.2969 50.4395-54.2969L45.4102-54.2969C43.6035-54.2969 42.3828-53.125 42.3828-51.3184ZM55.8594-46.1914C55.8594-44.3848 57.0801-43.1641 58.9355-43.1641L63.9648-43.1641C65.7715-43.1641 66.9922-44.3848 66.9922-46.1914L66.9922-51.3184C66.9922-53.0762 65.7715-54.2969 63.9648-54.2969L58.9355-54.2969C57.0801-54.2969 55.8594-53.0762 55.8594-51.3184ZM28.8086-32.666C28.8086-30.8594 30.0293-29.6875 31.8359-29.6875L36.8652-29.6875C38.7207-29.6875 39.9414-30.8594 39.9414-32.666L39.9414-37.793C39.9414-39.5996 38.7207-40.7715 36.8652-40.7715L31.8359-40.7715C30.0293-40.7715 28.8086-39.5996 28.8086-37.793ZM42.3828-32.666C42.3828-30.8594 43.5547-29.6875 45.4102-29.6875L50.4395-29.6875C52.2949-29.6875 53.4668-30.8594 53.4668-32.666L53.4668-37.793C53.4668-39.5996 52.2949-40.7715 50.4395-40.7715L45.4102-40.7715C43.5547-40.7715 42.3828-39.5996 42.3828-37.793ZM55.8594-32.666C55.8594-30.8594 57.0801-29.6875 58.9355-29.6875L63.9648-29.6875C65.7715-29.6875 66.9922-30.8594 66.9922-32.666L66.9922-37.793C66.9922-39.5996 65.7715-40.7715 63.9648-40.7715L58.9355-40.7715C57.0801-40.7715 55.8594-39.5996 55.8594-37.793ZM28.8086-19.1406C28.8086-17.3828 30.0293-16.1621 31.8359-16.1621L36.8652-16.1621C38.7207-16.1621 39.9414-17.3828 39.9414-19.1406L39.9414-24.2676C39.9414-26.0742 38.7207-27.2949 36.8652-27.2949L31.8359-27.2949C30.0293-27.2949 28.8086-26.0742 28.8086-24.2676ZM42.3828-19.1406C42.3828-17.334 43.6035-16.1621 45.4102-16.1621L50.4395-16.1621C52.2461-16.1621 53.4668-17.334 53.4668-19.1406L53.4668-24.2676C53.4668-26.0742 52.2461-27.2949 50.4395-27.2949L45.4102-27.2949C43.6035-27.2949 42.3828-26.0742 42.3828-24.2676ZM55.8594-19.1406C55.8594-17.3828 57.0801-16.1621 58.9355-16.1621L63.9648-16.1621C65.7715-16.1621 66.9922-17.3828 66.9922-19.1406L66.9922-24.2676C66.9922-26.0742 65.7715-27.2949 63.9648-27.2949L58.9355-27.2949C57.0801-27.2949 55.8594-26.0742 55.8594-24.2676Z" />
</svg>