<svg xmlns="http://www.w3.org/2000/svg" viewBox="7.32422 -93.5059 133.11 115.48">
  <path d="M132.422 20.7031C135.01 20.7031 137.061 19.6777 138.428 18.0664C139.746 16.6992 140.43 14.9414 140.43 13.0859C140.43 10.8887 139.111 9.7168 136.865 9.7168C135.01 9.7168 133.74 10.8398 133.545 12.8418C133.447 13.7695 133.203 14.9414 132.178 14.9414C131.055 14.9414 130.566 12.8418 130.566 7.71484C130.566 2.49023 131.201 0.927734 132.178 0.927734C132.812 0.927734 133.252 1.36719 133.496 2.92969C133.838 5.61523 135.693 6.10352 136.914 6.10352C138.916 6.10352 140.186 4.78516 140.186 2.73438C140.186 1.02539 139.551-1.26953 137.744-2.88086C136.572-4.00391 134.717-4.83398 132.129-4.83398C127.637-4.83398 125.195-2.53906 123.975 1.2207C123.242 3.22266 122.998 5.9082 122.998 7.71484C122.998 10.6934 123.389 13.2812 124.121 15.2344C125.586 19.1406 128.32 20.7031 132.422 20.7031ZM87.3047 20.4102C89.6973 20.4102 91.0156 19.043 91.0156 16.6016L91.0156 10.8398L94.3359 10.8398L94.3359 16.6016C94.3359 19.0918 95.5566 20.4102 97.998 20.4102C100.439 20.4102 101.709 19.043 101.709 16.6016L101.709-0.732422C101.709-3.07617 100.439-4.54102 97.998-4.54102C95.6055-4.54102 94.3359-3.07617 94.3359-0.732422L94.3359 5.0293L91.0156 5.0293L91.0156-0.732422C91.0156-3.41797 89.4043-4.54102 87.3047-4.54102C84.7656-4.54102 83.6426-3.02734 83.6426-0.732422L83.6426 16.6016C83.6426 19.0918 84.8145 20.4102 87.3047 20.4102ZM107.324 20.3613L112.354 20.3613C119.238 20.3613 121.533 14.5996 121.533 7.66602C121.533 0.830078 119.287-4.54102 112.354-4.54102L107.324-4.54102C104.883-4.54102 103.516-3.27148 103.516-0.78125L103.516 16.4551C103.516 18.9453 104.932 20.3613 107.324 20.3613ZM110.84 14.5508L110.84 1.2207L111.426 1.2207C113.281 1.2207 114.111 2.97852 114.111 7.66602C114.111 12.5977 113.281 14.5508 111.426 14.5508ZM22.6562 17.7246C24.5605 20.8984 28.6133 21.9727 31.6406 20.2148L132.275-37.9883C135.352-39.7461 136.475-43.7988 134.668-46.9238C132.812-50.0977 128.76-51.1719 125.684-49.4141L25.0488 8.78906C22.0215 10.5469 20.8496 14.5996 22.6562 17.7246ZM29.248-7.95898L39.6484-13.916L34.375-23.0957L25.7812-18.1152C24.6582-17.4805 23.584-17.7734 22.9492-18.8965L21.3867-21.582C19.4336-24.9512 20.3613-27.4902 25.4883-31.3965L35.7422-39.1113L43.2129-53.125C46.6309-59.5215 49.0234-61.7676 58.5449-67.2852L80.3711-79.8828C84.2285-82.1289 86.1328-82.2754 89.3066-80.8105L91.4551-79.834C93.8477-78.7109 95.8496-76.9043 96.9727-74.9512L102.734-64.9902C103.467-63.7207 103.223-62.8418 102.002-62.1582L96.0938-58.7402L101.416-49.5605L109.717-54.3945C114.941-57.373 116.26-62.7441 113.232-67.9688L106.152-80.2246C104.053-83.9355 100.098-87.3535 95.9961-89.3555L93.7988-90.4297C87.4512-93.5059 81.9336-93.0176 75.0977-89.0625L53.2227-76.4648C42.2363-70.0684 38.1348-66.2109 33.8379-58.1055L27.4902-46.1426L19.0918-39.8438C9.86328-32.8613 7.32422-24.8047 12.207-16.3086L14.6973-11.9629C18.2617-5.85938 23.7305-4.73633 29.248-7.95898ZM46.875-18.1152L91.3574-43.7988L86.084-52.9785L41.6016-27.2949ZM46.875-10.3027C53.0273-13.8184 55.127-21.7773 51.6113-27.9297C47.998-34.1309 40.0391-36.2793 33.8867-32.7148C27.7344-29.1504 25.5859-21.1914 29.1992-14.9902C32.7148-8.83789 40.6738-6.73828 46.875-10.3027ZM42.1875-18.4082C40.5273-17.4316 38.4766-17.9688 37.5-19.6289C36.5723-21.2891 37.1094-23.3398 38.7695-24.3164C40.3809-25.2441 42.4805-24.707 43.457-23.0469C44.3848-21.3867 43.7988-19.3359 42.1875-18.4082ZM98.584-40.1367C104.688-43.7012 106.836-51.6602 103.271-57.7637C99.707-64.0137 91.748-66.1133 85.5957-62.5977C79.4434-59.0332 77.2949-51.0742 80.9082-44.8242C84.4238-38.7207 92.3828-36.5723 98.584-40.1367ZM93.8965-48.2422C92.2363-47.2656 90.1855-47.8516 89.209-49.4629C88.2812-51.123 88.8184-53.1738 90.4785-54.1504C92.0898-55.0781 94.1895-54.541 95.1172-52.8809C96.0938-51.2695 95.5078-49.1699 93.8965-48.2422Z" />
</svg>