<svg xmlns="http://www.w3.org/2000/svg" viewBox="9.76562 -73.3887 76.27 76.27">
  <path d="M25 2.88086L70.8008 2.88086C80.3711 2.88086 86.0352-2.7832 86.0352-12.3535L86.0352-58.1543C86.0352-67.7246 80.3711-73.3887 70.8008-73.3887L25-73.3887C15.4297-73.3887 9.76562-67.7246 9.76562-58.1543L9.76562-12.3535C9.76562-2.7832 15.4297 2.88086 25 2.88086ZM48.3887-16.8945C45.2637-16.8945 43.3105-18.9453 43.3105-22.0703L43.3105-40.5762L36.377-40.5762C34.5703-40.5762 33.3984-41.6992 33.3984-43.457C33.3984-45.3125 34.5703-46.4844 36.377-46.4844L60.4004-46.4844C62.207-46.4844 63.3789-45.3125 63.3789-43.457C63.3789-41.6992 62.207-40.5762 60.4004-40.5762L53.4668-40.5762L53.4668-22.0703C53.4668-18.9453 51.5137-16.8945 48.3887-16.8945ZM33.3984-51.5625C33.3984-52.1484 33.7891-52.5879 34.375-52.5879L62.4023-52.5879C62.9883-52.5879 63.3789-52.1484 63.3789-51.5625C63.3789-50.9766 62.9883-50.5371 62.4023-50.5371L34.375-50.5371C33.7891-50.5371 33.3984-50.9766 33.3984-51.5625Z"/>
</svg>