<svg xmlns="http://www.w3.org/2000/svg" viewBox="9.76562 -73.3887 76.27 76.27">
  <path d="M25 2.88086L70.8008 2.88086C80.3711 2.88086 86.0352-2.7832 86.0352-12.3535L86.0352-58.1543C86.0352-67.7246 80.3711-73.3887 70.8008-73.3887L25-73.3887C15.4297-73.3887 9.76562-67.7246 9.76562-58.1543L9.76562-12.3535C9.76562-2.7832 15.4297 2.88086 25 2.88086ZM27.2461-11.2793C25-11.2793 23.9258-12.1582 23.9258-14.5996L23.9258-55.9082C23.9258-58.3496 25-59.2285 27.2461-59.2285L68.5547-59.2285C70.8008-59.2285 71.875-58.3496 71.875-55.9082L71.875-14.5996C71.875-12.1582 70.8008-11.2793 68.5547-11.2793ZM47.9004-18.2617C50.7812-18.2617 52.5879-20.1172 52.5879-23.0469L52.5879-40.1367L58.9844-40.1367C60.6934-40.1367 61.7676-41.1621 61.7676-42.8223C61.7676-44.5312 60.6934-45.6055 58.9844-45.6055L36.8164-45.6055C35.1074-45.6055 34.0332-44.5312 34.0332-42.8223C34.0332-41.1621 35.1074-40.1367 36.8164-40.1367L43.2129-40.1367L43.2129-23.0469C43.2129-20.1172 45.0195-18.2617 47.9004-18.2617ZM34.0332-50.293C34.0332-49.7559 34.4238-49.3652 34.9609-49.3652L60.8398-49.3652C61.377-49.3652 61.7676-49.7559 61.7676-50.293C61.7676-50.8301 61.377-51.2207 60.8398-51.2207L34.9609-51.2207C34.4238-51.2207 34.0332-50.8301 34.0332-50.293Z" />
</svg>