<svg xmlns="http://www.w3.org/2000/svg" viewBox="6.83594 -77.2461 83.98 83.98">
  <path d="M48.8281 6.73828C72.0215 6.73828 90.8203-12.0605 90.8203-35.2539C90.8203-58.4473 72.0215-77.2461 48.8281-77.2461C25.6348-77.2461 6.83594-58.4473 6.83594-35.2539C6.83594-12.0605 25.6348 6.73828 48.8281 6.73828ZM48.8281-7.42188C33.4473-7.42188 20.9961-19.873 20.9961-35.2539C20.9961-50.6348 33.4473-63.0859 48.8281-63.0859C64.209-63.0859 76.6602-50.6348 76.6602-35.2539C76.6602-19.873 64.209-7.42188 48.8281-7.42188ZM28.6133-28.0273C28.6133-27.0508 29.1504-26.0742 30.1758-25.6348C31.9336-24.8535 32.959-23.7793 33.6914-21.9727C34.1309-21.0449 35.0098-20.5078 36.1328-20.5078L61.5234-20.5078C62.6465-20.5078 63.5254-21.0449 63.9648-21.9727C64.6973-23.7793 65.7227-24.8535 67.5293-25.6348C68.5059-26.0742 69.043-27.0508 69.043-28.0273L69.043-42.4805C69.043-43.457 68.5059-44.4336 67.5293-44.873C65.7227-45.6543 64.6973-46.7285 63.9648-48.5352C63.5254-49.4629 62.6465-50 61.5234-50L36.1328-50C35.0098-50 34.1309-49.4629 33.6914-48.5352C32.959-46.7285 31.9336-45.6543 30.1758-44.873C29.1504-44.4336 28.6133-43.457 28.6133-42.4805ZM36.5723-28.8086L36.5723-41.6992C36.5723-42.7246 37.2559-43.4082 38.2324-43.4082L59.4238-43.4082C60.4004-43.4082 61.084-42.7246 61.084-41.6992L61.084-28.8086C61.084-27.7832 60.4004-27.0996 59.4238-27.0996L38.2324-27.0996C37.2559-27.0996 36.5723-27.7832 36.5723-28.8086ZM39.3555-38.9648L40.5273-38.9648L40.5273-40.6738L39.4531-40.6738C39.4043-40.6738 39.3555-40.625 39.3555-40.5273ZM39.3555-34.2773L40.5273-34.2773L40.5273-36.2305L39.3555-36.2305ZM39.4043-29.9805C39.4043-29.9316 39.4043-29.8828 39.4531-29.8828L40.4785-29.8828L40.4785-31.543L39.4043-31.543ZM57.1289-38.9648L58.3008-38.9648L58.3008-40.5273C58.3008-40.625 58.3008-40.6738 58.2031-40.6738L57.1289-40.6738ZM57.1289-34.2773L58.3008-34.2773L58.3008-36.2305L57.1289-36.2305ZM57.1289-29.834L58.2031-29.834C58.3008-29.834 58.3008-29.8828 58.3008-29.9805L58.3008-31.543L57.1289-31.543ZM43.2617-29.8828L54.3945-29.8828L54.3945-40.625L43.2617-40.625Z" />
</svg>