<svg xmlns="http://www.w3.org/2000/svg" viewBox="6.83594 -76.9043 99.61 83.54">
  <path d="M56.6406-57.2754C63.3789-57.2754 69.6289-55.0781 74.6582-51.3184C75.8301-50.4395 77.3438-50.5371 78.418-51.6113L88.1348-61.377C89.4531-62.6953 89.4043-64.6484 87.9395-65.8203C79.3945-72.7539 68.5059-76.9043 56.6406-76.9043C44.7754-76.9043 33.8867-72.7539 25.3418-65.8203C23.877-64.6484 23.8281-62.6953 25.1465-61.377L34.8633-51.6113C35.9375-50.5371 37.5-50.4395 38.7207-51.3672C43.75-55.0781 49.9512-57.2754 56.6406-57.2754ZM6.83594-27.0996C6.83594-14.6973 11.377-3.36914 18.8477 5.32227C19.9707 6.64062 21.8262 6.54297 23.0957 5.27344L32.8125-4.44336C33.9355-5.56641 33.9355-7.12891 32.959-8.39844C28.8574-13.5254 26.4648-20.0684 26.4648-27.0996C26.4648-33.7891 28.6621-39.9902 32.373-45.0195C33.252-46.2402 33.252-47.7539 32.1289-48.877L22.3633-58.5938C21.0449-59.9121 19.0918-59.8633 17.9199-58.3984C10.9863-49.8535 6.83594-38.9648 6.83594-27.0996ZM106.445-27.0996C106.445-39.0137 102.246-50 95.2148-58.5938C94.1406-59.9121 92.2363-59.9121 90.918-58.5938L81.1523-48.877C80.0293-47.7539 80.0293-46.2402 80.9082-45.0195C84.6191-39.9902 86.8164-33.7891 86.8164-27.0996C86.8164-20.0684 84.4238-13.5254 80.3223-8.39844C79.3457-7.12891 79.3457-5.56641 80.4688-4.44336L90.1855 5.27344C91.4551 6.54297 93.3594 6.54297 94.5801 5.17578C101.953-3.51562 106.445-14.7461 106.445-27.0996ZM56.6406-10.6445C58.8867-10.6445 61.3281-11.7188 61.3281-15.4297L61.3281-35.498L68.1152-35.498C70.2637-35.498 71.875-36.8652 71.875-39.209C71.875-41.4551 70.3125-42.9199 68.1152-42.9199L45.166-42.9199C42.9688-42.9199 41.3574-41.4062 41.3574-39.209C41.3574-37.0117 42.9688-35.498 45.166-35.498L51.9531-35.498L51.9531-15.4297C51.9531-11.7188 54.3457-10.6445 56.6406-10.6445ZM46.9238-22.9004C47.0703-22.9004 47.2168-22.9492 47.3633-22.998L66.6016-29.6387C67.0898-29.7852 67.334-30.127 67.334-30.6152C67.334-31.1035 66.9434-31.5918 66.4062-31.5918C66.2598-31.5918 66.1133-31.543 65.9668-31.4941L46.7285-24.8535C46.2402-24.707 45.9961-24.3652 45.9961-23.877C45.9961-23.3887 46.3867-22.9004 46.9238-22.9004ZM46.9238-16.8945C47.0703-16.8945 47.2168-16.9434 47.3633-16.9922L66.6016-23.584C67.0898-23.7305 67.334-24.0723 67.334-24.5605C67.334-25.0488 66.9434-25.5371 66.4062-25.5371C66.2598-25.5371 66.1133-25.4883 65.9668-25.4395L46.7285-18.8477C46.2402-18.7012 45.9961-18.3105 45.9961-17.8223C45.9961-17.334 46.3867-16.8945 46.9238-16.8945Z"/>
</svg>