<svg xmlns="http://www.w3.org/2000/svg" viewBox="9.76562 -73.3887 76.27 76.27">
  <path d="M25 2.88086L70.8008 2.88086C80.3711 2.88086 86.0352-2.7832 86.0352-12.3535L86.0352-58.1543C86.0352-67.7246 80.3711-73.3887 70.8008-73.3887L25-73.3887C15.4297-73.3887 9.76562-67.7246 9.76562-58.1543L9.76562-12.3535C9.76562-2.7832 15.4297 2.88086 25 2.88086ZM46.3867-17.7734C41.6016-17.7734 38.5742-20.3613 38.5742-24.4629L38.5742-32.7637L34.0332-31.1523C33.8867-31.1035 33.7402-31.0547 33.4961-31.0547C32.9102-31.0547 32.5195-31.5918 32.5195-32.1777C32.5195-32.666 32.7148-32.959 33.2031-33.1055L38.5742-35.0098L38.5742-39.3066L34.0332-37.6953C33.8867-37.6465 33.7402-37.5977 33.4961-37.5977C32.9102-37.5977 32.5195-38.1348 32.5195-38.7207C32.5195-39.209 32.7148-39.502 33.2031-39.6484L38.5742-41.5039L38.5742-48.291C38.5742-51.1719 40.5762-53.2227 43.457-53.2227C46.3379-53.2227 48.3398-51.1719 48.3398-48.291L48.3398-44.9219L55.3711-47.3145C55.5176-47.3633 55.7129-47.4121 55.9082-47.4121C56.4941-47.4121 56.8848-46.9238 56.8848-46.3379C56.8848-45.8496 56.6895-45.459 56.2012-45.3125L48.3398-42.627L48.3398-38.3301L55.3711-40.7715C55.5176-40.8203 55.7129-40.8691 55.9082-40.8691C56.4941-40.8691 56.8848-40.3809 56.8848-39.7949C56.8848-39.3066 56.6895-38.916 56.2012-38.7695L48.3398-36.084L48.3398-26.1719C50.4395-26.1719 52.3438-26.709 53.5156-27.7344C54.0039-28.2227 54.2969-28.7598 54.541-29.3945C55.3223-31.3477 56.543-32.959 59.1309-32.959C61.9141-32.959 63.916-31.1523 63.916-28.6133C63.916-25.9766 62.5-23.2422 59.8145-21.1914C56.543-18.6523 51.4648-17.7734 47.2168-17.7734Z"/>
</svg>