<svg xmlns="http://www.w3.org/2000/svg" viewBox="6.83594 -77.2949 83.69 83.94">
  <path d="M61.5234-57.3242C64.7949-63.623 65.7227-69.4824 63.623-74.4629C58.9355-76.3184 53.8574-77.2949 48.5352-77.2949C37.6465-77.2949 27.6855-73.0957 20.2148-66.3086C35.0098-70.7031 52.6367-64.9414 61.5234-57.3242ZM45.3125-37.5C50-41.7969 54.0039-46.1426 57.1289-50.3906C45.8008-59.9121 22.1191-65.4297 9.61914-51.0742C8.25195-47.7051 7.32422-44.1406 6.83594-40.3809C16.9434-46.1914 32.8613-42.3828 45.3125-37.5ZM19.4336-35.4492C13.8672-35.498 9.27734-34.0332 6.83594-30.2246C8.74023-14.6973 19.1406-1.70898 33.252 3.80859C26.123-5.71289 19.5801-20.6055 19.4336-35.4492ZM42.4316-29.7852C37.5488-31.7871 32.4219-33.4473 27.6367-34.4727C28.5156-13.8184 42.2363 4.54102 50.0977 6.64062C53.5645 6.54297 56.9336 6.00586 60.1562 5.07812C50.6836-1.46484 43.2617-17.3828 42.4316-29.7852ZM70.5078 0.439453C82.5195-6.93359 90.5273-20.2148 90.5273-35.3027C90.5273-39.0625 90.0391-42.6758 89.1113-46.1426C85.3516-34.9121 76.3672-20.166 58.7891-7.56836C62.4512-2.34375 66.748 1.02539 70.5078 0.439453ZM54.7852-14.6973C80.3711-33.4961 84.8145-55.7129 82.9102-59.375C80.0781-63.4277 76.5137-66.9434 72.4609-69.7754C73.1934-57.1289 63.1836-42.8711 50.5859-31.3477C50.8301-25.8301 52.4414-19.9219 54.7852-14.6973Z"/>
</svg>