<svg xmlns="http://www.w3.org/2000/svg" viewBox="6.83594 -92.0898 90.19 95.65">
  <path d="M45.0195-12.2559C30.8594-12.2559 19.9707-22.1191 19.9707-38.0371C19.9707-53.6621 29.541-70.6055 53.0762-78.8086C56.8848-80.127 59.0332-81.6406 59.0332-85.498C59.0332-91.0156 54.4922-92.0898 50.1953-91.3086C33.9844-88.2812 6.83594-68.7012 6.83594-38.3789C6.83594-16.0645 22.8027 0.927734 46.6309 0.927734C53.418 0.927734 60.498-1.17188 67.0898-4.78516L57.0801-14.8438C53.2715-13.2324 49.2188-12.2559 45.0195-12.2559ZM55.5664-60.0586L55.9082-59.7656C58.9355-62.0605 62.9883-63.4766 67.1387-63.4766C76.0742-63.4766 83.0078-56.9336 83.0078-48.0469C83.0078-44.5312 81.7383-40.2832 79.4434-35.9863L89.3066-26.0254C93.4082-32.8613 95.8984-40.4785 95.8984-48.1445C95.8984-64.0137 84.8633-75.3906 68.0664-75.3906C57.959-75.3906 47.5098-71.2891 40.9668-64.1602C46.0449-65.4297 51.6602-64.0625 55.5664-60.0586ZM93.8965 0.439453C96.9727-2.68555 97.0215-7.76367 93.8965-10.9375L50.3418-54.9316C47.2656-58.0566 42.0898-58.0078 38.9648-54.9316C35.8887-51.8066 35.8398-46.7285 38.9648-43.5547L82.5195 0.439453C85.5957 3.56445 90.7715 3.51562 93.8965 0.439453ZM89.6973-3.80859C88.7207-2.7832 87.1094-2.7832 86.084-3.80859L62.7441-27.2461L66.2109-30.9082L89.6973-7.37305C90.6738-6.39648 90.7227-4.78516 89.6973-3.80859Z"/>
</svg>