<svg xmlns="http://www.w3.org/2000/svg" viewBox="9.76562 -82.8613 74.8 91.02">
  <path d="M19.8242-46.4355L32.373-46.4355C35.2051-46.4355 37.1582-48.0957 37.8906-50.6836L38.623-53.4668L42.4316-34.8633C43.5547-29.248 51.1719-29.0039 52.8809-34.6191L57.1777-50.5859L57.5195-49.0723C58.252-47.2168 59.668-46.4355 61.9141-46.4355L74.5117-46.4355C77.6367-46.4355 80.0293-48.9258 80.0293-52.002C80.0293-54.9316 77.6367-57.4219 74.5117-57.4219L67.2363-57.4219L62.9883-68.9941C61.1328-74.2676 54.2969-74.2188 52.4902-68.7012L48.4863-56.8848L44.3848-77.0508C43.1152-82.8125 35.498-82.8613 33.9844-77.2949L28.6133-57.4219L19.8242-57.4219C16.8945-57.4219 14.3555-54.8828 14.3555-52.002C14.3555-48.9258 16.748-46.4355 19.8242-46.4355ZM15.3809-9.91211L78.9551-9.91211C82.0801-9.91211 84.5703-12.4023 84.5703-15.5273C84.5703-18.6523 82.0801-21.1426 78.9551-21.1426L15.3809-21.1426C12.2559-21.1426 9.76562-18.6523 9.76562-15.5273C9.76562-12.4023 12.2559-9.91211 15.3809-9.91211ZM15.3809 8.1543L53.7109 8.1543C56.8359 8.1543 59.3262 5.66406 59.3262 2.53906C59.3262-0.585938 56.8359-3.07617 53.7109-3.07617L15.3809-3.07617C12.2559-3.07617 9.76562-0.585938 9.76562 2.53906C9.76562 5.66406 12.2559 8.1543 15.3809 8.1543Z" />
</svg>