<svg xmlns="http://www.w3.org/2000/svg" viewBox="9.76562 -73.3887 76.27 76.27">
  <path d="M25 2.88086L70.8008 2.88086C80.3711 2.88086 86.0352-2.7832 86.0352-12.3535L86.0352-58.1543C86.0352-67.7246 80.3711-73.3887 70.8008-73.3887L25-73.3887C15.4297-73.3887 9.76562-67.7246 9.76562-58.1543L9.76562-12.3535C9.76562-2.7832 15.4297 2.88086 25 2.88086ZM38.9648-16.6504C36.0352-16.6504 34.082-18.3594 33.4961-21.4355L31.2012-33.7891L26.4648-33.7891C25.8789-33.7891 25.4883-34.2285 25.4883-34.8145C25.4883-35.4004 25.8789-35.791 26.4648-35.791L30.8594-35.791L28.8086-46.8262C28.7598-47.2656 28.7109-47.5586 28.7109-47.9492C28.7109-50.4395 30.2734-52.0996 32.959-52.0996C35.2539-52.0996 36.9629-50.5859 37.2559-48.3887L38.7695-35.791L41.5039-35.791L43.7988-47.998C44.2871-50.5371 45.752-52.1484 48.3398-52.1484C50.9277-52.1484 52.4414-50.5859 52.9297-47.998L55.2246-35.791L58.0078-35.791L59.5215-48.3887C59.8145-50.5371 61.5234-52.0996 63.7695-52.0996C66.6992-52.0996 68.0664-50.1953 68.0664-47.9492C68.0664-47.5586 68.0664-47.3145 67.9688-46.8262L65.918-35.791L70.3125-35.791C70.8984-35.791 71.2891-35.4004 71.2891-34.8145C71.2891-34.2285 70.8984-33.7891 70.3125-33.7891L65.5762-33.7891L63.2812-21.4355C62.6953-18.3594 60.6934-16.6504 57.7148-16.6504C54.7363-16.6504 52.7832-18.3594 52.2461-21.4355L49.9512-33.7891L46.8262-33.7891L44.5312-21.4355C43.9453-18.3594 41.9434-16.6504 38.9648-16.6504ZM39.0137-33.7891L39.7949-27.3438L39.9414-27.3438L41.1621-33.7891ZM47.2168-35.791L49.5605-35.791L48.4863-41.6016L48.291-41.6016ZM55.5664-33.7891L56.7871-27.3438L56.9824-27.3438L57.7637-33.7891Z"/>
</svg>