<svg xmlns="http://www.w3.org/2000/svg" viewBox="9.76562 -73.3887 76.27 76.27">
  <path d="M25 2.88086L70.8008 2.88086C80.3711 2.88086 86.0352-2.7832 86.0352-12.3535L86.0352-58.1543C86.0352-67.7246 80.3711-73.3887 70.8008-73.3887L25-73.3887C15.4297-73.3887 9.76562-67.7246 9.76562-58.1543L9.76562-12.3535C9.76562-2.7832 15.4297 2.88086 25 2.88086ZM27.2461-11.2793C25-11.2793 23.9258-12.1582 23.9258-14.5996L23.9258-55.9082C23.9258-58.3496 25-59.2285 27.2461-59.2285L68.5547-59.2285C70.8008-59.2285 71.875-58.3496 71.875-55.9082L71.875-14.5996C71.875-12.1582 70.8008-11.2793 68.5547-11.2793ZM39.5508-18.5059L57.1777-18.5059C60.8398-18.5059 63.1348-20.459 63.1348-23.6328C63.1348-26.8066 60.9375-28.6621 57.1777-28.6621L49.3652-28.6621L49.3652-29.1016L59.5703-40.332C61.6211-42.5781 62.1094-43.75 62.1094-46.2402C62.1094-49.5605 59.7168-51.8066 56.25-51.8066L38.6719-51.8066C34.9121-51.8066 32.7148-49.9512 32.7148-46.7285C32.7148-43.5547 35.0098-41.6016 38.6719-41.6016L46.3379-41.6016L46.3379-41.2109L36.2305-29.9805C34.4238-27.9785 33.6914-26.3184 33.6914-24.0723C33.6914-20.752 36.084-18.5059 39.5508-18.5059Z" />
</svg>