<svg xmlns="http://www.w3.org/2000/svg" viewBox="8.72266 -86.1618 101.84 101.8">
  <path d="M59.6238 15.6405C87.7463 15.6405 110.562-7.13807 110.562-35.2606C110.562-63.3832 87.7463-86.1618 59.6238-86.1618C31.5382-86.1618 8.72266-63.3832 8.72266-35.2606C8.72266-7.13807 31.5382 15.6405 59.6238 15.6405ZM59.6238 4.47459C37.6599 4.47459 19.9185-13.2968 19.9185-35.2606C19.9185-57.2245 37.6599-74.9959 59.6238-74.9959C81.5876-74.9959 99.359-57.2245 99.359-35.2606C99.359-13.2968 81.5876 4.47459 59.6238 4.47459ZM44.4024-15.013C54.0357-15.013 56.9433-25.682 56.9433-35.2606C56.9433-44.8393 54.0357-55.5083 44.4024-55.5083C34.762-55.5083 31.8615-44.8393 31.8615-35.2606C31.8615-25.682 34.762-15.013 44.4024-15.013ZM44.4024-21.3355C41.0277-21.3355 39.7558-27.1025 39.7558-35.2606C39.7558-43.4188 41.0277-49.1858 44.4024-49.1858C47.7771-49.1858 49.086-43.4188 49.086-35.2606C49.086-27.1025 47.7771-21.3355 44.4024-21.3355ZM74.8081-15.013C84.4485-15.013 87.349-25.682 87.349-35.2606C87.349-44.8393 84.4485-55.5083 74.8081-55.5083C65.1748-55.5083 62.2672-44.8393 62.2672-35.2606C62.2672-25.682 65.1748-15.013 74.8081-15.013ZM74.8081-21.3355C71.4334-21.3355 70.1245-27.1025 70.1245-35.2606C70.1245-43.4188 71.4334-49.1858 74.8081-49.1858C78.1828-49.1858 79.4547-43.4188 79.4547-35.2606C79.4547-27.1025 78.1828-21.3355 74.8081-21.3355Z" />
</svg>