<svg xmlns="http://www.w3.org/2000/svg" viewBox="8.72266 -86.1618 101.84 101.8">
  <path d="M59.6238 15.6405C87.7321 15.6405 110.562-7.18932 110.562-35.2606C110.562-63.332 87.7321-86.1618 59.6238-86.1618C31.5524-86.1618 8.72266-63.332 8.72266-35.2606C8.72266-7.18932 31.5524 15.6405 59.6238 15.6405ZM36.4229-15.1382C33.8922-15.1382 32.59-16.4575 32.59-18.4056C32.59-20.0016 33.4344-21.3028 34.7359-22.9001L42.6444-33.0375C45.4333-36.5892 48.0994-40.4738 48.0994-44.3475C48.0994-47.505 46.7526-49.9753 44.0277-49.9753C41.4874-49.9753 40.3935-47.9822 39.5845-45.1369C38.9891-43.2283 37.7824-42.3695 35.9749-42.3695C33.8353-42.3695 32.616-43.8885 32.616-45.9563C32.616-51.2988 37.6578-56.3886 44.0576-56.3886C51.0285-56.3886 55.8282-51.7026 55.8282-44.6747C55.8282-39.8384 53.8073-36.1403 49.1383-30.4271L42.467-22.0885L42.467-21.6619L53.4038-21.6619C55.4474-21.6619 56.5797-20.3502 56.5797-18.3945C56.5797-16.561 55.4844-15.1382 53.4038-15.1382ZM79.2679-14.4631C77.3505-14.4631 75.3617-15.5807 75.3617-18.4686L75.3617-22.6399L65.2083-22.6399C62.3476-22.6399 60.5701-24.3701 60.5701-27.2102C60.5701-28.8884 60.9218-30.4579 61.738-32.4459L69.1681-49.4096C70.6807-53.1591 72.4077-55.9328 76.8846-55.9328C80.6125-55.9328 83.167-53.7799 83.167-49.9414L83.167-29.1747L84.5116-29.1747C86.6976-29.1747 87.6693-27.8483 87.6693-25.9443C87.6693-24.1486 86.7467-22.6399 84.4934-22.6399L83.167-22.6399L83.167-18.4686C83.167-15.7068 81.4414-14.4631 79.2679-14.4631ZM75.5817-28.9546L75.5817-49.1718L75.3948-49.1718L67.4139-29.3111L67.4139-28.9546Z"/>
</svg>