<svg xmlns="http://www.w3.org/2000/svg" viewBox="8.72266 -86.1618 101.84 101.8">
  <path d="M59.6238 15.6405C87.7463 15.6405 110.562-7.13807 110.562-35.2606C110.562-63.3832 87.7463-86.1618 59.6238-86.1618C31.5382-86.1618 8.72266-63.3832 8.72266-35.2606C8.72266-7.13807 31.5382 15.6405 59.6238 15.6405ZM59.6238 4.47459C37.6599 4.47459 19.9185-13.2968 19.9185-35.2606C19.9185-57.2245 37.6599-74.9959 59.6238-74.9959C81.5876-74.9959 99.359-57.2245 99.359-35.2606C99.359-13.2968 81.5876 4.47459 59.6238 4.47459ZM48.9268-15.3615C50.9607-15.3615 52.6058-16.5689 52.6058-19.184L52.6058-23.2268L53.8771-23.2268C56.046-23.2268 56.9062-24.618 56.9062-26.3293C56.9062-28.1417 55.9898-29.4247 53.8952-29.4247L52.6058-29.4247L52.6058-49.3357C52.6058-53.0352 50.1981-55.0525 46.635-55.0525C42.3846-55.0525 40.7419-52.4248 39.3027-48.8954L32.1305-32.5563C31.3695-30.6417 31.0359-29.1636 31.0359-27.5588C31.0359-24.8765 32.7219-23.2268 35.4729-23.2268L45.2036-23.2268L45.2036-19.184C45.2036-16.4429 47.1009-15.3615 48.9268-15.3615ZM45.4055-29.2228L37.5201-29.2228L37.5201-29.5682L45.2186-48.6031L45.4055-48.6031ZM73.8492-15.1012C81.2471-15.1012 86.4089-19.5797 86.4089-26.3891C86.4089-31.441 83.2697-35.3008 79.2765-36.1802L79.2765-36.3529C82.6569-37.3846 85.3672-40.5748 85.3672-44.9271C85.3672-51.1432 80.6378-55.3396 73.8492-55.3396C67.797-55.3396 62.4006-51.7543 62.4006-44.9642C62.4006-40.175 65.4129-37.2931 68.4912-36.3529L68.4912-36.1802C64.4147-35.3001 61.3335-31.4844 61.3335-26.4073C61.3335-19.3641 66.6851-15.1012 73.8492-15.1012ZM73.8563-38.7433C71.273-38.7433 69.9495-41.3541 69.9495-44.1708C69.9495-47.1442 71.3573-49.7221 73.8563-49.7221C76.4784-49.7221 77.7994-47.1544 77.7994-44.1708C77.7994-41.1075 76.4373-38.7433 73.8563-38.7433ZM73.8563-20.7739C70.9141-20.7739 69.4298-23.5585 69.4298-26.9917C69.4298-30.3326 70.9212-33.0817 73.8563-33.0817C76.7274-33.0817 78.2938-30.4336 78.2938-26.9917C78.2938-23.5656 76.7914-20.7739 73.8563-20.7739Z" />
</svg>