<svg xmlns="http://www.w3.org/2000/svg" viewBox="12.4609 -92.5996 93.04 114.43">
  <path d="M33.0813-28.2175C33.0813-36.9754 38.8439-42.9848 44.2768-48.0582C43.7808-50.2347 43.5205-52.1684 43.5205-53.8276C43.5205-61.711 47.6168-67.8845 52.9692-68.9641C55.6884-69.5335 57.037-67.3908 57.037-63.666C57.037-55.3167 52.907-49.4161 48.881-44.0069L50.4236-39.2993C51.9425-40.3891 53.6184-41.1304 55.459-41.516C61.4687-42.77 66.052-39.3291 66.052-32.744C66.052-26.9151 62.4772-21.6786 56.9431-18.6999C57.5142-16.3276 57.884-14.2101 57.884-12.6856C57.884-7.6636 54.862-3.61247 50.306-2.64645C45.7524-1.71036 42.4629-3.53857 42.4629-7.15838C42.4629-9.88635 44.2271-12.1159 46.8305-12.6553C49.2477-13.1876 50.7808-11.944 50.7808-9.63719C50.7808-8.20734 49.8904-7.24284 49.8904-6.44077C49.8904-5.99515 50.2666-5.78619 50.7863-5.88159C53.1703-6.32951 54.7372-8.89553 54.7372-12.0066C54.7372-13.5712 54.4478-15.3804 54.0014-17.4341C53.0109-17.0667 52.134-16.8537 51.041-16.6298C40.1939-14.4319 33.0813-18.8524 33.0813-28.2175ZM46.6855-52.2435C46.6855-51.8555 46.7738-51.3027 46.9244-50.5513C50.7318-54.1418 53.768-57.4343 53.768-61.2063C53.768-61.8418 53.4715-62.1383 52.873-61.9948C49.5386-61.3347 46.4829-57.4483 46.6855-52.2435ZM40.8818-27.6694C40.8818-21.85 44.8928-18.5685 51.3162-19.8382C51.962-19.9628 52.6078-20.1504 53.2095-20.3633C52.3476-23.3396 51.2286-26.6131 50.0725-30.0151C48.9337-29.2525 47.8731-28.4237 46.971-27.6352C45.8644-26.5783 44.5348-26.6762 44.5348-28.1336C44.5348-31.423 45.7524-34.4916 47.7027-36.7794L46.3943-40.7031C43.422-36.6566 40.8818-32.5795 40.8818-27.6694ZM53.1389-31.3867C54.2508-28.095 55.2705-24.8522 56.0772-21.9375C58.1473-23.4051 59.2964-25.4247 59.2964-27.6045C59.2964-31.3501 55.8868-32.1217 53.1389-31.3867ZM12.4609 3.73598C12.4609 12.7985 18.0763 17.8913 27.9773 17.303C44.3658 16.4127 60.5638 14.2868 77.5758 9.42628C85.1908 7.18801 87.8472 2.75748 87.8472-5.95062L87.8472-77.2067C87.8472-87.7038 81.788-92.5996 71.7492-90.1943C58.4032-87.102 42.8951-84.5167 26.1489-83.4491C17.6153-82.8978 12.4609-78.2827 12.4609-69.1384ZM53.7581 21.8322L89.2563 21.8322C100.005 21.8322 105.502 16.2805 105.502 5.36596L105.502-66.7615C105.502-75.4664 101.827-80.8012 94.6776-82.3263C94.9593-80.1394 95.1241-78.5139 95.1241-76.7164L95.1241-5.95062C95.1241 7.3016 89.5661 13.3026 79.6073 16.2315C70.8293 18.6862 62.1298 20.4654 53.7581 21.8322Z"/>
</svg>