<svg xmlns="http://www.w3.org/2000/svg" viewBox="8.72266 -86.1618 101.84 101.8">
  <path d="M59.6238 15.6405C87.7321 15.6405 110.562-7.18932 110.562-35.2606C110.562-63.332 87.7321-86.1618 59.6238-86.1618C31.5524-86.1618 8.72266-63.332 8.72266-35.2606C8.72266-7.18932 31.5524 15.6405 59.6238 15.6405ZM59.6978-4.22867C58.2016-4.22867 56.9916-4.86749 55.9529-5.97955L42.358-19.7617C41.5117-20.6191 41.0598-21.7208 41.0598-22.892C41.0598-25.2785 42.8816-26.9835 45.3154-26.9835C46.6696-26.9835 47.8906-26.3682 48.5262-25.4595L51.1765-22.7722L55.3914-17.4746L55.0389-27.31L55.0389-43.2113L55.3914-53.0467L51.1765-47.7491L48.5262-45.0618C47.8906-44.1531 46.6696-43.5378 45.3154-43.5378C42.8816-43.5378 41.0598-45.2428 41.0598-47.6293C41.0598-48.8005 41.5117-49.9022 42.358-50.7596L55.9529-64.5417C56.9916-65.6538 58.2016-66.2926 59.6978-66.2926C61.1941-66.2926 62.4411-65.6538 63.4798-64.5417L77.0377-50.7596C77.9652-49.858 78.3359-48.8005 78.3359-47.6293C78.3359-45.2428 76.5512-43.5378 74.0803-43.5378C72.7632-43.5378 71.5792-44.109 70.8695-45.0618L68.2192-47.7491L64.0413-53.0467L64.3938-43.2113L64.3938-27.31L64.0413-17.4746L68.2192-22.7722L70.8695-25.4595C71.5792-26.4123 72.7632-26.9835 74.0803-26.9835C76.5512-26.9835 78.3359-25.2785 78.3359-22.892C78.3359-21.7208 77.9652-20.6632 77.0377-19.7617L63.4798-5.97955C62.4411-4.86749 61.1941-4.22867 59.6978-4.22867Z"/>
</svg>