<svg xmlns="http://www.w3.org/2000/svg" viewBox="12.4609 -81.7716 78.34 93.07">
  <path d="M52.4336-69.5101L66.1157-53.9478L80.6349-39.3552C81.7566-38.2595 83.2236-37.5132 84.9883-37.5132C88.2988-37.5132 90.8016-40.0033 90.8016-43.5088C90.8016-45.0193 90.1642-46.4959 88.9069-47.8202L56.8902-79.8455C55.7308-81.0491 54.053-81.7716 52.3965-81.7716C50.7472-81.7716 49.0693-81.0491 47.8658-79.8455L15.9114-47.8202C14.617-46.4959 14.0167-45.0193 14.0167-43.5088C14.0167-40.0033 16.4825-37.5132 19.793-37.5132C21.5876-37.5132 23.0618-38.2595 24.1464-39.3552L38.6403-53.9478ZM25.7443 11.2945C47.5135 11.2945 58.4655 2.03439 58.4655-19.7962L58.4655-50.6106L58.0104-69.1541C57.9189-72.206 55.4855-74.7309 52.4336-74.7309C49.3147-74.7309 46.9183-72.206 46.8268-69.1541L46.2976-50.6106L46.3347-20.6671C46.3717-5.92635 40.0447-0.794654 25.4811-0.794654C22.6607-0.831696 20.3099-0.954847 18.4897-0.991889C14.9392-0.991889 12.4609 1.24747 12.4609 4.7915C12.4609 8.59537 15.4643 10.3181 18.08 10.8102C20.3819 11.2282 22.9406 11.2945 25.7443 11.2945Z" />
</svg>