<svg xmlns="http://www.w3.org/2000/svg" viewBox="12.4609 -100.679 120.12 112.24">
  <path d="M21.0569 11.5651L59.7499 11.5651C66.3089 11.5651 69.4205 8.47173 69.4205 1.91271L69.4205-55.4296C69.4205-61.2493 65.1311-64.5229 60.467-64.5229C57.2866-64.5229 53.9641-62.9957 51.8249-59.5768L14.3634-2.27674C13.1125-0.326192 12.4609 1.59412 12.4609 3.79638C12.4609 8.14861 15.2451 11.5651 21.0569 11.5651ZM123.982 11.5651C129.831 11.5651 132.578 8.14861 132.578 3.79638C132.578 1.59412 131.927-0.326192 130.676-2.27674L93.2143-59.5768C91.0821-62.9957 87.7896-64.5229 84.5721-64.5229C79.908-64.5229 75.6557-61.2493 75.6557-55.4296L75.6557 1.91271C75.6557 8.47173 78.7673 11.5651 85.2893 11.5651ZM103.492-95.6293L103.492-74.9657C103.492-71.2732 107.07-69.9703 109.973-72.1872L123.718-82.5434C125.607-83.9993 125.545-86.6879 123.718-88.0996L109.973-98.437C107.052-100.679 103.492-99.3321 103.492-95.6293ZM41.5832-74.9657L41.5832-95.6293C41.5832-99.3321 38.024-100.679 35.1099-98.437L21.3641-88.0996C19.4934-86.6508 19.4681-83.9993 21.3641-82.5434L35.1099-72.1872C37.9688-70.0373 41.5832-71.1991 41.5832-74.9657ZM110.312-81.6716C112.272-81.6716 113.915-83.3138 113.915-85.3117C113.915-87.2797 112.272-88.9518 110.312-88.9518L34.7639-88.9518C32.766-88.9518 31.1238-87.2797 31.1238-85.3117C31.1238-83.3138 32.766-81.6716 34.7639-81.6716Z" />
</svg>