<svg xmlns="http://www.w3.org/2000/svg" viewBox="12.4609 -81.2752 92.07 92.1">
  <path d="M28.9998 10.828L87.9882 10.828C98.812 10.828 104.527 5.09867 104.527-5.59978L104.527-64.8474C104.527-75.5459 98.812-81.2752 87.9882-81.2752L28.9998-81.2752C18.2131-81.2752 12.4609-75.5601 12.4609-64.8474L12.4609-5.59978C12.4609 5.11288 18.2131 10.828 28.9998 10.828ZM29.9233-0.0785673C25.6466-0.0785673 23.3305-2.24796 23.3305-6.70849L23.3305-63.7387C23.3305-68.2363 25.6466-70.3686 29.9233-70.3686L87.0647-70.3686C91.3131-70.3686 93.6576-68.2363 93.6576-63.7387L93.6576-6.70849C93.6576-2.24796 91.3131-0.0785673 87.0647-0.0785673ZM37.824-34.7317C39.9975-34.7317 41.7452-36.4683 41.7452-38.6229L41.7452-40.7177L41.1024-47.1152L50.2314-37.3442C51.8758-35.542 54.6977-35.6154 56.4076-37.3071C58.0923-39.017 58.1097-41.8579 56.3706-43.4763L46.6737-52.5201L52.9111-51.9144L54.9878-51.9073C57.1172-51.9073 58.872-53.6368 58.872-55.7914C58.872-57.9579 57.1172-59.7126 54.9878-59.7126L38.8858-59.7126C35.712-59.7126 33.9398-58.1524 33.9398-54.7848L33.9398-38.6229C33.9398-36.4683 35.6946-34.7317 37.824-34.7317ZM61.9283-10.6825L78.0303-10.6825C81.2041-10.6825 82.9763-12.2798 82.9763-15.6104L82.9763-31.7793C82.9763-33.9639 81.2215-35.7005 79.0551-35.7005C76.8816-35.7005 75.1339-33.9639 75.1339-31.7793L75.1339-29.6775L75.7838-23.3171L66.6477-33.051C65.0033-34.8531 62.2184-34.7798 60.5085-33.088C58.8239-31.3781 58.8064-28.5743 60.5455-26.956L70.2054-17.8822L63.9751-18.4808L61.9283-18.4879C59.7619-18.4879 58.0071-16.7954 58.0071-14.6037C58.0071-12.4373 59.7619-10.6825 61.9283-10.6825Z" />
</svg>