<svg xmlns="http://www.w3.org/2000/svg" viewBox="12.4609 -81.2752 92.07 92.1">
  <path d="M28.9998 10.828L87.9882 10.828C98.812 10.828 104.527 5.09867 104.527-5.59978L104.527-64.8474C104.527-75.5459 98.812-81.2752 87.9882-81.2752L28.9998-81.2752C18.2131-81.2752 12.4609-75.5601 12.4609-64.8474L12.4609-5.59978C12.4609 5.11288 18.2131 10.828 28.9998 10.828ZM74.5782-49.4012C77.3112-49.4012 79.0873-47.3427 79.0873-44.321L79.0873-20.8317C79.0873-16.955 76.8732-15.0372 73.2266-15.0372L49.6561-15.0372C46.5981-15.0372 44.6215-16.8063 44.6215-19.6314C44.6215-22.3967 46.617-24.1729 49.6757-24.1729L57.6917-24.1729L64.2493-23.3883L56.9971-29.9479L39.858-47.0058C38.876-48.0249 38.256-49.3808 38.256-50.6958C38.256-53.7467 40.4135-55.7407 43.2514-55.7407C44.8067-55.7407 46.0712-55.2123 47.1621-54.1394L64.1845-37.0982L70.6928-29.9201L69.9998-36.8061L69.9998-44.3588C69.9998-47.4357 71.7759-49.4012 74.5782-49.4012Z"/>
</svg>