<svg xmlns="http://www.w3.org/2000/svg" viewBox="12.4609 -94.5286 61.63 118.54">
  <path d="M26.3246 24.012L60.2286 24.012C68.9006 24.012 74.0923 19.0782 74.0923 10.7737L74.0923-81.2832C74.0923-89.5877 68.9006-94.5286 60.2286-94.5286L26.3246-94.5286C17.6156-94.5286 12.4609-89.5877 12.4609-81.2832L12.4609 10.7737C12.4609 19.0782 17.6156 24.012 26.3246 24.012ZM28.0209 13.9334C24.7444 13.9334 22.7044 12.0039 22.7044 8.91816L22.7044-79.4277C22.7044-82.5134 24.7444-84.4501 28.0209-84.4501L58.5394-84.4501C61.8089-84.4501 63.8489-82.5134 63.8489-79.4277L63.8489 8.91816C63.8489 12.0039 61.8089 13.9334 58.5394 13.9334ZM46.277-72.36L56.6637-72.36C58.4667-72.36 59.9069-73.7631 59.9069-75.566C59.9069-77.3871 58.4667-78.8273 56.6637-78.8273L46.277-78.8273C44.4741-78.8273 43.0339-77.3871 43.0339-75.566C43.0339-73.7631 44.4741-72.36 46.277-72.36ZM31.4407-53.8256C34.1963-53.8256 36.3842-56.0135 36.3842-58.7439C36.3842-61.4191 34.1963-63.6322 31.4407-63.6322C28.7032-63.6322 26.5153-61.4191 26.5153-58.7439C26.5153-56.0135 28.7032-53.8256 31.4407-53.8256ZM43.2581-53.8256C46.0138-53.8256 48.1763-56.0135 48.1763-58.7439C48.1763-61.4191 46.0319-63.6322 43.2581-63.6322C40.5213-63.6322 38.3698-61.4191 38.3698-58.7439C38.3698-56.0135 40.5395-53.8256 43.2581-53.8256ZM55.1678-53.8256C57.9053-53.8256 60.0931-56.0135 60.0931-58.7439C60.0931-61.4191 57.9053-63.6322 55.1678-63.6322C52.394-63.6322 50.2424-61.4191 50.2424-58.7439C50.2424-56.0135 52.4121-53.8256 55.1678-53.8256ZM31.4407-40.2354C34.1963-40.2354 36.3842-42.4051 36.3842-45.1536C36.3842-47.8288 34.1963-50.0419 31.4407-50.0419C28.7032-50.0419 26.5153-47.8288 26.5153-45.1536C26.5153-42.4051 28.7032-40.2354 31.4407-40.2354ZM43.2581-40.2354C46.0138-40.2354 48.1763-42.4051 48.1763-45.1536C48.1763-47.8288 46.0319-50.0419 43.2581-50.0419C40.5213-50.0419 38.3698-47.8288 38.3698-45.1536C38.3698-42.4051 40.5395-40.2354 43.2581-40.2354ZM55.1678-40.2354C57.9053-40.2354 60.0931-42.4051 60.0931-45.1536C60.0931-47.8288 57.9053-50.0419 55.1678-50.0419C52.394-50.0419 50.2424-47.8288 50.2424-45.1536C50.2424-42.4051 52.4121-40.2354 55.1678-40.2354ZM31.4407-26.627C34.1963-26.627 36.3842-28.8148 36.3842-31.5452C36.3842-34.2386 34.1963-36.4335 31.4407-36.4335C28.7032-36.4335 26.5153-34.2386 26.5153-31.5452C26.5153-28.8148 28.7032-26.627 31.4407-26.627ZM43.2581-26.627C46.0138-26.627 48.1763-28.8589 48.1763-31.5452C48.1763-34.3009 46.0138-36.4335 43.2581-36.4335C40.5395-36.4335 38.3698-34.3009 38.3698-31.5452C38.3698-28.8589 40.5395-26.627 43.2581-26.627ZM55.1678-26.627C57.9053-26.627 60.0931-28.8589 60.0931-31.5452C60.0931-34.3009 57.9053-36.4335 55.1678-36.4335C52.4121-36.4335 50.2424-34.3009 50.2424-31.5452C50.2424-28.8589 52.4121-26.627 55.1678-26.627ZM30.3996 4.95442C32.5141 4.95442 34.2658 3.20273 34.2658 1.09536L34.2658-15.7171C34.2658-17.8316 32.5141-19.5833 30.3996-19.5833C28.2489-19.5833 26.5153-17.8316 26.5153-15.7171L26.5153 1.09536C26.5153 3.20273 28.2489 4.95442 30.3996 4.95442ZM40.8905-8.9362L45.6257-8.9362C47.4026-8.9362 48.3633-9.98366 48.3633-11.662L48.3633-14.8395C48.3633-16.5179 47.4026-17.5842 45.6257-17.5842L40.8905-17.5842C39.2129-17.5842 38.1829-16.5179 38.1829-14.8395L38.1829-11.662C38.1829-9.98366 39.2129-8.9362 40.8905-8.9362ZM40.8905 2.95532L45.6257 2.95532C47.4026 2.95532 48.3633 1.90714 48.3633 0.217749L48.3633-2.94163C48.3633-4.63813 47.4026-5.66743 45.6257-5.66743L40.8905-5.66743C39.2129-5.66743 38.1829-4.63813 38.1829-2.94163L38.1829 0.217749C38.1829 1.90714 39.2311 2.95532 40.8905 2.95532ZM56.2088 4.95442C58.3596 4.95442 60.0931 3.20273 60.0931 1.09536L60.0931-15.7171C60.0931-17.8316 58.3596-19.5833 56.2088-19.5833C54.0943-19.5833 52.3426-17.8316 52.3426-15.7171L52.3426 1.09536C52.3426 3.20273 54.0943 4.95442 56.2088 4.95442Z"/>
</svg>