<svg xmlns="http://www.w3.org/2000/svg" viewBox="8.72266 -80.8054 183.08 91.16">
  <path d="M100.255 10.3568C125.446 10.3568 145.836-10.0334 145.836-35.2243C145.836-60.4153 125.446-80.8054 100.255-80.8054C75.101-80.8054 54.7108-60.4153 54.7108-35.2243C54.7108-10.0334 75.101 10.3568 100.255 10.3568ZM100.255-0.379289C81.0207-0.379289 65.4098-15.9603 65.4098-35.2243C65.4098-54.4884 81.0207-70.0694 100.255-70.0694C119.519-70.0694 135.13-54.4884 135.13-35.2243C135.13-15.9603 119.519-0.379289 100.255-0.379289ZM43.1337-15.9484C44.7582-17.9831 44.1613-20.428 42.5155-22.722C40.0155-25.9323 38.5374-30.6401 38.5374-35.2606C38.5374-39.8812 40.0155-44.589 42.5155-47.8175C44.1432-50.1115 44.7582-52.5382 43.1337-54.5729C41.3301-56.7307 37.8938-56.8333 35.6893-54.2702C31.552-49.3628 29.2532-42.559 29.2532-35.2606C29.2532-27.9623 31.552-21.1585 35.6893-16.2693C37.8938-13.7061 41.3301-13.7905 43.1337-15.9484ZM28.4645-1.92434C30.1687-3.98432 29.6513-6.53246 27.7003-8.69719C21.4897-15.6269 18.014-24.9859 18.014-35.2606C18.014-45.5172 21.4534-54.8763 27.7003-61.8059C29.6695-63.9707 30.1869-66.5188 28.4645-68.5788C26.6324-70.7484 23.4462-70.9411 21.0397-68.332C13.2149-59.9348 8.72266-47.9407 8.72266-35.2606C8.72266-22.5442 12.997-10.6954 21.0397-2.17113C23.4825 0.419767 26.6506 0.263463 28.4645-1.92434ZM157.395-15.9121C159.191-13.7542 162.628-13.6698 164.839-16.233C168.977-21.1222 171.275-27.926 171.275-35.2243C171.275-42.5227 168.977-49.3265 164.839-54.2339C162.628-56.797 159.191-56.6944 157.395-54.5366C155.726-52.5019 156.385-50.0752 158.013-47.7811C160.506-44.5527 161.984-39.8449 161.984-35.2243C161.984-30.6037 160.506-25.896 158.013-22.6857C156.367-20.3917 155.726-17.9468 157.395-15.9121ZM172.057-1.88803C173.878 0.299776 177.039 0.45608 179.489-2.13481C187.524-10.6591 191.806-22.5079 191.806-35.2243C191.806-47.9044 187.307-59.8985 179.489-68.2957C177.075-70.9047 173.896-70.7121 172.057-68.5425C170.342-66.4825 170.859-63.9344 172.821-61.7696C179.075-54.84 182.515-45.4809 182.515-35.2243C182.515-24.9496 179.039-15.5906 172.821-8.66088C170.877-6.49615 170.36-3.948 172.057-1.88803ZM93.9598-10.1363L106.587-10.1363C114.033-10.1363 117.778-13.9764 117.716-21.5035C117.617-29.8215 117.61-35.8784 117.36-40.3738C116.774-53.9397 112.853-58.0109 100.292-58.0109C87.7489-58.0109 83.8095-53.9397 83.2416-40.3738C83.0176-35.8784 82.9553-29.8215 82.8859-21.5035C82.8236-13.9764 86.5762-10.1363 93.9598-10.1363ZM93.5049-18.5996C91.575-18.5996 90.3374-19.9065 90.3374-21.7813L90.3374-32.2985C90.3374-34.1551 91.575-35.455 93.5049-35.455L107.097-35.455C109.027-35.455 110.265-34.1733 110.265-32.2985L110.265-21.7813C110.265-19.9065 109.027-18.5996 107.097-18.5996ZM90.3374-26.6633L110.265-26.6633L110.265-29.7046L90.3374-29.7046ZM100.292-63.209C96.082-63.209 93.2209-60.3486 93.2209-56.3104L96.7629-56.3104C96.7629-58.3279 98.2352-59.7506 100.292-59.7506C102.323-59.7506 103.857-58.3279 103.857-56.3104L107.344-56.3104C107.344-60.3486 104.52-63.209 100.292-63.209Z" />
</svg>