<svg xmlns="http://www.w3.org/2000/svg" viewBox="10.9742 -103.768 121.98 136.65">
  <path d="M96.3667-69.3069C88.8138-69.3069 83.2924-65.2504 79.1859-55.5682C64.3629-70.3494 41.529-83.2287 18.7351-84.9543C13.4556-85.2808 12.6731-81.2254 12.5303-78.1551C10.9742-52.8622 30.6839-30.7321 56.5152-28.2906C49.2627-12.0758 37.8742 0.458798 26.2767 10.5784C24.118 12.4057 24.8555 15.0267 26.1198 16.9795C32.2852 26.5878 51.8289 32.8839 64.3691 28.5082C67.4726 27.4112 67.9624 25.8013 67.9624 23.4558L67.9624 5.33788C81.4257 4.50176 102.769-4.88083 99.5958-32.7567L99.1912-36.1637C109.45-38.7689 116.348-45.3306 116.348-52.29C116.348-60.591 107.364-69.3069 96.3667-69.3069ZM101.732-51.3247C99.9939-51.3247 98.6043-52.6663 98.6043-54.4045C98.6043-56.0875 99.9939-57.5765 101.732-57.5765C103.415-57.5765 104.849-56.0875 104.849-54.4045C104.849-52.6663 103.415-51.3247 101.732-51.3247ZM108.197-44.3896L127.277-41.6222C131.134-41.0796 132.951-46.6769 129.02-48.386L111.773-55.6953ZM90.2074-75.6618C83.7401-86.9503 75.5259-95.2804 65.1128-101.229C60.6929-103.768 56.2652-101.976 54.9819-97.1054C53.6908-92.2851 52.8043-87.5481 52.4881-82.7741C61.6764-78.43 70.1486-72.8689 77.4258-66.7566C80.9656-71.4731 85.2647-74.3897 90.2074-75.6618Z"/>
</svg>