<svg xmlns="http://www.w3.org/2000/svg" viewBox="8.72266 -86.1618 101.84 101.8">
  <path d="M59.6238 15.6405C87.7463 15.6405 110.562-7.13807 110.562-35.2606C110.562-63.3832 87.7463-86.1618 59.6238-86.1618C31.5382-86.1618 8.72266-63.3832 8.72266-35.2606C8.72266-7.13807 31.5382 15.6405 59.6238 15.6405ZM59.6238 4.47459C37.6599 4.47459 19.9185-13.2968 19.9185-35.2606C19.9185-57.2245 37.6599-74.9959 59.6238-74.9959C81.5876-74.9959 99.359-57.2245 99.359-35.2606C99.359-13.2968 81.5876 4.47459 59.6238 4.47459ZM33.8612-19.6657C33.8612-18.0561 35.1332-16.784 36.7428-16.784L39.3383-16.784C40.966-16.784 42.22-18.0561 42.22-19.6657L42.22-23.3638C46.9636-23.0704 53.9494-22.8582 59.6238-22.8582C65.3052-22.8582 72.2911-23.0522 77.0087-23.3638L77.0087-19.6657C77.0087-18.0561 78.2697-16.784 79.8975-16.784L82.4676-16.784C84.1025-16.784 85.3564-18.0561 85.3564-19.6657L85.3564-32.3424C85.3564-36.1289 84.7413-38.2701 82.683-40.7984L80.8154-43.1872C79.9905-47.0208 78.6088-51.0349 77.8903-52.5854C76.6923-55.106 74.3839-56.621 71.3982-57.0318C69.8271-57.2369 65.3225-57.3615 59.6238-57.3615C53.9503-57.3615 49.4457-57.2369 47.8746-57.0318C44.8889-56.658 42.5623-55.106 41.3824-52.5854C40.664-51.0349 39.2752-47.0208 38.4944-43.1872L36.5527-40.7984C34.5315-38.2701 33.8612-36.1289 33.8612-32.3424ZM51.6924-38.3679C51.6924-38.6833 51.828-38.9988 52.0701-39.2779L61.5055-51.0908C62.4889-52.2982 64.0781-51.4874 63.4905-49.9717L60.7051-42.5185L66.5094-42.5185C67.1151-42.5185 67.6032-42.0374 67.6032-41.4688C67.6032-41.1715 67.4487-40.8189 67.2436-40.5516L57.8453-28.764C56.8808-27.5566 55.2065-28.4044 55.7751-29.9201L58.5976-37.3805L52.8044-37.3805C52.1805-37.3805 51.6924-37.8363 51.6924-38.3679Z" />
</svg>