<svg xmlns="http://www.w3.org/2000/svg" viewBox="12.4609 -93.8749 71.37 117.23">
  <path d="M28.877-62.1971L28.877-71.673C28.877-72.9253 29.6703-73.7998 30.9162-73.7998L41.0092-73.7998C42.2622-73.7998 43.0926-72.9253 43.0926-71.673L43.0926-62.1971C43.0926-60.9448 42.2622-60.0955 41.0092-60.0955L30.9162-60.0955C29.6703-60.0955 28.877-60.9448 28.877-62.1971ZM53.2168-62.1971L53.2168-71.673C53.2168-72.9253 54.0472-73.7998 55.3002-73.7998L65.386-73.7998C66.602-73.7998 67.4324-72.9253 67.4324-71.673L67.4324-62.1971C67.4324-60.9448 66.602-60.0955 65.386-60.0955L55.3002-60.0955C54.0472-60.0955 53.2168-60.9448 53.2168-62.1971ZM28.877-41.8249L28.877-51.2937C28.877-52.583 29.6703-53.3834 30.9162-53.3834L41.0092-53.3834C42.2622-53.3834 43.0926-52.583 43.0926-51.2937L43.0926-41.8249C43.0926-40.5355 42.2622-39.7351 41.0092-39.7351L30.9162-39.7351C29.6703-39.7351 28.877-40.5355 28.877-41.8249ZM53.2168-41.8249L53.2168-51.2937C53.2168-52.583 54.0472-53.3834 55.3002-53.3834L65.386-53.3834C66.602-53.3834 67.4324-52.583 67.4324-51.2937L67.4324-41.8249C67.4324-40.5355 66.602-39.7351 65.386-39.7351L55.3002-39.7351C54.0472-39.7351 53.2168-40.5355 53.2168-41.8249ZM28.877-21.4456L28.877-30.9215C28.877-32.1738 29.6703-33.023 30.9162-33.023L41.0092-33.023C42.2622-33.023 43.0926-32.1738 43.0926-30.9215L43.0926-21.4456C43.0926-20.1933 42.2622-19.3188 41.0092-19.3188L30.9162-19.3188C29.6703-19.3188 28.877-20.1933 28.877-21.4456ZM53.2168-21.4456L53.2168-30.9215C53.2168-32.1738 54.0472-33.023 55.3002-33.023L65.386-33.023C66.602-33.023 67.4324-32.1738 67.4324-30.9215L67.4324-21.4456C67.4324-20.1933 66.602-19.3188 65.386-19.3188L55.3002-19.3188C54.0472-19.3188 53.2168-20.1933 53.2168-21.4456ZM22.2468 23.3536L74.0484 23.3536C80.2256 23.3536 83.8342 19.365 83.8342 12.8305L83.8342-83.3518C83.8342-89.8862 80.2256-93.8749 74.0484-93.8749L22.2468-93.8749C16.1066-93.8749 12.4609-89.8862 12.4609-83.3518L12.4609 12.8305C12.4609 19.365 16.1066 23.3536 22.2468 23.3536ZM35.4186 13.1563L35.4186-0.794191C35.4186-3.64254 37.1799-5.42836 39.988-5.42836L56.3513-5.42836C59.1893-5.42836 60.8765-3.64254 60.8765-0.794191L60.8765 13.1563Z"/>
</svg>