<svg xmlns="http://www.w3.org/2000/svg" viewBox="12.4609 -81.2571 115.99 92.1">
  <path d="M97.0652-31.475L89.3864-31.475C87.5993-22.615 79.8062-15.8605 70.5535-15.8605C61.169-15.8605 53.3025-22.5897 51.5525-31.475L43.8737-31.475C45.7405-18.3994 56.9975-8.35367 70.5535-8.35367C83.9114-8.35367 95.1243-18.4435 97.0652-31.475ZM89.4235-38.9075L97.0652-38.9075C95.249-51.8767 83.9367-62.0288 70.5535-62.0288C56.9975-62.0288 45.6529-51.8767 43.8737-38.9075L51.5154-38.9075C53.2331-47.7234 61.169-54.522 70.5535-54.522C79.8205-54.522 87.7058-47.7234 89.4235-38.9075ZM28.9998 10.8462L66.7631 10.8462L66.7631-0.0604106L29.9233-0.0604106C25.6466-0.0604106 23.3305-2.2298 23.3305-6.69034L23.3305-31.4892L12.4609-31.4892L12.4609-5.58162C12.4609 5.13104 18.2131 10.8462 28.9998 10.8462ZM74.2398 10.8462L111.915 10.8462C122.739 10.8462 128.454 5.11683 128.454-5.58162L128.454-31.4892L117.584-31.4892L117.584-6.69034C117.584-2.2298 115.24-0.0604106 110.991-0.0604106L74.2398-0.0604106ZM117.584-38.9217L128.454-38.9217L128.454-64.8293C128.454-75.5277 122.739-81.2571 111.915-81.2571L74.2398-81.2571L74.2398-70.3505L110.991-70.3505C115.24-70.3505 117.584-68.2181 117.584-63.7206ZM12.4609-38.9217L23.3305-38.9217L23.3305-63.7206C23.3305-68.2181 25.6466-70.3505 29.9233-70.3505L66.7631-70.3505L66.7631-81.2571L28.9998-81.2571C18.2131-81.2571 12.4609-75.5419 12.4609-64.8293Z"/>
</svg>