<svg xmlns="http://www.w3.org/2000/svg" viewBox="2.8738 -85.9112 115.53 100.7">
  <path d="M114.502-58.2556C116.728-58.2556 118.4-59.9277 118.4-62.1536L118.4-82.006C118.4-84.2319 116.728-85.904 114.502-85.904L111.029-85.904C108.847-85.904 107.168-84.2319 107.168-82.006L107.168-62.1536C107.168-59.9277 108.847-58.2556 111.029-58.2556ZM114.502-21.8105C116.728-21.8105 118.4-23.4898 118.4-25.6715L118.4-45.494C118.4-47.7127 116.728-49.392 114.502-49.392L111.029-49.392C108.847-49.392 107.168-47.7127 107.168-45.494L107.168-25.6715C107.168-23.4898 108.847-21.8105 111.029-21.8105ZM114.502 14.7923C116.728 14.7923 118.4 13.1201 118.4 10.8943L118.4-9.09232C118.4-11.3111 116.728-12.9904 114.502-12.9904L111.029-12.9904C108.847-12.9904 107.168-11.3111 107.168-9.09232L107.168 10.8943C107.168 13.1201 108.847 14.7923 111.029 14.7923ZM23.6867-67.8449L23.6867-82.0131C23.6867-84.239 22.0145-85.9112 19.7886-85.9112L16.3519-85.9112C14.1331-85.9112 12.4538-84.239 12.4538-82.0131L12.4538-62.0344ZM19.7886 14.7852C22.0145 14.7852 23.6867 13.113 23.6867 10.8872L23.6867-9.09942C23.6867-11.3182 22.0145-12.9975 19.7886-12.9975L16.3519-12.9975C14.1331-12.9975 12.4538-11.3182 12.4538-9.09942L12.4538 10.8872C12.4538 13.113 14.1331 14.7852 16.3519 14.7852ZM67.4423 5.17417C82.7354-3.67867 87.5686-11.5266 82.3064-20.6148L53.1094-71.1614C47.5806-80.7166 36.2498-81.3208 22.1683-73.2067C8.0245-65.0672 2.8738-54.9092 8.42078-45.38L37.6178 5.20369C42.88 14.2989 52.0245 14.0523 67.4423 5.17417ZM41.3187-40.0283C38.425-38.3358 34.1021-35.4736 32.8404-34.7031C30.3725-33.3008 28.6145-33.6597 26.8864-36.1244L22.9967-41.6632C19.8459-46.1659 22.0975-49.8617 32.2629-55.7368C42.3796-61.5495 46.7159-61.6645 49.0574-56.6523L51.8612-50.5606C53.0845-47.8837 52.6641-46.1769 50.1039-44.7194C48.8052-43.923 44.3373-41.7659 41.3187-40.0283ZM60.1647-7.37866C49.8826-1.4407 45.6-1.12207 43.4989-6.43151L42.2945-9.42851C40.6035-13.7671 43.0635-16.7721 51.8053-21.7819C60.5242-26.8468 64.4173-27.4549 67.2605-23.8544L69.2724-21.3346C72.868-16.8248 70.3986-13.2607 60.1647-7.37866ZM59.7507-52.358L64.6171-55.1417C66.7537-56.3249 67.3569-58.869 66.1028-61.0965L65.4752-62.1979C64.2212-64.4254 61.7077-65.1407 59.5529-63.8835L54.7418-61.0628ZM21.4122-30.0531L16.3961-38.7839L11.5739-36.0372C9.40025-34.78 8.87115-32.3028 10.0881-30.0383L10.6787-28.9298C11.8957-26.7023 14.4904-25.9823 16.6081-27.2395Z"/>
</svg>