<svg xmlns="http://www.w3.org/2000/svg" viewBox="12.4609 -96.2649 166.65 125.84">
  <path d="M165.496-43.8347L158.363-46.2229C149.213-54.0854 135.962-63.5722 118.443-63.5722L111.29-63.5722C98.8358-63.5722 91.0963-62.7385 84.0081-60.1174L91.6503-52.4753C96.7626-53.7507 102.606-54.1293 111.29-54.1293L118.443-54.1293C130.188-54.1293 139.476-49.8083 151.303-39.4679C153.577-37.4616 154.964-36.8968 157.853-35.9458L162.652-34.4377C167.358-32.8881 169.631-30.1923 169.631-25.7545L169.631-13.3142C169.631-8.4982 167.673-6.20633 163.426-6.20633L160.593-6.20633C159.704-14.8422 152.561-21.6391 143.331-21.6391C137.533-21.6391 132.527-18.7862 129.635-14.5161L136.174-8.00646C137.279-10.6913 140.056-12.6742 143.331-12.6742C148.087-12.6742 151.81-8.95105 151.81-4.18769C151.81-0.853963 149.887 1.90867 147.15 2.99903L153.645 9.50154C156.053 8.12163 158.05 5.93067 159.129 3.23653L163.426 3.23653C173.994 3.23653 179.111-2.16635 179.111-13.3142L179.111-26.0813C179.111-35.1237 174.573-40.7476 165.496-43.8347ZM81.268-77.7726C81.268-74.1637 83.4806-71.9197 88.0441-71.9197L138.809-71.9197C143.486-71.9197 145.758-74.6912 145.758-79.6227L145.758-84.5813C145.758-92.338 141.964-96.2649 133.419-96.2649L123.412-96.2649C114.382-96.2649 107.911-94.1982 96.57-89.1558L86.0138-84.4288C82.4132-82.769 81.268-80.531 81.268-77.7726ZM152.086 28.0055C153.652 29.5527 156.202 29.5709 157.712 28.0055C159.23 26.433 159.271 23.9521 157.712 22.3867L45.1945-90.0687C43.6362-91.664 41.093-91.6412 39.5134-90.0687C38.0103-88.5586 37.9733-85.9901 39.5134-84.45ZM48.2112 13.2456C58.028 13.2456 65.6444 5.57395 65.6444-4.18769C65.6444-13.9856 58.028-21.6391 48.2112-21.6391C38.4613-21.6391 30.7968-13.9856 30.7968-4.18769C30.7968 5.57395 38.4613 13.2456 48.2112 13.2456ZM48.2112 4.31768C43.4549 4.31768 39.7617 0.532252 39.7617-4.18769C39.7617-8.95105 43.4549-12.6742 48.2112-12.6742C52.9863-12.6742 56.7094-8.95105 56.7094-4.18769C56.7094 0.532252 52.9863 4.31768 48.2112 4.31768ZM72.2386-42.9618L65.3228-49.8705L54.1395-42.8143L33.9029-40.3631C20.5908-38.7683 12.4609-30.3065 12.4609-18.7885L12.4609-13.0571C12.4609-2.09299 17.6666 3.23653 28.1457 3.23653L35.5971 3.23653L35.5971-6.20633L28.1457-6.20633C23.9432-6.20633 21.9408-8.4982 21.9408-13.3142L21.9408-18.7885C21.9408-25.2816 26.5181-29.9967 35.1428-31.0377L53.5175-33.2618C56.3482-33.5986 58.4665-34.321 60.5077-35.6113ZM118.503 3.23653L109.005-6.20633L59.8807-6.20633L59.8807 3.23653Z"/>
</svg>