<svg xmlns="http://www.w3.org/2000/svg" viewBox="9.90099 -90.6834 108.17 110.98">
  <path d="M32.1033-34.5135C32.1033-32.0355 34.0601-30.141 36.5705-30.141L40.3758-30.141C42.8908-30.141 44.7782-32.0355 44.7782-34.5135L44.7782-38.7314L96.1689-38.7314L96.1689-34.5135C96.1689-32.0355 98.0633-30.141 100.586-30.141L104.391-30.141C106.887-30.141 108.844-32.0355 108.844-34.5135L108.844-56.0239C108.844-61.7192 108.25-65.1522 104.902-68.7682L101.677-72.2455L98.3657-81.6099C96.2936-87.3456 92.5349-89.6463 87.9171-90.1928C85.5919-90.5036 78.9271-90.6834 70.4956-90.6834C62.0199-90.6834 55.3552-90.5036 53.0371-90.1928C48.4122-89.6463 44.6605-87.3456 42.5884-81.6099L39.2768-72.2455L36.082-68.7682C32.6973-65.1522 32.1033-61.7192 32.1033-56.0239ZM49.3985-71.7496C47.7565-71.7496 47.101-72.8395 47.6105-74.3537L49.5174-80.0104C50.2517-82.2189 51.5091-82.8382 53.6673-83.1931C55.6649-83.4423 61.5406-83.6047 70.4956-83.6047C79.4135-83.6047 85.2522-83.4423 87.2316-83.1931C89.4009-82.8382 90.6764-82.2118 91.3997-80.0104L93.3326-74.3537C93.8421-72.8395 93.1977-71.7496 91.5375-71.7496ZM45.1551-51.6376C43.0597-51.6376 41.596-53.0469 41.596-55.1234L41.596-59.9831C41.596-61.9602 43.0597-63.4357 45.1551-63.4357C47.1504-63.4357 48.6149-61.9973 48.6149-59.9831L48.6149-55.1234C48.6149-53.0469 47.1504-51.6376 45.1551-51.6376ZM63.3441-53.1573C61.7084-53.1573 60.669-54.2361 60.669-55.99L60.669-59.0612C60.669-60.808 61.7084-61.8427 63.3441-61.8427L77.4389-61.8427C79.1344-61.8427 80.1691-60.808 80.1691-59.0612L80.1691-55.99C80.1691-54.2361 79.1344-53.1573 77.4389-53.1573ZM96.1239-51.6376C94.1357-51.6376 92.646-53.065 92.646-55.1234L92.646-59.9831C92.646-61.9531 94.1357-63.4357 96.1239-63.4357C98.1822-63.4357 99.646-62.0154 99.646-59.9831L99.646-55.1234C99.646-53.0287 98.1822-51.6376 96.1239-51.6376ZM57.1439-20.7909L53.3663-23.6001C52.013-24.638 50.4286-25.1222 48.7196-25.1222L39.1228-25.1222C37.1536-25.1222 36.4201-22.742 37.9675-21.5867L45.548-16.0267C47.921-14.3547 47.6166-12.0369 44.8768-10.8192L20.2284-0.169283C10.7961 3.91986 9.90099 10.0958 17.823 15.9231L21.5635 18.7252C22.9681 19.7631 24.5525 20.2544 26.2245 20.2544L35.8141 20.2544C37.8204 20.2544 38.5538 17.8743 36.9766 16.7189L29.3889 11.1518C27.053 9.47984 27.3574 7.16911 30.0601 5.95144L54.7086-4.6985C64.1779-8.75061 65.0288-14.9494 57.1439-20.7909ZM110.164-20.7483L106.423-23.5575C105.019-24.5953 103.434-25.0425 101.762-25.0425L92.1728-25.0425C90.1665-25.0425 89.4331-22.6994 91.0175-21.544L98.598-15.977C100.934-14.268 100.63-11.9943 97.9268-10.7766L73.2783-0.119542C63.809 3.9625 62.9139 10.1684 70.843 16.0099L74.6206 18.7678C75.9811 19.8057 77.5583 20.297 79.2673 20.297L88.8641 20.297C90.8333 20.297 91.5668 17.9169 90.0194 16.7986L82.446 11.2315C80.073 9.52248 80.3703 7.21174 83.1172 5.99407L107.759-4.65587C117.191-8.70797 118.072-14.9067 110.164-20.7483Z"/>
</svg>