<svg xmlns="http://www.w3.org/2000/svg" viewBox="8.72266 -86.0994 101.84 101.8">
  <path d="M59.6238 15.7028C87.7321 15.7028 110.562-7.12702 110.562-35.1983C110.562-63.2697 87.7321-86.0994 59.6238-86.0994C31.5524-86.0994 8.72266-63.2697 8.72266-35.1983C8.72266-7.12702 31.5524 15.7028 59.6238 15.7028ZM32.4705-16.8416L32.4705-56.0682C32.4705-57.9454 33.9604-59.4723 35.8194-59.4723C37.6973-59.4723 39.169-57.9273 39.169-56.0682L39.169-37.7788L44.4784-43.1749C45.7182-44.3776 46.958-45.0638 48.4887-45.0638C50.0076-45.0638 51.3207-44.4328 52.5605-43.1749L60.6842-34.7011C60.9209-34.4345 61.1205-34.4345 61.3429-34.7381L69.7888-43.3584L66.6842-46.4403C65.21-47.9002 65.9995-50.1512 68.1266-50.7238L82.1082-54.2591C84.0516-54.7765 85.8444-53.0642 85.3017-51.1468L81.7041-37.1321C81.1315-34.9633 78.8466-34.1998 77.4277-35.6558L74.2448-38.8843L65.0692-29.4737C63.8073-28.234 62.4501-27.577 60.9674-27.577C59.4927-27.577 58.1535-28.1969 56.8767-29.4737L48.8713-37.8728C48.5976-38.1394 48.4051-38.1394 48.1314-37.8728L39.169-28.7266L39.169-19.4349C39.169-19.1021 39.3118-18.9593 39.6076-18.9593L83.1354-18.9593C84.9944-18.9593 86.4771-17.4624 86.4771-15.6034C86.4771-13.7325 84.9873-12.2427 83.1354-12.2427L37.0071-12.2427C34.2601-12.2427 32.4705-14.0764 32.4705-16.8416Z"/>
</svg>