<svg xmlns="http://www.w3.org/2000/svg" viewBox="12.4428 -83.481 144.43 96.6">
  <path d="M12.4609-35.2606C12.4428-33.366 13.3073-31.4058 14.9599-29.9298L45.7199-2.12725C48.7466 0.543676 52.7538 0.445787 55.2773-2.37112C57.8307-5.25033 57.5476-9.27646 54.6392-11.8843L28.8474-35.2606L54.6392-58.6369C57.5476-61.2448 57.8307-65.271 55.2773-68.1502C52.7538-70.9671 48.7466-71.065 45.7199-68.394L14.9599-40.5914C13.3073-39.1155 12.4428-37.1553 12.4609-35.2606ZM70.9221 12.1022C74.6776 13.1237 78.139 11.1454 79.2599 7.33539L103.099-74.2822C104.146-77.907 102.334-81.3937 98.5788-82.4594C94.8603-83.481 91.5171-81.7761 90.315-77.6555L66.5794 3.62868C65.4656 7.44578 67.0483 11.0364 70.9221 12.1022ZM156.854-35.2606C156.872-37.1553 156.045-39.1155 154.392-40.5914L123.602-68.394C120.568-71.065 116.598-70.9671 114.045-68.1502C111.484-65.271 111.767-61.2448 114.683-58.6369L140.512-35.2606L114.683-11.8843C111.767-9.27646 111.484-5.25033 114.045-2.37112C116.598 0.445787 120.568 0.543676 123.602-2.12725L154.392-29.9298C156.045-31.4058 156.872-33.366 156.854-35.2606Z"/>
</svg>