<svg xmlns="http://www.w3.org/2000/svg" viewBox="12.4609 -80.2904 84.98 90.05">
  <path d="M87.0743-37.9746C87.0743-35.088 89.3884-32.7739 92.2451-32.7739C95.1317-32.7739 97.4458-35.088 97.4458-37.9746C97.4458-40.8684 95.1317-43.1753 92.2451-43.1753C89.3884-43.1753 87.0743-40.8684 87.0743-37.9746ZM77.7364-47.2384C77.7364-44.3817 80.0505-42.0677 82.9371-42.0677C85.8309-42.0677 88.1378-44.3817 88.1378-47.2384C88.1378-50.1251 85.8309-52.4391 82.9371-52.4391C80.0505-52.4391 77.7364-50.1251 77.7364-47.2384ZM68.3985-56.5322C68.3985-53.6455 70.7425-51.3315 73.5992-51.3315C76.4859-51.3315 78.7999-53.6455 78.7999-56.5322C78.7999-59.4259 76.4859-61.7329 73.5992-61.7329C70.7425-61.7329 68.3985-59.4259 68.3985-56.5322ZM59.0906-65.8259C59.0906-62.9393 61.4046-60.6252 64.2913-60.6252C67.185-60.6252 69.492-62.9393 69.492-65.8259C69.492-68.6826 67.185-70.9967 64.2913-70.9967C61.4046-70.9967 59.0906-68.6826 59.0906-65.8259ZM49.7527-75.0897C49.7527-72.196 52.0596-69.8891 54.9534-69.8891C57.84-69.8891 60.1541-72.196 60.1541-75.0897C60.1541-77.9764 57.84-80.2904 54.9534-80.2904C52.0596-80.2904 49.7527-77.9764 49.7527-75.0897ZM40.4447-65.8259C40.4447-62.9393 42.7588-60.6252 45.6454-60.6252C48.5021-60.6252 50.8162-62.9393 50.8162-65.8259C50.8162-68.6826 48.5021-70.9967 45.6454-70.9967C42.7588-70.9967 40.4447-68.6826 40.4447-65.8259ZM31.1068-56.5322C31.1068-53.6455 33.4138-51.3315 36.3075-51.3315C39.2012-51.3315 41.5082-53.6455 41.5082-56.5322C41.5082-59.4259 39.2012-61.7329 36.3075-61.7329C33.4138-61.7329 31.1068-59.4259 31.1068-56.5322ZM21.7988-47.2384C21.7988-44.3817 24.1129-42.0677 26.9696-42.0677C29.8562-42.0677 32.1703-44.3817 32.1703-47.2384C32.1703-50.1251 29.8562-52.4391 26.9696-52.4391C24.1129-52.4391 21.7988-50.1251 21.7988-47.2384ZM12.4609-37.9746C12.4609-35.088 14.775-32.7739 17.6616-32.7739C20.5554-32.7739 22.8623-35.088 22.8623-37.9746C22.8623-40.8684 20.5554-43.1753 17.6616-43.1753C14.775-43.1753 12.4609-40.8684 12.4609-37.9746ZM87.0743 4.55638C87.0743 7.44301 89.3884 9.75707 92.2451 9.75707C95.1317 9.75707 97.4458 7.44301 97.4458 4.55638C97.4458 1.66264 95.1317-0.644317 92.2451-0.644317C89.3884-0.644317 87.0743 1.66264 87.0743 4.55638ZM77.7364-4.70744C77.7364-1.85074 80.0505 0.46332 82.9371 0.46332C85.8309 0.46332 88.1378-1.85074 88.1378-4.70744C88.1378-7.59407 85.8309-9.90813 82.9371-9.90813C80.0505-9.90813 77.7364-7.59407 77.7364-4.70744ZM68.3985-14.0012C68.3985-11.1074 70.7425-8.8005 73.5992-8.8005C76.4859-8.8005 78.7999-11.1074 78.7999-14.0012C78.7999-16.8949 76.4859-19.2019 73.5992-19.2019C70.7425-19.2019 68.3985-16.8949 68.3985-14.0012ZM59.0906-23.2949C59.0906-20.4083 61.4046-18.0942 64.2913-18.0942C67.185-18.0942 69.492-20.4083 69.492-23.2949C69.492-26.1516 67.185-28.4657 64.2913-28.4657C61.4046-28.4657 59.0906-26.1516 59.0906-23.2949ZM49.7527-32.5588C49.7527-29.665 52.0596-27.3581 54.9534-27.3581C57.84-27.3581 60.1541-29.665 60.1541-32.5588C60.1541-35.4454 57.84-37.7595 54.9534-37.7595C52.0596-37.7595 49.7527-35.4454 49.7527-32.5588ZM40.4447-23.2949C40.4447-20.4083 42.7588-18.0942 45.6454-18.0942C48.5021-18.0942 50.8162-20.4083 50.8162-23.2949C50.8162-26.1516 48.5021-28.4657 45.6454-28.4657C42.7588-28.4657 40.4447-26.1516 40.4447-23.2949ZM31.1068-14.0012C31.1068-11.1074 33.4138-8.8005 36.3075-8.8005C39.2012-8.8005 41.5082-11.1074 41.5082-14.0012C41.5082-16.8949 39.2012-19.2019 36.3075-19.2019C33.4138-19.2019 31.1068-16.8949 31.1068-14.0012ZM21.7988-4.70744C21.7988-1.85074 24.1129 0.46332 26.9696 0.46332C29.8562 0.46332 32.1703-1.85074 32.1703-4.70744C32.1703-7.59407 29.8562-9.90813 26.9696-9.90813C24.1129-9.90813 21.7988-7.59407 21.7988-4.70744ZM12.4609 4.55638C12.4609 7.44301 14.775 9.75707 17.6616 9.75707C20.5554 9.75707 22.8623 7.44301 22.8623 4.55638C22.8623 1.66264 20.5554-0.644317 17.6616-0.644317C14.775-0.644317 12.4609 1.66264 12.4609 4.55638Z"/>
</svg>