<svg xmlns="http://www.w3.org/2000/svg" viewBox="8.72266 -86.1618 101.84 101.8">
  <path d="M59.6238 15.6405C87.7321 15.6405 110.562-7.18932 110.562-35.2606C110.562-63.332 87.7321-86.1618 59.6238-86.1618C31.5524-86.1618 8.72266-63.332 8.72266-35.2606C8.72266-7.18932 31.5524 15.6405 59.6238 15.6405ZM34.5876-23.134C32.8895-24.7816 32.9194-27.7425 34.765-29.6866L53.9541-50.1256C57.3278-53.7453 61.9868-53.7706 65.3746-50.1438L84.5566-29.7048C86.4022-27.7606 86.4321-24.7816 84.7411-23.134C82.7819-21.1852 79.825-21.1852 78.0607-23.0852L59.6608-42.6616L41.2609-23.0852C39.4966-21.1852 36.5397-21.1852 34.5876-23.134Z"/>
</svg>