<svg xmlns="http://www.w3.org/2000/svg" viewBox="12.4609 -81.2752 92.07 92.1">
  <path d="M28.9998 10.828L87.9882 10.828C98.812 10.828 104.527 5.09867 104.527-5.59978L104.527-64.8474C104.527-75.5459 98.812-81.2752 87.9882-81.2752L28.9998-81.2752C18.2131-81.2752 12.4609-75.5601 12.4609-64.8474L12.4609-5.59978C12.4609 5.11288 18.2131 10.828 28.9998 10.828ZM29.9233-0.0785673C25.6466-0.0785673 23.3305-2.24796 23.3305-6.70849L23.3305-63.7387C23.3305-68.2363 25.6466-70.3686 29.9233-70.3686L87.0647-70.3686C91.3131-70.3686 93.6576-68.2363 93.6576-63.7387L93.6576-6.70849C93.6576-2.24796 91.3131-0.0785673 87.0647-0.0785673ZM46.4012-16.2749L77.4865-47.3972C78.392-48.3027 78.9133-49.4582 78.9133-50.7019C78.9133-53.4056 76.8106-55.4642 74.155-55.4642C72.7471-55.4642 71.6468-55.0162 70.7161-54.0484L39.5567-23.0002C38.6584-22.0577 38.1299-20.9393 38.1299-19.6584C38.1299-16.9547 40.2326-14.8592 42.8953-14.8592C44.3403-14.8592 45.4705-15.3442 46.4012-16.2749ZM70.679-16.2749C71.5727-15.3442 72.7029-14.8592 74.155-14.8592C76.8106-14.8592 78.9133-16.9547 78.9133-19.6584C78.9133-20.9393 78.392-22.0577 77.4865-23.0002L46.3272-54.0484C45.3964-55.0162 44.2962-55.4642 42.8953-55.4642C40.2326-55.4642 38.1299-53.4056 38.1299-50.7019C38.1299-49.4582 38.6584-48.3027 39.5567-47.3972Z" />
</svg>