<svg xmlns="http://www.w3.org/2000/svg" viewBox="12.4609 -95.4942 69.87 120.44">
  <path d="M29.9279-70.2401L64.8171-70.2401C70.7102-70.2401 74.2562-73.8184 74.2562-79.8542L74.2562-85.9163C74.2562-91.9088 70.7102-95.4942 64.8171-95.4942L29.9279-95.4942C24.0419-95.4942 20.533-91.9088 20.533-85.9163L20.533-79.8542C20.533-73.8184 24.0419-70.2401 29.9279-70.2401ZM30.1148-61.037L64.6745-61.037L64.6745-73.7604L30.1148-73.7604ZM29.5363 24.9422L65.2159 24.9422C75.4808 24.9422 82.3283 18.0513 82.3283 7.63579L82.3283-47.1902C82.3283-57.6168 75.4808-64.5148 65.2159-64.5148L29.5363-64.5148C19.3013-64.5148 12.4609-57.6168 12.4609-47.1902L12.4609 7.63579C12.4609 18.0513 19.3013 24.9422 29.5363 24.9422ZM28.6818-16.732L28.6818-22.8595C28.6818-25.2794 30.3004-26.8239 32.6572-26.8239L40.2963-26.8239L40.2963-34.4369C40.2963-36.8679 41.8589-38.4864 44.3088-38.4864L50.4434-38.4864C52.8933-38.4864 54.463-36.8679 54.463-34.4369L54.463-26.8239L62.0508-26.8239C64.4447-26.8239 66.1074-25.2794 66.1074-22.8595L66.1074-16.732C66.1074-14.2821 64.4447-12.6943 62.0508-12.6943L54.463-12.6943L54.463-5.11749C54.463-2.68653 52.8933-1.0609 50.4434-1.0609L44.3088-1.0609C41.8589-1.0609 40.2963-2.68653 40.2963-5.11749L40.2963-12.6943L32.6572-12.6943C30.3004-12.6943 28.6818-14.2821 28.6818-16.732Z"/>
</svg>