<svg xmlns="http://www.w3.org/2000/svg" viewBox="8.72266 -85.4308 120.38 100.41">
  <path d="M68.9333-63.2946C77.6937-63.2946 85.7428-60.3214 92.1901-55.3402C93.3323-54.4765 94.7852-54.5641 95.8469-55.6258L107.525-67.2783C108.81-68.5632 108.755-70.4373 107.372-71.5794C96.9366-80.2445 83.5253-85.4308 68.9333-85.4308C54.3342-85.4308 40.8859-80.2445 30.488-71.5794C29.1045-70.4373 29.0564-68.5632 30.3413-67.2783L41.9827-55.6258C43.0444-54.5641 44.5596-54.4836 45.7641-55.4096C52.2043-60.3214 60.2352-63.2946 68.9333-63.2946ZM8.72266-25.2572C8.72266-10.4213 14.0912 3.16053 22.9631 13.6499C24.0871 14.979 25.932 14.9498 27.1917 13.683L39.0483 1.8122C40.017 0.873435 40.0611-0.449475 39.191-1.531C33.9118-8.25972 30.8959-16.4248 30.8959-25.2572C30.8959-33.9624 33.8321-41.9933 38.788-48.3965C39.6887-49.6009 39.6816-51.098 38.6018-52.1778L26.9122-63.8492C25.6344-65.127 23.7532-65.116 22.6111-63.7325C13.9389-53.2676 8.72266-39.8634 8.72266-25.2572ZM129.1-25.2572C129.1-39.8815 123.902-53.3221 115.164-63.8051C114.058-65.1341 112.195-65.127 110.917-63.8492L99.2578-52.1778C98.1779-51.098 98.1708-49.6009 99.0716-48.3965C104.027-41.9933 106.964-33.9624 106.964-25.2572C106.964-16.4248 103.948-8.25972 98.6314-1.531C97.7984-0.449475 97.8426 0.873435 98.7742 1.8122L110.638 13.683C111.898 14.9498 113.761 14.9427 114.921 13.5955C123.786 3.10606 129.1-10.4395 129.1-25.2572ZM68.7952-3.99804C77.2354-3.99804 85.0855-7.80087 85.0855-16.4747C85.0855-23.8099 79.4344-26.5819 72.4662-28.1759L67.9055-29.2358C63.4715-30.2437 60.4211-31.7963 60.4211-35.1391C60.4211-38.9786 64.5405-40.7797 68.8496-40.7797C72.9154-40.7797 75.9999-39.0986 77.3209-35.6518C78.0679-34.0658 79.2148-33.2266 80.8577-33.2266C82.5016-33.2266 84.1563-34.1644 84.1563-36.1645C84.1563-42.3994 76.368-46.6787 68.7952-46.6787C60.6885-46.6787 53.2322-42.4051 53.2322-34.5388C53.2322-27.2502 59.1602-24.2973 65.4722-22.8714L70.0882-21.8297C74.2831-20.8841 77.9589-19.6303 77.9589-15.7576C77.9589-11.39 73.6447-9.8899 68.9308-9.8899C64.3198-9.8899 61.2292-11.3166 59.6799-15.1102C58.8769-16.7948 57.8768-17.5457 56.2527-17.5457C54.2965-17.5457 52.8263-16.4241 52.8263-14.3938C52.8263-13.7351 52.9983-13.0505 53.2799-12.3358C55.1908-6.72372 61.9285-3.99804 68.7952-3.99804ZM68.8963 1.56736C69.6903 1.56736 70.3779 0.872663 70.3779 0.0786165L70.3779-50.7159C70.3779-51.547 69.6903-52.2346 68.8963-52.2346C68.0652-52.2346 67.4075-51.547 67.4075-50.7159L67.4075 0.0786165C67.4075 0.872663 68.0652 1.56736 68.8963 1.56736Z"/>
</svg>