<svg xmlns="http://www.w3.org/2000/svg" viewBox="8.72266 -86.1618 101.84 101.8">
  <path d="M59.6238 15.6405C87.7463 15.6405 110.562-7.13807 110.562-35.2606C110.562-63.3832 87.7463-86.1618 59.6238-86.1618C31.5382-86.1618 8.72266-63.3832 8.72266-35.2606C8.72266-7.13807 31.5382 15.6405 59.6238 15.6405ZM59.6238 4.47459C37.6599 4.47459 19.9185-13.2968 19.9185-35.2606C19.9185-57.2245 37.6599-74.9959 59.6238-74.9959C81.5876-74.9959 99.359-57.2245 99.359-35.2606C99.359-13.2968 81.5876 4.47459 59.6238 4.47459ZM41.0461-15.1956L78.1644-15.1956C81.1643-15.1956 82.9987-16.8786 82.9987-19.94L82.9987-23.9142C82.9987-26.8297 81.1643-28.5853 78.1644-28.5853L41.0461-28.5853C38.0462-28.5853 36.2118-26.8297 36.2118-23.9142L36.2118-19.94C36.2118-16.8786 38.0462-15.1956 41.0461-15.1956ZM40.0448-34.4307L79.1287-34.4307C81.3654-34.4307 82.8484-35.763 82.8484-37.8271C82.8484-38.7799 82.2876-39.8163 81.427-40.6847L63.4367-59.4707C62.0987-60.7699 60.9953-61.4671 59.5867-61.4671C58.2152-61.4671 57.0748-60.6958 55.7738-59.4707L37.7094-40.6847C36.8488-39.8534 36.3251-38.7799 36.3621-37.8271C36.4733-35.763 37.771-34.4307 40.0448-34.4307Z" />
</svg>