<svg xmlns="http://www.w3.org/2000/svg" viewBox="12.4609 -90.2178 114.14 109.91">
  <path d="M20.301 6.32258L119.29 6.32258L119.29 2.36239C119.29 0.100505 117.925-1.23945 115.644-1.23945L113.037-1.23945L113.037-54.2305L117.155-54.2305C120.395-54.2305 122.293-56.6195 122.293-59.0116C122.293-60.7736 121.28-62.3542 119.195-63.6208L76.3132-88.3407C74.2674-89.5434 71.9581-90.2178 69.7954-90.2178C67.5958-90.2178 65.2793-89.5434 63.2335-88.3407L20.3517-63.6208C18.2372-62.3542 17.2608-60.7736 17.2608-59.0116C17.2608-56.6195 19.1513-54.2305 22.3984-54.2305L26.5538-54.2305L26.5538-1.23945L23.947-1.23945C21.6662-1.23945 20.301 0.100505 20.301 2.36239ZM35.2562-1.23945L35.2562-60.9917L68.2261-79.4418C68.7087-79.7273 69.2797-79.8921 69.7954-79.8921C70.2923-79.8921 70.838-79.7273 71.3207-79.4418L104.372-60.9917L104.372-1.23945ZM17.2602 19.6965L121.785 19.6965C124.372 19.6965 126.603 17.5386 126.603 14.8601C126.603 12.2479 124.372 10.0609 121.785 10.0609L17.2602 10.0609C14.6662 10.0609 12.4609 12.2479 12.4609 14.8601C12.4609 17.5205 14.6662 19.6965 17.2602 19.6965ZM75.6062-15.008C77.1482-15.008 78.9867-15.1247 80.4568-15.5562C82.0246-16.0658 83.2296-16.9453 83.2296-18.7025C83.2296-20.6893 81.7719-21.4922 79.7921-21.4922C78.6216-21.4922 78.161-21.3456 76.79-21.3456C66.49-21.3456 60.6853-26.5187 60.6853-36.3668C60.6853-45.9933 66.3034-51.3517 76.7515-51.3517C78.0271-51.3517 79.0835-51.205 79.8466-51.205C81.8082-51.205 83.2296-52.0631 83.2296-54.0318C83.2296-55.6961 82.2469-56.6796 80.4568-57.2151C79.153-57.5914 77.4801-57.7271 75.6788-57.7271C63.2161-57.7271 53.0847-50.9154 53.0847-36.3486C53.0847-22.7021 62.0758-15.008 75.6062-15.008ZM47.3321-40.3901C47.3321-39.559 48.0016-38.9195 48.8326-38.9195L75.5347-38.9195C76.3587-38.9195 76.9982-39.559 76.9982-40.3901C76.9982-41.2211 76.3587-41.8535 75.5347-41.8535L48.8326-41.8535C48.0016-41.8535 47.3321-41.2211 47.3321-40.3901ZM47.3321-32.277C47.3321-31.4459 48.0016-30.8064 48.8326-30.8064L75.5347-30.8064C76.3587-30.8064 76.9982-31.4459 76.9982-32.277C76.9982-33.0711 76.3587-33.7476 75.5347-33.7476L48.8326-33.7476C48.0016-33.7476 47.3321-33.0711 47.3321-32.277Z"/>
</svg>