<svg xmlns="http://www.w3.org/2000/svg" viewBox="12.4609 -78.5088 119.25 86.64">
  <path d="M12.4609-15.438C12.4609-1.88342 22.4629 8.12635 36.9058 8.12635L107.27 8.12635C121.713 8.12635 131.715-1.88342 131.715-15.438C131.715-19.6073 130.516-23.2962 129.096-26.6639L112.175-65.9043C108.671-74.0984 101.763-78.5088 92.4289-78.5088L51.8199-78.5088C42.449-78.5088 35.5404-74.0984 32.037-65.9043L15.2722-26.9908C13.7971-23.5211 12.4609-19.7525 12.4609-15.438ZM22.7858-15.438C22.7858-23.0846 28.4079-28.6705 36.9058-28.6705L107.27-28.6705C115.768-28.6705 121.397-23.0846 121.397-15.438C121.397-7.12465 115.768-2.23552 107.27-2.23552L36.9058-2.23552C28.4079-2.23552 22.7858-7.82135 22.7858-15.438ZM31.2047-38.089L41.7992-63.588C43.4198-67.5117 46.9841-69.5912 51.7814-69.5912L92.4745-69.5912C97.2277-69.5912 100.792-67.5117 102.413-63.588L113.007-38.0962C111.213-38.6569 109.311-38.9953 107.27-38.9953L36.9058-38.9953C34.8753-38.9953 32.9733-38.6569 31.2047-38.089ZM100.315-15.438C100.315-11.7848 103.29-8.96674 106.885-8.96674C110.374-8.96674 113.349-11.8431 113.349-15.438C113.349-18.9383 110.356-21.9022 106.885-21.9022C103.309-21.9022 100.315-18.9383 100.315-15.438Z"/>
</svg>