<svg xmlns="http://www.w3.org/2000/svg" viewBox="9.96875 -77.323 133.1 84.11">
  <path d="M76.5178 6.78352C116.478 6.78352 143.066-25.3851 143.066-35.2788C143.066-45.1914 116.443-77.323 76.5178-77.323C37.1299-77.323 9.96875-45.1914 9.96875-35.2788C9.96875-25.3851 37.1086 6.78352 76.5178 6.78352ZM76.5359-8.84436C61.9287-8.84436 50.0826-20.6535 50.0826-35.2606C50.0826-49.8678 61.9287-61.6769 76.5359-61.6769C91.1431-61.6769 102.952-49.8678 102.952-35.2606C102.952-20.6535 91.1431-8.84436 76.5359-8.84436ZM76.5359-25.1447C82.1369-25.1447 86.6519-29.6526 86.6519-35.2606C86.6519-40.8687 82.1369-45.3766 76.5359-45.3766C70.9278-45.3766 66.4199-40.8687 66.4199-35.2606C66.4199-29.6526 70.9278-25.1447 76.5359-25.1447Z"/>
</svg>