<svg xmlns="http://www.w3.org/2000/svg" viewBox="9.96875 -82.0961 133.1 92.24">
  <path d="M76.5359-77.323C68.3588-77.323 60.7377-75.893 53.7966-73.6365L67.4684-59.9095C70.2932-61.0602 73.3286-61.6769 76.5359-61.6769C91.1431-61.6769 102.952-49.8678 102.952-35.2606C102.952-32.0533 102.335-29.025 101.185-26.2483L120.24-7.21149C134.65-17.1535 143.066-29.7597 143.066-35.2788C143.066-45.1914 116.443-77.323 76.5359-77.323ZM92.6489-34.7842C93.2147-43.487 85.4972-52.0388 76.0342-51.3989ZM76.5359-19.0317C77.4356-19.0317 78.3171-19.1271 79.1947-19.3061L60.5814-37.9194C60.4095-37.0529 60.307-36.1603 60.307-35.2606C60.307-26.2815 67.5567-19.0317 76.5359-19.0317ZM76.5178 6.78352C85.3921 6.78352 93.637 5.13747 101.084 2.52843L87.2802-11.2576C84.0374-9.66618 80.3482-8.84436 76.5359-8.84436C61.9287-8.84436 50.0826-20.6535 50.0826-35.2606C50.0826-39.11 50.9414-42.7251 52.4959-46.0049L34.2667-64.179C19.0454-54.1084 9.96875-40.9706 9.96875-35.2788C9.96875-25.3851 37.1086 6.78352 76.5178 6.78352ZM115.427 8.49993C116.993 10.0653 119.469 10.1394 121.053 8.49993C122.674 6.82343 122.611 4.43942 121.053 2.88115L37.5862-80.5307C36.035-82.0818 33.4776-82.0961 31.9122-80.5307C30.402-79.0205 30.402-76.415 31.9122-74.9048Z"/>
</svg>