<svg xmlns="http://www.w3.org/2000/svg" viewBox="8.85499 -93.9755 74.81 118.28">
  <path d="M21.7874 19.0356L37.5237 0.307806C39.1145-1.53856 39.3195-2.05199 39.9718-3.92508L40.9369-6.8425L32.0538-17.979L29.583-6.50816L14.1062 11.8678C8.85499 18.0426 17.4558 24.1803 21.7874 19.0356ZM59.6116 17.4266C62.9825 24.3049 73.2175 20.0656 69.5422 12.6045L58.8494-9.05949C58.0907-10.6691 56.9464-12.3853 55.8958-13.9012L49.1938-23.4109L49.6125-24.6616C51.3963-30.1146 52.1307-33.4104 52.4974-38.7702L53.5677-53.9087C54.0843-61.38 49.6517-66.9086 42.1727-66.9086C36.5613-66.9086 32.7275-64.0062 27.6027-59.0431L19.6048-51.162C16.9462-48.6138 16.0494-46.3992 15.782-42.9115L14.8254-30.5034C14.5651-27.2129 16.4557-24.8862 19.5158-24.7687C22.5752-24.5455 24.5028-26.436 24.8072-29.8882L25.9768-43.3412L29.5129-46.5217C30.7313-47.6154 32.4095-46.9168 32.2849-45.5476L31.4379-34.4956C31.0018-28.7471 32.322-25.8849 36.4484-20.7142L47.0347-7.42987C48.0686-6.13962 48.2114-5.64756 48.6586-4.76498ZM78.0738-46.4442L66.1264-46.4442L58.7431-54.616L57.8676-41.1118L60.3002-38.7416C62.1252-37.0074 63.6095-36.4181 66.8092-36.4181L78.0738-36.4181C81.4376-36.4181 83.6657-38.36 83.6657-41.4383C83.6657-44.4543 81.3824-46.4442 78.0738-46.4442ZM48.3365-71.4758C54.5663-71.4758 59.6013-76.5179 59.6013-82.7107C59.6013-88.9334 54.5663-93.9755 48.3365-93.9755C42.1437-93.9755 37.1015-88.9334 37.1015-82.7107C37.1015-76.5179 42.1437-71.4758 48.3365-71.4758Z"/>
</svg>