<svg xmlns="http://www.w3.org/2000/svg" viewBox="8.72266 -86.1618 101.84 101.8">
  <path d="M59.6238 15.6405C87.7463 15.6405 110.562-7.13807 110.562-35.2606C110.562-63.3832 87.7463-86.1618 59.6238-86.1618C31.5382-86.1618 8.72266-63.3832 8.72266-35.2606C8.72266-7.13807 31.5382 15.6405 59.6238 15.6405ZM59.6238 4.47459C37.6599 4.47459 19.9185-13.2968 19.9185-35.2606C19.9185-57.2245 37.6599-74.9959 59.6238-74.9959C81.5876-74.9959 99.359-57.2245 99.359-35.2606C99.359-13.2968 81.5876 4.47459 59.6238 4.47459ZM54.5356-43.1683C57.7028-43.1683 60.3203-45.7377 60.3203-48.9602C60.3203-52.1274 57.7028-54.7079 54.5356-54.7079C51.3502-54.7079 48.7437-52.1274 48.7437-48.9602C48.7437-45.7377 51.3502-43.1683 54.5356-43.1683ZM40.6484-9.13856L56.1142-5.22618C58.3935-4.66544 59.9693-6.36582 59.6578-8.50233L58.2351-18.1913L70.2709-18.1913L79.7865-8.544C80.8638-7.46666 82.6265-7.46666 83.7039-8.544C84.8435-9.60318 84.7812-11.384 83.7039-12.4685L73.5841-22.6434C72.8546-23.3729 72.5321-23.578 71.3412-23.7396L60.3328-24.8319L57.5568-33.2078C57.3991-33.7401 57.7705-34.1816 58.2846-34.0309L78.5682-29.9758C79.9941-29.7266 81.5257-30.4742 81.8301-32.1486C82.0864-33.6439 81.1519-35.0951 79.6825-35.4066L51.6514-41.002C49.1688-41.4894 47.9-41.8269 46.8141-42.8757L41.49-48.1674L41.49-60.0733C41.49-61.6309 40.2329-62.851 38.7194-62.851C37.1436-62.851 35.9417-61.6309 35.9417-60.0733L35.9417-47.4528C35.9417-46.3677 36.0663-45.7193 36.8763-44.8912L42.8967-38.8779C44.1325-37.6603 44.2831-37.2345 44.701-35.9806L52.7576-11.7966L41.9749-14.5252C40.4985-14.8991 39.0103-13.9463 38.6436-12.4881C38.3068-10.9999 39.1719-9.51239 40.6484-9.13856ZM46.5067-59.3188C48.3317-59.3188 49.8893-60.8141 49.8893-62.7014C49.8893-64.5705 48.3317-66.0658 46.5067-66.0658C44.5824-66.0658 43.1241-64.5705 43.1241-62.7014C43.1241-60.8141 44.5824-59.3188 46.5067-59.3188Z" />
</svg>