<svg xmlns="http://www.w3.org/2000/svg" viewBox="8.72266 -86.1618 101.84 101.8">
  <path d="M59.6238 15.6405C87.7463 15.6405 110.562-7.13807 110.562-35.2606C110.562-63.3832 87.7463-86.1618 59.6238-86.1618C31.5382-86.1618 8.72266-63.3832 8.72266-35.2606C8.72266-7.13807 31.5382 15.6405 59.6238 15.6405ZM59.6238 4.47459C37.6599 4.47459 19.9185-13.2968 19.9185-35.2606C19.9185-57.2245 37.6599-74.9959 59.6238-74.9959C81.5876-74.9959 99.359-57.2245 99.359-35.2606C99.359-13.2968 81.5876 4.47459 59.6238 4.47459ZM45.0799-50.7071C48.0855-50.7071 50.5232-53.1629 50.5232-56.1432C50.5232-59.167 48.0855-61.6047 45.0799-61.6047C42.0744-61.6047 39.6185-59.167 39.6185-56.1432C39.6185-53.1629 42.0744-50.7071 45.0799-50.7071ZM76.2016-51.7346C79.2253-51.7346 81.663-54.1905 81.663-57.1889C81.663-60.2315 79.2253-62.6693 76.2016-62.6693C73.2213-62.6693 70.7583-60.2315 70.7583-57.1889C70.7583-54.1905 73.2213-51.7346 76.2016-51.7346ZM30.1194-43.8519L35.4709-43.4339C35.7816-43.4268 36.0134-43.1769 36.0134-42.8109L36.0134-32.9973C36.0134-30.9957 36.6436-29.0013 37.8534-27.4358L44.175-19.3358L40.9668-8.6397C40.5125-7.12623 41.3659-5.55045 42.847-5.12143C44.243-4.72944 45.8369-5.37065 46.3354-7.00873L49.8999-18.9129C49.9622-19.1258 50.0064-19.2764 50.0064-19.4893L59.633-7.29177C60.5676-6.10088 62.4036-5.85876 63.5433-6.81149C64.7893-7.82652 65.0386-9.53401 64.0417-10.773L46.5223-32.9272L47.2959-40.7416C47.3401-41.1934 47.7919-41.4142 48.1814-41.2194L54.2719-38.2053C54.6899-37.9814 55.4557-37.7763 56.1158-37.7763L65.8795-37.7763C66.5467-37.7763 67.206-37.9814 67.6863-38.4175L72.0979-42.2605C72.4503-42.5617 72.9392-42.4111 73.0898-41.9593L75.5321-35.2033L65.1507-32.376C64.0182-32.0645 63.183-31.1047 63.0655-29.9098L61.9102-18.2709C61.7232-16.4278 63.3243-15.2258 64.706-15.2258C66.139-15.2258 67.341-16.259 67.4837-17.7543L68.4521-27.2126L75.4153-28.2693L72.0299-21.4723C71.5937-20.6624 71.3698-19.772 71.7365-18.9068L76.6024-6.79655C77.2254-5.22077 78.9329-4.66714 80.2594-5.22077C81.7035-5.78152 82.407-7.44486 81.8281-8.85187L77.5412-19.5851L83.4267-28.0154C84.9298-30.1858 85.5457-32.9421 85.0726-35.5233L84.1672-40.6092C84.0608-41.1493 84.5126-41.5018 85.0338-41.344L88.0668-40.3393C90.2656-39.6287 91.9841-40.9435 91.7349-43.1794L90.6907-53.8323C90.5409-55.4255 89.126-56.5296 87.6086-56.3498C86.1022-56.2252 84.9224-54.8096 85.0912-53.2534L85.7252-47.0273L78.6498-49.3892C75.6183-50.4049 72.3336-49.8435 69.8517-47.6991L64.8463-43.3869L56.4085-43.3869L48.6278-47.2922C47.418-47.9042 46.2083-48.2157 44.8739-48.3403L34.0809-49.1581L36.0635-55.0507C36.5548-56.583 35.789-58.1581 34.3008-58.6565C32.8496-59.0998 31.2557-58.3268 30.7572-56.8757L27.6279-47.5571C27.012-45.7645 28.2762-43.9947 30.1194-43.8519Z" />
</svg>