<svg xmlns="http://www.w3.org/2000/svg" viewBox="8.72266 -86.1618 101.84 101.8">
  <path d="M59.6238 15.6405C87.7321 15.6405 110.562-7.18932 110.562-35.2606C110.562-63.332 87.7321-86.1618 59.6238-86.1618C31.5524-86.1618 8.72266-63.332 8.72266-35.2606C8.72266-7.18932 31.5524 15.6405 59.6238 15.6405ZM76.6552-41.797C73.3412-41.797 70.577-44.5061 70.577-47.783C70.577-51.1339 73.3412-53.843 76.6552-53.843C79.9873-53.843 82.7152-51.1339 82.7152-47.783C82.7152-44.5061 79.9873-41.797 76.6552-41.797ZM30.0628-24.2182L55.1032-69.7828C56.511-72.305 59.8715-71.3704 59.8715-69.0683L59.8715-38.9824L78.4627-38.9824C80.5377-38.9824 82.5432-38.1543 84.0756-36.6219L91.6063-29.0541C92.7388-27.9216 92.7459-26.3166 91.6063-25.1218L85.1355-18.595C82.5778-16.0373 78.6344-19.9145 81.2473-22.5274L85.8134-27.0935L81.4808-31.3708C80.9824-31.8693 80.1268-31.8953 79.6213-31.3708L68.6245-20.2228L32.1669-20.2228C30.1251-20.2228 28.9602-22.1952 30.0628-24.2182ZM56.0441-24.0683L56.0441-62.6354C56.0441-62.8966 55.7908-62.9731 55.6606-62.7159L34.6562-24.4266C34.5544-24.253 34.5796-24.0683 34.8661-24.0683ZM59.8715-27.3139L65.2401-32.6454C65.5342-32.9766 65.3647-33.4016 64.9026-33.4016L59.8715-33.4016ZM30.0922-10.6183C30.0922-11.6128 30.9328-12.4835 31.9202-12.4835L32.063-12.4835C37.0433-12.4835 38.6845-16.8297 45.8414-16.8297C52.9432-16.8297 54.6396-12.4835 59.5315-12.4835C64.4306-12.4835 66.153-16.8297 73.2658-16.8297C80.3857-16.8297 82.0639-12.4835 86.9701-12.4835L87.0947-12.4835C88.1081-12.4835 88.9417-11.6128 88.9417-10.6183C88.9417-9.62384 88.1081-8.74611 87.0947-8.74611L86.9701-8.74611C79.5269-8.74611 78.0331-13.1594 73.2658-13.1594C68.5678-13.1594 67.0189-8.74611 59.5315-8.74611C52.0883-8.74611 50.5023-13.1594 45.8414-13.1594C41.0741-13.1594 39.5433-8.74611 32.063-8.74611L31.9202-8.74611C30.9328-8.74611 30.0922-9.62384 30.0922-10.6183Z"/>
</svg>