<svg xmlns="http://www.w3.org/2000/svg" viewBox="8.72266 -86.1618 101.84 101.8">
  <path d="M59.6238 15.6405C87.7463 15.6405 110.562-7.13807 110.562-35.2606C110.562-63.3832 87.7463-86.1618 59.6238-86.1618C31.5382-86.1618 8.72266-63.3832 8.72266-35.2606C8.72266-7.13807 31.5382 15.6405 59.6238 15.6405ZM59.6238 4.47459C37.6599 4.47459 19.9185-13.2968 19.9185-35.2606C19.9185-57.2245 37.6599-74.9959 59.6238-74.9959C81.5876-74.9959 99.359-57.2245 99.359-35.2606C99.359-13.2968 81.5876 4.47459 59.6238 4.47459ZM51.4448-49.4268C54.6373-49.4268 57.1996-52.0073 57.1996-55.2186C57.1996-58.3858 54.6373-60.9663 51.4448-60.9663C48.2406-60.9663 45.6601-58.3858 45.6601-55.2186C45.6601-52.0073 48.2406-49.4268 51.4448-49.4268ZM37.6744-29.8062C36.5088-25.4481 39.2833-22.6807 42.7108-22.6807C43.7959-22.6807 44.8993-22.937 46.0026-23.5348L59.9179-30.9235L75.3111-23.2415C77.3049-22.2446 78.9359-23.0175 79.5219-24.3188C80.1449-25.5279 79.7711-27.2834 77.8948-28.2362L61.6995-36.3835C60.578-36.9261 59.3572-36.9702 58.2286-36.4529L48.069-32.0627L50.0681-39.0915C50.4426-40.3532 51.5246-41.186 52.8305-41.186L74.3032-41.186C75.8537-41.186 77.118-42.4431 77.118-44.0189C77.118-45.5505 75.8537-46.8148 74.3032-46.8148L50.9022-46.8148C45.6704-46.8148 41.392-43.7903 40.1894-39.3069ZM36.9837-14.0367L82.241-14.0367C83.2426-14.0367 84.0573-14.8514 84.0573-15.89C84.0573-16.9098 83.2426-17.7063 82.241-17.7063L36.9837-17.7063C35.9821-17.7063 35.1674-16.9098 35.1674-15.89C35.1674-14.8514 35.9821-14.0367 36.9837-14.0367Z" />
</svg>