<svg xmlns="http://www.w3.org/2000/svg" viewBox="8.72266 -86.1618 101.84 101.8">
  <path d="M59.6238 15.6405C87.7321 15.6405 110.562-7.18932 110.562-35.2606C110.562-63.332 87.7321-86.1618 59.6238-86.1618C31.5524-86.1618 8.72266-63.332 8.72266-35.2606C8.72266-7.18932 31.5524 15.6405 59.6238 15.6405ZM78.4626-47.7689C75.0935-47.7689 72.3844-50.478 72.3844-53.8542C72.3844-57.15 75.0935-59.8401 78.4626-59.8401C81.7836-59.8401 84.4927-57.15 84.4927-53.8542C84.4927-50.478 81.7836-47.7689 78.4626-47.7689ZM30.7584-19.6985C28.6297-19.1748 27.2479-20.5747 27.0058-22.0369C26.7937-23.3635 27.5153-24.8439 29.3955-25.2981L46.8207-29.6972L46.8207-35.9723C46.8207-38.6553 48.8177-39.7879 51.3028-39.2524L62.7-36.9645L70.4373-42.7625C72.3253-44.2144 74.6676-44.9802 77.0911-44.9802L79.5154-44.9802C81.6337-44.9802 83.5581-43.8035 84.5297-41.8422L89.2599-32.4479C89.4468-32.056 89.5344-31.6017 89.5344-31.1103L89.5344-20.2019C89.5344-18.4905 88.3585-17.3516 86.647-17.3516C84.9427-17.3516 83.6856-18.4905 83.6856-20.2019L83.6856-30.4439L80.8647-36.1913C80.6596-36.6274 80.1715-36.6826 79.8159-36.4152L70.0503-29.0329C68.2498-27.6686 66.1678-26.7892 64.0376-26.4406L52.6325-24.7869L52.6325-20.2019C52.6325-18.6151 51.302-17.3516 49.7081-17.3516C48.1213-17.3516 46.8207-18.6151 46.8207-20.2019L46.8207-23.7174ZM52.6325-30.9519L56.1733-31.8509L52.6325-32.846ZM64.6187-17.3516C62.2102-17.3516 60.3229-19.2499 60.3229-21.6285C60.3229-24.0001 62.2102-25.8874 64.6187-25.8874L76.3688-25.8874C78.7032-25.8874 80.6205-24.0001 80.6205-21.6285C80.6205-19.2499 78.7032-17.3516 76.3688-17.3516ZM76.3616-19.8785C77.3096-19.8785 78.1117-20.6805 78.1117-21.6285C78.1117-22.5765 77.3096-23.3305 76.3616-23.3305C75.4137-23.3305 74.6045-22.5765 74.6045-21.6285C74.6045-20.6805 75.4137-19.8785 76.3616-19.8785Z"/>
</svg>