<svg xmlns="http://www.w3.org/2000/svg" viewBox="8.72266 -86.1618 101.84 101.8">
  <path d="M59.6238 15.6405C87.7321 15.6405 110.562-7.18932 110.562-35.2606C110.562-63.332 87.7321-86.1618 59.6238-86.1618C31.5524-86.1618 8.72266-63.332 8.72266-35.2606C8.72266-7.18932 31.5524 15.6405 59.6238 15.6405ZM33.8306-59.2004C32.8298-59.2004 32.0411-60.0104 32.0411-61.0159C32.0411-62.0097 32.8369-62.8497 33.8306-62.8497L36.6627-62.8497C35.8698-61.815 35.4785-60.4419 35.4832-59.2004ZM47.7382-59.2004L45.9062-61.9393C45.6908-62.2541 45.5266-62.5286 45.2095-62.8497L75.2029-62.8497C74.9804-62.6012 74.791-62.3124 74.5614-61.9393L72.6805-59.2004ZM84.9654-59.2004C85.0624-60.516 84.5977-61.8891 83.823-62.8497L86.2685-62.8497C87.2252-62.8497 88.0652-62.0097 88.0652-61.0159C88.0652-60.0104 87.2324-59.2004 86.2685-59.2004ZM60.4392-44.6735C57.1253-44.6735 54.4091-47.3644 54.4091-50.7036C54.4091-54.0104 57.1253-56.7447 60.4392-56.7447C63.7642-56.7447 66.4622-54.0104 66.4622-50.7036C66.4622-47.3644 63.7642-44.6735 60.4392-44.6735ZM46.5709-21.3467L38.3195-31.2558L30.5302-23.5288C29.4418-22.4956 27.7051-22.3339 26.3857-23.5288C25.1979-24.6866 25.1979-26.4785 26.3857-27.7285L36.2161-37.6031C37.5103-38.9407 39.3716-38.8161 40.6035-37.8082L48.5244-30.9101L51.5417-35.4849C52.5177-36.9836 52.1102-37.5028 51.5417-38.3466L38.5053-57.8609C37.5779-59.2608 37.9147-61.115 39.2964-62.0354C40.6963-62.9439 42.5253-62.5772 43.4709-61.1773L54.0396-45.26C55.5868-42.9209 58.0631-41.835 60.4392-41.835C62.6726-41.835 64.7813-42.7593 66.0652-44.6922L76.9967-61.1773C77.9423-62.5772 79.8335-62.9439 81.1893-62.0354C82.5458-61.115 82.963-59.2608 82.0174-57.8609L58.0379-21.9445C55.2918-17.9082 49.903-17.3104 46.5709-21.3467ZM52.2746-1.73603C51.4464-0.434738 49.6364 0.0124456 48.2176-0.877977L36.9481-8.34235C35.5482-9.26981 35.2366-11.2045 36.157-12.4687L42.6591-22.0597L44.6229-19.7402C45.7191-18.4208 47.0016-17.4492 48.2886-16.8845L43.1085-11.3914L51.4464-5.79227C52.9016-4.86553 53.2202-3.13594 52.2746-1.73603Z"/>
</svg>