<svg xmlns="http://www.w3.org/2000/svg" viewBox="11.5673 -87.4477 99.27 104.41">
  <path d="M14.5331-54.7974C14.5331-47.4738 20.962-40.2979 27.4067-40.2979C33.1072-40.2979 36.139-45.2551 38.9789-54.0203L40.4676-54.2008L40.4676-45.1165C40.4676-40.8931 42.7256-38.6099 46.9048-38.6099C54.1543-38.6099 61.3302-44.9836 61.3302-51.4472C61.3302-57.1729 56.3918-60.1354 47.6014-62.9824L47.4209-64.4781L56.4863-64.4781C60.7427-64.4781 63.0111-66.718 63.0111-70.8972C63.0111-78.1656 56.6444-85.3344 50.1816-85.3344C44.4188-85.3344 41.4674-80.4024 38.6275-71.5931L37.1207-71.4685L37.1207-80.5339C37.1207-84.7644 34.8627-87.0476 30.7205-87.0476C23.408-87.0476 16.2321-80.6368 16.2321-74.2292C16.2321-68.4664 21.2335-65.5403 30.0538-62.6751L30.1532-61.1723L21.0831-61.1723C16.8826-61.1723 14.5331-58.8843 14.5331-54.7974ZM38.7689-57.9425C36.0645-57.9425 33.8586-60.1484 33.8586-62.8528C33.8586-65.5572 36.0645-67.7631 38.7689-67.7631C41.4732-67.7631 43.6792-65.5572 43.6792-62.8528C43.6792-60.1484 41.4732-57.9425 38.7689-57.9425ZM96.9085-59.472C104.674-59.472 110.84-65.9037 110.84-73.3608C110.84-81.1405 104.674-87.4477 96.9085-87.4477C89.1469-87.4477 82.9825-81.1405 82.9825-73.3608C82.9825-65.7814 89.1469-59.472 96.9085-59.472ZM14.428 14.0618C17.2335 16.9627 21.9414 16.7434 25.3739 13.2052L47.2133-9.36698C47.9895-10.1802 48.5605-10.3308 49.7333-9.88357L66.3626-3.61679C77.3213 0.499321 88.444-3.52917 93.4635-12.6604L104.009-31.8558C108.366-39.7854 106.949-47.7384 99.4836-51.7947C92.2498-55.8218 84.7043-52.8311 80.3294-44.8133L66.1418-18.9596L54.2069-23.343C47.8916-25.6651 42.5724-24.9142 37.5506-19.6944L14.9005 3.83049C11.5673 7.30642 11.8899 11.5048 14.428 14.0618Z"/>
</svg>