<svg xmlns="http://www.w3.org/2000/svg" viewBox="8.72266 -86.0994 101.84 101.8">
  <path d="M59.6238 15.7028C87.7321 15.7028 110.562-7.12702 110.562-35.1983C110.562-63.2697 87.7321-86.0994 59.6238-86.0994C31.5524-86.0994 8.72266-63.2697 8.72266-35.1983C8.72266-7.12702 31.5524 15.7028 59.6238 15.7028ZM29.5683-22.4503C29.1297-27.1405 31.1842-32.1532 34.4744-35.2126C31.1842-38.316 29.0556-43.3224 29.5683-48.0189C29.6487-49.0885 30.4343-49.7376 31.5914-49.7195C36.9669-49.6579 41.5073-47.1579 45.449-42.6626C48.5603-45.7036 51.968-47.7809 55.6692-49.1808C55.2922-51.2319 54.5966-52.7232 52.7079-55.1947C51.8056-56.4234 51.9452-57.4559 53.0518-57.9829C61.9644-62.9009 74.4536-58.5855 77.3656-49.0925C85.3107-46.3874 92.4056-41.3422 92.4056-35.2126C92.4056-28.8975 84.9376-23.7585 76.7361-21.1591C73.3913-16.3444 67.0995-12.2253 61.4195-11.3199C59.193-10.9571 58.0596-12.1378 58.3057-14.0748L59.0683-20.2254C54.1739-21.391 49.5311-23.8169 45.449-27.7262C41.5073-23.223 36.9669-20.805 31.5914-20.7056C30.4343-20.7056 29.6487-21.2814 29.5683-22.4503ZM80.1298-33.547C81.6156-33.547 82.7528-34.7023 82.7528-36.2252C82.7528-37.7109 81.6156-38.8552 80.1298-38.8552C78.6323-38.8552 77.4769-37.7109 77.4769-36.2252C77.4769-34.7023 78.6323-33.547 80.1298-33.547Z"/>
</svg>