<svg xmlns="http://www.w3.org/2000/svg" viewBox="12.4609 -90.2178 114.14 109.91">
  <path d="M20.301 13.1002L119.29 13.1002L119.29 6.09598C119.29 3.84119 117.925 2.49413 115.644 2.49413L113.037 2.49413L113.037-54.2305L117.155-54.2305C120.395-54.2305 122.293-56.6195 122.293-59.0116C122.293-60.7736 121.28-62.3542 119.195-63.6208L76.3132-88.3407C74.2674-89.5434 71.9581-90.2178 69.7954-90.2178C67.5958-90.2178 65.2793-89.5434 63.2335-88.3407L20.3517-63.6208C18.2372-62.3542 17.2608-60.7736 17.2608-59.0116C17.2608-56.6195 19.1513-54.2305 22.3984-54.2305L26.5538-54.2305L26.5538 2.49413L23.947 2.49413C21.6662 2.49413 20.301 3.84119 20.301 6.09598ZM17.2602 19.6965L121.785 19.6965C124.372 19.6965 126.603 17.5386 126.603 14.8601C126.603 12.2479 124.372 10.0609 121.785 10.0609L17.2602 10.0609C14.6662 10.0609 12.4609 12.2479 12.4609 14.8601C12.4609 17.5205 14.6662 19.6965 17.2602 19.6965ZM57.5483-8.17458C55.6663-8.17458 53.5952-8.39635 52.0486-9.2049C50.7664-9.86505 50.0172-10.7043 50.0172-12.0748C50.0172-13.5159 50.839-14.4473 52.3067-14.5926C53.8742-14.647 54.6473-14.4759 56.5685-14.4759C61.1858-14.4759 63.2237-16.8939 63.9934-21.4047L65.3198-29.2669L56.5882-29.2669C55.1757-29.2669 54.1701-30.2101 54.1701-31.5493C54.1701-32.8443 55.1757-33.8136 56.5882-33.8136L66.0423-33.8136L67.2559-41.0363C68.652-49.283 73.3454-53.1702 81.6362-53.1702C83.2641-53.1702 85.463-52.8814 86.9522-52.1683C88.1596-51.5822 89.1303-50.6098 89.1303-49.2699C89.1303-47.8804 88.4901-47.1769 87.2758-46.9031C86.0204-46.667 84.618-46.8688 82.5719-46.8688C78.0736-46.8688 75.8584-44.6385 75.0958-40.2576L73.98-33.8136L83.4301-33.8136C84.8726-33.8136 85.8963-32.8443 85.8963-31.5493C85.8963-30.2101 84.8726-29.2669 83.4301-29.2669L73.2946-29.2669L71.7662-20.4337C70.4073-12.1241 66.0496-8.17458 57.5483-8.17458Z"/>
</svg>