<svg xmlns="http://www.w3.org/2000/svg" viewBox="8.72266 -90.3787 111.28 110.24">
  <path d="M64.3651 12.847C65.4313 12.847 66.5346 12.8029 67.6008 12.7335L70.1804 17.641C70.9786 19.157 72.4165 19.7951 74.0059 19.5426C75.6875 19.2824 76.6891 18.1087 76.9305 16.4389L77.7562 10.996C79.8887 10.358 81.8705 9.59932 83.8571 8.75704L87.9342 12.4532C89.1347 13.6104 90.7705 13.7318 92.1808 12.9407C93.6574 12.1125 94.2299 10.6675 93.8892 8.99771L92.7324 3.5989C94.5021 2.30872 96.1582 0.934908 97.7118-0.545353L102.813 1.52156C104.41 2.17703 105.928 1.7519 107.017 0.484374C108.086-0.776042 108.148-2.33139 107.27-3.74806L104.318-8.46395C105.535-10.2746 106.608-12.1248 107.572-14.0814L113.077-13.8645C114.791-13.8093 116.1-14.6706 116.65-16.2536C117.262-17.7996 116.803-19.2926 115.448-20.3322L111.073-23.7375C111.601-25.7934 111.959-27.9188 112.201-30.1136L117.465-31.8162C119.098-32.336 120-33.5972 120-35.2606C120-36.9241 119.098-38.1853 117.465-38.7051L112.201-40.4006C111.959-42.5954 111.608-44.7279 111.073-46.7909L115.441-50.1527C116.814-51.1924 117.156-52.7217 116.662-54.2929C116.1-55.913 114.74-56.6504 113.066-56.6134L107.554-56.4951C106.608-58.4336 105.535-60.2837 104.318-62.0944L107.281-66.7369C108.178-68.1536 108.017-69.7452 107.028-71.0199C105.921-72.3355 104.414-72.6367 102.82-72.0065L97.6936-69.9759C96.1582-71.5003 94.465-72.867 92.7324-74.1202L93.9184-79.4937C94.2773-81.1778 93.625-82.6085 92.2036-83.4438C90.7634-84.3154 89.1892-84.063 87.9594-82.9382L83.82-79.2783C81.8705-80.1648 79.8445-80.8793 77.7373-81.5172L76.9668-86.9531C76.7436-88.63 75.6551-89.7414 74.0358-90.0639C72.3723-90.3787 71.026-89.6349 70.2167-88.1512L67.5937-83.2548C66.5346-83.3242 65.4313-83.3683 64.3651-83.3683C63.2989-83.3683 62.2255-83.3242 61.1223-83.2548L58.5498-88.1623C57.7516-89.6783 56.3437-90.3164 54.7173-90.0639C53.0357-89.8037 52.034-88.6229 51.7926-86.9602L50.9669-81.5172C48.8715-80.8793 46.8455-80.1206 44.896-79.2712L40.826-82.9745C39.5884-84.1316 37.9967-84.2531 36.5494-83.462C35.0658-82.6338 34.5373-81.1817 34.871-79.519L35.9836-74.076C34.2211-72.8229 32.572-71.4562 31.0113-69.9318L25.9098-72.0429C24.3575-72.6983 22.795-72.2732 21.7436-71.0057C20.6441-69.7452 20.5889-68.1828 21.4905-66.7732L24.4051-62.0573C23.2182-60.2467 22.115-58.3965 21.1512-56.4399L15.683-56.6568C13.9761-56.7191 12.6668-55.8507 12.11-54.2677C11.4979-52.7217 11.9783-51.2287 13.2892-50.189L17.6502-46.7838C17.1155-44.7207 16.7637-42.5954 16.5216-40.4006L11.2656-38.7051C9.63207-38.1853 8.72266-36.9241 8.72266-35.2606C8.72266-33.5972 9.63207-32.336 11.2656-31.8162L16.5216-30.1136C16.7637-27.9188 17.1155-25.7934 17.6502-23.7375L13.2892-20.3615C11.9601-19.3218 11.5674-17.7925 12.0982-16.2284C12.674-14.6083 13.9761-13.8709 15.657-13.9079L21.1694-14.0333C22.115-12.0877 23.2182-10.2447 24.4051-8.42691L21.4865-3.78437C20.5526-2.3606 20.7136-0.731894 21.7319 0.498586C22.8021 1.8142 24.3393 2.11546 25.9027 1.48525L31.0295-0.589501C32.5649 0.971951 34.2581 2.33865 35.9765 3.5918L34.8418 8.97956C34.49 10.6565 35.0981 12.0943 36.5195 12.9296C38.0038 13.7941 39.5339 13.5559 40.8007 12.424L44.9402 8.75704C46.8526 9.63636 48.9085 10.358 50.9787 10.996L51.7563 16.4318C51.9795 18.1087 53.1051 19.2201 54.6873 19.5426C56.3508 19.8574 57.6971 19.1207 58.5135 17.6299L61.1223 12.7335C62.2255 12.8029 63.2989 12.847 64.3651 12.847ZM64.3651 2.39858C43.5603 2.39858 26.7059-14.4629 26.7059-35.2606C26.7059-56.0584 43.5603-72.9199 64.3651-72.9199C85.1628-72.9199 102.024-56.0584 102.024-35.2606C102.024-14.4629 85.1628 2.39858 64.3651 2.39858ZM54.3728-43.3789L61.892-48.0285L46.4071-74.6782L38.4848-70.6203ZM76.4592-30.9044L107.439-30.9044L107.439-39.7859L76.4774-39.7859ZM61.8747-22.4022L54.488-27.2648L37.9841-0.122725L45.7849 4.08898ZM64.3793-21.0016C72.2419-21.0016 78.6312-27.398 78.6312-35.2606C78.6312-43.1233 72.2419-49.5197 64.3793-49.5197C56.5096-49.5197 50.1574-43.1233 50.1574-35.2606C50.1574-27.398 56.5096-21.0016 64.3793-21.0016ZM64.3793-29.6922C61.3064-29.6922 58.8109-32.1948 58.8109-35.2606C58.8109-38.3265 61.3064-40.8291 64.3793-40.8291C67.4451-40.8291 69.9407-38.3265 69.9407-35.2606C69.9407-32.1948 67.4451-29.6922 64.3793-29.6922Z"/>
</svg>