<svg xmlns="http://www.w3.org/2000/svg" viewBox="8.72266 -80.8054 183.08 91.16">
  <path d="M100.255 10.3568C125.446 10.3568 145.836-10.0334 145.836-35.2243C145.836-60.4153 125.446-80.8054 100.255-80.8054C75.101-80.8054 54.7108-60.4153 54.7108-35.2243C54.7108-10.0334 75.101 10.3568 100.255 10.3568ZM43.1337-15.9484C44.7582-17.9831 44.1613-20.428 42.5155-22.722C40.0155-25.9323 38.5374-30.6401 38.5374-35.2606C38.5374-39.8812 40.0155-44.589 42.5155-47.8175C44.1432-50.1115 44.7582-52.5382 43.1337-54.5729C41.3301-56.7307 37.8938-56.8333 35.6893-54.2702C31.552-49.3628 29.2532-42.559 29.2532-35.2606C29.2532-27.9623 31.552-21.1585 35.6893-16.2693C37.8938-13.7061 41.3301-13.7905 43.1337-15.9484ZM28.4645-1.92434C30.1687-3.98432 29.6513-6.53246 27.7003-8.69719C21.4897-15.6269 18.014-24.9859 18.014-35.2606C18.014-45.5172 21.4534-54.8763 27.7003-61.8059C29.6695-63.9707 30.1869-66.5188 28.4645-68.5788C26.6324-70.7484 23.4462-70.9411 21.0397-68.332C13.2149-59.9348 8.72266-47.9407 8.72266-35.2606C8.72266-22.5442 12.997-10.6954 21.0397-2.17113C23.4825 0.419767 26.6506 0.263463 28.4645-1.92434ZM157.395-15.9121C159.191-13.7542 162.628-13.6698 164.839-16.233C168.977-21.1222 171.275-27.926 171.275-35.2243C171.275-42.5227 168.977-49.3265 164.839-54.2339C162.628-56.797 159.191-56.6944 157.395-54.5366C155.726-52.5019 156.385-50.0752 158.013-47.7811C160.506-44.5527 161.984-39.8449 161.984-35.2243C161.984-30.6037 160.506-25.896 158.013-22.6857C156.367-20.3917 155.726-17.9468 157.395-15.9121ZM172.057-1.88803C173.878 0.299776 177.039 0.45608 179.489-2.13481C187.524-10.6591 191.806-22.5079 191.806-35.2243C191.806-47.9044 187.307-59.8985 179.489-68.2957C177.075-70.9047 173.896-70.7121 172.057-68.5425C170.342-66.4825 170.859-63.9344 172.821-61.7696C179.075-54.84 182.515-45.4809 182.515-35.2243C182.515-24.9496 179.039-15.5906 172.821-8.66088C170.877-6.49615 170.36-3.948 172.057-1.88803ZM100.181-34.7516C92.7275-34.7516 86.6456-37.7621 83.032-45.3596C83.7377-45.7506 84.7013-45.9792 85.7128-45.9792L86.0252-45.9792L86.0252-47.8804C86.0252-55.8339 91.941-61.5785 100.181-61.5785C108.391-61.5785 114.299-55.8339 114.299-47.8804L114.299-45.9792L114.619-45.9792C115.678-45.9792 116.594-45.7506 117.355-45.3596C113.704-37.7621 107.604-34.7516 100.181-34.7516ZM90.623-45.9792L109.709-45.9792L109.709-47.8804C109.709-53.1425 105.728-56.9579 100.181-56.9579C94.6513-56.9579 90.623-53.1425 90.623-47.8804ZM77.0933-23.3343L79.0201-39.5371C79.1077-40.538 79.3814-41.3717 79.7931-42.1218C83.5313-35.3493 88.9849-31.8695 95.4224-30.7014L95.4224-29.4674C95.4224-27.6958 96.3121-26.7067 98.176-26.7067L102.167-26.7067C104.012-26.7067 104.946-27.6958 104.946-29.4674L104.946-30.7014C111.365-31.8695 116.829-35.3493 120.557-42.1218C120.957-41.3717 121.242-40.5562 121.337-39.5371L123.231-23.3343C123.898-17.5912 120.975-14.0237 115.558-14.0237L84.7919-14.0237C79.3745-14.0237 76.4521-17.5912 77.0933-23.3343Z" />
</svg>