<svg xmlns="http://www.w3.org/2000/svg" viewBox="8.72266 -80.8054 183.08 91.16">
  <path d="M100.255 10.3568C125.446 10.3568 145.836-10.0334 145.836-35.2243C145.836-60.4153 125.446-80.8054 100.255-80.8054C75.101-80.8054 54.7108-60.4153 54.7108-35.2243C54.7108-10.0334 75.101 10.3568 100.255 10.3568ZM43.1337-15.9484C44.7582-17.9831 44.1613-20.428 42.5155-22.722C40.0155-25.9323 38.5374-30.6401 38.5374-35.2606C38.5374-39.8812 40.0155-44.589 42.5155-47.8175C44.1432-50.1115 44.7582-52.5382 43.1337-54.5729C41.3301-56.7307 37.8938-56.8333 35.6893-54.2702C31.552-49.3628 29.2532-42.559 29.2532-35.2606C29.2532-27.9623 31.552-21.1585 35.6893-16.2693C37.8938-13.7061 41.3301-13.7905 43.1337-15.9484ZM28.4645-1.92434C30.1687-3.98432 29.6513-6.53246 27.7003-8.69719C21.4897-15.6269 18.014-24.9859 18.014-35.2606C18.014-45.5172 21.4534-54.8763 27.7003-61.8059C29.6695-63.9707 30.1869-66.5188 28.4645-68.5788C26.6324-70.7484 23.4462-70.9411 21.0397-68.332C13.2149-59.9348 8.72266-47.9407 8.72266-35.2606C8.72266-22.5442 12.997-10.6954 21.0397-2.17113C23.4825 0.419767 26.6506 0.263463 28.4645-1.92434ZM157.395-15.9121C159.191-13.7542 162.628-13.6698 164.839-16.233C168.977-21.1222 171.275-27.926 171.275-35.2243C171.275-42.5227 168.977-49.3265 164.839-54.2339C162.628-56.797 159.191-56.6944 157.395-54.5366C155.726-52.5019 156.385-50.0752 158.013-47.7811C160.506-44.5527 161.984-39.8449 161.984-35.2243C161.984-30.6037 160.506-25.896 158.013-22.6857C156.367-20.3917 155.726-17.9468 157.395-15.9121ZM172.057-1.88803C173.878 0.299776 177.039 0.45608 179.489-2.13481C187.524-10.6591 191.806-22.5079 191.806-35.2243C191.806-47.9044 187.307-59.8985 179.489-68.2957C177.075-70.9047 173.896-70.7121 172.057-68.5425C170.342-66.4825 170.859-63.9344 172.821-61.7696C179.075-54.84 182.515-45.4809 182.515-35.2243C182.515-24.9496 179.039-15.5906 172.821-8.66088C170.877-6.49615 170.36-3.948 172.057-1.88803ZM76.5869-35.2749C76.5869-50.497 86.099-60.7244 100.31-60.7244C114.576-60.7244 124.181-50.4788 124.181-35.2749C124.181-27.0926 122.19-20.9841 118.8-14.9911C117.893-13.4492 116.196-12.9138 114.594-13.588C113.386-12.3207 111.61-11.8831 109.646-12.4777C106.663-13.2734 105.276-15.7719 106.109-18.6993L109.237-29.4955C110.069-32.4781 112.652-33.9134 115.55-33.0625C116.373-32.8275 117.06-32.4379 117.648-31.9932C117.724-33.0256 117.749-34.1573 117.749-35.2749C117.749-46.6563 110.805-54.312 100.31-54.312C89.8892-54.312 82.9993-46.7115 82.9993-35.2749C82.9993-34.1573 83.0064-33.0808 83.1128-32.0484C83.6452-32.4931 84.321-32.8275 85.0883-33.0625C88.0599-33.9134 90.6064-32.4781 91.4755-29.4955L94.5483-18.7545C95.4174-15.8271 94.0049-13.2734 91.0222-12.4777C89.1027-11.8279 87.2889-12.3207 86.0562-13.588C84.4798-12.9138 82.7827-13.4674 81.9128-14.9911C78.5333-20.7633 76.5869-26.9459 76.5869-35.2749Z" />
</svg>