<svg xmlns="http://www.w3.org/2000/svg" viewBox="7.39526 -74.2842 146.69 78.04">
  <path d="M80.7238-4.76089C90.0349-4.76089 101.141-1.6858 109.311 2.41817C111.999 3.75583 114.982 3.33318 116.827 0.987296L150.308-41.6011C154.082-46.4137 153.438-51.6682 148.706-55.3553C134.666-66.2661 108.132-74.2842 80.7238-74.2842C53.3459-74.2842 26.8186-66.2661 12.7718-55.3553C8.03968-51.6682 7.39526-46.4137 11.1699-41.6011L44.6508 0.987296C46.4951 3.33318 49.479 3.75583 52.1293 2.41817C60.337-1.6858 71.4427-4.76089 80.7238-4.76089ZM80.7238-15.0786C71.8596-15.0786 61.4892-12.7496 51.9822-8.86004C50.9137-8.44133 50.3506-8.56745 49.547-9.58389L21.4987-45.2128C20.7205-46.2481 20.8593-47.278 21.9316-47.994C38.1009-58.1461 59.041-63.9594 80.7238-63.9594C102.437-63.9594 123.384-58.1461 139.509-47.994C140.599-47.278 140.738-46.2481 139.942-45.2128L111.949-9.60204C111.09-8.56745 110.545-8.42317 109.458-8.86004C99.9955-12.7496 89.5809-15.0786 80.7238-15.0786ZM24.6218-30.7755L52.4063-30.7755C54.1753-30.7755 55.1748-31.6525 55.9011-33.211L58.3241-38.5246L65.8835-22.159C67.1155-19.523 70.6775-19.523 71.9946-22.3064L80.7238-41.5632L89.4529-22.3064C90.763-19.523 94.3139-19.5412 95.5641-22.1771L103.123-38.5246L105.539-33.211C106.266-31.6525 107.272-30.7755 109.041-30.7755L137.719-30.7755C139.91-30.7755 141.73-32.5658 141.73-34.786C141.73-37.0133 139.947-38.7965 137.719-38.7965L111.498-38.7965L106.601-49.3085C105.107-52.5154 101.077-52.4602 99.6318-49.456L92.4888-34.1281L83.7849-53.3706C82.4678-56.1793 78.9798-56.1793 77.6556-53.3706L68.9517-34.1281L61.8158-49.456C60.363-52.4602 56.3405-52.5154 54.8396-49.3085L49.9866-38.7965L24.6218-38.7965C22.4016-38.7965 20.6113-37.0133 20.6113-34.786C20.6113-32.5658 22.4016-30.7755 24.6218-30.7755Z"/>
</svg>