<svg xmlns="http://www.w3.org/2000/svg" viewBox="8.72266 -86.0994 101.84 101.8">
  <path d="M59.6238 15.7028C87.7321 15.7028 110.562-7.12702 110.562-35.1983C110.562-63.2697 87.7321-86.0994 59.6238-86.0994C31.5524-86.0994 8.72266-63.2697 8.72266-35.1983C8.72266-7.12702 31.5524 15.7028 59.6238 15.7028ZM38.2395-33.9191C35.7724-31.9401 33.1632-35.1756 35.3355-36.8707L56.6321-54.0263C57.5556-54.77 58.6055-55.1502 59.6238-55.1502C60.6602-55.1502 61.7653-54.733 62.6518-54.0263L83.9302-36.8707C86.0954-35.1503 83.4933-31.9401 81.0191-33.9191L60.5633-50.2805C60.3006-50.499 59.9228-50.6237 59.6238-50.6237C59.3429-50.6237 58.9651-50.499 58.7024-50.2805ZM42.941-20.4159C40.1095-20.4159 38.3973-22.0683 38.3973-24.8752L38.3973-30.9778C39.224-31.2223 39.9213-31.6419 40.8032-32.2817L59.6238-47.3675L78.4365-32.2817C79.3191-31.6419 80.0346-31.2223 80.8613-30.9778L80.8613-24.8752C80.8613-22.0683 79.138-20.4159 76.3247-20.4159ZM54.5092-24.5144L64.7564-24.5144L64.7564-32.6066C64.7564-33.418 64.2352-33.9464 63.3543-33.9464L55.9413-33.9464C55.0676-33.9464 54.5021-33.418 54.5021-32.6066ZM33.5406-39.1647C31.3953-37.4714 31.2928-35.2054 32.1581-33.4411L24.9352-33.4411C22.8198-33.4411 22.1746-35.8389 23.6615-36.8825L35.9452-45.5423C36.633-46.0218 37.428-46.2703 38.2453-46.2703L42.4125-46.2522ZM35.5197-24.8752C35.5197-23.1826 35.9669-21.677 36.8306-20.4159L30.9625-20.4159C28.0641-20.4159 26.3818-22.0683 26.3818-24.8752L26.3818-30.6235L35.5197-30.6424ZM85.718-39.1647L76.8461-46.2522L81.0133-46.2703C81.8676-46.2703 82.6327-46.0218 83.3134-45.5423L95.5782-36.8825C97.121-35.7648 96.4569-33.4411 94.3557-33.4411L87.0823-33.4411C87.9657-35.2054 87.8451-37.4966 85.718-39.1647ZM83.757-24.8752L83.757-30.6424L92.902-30.6235L92.902-24.8752C92.902-22.0683 91.2016-20.4159 88.285-20.4159L82.428-20.4159C83.2917-21.677 83.757-23.1826 83.757-24.8752Z"/>
</svg>