<svg xmlns="http://www.w3.org/2000/svg" viewBox="12.4609 -88.4403 84.95 106.42">
  <path d="M58.5055-35.2606L75.4639-35.2606C77.996-35.2606 79.0709-36.2725 79.0709-38.7747L79.0709-66.5429C79.0709-69.0822 77.996-70.0941 75.4639-70.0941L58.5055-70.0941C55.9734-70.0941 54.9355-69.0822 54.9355-66.5429L54.9355-38.7747C54.9355-36.2725 55.9734-35.2606 58.5055-35.2606ZM12.4609 1.44481C12.4609 12.2686 18.139 17.9837 28.8517 17.9837L80.9823 17.9837C91.702 17.9837 97.41 12.2686 97.41 1.44481L97.41-71.9014C97.41-82.6881 91.702-88.4403 80.9823-88.4403L28.8517-88.4403C18.139-88.4403 12.4609-82.6881 12.4609-71.9014ZM23.3305 0.521307L23.3305-70.9779C23.3305-75.2546 25.4999-77.5707 29.9974-77.5707L79.8735-77.5707C84.3341-77.5707 86.5106-75.2546 86.5106-70.9779L86.5106 0.521307C86.5106 4.79809 84.3341 7.11419 79.8735 7.11419L29.9974 7.11419C25.4999 7.11419 23.3305 4.79809 23.3305 0.521307Z"/>
</svg>