<svg xmlns="http://www.w3.org/2000/svg" viewBox="12.4609 -62.7142 101.01 55.06">
  <path d="M17.3474-7.65802L108.547-7.65802C111.297-7.65802 113.471-9.95184 113.471-12.6723C113.471-15.4401 111.315-17.6865 108.547-17.6865L17.3474-17.6865C14.6348-17.6865 12.4609-15.4037 12.4609-12.6723C12.4609-9.98816 14.6529-7.65802 17.3474-7.65802ZM17.3474-30.1809L108.547-30.1809C111.297-30.1809 113.471-32.4819 113.471-35.1952C113.471-37.963 111.315-40.2094 108.547-40.2094L17.3474-40.2094C14.6348-40.2094 12.4609-37.9267 12.4609-35.1952C12.4609-32.5182 14.6529-30.1809 17.3474-30.1809ZM17.3474-52.7227L108.547-52.7227C111.297-52.7227 113.471-55.0237 113.471-57.6999C113.471-60.4677 111.315-62.7142 108.547-62.7142L17.3474-62.7142C14.6348-62.7142 12.4609-60.4314 12.4609-57.6999C12.4609-55.06 14.6529-52.7227 17.3474-52.7227Z" />
</svg>