<svg xmlns="http://www.w3.org/2000/svg" viewBox="12.4609 -80.504 116.78 90.52">
  <path d="M51.234 10.019L90.4641 10.019C119.259 10.019 129.244-0.315314 129.244-27.8349L129.244-42.6501C129.244-70.1697 119.259-80.504 90.4641-80.504L51.234-80.504C22.4462-80.504 12.4609-70.1697 12.4609-42.6501L12.4609-27.8349C12.4609-0.315314 22.4462 10.019 51.234 10.019ZM41.7049-14.43C39.4075-14.43 38.0558-15.9237 38.0558-18.307L38.0558-50.2206C38.0558-53.8327 40.2261-55.9115 43.8193-55.9115C46.8563-55.9115 48.8233-54.5741 49.5283-51.3445L55.4642-26.2475L55.6109-26.2475L61.4767-51.3445C62.1636-54.4533 63.9949-55.9115 67.2181-55.9115C70.8301-55.9115 73.0297-53.8957 73.0297-50.2206L73.0297-18.307C73.0297-15.9237 71.7339-14.43 69.3695-14.43C67.0162-14.43 65.7315-15.9095 65.7315-18.307L65.7315-43.4153L65.4776-43.4153L59.5234-18.9222C58.9729-16.5892 57.8018-15.2226 55.607-15.2226C53.3214-15.2226 52.0755-16.676 51.5802-18.867L45.6449-43.4153L45.3287-43.4153L45.3287-18.307C45.3287-15.9166 43.977-14.43 41.7049-14.43ZM91.6446-14.221C86.1571-14.221 81.0469-16.7226 79.5911-21.3583C79.3418-22.1982 79.2101-23.0981 79.2101-24.0524C79.2101-26.2401 80.6644-27.6092 82.912-27.6092C84.7276-27.6092 85.9208-26.6699 86.5344-24.8173C87.1432-22.7801 88.5731-20.6895 91.6336-20.6895C94.9617-20.6895 96.5049-23.5035 96.5049-26.5547C96.5049-30.5241 94.4719-32.6747 90.5405-32.6747L89.576-32.6747C87.6058-32.6747 86.4884-33.7678 86.4884-35.5674C86.4884-37.3671 87.6026-38.5232 89.576-38.5232L90.46-38.5232C93.9995-38.5232 95.6736-41.1544 95.6736-44.4122C95.6736-47.3427 94.3701-49.7837 91.4577-49.7837C88.9434-49.7837 87.5996-47.9175 86.901-45.3767C86.3719-43.5123 85.0476-42.8593 83.2669-42.8593C80.9403-42.8593 79.841-44.4595 79.841-46.1708C79.841-47.0557 79.9585-47.9461 80.2148-48.8585C81.6525-53.3958 86.2731-56.2081 91.4214-56.2081C98.2363-56.2081 103.343-52.2552 103.343-45.2931C103.343-40.8819 100.904-37.0247 96.8047-35.9381L96.8047-35.7401C101.121-35.2677 104.52-32.0235 104.52-26.147C104.52-18.744 99.0603-14.221 91.6446-14.221Z"/>
</svg>