<svg xmlns="http://www.w3.org/2000/svg" viewBox="12.4609 -91.5679 103.82 112.5">
  <path d="M31.6809 20.9362L97.0956 20.9362C109.063 20.9362 116.278 13.7644 116.278 1.90144L116.278-43.0412C116.278-54.9341 109.063-62.1059 97.0956-62.1059L31.6809-62.1059C19.6768-62.1059 12.4609-54.9341 12.4609-43.0412L12.4609 1.90144C12.4609 13.7644 19.6768 20.9362 31.6809 20.9362ZM32.6044 10.0667C26.7239 10.0667 23.3305 6.63617 23.3305 0.762792L23.3305-41.8955C23.3305-47.8059 26.7239-51.2435 32.6044-51.2435L96.1721-51.2435C102.016-51.2435 105.409-47.8059 105.409-41.8955L105.409 0.762792C105.409 6.63617 102.016 10.0667 96.1721 10.0667ZM34.7212-35.7967C37.047-35.7967 38.8988-37.7297 38.8988-39.9625C38.8988-42.2654 37.047-44.1842 34.7212-44.1842C32.363-44.1842 30.5112-42.2654 30.5112-39.9625C30.5112-37.7297 32.363-35.7967 34.7212-35.7967ZM47.9314-35.7967C50.2091-35.7967 52.1161-37.7226 52.1161-39.9625C52.1161-42.2654 50.2091-44.1842 47.9314-44.1842C45.5622-44.1842 43.6733-42.2654 43.6733-39.9625C43.6733-37.7226 45.5622-35.7967 47.9314-35.7967ZM61.0934-35.8109C63.4263-35.8109 65.3152-37.7226 65.3152-39.9625C65.3152-42.2654 63.4263-44.1842 61.0934-44.1842C58.7723-44.1842 56.8724-42.2654 56.8724-39.9625C56.8724-37.7226 58.7723-35.8109 61.0934-35.8109ZM38.2596-85.3576L90.5169-85.3576C91.916-85.3576 93.2228-85.2661 94.4934-85.0208C93.0629-89.163 89.3624-91.5679 84.0997-91.5679L44.6397-91.5679C39.3589-91.5679 35.6513-89.163 34.2208-85.0208C35.5166-85.2661 36.8534-85.3576 38.2596-85.3576ZM31.6809-70.1121L97.0956-70.1121C99.5763-70.1121 101.984-69.8361 104.177-69.2763C102.202-74.649 97.3903-77.7192 90.5169-77.7192L38.2596-77.7192C31.3492-77.7192 26.5305-74.649 24.5557-69.2763C26.7415-69.8361 29.1261-70.1121 31.6809-70.1121Z"/>
</svg>