<svg xmlns="http://www.w3.org/2000/svg" viewBox="12.4609 -81.4356 94.09 92.39">
  <path d="M16.8361-52.5968L43.6285-52.5968C46.0491-52.5968 48.0036-54.5513 48.0036-56.972C48.0036-59.3997 46.0491-61.3471 43.6285-61.3471L16.8361-61.3471C14.4154-61.3471 12.4609-59.3997 12.4609-56.972C12.4609-54.5513 14.4154-52.5968 16.8361-52.5968ZM31.4805 10.9513C33.4902 10.9513 34.682 10.1516 36.2081 7.92504L64.3194-33.8891L91.2262-73.7194C92.0149-74.8339 92.4141-75.879 92.4141-77.0786C92.4141-79.5908 90.3003-81.4356 87.7558-81.4356C85.4834-81.4356 84.3169-80.6554 82.7166-78.3107L55.4413-37.655L27.7719 3.15399C27.0014 4.23216 26.5652 5.22988 26.5652 6.6189C26.5652 9.27848 28.8494 10.9513 31.4805 10.9513ZM71.0193-10.5885C71.0193-8.16788 72.9667-6.21338 75.3573-6.21338L84.4249-6.21338L84.4249 2.83529C84.4249 5.25591 86.3723 7.21041 88.8 7.21041C91.1836 7.21041 93.1381 5.25591 93.1381 2.83529L93.1381-6.21338L102.18-6.21338C104.607-6.21338 106.555-8.16788 106.555-10.5885C106.555-13.0162 104.607-14.9636 102.18-14.9636L93.1381-14.9636L93.1381-23.9941C93.1381-26.4148 91.1466-28.3504 88.8-28.3322C86.3353-28.3322 84.4249-26.3777 84.4249-23.9941L84.4249-14.9636L75.3573-14.9636C72.9667-14.9636 71.0193-13.0162 71.0193-10.5885Z"/>
</svg>