<svg xmlns="http://www.w3.org/2000/svg" viewBox="8.72266 -96.2365 101.84 111.88">
  <path d="M49.534-91.5071L49.534-67.9338C49.534-64.232 52.4815-63.2777 55.2211-65.2746L71.1988-76.9047C73.3303-78.4701 73.3674-80.9519 71.1988-82.4991L55.2582-94.1844C52.4815-96.2365 49.534-95.2641 49.534-91.5071ZM59.6238 15.6405C87.7463 15.6405 110.562-7.15622 110.562-35.2606C110.562-50.8327 103.383-65.091 91.6634-74.4936C88.8152-77.0274 85.1696-76.5993 83.2842-74.137C81.2236-71.5152 82.0526-68.3016 84.5213-65.969C93.6173-58.6463 99.359-47.7792 99.359-35.2606C99.359-13.2968 81.5876 4.47459 59.6238 4.47459C37.6599 4.47459 19.9185-13.2968 19.9185-35.2606C19.9185-57.2245 37.6599-74.9959 59.6672-74.9959C62.7608-74.9959 65.2501-77.5066 65.2501-80.5788C65.2501-83.6511 62.7978-86.1247 59.7042-86.1618C31.5012-86.1247 8.72266-63.3832 8.72266-35.2606C8.72266-7.15622 31.5382 15.6405 59.6238 15.6405ZM41.5989-30.2445L77.7227-30.2445C80.7534-30.2445 82.9491-32.1502 82.9491-35.136C82.9491-38.1731 80.8346-40.1159 77.7227-40.1159L41.5989-40.1159C38.45-40.1159 36.3355-38.1731 36.3355-35.136C36.3355-32.1502 38.5312-30.2445 41.5989-30.2445Z" />
</svg>