<svg xmlns="http://www.w3.org/2000/svg" viewBox="12.4609 -93.8711 87.96 117.35">
  <path d="M28.9998 23.4744L84.9587 23.4744C94.7154 23.4744 100.423 17.7522 100.423 7.05371L100.423-48.0973C100.423-58.7958 94.6783-64.4881 83.8845-64.4881L28.9998-64.4881C18.2131-64.4881 12.4609-58.81 12.4609-48.0973L12.4609 7.05371C12.4609 17.7664 18.2131 23.4744 28.9998 23.4744ZM23.3379-72.143L88.9654-72.143C88.3087-76.9748 85.7777-79.7739 80.3046-79.7739L32.0059-79.7739C26.5256-79.7739 24.0388-76.9748 23.3379-72.143ZM31.6587-86.8363L80.6447-86.8363C80.3142-91.3914 77.5325-93.8711 72.6384-93.8711L39.665-93.8711C34.7779-93.8711 32.0262-91.3914 31.6587-86.8363ZM71.6712-27.4695L58.9935-24.4339C57.9699-24.2028 57.6018-23.7353 57.6018-21.89L57.6018-4.40424C57.6018 3.56923 52.2105 9.20032 44.3033 9.20032C38.7234 9.20032 35.0655 5.81298 35.0655 0.997252C35.0655-4.207 39.0054-7.3957 44.3371-8.76889L49.2709-10.0402C51.8387-10.7815 51.9964-11.0906 51.9964-13.3578L51.9964-36.7269C51.9964-40.022 52.6266-40.7027 55.4777-41.3731L71.3501-45.3235C74.2966-46.0932 75.3252-45.1073 75.3252-42.7333L75.3252-32.1086C75.3252-28.9011 74.4522-28.121 71.6712-27.4695Z"/>
</svg>