<svg xmlns="http://www.w3.org/2000/svg" viewBox="8.72266 -90.3087 110.06 110.1">
  <path d="M63.7707 19.7946C94.0201 19.7946 118.782-4.96711 118.782-35.2606C118.782-65.5471 94.0201-90.3087 63.7707-90.3087C33.4843-90.3087 8.72266-65.5471 8.72266-35.2606C8.72266-4.96711 33.4843 19.7946 63.7707 19.7946ZM63.7707 0.909656C43.7759 0.909656 27.6004-15.2658 27.6004-35.2606C27.6004-55.2555 43.7759-71.4309 63.7707-71.4309C83.7286-71.4309 99.904-55.2555 99.904-35.2606C99.904-15.2658 83.7286 0.909656 63.7707 0.909656ZM51.5548-13.2371C53.7318-13.2371 55.045-14.6347 55.045-16.837L55.045-45.3176L55.2903-45.3176L68.6611-16.8252C69.6438-14.6016 71.271-13.2371 73.7785-13.2371C76.8394-13.2371 78.5726-15.2576 78.5726-17.8229L78.5726-53.8294C78.5726-56.0434 77.3035-57.3741 75.1194-57.3741C72.9243-57.3741 71.6552-56.0616 71.6552-53.8294L71.6552-25.2053L71.3729-25.2053L57.995-53.7671C57.0675-55.985 55.4285-57.3741 52.8776-57.3741C50.1384-57.3741 48.0907-55.6311 48.0907-52.8064L48.0907-16.837C48.0907-14.6347 49.4038-13.2371 51.5548-13.2371ZM43.8926-35.3387C43.8926-34.4706 44.5503-33.7759 45.4184-33.7759L81.4453-33.7759C82.3063-33.7759 83.001-34.4706 83.001-35.3387C83.001-36.1698 82.3063-36.8645 81.4453-36.8645L45.4184-36.8645C44.5503-36.8645 43.8926-36.1698 43.8926-35.3387Z" />
</svg>