<svg xmlns="http://www.w3.org/2000/svg" viewBox="12.4609 -81.2571 115.99 92.1">
  <path d="M28.9998 10.8462L111.915 10.8462C122.739 10.8462 128.454 5.11683 128.454-5.58162L128.454-64.8293C128.454-75.5277 122.739-81.2571 111.915-81.2571L28.9998-81.2571C18.2131-81.2571 12.4609-75.5419 12.4609-64.8293L12.4609-5.58162C12.4609 5.13104 18.2131 10.8462 28.9998 10.8462ZM41.1761-15.3489C38.6665-15.3489 37.0852-17.0161 37.0852-19.7117L37.0852-46.79L36.7682-46.79L31.8201-43.5707C30.7793-42.9013 30.2918-42.7838 29.5892-42.7838C27.977-42.7838 26.6819-44.0906 26.6819-45.7485C26.6819-46.8929 27.1797-47.7984 28.332-48.5137L35.5409-53.4134C37.6781-54.8053 38.7759-55.3409 40.776-55.3409C43.5602-55.3409 45.2608-53.7225 45.2608-50.9464L45.2608-19.7117C45.2608-16.9791 43.7346-15.3489 41.1761-15.3489ZM55.7539-16.0382C53.4636-16.0201 52.0147-17.3735 52.0147-19.5306C52.0147-20.7619 52.6528-21.8796 53.6302-22.8584L66.8684-36.1914C69.2795-38.7096 71.4634-41.017 71.4634-43.6586C71.4634-46.6585 69.0929-48.7096 65.5851-48.7096C62.0648-48.7096 60.063-46.4686 59.1051-44.0772C58.3316-42.5699 57.2652-41.6324 55.4275-41.6324C53.3761-41.6324 52.0227-42.9747 52.0227-44.9709C52.0227-45.646 52.1213-46.2028 52.3129-46.8968C53.7237-51.8426 59.2869-55.2754 65.4536-55.2754C73.7179-55.2754 79.1479-50.8834 79.1479-44.1608C79.1479-39.7465 76.5283-36.2417 72.6376-32.3496L63.3812-22.9273L63.3812-22.7514L77.3028-22.7585C79.3399-22.7585 80.8006-21.3783 80.8006-19.3893C80.8006-17.4365 79.3471-16.0201 77.3028-16.0382ZM98.5359-15.2937C91.649-15.2937 86.0149-18.4962 84.6559-23.2688C84.4658-23.9841 84.3743-24.4338 84.3743-25.0986C84.3743-27.1713 85.7616-28.6202 87.9446-28.6202C89.6655-28.6202 90.6829-27.9073 91.5403-26.2953C92.6167-23.5702 95.1387-21.9613 98.6826-21.9613C102.944-21.9613 105.751-24.1434 105.751-27.3838C105.751-30.6533 103.054-32.7698 98.7915-32.7698L96.3666-32.7698C94.5108-32.7698 93.1747-34.0695 93.1747-35.9008C93.1747-37.7503 94.525-38.9759 96.3666-38.9759L98.6188-38.9759C102.249-38.9759 104.748-41.1153 104.748-44.1048C104.748-47.0085 102.412-48.8634 98.8048-48.8634C95.4674-48.8634 93.0322-47.1812 92.0843-44.4094C91.3436-42.8078 90.2789-42.1138 88.5068-42.1138C86.4554-42.1138 85.0161-43.5003 85.0161-45.3979C85.0161-46.2015 85.1147-46.7388 85.323-47.4754C86.7829-52.304 92.2319-55.3669 98.8607-55.3669C106.913-55.3669 112.468-51.0838 112.468-45.0032C112.468-40.4732 109.173-36.7122 105.101-36.2352L105.101-36.1587C110.086-35.7314 113.798-31.9295 113.798-26.9444C113.798-19.8978 107.676-15.2937 98.5359-15.2937Z"/>
</svg>