<svg xmlns="http://www.w3.org/2000/svg" viewBox="8.72266 -86.1618 101.84 101.8">
  <path d="M59.6238 15.6405C87.7463 15.6405 110.562-7.13807 110.562-35.2606C110.562-63.3832 87.7463-86.1618 59.6238-86.1618C31.5382-86.1618 8.72266-63.3832 8.72266-35.2606C8.72266-7.13807 31.5382 15.6405 59.6238 15.6405ZM59.6238 4.47459C37.6599 4.47459 19.9185-13.2968 19.9185-35.2606C19.9185-57.2245 37.6599-74.9959 59.6238-74.9959C81.5876-74.9959 99.359-57.2245 99.359-35.2606C99.359-13.2968 81.5876 4.47459 59.6238 4.47459ZM45.5854-15.9485L50.8392-15.9485C53.4135-15.9485 54.707-17.3926 54.707-19.5174L54.707-51.0299C54.707-53.1547 53.4135-54.5988 50.8392-54.5988L45.5854-54.5988C43.0554-54.5988 41.7618-53.1547 41.7618-51.0299L41.7618-19.5174C41.7618-17.3926 43.0554-15.9485 45.5854-15.9485ZM68.4012-15.9485L73.692-15.9485C76.178-15.9485 77.4786-17.3926 77.4786-19.5174L77.4786-51.0299C77.4786-53.1547 76.178-54.5988 73.692-54.5988L68.4012-54.5988C65.8711-54.5988 64.5406-53.1547 64.5406-51.0299L64.5406-19.5174C64.5406-17.3926 65.8711-15.9485 68.4012-15.9485Z" />
</svg>