<svg xmlns="http://www.w3.org/2000/svg" viewBox="7.33814 -85.8774 100.01 100.03">
  <path d="M73.6523-58.3157C73.6523-70.2543 64.5923-79.5792 53.8275-79.5792C47.2434-79.5792 41.3086-75.9606 37.7108-70.476L66.558-41.6548C70.8588-45.5737 73.6523-51.511 73.6523-58.3157ZM12.4609 1.80002C12.4609 6.31071 15.8729 9.02867 21.5223 9.02867L86.0971 9.02867C86.5041 9.02867 86.8668 9.02157 87.1926 8.97742L50.3932-27.8109C27.056-26.3793 12.4609-10.1229 12.4609 1.80002ZM100.166 12.6027C101.725 14.1499 104.282 14.131 105.785 12.5657C107.31 11.0003 107.351 8.50517 105.785 6.9469L14.5294-84.305C12.9711-85.8632 10.4279-85.8774 8.84831-84.305C7.33814-82.8019 7.33814-80.1892 8.84831-78.6862Z"/>
</svg>