<svg xmlns="http://www.w3.org/2000/svg" viewBox="12.4609 -81.2752 92.07 92.1">
  <path d="M28.9998 10.828L87.9882 10.828C98.812 10.828 104.527 5.09867 104.527-5.59978L104.527-64.8474C104.527-75.5459 98.812-81.2752 87.9882-81.2752L28.9998-81.2752C18.2131-81.2752 12.4609-75.5601 12.4609-64.8474L12.4609-5.59978C12.4609 5.11288 18.2131 10.828 28.9998 10.828ZM29.9233-0.0785673C25.6466-0.0785673 23.3305-2.24796 23.3305-6.70849L23.3305-63.7387C23.3305-68.2363 25.6466-70.3686 29.9233-70.3686L87.0647-70.3686C91.3131-70.3686 93.6576-68.2363 93.6576-63.7387L93.6576-6.70849C93.6576-2.24796 91.3131-0.0785673 87.0647-0.0785673ZM48.9091-13.2891C51.2328-13.2891 52.7023-14.7215 52.7023-17.0816L52.7023-27.418L60.701-27.418C69.6005-27.418 75.4341-33.5223 75.4341-42.2395C75.4341-50.9272 69.6172-56.7983 61.0222-56.7983L49.0733-56.7983C46.5972-56.7983 45.1348-55.3359 45.1348-52.8528L45.1348-17.0816C45.1348-14.7215 46.6043-13.2891 48.9091-13.2891ZM52.7023-33.1891L52.7023-50.9617L59.0581-50.9617C64.3567-50.9617 67.753-47.9615 67.753-42.2214C67.753-36.4826 64.5262-33.1891 58.9847-33.1891ZM40.695-42.4279C40.695-41.5345 41.3345-40.932 42.2279-40.932L77.8745-40.932C78.7309-40.932 79.4074-41.5715 79.4074-42.4279C79.4074-43.2661 78.7309-43.8985 77.8745-43.8985L42.2279-43.8985C41.3345-43.8985 40.695-43.2661 40.695-42.4279Z" />
</svg>