<svg xmlns="http://www.w3.org/2000/svg" viewBox="8.22786 -88.5186 106.28 106.3">
  <path d="M19.119 6.86874C30.0471 17.7851 45.9273 17.5551 57.6889 5.78641L102.527-39.0142C114.306-50.7939 114.511-66.6489 103.62-77.6023C92.6918-88.5186 76.7816-88.2586 65.0571-76.527L20.2194-31.7264C8.43975-19.9097 8.22786-4.08465 19.119 6.86874ZM26.1162-0.0543933C19.0237-7.08136 20.1872-16.8301 27.7174-24.3902L72.3492-69.0291C79.7964-76.5063 89.5744-77.6872 96.6298-70.6492C103.729-63.6041 102.64-53.8806 95.0467-46.2945L50.4149-1.6745C42.9677 5.78381 33.1826 6.98363 26.1162-0.0543933ZM42.6067-47.3794L72.6248-17.3975L79.5249-24.1879L49.4152-54.2605Z"/>
</svg>