<svg xmlns="http://www.w3.org/2000/svg" viewBox="12.4609 -86.5415 133.79 96.78">
  <path d="M28.9998 10.2373L109.612 10.2373C119.361 10.2373 125.076 3.81129 125.076-6.88715L125.076-17.4641L88.1329-17.4641C73.4069-17.4641 64.3896-26.3789 64.3896-40.8413L64.3896-53.5133L22.1401-53.5133L22.1401-56.5755C22.1401-59.7849 24.4038-61.7963 28.1937-61.7963L64.3896-61.7963L64.3896-68.6587C64.3896-70.4385 64.553-72.2475 64.6438-73.4289C63.6184-73.447 62.8893-73.4652 61.8269-73.4833C59.1118-73.6467 57.3683-74.4401 55.1941-76.2318L52.9196-78.0924C49.3419-80.9776 46.7765-81.9058 41.4793-81.9058L27.7188-81.9058C18.2218-81.9058 12.4609-76.2845 12.4609-65.7005L12.4609-6.19046C12.4609 4.5222 18.2131 10.2373 28.9998 10.2373ZM88.1329-24.9408L129.988-24.9408C140.612-24.9408 146.255-30.521 146.255-41.0592L146.255-70.4231C146.255-80.9542 140.612-86.5415 129.988-86.5415L88.1329-86.5415C77.4654-86.5415 71.8663-80.9542 71.8663-70.4231L71.8663-41.0592C71.8663-30.521 77.4654-24.9408 88.1329-24.9408ZM109.055-39.528C106.9-39.528 105.5-40.9351 105.5-43.0946L105.5-52.1713L96.4594-52.1713C94.3141-52.1713 92.8746-53.5714 92.8746-55.7191C92.8746-57.911 94.2778-59.311 96.4594-59.311L105.5-59.311L105.5-68.3261C105.5-70.4344 106.9-71.9109 109.055-71.9109C111.239-71.9109 112.639-70.4707 112.639-68.3261L112.639-59.311L121.691-59.311C123.813-59.311 125.265-57.911 125.265-55.7191C125.265-53.5714 123.813-52.1713 121.691-52.1713L112.639-52.1713L112.639-43.0946C112.639-40.9351 111.239-39.528 109.055-39.528Z"/>
</svg>