<svg xmlns="http://www.w3.org/2000/svg" viewBox="8.72266 -82.8655 127.75 95.21">
  <path d="M105-30.6778L84.3326-30.6778C81.8169-30.6778 79.805-32.7267 79.805-35.2606C79.805-37.7946 81.8169-39.8253 84.3326-39.8253L105-39.8253C107.534-39.8253 109.583-37.7946 109.583-35.2606C109.583-32.7267 107.534-30.6778 105-30.6778ZM50.6468-18.9471C48.1129-18.9471 46.1192-20.996 46.1192-23.4929L46.1192-30.6778L38.9343-30.6778C36.4003-30.6778 34.3514-32.7267 34.3514-35.2606C34.3514-37.7946 36.4003-39.8253 38.9343-39.8253L46.1192-39.8253L46.1192-47.0537C46.1192-49.5506 48.1311-51.5995 50.665-51.5995C53.1808-51.5995 55.2297-49.5506 55.2297-47.0537L55.2297-39.8253L62.458-39.8253C64.9809-39.8253 66.9857-37.7946 66.9857-35.2606C66.9857-32.7267 64.9738-30.6778 62.458-30.6778L55.2297-30.6778L55.2297-23.4929C55.2297-20.9889 53.1808-18.9471 50.6468-18.9471ZM8.72266-35.2606C8.72266-6.56487 28.4398 12.3442 58.1579 12.3442L87.0493 12.3442C116.73 12.3442 136.477-6.56487 136.477-35.2606C136.477-63.9564 116.73-82.8655 87.0493-82.8655L58.1579-82.8655C28.4398-82.8655 8.72266-63.9564 8.72266-35.2606Z"/>
</svg>