<svg xmlns="http://www.w3.org/2000/svg" viewBox="12.4609 -88.4399 107.59 106.5">
  <path d="M28.9998-5.61379L42.5493-5.61379L42.5493-16.4833L29.9233-16.4833C25.6466-16.4833 23.3305-18.6527 23.3305-23.1503L23.3305-70.9034C23.3305-75.401 25.6466-77.5704 29.9233-77.5704L77.8246-77.5704C82.073-77.5704 84.4175-75.401 84.4175-70.9034L84.4175-60.3575L95.287-60.3575L95.287-72.0491C95.287-82.7476 89.5349-88.4399 78.7481-88.4399L28.9998-88.4399C18.1761-88.4399 12.4609-82.7618 12.4609-72.0491L12.4609-22.0045C12.4609-11.2919 18.1761-5.61379 28.9998-5.61379ZM53.765 18.0574L103.513 18.0574C114.3 18.0574 120.052 12.3651 120.052 1.66667L120.052-48.3779C120.052-59.0764 114.3-64.7687 103.513-64.7687L53.765-64.7687C42.9412-64.7687 37.2261-59.0906 37.2261-48.3779L37.2261 1.66667C37.2261 12.3793 42.9412 18.0574 53.765 18.0574ZM54.6885 7.18789C50.4118 7.18789 48.0956 5.01849 48.0956 0.520919L48.0956-47.2322C48.0956-51.7298 50.4118-53.8992 54.6885-53.8992L102.59-53.8992C106.838-53.8992 109.183-51.7298 109.183-47.2322L109.183 0.520919C109.183 5.01849 106.838 7.18789 102.59 7.18789ZM83.5748-5.77437L83.5748-40.981C83.5748-43.8778 81.484-45.9182 78.595-45.9182C75.7573-45.9182 73.7035-43.8707 73.7035-40.981L73.7035-5.77437C73.7035-2.92886 75.7573-0.874286 78.595-0.874286C81.484-0.874286 83.5748-2.92175 83.5748-5.77437ZM61.0508-18.4641L96.2575-18.4641C99.1101-18.4641 101.158-20.518 101.158-23.3556C101.158-26.2446 99.1172-28.3355 96.2575-28.3355L61.0508-28.3355C58.1611-28.3355 56.1507-26.2446 56.1507-23.3556C56.1507-20.518 58.1682-18.4641 61.0508-18.4641Z"/>
</svg>