<svg xmlns="http://www.w3.org/2000/svg" viewBox="12.4609 -81.2428 92.07 92.1">
  <path d="M12.4609-55.1417L23.3305-55.1417L23.3305-63.7063C23.3305-68.1669 25.6466-70.3363 29.9233-70.3363L38.4139-70.3363L38.4139-81.2428L28.9998-81.2428C18.2131-81.2428 12.4609-75.5277 12.4609-64.8151ZM45.8906-70.3363L71.1345-70.3363L71.1345-81.2428L45.8906-81.2428ZM93.6576-55.1417L104.527-55.1417L104.527-64.8151C104.527-75.5135 98.7749-81.2428 87.9882-81.2428L78.6112-81.2428L78.6112-70.3363L87.0647-70.3363C91.3131-70.3363 93.6576-68.1669 93.6576-63.7063ZM93.6576-22.7104L104.527-22.7104L104.527-47.665L93.6576-47.665ZM78.6112 10.8604L87.9882 10.8604C98.7749 10.8604 104.527 5.13104 104.527-5.56741L104.527-15.2408L93.6576-15.2408L93.6576-6.67612C93.6576-2.17855 91.3131-0.0461991 87.0647-0.0461991L78.6112-0.0461991ZM45.8906 10.8604L71.1345 10.8604L71.1345-0.0461991L45.8906-0.0461991ZM28.9998 10.8604L38.4139 10.8604L38.4139-0.0461991L29.9233-0.0461991C25.6466-0.0461991 23.3305-2.17855 23.3305-6.67612L23.3305-15.2408L12.4609-15.2408L12.4609-5.56741C12.4609 5.14525 18.2131 10.8604 28.9998 10.8604ZM12.4609-22.7104L23.3305-22.7104L23.3305-47.665L12.4609-47.665ZM63.4482-17.6794L63.4482-52.8932C63.4482-55.7828 61.3573-57.8232 58.4684-57.8232C55.6307-57.8232 53.5769-55.7757 53.5769-52.8932L53.5769-17.6794C53.5769-14.8339 55.6307-12.7864 58.4684-12.7864C61.3573-12.7864 63.4482-14.8268 63.4482-17.6794ZM40.9242-30.3691L76.1009-30.3691C78.9464-30.3691 80.9939-32.423 80.9939-35.2606C80.9939-38.1496 78.9535-40.2405 76.1009-40.2405L40.9242-40.2405C38.0345-40.2405 35.9942-38.1496 35.9942-35.2606C35.9942-32.423 38.0416-30.3691 40.9242-30.3691Z" />
</svg>