<svg xmlns="http://www.w3.org/2000/svg" viewBox="12.4609 -81.2428 95.32 92.1">
  <path d="M28.9998 10.8604L91.252 10.8604C102.076 10.8604 107.784 5.13104 107.784-5.56741L107.784-64.8151C107.784-75.5135 102.076-81.2428 91.252-81.2428L28.9998-81.2428C18.2131-81.2428 12.4609-75.5277 12.4609-64.8151L12.4609-5.56741C12.4609 5.14525 18.2131 10.8604 28.9998 10.8604ZM29.9233-0.0461991C25.6466-0.0461991 23.3305-2.17855 23.3305-6.67612L23.3305-63.7063C23.3305-68.1669 25.6466-70.3363 29.9233-70.3363L90.3285-70.3363C94.5698-70.3363 96.9214-68.1669 96.9214-63.7063L96.9214-6.67612C96.9214-2.17855 94.5698-0.0461991 90.3285-0.0461991ZM58.2164-40.4643L61.9913-40.4643C64.0201-40.4643 65.3815-41.8258 65.3815-43.8545L65.3815-57.2742C65.3815-59.2848 64.0019-60.6644 61.9913-60.6644L58.2164-60.6644C56.25-60.6644 54.8704-59.2848 54.8704-57.2742L54.8704-43.8545C54.8704-41.8258 56.2318-40.4643 58.2164-40.4643ZM37.7695-12.1857L49.9279-12.1857C51.9566-12.1857 53.318-13.5471 53.318-15.5759L53.318-19.3547C53.318-21.3172 51.9384-22.6968 49.9279-22.6968L37.7695-22.6968C35.796-22.6968 34.4093-21.3101 34.4093-19.3547L34.4093-15.5759C34.4093-13.5471 35.7707-12.1857 37.7695-12.1857ZM70.3169-12.1857L82.5005-12.1857C84.4812-12.1857 85.8608-13.5653 85.8608-15.5759L85.8608-19.3547C85.8608-21.3101 84.4559-22.6968 82.5005-22.6968L70.3169-22.6968C68.3064-22.6968 66.9267-21.3172 66.9267-19.3547L66.9267-15.5759C66.9267-13.5471 68.2882-12.1857 70.3169-12.1857Z"/>
</svg>