<svg xmlns="http://www.w3.org/2000/svg" viewBox="12.4609 -81.2428 95.32 92.1">
  <path d="M28.9998 10.8604L91.252 10.8604C102.076 10.8604 107.784 5.13104 107.784-5.56741L107.784-64.8151C107.784-75.5135 102.076-81.2428 91.252-81.2428L28.9998-81.2428C18.2131-81.2428 12.4609-75.5277 12.4609-64.8151L12.4609-5.56741C12.4609 5.14525 18.2131 10.8604 28.9998 10.8604ZM58.143-9.85956C56.0417-9.85956 54.5958-11.2755 54.5958-13.395L54.5958-27.7291C54.5958-29.8565 56.067-31.3276 58.143-31.3276L62.101-31.3276C64.2212-31.3276 65.7105-29.8565 65.7105-27.7291L65.7105-13.395C65.7105-11.2314 64.2394-9.85956 62.101-9.85956ZM34.2988-39.7635C32.7906-41.2898 32.8159-43.3021 34.3359-44.7961L45.4735-55.9377C46.9896-57.4829 49.0019-57.4647 50.4919-55.9566L53.3198-53.154C54.8098-51.6087 54.835-49.5933 53.345-48.0844L42.1521-36.9538C40.6258-35.4086 38.6349-35.3904 37.1267-36.9538ZM83.1252-36.9609C81.6099-35.3904 79.619-35.4157 78.0926-36.9609L66.9069-48.0915C65.4168-49.6004 65.435-51.6087 66.925-53.154L69.76-55.9637C71.25-57.4718 73.3207-57.49 74.7783-55.9448L85.9089-44.7961C87.436-43.2879 87.4541-41.2898 85.9531-39.7706Z"/>
</svg>