<svg xmlns="http://www.w3.org/2000/svg" viewBox="8.72266 -86.1618 101.84 101.8">
  <path d="M59.6238 15.6405C87.7463 15.6405 110.562-7.13807 110.562-35.2606C110.562-63.3832 87.7463-86.1618 59.6238-86.1618C31.5382-86.1618 8.72266-63.3832 8.72266-35.2606C8.72266-7.13807 31.5382 15.6405 59.6238 15.6405ZM59.6238 4.47459C37.6599 4.47459 19.9185-13.2968 19.9185-35.2606C19.9185-57.2245 37.6599-74.9959 59.6238-74.9959C81.5876-74.9959 99.359-57.2245 99.359-35.2606C99.359-13.2968 81.5876 4.47459 59.6238 4.47459ZM59.5867-16.1482C70.184-16.1482 78.7946-24.7588 78.7946-35.319C78.7946-45.9163 70.184-54.4898 59.5867-54.4898C49.0265-54.4898 40.4159-45.9163 40.4159-35.319C40.4159-24.7588 49.0265-16.1482 59.5867-16.1482Z" />
</svg>