<svg xmlns="http://www.w3.org/2000/svg" viewBox="12.4609 -93.2825 125.91 115.07">
  <path d="M28.3941-11.3728L46.7368-11.3728C44.2305-14.3719 42.8138-17.5887 42.7231-20.9938L29.3176-20.9938C24.6-20.9938 22.082-23.5489 22.082-28.2665L22.082-76.3517C22.082-81.0993 24.6-83.6544 29.3176-83.6544L92.5725-83.6544C97.2546-83.6544 99.7711-81.0993 99.7711-76.3517L99.7711-57.099C102.939-57.7603 106.186-57.4056 109.429-56.1689L109.429-77.4904C109.429-87.8284 103.952-93.2825 93.496-93.2825L28.3941-93.2825C17.9008-93.2825 12.4609-87.8797 12.4609-77.4904L12.4609-27.1578C12.4609-16.7386 17.9008-11.3728 28.3941-11.3728ZM111.039 16.1848C131.436 8.76973 138.366-8.19117 130.503-29.9486L127.232-39.0338C124.282-47.2069 118.335-51.0748 113.567-49.3349C112.352-48.8884 111.907-47.9418 112.316-46.7712L113.692-42.9192C114.307-41.2894 113.802-40.1161 112.883-39.7557C111.797-39.3584 110.69-39.8985 110.083-41.5906L109.175-44.1271C107.365-49.0801 102.966-51.2554 98.5817-49.6694C96.4947-48.9114 95.7769-47.598 96.4655-45.7491L98.3883-40.4902C99.0325-38.798 98.5233-37.717 97.5857-37.3748C96.4637-36.9774 95.4183-37.4813 94.793-39.1545L93.0318-44.0767C91.0829-49.5367 86.8508-51.1791 82.4639-49.6008C80.4833-48.887 79.7261-47.4853 80.3776-45.754L84.1578-35.2763C84.7649-33.6205 84.2493-32.5284 83.3481-32.1862C82.2694-31.7888 81.1877-32.318 80.5734-34.003L68.0774-68.2909C66.7586-71.9355 63.4642-73.5106 60.3077-72.3606C56.9667-71.1255 55.517-67.8476 56.8539-64.21L74.9654-14.5788C75.3627-13.4466 74.8881-12.6162 74.2124-12.4033C73.569-12.1975 72.8822-12.3521 72.0393-13.2501L60.0261-26.2333C58.0591-28.3541 55.8261-29.1581 53.2965-28.206C49.8473-26.9133 48.385-23.7599 49.483-20.6639C49.8678-19.5787 50.4578-18.6851 51.0249-17.9681L67.0687 1.8818C80.4045 18.3138 95.6091 21.7885 111.039 16.1848Z"/>
</svg>