<svg xmlns="http://www.w3.org/2000/svg" viewBox="12.4609 -97.6255 103.13 124.74">
  <path d="M115.587-55.983C115.587-66.8068 109.872-72.5219 99.1592-72.5219L52.5229-72.5219C41.8102-72.5219 36.1321-66.8068 36.1321-55.983L36.1321 10.5795C36.1321 21.3663 41.8244 27.1184 52.5229 27.1184L99.1592 27.1184C109.858 27.1184 115.587 21.3663 115.587 10.5795ZM28.6626-55.983C28.6626-70.919 37.6681-79.9986 52.5229-79.9986L91.8905-79.9986L91.8905-81.486C91.7452-92.0738 86.1106-97.6255 75.5179-97.6255L28.8517-97.6255C18.139-97.6255 12.4609-91.9104 12.4609-81.0866L12.4609-14.5241C12.4609-3.9844 17.8627 1.68804 28.0891 1.97854L28.6626 1.97854Z"/>
</svg>