<svg xmlns="http://www.w3.org/2000/svg" viewBox="8.72266 -86.1618 101.84 101.8">
  <path d="M59.6238 15.6405C87.7321 15.6405 110.562-7.18932 110.562-35.2606C110.562-63.332 87.7321-86.1618 59.6238-86.1618C31.5524-86.1618 8.72266-63.332 8.72266-35.2606C8.72266-7.18932 31.5524 15.6405 59.6238 15.6405ZM31.7176-18.4849C29.5985-18.4849 28.1261-19.8651 28.1261-21.7886C28.1261-23.6498 29.6608-25.0923 31.7176-25.0923L37.7454-25.0923C40.1651-25.0923 41.5965-25.8274 43.6621-28.2589L49.5392-35.1502L43.7173-41.9793C41.6699-44.4108 40.2132-45.1459 37.8377-45.1459L31.7728-45.1459C29.716-45.1459 28.1813-46.5954 28.1813-48.4496C28.1813-50.3731 29.6537-51.7903 31.7728-51.7903L37.6902-51.7903C42.3094-51.7903 45.2283-50.4416 48.6416-46.548L53.9888-40.3081L59.5197-46.8351C62.9259-50.6988 65.8077-52.0845 70.464-52.0845L74.945-52.0845L74.945-57.2952C74.945-58.9498 76.0421-60.0287 77.7053-60.0287C78.5019-60.0287 79.2062-59.7937 79.7819-59.3426L89.7349-51.0167C91.0591-49.8984 91.0039-47.9479 89.6616-46.8477L79.8553-38.7127C79.2795-38.2545 78.5571-37.8916 77.7053-37.8916C76.0973-37.8916 74.945-39.0068 74.945-40.6796L74.945-45.44L70.6477-45.44C68.0703-45.44 66.5088-44.6679 64.5284-42.2553L58.4124-35.1502L64.5836-27.9829C66.564-25.6073 68.1255-24.7982 70.7029-24.7982L75.0002-24.7982L75.0002-29.5585C75.0002-31.2313 76.1525-32.3836 77.7605-32.3836C78.5934-32.3836 79.3347-31.9908 79.9105-31.5326L89.7168-23.3905C91.0591-22.2903 91.1143-20.3398 89.7901-19.2215L79.8371-10.9027C79.2614-10.4445 78.5571-10.2465 77.7605-10.2465C76.0973-10.2465 75.0002-11.2884 75.0002-12.943L75.0002-18.1537L70.5192-18.1537C65.8629-18.1537 62.9811-19.5394 59.5749-23.4401L53.9888-29.9853L48.5864-23.6973C45.1731-19.8706 42.2913-18.4849 37.635-18.4849Z"/>
</svg>