<svg xmlns="http://www.w3.org/2000/svg" viewBox="8.72266 -85.4301 120.38 100.33">
  <path d="M8.72266-25.3116C8.72266-10.505 14.062 3.04054 22.8976 13.5299C24.0326 14.87 25.8997 14.8811 27.1664 13.6033L39.0372 1.72141C40.013 0.782652 40.0501-0.540258 39.18-1.62178C33.9047-8.33234 30.8959-16.4793 30.8959-25.3116C30.8959-44.6347 45.3079-60.5933 63.9535-63.0525C65.4505-63.2316 66.5122-64.3626 66.5122-65.8526L66.5122-82.3263C66.5122-84.1199 65.1468-85.4301 63.3532-85.262C32.7629-82.4629 8.72266-56.6969 8.72266-25.3116ZM129.1-25.3116C129.1-56.6969 105.122-82.4629 74.4693-85.262C72.6757-85.4301 71.3103-84.1199 71.3103-82.3263L71.3103-65.8526C71.3103-64.3626 72.372-63.2316 73.8761-63.0525C92.5146-60.5933 106.964-44.6347 106.964-25.3116C106.964-16.4793 103.955-8.33234 98.6243-1.60363C97.7913-0.522102 97.8283 0.800808 98.7671 1.73957L110.645 13.6214C111.912 14.8992 113.786 14.8811 114.928 13.5339C123.805 3.02633 129.1-10.5121 129.1-25.3116ZM55.5475-6.06983C63.3421-6.06983 67.5019-10.6112 67.5019-17.1534C67.5019-23.3494 63.9849-25.8377 58.94-27.6957L55.9824-28.773C52.9337-29.8826 50.6947-31.2745 50.6947-34.5433C50.6947-37.2616 52.3934-39.2968 55.3678-39.2968C58.1785-39.2968 59.9337-37.6926 60.7127-34.8674C61.2404-33.3736 62.2136-32.7427 63.78-32.7427C65.6083-32.7427 66.6068-33.9376 66.6068-35.5236C66.6068-36.1043 66.4719-36.7416 66.318-37.1817C64.9149-42.0703 60.6128-44.7411 55.3938-44.7411C48.4099-44.7411 44.1113-40.2905 44.1113-34.059C44.1113-28.4858 47.2633-25.3605 52.656-23.448L55.3847-22.4433C58.7207-21.2728 60.9256-19.747 60.9256-16.5003C60.9256-13.6481 58.966-11.5323 55.6469-11.5323C52.6274-11.5323 50.6481-13.0867 49.884-16.0374C49.3271-17.5533 48.3176-18.2465 46.7812-18.2465C45.0436-18.2465 43.8543-16.9657 43.8543-15.2701C43.8543-14.5523 44.0444-13.6689 44.3332-13.0181C46.0248-8.48061 50.2189-6.06983 55.5475-6.06983ZM82.4435-7.50041C89.158-7.50041 94.1425-11.0453 94.1425-17.3632C94.1425-22.8749 90.6449-25.2103 85.909-27.2969L82.1834-28.9151C79.4974-30.1319 77.3674-31.5655 77.3674-34.1246C77.3674-36.9682 79.5803-38.2835 82.4026-38.2835C85.5104-38.2835 86.9276-36.4392 87.5735-33.7973C87.9837-32.5038 88.8741-31.6766 90.5089-31.6766C92.3925-31.6766 93.3735-32.8818 93.3735-34.362C93.3735-35.0047 93.282-35.4583 93.1652-35.997C91.8396-41.1655 87.4152-43.2917 82.4026-43.2917C76.3577-43.2917 71.169-40.0346 71.169-33.6891C71.169-28.3682 74.3109-25.8484 79.2116-23.6663L83.0558-22.0125C85.7378-20.7626 87.907-19.5648 87.907-16.7251C87.907-13.9413 85.7334-12.5456 82.4617-12.5456C79.0235-12.5456 77.4163-14.1505 76.8288-17.1691C76.4375-18.4185 75.484-19.3269 73.9233-19.3269C72.2244-19.3269 70.9593-18.2843 70.9593-16.52C70.9593-16.0949 71.0508-15.5262 71.2047-14.9844C72.6029-9.61866 77.1975-7.50041 82.4435-7.50041ZM82.446-2.73232C83.1044-2.73232 83.6524-3.28031 83.6524-3.9458L83.6524-46.8336C83.6524-47.462 83.1044-48.01 82.446-48.01C81.8176-48.01 81.2696-47.462 81.2696-46.8336L81.2696-3.9458C81.2696-3.28031 81.8176-2.73232 82.446-2.73232Z"/>
</svg>