<svg xmlns="http://www.w3.org/2000/svg" viewBox="12.4609 -79.5552 102.41 88.02">
  <path d="M82.2317 8.46776C89.4911 8.46776 95.4199 2.54605 95.4199-4.72043C95.4199-11.9428 89.5093-17.8716 82.2317-17.8716C74.9724-17.8716 69.0436-11.9428 69.0436-4.72043C69.0436 2.54605 74.9724 8.46776 82.2317 8.46776ZM82.2317 1.46493C78.7802 1.46493 76.0464-1.276 76.0464-4.72753C76.0464-8.21538 78.7802-10.9129 82.2317-10.9129C85.7196-10.9129 88.4171-8.21538 88.4171-4.72753C88.4171-1.276 85.7196 1.46493 82.2317 1.46493ZM73.5452-9.88995L17.5326-9.88995C14.7018-9.88995 12.4609-7.53309 12.4609-4.72753C12.4609-1.9394 14.7199 0.434884 17.5326 0.434884L73.5452 0.434884ZM109.909-9.88995L91.3437-9.88995L91.3437 0.434884L109.909 0.434884C112.622 0.434884 114.87-1.90309 114.87-4.72753C114.87-7.5694 112.64-9.88995 109.909-9.88995ZM45.6712-22.3449C52.8943-22.3449 58.8594-28.2666 58.8594-35.533C58.8594-42.7554 52.9306-48.6842 45.6712-48.6842C38.4047-48.6842 32.483-42.7554 32.483-35.533C32.483-28.2666 38.4047-22.3449 45.6712-22.3449ZM45.6712-29.3477C42.2197-29.3477 39.4788-32.0886 39.4788-35.5402C39.4788-39.028 42.2197-41.7255 45.6712-41.7255C49.1591-41.7255 51.8566-39.028 51.8566-35.5402C51.8566-32.0886 49.1591-29.3477 45.6712-29.3477ZM17.3844-40.7026C14.7018-40.7026 12.4609-38.3457 12.4609-35.5402C12.4609-32.752 14.7199-30.3777 17.3844-30.3777L36.7739-30.3777L36.7739-40.7026ZM109.798-40.7026L54.1809-40.7026L54.1809-30.3777L109.798-30.3777C112.622-30.3777 114.87-32.7157 114.87-35.5402C114.87-38.382 112.64-40.7026 109.798-40.7026ZM82.2317-53.1788C89.4911-53.1788 95.4199-59.1076 95.4199-66.367C95.4199-73.6264 89.4911-79.5552 82.2317-79.5552C74.9724-79.5552 69.0436-73.6264 69.0436-66.367C69.0436-59.1076 74.9724-53.1788 82.2317-53.1788ZM82.2317-60.1816C78.7802-60.1816 76.0464-62.9596 76.0464-66.3741C76.0464-69.899 78.7802-72.5594 82.2317-72.5594C85.7196-72.5594 88.4171-69.899 88.4171-66.3741C88.4171-62.9596 85.7196-60.1816 82.2317-60.1816ZM73.7177-71.5152L17.5326-71.5152C14.7018-71.5152 12.4609-69.1583 12.4609-66.3528C12.4609-63.6017 14.7199-61.1904 17.5326-61.1904L73.7177-61.1904ZM109.909-71.5152L90.8677-71.5152L90.8677-61.1904L109.909-61.1904C112.622-61.1904 114.87-63.5654 114.87-66.3528C114.87-69.1946 112.64-71.5152 109.909-71.5152Z"/>
</svg>