<svg xmlns="http://www.w3.org/2000/svg" viewBox="3.14385 -85.8362 99.98 101.15">
  <path d="M56.6453-47.3285L57.3781-57.2953L57.3781-63.5694L68.3239-69.792C70.4351-71.0223 71.0629-73.1769 70.0171-75.0114C68.853-77.0311 66.6913-77.3633 64.6242-76.2L57.3781-72.0651L57.3781-81.4336C57.3781-83.9622 55.6593-85.8362 53.1308-85.8362C50.6464-85.8362 48.8464-83.9622 48.8464-81.4336L48.8464-72.0651L41.5633-76.2C39.4962-77.3633 37.3715-77.0311 36.2145-75.0114C35.1246-73.1769 35.7965-71.0223 37.9006-69.792L48.8464-63.5694L48.8464-57.8037L48.949-55.1124ZM65.7389-38.3336L74.3353-42.571L79.7551-45.712L90.6567-39.3412C92.6939-38.1479 94.9668-38.6393 96.0496-40.4557C97.1948-42.4754 96.3565-44.5189 94.3635-45.7193L87.1355-49.9472L95.2824-54.635C97.4403-55.9269 98.1478-58.3279 96.893-60.5741C95.6453-62.6949 93.23-63.3141 90.9981-62.0593L82.8331-57.4156L82.796-65.7414C82.796-68.105 81.4173-69.8345 79.1334-69.8164C76.9905-69.7982 75.4707-68.1421 75.4707-65.7414L75.5448-53.1551L70.0517-50.0031L60.5294-43.5249ZM79.5508-24.6677L94.2075-10.299L96.1428-9.15854C96.3976-9.34775 96.6666-9.58986 96.8748-9.91803C98.2219-12.0641 97.4214-14.6496 95.1916-15.9589L87.1355-20.5741L94.3635-24.802C96.3565-26.0024 97.2129-28.0459 96.0678-30.0286C94.9297-31.8749 92.6868-32.3662 90.6638-31.1801ZM49.554-23.1036L48.8283-13.1715L48.8464-6.95191L37.9006-0.729312C35.7965 0.500978 35.1246 2.65563 36.2145 4.49013C37.3715 6.50985 39.4962 6.84202 41.5633 5.67871L48.8464 1.53667L48.8464 10.9123C48.8464 13.4409 50.6464 15.3149 53.1308 15.3149C55.6593 15.3149 57.3781 13.4409 57.3781 10.9123L57.3781 1.55088L64.6242 5.67871C66.6913 6.84202 68.853 6.50985 70.0171 4.49013C71.0629 2.65563 70.4351 0.500978 68.3239-0.729312L57.3781-6.95191L57.3962-12.656L57.2937-15.3527ZM40.469-32.1293L31.9255-27.9684L26.4395-24.8093L15.5678-31.1801C13.5488-32.3552 11.2649-31.882 10.249-30.0656C9.08495-27.9718 9.868-26.0024 11.861-24.802L19.089-20.5741L10.9421-15.8863C8.82127-14.6314 8.07672-12.1193 9.33155-9.95434C10.6234-7.75233 13.0686-7.24424 15.2335-8.46203L23.3915-13.1057L23.4285-4.77992C23.4285-2.41626 24.8072-0.704905 27.1282-0.704905C29.234-0.704905 30.7609-2.37922 30.7609-4.77992L30.7238-17.4032L36.1728-20.5182L45.6596-26.9751ZM15.5678-39.3412L26.7573-45.8891L12.6925-59.9469L10.1188-61.3446C9.84584-61.1924 9.55793-60.9393 9.33155-60.5741C8.03968-58.346 8.67602-55.4904 11.7773-54.4353L20.251-50.4011L11.861-45.7193C9.84984-44.5915 9.02975-42.5495 10.1938-40.4557C11.2278-38.6101 13.4936-38.1479 15.5678-39.3412ZM95.9351 13.235C97.4933 14.7822 100.051 14.7633 101.554 13.198C103.078 11.6326 103.119 9.13745 101.554 7.57918L10.328-83.6727C8.77683-85.2309 6.23361-85.2451 4.65402-83.6727C3.14385-82.1696 3.14385-79.557 4.65402-78.0539Z"/>
</svg>