<svg xmlns="http://www.w3.org/2000/svg" viewBox="9.96875 -95.5906 92.81 112.89">
  <path d="M63.5179 17.2958C65.176 17.2958 66.4799 16.1133 66.7623 14.3843C70.2875-11.8289 73.9766-15.7701 99.6973-18.6612C101.489-18.8331 102.774-20.2104 102.774-21.9095C102.774-23.6274 101.507-24.9424 99.7155-25.1877C74.0129-28.2785 70.5054-31.9829 66.7623-58.2032C66.4618-59.9622 65.1579-61.1446 63.5179-61.1446C61.8228-61.1446 60.5189-59.9622 60.2736-58.2032C56.7113-31.9829 53.0222-28.0788 27.3015-25.1877C25.5101-24.9787 24.2614-23.6456 24.2614-21.9095C24.2614-20.2285 25.492-18.8694 27.2833-18.6612C52.9346-15.1974 56.3696-11.8218 60.2736 14.3843C60.537 16.1133 61.8409 17.2958 63.5179 17.2958ZM29.2468-36.9043C30.2927-36.9043 31.0735-37.6417 31.2092-38.6876C32.9301-51.5419 33.2532-51.5947 46.7157-54.1278C47.7245-54.2816 48.4879-55.0372 48.4879-56.0902C48.4879-57.1801 47.7063-57.9468 46.6975-58.0824C33.3077-59.9406 32.893-60.3197 31.2092-73.4675C31.0735-74.5756 30.3108-75.313 29.2468-75.313C28.1458-75.313 27.3831-74.5756 27.2475-73.4123C25.674-60.5832 25.1136-60.5785 11.741-58.0824C10.7322-57.8916 9.96875-57.1801 9.96875-56.0902C9.96875-54.982 10.7322-54.2816 11.9799-54.1278C25.1514-52.0552 25.674-51.6633 27.2475-38.798C27.3831-37.6417 28.1458-36.9043 29.2468-36.9043ZM52.9024-71.4075C53.632-71.4075 54.0824-71.895 54.1999-72.5323C55.5522-80.3825 55.46-80.616 63.8688-82.1831C64.5684-82.3187 65.0306-82.7581 65.0306-83.4805C65.0306-84.203 64.5503-84.6605 63.8507-84.778C55.46-86.1816 55.5341-86.4515 54.1999-94.4106C54.0824-95.1031 53.632-95.5906 52.9024-95.5906C52.2099-95.5906 51.7666-95.1031 51.6491-94.3925C50.3142-86.5786 50.4071-86.345 41.973-84.778C41.2805-84.6423 40.8184-84.203 40.8184-83.4805C40.8184-82.7581 41.2805-82.3187 42.0275-82.1831C50.3708-80.7068 50.2779-80.4551 51.6491-72.5504C51.7666-71.895 52.2099-71.4075 52.9024-71.4075Z"/>
</svg>