<svg xmlns="http://www.w3.org/2000/svg" viewBox="12.4609 -81.2428 141.74 92.1">
  <path d="M23.8624-38.8172L43.448-38.8172C51.1416-38.8172 54.8495-42.5195 54.8495-50.3669L54.8495-69.6932C54.8495-77.5476 51.1416-81.2428 43.448-81.2428L23.8624-81.2428C16.1688-81.2428 12.4609-77.5476 12.4609-69.6932L12.4609-50.3669C12.4609-42.5195 16.1688-38.8172 23.8624-38.8172ZM23.8774-47.7491C22.183-47.7491 21.3557-48.5764 21.3557-50.3448L21.3557-69.7523C21.3557-71.4837 22.183-72.311 23.8774-72.311L43.396-72.311C45.1274-72.311 45.9547-71.4837 45.9547-69.7523L45.9547-50.3448C45.9547-48.5764 45.1274-47.7491 43.396-47.7491ZM73.54-38.8172L93.1256-38.8172C100.819-38.8172 104.527-42.5195 104.527-50.3669L104.527-69.6932C104.527-77.5476 100.819-81.2428 93.1256-81.2428L73.54-81.2428C65.8465-81.2428 62.1386-77.5476 62.1386-69.6932L62.1386-50.3669C62.1386-42.5195 65.8465-38.8172 73.54-38.8172ZM73.592-47.7491C71.8607-47.7491 71.0333-48.5764 71.0333-50.3448L71.0333-69.7523C71.0333-71.4837 71.8607-72.311 73.592-72.311L93.1107-72.311C94.8421-72.311 95.6323-71.4837 95.6323-69.7523L95.6323-50.3448C95.6323-48.5764 94.8421-47.7491 93.1107-47.7491ZM123.218-38.8172L142.847-38.8172C150.504-38.8172 154.205-42.5195 154.205-50.3669L154.205-69.6932C154.205-77.5476 150.504-81.2428 142.847-81.2428L123.218-81.2428C115.524-81.2428 111.816-77.5476 111.816-69.6932L111.816-50.3669C111.816-42.5195 115.524-38.8172 123.218-38.8172ZM123.233-47.7491C121.545-47.7491 120.718-48.5764 120.718-50.3448L120.718-69.7523C120.718-71.4837 121.545-72.311 123.233-72.311L142.795-72.311C144.52-72.311 145.31-71.4837 145.31-69.7523L145.31-50.3448C145.31-48.5764 144.52-47.7491 142.795-47.7491ZM23.8624 10.8604L43.448 10.8604C51.1416 10.8604 54.8495 7.16518 54.8495-0.689281L54.8495-20.0156C54.8495-27.8629 51.1416-31.5282 43.448-31.5282L23.8624-31.5282C16.1688-31.5282 12.4609-27.8629 12.4609-20.0156L12.4609-0.689281C12.4609 7.16518 16.1688 10.8604 23.8624 10.8604ZM23.8774 1.92857C22.183 1.92857 21.3557 1.10124 21.3557-0.630137L21.3557-20.0377C21.3557-21.8061 22.183-22.6334 23.8774-22.6334L43.396-22.6334C45.1274-22.6334 45.9547-21.8061 45.9547-20.0377L45.9547-0.630137C45.9547 1.10124 45.1274 1.92857 43.396 1.92857ZM73.54 10.8604L93.1256 10.8604C100.819 10.8604 104.527 7.16518 104.527-0.689281L104.527-20.0156C104.527-27.8629 100.819-31.5282 93.1256-31.5282L73.54-31.5282C65.8465-31.5282 62.1386-27.8629 62.1386-20.0156L62.1386-0.689281C62.1386 7.16518 65.8465 10.8604 73.54 10.8604ZM73.592 1.92857C71.8607 1.92857 71.0333 1.10124 71.0333-0.630137L71.0333-20.0377C71.0333-21.8061 71.8607-22.6334 73.592-22.6334L93.1107-22.6334C94.8421-22.6334 95.6323-21.8061 95.6323-20.0377L95.6323-0.630137C95.6323 1.10124 94.8421 1.92857 93.1107 1.92857ZM123.218 10.8604L142.847 10.8604C150.504 10.8604 154.205 7.16518 154.205-0.689281L154.205-20.0156C154.205-27.8629 150.504-31.5282 142.847-31.5282L123.218-31.5282C115.524-31.5282 111.816-27.8629 111.816-20.0156L111.816-0.689281C111.816 7.16518 115.524 10.8604 123.218 10.8604ZM123.233 1.92857C121.545 1.92857 120.718 1.10124 120.718-0.630137L120.718-20.0377C120.718-21.8061 121.545-22.6334 123.233-22.6334L142.795-22.6334C144.52-22.6334 145.31-21.8061 145.31-20.0377L145.31-0.630137C145.31 1.10124 144.52 1.92857 142.795 1.92857Z"/>
</svg>