<svg xmlns="http://www.w3.org/2000/svg" viewBox="8.72266 -86.1618 101.84 101.8">
  <path d="M59.6238 15.6405C87.7463 15.6405 110.562-7.13807 110.562-35.2606C110.562-63.3832 87.7463-86.1618 59.6238-86.1618C31.5382-86.1618 8.72266-63.3832 8.72266-35.2606C8.72266-7.13807 31.5382 15.6405 59.6238 15.6405ZM59.6238 4.47459C37.6599 4.47459 19.9185-13.2968 19.9185-35.2606C19.9185-57.2245 37.6599-74.9959 59.6238-74.9959C81.5876-74.9959 99.359-57.2245 99.359-35.2606C99.359-13.2968 81.5876 4.47459 59.6238 4.47459ZM66.0878-51.0375L66.0878-45.5405L69.3973-45.5405C71.6332-45.5405 73.1087-45.0603 74.056-44.1194C75.0883-43.1312 75.5756-41.6525 75.5756-39.4316L75.5756-23.6423C75.5756-21.3961 75.0442-19.9797 74.0741-19.0097C73.1016-18.0325 71.6261-17.5342 69.3973-17.5342L49.7501-17.5342C47.5915-17.5342 46.0647-18.0325 45.1364-19.0097C44.1222-20.005 43.6419-21.4506 43.6419-23.6423L43.6419-39.4316C43.6419-41.5981 44.104-43.0579 45.1364-44.0642C46.0465-45.0485 47.5915-45.5405 49.7501-45.5405L53.1227-45.5405L53.1227-51.0375L49.5504-51.0375C45.9447-51.0375 43.0488-49.9043 41.1394-48.0501C39.2301-46.1337 38.1702-43.2378 38.1702-39.6313L38.1702-23.4426C38.1702-19.818 39.2301-16.9591 41.1394-14.9875C43.0559-13.0963 45.9447-12.0553 49.5504-12.0553L69.5789-12.0553C73.3652-12.0553 76.187-13.1405 78.0711-14.9875C80.0797-16.9591 81.0474-19.818 81.0474-23.4426L81.0474-39.6313C81.0474-43.2378 80.0797-46.1337 78.0711-48.0501C76.1799-49.9413 73.3652-51.0375 69.5789-51.0375ZM51.5195-53.9767C52.3634-53.9767 52.9762-54.2598 53.4526-54.7914L55.1618-56.5629L59.5938-61.3775L63.9904-56.5629L65.7066-54.7843C66.1759-54.2598 66.8115-53.9696 67.6625-53.9696C69.0964-53.9696 70.139-54.9712 70.139-56.3656C70.139-57.0881 69.8535-57.6677 69.299-58.204L61.4921-65.7278C60.8683-66.3146 60.2405-66.5788 59.5796-66.5788C58.9558-66.5788 58.328-66.3146 57.6671-65.7278L49.9043-58.2111C49.2987-57.6606 49.0715-57.0738 49.0715-56.3656C49.0715-54.9712 50.1212-53.9767 51.5195-53.9767ZM59.5867-30.9256C61.0875-30.9256 62.2587-32.0928 62.2587-33.5495L62.2587-56.454L61.8389-61.4769C61.7474-62.6826 60.8547-63.6312 59.5867-63.6312C58.3558-63.6312 57.4631-62.6826 57.3716-61.4769L56.9518-56.454L56.9518-33.5495C56.9518-32.0928 58.1229-30.9256 59.5867-30.9256Z" />
</svg>