<svg xmlns="http://www.w3.org/2000/svg" viewBox="12.4609 -81.3123 92.07 92.1">
  <path d="M50.2813 6.05745L50.2813-76.4399L39.756-76.4399L39.756 6.05745ZM77.2321 6.05745L77.2321-76.4399L66.7438-76.4399L66.7438 6.05745ZM17.2639-43.4225L99.7242-43.4225L99.7242-53.9108L17.2639-53.9108ZM17.2639-16.4717L99.7242-16.4717L99.7242-26.96L17.2639-26.96ZM12.4609 6.35935C12.4609 9.00777 14.2071 10.791 16.8555 10.791L100.133 10.791C102.781 10.791 104.527 9.00777 104.527 6.35935L104.527-76.8806C104.527-79.5291 102.781-81.3123 100.133-81.3123L16.8555-81.3123C14.2071-81.3123 12.4609-79.5291 12.4609-76.8806ZM23.3305-1.46724L23.3305-69.0541C23.3305-69.9955 23.7406-70.4057 24.7191-70.4057L92.306-70.4057C93.2474-70.4057 93.6576-69.9955 93.6576-69.0541L93.6576-1.46724C93.6576-0.525751 93.2474-0.11561 92.306-0.11561L24.7191-0.11561C23.7406-0.11561 23.3305-0.525751 23.3305-1.46724Z"/>
</svg>