<svg xmlns="http://www.w3.org/2000/svg" viewBox="12.4609 -72.115 85.03 73.78">
  <path d="M15.3474-39.0002L94.5825-39.0002C96.1957-39.0002 97.4918-40.3207 97.4918-41.9023C97.4918-43.4469 96.1957-44.7864 94.5825-44.7864L15.3474-44.7864C13.7641-44.7864 12.4609-43.4469 12.4609-41.9023C12.4609-40.3207 13.7641-39.0002 15.3474-39.0002ZM15.3474-26.2165L94.5825-26.2165C96.1957-26.2165 97.4918-27.567 97.4918-29.1486C97.4918-30.6931 96.1957-32.0326 94.5825-32.0326L15.3474-32.0326C13.7641-32.0326 12.4609-30.6931 12.4609-29.1486C12.4609-27.567 13.7641-26.2165 15.3474-26.2165ZM54.6705 1.6624C72.0915 1.6624 83.2691-7.0883 83.2691-20.5212C83.2691-31.2554 76.8578-37.0768 62.2533-40.2533L53.5789-42.1004C44.4203-44.1492 40.503-46.8582 40.503-51.7273C40.503-57.6775 46.3846-61.7816 54.6453-61.7816C62.0498-61.7816 67.1348-58.6151 70.0942-52.6657C71.4376-50.6318 72.9228-49.7099 75.3103-49.7099C78.6365-49.7099 80.8135-51.7474 80.8135-54.8976C80.8135-55.8141 80.6779-56.6692 80.4183-57.5076C77.9677-66.2325 67.8411-72.115 54.5908-72.115C38.9037-72.115 27.5265-63.3652 27.5265-50.6181C27.5265-40.3896 34.061-34.1223 47.5562-31.1926L56.8878-29.1351C66.482-27.0105 70.299-24.2252 70.299-19.0352C70.299-13.0007 63.9925-8.65289 54.7203-8.65289C46.5491-8.65289 40.3462-12.3046 37.3656-18.298C36.0254-20.4526 34.664-21.4203 32.3154-21.4203C28.9269-21.4203 26.7744-19.297 26.7744-16.041C26.7744-14.9992 26.9464-13.962 27.291-12.8325C30.0397-3.93083 40.6444 1.6624 54.6705 1.6624Z" />
</svg>