<svg xmlns="http://www.w3.org/2000/svg" viewBox="12.4609 -89.1169 108.82 107.98">
  <path d="M69.0069-55.8606L115.652-55.8606C113.389-72.1725 99.6305-89.1169 76.2735-89.1169C72.0017-89.1169 69.0069-85.9708 69.0069-81.6226ZM57.6652-16.8426L88.7458-16.8426C108.604-16.8426 114.508-29.1037 115.698-40.8081L116.945-40.8081C119.335-40.8081 121.283-42.7555 121.283-45.1462C121.283-47.5668 119.335-49.5213 116.945-49.5213L29.3628-49.5213C26.9792-49.5213 25.0247-47.5668 25.0247-45.1462C25.0247-42.7555 26.9792-40.8081 29.3628-40.8081L30.8634-40.8081L32.5271-33.9522C34.9772-23.4366 43.3304-16.8426 57.6652-16.8426ZM46.0137-46.5138L59.0341-46.5138L32.3909-73.1318C31.0635-74.4111 29.6139-75.0199 27.814-75.0199L17.075-75.0199C14.581-75.0199 12.4609-72.8999 12.4609-70.4059C12.4609-67.8677 14.581-65.7548 17.075-65.7548L26.7429-65.7548ZM46.4719-6.1546L53.0343 0.327802L72.4032-19.0411L65.4202-25.1211ZM93.1183 0.645213L99.8368-5.72534L81.0818-24.4544L73.6543-18.8188ZM53.2797 8.53738L92.8592 8.53738L92.8592 0.339131L53.2797 0.339131ZM43.053 18.8613C51.0477 18.8613 57.4138 12.4881 57.4138 4.45641C57.4138-3.58238 51.0477-9.91145 43.053-9.91145C35.0142-9.91145 28.6481-3.58238 28.6481 4.45641C28.6481 12.4881 35.0142 18.8613 43.053 18.8613ZM43.053 11.6183C39.0308 11.6183 35.8841 8.4715 35.8841 4.45641C35.8841 0.434223 39.0308-2.71254 43.053-2.71254C47.0681-2.71254 50.1778 0.434223 50.1778 4.45641C50.1778 8.4715 47.0681 11.6183 43.053 11.6183ZM102.789 18.1575C110.347 18.1575 116.453 12.0436 116.453 4.45641C116.453-3.10083 110.347-9.21475 102.789-9.21475C95.195-9.21475 89.0882-3.10083 89.0882 4.45641C89.0882 12.0436 95.2321 18.1575 102.789 18.1575ZM102.789 11.6183C98.7742 11.6183 95.6275 8.4715 95.6275 4.45641C95.6275 0.434223 98.7742-2.71254 102.789-2.71254C106.804-2.71254 109.958 0.434223 109.958 4.45641C109.958 8.4715 106.804 11.6183 102.789 11.6183Z"/>
</svg>