<svg xmlns="http://www.w3.org/2000/svg" viewBox="12.4609 -75.2378 123.74 80.06">
  <path d="M12.4609-70.069L12.4609-52.2454C12.4609-49.1637 14.5291-47.0955 17.6227-47.0955L131.074-47.0955C134.168-47.0955 136.199-49.1637 136.199-52.2454L136.199-70.069C136.199-73.1696 134.168-75.2378 131.074-75.2378L17.6227-75.2378C14.5291-75.2378 12.4609-73.1696 12.4609-70.069ZM22.3682-64.2234C22.3682-64.8535 22.8523-65.3377 23.4682-65.3377L125.192-65.3377C125.808-65.3377 126.292-64.8535 126.292-64.2234L126.292-58.128C126.292-57.505 125.808-57.0208 125.192-57.0208L23.4682-57.0208C22.8523-57.0208 22.3682-57.505 22.3682-58.128ZM17.6298 4.82129L35.4533 4.82129C38.554 4.82129 40.6403 2.77125 40.6403-0.358602L40.6403-54.2741L30.6779-54.2741L30.6779-6.05744C30.6779-5.44156 30.1937-4.92034 29.5708-4.92034L23.5124-4.92034C22.8523-4.92034 22.3682-5.44156 22.3682-6.05744L22.3682-54.7192L12.4609-54.7192L12.4609-0.358602C12.4609 2.7531 14.5291 4.82129 17.6298 4.82129ZM113.244 4.82129L131.067 4.82129C134.168 4.82129 136.199 2.7531 136.199-0.358602L136.199-54.7192L126.292-54.7192L126.292-6.05744C126.292-5.44156 125.808-4.92034 125.185-4.92034L119.089-4.92034C118.466-4.92034 117.982-5.44156 117.982-6.05744L117.982-54.2741L108.057-54.2741L108.057-0.358602C108.057 2.77125 110.143 4.82129 113.244 4.82129Z"/>
</svg>