<svg xmlns="http://www.w3.org/2000/svg" viewBox="4.4425 -88.4403 101.01 106.42">
  <path d="M39.7503-65.2995L73.127-65.2995C75.026-65.2995 76.4511-63.8816 76.4511-62.0559C76.4511-60.164 75.026-58.6838 73.127-58.6838L46.366-58.6838L56.9112-48.1386L73.127-48.1386C75.026-48.1386 76.4511-46.7206 76.4511-44.8768C76.4511-42.9849 75.026-41.5047 73.127-41.5047L63.5451-41.5047L97.41-7.63972L97.41-71.9014C97.41-82.6881 91.7391-88.4403 81.0193-88.4403L28.8887-88.4403C24.879-88.4403 21.6226-87.5419 19.1264-85.9234ZM51.0216-24.3438L36.8433-24.3438C34.882-24.3438 33.4569-25.8058 33.4569-27.5873C33.4569-29.4863 34.882-30.9666 36.8433-30.9666L44.4059-30.9666L12.498-62.8122L12.498 1.44481C12.498 12.2686 18.1761 17.9837 28.8887 17.9837L81.0193 17.9837C85.0913 17.9837 88.373 17.1547 90.8621 15.5039ZM98.2672 13.6118C99.8696 15.1519 102.383 15.17 103.893 13.6118C105.41 12.0393 105.451 9.51422 103.893 7.94885L11.6266-84.3104C10.0755-85.8687 7.52515-85.8829 5.95267-84.3104C4.4425-82.8074 4.4425-80.2018 5.95267-78.6917Z"/>
</svg>