<svg xmlns="http://www.w3.org/2000/svg" viewBox="12.4609 -72.2831 93.36 86.6">
  <path d="M101.016 14.3186C103.883 14.3186 105.822 12.5724 105.822 9.38704L105.822-23.2374C105.822-26.4824 103.639-28.4724 100.424-28.4724C97.6909-28.4724 96.1455-27.496 94.2264-26.1733L86.7939-21.1511C85.1281-20.0319 84.4159-19.0232 84.4159-17.4953C84.4159-15.3649 85.9453-13.8576 87.7972-13.8576C88.9289-13.8576 89.5755-14.1777 90.7831-14.9814L96.0266-18.5204L96.1811-18.5204L96.1811 9.38704C96.1811 12.5724 98.1499 14.3186 101.016 14.3186ZM18.8791 1.79107C22.6702 1.79107 24.7023 0.180946 25.8507-3.81919L44.1318-58.5916L44.4654-58.5916L62.5768-3.81919C63.7323 0.180946 65.7573 1.79107 69.5484 1.79107C73.5898 1.79107 76.2222-0.658333 76.2222-4.41879C76.2222-5.83805 75.995-7.0387 75.4492-8.57693L54.8292-64.9481C53.0787-69.9007 49.7409-72.2831 44.2935-72.2831C39.0828-72.2831 35.7671-69.8897 34.0426-64.9481L13.2158-8.17675C12.7063-6.72931 12.4609-5.51123 12.4609-4.2728C12.4609-0.530508 14.9174 1.79107 18.8791 1.79107ZM27.9208-17.4549L60.5808-17.4549C63.4575-17.4549 65.7072-19.7416 65.7072-22.5813C65.7072-25.4509 63.4575-27.7077 60.5808-27.7077L27.9208-27.7077C25.0441-27.7077 22.7944-25.4509 22.7944-22.5813C22.7944-19.7416 25.0441-17.4549 27.9208-17.4549Z"/>
</svg>