<svg xmlns="http://www.w3.org/2000/svg" viewBox="8.72266 -85.8383 103.45 101.2">
  <path d="M8.72266-35.1312C8.72266-23.7311 12.984-14.3677 17.5145-7.02245C19.844-3.24502 21.0535 0.123481 21.0535 3.21935L21.0535 10.7655C21.0535 13.2539 23.0939 15.3636 25.5965 15.3636C28.0477 15.3636 30.1322 13.272 30.1322 10.7655L30.1322 7.78791L35.2561 7.78791L35.2561 10.7655C35.2561 13.272 37.3477 15.3636 39.8542 15.3636C42.3126 15.3636 44.3971 13.272 44.3971 10.7655L44.3971 7.78791L48.9959 7.78791L48.9959 10.7655C48.9959 13.272 51.0993 15.3636 53.5758 15.3636C56.0712 15.3636 58.1487 13.272 58.1487 10.7655L58.1487 7.78791L62.6964 7.78791L62.6964 10.7655C62.6964 13.272 64.825 15.3636 67.2763 15.3636C69.7529 15.3636 71.8744 13.272 71.8744 10.7655L71.8744 7.78791L76.455 7.78791L76.455 10.7655C76.455 13.272 78.5324 15.3636 81.016 15.3636C83.4862 15.3636 85.596 13.2539 85.596 10.7655L85.596 7.78791L90.7128 7.78791L90.7128 10.7655C90.7128 13.272 92.8044 15.3636 95.2557 15.3636C97.7582 15.3636 99.8538 13.2539 99.8538 10.7655L99.8538 3.26276C99.8538 0.431844 101.188-3.24429 103.797-7.67768C108.073-14.8936 112.169-24.0584 112.169-35.1312C112.169-46.5103 107.748-56.9303 101.925-65.0315C98.6031-70.1442 97.674-71.4228 97.674-74.763L97.674-80.5502C97.674-83.4199 95.2691-85.8383 92.3742-85.8383C89.5527-85.8383 87.1413-83.4199 87.1413-80.5502L87.1413-73.7571C87.1413-67.1846 88.3666-65.9459 92.3411-60.3952C97.3085-53.7476 101.372-45.0625 101.372-35.1312C101.372-22.1214 94.8287-12.4642 85.6551-6.52519L35.2222-6.52519C26.0999-12.4642 19.5196-22.1214 19.5196-35.1312C19.5196-45.0625 23.613-53.7476 28.5505-60.3952C32.525-65.9459 33.7503-67.1846 33.7503-73.7571L33.7503-80.5502C33.7503-83.4199 31.3389-85.8383 28.5174-85.8383C25.6407-85.8383 23.2475-83.4199 23.2475-80.5502L23.2475-74.763C23.2475-71.4228 22.2885-70.1442 18.9662-65.0315C13.1434-56.9303 8.72266-46.5103 8.72266-35.1312ZM54.2194-18.6293C60.6631-18.6293 65.8251-23.7661 65.8251-30.3091C65.8251-34.7929 63.2791-38.4311 59.768-40.417C58.4964-41.1514 57.9806-42.0482 57.9806-43.8852L57.9806-66.0677C57.9806-68.2619 56.2976-69.8975 54.2194-69.8975C52.1412-69.8975 50.4764-68.2619 50.4764-66.0677L50.4764-43.8852C50.4764-42.0482 49.9794-41.1514 48.6889-40.417C45.1778-38.4311 42.6319-34.7929 42.6319-30.3091C42.6319-23.7661 47.7939-18.6293 54.2194-18.6293ZM66.3713-60.5952L74.8139-60.5952C76.2524-60.5952 77.4133-61.7261 77.4133-63.2017C77.4133-64.6583 76.2706-65.7458 74.8139-65.7458L66.3713-65.7458C64.9509-65.7458 63.783-64.622 63.783-63.2017C63.783-61.7261 64.9509-60.5952 66.3713-60.5952ZM66.3713-51.8704L74.8139-51.8704C76.2706-51.8704 77.4133-53.002 77.4133-54.4334C77.4133-55.8901 76.2706-57.0217 74.8139-57.0217L66.3713-57.0217C64.9509-57.0217 63.783-55.8538 63.783-54.4334C63.783-53.0383 64.9509-51.8704 66.3713-51.8704ZM66.3713-43.0153L74.8139-43.0153C76.2706-43.0153 77.4133-44.128 77.4133-45.6036C77.4133-47.0603 76.2706-48.1659 74.8139-48.1659L66.3713-48.1659C64.9509-48.1659 63.783-47.0421 63.783-45.6036C63.783-44.1462 64.9509-43.0153 66.3713-43.0153Z"/>
</svg>