<svg xmlns="http://www.w3.org/2000/svg" viewBox="8.72266 -86.1618 101.84 101.8">
  <path d="M59.6238 15.6405C87.7463 15.6405 110.562-7.13807 110.562-35.2606C110.562-63.3832 87.7463-86.1618 59.6238-86.1618C31.5382-86.1618 8.72266-63.3832 8.72266-35.2606C8.72266-7.13807 31.5382 15.6405 59.6238 15.6405ZM59.6238 4.47459C37.6599 4.47459 19.9185-13.2968 19.9185-35.2606C19.9185-57.2245 37.6599-74.9959 59.6238-74.9959C81.5876-74.9959 99.359-57.2245 99.359-35.2606C99.359-13.2968 81.5876 4.47459 59.6238 4.47459ZM50.9078-3.83043C58.5027-3.83043 64.614-9.85023 64.614-17.4127C64.614-21.2881 63.066-24.68 60.1299-27.3898C59.6535-27.8149 59.5542-28.083 59.5542-28.7305L59.5912-49.9971C59.5912-55.5659 56.069-59.3421 50.9078-59.3421C45.7467-59.3421 42.2686-55.5659 42.2686-49.9971L42.2686-28.7305C42.2686-28.0759 42.1803-27.7967 41.6306-27.3898C38.6945-24.7163 37.1906-21.2881 37.1906-17.4127C37.1906-9.85023 43.3201-3.83043 50.9078-3.83043ZM50.9078-8.48308C45.919-8.48308 41.9497-12.5153 41.9497-17.5035C41.9497-20.6273 43.3621-23.2502 45.8803-24.9323C46.7012-25.43 46.9607-25.908 46.9607-26.9411L46.9607-49.8315C46.9607-52.7281 48.5364-54.583 50.9078-54.583C53.2675-54.583 54.825-52.7281 54.825-49.8315L54.825-26.9411C54.825-25.908 55.0956-25.43 55.9236-24.9323C58.4717-23.2502 59.8912-20.6273 59.8912-17.5035C59.8912-12.5153 55.8778-8.48308 50.9078-8.48308ZM50.8708-11.5933C54.2076-11.5933 56.7999-14.2707 56.7999-17.5405C56.7999-19.8182 55.5255-21.6566 53.5995-22.7157C52.8669-23.1037 52.6272-23.4199 52.6272-24.5564L52.6272-47.8101C52.6272-49.0191 51.8661-49.8173 50.8708-49.8173C49.9125-49.8173 49.1956-49.0191 49.1956-47.8101L49.1956-24.5564C49.1956-23.4199 48.9859-23.1037 48.161-22.7157C46.3155-21.6637 45.0229-19.8182 45.0229-17.5405C45.0229-14.2337 47.6081-11.5933 50.8708-11.5933ZM63.2434-58.3688C64.7165-58.3688 65.815-59.5509 65.815-60.9215L65.815-65.8757C65.815-67.2944 64.7165-68.4513 63.2434-68.4513C61.8145-68.4513 60.6789-67.2944 60.6789-65.8757L60.6789-60.9215C60.6789-59.5367 61.8216-58.3688 63.2434-58.3688ZM74.4405-53.6906C75.4286-52.6836 77.1154-52.7017 78.0854-53.7087L81.5925-57.1977C82.5806-58.2229 82.6176-59.8868 81.5783-60.8568C80.6012-61.8819 78.9696-61.8638 78.0075-60.8386L74.4444-57.3489C73.4421-56.3537 73.4705-54.6969 74.4405-53.6906ZM81.6248-39.9315L86.542-39.9315C87.971-39.9315 89.1318-41.1695 89.1318-42.496C89.1318-43.9217 87.9781-45.1156 86.542-45.1156L81.6248-45.1156C80.2148-45.1156 79.0422-43.9036 79.0422-42.4778C79.0422-41.1695 80.2219-39.9315 81.6248-39.9315ZM78.0075-24.1398C78.9333-23.1958 80.6012-23.1588 81.5783-24.1398C82.5995-25.1468 82.5995-26.8549 81.5743-27.7689L78.0483-31.2878C77.0602-32.276 75.4475-32.276 74.4405-31.2878C73.4705-30.2879 73.4603-28.6311 74.4444-27.684ZM63.2173-29.9936C70.1472-29.9241 75.7379-35.4864 75.7379-42.4778C75.7379-49.4912 70.1835-55.0827 63.2434-55.0827C62.9507-55.0827 62.6066-55.0243 62.295-54.9706C62.908-53.4814 63.2544-51.7885 63.2544-49.9971Z" />
</svg>