<svg xmlns="http://www.w3.org/2000/svg" viewBox="12.4609 -79.3759 124.41 88.23">
  <path d="M12.4609-12.4389C12.4609-9.82606 13.6299-7.89585 15.9259-6.80589C21.5524-4.13784 24.6819-0.958737 27.7881 5.45597C28.8859 7.68568 30.8175 8.85464 33.2737 8.85464L116.057 8.85464C118.513 8.85464 120.445 7.68568 121.543 5.45597C124.649-0.958737 127.778-4.13784 133.405-6.80589C135.738-7.89585 136.87-9.82606 136.87-12.4389L136.87-58.0823C136.87-60.6952 135.738-62.6254 133.405-63.7154C127.778-66.3834 124.649-69.5626 121.543-75.9773C120.445-78.207 118.513-79.3759 116.057-79.3759L33.2737-79.3759C30.8175-79.3759 28.8859-78.207 27.7881-75.9773C24.6819-69.5626 21.5524-66.3834 15.9259-63.7154C13.6299-62.6254 12.4609-60.6952 12.4609-58.0823ZM34.3913-13.2482L34.3913-57.2447C34.3913-60.114 36.304-62.0447 39.1551-62.0447L110.213-62.0447C113.027-62.0447 114.94-60.114 114.94-57.2447L114.94-13.2482C114.94-10.3789 113.027-8.44812 110.213-8.44812L39.1551-8.44812C36.304-8.44812 34.3913-10.3789 34.3913-13.2482ZM41.4239-46.5534L47.1676-46.5534L47.1676-55.0421L42.3017-55.0421C41.7008-55.0421 41.4239-54.6801 41.4239-54.1163ZM41.4239-30.8987L47.1676-30.8987L47.1676-39.5571L41.4239-39.5571ZM41.4421-16.3948C41.4421-15.8491 41.7189-15.5052 42.3198-15.5052L47.1495-15.5052L47.1495-23.9031L41.4421-23.9031ZM102.163-46.5534L107.907-46.5534L107.907-54.1163C107.907-54.6801 107.63-55.0421 107.029-55.0421L102.163-55.0421ZM102.163-30.8987L107.907-30.8987L107.907-39.5571L102.163-39.5571ZM102.163-15.4508L107.029-15.4508C107.63-15.4508 107.907-15.8128 107.907-16.3766L107.907-23.9395L102.163-23.9395ZM54.2002-15.5052L95.1307-15.5052L95.1307-54.9876L54.2002-54.9876Z"/>
</svg>