<svg xmlns="http://www.w3.org/2000/svg" viewBox="8.72266 -86.1618 101.84 101.8">
  <path d="M59.6238 15.6405C87.7463 15.6405 110.562-7.13807 110.562-35.2606C110.562-63.3832 87.7463-86.1618 59.6238-86.1618C31.5382-86.1618 8.72266-63.3832 8.72266-35.2606C8.72266-7.13807 31.5382 15.6405 59.6238 15.6405ZM59.6238 4.47459C37.6599 4.47459 19.9185-13.2968 19.9185-35.2606C19.9185-57.2245 37.6599-74.9959 59.6238-74.9959C81.5876-74.9959 99.359-57.2245 99.359-35.2606C99.359-13.2968 81.5876 4.47459 59.6238 4.47459ZM51.286-39.3356C56.8664-39.3726 61.6037-41.409 65.2969-45.5555C61.5045-50.2319 57.4594-52.3306 51.4674-52.3677C45.4572-52.3677 41.2339-50.2935 37.4351-45.4316C41.1748-41.3538 46.0161-39.2985 51.286-39.3356ZM37.7623-26.0679C40.9682-28.9354 43.3891-33.7467 43.8451-37.6486C41.0279-38.6856 37.8099-40.624 35.6606-42.9016C34.7008-41.4812 33.704-39.8967 32.8254-38.1263C30.9858-34.6063 28.9905-32.782 27.5639-31.5195C26.85-30.7464 26.4178-30.0998 26.4178-29.1573C26.4178-27.8269 27.6068-27.013 29.832-27.013C30.5536-27.013 31.2996-27.013 32.0141-27.013C34.2957-27.013 36.1518-26.6595 37.7623-26.0679ZM51.3197-21.4059C55.9942-21.4059 59.3627-23.6324 62.1783-24.9518C58.6787-28.0073 56.5431-32.4565 56.2441-36.8552C54.629-36.4562 52.9626-36.2362 51.36-36.2362C49.7087-36.2362 48.1487-36.442 46.5542-36.8197C46.2157-32.6087 44.0708-28.0665 40.7346-24.9062C43.4374-23.7649 46.7299-21.4059 51.3197-21.4059ZM64.9101-26.2122C66.6459-26.6634 68.4996-27.0303 70.7068-27.1393C72.3388-27.1938 74.0181-27.4523 74.8207-27.9822C72.9267-31.0785 69.1503-39.7627 67.002-43.1138C64.7377-40.833 61.5261-38.7197 58.9446-37.7204C59.3027-33.7017 61.5132-29.2619 64.9101-26.2122ZM86.0371-31.8315C91.6434-31.8315 95.2065-33.8315 95.2065-36.9972C95.2065-44.1942 91.3973-49.0357 85.6553-49.0357C80.7176-49.0357 77.5805-45.9692 76.3872-41.2928C75.5984-38.4948 74.4227-37.1943 73.3302-36.3339C74.417-34.365 75.9213-31.3762 77.2687-28.9142C80.1682-30.1732 82.1816-31.8315 86.0371-31.8315ZM86.1578-38.9316C85.0765-38.9316 84.2373-39.8488 84.2373-40.919C84.2373-41.9633 85.0765-42.8584 86.1578-42.8584C87.1878-42.8584 88.1082-41.9633 88.1082-40.919C88.1082-39.8488 87.1878-38.9316 86.1578-38.9316ZM32.2215-17.7323C35.7898-17.7323 39.3709-19.1525 41.2945-21.2911C38.683-22.739 36.0127-24.048 33.2208-24.367C32.2376-24.0839 31.2386-23.9742 30.2301-23.7833C28.6718-23.426 27.191-22.7083 27.191-21.1193C27.191-18.972 29.3547-17.7323 32.2215-17.7323ZM70.495-17.6968C73.417-17.6968 75.543-18.9436 75.543-21.0468C75.543-22.8284 73.9177-23.966 72.2251-24.1712C71.2088-24.277 70.3478-24.3275 69.2716-24.3891C66.7488-24.0915 63.2371-22.5465 61.2657-21.3211C63.1089-19.1099 66.9385-17.6968 70.495-17.6968Z" />
</svg>