<svg xmlns="http://www.w3.org/2000/svg" viewBox="12.4609 -75.2673 137.96 80.08">
  <path d="M12.4609-11.6574C12.4609-0.925027 18.2313 4.80831 29.0378 4.80831L124.652 4.80831C141.168 4.80831 150.416-4.60905 150.416-16.7101C150.416-23.9502 147.056-31.7438 140.224-38.5127L120.043-58.4818C106.978-71.4115 98.5816-75.2673 83.1629-75.2673L29.0378-75.2673C18.2313-75.2673 12.4609-69.534 12.4609-58.8016ZM67.3949-35.108L67.3949-52.2843C67.3949-55.0073 69.0177-56.5932 71.7336-56.5932L82.8328-56.5932C97.1752-56.5932 102.834-54.8314 109.604-48.1056L120.03-37.7787C122.867-34.9298 121.31-30.8504 118.187-30.8504L71.7336-30.8504C69.0177-30.8504 67.3949-32.5104 67.3949-35.108Z"/>
</svg>