<svg xmlns="http://www.w3.org/2000/svg" viewBox="12.4609 -100.155 93.87 129.37">
  <path d="M32.1663 8.63709L86.6231 8.63709C98.9559 8.63709 106.328 0.584485 106.328-11.5214L106.328-44.5019C106.328-58.0224 104.964-68.9442 103.026-77.2069C100.229-90.2208 92.759-97.4456 80.6112-99.0581C76.6248-99.575 68.4641-100.155 59.3797-100.155C49.6286-100.155 42.1646-99.575 38.1411-99.0581C26.0304-97.4456 18.5233-90.2208 15.7635-77.2069C13.8253-68.9442 12.4609-58.3558 12.4609-44.7911L12.4609-11.5214C12.4609 0.584485 19.8335 8.63709 32.1663 8.63709ZM33.5229-0.214803C25.2206-0.214803 21.2402-5.11723 21.2402-12.2477L21.2402-44.7911C21.2402-58.0737 22.6055-67.848 24.4159-75.8515C26.3315-84.8035 31.2407-89.4294 39.4382-90.402C43.1745-90.8754 50.1225-91.3035 59.3797-91.3035C67.9631-91.3035 75.5779-90.8754 79.3583-90.402C87.5487-89.4294 92.465-84.8035 94.3734-75.8515C96.1469-67.848 97.5492-57.7403 97.5492-44.5019L97.5492-12.2477C97.5492-5.11723 93.5317-0.214803 85.2664-0.214803ZM46.9012-77.8277L71.8882-77.8277C74.0437-77.8277 75.4911-79.2964 75.4911-81.4079C75.4911-83.5603 74.0437-84.9919 71.8882-84.9919L46.9012-84.9919C44.7528-84.9919 43.3164-83.5603 43.3164-81.4079C43.3164-79.2783 44.7528-77.8277 46.9012-77.8277ZM59.3797-27.2517C71.6634-27.314 80.8248-27.81 85.9773-28.4377C89.1433-28.8226 90.5942-30.9152 90.5942-33.9149L90.5942-45.7955C90.5942-55.2927 89.5374-63.5281 88.849-66.6902C88.3687-69.1244 86.7814-70.8503 84.3283-71.143C79.0562-71.7888 72.5929-72.1445 59.3797-72.2179C46.0978-72.1445 39.7008-71.7888 34.3388-71.1359C31.9653-70.8503 30.3695-69.1244 29.8892-66.6902C29.2378-63.5281 28.181-55.2927 28.181-45.7955L28.181-33.9149C28.181-30.9152 29.6319-28.8226 32.7979-28.4377C37.9322-27.81 47.0754-27.314 59.3797-27.2517ZM36.3392-7.23858C40.1791-7.23858 43.1428-10.1211 43.1428-14.0351C43.1428-17.9121 40.2532-20.7875 36.3392-20.7875C32.4875-20.7875 29.605-17.9121 29.605-14.0351C29.605-10.1211 32.4693-7.23858 36.3392-7.23858ZM82.3903-7.20154C86.1608-7.20154 89.1616-10.1581 89.1616-14.0351C89.1616-17.875 86.2231-20.8245 82.3903-20.8245C78.5133-20.8245 75.5496-17.875 75.5496-14.0351C75.5496-10.1581 78.5133-7.20154 82.3903-7.20154ZM23.2155 29.2123L26.4809 29.2123C28.1775 29.2123 29.1374 28.6334 30.05 27.1781L45.2372 2.75301L33.7791 2.75301L20.5496 23.9845C19.1189 26.3033 20.2844 29.2123 23.2155 29.2123ZM28.3089 22.8075L89.9846 22.8075L89.9846 14.1268L28.3089 14.1268ZM91.8497 29.2123L94.7519 29.2123C97.683 29.2123 99.1375 26.2662 97.5434 23.7304L84.5515 2.75301L73.1304 2.75301L88.3176 27.1781C89.1931 28.6334 90.1901 29.2123 91.8497 29.2123Z"/>
</svg>