<svg xmlns="http://www.w3.org/2000/svg" viewBox="8.72266 -86.0994 101.84 101.8">
  <path d="M59.6238 15.7028C87.7321 15.7028 110.562-7.12702 110.562-35.1983C110.562-63.2697 87.7321-86.0994 59.6238-86.0994C31.5524-86.0994 8.72266-63.2697 8.72266-35.1983C8.72266-7.12702 31.5524 15.7028 59.6238 15.7028ZM75.7447-62.4345C79.5437-62.4345 82.0691-59.7585 82.0691-55.9058L82.0691-49.2701L36.9191-49.2701L36.9191-55.9058C36.9191-59.7585 39.4445-62.4345 43.2805-62.4345ZM46.458-52.3279C47.8532-52.3279 48.9369-53.4486 48.9369-54.8068C48.9369-56.232 47.8532-57.378 46.458-57.378C45.0698-57.378 43.9238-56.232 43.9238-54.8068C43.9238-53.4486 45.0698-52.3279 46.458-52.3279ZM53.5317-52.3279C54.9199-52.3279 56.0406-53.4486 56.0406-54.8068C56.0406-56.232 54.9199-57.378 53.5317-57.378C52.0995-57.378 51.0047-56.232 51.0047-54.8068C51.0047-53.4486 52.0995-52.3279 53.5317-52.3279ZM67.855-53.2128L73.8006-53.2128C74.773-53.2128 75.4135-53.8833 75.4135-54.8068C75.4135-55.7974 74.773-56.4379 73.8006-56.4379L67.855-56.4379C66.9685-56.4379 66.2981-55.7974 66.2981-54.8068C66.2981-53.8833 66.9685-53.2128 67.855-53.2128ZM43.2805-8.11037C39.4445-8.11037 36.9191-10.7864 36.9191-14.639L36.9191-45.3079L82.0691-45.3079L82.0691-14.639C82.0691-10.7864 79.5437-8.11037 75.7447-8.11037ZM59.5126-13.6687C67.1894-13.6687 73.4331-19.9196 73.4331-27.5963C73.4331-35.273 67.1894-41.5167 59.5126-41.5167C51.7989-41.5167 45.5552-35.273 45.5552-27.5963C45.5552-19.9196 51.7989-13.6687 59.5126-13.6687ZM59.5126-17.5024C53.8416-17.5024 49.3888-21.9551 49.3888-27.5963C49.3888-33.2303 53.8416-37.7272 59.5126-37.7272C65.1467-37.7272 69.5994-33.2303 69.5994-27.5963C69.5994-21.9551 65.1467-17.5024 59.5126-17.5024Z"/>
</svg>