<svg xmlns="http://www.w3.org/2000/svg" viewBox="12.4609 -74.519 105.65 85.52">
  <path d="M65.3034-55.6814C79.3673-55.6814 81.3379-65.715 88.7531-65.715C96.3007-65.715 97.5065-55.6814 113.394-55.6814L113.716-55.6814C116.143-55.6814 118.109-57.647 118.109-60.074C118.109-62.5128 116.143-64.4854 113.716-64.4854L113.394-64.4854C108.749-64.4854 105.902-66.3331 101.954-69.1425C98.7403-71.4841 94.5326-74.519 88.7531-74.519C82.8111-74.519 78.5664-71.3587 75.3526-68.973C71.9336-66.4003 69.3847-64.4854 65.3034-64.4854C61.1851-64.4854 58.6361-66.4003 55.2172-68.973C52.0033-71.3587 47.7586-74.519 41.8537-74.519C36.0371-74.519 31.8365-71.4841 28.6227-69.1425C24.6743-66.3331 21.8209-64.4854 17.2124-64.4854L16.8905-64.4854C14.4336-64.4854 12.4609-62.5128 12.4609-60.074C12.4609-57.647 14.4336-55.6814 16.8905-55.6814L17.2124-55.6814C33.1003-55.6814 34.3061-65.715 41.8537-65.715C49.2688-65.715 51.2025-55.6814 65.3034-55.6814ZM41.8537-35.9069C46.2986-35.9069 48.6305-32.3549 52.8726-29.8149L52.8726-34.0405C52.8726-36.1859 53.1812-38.3651 53.6896-40.3297C52.8645-40.7564 52.1008-41.2842 51.3072-41.782C48.7101-43.3868 45.6313-44.748 41.8537-44.748C36.0371-44.748 31.8365-41.7131 28.6227-39.3715C24.6743-36.5621 21.8209-34.7144 17.2124-34.7144L16.8905-34.7144C14.4336-34.7144 12.4609-32.7418 12.4609-30.303C12.4609-27.8461 14.4336-25.8734 16.8905-25.8734L17.2124-25.8734C33.1003-25.8734 34.3061-35.9069 41.8537-35.9069ZM88.7531-35.9069C96.3007-35.9069 97.5065-25.8734 113.394-25.8734L113.716-25.8734C116.143-25.8734 118.109-27.8461 118.109-30.303C118.109-32.7418 116.143-34.7144 113.716-34.7144L113.394-34.7144C108.749-34.7144 105.902-36.5621 101.954-39.3715C98.7403-41.7131 94.5326-44.748 88.7531-44.748C84.884-44.748 81.824-43.3686 79.1536-41.7275C78.3963-41.2479 77.6761-40.7383 76.9314-40.3297C77.4397-38.3651 77.7484-36.2229 77.7484-34.0405L77.7484-29.822C81.9463-32.362 84.3082-35.9069 88.7531-35.9069ZM51.4243-14.7922C47.8555-14.7922 46.3679-11.3646 48.5726-8.55898L61.8859 8.49363C63.8742 10.9985 66.5456 10.9978 68.5592 8.49363L81.8284-8.59602C84.0511-11.3828 82.472-14.7922 78.9955-14.7922ZM60.2752-41.4762L60.2752-5.81528C60.2752-3.19348 62.4868-0.909249 65.2734-0.909249C68.0231-0.909249 70.2717-3.19348 70.2717-5.81528L70.2717-41.4762C70.2717-44.1351 68.0231-46.4122 65.2734-46.4122C62.4868-46.4122 60.2752-44.1351 60.2752-41.4762Z"/>
</svg>