<svg xmlns="http://www.w3.org/2000/svg" viewBox="8.30413 -76.8043 115.34 83.21">
  <path d="M65.9905 6.40767C67.2627 6.40767 68.3323 5.82555 70.356 3.88938L82.4187-7.7254C83.3447-8.6262 83.5427-10.1028 82.6718-11.1677C79.1392-15.6641 72.8557-19.1419 65.9905-19.1419C58.948-19.1419 52.5484-15.4985 49.0165-10.7275C48.3909-9.79121 48.7096-8.58988 49.6183-7.7254L61.6321 3.88938C63.6559 5.78851 64.7554 6.40767 65.9905 6.40767ZM36.7848-20.9551C38.0011-19.7381 39.6788-19.8674 40.8911-21.1601C46.9089-27.6722 56.3998-32.1247 65.9723-32.0806C75.6553-32.1247 85.1636-27.5248 91.2925-20.9764C92.3945-19.757 93.9436-19.8303 95.204-20.9921L102.959-28.4772C103.929-29.4292 104.028-30.7882 103.175-31.8396C95.4033-41.1178 81.3157-47.7319 65.9723-47.7319C50.6361-47.7319 36.5556-41.1106 28.8138-31.8396C27.924-30.7882 27.9856-29.5033 29.0299-28.4772ZM16.2674-41.2269C17.3804-40.0587 19.1385-40.0768 20.2704-41.3073C32.3828-54.0916 48.2067-60.834 65.9723-60.834C83.8484-60.834 99.763-54.083 111.822-41.234C112.88-40.132 114.582-40.1872 115.714-41.3373L122.634-48.231C123.648-49.2824 123.648-50.6841 122.788-51.7055C110.909-66.3989 88.7702-76.8043 65.9723-76.8043C43.2187-76.8043 21.0653-66.406 9.16394-51.7055C8.30413-50.6841 8.34755-49.2824 9.3548-48.231Z"/>
</svg>