<svg xmlns="http://www.w3.org/2000/svg" viewBox="8.72266 -86.1618 101.84 101.8">
  <path d="M59.6238 15.6405C87.7321 15.6405 110.562-7.18932 110.562-35.2606C110.562-63.332 87.7321-86.1618 59.6238-86.1618C31.5524-86.1618 8.72266-63.332 8.72266-35.2606C8.72266-7.18932 31.5524 15.6405 59.6238 15.6405ZM45.0498-11.8562C42.2023-11.8562 40.1264-13.8146 40.1264-16.5201C40.1264-17.8586 40.5066-18.8762 41.4808-20.1951L52.8932-35.7177L42.0207-50.5215C40.8984-51.9885 40.4811-52.9991 40.4811-54.4117C40.4811-57.1755 42.6981-59.2451 45.5826-59.2451C47.8117-59.2451 49.0957-58.4279 50.6898-56.0141L59.8254-42.4959L60.1654-42.4959L69.1023-55.977C70.5868-58.3916 71.8701-59.2451 74.0542-59.2451C76.9459-59.2451 79.0518-57.2795 79.0518-54.537C79.0518-53.3096 78.6345-52.1509 77.6232-50.832L66.2849-35.5324L77.5648-20.3575C78.5391-19.0386 78.9564-17.9839 78.9564-16.6454C78.9564-13.8146 76.8505-11.8562 73.8548-11.8562C71.6635-11.8562 70.4543-12.7025 68.8217-15.1983L59.6839-28.6352L59.3809-28.6352L50.0758-15.1983C48.3706-12.6662 47.2418-11.8562 45.0498-11.8562Z"/>
</svg>