<svg xmlns="http://www.w3.org/2000/svg" viewBox="12.4609 -79.1671 114.65 87.85">
  <path d="M53.7262-79.1671C24.9384-79.1671 12.4609-66.3406 12.4609-38.4577L12.4609-7.4965C12.4609 3.01825 18.1619 8.68212 28.7877 8.68212L110.788 8.68212C121.377 8.68212 127.115 3.00403 127.115-7.4965L127.115-38.4577C127.115-66.3406 114.638-79.1671 85.8429-79.1671ZM54.038-68.2605L85.5381-68.2605C107.018-68.2605 116.209-59.0715 116.209-38.6979L116.209-8.64226C116.209-4.3885 113.912-2.22445 109.828-2.22445L29.7483-2.22445C25.5985-2.22445 23.3305-4.3885 23.3305-8.64226L23.3305-38.6979C23.3305-59.0715 32.5513-68.2605 54.038-68.2605ZM49.7975-15.8632L66.0124-15.8632C67.8366-15.8632 69.189-17.2408 69.189-19.0832C69.189-21.0526 67.7095-22.3584 66.0124-22.3584L54.5277-22.3584L54.5277-22.6447L67.6977-47.5163C68.1685-48.4018 68.5826-49.3468 68.5826-50.6173C68.5826-52.8973 66.9563-54.3917 64.6725-54.3917L49.1493-54.3917C47.3543-54.3917 45.7951-53.0867 45.7951-51.1607C45.7951-49.3838 47.1728-47.9335 49.1493-47.9335L59.9754-47.9335L59.9754-47.6473L46.6618-22.6589C46.1295-21.5942 45.8945-20.6588 45.8945-19.4909C45.8945-17.2212 47.4922-15.8632 49.7975-15.8632ZM78.7614-15.9561L91.7294-15.9561C93.4992-15.9561 94.9605-17.4246 94.9605-19.1943C94.9605-20.964 93.4992-22.4325 91.7294-22.4325L82.7306-22.4325L82.7306-51.1424C82.7306-53.2797 80.9609-55.0494 78.8237-55.0494C76.6541-55.0494 74.8915-53.2797 74.8915-51.1424L74.8915-20.061C74.8915-17.5161 76.2977-15.9561 78.7614-15.9561Z"/>
</svg>