<svg xmlns="http://www.w3.org/2000/svg" viewBox="6.83594 -75.9521 81.42 81.4">
  <path d="M47.5342 5.44434C70.0195 5.44434 88.2568-12.7686 88.2568-35.2539C88.2568-57.7393 70.0195-75.9521 47.5342-75.9521C25.0732-75.9521 6.83594-57.7393 6.83594-35.2539C6.83594-12.7686 25.0732 5.44434 47.5342 5.44434ZM47.5342-5.34668C31.0059-5.34668 17.6514-18.7256 17.6514-35.2539C17.6514-51.7822 31.0059-65.1611 47.5342-65.1611C64.0625-65.1611 77.4414-51.7822 77.4414-35.2539C77.4414-18.7256 64.0625-5.34668 47.5342-5.34668ZM37.5488-19.9951C39.4531-19.9951 40.9912-21.5332 40.9912-23.4619L40.9912-46.6553C40.9912-49.1699 39.4775-50.5371 36.9873-50.5371C35.083-50.5371 33.6914-49.6582 32.4951-48.7549L29.126-46.167C28.1738-45.4834 27.6367-44.6045 27.6367-43.457C27.6367-41.8457 28.7354-41.0156 29.9316-41.0156C30.6152-41.0156 31.0791-41.2109 31.5918-41.626L34.082-43.6035L34.082-23.4619C34.082-21.5332 35.6201-19.9951 37.5488-19.9951ZM55.6152-19.7266C61.2549-19.7266 65.3809-23.0469 65.3809-28.5645C65.3809-32.7881 62.8906-35.1807 59.7656-35.5713L59.7656-35.7178C62.5488-36.4502 64.502-39.1846 64.502-42.5537C64.502-47.7539 60.6689-50.708 55.4199-50.708C51.6357-50.708 48.0225-48.6816 46.9727-45.2637C46.7773-44.6289 46.6797-43.9453 46.6797-43.2373C46.6797-41.8945 47.5342-40.5518 49.5117-40.5518C50.9277-40.5518 52.1484-41.04 52.5635-42.5781C53.0029-44.165 53.8574-45.4102 55.4688-45.4102C57.3486-45.4102 58.1055-43.7012 58.1055-41.8213C58.1055-39.6729 57.1045-37.8174 54.7119-37.8174L54.248-37.8174C52.5879-37.8174 51.6846-36.8896 51.6846-35.4248C51.6846-33.9355 52.5635-33.0566 54.248-33.0566L54.7607-33.0566C57.4463-33.0566 58.7158-31.5918 58.7158-28.9307C58.7158-26.9287 57.7881-25.0488 55.5908-25.0488C53.6865-25.0488 52.8076-26.3184 52.3438-27.6611C51.8311-29.1504 50.8057-29.9316 49.3164-29.9316C47.4609-29.9316 46.2646-28.8086 46.2646-26.9531C46.2646-26.2451 46.3623-25.5615 46.5576-24.9512C47.6318-21.5332 51.4893-19.7266 55.6152-19.7266Z" />
</svg>