<svg xmlns="http://www.w3.org/2000/svg" viewBox="9.76562 -72.0947 73.71 73.73">
  <path d="M23.6084 1.63574L69.6289 1.63574C78.5889 1.63574 83.4717-3.24707 83.4717-12.1338L83.4717-58.3252C83.4717-67.2119 78.5889-72.0947 69.6289-72.0947L23.6084-72.0947C14.6729-72.0947 9.76562-67.2119 9.76562-58.3252L9.76562-12.1338C9.76562-3.24707 14.6729 1.63574 23.6084 1.63574ZM24.7803-8.98438C21.8994-8.98438 20.3613-10.376 20.3613-13.4277L20.3613-57.0312C20.3613-60.1074 21.8994-61.4746 24.7803-61.4746L68.457-61.4746C71.3379-61.4746 72.876-60.1074 72.876-57.0312L72.876-13.4277C72.876-10.376 71.3379-8.98438 68.457-8.98438ZM36.4258-19.9951C38.3301-19.9951 39.8682-21.5332 39.8682-23.4619L39.8682-46.6553C39.8682-49.1699 38.3545-50.5371 35.8643-50.5371C33.96-50.5371 32.5684-49.6582 31.3721-48.7549L28.0029-46.167C27.0752-45.4834 26.5137-44.6045 26.5137-43.457C26.5137-41.8457 27.6123-41.0156 28.833-41.0156C29.4922-41.0156 29.9561-41.2109 30.4932-41.626L32.9834-43.6035L32.9834-23.4619C32.9834-21.5332 34.5215-19.9951 36.4258-19.9951ZM54.6631-19.6533C60.6201-19.6533 63.7451-24.4873 63.7451-30.4932C63.7451-35.2295 61.7676-40.1367 57.0068-40.1367C54.541-40.1367 52.8564-38.7451 52.1729-37.0117L51.9775-37.0117L52.4414-44.6289L60.1807-44.6289C61.8652-44.6289 62.7197-45.8252 62.7197-47.3145C62.7197-48.9014 61.7676-50 60.1807-50L50.2197-50C48.0225-50 47.0215-48.5596 46.8994-46.3379L46.4844-37.1094C46.46-36.7188 46.4355-36.0107 46.4355-35.5957C46.4355-33.6426 47.4365-32.251 49.4385-32.251C50.6348-32.251 51.3184-32.5928 52.0752-33.7402C52.6855-34.6436 53.3936-35.4248 54.4922-35.4248C56.5918-35.4248 57.2754-32.5928 57.2754-30.3223C57.2754-27.9785 56.665-25 54.5166-25C53.0029-25 52.1973-26.123 51.6602-27.5879C51.123-29.0039 50.0977-29.7363 48.8281-29.7363C47.1436-29.7363 46.1182-28.6621 46.1182-26.9775C46.1182-26.1963 46.2646-25.4639 46.5332-24.7559C47.6807-21.8018 51.0498-19.6533 54.6631-19.6533Z" />
</svg>