<svg xmlns="http://www.w3.org/2000/svg" viewBox="6.83594 -75.9521 81.42 81.4">
  <path d="M47.5342 5.44434C70.0195 5.44434 88.2568-12.793 88.2568-35.2539C88.2568-57.7148 70.0195-75.9521 47.5342-75.9521C25.0732-75.9521 6.83594-57.7148 6.83594-35.2539C6.83594-12.793 25.0732 5.44434 47.5342 5.44434ZM38.4277-17.3096C35.7666-17.3096 33.96-18.9941 33.96-21.4111C33.96-22.876 34.3994-24.2432 36.084-25.7324L47.0215-36.1084C49.6094-38.4766 51.3428-40.3809 51.3428-42.5049C51.3428-44.6045 49.8047-45.9473 47.4121-45.9473C44.8486-45.9473 43.5791-44.1895 42.5049-42.627C41.5527-41.3574 40.5029-40.21 38.3301-40.21C35.6201-40.21 33.8135-41.626 33.8135-44.165C33.8135-44.8975 33.9355-45.6055 34.2041-46.3379C35.8154-50.9521 41.2109-54.1992 47.6807-54.1992C55.957-54.1992 61.5234-49.8535 61.5234-43.4326C61.5234-39.2822 59.1553-36.084 54.8828-32.251L48.6572-26.0986L48.6572-25.7568L58.4717-25.7568C61.377-25.7568 63.1592-24.2188 63.1592-21.5576C63.1592-18.9453 61.3281-17.3096 58.4717-17.3096Z"/>
</svg>