<svg xmlns="http://www.w3.org/2000/svg" viewBox="6.83594 -75.9521 81.42 81.4">
  <path d="M47.5342 5.44434C70.0195 5.44434 88.2568-12.7686 88.2568-35.2539C88.2568-57.7393 70.0195-75.9521 47.5342-75.9521C25.0732-75.9521 6.83594-57.7393 6.83594-35.2539C6.83594-12.7686 25.0732 5.44434 47.5342 5.44434ZM47.5342-5.34668C31.0059-5.34668 17.6514-18.7256 17.6514-35.2539C17.6514-51.7822 31.0059-65.1611 47.5342-65.1611C64.0625-65.1611 77.4414-51.7822 77.4414-35.2539C77.4414-18.7256 64.0625-5.34668 47.5342-5.34668ZM36.084-19.7266C41.7236-19.7266 45.8252-23.0469 45.8252-28.5645C45.8252-32.7881 43.3594-35.1807 40.2344-35.5713L40.2344-35.7178C43.0176-36.4502 44.9707-39.1846 44.9707-42.5537C44.9707-47.7539 41.1133-50.708 35.8887-50.708C32.0801-50.708 28.4668-48.6816 27.4414-45.2637C27.2217-44.6289 27.1484-43.9453 27.1484-43.2373C27.1484-41.8945 28.0029-40.5518 29.9805-40.5518C31.3965-40.5518 32.5928-41.04 33.0322-42.5781C33.4717-44.165 34.3018-45.4102 35.9375-45.4102C37.8174-45.4102 38.5742-43.7012 38.5742-41.8213C38.5742-39.6729 37.5732-37.8174 35.1807-37.8174L34.7168-37.8174C33.0566-37.8174 32.1289-36.8896 32.1289-35.4248C32.1289-33.9355 33.0322-33.0566 34.7168-33.0566L35.2295-33.0566C37.8906-33.0566 39.1846-31.5918 39.1846-28.9307C39.1846-26.9287 38.2324-25.0488 36.0596-25.0488C34.1553-25.0488 33.252-26.3184 32.8125-27.6611C32.2998-29.1504 31.2744-29.9316 29.7607-29.9316C27.9297-29.9316 26.709-28.8086 26.709-26.9531C26.709-26.2451 26.8311-25.5615 27.0264-24.9512C28.0762-21.5332 31.958-19.7266 36.084-19.7266ZM59.2773-19.6533C65.0879-19.6533 68.3105-24.4385 68.3105-30.1758C68.3105-34.9854 66.2109-39.6484 61.4746-39.6484C58.5693-39.6484 56.6162-37.6465 55.8594-34.8633L55.7617-34.8633C55.7617-35.2783 55.7617-35.7422 55.7617-36.1572C55.7617-40.7227 56.4453-45.4346 59.1309-45.4346C60.3516-45.4346 61.0352-44.5312 61.6211-43.4326C62.3047-42.0898 63.1592-41.5283 64.5752-41.5283C66.5283-41.5283 67.2852-42.8711 67.2852-44.3604C67.2852-44.7754 67.2363-45.3369 67.1143-45.8008C66.2354-49.0967 63.0127-50.7812 59.3506-50.7812C51.6113-50.7812 49.3164-42.7734 49.3164-35.0586C49.3164-28.2471 51.5137-19.6533 59.2773-19.6533ZM59.1553-25C57.2754-25 56.4697-27.417 56.4697-29.9805C56.4697-32.5439 57.3242-34.7168 59.1553-34.7168C61.0352-34.7168 61.8652-32.4463 61.8164-29.8584C61.8164-27.2949 60.9375-25 59.1553-25Z" />
</svg>