<svg xmlns="http://www.w3.org/2000/svg" viewBox="6.83594 -75.9521 81.42 81.4">
  <path d="M47.5342 5.44434C70.0195 5.44434 88.2568-12.793 88.2568-35.2539C88.2568-57.7148 70.0195-75.9521 47.5342-75.9521C25.0732-75.9521 6.83594-57.7148 6.83594-35.2539C6.83594-12.793 25.0732 5.44434 47.5342 5.44434ZM39.0137-19.6289C37.3535-19.6289 35.7178-20.6055 35.7178-22.998L35.7178-25.4883L28.7354-25.4883C26.2939-25.4883 24.8291-26.8799 24.8291-29.2969C24.8291-30.6885 25.1221-32.0557 25.7568-33.667L30.3711-44.8975C31.6162-48.1201 33.0078-50.7568 36.9873-50.7568C40.1855-50.7568 42.3096-48.9502 42.3096-45.7275L42.3096-30.957L42.9932-30.957C44.8242-30.957 45.6299-29.8828 45.6299-28.2471C45.6299-26.7822 44.9219-25.4883 42.9688-25.4883L42.3096-25.4883L42.3096-22.998C42.3096-20.6299 40.8447-19.6289 39.0137-19.6289ZM35.9131-30.7617L35.9131-45.2393L35.7666-45.2393L30.542-31.0547L30.542-30.7617ZM58.9844-19.3604C51.2695-19.3604 48.877-27.5879 48.877-35.2539C48.877-42.9199 51.2695-51.1475 58.9844-51.1475C66.7236-51.1475 69.0918-42.9199 69.0918-35.2539C69.0918-27.5879 66.7236-19.3604 58.9844-19.3604ZM58.9844-24.9023C61.1328-24.9023 62.0605-28.7598 62.0605-35.2539C62.0605-41.748 61.1328-45.6055 58.9844-45.6055C56.8359-45.6055 55.9082-41.748 55.9082-35.2539C55.9082-28.7598 56.8359-24.9023 58.9844-24.9023Z"/>
</svg>