<svg xmlns="http://www.w3.org/2000/svg" viewBox="9.76562 -64.8193 104.15 59.18">
  <path d="M42.041-6.00586C45.3369-6.00586 47.9248-8.61816 47.9248-11.9873L47.9248-17.1143L50.5859-17.1143C53.4424-17.1143 55.5908-19.1895 55.5908-22.0703C55.5908-24.8535 53.4668-27.002 50.6104-27.002L47.9248-27.002L47.9248-54.9316C47.9248-60.5469 43.7256-64.4775 37.8174-64.4775C32.0557-64.4775 28.5645-60.8154 26.1475-56.25L11.2305-29.7363C10.3027-28.0273 9.76562-26.1475 9.76562-24.3896C9.76562-20.5078 12.1338-17.1143 17.4561-17.1143L36.1572-17.1143L36.1572-11.9873C36.1572-8.39844 38.9404-6.00586 42.041-6.00586ZM36.4258-26.6113L20.2881-26.6113L20.2881-27.002L36.0352-54.3945L36.4258-54.3945ZM67.8223-5.63965C71.6309-5.63965 73.6816-7.2998 74.7803-11.3037L77.4414-19.4336L97.4854-19.4336L100.146-11.3037C101.245-7.2998 103.32-5.63965 107.129-5.63965C111.255-5.63965 113.916-8.12988 113.916-11.9385C113.916-13.4277 113.721-14.6484 113.184-16.1865L98.584-57.2266C96.7773-62.3779 93.2861-64.8193 87.5732-64.8193C82.1289-64.8193 78.6865-62.3535 76.9043-57.2266L62.0117-15.6738C61.5479-14.2578 61.3037-12.9883 61.3037-11.7676C61.3037-7.9834 63.7695-5.63965 67.8223-5.63965ZM80.3955-29.5166L87.4512-52.0264L87.7441-52.0264L94.7998-29.5166Z"/>
</svg>