<svg xmlns="http://www.w3.org/2000/svg" viewBox="6.83594 -75.9521 81.42 81.4">
  <path d="M47.5342 5.44434C70.0195 5.44434 88.2568-12.7686 88.2568-35.2539C88.2568-57.7393 70.0195-75.9521 47.5342-75.9521C25.0732-75.9521 6.83594-57.7393 6.83594-35.2539C6.83594-12.7686 25.0732 5.44434 47.5342 5.44434ZM47.5342-5.34668C31.0059-5.34668 17.6514-18.7256 17.6514-35.2539C17.6514-51.7822 31.0059-65.1611 47.5342-65.1611C64.0625-65.1611 77.4414-51.7822 77.4414-35.2539C77.4414-18.7256 64.0625-5.34668 47.5342-5.34668ZM47.3389-17.3584C56.0059-17.3584 61.6211-22.2656 61.6211-29.9561C61.6211-36.6943 57.0068-41.1377 50.0977-41.1377C46.8506-41.1377 43.75-39.8193 42.5781-37.8906L42.1143-37.8906L42.7002-45.1172L56.2256-45.1172C58.6182-45.1172 60.1318-46.46 60.1318-48.6572C60.1318-50.8789 58.667-52.1729 56.2256-52.1729L40.4785-52.1729C37.3291-52.1729 35.2295-50.1953 35.0342-47.2656L34.3018-37.0361C34.082-33.7402 35.9131-31.8604 39.4043-31.8604C41.2842-31.8604 42.3828-32.2998 43.7744-33.1543C45.0684-33.9844 46.0938-34.4238 47.583-34.4238C50.293-34.4238 52.124-32.5195 52.124-29.7119C52.124-26.9043 49.9756-24.8047 47.0703-24.8047C44.7266-24.8047 43.0908-25.8057 41.8945-27.3682C40.9912-28.3447 39.8926-29.0039 38.0127-29.0039C35.4492-29.0039 33.9111-27.5391 33.9111-25.3418C33.9111-24.585 34.082-23.877 34.375-23.1934C35.8887-19.6045 40.5518-17.3584 47.3389-17.3584Z" />
</svg>