<svg xmlns="http://www.w3.org/2000/svg" viewBox="6.83594 -75.9521 81.42 81.4">
  <path d="M47.5342 5.44434C70.0195 5.44434 88.2568-12.793 88.2568-35.2539C88.2568-57.7148 70.0195-75.9521 47.5342-75.9521C25.0732-75.9521 6.83594-57.7148 6.83594-35.2539C6.83594-12.793 25.0732 5.44434 47.5342 5.44434ZM25.0488-23.4131C23.4619-23.4131 22.4365-24.3164 22.4365-26.0986C22.4365-26.6846 22.5586-27.3682 22.7051-27.9053L26.1719-43.6768C26.709-46.0938 28.2715-47.1191 30.3955-47.1191C32.7881-47.1191 34.3262-45.9961 34.8145-43.6768L38.3301-27.9053C38.4521-27.4414 38.5986-26.5137 38.5986-26.0986C38.5986-24.5605 37.5488-23.4131 36.0352-23.4131C34.4238-23.4131 33.5205-24.1943 33.1787-25.9766L32.7393-28.1006L28.1982-28.1006L27.8076-26.0254C27.5635-24.4141 26.709-23.4131 25.0488-23.4131ZM28.8574-32.1777L32.0557-32.1777L30.4688-40.7471L30.3223-40.7471ZM44.2139-23.7793C42.3584-23.7793 41.4307-24.8779 41.4307-26.709L41.4307-43.7988C41.4307-45.7031 42.4561-46.7285 44.2139-46.7285L49.9268-46.7285C53.4668-46.7285 55.5176-44.5557 55.5176-40.9912C55.5176-38.623 54.126-36.4746 51.8066-36.0352L51.8066-35.9131C54.248-35.8154 56.0059-33.0078 56.0059-30.3955C56.0059-26.7334 53.9795-23.7793 50.1709-23.7793ZM46.9727-27.7832L48.1445-27.7832C49.8291-27.7832 50.4395-29.1748 50.4395-30.8594C50.4395-32.5439 49.7803-33.8867 48.1201-33.8867L46.9727-33.8867ZM46.9727-37.3291L47.9736-37.3291C49.6338-37.3291 50.293-38.501 50.293-40.0635C50.293-41.6504 49.7803-42.7246 48.1934-42.7246L46.9727-42.7246ZM65.2588-23.1934C62.1826-23.1934 59.7412-24.5117 58.7402-27.2217C58.4961-27.8076 58.374-28.3691 58.374-28.8818C58.374-30.3467 59.4482-31.2744 60.7666-31.2744C62.1094-31.2744 62.9883-30.6641 63.4033-29.3945C63.7207-28.3936 64.2334-27.5879 65.2588-27.5879C66.3574-27.5879 66.9922-28.4912 66.9922-29.6875C66.9922-31.4453 65.7959-32.1533 64.209-32.9346L62.793-33.6426C60.1807-34.9365 58.3008-36.9141 58.3008-40.4053C58.3008-44.873 61.3281-47.3389 65.2588-47.3389C68.2373-47.3389 70.6543-45.752 71.582-43.1641C71.7773-42.6514 71.9238-42.0898 71.9238-41.5039C71.9238-40.2588 71.1914-39.209 69.6777-39.209C68.4326-39.209 67.4316-39.7217 67.041-40.9668C66.6748-42.1143 66.2598-42.9199 65.2588-42.9199C64.209-42.9199 63.7695-42.0166 63.7695-40.8936C63.7695-39.1113 64.8193-38.4033 66.4551-37.6221L67.8955-36.9141C70.3613-35.7178 72.4609-34.1064 72.4609-30.2246C72.4609-25.9277 69.873-23.1934 65.2588-23.1934Z"/>
</svg>