<svg xmlns="http://www.w3.org/2000/svg" viewBox="9.76562 -83.667 96.73 96.85">
  <path d="M14.6484-73.7793L101.636-73.7793C104.321-73.7793 106.494-76.0254 106.494-78.7109C106.494-81.4209 104.321-83.667 101.636-83.667L14.6484-83.667C11.9385-83.667 9.76562-81.4209 9.76562-78.7109C9.76562-76.0254 11.9385-73.7793 14.6484-73.7793ZM30.3711 13.1836L44.4824 13.1836C51.0254 13.1836 55.0049 9.17969 55.0049 2.51465L55.0049-56.6406C55.0049-63.3057 51.0254-67.334 44.4824-67.334L30.3711-67.334C23.7793-67.334 19.8242-63.3057 19.8242-56.6406L19.8242 2.51465C19.8242 9.17969 23.7793 13.1836 30.3711 13.1836ZM32.2754 3.19824C30.7129 3.19824 29.8096 2.29492 29.8096 0.78125L29.8096-54.9316C29.8096-56.4453 30.7129-57.3242 32.2754-57.3242L42.5293-57.3242C44.1162-57.3242 44.9951-56.4453 44.9951-54.9316L44.9951 0.78125C44.9951 2.29492 44.1162 3.19824 42.5293 3.19824ZM71.9238-12.8174L86.0352-12.8174C92.6025-12.8174 96.5576-16.8213 96.5576-23.5107L96.5576-56.6406C96.5576-63.3057 92.6025-67.334 86.0352-67.334L71.9238-67.334C65.3564-67.334 61.377-63.3057 61.377-56.6406L61.377-23.5107C61.377-16.8213 65.3564-12.8174 71.9238-12.8174ZM73.8525-22.8271C72.2656-22.8271 71.3867-23.7061 71.3867-25.2441L71.3867-54.9316C71.3867-56.4453 72.2656-57.3242 73.8525-57.3242L84.1064-57.3242C85.6934-57.3242 86.5723-56.4453 86.5723-54.9316L86.5723-25.2441C86.5723-23.7061 85.6934-22.8271 84.1064-22.8271Z" />
</svg>