<svg xmlns="http://www.w3.org/2000/svg" viewBox="9.76562 -72.0947 73.71 73.73">
  <path d="M23.6084 1.63574L69.6289 1.63574C78.5889 1.63574 83.4717-3.24707 83.4717-12.1338L83.4717-58.3252C83.4717-67.2119 78.5889-72.0947 69.6289-72.0947L23.6084-72.0947C14.6729-72.0947 9.76562-67.2119 9.76562-58.3252L9.76562-12.1338C9.76562-3.24707 14.6729 1.63574 23.6084 1.63574ZM24.7803-8.98438C21.8994-8.98438 20.3613-10.376 20.3613-13.4277L20.3613-57.0312C20.3613-60.1074 21.8994-61.4746 24.7803-61.4746L68.457-61.4746C71.3379-61.4746 72.876-60.1074 72.876-57.0312L72.876-13.4277C72.876-10.376 71.3379-8.98438 68.457-8.98438ZM39.0137-15.1367C39.9658-15.1367 40.8691-15.5273 41.6016-16.2354L52.0264-26.5137C52.6611-27.1729 52.9785-28.0029 52.9785-28.9307C52.9785-30.7129 51.416-32.3242 49.5117-32.3242C48.6816-32.3242 47.8027-31.9824 47.1924-31.2744L43.8965-27.417L39.1602-20.6787L33.9111-27.9053L30.8594-31.25C30.249-31.9336 29.3945-32.2754 28.4912-32.2754C26.6357-32.2754 25.0488-30.6641 25.0488-28.8574C25.0488-27.9541 25.3662-27.1484 26.0498-26.4893L36.4258-16.2354C37.1582-15.5518 38.0371-15.1367 39.0137-15.1367ZM62.5488-29.9316C64.8438-29.9316 66.2354-31.5918 66.2354-33.9355L66.2354-39.3311C66.2354-48.5107 60.2051-55.0537 50.8301-55.0537C41.5527-55.0537 35.6934-48.5107 35.6934-39.2822L35.6934-28.5889L35.9619-21.3379C36.0352-19.5801 37.3779-18.1641 39.0869-18.1641C40.8447-18.1641 42.1875-19.5801 42.2607-21.3379L42.5781-28.5889L42.5781-39.2822C42.5781-44.0918 45.5811-47.6074 50.6348-47.6074C55.7373-47.6074 58.9844-44.1895 58.9844-39.3311L58.9844-33.9111C58.9844-31.6162 60.3271-29.9316 62.5488-29.9316Z" />
</svg>