<svg xmlns="http://www.w3.org/2000/svg" viewBox="5.76172 -72.0459 106.57 73.61">
  <path d="M67.8711 1.53809C71.6309 1.53809 74.4873-1.29395 74.4873-5.0293L74.4873-16.9922L75.0732-16.9922C87.2803-16.9922 94.2383-12.3535 99.2188-3.4668C101.05 0.0244141 103.296 1.0498 106.03 1.0498C109.912 1.0498 112.329-2.7832 112.329-10.4248C112.329-37.0117 100.024-53.3203 75.0732-53.3203L74.4873-53.3203L74.4873-65.332C74.4873-69.0674 71.6309-72.0459 67.8467-72.0459C65.4297-72.0459 63.6475-71.1182 60.9863-68.6768L30.4443-40.4053C28.9551-38.9648 28.2227-37.0361 28.2227-35.2539C28.2227-33.5693 28.9795-31.5186 30.4688-30.1025L60.9863-1.68457C63.4033 0.561523 65.3809 1.53809 67.8711 1.53809ZM45.4102 1.5625C48.3154 1.5625 50.6348 0.0244141 51.3672-2.00195L51.3672-2.24609L26.1963-25.3906C23.4619-27.8809 21.7041-31.4453 21.7041-35.2295C21.7041-39.0137 23.4131-42.5293 26.1719-45.0684L51.3672-68.1152L51.3672-68.3594C50.6348-70.4102 48.3154-72.0215 45.3613-72.0215C42.9688-72.0215 41.1865-71.0938 38.5254-68.6523L7.9834-40.3809C6.46973-38.9404 5.76172-37.0117 5.76172-35.2295C5.76172-33.5449 6.51855-31.4941 8.00781-30.0781L38.5254-1.66016C40.918 0.585938 42.8955 1.5625 45.4102 1.5625Z"/>
</svg>