<svg xmlns="http://www.w3.org/2000/svg" viewBox="9.76562 -72.0947 73.71 73.73">
  <path d="M23.6084 1.63574L69.6289 1.63574C78.5889 1.63574 83.4717-3.24707 83.4717-12.1338L83.4717-58.3252C83.4717-67.2119 78.5889-72.0947 69.6289-72.0947L23.6084-72.0947C14.6729-72.0947 9.76562-67.2119 9.76562-58.3252L9.76562-12.1338C9.76562-3.24707 14.6729 1.63574 23.6084 1.63574ZM24.7803-8.98438C21.8994-8.98438 20.3613-10.376 20.3613-13.4277L20.3613-57.0312C20.3613-60.1074 21.8994-61.4746 24.7803-61.4746L68.457-61.4746C71.3379-61.4746 72.876-60.1074 72.876-57.0312L72.876-13.4277C72.876-10.376 71.3379-8.98438 68.457-8.98438ZM25.2197-34.9365C25.2197-32.7148 26.7822-31.25 29.0283-31.25L41.2842-31.25L46.8506-31.7627L41.6992-27.3193L39.5508-25.2441C38.8428-24.585 38.4033-23.7549 38.4033-22.6318C38.4033-20.6299 39.8682-19.165 41.9922-19.165C42.8467-19.165 43.8721-19.5557 44.5801-20.2637L56.2744-32.2266C56.958-32.9102 57.3975-33.8867 57.3975-34.9365C57.3975-35.9863 56.9336-36.9629 56.2744-37.6465L44.5801-49.6338C43.8232-50.415 42.8955-50.7568 41.9922-50.7568C39.917-50.7568 38.4033-49.292 38.4033-47.29C38.4033-46.2158 38.8184-45.3613 39.5508-44.6533L41.6992-42.5293L46.8262-38.1104L41.2842-38.5986L29.0283-38.5986C26.7822-38.5986 25.2197-37.1094 25.2197-34.9365ZM63.0127-18.1641C65.0146-18.1641 66.5771-19.7021 66.5771-21.7041L66.5771-48.2178C66.5771-50.1953 65.0146-51.7578 63.0127-51.7578C61.0596-51.7578 59.4727-50.1953 59.4727-48.2178L59.4727-21.7041C59.4727-19.7021 61.0596-18.1641 63.0127-18.1641Z" />
</svg>