<svg xmlns="http://www.w3.org/2000/svg" viewBox="3.17383 -67.8955 91.33 65.28">
  <path d="M88.1348-2.75879C92.4072-2.75879 94.5068-4.90723 94.5068-9.13086L94.5068-61.4014C94.5068-65.6006 92.334-67.7734 88.1348-67.7734L78.5889-67.7734C74.3652-67.7734 72.1924-65.6006 72.1924-61.4014L72.1924-9.13086C72.1924-4.90723 74.3652-2.75879 78.5889-2.75879ZM61.7188-10.083L61.7188-60.4248C61.7188-65.3564 58.667-67.8955 55.0293-67.8955C53.4912-67.8955 51.8555-67.4561 50.293-66.5527L8.47168-42.2852C5.0293-40.2832 3.17383-38.3057 3.17383-35.2539C3.17383-32.2021 5.0293-30.2246 8.47168-28.2227L50.293-3.95508C51.8555-3.05176 53.4912-2.6123 55.0293-2.6123C58.667-2.6123 61.7188-5.15137 61.7188-10.083Z"/>
</svg>