<svg xmlns="http://www.w3.org/2000/svg" viewBox="-6.54297 -78.8574 77.2 87.43">
  <path d="M32.8125 8.56934C39.1846 8.56934 43.6035 3.97949 43.6035-2.7832C43.6035-9.32617 39.3311-14.0381 32.666-14.0869C28.3447-14.0381 21.7285-12.2314 18.5059-7.66602C12.1582-8.17871 2.34375-10.9619 2.34375-16.8457C2.39258-20.7764 5.05371-23.4863 12.793-26.0498C17.5049-21.9238 26.0254-19.043 32.4463-19.043C35.1318-19.043 37.1582-20.7275 37.1582-23.6816L37.1582-53.6865C37.1582-57.5195 35.8887-58.96 31.9824-59.6924C20.6787-61.6943 17.9932-63.4521 17.9688-65.2588C17.9688-67.8467 27.0264-71.3135 40.2588-71.3135C53.4668-71.3135 62.5244-67.8467 62.5244-65.2588C62.5-63.4521 59.8389-61.6943 48.5107-59.6924C44.6045-58.96 43.335-57.5195 43.335-53.6865L43.335-23.6816C43.335-20.7275 45.3857-19.043 48.0469-19.043C54.4678-19.043 63.0371-21.8506 68.0176-26.3184C70.2637-28.3203 70.6543-29.2236 70.6543-32.666L70.6543-64.0625C70.6543-73.1689 59.0576-78.8574 40.2588-78.8574C21.4355-78.8574 9.83887-73.1689 9.83887-64.0625L9.83887-34.4971C-0.341797-31.2012-6.54297-26.1475-6.54297-17.041C-6.54297-5.51758 5.15137-0.488281 17.8467 1.14746C20.0195 5.00488 25.9521 8.56934 32.8125 8.56934Z"/>
</svg>