<svg xmlns="http://www.w3.org/2000/svg" viewBox="9.76562 -85.0586 94.82 97.17">
  <path d="M16.8457-11.8896C16.8457-9.2041 17.5049-6.90918 18.7988-5.15137L18.7988 5.63965C18.7988 9.74121 21.167 12.1094 25.3418 12.1094L30.1514 12.1094C34.3262 12.1094 36.6943 9.74121 36.6943 5.63965L36.6943 0.292969C42.749 0.708008 49.6338 0.90332 57.1777 0.90332C64.7217 0.90332 71.6064 0.683594 77.6611 0.292969L77.6611 5.63965C77.6611 9.74121 80.0293 12.1094 84.2041 12.1094L89.0381 12.1094C93.1885 12.1094 95.5566 9.74121 95.5566 5.63965L95.5566-5.10254C96.8506-6.88477 97.5098-9.17969 97.5098-11.8896L97.5098-72.29C97.5098-78.4912 94.0918-82.4707 87.6465-83.4229C79.9805-84.5459 69.165-85.0586 57.1777-85.0586C45.1904-85.0586 34.3994-84.5703 26.7334-83.4229C20.2637-82.4219 16.8457-78.4424 16.8457-72.29ZM57.1777-7.59277C44.9219-7.59277 35.3271-8.05664 29.3945-9.0332C26.5137-9.52148 25.3418-11.2305 25.3418-14.2822L25.3418-69.8975C25.3418-72.9004 26.7334-74.6582 29.3945-75.1465C35.2295-76.123 45.2148-76.5869 57.1777-76.5869C69.1406-76.5869 79.126-76.001 84.9609-75.1221C87.8662-74.6826 89.0137-72.9736 89.0137-69.8975L89.0137-14.2822C89.0137-11.1816 87.8662-9.47266 84.9609-9.05762C79.0283-8.22754 69.4336-7.59277 57.1777-7.59277ZM33.3984-28.418C47.1191-25.9766 67.334-26.0742 81.0303-28.418C83.8379-28.9062 85.3027-30.6641 85.3027-33.6426L85.3027-65.7959C85.3027-69.2139 83.6182-71.1914 80.3711-71.5088C67.0654-72.8027 47.5098-72.8027 34.082-71.5088C30.835-71.1914 29.1016-69.2139 29.1016-65.7959L29.1016-33.6426C29.1016-30.6641 30.5664-28.9307 33.3984-28.418ZM16.8457-41.0645L16.8457-69.0186L15.0879-69.0186C12.0605-69.0186 9.76562-66.9678 9.76562-64.0381L9.76562-46.0693C9.76562-43.1152 12.0605-41.0645 15.0879-41.0645ZM97.5098-41.0645L99.2676-41.0645C102.295-41.0645 104.59-43.1152 104.59-46.0693L104.59-64.0381C104.59-66.9678 102.295-69.0186 99.2676-69.0186L97.5098-69.0186ZM35.4736-12.7197C38.3545-12.7197 40.5762-14.9414 40.5762-17.8223C40.5762-20.6787 38.3545-22.9004 35.4736-22.9004C32.6172-22.9004 30.3955-20.6787 30.3955-17.8223C30.3955-14.9414 32.6172-12.7197 35.4736-12.7197ZM48.5596-13.9648L65.7959-13.9648C68.1152-13.9648 69.751-15.6006 69.751-17.8955C69.751-20.1904 68.1152-21.8018 65.7959-21.8018L48.5596-21.8018C46.2402-21.8018 44.6045-20.1904 44.6045-17.8955C44.6045-15.6006 46.2402-13.9648 48.5596-13.9648ZM78.8818-12.7197C81.7383-12.7197 83.9844-14.9414 83.9844-17.8223C83.9844-20.6787 81.7383-22.9004 78.8818-22.9004C76.0254-22.9004 73.8037-20.6787 73.8037-17.8223C73.8037-14.9414 76.0254-12.7197 78.8818-12.7197Z"/>
</svg>