<svg xmlns="http://www.w3.org/2000/svg" viewBox="9.0332 -88.8672 100.15 111.21">
  <path d="M32.2021 15.6494C32.2021 14.3311 32.4707 12.9639 33.0322 11.6455C33.6182 10.2295 34.4238 9.08203 35.4248 8.12988C28.1738 4.1748 22.0215-1.53809 17.4805-8.49609C16.0645-10.7422 13.8428-11.2793 11.8164-10.1562C9.76562-9.0332 9.0332-6.61621 10.5957-4.1748C15.7959 4.00391 23.3154 10.9619 32.2021 15.6494ZM38.3057 1.66016C38.3057 0.268555 38.5742-1.09863 39.1602-2.49023C39.6729-3.83301 40.4541-4.98047 41.4551-5.88379C37.0361-8.42285 33.2031-11.9385 30.2246-16.1377C28.7598-18.2617 26.5625-18.8477 24.5361-17.7002C22.3633-16.5039 21.8994-13.9893 23.3154-11.9141C27.0996-6.32324 32.2754-1.61133 38.3057 1.66016ZM59.1064 22.3389C65.3809 22.3389 71.46 21.2891 76.9531 19.4824C79.6143 18.6279 80.5908 16.2842 79.6387 13.9893C78.7354 11.8408 76.6602 11.0352 74.3164 11.7676C69.5312 13.3301 64.4043 14.1846 59.1064 14.1846C53.8086 14.1846 48.6816 13.3301 43.8965 11.7676C41.5527 11.0352 39.4775 11.8408 38.5742 13.9893C37.6221 16.2842 38.5986 18.6279 41.2598 19.4824C46.7529 21.2891 52.832 22.3389 59.1064 22.3389ZM59.1064 7.00684C63.208 7.00684 67.1631 6.4209 70.9473 5.37109C73.5107 4.66309 74.5117 2.19727 73.5352-0.12207C72.7051-2.17285 70.752-3.00293 68.1641-2.34375C65.3809-1.58691 62.3047-1.12305 59.1064-1.12305C55.9082-1.12305 52.832-1.58691 50.0488-2.34375C47.4609-3.00293 45.5078-2.17285 44.6777-0.12207C43.7012 2.19727 44.7021 4.66309 47.2656 5.37109C51.0498 6.4209 55.0049 7.00684 59.1064 7.00684ZM86.0107 15.6494C94.8975 10.9619 102.417 4.00391 107.617-4.1748C109.18-6.61621 108.447-9.0332 106.396-10.1562C104.37-11.2793 102.148-10.7422 100.732-8.49609C96.1914-1.53809 90.0391 4.1748 82.7881 8.12988C83.7891 9.08203 84.5947 10.2295 85.1807 11.6455C85.7422 12.9639 86.0107 14.3311 86.0107 15.6494ZM79.9072 1.66016C85.9375-1.61133 91.1133-6.32324 94.8975-11.9141C96.3135-13.9893 95.8496-16.5039 93.6768-17.7002C91.6504-18.8477 89.4531-18.2617 87.9883-16.1377C85.0098-11.9385 81.1768-8.42285 76.7578-5.88379C77.7588-4.98047 78.54-3.83301 79.0527-2.49023C79.6387-1.09863 79.9072 0.268555 79.9072 1.66016ZM59.1064-13.4521C74.1455-13.4521 80.8594-17.2607 80.8594-26.2939L80.8594-57.2754L82.4951-57.2754C84.7168-57.2754 86.3037-59.0088 86.3037-61.377L86.3037-62.1338C86.3037-64.5508 84.7168-66.2598 82.4951-66.2598L80.8594-66.2598L80.8594-74.0479C80.8594-83.6182 72.9736-88.8672 59.1064-88.8672C45.2881-88.8672 37.3779-83.5938 37.3779-74.0479L37.3779-66.4307L35.7422-66.4307C33.5205-66.4307 31.9336-64.7217 31.9336-62.3047L31.9336-61.5479C31.9336-59.1797 33.5205-57.4463 35.7422-57.4463L37.3779-57.4463L37.3779-26.2939C37.3779-17.2607 44.0918-13.4521 59.1064-13.4521ZM59.1064-21.3867C49.1943-21.3867 45.3613-22.9004 45.3613-26.5625L45.3613-73.9014C45.3613-78.418 50-80.8594 59.1064-80.8594C68.2617-80.8594 72.876-78.418 72.876-73.9014L72.876-26.5625C72.876-22.9004 69.043-21.3867 59.1064-21.3867ZM51.5869-55.9814C52.6367-55.9814 56.4453-56.25 59.1064-56.25C61.8164-56.25 65.6006-55.9814 66.626-55.9814C68.9209-55.9814 69.9707-56.9336 70.166-59.2773L70.6543-64.6484C71.0205-68.9941 67.8223-70.5811 59.1064-70.5811C50.415-70.5811 47.1924-68.9941 47.583-64.6484L48.0713-59.2773C48.2666-56.9336 49.292-55.9814 51.5869-55.9814ZM59.1064-27.0508C68.2129-27.0508 71.2402-28.54 70.5566-32.9834L70.166-35.498C69.6289-39.1113 66.7236-40.2344 59.1064-40.2344C51.5137-40.2344 48.6084-39.1113 48.0469-35.498L47.6807-32.9834C46.9971-28.54 50.0244-27.0508 59.1064-27.0508Z"/>
</svg>