<svg xmlns="http://www.w3.org/2000/svg" viewBox="9.76562 -85.9131 78 101.12">
  <path d="M36.9385-10.498C51.9775-10.498 58.7158-14.3066 58.7158-23.3643L58.7158-71.1182C58.7158-80.6641 50.8057-85.9131 36.9385-85.9131C23.1445-85.9131 15.21-80.6396 15.21-71.1182L15.21-23.3643C15.21-14.3066 21.9482-10.498 36.9385-10.498ZM36.9385-18.4326C27.0264-18.4326 23.2178-19.9463 23.2178-23.6084L23.2178-70.9717C23.2178-75.4883 27.8564-77.9297 36.9385-77.9297C46.0938-77.9297 50.708-75.4883 50.708-70.9717L50.708-23.6084C50.708-19.9463 46.8994-18.4326 36.9385-18.4326ZM36.9385-53.2959C39.624-53.2959 43.457-53.0273 44.4824-53.0273C46.7773-53.0273 47.8027-54.0039 47.998-56.3232L48.4863-61.6943C48.877-66.04 45.6543-67.627 36.9385-67.627C28.2471-67.627 25.0488-66.04 25.4395-61.6943L25.9277-56.3232C26.123-54.0039 27.1484-53.0273 29.4434-53.0273C30.4688-53.0273 34.2773-53.2959 36.9385-53.2959ZM36.9385-24.0967C46.0449-24.0967 49.0723-25.5859 48.4131-30.0537L48.0225-32.5684C47.4609-36.1816 44.5557-37.3047 36.9385-37.3047C29.3701-37.3047 26.4648-36.1816 25.9033-32.5684L25.5127-30.0537C24.8291-25.5859 27.8564-24.0967 36.9385-24.0967ZM18.2861-54.5166L18.2861-63.4766L13.5742-63.4766C11.3525-63.4766 9.76562-61.7676 9.76562-59.3506L9.76562-58.6182C9.76562-56.25 11.3525-54.5166 13.5742-54.5166ZM55.6152-54.3457L60.3271-54.3457C62.5732-54.3457 64.1602-56.0791 64.1602-58.4473L64.1602-59.1797C64.1602-61.5967 62.5732-63.3057 60.3271-63.3057L55.6152-63.3057ZM67.4561-5.0293C70.8984-8.44727 72.9248-12.6465 73.5596-17.3584C73.9258-20.1172 72.0703-22.0947 69.5068-22.0947C67.1875-22.0947 65.9668-20.7764 65.4297-17.8467C64.9414-15.1367 63.7695-12.7686 61.7676-10.7178C59.7168-8.69141 57.373-7.51953 54.8584-7.08008C51.8066-6.54297 50.3418-5.10254 50.3418-3.00293C50.3418-0.439453 52.2949 1.31836 54.8584 1.12305C58.7646 0.78125 63.6719-1.24512 67.4561-5.0293ZM77.832 5.29785C83.7646-0.585938 87.0117-8.08105 87.5977-16.1621C87.7686-19.0186 85.8154-20.6787 83.4473-20.6787C81.0791-20.6787 79.5654-19.165 79.3213-16.04C78.9307-10.2783 76.4893-4.80957 72.0947-0.390625C67.6514 4.00391 62.1826 6.32324 56.4453 6.81152C53.5156 7.08008 51.7578 8.61816 51.7578 10.8154C51.7578 13.3789 53.5889 15.21 56.3232 15.1123C64.4043 14.8193 71.8994 11.2793 77.832 5.29785Z"/>
</svg>