<svg xmlns="http://www.w3.org/2000/svg" viewBox="6.83594 -75.9521 81.42 81.4">
  <path d="M47.5342 5.44434C70.0195 5.44434 88.2568-12.793 88.2568-35.2539C88.2568-57.7148 70.0195-75.9521 47.5342-75.9521C25.0732-75.9521 6.83594-57.7148 6.83594-35.2539C6.83594-12.793 25.0732 5.44434 47.5342 5.44434ZM47.5342-13.9404C46.8506-13.9404 46.3623-14.4775 46.3623-15.1611L46.3623-18.2617C36.7188-18.9453 31.7383-25.8545 31.7383-35.498C31.7383-45.3613 37.1338-52.1484 46.3623-52.7344L46.3623-55.8594C46.3623-56.543 46.8506-57.0801 47.5342-57.0801C48.2422-57.0801 48.7549-56.543 48.7549-55.8594L48.7549-52.7588C53.8086-52.5146 58.5693-50.3174 60.9375-45.7275C61.4014-44.8486 61.7676-43.7744 61.7676-42.7002C61.7676-40.6738 60.4492-39.4531 58.4717-39.4531C56.665-39.4531 55.7373-40.2588 55.0049-41.9189C53.9307-44.4092 51.6602-46.2646 48.7549-46.6064L48.7549-24.3896C51.7578-24.707 54.0283-26.4404 55.2002-29.1748C55.835-30.7861 56.7871-31.6406 58.5205-31.6406C60.5957-31.6406 62.0361-30.3711 62.0361-28.3203C62.0361-27.5391 61.8896-26.7334 61.5967-26.0498C59.6436-21.0205 54.2725-18.457 48.7549-18.2129L48.7549-15.1611C48.7549-14.4531 48.2422-13.9404 47.5342-13.9404ZM39.502-35.5225C39.502-30.3711 41.4062-25.3174 46.3623-24.4629L46.3623-46.5088C41.6016-45.7275 39.502-40.8203 39.502-35.5225Z"/>
</svg>