<svg xmlns="http://www.w3.org/2000/svg" viewBox="6.83594 -75.4395 96.36 80.49">
  <path d="M55.0293-57.251C61.8652-57.251 68.1641-54.9561 73.2178-51.0986C74.1943-50.3662 75.4395-50.4395 76.3428-51.3428L85.791-60.791C86.8896-61.8896 86.8408-63.501 85.6445-64.4775C77.3193-71.3379 66.6504-75.4395 55.0293-75.4395C43.4082-75.4395 32.7148-71.3379 24.4141-64.4775C23.2178-63.501 23.1689-61.8896 24.2676-60.791L33.6914-51.3428C34.5947-50.4395 35.8887-50.3662 36.9141-51.1475C41.9678-54.9561 48.2422-57.251 55.0293-57.251ZM6.83594-27.2705C6.83594-15.3564 11.1572-4.46777 18.2861 3.93066C19.2383 5.05371 20.8008 5.00488 21.875 3.93066L31.4453-5.63965C32.2998-6.46973 32.3242-7.6416 31.5674-8.59375C27.417-13.8672 25.0488-20.3125 25.0488-27.2705C25.0488-34.0576 27.3193-40.332 31.1523-45.3613C31.9092-46.3867 31.9092-47.6562 30.9814-48.584L21.5088-58.0322C20.4102-59.1309 18.7988-59.1064 17.8223-57.9102C10.9619-49.5605 6.83594-38.8916 6.83594-27.2705ZM103.198-27.2705C103.198-38.916 99.0723-49.6338 92.1387-58.0078C91.2109-59.1309 89.624-59.1309 88.5254-58.0322L79.0771-48.584C78.1494-47.6562 78.1494-46.3867 78.9062-45.3613C82.7393-40.332 85.0098-34.0576 85.0098-27.2705C85.0098-20.3125 82.6416-13.8672 78.4668-8.59375C77.7344-7.6416 77.7588-6.46973 78.5889-5.63965L88.1592 3.93066C89.2334 5.00488 90.8203 5.00488 91.8213 3.85742C98.9258-4.54102 103.198-15.3809 103.198-27.2705ZM55.0293-14.0869C58.6182-14.0869 62.1826-15.1855 64.4287-17.627C65.5273-18.7744 66.333-20.2881 66.333-21.7529C66.333-23.584 64.9414-24.6094 63.1592-24.6094C61.6455-24.6094 60.8398-23.7549 60.1807-22.6807C59.0088-20.6543 57.4219-19.6289 55.1025-19.6289C50.708-19.6289 49.0967-23.1445 49.0967-27.5635C49.0967-32.0312 50.7812-35.4492 55.0781-35.4492C57.3975-35.4492 59.082-34.4238 60.1318-32.373C60.8398-31.1768 61.7188-30.4932 63.1348-30.4932C64.8926-30.4932 66.2842-31.5186 66.2842-33.374C66.2842-34.668 65.4297-36.2549 64.3066-37.4512C62.1094-39.7705 58.6182-40.9912 54.9805-40.9912C46.6309-40.9912 41.9922-35.4736 41.9922-27.5635C41.9922-18.9453 47.2412-14.0869 55.0293-14.0869ZM54.9805-10.0586C55.6152-10.0586 56.1523-10.5957 56.1523-11.2549L56.1523-43.8477C56.1523-44.5068 55.6152-45.0439 54.9805-45.0439C54.3213-45.0439 53.8086-44.5068 53.8086-43.8477L53.8086-11.2549C53.8086-10.5957 54.3213-10.0586 54.9805-10.0586Z"/>
</svg>