<svg xmlns="http://www.w3.org/2000/svg" viewBox="6.83594 -75.9521 81.42 81.4">
  <path d="M47.5342 5.44434C70.0195 5.44434 88.2568-12.793 88.2568-35.2539C88.2568-57.7148 70.0195-75.9521 47.5342-75.9521C25.0732-75.9521 6.83594-57.7148 6.83594-35.2539C6.83594-12.793 25.0732 5.44434 47.5342 5.44434ZM35.6934-16.7969C32.6416-16.7969 30.8594-18.5547 30.8594-21.3867C30.8594-22.2168 31.0303-23.2422 31.5186-24.707L39.6484-47.9492C41.04-52.0996 43.5303-54.0527 47.4365-54.0527C51.4404-54.0527 54.0771-52.0752 55.4199-47.9492L63.5498-24.707C64.0381-23.2422 64.209-22.2168 64.209-21.3867C64.209-18.5547 62.4268-16.7969 59.3994-16.7969C56.8848-16.7969 55.249-18.1396 54.4922-21.1914L53.0762-25.6836L41.9922-25.6836L40.5762-21.1914C39.8438-18.1396 38.208-16.7969 35.6934-16.7969ZM43.75-32.7148L51.3184-32.7148L47.7539-45.166L47.3145-45.166Z"/>
</svg>