<svg xmlns="http://www.w3.org/2000/svg" viewBox="9.76562 -80.9326 82.3 91.28">
  <path d="M23.6084 10.3516L78.2227 10.3516C87.1582 10.3516 92.0654 5.49316 92.0654-3.39355L92.0654-42.749C92.0654-51.6113 87.1582-56.4941 78.2227-56.4941L23.6084-56.4941C14.6484-56.4941 9.76562-51.6357 9.76562-42.749L9.76562-3.39355C9.76562 5.49316 14.6484 10.3516 23.6084 10.3516ZM24.7803-0.244141C21.8994-0.244141 20.3613-1.63574 20.3613-4.71191L20.3613-41.4307C20.3613-44.5068 21.8994-45.8984 24.7803-45.8984L77.0508-45.8984C79.9316-45.8984 81.4697-44.5068 81.4697-41.4307L81.4697-4.71191C81.4697-1.63574 79.9316-0.244141 77.0508-0.244141ZM18.8477-62.7441L83.0322-62.7441C82.4707-66.8945 80.249-69.3604 75.4639-69.3604L26.416-69.3604C21.6064-69.3604 19.3848-66.8945 18.8477-62.7441ZM26.5137-74.8779L75.3418-74.8779C75-78.7842 72.5586-80.9326 68.3838-80.9326L33.4717-80.9326C29.3213-80.9326 26.8555-78.7842 26.5137-74.8779ZM46.9238-5.81055C48.6084-5.81055 50.1221-6.66504 51.0742-8.1543L67.1143-32.8857C67.7734-33.8623 68.1885-34.9365 68.1885-35.9131C68.1885-38.3057 66.0889-39.9658 63.7695-39.9658C62.2559-39.9658 60.9863-39.1846 59.9854-37.5244L46.8262-16.2354L40.918-23.6084C39.8926-24.8779 38.7939-25.3906 37.4268-25.3906C35.0586-25.3906 33.1299-23.5107 33.1299-21.1182C33.1299-19.9951 33.5205-19.043 34.375-17.9688L42.6025-8.08105C43.8232-6.5918 45.1904-5.81055 46.9238-5.81055Z"/>
</svg>