<svg xmlns="http://www.w3.org/2000/svg" viewBox="9.76562 -72.0703 91.58 73.73">
  <path d="M23.6084 1.66016L87.5 1.66016C96.46 1.66016 101.343-3.22266 101.343-12.1094L101.343-58.3008C101.343-67.1875 96.46-72.0703 87.5-72.0703L23.6084-72.0703C14.6729-72.0703 9.76562-67.1875 9.76562-58.3008L9.76562-12.1094C9.76562-3.22266 14.6729 1.66016 23.6084 1.66016ZM24.7803-8.95996C21.8994-8.95996 20.3613-10.3516 20.3613-13.4033L20.3613-57.0068C20.3613-60.083 21.8994-61.4502 24.7803-61.4502L86.3281-61.4502C89.209-61.4502 90.7471-60.083 90.7471-57.0068L90.7471-13.4033C90.7471-10.3516 89.209-8.95996 86.3281-8.95996ZM51.5625-17.0166C53.2471-17.0166 54.7607-17.8711 55.7129-19.3604L71.7529-44.0918C72.4121-45.0928 72.8271-46.1426 72.8271-47.1191C72.8271-49.5117 70.7275-51.1719 68.4082-51.1719C66.8945-51.1719 65.625-50.3906 64.624-48.7305L51.4648-27.4414L45.5566-34.8145C44.5312-36.084 43.457-36.5967 42.0654-36.5967C39.6973-36.5967 37.7686-34.7168 37.7686-32.3242C37.7686-31.2012 38.1592-30.249 39.0137-29.1748L47.2412-19.2871C48.4619-17.7979 49.8291-17.0166 51.5625-17.0166Z" />
</svg>