<svg xmlns="http://www.w3.org/2000/svg" viewBox="9.76562 -78.6865 59.55 86.87">
  <path d="M41.5527-1.34277C53.3936-1.34277 64.4775-6.68945 68.457-17.0654C69.043-18.457 69.3115-19.9707 69.3115-21.46C69.3115-25.415 66.626-27.7588 62.6709-27.7588C59.3262-27.7588 57.5928-26.0742 56.2988-23.0469C53.7598-16.5771 48.1689-13.1104 41.333-13.1104C29.4434-13.1104 24.5361-23.7793 24.5361-35.6201C24.5361-47.7051 29.7607-58.0322 41.2842-58.0322C47.9736-58.0322 53.418-54.4922 55.9082-48.2666C57.251-45.1416 59.1064-43.5547 62.5488-43.5547C66.3818-43.5547 68.7988-45.9473 68.7988-49.707C68.7988-51.5381 68.3105-53.3691 67.4805-55.0293C62.7197-65.1367 52.3193-69.8242 41.1865-69.8242C21.5332-69.8242 9.76562-56.2988 9.76562-35.5957C9.76562-14.6729 21.4111-1.34277 41.5527-1.34277ZM24.8535 8.17871C26.1475 8.17871 26.9775 7.54395 27.2705 6.27441L46.9238-75.1953C47.0215-75.5615 47.0947-75.9521 47.0947-76.3184C47.0947-77.832 46.1426-78.6865 44.6777-78.6865C43.4814-78.6865 42.6514-78.0029 42.334-76.7822L22.7051 4.71191C22.6074 5.07812 22.5342 5.51758 22.5342 5.93262C22.5342 7.22656 23.5107 8.17871 24.8535 8.17871ZM37.915 8.17871C39.2334 8.17871 40.0391 7.54395 40.3564 6.27441L60.0098-75.1953C60.1074-75.5615 60.1562-75.9521 60.1562-76.3184C60.1562-77.832 59.2041-78.6865 57.7637-78.6865C56.5674-78.6865 55.7373-78.0029 55.4199-76.7822L35.7666 4.71191C35.6689 5.07812 35.5957 5.51758 35.5957 5.93262C35.5957 7.22656 36.5723 8.17871 37.915 8.17871Z"/>
</svg>