<svg xmlns="http://www.w3.org/2000/svg" viewBox="9.76562 -72.0703 85.13 73.73">
  <path d="M23.6084 1.66016L56.543 1.63574C63.0127 1.63574 66.6016 0.0976562 70.7031-4.61426L90.5029-26.709C93.8721-30.5664 94.8975-32.7148 94.8975-35.2295C94.8975-37.7197 93.9209-39.8193 90.5029-43.7256L70.7275-65.8447C66.6504-70.5322 63.0127-72.0703 56.543-72.0703L23.6084-72.0703C14.6729-72.0703 9.76562-67.1875 9.76562-58.3008L9.76562-11.2061C9.76562-2.31934 14.6729 1.66016 23.6084 1.66016ZM24.7803-8.95996C21.8994-8.95996 20.3613-10.3271 20.3613-13.4033L20.3613-57.0068C20.3613-60.0586 21.8994-61.4502 24.7803-61.4502L57.2998-61.4502C59.4482-61.4502 60.9619-60.9619 62.5244-59.2041L82.1533-37.2803C82.9346-36.4502 83.1787-35.8643 83.1787-35.2295C83.1787-34.6191 82.9346-33.96 82.1533-33.1543L62.5-11.2793C60.9131-9.52148 59.4482-8.95996 57.2754-8.95996ZM36.8164-20.5322L59.8145-43.5547C60.6689-44.3848 61.1328-45.459 61.1328-46.582C61.1328-49.0967 59.2041-50.9766 56.7383-50.9766C55.4443-50.9766 54.3945-50.5859 53.5645-49.707L30.4932-26.7334C29.6631-25.8789 29.1748-24.8291 29.1748-23.6816C29.1748-21.167 31.1035-19.2139 33.5938-19.2139C34.9121-19.2139 35.9619-19.6777 36.8164-20.5322ZM53.5156-20.5322C54.3457-19.6777 55.4199-19.2139 56.7383-19.2139C59.2041-19.2139 61.1328-21.167 61.1328-23.6816C61.1328-24.8291 60.6689-25.8789 59.8145-26.7334L36.7676-49.707C35.9131-50.5859 34.8877-50.9766 33.5938-50.9766C31.1035-50.9766 29.1748-49.0967 29.1748-46.582C29.1748-45.459 29.6631-44.3848 30.4932-43.5547Z" />
</svg>