<svg xmlns="http://www.w3.org/2000/svg" viewBox="9.76562 -77.4902 68.46 84.52">
  <path d="M23.5107 7.03125L64.4531 7.03125C73.3398 7.03125 78.2227 2.12402 78.2227-6.81152L78.2227-41.1621C78.2227-47.4365 77.2949-50.5615 73.291-54.6143L55.5664-72.5586C51.6602-76.5137 48.3887-77.4902 42.4561-77.4902L23.5107-77.4902C14.624-77.4902 9.76562-72.583 9.76562-63.6475L9.76562-6.81152C9.76562 2.14844 14.624 7.03125 23.5107 7.03125ZM24.8047-3.56445C21.7529-3.56445 20.3613-5.10254 20.3613-7.9834L20.3613-62.4756C20.3613-65.3564 21.7529-66.8945 24.8291-66.8945L39.4287-66.8945L39.4287-48.6816C39.4287-41.748 42.7246-38.4521 49.6582-38.4521L67.6025-38.4521L67.6025-7.9834C67.6025-5.10254 66.2109-3.56445 63.1592-3.56445ZM50.4639-47.1191C48.8525-47.1191 48.0713-47.9004 48.0713-49.5117L48.0713-66.0889L66.7969-47.1191Z"/>
</svg>