<svg xmlns="http://www.w3.org/2000/svg" viewBox="6.83594 -76.123 68.14 82.06">
  <path d="M6.83594-35.1562C6.83594-30.957 10.5225-27.3926 14.8193-27.3926C19.1162-27.3926 22.6807-30.957 22.6807-35.2539C22.6807-39.624 19.165-43.1885 14.8193-43.1885C10.4492-43.1885 6.83594-39.502 6.83594-35.1562ZM29.4922-19.3359C31.1523-17.2607 34.3994-17.1387 36.5479-19.5557C39.8682-23.3887 41.6748-29.0771 41.6748-35.1074C41.6748-41.1377 39.8682-46.8262 36.5479-50.6592C34.3994-53.0762 31.1523-52.9541 29.4922-50.8789C27.9785-48.9746 28.5156-46.7041 29.9805-44.6289C31.665-42.2852 32.8369-38.5254 32.8369-35.1074C32.8369-31.6895 31.665-27.9297 29.9805-25.5859C28.5156-23.5107 27.9785-21.2402 29.4922-19.3359ZM41.333-7.73926C43.0664-5.63965 46.0693-5.41992 48.4863-7.95898C54.9316-14.8193 58.3008-24.6338 58.3008-35.1074C58.3008-45.5322 54.7363-55.6396 48.4863-62.2314C46.0693-64.7705 43.0664-64.5508 41.333-62.4512C39.6973-60.498 40.2588-58.1299 42.041-56.1523C46.8506-50.7812 49.4629-43.2617 49.4629-35.1074C49.4629-26.9287 46.8506-19.4336 42.041-14.0381C40.2588-12.0605 39.6973-9.69238 41.333-7.73926ZM53.4424 3.83301C55.1514 5.76172 58.2031 5.93262 60.2051 3.80859C69.7754-6.44531 74.9756-20.1904 74.9756-35.1074C74.9756-49.9756 69.7754-63.7451 60.2051-73.999C58.2031-76.123 55.1514-75.9521 53.4424-74.0234C51.8066-72.1924 52.002-69.6289 53.833-67.7002C61.8408-59.1797 66.1377-47.7051 66.1377-35.1074C66.1377-22.4854 61.7188-11.084 53.833-2.49023C52.0264-0.537109 51.8066 2.00195 53.4424 3.83301Z" />
</svg>