<svg xmlns="http://www.w3.org/2000/svg" viewBox="9.76562 -72.3877 106.64 75.1">
  <path d="M24.9023-38.623C33.0322-38.623 39.1357-45.8252 39.1357-55.5176C39.1357-65.1855 33.0322-72.3877 24.9023-72.3877C16.2354-72.3877 9.76562-65.1855 9.76562-55.5176C9.76562-45.8252 16.2354-38.623 24.9023-38.623ZM19.2871-48.3643C16.9434-48.3643 15.0879-51.4893 15.0879-55.5176C15.0879-59.4971 16.9434-62.6465 19.2871-62.6465C21.7041-62.6465 23.5596-59.4971 23.5596-55.5176C23.5596-51.4893 21.7041-48.3643 19.2871-48.3643ZM39.8926-71.3379C39.3555-71.3379 38.8184-71.3135 38.3057-71.2891C41.8457-67.4072 43.9697-61.8408 43.9697-55.5176C43.9697-44.5312 37.5244-35.8887 28.3447-34.2773C28.8818-33.7158 29.4922-33.0322 29.8828-32.4951C31.5186-30.2246 32.0557-27.9297 32.0557-24.5117L32.0557-2.83203C32.0557 0.561523 34.3018 2.70996 37.8662 2.70996L41.8945 2.70996C45.459 2.70996 47.7051 0.561523 47.7051-2.83203L47.7051-24.5117C47.7051-27.9297 48.2422-30.2246 49.8779-32.4951C50.6104-33.5449 52.002-34.9121 53.0029-35.791C57.3486-39.624 60.0342-45.0195 60.0342-51.1963C60.0342-62.3047 51.0986-71.3379 39.8926-71.3379ZM101.27-38.623C109.937-38.623 116.406-45.8252 116.406-55.5176C116.406-65.1855 109.937-72.3877 101.27-72.3877C93.1396-72.3877 87.0361-65.1855 87.0361-55.5176C87.0361-45.8252 93.1396-38.623 101.27-38.623ZM106.86-48.3643C104.468-48.3643 102.612-51.4893 102.612-55.5176C102.612-59.4971 104.468-62.6465 106.86-62.6465C109.204-62.6465 111.084-59.4971 111.084-55.5176C111.084-51.4893 109.204-48.3643 106.86-48.3643ZM86.2793-71.3379C75.0732-71.3379 66.1133-62.3047 66.1133-51.1963C66.1133-45.0195 68.8232-39.624 73.1689-35.791C74.1699-34.9121 75.5615-33.5449 76.2695-32.4951C77.9297-30.2246 78.4668-27.9297 78.4668-24.5117L78.4668-2.83203C78.4668 0.561523 80.7129 2.70996 84.2773 2.70996L88.2812 2.70996C91.8701 2.70996 94.0918 0.561523 94.0918-2.83203L94.0918-24.5117C94.0918-27.9297 94.6533-30.2246 96.2891-32.4951C96.6797-33.0322 97.29-33.7158 97.8027-34.2773C88.6475-35.8887 82.1777-44.5312 82.1777-55.5176C82.1777-61.8408 84.3262-67.4072 87.8662-71.2891C87.3535-71.3135 86.792-71.3379 86.2793-71.3379Z"/>
</svg>