<svg xmlns="http://www.w3.org/2000/svg" viewBox="9.76562 -72.3877 50.27 75.1">
  <path d="M44.9219-38.623C53.5645-38.623 60.0342-45.8252 60.0342-55.5176C60.0342-65.1855 53.5645-72.3877 44.9219-72.3877C36.7676-72.3877 30.6885-65.1855 30.6885-55.5176C30.6885-45.8252 36.7676-38.623 44.9219-38.623ZM50.5127-48.3643C48.1201-48.3643 46.2402-51.4893 46.2402-55.5176C46.2402-59.4971 48.1201-62.6465 50.5127-62.6465C52.8564-62.6465 54.7119-59.4971 54.7119-55.5176C54.7119-51.4893 52.8564-48.3643 50.5127-48.3643ZM29.9316-71.3379C18.7256-71.3379 9.76562-62.3047 9.76562-51.1963C9.76562-45.0195 12.4512-39.624 16.8213-35.791C17.8223-34.9121 19.1895-33.5449 19.9219-32.4951C21.5576-30.2246 22.1191-27.9297 22.1191-24.5117L22.1191-2.83203C22.1191 0.561523 24.3408 2.70996 27.9297 2.70996L31.9336 2.70996C35.498 2.70996 37.7441 0.561523 37.7441-2.83203L37.7441-24.5117C37.7441-27.9297 38.2812-30.2246 39.9414-32.4951C40.3076-33.0322 40.9424-33.7158 41.4551-34.2773C32.2998-35.8887 25.8301-44.5312 25.8301-55.5176C25.8301-61.8408 27.9785-67.4072 31.5186-71.2891C30.9814-71.3135 30.4443-71.3379 29.9316-71.3379Z"/>
</svg>