<svg xmlns="http://www.w3.org/2000/svg" viewBox="9.76562 -80.1514 93.07 89.79">
  <path d="M16.8457 3.6377L96.4355 3.6377L96.4355-2.66113C96.4355-4.71191 95.1904-5.93262 93.1396-5.93262L91.3818-5.93262L91.3818-50.1709L94.4824-50.1709C97.4609-50.1709 99.2188-52.3926 99.2188-54.5898C99.2188-56.2256 98.291-57.6904 96.3867-58.8379L62.1582-78.5645C60.4492-79.5654 58.4717-80.1514 56.6406-80.1514C54.7852-80.1514 52.8076-79.5654 51.0986-78.5645L16.8701-58.8379C14.9414-57.6904 14.0381-56.2256 14.0381-54.5898C14.0381-52.3926 15.7959-50.1709 18.7744-50.1709L21.8994-50.1709L21.8994-5.93262L20.1416-5.93262C18.0908-5.93262 16.8457-4.71191 16.8457-2.66113ZM14.209 9.64355L98.3643 9.64355C100.757 9.64355 102.832 7.66602 102.832 5.17578C102.832 2.75879 100.757 0.732422 98.3643 0.732422L14.209 0.732422C11.8164 0.732422 9.76562 2.75879 9.76562 5.17578C9.76562 7.6416 11.8164 9.64355 14.209 9.64355ZM61.5234-13.8672C51.6846-13.8672 44.8486-18.5547 43.1396-27.0264L39.6729-27.0264C39.0625-27.0264 38.501-27.5635 38.501-28.2227C38.501-28.8574 39.0625-29.3945 39.6729-29.3945L42.749-29.3945C42.7002-30.0537 42.6758-30.7617 42.6758-31.4697C42.6758-32.1777 42.7002-32.8125 42.749-33.4473L39.6729-33.4473C39.0625-33.4473 38.501-33.9355 38.501-34.6191C38.501-35.2783 39.0625-35.8154 39.6729-35.8154L43.0908-35.8154C44.873-44.8975 52.5146-49.0723 61.6211-49.0723C63.2324-49.0723 64.7461-48.9258 65.8936-48.5596C67.4561-48.0469 68.3838-47.0703 68.3838-45.4834C68.3838-43.5303 66.9434-42.6758 64.9902-42.6758C64.5264-42.6758 63.8672-42.749 63.1592-42.749C56.5186-42.749 52.417-40.4053 50.9521-35.8154L61.8408-35.8154C62.4512-35.8154 63.0127-35.2783 63.0127-34.6191C63.0127-33.9355 62.4512-33.4473 61.8408-33.4473L50.4639-33.4473C50.3906-32.8125 50.3662-32.1777 50.3662-31.4941C50.3662-30.7373 50.3906-30.0537 50.4883-29.3945L61.8408-29.3945C62.4512-29.3945 63.0127-28.8574 63.0127-28.2227C63.0127-27.5635 62.4512-27.0264 61.8408-27.0264L51.001-27.0264C52.5146-22.4365 56.665-20.166 63.1348-20.166C63.9404-20.166 64.1846-20.2637 64.917-20.2637C66.8945-20.2637 68.3838-19.458 68.3838-17.4805C68.3838-15.8447 67.334-14.9414 65.8936-14.4531C64.624-14.0137 62.9883-13.8672 61.5234-13.8672Z"/>
</svg>