<svg xmlns="http://www.w3.org/2000/svg" viewBox="8.78906 -79.6387 89.45 88.89">
  <path d="M61.2305-39.624L42.4316-20.8252C41.3818-19.7754 40.1611-19.5312 39.3311-20.459C38.3545-21.5332 38.5254-22.5098 39.6729-23.6572L58.3984-42.4805L52.8809-47.8271L23.7305-18.6523C10.4492-5.34668 14.0869-3.02734 8.78906 4.07715L13.6963 9.25293C20.6543 3.85742 23.877 7.95898 37.085-5.17578L66.4307-34.3018ZM73.4131-30.127L74.8535-31.5918C77.3438-34.1309 77.3682-37.1826 74.7803-39.8193L73.8525-40.7471C80.3955-46.3379 87.1094-46.4844 91.8701-51.2939C98.2422-57.7393 97.2412-67.4805 91.7236-73.0713C86.2549-78.6621 76.4648-79.6387 69.9219-73.2666C65.0635-68.5059 64.9658-61.792 59.3506-55.249L58.4717-56.1768C55.957-58.7891 52.8076-58.7646 50.2197-56.2256L48.7305-54.834C45.8496-52.0264 46.0938-49.292 48.8525-46.5576L65.21-30.249C67.9932-27.5146 70.6055-27.2705 73.4131-30.127Z"/>
</svg>