<svg xmlns="http://www.w3.org/2000/svg" viewBox="6.83594 -75.9521 81.42 81.4">
  <path d="M47.5342 5.44434C70.0195 5.44434 88.2568-12.793 88.2568-35.2539C88.2568-57.7148 70.0195-75.9521 47.5342-75.9521C25.0732-75.9521 6.83594-57.7148 6.83594-35.2539C6.83594-12.793 25.0732 5.44434 47.5342 5.44434ZM37.9639-48.6816C35.376-48.6816 33.2275-50.8057 33.2275-53.418C33.2275-56.0059 35.376-58.1299 37.9639-58.1299C40.5762-58.1299 42.7002-56.0059 42.7002-53.418C42.7002-50.8057 40.5762-48.6816 37.9639-48.6816ZM66.9434-20.9229C68.042-20.3369 68.4814-18.8965 67.8955-17.749C67.4316-16.7725 66.0889-16.0889 64.7217-16.8213L52.9297-23.1201L45.752-27.2217L34.0088-28.1006L34.0088-18.8721C34.0088-17.6025 32.9346-16.5283 31.6162-16.5283C30.3711-16.5283 29.3213-17.6025 29.3213-18.8721L29.3213-29.9561L25.4395-36.8164C24.9023-37.7441 25.0244-38.8672 25.8057-39.624L31.3721-45.2148C32.4219-46.2402 33.4961-46.6553 35.0586-46.6553L39.9658-46.6553C42.334-46.6553 44.458-45.0684 45.0439-42.749L46.5576-36.4746C46.8018-35.5713 46.5088-34.6436 45.7764-34.0576C46.1914-33.5938 46.6553-33.1787 47.168-32.8125L55.0293-27.3682ZM30.3467-37.5488L33.0078-32.959L34.2529-32.959L36.2549-34.0576L33.6182-40.8447Z"/>
</svg>