<svg xmlns="http://www.w3.org/2000/svg" viewBox="9.76562 -91.2109 85.06 111.91">
  <path d="M85.7178-53.4912C90.7471-53.4912 94.8242-57.5928 94.8242-62.6465C94.8242-67.6758 90.7471-71.7529 85.7178-71.7529C80.6641-71.7529 76.5625-67.6758 76.5625-62.6465C76.5625-57.5928 80.6641-53.4912 85.7178-53.4912ZM14.3799-41.626L33.9355-41.626L44.9951-31.6406C45.5078-31.1523 45.2393-30.3955 44.5068-30.3955L32.0068-30.3955C30.7373-30.3955 29.3701-30.0781 28.418-29.1016L13.6963-14.2822C11.9141-12.4512 11.8408-9.69238 13.6963-7.83691C15.4541-6.05469 18.335-6.05469 20.1172-7.83691L33.2275-20.9229L49.1699-18.2861C54.4678-17.4072 59.8877-19.1162 63.7695-22.998L72.6807-31.9092C73.2178-32.4463 73.9258-32.1289 73.9258-31.4453L73.9258-25.6592L63.0371-14.7705C61.2793-12.9883 61.3281-10.1318 63.0371-8.34961C63.9404-7.44629 65.1123-7.00684 66.333-7.00684C67.5049-7.00684 68.6523-7.44629 69.5557-8.34961L81.7627-20.5566C82.5928-21.3867 83.1055-22.6074 83.1055-23.7793L83.1055-41.9678C83.1055-44.7266 82.2266-46.9971 80.5908-48.6328L57.4951-71.6064L57.4951-58.6426L66.04-50.1465C66.6016-49.585 66.5771-48.9258 66.0645-48.4131L55.5908-37.9395L38.3301-50.0244C37.5488-50.5615 36.8164-50.7812 35.5713-50.7812L14.3799-50.7812C11.8164-50.7812 9.76562-48.7549 9.76562-46.2402C9.76562-43.7256 11.8164-41.626 14.3799-41.626ZM58.1299-0.292969C64.5264-0.292969 69.5068-5.39551 69.4092-11.6943L63.1592-11.6943C63.2324-8.66699 61.1572-6.56738 58.1299-6.56738C55.1514-6.56738 53.125-8.20312 53.125-11.5479L53.125-88.0615C53.125-89.8193 51.7334-91.2109 50-91.2109C48.2666-91.2109 46.8506-89.8193 46.8506-88.0615L46.8506-11.5479C46.8506-4.66309 51.8311-0.292969 58.1299-0.292969ZM66.2842 20.7031C68.0176 20.7031 69.4092 19.3115 69.4092 17.5537L69.4092-30.9814L63.1592-30.9814L63.1592 17.5537C63.1592 19.3115 64.5508 20.7031 66.2842 20.7031Z"/>
</svg>