<svg xmlns="http://www.w3.org/2000/svg" viewBox="6.83594 -75.9521 81.42 81.4">
  <path d="M47.5342 5.44434C70.0195 5.44434 88.2568-12.793 88.2568-35.2539C88.2568-57.7148 70.0195-75.9521 47.5342-75.9521C25.0732-75.9521 6.83594-57.7148 6.83594-35.2539C6.83594-12.793 25.0732 5.44434 47.5342 5.44434ZM47.3145-53.2227C44.7266-53.2227 42.5537-55.3467 42.5537-57.9346C42.5537-60.5225 44.7266-62.6709 47.3145-62.6709C49.9023-62.6709 52.002-60.5225 52.002-57.9346C52.002-55.3467 49.9023-53.2227 47.3145-53.2227ZM49.9023-19.0918C48.4619-19.4824 47.998-20.7764 48.3398-21.9238L50.6348-29.4678L42.2363-31.4697C38.7207-32.2998 37.6953-34.4238 38.0859-37.4512L39.0137-44.7266C39.0381-45.0195 38.7695-45.166 38.5742-45.0195L36.084-43.4814L36.084-36.4502C36.084-35.1807 35.0342-34.1064 33.7646-34.1064C32.5195-34.1064 31.4697-35.1807 31.4697-36.4502L31.4697-44.7754C31.4697-45.5566 31.8848-46.2891 32.5439-46.7041L39.2578-50.9033C40.625-51.7334 42.4316-52.2217 44.5801-51.7822L45.752-51.5381C47.7783-51.1719 49.3652-49.8779 50.2441-48.1689L52.8809-42.8711L59.7656-42.8711C61.0352-42.8711 62.1094-41.8701 62.1094-40.6006C62.1094-39.3311 61.0107-38.3057 59.7656-38.3057L51.4648-38.3057C50.5859-38.3057 49.8291-38.7451 49.4141-39.5752L47.8516-42.5781C47.7295-42.8711 47.3389-42.7979 47.3145-42.5049L46.3867-36.1572L54.3213-33.4229C55.5664-32.9834 56.0791-31.7383 55.7373-30.542L52.7344-20.6543C52.2949-19.1406 50.8057-18.8477 49.9023-19.0918ZM34.6191-11.6211C33.4961-12.3535 33.2275-13.7695 33.96-14.8438L39.8193-23.6328L40.2344-29.7363C40.6982-29.5654 41.1865-29.3945 41.6992-29.2725L45.2393-28.4424L44.4336-22.8271C44.3604-22.2656 44.2139-21.875 43.8965-21.46L37.7686-12.3047C36.9141-11.084 35.4248-11.084 34.6191-11.6211ZM43.75-7.93457C42.8223-7.93457 42.0898-8.76465 42.0898-9.66797C42.0898-10.5225 42.8467-11.2793 43.75-11.2793L48.5596-11.2793L48.5596-14.7705C48.5596-15.6982 49.3164-16.4307 50.2441-16.4307L55.0049-16.4307L55.0049-19.8975C55.0049-20.8008 55.7129-21.582 56.665-21.582L61.499-21.582L61.499-25.0977C61.499-25.9277 62.1826-26.7578 63.1104-26.7578L69.5801-26.7578C70.5078-26.7578 71.2646-25.9521 71.2646-25.0977C71.2646-24.1699 70.5078-23.4131 69.5801-23.4131L64.8193-23.4131L64.8193-19.8975C64.8193-19.0186 64.0869-18.2617 63.1104-18.2617L58.3252-18.2617L58.3252-14.7705C58.3252-13.8428 57.5684-13.1104 56.665-13.1104L51.9287-13.1104L51.9287-9.66797C51.9287-8.74023 51.1475-7.93457 50.2441-7.93457Z"/>
</svg>