<svg xmlns="http://www.w3.org/2000/svg" viewBox="6.83594 -75.9521 81.42 81.4">
  <path d="M47.5342 5.44434C70.0195 5.44434 88.2568-12.7686 88.2568-35.2539C88.2568-57.7393 70.0195-75.9521 47.5342-75.9521C25.0732-75.9521 6.83594-57.7393 6.83594-35.2539C6.83594-12.7686 25.0732 5.44434 47.5342 5.44434ZM47.5342-5.34668C31.0059-5.34668 17.6514-18.7256 17.6514-35.2539C17.6514-51.7822 31.0059-65.1611 47.5342-65.1611C64.0625-65.1611 77.4414-51.7822 77.4414-35.2539C77.4414-18.7256 64.0625-5.34668 47.5342-5.34668ZM47.2656-49.9756C49.7314-49.9756 51.7334-51.9531 51.7334-54.4434C51.7334-56.8848 49.7314-58.8867 47.2656-58.8867C44.7998-58.8867 42.7979-56.8848 42.7979-54.4434C42.7979-51.9531 44.7998-49.9756 47.2656-49.9756ZM33.5693-17.2852C31.4453-14.7461 34.9854-12.2314 36.7432-14.3311L42.4316-21.167C43.0176-21.8262 43.2373-22.29 43.6768-23.1201L47.0947-30.4688C48.1201-32.6904 48.4619-34.4727 48.6328-36.9629L48.8525-39.7949L51.6113-37.0361C52.3193-36.3037 52.9541-36.084 54.2236-36.084L59.1064-36.084C60.4492-36.084 61.3525-36.8896 61.3525-38.1592C61.3525-39.3799 60.4248-40.1855 59.1064-40.1855L53.9795-40.1855L48.1445-46.5576C47.1924-47.5586 45.9961-48.2422 44.458-48.2422C44.165-48.2422 43.8965-48.2422 43.6035-48.1689C43.4814-49.6826 42.2607-50.8545 40.6494-50.8545L38.7207-50.8545C36.2549-50.8545 34.8145-49.4141 34.8145-46.9238L34.8145-37.3047C34.8145-35.5713 36.0596-34.3506 37.7686-34.3506L40.0879-34.3506C40.1123-33.1299 40.4297-32.2266 41.1133-31.1768L39.4287-24.1699ZM46.5088-24.1943C46.7529-23.877 46.875-23.6816 47.0215-23.4375L51.1719-14.9902C52.5635-12.1826 56.7139-13.9648 55.2246-16.9678L51.1719-25.1953C50.8545-25.8545 50.415-26.5381 49.9756-27.1484L48.7305-28.9307ZM57.5928-14.9414C57.5928-14.1357 58.1787-13.5498 58.96-13.5498C59.7656-13.5498 60.3516-14.1357 60.3516-14.9414L60.3516-34.1309C59.9365-34.0332 59.4971-33.96 59.1064-33.96L57.5928-33.96ZM57.5928-42.2852L59.1064-42.2852C59.4482-42.2852 59.8877-42.2363 60.3516-42.1143L60.3516-44.3115C60.3516-45.1172 59.7656-45.6787 58.96-45.6787C58.1787-45.6787 57.5928-45.1172 57.5928-44.3115Z" />
</svg>