<svg xmlns="http://www.w3.org/2000/svg" viewBox="6.83594 -75.9521 81.42 81.4">
  <path d="M47.5342 5.44434C70.0195 5.44434 88.2568-12.793 88.2568-35.2539C88.2568-57.7148 70.0195-75.9521 47.5342-75.9521C25.0732-75.9521 6.83594-57.7148 6.83594-35.2539C6.83594-12.793 25.0732 5.44434 47.5342 5.44434ZM48.9502-51.4648C46.3379-51.4648 44.2383-53.5645 44.2383-56.1768C44.2383-58.7646 46.3379-60.9131 48.9502-60.9131C51.5625-60.9131 53.6621-58.7646 53.6621-56.1768C53.6621-53.5645 51.5625-51.4648 48.9502-51.4648ZM29.7607-13.3057C28.8086-14.2578 28.8086-15.7959 29.7363-16.6992L37.8418-24.7314L36.377-30.4688C35.791-32.9346 36.0596-35.5713 37.207-37.8418L40.3076-44.043C40.4541-44.3848 40.2832-44.6777 39.9414-44.6777L35.8887-44.6777L32.5439-37.9883C31.958-36.792 30.542-36.4014 29.3457-36.9385C28.125-37.5244 27.71-38.9648 28.2959-40.1123L32.3486-48.1201C32.7148-48.9014 33.4961-49.4385 34.4727-49.4385L48.8281-49.4385C50.5371-49.4385 52.0264-48.8525 53.3203-47.5586L58.7158-42.1143L68.1641-39.3311C69.4092-38.9648 70.1416-37.6465 69.7998-36.4014C69.2871-34.8877 67.749-34.4971 66.8213-34.7656L56.7627-37.793C56.4697-37.8662 56.0791-38.0859 55.835-38.3789L50.7812-43.3594C50.5859-43.5791 50.3174-43.5303 50.1953-43.2861L45.8252-34.5215L52.6611-27.71C52.9297-27.4658 53.125-27.0752 53.2471-26.7578L56.7627-15.7227C57.1289-14.4775 56.5186-13.1592 55.2002-12.7686C54.0283-12.4023 52.6611-12.9395 52.2217-14.3066L48.877-24.6826L43.042-29.7119C42.749-30.0049 42.3096-29.834 42.3584-29.3945L42.7979-24.292C42.8955-23.4131 42.749-22.9004 42.1143-22.29L33.0811-13.3057C32.1045-12.3291 30.6641-12.4756 29.7607-13.3057ZM67.5049-22.29C64.6973-22.29 62.3779-24.5605 62.3779-27.4414C62.3779-30.249 64.6973-32.5439 67.5049-32.5439C70.3613-32.5439 72.6318-30.249 72.6318-27.4414C72.6318-24.5605 70.3613-22.29 67.5049-22.29Z"/>
</svg>