<svg xmlns="http://www.w3.org/2000/svg" viewBox="6.83594 -75.9521 81.42 81.4">
  <path d="M47.5342 5.44434C70.0195 5.44434 88.2568-12.793 88.2568-35.2539C88.2568-57.7148 70.0195-75.9521 47.5342-75.9521C25.0732-75.9521 6.83594-57.7148 6.83594-35.2539C6.83594-12.793 25.0732 5.44434 47.5342 5.44434ZM47.5098-51.6846C44.8975-51.6846 42.7979-53.8086 42.7979-56.4209C42.7979-59.0332 44.8975-61.1572 47.5098-61.1572C50.0977-61.1572 52.2217-59.0332 52.2217-56.4209C52.2217-53.8086 50.0977-51.6846 47.5098-51.6846ZM22.3389-32.959C22.3389-33.9111 23.0713-34.6191 23.999-34.6191L25.3662-34.6191L25.3662-38.3789C25.3662-39.4531 26.0986-40.21 27.1973-40.21L28.1982-40.21C29.248-40.21 29.9805-39.4531 29.9805-38.3789L29.9805-34.6191L34.1553-34.6191L40.1123-46.7041C41.0645-48.584 42.8467-49.6826 45.0439-49.6826L50-49.6826C52.1973-49.6826 53.9551-48.584 54.9072-46.7041L60.8643-34.6191L65.0146-34.6191L65.0146-38.3789C65.0146-39.4531 65.7227-40.21 66.7969-40.21L67.7979-40.21C68.8965-40.21 69.6045-39.4531 69.6045-38.3789L69.6045-34.6191L70.9961-34.6191C71.9482-34.6191 72.6562-33.9111 72.6562-32.959C72.6562-32.0068 71.9482-31.2988 70.9961-31.2988L69.6045-31.2988L69.6045-27.5146C69.6045-26.4404 68.8965-25.6836 67.7979-25.6836L66.7969-25.6836C65.7227-25.6836 65.0146-26.4404 65.0146-27.5146L65.0146-31.2988L62.4512-31.2988L62.5732-31.0059C62.9395-29.9316 62.4756-28.7109 61.4746-28.2227C60.3516-27.6123 58.9111-28.125 58.374-29.248L57.3975-31.2988L37.6221-31.2988L36.6455-29.248C36.1084-28.125 34.668-27.6123 33.5449-28.2227C32.5684-28.7109 32.0557-29.9316 32.4219-31.0059L32.5195-31.2988L29.9805-31.2988L29.9805-27.5146C29.9805-26.4404 29.248-25.6836 28.1982-25.6836L27.1973-25.6836C26.0986-25.6836 25.3662-26.4404 25.3662-27.5146L25.3662-31.2988L23.999-31.2988C23.0713-31.2988 22.3389-32.0068 22.3389-32.959ZM39.2578-34.6191L55.7373-34.6191L52.832-40.5273C52.6611-40.8447 52.2949-40.7471 52.2949-40.4785L52.2949-36.6943L42.749-36.6943L42.749-40.4785C42.749-40.7715 42.3828-40.8447 42.2119-40.5273ZM41.626-29.248L53.418-29.248L55.5908-23.0225C55.6641-22.7783 55.6885-22.6318 55.7373-22.4365L57.6904-13.2812C58.0566-11.6699 57.1045-10.6445 55.9814-10.4004C54.834-10.1562 53.5645-10.6934 53.2227-12.3047L51.2939-21.1182L47.5098-27.4414L43.75-21.1182L41.7969-12.3047C41.4551-10.7178 40.2344-10.1562 39.1113-10.4004C37.9639-10.5957 36.9629-11.6455 37.3291-13.2812L39.2822-22.4365C39.3311-22.6562 39.3555-22.7295 39.4531-23.0225Z"/>
</svg>