<svg xmlns="http://www.w3.org/2000/svg" viewBox="9.76562 -85.2295 87.89 100.24">
  <path d="M76.0986-66.9434C81.1279-66.9434 85.2295-71.0693 85.2295-76.0742C85.2295-81.1035 81.1279-85.2295 76.0986-85.2295C71.0938-85.2295 66.9678-81.1035 66.9678-76.0742C66.9678-71.0693 71.0938-66.9434 76.0986-66.9434ZM60.5225-10.4492C63.0859-10.4492 65.1123-12.4756 65.1123-14.9902L65.1123-34.1797C65.1123-35.376 64.6484-36.5967 63.8184-37.4023L53.6133-47.5342L62.6709-56.6406C63.1104-57.0801 63.7451-57.1045 64.1846-56.6406L70.7031-50.0488C71.5088-49.1943 72.7539-48.7549 73.9014-48.7549L93.0908-48.7549C95.6299-48.7549 97.6562-50.7324 97.6562-53.2959C97.6562-55.8105 95.6299-57.8613 93.0908-57.8613L75.8057-57.8613L61.6699-72.0215C59.79-73.9258 57.0557-75.0488 54.3701-75.0488L39.3799-75.0488C34.8389-75.0488 33.4717-70.0195 36.3037-67.2119L42.6514-60.8887L37.6465-55.9814C34.0576-52.4658 34.082-46.5088 37.6465-42.9688L44.5557-36.1084L44.5557-14.0381C44.5557-11.5723 46.5576-9.49707 49.1211-9.49707C51.6113-9.49707 53.6865-11.5723 53.6865-14.0381L53.6865-34.5703L55.9814-32.2754L55.9814-14.9902C55.9814-12.4756 58.0566-10.4492 60.5225-10.4492ZM12.8906-55.2979L52.2217-55.2979L52.2217-61.5723L12.8906-61.5723C11.1816-61.5723 9.76562-60.1562 9.76562-58.4229C9.76562-56.7139 11.1816-55.2979 12.8906-55.2979ZM94.5068-11.084C96.2158-11.084 97.6318-12.5 97.6318-14.209L97.6318-53.2959L91.3574-53.2959L91.3574-14.209C91.3574-12.5 92.7734-11.084 94.5068-11.084ZM76.0498 15.0146C77.7832 15.0146 79.1748 13.623 79.1748 11.8652C79.1748 10.1318 77.7832 8.74023 76.0498 8.74023C73.584 8.74023 72.7783 8.22754 70.7764 6.25L28.3691-36.1328C27.1484-37.3535 25.1221-37.3779 23.9502-36.1328C22.7295-34.9365 22.7539-32.9102 23.9502-31.7383L67.0654 11.4258C69.5801 13.9648 72.6562 15.0146 76.0498 15.0146ZM86.3525 12.8906C88.0859 12.8906 89.4775 11.499 89.4775 9.76562C89.4775 8.03223 88.0859 6.61621 86.3525 6.61621C83.8867 6.61621 83.0811 6.10352 81.0791 4.12598L38.6719-38.2324C37.4512-39.4775 35.4248-39.502 34.2285-38.2324C33.0322-37.0605 33.0566-35.0342 34.2285-33.8623L77.3682 9.30176C79.8828 11.8408 82.959 12.8906 86.3525 12.8906Z"/>
</svg>