<svg xmlns="http://www.w3.org/2000/svg" viewBox="6.83594 -75.9521 81.42 81.4">
  <path d="M47.5342 5.44434C70.0195 5.44434 88.2568-12.7686 88.2568-35.2539C88.2568-57.7393 70.0195-75.9521 47.5342-75.9521C25.0732-75.9521 6.83594-57.7393 6.83594-35.2539C6.83594-12.7686 25.0732 5.44434 47.5342 5.44434ZM47.5342-5.34668C31.0059-5.34668 17.6514-18.7256 17.6514-35.2539C17.6514-51.7822 31.0059-65.1611 47.5342-65.1611C64.0625-65.1611 77.4414-51.7822 77.4414-35.2539C77.4414-18.7256 64.0625-5.34668 47.5342-5.34668ZM40.3809-35.9619C42.8223-35.9619 44.8242-37.9639 44.8242-40.4297C44.8242-42.8955 42.8223-44.873 40.3809-44.873C37.8906-44.873 35.9131-42.8955 35.9131-40.4297C35.9131-37.9639 37.8906-35.9619 40.3809-35.9619ZM46.3623-39.4043L49.4385-39.4043L49.4385-41.5283L62.6953-54.834C63.3057-55.4443 63.3301-56.4209 62.6953-57.0068C62.1094-57.6172 61.1328-57.6172 60.5225-57.0068L47.0459-43.4814C46.582-43.0176 46.3623-42.4561 46.3623-41.748ZM54.4678-34.5947C55.6641-34.5947 56.665-35.5225 56.665-36.7676L56.665-50.2686L52.2461-45.874L52.2461-36.7676C52.2461-35.5225 53.2471-34.5947 54.4678-34.5947ZM42.627-20.6299C43.6523-21.2402 44.7266-21.7773 45.8252-22.2168L45.8252-29.6387C45.8252-29.8584 45.9961-30.0293 46.2158-30.0293L48.584-30.0293C49.7803-30.0293 50.7812-31.0303 50.7812-32.2266L50.7812-44.6533L46.3623-41.4307L46.3623-34.4238L39.5752-34.4238C37.7197-34.4238 36.4014-33.1055 36.4014-31.25L36.4014-27.5146C38.6719-25.9033 40.8203-23.6572 42.627-20.6299ZM23.7305-25.8545C29.5654-25.8545 35.8643-23.7061 39.5508-14.1357C40.0391-12.8174 41.6748-12.5977 42.5537-13.4766C46.8506-17.7246 51.6357-19.1406 58.7646-17.1143C59.5947-16.9189 60.3271-17.3096 60.6689-18.0664C62.085-21.3623 64.9902-23.0225 68.6035-23.0225C69.4336-23.0225 70.166-23.7061 70.166-24.585C70.166-25.4395 69.4336-26.1475 68.6035-26.1475C64.4287-26.1475 60.4736-24.1211 58.3496-20.459C51.6113-21.9971 46.1914-20.7031 41.7725-16.9922C37.3291-26.5869 29.8584-28.9551 23.7305-28.9551C22.876-28.9551 22.1924-28.2715 22.1924-27.3926C22.1924-26.5137 22.876-25.8545 23.7305-25.8545Z" />
</svg>