<svg xmlns="http://www.w3.org/2000/svg" viewBox="9.32617 -77.2217 97.34 83.91">
  <path d="M32.4219-58.96C37.4756-58.96 41.5527-63.0615 41.5527-68.1152C41.5527-73.1445 37.4756-77.2217 32.4219-77.2217C27.417-77.2217 23.291-73.1445 23.291-68.1152C23.291-63.0615 27.417-58.96 32.4219-58.96ZM23.1934-6.20117C26.0254-7.34863 28.8086-9.08203 32.2998-10.2295L32.9102-15.1611C32.959-15.5518 33.5205-15.6494 33.6914-15.3076L35.7666-11.1084C36.9629-11.3281 38.3057-11.4502 39.7461-11.4502C42.3828-11.4502 44.4336-10.9375 46.2158-10.1807L41.5039-22.6074L41.5039-46.46C41.5039-51.123 38.2324-55.0537 32.4707-55.0537L30.5664-55.0537C27.3193-55.0537 23.4375-54.5898 20.0439-51.2207L11.0107-42.2363C9.32617-40.5518 9.375-37.7197 11.0107-36.084L23.1934-24.0479ZM23.4375-35.5713L19.8975-39.1357L22.583-41.8945C22.9248-42.2363 23.4375-42.0166 23.4375-41.5771ZM16.7236-17.9932L100.928-69.6533C102.466-70.5811 102.856-72.4854 101.88-73.999C101.001-75.4883 99.0967-75.9277 97.6318-75L13.4277-23.3398C11.9141-22.3877 11.4746-20.459 12.4268-18.9941C13.3301-17.5049 15.2344-17.0654 16.7236-17.9932ZM14.917 6.68945L19.2627 6.68945C30.3223 6.68945 32.4951 0.268555 39.2822 0.268555C45.3613 0.268555 48.2422 6.68945 59.3018 6.68945C70.3857 6.68945 73.2666 0.268555 79.3213 0.268555C86.1328 0.268555 88.3057 6.68945 99.3408 6.68945L103.711 6.68945C105.371 6.68945 106.665 5.39551 106.665 3.75977C106.665 2.12402 105.371 0.830078 103.711 0.830078L99.3408 0.830078C92.3096 0.830078 89.9414-5.59082 79.3213-5.59082C69.458-5.59082 66.3574 0.830078 59.3018 0.830078C52.2705 0.830078 49.1699-5.59082 39.2822-5.59082C28.6865-5.59082 26.3184 0.830078 19.2627 0.830078L14.917 0.830078C13.2568 0.830078 11.9629 2.12402 11.9629 3.75977C11.9629 5.39551 13.2568 6.68945 14.917 6.68945Z"/>
</svg>