<svg xmlns="http://www.w3.org/2000/svg" viewBox="6.83594 -75.9521 81.42 81.4">
  <path d="M47.5342 5.44434C70.0195 5.44434 88.2568-12.793 88.2568-35.2539C88.2568-57.7148 70.0195-75.9521 47.5342-75.9521C25.0732-75.9521 6.83594-57.7148 6.83594-35.2539C6.83594-12.793 25.0732 5.44434 47.5342 5.44434ZM26.2939-23.9746C25.4639-23.9746 24.7803-24.6338 24.7803-25.4639C24.7803-26.3184 25.4639-27.0752 26.2939-27.0752L26.7822-27.0752C30.4199-27.0752 31.6406-30.3467 37.1582-30.3467C42.3096-30.3467 43.9209-27.0752 47.5342-27.0752C51.1719-27.0752 52.7832-30.3467 57.9346-30.3467C63.4521-30.3467 64.6729-27.0752 68.3105-27.0752L68.7988-27.0752C69.6289-27.0752 70.3369-26.3184 70.3369-25.4639C70.3369-24.6338 69.6289-23.9746 68.7988-23.9746L68.3105-23.9746C62.5732-23.9746 61.4746-27.2949 57.9346-27.2949C54.7363-27.2949 53.3447-23.9746 47.5342-23.9746C41.748-23.9746 40.332-27.2949 37.1582-27.2949C33.6182-27.2949 32.4951-23.9746 26.7822-23.9746ZM26.2939-17.8955C25.4639-17.8955 24.7803-18.5791 24.7803-19.4336C24.7803-20.2393 25.4639-20.9717 26.2939-20.9717L26.7822-20.9717C30.4199-20.9717 31.9824-24.292 37.1582-24.292C41.9678-24.292 43.9209-20.9717 47.5342-20.9717C51.1719-20.9717 53.125-24.292 57.9346-24.292C63.1104-24.292 64.6729-20.9717 68.3105-20.9717L68.7988-20.9717C69.6289-20.9717 70.3369-20.2393 70.3369-19.4336C70.3369-18.5791 69.6289-17.8955 68.7988-17.8955L68.3105-17.8955C62.5732-17.8955 61.4746-21.2158 57.9346-21.2158C54.7363-21.2158 53.3447-17.8955 47.5342-17.8955C41.748-17.8955 40.332-21.2158 37.1582-21.2158C33.6182-21.2158 32.4951-17.8955 26.7822-17.8955ZM43.335-52.124C43.335-52.9541 43.9941-53.6621 44.7998-53.6621C47.0703-53.6621 48.7061-53.1006 50.3418-51.6846C52.0264-53.1006 53.6377-53.6621 55.9082-53.6621C56.7383-53.6621 57.3975-52.9541 57.3975-52.124C57.3975-51.2939 56.7383-50.6104 55.9082-50.6104C54.1016-50.6104 53.0518-50.293 52.002-49.1211C51.4648-48.5596 50.9521-48.2422 50.3418-48.2422C49.7559-48.2422 49.1943-48.5596 48.7061-49.1211C47.6074-50.293 46.6064-50.6104 44.7998-50.6104C43.9697-50.6104 43.335-51.2939 43.335-52.124ZM40.2832-32.8857L44.9463-35.9619C45.5322-36.3281 45.459-36.8652 45.0439-37.3047L41.5771-40.8447L35.1562-36.3525C33.8867-35.4736 32.5684-35.791 31.8604-36.6455C30.957-37.5732 30.7861-39.2334 32.3242-40.2832L40.4297-46.0449C41.6504-46.8994 43.1396-46.7773 44.1162-45.7275L56.1523-33.252C52.2705-32.6172 50.8789-30.0537 47.5342-30.0537C44.6289-30.0537 43.1396-31.9824 40.2832-32.8857ZM58.9844-35.9375C56.3965-35.9375 54.248-38.0615 54.248-40.6494C54.248-43.2617 56.3965-45.3369 58.9844-45.3369C61.5967-45.3369 63.7207-43.2617 63.7207-40.6494C63.7207-38.0615 61.5967-35.9375 58.9844-35.9375Z"/>
</svg>