<svg xmlns="http://www.w3.org/2000/svg" viewBox="6.83594 -75.9521 81.42 81.4">
  <path d="M47.5342 5.44434C70.0195 5.44434 88.2568-12.7686 88.2568-35.2539C88.2568-57.7393 70.0195-75.9521 47.5342-75.9521C25.0732-75.9521 6.83594-57.7393 6.83594-35.2539C6.83594-12.7686 25.0732 5.44434 47.5342 5.44434ZM47.5342-5.34668C31.0059-5.34668 17.6514-18.7256 17.6514-35.2539C17.6514-51.7822 31.0059-65.1611 47.5342-65.1611C64.0625-65.1611 77.4414-51.7822 77.4414-35.2539C77.4414-18.7256 64.0625-5.34668 47.5342-5.34668ZM59.8145-45.2881C62.2803-45.2881 64.2578-47.29 64.2578-49.7314C64.2578-52.2217 62.2803-54.1992 59.8145-54.1992C57.3486-54.1992 55.3467-52.2217 55.3467-49.7314C55.3467-47.29 57.3486-45.2881 59.8145-45.2881ZM45.9717-18.9453C47.2656-18.9453 48.2666-19.9951 48.2666-21.2402L48.2666-30.3467C48.2666-31.2744 47.8271-31.9092 47.29-32.4707L41.5283-38.2324L48.291-39.9658C48.6328-40.0391 48.877-39.8193 48.877-39.502L48.877-35.7666C48.877-35.2051 49.1211-34.5947 49.5605-34.1553L55.7617-27.9297C56.665-27.0264 58.1299-27.0264 59.0088-27.9297C59.9121-28.8086 59.9121-30.2734 59.0088-31.1768L53.4424-36.6943L53.4424-40.0146L56.2012-36.8652C56.6406-36.3525 57.2754-36.084 57.9346-36.084L67.2607-36.084C68.5547-36.084 69.5557-37.085 69.5557-38.3789C69.5557-39.6484 68.5547-40.6494 67.2607-40.6494L58.96-40.6494L54.0771-46.3135C52.4658-48.1445 50-48.877 47.6562-48.2666L37.0361-45.6055C32.666-44.5312 31.9092-39.1113 35.3516-36.3037L43.7012-29.5166L43.7012-21.2402C43.7012-19.9951 44.7266-18.9453 45.9717-18.9453ZM27.7832-19.6045C28.6621-18.7256 30.1514-18.7256 31.0059-19.6045L38.2568-26.8555C38.6963-27.2949 38.8184-27.71 38.9404-28.3447L39.3555-30.5908L34.375-34.5947L34.375-29.4434L27.7832-22.8516C26.8799-21.9727 26.8799-20.4834 27.7832-19.6045Z" />
</svg>