<svg xmlns="http://www.w3.org/2000/svg" viewBox="7.8125 -78.4912 79.05 86.35">
  <path d="M19.3848 7.86133L75.3174 7.86133C82.3242 7.86133 86.8652 2.6123 86.8652-3.73535C86.8652-5.7373 86.1084-8.12988 84.6436-10.4004L62.793-45.3613L55.5908-39.4287L76.2451-6.49414C76.6113-5.9082 76.6357-5.22461 76.6357-4.78516C76.6357-3.02734 75.3418-1.41602 73.4131-1.41602L21.2891-1.41602C19.3359-1.41602 18.042-3.02734 18.042-4.78516C18.042-5.22461 18.0908-5.9082 18.457-6.49414L39.1113-39.4287L31.8848-45.3613L9.83887-10.1318C8.49609-8.03223 7.8125-5.7373 7.8125-3.73535C7.8125 2.6123 12.3779 7.86133 19.3848 7.86133ZM29.7363-39.4287L39.1113-39.4287L39.1113-73.9014L29.7363-73.9014ZM64.9658-39.4287L64.9658-73.9014L55.5908-73.9014L55.5908-39.4287ZM30.9082-68.8232L63.7695-68.8232C66.5527-68.8232 68.6279-70.9961 68.6279-73.6816C68.6279-76.3672 66.5771-78.4912 63.7695-78.4912L30.9082-78.4912C28.1006-78.4912 26.0742-76.3672 26.0742-73.6816C26.0742-70.9961 28.125-68.8232 30.9082-68.8232ZM34.7656-58.1787L45.7764-58.1787C47.3389-58.1787 48.5107-59.3994 48.5107-60.9619C48.5107-62.4512 47.29-63.6475 45.752-63.6475L34.7656-63.6475ZM34.79-47.6807L45.8008-47.6807C47.3633-47.6807 48.5352-48.877 48.5352-50.4639C48.5352-51.9287 47.3145-53.125 45.7764-53.125L34.79-53.125ZM34.79-37.1582L45.8008-37.1582C47.3633-37.1582 48.5352-38.3545 48.5352-39.9414C48.5352-41.4062 47.3389-42.6025 45.8008-42.6025L34.79-42.6025Z"/>
</svg>