<svg xmlns="http://www.w3.org/2000/svg" viewBox="9.76562 -67.8955 116.77 65.28">
  <path d="M9.76562-10.083C9.76562-5.15137 12.8174-2.6123 16.4551-2.6123C17.9932-2.6123 19.6289-3.05176 21.1914-3.95508L63.0127-28.2227C66.4307-30.2246 68.3105-32.2021 68.3105-35.2539C68.3105-38.3057 66.4307-40.2832 63.0127-42.2852L21.1914-66.5527C19.6289-67.4561 17.9932-67.8955 16.4551-67.8955C12.8174-67.8955 9.76562-65.3564 9.76562-60.4248ZM20.3613-16.8945L20.3613-53.6133C20.3613-54.1016 20.6787-54.4434 21.1426-54.4434C21.2891-54.4434 21.4355-54.3945 21.582-54.3213L53.2959-35.9375C53.6133-35.7666 53.7354-35.498 53.7354-35.2539C53.7354-35.0098 53.6133-34.7412 53.2959-34.5703L21.582-16.1865C21.4355-16.1133 21.2891-16.0645 21.1426-16.0645C20.6787-16.0645 20.3613-16.4062 20.3613-16.8945ZM68.0176-10.083C68.0176-5.15137 71.0693-2.6123 74.707-2.6123C76.2451-2.6123 77.8564-3.05176 79.4189-3.95508L121.24-28.2227C124.683-30.2246 126.538-32.2021 126.538-35.2539C126.538-38.3057 124.683-40.2832 121.24-42.2852L79.4189-66.5527C77.8564-67.4561 76.2451-67.8955 74.707-67.8955C71.0693-67.8955 68.0176-65.3564 68.0176-60.4248ZM78.6133-16.8945L78.6133-53.6133C78.6133-54.1016 78.9307-54.4434 79.3701-54.4434C79.5166-54.4434 79.6875-54.3945 79.834-54.3213L111.548-35.9375C111.865-35.7666 111.987-35.498 111.987-35.2539C111.987-35.0098 111.865-34.7412 111.548-34.5703L79.834-16.1865C79.6875-16.1133 79.5166-16.0645 79.3701-16.0645C78.9307-16.0645 78.6133-16.4062 78.6133-16.8945Z"/>
</svg>