<svg xmlns="http://www.w3.org/2000/svg" viewBox="9.76562 -73.0957 125.22 75.73">
  <path d="M108.521-3.36914C116.26-3.36914 122.51-9.59473 122.51-17.3828C122.51-22.8271 119.263-26.9287 115.576-29.3213C114.453-30.0049 113.843-31.1523 113.843-32.7148L113.843-62.3779C113.843-65.3076 111.426-67.7246 108.545-67.7246C105.64-67.7246 103.223-65.3076 103.223-62.3779L103.223-32.7148C103.223-31.2012 102.588-30.0781 101.416-29.3701C97.7539-26.9531 94.5557-22.8271 94.5557-17.3828C94.5557-9.59473 100.781-3.36914 108.521-3.36914ZM123.608-57.373L132.275-57.373C133.911-57.373 134.985-58.5693 134.985-60.0586C134.985-61.5234 133.911-62.7197 132.275-62.7197L123.608-62.7197C121.973-62.7197 120.923-61.5234 120.923-60.0586C120.923-58.5693 121.973-57.373 123.608-57.373ZM123.608-46.9482L132.275-46.9482C133.911-46.9482 134.985-48.1689 134.985-49.6338C134.985-51.0986 133.911-52.2949 132.275-52.2949L123.608-52.2949C121.973-52.2949 120.923-51.0986 120.923-49.6338C120.923-48.1689 121.973-46.9482 123.608-46.9482ZM123.608-36.5479L132.275-36.5479C133.911-36.5479 134.985-37.7441 134.985-39.209C134.985-40.6738 133.911-41.8701 132.275-41.8701L123.608-41.8701C121.973-41.8701 120.923-40.6738 120.923-39.209C120.923-37.7441 121.973-36.5479 123.608-36.5479ZM15.4053-0.12207L23.4619-0.12207L23.4619-62.9883C23.4619-64.2822 24.1211-65.0146 25.3418-65.0146L52.9785-65.0146C54.1992-65.0146 54.8828-64.3066 54.8828-62.9883L54.8828-0.12207L62.9395-0.12207L62.9395-63.7939C62.9395-69.7754 59.6191-73.0957 53.6621-73.0957L24.6582-73.0957C18.7012-73.0957 15.4053-69.751 15.4053-63.7939ZM29.3701-42.1875L48.9746-42.1875C50.3906-42.1875 51.416-43.1641 51.416-44.4824L51.416-59.3018C51.416-60.6201 50.3906-61.5723 48.9746-61.5723L29.3701-61.5723C27.9297-61.5723 26.9043-60.6201 26.9043-59.3018L26.9043-44.4824C26.9043-43.1641 27.9541-42.1875 29.3701-42.1875ZM9.76562-1.34277C9.76562 0.854492 11.5479 2.63672 13.6963 2.63672L64.6484 2.63672C66.8213 2.63672 68.6035 0.854492 68.6035-1.34277C68.6035-3.49121 66.8213-5.29785 64.6484-5.29785L13.6963-5.29785C11.5479-5.29785 9.76562-3.51562 9.76562-1.34277ZM75.415-7.49512C81.7139-7.49512 85.2783-11.7188 85.2783-19.1162C85.2783-27.417 83.7646-37.1338 80.5908-51.8066L79.9805-54.5654C79.1748-58.2031 78.0273-61.3037 75.9521-63.8916L72.4121-68.2861C70.3613-70.874 66.3574-67.8955 68.5547-65.1611L73.1445-59.4238C73.3887-59.1064 73.4131-58.667 73.1689-58.2275L70.5322-53.3203C69.6533-51.7334 69.7998-50.5859 71.1914-49.0723L77.5635-42.2852C79.4434-33.4717 80.3955-25.3906 80.3955-19.1162C80.3955-14.7461 78.6377-12.4023 75.415-12.4023C72.6074-12.4023 70.874-14.1357 70.874-17.0654C70.874-22.0215 71.6553-28.1006 71.6553-34.0088C71.6553-40.1123 68.6768-44.7266 60.9863-47.1191L59.0332-42.627C64.6729-41.0645 66.748-37.9395 66.748-34.0088C66.748-28.7842 65.9424-22.7295 65.9424-17.0654C65.9424-11.2061 69.6289-7.49512 75.415-7.49512Z"/>
</svg>