<svg xmlns="http://www.w3.org/2000/svg" viewBox="3.80859 -79.5654 94.46 94.19">
  <path d="M62.5732-32.1045L72.1436-22.5098L72.1436-41.9922C75.293-39.9902 76.5625-37.1826 76.5625-33.8867C76.5625-29.2236 76.0254-24.0234 75.7568-18.8721L81.4453-13.2324C81.4209-13.4766 81.3965-13.7695 81.3965-14.0625C81.3965-19.873 82.3242-26.9287 82.3242-33.8867C82.3242-40.3809 79.4434-45.4346 72.1436-48.4131L72.1436-68.6279C72.1436-75.6592 68.2129-79.5654 61.2061-79.5654L27.2705-79.5654C23.3398-79.5654 20.5078-78.2471 18.8721-75.7812L26.8799-67.749L26.8799-68.6035C26.9043-69.5312 27.3926-70.0195 28.3447-70.0195L60.376-70.0195C61.7432-70.0195 62.5488-69.165 62.5488-67.6514ZM98.2666-16.4795C98.2666-26.1963 96.5332-37.5488 92.7734-54.6875L92.0654-57.9102C91.1377-62.1582 89.7949-65.7959 87.3535-68.8232L83.2275-73.9746C80.8105-77.0264 76.0986-73.5107 78.7109-70.2881L84.0332-63.5742C84.3262-63.1836 84.375-62.6953 84.0576-62.1826L80.957-56.4453C79.9561-54.5654 80.127-53.2471 81.7871-51.4404L89.2578-43.4814C91.4307-33.2031 92.5049-23.7793 92.5049-16.4795C92.5049-11.3525 90.4785-8.61816 86.7188-8.61816C86.4746-8.61816 86.2305-8.64258 85.9863-8.69141L91.1133-3.56445C95.7031-5.2002 98.2666-9.7168 98.2666-16.4795ZM14.4287 9.10645L74.0723 9.10645C75.3662 9.10645 76.5381 8.52051 77.3438 7.66602L62.5732-7.10449L62.5732-0.268555L25.9277-0.268555L25.9277-43.9453L16.4062-53.4668L16.4062-0.268555L14.4287-0.268555C11.8896-0.268555 9.76562 1.83105 9.76562 4.39453C9.76562 6.98242 11.8652 9.10645 14.4287 9.10645ZM58.5205-46.0938L58.5205-63.2812C58.5205-64.8682 57.2998-65.9668 55.5908-65.9668L32.8613-65.9668C31.9824-65.9668 31.2988-65.4785 31.0547-64.8193L31.0547-63.5986L51.2451-43.4082L55.9326-43.4082C57.4463-43.5547 58.5205-44.6533 58.5205-46.0938ZM90.7227 13.2812C92.0898 14.5996 94.2627 14.624 95.5566 13.2812C96.8506 11.9385 96.9238 9.76562 95.5566 8.42285L9.98535-77.0996C8.64258-78.4424 6.44531-78.4424 5.10254-77.0996C3.80859-75.8057 3.80859-73.5596 5.10254-72.2656Z"/>
</svg>