<svg xmlns="http://www.w3.org/2000/svg" viewBox="9.76562 -71.9238 115.45 73.39">
  <path d="M33.8379-42.2607C33.8379-44.9463 35.5713-46.6553 38.3545-46.6553L43.9697-46.6553L43.9697-51.9043C43.9697-54.7119 45.7031-56.5186 48.4619-56.5186C51.1963-56.5186 52.9297-54.7119 52.9297-51.9043L52.9297-46.6553L58.1299-46.6553C61.1328-46.6553 62.9639-44.9463 62.9639-42.2607C62.9639-39.5264 61.1328-37.8174 58.1299-37.8174L52.9297-37.8174L52.9297-32.5439C52.9297-29.7363 51.1963-27.9297 48.4619-27.9297C45.7031-27.9297 43.9697-29.7363 43.9697-32.5439L43.9697-37.8174L38.3545-37.8174C35.5713-37.8174 33.8379-39.5264 33.8379-42.2607ZM93.1152-42.2363C89.5508-42.2363 86.6211-45.0439 86.6211-48.6572C86.6211-52.2705 89.5508-55.127 93.1152-55.127C96.7285-55.127 99.585-52.2705 99.585-48.6572C99.585-45.0439 96.7285-42.2363 93.1152-42.2363ZM80.957-29.7363C77.3926-29.7363 74.4873-32.6172 74.4873-36.2061C74.4873-39.7949 77.3926-42.6514 80.957-42.6514C84.5703-42.6514 87.4268-39.7949 87.4268-36.2061C87.4268-32.6172 84.5703-29.7363 80.957-29.7363ZM25.6348 1.46484C32.2754 1.46484 36.6699-1.07422 40.5029-5.12695L47.0215-12.1338C47.9492-13.1104 48.6816-13.5742 49.9023-13.5742L85.0586-13.5742C86.3037-13.5742 87.0361-13.1104 87.9639-12.1338L94.4824-5.12695C98.3154-1.09863 102.686 1.46484 109.326 1.46484C118.53 1.46484 125.22-4.49219 125.22-14.5996C125.22-18.9697 124.365-23.8525 122.803-29.0771C120.41-37.0605 116.284-47.8271 112.402-55.9814C109.033-63.0615 106.934-67.0654 97.9004-69.0918C90.2588-70.8252 79.9561-71.9238 67.4805-71.9238C55.0293-71.9238 44.7266-70.8252 37.085-69.0918C28.0518-67.0654 25.9521-63.0615 22.5586-55.9814C18.7012-47.8271 14.5752-37.0605 12.1826-29.0771C10.6201-23.8525 9.76562-18.9697 9.76562-14.5996C9.76562-4.49219 16.4551 1.46484 25.6348 1.46484Z"/>
</svg>