<svg xmlns="http://www.w3.org/2000/svg" viewBox="9.76562 -72.0947 73.71 73.73">
  <path d="M23.6084 1.63574L69.6289 1.63574C78.5889 1.63574 83.4717-3.24707 83.4717-12.1338L83.4717-58.3252C83.4717-67.2119 78.5889-72.0947 69.6289-72.0947L23.6084-72.0947C14.6729-72.0947 9.76562-67.2119 9.76562-58.3252L9.76562-12.1338C9.76562-3.24707 14.6729 1.63574 23.6084 1.63574ZM24.7803-8.98438C21.8994-8.98438 20.3613-10.376 20.3613-13.4277L20.3613-57.0312C20.3613-60.1074 21.8994-61.4746 24.7803-61.4746L68.457-61.4746C71.3379-61.4746 72.876-60.1074 72.876-57.0312L72.876-13.4277C72.876-10.376 71.3379-8.98438 68.457-8.98438ZM47.0703-18.7744C55.7861-18.7744 61.0352-23.9746 61.0352-32.2754L61.0352-33.0811C61.0352-35.3516 59.7656-36.8896 57.5439-36.8896L47.6318-36.8896L47.6318-31.8604L54.0039-31.8604L53.9795-30.835C53.9062-27.0752 51.3428-24.6338 47.1924-24.6338C41.4062-24.6338 39.0869-29.834 39.0869-35.5225C39.0869-40.8936 41.1133-46.1914 46.9238-46.1914C49.9756-46.1914 52.4414-44.7021 53.6865-42.1631C54.4434-40.8936 55.3223-40.1367 57.0068-40.1367C58.8379-40.1367 60.0342-41.3574 60.0342-43.1885C60.0342-43.8477 59.9121-44.5801 59.5459-45.3125C57.4219-49.9023 51.9287-52.0508 46.8994-52.0508C37.0117-52.0508 31.6895-45.166 31.6895-35.4248C31.6895-25.3418 37.1582-18.7744 47.0703-18.7744ZM46.8018-15.1611C47.4365-15.1611 47.9248-15.6494 47.9248-16.333L47.9248-54.541C47.9248-55.2246 47.4365-55.7129 46.8018-55.7129C46.1182-55.7129 45.6299-55.2246 45.6299-54.541L45.6299-16.333C45.6299-15.6494 46.1182-15.1611 46.8018-15.1611Z" />
</svg>