<svg xmlns="http://www.w3.org/2000/svg" viewBox="9.76562 -72.0703 91.58 73.73">
  <path d="M29.0283-35.2295L53.3936-35.2295C54.9805-35.2295 55.5664-35.8643 55.5664-37.4512L55.5664-52.71C55.5664-54.3213 54.9805-54.9561 53.3936-54.9561L29.0283-54.9561C27.4658-54.9561 26.8799-54.3213 26.8799-52.71L26.8799-37.4512C26.8799-35.8643 27.4658-35.2295 29.0283-35.2295ZM23.6084 1.66016L87.5 1.66016C96.46 1.66016 101.343-3.22266 101.343-12.1094L101.343-58.3008C101.343-67.1875 96.46-72.0703 87.5-72.0703L23.6084-72.0703C14.6729-72.0703 9.76562-67.1875 9.76562-58.3008L9.76562-12.1094C9.76562-3.22266 14.6729 1.66016 23.6084 1.66016ZM24.7803-8.95996C21.8994-8.95996 20.3613-10.3516 20.3613-13.4033L20.3613-57.0068C20.3613-60.083 21.8994-61.4502 24.7803-61.4502L86.3281-61.4502C89.209-61.4502 90.7471-60.083 90.7471-57.0068L90.7471-13.4033C90.7471-10.3516 89.209-8.95996 86.3281-8.95996Z" />
</svg>