<svg xmlns="http://www.w3.org/2000/svg" viewBox="9.76562 -72.0703 91.58 73.73">
  <path d="M29.1016-32.1533C27.5146-32.1533 26.8799-31.5674 26.8799-29.9805L26.8799-17.7002C26.8799-16.1133 27.4658-15.4541 29.0283-15.4541L82.0801-15.4541C83.6426-15.4541 84.2285-16.1133 84.2285-17.6758L84.2285-29.9805C84.2285-31.5674 83.5938-32.1533 82.0068-32.1533ZM29.0283-54.9561C27.4658-54.9561 26.8799-54.3213 26.8799-52.71L26.8799-40.4297C26.8799-38.8184 27.4902-38.208 29.0527-38.208L50.3662-38.208C51.9287-38.208 52.5391-38.8184 52.5391-40.4053L52.5391-52.71C52.5391-54.3213 51.9531-54.9561 50.3906-54.9561ZM60.7422-54.9561C59.1553-54.9561 58.5693-54.3213 58.5693-52.71L58.5693-40.4297C58.5693-38.8184 59.1797-38.208 60.7666-38.208L82.0557-38.208C83.6182-38.208 84.2285-38.8184 84.2285-40.4053L84.2285-52.71C84.2285-54.3213 83.6426-54.9561 82.0801-54.9561ZM23.6084 1.66016L87.5 1.66016C96.46 1.66016 101.343-3.22266 101.343-12.1094L101.343-58.3008C101.343-67.1875 96.46-72.0703 87.5-72.0703L23.6084-72.0703C14.6729-72.0703 9.76562-67.1875 9.76562-58.3008L9.76562-12.1094C9.76562-3.22266 14.6729 1.66016 23.6084 1.66016ZM24.7803-8.95996C21.8994-8.95996 20.3613-10.3516 20.3613-13.4033L20.3613-57.0068C20.3613-60.083 21.8994-61.4502 24.7803-61.4502L86.3281-61.4502C89.209-61.4502 90.7471-60.083 90.7471-57.0068L90.7471-13.4033C90.7471-10.3516 89.209-8.95996 86.3281-8.95996Z" />
</svg>