<svg xmlns="http://www.w3.org/2000/svg" viewBox="6.83594 -73.2422 101.9 75.98">
  <path d="M46.2891-13.8916L69.2871-13.8916C84.2041-13.8916 92.1143-21.3867 92.1143-35.2539C92.1143-49.1211 84.2041-56.6162 69.2871-56.6162L46.2891-56.6162C31.3721-56.6162 23.4619-49.1211 23.4619-35.2539C23.4619-21.3867 31.3721-13.8916 46.2891-13.8916ZM6.83594-35.2539C6.83594-12.4268 22.6074 2.73438 46.2891 2.73438L69.2871 2.73438C92.9443 2.73438 108.74-12.4268 108.74-35.2539C108.74-58.0811 92.9443-73.2422 69.2871-73.2422L46.2891-73.2422C22.6074-73.2422 6.83594-58.0811 6.83594-35.2539ZM17.4316-35.2539C17.4316-51.709 28.9551-62.6465 46.2891-62.6465L69.2871-62.6465C86.6211-62.6465 98.1201-51.709 98.1201-35.2539C98.1201-18.7988 86.6211-7.86133 69.2871-7.86133L46.2891-7.86133C28.9551-7.86133 17.4316-18.7988 17.4316-35.2539Z"/>
</svg>