<svg xmlns="http://www.w3.org/2000/svg" viewBox="9.76562 -67.7979 100.07 87.11">
  <path d="M59.8145 19.3115C61.5723 19.3115 63.5254 18.5059 65.4541 17.8467L83.2275 11.8164C85.5713 11.0596 86.7676 9.00879 86.7676 7.27539C86.7676 4.3457 84.7656 2.22168 81.8359 2.22168C80.2246 2.22168 78.8818 2.83203 77.4414 3.36914L54.1992 11.7432L65.4297 11.7432L42.1875 3.36914C40.7471 2.83203 39.4287 2.22168 37.793 2.22168C34.9365 2.22168 32.8613 4.29688 32.8613 7.27539C32.8613 9.00879 34.0332 11.0596 36.4014 11.8164L54.1748 17.8467C56.1279 18.5303 58.0566 19.3115 59.8145 19.3115ZM23.6084-2.75879L95.9961-2.75879C104.932-2.75879 109.839-7.6416 109.839-16.5283L109.839-54.0527C109.839-62.915 104.932-67.7979 95.9961-67.7979L23.6084-67.7979C14.6484-67.7979 9.76562-62.9395 9.76562-54.0527L9.76562-16.5283C9.76562-7.6416 14.6484-2.75879 23.6084-2.75879ZM26.9775-43.8721C25.6836-43.8721 24.9023-44.6289 24.9023-45.9229L24.9023-49.7803C24.9023-51.0742 25.6836-51.8555 26.9775-51.8555L30.8105-51.8555C32.1045-51.8555 32.8857-51.0742 32.8857-49.7803L32.8857-45.9229C32.8857-44.6289 32.1045-43.8721 30.8105-43.8721ZM39.3311-43.8721C38.0371-43.8721 37.2803-44.6289 37.2803-45.9229L37.2803-49.7803C37.2803-51.0742 38.0371-51.8555 39.3311-51.8555L43.1396-51.8555C44.458-51.8555 45.2393-51.0742 45.2393-49.7803L45.2393-45.9229C45.2393-44.6289 44.458-43.8721 43.1396-43.8721ZM51.6846-43.8721C50.415-43.8721 49.6094-44.6289 49.6094-45.9229L49.6094-49.7803C49.6094-51.0742 50.415-51.8555 51.6846-51.8555L55.5176-51.8555C56.8115-51.8555 57.5928-51.0742 57.5928-49.7803L57.5928-45.9229C57.5928-44.6289 56.8115-43.8721 55.5176-43.8721ZM64.0381-43.8721C62.7686-43.8721 61.9873-44.6289 61.9873-45.9229L61.9873-49.7803C61.9873-51.0742 62.7686-51.8555 64.0381-51.8555L67.8711-51.8555C69.1406-51.8555 69.9463-51.0742 69.9463-49.7803L69.9463-45.9229C69.9463-44.6289 69.1406-43.8721 67.8711-43.8721ZM76.6602-43.8721C75.2197-43.8721 74.3164-44.6289 74.3164-45.9229L74.3164-49.7803C74.3164-51.0742 75.2197-51.8555 76.6602-51.8555L80.249-51.8555C81.543-51.8555 82.2754-51.0742 82.2754-49.7803L82.2754-45.9229C82.2754-44.6289 81.543-43.8721 80.249-43.8721ZM88.7451-43.8721C87.4756-43.8721 86.6943-44.6289 86.6943-45.9229L86.6943-49.7803C86.6943-51.0742 87.4756-51.8555 88.7451-51.8555L92.5781-51.8555C93.8721-51.8555 94.6533-51.0742 94.6533-49.7803L94.6533-45.9229C94.6533-44.6289 93.8721-43.8721 92.5781-43.8721ZM26.9775-31.2256C25.6836-31.2256 24.9023-32.0312 24.9023-33.3008L24.9023-37.1826C24.9023-38.4521 25.6836-39.2334 26.9775-39.2334L30.8105-39.2334C32.1045-39.2334 32.8857-38.4521 32.8857-37.1826L32.8857-33.3008C32.8857-32.0312 32.1045-31.2256 30.8105-31.2256ZM39.3311-31.2256C38.0371-31.2256 37.2803-32.0312 37.2803-33.3008L37.2803-37.1826C37.2803-38.4521 38.0371-39.2334 39.3311-39.2334L43.1396-39.2334C44.458-39.2334 45.2393-38.4521 45.2393-37.1826L45.2393-33.3008C45.2393-32.0312 44.458-31.2256 43.1396-31.2256ZM51.6846-31.2256C50.415-31.2256 49.6094-32.0312 49.6094-33.3008L49.6094-37.1826C49.6094-38.4521 50.415-39.2334 51.6846-39.2334L55.5176-39.2334C56.8115-39.2334 57.5928-38.4521 57.5928-37.1826L57.5928-33.3008C57.5928-32.0312 56.8115-31.2256 55.5176-31.2256ZM64.0381-31.2256C62.7686-31.2256 61.9873-32.0312 61.9873-33.3008L61.9873-37.1826C61.9873-38.4521 62.7686-39.2334 64.0381-39.2334L67.8711-39.2334C69.1406-39.2334 69.9463-38.4521 69.9463-37.1826L69.9463-33.3008C69.9463-32.0312 69.1406-31.2256 67.8711-31.2256ZM76.6602-31.2256C75.2197-31.2256 74.3164-32.0312 74.3164-33.3008L74.3164-37.1826C74.3164-38.4521 75.2197-39.2334 76.6602-39.2334L80.249-39.2334C81.543-39.2334 82.2754-38.4521 82.2754-37.1826L82.2754-33.3008C82.2754-32.0312 81.543-31.2256 80.249-31.2256ZM88.7451-31.2256C87.4756-31.2256 86.6943-32.0312 86.6943-33.3008L86.6943-37.1826C86.6943-38.4521 87.4756-39.2334 88.7451-39.2334L92.5781-39.2334C93.8721-39.2334 94.6533-38.4521 94.6533-37.1826L94.6533-33.3008C94.6533-32.0312 93.8721-31.2256 92.5781-31.2256ZM26.9775-18.6279C25.6836-18.6279 24.9023-19.3848 24.9023-20.6787L24.9023-24.5361C24.9023-25.8301 25.6836-26.6113 26.9775-26.6113L30.8105-26.6113C32.1045-26.6113 32.8857-25.8301 32.8857-24.5361L32.8857-20.6787C32.8857-19.3848 32.1045-18.6279 30.8105-18.6279ZM39.5752-18.6279C38.1104-18.6279 37.2803-19.458 37.2803-20.9473L37.2803-24.3164C37.2803-25.7568 38.1104-26.6113 39.5752-26.6113L79.9805-26.6113C81.4453-26.6113 82.2754-25.7568 82.2754-24.3164L82.2754-20.9473C82.2754-19.458 81.4453-18.6279 79.9805-18.6279ZM88.7451-18.6279C87.4756-18.6279 86.6943-19.3848 86.6943-20.6787L86.6943-24.5361C86.6943-25.8301 87.4756-26.6113 88.7451-26.6113L92.5781-26.6113C93.8721-26.6113 94.6533-25.8301 94.6533-24.5361L94.6533-20.6787C94.6533-19.3848 93.8721-18.6279 92.5781-18.6279Z"/>
</svg>