<svg xmlns="http://www.w3.org/2000/svg" viewBox="9.76562 -72.0703 91.58 73.73">
  <path d="M28.7354-36.8652L31.9092-36.8652C32.9834-36.8652 33.6426-37.4756 33.6426-38.5498L33.6426-41.7969C33.6426-42.8711 32.9834-43.5059 31.9092-43.5059L28.7354-43.5059C27.6123-43.5059 26.9775-42.8711 26.9775-41.7969L26.9775-38.5498C26.9775-37.4756 27.6123-36.8652 28.7354-36.8652ZM38.8184-36.8652L42.0166-36.8652C43.0908-36.8652 43.7256-37.4756 43.7256-38.5498L43.7256-41.7969C43.7256-42.8711 43.0908-43.5059 42.0166-43.5059L38.8184-43.5059C37.7441-43.5059 37.085-42.8711 37.085-41.7969L37.085-38.5498C37.085-37.4756 37.7441-36.8652 38.8184-36.8652ZM48.9014-36.8652L52.124-36.8652C53.1738-36.8652 53.833-37.4756 53.833-38.5498L53.833-41.7969C53.833-42.8711 53.1738-43.5059 52.124-43.5059L48.9014-43.5059C47.8271-43.5059 47.1924-42.8711 47.1924-41.7969L47.1924-38.5498C47.1924-37.4756 47.8271-36.8652 48.9014-36.8652ZM59.0088-36.8652L62.2314-36.8652C63.3301-36.8652 63.9404-37.4756 63.9404-38.5498L63.9404-41.7969C63.9404-42.8711 63.3301-43.5059 62.2314-43.5059L59.0088-43.5059C57.959-43.5059 57.2998-42.8711 57.2998-41.7969L57.2998-38.5498C57.2998-37.4756 57.959-36.8652 59.0088-36.8652ZM69.3115-36.8652L72.3389-36.8652C73.4131-36.8652 74.0723-37.4756 74.0723-38.5498L74.0723-41.7969C74.0723-42.8711 73.4131-43.5059 72.3389-43.5059L69.3115-43.5059C68.1152-43.5059 67.4072-42.8711 67.4072-41.7969L67.4072-38.5498C67.4072-37.4756 68.1152-36.8652 69.3115-36.8652ZM79.248-36.8652L82.4219-36.8652C83.5449-36.8652 84.1797-37.4756 84.1797-38.5498L84.1797-41.7969C84.1797-42.8711 83.5449-43.5059 82.4219-43.5059L79.248-43.5059C78.1494-43.5059 77.5146-42.8711 77.5146-41.7969L77.5146-38.5498C77.5146-37.4756 78.1494-36.8652 79.248-36.8652ZM28.7354-26.5869L31.9092-26.5869C32.9834-26.5869 33.6426-27.2217 33.6426-28.2959L33.6426-31.4941C33.6426-32.5684 32.9834-33.2031 31.9092-33.2031L28.7354-33.2031C27.6123-33.2031 26.9775-32.5684 26.9775-31.4941L26.9775-28.2959C26.9775-27.2217 27.6123-26.5869 28.7354-26.5869ZM38.8184-26.5869L42.0166-26.5869C43.0908-26.5869 43.7256-27.2217 43.7256-28.2959L43.7256-31.4941C43.7256-32.5684 43.0908-33.2031 42.0166-33.2031L38.8184-33.2031C37.7441-33.2031 37.085-32.5684 37.085-31.4941L37.085-28.2959C37.085-27.2217 37.7441-26.5869 38.8184-26.5869ZM48.9014-26.5869L52.124-26.5869C53.1738-26.5869 53.833-27.2217 53.833-28.2959L53.833-31.4941C53.833-32.5684 53.1738-33.2031 52.124-33.2031L48.9014-33.2031C47.8271-33.2031 47.1924-32.5684 47.1924-31.4941L47.1924-28.2959C47.1924-27.2217 47.8271-26.5869 48.9014-26.5869ZM59.0088-26.5869L62.2314-26.5869C63.3301-26.5869 63.9404-27.2217 63.9404-28.2959L63.9404-31.4941C63.9404-32.5684 63.3301-33.2031 62.2314-33.2031L59.0088-33.2031C57.959-33.2031 57.2998-32.5684 57.2998-31.4941L57.2998-28.2959C57.2998-27.2217 57.959-26.5869 59.0088-26.5869ZM69.3115-26.5869L72.3389-26.5869C73.4131-26.5869 74.0723-27.2217 74.0723-28.2959L74.0723-31.4941C74.0723-32.5684 73.4131-33.2031 72.3389-33.2031L69.3115-33.2031C68.1152-33.2031 67.4072-32.5684 67.4072-31.4941L67.4072-28.2959C67.4072-27.2217 68.1152-26.5869 69.3115-26.5869ZM79.248-26.5869L82.4219-26.5869C83.5449-26.5869 84.1797-27.2217 84.1797-28.2959L84.1797-31.4941C84.1797-32.5684 83.5449-33.2031 82.4219-33.2031L79.248-33.2031C78.1494-33.2031 77.5146-32.5684 77.5146-31.4941L77.5146-28.2959C77.5146-27.2217 78.1494-26.5869 79.248-26.5869ZM28.7354-16.2842L31.9092-16.2842C32.9834-16.2842 33.6426-16.9189 33.6426-17.9932L33.6426-21.2158C33.6426-22.29 32.9834-22.9248 31.9092-22.9248L28.7354-22.9248C27.6123-22.9248 26.9775-22.29 26.9775-21.2158L26.9775-17.9932C26.9775-16.9189 27.6123-16.2842 28.7354-16.2842ZM39.0137-16.2842L72.1191-16.2842C73.3643-16.2842 74.0723-16.9922 74.0723-18.1885L74.0723-21.0205C74.0723-22.2168 73.3643-22.9248 72.1191-22.9248L39.0137-22.9248C37.793-22.9248 37.085-22.2168 37.085-21.0205L37.085-18.1885C37.085-16.9922 37.793-16.2842 39.0137-16.2842ZM79.248-16.2842L82.4219-16.2842C83.5449-16.2842 84.1797-16.9189 84.1797-17.9932L84.1797-21.2158C84.1797-22.29 83.5449-22.9248 82.4219-22.9248L79.248-22.9248C78.1494-22.9248 77.5146-22.29 77.5146-21.2158L77.5146-17.9932C77.5146-16.9189 78.1494-16.2842 79.248-16.2842ZM27.2705 1.66016L84.4238 1.66016C95.0195 1.66016 101.343-4.8584 101.343-15.8691L101.343-54.541C101.343-65.5518 95.0195-72.0703 84.4238-72.0703L27.2705-72.0703C16.2842-72.0703 9.76562-65.5518 9.76562-54.541L9.76562-15.8691C9.76562-4.8584 16.2842 1.66016 27.2705 1.66016ZM28.3936-8.95996C23.3398-8.95996 20.3613-11.9141 20.3613-16.9922L20.3613-53.418C20.3613-58.4961 23.3398-61.4502 28.3936-61.4502L82.7148-61.4502C87.793-61.4502 90.7471-58.4961 90.7471-53.418L90.7471-16.9922C90.7471-11.9141 87.793-8.95996 82.7148-8.95996ZM30.4443-47.5342C32.6416-47.5342 34.3994-49.3408 34.3994-51.4893C34.3994-53.6377 32.6416-55.4443 30.4443-55.4443C28.2471-55.4443 26.4893-53.6377 26.4893-51.4893C26.4893-49.3408 28.2471-47.5342 30.4443-47.5342ZM42.5781-47.5342C44.751-47.5342 46.5088-49.3408 46.5088-51.4893C46.5088-53.6377 44.751-55.4443 42.5781-55.4443C40.3809-55.4443 38.5986-53.6377 38.5986-51.4893C38.5986-49.3408 40.3809-47.5342 42.5781-47.5342ZM54.6875-47.5342C56.8604-47.5342 58.6426-49.3408 58.6426-51.4893C58.6426-53.6377 56.8604-55.4443 54.6875-55.4443C52.4902-55.4443 50.7324-53.6377 50.7324-51.4893C50.7324-49.3408 52.4902-47.5342 54.6875-47.5342Z"/>
</svg>