<svg xmlns="http://www.w3.org/2000/svg" viewBox="9.76562 -63.9404 118.55 57.47">
  <path d="M15.8447-6.46973C19.751-6.46973 21.8994-8.81348 21.8994-12.8662L21.8994-23.3643L25.0732-29.0283L33.9355-11.4014C35.4248-8.25195 37.1582-6.5918 40.4297-6.5918C43.4814-6.5918 45.9961-8.81348 45.9961-12.2559C45.9961-14.209 44.7021-16.9922 43.8477-18.6768L34.1797-37.3047L43.0176-52.71C44.0674-54.6631 44.7754-56.0547 44.7754-58.374C44.7754-61.5479 42.334-63.8428 39.3799-63.8428C36.0107-63.8428 34.4971-61.792 33.0811-58.8379L22.3145-38.5742L21.8994-38.5742L21.8994-57.5439C21.8994-61.5479 19.7754-63.9404 15.7715-63.9404C12.1094-63.9404 9.76562-61.7188 9.76562-57.5439L9.76562-12.8662C9.76562-8.83789 12.0361-6.46973 15.8447-6.46973ZM58.0078-6.5918C62.0117-6.5918 64.1357-8.98438 64.1357-12.9883L64.1357-24.6582L69.1895-24.6582C79.5166-24.6582 85.4248-33.1055 85.4248-43.8477C85.4248-54.1504 80.2002-63.0615 70.0195-63.0615L58.0078-63.0615C54.0527-63.0615 51.9043-60.5713 51.9043-56.6406L51.9043-12.9883C51.9043-9.13086 53.9062-6.5918 58.0078-6.5918ZM64.1357-34.1797L64.1357-53.3691L66.7969-53.3691C71.8018-53.3691 73.3154-49.0723 73.3154-43.8232C73.3154-38.623 71.8506-34.1797 66.748-34.1797ZM98.6084-6.46973C102.734-6.46973 104.712-9.08203 104.712-13.0127L104.712-30.542L116.064-30.542L116.064-13.0127C116.064-9.15527 118.042-6.46973 122.192-6.46973C126.221-6.46973 128.32-8.98438 128.32-13.0127L128.32-57.373C128.32-61.4258 126.196-63.9404 122.192-63.9404C118.262-63.9404 116.064-61.4746 116.064-57.373L116.064-40.6494L104.712-40.6494L104.712-57.373C104.712-61.8652 102.197-63.9404 98.6084-63.9404C95.0684-63.9404 92.5049-61.9141 92.5049-57.373L92.5049-13.0127C92.5049-9.08203 94.4824-6.46973 98.6084-6.46973Z"/>
</svg>