<svg xmlns="http://www.w3.org/2000/svg" viewBox="9.76562 -72.0947 73.71 73.73">
  <path d="M23.6084 1.63574L69.6289 1.63574C78.5889 1.63574 83.4717-3.24707 83.4717-12.1338L83.4717-58.3252C83.4717-67.2119 78.5889-72.0947 69.6289-72.0947L23.6084-72.0947C14.6729-72.0947 9.76562-67.2119 9.76562-58.3252L9.76562-12.1338C9.76562-3.24707 14.6729 1.63574 23.6084 1.63574ZM30.835-19.3359C30.835-21.6797 32.666-23.4375 35.1318-23.4375L57.0068-23.4375C59.4727-23.4375 61.3037-21.6797 61.3037-19.3359C61.3037-17.1143 59.4727-15.332 57.0068-15.332L35.1318-15.332C32.666-15.332 30.835-17.1143 30.835-19.3359ZM55.6396-28.0273C55.0537-28.0273 54.4189-28.1738 53.5156-28.6133L34.3018-37.2803C32.0801-38.2812 31.1035-39.624 31.1035-41.6504C31.1035-43.6768 32.0801-45.1904 34.3018-46.2158L53.5156-54.8828C54.4189-55.2979 55.0537-55.4199 55.6396-55.4199C58.1543-55.4199 59.7412-53.1738 59.7412-51.2451C59.7412-49.7314 58.8135-48.291 57.2266-47.583L43.9209-41.7725L43.9209-41.6748L57.2266-35.8887C58.8135-35.2295 59.7412-33.7891 59.7412-32.2266C59.7412-30.3467 58.1543-28.0273 55.6396-28.0273Z"/>
</svg>