<svg xmlns="http://www.w3.org/2000/svg" viewBox="9.76562 -78.2715 61.25 86.08">
  <path d="M23.5107-78.2715C14.624-78.2715 9.76562-73.3643 9.76562-64.4287L9.76562-6.03027C9.76562 2.92969 14.624 7.8125 23.5107 7.8125L57.2754 7.8125C66.1621 7.8125 71.0205 2.92969 71.0205-6.03027L71.0205-64.4287C71.0205-73.3643 66.1621-78.2715 57.2754-78.2715ZM25.9033-31.7139L54.7852-31.7139C56.6406-31.7139 57.3486-31.0059 57.3486-29.1748L57.3486-8.59375C57.3486-6.7627 56.6406-6.05469 54.7852-6.05469L25.9033-6.05469C24.0479-6.05469 23.3398-6.7627 23.3398-8.59375L23.3398-29.1748C23.3398-31.0059 24.0479-31.7139 25.9033-31.7139Z"/>
</svg>