<svg xmlns="http://www.w3.org/2000/svg" viewBox="6.83594 -75.9521 81.42 81.4">
  <path d="M47.5342 5.44434C70.0195 5.44434 88.2568-12.7686 88.2568-35.2539C88.2568-57.7393 70.0195-75.9521 47.5342-75.9521C25.0732-75.9521 6.83594-57.7393 6.83594-35.2539C6.83594-12.7686 25.0732 5.44434 47.5342 5.44434ZM47.5342-5.34668C31.0059-5.34668 17.6514-18.7256 17.6514-35.2539C17.6514-51.7822 31.0059-65.1611 47.5342-65.1611C64.0625-65.1611 77.4414-51.7822 77.4414-35.2539C77.4414-18.7256 64.0625-5.34668 47.5342-5.34668ZM29.1992-36.7676L65.918-36.7676C68.335-36.7676 69.9951-38.2812 69.9951-40.5518C69.9951-42.8223 68.335-44.3359 65.918-44.3359L29.1992-44.3359C26.7822-44.3359 25.1221-42.8223 25.1221-40.5518C25.1221-38.2812 26.7822-36.7676 29.1992-36.7676ZM33.7891-23.7061L61.3281-23.7061C63.7207-23.7061 65.4053-25.2197 65.4053-27.4902C65.4053-29.7363 63.7207-31.2744 61.3281-31.2744L33.7891-31.2744C31.3721-31.2744 29.6875-29.7363 29.6875-27.4902C29.6875-25.2197 31.3721-23.7061 33.7891-23.7061Z" />
</svg>