<svg xmlns="http://www.w3.org/2000/svg" viewBox="9.76562 -64.9658 82.89 59.52">
  <path d="M15.21-54.0283L21.875-54.0283C24.8535-54.0283 27.3438-56.4941 27.3438-59.4971C27.3438-62.5244 24.8535-64.9658 21.875-64.9658L15.21-64.9658C12.2314-64.9658 9.76562-62.5244 9.76562-59.4971C9.76562-56.4941 12.2314-54.0283 15.21-54.0283ZM40.0635-54.5898L87.8174-54.5898C90.5029-54.5898 92.6514-56.8848 92.6514-59.5215C92.6514-62.2314 90.5273-64.4531 87.8174-64.4531L40.0635-64.4531C37.3779-64.4531 35.2539-62.1826 35.2539-59.5215C35.2539-56.9336 37.4023-54.5898 40.0635-54.5898ZM15.21-29.7363L21.875-29.7363C24.8535-29.7363 27.3438-32.2021 27.3438-35.2051C27.3438-38.2324 24.8535-40.6738 21.875-40.6738L15.21-40.6738C12.2314-40.6738 9.76562-38.2324 9.76562-35.2051C9.76562-32.2021 12.2314-29.7363 15.21-29.7363ZM40.0635-30.2979L87.8174-30.2979C90.5029-30.2979 92.6514-32.5928 92.6514-35.2295C92.6514-37.9395 90.5273-40.1611 87.8174-40.1611L40.0635-40.1611C37.3779-40.1611 35.2539-37.8906 35.2539-35.2295C35.2539-32.6416 37.4023-30.2979 40.0635-30.2979ZM15.21-5.44434L21.875-5.44434C24.8535-5.44434 27.3438-7.91016 27.3438-10.9131C27.3438-13.9404 24.8535-16.3818 21.875-16.3818L15.21-16.3818C12.2314-16.3818 9.76562-13.9404 9.76562-10.9131C9.76562-7.91016 12.2314-5.44434 15.21-5.44434ZM40.0635-6.00586L87.8174-6.00586C90.5029-6.00586 92.6514-8.30078 92.6514-10.9375C92.6514-13.6475 90.5273-15.8691 87.8174-15.8691L40.0635-15.8691C37.3779-15.8691 35.2539-13.5986 35.2539-10.9375C35.2539-8.34961 37.4023-6.00586 40.0635-6.00586Z" />
</svg>