<svg xmlns="http://www.w3.org/2000/svg" viewBox="9.76562 -72.0703 73.71 73.73">
  <path d="M9.76562-51.3916L20.3613-51.3916L20.3613-57.0068C20.3613-60.0586 21.8994-61.4502 24.7803-61.4502L30.3467-61.4502L30.3467-72.0703L23.6084-72.0703C14.6729-72.0703 9.76562-67.1875 9.76562-58.3008ZM36.8652-61.4502L56.3965-61.4502L56.3965-72.0703L36.8652-72.0703ZM72.876-51.3916L83.4717-51.3916L83.4717-58.3008C83.4717-67.1875 78.5645-72.0703 69.6289-72.0703L62.915-72.0703L62.915-61.4502L68.457-61.4502C71.3379-61.4502 72.876-60.0586 72.876-57.0068ZM72.876-25.5371L83.4717-25.5371L83.4717-44.873L72.876-44.873ZM62.915 1.66016L69.6289 1.66016C78.5645 1.66016 83.4717-3.22266 83.4717-12.1094L83.4717-19.0186L72.876-19.0186L72.876-13.4033C72.876-10.3271 71.3379-8.95996 68.457-8.95996L62.915-8.95996ZM36.8652 1.66016L56.3965 1.66016L56.3965-8.95996L36.8652-8.95996ZM23.6084 1.66016L30.3467 1.66016L30.3467-8.95996L24.7803-8.95996C21.8994-8.95996 20.3613-10.3271 20.3613-13.4033L20.3613-19.0186L9.76562-19.0186L9.76562-12.1094C9.76562-3.22266 14.6729 1.66016 23.6084 1.66016ZM9.76562-25.5371L20.3613-25.5371L20.3613-44.873L9.76562-44.873ZM33.1299-20.874C33.1299-17.9199 34.4971-16.5283 37.2559-16.5283L56.0059-16.5283C58.7646-16.5283 60.1074-17.9199 60.1074-20.874L60.1074-35.1074C60.1074-37.5244 59.1309-38.8916 57.2754-39.2334L57.2754-43.0664C57.2754-50.1709 52.9541-54.9561 46.6309-54.9561C40.2832-54.9561 36.0107-50.1709 36.0107-43.0664L36.0107-39.2578C34.1064-38.8916 33.1299-37.5244 33.1299-35.1074ZM41.6504-39.4043L41.6504-43.4082C41.6504-47.0703 43.6035-49.4385 46.6309-49.4385C49.6826-49.4385 51.6113-47.0947 51.6113-43.4082L51.6113-39.4043Z"/>
</svg>