<svg xmlns="http://www.w3.org/2000/svg" viewBox="9.76562 -80.1514 93.07 89.79">
  <path d="M16.8457-2.19727L96.4355-2.19727L96.4355-5.81055C96.4355-7.86133 95.1904-9.08203 93.1396-9.08203L91.3818-9.08203L91.3818-50.1709L94.4824-50.1709C97.4609-50.1709 99.2188-52.3926 99.2188-54.5898C99.2188-56.2256 98.291-57.6904 96.3867-58.8379L62.1582-78.5645C60.4492-79.5654 58.4717-80.1514 56.6406-80.1514C54.7852-80.1514 52.8076-79.5654 51.0986-78.5645L16.8701-58.8379C14.9414-57.6904 14.0381-56.2256 14.0381-54.5898C14.0381-52.3926 15.7959-50.1709 18.7744-50.1709L21.8994-50.1709L21.8994-9.08203L20.1416-9.08203C18.0908-9.08203 16.8457-7.86133 16.8457-5.81055ZM29.8096-9.08203L29.8096-55.9082L55.7129-70.3613C56.0059-70.5322 56.3477-70.6299 56.6406-70.6299C56.9336-70.6299 57.251-70.5322 57.5439-70.3613L83.4961-55.9082L83.4961-9.08203ZM14.209 9.64355L98.3643 9.64355C100.757 9.64355 102.832 7.66602 102.832 5.17578C102.832 2.75879 100.757 0.732422 98.3643 0.732422L14.209 0.732422C11.8164 0.732422 9.76562 2.75879 9.76562 5.17578C9.76562 7.6416 11.8164 9.64355 14.209 9.64355ZM37.1826-22.7539C39.0381-22.7539 40.0635-23.9014 40.0635-25.7324L40.0635-32.7148L42.7246-32.7148L45.8496-25.1953C46.4355-23.6816 47.3633-22.7539 48.9258-22.7539C50.4883-22.7539 51.6846-23.8281 51.6357-25.4639C51.6357-26.2207 51.3916-26.8066 51.001-27.6855L48.2422-33.8379C50.7568-35.4004 51.9287-37.8174 51.9287-40.9912C51.9287-46.5332 48.5352-49.3164 43.0664-49.3164L37.1582-49.3164C35.3271-49.3164 34.2529-48.2178 34.2529-46.3379L34.2529-25.7324C34.2529-23.9014 35.3027-22.7539 37.1826-22.7539ZM40.0635-36.8164L40.0635-44.8975L42.5293-44.8975C44.7754-44.8975 46.0693-43.3105 46.0693-40.8691C46.0693-38.5986 44.9463-36.8164 42.5293-36.8164ZM57.3242-22.7295C58.96-22.7295 59.8389-23.7549 59.8389-25.415L59.8389-41.0889L60.083-41.0889L64.2822-25.5371C64.5996-24.2188 65.4541-23.2422 66.9434-23.2422C68.3838-23.2422 69.165-24.1211 69.5801-25.5859L73.7793-41.0889L73.999-41.0889L73.999-25.415C73.999-23.7549 74.8779-22.7295 76.5137-22.7295C78.1494-22.7295 79.0283-23.7549 79.0283-25.415L79.0283-45.874C79.0283-48.4131 77.5635-49.7314 75.0977-49.7314C73.0469-49.7314 71.6553-48.7061 71.1426-46.6553L67.0166-30.8105L66.8701-30.8105L62.6953-46.6553C62.1338-48.8037 60.6934-49.7314 58.7646-49.7314C56.25-49.7314 54.7852-48.3154 54.7852-45.874L54.7852-25.415C54.7852-23.7549 55.7129-22.7295 57.3242-22.7295Z"/>
</svg>