<svg xmlns="http://www.w3.org/2000/svg" viewBox="6.83594 -75.9033 81.42 81.4">
  <path d="M47.5342 5.49316C70.0195 5.49316 88.2568-12.7441 88.2568-35.2051C88.2568-57.666 70.0195-75.9033 47.5342-75.9033C25.0732-75.9033 6.83594-57.666 6.83594-35.2051C6.83594-12.7441 25.0732 5.49316 47.5342 5.49316ZM39.209-50.4395C39.209-55.1025 42.9688-58.9111 47.6807-58.9111C52.417-58.9111 56.1768-55.1025 56.1768-50.4395C56.1768-46.7041 53.6865-43.4326 50.293-42.3096L50.293-31.3232C50.293-26.4648 48.8525-22.7783 47.6807-22.7783C46.5576-22.7783 45.0684-26.4893 45.0684-31.3232L45.0684-42.3096C41.6748-43.457 39.209-46.7041 39.209-50.4395ZM45.3613-49.9023C46.8994-49.9023 48.2178-51.1963 48.2178-52.7832C48.2178-54.3457 46.8994-55.6152 45.3613-55.6152C43.8477-55.6152 42.5049-54.3457 42.5049-52.7832C42.5049-51.1963 43.8477-49.9023 45.3613-49.9023ZM47.6562-14.4043C35.2051-14.4043 27.3926-18.8721 27.3926-24.2432C27.3926-29.7607 34.9854-33.5205 41.9189-33.96L41.9189-29.248C37.7197-28.9551 32.9834-27.0508 32.9834-24.5605C32.9834-21.4844 39.0137-19.2871 47.6562-19.2871C56.2744-19.2871 62.3291-21.4844 62.3291-24.5605C62.3291-27.0508 57.5928-28.9551 53.3691-29.248L53.3691-33.96C60.3271-33.5205 67.9199-29.7607 67.9199-24.2432C67.9199-18.8721 60.1318-14.4043 47.6562-14.4043Z"/>
</svg>