<svg xmlns="http://www.w3.org/2000/svg" viewBox="9.76562 -72.0947 73.71 73.73">
  <path d="M23.6084 1.63574L69.6289 1.63574C78.5889 1.63574 83.4717-3.24707 83.4717-12.1338L83.4717-58.3252C83.4717-67.2119 78.5889-72.0947 69.6289-72.0947L23.6084-72.0947C14.6729-72.0947 9.76562-67.2119 9.76562-58.3252L9.76562-12.1338C9.76562-3.24707 14.6729 1.63574 23.6084 1.63574ZM24.7803-8.98438C21.8994-8.98438 20.3613-10.376 20.3613-13.4277L20.3613-57.0312C20.3613-60.1074 21.8994-61.4746 24.7803-61.4746L68.457-61.4746C71.3379-61.4746 72.876-60.1074 72.876-57.0312L72.876-13.4277C72.876-10.376 71.3379-8.98438 68.457-8.98438ZM33.374-30.6396L59.8877-30.6396C62.6221-30.6396 64.5752-32.4463 64.5752-35.1562C64.5752-37.8906 62.6709-39.7217 59.8877-39.7217L33.374-39.7217C30.6152-39.7217 28.6621-37.8906 28.6621-35.1562C28.6621-32.4463 30.6641-30.6396 33.374-30.6396Z" />
</svg>