<svg xmlns="http://www.w3.org/2000/svg" viewBox="6.83594 -75.9521 81.42 81.4">
  <path d="M47.5342 5.44434C70.0195 5.44434 88.2568-12.7686 88.2568-35.2539C88.2568-57.7393 70.0195-75.9521 47.5342-75.9521C25.0732-75.9521 6.83594-57.7393 6.83594-35.2539C6.83594-12.7686 25.0732 5.44434 47.5342 5.44434ZM47.5342-5.34668C31.0059-5.34668 17.6514-18.7256 17.6514-35.2539C17.6514-51.7822 31.0059-65.1611 47.5342-65.1611C64.0625-65.1611 77.4414-51.7822 77.4414-35.2539C77.4414-18.7256 64.0625-5.34668 47.5342-5.34668ZM47.9248-44.4824L31.0303-26.3428C30.1514-25.3662 30.0537-24.1211 30.6885-23.1934L28.7109-20.5811C28.1982-19.9219 28.2715-19.0918 28.8818-18.5303L29.4434-18.0176C30.0293-17.5049 30.7617-17.4072 31.3965-17.8711L34.0576-19.873C34.9854-19.2139 36.2061-19.3359 37.1582-20.2393L45.4346-27.9053L45.4346-19.1162C45.4346-17.7979 46.4844-16.7236 47.876-16.7236C49.1699-16.7236 50.2441-17.8223 50.2441-19.1162L50.2441-32.4219L55.2734-37.085C57.6172-36.8896 59.79-37.8418 61.6455-39.7949L50.6348-50.8545C48.6816-48.9258 47.7295-46.7285 47.9248-44.4824ZM34.4482-24.3408L49.585-40.2832C49.8047-39.9902 50.0488-39.7705 50.3174-39.4775C50.5371-39.2578 50.8057-39.0137 51.0986-38.7695L35.2539-23.6084ZM63.7695-52.9297C60.4248-56.2744 55.835-56.1279 52.4414-52.6611L63.4521-41.6016C66.9922-44.9707 67.0898-49.6094 63.7695-52.9297Z" />
</svg>