<svg xmlns="http://www.w3.org/2000/svg" viewBox="9.76562 -74.9023 50.37 80.3">
  <path d="M60.1318-55.7373L60.1318-70.0684C60.1318-72.9248 57.7393-74.9023 54.9316-74.292L34.9121-69.9219C31.7383-69.2383 30.0293-67.4561 30.0293-64.6729L30.0293-22.4365C30.1514-21.1182 29.6143-20.4102 28.54-20.1904L22.3145-18.8965C13.9648-17.1631 9.76562-12.7197 9.76562-6.05469C9.76562 0.732422 14.8682 5.39551 22.168 5.39551C29.8096 5.39551 37.7686-0.439453 37.7686-11.0596L37.7686-46.3623C37.7686-47.4854 38.0127-47.7783 38.9893-47.9736L57.0557-51.9531C58.9111-52.3438 60.1318-53.833 60.1318-55.7373Z"/>
</svg>