<svg xmlns="http://www.w3.org/2000/svg" viewBox="9.76562 -69.8975 92.48 69.38">
  <path d="M25.6104-17.334C25.6104-19.3115 27.1729-20.9473 29.1748-20.9473L82.8613-20.9473C84.8633-20.9473 86.4502-19.3115 86.4502-17.334C86.4502-15.3809 84.8633-13.7451 82.8613-13.7451L29.1748-13.7451C27.1729-13.7451 25.6104-15.3809 25.6104-17.334ZM26.7334-0.512695L85.3027-0.512695C95.459-0.512695 102.246-7.27539 102.246-17.334C102.246-27.417 95.459-34.1553 85.3027-34.1553L26.7334-34.1553C16.5527-34.1553 9.76562-27.417 9.76562-17.334C9.76562-7.27539 16.5527-0.512695 26.7334-0.512695ZM26.7334-40.6738L85.3027-40.6738C89.624-40.6738 93.5547-39.7217 96.8994-37.9639L87.207-59.8877C84.3994-66.2598 78.9551-69.8975 71.46-69.8975L40.625-69.8975C33.1299-69.8975 27.6855-66.2598 24.8535-59.8877L15.1855-38.0127C18.5303-39.7217 22.4121-40.6738 26.7334-40.6738Z"/>
</svg>