<svg xmlns="http://www.w3.org/2000/svg" viewBox="9.76562 -72.5342 86.04 74.51">
  <path d="M20.752 1.97754L84.79 1.97754C91.3086 1.97754 95.8008-2.53906 95.8008-9.05762L95.8008-61.499C95.8008-68.0176 91.3086-72.5342 84.79-72.5342L20.752-72.5342C14.2334-72.5342 9.76562-68.0176 9.76562-61.499L9.76562-9.05762C9.76562-2.53906 14.2334 1.97754 20.752 1.97754ZM21.7041-7.91016C20.4834-7.91016 19.6533-8.76465 19.6533-10.0098L19.6533-60.5469C19.6533-61.792 20.4834-62.6465 21.7041-62.6465L84.0576-62.6465C85.1807-62.6465 85.8887-61.8896 85.8887-60.791L85.8887-9.76562C85.8887-8.66699 85.1807-7.91016 84.0576-7.91016ZM29.8096-51.709C31.9824-51.709 33.8135-53.4912 33.8135-55.6885C33.8135-57.9102 31.9824-59.6924 29.8096-59.6924C27.6123-59.6924 25.8057-57.9102 25.8057-55.6885C25.8057-53.4912 27.6123-51.709 29.8096-51.709ZM40.2344-51.709C42.4316-51.709 44.2383-53.4912 44.2383-55.6885C44.2383-57.9102 42.4316-59.6924 40.2344-59.6924C38.0615-59.6924 36.2549-57.9102 36.2549-55.6885C36.2549-53.4912 38.0615-51.709 40.2344-51.709ZM50.6592-51.709C52.8564-51.709 54.6875-53.4912 54.6875-55.6885C54.6875-57.9102 52.8564-59.6924 50.6592-59.6924C48.4863-59.6924 46.6797-57.9102 46.6797-55.6885C46.6797-53.4912 48.4863-51.709 50.6592-51.709ZM67.2607-52.7344L77.1729-52.7344C78.8086-52.7344 80.0781-54.0039 80.0781-55.6396C80.0781-57.2754 78.8086-58.5449 77.1729-58.5449L67.2607-58.5449C65.625-58.5449 64.3799-57.2754 64.3799-55.6396C64.3799-54.0039 65.625-52.7344 67.2607-52.7344ZM16.748-42.3828L88.8672-42.3828L88.8672-49.1211L16.748-49.1211ZM28.9795-12.207L76.6357-12.207C78.7354-12.207 80.1025-13.5742 80.1025-15.6982L80.1025-35.3271C80.1025-37.4268 78.7354-38.7939 76.6357-38.7939L28.9795-38.7939C26.8555-38.7939 25.4883-37.4268 25.4883-35.3271L25.4883-15.6982C25.4883-13.5742 26.8555-12.207 28.9795-12.207ZM32.0312-17.9932C31.6162-17.9932 31.2744-18.335 31.2744-18.75L31.2744-32.4951C31.2744-32.9102 31.6162-33.2764 32.0312-33.2764L73.5596-33.2764C73.9746-33.2764 74.3408-32.9102 74.3408-32.4951L74.3408-18.75C74.3408-18.335 73.9746-17.9932 73.5596-17.9932ZM29.5166-25.6104L76.123-25.6104L76.123-30.1758L29.5166-30.1758Z"/>
</svg>