<svg xmlns="http://www.w3.org/2000/svg" viewBox="9.76562 -90.21 63.18 109.91">
  <path d="M72.9492-26.9287C72.9492-43.4326 66.3818-66.3818 50.2441-83.2764C46.6797-87.0117 40.6982-90.21 33.8135-87.5244L30.0537-86.0596C21.8994-82.8613 19.3604-77.0264 22.7539-69.2627C28.7354-55.7373 30.2002-45.6299 30.2002-37.6465C30.2002-34.9609 28.833-33.4229 25.9521-33.4229L16.5283-33.4229C12.793-33.4229 9.76562-30.3955 9.76562-26.3184L9.76562-17.6514C9.76562-13.916 12.4756-11.084 15.7715-11.084L22.876-11.084C24.6582-11.084 25.6104-10.2539 25.6104-8.66699C25.6104-7.17773 24.8291-5.7373 24.8291-2.85645C24.8291 3.73535 28.6377 8.81348 36.0107 12.3779L43.7744 16.1377C51.1719 19.7021 58.6914 17.6025 62.9883 10.6201C69.9463-0.805664 72.9492-12.4023 72.9492-26.9287Z"/>
</svg>