<svg xmlns="http://www.w3.org/2000/svg" viewBox="6.0791 -80.542 82.45 91.92">
  <path d="M72.8516-33.6182L44.5557-5.37109C37.6465 1.61133 28.3691 1.0498 22.4121-4.95605C16.4062-10.9375 15.8691-20.1416 22.8271-27.124L61.9629-66.2354C65.7227-69.9951 71.582-71.2158 75.5615-67.2607C79.541-63.208 78.2959-57.4219 74.5605-53.6621L35.8887-14.917C34.6191-13.623 33.1299-14.0381 32.2754-14.8438C31.4941-15.6738 31.1279-17.1143 32.3975-18.4082L59.1309-45.1416C60.8887-46.9238 60.9619-49.5361 59.2529-51.2451C57.5439-52.9053 54.8828-52.8564 53.1494-51.123L26.2695-24.2432C21.7529-19.6777 21.9238-12.5977 26.001-8.52051C30.4443-4.10156 37.1338-4.24805 41.6992-8.78906L80.6152-47.7295C88.5254-55.6396 88.4766-66.1621 81.3477-73.3154C74.3164-80.2979 63.623-80.542 55.7129-72.6562L16.2598-33.1055C6.0791-22.9248 6.56738-8.00781 16.0156 1.44043C25.4883 10.8643 40.4053 11.377 50.5859 1.2207L79.126-27.3193C80.8105-28.9551 80.7861-32.0801 79.0283-33.7158C77.3926-35.4736 74.585-35.3027 72.8516-33.6182Z" />
</svg>