<svg xmlns="http://www.w3.org/2000/svg" viewBox="15.5762 -81.8604 63.11 94.46">
  <path d="M15.5762-23.4619C15.5762-19.458 18.3105-16.7725 22.4121-16.7725L42.3828-16.7725L42.3828 1.07422C42.3828 5.83496 45.8252 12.5977 47.1191 12.5977C48.4375 12.5977 51.8799 5.83496 51.8799 1.07422L51.8799-16.7725L71.8262-16.7725C75.9521-16.7725 78.6865-19.458 78.6865-23.4619C78.6865-31.9824 71.9727-40.4053 60.9619-44.6045L59.7168-62.7441C65.8936-66.2109 70.2637-69.751 72.1924-72.168C73.3887-73.6572 73.9746-75.2441 73.9746-76.709C73.9746-79.6875 71.6553-81.8604 68.3838-81.8604L25.8789-81.8604C22.583-81.8604 20.2881-79.6875 20.2881-76.709C20.2881-75.2441 20.874-73.6572 22.0459-72.168C23.9746-69.751 28.3447-66.2109 34.5215-62.7441L33.3008-44.6045C22.29-40.4053 15.5762-31.9824 15.5762-23.4619Z"/>
</svg>