<svg xmlns="http://www.w3.org/2000/svg" viewBox="9.76562 -74.2432 78.05 78.08">
  <path d="M15.0635-46.0938C18.5059-46.0938 20.3613-47.998 20.3613-51.4404L20.3613-59.1797C20.3613-62.2314 21.8994-63.623 24.7803-63.623L32.6416-63.623C36.1084-63.623 37.9883-65.5029 37.9883-68.9209C37.9883-72.3633 36.1084-74.2432 32.6416-74.2432L23.6084-74.2432C14.6729-74.2432 9.76562-69.3604 9.76562-60.4736L9.76562-51.4404C9.76562-47.9736 11.6455-46.0938 15.0635-46.0938ZM82.5195-46.0938C85.9619-46.0938 87.8174-47.9736 87.8174-51.4404L87.8174-60.4736C87.8174-69.3604 82.9346-74.2432 73.9746-74.2432L64.9414-74.2432C61.4746-74.2432 59.5947-72.3633 59.5947-68.9209C59.5947-65.5029 61.499-63.623 64.9414-63.623L72.8027-63.623C75.6836-63.623 77.2217-62.2314 77.2217-59.1797L77.2217-51.4404C77.2217-47.9736 79.1016-46.0938 82.5195-46.0938ZM23.6084 3.83301L32.6416 3.83301C36.1084 3.83301 37.9883 1.95312 37.9883-1.46484C37.9883-4.90723 36.084-6.78711 32.6416-6.78711L24.7803-6.78711C21.8994-6.78711 20.3613-8.17871 20.3613-11.2305L20.3613-18.9453C20.3613-22.4365 18.4814-24.3164 15.0635-24.3164C11.6211-24.3164 9.76562-22.4365 9.76562-18.9453L9.76562-9.93652C9.76562-1.0498 14.6729 3.83301 23.6084 3.83301ZM64.9414 3.83301L73.9746 3.83301C82.9346 3.83301 87.8174-1.0498 87.8174-9.93652L87.8174-18.9453C87.8174-22.4365 85.9375-24.3164 82.5195-24.3164C79.0771-24.3164 77.2217-22.4121 77.2217-18.9453L77.2217-11.2305C77.2217-8.17871 75.6836-6.78711 72.8027-6.78711L64.9414-6.78711C61.4746-6.78711 59.5947-4.90723 59.5947-1.46484C59.5947 1.95312 61.4746 3.83301 64.9414 3.83301ZM53.3447-22.0703L53.3447-48.4619C53.3447-51.0742 51.416-52.9541 48.7793-52.9541C46.1426-52.9541 44.2627-51.0742 44.2627-48.4619L44.2627-22.0703C44.2627-19.4824 46.1426-17.6025 48.7793-17.6025C51.416-17.6025 53.3447-19.4824 53.3447-22.0703ZM35.6201-30.7373L61.9873-30.7373C64.5752-30.7373 66.4551-32.6416 66.4551-35.2539C66.4551-37.8906 64.5752-39.8193 61.9873-39.8193L35.6201-39.8193C33.0078-39.8193 31.1279-37.8906 31.1279-35.2539C31.1279-32.6416 33.0078-30.7373 35.6201-30.7373Z" />
</svg>