<svg xmlns="http://www.w3.org/2000/svg" viewBox="9.76562 -77.4902 68.46 84.52">
  <path d="M31.0547-24.2676L56.9336-24.2676C58.4473-24.2676 59.6191-25.4639 59.6191-27.002C59.6191-28.4912 58.4473-29.6387 56.9336-29.6387L31.0547-29.6387C29.4678-29.6387 28.3203-28.4912 28.3203-27.002C28.3203-25.4639 29.4678-24.2676 31.0547-24.2676ZM31.0547-13.4521L44.0918-13.4521C45.6299-13.4521 46.7773-14.5996 46.7773-16.0889C46.7773-17.627 45.6299-18.8232 44.0918-18.8232L31.0547-18.8232C29.4678-18.8232 28.3203-17.627 28.3203-16.0889C28.3203-14.5996 29.4678-13.4521 31.0547-13.4521ZM43.042-42.9443C44.8975-42.9443 46.167-43.8965 46.3379-45.2148C46.3623-45.2881 46.3867-45.3857 46.3867-45.4346C46.6064-46.582 47.6318-47.4121 49.1455-48.3643C51.8799-50.0977 53.4668-51.6602 53.4668-54.7607C53.4668-59.4727 49.1699-62.3047 43.9453-62.3047C39.7217-62.3047 35.8154-60.5713 34.7656-57.5928C34.5703-57.1289 34.4971-56.665 34.4971-56.1279C34.4971-54.5654 35.7666-53.3936 37.2803-53.3936C38.4766-53.3936 39.3555-53.8086 39.9902-54.6875L40.3809-55.127C41.2598-56.3477 42.2119-56.7383 43.3594-56.7383C44.9707-56.7383 46.0693-55.7617 46.0693-54.3945C46.0693-52.9541 44.9707-52.2705 42.8467-50.8057C40.9912-49.5361 39.5508-48.1689 39.5508-45.9473C39.5508-45.8984 39.5508-45.8496 39.5508-45.8252C39.5508-43.8965 40.7959-42.9443 43.042-42.9443ZM43.042-34.2529C45.1416-34.2529 46.8262-35.6201 46.8262-37.6709C46.8262-39.7461 45.166-41.1377 43.042-41.1377C40.8691-41.1377 39.209-39.7705 39.209-37.6709C39.209-35.6445 40.8936-34.2529 43.042-34.2529ZM9.76562-6.81152C9.76562 2.14844 14.624 7.03125 23.5107 7.03125L64.4531 7.03125C73.3398 7.03125 78.2227 2.14844 78.2227-6.81152L78.2227-63.6475C78.2227-72.583 73.3398-77.4902 64.4531-77.4902L23.5107-77.4902C14.624-77.4902 9.76562-72.583 9.76562-63.6475ZM20.3613-7.9834L20.3613-62.4756C20.3613-65.3564 21.7529-66.8945 24.8291-66.8945L63.1592-66.8945C66.2109-66.8945 67.6025-65.3564 67.6025-62.4756L67.6025-7.9834C67.6025-5.10254 66.2109-3.56445 63.1592-3.56445L24.8291-3.56445C21.7529-3.56445 20.3613-5.10254 20.3613-7.9834Z"/>
</svg>