<svg xmlns="http://www.w3.org/2000/svg" viewBox="6.83594 -75.9521 81.42 81.4">
  <path d="M47.5342 5.44434C70.0195 5.44434 88.2568-12.793 88.2568-35.2539C88.2568-57.7148 70.0195-75.9521 47.5342-75.9521C25.0732-75.9521 6.83594-57.7148 6.83594-35.2539C6.83594-12.793 25.0732 5.44434 47.5342 5.44434ZM33.3252-19.7998C31.0303-19.7998 29.8096-21.2158 29.8096-23.4619L29.8096-46.4111C29.8096-48.7061 31.0303-50.0488 33.3008-50.0488L39.2334-50.0488C45.2881-50.0488 48.999-46.8506 48.999-40.4541C48.999-37.4268 47.9736-34.1309 45.3857-32.4463L48.0713-25.3662C48.4619-24.5605 48.6328-23.877 48.6572-23.2422C48.7061-21.0205 47.168-19.7998 45.4102-19.7998C43.5547-19.7998 42.4316-20.8008 41.7969-22.7783L38.8916-31.0547L36.7432-31.0547L36.7432-23.4619C36.7432-21.1914 35.498-19.7998 33.3252-19.7998ZM36.7432-35.8398L38.623-35.8398C40.9668-35.8398 41.8945-37.9639 41.8945-40.2832C41.8945-42.5537 40.8936-44.7266 38.6475-44.7266L36.7432-44.7266ZM61.5234-19.9219C59.5703-19.9219 58.0322-21.4355 58.0322-23.4131L58.0322-43.6279L55.542-41.6748C55.0293-41.2354 54.5166-41.04 53.8818-41.04C52.6611-41.04 51.5381-41.8701 51.5381-43.4814C51.5381-44.6533 52.0508-45.5322 53.0273-46.2402L56.3965-48.8281C57.6172-49.7559 59.0332-50.6104 60.9375-50.6104C63.4521-50.6104 64.9902-49.2188 64.9902-46.7041L64.9902-23.4131C64.9902-21.4355 63.4277-19.9219 61.5234-19.9219Z"/>
</svg>