<svg xmlns="http://www.w3.org/2000/svg" viewBox="9.76562 -82.1289 100.05 93.73">
  <path d="M23.0225-15.6738L43.75-15.6738L39.3311-20.9717C38.623-21.8262 37.7441-23.3154 37.3535-24.3408C36.2549-27.4414 37.8906-30.7861 41.1133-31.958C42.749-32.5684 45.0928-31.9824 46.582-30.9814L48.5596-29.0039C49.5361-28.3691 50.708-28.2959 51.5381-28.833C52.6123-29.4678 53.0273-30.7617 52.5391-32.1045L43.75-56.2988C42.334-60.1807 44.2383-64.3311 48.0713-65.7471C51.7578-67.0654 55.7617-65.0635 57.1777-61.1816L61.1328-50.3174C62.4512-51.3672 64.0137-51.8799 65.6494-51.8799C68.0176-51.8799 70.4834-50.9033 71.9238-49.0234C73.5107-50.4395 75.3906-51.2207 77.2461-51.2207C79.0283-51.2207 80.7861-50.4883 82.1533-48.877C84.0332-49.6094 86.0107-49.6338 87.793-49.0234L87.793-68.9697C87.793-77.5391 83.1543-82.1289 74.5361-82.1289L23.0225-82.1289C14.3799-82.1289 9.76562-77.5391 9.76562-68.9697L9.76562-28.833C9.76562-20.2393 14.3799-15.6738 23.0225-15.6738ZM86.3281 6.61621C103.418 0.390625 109.814-14.1357 103.345-32.1045L99.8291-41.7725C96.7529-50.293 90.3809-54.0283 83.0566-51.6846C81.3721-53.5645 78.9551-54.3213 76.3916-53.7598C74.9756-53.5645 73.291-52.9541 72.2412-52.2217C70.2148-54.4434 67.6514-55.2002 65.1855-54.6387C64.2334-54.4922 63.2812-54.1504 62.4512-53.7354L59.4238-62.0117C57.4219-67.4805 52.5146-69.873 47.2656-67.9932C41.8457-66.0156 39.502-60.9619 41.5039-55.4932L50.3174-31.25C50.415-31.0547 50.3906-30.9326 50.2441-30.835C50.1221-30.7617 50-30.8105 49.8047-30.9326L47.9736-32.8857C45.6055-34.5703 42.9688-35.1807 40.2832-34.2285C35.7666-32.5684 33.374-28.3203 35.1074-23.5596C35.5957-22.1436 36.4746-20.6543 37.5-19.4092L50.0488-4.39453C60.2539 7.83691 72.7051 11.5967 86.3281 6.61621ZM83.5693-1.66016C73.6816 1.95312 64.9414-0.268555 56.4941-9.8877L43.6523-24.4629C43.3838-24.7559 43.2129-25.0244 43.0664-25.415C42.7979-26.1719 43.1152-27.0264 44.043-27.3682C44.751-27.6123 45.3613-27.3682 45.8984-26.8066L55.0537-18.0908C56.6895-16.5527 58.3496-16.3574 59.8633-16.8945C61.792-17.6025 62.8906-19.6533 62.0117-22.0459L48.7305-58.6426C48.3643-59.5459 48.7793-60.4492 49.707-60.791C50.6348-61.1328 51.5381-60.7178 51.9043-59.79L61.0352-34.6924C61.6699-32.9102 63.6963-32.0557 65.4297-32.7148C67.1631-33.3496 68.1396-35.2783 67.4805-37.0117L64.3311-45.6543C64.6973-45.9473 65.1855-46.2402 65.6494-46.3867C66.7236-46.7529 67.7002-46.3379 68.0908-45.2393L71.1914-36.6943C71.8262-34.9854 73.8037-34.1553 75.5127-34.7656C77.2217-35.4004 78.125-37.2559 77.5146-38.9893L75.415-44.8242C75.7812-45.0928 76.2695-45.4102 76.7578-45.5811C77.8076-45.9473 78.7598-45.5078 79.1748-44.4092L81.2256-38.7939C81.8848-37.0117 83.8623-36.1816 85.6201-36.8164C87.3779-37.4512 88.3545-39.4043 87.7197-41.1865L86.7676-43.7256C88.8916-44.4824 90.7227-42.9688 92.041-39.3799L95.459-30.0049C100.317-16.626 95.9961-6.17676 83.5693-1.66016Z"/>
</svg>