<svg xmlns="http://www.w3.org/2000/svg" viewBox="6.83594 -75.9033 81.42 81.4">
  <path d="M47.5342 5.49316C70.0195 5.49316 88.2568-12.7441 88.2568-35.2051C88.2568-57.666 70.0195-75.9033 47.5342-75.9033C25.0732-75.9033 6.83594-57.666 6.83594-35.2051C6.83594-12.7441 25.0732 5.49316 47.5342 5.49316ZM36.2793-12.7686C34.0576-12.7686 32.6904-13.623 31.9824-15.4785L30.5908-19.2139C29.9316-20.9717 30.957-22.3389 32.8613-22.3389C36.1328-22.3389 39.6973-22.3633 43.335-22.4609L43.6035-25.4639C40.0635-25.1709 36.4746-25.2441 33.0078-25.6348C30.8594-25.8301 30.2002-27.6367 31.4697-29.4189L45.7764-49.4141L46.4111-56.3721C46.582-58.3008 48.0225-59.4482 49.8291-59.4482C50.7568-59.4482 51.709-59.1797 52.7588-58.6426C62.3535-53.6133 66.1377-44.873 66.1377-37.5488C66.1377-34.6924 65.7715-32.0557 64.8438-29.7607C63.9404-27.3193 62.5977-26.1963 59.9121-25.7812C56.8848-25.3418 52.2217-25.1465 47.5586-25.5615L47.3145-22.6074C52.2217-22.8027 57.0312-23.1201 61.084-23.6084C62.8662-23.8037 63.7207-22.9004 63.7207-21.7285C63.7207-20.0439 60.9863-15.9424 59.2041-14.5264C57.6416-13.208 56.4941-12.7686 54.2969-12.7686ZM47.6807-29.7607C50.6592-32.959 52.1973-37.9883 52.1973-43.335C52.1973-47.0215 51.6602-50.9277 50.5127-54.1504C50.3174-54.5898 49.7559-54.4922 49.7314-54.0039Z"/>
</svg>