<svg xmlns="http://www.w3.org/2000/svg" viewBox="6.83594 -72.8027 112.33 75.1">
  <path d="M44.3848 2.29492C65.1123 2.29492 81.9092-14.502 81.9092-35.2539C81.9092-56.0059 65.1123-72.8027 44.3848-72.8027C23.6328-72.8027 6.83594-56.0059 6.83594-35.2539C6.83594-14.502 23.6328 2.29492 44.3848 2.29492ZM44.3848-8.10547C29.3701-8.10547 17.2119-20.2393 17.2119-35.2539C17.2119-50.2686 29.3701-62.4023 44.3848-62.4023C59.375-62.4023 71.5332-50.2686 71.5332-35.2539C71.5332-20.2393 59.375-8.10547 44.3848-8.10547ZM44.4092-43.75C48.3398-43.75 51.4893-46.8994 51.4893-50.8301C51.4893-54.7852 48.3398-57.9346 44.4092-57.9346C40.4541-57.9346 37.3047-54.7852 37.3047-50.8301C37.3047-46.8994 40.4541-43.75 44.4092-43.75ZM90.7959-20.0684C92.3828-18.0908 95.5078-17.9932 97.583-20.3125C100.757-23.999 102.466-29.4434 102.466-35.2539C102.466-41.0645 100.757-46.5088 97.583-50.2197C95.5078-52.5391 92.3828-52.417 90.7959-50.4395C89.3799-48.6084 89.8926-46.46 91.2842-44.458C92.9199-42.1631 94.043-38.5498 94.043-35.2539C94.043-31.958 92.9199-28.3447 91.2842-26.0742C89.8682-24.0723 89.3799-21.8994 90.7959-20.0684ZM102.905-8.95996C104.541-6.95801 107.397-6.73828 109.717-9.15527C115.991-15.7471 119.165-25.1953 119.165-35.2539C119.165-45.2637 115.698-54.9072 109.717-61.3281C107.446-63.7695 104.565-63.501 102.905-61.5234C101.367-59.668 101.831-57.3975 103.564-55.4932C108.228-50.293 110.742-43.0908 110.742-35.2539C110.742-27.3926 108.179-20.1904 103.564-14.9902C101.855-13.0859 101.392-10.8154 102.905-8.95996Z" />
</svg>