<svg xmlns="http://www.w3.org/2000/svg" viewBox="9.76562 -69.8975 99.07 69.29">
  <path d="M23.6084-0.610352L64.917-0.610352C73.8525-0.610352 78.7598-5.46875 78.7598-14.3555L78.7598-56.1523C78.7598-65.0391 73.8525-69.8975 64.917-69.8975L23.6084-69.8975C14.6729-69.8975 9.76562-65.0391 9.76562-56.1523L9.76562-14.3555C9.76562-5.46875 14.6729-0.610352 23.6084-0.610352ZM39.8926-31.4941C37.9883-31.4941 36.6699-32.8125 36.6699-34.6924L36.6699-52.7832C36.6699-54.6631 37.9883-55.9814 39.8926-55.9814C41.748-55.9814 43.0908-54.6631 43.0908-52.7832L43.0908-34.6924C43.0908-32.8125 41.748-31.4941 39.8926-31.4941ZM50.6836-31.4941C48.8281-31.4941 47.4854-32.8125 47.4854-34.6924L47.4854-52.7832C47.4854-54.6631 48.8281-55.9814 50.6836-55.9814C52.5391-55.9814 53.8818-54.6631 53.8818-52.7832L53.8818-34.6924C53.8818-32.8125 52.5391-31.4941 50.6836-31.4941ZM61.4746-31.4941C59.6191-31.4941 58.2764-32.8125 58.2764-34.6924L58.2764-52.7832C58.2764-54.6631 59.6191-55.9814 61.4746-55.9814C63.3545-55.9814 64.6973-54.6631 64.6973-52.7832L64.6973-34.6924C64.6973-32.8125 63.3545-31.4941 61.4746-31.4941ZM85.791-30.8838C87.2314-29.2236 89.9414-29.1748 91.4795-31.2256C94.0918-34.6191 95.6299-38.9404 95.6299-43.5059C95.6299-48.0469 94.0918-52.3682 91.4795-55.7617C89.9414-57.8125 87.2314-57.7637 85.791-56.1035C84.2773-54.4189 84.9854-52.4414 86.1816-50.8057C87.6465-48.7061 88.3789-46.2402 88.3789-43.5059C88.3789-40.7471 87.6465-38.2812 86.1816-36.1816C84.9854-34.5703 84.2773-32.5928 85.791-30.8838ZM95.4346-22.4365C96.875-20.752 99.4141-20.752 101.05-22.6074C106.055-28.2227 108.838-35.5713 108.838-43.5059C108.838-51.416 106.055-58.7646 101.05-64.3799C99.4141-66.2354 96.875-66.2354 95.4346-64.5508C93.9941-62.8906 94.458-60.8643 95.8984-59.1553C99.6338-54.9316 101.562-49.5361 101.562-43.5059C101.562-37.4512 99.6338-32.0557 95.8984-27.832C94.458-26.123 93.9941-24.0967 95.4346-22.4365Z"/>
</svg>