<svg xmlns="http://www.w3.org/2000/svg" viewBox="9.76562 -72.0947 73.71 73.73">
  <path d="M23.6084 1.63574L69.6289 1.63574C78.5889 1.63574 83.4717-3.24707 83.4717-12.1338L83.4717-58.3252C83.4717-67.2119 78.5889-72.0947 69.6289-72.0947L23.6084-72.0947C14.6729-72.0947 9.76562-67.2119 9.76562-58.3252L9.76562-12.1338C9.76562-3.24707 14.6729 1.63574 23.6084 1.63574ZM31.7627-17.5537C29.8096-17.5537 28.7109-18.7256 28.7109-20.8252L28.7109-47.7051C28.7109-51.1475 30.4688-52.71 33.8867-52.71L44.3604-52.71C51.4893-52.71 54.7852-49.8047 54.7852-42.334L54.7852-31.1768C54.7852-29.2725 53.6377-28.0273 51.8555-28.0273C50.0488-28.0273 48.9258-29.2725 48.9258-31.1768L48.9258-40.8691C48.9258-45.5322 47.2168-46.5332 42.8955-46.5332L34.8145-46.5332L34.8145-20.8252C34.8145-18.7744 33.7158-17.5537 31.7627-17.5537ZM43.3105-17.7979C40.7471-17.7979 38.9404-19.0918 38.9404-21.9482L38.9404-39.1357C38.9404-41.0889 39.9658-42.3828 41.8945-42.3828C43.7988-42.3828 44.7998-41.0889 44.7998-39.1357L44.7998-23.999L53.418-23.999C58.0566-23.999 58.9111-25.2441 58.9111-29.8828L58.9111-49.6338C58.9111-51.6846 60.083-52.9541 61.9629-52.9541C63.8184-52.9541 65.0146-51.6846 65.0146-49.6338L65.0146-28.6621C65.0146-21.4844 61.9141-17.7979 54.7119-17.7979Z"/>
</svg>