<svg xmlns="http://www.w3.org/2000/svg" viewBox="9.76562 -64.1357 99.46 57.76">
  <path d="M18.457-16.8457C25.3662-16.8457 29.2969-21.4111 29.2969-29.1748L29.2969-41.2354C29.2969-48.999 25.3662-53.5645 18.457-53.5645L14.7217-53.5645C11.6455-53.5645 9.76562-51.6846 9.76562-48.584L9.76562-21.8262C9.76562-18.7256 11.6455-16.8457 14.7217-16.8457ZM55.6885-9.27734C59.9609-9.27734 62.7441-12.0117 62.7441-16.2598L62.7441-54.1504C62.7441-58.3984 59.9609-61.1328 55.6885-61.1328L50.5859-61.1328C39.5508-61.1328 32.5195-54.1504 32.5195-43.1152L32.5195-27.2949C32.5195-16.2598 39.5508-9.27734 50.5859-9.27734ZM38.3301-26.123L38.3301-44.7754L24.9756-44.7754L24.9756-26.123ZM66.626-17.3096C70.6299-18.1396 73.0957-21.5332 73.0957-26.4893L73.0957-43.9209C73.0957-48.9014 70.6299-52.2949 66.626-53.1494ZM81.3477-45.9961C83.2764-45.9961 84.8389-47.5586 84.8389-49.4873C84.8389-51.4404 83.2764-53.0029 81.3477-53.0029C79.3945-53.0029 77.832-51.4404 77.832-49.4873C77.832-47.5586 79.3945-45.9961 81.3477-45.9961ZM91.5039-51.5625C93.4326-51.5625 95.0195-53.125 95.0195-55.0781C95.0195-57.0068 93.4326-58.5938 91.5039-58.5938C89.5752-58.5938 87.9883-57.0068 87.9883-55.0781C87.9883-53.125 89.5752-51.5625 91.5039-51.5625ZM101.66-57.1045C103.589-57.1045 105.176-58.6914 105.176-60.6201C105.176-62.5732 103.589-64.1357 101.66-64.1357C99.707-64.1357 98.1445-62.5732 98.1445-60.6201C98.1445-58.6914 99.707-57.1045 101.66-57.1045ZM81.3721-31.7383C83.3008-31.7383 84.8877-33.3252 84.8877-35.2539C84.8877-37.1826 83.3008-38.7695 81.3721-38.7695C79.4189-38.7695 77.8564-37.1826 77.8564-35.2539C77.8564-33.3252 79.4189-31.7383 81.3721-31.7383ZM93.5303-31.7383C95.4834-31.7383 97.0459-33.3252 97.0459-35.2539C97.0459-37.1826 95.4834-38.7695 93.5303-38.7695C91.6016-38.7695 90.0146-37.1826 90.0146-35.2539C90.0146-33.3252 91.6016-31.7383 93.5303-31.7383ZM105.713-31.7383C107.642-31.7383 109.229-33.3252 109.229-35.2539C109.229-37.1826 107.642-38.7695 105.713-38.7695C103.76-38.7695 102.197-37.1826 102.197-35.2539C102.197-33.3252 103.76-31.7383 105.713-31.7383ZM81.3477-17.4805C83.3008-17.4805 84.8633-19.0674 84.8633-20.9961C84.8633-22.9492 83.3008-24.5117 81.3477-24.5117C79.4189-24.5117 77.8564-22.9492 77.8564-20.9961C77.8564-19.0674 79.4189-17.4805 81.3477-17.4805ZM91.5283-11.9141C93.457-11.9141 95.0439-13.501 95.0439-15.4297C95.0439-17.3584 93.457-18.9453 91.5283-18.9453C89.5996-18.9453 88.0127-17.3584 88.0127-15.4297C88.0127-13.501 89.5996-11.9141 91.5283-11.9141ZM101.685-6.37207C103.613-6.37207 105.2-7.93457 105.2-9.8877C105.2-11.8164 103.613-13.3789 101.685-13.3789C99.7314-13.3789 98.1689-11.8164 98.1689-9.8877C98.1689-7.93457 99.7314-6.37207 101.685-6.37207Z"/>
</svg>