<svg xmlns="http://www.w3.org/2000/svg" viewBox="6.83594 -75.9033 81.42 81.4">
  <path d="M47.5342 5.49316C70.0195 5.49316 88.2568-12.7441 88.2568-35.2051C88.2568-57.666 70.0195-75.9033 47.5342-75.9033C25.0732-75.9033 6.83594-57.666 6.83594-35.2051C6.83594-12.7441 25.0732 5.49316 47.5342 5.49316ZM38.4033-18.7988C33.4473-18.7988 29.9805-22.3633 29.9805-27.002C29.9805-31.0791 33.0811-34.4971 37.1338-34.9609C38.0371-38.6719 41.4307-41.333 45.3125-41.333C46.0205-41.333 46.7285-41.2354 47.4609-41.0889C49.2432-43.5791 52.124-45.0684 55.3223-45.0684C60.4004-45.0684 64.6729-41.2109 65.2832-36.2793C69.0918-35.1807 71.7529-31.7383 71.7529-27.71C71.7529-22.6562 67.9443-18.7988 62.4512-18.7988ZM22.7295-37.6953C22.7295-41.6992 25.3906-45.1904 29.1748-46.2646C29.8096-51.1963 34.082-55.0537 39.1846-55.0537C42.3828-55.0537 45.166-53.6865 47.0703-51.0742C47.876-51.3184 48.6572-51.4893 49.5117-51.4893C52.5635-51.4893 54.9072-50 55.7617-48.0713C52.4658-48.1689 48.8281-47.0703 46.2158-44.3848C45.9473-44.4092 45.5811-44.4336 45.3125-44.4336C40.6982-44.4336 36.5723-41.6504 34.7656-37.6221C31.1035-36.4746 28.2715-33.5693 27.2949-29.8828C24.1211-31.7871 22.7295-34.5703 22.7295-37.6953Z"/>
</svg>