<svg xmlns="http://www.w3.org/2000/svg" viewBox="6.0791 -88.7695 106.93 106.93">
  <path d="M15.7471 8.49609C25.3662 18.1641 38.1348 17.6758 48.3154 7.49512C52.5146 3.36914 60.7178-8.47168 73.5107-21.3135C86.377-34.1309 98.1934-42.334 102.344-46.5088C112.524-56.7139 113.013-69.4824 103.345-79.1016C93.7012-88.7695 80.957-88.2812 70.752-78.1006C66.5771-73.9746 58.374-62.1338 45.5566-49.2676C32.6904-36.4746 20.874-28.2715 16.748-24.0723C6.54297-13.8916 6.0791-1.12305 15.7471 8.49609ZM21.9971 2.24609C16.0889-3.58887 16.4551-11.4014 22.9492-17.8711C26.709-21.6309 38.4766-29.7852 51.709-43.1152C65.0635-56.3721 73.2178-68.1885 76.9531-71.8994C83.4473-78.3691 91.2598-78.7598 97.0703-72.8516C103.003-67.0166 102.612-59.2041 96.1426-52.7344C92.4316-48.9746 80.6152-40.8203 67.3584-27.4658C54.0283-14.2334 45.874-2.46582 42.1143 1.29395C35.6201 7.78809 27.832 8.1543 21.9971 2.24609ZM46.9238-27.6611L51.9043-22.6807C53.833-20.7764 56.7871-20.8252 58.667-22.6807C60.5957-24.6094 60.5957-27.4414 58.667-29.3457L53.5889-34.4238C51.6602-36.3525 48.8037-36.3525 46.9238-34.4727C44.9951-32.5684 45.0195-29.5898 46.9238-27.6611ZM60.3271-41.0645L65.3076-36.084C67.2607-34.1064 70.1904-34.1553 72.0703-36.084C73.9258-37.9395 73.9746-40.8691 72.0703-42.7979L67.0166-47.8271C65.1123-49.7314 62.1338-49.6826 60.2783-47.8271C58.3496-45.9473 58.3984-42.9688 60.3271-41.0645Z"/>
</svg>