<svg xmlns="http://www.w3.org/2000/svg" viewBox="9.76562 -35.3516 99.59 29.35">
  <path d="M9.76562-15.8936C9.76562-9.7168 13.3057-6.00586 19.6533-6.00586L99.4629-6.00586C105.811-6.00586 109.351-9.7168 109.351-15.8936L109.351-29.7607C109.351-32.8369 106.836-35.3516 103.76-35.3516C100.684-35.3516 98.1689-32.8369 98.1689-29.7607L98.1689-18.7256C98.1689-17.627 97.3633-16.7969 96.2891-16.7969L22.8271-16.7969C21.7041-16.7969 20.9473-17.5781 20.9473-18.7256L20.9473-29.7607C20.9473-32.8369 18.4326-35.3516 15.3564-35.3516C12.2803-35.3516 9.76562-32.8369 9.76562-29.7607Z" />
</svg>