<svg xmlns="http://www.w3.org/2000/svg" viewBox="9.76562 -78.4668 87.11 86.52">
  <path d="M44.6045 8.05664L83.0322 8.05664C91.9678 8.05664 96.875 3.19824 96.875-5.68848L96.875-44.3115C96.875-53.1982 91.9678-58.0566 83.0322-58.0566L44.6045-58.0566C35.6445-58.0566 30.7617-53.1982 30.7617-44.3115L30.7617-5.68848C30.7617 3.19824 35.6445 8.05664 44.6045 8.05664ZM9.76562-26.0986C9.76562-17.3828 14.502-12.3535 23.6084-12.3535L24.2432-12.3535L24.2432-44.3115C24.2432-56.8115 32.0557-64.5752 44.6045-64.5752L75.8789-64.5752L75.8789-64.7705C75.8789-73.6084 70.9717-78.4668 62.0361-78.4668L23.6084-78.4668C14.6484-78.4668 9.76562-73.6084 9.76562-64.7217ZM54.834-7.86133C52.5879-6.17676 50.1709-7.83691 51.0498-10.5957L54.6143-21.1426L45.5322-27.71C43.5547-29.126 44.0186-32.2266 46.9727-32.1777L58.1299-32.0312L61.5479-42.7002C62.4023-45.4102 65.2588-45.4102 66.1377-42.7002L69.5801-32.0312L80.7373-32.1777C83.7646-32.2266 84.1064-29.1016 82.1533-27.71L73.0713-21.167L76.6357-10.5957C77.5391-7.73926 75.0977-6.17676 72.876-7.86133L63.8428-14.4531Z"/>
</svg>