<svg xmlns="http://www.w3.org/2000/svg" viewBox="6.83594 -75.9033 81.42 81.4">
  <path d="M47.5342 5.49316C70.0195 5.49316 88.2568-12.7441 88.2568-35.2051C88.2568-57.666 70.0195-75.9033 47.5342-75.9033C25.0732-75.9033 6.83594-57.666 6.83594-35.2051C6.83594-12.7441 25.0732 5.49316 47.5342 5.49316ZM33.7646-37.915C33.7646-36.4502 32.5195-35.2539 30.9082-35.2539L27.1973-35.2539C25.6592-35.2539 24.4141-36.4746 24.4141-37.915C24.4141-39.3555 25.6592-40.6006 27.1973-40.6006L30.9082-40.6006C32.5195-40.6006 33.7646-39.4043 33.7646-37.915ZM37.793-46.46C36.7188-45.3857 35.0586-45.459 33.9355-46.5576L31.2744-49.2188C30.127-50.3418 30.127-52.0508 31.1523-53.1006C32.1777-54.1016 33.8623-54.126 34.9854-53.0029L37.6953-50.293C38.7939-49.1699 38.8184-47.5342 37.793-46.46ZM47.5098-51.1719C46.0449-51.1719 44.8486-52.4658 44.8486-54.0283L44.8486-57.7393C44.8486-59.3262 46.0693-60.5469 47.5098-60.5469C48.9502-60.5469 50.1709-59.3262 50.1709-57.7393L50.1709-54.0283C50.1709-52.4658 48.9746-51.1719 47.5098-51.1719ZM57.2754-46.46C56.2256-47.5342 56.2256-49.1455 57.3486-50.293L60.0342-53.0029C61.1328-54.1016 62.8418-54.126 63.8916-53.1006C64.8926-52.0264 64.8926-50.3418 63.7695-49.2188L61.1328-46.5576C59.9854-45.4346 58.3496-45.4102 57.2754-46.46ZM61.2793-37.915C61.2793-39.4043 62.5732-40.6006 64.1357-40.6006L67.8467-40.6006C69.4092-40.6006 70.6299-39.3555 70.6299-37.915C70.6299-36.4746 69.4092-35.2539 67.8467-35.2539L64.1357-35.2539C62.5732-35.2539 61.2793-36.4502 61.2793-37.915ZM36.5967-34.2041C36.377-34.9854 36.2793-35.9131 36.2793-36.7676C36.2793-42.9688 41.3818-48.0225 47.5098-48.0225C53.6865-48.0225 58.7646-42.9688 58.7646-36.7676C58.7646-35.9131 58.6426-34.9854 58.4473-34.2041ZM28.4668-27.4902C27.4414-27.4902 26.6602-28.2715 26.6602-29.2969C26.6602-30.2979 27.4414-31.1035 28.4668-31.1035L66.626-31.1035C67.627-31.1035 68.4082-30.2979 68.4082-29.2969C68.4082-28.2715 67.627-27.4902 66.626-27.4902ZM28.418-21.2891C27.417-21.2891 26.6357-22.0703 26.6357-23.0957C26.6357-24.0967 27.417-24.8779 28.418-24.8779L66.5771-24.8779C67.6025-24.8779 68.3594-24.0967 68.3594-23.0957C68.3594-22.0703 67.6025-21.2891 66.5771-21.2891ZM28.4668-15.0879C27.4414-15.0879 26.6602-15.8691 26.6602-16.8701C26.6602-17.8955 27.4414-18.6768 28.4668-18.6768L66.626-18.6768C67.627-18.6768 68.4082-17.8955 68.4082-16.8701C68.4082-15.8691 67.627-15.0879 66.626-15.0879Z"/>
</svg>