<svg xmlns="http://www.w3.org/2000/svg" viewBox="7.17773 -77.2949 91.99 92.07">
  <path d="M57.5928 8.49609L95.3613-29.2969C98.6572-32.5928 99.1699-34.7168 99.1699-39.5996L99.1699-54.0771C99.1699-58.6914 98.0225-60.5469 94.5312-64.0137L85.8887-72.6807C82.4219-76.1475 80.542-77.2949 75.9521-77.2949L61.4746-77.2949C56.5918-77.2949 54.5654-76.709 51.2695-73.4131L13.4766-35.6201C7.25098-29.3945 7.17773-22.4854 13.501-16.2109L38.1836 8.47168C44.5068 14.7705 51.3672 14.7461 57.5928 8.49609ZM68.6035-42.627C65.1367-42.627 62.4756-45.3369 62.4756-48.7793C62.4756-52.1973 65.1367-54.9072 68.6035-54.9072C72.0947-54.9072 74.7559-52.1973 74.7559-48.7793C74.7559-45.3369 72.0947-42.627 68.6035-42.627Z"/>
</svg>