<svg xmlns="http://www.w3.org/2000/svg" viewBox="6.83594 -75.9521 81.42 81.4">
  <path d="M49.6094 2.05078L55.7373 0.561523C54.9561-1.78223 54.541-4.24805 54.541-6.95801C54.541-20.2881 64.5264-30.2734 77.7832-30.2734C79.9316-30.2734 81.8604-30.0049 83.7646-29.541L85.3027-35.5957C82.9102-36.3037 80.3955-36.6211 77.7832-36.6211C61.4746-36.6211 48.1934-23.3398 48.1934-6.95801C48.1934-3.83301 48.6572-0.732422 49.6094 2.05078ZM10.8643-41.3574L9.64355-35.2051C12.1582-34.5215 14.8193-34.1553 17.5537-34.1553C33.8623-34.1553 47.1436-47.4365 47.1436-63.7939C47.1436-66.7725 46.7285-69.6533 45.8984-72.3145L39.5264-71.5088C40.3809-69.1162 40.7959-66.5771 40.7959-63.7939C40.7959-50.4883 30.8105-40.5029 17.5537-40.5029C15.21-40.5029 13.0371-40.7959 10.8643-41.3574ZM47.5342-75.9521C25.0732-75.9521 6.83594-57.7393 6.83594-35.2539C6.83594-12.7686 25.0732 5.44434 47.5342 5.44434C70.0195 5.44434 88.2568-12.7686 88.2568-35.2539C88.2568-57.7393 70.0195-75.9521 47.5342-75.9521ZM47.5342-67.6514C65.4053-67.6514 79.9316-53.125 79.9316-35.2539C79.9316-17.3828 65.4053-2.85645 47.5342-2.85645C29.6631-2.85645 15.1611-17.3828 15.1611-35.2539C15.1611-53.125 29.6631-67.6514 47.5342-67.6514Z"/>
</svg>