<svg xmlns="http://www.w3.org/2000/svg" viewBox="9.76562 -71.0693 100.24 71.63">
  <path d="M9.76562-17.334C9.76562-15.0146 10.8643-13.1592 12.9639-12.1826C17.4316-10.1074 19.9463-7.51953 22.29-2.56348C23.2422-0.537109 25.0488 0.561523 27.3193 0.561523L92.4561 0.561523C94.7266 0.561523 96.5332-0.537109 97.4854-2.56348C99.8291-7.51953 102.344-10.1074 106.812-12.1826C108.936-13.1592 110.01-15.0146 110.01-17.334L110.01-53.1738C110.01-55.4932 108.936-57.3486 106.812-58.3252C102.344-60.4004 99.8291-62.9883 97.4854-67.9443C96.5332-69.9707 94.7266-71.0693 92.4561-71.0693L27.3193-71.0693C25.0488-71.0693 23.2422-69.9707 22.29-67.9443C19.9463-62.9883 17.4316-60.4004 12.9639-58.3252C10.8643-57.3486 9.76562-55.4932 9.76562-53.1738ZM28.3203-17.9688L28.3203-52.5391C28.3203-54.9072 29.9072-56.5186 32.251-56.5186L87.5488-56.5186C89.8682-56.5186 91.4551-54.9072 91.4551-52.5391L91.4551-17.9688C91.4551-15.6006 89.8682-13.9893 87.5488-13.9893L32.251-13.9893C29.9072-13.9893 28.3203-15.6006 28.3203-17.9688ZM34.5947-44.4824L38.4277-44.4824L38.4277-50.2686L35.1074-50.2686C34.7412-50.2686 34.5947-50.0488 34.5947-49.707ZM34.5947-32.2266L38.4277-32.2266L38.4277-38.2568L34.5947-38.2568ZM34.6191-20.8252C34.6191-20.5078 34.7656-20.3125 35.1318-20.3125L38.4033-20.3125L38.4033-25.9766L34.6191-25.9766ZM81.3477-44.4824L85.1807-44.4824L85.1807-49.707C85.1807-50.0488 85.0342-50.2686 84.668-50.2686L81.3477-50.2686ZM81.3477-32.2266L85.1807-32.2266L85.1807-38.2568L81.3477-38.2568ZM81.3477-20.2393L84.668-20.2393C85.0342-20.2393 85.1807-20.459 85.1807-20.8008L85.1807-26.0254L81.3477-26.0254ZM44.7021-20.3125L75.0732-20.3125L75.0732-50.1953L44.7021-50.1953Z"/>
</svg>