<svg xmlns="http://www.w3.org/2000/svg" viewBox="9.76562 -67.5049 101.07 64.55">
  <path d="M9.76562-16.9434C9.76562-7.93457 14.7705-2.9541 23.8281-2.9541L96.7773-2.9541C105.835-2.9541 110.84-7.93457 110.84-16.9434L110.84-53.5156C110.84-62.5244 105.835-67.5049 96.7773-67.5049L23.8281-67.5049C14.7705-67.5049 9.76562-62.5244 9.76562-53.5156ZM29.6143-36.1572L29.6143-47.5342C29.6143-49.5605 30.8838-50.8057 32.9346-50.8057L87.6953-50.8057C89.7217-50.8057 90.9912-49.5605 90.9912-47.5342L90.9912-36.1572C90.9912-34.1553 89.7217-32.9102 87.6953-32.9102L32.9346-32.9102C30.8838-32.9102 29.6143-34.1553 29.6143-36.1572Z"/>
</svg>