<svg xmlns="http://www.w3.org/2000/svg" viewBox="6.83594 -75.9521 81.42 81.4">
  <path d="M47.5342 5.44434C70.0195 5.44434 88.2568-12.7686 88.2568-35.2539C88.2568-57.7393 70.0195-75.9521 47.5342-75.9521C25.0732-75.9521 6.83594-57.7393 6.83594-35.2539C6.83594-12.7686 25.0732 5.44434 47.5342 5.44434ZM47.5342-5.34668C31.0059-5.34668 17.6514-18.7256 17.6514-35.2539C17.6514-51.7822 31.0059-65.1611 47.5342-65.1611C64.0625-65.1611 77.4414-51.7822 77.4414-35.2539C77.4414-18.7256 64.0625-5.34668 47.5342-5.34668ZM44.3359-18.7012L44.9707-18.7012C49.1943-18.7012 54.1016-19.9707 57.1289-22.6807C59.6191-24.8779 61.2305-27.9053 61.2305-30.7617C61.2305-32.5928 59.9609-33.9355 57.8857-33.9355C55.957-33.9355 55.0293-32.7637 54.5654-31.1523C54.248-29.7119 53.6621-28.4912 52.7832-27.5146C51.1719-25.8545 48.6816-24.9512 46.0938-24.9512L46.0938-35.5713L53.5645-38.3545C54.126-38.5742 54.4189-38.9893 54.4189-39.502C54.4189-40.1855 53.9307-40.7227 53.2715-40.7227C53.0518-40.7227 52.8564-40.6494 52.6611-40.5762L46.0938-38.1348L46.0938-42.4072L53.5645-45.1904C54.126-45.3857 54.4189-45.8008 54.4189-46.3623C54.4189-46.875 54.0771-47.5342 53.2959-47.5342C53.0762-47.5342 52.8564-47.4609 52.6611-47.3877L46.0938-44.9463L46.0938-48.9502C46.0938-51.0498 44.6777-52.5146 42.6025-52.5146C40.5273-52.5146 39.0869-51.0498 39.0869-48.9502L39.0869-42.3828L34.1797-40.5762C33.6426-40.3809 33.3984-40.0146 33.3984-39.4775C33.3984-38.8184 33.8623-38.2812 34.5215-38.2812C34.7168-38.2812 34.9365-38.3301 35.1562-38.4033L39.0869-39.8682L39.0869-35.5957L34.1797-33.7646C33.6426-33.5449 33.3984-33.2031 33.3984-32.6416C33.3984-32.0068 33.8623-31.4453 34.5215-31.4453C34.7168-31.4453 34.9609-31.4941 35.1562-31.5674L39.0869-33.0566L39.0869-23.3643C39.0869-20.5322 41.1621-18.7012 44.3359-18.7012Z" />
</svg>