<svg xmlns="http://www.w3.org/2000/svg" viewBox="8.72266 -88.5802 106.64 106.64">
  <path d="M62.0422 18.0589C91.4941 18.0589 115.367-5.81424 115.367-35.2606C115.367-64.707 91.4941-88.5802 62.0422-88.5802C32.5958-88.5802 8.72266-64.707 8.72266-35.2606C8.72266-5.81424 32.5958 18.0589 62.0422 18.0589ZM49.907-14.997C47.0182-14.997 44.8011-17.2712 44.8011-20.1491L44.8011-45.3216L42.2295-43.2728C41.3819-42.6643 40.7053-42.3574 39.7682-42.3574C38.1959-42.3574 36.4374-43.4353 36.4374-45.9843C36.4374-47.5983 37.0789-48.7806 38.5983-49.9302L42.5621-52.933C44.4503-54.3944 46.268-55.4213 49.0421-55.4213C52.7278-55.4213 54.9965-53.4491 54.9965-49.7063L54.9965-20.1491C54.9965-17.2712 52.7223-14.997 49.907-14.997ZM65.5696-15.6725C62.5449-15.6725 60.8963-17.1101 60.8963-19.6121C60.8963-21.2539 61.5084-22.6343 63.4898-25.1454L69.76-33.0099C72.7684-36.8664 75.1502-40.3146 75.1502-43.858C75.1502-46.1461 74.5023-48.1557 72.4029-48.1557C70.5926-48.1557 69.8747-46.5736 69.3329-44.7845C68.6502-42.3387 66.9549-41.3503 64.9605-41.3503C62.3228-41.3503 60.8444-43.1915 60.8444-45.7166C60.8444-51.2928 66.0799-55.8522 72.4087-55.8522C79.4592-55.8522 84.6749-51.6724 84.6749-44.1188C84.6749-38.5406 81.792-34.7498 77.9677-30.2055L72.6172-23.8799L72.6172-23.4943L81.4934-23.4943C84.2296-23.4943 85.2504-21.5709 85.2504-19.5547C85.2504-17.6124 84.2351-15.6725 81.4934-15.6725Z"/>
</svg>