<svg xmlns="http://www.w3.org/2000/svg" viewBox="8.72266 -88.5802 106.64 106.64">
  <path d="M62.0422 18.0589C91.4936 18.0589 115.367-5.80932 115.367-35.2606C115.367-64.712 91.4936-88.5802 62.0422-88.5802C32.5964-88.5802 8.72266-64.712 8.72266-35.2606C8.72266-5.80932 32.5964 18.0589 62.0422 18.0589ZM62.0422 0.677054C42.1819 0.677054 26.1103-15.4003 26.1103-35.2606C26.1103-55.1209 42.1819-71.1983 62.0422-71.1983C81.9025-71.1983 97.9799-55.1209 97.9799-35.2606C97.9799-15.4003 81.9025 0.677054 62.0422 0.677054ZM50.1769-16.4904C52.8153-16.4904 54.9128-18.5878 54.9128-21.2372L54.9128-48.6807C54.9128-52.1326 52.8208-53.9851 49.3745-53.9851C46.8343-53.9851 45.1308-53.0153 43.3678-51.6791L39.7005-48.8527C38.3066-47.8231 37.6648-46.6979 37.6648-45.2036C37.6648-42.8314 39.309-41.8731 40.7616-41.8731C41.6361-41.8731 42.2502-42.1229 43.0407-42.7315L45.43-44.5977L45.43-21.2372C45.43-18.5878 47.5275-16.4904 50.1769-16.4904ZM68.9633-29.897C72.5881-29.897 74.6652-32.5499 75.4507-35.6889L75.5234-35.6889C75.5234-34.8173 75.5234-33.8885 75.5234-33.0227C75.5234-26.6142 74.394-23.2819 72.3219-23.2819C71.3108-23.2819 70.748-23.8426 69.9908-25.2984C69.0702-27.0916 67.8885-27.841 66.0353-27.841C63.2668-27.841 62.2729-25.9933 62.2729-24.0162C62.2729-23.5065 62.3404-22.6608 62.5215-22.1006C63.7454-17.9164 67.6031-16.0534 71.968-16.0534C81.5636-16.0534 84.3921-25.7454 84.3921-35.3412C84.3921-43.5354 81.7937-54.348 72.0872-54.348C64.8238-54.348 61.0187-48.3467 61.0187-41.4125C61.0187-35.6131 63.2827-29.897 68.9633-29.897ZM72.2694-36.408C70.6823-36.408 69.8413-38.4367 69.8413-41.731C69.8413-45.0298 70.7043-47.005 72.2694-47.005C73.8563-47.005 74.6964-44.9733 74.6964-41.5597C74.6964-38.3637 73.8464-36.408 72.2694-36.408Z" />
</svg>