<svg xmlns="http://www.w3.org/2000/svg" viewBox="8.72266 -88.5802 106.64 106.64">
  <path d="M62.0422 18.0589C91.4936 18.0589 115.367-5.80932 115.367-35.2606C115.367-64.712 91.4936-88.5802 62.0422-88.5802C32.5964-88.5802 8.72266-64.712 8.72266-35.2606C8.72266-5.80932 32.5964 18.0589 62.0422 18.0589ZM62.0422 0.677054C42.1819 0.677054 26.1103-15.4003 26.1103-35.2606C26.1103-55.1209 42.1819-71.1983 62.0422-71.1983C81.9025-71.1983 97.9799-55.1209 97.9799-35.2606C97.9799-15.4003 81.9025 0.677054 62.0422 0.677054ZM51.2245-14.2135L74.5137-14.2135C78.9795-14.2135 81.6839-16.6156 81.6839-20.5217C81.6839-24.4273 79.0937-26.71 74.5137-26.71L66.6813-26.71L66.6813-27.1986L71.5146-31.2801C77.4545-36.0974 79.9588-39.8536 79.9588-44.2233C79.9588-52.1649 72.8199-57.5567 62.3246-57.5567C53.8608-57.5567 47.12-53.8901 45.0226-48.2432C44.6638-47.2657 44.4873-46.2364 44.4873-45.2073C44.4873-41.3701 47.2378-39.4248 51.3608-39.4248C54.5531-39.4248 56.0612-40.9601 57.2907-42.4585C58.4486-43.8537 59.4771-45.248 61.3924-45.248C63.1136-45.248 64.0964-44.3532 64.0964-42.8494C64.0964-41.068 63.0125-39.3337 59.5392-36.4734L48.1027-26.9617C45.2243-24.592 44.6671-22.4962 44.6671-20.2296C44.6671-16.7298 47.4172-14.2135 51.2245-14.2135Z" />
</svg>