<svg xmlns="http://www.w3.org/2000/svg" viewBox="8.72266 -88.5802 106.64 106.64">
  <path d="M62.0422 18.0589C91.4941 18.0589 115.367-5.81424 115.367-35.2606C115.367-64.707 91.4941-88.5802 62.0422-88.5802C32.5958-88.5802 8.72266-64.707 8.72266-35.2606C8.72266-5.81424 32.5958 18.0589 62.0422 18.0589ZM48.2012-12.0112C43.2355-12.0112 40.4628-14.7787 40.4628-19.4891C40.4628-20.6552 40.759-22.3821 41.4878-24.774L48.9744-47.8796C51.247-55.1053 55.314-58.3811 61.8655-58.3811C68.594-58.3811 72.9001-55.0482 75.1101-47.8796L82.5969-24.774C83.3255-22.3821 83.6217-20.6552 83.6217-19.4894C83.6217-14.7784 80.8495-12.0112 75.8882-12.0112C71.7139-12.0112 69.1281-14.376 68.1336-19.239L67.6313-21.3244L56.4531-21.3244L55.9511-19.239C54.9619-14.3766 52.3763-12.0112 48.2012-12.0112ZM58.7021-32.0809L65.3824-32.0809L62.2978-45.5631L61.787-45.5631Z"/>
</svg>