<svg xmlns="http://www.w3.org/2000/svg" viewBox="12.4609 -80.2115 189.81 89.96">
  <path d="M87.3155-24.7907C89.447-24.7907 90.7262-25.8591 91.0953-28.4407L91.2966-29.7359L96.1253-29.7359L96.3831-28.3155C96.8204-25.9049 97.8824-24.7907 100.272-24.7907C102.391-24.7907 103.812-26.3995 103.812-28.5027C103.812-29.4242 103.687-30.1116 103.499-31.0383L99.7421-48.185C98.9408-51.8589 96.4997-52.8226 93.5568-52.8226C90.5788-52.8226 88.418-51.4537 87.7364-48.185L84.0416-31.0383C83.7971-29.9345 83.6722-28.9617 83.6722-28.5027C83.6722-26.5269 84.7723-24.7907 87.3155-24.7907ZM92.1077-35.1907L93.4893-44.3339L93.682-44.3339L95.194-35.1907ZM110.957-24.7907C113.43-24.7907 114.856-26.2225 114.856-28.8093L114.856-48.804C114.856-51.3911 113.43-52.8226 110.957-52.8226C108.484-52.8226 107.115-51.3911 107.115-48.804L107.115-28.8093C107.115-26.2225 108.484-24.7907 110.957-24.7907ZM122.689-24.7904C125.213-24.7904 126.526-26.2796 126.526-28.8093L126.526-34.4649L127.372-34.4649L129.26-28.1286C129.88-26.0246 130.999-24.7904 133.046-24.7904C135.388-24.7904 136.928-26.2115 136.928-28.4802C136.928-29.1055 136.627-29.9803 136.429-30.5071L134.487-36.1303C136.258-37.4041 137.242-41.0799 137.242-43.2484C137.242-49.2838 133.935-52.3914 127.921-52.3914L122.689-52.3914C120.616-52.3914 118.789-51.2451 118.789-48.3673L118.789-28.8093C118.789-26.2222 120.108-24.7904 122.689-24.7904ZM126.526-39.5548L126.526-46.6869L127.296-46.6869C128.747-46.6869 129.324-44.5749 129.324-43.1235C129.324-41.6045 128.747-39.5543 127.239-39.5545ZM32.1542-1.36037L42.2225-1.36037L42.2225-16.42L32.1542-16.42C29.1194-16.42 27.515-18.4506 27.515-22.1096L27.515-27.9444C27.515-34.3004 31.5456-38.4005 40.3761-39.4646L60.7258-41.9461C63.9327-42.3199 66.7532-43.2973 69.33-44.8924L88.4388-56.8717C99.332-63.7148 105.351-65.1571 124.62-65.1571L132.869-65.1571C145.085-65.1571 154.657-60.6564 167.584-49.4015C170.354-46.9432 172.299-46.0898 175.947-44.9191L180.97-43.3011C185.002-42.0211 187.214-39.1052 187.214-35.1159L187.214-22.1096C187.214-18.4506 185.609-16.42 182.574-16.42L172.502-16.42L172.502-1.36037L182.574-1.36037C195.287-1.36037 202.268-8.71598 202.268-22.1096L202.268-36.2578C202.268-47.2667 196.338-54.0047 185.441-57.9717L178.059-60.6341C168.334-69.1281 152.735-80.2115 132.869-80.2115L124.62-80.2115C102.813-80.2115 93.6109-78.0461 80.3713-69.6993L60.2781-57.0152L38.4515-54.3993C22.3637-52.4817 12.4609-42.0366 12.4609-27.9444L12.4609-21.7341C12.4609-8.5908 19.4529-1.36037 32.1542-1.36037ZM69.414-1.36037L143.947-1.36037L143.947-16.42L69.414-16.42ZM56.253 9.74728C68.354 9.74728 77.8731 0.233734 77.8731-11.8731C77.8731-24.0316 68.354-33.5448 56.253-33.5448C44.0945-33.5448 34.5755-24.0316 34.5755-11.8731C34.5755 0.233734 44.0945 9.74728 56.253 9.74728ZM56.253-4.62962C52.1565-4.62962 48.9521-7.8283 48.9521-11.8731C48.9521-15.9693 52.1565-19.1737 56.253-19.1737C60.292-19.1737 63.4965-15.9693 63.4965-11.8731C63.4965-7.8283 60.292-4.62962 56.253-4.62962ZM158.476 9.74728C170.634 9.74728 180.153 0.233734 180.153-11.8731C180.153-24.0316 170.634-33.5448 158.476-33.5448C146.375-33.5448 136.856-24.0316 136.856-11.8731C136.856 0.233734 146.375 9.74728 158.476 9.74728ZM158.476-4.62962C154.437-4.62962 151.232-7.8283 151.232-11.8731C151.232-15.9693 154.437-19.1737 158.476-19.1737C162.572-19.1737 165.777-15.9693 165.777-11.8731C165.777-7.8283 162.572-4.62962 158.476-4.62962Z"/>
</svg>