<svg xmlns="http://www.w3.org/2000/svg" viewBox="12.4609 -90.6186 130.23 108.57">
  <path d="M20.6753-28.161L33.0593-28.161L33.0593-44.5711L20.6753-44.5711C16.1466-44.5711 12.4609-40.8635 12.4609-36.3348C12.4609-31.8632 16.1466-28.161 20.6753-28.161ZM39.7206 17.949L59.261 17.949C68.0952 17.949 73.933 12.0489 73.933 3.0266L73.933-75.7532C73.933-84.7184 68.0952-90.6186 59.261-90.6186L39.7206-90.6186C30.8235-90.6186 24.9915-84.7184 24.9915-75.7532L24.9915 3.0266C24.9915 12.0489 30.8235 17.949 39.7206 17.949ZM65.6651-28.161L88.0535-28.161L88.0535-44.5711L65.6651-44.5711ZM96.2311 2.18586L115.771 2.18586C124.611 2.18586 130.444-3.7088 130.444-12.674L130.444-59.9956C130.444-68.9607 124.611-74.8554 115.771-74.8554L96.2311-74.8554C87.3395-74.8554 81.502-68.9607 81.502-59.9956L81.502-12.674C81.502-3.7088 87.3395 2.18586 96.2311 2.18586ZM122.691-28.161L134.532-28.161C139.004-28.161 142.689-31.8632 142.689-36.3348C142.689-40.8635 139.004-44.5711 134.532-44.5711L122.691-44.5711Z"/>
</svg>