<svg xmlns="http://www.w3.org/2000/svg" viewBox="10.3837 -85.694 159 100.93">
  <path d="M39.395 15.235L140.373 15.235C160.554 15.235 169.385 3.96608 166.887-16.6772L161.483-61.1572C159.525-77.4916 151.012-85.694 135.934-85.694L43.8345-85.694C28.7561-85.694 20.2439-77.4916 18.2907-61.1572L12.8812-16.6772C10.3837 3.96608 19.2198 15.235 39.395 15.235ZM39.395-2.10293C32.2135-2.10293 29.1576-6.92359 30.1162-14.743L35.5092-59.0663C36.2719-65.2509 39.0103-68.3561 43.8345-68.3561L135.934-68.3561C140.758-68.3561 143.496-65.2509 144.259-59.0663L149.652-14.743C150.611-6.92387 147.56-2.10293 140.373-2.10293ZM56.638-22.3999C59.608-22.3999 61.6437-23.7425 61.6437-25.8078L61.6437-38.025C65.782-39.9294 68.6627-44.1008 68.6627-48.9781C68.6627-55.6138 63.274-61.0029 56.638-61.0029C49.9915-61.0029 44.5512-55.6083 44.5512-48.9781C44.5512-44.0953 47.4945-39.8723 51.6951-38.0195L51.6951-25.8078C51.6951-23.7425 53.7198-22.3999 56.638-22.3999ZM56.6951-10.0106C67.6127-10.0106 75.2924-15.955 75.2924-24.2638C75.2924-29.7379 71.9291-34.1995 66.6285-36.618L66.6285-27.5988C67.3016-26.6437 67.6982-25.5485 67.6982-24.2638C67.6982-19.8531 63.2192-16.7964 56.6951-16.7964C50.1141-16.7964 45.6354-19.8531 45.6354-24.2638C45.6354-25.554 45.9746-26.7063 46.7103-27.6614L46.7103-36.5609C41.399-34.2049 38.0357-29.7379 38.0357-24.2638C38.0357-15.955 45.7834-10.0106 56.6951-10.0106ZM85.2651-37.8799C89.8325-37.8799 93.3667-41.3628 93.3667-45.9302C93.3667-50.4972 89.8325-54.0372 85.2651-54.0372C80.7549-54.0372 77.1581-50.4972 77.1581-45.9302C77.1581-41.3628 80.7549-37.8799 85.2651-37.8799ZM106.859-37.8799C111.426-37.8799 114.96-41.3628 114.96-45.9302C114.96-50.4972 111.426-54.0372 106.859-54.0372C102.348-54.0372 98.7516-50.4972 98.7516-45.9302C98.7516-41.3628 102.348-37.8799 106.859-37.8799ZM128.333-37.8799C132.9-37.8799 136.434-41.3628 136.434-45.9302C136.434-50.4972 132.9-54.0372 128.333-54.0372C123.822-54.0372 120.226-50.4972 120.226-45.9302C120.226-41.3628 123.822-37.8799 128.333-37.8799ZM91.3764-16.4058C95.9437-16.4058 99.478-19.8887 99.478-24.4561C99.478-29.0232 95.9437-32.5631 91.3764-32.5631C86.8661-32.5631 83.2693-29.0232 83.2693-24.4561C83.2693-19.8887 86.8661-16.4058 91.3764-16.4058ZM112.97-16.4058C117.537-16.4058 121.071-19.8887 121.071-24.4561C121.071-29.0232 117.537-32.5631 112.97-32.5631C108.46-32.5631 104.863-29.0232 104.863-24.4561C104.863-19.8887 108.46-16.4058 112.97-16.4058ZM134.449-16.4058C139.017-16.4058 142.551-19.8887 142.551-24.4561C142.551-29.0232 139.017-32.5631 134.449-32.5631C129.934-32.5631 126.342-29.0232 126.342-24.4561C126.342-19.8887 129.934-16.4058 134.449-16.4058Z"/>
</svg>