<svg xmlns="http://www.w3.org/2000/svg" viewBox="12.4609 -83.6567 96.8 96.8">
  <path d="M31.6184 13.1464L90.1011 13.1464C102.194 13.1464 109.259 6.08236 109.259-5.99457L109.259-64.5157C109.259-76.5927 102.194-83.6567 90.1011-83.6567L31.6184-83.6567C19.5311-83.6567 12.4609-76.5921 12.4609-64.5157L12.4609-5.99457C12.4609 6.08179 19.5311 13.1464 31.6184 13.1464ZM34.2553-4.19701C31.2643-4.19701 29.7989-5.42306 29.7989-8.65888L29.7989-61.8514C29.7989-65.0927 31.2643-66.3133 34.2553-66.3133L87.4643-66.3133C90.4564-66.3133 91.9207-65.0927 91.9207-61.8514L91.9207-8.65888C91.9207-5.42306 90.4564-4.19701 87.4643-4.19701ZM64.6554-48.1748L55.4798-40.6523L42.3115-27.4895C40.871-26.0489 40.0231-24.0728 40.0231-22.1489C40.0231-17.8785 43.4181-14.9973 47.3459-14.9973C49.3431-14.9973 51.1479-15.6685 52.9256-17.389L65.8658-30.2721L73.3831-39.5048C77.9082-45.0225 71.3614-53.592 64.6554-48.1748ZM69.8019-31.3856L69.8019-26.5524C69.8019-22.3856 72.0553-19.6702 75.7489-19.6702C79.4486-19.6702 81.7017-22.3449 81.7017-26.4492L81.7017-47.7512C81.7017-53.1833 78.4615-56.374 72.9589-56.374L51.6407-56.374C47.4168-56.374 44.7014-54.1207 44.7014-50.4265C44.7014-46.7328 47.3651-44.4795 51.4804-44.4795L56.8224-44.4795L72.1146-47.317Z" />
</svg>