<svg xmlns="http://www.w3.org/2000/svg" viewBox="12.4609 -92.7339 67.05 113.82">
  <path d="M29.4438-60.1723L62.523-60.1723C67.3673-60.1723 68.9368-64.6287 65.6198-69.0997L50.7567-89.2138C48.1572-92.7339 43.8205-92.6252 41.2726-89.2138L26.3524-69.1052C23.087-64.6858 24.4798-60.1723 29.4438-60.1723ZM72.1226 21.0249C76.9911 21.0249 79.5113 17.6944 79.5113 13.6579C79.5113 11.1814 78.1281 8.75153 75.785 7.2676L71.8899 4.79842C64.5045 0.141167 53.4812-13.0661 53.4812-23.3387L53.4812-66.2179C53.4812-70.3395 50.0994-73.7211 45.9832-73.7211C41.8729-73.7211 38.491-70.3395 38.491-66.2179L38.491-23.3387C38.491-6.70193 54.3252 11.4308 63.9272 17.6755L66.3625 19.2607C68.1948 20.4216 70.1926 21.0249 72.1226 21.0249ZM19.8496 21.082C21.7796 21.082 23.772 20.4787 25.6042 19.3178L28.0395 17.7326C37.647 11.4879 53.4812-6.64483 53.4812-23.2816L53.4812-66.1608C53.4812-70.2824 50.0994-73.664 45.9832-73.664C41.8729-73.664 38.491-70.2824 38.491-66.1608L38.491-23.2816C38.491-13.009 27.4677 0.198263 20.0823 4.85552L16.1818 7.32469C13.8441 8.80863 12.4609 11.2385 12.4609 13.715C12.4609 17.7515 14.9811 21.082 19.8496 21.082Z" />
</svg>