<svg xmlns="http://www.w3.org/2000/svg" viewBox="12.4609 -76.5936 113.3 82.72">
  <path d="M21.7503 6.12882C26.8588 6.12882 31.0344 2.01571 31.0344-3.14435L31.0344-67.3094C31.0344-72.475 26.8588-76.5936 21.7503-76.5936C16.6421-76.5936 12.4609-72.475 12.4609-67.3094L12.4609-3.14435C12.4609 2.01571 16.6421 6.12882 21.7503 6.12882ZM81.3782-67.3772C81.3782-72.5892 77.5909-76.5936 71.9856-76.5936C69.4166-76.5936 66.9724-75.5225 64.985-73.5458L33.8135-42.3812C32.1171-40.6903 31.035-37.8352 31.035-35.2038C31.035-32.5725 32.1171-29.7174 33.8135-28.0265L64.985 3.08104C66.9724 5.05772 69.4166 6.12882 71.9856 6.12882C77.5909 6.12882 81.3782 2.12441 81.3782-3.08754C81.3782-6.17017 79.9648-8.33897 78.1185-10.1282L67.178-20.9193L49.5616-35.2038L67.178-49.4884L78.1185-60.3366C79.9648-62.1258 81.3782-64.2946 81.3782-67.3772ZM48.2335-26.4879L71.375-25.4003L115.391-25.4003C121.642-25.4003 125.761-29.296 125.761-35.2038C125.761-41.1116 121.642-45.0073 115.391-45.0073L71.375-45.0073L48.2335-43.9198C43.4023-43.6804 39.5176-40.035 39.5176-35.2038C39.5176-30.3726 43.4023-26.7273 48.2335-26.4879Z" />
</svg>