<svg xmlns="http://www.w3.org/2000/svg" viewBox="12.4609 -99.0419 74.24 127.51">
  <path d="M28.7727 28.4695L70.3915 28.4695C81.0563 28.4695 86.7032 23.0784 86.7032 12.9034L86.7032-83.476C86.7032-93.651 81.0563-99.0419 70.3915-99.0419L28.7727-99.0419C18.1024-99.0419 12.4609-93.651 12.4609-83.476L12.4609 12.9034C12.4609 23.0784 18.1024 28.4695 28.7727 28.4695ZM52.88-75.6318C50.7297-75.6318 48.953-77.4085 48.953-79.5017C48.953-81.709 50.7297-83.486 52.88-83.486L64.06-83.486C66.1532-83.486 67.9299-81.709 67.9299-79.5017C67.9299-77.4085 66.1532-75.6318 64.06-75.6318ZM36.4494-52.5024C33.3075-52.5024 30.726-55.0893 30.726-58.2368C30.726-61.3164 33.3075-63.9657 36.4494-63.9657C39.6542-63.9657 42.2412-61.3164 42.2412-58.2368C42.2412-55.0893 39.6542-52.5024 36.4494-52.5024ZM49.5793-52.5024C46.3803-52.5024 43.8559-55.0893 43.8559-58.2368C43.8559-61.3164 46.3232-63.9657 49.5793-63.9657C52.8412-63.9657 55.3085-61.3164 55.3085-58.2368C55.3085-55.0893 52.7841-52.5024 49.5793-52.5024ZM62.777-52.5024C59.5725-52.5024 57.0481-55.0893 57.0481-58.2368C57.0481-61.3164 59.5154-63.9657 62.777-63.9657C65.9135-63.9657 68.5007-61.3164 68.5007-58.2368C68.5007-55.0893 65.9135-52.5024 62.777-52.5024ZM36.4494-37.677C33.3075-37.677 30.726-40.2588 30.726-43.4007C30.726-46.4803 33.3075-49.1296 36.4494-49.1296C39.6542-49.1296 42.2412-46.4803 42.2412-43.4007C42.2412-40.2588 39.6542-37.677 36.4494-37.677ZM49.5793-37.677C46.3803-37.677 43.8559-40.2588 43.8559-43.4007C43.8559-46.4803 46.3232-49.1296 49.5793-49.1296C52.8412-49.1296 55.3085-46.4803 55.3085-43.4007C55.3085-40.2588 52.7841-37.677 49.5793-37.677ZM62.777-37.677C59.5725-37.677 57.0481-40.2588 57.0481-43.4007C57.0481-46.4803 59.5154-49.1296 62.777-49.1296C65.9135-49.1296 68.5007-46.4803 68.5007-43.4007C68.5007-40.2588 65.9135-37.677 62.777-37.677ZM36.4494-22.8409C33.3075-22.8409 30.726-25.4224 30.726-28.5698C30.726-31.7123 33.3075-34.2935 36.4494-34.2935C39.6542-34.2935 42.2412-31.7123 42.2412-28.5698C42.2412-25.4224 39.6542-22.8409 36.4494-22.8409ZM49.5793-22.8409C46.3803-22.8409 43.8559-25.4276 43.8559-28.5698C43.8559-31.7746 46.3803-34.2935 49.5793-34.2935C52.7841-34.2935 55.3085-31.7746 55.3085-28.5698C55.3085-25.4276 52.7841-22.8409 49.5793-22.8409ZM62.777-22.8409C59.5725-22.8409 57.0481-25.4276 57.0481-28.5698C57.0481-31.7746 59.5725-34.2935 62.777-34.2935C65.9135-34.2935 68.5007-31.7746 68.5007-28.5698C68.5007-25.4276 65.9135-22.8409 62.777-22.8409ZM35.3332 10.9806C32.7572 10.9806 30.726 8.89231 30.726 6.42503L30.726-10.595C30.726-13.0568 32.7572-15.2022 35.3332-15.2022C37.7952-15.2022 39.9406-13.0568 39.9406-10.595L39.9406 6.42503C39.9406 8.89231 37.7952 10.9806 35.3332 10.9806ZM47.035-3.25588C44.8951-3.25588 43.669-4.71587 43.669-6.74152L43.669-10.1584C43.669-12.127 44.8951-13.5299 47.035-13.5299L52.1292-13.5299C54.3316-13.5299 55.4954-12.127 55.4954-10.1584L55.4954-6.74152C55.4954-4.71587 54.3316-3.25588 52.1292-3.25588ZM47.035 9.30277C44.9522 9.30277 43.669 7.96247 43.669 5.93682L43.669 2.57701C43.669 0.494255 44.8951-0.851538 47.035-0.851538L52.1292-0.851538C54.3316-0.851538 55.4954 0.494255 55.4954 2.57701L55.4954 5.93682C55.4954 7.96247 54.3316 9.30277 52.1292 9.30277ZM63.8933 10.9806C61.4315 10.9806 59.2862 8.89231 59.2862 6.42503L59.2862-10.595C59.2862-13.0568 61.4315-15.2022 63.8933-15.2022C66.4693-15.2022 68.5007-13.0568 68.5007-10.595L68.5007 6.42503C68.5007 8.89231 66.4693 10.9806 63.8933 10.9806Z"/>
</svg>