<svg xmlns="http://www.w3.org/2000/svg" viewBox="8.72266 -88.5179 106.64 106.64">
  <path d="M62.0422 18.1212C91.4941 18.1212 115.367-5.75194 115.367-35.1983C115.367-64.6447 91.4941-88.5179 62.0422-88.5179C32.5958-88.5179 8.72266-64.6447 8.72266-35.1983C8.72266-5.75194 32.5958 18.1212 62.0422 18.1212ZM32.8003-17.7186L32.8003-48.1884C32.8003-50.9651 34.4881-52.6468 37.3262-52.6468L40.8575-52.6468C43.5136-52.6468 45.2014-50.9651 45.2014-48.1884L45.2014-17.7186C45.2014-14.9475 43.5136-13.266 40.8575-13.266L37.3262-13.266C34.4881-13.266 32.8003-14.9475 32.8003-17.7186ZM47.838-17.7186L47.838-39.9851C47.838-42.7617 49.4742-44.4541 52.2961-44.4541L58.3112-44.4541C61.0293-44.4541 62.7009-42.7617 62.7009-39.9851L62.7009-17.7186C62.7009-14.9475 61.0293-13.266 58.3112-13.266L52.2961-13.266C49.4742-13.266 47.838-14.9475 47.838-17.7186ZM51.7507-20.3816C51.7507-19.3825 52.4888-18.576 53.5392-18.576L57.1816-18.576C58.1808-18.576 58.9244-19.3825 58.9244-20.3816C58.9244-21.484 58.1808-22.233 57.1816-22.233L53.5392-22.233C52.5462-22.233 51.7507-21.4837 51.7507-20.3816ZM51.7507-37.3276C51.7507-36.3452 52.5462-35.5903 53.5392-35.5903L57.1816-35.5903C58.1808-35.5903 58.9244-36.3449 58.9244-37.3276C58.9244-38.3267 58.4092-39.179 57.1816-39.179L53.5392-39.179C52.4888-39.179 51.7507-38.3267 51.7507-37.3276ZM65.3542-17.7186L65.3542-54.2906C65.3542-57.1243 66.974-58.7487 69.812-58.7487L73.1748-58.7487C76.0074-58.7487 77.6381-57.1243 77.6381-54.2906L77.6381-51.5462L81.5788-52.3735C84.3436-52.9238 86.327-51.5954 86.815-48.8245L92.2445-18.942C92.727-16.1709 91.5171-14.1831 88.8094-13.6948L86.5903-13.2657C83.9397-12.7722 81.8934-14.1015 81.4109-16.753L77.6381-37.1622L77.6381-17.7186C77.6381-14.9475 76.0074-13.266 73.1748-13.266L69.812-13.266C66.974-13.266 65.3542-14.9475 65.3542-17.7186Z"/>
</svg>