<svg xmlns="http://www.w3.org/2000/svg" viewBox="12.4609 -115.401 144.37 160.23">
  <path d="M151.471 21.8875L98.427 21.8875C95.3443 21.8875 93.0693 24.1217 93.0693 27.1417C93.0693 30.156 95.3443 32.3739 98.438 32.3739L151.46 32.3739C154.553 32.3739 156.828 30.156 156.828 27.1417C156.828 24.1217 154.553 21.8875 151.471 21.8875ZM80.8511-59.9796L90.237-75.5374L106.32-60.8988C108.62-58.7806 111.078-60.6403 109.504-63.5481L100.172-81.0921L108.147-83.3608C111.054-84.3174 111.002-86.8543 108.272-87.941L98.6907-91.5138L105.926-111.055C106.853-113.678 104.425-115.401 102.429-113.161L93.1418-102.503L90.79-108.447C89.5893-111.52 87.1139-110.721 86.3341-108.203L84.6261-101.573L71.3493-110.596C68.5782-112.467 66.6392-110.841 68.0274-107.768L74.6971-92.7558L63.3592-91.7427C60.555-91.4413 59.9632-88.75 62.984-87.2885L72.047-82.8166L60.5587-74.1433C58.2389-72.3747 59.2117-69.895 62.3624-70.3893L76.3651-72.5242L76.7908-61.1171C76.8589-58.1436 79.441-57.5342 80.8511-59.9796ZM112.233 38.6508L112.233 15.6567C112.233 11.4199 108.273 9.47403 104.685 11.6066L85.658 22.8827C82.3144 24.8382 82.2521 29.4743 85.658 31.4811L104.685 42.7523C108.217 44.8333 112.233 42.9499 112.233 38.6508ZM153.519-51.0314L153.519-67.0825C152.071-66.3016 150.623-65.4581 149.163-64.5252L131.002-53.0248L111.293-50.7152C96.7998-49.042 87.8221-39.527 87.8221-26.7908L87.8221-21.198C87.8221-9.35441 94.144-2.85079 105.614-2.85079L114.711-2.85079L114.711-16.402L105.614-16.402C102.905-16.402 101.43-18.2405 101.43-21.5735L101.43-26.7908C101.43-32.5764 105.077-36.2871 113.035-37.2321L131.391-39.4643C134.297-39.8327 136.868-40.6339 139.195-42.104L152.449-50.3923C152.807-50.6107 153.16-50.8237 153.519-51.0314ZM153.462-2.85079L153.462-16.402L139.245-16.402L139.245-2.85079ZM127.376 7.2026C138.308 7.2026 146.907-1.39143 146.907-12.329C146.907-23.261 138.308-31.8551 127.376-31.8551C116.381-31.8551 107.792-23.261 107.792-12.329C107.792-1.39143 116.381 7.2026 127.376 7.2026ZM127.376-5.79054C123.668-5.79054 120.78-8.67334 120.78-12.329C120.78-15.9846 123.668-18.919 127.376-18.919C131.031-18.919 133.919-15.9846 133.919-12.329C133.919-8.67334 131.031-5.79054 127.376-5.79054ZM37.3449 7.2026C48.3343 7.2026 56.9281-1.39143 56.9281-12.329C56.9281-23.261 48.3343-31.8551 37.3449-31.8551C26.4076-31.8551 17.8081-23.261 17.8081-12.329C17.8081-1.39143 26.4076 7.2026 37.3449 7.2026ZM37.3449-5.79054C33.6895-5.79054 30.8012-8.67334 30.8012-12.329C30.8012-15.9846 33.6895-18.919 37.3449-18.919C41.0524-18.919 43.9349-15.9846 43.9349-12.329C43.9349-8.67334 41.0524-5.79054 37.3449-5.79054ZM12.4609-16.402L12.4609-2.85079L24.2169-2.85079L24.2169-16.402ZM50.0052-2.85079L59.1012-2.85079C70.582-2.85079 76.8932-9.47409 76.8932-21.5735L76.8932-34.2936C76.8932-44.2584 71.5138-50.314 61.6664-53.9136L55.0317-56.3278C46.2338-63.9635 32.1834-73.994 14.2378-73.994L12.4609-73.994L12.4609-60.3805L14.2378-60.3805C25.2701-60.3805 33.906-56.3199 45.581-46.1819C48.0555-43.968 49.8131-43.1771 53.0919-42.1313L57.6229-40.6945C61.2659-39.544 63.2849-36.8773 63.2849-33.2659L63.2849-21.5735C63.2849-18.2405 61.8101-16.402 59.1012-16.402L50.0052-16.402Z" />
</svg>