<svg xmlns="http://www.w3.org/2000/svg" viewBox="12.4609 -96.3295 125.19 122.14">
  <path d="M23.17 8.72326L128.49 8.72326L128.49 3.27316C128.49 0.337108 126.664-1.43259 123.779-1.43259L122.263-1.43259L122.263-55.0346L126.035-55.0346C130.468-55.0346 133.081-58.3704 133.081-61.6482C133.081-64.0789 131.737-66.3155 128.938-67.9655L83.5525-94.1207C81.2139-95.4772 78.4023-96.3295 75.8301-96.3295C73.2525-96.3295 70.4412-95.4772 68.1026-94.1207L22.7172-67.9655C19.9119-66.3155 18.5742-64.0789 18.5742-61.6482C18.5742-58.3704 21.1872-55.0346 25.6201-55.0346L29.3975-55.0346L29.3975-1.43259L27.8809-1.43259C24.9965-1.43259 23.17 0.337108 23.17 3.27316ZM40.9193-1.43259L40.9193-62.8608L75.0685-81.9129C75.3363-82.052 75.6145-82.1242 75.8301-82.1242C76.0974-82.1242 76.3187-82.052 76.5865-81.9129L110.746-62.8608L110.746-1.43259ZM19.1315 25.8082L130.925 25.8082C134.505 25.8082 137.652 22.8889 137.652 19.1321C137.652 15.4953 134.505 12.4615 130.925 12.4615L19.1315 12.4615C15.5518 12.4615 12.4609 15.4953 12.4609 19.1321C12.4609 22.8318 15.5518 25.8082 19.1315 25.8082ZM76.3179-16.3036C83.2274-16.3036 90.5864-19.3724 93.133-25.7503C93.4448-26.7264 93.7404-27.8746 93.7404-28.8561C93.7404-31.981 91.5313-33.8988 88.4061-33.8988C85.92-33.8988 84.5377-32.7336 83.5182-30.4301C81.907-27.1766 79.7025-25.3518 76.0324-25.3518C69.8625-25.3518 67.9912-31.2137 67.9912-36.8362C67.9912-42.699 70.1754-48.2597 76.0269-48.2597C79.6803-48.2597 81.9363-46.1996 83.3719-43.3487C84.5111-40.9822 85.9459-39.8851 88.5511-39.8851C91.4934-39.8851 93.4799-41.7975 93.4799-44.7508C93.4799-46.1205 92.9908-47.7417 92.2738-48.9055C89.0607-54.9949 82.475-57.3076 75.9127-57.3076C63.4634-57.3076 56.2872-49.3859 56.2872-36.7791C56.2872-24.3652 63.0259-16.3036 76.3179-16.3036ZM75.773-11.3825C76.4864-11.3825 77.0074-11.9037 77.0074-12.6226L77.0074-61.0422C77.0074-61.7614 76.4864-62.2878 75.773-62.2878C75.0542-62.2878 74.5848-61.7614 74.5848-61.0422L74.5848-12.6226C74.5848-11.9037 75.0542-11.3825 75.773-11.3825Z"/>
</svg>