<svg xmlns="http://www.w3.org/2000/svg" viewBox="12.4609 -86.9515 103.16 103.38">
  <path d="M94.1234 3.02374C90.4051 3.02374 87.4203 6.00856 87.4203 9.72712C87.4203 13.4454 90.4051 16.4302 94.1234 16.4302C97.842 16.4302 100.827 13.4454 100.827 9.72712C100.827 6.00856 97.842 3.02374 94.1234 3.02374ZM79.3268 3.02374C75.6082 3.02374 72.6234 6.00856 72.6234 9.72712C72.6234 13.4454 75.6082 16.4302 79.3268 16.4302C83.045 16.4302 86.0301 13.4454 86.0301 9.72712C86.0301 6.00856 83.045 3.02374 79.3268 3.02374ZM64.5298 3.02374C60.8113 3.02374 57.8265 6.00856 57.8265 9.72712C57.8265 13.4454 60.8113 16.4302 64.5298 16.4302C68.2481 16.4302 71.2332 13.4454 71.2332 9.72712C71.2332 6.00856 68.2481 3.02374 64.5298 3.02374ZM49.7329 3.02374C46.0146 3.02374 43.0295 6.00856 43.0295 9.72712C43.0295 13.4454 46.0146 16.4302 49.7329 16.4302C53.4515 16.4302 56.4363 13.4454 56.4363 9.72712C56.4363 6.00856 53.4515 3.02374 49.7329 3.02374ZM108.92-56.164C105.202-56.164 102.217-53.1789 102.217-49.4606C102.217-45.7421 105.202-42.7572 108.92-42.7572C112.639-42.7572 115.624-45.7421 115.624-49.4606C115.624-53.1789 112.639-56.164 108.92-56.164ZM108.92-41.3671C105.202-41.3671 102.217-38.3819 102.217-34.6637C102.217-30.9451 105.202-27.9603 108.92-27.9603C112.639-27.9603 115.624-30.9451 115.624-34.6637C115.624-38.3819 112.639-41.3671 108.92-41.3671ZM108.92-26.5701C105.202-26.5701 102.217-23.5853 102.217-19.8667C102.217-16.1485 105.202-13.1634 108.92-13.1634C112.639-13.1634 115.624-16.1485 115.624-19.8667C115.624-23.5853 112.639-26.5701 108.92-26.5701ZM108.92-11.7732C105.202-11.7732 102.217-8.78837 102.217-5.06981C102.217-1.35154 105.202 1.63357 108.92 1.63357C112.639 1.63357 115.624-1.35154 115.624-5.06981C115.624-8.78837 112.639-11.7732 108.92-11.7732ZM108.92 3.02374C105.202 3.02374 102.217 6.00856 102.217 9.72712C102.217 13.4454 105.202 16.4302 108.92 16.4302C112.639 16.4302 115.624 13.4454 115.624 9.72712C115.624 6.00856 112.639 3.02374 108.92 3.02374ZM63.5548-27.7641C59.8366-27.7641 56.8514-24.7792 56.8514-21.0607C56.8514-17.3424 59.8366-14.3573 63.5548-14.3573C67.2734-14.3573 70.2582-17.3424 70.2582-21.0607C70.2582-24.7792 67.2734-27.7641 63.5548-27.7641ZM48.7579-27.7641C45.0396-27.7641 42.0548-24.7792 42.0548-21.0607C42.0548-17.3424 45.0396-14.3573 48.7579-14.3573C52.4765-14.3573 55.4613-17.3424 55.4613-21.0607C55.4613-24.7792 52.4765-27.7641 48.7579-27.7641ZM33.9612-27.7641C30.2427-27.7641 27.2579-24.7792 27.2579-21.0607C27.2579-17.3424 30.2427-14.3573 33.9612-14.3573C37.6795-14.3573 40.6646-17.3424 40.6646-21.0607C40.6646-24.7792 37.6795-27.7641 33.9612-27.7641ZM19.1643-27.7641C15.4458-27.7641 12.4609-24.7792 12.4609-21.0607C12.4609-17.3424 15.4458-14.3573 19.1643-14.3573C22.8826-14.3573 25.8677-17.3424 25.8677-21.0607C25.8677-24.7792 22.8826-27.7641 19.1643-27.7641ZM78.3518-86.9515C74.6335-86.9515 71.6484-83.9667 71.6484-80.2484C71.6484-76.5299 74.6335-73.545 78.3518-73.545C82.0703-73.545 85.0551-76.5299 85.0551-80.2484C85.0551-83.9667 82.0703-86.9515 78.3518-86.9515ZM78.3518-72.1549C74.6335-72.1549 71.6484-69.1697 71.6484-65.4515C71.6484-61.7329 74.6335-58.7481 78.3518-58.7481C82.0703-58.7481 85.0551-61.7329 85.0551-65.4515C85.0551-69.1697 82.0703-72.1549 78.3518-72.1549ZM78.3518-57.3579C74.6335-57.3579 71.6484-54.3728 71.6484-50.6545C71.6484-46.936 74.6335-43.9512 78.3518-43.9512C82.0703-43.9512 85.0551-46.936 85.0551-50.6545C85.0551-54.3728 82.0703-57.3579 78.3518-57.3579ZM78.3518-42.561C74.6335-42.561 71.6484-39.5762 71.6484-35.8576C71.6484-32.1393 74.6335-29.1542 78.3518-29.1542C82.0703-29.1542 85.0551-32.1393 85.0551-35.8576C85.0551-39.5762 82.0703-42.561 78.3518-42.561ZM78.3518-27.7641C74.6335-27.7641 71.6484-24.7792 71.6484-21.0607C71.6484-17.3424 74.6335-14.3573 78.3518-14.3573C82.0703-14.3573 85.0551-17.3424 85.0551-21.0607C85.0551-24.7792 82.0703-27.7641 78.3518-27.7641Z"/>
</svg>