<svg xmlns="http://www.w3.org/2000/svg" viewBox="8.72266 -88.5802 106.64 106.64">
  <path d="M106.281-35.2035C106.281-60.7561 87.6003-79.4421 62.0477-79.4421L62.0477 9.03499C87.6003 9.03499 106.281-9.65095 106.281-35.2035ZM67.9654-73.9147L67.9654-82.4202L50.0922-82.4202L50.0922-73.9147ZM67.9654-63.2127L67.9654-71.6137L31.3473-71.6137L31.3473-63.2127ZM67.9654-52.5163L67.9654-60.8547L22.7834-60.8547L22.7834-52.5163ZM67.9654-41.7573L67.9654-50.2153L22.3117-50.2153L22.3117-41.7573ZM67.9654-31.1696L67.9654-39.5134L22.3117-39.5134L22.3117-31.1696ZM67.9654-20.4103L67.9654-28.8115L22.3117-28.8115L22.3117-20.4103ZM67.9654-9.70838L67.9654-18.1096L22.7834-18.1096L22.7834-9.70838ZM67.9654 1.09238L67.9654-7.41317L31.3473-7.41317L31.3473 1.09238ZM67.9654 11.8989L67.9654 3.45046L50.0922 3.45046L50.0922 11.8989ZM62.0422 18.0589C91.4936 18.0589 115.367-5.80932 115.367-35.2606C115.367-64.712 91.4936-88.5802 62.0422-88.5802C32.5964-88.5802 8.72266-64.712 8.72266-35.2606C8.72266-5.80932 32.5964 18.0589 62.0422 18.0589ZM62.0422 0.677054C42.1819 0.677054 26.1103-15.4003 26.1103-35.2606C26.1103-55.1209 42.1819-71.1983 62.0422-71.1983C81.9025-71.1983 97.9799-55.1209 97.9799-35.2606C97.9799-15.4003 81.9025 0.677054 62.0422 0.677054Z"/>
</svg>