<svg xmlns="http://www.w3.org/2000/svg" viewBox="12.4609 -83.5996 117.93 96.8">
  <path d="M71.4349-9.07055C85.8496-9.07055 97.563-20.7842 97.563-35.1986C97.563-49.6133 85.8496-61.3267 71.4349-61.3267C57.026-61.3267 45.3123-49.6133 45.3123-35.1986C45.3123-20.7842 57.026-9.07055 71.4349-9.07055ZM71.4349-19.1638C62.5577-19.1638 55.4056-26.3214 55.4056-35.1986C55.4056-44.0759 62.5577-51.2334 71.4349-51.2334C80.3179-51.2334 87.4697-44.0759 87.4697-35.1986C87.4697-26.3214 80.3179-19.1638 71.4349-19.1638ZM24.3018-31.5658L69.7766-77.0405L51.7338-77.0405L24.3018-49.6085ZM64.838-56.4407L82.8237-56.4407L105.135-78.7518L87.1519-78.7546ZM23.7298 2.59056L48.9515-22.5685L48.9515-40.5484L23.7311-15.3338ZM92.6188-28.8522L117.609-53.842L117.606-71.6995L92.6188-46.7072ZM57.4003 6.36091L77.8454-14.0842L59.9278-14.0842L39.4171 6.36391ZM74.7756 4.65226L92.8239 4.65226L117.034-19.5633L117.034-37.6061ZM31.6184 13.2035L111.233 13.2035C123.325 13.2035 130.39 6.13945 130.39-5.93747L130.39-64.4586C130.39-76.5356 123.325-83.5996 111.233-83.5996L31.6184-83.5996C19.5311-83.5996 12.4609-76.535 12.4609-64.4586L12.4609-5.93747C12.4609 6.13889 19.5311 13.2035 31.6184 13.2035ZM34.2553-4.13991C31.2643-4.13991 29.7989-5.36596 29.7989-8.60178L29.7989-61.7943C29.7989-65.0356 31.2643-66.2562 34.2553-66.2562L108.596-66.2562C111.588-66.2562 113.052-65.0356 113.052-61.7943L113.052-8.60178C113.052-5.36596 111.588-4.13991 108.596-4.13991Z"/>
</svg>