<svg xmlns="http://www.w3.org/2000/svg" viewBox="4.41324 -110.686 154.05 150.86">
  <path d="M26.2586-1.30333L86.4947-1.30333C100.862-1.30333 111.655-12.5335 111.655-27.4576C111.655-43.1695 100.047-54.602 84.0203-54.4991C79.1571-63.5546 69.7815-72.4222 53.4379-72.4222C35.5308-72.4222 20.9103-59.2865 19.5223-41.841C10.3874-39.5132 4.41324-31.7228 4.41324-21.9693C4.41324-9.66198 13.286-1.30333 26.2586-1.30333ZM120.279-36.7285C126.509-41.0885 130.735-48.7294 130.735-57.3067C130.735-71.4073 119.257-82.8281 105.156-82.8281C95.8852-82.8281 87.7219-77.8997 83.7025-71.1867C85.993-68.9605 87.9662-66.3187 89.582-63.1601C104.442-62.4215 117.215-51.5701 120.279-36.7285ZM73.0615-80.7746C75.4513-78.3848 79.3144-78.3332 81.6303-80.6604C83.952-82.9818 83.8433-86.7823 81.5161-89.2179L75.8662-95.0391C73.6022-97.4231 69.5785-97.3663 67.2516-95.0391C64.9244-92.7122 65.0389-88.8543 67.3658-86.5332ZM105.041-90.3539C108.352-90.3539 111.043-93.1645 111.043-96.4705L111.043-104.569C111.043-107.932 108.352-110.686 105.041-110.686C101.736-110.686 99.0389-107.932 99.0389-104.569L99.0389-96.4705C99.0389-93.1645 101.736-90.3539 105.041-90.3539ZM128.509-80.6033C130.831-78.2761 134.751-78.3848 137.083-80.7175L142.836-86.419C145.22-88.7401 145.22-92.6551 142.893-94.982C140.566-97.3092 136.714-97.2518 134.33-94.8678L128.566-89.2179C126.187-86.8965 126.193-82.9247 128.509-80.6033ZM144.2-51.304L152.356-51.304C155.718-51.304 158.467-53.9383 158.467-57.2496C158.467-60.5552 155.718-63.3092 152.356-63.3092L144.2-63.3092C140.9-63.3092 138.083-60.5552 138.083-57.2496C138.083-53.9383 140.9-51.304 144.2-51.304ZM134.273-19.5634C136.657-17.1796 140.509-17.1278 142.836-19.4547C145.163-21.7819 145.049-25.5823 142.722-28.018L137.072-33.8337C134.802-36.2122 130.779-36.1551 128.452-33.8337C126.13-31.5065 126.245-27.6489 128.566-25.322ZM29.5134 23.5919L35.5484 13.1966C36.7189 11.1678 36.2135 8.55103 34.0749 7.32266C31.9308 6.09978 29.5995 6.88511 28.3146 9.08545L22.2799 19.486C21.1146 21.5041 21.5577 24.0693 23.7015 25.2919C25.8401 26.5147 28.3537 25.6097 29.5134 23.5919ZM45.0053 37.2422L51.0349 26.8523C52.2053 24.8235 51.6999 22.2013 49.5613 20.9784C47.4172 19.7555 45.086 20.5408 43.8065 22.7412L37.7663 33.1417C36.6011 35.1598 37.0441 37.725 39.1879 38.9476C41.3265 40.1705 43.8401 39.2654 45.0053 37.2422ZM68.386 23.5865L74.4211 13.1911C75.5915 11.1678 75.0862 8.54554 72.9476 7.31717C70.8035 6.09429 68.4722 6.87962 67.1873 9.07996L61.1525 19.4805C59.9873 21.4986 60.4303 24.0638 62.5741 25.2864C64.7127 26.5093 67.2263 25.6042 68.386 23.5865ZM83.8779 37.2422L89.9075 26.8468C91.0779 24.818 90.5726 22.2013 88.434 20.9729C86.2899 19.75 83.9583 20.5353 82.6792 22.7357L76.6389 33.1363C75.4737 35.1543 75.9167 37.7195 78.0605 38.9421C80.1991 40.165 82.7127 39.2599 83.8779 37.2422Z"/>
</svg>