<svg xmlns="http://www.w3.org/2000/svg" viewBox="8.72266 -88.5802 106.64 106.64">
  <path d="M62.0422 18.0589C91.4936 18.0589 115.367-5.80932 115.367-35.2606C115.367-64.712 91.4936-88.5802 62.0422-88.5802C32.5964-88.5802 8.72266-64.712 8.72266-35.2606C8.72266-5.80932 32.5964 18.0589 62.0422 18.0589ZM62.0422 0.677054C42.1819 0.677054 26.1103-15.4003 26.1103-35.2606C26.1103-55.1209 42.1819-71.1983 62.0422-71.1983C81.9025-71.1983 97.9799-55.1209 97.9799-35.2606C97.9799-15.4003 81.9025 0.677054 62.0422 0.677054ZM48.8334-11.8573C54.4143-11.8573 59.0445-16.5445 59.0445-22.0683L59.0445-48.453C59.0445-53.9768 54.4143-58.664 48.8334-58.664C43.0812-58.664 38.5708-54.0339 38.5708-48.453C38.5708-42.7527 43.1438-38.2016 48.7763-38.2016L75.2972-38.2016C80.9297-38.2016 85.5027-42.7527 85.5027-48.453C85.5027-54.0339 80.9922-58.664 75.2401-58.664C69.6592-58.664 65.029-53.9768 65.029-48.453L65.029-22.0683C65.029-16.5445 69.6592-11.8573 75.2401-11.8573C80.9922-11.8573 85.5027-16.4874 85.5027-22.0683C85.5027-27.7686 80.9297-32.3197 75.2972-32.3197L48.7763-32.3197C43.1438-32.3197 38.5708-27.7686 38.5708-22.0683C38.5708-16.4874 43.0812-11.8573 48.8334-11.8573ZM48.8334-19.3666C47.27-19.3666 46.0799-20.562 46.0799-22.1254C46.0799-23.6369 47.3216-24.9413 49.176-24.9413L74.9546-24.9413C76.7519-24.9413 77.9936-23.6369 77.9936-22.1254C77.9936-20.562 76.8035-19.3666 75.2401-19.3666C73.7337-19.3666 72.4242-20.6136 72.4242-22.4109L72.4242-48.1104C72.4242-49.9077 73.7337-51.1547 75.2401-51.1547C76.8035-51.1547 77.9936-49.9593 77.9936-48.3959C77.9936-46.8844 76.7519-45.58 74.9546-45.58L49.176-45.58C47.3216-45.58 46.0799-46.8844 46.0799-48.3959C46.0799-49.9593 47.27-51.1547 48.8334-51.1547C50.3397-51.1547 51.6493-49.9077 51.6493-48.1104L51.6493-22.4109C51.6493-20.6707 50.3397-19.3666 48.8334-19.3666Z" />
</svg>