<svg xmlns="http://www.w3.org/2000/svg" viewBox="12.4609 -96.5352 195.08 110.57">
  <path d="M56.253 14.0361C68.354 14.0361 77.8731 4.51709 77.8731-7.58399C77.8731-19.7424 68.354-29.2615 56.253-29.2615C44.0945-29.2615 34.5755-19.7424 34.5755-7.58399C34.5755 4.51709 44.0945 14.0361 56.253 14.0361ZM56.253-0.340488C52.1565-0.340488 48.9521-3.54494 48.9521-7.58399C48.9521-11.6804 52.1565-14.8846 56.253-14.8846C60.292-14.8846 63.4965-11.6804 63.4965-7.58399C63.4965-3.54494 60.292-0.340488 56.253-0.340488ZM66.1038 1.15526L150.931 1.15526L150.931-13.8988L66.1038-13.8988ZM163.745 14.0361C175.847 14.0361 185.365 4.51709 185.365-7.58399C185.365-19.7424 175.847-29.2615 163.745-29.2615C151.587-29.2615 142.068-19.7424 142.068-7.58399C142.068 4.51709 151.587 14.0361 163.745 14.0361ZM163.745-0.340488C159.649-0.340488 156.445-3.54494 156.445-7.58399C156.445-11.6804 159.649-14.8846 163.745-14.8846C167.784-14.8846 170.989-11.6804 170.989-7.58399C170.989-3.54494 167.784-0.340488 163.745-0.340488ZM26.8446 2.08519L43.1214 3.79185L44.4011-11.2051L30.4044-12.7869C28.6611-12.9892 27.5721-14.1866 27.5721-15.8925L27.5721-23.1809C27.5721-29.8614 31.8001-33.7546 42.5343-35.7516L74.0796-41.6677L90.5557-42.4566C89.4376-44.566 88.8557-47.0403 88.8557-49.9252L88.8557-67.1913L73.8206-56.7781L40.2629-50.5675C22.1125-47.2274 12.4609-38.134 12.4609-23.1809L12.4609-14.0679C12.4609-4.19864 17.0912 1.0405 26.8446 2.08519ZM177.718 0.136423L189.943-1.07785C201.712-2.23968 207.537-8.86487 207.537-20.959L207.537-32.6867C207.537-46.6721 202.045-52.7381 189.121-55.0344L159.817-60.2882C156.674-60.8619 153.096-61.0494 150.141-60.919L142.624-60.5099L142.624-50.0067C142.624-48.1607 142.39-46.6625 142.037-45.3929L151.815-45.9327L186.582-39.7244C190.651-39.0052 192.426-37.371 192.426-32.6867L192.426-20.959C192.426-17.8438 190.991-16.1497 188.183-15.8874L177.718-14.918ZM103.225-43.2798L128.306-43.2798C132.438-43.2798 134.576-45.3652 134.576-49.9232L134.576-69.7908C134.576-74.2859 132.438-76.4287 128.306-76.4287L103.225-76.4287C99.0359-76.4287 96.8988-74.2859 96.8988-69.7908L96.8988-49.9232C96.8988-45.3652 99.0359-43.2798 103.225-43.2798ZM101.698-74.0758L109.689-74.0758L109.689-82.4722C109.689-86.1287 112.157-88.7217 115.737-88.7217C119.265-88.7217 121.791-86.1287 121.791-82.4722L121.791-74.0758L129.776-74.0758L129.776-82.384C129.776-90.7473 124.031-96.5352 115.737-96.5352C107.449-96.5352 101.698-90.7473 101.698-82.384Z"/>
</svg>