<svg xmlns="http://www.w3.org/2000/svg" viewBox="12.4609 -79.9684 119.07 89.43">
  <path d="M34.5453-7.77247C31.6792-7.77247 29.7478-9.70392 29.7478-12.4453L29.7478-21.4792C29.7478-24.2206 31.6792-26.1521 34.5453-26.1521L46.5078-26.1521C49.3738-26.1521 51.3052-24.2206 51.3052-21.4792L51.3052-12.4453C51.3052-9.70392 49.3738-7.77247 46.5078-7.77247ZM12.4609-44.0754L12.4609-57.0062L131.535-57.0062L131.535-44.0754ZM31.6184 9.457L112.378 9.457C124.47 9.457 131.535 2.39842 131.535-9.6785L131.535-60.8329C131.535-72.9099 124.47-79.9684 112.378-79.9684L31.6184-79.9684C19.5311-79.9684 12.4609-72.9093 12.4609-60.8329L12.4609-9.6785C12.4609 2.39786 19.5311 9.457 31.6184 9.457Z"/>
</svg>