<svg xmlns="http://www.w3.org/2000/svg" viewBox="12.4609 -96.5641 122.49 122.49">
  <path d="M12.4609-24.8561C12.4609-12.8176 19.4677-5.80533 31.4956-5.80533L44.1951-5.80533L44.1951 6.89974C44.1951 18.9221 51.2074 25.9289 63.246 25.9289L84.2202 25.9289C96.2642 25.9289 103.276 18.9221 103.276 6.89974L103.276-5.80533L115.919-5.80533C127.942-5.80533 134.954-12.8176 134.954-24.8561L134.954-45.8304C134.954-57.8689 127.942-64.8867 115.919-64.8867L103.276-64.8867L103.276-77.5349C103.276-89.5573 96.2642-96.5641 84.2202-96.5641L63.246-96.5641C51.2074-96.5641 44.1951-89.5573 44.1951-77.5349L44.1951-64.8867L31.4956-64.8867C19.4677-64.8867 12.4609-57.8689 12.4609-45.8304ZM31.3405-29.5485L31.3405-41.1381C31.3405-44.0854 32.5199-45.4878 35.7015-45.4878L63.5886-45.4878L63.5886-73.3235C63.5886-76.5051 64.9909-77.6845 67.9383-77.6845L79.5279-77.6845C82.481-77.6845 83.8831-76.5051 83.8831-73.3235L83.8831-45.4878L111.708-45.4878C114.895-45.4878 116.074-44.0854 116.074-41.1381L116.074-29.5485C116.074-26.6011 114.895-25.1987 111.708-25.1987L83.8831-25.1987L83.8831 2.68835C83.8831 5.86987 82.481 7.04933 79.5279 7.04933L67.9383 7.04933C64.9909 7.04933 63.5886 5.86987 63.5886 2.68835L63.5886-25.1987L35.7015-25.1987C32.5199-25.1987 31.3405-26.6011 31.3405-29.5485Z"/>
</svg>