<svg xmlns="http://www.w3.org/2000/svg" viewBox="12.4609 -95.7182 107.48 120.91">
  <path d="M57.8195-70.2453L74.5868-70.2453L74.5868-84.5983L57.8195-84.5983ZM57.8195-55.5613L74.5868-55.5613L74.5868-66.0895L57.8195-66.0895ZM26.8522-2.07282L39.1902-9.23577L30.779-23.7414L18.5274-16.6847ZM42.8147-11.2853L51.9-16.5538L43.4998-31.1166L34.4249-25.8535ZM92.645-9.23577L104.983-2.07282L113.302-16.6847L101.056-23.7414ZM79.9352-16.5538L89.0154-11.2853L97.4104-25.8535L88.3355-31.1166ZM55.5407-18.6549L65.9178-24.6836L76.2949-18.6549L84.6951-33.1609L74.5868-38.9721L74.5868-51.4054L57.8195-51.4054L57.8195-39.3147L47.1402-33.1609ZM20.3308 0.33768L58.2763 22.2643C63.2822 25.1964 69.1241 25.1964 74.1299 22.2643L112.076 0.33768C116.962-2.47444 119.945-7.59447 119.945-13.328L119.945-57.1933C119.945-62.9268 116.962-68.0468 112.076-70.859L74.1299-92.7861C69.1241-95.7182 63.2822-95.7182 58.2763-92.7861L20.3308-70.859C15.4443-68.0468 12.4609-62.9268 12.4609-57.1933L12.4609-13.328C12.4609-7.59447 15.4443-2.47444 20.3308 0.33768ZM57.8195 2.58853C57.337 2.28714 57.2245 2.23061 56.7878 1.98111L31.4803-12.651C30.0653-13.4884 29.2279-14.9083 29.2279-16.5727L29.2279-45.8335L57.8195-29.3081ZM65.9178-43.9908L36.6727-60.8875C36.9729-61.0722 37.0901-61.1267 37.3996-61.3125L63.9509-76.6664C65.3658-77.5038 67.0407-77.5038 68.4553-76.6664L95.0066-61.3125C95.3162-61.1267 95.3191-61.1293 95.4481-61.0588ZM74.5868 2.58853L74.5868-29.6506L103.178-46.1189L103.178-16.5727C103.178-14.9083 102.341-13.4884 100.921-12.651L76.5598 1.45077C75.8266 1.87705 75.3141 2.16197 74.5868 2.58853Z"/>
</svg>