<svg xmlns="http://www.w3.org/2000/svg" viewBox="12.4609 -83.6567 96.8 96.8">
  <path d="M31.6184 13.1464L90.1011 13.1464C102.194 13.1464 109.259 6.08236 109.259-5.99457L109.259-64.5157C109.259-76.5927 102.194-83.6567 90.1011-83.6567L31.6184-83.6567C19.5311-83.6567 12.4609-76.5921 12.4609-64.5157L12.4609-5.99457C12.4609 6.08179 19.5311 13.1464 31.6184 13.1464ZM34.2553-4.19701C31.2643-4.19701 29.7989-5.42306 29.7989-8.65888L29.7989-61.8514C29.7989-65.0927 31.2643-66.3133 34.2553-66.3133L87.4643-66.3133C90.4564-66.3133 91.9207-65.0927 91.9207-61.8514L91.9207-8.65888C91.9207-5.42306 90.4564-4.19701 87.4643-4.19701ZM60.8625-27.5002C65.06-27.4376 68.5664-30.9385 68.5664-35.2035C68.5664-39.4636 65.1171-42.9022 60.8625-42.9022C56.6082-42.9022 53.1586-39.4636 53.1586-35.2035C53.1586-30.9956 56.6082-27.5628 60.8625-27.5002Z"/>
</svg>