<svg xmlns="http://www.w3.org/2000/svg" viewBox="12.4609 -108.303 134.05 146.08">
  <path d="M20.6753-91.8932L138.354-91.8932C142.826-91.8932 146.512-95.6012 146.512-100.072C146.512-104.596 142.826-108.303 138.354-108.303L20.6753-108.303C16.1466-108.303 12.4609-104.596 12.4609-100.072C12.4609-95.6012 16.1466-91.8932 20.6753-91.8932ZM54.6578-40.4006L104.258-40.4006C113.28-40.4006 119.123-46.2385 119.123-55.1298L119.123-69.7452C119.123-78.5794 113.28-84.4173 104.258-84.4173L54.6578-84.4173C45.7497-84.4173 39.7925-78.5794 39.7925-69.7452L39.7925-55.1298C39.7925-46.2385 45.7497-40.4006 54.6578-40.4006ZM58.5508-56.8327C57.1944-56.8327 56.2246-57.7455 56.2246-59.227L56.2246-65.5909C56.2246-67.0724 57.1944-67.9852 58.5508-67.9852L100.308-67.9852C101.835-67.9852 102.691-67.0724 102.691-65.5909L102.691-59.227C102.691-57.7455 101.835-56.8327 100.308-56.8327ZM20.6753-13.7105L138.354-13.7105C142.826-13.7105 146.512-17.4182 146.512-21.8843C146.512-26.4127 142.826-30.1206 138.354-30.1206L20.6753-30.1206C16.1466-30.1206 12.4609-26.4127 12.4609-21.8843C12.4609-17.4182 16.1466-13.7105 20.6753-13.7105ZM38.9572 37.782L120.015 37.782C128.981 37.782 134.881 31.9445 134.881 23.0529L134.881 8.43748C134.881-0.396738 128.981-6.23459 120.015-6.23459L38.9572-6.23459C29.9866-6.23459 24.0919-0.396738 24.0919 8.43748L24.0919 23.0529C24.0919 31.9445 29.9866 37.782 38.9572 37.782ZM42.8502 21.35C41.4368 21.35 40.524 20.4372 40.524 18.9557L40.524 12.5918C40.524 11.1103 41.4368 10.1975 42.8502 10.1975L116.065 10.1975C117.536 10.1975 118.449 11.1103 118.449 12.5918L118.449 18.9557C118.449 20.4372 117.536 21.35 116.065 21.35Z" />
</svg>