<svg xmlns="http://www.w3.org/2000/svg" viewBox="12.4609 -100.395 109.37 130.37">
  <path d="M38.7634-81.4648L48.1302-81.4648C59.042-81.4648 64.9993-78.8025 70.2395-73.5568L97.8958-45.9055C102.508-41.2882 104.709-33.7667 104.709-23.9048L104.709 1.85648L104.741 1.85648C111.336 1.85648 121.826-3.32948 121.826-17.301L121.826-81.2375C121.826-93.3249 114.762-100.395 102.685-100.395L57.5564-100.395C45.9933-100.395 38.7634-93.1591 38.7634-81.7514ZM66.2492-83.6544L66.2492-85.006C66.2492-86.452 67.5953-89.0915 70.3556-89.0915L90.2911-89.0915C93.0517-89.0915 94.3977-86.452 94.3977-85.006L94.3977-83.6544C94.3977-81.5233 92.5378-79.569 90.2911-79.569L70.3556-79.569C68.0521-79.569 66.2492-81.5233 66.2492-83.6544ZM12.4609 10.8195C12.4609 22.9123 19.5201 29.9769 31.5964 29.9769L76.3827 29.9769C88.459 29.9769 95.5237 22.9065 95.5237 10.8195L95.5237-24.0338L57.9267-24.0338C51.8841-24.0338 48.371-27.5521 48.371-33.5948L48.371-72.2746L31.5964-72.2746C19.5195-72.2746 12.4609-65.2044 12.4609-53.1171ZM60.768-33.224L94.4876-33.2811C93.7533-36.0906 91.8829-39.0033 89.3831-41.5089L65.3267-65.6202C62.7695-68.1774 60.4796-69.9723 57.5557-70.9344L57.5557-36.6076C57.5557-34.4891 58.7636-33.224 60.768-33.224Z"/>
</svg>