<svg xmlns="http://www.w3.org/2000/svg" viewBox="8.72266 -104.831 90.69 139.14">
  <path d="M54.1318-25.6057C75.791-25.6057 93.7469-43.5564 93.7469-65.2153C93.7469-86.8802 75.6716-104.831 54.0695-104.831C32.4106-104.831 14.5167-86.8231 14.5167-65.2153C14.5167-43.5564 32.4729-25.6057 54.1318-25.6057ZM54.1318-39.7265C39.5056-39.7265 28.7001-50.5891 28.7001-65.2153C28.7001-79.8418 39.5059-90.7099 54.0695-90.7099C68.696-90.7099 79.6261-79.842 79.6261-65.2153C79.6261-50.5891 68.7583-39.7265 54.1318-39.7265ZM43.4362-66.1769C47.6943-66.1769 51.1947-69.6775 51.1947-73.9356C51.1947-78.1937 47.6943-81.694 43.4362-81.694C39.1781-81.694 35.6778-78.1937 35.6778-73.9356C35.6778-69.6775 39.1781-66.1769 43.4362-66.1769ZM64.817-66.1769C69.0751-66.1769 72.5754-69.6775 72.5754-73.9356C72.5754-78.1937 69.0751-81.694 64.817-81.694C60.5589-81.694 57.0585-78.1937 57.0585-73.9356C57.0585-69.6775 60.5589-66.1769 64.817-66.1769ZM39.7078-52.5016C42.7659-52.5016 45.3152-55.0509 45.3152-58.109C45.3152-61.1672 42.7659-63.7164 39.7078-63.7164C36.6496-63.7164 34.1003-61.1672 34.1003-58.109C34.1003-55.0509 36.6496-52.5016 39.7078-52.5016ZM68.5457-52.5016C71.6039-52.5016 74.1531-55.0509 74.1531-58.109C74.1531-61.1672 71.6039-63.7164 68.5457-63.7164C65.4876-63.7164 62.9383-61.1672 62.9383-58.109C62.9383-55.0509 65.4876-52.5016 68.5457-52.5016ZM54.1266-42.6016C58.3847-42.6016 61.885-46.1019 61.885-50.36C61.885-54.6127 58.3847-58.113 54.1266-58.113C49.8685-58.113 46.3681-54.6127 46.3681-50.36C46.3681-46.1019 49.8685-42.6016 54.1266-42.6016ZM37.3077 34.3094L70.8313 34.3094C86.8201 34.3094 99.4163 21.4107 99.4163 5.59771C99.4163-10.2097 86.8201-23.1139 70.8313-23.1139L37.3077-23.1139C21.3191-23.1139 8.72266-10.2097 8.72266 5.59771C8.72266 21.4107 21.3191 34.3094 37.3077 34.3094ZM37.3077 20.1886C28.7254 20.1886 22.7182 14.1809 22.7182 5.59771C22.7182-2.9855 28.7254-8.99318 37.3077-8.99318L70.8313-8.99318C79.4139-8.99318 85.4207-2.9855 85.4207 5.59771C85.4207 14.1809 79.4139 20.1886 70.8313 20.1886ZM37.3091 17.3119C43.7371 17.3119 49.0234 12.0257 49.0234 5.59771C49.0234-0.830283 43.7371-6.11104 37.3091-6.11104C30.8811-6.11104 25.5949-0.830283 25.5949 5.59771C25.5949 12.0257 30.8811 17.3119 37.3091 17.3119ZM70.8301 17.3119C77.2581 17.3119 82.5444 12.0257 82.5444 5.59771C82.5444-0.830283 77.2581-6.11104 70.8301-6.11104C64.4021-6.11104 59.1159-0.830283 59.1159 5.59771C59.1159 12.0257 64.4021 17.3119 70.8301 17.3119Z"/>
</svg>