<svg xmlns="http://www.w3.org/2000/svg" viewBox="12.4609 -88.1072 110.63 105.7">
  <path d="M52.3124 17.5914L83.236 17.5914C90.0906 17.5914 95.4939 14.9905 99.6277 10.1508L117.882-11.2039C122.049-16.0883 123.093-19.0917 123.093-25.5568L123.093-44.959C123.093-51.4241 121.192-53.7423 116.74-59.3119L99.6277-80.6666C95.6652-85.6205 90.0906-88.1072 83.236-88.1072L52.3124-88.1072C45.4633-88.1072 40.0545-85.5063 35.9262-80.6666L17.6668-59.3119C13.5053-54.4275 12.4609-51.4241 12.4609-44.959L12.4609-25.5568C12.4609-19.0917 13.5053-16.0883 17.6668-11.2039L35.9262 10.1508C40.0545 14.9905 45.4633 17.5914 52.3124 17.5914ZM67.8311-29.7483C63.4716-29.7483 60.8817-32.1144 60.5907-36.416L59.6698-52.0516C59.3788-56.8152 62.7085-59.9678 67.7686-59.9678C72.8289-59.9678 76.1641-56.8097 75.8731-52.0461L74.9522-36.5302C74.6609-32.1089 72.1284-29.7483 67.8311-29.7483ZM67.8311-10.7935C62.9968-10.7935 59.444-13.4044 59.444-17.9596C59.444-22.4572 62.9913-25.0741 67.8311-25.0741C72.6768-25.0741 76.1095-22.4056 76.1095-17.9596C76.1095-13.3989 72.6713-10.7935 67.8311-10.7935Z"/>
</svg>