<svg xmlns="http://www.w3.org/2000/svg" viewBox="12.4609 -81.9801 127.86 93.56">
  <path d="M12.4609-15.2447C12.4609 0.806226 23.3465 11.5828 39.638 11.5828L113.14 11.5828C129.431 11.5828 140.317 0.806226 140.317-15.2447C140.317-20.4761 138.909-25.0419 137.092-29.0213L119.222-67.7324C115.06-76.7673 107.552-81.9801 96.8898-81.9801L56.0075-81.9801C45.3399-81.9801 37.8316-76.7673 33.6702-67.7324L16.3142-30.049C14.3255-25.7267 12.4609-20.9329 12.4609-15.2447ZM28.086-15.2447C28.086-21.9608 32.6869-26.4475 39.638-26.4475L113.14-26.4475C120.091-26.4475 124.691-21.9608 124.691-15.2447C124.691-8.42984 120.091-4.04773 113.14-4.04773L39.638-4.04773C32.6869-4.04773 28.086-8.53446 28.086-15.2447ZM37.6532-41.9533L48.1265-64.8494C49.1891-67.2323 51.8705-68.7371 54.9801-68.7371L97.9169-68.7371C101.021-68.7371 103.703-67.2323 104.765-64.8494L115.239-41.953C114.546-41.9934 113.85-42.0726 113.14-42.0726L39.638-42.0726C38.9846-42.0726 38.2892-41.9934 37.6532-41.9533ZM104.56-15.2447C104.56-11.1262 107.885-7.87443 111.999-7.87443C116.045-7.87443 119.369-11.1308 119.369-15.2447C119.369-19.2398 115.988-22.6153 111.999-22.6153C107.942-22.6153 104.56-19.2398 104.56-15.2447Z"/>
</svg>