<svg xmlns="http://www.w3.org/2000/svg" viewBox="8.72266 -71.6947 184.84 72.93">
  <path d="M57.3385 1.236C77.4873 1.236 93.7725-15.0495 93.7725-35.2606C93.7725-55.4092 77.4873-71.6947 57.3385-71.6947C37.1274-71.6947 20.8424-55.4092 20.8424-35.2606C20.8424-15.0495 37.1274 1.236 57.3385 1.236ZM57.3385-16.7116C47.0607-16.7116 38.7897-24.9774 38.7897-35.2606C38.7897-45.4813 47.0607-53.7471 57.3385-53.7471C67.5537-53.7471 75.8249-45.4758 75.8249-35.2606C75.8249-24.9829 67.5537-16.7116 57.3385-16.7116ZM144.951 1.236C165.156 1.236 181.447-15.0495 181.447-35.2606C181.447-55.4092 165.156-71.6947 144.951-71.6947C124.796-71.6947 108.511-55.4092 108.511-35.2606C108.511-15.0495 124.796 1.236 144.951 1.236ZM144.951-16.7116C134.73-16.7116 126.459-24.9829 126.459-35.2606C126.459-45.4758 134.73-53.7471 144.951-53.7471C155.228-53.7471 163.494-45.4813 163.494-35.2606C163.494-24.9774 155.228-16.7116 144.951-16.7116ZM25.0949-45.9205L13.1117-45.9205C10.2101-45.9205 8.72266-44.4328 8.72266-41.5254L8.72266-32.4241C8.72266-29.4594 10.3243-27.8517 13.1117-27.8517L25.0949-27.8517ZM177.189-27.8517L189.172-27.8517C191.965-27.8517 193.561-29.4594 193.561-32.4241L193.561-41.5254C193.561-44.4328 192.079-45.9205 189.172-45.9205L177.189-45.9205ZM89.7022-28.9941C92.8153-31.4534 97.5492-32.264 101.145-32.264C104.734-32.264 109.468-31.4534 112.581-28.9941L112.581-45.1827C109.269-47.1188 104.742-47.9596 101.145-47.9596C97.547-47.9596 93.0198-47.1188 89.7022-45.1827Z"/>
</svg>