<svg xmlns="http://www.w3.org/2000/svg" viewBox="12.4609 -91.614 112.71 112.71">
  <path d="M93.2954-87.6597C79.0266-87.6597 70.2617-76.1753 66.7198-54.094L83.3646-37.5118L107.737-37.5118C118.747-37.5118 125.167-43.7502 125.167-54.4434C125.162-71.5854 109.74-87.6597 93.2954-87.6597ZM93.2954-73.215C101.682-73.215 110.728-63.757 110.728-54.9002C110.728-52.8402 109.835-51.9573 107.737-51.9573L81.0258-52.0144C83.2011-66.3953 86.9879-73.215 93.2954-73.215ZM44.3327 17.1324C58.6018 17.1324 67.3669 5.64739 70.9083-16.4241L54.2545-33.0156L29.8913-33.0156C18.8808-33.0156 12.4609-26.7772 12.4609-16.0839C12.4664 1.05807 27.8939 17.1324 44.3327 17.1324ZM44.3327 2.68768C35.9461 2.68768 26.9056-6.77036 26.9056-15.6272C26.9056-17.6871 27.7987-18.57 29.8913-18.57L56.6022-18.513C54.4273-4.12659 50.6402 2.68768 44.3327 2.68768ZM49.637-91.614C43.9868-91.614 38.5012-89.9276 33.6338-87.1225L44.4011-76.3553C45.9714-76.8771 47.6126-77.1693 49.1803-77.1693C51.2405-77.1693 52.1231-76.2763 52.1231-74.1836L52.1231-68.6332L66.5687-54.1877L66.5687-74.1836C66.5687-85.1942 60.3303-91.614 49.637-91.614ZM16.4207-59.7423C16.4207-44.4841 29.5978-35.4854 54.7966-32.4787L41.3639-45.8546C35.9556-50.7824 30.9796-55.6219 26.4119-60.7129C26.1835-60.9697 26.0138-61.1702 25.7893-61.4286L18.1187-69.0995C17.0525-66.0815 16.4207-62.94 16.4207-59.7423ZM121.213-10.7796C121.213-26.0375 108.025-35.0362 82.8219-38.0487L96.1978-24.673C101.621-19.7392 106.654-14.8999 111.222-9.80894C111.45-9.54698 111.625-9.34155 111.845-9.08339L119.515-1.41252C120.587-4.43573 121.213-7.58213 121.213-10.7796ZM87.9965 21.0922C93.6473 21.0867 99.1326 19.411 103.995 16.6056L93.2275 5.83836C91.6575 6.35494 90.0267 6.65296 88.4533 6.65296C86.3933 6.65296 85.5107 5.75992 85.5107 3.66178L85.5107-1.87907L71.0649-16.3246L71.0649 3.66178C71.0649 14.6723 77.3035 21.0922 87.9965 21.0922ZM113.125 15.3459C114.869 17.0335 117.734 17.0852 119.416 15.3405C121.098 13.5958 121.161 10.7937 119.416 9.0487L24.5044-85.8058C22.7591-87.5508 19.8945-87.5502 18.1501-85.8058C16.4679-84.1234 16.4679-81.1964 18.1501-79.514Z"/>
</svg>