<svg xmlns="http://www.w3.org/2000/svg" viewBox="11.9205 -91.273 178.25 112.21">
  <path d="M47.21-66.6197C53.9473-66.6197 59.6087-72.2454 59.6087-78.8587C59.6087-85.7667 53.9473-91.273 47.21-91.273C40.3533-91.273 34.9194-85.7667 34.9194-78.8587C34.9194-72.2482 40.3533-66.6197 47.21-66.6197ZM23.3829-21.2534L57.842-59.5908C54.732-60.5976 51.1891-61.2165 47.21-61.2165C31.3356-61.2165 21.8925-53.4974 21.8925-40.7139C21.8925-37.7372 22.0687-33.5402 22.5106-29.286ZM70.9166-21.2534L71.8523-29.286C72.3461-33.5402 72.5275-37.7372 72.5275-40.7139C72.5275-46.7737 70.419-51.666 66.5169-55.1249L40.2866-25.8683C42.5579-26.1265 44.887-26.1931 47.21-26.1931C54.9964-26.1931 62.8914-25.2012 70.9166-21.2534ZM34.3631 20.5648C38.0354 20.1281 40.4819 17.5005 39.9935 12.8513L37.879-6.68011L56.4155-6.68011L54.3685 12.8513C53.8747 17.5005 56.3217 20.1281 60.0508 20.5648C63.8422 20.9337 66.7195 18.7151 67.2079 14.14L69.8777-11.009C62.6581-15.1492 54.7521-16.754 47.21-16.754C39.5477-16.754 31.5851-15.1492 24.4273-11.009L27.2061 14.14C27.6944 18.7151 30.5149 20.9337 34.3631 20.5648ZM66.5169-55.1304L76.6146-66.3449C78.8646-68.9018 78.7399-71.6 76.4897-73.4808C74.3589-75.2592 71.7852-75.3218 69.4669-72.6966L57.842-59.5908C61.1265-58.5407 64.0578-57.0691 66.5169-55.1304ZM15.3398-16.4975C11.9776-14.1542 11.9205-10.9418 13.4219-8.99324C14.7521-7.15858 17.4168-6.47294 20.0475-8.33696C21.3916-9.36404 22.8444-10.272 24.4273-11.009L23.3829-21.2534C20.5739-19.9139 17.8376-18.3931 15.3398-16.4975ZM79.0225-16.4975C76.4622-18.3931 73.7885-19.9139 70.9166-21.2534L69.9293-11.009C71.4551-10.272 72.965-9.36404 74.2575-8.33696C76.8772-6.47294 79.5419-7.15309 80.872-8.98747C82.379-10.9305 82.3219-14.1487 79.0225-16.4975ZM115.752-56.0309L115.752-42.066C115.752-38.0617 118.65-35.1122 122.768-35.1122L134.349-35.1122C138.296-35.1122 141.251-38.0617 141.251-42.066L141.251-56.0309C141.251-59.9781 138.296-62.9331 134.349-62.9331L122.768-62.9331C118.65-62.9331 115.752-59.9781 115.752-56.0309ZM148.33-56.0309L148.33-42.066C148.33-38.0617 151.342-35.1122 155.283-35.1122L166.869-35.1122C170.931-35.1122 173.823-38.0617 173.823-42.066L173.823-56.0309C173.823-59.9781 170.931-62.9331 166.869-62.9331L155.283-62.9331C151.342-62.9331 148.33-59.9781 148.33-56.0309ZM99.5287-16.3117L99.5287-2.45558C99.5287 1.48617 102.427 4.49829 106.483 4.49829L118.069 4.49829C122.01 4.49829 124.965 1.48617 124.965-2.45558L124.965-16.3117C124.965-20.3677 122.01-23.3798 118.069-23.3798L106.483-23.3798C102.427-23.3798 99.5287-20.3677 99.5287-16.3117ZM132.106-16.3117L132.106-2.45558C132.106 1.48617 135.056 4.49829 139.003 4.49829L150.589 4.49829C154.639 4.49829 157.594 1.48617 157.594-2.45558L157.594-16.3117C157.594-20.3677 154.639-23.3798 150.589-23.3798L139.003-23.3798C135.056-23.3798 132.106-20.3677 132.106-16.3117ZM164.679-16.3117L164.679-2.45558C164.679 1.48617 167.633 4.49829 171.575 4.49829L183.161 4.49829C187.28 4.49829 190.172 1.48617 190.172-2.45558L190.172-16.3117C190.172-20.3677 187.28-23.3798 183.161-23.3798L171.575-23.3798C167.633-23.3798 164.679-20.3677 164.679-16.3117ZM133.815-71.4864L155.736-71.4864C157.588-71.4864 157.837-73.3943 156.537-74.3196L147.366-80.7447C145.626-81.9447 144.046-81.9447 142.3-80.7447L133.02-74.3196C131.721-73.3943 131.969-71.4864 133.815-71.4864Z"/>
</svg>