<svg xmlns="http://www.w3.org/2000/svg" viewBox="8.72266 -88.5802 106.64 106.64">
  <path d="M62.0422 18.0589C91.4941 18.0589 115.367-5.81424 115.367-35.2606C115.367-64.707 91.4941-88.5802 62.0422-88.5802C32.5958-88.5802 8.72266-64.707 8.72266-35.2606C8.72266-5.81424 32.5958 18.0589 62.0422 18.0589ZM45.9362-52.4152C42.6283-52.4152 39.9953-55.0429 39.9953-58.3566C39.9953-61.6075 42.6283-64.2923 45.9362-64.2923C49.1873-64.2923 51.8665-61.6075 51.8665-58.3566C51.8665-55.0429 49.1873-52.4152 45.9362-52.4152ZM32.2987-37.6331C31.1305-38.6926 31.1308-40.7281 32.2987-41.8446L37.9753-47.5163C40.1666-49.7024 42.6588-49.9569 44.7418-49.9569L45.9362-49.9569C49.6855-49.9569 51.8612-47.4021 51.8612-44.3434L51.8612-41.5302L81.0444-59.404C82.2555-60.1374 83.825-59.7792 84.5582-58.5624C85.2348-57.4084 84.9277-55.7766 83.7679-55.0489L51.8612-35.5321L51.8612-29.3912L55.3983-20.3574C53.9867-20.7098 52.3421-21.0628 50.1685-21.0628C49.5174-21.0628 48.929-21.0057 48.3405-21.0005L46.8445-23.9296C46.7254-24.1733 46.4602-24.1681 46.4034-23.8621L45.9163-20.6788C42.535-20.1126 41.0806-18.8302 39.8811-17.9528L39.8811-28.168L36.3662-26.024C35.1552-25.2908 33.5853-25.5974 32.8522-26.8142C32.1813-27.9627 32.4827-29.5948 33.6424-30.3225L37.3681-32.6315ZM35.1732-11.9208C35.1732-13.1486 36.2081-14.2509 37.5034-14.2509L37.628-14.2509C41.7569-14.2509 43.1626-18.2897 50.1685-18.2897C56.3805-18.2897 58.5746-14.2509 62.7035-14.2509C66.8382-14.2509 69.0946-18.2897 75.2498-18.2897C82.3128-18.2897 83.6559-14.2509 87.7845-14.2509L87.9091-14.2509C89.1935-14.2509 90.2451-13.1486 90.2451-11.9208C90.2451-10.6361 89.1938-9.59033 87.9091-9.59033L87.7845-9.59033C80.4614-9.59033 79.2434-13.6181 75.2498-13.6181C72.1011-13.6181 70.0322-9.59033 62.7035-9.59033C55.3806-9.59033 53.3743-13.6181 50.1685-13.6181C46.1689-13.6181 44.9569-9.59033 37.628-9.59033L37.5034-9.59033C36.2078-9.59033 35.1732-10.6361 35.1732-11.9208ZM38.2139-39.6845L40.1666-37.7837L40.1666-41.2583C40.1666-41.4087 39.9534-41.5388 39.8079-41.3415Z"/>
</svg>