<svg xmlns="http://www.w3.org/2000/svg" viewBox="8.72266 -88.5802 106.64 106.64">
  <path d="M62.0422 18.0589C91.4941 18.0589 115.367-5.81424 115.367-35.2606C115.367-64.707 91.4941-88.5802 62.0422-88.5802C32.5958-88.5802 8.72266-64.707 8.72266-35.2606C8.72266-5.81424 32.5958 18.0589 62.0422 18.0589ZM46.4004-43.4259C43.087-43.4259 40.4074-46.054 40.4074-49.3677C40.4074-52.6188 43.087-55.3037 46.4004-55.3037C49.657-55.3037 52.3935-52.6188 52.3935-49.3677C52.3935-46.054 49.657-43.4259 46.4004-43.4259ZM62.2306-18.2555L55.2554-5.62358C54.3257-3.8889 52.4151-3.57738 50.9922-4.32532C49.4502-5.12458 48.9573-7.04617 49.8136-8.64526L56.6588-21.1583L56.908-21.5997L62.6885-32.2047L51.8128-32.2047C49.4038-32.2047 47.7992-34.6764 49.1543-36.8469L57.7854-51.5962C57.9153-51.8559 57.8527-51.8923 57.7127-51.981C55.6927-54.1204 53.4124-56.0211 50.8264-57.9117L42.8334-57.9117C41.1613-57.9117 39.801-59.2774 39.801-61.0063C39.801-62.6839 41.1613-64.1013 42.8334-64.1013L51.1846-64.1013C52.1817-64.1013 53.0543-63.8466 53.9833-63.2859C71.0542-51.8403 76.8478-32.448 79.799-22.3006L79.9236-21.8022C81.7593-15.4665 81.8764-8.83829 81.8764-7.22267C81.8764-5.48278 80.5785-4.0083 78.8441-4.0083C77.0523-4.0083 75.6868-5.31149 75.6868-7.11918C75.6868-7.99637 75.557-12.4387 73.9266-20.0675L69.4652-28.2219ZM56.7464-38.1089L61.0678-38.1089L59.0889-41.0489C58.9542-41.3138 58.6111-41.4326 58.4086-40.9866Z"/>
</svg>