<svg xmlns="http://www.w3.org/2000/svg" viewBox="12.4609 -105.098 105 139.73">
  <path d="M105.137-52.7846C111.92-52.7846 117.462-58.326 117.462-65.1202C117.462-71.8984 111.92-77.4453 105.137-77.4453C98.3484-77.4453 92.8012-71.8984 92.8012-65.1202C92.8012-58.326 98.3484-52.7846 105.137-52.7846ZM56.7615-10.4141L75.2122 2.99283L64.4341 24.4921C62.8449 27.6082 64.1275 31.524 67.3115 33.1187C70.4118 34.6346 74.2707 33.4406 75.8648 30.2413L88.9699 4.09376C89.972 2.08439 90.1694-1.2506 87.6247-3.61334L79.8062-10.9908L93.7182-10.9908C97.3899-10.9908 100.2-13.8001 100.2-17.3474L100.2-38.3997C100.2-47.7228 92.6739-55.3162 83.2827-55.3162L65.4502-55.3162L68.3492-65.6278C69.2684-68.9932 67.4351-72.5406 64.0643-73.4598C60.6418-74.4984 57.1512-72.5406 56.1749-69.1181L50.903-50.7302C49.7398-46.5705 52.3625-42.5974 56.7717-42.5974L70.5712-42.5974C70.8724-42.5974 71.0541-42.1143 70.753-41.9326L58.8599-35.9525C48.867-30.8937 47.5736-17.0779 56.7615-10.4141ZM79.8374-22.9517L87.3034-26.4895C87.7398-26.6767 88.2437-26.4791 88.2437-25.9233L88.2437-22.9517ZM48.0295-10.6961L44.4776-0.169827L18.9477-0.169827C15.338-0.169827 12.4609 2.76492 12.4609 6.2552C12.4609 9.8646 15.338 12.7936 18.9477 12.7936L49.0634 12.7936C51.5098 12.7936 53.8366 11.3344 54.9375 9.12708L59.7516-0.683451L53.1501-5.45145C51.052-6.98823 49.3851-8.72291 48.0295-10.6961ZM59.4801-78.8447L65.0437-78.8447C68.3847-82.6888 72.506-89.7822 72.506-94.7037C72.506-100.737 68.2647-105.098 62.2933-105.098C56.2023-105.098 51.8986-100.737 51.8986-94.7037C51.8986-89.346 56.0197-82.1947 59.4801-78.8447ZM57.3996-24.5031L67.0621-24.5031L67.0621-83.3638L57.3996-83.3638Z"/>
</svg>