<svg xmlns="http://www.w3.org/2000/svg" viewBox="8.72266 -88.5802 106.64 106.64">
  <path d="M62.0422 18.0589C91.4941 18.0589 115.367-5.81424 115.367-35.2606C115.367-64.707 91.4941-88.5802 62.0422-88.5802C32.5958-88.5802 8.72266-64.707 8.72266-35.2606C8.72266-5.81424 32.5958 18.0589 62.0422 18.0589ZM68.0835-55.173C64.8324-55.173 62.153-57.8005 62.153-61.1139C62.153-64.3647 64.8324-67.1067 68.0835-67.1067C71.4021-67.1067 74.0247-64.3647 74.0247-61.1139C74.0247-57.8005 71.4021-55.173 68.0835-55.173ZM42.9013-36.1204C41.2292-36.9255 40.5595-38.8364 41.3591-40.389L46.7705-50.9728C47.2689-52.0325 48.3803-52.7182 49.5646-52.7182L66.131-52.7182C69.5846-52.7182 71.8435-51.5854 73.9725-49.4512L76.4814-46.9997L79.8002-53.6214C80.605-55.2312 82.5675-55.8545 84.0631-55.1066C85.7349-54.307 86.2394-52.3912 85.4859-50.8383L80.262-40.1867C79.27-38.2028 76.6002-37.902 75.1208-39.3817L69.2884-45.0113C69.0233-45.2138 68.7535-45.1518 68.6185-44.8817L63.9021-35.5694L74.7676-35.5694C77.2445-35.5694 78.4804-33.0306 77.6131-31.0519L70.9916-16.4952C70.192-14.7608 68.5822-14.2053 66.8426-14.8848C65.2328-15.4975 64.495-17.4814 65.2381-19.0914L69.6213-28.8865L57.6189-28.123C52.4467-27.7544 50.1253-32.7399 52.0677-36.6085L56.7361-45.894C56.8766-46.1693 56.7883-46.4555 56.3881-46.4555L51.4857-46.4555L47.0555-37.5433C46.3701-36.1207 44.698-35.3102 42.9013-36.1204ZM37.7072-11.7112C36.897-13.3888 37.593-15.2478 39.3167-15.985L49.0401-20.1509L51.5426-27.0267C53.0733-25.78 55.2148-25.0431 57.7435-25.1674L58.818-25.2294L54.425-16.3703C54.0508-15.685 53.4953-15.1289 52.8207-14.8796L41.913-10.1017C40.75-9.67075 38.6934-9.67075 37.7072-11.7112ZM80.5783-7.90539C77.2703-7.90539 74.648-10.6367 74.648-13.9498C74.648-17.3206 77.2703-19.9481 80.5783-19.9481C83.9485-19.9481 86.685-17.3206 86.685-13.9498C86.685-10.6367 83.9485-7.90539 80.5783-7.90539Z"/>
</svg>