<svg xmlns="http://www.w3.org/2000/svg" viewBox="8.72266 -88.5802 106.64 106.64">
  <path d="M62.0422 18.0589C91.4941 18.0589 115.367-5.81424 115.367-35.2606C115.367-64.707 91.4941-88.5802 62.0422-88.5802C32.5958-88.5802 8.72266-64.707 8.72266-35.2606C8.72266-5.81424 32.5958 18.0589 62.0422 18.0589ZM61.9794-51.6084C58.723-51.6084 56.0437-54.2932 56.0437-57.6012C56.0437-60.852 58.723-63.5994 61.9794-63.5994C65.2302-63.5994 67.9099-60.852 67.9099-57.6012C67.9099-54.2932 65.2302-51.6084 61.9794-51.6084ZM38.7135-35.3149L42.6241-47.0932C43.1176-48.4021 44.2232-49.2069 45.589-49.2069L61.9794-49.2069C64.0409-49.2069 66.0451-48.3914 67.3538-47.1346L73.1241-41.3648L78.2497-46.4907C78.368-46.6089 78.5483-46.7901 78.6717-46.9092L78.6717-49.4442L76.9321-50.3454C75.8196-50.8444 75.1963-51.9517 75.1963-53.138L75.1963-60.6928C75.1963-62.4286 76.6209-63.8532 78.3515-63.8532L83.5906-63.8532C85.3838-63.8532 86.7406-62.3716 86.7406-60.6928L86.7406-53.138C86.7406-51.9517 86.1224-50.9015 85.0099-50.3454L83.3323-49.4442L83.3323-46.8576C84.4054-45.666 84.4116-43.8667 83.2301-42.6226L75.2947-34.7439C74.0645-33.4512 72.0696-33.5083 70.8965-34.7439L64.9911-40.7114C64.6121-41.0385 64.1496-40.9606 64.0198-40.5143L59.9536-28.1848L67.7484-24.6999C68.7407-24.2064 69.2281-23.6459 69.4779-22.7786L73.263-9.67395C73.8812-7.57065 72.5258-6.21037 71.0349-5.83654C69.6123-5.46243 67.8263-5.96087 67.3223-7.94505L63.9736-19.6213L53.4933-24.1706C49.5517-25.8635 48.5441-29.2964 49.6763-32.8019L52.7928-42.2432C52.9227-42.6898 52.7717-43.0172 52.3252-43.0172L47.7595-43.0172L44.5293-33.3991C43.906-31.4778 42.2394-30.8599 40.8113-31.2338C39.269-31.6024 37.971-33.1499 38.7135-35.3149ZM39.9893-7.80102C39.1845-9.10421 39.1216-11.0203 41.049-12.0746L49.2972-16.6448L50.3251-22.5621C50.9504-22.1877 51.63-21.8196 52.3701-21.5089L56.9192-19.3952L55.1754-13.9237C54.9209-13.1085 54.5575-12.3817 53.696-11.9455L44.144-6.68967C42.2844-5.69223 40.7427-6.50825 39.9893-7.80102Z"/>
</svg>