<svg xmlns="http://www.w3.org/2000/svg" viewBox="8.72266 -88.5802 106.64 106.64">
  <path d="M62.0422 18.0589C91.4936 18.0589 115.367-5.80932 115.367-35.2606C115.367-64.712 91.4936-88.5802 62.0422-88.5802C32.5964-88.5802 8.72266-64.712 8.72266-35.2606C8.72266-5.80932 32.5964 18.0589 62.0422 18.0589ZM62.0422 0.677054C42.1819 0.677054 26.1103-15.4003 26.1103-35.2606C26.1103-55.1209 42.1819-71.1983 62.0422-71.1983C81.9025-71.1983 97.9799-55.1209 97.9799-35.2606C97.9799-15.4003 81.9025 0.677054 62.0422 0.677054ZM46.3261-19.3225C47.3818-19.3225 48.363-19.5711 49.3048-20.133L68.1424-31.1156C69.8343-32.1208 71.097-33.3124 71.097-35.2557C71.097-37.1994 69.8914-38.3338 68.1424-39.339L49.3048-50.3162C48.363-50.8835 47.3818-51.0751 46.3261-51.0751C44.0544-51.0751 42.1526-49.4169 42.1526-46.5063L42.1526-23.9486C42.1526-21.0377 44.1115-19.3225 46.3261-19.3225ZM78.5733-18.9855C80.8546-18.9855 81.9264-20.1037 81.9264-22.3388L81.9264-48.1199C81.9264-50.355 80.7975-51.4787 78.5733-51.4787L73.7965-51.4787C71.5672-51.4787 70.438-50.2463 70.438-48.1199L70.438-22.3388C70.438-20.1037 71.5672-18.9855 73.7965-18.9855Z" />
</svg>