<svg xmlns="http://www.w3.org/2000/svg" viewBox="8.72266 -84.6296 164.31 98.74">
  <path d="M74.063-26.3393C74.063-16.1496 81.5841-9.87417 90.9508-9.87417C96.3537-9.87417 100.497-11.7072 103.842-15.3935C107.459-19.3652 109.594-26.617 110.37-28.7501C111.24-31.6038 112.429-35.3186 112.829-36.8652C113.172-38.5946 112.393-40.1685 110.771-40.6253C109.012-41.025 107.553-40.1178 106.916-38.632L103.858-31.6071C103.667-31.1541 103.529-31.0141 103.272-31.0141C103.124-31.0141 102.94-31.1527 102.94-31.6564L102.94-54.6776C102.94-56.4752 101.62-57.7951 99.7658-57.7951C97.9738-57.7951 96.6593-56.4181 96.6593-54.6776L96.6593-36.8454C96.2612-36.9683 95.8635-37.1028 95.3517-37.1694L95.3517-57.4809C95.3517-59.273 94.0373-60.5871 92.2968-60.5871C90.4367-60.5871 89.1222-59.273 89.1222-57.4809L89.1222-37.361C88.7313-37.2987 88.2722-37.294 87.8749-37.2271L87.8749-55.8264C87.8749-57.5668 86.5607-58.9384 84.7061-58.9384C82.9656-58.9384 81.6514-57.5668 81.6514-55.8264L81.6514-35.8032C81.135-35.6127 80.7426-35.4061 80.3439-35.2053L80.3439-49.1382C80.3439-51.0554 79.0294-52.3753 77.2321-52.3753C75.4346-52.3753 74.063-51.0554 74.063-49.1382ZM90.9046 14.1083C118.202 14.1083 140.274-7.96346 140.274-35.2606C140.274-62.5578 118.202-84.6296 90.9046-84.6296C63.613-84.6296 41.5357-62.5578 41.5357-35.2606C41.5357-7.96346 63.613 14.1083 90.9046 14.1083ZM90.9046-3.2736C73.2608-3.2736 58.9176-17.6171 58.9176-35.2606C58.9176-52.9042 73.2608-67.2477 90.9046-67.2477C108.548-67.2477 122.891-52.9042 122.891-35.2606C122.891-17.6171 108.548-3.2736 90.9046-3.2736ZM8.72266-35.2035C8.72266-18.7609 14.1632-3.0505 23.8415 9.65006C26.9049 13.6816 32.2472 13.8746 36.1481 10.6341C39.981 7.40465 40.0026 2.42715 36.9557-1.75896C30.0068-11.3442 26.1158-23.0096 26.1158-35.2035C26.1158-47.4601 30.0068-59.12 37.0128-68.7104C40.1168-72.9484 40.1009-77.8688 36.1481-81.1609C32.304-84.4017 26.9623-84.1461 23.8986-80.1714C14.1632-67.4195 8.72266-51.6462 8.72266-35.2035ZM173.029-35.2035C173.029-51.6462 167.589-67.4195 157.853-80.1714C154.79-84.1461 149.448-84.4017 145.604-81.1609C141.651-77.8688 141.635-72.9484 144.739-68.7104C151.745-59.12 155.636-47.4601 155.636-35.2035C155.636-23.0096 151.745-11.3442 144.796-1.75896C141.749 2.42715 141.771 7.40465 145.604 10.6341C149.505 13.8746 154.847 13.6816 157.91 9.65006C167.589-3.0505 173.029-18.7609 173.029-35.2035Z"/>
</svg>