<svg xmlns="http://www.w3.org/2000/svg" viewBox="12.4609 -83.6567 96.8 96.8">
  <path d="M31.6184 13.1464L90.1011 13.1464C102.194 13.1464 109.259 6.08236 109.259-5.99457L109.259-64.5157C109.259-76.5927 102.194-83.6567 90.1011-83.6567L31.6184-83.6567C19.5311-83.6567 12.4609-76.5921 12.4609-64.5157L12.4609-5.99457C12.4609 6.08179 19.5311 13.1464 31.6184 13.1464ZM49.8476-56.5394C55.6173-56.5394 59.4999-53.1453 61.4335-49.8907C63.3616-53.1453 67.2494-56.5394 73.0139-56.5394C80.6494-56.5394 86.9899-50.5093 86.9899-41.237C86.9899-24.6923 67.4883-13.3342 64.7515-11.9C63.7634-11.4468 62.4738-10.7024 61.4445-10.7024C60.4151-10.7024 59.052-11.4465 58.1155-11.9C55.4323-13.4515 35.8712-24.6923 35.8712-41.237C35.8712-50.5093 42.2176-56.5394 49.8476-56.5394Z"/>
</svg>