<svg xmlns="http://www.w3.org/2000/svg" viewBox="8.72266 -88.5802 106.64 106.64">
  <path d="M62.0422 18.0589C91.4936 18.0589 115.367-5.80932 115.367-35.2606C115.367-64.712 91.4936-88.5802 62.0422-88.5802C32.5964-88.5802 8.72266-64.712 8.72266-35.2606C8.72266-5.80932 32.5964 18.0589 62.0422 18.0589ZM62.0422 0.677054C42.1819 0.677054 26.1103-15.4003 26.1103-35.2606C26.1103-55.1209 42.1819-71.1983 62.0422-71.1983C81.9025-71.1983 97.9799-55.1209 97.9799-35.2606C97.9799-15.4003 81.9025 0.677054 62.0422 0.677054ZM61.6235-29.795C69.1799-30.5944 73.3154-36.2656 73.8682-41.4574L79.3113-41.4574C80.0304-41.4574 80.5511-41.9781 80.5511-42.6918C80.5511-43.3428 80.0304-43.869 79.3113-43.869L73.8734-43.869C73.681-47.8453 72.1393-51.2853 68.8111-53.4561L79.3113-53.4561C80.0304-53.4561 80.5511-53.9768 80.5511-54.6904C80.5511-55.347 80.0304-55.8679 79.3113-55.8679L49.1666-55.8679C46.8786-55.8679 45.2048-54.3656 45.2048-52.2325L45.2048-52.1433C45.2048-50.016 46.8786-48.5137 49.1666-48.5137L55.243-48.5137C58.8839-48.5137 62.0486-47.3328 62.689-43.869L47.2555-43.869C46.5416-43.869 46.0154-43.3428 46.0154-42.6918C46.0154-42.0352 46.5416-41.4574 47.2555-41.4574L62.7464-41.4574C62.1118-37.9267 59.0745-36.8119 55.2585-36.8119L50.1358-36.8119C47.5608-36.8119 45.2212-35.6769 45.2212-32.6152L45.2212-32.1993C45.2212-30.1233 46.5361-28.7357 48.1797-27.0976L59.4692-15.8324C60.7483-14.5585 62.1205-13.4767 64.0714-13.4767C66.7175-13.4767 69.6176-15.8107 69.6176-18.7377C69.6176-20.142 68.7757-21.6855 67.6835-22.7206L60.4868-29.6808Z" />
</svg>