<svg xmlns="http://www.w3.org/2000/svg" viewBox="12.4609 -83.6567 96.8 96.8">
  <path d="M40.8363-13.3261L80.8833-13.3261C82.196-13.3261 82.7301-13.9228 82.7301-15.2465L82.7301-26.6046C82.7301-27.9228 82.196-28.5196 80.8833-28.5196L40.8363-28.5196C39.5236-28.5196 38.9894-27.9228 38.9894-26.6046L38.9894-15.2465C38.9894-13.9228 39.5236-13.3261 40.8363-13.3261ZM31.6184 13.1464L90.1011 13.1464C102.194 13.1464 109.259 6.08236 109.259-5.99457L109.259-64.5157C109.259-76.5927 102.194-83.6567 90.1011-83.6567L31.6184-83.6567C19.5311-83.6567 12.4609-76.5921 12.4609-64.5157L12.4609-5.99457C12.4609 6.08179 19.5311 13.1464 31.6184 13.1464ZM34.2553-4.19701C31.2643-4.19701 29.7989-5.42306 29.7989-8.65888L29.7989-61.8514C29.7989-65.0927 31.2643-66.3133 34.2553-66.3133L87.4643-66.3133C90.4564-66.3133 91.9207-65.0927 91.9207-61.8514L91.9207-8.65888C91.9207-5.42306 90.4564-4.19701 87.4643-4.19701Z" />
</svg>