<svg xmlns="http://www.w3.org/2000/svg" viewBox="12.4609 -81.9801 127.86 93.56">
  <path d="M61.3299-11.282C61.3299-9.1457 63.0347-7.43536 65.1766-7.43536C67.2506-7.43536 68.9609-9.1457 68.9609-11.282L68.9609-19.0921C68.9609-21.1716 67.2506-22.8765 65.1766-22.8765C63.0347-22.8765 61.3299-21.1716 61.3299-19.0921ZM72.5447-11.282C72.5447-9.1457 74.2496-7.43536 76.3914-7.43536C78.4654-7.43536 80.1758-9.1457 80.1758-11.282L80.1758-19.0921C80.1758-21.1716 78.4654-22.8765 76.3914-22.8765C74.2496-22.8765 72.5447-21.1716 72.5447-19.0921ZM83.7596-11.282C83.7596-9.1457 85.4644-7.43536 87.6062-7.43536C89.6803-7.43536 91.3906-9.1457 91.3906-11.282L91.3906-19.0921C91.3906-21.1716 89.6803-22.8765 87.6062-22.8765C85.4644-22.8765 83.7596-21.1716 83.7596-19.0921ZM94.9744-11.282C94.9744-9.1457 96.6793-7.43536 98.8211-7.43536C100.895-7.43536 102.605-9.1457 102.605-11.282L102.605-19.0921C102.605-21.1716 100.895-22.8765 98.8211-22.8765C96.6793-22.8765 94.9744-21.1716 94.9744-19.0921ZM106.189-11.282C106.189-9.1457 107.894-7.43536 110.036-7.43536C112.11-7.43536 113.82-9.1457 113.82-11.282L113.82-19.0921C113.82-21.1716 112.11-22.8765 110.036-22.8765C107.894-22.8765 106.189-21.1716 106.189-19.0921ZM12.4609-15.2447C12.4609 0.806226 23.3465 11.5828 39.638 11.5828L113.14 11.5828C129.431 11.5828 140.317 0.806226 140.317-15.2447C140.317-20.4761 138.909-25.0419 137.092-29.0213L119.222-67.7324C115.06-76.7673 107.552-81.9801 96.8898-81.9801L56.0075-81.9801C45.3399-81.9801 37.8316-76.7673 33.6702-67.7324L16.3142-30.049C14.3255-25.7267 12.4609-20.9329 12.4609-15.2447ZM28.086-15.2447C28.086-21.9608 32.6869-26.4475 39.638-26.4475L113.14-26.4475C120.091-26.4475 124.691-21.9608 124.691-15.2447C124.691-8.42984 120.091-4.04773 113.14-4.04773L39.638-4.04773C32.6869-4.04773 28.086-8.53446 28.086-15.2447ZM37.6532-41.9533L48.1265-64.8494C49.1893-67.2323 51.8705-68.7371 54.9801-68.7371L97.9169-68.7371C101.021-68.7371 103.708-67.2323 104.765-64.8494L115.239-41.953C114.546-41.9934 113.85-42.0726 113.14-42.0726L39.638-42.0726C38.9846-42.0726 38.2892-41.9934 37.6532-41.9533Z"/>
</svg>