<svg xmlns="http://www.w3.org/2000/svg" viewBox="8.72266 -88.5802 106.64 106.64">
  <path d="M62.0422 18.0589C91.4936 18.0589 115.367-5.80932 115.367-35.2606C115.367-64.712 91.4936-88.5802 62.0422-88.5802C32.5964-88.5802 8.72266-64.712 8.72266-35.2606C8.72266-5.80932 32.5964 18.0589 62.0422 18.0589ZM62.0422 0.677054C42.1819 0.677054 26.1103-15.4003 26.1103-35.2606C26.1103-55.1209 42.1819-71.1983 62.0422-71.1983C81.9025-71.1983 97.9799-55.1209 97.9799-35.2606C97.9799-15.4003 81.9025 0.677054 62.0422 0.677054ZM60.2828-12.8877C71.9369-12.8877 79.1212-19.3733 79.1212-30.5826L79.1212-48.2232C79.1212-53.9756 76.0172-57.45 70.7951-57.45C65.5156-57.45 62.4745-54.0218 62.4745-48.2232L62.4745-31.1649C62.4745-27.8685 61.6588-26.6736 59.6413-26.6736C58.169-26.6736 57.2584-27.4242 56.7973-28.8549C55.8536-32.3443 53.4671-34.1323 49.1945-34.1323C44.7586-34.0752 41.7575-31.1312 41.7575-26.753C41.7575-25.5927 41.9395-24.4385 42.2521-23.3984C44.1258-16.9811 51.0905-12.8877 60.2828-12.8877Z" />
</svg>