<svg xmlns="http://www.w3.org/2000/svg" viewBox="12.4609 -83.6567 96.8 96.8">
  <path d="M31.6184 13.1464L90.1011 13.1464C102.194 13.1464 109.259 6.08236 109.259-5.99457L109.259-64.5157C109.259-76.5927 102.194-83.6567 90.1011-83.6567L31.6184-83.6567C19.5311-83.6567 12.4609-76.5921 12.4609-64.5157L12.4609-5.99457C12.4609 6.08179 19.5311 13.1464 31.6184 13.1464ZM74.3236-13.5214C72.7417-13.5214 71.3579-13.8283 69.8608-14.5513L41.2457-28.1997C38.008-29.7298 36.2086-31.7951 36.2086-34.9754C36.2086-38.3051 37.9048-40.5582 41.2457-42.1508L69.8608-55.8083C71.3634-56.5256 72.7417-56.8325 74.3346-56.8325C78.7922-56.8325 81.9346-53.6897 81.9346-49.0718C81.9346-45.3477 80.1353-43.1108 75.3618-41.3579L59.9924-35.4646L59.9924-34.8673L75.3618-28.9963C80.1408-27.2486 81.9346-25.0227 81.9346-21.2878C81.9346-16.6696 78.7867-13.5214 74.3236-13.5214Z"/>
</svg>