<svg xmlns="http://www.w3.org/2000/svg" viewBox="9.96875 -100.272 76.9 128.9">
  <path d="M20.3044 28.629C23.9574 28.629 27.8504 26.4434 31.2879 22.9589L47.2667 6.86344C47.6633 6.4097 47.9864 6.21152 48.4181 6.21152C48.8554 6.21152 49.1785 6.4097 49.5748 6.86344L65.5481 22.9589C68.9911 26.4434 72.8786 28.629 76.5319 28.629C82.4566 28.629 86.8728 24.3869 86.8728 18.0798C86.8728 14.9721 86.0429 11.5571 84.2839 7.45383L61.4595-46.0196C58.2718-53.4635 54.9097-58.3684 48.4181-58.3684C41.9318-58.3684 38.6784-53.6918 35.3765-46.0196L12.5524 7.45383C10.7931 11.5571 9.96875 14.9721 9.96875 18.0798C9.96875 24.3869 14.3797 28.629 20.3044 28.629ZM48.4181-67.4443C52.8195-67.4443 55.7739-70.4105 55.7739-74.8263L55.7739-92.9475C55.7739-97.3688 52.8195-100.272 48.4181-100.272C44.0163-100.272 41.0624-97.3688 41.0624-92.9475L41.0624-74.8263C41.0624-70.4105 44.0163-67.4443 48.4181-67.4443Z"/>
</svg>