<svg xmlns="http://www.w3.org/2000/svg" viewBox="12.4609 -83.2491 106.21 99">
  <path d="M12.4609-48.5784C12.4609-27.4495 30.2794-6.18601 56.4959 11.3406C59.904 13.6319 63.3034 15.7518 65.5636 15.7518C67.8292 15.7518 71.2234 13.6319 74.6313 11.3406C100.848-6.18601 118.666-27.4495 118.666-48.5784C118.666-69.6406 103.833-83.2491 87.1796-83.2491C76.8129-83.2491 69.7158-79.0783 65.5636-73.3581C61.4168-79.0729 54.3142-83.2491 43.9475-83.2491C27.2946-83.2491 12.4609-69.6406 12.4609-48.5784ZM31.2834-48.8068C31.2834-58.478 38.2395-65.3402 47.3107-65.3402C54.4781-65.3402 58.0859-61.6567 60.907-57.9872C62.3501-55.9719 63.7437-54.8909 65.5636-54.8909C67.3889-54.8909 68.6522-55.9774 70.163-57.9872C73.1777-61.7028 76.6546-65.3402 83.8219-65.3402C92.8934-65.3402 99.8438-58.478 99.8438-48.8068C99.8438-35.5368 87.2134-18.6945 66.1166-4.65285C65.8968-4.50627 65.7505-4.42778 65.5636-4.42778C65.3767-4.42778 65.2304-4.50627 65.016-4.65285C43.9138-18.6945 31.2834-35.5368 31.2834-48.8068ZM52.9323-20.6154C52.9323-17.6523 54.3436-16.2868 57.1201-16.2868L74.1267-16.2868C76.9029-16.2868 78.2574-17.6523 78.2574-20.6154L78.2574-33.5756C78.2574-35.7798 77.4333-37.1398 75.8374-37.5559L75.8374-40.8569C75.8374-47.5489 71.672-52.111 65.6262-52.111C59.5232-52.111 55.4094-47.5489 55.4094-40.8569L55.4094-37.613C53.8133-37.1398 52.9323-35.7798 52.9323-33.5756ZM61.8269-37.8414L61.8269-41.0722C61.8269-43.9873 63.2778-45.8187 65.6262-45.8187C67.9743-45.8187 69.4255-44.0444 69.4255-41.0722L69.4255-37.8414Z" />
</svg>