<svg xmlns="http://www.w3.org/2000/svg" viewBox="8.93496 -86.7201 154.75 104.23">
  <path d="M37.4132 14.0965L54.5602 10.8144C67.0433 8.41439 73.1023 0.89573 73.1023-12.2159L73.1023-66.2753C73.1023-78.6039 64.2225-86.7201 51.567-86.7201C39.8584-86.7201 32.0803-80.5317 29.0096-69.0044L13.4998-10.4862C8.93496 6.61944 19.596 17.5111 37.4132 14.0965ZM56.5063-65.2476L56.5063-12.2159C56.5063-8.09386 55.1091-6.2156 51.5072-5.54189L35.3331-2.43166C30.5215-1.49415 29.2158-4.76035 29.9712-7.58013L45.3553-65.6069C46.1069-68.3426 48.266-70.1189 51.2815-70.1189C54.3998-70.1189 56.5063-68.2097 56.5063-65.2476ZM47.3982-11.935L73.1023-17.4285L73.1023-34.3316L69.1554-33.4863L55.2791-46.0499C51.9865-49.04 46.5884-48.7491 43.5871-45.4518C40.5341-42.0342 40.8415-36.6982 44.253-33.7026L49.2619-29.2374L44.0328-28.1667C39.6125-27.2669 36.7311-22.8304 37.5683-18.4565C38.4056-13.9624 42.9672-10.9781 47.3982-11.935ZM86.3095-20.2218L99.5113-17.4285L99.5113-34.3316L94.5733-35.3821L94.5733-76.1507C94.5733-80.6443 90.8599-84.42 86.3095-84.42C81.7534-84.42 78.0399-80.6443 78.0399-76.1507L78.0399-35.3821L73.1023-34.3316L73.1023-17.4285ZM135.2 14.0965C153.017 17.5111 163.684 6.61944 159.113-10.4862L143.604-69.0044C140.539-80.5317 132.76-86.7201 121.047-86.7201C108.396-86.7201 99.5113-78.6039 99.5113-66.2753L99.5113-12.2159C99.5113 0.89573 105.57 8.41439 118.053 10.8144ZM116.107-65.2476C116.107-68.2097 118.213-70.1189 121.332-70.1189C124.347-70.1189 126.507-68.3426 127.264-65.6069L142.648-7.58013C143.397-4.76035 142.097-1.49415 137.28-2.43166L121.106-5.54189C117.504-6.2156 116.107-8.09386 116.107-12.2159ZM125.215-11.935C129.646-10.9781 134.208-13.9624 135.045-18.4565C135.888-22.8304 133.006-27.2669 128.58-28.1667L123.351-29.2374L128.36-33.7026C131.772-36.6982 132.079-42.0342 129.026-45.4518C126.025-48.7491 120.627-49.04 117.334-46.0499L103.458-33.4863L99.5113-34.3316L99.5113-17.4285Z"/>
</svg>