<svg xmlns="http://www.w3.org/2000/svg" viewBox="8.72266 -88.5179 106.64 106.64">
  <path d="M62.0422 18.1212C91.4941 18.1212 115.367-5.75194 115.367-35.1983C115.367-64.6447 91.4941-88.5179 62.0422-88.5179C32.5958-88.5179 8.72266-64.6447 8.72266-35.1983C8.72266-5.75194 32.5958 18.1212 62.0422 18.1212ZM61.6854-8.78615C47.4328-8.78615 36.9208-19.2784 36.9208-33.5367C36.9208-43.5294 42.9492-52.838 52.3187-56.5374C54.9258-57.5371 57.7314-55.7477 55.881-52.4944C54.9632-50.7226 54.3185-47.4909 54.3185-44.4261C54.3185-32.9704 61.7356-26.032 73.4148-26.032C76.1203-26.032 78.8366-26.5464 80.3162-27.3445C83.4841-29.0013 85.6907-26.339 84.2403-23.5379C80.184-14.6742 71.4774-8.78615 61.6854-8.78615ZM75.7843-39.0222C74.9822-39.0222 74.3679-39.6478 74.2485-40.4493C73.2988-47.3109 73.3126-47.2636 65.8444-48.7224C65.0432-48.956 64.4914-49.4561 64.4914-50.2631C64.4914-51.0649 65.0432-51.6793 65.9015-51.7987C73.3126-52.751 73.3599-52.8437 74.2485-60.1289C74.3679-60.9359 74.9822-61.556 75.7843-61.556C76.5806-61.556 77.1433-60.9359 77.2627-60.0718C78.1-53.2598 78.2658-53.32 85.6668-51.7987C86.4625-51.6222 87.0197-51.0649 87.0197-50.2631C87.0197-49.4506 86.4625-48.956 85.5416-48.7224C78.3177-47.5804 78.2129-47.5502 77.2627-40.4493C77.1433-39.6478 76.5806-39.0222 75.7843-39.0222Z"/>
</svg>