<svg xmlns="http://www.w3.org/2000/svg" viewBox="8.72266 -87.3067 103.1 103.04">
  <path d="M60.7793 15.734C81.5378 15.734 100.052 3.45608 108.402-15.2445C111.819-22.9517 106.229-27.0479 100.327-24.2171C95.501-21.949 89.0768-20.5068 83.8274-20.5068C58.8919-20.5068 44.9238-34.4693 44.9238-59.4046C44.9238-64.5605 46.3978-70.9322 48.636-75.7714C51.7455-82.3517 46.7002-87.3067 39.5141-84.1291C21.1982-76.0026 8.72266-57.6034 8.72266-36.3227C8.72266-7.55745 32.0712 15.734 60.7793 15.734ZM60.7793 0.141869C40.6531 0.141869 24.3203-16.1965 24.3203-36.3227C24.3203-42.951 26.2453-49.2835 29.5386-54.524C29.5712-53.8768 29.5601-53.5826 29.6172-52.8956C31.9582-25.4877 49.5108-7.76372 76.8046-5.25148C77.5564-5.19439 78.375-5.14204 79.1857-5.09576C73.8741-1.79867 67.6144 0.141869 60.7793 0.141869Z"/>
</svg>