<svg xmlns="http://www.w3.org/2000/svg" viewBox="8.72266 -88.5802 106.64 106.64">
  <path d="M62.0422 18.0589C91.4936 18.0589 115.367-5.80932 115.367-35.2606C115.367-64.712 91.4936-88.5802 62.0422-88.5802C32.5964-88.5802 8.72266-64.712 8.72266-35.2606C8.72266-5.80932 32.5964 18.0589 62.0422 18.0589ZM62.0422 0.677054C42.1819 0.677054 26.1103-15.4003 26.1103-35.2606C26.1103-55.1209 42.1819-71.1983 62.0422-71.1983C81.9025-71.1983 97.9799-55.1209 97.9799-35.2606C97.9799-15.4003 81.9025 0.677054 62.0422 0.677054ZM53.6343-17.2859L80.0683-43.7199C81.3373-44.9886 82.0658-46.6221 82.0658-48.2661C82.0658-52.0797 79.2091-54.9312 75.4586-54.9312C73.4092-54.9312 71.8383-54.3221 70.5127-52.9911L44.0733-26.5681C42.8046-25.2939 42.0758-23.6658 42.0758-22.0164C42.0758-18.2028 44.9325-15.3458 48.6832-15.3458C50.7376-15.3458 52.3143-15.9604 53.6343-17.2859ZM70.5018-17.2859C71.8273-15.9604 73.404-15.3458 75.4586-15.3458C79.2091-15.3458 82.0658-18.2028 82.0658-22.0164C82.0658-23.6658 81.3373-25.2939 80.0683-26.5681L53.6288-52.9911C52.3033-54.3221 50.7323-54.9312 48.6832-54.9312C44.9325-54.9312 42.0758-52.0797 42.0758-48.2661C42.0758-46.6221 42.8046-44.9886 44.0733-43.7199Z" />
</svg>