<svg xmlns="http://www.w3.org/2000/svg" viewBox="12.4609 -83.6567 96.8 96.8">
  <path d="M31.6184 13.1464L90.1011 13.1464C102.194 13.1464 109.259 6.08236 109.259-5.99457L109.259-64.5157C109.259-76.5927 102.194-83.6567 90.1011-83.6567L31.6184-83.6567C19.5311-83.6567 12.4609-76.5921 12.4609-64.5157L12.4609-5.99457C12.4609 6.08179 19.5311 13.1464 31.6184 13.1464ZM34.2553-4.19701C31.2643-4.19701 29.7989-5.42306 29.7989-8.65888L29.7989-61.8514C29.7989-65.0927 31.2643-66.3133 34.2553-66.3133L87.4643-66.3133C90.4564-66.3133 91.9207-65.0927 91.9207-61.8514L91.9207-8.65888C91.9207-5.42306 90.4564-4.19701 87.4643-4.19701ZM49.0992-12.5472C52.5996-12.5472 54.5974-14.1805 55.3201-17.6699L56.2943-22.7923L60.2046-22.7923L59.4231-18.4986C58.8091-15.0501 60.8277-12.5472 64.3904-12.5472C67.896-12.5472 70.0187-14.2947 70.6846-17.8412L71.7162-22.7923L73.4236-22.7923C76.9182-22.7923 79.3374-25.2167 79.3374-28.5976C79.3374-31.557 77.4538-33.4461 74.6715-33.4461L73.8957-33.4461L74.6362-37.5372L76.1707-37.5372C79.7224-37.5372 82.1416-39.9615 82.1416-43.3425C82.1416-46.2964 80.258-48.2478 77.4757-48.2478L76.5874-48.2478L77.2442-51.8147C77.9099-55.0919 75.5429-57.8286 72.1518-57.8286C68.7708-57.8286 66.6481-56.1899 66.045-52.7008L65.2471-48.2478L61.1087-48.2478L61.8849-51.8147C62.4935-55.0864 60.1894-57.8286 56.7354-57.8286C53.355-57.8286 51.2946-56.1899 50.686-52.7008L49.8307-48.2478L48.2391-48.2478C44.7442-48.2478 42.3253-45.8805 42.3253-42.4424C42.3253-39.5402 44.2087-37.5372 46.9341-37.5372L47.9312-37.5372L47.0871-33.4461L45.5491-33.4461C41.9971-33.4461 39.5782-31.0785 39.5782-27.6462C39.5782-24.7437 41.4616-22.7923 44.2441-22.7923L45.0223-22.7923L44.178-18.5557C43.4553-15.1072 45.5365-12.5472 49.0992-12.5472ZM57.065-31.7296L58.3878-38.6143L64.5499-38.6143L63.3303-31.7296Z" />
</svg>