<svg xmlns="http://www.w3.org/2000/svg" viewBox="8.72266 -88.5802 106.64 106.64">
  <path d="M62.0422 18.0589C91.4941 18.0589 115.367-5.81424 115.367-35.2606C115.367-64.707 91.4941-88.5802 62.0422-88.5802C32.5958-88.5802 8.72266-64.707 8.72266-35.2606C8.72266-5.81424 32.5958 18.0589 62.0422 18.0589ZM43.1075-15.2621C37.9552-15.2621 35.0394-18.1669 35.0394-23.3188L35.0394-37.8652C35.0394-46.7572 40.2212-52.3192 48.5901-52.3192L49.5183-52.3192L49.5183-54.3709C49.5183-58.8718 52.9628-61.4574 58.4461-61.4574L65.5285-61.4574C71.0283-61.4574 74.4508-58.8718 74.4508-54.3709L74.4508-52.3192L75.3791-52.3192C83.7479-52.3192 88.9352-46.7572 88.9352-37.8652L88.9352-23.3188C88.9352-18.1669 86.0139-15.2621 80.8617-15.2621ZM55.7943-52.3192L68.1803-52.3192L68.1803-53.37C68.1803-54.9551 67.2301-55.9563 65.5358-55.9563L58.4418-55.9563C56.7379-55.9563 55.7943-54.9551 55.7943-53.37ZM51.9485-34.597C51.9485-32.681 53.0296-31.0962 54.4157-31.0962C55.8643-31.0962 56.9507-32.681 56.9507-34.597C56.9507-36.5594 55.8643-38.1552 54.4157-38.1552C53.0296-38.1552 51.9485-36.5594 51.9485-34.597ZM56.442-40.0929C56.442-38.1878 57.5857-36.603 58.9715-36.603C60.4201-36.603 61.5529-38.1878 61.5529-40.0929C61.5529-41.946 60.4201-43.5256 58.9715-43.5256C57.5857-43.5256 56.442-41.946 56.442-40.0929ZM62.4163-40.0929C62.4163-38.1878 63.6116-36.603 64.9974-36.603C66.3889-36.603 67.5269-38.1878 67.5269-40.0929C67.5269-41.946 66.3889-43.5256 64.9974-43.5256C63.6116-43.5256 62.4163-41.946 62.4163-40.0929ZM67.0182-34.597C67.0182-32.681 68.1103-31.0962 69.5532-31.0962C70.9505-31.0962 72.0832-32.681 72.0832-34.597C72.0832-36.5594 70.9505-38.1552 69.5532-38.1552C68.1103-38.1552 67.0182-36.5594 67.0182-34.597ZM54.999-27.5983C54.999-25.5612 56.3389-24.0442 58.3126-24.0442C59.2682-24.0442 59.9695-24.3502 60.5511-24.5418C61.0651-24.6768 61.403-24.8005 61.9846-24.8005C62.5661-24.8005 62.9611-24.6768 63.4752-24.5418C64.0051-24.3502 64.7009-24.0442 65.6563-24.0442C67.6305-24.0442 69.0328-25.5612 69.0328-27.5983C69.0328-29.2486 67.9583-30.0736 67.1173-30.7902C66.7172-31.1687 66.208-31.5535 65.9371-31.9649C65.6143-32.3497 65.4277-32.6879 65.2869-33.2538C64.5857-34.5474 64.0208-35.9992 61.9846-35.9992C59.9541-35.9992 59.3893-34.5476 58.7445-33.2538C58.5524-32.6931 58.3548-32.3492 58.0372-31.9644C57.8237-31.5532 57.3717-31.1687 56.8573-30.7902C56.0164-30.0736 54.999-29.2486 54.999-27.5983Z"/>
</svg>