<svg xmlns="http://www.w3.org/2000/svg" viewBox="8.72266 -88.5802 106.64 106.64">
  <path d="M62.0422 18.0589C91.4936 18.0589 115.367-5.80932 115.367-35.2606C115.367-64.712 91.4936-88.5802 62.0422-88.5802C32.5964-88.5802 8.72266-64.712 8.72266-35.2606C8.72266-5.80932 32.5964 18.0589 62.0422 18.0589ZM62.0422 0.677054C42.1819 0.677054 26.1103-15.4003 26.1103-35.2606C26.1103-55.1209 42.1819-71.1983 62.0422-71.1983C81.9025-71.1983 97.9799-55.1209 97.9799-35.2606C97.9799-15.4003 81.9025 0.677054 62.0422 0.677054ZM44.4866-16.9376L79.4826-16.9376C84.2648-16.9376 87.009-19.6086 87.009-24.3963L87.009-37.9223C87.009-46.1533 82.1866-51.2934 74.4213-51.2934L73.5559-51.2934L73.5559-53.2311C73.5559-57.3675 70.3673-59.7763 65.2836-59.7763L58.691-59.7763C53.6238-59.7763 50.4132-57.3675 50.4132-53.2311L50.4132-51.2934L49.5478-51.2934C41.7826-51.2934 36.9656-46.1533 36.9656-37.9223L36.9656-24.3963C36.9656-19.6086 39.7044-16.9376 44.4866-16.9376ZM56.2159-51.2934L56.2159-52.2874C56.2159-53.7528 57.1079-54.6914 58.6866-54.6914L65.2906-54.6914C66.8656-54.6914 67.7587-53.7528 67.7587-52.2874L67.7587-51.2934ZM52.6776-34.8934C52.6776-36.6791 53.6961-38.1497 54.9625-38.1497C56.2914-38.1497 57.3152-36.6791 57.3152-34.8934C57.3152-33.1026 56.2914-31.6375 54.9625-31.6375C53.6961-31.6375 52.6776-33.1026 52.6776-34.8934ZM56.8636-39.9677C56.8636-41.6957 57.8877-43.161 59.2109-43.161C60.5398-43.161 61.5584-41.6957 61.5584-39.9677C61.5584-38.1823 60.5398-36.7172 59.2109-36.7172C57.8877-36.7172 56.8636-38.1823 56.8636-39.9677ZM62.4108-39.9677C62.4108-41.6957 63.4919-43.161 64.758-43.161C66.0869-43.161 67.1052-41.6957 67.1052-39.9677C67.1052-38.1823 66.0869-36.7172 64.758-36.7172C63.4919-36.7172 62.4108-38.1823 62.4108-39.9677ZM66.6536-34.8934C66.6536-36.6791 67.6832-38.1497 69.0064-38.1497C70.284-38.1497 71.3542-36.6791 71.3542-34.8934C71.3542-33.1026 70.284-31.6375 69.0064-31.6375C67.6832-31.6375 66.6536-33.1026 66.6536-34.8934ZM55.4887-28.379C55.4887-29.9096 56.4435-30.6775 57.2218-31.3315C57.6791-31.71 58.1256-32.0375 58.3392-32.4431C58.5942-32.7708 58.7918-33.1037 58.9839-33.6074C59.5715-34.8441 60.0738-36.176 61.9846-36.176C63.8957-36.176 64.4034-34.8438 65.0475-33.6074C65.1883-33.104 65.375-32.7659 65.6352-32.4437C65.9061-32.0377 66.3526-31.71 66.7528-31.3315C67.5311-30.6775 68.5431-29.9096 68.5431-28.379C68.5431-26.467 67.2034-25.0697 65.4169-25.0697C64.5186-25.0697 63.8799-25.3758 63.3555-25.5102C62.8985-25.6452 62.509-25.769 61.9846-25.769C61.4601-25.769 61.1277-25.6452 60.6708-25.5102C60.0892-25.3758 59.4505-25.0697 58.5574-25.0697C56.766-25.0697 55.4887-26.467 55.4887-28.379Z" />
</svg>