<svg xmlns="http://www.w3.org/2000/svg" viewBox="12.4609 -83.6002 100.47 96.8">
  <path d="M31.6184 13.203L93.7677 13.203C105.861 13.203 112.926 6.13889 112.926-5.93804L112.926-64.4592C112.926-76.5361 105.861-83.6002 93.7677-83.6002L31.6184-83.6002C19.5311-83.6002 12.4609-76.5356 12.4609-64.4592L12.4609-5.93804C12.4609 6.13832 19.5311 13.203 31.6184 13.203ZM44.4284-33.633C40.8119-33.633 37.9448-36.4998 37.9448-40.1789L37.9448-54.9719C37.9448-58.5832 40.8119-61.523 44.4284-61.523C48.0968-61.523 51.0314-58.5835 51.0314-54.9719L51.0314-40.1789C51.0314-36.5566 48.0968-33.633 44.4284-33.633ZM56.2111-7.27893C54.3426-7.27893 53.1878-8.38157 53.1878-10.1822L53.1878-14.8667C53.1878-20.2373 57.2652-24.4335 62.6932-24.4335C68.0642-24.4335 72.1978-20.2321 72.1978-14.8667L72.1978-10.1822C72.1978-8.38157 71.0438-7.27893 69.1806-7.27893ZM80.8389-33.633C77.2279-33.633 74.3553-36.4998 74.3553-40.1789L74.3553-54.9719C74.3553-58.5832 77.2279-61.523 80.8389-61.523C84.5073-61.523 87.4416-58.5835 87.4416-54.9719L87.4416-40.1789C87.4416-36.5566 84.5073-33.633 80.8389-33.633Z"/>
</svg>