<svg xmlns="http://www.w3.org/2000/svg" viewBox="12.4609 -83.6002 100.47 96.8">
  <path d="M31.6184 13.203L93.7677 13.203C105.861 13.203 112.926 6.13889 112.926-5.93804L112.926-64.4592C112.926-76.5361 105.861-83.6002 93.7677-83.6002L31.6184-83.6002C19.5311-83.6002 12.4609-76.5356 12.4609-64.4592L12.4609-5.93804C12.4609 6.13832 19.5311 13.203 31.6184 13.203ZM60.7944-39.5514C57.7917-39.5514 55.6364-41.6496 55.6364-44.6517L55.6364-57.4807C55.6364-60.4315 57.8488-62.6383 60.7944-62.6383L64.5866-62.6383C67.5373-62.6383 69.6926-60.4315 69.6926-57.4807L69.6926-44.6517C69.6926-41.6496 67.5944-39.5514 64.5866-39.5514ZM40.8134-9.86127C37.8004-9.86127 35.6506-12.0111 35.6506-15.0189L35.6506-18.8743C35.6506-21.7624 37.8572-23.9174 40.8134-23.9174L52.9655-23.9174C55.9108-23.9174 58.1232-21.7622 58.1232-18.8743L58.1232-15.0189C58.1232-12.0111 55.9679-9.86127 52.9655-9.86127ZM72.4209-9.86127C69.4185-9.86127 67.2633-12.0111 67.2633-15.0189L67.2633-18.8743C67.2633-21.7622 69.4756-23.9174 72.4209-23.9174L84.6301-23.9174C87.5293-23.9174 89.793-21.7624 89.793-18.8743L89.793-15.0189C89.793-12.0682 87.5861-9.86127 84.6301-9.86127Z"/>
</svg>