<svg xmlns="http://www.w3.org/2000/svg" viewBox="8.68819 -88.3817 152.85 106.36">
  <path d="M67.4606 17.9735L102.758 17.9735C114.835 17.9735 121.893 10.9089 121.893-1.18396L121.893-69.2188C121.893-81.3116 114.834-88.3817 102.758-88.3817L67.4606-88.3817C55.3843-88.3817 48.3251-81.3116 48.3251-69.2188L48.3251-1.18396C48.3251 10.9089 55.3892 17.9735 67.4606 17.9735ZM70.1304 0.635563C66.8891 0.635563 65.6634-0.834212 65.6634-3.82081L65.6634-66.5819C65.6634-69.5729 66.8891-71.0383 70.1304-71.0383L100.088-71.0383C103.329-71.0383 104.555-69.5729 104.555-66.5819L104.555-3.82081C104.555-0.834212 103.329 0.635563 100.088 0.635563ZM38.6691-23.7356L38.6691-46.7297C38.6691-50.9662 34.7092-52.9124 31.1205-50.7796L12.0938-39.5038C8.7505-37.548 8.68819-32.9121 12.0938-30.9053L31.1208-19.6341C34.6524-17.5584 38.6691-19.4365 38.6691-23.7356ZM131.55-23.7356C131.55-19.4365 135.571-17.5584 139.098-19.6341L158.13-30.9053C161.536-32.9121 161.474-37.548 158.13-39.5038L139.098-50.7796C135.515-52.9124 131.55-50.9662 131.55-46.7297Z"/>
</svg>