<svg xmlns="http://www.w3.org/2000/svg" viewBox="8.72266 -88.5802 106.64 106.64">
  <path d="M62.0422 18.0589C91.4936 18.0589 115.367-5.80932 115.367-35.2606C115.367-64.712 91.4936-88.5802 62.0422-88.5802C32.5964-88.5802 8.72266-64.712 8.72266-35.2606C8.72266-5.80932 32.5964 18.0589 62.0422 18.0589ZM62.0422 0.677054C42.1819 0.677054 26.1103-15.4003 26.1103-35.2606C26.1103-55.1209 42.1819-71.1983 62.0422-71.1983C81.9025-71.1983 97.9799-55.1209 97.9799-35.2606C97.9799-15.4003 81.9025 0.677054 62.0422 0.677054ZM53.6308-14.0401C57.1715-14.0401 59.392-16.3171 59.392-19.9723L59.392-20.9588L68.5229-20.9588C69.2989-20.9588 69.8144-21.4117 69.8144-22.1929C69.8144-22.9691 69.2989-23.4278 68.5229-23.4278L59.392-23.4278L59.392-29.3697L65.93-29.3697C74.6608-29.3697 81.2422-34.8252 81.2422-42.7986C81.2422-51.2496 75.0509-56.3582 66.7401-56.3582L53.8647-56.3582C50.0495-56.3582 47.8807-53.9503 47.8807-50.1298L47.8807-32.0154L43.5258-32.0154C42.6304-32.0154 42.1149-31.4944 42.1149-30.7185C42.1149-29.8797 42.6304-29.3697 43.5258-29.3697L47.8807-29.3697L47.8807-23.4278L43.5258-23.4278C42.6875-23.4278 42.172-22.9691 42.172-22.1929C42.172-21.4117 42.6875-20.9588 43.5258-20.9588L47.8807-20.9588L47.8807-19.9723C47.8807-16.3171 50.0956-14.0401 53.6308-14.0401ZM59.392-37.643L59.392-47.6632L63.1062-47.6632C67.2304-47.6632 69.6636-45.6831 69.6636-42.6844C69.6636-39.5396 67.1247-37.643 63.0492-37.643Z" />
</svg>