<svg xmlns="http://www.w3.org/2000/svg" viewBox="12.4609 -88.896 134.37 109.29">
  <path d="M110.624-82.2686L110.624-45.0296C110.624-40.9594 113.135-38.397 117.09-38.397C118.997-38.397 120.402-39.0574 121.545-40.0239L143.896-59.1044C146.83-61.6132 146.773-65.7772 143.896-68.2454L121.545-87.2746C120.402-88.2356 118.997-88.896 117.09-88.896C113.135-88.896 110.624-86.3391 110.624-82.2686ZM12.4609-5.09199C12.4609-0.401952 16.2929 3.40835 21.0052 3.40835L34.0491 3.40835C43.718 3.40835 49.8897 0.18263 55.0811-6.45745L87.0356-47.1016C91.4877-52.8037 94.5195-54.6042 101.54-54.6042L117.851-54.6042C122.52-54.6042 126.352-58.4359 126.352-63.1045C126.352-67.7729 122.52-71.6049 117.851-71.6049L102.984-71.6049C91.8876-71.6049 83.712-68.8359 75.8369-58.7701L46.6287-21.2091C42.5137-15.9067 38.4136-13.5868 31.0378-13.5868L21.0052-13.5868C16.2924-13.5868 12.4609-9.77739 12.4609-5.09199ZM110.624 13.7673C110.624 17.8378 113.135 20.3948 117.09 20.3948C118.997 20.3948 120.402 19.7343 121.545 18.7679L143.896-0.312926C146.83-2.83824 146.773-7.00222 143.896-9.45396L121.545-28.4774C120.402-29.4438 118.997-30.1043 117.09-30.1043C113.135-30.1043 110.624-27.5473 110.624-23.4771ZM12.4609-63.0667C12.4609-58.3813 16.2924-54.5718 21.0052-54.5718L31.0378-54.5718C38.4136-54.5718 42.5137-52.2574 46.6287-46.9495L75.8369-9.38858C83.712 0.677274 91.8876 3.44623 102.984 3.44623L117.851 3.44623C122.52 3.44623 126.352-0.385761 126.352-5.05412C126.352-9.72276 122.52-13.5545 117.851-13.5545L101.54-13.5545C94.5195-13.5545 91.4877-15.355 87.0356-21.0626L55.0811-61.7012C49.8897-68.341 43.718-71.567 34.0491-71.567L21.0052-71.567C16.2929-71.567 12.4609-67.7567 12.4609-63.0667Z" />
</svg>