<svg xmlns="http://www.w3.org/2000/svg" viewBox="12.4609 -90.8611 108.48 118.14">
  <path d="M31.3287-19.7844L102.073-19.7844C114.04-19.7844 120.941-26.6644 120.941-38.6304L120.941-72.0151C120.941-83.9811 114.04-90.8611 102.073-90.8611L31.3287-90.8611C19.4117-90.8611 12.4609-83.9811 12.4609-72.0151L12.4609-38.6304C12.4609-26.6644 19.3623-19.7844 31.3287-19.7844ZM32.8593-35.3551C30.8922-35.3551 29.7989-36.4481 29.7989-38.4152L29.7989-72.1677C29.7989-74.1403 30.8922-75.2849 32.8593-75.2849L100.542-75.2849C102.51-75.2849 103.603-74.1403 103.603-72.1677L103.603-38.4152C103.603-36.4481 102.51-35.3551 100.542-35.3551ZM84.2743 27.2806C93.5796 27.2806 101.18 19.6799 101.18 10.3745C101.18 1.07499 93.6367-6.55351 84.2743-6.55351C74.9747-6.55351 67.374 1.07499 67.374 10.3745C67.374 19.6799 74.9747 27.2806 84.2743 27.2806ZM84.2743 17.5709C80.3109 17.5709 77.0782 14.3439 77.0782 10.3748C77.0782 6.29149 80.3109 3.17843 84.2743 3.17843C88.3631 3.17843 91.4706 6.29149 91.4706 10.3748C91.4706 14.3439 88.3631 17.5709 84.2743 17.5709ZM75.8134 2.56201L19.988 2.56201C15.7747 2.56201 12.4609 6.21806 12.4609 10.3745C12.4609 14.3652 15.8318 18.1926 19.988 18.1926L75.8134 18.1926ZM113.43 2.56201L92.4818 2.56201L92.4818 18.1926L113.43 18.1926C117.627 18.1926 120.941 14.4794 120.941 10.3745C120.941 6.10387 117.684 2.56201 113.43 2.56201Z"/>
</svg>