<svg xmlns="http://www.w3.org/2000/svg" viewBox="16.7161 -81.6241 66.8 92.85">
  <path d="M73.6941 11.2279C79.246 11.2279 83.5207 6.96096 83.5207 1.4085L83.5207-71.7772C83.5207-77.3241 79.246-81.6241 73.6831-81.6241C70.3288-81.6241 67.5647-80.3919 64.0616-77.1333L45.3473-59.8505C45.0992-59.6596 44.8923-59.5297 44.6352-59.5297L31.4563-59.5297C21.9356-59.5297 16.7161-54.0247 16.7161-44.1691L16.7161-26.2244C16.7161-16.374 21.9356-10.8634 31.4563-10.8634L44.5781-10.8634C44.8352-10.8634 45.0421-10.8536 45.2902-10.6626L64.0616 6.77046C67.4231 9.88708 70.1117 11.2279 73.6941 11.2279Z"/>
</svg>