<svg xmlns="http://www.w3.org/2000/svg" viewBox="12.4609 -94.9932 106.9 119.42">
  <path d="M65.1954 24.4316C67.8117 24.4316 70.808 23.5109 74.0075 21.6694L110.844 0.394374C117.94-3.72821 119.36-6.06176 119.36-14.3347L119.36-56.8542C119.36-65.5825 115.227-70.6574 108.998-70.6574C106.387-70.6574 103.397-69.742 100.156-67.9004L63.3659-46.666C56.0292-42.418 54.8388-40.4333 54.8388-31.937L54.8388 10.5825C54.8388 19.4547 58.9661 24.4316 65.1954 24.4316ZM43.9467 12.1461C45.5866 12.1461 47.3464 11.7761 49.2207 10.9569L49.2207-37.1065C49.2207-43.9 50.1545-45.5344 56.0647-48.931L97.8352-73.046C97.1155-79.488 92.8619-82.9939 87.3848-82.9939C84.754-82.9939 81.8781-82.1622 78.9404-80.4825L41.7898-58.9954C34.7175-54.9187 33.3505-52.9379 33.3505-44.4311L33.2934-1.62026C33.2934 6.66987 37.6151 12.1461 43.9467 12.1461ZM23.0513 0.0897515C24.686 0.0897515 26.4458-0.280284 28.3199-1.0997L28.3199-49.1631C28.3199-55.9457 29.2586-57.5956 35.1696-60.9873L76.9401-85.1026C76.2152-91.5441 71.9679-94.9932 66.5523-94.9932C63.9157-94.9932 60.983-94.213 58.0969-92.5337L20.8947-71.0518C13.8277-66.9698 12.4609-65 12.4609-56.4878L12.4609-13.6766C12.4609-5.38591 16.716 0.0897515 23.0513 0.0897515Z"/>
</svg>