<svg xmlns="http://www.w3.org/2000/svg" viewBox="12.4609 -88.397 117.36 111.03">
  <path d="M50.2803 22.6346C54.515 22.6346 58.1598 21.0258 63.3637 16.5338L79.4853 2.60929L104.317 2.60929C119.665 2.60929 129.821-7.56735 129.821-22.8944L129.821-62.8933C129.821-78.2203 119.665-88.397 104.317-88.397L37.9647-88.397C22.6162-88.397 12.4609-78.2198 12.4609-62.8933L12.4609-22.8944C12.4609-7.56792 23.7581 2.60929 36.2518 2.60929L40.1579 2.60929L40.1579 11.6316C40.1579 18.5138 44.0579 22.6346 50.2803 22.6346ZM54.3637 3.58898L54.3637-9.34163C54.3637-13.2612 52.2111-14.7287 48.9767-14.7287L39.4486-14.7287C33.1251-14.7287 29.7989-17.8647 29.7989-24.3784L29.7989-61.4093C29.7989-67.9172 33.1251-71.0535 39.4486-71.0535L102.833-71.0535C109.158-71.0535 112.483-67.9172 112.483-61.4093L112.483-24.3784C112.483-17.8647 109.158-14.7287 102.833-14.7287L77.9544-14.7287C73.9278-14.7287 72.3088-13.8349 69.2834-10.9118ZM61.5584-24.9441L71.149-31.9608L80.7286-24.9441C83.2059-23.1434 86.2353-24.5914 85.0072-28.1038L81.3066-39.3123L90.9136-46.169C93.008-47.7473 92.8019-51.3517 89.254-51.3517L77.384-51.2375L73.8086-62.5092C72.768-65.5901 69.5303-65.5901 68.484-62.5092L64.9085-51.2375L52.9759-51.3517C49.5423-51.3517 49.1078-47.7473 51.3164-46.169L60.9915-39.2552L57.2283-28.1038C56.0573-24.8198 59.024-23.0863 61.5584-24.9441Z"/>
</svg>