<svg xmlns="http://www.w3.org/2000/svg" viewBox="12.4609 -96.3295 125.19 122.14">
  <path d="M23.17 17.2377L128.49 17.2377L128.49 7.58286C128.49 4.64652 126.664 2.87711 123.779 2.87711L122.263 2.87711L122.263-55.0346L126.035-55.0346C130.468-55.0346 133.081-58.3704 133.081-61.6482C133.081-64.0789 131.737-66.3155 128.938-67.9655L83.5525-94.1207C81.2139-95.4772 78.4023-96.3295 75.8301-96.3295C73.2525-96.3295 70.4412-95.4772 68.1026-94.1207L22.7172-67.9655C19.9119-66.3155 18.5742-64.0789 18.5742-61.6482C18.5742-58.3704 21.1872-55.0346 25.6201-55.0346L29.3975-55.0346L29.3975 2.87711L27.8809 2.87711C24.9965 2.87711 23.17 4.64652 23.17 7.58286ZM19.1315 25.8082L130.925 25.8082C134.505 25.8082 137.652 22.8889 137.652 19.1321C137.652 15.4953 134.505 12.4615 130.925 12.4615L19.1315 12.4615C15.5518 12.4615 12.4609 15.4953 12.4609 19.1321C12.4609 22.8318 15.5518 25.8082 19.1315 25.8082ZM61.1564-6.47411C58.3846-6.47411 56.1128-8.29457 56.1128-11.4087C56.1128-13.9528 58.1397-15.7452 59.9873-16.9928C62.41-18.8599 63.6265-21.8847 63.6265-24.9626C63.6265-25.359 63.6123-25.7156 63.5193-26.1856L58.2949-26.1856C56.4069-26.1856 55.231-27.2424 55.231-28.9481C55.231-30.654 56.4069-31.7677 58.2949-31.7677L62.3956-31.7677C61.9331-33.7416 61.4569-35.6549 61.4569-37.6296C61.4569-47.1938 70.875-51.0256 80.0518-51.0256C82.9399-51.0256 85.2497-50.8398 87.1485-50.4084C90.6735-49.7442 93.3976-48.2923 93.3976-44.7947C93.3976-42.5477 91.718-40.9883 89.2426-40.9883C88.3274-40.9883 87.4993-41.0613 86.854-41.1908C85.7884-41.323 83.4954-41.5203 82.3381-41.5203C77.4505-41.5203 73.8626-39.6161 73.8626-35.4701C73.8626-34.2045 74.0933-33.1177 74.4416-31.7677L86.0494-31.7677C87.9377-31.7677 89.1707-30.5967 89.1707-28.9481C89.1707-27.2995 87.9371-26.1856 86.0494-26.1856L75.634-26.1856C75.6589-25.9755 75.6624-25.738 75.6624-25.4408C75.6624-21.9293 74.6058-18.7084 71.7046-16.788L71.7046-16.4932L88.121-16.4932C90.8929-16.4932 93.3466-14.9009 93.3466-11.4548C93.3466-8.35223 91.2355-6.47411 88.121-6.47411Z"/>
</svg>