<svg xmlns="http://www.w3.org/2000/svg" viewBox="12.4609 -94.8695 121.18 119.22">
  <path d="M35.8572 24.3488L110.248 24.3488C119.71 24.3488 125.386 18.6839 125.386 9.85543L125.386-23.7479C122.197-22.3293 118.672-21.5465 114.95-21.5465C109.817-21.5465 105.005-23.0401 101.005-25.5917C96.9948-23.0401 92.1824-21.5465 87.0548-21.5465C81.9217-21.5465 77.1093-23.0401 73.1099-25.6431C69.0476-23.0401 64.2353-21.5465 59.1025-21.5465C53.9745-21.5465 49.1622-23.0401 45.1518-25.6488C41.0953-23.0401 36.2832-21.5465 31.1498-21.5465C27.433-21.5465 23.9088-22.3129 20.7138-23.715L20.7138 9.85543C20.7138 18.6836 26.3896 24.3488 35.8572 24.3488ZM43.2493 11.5785L43.2493-7.10512C43.2493-9.53868 44.8665-11.0931 47.2946-11.0931L66.8974-11.0931C69.3254-11.0931 70.8853-9.53868 70.8853-7.10512L70.8853 11.5785ZM84.9478 6.24721C82.5197 6.24721 80.9027 4.69254 80.9027 2.25898L80.9027-11.7671C80.9027-14.2007 82.5197-15.7554 84.9478-15.7554L104.39-15.7554C106.818-15.7554 108.378-14.2007 108.378-11.7671L108.378 2.25898C108.378 4.69254 106.818 6.24721 104.39 6.24721ZM26.8328-80.3908L119.262-80.3908L119.262-80.6051C119.262-89.1551 113.422-94.8695 104.747-94.8695L41.3475-94.8695C32.6723-94.8695 26.8328-89.1551 26.8328-80.6051ZM13.7213-55.8564L132.373-55.8564C132.129-56.396 131.834-56.878 131.476-57.4173L121.4-72.5515L24.6943-72.5515L14.6186-57.4173C14.2607-56.878 13.9653-56.396 13.7213-55.8564ZM31.1497-29.3856C36.706-29.3856 41.6995-31.7956 45.1517-35.6772C48.5471-31.7956 53.5515-29.3856 59.1023-29.3856C64.6584-29.3856 69.6573-31.795 73.1098-35.6769C76.5052-31.795 81.4987-29.3856 87.0547-29.3856C92.611-29.3856 97.6099-31.7956 101.005-35.6201C104.4-31.7956 109.394-29.3856 114.95-29.3856C125.31-29.3856 133.639-37.7754 133.639-47.8098L133.639-48.017L12.4609-48.017L12.4609-47.7054C12.4609-37.6708 20.7898-29.3856 31.1497-29.3856Z"/>
</svg>