<svg xmlns="http://www.w3.org/2000/svg" viewBox="12.4609 -111.191 187.07 120.38">
  <path d="M56.8539 9.19005C65.9573 9.19005 73.4574 1.75232 73.4574-7.41375C73.4574-16.5686 65.9518-24.0118 56.8539-24.0118C47.6933-24.0118 40.193-16.5686 40.193-7.41375C40.193 1.74683 47.6933 9.19005 56.8539 9.19005ZM155.944 9.19005C165.042 9.19005 172.548 1.74683 172.548-7.41375C172.548-16.5686 165.042-24.0118 155.944-24.0118C146.789-24.0118 139.283-16.5631 139.283-7.41375C139.283 1.74683 146.784 9.19005 155.944 9.19005ZM29.6728-1.10359L33.6508-1.10359C33.1158-3.08729 32.8199-5.24806 32.8199-7.41375C32.8199-20.6244 43.6377-31.3848 56.8539-31.3848C70.0074-31.3848 80.8249-20.6244 80.8249-7.41375C80.8249-5.24806 80.529-3.08729 79.994-1.10359L132.741-1.10359C132.206-3.08729 131.91-5.24806 131.91-7.41375C131.91-20.6189 142.733-31.3848 155.944-31.3848C169.098-31.3848 179.915-20.6244 179.915-7.41375C179.915-5.24806 179.619-3.08729 179.09-1.10359L183.457-1.10359C193.366-1.10359 199.527-7.54745 199.527-17.5849L199.527-40.8853C199.527-47.8493 196.763-56.0094 192.55-62.2466L190.307-65.5441C183.758-75.1682 175.592-78.9845 162.549-78.9845L149.242-78.9845L149.242-64.4621C149.242-55.4453 143.52-49.77 134.929-49.77L109.843-49.77C101.195-49.77 95.4732-55.4453 95.4732-64.4621L95.4732-76.5741C89.2043-74.888 85.4566-73.3722 78.0308-68.7515L58.9633-56.814L41.5692-54.6852C22.6532-52.3942 12.4609-42.9962 12.4609-26.9259L12.4609-18.6273C12.4609-7.19199 19.2241-1.10359 29.6728-1.10359ZM109.854-57.9354L134.935-57.9354C139.073-57.9354 141.204-60.0156 141.204-64.5736L141.204-84.4464C141.204-88.9415 139.073-91.0791 134.935-91.0791L109.854-91.0791C105.664-91.0791 103.533-88.9415 103.533-84.4464L103.533-64.5736C103.533-60.0156 105.664-57.9354 109.854-57.9354ZM128.584-88.7259L136.518-88.7259L136.518-97.1223C136.518-100.779 139.038-103.378 142.623-103.378C146.146-103.378 148.729-100.779 148.729-97.1223L148.729-92.6096C148.729-90.4144 150.498-88.6456 152.693-88.6456C154.888-88.6456 156.662-90.4144 156.662-92.6096L156.662-97.0344C156.662-105.397 150.912-111.191 142.623-111.191C134.335-111.191 128.584-105.397 128.584-97.0344Z"/>
</svg>