<svg xmlns="http://www.w3.org/2000/svg" viewBox="12.4609 -87.7173 140.95 104.91">
  <path d="M101.621-35.2606C101.689-44.4697 100.999-54.1518 98.2042-64.0286C94.5717-75.8705 87.882-80.4612 73.9905-80.4612L71-80.4612C39.3233-80.4612 12.4609-59.7131 12.4609-35.2606C12.4609-10.8082 39.3233 9.93441 71 9.93441L73.9905 9.93441C87.9446 9.93441 94.6343 5.34925 98.2042-6.49266C100.999-16.3694 101.689-26.0516 101.621-35.2606ZM147.028-61.9958L108.187-61.9958C108.921-59.1095 109.872-52.6722 110.19-49.2717L147.028-49.2772C150.545-49.2772 153.413-52.0828 153.413-55.6052C153.413-59.191 150.551-61.9958 147.028-61.9958ZM147.028-41.6458L110.692-41.6458C110.812-39.1141 110.812-31.4072 110.692-28.8755L147.028-28.8755C150.551-28.8755 153.413-31.7319 153.413-35.2552C153.413-38.7778 150.551-41.6458 147.028-41.6458ZM147.028-21.2441L110.19-21.2386C109.815-17.0443 109.149-12.7821 108.187-8.46291L147.028-8.4684C150.551-8.4684 153.413-11.3248 153.413-14.8535C153.413-18.3704 150.551-21.2441 147.028-21.2441ZM120.371 1.6476C113.626 8.37994 122.772 17.196 129.527 11.2279C140.896 1.22282 143.368-17.6909 135.946-36.0097L134.89-38.6137C129.412-52.1382 130.474-65.259 137.407-72.1689C144.157-78.9012 135.011-87.7173 128.245-81.7492C116.876-71.7386 114.415-52.8304 121.837-34.5116L122.887-31.9076C128.371-18.3776 127.309-5.26228 120.371 1.6476Z"/>
</svg>