<svg xmlns="http://www.w3.org/2000/svg" viewBox="8.72266 -88.5179 106.64 106.64">
  <path d="M62.0422 18.1212C91.4941 18.1212 115.367-5.75194 115.367-35.1983C115.367-64.6447 91.4941-88.5179 62.0422-88.5179C32.5958-88.5179 8.72266-64.6447 8.72266-35.1983C8.72266-5.75194 32.5958 18.1212 62.0422 18.1212ZM51.7451-7.40533C46.9916-7.40533 44.3251-9.72434 44.1434-14.4213L42.7645-43.1099L51.3358-34.6012L51.8384-17.0668C51.8952-15.8346 52.7126-15.0285 53.8877-15.0285C55.1932-15.0285 56.1028-15.8915 56.046-17.1233L55.666-30.2029L59.9312-25.9432L59.9312-17.0662C59.9312-15.8341 60.7423-15.0282 62.0999-15.0282C63.343-15.0282 64.1596-15.8341 64.1596-17.0662L64.1596-21.7206L68.0996-17.8374L68.0912-17.1233C68.0915-15.8915 68.9495-15.0285 70.1976-15.0285C70.3911-15.0285 70.5694-15.0759 70.6427-15.1442L70.7604-15.1659L77.2572-8.67461L76.9039-8.48843C75.6909-7.69492 74.1778-7.40533 72.3481-7.40533ZM81.024-11.5991L37.7966-54.7636C36.3462-56.1624 36.341-58.5285 37.7966-59.9732C39.2528-61.4346 41.6703-61.4346 43.1262-59.9732L86.2284-16.8199C87.6898-15.3585 87.6898-13.0547 86.2284-11.6046C84.8348-10.1435 82.4744-10.2003 81.024-11.5991ZM80.6873-29.1607L72.9141-36.9394L73.0507-43.0725C73.0504-44.487 72.3019-45.35 70.9448-45.35C69.7645-45.35 68.8906-44.5435 68.8338-43.1917L68.7694-41.0841L64.1596-45.5742L64.1596-45.9842C64.1596-47.2273 63.3425-47.9764 62.0999-47.9764C62.0245-47.9764 61.8958-47.9729 61.8168-47.9708L61.8168-47.9686L49.6309-60.1029L49.631-60.1029C49.7452-60.4656 49.8594-60.7712 50.0878-61.1339C51.3439-63.7888 54.2641-65.219 58.4748-65.219L65.6021-65.219C71.5884-65.219 74.8508-62.3043 74.8508-57.4226L74.8508-55.4426L83.9981-55.4426C86.1606-55.4426 87.7469-54.0328 87.7414-51.8649C87.7359-49.7598 86.1606-48.2984 83.9981-48.2984L81.624-48.2984ZM56.2302-55.4426L67.9114-55.4426L67.8543-57.5673C67.7401-58.634 66.9843-59.4423 65.6848-59.4423L58.457-59.4423C57.2143-59.4423 56.3443-58.634 56.2872-57.5673Z"/>
</svg>