<svg xmlns="http://www.w3.org/2000/svg" viewBox="8.72266 -88.5802 106.64 106.64">
  <path d="M62.0422 18.0589C91.4936 18.0589 115.367-5.80932 115.367-35.2606C115.367-64.712 91.4936-88.5802 62.0422-88.5802C32.5964-88.5802 8.72266-64.712 8.72266-35.2606C8.72266-5.80932 32.5964 18.0589 62.0422 18.0589ZM62.0422 0.677054C42.1819 0.677054 26.1103-15.4003 26.1103-35.2606C26.1103-55.1209 42.1819-71.1983 62.0422-71.1983C81.9025-71.1983 97.9799-55.1209 97.9799-35.2606C97.9799-15.4003 81.9025 0.677054 62.0422 0.677054ZM36.9455-30.6445C36.9455-25.7085 40.4404-22.094 45.3094-22.094C46.6381-22.094 48.0392-22.353 49.5023-22.9958C50.8526-22.1196 53.2632-20.7678 56.5058-20.5784C55.9294-23.2565 54.0624-27.2122 52.5279-30.107C55.6853-30.2856 57.6149-31.8643 58.4425-33.9626C59.5052-33.3888 60.6991-33.0567 62.0367-33.0567C63.3799-33.0567 64.5738-33.3888 65.6365-33.9626C66.4641-31.8643 68.3937-30.2856 71.5511-30.107C70.0165-27.2122 68.1496-23.2565 67.5735-20.5784C70.8158-20.7678 73.2209-22.1196 74.5712-22.9958C76.0398-22.353 77.4412-22.094 78.7696-22.094C83.6386-22.094 87.1335-25.7085 87.1335-30.6445C87.1335-32.8605 86.2977-35.2013 84.5034-37.293C85.8567-39.1201 86.438-41.1445 86.438-42.9899C86.438-47.5834 83.2005-51.9304 78.8505-52.8917C77.9715-57.3089 72.9913-60.2189 68.3883-60.2189C66.0532-60.2189 63.7966-59.5303 62.0367-58.0003C60.2824-59.5303 58.0257-60.2189 55.6906-60.2189C51.0879-60.2189 46.102-57.3089 45.2285-52.8917C40.873-51.9304 37.641-47.5834 37.641-42.9899C37.641-41.1445 38.2223-39.1201 39.5701-37.293C37.7812-35.2013 36.9455-32.8605 36.9455-30.6445ZM62.0367-10.045C63.9921-10.045 65.3692-10.9025 65.3692-11.9749C65.3692-13.2894 65.0527-16.9676 65.0527-19.2345C65.0527-23.2916 69.5195-31.504 70.3928-32.976L67.4545-34.754C66.377-32.8808 65.3956-31.2384 63.7997-27.8162L63.7833-34.0697L60.2167-34.0862L60.2221-27.8107C58.6318-31.2384 57.6285-32.9028 56.6467-34.6768L53.7685-32.7616C54.5023-31.504 59.0262-23.2916 59.0262-19.2345C59.0262-16.9676 58.6527-13.2894 58.6527-11.9749C58.6527-10.9025 60.0297-10.045 62.0367-10.045Z" />
</svg>