<svg xmlns="http://www.w3.org/2000/svg" viewBox="-0.554396 -88.5802 115.92 106.64">
  <path d="M4.7746-46.872C0.495782-46.872-0.554396-42.6439 1.74006-39.7604L14.9474-22.9637C16.4107-21.0423 19.2627-21.0423 20.7776-22.9637L33.9278-39.7662C36.1597-42.6439 35.1666-46.872 30.9504-46.872ZM115.367-35.2606C115.367-64.712 91.4365-88.5802 62.0422-88.5802C32.5964-88.5802 8.72815-64.7175 8.72266-35.1412C8.72815-30.3518 12.6236-26.4558 17.4136-26.4558C22.2094-26.4558 26.1103-30.3573 26.1103-35.1467C26.1103-55.1209 42.1819-71.1983 62.0422-71.1983C81.9025-71.1983 97.9799-55.1209 97.9799-35.2606C97.9799-15.4003 81.9025 0.677054 62.0422 0.677054C52.4927 0.677054 44.504-2.75943 37.4963-9.08667C33.4046-12.656 28.2042-13.8575 24.2926-10.021C20.8426-6.64715 20.6689-1.22632 25.1768 3.15276C35.2649 13.0713 48.9618 18.0589 62.0422 18.0589C91.4365 18.0589 115.367-5.80932 115.367-35.2606ZM62.0422-13.2299C64.8407-13.2299 67.7976-14.5878 67.7976-19.094L67.7976-45.576L76.6896-45.576C79.3577-45.576 81.344-47.2826 81.344-50.1574C81.344-52.9287 79.4093-54.7384 76.6896-54.7384L47.3946-54.7384C44.6697-54.7384 42.6834-52.8716 42.6834-50.1574C42.6834-47.4429 44.6752-45.576 47.3946-45.576L56.2866-45.576L56.2866-19.094C56.2866-14.5878 59.1864-13.2299 62.0422-13.2299ZM49.791-29.09C49.9889-29.09 50.1865-29.1523 50.3899-29.2146L74.6166-37.6732C75.2622-37.8766 75.5852-38.3246 75.5852-38.9704C75.5852-39.6429 75.0588-40.2622 74.3558-40.2622C74.1579-40.2622 73.9603-40.1999 73.7569-40.1321L49.5192-31.6734C48.8794-31.4703 48.5561-31.0168 48.5561-30.382C48.5561-29.7188 49.0727-29.09 49.791-29.09ZM49.791-21.2454C49.9889-21.2454 50.1865-21.3077 50.3899-21.3755L74.6166-29.7771C75.2622-29.9802 75.5852-30.4282 75.5852-31.0685C75.5852-31.7468 75.0588-32.366 74.3558-32.366C74.1579-32.366 73.9603-32.3037 73.7569-32.2359L49.5192-23.8344C48.8794-23.6313 48.5561-23.1207 48.5561-22.4801C48.5561-21.8227 49.0727-21.2454 49.791-21.2454Z" />
</svg>