<svg xmlns="http://www.w3.org/2000/svg" viewBox="12.4609 -97.1348 115.15 119.43">
  <path d="M88.1696 2.13448C94.4072 2.13448 98.3634-2.23715 98.3634-9.15427C98.3634-16.0717 94.4646-20.3228 88.1696-20.3228C81.9366-20.3228 78.0376-16.0717 78.0376-9.15427C78.0376-2.29424 81.994 2.13448 88.1696 2.13448ZM88.1696-5.07101C87.3335-5.07101 86.8796-6.40148 86.8796-9.15427C86.8796-11.8445 87.339-13.1228 88.1696-13.1228C88.9996-13.1228 89.4639-12.0158 89.4639-9.15427C89.4639-6.2302 89.0051-5.07101 88.1696-5.07101ZM90.2299 18.6013C92.2027 19.8355 94.8008 19.2156 95.9825 17.3628L116.637-14.0245C118.011-16.1836 117.455-18.8556 115.409-19.9698C113.493-21.084 111.146-20.4641 109.844-18.6006L89.1165 12.6615C87.679 14.8832 88.2296 17.3672 90.2299 18.6013ZM117.48 19.1314C123.656 19.1314 127.612 14.7035 127.612 7.7858C127.612 0.931266 123.713-3.4398 117.48-3.4398C111.185-3.4398 107.286 0.868961 107.286 7.7858C107.286 14.7035 111.299 19.1314 117.48 19.1314ZM117.48 11.8746C116.645 11.8746 116.186 10.7096 116.186 7.7858C116.186 4.9246 116.65 3.76569 117.48 3.76569C118.368 3.76569 118.77 5.0956 118.77 7.7858C118.77 10.5383 118.373 11.8746 117.48 11.8746ZM56.1148-77.4118L71.7397-77.4118L71.7397-89.2628C71.7397-93.7596 68.2555-97.1348 63.93-97.1348C59.5477-97.1348 56.1148-93.8167 56.1148-89.2628ZM19.5356-28.5138C22.9289-28.5138 25.2341-30.0208 29.1619-33.4374C30.8472-35.0399 32.7754-35.8842 34.9798-35.8842C37.1739-35.8842 39.1342-34.691 42.0455-31.6655C44.0251-29.5539 45.9485-28.5138 48.3602-28.5138C50.7208-28.5138 52.7013-29.6107 54.6189-31.6032C57.2354-34.2041 61.0912-35.9172 63.93-35.9172C66.7689-35.9172 70.6249-34.2041 73.2414-31.6032C75.1535-29.6107 77.1395-28.5138 79.4999-28.5138C81.9115-28.5138 83.8352-29.5539 85.8148-31.6655C88.7261-34.691 90.6807-35.8842 92.8802-35.8842C95.085-35.8842 97.0076-35.0399 98.6984-33.4374C102.626-30.0208 104.931-28.5138 108.319-28.5138C112.217-28.5138 115.399-31.7922 115.399-35.8764C115.399-55.1384 99.1578-84.42 63.93-84.42C28.7023-84.42 12.4609-55.1384 12.4609-35.8764C12.4609-31.7922 15.6435-28.5138 19.5356-28.5138ZM63.93-49.9161C58.6513-49.9161 52.9965-47.2003 49.7173-43.6003C49.1189-42.8827 48.5318-42.9398 47.882-43.7145C44.9859-47.1966 40.4939-49.8886 34.8085-49.8886C31.1918-49.8886 27.8404-49.0482 24.8419-46.5627L28.4909-46.5185C33.4525-60.2994 47.501-70.4156 63.93-70.4156C80.1318-70.4156 94.0035-60.5834 99.1353-47.0932L102.22-47.1317C99.3927-49.1618 96.3778-49.8886 93.0515-49.8886C87.3662-49.8886 82.8687-47.1966 79.978-43.7145C79.3283-42.9398 78.7356-42.8825 78.1375-43.6003C74.8639-47.2003 69.2088-49.9161 63.93-49.9161ZM52.4657 22.2942C63.3966 22.2942 71.7397 16.3437 71.7397 4.83629L71.7397-38.4776L56.1148-38.4776L56.1148 4.20823C56.1148 6.30504 54.5106 7.91476 52.3515 7.91476C50.1981 7.91476 48.6559 6.19084 48.6559 3.92275C48.6559-0.513631 45.4056-3.89983 41.0529-3.89983C36.369-3.89983 33.0149-0.456251 33.0149 4.20823C33.0149 14.345 41.5924 22.2942 52.4657 22.2942Z"/>
</svg>