<svg xmlns="http://www.w3.org/2000/svg" viewBox="8.72266 -88.5802 106.64 106.64">
  <path d="M62.0422 18.0589C91.4941 18.0589 115.367-5.81424 115.367-35.2606C115.367-64.707 91.4941-88.5802 62.0422-88.5802C32.5958-88.5802 8.72266-64.707 8.72266-35.2606C8.72266-5.81424 32.5958 18.0589 62.0422 18.0589ZM47.137-60.9135L52.6476-60.9135C56.3409-60.9135 58.6566-58.6546 58.6566-54.9555C58.6566-51.2616 56.2839-48.9404 52.6476-48.9404L50.33-48.9404C48.7935-48.9404 48.2049-48.3573 48.2049-46.8153L48.2049-44.5197C48.2049-40.8096 45.9518-38.4997 42.1953-38.4997C38.4907-38.4997 36.2318-40.8154 36.2318-44.5197L36.2318-50.0248C36.2318-56.6315 40.5248-60.9135 47.137-60.9135ZM76.8772-60.9135C83.4949-60.9135 87.7824-56.6315 87.7824-50.0248L87.7824-44.5197C87.7824-40.8154 85.5235-38.4997 81.8189-38.4997C78.0624-38.4997 75.8093-40.8096 75.8093-44.5197L75.8093-46.8153C75.8093-48.3573 75.2207-48.9404 73.6842-48.9404L71.3666-48.9404C67.7301-48.9404 65.3576-51.2616 65.3576-54.9555C65.3576-58.6546 67.673-60.9135 71.3666-60.9135ZM47.137-9.36845C40.5248-9.36845 36.2318-13.6504 36.2318-20.2571L36.2318-25.7622C36.2318-29.4666 38.4907-31.7822 42.1953-31.7822C45.9518-31.7822 48.2049-29.4721 48.2049-25.7622L48.2049-23.4666C48.2049-21.9246 48.7935-21.3415 50.33-21.3415L52.6476-21.3415C56.2839-21.3415 58.6566-19.0204 58.6566-15.3264C58.6566-11.6273 56.3409-9.36845 52.6476-9.36845ZM76.8772-9.36845L71.3666-9.36845C67.673-9.36845 65.3576-11.6273 65.3576-15.3264C65.3576-19.0204 67.7301-21.3415 71.3666-21.3415L73.6842-21.3415C75.2207-21.3415 75.8093-21.9246 75.8093-23.4666L75.8093-25.7622C75.8093-29.4721 78.0624-31.7822 81.8189-31.7822C85.5235-31.7822 87.7824-29.4666 87.7824-25.7622L87.7824-20.2571C87.7824-13.6504 83.4949-9.36845 76.8772-9.36845Z"/>
</svg>