<svg xmlns="http://www.w3.org/2000/svg" viewBox="8.72266 -106.194 113.55 120.34">
  <path d="M56.8356-4.76862C38.5345-4.76862 24.757-17.5305 24.757-37.7258C24.757-57.6604 37.1073-79.8348 67.7795-89.9602C72.449-91.5347 75.0633-93.4614 75.0633-98.1285C75.0633-104.754 69.6181-106.194 64.3238-105.247C42.6325-101.383 8.72266-76.1904 8.72266-38.1411C8.72266-10.079 28.7334 11.3228 58.7357 11.3228C67.5341 11.3228 76.6982 8.60948 85.1828 3.91702L72.9698-8.3531C67.8805-6.11492 62.4402-4.76862 56.8356-4.76862ZM69.5849-66.0781L70.1907-65.5288C74.3479-68.6784 79.7983-70.6326 85.3116-70.6326C96.7199-70.6326 105.64-62.3001 105.64-50.7814C105.64-45.9316 103.91-40.2632 100.811-34.6238L112.847-22.4731C118.151-31.1946 121.379-40.9815 121.379-50.9016C121.379-70.9021 107.485-85.2077 86.4077-85.2077C73.7302-85.2077 60.5793-80.0545 52.1456-71.1217C58.2189-72.5524 64.909-70.8678 69.5849-66.0781ZM118.413 10.2831C122.203 6.41988 122.27 0.164381 118.408-3.75539L63.0348-59.6422C59.2284-63.5003 52.8376-63.4435 48.9905-59.6422C45.1954-55.779 45.1328-49.5241 48.996-45.6035L104.369 10.2831C108.175 14.1461 114.566 14.0895 118.413 10.2831ZM113.196 5.01994C111.995 6.28316 110.01 6.28288 108.747 5.01994L78.3377-25.4981L82.6151-29.9986L113.196 0.633267C114.402 1.83911 114.459 3.81381 113.196 5.01994Z"/>
</svg>