<svg xmlns="http://www.w3.org/2000/svg" viewBox="12.4609 -75.1672 112.25 87.4">
  <path d="M12.4609-58.4112C12.4609-54.8018 15.3528-51.9097 18.9679-51.9097L19.4455-51.9097C36.7508-51.9097 37.8251-62.2158 44.5541-62.2158C51.2675-62.2158 52.8729-51.9097 68.5879-51.9097C84.2974-51.9097 85.9083-62.2158 92.6217-62.2158C99.3507-62.2158 100.425-51.9097 117.73-51.9097L118.208-51.9097C121.817-51.9097 124.709-54.8018 124.709-58.4112C124.709-61.9692 121.817-64.8611 118.208-64.8611L117.73-64.8611C114.395-64.8611 111.818-66.0581 107.285-69.3033C103.993-71.7227 99.1982-75.1672 92.6217-75.1672C86.0238-75.1672 81.2231-71.7068 77.9314-69.2821C74.3956-66.6706 72.13-64.8611 68.5879-64.8611C65.0403-64.8611 62.7747-66.6706 59.239-69.2821C55.9472-71.7068 51.1466-75.1672 44.5541-75.1672C37.9721-75.1672 33.1766-71.7227 29.8849-69.3033C25.3525-66.0581 22.7751-64.8611 19.4455-64.8611L18.9679-64.8611C15.3528-64.8611 12.4609-61.9692 12.4609-58.4112ZM44.5541-46.8717C37.9721-46.8717 33.1766-43.4272 29.8849-41.0078C25.3525-37.7626 22.7751-36.5656 19.4455-36.5656L18.9679-36.5656C15.3528-36.5656 12.4609-33.6737 12.4609-30.1157C12.4609-26.5005 15.3528-23.6087 18.9679-23.6087L19.4455-23.6087C36.7508-23.6087 37.8251-33.9148 44.5541-33.9148C45.2453-33.9148 45.8804-33.7929 46.4532-33.6038L54.8233-43.9763C52.0185-45.5492 48.6735-46.8717 44.5541-46.8717ZM118.208-36.5656L117.73-36.5656C114.395-36.5656 111.818-37.7626 107.285-41.0078C103.993-43.4272 99.1982-46.8717 92.6217-46.8717C88.4394-46.8717 84.9232-45.4347 82.1129-43.7992L90.4256-33.5409C91.1129-33.7926 91.8622-33.9148 92.6217-33.9148C99.3507-33.9148 100.425-23.6087 117.73-23.6087L118.208-23.6087C121.817-23.6087 124.709-26.5005 124.709-30.1157C124.709-33.6737 121.817-36.5656 118.208-36.5656ZM52.6007-14.3067L84.1639-14.3067C88.5576-14.3067 90.7873-18.5424 87.6024-22.4486L72.7313-40.8165C70.225-43.9306 66.5396-43.8219 64.0901-40.8165L49.2138-22.4541C46.086-18.5995 48.1389-14.3067 52.6007-14.3067ZM61.1748-24.0272L61.1748 4.89477C61.1748 8.81187 64.3741 12.2341 68.5821 12.2341C72.7847 12.2341 75.9895 8.81187 75.9895 4.89477L75.9895-24.0272C75.9895-27.9443 72.7847-31.3665 68.5821-31.3665C64.3741-31.3665 61.1748-27.9443 61.1748-24.0272Z"/>
</svg>