<svg xmlns="http://www.w3.org/2000/svg" viewBox="12.4609 -83.6567 96.8 96.8">
  <path d="M31.6184 13.1464L90.1011 13.1464C102.194 13.1464 109.259 6.08236 109.259-5.99457L109.259-64.5157C109.259-76.5927 102.194-83.6567 90.1011-83.6567L31.6184-83.6567C19.5311-83.6567 12.4609-76.5921 12.4609-64.5157L12.4609-5.99457C12.4609 6.08179 19.5311 13.1464 31.6184 13.1464ZM34.2553-4.19701C31.2643-4.19701 29.7989-5.42306 29.7989-8.65888L29.7989-61.8514C29.7989-65.0927 31.2643-66.3133 34.2553-66.3133L87.4643-66.3133C90.4564-66.3133 91.9207-65.0927 91.9207-61.8514L91.9207-8.65888C91.9207-5.42306 90.4564-4.19701 87.4643-4.19701ZM48.0959-12.9426C51.2216-12.9426 52.9016-14.0757 55.3103-17.9033L60.7162-26.4921L61.1883-26.4921L66.3093-17.9033C68.49-14.1899 70.2893-12.9426 73.5237-12.9426C77.6799-12.9426 80.4691-15.5954 80.4691-19.5122C80.4691-21.3796 79.8142-22.9969 78.2698-25.0195L70.4697-35.1391L78.2745-45.3836C79.8243-47.4113 80.4792-49.0286 80.4792-50.8908C80.4792-54.7915 77.6901-57.45 73.5506-57.45C70.3159-57.45 68.5056-56.2027 66.3417-52.4999L61.2652-43.9059L60.7876-43.9059L55.3918-52.5054C52.9941-56.3169 51.3034-57.45 48.1722-57.45C44.027-57.45 41.2269-54.7805 41.2269-50.8749C41.2269-48.9962 41.8818-47.3844 43.4423-45.3402L51.1878-35.1665L43.3718-24.9978C41.8223-22.9701 41.1728-21.3637 41.1728-19.4963C41.1728-15.5954 43.9562-12.9426 48.0959-12.9426Z" />
</svg>