<svg xmlns="http://www.w3.org/2000/svg" viewBox="12.4609 -82.0005 118.99 93.59">
  <path d="M54.3886-82.0005C24.5492-82.0005 12.4609-69.5862 12.4609-39.0685L12.4609-7.52266C12.4609 4.53371 19.5261 11.5934 31.599 11.5934L112.315 11.5934C124.383 11.5934 131.454 4.53428 131.454-7.52266L131.454-39.0685C131.454-69.5862 119.365-82.0005 89.5262-82.0005ZM49.4554-15.7903C46.4014-15.7903 44.4914-17.5015 44.4914-20.2811C44.4914-21.639 44.7357-23.0276 45.3602-24.2085L56.3359-46.3309L56.3359-46.5856L48.6467-46.5856C45.6986-46.5856 44.1422-48.3706 44.1422-50.6391C44.1422-53.4219 46.3267-54.7499 48.6467-54.7499L62.2324-54.7499C65.0575-54.7499 67.1906-52.9599 67.1906-49.9627C67.1906-48.3651 66.5933-46.9315 66.2024-46.0408L55.2997-24.2091L55.2997-23.9543L63.892-23.9543C65.9271-23.9543 67.826-22.7976 67.826-19.8438C67.826-17.3467 66.3268-15.7903 63.892-15.7903ZM77.7483-15.0621C74.3868-15.0621 72.6643-17.0291 72.6643-20.448L72.6643-49.3116C72.6643-52.7298 74.3874-54.692 77.7431-54.692L85.1746-54.692C93.3553-54.692 98.1628-50.4619 98.1628-41.7845C98.1628-38.0229 96.965-33.6579 93.9591-31.4785L97.0247-22.7422C97.4161-21.8284 97.5629-21.2116 97.62-20.1356C97.7342-17.2026 95.6766-15.0621 92.8433-15.0621C90.2559-15.0621 88.5548-16.484 87.6284-19.4601L84.571-29.3407L82.7699-29.3407L82.7699-20.448C82.7699-17.0807 81.0475-15.0621 77.7483-15.0621ZM82.7699-36.2291L84.2533-36.2291C86.836-36.2291 87.7607-39.0179 87.7607-41.597C87.7607-44.0539 86.7655-47.0742 84.3107-47.0742L82.7699-47.0742Z"/>
</svg>