<svg xmlns="http://www.w3.org/2000/svg" viewBox="11.2588 -98.8411 127.2 127.14">
  <path d="M74.8301 28.3017C109.895 28.3017 138.454-0.257224 138.454-35.2697C138.454-70.2822 109.895-98.8411 74.8301-98.8411C39.8177-98.8411 11.2588-70.2822 11.2588-35.2697C11.2588-0.257224 39.8177 28.3017 74.8301 28.3017ZM44.5173-9.14343C41.9417-9.14343 40.7431-10.5506 40.7431-12.493C40.7431-14.2695 41.6677-15.6767 42.7306-16.9532L54.5906-32.5431C58.1644-37.2529 61.3557-42.2488 61.3557-47.3352C61.3557-52.0324 59.0988-56.0035 54.7834-56.0035C50.7144-56.0035 48.9324-52.8468 47.8116-48.1594C47.2563-46.3 46.0853-45.4205 44.2259-45.4205C41.9643-45.4205 40.8235-46.9659 40.8235-49.0088C40.8235-55.764 46.7265-62.6248 54.8085-62.6248C63.5062-62.6248 69.1101-56.2717 69.1101-47.7071C69.1101-42.0577 67.052-37.3683 60.9354-29.5854L50.817-16.3753L50.817-15.923L66.8864-15.923C68.854-15.923 70.1581-14.6716 70.1581-12.5207C70.1581-10.5004 68.854-9.14343 66.8864-9.14343ZM93.6378-7.91457C80.9068-7.91457 77.0819-22.3498 77.0819-34.5383C77.0819-47.2719 80.7408-62.4916 93.7459-62.4916C100.034-62.4916 105.376-59.031 106.746-53.4319C107.015-52.5974 107.123-51.7656 107.123-51.072C107.123-49.1823 106.138-47.6697 103.854-47.6697C101.909-47.6697 100.929-48.5543 100.079-50.3384C98.951-53.4424 96.8248-55.8176 93.5599-55.8176C85.8116-55.8176 84.8665-42.1382 84.8665-34.6361C84.8665-34.3647 84.8665-34.0958 84.8665-33.852L85.1078-33.852C86.5503-39.4613 90.5159-43.2564 95.8892-43.2564C104.464-43.2564 108.671-34.9204 108.671-26.2099C108.671-16.2229 103.298-7.91457 93.6378-7.91457ZM93.5323-14.5886C98.4885-14.5886 100.781-20.7235 100.781-25.8129C100.833-31.0104 98.6468-36.9266 93.5046-36.9266C88.5535-36.9266 86.0677-31.2768 86.0677-26.1371C86.0677-21.0677 88.2846-14.5886 93.5323-14.5886Z"/>
</svg>