<svg xmlns="http://www.w3.org/2000/svg" viewBox="11.2588 -98.8411 127.2 127.14">
  <path d="M74.8301 28.3017C109.951 28.3017 138.454-0.149147 138.454-35.2697C138.454-70.3903 109.951-98.8411 74.8301-98.8411C39.7624-98.8411 11.2588-70.3903 11.2588-35.2697C11.2588-0.149147 39.7624 28.3017 74.8301 28.3017ZM74.8301 19.2307C44.6948 19.2307 20.3549-5.13439 20.3549-35.2697C20.3549-65.405 44.6948-89.7701 74.8301-89.7701C104.965-89.7701 129.331-65.405 129.331-35.2697C129.331-5.13439 104.965 19.2307 74.8301 19.2307ZM73.3047-5.55984C88.0186-5.55984 96.161-16.3812 96.161-37.6223C96.161-55.4853 87.9608-64.9796 74.4029-64.9796C61.8327-64.9796 53.5269-57.1286 53.5269-45.1916C53.5269-33.7672 62.1668-26.7277 72.1163-26.7277C80.4799-26.7277 85.6949-30.7989 87.8513-35.9764L88.3036-35.9764C88.4092-21.118 82.4504-12.5479 73.2268-12.5479C68.6527-12.5479 65.2496-14.6265 62.7089-18.3637C61.7766-19.7257 60.7163-20.6554 58.9623-20.6554C56.8918-20.6554 55.4042-19.2232 55.4042-17.0973C55.4042-16.4038 55.5374-15.8459 55.7234-15.1549C57.1105-10.9807 63.2326-5.55984 73.3047-5.55984ZM74.6365-32.9771C67.0792-32.9771 61.8617-38.3304 61.8617-45.6188C61.8617-53.2237 67.0843-58.3608 74.6919-58.3608C81.9777-58.3608 87.4692-52.9297 87.4692-45.483C87.4692-38.358 82.1134-32.9771 74.6365-32.9771Z" />
</svg>