<svg xmlns="http://www.w3.org/2000/svg" viewBox="16.084 -86.5692 230.77 102.45">
  <path d="M105.322-13.1793C103.751-13.1793 102.422-14.1116 102.422-16.1294C102.422-16.8732 102.502-17.4586 102.688-18.1748L108.816-43.084C109.323-45.6898 110.969-46.9412 113.495-46.9412C116.206-46.9412 117.744-45.7425 118.357-43.084L124.537-18.1748C124.723-17.431 124.937-16.8455 124.937-16.1294C124.937-14.481 123.685-13.1793 121.826-13.1793C120.205-13.1793 119.167-14.1091 118.768-15.9685L117.541-20.9732L109.551-20.9732L108.405-16.0213C108.058-14.1342 107.151-13.1793 105.322-13.1793ZM110.38-25.6572L116.687-25.6572L113.6-39.6463L113.387-39.6463ZM132.489-13.1793C130.521-13.1793 129.325-14.4558 129.325-16.4762L129.325-43.6444C129.325-45.637 130.521-46.9412 132.489-46.9412C134.481-46.9412 135.705-45.637 135.705-43.6444L135.705-16.4762C135.705-14.4558 134.481-13.1793 132.489-13.1793ZM144.579-13.207C142.586-13.207 141.39-14.4835 141.39-16.4762L141.39-43.1367C141.39-45.2349 142.534-46.4336 144.579-46.4336L150.92-46.4336C157.848-46.4336 161.073-42.307 161.073-36.2479C161.073-32.8073 159.911-29.1582 156.782-27.497L160.437-18.0995C160.756-17.3808 160.945-16.5566 160.945-15.9987C160.945-14.3503 159.666-13.207 157.856-13.207C156.238-13.207 155.361-14.1618 154.776-15.7273L150.905-26.0873L147.665-26.0873L147.665-16.4762C147.665-14.4558 146.494-13.207 144.579-13.207ZM147.665-30.5879L150.467-30.6155C153.283-30.6432 154.693-33.1664 154.693-36.1147C154.693-38.9826 153.227-41.6415 150.44-41.6415L147.665-41.6415ZM66.8758 15.8787C77.4611 15.8787 85.7418 7.59803 85.7418-2.98719C85.7418-13.5196 77.4611-21.7476 66.8758-21.7476C56.3183-21.7476 48.0903-13.5196 48.0903-2.98719C48.0903 7.59803 56.3183 15.8787 66.8758 15.8787ZM197.602 15.8787C208.134 15.8787 216.415 7.59803 216.415-2.98719C216.415-13.5196 208.134-21.7476 197.602-21.7476C187.017-21.7476 178.736-13.5196 178.736-2.98719C178.736 7.59803 187.017 15.8787 197.602 15.8787ZM197.409-59.9986C188.096-61.7151 181.419-62.4036 171.769-61.7904L105.195-57.6086C113.862-64.0098 123.089-70.303 134.695-76.5408C139.866-79.247 135.622-86.5692 129.915-83.5689C115.015-75.552 101.311-66.4999 89.7184-56.8674L46.0624-48.6518C26.1212-44.8771 16.084-35.8126 16.084-19.221L16.084-10.9429C16.084-2.223 20.0646 2.12948 28.9504 3.19749L42.1524 4.78589C41.612 2.68987 41.2601-0.622255 41.2601-2.98719C41.2601-17.2011 52.6091-28.5501 66.8758-28.5501C81.2229-28.5501 92.5443-17.2011 92.5443-2.98719C92.5443-1.19284 92.3835 0.810003 92.0894 2.12693L172.522 2.12693C172.147 0.704477 171.933-1.14008 171.933-2.98719C171.933-17.2011 183.282-28.5501 197.602-28.5501C211.896-28.5501 223.218-16.2263 223.218-1.98469C223.218-1.12517 223.218-0.662662 223.137 0.116431L229.296-0.552035C241.183-1.8413 246.853-8.31236 246.853-20.5132L246.853-31.478C246.853-45.6966 241.301-51.909 227.072-54.5326Z"/>
</svg>