<svg xmlns="http://www.w3.org/2000/svg" viewBox="16.1823 -98.2322 125.62 125.62">
  <path d="M136.742-93.2262C131.683-98.2322 121.03-95.0456 112.76-86.7751L94.9467-68.9623C92.592-66.6076 91.2801-66.0723 88.1489-66.2582L27.2096-68.9095C25.2821-68.9623 23.5958-68.427 22.3393-67.2233L17.2805-62.0841C16.1823-60.9607 16.5567-59.2745 18.2706-58.6588L66.4712-40.4868L46.4215-15.4613L24.206-21.9902C22.5474-22.4702 21.1854-22.0179 19.768-20.6533L17.8379-18.7232C16.7397-17.5722 16.6593-16.2102 17.8379-15.0315L58.5471 25.6776C59.7257 26.8563 61.0878 26.8286 62.2387 25.6776L64.1688 23.7475C65.5862 22.3302 65.9857 20.9958 65.5585 19.3899L59.0045-2.87832L84.0551-22.928L102.227 25.2726C102.843 27.0393 104.529 27.386 105.6 26.2627L110.739 21.2039C111.995 20.0002 112.531 18.3139 112.478 16.3336L109.774-44.6333C109.588-47.6842 110.123-48.996 112.531-51.4035L130.318-69.1912C138.561-77.4617 141.801-88.087 136.742-93.2262Z"/>
</svg>