<svg xmlns="http://www.w3.org/2000/svg" viewBox="11.2588 -105.23 222.1 129.66">
  <path d="M34.4564 7.0657C36.1274 5.10325 35.6223 2.60808 33.6599 0.462244C24.9592-9.02986 20.0132-21.4775 20.0132-35.2697C20.0132-49.0619 24.9592-61.5095 33.6599-71.0016C35.6223-73.1475 36.1274-75.6427 34.4564-77.6051C32.7327-79.6203 29.7073-79.5926 27.6393-77.3136C17.215-66.2033 11.2588-51.3962 11.2588-35.2697C11.2588-19.1432 17.215-4.33608 27.6393 6.77422C29.7073 9.05324 32.7327 9.0809 34.4564 7.0657ZM51.8948-10.6969C53.5381-12.6317 52.8773-15.049 51.151-17.3531C47.0266-22.0728 44.9808-28.4438 44.9808-35.2697C44.9808-42.0956 47.0266-48.4666 51.151-53.1863C52.8773-55.4904 53.5381-57.9077 51.8948-59.8425C50.0906-61.8326 46.8819-61.8577 44.9722-59.4455C39.4458-52.8915 36.2541-44.4299 36.2541-35.2697C36.2541-26.1095 39.4458-17.6479 44.9722-11.0939C46.8819-8.6817 50.0906-8.70681 51.8948-10.6969ZM210.16 7.0657C211.884 9.0809 214.909 9.05324 216.977 6.77422C227.401-4.33608 233.358-19.1432 233.358-35.2697C233.358-51.3962 227.401-66.2033 216.977-77.3136C214.909-79.5926 211.884-79.6203 210.16-77.6051C208.489-75.6427 208.994-73.1475 210.957-71.0016C219.657-61.5095 224.603-49.0619 224.603-35.2697C224.603-21.4775 219.657-9.02986 210.957 0.462244C208.994 2.60808 208.489 5.10325 210.16 7.0657ZM192.722-10.6969C194.526-8.70681 197.735-8.6817 199.644-11.0939C205.171-17.6479 208.362-26.1095 208.362-35.2697C208.362-44.4299 205.171-52.8915 199.644-59.4455C197.735-61.8577 194.526-61.8326 192.722-59.8425C191.026-57.9077 191.739-55.4904 193.465-53.1863C197.59-48.4666 199.636-42.0956 199.636-35.2697C199.636-28.4438 197.59-22.0728 193.465-17.3531C191.739-15.049 191.026-12.6317 192.722-10.6969ZM122.282 24.4317C155.319 24.4317 182.114-2.33794 182.114-35.3476C182.114-68.3572 155.319-95.1268 122.282-95.1268C89.3249-95.1268 62.5026-68.3572 62.5026-35.3476C62.5026-2.33794 89.3249 24.4317 122.282 24.4317ZM122.282 15.3331C94.3379 15.3331 71.6539-7.32319 71.6539-35.3476C71.6539-63.2388 94.3379-85.9227 122.282-85.9227C150.226-85.9227 172.91-63.2388 172.91-35.3476C172.91-7.32319 150.226 15.3331 122.282 15.3331ZM71.9125-79.7623C72.8499-79.7623 73.5183-79.9232 74.4029-80.5916L95.0152-95.8583C96.0606-96.6348 96.5959-97.5445 96.5959-98.59C96.5959-99.9018 95.9802-100.972 94.8794-101.965C92.4945-104.134 88.3782-105.23 84.6537-105.23C74.9608-105.23 67.3638-97.6326 67.3638-88.1056C67.3638-85.9445 67.7357-83.6727 68.3791-82.2528C69.0476-80.755 70.3292-79.7623 71.9125-79.7623ZM172.704-79.7623C174.287-79.7623 175.516-80.8078 176.237-82.2528C176.906-83.6199 177.253-85.9445 177.253-88.1056C177.253-97.6326 169.656-105.23 159.963-105.23C156.238-105.23 152.122-104.134 149.737-101.965C148.636-100.972 148.021-99.9018 148.021-98.59C148.021-97.5445 148.556-96.6348 149.601-95.8583L170.213-80.5916C171.098-79.9232 171.767-79.7623 172.704-79.7623ZM70.5198 22.7454C72.1657 24.3913 74.7638 24.3913 76.4625 22.6927L88.1685 10.959L82.3867 5.17721L70.5726 16.9636C68.9293 18.5818 68.9544 21.18 70.5198 22.7454ZM174.097 22.7454C175.662 21.18 175.687 18.5818 174.044 16.9636L162.177 5.17721L156.395 10.959L168.154 22.6927C169.853 24.3913 172.451 24.3913 174.097 22.7454ZM92.4248-28.8918L122.282-28.8918C124.408-28.8918 126.054-30.5377 126.054-32.7163L126.054-72.3194C126.054-74.4703 124.408-76.0885 122.282-76.0885C120.186-76.0885 118.513-74.4703 118.513-72.3194L118.513-36.4326L92.4248-36.4326C90.2739-36.4326 88.628-34.7591 88.628-32.7163C88.628-30.5377 90.2739-28.8918 92.4248-28.8918Z" />
</svg>