<svg xmlns="http://www.w3.org/2000/svg" viewBox="16.084 -106.89 138.04 143.24">
  <path d="M150.164 36.3531C152.262 36.3531 154.119 34.6795 154.119 32.5563L154.119-103.146C154.119-105.216 152.262-106.89 150.164-106.89C148.041-106.89 146.156-105.216 146.156-103.146L146.156 32.5563C146.156 34.6795 148.041 36.3531 150.164 36.3531ZM121.184-41.8369C129.622-41.8369 134.291-46.4255 134.291-54.7331L134.291-77.7191C134.291-85.9739 129.622-90.6153 121.184-90.6153L72.8283-90.6153C64.4428-90.6153 59.7487-85.9739 59.7487-77.7191L59.7487-54.7331C59.7487-46.4255 64.4428-41.8369 72.8283-41.8369ZM121.184 20.0206C129.622 20.0206 134.291 15.3792 134.291 7.12435L134.291-15.8616C134.291-24.1692 129.622-28.7578 121.184-28.7578L29.1912-28.7578C20.7782-28.7578 16.084-24.1692 16.084-15.8616L16.084 7.12435C16.084 15.3792 20.7782 20.0206 29.1912 20.0206Z" />
</svg>