<svg xmlns="http://www.w3.org/2000/svg" viewBox="14.9632 -94.0129 118.23 117.57">
  <path d="M16.1644-61.1675L19.1876-4.74623C19.2404-3.05015 20.5118-1.70086 22.2079-1.70086C23.8763-1.70086 25.2005-3.05015 25.2532-4.74623L26.7233-61.1951C27.0978-75.2733 33.9917-82.1145 47.9921-82.4889L104.441-83.9867C106.137-84.0395 107.486-85.3637 107.486-86.9793C107.486-88.6754 106.137-89.9192 104.441-90.0247L48.0197-93.0755C30.5184-94.0129 14.9632-83.2315 16.1644-61.1675ZM131.995-9.29152L128.997-65.7128C128.891-67.4088 127.647-68.7581 125.951-68.7581C124.283-68.7581 122.959-67.4088 122.906-65.7128L121.461-9.26386C121.087 4.81433 114.193 11.6555 100.167 12.03L43.7182 13.5277C42.0222 13.5805 40.6452 14.9047 40.6452 16.5203C40.6452 18.2164 42.0222 19.4602 43.7182 19.5657L100.139 22.6166C117.694 23.5539 133.196 12.7726 131.995-9.29152Z"/>
</svg>