<svg xmlns="http://www.w3.org/2000/svg" viewBox="16.084 -86.9585 118.01 97.44">
  <path d="M124.225-36.8253L100.274-14.6663L83.3158 2.50334C82.4942 3.35266 82.0168 4.59897 82.0168 5.87294C82.0168 8.52385 84.0847 10.4863 86.7105 10.4863C87.9845 10.4863 89.2057 9.98121 90.4873 8.75236L132.399-33.1643C133.515-34.28 134.097-35.4986 134.097-36.8253C134.097-38.1521 133.515-39.3707 132.399-40.4864L90.2108-82.6796C89.178-83.7123 87.9845-84.137 86.7105-84.137C84.0847-84.137 82.0168-82.2273 82.0168-79.5236C82.0168-78.2496 82.5218-76.9757 83.3158-76.154L100.274-59.0371ZM124.172-40.7528L105.051-41.597L57.8211-41.6246C34.5143-41.6246 25.7077-51.2274 25.7077-74.8334C25.7605-77.9625 25.8158-80.4857 25.8685-82.1843C25.8685-85.0488 23.9337-86.9585 21.1497-86.9585C18.2575-86.9585 16.9861-85.1016 16.5614-82.923C16.1895-81.2193 16.084-77.9999 16.084-74.3283C16.084-44.7294 28.3104-32.026 57.399-32.026L105.051-32.0537L124.119-32.8451C126.348-32.9507 128.152-34.677 128.152-36.8253C128.152-38.9737 126.401-40.7 124.172-40.7528Z" />
</svg>