<svg xmlns="http://www.w3.org/2000/svg" viewBox="16.084 -92.6262 147.91 114.82">
  <path d="M105.16-1.64397C102.773-1.64397 101.127-3.47323 101.127-6.10159L101.127-36.0305C101.127-39.2895 102.931-40.6188 105.74-40.6188L135.802-40.6188C138.483-40.6188 140.154-39.0006 140.154-36.6135C140.154-34.0656 138.431-32.4474 135.75-32.4474L123.24-32.4474L113.816-33.2639L123.092-24.5994L144.917-2.79848C145.714-1.94917 146.272-0.888806 146.272 0.25453C146.272 2.80247 144.626 4.42067 142.158 4.42067C140.776 4.42067 139.769 3.91559 138.92 3.11905L117.146-18.6793L108.562-27.8489L109.326-17.4292L109.326-5.99606C109.326-3.31494 107.708-1.64397 105.16-1.64397ZM35.0976 22.1923L144.977 22.1923C157.623 22.1923 163.991 15.7689 163.991 3.33696L163.991-73.7708C163.991-86.2028 157.623-92.6262 144.977-92.6262L35.0976-92.6262C22.5048-92.6262 16.084-86.2581 16.084-73.7708L16.084 3.33696C16.084 15.8242 22.5048 22.1923 35.0976 22.1923Z"/>
</svg>