<svg xmlns="http://www.w3.org/2000/svg" viewBox="16.084 -101.643 137.89 132.75">
  <path d="M23.7609 17.5768L146.345 17.5768L146.345 13.8251C146.345 11.7044 145.071 10.4581 142.897 10.4581L138.876 10.4581L138.876-59.8888L144.541-59.8888C147.514-59.8888 149.21-62.0095 149.21-64.2132C149.21-65.7761 148.283-67.2109 146.345-68.4045L92.3758-99.5321C90.0236-100.922 87.4855-101.643 85.0529-101.643C82.5675-101.643 80.0017-100.922 77.6495-99.5321L23.6801-68.4045C21.7177-67.2109 20.8433-65.7761 20.8433-64.2132C20.8433-62.0095 22.5117-59.8888 25.5119-59.8888L31.2294-59.8888L31.2294 10.4581L27.2084 10.4581C25.0349 10.4581 23.7609 11.7044 23.7609 13.8251ZM39.4034 10.4581L39.4034-67.3573L82.1901-91.4411C83.0547-91.9538 84.0802-92.2504 85.0529-92.2504C85.9728-92.2504 86.9706-91.9538 87.8352-91.4411L130.755-67.3573L130.755 10.4581ZM20.4084 31.1036L149.645 31.1036C151.979 31.1036 153.969 29.1135 153.969 26.7264C153.969 24.3644 151.979 22.402 149.645 22.402L20.4084 22.402C18.0464 22.402 16.084 24.3644 16.084 26.7264C16.084 29.1135 18.0464 31.1036 20.4084 31.1036ZM54.4802-11.2455C55.9452-11.2455 56.9026-12.0974 57.3021-13.693L60.19-24.8875L75.4855-24.8875L78.4261-13.693C78.8784-12.0974 79.7303-11.2455 81.434-11.2455C82.899-11.2455 84.1755-12.1778 84.1755-13.9871C84.1755-14.5474 84.0951-15.0802 83.8564-15.7712L72.2428-56.9482C71.5518-59.2902 70.328-60.5441 67.8779-60.5441C65.4806-60.5441 64.1514-59.1846 63.4854-56.9205L51.9246-15.7712C51.7386-15.1857 51.6055-14.6002 51.6055-13.9871C51.6055-12.1778 52.9096-11.2455 54.4802-11.2455ZM61.4137-29.574L67.5563-53.3471L68.0111-53.3471L74.2868-29.574ZM102.871-12.6931C110.843-12.6931 116.54-17.0536 116.54-24.7637C116.54-31.7704 112.293-34.6507 106.372-37.4905L102.276-39.4456C98.4703-41.3081 95.0599-43.6279 95.0599-47.805C95.0599-52.2259 98.483-54.4628 102.735-54.4628C107.564-54.4628 109.587-51.5171 110.464-46.8498C110.808-45.5154 111.715-44.7163 113.075-44.7163C114.698-44.7163 115.763-45.6486 115.763-47.3272C115.763-47.9127 115.658-48.5786 115.472-49.4079C114.168-55.7338 109.307-59.177 102.735-59.177C95.3419-59.177 89.5491-54.9424 89.5491-47.4859C89.5491-41.1251 93.231-37.7121 99.4535-34.7868L103.575-32.8316C107.644-30.8913 111.029-28.7323 111.029-24.2586C111.029-19.6492 107.767-17.4073 102.871-17.4073C97.2916-17.4073 95.0297-20.7827 94.3335-25.1109C93.9365-26.8423 92.8685-27.5082 91.6197-27.5082C90.1546-27.5082 88.9283-26.5231 88.9283-24.8722C88.9283-24.2867 88.9811-23.7263 89.1143-23.0553C90.1823-17.0008 95.5075-12.6931 102.871-12.6931ZM102.763-6.34971C103.618-6.34971 104.286-7.01818 104.286-7.87259L104.286-63.8039C104.286-64.6583 103.618-65.3267 102.763-65.3267C101.961-65.3267 101.24-64.6583 101.24-63.8039L101.24-7.87259C101.24-7.01818 101.961-6.34971 102.763-6.34971Z"/>
</svg>