<svg xmlns="http://www.w3.org/2000/svg" viewBox="11.2588 -89.429 220.02 108.32">
  <path d="M121.243 18.8896C151.174 18.8896 175.403-5.33898 175.403-35.2697C175.403-65.2004 151.174-89.429 121.243-89.429C91.3653-89.429 67.1367-65.2004 67.1367-35.2697C67.1367-5.33898 91.3653 18.8896 121.243 18.8896ZM121.243 10.2156C96.1395 10.2156 75.7579-10.1408 75.7579-35.2697C75.7579-60.3986 96.1395-80.755 121.243-80.755C146.372-80.755 166.754-60.3986 166.754-35.2697C166.754-10.1408 146.372 10.2156 121.243 10.2156ZM51.8948-10.6969C53.5381-12.6317 52.8773-15.049 51.151-17.3531C47.0266-22.0728 44.9808-28.4438 44.9808-35.2697C44.9808-42.0956 47.0266-48.4666 51.151-53.1863C52.8773-55.4904 53.5381-57.9077 51.8948-59.8425C50.0906-61.8326 46.8819-61.8577 44.9722-59.4455C39.4458-52.8915 36.2541-44.4299 36.2541-35.2697C36.2541-26.1095 39.4458-17.6479 44.9722-11.0939C46.8819-8.6817 50.0906-8.70681 51.8948-10.6969ZM34.4564 7.0657C36.1274 5.10325 35.6223 2.60808 33.6599 0.462244C24.9592-9.02986 20.0132-21.4775 20.0132-35.2697C20.0132-49.0619 24.9592-61.5095 33.6599-71.0016C35.6223-73.1475 36.1274-75.6427 34.4564-77.6051C32.7327-79.6203 29.7073-79.5926 27.6393-77.3136C17.215-66.2033 11.2588-51.3962 11.2588-35.2697C11.2588-19.1432 17.215-4.33608 27.6393 6.77422C29.7073 9.05324 32.7327 9.0809 34.4564 7.0657ZM190.644-10.6969C192.421-8.70681 195.63-8.6817 197.567-11.0939C203.093-17.6479 206.285-26.1095 206.285-35.2697C206.285-44.4299 203.093-52.8915 197.567-59.4455C195.63-61.8577 192.421-61.8326 190.644-59.8425C188.921-57.9077 189.662-55.4904 191.388-53.1863C195.485-48.4666 197.531-42.0956 197.531-35.2697C197.531-28.4438 195.485-22.0728 191.388-17.3531C189.662-15.049 188.921-12.6317 190.644-10.6969ZM208.055 7.0657C209.807 9.0809 212.804 9.05324 214.9 6.77422C225.297-4.33608 231.28-19.1432 231.28-35.2697C231.28-51.3962 225.297-66.2033 214.9-77.3136C212.804-79.5926 209.807-79.6203 208.055-77.6051C206.412-75.6427 206.917-73.1475 208.852-71.0016C217.58-61.5095 222.526-49.0619 222.526-35.2697C222.526-21.4775 217.58-9.02986 208.852 0.462244C206.917 2.60808 206.412 5.10325 208.055 7.0657ZM112.709-2.31754L129.831-2.31754C139.403-2.31754 144.065-7.11508 143.985-16.8208C143.851-28.0923 143.824-36.2777 143.502-42.3168C142.751-60.2079 137.82-65.3271 121.296-65.3271C104.772-65.3271 99.8413-60.2079 99.0899-42.3168C98.7959-36.2777 98.7154-28.0923 98.6074-16.8208C98.5269-7.11508 103.216-2.31754 112.709-2.31754ZM112.156-13.398C109.768-13.398 108.293-14.9813 108.293-17.3161L108.293-31.3291C108.293-33.6639 109.768-35.2195 112.156-35.2195L130.436-35.2195C132.824-35.2195 134.299-33.6639 134.299-31.3291L134.299-17.3161C134.299-14.9813 132.824-13.398 130.436-13.398ZM108.293-24.4156L134.299-24.4156L134.299-27.7579L108.293-27.7579ZM121.296-71.7531C116.215-71.7531 112.576-68.1669 112.576-63.3468L116.338-63.3468C116.338-66.0335 118.398-67.9635 121.296-67.9635C124.113-67.9635 126.254-66.0335 126.254-63.3468L129.963-63.3468C129.963-68.1669 126.377-71.7531 121.296-71.7531Z" />
</svg>