<svg xmlns="http://www.w3.org/2000/svg" viewBox="11.2588 -98.8411 127.2 127.14">
  <path d="M11.2588-35.2697C11.2588-5.59985 31.5323 19.6167 59.8324 26.4873C61.7902 21.2123 63.0769 15.671 63.4815 10.0216L60.5132 9.82802C59.0206 9.74505 57.8798 8.49364 57.9074 7.05628C57.9351 5.59127 59.1589 4.39262 60.7068 4.44793L63.6449 4.66919C63.6751 0.979676 63.3283-2.62941 62.6548-6.31892L59.7746-5.62025C58.2291-5.2207 56.8998-6.2083 56.5003-7.53758C56.1561-8.94983 56.9777-10.4676 58.4729-10.8144L61.2451-11.5382C60.2247-15.0945 58.8776-18.6508 57.0454-22.0714L54.6375-20.7745C53.2529-20.0282 51.8155-20.5383 51.0441-21.8676C50.2727-23.0939 50.6169-24.7423 52.0317-25.5163L54.329-26.7579C52.2027-30.1509 49.7523-33.2447 47.0329-35.9364L45.2458-34.094C44.0999-32.9481 42.5822-33.0285 41.4916-34.1191C40.4261-35.079 40.2376-36.7551 41.4112-37.8759L43.1153-39.7434C40.4738-42.0079 37.6412-43.9733 34.5674-45.6949L33.1148-42.6713C32.3433-41.259 30.8783-40.9399 29.5465-41.6033C28.1619-42.2943 27.6794-43.8899 28.4257-45.3047L29.906-48.3283C24.8974-50.7886 19.4089-52.4195 13.8926-53.3016C12.146-47.5867 11.2588-41.5224 11.2588-35.2697ZM74.8301 28.3017C101.464 28.3017 124.582 11.8207 133.875-11.6743C127.937-12.7423 122.237-14.6371 116.832-17.125L115.417-14.5265C114.698-13.2172 113.128-12.7674 111.824-13.4308C110.597-14.1218 110.062-15.7175 110.781-17.1046L112.118-19.6529C108.431-21.7187 104.935-24.0837 101.761-26.906L99.6395-24.7824C98.5991-23.6616 96.9758-23.7445 95.9104-24.7547C94.8449-25.7925 94.7092-27.363 95.8023-28.4562L97.8707-30.5798C94.8296-33.6988 92.1379-37.1394 89.6925-40.9067L86.7672-39.2983C85.4605-38.4992 83.8121-39.0873 83.2517-40.2859C82.4802-41.5901 82.8772-43.1356 84.1589-43.907L87.0289-45.5405C84.9303-49.5466 83.2917-53.7386 82.1382-57.9583L78.6499-57.1014C77.0768-56.7018 75.7475-57.5839 75.4535-59.0212C75.0288-60.4058 75.7199-61.9236 77.2402-62.2955L80.8616-63.2052C80.1077-67.2164 79.7332-71.2804 79.7911-75.3443L76.7828-75.5103C75.2625-75.5656 74.1217-76.7668 74.2549-78.1765C74.2825-79.6666 75.4007-80.9708 76.9738-80.9155L79.9268-80.6968C80.4923-86.6904 81.6458-92.6036 83.8146-98.17C80.8642-98.5998 77.861-98.8411 74.8301-98.8411C42.8195-98.8411 22.2542-76.1366 15.8627-58.8349C21.6955-57.8196 27.3675-56.1108 32.7203-53.5174L33.9768-55.9576C34.7483-57.3197 36.3188-57.6639 37.6757-56.895C38.9548-56.3095 39.4373-54.7666 38.7187-53.3795L37.4345-50.9367C40.9632-48.9764 44.248-46.6642 47.3167-44.0002L49.8072-46.5459C50.9003-47.6667 52.5236-47.531 53.6418-46.4681C54.6018-45.4303 54.7903-43.8848 53.6972-42.7389L51.2595-40.2459C54.406-37.1019 57.2033-33.6085 59.6486-29.7356L62.5991-31.344C63.9334-32.0904 65.4763-31.5551 66.195-30.3037C66.9664-29.0523 66.6222-27.4541 65.2351-26.655L62.3123-25.0742C64.4109-21.1486 65.9967-17.1676 67.1502-13.0785L70.1385-13.7772C71.684-14.1767 73.0132-13.2696 73.4128-11.7794C73.7847-10.3948 72.9881-8.92982 71.4678-8.53028L68.4795-7.77884C69.2863-3.58425 69.6607 0.63799 69.6029 4.86023L72.7167 5.02617C74.237 5.08149 75.325 6.33545 75.2974 7.74515C75.2697 9.18251 74.0987 10.4339 72.5256 10.3786L69.4144 10.1599C68.9293 16.1535 67.6426 21.9863 65.5542 27.6306C68.5574 28.0604 71.6938 28.3017 74.8301 28.3017ZM138.454-35.2697C138.454-65.1004 117.623-90.631 89.456-97.1322C87.551-91.7769 86.2643-86.1551 85.8596-80.5057L88.9862-80.2845C90.4789-80.2291 91.6197-78.9777 91.5392-77.4876C91.5116-75.9698 90.3934-74.8767 88.7926-74.932L85.749-75.1533C85.7188-71.6748 86.0128-68.1713 86.6864-64.6928L88.9862-65.2332C90.4789-65.6327 91.8082-64.6979 92.1549-63.2882C92.4741-61.8508 91.8886-60.4386 90.2878-60.039L87.9906-59.5263C89.0637-55.8117 90.4636-52.1498 92.3485-48.571L94.7288-49.9206C96.0883-50.667 97.6839-50.0513 98.3498-48.8275C99.0685-47.4429 98.7243-45.9528 97.3622-45.1788L94.9846-43.9372C97.0857-40.6498 99.4834-37.6615 102.044-34.917L104.254-37.1815C105.347-38.3274 107.023-38.2193 108.008-37.2092C109.154-36.2241 109.262-34.44 108.088-33.3192L106.015-31.1628C108.762-28.6872 111.753-26.6163 114.932-24.842L116.385-27.76C117.051-29.0668 118.674-29.4914 119.925-28.8808C121.285-28.0843 121.873-26.5414 121.074-25.1266L119.593-22.2613C124.735-19.801 130.196-18.1424 135.793-17.3131C137.539-23.0306 138.454-28.9893 138.454-35.2697Z"/>
</svg>