<svg xmlns="http://www.w3.org/2000/svg" viewBox="16.084 -106.652 76.12 142.71">
  <path d="M22.9287 19.2168L54.2426 19.2168C74.988 19.2168 92.2056 9.95611 92.2056-10.9025C92.2056-25.9814 81.3208-36.4232 65.6942-38.1597L65.6942-38.8835C77.8883-40.9795 86.4404-51.4239 86.4404-63.5299C86.4404-80.9482 72.0074-90.6084 53.9886-90.6084L22.9287-90.6084C18.8153-90.6084 16.084-87.8494 16.084-83.7637L16.084 12.2942C16.084 16.2216 18.5515 19.2168 22.9287 19.2168ZM26.6902-41.9842L26.6902-81.3238L51.6092-81.3238C65.1354-81.3238 75.7815-75.42 75.7815-62.4746C75.7815-47.868 63.3589-41.9842 48.6719-41.9842ZM26.6902 9.93473L26.6902-32.8328L51.1794-32.8328C67.3017-32.8328 81.4938-27.3889 81.4938-11.405C81.4938 4.06368 68.4854 9.93473 52.6849 9.93473ZM31.9297-85.3696L39.0986-85.3696L39.0986-103.094C39.0986-105.164 37.5834-106.652 35.5405-106.652C33.4172-106.652 31.9297-105.164 31.9297-103.094ZM51.3705-85.3696L58.4867-85.3696L58.4867-103.094C58.4867-105.164 56.9714-106.652 54.9813-106.652C52.8581-106.652 51.3705-105.164 51.3705-103.094ZM31.9297 13.5103L31.9297 32.449C31.9297 34.5723 33.4172 36.0598 35.5405 36.0598C37.5834 36.0598 39.0986 34.5723 39.0986 32.449L39.0986 13.5103ZM51.3705 13.5103L51.3705 32.449C51.3705 34.5723 52.8581 36.0598 54.9813 36.0598C56.9714 36.0598 58.4867 34.5723 58.4867 32.449L58.4867 13.5103Z"/>
</svg>