<svg xmlns="http://www.w3.org/2000/svg" viewBox="11.2588 -98.8411 127.2 127.14">
  <path d="M74.8301 28.3017C109.951 28.3017 138.454-0.149147 138.454-35.2697C138.454-70.3903 109.951-98.8411 74.8301-98.8411C39.7624-98.8411 11.2588-70.3903 11.2588-35.2697C11.2588-0.149147 39.7624 28.3017 74.8301 28.3017ZM74.8301 19.2307C44.6948 19.2307 20.3549-5.13439 20.3549-35.2697C20.3549-65.405 44.6948-89.7701 74.8301-89.7701C104.965-89.7701 129.331-65.405 129.331-35.2697C129.331-5.13439 104.965 19.2307 74.8301 19.2307ZM34.4521-22.7438C31.8739-19.4746 35.1933-16.4969 38.3595-18.2007L59.4423-29.7713L87.439-14.7375C88.4743-14.1269 89.5095-13.8354 90.3588-13.8354C91.6605-13.8354 92.8289-14.446 93.8893-15.8255L115.341-43.4976C117.628-46.503 114.789-49.747 111.434-47.8825L90.2759-36.3671L62.2766-51.4537C61.2439-51.9839 60.2614-52.3281 59.3593-52.3281C58.0577-52.3281 56.9697-51.7175 55.8816-50.338Z" />
</svg>