<svg xmlns="http://www.w3.org/2000/svg" viewBox="11.2588 -98.8411 127.2 127.14">
  <path d="M74.8301 28.3017C109.951 28.3017 138.454-0.149147 138.454-35.2697C138.454-70.3903 109.951-98.8411 74.8301-98.8411C39.7624-98.8411 11.2588-70.3903 11.2588-35.2697C11.2588-0.149147 39.7624 28.3017 74.8301 28.3017ZM74.8301 19.2307C44.6948 19.2307 20.3549-5.13439 20.3549-35.2697C20.3549-65.405 44.6948-89.7701 74.8301-89.7701C104.965-89.7701 129.331-65.405 129.331-35.2697C129.331-5.13439 104.965 19.2307 74.8301 19.2307ZM57.7135-62.3487C51.1139-62.3487 44.0821-59.3757 41.0487-54.176C40.7019-53.6131 40.6466-53.294 40.6466-52.2813L40.6466-9.97999C40.6466-8.88942 41.4708-8.09032 42.6669-8.09032C43.3605-8.09032 43.9183-8.30392 44.451-8.78389C48.0699-11.9807 53.0636-13.8052 58.4998-13.8052C62.9833-13.8052 67.2507-12.247 70.7389-9.31917C71.0883-9.02515 71.3823-8.86431 71.7316-8.86431C72.3724-8.86431 72.8524-9.37194 72.8524-10.0404L72.8524-54.1535C72.8524-54.8496 72.8247-55.0406 72.292-55.8121C69.1429-59.9688 63.7901-62.3487 57.7135-62.3487ZM91.9468-62.3487C85.8979-62.3487 80.5451-59.9688 77.3683-55.8121C76.8355-55.0406 76.8079-54.8496 76.8079-54.1535L76.8079-10.0404C76.8079-9.37194 77.2879-8.86431 77.9287-8.86431C78.3057-8.86431 78.5997-9.02515 78.949-9.31917C82.4373-12.247 86.7297-13.8052 91.1605-13.8052C96.652-13.8052 101.646-11.9807 105.209-8.78389C105.689-8.30392 106.3-8.09032 106.993-8.09032C108.19-8.09032 109.014-8.88942 109.014-9.97999L109.014-52.2813C109.014-53.294 108.958-53.6131 108.612-54.176C105.525-59.3757 98.5464-62.3487 91.9468-62.3487Z" />
</svg>