<svg xmlns="http://www.w3.org/2000/svg" viewBox="16.084 -110.119 132.45 149.59">
  <path d="M16.084-78.1659L16.084 7.54861C16.084 24.9509 25.2165 37.0586 42.5537 39.3155C33.7756 32.1887 28.6313 20.8073 28.6313 7.54861L28.6313-78.1659C28.6313-91.4799 33.7756-102.809 42.5537-109.908C25.1059-107.623 16.084-95.7064 16.084-78.1659ZM36.4086-78.1659L36.4086 7.54861C36.4086 26.1448 47.9964 39.4737 65.8514 39.4737C83.7063 39.4737 95.2941 26.1448 95.2941 7.54861L95.2941-11.4052L78.7797-25.8865C72.8316-31.1359 72.8895-39.6698 78.8074-44.7585L95.2941-59.2397L95.2941-78.1659C95.2941-96.7898 83.7063-110.119 65.8514-110.119C47.9964-110.119 36.4086-96.7898 36.4086-78.1659ZM143.915-39.8856L101.16-39.8856C98.5069-39.8856 96.5445-37.8704 96.5445-35.2697C96.5445-32.7494 98.5069-30.7066 101.16-30.7066L143.915-30.7066C146.568-30.7066 148.531-32.7494 148.531-35.2697C148.531-37.8704 146.568-39.8856 143.915-39.8856ZM110.612-19.0278L110.612-51.6699C110.612-56.2156 105.955-58.1027 102.578-55.125L83.9186-38.921C81.574-36.8981 81.466-33.8549 83.9186-31.7491L102.578-15.5727C105.797-12.595 110.612-14.3238 110.612-19.0278Z"/>
</svg>