<svg xmlns="http://www.w3.org/2000/svg" viewBox="16.084 -118.691 153.1 140.94">
  <path d="M24.6161-107.994L42.052-92.5934C43.0596-91.7969 44.0672-91.1335 45.208-91.1335C46.4015-91.1335 47.4091-91.7969 48.3639-92.5934L65.7998-107.994C70.2876-111.849 64.9177-118.691 59.9852-114.233L45.208-100.456L30.4835-114.233C25.4982-118.691 20.1283-111.849 24.6161-107.994ZM140.968-49.5648C145.198-49.5648 148.651-53.0178 148.651-57.1945C148.651-61.3964 145.198-64.8493 140.968-64.8493C136.792-64.8493 133.339-61.3964 133.339-57.1945C133.339-53.0178 136.792-49.5648 140.968-49.5648ZM35.0976 22.2476L150.199 22.2476C162.791 22.2476 169.184 15.8242 169.184 3.39227L169.184-62.6678C169.184-75.0997 162.791-81.4704 150.199-81.4704L131.873-81.4704C126.829-81.4704 125.411-82.3171 122.428-85.5969L117.274-91.3948C114.027-94.9107 111.009-96.5868 104.663-96.5868L79.889-96.5868C73.4907-96.5868 70.4726-94.9107 67.2783-91.3948L62.071-85.5969C59.1959-82.3724 57.6428-81.4704 52.6794-81.4704L35.0976-81.4704C22.5048-81.4704 16.084-75.0997 16.084-62.6678L16.084 3.39227C16.084 15.8242 22.5048 22.2476 35.0976 22.2476ZM35.2584 13.546C28.5555 13.546 24.7328 9.9922 24.7328 2.96762L24.7328-62.1904C24.7328-69.215 28.5555-72.8215 35.2584-72.8215L54.6567-72.8215C60.3414-72.8215 63.2565-73.7789 66.5035-77.3752L71.5525-83.0676C75.1438-87.0609 76.9934-87.9379 82.3412-87.9379L102.158-87.9379C107.506-87.9379 109.355-87.0609 112.947-83.0676L118.048-77.3752C121.243-73.7789 124.211-72.8215 129.895-72.8215L150.038-72.8215C156.66-72.8215 160.511-69.215 160.511-62.1904L160.511 2.96762C160.511 9.9922 156.66 13.546 150.038 13.546ZM92.6481 3.85479C111.765 3.85479 127.131-11.4829 127.131-30.7611C127.131-49.9865 111.821-65.3242 92.6481-65.3242C73.5307-65.3242 58.1126-49.9865 58.1126-30.7611C58.1126-11.4829 73.5307 3.85479 92.6481 3.85479ZM92.6481-4.40218C78.1491-4.40218 66.3445-16.1566 66.3445-30.7611C66.3445-45.3655 78.0964-57.0672 92.6481-57.0672C107.172-57.0672 118.899-45.3655 118.899-30.7611C118.899-16.1566 107.172-4.40218 92.6481-4.40218Z"/>
</svg>