<svg xmlns="http://www.w3.org/2000/svg" viewBox="16.084 -92.847 147.47 115.48">
  <path d="M16.084 14.52C16.084 19.0712 19.6727 22.6348 24.2792 22.6348L31.6174 22.6348C36.249 22.6348 39.8377 19.0989 39.8377 14.52L39.8377 5.86529L139.801 5.86529L139.801 14.52C139.801 19.0989 143.39 22.6348 148.049 22.6348L155.335 22.6348C159.994 22.6348 163.555 19.0989 163.555 14.52L163.555-26.3398C163.555-37.1262 161.768-43.2479 155.682-50.1236L149.525-57.0725L142.762-76.3912C139.143-86.6296 132.43-90.9446 123.803-91.9624C119.513-92.4726 105.59-92.847 89.8334-92.847C74.0766-92.847 60.0733-92.4726 55.8361-91.9624C47.1559-90.9446 40.524-86.6296 36.9051-76.3912L30.1422-57.0725L23.9851-50.1236C17.8183-43.2479 16.084-37.1262 16.084-26.3398ZM46.4641-57.6639C43.6043-57.6639 42.5588-59.8327 43.4962-62.5619L47.4091-74.1321C49.083-78.9879 51.5637-80.6972 55.8842-81.2903C60.423-81.8809 71.935-82.3056 89.8334-82.3056C107.679-82.3056 119.163-81.8809 123.677-81.2903C127.998-80.6972 130.531-78.9879 132.177-74.1321L136.143-62.5619C137.08-59.8327 135.982-57.6639 133.069-57.6639ZM38.1536-18.1148C34.4393-18.1148 31.7153-20.8388 31.7153-24.4726L31.7153-34.48C31.7153-38.1138 34.4393-40.7047 38.1536-40.7047C41.7874-40.7047 44.4838-38.1666 44.4838-34.48L44.4838-24.4726C44.4838-20.7861 41.7874-18.1148 38.1536-18.1148ZM75.3225-20.9997C72.4376-20.9997 70.5704-22.8944 70.5704-26.0457L70.5704-32.9095C70.5704-35.9803 72.4376-37.8751 75.3225-37.8751L103.962-37.8751C106.872-37.8751 108.82-35.9803 108.82-32.9095L108.82-26.0457C108.82-22.8944 106.872-20.9997 103.962-20.9997ZM141.96-18.1148C138.435-18.1148 135.683-20.8665 135.683-24.4726L135.683-34.48C135.683-38.0862 138.435-40.7047 141.96-40.7047C145.675-40.7047 148.399-38.1666 148.399-34.48L148.399-24.4726C148.399-20.7861 145.675-18.1148 141.96-18.1148Z"/>
</svg>