<svg xmlns="http://www.w3.org/2000/svg" viewBox="12.2115 -101.02 145.92 131.45">
  <path d="M32.9675-43.684L62.6646-43.684C64.71-43.684 66.1448-45.1716 66.1448-47.1642C66.1448-49.1292 64.6823-50.5917 62.6646-50.5917L40.5309-50.564L40.5309-50.6972L55.0825-66.5232C59.8248-71.6425 63.1267-76.083 63.1267-82.172C63.1267-90.8697 56.4446-96.6774 45.9904-96.6774C37.9007-96.6774 30.834-91.7466 29.1579-85.0995C28.972-84.2476 28.8388-83.6595 28.8388-82.9409C28.8388-80.8401 30.1681-79.5109 32.2662-79.5109C34.1836-79.5109 35.1686-80.6542 36.0405-82.1996C37.2591-86.1708 40.715-89.928 46.307-89.928C51.9542-89.928 55.7442-86.5678 55.7442-81.672C55.7442-77.6284 52.6056-74.1704 49.082-70.3502L30.6306-50.3329C29.6706-49.2926 29.1656-48.3905 29.1656-47.1668C29.1656-45.066 30.628-43.684 32.9675-43.684ZM17.0716 4.38968C22.3363 24.3811 28.358 30.4275 40.8478 30.4275L113.837 30.4275C122.824 30.4275 128.931 25.4466 131.177 16.3242L154.843-79.7725C158.13-93.0287 151.732-101.02 140.598-101.02C127.055-101.02 115.674-88.3421 120.813-69.4566L121.903-74.6857C106.872-64.6587 98.7519-41.5574 100.878-14.5512L103.398-17.7374C89.7045-20.258 73.7035-21.5724 57.7752-21.5724C25.337-21.5724 12.2115-13.7142 17.0716 4.38968ZM25.3209 2.10811C22.5011-8.6209 30.5107-12.8708 57.7752-12.8708C78.8717-12.8708 95.0361-10.182 103.22-9.30211C106.657-9.16383 108.841-11.3173 108.786-14.863C107.986-38.7354 114.719-59.1305 126.592-67.3886C128.748-69.0873 129.115-70.2332 128.532-73.8666C126.848-85.9448 133.418-92.3984 140.542-92.3984C145.292-92.3984 148.155-88.5911 146.514-81.9435L122.795 14.2009C121.556 19.0793 118.474 21.8063 113.837 21.8063L40.8478 21.8063C33.4513 21.8063 29.8444 19.0742 25.3209 2.10811Z"/>
</svg>