<svg xmlns="http://www.w3.org/2000/svg" viewBox="12.2115 -121.129 145.92 171.43">
  <path d="M49.0048-51.1466L77.1015-51.1466C80.1949-51.1466 81.5217-53.7349 79.926-56.3156L66.1717-78.8106C64.6262-81.3687 61.5052-81.4492 59.8793-78.8106L46.233-56.3432C44.6374-53.7626 45.8586-51.1466 49.0048-51.1466ZM49.0048 20.0486C45.8586 20.0486 44.6901 22.6118 46.233 25.2453L59.8793 47.6599C61.5579 50.2985 64.6262 50.218 66.1717 47.6599L79.926 25.2176C81.5217 22.5842 80.1949 20.0486 77.1015 20.0486ZM17.0716-15.72C22.3363 4.2714 28.358 10.3982 40.8478 10.3982L113.837 10.3982C122.824 10.3982 128.931 5.38963 131.177-3.75784L154.843-99.8545C158.13-113.111 151.732-121.129 140.598-121.129C127.055-121.129 115.674-108.424 120.813-89.5386L121.903-94.7426C106.872-84.7407 98.7519-61.6394 100.878-34.6609L103.398-37.8194C89.7045-40.2873 73.7035-41.6017 57.7752-41.6017C25.337-41.6017 12.2115-33.8239 17.0716-15.72ZM25.3209-17.9739C22.5011-28.6502 30.5107-32.9528 57.7752-32.9528C78.8717-32.9528 95.0361-30.2389 103.22-29.3841C106.657-29.2459 108.841-31.3742 108.786-34.8923C107.986-58.8451 114.719-79.2402 126.592-87.4983C128.748-89.1693 129.115-90.2624 128.532-93.9486C126.848-106.027 133.418-112.48 140.542-112.48C145.292-112.48 148.155-108.62 146.514-102.053L122.795-5.90878C121.556-1.00277 118.474 1.69659 113.837 1.69659L40.8478 1.69659C33.4513 1.69659 29.8444-0.955108 25.3209-17.9739Z"/>
</svg>