<svg xmlns="http://www.w3.org/2000/svg" viewBox="11.2588 -98.8411 127.2 127.14">
  <path d="M74.8301 28.3017C109.951 28.3017 138.454-0.149147 138.454-35.2697C138.454-70.3903 109.951-98.8411 74.8301-98.8411C39.7624-98.8411 11.2588-70.3903 11.2588-35.2697C11.2588-0.149147 39.7624 28.3017 74.8301 28.3017ZM74.8301 19.2307C44.6948 19.2307 20.3549-5.13439 20.3549-35.2697C20.3549-65.405 44.6948-89.7701 74.8301-89.7701C104.965-89.7701 129.331-65.405 129.331-35.2697C129.331-5.13439 104.965 19.2307 74.8301 19.2307ZM41.3231-10.9774C41.3231-8.25841 43.1349-6.47172 45.8539-6.47172L106.388-6.47172C108.061-6.47172 109.471-7.82611 109.471-9.50218C109.471-11.1782 108.089-12.5879 106.388-12.5879L47.7963-12.5879C47.4946-12.5879 47.4921-12.5905 47.4921-12.8645L47.4921-62.492C47.4921-64.1681 46.11-65.5778 44.434-65.5778C42.7051-65.5778 41.3231-64.1681 41.3231-62.492ZM46.3764-55.0718L42.0694-50.7095L55.8813-36.6667C57.2182-35.3046 58.7134-34.611 60.5026-34.611C62.1587-34.611 63.6539-35.3046 65.0436-36.6667L76.7377-48.5666C77.1725-48.9738 77.5546-48.9738 77.9618-48.5139L90.1035-36.2088L85.3157-31.3658C83.9311-30.0616 84.7026-27.8779 86.7254-27.3729L104.619-23.1536C106.511-22.7012 108.107-24.2718 107.601-26.1112L103.304-44.0321C102.799-46.0801 100.749-46.8239 99.2837-45.4116L94.4909-40.5435L81.9045-53.3434C80.5953-54.7858 79.0196-55.4543 77.2832-55.4543C75.6271-55.4543 74.1846-54.7858 72.6894-53.3434L61.1009-41.6293C60.6937-41.1694 60.2865-41.1694 59.824-41.6293Z" />
</svg>