<svg xmlns="http://www.w3.org/2000/svg" viewBox="16.084 -93.5031 106.65 116.47">
  <path d="M17.5716-28.8292L65.7299 21.3128C66.7401 22.3506 67.9613 22.9637 69.4238 22.9637C70.8335 22.9637 72.1074 22.2702 73.1452 21.2851L121.279-28.8569C122.181-29.7866 122.738-30.9776 122.738-32.3295C122.738-35.0859 120.643-37.1815 117.886-37.1815C116.587-37.1815 115.288-36.679 114.386-35.7769L66.4184 14.1217L72.404 14.1217L24.4086-35.7769C23.5342-36.679 22.313-37.1815 20.9888-37.1815C18.2047-37.1815 16.084-35.0859 16.084-32.3295C16.084-30.9776 16.6695-29.759 17.5716-28.8292ZM17.5716-85.1508L65.7299-35.0088C66.7401-33.971 67.9613-33.3579 69.4238-33.3579C70.8335-33.3579 72.1602-33.9987 73.1452-35.0365L121.279-85.1785C122.181-86.161 122.738-87.2992 122.738-88.6511C122.738-91.4075 120.643-93.5031 117.886-93.5031C116.587-93.5031 115.288-93.0006 114.386-92.0985L66.4184-42.1999L72.404-42.1999L24.4086-92.0985C23.5342-93.0006 22.313-93.5031 20.9888-93.5031C18.2047-93.5031 16.084-91.4075 16.084-88.6511C16.084-87.2992 16.6695-86.0806 17.5716-85.1508Z"/>
</svg>