<svg xmlns="http://www.w3.org/2000/svg" viewBox="11.2588 -98.8411 127.2 127.14">
  <path d="M100.859-17.9088L100.859-9.18815ZM109.524-69.8809L109.524-61.2155L118.192-61.2155L118.192-69.8809ZM100.859-61.2155L100.859-52.5476L109.524-52.5476L109.524-61.2155ZM92.191-52.5476L92.191-43.8546L100.859-43.8546L100.859-52.5476ZM83.498-43.8546L83.498-35.2144L92.191-35.2144L92.191-43.8546ZM74.8855-35.2144L74.8855-26.5214L83.498-26.5214L83.498-35.2144ZM66.1925-26.5214L66.1925-17.9088L74.8855-17.9088L74.8855-26.5214ZM57.4995-17.9088L57.4995-9.18815L66.1925-9.18815L66.1925-17.9088ZM48.8316-9.18815L48.8316-0.547908L57.4995-0.547908L57.4995-9.18815ZM40.1386-0.547908L40.1386 8.14509L48.8316 8.14509L48.8316-0.547908ZM48.8316 15.5841L50.3795 16.7577L57.4995 16.7577L57.4995 8.14509L48.8316 8.14509ZM57.4995-0.547908L57.4995 8.14509L66.1925 8.14509L66.1925-0.547908ZM66.1925-9.18815L66.1925-0.547908L74.8855-0.547908L74.8855-9.18815ZM74.8855-17.9088L74.8855-9.18815L83.498-9.18815L83.498-17.9088ZM83.498-26.5214L83.498-17.9088L92.191-17.9088L92.191-26.5214ZM92.191-35.2144L92.191-26.5214L100.859-26.5214L100.859-35.2144ZM100.859-43.8546L100.859-35.2144L109.524-35.2144L109.524-43.8546ZM109.524-52.5476L109.524-43.8546L118.192-43.8546L118.192-52.5476ZM126.858-52.8519L126.858-43.8546L133.268-43.8546L133.268-52.8519ZM118.192-43.8546L118.192-35.2144L126.858-35.2144L126.858-43.8546ZM109.524-35.2144L109.524-26.5214L118.192-26.5214L118.192-35.2144ZM100.859-26.5214L100.859-17.9088L109.524-17.9088L109.524-26.5214ZM92.191-17.9088L92.191-9.18815L100.859-9.18815L100.859-17.9088ZM83.498-9.18815L83.498-0.547908L92.191-0.547908L92.191-9.18815ZM74.8855-0.547908L74.8855 8.14509L83.498 8.14509L83.498-0.547908ZM66.1925 8.14509L66.1925 16.7577L74.8855 16.7577L74.8855 8.14509ZM57.1952 16.7577L57.1952 23.1654L66.1925 23.1654L66.1925 16.7577ZM74.8855 16.7577L74.8855 23.7989L83.498 23.7989L83.498 16.7577ZM83.498 8.14509L83.498 16.7577L92.191 16.7577L92.191 8.14509ZM92.191-0.547908L92.191 8.14509L100.859 8.14509L100.859-0.547908ZM100.859-9.18815L100.859-0.547908L109.524-0.547908L109.524-9.18815ZM109.524-17.9088L109.524-9.18815L118.192-9.18815L118.192-17.9088ZM118.192-26.5214L118.192-17.9088L126.858-17.9088L126.858-26.5214ZM126.858-35.2144L126.858-26.5214L133.874-26.5214L133.874-35.2144ZM118.192-9.18815L118.192-0.547908L124.077-0.547908L126.39-9.18815ZM109.524-0.547908L109.524 8.14509L115.796 8.14509L118.192 5.9151L118.192-0.547908ZM100.859 8.14509L100.859 16.3177L109.524 14.0852L109.524 8.14509ZM126.858-59.0191L124.797-61.2155L118.192-61.2155L118.192-52.5476L126.858-52.5476ZM74.8301 28.3017C109.951 28.3017 138.454-0.149147 138.454-35.2697C138.454-70.3903 109.951-98.8411 74.8301-98.8411C39.7624-98.8411 11.2588-70.3903 11.2588-35.2697C11.2588-0.149147 39.7624 28.3017 74.8301 28.3017ZM74.8301 19.2307C44.6948 19.2307 20.3549-5.13439 20.3549-35.2697C20.3549-65.405 44.6948-89.7701 74.8301-89.7701C104.965-89.7701 129.331-65.405 129.331-35.2697C129.331-5.13439 104.965 19.2307 74.8301 19.2307Z"/>
</svg>