<svg xmlns="http://www.w3.org/2000/svg" viewBox="16.084 -92.6262 147.91 114.82">
  <path d="M89.4138-0.669524C108.481-0.669524 123.906-16.0672 123.906-35.1616C123.906-54.2284 108.481-69.6537 89.4138-69.6537C70.3721-69.6537 54.9745-54.2284 54.9745-35.1616C54.9745-16.0672 70.3721-0.669524 89.4138-0.669524ZM89.4138-7.73549C74.086-7.73549 62.0404-19.8338 62.0404-35.1616C62.0404-50.4895 74.086-62.5878 89.4138-62.5878C104.767-62.5878 116.84-50.4895 116.84-35.1616C116.84-19.8338 104.767-7.73549 89.4138-7.73549ZM21.1697-32.4124L77.6419-88.8847L66.1234-88.8847L21.1697-43.9309ZM90.0256-65.0753L101.544-65.0753L124.914-88.4447L114.303-89.3523ZM21.8585 14.5575L58.6057-22.1369L58.6057-33.6303L21.142 3.80831ZM119.438-34.8003L158.28-73.6418L157.372-84.1748L119.438-46.1605ZM67.2746 17.3104L89.6896-5.10458L78.2766-5.10458L56.6913 16.428ZM103.935 16.8956L115.507 16.8956L158.061-25.7115L158.061-37.23ZM35.0976 22.1923L144.977 22.1923C157.623 22.1923 163.991 15.7689 163.991 3.33696L163.991-73.7708C163.991-86.2028 157.623-92.6262 144.977-92.6262L35.0976-92.6262C22.5048-92.6262 16.084-86.2581 16.084-73.7708L16.084 3.33696C16.084 15.8242 22.5048 22.1923 35.0976 22.1923ZM35.2584 13.4907C28.4449 13.4907 24.7328 9.88413 24.7328 2.9123L24.7328-73.3462C24.7328-80.3708 28.4449-83.9245 35.2584-83.9245L144.816-83.9245C151.519-83.9245 155.342-80.3708 155.342-73.3462L155.342 2.9123C155.342 9.88413 151.519 13.4907 144.816 13.4907Z"/>
</svg>