<svg xmlns="http://www.w3.org/2000/svg" viewBox="16.084 -114.239 104.85 151.24">
  <path d="M34.8866 37.0023L102.08 37.0023C114.595 37.0023 120.935 30.6619 120.935 18.0163L120.935-78.6015C120.935-91.1943 114.595-97.6151 102.608-97.6151L100.076-97.6151C100.076-97.3739 100.076-97.0522 100.076-96.8109L100.076-89.6463C100.076-82.3387 95.0854-77.1671 87.8029-77.1671L49.1638-77.1671C41.9341-77.1671 36.9433-82.3387 36.9433-89.6463L36.9433-96.8109C36.9433-97.0522 36.9433-97.3739 36.9433-97.6151L34.4117-97.6151C22.3993-97.6151 16.084-91.1943 16.084-78.6015L16.084 18.0163C16.084 30.6619 22.3993 37.0023 34.8866 37.0023ZM49.1638-83.9697L87.8029-83.9697C91.2456-83.9697 93.3263-86.0755 93.3263-89.6463L93.3263-96.1527C93.3263-99.7512 91.2456-101.829 87.8029-101.829L81.497-101.829C81.1804-108.703 75.5135-114.239 68.5097-114.239C61.5336-114.239 55.8391-108.703 55.4697-101.829L49.1638-101.829C45.7487-101.829 43.6931-99.7512 43.6931-96.1527L43.6931-89.6463C43.6931-86.0755 45.7487-83.9697 49.1638-83.9697ZM68.5097-95.8808C65.4236-95.8808 62.9029-98.4292 62.9029-101.488C62.9029-104.601 65.4236-107.069 68.5097-107.069C71.5959-107.069 74.0638-104.601 74.0638-101.488C74.0638-98.4292 71.5959-95.8808 68.5097-95.8808Z"/>
</svg>