<svg xmlns="http://www.w3.org/2000/svg" viewBox="11.2588 -98.7606 127.2 127.14">
  <path d="M74.8301 28.3821C109.895 28.3821 138.454-0.176804 138.454-35.1893C138.454-70.2018 109.895-98.7606 74.8301-98.7606C39.8177-98.7606 11.2588-70.2018 11.2588-35.1893C11.2588-0.176804 39.8177 28.3821 74.8301 28.3821ZM43.049-7.64526C34.8687-7.64526 29.5133-12.9581 29.5133-20.0801C29.5133-25.9333 33.3033-30.5398 38.5357-32.2287C39.742-42.6909 48.5354-50.9014 59.0202-50.9014C67.1553-50.9014 73.6694-46.5208 77.3738-39.5192C86.9714-39.3031 94.0786-32.5754 94.0786-23.6765C94.0786-14.6443 86.9965-7.64526 77.7457-7.64526ZM71.4129-53.9173L66.0771-59.3058C65.1172-60.4241 65.1172-62.261 66.0771-63.246C67.1954-64.2562 68.9518-64.2838 70.0701-63.2184L75.4309-57.8826C76.4688-56.8699 76.3909-54.9802 75.4309-53.9424C74.3655-52.9323 72.5311-52.8795 71.4129-53.9173ZM89.6504-59.9263C88.1326-59.9263 86.8284-61.2028 86.8284-62.6929L86.8284-70.2655C86.8284-71.8361 88.1326-73.007 89.6504-73.007C91.2209-73.007 92.4974-71.8361 92.4974-70.2655L92.4974-62.6929C92.4974-61.2028 91.2209-59.9263 89.6504-59.9263ZM103.975-53.9701C102.91-55.0607 102.857-56.8725 103.975-57.8826L109.258-63.2184C110.402-64.3366 112.158-64.2562 113.224-63.2184C114.261-62.1806 114.289-60.4241 113.224-59.3058L107.941-53.9173C106.875-52.8795 105.013-52.9323 103.975-53.9701ZM112.618-36.984C111.1-36.984 109.876-38.1801 109.876-39.6979C109.876-41.3212 111.1-42.4671 112.618-42.4671L120.057-42.4671C121.655-42.4671 122.932-41.3212 122.932-39.6979C122.932-38.1801 121.655-36.984 120.057-36.984ZM109.258-16.1247L103.975-21.4077C102.857-22.4982 102.91-24.2824 103.975-25.373C105.066-26.4384 106.822-26.4384 107.941-25.373L113.224-20.0899C114.342-19.0245 114.261-17.2429 113.224-16.1774C112.158-15.0869 110.402-14.9537 109.258-16.1247ZM105.765-39.6979C105.765-34.1362 102.94-29.1978 98.4259-26.1418C97.3528-35.4629 89.8487-42.5046 80.0149-43.7083C78.8864-45.4826 77.6499-47.0685 76.1722-48.4156C78.9316-52.8791 83.9529-55.787 89.6504-55.787C98.5519-55.787 105.765-48.6798 105.765-39.6979Z"/>
</svg>