<svg xmlns="http://www.w3.org/2000/svg" viewBox="16.084 -97.1063 123.94 123.94">
  <path d="M16.084-13.9908C16.084-11.3926 17.863-9.69401 20.4084-9.69401L27.1841-9.69401L27.1841 11.1271C27.1841 13.8988 29.021 15.6553 31.7927 15.6553L52.4781 15.6553L52.4781 22.4587C52.4781 25.0568 54.2572 26.8359 56.8025 26.8359C59.3756 26.8359 61.127 25.0568 61.127 22.4587L61.127 15.6553L73.7043 15.6553L73.7043 22.4587C73.7043 25.0568 75.4833 26.8359 78.0287 26.8359C80.6268 26.8359 82.4059 25.0568 82.4059 22.4587L82.4059 15.6553L94.9555 15.6553L94.9555 22.4587C94.9555 25.0568 96.7346 26.8359 99.28 26.8359C101.853 26.8359 103.604 25.0568 103.604 22.4587L103.604 15.6553L124.317 15.6553C127.089 15.6553 128.898 13.8988 128.898 11.1271L128.898-9.74677L135.702-9.74677C138.247-9.74677 140.026-11.4454 140.026-14.0435C140.026-16.6166 138.247-18.368 135.702-18.368L128.898-18.368L128.898-30.9453L135.702-30.9453C138.247-30.9453 140.026-32.7243 140.026-35.2697C140.026-37.8151 138.247-39.5941 135.702-39.5941L128.898-39.5941L128.898-52.1714L135.702-52.1714C138.247-52.1714 140.026-53.9228 140.026-56.4959C140.026-59.094 138.247-60.7926 135.702-60.7926L128.898-60.7926L128.898-81.4503C128.898-84.2221 127.089-85.9786 124.317-85.9786L103.604-85.9786L103.604-92.7819C103.604-95.3801 101.853-97.1063 99.28-97.1063C96.7346-97.1063 94.9555-95.3801 94.9555-92.7819L94.9555-85.9786L82.4059-85.9786L82.4059-92.7819C82.4059-95.3801 80.6268-97.1063 78.0287-97.1063C75.4833-97.1063 73.7043-95.3801 73.7043-92.7819L73.7043-85.9786L61.127-85.9786L61.127-92.7819C61.127-95.3801 59.3756-97.1063 56.8025-97.1063C54.2572-97.1063 52.4781-95.3801 52.4781-92.7819L52.4781-85.9786L31.7927-85.9786C29.021-85.9786 27.1841-84.2221 27.1841-81.4503L27.1841-60.7926L20.4084-60.7926C17.863-60.7926 16.084-59.0412 16.084-56.4431C16.084-53.87 17.863-52.1187 20.4084-52.1187L27.1841-52.1187L27.1841-39.5414L20.4084-39.5414C17.863-39.5414 16.084-37.7623 16.084-35.2169C16.084-32.6716 17.863-30.8925 20.4084-30.8925L27.1841-30.8925L27.1841-18.3152L20.4084-18.3152C17.863-18.3152 16.084-16.5638 16.084-13.9908ZM53.0173-5.62201C50.0094-5.62201 48.5418-7.14234 48.5418-10.1779L48.5418-60.0926C48.5418-63.1809 50.0094-64.7012 53.0173-64.7012L103.065-64.7012C106.101-64.7012 107.541-63.1809 107.541-60.0926L107.541-10.1779C107.541-7.14234 106.101-5.62201 103.065-5.62201ZM55.9244-14.5802C55.9244-13.6454 56.5124-13.085 57.4473-13.085L98.6352-13.085C99.5701-13.085 100.158-13.6454 100.158-14.5802L100.158-55.7431C100.158-56.6502 99.5701-57.2383 98.6352-57.2383L57.4473-57.2383C56.5124-57.2383 55.9244-56.6502 55.9244-55.7431Z"/>
</svg>