<svg xmlns="http://www.w3.org/2000/svg" viewBox="16.084 -109.501 85 148.38">
  <path d="M26.9807-92.1837C26.9807-85.6726 30.8255-81.7197 37.1481-81.7197L79.9396-81.7197C86.2898-81.7197 90.1874-85.6726 90.1874-92.1837L90.1874-99.0372C90.1874-105.521 86.2898-109.501 79.9396-109.501L37.1481-109.501C30.8255-109.501 26.9807-105.521 26.9807-99.0372ZM34.627-92.2892L34.627-98.9317C34.627-100.744 35.7355-101.908 37.5175-101.908L79.6506-101.908C81.4326-101.908 82.4883-100.744 82.4883-98.9317L82.4883-92.2892C82.4883-90.5298 81.4326-89.3133 79.6506-89.3133L37.5175-89.3133C35.7355-89.3133 34.627-90.5298 34.627-92.2892ZM44.0766-70.3907L44.0766-84.8356L36.4302-84.8356L36.4302-70.3907ZM80.7379-70.3907L80.7379-84.8356L73.0387-84.8356L73.0387-70.3907ZM16.084 18.9278C16.084 31.1313 23.7813 38.8839 35.7184 38.8839L81.3969 38.8839C93.3591 38.8839 101.084 31.1313 101.084 18.9278L101.084-52.5655C101.084-64.7413 93.3591-72.5216 81.3969-72.5216L35.7184-72.5216C23.7813-72.5216 16.084-64.7413 16.084-52.5655ZM24.3635 18.8223L24.3635-52.46C24.3635-59.673 28.8772-64.2421 36.1405-64.2421L81.0276-64.2421C88.2381-64.2421 92.8046-59.673 92.8046-52.46L92.8046 18.8223C92.8046 26.0881 88.2381 30.6572 81.0276 30.6572L36.1405 30.6572C28.8772 30.6572 24.3635 26.0881 24.3635 18.8223ZM35.2461-12.4159C35.2461-9.84249 36.9877-8.07326 39.5611-8.07326L49.8523-8.07326L49.8523 2.08476C49.8523 4.71096 51.5411 6.4802 54.1673 6.4802L62.948 6.4802C65.5742 6.4802 67.2907 4.71096 67.2907 2.08476L67.2907-8.07326L77.5542-8.07326C80.1277-8.07326 81.9497-9.84249 81.9497-12.4159L81.9497-21.2217C81.9497-23.8756 80.1277-25.5644 77.5542-25.5644L67.2907-25.5644L67.2907-35.8028C67.2907-38.3763 65.5742-40.1178 62.948-40.1178L54.1673-40.1178C51.5411-40.1178 49.8523-38.3763 49.8523-35.8028L49.8523-25.5644L39.5611-25.5644C36.9877-25.5644 35.2461-23.8756 35.2461-21.2217Z"/>
</svg>