<svg xmlns="http://www.w3.org/2000/svg" viewBox="11.2588 -97.7705 150.04 124.95">
  <path d="M86.32-71.3757C97.6843-71.3757 108.084-67.4628 116.392-60.9211C117.679-59.9284 119.315-60.0365 120.521-61.2428L134.727-75.3686C136.175-76.8162 136.122-78.9071 134.594-80.1938C121.521-91.1786 104.643-97.7705 86.32-97.7705C67.9693-97.7705 51.0386-91.1786 38.0182-80.1938C36.4902-78.9071 36.4651-76.8162 37.9127-75.3686L52.0662-61.2428C53.2725-60.0365 54.989-59.9561 56.3561-61.0292C64.6368-67.4628 75.0361-71.3757 86.32-71.3757ZM11.2588-22.7621C11.2588-4.35864 17.9034 12.547 28.9159 25.6201C30.2026 27.1481 32.3212 27.1758 33.7411 25.7282L48.1835 11.2305C49.2315 10.2076 49.3119 8.78256 48.3443 7.59882C41.5942-1.02357 37.7063-11.4505 37.7063-22.7621C37.7063-34.0736 41.5665-44.4729 48.0805-52.7008C49.126-54.068 49.0983-55.7844 47.892-56.9907L33.7134-71.1693C32.2935-72.5893 30.1749-72.6169 28.8882-71.0889C17.8758-57.9907 11.2588-41.1404 11.2588-22.7621ZM161.301-22.7621C161.301-41.1404 154.737-57.9907 143.699-71.0889C142.412-72.6169 140.294-72.5893 138.874-71.1693L124.72-56.9907C123.514-55.7844 123.486-54.068 124.532-52.7008C131.046-44.4729 134.906-34.0736 134.906-22.7621C134.906-11.4505 131.018-1.02357 124.215 7.59882C123.3 8.78256 123.381 10.2076 124.376 11.2305L138.846 25.7282C140.266 27.1758 142.385 27.1481 143.671 25.6201C154.709 12.547 161.301-4.35864 161.301-22.7621ZM86.7374 5.94492C96.3074 5.94492 104.822 1.22015 107.438-7.09076C107.782-7.97028 107.862-8.77193 107.862-9.56848C107.862-11.3224 106.747-12.4155 104.937-12.4155C103.209-12.4155 102.276-11.4305 101.746-9.85995C99.8237-3.11958 93.5986 0.30356 86.7902 0.30356C74.8476 0.30356 69.3412-10.1234 69.3412-21.8574C69.3412-33.6417 75.0335-43.7495 86.7902-43.7495C93.7267-43.7495 99.6352-39.6553 101.399-33.5256C101.982-31.8772 102.806-30.9172 104.457-30.9172C106.189-30.9172 107.49-32.0606 107.49-33.8447C107.49-34.4302 107.357-35.4403 107.066-36.2092C104.239-44.4423 96.0938-49.5491 86.7374-49.5491C71.2793-49.5491 62.559-37.8406 62.559-21.8574C62.559-6.45976 70.6687 5.94492 86.7374 5.94492ZM83.5082 3.04509L87.4259 3.04509L87.4259-9.2213C87.4259-15.4264 91.5473-19.7316 97.6166-19.7316C98.8382-19.7316 99.748-19.4325 100.313-19.4325C101.512-19.4325 102.284-20.0205 102.284-21.3247C102.284-22.0685 101.884-22.7595 101.14-23.1591C100.333-23.7773 98.7451-24.0186 97.5915-24.0186C92.5374-24.0186 88.71-20.7337 87.4786-16.7706L87.3178-16.7706L87.3178-21.86C87.3178-23.0586 86.5463-23.8577 85.4532-23.8577C84.2546-23.8577 83.5082-23.0586 83.5082-21.86Z"/>
</svg>