<svg xmlns="http://www.w3.org/2000/svg" viewBox="16.084 -103.043 154.69 131.91">
  <path d="M16.084-93.2346C16.084-88.3017 20.0544-84.2786 25.0124-84.2786C28.2994-84.2786 31.2371-86.1534 32.6719-88.9102L154.132-88.9102C155.54-86.1534 158.53-84.2786 161.817-84.2786C166.722-84.2786 170.773-88.3017 170.773-93.2346C170.773-98.1122 166.722-102.163 161.817-102.163C158.53-102.163 155.54-100.261 154.132-97.5314L32.6719-97.5314C31.2371-100.261 28.2994-102.163 25.0124-102.163C20.0544-102.163 16.084-98.1122 16.084-93.2346ZM42.3121 28.865L53.1083 28.865C55.5635 28.865 57.2974 27.1034 57.2974 24.5653L57.2974-98.7704C57.2974-101.281 55.5635-103.043 53.1083-103.043L42.3121-103.043C39.8292-103.043 38.0953-101.281 38.0953-98.7704L38.0953 24.5653C38.0953 27.1034 39.8292 28.865 42.3121 28.865ZM133.668 28.865L144.545 28.865C146.975 28.865 148.734 27.1034 148.734 24.5653L148.734-98.7704C148.734-101.281 146.975-103.043 144.545-103.043L133.668-103.043C131.266-103.043 129.56-101.281 129.56-98.7704L129.56 24.5653C129.56 27.1034 131.266 28.865 133.668 28.865Z"/>
</svg>