<svg xmlns="http://www.w3.org/2000/svg" viewBox="16.084 -92.8947 146.93 115.25">
  <path d="M19.8808-84.9318L159.218-84.9318C161.342-84.9318 163.015-86.8163 163.015-88.9396C163.015-91.0378 161.342-92.8947 159.218-92.8947L19.8808-92.8947C17.7575-92.8947 16.084-91.0378 16.084-88.9396C16.084-86.8163 17.7575-84.9318 19.8808-84.9318ZM43.5533-12.5538L135.546-12.5538C143.931-12.5538 148.653-17.2229 148.653-25.45L148.653-45.0894C148.653-53.3165 143.931-57.9856 135.546-57.9856L43.5533-57.9856C35.1151-57.9856 30.446-53.3165 30.446-45.0894L30.446-25.45C30.446-17.2229 35.1151-12.5538 43.5533-12.5538ZM19.8808 14.3923C17.7575 14.3923 16.084 16.2769 16.084 18.4002C16.084 20.4984 17.7575 22.3553 19.8808 22.3553L159.218 22.3553C161.342 22.3553 163.015 20.4984 163.015 18.4002C163.015 16.2769 161.342 14.3923 159.218 14.3923Z" />
</svg>