<svg xmlns="http://www.w3.org/2000/svg" viewBox="11.2588 -97.7705 150.04 124.95">
  <path d="M86.32-71.3757C97.6843-71.3757 108.084-67.4628 116.392-60.9211C117.679-59.9284 119.315-60.0365 120.521-61.2428L134.727-75.3686C136.175-76.8162 136.122-78.9071 134.594-80.1938C121.521-91.1786 104.643-97.7705 86.32-97.7705C67.9693-97.7705 51.0386-91.1786 38.0182-80.1938C36.4902-78.9071 36.4651-76.8162 37.9127-75.3686L52.0662-61.2428C53.2725-60.0365 54.989-59.9561 56.3561-61.0292C64.6368-67.4628 75.0361-71.3757 86.32-71.3757ZM11.2588-22.7621C11.2588-4.35864 17.9034 12.547 28.9159 25.6201C30.2026 27.1481 32.3212 27.1758 33.7411 25.7282L48.1835 11.2305C49.2315 10.2076 49.3119 8.78256 48.3443 7.59882C41.5942-1.02357 37.7063-11.4505 37.7063-22.7621C37.7063-34.0736 41.5665-44.4729 48.0805-52.7008C49.126-54.068 49.0983-55.7844 47.892-56.9907L33.7134-71.1693C32.2935-72.5893 30.1749-72.6169 28.8882-71.0889C17.8758-57.9907 11.2588-41.1404 11.2588-22.7621ZM161.301-22.7621C161.301-41.1404 154.737-57.9907 143.699-71.0889C142.412-72.6169 140.294-72.5893 138.874-71.1693L124.72-56.9907C123.514-55.7844 123.486-54.068 124.532-52.7008C131.046-44.4729 134.906-34.0736 134.906-22.7621C134.906-11.4505 131.018-1.02357 124.215 7.59882C123.3 8.78256 123.381 10.2076 124.376 11.2305L138.846 25.7282C140.266 27.1758 142.385 27.1481 143.671 25.6201C154.709 12.547 161.301-4.35864 161.301-22.7621ZM82.0279-1.3631C87.4714-1.3631 92.5378-3.5923 95.0836-8.80979L95.2998-8.80979L95.2998-3.78295C95.2998-2.08178 96.6567-0.724837 98.3855-0.724837C100.087-0.724837 101.338-2.08178 101.338-3.78295L101.338-43.8193L106.199-43.8193C107.264-43.8193 108.091-44.6988 108.091-45.7115C108.091-46.7494 107.264-47.5233 106.199-47.5233L101.338-47.5233L101.338-50.4942C101.338-52.4366 100.167-53.6327 98.28-53.6327C96.3376-53.6327 95.1666-52.4366 95.1666-50.4942L95.1666-47.5233L82.9904-47.5233C81.9777-47.5233 81.1259-46.7494 81.1259-45.7115C81.1259-44.6461 81.9777-43.8193 82.9904-43.8193L95.1666-43.8193L95.1666-30.4365L94.8172-30.4365C92.5931-35.405 87.6097-37.8555 82.0279-37.8555C72.8703-37.8555 65.4567-30.673 65.4567-19.5955C65.4567-9.16343 72.275-1.3631 82.0279-1.3631ZM83.5959-6.73809C76.2449-6.73809 71.8142-12.4028 71.8142-19.5955C71.8142-27.1851 76.6947-32.5333 83.5959-32.5333C90.8112-32.5333 95.1113-26.552 95.1113-19.5955C95.1113-12.2696 90.3614-6.73809 83.5959-6.73809ZM68.5301 5.36452C68.5301 6.51041 69.4348 7.30951 70.5002 7.30951L101.218 7.30951C102.308 7.30951 103.188 6.48275 103.188 5.36452C103.188 4.24629 102.308 3.44719 101.218 3.44719L70.5002 3.44719C69.4348 3.44719 68.5301 4.24629 68.5301 5.36452Z"/>
</svg>