<svg xmlns="http://www.w3.org/2000/svg" viewBox="16.084 -92.6789 114.77 114.82">
  <path d="M16.084 17.5585C16.084 20.3026 17.8681 22.1395 20.6122 22.1395L126.321 22.1395C129.066 22.1395 130.85 20.3026 130.85 17.5585L130.85-88.0979C130.85-90.842 129.066-92.6789 126.321-92.6789L20.6122-92.6789C17.8681-92.6789 16.084-90.842 16.084-88.0979ZM24.7328 11.7844L24.7328-82.3238C24.7328-83.4948 25.2154-83.9773 26.4391-83.9773L120.547-83.9773C121.718-83.9773 122.201-83.4948 122.201-82.3238L122.201 11.7844C122.201 12.9554 121.718 13.4379 120.547 13.4379L26.4391 13.4379C25.2154 13.4379 24.7328 12.9554 24.7328 11.7844ZM73.4932-16.0846C84.0508-16.0846 92.6783-24.6594 92.6783-35.2697C92.6783-45.88 84.0508-54.4548 73.4932-54.4548C62.8829-54.4548 54.2554-45.88 54.2554-35.2697C54.2554-24.6594 62.8829-16.0846 73.4932-16.0846Z"/>
</svg>