<svg xmlns="http://www.w3.org/2000/svg" viewBox="16.084 -95.5536 148.14 124.79">
  <path d="M90.1423-18.2909C104.377-18.2909 115.932-29.8463 115.932-44.0529C115.932-58.2873 104.377-69.8954 90.1423-69.8954C75.9884-69.8954 64.3803-58.2873 64.3803-44.0529C64.3803-29.8463 75.9884-18.2909 90.1423-18.2909ZM90.1423-23.5353C78.7576-23.5353 69.8106-32.5074 69.8106-44.0529C69.8106-55.6512 78.7576-64.6761 90.1423-64.6761C101.582-64.6761 110.527-55.6512 110.527-44.0529C110.527-32.5074 101.635-23.5353 90.1423-23.5353ZM90.1146-76.3515C88.7551-76.3515 87.6897-75.2861 87.6897-73.8989L87.6897-58.0256C87.6897-56.6133 88.7551-55.5479 90.1146-55.5479C91.5545-55.5479 92.5672-56.6661 92.5672-58.0256L92.5672-73.8989C92.5672-75.2861 91.5545-76.3515 90.1146-76.3515ZM104.09-41.6003L119.963-41.6003C121.298-41.6003 122.441-42.7185 122.441-44.0529C122.441-45.4928 121.298-46.4779 119.963-46.4779L104.09-46.4779C102.73-46.4779 101.637-45.5456 101.637-44.0529C101.637-42.7185 102.73-41.6003 104.09-41.6003ZM90.17-11.8599C91.6099-11.8599 92.6226-12.9253 92.6226-14.3376L92.6226-30.2109C92.6226-31.5453 91.6626-32.6635 90.17-32.6635C88.8632-32.6635 87.745-31.5453 87.745-30.2109L87.745-14.3376C87.745-12.8726 88.8632-11.8599 90.17-11.8599ZM60.4018-41.6003L76.2752-41.6003C77.6623-41.6003 78.7278-42.7185 78.7278-44.0529C78.7278-45.5456 77.6623-46.4779 76.2752-46.4779L60.4018-46.4779C59.0147-46.4779 57.8965-45.4928 57.8965-44.0529C57.8965-42.7185 58.9619-41.6003 60.4018-41.6003ZM90.1951-40.1C92.3587-40.1 94.148-41.8892 94.148-44.1057C94.148-46.3221 92.3587-48.031 90.1951-48.031C88.0063-48.031 86.217-46.3221 86.217-44.1057C86.217-41.8892 88.0063-40.1 90.1951-40.1ZM29.0151 7.44779L151.297 7.44779C159.331 7.44779 164.228 2.55022 164.228-5.48334L164.228-82.6225C164.228-90.6284 159.331-95.5536 151.297-95.5536L29.0151-95.5536C20.9816-95.5536 16.084-90.6284 16.084-82.6225L16.084-5.48334C16.084 2.55022 20.9816 7.44779 29.0151 7.44779ZM29.2036-1.25384C26.4468-1.25384 24.7328-2.96776 24.7328-5.64418L24.7328-82.4617C24.7328-85.1909 26.4468-86.9048 29.2036-86.9048L151.109-86.9048C153.865-86.9048 155.579-85.1909 155.579-82.4617L155.579-5.64418C155.579-2.96776 153.865-1.25384 151.109-1.25384ZM70.6509 23.002L109.714 23.002L109.714 6.64359L70.6509 6.64359ZM70.045 29.2361L110.32 29.2361C112.71 29.2361 114.672 27.3541 114.672 24.9117C114.672 22.4969 112.71 20.5621 110.32 20.5621L70.045 20.5621C67.6026 20.5621 65.6401 22.4969 65.6401 24.9117C65.6401 27.3541 67.6026 29.2361 70.045 29.2361Z"/>
</svg>