<svg xmlns="http://www.w3.org/2000/svg" viewBox="11.2588 -98.8411 127.2 127.14">
  <path d="M74.8301 28.3017C109.951 28.3017 138.454-0.149147 138.454-35.2697C138.454-70.3903 109.951-98.8411 74.8301-98.8411C39.7624-98.8411 11.2588-70.3903 11.2588-35.2697C11.2588-0.149147 39.7624 28.3017 74.8301 28.3017ZM74.8301 19.2307C44.6948 19.2307 20.3549-5.13439 20.3549-35.2697C20.3549-65.405 44.6948-89.7701 74.8301-89.7701C104.965-89.7701 129.331-65.405 129.331-35.2697C129.331-5.13439 104.965 19.2307 74.8301 19.2307ZM60.1282-7.18059L90.0848-7.18059C92.266-7.18059 93.7233-8.64306 93.7233-10.7663C93.7233-12.9951 92.266-14.3521 90.0848-14.3521L64.5356-14.3521L64.5356-32.8022L88.5317-32.8022C90.7129-32.8022 92.1175-34.0008 92.1175-36.1769C92.1175-38.3529 90.7129-39.6571 88.5317-39.6571L64.5356-39.6571L64.5356-57.0541L90.0848-57.0541C92.266-57.0541 93.7233-58.4914 93.7233-60.6398C93.7233-62.8435 92.266-64.2256 90.0848-64.2256L60.1282-64.2256C57.3692-64.2256 55.8842-62.2631 55.8842-59.371L55.8842-12.0629C55.8842-9.17069 57.3692-7.18059 60.1282-7.18059Z" />
</svg>