<svg xmlns="http://www.w3.org/2000/svg" viewBox="11.2588 -97.7705 150.04 124.95">
  <path d="M86.32-71.3757C97.6843-71.3757 108.084-67.4628 116.392-60.9211C117.679-59.9284 119.315-60.0365 120.521-61.2428L134.727-75.3686C136.175-76.8162 136.122-78.9071 134.594-80.1938C121.521-91.1786 104.643-97.7705 86.32-97.7705C67.9693-97.7705 51.0386-91.1786 38.0182-80.1938C36.4902-78.9071 36.4651-76.8162 37.9127-75.3686L52.0662-61.2428C53.2725-60.0365 54.989-59.9561 56.3561-61.0292C64.6368-67.4628 75.0361-71.3757 86.32-71.3757ZM11.2588-22.7621C11.2588-4.35864 17.9034 12.547 28.9159 25.6201C30.2026 27.1481 32.3212 27.1758 33.7411 25.7282L48.1835 11.2305C49.2315 10.2076 49.3119 8.78256 48.3443 7.59882C41.5942-1.02357 37.7063-11.4505 37.7063-22.7621C37.7063-34.0736 41.5665-44.4729 48.0805-52.7008C49.126-54.068 49.0983-55.7844 47.892-56.9907L33.7134-71.1693C32.2935-72.5893 30.1749-72.6169 28.8882-71.0889C17.8758-57.9907 11.2588-41.1404 11.2588-22.7621ZM161.301-22.7621C161.301-41.1404 154.737-57.9907 143.699-71.0889C142.412-72.6169 140.294-72.5893 138.874-71.1693L124.72-56.9907C123.514-55.7844 123.486-54.068 124.532-52.7008C131.046-44.4729 134.906-34.0736 134.906-22.7621C134.906-11.4505 131.018-1.02357 124.215 7.59882C123.3 8.78256 123.381 10.2076 124.376 11.2305L138.846 25.7282C140.266 27.1758 142.385 27.1481 143.671 25.6201C154.709 12.547 161.301-4.35864 161.301-22.7621ZM93.9599 5.41728C95.6185 5.41728 97.7622 5.33686 99.4459 4.96242C101.15 4.51011 102.507 3.73867 102.507 2.00983C102.507 0.22824 101.255-0.598515 99.4736-0.598515C97.6669-0.598515 96.7997-0.329599 94.2237-0.329599C80.4566-0.329599 72.1759-8.28137 72.1759-22.1966C72.1759-35.8479 80.0345-44.0912 94.1182-44.0912C96.4001-44.0912 98.3-43.8223 99.4736-43.8223C101.255-43.8223 102.507-44.7018 102.507-46.4557C102.507-48.0539 101.466-48.9837 99.4459-49.4887C97.9456-49.8104 95.9602-49.9436 93.9599-49.9436C78.1423-49.9436 65.4742-40.7379 65.4742-22.2493C65.4742-4.55224 77.0342 5.41728 93.9599 5.41728ZM56.8063-27.7906C56.8063-26.7252 57.633-25.8984 58.6985-25.8984L93.0927-25.8984C94.1582-25.8984 94.9849-26.7252 94.9849-27.7906C94.9849-28.8561 94.1582-29.6829 93.0927-29.6829L58.6985-29.6829C57.633-29.6829 56.8063-28.8561 56.8063-27.7906ZM56.8063-16.7055C56.8063-15.6676 57.633-14.8409 58.6985-14.8409L93.0927-14.8409C94.1582-14.8409 94.9849-15.6676 94.9849-16.7055C94.9849-17.7182 94.1582-18.5977 93.0927-18.5977L58.6985-18.5977C57.633-18.5977 56.8063-17.7182 56.8063-16.7055Z"/>
</svg>