<svg xmlns="http://www.w3.org/2000/svg" viewBox="11.2588 -95.9106 140.88 121.28">
  <path d="M39.3165-45.1192C51.1204-45.1192 60.5946-54.5934 60.5946-66.3973C60.5946-78.2288 51.1204-87.6754 39.3165-87.6754C27.485-87.6754 18.0384-78.2288 18.0384-66.3973C18.0384-54.5934 27.485-45.1192 39.3165-45.1192ZM39.3165-53.5301C32.1842-53.5301 26.4493-59.265 26.4493-66.3973C26.4493-73.5296 32.1842-79.2645 39.3165-79.2645C46.4488-79.2645 52.1837-73.5296 52.1837-66.3973C52.1837-59.265 46.4488-53.5301 39.3165-53.5301ZM39.3165-60.6849C42.4805-60.6849 45.0289-63.2333 45.0289-66.3973C45.0289-69.5613 42.4805-72.1097 39.3165-72.1097C36.1525-72.1097 33.6041-69.5613 33.6041-66.3973C33.6041-63.2333 36.1525-60.6849 39.3165-60.6849ZM124.053-45.1192C135.857-45.1192 145.331-54.5934 145.331-66.3973C145.331-78.2288 135.857-87.6754 124.053-87.6754C112.274-87.6754 102.827-78.2288 102.827-66.3973C102.827-54.5934 112.274-45.1192 124.053-45.1192ZM124.053-53.5301C116.92-53.5301 111.185-59.265 111.185-66.3973C111.185-73.5296 116.92-79.2645 124.053-79.2645C131.238-79.2645 136.92-73.5296 136.92-66.3973C136.92-59.265 131.238-53.5301 124.053-53.5301ZM124.053-60.6849C127.217-60.6849 129.818-63.2333 129.818-66.3973C129.818-69.5613 127.217-72.1097 124.053-72.1097C120.889-72.1097 118.34-69.5613 118.34-66.3973C118.34-63.2333 120.889-60.6849 124.053-60.6849ZM81.711-28.2004C105.324-28.2004 126.102-19.7491 141.91-5.00965C148.416-15.3485 152.135-27.9089 152.135-42.025C152.135-49.4836 151.417-56.01 149.896-61.7347C147.868-49.3308 137.16-39.9778 124.053-39.9778C109.397-39.9778 97.6055-51.7413 97.6055-66.3973C97.6055-78.9097 106.157-89.3362 117.732-92.1181C108.157-94.7545 96.2397-95.9106 81.711-95.9106C67.1546-95.9106 55.2648-94.7545 45.6897-92.1181C57.2647-89.3362 65.7888-78.9097 65.7888-66.3973C65.7888-51.7413 54.0253-39.9778 39.3165-39.9778C26.234-39.9778 15.4734-49.3308 13.4727-61.7347C12.0051-56.01 11.2588-49.4836 11.2588-42.025C11.2588-27.9089 15.0058-15.3485 21.5121-5.00965C37.2919-19.7491 58.0977-28.2004 81.711-28.2004ZM81.711 25.3712C106.136 25.3712 126.424 15.6379 138.849-0.695024C123.73-15.0349 104.339-23.0063 81.711-23.0063C59.0827-23.0063 39.6113-15.0349 24.4924-0.720131C36.8919 15.6379 57.2331 25.3712 81.711 25.3712ZM53.4836 4.78373C50.3472 4.78373 47.8542 2.29071 47.8542-0.845664C47.8542-3.98204 50.3472-6.47506 53.4836-6.47506C56.6199-6.47506 59.113-3.98204 59.113-0.845664C59.113 2.29071 56.6199 4.78373 53.4836 4.78373ZM81.711 8.80473C76.4032 8.80473 72.0606 4.46205 72.0606-0.845664C72.0606-6.15338 76.4032-10.4961 81.711-10.4961C87.0187-10.4961 91.3613-6.15338 91.3613-0.845664C91.3613 4.46205 87.0187 8.80473 81.711 8.80473ZM109.938 4.78373C106.802 4.78373 104.309 2.29071 104.309-0.845664C104.309-3.98204 106.802-6.47506 109.938-6.47506C113.075-6.47506 115.568-3.98204 115.568-0.845664C115.568 2.29071 113.075 4.78373 109.938 4.78373Z"/>
</svg>