<svg xmlns="http://www.w3.org/2000/svg" viewBox="11.2588 -98.7606 127.2 127.14">
  <path d="M74.8301 28.3821C109.895 28.3821 138.454-0.176804 138.454-35.1893C138.454-70.2018 109.895-98.7606 74.8301-98.7606C39.8177-98.7606 11.2588-70.2018 11.2588-35.1893C11.2588-0.176804 39.8177 28.3821 74.8301 28.3821ZM74.8301-8.28607C49.9753-8.28607 32.1395-28.8085 32.1395-35.1642C32.1395-41.5199 49.754-62.0699 74.8301-62.0699C99.788-62.0699 117.468-41.5199 117.468-35.1642C117.468-28.8085 99.8961-8.28607 74.8301-8.28607ZM74.8301-17.5395C84.5661-17.5395 92.4825-25.6142 92.4825-35.1642C92.4825-45.0082 84.5661-52.7889 74.8301-52.7889C65.0389-52.7889 57.0974-45.0082 57.1778-35.1642C57.2054-25.6142 65.0389-17.5395 74.8301-17.5395ZM74.9106-27.7255C70.8419-27.7255 67.3638-31.1759 67.3638-35.1642C67.3638-39.1801 70.8419-42.6028 74.9106-42.6028C78.8988-42.6028 82.3492-39.1801 82.3492-35.1642C82.3492-31.1759 78.8988-27.7255 74.9106-27.7255Z"/>
</svg>