<svg xmlns="http://www.w3.org/2000/svg" viewBox="11.0779 -89.9723 189.12 107.36">
  <path d="M18.5013-27.2681L92.6463 12.7938C98.1247 15.7867 101.512 17.3875 105.611 17.3875C109.71 17.3875 113.07 15.7867 118.628 12.7938L192.721-27.2681C198.44-30.3692 200.197-37.1794 196.211-42.8513C175.865-71.5361 142.161-89.9723 105.611-89.9723C69.1135-89.9723 35.3571-71.5361 15.0109-42.8513C11.0779-37.1794 12.7817-30.3692 18.5013-27.2681ZM23.8533-34.1707C21.8199-35.2289 21.4429-37.036 23.0164-39.2354C41.9831-65.322 72.0307-81.2707 105.611-81.2707C139.297-81.2707 169.397-65.2693 188.283-39.1299C189.779-36.9832 189.402-35.2289 187.369-34.1707L113.646 5.70778C110.225 7.51233 108.247 8.36929 105.611 8.36929C103.027 8.36929 100.997 7.51233 97.5486 5.70778Z"/>
</svg>