<svg xmlns="http://www.w3.org/2000/svg" viewBox="15.4406 -112.728 123.4 155.02">
  <path d="M88.893-85.6543C96.3117-85.6543 102.444-91.6531 102.444-99.2853C102.444-106.676 96.3117-112.728 88.893-112.728C81.3965-112.728 75.3978-106.676 75.3978-99.2853C75.3978-91.6531 81.3965-85.6543 88.893-85.6543ZM28.6695-11.1314L69.4795-11.1314C75.1565-11.1314 77.5942-17.4241 74.4604-21.3068L61.6864-37.0262L98.1588-39.4362L132.515-39.4362C135.943-39.4362 138.836-42.2207 138.836-45.7013C138.836-49.0764 135.943-51.9413 132.515-51.9413L69.0246-51.9413L84.0478-67.0173C84.6912-67.6607 85.5733-68.0879 86.483-67.9547L131.417-62.1445C135.139-61.6619 138.433-64.4741 138.433-68.3568C138.433-71.463 136.104-74.167 132.97-74.5691L38.8726-86.4309C36.8647-86.6721 35.0703-85.976 33.6781-84.6642L17.9311-68.9725C15.4406-66.482 15.521-62.6798 17.9311-60.1616C20.1275-57.832 24.2792-57.5907 26.8224-60.1616L40.3453-73.7122L55.0192-71.8374C56.4114-71.6766 56.9744-70.2039 55.9566-69.2138L42.1396-55.5024C36.7038-50.147 36.4098-41.6327 42.1396-35.8752L54.2426-23.6365L28.6695-23.6365C25.1889-23.6365 22.3767-20.852 22.3767-17.4241C22.3767-13.9963 25.1889-11.1314 28.6695-11.1314ZM89.9061 42.2965C91.635 42.2965 92.9642 40.9395 92.9642 39.2107L92.9642-25.27C92.9642-26.9988 91.635-28.3281 89.9061-28.3281C88.1773-28.3281 86.848-26.9988 86.848-25.27L86.848 39.2107C86.848 40.9395 88.1773 42.2965 89.9061 42.2965Z"/>
</svg>