<svg xmlns="http://www.w3.org/2000/svg" viewBox="11.2588 -98.8411 127.2 127.14">
  <path d="M74.8301 28.3017C109.951 28.3017 138.454-0.149147 138.454-35.2697C138.454-70.3903 109.951-98.8411 74.8301-98.8411C39.7624-98.8411 11.2588-70.3903 11.2588-35.2697C11.2588-0.149147 39.7624 28.3017 74.8301 28.3017ZM74.8301 19.2307C44.6948 19.2307 20.3549-5.13439 20.3549-35.2697C20.3549-65.405 44.6948-89.7701 74.8301-89.7701C104.965-89.7701 129.331-65.405 129.331-35.2697C129.331-5.13439 104.965 19.2307 74.8301 19.2307ZM61.3298-0.387857L71.5682-0.387857C73.149-0.387857 73.9004-1.51119 73.4983-3.28042L69.9071-18.9798L80.2234-31.6534L110.629-37.2249L113.208-32.4171C114.226-30.4896 117.628-31.1581 117.199-33.5983L115.535-43.0955C115.294-44.5431 114.354-45.0758 113.097-44.8622L92.1983-41.1655L79.3388-41.8616C75.6143-42.5049 69.4522-45.1839 68.0851-48.6671C67.683-49.6045 68.2736-50.4891 69.1305-50.7027L88.582-54.0803C90.992-54.4824 91.8239-56.518 91.4218-58.2596C91.1001-60.0012 89.5721-61.4211 87.2148-61.019L33.2283-51.1852C30.9238-50.7831 30.0669-48.9083 30.3609-47.1668C30.7102-45.3975 32.2105-43.8444 34.6206-44.2993L50.4557-47.1668C51.8228-47.408 52.4385-46.8451 52.627-46.1213C54.449-39.1826 61.3072-34.2796 68.4068-31.5202L63.2624-22.8927C62.4582-21.5255 62.1642-20.2665 62.5663-18.5249L65.4338-6.0147L60.8724-4.51183C58.5981-3.76294 58.8342-0.387857 61.3298-0.387857ZM56.374-59.2774C60.6086-59.2774 63.9862-62.655 63.9862-66.8896C63.9862-71.1242 60.6086-74.4768 56.374-74.4768C52.1117-74.4768 48.8145-71.1242 48.8145-66.8896C48.8145-62.655 52.1117-59.2774 56.374-59.2774ZM59.4499 4.91221L73.0711 4.91221C73.8728 4.91221 74.5412 4.29651 74.5412 3.49486C74.5412 2.69321 73.8728 2.02474 73.0711 2.02474L59.4499 2.02474C58.6483 2.02474 57.9798 2.69321 57.9798 3.49486C57.9798 4.29651 58.6483 4.91221 59.4499 4.91221ZM122.954-32.0478L120.594-45.4277C120.461-46.2294 119.684-46.7647 118.882-46.6315C118.028-46.4706 117.52-45.7217 117.654-44.9201L120.066-31.5402C120.199-30.7385 121.029-30.1505 121.803-30.3113C122.604-30.3917 123.087-31.1934 122.954-32.0478Z" />
</svg>