<svg xmlns="http://www.w3.org/2000/svg" viewBox="11.2588 -98.8411 127.2 127.14">
  <path d="M74.8301 28.3017C109.951 28.3017 138.454-0.149147 138.454-35.2697C138.454-70.3903 109.951-98.8411 74.8301-98.8411C39.7624-98.8411 11.2588-70.3903 11.2588-35.2697C11.2588-0.149147 39.7624 28.3017 74.8301 28.3017ZM74.8301 19.2307C44.6948 19.2307 20.3549-5.13439 20.3549-35.2697C20.3549-65.405 44.6948-89.7701 74.8301-89.7701C104.965-89.7701 129.331-65.405 129.331-35.2697C129.331-5.13439 104.965 19.2307 74.8301 19.2307ZM64.5692-63.0648C67.517-63.0648 69.8769-65.397 69.8769-68.3725C69.8769-71.3204 67.517-73.733 64.5692-73.733C61.5936-73.733 59.181-71.3204 59.181-68.3725C59.181-65.397 61.5936-63.0648 64.5692-63.0648ZM34.2432-15.6723L51.1918-15.6723C52.2121-15.6723 52.667-15.8055 53.4435-15.9664L72.6941-20.6056C73.0409-20.686 73.3073-20.4448 73.2545-20.1257L71.9678-9.6132L64.4083-15.0013C62.7999-16.1272 60.6286-15.7251 59.475-14.1444C58.2964-12.536 58.6181-10.3119 60.2541-9.15833L71.8874-0.955502C74.4608 0.894156 77.6499 0.250797 78.2933-2.40306L87.8633-40.8689C88.0241-41.3514 88.4262-41.5927 88.9087-41.5122L117.832-35.7497C120.539-35.1867 122.067-37.1972 122.067-39.2077C122.067-40.7357 121.21-42.2637 119.252-42.6658L90.7307-48.4284C81.5905-50.278 75.8279-51.0822 69.3139-51.0822L60.6286-51.0822L60.6286-60.0088C60.6286-62.0193 58.9925-63.5473 57.0097-63.5473C55.0796-63.5473 53.4712-62.0193 53.4712-60.0088L53.4712-47.5714C53.4712-45.6413 55.0796-44.0053 57.0097-44.0053L71.6989-44.0053C72.3699-44.0053 72.8247-43.47 72.6639-42.799L69.7964-31.8091C69.3139-30.0399 68.1604-28.7255 66.4188-28.1098L51.0863-22.7216L34.2432-22.7216C32.2604-22.7216 30.7324-21.1132 30.7324-19.2108C30.7324-17.1727 32.2604-15.6723 34.2432-15.6723ZM84.4078-53.3718C88.5619-53.3718 91.9672-56.8299 91.9672-61.0117C91.9672-65.1936 88.5619-68.5712 84.4078-68.5712C80.1732-68.5712 76.7679-65.1936 76.7679-61.0117C76.7679-56.8299 80.1732-53.3718 84.4078-53.3718Z" />
</svg>