<svg xmlns="http://www.w3.org/2000/svg" viewBox="11.2588 -98.8411 127.2 127.14">
  <path d="M74.8301 28.3017C109.951 28.3017 138.454-0.149147 138.454-35.2697C138.454-70.3903 109.951-98.8411 74.8301-98.8411C39.7624-98.8411 11.2588-70.3903 11.2588-35.2697C11.2588-0.149147 39.7624 28.3017 74.8301 28.3017ZM74.8301 19.2307C44.6948 19.2307 20.3549-5.13439 20.3549-35.2697C20.3549-65.405 44.6948-89.7701 74.8301-89.7701C104.965-89.7701 129.331-65.405 129.331-35.2697C129.331-5.13439 104.965 19.2307 74.8301 19.2307ZM67.1375-51.3486C71.3193-51.3486 74.7497-54.7262 74.7497-58.9885C74.7497-63.1703 71.3193-66.548 67.1375-66.548C62.9557-66.548 59.578-63.1703 59.578-58.9885C59.578-54.7262 62.9557-51.3486 67.1375-51.3486ZM47.0325-34.4076C47.0325-31.6734 49.8472-30.3866 52.0185-31.5125L64.2147-37.6244C64.7777-37.9461 65.4487-37.5717 65.6095-36.9811L69.1203-22.7744L63.5714-8.86176L50.4906-8.86176C48.6133-8.86176 47.0325-7.33378 47.0325-5.48412C47.0325-3.5817 48.6133-2.05372 50.4906-2.05372L65.7427-2.05372C67.2707-2.05372 68.2608-2.66943 69.0123-4.06422L76.4385-17.7884L80.54-6.85126L67.4315 1.96727C65.8231 3.01273 65.421 5.18407 66.4665 6.71205C67.5119 8.24003 69.4948 8.72255 71.1836 7.59667L86.7323-2.74985C87.9109-3.52639 88.4739-4.62716 87.9386-6.69042L78.7431-43.387C78.5018-44.2189 78.6903-44.915 79.5749-45.3171L100.135-55.5581C101.824-56.3623 102.547-58.4532 101.663-60.142C100.778-61.8836 98.7676-62.5018 97.0512-61.67L53.921-40.1175L53.921-51.6703C53.921-53.5476 52.4206-55.0479 50.4906-55.0479C48.6133-55.0479 47.0325-53.5476 47.0325-51.6703ZM91.7711-64.6179C95.4704-64.6179 98.4459-67.5934 98.4459-71.3731C98.4459-75.0725 95.4704-78.1008 91.7711-78.1008C87.9914-78.1008 85.0158-75.0725 85.0158-71.3731C85.0158-67.5934 87.9914-64.6179 91.7711-64.6179Z" />
</svg>