<svg xmlns="http://www.w3.org/2000/svg" viewBox="11.2588 -98.8411 127.2 127.14">
  <path d="M74.8301 28.3017C109.895 28.3017 138.454-0.257224 138.454-35.2697C138.454-70.2822 109.895-98.8411 74.8301-98.8411C39.8177-98.8411 11.2588-70.2822 11.2588-35.2697C11.2588-0.257224 39.8177 28.3017 74.8301 28.3017ZM65.7878-61.4789C61.4477-61.4789 57.9922-64.9345 57.9922-69.2746C57.9922-73.5343 61.4477-76.9647 65.7878-76.9647C70.0475-76.9647 73.5307-73.5343 73.5307-69.2746C73.5307-64.9345 70.0475-61.4789 65.7878-61.4789ZM68.4017-28.0094C64.9461-29.0548 63.2573-31.3317 63.2573-35.0561L63.2573-46.4706C63.2573-47.114 62.8552-47.5412 61.757-47.0863L55.1822-44.475L37.6587-44.475C38.194-45.1512 38.9705-45.7971 40.5615-46.4706L85.4707-64.7987L95.2517-76.1328C96.5912-77.6332 98.8681-77.8744 100.396-76.5349C101.949-75.2759 102.138-72.9186 100.851-71.3906L90.615-59.4936C89.9465-58.7698 89.8661-58.4758 88.7126-57.9932L78.9065-54.0803C77.9138-53.7059 77.5393-53.5174 77.5393-52.0975L77.5393-34.7872L109.828-20.1584C114.356-18.1479 111.569-11.3675 106.799-13.5112L87.9637-21.9528ZM65.0793 3.04764L70.1432-15.2L68.9897-24.7223L77.5393-22.0685L77.5393-14.9864C77.5393-14.7175 77.5393-14.3958 77.4589-14.0214L72.2869 4.95006C71.8044 6.77207 70.2237 7.62903 68.7233 7.62903C66.5797 7.62903 64.3555 5.88745 65.0793 3.04764ZM32.2029-37.4614C31.1098-37.4614 30.2051-38.3384 30.2051-39.4315C30.2051-40.5498 31.1098-41.482 32.2029-41.482L60.2643-41.482L60.2643-37.4614ZM80.5851-37.4614L80.5851-39.1754L80.5851-41.482L113.391-41.482C114.457-41.482 115.442-40.5498 115.442-39.4315C115.442-38.3384 114.457-37.4614 113.391-37.4614Z"/>
</svg>