<svg xmlns="http://www.w3.org/2000/svg" viewBox="11.2588 -98.8411 127.2 127.14">
  <path d="M74.8301 28.3017C109.951 28.3017 138.454-0.149147 138.454-35.2697C138.454-70.3903 109.951-98.8411 74.8301-98.8411C39.7624-98.8411 11.2588-70.3903 11.2588-35.2697C11.2588-0.149147 39.7624 28.3017 74.8301 28.3017ZM74.8301 19.2307C44.6948 19.2307 20.3549-5.13439 20.3549-35.2697C20.3549-65.405 44.6948-89.7701 74.8301-89.7701C104.965-89.7701 129.331-65.405 129.331-35.2697C129.331-5.13439 104.965 19.2307 74.8301 19.2307ZM84.9481-63.1605C88.8662-63.1605 92.0328-66.3547 92.0328-70.3004C92.0328-74.2712 88.8662-77.4378 84.9481-77.4378C80.9774-77.4378 77.7831-74.2712 77.7831-70.3004C77.7831-66.3547 80.9774-63.1605 84.9481-63.1605ZM52.1564-39.3835C54.1695-38.4712 56.0191-39.3558 56.7982-40.8863L62.7293-52.8264L69.8943-52.8264C70.6985-52.8264 71.1283-52.1026 70.8066-51.4316L64.4734-38.9537C62.1387-34.337 65.0364-28.4889 71.1283-28.891L88.0067-29.9641L81.7288-16.0639C80.9774-14.3474 81.7011-12.1735 83.4729-11.5552C85.4307-10.8038 87.1748-11.3944 88.0067-13.2994L96.6746-32.3516C97.5868-34.4174 96.2725-37.29 93.616-37.29L78.321-37.29L85.109-50.841C85.4307-51.4316 86.1017-51.5924 86.5842-51.1099L94.5811-43.4347C96.2171-41.879 99.0093-42.148 100.082-44.347L107.006-58.1945C107.891-59.911 107.355-62.0572 105.531-62.889C103.812-63.7209 101.771-63.0222 100.887-61.253L96.0035-51.7532L92.1132-55.6713C89.4568-58.3277 86.6646-59.7225 82.3194-59.7225L60.6358-59.7225C59.2938-59.7225 58.1403-58.9183 57.5773-57.8175L50.6008-43.9449C49.7413-42.2007 50.3595-40.2153 52.1564-39.3835ZM42.8452-5.81267C43.9183-3.58601 46.253-3.50559 47.3538-4.01577L64.6343-11.5025C65.3053-11.8242 65.9486-12.3871 66.298-13.1385L72.7971-26.1644L71.3419-26.084C68.4995-25.9231 66.2478-26.6997 64.4785-28.0417L60.475-17.2978L44.5893-10.4294C42.8452-9.67792 41.9329-7.63722 42.8452-5.81267ZM99.8411-2.59332C103.812-2.59332 107.006-5.73225 107.006-9.73069C107.006-13.6487 103.812-16.8957 99.8411-16.8957C95.8704-16.8957 92.7565-13.6487 92.7565-9.73069C92.7565-5.73225 95.8704-2.59332 99.8411-2.59332ZM48.995-75.5609C48.995-74.6562 49.7136-73.9376 50.6459-73.9376C53.5738-73.9376 55.4562-73.3721 57.4165-71.3037C58.0598-70.5272 58.7534-70.2332 59.3415-70.2332C60.035-70.2332 60.6758-70.5272 61.372-71.3037C63.2795-73.3721 65.2147-73.9376 68.1425-73.9376C69.0748-73.9376 69.7407-74.6562 69.7407-75.5609C69.7407-76.36 69.0472-77.1063 68.1149-77.1063C64.4909-77.1063 62.1336-76.2468 59.3415-73.6406C56.6548-76.2468 54.2976-77.1063 50.6736-77.1063C49.7413-77.1063 48.995-76.36 48.995-75.5609ZM47.5168 5.81547C48.532 5.81547 49.3337 5.01382 49.3337 3.99856C49.3337 2.98331 48.532 2.23443 47.5168 2.23443C46.5543 2.23443 45.7803 2.98331 45.7803 3.99856C45.7803 5.01382 46.5543 5.81547 47.5168 5.81547ZM53.6138 5.81547C54.6291 5.81547 55.4307 5.01382 55.4307 3.99856C55.4307 2.98331 54.6291 2.23443 53.6138 2.23443C52.5709 2.23443 51.8497 2.98331 51.8497 3.99856C51.8497 5.01382 52.5709 5.81547 53.6138 5.81547ZM59.6555 5.81547C60.6984 5.81547 61.4724 5.01382 61.4724 3.99856C61.4724 2.98331 60.6984 2.23443 59.6555 2.23443C58.6402 2.23443 57.8386 2.98331 57.8386 3.99856C57.8386 5.01382 58.6402 5.81547 59.6555 5.81547ZM65.7248 5.81547C66.6873 5.81547 67.489 5.01382 67.489 3.99856C67.489 2.98331 66.6873 2.23443 65.7248 2.23443C64.7096 2.23443 63.9079 2.98331 63.9079 3.99856C63.9079 5.01382 64.7096 5.81547 65.7248 5.81547ZM71.7691 5.81547C72.7567 5.81547 73.5583 5.01382 73.5583 3.99856C73.5583 2.98331 72.7567 2.23443 71.7691 2.23443C70.8066 2.23443 70.005 2.98331 70.005 3.99856C70.005 5.01382 70.8066 5.81547 71.7691 5.81547ZM77.8384 5.81547C78.8537 5.81547 79.6553 5.01382 79.6553 3.99856C79.6553 2.98331 78.8537 2.23443 77.8384 2.23443C76.8232 2.23443 76.0215 2.98331 76.0215 3.99856C76.0215 5.01382 76.8232 5.81547 77.8384 5.81547ZM83.9078 5.81547C84.923 5.81547 85.6719 5.01382 85.6719 3.99856C85.6719 2.98331 84.923 2.23443 83.9078 2.23443C82.8925 2.23443 82.0909 2.98331 82.0909 3.99856C82.0909 5.01382 82.8925 5.81547 83.9078 5.81547ZM89.9771 5.81547C90.9396 5.81547 91.7413 5.01382 91.7413 3.99856C91.7413 2.98331 90.9396 2.23443 89.9771 2.23443C88.9342 2.23443 88.1879 2.98331 88.1879 3.99856C88.1879 5.01382 88.9342 5.81547 89.9771 5.81547ZM95.9937 5.81547C97.0366 5.81547 97.8106 5.01382 97.8106 3.99856C97.8106 2.98331 97.0366 2.23443 95.9937 2.23443C94.9785 2.23443 94.2296 2.98331 94.2296 3.99856C94.2296 5.01382 94.9785 5.81547 95.9937 5.81547ZM102.063 5.81547C103.078 5.81547 103.88 5.01382 103.88 3.99856C103.88 2.98331 103.078 2.23443 102.063 2.23443C101.048 2.23443 100.246 2.98331 100.246 3.99856C100.246 5.01382 101.048 5.81547 102.063 5.81547Z" />
</svg>