<svg xmlns="http://www.w3.org/2000/svg" viewBox="11.2588 -97.7177 150.04 124.87">
  <path d="M11.2588-22.7621C11.2588-4.33098 17.9311 12.5747 28.9435 25.6478C30.2026 27.1481 32.2658 27.1205 33.7134 25.7006L48.2112 11.2305C49.2868 10.2076 49.3396 8.78256 48.372 7.59882C41.5665-1.02357 37.7063-11.4505 37.7063-22.7621C37.7063-47.6344 56.3889-68.164 80.457-71.0817C82.1735-71.2425 83.3798-72.5569 83.3798-74.2457L83.3798-94.232C83.3798-96.2425 81.8518-97.7177 79.8413-97.5292C41.4788-94.2899 11.2588-62.0619 11.2588-22.7621ZM161.301-22.7621C161.301-62.0619 131.161-94.2899 92.7183-97.5292C90.7078-97.7177 89.1798-96.2425 89.1798-94.232L89.1798-74.2457C89.1798-72.5569 90.3861-71.2425 92.1302-71.0817C116.171-68.164 134.906-47.6344 134.906-22.7621C134.906-11.4505 131.046-1.02357 124.188 7.59882C123.273 8.78256 123.326 10.2076 124.348 11.2305L138.874 25.7006C140.321 27.1205 142.412 27.1205 143.699 25.5925C154.709 12.5193 161.301-4.35864 161.301-22.7621ZM75.833 7.02058C77.7478 7.02058 79.1324 5.58322 79.1324 3.64334L79.1324-3.54463L93.0127-3.54463C94.0782-3.54463 94.9049-4.31863 94.9049-5.43686C94.9049-6.50232 94.0782-7.30142 93.0127-7.30142L79.1324-7.30142L79.1324-19.0857L100.442-19.0857C102.143-19.0857 103.447-20.3371 103.447-21.9579C103.447-23.5535 102.143-24.7521 100.442-24.7521L79.1324-24.7521L79.1324-43.6312L102.641-43.6312C104.394-43.6312 105.699-44.8022 105.699-46.4506C105.699-48.1518 104.394-49.3756 102.641-49.3756L75.8607-49.3756C73.8127-49.3756 72.5362-48.0739 72.5362-45.9455L72.5362-7.30142L66.5073-7.30142C65.389-7.30142 64.6151-6.50232 64.6151-5.43686C64.6151-4.31863 65.389-3.54463 66.5073-3.54463L72.5362-3.54463L72.5362 3.64334C72.5362 5.58322 73.8932 7.02058 75.833 7.02058Z"/>
</svg>