<svg xmlns="http://www.w3.org/2000/svg" viewBox="16.084 -81.8052 165.05 93.24">
  <path d="M23.9796 11.2381C35.7129 11.2381 41.0806 5.93295 43.8877-7.64997L51.5531-44.0367L63.6569-44.0367C66.6771-44.0367 68.6647-45.7076 68.6647-48.3862C68.6647-50.7205 67.152-52.1804 64.7121-52.1804L53.3045-52.1804L55.2724-61.535C57.0216-70.0348 59.6002-73.4478 66.8256-73.4478C68.0119-73.4478 69.0927-73.4452 69.8165-73.498C72.495-73.7618 73.7162-75.0358 73.7162-77.3148C73.7162-80.3704 71.0551-81.7499 65.4512-81.7499C53.929-81.7499 48.1668-75.9171 45.4904-62.8618L43.2033-52.1804L34.3487-52.1804C31.248-52.1804 29.2856-50.5095 29.2856-47.8586C29.2856-45.4966 30.8259-44.0367 33.2935-44.0367L41.4796-44.0367L34.1057-8.9767C32.2509-0.265847 29.6196 2.98881 22.5801 2.98881C21.5245 2.98881 20.5492 2.93349 19.8782 2.98626C17.4107 3.30284 16.084 4.68233 16.084 6.85582C16.084 9.85862 18.6923 11.2381 23.9796 11.2381ZM98.9106 11.4317C100.74 11.4317 102.041 10.3965 102.041 8.59231C102.041 7.7681 101.828 7.28813 101.19 6.14735C93.18-5.55101 88.2689-19.2828 88.2689-35.1063C88.2689-49.9644 92.7954-64.8501 101.27-76.5234C101.828-77.6088 102.041-78.0888 102.041-78.9658C102.041-80.6644 100.74-81.8052 98.9106-81.8052C97.1341-81.8052 95.8099-81.0363 94.0862-78.6794C84.2295-66.8126 79.2281-51.5702 79.2281-35.1591C79.2281-18.7479 84.0082-4.19446 94.0862 8.33104C95.7295 10.6352 97.1341 11.4317 98.9106 11.4317ZM111.098-5.29563C112.822-5.29563 114.016-5.85347 115.37-7.7908L130.143-29.0633L130.357-29.0633L145.371-7.49678C146.695-5.66752 147.994-5.29563 149.323-5.29563C151.896-5.29563 153.567-7.09978 153.567-9.32859C153.567-10.3085 153.276-11.2634 152.612-12.2208L135.819-35.4633L152.502-58.0974C153.221-59.1101 153.592-60.0096 153.592-61.2057C153.592-63.4873 151.655-65.1055 149.479-65.1055C147.544-65.1055 146.456-64.1507 145.338-62.5273L131.042-41.7527L130.776-41.7527L116.375-62.5801C115.337-64.2285 114.119-65.1055 112.051-65.1055C109.555-65.1055 107.673-63.1707 107.673-60.9947C107.673-59.4569 108.179-58.4744 108.922-57.4893L124.972-35.7271L108.101-12.0097C107.329-10.9719 107.143-10.0171 107.143-8.98435C107.143-6.88618 108.947-5.29563 111.098-5.29563ZM161.448 11.4317C163.225 11.4317 164.629 10.6352 166.325 8.33104C176.35-4.19446 181.131-18.7479 181.131-35.1591C181.131-51.5702 176.129-66.8126 166.325-78.6794C164.602-81.0363 163.225-81.8052 161.448-81.8052C159.619-81.8052 158.345-80.6644 158.345-78.9658C158.345-78.0888 158.531-77.6088 159.141-76.5234C167.616-64.8501 172.09-49.9644 172.09-35.1063C172.09-19.2828 167.179-5.55101 159.169 6.14735C158.531 7.28813 158.345 7.7681 158.345 8.59231C158.345 10.2909 159.619 11.4317 161.448 11.4317Z"/>
</svg>