<svg xmlns="http://www.w3.org/2000/svg" viewBox="16.084 -81.8052 137.98 93.18">
  <path d="M20.9888 10.9641C23.9312 10.9641 25.9187 9.05443 25.9187 6.03162L25.9187-30.5563L64.5393-30.5563C67.1651-30.5563 68.9944-32.2273 68.9944-34.8531C68.9944-37.5844 67.1651-39.2026 64.5393-39.2026L25.9187-39.2026L25.9187-71.9177L68.1884-71.9177C70.867-71.9177 72.7767-73.561 72.7767-76.32C72.7767-79.0513 70.867-80.7474 68.1884-80.7474L20.936-80.7474C17.966-80.7474 16.084-78.8126 16.084-75.7898L16.084 6.03162C16.084 9.05443 17.966 10.9641 20.9888 10.9641ZM86.1464 11.3764C88.031 11.3764 89.0135 10.7381 90.3653 8.90889L117.275-27.3093L117.539-27.3093L144.235 8.96165C145.508 10.7381 146.702 11.3764 148.637 11.3764C151.393 11.3764 153.461 9.44162 153.461 6.73794C153.461 5.54439 153.062 4.27043 152.237 3.26027L123.609-35.0259L152.873-73.9554C153.645-75.0711 154.069-76.1591 154.069-77.2999C154.069-79.7649 152.001-81.8052 149.456-81.8052C147.493-81.8052 146.38-81.1418 145.001-79.2598L118.197-42.6118L117.908-42.6118L91.1568-79.2321C89.7496-81.1946 88.742-81.8052 86.6213-81.8052C83.8121-81.8052 81.8245-79.8704 81.8245-77.2471C81.8245-76.0536 82.1939-74.9405 82.993-73.7695L111.493-35.3425L82.6513 3.47133C81.8271 4.64232 81.4024 5.75545 81.4024 6.84347C81.4024 9.44162 83.5231 11.3764 86.1464 11.3764Z"/>
</svg>