<svg xmlns="http://www.w3.org/2000/svg" viewBox="16.084 -102.979 120.03 129.99">
  <path d="M42.8205 27.0128L109.32 27.0128C120.506 27.0128 126.708 20.9689 126.708 9.83646L126.708-30.6716L127.56-30.6716C133.051-31.5937 136.11-35.8709 136.11-42.0479L136.11-57.8171C136.11-64.9966 132.129-69.5627 124.897-69.5627L110.224-69.5627C113.999-72.8574 116.13-77.557 116.13-83.1239C116.13-94.7793 107.078-102.979 95.2819-102.979C86.3502-102.979 79.1452-97.9829 76.0969-89.4256C72.9958-97.9829 65.8435-102.979 56.859-102.979C45.1156-102.979 36.0111-94.7793 36.0111-83.1239C36.0111-77.557 38.1952-72.8574 41.9702-69.5627L27.2969-69.5627C20.4088-69.5627 16.084-64.9966 16.084-57.8171L16.084-42.0479C16.084-35.8709 19.1425-31.5937 24.6336-30.6716L25.4608-30.6716L25.4608 9.83646C25.4608 20.9689 31.688 27.0128 42.8205 27.0128ZM70.8372 18.8941L42.7703 18.8941C37.2009 18.8941 34.1347 15.8003 34.1347 10.2058L34.1347-30.3551L70.8372-30.3551ZM81.3842 18.8941L81.3842-30.3551L118.059-30.3551L118.059 10.2058C118.059 15.8003 114.993 18.8941 109.371 18.8941ZM70.8372-38.4763L29.327-38.4763C26.1353-38.4763 24.7328-39.9894 24.7328-43.1811L24.7328-56.7895C24.7328-59.9812 26.1353-61.4415 29.327-61.4415L70.8372-61.4415ZM81.3842-38.4763L81.3842-61.4415L122.919-61.4415C126.111-61.4415 127.436-59.9812 127.436-56.7895L127.436-43.1811C127.436-39.9894 126.111-38.4763 122.919-38.4763ZM71.267-69.5627L62.1675-69.5627C51.8785-69.5627 45.6883-75.2776 45.6883-82.6515C45.6883-89.4192 50.531-93.3849 57.3867-93.3849C65.2355-93.3849 71.267-87.3304 71.267-77.6018ZM80.9017-69.5627L80.9017-77.6018C80.9017-87.3304 86.9331-93.3849 94.807-93.3849C101.61-93.3849 106.533-89.4192 106.533-82.6515C106.533-75.2776 100.315-69.5627 90.0538-69.5627Z"/>
</svg>