<svg xmlns="http://www.w3.org/2000/svg" viewBox="11.2588 -98.7606 127.2 127.14">
  <path d="M74.8301 28.3821C109.895 28.3821 138.454-0.176804 138.454-35.1893C138.454-70.2018 109.895-98.7606 74.8301-98.7606C39.8177-98.7606 11.2588-70.2018 11.2588-35.1893C11.2588-0.176804 39.8177 28.3821 74.8301 28.3821ZM48.5456-11.1412L48.5456-32.3699L72.3724-32.3699L72.3724-3.11193L56.8386-3.11193C51.6769-3.11193 48.5456-5.95174 48.5456-11.1412ZM77.3406-3.11193L77.3406-32.3699L101.167-32.3699L101.167-11.1412C101.167-5.95174 98.0362-3.11193 92.8744-3.11193ZM43.7076-40.5323L43.7076-48.162C43.7076-51.4239 45.713-53.0123 49.0026-53.0123L57.3671-53.0123C55.2936-54.7539 54.1601-57.2771 54.1601-60.2352C54.1601-66.3067 58.7815-70.5562 64.8304-70.5562C69.4999-70.5562 73.252-67.9223 74.8301-63.4137C76.4611-67.9223 80.2132-70.5562 84.8299-70.5562C90.9316-70.5562 95.553-66.3067 95.553-60.2352C95.553-57.2771 94.3667-54.7539 92.346-53.0123L100.71-53.0123C104.158-53.0123 105.953-51.4239 105.953-48.162L105.953-40.5323C105.953-37.1372 104.158-35.682 100.71-35.682L77.3406-35.682L77.3406-53.0123L82.065-53.0123C87.388-53.0123 90.6452-56.1487 90.6452-60.0518C90.6452-63.5047 88.1296-65.5957 84.6188-65.5957C80.4519-65.5957 77.3406-62.4465 77.3406-57.3648L77.3406-53.0123L72.3724-53.0123L72.3724-57.3648C72.3724-62.4465 69.2612-65.5957 65.0942-65.5957C61.5834-65.5957 59.0151-63.5047 59.0151-60.0518C59.0151-56.1487 62.2723-53.0123 67.6481-53.0123L72.3724-53.0123L72.3724-35.682L49.0026-35.682C45.6075-35.682 43.7076-37.1372 43.7076-40.5323Z"/>
</svg>