<svg xmlns="http://www.w3.org/2000/svg" viewBox="16.084 -101.643 137.89 132.75">
  <path d="M23.7609 17.5768L146.345 17.5768L146.345 13.8251C146.345 11.7044 145.071 10.4581 142.897 10.4581L138.876 10.4581L138.876-59.8888L144.541-59.8888C147.514-59.8888 149.21-62.0095 149.21-64.2132C149.21-65.7761 148.283-67.2109 146.345-68.4045L92.3758-99.5321C90.0236-100.922 87.4855-101.643 85.0529-101.643C82.5675-101.643 80.0017-100.922 77.6495-99.5321L23.6801-68.4045C21.7177-67.2109 20.8433-65.7761 20.8433-64.2132C20.8433-62.0095 22.5117-59.8888 25.5119-59.8888L31.2294-59.8888L31.2294 10.4581L27.2084 10.4581C25.0349 10.4581 23.7609 11.7044 23.7609 13.8251ZM39.4034 10.4581L39.4034-67.3573L82.1901-91.4411C83.0547-91.9538 84.0802-92.2504 85.0529-92.2504C85.9728-92.2504 86.9706-91.9538 87.8352-91.4411L130.755-67.3573L130.755 10.4581ZM20.4084 31.1036L149.645 31.1036C151.979 31.1036 153.969 29.1135 153.969 26.7264C153.969 24.3644 151.979 22.402 149.645 22.402L20.4084 22.402C18.0464 22.402 16.084 24.3644 16.084 26.7264C16.084 29.1135 18.0464 31.1036 20.4084 31.1036ZM85.4877-8.13033C98.9098-8.13033 107.088-16.2047 107.088-30.376L107.088-33.2814C107.088-35.4097 105.731-36.7139 103.788-36.7139L86.606-36.7139L86.606-31.4496L100.763-31.4496L100.763-28.9663C100.763-20.0019 95.2313-13.7917 85.5405-13.7917C73.892-13.7917 68.0639-23.794 68.0639-35.9829C68.0639-47.3927 73.4095-57.8775 85.435-57.8775C92.3515-57.8775 98.3881-53.8059 100.042-47.817C100.65-46.1409 101.421-45.3695 103.23-45.3695C104.959-45.3695 106.075-46.4877 106.075-48.2165C106.075-48.9931 105.967-49.953 105.514-50.9934C102.541-59.3647 93.7357-63.5389 85.435-63.5389C69.6931-63.5389 61.3396-51.5214 61.3396-35.9301C61.3396-19.8665 70.0875-8.13033 85.4877-8.13033ZM85.1912-0.779362C86.2843-0.779362 87.111-1.57846 87.111-2.67158L87.111-68.804C87.111-69.9222 86.2843-70.749 85.1912-70.749C83.9925-70.749 83.2462-69.9222 83.2462-68.804L83.2462-2.67158C83.2462-1.57846 83.9925-0.779362 85.1912-0.779362Z"/>
</svg>