<svg xmlns="http://www.w3.org/2000/svg" viewBox="16.084 -102.163 39.24 134.2">
  <path d="M35.6656-62.9218C46.5245-62.9218 55.3252-71.7225 55.3252-82.5562C55.3252-93.39 46.5245-102.163 35.6656-102.163C24.8847-102.163 16.084-93.39 16.084-82.5562C16.084-71.7225 24.8847-62.9218 35.6656-62.9218ZM35.6908-1.23501C38.0778-1.23501 40.0152-3.19745 40.0152-5.55944L40.0152-64.5174C40.0152-66.9045 38.0778-68.8419 35.6908-68.8419C33.3564-68.8419 31.3663-66.9045 31.3663-64.5174L31.3663-5.55944C31.3663-3.19745 33.3564-1.23501 35.6908-1.23501ZM35.6908 32.0333C46.5245 32.0333 55.3252 23.2603 55.3252 12.4793C55.3252 1.59283 46.5245-7.1802 35.6908-7.1802C24.8847-7.1802 16.084 1.59283 16.084 12.4793C16.084 23.2603 24.8847 32.0333 35.6908 32.0333Z"/>
</svg>