<svg xmlns="http://www.w3.org/2000/svg" viewBox="11.2588 -89.429 220.02 108.32">
  <path d="M121.243 18.8896C151.174 18.8896 175.403-5.33898 175.403-35.2697C175.403-65.2004 151.174-89.429 121.243-89.429C91.3653-89.429 67.1367-65.2004 67.1367-35.2697C67.1367-5.33898 91.3653 18.8896 121.243 18.8896ZM51.8948-10.6969C53.5381-12.6317 52.8773-15.049 51.151-17.3531C47.0266-22.0728 44.9808-28.4438 44.9808-35.2697C44.9808-42.0956 47.0266-48.4666 51.151-53.1863C52.8773-55.4904 53.5381-57.9077 51.8948-59.8425C50.0906-61.8326 46.8819-61.8577 44.9722-59.4455C39.4458-52.8915 36.2541-44.4299 36.2541-35.2697C36.2541-26.1095 39.4458-17.6479 44.9722-11.0939C46.8819-8.6817 50.0906-8.70681 51.8948-10.6969ZM34.4564 7.0657C36.1274 5.10325 35.6223 2.60808 33.6599 0.462244C24.9592-9.02986 20.0132-21.4775 20.0132-35.2697C20.0132-49.0619 24.9592-61.5095 33.6599-71.0016C35.6223-73.1475 36.1274-75.6427 34.4564-77.6051C32.7327-79.6203 29.7073-79.5926 27.6393-77.3136C17.215-66.2033 11.2588-51.3962 11.2588-35.2697C11.2588-19.1432 17.215-4.33608 27.6393 6.77422C29.7073 9.05324 32.7327 9.0809 34.4564 7.0657ZM190.644-10.6969C192.421-8.70681 195.63-8.6817 197.567-11.0939C203.093-17.6479 206.285-26.1095 206.285-35.2697C206.285-44.4299 203.093-52.8915 197.567-59.4455C195.63-61.8577 192.421-61.8326 190.644-59.8425C188.921-57.9077 189.662-55.4904 191.388-53.1863C195.485-48.4666 197.531-42.0956 197.531-35.2697C197.531-28.4438 195.485-22.0728 191.388-17.3531C189.662-15.049 188.921-12.6317 190.644-10.6969ZM208.055 7.0657C209.807 9.0809 212.804 9.05324 214.9 6.77422C225.297-4.33608 231.28-19.1432 231.28-35.2697C231.28-51.3962 225.297-66.2033 214.9-77.3136C212.804-79.5926 209.807-79.6203 208.055-77.6051C206.412-75.6427 206.917-73.1475 208.852-71.0016C217.58-61.5095 222.526-49.0619 222.526-35.2697C222.526-21.4775 217.58-9.02986 208.852 0.462244C206.917 2.60808 206.412 5.10325 208.055 7.0657ZM121.138-33.9528C111.666-33.9528 103.324-37.5993 98.9141-47.3378C99.957-47.8956 101.264-48.1871 102.787-48.1871L103.496-48.1871L103.496-51.1652C103.496-60.876 111.052-68.1615 121.138-68.1615C131.198-68.1615 138.727-60.876 138.727-51.1652L138.727-48.1871L139.464-48.1871C141.012-48.1871 142.293-47.8956 143.389-47.3378C138.926-37.5993 130.585-33.9528 121.138-33.9528ZM107.788-48.1871L134.463-48.1871L134.463-51.1652C134.463-58.4761 128.77-63.8719 121.138-63.8719C113.505-63.8719 107.788-58.4761 107.788-51.1652ZM92.1789-19.5751L94.6744-40.6931C94.7825-42.1786 95.2701-43.3372 95.9211-44.3324C100.301-35.7475 107.597-31.4299 115.539-30.0628L115.539-28.1604C115.539-26.2856 116.612-25.0793 118.592-25.0793L123.631-25.0793C125.611-25.0793 126.765-26.2856 126.765-28.1604L126.765-30.0628C134.653-31.4299 141.921-35.7475 146.329-44.3324C147.008-43.3372 147.468-42.1786 147.603-40.6931L150.044-19.5751C150.876-12.3951 147.772-8.54263 141.049-8.54263L101.201-8.54263C94.4783-8.54263 91.3747-12.3951 92.1789-19.5751Z" />
</svg>