<svg xmlns="http://www.w3.org/2000/svg" viewBox="16.084 -122.551 146.35 166.42">
  <path d="M108.09-77.6792C109.019-77.6792 109.658-78.2622 109.738-79.2447C111.759-94.3815 112.256-94.5296 127.607-97.2213C128.642-97.3017 129.28-97.8319 129.28-98.8144C129.28-99.6662 128.642-100.277 127.818-100.41C112.362-103.391 111.759-103.222 109.738-118.331C109.658-119.289 109.019-119.899 108.09-119.899C107.293-119.899 106.602-119.289 106.522-118.384C104.395-103.092 104.112-102.863 88.4421-100.41C87.6179-100.33 86.9796-99.6662 86.9796-98.8144C86.9796-97.8846 87.6179-97.3017 88.4421-97.2213C104.112-94.1351 104.343-94.3011 106.522-79.1392C106.602-78.2622 107.293-77.6792 108.09-77.6792ZM66.1232-94.3611C66.7338-94.3611 67.2112-94.7053 67.3972-95.4491C69.0558-105.173 69.1162-105.424 79.0887-107.221C79.8601-107.354 80.232-107.751 80.232-108.442C80.232-109.133 79.8601-109.558 79.0887-109.744C69.1439-111.707 69.5234-111.93 67.3972-121.463C67.2112-122.207 66.7866-122.551 66.1232-122.551C65.4875-122.551 65.0628-122.154 64.9297-121.463C62.723-111.93 63.2132-111.707 53.1854-109.744C52.414-109.558 51.9893-109.08 51.9893-108.442C51.9893-107.804 52.414-107.354 53.1854-107.221C63.2132-105.178 63.163-105.173 64.9297-95.4491C65.0628-94.7581 65.4875-94.3611 66.1232-94.3611ZM33.7232 42.473C34.5449 42.473 34.9168 42.0233 35.0776 41.2795C37.2387 28.9527 37.274 28.5429 50.1663 26.1882C50.9905 26.0022 51.468 25.5776 51.468 24.7534C51.468 23.9845 50.9905 23.5598 50.1663 23.4266C37.3017 20.8004 37.7617 20.4435 35.0776 8.28259C34.9168 7.5388 34.5449 7.08904 33.7232 7.08904C33.0347 7.08904 32.5824 7.5388 32.3965 8.28259C29.7652 20.4435 30.3081 20.8004 17.3605 23.4266C16.5891 23.5598 16.084 23.9845 16.084 24.7534C16.084 25.5776 16.5891 26.0022 17.3605 26.1882C30.3081 28.7616 30.2051 28.9527 32.3965 41.2795C32.5824 42.0233 33.0347 42.473 33.7232 42.473ZM128.803 25.1682C144.085 9.88628 146.603-9.17285 136.254-30.9105L121.761-61.3977C120.773-63.3729 119.705-64.8958 118.449-66.2051C113.961-70.6933 107.439-70.4822 103.027-66.097C100.059-63.1291 99.1766-58.6584 101.212-53.7578L106.307-41.6529C106.415-41.3563 106.415-41.0874 106.254-40.9265C106.013-40.6853 105.744-40.7657 105.531-41.007L68.3728-78.1119C63.3693-83.1682 57.0591-83.1933 52.4126-78.4664C50.5629-76.6971 49.5175-74.3373 49.5753-71.8945C44.5744-75.8904 38.8948-75.9282 34.5572-71.5907C30.3252-67.3586 30.3077-61.4075 34.09-56.5674C31.7527-56.6253 29.5512-55.6326 27.8875-53.9412C23.4771-49.5309 23.555-43.4594 28.4002-38.667L33.673-33.3665C31.1774-33.4771 28.7121-32.3512 26.8373-30.4488C22.427-26.0385 22.5852-19.7308 27.4832-14.8328L65.4487 23.1603C86.1617 43.8733 110.644 43.2747 128.803 25.1682ZM123.363 20.017C107.857 35.5228 88.0714 35.5308 69.9692 17.4538L33.0565-19.4313C30.9252-21.5903 30.7316-24.3096 32.7272-26.3857C34.8032-28.3812 37.6859-28.3787 39.8449-26.2197L62.3749-3.68978C63.8701-2.14179 65.9959-2.3554 67.2975-3.65702C68.5992-4.95865 68.8379-7.10958 67.2899-8.63246L33.4735-42.4212C31.3145-44.5802 31.1486-47.3272 33.1442-49.3756C35.1925-51.3711 38.103-51.3686 40.2092-49.2096L71.7461-17.6726C73.3218-16.1498 75.42-16.3106 76.7216-17.6122C78.0509-18.9139 78.2368-21.0648 76.7139-22.5877L39.7437-59.5051C37.6375-61.6641 37.4464-64.6298 39.5225-66.6531C41.4627-68.6461 44.3732-68.4525 46.5321-66.2935L83.4772-29.3484C84.8869-27.9638 87.0404-27.9034 88.3723-29.3157C89.8096-30.6726 89.8296-32.8789 88.445-34.2635L56.8804-65.8281C54.7214-67.9871 54.6661-70.8447 56.6617-72.8931C58.7101-74.8887 61.5099-74.7755 63.5884-72.6165L107.158-29.0468C109.241-26.9912 111.752-27.0214 113.488-28.7578C115.011-30.2807 115.597-32.2559 114.423-35.1859L106.454-55.625C105.212-58.6711 106.177-61.2045 108.63-62.3104C111.189-63.5495 113.481-62.3079 115.042-59.1336L129.88-27.8575C139.266-8.07247 135.831 7.49663 123.363 20.017ZM68.24-84.1762C66.3904-82.4069 65.4253-80.0471 65.4028-77.5767L72.6802-71.5379C70.5489-73.6441 70.4659-76.5545 72.5419-78.5501C74.5375-80.5985 77.282-80.4049 79.4686-78.2736L100.86-56.8568L104.983-63.0636L84.2002-83.8218C79.144-88.878 72.9418-88.8227 68.24-84.1762ZM144.631 19.4584C159.912 4.20412 162.431-14.8299 152.082-36.5953L137.588-67.0799C135.131-72.3421 130.904-75.0636 126.127-75.0636C121.741-75.0636 115.373-71.9949 115.373-64.3933C115.373-63.6142 115.429-62.8879 115.564-62.1088L122.216-60.3297C121.811-61.2722 121.542-62.1343 121.542-63.1797C121.542-65.5046 123.292-67.6283 126.285-67.6283C128.198-67.6283 130.055-66.3391 131.105-64.2103L145.707-33.5673C155.121-13.7823 151.738 1.83958 139.218 14.2545C133.953 19.492 128.228 22.9551 122.256 24.5333L113.949 32.9511C124.946 33.1596 135.591 28.5229 144.631 19.4584Z"/>
</svg>