<svg xmlns="http://www.w3.org/2000/svg" viewBox="10.1129 -96.7472 124.2 127.01">
  <path d="M116.489 11.5892C131.824-3.69272 134.317-22.7519 123.94-44.5172L109.475-74.9491C108.54-76.8992 107.391-78.4748 106.135-79.7841C101.647-84.2723 95.1254-84.0612 90.7125-79.676C87.7723-76.7081 86.8625-72.1846 88.873-67.3117L94.0207-55.2319C94.1288-54.9353 94.1011-54.6664 93.9403-54.5055C93.699-54.2643 93.4578-54.3447 93.2165-54.586L56.0588-91.6633C51.0553-96.7472 44.7727-96.7195 40.0985-92.073C38.2489-90.2761 37.2311-87.8635 37.2085-85.4207C32.2604-89.4443 26.6084-89.5072 22.2708-85.1169C18.0388-80.9376 17.9937-74.9865 21.8564-70.1464C19.4387-70.1767 17.2648-69.184 15.5734-67.4675C11.1631-63.1376 11.2937-57.0384 16.0861-52.246L21.3062-46.9204C18.8634-47.0034 16.398-45.8775 14.4705-44.0555C10.1129-39.5647 10.2712-33.3098 15.2219-28.4118L53.1095 9.58127C73.8753 30.2666 98.4102 29.7484 116.489 11.5892ZM111.049 6.43803C95.5432 21.9438 75.7573 21.9769 57.708 3.87479L20.7701-33.0103C18.6111-35.1165 18.4452-37.8886 20.4935-39.9119C22.4891-41.9603 25.3996-41.9577 27.5585-39.7987L50.0332-17.2964C51.6088-15.7208 53.7346-15.9344 54.9835-17.1833C56.2851-18.5125 56.5515-20.6358 54.9758-22.2115L21.1871-56.0278C19.0005-58.1592 18.8345-60.9062 20.9105-62.9018C22.9061-64.9501 25.7361-64.8948 27.9228-62.7886L59.4321-31.2517C61.0077-29.676 63.1336-29.8896 64.4075-31.1385C65.684-32.4929 65.9228-34.591 64.4275-36.1667L27.5101-73.0841C25.3234-75.2155 25.2128-78.1837 27.2335-80.2321C29.1487-82.1447 32.0591-82.0039 34.2457-79.8726L71.216-42.847C72.6006-41.5705 74.7264-41.4573 76.0582-42.8947C77.4956-44.1989 77.5156-46.4855 76.1586-47.7897L44.5664-79.3543C42.4074-81.5133 42.3521-84.371 44.4004-86.4193C46.396-88.4677 49.1958-88.3545 51.302-86.1955L94.9245-42.6258C96.9274-40.5174 99.4655-40.628 101.202-42.3368C102.697-43.8597 103.31-45.7822 102.137-48.7398L94.1676-69.204C92.8983-72.2501 93.8634-74.7835 96.344-75.8894C98.9026-77.1285 101.247-75.7813 102.755-72.7126L117.565-41.4365C126.899-21.6515 123.517-6.02961 111.049 6.43803Z"/>
</svg>