<svg xmlns="http://www.w3.org/2000/svg" viewBox="2.69093 -110.797 132.27 142.51">
  <path d="M106.576-94.2854L87.0418-94.2854C79.3695-98.2659 70.0638-100.671 59.69-100.671L51.4472-100.671C47.3803-100.671 38.3005-100.884 30.955-98.052L37.6363-91.343C41.1322-92.6828 47.039-92.708 51.4472-92.708L59.1096-92.708C84.5445-92.708 101.634-78.1119 101.634-57.8614C101.634-48.1077 100.015-41.1839 95.5361-33.4959L107.346-21.6885L109.933-21.6885C123.818-22.4523 134.958-38.4176 134.958-58.095C134.958-77.923 122.006-94.2854 106.576-94.2854ZM106.576-86.2169C117.39-86.2169 126.942-73.4905 126.942-58.095C126.942-42.2421 118.327-29.6515 108.825-29.6515L102.705-29.6515C107.606-38.2666 109.649-46.9694 109.649-57.7559C109.649-69.1002 105.344-78.9391 97.6786-86.2169ZM47.5393-25.7415L26.3642-25.7415C22.3104-25.7415 19.2745-28.8328 19.2745-32.9669C19.2745-35.8319 20.1566-37.6841 22.3151-39.7848C23.5291-40.8353 23.6648-42.2378 22.6368-43.4994C20.8803-45.9116 20.051-47.7387 20.051-50.1513C20.051-53.0213 21.4182-55.4641 23.9814-57.4342C25.537-58.5048 26.1276-60.0855 25.1852-61.9628C22.7624-65.8506 22.2526-69.6886 25.2285-72.7621L19.4416-78.4962C16.6469-75.7445 15.0334-72.0779 15.0334-68.1399C15.0334-65.589 15.5462-63.1211 16.5163-61.1684C13.6739-58.5852 12.0353-54.4889 12.0353-50.1513C12.0353-47.2813 12.7893-44.253 14.0535-42.1974C12.3068-39.9031 11.2588-36.5833 11.2588-32.9669C11.2588-24.453 17.8779-17.7258 26.3642-17.7258L48.567-17.7258C50.5327-17.7258 51.7594-16.851 51.7594-15.2196C51.7594-8.62011 41.6669 6.34015 41.6669 18.267C41.6669 26.0848 47.0823 31.7138 54.6589 31.7138C60.2628 31.7138 63.9166 28.8038 67.6282 21.7272C73.2376 10.9608 78.8968 2.43194 88.1957-9.79483L82.5671-15.3707C75.1459-5.75304 66.918 5.25684 60.487 18.0385C58.1824 22.5948 56.7072 23.7509 54.3423 23.7509C51.5927 23.7509 49.6826 21.7327 49.6826 18.267C49.6826 8.51875 59.7475-6.07217 59.7475-15.2196C59.7475-21.7609 54.4627-25.7415 47.5393-25.7415ZM10.2016-109.151C8.55569-110.797 5.90223-110.797 4.30913-109.151C2.71603-107.477 2.69093-104.904 4.30913-103.258L117.833 10.185C119.423 11.7756 122.104 11.8309 123.75 10.185C125.343 8.59191 125.343 5.88569 123.75 4.29259Z"/>
</svg>