<svg xmlns="http://www.w3.org/2000/svg" viewBox="11.2588 -98.7606 127.2 127.14">
  <path d="M74.8301 28.3821C109.895 28.3821 138.454-0.176804 138.454-35.1893C138.454-70.2018 109.895-98.7606 74.8301-98.7606C39.8177-98.7606 11.2588-70.2018 11.2588-35.1893C11.2588-0.176804 39.8177 28.3821 74.8301 28.3821ZM40.1972-35.2723C40.1972-57.6413 54.0694-72.5314 74.8829-72.5314C95.7491-72.5314 109.674-57.5886 109.674-35.2723C109.674-23.7751 106.862-14.2124 101.853-5.399C100.738-3.56464 98.828-2.73533 96.9711-3.25277C95.29-1.62946 92.8901-1.01886 90.1962-1.87327C86.1101-2.9966 84.2681-6.41425 85.4719-10.4753L90.3047-26.6673C91.5085-30.7811 94.9789-32.6733 98.9871-31.4696C100.158-31.1781 101.065-30.6454 101.864-30.0071C102-31.7538 102.081-33.5005 102.081-35.2723C102.081-53.0429 91.206-64.9378 74.8829-64.9378C58.6653-64.9378 47.7908-53.0957 47.7908-35.2723C47.7908-33.5005 47.8712-31.8065 48.0597-30.1126C48.7533-30.6981 49.7132-31.1781 50.751-31.4696C54.8925-32.6733 58.3629-30.7811 59.5666-26.6673L64.3467-10.528C65.5505-6.46701 63.6557-2.9966 59.5419-1.87327C56.9285-0.966097 54.4759-1.62946 52.8475-3.25277C50.9905-2.73533 49.0281-3.56464 47.9903-5.399C43.0621-14.0014 40.1972-23.6169 40.1972-35.2723Z"/>
</svg>