<svg xmlns="http://www.w3.org/2000/svg" viewBox="12.8672 -95.3961 131.45 119.35">
  <path d="M29.2218 23.9517L127.961 23.9517C138.171 23.9517 144.316 16.8148 144.316 7.73534C144.316 4.84278 143.486 1.78937 141.878-1.02533L92.497-87.332C89.3985-92.7299 84.0533-95.3961 78.6052-95.3961C73.1294-95.3961 67.7314-92.7299 64.6857-87.332L15.3049-1.02533C13.6437 1.84213 12.8672 4.84278 12.8672 7.73534C12.8672 16.8148 19.0115 23.9517 29.2218 23.9517ZM29.3023 15.4612C24.449 15.4612 21.5714 11.8018 21.5714 7.70769C21.5714 6.24738 21.9509 4.54581 22.7628 3.05784L72.0631-83.2463C73.4907-85.752 76.0743-86.8252 78.6052-86.8252C81.0556-86.8252 83.5865-85.752 85.0668-83.2463L134.367 3.11061C135.179 4.59857 135.559 6.24738 135.559 7.70769C135.559 11.8018 132.681 15.4612 127.828 15.4612ZM68.5701 1.97708L91.7362 1.97708C93.7288 1.97708 95.2943 0.46185 95.2943-1.52825C95.2943-3.44048 93.7288-4.9557 91.7362-4.9557L84.0002-4.9557L84.0002-35.7079C84.0002-38.2784 82.6458-39.977 80.1783-39.977L69.3667-39.977C67.3464-39.977 65.8086-38.4894 65.8086-36.5772C65.8086-34.5871 67.3464-33.0719 69.3667-33.0719L76.3061-33.0719L76.3061-4.9557L68.5701-4.9557C66.5247-4.9557 64.9593-3.44048 64.9593-1.52825C64.9593 0.46185 66.5247 1.97708 68.5701 1.97708ZM78.2358-50.0375C81.9624-50.0375 84.8924-52.9927 84.8924-56.6665C84.8924-60.3931 81.9624-63.3759 78.2358-63.3759C74.562-63.3759 71.5792-60.3931 71.5792-56.6665C71.5792-52.9927 74.562-50.0375 78.2358-50.0375Z"/>
</svg>