<svg xmlns="http://www.w3.org/2000/svg" viewBox="15.393 -76.4414 155.79 82.34">
  <path d="M17.6218-38.9282C15.6844-36.7547 15.393-33.6792 17.569-31.5835L37.003-12.1496C39.0986-10.0012 42.3325-10.1067 44.4281-12.2023L54.7626-22.5645L69.6535-7.69881C71.641-5.63085 74.9025-5.71127 77.0786-7.80689L91.2384-21.9139C99.2927-4.13817 113.389 5.90196 130.116 5.90196C152.869 5.90196 171.18-12.4887 171.18-35.2697C171.18-58.1311 152.95-76.4414 130.116-76.4414C113.452-76.4414 98.6119-66.708 92.1961-51.4308L32.288-51.4308C30.426-51.4308 28.3253-50.898 26.8854-49.1943ZM26.1149-35.2697L33.5718-42.7542L98.4051-42.7542C101.929-57.5792 114.856-67.8453 130.116-67.8453C148.04-67.8453 162.531-53.3016 162.531-35.2697C162.531-17.2654 148.068-2.77456 130.116-2.77456C115.017-2.77456 101.929-13.0934 97.6912-29.8241L86.7029-29.8241L73.2592-16.3528L59.3007-30.4722L50.3854-30.4722L40.7696-20.7759ZM132.418-35.2697C132.418-29.7007 136.889-25.23 142.458-25.23C147.974-25.23 152.445-29.7007 152.445-35.2697C152.445-40.8914 147.974-45.2567 142.458-45.2567C136.889-45.2567 132.418-40.8387 132.418-35.2697Z"/>
</svg>