<svg xmlns="http://www.w3.org/2000/svg" viewBox="11.2588 -98.8411 127.2 127.14">
  <path d="M74.8301 28.3017C109.895 28.3017 138.454-0.257224 138.454-35.2697C138.454-70.2822 109.895-98.8411 74.8301-98.8411C39.8177-98.8411 11.2588-70.2822 11.2588-35.2697C11.2588-0.257224 39.8177 28.3017 74.8301 28.3017ZM41.4929-52.7238C38.9727-52.7238 37.1936-54.2892 37.1936-56.6261C37.1936-59.0408 38.9727-60.6339 41.4929-60.6339L108.434-60.6339C110.874-60.6339 112.653-59.0408 112.653-56.6261C112.653-54.2892 110.874-52.7238 108.434-52.7238ZM41.4929-31.3699C38.9727-31.3699 37.1936-32.963 37.1936-35.325C37.1936-37.7398 38.9727-39.3329 41.4929-39.3329L108.434-39.3329C110.874-39.3329 112.653-37.7398 112.653-35.325C112.653-32.963 110.874-31.3699 108.434-31.3699ZM41.4929-9.93312C38.9727-9.93312 37.1936-11.5262 37.1936-13.941C37.1936-16.2779 38.9727-17.8433 41.4929-17.8433L108.434-17.8433C110.874-17.8433 112.653-16.2779 112.653-13.941C112.653-11.5262 110.874-9.93312 108.434-9.93312Z"/>
</svg>