<svg xmlns="http://www.w3.org/2000/svg" viewBox="16.084 -92.6262 114.77 114.82">
  <path d="M35.0976 22.1923L111.836 22.1923C124.482 22.1923 130.85 15.7689 130.85 3.33696L130.85-73.7708C130.85-86.2028 124.482-92.6262 111.836-92.6262L35.0976-92.6262C22.5048-92.6262 16.084-86.2581 16.084-73.7708L16.084 3.33696C16.084 15.8242 22.5048 22.1923 35.0976 22.1923ZM39.2543-30.4274C34.2614-30.4274 33.5904-35.8526 37.3974-37.6368L99.5275-67.033C103.995-69.1614 107.853-65.3897 105.669-60.864L76.4811 1.28861C74.7523 4.95732 69.3245 4.4799 69.3245-0.651279L69.2441-28.651C69.2441-29.7113 68.5556-30.3998 67.5757-30.3998Z"/>
</svg>