<svg xmlns="http://www.w3.org/2000/svg" viewBox="11.2588 -98.8411 127.2 127.14">
  <path d="M74.8301 28.3017C109.951 28.3017 138.454-0.149147 138.454-35.2697C138.454-70.3903 109.951-98.8411 74.8301-98.8411C39.7624-98.8411 11.2588-70.3903 11.2588-35.2697C11.2588-0.149147 39.7624 28.3017 74.8301 28.3017ZM74.8301 19.2307C44.6948 19.2307 20.3549-5.13439 20.3549-35.2697C20.3549-65.405 44.6948-89.7701 74.8301-89.7701C104.965-89.7701 129.331-65.405 129.331-35.2697C129.331-5.13439 104.965 19.2307 74.8301 19.2307ZM78.6295-45.891C84.4448-47.4867 88.7624-52.8948 88.7624-59.268C88.7624-66.9151 82.4522-73.2002 74.8301-73.2002C68.4319-73.2002 63.0765-68.8827 61.4532-63.0422ZM66.8613-63.0175C66.8337-65.4527 68.9748-67.4857 71.2768-67.4857C73.7094-67.4857 75.7424-65.4527 75.7148-63.0175C75.6871-60.6628 73.7094-58.577 71.2768-58.577C68.9748-58.577 66.889-60.6628 66.8613-63.0175ZM71.061-29.2084L71.061-11.7302C71.061-3.22138 72.3928 3.83694 74.8301 3.83694C77.2423 3.83694 78.4938-3.08819 78.4938-11.7302L78.4938-21.748ZM104.578-1.89798C105.591-0.938046 107.242-0.857626 108.202-1.89798C109.267-2.99111 109.267-4.53654 108.202-5.57435L45.1625-68.6691C44.1497-69.6818 42.4711-69.6818 41.4584-68.6691C40.4457-67.6287 40.4734-65.9778 41.4584-64.9927Z" />
</svg>