<svg xmlns="http://www.w3.org/2000/svg" viewBox="16.084 -88.5775 147.91 106.78">
  <path d="M46.7087-23.1143C44.3994-23.1143 42.5953-24.9461 42.5953-27.2277C42.5953-29.5093 44.3994-31.3411 46.7087-31.3411L74.2152-31.3411C76.5245-31.3411 78.3286-29.5093 78.3286-27.2277C78.3286-24.9461 76.5245-23.1143 74.2152-23.1143ZM119.521-8.31962C117.239-8.31962 115.355-10.1238 115.355-12.433L115.355-23.1143L104.699-23.1143C102.364-23.1143 100.533-24.9461 100.533-27.2277C100.533-29.5093 102.337-31.3411 104.699-31.3411L115.355-31.3411L115.355-42.0501C115.355-44.3317 117.239-46.1635 119.521-46.1635C121.803-46.1635 123.634-44.3317 123.634-42.0501L123.634-31.3411L134.316-31.3411C136.597-31.3411 138.429-29.5093 138.429-27.2277C138.429-24.9461 136.597-23.1143 134.316-23.1143L123.634-23.1143L123.634-12.433C123.634-10.1514 121.803-8.31962 119.521-8.31962ZM35.0976 18.199L144.977 18.199C157.623 18.199 163.991 11.7756 163.991-0.656379L163.991-53.6382C163.991-66.0701 157.623-72.4935 144.977-72.4935L136.869-72.4935L136.869-81.2848C136.869-85.8258 134.306-88.5775 129.651-88.5775L116.626-88.5775C111.999-88.5775 109.355-85.8258 109.355-81.2848L109.355-72.4935L70.7193-72.4935L70.7193-81.2848C70.7193-85.8258 68.1284-88.5775 63.5019-88.5775L50.4761-88.5775C45.8219-88.5775 43.2059-85.8258 43.2059-81.2848L43.2059-72.4935L35.0976-72.4935C22.5048-72.4935 16.084-66.1255 16.084-53.6382L16.084-0.656379C16.084 11.8309 22.5048 18.199 35.0976 18.199Z"/>
</svg>