<svg xmlns="http://www.w3.org/2000/svg" viewBox="16.084 -104.229 147.91 122.46">
  <path d="M116.153-72.0234L63.6449-72.0234L63.6449-79.5305C63.6449-83.6191 61.348-85.9713 57.2292-85.9713L44.0548-85.9713C39.9611-85.9713 37.5838-83.6191 37.5838-79.5305L37.5838-72.0234L35.0976-72.0234C22.5048-72.0234 16.084-65.6 16.084-53.168L16.084-0.628722C16.084 11.8585 22.5048 18.2266 35.0976 18.2266L144.977 18.2266C157.57 18.2266 163.991 11.8032 163.991-0.628722L163.991-53.168C163.991-65.6 157.517-72.0234 144.924-72.0234L142.214-72.0234L142.214-79.5305C142.214-83.6191 139.865-85.9713 135.718-85.9713L122.569-85.9713C118.422-85.9713 116.153-83.6191 116.153-79.5305ZM39.0433-22.8905C37.1034-22.8905 35.6158-24.4309 35.6158-26.3707C35.6158-28.2579 37.1034-29.7982 39.0433-29.7982L59.9452-29.7982C61.8323-29.7982 63.4003-28.2579 63.4003-26.3707C63.4003-24.4309 61.8323-22.8905 59.9452-22.8905ZM90.2988-9.10557C86.0395-9.10557 82.5265-12.5934 82.5265-16.6668C82.5265-20.8206 85.9591-24.0949 90.2988-24.0949C94.5832-24.0949 98.0962-20.8206 98.0962-16.6668C98.0962-12.5934 94.5305-9.10557 90.2988-9.10557ZM127.121-11.4432C125.181-11.4432 123.665-12.9032 123.665-14.9762L123.665-22.8629L115.726-22.8629C113.733-22.8629 112.165-24.4032 112.165-26.3431C112.165-28.2302 113.706-29.7705 115.726-29.7705L123.665-29.7705L123.665-37.6848C123.665-39.7303 125.181-41.2178 127.121-41.2178C129.033-41.2178 130.548-39.7303 130.548-37.6848L130.548-29.7705L138.487-29.7705C140.452-29.7705 142.02-28.2302 142.02-26.3431C142.02-24.4032 140.452-22.8629 138.487-22.8629L130.548-22.8629L130.548-14.9762C130.548-12.9308 129.033-11.4432 127.121-11.4432ZM90.2988-35.8472C87.5675-35.8472 85.5523-37.8624 85.4995-40.6992L84.3613-98.2662C84.2558-101.791 86.6152-104.229 90.2988-104.229C93.9824-104.229 96.367-101.791 96.2615-98.2662L95.1232-40.6992C95.0177-37.8624 93.0553-35.8472 90.2988-35.8472Z"/>
</svg>