<svg xmlns="http://www.w3.org/2000/svg" viewBox="11.2588 -98.8411 127.2 127.14">
  <path d="M74.8301 28.3017C109.895 28.3017 138.454-0.257224 138.454-35.2697C138.454-70.2822 109.895-98.8411 74.8301-98.8411C39.8177-98.8411 11.2588-70.2822 11.2588-35.2697C11.2588-0.257224 39.8177 28.3017 74.8301 28.3017ZM53.6524-8.45456C51.7904-8.45456 50.4611-9.8115 50.4611-11.8318L50.4611-61.3236C50.4611-63.3439 51.7904-64.6481 53.6524-64.6481C55.4868-64.6481 56.7633-63.2911 56.7633-61.2708L56.7633-30.2705L57.0322-30.2705L73.1519-47.9786C73.7374-48.6973 74.7199-49.1747 75.5692-49.1747C77.2176-49.1747 78.4414-47.8982 78.4414-46.4357C78.4414-45.4532 78.0167-45.0009 77.3257-44.1767L65.2849-31.4296L78.0469-13.533C78.6324-12.7615 78.9767-12.0429 78.9767-11.2463C78.9767-9.65066 77.6474-8.45456 75.9186-8.45456C74.725-8.45456 73.8732-9.06516 73.1294-10.02L60.7392-27.4668L56.7633-23.5135L56.7633-11.8318C56.7633-9.8115 55.4868-8.45456 53.6524-8.45456ZM89.5845-8.45456C87.6169-8.45456 86.5263-9.75619 86.5263-11.8318L86.5263-45.9834C86.5263-47.7927 87.7752-49.1747 89.4513-49.1747C91.0997-49.1747 92.3485-47.7927 92.3485-45.9834L92.3485-41.2884L92.7532-41.2884C93.6931-45.5558 96.558-49.1747 100.798-49.1747C103.039-49.1747 104.892-48.0314 104.892-45.8426C104.892-44.7771 104.409-44.0057 103.524-43.6891C102.615-43.1614 101.388-43.1112 100.162-43.1112C94.4697-43.1112 92.6149-37.5619 92.6149-32.7818L92.6149-11.8318C92.6149-9.36174 91.0495-8.45456 89.5845-8.45456Z"/>
</svg>