<svg xmlns="http://www.w3.org/2000/svg" viewBox="11.2588 -98.7606 127.2 127.14">
  <path d="M74.8301 28.3821C109.895 28.3821 138.454-0.176804 138.454-35.1893C138.454-70.2018 109.895-98.7606 74.8301-98.7606C39.8177-98.7606 11.2588-70.2018 11.2588-35.1893C11.2588-0.176804 39.8177 28.3821 74.8301 28.3821ZM53.6517-7.30142L45.0973-3.83571C43.851-3.3834 42.4966-4.55184 43.1072-5.95899L46.8393-14.2218L90.3851-57.7426L97.3056-50.8221ZM100.876-54.393L93.9836-61.2857L98.2983-65.5753C100.299-67.4951 102.429-67.7087 104.216-65.8969L105.432-64.6808C107.247-62.8665 107.222-60.7104 105.166-58.6548Z"/>
</svg>