<svg xmlns="http://www.w3.org/2000/svg" viewBox="16.084 -106.691 108.7 143">
  <path d="M35.0976 36.3127L107.302 36.3127C118.445 36.3127 124.785 29.9169 124.785 17.485L124.785-53.5858C124.785-66.0178 118.392-72.3884 105.771-72.3884L35.0976-72.3884C22.5048-72.3884 16.084-66.0731 16.084-53.5858L16.084 17.485C16.084 29.9722 22.5048 36.3127 35.0976 36.3127ZM35.2584 27.6914C28.4449 27.6914 24.7328 24.0572 24.7328 17.0603L24.7328-53.1084C24.7328-60.133 28.4449-63.7395 35.2584-63.7395L105.611-63.7395C112.313-63.7395 116.164-60.133 116.164-53.1084L116.164 17.0603C116.164 24.0572 112.313 27.6914 107.141 27.6914ZM29.124-82.974L111.745-82.974C111.034-87.8537 108.614-90.648 103.312-90.648L37.5843-90.648C32.2549-90.648 29.9154-87.8537 29.124-82.974ZM39.7165-99.6253L101.153-99.6253C100.889-104.188 98.2327-106.691 93.2726-106.691L47.5964-106.691C42.6639-106.691 40.033-104.188 39.7165-99.6253ZM58.5649 6.84954L94.5177-14.5247C97.0559-15.9697 97.0031-19.4678 94.5177-20.9128L58.5649-42.37C56.0544-43.8929 52.6921-42.6891 52.6921-39.8872L52.6921 4.33907C52.6921 7.16867 55.8434 8.47795 58.5649 6.84954Z"/>
</svg>