<svg xmlns="http://www.w3.org/2000/svg" viewBox="16.084 -92.5709 118.91 114.82">
  <path d="M35.0976 22.2476L116.003 22.2476C128.649 22.2476 134.989 15.8242 134.989 3.39227L134.989-73.7155C134.989-86.1475 128.649-92.5709 116.003-92.5709L35.0976-92.5709C22.5048-92.5709 16.084-86.2028 16.084-73.7155L16.084 3.39227C16.084 15.8795 22.5048 22.2476 35.0976 22.2476ZM73.0813-42.5675C71.0231-42.5675 69.5781-44.0125 69.5781-46.126L69.5781-65.6484C69.5781-67.787 71.0231-69.1793 73.0813-69.1793L77.9389-69.1793C80.0774-69.1793 81.5225-67.787 81.5225-65.6484L81.5225-46.126C81.5225-44.0125 80.0774-42.5675 77.9389-42.5675ZM43.6166-4.57695C41.3976-4.57695 40.0054-5.96919 40.0054-8.10777L40.0054-12.9628C40.0054-15.0486 41.4253-16.5213 43.6166-16.5213L61.3902-16.5213C63.476-16.5213 64.921-15.0763 64.921-12.9628L64.921-8.10777C64.921-5.96919 63.476-4.57695 61.3902-4.57695ZM89.6827-4.57695C87.5969-4.57695 86.1519-5.96919 86.1519-8.10777L86.1519-12.9628C86.1519-15.0763 87.5969-16.5213 89.6827-16.5213L107.456-16.5213C109.648-16.5213 111.068-15.0486 111.068-12.9628L111.068-8.10777C111.068-5.96919 109.675-4.57695 107.456-4.57695Z"/>
</svg>