<svg xmlns="http://www.w3.org/2000/svg" viewBox="16.084 -102.616 110.54 134.75">
  <path d="M89.861 32.132C112.22 32.132 126.622 17.7296 126.622-4.62932L126.622-36.6372C126.622-45.0158 124.029-51.7583 118.865-56.5482L79.0567-93.1393C71.4521-100.128 63.3701-102.616 53.6746-102.616L34.2683-102.616C23.2159-102.616 16.084-95.4063 16.084-84.3262L16.084 13.9477C16.084 25.3418 22.8967 32.132 34.4266 32.132ZM40.9333 4.43734C38.305 4.43734 36.7621 2.71106 36.7621 0.0827009L36.7621-44.232C36.7621-46.888 38.2497-48.5088 40.8529-48.5088L51.7798-48.5088C61.6838-48.5088 67.6698-42.8768 67.6698-32.6639C67.6698-26.4763 65.0785-21.0481 59.8261-18.5955L66.6448-2.59587C67.1222-1.32445 67.4915-0.236429 67.4915 0.426937C67.4915 3.29145 65.4763 4.43734 63.559 4.43734C61.383 4.43734 60.0813 3.24634 59.2571 1.0954L51.9887-16.839L45.0769-16.839L45.0769 0.0827009C45.0769 2.76382 43.5366 4.43734 40.9333 4.43734ZM45.0769-23.0382L50.9833-23.0382C56.6909-23.0382 59.1967-27.0443 59.1967-32.478C59.1967-38.1605 56.2284-41.8347 50.9556-41.8347L45.0769-41.8347ZM78.8329 3.6961C76.2573 3.6961 75.0059 2.28895 75.0059 0.346517C75.0059-1.42998 75.9833-2.78437 76.9934-4.11365L88.9062-19.7035C92.48-24.4134 95.6713-29.4092 95.6713-34.4957C95.6713-39.1928 93.4144-43.164 89.0462-43.164C85.0299-43.164 83.1952-40.0349 82.1272-35.3199C81.5191-33.4605 80.3481-32.5558 78.4887-32.5558C76.2799-32.5558 75.0863-34.1264 75.0863-36.1692C75.0863-42.9245 80.9893-49.7853 89.0713-49.7853C97.8218-49.7853 103.426-43.4321 103.426-34.8676C103.426-29.2182 101.368-24.5287 95.2509-16.7459L85.0798-3.5358L85.0798-3.03073L101.149-3.03073C103.17-3.03073 104.421-1.83208 104.421 0.31886C104.421 2.33916 103.222 3.6961 101.149 3.6961Z"/>
</svg>