<svg xmlns="http://www.w3.org/2000/svg" viewBox="16.084 -85.579 160.98 107.96">
  <path d="M16.084-28.0294C16.084-14.8583 18.0817-9.0383 27.8526-4.03225L63.3203 14.1678C76.1998 20.7545 85.1009 22.3855 99.4532 18.2088L153.89 2.28561C170.325-2.50683 177.063-12.0764 177.063-28.0294L177.063-67.1837C177.063-78.2612 169.906-85.5263 158.878-85.5263L34.3738-85.579C23.2661-85.579 16.084-78.3944 16.084-67.3696ZM24.7328-28.0294L24.7328-67.156C24.7328-73.2232 28.5504-76.9578 34.5347-76.9578L158.718-76.9051C164.649-76.9051 168.414-73.09 168.414-66.9701L168.414-28.0294C168.414-16.1017 163.702-9.43451 151.367-5.7803L99.2519 9.61521C86.2039 13.4728 78.9337 12.372 67.9639 6.79286L33.2876-10.8795C26.2732-14.4282 24.7328-18.273 24.7328-28.0294ZM66.175-12.5938C68.5923-12.5938 70.1075-14.2422 70.1075-16.8178L70.1075-33.3702L76.9389-33.3702L84.0767-15.8302C84.8481-13.7597 86.097-12.5938 88.2203-12.5938C90.0848-12.5938 91.9945-13.7674 91.9945-16.4987C91.9945-17.137 91.6779-18.225 91.2005-19.416L84.5402-35.0463C89.6343-37.4738 92.1728-42.7964 92.1728-48.8509C92.1728-58.7749 86.3451-64.3013 76.6521-64.3013L66.0946-64.3013C63.4913-64.3013 62.0565-62.7333 62.0565-60.1301L62.0565-16.8178C62.0565-14.295 63.5466-12.5938 66.175-12.5938ZM70.1075-39.4111L70.1075-57.8383L75.9335-57.8383C81.1007-57.8383 84.0163-54.2168 84.0163-48.6649C84.0163-43.3645 81.5105-39.4111 75.9611-39.4111ZM114.547-12.2947C123.323-12.2947 129.98-17.9794 129.98-27.3558C129.98-34.9 125.602-39.0745 120.01-39.6375L120.01-39.8511C125.72-41.3514 128.479-46.4481 128.479-51.7834C128.479-60.2399 122.338-65.2587 114.306-65.2587C107.85-65.2587 102.645-61.6121 100.851-56.0104C100.502-54.8015 100.368-53.6757 100.368-52.7157C100.368-50.8788 101.537-49.3912 103.743-49.3912C105.688-49.3912 106.693-50.1929 107.251-52.1379C108.213-56.1189 110.395-58.8761 114.306-58.8761C118.747-58.8761 120.986-55.3751 120.986-50.9065C120.986-46.066 118.156-42.4569 113.21-42.4569L111.423-42.4569C109.506-42.4569 108.365-41.2582 108.365-39.4515C108.365-37.6172 109.589-36.499 111.423-36.499L113.29-36.499C118.938-36.499 122.115-33.4051 122.115-27.5115C122.115-22.8268 119.692-18.8105 114.575-18.8105C109.704-18.8105 107.354-22.2085 106.605-25.393C106.075-27.2575 104.962-28.2175 103.122-28.2175C100.944-28.2175 99.5365-26.9409 99.5365-24.7347C99.5365-23.6667 99.725-22.4829 100.047-21.4651C101.841-15.68 107.822-12.2947 114.547-12.2947Z"/>
</svg>