<svg xmlns="http://www.w3.org/2000/svg" viewBox="16.084 -125.325 123.2 180.03">
  <path d="M111.701-99.8202L111.701-120.719C111.701-124.443 108.738-125.325 105.889-123.197L91.6846-112.916C89.3575-111.285 89.3047-109.36 91.6846-107.623L105.889-97.4229C108.738-95.3196 111.701-96.2545 111.701-99.8202ZM103.197-113.067C101.549-113.067 100.244-111.71 100.244-110.086C100.244-108.491 101.549-107.186 103.197-107.186L112.716-107.186C124.976-107.186 132.928-99.1696 132.928-86.9581L132.928-79.5471C132.928-77.8183 134.443-76.3558 136.144-76.3558C137.792-76.3558 139.283-77.8183 139.283-79.5471L139.283-87.0662C139.283-102.788 128.778-113.067 112.769-113.067ZM43.6655 29.2004L43.6655 50.0994C43.6655 53.8234 46.6283 54.7055 49.4779 52.5771L63.7347 42.2961C66.0091 40.6651 66.0618 38.7402 63.7347 37.0037L49.4779 26.8031C46.6283 24.6998 43.6655 25.6347 43.6655 29.2004ZM52.1419 42.4467C53.818 42.4467 55.1222 41.0898 55.1222 39.4665C55.1222 37.8708 53.818 36.5667 52.1419 36.5667L42.6502 36.5667C30.3907 36.5667 22.4389 28.5498 22.4389 16.3383L22.4389 8.92732C22.4389 7.19848 20.9237 5.73602 19.1949 5.73602C17.5741 5.73602 16.084 7.19848 16.084 8.92732L16.084 16.4464C16.084 32.1683 26.5888 42.4467 42.5975 42.4467ZM53.3394 13.353L102 13.353C109.355 13.353 114.839 8.24394 114.839 1.15463L114.839-71.694C114.839-78.7833 109.355-83.8924 102-83.8924L53.3394-83.8924C45.9837-83.8924 40.6334-78.7833 40.6334-71.694L40.6334 1.15463C40.6334 8.24394 45.9837 13.353 53.3394 13.353ZM54.0253 5.17897C50.9162 5.17897 48.7547 3.15062 48.7547 0.285315L48.7547-70.8247C48.7547-73.7428 50.9162-75.7711 54.0253-75.7711L101.314-75.7711C104.501-75.7711 106.717-73.7428 106.717-70.8247L106.717 0.285315C106.717 3.15062 104.501 5.17897 101.314 5.17897Z" />
</svg>