<svg xmlns="http://www.w3.org/2000/svg" viewBox="16.084 -102.927 147.91 135.45">
  <path d="M144.977-92.6262L48.321-92.6262L56.9422-83.9245L144.816-83.9245C151.519-83.9245 155.342-80.3708 155.342-73.3462L155.342 2.9123C155.342 6.66772 153.972 9.21645 151.45 10.4504L158.298 17.3781C162.038 14.4957 163.991 9.79606 163.991 3.33696L163.991-73.7708C163.991-86.2028 157.623-92.6262 144.977-92.6262ZM35.0976 22.1923L132.123 22.1923L123.502 13.4907L35.2584 13.4907C28.4449 13.4907 24.7328 9.88413 24.7328 2.9123L24.7328-73.3462C24.7328-77.2348 26.1004-79.8086 28.7023-81.123L21.9354-87.9703C18.0621-85.1155 16.084-80.3631 16.084-73.7708L16.084 3.33696C16.084 15.8242 22.5048 22.1923 35.0976 22.1923ZM150.486 30.8725C152.104 32.4907 154.757 32.5184 156.35 30.8725C157.971 29.199 157.996 26.626 156.35 24.9801L30.0111-101.254C28.4457-102.872 25.7671-102.927 24.0936-101.254C22.5005-99.6606 22.5005-96.9543 24.0936-95.3612Z"/>
</svg>