<svg xmlns="http://www.w3.org/2000/svg" viewBox="16.1367 -80.3904 61.62 91.77">
  <path d="M20.8305 11.3764C23.6674 11.3764 25.4439 9.51949 25.4439 6.54945L25.4439-26.0699L46.6304-26.0699C47.3091-26.0699 48.1839-26.0975 48.8626-26.1528L68.5815 8.51444C69.667 10.5799 70.9937 11.3764 72.9813 11.3764C75.6598 11.3764 77.7529 9.54715 77.7529 6.9741C77.7529 5.99161 77.381 5.06442 76.7177 3.87088L58.4612-27.663C70.5547-31.0253 77.6747-40.6982 77.6747-53.4676C77.6747-69.946 66.1269-80.3904 48.1857-80.3904L20.8305-80.3904C18.0992-80.3904 16.1367-78.4279 16.1367-75.6162L16.1367 6.54945C16.1367 9.51949 17.966 11.3764 20.8305 11.3764ZM25.4439-34.5579L25.4439-71.8496L47.2636-71.8496C60.4281-71.8496 68.1037-65.0688 68.1037-53.2565C68.1037-41.3714 60.6894-34.5579 47.5801-34.5579Z"/>
</svg>