<svg xmlns="http://www.w3.org/2000/svg" viewBox="16.084 -101.643 137.89 132.75">
  <path d="M23.7609 17.5768L146.345 17.5768L146.345 13.8251C146.345 11.7044 145.071 10.4581 142.897 10.4581L138.876 10.4581L138.876-59.8888L144.541-59.8888C147.514-59.8888 149.21-62.0095 149.21-64.2132C149.21-65.7761 148.283-67.2109 146.345-68.4045L92.3758-99.5321C90.0236-100.922 87.4855-101.643 85.0529-101.643C82.5675-101.643 80.0017-100.922 77.6495-99.5321L23.6801-68.4045C21.7177-67.2109 20.8433-65.7761 20.8433-64.2132C20.8433-62.0095 22.5117-59.8888 25.5119-59.8888L31.2294-59.8888L31.2294 10.4581L27.2084 10.4581C25.0349 10.4581 23.7609 11.7044 23.7609 13.8251ZM39.4034 10.4581L39.4034-67.3573L82.1901-91.4411C83.0547-91.9538 84.0802-92.2504 85.0529-92.2504C85.9728-92.2504 86.9706-91.9538 87.8352-91.4411L130.755-67.3573L130.755 10.4581ZM20.4084 31.1036L149.645 31.1036C151.979 31.1036 153.969 29.1135 153.969 26.7264C153.969 24.3644 151.979 22.402 149.645 22.402L20.4084 22.402C18.0464 22.402 16.084 24.3644 16.084 26.7264C16.084 29.1135 18.0464 31.1036 20.4084 31.1036ZM60.4065-9.50433C62.3741-9.50433 63.5451-10.806 63.5451-12.8288L63.5451-30.9041L71.947-30.9041L80.0975-11.7885C80.7081-10.2732 81.6931-9.50433 83.2611-9.50433C85.0427-9.50433 86.3996-10.6451 86.3996-12.482C86.3996-13.2535 86.0805-13.9194 85.7337-14.7964L78.1185-32.2636C83.8411-34.646 86.4724-40.1145 86.4724-46.1285C86.4724-54.7713 81.4208-61.1645 71.3385-61.1645L60.3538-61.1645C58.4113-61.1645 57.2152-59.9408 57.2152-57.9456L57.2152-12.8288C57.2152-10.806 58.3862-9.50433 60.4065-9.50433ZM63.5451-36.0429L63.5451-55.8674L70.7279-55.8674C76.6994-55.8674 80.0621-52.0473 80.0621-45.9954C80.0621-40.0264 76.8879-36.0429 70.7807-36.0429ZM105.311-9.45157C112.602-9.45157 118.51-13.6913 118.51-20.944C118.51-26.8597 114.949-29.6268 108.945-31.2905L103.992-32.6576C100.923-33.4669 98.4197-35.1357 98.4197-38.3678C98.4197-42.0824 101.383-44.4299 105.097-44.4299C109.028-44.4299 111.446-42.1352 112.677-39.0414C113.077-38.1317 113.926-37.516 114.941-37.516C116.67-37.516 117.309-38.5814 117.309-39.8052C117.309-40.2324 117.203-40.7877 117.07-41.2953C115.871-45.7737 111.22-49.1139 105.311-49.1139C97.3797-49.1139 92.4366-44.5751 92.4366-38.0487C92.4366-32.2057 96.2666-29.1548 101.868-27.6796L106.927-26.3401C110.212-25.4504 112.446-23.6382 112.446-20.3057C112.446-16.5834 109.669-14.1355 105.577-14.1355C101.222-14.1355 98.7941-15.7869 96.9244-19.6598C96.2334-20.9967 95.276-21.5295 94.3186-21.5295C92.8536-21.5295 91.763-20.5193 91.763-19.082C91.763-18.5994 91.9239-18.0088 92.1124-17.4182C93.7735-12.0301 99.5485-9.45157 105.311-9.45157Z"/>
</svg>