<svg xmlns="http://www.w3.org/2000/svg" viewBox="11.2588 -97.7705 150.04 124.95">
  <path d="M86.32-71.3757C97.6843-71.3757 108.084-67.4628 116.392-60.9211C117.679-59.9284 119.315-60.0365 120.521-61.2428L134.727-75.3686C136.175-76.8162 136.122-78.9071 134.594-80.1938C121.521-91.1786 104.643-97.7705 86.32-97.7705C67.9693-97.7705 51.0386-91.1786 38.0182-80.1938C36.4902-78.9071 36.4651-76.8162 37.9127-75.3686L52.0662-61.2428C53.2725-60.0365 54.989-59.9561 56.3561-61.0292C64.6368-67.4628 75.0361-71.3757 86.32-71.3757ZM11.2588-22.7621C11.2588-4.35864 17.9034 12.547 28.9159 25.6201C30.2026 27.1481 32.3212 27.1758 33.7411 25.7282L48.1835 11.2305C49.2315 10.2076 49.3119 8.78256 48.3443 7.59882C41.5942-1.02357 37.7063-11.4505 37.7063-22.7621C37.7063-34.0736 41.5665-44.4729 48.0805-52.7008C49.126-54.068 49.0983-55.7844 47.892-56.9907L33.7134-71.1693C32.2935-72.5893 30.1749-72.6169 28.8882-71.0889C17.8758-57.9907 11.2588-41.1404 11.2588-22.7621ZM161.301-22.7621C161.301-41.1404 154.737-57.9907 143.699-71.0889C142.412-72.6169 140.294-72.5893 138.874-71.1693L124.72-56.9907C123.514-55.7844 123.486-54.068 124.532-52.7008C131.046-44.4729 134.906-34.0736 134.906-22.7621C134.906-11.4505 131.018-1.02357 124.215 7.59882C123.3 8.78256 123.381 10.2076 124.376 11.2305L138.846 25.7282C140.266 27.1758 142.385 27.1481 143.671 25.6201C154.709 12.547 161.301-4.35864 161.301-22.7621ZM63.2824 5.83939C64.9308 5.83939 65.9687 4.74882 65.9687 2.99488L65.9687-43.0785L80.4195-43.0785C87.773-43.0785 91.163-41.0301 91.163-32.7971L91.163-13.3325C91.163-11.5233 92.2008-10.3799 93.9297-10.3799C95.656-10.3799 96.6938-11.5233 96.6938-13.3325L96.6938-33.9404C96.6938-43.9172 92.5625-49.167 82.2815-49.167L64.6368-49.167C62.0059-49.167 60.4379-47.5714 60.4379-44.9682L60.4379 2.99488C60.4379 4.74882 61.5536 5.83939 63.2824 5.83939ZM79.8009 5.35942L97.9354 5.35942C108.563 5.35942 112.044-0.28233 112.044-10.8825L112.044-46.6693C112.044-48.5313 111.006-49.7274 109.305-49.7274C107.604-49.7274 106.46-48.5313 106.46-46.6693L106.46-11.1186C106.46-2.966 104.573-0.729149 96.3674-0.729149L81.3438-0.729149L81.3438-30.5581C81.3438-32.3397 80.2532-33.483 78.6048-33.483C76.9036-33.483 75.813-32.3397 75.813-30.5581L75.813 1.37158C75.813 3.8693 77.4866 5.35942 79.8009 5.35942Z"/>
</svg>