<svg xmlns="http://www.w3.org/2000/svg" viewBox="11.2588 -98.8411 127.2 127.14">
  <path d="M74.8301 28.3017C109.951 28.3017 138.454-0.149147 138.454-35.2697C138.454-70.3903 109.951-98.8411 74.8301-98.8411C39.7624-98.8411 11.2588-70.3903 11.2588-35.2697C11.2588-0.149147 39.7624 28.3017 74.8301 28.3017ZM74.8301 19.2307C44.6948 19.2307 20.3549-5.13439 20.3549-35.2697C20.3549-65.405 44.6948-89.7701 74.8301-89.7701C104.965-89.7701 129.331-65.405 129.331-35.2697C129.331-5.13439 104.965 19.2307 74.8301 19.2307ZM98.12-29.2037C102.239-29.2037 104.596-31.5333 104.596-35.5743L104.596-53.1888C104.596-57.2022 102.239-59.4514 98.12-59.4514L77.9687-59.4514L77.9687-66.9308C77.9687-68.6848 76.559-70.0694 74.7774-70.0694C73.1566-70.0694 71.772-68.6848 71.772-66.9308L71.772-59.4514L55.8357-59.4514C53.1593-59.4514 51.7645-58.6497 50.2642-57.152L41.7044-49.1325C38.254-45.951 38.3872-42.6513 41.6516-39.603L50.2642-31.5584C51.7645-30.0607 53.1593-29.2313 55.8357-29.2313L71.772-29.2313L71.772-6.71945L62.5434-6.71945C60.8422-6.71945 59.4325-5.30975 59.4325-3.60857C59.4325-1.9074 60.8422-0.522801 62.5434-0.522801L87.1446-0.522801C88.8181-0.522801 90.2278-1.9074 90.2278-3.60857C90.2278-5.30975 88.8181-6.71945 87.1446-6.71945L77.9687-6.71945L77.9687-29.2313Z" />
</svg>