<svg xmlns="http://www.w3.org/2000/svg" viewBox="16.084 -99.8483 131.85 129.37">
  <path d="M68.5311-33.9838L98.6472-33.9838L98.6472-41.1829L68.5311-41.1829C66.4857-41.1829 64.8398-39.5622 64.8398-37.5972C64.8398-35.6045 66.4857-33.9838 68.5311-33.9838ZM107.924-24.9789C114.89-24.9789 120.597-30.6862 120.597-37.6525C120.597-44.6188 114.89-50.2984 107.924-50.2984C100.957-50.2984 95.2499-44.6188 95.2499-37.6525C95.2499-30.6862 100.957-24.9789 107.924-24.9789ZM107.924-30.9219C104.128-30.9219 101.193-33.9102 101.193-37.7329C101.193-41.5279 104.128-44.383 107.924-44.383C111.666-44.383 114.654-41.5279 114.654-37.7329C114.654-33.9102 111.666-30.9219 107.924-30.9219ZM116.72-33.9838L126.315-33.9838C128.174-33.9838 129.795-35.6045 129.795-37.5972C129.795-39.5622 128.174-41.1829 126.315-41.1829L116.72-41.1829ZM68.32-0.207405L77.9151-0.207405L77.9151-7.45932L68.32-7.45932C66.4857-7.45932 64.8398-5.83856 64.8398-3.87357C64.8398-1.88092 66.4857-0.207405 68.32-0.207405ZM86.7115 8.74471C93.7306 8.74471 99.4379 3.03744 99.4379-3.92888C99.4379-10.8676 93.7306-16.5748 86.7115-16.5748C79.7979-16.5748 74.0907-10.8676 74.0907-3.92888C74.0907 3.03744 79.7979 8.74471 86.7115 8.74471ZM86.7115 2.80168C82.9416 2.80168 79.9809-0.133847 79.9809-3.95654C79.9809-7.75158 82.9416-10.6594 86.7115-10.6594C90.5065-10.6594 93.4672-7.75158 93.4672-3.95654C93.4672-0.133847 90.5065 2.80168 86.7115 2.80168ZM95.9602-0.207405L126.104-0.207405C128.174-0.207405 129.795-1.88092 129.795-3.87357C129.795-5.83856 128.174-7.45932 126.104-7.45932L95.9602-7.45932ZM35.0976 1.44435L50.8748 1.44435L50.8748-7.20452L35.2584-7.20452C28.4449-7.20452 24.7328-10.8111 24.7328-17.8356L24.7328-80.5683C24.7328-87.5929 28.4449-91.1994 35.2584-91.1994L98.2021-91.1994C104.905-91.1994 108.728-87.5929 108.728-80.5683L108.728-67.79L117.377-67.79L117.377-81.0457C117.377-93.4776 110.956-99.8483 98.363-99.8483L35.0976-99.8483C22.4521-99.8483 16.084-93.5329 16.084-81.0457L16.084-17.3582C16.084-4.87097 22.4521 1.44435 35.0976 1.44435ZM65.6572 29.525L128.923 29.525C141.515 29.525 147.936 23.1544 147.936 10.7224L147.936-52.965C147.936-65.397 141.515-71.7676 128.923-71.7676L65.6572-71.7676C53.0116-71.7676 46.6436-65.4523 46.6436-52.965L46.6436 10.7224C46.6436 23.2097 53.0116 29.525 65.6572 29.525ZM65.818 20.8762C59.0045 20.8762 55.2924 17.2696 55.2924 10.245L55.2924-52.4876C55.2924-59.5122 59.0045-63.1187 65.818-63.1187L128.762-63.1187C135.465-63.1187 139.287-59.5122 139.287-52.4876L139.287 10.245C139.287 17.2696 135.465 20.8762 128.762 20.8762Z"/>
</svg>