<svg xmlns="http://www.w3.org/2000/svg" viewBox="16.084 -92.6236 167.71 114.82">
  <path d="M39.3071 22.1948L160.569 22.1948C175.384 22.1948 183.792 13.7609 183.792-1.02827L183.792-69.3477C183.792-84.1897 175.384-92.6236 160.569-92.6236L39.3071-92.6236C24.4928-92.6236 16.084-84.1897 16.084-69.3477L16.084-1.02827C16.084 13.7609 24.4928 22.1948 39.3071 22.1948ZM39.913 13.546C29.8976 13.546 24.7328 8.32849 24.7328-1.63417L24.7328-68.7418C24.7328-78.7573 29.8976-83.922 39.913-83.922L159.963-83.922C169.979-83.922 175.144-78.7573 175.144-68.7418L175.144-1.63417C175.144 8.32849 169.979 13.546 159.963 13.546ZM21.6471-7.05977L35.7861-7.05977C46.1449-7.05977 51.7667-12.7343 51.7667-23.0931L51.7667-47.3884C51.7667-57.7473 46.1449-63.369 35.7861-63.369L21.6471-63.369L21.6471-55.7227L35.8414-55.7227C41.2074-55.7227 44.1203-52.8373 44.1203-47.4437L44.1203-23.0378C44.1203-17.6442 41.2074-14.7589 35.8414-14.7589L21.6471-14.7589ZM164.143-7.05977L178.229-7.05977L178.229-14.7589L164.035-14.7589C158.669-14.7589 155.756-17.6442 155.756-23.0378L155.756-47.4437C155.756-52.8373 158.669-55.7227 164.035-55.7227L178.229-55.7227L178.229-63.369L164.143-63.369C153.784-63.369 148.11-57.7473 148.11-47.3884L148.11-23.0931C148.11-12.7343 153.784-7.05977 164.143-7.05977ZM96.0887 18.5261L103.788 18.5261L103.788-88.9021L96.0887-88.9021ZM99.9382-5.88917C116.195-5.88917 129.319-19.0125 129.319-35.2697C129.319-51.5269 116.195-64.6502 99.9382-64.6502C83.681-64.6502 70.5577-51.5269 70.5577-35.2697C70.5577-19.0125 83.681-5.88917 99.9382-5.88917ZM99.9382-13.0079C87.6361-13.0079 77.7292-22.9148 77.7292-35.2697C77.7292-47.6246 87.6361-57.5315 99.9382-57.5315C112.293-57.5315 122.2-47.6246 122.2-35.2697C122.2-22.9148 112.293-13.0079 99.9382-13.0079ZM99.9382-25.6525C105.281-25.6525 109.555-29.9271 109.555-35.2697C109.555-40.6123 105.281-44.8869 99.9382-44.8869C94.6233-44.8869 90.321-40.6123 90.321-35.2697C90.321-29.9271 94.6233-25.6525 99.9382-25.6525Z"/>
</svg>