<svg xmlns="http://www.w3.org/2000/svg" viewBox="16.084 -81.9711 101.61 93.46">
  <path d="M18.4864-42.4279L115.295-42.4279C116.657-42.4279 117.695-43.4406 117.695-44.8001C117.695-46.1068 116.657-47.1722 115.295-47.1722L18.4864-47.1722C17.1494-47.1722 16.084-46.1068 16.084-44.8001C16.084-43.4406 17.1494-42.4279 18.4864-42.4279ZM18.4864-25.0793L115.295-25.0793C116.657-25.0793 117.695-26.1171 117.695-27.4766C117.695-28.7833 116.657-29.8488 115.295-29.8488L18.4864-29.8488C17.1494-29.8488 16.084-28.7833 16.084-27.4766C16.084-26.1171 17.1494-25.0793 18.4864-25.0793ZM66.946 11.487C87.4604 11.487 100.747 0.680553 100.747-15.3252C100.747-28.1494 92.7579-35.0604 74.357-39.4282L64.0054-41.8961C50.5924-45.0954 44.7792-49.4058 44.7792-56.9456C44.7792-66.5615 54.1487-73.3801 66.7273-73.3801C78.4669-73.3801 86.9845-67.7878 89.6959-58.4787C90.515-56.4056 91.7613-55.3402 93.9675-55.3402C96.7516-55.3402 98.4754-56.986 98.4754-59.6923C98.4754-60.5165 98.3422-61.567 98.1009-62.5321C95.3164-73.9491 82.9445-81.9711 66.7273-81.9711C48.4273-81.9711 34.7585-71.2804 34.7585-56.3401C34.7585-44.1869 42.612-37.0372 59.7163-32.9609L71.1508-30.2015C84.946-26.9192 90.7013-22.345 90.7013-14.2171C90.7013-4.38511 80.9952 2.89603 66.9486 2.89603C54.5733 2.89603 45.063-3.20902 42.0777-12.7896C41.1505-15.2699 40.0122-16.3932 37.6451-16.3932C34.7806-16.3932 33.0318-14.6167 33.0318-11.8024C33.0318-10.7646 33.165-9.72422 33.4841-8.57833C36.6681 3.66845 49.7162 11.487 66.946 11.487Z" />
</svg>