<svg xmlns="http://www.w3.org/2000/svg" viewBox="16.084 -110.993 145.4 148.53">
  <path d="M63.4798-15.7775L77.536-15.7775C69.2127-19.741 63.3574-28.4013 63.3574-38.2929C63.3574-52.2438 74.8327-63.7191 88.7836-63.7191C102.734-63.7191 114.21-52.2438 114.21-38.2929C114.21-28.4013 108.354-19.741 100.031-15.7775L114.087-15.7775C119.546-21.7286 122.803-29.6199 122.803-38.2929C122.803-56.9652 107.403-72.3654 88.7836-72.3654C70.164-72.3654 54.7638-56.9652 54.7638-38.2929C54.7638-29.6199 58.021-21.7286 63.4798-15.7775ZM20.828-35.5518L38.1198-35.5518C40.8235-35.5518 42.9166-37.4614 42.8638-39.9013C42.8111-42.2331 40.8235-44.2508 38.1198-44.2508L20.828-44.2508C18.0992-44.2508 16.084-42.2607 16.084-39.9013C16.084-37.4891 18.0992-35.5518 20.828-35.5518ZM56.2939-70.7826C57.9649-72.4259 57.9649-75.318 56.005-77.1975L43.7575-89.4451C41.8227-91.4326 39.0637-91.2718 37.3953-89.6812C35.6439-88.0103 35.6162-85.2538 37.6314-83.2663L49.879-71.0187C51.7585-69.1116 54.623-69.0588 56.2939-70.7826ZM88.7836-84.2127C91.143-84.2654 93.1331-86.2279 93.1331-88.929L93.1331-106.249C93.1331-108.977 91.143-110.993 88.7836-110.993C86.4242-110.993 84.4341-108.977 84.4341-106.249L84.4341-88.929C84.4341-86.2279 86.4242-84.1599 88.7836-84.2127ZM121.273-70.7826C122.997-69.1116 125.809-69.1116 127.688-71.0187L139.936-83.2663C141.951-85.2538 141.871-87.9575 140.172-89.6812C138.529-91.3245 135.745-91.4326 133.81-89.4451L121.562-77.1975C119.602-75.318 119.55-72.3731 121.273-70.7826ZM139.447-35.5518L156.739-35.5518C159.496-35.5518 161.483-37.4614 161.483-39.9013C161.483-42.2331 159.496-44.2508 156.739-44.2508L139.447-44.2508C136.771-44.2508 134.651-42.2607 134.703-39.9013C134.756-37.4891 136.771-35.5518 139.447-35.5518ZM29.0563-10.8752L158-10.8752C159.94-10.8752 161.483-12.3351 161.483-14.3278C161.483-16.24 159.94-17.7803 158-17.7803L29.0563-17.7803C27.1164-17.7803 25.5735-16.24 25.5735-14.3278C25.5735-12.3351 27.1164-10.8752 29.0563-10.8752ZM19.5668 13.3312L148.511 13.3312C150.451 13.3312 151.994 11.8713 151.994 9.87863C151.994 7.9664 150.451 6.42607 148.511 6.42607L19.5668 6.42607C17.6269 6.42607 16.084 7.9664 16.084 9.87863C16.084 11.8713 17.6269 13.3312 19.5668 13.3312ZM29.0563 37.5376L158 37.5376C159.94 37.5376 161.483 36.0777 161.483 34.085C161.483 32.1728 159.94 30.6325 158 30.6325L29.0563 30.6325C27.1164 30.6325 25.5735 32.1728 25.5735 34.085C25.5735 36.0777 27.1164 37.5376 29.0563 37.5376Z"/>
</svg>