<svg xmlns="http://www.w3.org/2000/svg" viewBox="-1.97264 -98.8411 140.43 127.14">
  <path d="M3.08322-47.0685C-0.904626-47.0685-1.97264-44.3295 0.291473-41.1608L14.1637-21.3953C16.0006-18.7844 18.7145-18.7844 20.4986-21.3953L34.3709-41.1859C36.5822-44.3295 35.5142-47.0685 31.5791-47.0685ZM138.454-35.2697C138.454-70.3903 109.951-98.8411 74.8301-98.8411C39.7624-98.8411 11.3116-70.443 11.2588-35.1893C11.3116-32.6941 13.3544-30.7066 15.7943-30.7066C18.2592-30.7066 20.3549-32.7469 20.3549-35.242C20.3549-65.405 44.6948-89.7701 74.8301-89.7701C104.965-89.7701 129.331-65.405 129.331-35.2697C129.331-5.13439 104.965 19.2307 74.8301 19.2307C56.1268 19.2307 39.708 9.78585 30.0525-4.47692C28.4092-6.67807 25.8362-7.34143 23.6074-6.01725C21.4866-4.71818 20.8233-1.64261 22.6249 0.719383C34.082 17.3944 53.0764 28.3017 74.8301 28.3017C109.951 28.3017 138.454-0.149147 138.454-35.2697ZM74.9106-6.2385C76.7726-6.2385 78.1546-7.62055 78.1546-9.53533L78.1546-46.7574L93.5982-46.7574C95.0883-46.7574 96.1538-47.8756 96.1538-49.3657C96.1538-50.8031 95.0883-51.8937 93.5982-51.8937L56.1425-51.8937C54.6524-51.8937 53.5342-50.8031 53.5342-49.3657C53.5342-47.8756 54.6524-46.7574 56.1425-46.7574L71.6665-46.7574L71.6665-9.53533C71.6665-7.62055 73.0486-6.2385 74.9106-6.2385ZM53.3482-61.1798C53.3482-60.0867 54.2277-59.2876 55.346-59.2876L94.2088-59.2876C95.327-59.2876 96.1538-60.1671 96.1538-61.1798C96.1538-62.2453 95.327-63.0444 94.2088-63.0444L55.346-63.0444C54.2277-63.0444 53.3482-62.2453 53.3482-61.1798Z" />
</svg>