<svg xmlns="http://www.w3.org/2000/svg" viewBox="16.084 -68.4555 55.53 66.45">
  <path d="M20.5416-2.00351C22.7981-2.00351 24.2554-3.1443 25.0796-5.7701L31.0766-22.7803L56.5126-22.7803L62.5096-5.7701C63.4394-3.03877 64.8691-2.00351 67.1281-2.00351C69.7513-2.00351 71.6108-3.67448 71.6108-6.08923C71.6108-7.17725 71.3193-8.18486 70.9474-9.32564L50.3515-63.5809C49.1605-66.7594 46.9091-68.4555 43.7808-68.4555C40.7052-68.4555 38.5343-66.8649 37.3156-63.5809L16.6946-9.32564C16.2699-8.29038 16.084-7.23002 16.084-6.08923C16.084-3.62172 17.863-2.00351 20.5416-2.00351ZM33.5492-29.8463L43.2004-57.6553L44.3889-57.6553L54.0928-29.8463Z"/>
</svg>