<svg xmlns="http://www.w3.org/2000/svg" viewBox="1.93263 -105.089 106.67 139.56">
  <path d="M48.372-105.089C38.2442-105.089 30.9413-98.4594 29.7026-88.3818L29.6498-81.262L37.2158-73.6684L37.2158-84.1884C37.2158-91.9163 41.7321-97.1538 48.372-97.1538C54.9039-97.1538 59.4227-91.9163 59.4227-84.1884L59.4227-51.4616L67.358-43.4986L67.358-83.899C67.358-96.6101 59.6278-105.089 48.372-105.089ZM48.372 34.4693C64.833 34.4693 78.3661 22.0944 80.1851 6.21638C80.3434 4.53737 80.3383 2.8056 80.0894 1.15679L69.759-9.2264C71.7295-5.73048 72.6996-1.82992 72.6996 2.26169C72.6996 15.6595 61.7974 26.6421 48.372 26.6421C34.8938 26.6421 23.9916 15.6595 23.9916 2.26169C23.9916-5.62201 27.6054-12.7819 34.4211-17.4565C36.4367-18.8287 37.2158-20.2337 37.2158-22.865L37.2158-42.6521L29.2528-50.615L29.2528-26.227C29.2528-24.1786 28.9839-23.3693 27.5287-22.0524C19.9667-15.4128 16.084-7.1649 16.084 2.26169C16.084 20.0115 30.5141 34.4693 48.372 34.4693ZM48.3192 18.1452C57.1607 18.1452 64.2279 11.0504 64.2279 2.20893C64.2279-3.94595 60.7622-9.02515 55.7081-11.7394C53.5593-12.9206 52.8606-13.7274 52.8606-16.8714L52.8606-27.0072L43.8306-36.1176L43.8306-16.8714C43.8306-13.7274 43.1319-12.9206 40.9832-11.7394C35.8763-9.02515 32.4634-3.94595 32.4634 2.20893C32.4634 11.0504 39.5305 18.1452 48.3192 18.1452ZM78.7772-82.24L92.2197-82.24C94.1596-82.24 95.4914-83.7276 95.4914-85.4815C95.4914-87.2104 94.1596-88.6979 92.2197-88.6979L78.7772-88.6979C76.8096-88.6979 75.4527-87.2104 75.4527-85.4815C75.4527-83.7276 76.8096-82.24 78.7772-82.24ZM78.7772-64.5477L92.2197-64.5477C94.1596-64.5477 95.4914-66.0352 95.4914-67.7892C95.4914-69.518 94.1596-71.0056 92.2197-71.0056L78.7772-71.0056C76.8096-71.0056 75.4527-69.518 75.4527-67.7892C75.4527-66.0352 76.8096-64.5477 78.7772-64.5477ZM78.7772-46.8553L92.2197-46.8553C94.1596-46.8553 95.4914-48.3428 95.4914-50.0968C95.4914-51.8256 94.1596-53.3132 92.2197-53.3132L78.7772-53.3132C76.8096-53.3132 75.4527-51.8256 75.4527-50.0968C75.4527-48.3428 76.8096-46.8553 78.7772-46.8553ZM101.064 11.5663C102.71 13.2121 105.416 13.2121 107.009 11.5663C108.602 9.89275 108.574 7.31971 107.009 5.7015L9.49602-91.7586C7.90547-93.3768 5.22435-93.4321 3.57849-91.7586C1.98539-90.1932 1.93263-87.4593 3.57849-85.8938Z"/>
</svg>