<svg xmlns="http://www.w3.org/2000/svg" viewBox="16.0716 -112.824 131.18 147.11">
  <path d="M81.696 6.8772C92.937 6.8772 101.981-2.14219 101.981-13.4359C101.981-21.3043 97.5133-27.6498 91.4316-30.9445C89.1773-32.1784 88.1897-33.8545 88.1897-37.2372L88.1897-98.3603C88.1897-101.861 85.3324-104.826 81.7488-104.826C78.1125-104.826 75.2829-101.861 75.2829-98.3603L75.2829-37.2372C75.2829-33.96 74.2148-32.3367 71.855-31.05C65.8261-27.7026 61.4634-21.3043 61.4634-13.4359C61.4634-2.14219 70.4828 6.8772 81.696 6.8772ZM104.803-92.2666L118.218-92.2666C120.186-92.2666 121.57-93.7265 121.57-95.4554C121.57-97.1842 120.186-98.6441 118.218-98.6441L104.803-98.6441C102.836-98.6441 101.504-97.1842 101.504-95.4554C101.504-93.7265 102.836-92.2666 104.803-92.2666ZM104.803-74.5742L118.218-74.5742C120.186-74.5742 121.57-76.0342 121.57-77.763C121.57-79.4918 120.186-80.9517 118.218-80.9517L104.803-80.9517C102.836-80.9517 101.504-79.4918 101.504-77.763C101.504-76.0342 102.836-74.5742 104.803-74.5742ZM104.803-56.8819L118.218-56.8819C120.186-56.8819 121.57-58.3418 121.57-60.0706C121.57-61.7994 120.186-63.2594 118.218-63.2594L104.803-63.2594C102.836-63.2594 101.504-61.7994 101.504-60.0706C101.504-58.3418 102.836-56.8819 104.803-56.8819ZM104.803-39.1895L118.218-39.1895C120.186-39.1895 121.57-40.6494 121.57-42.3782C121.57-44.1071 120.186-45.567 118.218-45.567L104.803-45.567C102.836-45.567 101.504-44.1071 101.504-42.3782C101.504-40.6494 102.836-39.1895 104.803-39.1895ZM16.084 3.21358C16.084 5.33686 17.8103 7.06315 19.9335 7.06315L20.2552 7.06315C39.362 7.06315 41.0257-5.72362 51.7798-5.72362C53.0469-5.72362 54.0651-5.4194 54.9727-4.89647C54.2264-7.05251 54.0102-9.60555 53.9272-12.739C53.1026-13.096 52.087-13.3172 50.9884-13.3172C44.5875-13.3172 39.8755-9.73363 35.9324-6.91638C31.1876-3.5664 27.1841-0.583215 20.2552-0.583215L19.9335-0.583215C17.8103-0.583215 16.084 1.11541 16.084 3.21358ZM147.255 3.21358C147.255 1.11541 145.557-0.583215 143.459-0.583215L143.137-0.583215C136.155-0.583215 132.179-3.5664 127.435-6.91638C123.464-9.73363 118.779-13.3172 112.456-13.3172C111.411-13.3172 110.395-13.096 109.623-12.739C109.804-10.8442 109.166-7.05251 108.419-4.89647C109.355-5.4194 110.345-5.72362 111.665-5.72362C122.366-5.6181 124.083 7.06315 143.137 7.06315L143.459 7.06315C145.557 7.06315 147.255 5.33686 147.255 3.21358ZM16.084 30.4373C16.084 32.5882 17.8103 34.2869 19.9335 34.2869L20.2552 34.2869C39.362 34.2869 41.0257 21.5001 51.7798 21.5001C62.2927 21.5001 64.944 34.2869 81.696 34.2869C98.3953 34.2869 101.099 21.5001 111.612 21.5001C122.366 21.5001 124.03 34.2869 143.137 34.2869L143.459 34.2869C145.557 34.2869 147.255 32.5882 147.255 30.4373C147.255 28.314 145.557 26.5877 143.459 26.5877L143.137 26.5877C136.155 26.5877 132.179 23.685 127.435 20.335C123.333 17.3594 118.41 13.801 111.612 13.801C104.548 13.801 99.5722 17.573 95.4708 20.629C91.1281 23.9262 87.499 26.5877 81.696 26.5877C75.8403 26.5877 72.2112 23.9262 67.8685 20.629C63.7671 17.573 58.7913 13.801 51.7798 13.801C44.9292 13.801 40.0338 17.3594 35.9324 20.335C31.1876 23.685 27.1841 26.5877 20.2552 26.5877L19.9335 26.5877C17.8103 26.5877 16.084 28.314 16.084 30.4373ZM50.9913-34.1805C52.7478-34.1805 54.1022-35.5374 54.1022-37.3467L54.1022-57.1057L53.2001-73.4756L54.1022-89.8984L54.1022-109.685C54.1022-111.467 52.7478-112.824 50.9913-112.824C49.2348-112.824 47.9332-111.467 47.9332-109.685L47.9332-89.8984L48.8102-73.4756L47.9332-57.1057L47.9332-37.3467C47.9332-35.5374 49.2348-34.1805 50.9913-34.1805ZM67.4778-79.5228L67.4778-86.5713L63.6522-84.3996L49.9535-75.3653L35.2724-67.9769L18.1472-58.0572C16.6044-57.2053 16.0716-55.3709 16.9763-53.8281C17.8281-52.2852 19.6901-51.8078 21.2054-52.7375L38.4109-62.6044L52.1623-71.586ZM67.4778-60.3799L67.4778-67.4812L52.1096-75.3653L38.4109-84.3996L21.2054-94.2665C19.6901-95.1712 17.8281-94.6661 16.9763-93.176C16.0716-91.6331 16.6044-89.7987 18.1472-88.8941L35.2724-78.9744L49.9535-71.5332L63.6522-62.6044ZM64.3887-104.299C63.5368-105.736 61.8608-106.189 60.3179-105.284L50.9913-99.9334L41.7175-105.284C40.1219-106.189 38.4458-105.736 37.6467-104.299C36.7421-102.809 37.2472-101.133 38.8177-100.228L48.0992-94.9001C50.4335-93.6538 51.71-93.6814 53.8835-94.9001L63.2177-100.228C64.7883-101.133 65.2933-102.809 64.3887-104.299ZM37.6467-42.705C38.4458-41.2149 40.1219-40.7902 41.7175-41.72L50.9913-47.0706L60.3179-41.72C61.8608-40.7902 63.5368-41.2149 64.3887-42.705C65.2933-44.1951 64.7883-45.8461 63.2177-46.7758L53.8835-52.1039C51.6547-53.3779 50.3782-53.2975 48.0992-52.1039L38.8177-46.7758C37.2472-45.8461 36.7421-44.1951 37.6467-42.705ZM30.9944-46.515C32.7233-46.4622 33.9219-47.6859 33.9747-49.5756L33.9219-60.2821C33.8164-62.83 33.1505-64.0512 31.0021-65.2447L21.7734-70.6507C20.1778-71.583 18.474-71.1307 17.6498-69.6129C16.798-68.2283 17.2503-66.5799 18.8736-65.6753L28.1474-60.2468L28.2001-49.4952C28.1474-47.6859 29.3435-46.4622 30.9944-46.515ZM30.9944-100.436C29.3435-100.489 28.1474-99.2126 28.2001-97.431L28.1474-86.6517L18.8736-81.276C17.2503-80.399 16.798-78.7229 17.6498-77.2856C18.474-75.7678 20.1778-75.3431 21.7734-76.3005L31.0021-81.6538C33.1505-82.875 33.8164-84.1213 33.9219-86.6969L33.9747-97.3505C33.9219-99.2126 32.7233-100.489 30.9944-100.436Z"/>
</svg>