<svg xmlns="http://www.w3.org/2000/svg" viewBox="11.2588 -97.0867 126.11 123.55">
  <path d="M11.2588-34.8574C11.2588-19.9189 16.9562-8.41886 23.1439 0.532858C26.2224 5.12405 27.9589 9.46633 27.9589 13.2537L27.9589 22.248C27.9589 24.5019 29.8158 26.4669 32.125 26.4669C34.3262 26.4669 36.2635 24.5019 36.2635 22.248L36.2635 18.6466L45.2564 18.6466L45.2564 22.248C45.2564 24.5019 47.2214 26.4669 49.4753 26.4669C51.7041 26.4669 53.6415 24.5019 53.6415 22.248L53.6415 18.6466L61.8578 18.6466L61.8578 22.248C61.8578 24.5019 63.8479 26.4669 66.0767 26.4669C68.3583 26.4669 70.268 24.5019 70.268 22.248L70.268 18.6466L78.2482 18.6466L78.2482 22.248C78.2482 24.5019 80.2659 26.4669 82.4671 26.4669C84.6959 26.4669 86.686 24.5019 86.686 22.248L86.686 18.6466L94.9024 18.6466L94.9024 22.248C94.9024 24.5019 96.812 26.4669 99.0685 26.4669C101.322 26.4669 103.287 24.5019 103.287 22.248L103.287 18.6466L112.253 18.6466L112.253 22.248C112.253 24.5019 114.218 26.4669 116.419 26.4669C118.728 26.4669 120.638 24.5019 120.638 22.248L120.638 13.2814C120.638 9.78546 122.535 5.17681 125.96-0.263691C131.829-9.05712 137.368-20.2908 137.368-34.8574C137.368-50.5138 131.432-64.115 122.96-75.1201C119.676-79.4501 119.402-80.5406 119.402-83.5162L119.402-92.8678C119.402-95.1217 117.44-97.0867 115.158-97.0867C112.929-97.0867 110.992-95.1217 110.992-92.8678L110.992-82.9885C110.992-76.4298 112.261-75.158 115.877-70.4238C123.18-60.8534 128.719-49.0011 128.719-34.8574C128.719-17.0565 119.787-4.59146 106.847 3.08884L41.724 3.08884C28.8921-4.59146 19.9077-17.0565 19.9077-34.8574C19.9077-49.0011 25.4715-60.8534 32.7497-70.4238C36.3657-75.158 37.6349-76.4298 37.6349-82.9885L37.6349-92.8678C37.6349-95.1217 35.6976-97.0867 33.4688-97.0867C31.1872-97.0867 29.2499-95.1217 29.2499-92.8678L29.2499-83.5162C29.2499-80.5406 28.9508-79.4501 25.6663-75.1201C17.1946-64.115 11.2588-50.5138 11.2588-34.8574ZM56.0792-8.70602C58.3633-8.70602 59.7981-10.4072 59.7981-12.7441L59.7981-55.1793L68.7233-55.1793C70.6658-55.1793 72.1257-56.3754 72.1257-58.3957C72.1257-60.4437 70.7713-61.6398 68.7233-61.6398L43.4601-61.6398C41.6785-61.6398 40.0301-60.5994 40.0301-58.3957C40.0301-56.4307 41.573-55.1793 43.4601-55.1793L52.3853-55.1793L52.3853-12.7441C52.3853-10.3795 53.687-8.70602 56.0792-8.70602ZM92.7336-8.33158C100.934-8.33158 106.154-13.8074 107.873-20.3069C108.3-21.86 108.486-22.8927 108.486-23.6892C108.486-25.9734 106.84-27.1443 105.059-27.1443C103.199-27.1443 102.109-26.0538 101.737-24.2747C100.875-19.0143 98.0846-14.8725 92.6281-14.8725C84.6883-14.8725 82.0893-25.1943 82.0893-35.6416C82.0893-47.5586 85.2912-56.2222 92.5753-56.2222C97.5417-56.2222 100.658-52.2889 101.684-46.7847C102.056-44.7644 103.277-43.6738 105.192-43.6738C107.318-43.6738 108.461-45.2669 108.461-47.0761C108.461-47.845 108.353-48.702 108.139-49.5841C106.662-57.209 100.037-62.7355 92.5225-62.7355C79.2179-62.7355 74.5685-48.9109 74.5685-35.6416C74.5685-21.5681 79.5145-8.33158 92.7336-8.33158Z"/>
</svg>