<svg xmlns="http://www.w3.org/2000/svg" viewBox="16.084 -92.6262 114.77 114.82">
  <path d="M35.0976 22.1923L111.836 22.1923C124.482 22.1923 130.85 15.7689 130.85 3.33696L130.85-73.7708C130.85-86.2028 124.482-92.6262 111.836-92.6262L35.0976-92.6262C22.5048-92.6262 16.084-86.2581 16.084-73.7708L16.084 3.33696C16.084 15.8242 22.5048 22.1923 35.0976 22.1923ZM35.2584 13.4907C28.4449 13.4907 24.7328 9.88413 24.7328 2.9123L24.7328-73.3462C24.7328-80.3708 28.4449-83.9245 35.2584-83.9245L111.675-83.9245C118.378-83.9245 122.201-80.3708 122.201-73.3462L122.201 2.9123C122.201 9.88413 118.378 13.4907 111.675 13.4907ZM73.4932-6.03981C76.7373-6.03981 78.7023-7.68822 80.0013-11.1608L98.0435-58.3885C98.3349-59.3459 98.4681-59.9841 98.4681-60.753C98.4681-63.1954 96.6389-64.786 94.1437-64.786C91.7817-64.786 90.4298-63.7256 89.5529-61.15L73.6541-16.3647L73.2796-16.3647L57.4084-61.15C56.4787-63.7533 55.1796-64.786 52.8176-64.786C50.3225-64.786 48.4656-63.1678 48.4656-60.753C48.4656-59.9841 48.5987-59.3182 48.9179-58.3885L67.0127-11.108C68.3922-7.44951 70.1713-6.03981 73.4932-6.03981Z" />
</svg>