<svg xmlns="http://www.w3.org/2000/svg" viewBox="16.084 -76.4592 183.72 82">
  <path d="M107.904-4.33098C128.232-4.33098 143.982-20.078 143.982-40.3285C143.982-60.6569 128.232-76.4592 107.904-76.4592C87.6008-76.4592 71.8789-60.6569 71.8789-40.3285C71.8789-20.078 87.6008-4.33098 107.904-4.33098ZM107.904-15.0621C93.7178-15.0621 82.5573-26.195 82.5573-40.3285C82.5573-54.5399 93.7178-65.7281 107.904-65.7281C122.063-65.7281 133.251-54.5399 133.251-40.3285C133.251-26.195 122.063-15.0621 107.904-15.0621ZM107.904-19.8869C119.371-19.8869 128.398-28.8889 128.398-40.3285C128.398-51.8486 119.371-60.8756 107.904-60.8756C96.3841-60.8756 87.4349-51.8486 87.4349-40.3285C87.4349-28.8889 96.3841-19.8869 107.904-19.8869ZM65.0487-40.3285C65.0487-55.4722 72.4848-68.4772 83.8815-76.1069L34.5747-76.1069C22.5601-76.1069 16.084-69.7389 16.084-57.8022L16.084-23.0684C16.084-11.1318 22.5601-4.73603 34.5747-4.73603L83.7207-4.73603C72.4044-12.4185 65.0487-25.3431 65.0487-40.3285ZM181.259-76.1069L131.899-76.1069C143.376-68.4772 150.785-55.4722 150.785-40.3285C150.785-25.3431 143.457-12.4185 132.007-4.73603L181.259-4.73603C193.354-4.73603 199.802-11.1318 199.802-23.0684L199.802-57.8022C199.802-69.7389 193.354-76.1069 181.259-76.1069ZM161.948-53.4825C161.948-55.6862 163.541-57.2793 165.744-57.2793L181.959-57.2793C184.216-57.2793 185.809-55.6862 185.809-53.4825C185.809-51.2537 184.216-49.6329 181.959-49.6329L165.744-49.6329C163.541-49.6329 161.948-51.2537 161.948-53.4825ZM161.948-39.3497C161.948-41.6062 163.541-43.1993 165.744-43.1993L181.959-43.1993C184.216-43.1993 185.809-41.6062 185.809-39.3497C185.809-37.1737 184.216-35.5529 181.959-35.5529L165.744-35.5529C163.541-35.5529 161.948-37.1737 161.948-39.3497ZM61.8119-8.25155L30.0771-8.25155L30.0771 0.823148C30.0771 3.64765 31.9442 5.53987 34.7963 5.53987L57.065 5.53987C59.9448 5.53987 61.8119 3.64765 61.8119 0.823148ZM154.049-8.25155L154.049 0.823148C154.049 3.64765 155.969 5.53987 158.821 5.53987L181.037 5.53987C183.917 5.53987 185.809 3.64765 185.809 0.823148L185.809-8.25155Z"/>
</svg>