<svg xmlns="http://www.w3.org/2000/svg" viewBox="16.084 -105.618 80.24 140.7">
  <path d="M56.2451 35.0787C79.8175 35.0787 96.3258 19.2942 96.3258-3.18L96.3258-67.3594C96.3258-89.8336 79.8175-105.618 56.2451-105.618C32.6727-105.618 16.084-89.8336 16.084-67.3594L16.084-3.18C16.084 19.2942 32.6727 35.0787 56.2451 35.0787ZM56.2451-41.2084C43.1622-41.2084 32.8611-51.5094 32.8611-64.5647C32.8611-77.6226 43.1622-87.9487 56.2451-87.9487C69.3004-87.9487 79.5486-77.6226 79.5486-64.5647C79.5486-51.5094 69.3004-41.2084 56.2451-41.2084ZM56.2451 17.1327C43.1622 17.1327 32.8611 6.77893 32.8611-6.30402C32.8611-19.3593 43.1622-29.6603 56.2451-29.6603C69.3004-29.6603 79.5486-19.3593 79.5486-6.30402C79.5486 6.77893 69.3004 17.1327 56.2451 17.1327ZM56.2451-55.867C61.0903-55.867 64.8649-59.6668 64.8649-64.5647C64.8649-69.4903 61.0903-73.265 56.2451-73.265C51.3999-73.265 47.5448-69.4903 47.5448-64.5647C47.5448-59.6668 51.3999-55.867 56.2451-55.867ZM56.2451 9.69739C65.2976 9.69739 72.1661 2.85405 72.1661-6.30402C72.1661-15.3817 65.2976-22.2778 56.2451-22.2778C47.1398-22.2778 40.2965-15.3817 40.2965-6.30402C40.2965 2.85405 47.1398 9.69739 56.2451 9.69739Z"/>
</svg>