<svg xmlns="http://www.w3.org/2000/svg" viewBox="11.2588 -106.802 128.87 132.35">
  <path d="M63.5539 17.8769C35.869 17.8769 18.9328-1.76343 18.9328-27.5335C18.9328-60.6216 45.8996-93.8564 87.9994-98.9191C90.4695-99.2357 91.6932-101.015 91.6932-102.821C91.6932-104.731 90.1805-106.802 87.0722-106.485C48.4871-103.4 11.2588-70.3028 11.2588-27.7748C11.2588 2.5963 31.7608 25.5509 63.7675 25.5509C77.3661 25.5509 91.0652 21.3086 102.992 13.9326L97.2583 8.19844C86.8965 14.2729 75.2679 17.8769 63.5539 17.8769ZM68.831-66.2023L71.0849-64.0037C80.9038-72.0963 92.7208-77.1202 103.651-77.1202C119.494-77.1202 132.645-65.924 132.645-47.5904C132.645-35.5096 128.37-23.8534 121.22-13.8133L126.901-8.15957C135.059-19.529 140.131-33.1476 140.131-47.5879C140.131-69.7259 124.906-84.3671 103.729-84.3671C90.3763-84.3671 75.9811-78.5968 64.6623-69.1273C66.175-68.489 67.6098-67.4512 68.831-66.2023ZM123.247 20.0755C125.858 22.6587 129.845 22.6034 132.187 20.0755C134.557 17.5199 134.746 13.7708 132.135 11.1599L61.8017-59.1731C59.2738-61.6482 55.2306-61.6206 52.861-59.1731C50.4109-56.6175 50.3582-52.813 52.9138-50.2851ZM75.2752-33.8488L56.3689-52.8381C55.5698-53.6649 55.5421-54.8912 56.3689-55.7179C57.168-56.4366 58.4219-56.4919 59.2487-55.7179L78.1827-36.6759Z"/>
</svg>