<svg xmlns="http://www.w3.org/2000/svg" viewBox="11.2588 -102.576 134.08 134.18">
  <path d="M83.0479 7.41876C83.0479 4.84572 80.8442 2.69478 78.3239 2.69478C75.7509 2.69478 73.5999 4.84572 73.5999 7.41876L73.5999 26.8829C73.5999 29.4032 75.7509 31.6069 78.3239 31.6069C80.8442 31.6069 83.0479 29.4032 83.0479 26.8829ZM31.0119 5.08698C29.2077 6.86348 29.1801 9.88883 30.9591 11.7206C32.7356 13.4971 35.8414 13.5776 37.5928 11.7734L51.3999-1.9533C53.1513-3.75745 53.1789-6.7828 51.3999-8.58696C49.6762-10.3911 46.598-10.4188 44.7662-8.58696ZM15.9828-40.2349C13.4348-40.2349 11.2588-38.0312 11.2588-35.511C11.2588-32.9907 13.4348-30.787 15.9828-30.787L35.4997-30.787C38.02-30.787 40.2237-32.9907 40.2237-35.511C40.2237-38.0312 38.02-40.2349 35.4997-40.2349ZM44.7662-62.3545C46.5427-60.5504 49.5957-60.5227 51.3999-62.3545C53.1789-64.131 53.1789-67.1564 51.3999-68.9882L37.6732-82.7426C35.9495-84.5191 32.8965-84.5995 31.0923-82.7953C29.2605-80.9912 29.2605-77.9658 31.0923-76.1617ZM83.0479-97.8521C83.0479-100.372 80.8442-102.576 78.3239-102.576C75.7509-102.576 73.5999-100.372 73.5999-97.8521L73.5999-78.3879C73.5999-75.8149 75.7509-73.6639 78.3239-73.6639C80.8442-73.6639 83.0479-75.8149 83.0479-78.3879ZM105.14-68.9882C103.336-67.1564 103.336-64.1587 105.14-62.3545C106.972-60.5227 110.022-60.5227 111.801-62.3545L125.608-76.1089C127.36-77.9131 127.36-80.9635 125.608-82.7953C123.776-84.5995 120.779-84.5995 118.975-82.7953ZM140.612-30.787C143.185-30.787 145.336-32.9907 145.336-35.511C145.336-38.0312 143.185-40.2349 140.612-40.2349L121.148-40.2349C118.628-40.2349 116.424-38.0312 116.424-35.511C116.424-32.9907 118.628-30.787 121.148-30.787ZM139.303 26.1413C141.672 23.6385 141.702 19.8893 139.303 17.384L79.1583-42.9488C76.761-45.3989 72.7179-45.3712 70.4814-42.9488C68.0841-40.4737 68.1369-36.6415 70.4814-34.2719L130.626 26.1413C133.078 28.619 137.066 28.5109 139.303 26.1413ZM135.82 22.6836C134.915 23.5883 133.714 23.4049 132.704 22.4198L93.2675-17.0416L96.1473-19.8964L135.556 19.6204C136.541 20.5527 136.752 21.7514 135.82 22.6836Z" />
</svg>