<svg xmlns="http://www.w3.org/2000/svg" viewBox="16.084 -92.6262 147.91 114.82">
  <path d="M35.0976 22.1923L144.977 22.1923C157.623 22.1923 163.991 15.7689 163.991 3.33696L163.991-73.7708C163.991-86.2028 157.623-92.6262 144.977-92.6262L35.0976-92.6262C22.5048-92.6262 16.084-86.2581 16.084-73.7708L16.084 3.33696C16.084 15.8242 22.5048 22.1923 35.0976 22.1923ZM68.8442-9.4455C66.349-9.4455 64.3589-11.4356 64.3589-13.9559C64.3589-15.152 64.8087-16.2123 65.7133-17.117L83.7328-35.1365L65.7133-53.1561C64.8087-54.0607 64.3589-55.1211 64.3589-56.3172C64.3589-58.8374 66.349-60.722 68.8442-60.722C70.1207-60.722 71.0755-60.2974 72.0078-59.4178L90.0499-41.4008L108.172-59.4706C109.157-60.4556 110.14-60.8275 111.361-60.8275C113.831-60.8275 115.821-58.8902 115.821-56.4227C115.821-55.1738 115.449-54.219 114.52-53.2088L96.4474-35.1365L114.467-17.1697C115.372-16.2651 115.769-15.2047 115.769-13.9559C115.769-11.4356 113.778-9.4455 111.283-9.4455C110.034-9.4455 108.841-9.92291 108.014-10.8024L90.0499-28.8194L72.1661-10.8024C71.2338-9.92291 70.1207-9.4455 68.8442-9.4455Z"/>
</svg>