<svg xmlns="http://www.w3.org/2000/svg" viewBox="16.084 -92.6262 114.77 114.82">
  <path d="M35.0976 22.1923L111.836 22.1923C124.482 22.1923 130.85 15.7689 130.85 3.33696L130.85-73.7708C130.85-86.2028 124.482-92.6262 111.836-92.6262L35.0976-92.6262C22.5048-92.6262 16.084-86.2581 16.084-73.7708L16.084 3.33696C16.084 15.8242 22.5048 22.1923 35.0976 22.1923ZM35.2584 13.4907C28.4449 13.4907 24.7328 9.88413 24.7328 2.9123L24.7328-73.3462C24.7328-80.3708 28.4449-83.9245 35.2584-83.9245L111.675-83.9245C118.378-83.9245 122.201-80.3708 122.201-73.3462L122.201 2.9123C122.201 9.88413 118.378 13.4907 111.675 13.4907ZM73.4932-6.56744C76.305-6.56744 77.8453-8.37159 77.8453-11.3416L77.8453-29.2841L96.0785-58.5468C96.5835-59.3433 96.8499-60.2203 96.8499-61.0168C96.8499-63.2205 95.204-64.8387 92.8948-64.8387C91.0656-64.8387 90.0554-64.203 88.9397-62.1878L73.7596-37.4934L73.3851-37.4934L58.2326-62.1878C57.0642-64.2558 56.0541-64.8387 54.1193-64.8387C51.9156-64.8387 50.1642-63.1678 50.1642-61.1224C50.1642-60.2454 50.4305-59.4488 50.9356-58.5468L69.2215-29.1786L69.2215-11.3416C69.2215-8.47712 70.7619-6.56744 73.4932-6.56744Z" />
</svg>