<svg xmlns="http://www.w3.org/2000/svg" viewBox="8.72266 -84.2128 97.94 97.9">
  <path d="M57.6748 13.6915C84.6605 13.6915 106.662-8.30959 106.662-35.2606C106.662-62.2117 84.6605-84.2128 57.6748-84.2128C30.7237-84.2128 8.72266-62.2117 8.72266-35.2606C8.72266-8.30959 30.7237 13.6915 57.6748 13.6915ZM60.1605-11.923C58.2003-11.923 57.0437-13.2182 57.0437-15.3586L57.0437-51.6793L56.7598-51.6793L49.0568-46.6546C48.2394-46.0797 47.8099-45.9827 47.2143-45.9827C45.933-45.9827 44.9219-47.1324 44.9219-48.379C44.9219-49.4317 45.2821-50.0481 46.1686-50.6783L55.7211-57.0469C57.4041-58.2035 58.4568-58.5983 59.9113-58.5983C62.003-58.5983 63.2843-57.3377 63.2843-55.1074L63.2843-15.3586C63.2843-13.2182 62.1553-11.923 60.1605-11.923Z"/>
</svg>