<svg xmlns="http://www.w3.org/2000/svg" viewBox="12.4609 -79.429 88.37 88.41">
  <path d="M26.8549 8.97699L86.4383 8.97699C95.9859 8.97699 100.832 4.07534 100.832-5.31303L100.832-65.139C100.832-74.5273 95.9859-79.429 86.4383-79.429L26.8549-79.429C17.3419-79.429 12.4609-74.5827 12.4609-65.139L12.4609-5.31303C12.4609 4.13066 17.3419 8.97699 26.8549 8.97699ZM43.5652-14.5889C41.9585-14.5889 40.6426-15.9325 40.6426-17.5462L40.6426-49.6235L35.4307-45.4846C35.0083-45.1244 34.5788-44.9305 33.9625-44.9305C32.7229-44.9305 31.8364-45.8723 31.8364-47.119C31.8364-48.1717 32.3697-48.9336 33.09-49.4599L39.0981-54.2773C40.0746-55.0529 41.4251-55.974 43.1634-55.974C45.1859-55.974 46.4948-54.7343 46.4948-52.7119L46.4948-17.5462C46.4948-15.9325 45.1513-14.5889 43.5652-14.5889ZM63.975-29.0162C57.4191-29.0162 54.1723-35.4406 54.1723-42.1488C54.1723-49.8265 58.3126-56.2785 65.6167-56.2785C75.2333-56.2785 78.0996-45.1671 78.0996-35.8211C78.0996-25.9762 75.3647-14.2358 65.4921-14.2358C60.6734-14.2358 56.6438-16.8733 55.5086-21.2969C55.3287-21.913 55.204-22.5913 55.204-23.1037C55.204-24.468 55.952-25.6176 57.6556-25.6176C58.84-25.6176 59.6918-25.0706 60.2735-23.575C61.2287-20.9037 62.9037-19.0351 65.5683-19.0351C71.7701-19.0351 72.6144-29.7988 72.6144-35.7792C72.6144-36.0145 72.6144-36.2291 72.6144-36.4713L72.4275-36.4713C71.3474-32.041 68.2875-29.0162 63.975-29.0162ZM65.6513-33.587C69.6867-33.587 71.7212-38.0514 71.7212-42.3913C71.7212-46.5719 69.8666-51.5069 65.6513-51.5069C61.6716-51.5069 59.7267-46.6272 59.7267-42.3913C59.7267-38.2453 61.533-33.587 65.6513-33.587Z"/>
</svg>