<svg xmlns="http://www.w3.org/2000/svg" viewBox="12.4609 -90.1056 105.23 109.71">
  <path d="M15.2383 19.605C16.7274 19.605 18.0503 18.4207 18.0503 16.9316L18.0503-87.4668C18.0503-88.9213 16.7274-90.1056 15.2383-90.1056C13.7838-90.1056 12.4609-88.9213 12.4609-87.4668L12.4609 16.9316C12.4609 18.4207 13.7838 19.605 15.2383 19.605ZM36.917-40.5418L74.7481-40.5418C80.8144-40.5418 84.2766-43.9347 84.2766-49.9594L84.2766-68.2539C84.2766-74.244 80.8144-77.6715 74.7481-77.6715L36.917-77.6715C30.8507-77.6715 27.3608-74.244 27.3608-68.2539L27.3608-49.9594C27.3608-43.9347 30.8507-40.5418 36.917-40.5418ZM36.917 7.09493L108.132 7.09493C114.26 7.09493 117.688 3.66739 117.688-2.32267L117.688-20.6172C117.688-26.6419 114.26-30.0348 108.132-30.0348L36.917-30.0348C30.8507-30.0348 27.3608-26.6419 27.3608-20.6172L27.3608-2.32267C27.3608 3.66739 30.8507 7.09493 36.917 7.09493Z" />
</svg>