<svg xmlns="http://www.w3.org/2000/svg" viewBox="12.4609 -90.3535 85.2 110.09">
  <path d="M45.6207-14.7022C46.7288-14.3907 47.4695-14.9168 47.4695-15.7337L47.4695-47.3814C47.4695-48.7384 47.1303-49.4097 46.2303-49.9289C41.6901-52.6834 35.114-53.071 28.2892-51.617C26.1362-51.1393 24.994-49.7269 24.994-47.6225L24.994-15.8368C24.994-14.4798 25.7903-14.0021 27.5418-14.5698C33.5078-16.5007 40.5614-16.5289 45.6207-14.7022ZM52.4264-15.4361C57.41-18.8068 64.5606-21.2987 70.6925-21.147C72.4717-21.1263 73.268-21.9365 73.268-23.3558L73.268-55.0792C73.268-57.2113 72.0635-58.2358 69.9728-57.9519C63.058-57.232 56.4126-54.6149 51.8724-50.4343C51.1041-49.6243 50.7925-48.8836 50.7925-47.499L50.7925-16.1215C50.7925-15.173 51.5748-14.9237 52.4264-15.4361ZM12.4609 4.32971C12.4609 11.7735 17.1485 15.8584 25.1323 15.512C41.5668 14.9301 57.8462 13.5314 75.7426 9.2448C82.3267 7.61738 85.3168 4.12107 85.3168-3.50235L85.3168-77.7165C85.3168-86.0744 80.4496-90.3535 72.2649-88.5529C57.8462-85.7073 41.5668-83.4571 24.5706-82.7989C17.1209-82.4524 12.4609-78.3258 12.4609-70.4392ZM18.5006 3.37368L18.5006-70.5225C18.5006-74.7589 21.1035-76.7175 25.1871-76.8284C41.6984-77.4174 57.7146-79.6676 71.9324-82.5062C76.446-83.4064 79.3048-81.1978 79.3048-76.7535L79.3048-3.73787C79.3048 0.775734 77.4225 2.90081 73.4215 3.75938C57.7146 7.46406 41.6984 8.91801 25.3955 9.43765C21.1035 9.57622 18.5006 7.32653 18.5006 3.37368ZM48.3053 19.7353L83.4089 19.7353C92.8526 19.7353 97.6643 14.889 97.6643 5.34133L97.6643-68.9506C97.6643-75.4805 95.2683-79.6697 90.8012-81.0546C90.9328-80.0088 91.0021-78.8938 91.0021-77.7165L91.0021-3.50235C91.0021 6.75907 86.1912 12.4921 77.1694 14.7015C67.2842 16.9243 57.5316 18.4822 48.3053 19.7353Z"/>
</svg>