<svg xmlns="http://www.w3.org/2000/svg" viewBox="8.72266 -84.2128 97.94 97.9">
  <path d="M57.6748 13.6915C84.7158 13.6915 106.662-8.21963 106.662-35.2606C106.662-62.3017 84.7158-84.2128 57.6748-84.2128C30.6684-84.2128 8.72266-62.3017 8.72266-35.2606C8.72266-8.21963 30.6684 13.6915 57.6748 13.6915ZM57.6748 7.37462C34.097 7.37462 15.0465-11.6829 15.0465-35.2606C15.0465-58.8384 34.097-77.8959 57.6748-77.8959C81.2526-77.8959 100.31-58.8384 100.31-35.2606C100.31-11.6829 81.2526 7.37462 57.6748 7.37462ZM42.9853-10.8367L72.3019-10.8367C77.2242-10.8367 79.8689-13.4328 79.8689-18.3621L79.8689-43.7395L35.446-43.7395L35.446-18.3621C35.446-13.4051 38.0907-10.8367 42.9853-10.8367ZM48.7587-34.6702C47.7825-34.6702 47.1039-35.3418 47.1039-36.3526L47.1039-37.1419C47.1039-38.222 47.7825-38.8591 48.7587-38.8591L66.5215-38.8591C67.567-38.8591 68.211-38.222 68.211-37.1419L68.211-36.3526C68.211-35.3418 67.567-34.6702 66.5215-34.6702ZM35.827-47.167L79.4879-47.167C82.2435-47.167 83.6488-48.8079 83.6488-51.4666L83.6488-54.2835C83.6488-56.9491 82.2435-58.6453 79.4879-58.6453L35.827-58.6453C33.21-58.6453 31.6314-56.9491 31.6314-54.2835L31.6314-51.4666C31.6314-48.8079 33.0714-47.167 35.827-47.167Z" />
</svg>