<svg xmlns="http://www.w3.org/2000/svg" viewBox="12.4609 -80.9514 72.77 91.44">
  <path d="M15.661-41.3365C16.5268-41.3365 17.4203-41.669 17.9882-42.2093L32.7345-56.8446L48.8133-74.1636L64.9613-56.8446L79.7353-42.2093C80.2756-41.669 81.169-41.3365 82.0625-41.3365C83.8704-41.3365 85.2349-42.7426 85.2349-44.5712C85.2349-45.4647 84.9301-46.2335 84.2305-46.9747L51.2861-79.8431C50.5865-80.5774 49.776-80.9514 48.8479-80.9514C47.9475-80.9514 47.1093-80.5774 46.4098-79.8431L13.493-46.9747C12.7934-46.2335 12.4609-45.4647 12.4609-44.5712C12.4609-42.7426 13.8254-41.3365 15.661-41.3365ZM48.8479 10.4925C50.7527 10.4925 52.1519 9.12795 52.1519 7.25079L52.1519-60.5654L51.7501-73.79C51.7501-75.5216 50.5795-76.7475 48.8479-76.7475C47.144-76.7475 45.9457-75.5216 45.9457-73.8453L45.5716-60.5654L45.5716 7.25079C45.5716 9.12795 46.9431 10.4925 48.8479 10.4925Z" />
</svg>