<svg xmlns="http://www.w3.org/2000/svg" viewBox="-1.44723 -84.2128 108.11 97.9">
  <path d="M2.19541-44.2333C-0.65097-44.2333-1.44723-42.2734 0.200876-39.9743L10.8485-24.7922C12.1781-22.8878 14.131-22.8878 15.426-24.7922L26.0736-39.9813C27.6871-42.2734 26.8908-44.2333 24.0791-44.2333ZM106.662-35.2606C106.662-62.3017 84.7158-84.2128 57.6748-84.2128C30.6684-84.2128 8.7573-62.3363 8.72266-35.1983C8.7573-33.446 10.1841-32.0746 11.8811-32.0746C13.585-32.0746 15.0465-33.4807 15.0465-35.233C15.0465-58.8384 34.097-77.8959 57.6748-77.8959C81.2526-77.8959 100.31-58.8384 100.31-35.2606C100.31-11.6829 81.2526 7.37462 57.6748 7.37462C42.8478 7.37462 29.8344-0.20457 22.3165-11.6598C21.1805-13.1906 19.3866-13.6546 17.8282-12.7472C16.3598-11.8467 15.8957-9.71337 17.1356-8.05803C25.8934 5.06654 40.7214 13.6915 57.6748 13.6915C84.7158 13.6915 106.662-8.21963 106.662-35.2606Z" />
</svg>