<svg xmlns="http://www.w3.org/2000/svg" viewBox="11.25 -79.097 103.16 87.67">
  <path d="M21.6632-53.5521C15.0028-53.5521 11.25-49.8963 11.25-43.4158L11.25-26.9188C11.25-20.4037 15.0028-16.7825 21.6632-16.7825L81.7112-16.7825C88.4062-16.7825 92.159-20.4037 92.159-26.9188L92.159-43.4158C92.159-49.8963 88.4062-53.5521 81.7112-53.5521ZM63.0322 3.68005C63.0322 6.45688 64.9368 8.57576 67.8035 8.57576C69.8671 8.57576 71.5429 7.65489 73.3851 5.91656L111.82-30.1307C113.897-32.0826 114.409-33.7444 114.409-35.2606C114.409-36.8115 113.925-38.4387 111.82-40.4252L73.3851-76.2577C71.3697-78.1415 69.9364-79.097 67.8728-79.097C64.9368-79.097 63.0322-76.7703 63.0322-73.9935Z"/>
</svg>