<svg xmlns="http://www.w3.org/2000/svg" viewBox="12.4609 -94.916 170.79 97.94">
  <path d="M59.7378-7.37398L136.437-7.37398L136.437-13.4483L59.7378-13.4483ZM47.1598 3.02418C56.3403 3.02418 63.5061-4.107 63.5061-13.2945C63.5061-22.4473 56.3403-29.6062 47.1598-29.6062C38.0069-29.6062 30.8411-22.4473 30.8411-13.2945C30.8411-4.107 38.0069 3.02418 47.1598 3.02418ZM47.1598-2.67608C41.2483-2.67608 36.569-7.34841 36.569-13.2945C36.569-19.2336 41.2483-23.9129 47.1598-23.9129C53.0989-23.9129 57.7782-19.2336 57.7782-13.2945C57.7782-7.34841 53.0989-2.67608 47.1598-2.67608ZM148.551 3.02418C157.704 3.02418 164.87-4.107 164.87-13.2945C164.87-22.4473 157.704-29.6062 148.551-29.6062C139.371-29.6062 132.205-22.4473 132.205-13.2945C132.205-4.107 139.371 3.02418 148.551 3.02418ZM148.551-2.67608C142.612-2.67608 137.933-7.34841 137.933-13.2945C137.933-19.2336 142.612-23.9129 148.551-23.9129C154.463-23.9129 159.142-19.2336 159.142-13.2945C159.142-7.34841 154.463-2.67608 148.551-2.67608ZM26.9935-7.37398L33.8679-7.37398L33.8679-13.4483L26.9935-13.4483C21.2069-13.4483 18.5006-16.4108 18.5006-22.7097L18.5006-28.988C18.5006-36.5334 24.1215-42.0852 33.6055-43.2343L53.3212-45.6296C56.3532-46.0034 57.9599-46.6128 59.9123-47.8105L77.884-59.1363C82.964-62.2784 87.3173-64.2442 92.639-65.4626L92.4035-71.7448C85.9321-70.4155 80.6577-68.1172 74.6079-64.3102L54.8574-51.9115L32.8436-49.2117C20.1805-47.6332 12.4609-39.851 12.4609-28.988L12.4609-22.5019C12.4609-12.1857 17.1203-7.37398 26.9935-7.37398ZM110.881-73.5455L110.735-67.5334L120.958-67.5334C134.408-67.5334 144.66-62.7776 157.412-51.6114C159.475-49.8043 160.514-49.3748 162.924-48.6269L168.53-46.8134C174.601-44.8822 177.211-41.8848 177.211-36.2299L177.211-22.7097C177.211-16.4108 174.504-13.4483 168.718-13.4483L161.67-13.4483L161.67-7.37398L168.718-7.37398C178.66-7.37398 183.25-12.2549 183.25-22.7097L183.25-36.2299C183.25-44.8563 179.193-49.9871 170.255-52.9847L162.446-55.5875C151.642-64.434 139.144-73.5455 120.958-73.5455ZM101.656-32.0805C104.599-32.0805 107.03-34.5042 107.03-37.3157C107.03-40.1894 104.634-42.5508 101.656-42.5508C98.6436-42.5508 96.2752-40.1894 96.2752-37.3157C96.2752-34.5042 98.7059-32.0805 101.656-32.0805ZM101.656-52.8295C103.457-52.8295 104.78-54.1247 104.814-56.0226L105.59-91.0094C105.625-93.3783 104.059-94.916 101.656-94.916C99.2178-94.916 97.68-93.3783 97.7493-91.0094L98.4629-56.0226C98.5322-54.1247 99.8204-52.8295 101.656-52.8295Z"/>
</svg>