<svg xmlns="http://www.w3.org/2000/svg" viewBox="10.1624 -92.3268 114.39 114.19">
  <path d="M90.6401-60.4049C97.8339-66.0872 104.164-87.1137 96.0633-88.7067C87.8034-90.2791 85.9533-68.3452 90.6401-60.4049ZM91.4369-59.1854C102.721-59.6691 124.551-77.2612 117.032-84.8425C109.52-92.3268 91.9276-70.4972 91.4369-59.1854ZM92.691-58.4509C100.534-53.6671 122.558-55.5795 121.021-63.7148C119.4-71.9124 98.3388-65.5477 92.691-58.4509ZM13.7905 18.2464C16.0754 20.5589 19.6756 21.8679 23.7611 19.2919L48.3505 3.88895L42.8049-1.46306C41.6692-2.54344 41.7315-4.06022 42.7219-5.05063C43.657-6.07569 45.2014-6.15868 46.2818-5.0783L52.7623 1.12555L58.0031-2.20452L49.9242-9.8892C48.7885-10.9349 48.8161-12.4864 49.7789-13.4491C50.7486-14.4672 52.3207-14.5848 53.4011-13.5321L62.4495-4.94025L88.6826-21.4554C104.565-31.4249 107.555-47.5067 95.6886-59.5326L91.5142-63.7693C80.9082-74.5692 66.7446-73.1784 56.7407-61.175L68.8777-49.5912C69.9858-48.5455 69.9858-47.0217 69.0507-46.0313C68.1156-45.0133 66.5089-44.9026 65.4354-45.9483L53.6655-57.1027L50.3908-51.9932L59.0661-43.7467C60.2019-42.6733 60.1742-41.0943 59.1215-40.1038C58.1241-39.1411 56.6696-39.0581 55.5616-40.1038L47.6897-47.5538L12.6205 8.09592C10.1624 12.0289 11.1802 15.6637 13.7905 18.2464Z"/>
</svg>