<svg xmlns="http://www.w3.org/2000/svg" viewBox="12.4609 -83.9095 68.09 97.23">
  <path d="M43.9747 13.3189C61.6147 13.3189 75.5231-0.589489 75.5231-18.1948C75.5231-35.8971 61.6147-49.8056 43.9124-49.8056C26.3071-49.8056 12.4609-35.8971 12.4609-18.1948C12.4609-0.589489 26.3694 13.3189 43.9747 13.3189ZM43.9747 7.00209C29.6943 7.00209 18.7778-3.91441 18.7778-18.1948C18.7778-32.5376 29.6666-43.4887 43.9124-43.4887C58.2551-43.4887 69.2063-32.5376 69.2063-18.1948C69.2063-3.91441 58.2551 7.00209 43.9747 7.00209ZM69.2063-18.1948L75.5231-18.1948L75.5231-71.7857L69.2063-71.7857ZM72.3647-67.5332C76.8933-67.5332 80.5494-71.1962 80.5494-75.7248C80.5494-80.2811 76.8933-83.9095 72.3647-83.9095C67.8084-83.9095 64.1454-80.2811 64.1454-75.7248C64.1454-71.1962 67.8084-67.5332 72.3647-67.5332Z"/>
</svg>