<svg xmlns="http://www.w3.org/2000/svg" viewBox="12.4609 -87.2303 80.72 104.05">
  <path d="M33.3909-20.5068L72.3978-20.5068C73.769-20.5068 74.8217-21.5872 74.8217-22.9378C74.8217-24.2813 73.769-25.3271 72.3978-25.3271L33.3909-25.3271C31.9781-25.3271 30.9324-24.2813 30.9324-22.9378C30.9324-21.5872 31.9781-20.5068 33.3909-20.5068ZM33.3909-5.57491L52.1428-5.57491C53.5487-5.57491 54.5944-6.59299 54.5944-7.93655C54.5944-9.31475 53.5487-10.3675 52.1428-10.3675L33.3909-10.3675C31.9781-10.3675 30.9324-9.31475 30.9324-7.93655C30.9324-6.59299 31.9781-5.57491 33.3909-5.57491ZM41.7946-37.8767L46.0168-37.8767C46.4113-37.8767 46.6605-37.7244 46.9651-37.4475L49.9622-34.4851C51.9285-32.4564 53.7496-32.4911 55.7506-34.4851L58.7476-37.4475C59.0522-37.6897 59.2668-37.8767 59.7236-37.8767L63.8765-37.8767C66.7014-37.8767 67.9824-39.13 67.9824-41.9479L67.9824-46.1355C67.9824-46.5647 68.0724-46.8416 68.3493-47.1461L71.3464-50.1155C73.3127-52.1095 73.3127-53.8753 71.3464-55.9039L68.3493-58.901C68.0724-59.1779 67.9824-59.4824 67.9824-59.8769L67.9824-64.0369C67.9824-66.8548 66.7014-68.1358 63.8765-68.1358L59.7236-68.1358C59.2668-68.1358 59.0522-68.3227 58.7476-68.5649L55.7506-71.4997C53.7219-73.5284 51.9285-73.4937 49.9345-71.4997L46.9651-68.5649C46.6882-68.2604 46.4113-68.1358 46.0168-68.1358L41.7946-68.1358C38.9697-68.1358 37.6956-66.8894 37.6956-64.0369L37.6956-59.8769C37.6956-59.4824 37.6057-59.1779 37.2942-58.901L34.3594-55.9039C32.3307-53.8753 32.3307-52.1095 34.3594-50.1155L37.2942-47.1461C37.6057-46.8416 37.6956-46.5647 37.6956-46.1355L37.6956-41.9479C37.6956-39.13 38.9697-37.8767 41.7946-37.8767ZM50.8626-43.6713C50.191-43.6713 49.6646-43.9898 49.1799-44.5784L44.2102-50.4619C43.8917-50.8151 43.7255-51.2998 43.7255-51.7153C43.7255-52.6917 44.4388-53.5226 45.5535-53.5226C46.1076-53.5226 46.62-53.2664 47.1047-52.6778L50.8003-48.2552L58.5524-60.4927C58.9333-61.0951 59.508-61.4899 60.1519-61.4899C61.0521-61.4899 61.897-60.8112 61.897-59.8141C61.897-59.364 61.7238-58.8723 61.5022-58.5261L52.58-44.6131C52.1576-43.9344 51.5136-43.6713 50.8626-43.6713ZM12.4609 2.42567C12.4609 11.9733 17.2726 16.8196 26.7163 16.8196L78.8925 16.8196C88.3638 16.8196 93.1825 11.9733 93.1825 2.42567L93.1825-72.8363C93.1825-82.3493 88.3638-87.2303 78.8925-87.2303L26.7163-87.2303C17.2726-87.2303 12.4609-82.3493 12.4609-72.8363ZM18.5006 2.30106L18.5006-72.7117C18.5006-78.2211 21.4008-81.1906 27.0488-81.1906L78.5947-81.1906C84.208-81.1906 87.1358-78.2211 87.1358-72.7117L87.1358 2.30106C87.1358 7.81049 84.208 10.7799 78.5947 10.7799L27.0488 10.7799C21.4008 10.7799 18.5006 7.81049 18.5006 2.30106Z"/>
</svg>