<svg xmlns="http://www.w3.org/2000/svg" viewBox="12.4609 -47.2738 84.53 22.03">
  <path d="M14.7399-40.4024L49.4205-26.6828C51.0968-26.0455 53.1056-25.242 54.7126-25.242C56.3473-25.242 58.3906-26.0455 60.0323-26.6828L94.713-40.4024C96.1121-40.9981 96.9919-42.2656 96.9919-43.5195C96.9919-45.6668 95.4195-47.2738 93.2792-47.2738C92.2332-47.2738 90.7924-46.6989 89.8573-46.3318L52.2395-31.3998L57.2133-31.3998L19.5955-46.3318C18.6604-46.6989 17.2543-47.2738 16.146-47.2738C14.0056-47.2738 12.4609-45.6668 12.4609-43.5195C12.4609-42.2656 13.3407-40.9981 14.7399-40.4024Z"/>
</svg>