<svg xmlns="http://www.w3.org/2000/svg" viewBox="8.72266 -84.2128 97.94 97.9">
  <path d="M57.6748 13.6915C84.7158 13.6915 106.662-8.21963 106.662-35.2606C106.662-62.3017 84.7158-84.2128 57.6748-84.2128C30.6684-84.2128 8.72266-62.3017 8.72266-35.2606C8.72266-8.21963 30.6684 13.6915 57.6748 13.6915ZM57.6748 7.37462C34.097 7.37462 15.0465-11.6829 15.0465-35.2606C15.0465-58.8384 34.097-77.8959 57.6748-77.8959C81.2526-77.8959 100.31-58.8384 100.31-35.2606C100.31-11.6829 81.2526 7.37462 57.6748 7.37462ZM46.9232-11.3007C47.9413-10.2827 49.8738-10.2966 50.9818-11.37L72.1018-31.5965C74.2489-33.605 74.2765-36.8953 72.1018-38.9661L50.9818-59.158C49.7698-60.3007 48.0729-60.3146 46.9578-59.2619C45.7942-58.1676 45.7596-56.2837 46.9162-55.1617L67.7247-35.2813L46.9162-15.3663C45.7942-14.279 45.7872-12.4574 46.9232-11.3007Z" />
</svg>