<svg xmlns="http://www.w3.org/2000/svg" viewBox="8.72266 -84.2128 97.94 97.9">
  <path d="M57.6748 13.6915C84.7158 13.6915 106.662-8.21963 106.662-35.2606C106.662-62.3017 84.7158-84.2128 57.6748-84.2128C30.6684-84.2128 8.72266-62.3017 8.72266-35.2606C8.72266-8.21963 30.6684 13.6915 57.6748 13.6915ZM57.6748 7.37462C34.097 7.37462 15.0465-11.6829 15.0465-35.2606C15.0465-58.8384 34.097-77.8959 57.6748-77.8959C81.2526-77.8959 100.31-58.8384 100.31-35.2606C100.31-11.6829 81.2526 7.37462 57.6748 7.37462ZM57.6401-13.0098C59.0113-13.0098 59.9601-13.9863 59.9601-15.3922L59.9601-31.6808L73.9094-53.8825C74.2419-54.4158 74.4011-54.7343 74.4011-55.3577C74.4011-56.6319 73.3277-57.4768 72.0811-57.4768C71.2086-57.4768 70.4813-56.9921 69.9966-56.1749L57.7647-35.9814L57.5502-35.9814L45.3529-56.1749C44.8958-56.9921 44.2795-57.5114 43.2338-57.5114C41.9318-57.5114 40.9414-56.6666 40.9414-55.3577C40.9414-54.9076 41.1007-54.3535 41.4608-53.7649L55.3547-31.6808L55.3547-15.3922C55.3547-13.9863 56.2689-13.0098 57.6401-13.0098ZM44.4026-32.678C44.4026-31.8954 45.0466-31.2861 45.8221-31.2861L69.797-31.2861C70.5796-31.2861 71.2236-31.8954 71.2236-32.678C71.2236-33.4535 70.5796-34.0975 69.797-34.0975L45.8221-34.0975C45.0466-34.0975 44.4026-33.4535 44.4026-32.678ZM44.4026-24.5709C44.4026-23.7606 45.0466-23.1513 45.8221-23.1513L69.797-23.1513C70.5796-23.1513 71.2236-23.7606 71.2236-24.5709C71.2236-25.3811 70.5796-25.9628 69.797-25.9628L45.8221-25.9628C45.0466-25.9628 44.4026-25.3811 44.4026-24.5709Z" />
</svg>