<svg xmlns="http://www.w3.org/2000/svg" viewBox="8.72266 -84.2128 97.94 97.9">
  <path d="M57.6748 13.6915C84.7158 13.6915 106.662-8.21963 106.662-35.2606C106.662-62.3017 84.7158-84.2128 57.6748-84.2128C30.6684-84.2128 8.72266-62.3017 8.72266-35.2606C8.72266-8.21963 30.6684 13.6915 57.6748 13.6915ZM57.6748 7.37462C34.097 7.37462 15.0465-11.6829 15.0465-35.2606C15.0465-58.8384 34.097-77.8959 57.6748-77.8959C81.2526-77.8959 100.31-58.8384 100.31-35.2606C100.31-11.6829 81.2526 7.37462 57.6748 7.37462ZM57.6401-53.9169C59.4612-53.9169 60.7905-55.2809 60.7905-57.0673C60.7905-58.8537 59.4612-60.2177 57.6401-60.2177C55.8537-60.2177 54.4897-58.8537 54.4897-57.0673C54.4897-55.2809 55.8537-53.9169 57.6401-53.9169ZM68.5781-50.9886C70.3991-50.9886 71.7285-52.3525 71.7285-54.139C71.7285-55.9254 70.3991-57.2894 68.5781-57.2894C66.7917-57.2894 65.4277-55.9254 65.4277-54.139C65.4277-52.3525 66.7917-50.9886 68.5781-50.9886ZM76.5807-42.9859C78.4018-42.9859 79.7311-44.3499 79.7311-46.1363C79.7311-47.9227 78.4018-49.2867 76.5807-49.2867C74.7943-49.2867 73.4303-47.9227 73.4303-46.1363C73.4303-44.3499 74.7943-42.9859 76.5807-42.9859ZM79.5091-32.0479C81.3301-32.0479 82.6595-33.4119 82.6595-35.1983C82.6595-36.9848 81.3301-38.3487 79.5091-38.3487C77.7227-38.3487 76.3587-36.9848 76.3587-35.1983C76.3587-33.4119 77.7227-32.0479 79.5091-32.0479ZM76.5807-21.11C78.4018-21.11 79.7311-22.474 79.7311-24.2604C79.7311-26.0468 78.4018-27.4108 76.5807-27.4108C74.7943-27.4108 73.4303-26.0468 73.4303-24.2604C73.4303-22.474 74.7943-21.11 76.5807-21.11ZM68.5781-13.1073C70.3991-13.1073 71.7285-14.4713 71.7285-16.2577C71.7285-18.0441 70.3991-19.4081 68.5781-19.4081C66.7917-19.4081 65.4277-18.0441 65.4277-16.2577C65.4277-14.4713 66.7917-13.1073 68.5781-13.1073ZM57.6401-10.179C59.4612-10.179 60.7905-11.543 60.7905-13.3294C60.7905-15.1158 59.4612-16.4798 57.6401-16.4798C55.8537-16.4798 54.4897-15.1158 54.4897-13.3294C54.4897-11.543 55.8537-10.179 57.6401-10.179ZM46.7022-13.1073C48.5232-13.1073 49.8526-14.4713 49.8526-16.2577C49.8526-18.0441 48.5232-19.4081 46.7022-19.4081C44.9157-19.4081 43.5864-18.0441 43.5864-16.2577C43.5864-14.4713 44.9157-13.1073 46.7022-13.1073ZM38.6995-21.11C40.5206-21.11 41.8499-22.474 41.8499-24.2604C41.8499-26.0468 40.5206-27.4108 38.6995-27.4108C36.9131-27.4108 35.5491-26.0468 35.5491-24.2604C35.5491-22.474 36.9131-21.11 38.6995-21.11ZM35.7712-32.0479C37.5922-32.0479 38.9216-33.4119 38.9216-35.1983C38.9216-36.9848 37.5922-38.3487 35.7712-38.3487C33.9848-38.3487 32.6208-36.9848 32.6208-35.1983C32.6208-33.4119 33.9848-32.0479 35.7712-32.0479ZM38.6995-42.9859C40.5206-42.9859 41.8499-44.3499 41.8499-46.1363C41.8499-47.9227 40.5206-49.2867 38.6995-49.2867C36.9131-49.2867 35.5491-47.9227 35.5491-46.1363C35.5491-44.3499 36.9131-42.9859 38.6995-42.9859ZM46.7022-50.9886C48.5232-50.9886 49.8526-52.3525 49.8526-54.139C49.8526-55.9254 48.5232-57.2894 46.7022-57.2894C44.9157-57.2894 43.5864-55.9254 43.5864-54.139C43.5864-52.3525 44.9157-50.9886 46.7022-50.9886Z" />
</svg>