<svg xmlns="http://www.w3.org/2000/svg" viewBox="8.72266 -84.2128 97.94 97.9">
  <path d="M57.6748 13.6915C84.6605 13.6915 106.662-8.30959 106.662-35.2606C106.662-62.2117 84.6605-84.2128 57.6748-84.2128C30.7237-84.2128 8.72266-62.2117 8.72266-35.2606C8.72266-8.30959 30.7237 13.6915 57.6748 13.6915ZM55.8612-7.07668C54.9957-7.07668 54.3793-7.68603 54.3793-8.46859C54.3793-8.69712 54.414-8.9603 54.5039-9.29251L55.7084-13.9168C53.521-14.166 51.5136-14.7128 49.776-15.5987L47.8932-8.23307C47.637-7.40216 47.1523-7.07668 46.4113-7.07668C45.5458-7.07668 44.8948-7.68603 44.8948-8.46859C44.8948-8.69712 44.9294-8.9603 45.0194-9.29251L47.0685-17.1706C41.876-20.9921 39.2313-27.7699 39.2313-35.6138C39.2313-47.757 45.6631-56.8954 57.3974-57.2971L58.6088-62.0046C58.8304-62.8355 59.3151-63.1957 60.16-63.1957C61.0255-63.1957 61.6072-62.5863 61.6072-61.8384C61.6072-61.6791 61.5726-61.4506 61.4479-61.0145L60.4927-57.1725C62.5555-56.951 64.5629-56.3765 66.3628-55.4906L68.0933-62.0046C68.3149-62.8355 68.765-63.1957 69.6099-63.1957C70.4754-63.1957 71.0294-62.5863 71.0294-61.8384C71.0294-61.6791 70.9948-61.4506 70.8702-61.0145L69.0427-53.8911C71.2649-52.2088 73.0581-49.9659 74.0689-47.1552C74.3528-46.4352 74.5467-45.5489 74.5467-44.8773C74.5467-43.5614 73.7502-42.6958 72.3306-42.6958C70.8694-42.6958 70.3154-43.4575 69.9759-44.5795C69.6367-46.2195 68.8687-47.6174 67.803-48.7523L59.8841-18.169C64.8398-18.6054 68.9858-21.5885 70.2668-26.3438C70.6685-27.5349 71.3678-28.2898 72.6491-28.2898C73.7848-28.2898 74.8375-27.6111 74.8375-26.046C74.8375-25.3327 74.7129-24.5091 74.429-23.7751C72.2344-17.4823 66.0797-13.7575 58.8314-13.7575L58.7691-13.7575L57.3154-8.23307C57.0869-7.40216 56.6368-7.07668 55.8612-7.07668ZM44.2661-35.6138C44.2661-30.4916 45.6365-25.7154 48.4051-22.4202L56.2893-52.8856C48.2254-51.8536 44.2661-44.3426 44.2661-35.6138ZM50.9117-20.1072C52.5523-19.055 54.4975-18.3143 56.7472-18.1274L65.2271-51.0237C63.5588-52.0689 61.5514-52.775 59.357-52.9619Z"/>
</svg>