<svg xmlns="http://www.w3.org/2000/svg" viewBox="8.72266 -84.1504 97.94 97.9">
  <path d="M57.6748 13.7538C84.6605 13.7538 106.662-8.24729 106.662-35.1983C106.662-62.1494 84.6605-84.1504 57.6748-84.1504C30.7237-84.1504 8.72266-62.1494 8.72266-35.1983C8.72266-8.24729 30.7237 13.7538 57.6748 13.7538ZM41.3923-8.85611C35.805-8.85611 31.2979-13.3633 31.2979-18.9505C31.2979-24.6277 35.8397-29.0033 41.3923-29.0033L46.7704-29.0033L46.7704-41.3934L41.3923-41.3934C35.8397-41.3934 31.2979-45.7689 31.2979-51.4462C31.2979-57.0334 35.805-61.5406 41.3923-61.5406C47.0072-61.5406 51.4867-57.0334 51.4867-51.4462L51.4867-45.9988L63.8628-45.9988L63.8628-51.4462C63.8628-57.0334 68.3423-61.5406 73.9572-61.5406C79.5445-61.5406 84.0516-57.0334 84.0516-51.4462C84.0516-45.7689 79.5098-41.3934 73.9572-41.3934L68.5445-41.3934L68.5445-29.0033L73.9572-29.0033C79.5098-29.0033 84.0516-24.6277 84.0516-18.9505C84.0516-13.3633 79.5445-8.85611 73.9572-8.85611C68.3423-8.85611 63.8628-13.3633 63.8628-18.9505L63.8628-24.3979L51.4867-24.3979L51.4867-18.9505C51.4867-13.3633 47.0072-8.85611 41.3923-8.85611ZM41.3923-13.5724C44.2648-13.5724 46.7704-16.0088 46.7704-18.9505L46.7704-24.3979L41.3923-24.3979C38.4505-24.3979 36.0072-21.8853 36.0072-18.9505C36.0072-16.0434 38.4852-13.5724 41.3923-13.5724ZM36.0072-51.4462C36.0072-48.5114 38.4505-45.9988 41.3923-45.9988L46.7704-45.9988L46.7704-51.4462C46.7704-54.3879 44.2648-56.8243 41.3923-56.8243C38.4852-56.8243 36.0072-54.3533 36.0072-51.4462ZM51.4867-29.0033L63.8628-29.0033L63.8628-41.3934L51.4867-41.3934ZM68.5445-18.9505C68.5445-16.0088 71.0571-13.5724 73.9572-13.5724C76.8643-13.5724 79.3147-16.0434 79.3147-18.9505C79.3147-21.8853 76.899-24.3979 73.9572-24.3979L68.5445-24.3979ZM68.5445-45.9988L73.9572-45.9988C76.899-45.9988 79.3147-48.5114 79.3147-51.4462C79.3147-54.3533 76.8643-56.8243 73.9572-56.8243C71.0571-56.8243 68.5445-54.3879 68.5445-51.4462Z"/>
</svg>