<svg xmlns="http://www.w3.org/2000/svg" viewBox="12.4609 -75.9472 113.41 81.55">
  <path d="M12.4609-46.544L12.4609-57.4546L125.872-57.4546L125.872-46.544ZM32.8235-7.81194C31.7085-6.98776 30.5035-7.84658 30.9189-9.21083L33.6603-17.5317L26.5578-22.5575C25.5398-23.3747 25.8929-24.8775 27.2711-24.8428L35.9935-24.8082L38.6933-33.1637C39.1157-34.438 40.6462-34.438 41.0063-33.1637L43.7408-24.8082L52.4285-24.8428C53.869-24.8775 54.1668-23.3193 53.1764-22.5851L46.067-17.5317L48.836-9.21083C49.2585-7.84658 48.0535-6.98776 46.9108-7.81194L39.8636-12.9623ZM26.8549 5.60582L111.505 5.60582C121.053 5.60582 125.872 0.738808 125.872-8.64956L125.872-61.6918C125.872-71.0802 121.053-75.9472 111.505-75.9472L26.8549-75.9472C17.3419-75.9472 12.4609-71.1355 12.4609-61.6918L12.4609-8.64956C12.4609 0.794132 17.3419 5.60582 26.8549 5.60582Z"/>
</svg>