<svg xmlns="http://www.w3.org/2000/svg" viewBox="12.4609 -93.3876 93.94 116.25">
  <path d="M81.8156-73.9679L81.8156-90.0498C81.8156-92.7229 79.6138-93.3876 77.5432-91.8918L66.529-84.0202C64.7982-82.7531 64.7635-81.3338 66.529-80.0321L77.5432-72.2229C79.6138-70.6994 81.8156-71.3987 81.8156-73.9679ZM75.3698-84.0274C74.1995-84.0274 73.2577-83.0856 73.2577-81.9152C73.2577-80.7726 74.1995-79.7961 75.3698-79.7961L82.5773-79.7961C92.3371-79.7961 98.6224-73.6073 98.6224-64.0405L98.6224-58.4049C98.6224-57.1653 99.6681-56.1472 100.908-56.1472C102.092-56.1472 103.165-57.1653 103.165-58.4049L103.165-64.1235C103.165-76.1765 95.0519-84.0274 82.6119-84.0274ZM37.2515 3.44662L37.2515 19.5285C37.2515 22.2016 39.4534 22.8663 41.5239 21.3705L52.5035 13.4989C54.2689 12.2318 54.3036 10.8125 52.5035 9.51085L41.5239 1.70156C39.4534 0.178066 37.2515 0.877379 37.2515 3.44662ZM43.6627 13.5061C44.833 13.5061 45.8095 12.5643 45.8095 11.394C45.8095 10.2513 44.833 9.27481 43.6627 9.27481L36.4899 9.27481C26.73 9.27481 20.4101 3.08597 20.4101-6.48077L20.4101-12.1164C20.4101-13.356 19.3644-14.3741 18.1247-14.3741C16.9751-14.3741 15.9017-13.356 15.9017-12.1164L15.9017-6.39779C15.9017 5.6552 24.0152 13.5061 36.4552 13.5061ZM106.398-16.2859C106.398-17.9759 105.152-19.1049 103.448-19.1049L44.5099-19.1049C43.665-19.1049 43.2912-19.4787 43.2912-20.3582L43.2912-78.9013C43.2912-80.7092 42.0929-82.0528 40.299-82.0528C38.4774-82.0528 37.2515-80.7092 37.2515-78.9013L37.2515-16.7078C37.2515-14.6789 38.5464-13.4116 40.5477-13.4116L103.448-13.4116C105.152-13.4116 106.398-14.5682 106.398-16.2859ZM12.4609-54.4432C12.4609-52.7186 13.7076-51.5896 15.4115-51.5896L74.5226-51.5896C75.4021-51.5896 75.7759-51.2158 75.7759-50.3709L75.7759 8.38004C75.7759 10.1879 76.9742 11.5315 78.7681 11.5315C80.562 11.5315 81.8156 10.1879 81.8156 8.38004L81.8156-54.0213C81.8156-56.0503 80.5207-57.3175 78.5194-57.3175L15.4115-57.3175C13.7076-57.3175 12.4609-56.1609 12.4609-54.4432Z" />
</svg>