<svg xmlns="http://www.w3.org/2000/svg" viewBox="12.4609 -92.2097 65.24 113.86">
  <path d="M28.3437-71.2037L61.7517-71.2037C66.4533-71.2037 69.3544-74.1602 69.3544-78.9864L69.3544-84.4271C69.3544-89.2256 66.4533-92.2097 61.7517-92.2097L28.3437-92.2097C23.6698-92.2097 20.8033-89.2256 20.8033-84.4271L20.8033-78.9864C20.8033-74.1602 23.6698-71.2037 28.3437-71.2037ZM29.5128-62.5015L60.645-62.5015L60.645-73.4682L29.5128-73.4682ZM27.367 21.6468L62.7561 21.6468C71.874 21.6468 77.6968 15.7964 77.6968 6.49152L77.6968-48.8973C77.6968-58.1745 71.874-64.0527 62.7561-64.0527L27.367-64.0527C18.2561-64.0527 12.4609-58.1745 12.4609-48.8973L12.4609 6.49152C12.4609 15.7964 18.2561 21.6468 27.367 21.6468ZM26.6949-17.807L26.6949-24.6334C26.6949-26.7241 28.0725-28.0325 30.0663-28.0325L38.2285-28.0325L38.2285-36.1324C38.2285-38.1954 39.5369-39.5731 41.6345-39.5731L48.4886-39.5731C50.5863-39.5731 51.9223-38.1954 51.9223-36.1324L51.9223-28.0325L59.9945-28.0325C62.0229-28.0325 63.4629-26.7241 63.4629-24.6334L63.4629-17.807C63.4629-15.7094 62.0229-14.3733 59.9945-14.3733L51.9223-14.3733L51.9223-6.27344C51.9223-4.2104 50.5863-2.80506 48.4886-2.80506L41.6345-2.80506C39.5369-2.80506 38.2285-4.2104 38.2285-6.27344L38.2285-14.3733L30.0663-14.3733C28.0725-14.3733 26.6949-15.7094 26.6949-17.807Z"/>
</svg>