<svg xmlns="http://www.w3.org/2000/svg" viewBox="8.72266 -84.2128 97.94 97.9">
  <path d="M57.6748 13.6915C84.6605 13.6915 106.662-8.30959 106.662-35.2606C106.662-62.2117 84.6605-84.2128 57.6748-84.2128C30.7237-84.2128 8.72266-62.2117 8.72266-35.2606C8.72266-8.30959 30.7237 13.6915 57.6748 13.6915ZM58.1797-13.4111C45.628-13.4111 39.2377-23.1795 39.2377-35.2327C39.2377-47.7154 46.0574-56.9507 58.1797-56.9507C65.5732-56.9507 72.0602-52.8182 74.1444-46.3108C74.3453-45.7152 74.4492-44.9949 74.4492-44.5378C74.4492-43.2359 73.5211-42.4187 72.2261-42.4187C70.9935-42.4187 70.3702-43.125 69.9684-44.337C68.6044-49.3208 63.8419-52.6778 58.2143-52.6778C48.8205-52.6778 44.3002-44.6611 44.3002-35.2327C44.3002-26.6908 47.9203-19.1312 55.7423-17.8433L55.7423-35.2604C55.7423-36.1606 56.324-36.7769 57.1688-36.7769C58.0414-36.7769 58.5954-36.1606 58.5954-35.2604L58.5954-31.0728L58.72-31.0728C59.6615-34.1813 62.6524-36.8669 66.7433-36.8669C67.6779-36.8669 68.9584-36.68 69.6367-36.2231C70.1631-35.8977 70.4886-35.3713 70.4886-34.8519C70.4886-33.8685 69.8999-33.4254 69.0274-33.4254C68.5706-33.4254 67.8782-33.7229 66.7849-33.7229C61.8631-33.7229 58.6853-30.1721 58.6853-25.1949L58.6853-17.6147C64.0911-17.7463 68.7914-20.6048 70.2246-25.8172C70.5917-27.0222 71.305-27.7008 72.5793-27.7008C73.9159-27.7008 74.7401-26.9322 74.7401-25.651C74.7401-25.0207 74.6777-24.4183 74.4422-23.7743C72.4273-17.1907 65.7671-13.4111 58.1797-13.4111Z"/>
</svg>