<svg xmlns="http://www.w3.org/2000/svg" viewBox="12.4609 -79.429 88.37 88.41">
  <path d="M26.8549 8.97699L86.4383 8.97699C95.9859 8.97699 100.832 4.07534 100.832-5.31303L100.832-65.139C100.832-74.5273 95.9859-79.429 86.4383-79.429L26.8549-79.429C17.3419-79.429 12.4609-74.5827 12.4609-65.139L12.4609-5.31303C12.4609 4.13066 17.3419 8.97699 26.8549 8.97699ZM26.9795 2.90264C21.4701 2.90264 18.5006 0.00250377 18.5006-5.61085L18.5006-64.8411C18.5006-70.4892 21.4701-73.3546 26.9795-73.3546L86.3137-73.3546C91.7125-73.3546 94.7926-70.4892 94.7926-64.8411L94.7926-5.61085C94.7926 0.00250377 91.7125 2.90264 86.3137 2.90264ZM38.6848-14.8462C39.959-14.8462 40.8732-15.788 40.8732-17.1869L40.8732-26.4478L43.9119-29.5348L53.6094-15.9335C54.0665-15.2409 54.7175-14.8462 55.5417-14.8462C56.6843-14.8462 57.6331-15.6634 57.6331-16.7991C57.6331-17.3601 57.3976-17.8795 57.0098-18.3642L47.0491-32.2703L56.4351-42.3068C56.9615-42.8954 57.2247-43.2209 57.2247-43.8789C57.2247-44.8899 56.3452-45.8041 55.2648-45.8041C54.6415-45.8041 53.9835-45.437 53.5611-44.9523L41.0531-31.1638L40.8732-31.1638L40.8732-55.2108C40.8732-56.6097 39.959-57.5931 38.6848-57.5931C37.3828-57.5931 36.4687-56.6167 36.4687-55.2454L36.4687-17.1869C36.4687-15.788 37.3828-14.8462 38.6848-14.8462ZM65.6221-14.8462C66.6815-14.8462 67.7136-15.4832 67.7136-17.1869L67.7136-33.4398C67.7136-37.1362 69.1533-41.5658 73.5904-41.5658C74.4906-41.5658 75.2938-41.5798 75.9861-41.8916C76.6369-42.1341 77.0107-42.6465 77.0107-43.3944C77.0107-44.9869 75.5916-45.8041 73.9921-45.8041C70.7179-45.8041 68.5926-43.0697 67.8519-39.7608L67.5197-39.7608L67.5197-43.581C67.5197-44.8553 66.6955-45.8041 65.5252-45.8041C64.3548-45.8041 63.5306-44.8553 63.5306-43.581L63.5306-17.1869C63.5306-15.7603 64.2509-14.8462 65.6221-14.8462ZM79.114-15.2549C80.8798-15.2549 82.1884-16.5359 82.1884-18.267C82.1884-20.0051 80.8798-21.3137 79.114-21.3137C77.376-21.3137 76.1019-20.0051 76.1019-18.267C76.1019-16.5359 77.376-15.2549 79.114-15.2549Z" />
</svg>