<svg xmlns="http://www.w3.org/2000/svg" viewBox="12.4609 -81.901 93.4 93.46">
  <path d="M45.3465-5.04287L74.8781-5.04287C80.6523-5.04287 83.7055-8.16535 83.7055-13.9465L83.7055-39.9188C83.7055-43.1873 83.1931-44.6692 81.2888-46.5805L65.05-63.0271C63.2427-64.8344 61.5669-65.4784 58.5685-65.4784L45.3465-65.4784C39.5999-65.4784 36.5191-62.3559 36.5191-56.5748L36.5191-13.9465C36.5191-8.16535 39.5723-5.04287 45.3465-5.04287ZM45.5127-10.0017C42.7651-10.0017 41.4156-11.3582 41.4156-14.0088L41.4156-56.5125C41.4156-59.1355 42.7928-60.5196 45.5473-60.5196L57.6399-60.5196L57.6399-44.6265C57.6399-41.1506 59.5855-39.2673 63.0891-39.2673L78.809-39.2673L78.809-14.0088C78.809-11.3582 77.4595-10.0017 74.6772-10.0017ZM63.5671-44.0459C62.7507-44.0459 62.4461-44.3158 62.4461-45.1045L62.4461-58.7123L76.974-44.0459ZM15.4808-51.9997C17.4409-51.9997 18.5006-53.1217 18.5006-55.0818L18.5006-67.3132C18.5006-72.9265 21.4701-75.8267 26.9795-75.8267L39.3841-75.8267C41.3442-75.8267 42.4386-76.921 42.4386-78.8465C42.4386-80.8067 41.3442-81.901 39.3841-81.901L26.8549-81.901C17.3419-81.901 12.4609-77.0547 12.4609-67.611L12.4609-55.0818C12.4609-53.1217 13.5553-51.9997 15.4808-51.9997ZM102.839-51.9997C104.827-51.9997 105.859-53.1217 105.859-55.0818L105.859-67.611C105.859-76.9994 101.041-81.901 91.4654-81.901L78.9639-81.901C76.976-81.901 75.8817-80.8067 75.8817-78.8465C75.8817-76.921 76.976-75.8267 78.9639-75.8267L91.3408-75.8267C96.7395-75.8267 99.8473-72.9265 99.8473-67.3132L99.8473-55.0818C99.8473-53.1217 100.914-51.9997 102.839-51.9997ZM26.8549 11.5597L39.3841 11.5597C41.3442 11.5597 42.4386 10.4653 42.4386 8.53981C42.4386 6.57966 41.3442 5.48532 39.3841 5.48532L26.9795 5.48532C21.4701 5.48532 18.5006 2.58518 18.5006-3.02818L18.5006-15.2249C18.5006-17.2197 17.4063-18.3417 15.4808-18.3417C13.5206-18.3417 12.4609-17.2197 12.4609-15.2249L12.4609-2.73036C12.4609 6.71334 17.3419 11.5597 26.8549 11.5597ZM78.9639 11.5597L91.4654 11.5597C101.041 11.5597 105.859 6.65801 105.859-2.73036L105.859-15.2249C105.859-17.2197 104.793-18.3417 102.839-18.3417C100.879-18.3417 99.8473-17.2197 99.8473-15.2249L99.8473-3.02818C99.8473 2.58518 96.7395 5.48532 91.3408 5.48532L78.9639 5.48532C76.976 5.48532 75.8817 6.57966 75.8817 8.53981C75.8817 10.4653 76.976 11.5597 78.9639 11.5597Z"/>
</svg>