<svg xmlns="http://www.w3.org/2000/svg" viewBox="8.72266 -84.2128 97.94 97.9">
  <path d="M57.6748 13.6915C84.6605 13.6915 106.662-8.30959 106.662-35.2606C106.662-62.2117 84.6605-84.2128 57.6748-84.2128C30.7237-84.2128 8.72266-62.2117 8.72266-35.2606C8.72266-8.30959 30.7237 13.6915 57.6748 13.6915ZM31.2917-8.16535C28.8272-8.16535 27.1586-9.95848 27.1586-12.5546L27.1586-17.4208C27.1586-20.7646 28.4603-22.7583 31.8046-25.348C33.6872-26.8914 34.0887-28.4214 34.0887-33.8556C34.0887-37.1649 34.6287-39.8373 35.591-42.3223L33.4313-44.9388C30.6689-48.1303 35.1135-51.8831 37.8968-48.629L39.8349-46.1994C40.1118-46.3863 40.6033-46.5732 41.3023-46.6355L62.7961-48.4075C67.9051-50.311 68.5907-52.858 70.5912-55.6614C71.7336-53.4254 73.5475-51.4043 76.1366-51.4043C80.152-51.4043 82.4299-56.3817 82.9976-59.3242C84.5281-58.4033 85.5599-56.8592 87.7612-55.5091C90.2048-53.9239 92.3092-53.7026 92.3092-51.418C92.3092-47.25 88.4528-43.0479 84.5273-43.0479C82.7618-43.0479 81.2875-43.4774 79.28-44.7095C78.7193-43.9691 77.9026-42.6674 77.9026-39.9472C77.9026-35.0732 75.5627-31.5017 73.9634-26.8906C73.1188-24.599 71.4924-18.8471 71.0286-16.4379C70.904-15.8841 71.2156-15.4827 71.6863-15.3234C74.5658-14.7976 75.383-13.794 75.383-11.9313C75.383-9.90988 73.7977-8.16535 71.153-8.16535L67.0342-8.16535C64.2855-8.16535 62.61-9.99313 62.61-12.8041C62.61-15.3516 63.0531-20.8887 63.2191-24.3364C57.4796-23.3744 50.648-23.8173 46.9514-26.5377C46.2937-21.0208 42.8943-17.4286 36.8647-16.8327C35.9095-16.7288 35.9302-15.462 37.0033-15.3234C39.0943-15.2195 40.2711-14.1536 40.2711-12.1042C40.2711-9.90988 38.6235-8.16535 35.9858-8.16535ZM84.3267-51.0858C85.1436-51.0858 85.7943-51.7088 85.7943-52.5811C85.7943-53.4603 85.1436-54.0834 84.3267-54.0834C83.4405-54.0834 82.7967-53.4603 82.7967-52.5811C82.7967-51.7088 83.4405-51.0858 84.3267-51.0858ZM76.1366-53.3916C72.7235-53.3916 70.972-59.2136 70.972-60.7298C70.972-62.0868 71.7336-62.8968 73.0423-62.8968L79.1686-62.8968C80.5326-62.8968 81.2595-62.0868 81.2595-60.7298C81.2595-59.2136 79.4527-53.3916 76.1366-53.3916Z"/>
</svg>