<svg xmlns="http://www.w3.org/2000/svg" viewBox="12.4609 -94.0085 114.3 117.61">
  <path d="M26.8549 9.03231L60.9384 9.03231L60.9384 2.95796L26.9795 2.95796C21.4701 2.95796 18.5006 0.0924704 18.5006-5.55553L18.5006-64.7858C18.5006-70.3992 21.5807-73.2993 26.9795-73.2993L60.9384-73.2993L60.9384-79.3737L26.8549-79.3737C17.3073-79.3737 12.4609-74.5273 12.4609-65.0836L12.4609-5.25771C12.4609 4.18599 17.3419 9.03231 26.8549 9.03231ZM78.3209 9.03231L112.37 9.03231C121.883 9.03231 126.764 4.18599 126.764-5.25771L126.764-65.0836C126.764-74.5273 121.917-79.3737 112.37-79.3737L78.3209-79.3737L78.3209-73.2993L112.245-73.2993C117.644-73.2993 120.724-70.3992 120.724-64.7858L120.724-5.55553C120.724 0.0924704 117.755 2.95796 112.245 2.95796L78.3209 2.95796ZM69.6158 23.5979C71.2711 23.5979 72.6357 22.2404 72.6357 20.5781L72.6357-90.9887C72.6357-92.6164 71.2711-94.0085 69.6158-94.0085C67.9535-94.0085 66.6236-92.6164 66.6236-90.9887L66.6236 20.5781C66.6236 22.2404 67.9535 23.5979 69.6158 23.5979ZM33.5207-29.4521C36.7192-29.4521 39.2323-32.0275 39.2323-35.2606C39.2323-38.4938 36.7192-41.0692 33.5207-41.0692C30.3429-41.0692 27.7052-38.4938 27.7052-35.2606C27.7052-32.0275 30.3429-29.4521 33.5207-29.4521ZM50.9593-29.4521C54.1648-29.4521 56.7056-32.0275 56.7056-35.2606C56.7056-38.4938 54.1648-41.0692 50.9593-41.0692C47.8231-41.0692 45.213-38.4938 45.213-35.2606C45.213-32.0275 47.8231-29.4521 50.9593-29.4521ZM104.416-12.9021C105.856-13.5044 106.583-15.1939 105.953-16.7171L99.3015-32.2633L108.272-32.2775C109.463-32.2845 110.066-33.5515 109.255-34.4794L87.7824-57.2457C86.9792-58.1665 85.5945-57.6681 85.5945-56.3594L85.6493-25.0086C85.6147-23.7276 87.0826-23.2914 87.9411-24.1153L94.1018-30.2897L100.539-14.4599C101.176-12.9644 102.9-12.2997 104.416-12.9021Z"/>
</svg>