<svg xmlns="http://www.w3.org/2000/svg" viewBox="12.4609 -80.6932 128.23 91.11">
  <path d="M45.7973-50.0395L51.837-50.0395L51.837-62.2683C51.837-70.0634 57.6249-74.6189 66.3972-74.6189L86.7532-74.6189C95.5602-74.6189 101.32-70.0634 101.32-62.2683L101.32-50.0395L107.36-50.0395L107.36-62.2683C107.36-73.7205 99.2173-80.6932 86.7532-80.6932L66.3972-80.6932C53.9401-80.6932 45.7973-73.7205 45.7973-62.2683ZM27.4854 10.4139L125.637 10.4139C134.86 10.4139 140.69 4.70876 140.69-4.38903L140.69-30.7186C140.69-44.5722 131.28-53.8569 117.33-53.8569L35.7862-53.8569C21.8703-53.8569 12.4609-44.5722 12.4609-30.7186L12.4609-4.38903C12.4609 4.70876 18.2284 10.4139 27.4854 10.4139ZM27.5547 4.37421C21.9825 4.37421 18.5006 0.885404 18.5006-4.63153L18.5006-30.4761C18.5006-40.8944 25.4165-47.7826 35.8555-47.7826L117.26-47.7826C127.699-47.7826 134.615-40.8944 134.615-30.4761L134.615-4.63153C134.615 0.885404 131.168 4.37421 125.568 4.37421ZM40.1397 7.80977L45.2095 7.80977L45.2095-51.0661L40.1397-51.0661ZM52.4526 7.80977L57.5223 7.80977L57.5223-51.0661L52.4526-51.0661ZM95.6628 7.80977L100.733 7.80977L100.733-51.0661L95.6628-51.0661ZM107.976 7.80977L113.045 7.80977L113.045-51.0661L107.976-51.0661ZM54.9665-22.9985L98.1147-22.9985L98.1147-28.0959L54.9665-28.0959Z"/>
</svg>