<svg xmlns="http://www.w3.org/2000/svg" viewBox="12.4609 -77.4585 131.03 84.4">
  <path d="M62.6142 6.93724L109.489 6.93724C115.133 6.93724 118.422 3.83493 118.422-1.75312L118.422-12.3144C118.422-12.5566 118.547-12.6812 118.789-12.6812L124.873-12.6812C125.116-12.6812 125.24-12.5566 125.24-12.3144L125.24-5.44253C125.24-0.80276 128.287 2.07102 133.28 2.07102L135.454 2.07102C140.447 2.07102 143.494-0.768117 143.494-5.44253L143.494-40.2024C143.494-44.8698 140.447-47.7159 135.454-47.7159L133.28-47.7159C128.287-47.7159 125.24-44.8351 125.24-40.2024L125.24-33.9541C125.24-33.6772 125.116-33.5526 124.873-33.5526L118.789-33.5526C118.547-33.5526 118.422-33.6772 118.422-33.9541L118.422-44.542C118.422-49.5282 115.271-52.5821 110.105-52.5821L105.392-52.5821L97.064-61.6507C95.3193-63.5547 93.5951-64.261 91.2966-64.261L54.4174-64.261C52.1188-64.261 50.3254-63.5201 48.6153-61.6507L40.322-52.5821L33.9478-52.5821C28.8163-52.5821 25.6654-49.5282 25.6654-44.542L25.6654-12.8511C25.6654-7.86491 28.7817-4.81094 33.9478-4.81094L48.5465-4.81094L56.8744 4.32691C58.6192 6.16166 60.2394 6.93724 62.6142 6.93724ZM15.4808-9.85893C17.1431-9.85893 18.5006-11.2581 18.5006-12.8511L18.5006-25.6282L28.4632-25.6282L28.4632-31.7026L18.5006-31.7026L18.5006-44.5073C18.5006-46.135 17.1085-47.4995 15.4808-47.4995C13.8254-47.4995 12.4609-46.1004 12.4609-44.5073L12.4609-12.8511C12.4609-11.2234 13.8601-9.85893 15.4808-9.85893ZM72.3211-60.6313L78.3954-60.6313L78.3954-71.3912L94.372-71.3912C95.9997-71.3912 97.3919-72.811 97.3919-74.4387C97.3919-76.094 95.9997-77.4585 94.372-77.4585L56.3375-77.4309C54.6475-77.4309 53.3176-76.0664 53.3176-74.411C53.3176-72.7487 54.6821-71.3912 56.3375-71.3912L72.3211-71.3912Z"/>
</svg>