<svg xmlns="http://www.w3.org/2000/svg" viewBox="11.2148 -86.511 103.08 102.36">
  <path d="M76.7583-42.7434L31.7687 2.19093C29.7961 4.19114 27.2422 4.87623 25.2006 2.65473C22.9998 0.336274 23.4566-1.86455 25.7267-4.107L70.5641-49.083L67.1844-52.4557L27.2271-12.4985C12.4604 2.24058 19.2524 0.322313 11.2148 11.6483L15.1408 15.8512C26.1207 7.84128 24.9294 15.3809 39.9177 0.454947L80.0894-39.4953ZM86.9233-33.9791L88.149-35.2671C90.3576-37.6903 90.4822-40.4596 88.0867-42.8828L86.5984-44.3641C93.8606-50.8994 102.147-51.9929 107.187-57.0952C114.29-64.2605 111.971-74.2711 107-79.3111C101.995-84.3511 92.0742-86.511 84.7496-79.498C79.6197-74.5204 78.5885-66.1715 72.0532-58.9093L70.5372-60.3976C68.1487-62.8001 65.3447-62.6478 62.9562-60.4599L61.6682-59.2689C58.7812-56.5825 59.3696-54.0487 61.7928-51.6256L79.3147-34.1037C81.7378-31.6806 84.2716-31.0922 86.9233-33.9791Z"/>
</svg>