<svg xmlns="http://www.w3.org/2000/svg" viewBox="11.9273 -86.145 89.12 101.76">
  <path d="M28.7861-65.4035C34.4907-65.4035 39.1568-70.0349 39.1568-75.8019C39.1568-81.5065 34.4907-86.145 28.7861-86.145C23.0814-86.145 18.4153-81.5065 18.4153-75.8019C18.4153-70.0349 23.0814-65.4035 28.7861-65.4035ZM45.173 14.959C47.4576 15.6167 50.2476 14.4259 51.0299 11.6013L58.1745-14.4571C59.0814-17.7525 57.7037-20.134 54.3876-21.0756L33.4868-26.9948L35.1137-45.3271C35.1761-45.8879 35.8337-46.1994 36.3045-45.8879L45.9553-38.9302C47.7068-37.6771 49.9014-37.6771 51.6253-38.9302L68.483-50.9625C70.6776-52.5271 71.176-55.5386 69.6391-57.7263C68.1091-59.9209 65.0699-60.3917 62.8753-58.8547L48.8353-48.7678L37.2461-57.1032C34.8022-58.8547 31.8599-60.1078 28.2253-60.1078C22.1122-60.1078 17.5084-56.2586 17.0999-50.7756L15.5007-28.1856C15.0299-21.4494 18.2907-16.4648 25.7815-15.371L47.5199-12.2348L41.7253 9.06748C40.943 11.8851 42.5422 14.239 45.173 14.959ZM88.6291-44.2739C95.4488-44.2739 101.05-49.9028 101.05-56.7294C101.05-63.556 95.4488-69.1156 88.6291-69.1156C81.7332-69.1156 76.2082-63.556 76.2082-56.7294C76.2082-49.9028 81.7332-44.2739 88.6291-44.2739ZM88.6291-48.713C84.0118-48.713 80.6127-52.1121 80.6127-56.7294C80.6127-61.2774 84.0118-64.6765 88.6291-64.6765C93.2117-64.6765 96.6108-61.2774 96.6108-56.7294C96.6108-52.1121 93.2117-48.713 88.6291-48.713ZM57.2053 15.0151L83.963 15.0151C86.3037 15.0151 86.844 12.1134 85.0087 10.9015L75.2548 4.37342C76.3207 2.78814 76.9161 1.13358 77.4075-0.811567L88.5743-45.1604L84.1421-46.2061L73.0307-1.82965C71.2238 5.46698 64.8065 10.4514 57.2053 10.4514C55.931 10.4514 54.9822 11.4971 54.9822 12.7298C54.9822 13.9694 55.931 15.0151 57.2053 15.0151ZM21.87-2.90898L31.3685-4.9167C32.4209-5.13825 33.0719-6.04542 33.0719-7.16019C33.0719-8.30959 32.2894-9.09215 31.2715-9.25141L15.2585-11.9791C12.835-12.3946 12.0871-10.414 12.8834-8.76615L13.7626-6.95233C15.3758-3.64992 17.9376-2.0574 21.87-2.90898ZM14.9676 15.0151L35.5222 15.0151C36.8865 15.0151 37.8353 13.997 37.8353 12.7298C37.8353 11.4694 36.8865 10.4514 35.5222 10.4514C32.241 10.4514 29.8044 9.14994 28.9391 5.1627L26.2528-7.01568L21.8483-6.06689L24.0499 4.0756L13.7003 10.9015C11.9273 12.1134 12.4193 15.0151 14.9676 15.0151Z"/>
</svg>