<svg xmlns="http://www.w3.org/2000/svg" viewBox="8.72266 -84.2128 97.94 97.9">
  <path d="M57.6748 13.6915C84.7158 13.6915 106.662-8.21963 106.662-35.2606C106.662-62.3017 84.7158-84.2128 57.6748-84.2128C30.6684-84.2128 8.72266-62.3017 8.72266-35.2606C8.72266-8.21963 30.6684 13.6915 57.6748 13.6915ZM57.6748 7.37462C34.097 7.37462 15.0465-11.6829 15.0465-35.2606C15.0465-58.8384 34.097-77.8959 57.6748-77.8959C81.2526-77.8959 100.31-58.8384 100.31-35.2606C100.31-11.6829 81.2526 7.37462 57.6748 7.37462ZM44.528-53.6472C47.7678-53.6472 50.4192-56.264 50.4192-59.5662C50.4192-62.7784 47.7678-65.4228 44.528-65.4228C41.2881-65.4228 38.6367-62.7784 38.6367-59.5662C38.6367-56.264 41.2881-53.6472 44.528-53.6472ZM53.8114-8.07512C55.1198-7.70129 56.712-8.38664 57.1481-10.0066L61.1979-24.7728C61.724-26.6419 60.9487-28.0126 59.0173-28.5111L47.2071-31.8755L48.1416-42.2527C48.1416-42.6266 48.5155-42.7788 48.7993-42.5919L54.2821-38.6391C55.2444-37.9537 56.4905-37.9537 57.4597-38.6391L67.0546-45.4926C68.273-46.3648 68.5499-48.0471 67.6776-49.2932C66.8054-50.5393 65.0955-50.8231 63.877-49.9785L55.902-44.2465L49.3254-48.9193C47.9547-49.9785 46.2725-50.6639 44.2164-50.6639C40.7274-50.6639 38.1106-48.4832 37.9237-45.368L36.9891-32.5609C36.7399-28.7603 38.5467-25.9219 42.8457-25.2712L55.1544-23.5267L51.8522-11.4396C51.4161-9.84731 52.316-8.47661 53.8114-8.07512ZM78.4563-41.5392C82.4164-41.5392 85.6565-44.807 85.6565-48.7324C85.6565-52.6579 82.4164-55.9256 78.4563-55.9256C74.5309-55.9256 71.2631-52.6579 71.2631-48.7324C71.2631-44.807 74.5309-41.5392 78.4563-41.5392ZM78.4563-44.3783C75.9021-44.3783 74.1092-46.1435 74.1092-48.7324C74.1092-51.252 75.9021-53.0519 78.4563-53.0519C81.0176-53.0519 82.8451-51.252 82.8451-48.7324C82.8451-46.1435 81.0176-44.3783 78.4563-44.3783ZM60.6372-7.90165L75.8119-7.90165C77.2661-7.90165 77.6609-9.77131 76.5528-10.5469L71.0566-14.1326C71.631-14.9979 71.9425-15.9255 72.2471-16.9707L78.6575-42.2732L75.8183-42.9864L69.4702-17.684C68.4457-13.5582 64.9153-10.8031 60.6372-10.8031C59.8616-10.8031 59.2176-10.0898 59.2176-9.34888C59.2176-8.60794 59.834-7.90165 60.6372-7.90165ZM40.672-18.0436L46.0302-19.1651C46.7296-19.2897 47.145-19.9337 47.145-20.626C47.145-21.3253 46.6326-21.9 45.9679-21.997L36.8715-23.52C35.3829-23.8108 34.8981-22.4952 35.3412-21.4567L35.8743-20.4598C36.8159-18.5214 38.3251-17.5728 40.672-18.0436ZM36.6776-7.90165L48.3632-7.90165C49.2011-7.90165 49.7828-8.58028 49.7828-9.34888C49.7828-10.1798 49.2011-10.8031 48.3632-10.8031C46.5773-10.8031 45.2622-11.5091 44.7361-13.7242L43.2268-20.7788L40.3877-20.1002L41.6684-14.3265L35.8743-10.5192C34.7316-9.77131 35.0504-7.90165 36.6776-7.90165Z" />
</svg>