<svg xmlns="http://www.w3.org/2000/svg" viewBox="8.72266 -84.2128 97.94 97.9">
  <path d="M57.6748 13.6915C84.6605 13.6915 106.662-8.30959 106.662-35.2606C106.662-62.2117 84.6605-84.2128 57.6748-84.2128C30.7237-84.2128 8.72266-62.2117 8.72266-35.2606C8.72266-8.30959 30.7237 13.6915 57.6748 13.6915ZM56.6784-49.9025C53.3623-49.9025 50.7039-52.5539 50.7039-55.8354C50.7039-59.1445 53.3623-61.803 56.6784-61.803C59.9529-61.803 62.6113-59.1445 62.6113-55.8354C62.6113-52.5539 59.9529-49.9025 56.6784-49.9025ZM31.112-45.4096L38.7336-58.7976C37.4599-59.8707 36.6499-61.4284 36.6499-63.2352C36.6499-66.5306 39.2393-69.113 42.5347-69.113C45.7332-69.113 48.3226-66.5306 48.3226-63.2352C48.3226-60.0367 45.7332-57.4473 42.5347-57.4473C42.0709-57.4473 41.6071-57.5096 41.178-57.5996L34.8788-46.5724C35.3009-46.3716 35.7231-46.0947 36.083-45.7278L42.8809-38.9299L82.7277-58.8671C84.1954-59.5871 85.8846-58.9917 86.5976-57.5864C87.3176-56.1811 86.7915-54.4019 85.2892-53.6819L66.8617-44.489C66.1487-44.1152 65.8995-43.5474 66.1487-42.5506L73.7985-11.9514C74.1723-10.4561 73.5769-9.1131 72.2962-8.30314L59.7174 0.0942972C58.3397 1.00121 56.5605 0.66202 55.7159-0.681021C54.8437-2.02406 55.2175-3.83788 56.4982-4.68248L67.6164-12.0484L64.5218-20.2313C64.3349-20.702 63.8711-20.7297 63.6219-20.2936L57.779-9.58387C57.1836-8.55235 56.1867-8.05392 55.0929-8.05392L42.2578-8.05392C40.6656-8.05392 39.4195-9.32767 39.4195-10.8923C39.4195-12.5815 40.6656-13.8276 42.2578-13.8276L53.2791-13.8276L58.0005-25.5341L55.0306-37.3376C54.906-37.8984 54.2829-38.2445 53.5906-37.8637L43.8155-32.9624C42.3825-32.2493 40.9771-32.6508 40.2295-33.4331L31.6105-42.0521C30.6966-42.966 30.4613-44.2328 31.112-45.4096ZM39.3851-63.2352C39.3851-61.477 40.7142-60.1549 42.5347-60.1549C44.293-60.1549 45.6151-61.477 45.6151-63.2352C45.6151-65.0557 44.293-66.3778 42.5347-66.3778C40.7142-66.3778 39.3851-65.0557 39.3851-63.2352Z"/>
</svg>