<svg xmlns="http://www.w3.org/2000/svg" viewBox="8.72266 -84.2128 97.94 97.9">
  <path d="M57.6748 13.6915C84.6605 13.6915 106.662-8.30959 106.662-35.2606C106.662-62.2117 84.6605-84.2128 57.6748-84.2128C30.7237-84.2128 8.72266-62.2117 8.72266-35.2606C8.72266-8.30959 30.7237 13.6915 57.6748 13.6915ZM25.9345-24.9517C25.1866-24.9517 24.4803-25.6026 24.4803-26.3782C24.4803-27.2161 25.1866-27.8324 25.9345-27.8324L28.6485-27.8324C34.1102-27.8324 35.986-32.4913 43.1443-32.4913C50.268-32.4913 52.2132-27.8324 57.6401-27.8324C63.1017-27.8324 65.0469-32.4913 72.1706-32.4913C79.3289-32.4913 81.2047-27.8324 86.6663-27.8324L89.3803-27.8324C90.1283-27.8324 90.8346-27.2161 90.8346-26.3782C90.8346-25.6026 90.1283-24.9517 89.3803-24.9517L86.6663-24.9517C79.2242-24.9517 77.4522-29.6106 72.1706-29.6106C66.8889-29.6106 65.1169-24.9517 57.6401-24.9517C50.1979-24.9517 48.3914-29.6106 43.1443-29.6106C37.8627-29.6106 36.0561-24.9517 28.6485-24.9517ZM26.7652-17.3851C25.9689-17.3851 25.2973-18.0568 25.2973-18.853C25.2973-19.6216 25.9689-20.2933 26.7652-20.2933C27.5338-20.2933 28.1708-19.6216 28.1708-18.853C28.1708-18.0568 27.5338-17.3851 26.7652-17.3851ZM32.0125-18.3543C31.2162-18.3543 30.5446-19.026 30.5446-19.7876C30.5446-20.5909 31.2162-21.2279 32.0125-21.2279C32.8087-21.2279 33.4457-20.5909 33.4457-19.7876C33.4457-19.026 32.8087-18.3543 32.0125-18.3543ZM36.9622-20.632C36.1659-20.632 35.4943-21.269 35.4943-22.0722C35.4943-22.8685 36.1659-23.5401 36.9622-23.5401C37.7931-23.5401 38.4301-22.8685 38.4301-22.0722C38.4301-21.269 37.7931-20.632 36.9622-20.632ZM42.2304-21.8504C41.3995-21.8504 40.7625-22.4874 40.7625-23.256C40.7625-24.0869 41.3995-24.7239 42.2304-24.7239C43.0267-24.7239 43.6637-24.0869 43.6637-23.256C43.6637-22.4874 43.0267-21.8504 42.2304-21.8504ZM47.464-20.632C46.6331-20.632 45.9961-21.269 45.9961-22.0722C45.9961-22.8685 46.6331-23.5401 47.464-23.5401C48.2603-23.5401 48.8973-22.8685 48.8973-22.0722C48.8973-21.269 48.2603-20.632 47.464-20.632ZM52.4068-18.3543C51.5759-18.3543 50.9389-19.026 50.9389-19.7876C50.9389-20.5909 51.5759-21.2279 52.4068-21.2279C53.2377-21.2279 53.8401-20.5909 53.8401-19.7876C53.8401-19.026 53.2377-18.3543 52.4068-18.3543ZM88.619-17.3851C87.8227-17.3851 87.1857-18.0568 87.1857-18.853C87.1857-19.6216 87.8227-20.2933 88.619-20.2933C89.4153-20.2933 90.0869-19.6216 90.0869-18.853C90.0869-18.0568 89.4153-17.3851 88.619-17.3851ZM83.3717-18.3543C82.5408-18.3543 81.9038-19.026 81.9038-19.7876C81.9038-20.5909 82.5408-21.2279 83.3717-21.2279C84.168-21.2279 84.805-20.5909 84.805-19.7876C84.805-19.026 84.168-18.3543 83.3717-18.3543ZM78.422-20.632C77.5911-20.632 76.9541-21.269 76.9541-22.0722C76.9541-22.8685 77.5911-23.5401 78.422-23.5401C79.2182-23.5401 79.8552-22.8685 79.8552-22.0722C79.8552-21.269 79.2182-20.632 78.422-20.632ZM73.1537-21.8504C72.3575-21.8504 71.6858-22.4874 71.6858-23.256C71.6858-24.0869 72.3575-24.7239 73.1537-24.7239C73.9846-24.7239 74.587-24.0869 74.587-23.256C74.587-22.4874 73.9846-21.8504 73.1537-21.8504ZM67.9201-20.632C67.1239-20.632 66.4522-21.269 66.4522-22.0722C66.4522-22.8685 67.1239-23.5401 67.9201-23.5401C68.751-23.5401 69.3534-22.8685 69.3534-22.0722C69.3534-21.269 68.751-20.632 67.9201-20.632ZM62.9774-18.3543C62.1811-18.3543 61.5095-19.026 61.5095-19.7876C61.5095-20.5909 62.1811-21.2279 62.9774-21.2279C63.7736-21.2279 64.4107-20.5909 64.4107-19.7876C64.4107-19.026 63.7736-18.3543 62.9774-18.3543ZM57.6748-17.3851C56.8785-17.3851 56.2415-18.0568 56.2415-18.853C56.2415-19.6216 56.8785-20.2933 57.6748-20.2933C58.5057-20.2933 59.1427-19.6216 59.1427-18.853C59.1427-18.0568 58.5057-17.3851 57.6748-17.3851ZM72.1367-39.0894C68.7929-39.0894 66.1068-41.7409 66.1068-45.1193C66.1068-48.4007 68.7929-51.0522 72.1367-51.0522C75.4458-51.0522 78.1319-48.4007 78.1319-45.1193C78.1319-41.7409 75.4458-39.0894 72.1367-39.0894ZM49.0136-35.3646L54.2343-38.8058C55.0789-39.3666 54.9197-40.2735 54.3589-40.8342L49.3952-45.8602L40.6516-39.7127C39.1217-38.6466 37.5294-39.055 36.6571-40.0242C35.5633-41.1804 35.3764-43.1465 37.2179-44.4549L47.9899-52.1046C49.4852-53.1638 51.299-53.0115 52.5451-51.7308L67.7275-35.96C63.6219-34.7625 62.0645-31.9445 57.6401-31.9445C53.8044-31.9445 52.0252-34.0285 49.0136-35.3646Z"/>
</svg>