<svg xmlns="http://www.w3.org/2000/svg" viewBox="11.5887 -91.4988 133.18 107.93">
  <path d="M67.6867-60.1631L73.0685-61.5408C72.2655-66.5531 70.7844-70.6515 67.0394-76.079C66.6723-76.5847 66.7416-77.0834 67.2056-77.2427C82.8785-83.6859 103.639-76.2714 108.767-59.9964L114.723-60.06C109.206-81.529 81.0838-91.4988 61.4705-80.671C59.4276-79.5699 59.1365-77.4231 60.7086-75.3246C65.5063-69.0523 66.7521-65.5842 67.6867-60.1631ZM90.1317-0.242018C112.216-0.242018 144.736-14.3379 144.764-33.315C144.736-52.2574 112.216-66.4086 90.1317-66.4086C74.2163-66.4086 58.4455-60.9118 45.6308-48.2293C37.2471-57.9972 27.6584-63.2794 16.2354-63.4663C14.1372-63.501 12.7794-62.4134 12.5855-60.3358C11.5887-50.3668 16.2199-39.7052 23.3433-33.315C16.2199-26.9801 11.5887-16.2355 12.5855-6.25948C12.7794-4.2166 14.1372-3.06667 16.2354-3.10131C27.6584-3.31589 37.2471-8.63273 45.6308-18.3729C58.4455-5.68347 74.2163-0.242018 90.1317-0.242018ZM90.1317-6.2887C74.3272-6.2887 59.6367-11.7232 47.501-25.1952C46.2958-26.5321 44.5711-26.4974 43.3659-25.029C35.9728-15.767 28.746-10.6441 19.6436-9.48745C19.0686-9.38352 18.5629-9.8892 18.6669-10.4988C19.0138-18.6736 23.5758-26.4397 29.7775-31.0154C31.6824-32.5671 31.717-34.0283 29.7499-35.6076C23.5758-40.2732 19.0138-47.9493 18.6669-56.0688C18.5629-56.7061 19.0686-57.2464 19.6436-57.1425C28.746-55.9859 35.9728-50.8559 43.3382-41.601C44.5088-40.0702 46.2681-40.0356 47.4734-41.4347C59.6644-54.8721 74.3272-60.3689 90.1317-60.3689C110.886-60.3689 138.828-47.3671 138.855-33.315C138.828-19.2628 110.886-6.2887 90.1317-6.2887ZM119.493-30.7183C121.958-30.7183 124.035-32.7679 124.035-35.2606C124.035-37.7534 121.958-39.8029 119.493-39.8029C117-39.8029 114.923-37.7534 114.923-35.2606C114.923-32.7679 117-30.7183 119.493-30.7183ZM75.7307-4.99244L73.723 11.1248C73.3282 14.3799 75.4613 16.4303 79.2221 15.8417C91.2407 13.9586 104.271 5.5805 111.257-4.27192L103.368-3.34381C97.2067 2.49808 89.7178 7.46152 81.3004 9.46251C80.5662 9.63572 80.0536 9.44881 80.1575 8.46511L81.4726-3.9193Z"/>
</svg>