<svg xmlns="http://www.w3.org/2000/svg" viewBox="12.4609 -86.29 105.58 102.06">
  <path d="M18.0906 11.5987L112.45 11.5987L112.45 6.378C112.45 4.93723 111.557 4.04376 110.054 4.04376L106.939 4.04376L106.939-54.6084L111.39-54.6084C113.474-54.6084 114.645-56.0769 114.645-57.6283C114.645-58.702 114.008-59.72 112.65-60.5512L70.7818-84.7045C69.0093-85.7499 67.1053-86.29 65.2705-86.29C63.4011-86.29 61.4694-85.7499 59.697-84.7045L17.8285-60.5512C16.464-59.72 15.8613-58.702 15.8613-57.6283C15.8613-56.0769 17.0043-54.6084 19.1167-54.6084L23.6024-54.6084L23.6024 4.04376L20.4872 4.04376C18.9841 4.04376 18.0906 4.93723 18.0906 6.378ZM15.4808 15.7687L115.026 15.7687C116.653 15.7687 118.045 14.3766 118.045 12.7142C118.045 11.0589 116.653 9.69437 115.026 9.69437L15.4808 9.69437C13.8254 9.69437 12.4609 11.0589 12.4609 12.7142C12.4609 14.3766 13.8254 15.7687 15.4808 15.7687ZM65.4435-3.46457C64.5363-3.46457 63.9546-4.10856 63.9546-4.9118L63.9546-9.4042C52.9608-10.2351 46.7921-19.1796 46.7921-31.1429C46.7921-42.8497 52.753-51.9053 63.9546-52.7086L63.9546-57.0073C63.9546-57.8452 64.5363-58.4892 65.4435-58.4892C66.2467-58.4892 66.8907-57.8452 66.8907-57.0073L66.8907-52.7362C73.0038-52.3138 79.1446-49.1083 81.3669-42.8435C81.6923-42.0749 81.7823-41.3409 81.7823-40.7109C81.7823-39.4643 80.9305-38.6541 79.6838-38.6541C78.3126-38.6541 77.7932-39.1734 77.3222-40.4131C76.2351-44.8778 72.0126-48.1239 66.8907-48.5393L66.8907-31.6351L80.1133-31.6351C81.5468-31.6351 82.5232-30.6586 82.5232-29.0935L82.5232-26.6985C82.5232-15.9679 76.5213-9.86127 66.8907-9.34189L66.8907-4.9118C66.8907-4.10856 66.2467-3.46457 65.4435-3.46457ZM51.7163-31.1775C51.7163-22.0332 55.8072-14.5429 63.9546-13.6358L63.9546-48.477C55.4957-47.6045 51.7163-39.7404 51.7163-31.1775ZM66.8907-13.5735C73.889-13.9889 77.8969-18.8828 77.8969-25.6528L77.8969-27.736L66.8907-27.736Z"/>
</svg>