<svg xmlns="http://www.w3.org/2000/svg" viewBox="24.153 -88.1175 75.21 102.52">
  <path d="M24.153-19.2411C24.153 2.46833 38.2062 14.4045 56.802 14.4045C72.1915 14.4045 82.5397 7.40645 88.6738-7.86824C91.9007-15.2476 94.5111-23.6039 97.1423-32.861C98.1121-35.9917 99.3592-39.691 99.3592-41.4919C99.3592-43.9774 97.4761-45.5975 94.9351-45.5975C92.3658-45.5975 90.635-44.0531 88.855-40.2719L82.3541-25.5825C81.5928-23.7415 80.6032-23.1461 79.6342-23.1461C78.437-23.1461 77.5166-23.8935 77.5166-25.9491L77.5166-75.3942C77.5166-78.0875 75.3357-80.2684 72.6424-80.2684C70.0114-80.2684 67.7958-78.0875 67.7958-75.3942L67.7958-40.321C66.3837-40.9231 64.847-41.3799 63.2134-41.7121L63.2134-83.2433C63.2134-85.902 60.9979-88.1175 58.3392-88.1175C55.6458-88.1175 53.4926-85.902 53.4926-83.2433L53.4926-42.2659C51.7-42.1413 49.9697-41.9267 48.2877-41.6222L48.2877-78.5782C48.2877-81.2439 46.1068-83.4248 43.4134-83.4248C40.7824-83.4248 38.5669-81.2439 38.5669-78.5782L38.5669-38.5274C36.8019-37.6691 35.2376-36.7208 33.8392-35.7725L33.8392-63.5832C33.8392-66.2419 31.6859-68.4298 29.0273-68.4298C26.3339-68.4298 24.153-66.2419 24.153-63.5832Z"/>
</svg>