<svg xmlns="http://www.w3.org/2000/svg" viewBox="12.4609 -86.29 105.58 102.06">
  <path d="M18.0906 5.95609L112.45 5.95609L112.45 3.25527C112.45 1.78683 111.557 0.921025 110.054 0.921025L106.939 0.921025L106.939-54.6084L111.39-54.6084C113.474-54.6084 114.645-56.0769 114.645-57.6283C114.645-58.702 114.008-59.72 112.65-60.5512L70.7818-84.7045C69.0093-85.7499 67.1053-86.29 65.2705-86.29C63.4011-86.29 61.4694-85.7499 59.697-84.7045L17.8285-60.5512C16.464-59.72 15.8613-58.702 15.8613-57.6283C15.8613-56.0769 17.0043-54.6084 19.1167-54.6084L23.6024-54.6084L23.6024 0.921025L20.4872 0.921025C18.9841 0.921025 18.0906 1.78683 18.0906 3.25527ZM29.3303 0.921025L29.3303-60.1202L62.8967-79.0595C63.6165-79.4817 64.4608-79.7239 65.2705-79.7239C66.0456-79.7239 66.8623-79.4817 67.582-79.0595L101.245-60.1202L101.245 0.921025ZM15.4808 15.7687L115.026 15.7687C116.653 15.7687 118.045 14.3766 118.045 12.7142C118.045 11.0589 116.653 9.69437 115.026 9.69437L15.4808 9.69437C13.8254 9.69437 12.4609 11.0589 12.4609 12.7142C12.4609 14.3766 13.8254 15.7687 15.4808 15.7687ZM65.0213-57.0833C60.7642-57.0833 55.7935-55.6785 52.9616-51.137C52.3522-50.1608 52.0684-49.2262 52.0684-48.2774C52.0684-47.1347 52.8509-46.3245 54.1182-46.3245C55.1293-46.3245 55.711-46.8093 56.1751-47.7511C57.7467-51.4749 61.2905-53.1082 65.1182-53.1082C69.825-53.1082 74.2137-50.9348 74.2137-46.3801C74.2137-44.3727 73.0578-41.7145 70.1851-40.8492L73.9456-39.8381C76.8874-41.0428 78.7498-43.853 78.7498-46.7056C78.7498-53.6636 71.9857-57.0833 65.0213-57.0833ZM48.1773-39.9834C48.1773-39.2078 48.759-38.5985 49.5346-38.5985L80.8542-38.5985C81.6644-38.5985 82.2738-39.2078 82.2738-39.9834C82.2738-40.8283 81.6644-41.403 80.8542-41.403L49.5346-41.403C48.759-41.403 48.1773-40.8283 48.1773-39.9834ZM48.1773-32.2574C48.1773-31.4471 48.759-30.8724 49.5346-30.8724L80.8542-30.8724C81.6644-30.8724 82.2738-31.4471 82.2738-32.2574C82.2738-33.0676 81.6644-33.6769 80.8542-33.6769L49.5346-33.6769C48.759-33.6769 48.1773-33.0676 48.1773-32.2574ZM65.2705-13.9806C70.9679-13.9806 76.1462-16.085 78.514-20.64C79.0264-21.5539 79.4419-22.6823 79.4419-23.5272C79.4419-24.6976 78.5624-25.5078 77.2951-25.5078C76.2563-25.5078 75.6123-24.9677 75.1759-23.9359C73.625-19.776 69.7836-17.9557 65.1806-17.9557C60.1484-17.9557 55.5174-20.496 55.5174-24.7462C55.5174-28.3598 57.9817-30.7341 61.623-31.724L56.9972-32.4306C53.3558-31.2328 50.919-28.0483 50.919-24.5176C50.919-17.5043 58.1954-13.9806 65.2705-13.9806Z"/>
</svg>