<svg xmlns="http://www.w3.org/2000/svg" viewBox="12.4609 -79.429 88.37 88.41">
  <path d="M26.8549 8.97699L86.4383 8.97699C95.9859 8.97699 100.832 4.07534 100.832-5.31303L100.832-65.139C100.832-74.5273 95.9859-79.429 86.4383-79.429L26.8549-79.429C17.3419-79.429 12.4609-74.5827 12.4609-65.139L12.4609-5.31303C12.4609 4.13066 17.3419 8.97699 26.8549 8.97699ZM26.9795 2.90264C21.4701 2.90264 18.5006 0.00250377 18.5006-5.61085L18.5006-64.8411C18.5006-70.4892 21.4701-73.3546 26.9795-73.3546L86.3137-73.3546C91.7125-73.3546 94.7926-70.4892 94.7926-64.8411L94.7926-5.61085C94.7926 0.00250377 91.7125 2.90264 86.3137 2.90264ZM32.6906-13.9168C34.3459-13.9168 35.7588-15.2673 35.7588-16.978L35.7588-33.1549L53.7832-33.1549L53.7832-16.978C53.7832-15.2673 55.1684-13.9168 56.879-13.9168C58.4997-13.9168 59.8779-15.2673 59.8779-16.978L59.8779-53.9658C59.8779-55.7597 58.3612-56.9993 56.879-56.9993C55.3416-56.9993 53.7832-55.7597 53.7832-53.9658L53.7832-38.3769L35.7588-38.3769L35.7588-53.9658C35.7588-55.5448 34.4845-56.9993 32.6906-56.9993C31.1531-56.9993 29.6987-55.7943 29.6987-53.9658L29.6987-16.978C29.6987-15.4059 30.9036-13.9168 32.6906-13.9168ZM68.3576-13.9796L81.8914-13.9796C83.1587-13.9796 84.0382-14.9491 84.0382-16.1264C84.0382-17.2967 83.131-18.2109 81.8914-18.2109L72.1044-18.1832L71.9312-17.2761L78.7974-24.4742C81.061-26.8208 82.7781-29.3613 82.7781-32.3109C82.7781-36.6655 79.3995-39.5801 74.3386-39.5801C70.358-39.5801 66.855-37.0879 66.1071-33.6405C66.0032-33.3496 65.9409-32.9618 65.9409-32.581C65.9409-31.376 66.7581-30.4965 68.0254-30.4965C69.1125-30.4965 69.7911-31.0712 70.2345-32.0684C70.6362-33.9507 72.1517-35.4111 74.4771-35.4111C76.8579-35.4111 78.3043-34.0823 78.3043-32.1653C78.3043-30.5593 77.0303-28.843 75.39-27.0088L66.9171-17.9337C66.4116-17.359 66.1138-16.805 66.1138-16.154C66.1138-14.8521 67.021-13.9796 68.3576-13.9796Z" />
</svg>