<svg xmlns="http://www.w3.org/2000/svg" viewBox="12.4609 -86.29 105.58 102.06">
  <path d="M18.0906 11.5987L112.45 11.5987L112.45 6.378C112.45 4.93723 111.557 4.04376 110.054 4.04376L106.939 4.04376L106.939-54.6084L111.39-54.6084C113.474-54.6084 114.645-56.0769 114.645-57.6283C114.645-58.702 114.008-59.72 112.65-60.5512L70.7818-84.7045C69.0093-85.7499 67.1053-86.29 65.2705-86.29C63.4011-86.29 61.4694-85.7499 59.697-84.7045L17.8285-60.5512C16.464-59.72 15.8613-58.702 15.8613-57.6283C15.8613-56.0769 17.0043-54.6084 19.1167-54.6084L23.6024-54.6084L23.6024 4.04376L20.4872 4.04376C18.9841 4.04376 18.0906 4.93723 18.0906 6.378ZM15.4808 15.7687L115.026 15.7687C116.653 15.7687 118.045 14.3766 118.045 12.7142C118.045 11.0589 116.653 9.69437 115.026 9.69437L15.4808 9.69437C13.8254 9.69437 12.4609 11.0589 12.4609 12.7142C12.4609 14.3766 13.8254 15.7687 15.4808 15.7687ZM54.3941-8.44197C52.8843-8.44197 51.9771-9.41842 51.9771-10.8936L51.9771-29.6266L48.3567-29.6266C47.5188-29.6266 46.9025-30.2429 46.9025-31.0462C46.9025-31.9533 47.5188-32.5004 48.3567-32.5004L51.9771-32.5004L51.9771-50.8663C51.9771-52.3415 52.8843-53.2833 54.3941-53.2833C55.8346-53.2833 56.7764-52.3415 56.7764-50.8663L56.7764-32.5004L60.2029-32.5004L76.0624-52.0783C76.6095-52.6876 77.2744-53.2833 78.1123-53.2833C79.3242-53.2833 80.3077-52.3968 80.3077-51.1295C80.3077-50.6378 80.0791-50.0837 79.6567-49.5644L65.4662-32.5004L79.9819-32.5004C80.8268-32.5004 81.5054-31.9257 81.5054-31.0808C81.5054-30.3052 80.8268-29.6266 79.9819-29.6266L65.397-29.6266L79.629-12.2578C80.1068-11.6831 80.3423-11.1637 80.3423-10.5058C80.3423-9.59862 79.6014-8.44197 78.1123-8.44197C77.1911-8.44197 76.6095-8.90602 75.9931-9.65394L60.1683-29.6266L56.7764-29.6266L56.7764-10.8936C56.7764-9.41842 55.8346-8.44197 54.3941-8.44197Z"/>
</svg>