<svg xmlns="http://www.w3.org/2000/svg" viewBox="8.72266 -89.1028 118.59 107.65">
  <path d="M62.5648-89.1028C32.8917-89.1028 8.72266-64.989 8.72266-35.2606C8.72266-5.5599 32.8641 18.5469 62.5648 18.5469C86.297 18.5469 106.498 3.109 113.588-18.2344C111.427-18.0679 109.363-18.7188 107.77-19.9864C101.373-1.03286 83.5333 12.4725 62.5648 12.4725C36.0571 12.4725 14.7624-8.81527 14.7624-35.2606C14.7624-61.7337 36.1194-83.0284 62.5648-83.0284C83.5956-83.0284 101.408-69.4884 107.77-50.5002C109.363-51.8231 111.49-52.3841 113.588-52.2523C106.54-73.5956 86.3316-89.1028 62.5648-89.1028ZM114.612-45.8814C112.375-47.5711 109.494-46.5324 109.494-43.7346L109.494-26.752C109.494-23.885 112.41-22.9502 114.577-24.5706L125.655-32.8995C127.254-34.1112 127.316-36.4101 125.655-37.6218ZM62.5648 3.00944C83.7282 3.00944 100.8-14.0972 100.8-35.2606C100.8-56.4587 83.7282-73.5654 62.5648-73.5654C41.4014-73.5654 24.2601-56.4587 24.2601-35.2606C24.2601-14.0972 41.4014 3.00944 62.5648 3.00944ZM62.5648-3.03027C44.6844-3.03027 30.2998-17.3802 30.2998-35.2606C30.2998-53.141 44.6844-67.5257 62.5648-67.5257C80.4452-67.5257 94.7605-53.141 94.7605-35.2606C94.7605-17.3802 80.4452-3.03027 62.5648-3.03027ZM54.8744-16.5899L73.35-16.5899C74.7628-16.5899 75.9471-17.601 75.9471-19.0555C75.9471-20.51 74.7352-21.5557 73.35-21.5557L57.818-21.5557L57.818-51.244C57.818-53.1418 56.6684-54.4301 54.8744-54.4301C53.1152-54.4301 52.0694-53.1072 52.0694-51.244L52.0694-19.7067C52.0694-17.9058 53.1428-16.5899 54.8744-16.5899Z"/>
</svg>