<svg xmlns="http://www.w3.org/2000/svg" viewBox="12.4609 -76.7851 109.98 83.05">
  <path d="M51.4324 6.26377L83.441 6.26377C110.774 6.26377 122.44-6.44691 122.44-31.8693L122.44-62.9172C122.44-71.9734 117.614-76.7851 108.434-76.7851L26.4674-76.7851C17.2519-76.7851 12.4609-72.0287 12.4609-62.9172L12.4609-31.8693C12.4609-6.44691 24.1274 6.26377 51.4324 6.26377ZM52.573-15.5517C50.7931-15.5517 49.782-16.6944 49.782-18.502L49.782-52.587C49.782-54.1038 51.0632-55.3781 52.6007-55.3781C54.1175-55.3781 55.4264-54.1038 55.4264-52.587L55.4264-20.358L66.8263-20.358C68.1352-20.358 69.2156-19.2776 69.2156-17.9686C69.2156-16.6597 68.1352-15.5517 66.8263-15.5517ZM81.4147-15.1155C79.8356-15.1155 78.5613-16.3898 78.5613-17.9689L78.5613-49.3118L73.5157-45.2144C73.0932-44.8543 72.7331-44.695 72.0822-44.695C70.8495-44.695 70.06-45.5675 70.06-46.7795C70.06-47.7976 70.531-48.5248 71.2512-49.0442L77.1485-53.7646C78.0903-54.5056 79.3715-55.392 81.0059-55.392C82.9591-55.392 84.268-54.187 84.268-52.2339L84.268-17.9689C84.268-16.3898 82.9245-15.1155 81.4147-15.1155Z"/>
</svg>