<svg xmlns="http://www.w3.org/2000/svg" viewBox="8.72266 -84.1504 97.94 97.9">
  <path d="M57.6817-15.2503C46.621-15.2503 37.6437-24.1999 37.6437-35.2606C37.6437-46.3214 46.621-55.271 57.6817-55.271C68.7771-55.271 77.6921-46.3214 77.6921-35.2606C77.6921-24.1999 68.7771-15.2503 57.6817-15.2503ZM23.9891-61.1907C26.1633-64.1615 28.7946-66.8274 31.7307-69.0362L42.5836-58.1834C39.4606-56.1684 36.7877-53.4955 34.7451-50.4002ZM91.3674-61.0178L80.5768-50.2619C78.5688-53.3572 75.8613-56.0301 72.7729-58.045L83.6258-68.8979C86.5619-66.6891 89.1932-64.0232 91.3674-61.0178ZM91.4227-9.51048C89.2485-6.53975 86.6172-3.87383 83.6811-1.66498L72.8282-12.5179C75.9512-14.5328 78.6241-17.2057 80.6321-20.3011ZM24.0445-9.37217L34.8004-20.1628C36.843-17.0674 39.5159-14.3945 42.6389-12.3796L31.786-1.52667C28.8499-3.73552 26.2187-6.40144 24.0445-9.37217ZM57.6748 13.7538C84.6605 13.7538 106.662-8.24729 106.662-35.1983C106.662-62.1494 84.6605-84.1504 57.6748-84.1504C30.7237-84.1504 8.72266-62.1494 8.72266-35.1983C8.72266-8.24729 30.7237 13.7538 57.6748 13.7538Z"/>
</svg>