<svg xmlns="http://www.w3.org/2000/svg" viewBox="12.1631 -74.5726 112.71 78.59">
  <path d="M121.983-68.6785C123.576-68.7061 124.871-69.946 124.871-71.5944C124.871-73.0975 123.548-74.5173 121.983-74.5173L32.9339-74.5726C31.3062-74.5726 30.0179-73.1251 30.0179-71.6221C30.0179-69.9737 31.3132-68.7338 32.9339-68.7061L42.4538-68.7061C43.6242-49.7151 57.9618-36.1947 77.4585-36.1947C96.9552-36.1947 111.293-49.7151 112.525-68.6785ZM13.2921-29.8756C14.5873-28.6703 16.2773-28.608 17.5032-29.8409L40.8396-53.1979C39.9461-55.0958 39.2259-57.1599 38.7065-59.3625L13.3544-34.0451C12.1631-32.7568 12.1908-31.0669 13.2921-29.8756ZM24.197-18.9637C25.4645-17.7378 27.1822-17.6685 28.3805-18.9637L50.0896-40.6452C48.6352-41.9611 47.3053-43.4295 46.0864-44.9603L24.2316-23.1402C23.075-21.9073 23.0334-20.162 24.197-18.9637ZM35.0812-8.11413C36.3141-6.91586 38.0594-6.8882 39.2577-8.11413L64.0276-32.884C61.9635-33.4796 59.9687-34.3038 58.1471-35.2666L35.0812-12.263C33.8899-11.0301 33.9176-9.34705 35.0812-8.11413ZM46.0137 2.79075C47.219 3.98903 48.909 4.01669 50.1972 2.76309L84.2456-31.3199C81.0386-30.7726 79.3628-30.8212 75.6361-30.8212L45.9861-1.35809C44.7948-0.152834 44.8224 1.53716 46.0137 2.79075Z"/>
</svg>