<svg xmlns="http://www.w3.org/2000/svg" viewBox="12.4609 -92.9488 64.01 111.76">
  <path d="M12.4609-63.4777C12.4609-45.581 23.5514-40.5834 26.5353-7.20338C26.6946-5.55553 27.5601-4.59304 29.4086-4.59304L59.5232-4.59304C61.3717-4.59304 62.2649-5.55553 62.4241-7.20338C65.408-40.5834 76.4709-45.581 76.4709-63.4777C76.4709-79.6849 62.3618-92.9488 44.4659-92.9488C26.5976-92.9488 12.4609-79.6849 12.4609-63.4777ZM18.1889-63.4777C18.1889-76.9143 30.1852-87.2209 44.4659-87.2209C58.7466-87.2209 70.743-76.9143 70.743-63.4777C70.743-49.2588 61.0726-45.1273 57.1119-10.2863L31.8475-10.2863C27.8593-45.1273 18.1889-49.2588 18.1889-63.4777ZM29.4497 5.14176L59.4751 5.14176C60.8877 5.14176 61.9748 4.02001 61.9748 2.61441C61.9748 1.20182 60.8877 0.114717 59.4751 0.114717L29.4497 0.114717C28.0441 0.114717 26.9223 1.20182 26.9223 2.61441C26.9223 4.02001 28.0441 5.14176 29.4497 5.14176ZM44.4659 18.8149C51.9841 18.8149 57.9452 15.2703 58.326 9.81487L30.5988 9.81487C30.945 15.2703 36.9131 18.8149 44.4659 18.8149Z"/>
</svg>