<svg xmlns="http://www.w3.org/2000/svg" viewBox="10.7578 -77.6382 85.21 85.16">
  <path d="M59.9126-64.7941L83.091-41.5811C84.5524-40.1196 86.4779-40.9024 87.0113-42.9942L95.4157-74.106C95.9697-76.0452 94.2797-77.6382 92.3751-77.1118L61.3603-68.7074C59.2686-68.1464 58.4581-66.2832 59.9126-64.7941ZM25.4731-2.97879L85.5348-62.8882C86.6984-64.0519 86.6708-66.005 85.5348-67.141C84.3435-68.3323 82.4457-68.3323 81.282-67.141L21.2203-7.23156C20.029-6.06793 20.0567-4.11476 21.2203-2.97879C22.384-1.7875 24.2818-1.7875 25.4731-2.97879ZM46.8426-5.32569L23.6365-28.5387C22.1751-30.0002 20.2772-29.2174 19.7162-27.1256L11.3118 3.98615C10.7578 5.92536 12.4754 7.51841 14.3523 6.99205L45.4018-1.41237C47.5212-1.97337 48.304-3.83657 46.8426-5.32569Z" />
</svg>