<svg xmlns="http://www.w3.org/2000/svg" viewBox="-1.44723 -84.2128 108.11 97.9">
  <path d="M2.19541-44.2333C-0.65097-44.2333-1.44723-42.2734 0.200876-39.9743L10.8485-24.7922C12.1781-22.8878 14.131-22.8878 15.426-24.7922L26.0736-39.9813C27.6871-42.2734 26.8908-44.2333 24.0791-44.2333ZM106.662-35.2606C106.662-62.3017 84.7158-84.2128 57.6748-84.2128C30.6684-84.2128 8.7573-62.3363 8.72266-35.1983C8.7573-33.446 10.1841-32.0746 11.8811-32.0746C13.585-32.0746 15.0465-33.4807 15.0465-35.233C15.0465-58.8384 34.097-77.8959 57.6748-77.8959C81.2526-77.8959 100.31-58.8384 100.31-35.2606C100.31-11.6829 81.2526 7.37462 57.6748 7.37462C42.8478 7.37462 29.8344-0.20457 22.3165-11.6598C21.1805-13.1906 19.3866-13.6546 17.8282-12.7472C16.3598-11.8467 15.8957-9.71337 17.1356-8.05803C25.8934 5.06654 40.7214 13.6915 57.6748 13.6915C84.7158 13.6915 106.662-8.21963 106.662-35.2606ZM43.0329-14.5747L71.9288-14.5747C73.0992-14.5747 73.9164-15.4266 73.9164-16.5623C73.9164-17.6703 73.0992-18.5221 71.9288-18.5221L48.538-18.5221L48.538-18.8197C52.0751-19.8585 54.2346-23.8105 54.5117-27.9084C54.5464-28.4552 54.491-28.9743 54.4634-29.5281L66.8615-29.5281C67.7686-29.5281 68.4473-30.2344 68.4473-31.1069C68.4473-32.0141 67.7686-32.6581 66.8615-32.6581L54.1518-32.6581C53.785-34.7901 53.1066-36.6107 52.6152-38.5558L66.8615-38.5558C67.7686-38.5558 68.4473-39.2621 68.4473-40.1346C68.4473-41.0141 67.7686-41.6581 66.8615-41.6581L52.0751-41.6581C51.9851-42.3432 51.9298-43.056 51.9298-43.8034C51.9298-49.8327 56.6233-52.92 62.7357-52.92C64.7845-52.92 66.8822-52.5532 68.1562-52.2416C68.8345-52.0271 69.5959-51.8541 70.0943-51.8541C71.3203-51.8541 71.8327-52.609 71.8327-53.5162C71.8327-54.6519 71.1817-55.2129 70.1153-55.663C67.6714-56.7222 64.7915-56.9228 62.2716-56.9228C53.2716-56.9228 47.1928-52.1527 47.1928-43.6511C47.1928-42.966 47.2205-42.3432 47.3105-41.6581L42.7969-41.6581C41.8897-41.6581 41.1488-41.0141 41.1488-40.1346C41.1488-39.2621 41.8897-38.5558 42.7969-38.5558L47.8159-38.5558C48.342-36.4861 49.0203-34.6379 49.4841-32.6581L42.7969-32.6581C41.8897-32.6581 41.1488-32.0141 41.1488-31.1069C41.1488-30.2344 41.8897-29.5281 42.7969-29.5281L49.8926-29.5281C49.9203-28.9467 49.8787-28.192 49.8094-27.5413C49.3937-23.1042 46.4516-20.0175 42.832-18.9722C41.6963-18.6051 40.983-17.9265 40.983-16.6592C40.983-15.295 41.8765-14.5747 43.0329-14.5747Z" />
</svg>