<svg xmlns="http://www.w3.org/2000/svg" viewBox="12.4609 -79.429 114.3 88.41">
  <path d="M34.3739-53.8528C32.4975-53.8528 30.9673-55.4799 30.9673-57.3286C30.9673-59.2743 32.4628-60.8392 34.3739-60.8392L40.4037-60.8392C42.3147-60.8392 43.9696-59.2743 43.9696-57.3286C43.9696-55.4523 42.377-53.8528 40.4037-53.8528ZM34.3739-37.3208C32.4628-37.3208 30.9673-38.8857 30.9673-40.7967C30.9673-42.6801 32.4628-44.2449 34.3739-44.2449L40.4037-44.2449C42.3494-44.2449 43.9696-42.6801 43.9696-40.7967C43.9696-38.8857 42.3147-37.3208 40.4037-37.3208ZM53.6899-54.8284C52.284-54.8284 51.252-55.9158 51.252-57.3286C51.252-58.7761 52.3117-59.8358 53.6899-59.8358L105.778-59.8358C107.191-59.8358 108.25-58.7761 108.25-57.3286C108.25-55.9158 107.218-54.8284 105.778-54.8284ZM53.6899-38.2342C52.284-38.2342 51.252-39.3562 51.252-40.7967C51.252-42.2442 52.3186-43.3315 53.6899-43.3315L105.778-43.3315C107.218-43.3315 108.25-42.2095 108.25-40.7967C108.25-39.3215 107.218-38.2342 105.778-38.2342ZM26.8549 8.97699L112.37 8.97699C121.917 8.97699 126.764 4.07534 126.764-5.31303L126.764-65.139C126.764-74.5273 121.917-79.429 112.37-79.429L26.8549-79.429C17.3419-79.429 12.4609-74.5827 12.4609-65.139L12.4609-5.31303C12.4609 4.13066 17.3419 8.97699 26.8549 8.97699Z" />
</svg>