<svg xmlns="http://www.w3.org/2000/svg" viewBox="12.4609 -76.7851 109.98 83.05">
  <path d="M51.4324-76.7851C24.1274-76.7851 12.4609-64.0744 12.4609-38.652L12.4609-7.60408C12.4609 1.50741 17.2519 6.26377 26.4674 6.26377L108.434 6.26377C117.614 6.26377 122.44 1.45208 122.44-7.60408L122.44-38.652C122.44-64.0744 110.774-76.7851 83.441-76.7851ZM50.745-15.5517C49.0273-15.5517 47.9886-16.6944 47.9886-18.502L47.9886-52.587C47.9886-54.1038 49.2628-55.3781 50.8073-55.3781C52.2894-55.3781 53.5983-54.1038 53.5983-52.587L53.5983-20.358L65.0329-20.358C66.3072-20.358 67.4152-19.2776 67.4152-18.0033C67.4152-16.6597 66.3072-15.5517 65.0329-15.5517ZM78.3403-15.0463C76.7612-15.0463 75.4799-16.2929 75.4799-17.872L75.4799-50.101L68.5794-50.101C67.2428-50.101 66.2247-51.1191 66.2247-52.4903C66.2247-53.7993 67.2428-54.845 68.5794-54.845L87.527-54.845C88.8359-54.845 89.8817-53.7993 89.8817-52.4903C89.8817-51.1191 88.8359-50.101 87.527-50.101L81.0967-50.101L81.0967-17.872C81.0967-16.2929 79.8777-15.0463 78.3403-15.0463Z"/>
</svg>