<svg xmlns="http://www.w3.org/2000/svg" viewBox="12.4609 -72.2986 135.22 90.07">
  <path d="M48.0124 12.7618C45.9703 10.062 45.2226 8.36608 45.2226 5.29945C45.2226-1.94858 52.1659-6.66175 52.1659-15.9731C52.1659-24.2185 45.9214-26.5372 45.9214-36.4025L45.9214-38.3061C45.9214-39.5111 44.9103-40.5222 43.7053-40.5222C42.4934-40.5222 41.5169-39.5111 41.5169-38.3061L41.5169-36.4025C41.5169-24.2314 47.7613-22.5427 47.7613-15.9731C47.7613-7.58288 40.8181-3.54136 40.8181 5.54195C40.8181 9.61915 42.0779 12.4161 44.4597 15.3657C46.2534 17.748 49.9169 15.3103 48.0124 12.7618ZM34.9964-39.0124C34.1794-37.7246 34.8994-36.0975 36.5473-36.0975L50.8218-36.0975C52.4696-36.0975 53.2589-37.69 52.3727-39.0124L45.4431-49.486C44.9377-50.2406 44.46-50.4968 43.6707-50.4968C42.9437-50.4968 42.376-50.1783 41.9329-49.486ZM71.805 12.7618C69.7283 10.062 68.9806 8.36608 68.9806 5.29945C68.9806-1.94858 75.9238-6.66175 75.9238-15.9731C75.9238-24.2185 69.7071-26.5372 69.7071-36.4025L69.7071-38.3061C69.7071-39.5111 68.7306-40.5222 67.5256-40.5222C66.286-40.5222 65.3026-39.5111 65.3026-38.3061L65.3026-36.4025C65.3026-24.2314 71.547-22.5427 71.547-15.9731C71.547-7.58288 64.6454-3.54136 64.6454 5.54195C64.6454 9.61915 65.9328 12.4161 68.2523 15.3657C70.136 17.7756 73.6956 15.3103 71.805 12.7618ZM58.7544-39.0124C57.9028-37.7246 58.6921-36.0975 60.4022-36.0975L74.5798-36.0975C76.2899-36.0975 77.0445-37.7246 76.2276-39.0124L69.2565-49.486C68.7857-50.1783 68.2733-50.4968 67.491-50.4968C66.7087-50.4968 66.1963-50.1783 65.6909-49.486ZM95.5907 12.7618C93.5486 10.062 92.8009 8.36608 92.8009 5.29945C92.8009-1.94858 99.7441-6.66175 99.7441-15.9731C99.7441-24.2185 93.4651-26.5372 93.4651-36.4025L93.4651-38.3061C93.4651-39.5111 92.4886-40.5222 91.2766-40.5222C90.037-40.5222 89.0605-39.5111 89.0605-38.3061L89.0605-36.4025C89.0605-24.2314 95.3396-22.5427 95.3396-15.9731C95.3396-7.58288 88.3964-3.54136 88.3964 5.54195C88.3964 9.61915 89.7185 12.4161 92.038 15.3657C93.8939 17.7756 97.4882 15.3103 95.5907 12.7618ZM82.6093-39.0124C81.7577-37.7246 82.5123-36.0975 84.1532-36.0975L98.4347-36.0975C100.11-36.0975 100.865-37.7246 100.013-39.0124L93.0767-49.486C92.599-50.1783 92.0313-50.4968 91.2766-50.4968C90.522-50.4968 90.0442-50.2406 89.5388-49.486ZM12.4609-32.5813C12.4609-12.5667 24.2024-1.83637 44.7358-1.83637L119.238-1.83637C126.936-1.83637 133.47-1.06105 140.336 0.606957C144.54 1.715 147.677 0.0113113 147.677-4.24093L147.677-28.5105C147.677-31.2806 145.724-33.2682 142.982-33.2682L129.436-33.2682C125.02-33.2682 122.839-35.2407 123.268-39.3317L124.895-54.4357C126.024-65.5066 119.626-72.2986 107.461-72.2986C91.1458-72.264 63.1359-71.7446 47.683-69.8478C24.7215-66.9267 12.4609-54.1736 12.4609-32.5813ZM18.5006-32.5813C18.5006-50.7104 28.6211-61.4064 48.1333-63.8011C63.503-65.6356 91.1528-66.2242 107.461-66.2242C115.859-66.2242 119.693-62.3691 118.89-55.1283L114.923-20.0169C113.941-11.226 109.974-7.91071 100.408-7.91071L44.6319-7.91071C28.0534-7.91071 18.5006-16.487 18.5006-32.5813Z"/>
</svg>