<svg xmlns="http://www.w3.org/2000/svg" viewBox="12.4609 -79.429 88.37 88.41">
  <path d="M26.8549 8.97699L86.4383 8.97699C95.9859 8.97699 100.832 4.07534 100.832-5.31303L100.832-65.139C100.832-74.5273 95.9859-79.429 86.4383-79.429L26.8549-79.429C17.3419-79.429 12.4609-74.5827 12.4609-65.139L12.4609-5.31303C12.4609 4.13066 17.3419 8.97699 26.8549 8.97699ZM41.6206-12.5879C39.799-12.5879 38.7116-13.7862 38.7116-15.6771L38.7116-54.9352C38.7116-57.165 39.9096-58.5016 41.9872-58.5016C43.4067-58.5016 44.3485-57.9546 45.4219-56.4034L68.3759-22.6798L68.7014-22.6798L68.7014-55.3848C68.7014-57.2757 69.7888-58.5016 71.5757-58.5016C73.4319-58.5016 74.5539-57.3449 74.5539-55.3848L74.5539-16.016C74.5539-13.8276 73.2936-12.5879 71.2714-12.5879C69.8172-12.5879 68.9723-13.052 67.8782-14.6585L44.855-48.0356L44.5642-48.0356L44.5642-15.6771C44.5642-13.7169 43.4698-12.5879 41.6206-12.5879Z"/>
</svg>