<svg xmlns="http://www.w3.org/2000/svg" viewBox="12.4609 -83.106 92.95 94.65">
  <path d="M12.4609-12.4308C12.4609-4.75901 16.269-1.02021 23.8369-1.02021L94.0395-1.02021C101.607-1.02021 105.415-4.75901 105.415-12.4308L105.415-71.6885C105.415-79.4295 101.573-83.106 93.9702-83.106L23.8715-83.106C16.3037-83.106 12.4609-79.4295 12.4609-71.6885ZM18.5006-20.9588L18.5006-71.5639C18.5006-75.4123 20.2516-77.094 24.0238-77.094L93.8179-77.094C97.6247-77.094 99.3757-75.4123 99.3757-71.5639L99.3757-20.9588C99.3757-17.1173 97.6247-15.4633 93.8179-15.4633L24.0238-15.4633C20.2516-15.4633 18.5006-17.1173 18.5006-20.9588ZM86.5218-5.43118C84.8326-5.43118 83.3234-6.91279 83.3234-8.66431C83.3234-10.3882 84.8326-11.8974 86.5218-11.8974C88.3426-11.8974 89.8173-10.3882 89.8173-8.66431C89.8173-6.91279 88.3426-5.43118 86.5218-5.43118ZM58.9209 4.64978C72.8148 4.64978 83.2481 1.71422 86.9026-3.23551L30.9391-3.23551C34.6006 1.71422 45.0269 4.64978 58.9209 4.64978ZM36.2753 11.5457L81.6011 11.5457C85.0087 11.5457 85.2719 7.69495 82.9656 6.64921L71.252 0.910717L46.6243 0.910717L34.8831 6.64921C32.6045 7.69495 32.8676 11.5457 36.2753 11.5457ZM30.7121-29.4596L53.5779-29.4596C54.4641-29.4596 55.1358-30.062 55.1358-31.0798C55.1358-31.98 54.4641-32.5823 53.5779-32.5823L30.7121-32.5823C29.7289-32.5823 29.0573-31.98 29.0573-31.0798C29.0573-30.062 29.7289-29.4596 30.7121-29.4596ZM30.7121-37.6838L62.799-37.6838C63.7199-37.6838 64.3569-38.2862 64.3569-39.304C64.3569-40.2042 63.7199-40.8065 62.799-40.8065L30.7121-40.8065C29.7289-40.8065 29.0573-40.2042 29.0573-39.304C29.0573-38.2862 29.7289-37.6838 30.7121-37.6838ZM31.2728-57.4621C32.4706-57.4621 33.4538-58.4452 33.4538-59.643C33.4538-60.8754 32.4706-61.8655 31.2728-61.8655C30.0404-61.8655 29.0573-60.8754 29.0573-59.643C29.0573-58.4452 30.0404-57.4621 31.2728-57.4621ZM31.2728-48.6771C32.4706-48.6771 33.4538-49.6603 33.4538-50.8927C33.4538-52.0904 32.4706-53.0806 31.2728-53.0806C30.0404-53.0806 29.0573-52.0904 29.0573-50.8927C29.0573-49.6603 30.0404-48.6771 31.2728-48.6771ZM37.2192-55.5032C37.2192-52.5539 38.7701-49.6186 40.2861-48.3449C40.6599-48.0334 41.0477-47.8741 41.4908-47.8741C42.1901-47.8741 42.7648-48.4142 42.7648-49.1481C42.7648-49.6952 42.474-49.9584 42.1485-50.3115C40.7225-51.8552 40.0164-53.5444 40.0164-55.5032C40.0164-57.469 40.7571-59.089 42.1485-60.6326C42.474-61.055 42.7648-61.3112 42.7648-61.8583C42.7648-62.5922 42.1901-63.1393 41.4908-63.1393C41.0823-63.1393 40.6599-62.9454 40.2861-62.6339C38.4583-61.1453 37.2192-58.4178 37.2192-55.5032Z"/>
</svg>