<svg xmlns="http://www.w3.org/2000/svg" viewBox="8.72266 -84.1504 97.94 97.9">
  <path d="M57.6748 13.7538C84.6605 13.7538 106.662-8.24729 106.662-35.1983C106.662-62.1494 84.6605-84.1504 57.6748-84.1504C30.7237-84.1504 8.72266-62.1494 8.72266-35.1983C8.72266-8.24729 30.7237 13.7538 57.6748 13.7538ZM41.0611-13.7234L34.6083-10.9822C33.7425-10.6568 32.7867-11.4809 33.2162-12.4714L36.1512-18.7233L70.3681-52.9332L75.368-47.9333ZM77.9786-50.5439L73.0063-55.5161L76.1433-58.6461C77.6182-60.0587 79.1694-60.2179 80.485-58.8953L81.3025-58.0779C82.6458-56.7346 82.6388-55.1764 81.1086-53.6462Z"/>
</svg>