<svg xmlns="http://www.w3.org/2000/svg" viewBox="12.4609 -87.8138 102.01 105.04">
  <path d="M26.8549 17.2232L100.074 17.2232C109.587 17.2232 114.468 12.3562 114.468 2.96782L114.468-47.6505C114.468-57.0319 109.587-61.9058 100.074-61.9058L26.8549-61.9058C17.3073-61.9058 12.4609-57.1218 12.4609-47.6505L12.4609 2.96782C12.4609 12.4115 17.3073 17.2232 26.8549 17.2232ZM26.9795 11.1835C21.4701 11.1835 18.5006 8.28335 18.5006 2.63535L18.5006-47.3457C18.5006-52.966 21.4701-55.8938 26.9795-55.8938L99.9494-55.8938C105.348-55.8938 108.428-52.966 108.428-47.3457L108.428 2.63535C108.428 8.28335 105.348 11.1835 99.9494 11.1835ZM22.9279-70.2746L104.043-70.2746C103.551-73.6685 101.854-75.6907 98.1829-75.6907L28.8153-75.6907C25.0819-75.6907 23.4129-73.6685 22.9279-70.2746ZM32.6203-82.8133L94.3433-82.8133C94.1354-85.9718 92.2931-87.8138 88.8369-87.8138L38.1266-87.8138C34.705-87.8138 32.8281-85.9718 32.6203-82.8133ZM32.8281 14.307L94.1008 14.307C92.0369 2.0534 79.0714-7.81011 63.4818-7.81011C47.8575-7.81011 34.9266 2.0534 32.8281 14.307ZM63.4818-15.1137C71.8445-15.0444 78.4628-22.1681 78.4628-31.5348C78.4628-40.3683 71.8445-47.6373 63.4818-47.6373C55.0843-47.6373 48.4314-40.3683 48.4661-31.5348C48.5007-22.1681 55.0843-15.183 63.4818-15.1137Z"/>
</svg>