<svg xmlns="http://www.w3.org/2000/svg" viewBox="8.72266 -83.3958 115.5 96.21">
  <path d="M66.5016-63.2148C75.2936-63.2148 83.3378-60.1895 89.7622-55.1152C90.7591-54.3398 92.0328-54.4298 92.9674-55.3644L103.768-66.1025C104.889-67.224 104.855-68.8439 103.671-69.8408C93.6049-78.3075 80.6037-83.3958 66.5016-83.3958C52.3719-83.3958 39.336-78.3075 29.3047-69.8408C28.1209-68.8439 28.1139-67.224 29.2354-66.1025L40.0012-55.3644C40.9357-54.4298 42.2718-54.3675 43.331-55.2051C49.7277-60.1895 57.772-63.2148 66.5016-63.2148ZM8.72266-25.6515C8.72266-11.4871 13.8456 1.54179 22.34 11.6077C23.3369 12.7915 24.9844 12.8192 26.0783 11.6977L37.0243 0.696402C37.8549-0.12726 37.9172-1.26244 37.1489-2.21072C31.9566-8.82225 28.9383-16.8942 28.9383-25.6515C28.9383-34.4088 31.929-42.4531 36.9756-48.8151C37.7856-49.8743 37.7579-51.2104 36.8234-52.145L26.0506-62.9177C24.9568-64.0116 23.3092-64.0392 22.3123-62.8554C13.8179-52.7825 8.72266-39.8089 8.72266-25.6515ZM124.218-25.6515C124.218-39.8089 119.158-52.7825 110.656-62.8554C109.659-64.0392 108.012-64.0116 106.918-62.9177L96.1522-52.145C95.2176-51.2104 95.1899-49.8743 95.9999-48.8151C101.047-42.4531 104.037-34.4088 104.037-25.6515C104.037-16.8942 101.019-8.82225 95.7921-2.21072C95.0584-1.26244 95.1207-0.12726 95.9167 0.696402L106.89 11.6977C107.984 12.8192 109.632 12.7915 110.629 11.6077C119.13 1.54179 124.218-11.4871 124.218-25.6515ZM55.2658-6.52422C62.9371-6.52422 66.793-11.3912 66.793-17.85C66.793-24.4406 62.8468-26.9881 57.6409-29.0302L54.9409-30.0894C51.1408-31.5844 48.6696-33.3494 48.6696-37.454C48.6696-41.2261 50.9466-43.9533 54.9683-43.9533C58.7541-43.9533 61.0731-41.6211 61.8693-37.8071C62.1325-36.6437 62.8874-36.1313 63.9885-36.1313C65.1865-36.1313 65.9137-36.9416 65.9137-38.1742C65.9137-38.5757 65.8514-39.0811 65.7545-39.4619C64.6397-44.5226 60.6103-47.8868 55.0306-47.8868C48.1763-47.8868 44.1681-43.1927 44.1681-37.1561C44.1681-31.2718 47.5811-28.1633 53.0986-26.0936L55.854-25.069C59.7163-23.6086 62.3192-21.5528 62.3192-17.3929C62.3192-13.7105 60.0209-10.4577 55.3628-10.4577C51.2238-10.4577 48.5935-12.9421 47.8249-17.0328C47.5548-18.1408 46.8692-18.7155 45.7681-18.7155C44.5355-18.7155 43.7183-17.8014 43.7183-16.5617C43.7183-15.994 43.8152-15.35 43.9745-14.8239C45.4077-9.61127 49.4785-6.52422 55.2658-6.52422ZM70.8423 2.8419C72.0749 2.8419 72.6636 2.13561 72.8921 0.854349L80.8733-44.5076C80.9356-44.8191 81.0326-45.2692 81.0326-45.8509C81.0326-46.9866 80.25-47.8038 79.0797-47.8038C77.8193-47.8038 77.2237-47.0628 76.9952-45.7539L69.0486-0.426648C68.9863-0.115125 68.8893 0.369612 68.8893 0.951297C68.8893 2.05934 69.6373 2.8419 70.8423 2.8419ZM87.2703-6.91201C89.0014-6.91201 90.2893-8.16535 90.2893-9.86878C90.2893-11.5376 89.0014-12.8255 87.2703-12.8255C85.6015-12.8255 84.3135-11.5376 84.3135-9.86878C84.3135-8.16535 85.6015-6.91201 87.2703-6.91201Z"/>
</svg>