<svg xmlns="http://www.w3.org/2000/svg" viewBox="8.72266 -84.2128 97.94 97.9">
  <path d="M57.6748 13.6915C84.7158 13.6915 106.662-8.21963 106.662-35.2606C106.662-62.3017 84.7158-84.2128 57.6748-84.2128C30.6684-84.2128 8.72266-62.3017 8.72266-35.2606C8.72266-8.21963 30.6684 13.6915 57.6748 13.6915ZM57.6748 7.37462C34.097 7.37462 15.0465-11.6829 15.0465-35.2606C15.0465-58.8384 34.097-77.8959 57.6748-77.8959C81.2526-77.8959 100.31-58.8384 100.31-35.2606C100.31-11.6829 81.2526 7.37462 57.6748 7.37462ZM46.4736-16.7564C54.1102-16.7564 57.9938-21.6234 57.9938-28.0822C57.9938-34.6728 54.0823-37.2203 48.8764-39.2624L46.1487-40.3215C42.3486-41.8166 39.8773-43.5815 39.8773-47.6862C39.8773-51.4583 42.1821-54.1925 46.1414-54.1925C49.9549-54.1925 52.2462-51.8533 53.0702-48.0393C53.368-46.8759 54.0606-46.3635 55.1963-46.3635C56.3943-46.3635 57.1145-47.2084 57.1145-48.3787C57.1145-48.7802 57.0522-49.2857 56.9553-49.7011C55.8752-54.7618 51.7835-58.0913 46.2037-58.0913C39.4117-58.0913 35.4035-53.4249 35.4035-47.423C35.4035-41.5387 38.7889-38.3955 44.2718-36.3258L47.0271-35.3012C50.9172-33.8132 53.4923-31.792 53.4923-27.6597C53.4923-23.9496 51.2217-20.6899 46.5706-20.6899C42.3969-20.6899 39.7667-23.1467 39.0327-27.265C38.7626-28.373 38.1046-28.9477 36.9413-28.9477C35.7433-28.9477 34.9261-28.0336 34.9261-26.7939C34.9261-26.2262 34.9884-25.5892 35.1476-25.0631C36.6155-19.8435 40.6863-16.7564 46.4736-16.7564ZM62.0154-7.39029C63.2757-7.39029 63.8714-8.06892 64.0999-9.37784L72.0465-54.7398C72.1088-55.0513 72.2057-55.536 72.2057-56.0831C72.2057-57.2188 71.4578-58.0083 70.2528-58.0083C69.0202-58.0083 68.4315-57.295 68.203-55.9861L60.2218-10.6588C60.1594-10.3473 60.0971-9.86258 60.0971-9.31554C60.0971-8.14519 60.8451-7.39029 62.0154-7.39029ZM78.5057-17.1442C80.2092-17.1442 81.4971-18.4045 81.4971-20.101C81.4971-21.7698 80.2092-23.0577 78.5057-23.0577C76.7746-23.0577 75.5213-21.7698 75.5213-20.101C75.5213-18.4045 76.7746-17.1442 78.5057-17.1442Z" />
</svg>