<svg xmlns="http://www.w3.org/2000/svg" viewBox="12.4609 -79.3737 114.3 88.41">
  <path d="M32.8087-23.506L60.54-23.506C63.2051-23.506 64.922-25.2229 64.922-27.9573L64.922-42.3841C64.922-45.1185 63.2051-46.8354 60.54-46.8354L32.8087-46.8354C30.1436-46.8354 28.4267-45.1185 28.4267-42.3841L28.4267-27.9573C28.4267-25.2229 30.1436-23.506 32.8087-23.506ZM78.0887-23.506L105.785-23.506C108.45-23.506 110.167-25.2229 110.167-27.9573L110.167-42.3841C110.167-45.1185 108.45-46.8354 105.785-46.8354L78.0887-46.8354C75.3889-46.8354 73.7067-45.1185 73.7067-42.3841L73.7067-27.9573C73.7067-25.2229 75.3889-23.506 78.0887-23.506ZM26.8549 9.03231L112.37 9.03231C121.917 9.03231 126.764 4.13066 126.764-5.25771L126.764-65.0836C126.764-74.472 121.917-79.3737 112.37-79.3737L26.8549-79.3737C17.3419-79.3737 12.4609-74.5273 12.4609-65.0836L12.4609-5.25771C12.4609 4.18599 17.3419 9.03231 26.8549 9.03231ZM26.9795 2.95796C21.4701 2.95796 18.5006 0.0924704 18.5006-5.55553L18.5006-64.7858C18.5006-70.3992 21.4701-73.2993 26.9795-73.2993L112.245-73.2993C117.644-73.2993 120.724-70.3992 120.724-64.7858L120.724-5.55553C120.724 0.0924704 117.644 2.95796 112.245 2.95796Z"/>
</svg>