<svg xmlns="http://www.w3.org/2000/svg" viewBox="12.4609 -71.6412 120.31 72.76">
  <path d="M12.4609-4.73135C12.4609-0.722123 14.8497 1.11988 17.5849 1.11988C18.776 1.11988 20.0363 0.766731 21.179 0.115761L72.4281-30.0668C75.3507-31.8052 76.604-33.1348 76.604-35.2606C76.604-37.3865 75.3507-38.7161 72.4281-40.4544L21.179-70.6371C20.0363-71.288 18.776-71.6412 17.5849-71.6412C14.8497-71.6412 12.4609-69.7992 12.4609-65.7899ZM18.5006-7.25355L18.5006-63.2677C18.5006-63.9875 18.9228-64.4166 19.5042-64.4166C19.7465-64.4166 19.9817-64.3543 20.217-64.209L67.918-36.0566C68.3126-35.8144 68.4648-35.5375 68.4648-35.2606C68.4648-34.9838 68.3126-34.7069 67.918-34.4646L20.217-6.31226C19.9817-6.16697 19.7465-6.10466 19.5042-6.10466C18.9228-6.10466 18.5006-6.53381 18.5006-7.25355ZM97.4911 1.11988C99.285 1.11988 100.65-0.272289 100.65-2.0039L100.65-68.5174C100.65-70.249 99.285-71.6412 97.4911-71.6412C95.6902-71.6412 94.298-70.249 94.298-68.5174L94.298-2.0039C94.298-0.272289 95.6902 1.11988 97.4911 1.11988ZM129.578 1.11988C131.345 1.11988 132.771-0.272289 132.771-2.0039L132.771-68.5174C132.771-70.249 131.345-71.6412 129.578-71.6412C127.812-71.6412 126.385-70.249 126.385-68.5174L126.385-2.0039C126.385-0.272289 127.812 1.11988 129.578 1.11988Z"/>
</svg>