<svg xmlns="http://www.w3.org/2000/svg" viewBox="12.4609 -79.3737 88.37 88.41">
  <path d="M12.4609-53.7662L18.5006-53.7662L18.5006-64.7858C18.5006-70.3992 21.4701-73.2993 26.9795-73.2993L37.9299-73.2993L37.9299-79.3737L26.8549-79.3737C17.3419-79.3737 12.4609-74.5273 12.4609-65.0836ZM43.6151-73.2993L69.7127-73.2993L69.7127-79.3737L43.6151-79.3737ZM94.7926-53.7662L100.832-53.7662L100.832-65.0836C100.832-74.472 95.9513-79.3737 86.4383-79.3737L75.398-79.3737L75.398-73.2993L86.3137-73.2993C91.7125-73.2993 94.7926-70.3992 94.7926-64.7858ZM94.7926-22.2328L100.832-22.2328L100.832-48.0809L94.7926-48.0809ZM75.398 9.03231L86.4383 9.03231C95.9513 9.03231 100.832 4.13066 100.832-5.25771L100.832-16.5752L94.7926-16.5752L94.7926-5.55553C94.7926 0.0924704 91.7125 2.95796 86.3137 2.95796L75.398 2.95796ZM43.6151 9.03231L69.7127 9.03231L69.7127 2.95796L43.6151 2.95796ZM26.8549 9.03231L37.9299 9.03231L37.9299 2.95796L26.9795 2.95796C21.4701 2.95796 18.5006 0.0924704 18.5006-5.55553L18.5006-16.5752L12.4609-16.5752L12.4609-5.25771C12.4609 4.18599 17.3419 9.03231 26.8549 9.03231ZM12.4609-22.2328L18.5006-22.2328L18.5006-48.0809L12.4609-48.0809ZM59.8154-16.3001L59.8154-54.3111C59.8154-56.209 58.4648-57.5042 56.6016-57.5042C54.8284-57.5042 53.5125-56.1813 53.5125-54.3111L53.5125-16.3001C53.5125-14.4646 54.8284-13.1417 56.6016-13.1417C58.4648-13.1417 59.8154-14.4369 59.8154-16.3001ZM37.6757-32.1715L75.6521-32.1715C77.4877-32.1715 78.8105-33.4874 78.8105-35.2606C78.8105-37.1238 77.5153-38.4744 75.6521-38.4744L37.6757-38.4744C35.7779-38.4744 34.4827-37.1238 34.4827-35.2606C34.4827-33.4874 35.8056-32.1715 37.6757-32.1715Z" />
</svg>