<svg xmlns="http://www.w3.org/2000/svg" viewBox="8.72266 -87.8119 105.1 102.85">
  <path d="M61.274-66.1198C63.0609-66.1198 64.5846-67.6089 64.5846-69.4305L64.5846-84.5289C64.5846-86.2882 63.0609-87.8119 61.274-87.8119C59.48-87.8119 57.9909-86.2882 57.9909-84.5289L57.9909-69.4305C57.9909-67.6089 59.48-66.1198 61.274-66.1198ZM83.0857-57.0448C84.3187-55.7842 86.5004-55.7842 87.7609-57.0448L98.4357-67.7265C99.6617-69.0148 99.6617-71.1342 98.4357-72.4224C97.1752-73.6553 95.0281-73.6553 93.7675-72.4224L83.0857-61.7476C81.7975-60.4871 81.7975-58.3054 83.0857-57.0448ZM92.0985-35.2606C92.0985-33.5014 93.6499-31.9499 95.4092-31.9499L110.508-31.9499C112.301-31.9499 113.818-33.5014 113.818-35.2606C113.818-37.0199 112.301-38.5713 110.508-38.5713L95.4092-38.5713C93.6499-38.5713 92.0985-37.0199 92.0985-35.2606ZM39.4552-13.4765C38.2569-14.7371 36.0475-14.7371 34.8146-13.4765L24.1398-2.79475C22.8793-1.50651 22.8793 0.612894 24.1398 1.90113C25.3658 3.13405 27.5128 3.13405 28.7734 1.90113L39.4552-8.77365C40.7434-10.0342 40.7434-12.2159 39.4552-13.4765ZM30.4425-35.2606C30.4425-37.0199 28.891-38.5713 27.1318-38.5713L12.0334-38.5713C10.2464-38.5713 8.72266-37.0199 8.72266-35.2606C8.72266-33.5014 10.2464-31.9499 12.0334-31.9499L27.1318-31.9499C28.891-31.9499 30.4425-33.5014 30.4425-35.2606ZM39.4552-57.0448C40.7434-58.3054 40.7434-60.4871 39.4552-61.7476L28.7734-72.4224C27.5128-73.6553 25.3658-73.6553 24.1398-72.4224C22.8793-71.1342 22.8793-69.0148 24.1398-67.7265L34.8146-57.0448C36.0475-55.7842 38.2569-55.7842 39.4552-57.0448ZM81.7652 14.2369C83.6279 13.4407 84.5557 11.3218 83.7248 9.40379L75.8817-8.84372L86.9572-8.94119C88.5083-8.94817 89.3116-10.5753 88.2382-11.7664L61.5441-40.0374C60.45-41.1245 58.7399-40.4945 58.7052-38.888L58.7045 0.183742C58.6698 1.82487 60.5741 2.39259 61.6682 1.34013L69.2621-6.37143L76.8628 12.2566C77.6037 14.1123 79.8195 15.0402 81.7652 14.2369Z" />
</svg>