<svg xmlns="http://www.w3.org/2000/svg" viewBox="12.4609 -79.429 88.37 88.41">
  <path d="M38.4702-12.6365L75.4386-12.6365C77.9103-12.6365 79.6345-14.3883 79.6345-16.8601L79.6345-53.5919C79.6345-56.0637 77.9103-57.8155 75.4386-57.8155L38.4702-57.8155C36.0331-57.8155 34.2466-56.0637 34.2466-53.5919L34.2466-16.8601C34.2466-14.3883 36.0331-12.6365 38.4702-12.6365ZM41.8403-37.8909C41.134-38.5695 41.1617-39.4627 41.8403-40.176L48.6111-46.9398C49.3174-47.6531 50.1969-47.6324 50.9032-46.9744L52.4334-45.4926C53.209-44.7793 53.119-43.8238 52.4057-43.1105L45.6073-36.4367C44.901-35.6611 44.0215-35.6611 43.3568-36.4367ZM70.5589-36.4367C69.8873-35.6611 69.0078-35.6888 68.3015-36.4367L61.4754-43.1105C60.7344-43.8514 60.7621-44.7793 61.4754-45.4926L63.0402-47.0298C63.7119-47.743 64.619-47.6531 65.3323-46.9675L72.0685-40.176C72.8094-39.4351 72.8371-38.5695 72.0961-37.8909ZM55.8811-20.3889C54.9463-20.3889 54.2676-21.0329 54.2676-21.9608L54.2676-30.8631C54.2676-31.8049 54.9739-32.5389 55.8811-32.5389L58-32.5389C58.9348-32.5389 59.6758-31.8049 59.6758-30.8631L59.6758-21.9608C59.6758-20.9983 58.9625-20.3889 58-20.3889ZM26.8549 8.97699L86.4383 8.97699C95.9859 8.97699 100.832 4.07534 100.832-5.31303L100.832-65.139C100.832-74.5273 95.9859-79.429 86.4383-79.429L26.8549-79.429C17.3419-79.429 12.4609-74.5827 12.4609-65.139L12.4609-5.31303C12.4609 4.13066 17.3419 8.97699 26.8549 8.97699ZM26.9795 2.90264C21.4701 2.90264 18.5006 0.00250377 18.5006-5.61085L18.5006-64.8411C18.5006-70.4892 21.4701-73.3546 26.9795-73.3546L86.3137-73.3546C91.7125-73.3546 94.7926-70.4892 94.7926-64.8411L94.7926-5.61085C94.7926 0.00250377 91.7125 2.90264 86.3137 2.90264Z" />
</svg>