<svg xmlns="http://www.w3.org/2000/svg" viewBox="12.4609 -85.8673 107.54 102.83">
  <path d="M40.3101 16.9665L92.174 16.9665C98.6808 16.9665 101.851 14.0314 101.851 7.31675L101.851-0.453266L106.488-0.453266C115.398-0.453266 119.996-4.89138 119.996-13.8227L119.996-55.2524C119.996-64.1561 115.398-68.6218 106.488-68.6218L25.9966-68.6218C17.4047-68.6218 12.4609-64.1561 12.4609-55.2524L12.4609-13.8227C12.4609-4.89138 17.0929-0.453266 25.9966-0.453266L30.605-0.453266L30.605 7.31675C30.605 14.0314 33.7756 16.9665 40.3101 16.9665ZM41.9106 11.3009C38.2365 11.3009 36.7001 9.74376 36.7001 6.02799L36.7001-30.717C36.7001-34.3982 38.2641-35.9553 41.9383-35.9553L90.5804-35.9553C94.2269-35.9553 95.7564-34.3982 95.7564-30.717L95.7564 6.02799C95.7564 9.74376 94.2546 11.3009 90.6081 11.3009ZM31.5681-73.9682L100.916-73.9682L100.916-75.4831C100.916-82.6482 96.1103-85.8673 88.4533-85.8673L44.0032-85.8673C36.6163-85.8673 31.5681-82.6482 31.5681-75.4831ZM48.1238-18.1796L84.4019-18.1796C85.8078-18.1796 86.8259-19.26 86.8259-20.6105C86.8259-21.9541 85.8078-22.9721 84.4019-22.9721L48.1238-22.9721C46.711-22.9721 45.6652-21.9541 45.6652-20.6105C45.6652-19.26 46.711-18.1796 48.1238-18.1796ZM48.1238-1.06672L84.4019-1.06672C85.8078-1.06672 86.8259-2.11246 86.8259-3.42836C86.8259-4.80657 85.8078-5.85929 84.4019-5.85929L48.1238-5.85929C46.711-5.85929 45.6652-4.80657 45.6652-3.42836C45.6652-2.11246 46.711-1.06672 48.1238-1.06672ZM89.3961-53.4456C89.3961-56.658 92.1585-59.4204 95.4886-59.4204C98.6733-59.4204 101.436-56.658 101.436-53.4456C101.436-50.1432 98.6733-47.4225 95.4886-47.4431C92.1585-47.4638 89.3961-50.0256 89.3961-53.4456Z"/>
</svg>