<svg xmlns="http://www.w3.org/2000/svg" viewBox="8.72266 -84.2128 97.94 97.9">
  <path d="M57.6748 13.6915C84.7158 13.6915 106.662-8.21963 106.662-35.2606C106.662-62.3017 84.7158-84.2128 57.6748-84.2128C30.6684-84.2128 8.72266-62.3017 8.72266-35.2606C8.72266-8.21963 30.6684 13.6915 57.6748 13.6915ZM57.6748 7.37462C34.097 7.37462 15.0465-11.6829 15.0465-35.2606C15.0465-58.8384 34.097-77.8959 57.6748-77.8959C81.2526-77.8959 100.31-58.8384 100.31-35.2606C100.31-11.6829 81.2526 7.37462 57.6748 7.37462ZM56.7609-25.2916C58.6241-25.2916 59.7807-26.5106 59.7807-28.055C59.7807-28.4009 59.7807-28.7468 59.7807-29.0927C59.7807-31.9585 61.2623-33.7237 64.8688-36.1533C69.7283-39.3929 72.609-42.2589 72.609-47.6249C72.609-54.9228 66.052-59.2842 58.0765-59.2842C50.004-59.2842 44.7769-55.117 43.6965-50.403C43.4957-49.6691 43.3917-49.0181 43.3917-48.2288C43.3917-46.4905 44.6939-45.5417 46.0305-45.5417C47.4017-45.5417 48.2743-46.1857 48.8355-47.2451L49.4244-48.1869C50.5746-51.523 53.6681-54.1035 57.8133-54.1035C62.866-54.1035 66.0706-51.2934 66.0706-47.2994C66.0706-43.9696 64.1736-42.1423 59.6949-39.0274C55.9708-36.4108 53.7134-33.8494 53.7134-29.4182C53.7134-29.0516 53.7134-28.6711 53.7134-28.3322C53.7134-26.372 54.8284-25.2916 56.7609-25.2916ZM56.6639-11.362C59.1013-11.362 61.1719-13.377 61.1719-15.766C61.1719-18.245 59.136-20.17 56.6639-20.17C54.1849-20.17 52.1214-18.2104 52.1214-15.766C52.1214-13.4116 54.2196-11.362 56.6639-11.362Z" />
</svg>