<svg xmlns="http://www.w3.org/2000/svg" viewBox="12.4609 -87.8138 105.16 115.64">
  <path d="M32.6203-82.8133L94.3433-82.8133C94.1354-85.9718 92.2931-87.8138 88.8369-87.8138L38.1266-87.8138C34.705-87.8138 32.8281-85.9718 32.6203-82.8133ZM33.4985-70.2746L104.043-70.2746C103.551-73.6685 101.854-75.6907 98.1829-75.6907L32.2284-75.6907C30.8579-75.6907 29.4528-75.6907 28.0824-75.6907ZM111.39 9.37378C113.403 7.85107 114.468 5.31856 114.468 1.88691L114.468-47.6505C114.468-57.0319 109.587-61.9058 100.074-61.9058L40.1106-61.9058ZM12.4609-47.6505L12.4609 2.96782C12.4609 12.4115 17.3073 17.2232 26.8549 17.2232L94.9596 17.2232L18.0329-59.6618C14.3575-57.4046 12.4609-53.4378 12.4609-47.6505ZM112.358 26.6369C113.487 27.7935 115.343 27.8212 116.465 26.6369C117.614 25.4526 117.621 23.624 116.465 22.495L18.8186-75.1442C17.6896-76.2455 15.8611-76.3008 14.6768-75.1442C13.5548-74.0222 13.5548-72.1313 14.6768-71.0093Z"/>
</svg>