<svg xmlns="http://www.w3.org/2000/svg" viewBox="8.72266 -82.0321 133.7 93.54">
  <path d="M75.5596 11.5108C101.417 11.5108 122.331-9.43108 122.331-35.2606C122.331-61.0902 101.417-82.0321 75.5596-82.0321C49.7647-82.0321 28.7882-61.0902 28.7882-35.2606C28.7882-9.43108 49.7647 11.5108 75.5596 11.5108ZM75.5596 5.19395C53.2556 5.19395 35.105-12.9289 35.105-35.2606C35.105-57.5923 53.2556-75.7152 75.5596-75.7152C97.8913-75.7152 116.042-57.5923 116.042-35.2606C116.042-12.9289 97.8913 5.19395 75.5596 5.19395ZM8.72266-35.2606C8.72266-20.0924 13.7624-6.17029 22.2428 5.05903C23.4341 6.62442 25.3735 6.79065 26.835 5.59238C28.2272 4.46339 28.3934 2.63483 27.306 1.14571C19.6221-8.95463 15.0811-21.6162 15.0811-35.2606C15.0811-48.9398 19.6221-61.5667 27.306-71.7293C28.3934-73.1561 28.2341-74.9847 26.835-76.1483C25.4012-77.3189 23.4064-77.118 22.2428-75.5803C13.7624-64.358 8.72266-50.4289 8.72266-35.2606ZM142.424-35.2606C142.424-50.4289 137.385-64.358 128.904-75.5803C127.74-77.118 125.746-77.3189 124.312-76.1483C122.913-74.9847 122.753-73.1561 123.841-71.7293C131.525-61.5667 136.038-48.9398 136.038-35.2606C136.038-21.6162 131.525-8.95463 123.841 1.14571C122.753 2.63483 122.92 4.46339 124.312 5.59238C125.773 6.79065 127.713 6.62442 128.904 5.05903C137.385-6.17029 142.424-20.0924 142.424-35.2606ZM43.9021-35.2606C43.9021-26.6344 49.4888-20.8468 57.665-20.8468C62.1646-20.8468 65.8546-22.9026 70.015-26.7931L75.6219-32.0748L81.2634-26.7931C85.6452-22.619 89.2521-20.8468 93.6135-20.8468C101.79-20.8468 107.432-26.6344 107.432-35.2606C107.432-43.8522 101.79-49.7298 93.6135-49.7298C89.2452-49.7298 85.6382-47.8953 81.2634-43.7281L75.6219-38.4465L70.015-43.7281C65.8892-47.6187 62.1993-49.7022 57.665-49.7298C49.4888-49.7298 43.9021-43.8522 43.9021-35.2606ZM48.5838-35.2606C48.5838-41.1098 52.2106-45.1105 57.665-45.1105C60.5998-45.0828 63.0917-43.7953 66.7392-40.4107L72.3115-35.2606L66.7392-30.1382C63.3476-26.9819 60.7657-25.4662 57.665-25.4662C52.2106-25.4662 48.5838-29.4115 48.5838-35.2606ZM78.9393-35.2606L84.5392-40.4107C88.1591-43.7953 90.6787-45.0828 93.6135-45.1105C99.0055-45.1105 102.75-41.1098 102.75-35.2606C102.75-29.4392 99.0678-25.4662 93.6135-25.4662C90.4851-25.4662 87.9308-26.9819 84.5392-30.1382Z"/>
</svg>