<svg xmlns="http://www.w3.org/2000/svg" viewBox="12.4609 -86.29 105.58 102.06">
  <path d="M18.0906 5.95609L112.45 5.95609L112.45 3.25527C112.45 1.78683 111.557 0.921025 110.054 0.921025L106.939 0.921025L106.939-54.6084L111.39-54.6084C113.474-54.6084 114.645-56.0769 114.645-57.6283C114.645-58.702 114.008-59.72 112.65-60.5512L70.7818-84.7045C69.0093-85.7499 67.1053-86.29 65.2705-86.29C63.4011-86.29 61.4694-85.7499 59.697-84.7045L17.8285-60.5512C16.464-59.72 15.8613-58.702 15.8613-57.6283C15.8613-56.0769 17.0043-54.6084 19.1167-54.6084L23.6024-54.6084L23.6024 0.921025L20.4872 0.921025C18.9841 0.921025 18.0906 1.78683 18.0906 3.25527ZM29.3303 0.921025L29.3303-60.1202L62.8967-79.0595C63.6165-79.4817 64.4608-79.7239 65.2705-79.7239C66.0456-79.7239 66.8623-79.4817 67.582-79.0595L101.245-60.1202L101.245 0.921025ZM15.4808 15.7687L115.026 15.7687C116.653 15.7687 118.045 14.3766 118.045 12.7142C118.045 11.0589 116.653 9.69437 115.026 9.69437L15.4808 9.69437C13.8254 9.69437 12.4609 11.0589 12.4609 12.7142C12.4609 14.3766 13.8254 15.7687 15.4808 15.7687ZM56.9217-13.4126C58.3622-13.4126 59.2417-14.3545 59.2417-15.795L59.2417-21.2904L71.0793-21.2904C71.9172-21.2904 72.4643-21.8375 72.4643-22.7377C72.4643-23.5479 71.9172-24.0673 71.0793-24.0673L59.2417-24.0673L59.2417-30.5674L68.2547-30.5674C76.9158-30.5674 82.1008-36.1619 82.1008-43.5898C82.1008-51.267 76.7082-56.6746 68.3516-56.6746L56.9563-56.6746C55.5228-56.6746 54.574-55.6635 54.574-54.2023L54.574-33.3788L49.4513-33.3788C48.5788-33.3788 48.0664-32.7972 48.0664-31.9593C48.0664-31.1144 48.5788-30.5674 49.4513-30.5674L54.574-30.5674L54.574-24.0673L49.4513-24.0673C48.5788-24.0673 48.0664-23.5479 48.0664-22.7377C48.0664-21.8375 48.5788-21.2904 49.4513-21.2904L54.574-21.2904L54.574-15.795C54.574-14.3545 55.4882-13.4126 56.9217-13.4126ZM59.2417-34.5078L59.2417-52.6372L67.1673-52.6372C74.0278-52.6372 77.2739-48.878 77.2739-43.5898C77.2739-37.7888 73.5079-34.5078 67.1673-34.5078Z"/>
</svg>