<svg xmlns="http://www.w3.org/2000/svg" viewBox="12.4609 -86.29 105.58 102.06">
  <path d="M18.0906 5.95609L112.45 5.95609L112.45 3.25527C112.45 1.78683 111.557 0.921025 110.054 0.921025L106.939 0.921025L106.939-54.6084L111.39-54.6084C113.474-54.6084 114.645-56.0769 114.645-57.6283C114.645-58.702 114.008-59.72 112.65-60.5512L70.7818-84.7045C69.0093-85.7499 67.1053-86.29 65.2705-86.29C63.4011-86.29 61.4694-85.7499 59.697-84.7045L17.8285-60.5512C16.464-59.72 15.8613-58.702 15.8613-57.6283C15.8613-56.0769 17.0043-54.6084 19.1167-54.6084L23.6024-54.6084L23.6024 0.921025L20.4872 0.921025C18.9841 0.921025 18.0906 1.78683 18.0906 3.25527ZM29.3303 0.921025L29.3303-60.1202L62.8967-79.0595C63.6165-79.4817 64.4608-79.7239 65.2705-79.7239C66.0456-79.7239 66.8623-79.4817 67.582-79.0595L101.245-60.1202L101.245 0.921025ZM15.4808 15.7687L115.026 15.7687C116.653 15.7687 118.045 14.3766 118.045 12.7142C118.045 11.0589 116.653 9.69437 115.026 9.69437L15.4808 9.69437C13.8254 9.69437 12.4609 11.0589 12.4609 12.7142C12.4609 14.3766 13.8254 15.7687 15.4808 15.7687ZM47.5755-13.8904C48.7528-13.8904 49.5007-14.7076 49.5007-15.9542L49.5007-51.7926L60.9084-51.7926C66.6678-51.7926 69.1882-50.0969 69.1882-43.6935L69.1882-28.4229C69.1882-27.121 69.9361-26.3038 71.1758-26.3038C72.3601-26.3038 73.1426-27.121 73.1426-28.4229L73.1426-44.5384C73.1426-52.078 70.0819-56.1141 62.245-56.1141L48.5312-56.1141C46.6613-56.1141 45.5463-54.9991 45.5463-53.1292L45.5463-15.9542C45.5463-14.7076 46.3289-13.8904 47.5755-13.8904ZM60.2171-14.2782L74.1323-14.2782C82.2601-14.2782 84.9601-18.5154 84.9601-26.6432L84.9601-54.3688C84.9601-55.7054 84.2122-56.5296 83.0002-56.5296C81.7536-56.5296 80.971-55.7054 80.971-54.3688L80.971-26.7888C80.971-20.4477 79.393-18.5997 73.0519-18.5997L61.2905-18.5997L61.2905-42.08C61.2905-43.3543 60.5703-44.1715 59.3653-44.1715C58.1533-44.1715 57.3638-43.3543 57.3638-42.08L57.3638-17.1246C57.3638-15.3239 58.5204-14.2782 60.2171-14.2782Z"/>
</svg>