<svg xmlns="http://www.w3.org/2000/svg" viewBox="18.6914 -85.4945 59.49 100.46">
  <path d="M24.5276 14.9663L72.3063 14.9663C75.7057 14.9663 78.1772 12.5294 78.1772 9.13004L78.1772-79.6583C78.1772-83.113 75.761-85.4945 72.3063-85.4945L24.5276-85.4945C21.1076-85.4945 18.6914-83.113 18.6914-79.6583L18.6914 9.13004C18.6914 12.5294 21.1629 14.9663 24.5276 14.9663ZM26.9319 2.72375C25.6931 2.72375 24.7311 1.76876 24.7311 0.495265L24.7311-77.254C24.7311-78.5828 25.6378-79.4548 26.9319-79.4548L69.902-79.4548C71.2308-79.4548 72.1028-78.5828 72.1028-77.254L72.1028 0.495265C72.1028 1.76876 71.1755 2.72375 69.902 2.72375Z"/>
</svg>