<svg xmlns="http://www.w3.org/2000/svg" viewBox="8.72266 -84.1504 97.94 97.9">
  <path d="M57.6748 13.7538C84.6605 13.7538 106.662-8.24729 106.662-35.1983C106.662-62.1494 84.6605-84.1504 57.6748-84.1504C30.7237-84.1504 8.72266-62.1494 8.72266-35.1983C8.72266-8.24729 30.7237 13.7538 57.6748 13.7538ZM43.4848-13.1427C37.3373-13.1427 33.1422-17.4904 33.1422-23.1531C33.1422-28.4837 37.5796-33.0179 43.1038-33.1149C43.8861-38.4105 48.1851-42.2664 53.5293-42.2664C54.7891-42.2664 55.8483-42.0795 57.2257-41.6573C59.5793-45.2638 63.4975-47.4721 68.1355-47.4721C75.058-47.4721 80.4648-41.8996 80.728-35.1363C86.0306-34.1808 89.9419-29.6465 89.9419-24.233C89.9419-17.9265 85.193-13.1427 78.2772-13.1427ZM23.2345-38.2787C23.2345-43.6852 27.0627-48.1988 32.4137-49.2303C32.6839-56.0489 38.3673-61.6078 45.2692-61.6078C49.6235-61.6078 53.4311-59.4201 55.923-55.6338C57.1828-56.0076 58.2143-56.2361 59.6471-56.2361C64.3199-56.2361 67.3656-53.7233 68.2722-50.6365C63.3579-50.6776 59.0387-48.8914 55.9517-45.2578C55.1697-45.4308 54.3114-45.5208 53.5293-45.5208C47.4165-45.5208 42.3282-41.5749 40.4934-35.9814C36.0695-35.0812 32.4972-31.9725 30.8706-27.8875C25.9968-29.4314 23.2345-33.4259 23.2345-38.2787Z"/>
</svg>