<svg xmlns="http://www.w3.org/2000/svg" viewBox="12.2531 -88.4409 97.41 107.14">
  <path d="M60.9428-28.6457C62.5979-28.6457 64.1353-29.2204 66.0882-30.3285L105.027-52.8959C108.234-54.7659 109.577-56.2547 109.577-58.5468C109.577-60.8319 108.234-62.3554 105.027-64.1907L66.0882-86.7582C64.1353-87.9009 62.5979-88.4409 60.9428-88.4409C59.3154-88.4409 57.7779-87.9009 55.8596-86.7582L16.8859-64.1907C13.714-62.3554 12.3361-60.8319 12.3361-58.5468C12.3361-56.2547 13.714-54.7659 16.8859-52.8959L55.8596-30.3285C57.7779-29.2204 59.3154-28.6457 60.9428-28.6457ZM60.9428-35.1634C60.3334-35.1634 59.7864-35.385 59.0524-35.7658L20.6472-57.7927C20.3289-57.9656 20.066-58.1663 20.066-58.5468C20.066-58.9204 20.3289-59.121 20.6472-59.3286L59.0524-81.3208C59.7864-81.7363 60.3334-81.9578 60.9428-81.9578C61.5798-81.9578 62.1615-81.7363 62.8608-81.3208L101.266-59.3286C101.619-59.121 101.847-58.9204 101.847-58.5468C101.847-58.1663 101.619-57.9656 101.266-57.7927L62.8608-35.7658C62.1615-35.385 61.5798-35.1634 60.9428-35.1634ZM60.9428-4.31276C62.4593-4.31276 63.7543-5.02604 65.4993-6.05782L107.403-30.5854C108.982-31.5549 109.66-32.8638 109.66-34.1035C109.66-35.6619 108.614-36.8878 107.658-37.4211L62.6876-11.4605C62.0229-11.1143 61.4759-10.8581 60.9428-10.8581C60.4097-10.8581 59.8903-11.1143 59.2603-11.4605L14.2551-37.4211C13.3061-36.8878 12.2531-35.6619 12.2531-34.1035C12.2531-32.8638 13.001-31.5203 14.5175-30.5854L56.4209-6.05782C58.1936-5.02604 59.4539-4.31276 60.9428-4.31276ZM60.9428 18.6976C62.4593 18.6976 63.7543 17.9843 65.4993 16.9802L107.403-7.5821C108.947-8.48229 109.66-9.82585 109.66-11.0655C109.66-12.6515 108.614-13.8845 107.658-14.3832L62.6876 11.5428C62.0229 11.9236 61.4759 12.1798 60.9428 12.1798C60.4097 12.1798 59.8903 11.9236 59.2603 11.5428L14.2551-14.3832C13.3061-13.8845 12.2531-12.6515 12.2531-11.0655C12.2531-9.82585 13.001-8.48229 14.5175-7.5821L56.4209 16.9802C58.1936 17.9843 59.4539 18.6976 60.9428 18.6976Z"/>
</svg>