<svg xmlns="http://www.w3.org/2000/svg" viewBox="12.4609 -74.1334 77.75 77.75">
  <path d="M12.4609-6.28198C12.4609-0.064433 16.2067 3.61207 22.4936 3.61207L80.1737 3.61207C86.4606 3.61207 90.2064-0.064433 90.2064-6.28198L90.2064-64.2393C90.2064-70.4569 86.4606-74.1334 80.1737-74.1334L22.4936-74.1334C16.2067-74.1334 12.4609-70.4569 12.4609-64.2393ZM18.5006-7.55678L18.5006-62.9645C18.5006-66.1901 20.4042-68.0936 23.5605-68.0936L79.1068-68.0936C82.2978-68.0936 84.1667-66.1901 84.1667-62.9645L84.1667-7.55678C84.1667-4.33116 82.2978-2.42764 79.1068-2.42764L23.5605-2.42764C20.4042-2.42764 18.5006-4.33116 18.5006-7.55678Z"/>
</svg>