<svg xmlns="http://www.w3.org/2000/svg" viewBox="8.72266 -87.6943 104.72 104.87">
  <path d="M61.087-69.9907C62.874-69.9907 64.2801-71.4315 64.2801-73.2184L64.2801-84.5289C64.2801-86.2882 62.874-87.6943 61.087-87.6943C59.2931-87.6943 57.887-86.2882 57.887-84.5289L57.887-73.2184C57.887-71.4315 59.2931-69.9907 61.087-69.9907ZM85.5787-59.787C86.867-58.5541 88.9034-58.4917 90.1709-59.787L98.1935-67.7472C99.4194-69.0078 99.3918-71.0789 98.1935-72.3671C96.9053-73.5724 94.8688-73.6 93.6359-72.3671L85.5787-64.3099C84.3804-63.084 84.4081-61.0475 85.5787-59.787ZM95.7478-35.2606C95.7478-33.5014 97.2163-32.0329 98.9755-32.0329L110.217-32.0329C112.038-32.0329 113.444-33.5014 113.444-35.2606C113.444-37.0199 112.038-38.4884 110.217-38.4884L98.9755-38.4884C97.2163-38.4884 95.7478-37.0199 95.7478-35.2606ZM85.5787-10.6997C84.4081-9.4391 84.3804-7.43733 85.5787-6.17675L93.6359 1.88045C94.8688 3.11337 96.9053 3.05106 98.1935 1.84581C99.3918 0.55757 99.4194-1.47885 98.1935-2.73942L90.1363-10.6997C88.9034-11.9603 86.867-11.9326 85.5787-10.6997ZM61.087-0.530576C59.2931-0.530576 57.887 0.910195 57.887 2.69713L57.887 14.0076C57.887 15.7669 59.2931 17.173 61.087 17.173C62.874 17.173 64.2801 15.7669 64.2801 14.0076L64.2801 2.69713C64.2801 0.910195 62.874-0.530576 61.087-0.530576ZM36.5884-10.6997C35.3001-11.9326 33.2291-11.9603 31.9962-10.6997L24.0082-2.77407C22.7477-1.51349 22.7753 0.522927 23.9736 1.81117C25.2342 3.01642 27.2983 3.07872 28.5312 1.84581L36.5537-6.17675C37.7867-7.43733 37.759-9.4391 36.5884-10.6997ZM26.3916-35.2606C26.3916-37.0199 24.9855-38.4884 23.1916-38.4884L11.9504-38.4884C10.1288-38.4884 8.72266-37.0199 8.72266-35.2606C8.72266-33.5014 10.1288-32.0329 11.9504-32.0329L23.1916-32.0329C24.9855-32.0329 26.3916-33.5014 26.3916-35.2606ZM36.5537-59.787C37.759-61.0129 37.7867-63.084 36.5884-64.3099L28.5658-72.3671C27.3675-73.5654 25.2688-73.5724 24.0429-72.3671C22.81-71.0789 22.7823-69.0078 24.0082-67.7819L31.9962-59.787C33.2291-58.5264 35.2655-58.5541 36.5537-59.787ZM61.087-11.2304C74.3517-11.2304 85.1173-21.989 85.1173-35.2606C85.1173-48.5323 74.3517-59.2909 61.087-59.2909C47.8154-59.2909 37.0498-48.5323 37.0498-35.2606C37.0498-21.989 47.8154-11.2304 61.087-11.2304ZM61.087-16.9583C50.9598-16.9583 42.7847-25.1404 42.7847-35.2606C42.7847-45.3809 50.9598-53.563 61.087-53.563C71.2073-53.563 79.3824-45.3809 79.3824-35.2606C79.3824-25.1404 71.2073-16.9583 61.087-16.9583Z" />
</svg>