<svg xmlns="http://www.w3.org/2000/svg" viewBox="12.4609 -90.7418 120.36 110.82">
  <path d="M26.5777 12.6871L80.477 12.6871C80.387 12.1886 80.3593 11.7318 80.297 11.2404L75.1881-41.8572C74.641-47.4731 78.5812-51.8844 84.1972-51.8844L97.2538-51.8844C97.2191-55.4833 96.8037-56.9647 95.025-59.3801L85.9143-71.4607L85.9143-80.1911C85.9143-87.0103 82.1202-90.7418 75.1552-90.7418L34.5595-90.7418C27.5945-90.7418 23.8004-87.0103 23.8004-80.1911L23.8004-71.4607L14.6967-59.3801C12.8487-56.8677 12.4609-55.3517 12.4609-51.4343L12.4609-1.29115C12.4609 7.97235 17.238 12.6871 26.5777 12.6871ZM41.2341-73.4803C39.8835-73.4803 38.7339-74.6023 38.7339-75.9805C38.7339-77.3311 39.8835-78.5154 41.2341-78.5154L68.121-78.5154C69.4992-78.5154 70.6212-77.3311 70.6212-75.9805C70.6212-74.6023 69.4992-73.4803 68.121-73.4803ZM95.5369 20.0752L117.863 20.0752C123.825 20.0752 126.878 17.0288 127.487 10.6933L132.596-42.3489C132.825-44.7033 131.523-46.2268 129.203-46.2268L84.1972-46.2268C81.9121-46.2268 80.6101-44.6687 80.8387-42.3489L85.9477 10.6933C86.55 17.0288 89.5755 20.0752 95.5369 20.0752ZM104.203-44.2253L109.619-44.2253L109.931-48.6975C110.118-51.2934 110.913-52.7471 112.928-54.2075L129.251-65.9484C132.146-68.0539 129.085-72.5969 125.823-70.2216L110.123-58.8821C106.426-56.2167 104.992-53.5164 104.612-49.03Z"/>
</svg>