<svg xmlns="http://www.w3.org/2000/svg" viewBox="-4.81325 -87.646 126.43 93.72">
  <path d="M-0.983957-60.6181L16.4128-71.2029C18.3171-72.394 18.2548-74.6998 16.4128-75.8285L-1.01162-86.5033C-2.92989-87.646-4.81325-86.7179-4.81325-84.4397L-4.81325-62.647C-4.81325-60.3343-2.90222-59.4754-0.983957-60.6181ZM30.1087-66.6467L116.428-66.6467C119.842-66.6467 121.615-68.3848 121.615-71.7989L121.615-75.3918C121.615-78.7367 119.842-80.5094 116.428-80.5094L30.1087-80.5094C26.6946-80.5094 24.9219-78.7367 24.9219-75.3918L24.9219-71.7989C24.9219-68.3848 26.6946-66.6467 30.1087-66.6467ZM27.9417-45.0133L118.56-45.0133C120.25-45.0133 121.615-46.3431 121.615-48.0331C121.615-49.7231 120.25-51.053 118.56-51.053L27.9417-51.053C26.2241-51.053 24.9219-49.7231 24.9219-48.0331C24.9219-46.3431 26.2241-45.0133 27.9417-45.0133ZM27.9417-19.4683L118.56-19.4683C120.25-19.4683 121.615-20.7982 121.615-22.4882C121.615-24.1782 120.25-25.508 118.56-25.508L27.9417-25.508C26.2241-25.508 24.9219-24.1782 24.9219-22.4882C24.9219-20.7982 26.2241-19.4683 27.9417-19.4683ZM27.9417 6.07659L118.56 6.07659C120.25 6.07659 121.615 4.74673 121.615 3.05674C121.615 1.36675 120.25 0.0368855 118.56 0.0368855L27.9417 0.0368855C26.2241 0.0368855 24.9219 1.36675 24.9219 3.05674C24.9219 4.74673 26.2241 6.07659 27.9417 6.07659Z" />
</svg>