<svg xmlns="http://www.w3.org/2000/svg" viewBox="8.72266 -84.2128 97.94 97.9">
  <path d="M57.6748 13.6915C84.6605 13.6915 106.662-8.30959 106.662-35.2606C106.662-62.2117 84.6605-84.2128 57.6748-84.2128C30.7237-84.2128 8.72266-62.2117 8.72266-35.2606C8.72266-8.30959 30.7237 13.6915 57.6748 13.6915ZM51.7282-13.9374C49.9205-13.9374 48.6116-15.1424 48.6116-16.9431L48.6116-32.8442L43.5029-30.6845C43.1914-30.5599 42.8036-30.4976 42.6167-30.4976C41.8064-30.4976 41.2248-31.1139 41.2248-31.9241C41.2248-32.5681 41.5156-33.0182 42.2565-33.309L48.6116-35.9119L48.6116-42.405L43.4476-40.2176C43.1291-40.093 42.8036-40.0307 42.6167-40.0307C41.8064-40.0307 41.2248-40.647 41.2248-41.4573C41.2248-42.0736 41.5156-42.5583 42.2565-42.8145L48.6116-45.4797L48.6116-55.0947C48.6116-56.5352 49.6227-57.5463 51.0356-57.5463C52.4691-57.5463 53.4455-56.5352 53.4455-55.0947L53.4455-47.4326L62.9221-51.3919C63.2682-51.5165 63.4968-51.6481 63.7806-51.6481C64.7987-51.6481 65.1725-50.8239 65.1725-50.1939C65.1725-49.5499 64.8124-49.0512 64.0438-48.7673L53.4455-44.3302L53.4455-37.8994L62.9221-41.8311C63.2406-41.9557 63.4621-42.0526 63.7183-42.0526C64.5632-42.0526 65.1449-41.4986 65.1449-40.5914C65.1449-40.0167 64.7847-39.525 64.0438-39.2342L53.4455-34.8248L53.4455-18.5705C57.7446-18.5705 61.9743-20.0867 64.958-23.209C67.2004-25.4723 68.7231-28.4694 69.0556-31.882C69.1942-33.2809 69.9421-34.1257 71.3133-34.1257C72.8231-34.1257 73.5294-33.1423 73.5294-31.8127C73.5294-27.4377 71.1755-23.0898 67.9287-19.8429C64.0725-16.1527 58.3118-13.9374 52.2959-13.9374Z"/>
</svg>