<svg xmlns="http://www.w3.org/2000/svg" viewBox="12.4609 -86.29 105.58 102.06">
  <path d="M18.0906 5.95609L112.45 5.95609L112.45 3.25527C112.45 1.78683 111.557 0.921025 110.054 0.921025L106.939 0.921025L106.939-54.6084L111.39-54.6084C113.474-54.6084 114.645-56.0769 114.645-57.6283C114.645-58.702 114.008-59.72 112.65-60.5512L70.7818-84.7045C69.0093-85.7499 67.1053-86.29 65.2705-86.29C63.4011-86.29 61.4694-85.7499 59.697-84.7045L17.8285-60.5512C16.464-59.72 15.8613-58.702 15.8613-57.6283C15.8613-56.0769 17.0043-54.6084 19.1167-54.6084L23.6024-54.6084L23.6024 0.921025L20.4872 0.921025C18.9841 0.921025 18.0906 1.78683 18.0906 3.25527ZM29.3303 0.921025L29.3303-60.1202L62.8967-79.0595C63.6165-79.4817 64.4608-79.7239 65.2705-79.7239C66.0456-79.7239 66.8623-79.4817 67.582-79.0595L101.245-60.1202L101.245 0.921025ZM15.4808 15.7687L115.026 15.7687C116.653 15.7687 118.045 14.3766 118.045 12.7142C118.045 11.0589 116.653 9.69437 115.026 9.69437L15.4808 9.69437C13.8254 9.69437 12.4609 11.0589 12.4609 12.7142C12.4609 14.3766 13.8254 15.7687 15.4808 15.7687ZM59.3932-14.3821L59.9609-14.3821C65.8382-14.3821 71.4951-16.5628 75.2473-20.156C78.4248-23.3336 80.7441-27.5705 80.7441-31.8763C80.7441-33.2059 80.0724-34.1547 78.5973-34.1547C77.2607-34.1547 76.5128-33.3098 76.3742-31.9456C76.0764-28.6023 74.5537-25.6399 72.3459-23.4111C69.4385-20.3582 65.278-18.8489 61.0483-18.8489L61.0483-34.8191L71.501-39.1592C72.1726-39.4501 72.5328-39.9071 72.5328-40.4818C72.5328-41.3544 71.9511-41.9014 71.1755-41.9014C70.9193-41.9014 70.6631-41.8391 70.3792-41.7145L61.0483-37.8245L61.0483-44.1444L71.501-48.4845C72.2003-48.7684 72.5604-49.2601 72.5604-49.9387C72.5604-50.4995 72.1866-51.2613 71.2378-51.2613C70.9539-51.2613 70.6908-51.1644 70.3792-51.0398L61.0483-47.1497L61.0483-54.6733C61.0483-56.1069 60.1341-57.0903 58.7352-57.0903C57.3294-57.0903 56.3806-56.1069 56.3806-54.6733L56.3806-45.2315L50.1294-42.6356C49.4578-42.3794 49.1669-41.9293 49.1669-41.3407C49.1669-40.5374 49.7486-39.9211 50.4619-39.9211C50.6835-39.9211 50.9743-39.9834 51.2928-40.108L56.3806-42.2608L56.3806-35.9062L50.1294-33.3034C49.4578-33.0472 49.1669-32.6317 49.1669-31.9531C49.1669-31.2121 49.7486-30.5958 50.4619-30.5958C50.6835-30.5958 51.0366-30.6581 51.3481-30.7827L56.3806-32.8732L56.3806-17.3185C56.3806-15.5248 57.6272-14.3821 59.3932-14.3821Z"/>
</svg>