<svg xmlns="http://www.w3.org/2000/svg" viewBox="12.4609 -71.4734 55.46 98.88">
  <path d="M14.8086 27.406L65.5321 27.406C66.8894 27.406 67.9214 26.4226 67.9214 25.079C67.9214 23.7631 66.8894 22.7797 65.5321 22.7797L14.8086 22.7797C13.5137 22.7797 12.4609 23.7631 12.4609 25.079C12.4609 26.4226 13.5137 27.406 14.8086 27.406ZM40.1739 1.0074C57.2531 1.0074 67.9214-9.31475 67.9214-24.6624L67.9214-68.0448C67.9214-70.1712 66.55-71.4734 64.4789-71.4734C62.4078-71.4734 61.1126-70.1712 61.1126-68.0448L61.1126-25.1474C61.1126-13.166 53.2149-5.23344 40.1739-5.23344C27.1605-5.23344 19.2698-13.166 19.2698-25.1474L19.2698-68.0448C19.2698-70.1712 17.8983-71.4734 15.8619-71.4734C13.7631-71.4734 12.4609-70.1712 12.4609-68.0448L12.4609-24.6624C12.4609-9.31475 23.0946 1.0074 40.1739 1.0074ZM14.8086 15.2212L65.5321 15.2212C66.8894 15.2212 67.9214 14.2377 67.9214 12.9218C67.9214 11.5783 66.8894 10.6225 65.5321 10.6225L14.8086 10.6225C13.5137 10.6225 12.4609 11.5783 12.4609 12.9218C12.4609 14.2377 13.5137 15.2212 14.8086 15.2212Z" />
</svg>