<svg xmlns="http://www.w3.org/2000/svg" viewBox="8.72266 -84.2128 97.94 97.9">
  <path d="M57.6748 13.6915C84.7158 13.6915 106.662-8.21963 106.662-35.2606C106.662-62.3017 84.7158-84.2128 57.6748-84.2128C30.6684-84.2128 8.72266-62.3017 8.72266-35.2606C8.72266-8.21963 30.6684 13.6915 57.6748 13.6915ZM57.6748 7.37462C34.097 7.37462 15.0465-11.6829 15.0465-35.2606C15.0465-58.8384 34.097-77.8959 57.6748-77.8959C81.2526-77.8959 100.31-58.8384 100.31-35.2606C100.31-11.6829 81.2526 7.37462 57.6748 7.37462ZM74.2331-62.2936L40.874-62.2936C37.5646-62.2936 35.3283-59.9398 35.3283-56.4228L35.3283-49.1476L79.7787-49.1476L79.7787-56.4228C79.7787-59.9398 77.5425-62.2936 74.2331-62.2936ZM44.3904-52.3319C43.089-52.3319 41.9745-53.4187 41.9745-54.7131C41.9745-56.0492 43.089-57.1291 44.3904-57.1291C45.7195-57.1291 46.7717-56.0492 46.7717-54.7131C46.7717-53.4187 45.7195-52.3319 44.3904-52.3319ZM51.292-52.3319C49.9629-52.3319 48.9384-53.4187 48.9384-54.7131C48.9384-56.0492 49.9629-57.1291 51.292-57.1291C52.5934-57.1291 53.6803-56.0492 53.6803-54.7131C53.6803-53.4187 52.5934-52.3319 51.292-52.3319ZM65.3248-53.3631C64.5355-53.3631 63.9748-53.9239 63.9748-54.7131C63.9748-55.5094 64.5355-56.0978 65.3248-56.0978L72.1843-56.0978C72.9459-56.0978 73.5343-55.5094 73.5343-54.7131C73.5343-53.9239 72.9459-53.3631 72.1843-53.3631ZM40.874-8.36622L74.2331-8.36622C77.5425-8.36622 79.7787-10.7201 79.7787-14.2371L79.7787-45.9972L35.3283-45.9972L35.3283-14.2371C35.3283-10.7201 37.5646-8.36622 40.874-8.36622ZM57.5708-14.5199C49.9697-14.5199 43.8015-20.7157 43.8015-28.2823C43.8015-35.8834 49.9697-42.0516 57.5708-42.0516C65.172-42.0516 71.3402-35.8834 71.3402-28.2823C71.3402-20.7157 65.172-14.5199 57.5708-14.5199ZM57.5708-17.6703C63.4825-17.6703 68.1898-22.3429 68.1898-28.2823C68.1898-34.2286 63.4825-38.9635 57.5708-38.9635C51.6245-38.9635 46.9519-34.2286 46.9519-28.2823C46.9519-22.3429 51.6245-17.6703 57.5708-17.6703Z" />
</svg>