<svg xmlns="http://www.w3.org/2000/svg" viewBox="12.4609 -89.974 88.11 106.79">
  <path d="M23.0111-50.615L38.2538-50.615C39.9298-50.615 41.2734-51.5638 41.6681-53.1982L46.4573-72.8875L55.234-30.3267C55.9266-27.1822 60.2693-27.0783 61.1421-30.2644L70.3141-63.3789L72.9787-53.3714C73.4427-51.5431 74.5161-50.615 76.2891-50.615L90.0582-50.615C91.7205-50.615 93.1473-52.0072 93.1473-53.5309C93.1473-55.2625 91.7898-56.5854 90.0582-56.5854L77.9238-56.5854L73.3825-74.5289C72.6137-77.4795 68.6517-77.5141 67.6543-74.3697L58.5377-42.6892L49.4146-86.8019C48.7566-89.974 44.4762-89.974 43.6797-86.8712L36.5012-56.5854L23.0111-56.5854C21.2795-56.5854 19.8873-55.2279 19.8873-53.5309C19.8873-52.0072 21.3141-50.615 23.0111-50.615ZM15.4808-8.7178L97.5539-8.7178C99.1816-8.7178 100.574-10.0823 100.574-11.7377C100.574-13.3653 99.1816-14.7298 97.5539-14.7298L15.4808-14.7298C13.8254-14.7298 12.4609-13.3653 12.4609-11.7377C12.4609-10.0823 13.8254-8.7178 15.4808-8.7178ZM15.4808 16.8196L72.632 16.8196C74.2597 16.8196 75.6519 15.4274 75.6519 13.7998C75.6519 12.1444 74.2597 10.7799 72.632 10.7799L15.4808 10.7799C13.8254 10.7799 12.4609 12.1444 12.4609 13.7998C12.4609 15.4274 13.8254 16.8196 15.4808 16.8196Z" />
</svg>