<svg xmlns="http://www.w3.org/2000/svg" viewBox="12.4609 -74.6047 178.13 78.39">
  <path d="M101.136-19.9874C109.651-19.9874 117.827-22.5419 124.577-27.1315C125.588-27.9487 125.913-29.2507 125.165-30.2341C124.445-31.2729 123.115-31.4598 122-30.7119C116.372-26.5724 109.007-24.3157 101.136-24.3157C93.3001-24.3157 85.8652-26.607 80.2371-30.7119C79.1913-31.4598 77.8548-31.2729 77.0445-30.2341C76.3589-29.2853 76.6568-27.9834 77.6955-27.1315C84.3342-22.5419 92.621-19.9874 101.136-19.9874ZM101.136-31.6384C107.539-31.6384 113.576-33.4799 118.097-36.8997C119.018-37.6476 119.343-38.9495 118.616-39.9053C117.938-40.8471 116.566-41.1863 115.424-40.3761C111.658-37.552 106.563-36.0083 101.136-36.0083C95.6814-36.0083 90.5864-37.552 86.8137-40.3761C85.7057-41.1863 84.3345-40.8748 83.6488-39.9053C82.9909-38.9219 83.2264-37.6476 84.2029-36.8997C88.8274-33.4799 94.8296-31.6384 101.136-31.6384ZM22.03-6.05084L34.4907-4.60413L35.0863-10.6438L23.3532-11.9936C20.072-12.3951 18.5006-13.9594 18.5006-16.8875L18.5006-22.8894C18.5006-32.3302 24.433-37.363 36.2632-39.6126L68.7844-45.8219C71.2008-46.2997 72.8078-46.5282 74.1997-47.6639C83.061-55.0371 92.9056-61.7246 103.671-67.5192C107.266-69.4101 104.391-74.6047 100.43-72.4992C89.2627-66.49 78.7464-59.5186 69.4837-51.9309L35.356-45.4724C20.1249-42.5855 12.4609-35.7312 12.4609-22.8894L12.4609-16.5134C12.4609-10.0944 15.4451-6.81245 22.03-6.05084ZM47.1598 3.78632C56.3403 3.78632 63.5061-3.3795 63.5061-12.56C63.5061-21.7129 56.3403-28.8787 47.1598-28.8787C38.0069-28.8787 30.8411-21.7129 30.8411-12.56C30.8411-3.3795 38.0069 3.78632 47.1598 3.78632ZM47.1598-1.9416C41.2483-1.9416 36.569-6.62091 36.569-12.56C36.569-18.4715 41.2483-23.1784 47.1598-23.1784C53.0989-23.1784 57.7782-18.4715 57.7782-12.56C57.7782-6.62091 53.0989-1.9416 47.1598-1.9416ZM59.5995-6.86778L143.58-6.86778L143.58-12.9075L59.5995-12.9075ZM155.86 3.78632C165.013 3.78632 172.206-3.3795 172.206-12.56C172.206-21.7129 165.013-28.8787 155.86-28.8787C146.707-28.8787 139.541-21.7129 139.541-12.56C139.541-3.3795 146.707 3.78632 155.86 3.78632ZM155.86-1.9416C149.948-1.9416 145.241-6.62091 145.241-12.56C145.241-18.4715 149.948-23.1784 155.86-23.1784C161.799-23.1784 166.478-18.4715 166.478-12.56C166.478-6.62091 161.799-1.9416 155.86-1.9416ZM169.152-8.00322L177.197-8.93081C186.294-9.97603 190.586-14.8433 190.586-24.1275L190.586-32.6286C190.586-43.3326 186.204-48.0957 175.28-50.1034L152.103-54.3471C145.298-55.6208 139.967-56.1472 132.621-55.7041L70.2652-51.9309L67.6076-45.7389L132.344-49.6297C139.1-50.0312 144.148-49.5398 151.881-48.0442L174.213-43.8905C181.785-42.52 184.546-39.3016 184.546-32.6286L184.546-24.1275C184.546-18.4658 182.006-15.524 176.511-14.8389L169.152-14.0153Z"/>
</svg>