<svg xmlns="http://www.w3.org/2000/svg" viewBox="8.72266 -84.1504 97.94 97.9">
  <path d="M57.6748 13.7538C84.6605 13.7538 106.662-8.24729 106.662-35.1983C106.662-62.1494 84.6605-84.1504 57.6748-84.1504C30.7237-84.1504 8.72266-62.1494 8.72266-35.1983C8.72266-8.24729 30.7237 13.7538 57.6748 13.7538ZM25.6021-44.5854C31.2509-51.5356 41.0042-56.589 51.36-58.1122C51.36-57.8147 51.36-57.5864 51.36-57.3235C51.3946-54.7408 51.3946-52.1442 51.4293-49.5615C43.7252-48.2945 36.8865-44.681 31.5358-39.0465C30.8571-38.3055 29.8877-38.2779 29.313-38.9842L25.7337-42.6604C25.1866-43.2351 25.1243-43.9761 25.6021-44.5854ZM89.7475-44.5854C90.2252-43.9761 90.1906-43.2351 89.6159-42.6604L86.0089-39.0188C85.4272-38.3818 84.4924-38.3748 83.8831-39.0118C78.5807-44.7364 71.645-48.2945 63.851-49.5615C63.8856-52.1442 63.9202-54.7062 63.9202-57.2888C63.9202-57.5518 63.9202-57.8147 63.9202-58.1122C74.3106-56.6236 84.071-51.5079 89.7475-44.5854ZM36.8027-33.2049C40.1602-37.2684 45.5178-40.2104 51.4639-41.5051C51.4986-38.964 51.4986-36.4853 51.5332-33.9789C51.5332-33.4734 51.5332-32.968 51.5332-32.4973C48.3565-31.4657 45.4912-29.6315 43.2971-27.2921C42.5562-26.5442 41.7113-26.5165 41.0673-27.2021L36.9343-31.3352C36.3872-31.8822 36.3526-32.6232 36.8027-33.2049ZM78.5122-33.2049C78.9969-32.6301 78.9623-31.8476 78.4499-31.3352L74.2822-27.2021C73.6382-26.5581 72.8003-26.5442 72.1217-27.2575C69.9276-29.6661 66.9931-31.5004 63.7817-32.5319C63.7817-33.0373 63.7817-33.5774 63.7817-34.0481C63.7817-36.5269 63.8163-38.9987 63.8163-41.5051C69.8247-40.2727 75.1824-37.2684 78.5122-33.2049ZM57.6748-24.3866C56.4075-24.3866 55.5903-25.2867 55.5556-26.4987C55.4863-37.553 55.4171-48.7112 55.3131-59.7655C55.3131-61.199 56.4005-62.0509 57.6401-62.0509C58.9144-62.0509 60.0018-61.199 60.0018-59.7655C59.8978-48.7112 59.8632-37.553 59.7939-26.4987C59.7593-25.2867 58.9421-24.3866 57.6748-24.3866ZM57.6401-12.2764C55.4315-12.2764 53.5345-14.1112 53.5345-16.3198C53.5345-18.6253 55.4315-20.4254 57.6401-20.4254C59.918-20.4254 61.7804-18.5976 61.7804-16.3198C61.7804-14.1112 59.918-12.2764 57.6401-12.2764Z"/>
</svg>