<svg xmlns="http://www.w3.org/2000/svg" viewBox="12.4609 -91.7392 68.91 112.96">
  <path d="M46.8829-22.4522C67.6453-22.4522 81.3671-34.6717 81.3671-53.2882C81.3671-63.0705 77.2964-75.8575 71.2802-85.0928C68.5662-89.2954 59.5662-91.7392 46.9105-91.7392C34.2619-91.7392 25.2342-89.2954 22.5132-85.0928C16.5317-75.8575 12.4609-63.0705 12.4609-53.2882C12.4609-34.6717 26.1481-22.4522 46.8829-22.4522ZM46.8829-28.1455C29.2925-28.1455 18.1889-37.8578 18.1889-53.2882C18.1889-60.8681 20.916-70.7115 25.4361-78.7209C29.2858-76.3189 37.2189-74.7962 46.9105-74.7962C56.6091-74.7962 64.5076-76.3189 68.3573-78.7209C72.8774-70.7115 75.6738-60.8681 75.6738-53.2882C75.6738-37.8578 64.5355-28.1455 46.8829-28.1455ZM46.9105-80.2123C37.0804-80.2123 27.7701-82.0184 27.7701-83.2989C27.7701-84.4824 37.205-86.2884 46.9105-86.2884C56.5884-86.2884 66.058-84.4824 66.058-83.2989C66.058-82.0184 56.7131-80.2123 46.9105-80.2123ZM46.8829 10.7554C48.4413 10.7554 49.7918 9.40484 49.7918 7.90874L49.7918-25.3545L44.1262-25.3545L44.1262 7.90874C44.1262 9.4325 45.3868 10.7554 46.8829 10.7554ZM46.8829 21.2179C63.5684 21.1556 73.7525 17.133 73.7525 10.5617C73.7525 4.01819 63.5131-0.0391197 46.8829-0.0391197C30.2803-0.0391197 20.1309 4.01819 20.1309 10.5617C20.1309 17.1606 30.225 21.1556 46.8829 21.2179ZM46.8829 15.6286C34.4219 15.6009 26.1706 13.3792 26.1706 10.5617C26.1706 7.82732 34.5326 5.51559 46.8829 5.51559C59.2608 5.51559 67.7128 7.82732 67.7128 10.5617C67.7128 13.2962 59.3162 15.6009 46.8829 15.6286Z"/>
</svg>