<svg xmlns="http://www.w3.org/2000/svg" viewBox="8.72266 -84.1504 97.94 97.9">
  <path d="M57.6748 13.7538C84.6605 13.7538 106.662-8.24729 106.662-35.1983C106.662-62.1494 84.6605-84.1504 57.6748-84.1504C30.7237-84.1504 8.72266-62.1494 8.72266-35.1983C8.72266-8.24729 30.7237 13.7538 57.6748 13.7538ZM43.9189-8.12888C39.0033-8.12888 36.8849-10.7666 36.1579-15.7169L32.4959-40.7838L82.8883-40.7838L79.2262-15.7169C78.4993-10.8219 76.3809-8.12888 71.4653-8.12888ZM49.9076-15.5842C50.4547-15.5842 50.9324-15.8128 51.2233-16.1036L57.6401-22.5758L64.1263-16.1036C64.4518-15.8474 64.8949-15.5842 65.4766-15.5842C66.439-15.5842 67.3392-16.4568 67.3392-17.4539C67.3392-17.9733 67.1107-18.4164 66.7922-18.7695L60.3477-25.221L66.7922-31.7279C67.2076-32.1433 67.3739-32.5311 67.3739-33.0158C67.3739-34.1099 66.536-34.8855 65.4766-34.8855C64.9295-34.8855 64.5141-34.6916 64.1609-34.3385L57.6401-27.887L51.1886-34.3385C50.8701-34.6916 50.4547-34.8509 49.9076-34.8509C48.8482-34.8509 48.0103-34.0476 48.0103-33.0158C48.0103-32.5241 48.2388-32.081 48.592-31.7279L55.0088-25.221L48.592-18.7695C48.2388-18.4164 48.0103-17.9733 48.0103-17.4539C48.0103-16.4568 48.8482-15.5842 49.9076-15.5842ZM30.3372-44.3569C27.5746-44.3569 26.093-46.0254 26.093-48.7257L26.093-51.7985C26.093-54.5335 27.6439-56.2366 30.3372-56.2366L85.0469-56.2366C87.8096-56.2366 89.2912-54.5335 89.2912-51.7985L89.2912-48.7257C89.2912-46.0254 87.8096-44.3569 85.0469-44.3569Z"/>
</svg>